<svg xmlns="http://www.w3.org/2000/svg" width="342" height="140" viewBox="0,0,342,140"><path fill="#5eeded" d="M222.23 76.21L222.27 76.26L222.12 76.10Q219.37 75.92 217.51 78.06L217.66 78.21L217.61 78.16Q215.67 80.22 215.38 83.07L215.47 83.16L215.39 83.08Q215.05 86.17 216.68 87.62L216.82 87.76L216.70 87.64Q218.30 89.07 221.44 88.90L221.42 88.88L221.42 88.88Q224.69 88.78 226.34 87.75L226.30 87.71L226.20 87.61Q227.96 85.99 227.96 83.65L228.10 83.79L227.93 83.63Q228.09 83.22 227.98 82.65L227.99 82.66L227.83 82.50Q227.95 79.99 226.30 77.97L226.42 78.09L226.36 78.03Q224.61 75.91 222.10 76.08ZM221.62 92.91L221.65 92.94L221.57 92.85Q214.92 92.77 212.80 91.63L212.87 91.70L212.86 91.69Q211.39 90.61 211.10 88.04L211.09 88.03L211.01 87.95Q210.93 86.90 210.99 85.81L211.14 85.96L211.09 85.91Q211.29 84.46 211.29 83.78L211.12 83.61L211.24 83.73Q211.98 79.50 212.21 78.47L212.19 78.45L212.22 78.48Q212.82 75.48 214.07 73.37L213.99 73.28L213.98 73.28Q218.01 66.74 226.92 57.20L227.02 57.30L227.06 57.34Q231.05 56.89 234.37 55.69L234.37 55.68L234.36 55.68Q224.06 66.85 219.26 73.19L219.13 73.05L219.13 73.05Q220.67 72.37 222.61 72.37L222.68 72.44L222.68 72.44Q227.58 72.37 229.86 75.28L229.85 75.27L229.82 75.24Q231.94 77.82 232.46 83.13L232.39 83.06L232.41 83.08Q232.50 84.14 232.50 85.06L232.58 85.13L232.56 85.12Q232.45 89.69 229.14 91.29L229.25 91.40L229.22 91.37Q227.35 92.24 221.53 92.81ZM225.00 96.46L225.03 96.49L225.02 96.48Q226.86 96.32 229.83 96.44L229.87 96.47L229.87 96.48Q232.27 96.54 234.62 95.45L234.63 95.46L234.79 95.62Q236.40 94.38 236.40 91.70L236.41 91.71L236.35 91.64Q236.33 90.88 236.07 89.40L236.02 89.35L236.10 89.42Q235.82 87.91 235.82 87.23L235.89 87.30L235.91 87.32Q234.51 80.16 232.11 77.30L232.13 77.32L232.07 77.26Q232.05 77.18 231.82 76.84L231.78 76.79L231.30 76.43L231.23 76.42L231.14 76.33Q230.65 75.61 229.73 74.18L229.85 74.30L229.76 74.21Q228.50 72.89 225.53 72.21L225.36 72.04L225.35 72.03Q227.33 69.78 231.79 64.24L231.73 64.18L238.09 56.27L238.10 56.28Q235.80 57.64 232.21 58.78L232.15 58.72L232.13 58.70Q233.41 57.13 236.09 54.16L236.09 54.15L236.19 54.26Q232.58 55.84 226.76 56.70L226.73 56.67L226.75 56.70Q218.09 65.45 213.64 72.88L213.68 72.91L213.78 73.02Q211.42 76.71 210.56 86.07L210.63 86.14L210.63 86.14Q210.52 87.00 210.64 88.43L210.64 88.44L210.49 88.29Q210.67 90.98 212.33 92.35L212.31 92.33L212.33 92.35Q212.98 92.66 212.92 92.71L212.86 92.66L212.80 92.59Q213.42 94.02 214.62 94.64L214.58 94.60L214.55 94.57Q216.89 95.77 219.80 96.05L219.82 96.07L219.70 95.95Q219.68 95.94 224.94 96.39ZM224.64 79.59L224.69 79.64L224.65 79.60Q225.56 79.48 226.98 80.22L226.99 80.23L226.92 80.16Q227.49 81.65 227.49 82.62L227.53 82.65L227.35 82.48Q227.68 85.32 226.25 86.80L226.29 86.84L226.20 86.75Q224.74 87.98 221.60 88.43L221.46 88.29L221.62 88.45Q219.44 88.44 218.64 88.04L218.53 87.93L218.49 87.89Q218.34 87.34 218.34 86.88L218.30 86.84L218.33 86.88Q218.03 82.01 222.43 80.06L222.38 80.02L222.28 79.92Q223.59 79.57 224.73 79.69Z"/><path fill="#567ae5" d="M278.96 61.85L279.14 62.04L276.64 62.05L276.74 62.15Q273.29 62.24 272.95 65.27L273.05 65.37L272.92 65.24Q272.82 66.34 272.88 67.82L272.88 67.83L273.03 67.98Q273.05 70.85 274.93 72.85L274.85 72.77L274.83 72.75Q276.74 74.77 279.60 74.55L279.53 74.48L279.63 74.58Q282.68 74.32 283.83 72.95L283.75 72.87L283.87 73.00Q285.53 71.68 285.93 68.31L285.89 68.27L285.91 68.30Q286.28 64.89 284.39 63.64L284.33 63.57L284.31 63.55Q283.01 62.37 279.01 61.91ZM288.14 75.84L288.13 75.82L286.11 79.17L286.12 79.18Q282.20 86.52 276.55 92.63L276.42 92.49L276.42 92.50Q274.02 92.78 269.96 93.98L269.95 93.96L270.03 94.05Q278.02 84.62 282.76 77.42L282.67 77.33L282.64 77.30Q281.19 78.36 278.73 78.48L278.74 78.48L278.78 78.52Q274.11 78.60 271.83 75.63L271.97 75.77L271.96 75.76Q270.11 73.34 268.46 66.49L268.50 66.53L268.46 66.49Q268.51 65.85 268.28 64.45L268.22 64.39L268.16 64.34Q267.87 62.88 267.87 62.19L267.95 62.27L267.87 62.19Q268.06 59.70 269.66 58.79L269.54 58.66L269.52 58.64Q271.43 57.59 274.23 57.59L274.21 57.57L274.19 57.55Q279.09 57.65 279.09 57.65L278.90 57.46L278.96 57.52Q282.32 57.68 284.21 57.97L284.12 57.88L284.13 57.89Q287.36 58.33 288.73 59.07L288.69 59.03L288.65 58.98Q290.71 60.13 291.00 62.76L290.99 62.75L291.02 62.79Q291.13 63.23 290.84 67.23L290.72 67.11L290.80 67.19Q290.23 70.39 289.89 71.64L289.76 71.52L289.83 71.58Q289.34 73.78 288.20 75.89ZM290.97 79.40L290.92 79.36L291.03 79.47Q292.37 76.01 293.17 69.56L293.20 69.59L293.37 69.76Q293.65 66.33 293.60 65.02L293.66 65.08L293.68 65.10Q293.63 62.31 291.86 60.93L291.69 60.77L291.42 60.78L291.33 60.70Q290.94 59.56 289.56 58.59L289.58 58.60L289.46 58.48Q286.08 57.04 278.88 56.81L278.87 56.80L279.00 56.93Q277.42 56.78 273.77 56.78L273.78 56.79L273.76 56.78Q271.27 56.91 269.04 57.94L268.99 57.89L269.05 57.94Q267.37 59.17 267.48 61.91L267.36 61.79L267.32 61.75Q267.69 63.21 267.98 66.24L267.87 66.13L267.93 66.19Q268.88 70.16 269.28 71.42L269.30 71.44L269.25 71.39Q270.06 74.14 271.48 76.08L271.55 76.15L271.55 76.15Q271.93 76.64 272.50 77.21L272.46 77.17L272.52 77.23Q273.00 78.00 273.97 79.37L273.85 79.25L273.90 79.29Q276.14 81.37 279.05 81.65L278.97 81.57L279.04 81.64Q276.28 85.73 273.94 88.59L273.81 88.46L268.49 95.13L268.37 95.01Q271.83 93.96 274.28 93.44L274.32 93.47L274.32 93.48Q273.20 94.82 270.86 97.39L270.78 97.30L270.74 97.26Q275.38 95.91 280.07 95.86L279.98 95.77L280.11 95.90Q283.53 91.95 290.04 81.10L290.06 81.12L290.16 81.34L290.13 81.31Q290.53 80.23 291.05 79.49ZM281.91 65.49L281.89 65.47L282.01 65.59Q282.86 65.36 283.55 65.53L283.64 65.63L283.51 65.49Q284.63 65.81 285.20 65.98L285.13 65.91L285.08 65.87Q285.24 66.43 285.36 67.06L285.47 67.17L285.33 67.02Q285.48 67.70 285.31 68.27L285.24 68.19L285.25 68.20Q285.36 70.94 283.59 72.60L283.50 72.51L283.44 72.45Q282.07 74.05 279.62 73.99L279.56 73.94L279.60 73.98Q279.07 74.08 276.79 73.62L276.78 73.61L276.71 73.55Q276.45 72.31 276.45 71.23L276.34 71.12L276.42 71.20Q276.21 70.70 276.21 70.36L276.20 70.35L276.17 70.32Q276.24 67.07 279.67 65.88L279.63 65.84L279.76 65.97Q280.67 65.51 281.92 65.51Z"/><path d="M10 4 C173 8,166 25,332 118" stroke="#df8c70" fill="none"/><path d="M20 10 C151 65,151 133,335 84" stroke="#6d6ddd" fill="none"/><path d="M12 131 C159 128,183 69,324 44" stroke="#e7cc7d" fill="none"/><path d="M5 50 C177 22,191 47,326 92" stroke="#ebd07e" fill="none"/><path d="M5 123 C188 26,182 85,335 68" stroke="#eb9d84" fill="none"/><path d="M16 78 C178 23,163 70,325 52" stroke="#5b98d6" fill="none"/><path d="M15 54 C155 108,167 47,328 16" stroke="#46e546" fill="none"/><path d="M11 76 C182 84,188 131,339 123" stroke="#96e943" fill="none"/><path d="M19 21 C176 68,175 137,334 89" stroke="#9379e1" fill="none"/><path d="M11 96 C162 10,178 122,330 46" stroke="#e7ad73" fill="none"/><path d="M16 71 C172 34,172 23,328 121" stroke="#dc6f6f" fill="none"/><path d="M3 106 C158 119,173 42,330 28" stroke="#4093e7" fill="none"/><path d="M8 46 C154 78,175 129,332 74" stroke="#e3e349" fill="none"/><path d="M16 2 C183 53,151 126,334 78" stroke="#75e5ad" fill="none"/><path d="M2 81 C163 127,160 118,321 50" stroke="#e6e692" fill="none"/><path d="M13 75 C152 21,161 128,334 32" stroke="#6febeb" fill="none"/><path d="M9 93 C162 18,168 55,334 15" stroke="#6ce9e9" fill="none"/><path d="M10 66 C179 37,172 10,328 65" stroke="#9ae183" fill="none"/><path d="M16 45 C159 98,181 87,323 63" stroke="#6565e0" fill="none"/><path d="M17 85 C190 48,186 77,341 138" stroke="#f08dd8" fill="none"/><path d="M2 83 C175 3,188 100,330 21" stroke="#e74a4a" fill="none"/><path d="M2 129 C166 74,169 122,333 79" stroke="#72e8e8" fill="none"/><path d="M4 63 C154 95,164 39,330 108" stroke="#83d5f1" fill="none"/><path d="M12 71 C163 73,166 19,325 28" stroke="#50ebeb" fill="none"/><path d="M17 108 C182 129,150 132,330 78" stroke="#63a3e2" fill="none"/><path d="M7 84 C188 59,185 115,332 136" stroke="#e6aa6f" fill="none"/><path d="M5 25 C169 14,156 76,325 42" stroke="#dc4168" fill="none"/><path d="M15 49 C166 117,171 66,336 41" stroke="#ea7592" fill="none"/><path d="M1 70 C184 136,191 5,335 102" stroke="#4ce071" fill="none"/><path d="M2 103 C189 48,180 137,337 67" stroke="#e4e452" fill="none"/><path d="M18 121 C181 115,183 75,324 38" stroke="#eb60c8" fill="none"/><path d="M7 95 C159 105,170 23,326 101" stroke="#e7e736" fill="none"/><path fill="#79e0ad" d="M161.68 87.87L161.61 87.79L161.77 87.95Q163.34 89.18 165.46 88.95L165.43 88.93L165.60 89.10Q169.85 89.24 170.82 84.22L170.98 84.38L170.82 84.21Q171.85 79.59 171.85 74.50L171.88 74.54L171.75 70.53L171.81 70.58Q171.89 68.77 171.37 66.89L171.31 66.83L171.33 66.85Q169.41 70.24 166.44 77.37L166.49 77.43L166.48 77.42Q163.52 84.57 161.70 87.88ZM169.27 63.19L169.19 63.11L169.28 63.19Q167.53 61.96 165.53 61.96L165.44 61.87L165.51 61.94Q163.37 61.80 161.71 63.17L161.68 63.14L161.64 63.10Q159.88 64.36 159.60 66.59L159.61 66.61L159.63 66.62Q159.10 68.66 159.04 70.89L159.09 70.94L159.13 70.98Q159.14 70.99 159.14 75.28L159.05 75.18L159.16 75.29Q159.14 78.81 159.82 84.24L159.75 84.17L159.87 84.28Q162.73 77.15 169.30 63.22ZM171.56 91.35L171.48 91.27L171.53 91.31Q168.98 92.77 165.50 92.77L165.43 92.69L163.05 92.78L162.92 92.65Q158.12 92.70 156.41 90.13L156.34 90.06L156.42 90.14Q155.16 86.83 155.05 82.43L155.15 82.54L155.05 82.43Q154.98 79.79 154.87 74.60L155.05 74.77L155.05 74.78Q154.81 72.77 154.58 68.20L154.65 68.26L154.71 68.33Q154.59 64.90 155.05 61.93L155.02 61.90L155.11 61.99Q155.69 57.43 162.20 57.09L162.25 57.14L162.29 57.18Q163.43 57.12 165.43 57.18L165.43 57.17L165.43 57.18Q173.88 57.35 175.48 62.54L175.53 62.59L175.42 62.48Q176.42 65.43 176.36 68.22L176.28 68.14L176.43 68.29Q176.28 75.74 176.17 77.57L176.22 77.62L176.15 77.55Q175.84 83.24 175.38 85.18L175.30 85.10L175.44 85.23Q174.38 89.83 171.53 91.31ZM178.99 91.01L179.03 91.05L179.03 91.05Q179.37 86.88 179.31 84.19L179.33 84.22L179.07 77.16L179.17 77.25Q179.02 72.71 178.23 64.43L178.29 64.50L178.21 64.42Q177.42 61.69 175.48 60.54L175.55 60.61L175.50 60.57Q173.12 56.70 165.35 56.47L165.47 56.59L165.35 56.47Q163.99 56.37 161.99 56.42L161.99 56.42L162.17 56.60Q155.39 56.73 154.65 61.41L154.56 61.32L154.63 61.39Q153.97 64.79 154.14 67.94L154.18 67.97L154.21 68.00Q154.57 74.42 154.52 79.44L154.68 79.61L154.58 79.51Q154.53 85.05 154.70 86.59L154.68 86.57L154.75 86.65Q155.36 91.30 157.64 92.50L157.64 92.51L157.50 92.37Q159.82 95.77 165.81 96.17L165.90 96.25L165.75 96.10Q171.26 96.59 172.23 96.53L172.17 96.46L172.05 96.34Q176.33 96.12 178.05 93.72L178.22 93.90L178.17 93.84Q178.98 92.88 179.09 91.11ZM166.02 88.38L166.10 88.45L166.18 88.53Q167.21 86.37 168.81 82.32L168.76 82.26L171.28 75.88L171.26 75.85Q171.29 78.39 170.71 83.42L170.69 83.40L170.57 83.28Q169.78 87.79 166.18 88.54ZM163.17 70.05L163.04 69.92L163.16 70.04Q163.81 67.32 164.84 66.47L164.76 66.39L164.75 66.38Q165.43 65.75 167.38 65.46L167.39 65.47L167.39 65.48Q164.88 71.02 162.08 77.98L162.19 78.09L162.09 77.99Q162.13 73.98 163.16 70.04Z"/><path d="M11 31 C171 50,180 95,332 135" stroke="#a7e692" fill="none"/><path d="M15 57 C168 43,176 27,325 63" stroke="#e278ad" fill="none"/><path d="M5 114 C155 60,164 104,325 64" stroke="#8ce3cd" fill="none"/><path d="M5 39 C174 5,150 39,333 95" stroke="#66ea66" fill="none"/><path fill="#aadf76" d="M48.30 87.81L48.35 87.87L48.31 87.83Q50.07 89.24 52.18 89.01L52.09 88.92L52.25 89.08Q56.53 89.25 57.50 84.22L57.58 84.30L57.56 84.28Q58.40 79.47 58.40 74.39L58.49 74.48L58.44 70.54L58.47 70.58Q58.55 68.78 58.04 66.89L57.88 66.73L58.01 66.86Q56.03 70.19 53.06 77.32L53.12 77.39L53.20 77.47Q50.27 84.64 48.44 87.96ZM55.92 63.17L55.98 63.24L55.90 63.16Q54.22 61.98 52.22 61.98L52.13 61.89L52.15 61.91Q49.97 61.73 48.31 63.10L48.33 63.12L48.25 63.04Q46.66 64.48 46.38 66.70L46.43 66.76L46.44 66.77Q45.87 68.77 45.81 71.00L45.81 70.99L45.77 70.95Q45.86 71.05 45.86 75.33L45.86 75.32L45.84 75.30Q45.70 78.70 46.38 84.13L46.39 84.13L46.48 84.22Q49.26 77.02 55.83 63.08ZM58.28 91.40L58.18 91.29L58.19 91.31Q55.53 92.65 52.05 92.65L52.06 92.66L49.71 92.76L49.69 92.75Q44.74 92.65 43.03 90.08L43.19 90.24L43.12 90.17Q41.98 86.97 41.86 82.58L41.84 82.55L41.71 82.43Q41.74 79.88 41.62 74.69L41.71 74.77L41.58 74.64Q41.59 72.88 41.36 68.31L41.35 68.30L41.37 68.32Q41.15 64.79 41.60 61.82L41.58 61.79L41.61 61.82Q42.51 57.58 49.02 57.24L48.83 57.06L48.91 57.13Q50.09 57.12 52.09 57.18L51.97 57.05L51.97 57.06Q60.63 57.43 62.23 62.62L62.16 62.56L62.11 62.51Q63.10 65.44 63.05 68.24L63.03 68.23L63.09 68.29Q62.83 75.62 62.72 77.45L62.79 77.52L62.73 77.46Q62.50 83.23 62.04 85.17L62.13 85.26L62.15 85.28Q61.08 89.86 58.22 91.34ZM65.60 90.95L65.66 91.01L65.66 91.01Q66.08 86.92 66.02 84.24L65.99 84.20L65.75 77.17L65.86 77.28Q65.71 72.74 64.91 64.46L64.82 64.36L64.83 64.37Q64.11 61.72 62.17 60.57L62.13 60.53L62.11 60.51Q59.75 56.67 51.99 56.44L52.05 56.51L52.09 56.55Q50.82 56.53 48.82 56.59L48.66 56.42L48.82 56.59Q42.05 56.73 41.31 61.41L41.31 61.41L41.13 61.23Q40.73 64.88 40.90 68.02L40.81 67.94L40.87 68.00Q41.35 74.53 41.29 79.55L41.31 79.57L41.31 79.57Q41.18 85.04 41.35 86.58L41.45 86.68L41.36 86.59Q41.98 91.26 44.27 92.46L44.22 92.41L44.30 92.50Q46.45 95.73 52.44 96.13L52.43 96.12L52.49 96.17Q57.78 96.43 58.75 96.38L58.84 96.47L58.90 96.53Q63.05 96.17 64.76 93.77L64.84 93.85L64.81 93.82Q65.49 92.72 65.60 90.95ZM52.79 88.48L52.79 88.48L52.85 88.54Q53.73 86.22 55.33 82.16L55.46 82.30L57.91 75.84L58.04 75.97Q57.89 78.34 57.32 83.36L57.40 83.44L57.24 83.28Q56.34 87.69 52.74 88.43ZM49.83 70.04L49.82 70.04L49.73 69.94Q50.49 67.33 51.51 66.47L51.46 66.42L51.58 66.54Q52.22 65.87 54.16 65.58L54.22 65.65L54.11 65.53Q51.64 71.11 48.84 78.08L48.67 77.91L48.71 77.94Q48.83 74.01 49.86 70.07Z"/><path d="M8 65 C165 21,155 98,331 19" stroke="#62e4c3" fill="none"/><path fill="#3db3db" d="M109.90 67.62L109.87 67.59L109.85 67.57Q105.00 67.52 102.25 65.92L102.38 66.05L102.25 65.91Q106.13 63.96 113.43 57.62L113.50 57.69L113.50 57.69Q114.48 57.30 116.42 56.38L116.51 56.48L116.44 56.41Q114.45 65.32 114.28 74.86L114.34 74.92L114.34 74.92Q114.08 84.36 115.68 93.50L115.62 93.44L115.61 93.44Q113.15 92.40 109.96 92.23L110.03 92.31L109.99 92.26Q109.90 86.12 109.90 80.01L109.80 79.92L109.88 79.99Q109.91 73.86 109.97 67.69ZM109.22 70.88L109.33 92.87L109.31 92.85Q111.19 92.89 112.62 93.18L112.66 93.23L112.57 93.13Q112.61 94.09 112.90 96.15L112.94 96.19L113.05 96.29Q117.25 97.02 120.91 100.39L120.85 100.33L120.97 100.45Q117.25 89.77 117.20 78.57L117.21 78.59L117.20 78.57Q116.96 67.26 119.70 56.41L119.76 56.47L119.72 56.43Q118.87 57.01 116.48 58.67L116.56 58.75L116.56 58.75Q116.77 57.53 117.22 55.25L117.26 55.29L117.25 55.27Q115.35 56.51 113.18 57.08L113.11 57.02L113.11 57.01Q107.52 62.45 101.07 65.87L101.02 65.83L100.99 65.80Q103.15 67.50 106.69 68.01L106.65 67.97L106.62 67.94Q105.79 68.88 103.84 70.48L103.74 70.37L103.76 70.39Q105.95 70.92 109.26 70.92L109.22 70.88Z"/><path d="M8 52 C187 56,184 6,337 110" stroke="#8e40dd" fill="none"/><path d="M19 28 C173 23,152 137,325 99" stroke="#b557d5" fill="none"/><path d="M8 110 C188 47,175 77,332 23" stroke="#5d7fe3" fill="none"/></svg>