<svg xmlns="http://www.w3.org/2000/svg" width="342" height="140" viewBox="0,0,342,140"><path d="M6 47 C153 9,161 3,340 136" stroke="#4949d4" fill="none"/><path d="M11 76 C187 95,184 93,337 53" stroke="#e778af" fill="none"/><path d="M14 67 C152 20,182 135,321 53" stroke="#9b53e3" fill="none"/><path d="M19 4 C162 58,172 21,332 117" stroke="#71c3de" fill="none"/><path d="M18 132 C182 49,171 76,327 92" stroke="#74ea4c" fill="none"/><path d="M15 68 C176 62,158 92,321 39" stroke="#e961c7" fill="none"/><path d="M16 3 C152 99,185 89,323 2" stroke="#a288f1" fill="none"/><path d="M12 28 C182 93,167 58,325 111" stroke="#d74b91" fill="none"/><path fill="#4fdd96" d="M57.41 92.76L57.45 92.80L57.41 92.76Q59.56 94.47 62.25 94.18L62.31 94.25L62.39 94.32Q67.93 94.62 69.17 88.22L69.22 88.27L69.10 88.16Q70.34 82.20 70.34 75.73L70.38 75.77L70.24 70.68L70.25 70.68Q70.23 68.27 69.58 65.87L69.57 65.86L69.55 65.84Q67.22 70.28 63.44 79.37L63.59 79.52L63.60 79.53Q59.80 88.61 57.47 92.82ZM67.08 61.33L67.08 61.34L66.98 61.24Q64.89 59.80 62.35 59.80L62.26 59.71L62.22 59.67Q59.45 59.45 57.34 61.20L57.28 61.13L57.29 61.14Q55.25 62.96 54.89 65.80L54.91 65.82L54.90 65.81Q54.13 68.32 54.06 71.16L54.15 71.24L54.10 71.19Q54.19 71.28 54.19 76.74L54.17 76.72L54.18 76.73Q54.16 81.22 55.03 88.13L55.00 88.10L54.92 88.02Q58.64 79.00 67.00 61.25ZM70.02 97.22L69.94 97.15L69.91 97.11Q66.68 98.97 62.24 98.97L62.22 98.95L59.07 98.93L59.03 98.89Q52.88 98.93 50.70 95.66L50.79 95.74L50.74 95.70Q49.17 91.51 49.03 85.91L49.06 85.94L49.15 86.03Q49.03 82.63 48.88 76.01L48.74 75.87L48.83 75.96Q48.69 73.57 48.40 67.75L48.57 67.91L48.47 67.82Q48.25 63.38 48.83 59.60L48.90 59.66L48.88 59.65Q49.89 54.10 58.18 53.67L58.06 53.55L58.06 53.55Q59.64 53.60 62.19 53.68L62.17 53.66L62.17 53.65Q73.02 53.96 75.06 60.58L75.04 60.57L75.11 60.63Q76.24 64.24 76.17 67.80L76.19 67.82L76.18 67.81Q75.97 77.28 75.82 79.60L75.73 79.51L75.88 79.67Q75.36 86.78 74.78 89.25L74.95 89.42L74.84 89.31Q73.60 95.27 69.96 97.16ZM79.52 96.83L79.52 96.83L79.52 96.83Q79.91 91.48 79.84 88.06L79.77 87.99L79.63 79.19L79.65 79.21Q79.43 73.39 78.41 62.85L78.45 62.88L78.52 62.95Q77.42 59.38 74.95 57.93L74.96 57.94L74.92 57.90Q72.10 53.19 62.21 52.90L62.06 52.75L62.09 52.78Q60.39 52.68 57.84 52.75L57.97 52.87L57.96 52.87Q49.36 53.07 48.41 59.03L48.32 58.94L48.35 58.97Q47.55 63.34 47.77 67.34L47.87 67.44L47.88 67.45Q48.50 75.78 48.43 82.18L48.40 82.15L48.45 82.20Q48.37 89.25 48.59 91.21L48.52 91.14L48.59 91.22Q49.21 97.00 52.12 98.52L52.12 98.53L52.21 98.61Q55.01 102.80 62.65 103.31L62.57 103.23L62.68 103.34Q69.49 103.75 70.73 103.68L70.71 103.66L70.66 103.61Q76.13 103.34 78.31 100.28L78.35 100.31L78.39 100.36Q79.27 98.98 79.42 96.73ZM62.92 93.40L63.06 93.54L62.98 93.46Q64.28 90.68 66.32 85.52L66.44 85.64L69.73 77.58L69.62 77.48Q69.59 80.64 68.86 87.05L68.90 87.08L68.88 87.07Q67.69 92.64 63.11 93.58ZM59.27 70.03L59.24 70.01L59.19 69.96Q60.04 66.52 61.35 65.43L61.37 65.45L61.37 65.44Q62.33 64.73 64.81 64.37L64.70 64.27L64.69 64.25Q61.48 71.30 57.91 80.17L57.95 80.21L57.94 80.19Q57.95 75.04 59.26 70.02Z"/><path d="M2 47 C152 83,167 11,329 57" stroke="#e470e4" fill="none"/><path d="M10 112 C177 46,164 33,323 46" stroke="#83e6b5" fill="none"/><path d="M1 108 C154 129,160 98,321 103" stroke="#8eebeb" fill="none"/><path d="M20 51 C192 43,164 111,333 10" stroke="#ea8e8e" fill="none"/><path d="M13 133 C182 94,152 59,321 119" stroke="#5151ea" fill="none"/><path d="M8 111 C174 138,191 24,333 81" stroke="#e83fe8" fill="none"/><path d="M9 71 C174 96,157 18,330 136" stroke="#78aadd" fill="none"/><path d="M5 38 C158 23,164 103,327 139" stroke="#e5e546" fill="none"/><path d="M7 77 C182 103,187 32,326 134" stroke="#ee71cf" fill="none"/><path fill="#e0a56a" d="M145.66 94.75L145.59 94.69L145.47 94.56Q146.23 96.63 147.24 100.48L147.12 100.36L147.14 100.38Q139.13 97.90 130.33 98.41L130.28 98.36L130.24 98.32Q121.52 98.84 113.88 102.62L114.02 102.76L113.92 102.66Q114.43 101.42 114.50 101.57L114.35 101.41L114.44 101.50Q121.46 93.83 128.96 85.40L129.10 85.54L129.14 85.58Q137.54 76.01 139.79 67.07L139.84 67.11L139.67 66.94Q140.54 63.59 138.10 61.34L138.18 61.42L138.21 61.45Q135.66 59.07 132.24 59.36L132.27 59.40L132.29 59.42Q131.58 59.28 130.92 59.28L130.96 59.33L131.07 59.43Q128.06 59.33 125.66 61.08L125.72 61.14L125.71 61.13Q123.31 63.82 123.74 68.91L123.70 68.86L123.63 68.79Q120.31 68.24 117.98 67.36L118.02 67.41L117.87 67.25Q117.48 64.53 117.33 61.77L117.34 61.78L117.47 61.90Q117.33 58.79 118.50 56.61L118.46 56.57L118.40 56.51Q121.79 53.86 128.19 53.86L128.18 53.85L131.55 53.88L131.53 53.85Q135.89 53.92 137.70 54.14L137.76 54.20L137.85 54.28Q146.09 55.03 146.59 59.68L146.50 59.58L146.58 59.67Q146.80 60.83 146.65 62.36L146.67 62.37L146.51 62.22Q146.47 63.48 146.18 64.79L146.18 64.80L146.30 64.91Q143.00 80.23 128.52 93.33L128.60 93.41L128.56 93.36Q131.39 93.21 134.01 93.21L133.99 93.19L133.83 93.04Q140.12 93.15 145.58 94.67ZM144.45 54.84L144.38 54.77L144.41 54.80Q141.43 53.65 138.16 53.50L138.13 53.47L131.69 53.21L131.50 53.02Q123.16 52.69 118.94 54.80L118.80 54.65L118.92 54.77Q116.85 57.36 116.85 61.29L116.89 61.32L116.83 61.27Q116.88 62.63 117.46 68.01L117.40 67.95L117.41 67.95Q118.58 68.55 120.84 69.13L120.85 69.15L120.79 71.04L120.69 70.95Q120.67 71.87 120.82 72.89L120.77 72.84L120.74 72.82Q123.26 73.15 127.99 73.59L127.88 73.48L127.93 73.54Q127.83 72.77 127.83 72.12L127.85 72.14L127.83 72.12Q127.88 68.68 130.21 66.10L130.28 66.17L130.12 66.01Q132.62 63.60 136.04 63.82L135.91 63.69L135.91 63.70Q137.42 63.81 138.87 64.10L138.87 64.11L138.79 64.02Q139.00 64.74 139.15 65.54L139.31 65.71L139.16 65.56Q139.24 66.36 139.09 67.02L139.16 67.09L139.11 67.04Q136.67 76.09 128.23 85.33L128.37 85.47L128.27 85.36Q124.17 89.63 113.77 101.20L113.95 101.38L113.83 101.26Q113.44 102.83 112.78 103.92L112.85 103.98L112.77 103.90Q115.92 102.33 118.83 101.31L118.72 101.20L118.72 101.20Q117.51 102.47 115.70 105.30L115.55 105.15L115.62 105.23Q115.33 105.81 115.11 106.46L115.20 106.56L115.11 106.46Q124.45 102.57 134.93 102.93L134.90 102.91L134.85 102.86Q145.77 103.23 154.50 107.74L154.58 107.82L152.59 103.65L152.58 103.63Q151.46 101.20 150.95 99.68L150.87 99.60L150.95 99.68Q149.53 98.84 147.20 98.04L147.08 97.92L147.20 98.04Q146.79 96.53 146.06 93.92L146.10 93.95L146.19 94.05Q141.98 92.97 137.62 92.60L137.51 92.50L137.52 92.50Q146.58 83.88 149.48 68.10L149.35 67.97L149.84 62.56L149.74 62.46Q149.64 59.09 147.31 57.78L147.23 57.70L147.26 57.81L147.29 57.83Q147.18 57.65 147.03 57.65L147.11 57.72L147.10 57.72Q146.53 55.98 144.42 54.81Z"/><path d="M21 52 C160 17,184 82,335 26" stroke="#7ced98" fill="none"/><path d="M4 111 C191 14,176 66,324 71" stroke="#6ca8e4" fill="none"/><path d="M18 126 C162 22,179 76,323 86" stroke="#9f87e8" fill="none"/><path fill="#b958d9" d="M261.37 99.37L261.42 99.42L261.39 99.40Q253.68 99.90 251.78 95.46L251.74 95.42L251.71 95.39Q253.06 93.47 256.05 90.05L256.19 90.19L256.11 90.11Q257.17 94.09 262.92 94.31L262.81 94.20L262.89 94.28Q269.22 94.28 272.35 91.73L272.34 91.73L272.48 91.86Q275.20 88.84 275.05 83.67L275.08 83.70L274.89 83.51Q274.79 74.02 265.62 74.46L265.43 74.27L265.55 74.39Q260.19 74.70 256.85 77.10L256.78 77.04L256.11 76.66L255.78 76.48L255.78 76.48Q256.47 70.47 256.25 65.24L256.12 65.10L256.30 65.28Q256.05 60.24 255.40 53.91L255.25 53.76L255.35 53.86Q262.28 55.62 269.55 55.41L269.61 55.46L269.60 55.46Q276.84 55.27 283.68 52.87L283.72 52.92L282.58 55.77L282.57 55.77Q282.02 57.26 281.66 58.86L281.70 58.90L281.76 58.96Q275.79 60.92 268.37 60.92L268.35 60.90L268.36 60.90Q265.59 60.90 262.76 60.61L262.61 60.46L262.66 60.52Q262.55 61.86 261.89 70.37L261.96 70.43L261.83 70.30Q263.50 69.51 267.43 69.22L267.45 69.23L267.36 69.14Q274.47 69.56 277.23 72.76L277.26 72.79L277.40 72.92Q280.01 75.83 280.52 83.18L280.43 83.09L280.42 83.08Q280.88 91.03 278.56 94.89L278.57 94.90L278.69 95.02Q274.73 98.55 268.40 98.99L268.48 99.07L268.40 98.98Q266.41 99.03 261.32 99.32ZM272.91 103.71L272.90 103.71L273.03 103.83Q279.41 103.81 283.05 101.70L283.18 101.84L283.07 101.73Q285.02 98.88 285.02 94.88L285.05 94.90L284.92 94.78Q285.05 89.02 283.23 81.16L283.21 81.14L283.21 81.14Q282.49 77.80 280.16 75.11L280.10 75.04L280.24 75.26L279.83 74.70L279.07 74.23L279.16 74.32Q278.65 73.01 277.41 71.70L277.35 71.64L277.36 71.72L277.31 71.67Q274.49 68.57 267.44 68.57L267.31 68.44L266.88 68.52L266.81 68.44Q266.96 67.36 267.33 65.25L267.41 65.34L267.28 65.20Q276.96 65.57 284.67 62.45L284.51 62.29L284.67 62.44Q285.38 59.67 287.20 54.28L287.27 54.36L283.26 56.17L283.18 56.08Q283.84 53.84 284.79 51.66L284.96 51.83L284.96 51.83Q277.53 54.51 269.68 54.66L269.77 54.75L269.76 54.74Q261.83 54.88 254.27 52.77L254.19 52.70L254.19 52.70Q255.56 61.20 255.56 69.63L255.52 69.59L255.53 69.60Q255.60 73.31 255.38 76.95L255.39 76.96L255.37 76.94Q255.77 77.19 256.86 77.77L256.87 77.78L256.98 77.89Q257.64 77.46 258.88 76.81L258.79 76.72L258.81 76.74Q258.77 78.23 258.34 81.14L258.33 81.13L258.36 81.16Q259.15 81.52 259.95 81.95L259.84 81.85L260.00 82.01Q265.16 78.50 268.72 78.50L268.88 78.66L268.85 78.63Q271.43 78.66 273.68 79.90L273.67 79.89L273.51 79.73Q274.27 81.80 274.35 83.62L274.29 83.56L274.30 83.57Q274.42 88.50 272.46 90.61L272.44 90.59L272.43 90.58Q269.88 92.97 265.59 93.41L265.61 93.43L265.68 93.50Q263.80 93.59 262.49 93.44L262.47 93.42L262.54 93.49Q260.84 93.18 259.39 92.52L259.32 92.45L259.33 92.10L259.17 92.38L259.12 92.33Q257.70 91.48 256.68 88.94L256.50 88.76L256.66 88.92Q254.10 91.60 250.90 95.67L250.85 95.62L250.75 95.53Q251.33 96.75 252.93 98.57L253.05 98.69L253.01 98.66Q255.14 102.24 260.52 103.19L260.46 103.12L260.36 103.02Q262.60 103.45 272.86 103.66Z"/><path d="M3 53 C167 39,177 76,325 26" stroke="#378ee6" fill="none"/><path fill="#d75a79" d="M190.87 85.13L191.04 85.30L190.98 85.24Q196.91 84.55 203.02 84.76L203.03 84.77L202.89 84.64Q202.94 79.89 202.94 75.31L202.82 75.18L202.78 75.14Q202.93 70.56 203.29 65.69L203.33 65.73L203.27 65.67Q200.97 68.97 191.01 85.27ZM209.76 99.15L209.80 99.18L209.92 99.31Q206.69 98.69 203.27 98.55L203.26 98.54L203.24 98.51Q202.93 94.06 202.71 89.33L202.57 89.20L202.67 89.29Q192.42 88.87 183.40 91.56L183.40 91.55L183.41 91.56Q183.72 90.71 184.08 88.82L183.98 88.72L184.12 88.85Q187.45 82.73 194.29 70.73L194.36 70.79L194.24 70.68Q199.88 61.48 206.42 54.06L206.33 53.97L206.43 54.06Q208.12 53.72 211.32 53.21L211.18 53.07L211.19 53.08Q207.63 65.45 207.63 78.91L207.64 78.91L207.66 78.94Q207.67 81.78 207.82 84.62L207.78 84.58L210.30 84.85L210.21 84.76Q211.37 84.82 212.53 85.04L212.55 85.06L212.54 85.05Q212.83 87.02 213.34 90.73L213.37 90.75L213.35 90.73Q211.03 90.23 208.19 89.87L208.03 89.70L208.07 89.75Q208.53 93.62 209.84 99.23ZM213.06 84.34L213.05 84.32L213.09 84.36Q212.65 84.14 212.28 84.14L212.41 84.27L211.59 84.17L211.52 84.10Q211.45 81.42 211.45 78.73L211.40 78.67L211.40 78.67Q211.29 66.34 215.21 54.85L215.36 54.99L215.39 55.02Q213.89 55.48 211.12 56.21L211.07 56.16L211.09 56.17Q211.47 54.66 212.34 51.97L212.37 52.00L212.35 51.99Q209.85 52.69 205.93 53.12L205.92 53.12L206.09 53.29Q198.48 61.46 188.52 79.36L188.53 79.37L192.58 72.44L192.59 72.44Q191.73 74.35 191.22 75.44L191.33 75.55L182.81 92.78L182.64 92.61Q183.90 92.35 186.09 91.62L186.07 91.60L185.82 92.08L185.94 92.20Q185.64 93.43 185.06 95.83L185.13 95.90L185.11 95.89Q192.87 93.24 202.10 93.60L202.17 93.67L202.23 93.73Q202.23 95.47 202.59 99.25L202.67 99.33L202.53 99.19Q204.68 99.30 206.72 99.52L206.69 99.50L206.72 99.52Q206.95 100.77 207.46 103.39L207.52 103.45L207.42 103.35Q211.08 103.81 216.82 105.55L216.91 105.64L216.90 105.63Q214.94 101.49 213.19 95.23L213.27 95.31L216.01 96.16L215.95 96.10Q217.23 96.50 218.54 97.16L218.63 97.25L218.62 97.24Q217.04 92.38 216.75 89.18L216.71 89.15L216.77 89.21Q215.70 88.94 213.52 88.50L213.44 88.42L213.56 88.55Q213.06 86.01 213.06 84.33ZM197.85 84.11L197.69 83.95L197.69 83.95Q199.26 81.59 202.25 76.72L202.14 76.62L202.16 76.63Q202.28 78.57 202.20 80.39L202.22 80.40L202.20 80.38Q202.21 82.29 202.29 84.11L202.14 83.96L202.12 83.94Q201.22 84.06 200.13 84.06L200.07 84.00L199.95 83.88Q198.89 83.98 197.72 83.98Z"/><path d="M17 72 C188 71,179 114,321 95" stroke="#9bd85e" fill="none"/><path d="M9 38 C159 127,150 128,331 122" stroke="#6ca8e4" fill="none"/><path d="M11 5 C190 129,190 105,323 75" stroke="#d85ed8" fill="none"/><path d="M6 136 C189 42,181 122,333 51" stroke="#bc92e6" fill="none"/><path d="M15 119 C191 132,177 41,331 11" stroke="#e99a80" fill="none"/><path d="M14 102 C172 137,161 10,322 117" stroke="#724fdd" fill="none"/><path d="M13 107 C166 35,175 45,327 43" stroke="#e4e47b" fill="none"/><path d="M15 38 C155 134,182 81,324 101" stroke="#43d468" fill="none"/><path d="M9 111 C177 86,191 10,334 102" stroke="#86ec63" fill="none"/><path d="M20 97 C188 72,190 95,335 120" stroke="#5fe7a3" fill="none"/><path d="M4 124 C162 134,155 4,336 55" stroke="#e04cbb" fill="none"/><path d="M5 14 C155 123,178 3,335 127" stroke="#e7e763" fill="none"/><path d="M10 57 C183 37,174 96,336 18" stroke="#60dc7f" fill="none"/><path d="M3 78 C167 41,171 87,326 68" stroke="#d08ee6" fill="none"/><path d="M4 131 C170 110,188 11,331 93" stroke="#e25454" fill="none"/><path d="M14 31 C192 17,150 119,326 46" stroke="#eaea4c" fill="none"/><path d="M8 98 C169 16,171 57,322 58" stroke="#53d4b4" fill="none"/><path d="M9 67 C151 2,174 135,332 42" stroke="#53d9d9" fill="none"/><path d="M13 3 C172 47,171 25,321 128" stroke="#a894e5" fill="none"/></svg>