<svg xmlns="http://www.w3.org/2000/svg" width="342" height="140" viewBox="0,0,342,140"><path d="M17 94 C164 70,181 39,333 74" stroke="#e4bf52" fill="none"/><path d="M5 57 C175 21,173 3,328 137" stroke="#51c0e5" fill="none"/><path d="M4 134 C179 20,185 22,336 106" stroke="#724be6" fill="none"/><path fill="#dd6363" d="M124.08 99.25L124.09 99.26L124.09 99.26Q121.51 99.51 118.52 98.71L118.47 98.66L118.49 98.68Q116.13 96.90 115.83 93.77L115.76 93.69L115.95 93.89Q115.70 93.35 116.07 88.33L116.06 88.32L116.10 88.36Q118.19 88.13 122.05 87.40L121.93 87.28L121.68 88.85L121.56 88.73Q121.03 92.05 123.72 93.15L123.73 93.16L123.80 93.23Q125.31 93.86 129.31 93.86L129.32 93.87L129.28 93.83Q132.34 93.55 132.71 93.40L132.66 93.35L132.76 93.46Q134.42 93.08 135.80 92.13L135.78 92.11L135.85 92.19Q138.61 90.43 138.24 86.43L138.24 86.43L138.13 86.31Q137.91 81.80 134.60 78.82L134.51 78.73L134.45 78.67Q131.22 75.77 126.50 75.77L126.40 75.67L126.39 75.23L126.40 75.23Q127.21 75.25 128.88 75.10L128.92 75.14L128.84 75.06Q132.52 74.88 135.14 72.52L135.19 72.57L135.04 72.43Q137.81 70.21 138.10 66.65L137.95 66.49L138.12 66.67Q138.14 65.89 138.14 65.23L138.19 65.28L138.22 65.31Q138.09 62.27 135.47 60.52L135.50 60.55L135.65 60.71Q133.26 59.11 130.20 59.33L130.28 59.40L130.23 59.36Q127.73 59.04 125.40 59.84L125.41 59.84L125.31 59.75Q122.52 60.73 121.93 62.92L121.98 62.96L121.95 62.93Q121.61 64.41 121.75 65.86L121.81 65.92L121.81 65.92Q119.78 65.42 115.85 64.04L115.87 64.05L115.87 64.05Q115.54 60.96 115.61 59.36L115.63 59.37L115.51 59.26Q115.72 56.34 117.76 55.03L117.79 55.07L117.89 55.16Q120.56 53.98 123.62 53.98L123.66 54.02L123.64 54.00Q129.53 53.78 135.57 54.29L135.55 54.27L135.65 54.38Q145.24 55.09 144.65 62.29L144.78 62.41L144.66 62.30Q144.63 65.24 143.68 68.23L143.73 68.28L143.63 68.17Q141.95 74.13 137.44 75.87L137.45 75.89L137.44 75.88Q142.50 76.94 143.66 83.34L143.52 83.20L143.61 83.29Q143.99 85.41 144.14 89.27L144.13 89.26L144.09 89.22Q144.48 97.83 135.68 98.71L135.61 98.63L135.61 98.64Q134.27 98.82 124.16 99.33ZM134.09 103.59L134.12 103.62L134.13 103.63Q135.25 103.66 140.71 103.80L140.82 103.92L140.76 103.86Q144.00 103.90 147.13 102.66L147.26 102.79L147.30 102.83Q149.46 100.92 149.10 97.57L149.08 97.56L148.99 97.47Q148.90 95.05 148.32 91.71L148.31 91.70L148.39 91.77Q146.98 83.16 143.27 80.03L143.23 79.99L142.78 79.18L142.86 79.19L142.86 79.19Q146.12 76.34 147.58 67.97L147.50 67.89L147.48 67.88Q147.61 67.07 147.83 65.25L147.94 65.36L147.76 65.18Q148.09 63.91 147.95 62.60L147.85 62.50L147.79 62.44Q147.60 59.34 145.13 58.03L145.15 58.06L145.00 58.05L144.91 57.96Q144.44 56.18 142.25 55.16L142.08 54.99L142.24 55.14Q139.20 53.71 129.38 53.12L129.40 53.15L129.49 53.23Q126.32 53.12 123.26 53.12L123.27 53.13L123.12 52.97Q120.05 52.96 117.14 54.19L117.14 54.20L117.24 54.30Q114.84 55.67 114.84 59.02L114.81 59.00L114.83 59.01Q114.92 58.30 115.43 64.70L115.39 64.67L115.48 64.76Q115.97 64.81 119.10 65.97L119.21 66.09L119.03 65.90Q119.18 67.08 119.11 68.02L119.04 67.95L119.10 68.01Q119.06 68.92 119.14 69.94L119.18 69.99L119.20 70.00Q122.61 70.72 126.46 70.94L126.36 70.84L126.34 70.82Q126.26 67.02 128.37 65.42L128.43 65.49L128.43 65.48Q129.93 64.15 133.79 63.71L133.89 63.81L133.75 63.68Q135.96 63.70 137.05 64.06L137.08 64.10L137.01 64.03Q137.12 64.28 137.19 64.50L137.27 64.58L137.28 64.95L137.42 65.96L137.40 65.94Q137.55 66.46 137.47 66.75L137.33 66.60L137.31 66.58Q137.20 69.89 134.29 72.15L134.40 72.26L134.27 72.13Q132.57 73.92 128.72 74.28L128.80 74.37L128.78 74.35Q127.43 74.67 125.76 74.67L125.74 74.66L125.65 74.56Q125.83 75.32 126.12 76.63L125.94 76.45L126.03 76.54Q129.36 76.52 132.12 77.90L132.18 77.96L132.00 78.01L128.95 78.29L128.94 78.29Q129.10 79.03 129.31 80.19L129.17 80.04L129.19 80.07Q133.27 79.92 136.54 82.47L136.58 82.51L136.65 82.58Q137.04 83.26 137.62 86.39L137.60 86.36L137.56 86.32Q138.00 92.01 132.40 92.81L132.28 92.68L132.26 92.67Q128.33 93.24 127.24 93.17L127.26 93.20L127.29 93.22Q126.36 92.94 125.34 92.80L125.32 92.78L125.48 92.06L125.51 91.00L125.63 90.33L125.65 89.69L125.72 89.76Q123.93 89.93 122.40 90.30L122.31 90.20L122.41 90.30Q122.27 89.81 122.27 89.44L122.24 89.41L122.28 89.45Q122.35 89.09 122.35 88.65L122.36 88.66L122.48 88.78Q122.54 87.97 122.83 86.58L122.85 86.60L122.71 86.46Q119.23 86.98 115.67 87.64L115.70 87.67L115.66 87.63Q115.68 88.60 115.47 90.75L115.41 90.69L115.35 90.63Q115.26 92.90 115.26 94.06L115.12 93.93L115.29 94.10Q115.34 97.93 117.95 99.38L117.98 99.41L117.91 99.33Q120.82 103.77 129.84 103.41L129.89 103.46L129.87 103.44Q131.18 103.29 134.09 103.58Z"/><path d="M19 47 C154 107,177 125,330 121" stroke="#e896aa" fill="none"/><path d="M12 68 C154 103,170 86,340 7" stroke="#96ea42" fill="none"/><path d="M5 69 C187 18,158 39,338 110" stroke="#ba56db" fill="none"/><path d="M12 49 C166 50,167 79,324 19" stroke="#52e477" fill="none"/><path d="M11 108 C165 20,164 44,341 92" stroke="#ef7070" fill="none"/><path d="M12 94 C172 83,188 66,337 97" stroke="#e0c060" fill="none"/><path d="M8 95 C159 18,182 64,334 130" stroke="#87e7b7" fill="none"/><path d="M5 89 C163 36,176 9,328 91" stroke="#de7c7c" fill="none"/><path d="M16 123 C157 31,162 138,339 85" stroke="#914cd6" fill="none"/><path d="M14 85 C154 60,180 41,328 16" stroke="#d4eb8d" fill="none"/><path d="M21 70 C155 101,165 58,335 48" stroke="#57dab9" fill="none"/><path fill="#9854dd" d="M57.33 92.68L57.46 92.81L57.47 92.83Q59.66 94.58 62.35 94.29L62.22 94.15L62.28 94.21Q67.85 94.54 69.08 88.14L69.21 88.27L69.19 88.24Q70.26 82.12 70.26 75.65L70.30 75.68L70.33 70.77L70.33 70.76Q70.33 68.37 69.67 65.96L69.66 65.95L69.70 65.99Q67.41 70.46 63.62 79.55L63.57 79.50L63.57 79.50Q59.75 88.55 57.42 92.77ZM66.99 61.24L67.06 61.31L67.01 61.26Q64.89 59.80 62.35 59.80L62.21 59.67L62.36 59.81Q59.51 59.51 57.40 61.25L57.40 61.25L57.26 61.11Q55.31 63.02 54.94 65.85L54.89 65.80L54.96 65.87Q54.17 68.35 54.10 71.19L54.19 71.28L54.09 71.19Q54.11 71.20 54.11 76.66L54.09 76.64L54.17 76.71Q54.10 81.16 54.98 88.07L55.11 88.21L55.00 88.10Q58.73 79.10 67.10 61.35ZM69.95 97.16L70.07 97.27L70.10 97.30Q66.61 98.91 62.17 98.91L62.26 98.99L59.12 98.98L59.01 98.87Q52.91 98.95 50.73 95.68L50.78 95.74L50.64 95.59Q49.24 91.57 49.09 85.97L49.04 85.92L49.04 85.92Q48.90 82.51 48.76 75.89L48.80 75.93L48.91 76.04Q48.81 73.69 48.52 67.87L48.45 67.80L48.54 67.89Q48.41 63.54 49.00 59.76L48.82 59.58L48.93 59.69Q49.77 53.99 58.06 53.55L58.15 53.64L58.11 53.60Q59.60 53.56 62.14 53.63L62.06 53.55L62.16 53.65Q72.99 53.93 75.03 60.55L75.00 60.52L75.11 60.64Q76.20 64.20 76.13 67.76L76.12 67.76L76.08 67.72Q76.03 77.34 75.88 79.66L75.78 79.56L75.85 79.63Q75.49 86.91 74.91 89.38L74.96 89.43L74.93 89.41Q73.69 95.37 70.05 97.26ZM79.46 96.78L79.53 96.84L79.51 96.83Q79.93 91.50 79.86 88.08L79.79 88.01L79.64 79.20L79.62 79.18Q79.49 73.46 78.48 62.91L78.57 63.00L78.42 62.85Q77.51 59.47 75.04 58.02L75.08 58.06L74.95 57.93Q71.99 53.07 62.09 52.78L62.18 52.87L62.09 52.78Q60.39 52.68 57.85 52.75L57.86 52.77L58.01 52.91Q49.34 53.05 48.40 59.02L48.32 58.94L48.36 58.98Q47.69 63.48 47.91 67.48L47.79 67.36L47.82 67.39Q48.46 75.74 48.39 82.14L48.30 82.05L48.35 82.10Q48.27 89.15 48.49 91.12L48.59 91.21L48.44 91.07Q49.23 97.02 52.14 98.55L52.17 98.58L52.20 98.61Q55.06 102.85 62.70 103.36L62.64 103.30L62.64 103.30Q69.42 103.68 70.66 103.61L70.79 103.74L70.79 103.74Q76.17 103.38 78.36 100.32L78.28 100.25L78.36 100.33Q79.33 99.04 79.47 96.79ZM63.08 93.56L63.09 93.57L63.02 93.50Q64.24 90.64 66.27 85.48L66.39 85.60L69.62 77.47L69.65 77.51Q69.59 80.65 68.86 87.05L68.74 86.92L68.83 87.01Q67.62 92.57 63.04 93.52ZM59.29 70.06L59.26 70.03L59.16 69.93Q60.02 66.49 61.33 65.40L61.50 65.57L61.51 65.58Q62.36 64.76 64.84 64.40L64.81 64.37L64.81 64.37Q61.52 71.34 57.96 80.21L58.01 80.26L57.86 80.11Q57.91 75.01 59.22 69.99Z"/><path d="M17 5 C169 113,155 11,333 40" stroke="#5757df" fill="none"/><path d="M8 79 C187 117,160 101,335 73" stroke="#85e4e4" fill="none"/><path d="M13 34 C185 38,159 97,339 101" stroke="#4a6dd8" fill="none"/><path d="M17 30 C175 109,173 44,341 65" stroke="#81e8e8" fill="none"/><path d="M5 90 C151 42,178 13,334 70" stroke="#8d6eec" fill="none"/><path d="M6 37 C167 15,155 42,325 21" stroke="#d64c4c" fill="none"/><path d="M6 17 C174 8,161 15,333 88" stroke="#e48ab7" fill="none"/><path d="M20 75 C182 90,159 120,340 136" stroke="#8fe971" fill="none"/><path d="M10 76 C184 28,158 49,341 98" stroke="#ed8686" fill="none"/><path d="M10 75 C162 43,161 55,330 16" stroke="#b938e5" fill="none"/><path fill="#52dada" d="M190.93 85.19L190.86 85.12L190.87 85.12Q196.83 84.47 202.94 84.69L202.99 84.74L203.00 84.75Q202.82 79.76 202.82 75.18L202.83 75.19L202.88 75.25Q202.80 70.44 203.16 65.56L203.33 65.73L203.15 65.55Q200.85 68.85 190.88 85.14ZM209.85 99.23L209.93 99.32L209.93 99.32Q206.72 98.73 203.31 98.58L203.31 98.59L203.21 98.48Q202.91 94.04 202.69 89.31L202.65 89.27L202.65 89.28Q192.43 88.87 183.41 91.56L183.48 91.63L183.43 91.59Q183.60 90.59 183.96 88.70L184.11 88.85L183.96 88.69Q187.53 82.81 194.37 70.81L194.38 70.82L194.35 70.79Q199.82 61.42 206.37 54.00L206.27 53.90L206.38 54.01Q208.07 53.67 211.27 53.16L211.18 53.06L211.17 53.06Q207.67 65.49 207.67 78.95L207.64 78.92L207.61 78.89Q207.68 81.79 207.83 84.63L207.69 84.49L210.21 84.75L210.16 84.71Q211.33 84.78 212.49 85.00L212.47 84.98L212.60 85.11Q212.71 86.89 213.22 90.60L213.30 90.68L213.27 90.66Q210.86 90.06 208.02 89.70L208.06 89.74L208.10 89.78Q208.57 93.66 209.88 99.26ZM213.10 84.37L212.98 84.26L213.12 84.39Q212.74 84.23 212.38 84.23L212.30 84.16L211.61 84.19L211.67 84.26Q211.39 81.36 211.39 78.67L211.30 78.57L211.32 78.59Q211.33 66.38 215.25 54.89L215.30 54.93L215.39 55.02Q213.94 55.53 211.17 56.26L211.17 56.26L211.05 56.14Q211.44 54.64 212.31 51.95L212.49 52.12L212.31 51.94Q209.98 52.81 206.05 53.25L206.08 53.27L206.07 53.27Q198.44 61.43 188.48 79.32L188.60 79.44L192.45 72.31L192.55 72.41Q191.74 74.36 191.23 75.45L191.21 75.43L182.76 92.73L182.81 92.78Q183.96 92.41 186.15 91.68L186.15 91.69L185.77 92.03L185.80 92.06Q185.72 93.51 185.14 95.91L184.96 95.73L185.14 95.92Q192.95 93.32 202.19 93.68L202.08 93.58L202.11 93.61Q202.32 95.56 202.68 99.34L202.64 99.29L202.60 99.26Q204.56 99.19 206.60 99.41L206.70 99.51L206.69 99.49Q206.92 100.75 207.43 103.36L207.53 103.46L207.54 103.47Q211.13 103.86 216.88 105.61L216.86 105.59L216.89 105.62Q214.93 101.48 213.18 95.22L213.26 95.30L215.88 96.03L216.04 96.19Q217.23 96.51 218.54 97.16L218.65 97.27L218.56 97.18Q217.02 92.36 216.73 89.16L216.79 89.23L216.72 89.16Q215.60 88.84 213.42 88.40L213.59 88.57L213.57 88.55Q213.11 86.06 213.11 84.38ZM197.69 83.95L197.83 84.09L197.83 84.09Q199.21 81.54 202.19 76.66L202.14 76.62L202.25 76.73Q202.31 78.60 202.24 80.42L202.20 80.38L202.23 80.42Q202.15 82.23 202.22 84.05L202.23 84.05L202.16 83.98Q201.18 84.02 200.09 84.02L199.94 83.87L200.07 84.00Q198.96 84.05 197.79 84.05Z"/><path fill="#e46c6c" d="M281.58 94.68L281.47 94.56L281.56 94.65Q282.18 96.58 283.20 100.44L283.10 100.34L283.07 100.31Q275.17 97.93 266.36 98.44L266.22 98.30L266.19 98.27Q257.47 98.79 249.83 102.57L250.01 102.75L249.97 102.71Q250.32 101.31 250.39 101.45L250.43 101.50L250.48 101.55Q257.61 93.98 265.10 85.54L265.13 85.57L265.07 85.51Q273.54 76.01 275.79 67.06L275.66 66.93L275.71 66.98Q276.66 63.71 274.22 61.46L274.12 61.36L274.12 61.35Q271.84 59.26 268.42 59.55L268.23 59.35L268.23 59.36Q267.66 59.37 267.01 59.37L266.98 59.35L267.03 59.40Q264.15 59.42 261.75 61.16L261.74 61.16L261.76 61.18Q259.27 63.78 259.70 68.87L259.75 68.91L259.57 68.74Q256.18 68.11 253.85 67.23L253.86 67.25L254.01 67.40Q253.49 64.54 253.34 61.78L253.34 61.77L253.35 61.79Q253.18 58.64 254.35 56.46L254.36 56.47L254.46 56.57Q257.84 53.91 264.24 53.91L264.22 53.89L267.55 53.87L267.63 53.96Q271.91 53.94 273.73 54.16L273.75 54.19L273.81 54.25Q282.02 54.96 282.53 59.62L282.67 59.76L282.68 59.77Q282.80 60.83 282.65 62.36L282.54 62.24L282.57 62.28Q282.55 63.56 282.26 64.87L282.25 64.86L282.30 64.91Q278.99 80.23 264.52 93.32L264.71 93.51L264.70 93.51Q267.37 93.19 269.98 93.19L269.92 93.12L269.93 93.13Q276.15 93.17 281.60 94.70ZM280.50 54.90L280.57 54.97L280.55 54.94Q277.36 53.57 274.09 53.43L274.20 53.54L267.54 53.06L267.55 53.07Q259.19 52.71 254.97 54.82L254.90 54.75L254.85 54.70Q252.77 57.28 252.77 61.21L252.76 61.20L252.91 61.35Q252.93 62.68 253.51 68.06L253.58 68.13L253.53 68.07Q254.49 68.46 256.75 69.04L256.70 69.00L256.85 71.10L256.72 70.97Q256.68 71.88 256.82 72.90L256.82 72.89L256.93 73.01Q259.16 73.06 263.89 73.49L263.88 73.49L263.94 73.54Q263.80 72.74 263.80 72.09L263.91 72.21L263.82 72.11Q263.87 68.67 266.20 66.09L266.25 66.15L266.28 66.17Q268.58 63.57 272.00 63.78L272.04 63.82L272.04 63.82Q273.43 63.83 274.89 64.12L274.83 64.06L274.89 64.13Q275.08 64.83 275.23 65.63L275.25 65.64L275.24 65.64Q275.25 66.38 275.11 67.04L275.07 67.00L275.24 67.17Q272.81 76.23 264.37 85.47L264.24 85.33L264.28 85.38Q260.19 89.65 249.79 101.21L249.83 101.26L249.78 101.21Q249.39 102.78 248.74 103.87L248.75 103.89L248.93 104.06Q251.79 102.20 254.70 101.18L254.87 101.35L254.82 101.30Q253.50 102.45 251.68 105.29L251.57 105.18L251.57 105.18Q251.34 105.82 251.12 106.48L251.15 106.50L251.12 106.47Q260.45 102.57 270.93 102.93L270.94 102.95L271.04 103.05Q281.69 103.15 290.42 107.66L290.58 107.82L288.70 103.76L288.72 103.78Q287.41 101.16 286.90 99.63L286.81 99.54L286.95 99.68Q285.59 98.90 283.26 98.10L283.17 98.00L283.15 97.99Q282.79 96.54 282.06 93.92L282.19 94.05L282.13 93.99Q277.92 92.91 273.56 92.54L273.51 92.49L273.57 92.55Q282.45 83.76 285.36 67.97L285.38 67.99L285.74 62.46L285.79 62.52Q285.64 59.09 283.31 57.78L283.38 57.85L283.18 57.72L283.31 57.85Q283.24 57.71 283.10 57.71L282.96 57.57L282.96 57.57Q282.55 56.00 280.44 54.83Z"/><path d="M5 35 C182 105,166 75,325 47" stroke="#b78be3" fill="none"/><path d="M12 35 C184 122,162 27,326 27" stroke="#55ecec" fill="none"/><path d="M4 24 C156 105,151 42,323 4" stroke="#7fcce5" fill="none"/><path d="M11 97 C184 120,166 28,326 98" stroke="#97bfe7" fill="none"/><path d="M3 13 C162 86,172 16,341 135" stroke="#704be1" fill="none"/><path d="M1 5 C180 134,165 5,338 113" stroke="#e69292" fill="none"/><path d="M15 26 C169 3,174 85,333 53" stroke="#52dfbc" fill="none"/><path d="M13 136 C157 115,189 27,339 74" stroke="#5d5de8" fill="none"/><path d="M9 34 C166 19,186 89,335 132" stroke="#d93fd9" fill="none"/><path d="M4 67 C187 36,176 96,338 120" stroke="#e47676" fill="none"/><path d="M10 7 C173 65,180 131,328 25" stroke="#60e080" fill="none"/><path d="M7 10 C182 57,164 98,334 83" stroke="#6482dd" fill="none"/><path d="M8 79 C177 99,187 66,328 33" stroke="#6ea5dd" fill="none"/><path d="M15 76 C170 25,190 26,327 128" stroke="#89d2eb" fill="none"/><path d="M3 82 C167 138,168 89,330 64" stroke="#e03ce0" fill="none"/><path d="M5 93 C151 22,185 95,333 126" stroke="#6666df" fill="none"/></svg>