<svg xmlns="http://www.w3.org/2000/svg" width="342" height="140" viewBox="0,0,342,140"><path d="M11 138 C170 5,156 116,331 58" stroke="#e5e56f" fill="none"/><path d="M6 84 C181 24,151 41,341 42" stroke="#6884d9" fill="none"/><path d="M16 121 C151 63,170 27,337 50" stroke="#57dab9" fill="none"/><path d="M5 121 C182 18,189 15,336 30" stroke="#e0886a" fill="none"/><path fill="#ad71e9" d="M165.01 77.05L164.93 76.97L165.01 77.05Q161.89 76.84 159.79 79.26L159.72 79.20L159.79 79.26Q157.55 81.55 157.23 84.78L157.33 84.88L157.39 84.94Q156.93 88.35 158.77 89.99L158.72 89.95L158.69 89.92Q160.61 91.64 164.16 91.45L164.20 91.49L164.13 91.42Q167.75 91.22 169.62 90.06L169.67 90.11L169.63 90.07Q171.59 88.21 171.59 85.57L171.54 85.52L171.56 85.54Q171.42 84.76 171.29 84.11L171.39 84.20L171.36 84.18Q171.50 81.35 169.63 79.06L169.55 78.98L169.71 79.14Q167.87 76.88 165.03 77.07ZM164.32 95.93L164.22 95.84L164.25 95.86Q156.75 95.79 154.36 94.50L154.47 94.61L154.31 94.44Q152.75 93.34 152.43 90.43L152.40 90.41L152.40 90.41Q152.28 89.19 152.34 87.96L152.39 88.01L152.34 87.95Q152.61 86.36 152.61 85.58L152.60 85.57L152.53 85.50Q153.22 80.57 153.47 79.40L153.52 79.45L153.60 79.53Q154.27 76.13 155.69 73.74L155.76 73.81L155.67 73.72Q160.22 66.32 170.29 55.54L170.26 55.50L170.41 55.65Q174.91 55.11 178.65 53.76L178.63 53.73L178.58 53.69Q167.03 66.42 161.61 73.59L161.61 73.59L161.54 73.52Q163.35 72.81 165.54 72.81L165.36 72.62L165.54 72.81Q171.04 72.68 173.62 75.98L173.55 75.91L173.66 76.02Q175.89 78.77 176.47 84.77L176.48 84.78L176.48 84.78Q176.56 85.95 176.56 86.99L176.66 87.09L176.59 87.02Q176.68 92.41 172.94 94.22L172.79 94.07L172.84 94.12Q170.74 95.12 164.15 95.76ZM168.16 99.96L168.18 99.98L168.10 99.91Q170.37 99.92 173.73 100.05L173.72 100.04L173.71 100.02Q176.41 100.07 179.05 98.85L178.98 98.78L179.12 98.92Q180.89 97.45 180.89 94.42L180.89 94.42L181.00 94.53Q181.00 93.69 180.71 92.01L180.74 92.04L180.63 91.93Q180.46 90.37 180.46 89.60L180.32 89.45L180.29 89.43Q178.97 81.59 176.26 78.36L176.22 78.32L176.13 78.23Q176.00 78.03 175.74 77.65L175.80 77.70L175.23 77.27L175.11 77.21L175.08 77.18Q174.61 76.46 173.58 74.84L173.59 74.85L173.62 74.87Q171.93 73.13 168.57 72.35L168.63 72.41L168.70 72.47Q170.59 69.59 175.63 63.32L175.74 63.44L182.97 54.52L182.94 54.49Q180.31 55.99 176.24 57.28L176.14 57.18L176.22 57.27Q177.69 55.51 180.72 52.15L180.74 52.16L180.80 52.23Q176.60 53.90 170.01 54.87L170.13 54.99L170.05 54.90Q160.35 64.91 155.31 73.30L155.34 73.32L155.38 73.37Q152.83 77.66 151.86 88.25L151.77 88.16L151.91 88.30Q151.69 89.18 151.82 90.80L151.82 90.79L151.79 90.76Q152.02 93.83 153.89 95.38L153.80 95.29L153.80 95.30Q154.46 95.57 154.39 95.63L154.38 95.62L154.50 95.73Q155.06 97.20 156.42 97.91L156.32 97.81L156.33 97.82Q158.80 99.01 162.10 99.33L162.07 99.30L162.23 99.46Q162.22 99.45 168.16 99.97ZM167.64 80.78L167.63 80.77L167.75 80.89Q168.70 80.68 170.31 81.52L170.25 81.45L170.37 81.58Q170.83 83.07 170.83 84.16L170.92 84.26L170.78 84.12Q171.27 87.44 169.65 89.12L169.59 89.07L169.55 89.02Q167.78 90.29 164.23 90.81L164.27 90.85L164.26 90.83Q161.82 90.85 160.91 90.39L160.85 90.33L160.83 90.32Q160.44 89.47 160.44 88.96L160.47 88.98L160.48 89.00Q160.08 83.43 165.05 81.23L165.13 81.31L165.15 81.32Q166.35 80.65 167.64 80.78Z"/><path d="M18 108 C156 19,164 5,322 108" stroke="#9b55e1" fill="none"/><path fill="#dddd4a" d="M217.15 96.01L217.19 96.04L217.26 96.11Q210.34 96.49 208.66 92.55L208.66 92.55L208.59 92.48Q209.90 90.88 212.55 87.85L212.69 87.99L212.66 87.96Q213.33 91.21 218.43 91.41L218.49 91.46L218.48 91.45Q224.35 91.71 227.13 89.45L227.13 89.45L227.02 89.34Q229.40 86.62 229.27 82.03L229.29 82.05L229.27 82.03Q228.98 73.41 220.84 73.80L220.84 73.79L220.88 73.84Q216.10 74.09 213.13 76.22L213.20 76.30L212.52 75.87L212.25 75.73L212.36 75.84Q212.77 70.31 212.58 65.66L212.75 65.83L212.58 65.66Q212.36 61.19 211.78 55.57L211.82 55.60L211.81 55.59Q218.07 57.27 224.53 57.07L224.57 57.12L224.63 57.18Q231.04 57.00 237.11 54.87L237.06 54.82L236.16 57.47L236.12 57.43Q235.49 58.61 235.17 60.03L235.26 60.12L235.17 60.04Q230.03 61.93 223.44 61.93L223.33 61.82L223.29 61.78Q220.95 61.89 218.43 61.63L218.39 61.59L218.45 61.65Q218.27 62.77 217.69 70.33L217.76 70.40L217.71 70.34Q219.12 69.56 222.61 69.30L222.61 69.30L222.58 69.27Q228.94 69.69 231.40 72.54L231.34 72.48L231.36 72.49Q233.62 75.02 234.07 81.54L234.09 81.56L234.15 81.62Q234.64 88.75 232.57 92.18L232.49 92.10L232.47 92.08Q229.03 95.29 223.41 95.68L223.51 95.78L223.46 95.72Q221.74 95.81 217.22 96.07ZM227.45 99.91L227.41 99.87L227.43 99.89Q233.30 100.07 236.53 98.20L236.46 98.13L236.56 98.23Q238.23 95.64 238.23 92.09L238.23 92.09L238.30 92.16Q238.27 86.90 236.66 79.93L236.59 79.86L236.69 79.96Q235.94 76.89 233.88 74.50L233.88 74.50L234.00 74.68L233.49 74.05L232.97 73.79L232.93 73.75Q232.42 72.52 231.32 71.36L231.30 71.34L231.42 71.52L231.34 71.44Q228.84 68.69 222.58 68.69L222.60 68.71L222.03 68.59L222.17 68.74Q222.15 67.62 222.48 65.74L222.63 65.90L222.57 65.84Q230.96 65.97 237.81 63.19L237.84 63.22L237.80 63.18Q238.64 60.92 240.26 56.14L240.22 56.10L236.61 57.67L236.56 57.62Q237.23 55.70 238.07 53.76L238.17 53.86L238.11 53.81Q231.57 56.24 224.59 56.37L224.60 56.38L224.57 56.34Q217.72 56.66 211.00 54.79L210.83 54.62L210.98 54.77Q212.02 62.13 212.02 69.63L212.01 69.61L211.98 69.58Q212.11 72.95 211.92 76.18L211.91 76.17L211.87 76.13Q212.31 76.43 213.27 76.95L213.33 77.01L213.20 76.88Q213.80 76.51 214.90 75.93L214.98 76.00L214.92 75.95Q214.88 77.27 214.50 79.85L214.55 79.91L214.55 79.91Q215.16 80.13 215.87 80.52L215.93 80.58L215.99 80.64Q220.71 77.67 223.87 77.67L223.84 77.63L223.86 77.65Q226.00 77.53 228.00 78.63L228.17 78.80L228.08 78.71Q228.74 80.53 228.80 82.14L228.71 82.06L228.64 81.98Q228.91 86.52 227.17 88.39L227.13 88.35L227.13 88.35Q224.82 90.43 221.01 90.82L220.99 90.80L221.01 90.82Q219.29 90.84 218.12 90.71L218.20 90.79L218.30 90.89Q216.87 90.69 215.58 90.11L215.47 90.00L215.47 89.67L215.31 89.90L215.20 89.80Q213.92 89.03 213.01 86.77L212.92 86.67L212.94 86.70Q210.67 89.07 207.83 92.69L207.87 92.73L207.77 92.63Q208.30 93.74 209.72 95.35L209.79 95.43L209.91 95.54Q211.66 98.59 216.44 99.43L216.34 99.33L216.47 99.45Q218.38 99.76 227.49 99.95Z"/><path d="M10 40 C169 54,157 109,324 44" stroke="#e14b96" fill="none"/><path d="M21 2 C169 123,180 25,339 127" stroke="#b782ed" fill="none"/><path d="M10 99 C175 14,180 4,332 91" stroke="#49bde3" fill="none"/><path d="M2 75 C172 128,162 49,340 30" stroke="#b939e4" fill="none"/><path d="M8 7 C167 39,175 21,336 8" stroke="#b84bdc" fill="none"/><path d="M8 3 C180 32,190 96,337 76" stroke="#436adf" fill="none"/><path d="M5 112 C162 13,155 32,328 56" stroke="#6ceead" fill="none"/><path d="M1 32 C188 56,179 119,326 2" stroke="#e6bd41" fill="none"/><path d="M19 8 C174 114,165 14,323 127" stroke="#54e79e" fill="none"/><path d="M15 10 C173 25,166 97,330 24" stroke="#aa6ee7" fill="none"/><path d="M8 132 C159 117,177 118,336 102" stroke="#ebb57e" fill="none"/><path d="M6 93 C162 66,166 85,330 11" stroke="#dd7373" fill="none"/><path d="M18 13 C179 54,154 2,334 77" stroke="#e7597d" fill="none"/><path d="M11 40 C191 65,183 120,323 40" stroke="#bce051" fill="none"/><path d="M4 29 C158 100,155 32,323 102" stroke="#ef7f9b" fill="none"/><path d="M7 55 C172 58,157 14,341 124" stroke="#d67251" fill="none"/><path d="M9 108 C170 39,190 97,333 137" stroke="#e98fa6" fill="none"/><path d="M20 56 C189 98,190 98,330 6" stroke="#839be1" fill="none"/><path d="M2 57 C156 47,186 64,333 17" stroke="#e37f5d" fill="none"/><path d="M10 64 C157 96,177 65,337 28" stroke="#e86868" fill="none"/><path d="M8 82 C187 124,189 68,332 97" stroke="#db876b" fill="none"/><path d="M19 44 C159 61,151 127,323 130" stroke="#957ae4" fill="none"/><path d="M7 44 C182 16,169 96,337 78" stroke="#b744de" fill="none"/><path d="M6 6 C175 90,150 67,336 33" stroke="#6ca8e4" fill="none"/><path fill="#40b6dd" d="M273.90 90.18L273.88 90.16L274.00 90.28Q275.95 91.84 278.34 91.58L278.19 91.44L278.24 91.48Q283.24 91.83 284.34 86.15L284.42 86.23L284.39 86.20Q285.35 80.77 285.35 75.02L285.35 75.02L285.36 70.64L285.27 70.55Q285.38 68.53 284.80 66.40L284.84 66.44L284.81 66.40Q282.63 70.23 279.27 78.30L279.29 78.32L279.29 78.32Q275.94 86.40 273.87 90.15ZM282.43 62.22L282.38 62.17L282.44 62.23Q280.57 60.94 278.31 60.94L278.17 60.80L278.32 60.95Q275.80 60.69 273.93 62.24L273.78 62.09L273.92 62.24Q271.93 63.67 271.61 66.18L271.67 66.24L271.64 66.22Q271.06 68.54 270.99 71.06L270.97 71.03L271.09 71.16Q270.96 71.03 270.96 75.87L271.04 75.95L271.03 75.94Q271.08 79.99 271.85 86.13L271.84 86.11L271.90 86.17Q275.08 78.05 282.51 62.29ZM285.16 94.21L285.03 94.08L285.06 94.11Q282.21 95.78 278.27 95.78L278.22 95.73L275.48 95.76L275.35 95.63Q269.89 95.66 267.96 92.76L267.94 92.75L268.08 92.88Q266.58 89.06 266.46 84.09L266.59 84.23L266.46 84.09Q266.51 81.23 266.38 75.36L266.28 75.26L266.32 75.30Q266.18 73.16 265.93 67.99L266.03 68.10L265.97 68.04Q265.79 64.11 266.31 60.76L266.32 60.77L266.41 60.86Q267.30 55.94 274.66 55.55L274.57 55.46L274.52 55.41Q275.97 55.50 278.23 55.56L278.12 55.46L278.08 55.42Q287.68 55.65 289.49 61.53L289.62 61.66L289.61 61.65Q290.54 64.77 290.47 67.94L290.62 68.09L290.45 67.92Q290.45 76.50 290.32 78.57L290.34 78.59L290.27 78.52Q289.95 84.98 289.44 87.18L289.37 87.11L289.52 87.26Q288.42 92.56 285.20 94.24ZM293.59 93.85L293.55 93.81L293.46 93.73Q293.95 89.11 293.89 86.08L293.80 85.99L293.63 78.13L293.69 78.20Q293.63 73.16 292.72 63.79L292.58 63.65L292.75 63.82Q291.80 60.68 289.61 59.38L289.48 59.26L289.55 59.33Q286.90 55.00 278.12 54.75L278.20 54.82L278.08 54.71Q276.64 54.69 274.38 54.75L274.40 54.77L274.48 54.85Q266.70 54.88 265.86 60.18L265.81 60.13L265.80 60.12Q265.27 64.17 265.46 67.72L265.38 67.64L265.35 67.61Q266.04 75.15 265.97 80.83L266.01 80.87L265.95 80.81Q265.91 87.09 266.10 88.84L265.96 88.70L266.04 88.77Q266.68 94.00 269.26 95.35L269.32 95.41L269.27 95.37Q271.73 99.05 278.51 99.50L278.68 99.67L278.66 99.65Q284.60 99.91 285.70 99.85L285.77 99.91L285.72 99.87Q290.52 99.57 292.46 96.85L292.52 96.92L292.60 97.00Q293.36 95.76 293.49 93.75ZM278.88 90.83L278.89 90.84L278.85 90.81Q280.00 88.34 281.81 83.75L281.89 83.83L284.72 76.58L284.74 76.60Q284.81 79.52 284.17 85.20L283.98 85.02L283.99 85.02Q282.91 89.95 278.84 90.79ZM275.55 70.00L275.52 69.97L275.51 69.96Q276.38 67.02 277.54 66.05L277.50 66.01L277.53 66.04Q278.24 65.26 280.44 64.94L280.48 64.98L280.50 65.01Q277.61 71.21 274.44 79.09L274.33 78.98L274.44 79.09Q274.37 74.43 275.53 69.98Z"/><path d="M7 20 C166 113,152 101,339 125" stroke="#77c8e3" fill="none"/><path d="M17 66 C186 50,173 128,340 11" stroke="#5555dc" fill="none"/><path fill="#9ee457" d="M102.73 95.95L102.71 95.93L102.80 96.02Q100.33 96.06 97.68 95.35L97.85 95.53L97.87 95.54Q95.73 93.92 95.47 91.14L95.41 91.08L95.41 91.08Q95.31 90.73 95.64 86.27L95.67 86.31L95.63 86.27Q97.43 86.00 100.86 85.36L100.90 85.41L100.54 86.65L100.54 86.65Q100.08 89.62 102.47 90.59L102.51 90.63L102.42 90.53Q103.79 91.13 107.34 91.13L107.47 91.26L107.32 91.11Q110.04 90.86 110.36 90.73L110.51 90.88L110.38 90.74Q111.90 90.46 113.12 89.62L113.20 89.69L113.30 89.79Q115.52 88.01 115.20 84.46L115.29 84.55L115.20 84.46Q114.91 80.36 111.97 77.71L112.05 77.79L111.93 77.67Q109.09 75.12 104.89 75.12L104.82 75.05L104.94 74.78L104.93 74.77Q105.52 74.65 107.00 74.52L107.01 74.53L107.01 74.53Q110.27 74.36 112.59 72.26L112.61 72.28L112.60 72.27Q114.83 70.08 115.09 66.91L115.16 66.99L115.11 66.93Q115.36 66.47 115.36 65.89L115.22 65.75L115.36 65.89Q115.26 63.21 112.93 61.66L112.85 61.58L112.89 61.62Q110.79 60.22 108.08 60.42L108.10 60.44L108.07 60.41Q105.94 60.21 103.87 60.92L103.89 60.95L103.89 60.94Q101.44 61.85 100.92 63.79L100.92 63.78L100.92 63.78Q100.53 65.01 100.66 66.30L100.81 66.45L100.84 66.48Q99.02 66.02 95.53 64.79L95.53 64.79L95.58 64.84Q95.15 61.95 95.21 60.53L95.26 60.58L95.17 60.49Q95.47 58.02 97.28 56.86L97.26 56.83L97.09 56.66Q99.53 55.68 102.24 55.68L102.23 55.66L102.38 55.82Q107.65 55.66 113.01 56.11L112.94 56.04L112.98 56.08Q121.61 56.84 121.09 63.23L121.15 63.29L121.16 63.30Q120.99 65.77 120.15 68.42L120.10 68.37L120.08 68.35Q118.53 73.58 114.53 75.13L114.55 75.15L114.65 75.26Q118.99 76.04 120.02 81.73L120.13 81.83L120.00 81.71Q120.44 83.69 120.57 87.11L120.63 87.17L120.57 87.12Q120.73 94.58 112.92 95.35L113.01 95.45L112.95 95.39Q111.77 95.57 102.80 96.02ZM111.62 99.80L111.67 99.86L111.64 99.82Q112.77 99.98 117.61 100.11L117.52 100.02L117.53 100.03Q120.50 100.15 123.27 99.06L123.32 99.10L123.22 99.00Q125.30 97.47 124.98 94.50L125.01 94.53L124.91 94.43Q124.86 92.32 124.35 89.35L124.26 89.26L124.18 89.18Q122.95 81.55 119.66 78.78L119.70 78.82L119.43 78.23L119.34 78.07L119.29 78.02Q122.39 75.70 123.68 68.27L123.54 68.13L123.56 68.15Q123.62 67.37 123.82 65.76L123.87 65.81L123.92 65.86Q124.05 64.57 123.92 63.40L123.90 63.39L123.96 63.45Q123.57 60.47 121.37 59.31L121.44 59.37L121.25 59.31L121.22 59.28Q120.79 57.69 118.85 56.79L118.92 56.85L118.80 56.74Q116.33 55.69 107.61 55.17L107.56 55.12L107.56 55.12Q104.64 54.91 101.93 54.91L101.89 54.88L101.96 54.95Q99.29 54.99 96.71 56.08L96.68 56.06L96.67 56.05Q94.65 57.38 94.65 60.36L94.70 60.41L94.70 60.41Q94.58 59.58 95.04 65.27L95.04 65.27L95.10 65.33Q95.54 65.38 98.32 66.42L98.42 66.52L98.42 66.51Q98.44 67.44 98.37 68.28L98.28 68.19L98.35 68.25Q98.29 69.03 98.35 69.94L98.32 69.91L98.34 69.93Q101.32 70.52 104.75 70.71L104.91 70.87L104.74 70.71Q104.67 67.35 106.55 65.93L106.47 65.84L106.55 65.93Q107.94 64.80 111.36 64.41L111.46 64.51L111.32 64.37Q113.24 64.36 114.21 64.68L114.40 64.86L114.23 64.69Q114.28 64.88 114.34 65.07L114.52 65.24L114.51 65.56L114.57 66.39L114.61 66.44Q114.58 66.73 114.52 66.99L114.60 67.07L114.66 67.12Q114.38 69.88 111.79 71.88L111.85 71.94L111.93 72.02Q110.39 73.58 106.97 73.91L106.85 73.79L106.85 73.79Q105.70 74.13 104.22 74.13L104.08 73.98L104.19 74.09Q104.25 74.67 104.51 75.83L104.56 75.89L104.41 75.73Q107.45 75.80 109.90 77.03L109.85 76.98L109.63 76.95L107.13 77.43L107.06 77.36Q107.14 77.95 107.33 78.98L107.23 78.88L107.37 79.02Q110.94 78.84 113.84 81.10L113.80 81.06L113.92 81.18Q114.14 81.66 114.66 84.44L114.79 84.56L114.83 84.61Q115.08 89.50 110.10 90.21L110.03 90.14L110.08 90.19Q106.52 90.64 105.55 90.57L105.48 90.50L105.53 90.54Q104.78 90.38 103.88 90.25L103.97 90.34L103.97 89.57L104.17 88.80L104.17 88.09L104.14 87.48L104.25 87.59Q102.55 87.63 101.20 87.96L101.25 88.01L101.33 88.09Q101.28 87.72 101.28 87.40L101.25 87.37L101.11 87.22Q101.29 87.02 101.29 86.63L101.20 86.54L101.22 86.56Q101.26 85.82 101.51 84.59L101.54 84.62L101.62 84.70Q98.44 85.07 95.27 85.65L95.15 85.53L95.17 85.55Q95.34 86.56 95.15 88.47L94.97 88.28L94.98 88.30Q94.80 90.22 94.80 91.25L94.96 91.41L94.77 91.22Q94.96 94.77 97.29 96.06L97.26 96.04L97.41 96.18Q99.74 99.87 107.75 99.55L107.76 99.56L107.81 99.61Q109.05 99.55 111.63 99.81Z"/><path d="M17 57 C151 116,177 32,336 139" stroke="#ecd48c" fill="none"/><path d="M2 32 C154 3,171 70,337 31" stroke="#d076ee" fill="none"/><path d="M20 65 C161 115,190 63,323 27" stroke="#57da57" fill="none"/><path d="M9 12 C173 49,180 68,336 105" stroke="#ebcc6f" fill="none"/><path d="M9 92 C171 46,151 40,334 131" stroke="#d17ced" fill="none"/><path d="M21 92 C153 9,168 102,339 61" stroke="#61e5a3" fill="none"/><path fill="#ef7fef" d="M47.27 90.22L47.28 90.22L47.37 90.31Q49.15 91.71 51.54 91.45L51.66 91.57L51.63 91.54Q56.63 91.89 57.73 86.20L57.67 86.15L57.72 86.20Q58.61 80.70 58.61 74.95L58.71 75.05L58.66 70.61L58.65 70.59Q58.77 68.59 58.19 66.46L58.04 66.30L58.21 66.47Q55.98 70.25 52.62 78.32L52.63 78.33L52.72 78.42Q49.34 86.47 47.27 90.21ZM55.75 62.20L55.85 62.30L55.77 62.22Q53.77 60.81 51.51 60.81L51.68 60.98L51.53 60.83Q48.98 60.54 47.11 62.09L47.19 62.17L47.26 62.24Q45.26 63.66 44.94 66.18L45.02 66.26L44.97 66.22Q44.44 68.60 44.38 71.11L44.29 71.03L44.38 71.11Q44.30 71.03 44.30 75.88L44.27 75.85L44.27 75.84Q44.32 79.90 45.09 86.03L45.20 86.14L45.23 86.17Q48.37 78.01 55.80 62.25ZM58.53 94.24L58.42 94.13L58.36 94.07Q55.50 95.73 51.56 95.73L51.58 95.75L48.72 95.67L48.82 95.76Q43.27 95.71 41.34 92.80L41.41 92.88L41.25 92.72Q39.91 89.06 39.78 84.08L39.84 84.14L39.86 84.16Q39.72 81.11 39.59 75.24L39.67 75.32L39.64 75.28Q39.54 73.18 39.28 68.02L39.31 68.05L39.33 68.06Q39.27 64.26 39.78 60.90L39.70 60.81L39.77 60.89Q40.58 55.88 47.94 55.50L47.86 55.41L47.92 55.48Q49.26 55.46 51.52 55.53L51.46 55.46L51.42 55.42Q61.11 55.74 62.91 61.62L62.80 61.51L62.83 61.53Q63.92 64.82 63.86 67.99L63.92 68.05L63.96 68.09Q63.66 76.38 63.53 78.44L63.59 78.51L63.59 78.51Q63.28 84.97 62.76 87.17L62.86 87.27L62.75 87.16Q61.70 92.50 58.47 94.18ZM66.76 93.69L66.77 93.70L66.75 93.68Q67.19 89.02 67.12 85.98L67.20 86.06L67.09 78.26L66.96 78.13Q66.85 73.04 65.94 63.68L65.96 63.70L66.02 63.76Q65.12 60.67 62.93 59.37L62.95 59.39L62.98 59.42Q60.30 55.07 51.52 54.81L51.43 54.72L51.48 54.77Q50.00 54.71 47.74 54.78L47.80 54.83L47.72 54.76Q40.04 54.89 39.20 60.19L39.12 60.11L39.26 60.25Q38.53 64.10 38.72 67.65L38.73 67.66L38.66 67.59Q39.34 75.12 39.28 80.80L39.26 80.78L39.27 80.80Q39.14 86.99 39.34 88.74L39.32 88.72L39.38 88.78Q40.10 94.09 42.69 95.45L42.55 95.31L42.70 95.47Q45.17 99.16 51.95 99.61L51.92 99.57L51.91 99.57Q57.89 99.87 58.99 99.80L59.19 100.00L59.03 99.84Q63.94 99.65 65.88 96.94L65.83 96.89L65.81 96.87Q66.62 95.68 66.75 93.67ZM52.20 90.82L52.26 90.88L52.21 90.83Q53.46 88.46 55.27 83.87L55.29 83.90L58.17 76.71L58.19 76.73Q58.15 79.52 57.50 85.20L57.35 85.05L57.31 85.01Q56.22 89.93 52.15 90.76ZM48.79 69.91L48.87 69.99L48.90 70.02Q49.69 67.00 50.85 66.03L50.75 65.92L50.86 66.03Q51.67 65.36 53.87 65.04L53.89 65.06L53.87 65.04Q50.88 71.16 47.72 79.04L47.76 79.08L47.82 79.14Q47.74 74.47 48.90 70.02Z"/><path d="M17 70 C169 7,158 106,330 64" stroke="#9145dd" fill="none"/><path d="M6 86 C171 35,186 13,333 21" stroke="#7dec99" fill="none"/><path d="M17 2 C180 39,152 108,333 109" stroke="#69e169" fill="none"/></svg>