<svg xmlns="http://www.w3.org/2000/svg" width="342" height="140" viewBox="0,0,342,140"><path d="M20 130 C155 107,171 79,327 80" stroke="#dd5499" fill="none"/><path d="M5 9 C159 5,182 5,337 118" stroke="#c877e3" fill="none"/><path d="M21 93 C162 107,166 54,336 6" stroke="#e95cc6" fill="none"/><path d="M10 16 C153 119,191 73,322 123" stroke="#4cdb93" fill="none"/><path d="M6 4 C190 124,187 30,329 53" stroke="#92e6e6" fill="none"/><path d="M17 33 C177 110,170 97,339 119" stroke="#7ae457" fill="none"/><path d="M13 78 C158 22,192 31,329 110" stroke="#aae896" fill="none"/><path d="M8 105 C164 10,166 24,330 94" stroke="#e584b5" fill="none"/><path d="M12 70 C185 89,162 71,328 67" stroke="#df80af" fill="none"/><path d="M16 44 C173 44,169 73,327 62" stroke="#5475d8" fill="none"/><path d="M3 112 C189 40,191 11,330 61" stroke="#6edddd" fill="none"/><path d="M10 110 C151 86,176 12,321 106" stroke="#c76ae5" fill="none"/><path d="M3 90 C152 97,156 125,326 131" stroke="#b5e386" fill="none"/><path d="M6 117 C154 99,164 87,334 4" stroke="#b442db" fill="none"/><path d="M8 21 C161 76,157 96,324 119" stroke="#9ee655" fill="none"/><path d="M8 98 C163 122,153 23,338 38" stroke="#ebba89" fill="none"/><path fill="#e593e5" d="M103.41 94.71L103.39 94.69L103.36 94.66Q101.03 94.71 98.52 94.03L98.58 94.10L98.51 94.02Q96.63 92.63 96.38 90.00L96.30 89.92L96.42 90.04Q96.31 89.69 96.62 85.46L96.60 85.45L96.65 85.50Q98.36 85.25 101.61 84.64L101.45 84.48L101.14 85.71L101.19 85.75Q100.76 88.57 103.03 89.49L103.10 89.56L103.15 89.61Q104.37 90.10 107.74 90.10L107.69 90.06L107.76 90.12Q110.32 89.87 110.62 89.74L110.57 89.69L110.49 89.61Q112.09 89.50 113.25 88.70L113.13 88.58L113.30 88.75Q115.41 87.06 115.10 83.70L115.26 83.85L115.21 83.81Q114.95 79.94 112.17 77.43L112.12 77.38L112.05 77.32Q109.26 74.80 105.29 74.80L105.39 74.90L105.37 74.52L105.39 74.54Q105.89 74.37 107.30 74.24L107.35 74.29L107.35 74.30Q110.43 74.13 112.63 72.14L112.64 72.16L112.61 72.12Q114.75 70.07 114.99 67.07L114.98 67.06L115.03 67.11Q115.15 66.56 115.15 66.01L115.23 66.08L115.16 66.02Q115.07 63.48 112.87 62.01L112.93 62.07L113.04 62.18Q111.10 60.92 108.53 61.10L108.37 60.94L108.41 60.98Q106.29 60.70 104.34 61.37L104.41 61.45L104.38 61.41Q102.17 62.38 101.68 64.22L101.61 64.15L101.58 64.12Q101.33 65.40 101.45 66.62L101.33 66.50L101.40 66.57Q99.71 66.16 96.40 65.00L96.44 65.04L96.43 65.03Q96.03 62.30 96.09 60.96L96.21 61.08L96.08 60.95Q96.33 58.56 98.04 57.46L98.05 57.47L97.99 57.41Q100.32 56.49 102.89 56.49L102.89 56.50L102.91 56.52Q107.99 56.46 113.07 56.89L112.97 56.79L113.10 56.92Q121.14 57.49 120.65 63.55L120.59 63.49L120.62 63.52Q120.46 65.87 119.67 68.38L119.67 68.38L119.68 68.40Q118.39 73.52 114.59 74.99L114.55 74.95L114.45 74.84Q118.78 75.82 119.76 81.20L119.80 81.23L119.63 81.07Q119.97 82.88 120.09 86.12L120.15 86.18L120.11 86.14Q120.50 93.44 113.09 94.17L113.07 94.15L112.97 94.04Q111.81 94.18 103.31 94.61ZM111.76 98.28L111.73 98.25L111.79 98.32Q112.68 98.29 117.27 98.41L117.27 98.41L117.39 98.53Q120.14 98.59 122.77 97.55L122.81 97.59L122.84 97.61Q124.75 96.10 124.45 93.29L124.25 93.09L124.30 93.14Q124.11 90.99 123.62 88.18L123.70 88.26L123.63 88.19Q122.59 81.10 119.47 78.46L119.39 78.38L119.01 77.69L119.12 77.75L118.93 77.55Q121.89 75.38 123.12 68.34L123.15 68.38L123.06 68.28Q123.15 67.58 123.33 66.05L123.27 65.98L123.23 65.94Q123.52 64.89 123.40 63.79L123.33 63.72L123.27 63.66Q123.01 60.96 120.93 59.85L120.95 59.87L120.90 59.94L120.82 59.87Q120.31 58.25 118.47 57.39L118.46 57.38L118.54 57.46Q116.00 56.27 107.74 55.78L107.77 55.81L107.73 55.77Q105.05 55.66 102.48 55.66L102.51 55.69L102.55 55.73Q99.98 55.73 97.54 56.77L97.48 56.72L97.52 56.75Q95.56 57.98 95.56 60.79L95.67 60.91L95.49 60.73Q95.63 60.19 96.06 65.57L96.02 65.53L96.07 65.58Q96.57 65.72 99.20 66.70L99.10 66.60L99.17 66.66Q99.06 67.41 99.00 68.21L99.06 68.27L99.12 68.33Q99.12 69.12 99.18 69.98L99.23 70.03L99.17 69.97Q101.92 70.46 105.16 70.64L105.29 70.77L105.31 70.78Q105.08 67.44 106.86 66.09L106.96 66.20L106.87 66.10Q108.18 65.03 111.43 64.67L111.59 64.84L111.45 64.69Q113.35 64.75 114.26 65.06L114.17 64.97L114.35 65.14Q114.34 65.25 114.40 65.44L114.28 65.32L114.46 65.80L114.65 66.73L114.55 66.63Q114.63 67.01 114.57 67.26L114.59 67.28L114.43 67.12Q114.33 69.89 111.88 71.79L111.92 71.83L111.88 71.79Q110.37 73.21 107.12 73.52L107.12 73.51L107.26 73.65Q106.12 73.93 104.72 73.93L104.73 73.94L104.73 73.94Q104.69 74.39 104.93 75.49L105.00 75.56L104.89 75.44Q107.71 75.46 110.04 76.62L110.16 76.74L109.85 76.62L107.38 76.95L107.36 76.94Q107.55 77.61 107.73 78.59L107.60 78.46L107.63 78.50Q111.12 78.43 113.87 80.57L113.91 80.61L113.84 80.54Q114.24 81.19 114.73 83.82L114.73 83.82L114.67 83.76Q114.99 88.48 110.28 89.16L110.34 89.22L110.19 89.07Q106.98 89.65 106.06 89.58L106.06 89.59L105.96 89.49Q105.26 89.33 104.40 89.21L104.39 89.20L104.41 88.49L104.53 87.69L104.55 87.04L104.66 86.60L104.76 86.70Q103.14 86.72 101.85 87.03L101.80 86.98L101.95 87.13Q101.84 86.71 101.84 86.41L101.74 86.30L101.73 86.30Q101.79 85.99 101.79 85.63L101.90 85.73L101.84 85.67Q102.03 85.13 102.27 83.96L102.17 83.86L102.11 83.80Q99.15 84.20 96.15 84.75L96.14 84.75L96.21 84.81Q96.24 85.64 96.06 87.45L95.99 87.38L96.04 87.43Q95.83 89.20 95.83 90.18L95.81 90.17L95.92 90.28Q96.01 93.55 98.21 94.77L98.17 94.73L98.11 94.67Q100.46 98.30 108.04 97.99L108.17 98.12L108.18 98.13Q109.25 97.98 111.70 98.22Z"/><path d="M19 94 C176 70,166 33,333 5" stroke="#5ea5ed" fill="none"/><path d="M21 55 C168 123,186 20,336 99" stroke="#55e1e1" fill="none"/><path fill="#e03cb7" d="M291.42 90.78L291.35 90.72L291.33 90.69Q291.93 92.39 292.78 95.63L292.66 95.51L292.73 95.58Q285.85 93.35 278.45 93.78L278.62 93.95L278.47 93.80Q271.26 94.36 264.84 97.54L264.85 97.56L264.79 97.50Q265.09 96.33 265.15 96.45L265.11 96.41L265.24 96.54Q271.13 90.07 277.43 82.97L277.41 82.95L277.42 82.96Q284.68 75.11 286.58 67.58L286.57 67.58L286.51 67.52Q287.25 64.71 285.20 62.81L285.14 62.75L285.11 62.72Q283.17 60.93 280.29 61.17L280.27 61.15L280.25 61.13Q279.65 61.03 279.10 61.03L279.06 60.98L279.18 61.11Q276.76 61.14 274.74 62.60L274.73 62.59L274.64 62.50Q272.50 64.64 272.87 68.92L273.00 69.06L273.02 69.08Q270.18 68.56 268.22 67.83L268.12 67.73L268.09 67.70Q267.81 65.46 267.68 63.13L267.80 63.25L267.69 63.13Q267.64 60.58 268.62 58.75L268.58 58.70L268.50 58.62Q271.50 56.54 276.88 56.54L276.81 56.47L279.60 56.44L279.71 56.55Q283.28 56.52 284.81 56.70L284.91 56.80L284.87 56.76Q291.74 57.33 292.17 61.24L292.19 61.27L292.30 61.38Q292.44 62.32 292.32 63.60L292.24 63.52L292.20 63.48Q292.26 64.64 292.02 65.74L291.98 65.70L291.90 65.63Q289.31 78.70 277.13 89.71L277.07 89.65L277.12 89.70Q279.46 89.53 281.67 89.53L281.66 89.53L281.55 89.41Q286.72 89.39 291.31 90.67ZM290.42 57.24L290.41 57.22L290.36 57.17Q287.85 56.19 285.10 56.07L285.11 56.08L279.62 55.80L279.73 55.90Q272.38 55.29 268.84 57.06L268.84 57.07L269.02 57.25Q267.17 59.31 267.17 62.62L267.13 62.58L267.17 62.62Q267.27 63.82 267.76 68.34L267.74 68.33L267.74 68.33Q268.69 68.78 270.58 69.27L270.49 69.17L270.50 70.84L270.54 70.88Q270.48 71.62 270.60 72.47L270.50 72.37L270.58 72.45Q272.68 72.72 276.66 73.08L276.66 73.09L276.63 73.06Q276.52 72.40 276.52 71.84L276.61 71.93L276.43 71.75Q276.46 68.85 278.42 66.68L278.54 66.80L278.37 66.63Q280.41 64.54 283.28 64.72L283.30 64.73L283.34 64.77Q284.59 64.86 285.81 65.11L285.77 65.06L285.79 65.08Q285.89 65.62 286.02 66.29L286.15 66.42L286.13 66.40Q286.03 66.91 285.91 67.46L286.03 67.59L286.03 67.59Q284.00 75.22 276.90 82.99L276.89 82.99L276.82 82.92Q273.44 86.57 264.69 96.30L264.75 96.36L264.66 96.26Q264.39 97.64 263.83 98.56L263.87 98.59L263.93 98.65Q266.47 97.22 268.92 96.37L268.85 96.30L268.87 96.31Q267.80 97.32 266.27 99.71L266.19 99.63L266.08 99.52Q265.95 100.13 265.77 100.68L265.89 100.80L265.71 100.62Q273.55 97.33 282.36 97.63L282.39 97.66L282.47 97.74Q291.61 98.01 298.96 101.81L298.81 101.66L297.24 98.25L297.32 98.34Q296.20 96.11 295.77 94.82L295.76 94.82L295.83 94.89Q294.73 94.27 292.77 93.60L292.81 93.64L292.68 93.51Q292.58 92.49 291.96 90.29L291.94 90.26L291.95 90.27Q288.31 89.26 284.64 88.95L284.59 88.91L284.59 88.90Q292.25 81.70 294.69 68.42L294.59 68.32L294.89 63.66L294.87 63.64Q294.80 60.81 292.84 59.71L292.79 59.66L292.88 59.82L292.84 59.77Q292.73 59.60 292.61 59.60L292.53 59.52L292.51 59.51Q292.33 58.35 290.56 57.37Z"/><path d="M11 108 C177 48,171 63,330 77" stroke="#5cc2e4" fill="none"/><path fill="#e0e056" d="M47.83 89.21L47.72 89.11L47.75 89.14Q49.53 90.54 51.79 90.30L51.95 90.46L51.88 90.39Q56.65 90.75 57.69 85.37L57.65 85.33L57.64 85.32Q58.59 80.21 58.59 74.76L58.60 74.77L58.65 70.67L58.69 70.70Q58.52 68.52 57.97 66.50L58.05 66.58L57.98 66.51Q56.13 70.35 52.94 77.99L52.96 78.00L52.95 78.00Q49.70 85.58 47.74 89.13ZM55.86 62.68L55.93 62.75L55.89 62.71Q53.92 61.29 51.78 61.29L51.80 61.31L51.85 61.36Q49.57 61.22 47.79 62.69L47.72 62.61L47.61 62.50Q46.00 64.13 45.69 66.52L45.58 66.41L45.63 66.46Q45.11 68.69 45.05 71.08L44.95 70.98L44.97 71.00Q44.97 71.00 44.97 75.59L45.01 75.63L44.95 75.57Q45.09 79.50 45.82 85.31L45.70 85.19L45.65 85.14Q48.77 77.55 55.81 62.63ZM58.26 92.80L58.30 92.84L58.33 92.87Q55.52 94.33 51.78 94.33L51.89 94.44L49.08 94.26L49.19 94.37Q44.00 94.38 42.16 91.62L42.21 91.67L42.04 91.50Q40.78 88.04 40.66 83.33L40.71 83.38L40.75 83.42Q40.72 80.63 40.59 75.07L40.48 74.95L40.51 74.98Q40.48 73.06 40.24 68.16L40.25 68.17L40.16 68.08Q40.07 64.45 40.56 61.26L40.58 61.29L40.51 61.21Q41.37 56.57 48.35 56.21L48.32 56.18L48.39 56.25Q49.62 56.19 51.76 56.25L51.65 56.14L51.64 56.14Q60.79 56.41 62.51 61.98L62.60 62.08L62.64 62.12Q63.57 65.12 63.50 68.12L63.59 68.20L63.54 68.15Q63.36 76.11 63.23 78.07L63.17 78.00L63.19 78.02Q62.99 84.25 62.50 86.33L62.53 86.36L62.50 86.33Q61.39 91.28 58.33 92.87ZM66.25 92.47L66.23 92.44L66.24 92.45Q66.68 88.06 66.62 85.18L66.67 85.23L66.48 77.77L66.57 77.86Q66.29 72.87 65.44 63.99L65.54 64.10L65.43 63.99Q64.75 61.22 62.67 60.00L62.56 59.90L62.63 59.96Q59.97 55.71 51.64 55.46L51.68 55.50L51.83 55.65Q50.40 55.56 48.26 55.62L48.17 55.54L48.22 55.59Q40.95 55.72 40.16 60.74L40.21 60.79L40.09 60.67Q39.45 64.38 39.63 67.74L39.72 67.82L39.61 67.72Q40.24 74.83 40.18 80.22L40.10 80.14L40.22 80.26Q40.20 86.24 40.39 87.89L40.22 87.72L40.22 87.72Q41.00 92.85 43.44 94.13L43.44 94.13L43.32 94.01Q45.83 97.68 52.25 98.11L52.25 98.10L52.22 98.07Q57.97 98.44 59.01 98.38L59.03 98.39L58.87 98.24Q63.56 98.10 65.40 95.53L65.34 95.47L65.33 95.46Q66.20 94.43 66.32 92.53ZM52.50 89.79L52.46 89.75L52.52 89.81Q53.49 87.35 55.21 83.01L55.28 83.09L57.99 76.25L57.95 76.21Q58.07 79.02 57.46 84.40L57.36 84.31L57.40 84.34Q56.31 88.95 52.46 89.74ZM49.38 70.09L49.39 70.10L49.34 70.04Q50.02 67.11 51.12 66.20L51.11 66.18L51.12 66.20Q51.86 65.53 53.95 65.23L54.04 65.32L53.94 65.22Q51.25 71.16 48.25 78.62L48.24 78.62L48.23 78.60Q48.16 74.19 49.26 69.97Z"/><path d="M2 48 C191 14,151 55,333 83" stroke="#e27d96" fill="none"/><path fill="#e697bf" d="M165.40 76.81L165.41 76.82L165.39 76.80Q162.36 76.77 160.40 78.91L160.37 78.87L160.36 78.87Q158.46 81.07 158.22 84.13L158.22 84.13L158.15 84.06Q157.78 87.42 159.74 89.05L159.80 89.11L159.84 89.15Q161.77 90.74 165.20 90.62L165.22 90.64L165.22 90.64Q168.86 90.30 170.39 88.77L170.47 88.85L170.39 88.78Q172.03 86.44 171.85 83.50L171.90 83.56L171.97 83.62Q171.77 80.61 170.03 78.68L170.04 78.70L170.06 78.71Q168.18 76.66 165.25 76.66ZM165.18 61.48L165.22 61.52L165.32 61.61Q163.00 61.38 160.86 62.17L160.94 62.26L160.76 62.07Q158.70 63.38 159.07 66.38L159.04 66.35L159.10 66.41Q159.90 72.42 165.29 72.42L165.34 72.47L165.33 72.45Q167.73 72.66 169.32 70.82L169.45 70.95L169.36 70.86Q171.02 69.09 171.08 66.59L171.10 66.60L171.10 66.60Q171.29 63.86 170.13 62.88L170.07 62.82L170.09 62.84Q167.27 61.37 165.19 61.49ZM164.76 94.53L164.86 94.63L159.89 94.55L159.89 94.55Q157.57 94.68 155.43 93.27L155.43 93.27L155.26 93.10Q153.18 91.39 153.43 86.80L153.30 86.68L153.29 86.67Q154.22 75.85 160.04 74.26L159.86 74.09L160.00 74.22Q156.27 72.70 154.13 64.07L154.06 64.00L154.15 64.09Q153.65 61.88 153.77 60.59L153.64 60.46L153.60 60.42Q154.24 57.15 160.18 57.09L160.04 56.95L160.11 57.02Q166.93 56.93 169.26 57.24L169.25 57.23L169.15 57.13Q175.39 58.04 176.12 61.28L176.08 61.24L176.09 61.26Q176.28 62.24 176.28 62.86L176.37 62.94L176.27 62.84Q176.41 64.08 176.11 65.06L176.06 65.01L176.11 65.07Q175.02 71.75 170.31 74.20L170.41 74.30L170.37 74.26Q175.89 75.43 176.69 83.94L176.80 84.05L176.75 84.00Q176.80 84.30 176.86 86.38L176.86 86.37L176.88 86.40Q176.95 90.75 174.38 92.46L174.32 92.40L174.44 92.52Q172.10 93.79 164.76 94.52ZM168.58 98.41L168.47 98.29L173.88 98.44L173.83 98.40Q176.66 98.59 179.11 97.43L179.14 97.47L179.01 97.33Q180.83 96.15 180.95 93.15L181.05 93.25L181.13 93.34Q181.08 91.45 180.47 88.33L180.52 88.38L180.54 88.40Q178.93 80.80 175.56 77.80L175.68 77.92L175.40 77.32L175.08 76.88L174.72 76.34L174.78 76.40Q177.34 74.13 178.81 67.46L178.85 67.50L178.99 67.64Q178.80 66.84 178.92 65.50L179.04 65.61L179.07 65.64Q179.20 64.55 179.08 63.57L179.12 63.61L179.05 63.54Q178.68 61.09 176.78 60.30L176.89 60.40L176.96 60.41L176.69 60.26L176.68 60.25Q176.18 59.02 174.29 57.74L174.31 57.76L174.38 57.77L174.29 57.67Q171.28 56.75 164.74 56.44L164.64 56.35L164.65 56.36Q162.11 56.15 159.91 56.33L159.99 56.41L159.89 56.31Q158.61 56.38 156.53 56.62L156.67 56.76L156.54 56.63Q153.54 57.37 153.18 60.00L152.99 59.81L153.13 59.95Q152.95 60.63 153.01 61.92L153.18 62.08L153.10 62.00Q153.33 62.91 154.25 66.70L154.18 66.63L154.17 66.62Q155.51 71.88 158.33 74.02L158.30 74.00L158.36 74.05L158.41 74.10Q153.92 76.16 153.06 84.48L153.08 84.50L153.12 84.53Q152.85 88.12 152.85 89.59L152.73 89.47L152.83 89.57Q152.81 92.30 154.71 93.77L154.74 93.81L154.86 93.92Q154.90 93.90 155.33 94.21L155.49 94.37L155.51 94.39Q156.98 97.88 168.42 98.25ZM168.01 80.58L168.04 80.61L167.85 80.43Q169.50 80.49 170.91 81.22L170.87 81.18L170.76 81.06Q171.47 82.75 171.40 83.61L171.34 83.55L171.41 83.61Q171.34 83.98 171.34 84.47L171.54 84.66L171.50 84.62Q171.48 88.40 167.81 89.75L167.67 89.61L167.79 89.72Q166.58 90.29 165.29 90.10L165.15 89.96L165.23 90.04Q163.37 90.14 161.54 89.41L161.66 89.53L161.54 89.41Q161.26 88.51 161.38 86.92L161.28 86.82L161.37 86.91Q161.51 84.24 163.44 82.28L163.44 82.29L163.54 82.38Q165.41 80.37 167.98 80.56ZM168.31 65.28L168.34 65.32L168.22 65.20Q169.65 65.15 170.50 65.40L170.38 65.27L170.55 66.72L170.56 66.73Q170.45 68.89 168.98 70.51L168.95 70.48L168.92 70.45Q167.51 72.13 165.31 71.83L165.35 71.87L165.32 71.83Q163.82 71.92 163.15 71.56L162.99 71.41L162.97 71.38Q163.05 71.10 162.87 70.00L162.89 70.02L162.75 69.88Q162.43 67.72 164.38 66.37L164.31 66.29L164.29 66.28Q166.05 65.23 168.32 65.29Z"/><path d="M16 128 C159 96,154 26,340 27" stroke="#7fe0e0" fill="none"/><path d="M12 120 C191 107,152 8,340 102" stroke="#9070ef" fill="none"/><path d="M12 47 C162 37,168 29,337 91" stroke="#dfdf5c" fill="none"/><path d="M5 121 C165 67,184 119,327 113" stroke="#4848e4" fill="none"/><path d="M2 52 C157 27,170 18,326 81" stroke="#c87ee1" fill="none"/><path d="M16 128 C158 19,175 89,338 44" stroke="#88e6b7" fill="none"/><path d="M13 34 C174 134,187 100,334 46" stroke="#79ebce" fill="none"/><path d="M18 119 C162 56,163 55,337 21" stroke="#b744de" fill="none"/><path d="M8 47 C155 97,161 28,326 59" stroke="#ec997d" fill="none"/><path d="M11 123 C160 135,190 71,323 24" stroke="#b24ed4" fill="none"/><path d="M17 127 C177 87,159 18,337 33" stroke="#7954e7" fill="none"/><path d="M17 68 C150 138,152 116,335 127" stroke="#e13b3b" fill="none"/><path d="M13 135 C188 16,159 93,340 75" stroke="#b786e8" fill="none"/><path d="M2 39 C162 100,175 8,327 72" stroke="#e5e561" fill="none"/><path d="M4 38 C180 29,160 62,336 8" stroke="#97e17e" fill="none"/><path d="M6 44 C154 58,189 57,334 108" stroke="#96dd4f" fill="none"/><path d="M8 103 C184 35,179 66,328 123" stroke="#5274da" fill="none"/><path d="M7 126 C156 106,167 20,328 70" stroke="#7ce8e8" fill="none"/><path d="M8 10 C177 27,169 112,324 67" stroke="#b57feb" fill="none"/><path fill="#82ed82" d="M215.70 82.81L215.61 82.71L215.63 82.73Q220.72 82.26 225.86 82.44L225.69 82.27L225.71 82.29Q225.65 78.19 225.65 74.34L225.68 74.37L225.79 74.47Q225.71 70.42 226.02 66.32L225.98 66.28L225.99 66.29Q224.11 69.13 215.73 82.84ZM231.64 94.64L231.57 94.58L231.53 94.53Q228.87 94.08 225.99 93.95L225.98 93.94L225.94 93.90Q225.71 90.18 225.53 86.20L225.43 86.11L225.55 86.22Q217.05 85.98 209.46 88.25L209.28 88.07L209.34 88.13Q209.63 87.44 209.94 85.85L209.83 85.74L209.83 85.74Q212.72 80.68 218.47 70.59L218.45 70.57L218.58 70.69Q223.16 62.80 228.67 56.55L228.56 56.44L228.65 56.53Q229.99 56.16 232.68 55.73L232.66 55.71L232.77 55.83Q229.71 66.16 229.71 77.48L229.69 77.46L229.79 77.56Q229.66 79.81 229.78 82.20L229.83 82.25L231.96 82.49L231.97 82.49Q232.97 82.58 233.95 82.76L233.90 82.71L233.76 82.57Q234.06 84.28 234.49 87.40L234.37 87.28L234.38 87.29Q232.60 87.04 230.22 86.74L230.13 86.65L230.05 86.56Q230.47 89.87 231.58 94.58ZM234.31 82.08L234.36 82.13L234.29 82.06Q233.96 81.91 233.65 81.91L233.69 81.95L233.10 81.97L232.97 81.84Q232.82 79.49 232.82 77.22L232.78 77.19L232.87 77.27Q232.92 67.04 236.22 57.38L236.27 57.42L236.24 57.39Q234.88 57.69 232.55 58.30L232.62 58.37L232.71 58.45Q232.94 57.09 233.67 54.83L233.81 54.97L233.65 54.80Q231.56 55.41 228.26 55.77L228.32 55.84L228.32 55.83Q222.06 62.85 213.68 77.90L213.74 77.96L217.07 72.06L216.94 71.93Q216.34 73.65 215.91 74.57L215.89 74.55L208.78 89.10L208.74 89.06Q209.84 88.87 211.67 88.26L211.63 88.22L211.44 88.64L211.40 88.59Q211.13 89.61 210.64 91.63L210.63 91.63L210.70 91.69Q217.27 89.51 225.04 89.82L225.18 89.96L225.12 89.90Q225.07 91.32 225.38 94.50L225.47 94.59L225.46 94.58Q227.09 94.50 228.80 94.68L228.82 94.70L228.94 94.82Q229.07 95.80 229.49 98.00L229.56 98.07L229.48 97.99Q232.59 98.41 237.43 99.88L237.42 99.87L237.50 99.95Q235.84 96.45 234.37 91.19L234.33 91.16L236.71 91.94L236.82 92.06Q237.78 92.28 238.88 92.83L238.96 92.91L238.99 92.94Q237.61 88.81 237.37 86.12L237.33 86.08L237.40 86.15Q236.39 85.81 234.56 85.45L234.62 85.51L234.69 85.58Q234.21 83.39 234.21 81.98ZM221.34 81.71L221.51 81.89L221.51 81.88Q222.65 79.72 225.16 75.62L225.21 75.67L225.12 75.58Q225.07 77.06 225.01 78.59L225.03 78.61L225.18 78.76Q225.12 80.29 225.18 81.82L225.26 81.90L225.07 81.71Q224.27 81.76 223.35 81.76L223.25 81.66L223.31 81.73Q222.40 81.79 221.42 81.79Z"/><path d="M4 104 C159 81,182 117,331 109" stroke="#98e77d" fill="none"/></svg>