<svg xmlns="http://www.w3.org/2000/svg" width="342" height="140" viewBox="0,0,342,140"><path d="M17 66 C168 25,161 89,331 127" stroke="#e17ec8" fill="none"/><path d="M15 81 C185 77,185 14,337 133" stroke="#eaad70" fill="none"/><path d="M5 99 C176 106,170 68,331 80" stroke="#e08f74" fill="none"/><path d="M3 123 C158 10,181 136,323 134" stroke="#4be6bf" fill="none"/><path d="M14 132 C188 39,182 28,339 34" stroke="#e8a38c" fill="none"/><path d="M2 90 C186 40,154 84,338 23" stroke="#91dd45" fill="none"/><path d="M3 4 C189 87,185 14,322 69" stroke="#e7c14f" fill="none"/><path d="M12 37 C162 89,155 74,337 121" stroke="#7be996" fill="none"/><path d="M5 35 C177 73,169 63,337 56" stroke="#44e393" fill="none"/><path d="M14 123 C182 109,190 126,337 74" stroke="#e2a569" fill="none"/><path d="M8 70 C175 22,161 72,325 15" stroke="#dede62" fill="none"/><path d="M8 115 C153 24,189 103,329 102" stroke="#bc52df" fill="none"/><path d="M8 111 C162 64,174 137,332 91" stroke="#74dca8" fill="none"/><path fill="#e791e7" d="M221.71 60.65L221.66 60.59L218.84 60.71L218.95 60.82Q214.96 60.96 214.56 64.49L214.62 64.55L214.69 64.62Q214.40 65.73 214.47 67.46L214.52 67.52L214.55 67.54Q214.54 70.87 216.74 73.20L216.72 73.18L216.85 73.31Q219.02 75.61 222.35 75.35L222.37 75.36L222.26 75.25Q226.00 75.13 227.33 73.53L227.17 73.37L227.30 73.50Q229.21 71.94 229.68 68.01L229.55 67.89L229.66 68.00Q230.11 64.05 227.91 62.58L227.84 62.51L227.93 62.61Q226.25 61.06 221.59 60.53ZM232.29 76.82L232.22 76.76L230.07 80.87L229.95 80.75Q225.19 89.11 218.60 96.24L218.66 96.30L218.76 96.40Q215.84 96.62 211.11 98.02L211.01 97.91L211.00 97.91Q220.44 87.03 225.97 78.63L225.93 78.59L225.87 78.53Q224.21 79.80 221.34 79.93L221.20 79.79L221.32 79.91Q216.10 80.22 213.44 76.76L213.33 76.65L213.27 76.59Q211.26 73.91 209.33 65.92L209.20 65.79L209.32 65.91Q209.35 65.14 209.08 63.50L208.95 63.38L208.92 63.35Q208.77 61.83 208.77 61.03L208.66 60.92L208.68 60.94Q208.80 57.93 210.66 56.86L210.66 56.85L210.65 56.84Q212.82 55.56 216.09 55.56L216.02 55.49L216.06 55.52Q221.64 55.51 221.64 55.51L221.65 55.53L221.58 55.45Q225.40 55.54 227.60 55.87L227.65 55.93L227.51 55.79Q231.26 56.27 232.86 57.14L232.83 57.11L232.96 57.24Q235.38 58.59 235.71 61.65L235.70 61.65L235.73 61.68Q235.64 61.98 235.30 66.65L235.37 66.71L235.24 66.58Q234.71 70.45 234.31 71.92L234.30 71.91L234.16 71.77Q233.51 74.24 232.18 76.71ZM235.62 81.02L235.51 80.91L235.53 80.93Q237.24 77.04 238.17 69.52L238.25 69.59L238.31 69.65Q238.79 65.80 238.72 64.27L238.71 64.26L238.67 64.22Q238.55 60.90 236.49 59.30L236.54 59.35L235.90 59.05L236.02 59.17Q235.46 57.74 233.86 56.61L233.94 56.69L233.94 56.69Q230.02 55.03 221.63 54.77L221.54 54.68L221.45 54.59Q219.91 54.72 215.65 54.72L215.60 54.67L215.63 54.70Q212.59 54.72 209.99 55.92L209.91 55.84L209.84 55.78Q207.85 57.18 207.99 60.38L208.16 60.55L208.06 60.45Q208.37 62.03 208.70 65.56L208.79 65.64L208.73 65.58Q209.87 70.25 210.33 71.72L210.35 71.74L210.21 71.59Q211.30 74.96 212.97 77.22L212.86 77.12L212.91 77.17Q213.48 77.86 214.15 78.53L214.02 78.41L214.14 78.52Q214.48 79.20 215.61 80.79L215.63 80.81L215.65 80.84Q218.36 83.34 221.76 83.68L221.68 83.60L221.73 83.65Q218.35 88.26 215.62 91.59L215.55 91.52L209.34 99.31L209.33 99.30Q213.13 97.83 215.99 97.23L216.13 97.37L216.06 97.30Q214.70 98.80 211.97 101.80L211.95 101.78L211.93 101.76Q217.43 100.27 222.89 100.20L222.90 100.21L222.79 100.10Q226.90 95.62 234.50 82.96L234.45 82.91L234.59 83.19L234.55 83.15Q234.97 81.84 235.57 80.97ZM225.03 64.77L225.07 64.80L224.99 64.73Q226.22 64.69 227.02 64.89L226.93 64.80L227.00 64.87Q228.14 65.08 228.81 65.28L228.80 65.27L228.73 65.20Q228.98 65.92 229.11 66.65L229.01 66.55L229.09 66.63Q229.23 67.37 229.03 68.04L229.05 68.05L229.08 68.08Q228.94 71.00 226.87 72.94L226.86 72.93L226.80 72.86Q225.27 74.80 222.41 74.74L222.32 74.65L222.30 74.62Q221.68 74.74 219.01 74.20L218.91 74.10L218.99 74.18Q218.49 72.55 218.49 71.28L218.57 71.36L218.47 71.26Q218.48 70.94 218.48 70.54L218.42 70.48L218.46 70.52Q218.46 66.66 222.46 65.26L222.40 65.20L222.34 65.14Q223.58 64.78 225.05 64.78Z"/><path d="M4 41 C186 54,170 88,326 80" stroke="#4040dd" fill="none"/><path d="M13 120 C177 1,162 7,338 57" stroke="#6d43e9" fill="none"/><path d="M7 63 C154 44,168 20,324 61" stroke="#84e5cd" fill="none"/><path d="M3 107 C154 129,162 44,333 6" stroke="#934fd8" fill="none"/><path d="M10 34 C182 54,175 50,326 71" stroke="#e791e7" fill="none"/><path d="M6 130 C158 7,184 111,337 108" stroke="#43d4b0" fill="none"/><path d="M16 118 C185 50,159 99,334 66" stroke="#da5cda" fill="none"/><path fill="#5ee880" d="M292.10 92.59L292.02 92.51L292.00 92.49Q292.63 94.32 293.56 97.85L293.52 97.81L293.56 97.85Q286.24 95.59 278.18 96.06L278.03 95.91L278.18 96.06Q270.01 96.35 263.02 99.81L263.10 99.90L263.05 99.85Q263.59 98.79 263.65 98.92L263.66 98.93L263.53 98.79Q270.07 91.88 276.93 84.15L276.94 84.16L276.96 84.18Q284.76 75.53 286.83 67.33L286.69 67.19L286.86 67.37Q287.66 64.30 285.43 62.24L285.42 62.22L285.33 62.14Q283.04 60.01 279.91 60.28L279.99 60.36L279.88 60.25Q279.39 60.30 278.79 60.30L278.77 60.28L278.71 60.21Q276.02 60.19 273.82 61.79L273.81 61.77L273.94 61.91Q271.67 64.30 272.07 68.96L271.96 68.85L272.10 68.99Q269.00 68.43 266.87 67.63L266.68 67.44L266.68 67.44Q266.45 65.07 266.32 62.54L266.40 62.63L266.31 62.54Q266.12 59.61 267.18 57.61L267.32 57.75L267.34 57.77Q270.46 55.36 276.33 55.36L276.21 55.24L279.24 55.21L279.21 55.19Q283.36 55.41 285.03 55.61L284.92 55.49L285.06 55.64Q292.46 56.18 292.93 60.44L292.93 60.45L293.01 60.53Q293.15 61.53 293.02 62.93L293.08 62.99L293.06 62.97Q292.90 64.01 292.63 65.21L292.66 65.23L292.73 65.30Q289.77 79.40 276.52 91.40L276.63 91.51L276.59 91.47Q279.08 91.23 281.48 91.23L281.36 91.11L281.37 91.12Q287.09 91.18 292.09 92.58ZM291.17 56.22L291.10 56.15L291.03 56.07Q288.34 55.06 285.35 54.92L285.37 54.95L279.25 54.49L279.36 54.60Q271.47 54.04 267.61 55.98L267.57 55.93L267.73 56.10Q265.85 58.48 265.85 62.08L265.81 62.04L265.68 61.91Q265.88 63.30 266.41 68.23L266.46 68.28L266.39 68.21Q267.39 68.68 269.45 69.21L269.41 69.17L269.33 70.89L269.41 70.96Q269.22 71.64 269.35 72.57L269.37 72.59L269.40 72.63Q271.56 72.79 275.89 73.19L276.05 73.34L275.96 73.26Q275.85 72.55 275.85 71.95L275.91 72.01L275.94 72.03Q275.88 68.77 278.01 66.41L277.96 66.36L278.07 66.46Q280.13 64.03 283.26 64.23L283.27 64.24L283.36 64.33Q284.71 64.41 286.04 64.68L285.99 64.63L286.05 64.69Q286.07 65.18 286.21 65.91L286.26 65.97L286.20 65.90Q286.44 66.81 286.31 67.41L286.19 67.30L286.15 67.26Q284.06 75.69 276.33 84.15L276.22 84.04L276.30 84.12Q272.63 88.11 263.11 98.71L263.14 98.74L262.99 98.59Q262.68 100.08 262.08 101.08L262.11 101.11L262.17 101.16Q264.99 99.65 267.65 98.72L267.50 98.57L267.55 98.62Q266.25 99.59 264.59 102.19L264.55 102.15L264.64 102.24Q264.48 102.88 264.28 103.47L264.21 103.41L264.32 103.52Q272.77 99.84 282.37 100.18L282.35 100.16L282.35 100.17Q292.34 100.49 300.33 104.62L300.25 104.54L298.55 100.84L298.56 100.85Q297.37 98.46 296.90 97.06L296.96 97.11L296.98 97.13Q295.73 96.42 293.59 95.68L293.52 95.61L293.61 95.70Q293.33 94.42 292.66 92.02L292.55 91.91L292.73 92.08Q288.69 90.91 284.69 90.58L284.71 90.59L284.75 90.64Q292.98 82.67 295.64 68.22L295.68 68.26L295.87 63.05L295.87 63.05Q295.74 59.93 293.61 58.73L293.68 58.79L293.57 58.75L293.53 58.71Q293.64 58.76 293.51 58.76L293.36 58.61L293.48 58.73Q293.11 57.29 291.18 56.23Z"/><path d="M13 7 C182 33,153 90,338 67" stroke="#9e87e2" fill="none"/><path d="M14 45 C187 95,150 135,339 123" stroke="#d6d646" fill="none"/><path d="M18 32 C168 64,182 42,324 77" stroke="#46bae1" fill="none"/><path d="M10 94 C156 37,173 100,337 53" stroke="#64a8eb" fill="none"/><path d="M8 42 C158 31,185 116,332 110" stroke="#486fe4" fill="none"/><path d="M17 60 C169 54,178 1,340 76" stroke="#3763e6" fill="none"/><path d="M2 6 C185 47,156 47,341 11" stroke="#e7e769" fill="none"/><path d="M19 73 C186 135,183 76,324 15" stroke="#5398de" fill="none"/><path d="M21 82 C188 11,159 108,340 139" stroke="#e8e87c" fill="none"/><path d="M19 126 C190 127,172 17,326 17" stroke="#ec8d6e" fill="none"/><path fill="#eb8eeb" d="M46.94 90.82L46.89 90.77L47.06 90.94Q48.92 92.39 51.38 92.13L51.43 92.18L51.54 92.28Q56.51 92.46 57.65 86.60L57.63 86.58L57.79 86.75Q58.70 81.06 58.70 75.13L58.85 75.28L58.79 70.69L58.75 70.65Q58.82 68.52 58.22 66.32L58.16 66.26L58.11 66.21Q56.05 70.35 52.59 78.68L52.63 78.73L52.49 78.58Q49.10 86.98 46.97 90.85ZM55.70 61.93L55.85 62.09L55.82 62.05Q53.71 60.54 51.37 60.54L51.41 60.58L51.48 60.65Q48.78 60.28 46.85 61.88L46.94 61.97L46.87 61.91Q44.89 63.45 44.56 66.05L44.70 66.20L44.72 66.22Q44.10 68.59 44.03 71.19L43.89 71.04L43.90 71.06Q43.95 71.10 43.95 76.10L43.92 76.07L44.00 76.16Q44.02 80.31 44.82 86.64L44.84 86.66L44.69 86.51Q48.10 78.26 55.76 62.00ZM58.45 94.87L58.49 94.91L58.52 94.94Q55.53 96.61 51.46 96.61L51.45 96.59L48.50 96.51L48.59 96.60Q42.88 96.55 40.88 93.55L40.87 93.55L40.76 93.43Q39.45 89.73 39.32 84.60L39.39 84.67L39.25 84.52Q39.23 81.51 39.09 75.44L39.08 75.43L39.16 75.51Q39.10 73.39 38.83 68.06L38.84 68.06L38.79 68.01Q38.62 63.97 39.15 60.51L39.17 60.53L39.12 60.48Q40.14 55.50 47.73 55.10L47.59 54.96L47.58 54.95Q48.94 54.91 51.27 54.97L51.27 54.98L51.39 55.10Q61.17 55.21 63.03 61.28L63.15 61.39L63.13 61.37Q64.12 64.63 64.05 67.89L64.02 67.86L64.00 67.83Q63.86 76.56 63.73 78.69L63.92 78.88L63.77 78.74Q63.53 85.49 63.00 87.76L63.03 87.79L62.86 87.62Q61.84 93.19 58.51 94.92ZM67.12 94.47L67.12 94.48L67.13 94.49Q67.61 89.71 67.55 86.58L67.52 86.55L67.45 78.55L67.38 78.48Q67.26 73.23 66.33 63.57L66.32 63.56L66.31 63.56Q65.43 60.41 63.16 59.07L63.09 59.00L63.05 58.96Q60.45 54.63 51.39 54.36L51.28 54.25L51.39 54.36Q49.77 54.20 47.43 54.27L47.54 54.37L47.42 54.26Q39.52 54.42 38.65 59.88L38.64 59.87L38.59 59.82Q38.07 64.02 38.27 67.69L38.27 67.70L38.11 67.53Q38.71 75.20 38.65 81.06L38.63 81.04L38.66 81.07Q38.58 87.52 38.78 89.32L38.75 89.29L38.91 89.46Q39.55 94.83 42.22 96.22L42.21 96.21L42.09 96.09Q44.80 100.07 51.79 100.53L51.74 100.48L51.75 100.49Q58.06 100.94 59.19 100.87L59.08 100.76L59.20 100.88Q64.25 100.67 66.25 97.87L66.06 97.69L66.19 97.81Q67.07 96.63 67.20 94.56ZM52.05 91.47L52.12 91.53L52.05 91.47Q53.23 88.91 55.09 84.18L55.21 84.30L58.15 76.85L58.09 76.78Q58.13 79.76 57.47 85.63L57.42 85.57L57.40 85.56Q56.21 90.56 52.01 91.42ZM48.63 69.99L48.60 69.96L48.66 70.02Q49.38 66.81 50.58 65.81L50.57 65.80L50.67 65.91Q51.47 65.17 53.73 64.84L53.80 64.90L53.60 64.71Q50.69 71.18 47.42 79.31L47.45 79.34L47.39 79.27Q47.54 74.70 48.74 70.10Z"/><path d="M9 13 C156 18,168 136,340 42" stroke="#bf91ed" fill="none"/><path d="M8 32 C165 47,167 74,332 118" stroke="#41d666" fill="none"/><path d="M20 124 C174 56,182 42,328 59" stroke="#8fe98f" fill="none"/><path d="M13 125 C167 50,162 87,328 2" stroke="#38e58e" fill="none"/><path d="M15 76 C188 114,171 139,323 51" stroke="#73cdec" fill="none"/><path fill="#e2e263" d="M101.33 83.88L101.40 83.95L101.29 83.84Q106.79 83.28 112.39 83.48L112.36 83.45L112.27 83.36Q112.32 79.01 112.32 74.81L112.35 74.85L112.28 74.78Q112.31 70.48 112.65 66.01L112.59 65.96L112.63 66.00Q110.55 69.05 101.42 83.97ZM118.68 96.76L118.68 96.76L118.66 96.75Q115.82 96.30 112.69 96.17L112.59 96.08L112.59 96.07Q112.20 91.89 112.00 87.56L112.03 87.59L112.01 87.57Q102.84 87.39 94.58 89.85L94.57 89.85L94.58 89.85Q94.64 88.85 94.98 87.12L95.04 87.18L95.01 87.15Q98.22 81.70 104.48 70.71L104.43 70.66L104.38 70.60Q109.48 62.11 115.47 55.32L115.46 55.30L115.46 55.31Q117.01 54.99 119.94 54.52L119.88 54.46L119.86 54.44Q116.55 65.73 116.55 78.05L116.65 78.14L116.64 78.14Q116.70 80.80 116.84 83.40L116.75 83.31L119.00 83.49L118.96 83.45Q120.08 83.57 121.14 83.77L121.20 83.83L121.16 83.79Q121.44 85.60 121.91 89.00L121.90 88.99L121.83 88.92Q119.75 88.51 117.15 88.17L117.06 88.08L117.06 88.09Q117.57 91.73 118.77 96.86ZM121.53 83.03L121.62 83.12L121.53 83.03Q121.35 83.04 121.01 83.04L120.88 82.91L120.27 82.96L120.37 83.06Q120.03 80.32 120.03 77.86L120.06 77.89L120.15 77.99Q120.08 66.72 123.68 56.20L123.67 56.19L123.71 56.22Q122.43 56.75 119.90 57.42L119.88 57.40L119.82 57.33Q120.13 55.91 120.93 53.45L121.01 53.52L121.10 53.61Q118.73 54.17 115.13 54.57L115.09 54.54L115.20 54.65Q108.36 62.26 99.23 78.65L99.14 78.56L102.81 72.16L102.88 72.24Q102.13 74.02 101.66 75.02L101.60 74.95L93.94 90.88L93.83 90.77Q95.04 90.58 97.04 89.91L96.97 89.84L96.63 90.17L96.68 90.22Q96.49 91.43 95.95 93.62L95.99 93.67L95.96 93.63Q103.21 91.36 111.67 91.69L111.68 91.70L111.61 91.63Q111.64 93.26 111.97 96.72L111.97 96.72L112.10 96.84Q113.89 96.77 115.76 96.97L115.81 97.03L115.67 96.89Q115.98 98.13 116.44 100.53L116.43 100.51L116.43 100.51Q119.84 100.99 125.10 102.59L125.01 102.50L125.09 102.58Q123.37 98.86 121.77 93.13L121.75 93.11L124.35 93.97L124.22 93.84Q125.48 94.31 126.68 94.91L126.77 95.00L126.66 94.89Q125.32 90.55 125.05 87.61L125.06 87.63L125.05 87.61Q124.02 87.31 122.02 86.91L121.99 86.89L122.07 86.97Q121.68 84.71 121.68 83.18ZM107.62 82.84L107.68 82.90L107.68 82.90Q109.04 80.66 111.77 76.20L111.65 76.08L111.66 76.09Q111.69 77.78 111.62 79.45L111.72 79.55L111.62 79.44Q111.68 81.24 111.75 82.90L111.62 82.78L111.73 82.89Q110.66 82.75 109.66 82.75L109.65 82.74L109.70 82.79Q108.70 82.85 107.63 82.85Z"/><path d="M2 137 C150 16,184 88,335 126" stroke="#3a63dd" fill="none"/><path d="M10 64 C159 58,180 116,334 95" stroke="#b1d449" fill="none"/><path d="M15 48 C160 67,174 7,331 120" stroke="#84ea84" fill="none"/><path fill="#afeb74" d="M157.99 83.87L158.09 83.98L157.95 83.84Q163.37 83.19 168.96 83.39L169.01 83.43L169.05 83.47Q168.97 78.99 168.97 74.80L169.01 74.84L168.97 74.80Q169.02 70.52 169.35 66.05L169.30 66.00L169.26 65.97Q167.25 69.08 158.12 84.00ZM175.36 96.78L175.39 96.81L175.31 96.73Q172.44 96.26 169.31 96.12L169.34 96.15L169.29 96.10Q169.01 92.03 168.81 87.70L168.81 87.69L168.78 87.66Q159.47 87.35 151.21 89.82L151.20 89.81L151.19 89.80Q151.47 89.01 151.81 87.28L151.73 87.20L151.70 87.18Q154.94 81.75 161.20 70.76L161.13 70.69L161.07 70.63Q166.09 62.06 172.09 55.27L172.12 55.30L172.26 55.44Q173.76 55.07 176.69 54.61L176.70 54.61L176.66 54.58Q173.21 65.71 173.21 78.04L173.25 78.08L173.35 78.18Q173.28 80.71 173.41 83.31L173.42 83.31L175.64 83.47L175.64 83.47Q176.66 83.49 177.73 83.69L177.78 83.74L177.76 83.72Q177.99 85.48 178.45 88.88L178.54 88.97L178.56 88.99Q176.27 88.36 173.67 88.02L173.75 88.11L173.77 88.12Q174.13 91.62 175.33 96.75ZM178.25 83.08L178.31 83.14L178.23 83.06Q178.01 83.03 177.67 83.03L177.65 83.01L176.90 82.93L176.90 82.93Q176.82 80.45 176.82 77.98L176.80 77.96L176.72 77.88Q176.81 66.78 180.41 56.26L180.30 56.15L180.27 56.12Q179.11 56.76 176.58 57.43L176.58 57.43L176.48 57.33Q176.95 56.06 177.75 53.60L177.79 53.64L177.73 53.58Q175.42 54.20 171.82 54.60L171.81 54.59L171.85 54.63Q165.04 62.27 155.91 78.66L155.78 78.53L159.54 72.24L159.51 72.20Q158.80 74.03 158.34 75.03L158.25 74.93L150.44 90.72L150.56 90.83Q151.74 90.61 153.74 89.95L153.57 89.78L153.38 90.26L153.46 90.34Q153.24 91.52 152.71 93.71L152.69 93.70L152.68 93.69Q159.93 91.41 168.39 91.74L168.24 91.59L168.22 91.57Q168.31 93.26 168.64 96.72L168.60 96.68L168.73 96.81Q170.65 96.86 172.51 97.06L172.34 96.89L172.51 97.06Q172.71 98.20 173.18 100.59L173.14 100.56L173.25 100.67Q176.47 100.95 181.73 102.55L181.82 102.64L181.77 102.59Q180.06 98.88 178.46 93.15L178.50 93.19L180.98 93.94L180.97 93.92Q182.20 94.36 183.40 94.96L183.32 94.88L183.36 94.92Q181.88 90.44 181.61 87.51L181.60 87.50L181.74 87.63Q180.71 87.34 178.71 86.94L178.75 86.98L178.66 86.89Q178.25 84.61 178.25 83.08ZM164.40 82.95L164.23 82.78L164.29 82.84Q165.67 80.63 168.41 76.17L168.37 76.13L168.45 76.21Q168.38 77.81 168.31 79.47L168.24 79.40L168.23 79.39Q168.37 81.27 168.44 82.93L168.30 82.79L168.45 82.94Q167.35 82.77 166.35 82.77L166.45 82.87L166.41 82.83Q165.44 82.93 164.38 82.93Z"/><path d="M21 42 C166 15,172 117,332 29" stroke="#e86284" fill="none"/><path d="M3 130 C165 2,186 112,338 10" stroke="#ecad6e" fill="none"/></svg>