<svg xmlns="http://www.w3.org/2000/svg" width="342" height="140" viewBox="0,0,342,140"><path d="M3 12 C179 29,186 19,325 95" stroke="#edcf77" fill="none"/><path d="M14 18 C162 97,179 12,327 134" stroke="#5beaea" fill="none"/><path fill="#eeee7b" d="M191.31 84.78L191.38 84.85L191.34 84.81Q196.94 83.98 202.88 84.19L203.07 84.38L203.07 84.38Q202.86 79.50 202.86 75.04L202.94 75.13L202.88 75.07Q202.87 70.46 203.22 65.72L203.20 65.70L203.17 65.67Q201.05 68.99 191.36 84.83ZM209.63 98.36L209.76 98.49L209.72 98.45Q206.52 97.80 203.20 97.66L203.16 97.62L203.23 97.69Q202.82 93.24 202.61 88.65L202.73 88.77L202.61 88.65Q192.70 88.29 183.93 90.90L183.99 90.96L183.98 90.95Q184.28 90.12 184.64 88.28L184.68 88.33L184.49 88.14Q187.93 82.39 194.58 70.73L194.54 70.69L194.58 70.73Q199.96 61.69 206.33 54.47L206.36 54.51L206.37 54.52Q207.91 54.08 211.02 53.58L210.98 53.54L211.03 53.59Q207.54 65.59 207.54 78.67L207.48 78.61L207.58 78.71Q207.53 81.41 207.67 84.17L207.73 84.23L210.05 84.36L210.00 84.30Q211.23 84.48 212.37 84.69L212.28 84.61L212.26 84.59Q212.51 86.47 213.01 90.07L213.02 90.08L213.02 90.09Q210.66 89.49 207.90 89.14L207.90 89.14L208.03 89.27Q208.37 92.93 209.64 98.37ZM212.83 83.95L212.88 84.00L212.83 83.96Q212.40 83.73 212.04 83.73L212.06 83.75L211.31 83.70L211.35 83.74Q211.28 81.13 211.28 78.51L211.15 78.39L211.11 78.35Q211.09 66.45 214.91 55.28L215.07 55.44L215.07 55.44Q213.58 55.86 210.90 56.57L210.85 56.52L210.97 56.65Q211.40 55.23 212.25 52.62L212.25 52.62L212.12 52.49Q209.84 53.32 206.02 53.75L205.98 53.70L205.92 53.64Q198.76 61.82 189.07 79.22L189.07 79.21L192.77 72.24L192.84 72.31Q192.06 74.22 191.57 75.28L191.56 75.27L183.37 92.11L183.32 92.06Q184.43 91.68 186.55 90.97L186.58 91.01L186.40 91.53L186.26 91.40Q186.09 92.71 185.53 95.04L185.50 95.01L185.67 95.19Q193.26 92.67 202.24 93.02L202.17 92.95L202.14 92.92Q202.18 94.66 202.54 98.34L202.52 98.32L202.53 98.33Q204.59 98.41 206.57 98.62L206.49 98.54L206.64 98.69Q206.79 99.84 207.29 102.38L207.29 102.38L207.45 102.54Q210.87 102.86 216.46 104.55L216.54 104.63L216.38 104.47Q214.57 100.55 212.88 94.47L213.03 94.62L215.61 95.36L215.64 95.39Q216.90 95.80 218.17 96.44L218.24 96.51L218.24 96.50Q216.72 91.80 216.43 88.69L216.41 88.67L216.33 88.58Q215.36 88.40 213.24 87.97L213.27 88.00L213.17 87.90Q212.83 85.58 212.83 83.96ZM197.93 83.62L197.88 83.57L197.88 83.57Q199.31 81.18 202.21 76.44L202.32 76.56L202.26 76.50Q202.27 78.27 202.20 80.04L202.21 80.05L202.25 80.09Q202.18 81.86 202.25 83.63L202.34 83.71L202.21 83.58Q201.12 83.48 200.06 83.48L200.23 83.65L200.10 83.53Q199.17 83.73 198.04 83.73Z"/><path d="M16 95 C178 77,185 93,333 62" stroke="#91e33f" fill="none"/><path d="M14 63 C170 138,178 31,331 134" stroke="#71eecf" fill="none"/><path d="M18 45 C171 18,154 37,321 23" stroke="#80e480" fill="none"/><path d="M14 73 C182 10,171 106,329 127" stroke="#e952c3" fill="none"/><path d="M3 54 C186 126,154 80,325 74" stroke="#dd6464" fill="none"/><path d="M17 28 C154 79,169 17,325 96" stroke="#45d7b3" fill="none"/><path d="M3 123 C150 55,169 106,335 87" stroke="#5ca3e9" fill="none"/><path d="M6 31 C165 73,177 107,331 37" stroke="#e68dd0" fill="none"/><path d="M18 4 C183 119,161 129,340 73" stroke="#87ed87" fill="none"/><path d="M15 18 C150 137,161 108,341 100" stroke="#79eb95" fill="none"/><path d="M17 70 C165 77,185 17,337 133" stroke="#7fea5b" fill="none"/><path d="M20 93 C189 28,191 46,329 55" stroke="#e85858" fill="none"/><path fill="#db46db" d="M137.73 74.06L137.76 74.09L137.72 74.05Q139.19 74.03 141.80 73.75L141.79 73.74L141.86 73.81Q141.63 74.86 141.63 76.06L141.63 76.05L141.78 78.54L141.67 78.43Q140.09 78.41 138.54 78.55L138.66 78.67L138.71 78.72Q137.14 78.78 135.59 78.71L135.47 78.59L135.43 78.55Q130.24 90.11 123.87 98.67L123.76 98.55L123.87 98.67Q119.14 99.80 116.73 100.93L116.71 100.90L116.83 101.02Q124.46 90.42 130.11 78.75L130.14 78.78L125.17 78.68L125.27 78.78Q125.09 76.13 124.88 73.66L125.03 73.81L124.97 73.75Q128.53 74.05 132.34 74.05L132.29 74.00L135.94 67.25L135.88 67.20Q137.62 63.56 139.89 60.60L139.86 60.57L139.89 60.60Q137.04 60.93 134.07 60.93L134.02 60.88L134.07 60.93Q122.83 61.00 115.83 56.90L115.82 56.89L114.53 53.62L114.52 53.61Q113.98 52.15 113.27 50.52L113.25 50.50L113.21 50.46Q121.33 55.40 131.93 55.82L131.91 55.80L131.92 55.81Q141.47 56.24 151.01 52.56L150.96 52.51L151.04 52.59Q150.71 53.39 149.79 55.02L149.66 54.88L149.62 54.85Q143.07 63.84 137.76 74.10ZM152.76 57.56L152.68 57.48L154.52 53.74L154.58 53.80Q152.78 54.68 149.67 56.03L149.70 56.05L149.94 55.38L149.98 55.42Q150.11 55.06 150.33 54.84L150.40 54.91L150.47 54.98Q151.22 53.76 152.56 51.29L152.43 51.15L152.39 51.11Q142.48 55.34 131.81 54.92L131.89 55.00L131.96 55.07Q120.81 54.60 111.97 49.09L111.97 49.09L111.86 48.97Q113.71 52.38 115.27 57.33L115.38 57.44L115.42 57.48Q117.36 58.57 118.85 59.14L118.89 59.18L118.81 59.10Q119.09 59.73 119.93 63.20L119.98 63.24L120.12 63.38Q125.85 65.58 136.10 65.29L136.18 65.37L136.12 65.31Q135.62 66.44 131.94 73.44L131.96 73.46L131.82 73.32Q128.08 73.40 124.41 73.04L124.43 73.07L124.48 73.11Q124.58 74.63 124.58 76.25L124.62 76.30L124.48 79.34L127.66 79.40L127.67 82.03L127.68 82.04Q120.47 95.83 115.31 102.48L115.30 102.47L115.29 102.46Q118.17 100.95 121.21 100.03L121.14 99.96L121.15 99.97Q119.99 101.79 117.45 104.97L117.32 104.84L117.40 104.92Q123.32 102.92 127.85 102.50L127.89 102.54L127.75 102.40Q133.20 95.41 139.00 82.82L138.99 82.82L145.43 83.25L145.36 83.18Q145.32 81.58 145.32 79.88L145.18 79.75L145.33 76.57L145.23 76.47Q144.79 76.52 143.76 76.59L143.74 76.58L143.67 76.50Q142.68 76.61 142.18 76.61L142.31 76.73L142.27 76.70Q142.19 76.41 142.26 76.12L142.27 76.13L142.35 75.71L142.39 75.75Q146.87 66.02 152.59 57.40Z"/><path fill="#87e7cf" d="M57.62 92.04L57.74 92.16L57.79 92.21Q59.80 93.79 62.42 93.51L62.38 93.47L62.53 93.62Q67.93 93.93 69.13 87.71L69.12 87.70L69.05 87.63Q70.20 81.78 70.20 75.49L70.21 75.49L70.17 70.65L70.23 70.71Q70.31 68.46 69.68 66.13L69.53 65.98L69.60 66.05Q67.23 70.26 63.55 79.09L63.74 79.28L63.56 79.10Q59.91 87.96 57.65 92.06ZM66.96 61.43L67.13 61.60L67.09 61.56Q64.93 60.04 62.46 60.04L62.41 60.00L62.46 60.04Q59.74 59.80 57.69 61.49L57.65 61.46L57.69 61.50Q55.58 63.13 55.23 65.89L55.22 65.88L55.16 65.82Q54.65 68.49 54.58 71.25L54.50 71.17L54.54 71.21Q54.51 71.18 54.51 76.48L54.53 76.50L54.59 76.56Q54.48 80.83 55.32 87.55L55.33 87.56L55.33 87.56Q58.87 78.72 67.00 61.47ZM69.91 96.40L69.98 96.48L69.93 96.43Q66.65 98.10 62.34 98.10L62.33 98.09L59.35 98.15L59.36 98.16Q53.35 98.16 51.23 94.98L51.22 94.97L51.25 95.00Q49.74 90.95 49.60 85.50L49.68 85.58L49.65 85.55Q49.48 82.20 49.34 75.76L49.44 75.87L49.37 75.79Q49.31 73.54 49.02 67.89L49.05 67.92L49.02 67.88Q48.92 63.68 49.48 60.00L49.49 60.01L49.40 59.92Q50.34 54.50 58.40 54.07L58.35 54.02L58.39 54.06Q59.79 53.98 62.26 54.05L62.29 54.07L62.40 54.18Q72.94 54.47 74.92 60.90L74.73 60.72L74.91 60.90Q75.94 64.33 75.87 67.79L75.94 67.87L75.80 67.73Q75.68 77.01 75.54 79.27L75.55 79.28L75.51 79.24Q75.23 86.39 74.67 88.79L74.63 88.75L74.60 88.73Q73.42 94.55 69.89 96.39ZM79.18 96.07L79.09 95.97L79.05 95.93Q79.57 90.87 79.50 87.55L79.56 87.61L79.32 78.96L79.39 79.02Q79.28 73.47 78.29 63.22L78.19 63.12L78.23 63.15Q77.15 59.68 74.75 58.26L74.80 58.31L74.81 58.32Q71.99 53.67 62.38 53.38L62.32 53.33L62.24 53.25Q60.65 53.21 58.17 53.28L58.18 53.29L58.28 53.39Q49.74 53.40 48.82 59.20L48.90 59.28L48.93 59.31Q48.26 63.65 48.47 67.54L48.32 67.40L48.31 67.39Q49.08 75.65 49.01 81.87L48.95 81.81L48.92 81.78Q48.79 88.58 49.00 90.48L49.14 90.62L49.16 90.65Q49.86 96.37 52.69 97.85L52.71 97.87L52.54 97.70Q55.35 101.86 62.78 102.35L62.73 102.30L62.76 102.34Q69.46 102.81 70.66 102.74L70.73 102.81L70.70 102.78Q75.95 102.44 78.07 99.47L78.01 99.41L78.02 99.43Q79.08 98.29 79.22 96.10ZM63.12 92.80L63.13 92.81L63.14 92.82Q64.35 90.07 66.33 85.05L66.35 85.07L69.68 77.37L69.53 77.22Q69.48 80.28 68.77 86.51L68.91 86.64L68.88 86.61Q67.69 92.00 63.24 92.92ZM59.49 70.01L59.45 69.96L59.38 69.90Q60.31 66.66 61.58 65.60L61.62 65.63L61.65 65.66Q62.36 64.75 64.77 64.40L64.78 64.41L64.77 64.40Q61.67 71.27 58.20 79.89L58.31 80.00L58.25 79.94Q58.24 74.91 59.51 70.03Z"/><path d="M7 25 C168 102,188 89,339 76" stroke="#e6ba37" fill="none"/><path d="M21 9 C160 30,159 76,331 74" stroke="#6ce9e9" fill="none"/><path d="M16 118 C178 48,165 88,336 76" stroke="#92e6e6" fill="none"/><path d="M13 26 C191 81,169 118,332 130" stroke="#41e693" fill="none"/><path d="M13 3 C165 119,168 54,322 106" stroke="#5779df" fill="none"/><path d="M8 1 C170 121,172 65,326 43" stroke="#4bd24b" fill="none"/><path d="M1 26 C184 103,156 106,325 103" stroke="#e1e14b" fill="none"/><path d="M20 26 C151 38,152 10,321 54" stroke="#dfaa75" fill="none"/><path d="M7 111 C155 25,162 31,340 8" stroke="#b64ed9" fill="none"/><path d="M4 116 C181 50,185 7,337 51" stroke="#4ee34e" fill="none"/><path d="M8 131 C180 133,161 137,332 124" stroke="#80b5e9" fill="none"/><path d="M12 60 C164 84,171 110,323 119" stroke="#6caded" fill="none"/><path d="M16 9 C182 11,152 55,326 124" stroke="#eb84d1" fill="none"/><path d="M7 129 C163 90,162 107,340 69" stroke="#71e8ad" fill="none"/><path d="M12 23 C178 46,191 57,327 111" stroke="#3c8ee0" fill="none"/><path d="M20 128 C170 16,153 62,329 30" stroke="#8d73dd" fill="none"/><path d="M11 87 C190 23,163 110,330 112" stroke="#ea6aaa" fill="none"/><path d="M13 113 C169 101,184 130,329 17" stroke="#55d7d7" fill="none"/><path d="M2 108 C172 100,185 27,330 80" stroke="#69e187" fill="none"/><path d="M4 61 C172 93,161 19,323 138" stroke="#e96cc9" fill="none"/><path d="M9 112 C155 39,167 119,323 21" stroke="#eb6486" fill="none"/><path d="M10 58 C160 20,182 7,326 98" stroke="#90ed90" fill="none"/><path d="M13 76 C156 29,154 46,338 110" stroke="#e2b940" fill="none"/><path d="M1 113 C188 136,164 40,333 40" stroke="#e68989" fill="none"/><path d="M6 17 C183 96,180 116,337 4" stroke="#e4e46b" fill="none"/><path fill="#e4e490" d="M267.73 67.04L267.74 67.05L267.81 67.11Q261.85 67.09 258.45 65.11L258.33 65.00L258.43 65.09Q262.97 62.42 272.02 54.57L272.16 54.71L272.02 54.57Q273.41 54.27 275.81 53.13L275.80 53.12L275.89 53.21Q273.44 64.26 273.23 76.07L273.23 76.07L273.26 76.11Q273.04 87.90 275.02 99.21L274.85 99.04L274.95 99.15Q271.90 97.86 267.94 97.65L267.80 97.51L267.91 97.62Q267.69 89.90 267.69 82.34L267.61 82.26L267.62 82.27Q267.60 74.62 267.68 66.98ZM267.00 71.19L267.03 98.30L267.03 98.30Q269.21 98.21 270.98 98.57L271.00 98.58L271.08 98.67Q271.20 99.92 271.55 102.46L271.45 102.36L271.61 102.52Q276.80 103.40 281.32 107.57L281.28 107.52L281.28 107.53Q276.67 94.29 276.60 80.44L276.71 80.55L276.80 80.63Q276.58 66.70 279.98 53.27L279.93 53.22L279.97 53.26Q278.87 53.93 275.90 55.98L275.99 56.06L276.06 56.14Q276.31 54.62 276.87 51.79L276.91 51.83L276.98 51.90Q274.43 53.24 271.75 53.95L271.80 53.99L271.68 53.88Q264.83 60.68 256.85 64.92L256.70 64.78L256.80 64.88Q259.43 66.94 263.82 67.58L263.86 67.62L263.78 67.54Q262.48 68.43 260.07 70.41L260.06 70.40L260.26 70.59Q262.86 71.15 266.96 71.15L267.00 71.18Z"/><path d="M16 10 C175 57,169 128,337 86" stroke="#cae183" fill="none"/></svg>