<svg xmlns="http://www.w3.org/2000/svg" width="342" height="140" viewBox="0,0,342,140"><path d="M2 84 C182 104,175 67,336 49" stroke="#62da62" fill="none"/><path d="M9 19 C186 128,177 87,323 21" stroke="#eb83d1" fill="none"/><path d="M13 106 C151 32,152 53,324 110" stroke="#94e9bf" fill="none"/><path d="M11 138 C160 65,162 93,321 135" stroke="#e5e538" fill="none"/><path d="M18 107 C176 34,183 106,327 94" stroke="#ea7fcf" fill="none"/><path d="M8 41 C164 97,180 44,339 68" stroke="#ea519e" fill="none"/><path fill="#5de8a3" d="M58.86 89.54L58.96 89.64L58.87 89.54Q60.84 91.14 63.15 90.89L63.19 90.93L63.12 90.85Q67.83 91.06 68.89 85.56L69.03 85.69L69.00 85.67Q70.06 80.54 70.06 74.97L70.00 74.91L70.06 70.71L69.91 70.57Q69.98 68.57 69.42 66.51L69.45 66.54L69.42 66.51Q67.49 70.40 64.24 78.21L64.18 78.16L64.09 78.06Q60.81 85.86 58.81 89.49ZM67.17 62.51L67.12 62.46L67.12 62.46Q65.28 61.18 63.09 61.18L63.06 61.15L63.03 61.12Q60.65 60.93 58.84 62.43L58.79 62.39L58.89 62.48Q56.99 63.90 56.68 66.34L56.67 66.33L56.66 66.32Q56.05 68.53 55.99 70.97L56.07 71.04L56.09 71.06Q56.12 71.10 56.12 75.79L56.07 75.74L56.00 75.67Q56.10 79.64 56.85 85.59L56.80 85.54L56.92 85.66Q59.90 77.69 67.09 62.43ZM69.78 93.45L69.64 93.31L69.82 93.49Q66.89 94.94 63.08 94.94L62.97 94.83L60.41 94.96L60.29 94.84Q54.94 94.81 53.07 92.00L53.12 92.05L53.15 92.08Q51.83 88.51 51.71 83.70L51.75 83.73L51.71 83.70Q51.67 80.84 51.54 75.15L51.43 75.04L51.54 75.15Q51.38 73.05 51.13 68.04L51.26 68.18L51.27 68.19Q51.00 64.29 51.50 61.04L51.52 61.05L51.52 61.06Q52.30 56.20 59.43 55.83L59.57 55.97L59.52 55.92Q60.73 55.82 62.92 55.88L62.95 55.92L62.91 55.87Q72.38 56.28 74.13 61.97L74.03 61.86L73.96 61.79Q75.04 65.00 74.98 68.07L74.99 68.08L74.95 68.04Q74.90 76.30 74.77 78.30L74.62 78.16L74.70 78.23Q74.45 84.55 73.95 86.67L73.85 86.58L73.83 86.56Q72.87 91.79 69.75 93.42ZM77.81 92.97L77.82 92.99L77.89 93.05Q78.32 88.54 78.25 85.60L78.08 85.42L78.13 78.03L77.98 77.89Q77.88 72.97 77.01 63.90L77.06 63.96L77.14 64.03Q76.21 60.98 74.08 59.73L74.13 59.77L73.99 59.64Q71.41 55.43 62.90 55.18L62.90 55.18L62.92 55.20Q61.58 55.23 59.39 55.30L59.36 55.27L59.26 55.17Q51.98 55.45 51.17 60.58L51.11 60.52L51.16 60.57Q50.43 64.28 50.62 67.72L50.55 67.66L50.59 67.70Q51.17 74.91 51.11 80.41L51.09 80.39L51.24 80.54Q51.08 86.51 51.27 88.20L51.30 88.23L51.29 88.22Q51.96 93.33 54.46 94.64L54.40 94.58L54.45 94.63Q56.81 98.18 63.38 98.62L63.43 98.67L63.40 98.64Q69.25 98.99 70.31 98.93L70.31 98.92L70.32 98.93Q74.96 98.63 76.84 96.00L76.96 96.13L76.92 96.09Q77.76 94.99 77.88 93.05ZM63.68 90.17L63.79 90.27L63.73 90.22Q64.84 87.82 66.59 83.38L66.66 83.46L69.39 76.42L69.31 76.34Q69.41 79.19 68.78 84.70L68.66 84.57L68.70 84.61Q67.70 89.43 63.76 90.24ZM60.45 69.98L60.45 69.99L60.52 70.06Q61.18 67.03 62.31 66.09L62.32 66.10L62.44 66.22Q63.12 65.47 65.25 65.15L65.18 65.08L65.18 65.09Q62.43 71.16 59.37 78.79L59.26 78.68L59.40 78.82Q59.30 74.28 60.42 69.96Z"/><path d="M6 46 C165 113,178 60,328 65" stroke="#7db2e7" fill="none"/><path d="M6 34 C183 32,151 9,325 35" stroke="#4ce0e0" fill="none"/><path d="M19 115 C166 7,175 130,333 37" stroke="#4bdc4b" fill="none"/><path d="M7 79 C183 124,163 113,329 10" stroke="#e3e344" fill="none"/><path d="M9 126 C180 86,155 11,338 53" stroke="#de8c39" fill="none"/><path d="M5 11 C154 116,170 26,339 45" stroke="#bce791" fill="none"/><path d="M11 51 C176 85,185 53,331 50" stroke="#a3db6b" fill="none"/><path d="M12 85 C191 131,158 115,340 14" stroke="#98ed7c" fill="none"/><path d="M13 43 C192 116,169 104,326 13" stroke="#b7ee80" fill="none"/><path d="M18 81 C185 137,192 3,324 129" stroke="#913ce5" fill="none"/><path d="M11 96 C152 33,180 19,334 8" stroke="#d44949" fill="none"/><path d="M6 38 C178 32,153 55,326 99" stroke="#eba35a" fill="none"/><path d="M9 95 C174 89,191 31,323 84" stroke="#ed86ed" fill="none"/><path d="M8 20 C172 79,172 131,327 133" stroke="#dfaa75" fill="none"/><path fill="#ecd07d" d="M261.81 95.21L261.90 95.30L261.88 95.28Q259.50 95.34 256.94 94.65L256.85 94.56L256.90 94.62Q254.93 93.14 254.68 90.45L254.74 90.51L254.69 90.46Q254.57 90.09 254.88 85.78L254.87 85.76L254.94 85.84Q256.68 85.58 260.00 84.95L259.98 84.94L259.71 86.23L259.55 86.07Q259.08 88.92 261.40 89.85L261.53 89.99L261.57 90.03Q262.76 90.47 266.20 90.47L266.34 90.61L266.34 90.61Q268.87 90.26 269.18 90.13L269.14 90.09L269.20 90.16Q270.63 89.83 271.82 89.02L271.96 89.16L271.89 89.09Q274.21 87.53 273.89 84.09L273.97 84.16L273.81 84.00Q273.64 80.14 270.79 77.58L270.66 77.45L270.77 77.55Q267.83 74.90 263.77 74.90L263.85 74.99L263.73 74.49L263.87 74.63Q264.53 74.60 265.97 74.48L265.85 74.35L265.89 74.39Q268.92 74.11 271.17 72.07L271.29 72.19L271.28 72.19Q273.57 70.19 273.82 67.13L273.69 67.00L273.82 67.13Q273.95 66.57 273.95 66.01L273.91 65.97L273.93 65.99Q273.92 63.48 271.67 61.98L271.55 61.86L271.65 61.96Q269.65 60.64 267.02 60.83L267.06 60.87L267.07 60.88Q264.88 60.57 262.88 61.26L262.95 61.32L262.94 61.31Q260.48 62.11 259.98 63.98L260.03 64.03L259.95 63.96Q259.64 65.21 259.76 66.46L259.84 66.53L259.73 66.42Q258.10 66.11 254.72 64.92L254.71 64.90L254.83 65.03Q254.33 62.15 254.40 60.78L254.33 60.71L254.44 60.82Q254.61 58.30 256.36 57.18L256.36 57.18L256.27 57.08Q258.70 56.20 261.33 56.20L261.35 56.22L261.40 56.27Q266.40 56.02 271.59 56.46L271.76 56.62L271.70 56.57Q279.95 57.19 279.45 63.38L279.60 63.53L279.60 63.53Q279.39 65.88 278.58 68.45L278.65 68.52L278.55 68.42Q277.09 73.53 273.22 75.03L273.09 74.91L273.19 75.00Q277.45 75.83 278.45 81.33L278.60 81.48L278.43 81.31Q278.80 83.18 278.93 86.50L279.07 86.64L279.05 86.62Q279.28 93.92 271.71 94.67L271.72 94.68L271.67 94.63Q270.55 94.82 261.86 95.26ZM270.47 98.99L270.36 98.89L270.31 98.83Q271.41 99.00 276.10 99.12L276.10 99.11L276.07 99.08Q279.02 99.28 281.71 98.22L281.64 98.16L281.66 98.17Q283.53 96.54 283.22 93.66L283.20 93.65L283.26 93.70Q283.09 91.54 282.59 88.66L282.53 88.59L282.61 88.68Q281.40 81.28 278.21 78.59L278.27 78.65L277.90 77.96L277.72 77.73L277.80 77.80Q280.62 75.37 281.87 68.18L281.97 68.28L281.97 68.28Q282.04 67.53 282.23 65.97L282.15 65.89L282.24 65.98Q282.41 64.77 282.28 63.65L282.24 63.61L282.20 63.56Q282.00 60.86 279.87 59.73L279.86 59.72L279.78 59.77L279.72 59.71Q279.24 58.11 277.37 57.23L277.33 57.19L277.38 57.24Q274.79 56.03 266.35 55.53L266.41 55.59L266.43 55.61Q263.53 55.33 260.90 55.33L260.94 55.38L260.95 55.38Q258.42 55.48 255.92 56.54L255.92 56.55L255.82 56.45Q253.80 57.67 253.80 60.55L253.83 60.59L253.80 60.56Q253.88 59.95 254.32 65.46L254.25 65.39L254.28 65.41Q254.82 65.57 257.50 66.57L257.51 66.58L257.57 66.64Q257.46 67.41 257.40 68.22L257.37 68.19L257.51 68.33Q257.46 69.10 257.53 69.97L257.46 69.91L257.54 69.98Q260.48 70.61 263.79 70.80L263.79 70.80L263.67 70.68Q263.71 67.52 265.52 66.15L265.39 66.01L265.38 66.00Q266.75 64.94 270.06 64.56L270.13 64.62L270.04 64.54Q272.04 64.66 272.98 64.98L272.98 64.97L272.92 64.92Q272.95 65.07 273.02 65.26L273.16 65.40L272.98 65.54L273.19 66.50L273.31 66.62Q273.33 66.95 273.27 67.20L273.18 67.11L273.16 67.10Q273.04 69.91 270.54 71.85L270.62 71.94L270.64 71.96Q269.09 73.41 265.77 73.72L265.84 73.79L265.72 73.66Q264.52 73.91 263.08 73.91L263.16 73.98L263.12 73.94Q263.24 74.56 263.49 75.69L263.45 75.64L263.46 75.66Q266.33 75.65 268.71 76.84L268.67 76.80L268.58 76.90L265.85 77.05L266.01 77.20Q266.03 77.73 266.22 78.73L266.09 78.60L266.21 78.72Q269.69 78.57 272.50 80.76L272.47 80.73L272.56 80.82Q272.84 81.35 273.34 84.04L273.29 83.99L273.31 84.00Q273.79 88.99 268.97 89.67L268.85 89.56L268.88 89.58Q265.49 90.07 264.55 90.01L264.52 89.98L264.47 89.92Q263.80 89.81 262.92 89.69L262.93 89.70L262.95 88.97L263.01 88.09L263.17 87.56L263.19 87.02L263.14 86.97Q261.59 87.10 260.27 87.42L260.29 87.43L260.29 87.43Q260.31 87.14 260.31 86.83L260.16 86.68L260.22 86.74Q260.40 86.54 260.40 86.17L260.29 86.06L260.34 86.11Q260.47 85.48 260.72 84.30L260.55 84.13L260.66 84.24Q257.47 84.49 254.40 85.05L254.41 85.06L254.41 85.06Q254.46 85.92 254.27 87.77L254.26 87.76L254.22 87.72Q254.12 89.65 254.12 90.65L254.16 90.68L254.11 90.64Q254.32 94.10 256.57 95.35L256.48 95.26L256.43 95.21Q259.00 99.09 266.76 98.78L266.63 98.66L266.74 98.76Q267.88 98.65 270.38 98.90Z"/><path d="M17 106 C190 5,151 3,330 99" stroke="#43d48c" fill="none"/><path d="M16 119 C176 137,188 81,327 83" stroke="#9ae183" fill="none"/><path d="M2 138 C186 104,163 108,322 37" stroke="#d2ed81" fill="none"/><path d="M17 104 C181 61,185 11,336 97" stroke="#e46ca8" fill="none"/><path d="M17 113 C158 50,164 71,329 101" stroke="#d7b85a" fill="none"/><path d="M20 137 C167 114,176 36,339 113" stroke="#ed6285" fill="none"/><path fill="#53de76" d="M199.22 61.09L199.36 61.23L196.70 61.33L196.70 61.33Q193.15 61.65 192.77 64.96L192.73 64.93L192.78 64.97Q192.46 65.97 192.53 67.60L192.56 67.63L192.56 67.63Q192.58 70.78 194.65 72.97L194.71 73.03L194.69 73.01Q196.90 75.34 200.02 75.09L199.88 74.95L199.95 75.02Q203.23 74.67 204.48 73.17L204.61 73.30L204.48 73.17Q206.35 71.79 206.79 68.10L206.85 68.16L206.66 67.97Q207.18 64.37 205.12 62.99L205.19 63.06L205.14 63.01Q203.70 61.69 199.32 61.19ZM209.20 76.33L209.17 76.30L207.07 80.07L207.23 80.23Q202.64 87.96 196.45 94.66L196.53 94.73L196.44 94.65Q193.88 95.03 189.44 96.34L189.34 96.24L189.32 96.23Q198.06 85.89 203.25 78.01L203.23 77.99L203.27 78.02Q201.72 79.23 199.03 79.35L199.00 79.33L198.87 79.19Q194.00 79.52 191.50 76.26L191.50 76.26L191.43 76.19Q189.42 73.56 187.61 66.05L187.72 66.16L187.76 66.20Q187.74 65.43 187.49 63.90L187.43 63.84L187.50 63.91Q187.27 62.40 187.27 61.65L187.11 61.49L187.09 61.47Q187.23 58.67 188.98 57.67L188.91 57.60L188.86 57.55Q190.92 56.36 193.99 56.36L194.07 56.45L193.93 56.30Q199.33 56.45 199.33 56.45L199.18 56.30L199.23 56.35Q202.79 56.41 204.85 56.72L204.89 56.76L204.83 56.69Q208.46 57.27 209.97 58.08L209.82 57.94L209.86 57.97Q212.04 59.15 212.35 62.03L212.35 62.02L212.47 62.15Q212.50 62.55 212.19 66.93L212.11 66.85L212.08 66.82Q211.49 70.36 211.12 71.74L211.04 71.66L211.12 71.74Q210.50 74.06 209.25 76.38ZM212.29 80.23L212.41 80.35L212.34 80.28Q214.10 76.79 214.98 69.72L214.91 69.65L214.84 69.58Q215.37 66.04 215.30 64.61L215.25 64.55L215.20 64.51Q215.16 61.46 213.22 59.96L213.31 60.05L212.69 59.74L212.68 59.73Q212.29 58.53 210.79 57.46L210.82 57.50L210.75 57.42Q206.98 55.78 199.10 55.53L199.13 55.56L199.27 55.70Q197.62 55.61 193.62 55.61L193.61 55.61L193.57 55.57Q190.67 55.55 188.23 56.67L188.21 56.65L188.29 56.73Q186.47 58.10 186.59 61.10L186.57 61.08L186.47 60.98Q186.90 62.60 187.22 65.91L187.09 65.79L187.23 65.92Q188.15 70.16 188.59 71.54L188.53 71.48L188.63 71.58Q189.53 74.61 191.10 76.73L191.12 76.76L191.04 76.68Q191.48 77.25 192.11 77.87L192.13 77.89L192.19 77.95Q192.62 78.69 193.68 80.20L193.75 80.27L193.70 80.22Q196.11 82.44 199.30 82.75L199.34 82.79L199.26 82.71Q196.18 87.13 193.61 90.26L193.56 90.21L187.59 97.37L187.77 97.55Q191.38 96.22 194.07 95.66L194.06 95.65L194.08 95.67Q192.80 97.08 190.24 99.89L190.28 99.93L190.23 99.89Q195.21 98.30 200.34 98.24L200.34 98.23L200.42 98.32Q204.26 94.09 211.39 82.20L211.37 82.18L211.40 82.34L211.29 82.23Q211.78 81.10 212.35 80.29ZM202.53 65.15L202.47 65.10L202.60 65.22Q203.54 64.97 204.29 65.16L204.23 65.10L204.19 65.06Q205.22 65.22 205.85 65.40L205.84 65.40L205.99 65.55Q206.20 66.20 206.33 66.88L206.16 66.72L206.31 66.87Q206.36 67.48 206.17 68.11L206.13 68.07L206.18 68.11Q206.20 71.02 204.27 72.83L204.18 72.74L204.10 72.66Q202.60 74.42 199.91 74.36L199.98 74.42L199.91 74.35Q199.32 74.45 196.82 73.95L196.73 73.87L196.82 73.95Q196.42 72.49 196.42 71.30L196.47 71.35L196.33 71.21Q196.19 70.75 196.19 70.38L196.19 70.38L196.17 70.36Q196.30 66.87 200.06 65.55L200.02 65.52L199.98 65.48Q201.10 65.10 202.47 65.10Z"/><path d="M12 89 C171 90,167 21,336 134" stroke="#ee80b7" fill="none"/><path d="M13 127 C157 17,157 53,334 55" stroke="#9f85ee" fill="none"/><path d="M21 131 C179 71,154 94,324 118" stroke="#88ebba" fill="none"/><path d="M17 17 C155 50,175 60,323 69" stroke="#466ee5" fill="none"/><path d="M17 58 C156 14,179 133,323 8" stroke="#49d4b1" fill="none"/><path d="M3 69 C155 61,154 17,338 95" stroke="#b541dc" fill="none"/><path d="M16 42 C169 4,160 115,328 39" stroke="#70eacc" fill="none"/><path d="M18 38 C166 42,176 107,322 136" stroke="#62e3c3" fill="none"/><path fill="#ee6cce" d="M137.58 73.64L137.48 73.55L137.59 73.65Q138.81 73.56 141.12 73.31L141.03 73.22L141.14 73.33Q140.99 74.31 140.99 75.37L141.07 75.44L141.01 77.45L141.16 77.60Q139.68 77.49 138.30 77.62L138.25 77.57L138.33 77.65Q136.90 77.66 135.52 77.59L135.52 77.59L135.46 77.53Q130.88 87.77 125.25 95.33L125.30 95.38L125.31 95.40Q121.06 96.34 118.94 97.34L118.95 97.35L119.06 97.47Q125.65 87.92 130.66 77.60L130.69 77.64L126.42 77.68L126.39 77.65Q126.53 75.60 126.34 73.41L126.33 73.40L126.21 73.28Q129.33 73.53 132.71 73.53L132.68 73.50L135.90 67.52L135.80 67.43Q137.49 64.36 139.49 61.73L139.45 61.69L139.55 61.79Q137.03 62.08 134.40 62.08L134.25 61.93L134.29 61.97Q124.40 62.09 118.21 58.46L118.19 58.44L116.99 55.49L116.99 55.49Q116.46 54.15 115.84 52.72L115.80 52.68L115.86 52.73Q122.99 57.05 132.37 57.43L132.44 57.50L132.36 57.41Q140.86 57.85 149.30 54.60L149.35 54.65L149.16 54.45Q148.90 55.19 148.09 56.63L148.10 56.64L148.19 56.73Q142.28 64.58 137.59 73.65ZM150.81 58.98L150.72 58.89L152.48 55.71L152.33 55.56Q150.79 56.40 148.04 57.59L148.02 57.56L148.40 57.13L148.47 57.20Q148.62 56.91 148.81 56.73L148.71 56.63L148.69 56.61Q149.48 55.65 150.67 53.46L150.48 53.27L150.66 53.45Q141.82 57.12 132.38 56.75L132.28 56.65L132.32 56.69Q122.51 56.32 114.69 51.44L114.59 51.34L114.62 51.37Q116.28 54.41 117.66 58.79L117.65 58.78L117.74 58.87Q119.62 60.00 120.94 60.50L120.82 60.39L120.96 60.53Q121.21 61.09 121.96 64.16L121.82 64.01L121.82 64.02Q127.09 66.16 136.16 65.91L136.20 65.94L136.07 65.82Q135.69 66.88 132.44 73.07L132.43 73.06L132.33 72.96Q129.04 73.05 125.79 72.74L125.76 72.71L125.75 72.70Q125.77 73.97 125.77 75.41L125.80 75.44L125.79 78.24L128.61 78.31L128.71 80.72L128.66 80.67Q122.23 92.81 117.66 98.69L117.65 98.68L117.65 98.68Q120.28 97.43 122.97 96.62L122.85 96.51L122.95 96.60Q121.71 97.99 119.46 100.81L119.53 100.88L119.48 100.82Q124.74 99.08 128.74 98.70L128.69 98.65L128.65 98.61Q133.57 92.52 138.70 81.39L138.66 81.36L144.33 81.70L144.30 81.68Q144.21 80.21 144.21 78.71L144.23 78.73L144.27 75.83L144.17 75.73Q143.78 75.78 142.87 75.84L142.82 75.79L142.92 75.89Q141.97 75.91 141.53 75.91L141.42 75.80L141.53 75.91Q141.42 75.61 141.48 75.36L141.50 75.37L141.52 74.96L141.57 75.00Q145.67 66.54 150.74 58.91Z"/><path d="M18 111 C151 77,162 13,341 23" stroke="#ebeb93" fill="none"/><path d="M21 116 C162 26,154 36,337 65" stroke="#4191e1" fill="none"/><path d="M5 93 C161 29,186 121,324 4" stroke="#e46439" fill="none"/><path d="M8 13 C180 20,184 105,322 89" stroke="#e29345" fill="none"/><path d="M8 10 C187 134,173 50,338 84" stroke="#37e18c" fill="none"/><path d="M12 79 C160 44,174 7,337 9" stroke="#8080e4" fill="none"/></svg>