<svg xmlns="http://www.w3.org/2000/svg" width="342" height="140" viewBox="0,0,342,140"><path d="M5 35 C161 69,168 120,325 10" stroke="#9656d6" fill="none"/><path d="M8 90 C182 53,167 120,337 86" stroke="#ec78ec" fill="none"/><path d="M10 52 C187 118,181 86,333 78" stroke="#94ee76" fill="none"/><path d="M11 87 C187 88,160 138,323 95" stroke="#b27be9" fill="none"/><path d="M12 35 C156 72,175 130,324 24" stroke="#73e28f" fill="none"/><path fill="#5d9edf" d="M194.46 96.35L194.50 96.39L194.43 96.33Q187.58 96.85 185.88 92.87L185.73 92.71L185.87 92.86Q187.16 91.20 189.83 88.14L189.72 88.02L189.76 88.06Q190.61 91.52 195.76 91.72L195.77 91.73L195.80 91.75Q201.58 91.86 204.39 89.58L204.38 89.57L204.31 89.50Q206.78 86.81 206.65 82.18L206.66 82.19L206.71 82.24Q206.35 73.46 198.13 73.85L198.11 73.83L198.19 73.92Q193.30 74.11 190.29 76.26L190.43 76.40L189.87 76.10L189.44 75.80L189.49 75.85Q190.10 70.46 189.91 65.76L189.82 65.68L189.75 65.60Q189.64 61.19 189.06 55.51L189.00 55.45L189.03 55.48Q195.25 57.07 201.77 56.87L201.78 56.88L201.86 56.96Q208.31 56.76 214.45 54.60L214.57 54.73L213.56 57.30L213.51 57.25Q213.09 58.66 212.77 60.10L212.73 60.07L212.71 60.05Q207.23 61.68 200.57 61.68L200.59 61.69L200.64 61.74Q198.10 61.69 195.56 61.43L195.72 61.59L195.59 61.46Q195.57 62.74 194.98 70.38L194.95 70.35L194.87 70.27Q196.40 69.58 199.92 69.32L199.93 69.33L199.97 69.36Q206.19 69.57 208.67 72.45L208.84 72.62L208.71 72.49Q211.13 75.17 211.59 81.77L211.62 81.80L211.53 81.71Q212.01 88.91 209.92 92.37L209.95 92.40L209.94 92.38Q206.42 95.59 200.75 95.98L200.81 96.05L200.72 95.95Q199.00 96.06 194.43 96.32ZM204.84 100.27L204.78 100.21L204.91 100.34Q210.74 100.43 214.01 98.54L213.99 98.52L213.94 98.47Q215.58 95.81 215.58 92.22L215.65 92.29L215.70 92.34Q215.70 87.05 214.07 80.00L214.02 79.95L214.02 79.95Q213.43 77.02 211.34 74.60L211.22 74.48L211.31 74.63L211.00 74.19L210.38 73.83L210.41 73.87Q209.81 72.55 208.70 71.37L208.68 71.35L208.83 71.57L208.69 71.42Q206.23 68.71 199.90 68.71L199.87 68.67L199.33 68.59L199.36 68.62Q199.55 67.70 199.87 65.81L199.91 65.85L199.81 65.74Q208.36 65.94 215.28 63.13L215.38 63.24L215.36 63.21Q216.05 60.78 217.69 55.95L217.62 55.89L213.99 57.47L214.08 57.56Q214.79 55.66 215.64 53.71L215.65 53.72L215.49 53.56Q208.88 56.02 201.83 56.15L201.84 56.16L201.87 56.18Q194.83 56.39 188.04 54.50L188.16 54.62L188.04 54.50Q189.21 62.06 189.21 69.63L189.32 69.75L189.30 69.73Q189.28 72.96 189.08 76.23L188.99 76.13L189.09 76.24Q189.45 76.47 190.43 76.99L190.40 76.96L190.42 76.98Q191.16 76.74 192.27 76.15L192.26 76.14L192.15 76.03Q192.08 77.33 191.68 79.94L191.73 79.98L191.65 79.90Q192.35 80.21 193.07 80.61L193.26 80.80L193.24 80.78Q197.90 77.67 201.10 77.67L201.09 77.67L201.12 77.69Q203.45 77.73 205.47 78.84L205.49 78.87L205.51 78.88Q206.02 80.57 206.09 82.21L206.10 82.22L206.08 82.19Q206.29 86.71 204.53 88.60L204.39 88.46L204.40 88.47Q202.17 90.69 198.32 91.08L198.21 90.97L198.24 90.99Q196.69 91.21 195.51 91.08L195.43 90.99L195.39 90.96Q194.07 90.87 192.76 90.28L192.62 90.14L192.68 89.87L192.38 89.97L192.36 89.95Q191.12 89.22 190.20 86.94L190.15 86.88L190.10 86.84Q187.85 89.28 184.98 92.94L185.01 92.98L184.97 92.93Q185.60 94.15 187.04 95.79L186.93 95.68L186.90 95.65Q188.74 98.79 193.57 99.64L193.65 99.72L193.57 99.64Q195.69 100.13 204.89 100.32Z"/><path d="M14 137 C160 51,165 61,340 1" stroke="#e39b53" fill="none"/><path d="M12 32 C187 138,169 10,334 41" stroke="#e2e24a" fill="none"/><path d="M4 49 C161 70,161 120,339 49" stroke="#a8e593" fill="none"/><path d="M11 37 C182 112,176 60,341 74" stroke="#91e240" fill="none"/><path d="M10 108 C158 96,167 98,331 26" stroke="#d99e62" fill="none"/><path d="M17 123 C177 80,159 63,330 126" stroke="#7f60dc" fill="none"/><path d="M4 91 C167 32,152 17,322 33" stroke="#73c2dd" fill="none"/><path fill="#60e0c0" d="M261.46 96.40L261.43 96.37L261.32 96.26Q258.87 96.36 256.20 95.64L256.34 95.78L256.29 95.73Q254.13 94.09 253.87 91.28L253.90 91.32L253.95 91.36Q253.92 91.07 254.24 86.57L254.22 86.55L254.19 86.52Q255.91 86.15 259.37 85.50L259.40 85.53L259.07 86.83L259.10 86.86Q258.56 89.78 260.98 90.76L261.00 90.78L261.02 90.80Q262.42 91.42 266.01 91.42L266.03 91.44L265.99 91.40Q268.77 91.18 269.09 91.04L269.11 91.06L269.16 91.11Q270.67 90.79 271.91 89.94L271.78 89.82L271.78 89.82Q274.19 88.18 273.87 84.59L274.01 84.74L273.97 84.69Q273.64 80.52 270.67 77.84L270.60 77.77L270.64 77.81Q267.74 75.20 263.50 75.20L263.48 75.18L263.45 74.76L263.52 74.83Q264.09 74.68 265.59 74.55L265.67 74.64L265.53 74.49Q268.77 74.27 271.12 72.15L271.25 72.29L271.21 72.24Q273.63 70.20 273.89 67.00L273.81 66.92L273.89 66.99Q273.88 66.27 273.88 65.69L273.88 65.68L274.06 65.86Q273.92 63.11 271.57 61.54L271.55 61.53L271.59 61.57Q269.59 60.28 266.85 60.47L266.79 60.42L266.74 60.36Q264.61 60.19 262.52 60.91L262.40 60.79L262.46 60.85Q260.05 61.83 259.52 63.79L259.41 63.68L259.42 63.68Q259.07 64.97 259.20 66.28L259.20 66.27L259.29 66.36Q257.52 65.96 254.00 64.72L253.92 64.65L254.06 64.79Q253.54 61.78 253.60 60.35L253.60 60.34L253.61 60.35Q253.95 57.89 255.78 56.72L255.63 56.56L255.67 56.61Q258.05 55.53 260.79 55.53L260.83 55.56L260.93 55.67Q266.21 55.47 271.63 55.92L271.67 55.96L271.70 56.00Q280.25 56.59 279.73 63.05L279.83 63.15L279.85 63.17Q279.61 65.60 278.76 68.28L278.94 68.46L278.84 68.36Q277.26 73.63 273.22 75.20L273.14 75.12L273.20 75.18Q277.72 76.11 278.77 81.86L278.79 81.88L278.71 81.80Q279.21 83.87 279.34 87.33L279.22 87.21L279.30 87.28Q279.53 94.89 271.64 95.68L271.77 95.81L271.76 95.80Q270.34 95.75 261.26 96.20ZM270.30 100.15L270.35 100.20L270.31 100.16Q271.44 100.31 276.34 100.44L276.29 100.39L276.33 100.43Q279.27 100.50 282.07 99.39L281.98 99.30L281.97 99.29Q284.15 97.81 283.82 94.81L283.76 94.75L283.75 94.74Q283.65 92.55 283.13 89.55L283.10 89.51L282.93 89.35Q281.81 81.77 278.48 78.96L278.43 78.91L278.15 78.30L278.01 78.09L278.01 78.09Q281.02 75.63 282.33 68.12L282.46 68.26L282.35 68.14Q282.37 67.31 282.56 65.68L282.59 65.71L282.72 65.84Q282.76 64.44 282.63 63.27L282.56 63.20L282.60 63.24Q282.34 60.37 280.12 59.19L280.09 59.16L279.95 59.16L280.02 59.23Q279.43 57.46 277.47 56.55L277.64 56.72L277.48 56.56Q274.96 55.47 266.15 54.95L266.08 54.88L266.22 55.01Q263.35 54.89 260.61 54.89L260.51 54.79L260.53 54.81Q257.69 54.71 255.08 55.82L255.14 55.88L255.26 56.00Q253.05 57.19 253.05 60.19L253.10 60.23L253.05 60.18Q252.98 59.39 253.43 65.14L253.58 65.28L253.45 65.15Q254.15 65.47 256.96 66.51L256.93 66.48L256.86 66.41Q256.76 67.23 256.70 68.08L256.76 68.13L256.87 68.25Q256.83 69.06 256.90 69.98L256.93 70.00L256.77 69.84Q260.02 70.68 263.48 70.88L263.37 70.77L263.42 70.82Q263.29 67.36 265.18 65.92L265.17 65.91L265.22 65.97Q266.54 64.74 270.00 64.35L270.11 64.45L270.04 64.39Q272.08 64.46 273.05 64.79L272.95 64.69L272.98 64.71Q272.97 64.84 273.04 65.04L273.13 65.12L273.18 65.50L273.33 66.43L273.28 66.38Q273.29 66.73 273.23 66.99L273.31 67.07L273.30 67.06Q273.18 70.00 270.57 72.03L270.55 72.01L270.58 72.04Q268.97 73.57 265.52 73.89L265.54 73.91L265.53 73.91Q264.14 74.02 262.64 74.02L262.70 74.08L262.82 74.20Q262.84 74.74 263.10 75.92L263.01 75.82L263.00 75.82Q266.16 75.97 268.64 77.21L268.49 77.06L268.43 77.20L265.62 77.39L265.67 77.44Q265.68 77.97 265.87 79.01L265.90 79.05L266.03 79.17Q269.67 79.02 272.60 81.31L272.57 81.28L272.61 81.31Q272.92 81.88 273.44 84.69L273.39 84.64L273.49 84.73Q273.80 89.75 268.78 90.47L268.70 90.39L268.68 90.37Q265.17 90.90 264.19 90.84L264.09 90.74L264.21 90.86Q263.31 90.55 262.40 90.42L262.52 90.54L262.46 89.70L262.58 88.83L262.72 88.26L262.87 87.82L262.84 87.79Q261.22 87.94 259.85 88.26L259.87 88.29L259.72 88.14Q259.81 87.90 259.81 87.57L259.80 87.56L259.72 87.48Q259.81 87.18 259.81 86.79L259.84 86.82L259.70 86.68Q259.79 85.99 260.05 84.75L260.14 84.83L260.11 84.81Q257.01 85.29 253.81 85.88L253.73 85.79L253.79 85.85Q253.76 86.67 253.56 88.60L253.43 88.47L253.56 88.60Q253.26 90.42 253.26 91.46L253.25 91.45L253.26 91.46Q253.42 95.01 255.77 96.32L255.79 96.34L255.89 96.44Q258.44 100.36 266.53 100.03L266.49 99.99L266.47 99.97Q267.71 99.91 270.32 100.17Z"/><path d="M19 132 C157 31,187 95,339 30" stroke="#95d3e8" fill="none"/><path d="M2 82 C180 24,153 124,328 78" stroke="#5cdfbf" fill="none"/><path fill="#c6e664" d="M131.03 60.72L131.03 60.72L128.35 60.91L128.46 61.02Q124.65 61.26 124.26 64.72L124.22 64.68L124.24 64.70Q123.96 65.79 124.02 67.49L124.18 67.64L124.19 67.66Q124.10 70.82 126.25 73.11L126.26 73.11L126.33 73.19Q128.50 75.49 131.76 75.23L131.71 75.17L131.70 75.17Q135.32 75.00 136.63 73.43L136.53 73.33L136.66 73.47Q138.45 71.87 138.91 68.02L138.93 68.03L138.85 67.95Q139.27 64.07 137.12 62.64L137.12 62.64L137.12 62.64Q135.75 61.40 131.19 60.88ZM141.54 76.72L141.58 76.75L139.18 80.49L139.27 80.58Q134.57 88.74 128.11 95.72L128.16 95.77L128.13 95.74Q125.31 95.98 120.67 97.35L120.63 97.31L120.69 97.37Q129.80 86.57 135.21 78.35L135.21 78.35L135.24 78.37Q133.52 79.53 130.72 79.66L130.70 79.65L130.75 79.70Q125.50 79.86 122.89 76.47L123.05 76.62L122.99 76.57Q120.78 73.71 118.89 65.87L118.92 65.91L118.89 65.88Q119.06 65.26 118.80 63.66L118.61 63.48L118.75 63.61Q118.54 62.07 118.54 61.29L118.40 61.14L118.44 61.19Q118.35 58.03 120.17 56.98L120.20 57.00L120.30 57.11Q122.39 55.80 125.58 55.80L125.49 55.71L125.59 55.80Q131.10 55.83 131.10 55.83L131.08 55.81L131.00 55.73Q134.82 55.90 136.97 56.22L136.91 56.16L136.97 56.22Q140.50 56.55 142.07 57.40L142.09 57.42L142.20 57.54Q144.53 58.82 144.85 61.82L144.73 61.69L144.88 61.85Q144.85 62.21 144.53 66.78L144.53 66.78L144.41 66.66Q143.86 70.42 143.46 71.85L143.50 71.89L143.44 71.83Q142.71 74.16 141.40 76.57ZM144.76 80.79L144.77 80.79L144.84 80.86Q146.43 76.97 147.34 69.60L147.45 69.70L147.40 69.65Q147.82 65.84 147.76 64.33L147.82 64.39L147.84 64.42Q147.62 61.06 145.59 59.49L145.68 59.58L145.05 59.28L145.05 59.28Q144.74 58.12 143.17 57.01L143.03 56.86L143.10 56.93Q139.25 55.31 131.03 55.05L131.06 55.08L130.99 55.01Q129.43 55.07 125.25 55.07L125.23 55.05L125.17 54.99Q122.07 54.90 119.53 56.07L119.55 56.10L119.62 56.17Q117.71 57.59 117.84 60.72L117.69 60.57L117.87 60.75Q118.07 62.19 118.40 65.65L118.47 65.71L118.39 65.64Q119.57 70.27 120.02 71.71L119.92 71.61L119.98 71.66Q120.94 74.85 122.57 77.07L122.65 77.14L122.60 77.09Q122.95 77.57 123.60 78.23L123.73 78.35L123.76 78.39Q124.20 79.15 125.31 80.71L125.29 80.69L125.18 80.59Q127.83 83.04 131.16 83.37L131.06 83.27L131.11 83.32Q127.89 87.93 125.21 91.19L125.11 91.09L119.04 98.72L119.06 98.75Q122.76 97.29 125.56 96.70L125.64 96.77L125.53 96.67Q124.28 98.22 121.60 101.15L121.63 101.18L121.56 101.12Q126.94 99.64 132.29 99.57L132.22 99.51L132.26 99.54Q136.22 95.08 143.66 82.68L143.77 82.79L143.68 82.84L143.67 82.82Q144.18 81.64 144.77 80.79ZM134.45 64.93L134.47 64.95L134.45 64.93Q135.42 64.66 136.21 64.86L136.34 64.99L136.31 64.96Q137.45 65.18 138.10 65.38L137.95 65.23L137.94 65.22Q138.15 65.89 138.28 66.60L138.27 66.60L138.44 66.77Q138.44 67.35 138.24 68.00L138.19 67.94L138.30 68.06Q138.13 70.89 136.11 72.78L136.28 72.96L136.16 72.84Q134.53 74.60 131.72 74.53L131.70 74.51L131.80 74.62Q131.05 74.58 128.44 74.06L128.39 74.01L128.39 74.00Q127.99 72.50 127.99 71.26L127.96 71.23L128.07 71.34Q127.97 70.91 127.97 70.52L127.94 70.49L127.95 70.50Q127.82 66.58 131.73 65.21L131.85 65.32L131.77 65.24Q132.98 64.89 134.41 64.89Z"/><path d="M4 83 C170 107,186 82,335 58" stroke="#a894e5" fill="none"/><path d="M7 131 C158 54,156 122,327 122" stroke="#db8366" fill="none"/><path d="M18 48 C164 73,153 73,337 22" stroke="#e17993" fill="none"/><path d="M12 68 C178 123,170 135,329 25" stroke="#dfdf7a" fill="none"/><path d="M17 74 C184 119,167 122,322 6" stroke="#74ebeb" fill="none"/><path d="M14 34 C156 17,151 134,329 126" stroke="#e6bf4b" fill="none"/><path d="M3 79 C170 6,187 56,331 128" stroke="#e67ecc" fill="none"/><path d="M4 14 C189 91,190 114,329 5" stroke="#42e0e0" fill="none"/><path d="M16 59 C163 55,174 84,335 112" stroke="#e6ab97" fill="none"/><path d="M15 60 C176 46,186 133,323 94" stroke="#e84e4e" fill="none"/><path d="M11 22 C180 118,155 101,339 103" stroke="#8383f0" fill="none"/><path d="M19 96 C158 136,174 60,340 137" stroke="#bce14b" fill="none"/><path d="M13 39 C151 66,163 32,324 4" stroke="#65da3e" fill="none"/><path d="M17 55 C165 30,164 25,335 59" stroke="#b2e67e" fill="none"/><path d="M20 18 C181 64,161 39,327 22" stroke="#81edd2" fill="none"/><path d="M3 108 C152 84,187 66,332 73" stroke="#52b4d5" fill="none"/><path d="M3 123 C159 12,165 15,331 9" stroke="#e88f71" fill="none"/><path d="M2 19 C165 119,161 14,326 88" stroke="#de4e4e" fill="none"/><path fill="#4396e9" d="M58.52 90.45L58.53 90.46L58.44 90.36Q60.47 92.00 62.88 91.74L62.94 91.79L62.85 91.71Q67.93 92.09 69.04 86.35L69.10 86.40L69.03 86.34Q69.98 80.82 69.98 75.01L70.06 75.09L69.98 70.57L70.12 70.72Q70.13 68.58 69.55 66.42L69.54 66.42L69.46 66.34Q67.47 70.42 64.08 78.57L63.96 78.46L64.08 78.58Q60.57 86.62 58.48 90.40ZM67.10 62.15L67.14 62.19L67.11 62.16Q65.07 60.71 62.79 60.71L62.85 60.77L62.79 60.71Q60.38 60.59 58.49 62.15L58.48 62.15L58.38 62.04Q56.57 63.69 56.24 66.24L56.29 66.29L56.13 66.13Q55.66 68.59 55.60 71.14L55.51 71.05L55.53 71.07Q55.51 71.06 55.51 75.95L55.57 76.01L55.60 76.04Q55.51 80.00 56.30 86.20L56.28 86.18L56.27 86.17Q59.53 78.01 67.04 62.09ZM69.79 94.41L69.82 94.43L69.80 94.41Q66.81 95.99 62.83 95.99L62.83 95.99L59.91 95.88L59.98 95.95Q54.39 95.91 52.43 92.97L52.52 93.06L52.54 93.08Q51.17 89.36 51.04 84.33L50.94 84.23L50.96 84.25Q50.84 81.20 50.71 75.26L50.79 75.34L50.73 75.28Q50.68 73.21 50.42 67.99L50.46 68.03L50.49 68.06Q50.32 64.10 50.85 60.71L50.79 60.65L50.87 60.73Q51.70 55.69 59.14 55.30L59.23 55.39L59.09 55.25Q60.38 55.17 62.67 55.23L62.65 55.22L62.78 55.35Q72.42 55.53 74.25 61.47L74.22 61.44L74.37 61.59Q75.26 64.69 75.19 67.89L75.33 68.03L75.25 67.95Q75.06 76.44 74.93 78.53L75.03 78.63L74.94 78.54Q74.64 85.09 74.12 87.31L74.13 87.32L74.24 87.43Q73.05 92.70 69.78 94.40ZM78.38 94.11L78.21 93.95L78.37 94.11Q78.58 89.16 78.51 86.09L78.56 86.14L78.41 78.22L78.40 78.22Q78.36 73.15 77.45 63.69L77.40 63.64L77.50 63.74Q76.59 60.61 74.37 59.30L74.32 59.25L74.22 59.16Q71.70 54.93 62.82 54.67L62.66 54.51L62.81 54.67Q61.25 54.54 58.97 54.60L58.93 54.57L59.05 54.68Q51.24 54.77 50.39 60.12L50.37 60.11L50.33 60.06Q49.79 64.15 49.98 67.74L49.93 67.69L49.87 67.63Q50.51 75.18 50.44 80.93L50.33 80.81L50.49 80.98Q50.35 87.24 50.55 89.00L50.56 89.01L50.57 89.02Q51.27 94.35 53.88 95.72L53.74 95.58L53.75 95.59Q56.27 99.35 63.12 99.80L63.20 99.88L63.22 99.91Q69.24 100.18 70.35 100.12L70.54 100.31L70.42 100.19Q75.42 100.04 77.38 97.30L77.28 97.19L77.32 97.24Q78.22 96.11 78.35 94.09ZM63.57 91.12L63.59 91.14L63.57 91.12Q64.64 88.53 66.47 83.90L66.45 83.89L69.45 76.70L69.48 76.73Q69.44 79.56 68.78 85.30L68.74 85.26L68.75 85.27Q67.67 90.26 63.56 91.11ZM60.06 69.92L60.22 70.08L60.04 69.91Q60.89 66.91 62.07 65.93L62.01 65.87L62.17 66.03Q62.93 65.29 65.15 64.96L65.17 64.98L65.17 64.99Q62.11 71.13 58.91 79.09L58.90 79.07L59.05 79.23Q59.04 74.58 60.21 70.08Z"/><path d="M18 32 C176 19,172 87,327 89" stroke="#87baed" fill="none"/><path d="M13 131 C159 138,179 5,324 55" stroke="#df75c5" fill="none"/><path d="M8 128 C153 105,161 79,340 98" stroke="#e990e9" fill="none"/><path d="M20 60 C169 25,171 112,335 95" stroke="#3964e4" fill="none"/><path d="M7 81 C162 86,162 3,324 27" stroke="#8a6edd" fill="none"/><path d="M19 25 C185 113,184 129,331 22" stroke="#5bd67a" fill="none"/><path d="M9 78 C154 132,155 84,322 89" stroke="#d3eb8e" fill="none"/><path d="M17 22 C175 132,152 29,321 11" stroke="#984ce5" fill="none"/></svg>