<svg xmlns="http://www.w3.org/2000/svg" width="342" height="140" viewBox="0,0,342,140"><path d="M4 33 C170 45,169 39,332 43" stroke="#74e0c5" fill="none"/><path d="M20 88 C172 129,176 40,327 37" stroke="#eb79eb" fill="none"/><path d="M2 65 C174 50,157 20,335 133" stroke="#e6bf4b" fill="none"/><path d="M6 118 C163 89,166 114,337 65" stroke="#eb5aeb" fill="none"/><path d="M13 4 C176 53,188 118,340 23" stroke="#85dd68" fill="none"/><path d="M3 88 C183 44,157 122,323 86" stroke="#af74eb" fill="none"/><path d="M16 125 C164 25,190 71,330 112" stroke="#d193e5" fill="none"/><path fill="#49e349" d="M46.59 91.41L46.72 91.54L46.72 91.54Q48.79 93.20 51.34 92.92L51.34 92.92L51.37 92.95Q56.55 93.19 57.71 87.15L57.80 87.23L57.68 87.12Q58.73 81.37 58.73 75.26L58.78 75.31L58.78 70.64L58.75 70.61Q58.88 68.47 58.26 66.21L58.15 66.09L58.16 66.10Q55.99 70.32 52.42 78.91L52.53 79.01L52.53 79.01Q48.81 87.45 46.62 91.43ZM55.80 61.82L55.65 61.67L55.82 61.84Q53.63 60.27 51.23 60.27L51.27 60.31L51.30 60.34Q48.61 60.05 46.61 61.70L46.65 61.74L46.57 61.65Q44.62 63.35 44.28 66.02L44.23 65.97L44.17 65.92Q43.58 68.41 43.51 71.09L43.54 71.12L43.57 71.15Q43.50 71.08 43.50 76.23L43.58 76.31L43.59 76.32Q43.49 80.48 44.31 87.00L44.35 87.04L44.33 87.01Q47.90 78.57 55.80 61.82ZM58.61 95.73L58.54 95.67L58.53 95.66Q55.37 97.30 51.18 97.30L51.16 97.28L48.33 97.40L48.30 97.37Q42.37 97.27 40.31 94.18L40.31 94.19L40.28 94.16Q38.96 90.37 38.82 85.08L38.70 84.95L38.83 85.09Q38.75 81.92 38.61 75.67L38.59 75.65L38.47 75.53Q38.47 73.39 38.19 67.90L38.16 67.87L38.23 67.94Q38.10 63.83 38.65 60.26L38.61 60.22L38.67 60.28Q39.46 54.89 47.29 54.47L47.42 54.61L47.37 54.56Q48.67 54.42 51.08 54.49L51.15 54.56L51.19 54.60Q61.31 54.77 63.24 61.02L63.30 61.08L63.28 61.06Q64.37 64.48 64.30 67.85L64.31 67.86L64.25 67.80Q64.23 76.91 64.09 79.10L64.14 79.16L64.05 79.07Q63.75 85.97 63.20 88.31L63.20 88.31L63.17 88.28Q61.89 93.80 58.46 95.58ZM67.45 95.24L67.41 95.19L67.50 95.29Q67.92 90.28 67.85 87.06L67.89 87.09L67.70 78.73L67.78 78.81Q67.60 73.34 66.63 63.39L66.67 63.42L66.62 63.38Q65.57 59.99 63.24 58.62L63.25 58.62L63.21 58.59Q60.48 54.07 51.14 53.80L51.14 53.80L51.16 53.82Q49.55 53.71 47.14 53.78L47.11 53.75L47.25 53.89Q38.91 53.85 38.02 59.48L38.05 59.52L38.12 59.59Q37.38 63.72 37.59 67.50L37.62 67.53L37.56 67.48Q38.15 75.35 38.08 81.39L38.22 81.52L38.21 81.51Q38.13 88.16 38.33 90.02L38.23 89.91L38.27 89.95Q39.07 95.62 41.81 97.06L41.76 97.01L41.71 96.96Q44.35 100.90 51.55 101.38L51.70 101.53L51.69 101.52Q58.06 101.84 59.23 101.77L59.30 101.85L59.30 101.84Q64.47 101.59 66.53 98.71L66.48 98.66L66.52 98.70Q67.38 97.43 67.51 95.30ZM51.90 92.11L51.92 92.14L51.98 92.19Q53.14 89.51 55.06 84.63L55.21 84.78L58.26 77.12L58.14 77.00Q58.13 80.02 57.45 86.06L57.43 86.04L57.44 86.05Q56.32 91.31 51.99 92.21ZM48.39 69.99L48.37 69.98L48.33 69.94Q49.19 66.74 50.42 65.71L50.50 65.79L50.53 65.82Q51.20 64.91 53.53 64.57L53.54 64.57L53.56 64.59Q50.55 71.26 47.19 79.64L47.22 79.67L47.18 79.64Q47.12 74.70 48.36 69.96Z"/><path d="M19 28 C191 45,156 83,329 28" stroke="#50d750" fill="none"/><path d="M10 66 C187 85,170 32,337 58" stroke="#ea93a9" fill="none"/><path d="M2 4 C174 86,177 3,325 79" stroke="#e65ac3" fill="none"/><path d="M19 139 C182 21,174 117,324 103" stroke="#db56db" fill="none"/><path d="M9 75 C177 40,171 87,333 55" stroke="#dcbe65" fill="none"/><path d="M12 101 C186 33,186 55,329 105" stroke="#6b45dd" fill="none"/><path d="M13 23 C185 80,173 5,322 50" stroke="#3c65e0" fill="none"/><path d="M15 11 C192 30,163 121,335 110" stroke="#ecec73" fill="none"/><path d="M3 24 C155 126,167 72,326 5" stroke="#77dc55" fill="none"/><path d="M17 109 C163 8,154 93,339 23" stroke="#e6bc3b" fill="none"/><path d="M16 98 C169 72,181 22,322 53" stroke="#58debc" fill="none"/><path d="M11 8 C151 34,157 95,331 103" stroke="#5fc5e7" fill="none"/><path d="M16 92 C174 94,152 66,325 59" stroke="#ecec6e" fill="none"/><path fill="#82e462" d="M221.48 77.62L221.51 77.65L221.46 77.60Q218.11 77.61 215.91 80.01L215.81 79.91L215.90 80.00Q213.70 82.40 213.42 85.84L213.36 85.77L213.35 85.76Q212.98 89.58 215.18 91.40L215.22 91.44L215.29 91.52Q217.48 93.32 221.32 93.18L221.37 93.23L221.19 93.05Q225.47 92.87 227.18 91.15L227.15 91.12L227.09 91.06Q229.03 88.54 228.83 85.24L228.81 85.22L228.82 85.23Q228.61 81.87 226.66 79.70L226.75 79.80L226.67 79.72Q224.76 77.60 221.46 77.60ZM221.42 60.60L221.38 60.56L221.25 60.43Q218.82 60.33 216.42 61.23L216.42 61.23L216.47 61.28Q214.14 62.73 214.56 66.09L214.47 66.01L214.38 65.92Q215.30 72.68 221.34 72.68L221.43 72.76L221.40 72.73Q224.26 73.12 226.04 71.06L225.99 71.00L225.93 70.94Q227.74 68.91 227.81 66.10L227.84 66.12L227.77 66.06Q228.03 63.03 226.73 61.93L226.61 61.81L226.63 61.83Q223.74 60.45 221.41 60.59ZM220.81 97.54L220.93 97.67L215.47 97.70L215.34 97.57Q212.70 97.68 210.30 96.10L210.28 96.08L210.27 96.07Q207.72 93.94 208.00 88.79L208.11 88.90L208.12 88.91Q208.93 76.53 215.45 74.75L215.38 74.67L215.40 74.70Q211.32 73.09 208.92 63.41L208.90 63.39L208.87 63.36Q208.26 60.83 208.40 59.38L208.36 59.35L208.39 59.37Q208.92 55.51 215.58 55.44L215.55 55.41L215.51 55.37Q223.23 55.33 225.84 55.68L225.78 55.62L225.82 55.66Q232.70 56.57 233.52 60.21L233.59 60.27L233.60 60.28Q233.74 61.32 233.74 62.01L233.73 61.99L233.82 62.08Q233.79 63.29 233.45 64.39L233.47 64.41L233.34 64.28Q232.27 71.93 226.98 74.67L227.07 74.76L227.09 74.78Q233.38 76.20 234.27 85.74L234.32 85.79L234.31 85.78Q234.16 85.90 234.22 88.23L234.30 88.31L234.41 88.42Q234.50 93.32 231.62 95.24L231.57 95.19L231.55 95.17Q229.04 96.71 220.80 97.54ZM225.04 101.85L225.03 101.84L230.94 101.84L231.05 101.95Q234.09 102.04 236.84 100.73L236.92 100.82L236.93 100.83Q238.98 99.51 239.12 96.15L239.05 96.08L238.99 96.02Q239.09 94.06 238.40 90.56L238.43 90.59L238.38 90.53Q236.74 82.16 232.96 78.80L233.02 78.86L232.59 78.08L232.28 77.64L232.03 77.19L232.10 77.25Q235.05 74.78 236.70 67.30L236.58 67.17L236.57 67.17Q236.58 66.49 236.72 64.98L236.83 65.09L236.83 65.09Q236.96 63.85 236.83 62.75L236.80 62.73L236.77 62.69Q236.57 60.17 234.44 59.27L234.35 59.18L234.47 59.23L234.03 58.92L234.06 58.96Q233.55 57.62 231.42 56.18L231.50 56.26L231.57 56.26L231.53 56.22Q228.00 55.03 220.65 54.68L220.71 54.74L220.58 54.60Q217.85 54.49 215.38 54.70L215.42 54.73L215.46 54.78Q213.87 54.70 211.54 54.97L211.56 54.99L211.61 55.04Q208.11 55.74 207.70 58.69L207.63 58.62L207.61 58.60Q207.59 59.54 207.66 60.98L207.64 60.96L207.77 61.10Q207.82 61.90 208.85 66.16L208.90 66.20L208.96 66.26Q210.37 72.08 213.53 74.48L213.61 74.55L213.67 74.62L213.72 74.66Q208.61 76.90 207.65 86.24L207.65 86.24L207.74 86.33Q207.27 90.18 207.27 91.83L207.42 91.98L207.26 91.82Q207.44 95.10 209.57 96.75L209.55 96.72L209.67 96.84Q209.81 96.91 210.29 97.26L210.24 97.21L210.23 97.20Q212.05 101.28 224.89 101.70ZM224.43 81.88L224.40 81.84L224.47 81.91Q226.05 81.71 227.63 82.53L227.54 82.44L227.62 82.52Q228.24 84.24 228.17 85.20L228.27 85.30L228.25 85.28Q228.38 85.89 228.38 86.44L228.31 86.37L228.21 86.28Q228.25 90.56 224.13 92.07L224.14 92.09L224.16 92.11Q222.81 92.75 221.36 92.54L221.25 92.42L221.27 92.44Q219.33 92.70 217.27 91.88L217.32 91.93L217.27 91.88Q216.80 90.72 216.94 88.93L216.95 88.95L216.80 88.80Q217.16 86.00 219.32 83.81L219.35 83.83L219.24 83.72Q221.47 81.59 224.35 81.80ZM224.86 64.79L224.87 64.80L224.77 64.71Q226.30 64.59 227.26 64.86L227.09 64.69L227.21 66.25L227.15 66.19Q227.16 68.74 225.51 70.56L225.59 70.64L225.59 70.64Q223.91 72.43 221.44 72.08L221.41 72.05L221.41 72.06Q219.59 72.02 218.83 71.61L218.78 71.55L218.93 71.71Q218.72 71.09 218.52 69.85L218.50 69.84L218.63 69.96Q218.19 67.47 220.39 65.96L220.39 65.96L220.28 65.84Q222.18 64.59 224.72 64.66Z"/><path d="M7 3 C169 91,152 117,332 46" stroke="#d449d4" fill="none"/><path d="M18 31 C170 84,151 64,339 27" stroke="#7ee1e1" fill="none"/><path d="M7 21 C157 135,182 104,338 76" stroke="#dbbd66" fill="none"/><path d="M6 138 C158 118,159 122,335 135" stroke="#5858de" fill="none"/><path fill="#ca81e3" d="M171.69 73.96L171.74 74.01L171.70 73.96Q173.02 73.85 175.56 73.57L175.72 73.72L175.60 73.61Q175.55 74.79 175.55 75.96L175.60 76.01L175.60 78.28L175.54 78.21Q174.05 78.24 172.54 78.38L172.59 78.43L172.60 78.44Q170.99 78.40 169.48 78.33L169.43 78.29L169.48 78.34Q164.36 89.49 158.18 97.80L158.24 97.85L158.09 97.71Q153.69 99.00 151.35 100.10L151.28 100.03L151.42 100.17Q158.67 89.70 164.16 78.37L164.22 78.43L159.45 78.40L159.57 78.52Q159.46 76.01 159.25 73.60L159.37 73.72L159.32 73.67Q162.70 73.89 166.41 73.89L166.37 73.86L169.90 67.29L169.80 67.19Q171.69 63.86 173.89 60.98L173.80 60.89L173.87 60.96Q171.09 61.27 168.20 61.27L168.23 61.30L168.19 61.25Q157.19 61.24 150.40 57.26L150.31 57.17L149.22 54.17L149.11 54.05Q148.55 52.60 147.86 51.02L147.84 50.99L147.90 51.06Q155.64 55.71 165.94 56.12L166.02 56.20L165.93 56.12Q175.29 56.61 184.56 53.04L184.46 52.94L184.49 52.98Q184.15 53.73 183.26 55.31L183.28 55.33L183.35 55.40Q176.79 63.95 171.64 73.91ZM186.25 57.90L186.19 57.84L187.91 54.13L187.99 54.21Q186.32 55.15 183.30 56.46L183.22 56.37L183.56 55.83L183.68 55.94Q183.74 55.52 183.95 55.32L184.07 55.44L184.06 55.43Q184.73 54.17 186.03 51.77L186.07 51.80L186.02 51.76Q176.33 55.80 165.96 55.38L165.93 55.36L165.94 55.37Q155.27 55.06 146.69 49.71L146.53 49.56L146.53 49.55Q148.53 53.06 150.04 57.87L150.00 57.82L149.91 57.74Q152.00 59.00 153.44 59.55L153.36 59.47L153.43 59.54Q153.67 60.12 154.49 63.49L154.47 63.46L154.46 63.45Q160.27 65.83 170.22 65.56L170.16 65.49L170.19 65.52Q169.56 66.47 165.99 73.27L165.98 73.26L165.92 73.20Q162.37 73.35 158.79 73.01L158.70 72.91L158.82 73.03Q158.89 74.47 158.89 76.05L158.80 75.97L158.83 79.09L161.85 79.09L161.94 81.71L161.91 81.68Q154.87 95.04 149.86 101.49L149.73 101.36L149.85 101.48Q152.77 100.14 155.72 99.25L155.69 99.23L155.64 99.17Q154.41 100.83 151.94 103.92L151.95 103.92L152.04 104.02Q157.66 101.95 162.06 101.54L162.04 101.52L162.13 101.61Q167.36 94.76 172.99 82.54L173.01 82.56L179.12 82.83L179.23 82.94Q179.01 81.21 179.01 79.56L179.00 79.54L179.00 76.32L179.08 76.41Q178.55 76.35 177.55 76.42L177.51 76.38L177.54 76.41Q176.56 76.49 176.08 76.49L176.00 76.41L176.12 76.53Q175.99 76.19 176.06 75.92L176.04 75.90L176.05 75.43L176.12 75.50Q180.65 66.23 186.21 57.85Z"/><path d="M8 126 C158 120,190 8,339 56" stroke="#c470df" fill="none"/><path fill="#a2f187" d="M278.01 77.48L277.99 77.46L278.08 77.55Q274.69 77.53 272.49 79.93L272.52 79.96L272.45 79.88Q270.33 82.37 270.06 85.80L270.12 85.87L270.03 85.77Q269.65 89.58 271.85 91.40L271.83 91.39L271.93 91.49Q274.08 93.26 277.92 93.12L277.89 93.09L278.00 93.19Q282.09 92.82 283.80 91.10L283.76 91.06L283.94 91.24Q285.71 88.54 285.50 85.25L285.56 85.31L285.49 85.23Q285.22 81.81 283.26 79.65L283.40 79.79L283.24 79.62Q281.35 77.52 278.05 77.52ZM278.08 60.59L278.00 60.51L278.04 60.55Q275.53 60.38 273.13 61.27L273.12 61.27L273.08 61.23Q270.74 62.66 271.16 66.03L271.05 65.92L271.17 66.04Q271.95 72.66 278.00 72.66L278.06 72.72L278.07 72.73Q280.95 73.14 282.73 71.08L282.76 71.10L282.61 70.96Q284.49 68.99 284.56 66.18L284.60 66.22L284.44 66.07Q284.66 62.98 283.35 61.88L283.28 61.81L283.28 61.81Q280.36 60.40 278.03 60.54ZM277.50 97.57L277.46 97.53L272.13 97.70L271.97 97.53Q269.36 97.67 266.96 96.09L266.99 96.12L266.98 96.11Q264.51 94.06 264.79 88.91L264.70 88.82L264.76 88.88Q265.56 76.50 272.08 74.71L272.14 74.77L271.96 74.59Q267.99 73.10 265.59 63.42L265.56 63.38L265.59 63.42Q264.82 60.72 264.96 59.28L265.08 59.40L264.94 59.26Q265.49 55.42 272.15 55.35L272.16 55.36L272.27 55.47Q279.90 55.34 282.51 55.68L282.55 55.72L282.49 55.66Q289.50 56.70 290.32 60.34L290.15 60.17L290.17 60.18Q290.36 61.27 290.36 61.96L290.51 62.10L290.49 62.08Q290.35 63.18 290.01 64.28L290.05 64.32L290.09 64.36Q288.91 71.90 283.62 74.65L283.81 74.83L283.61 74.64Q289.94 76.09 290.83 85.63L290.89 85.69L290.86 85.66Q291.01 86.09 291.08 88.42L290.92 88.26L291.03 88.37Q291.11 93.26 288.23 95.18L288.14 95.10L288.28 95.23Q285.84 96.84 277.60 97.67ZM281.71 101.85L281.65 101.79L287.70 101.93L287.65 101.89Q290.80 102.08 293.54 100.77L293.47 100.70L293.54 100.77Q295.65 99.52 295.79 96.15L295.75 96.11L295.79 96.16Q295.72 94.02 295.03 90.52L295.13 90.62L295.01 90.50Q293.42 82.18 289.64 78.81L289.67 78.84L289.38 78.21L289.09 77.79L288.77 77.25L288.76 77.25Q291.72 74.79 293.37 67.30L293.27 67.20L293.33 67.26Q293.42 66.67 293.56 65.15L293.55 65.15L293.48 65.07Q293.67 63.89 293.53 62.79L293.55 62.81L293.47 62.73Q293.13 60.06 291.00 59.16L291.04 59.20L291.13 59.23L290.83 59.06L290.71 58.94Q290.39 57.79 288.26 56.35L288.26 56.35L288.18 56.20L288.19 56.22Q284.60 54.96 277.25 54.62L277.32 54.68L277.26 54.63Q274.45 54.42 271.98 54.63L272.05 54.70L272.06 54.71Q270.67 54.83 268.34 55.11L268.24 55.01L268.18 54.95Q264.76 55.71 264.34 58.67L264.40 58.72L264.39 58.71Q264.30 59.58 264.37 61.03L264.42 61.08L264.32 60.97Q264.53 61.94 265.56 66.20L265.49 66.13L265.54 66.18Q267.05 72.08 270.21 74.49L270.25 74.53L270.42 74.70L270.28 74.56Q265.39 77.02 264.43 86.35L264.25 86.17L264.39 86.31Q264.06 90.31 264.06 91.96L264.09 91.99L263.92 91.82Q264.08 95.06 266.21 96.71L266.31 96.81L266.31 96.82Q266.43 96.87 266.91 97.21L267.03 97.33L267.05 97.36Q268.81 101.37 281.65 101.78ZM281.04 81.82L281.01 81.79L281.10 81.87Q282.71 81.70 284.29 82.53L284.17 82.41L284.26 82.50Q284.90 84.24 284.84 85.20L284.83 85.20L284.81 85.18Q284.92 85.77 284.92 86.32L284.99 86.39L284.93 86.33Q284.98 90.63 280.86 92.14L280.80 92.08L280.80 92.08Q279.30 92.58 277.86 92.37L277.90 92.41L277.98 92.48Q275.90 92.61 273.84 91.79L273.97 91.91L273.98 91.92Q273.41 90.67 273.55 88.88L273.55 88.88L273.49 88.82Q273.87 86.04 276.03 83.85L276.03 83.84L276.02 83.84Q278.06 81.52 280.95 81.72ZM281.36 64.63L281.47 64.74L281.38 64.65Q282.83 64.45 283.79 64.73L283.81 64.74L283.77 66.14L283.86 66.23Q283.94 68.85 282.29 70.67L282.11 70.49L282.14 70.52Q280.51 72.36 278.04 72.02L278.04 72.01L278.17 72.15Q276.25 72.01 275.49 71.60L275.46 71.57L275.49 71.60Q275.49 71.19 275.29 69.95L275.28 69.95L275.30 69.96Q274.80 67.40 276.99 65.89L277.04 65.94L276.91 65.81Q278.87 64.61 281.41 64.68Z"/><path d="M17 65 C166 129,166 139,333 133" stroke="#82e29a" fill="none"/><path d="M14 59 C185 112,157 106,334 124" stroke="#eba056" fill="none"/><path d="M2 115 C160 96,165 70,322 12" stroke="#6987e1" fill="none"/><path d="M9 44 C187 60,154 69,324 5" stroke="#49c0e8" fill="none"/><path d="M15 113 C172 46,171 30,329 42" stroke="#a871de" fill="none"/><path d="M7 122 C169 63,162 4,331 46" stroke="#59ddbc" fill="none"/><path d="M20 87 C156 61,190 59,334 102" stroke="#e17855" fill="none"/><path d="M19 10 C173 118,173 120,326 2" stroke="#9090e8" fill="none"/><path d="M19 72 C170 52,174 44,327 116" stroke="#70e14b" fill="none"/><path d="M9 48 C164 42,169 42,324 81" stroke="#e877cc" fill="none"/><path d="M14 85 C161 38,171 29,328 5" stroke="#9172ed" fill="none"/><path d="M10 10 C160 131,173 52,330 11" stroke="#e95252" fill="none"/><path fill="#88a0e6" d="M108.15 60.28L108.20 60.34L105.41 60.57L105.40 60.56Q101.32 60.73 100.91 64.37L100.85 64.31L100.95 64.42Q100.72 65.63 100.79 67.41L100.93 67.55L100.82 67.45Q100.84 70.90 103.11 73.30L103.26 73.45L103.20 73.39Q105.39 75.72 108.82 75.44L108.79 75.41L108.88 75.50Q112.59 75.23 113.96 73.58L113.93 73.55L113.99 73.60Q115.95 72.00 116.43 67.95L116.44 67.95L116.32 67.84Q116.76 63.75 114.50 62.24L114.60 62.34L114.64 62.38Q112.94 60.82 108.14 60.27ZM119.09 76.99L119.14 77.04L116.73 81.09L116.83 81.18Q111.92 89.80 105.12 97.15L105.10 97.12L105.09 97.12Q102.13 97.38 97.25 98.82L97.24 98.81L97.20 98.78Q106.93 87.56 112.63 78.91L112.54 78.82L112.55 78.83Q110.79 80.09 107.84 80.23L107.73 80.12L107.73 80.12Q102.40 80.49 99.65 76.92L99.68 76.94L99.51 76.77Q97.45 74.03 95.46 65.79L95.33 65.66L95.43 65.76Q95.33 64.84 95.05 63.15L95.17 63.27L95.20 63.30Q94.80 61.49 94.80 60.67L94.77 60.64L94.87 60.73Q94.96 57.60 96.88 56.50L96.79 56.41L96.88 56.50Q98.96 55.01 102.32 55.01L102.33 55.01L102.34 55.03Q108.03 54.94 108.03 54.94L108.03 54.95L108.12 55.03Q112.02 55.09 114.28 55.43L114.24 55.39L114.39 55.54Q118.23 56.02 119.88 56.91L119.79 56.82L119.83 56.86Q122.25 58.18 122.59 61.34L122.70 61.45L122.59 61.33Q122.67 61.83 122.33 66.64L122.35 66.66L122.27 66.58Q121.66 70.50 121.25 72.01L121.17 71.94L121.07 71.83Q120.38 74.37 119.01 76.91ZM122.51 81.31L122.47 81.26L122.44 81.24Q124.41 77.44 125.37 69.68L125.29 69.60L125.35 69.66Q125.74 65.58 125.67 64.00L125.68 64.02L125.73 64.06Q125.58 60.62 123.45 58.97L123.41 58.93L122.99 58.85L123.02 58.88Q122.52 57.49 120.87 56.32L120.90 56.35L120.77 56.22Q116.75 54.54 108.10 54.26L108.15 54.31L108.05 54.21Q106.40 54.28 102.00 54.28L101.90 54.17L101.96 54.23Q98.69 54.12 96.01 55.36L96.05 55.39L96.06 55.40Q94.10 56.95 94.24 60.24L94.21 60.21L94.16 60.17Q94.44 61.75 94.79 65.39L94.94 65.55L94.95 65.55Q96.00 70.24 96.48 71.75L96.46 71.73L96.49 71.76Q97.37 74.98 99.09 77.32L99.23 77.46L99.27 77.50Q99.73 78.09 100.42 78.78L100.38 78.74L100.34 78.70Q100.87 79.57 102.03 81.22L101.94 81.13L102.02 81.20Q104.72 83.70 108.22 84.05L108.08 83.91L108.16 83.98Q104.75 88.81 101.93 92.24L101.96 92.27L95.50 100.23L95.32 100.04Q99.42 98.73 102.38 98.11L102.42 98.15L102.34 98.07Q101.08 99.77 98.26 102.86L98.30 102.89L98.15 102.74Q103.76 101.14 109.39 101.07L109.35 101.04L109.39 101.07Q113.61 96.44 121.44 83.39L121.46 83.41L121.45 83.54L121.37 83.46Q121.86 82.17 122.48 81.27ZM111.66 64.62L111.74 64.69L111.69 64.65Q112.69 64.34 113.51 64.55L113.57 64.60L113.58 64.61Q114.78 64.86 115.47 65.06L115.48 65.07L115.53 65.12Q115.70 65.77 115.84 66.53L115.76 66.45L115.81 66.50Q116.04 67.35 115.83 68.04L115.79 67.99L115.76 67.96Q115.70 71.06 113.57 73.05L113.48 72.96L113.62 73.10Q111.89 74.95 108.94 74.88L108.78 74.72L108.78 74.72Q108.17 74.86 105.42 74.31L105.41 74.30L105.45 74.34Q104.88 72.60 104.88 71.30L105.01 71.43L104.95 71.37Q104.74 70.82 104.74 70.41L104.75 70.41L104.78 70.45Q104.89 66.57 109.01 65.13L108.98 65.10L109.03 65.15Q110.20 64.67 111.71 64.67Z"/><path d="M3 7 C168 42,161 80,334 70" stroke="#ed9191" fill="none"/><path d="M9 23 C152 73,188 99,327 124" stroke="#8e43d9" fill="none"/><path d="M3 98 C167 120,153 32,330 52" stroke="#42e593" fill="none"/></svg>