<svg xmlns="http://www.w3.org/2000/svg" width="342" height="140" viewBox="0,0,342,140"><path d="M21 61 C190 115,169 33,329 67" stroke="#eda48b" fill="none"/><path d="M4 27 C176 14,156 29,326 113" stroke="#e372c7" fill="none"/><path fill="#d7b550" d="M121.81 91.73L121.72 91.65L121.81 91.74Q122.34 93.41 123.23 96.80L123.05 96.62L123.19 96.76Q115.96 94.39 108.23 94.84L108.29 94.90L108.35 94.95Q100.72 95.44 94.01 98.76L93.87 98.62L94.00 98.75Q94.28 97.50 94.34 97.63L94.46 97.74L94.46 97.74Q100.68 91.05 107.26 83.64L107.26 83.64L107.30 83.68Q114.56 75.15 116.54 67.29L116.60 67.35L116.58 67.34Q117.46 64.51 115.32 62.53L115.17 62.37L115.28 62.49Q113.17 60.54 110.16 60.79L110.07 60.70L110.01 60.64Q109.51 60.65 108.94 60.65L108.94 60.66L108.92 60.64Q106.34 60.61 104.24 62.15L104.27 62.18L104.23 62.14Q102.03 64.41 102.41 68.89L102.46 68.93L102.53 69.00Q99.55 68.45 97.51 67.69L97.51 67.69L97.51 67.69Q97.21 65.35 97.09 62.92L97.01 62.85L96.94 62.78Q96.94 60.16 97.96 58.24L97.83 58.11L97.95 58.22Q100.97 55.94 106.59 55.94L106.60 55.95L109.51 55.92L109.40 55.81Q113.30 55.94 114.90 56.14L114.94 56.17L114.82 56.05Q122.21 56.86 122.66 60.95L122.72 61.02L122.66 60.96Q122.84 61.97 122.72 63.31L122.69 63.29L122.65 63.24Q122.53 64.28 122.28 65.43L122.30 65.45L122.24 65.39Q119.48 78.99 106.76 90.49L106.92 90.65L106.89 90.62Q109.24 90.35 111.54 90.35L111.41 90.22L111.42 90.23Q116.93 90.30 121.72 91.64ZM120.84 56.77L120.78 56.71L120.84 56.77Q118.11 55.64 115.24 55.51L115.24 55.51L109.49 55.20L109.47 55.17Q101.99 54.73 98.28 56.58L98.37 56.67L98.26 56.56Q96.40 58.79 96.40 62.24L96.56 62.40L96.58 62.41Q96.48 63.47 96.99 68.20L97.11 68.32L97.11 68.31Q97.89 68.58 99.87 69.09L99.93 69.15L99.86 70.81L99.89 70.84Q99.93 71.71 100.06 72.61L100.11 72.65L100.00 72.55Q102.05 72.68 106.20 73.06L106.32 73.18L106.30 73.16Q106.28 72.56 106.28 71.99L106.24 71.95L106.24 71.95Q106.21 68.85 108.26 66.58L108.35 66.68L108.22 66.55Q110.39 64.41 113.39 64.60L113.38 64.58L113.30 64.50Q114.60 64.59 115.88 64.84L115.80 64.76L115.87 64.83Q116.00 65.41 116.13 66.12L116.20 66.19L116.09 66.08Q116.30 66.93 116.17 67.50L116.03 67.36L116.09 67.42Q114.05 75.47 106.63 83.59L106.59 83.54L106.64 83.59Q102.98 87.29 93.85 97.45L93.84 97.44L93.88 97.48Q93.61 98.94 93.04 99.90L93.02 99.88L92.97 99.83Q95.64 98.35 98.19 97.45L98.15 97.41L98.15 97.41Q97.08 98.51 95.48 101.00L95.39 100.91L95.47 100.99Q95.18 101.47 94.99 102.04L95.10 102.15L95.05 102.10Q103.18 98.60 112.38 98.92L112.43 98.97L112.32 98.87Q121.99 99.27 129.66 103.23L129.66 103.23L128.01 99.66L127.87 99.52Q126.79 97.29 126.34 95.95L126.45 96.05L126.37 95.98Q125.17 95.29 123.12 94.58L123.08 94.54L123.05 94.51Q122.92 93.42 122.28 91.12L122.32 91.16L122.26 91.10Q118.51 90.10 114.68 89.78L114.80 89.91L114.62 89.72Q122.55 82.13 125.11 68.26L125.16 68.31L125.39 63.36L125.45 63.42Q125.30 60.40 123.26 59.25L123.18 59.18L123.15 59.21L123.17 59.23Q123.22 59.21 123.09 59.21L123.02 59.14L122.99 59.12Q122.58 57.68 120.73 56.66Z"/><path d="M15 98 C183 94,173 82,323 80" stroke="#8080df" fill="none"/><path d="M17 20 C170 102,190 110,337 99" stroke="#71e04c" fill="none"/><path d="M1 12 C157 18,158 106,338 138" stroke="#6767e4" fill="none"/><path d="M7 58 C159 56,175 41,324 104" stroke="#69dd86" fill="none"/><path d="M16 80 C157 59,157 50,338 16" stroke="#eb74cd" fill="none"/><path d="M21 65 C177 53,185 57,335 85" stroke="#85eeee" fill="none"/><path d="M16 9 C174 119,191 56,328 50" stroke="#d57757" fill="none"/><path d="M10 113 C177 51,153 33,336 96" stroke="#e6e641" fill="none"/><path d="M2 42 C188 138,192 20,329 12" stroke="#e44dbe" fill="none"/><path d="M9 116 C177 135,163 74,337 8" stroke="#7251d6" fill="none"/><path d="M20 61 C158 47,158 16,332 45" stroke="#97e87c" fill="none"/><path d="M14 74 C158 55,156 12,340 25" stroke="#ea7fb5" fill="none"/><path d="M17 72 C157 109,167 2,330 75" stroke="#ddb745" fill="none"/><path d="M18 70 C191 48,183 10,341 35" stroke="#9346e1" fill="none"/><path d="M14 63 C172 100,179 65,336 133" stroke="#e362e3" fill="none"/><path d="M16 26 C177 40,176 99,338 41" stroke="#428cd5" fill="none"/><path d="M10 5 C162 77,152 50,330 27" stroke="#46d246" fill="none"/><path d="M16 63 C156 30,186 28,326 43" stroke="#5898d9" fill="none"/><path d="M21 35 C164 100,158 127,340 135" stroke="#83e6cd" fill="none"/><path d="M14 91 C177 114,162 90,326 64" stroke="#e8977c" fill="none"/><path d="M19 67 C161 96,156 2,331 21" stroke="#53de76" fill="none"/><path d="M3 48 C156 68,180 92,325 92" stroke="#eb6464" fill="none"/><path fill="#7ff0b7" d="M52.89 67.40L52.78 67.29L52.89 67.41Q47.53 67.41 44.46 65.62L44.28 65.44L44.29 65.46Q48.51 63.15 56.69 56.06L56.83 56.20L56.67 56.04Q57.91 55.75 60.08 54.73L60.17 54.82L60.15 54.80Q57.82 64.66 57.62 75.33L57.63 75.34L57.66 75.37Q57.46 86.03 59.25 96.25L59.31 96.32L59.24 96.25Q56.45 95.06 52.88 94.87L52.96 94.95L52.89 94.89Q52.75 87.97 52.75 81.13L52.81 81.20L52.74 81.12Q52.67 74.15 52.73 67.25ZM52.10 71.02L52.10 95.50L52.24 95.64Q54.15 95.51 55.75 95.83L55.76 95.84L55.85 95.93Q55.87 96.97 56.19 99.27L56.28 99.36L56.25 99.32Q61.04 100.22 65.13 103.99L65.05 103.92L65.08 103.94Q60.99 92.06 60.93 79.53L60.93 79.54L60.87 79.47Q60.73 66.94 63.79 54.79L63.85 54.85L63.94 54.94Q62.98 55.58 60.30 57.43L60.23 57.37L60.18 57.31Q60.62 56.15 61.13 53.60L61.02 53.49L61.07 53.54Q58.82 54.80 56.39 55.44L56.44 55.49L56.50 55.55Q50.06 61.44 42.84 65.28L42.92 65.36L42.97 65.41Q45.36 67.28 49.32 67.86L49.28 67.82L49.26 67.80Q48.15 68.68 45.98 70.47L46.01 70.49L45.92 70.41Q48.38 71.01 52.09 71.01L52.17 71.09Z"/><path d="M17 41 C189 98,182 58,339 105" stroke="#55c2e6" fill="none"/><path d="M4 27 C152 3,166 64,338 20" stroke="#ba37e6" fill="none"/><path fill="#53e8e8" d="M278.41 76.99L278.34 76.93L278.28 76.87Q275.33 76.79 273.25 79.18L273.09 79.03L273.22 79.15Q271.04 81.45 270.72 84.64L270.77 84.69L270.72 84.64Q270.45 88.20 272.27 89.83L272.28 89.84L272.22 89.78Q274.05 91.43 277.57 91.23L277.59 91.26L277.55 91.21Q281.07 90.97 282.93 89.82L282.96 89.86L282.96 89.85Q284.86 87.99 284.86 85.37L284.74 85.25L284.91 85.41Q284.93 84.80 284.81 84.16L284.68 84.03L284.75 84.10Q284.76 81.17 282.91 78.90L283.05 79.04L282.93 78.92Q281.07 76.65 278.26 76.84ZM277.60 95.54L277.68 95.62L277.64 95.59Q270.27 95.57 267.91 94.29L267.80 94.19L267.89 94.27Q266.18 93.01 265.86 90.13L265.89 90.17L265.96 90.23Q265.81 89.00 265.87 87.78L265.92 87.82L265.92 87.83Q266.03 86.08 266.03 85.32L266.03 85.32L266.05 85.34Q266.87 80.60 267.12 79.45L267.12 79.44L267.05 79.37Q267.79 76.08 269.19 73.72L269.25 73.78L269.34 73.87Q273.70 66.41 283.67 55.74L283.67 55.74L283.62 55.69Q288.23 55.31 291.93 53.96L291.96 53.99L291.84 53.87Q280.33 66.39 274.97 73.49L275.08 73.60L274.91 73.43Q276.66 72.69 278.83 72.69L278.86 72.71L278.74 72.59Q284.45 72.75 287.00 76.00L286.90 75.90L287.03 76.03Q289.15 78.66 289.73 84.61L289.75 84.63L289.70 84.58Q289.89 85.85 289.89 86.87L289.97 86.95L289.78 86.77Q289.97 92.20 286.26 93.99L286.13 93.85L286.19 93.91Q284.13 94.92 277.62 95.56ZM281.49 99.63L281.53 99.67L281.38 99.52Q283.57 99.47 286.89 99.60L286.89 99.60L286.99 99.70Q289.67 99.75 292.29 98.54L292.38 98.63L292.31 98.56Q294.19 97.25 294.19 94.25L294.22 94.28L294.16 94.22Q294.22 93.44 293.93 91.78L293.88 91.73L293.89 91.74Q293.64 90.12 293.64 89.35L293.51 89.22L293.69 89.40Q292.08 81.33 289.40 78.14L289.51 78.26L289.37 78.11Q289.39 78.07 289.14 77.69L289.00 77.55L288.58 77.26L288.35 77.10L288.43 77.17Q287.76 76.25 286.74 74.66L286.81 74.73L286.83 74.74Q285.36 73.21 282.04 72.44L282.03 72.44L281.92 72.32Q284.09 69.76 289.07 63.56L289.07 63.57L296.10 54.61L296.05 54.57Q293.44 56.05 289.42 57.33L289.40 57.31L289.51 57.42Q290.96 55.67 293.96 52.35L293.92 52.31L294.00 52.39Q289.99 54.20 283.48 55.16L283.43 55.11L283.41 55.09Q273.91 65.08 268.93 73.39L268.95 73.41L268.81 73.28Q266.23 77.47 265.27 87.95L265.27 87.94L265.34 88.01Q265.24 89.00 265.37 90.60L265.33 90.56L265.42 90.65Q265.45 93.50 267.31 95.03L267.32 95.05L267.26 94.98Q267.93 95.27 267.87 95.33L267.97 95.44L267.94 95.41Q268.46 96.82 269.80 97.53L269.86 97.58L269.97 97.69Q272.36 98.81 275.62 99.13L275.53 99.03L275.56 99.07Q275.49 98.99 281.37 99.50ZM281.00 80.67L281.03 80.70L281.02 80.69Q281.96 80.48 283.56 81.31L283.53 81.28L283.57 81.33Q284.28 83.06 284.28 84.15L284.29 84.15L284.18 84.04Q284.61 87.28 283.01 88.94L282.88 88.81L282.87 88.81Q281.16 90.09 277.64 90.61L277.69 90.66L277.59 90.55Q275.17 90.56 274.28 90.12L274.36 90.20L274.37 90.21Q274.06 89.45 274.06 88.94L273.88 88.76L273.88 88.76Q273.61 83.38 278.53 81.20L278.49 81.17L278.52 81.19Q279.78 80.60 281.06 80.73Z"/><path fill="#5d9bd9" d="M221.87 77.12L221.79 77.04L221.79 77.04Q218.74 77.12 216.70 79.36L216.56 79.23L216.68 79.35Q214.58 81.52 214.32 84.72L214.23 84.63L214.30 84.70Q213.91 88.21 215.96 89.90L215.97 89.91L216.00 89.94Q218.13 91.72 221.71 91.59L221.74 91.63L221.57 91.46Q225.61 91.34 227.21 89.74L227.24 89.78L227.06 89.60Q228.93 87.31 228.73 84.24L228.77 84.27L228.72 84.23Q228.48 81.05 226.66 79.03L226.59 78.97L226.57 78.95Q224.82 77.00 221.75 77.00ZM221.70 61.17L221.71 61.18L221.65 61.12Q219.27 60.91 217.03 61.74L217.04 61.74L217.14 61.85Q215.01 63.23 215.39 66.36L215.29 66.26L215.35 66.32Q216.16 72.56 221.78 72.56L221.81 72.59L221.81 72.59Q224.31 72.79 225.98 70.87L226.10 71.00L226.00 70.90Q227.63 68.95 227.69 66.33L227.73 66.37L227.80 66.43Q227.93 63.49 226.71 62.47L226.74 62.50L226.80 62.56Q223.89 61.06 221.72 61.19ZM221.23 95.65L221.35 95.77L216.06 95.60L216.24 95.78Q213.61 95.70 211.38 94.23L211.34 94.20L211.42 94.27Q208.99 92.23 209.25 87.44L209.28 87.47L209.26 87.45Q210.17 76.09 216.24 74.43L216.23 74.42L216.21 74.40Q212.27 72.76 210.03 63.75L210.10 63.81L210.15 63.87Q209.47 61.40 209.60 60.06L209.63 60.09L209.71 60.17Q210.09 56.45 216.28 56.39L216.29 56.40L216.28 56.39Q223.49 56.38 225.92 56.70L225.84 56.62L225.80 56.58Q232.29 57.50 233.05 60.89L233.05 60.89L233.17 61.00Q233.27 61.94 233.27 62.58L233.31 62.62L233.27 62.57Q233.23 63.68 232.91 64.71L232.99 64.79L233.01 64.81Q231.92 71.83 227.00 74.39L227.10 74.49L227.02 74.41Q232.93 75.78 233.76 84.67L233.72 84.63L233.81 84.72Q233.81 84.97 233.87 87.14L233.77 87.04L233.86 87.13Q233.94 91.68 231.26 93.47L231.27 93.48L231.26 93.48Q229.00 94.98 221.33 95.75ZM225.09 99.57L225.07 99.55L230.70 99.69L230.63 99.62Q233.53 99.77 236.09 98.56L236.07 98.55L236.07 98.54Q238.07 97.41 238.20 94.28L238.24 94.32L238.14 94.22Q238.32 92.48 237.68 89.22L237.64 89.19L237.55 89.10Q236.02 81.30 232.50 78.17L232.65 78.32L232.24 77.59L231.89 77.11L231.75 76.77L231.59 76.62Q234.50 74.48 236.03 67.51L235.87 67.35L235.89 67.37Q235.94 66.78 236.07 65.38L236.11 65.42L236.06 65.37Q236.13 64.16 236.00 63.14L236.12 63.25L236.05 63.18Q235.74 60.70 233.76 59.87L233.86 59.97L234.01 60.06L233.69 59.86L233.56 59.73Q233.14 58.54 231.15 57.20L231.13 57.18L231.16 57.15L231.26 57.25Q227.83 55.99 221.00 55.67L221.06 55.73L221.10 55.77Q218.51 55.61 216.21 55.80L216.18 55.78L216.24 55.84Q214.72 55.72 212.55 55.98L212.67 56.09L212.65 56.08Q209.48 56.81 209.10 59.56L209.09 59.55L209.06 59.52Q208.93 60.28 208.99 61.62L208.99 61.63L208.95 61.58Q209.26 62.60 210.22 66.56L210.18 66.52L210.10 66.43Q211.48 71.91 214.42 74.14L214.44 74.16L214.56 74.28L214.55 74.28Q209.81 76.37 208.91 85.06L208.99 85.14L209.06 85.21Q208.78 88.95 208.78 90.48L208.73 90.44L208.65 90.36Q208.76 93.34 210.74 94.87L210.74 94.87L210.77 94.91Q210.92 94.99 211.37 95.31L211.44 95.38L211.39 95.33Q213.11 99.16 225.06 99.54ZM224.53 81.00L224.48 80.94L224.55 81.01Q226.03 80.84 227.50 81.60L227.52 81.62L227.50 81.60Q228.23 83.36 228.17 84.25L228.12 84.20L228.18 84.26Q228.16 84.69 228.16 85.20L228.16 85.20L228.21 85.25Q228.10 89.10 224.26 90.51L224.42 90.66L224.37 90.62Q223.03 91.12 221.69 90.93L221.61 90.85L221.62 90.87Q219.78 91.07 217.86 90.30L217.80 90.24L217.95 90.39Q217.39 89.20 217.52 87.53L217.56 87.57L217.52 87.53Q217.84 84.92 219.86 82.87L219.91 82.93L219.83 82.84Q221.84 80.79 224.52 80.98ZM224.94 65.11L224.92 65.09L224.99 65.16Q226.34 64.97 227.23 65.23L227.07 65.07L227.23 66.57L227.20 66.54Q227.13 68.83 225.59 70.52L225.62 70.56L225.68 70.61Q224.14 72.30 221.84 71.98L221.70 71.84L221.72 71.86Q220.19 71.99 219.49 71.61L219.50 71.62L219.44 71.56Q219.34 71.08 219.15 69.93L219.10 69.88L219.17 69.95Q218.65 67.51 220.69 66.10L220.81 66.22L220.78 66.19Q222.55 65.03 224.92 65.09Z"/><path fill="#8062da" d="M166.17 67.36L166.05 67.23L166.13 67.31Q160.81 67.36 157.74 65.57L157.74 65.57L157.74 65.57Q161.84 63.15 170.02 56.06L170.18 56.21L170.04 56.07Q171.31 55.81 173.48 54.79L173.41 54.71L173.50 54.81Q171.27 64.79 171.08 75.46L170.99 75.36L171.13 75.51Q170.86 86.10 172.65 96.32L172.74 96.42L172.65 96.32Q169.77 95.05 166.20 94.86L166.24 94.90L166.32 94.98Q166.17 88.05 166.17 81.22L166.06 81.11L166.07 81.12Q166.13 74.28 166.19 67.37ZM165.49 71.08L165.53 95.59L165.53 95.60Q167.64 95.66 169.24 95.98L169.12 95.86L169.16 95.90Q169.20 96.96 169.52 99.26L169.52 99.26L169.52 99.27Q174.37 100.22 178.46 103.99L178.44 103.97L178.54 104.07Q174.25 91.98 174.18 79.45L174.30 79.57L174.24 79.52Q174.09 66.97 177.16 54.83L177.12 54.79L177.21 54.88Q176.35 55.61 173.66 57.46L173.51 57.31L173.67 57.47Q173.91 56.11 174.42 53.56L174.52 53.66L174.47 53.60Q172.23 54.88 169.81 55.52L169.82 55.53L169.86 55.58Q163.49 61.54 156.27 65.38L156.17 65.27L156.32 65.43Q158.63 67.22 162.59 67.80L162.52 67.73L162.52 67.73Q161.57 68.76 159.40 70.55L159.20 70.35L159.22 70.37Q161.83 71.13 165.54 71.13L165.53 71.12Z"/><path d="M19 138 C161 13,165 135,333 52" stroke="#e84e4e" fill="none"/><path d="M13 42 C183 82,166 49,326 54" stroke="#dd5454" fill="none"/><path d="M3 41 C182 48,187 53,335 123" stroke="#a062de" fill="none"/><path d="M12 17 C183 120,163 34,338 18" stroke="#c460e6" fill="none"/><path d="M19 38 C167 62,184 100,327 76" stroke="#eba58e" fill="none"/><path d="M3 102 C152 116,183 80,323 72" stroke="#78ddaa" fill="none"/><path d="M1 41 C183 25,174 104,333 61" stroke="#43df43" fill="none"/><path d="M11 135 C168 97,166 78,327 127" stroke="#e593d1" fill="none"/><path d="M7 42 C167 87,165 133,337 55" stroke="#e754c2" fill="none"/><path d="M17 29 C169 83,192 75,321 80" stroke="#71de8c" fill="none"/><path d="M11 43 C178 87,164 54,339 49" stroke="#7eebb5" fill="none"/><path d="M10 28 C170 82,156 100,328 48" stroke="#dcdc65" fill="none"/><path d="M16 69 C187 46,185 60,328 99" stroke="#a0da67" fill="none"/><path d="M6 85 C185 108,167 114,331 71" stroke="#9348de" fill="none"/></svg>