<svg xmlns="http://www.w3.org/2000/svg" width="342" height="140" viewBox="0,0,342,140"><path d="M9 23 C155 74,166 69,329 31" stroke="#d3b24f" fill="none"/><path d="M5 88 C178 90,168 5,340 110" stroke="#9e5fdd" fill="none"/><path d="M17 60 C165 132,165 43,340 114" stroke="#94a8e5" fill="none"/><path d="M3 37 C169 65,164 20,334 94" stroke="#e98ae9" fill="none"/><path d="M2 85 C159 134,182 114,323 39" stroke="#83f083" fill="none"/><path d="M7 134 C153 95,155 99,327 35" stroke="#70df70" fill="none"/><path d="M18 124 C183 114,173 6,327 110" stroke="#5be5c3" fill="none"/><path d="M15 74 C181 52,184 61,322 10" stroke="#8ce038" fill="none"/><path d="M20 23 C171 87,156 19,335 53" stroke="#6a6aeb" fill="none"/><path d="M5 78 C156 31,163 83,337 63" stroke="#91e7a7" fill="none"/><path d="M15 13 C162 115,177 128,324 28" stroke="#7fe0c8" fill="none"/><path d="M20 38 C168 135,153 52,326 129" stroke="#48b5d9" fill="none"/><path d="M11 129 C192 24,186 17,330 126" stroke="#84e59c" fill="none"/><path d="M5 55 C157 111,153 133,328 29" stroke="#4391df" fill="none"/><path d="M9 58 C168 116,155 13,325 4" stroke="#e0b638" fill="none"/><path d="M19 77 C181 45,154 2,326 106" stroke="#d69656" fill="none"/><path d="M20 65 C177 45,191 78,325 73" stroke="#36e78e" fill="none"/><path d="M19 59 C181 7,178 99,333 2" stroke="#a0e589" fill="none"/><path d="M7 82 C186 29,179 14,334 3" stroke="#3fe8be" fill="none"/><path d="M3 59 C150 102,163 58,333 115" stroke="#f1a68c" fill="none"/><path d="M14 109 C174 38,165 56,340 88" stroke="#b042d5" fill="none"/><path fill="#e04242" d="M278.05 60.05L278.01 60.01L275.23 60.34L275.21 60.32Q270.94 60.43 270.51 64.18L270.51 64.17L270.44 64.11Q270.35 65.50 270.42 67.34L270.37 67.29L270.42 67.34Q270.49 70.95 272.83 73.42L272.80 73.39L272.86 73.46Q275.20 75.93 278.73 75.65L278.74 75.66L278.80 75.72Q282.50 75.32 283.92 73.62L284.03 73.74L284.02 73.72Q286.00 72.03 286.50 67.86L286.49 67.85L286.37 67.74Q286.85 63.55 284.51 61.99L284.57 62.04L284.66 62.14Q282.90 60.51 277.95 59.95ZM289.34 77.28L289.34 77.28L286.81 81.39L286.81 81.39Q281.92 90.43 274.92 97.99L274.78 97.85L274.89 97.97Q271.78 98.18 266.76 99.66L266.75 99.65L266.87 99.78Q276.72 88.06 282.59 79.15L282.61 79.17L282.64 79.20Q280.74 80.41 277.70 80.55L277.61 80.46L277.65 80.50Q272.01 80.74 269.18 77.06L269.27 77.14L269.10 76.98Q266.90 74.07 264.85 65.59L264.90 65.64L264.84 65.58Q264.82 64.70 264.53 62.97L264.64 63.07L264.51 62.95Q264.37 61.35 264.37 60.51L264.22 60.36L264.35 60.49Q264.30 57.12 266.28 55.99L266.39 56.10L266.23 55.94Q268.49 54.52 271.95 54.52L272.02 54.58L271.99 54.55Q277.98 54.61 277.98 54.61L278.03 54.66L277.97 54.60Q281.98 54.65 284.31 55.00L284.25 54.94L284.27 54.96Q288.30 55.53 290.00 56.45L289.99 56.44L289.97 56.42Q292.53 57.84 292.88 61.09L292.95 61.16L292.91 61.13Q292.79 61.43 292.44 66.38L292.53 66.47L292.52 66.46Q291.80 70.41 291.38 71.96L291.36 71.95L291.45 72.03Q290.71 74.62 289.30 77.24ZM292.74 81.60L292.89 81.75L292.76 81.62Q294.63 77.55 295.62 69.56L295.63 69.57L295.67 69.61Q296.21 65.56 296.14 63.93L296.07 63.86L296.07 63.86Q296.07 60.47 293.88 58.77L293.84 58.73L293.17 58.41L293.22 58.47Q292.77 57.09 291.07 55.89L291.11 55.93L291.04 55.86Q286.85 54.08 277.95 53.80L277.80 53.65L277.98 53.83Q276.11 53.73 271.59 53.73L271.64 53.78L271.59 53.73Q268.44 53.83 265.68 55.10L265.68 55.10L265.51 54.94Q263.39 56.42 263.54 59.82L263.67 59.95L263.67 59.95Q263.86 61.49 264.22 65.24L264.41 65.43L264.29 65.31Q265.42 70.18 265.91 71.74L265.96 71.79L265.99 71.82Q266.90 75.13 268.67 77.54L268.87 77.73L268.73 77.59Q269.22 78.23 269.93 78.94L269.99 78.99L270.05 79.06Q270.55 79.91 271.75 81.61L271.63 81.49L271.71 81.56Q274.40 84.04 278.01 84.40L278.00 84.39L277.99 84.38Q274.57 89.45 271.67 92.98L271.66 92.97L264.88 101.04L264.97 101.13Q269.09 99.67 272.13 99.03L272.07 98.96L272.13 99.02Q270.71 100.64 267.81 103.82L267.85 103.86L267.85 103.87Q273.48 102.08 279.28 102.01L279.36 102.08L279.39 102.11Q283.71 97.31 291.77 83.88L291.60 83.71L291.63 83.88L291.59 83.84Q292.27 82.68 292.90 81.76ZM281.65 64.49L281.54 64.39L281.55 64.39Q282.77 64.27 283.62 64.49L283.64 64.51L283.70 64.57Q284.82 64.70 285.52 64.91L285.53 64.92L285.52 64.90Q285.71 65.59 285.85 66.37L285.86 66.38L285.98 66.49Q285.99 67.14 285.77 67.84L285.85 67.92L285.74 67.81Q285.71 71.03 283.52 73.08L283.63 73.19L283.49 73.06Q281.83 75.08 278.79 75.00L278.68 74.89L278.66 74.87Q277.89 74.88 275.07 74.32L275.22 74.47L275.08 74.34Q274.68 72.73 274.68 71.38L274.67 71.37L274.66 71.36Q274.52 70.87 274.52 70.45L274.58 70.51L274.60 70.53Q274.50 66.33 278.74 64.85L278.89 64.99L278.88 64.98Q280.11 64.51 281.66 64.51Z"/><path d="M6 128 C160 30,156 101,326 129" stroke="#7591e4" fill="none"/><path d="M10 139 C183 130,190 129,333 26" stroke="#52e9c3" fill="none"/><path d="M4 61 C152 49,170 103,326 2" stroke="#41e1b9" fill="none"/><path d="M5 86 C185 62,170 102,326 15" stroke="#c574e0" fill="none"/><path d="M20 58 C178 104,155 58,340 5" stroke="#5de8c6" fill="none"/><path d="M13 105 C160 59,174 138,325 40" stroke="#bfdc6a" fill="none"/><path d="M17 13 C167 81,185 80,337 130" stroke="#65d93f" fill="none"/><path d="M2 58 C184 31,157 24,335 34" stroke="#45e6be" fill="none"/><path d="M5 62 C190 55,154 116,330 94" stroke="#5193d6" fill="none"/><path d="M9 82 C181 133,190 50,326 118" stroke="#d65172" fill="none"/><path d="M8 107 C173 106,190 125,334 101" stroke="#4ddf4d" fill="none"/><path fill="#90e8a6" d="M158.54 98.56L158.52 98.53L158.46 98.48Q155.83 98.61 152.93 97.83L152.88 97.77L152.91 97.81Q150.73 96.19 150.45 93.15L150.35 93.05L150.51 93.21Q150.40 92.82 150.76 87.95L150.71 87.90L150.78 87.97Q152.56 87.48 156.30 86.77L156.27 86.74L155.92 88.16L156.00 88.24Q155.49 91.47 158.10 92.54L158.04 92.47L158.18 92.61Q159.53 93.11 163.42 93.11L163.47 93.17L163.51 93.21Q166.42 92.86 166.78 92.72L166.76 92.71L166.77 92.72Q168.42 92.39 169.77 91.47L169.90 91.60L169.93 91.64Q172.55 89.87 172.20 85.98L172.11 85.90L172.21 85.99Q171.77 81.38 168.55 78.48L168.48 78.42L168.58 78.51Q165.40 75.65 160.81 75.65L160.81 75.66L160.74 75.17L160.73 75.15Q161.41 75.06 163.04 74.92L163.09 74.97L163.02 74.89Q166.67 74.80 169.22 72.51L169.20 72.49L169.10 72.39Q171.69 70.14 171.97 66.67L171.91 66.60L172.01 66.71Q172.15 66.06 172.15 65.43L172.14 65.43L172.21 65.50Q172.10 62.56 169.56 60.86L169.63 60.93L169.59 60.90Q167.40 59.48 164.43 59.69L164.29 59.55L164.33 59.59Q161.95 59.34 159.69 60.12L159.73 60.15L159.62 60.04Q157.00 61.10 156.44 63.22L156.52 63.31L156.48 63.27Q156.14 64.69 156.28 66.10L156.17 66.00L156.28 66.10Q154.32 65.63 150.50 64.28L150.56 64.35L150.55 64.34Q150.14 61.24 150.21 59.68L150.06 59.54L150.21 59.68Q150.29 56.73 152.27 55.45L152.42 55.60L152.42 55.60Q154.91 54.35 157.88 54.35L157.88 54.35L157.99 54.45Q163.73 54.26 169.60 54.75L169.64 54.79L169.61 54.76Q178.98 55.51 178.42 62.51L178.41 62.50L178.46 62.55Q178.44 65.43 177.52 68.33L177.37 68.18L177.44 68.25Q175.70 73.93 171.32 75.63L171.30 75.61L171.28 75.59Q176.26 76.69 177.39 82.91L177.43 82.94L177.43 82.94Q177.68 84.89 177.82 88.64L177.89 88.71L177.85 88.67Q178.27 97.08 169.72 97.93L169.55 97.76L169.69 97.90Q168.40 98.09 158.57 98.59ZM168.17 102.67L168.18 102.68L168.14 102.64Q169.39 102.83 174.69 102.97L174.51 102.79L174.66 102.94Q177.79 102.96 180.83 101.76L180.95 101.87L180.85 101.78Q183.10 100.06 182.74 96.81L182.65 96.72L182.65 96.72Q182.60 94.41 182.04 91.16L181.92 91.04L182.01 91.13Q180.69 82.81 177.08 79.77L177.04 79.73L176.58 78.92L176.49 78.75L176.51 78.78Q179.77 76.09 181.18 67.96L181.33 68.11L181.17 67.95Q181.41 67.27 181.62 65.50L181.53 65.41L181.44 65.32Q181.62 63.94 181.48 62.67L181.62 62.81L181.48 62.67Q181.22 59.59 178.82 58.31L178.75 58.25L178.68 58.32L178.64 58.28Q178.19 56.56 176.07 55.57L175.92 55.42L176.02 55.52Q173.20 54.25 163.66 53.69L163.58 53.61L163.63 53.66Q160.44 53.44 157.47 53.44L157.50 53.47L157.64 53.61Q154.55 53.49 151.72 54.69L151.75 54.72L151.71 54.68Q149.48 56.12 149.48 59.38L149.45 59.35L149.52 59.42Q149.54 58.66 150.04 64.89L150.04 64.89L150.01 64.85Q150.65 65.08 153.69 66.21L153.61 66.13L153.52 66.04Q153.53 67.04 153.46 67.96L153.46 67.95L153.43 67.92Q153.56 68.97 153.63 69.96L153.61 69.94L153.51 69.85Q156.85 70.57 160.60 70.78L160.70 70.88L160.68 70.86Q160.52 67.09 162.57 65.54L162.60 65.57L162.62 65.59Q164.07 64.29 167.82 63.86L167.82 63.86L167.93 63.97Q169.95 63.87 171.01 64.22L171.04 64.25L171.11 64.32Q171.17 64.53 171.24 64.74L171.25 64.75L171.15 65.00L171.50 66.20L171.35 66.05Q171.34 66.39 171.27 66.68L171.25 66.66L171.38 66.78Q171.23 69.96 168.40 72.15L168.34 72.09L168.31 72.06Q166.63 73.77 162.89 74.13L162.85 74.10L162.96 74.20Q161.63 74.50 160.00 74.50L160.01 74.50L159.92 74.42Q159.94 74.99 160.22 76.27L160.40 76.45L160.35 76.40Q163.51 76.30 166.19 77.65L166.25 77.70L166.01 77.68L163.19 78.11L163.09 78.01Q163.13 78.61 163.34 79.74L163.41 79.81L163.35 79.75Q167.32 79.62 170.50 82.10L170.63 82.22L170.52 82.11Q170.90 82.78 171.47 85.82L171.50 85.86L171.55 85.90Q171.88 91.33 166.44 92.10L166.38 92.05L166.41 92.07Q162.66 92.71 161.60 92.64L161.60 92.64L161.44 92.48Q160.64 92.31 159.65 92.17L159.59 92.11L159.72 91.39L159.88 90.49L159.96 89.80L160.03 89.23L160.12 89.32Q158.33 89.44 156.84 89.79L156.78 89.73L156.71 89.66Q156.75 89.34 156.75 88.99L156.69 88.93L156.61 88.85Q156.83 88.64 156.83 88.22L156.77 88.16L156.81 88.20Q156.89 87.44 157.18 86.09L157.04 85.95L157.05 85.97Q153.67 86.47 150.21 87.11L150.25 87.15L150.21 87.12Q150.20 88.03 149.99 90.11L149.94 90.06L149.93 90.05Q149.86 92.28 149.86 93.41L149.77 93.32L149.73 93.28Q149.94 97.17 152.49 98.58L152.49 98.59L152.51 98.61Q155.22 102.80 163.98 102.44L164.01 102.47L163.93 102.39Q165.28 102.33 168.11 102.61Z"/><path d="M8 133 C171 93,180 135,335 92" stroke="#4ad3b1" fill="none"/><path fill="#ed81b7" d="M52.46 67.10L52.44 67.08L52.47 67.11Q46.38 66.96 42.99 64.98L43.14 65.13L43.01 65.00Q47.69 62.47 56.73 54.62L56.73 54.61L56.80 54.69Q58.03 54.22 60.43 53.09L60.47 53.12L60.49 53.14Q58.06 64.22 57.85 76.02L57.77 75.95L57.78 75.96Q57.59 87.78 59.57 99.10L59.60 99.13L59.54 99.06Q56.43 97.73 52.48 97.52L52.59 97.63L52.63 97.67Q52.36 89.90 52.36 82.34L52.26 82.24L52.38 82.36Q52.37 74.71 52.44 67.08ZM51.78 71.30L51.71 98.31L51.75 98.35Q54.02 98.36 55.79 98.71L55.73 98.66L55.78 98.71Q55.94 99.99 56.29 102.54L56.24 102.49L56.27 102.51Q61.57 103.50 66.09 107.67L66.05 107.63L66.08 107.66Q61.47 94.42 61.40 80.56L61.42 80.59L61.43 80.59Q61.32 66.77 64.71 53.33L64.67 53.29L64.54 53.16Q63.61 54.00 60.64 56.05L60.60 56.01L60.57 55.98Q61.02 54.67 61.59 51.84L61.52 51.76L61.56 51.81Q59.19 53.33 56.51 54.04L56.47 54.01L56.49 54.02Q49.38 60.55 41.39 64.80L41.36 64.77L41.51 64.91Q44.04 66.88 48.42 67.52L48.52 67.62L48.35 67.44Q47.32 68.61 44.91 70.58L44.88 70.55L44.79 70.46Q47.60 71.22 51.70 71.22L51.59 71.11Z"/><path d="M20 123 C167 47,166 105,333 22" stroke="#bc51e0" fill="none"/><path d="M5 61 C167 109,187 15,339 76" stroke="#63ec86" fill="none"/><path d="M12 10 C176 39,165 94,341 93" stroke="#839ae1" fill="none"/><path d="M6 56 C181 6,170 3,341 110" stroke="#8d73dd" fill="none"/><path d="M20 30 C182 126,159 94,330 133" stroke="#4545d3" fill="none"/><path fill="#b753d9" d="M122.65 93.98L122.55 93.89L122.57 93.91Q123.19 95.80 124.18 99.55L124.19 99.56L124.15 99.51Q116.40 97.14 107.84 97.63L107.88 97.67L107.77 97.56Q99.33 98.10 91.91 101.78L91.86 101.73L91.92 101.79Q92.24 100.41 92.31 100.55L92.31 100.56L92.33 100.58Q99.28 93.25 106.57 85.04L106.52 85.00L106.65 85.13Q114.83 75.85 117.02 67.15L116.97 67.10L117.01 67.13Q117.83 63.86 115.46 61.67L115.50 61.71L115.51 61.71Q113.01 59.39 109.69 59.68L109.78 59.77L109.77 59.75Q109.08 59.63 108.44 59.63L108.40 59.59L108.48 59.66Q105.62 59.64 103.29 61.34L103.30 61.34L103.34 61.38Q100.89 63.88 101.31 68.83L101.29 68.81L101.31 68.83Q98.09 68.30 95.83 67.45L95.69 67.31L95.79 67.41Q95.48 64.84 95.34 62.15L95.31 62.12L95.25 62.06Q95.20 59.11 96.33 56.99L96.28 56.94L96.26 56.92Q99.54 54.33 105.76 54.33L105.89 54.46L109.01 54.33L109.15 54.47Q113.27 54.42 115.04 54.63L115.00 54.59L115.11 54.70Q123.07 55.38 123.57 59.91L123.56 59.90L123.62 59.96Q123.73 60.99 123.59 62.47L123.61 62.50L123.64 62.53Q123.58 63.73 123.29 65.01L123.30 65.01L123.32 65.04Q120.23 80.04 106.16 92.76L106.13 92.73L106.24 92.85Q108.72 92.43 111.27 92.43L111.23 92.39L111.34 92.51Q117.35 92.51 122.65 93.99ZM121.64 55.36L121.64 55.37L121.51 55.23Q118.54 54.03 115.36 53.89L115.44 53.97L109.07 53.61L109.11 53.65Q100.86 53.17 96.76 55.22L96.71 55.18L96.62 55.08Q94.65 57.64 94.65 61.46L94.63 61.44L94.71 61.52Q94.73 62.81 95.29 68.05L95.26 68.01L95.25 68.00Q96.40 68.58 98.59 69.15L98.61 69.17L98.52 70.99L98.54 71.01Q98.44 71.83 98.59 72.82L98.54 72.78L98.68 72.91Q100.93 73.04 105.52 73.47L105.47 73.41L105.52 73.46Q105.49 72.79 105.49 72.16L105.51 72.19L105.52 72.19Q105.43 68.71 107.70 66.20L107.63 66.13L107.74 66.24Q110.00 63.73 113.32 63.94L113.39 64.01L113.30 63.92Q114.68 63.96 116.09 64.24L116.19 64.34L116.09 64.24Q116.35 64.99 116.49 65.77L116.44 65.72L116.41 65.69Q116.52 66.51 116.38 67.14L116.50 67.26L116.34 67.10Q113.98 75.91 105.78 84.89L105.90 85.02L105.94 85.06Q101.89 89.14 91.78 100.38L91.85 100.45L91.71 100.31Q91.37 101.88 90.73 102.94L90.75 102.95L90.87 103.08Q93.70 101.31 96.53 100.32L96.68 100.47L96.51 100.30Q95.24 101.44 93.48 104.19L93.51 104.23L93.43 104.15Q93.34 104.90 93.12 105.54L93.14 105.56L93.18 105.59Q102.18 101.72 112.36 102.08L112.38 102.10L112.25 101.97Q122.77 102.23 131.25 106.62L131.29 106.66L129.44 102.68L129.48 102.73Q128.22 100.20 127.73 98.71L127.76 98.74L127.78 98.76Q126.48 98.03 124.22 97.25L124.14 97.17L124.20 97.24Q123.80 95.78 123.10 93.23L123.22 93.36L123.26 93.40Q119.02 92.19 114.78 91.84L114.81 91.88L114.91 91.97Q123.60 83.49 126.43 68.14L126.45 68.17L126.64 62.63L126.82 62.81Q126.53 59.34 124.27 58.07L124.24 58.03L124.18 58.05L124.16 58.02Q124.20 57.99 124.06 57.99L123.96 57.89L124.12 58.06Q123.53 56.33 121.48 55.20Z"/><path fill="#ebc75a" d="M221.14 77.66L221.21 77.73L221.12 77.63Q217.68 77.38 215.38 80.03L215.44 80.09L215.39 80.04Q213.14 82.73 212.78 86.27L212.68 86.17L212.81 86.30Q212.32 90.05 214.34 91.85L214.43 91.95L214.34 91.85Q216.35 93.66 220.24 93.44L220.21 93.42L220.32 93.52Q224.13 93.16 226.18 91.89L226.24 91.95L226.21 91.92Q228.42 89.96 228.42 87.06L228.33 86.97L228.29 86.93Q228.24 86.17 228.09 85.46L228.22 85.58L228.26 85.63Q228.26 82.37 226.21 79.86L226.36 80.02L226.29 79.94Q224.23 77.43 221.12 77.64ZM220.32 98.27L220.40 98.34L220.25 98.19Q212.12 98.19 209.51 96.78L209.61 96.89L209.52 96.79Q207.68 95.45 207.33 92.27L207.24 92.18L207.37 92.31Q207.31 91.05 207.38 89.70L207.24 89.57L207.26 89.58Q207.62 87.90 207.62 87.05L207.56 86.99L207.54 86.96Q208.30 81.58 208.58 80.30L208.74 80.46L208.67 80.39Q209.53 76.80 211.09 74.18L211.00 74.09L211.17 74.26Q216.03 66.04 227.06 54.24L227.00 54.18L227.00 54.18Q232.09 53.75 236.19 52.27L236.15 52.23L236.05 52.13Q223.35 66.02 217.41 73.86L217.37 73.82L217.51 73.96Q219.25 72.94 221.65 72.94L221.75 73.03L221.71 73.00Q227.80 72.93 230.62 76.54L230.62 76.53L230.56 76.48Q233.13 79.61 233.77 86.19L233.69 86.11L233.83 86.25Q233.96 87.58 233.96 88.71L233.97 88.72L233.89 88.64Q234.01 94.56 229.91 96.54L229.86 96.49L229.72 96.35Q227.48 97.50 220.27 98.21ZM224.61 102.76L224.60 102.76L224.67 102.82Q226.92 102.60 230.59 102.74L230.60 102.74L230.67 102.81Q233.66 102.91 236.56 101.56L236.62 101.62L236.68 101.69Q238.67 100.14 238.67 96.82L238.68 96.82L238.59 96.73Q238.73 95.96 238.41 94.12L238.27 93.98L238.33 94.03Q238.11 92.29 238.11 91.44L238.03 91.36L237.94 91.28Q236.35 82.54 233.38 79.01L233.34 78.97L233.37 79.00Q233.24 78.80 232.96 78.38L233.03 78.45L232.44 78.01L232.35 77.98L232.35 77.98Q231.71 77.06 230.58 75.29L230.44 75.15L230.51 75.22Q228.77 73.42 225.10 72.57L225.06 72.53L225.13 72.60Q227.46 69.69 232.97 62.84L233.01 62.87L240.80 52.99L240.75 52.94Q237.97 54.69 233.52 56.10L233.50 56.09L233.34 55.92Q235.10 54.15 238.42 50.47L238.52 50.57L238.47 50.52Q233.98 52.47 226.77 53.53L226.69 53.45L226.86 53.61Q216.08 64.40 210.57 73.59L210.74 73.76L210.69 73.72Q207.90 78.42 206.84 90.01L206.68 89.86L206.80 89.97Q206.56 90.93 206.70 92.70L206.77 92.77L206.79 92.79Q207.00 96.11 209.05 97.81L208.94 97.70L209.00 97.76Q209.72 98.06 209.65 98.13L209.55 98.02L209.50 97.97Q210.34 99.81 211.83 100.59L211.72 100.48L211.82 100.58Q214.56 101.90 218.16 102.25L218.15 102.25L218.06 102.15Q218.01 102.10 224.52 102.67ZM224.11 81.83L224.11 81.83L224.15 81.88Q225.12 81.57 226.89 82.49L226.98 82.58L227.01 82.61Q227.60 84.33 227.60 85.53L227.70 85.63L227.69 85.62Q227.99 89.04 226.22 90.87L226.27 90.92L226.13 90.78Q224.22 92.19 220.33 92.76L220.29 92.72L220.37 92.79Q217.73 92.84 216.74 92.35L216.71 92.31L216.70 92.31Q216.30 91.41 216.30 90.84L216.21 90.76L216.34 90.89Q215.84 84.73 221.28 82.33L221.24 82.29L221.40 82.45Q222.82 81.81 224.23 81.95Z"/><path d="M4 117 C181 111,179 72,328 85" stroke="#5bea5b" fill="none"/><path d="M14 48 C153 81,151 125,339 85" stroke="#7f98e5" fill="none"/></svg>