<svg xmlns="http://www.w3.org/2000/svg" width="342" height="140" viewBox="0,0,342,140"><path d="M20 13 C158 38,170 20,326 138" stroke="#5ad779" fill="none"/><path d="M17 61 C164 62,178 52,338 69" stroke="#78d958" fill="none"/><path d="M6 53 C178 99,190 87,339 108" stroke="#cf79eb" fill="none"/><path d="M19 63 C152 35,163 75,322 115" stroke="#75df90" fill="none"/><path d="M7 12 C164 15,166 56,326 108" stroke="#7cedd1" fill="none"/><path fill="#e0a365" d="M199.29 76.70L199.14 76.55L199.23 76.64Q196.27 76.44 194.28 78.73L194.37 78.82L194.27 78.72Q192.33 81.06 192.03 84.12L192.04 84.13L191.92 84.02Q191.64 87.40 193.38 88.96L193.40 88.98L193.45 89.03Q195.11 90.50 198.47 90.32L198.50 90.35L198.40 90.25Q201.78 90.02 203.56 88.92L203.51 88.87L203.70 89.06Q205.44 87.20 205.44 84.69L205.41 84.65L205.49 84.74Q205.45 84.08 205.32 83.47L205.28 83.43L205.25 83.40Q205.45 80.78 203.67 78.61L203.70 78.64L203.60 78.53Q201.81 76.35 199.12 76.53ZM198.55 94.50L198.51 94.46L198.61 94.56Q191.56 94.55 189.30 93.32L189.32 93.34L189.18 93.20Q187.51 91.96 187.20 89.21L187.29 89.29L187.20 89.20Q187.16 88.13 187.22 86.96L187.18 86.92L187.21 86.95Q187.36 85.33 187.36 84.59L187.40 84.63L187.53 84.76Q188.09 80.00 188.33 78.89L188.47 79.04L188.44 79.01Q189.22 75.93 190.56 73.66L190.42 73.52L190.54 73.64Q194.77 66.56 204.32 56.34L204.25 56.27L204.41 56.43Q208.60 55.85 212.15 54.56L212.08 54.49L212.14 54.56Q201.15 66.57 196.01 73.36L196.02 73.37L196.06 73.41Q197.51 72.47 199.59 72.47L199.72 72.60L199.69 72.58Q205.00 72.56 207.45 75.68L207.56 75.79L207.44 75.68Q209.57 78.30 210.13 83.99L210.15 84.01L210.13 83.99Q210.24 85.14 210.24 86.12L210.20 86.09L210.21 86.09Q210.19 91.09 206.64 92.80L206.73 92.89L206.80 92.96Q204.78 93.87 198.53 94.48ZM202.28 98.41L202.20 98.34L202.12 98.25Q204.36 98.35 207.54 98.47L207.39 98.32L207.48 98.42Q210.04 98.46 212.55 97.30L212.64 97.40L212.63 97.38Q214.37 96.07 214.37 93.19L214.35 93.17L214.30 93.12Q214.37 92.39 214.09 90.80L214.03 90.74L214.17 90.87Q213.83 89.22 213.83 88.49L213.81 88.47L213.89 88.55Q212.44 80.92 209.87 77.86L209.90 77.89L209.77 77.76Q209.70 77.62 209.45 77.26L209.38 77.18L209.02 76.94L208.89 76.88L208.80 76.79Q208.22 75.97 207.24 74.44L207.39 74.59L207.27 74.47Q205.87 73.00 202.69 72.27L202.62 72.20L202.78 72.36Q204.70 69.75 209.47 63.82L209.32 63.67L216.12 55.16L216.22 55.27Q213.74 56.70 209.88 57.93L209.77 57.81L209.85 57.89Q211.22 56.21 214.10 53.03L214.16 53.08L214.23 53.15Q210.33 54.83 204.09 55.74L204.04 55.69L204.02 55.67Q194.92 65.24 190.15 73.19L190.08 73.12L190.19 73.23Q187.61 77.14 186.70 87.17L186.84 87.32L186.74 87.22Q186.58 88.09 186.70 89.62L186.71 89.63L186.87 89.79Q186.86 92.48 188.64 93.95L188.62 93.93L188.66 93.97Q189.31 94.25 189.25 94.31L189.14 94.21L189.19 94.26Q189.87 95.79 191.15 96.46L191.22 96.53L191.10 96.41Q193.47 97.56 196.59 97.86L196.54 97.81L196.60 97.87Q196.58 97.85 202.21 98.34ZM201.82 80.27L201.79 80.24L201.77 80.22Q202.82 80.17 204.35 80.96L204.35 80.97L204.37 80.98Q204.75 82.35 204.75 83.39L204.76 83.39L204.79 83.42Q205.17 86.50 203.64 88.09L203.68 88.13L203.54 87.99Q201.88 89.20 198.52 89.69L198.52 89.70L198.62 89.80Q196.19 89.69 195.33 89.26L195.25 89.18L195.29 89.22Q195.03 88.53 195.03 88.04L194.94 87.95L194.98 88.00Q194.74 82.86 199.45 80.78L199.41 80.74L199.30 80.63Q200.54 80.09 201.76 80.21Z"/><path d="M6 60 C178 14,166 65,328 104" stroke="#ecec73" fill="none"/><path d="M9 118 C154 75,188 48,332 5" stroke="#4fc1e7" fill="none"/><path fill="#e83535" d="M144.08 90.78L144.06 90.75L144.02 90.72Q144.52 92.32 145.38 95.56L145.37 95.55L145.39 95.57Q138.60 93.43 131.19 93.86L131.24 93.91L131.27 93.93Q123.86 94.29 117.43 97.48L117.38 97.42L117.40 97.44Q117.88 96.45 117.94 96.58L117.86 96.49L117.94 96.58Q123.86 90.13 130.16 83.03L130.07 82.94L130.14 83.01Q137.22 74.98 139.11 67.45L139.07 67.41L139.22 67.56Q139.84 64.63 137.79 62.73L137.84 62.79L137.83 62.78Q135.75 60.85 132.88 61.09L132.99 61.21L132.92 61.14Q132.31 61.02 131.76 61.02L131.72 60.98L131.85 61.11Q129.42 61.12 127.40 62.59L127.26 62.45L127.28 62.47Q125.35 64.83 125.72 69.11L125.62 69.01L125.56 68.95Q122.78 68.50 120.82 67.76L120.83 67.77L120.75 67.69Q120.57 65.56 120.45 63.23L120.44 63.22L120.40 63.18Q120.26 60.53 121.24 58.69L121.30 58.76L121.19 58.65Q124.15 56.53 129.53 56.53L129.39 56.39L132.28 56.46L132.23 56.41Q135.93 56.50 137.46 56.69L137.46 56.69L137.47 56.70Q144.39 57.32 144.82 61.23L144.99 61.40L144.85 61.26Q145.02 62.22 144.90 63.51L144.92 63.53L144.89 63.50Q144.78 64.49 144.53 65.59L144.56 65.62L144.56 65.62Q141.90 78.63 129.73 89.64L129.86 89.77L129.75 89.66Q131.99 89.39 134.19 89.39L134.21 89.41L134.20 89.40Q139.55 89.54 144.13 90.83ZM143.19 57.34L143.11 57.26L143.11 57.25Q140.63 56.30 137.88 56.18L137.85 56.15L132.25 55.76L132.26 55.77Q125.23 55.46 121.68 57.24L121.66 57.22L121.60 57.16Q119.92 59.39 119.92 62.70L119.88 62.66L119.81 62.59Q119.90 63.79 120.39 68.31L120.35 68.27L120.37 68.28Q121.35 68.78 123.25 69.27L123.22 69.24L123.28 70.95L123.28 70.95Q123.16 71.63 123.28 72.49L123.18 72.38L123.29 72.50Q125.34 72.71 129.32 73.08L129.16 72.92L129.16 72.92Q129.24 72.44 129.24 71.89L129.19 71.84L129.14 71.79Q129.28 69.00 131.24 66.83L131.06 66.65L131.07 66.66Q133.03 64.49 135.90 64.67L135.90 64.67L136.05 64.82Q137.23 64.84 138.46 65.09L138.37 65.00L138.47 65.09Q138.64 65.69 138.76 66.37L138.75 66.36L138.65 66.25Q138.71 66.93 138.59 67.48L138.72 67.61L138.62 67.52Q136.70 75.26 129.61 83.03L129.53 82.96L129.56 82.99Q126.12 86.58 117.37 96.30L117.33 96.27L117.28 96.22Q117.13 97.73 116.58 98.64L116.48 98.54L116.48 98.54Q119.15 97.24 121.60 96.38L121.61 96.39L121.57 96.34Q120.42 97.28 118.89 99.67L118.87 99.65L118.93 99.71Q118.73 100.24 118.55 100.79L118.43 100.68L118.56 100.80Q126.29 97.39 135.10 97.70L135.03 97.63L135.04 97.65Q144.30 98.03 151.64 101.82L151.51 101.69L150.04 98.39L150.02 98.37Q148.99 96.24 148.56 94.95L148.59 94.98L148.52 94.91Q147.44 94.32 145.48 93.64L145.31 93.47L145.42 93.58Q145.22 92.47 144.61 90.26L144.49 90.15L144.51 90.16Q141.03 89.32 137.36 89.01L137.41 89.06L137.40 89.06Q144.91 81.69 147.35 68.41L147.34 68.40L147.61 63.72L147.53 63.63Q147.42 60.77 145.46 59.67L145.54 59.75L145.40 59.67L145.48 59.74Q145.46 59.67 145.34 59.67L145.32 59.65L145.21 59.54Q144.90 58.25 143.13 57.27Z"/><path d="M19 51 C182 80,171 77,324 4" stroke="#70ea8e" fill="none"/><path d="M4 18 C175 75,181 122,329 7" stroke="#cdeb74" fill="none"/><path d="M10 29 C164 52,174 128,327 56" stroke="#4f70d3" fill="none"/><path d="M15 80 C189 10,191 37,337 49" stroke="#95e895" fill="none"/><path fill="#e44d73" d="M64.25 67.38L64.36 67.50L64.24 67.37Q59.24 67.51 56.30 65.80L56.22 65.71L56.14 65.63Q60.31 63.57 68.14 56.77L68.13 56.76L68.00 56.63Q69.25 56.42 71.33 55.44L71.27 55.37L71.31 55.41Q69.26 65.05 69.07 75.26L68.98 75.18L69.08 75.27Q68.86 85.45 70.57 95.24L70.53 95.20L70.60 95.27Q67.84 94.03 64.41 93.85L64.49 93.93L64.52 93.96Q64.25 87.20 64.25 80.66L64.19 80.60L64.29 80.70Q64.19 73.99 64.25 67.38ZM63.61 70.96L63.71 94.50L63.64 94.43Q65.62 94.45 67.15 94.75L67.26 94.87L67.10 94.70Q67.27 95.85 67.58 98.06L67.55 98.03L67.69 98.17Q72.16 98.91 76.08 102.52L76.07 102.51L76.05 102.49Q72.05 91.02 71.98 79.03L72.09 79.13L71.98 79.03Q71.98 67.15 74.91 55.53L74.79 55.41L74.97 55.58Q74.09 56.24 71.52 58.01L71.38 57.87L71.41 57.90Q71.86 56.82 72.34 54.37L72.23 54.26L72.17 54.19Q70.02 55.41 67.70 56.02L67.78 56.11L67.84 56.16Q61.69 61.82 54.77 65.49L54.76 65.48L54.88 65.59Q57.17 67.40 60.97 67.95L60.97 67.96L60.79 67.78Q59.85 68.74 57.77 70.45L57.77 70.45L57.69 70.37Q60.15 71.05 63.70 71.05L63.74 71.10Z"/><path d="M7 44 C152 95,185 135,336 61" stroke="#d548d5" fill="none"/><path d="M9 91 C156 103,160 66,334 68" stroke="#4be6bf" fill="none"/><path d="M8 127 C188 4,155 48,338 38" stroke="#5be09e" fill="none"/><path d="M4 38 C192 44,154 81,321 35" stroke="#e48fcf" fill="none"/><path d="M5 97 C179 33,171 73,325 68" stroke="#d8d844" fill="none"/><path d="M13 21 C163 99,186 138,323 133" stroke="#e28787" fill="none"/><path d="M18 75 C169 69,192 44,329 2" stroke="#8ee5a4" fill="none"/><path d="M4 12 C186 123,183 94,322 71" stroke="#3e8cda" fill="none"/><path d="M13 73 C173 106,186 121,329 50" stroke="#76eed0" fill="none"/><path d="M14 118 C161 88,172 89,323 99" stroke="#4d91d5" fill="none"/><path fill="#ec8c8c" d="M263.01 94.66L263.02 94.67L263.14 94.79Q256.51 95.07 254.92 91.34L254.88 91.30L254.92 91.34Q256.21 89.88 258.72 87.01L258.73 87.01L258.69 86.98Q259.36 90.10 264.20 90.28L264.23 90.32L264.32 90.40Q269.71 90.47 272.34 88.32L272.30 88.29L272.40 88.39Q274.72 85.87 274.59 81.53L274.56 81.50L274.46 81.39Q274.29 73.33 266.58 73.70L266.54 73.66L266.61 73.72Q262.12 74.00 259.30 76.02L259.24 75.96L258.64 75.60L258.39 75.48L258.35 75.44Q258.93 70.39 258.75 65.98L258.70 65.94L258.65 65.89Q258.48 61.69 257.93 56.36L258.00 56.43L258.06 56.49Q263.90 57.98 270.01 57.80L270.07 57.85L270.04 57.82Q276.05 57.59 281.80 55.58L281.77 55.54L280.94 58.08L280.88 58.02Q280.47 59.32 280.17 60.67L280.11 60.62L280.15 60.65Q275.15 62.32 268.91 62.32L268.91 62.32L268.81 62.22Q266.57 62.30 264.18 62.06L264.08 61.96L264.19 62.06Q264.00 63.10 263.45 70.26L263.51 70.32L263.57 70.38Q264.83 69.56 268.14 69.32L268.20 69.38L268.17 69.35Q274.17 69.73 276.50 72.42L276.46 72.38L276.44 72.36Q278.65 74.82 279.08 81.00L279.08 81.00L279.08 80.99Q279.55 87.77 277.60 91.01L277.49 90.90L277.64 91.06Q274.35 94.07 269.03 94.44L268.92 94.33L269.08 94.49Q267.28 94.41 263.00 94.65ZM272.71 98.31L272.83 98.43L272.74 98.33Q278.24 98.45 281.30 96.67L281.30 96.68L281.46 96.83Q282.96 94.30 282.96 90.94L283.04 91.01L282.95 90.93Q283.04 86.06 281.51 79.45L281.46 79.40L281.41 79.35Q280.85 76.58 278.89 74.32L278.78 74.21L278.89 74.39L278.57 73.94L278.07 73.68L278.05 73.66Q277.57 72.51 276.53 71.41L276.47 71.35L276.56 71.50L276.54 71.48Q273.98 68.68 268.04 68.68L268.17 68.80L267.74 68.80L267.58 68.64Q267.81 67.83 268.12 66.06L268.18 66.12L268.04 65.98Q276.12 66.23 282.61 63.60L282.55 63.54L282.52 63.51Q283.30 61.36 284.83 56.83L284.69 56.69L281.37 58.26L281.39 58.28Q282.05 56.49 282.84 54.66L282.91 54.72L282.80 54.61Q276.56 56.88 269.95 57.00L269.97 57.02L270.06 57.11Q263.44 57.28 257.08 55.51L257.03 55.46L257.12 55.55Q258.26 62.68 258.26 69.78L258.08 69.60L258.10 69.62Q258.22 72.80 258.03 75.86L258.07 75.90L258.01 75.84Q258.48 76.18 259.39 76.67L259.37 76.64L259.28 76.55Q259.86 76.21 260.90 75.66L260.87 75.63L260.97 75.73Q260.80 76.85 260.43 79.29L260.44 79.30L260.41 79.27Q261.25 79.74 261.92 80.11L261.85 80.04L261.92 80.11Q266.40 77.31 269.40 77.31L269.21 77.12L269.30 77.21Q271.51 77.28 273.40 78.32L273.42 78.34L273.25 78.16Q273.81 79.83 273.88 81.36L273.92 81.40L274.03 81.52Q274.07 85.59 272.42 87.37L272.53 87.47L272.36 87.31Q270.15 89.26 266.54 89.63L266.54 89.62L266.63 89.71Q265.08 89.82 263.98 89.70L264.03 89.74L264.05 89.77Q262.72 89.60 261.50 89.05L261.43 88.98L261.44 88.69L261.20 88.81L261.08 88.70Q259.85 87.95 258.99 85.81L259.07 85.88L259.07 85.89Q256.93 88.15 254.24 91.58L254.21 91.55L254.18 91.52Q254.61 92.50 255.96 94.03L255.98 94.05L255.96 94.03Q257.77 97.07 262.30 97.86L262.28 97.85L262.35 97.92Q264.23 98.27 272.86 98.45Z"/><path d="M3 35 C165 57,165 98,338 55" stroke="#6ce4c6" fill="none"/><path d="M18 109 C156 66,178 68,328 3" stroke="#7654dd" fill="none"/><path d="M15 28 C160 82,180 134,321 114" stroke="#6cc6e4" fill="none"/><path d="M9 135 C184 59,177 86,326 56" stroke="#91e7bc" fill="none"/><path d="M1 83 C179 122,170 78,333 126" stroke="#56a0eb" fill="none"/><path d="M4 62 C176 9,158 25,335 88" stroke="#43e996" fill="none"/><path d="M13 89 C151 130,189 114,332 64" stroke="#b2e77d" fill="none"/><path d="M5 137 C173 51,178 96,322 110" stroke="#5fc5e7" fill="none"/><path d="M18 121 C179 40,156 21,326 104" stroke="#9679eb" fill="none"/><path d="M18 63 C162 13,153 77,340 38" stroke="#6742d5" fill="none"/><path d="M14 116 C168 28,176 49,327 43" stroke="#8c46d2" fill="none"/><path d="M5 63 C187 71,162 61,338 92" stroke="#76eed0" fill="none"/><path d="M18 117 C186 83,160 76,336 61" stroke="#e24068" fill="none"/><path d="M16 93 C151 30,160 48,340 126" stroke="#eb5ac7" fill="none"/><path d="M12 17 C153 124,167 87,321 72" stroke="#69e1a5" fill="none"/><path d="M17 123 C179 83,188 27,337 83" stroke="#ca83e1" fill="none"/><path d="M3 33 C180 39,168 77,323 34" stroke="#d1e792" fill="none"/><path d="M10 36 C181 125,182 90,334 105" stroke="#92e278" fill="none"/><path d="M18 1 C172 110,153 105,325 126" stroke="#e8ca72" fill="none"/></svg>