<svg xmlns="http://www.w3.org/2000/svg" width="342" height="140" viewBox="0,0,342,140"><path d="M19 38 C168 123,174 81,326 82" stroke="#e9e94d" fill="none"/><path d="M11 55 C156 59,172 80,329 112" stroke="#8ca6f1" fill="none"/><path d="M2 66 C180 8,188 116,332 139" stroke="#e8ba30" fill="none"/><path d="M9 110 C158 125,186 47,321 123" stroke="#82b5e7" fill="none"/><path d="M4 43 C170 102,170 47,322 77" stroke="#dfc166" fill="none"/><path d="M20 21 C156 19,189 37,340 122" stroke="#9657d5" fill="none"/><path d="M7 54 C159 6,162 32,331 19" stroke="#afe07e" fill="none"/><path d="M5 126 C185 40,178 23,331 32" stroke="#8ce78c" fill="none"/><path d="M12 120 C151 58,151 111,340 10" stroke="#85eed4" fill="none"/><path d="M13 105 C169 41,168 42,333 31" stroke="#6060e6" fill="none"/><path fill="#5376de" d="M53.39 67.76L53.22 67.58L53.30 67.67Q48.66 67.71 45.99 66.15L45.84 66.00L45.98 66.15Q49.63 64.10 56.76 57.92L56.67 57.82L56.79 57.94Q57.90 57.72 59.80 56.83L59.65 56.68L59.71 56.74Q57.84 65.52 57.67 74.82L57.64 74.79L57.63 74.78Q57.45 84.08 59.01 93.00L58.99 92.98L58.91 92.90Q56.54 91.92 53.42 91.76L53.42 91.75L53.40 91.73Q53.23 85.66 53.23 79.69L53.22 79.68L53.20 79.66Q53.23 73.67 53.28 67.65ZM52.73 70.95L52.83 92.39L52.72 92.28Q54.60 92.38 55.99 92.65L55.83 92.49L55.99 92.65Q56.09 93.65 56.37 95.65L56.23 95.52L56.35 95.63Q60.44 96.32 64.01 99.61L64.05 99.66L63.97 99.57Q60.47 89.27 60.42 78.35L60.29 78.23L60.30 78.23Q60.22 67.33 62.89 56.74L62.94 56.79L63.04 56.89Q62.18 57.42 59.84 59.04L59.85 59.05L59.80 59.00Q60.09 57.90 60.54 55.67L60.49 55.63L60.47 55.60Q58.53 56.73 56.41 57.29L56.46 57.33L56.38 57.26Q51.02 62.66 44.73 66.00L44.65 65.93L44.69 65.97Q46.81 67.64 50.26 68.14L50.21 68.09L50.13 68.01Q49.27 68.88 47.38 70.44L47.43 70.49L47.37 70.43Q49.41 70.86 52.65 70.86L52.83 71.04Z"/><path d="M7 119 C169 33,180 29,339 26" stroke="#d94369" fill="none"/><path fill="#4fbde2" d="M222.33 76.06L222.22 75.95L222.30 76.03Q219.66 75.89 217.84 77.98L217.88 78.02L217.71 77.85Q216.09 80.13 215.81 82.92L215.77 82.88L215.77 82.88Q215.42 85.88 217.01 87.30L216.97 87.26L217.02 87.31Q218.50 88.62 221.56 88.45L221.64 88.53L221.65 88.54Q224.74 88.34 226.36 87.34L226.33 87.30L226.24 87.22Q227.90 85.59 227.90 83.30L228.01 83.41L227.96 83.36Q228.07 82.92 227.96 82.36L227.82 82.22L227.87 82.27Q227.97 79.80 226.35 77.83L226.45 77.93L226.42 77.89Q224.68 75.79 222.22 75.95ZM221.59 92.21L221.59 92.21L221.68 92.30Q215.30 92.33 213.24 91.22L213.30 91.28L213.22 91.20Q211.77 90.14 211.49 87.63L211.37 87.51L211.50 87.64Q211.33 86.52 211.39 85.46L211.50 85.58L211.37 85.44Q211.52 83.98 211.52 83.31L211.53 83.32L211.52 83.31Q212.24 79.18 212.46 78.18L212.53 78.25L212.54 78.26Q213.14 75.34 214.36 73.28L214.37 73.28L214.28 73.20Q218.24 66.84 226.94 57.53L226.93 57.53L226.94 57.54Q230.92 57.16 234.15 55.99L234.19 56.03L234.04 55.88Q224.06 66.87 219.38 73.06L219.47 73.14L219.29 72.97Q220.93 72.43 222.82 72.43L222.77 72.37L222.75 72.35Q227.53 72.28 229.75 75.12L229.77 75.14L229.88 75.25Q231.85 77.67 232.35 82.85L232.26 82.75L232.23 82.73Q232.34 83.78 232.34 84.67L232.39 84.72L232.30 84.63Q232.33 89.24 229.10 90.80L229.14 90.84L229.14 90.84Q227.27 91.65 221.59 92.21ZM225.04 95.83L225.10 95.88L224.99 95.78Q227.02 95.85 229.91 95.96L229.81 95.86L229.86 95.91Q232.29 96.06 234.58 95.00L234.48 94.90L234.45 94.87Q236.13 93.76 236.13 91.14L236.17 91.18L236.15 91.16Q236.19 90.48 235.94 89.03L235.81 88.90L235.92 89.01Q235.54 87.43 235.54 86.76L235.71 86.93L235.71 86.93Q234.39 79.98 232.05 77.19L232.09 77.23L232.05 77.19Q231.86 76.95 231.64 76.62L231.57 76.55L231.15 76.24L231.05 76.20L231.20 76.34Q230.54 75.46 229.65 74.07L229.70 74.12L229.61 74.03Q228.31 72.68 225.41 72.01L225.46 72.05L225.39 71.98Q227.16 69.63 231.50 64.22L231.63 64.34L237.72 56.49L237.88 56.66Q235.45 57.80 231.94 58.91L232.04 59.01L232.06 59.03Q233.34 57.53 235.96 54.63L235.88 54.55L235.86 54.52Q232.47 56.20 226.78 57.04L226.73 56.99L226.80 57.07Q218.35 65.62 214.01 72.86L213.94 72.80L214.02 72.88Q211.78 76.55 210.94 85.69L211.04 85.79L211.02 85.76Q210.79 86.48 210.90 87.87L211.04 88.02L210.96 87.94Q211.12 90.55 212.74 91.89L212.80 91.94L212.73 91.88Q213.27 92.09 213.21 92.14L213.26 92.19L213.25 92.17Q213.79 93.50 214.96 94.11L214.92 94.06L215.00 94.15Q217.13 95.16 219.97 95.44L219.81 95.28L219.86 95.33Q219.86 95.33 224.99 95.77ZM224.69 79.37L224.75 79.42L224.69 79.36Q225.51 79.18 226.90 79.90L226.91 79.92L226.93 79.94Q227.41 81.31 227.41 82.26L227.51 82.35L227.50 82.35Q227.78 85.07 226.38 86.52L226.25 86.39L226.35 86.49Q224.81 87.57 221.75 88.02L221.68 87.96L221.59 87.86Q219.64 88.04 218.86 87.65L218.83 87.62L218.73 87.51Q218.43 86.82 218.43 86.38L218.47 86.41L218.45 86.39Q218.10 81.59 222.39 79.69L222.56 79.85L222.48 79.78Q223.63 79.31 224.74 79.42Z"/><path d="M7 79 C152 67,170 121,340 103" stroke="#81b5e8" fill="none"/><path d="M4 15 C157 133,154 75,340 72" stroke="#59ec7e" fill="none"/><path d="M1 94 C159 89,192 28,330 63" stroke="#bce542" fill="none"/><path d="M7 46 C183 76,176 24,335 125" stroke="#6fe18b" fill="none"/><path d="M16 15 C182 71,184 43,340 93" stroke="#45e2ba" fill="none"/><path d="M21 97 C170 116,185 53,327 66" stroke="#71e849" fill="none"/><path d="M6 21 C173 138,171 73,330 132" stroke="#e04242" fill="none"/><path d="M7 36 C174 113,151 31,321 36" stroke="#368ee7" fill="none"/><path d="M7 128 C158 63,162 57,328 105" stroke="#9494e5" fill="none"/><path d="M16 77 C181 109,165 122,336 27" stroke="#83e1b2" fill="none"/><path d="M12 73 C160 29,179 10,325 62" stroke="#e66a41" fill="none"/><path d="M7 35 C179 78,162 119,321 2" stroke="#bcea8e" fill="none"/><path d="M7 48 C158 20,192 46,326 73" stroke="#7250d7" fill="none"/><path fill="#a3e85e" d="M274.16 92.38L274.20 92.42L274.26 92.48Q272.13 92.53 269.85 91.91L269.88 91.95L269.94 92.00Q268.18 90.69 267.96 88.29L267.84 88.17L267.82 88.15Q267.79 87.90 268.07 84.06L268.18 84.17L268.09 84.07Q269.59 83.79 272.54 83.24L272.59 83.28L272.38 84.47L272.32 84.41Q271.85 86.89 273.92 87.73L273.98 87.80L273.96 87.77Q275.07 88.21 278.13 88.21L278.12 88.20L278.16 88.24Q280.62 88.13 280.90 88.02L280.76 87.88L280.85 87.98Q282.06 87.63 283.12 86.90L283.30 87.08L283.22 87.00Q285.21 85.53 284.93 82.47L284.95 82.48L285.02 82.56Q284.71 78.96 282.17 76.67L282.27 76.77L282.17 76.67Q279.65 74.39 276.02 74.39L276.09 74.47L276.03 74.07L276.02 74.06Q276.50 73.93 277.78 73.82L277.93 73.97L277.96 73.99Q280.70 73.78 282.71 71.97L282.59 71.85L282.64 71.90Q284.60 70.04 284.82 67.31L284.80 67.29L284.98 67.46Q285.09 66.97 285.09 66.46L285.10 66.47L285.04 66.41Q284.94 64.08 282.94 62.75L283.05 62.86L282.93 62.74Q281.26 61.68 278.92 61.85L278.86 61.79L278.79 61.73Q276.90 61.50 275.11 62.11L275.13 62.13L275.19 62.19Q272.98 62.88 272.53 64.55L272.71 64.73L272.61 64.62Q272.42 65.83 272.53 66.95L272.47 66.89L272.43 66.84Q271.02 66.60 268.01 65.54L267.94 65.48L267.90 65.44Q267.68 63.10 267.74 61.88L267.59 61.73L267.61 61.75Q267.77 59.51 269.33 58.50L269.40 58.58L269.36 58.54Q271.54 57.76 273.88 57.76L273.85 57.72L273.82 57.70Q278.42 57.62 283.05 58.01L283.05 58.01L283.10 58.06Q290.45 58.61 290.01 64.13L290.06 64.18L290.12 64.24Q289.97 66.38 289.24 68.66L289.28 68.70L289.25 68.67Q287.81 73.08 284.35 74.42L284.42 74.49L284.45 74.51Q288.18 75.18 289.07 80.09L289.13 80.14L289.19 80.21Q289.54 81.89 289.65 84.85L289.48 84.68L289.48 84.68Q289.75 91.25 283.01 91.92L283.02 91.93L283.02 91.93Q281.95 92.02 274.20 92.41ZM281.90 95.77L281.90 95.77L281.93 95.80Q282.72 95.75 286.90 95.86L286.93 95.89L286.89 95.85Q289.44 95.95 291.83 95.00L291.87 95.03L291.99 95.16Q293.74 93.79 293.46 91.22L293.36 91.12L293.42 91.18Q293.14 89.12 292.70 86.56L292.69 86.55L292.70 86.55Q291.75 80.09 288.90 77.69L288.80 77.59L288.47 76.98L288.56 77.01L288.59 77.04Q291.04 74.80 292.15 68.39L292.24 68.49L292.22 68.47Q292.23 67.74 292.39 66.35L292.48 66.44L292.33 66.29Q292.58 65.31 292.46 64.30L292.42 64.26L292.35 64.19Q292.20 61.81 290.30 60.80L290.30 60.80L290.13 60.74L290.15 60.76Q289.66 59.27 287.99 58.49L288.07 58.57L288.16 58.66Q285.76 57.49 278.23 57.04L278.24 57.04L278.25 57.06Q275.94 57.09 273.60 57.09L273.59 57.08L273.44 56.93Q271.18 57.01 268.95 57.96L269.02 58.03L268.88 57.88Q267.07 58.98 267.07 61.54L267.26 61.73L267.12 61.59Q267.17 61.03 267.56 65.93L267.59 65.97L267.66 66.03Q267.98 66.02 270.38 66.91L270.32 66.85L270.43 66.97Q270.48 67.79 270.42 68.51L270.39 68.49L270.31 68.40Q270.29 69.11 270.35 69.89L270.38 69.92L270.37 69.91Q272.92 70.40 275.88 70.57L276.05 70.74L275.89 70.58Q275.85 67.70 277.47 66.48L277.53 66.54L277.49 66.49Q278.74 65.58 281.70 65.24L281.68 65.22L281.71 65.26Q283.29 65.16 284.13 65.44L284.16 65.47L284.13 65.45Q284.23 65.66 284.29 65.83L284.20 65.74L284.21 66.03L284.44 66.93L284.53 67.01Q284.37 67.13 284.31 67.36L284.45 67.50L284.30 67.34Q284.21 69.88 281.98 71.61L282.04 71.66L282.03 71.65Q280.78 73.07 277.82 73.35L277.78 73.31L277.78 73.31Q276.77 73.59 275.49 73.59L275.35 73.44L275.35 73.45Q275.48 74.02 275.70 75.02L275.61 74.93L275.72 75.04Q278.26 75.01 280.37 76.07L280.33 76.03L280.20 76.07L277.93 76.36L277.98 76.41Q277.96 76.84 278.13 77.73L278.05 77.65L278.06 77.66Q281.24 77.61 283.75 79.56L283.69 79.50L283.69 79.50Q284.14 80.17 284.58 82.56L284.54 82.52L284.46 82.45Q284.83 86.83 280.54 87.44L280.55 87.45L280.59 87.49Q277.52 87.87 276.68 87.82L276.57 87.71L276.62 87.76Q276.04 87.68 275.26 87.57L275.29 87.60L275.27 86.91L275.34 86.14L275.34 85.53L275.50 85.19L275.46 85.15Q274.11 85.30 272.94 85.58L272.99 85.64L272.87 85.51Q272.80 85.17 272.80 84.89L272.94 85.03L272.85 84.94Q272.89 84.64 272.89 84.31L272.81 84.23L272.83 84.24Q272.97 83.71 273.19 82.65L273.15 82.62L273.20 82.67Q270.41 82.94 267.68 83.44L267.78 83.54L267.72 83.49Q267.64 84.13 267.47 85.78L267.64 85.94L267.47 85.77Q267.42 87.53 267.42 88.42L267.32 88.33L267.34 88.34Q267.51 91.41 269.52 92.53L269.42 92.43L269.46 92.48Q271.72 95.90 278.63 95.62L278.55 95.55L278.58 95.57Q279.59 95.47 281.82 95.69Z"/><path fill="#dd5f5f" d="M165.54 75.93L165.63 76.02L165.55 75.95Q162.85 75.75 161.04 77.85L161.08 77.89L161.05 77.85Q159.33 80.04 159.05 82.83L159.13 82.90L158.99 82.76Q158.79 85.91 160.38 87.33L160.38 87.34L160.25 87.20Q161.85 88.64 164.92 88.47L165.01 88.56L164.96 88.52Q167.94 88.20 169.55 87.20L169.54 87.18L169.74 87.38Q171.23 85.59 171.23 83.30L171.22 83.29L171.37 83.43Q171.25 82.76 171.14 82.20L171.21 82.28L171.18 82.25Q171.25 79.75 169.63 77.77L169.61 77.75L169.66 77.80Q168.14 75.92 165.69 76.09ZM165.00 92.29L164.93 92.21L164.94 92.23Q158.57 92.27 156.51 91.16L156.59 91.24L156.54 91.18Q154.99 90.03 154.71 87.52L154.71 87.51L154.73 87.54Q154.78 86.63 154.83 85.57L154.82 85.56L154.78 85.52Q154.91 84.04 154.91 83.37L154.99 83.44L154.88 83.33Q155.65 79.26 155.88 78.26L155.74 78.12L155.83 78.21Q156.52 75.39 157.75 73.33L157.74 73.32L157.66 73.24Q161.62 66.88 170.31 57.58L170.31 57.57L170.35 57.61Q174.26 57.18 177.49 56.00L177.36 55.87L177.50 56.01Q167.33 66.80 162.65 72.99L162.81 73.15L162.72 73.06Q164.20 72.36 166.09 72.36L166.01 72.28L166.14 72.41Q170.94 72.36 173.17 75.20L173.10 75.14L173.10 75.13Q175.12 77.60 175.62 82.78L175.68 82.84L175.63 82.79Q175.69 83.80 175.69 84.70L175.64 84.64L175.81 84.81Q175.63 89.21 172.40 90.77L172.46 90.83L172.51 90.87Q170.60 91.65 164.92 92.21ZM168.27 95.72L168.40 95.85L168.41 95.86Q170.26 95.77 173.16 95.88L173.16 95.87L173.17 95.89Q175.59 96.02 177.87 94.96L177.93 95.02L177.88 94.97Q179.51 93.81 179.51 91.19L179.54 91.21L179.37 91.05Q179.44 90.40 179.19 88.95L179.16 88.92L179.12 88.87Q178.94 87.50 178.94 86.83L178.95 86.84L178.98 86.87Q177.75 80.01 175.41 77.22L175.30 77.12L175.36 77.17Q175.14 76.90 174.92 76.57L175.03 76.67L174.48 76.24L174.40 76.22L174.41 76.22Q173.89 75.48 173.00 74.09L173.00 74.09L173.00 74.09Q171.79 72.83 168.90 72.16L168.86 72.13L168.85 72.11Q170.55 69.69 174.90 64.28L174.88 64.26L181.21 56.66L181.17 56.61Q178.84 57.86 175.33 58.97L175.35 58.99L175.33 58.96Q176.64 57.49 179.26 54.60L179.32 54.66L179.32 54.65Q175.86 56.27 170.18 57.11L170.02 56.95L170.10 57.03Q161.65 65.58 157.31 72.83L157.46 72.99L157.40 72.93Q155.07 76.51 154.24 85.65L154.34 85.75L154.34 85.75Q154.22 86.58 154.33 87.97L154.23 87.88L154.36 88.00Q154.50 90.60 156.12 91.93L155.97 91.78L155.95 91.76Q156.68 92.16 156.62 92.22L156.55 92.14L156.55 92.15Q157.18 93.55 158.35 94.17L158.27 94.08L158.24 94.06Q160.45 95.15 163.29 95.43L163.23 95.37L163.28 95.42Q163.21 95.35 168.34 95.79ZM167.99 79.33L167.95 79.29L167.92 79.27Q168.77 79.11 170.16 79.84L170.19 79.86L170.17 79.84Q170.85 81.41 170.85 82.36L170.73 82.24L170.79 82.30Q171.09 85.05 169.70 86.50L169.70 86.51L169.58 86.39Q168.03 87.46 164.97 87.91L164.98 87.91L165.08 88.02Q162.85 87.90 162.07 87.51L162.20 87.65L162.07 87.52Q161.83 86.89 161.83 86.44L161.82 86.44L161.90 86.51Q161.59 81.74 165.88 79.85L165.77 79.73L165.87 79.84Q166.85 79.20 167.97 79.31Z"/><path d="M3 87 C154 79,182 49,328 77" stroke="#56d6d6" fill="none"/><path d="M17 60 C168 88,184 95,333 38" stroke="#eb5aeb" fill="none"/><path d="M18 126 C155 46,188 135,321 30" stroke="#c4e759" fill="none"/><path d="M21 90 C162 9,188 19,326 115" stroke="#5fdd7e" fill="none"/><path d="M19 118 C179 49,165 72,325 137" stroke="#eccf78" fill="none"/><path d="M5 22 C179 39,157 29,332 44" stroke="#6fe16f" fill="none"/><path d="M8 123 C183 116,185 130,325 27" stroke="#dda368" fill="none"/><path d="M7 104 C183 97,155 94,337 17" stroke="#da62da" fill="none"/><path d="M20 73 C151 13,163 23,325 11" stroke="#de48de" fill="none"/><path d="M19 8 C168 15,150 62,330 84" stroke="#e08c38" fill="none"/><path fill="#a5e862" d="M120.70 88.93L120.61 88.84L120.71 88.95Q121.16 90.40 121.94 93.35L121.92 93.33L121.87 93.28Q115.72 91.37 108.98 91.76L108.96 91.74L109.02 91.80Q102.26 92.13 96.41 95.02L96.44 95.05L96.48 95.09Q96.73 94.01 96.79 94.12L96.75 94.08L96.73 94.06Q102.25 88.33 108.00 81.86L108.08 81.95L107.98 81.85Q114.41 74.51 116.14 67.65L116.30 67.81L116.18 67.69Q116.96 65.24 115.09 63.51L115.07 63.49L115.10 63.51Q113.19 61.74 110.57 61.96L110.50 61.90L110.60 62.00Q110.03 61.87 109.53 61.87L109.47 61.82L109.58 61.93Q107.35 61.93 105.51 63.26L105.49 63.25L105.52 63.27Q103.46 65.11 103.79 69.01L103.98 69.21L103.89 69.12Q101.31 68.66 99.53 67.99L99.56 68.02L99.43 67.89Q99.12 65.79 99.01 63.68L99.09 63.75L99.11 63.77Q99.01 61.39 99.90 59.72L99.82 59.64L99.83 59.65Q102.49 57.68 107.40 57.68L107.44 57.73L109.99 57.71L109.96 57.68Q113.29 57.73 114.69 57.89L114.70 57.91L114.69 57.90Q121.15 58.61 121.54 62.18L121.47 62.11L121.52 62.16Q121.50 62.87 121.39 64.04L121.51 64.16L121.41 64.06Q121.48 65.13 121.26 66.13L121.25 66.13L121.24 66.11Q118.85 78.00 107.76 88.03L107.71 87.98L107.72 87.99Q109.73 87.72 111.74 87.72L111.80 87.78L111.71 87.69Q116.48 87.72 120.66 88.90ZM119.87 58.45L119.82 58.39L119.83 58.41Q117.50 57.47 114.99 57.36L114.94 57.31L110.01 57.11L109.93 57.04Q103.44 56.68 100.21 58.30L100.17 58.26L100.15 58.24Q98.61 60.27 98.61 63.28L98.70 63.36L98.66 63.33Q98.65 64.32 99.09 68.44L99.21 68.56L99.19 68.54Q99.94 68.84 101.67 69.29L101.62 69.24L101.74 70.87L101.74 70.87Q101.55 71.40 101.66 72.18L101.68 72.20L101.67 72.19Q103.52 72.37 107.15 72.70L107.20 72.76L107.22 72.78Q107.22 72.27 107.22 71.77L107.08 71.64L107.12 71.68Q107.11 68.99 108.89 67.01L108.93 67.05L108.84 66.96Q110.74 65.09 113.36 65.26L113.35 65.25L113.21 65.11Q114.44 65.28 115.55 65.50L115.62 65.57L115.47 65.42Q115.64 65.98 115.75 66.59L115.71 66.56L115.80 66.65Q115.85 67.25 115.74 67.75L115.77 67.78L115.69 67.70Q113.94 74.76 107.47 81.84L107.36 81.73L107.51 81.88Q104.40 85.18 96.43 94.04L96.27 93.88L96.35 93.96Q96.07 95.18 95.57 96.02L95.60 96.05L95.67 96.12Q97.96 94.79 100.19 94.01L100.12 93.94L100.16 93.98Q99.12 94.83 97.73 97.01L97.70 96.99L97.71 97.00Q97.49 97.44 97.32 97.94L97.32 97.94L97.44 98.06Q104.55 95.02 112.57 95.30L112.59 95.32L112.46 95.19Q120.79 95.44 127.48 98.89L127.58 98.99L126.07 95.81L126.14 95.88Q125.02 93.76 124.63 92.59L124.70 92.66L124.75 92.70Q123.75 92.15 121.96 91.53L121.80 91.37L121.90 91.47Q121.64 90.38 121.09 88.37L121.03 88.32L121.18 88.47Q117.81 87.49 114.46 87.21L114.49 87.24L114.44 87.19Q121.48 80.69 123.71 68.59L123.63 68.50L123.88 64.25L123.98 64.35Q123.69 61.54 121.91 60.54L121.92 60.55L121.92 60.61L121.92 60.61Q121.91 60.55 121.80 60.55L121.69 60.44L121.75 60.49Q121.44 59.30 119.83 58.41Z"/><path d="M15 8 C192 13,165 19,323 100" stroke="#bae146" fill="none"/><path d="M17 25 C187 96,159 112,325 126" stroke="#57dab9" fill="none"/><path d="M2 96 C187 86,160 82,337 49" stroke="#ea8ea5" fill="none"/><path d="M18 62 C178 6,178 134,329 15" stroke="#e6e631" fill="none"/><path d="M20 91 C182 81,178 135,328 17" stroke="#e3683f" fill="none"/><path d="M16 135 C153 118,159 37,324 132" stroke="#e183b2" fill="none"/></svg>