<svg xmlns="http://www.w3.org/2000/svg" width="342" height="140" viewBox="0,0,342,140"><path fill="#d38eeb" d="M162.18 87.12L162.15 87.09L162.13 87.07Q163.81 88.42 165.82 88.20L165.67 88.05L165.79 88.17Q169.93 88.39 170.85 83.61L170.89 83.65L170.80 83.56Q171.76 79.12 171.76 74.28L171.78 74.31L171.78 70.61L171.67 70.50Q171.62 68.65 171.13 66.86L171.22 66.95L171.21 66.94Q169.42 70.20 166.59 77.00L166.74 77.16L166.56 76.98Q163.79 83.83 162.05 86.99ZM169.25 63.46L169.19 63.40L169.23 63.44Q167.61 62.30 165.70 62.30L165.65 62.25L165.83 62.43Q163.54 62.05 161.96 63.35L161.94 63.33L161.98 63.36Q160.41 64.68 160.14 66.80L160.23 66.89L160.19 66.85Q159.64 68.75 159.59 70.87L159.66 70.94L159.54 70.83Q159.74 71.02 159.74 75.10L159.57 74.93L159.61 74.97Q159.60 78.34 160.25 83.50L160.32 83.57L160.39 83.64Q162.95 76.68 169.21 63.41ZM171.54 90.39L171.57 90.42L171.42 90.27Q168.99 91.64 165.68 91.64L165.71 91.68L163.28 91.58L163.39 91.70Q158.65 91.58 157.01 89.13L157.08 89.20L157.04 89.15Q155.88 86.04 155.77 81.85L155.76 81.84L155.87 81.94Q155.86 79.49 155.75 74.54L155.61 74.40L155.69 74.48Q155.69 72.80 155.47 68.44L155.50 68.47L155.38 68.35Q155.29 65.11 155.73 62.28L155.70 62.26L155.66 62.21Q156.34 58.00 162.54 57.67L162.65 57.78L162.59 57.72Q163.64 57.63 165.54 57.68L165.68 57.82L165.67 57.81Q173.80 58.06 175.33 63.01L175.19 62.87L175.24 62.92Q176.17 65.70 176.12 68.37L176.15 68.40L176.16 68.41Q175.97 75.45 175.86 77.19L175.87 77.20L175.91 77.24Q175.63 82.67 175.19 84.52L175.18 84.50L175.06 84.38Q174.12 88.83 171.40 90.24ZM178.55 90.00L178.67 90.11L178.50 89.95Q178.90 86.05 178.85 83.50L178.89 83.54L178.72 76.90L178.70 76.88Q178.54 72.53 177.78 64.65L177.79 64.66L177.80 64.67Q177.17 62.19 175.32 61.10L175.25 61.03L175.21 60.98Q172.94 57.31 165.55 57.09L165.55 57.09L165.67 57.21Q164.39 57.13 162.49 57.19L162.53 57.23L162.52 57.22Q155.96 57.24 155.25 61.70L155.32 61.76L155.24 61.68Q154.74 65.05 154.90 68.04L154.89 68.03L154.83 67.96Q155.42 74.31 155.36 79.10L155.43 79.17L155.31 79.05Q155.21 84.28 155.38 85.75L155.50 85.87L155.38 85.76Q156.09 90.33 158.27 91.47L158.09 91.29L158.12 91.32Q160.25 94.48 165.96 94.87L166.09 94.99L165.91 94.82Q171.20 95.32 172.12 95.26L172.09 95.23L172.06 95.20Q176.16 95.00 177.79 92.72L177.70 92.63L177.70 92.63Q178.37 91.62 178.48 89.93ZM166.37 87.66L166.27 87.56L166.26 87.55Q167.18 85.43 168.70 81.57L168.85 81.72L171.21 75.59L171.16 75.54Q171.14 77.91 170.59 82.69L170.67 82.77L170.65 82.75Q169.78 86.94 166.36 87.65ZM163.50 70.05L163.54 70.09L163.39 69.94Q164.12 67.46 165.10 66.65L165.05 66.60L165.17 66.72Q165.80 66.10 167.65 65.83L167.54 65.72L167.54 65.72Q165.05 70.90 162.38 77.53L162.50 77.64L162.53 77.67Q162.43 73.71 163.41 69.96Z"/><path d="M7 66 C172 101,187 53,334 20" stroke="#a3de67" fill="none"/><path fill="#51e051" d="M223.47 67.81L223.40 67.74L223.46 67.80Q218.79 67.70 216.18 66.17L216.26 66.26L216.21 66.21Q219.72 64.17 226.68 58.13L226.73 58.18L226.80 58.25Q227.87 58.02 229.72 57.15L229.53 56.96L229.72 57.14Q227.64 65.45 227.48 74.53L227.60 74.66L227.60 74.66Q227.35 83.65 228.87 92.36L229.01 92.50L228.91 92.40Q226.61 91.45 223.57 91.29L223.46 91.18L223.46 91.19Q223.37 85.33 223.37 79.51L223.25 79.40L223.36 79.50Q223.36 73.63 223.42 67.76ZM222.86 70.96L222.79 91.71L222.89 91.81Q224.62 91.80 225.98 92.07L225.86 91.95L225.99 92.08Q226.06 93.02 226.33 94.98L226.41 95.06L226.37 95.02Q230.47 95.80 233.95 99.01L233.91 98.97L233.86 98.92Q230.35 88.78 230.30 78.12L230.34 78.16L230.31 78.13Q230.14 67.41 232.75 57.08L232.86 57.19L232.76 57.08Q231.96 57.65 229.68 59.22L229.65 59.19L229.83 59.37Q230.05 58.24 230.49 56.06L230.38 55.95L230.46 56.04Q228.56 57.12 226.49 57.67L226.50 57.68L226.55 57.73Q221.14 62.81 214.99 66.07L215.04 66.12L214.90 65.99Q216.98 67.63 220.35 68.11L220.25 68.02L220.35 68.11Q219.39 68.84 217.54 70.37L217.60 70.42L217.63 70.45Q219.66 70.91 222.82 70.91L222.86 70.96Z"/><path d="M11 49 C161 15,189 32,323 72" stroke="#54e7c2" fill="none"/><path d="M17 30 C154 25,177 127,323 53" stroke="#ed8bed" fill="none"/><path fill="#d85496" d="M104.41 91.86L104.44 91.89L104.52 91.97Q102.52 92.09 100.29 91.50L100.29 91.49L100.18 91.38Q98.39 90.03 98.18 87.69L98.27 87.79L98.19 87.70Q98.17 87.47 98.44 83.71L98.53 83.81L98.47 83.75Q100.03 83.56 102.91 83.01L102.84 82.95L102.49 83.96L102.56 84.03Q102.26 86.61 104.27 87.43L104.16 87.32L104.11 87.27Q105.39 87.89 108.39 87.89L108.38 87.89L108.39 87.90Q110.65 87.66 110.92 87.55L110.97 87.59L110.93 87.56Q112.15 87.25 113.18 86.55L113.17 86.53L113.15 86.51Q115.21 85.21 114.94 82.21L114.99 82.26L114.96 82.24Q114.60 78.67 112.13 76.44L112.26 76.57L112.30 76.60Q109.70 74.25 106.16 74.25L106.25 74.34L106.23 73.99L106.12 73.88Q106.81 73.97 108.06 73.87L108.09 73.90L108.03 73.83Q110.79 73.71 112.74 71.94L112.65 71.84L112.69 71.89Q114.59 70.06 114.80 67.39L114.91 67.49L114.87 67.45Q114.96 66.95 114.96 66.46L114.92 66.42L114.93 66.43Q114.91 64.23 112.95 62.93L112.93 62.91L113.04 63.02Q111.33 61.91 109.05 62.07L109.05 62.08L109.03 62.05Q107.23 61.89 105.49 62.49L105.45 62.44L105.32 62.31Q103.38 63.20 102.95 64.83L102.85 64.73L102.88 64.76Q102.71 65.95 102.81 67.04L102.79 67.02L102.68 66.91Q101.29 66.66 98.35 65.63L98.34 65.61L98.31 65.58Q97.99 63.19 98.04 62.00L98.12 62.07L98.08 62.03Q98.24 59.86 99.77 58.88L99.78 58.89L99.65 58.76Q101.77 58.00 104.05 58.00L103.97 57.92L104.04 57.99Q108.51 57.89 113.02 58.27L113.00 58.24L113.08 58.32Q120.36 58.98 119.93 64.36L119.92 64.35L119.85 64.28Q119.82 66.48 119.11 68.71L119.03 68.63L119.01 68.61Q117.81 73.11 114.43 74.42L114.38 74.36L114.42 74.41Q118.13 75.13 119.00 79.91L118.98 79.89L118.95 79.85Q119.31 81.52 119.42 84.41L119.47 84.46L119.47 84.45Q119.71 90.84 113.13 91.49L112.99 91.35L113.09 91.45Q112.08 91.58 104.52 91.96ZM111.96 95.17L111.98 95.18L111.97 95.18Q112.76 95.15 116.83 95.26L116.90 95.32L116.86 95.28Q119.32 95.35 121.66 94.43L121.66 94.43L121.69 94.46Q123.46 93.18 123.19 90.68L123.06 90.55L123.18 90.67Q122.99 88.74 122.56 86.24L122.45 86.13L122.50 86.19Q121.44 79.74 118.67 77.40L118.78 77.51L118.49 76.96L118.36 76.77L118.44 76.84Q120.98 74.82 122.07 68.56L121.91 68.41L121.88 68.38Q121.95 67.74 122.11 66.38L122.20 66.47L122.14 66.40Q122.21 65.28 122.10 64.30L122.24 64.44L122.20 64.40Q121.98 62.00 120.13 61.02L120.08 60.98L120.09 61.09L119.97 60.98Q119.63 59.65 117.99 58.89L118.04 58.93L117.97 58.86Q115.71 57.81 108.37 57.37L108.51 57.51L108.35 57.35Q106.05 57.33 103.77 57.33L103.66 57.23L103.68 57.25Q101.41 57.26 99.23 58.18L99.33 58.28L99.28 58.23Q97.60 59.37 97.60 61.88L97.58 61.86L97.50 61.78Q97.51 61.19 97.89 65.98L97.92 66.01L98.04 66.13Q98.43 66.20 100.77 67.07L100.70 66.99L100.77 67.06Q100.71 67.76 100.66 68.47L100.58 68.39L100.73 68.55Q100.60 69.12 100.65 69.88L100.72 69.95L100.78 70.01Q103.27 70.49 106.15 70.65L106.15 70.65L106.20 70.70Q106.03 67.76 107.61 66.56L107.58 66.53L107.60 66.55Q108.85 65.68 111.74 65.36L111.73 65.35L111.79 65.41Q113.38 65.37 114.20 65.64L114.12 65.57L114.22 65.67Q114.14 65.70 114.20 65.86L114.21 65.87L114.27 66.21L114.46 67.05L114.48 67.07Q114.50 67.36 114.44 67.57L114.29 67.42L114.35 67.48Q114.20 69.89 112.02 71.57L112.13 71.68L112.01 71.56Q110.75 72.91 107.87 73.19L107.85 73.16L107.91 73.22Q106.77 73.34 105.52 73.34L105.59 73.41L105.68 73.49Q105.59 73.84 105.80 74.82L105.84 74.85L105.95 74.97Q108.44 74.95 110.50 75.98L110.44 75.92L110.27 75.91L108.11 76.26L108.02 76.16Q108.03 76.60 108.19 77.47L108.35 77.64L108.25 77.53Q111.34 77.47 113.78 79.37L113.70 79.28L113.83 79.41Q114.02 79.83 114.46 82.17L114.51 82.22L114.46 82.17Q114.86 86.48 110.67 87.08L110.61 87.02L110.58 86.99Q107.70 87.48 106.88 87.42L106.72 87.26L106.82 87.36Q106.23 87.26 105.46 87.15L105.46 87.14L105.48 86.51L105.52 85.74L105.56 85.18L105.63 84.76L105.67 84.80Q104.22 84.82 103.08 85.09L103.13 85.14L103.08 85.09Q103.04 84.78 103.04 84.50L103.01 84.48L103.08 84.55Q103.26 84.40 103.26 84.07L103.21 84.02L103.07 83.88Q103.18 83.34 103.40 82.31L103.47 82.38L103.49 82.40Q100.83 82.73 98.17 83.22L98.04 83.10L98.01 83.07Q98.06 83.83 97.90 85.43L97.94 85.47L97.99 85.52Q97.87 87.16 97.87 88.03L97.75 87.91L97.79 87.96Q97.87 90.86 99.83 91.95L99.92 92.04L99.82 91.95Q101.98 95.25 108.73 94.98L108.75 95.00L108.78 95.03Q109.76 94.92 111.93 95.14Z"/><path d="M15 107 C166 24,180 9,334 94" stroke="#8888f1" fill="none"/><path d="M2 108 C187 136,154 130,324 53" stroke="#54e254" fill="none"/><path d="M7 118 C165 71,171 75,334 82" stroke="#6363e7" fill="none"/><path d="M13 107 C156 14,155 104,334 86" stroke="#829ae2" fill="none"/><path d="M8 64 C180 5,191 84,322 115" stroke="#72e3e3" fill="none"/><path d="M7 119 C171 71,157 35,324 28" stroke="#5173db" fill="none"/><path d="M16 15 C150 81,163 136,328 138" stroke="#ea57a0" fill="none"/><path d="M19 51 C191 138,186 36,331 133" stroke="#e05b7c" fill="none"/><path d="M3 91 C186 74,180 91,332 80" stroke="#83e19a" fill="none"/><path d="M5 102 C157 81,189 126,335 116" stroke="#c060e0" fill="none"/><path d="M2 123 C171 128,154 110,322 75" stroke="#9340e7" fill="none"/><path d="M19 44 C180 71,164 87,328 59" stroke="#48d991" fill="none"/><path d="M6 79 C164 113,151 97,329 88" stroke="#7fefef" fill="none"/><path d="M5 130 C166 71,166 2,325 40" stroke="#7474e1" fill="none"/><path fill="#9ee05b" d="M273.62 81.41L273.62 81.41L273.60 81.40Q277.95 80.79 282.52 80.96L282.52 80.96L282.50 80.94Q282.51 77.36 282.51 73.94L282.52 73.94L282.59 74.01Q282.55 70.44 282.82 66.80L282.73 66.70L282.81 66.79Q280.99 69.15 273.54 81.34ZM287.74 91.89L287.62 91.77L287.67 91.83Q285.27 91.38 282.71 91.27L282.80 91.36L282.75 91.31Q282.53 87.98 282.36 84.45L282.42 84.51L282.41 84.49Q274.70 84.13 267.96 86.14L267.93 86.11L268.03 86.22Q268.21 85.52 268.48 84.10L268.50 84.13L268.31 83.94Q270.99 79.54 276.10 70.57L276.16 70.64L276.08 70.56Q280.14 63.52 285.04 57.97L285.19 58.13L285.16 58.09Q286.32 57.73 288.71 57.35L288.75 57.38L288.79 57.43Q286.07 66.62 286.07 76.68L286.08 76.69L286.03 76.64Q286.11 78.84 286.22 80.96L286.15 80.89L287.91 80.97L287.95 81.01Q288.90 81.14 289.77 81.30L289.65 81.19L289.65 81.18Q289.79 82.58 290.17 85.35L290.19 85.36L290.22 85.40Q288.60 85.14 286.48 84.87L286.43 84.82L286.42 84.81Q286.69 87.63 287.67 91.82ZM290.07 80.68L290.07 80.68L290.19 80.80Q289.81 80.58 289.54 80.58L289.60 80.64L289.00 80.58L289.08 80.67Q288.90 78.53 288.90 76.52L288.94 76.56L288.81 76.43Q288.89 67.37 291.82 58.77L291.86 58.81L291.85 58.80Q290.64 59.06 288.57 59.60L288.60 59.63L288.56 59.59Q289.05 58.67 289.71 56.66L289.59 56.55L289.66 56.61Q287.70 57.05 284.77 57.37L284.84 57.45L284.86 57.47Q279.16 63.57 271.70 76.94L271.85 77.09L274.86 71.89L274.75 71.77Q274.26 73.36 273.88 74.17L273.71 74.00L267.47 87.01L267.36 86.90Q268.43 86.84 270.07 86.29L269.95 86.18L269.68 86.45L269.74 86.51Q269.56 87.47 269.13 89.27L269.16 89.30L269.27 89.41Q275.14 87.50 282.04 87.77L281.87 87.60L281.96 87.69Q281.96 88.99 282.23 91.82L282.26 91.85L282.22 91.81Q283.83 91.89 285.35 92.06L285.35 92.06L285.35 92.06Q285.63 93.10 286.01 95.06L285.86 94.90L285.87 94.92Q288.66 95.32 292.96 96.62L293.01 96.67L292.94 96.60Q291.56 93.59 290.25 88.91L290.25 88.91L292.26 89.50L292.38 89.62Q293.18 89.78 294.16 90.26L294.27 90.37L294.15 90.25Q293.12 86.77 292.90 84.38L292.93 84.41L292.96 84.44Q292.14 84.22 290.51 83.89L290.37 83.76L290.41 83.80Q290.14 82.00 290.14 80.74ZM278.73 80.55L278.66 80.48L278.68 80.49Q279.87 78.74 282.10 75.10L281.92 74.93L281.97 74.98Q282.06 76.42 282.00 77.78L281.95 77.73L282.02 77.80Q281.94 79.13 281.99 80.49L282.06 80.56L282.04 80.53Q281.14 80.40 280.32 80.40L280.37 80.44L280.36 80.43Q279.60 80.54 278.73 80.54Z"/><path d="M13 6 C164 65,152 25,325 46" stroke="#d34a6c" fill="none"/><path d="M13 6 C187 17,159 133,337 45" stroke="#e98fa6" fill="none"/><path d="M4 33 C154 28,181 100,329 92" stroke="#4f4fe2" fill="none"/><path d="M5 128 C181 97,164 60,323 60" stroke="#74e1e1" fill="none"/><path d="M17 100 C178 47,162 120,337 108" stroke="#c4de77" fill="none"/><path d="M17 24 C186 68,185 99,339 9" stroke="#53d974" fill="none"/><path d="M3 43 C178 99,182 60,338 40" stroke="#5fec82" fill="none"/><path d="M20 62 C166 53,160 22,323 60" stroke="#e04ce0" fill="none"/><path d="M6 49 C158 75,176 121,330 46" stroke="#b2e67e" fill="none"/><path d="M20 103 C151 115,170 68,323 117" stroke="#a0e958" fill="none"/><path d="M12 16 C187 8,155 37,336 98" stroke="#96df4d" fill="none"/><path d="M7 60 C173 105,188 83,338 68" stroke="#e1a364" fill="none"/><path d="M15 124 C181 75,179 80,326 32" stroke="#ceed72" fill="none"/><path d="M19 108 C164 6,155 125,331 92" stroke="#d750b5" fill="none"/><path d="M15 16 C163 112,162 82,337 88" stroke="#73c2dd" fill="none"/><path d="M20 17 C177 86,158 69,335 23" stroke="#bc90e9" fill="none"/><path d="M12 74 C168 14,167 108,321 36" stroke="#e39a81" fill="none"/><path d="M21 103 C159 76,181 104,322 116" stroke="#c255e6" fill="none"/><path d="M8 107 C180 15,164 30,340 125" stroke="#8bedd5" fill="none"/><path d="M8 57 C162 114,157 29,333 74" stroke="#8ae9d1" fill="none"/><path fill="#44bbe3" d="M53.40 67.74L53.38 67.72L53.38 67.72Q48.73 67.64 46.12 66.12L46.17 66.16L46.25 66.25Q49.70 64.15 56.66 58.11L56.75 58.20L56.67 58.12Q57.72 57.87 59.57 57.00L59.64 57.06L59.72 57.15Q57.81 65.63 57.65 74.71L57.49 74.55L57.58 74.64Q57.38 83.69 58.91 92.39L59.02 92.50L58.84 92.33Q56.55 91.39 53.50 91.23L53.44 91.17L53.41 91.14Q53.39 85.35 53.39 79.53L53.24 79.38L53.26 79.41Q53.35 73.62 53.41 67.75ZM52.78 70.87L52.78 91.70L52.92 91.84Q54.62 91.80 55.98 92.08L55.94 92.04L55.86 91.95Q56.08 93.04 56.35 95.00L56.38 95.03L56.34 94.99Q60.45 95.78 63.93 98.99L63.97 99.03L63.79 98.85Q60.33 88.75 60.27 78.09L60.33 78.15L60.21 78.03Q60.23 67.50 62.84 57.17L62.78 57.11L62.82 57.14Q62.09 57.78 59.81 59.35L59.70 59.25L59.72 59.27Q60.07 58.26 60.51 56.09L60.45 56.03L60.53 56.10Q58.58 57.15 56.51 57.69L56.51 57.69L56.50 57.68Q51.06 62.74 44.92 66.00L44.92 66.01L44.86 65.94Q46.96 67.61 50.33 68.10L50.39 68.15L50.29 68.06Q49.38 68.83 47.53 70.35L47.61 70.44L47.59 70.41Q49.72 70.97 52.88 70.97L52.82 70.91Z"/><path d="M13 115 C172 53,167 47,322 110" stroke="#3ae264" fill="none"/><path d="M10 80 C175 78,186 80,323 10" stroke="#ee67ee" fill="none"/><path d="M2 119 C156 29,158 112,328 86" stroke="#d85959" fill="none"/></svg>