<svg xmlns="http://www.w3.org/2000/svg" width="342" height="140" viewBox="0,0,342,140"><path d="M8 30 C171 54,153 34,327 126" stroke="#e740e7" fill="none"/><path d="M14 32 C179 92,155 9,340 100" stroke="#5eeded" fill="none"/><path d="M20 35 C155 115,173 122,328 27" stroke="#74ade6" fill="none"/><path d="M3 70 C188 110,182 128,336 54" stroke="#87e79f" fill="none"/><path d="M11 91 C163 63,173 78,330 42" stroke="#eb9679" fill="none"/><path d="M6 53 C157 88,159 47,341 136" stroke="#addf7a" fill="none"/><path d="M18 134 C189 60,178 20,325 55" stroke="#448ed8" fill="none"/><path d="M14 70 C187 105,176 125,335 89" stroke="#bce98f" fill="none"/><path d="M3 108 C191 42,163 115,326 87" stroke="#d9d943" fill="none"/><path d="M5 126 C176 110,156 50,324 69" stroke="#829ae2" fill="none"/><path d="M16 133 C189 86,171 126,323 122" stroke="#93e5d1" fill="none"/><path d="M8 42 C189 130,157 91,335 31" stroke="#77d557" fill="none"/><path d="M9 82 C161 125,158 11,337 39" stroke="#9bda5c" fill="none"/><path d="M7 61 C162 123,165 101,322 67" stroke="#97e6ab" fill="none"/><path d="M8 83 C173 88,163 135,330 16" stroke="#e64b72" fill="none"/><path d="M15 4 C160 29,187 52,332 112" stroke="#d7b44b" fill="none"/><path d="M13 127 C181 96,155 101,338 35" stroke="#69eccb" fill="none"/><path d="M16 80 C162 56,167 58,321 57" stroke="#ef8ad5" fill="none"/><path d="M4 124 C177 66,176 46,335 10" stroke="#83f19e" fill="none"/><path d="M10 115 C171 73,170 91,326 2" stroke="#4ee3be" fill="none"/><path fill="#7857da" d="M267.81 67.09L267.77 67.05L267.77 67.06Q262.07 67.18 258.74 65.23L258.63 65.13L258.67 65.17Q263.30 62.73 272.18 55.03L272.18 55.03L272.11 54.96Q273.37 54.56 275.73 53.45L275.79 53.51L275.85 53.57Q273.33 64.29 273.12 75.87L273.13 75.87L273.21 75.96Q272.85 87.39 274.80 98.49L274.80 98.49L274.97 98.66Q271.83 97.26 267.95 97.05L267.95 97.05L267.92 97.02Q267.81 89.56 267.81 82.14L267.78 82.11L267.80 82.13Q267.77 74.62 267.84 67.13ZM267.07 71.13L267.18 97.80L267.07 97.69Q269.29 97.69 271.02 98.04L270.97 97.99L271.04 98.06Q271.25 99.38 271.60 101.88L271.57 101.85L271.47 101.75Q276.69 102.74 281.13 106.83L281.27 106.97L281.15 106.85Q276.71 93.95 276.64 80.36L276.59 80.31L276.66 80.39Q276.44 66.71 279.77 53.53L279.75 53.52L279.71 53.47Q278.90 54.40 275.99 56.41L275.91 56.34L275.97 56.39Q276.27 54.96 276.83 52.19L276.73 52.09L276.91 52.27Q274.45 53.63 271.82 54.32L271.72 54.22L271.82 54.32Q264.88 60.76 257.04 64.92L257.05 64.94L257.05 64.93Q259.70 67.02 264.00 67.65L263.94 67.59L263.99 67.64Q262.80 68.60 260.44 70.54L260.37 70.47L260.38 70.48Q263.05 71.14 267.07 71.14L267.02 71.08Z"/><path d="M15 120 C191 133,170 65,321 126" stroke="#6d46e1" fill="none"/><path d="M11 122 C173 105,163 43,322 12" stroke="#c3e06a" fill="none"/><path d="M7 71 C176 118,187 88,321 9" stroke="#e2b78c" fill="none"/><path d="M2 101 C171 85,171 57,324 112" stroke="#ad72e8" fill="none"/><path d="M7 21 C164 113,190 78,321 124" stroke="#bc90e8" fill="none"/><path d="M5 15 C172 19,176 54,328 87" stroke="#6fc0dc" fill="none"/><path d="M10 119 C156 7,178 91,322 23" stroke="#82e7b5" fill="none"/><path d="M21 122 C188 31,158 82,324 13" stroke="#728ee3" fill="none"/><path d="M10 88 C163 56,179 136,326 33" stroke="#89eaea" fill="none"/><path d="M19 22 C168 35,178 131,322 22" stroke="#86edba" fill="none"/><path d="M11 98 C164 131,168 62,324 123" stroke="#71e849" fill="none"/><path d="M15 87 C179 118,175 35,335 32" stroke="#b4db42" fill="none"/><path d="M3 26 C152 78,186 85,339 23" stroke="#65e6a5" fill="none"/><path d="M19 128 C150 47,159 33,327 135" stroke="#b5e980" fill="none"/><path d="M11 28 C188 83,150 18,329 83" stroke="#91e7a7" fill="none"/><path d="M3 79 C156 34,163 14,324 63" stroke="#e344e3" fill="none"/><path d="M19 63 C154 128,163 44,330 47" stroke="#53d493" fill="none"/><path d="M12 47 C155 7,162 136,324 128" stroke="#984ce5" fill="none"/><path d="M18 28 C173 17,180 57,333 77" stroke="#f18cf1" fill="none"/><path fill="#de72de" d="M213.18 93.57L213.15 93.53L213.21 93.60Q213.65 95.29 214.62 98.96L214.60 98.94L214.68 99.02Q206.87 96.48 198.48 96.97L198.57 97.06L198.56 97.05Q190.20 97.49 182.92 101.10L182.98 101.16L182.88 101.06Q183.33 99.84 183.40 99.98L183.46 100.05L183.48 100.07Q190.33 92.91 197.48 84.87L197.43 84.82L197.36 84.75Q205.45 75.71 207.60 67.18L207.65 67.24L207.55 67.13Q208.47 64.04 206.15 61.89L206.14 61.88L206.12 61.86Q203.82 59.73 200.56 60.01L200.55 60.00L200.60 60.04Q199.95 59.95 199.33 59.95L199.22 59.85L199.21 59.83Q196.50 59.90 194.21 61.56L194.25 61.61L194.12 61.47Q191.85 64.06 192.27 68.91L192.32 68.96L192.27 68.91Q188.99 68.27 186.77 67.44L186.84 67.51L186.72 67.38Q186.33 64.78 186.19 62.14L186.35 62.30L186.30 62.25Q186.06 59.17 187.17 57.09L187.19 57.11L187.29 57.20Q190.44 54.60 196.54 54.60L196.53 54.59L199.80 54.67L199.90 54.77Q203.92 54.70 205.65 54.91L205.72 54.97L205.64 54.90Q213.54 55.65 214.03 60.09L214.12 60.18L214.09 60.15Q214.13 61.09 213.99 62.55L214.01 62.57L214.00 62.57Q214.03 63.83 213.75 65.08L213.68 65.02L213.79 65.13Q210.81 79.89 197.01 92.38L196.88 92.24L196.92 92.29Q199.57 92.09 202.06 92.09L201.93 91.96L202.06 92.08Q208.01 92.14 213.21 93.60ZM212.11 55.61L212.17 55.67L212.03 55.53Q209.12 54.35 206.00 54.21L206.03 54.25L199.87 53.97L199.76 53.86Q191.60 53.33 187.58 55.34L187.75 55.52L187.63 55.40Q185.64 57.85 185.64 61.59L185.67 61.63L185.65 61.60Q185.75 62.94 186.30 68.08L186.26 68.04L186.27 68.04Q187.39 68.61 189.54 69.17L189.55 69.18L189.42 70.91L189.38 70.87Q189.33 71.73 189.47 72.70L189.60 72.83L189.47 72.70Q191.74 72.89 196.25 73.31L196.42 73.48L196.39 73.45Q196.18 72.62 196.18 71.99L196.34 72.15L196.20 72.02Q196.33 68.81 198.55 66.35L198.42 66.22L198.49 66.29Q200.61 63.73 203.87 63.94L203.98 64.05L203.87 63.94Q205.31 64.07 206.70 64.34L206.68 64.32L206.83 64.48Q207.00 65.13 207.14 65.89L207.15 65.90L207.10 65.86Q207.11 66.55 206.97 67.18L207.06 67.27L206.97 67.18Q204.68 75.85 196.64 84.65L196.76 84.78L196.75 84.76Q192.83 88.82 182.91 99.84L182.85 99.78L182.88 99.81Q182.51 101.32 181.89 102.36L181.98 102.45L181.91 102.38Q184.90 100.86 187.67 99.89L187.59 99.81L187.68 99.90Q186.20 100.77 184.46 103.47L184.57 103.58L184.62 103.63Q184.29 104.13 184.08 104.76L184.15 104.83L184.14 104.82Q193.04 101.10 203.03 101.44L202.95 101.36L202.91 101.33Q213.28 101.64 221.60 105.94L221.62 105.96L219.88 102.14L219.83 102.09Q218.70 99.71 218.21 98.25L218.27 98.31L218.28 98.32Q216.77 97.37 214.56 96.61L214.72 96.77L214.65 96.70Q214.30 95.31 213.60 92.81L213.63 92.84L213.70 92.91Q209.65 91.84 205.49 91.49L205.47 91.47L205.57 91.57Q213.96 83.12 216.74 68.07L216.84 68.17L217.13 62.85L217.13 62.85Q217.06 59.65 214.84 58.41L214.70 58.27L214.76 58.40L214.62 58.26Q214.67 58.24 214.53 58.24L214.58 58.28L214.44 58.14Q213.99 56.59 211.98 55.48Z"/><path fill="#bce443" d="M63.75 67.03L63.71 67.00L63.90 67.18Q57.92 67.03 54.59 65.09L54.63 65.12L54.62 65.11Q59.13 62.56 68.01 54.86L68.13 54.98L68.14 54.99Q69.41 54.60 71.77 53.49L71.69 53.41L71.70 53.42Q69.34 64.30 69.14 75.88L69.14 75.89L69.13 75.88Q69.03 87.56 70.97 98.66L70.98 98.67L70.93 98.62Q67.78 97.20 63.89 96.99L63.88 96.98L63.87 96.97Q63.74 89.49 63.74 82.07L63.74 82.07L63.79 82.12Q63.76 74.60 63.83 67.11ZM63.11 71.18L63.05 97.67L63.07 97.70Q65.29 97.70 67.03 98.05L67.05 98.07L67.00 98.02Q67.27 99.39 67.61 101.89L67.55 101.83L67.46 101.74Q72.70 102.75 77.14 106.84L77.24 106.94L77.13 106.84Q72.60 93.84 72.53 80.25L72.58 80.30L72.55 80.27Q72.57 66.84 75.90 53.66L75.81 53.58L75.77 53.54Q74.75 54.25 71.84 56.26L71.96 56.38L71.87 56.29Q72.22 54.91 72.78 52.14L72.84 52.20L72.87 52.24Q70.39 53.56 67.75 54.25L67.77 54.27L67.79 54.29Q60.93 60.81 53.09 64.97L53.03 64.91L53.08 64.96Q55.69 67.02 59.99 67.64L59.83 67.49L59.98 67.63Q58.72 68.52 56.37 70.47L56.34 70.44L56.40 70.50Q59.10 71.19 63.12 71.19L63.20 71.27Z"/><path fill="#87e269" d="M124.75 98.00L124.77 98.01L124.75 98.00Q122.09 98.04 119.24 97.27L119.35 97.38L119.36 97.39Q117.02 95.60 116.74 92.62L116.81 92.69L116.83 92.71Q116.72 92.33 117.07 87.54L117.05 87.52L117.06 87.54Q118.90 87.16 122.58 86.46L122.63 86.51L122.37 87.99L122.18 87.80Q121.82 91.12 124.39 92.16L124.44 92.21L124.31 92.08Q125.85 92.78 129.66 92.78L129.68 92.81L129.70 92.82Q132.58 92.51 132.93 92.37L132.88 92.33L132.80 92.25Q134.60 92.11 135.92 91.21L135.83 91.12L135.91 91.20Q138.42 89.41 138.07 85.59L138.15 85.67L138.12 85.64Q137.77 81.20 134.62 78.36L134.48 78.22L134.67 78.41Q131.42 75.48 126.91 75.48L126.99 75.56L126.82 74.97L126.97 75.12Q127.70 75.08 129.29 74.94L129.14 74.79L129.14 74.79Q132.68 74.65 135.18 72.40L135.14 72.37L135.17 72.39Q137.69 70.16 137.96 66.76L138.04 66.84L137.87 66.67Q138.05 66.09 138.05 65.46L138.14 65.55L138.15 65.56Q138.06 62.70 135.56 61.03L135.51 60.98L135.57 61.04Q133.44 59.68 130.53 59.88L130.40 59.76L130.50 59.86Q128.09 59.52 125.87 60.29L125.86 60.28L125.93 60.34Q123.19 61.22 122.64 63.30L122.77 63.43L122.69 63.35Q122.31 64.70 122.45 66.09L122.48 66.12L122.55 66.19Q120.60 65.69 116.85 64.38L116.84 64.36L116.84 64.36Q116.35 61.24 116.42 59.72L116.43 59.72L116.42 59.71Q116.75 57.06 118.69 55.81L118.70 55.82L118.71 55.83Q121.21 54.65 124.12 54.65L124.24 54.77L124.09 54.62Q129.92 54.62 135.67 55.11L135.56 55.00L135.64 55.08Q144.93 55.91 144.37 62.77L144.35 62.75L144.33 62.73Q144.17 65.41 143.26 68.25L143.19 68.18L143.21 68.19Q141.67 73.94 137.37 75.60L137.34 75.57L137.33 75.56Q142.18 76.60 143.29 82.70L143.21 82.62L143.25 82.66Q143.60 84.67 143.74 88.35L143.78 88.39L143.71 88.32Q143.99 96.44 135.60 97.27L135.64 97.31L135.66 97.33Q134.25 97.37 124.61 97.85ZM134.17 102.01L134.27 102.11L134.26 102.10Q135.36 102.15 140.56 102.29L140.45 102.19L140.44 102.18Q143.65 102.34 146.64 101.16L146.69 101.22L146.72 101.24Q148.89 99.54 148.55 96.35L148.54 96.34L148.50 96.30Q148.34 93.92 147.79 90.73L147.77 90.72L147.80 90.74Q146.34 82.42 142.80 79.44L142.82 79.45L142.56 78.85L142.40 78.62L142.44 78.66Q145.69 76.08 147.07 68.11L146.99 68.02L147.06 68.09Q147.13 67.26 147.34 65.53L147.40 65.59L147.32 65.51Q147.34 64.01 147.20 62.76L147.28 62.84L147.35 62.91Q147.00 59.79 144.65 58.54L144.58 58.47L144.54 58.57L144.54 58.57Q144.02 56.80 141.93 55.83L141.97 55.86L141.97 55.86Q139.16 54.57 129.79 54.02L129.85 54.07L129.81 54.03Q126.77 53.91 123.86 53.91L123.70 53.75L123.87 53.92Q120.96 53.92 118.19 55.10L118.02 54.93L118.17 55.08Q115.83 56.34 115.83 59.53L115.87 59.58L115.91 59.62Q115.92 58.87 116.41 64.97L116.42 64.99L116.42 64.98Q116.87 65.02 119.85 66.13L119.82 66.10L119.85 66.12Q119.98 67.23 119.91 68.13L119.85 68.07L119.88 68.10Q119.81 68.93 119.88 69.90L119.90 69.91L119.88 69.90Q123.23 70.69 126.91 70.89L126.75 70.73L126.76 70.74Q126.72 67.17 128.73 65.64L128.74 65.65L128.75 65.66Q130.29 64.50 133.96 64.08L133.94 64.06L133.88 64.00Q135.94 63.97 136.98 64.32L137.13 64.48L137.09 64.43Q137.18 64.66 137.25 64.87L137.19 64.81L137.13 65.10L137.39 66.19L137.38 66.18Q137.43 66.57 137.36 66.85L137.31 66.80L137.28 66.78Q137.11 69.86 134.33 72.01L134.41 72.09L134.40 72.07Q132.75 73.76 129.08 74.10L129.11 74.14L129.13 74.15Q127.65 74.27 126.06 74.27L126.16 74.37L126.07 74.28Q126.32 75.09 126.60 76.34L126.59 76.33L126.48 76.23Q129.78 76.33 132.41 77.65L132.23 77.46L132.16 77.60L129.27 77.90L129.21 77.84Q129.30 78.48 129.50 79.59L129.57 79.66L129.59 79.68Q133.37 79.43 136.49 81.86L136.54 81.91L136.49 81.86Q136.95 82.60 137.50 85.58L137.45 85.53L137.57 85.65Q137.86 90.93 132.52 91.69L132.55 91.72L132.48 91.65Q128.80 92.27 127.76 92.20L127.76 92.20L127.63 92.07Q126.75 91.81 125.78 91.67L125.87 91.76L125.88 90.94L126.10 90.12L126.24 89.50L126.20 88.84L126.21 88.85Q124.50 89.01 123.05 89.36L122.98 89.29L123.12 89.43Q122.92 88.88 122.92 88.54L122.87 88.48L122.88 88.50Q123.05 88.26 123.05 87.84L123.05 87.84L123.00 87.79Q123.02 86.97 123.29 85.65L123.30 85.66L123.44 85.81Q120.04 86.22 116.65 86.84L116.62 86.82L116.64 86.83Q116.60 87.69 116.39 89.74L116.33 89.68L116.31 89.66Q116.08 91.69 116.08 92.80L116.24 92.96L116.25 92.96Q116.36 96.68 118.85 98.06L118.88 98.09L118.72 97.93Q121.50 102.17 130.10 101.82L130.04 101.76L130.13 101.85Q131.44 101.78 134.22 102.05Z"/><path d="M7 126 C170 76,183 7,328 42" stroke="#e97048" fill="none"/></svg>