<svg xmlns="http://www.w3.org/2000/svg" width="342" height="140" viewBox="0,0,342,140"><path d="M16 72 C192 33,153 80,337 107" stroke="#e7754f" fill="none"/><path d="M20 13 C170 128,180 72,333 123" stroke="#d1e98a" fill="none"/><path d="M7 138 C152 69,186 106,340 16" stroke="#73ec91" fill="none"/><path d="M13 2 C177 30,162 2,341 138" stroke="#60e0e0" fill="none"/><path d="M21 8 C187 111,150 110,340 61" stroke="#9be254" fill="none"/><path d="M15 93 C168 110,171 91,321 41" stroke="#7ae5ca" fill="none"/><path d="M12 29 C185 126,165 102,329 82" stroke="#dd8d73" fill="none"/><path d="M2 34 C182 11,164 53,324 12" stroke="#b280e4" fill="none"/><path d="M13 67 C176 119,169 122,336 115" stroke="#4ab1d3" fill="none"/><path d="M18 120 C169 123,158 67,328 95" stroke="#aaec69" fill="none"/><path d="M2 5 C181 4,172 23,328 5" stroke="#93e641" fill="none"/><path fill="#94df7a" d="M192.32 99.10L192.25 99.03L192.22 99.00Q189.53 99.13 186.58 98.33L186.64 98.40L186.61 98.37Q184.39 96.73 184.11 93.63L183.95 93.47L183.96 93.48Q183.91 93.14 184.27 88.17L184.28 88.19L184.23 88.14Q186.18 87.78 190.00 87.06L190.07 87.13L189.67 88.53L189.77 88.63Q189.31 91.99 191.98 93.07L191.96 93.05L191.98 93.07Q193.50 93.73 197.47 93.73L197.41 93.67L197.35 93.61Q200.40 93.35 200.76 93.21L200.75 93.19L200.69 93.14Q202.53 92.96 203.90 92.02L203.80 91.92L203.80 91.92Q206.56 90.21 206.20 86.25L206.11 86.16L206.07 86.12Q205.87 81.67 202.59 78.72L202.52 78.64L202.51 78.64Q199.31 75.76 194.62 75.76L194.51 75.65L194.49 75.19L194.63 75.33Q195.19 75.09 196.84 74.95L196.98 75.09L196.92 75.03Q200.57 74.86 203.17 72.52L203.07 72.43L203.06 72.41Q205.72 70.14 206.01 66.61L205.98 66.58L205.99 66.59Q206.17 65.98 206.17 65.33L206.11 65.27L206.13 65.28Q206.13 62.40 203.54 60.67L203.50 60.64L203.62 60.76Q201.33 59.26 198.30 59.48L198.21 59.38L198.28 59.45Q195.76 59.10 193.46 59.89L193.51 59.94L193.55 59.98Q190.71 60.89 190.14 63.05L190.17 63.08L190.23 63.15Q189.75 64.47 189.89 65.91L189.98 65.99L190.00 66.01Q188.08 65.61 184.19 64.24L184.18 64.23L184.06 64.11Q183.75 61.06 183.82 59.47L183.65 59.31L183.66 59.32Q183.97 56.53 185.99 55.23L186.01 55.25L186.01 55.25Q188.56 53.98 191.58 53.98L191.66 54.05L191.59 53.99Q197.64 53.98 203.62 54.48L203.57 54.44L203.58 54.45Q213.20 55.27 212.62 62.41L212.66 62.45L212.75 62.53Q212.41 65.15 211.47 68.11L211.49 68.12L211.47 68.10Q209.93 74.13 205.47 75.86L205.37 75.77L205.37 75.77Q210.26 76.69 211.41 83.03L211.50 83.12L211.59 83.21Q212.00 85.35 212.15 89.17L212.11 89.13L212.02 89.05Q212.40 97.57 203.68 98.43L203.55 98.30L203.72 98.47Q202.28 98.54 192.26 99.05ZM202.12 103.29L202.14 103.30L202.16 103.33Q203.25 103.33 208.65 103.47L208.77 103.59L208.69 103.51Q212.05 103.70 215.15 102.48L215.06 102.39L215.05 102.38Q217.24 100.54 216.88 97.22L217.02 97.36L217.05 97.39Q216.77 94.81 216.20 91.49L216.21 91.50L216.24 91.53Q214.77 82.93 211.09 79.83L211.19 79.93L210.76 79.14L210.73 79.03L210.68 78.99Q213.95 76.20 215.39 67.92L215.42 67.95L215.52 68.05Q215.53 67.12 215.75 65.32L215.71 65.28L215.76 65.33Q215.85 63.84 215.71 62.54L215.77 62.61L215.80 62.63Q215.48 59.43 213.03 58.14L213.04 58.14L212.79 58.04L212.84 58.09Q212.26 56.21 210.10 55.20L210.22 55.32L210.10 55.20Q207.34 54.03 197.61 53.45L197.51 53.35L197.50 53.33Q194.32 53.19 191.29 53.19L191.37 53.26L191.39 53.28Q188.21 53.12 185.32 54.35L185.48 54.51L185.36 54.39Q183.08 55.85 183.08 59.16L183.01 59.10L183.19 59.28Q183.03 58.33 183.54 64.67L183.58 64.71L183.67 64.80Q184.17 64.87 187.27 66.03L187.33 66.08L187.23 65.98Q187.19 66.95 187.12 67.89L187.16 67.93L187.17 67.95Q187.16 68.86 187.23 69.87L187.27 69.92L187.37 70.02Q190.72 70.70 194.54 70.92L194.47 70.85L194.55 70.92Q194.36 67.06 196.45 65.47L196.52 65.55L196.39 65.42Q198.00 64.21 201.82 63.78L201.84 63.80L201.87 63.84Q204.05 63.85 205.13 64.21L205.08 64.16L205.06 64.14Q205.17 64.40 205.25 64.62L205.23 64.60L205.16 64.89L205.39 65.98L205.45 66.04Q205.51 66.46 205.44 66.75L205.28 66.60L205.38 66.70Q205.17 69.87 202.29 72.11L202.37 72.19L202.26 72.08Q200.64 73.92 196.82 74.28L196.80 74.26L196.76 74.22Q195.34 74.46 193.69 74.46L193.67 74.44L193.84 74.61Q193.80 75.15 194.09 76.45L194.07 76.43L194.10 76.46Q197.42 76.47 200.16 77.84L200.22 77.89L200.00 77.89L196.95 78.16L197.02 78.23Q197.09 78.87 197.31 80.03L197.22 79.94L197.27 79.99Q201.27 79.81 204.52 82.33L204.55 82.36L204.53 82.35Q205.01 83.12 205.59 86.22L205.52 86.15L205.64 86.27Q205.95 91.77 200.40 92.56L200.35 92.51L200.48 92.64Q196.43 93.05 195.35 92.98L195.30 92.94L195.36 92.99Q194.43 92.71 193.42 92.56L193.54 92.69L193.47 91.76L193.72 90.92L193.78 90.19L193.81 89.57L193.83 89.59Q192.12 89.82 190.60 90.18L190.46 90.04L190.52 90.10Q190.39 89.61 190.39 89.25L190.46 89.32L190.40 89.26Q190.44 88.87 190.44 88.43L190.49 88.49L190.51 88.50Q190.61 87.74 190.89 86.37L190.93 86.40L190.81 86.28Q187.29 86.72 183.76 87.37L183.86 87.48L183.75 87.36Q183.83 88.38 183.61 90.51L183.61 90.50L183.61 90.50Q183.43 92.66 183.43 93.81L183.33 93.72L183.46 93.84Q183.55 97.69 186.15 99.13L186.22 99.21L186.22 99.20Q188.89 103.39 197.83 103.03L197.97 103.17L197.92 103.12Q199.26 103.02 202.15 103.31Z"/><path d="M2 24 C188 112,177 17,324 129" stroke="#8062d9" fill="none"/><path d="M15 76 C181 46,175 127,330 17" stroke="#8c71de" fill="none"/><path d="M11 78 C181 71,176 11,328 93" stroke="#e3cc86" fill="none"/><path d="M15 4 C189 78,158 54,340 41" stroke="#e8819b" fill="none"/><path fill="#d95899" d="M63.62 66.96L63.65 66.98L63.69 67.03Q57.64 67.03 54.18 65.01L54.08 64.91L54.08 64.90Q58.87 62.35 68.10 54.35L68.14 54.40L68.19 54.45Q69.48 54.00 71.93 52.85L72.02 52.94L71.98 52.90Q69.32 64.01 69.10 76.04L69.26 76.19L69.28 76.21Q68.94 88.13 70.96 99.66L70.92 99.62L71.02 99.72Q67.77 98.27 63.73 98.05L63.81 98.12L63.69 98.01Q63.62 90.30 63.62 82.59L63.54 82.51L63.59 82.56Q63.48 74.66 63.55 66.88ZM62.88 71.18L62.99 98.89L62.97 98.87Q65.23 98.83 67.03 99.19L67.01 99.17L66.97 99.13Q67.12 100.43 67.48 103.02L67.53 103.07L67.50 103.04Q72.99 104.14 77.60 108.39L77.45 108.24L77.52 108.31Q72.80 94.80 72.73 80.67L72.85 80.80L72.83 80.78Q72.61 66.57 76.07 52.88L76.11 52.92L76.09 52.91Q75.15 53.77 72.13 55.86L71.99 55.73L72.16 55.89Q72.48 54.42 73.06 51.53L73.08 51.55L72.98 51.45Q70.39 52.83 67.65 53.55L67.82 53.72L67.77 53.67Q60.68 60.48 52.54 64.81L52.46 64.73L52.42 64.69Q55.20 66.89 59.67 67.54L59.66 67.54L59.55 67.42Q58.48 68.58 56.03 70.60L55.83 70.40L55.94 70.52Q58.66 71.15 62.84 71.15L62.90 71.21Z"/><path d="M18 125 C151 106,154 74,332 12" stroke="#8e49d4" fill="none"/><path d="M10 80 C160 11,188 30,339 73" stroke="#b73ce0" fill="none"/><path d="M13 13 C154 34,183 68,332 117" stroke="#93d651" fill="none"/><path fill="#5f82ec" d="M267.65 66.98L267.66 66.99L267.58 66.91Q261.69 67.07 258.23 65.05L258.06 64.89L258.08 64.91Q262.82 62.30 272.04 54.30L272.06 54.31L272.07 54.32Q273.44 53.96 275.89 52.81L275.94 52.86L275.84 52.76Q273.34 64.02 273.12 76.06L273.14 76.07L273.11 76.04Q272.95 88.14 274.97 99.67L274.98 99.68L274.99 99.69Q271.92 98.42 267.88 98.20L267.83 98.15L267.75 98.07Q267.54 90.22 267.54 82.51L267.55 82.52L267.54 82.51Q267.65 74.84 267.73 67.06ZM266.87 71.18L266.93 98.83L266.92 98.82Q269.28 98.88 271.09 99.24L270.95 99.10L271.10 99.26Q271.19 100.50 271.55 103.09L271.62 103.16L271.50 103.05Q276.94 104.09 281.55 108.34L281.46 108.24L281.46 108.24Q276.84 94.84 276.77 80.71L276.89 80.83L276.75 80.69Q276.69 66.65 280.15 52.96L280.19 53.00L280.20 53.02Q279.12 53.74 276.10 55.83L276.09 55.82L276.03 55.76Q276.50 54.43 277.08 51.55L277.04 51.52L277.05 51.53Q274.45 52.88 271.71 53.60L271.84 53.74L271.83 53.72Q264.53 60.33 256.39 64.66L256.54 64.81L256.40 64.67Q259.09 66.79 263.56 67.44L263.52 67.40L263.55 67.42Q262.46 68.56 260.01 70.58L259.94 70.51L259.83 70.41Q262.80 71.29 266.98 71.29L266.90 71.21Z"/><path d="M8 39 C166 74,150 14,336 52" stroke="#e0c984" fill="none"/><path d="M20 136 C181 134,180 28,327 77" stroke="#9076df" fill="none"/><path d="M21 10 C173 5,161 82,331 107" stroke="#df7590" fill="none"/><path d="M19 98 C150 68,165 19,321 19" stroke="#599ee2" fill="none"/><path d="M15 102 C178 15,192 122,326 106" stroke="#dfdf43" fill="none"/><path d="M19 115 C189 137,168 113,326 67" stroke="#bbe736" fill="none"/><path d="M13 62 C166 87,151 21,335 89" stroke="#6d44e7" fill="none"/><path d="M21 89 C150 41,153 68,328 79" stroke="#68c4e3" fill="none"/><path d="M8 59 C158 51,158 116,340 120" stroke="#e791e7" fill="none"/><path d="M11 65 C152 118,189 41,325 23" stroke="#e1964b" fill="none"/><path d="M3 114 C156 10,181 20,341 14" stroke="#9ced82" fill="none"/><path d="M5 128 C183 118,158 104,323 33" stroke="#e877cc" fill="none"/><path d="M8 81 C162 122,171 115,334 49" stroke="#4cb7db" fill="none"/><path fill="#cced68" d="M124.21 98.99L124.23 99.02L124.22 99.00Q121.69 99.28 118.73 98.49L118.72 98.48L118.63 98.39Q116.39 96.73 116.11 93.63L116.01 93.54L116.02 93.55Q116.06 93.29 116.42 88.32L116.37 88.27L116.40 88.31Q118.19 87.79 122.01 87.07L122.19 87.24L121.73 88.59L121.65 88.51Q121.21 91.89 123.88 92.97L123.97 93.06L123.95 93.04Q125.32 93.55 129.28 93.55L129.36 93.63L129.36 93.62Q132.38 93.33 132.74 93.18L132.72 93.17L132.70 93.14Q134.41 92.84 135.78 91.90L135.89 92.02L135.78 91.90Q138.46 90.12 138.10 86.15L138.22 86.27L138.10 86.15Q137.85 81.65 134.57 78.70L134.56 78.68L134.47 78.59Q131.28 75.73 126.59 75.73L126.59 75.72L126.65 75.35L126.55 75.25Q127.19 75.10 128.85 74.96L128.99 75.09L129.04 75.14Q132.46 74.75 135.06 72.41L135.05 72.40L135.18 72.53Q137.79 70.20 138.08 66.67L137.98 66.57L138.08 66.67Q138.20 66.00 138.20 65.35L138.14 65.29L138.16 65.31Q138.26 62.53 135.67 60.80L135.55 60.69L135.63 60.77Q133.21 59.14 130.19 59.36L130.31 59.48L130.21 59.38Q127.73 59.06 125.42 59.85L125.45 59.88L125.47 59.90Q122.84 61.02 122.26 63.18L122.23 63.15L122.17 63.09Q121.74 64.46 121.89 65.91L121.97 65.98L122.02 66.04Q119.93 65.46 116.04 64.09L116.12 64.17L116.04 64.10Q115.61 60.92 115.68 59.33L115.66 59.32L115.78 59.43Q115.88 56.44 117.90 55.14L117.89 55.14L118.03 55.27Q120.65 54.07 123.68 54.07L123.70 54.09L123.67 54.07Q129.72 54.07 135.70 54.57L135.57 54.43L135.55 54.42Q145.26 55.34 144.69 62.47L144.57 62.35L144.60 62.38Q144.42 65.16 143.48 68.11L143.64 68.27L143.63 68.26Q141.75 73.95 137.28 75.68L137.33 75.73L137.28 75.67Q142.31 76.74 143.46 83.09L143.40 83.02L143.44 83.06Q143.84 85.19 143.99 89.01L143.97 89.00L144.13 89.15Q144.26 97.43 135.54 98.29L135.71 98.46L135.61 98.37Q134.34 98.61 124.33 99.11ZM134.18 103.35L134.18 103.34L134.22 103.38Q135.37 103.46 140.78 103.60L140.77 103.59L140.66 103.49Q143.98 103.64 147.08 102.41L147.17 102.50L147.18 102.51Q149.41 100.71 149.05 97.39L149.05 97.39L148.97 97.31Q148.84 94.87 148.26 91.55L148.26 91.55L148.14 91.43Q146.91 83.07 143.23 79.97L143.16 79.90L142.74 79.12L142.73 79.03L142.75 79.05Q146.11 76.36 147.55 68.07L147.37 67.89L147.41 67.94Q147.45 67.03 147.66 65.23L147.79 65.36L147.84 65.41Q147.96 63.95 147.82 62.65L147.70 62.53L147.68 62.51Q147.38 59.33 144.93 58.03L144.99 58.09L144.90 58.15L144.83 58.08Q144.26 56.21 142.10 55.20L142.16 55.27L142.19 55.29Q139.22 53.91 129.49 53.33L129.55 53.39L129.61 53.45Q126.29 53.15 123.26 53.15L123.30 53.19L123.33 53.23Q120.22 53.14 117.33 54.36L117.36 54.39L117.51 54.53Q115.13 55.90 115.13 59.22L115.06 59.15L115.03 59.12Q115.05 58.34 115.55 64.68L115.63 64.76L115.68 64.81Q116.28 64.98 119.38 66.13L119.27 66.02L119.31 66.07Q119.25 67.01 119.18 67.95L119.31 68.08L119.17 67.95Q119.12 68.83 119.19 69.83L119.26 69.91L119.30 69.95Q122.76 70.74 126.58 70.96L126.45 70.83L126.41 70.79Q126.29 66.99 128.38 65.41L128.46 65.49L128.40 65.42Q130.09 64.30 133.91 63.87L133.92 63.89L133.91 63.88Q136.02 63.83 137.10 64.19L136.99 64.07L137.15 64.23Q137.08 64.31 137.16 64.53L137.31 64.68L137.20 64.93L137.53 66.12L137.37 65.96Q137.47 66.42 137.39 66.71L137.29 66.60L137.38 66.70Q137.16 69.86 134.28 72.10L134.28 72.10L134.28 72.10Q132.69 73.97 128.87 74.33L128.72 74.18L128.73 74.19Q127.50 74.61 125.84 74.61L125.79 74.56L125.68 74.45Q125.89 75.24 126.18 76.53L126.07 76.43L126.06 76.42Q129.43 76.47 132.17 77.84L132.13 77.81L131.88 77.77L128.95 78.15L129.10 78.31Q129.07 78.86 129.29 80.01L129.26 79.98L129.23 79.95Q133.38 79.92 136.62 82.44L136.49 82.30L136.59 82.41Q137.06 83.16 137.63 86.26L137.53 86.16L137.49 86.12Q138.03 91.85 132.48 92.64L132.36 92.52L132.34 92.50Q128.47 93.09 127.39 93.02L127.45 93.08L127.26 92.90Q126.39 92.68 125.39 92.53L125.46 92.61L125.40 91.69L125.70 90.90L125.85 90.26L125.83 89.59L125.80 89.56Q123.96 89.67 122.45 90.03L122.62 90.20L122.44 90.02Q122.50 89.71 122.50 89.35L122.47 89.33L122.48 89.34Q122.60 89.03 122.60 88.60L122.58 88.57L122.49 88.48Q122.66 87.79 122.94 86.42L122.88 86.36L122.94 86.42Q119.29 86.73 115.76 87.38L115.83 87.44L115.83 87.44Q115.78 88.33 115.56 90.46L115.69 90.58L115.69 90.58Q115.43 92.67 115.43 93.82L115.41 93.80L115.42 93.81Q115.54 97.67 118.13 99.12L118.04 99.03L118.08 99.06Q120.98 103.47 129.91 103.11L129.97 103.17L129.80 103.00Q131.27 103.03 134.16 103.32Z"/><path d="M19 32 C164 8,175 66,332 137" stroke="#a35de8" fill="none"/><path d="M18 6 C165 96,152 39,327 37" stroke="#96e97b" fill="none"/><path d="M6 41 C159 110,180 44,328 87" stroke="#83db66" fill="none"/><path d="M11 9 C183 103,187 115,333 81" stroke="#aade77" fill="none"/><path d="M12 122 C151 55,178 80,322 76" stroke="#3fe33f" fill="none"/><path d="M7 92 C192 71,164 86,338 54" stroke="#77db56" fill="none"/><path d="M10 33 C165 54,164 109,322 136" stroke="#5b5be0" fill="none"/><path d="M18 69 C161 114,162 124,332 116" stroke="#8fbae4" fill="none"/><path d="M13 44 C171 64,183 18,333 12" stroke="#673ee4" fill="none"/></svg>