<svg xmlns="http://www.w3.org/2000/svg" width="342" height="140" viewBox="0,0,342,140"><path d="M6 94 C157 8,159 83,328 37" stroke="#4cd6b3" fill="none"/><path d="M1 20 C157 117,152 75,338 131" stroke="#6969e1" fill="none"/><path d="M5 131 C158 123,167 56,337 126" stroke="#9e5ede" fill="none"/><path fill="#50dc96" d="M64.39 67.52L64.32 67.45L64.27 67.41Q59.13 67.40 56.19 65.69L56.26 65.75L56.26 65.75Q60.23 63.49 68.06 56.70L68.04 56.67L68.10 56.74Q69.22 56.38 71.30 55.41L71.35 55.45L71.39 55.49Q69.21 65.00 69.03 75.22L68.92 75.12L69.01 75.20Q68.77 85.36 70.49 95.15L70.53 95.20L70.59 95.26Q67.78 93.98 64.36 93.80L64.34 93.78L64.52 93.96Q64.18 87.13 64.18 80.59L64.25 80.65L64.17 80.58Q64.25 74.05 64.31 67.45ZM63.60 70.96L63.71 94.50L63.59 94.38Q65.56 94.39 67.09 94.69L67.17 94.77L67.08 94.68Q67.26 95.84 67.57 98.05L67.58 98.06L67.69 98.17Q72.11 98.86 76.03 102.47L76.18 102.62L76.07 102.52Q72.18 91.16 72.12 79.16L72.16 79.21L72.16 79.21Q71.93 67.11 74.87 55.48L74.98 55.60L74.88 55.50Q74.07 56.22 71.51 58.00L71.43 57.92L71.53 58.02Q71.69 56.65 72.18 54.20L72.34 54.37L72.32 54.34Q70.01 55.40 67.69 56.01L67.84 56.16L67.71 56.03Q61.72 61.85 54.80 65.52L54.78 65.49L54.84 65.56Q57.08 67.31 60.87 67.86L60.90 67.89L60.86 67.85Q59.75 68.63 57.67 70.34L57.74 70.41L57.74 70.42Q60.20 71.10 63.75 71.10L63.67 71.03Z"/><path d="M21 108 C188 59,191 122,340 100" stroke="#73eccd" fill="none"/><path d="M16 120 C188 90,180 106,325 51" stroke="#89de6c" fill="none"/><path d="M1 59 C184 42,188 79,334 54" stroke="#6262d9" fill="none"/><path d="M6 65 C152 77,183 114,326 11" stroke="#d750d7" fill="none"/><path d="M8 13 C171 108,153 14,339 73" stroke="#e4ba90" fill="none"/><path d="M14 3 C180 74,167 138,323 79" stroke="#e83f69" fill="none"/><path d="M14 51 C161 58,151 40,323 41" stroke="#e57ae5" fill="none"/><path d="M13 35 C170 39,182 123,337 128" stroke="#da5296" fill="none"/><path d="M2 59 C161 39,172 116,321 49" stroke="#89ebeb" fill="none"/><path d="M19 134 C181 132,174 88,337 61" stroke="#7857da" fill="none"/><path d="M17 109 C167 50,181 96,326 55" stroke="#dabe6c" fill="none"/><path d="M1 112 C169 49,165 73,329 126" stroke="#b587e2" fill="none"/><path d="M2 52 C152 2,151 17,333 28" stroke="#72d750" fill="none"/><path d="M11 65 C180 94,151 84,322 135" stroke="#889ee1" fill="none"/><path d="M2 114 C164 104,178 86,323 76" stroke="#e76ec9" fill="none"/><path d="M3 106 C190 16,167 89,336 70" stroke="#68a3dd" fill="none"/><path fill="#4bd2d2" d="M205.56 73.58L205.43 73.45L205.46 73.47Q206.78 73.51 209.04 73.27L209.05 73.28L208.97 73.19Q209.01 74.34 209.01 75.38L209.03 75.40L208.99 77.38L209.05 77.43Q207.70 77.43 206.35 77.55L206.34 77.55L206.22 77.42Q204.91 77.52 203.57 77.46L203.65 77.55L203.67 77.56Q198.90 87.29 193.39 94.69L193.50 94.80L193.50 94.80Q189.52 95.90 187.44 96.88L187.30 96.74L187.39 96.83Q194.06 87.72 198.96 77.62L198.80 77.46L194.60 77.49L194.63 77.51Q194.66 75.41 194.48 73.27L194.36 73.15L194.53 73.32Q197.57 73.54 200.87 73.54L200.74 73.41L203.80 67.48L203.96 67.64Q205.50 64.53 207.46 61.96L207.41 61.91L207.47 61.96Q204.83 62.08 202.26 62.08L202.38 62.20L202.38 62.20Q192.48 62.09 186.42 58.54L186.46 58.58L185.54 55.94L185.55 55.96Q184.82 54.43 184.21 53.02L184.38 53.20L184.31 53.13Q191.27 57.33 200.45 57.70L200.47 57.72L200.37 57.62Q208.74 58.10 217.00 54.92L216.89 54.81L217.02 54.94Q216.68 55.58 215.88 56.98L215.79 56.89L215.77 56.87Q210.09 64.65 205.51 73.53ZM218.51 59.24L218.34 59.08L220.06 55.96L220.06 55.96Q218.48 56.71 215.79 57.87L215.75 57.83L216.16 57.44L216.05 57.33Q216.30 57.15 216.48 56.97L216.58 57.06L216.55 57.04Q217.06 55.84 218.23 53.70L218.35 53.82L218.26 53.73Q209.76 57.46 200.52 57.09L200.47 57.05L200.53 57.11Q190.70 56.52 183.06 51.75L183.16 51.85L183.18 51.87Q184.75 54.79 186.10 59.07L186.19 59.16L186.07 59.05Q187.91 60.15 189.20 60.64L189.11 60.55L189.15 60.60Q189.37 61.12 190.10 64.12L190.17 64.19L190.12 64.14Q195.24 66.20 204.12 65.96L204.15 65.99L204.19 66.03Q203.56 66.80 200.38 72.86L200.37 72.86L200.54 73.02Q197.19 72.98 194.01 72.67L193.93 72.60L194.06 72.72Q194.08 73.97 194.08 75.37L194.01 75.30L194.00 78.05L196.83 78.19L196.70 80.32L196.77 80.39Q190.56 92.35 186.09 98.10L186.03 98.04L186.07 98.08Q188.52 96.74 191.15 95.94L191.23 96.02L191.16 95.95Q190.18 97.54 187.98 100.29L187.99 100.31L187.96 100.28Q193.05 98.51 196.96 98.14L196.97 98.15L196.85 98.03Q201.58 92.00 206.60 81.11L206.54 81.05L212.15 81.45L212.08 81.38Q212.10 80.05 212.10 78.58L212.11 78.60L211.96 75.57L212.09 75.71Q211.60 75.64 210.72 75.71L210.62 75.61L210.77 75.76Q209.82 75.76 209.39 75.76L209.38 75.75L209.46 75.83Q209.35 75.54 209.41 75.29L209.46 75.34L209.46 74.91L209.41 74.86Q213.42 66.57 218.38 59.11Z"/><path fill="#e55176" d="M267.19 76.60L267.16 76.57L267.26 76.67Q264.17 76.33 262.18 78.63L262.25 78.70L262.34 78.79Q260.24 80.97 259.94 84.03L259.94 84.03L260.06 84.15Q259.69 87.45 261.43 89.01L261.38 88.96L261.26 88.84Q263.15 90.55 266.51 90.36L266.42 90.27L266.47 90.32Q269.84 90.08 271.62 88.98L271.63 89.00L271.52 88.88Q273.47 87.22 273.47 84.71L273.46 84.71L273.48 84.72Q273.35 83.98 273.22 83.37L273.37 83.51L273.30 83.45Q273.40 80.73 271.63 78.56L271.64 78.57L271.66 78.59Q269.83 76.36 267.13 76.55ZM266.47 94.41L266.53 94.48L266.60 94.55Q259.40 94.38 257.13 93.16L257.22 93.24L257.27 93.29Q255.47 91.93 255.17 89.17L255.34 89.35L255.33 89.34Q255.27 88.23 255.33 87.07L255.28 87.02L255.21 86.95Q255.45 85.42 255.45 84.68L255.43 84.67L255.45 84.68Q256.11 80.02 256.35 78.92L256.45 79.01L256.34 78.90Q257.17 75.88 258.52 73.62L258.49 73.59L258.42 73.52Q262.89 66.67 272.44 56.46L272.41 56.43L272.42 56.44Q276.71 55.96 280.26 54.68L280.15 54.56L280.14 54.55Q269.22 66.64 264.08 73.43L264.02 73.37L263.94 73.29Q265.63 72.59 267.71 72.59L267.66 72.54L267.61 72.50Q273.06 72.62 275.51 75.74L275.45 75.69L275.53 75.77Q277.62 78.34 278.17 84.03L278.20 84.06L278.19 84.05Q278.25 85.15 278.25 86.13L278.25 86.13L278.37 86.25Q278.26 91.15 274.71 92.87L274.64 92.80L274.68 92.84Q272.85 93.94 266.61 94.56ZM270.26 98.40L270.10 98.24L270.22 98.35Q272.34 98.34 275.53 98.46L275.40 98.33L275.45 98.38Q278.03 98.45 280.54 97.29L280.69 97.44L280.67 97.42Q282.34 96.04 282.34 93.16L282.37 93.19L282.36 93.18Q282.31 92.34 282.04 90.75L282.13 90.84L282.00 90.71Q281.75 89.14 281.75 88.40L281.89 88.55L281.91 88.57Q280.37 80.85 277.80 77.79L277.86 77.85L277.87 77.86Q277.81 77.74 277.57 77.37L277.39 77.19L277.08 77.01L276.85 76.84L276.80 76.79Q276.22 75.96 275.24 74.43L275.33 74.52L275.42 74.61Q273.84 72.97 270.66 72.24L270.64 72.22L270.63 72.21Q272.64 69.69 277.42 63.76L277.37 63.72L284.30 55.35L284.31 55.35Q281.72 56.68 277.86 57.91L277.77 57.81L277.92 57.96Q279.39 56.38 282.27 53.19L282.17 53.10L282.15 53.08Q278.43 54.92 272.19 55.84L272.03 55.68L272.05 55.71Q262.82 65.13 258.05 73.09L258.13 73.17L258.08 73.12Q255.62 77.15 254.71 87.18L254.69 87.16L254.72 87.20Q254.62 88.14 254.74 89.67L254.78 89.71L254.70 89.62Q254.80 92.42 256.58 93.89L256.73 94.04L256.67 93.98Q257.25 94.19 257.19 94.26L257.18 94.25L257.15 94.22Q257.86 95.78 259.15 96.46L259.07 96.38L259.18 96.49Q261.35 97.44 264.47 97.74L264.65 97.92L264.63 97.91Q264.49 97.76 270.12 98.25ZM269.85 80.30L269.73 80.18L269.80 80.25Q270.66 80.01 272.19 80.81L272.36 80.98L272.31 80.92Q272.81 82.40 272.81 83.44L272.78 83.41L272.82 83.46Q273.08 86.41 271.55 88.00L271.61 88.05L271.67 88.12Q269.79 89.11 266.43 89.60L266.57 89.75L266.46 89.63Q264.21 89.71 263.36 89.29L263.24 89.17L263.30 89.23Q262.95 88.45 262.95 87.96L263.11 88.13L263.09 88.10Q262.76 82.88 267.47 80.80L267.32 80.65L267.33 80.66Q268.56 80.12 269.79 80.24Z"/><path d="M14 85 C155 137,162 105,336 48" stroke="#eac24c" fill="none"/><path fill="#b27ee6" d="M126.04 94.67L125.97 94.60L126.03 94.66Q123.84 94.86 121.33 94.18L121.31 94.16L121.25 94.10Q119.33 92.67 119.09 90.04L119.15 90.11L119.05 90.01Q118.91 89.62 119.21 85.39L119.37 85.55L119.28 85.46Q121.05 85.27 124.29 84.66L124.28 84.65L123.91 85.81L123.82 85.72Q123.46 88.60 125.72 89.52L125.78 89.58L125.81 89.61Q126.95 90.01 130.31 90.01L130.45 90.15L130.30 90.00Q132.85 89.73 133.15 89.61L133.33 89.78L133.15 89.60Q134.78 89.52 135.94 88.73L135.78 88.56L135.78 88.57Q138.13 87.12 137.82 83.75L137.82 83.75L137.88 83.81Q137.45 79.77 134.67 77.27L134.74 77.34L134.67 77.26Q131.88 74.75 127.90 74.75L128.07 74.92L128.02 74.50L128.06 74.54Q128.52 74.33 129.93 74.21L129.93 74.21L129.93 74.21Q133.00 74.04 135.20 72.05L135.22 72.06L135.19 72.03Q137.54 70.19 137.78 67.20L137.70 67.11L137.69 67.10Q137.81 66.55 137.81 66.00L137.82 66.01L137.93 66.12Q137.80 63.55 135.60 62.08L135.69 62.17L135.62 62.10Q133.61 60.76 131.04 60.94L131.15 61.05L131.03 60.94Q129.12 60.86 127.16 61.53L127.02 61.38L127.12 61.49Q124.74 62.28 124.25 64.12L124.31 64.18L124.33 64.20Q123.93 65.34 124.06 66.56L124.07 66.58L124.04 66.55Q122.33 66.12 119.03 64.96L119.20 65.13L119.13 65.06Q118.75 62.36 118.81 61.01L118.78 60.98L118.74 60.94Q118.96 58.52 120.67 57.42L120.67 57.42L120.62 57.37Q122.93 56.44 125.50 56.44L125.58 56.53L125.45 56.39Q130.70 56.50 135.78 56.93L135.63 56.78L135.76 56.91Q143.78 57.46 143.29 63.52L143.38 63.61L143.27 63.51Q143.22 65.96 142.43 68.47L142.49 68.54L142.35 68.40Q140.96 73.43 137.17 74.90L137.07 74.81L137.19 74.92Q141.39 75.76 142.37 81.14L142.45 81.22L142.29 81.06Q142.72 82.96 142.84 86.20L142.81 86.17L142.84 86.20Q143.11 93.39 135.71 94.12L135.78 94.20L135.60 94.01Q134.51 94.20 126.00 94.63ZM134.43 98.28L134.47 98.33L134.47 98.33Q135.41 98.34 139.99 98.47L140.08 98.55L140.01 98.49Q142.86 98.64 145.49 97.60L145.40 97.51L145.44 97.55Q147.36 96.04 147.05 93.22L146.94 93.12L147.05 93.23Q146.84 91.06 146.35 88.25L146.26 88.15L146.24 88.14Q145.22 81.05 142.10 78.42L141.97 78.29L141.81 77.83L141.67 77.63L141.60 77.56Q144.48 75.30 145.71 68.27L145.66 68.22L145.73 68.29Q145.81 67.57 145.99 66.04L145.96 66.01L145.94 65.99Q146.04 64.74 145.91 63.64L145.96 63.68L145.88 63.60Q145.68 60.95 143.60 59.85L143.68 59.94L143.58 59.96L143.58 59.96Q142.96 58.23 141.12 57.38L141.21 57.46L141.21 57.47Q138.73 56.34 130.47 55.85L130.42 55.79L130.55 55.92Q127.80 55.74 125.23 55.74L125.24 55.75L125.29 55.80Q122.69 55.78 120.25 56.82L120.17 56.74L120.28 56.85Q118.31 58.06 118.31 60.87L118.18 60.75L118.31 60.87Q118.24 60.13 118.66 65.51L118.65 65.50L118.70 65.55Q119.15 65.63 121.78 66.61L121.79 66.62L121.81 66.64Q121.86 67.54 121.79 68.34L121.73 68.28L121.81 68.35Q121.79 69.12 121.85 69.98L121.83 69.96L121.86 69.99Q124.63 70.50 127.87 70.68L127.88 70.69L127.91 70.72Q127.76 67.45 129.53 66.10L129.52 66.09L129.49 66.06Q130.92 65.11 134.17 64.74L134.18 64.75L134.19 64.77Q136.04 64.78 136.96 65.09L137.00 65.13L136.82 64.95Q136.95 65.20 137.01 65.38L136.97 65.34L137.03 65.71L137.25 66.66L137.30 66.71Q137.20 66.91 137.13 67.16L137.11 67.13L137.10 67.13Q137.08 69.98 134.63 71.87L134.62 71.87L134.60 71.84Q133.12 73.30 129.88 73.61L129.93 73.66L129.82 73.55Q128.64 73.77 127.23 73.77L127.31 73.86L127.36 73.90Q127.44 74.47 127.69 75.57L127.60 75.48L127.58 75.47Q130.38 75.45 132.70 76.62L132.66 76.57L132.65 76.75L130.13 77.04L130.00 76.91Q130.16 77.56 130.35 78.54L130.34 78.54L130.37 78.56Q133.74 78.39 136.49 80.53L136.49 80.52L136.39 80.43Q136.79 81.06 137.27 83.69L137.39 83.81L137.33 83.75Q137.64 88.46 132.93 89.13L132.95 89.16L132.92 89.13Q129.62 89.62 128.70 89.56L128.65 89.51L128.73 89.59Q127.93 89.34 127.07 89.22L126.99 89.14L127.05 88.46L127.19 87.69L127.36 87.18L127.33 86.59L127.37 86.64Q125.75 86.68 124.47 86.98L124.54 87.05L124.61 87.12Q124.44 86.64 124.44 86.34L124.47 86.37L124.59 86.49Q124.60 86.14 124.60 85.77L124.48 85.64L124.64 85.81Q124.58 85.01 124.83 83.85L124.82 83.84L124.88 83.91Q121.93 84.31 118.93 84.86L118.89 84.83L118.89 84.83Q118.80 85.54 118.62 87.34L118.66 87.38L118.76 87.48Q118.52 89.23 118.52 90.21L118.57 90.26L118.56 90.25Q118.70 93.57 120.91 94.80L120.77 94.66L120.73 94.62Q123.16 98.33 130.74 98.03L130.74 98.02L130.77 98.05Q131.98 98.04 134.43 98.29Z"/><path d="M16 56 C174 125,191 129,330 60" stroke="#4bbfe6" fill="none"/><path d="M11 66 C178 14,181 18,331 101" stroke="#d5b557" fill="none"/><path d="M15 48 C179 129,170 32,332 21" stroke="#bee155" fill="none"/><path d="M10 136 C172 79,184 83,325 71" stroke="#b9de48" fill="none"/><path d="M1 137 C181 104,156 26,324 97" stroke="#ecb57d" fill="none"/><path d="M3 11 C171 62,159 82,330 19" stroke="#d656b6" fill="none"/><path d="M19 38 C179 103,158 85,340 108" stroke="#8262e4" fill="none"/><path d="M21 44 C192 40,183 87,323 127" stroke="#60dc60" fill="none"/><path d="M16 100 C162 65,185 107,339 79" stroke="#57dfbd" fill="none"/><path d="M7 119 C181 111,151 80,331 132" stroke="#e471e4" fill="none"/><path d="M1 29 C173 37,150 47,330 134" stroke="#bfeb93" fill="none"/><path d="M19 78 C156 102,178 99,321 108" stroke="#7f5ce9" fill="none"/><path d="M17 51 C171 40,158 73,334 101" stroke="#e83f69" fill="none"/><path d="M17 41 C166 78,156 100,322 27" stroke="#9a83e1" fill="none"/><path d="M5 114 C173 124,153 40,339 32" stroke="#5fd75f" fill="none"/><path d="M6 121 C190 75,154 129,330 26" stroke="#50eb50" fill="none"/><path d="M12 47 C153 92,160 85,331 72" stroke="#da47b6" fill="none"/><path d="M14 110 C191 30,152 108,340 61" stroke="#bfe452" fill="none"/><path d="M2 57 C172 71,182 66,321 53" stroke="#df8098" fill="none"/><path d="M16 15 C181 76,181 67,336 37" stroke="#dec167" fill="none"/></svg>