<svg xmlns="http://www.w3.org/2000/svg" width="342" height="140" viewBox="0,0,342,140"><path fill="#e7d08c" d="M52.53 67.15L52.45 67.07L52.43 67.05Q46.70 67.14 43.37 65.20L43.37 65.20L43.24 65.07Q47.81 62.56 56.69 54.87L56.75 54.94L56.81 54.99Q58.19 54.70 60.54 53.59L60.35 53.40L60.53 53.58Q58.10 64.40 57.89 75.98L57.74 75.82L57.79 75.87Q57.53 87.40 59.47 98.50L59.53 98.55L59.51 98.54Q56.56 97.32 52.68 97.11L52.65 97.08L52.52 96.95Q52.45 89.54 52.45 82.12L52.47 82.13L52.30 81.97Q52.40 74.57 52.47 67.08ZM51.69 71.09L51.87 97.83L51.78 97.73Q53.91 97.65 55.64 97.99L55.76 98.11L55.70 98.05Q55.83 99.29 56.17 101.79L56.18 101.79L56.14 101.75Q61.35 102.73 65.79 106.82L65.83 106.87L65.90 106.93Q61.33 93.90 61.26 80.31L61.34 80.40L61.27 80.32Q61.23 66.84 64.56 53.66L64.52 53.62L64.44 53.54Q63.42 54.25 60.51 56.26L60.56 56.31L60.67 56.43Q60.98 55.00 61.53 52.23L61.51 52.20L61.42 52.11Q59.15 53.66 56.52 54.35L56.48 54.31L56.36 54.20Q49.49 60.70 41.65 64.86L41.81 65.02L41.76 64.98Q44.28 66.94 48.58 67.56L48.50 67.48L48.58 67.56Q47.34 68.47 44.98 70.41L45.01 70.45L45.11 70.54Q47.75 71.18 51.78 71.18L51.80 71.20Z"/><path d="M10 66 C168 94,184 103,340 54" stroke="#58bcde" fill="none"/><path d="M20 100 C179 115,177 118,329 52" stroke="#73e790" fill="none"/><path d="M17 45 C186 93,154 30,330 87" stroke="#e6e698" fill="none"/><path d="M5 55 C185 110,182 71,340 129" stroke="#c75bea" fill="none"/><path d="M10 17 C164 90,183 46,326 63" stroke="#704dda" fill="none"/><path d="M13 36 C155 5,151 2,331 128" stroke="#8383e1" fill="none"/><path d="M18 55 C170 42,168 104,334 88" stroke="#d55252" fill="none"/><path d="M13 85 C186 67,181 89,337 13" stroke="#977ee0" fill="none"/><path d="M11 63 C184 41,171 82,334 106" stroke="#db934c" fill="none"/><path d="M6 83 C186 104,152 16,330 103" stroke="#e4cf90" fill="none"/><path d="M8 99 C184 68,154 133,325 67" stroke="#e6987e" fill="none"/><path d="M13 102 C158 114,185 29,340 36" stroke="#e1bc4b" fill="none"/><path d="M15 128 C173 82,179 93,337 131" stroke="#e37cc9" fill="none"/><path fill="#88f0bc" d="M270.88 84.49L270.88 84.49L270.96 84.57Q276.55 83.85 282.38 84.06L282.35 84.03L282.33 84.00Q282.16 79.27 282.16 74.90L282.17 74.90L282.26 74.99Q282.33 70.55 282.67 65.91L282.59 65.82L282.54 65.77Q280.44 69.02 270.94 84.55ZM288.88 97.84L288.98 97.94L288.84 97.79Q285.84 97.29 282.58 97.16L282.64 97.22L282.67 97.24Q282.25 92.87 282.04 88.36L282.06 88.38L282.14 88.46Q272.38 88.06 263.78 90.63L263.75 90.60L263.72 90.57Q264.01 89.75 264.36 87.95L264.37 87.96L264.39 87.98Q267.61 82.19 274.13 70.75L274.09 70.70L274.06 70.67Q279.38 61.86 285.63 54.78L285.60 54.75L285.64 54.80Q287.21 54.42 290.26 53.94L290.28 53.96L290.18 53.86Q286.74 65.60 286.74 78.43L286.72 78.42L286.70 78.39Q286.86 81.26 287.00 83.96L286.86 83.83L289.33 84.14L289.34 84.15Q290.39 84.16 291.50 84.37L291.42 84.30L291.39 84.27Q291.60 86.06 292.08 89.60L292.22 89.74L292.08 89.60Q289.92 89.17 287.22 88.83L287.33 88.94L287.34 88.95Q287.59 92.46 288.84 97.80ZM291.91 83.61L292.04 83.73L292.06 83.75Q291.57 83.48 291.23 83.48L291.23 83.48L290.61 83.55L290.50 83.45Q290.31 80.75 290.31 78.19L290.28 78.16L290.41 78.29Q290.43 66.66 294.17 55.71L294.08 55.62L294.08 55.61Q292.83 56.23 290.19 56.92L290.17 56.90L290.12 56.85Q290.56 55.49 291.40 52.93L291.27 52.80L291.35 52.89Q288.94 53.52 285.19 53.93L285.33 54.07L285.22 53.96Q278.01 61.79 268.51 78.85L268.61 78.96L272.32 72.20L272.36 72.24Q271.69 74.20 271.21 75.24L271.07 75.11L263.14 91.72L263.14 91.72Q264.28 91.41 266.36 90.71L266.39 90.74L266.01 91.06L266.06 91.10Q265.75 92.25 265.19 94.54L265.24 94.58L265.36 94.70Q272.73 92.16 281.53 92.50L281.64 92.61L281.55 92.52Q281.62 94.25 281.97 97.86L281.93 97.82L281.95 97.85Q283.87 97.82 285.81 98.03L285.95 98.17L285.81 98.03Q286.15 99.34 286.64 101.84L286.62 101.82L286.67 101.87Q290.17 102.32 295.65 103.98L295.60 103.94L295.52 103.86Q293.84 100.10 292.18 94.13L292.03 93.98L294.65 94.80L294.73 94.88Q295.97 95.30 297.22 95.92L297.23 95.93L297.17 95.87Q295.70 91.27 295.42 88.22L295.58 88.38L295.59 88.40Q294.45 88.02 292.37 87.60L292.44 87.67L292.42 87.65Q291.88 85.17 291.88 83.57ZM277.41 83.39L277.49 83.46L277.44 83.42Q278.85 81.09 281.70 76.44L281.58 76.33L281.62 76.36Q281.60 78.07 281.53 79.81L281.61 79.89L281.61 79.89Q281.64 81.73 281.71 83.46L281.65 83.40L281.57 83.32Q280.55 83.27 279.51 83.27L279.54 83.30L279.60 83.36Q278.43 83.30 277.32 83.30Z"/><path d="M5 36 C186 66,170 24,325 36" stroke="#7d5ed8" fill="none"/><path fill="#71eecf" d="M164.86 60.28L164.70 60.13L161.92 60.39L162.05 60.53Q157.84 60.61 157.42 64.29L157.38 64.25L157.45 64.32Q157.30 65.62 157.37 67.43L157.42 67.48L157.39 67.44Q157.47 70.99 159.76 73.42L159.67 73.33L159.81 73.47Q161.99 75.79 165.46 75.51L165.42 75.48L165.40 75.46Q169.14 75.17 170.53 73.51L170.59 73.57L170.54 73.52Q172.65 72.03 173.14 67.93L173.08 67.88L173.14 67.94Q173.56 63.78 171.27 62.26L171.20 62.18L171.34 62.33Q169.62 60.74 164.76 60.19ZM175.82 77.07L175.92 77.17L173.42 81.18L173.49 81.26Q168.45 89.87 161.58 97.29L161.63 97.34L161.64 97.35Q158.69 97.66 153.76 99.11L153.87 99.21L153.78 99.13Q163.48 87.68 169.23 78.94L169.24 78.95L169.27 78.98Q167.27 80.03 164.29 80.16L164.45 80.33L164.37 80.25Q158.91 80.55 156.14 76.94L156.05 76.85L156.12 76.92Q153.99 74.10 151.98 65.78L151.93 65.73L151.93 65.73Q151.89 64.86 151.61 63.16L151.58 63.13L151.68 63.23Q151.27 61.39 151.27 60.56L151.27 60.56L151.31 60.61Q151.36 57.39 153.30 56.28L153.30 56.28L153.31 56.29Q155.46 54.83 158.86 54.83L158.84 54.82L158.81 54.79Q164.81 54.96 164.81 54.96L164.67 54.82L164.80 54.95Q168.62 54.89 170.91 55.24L170.97 55.30L170.97 55.30Q174.83 55.76 176.49 56.66L176.61 56.78L176.54 56.71Q178.99 58.05 179.34 61.24L179.45 61.35L179.26 61.17Q179.29 61.61 178.95 66.47L179.03 66.55L178.93 66.44Q178.29 70.38 177.87 71.91L177.96 71.99L177.89 71.93Q177.31 74.60 175.92 77.17ZM179.31 81.46L179.20 81.35L179.38 81.53Q181.13 77.46 182.10 69.62L182.12 69.64L182.12 69.64Q182.46 65.47 182.39 63.88L182.57 64.06L182.45 63.93Q182.38 60.54 180.23 58.87L180.24 58.88L179.75 58.74L179.62 58.61Q179.27 57.36 177.60 56.18L177.53 56.10L177.60 56.17Q173.41 54.34 164.67 54.06L164.67 54.06L164.71 54.11Q162.94 54.06 158.50 54.06L158.49 54.06L158.52 54.08Q155.22 53.97 152.52 55.22L152.53 55.23L152.69 55.40Q150.57 56.81 150.70 60.13L150.67 60.10L150.57 60.00Q151.04 61.79 151.38 65.46L151.35 65.43L151.33 65.41Q152.46 70.21 152.94 71.73L152.97 71.76L152.99 71.78Q154.03 75.18 155.77 77.54L155.81 77.58L155.78 77.55Q156.14 78.05 156.83 78.75L156.91 78.82L156.95 78.86Q157.47 79.72 158.64 81.39L158.60 81.34L158.57 81.32Q161.26 83.80 164.80 84.14L164.75 84.09L164.85 84.19Q161.33 88.99 158.48 92.46L158.52 92.49L151.96 100.50L151.84 100.38Q155.90 98.96 158.88 98.33L159.02 98.48L159.04 98.50Q157.50 99.94 154.66 103.06L154.65 103.05L154.73 103.13Q160.35 101.47 166.04 101.40L166.09 101.45L165.99 101.36Q170.27 96.69 178.18 83.51L178.27 83.61L178.24 83.72L178.17 83.65Q178.58 82.26 179.21 81.35ZM168.28 64.53L168.42 64.68L168.27 64.53Q169.49 64.42 170.32 64.63L170.30 64.61L170.22 64.53Q171.48 64.82 172.17 65.03L172.24 65.10L172.07 64.93Q172.42 65.77 172.56 66.53L172.49 66.46L172.51 66.48Q172.65 67.25 172.45 67.94L172.46 67.96L172.40 67.89Q172.30 70.98 170.15 72.99L170.18 73.02L170.11 72.95Q168.47 74.92 165.49 74.85L165.44 74.80L165.48 74.85Q164.79 74.92 162.02 74.36L161.90 74.24L161.95 74.29Q161.52 72.69 161.52 71.37L161.52 71.37L161.51 71.36Q161.36 70.86 161.36 70.44L161.31 70.40L161.41 70.49Q161.31 66.38 165.47 64.92L165.61 65.06L165.53 64.98Q166.86 64.65 168.39 64.65Z"/><path d="M2 48 C173 128,166 103,337 52" stroke="#40dd8e" fill="none"/><path d="M20 41 C155 39,190 122,327 17" stroke="#75d854" fill="none"/><path d="M15 52 C188 93,155 76,332 105" stroke="#e69479" fill="none"/><path d="M8 137 C177 13,167 5,330 81" stroke="#e6456e" fill="none"/><path d="M15 69 C167 66,154 11,325 86" stroke="#d65676" fill="none"/><path d="M14 92 C180 20,179 61,333 37" stroke="#48bde4" fill="none"/><path d="M8 11 C170 81,152 38,336 24" stroke="#e8e84e" fill="none"/><path d="M19 15 C166 130,179 4,326 25" stroke="#9b52e4" fill="none"/><path d="M15 71 C171 86,183 91,339 87" stroke="#7c7ce3" fill="none"/><path d="M17 36 C191 46,187 123,329 58" stroke="#6f8be1" fill="none"/><path d="M5 67 C173 18,160 72,329 62" stroke="#66c9ea" fill="none"/><path d="M16 78 C169 121,164 88,326 8" stroke="#69e669" fill="none"/><path d="M6 45 C170 57,154 66,331 138" stroke="#84eab7" fill="none"/><path d="M5 36 C166 61,179 92,324 87" stroke="#b283e1" fill="none"/><path d="M17 102 C174 30,180 108,329 89" stroke="#73dd73" fill="none"/><path fill="#69e1e1" d="M228.39 74.01L228.29 73.91L228.25 73.87Q229.86 74.02 232.42 73.74L232.30 73.63L232.35 73.67Q232.18 74.75 232.18 75.93L232.38 76.13L232.22 78.26L232.25 78.29Q230.83 78.40 229.31 78.53L229.27 78.50L229.24 78.47Q227.62 78.44 226.09 78.37L226.13 78.41L226.24 78.52Q221.03 89.74 214.79 98.13L214.80 98.14L214.67 98.02Q210.17 99.27 207.82 100.38L207.86 100.42L207.73 100.29Q215.37 90.05 220.92 78.61L220.91 78.60L216.01 78.48L215.97 78.45Q216.15 76.20 215.95 73.77L215.76 73.58L215.89 73.72Q219.36 74.00 223.11 74.00L223.07 73.96L226.53 67.23L226.55 67.25Q228.42 63.85 230.64 60.94L230.52 60.81L230.55 60.85Q227.67 61.09 224.76 61.09L224.86 61.19L224.77 61.10Q213.78 61.20 206.91 57.18L206.75 57.02L205.65 53.98L205.66 53.99Q205.09 52.51 204.39 50.92L204.34 50.87L204.38 50.90Q212.15 55.55 222.55 55.97L222.74 56.16L222.59 56.01Q231.99 56.47 241.35 52.86L241.36 52.87L241.41 52.91Q240.97 53.59 240.07 55.18L240.07 55.18L240.02 55.13Q233.47 63.84 228.27 73.89ZM243.08 57.77L243.07 57.77L244.82 54.04L244.82 54.04Q243.11 54.96 240.06 56.28L240.01 56.23L240.38 55.70L240.44 55.76Q240.51 55.34 240.72 55.14L240.79 55.21L240.81 55.23Q241.53 54.00 242.84 51.58L242.89 51.62L242.83 51.56Q233.12 55.72 222.65 55.30L222.71 55.37L222.57 55.23Q211.67 54.80 203.01 49.39L203.04 49.43L203.05 49.44Q204.81 52.72 206.34 57.58L206.37 57.61L206.36 57.60Q208.45 58.85 209.90 59.41L209.80 59.30L209.90 59.40Q210.24 60.09 211.07 63.49L210.93 63.35L211.06 63.48Q216.84 65.79 226.89 65.51L226.85 65.47L226.90 65.52Q226.20 66.41 222.59 73.28L222.74 73.42L222.74 73.42Q218.82 73.25 215.22 72.90L215.25 72.93L215.32 73.01Q215.45 74.52 215.45 76.12L215.35 76.01L215.41 79.20L218.51 79.25L218.45 81.75L218.55 81.86Q211.28 95.18 206.22 101.70L206.26 101.74L206.31 101.79Q209.15 100.33 212.13 99.43L212.13 99.43L212.19 99.48Q210.94 101.14 208.44 104.26L208.41 104.24L208.51 104.33Q214.10 102.16 218.54 101.75L218.53 101.73L218.64 101.84Q223.89 94.89 229.57 82.54L229.70 82.67L235.81 82.89L235.85 82.93Q235.75 81.30 235.75 79.64L235.70 79.59L235.83 76.46L235.73 76.36Q235.29 76.40 234.28 76.47L234.30 76.49L234.29 76.48Q233.26 76.52 232.77 76.52L232.85 76.60L232.77 76.52Q232.84 76.38 232.91 76.11L232.83 76.02L232.87 75.58L232.86 75.57Q237.43 66.20 243.05 57.74Z"/><path d="M4 126 C158 22,152 36,337 75" stroke="#b7d953" fill="none"/><path d="M16 81 C189 124,153 34,330 12" stroke="#81e8e8" fill="none"/><path fill="#e155be" d="M101.93 97.85L101.99 97.90L102.02 97.93Q99.45 98.07 96.61 97.31L96.60 97.30L96.56 97.26Q94.31 95.57 94.04 92.58L94.10 92.64L94.22 92.77Q94.10 92.37 94.45 87.59L94.45 87.59L94.42 87.56Q96.29 87.21 99.97 86.52L99.86 86.41L99.64 87.93L99.51 87.80Q99.17 91.13 101.73 92.17L101.59 92.03L101.73 92.16Q103.11 92.72 106.93 92.72L107.01 92.80L107.04 92.83Q109.95 92.55 110.30 92.41L110.21 92.32L110.30 92.42Q111.86 92.04 113.18 91.13L113.20 91.15L113.12 91.08Q115.67 89.33 115.32 85.51L115.36 85.55L115.49 85.68Q115.07 81.17 111.92 78.33L111.83 78.23L111.90 78.30Q108.67 75.39 104.16 75.39L104.25 75.48L104.20 75.01L104.22 75.03Q104.89 74.94 106.49 74.80L106.54 74.86L106.54 74.86Q110.06 74.70 112.55 72.44L112.52 72.41L112.58 72.47Q114.96 70.11 115.24 66.71L115.18 66.65L115.35 66.82Q115.41 66.11 115.41 65.49L115.33 65.41L115.51 65.59Q115.47 62.77 112.97 61.11L112.94 61.08L112.84 60.97Q110.71 59.61 107.79 59.82L107.86 59.88L107.71 59.73Q105.33 59.44 103.12 60.20L103.12 60.20L103.27 60.36Q100.50 61.18 99.94 63.26L100.04 63.36L99.99 63.31Q99.63 64.68 99.76 66.07L99.90 66.20L99.87 66.17Q97.99 65.75 94.24 64.43L94.21 64.39L94.27 64.45Q93.70 61.25 93.77 59.73L93.88 59.84L93.90 59.86Q94.09 57.07 96.03 55.82L95.94 55.73L95.90 55.69Q98.51 54.62 101.42 54.62L101.52 54.72L101.55 54.75Q107.25 54.62 113.00 55.11L113.02 55.13L112.98 55.08Q122.30 55.94 121.74 62.81L121.64 62.70L121.60 62.66Q121.44 65.35 120.54 68.19L120.53 68.18L120.53 68.19Q118.89 73.82 114.59 75.49L114.59 75.49L114.58 75.48Q119.37 76.46 120.48 82.56L120.48 82.56L120.54 82.62Q121.05 84.79 121.19 88.46L121.03 88.31L121.20 88.47Q121.30 96.41 112.91 97.24L112.96 97.29L112.96 97.30Q111.65 97.44 102.01 97.93ZM111.54 102.04L111.48 101.99L111.51 102.02Q112.66 102.12 117.86 102.26L117.89 102.30L117.90 102.30Q121.00 102.35 123.98 101.17L123.92 101.11L123.95 101.14Q126.18 99.48 125.83 96.29L125.91 96.37L125.80 96.27Q125.53 93.78 124.97 90.59L125.03 90.64L124.98 90.60Q123.74 82.49 120.21 79.51L120.12 79.43L119.95 78.91L119.88 78.76L119.84 78.72Q122.99 76.05 124.38 68.08L124.45 68.15L124.37 68.07Q124.38 67.18 124.59 65.44L124.69 65.55L124.69 65.55Q124.82 64.15 124.68 62.90L124.55 62.77L124.63 62.85Q124.33 59.78 121.98 58.53L122.01 58.56L121.95 58.65L121.96 58.66Q121.26 56.71 119.18 55.73L119.24 55.80L119.21 55.77Q116.53 54.62 107.17 54.06L107.10 53.99L107.05 53.94Q104.04 53.84 101.13 53.84L101.16 53.87L101.17 53.88Q98.32 53.94 95.54 55.12L95.43 55.01L95.50 55.08Q93.16 56.34 93.16 59.53L93.31 59.69L93.22 59.59Q93.20 58.81 93.68 64.91L93.75 64.98L93.76 64.99Q94.36 65.17 97.34 66.28L97.25 66.19L97.22 66.16Q97.24 67.15 97.17 68.05L97.21 68.09L97.23 68.11Q97.22 69.00 97.29 69.97L97.31 70.00L97.28 69.96Q100.44 70.56 104.12 70.77L104.26 70.91L104.12 70.77Q104.10 67.22 106.12 65.69L105.96 65.54L106.09 65.67Q107.59 64.47 111.27 64.05L111.33 64.11L111.34 64.13Q113.24 63.95 114.28 64.29L114.43 64.44L114.34 64.35Q114.40 64.55 114.47 64.76L114.45 64.73L114.56 65.19L114.70 66.16L114.71 66.18Q114.77 66.58 114.70 66.86L114.69 66.85L114.61 66.77Q114.58 69.99 111.80 72.14L111.83 72.18L111.75 72.09Q110.13 73.80 106.45 74.15L106.40 74.10L106.43 74.12Q105.09 74.38 103.50 74.38L103.40 74.29L103.48 74.37Q103.51 74.94 103.78 76.19L103.92 76.33L103.91 76.31Q107.06 76.27 109.69 77.59L109.61 77.51L109.43 77.54L106.63 77.93L106.57 77.87Q106.73 78.58 106.94 79.69L106.91 79.66L106.92 79.67Q110.78 79.51 113.90 81.94L113.84 81.87L113.99 82.02Q114.22 82.54 114.77 85.52L114.89 85.63L114.92 85.66Q115.15 90.88 109.81 91.65L109.86 91.70L109.83 91.67Q106.00 92.14 104.96 92.07L105.04 92.15L104.95 92.06Q104.21 91.94 103.24 91.81L103.11 91.67L103.29 91.02L103.40 90.09L103.50 89.42L103.51 88.82L103.58 88.89Q101.76 88.94 100.30 89.28L100.44 89.42L100.47 89.44Q100.34 88.97 100.34 88.62L100.32 88.60L100.31 88.59Q100.41 88.28 100.41 87.86L100.45 87.90L100.27 87.72Q100.47 87.09 100.74 85.77L100.65 85.67L100.64 85.66Q97.34 86.18 93.94 86.80L93.86 86.72L94.01 86.87Q93.85 87.61 93.64 89.66L93.80 89.82L93.66 89.68Q93.60 91.87 93.60 92.98L93.56 92.94L93.53 92.91Q93.65 96.64 96.15 98.03L96.16 98.04L96.11 97.98Q98.94 102.27 107.53 101.92L107.35 101.74L107.42 101.81Q108.80 101.80 111.58 102.08Z"/><path d="M20 67 C189 26,176 17,323 45" stroke="#77de77" fill="none"/><path d="M10 93 C167 11,192 84,335 68" stroke="#c3e853" fill="none"/><path d="M17 118 C172 41,191 55,333 93" stroke="#8eebd3" fill="none"/><path d="M2 93 C174 126,181 66,326 9" stroke="#e0af7e" fill="none"/><path d="M10 87 C165 34,170 57,324 55" stroke="#4eb2d4" fill="none"/><path d="M7 54 C164 117,154 69,338 75" stroke="#5454dd" fill="none"/><path d="M19 81 C179 15,177 96,329 134" stroke="#4949d4" fill="none"/><path d="M4 13 C166 78,190 64,335 128" stroke="#60a3e6" fill="none"/><path d="M5 41 C167 27,188 72,341 126" stroke="#d7914b" fill="none"/></svg>