<svg xmlns="http://www.w3.org/2000/svg" width="342" height="140" viewBox="0,0,342,140"><path d="M12 137 C160 49,160 53,340 113" stroke="#dede3f" fill="none"/><path d="M16 86 C187 52,178 14,330 89" stroke="#e96c6c" fill="none"/><path fill="#77e353" d="M165.54 76.31L165.63 76.41L165.53 76.30Q162.76 76.37 160.91 78.39L160.93 78.41L160.97 78.45Q159.14 80.49 158.91 83.38L158.80 83.27L158.90 83.37Q158.58 86.58 160.43 88.11L160.45 88.13L160.40 88.07Q162.29 89.65 165.53 89.54L165.41 89.42L165.52 89.53Q168.94 89.20 170.39 87.75L170.43 87.79L170.36 87.72Q172.01 85.62 171.83 82.84L171.89 82.90L171.89 82.90Q171.58 79.93 169.93 78.11L170.06 78.23L170.01 78.19Q168.37 76.38 165.60 76.38ZM165.53 62.03L165.44 61.95L165.58 62.09Q163.45 61.92 161.42 62.67L161.41 62.65L161.27 62.51Q159.39 63.81 159.74 66.64L159.81 66.71L159.65 66.56Q160.45 72.27 165.53 72.27L165.63 72.36L165.51 72.24Q167.92 72.57 169.42 70.84L169.36 70.77L169.49 70.91Q170.93 69.11 170.98 66.74L170.96 66.72L171.07 66.82Q171.06 64.03 169.96 63.11L169.96 63.11L169.99 63.14Q167.55 61.98 165.59 62.09ZM165.14 93.25L165.16 93.28L160.55 93.28L160.50 93.24Q158.10 93.15 156.08 91.82L156.25 91.99L156.20 91.94Q154.14 90.23 154.38 85.90L154.33 85.85L154.33 85.86Q154.92 75.35 160.41 73.85L160.50 73.94L160.42 73.85Q156.96 72.48 154.94 64.33L154.92 64.31L155.03 64.42Q154.53 62.31 154.65 61.09L154.62 61.06L154.68 61.12Q155.10 57.85 160.71 57.79L160.68 57.76L160.60 57.68Q167.08 57.63 169.27 57.92L169.21 57.85L169.32 57.97Q175.13 58.75 175.82 61.81L175.74 61.73L175.73 61.72Q175.89 62.62 175.89 63.20L176.00 63.32L176.01 63.33Q176.04 64.39 175.75 65.32L175.76 65.33L175.77 65.34Q174.80 71.71 170.35 74.02L170.25 73.92L170.42 74.09Q175.55 75.12 176.31 83.15L176.43 83.28L176.40 83.25Q176.39 83.47 176.45 85.44L176.45 85.43L176.43 85.42Q176.56 89.59 174.13 91.21L174.21 91.29L174.19 91.27Q172.13 92.61 165.19 93.30ZM168.57 96.74L168.66 96.83L173.64 96.84L173.74 96.94Q176.19 96.91 178.50 95.81L178.59 95.90L178.60 95.91Q180.39 94.87 180.51 92.04L180.50 92.03L180.40 91.93Q180.54 90.33 179.96 87.38L179.89 87.32L179.93 87.35Q178.53 80.29 175.35 77.46L175.43 77.54L174.97 76.79L174.73 76.44L174.61 76.14L174.58 76.11Q176.95 73.92 178.34 67.62L178.47 67.75L178.40 67.68Q178.31 67.02 178.43 65.74L178.46 65.78L178.62 65.94Q178.60 64.76 178.49 63.84L178.51 63.87L178.45 63.80Q178.35 61.73 176.56 60.98L176.47 60.90L176.48 60.85L176.18 60.67L176.31 60.80Q175.84 59.63 174.04 58.41L174.07 58.44L174.16 58.48L174.09 58.40Q171.19 57.46 165.00 57.17L164.86 57.03L165.02 57.19Q162.62 56.99 160.54 57.16L160.47 57.09L160.44 57.06Q159.33 57.22 157.36 57.45L157.31 57.40L157.39 57.48Q154.46 58.07 154.11 60.56L153.97 60.42L154.04 60.48Q153.87 61.12 153.93 62.33L154.04 62.44L154.04 62.45Q154.11 63.15 154.98 66.74L155.05 66.81L155.08 66.84Q156.26 71.72 158.92 73.74L158.92 73.74L159.15 73.97L158.97 73.79Q154.83 75.84 154.02 83.70L154.00 83.67L153.99 83.67Q153.83 87.14 153.83 88.53L153.72 88.42L153.80 88.50Q153.87 91.17 155.66 92.56L155.72 92.61L155.58 92.48Q155.80 92.64 156.21 92.93L156.15 92.87L156.18 92.90Q157.78 96.41 168.59 96.76ZM168.15 80.03L168.07 79.94L167.98 79.85Q169.36 79.73 170.69 80.42L170.83 80.56L170.74 80.48Q171.41 82.07 171.35 82.88L171.31 82.84L171.34 82.87Q171.31 83.24 171.31 83.70L171.31 83.70L171.34 83.73Q171.39 87.36 167.92 88.64L167.88 88.59L167.93 88.64Q166.62 89.01 165.40 88.84L165.55 88.98L165.50 88.93Q163.77 89.05 162.04 88.36L161.97 88.29L162.01 88.33Q161.73 87.47 161.84 85.97L161.72 85.84L161.74 85.86Q162.05 83.52 163.87 81.67L163.90 81.69L163.84 81.64Q165.61 79.73 168.03 79.91ZM168.40 65.54L168.43 65.57L168.43 65.57Q169.53 65.29 170.34 65.52L170.45 65.62L170.37 66.76L170.40 66.79Q170.37 68.90 168.99 70.43L169.08 70.52L169.02 70.47Q167.59 71.95 165.51 71.66L165.53 71.68L165.52 71.68Q164.07 71.72 163.43 71.38L163.45 71.40L163.51 71.45Q163.40 70.99 163.22 69.95L163.29 70.03L163.30 70.03Q162.82 67.82 164.67 66.55L164.71 66.59L164.57 66.44Q166.33 65.55 168.47 65.61Z"/><path d="M2 132 C189 15,187 73,331 25" stroke="#a1eb89" fill="none"/><path d="M11 70 C186 37,158 6,331 12" stroke="#eb6a6a" fill="none"/><path d="M12 4 C151 68,166 130,336 73" stroke="#e85d5d" fill="none"/><path d="M3 100 C165 10,168 120,340 132" stroke="#5353e3" fill="none"/><path d="M11 4 C191 102,164 5,327 23" stroke="#d99653" fill="none"/><path d="M9 113 C158 99,155 83,332 3" stroke="#e2e259" fill="none"/><path d="M11 118 C152 92,161 78,332 72" stroke="#df579b" fill="none"/><path d="M12 24 C172 47,165 138,331 55" stroke="#71e4aa" fill="none"/><path d="M1 127 C186 12,178 53,338 102" stroke="#cc7ee6" fill="none"/><path d="M2 113 C176 23,160 120,322 67" stroke="#e4e452" fill="none"/><path fill="#ea8766" d="M279.92 67.65L279.79 67.52L279.91 67.64Q275.08 67.67 272.30 66.05L272.19 65.94L272.13 65.87Q275.97 63.83 283.37 57.41L283.35 57.39L283.37 57.41Q284.53 57.18 286.49 56.26L286.53 56.29L286.56 56.32Q284.47 65.28 284.30 74.92L284.36 74.98L284.30 74.92Q284.16 84.61 285.78 93.85L285.63 93.71L285.75 93.83Q283.16 92.68 279.92 92.50L279.99 92.57L279.98 92.56Q279.79 86.24 279.79 80.06L279.82 80.09L279.68 79.96Q279.86 73.90 279.92 67.66ZM279.26 70.98L279.35 93.21L279.17 93.03Q281.17 93.17 282.61 93.46L282.50 93.34L282.48 93.33Q282.65 94.43 282.94 96.51L282.99 96.55L283.00 96.56Q287.24 97.28 290.94 100.69L291.01 100.76L291.00 100.75Q287.16 89.86 287.10 78.54L287.09 78.52L287.09 78.52Q287.07 67.29 289.84 56.32L289.86 56.33L289.77 56.24Q289.00 56.92 286.57 58.59L286.67 58.69L286.64 58.66Q286.97 57.54 287.43 55.23L287.37 55.17L287.25 55.05Q285.38 56.36 283.18 56.94L283.17 56.92L283.19 56.94Q277.46 62.37 270.93 65.83L270.90 65.80L270.93 65.83Q272.99 67.43 276.57 67.95L276.63 68.00L276.51 67.89Q275.63 68.80 273.66 70.41L273.70 70.45L273.69 70.44Q275.86 70.93 279.21 70.93L279.35 71.07Z"/><path d="M2 68 C187 60,180 7,333 47" stroke="#9ede5e" fill="none"/><path d="M20 67 C167 95,178 6,339 133" stroke="#e68d8d" fill="none"/><path d="M12 78 C157 28,172 50,337 92" stroke="#6bdb87" fill="none"/><path d="M7 61 C154 88,190 51,321 58" stroke="#e7829b" fill="none"/><path d="M6 6 C191 65,168 55,333 18" stroke="#86eb65" fill="none"/><path d="M13 79 C186 13,184 117,324 57" stroke="#ee7b98" fill="none"/><path d="M18 113 C168 13,154 127,325 89" stroke="#6ee546" fill="none"/><path fill="#6a41e6" d="M53.11 67.51L53.09 67.49L53.23 67.63Q48.22 67.48 45.45 65.86L45.47 65.88L45.61 66.02Q49.28 63.80 56.68 57.39L56.76 57.47L56.78 57.48Q57.75 57.08 59.72 56.15L59.82 56.25L59.83 56.26Q57.76 65.23 57.59 74.88L57.52 74.82L57.59 74.89Q57.54 84.65 59.15 93.90L59.08 93.82L59.05 93.80Q56.47 92.66 53.23 92.48L53.26 92.50L53.35 92.60Q53.17 86.29 53.17 80.11L53.14 80.08L53.17 80.11Q53.03 73.74 53.09 67.49ZM52.69 71.08L52.64 93.16L52.67 93.19Q54.37 93.04 55.81 93.33L55.79 93.30L55.94 93.45Q56.08 94.52 56.37 96.60L56.37 96.61L56.39 96.62Q60.72 97.43 64.42 100.84L64.33 100.75L64.39 100.81Q60.62 89.99 60.57 78.67L60.61 78.71L60.48 78.58Q60.42 67.31 63.20 56.33L63.09 56.23L63.13 56.27Q62.26 56.84 59.84 58.52L59.90 58.59L59.83 58.52Q60.21 57.45 60.67 55.14L60.61 55.08L60.75 55.22Q58.74 56.39 56.55 56.96L56.48 56.90L56.50 56.91Q50.80 62.37 44.27 65.84L44.18 65.75L44.16 65.73Q46.30 67.41 49.88 67.93L50.02 68.06L49.84 67.88Q48.97 68.80 47.00 70.42L46.89 70.31L47.02 70.44Q49.33 71.07 52.68 71.07L52.52 70.91Z"/><path d="M3 110 C182 31,183 76,331 64" stroke="#eb6fad" fill="none"/><path d="M6 132 C163 28,190 117,332 6" stroke="#5072d7" fill="none"/><path d="M6 44 C164 120,151 123,330 48" stroke="#bd50e1" fill="none"/><path d="M6 2 C185 100,158 110,336 108" stroke="#6eeccc" fill="none"/><path fill="#b2ee76" d="M217.35 93.38L217.24 93.28L217.32 93.36Q215.12 93.41 212.75 92.78L212.67 92.70L212.71 92.73Q210.81 91.30 210.58 88.81L210.76 88.99L210.60 88.83Q210.62 88.62 210.91 84.64L210.96 84.69L210.87 84.60Q212.49 84.37 215.55 83.79L215.59 83.82L215.15 84.84L215.24 84.92Q214.86 87.61 217.00 88.47L217.01 88.49L216.94 88.42Q218.22 89.00 221.39 89.00L221.30 88.90L221.42 89.02Q223.87 88.81 224.16 88.70L224.08 88.62L224.09 88.63Q225.50 88.42 226.60 87.67L226.56 87.63L226.54 87.61Q228.66 86.15 228.37 82.97L228.40 83.00L228.34 82.94Q228.19 79.38 225.56 77.01L225.43 76.88L225.40 76.85Q222.83 74.54 219.07 74.54L219.16 74.63L219.10 74.22L219.09 74.21Q219.67 74.15 221.00 74.04L221.06 74.10L220.91 73.95Q223.83 73.81 225.91 71.93L226.04 72.06L225.95 71.97Q228.05 70.11 228.28 67.28L228.33 67.32L228.33 67.33Q228.47 66.83 228.47 66.31L228.30 66.15L228.31 66.16Q228.38 63.91 226.30 62.52L226.29 62.52L226.41 62.64Q224.49 61.35 222.06 61.53L222.11 61.57L222.04 61.50Q220.06 61.25 218.21 61.89L218.19 61.87L218.31 61.99Q216.02 62.70 215.56 64.44L215.64 64.52L215.64 64.52Q215.26 65.59 215.38 66.74L215.32 66.69L215.46 66.82Q213.82 66.40 210.70 65.30L210.64 65.24L210.66 65.26Q210.28 62.69 210.34 61.41L210.49 61.57L210.40 61.48Q210.61 59.20 212.23 58.16L212.22 58.15L212.22 58.15Q214.44 57.31 216.86 57.31L216.73 57.18L216.83 57.28Q221.55 57.14 226.35 57.55L226.40 57.59L226.35 57.55Q234.11 58.26 233.65 63.98L233.60 63.93L233.57 63.90Q233.44 66.14 232.68 68.51L232.63 68.46L232.63 68.46Q231.40 73.29 227.82 74.68L227.86 74.72L227.75 74.60Q231.79 75.47 232.71 80.55L232.58 80.42L232.69 80.53Q233.09 82.31 233.20 85.38L233.14 85.32L233.08 85.25Q233.34 92.05 226.35 92.74L226.42 92.81L226.40 92.79Q225.19 92.80 217.16 93.20ZM225.19 96.72L225.14 96.67L225.10 96.63Q226.18 96.85 230.51 96.96L230.36 96.80L230.43 96.88Q233.08 96.99 235.57 96.00L235.59 96.02L235.48 95.92Q237.33 94.53 237.04 91.87L237.14 91.97L237.05 91.88Q236.85 89.84 236.39 87.18L236.46 87.24L236.51 87.30Q235.30 80.37 232.35 77.88L232.39 77.92L232.04 77.28L232.02 77.20L232.11 77.29Q234.66 74.99 235.82 68.35L235.81 68.34L235.93 68.46Q235.94 67.71 236.11 66.27L236.15 66.30L236.01 66.17Q236.28 65.17 236.16 64.13L236.16 64.12L236.15 64.12Q235.77 61.42 233.81 60.38L233.87 60.44L233.69 60.38L233.85 60.55Q233.35 59.00 231.61 58.19L231.52 58.10L231.51 58.09Q229.31 57.15 221.51 56.69L221.41 56.60L221.45 56.63Q218.99 56.61 216.57 56.61L216.51 56.55L216.58 56.62Q214.10 56.56 211.79 57.55L211.67 57.43L211.71 57.47Q209.85 58.61 209.85 61.27L209.94 61.36L209.82 61.24Q209.83 60.61 210.23 65.70L210.33 65.80L210.31 65.78Q210.70 65.82 213.19 66.75L213.22 66.78L213.29 66.85Q213.17 67.54 213.11 68.29L213.18 68.36L213.15 68.33Q213.12 69.05 213.17 69.86L213.22 69.90L213.16 69.84Q215.93 70.47 218.99 70.64L218.96 70.61L219.03 70.68Q218.90 67.61 220.58 66.34L220.69 66.45L220.51 66.27Q221.81 65.31 224.87 64.97L225.01 65.10L224.87 64.97Q226.72 65.08 227.59 65.37L227.48 65.26L227.49 65.28Q227.54 65.44 227.59 65.61L227.71 65.73L227.56 65.87L227.72 66.72L227.78 66.78Q227.73 67.01 227.67 67.25L227.72 67.30L227.78 67.36Q227.61 69.91 225.30 71.70L225.33 71.72L225.42 71.82Q223.95 73.12 220.89 73.41L220.92 73.45L220.82 73.35Q219.72 73.57 218.39 73.57L218.55 73.73L218.45 73.63Q218.57 74.21 218.80 75.25L218.75 75.20L218.72 75.17Q221.42 75.21 223.61 76.31L223.60 76.30L223.49 76.36L221.03 76.55L221.03 76.55Q221.20 77.19 221.37 78.11L221.24 77.98L221.28 78.02Q224.61 77.99 227.21 80.02L227.16 79.97L227.09 79.90Q227.47 80.52 227.94 83.00L228.02 83.08L227.89 82.95Q228.23 87.45 223.78 88.09L223.79 88.10L223.79 88.10Q220.57 88.46 219.71 88.41L219.74 88.44L219.65 88.35Q219.08 88.30 218.27 88.19L218.13 88.04L218.30 87.52L218.31 86.67L218.51 86.23L218.53 85.73L218.42 85.62Q217.03 85.79 215.82 86.08L215.86 86.12L215.84 86.10Q215.72 85.69 215.72 85.40L215.83 85.51L215.83 85.52Q215.87 85.20 215.87 84.85L215.84 84.82L215.86 84.85Q215.95 84.24 216.18 83.14L216.09 83.06L216.13 83.10Q213.35 83.49 210.51 84.01L210.47 83.96L210.41 83.90Q210.53 84.78 210.36 86.48L210.40 86.52L210.24 86.37Q210.11 88.12 210.11 89.04L210.21 89.14L210.23 89.16Q210.27 92.20 212.35 93.36L212.26 93.27L212.43 93.43Q214.55 96.77 221.71 96.48L221.73 96.49L221.75 96.52Q222.95 96.56 225.26 96.79Z"/><path d="M16 110 C164 49,180 14,326 51" stroke="#52e99e" fill="none"/><path fill="#cf87e7" d="M102.98 82.09L103.00 82.12L102.88 81.99Q107.65 81.51 112.50 81.68L112.58 81.76L112.49 81.67Q112.34 77.70 112.34 74.06L112.52 74.24L112.53 74.26Q112.45 70.41 112.74 66.54L112.82 66.63L112.78 66.58Q110.81 69.06 102.89 82.01ZM117.92 93.16L118.07 93.32L118.08 93.33Q115.35 92.67 112.63 92.56L112.81 92.74L112.72 92.65Q112.43 89.06 112.26 85.31L112.25 85.30L112.32 85.37Q104.12 84.97 96.95 87.11L97.02 87.17L96.94 87.09Q97.22 86.45 97.51 84.94L97.47 84.90L97.39 84.83Q100.12 80.05 105.55 70.51L105.58 70.53L105.66 70.62Q109.97 63.14 115.17 57.25L115.24 57.32L115.22 57.30Q116.57 57.03 119.11 56.62L119.16 56.67L119.18 56.69Q116.28 66.44 116.28 77.13L116.29 77.15L116.23 77.09Q116.24 79.35 116.35 81.60L116.31 81.56L118.27 81.72L118.21 81.66Q119.16 81.75 120.08 81.92L120.16 82.00L120.08 81.91Q120.37 83.54 120.78 86.49L120.80 86.51L120.69 86.40Q118.85 86.01 116.60 85.72L116.58 85.70L116.52 85.64Q117.00 88.83 118.04 93.28ZM120.51 81.37L120.48 81.33L120.45 81.30Q120.16 81.19 119.87 81.19L119.92 81.24L119.46 81.36L119.32 81.22Q119.29 79.11 119.29 76.97L119.23 76.90L119.30 76.97Q119.13 67.10 122.25 57.97L122.25 57.97L122.32 58.04Q121.08 58.36 118.89 58.94L118.97 59.02L119.01 59.06Q119.40 57.95 120.10 55.82L119.94 55.66L120.10 55.82Q118.09 56.35 114.97 56.70L114.83 56.56L114.84 56.56Q109.04 63.31 101.12 77.52L101.13 77.53L104.14 71.82L104.33 72.00Q103.65 73.52 103.25 74.39L103.18 74.32L96.47 88.06L96.44 88.03Q97.35 87.73 99.08 87.15L99.10 87.18L98.87 87.52L98.98 87.63Q98.75 88.61 98.29 90.52L98.35 90.58L98.24 90.48Q104.51 88.48 111.84 88.76L111.86 88.78L111.82 88.74Q111.96 90.27 112.25 93.28L112.22 93.24L112.22 93.24Q113.75 93.15 115.37 93.33L115.47 93.43L115.47 93.43Q115.66 94.43 116.07 96.51L116.17 96.61L116.13 96.57Q119.00 96.90 123.56 98.29L123.54 98.26L123.44 98.16Q122.08 95.07 120.69 90.10L120.55 89.95L122.89 90.80L122.83 90.73Q123.78 90.99 124.82 91.51L125.01 91.71L124.91 91.60Q123.79 87.88 123.55 85.33L123.52 85.30L123.41 85.19Q122.63 85.05 120.90 84.70L120.80 84.60L120.95 84.75Q120.54 82.73 120.54 81.40ZM108.38 81.14L108.31 81.07L108.44 81.20Q109.60 79.24 111.97 75.37L111.96 75.35L111.84 75.24Q112.01 76.85 111.95 78.30L111.93 78.27L111.91 78.25Q111.78 79.63 111.84 81.07L111.92 81.15L111.89 81.12Q111.11 81.16 110.25 81.16L110.27 81.18L110.26 81.17Q109.34 81.17 108.41 81.17Z"/><path d="M15 38 C183 101,181 86,332 134" stroke="#eeee76" fill="none"/><path d="M15 83 C180 65,171 116,330 137" stroke="#f1bc88" fill="none"/><path d="M15 18 C155 117,184 3,340 65" stroke="#58e37b" fill="none"/><path d="M9 5 C181 9,179 130,327 81" stroke="#aa95e9" fill="none"/><path d="M2 129 C174 111,177 82,335 85" stroke="#a363e2" fill="none"/><path d="M7 54 C179 117,182 134,327 60" stroke="#e43e67" fill="none"/><path d="M9 9 C178 38,171 40,334 128" stroke="#4ee3be" fill="none"/><path d="M6 5 C165 29,154 16,340 120" stroke="#4b4bd2" fill="none"/><path d="M15 51 C155 80,173 57,330 117" stroke="#4596e6" fill="none"/><path d="M20 42 C183 78,166 75,335 59" stroke="#82cee8" fill="none"/><path d="M5 34 C184 89,168 114,327 56" stroke="#63e7a5" fill="none"/><path d="M18 137 C169 91,162 60,332 45" stroke="#eb79cf" fill="none"/><path d="M17 129 C169 76,178 107,332 28" stroke="#e853c3" fill="none"/><path d="M10 109 C155 131,169 139,331 80" stroke="#8ca1e3" fill="none"/><path d="M2 79 C163 136,178 104,330 61" stroke="#dc5577" fill="none"/><path d="M18 17 C192 18,168 55,330 69" stroke="#76ee76" fill="none"/></svg>