<svg xmlns="http://www.w3.org/2000/svg" width="342" height="140" viewBox="0,0,342,140"><path d="M17 78 C179 99,156 35,330 100" stroke="#dd6edd" fill="none"/><path d="M6 110 C180 29,184 127,326 81" stroke="#e69292" fill="none"/><path d="M6 37 C177 118,169 24,326 27" stroke="#5298df" fill="none"/><path d="M2 129 C173 88,164 53,324 48" stroke="#e8e87c" fill="none"/><path fill="#e6e645" d="M52.85 67.38L52.67 67.20L52.83 67.36Q47.35 67.31 44.25 65.50L44.29 65.53L44.32 65.57Q48.47 63.13 56.73 55.96L56.82 56.05L56.72 55.94Q57.98 55.66 60.18 54.62L60.27 54.72L60.18 54.62Q57.95 64.73 57.76 75.51L57.67 75.43L57.65 75.41Q57.45 86.19 59.26 96.52L59.29 96.55L59.37 96.63Q56.44 95.31 52.82 95.12L52.96 95.25L52.83 95.13Q52.78 88.23 52.78 81.32L52.78 81.33L52.77 81.31Q52.79 74.36 52.86 67.39ZM52.06 71.05L52.10 95.82L52.11 95.82Q54.17 95.83 55.79 96.15L55.72 96.08L55.88 96.24Q56.02 97.42 56.34 99.74L56.33 99.72L56.27 99.66Q61.06 100.52 65.19 104.33L65.22 104.35L65.19 104.32Q60.99 92.25 60.93 79.59L60.99 79.65L61.06 79.72Q60.93 67.06 64.03 54.79L64.03 54.79L63.84 54.61Q62.97 55.34 60.25 57.22L60.28 57.25L60.22 57.18Q60.65 56.00 61.17 53.42L61.18 53.43L61.06 53.31Q58.94 54.74 56.49 55.39L56.36 55.26L56.45 55.35Q50.05 61.41 42.75 65.29L42.85 65.38L42.66 65.19Q45.09 67.11 49.09 67.69L49.10 67.70L49.16 67.75Q48.12 68.72 45.92 70.52L45.87 70.47L45.79 70.39Q48.33 71.06 52.08 71.06L52.15 71.14Z"/><path d="M6 89 C155 124,180 20,335 20" stroke="#45e6e6" fill="none"/><path d="M2 93 C151 29,177 119,334 51" stroke="#e56fe5" fill="none"/><path d="M13 133 C152 112,170 128,328 55" stroke="#e39649" fill="none"/><path d="M14 22 C171 22,192 14,327 49" stroke="#6ae740" fill="none"/><path d="M10 34 C171 62,180 50,337 18" stroke="#ef8a8a" fill="none"/><path d="M3 103 C174 16,192 117,333 125" stroke="#4ad86d" fill="none"/><path d="M9 94 C151 21,180 83,336 118" stroke="#e471e4" fill="none"/><path d="M18 55 C168 8,158 9,332 33" stroke="#a791e7" fill="none"/><path d="M3 102 C174 116,154 87,322 80" stroke="#82eb60" fill="none"/><path d="M8 102 C183 86,172 98,326 135" stroke="#e46033" fill="none"/><path d="M13 94 C162 106,156 69,327 132" stroke="#dd6969" fill="none"/><path fill="#67e53c" d="M165.12 60.86L165.12 60.86L162.55 61.13L162.53 61.11Q158.66 61.24 158.27 64.67L158.21 64.61L158.35 64.75Q158.15 65.90 158.22 67.58L158.29 67.65L158.27 67.63Q158.40 70.99 160.53 73.25L160.49 73.22L160.46 73.19Q162.53 75.38 165.76 75.12L165.77 75.14L165.80 75.17Q169.29 74.90 170.58 73.35L170.59 73.37L170.50 73.28Q172.32 71.74 172.77 67.93L172.93 68.09L172.83 67.99Q173.23 64.12 171.10 62.70L171.08 62.69L171.15 62.76Q169.68 61.42 165.16 60.90ZM175.46 76.62L175.41 76.57L173.29 80.52L173.24 80.47Q168.71 88.67 162.32 95.58L162.16 95.42L162.27 95.53Q159.49 95.79 154.91 97.15L154.87 97.11L154.87 97.11Q163.94 86.47 169.30 78.34L169.20 78.24L169.32 78.36Q167.61 79.50 164.84 79.63L164.71 79.50L164.68 79.47Q159.59 79.74 157.01 76.38L156.98 76.36L157.15 76.53Q155.02 73.74 153.14 65.99L153.22 66.08L153.17 66.02Q153.15 65.23 152.89 63.65L152.91 63.67L152.86 63.62Q152.55 61.97 152.55 61.20L152.62 61.27L152.66 61.32Q152.57 58.19 154.38 57.16L154.46 57.24L154.53 57.31Q156.53 55.95 159.70 55.95L159.68 55.93L159.76 56.01Q165.00 55.83 165.00 55.83L165.12 55.95L165.19 56.02Q168.83 56.04 170.96 56.36L170.87 56.27L171.00 56.40Q174.50 56.74 176.05 57.58L175.97 57.50L176.11 57.64Q178.40 58.90 178.72 61.87L178.73 61.87L178.69 61.83Q178.77 62.30 178.44 66.82L178.33 66.70L178.35 66.72Q177.70 70.34 177.31 71.76L177.32 71.77L177.44 71.89Q176.80 74.28 175.51 76.67ZM178.68 80.68L178.68 80.68L178.68 80.68Q180.27 76.85 181.18 69.55L181.30 69.68L181.28 69.66Q181.65 65.82 181.58 64.34L181.61 64.37L181.64 64.40Q181.57 61.22 179.56 59.67L179.46 59.57L179.03 59.46L179.14 59.57Q178.57 58.16 177.02 57.06L177.06 57.11L176.96 57.01Q173.11 55.35 164.97 55.09L164.97 55.09L164.96 55.08Q163.33 55.06 159.20 55.06L159.19 55.06L159.24 55.11Q156.30 55.13 153.78 56.30L153.71 56.23L153.78 56.30Q151.89 57.70 152.02 60.80L152.05 60.84L151.98 60.77Q152.40 62.41 152.73 65.84L152.63 65.74L152.62 65.73Q153.71 70.25 154.17 71.67L154.05 71.56L154.09 71.59Q155.05 74.75 156.66 76.94L156.66 76.94L156.61 76.88Q157.11 77.51 157.75 78.16L157.76 78.17L157.79 78.20Q158.29 79.02 159.39 80.57L159.39 80.57L159.42 80.60Q161.94 82.93 165.24 83.26L165.20 83.22L165.17 83.19Q162.01 87.78 159.36 91.01L159.27 90.91L153.05 98.26L153.15 98.35Q157.03 97.14 159.81 96.56L159.68 96.43L159.68 96.43Q158.36 97.89 155.71 100.79L155.83 100.91L155.73 100.81Q161.05 99.34 166.34 99.28L166.27 99.21L166.25 99.19Q170.32 94.93 177.69 82.66L177.61 82.59L177.61 82.71L177.60 82.70Q178.14 81.56 178.72 80.72ZM168.48 64.99L168.45 64.97L168.39 64.91Q169.53 64.81 170.30 65.01L170.26 64.96L170.31 65.01Q171.29 65.09 171.93 65.28L171.98 65.33L172.08 65.43Q172.16 65.96 172.29 66.67L172.35 66.73L172.40 66.79Q172.43 67.39 172.23 68.04L172.31 68.11L172.29 68.09Q172.18 70.95 170.17 72.82L170.13 72.78L170.16 72.81Q168.61 74.62 165.84 74.56L165.71 74.43L165.81 74.53Q165.17 74.60 162.58 74.08L162.41 73.91L162.49 73.99Q162.12 72.52 162.12 71.29L162.14 71.31L162.03 71.20Q161.94 70.79 161.94 70.40L161.93 70.39L162.06 70.52Q161.99 66.70 165.86 65.34L165.93 65.42L165.92 65.41Q166.94 64.87 168.36 64.87Z"/><path d="M2 125 C178 49,190 137,328 76" stroke="#754fe7" fill="none"/><path fill="#cfea7f" d="M278.33 77.04L278.32 77.04L278.17 76.88Q275.09 76.71 272.99 79.13L273.10 79.24L273.01 79.15Q270.89 81.55 270.57 84.78L270.59 84.80L270.73 84.94Q270.28 88.37 272.12 90.01L272.04 89.93L272.01 89.90Q273.97 91.67 277.53 91.48L277.55 91.51L277.58 91.53Q281.08 91.22 282.95 90.06L282.87 89.97L282.89 89.99Q284.79 88.08 284.79 85.44L284.92 85.57L284.76 85.41Q284.82 84.83 284.70 84.18L284.74 84.23L284.78 84.27Q284.93 81.45 283.06 79.16L283.06 79.16L282.96 79.06Q281.02 76.70 278.18 76.89ZM277.58 95.86L277.62 95.90L277.50 95.78Q270.17 95.88 267.78 94.59L267.72 94.53L267.73 94.53Q266.05 93.31 265.73 90.40L265.62 90.29L265.69 90.36Q265.51 89.08 265.57 87.86L265.71 87.99L265.61 87.90Q265.94 86.35 265.94 85.58L265.87 85.51L265.78 85.41Q266.55 80.57 266.81 79.41L266.85 79.45L266.95 79.54Q267.59 76.12 269.01 73.73L269.11 73.83L269.12 73.83Q273.67 66.44 283.74 55.65L283.77 55.68L283.75 55.66Q288.31 55.18 292.05 53.82L292.05 53.82L292.00 53.77Q280.26 66.32 274.84 73.49L274.98 73.62L274.97 73.61Q276.61 72.74 278.81 72.74L278.70 72.63L278.77 72.70Q284.36 72.67 286.94 75.97L286.93 75.95L286.90 75.92Q289.21 78.75 289.79 84.75L289.92 84.88L289.77 84.73Q289.93 86.00 289.93 87.03L289.89 86.98L289.89 86.99Q290.03 92.43 286.29 94.23L286.26 94.21L286.26 94.21Q284.10 95.14 277.51 95.79ZM281.52 99.99L281.33 99.81L281.44 99.91Q283.57 99.78 286.93 99.91L286.97 99.96L287.02 100.00Q289.81 100.14 292.46 98.92L292.46 98.92L292.33 98.79Q294.19 97.42 294.19 94.39L294.26 94.46L294.19 94.39Q294.37 93.73 294.08 92.05L294.06 92.03L294.02 91.99Q293.77 90.35 293.77 89.57L293.72 89.53L293.75 89.55Q292.25 81.53 289.53 78.30L289.47 78.24L289.56 78.33Q289.37 78.07 289.11 77.68L289.07 77.64L288.64 77.34L288.37 77.14L288.48 77.25Q287.94 76.45 286.91 74.83L286.81 74.73L286.95 74.88Q285.21 73.07 281.85 72.29L281.95 72.39L281.99 72.43Q284.07 69.74 289.11 63.47L289.01 63.37L296.23 54.45L296.31 54.53Q293.51 55.86 289.44 57.16L289.41 57.12L289.49 57.20Q291.12 55.61 294.16 52.25L294.11 52.20L294.15 52.24Q290.05 54.01 283.46 54.98L283.47 55.00L283.46 54.98Q273.76 64.98 268.72 73.38L268.79 73.44L268.72 73.37Q266.20 77.70 265.23 88.29L265.21 88.27L265.19 88.25Q264.93 89.08 265.06 90.70L265.10 90.74L265.13 90.77Q265.28 93.76 267.15 95.31L267.17 95.33L267.15 95.31Q267.87 95.65 267.81 95.71L267.72 95.62L267.81 95.71Q268.33 97.14 269.69 97.85L269.64 97.80L269.76 97.92Q272.13 99.00 275.42 99.32L275.52 99.42L275.51 99.41Q275.54 99.44 281.48 99.95ZM281.04 80.85L280.95 80.76L280.97 80.78Q282.01 80.65 283.62 81.49L283.69 81.56L283.62 81.49Q284.25 83.15 284.25 84.25L284.18 84.18L284.28 84.28Q284.48 87.32 282.87 89.00L282.85 88.99L282.82 88.95Q281.20 90.37 277.65 90.89L277.47 90.71L277.53 90.77Q275.02 90.71 274.11 90.26L274.22 90.37L274.29 90.44Q273.83 89.52 273.83 89.01L273.91 89.09L273.93 89.11Q273.57 83.58 278.54 81.38L278.43 81.27L278.38 81.23Q279.70 80.67 280.99 80.80Z"/><path d="M18 139 C173 101,165 65,327 109" stroke="#8ee6ba" fill="none"/><path d="M11 36 C166 127,188 55,336 80" stroke="#b958d9" fill="none"/><path d="M8 118 C155 118,178 110,340 102" stroke="#dfdf7a" fill="none"/><path d="M4 66 C174 119,176 27,333 86" stroke="#41e191" fill="none"/><path d="M9 18 C171 62,171 110,335 114" stroke="#c369e1" fill="none"/><path d="M16 77 C189 22,166 74,335 136" stroke="#67da67" fill="none"/><path d="M5 92 C178 81,160 14,333 19" stroke="#7c7ce8" fill="none"/><path fill="#e57591" d="M217.28 96.13L217.27 96.12L217.17 96.02Q210.37 96.52 208.69 92.58L208.55 92.44L208.70 92.59Q210.03 91.01 212.68 87.98L212.67 87.97L212.68 87.98Q213.45 91.34 218.55 91.53L218.43 91.41L218.50 91.47Q224.23 91.59 227.01 89.33L227.03 89.35L227.03 89.35Q229.40 86.62 229.27 82.03L229.34 82.10L229.23 81.99Q229.11 73.54 220.97 73.93L220.99 73.94L220.98 73.94Q216.06 74.05 213.09 76.18L213.15 76.25L212.51 75.87L212.29 75.78L212.34 75.82Q212.81 70.35 212.62 65.70L212.59 65.68L212.57 65.65Q212.50 61.32 211.92 55.70L211.92 55.71L211.81 55.60Q218.15 57.35 224.61 57.16L224.55 57.10L224.47 57.02Q231.02 56.98 237.09 54.85L236.99 54.75L236.14 57.45L236.06 57.37Q235.58 58.70 235.26 60.12L235.20 60.06L235.17 60.03Q229.94 61.84 223.35 61.84L223.32 61.81L223.39 61.88Q220.96 61.90 218.44 61.64L218.39 61.60L218.30 61.51Q218.29 62.79 217.71 70.35L217.59 70.22L217.60 70.23Q219.01 69.45 222.50 69.19L222.55 69.24L222.66 69.35Q228.85 69.60 231.31 72.44L231.28 72.42L231.32 72.46Q233.71 75.11 234.17 81.63L234.10 81.57L234.26 81.72Q234.69 88.81 232.63 92.23L232.56 92.16L232.48 92.09Q229.20 95.46 223.58 95.85L223.44 95.71L223.54 95.81Q221.74 95.82 217.22 96.08ZM227.58 100.04L227.53 99.99L227.60 100.06Q233.28 100.06 236.51 98.19L236.53 98.20L236.56 98.23Q238.24 95.65 238.24 92.10L238.15 92.01L238.30 92.16Q238.26 86.89 236.65 79.92L236.65 79.92L236.59 79.86Q236.05 77.00 233.99 74.61L233.87 74.49L234.03 74.72L233.48 74.04L232.90 73.72L232.95 73.77Q232.53 72.63 231.43 71.47L231.37 71.41L231.31 71.41L231.43 71.54Q228.85 68.70 222.58 68.70L222.52 68.63L222.03 68.59L222.05 68.61Q222.23 67.69 222.55 65.82L222.46 65.72L222.53 65.80Q231.07 66.07 237.92 63.30L237.89 63.27L237.82 63.20Q238.62 60.90 240.24 56.12L240.07 55.96L236.58 57.64L236.60 57.65Q237.19 55.66 238.03 53.73L238.13 53.82L238.03 53.72Q231.56 56.23 224.59 56.36L224.66 56.43L224.65 56.42Q217.57 56.51 210.85 54.64L211.00 54.79L210.89 54.68Q212.01 62.12 212.01 69.61L212.02 69.62L212.01 69.61Q212.02 72.86 211.83 76.09L211.86 76.12L211.81 76.07Q212.23 76.36 213.20 76.88L213.39 77.06L213.32 76.99Q213.89 76.60 214.99 76.02L214.92 75.95L215.06 76.09Q214.97 77.35 214.58 79.94L214.44 79.80L214.49 79.85Q215.23 80.20 215.94 80.59L215.89 80.53L216.02 80.66Q220.63 77.59 223.80 77.59L223.77 77.56L223.79 77.59Q226.03 77.56 228.03 78.66L228.08 78.71L228.04 78.67Q228.64 80.44 228.71 82.05L228.79 82.13L228.73 82.08Q228.85 86.46 227.11 88.33L227.06 88.28L227.09 88.31Q224.76 90.37 220.95 90.76L220.90 90.71L221.02 90.83Q219.41 90.97 218.25 90.84L218.29 90.88L218.23 90.82Q216.85 90.67 215.56 90.08L215.58 90.11L215.34 89.55L215.29 89.88L215.26 89.85Q213.96 89.07 213.06 86.81L212.91 86.66L213.03 86.78Q210.69 89.09 207.84 92.70L207.95 92.81L207.83 92.69Q208.29 93.73 209.71 95.35L209.89 95.53L209.80 95.43Q211.60 98.53 216.38 99.37L216.45 99.44L216.48 99.47Q218.38 99.75 227.49 99.95Z"/><path fill="#7391ec" d="M101.72 83.48L101.83 83.58L101.70 83.46Q106.91 82.79 112.34 82.99L112.47 83.12L112.30 82.95Q112.29 78.68 112.29 74.61L112.33 74.65L112.33 74.64Q112.32 70.44 112.64 66.11L112.71 66.18L112.67 66.14Q110.55 68.99 101.70 83.46ZM118.55 95.98L118.63 96.06L118.49 95.92Q115.79 95.55 112.76 95.42L112.59 95.26L112.67 95.34Q112.26 91.24 112.07 87.04L112.18 87.15L112.07 87.04Q103.07 86.77 95.07 89.16L95.08 89.18L95.12 89.22Q95.32 88.38 95.64 86.70L95.59 86.65L95.51 86.57Q98.73 81.39 104.80 70.73L104.66 70.59L104.66 70.59Q109.67 62.43 115.48 55.84L115.40 55.76L115.50 55.86Q116.84 55.39 119.68 54.94L119.85 55.11L119.69 54.95Q116.61 66.01 116.61 77.96L116.45 77.80L116.45 77.80Q116.49 80.36 116.62 82.87L116.76 83.02L118.90 83.15L118.90 83.15Q119.90 83.18 120.93 83.38L120.98 83.43L120.93 83.38Q121.06 84.99 121.51 88.28L121.64 88.42L121.55 88.32Q119.52 87.91 117.00 87.58L117.08 87.67L117.06 87.65Q117.31 90.92 118.47 95.90ZM121.40 82.75L121.30 82.65L121.40 82.75Q120.99 82.54 120.67 82.54L120.80 82.66L120.09 82.60L120.09 82.61Q119.93 80.11 119.93 77.72L119.85 77.64L119.91 77.71Q119.99 66.93 123.47 56.73L123.43 56.69L123.35 56.61Q122.13 57.13 119.68 57.78L119.54 57.64L119.54 57.64Q120.00 56.42 120.78 54.03L120.74 54.00L120.82 54.08Q118.68 54.78 115.20 55.17L115.12 55.10L115.18 55.15Q108.40 62.38 99.55 78.27L99.58 78.30L103.14 72.11L103.13 72.10Q102.55 73.97 102.10 74.94L101.90 74.75L94.35 90.06L94.48 90.19Q95.54 89.89 97.48 89.25L97.51 89.28L97.20 89.61L97.27 89.69Q97.10 90.87 96.59 93.00L96.50 92.92L96.51 92.93Q103.48 90.66 111.68 90.99L111.64 90.94L111.64 90.94Q111.67 92.53 112.00 95.89L112.15 96.04L112.13 96.02Q113.92 96.00 115.73 96.19L115.75 96.21L115.62 96.09Q115.94 97.31 116.39 99.63L116.44 99.68L116.40 99.64Q119.66 100.06 124.76 101.61L124.73 101.58L124.68 101.53Q122.99 97.90 121.44 92.35L121.44 92.35L123.90 93.13L124.05 93.28Q125.08 93.53 126.24 94.11L126.25 94.12L126.28 94.15Q124.94 89.91 124.69 87.07L124.64 87.03L124.61 86.99Q123.70 86.80 121.77 86.41L121.67 86.31L121.75 86.39Q121.46 84.29 121.46 82.81ZM107.89 82.55L107.78 82.43L107.73 82.38Q109.18 80.34 111.83 76.02L111.78 75.97L111.68 75.87Q111.75 77.56 111.69 79.17L111.70 79.19L111.64 79.12Q111.74 80.90 111.80 82.52L111.68 82.39L111.72 82.43Q110.85 82.46 109.88 82.46L109.86 82.45L109.87 82.46Q108.78 82.40 107.74 82.40Z"/><path d="M9 70 C185 5,161 136,322 109" stroke="#77e392" fill="none"/><path d="M16 89 C158 121,155 101,336 119" stroke="#8585ee" fill="none"/><path d="M4 19 C180 26,173 8,335 64" stroke="#a5db70" fill="none"/><path d="M12 11 C178 15,191 81,331 40" stroke="#76dfc4" fill="none"/><path d="M7 108 C164 36,172 35,322 135" stroke="#de39b5" fill="none"/><path d="M1 126 C155 139,170 16,341 122" stroke="#63e2e2" fill="none"/><path d="M13 119 C159 115,176 40,340 14" stroke="#68e3a5" fill="none"/><path d="M14 10 C171 79,191 104,326 107" stroke="#e79f87" fill="none"/><path d="M20 108 C165 138,182 122,326 132" stroke="#6fdc8a" fill="none"/><path d="M15 85 C153 72,153 100,323 76" stroke="#87e7b7" fill="none"/><path d="M20 12 C151 11,155 119,331 70" stroke="#7ee55b" fill="none"/><path d="M7 68 C175 84,152 75,325 30" stroke="#8ea5ea" fill="none"/><path d="M4 99 C154 52,167 127,326 128" stroke="#3bdcdc" fill="none"/><path d="M10 85 C168 48,162 99,333 26" stroke="#dfbc52" fill="none"/><path d="M11 114 C165 21,183 68,340 10" stroke="#d0ee76" fill="none"/><path d="M17 41 C175 116,179 118,322 124" stroke="#42e091" fill="none"/><path d="M14 23 C153 83,167 87,339 92" stroke="#b4d74b" fill="none"/></svg>