<svg xmlns="http://www.w3.org/2000/svg" width="342" height="140" viewBox="0,0,342,140"><path d="M21 4 C174 71,150 97,334 126" stroke="#8cf18c" fill="none"/><path d="M3 20 C151 126,187 115,331 51" stroke="#48d9b5" fill="none"/><path d="M9 125 C172 126,175 123,328 86" stroke="#dfaa75" fill="none"/><path d="M12 74 C162 45,163 31,334 131" stroke="#e79292" fill="none"/><path d="M12 124 C190 82,191 84,340 50" stroke="#7d7dec" fill="none"/><path d="M11 11 C190 137,154 62,339 103" stroke="#c060e0" fill="none"/><path d="M12 4 C171 103,192 133,324 56" stroke="#9071ee" fill="none"/><path d="M19 43 C167 80,187 94,325 65" stroke="#d584ef" fill="none"/><path d="M9 138 C152 4,158 95,336 45" stroke="#5858e8" fill="none"/><path d="M3 80 C182 85,158 124,338 99" stroke="#7956e0" fill="none"/><path d="M20 7 C173 116,159 57,337 38" stroke="#46e56e" fill="none"/><path d="M9 43 C191 15,155 40,325 20" stroke="#9276e4" fill="none"/><path d="M10 92 C169 18,164 21,324 16" stroke="#87e787" fill="none"/><path d="M3 38 C174 53,174 91,323 23" stroke="#7fdb61" fill="none"/><path d="M10 92 C153 4,174 87,339 53" stroke="#db5677" fill="none"/><path d="M12 33 C165 21,161 73,326 98" stroke="#eded6c" fill="none"/><path d="M3 27 C176 69,154 75,330 46" stroke="#90e8bc" fill="none"/><path d="M17 16 C157 104,171 54,325 72" stroke="#92d1e6" fill="none"/><path fill="#5be07c" d="M267.34 61.26L267.38 61.30L264.92 61.56L264.86 61.50Q261.12 61.59 260.75 64.87L260.78 64.91L260.80 64.93Q260.74 66.16 260.80 67.77L260.77 67.74L260.82 67.79Q260.89 70.96 262.93 73.12L262.87 73.06L262.85 73.04Q264.88 75.19 267.97 74.94L268.02 74.99L268.01 74.98Q271.24 74.62 272.48 73.14L272.64 73.30L272.56 73.22Q274.34 71.78 274.77 68.13L274.78 68.14L274.73 68.09Q275.22 64.50 273.18 63.14L273.07 63.03L273.19 63.15Q271.62 61.70 267.29 61.21ZM277.23 76.35L277.14 76.25L275.07 80.00L275.12 80.05Q270.79 87.90 264.66 94.52L264.52 94.38L264.55 94.41Q261.87 94.64 257.48 95.94L257.60 96.06L257.59 96.05Q266.12 85.71 271.26 77.92L271.42 78.08L271.40 78.06Q269.74 79.13 267.08 79.25L266.94 79.11L267.02 79.18Q262.08 79.38 259.60 76.16L259.72 76.28L259.72 76.28Q257.73 73.67 255.94 66.25L255.95 66.26L255.88 66.19Q255.86 65.43 255.61 63.91L255.63 63.93L255.52 63.82Q255.44 62.47 255.44 61.73L255.35 61.64L255.46 61.75Q255.27 58.65 257.01 57.67L257.03 57.69L257.02 57.68Q259.01 56.45 262.04 56.45L262.07 56.48L262.15 56.56Q267.32 56.53 267.32 56.53L267.35 56.56L267.36 56.57Q270.77 56.52 272.81 56.83L272.86 56.88L272.81 56.83Q276.26 57.25 277.74 58.05L277.75 58.06L277.82 58.13Q280.13 59.45 280.44 62.29L280.26 62.11L280.42 62.27Q280.39 62.61 280.08 66.94L280.01 66.88L280.11 66.97Q279.48 70.43 279.11 71.79L279.10 71.78L279.03 71.71Q278.41 74.00 277.17 76.29ZM280.21 80.13L280.34 80.26L280.21 80.13Q281.80 76.52 282.67 69.53L282.72 69.59L282.79 69.66Q283.28 66.13 283.22 64.70L283.09 64.57L283.05 64.53Q283.01 61.52 281.09 60.04L281.13 60.07L280.71 59.96L280.67 59.93Q280.33 58.78 278.84 57.73L278.80 57.68L278.72 57.61Q275.11 56.10 267.32 55.85L267.27 55.80L267.31 55.84Q265.73 55.81 261.77 55.81L261.74 55.78L261.65 55.69Q258.92 55.81 256.51 56.92L256.40 56.81L256.50 56.91Q254.64 58.20 254.76 61.17L254.69 61.11L254.77 61.18Q255.08 62.67 255.39 65.95L255.30 65.86L255.27 65.82Q256.35 70.19 256.79 71.55L256.84 71.61L256.75 71.51Q257.70 74.57 259.25 76.67L259.34 76.76L259.33 76.76Q259.70 77.25 260.32 77.87L260.38 77.92L260.24 77.79Q260.74 78.60 261.79 80.08L261.80 80.09L261.88 80.17Q264.17 82.28 267.33 82.59L267.41 82.67L267.44 82.70Q264.34 87.02 261.80 90.11L261.78 90.09L255.80 97.11L255.93 97.23Q259.43 95.85 262.09 95.29L262.18 95.38L262.21 95.41Q260.95 96.81 258.41 99.59L258.41 99.59L258.39 99.57Q263.33 98.01 268.40 97.95L268.53 98.08L268.55 98.10Q272.35 93.91 279.40 82.16L279.23 81.99L279.28 82.17L279.21 82.10Q279.66 80.94 280.22 80.13ZM270.52 65.18L270.61 65.27L270.61 65.27Q271.47 64.96 272.21 65.14L272.26 65.18L272.34 65.26Q273.39 65.45 274.01 65.64L273.98 65.61L273.84 65.46Q274.15 66.21 274.27 66.89L274.30 66.92L274.21 66.83Q274.40 67.58 274.22 68.20L274.10 68.07L274.18 68.16Q274.02 70.85 272.11 72.64L272.27 72.81L272.13 72.67Q270.71 74.47 268.05 74.40L268.05 74.40L268.07 74.42Q267.33 74.36 264.85 73.87L264.77 73.79L264.79 73.80Q264.45 72.41 264.45 71.23L264.55 71.33L264.45 71.23Q264.43 70.90 264.43 70.53L264.40 70.50L264.43 70.53Q264.36 66.88 268.07 65.58L268.04 65.55L267.99 65.50Q269.24 65.26 270.60 65.26Z"/><path d="M8 87 C153 102,166 122,329 33" stroke="#a3df66" fill="none"/><path d="M6 118 C157 135,168 101,329 13" stroke="#7de7cc" fill="none"/><path d="M5 121 C151 92,163 88,338 108" stroke="#8ebceb" fill="none"/><path d="M16 68 C160 96,176 68,323 131" stroke="#eeee7b" fill="none"/><path d="M20 3 C189 134,162 103,324 23" stroke="#e79292" fill="none"/><path d="M17 43 C165 76,175 37,335 93" stroke="#48c1e9" fill="none"/><path d="M15 21 C152 67,182 9,329 101" stroke="#dd4f96" fill="none"/><path d="M7 25 C180 45,175 71,324 10" stroke="#8484e5" fill="none"/><path d="M19 8 C158 84,160 59,322 61" stroke="#ed6ccd" fill="none"/><path d="M12 20 C158 80,164 57,326 85" stroke="#dc7755" fill="none"/><path d="M14 49 C187 91,152 2,329 128" stroke="#ad73e7" fill="none"/><path d="M16 90 C161 44,178 69,323 19" stroke="#9350d7" fill="none"/><path d="M16 133 C180 78,191 28,323 41" stroke="#db4646" fill="none"/><path d="M11 58 C164 13,191 131,328 108" stroke="#87e7e7" fill="none"/><path d="M3 22 C161 135,192 59,334 109" stroke="#e38ccd" fill="none"/><path fill="#9bea4c" d="M64.33 67.48L64.31 67.46L64.25 67.39Q58.99 67.33 56.02 65.60L56.15 65.73L56.11 65.69Q60.13 63.39 68.04 56.53L68.07 56.55L68.11 56.60Q69.35 56.35 71.46 55.36L71.46 55.36L71.34 55.24Q69.28 65.00 69.10 75.33L68.99 75.23L69.06 75.30Q68.74 85.49 70.47 95.39L70.55 95.47L70.57 95.49Q67.76 94.23 64.30 94.04L64.47 94.21L64.32 94.06Q64.18 87.37 64.18 80.75L64.15 80.72L64.29 80.86Q64.10 73.98 64.16 67.30ZM63.64 71.05L63.54 94.65L63.68 94.78Q65.66 94.79 67.21 95.10L67.18 95.07L67.26 95.15Q67.22 96.10 67.53 98.33L67.56 98.36L67.64 98.43Q72.29 99.31 76.25 102.96L76.14 102.86L76.21 102.93Q72.21 91.38 72.15 79.25L72.18 79.29L72.19 79.29Q71.89 66.99 74.86 55.24L74.91 55.29L74.89 55.27Q74.04 55.96 71.44 57.76L71.59 57.90L71.57 57.88Q71.78 56.55 72.27 54.07L72.33 54.13L72.27 54.07Q70.05 55.26 67.70 55.88L67.75 55.92L67.78 55.96Q61.73 61.85 54.74 65.56L54.70 65.52L54.57 65.39Q57.02 67.34 60.86 67.90L60.80 67.84L60.79 67.83Q59.76 68.72 57.66 70.46L57.68 70.48L57.72 70.51Q60.00 71.00 63.59 71.00L63.68 71.10Z"/><path d="M13 66 C153 96,176 56,338 49" stroke="#ec6363" fill="none"/><path d="M11 128 C154 130,158 20,336 53" stroke="#e467e4" fill="none"/><path d="M15 49 C182 14,176 99,325 40" stroke="#ed68cc" fill="none"/><path d="M15 127 C171 48,181 41,331 118" stroke="#d192e6" fill="none"/><path d="M15 19 C175 72,158 62,335 102" stroke="#5679e0" fill="none"/><path fill="#dd6ddd" d="M200.26 67.40L200.26 67.40L200.17 67.32Q195.01 67.35 192.04 65.62L192.09 65.67L192.00 65.58Q196.20 63.47 204.12 56.60L204.19 56.67L204.10 56.58Q205.26 56.26 207.37 55.27L207.34 55.25L207.34 55.25Q205.22 64.94 205.03 75.27L204.98 75.21L204.98 75.22Q204.90 85.65 206.63 95.55L206.55 95.47L206.51 95.43Q203.76 94.22 200.29 94.04L200.29 94.03L200.47 94.21Q200.13 87.32 200.13 80.70L200.28 80.85L200.17 80.74Q200.14 74.03 200.20 67.35ZM199.56 70.97L199.70 94.81L199.54 94.65Q201.70 94.83 203.25 95.14L203.19 95.08L203.22 95.11Q203.28 96.15 203.58 98.38L203.51 98.31L203.53 98.32Q208.25 99.27 212.20 102.92L212.19 102.90L212.13 102.84Q208.11 91.28 208.05 79.15L208.09 79.19L208.16 79.27Q207.97 67.07 210.94 55.32L210.92 55.30L211.05 55.43Q210.10 56.03 207.50 57.82L207.51 57.83L207.59 57.90Q207.76 56.53 208.25 54.05L208.33 54.13L208.22 54.03Q206.21 55.41 203.86 56.03L203.75 55.92L203.87 56.05Q197.65 61.77 190.66 65.48L190.76 65.57L190.57 65.39Q192.94 67.26 196.78 67.82L196.83 67.87L196.76 67.81Q195.66 68.62 193.56 70.35L193.61 70.40L193.68 70.47Q196.07 71.07 199.66 71.07L199.54 70.96Z"/><path fill="#cc77e8" d="M127.05 95.08L127.00 95.02L127.07 95.09Q120.41 95.43 118.81 91.66L118.81 91.66L118.77 91.62Q119.94 90.01 122.48 87.10L122.52 87.15L122.56 87.18Q123.40 90.49 128.28 90.68L128.30 90.69L128.20 90.60Q133.71 90.72 136.37 88.56L136.33 88.52L136.46 88.65Q138.56 85.86 138.44 81.47L138.54 81.57L138.59 81.62Q138.39 73.44 130.59 73.81L130.56 73.78L130.58 73.80Q125.82 73.86 122.97 75.90L123.00 75.93L122.54 75.71L122.26 75.56L122.30 75.60Q122.72 70.32 122.53 65.87L122.65 65.99L122.60 65.94Q122.49 61.75 121.93 56.36L121.74 56.17L121.90 56.33Q127.69 57.73 133.88 57.55L134.05 57.72L134.05 57.72Q140.10 57.46 145.92 55.42L145.89 55.39L145.08 57.98L145.06 57.96Q144.51 59.15 144.20 60.51L144.18 60.48L144.26 60.56Q139.10 62.15 132.79 62.15L132.89 62.25L132.79 62.15Q130.54 62.25 128.13 62.00L128.13 62.00L128.01 61.89Q127.97 63.09 127.42 70.32L127.50 70.41L127.46 70.36Q128.73 69.54 132.07 69.29L132.01 69.23L132.02 69.24Q138.10 69.63 140.46 72.35L140.48 72.38L140.52 72.42Q142.77 74.91 143.20 81.16L143.08 81.04L143.23 81.19Q143.70 88.04 141.72 91.31L141.72 91.31L141.68 91.27Q138.36 94.32 132.97 94.69L132.90 94.61L133.00 94.71Q131.38 94.83 127.05 95.08ZM136.77 98.67L136.83 98.73L136.84 98.74Q142.38 98.84 145.47 97.04L145.46 97.03L145.48 97.05Q147.16 94.64 147.16 91.24L147.17 91.25L147.08 91.17Q147.04 86.11 145.49 79.43L145.57 79.51L145.60 79.54Q144.91 76.62 142.93 74.33L142.98 74.38L142.95 74.42L142.68 74.02L141.97 73.55L142.11 73.70Q141.62 72.53 140.57 71.42L140.57 71.41L140.49 71.40L140.48 71.38Q138.03 68.69 132.03 68.69L132.00 68.66L131.52 68.61L131.56 68.65Q131.75 67.79 132.06 65.99L132.12 66.06L132.06 66.00Q140.21 66.23 146.77 63.57L146.68 63.48L146.80 63.60Q147.42 61.25 148.96 56.67L148.86 56.57L145.58 58.24L145.57 58.23Q146.05 56.23 146.85 54.38L147.00 54.53L147.01 54.53Q140.71 56.83 134.03 56.96L133.93 56.86L133.98 56.90Q127.43 57.23 121.00 55.43L120.93 55.36L120.89 55.32Q122.10 62.60 122.10 69.77L121.99 69.66L121.96 69.64Q121.93 72.70 121.75 75.79L121.83 75.87L121.89 75.93Q122.26 76.18 123.19 76.68L123.16 76.65L123.24 76.73Q123.74 76.30 124.79 75.74L124.73 75.68L124.72 75.67Q124.77 77.02 124.40 79.49L124.32 79.42L124.42 79.52Q124.97 79.70 125.65 80.07L125.65 80.07L125.64 80.05Q130.18 77.23 133.21 77.23L133.37 77.39L133.25 77.27Q135.51 77.36 137.43 78.42L137.43 78.42L137.40 78.39Q137.97 80.07 138.03 81.62L138.07 81.66L138.02 81.61Q138.05 85.72 136.38 87.52L136.49 87.62L136.45 87.59Q134.18 89.52 130.53 89.89L130.60 89.97L130.59 89.95Q128.94 89.97 127.82 89.85L127.85 89.88L127.91 89.94Q126.48 89.67 125.24 89.12L125.22 89.10L125.18 88.75L125.13 89.07L125.11 89.05Q123.84 88.28 122.98 86.11L122.84 85.97L122.93 86.07Q120.75 88.34 118.03 91.80L117.90 91.68L118.04 91.81Q118.40 92.73 119.76 94.28L119.83 94.35L119.86 94.38Q121.57 97.32 126.15 98.13L126.09 98.07L126.07 98.05Q128.10 98.53 136.82 98.72Z"/><path d="M4 95 C153 14,173 34,325 131" stroke="#ddc273" fill="none"/><path d="M10 26 C187 57,179 45,338 89" stroke="#3abce7" fill="none"/></svg>