<svg xmlns="http://www.w3.org/2000/svg" width="342" height="140" viewBox="0,0,342,140"><path d="M18 57 C161 20,182 2,323 99" stroke="#d34a8e" fill="none"/><path d="M17 109 C164 97,155 7,338 137" stroke="#53de99" fill="none"/><path d="M9 56 C163 102,181 79,323 116" stroke="#eaea70" fill="none"/><path d="M20 17 C169 108,171 137,339 85" stroke="#31b9e6" fill="none"/><path d="M9 121 C170 81,170 110,321 60" stroke="#6841dc" fill="none"/><path d="M15 46 C171 115,181 75,325 27" stroke="#6de86d" fill="none"/><path d="M12 34 C189 102,173 60,339 110" stroke="#e86de8" fill="none"/><path d="M17 69 C156 51,178 54,321 28" stroke="#c274dc" fill="none"/><path d="M17 96 C174 77,158 50,337 128" stroke="#76df76" fill="none"/><path fill="#a8e669" d="M53.30 67.69L53.19 67.58L53.20 67.59Q48.48 67.67 45.74 66.07L45.66 65.99L45.60 65.93Q49.45 63.96 56.76 57.62L56.83 57.68L56.78 57.63Q57.79 57.28 59.73 56.36L59.75 56.38L59.82 56.45Q57.83 65.37 57.66 74.91L57.59 74.83L57.60 74.84Q57.47 84.42 59.07 93.56L58.96 93.45L59.09 93.58Q56.62 92.54 53.43 92.37L53.28 92.23L53.23 92.17Q53.22 86.11 53.22 80.00L53.13 79.91L53.16 79.94Q53.09 73.70 53.14 67.53ZM52.54 70.87L52.65 92.86L52.72 92.92Q54.48 92.86 55.91 93.14L55.95 93.18L55.83 93.06Q56.02 94.16 56.30 96.22L56.35 96.27L56.29 96.20Q60.60 97.03 64.25 100.40L64.19 100.33L64.29 100.43Q60.62 89.80 60.56 78.60L60.50 78.54L60.43 78.47Q60.38 67.35 63.13 56.50L63.01 56.38L63.08 56.45Q62.39 57.19 59.99 58.85L59.99 58.85L59.85 58.70Q60.19 57.62 60.65 55.33L60.68 55.37L60.67 55.36Q58.65 56.48 56.48 57.05L56.46 57.03L56.55 57.12Q50.83 62.42 44.37 65.84L44.29 65.76L44.34 65.81Q46.38 67.39 49.92 67.90L50.05 68.04L50.10 68.08Q49.02 68.78 47.08 70.38L47.11 70.40L47.07 70.37Q49.41 71.05 52.72 71.05L52.72 71.05Z"/><path fill="#bade4e" d="M234.17 89.35L234.14 89.33L234.21 89.39Q234.73 90.94 235.53 93.97L235.47 93.91L235.33 93.77Q229.09 91.87 222.18 92.27L222.25 92.34L222.22 92.31Q215.33 92.67 209.33 95.64L209.26 95.56L209.41 95.71Q209.63 94.56 209.68 94.67L209.75 94.74L209.79 94.78Q215.32 88.78 221.20 82.15L221.23 82.18L221.20 82.15Q227.83 74.68 229.60 67.65L229.66 67.72L229.63 67.68Q230.28 65.02 228.37 63.25L228.30 63.18L228.48 63.36Q226.51 61.54 223.83 61.76L223.72 61.66L223.72 61.65Q223.22 61.61 222.71 61.61L222.69 61.60L222.69 61.59Q220.38 61.57 218.49 62.94L218.59 63.03L218.67 63.12Q216.73 65.17 217.07 69.17L216.90 69.00L216.98 69.08Q214.30 68.57 212.48 67.89L212.48 67.89L212.38 67.79Q212.22 65.80 212.11 63.63L212.03 63.56L211.98 63.51Q211.89 61.08 212.81 59.37L212.97 59.53L212.79 59.35Q215.59 57.41 220.62 57.41L220.62 57.42L223.30 57.46L223.24 57.40Q226.63 57.43 228.06 57.60L228.12 57.66L227.98 57.52Q234.63 58.29 235.03 61.94L234.93 61.84L234.88 61.79Q235.00 62.66 234.89 63.86L234.99 63.96L234.91 63.88Q235.01 65.01 234.78 66.04L234.66 65.92L234.63 65.88Q232.20 78.07 220.83 88.35L220.78 88.29L220.82 88.34Q223.03 88.21 225.09 88.21L225.11 88.23L225.04 88.16Q229.95 88.22 234.23 89.42ZM233.24 58.05L233.29 58.09L233.28 58.09Q230.97 57.20 228.40 57.09L228.30 56.99L223.26 56.80L223.18 56.72Q216.61 56.43 213.29 58.08L213.16 57.95L213.29 58.08Q211.55 59.99 211.55 63.08L211.54 63.06L211.60 63.13Q211.73 64.28 212.18 68.51L212.07 68.39L212.16 68.48Q212.89 68.76 214.66 69.22L214.71 69.26L214.74 70.84L214.74 70.84Q214.67 71.51 214.78 72.31L214.85 72.37L214.80 72.33Q216.71 72.52 220.43 72.87L220.38 72.82L220.36 72.80Q220.25 72.18 220.25 71.66L220.32 71.73L220.32 71.74Q220.23 68.90 222.06 66.87L222.07 66.89L222.04 66.86Q223.97 64.93 226.66 65.11L226.69 65.14L226.56 65.01Q227.70 65.06 228.84 65.29L228.93 65.38L228.86 65.31Q229.16 66.01 229.27 66.64L229.28 66.65L229.27 66.63Q229.24 67.18 229.13 67.69L229.07 67.63L229.22 67.79Q227.19 74.78 220.57 82.03L220.70 82.16L220.57 82.03Q217.47 85.50 209.31 94.58L209.25 94.53L209.19 94.47Q208.90 95.72 208.38 96.57L208.46 96.65L208.40 96.59Q210.93 95.40 213.21 94.60L213.07 94.46L213.15 94.55Q212.03 95.36 210.60 97.59L210.70 97.69L210.70 97.69Q210.53 98.21 210.36 98.72L210.29 98.65L210.21 98.57Q217.66 95.63 225.89 95.92L225.78 95.81L225.75 95.78Q234.26 96.00 241.11 99.55L241.12 99.55L239.78 96.51L239.68 96.40Q238.80 94.49 238.40 93.29L238.40 93.30L238.40 93.30Q237.21 92.56 235.38 91.94L235.42 91.98L235.52 92.07Q235.23 90.93 234.66 88.87L234.68 88.89L234.72 88.93Q231.39 88.06 227.96 87.77L227.99 87.80L227.83 87.64Q234.92 80.86 237.21 68.46L237.22 68.48L237.56 64.19L237.42 64.06Q237.34 61.40 235.51 60.37L235.64 60.50L235.51 60.42L235.55 60.47Q235.52 60.38 235.40 60.38L235.29 60.26L235.38 60.35Q235.01 59.07 233.35 58.15Z"/><path d="M12 70 C155 117,180 26,329 134" stroke="#4fdd96" fill="none"/><path d="M9 83 C180 81,164 85,339 7" stroke="#a3e68d" fill="none"/><path d="M9 90 C170 18,160 36,333 17" stroke="#8888f1" fill="none"/><path d="M14 71 C163 130,159 87,323 133" stroke="#dd4a4a" fill="none"/><path d="M6 61 C175 126,172 105,335 137" stroke="#eaea7f" fill="none"/><path d="M9 4 C183 25,176 107,340 98" stroke="#ed8bd5" fill="none"/><path fill="#d34ad3" d="M274.08 93.07L274.05 93.03L274.10 93.09Q271.94 93.15 269.59 92.52L269.58 92.51L269.56 92.49Q267.69 91.07 267.46 88.62L267.59 88.75L267.55 88.71Q267.54 88.47 267.83 84.53L267.74 84.45L267.68 84.39Q269.22 84.10 272.25 83.52L272.26 83.54L272.09 84.79L271.99 84.70Q271.59 87.33 273.71 88.18L273.82 88.29L273.84 88.31Q275.03 88.82 278.17 88.82L278.06 88.71L278.14 88.79Q280.45 88.47 280.74 88.36L280.66 88.29L280.79 88.41Q282.05 88.07 283.13 87.33L283.21 87.41L283.17 87.37Q285.37 86.03 285.09 82.89L285.14 82.94L285.00 82.80Q284.75 79.18 282.15 76.84L282.14 76.83L282.19 76.88Q279.50 74.45 275.79 74.45L275.76 74.42L275.87 74.19L275.92 74.24Q276.35 74.04 277.67 73.93L277.78 74.04L277.78 74.04Q280.54 73.78 282.60 71.92L282.65 71.97L282.58 71.90Q284.64 70.05 284.87 67.25L284.89 67.27L284.98 67.37Q285.11 66.87 285.11 66.35L284.99 66.23L285.06 66.30Q285.08 64.04 283.02 62.67L282.91 62.55L282.94 62.58Q281.12 61.39 278.72 61.56L278.67 61.51L278.67 61.51Q276.90 61.46 275.08 62.08L274.96 61.97L274.96 61.97Q272.90 62.88 272.44 64.59L272.46 64.61L272.28 64.43Q272.18 65.76 272.30 66.90L272.26 66.87L272.24 66.84Q270.71 66.51 267.63 65.43L267.54 65.34L267.62 65.42Q267.26 62.89 267.31 61.63L267.27 61.59L267.24 61.56Q267.42 59.29 269.02 58.26L269.12 58.35L269.08 58.32Q271.19 57.40 273.58 57.40L273.51 57.32L273.49 57.30Q278.28 57.29 283.02 57.69L283.03 57.71L283.03 57.71Q290.55 58.26 290.10 63.91L290.23 64.05L290.10 63.92Q290.16 66.31 289.41 68.66L289.29 68.53L289.41 68.66Q287.96 73.20 284.42 74.57L284.42 74.57L284.43 74.58Q288.32 75.33 289.23 80.35L289.32 80.44L289.37 80.49Q289.61 82.10 289.72 85.13L289.72 85.12L289.82 85.22Q290.01 91.87 283.10 92.55L283.11 92.56L283.03 92.48Q282.06 92.71 274.12 93.11ZM281.78 96.32L281.89 96.42L281.88 96.41Q282.72 96.39 287.00 96.51L287.12 96.63L287.11 96.62Q289.64 96.64 292.10 95.67L292.06 95.63L292.12 95.69Q293.95 94.32 293.66 91.69L293.68 91.71L293.59 91.62Q293.40 89.60 292.94 86.97L293.03 87.06L293.03 87.06Q291.84 80.22 288.92 77.76L288.89 77.72L288.71 77.26L288.71 77.21L288.56 77.06Q291.29 74.99 292.44 68.42L292.39 68.38L292.49 68.48Q292.40 67.65 292.58 66.22L292.63 66.28L292.61 66.26Q292.79 65.18 292.68 64.15L292.69 64.16L292.68 64.16Q292.48 61.67 290.54 60.64L290.57 60.68L290.31 60.53L290.28 60.50Q289.81 59.00 288.09 58.20L288.28 58.39L288.27 58.38Q285.85 57.21 278.14 56.76L278.24 56.85L278.13 56.74Q275.61 56.62 273.21 56.62L273.24 56.65L273.29 56.70Q270.79 56.60 268.50 57.57L268.62 57.69L268.51 57.57Q266.81 58.84 266.81 61.47L266.70 61.36L266.73 61.40Q266.73 60.76 267.13 65.79L267.19 65.85L267.10 65.76Q267.68 65.99 270.13 66.91L270.17 66.95L270.14 66.92Q270.08 67.65 270.02 68.40L270.05 68.42L270.09 68.46Q270.09 69.21 270.15 70.01L270.00 69.86L270.09 69.95Q272.84 70.58 275.87 70.76L275.79 70.68L275.83 70.72Q275.60 67.58 277.26 66.32L277.32 66.39L277.43 66.49Q278.50 65.34 281.53 65.00L281.65 65.12L281.71 65.18Q283.29 65.04 284.15 65.33L284.14 65.32L284.19 65.37Q284.29 65.59 284.35 65.76L284.27 65.69L284.29 65.99L284.50 66.89L284.39 66.78Q284.52 67.19 284.47 67.42L284.37 67.32L284.34 67.30Q284.35 69.99 282.07 71.76L281.97 71.66L282.03 71.72Q280.60 73.03 277.57 73.32L277.69 73.44L277.65 73.40Q276.57 73.63 275.25 73.63L275.21 73.58L275.14 73.51Q275.33 74.16 275.56 75.19L275.51 75.14L275.46 75.09Q278.19 75.19 280.36 76.27L280.25 76.17L280.23 76.31L277.71 76.42L277.73 76.44Q277.85 77.02 278.02 77.93L278.00 77.92L277.99 77.90Q281.14 77.74 283.71 79.74L283.72 79.75L283.81 79.84Q284.17 80.43 284.63 82.89L284.51 82.77L284.55 82.81Q284.90 87.27 280.50 87.90L280.40 87.79L280.42 87.82Q277.42 88.35 276.56 88.30L276.53 88.27L276.45 88.18Q275.78 88.03 274.98 87.91L275.02 87.95L274.94 87.19L275.21 86.60L275.24 86.01L275.31 85.56L275.25 85.50Q273.84 85.64 272.64 85.92L272.73 86.01L272.57 85.84Q272.59 85.58 272.59 85.30L272.50 85.21L272.65 85.36Q272.66 85.03 272.66 84.69L272.62 84.64L272.56 84.58Q272.72 84.06 272.95 82.97L273.04 83.06L272.91 82.93Q270.20 83.36 267.40 83.87L267.37 83.85L267.32 83.80Q267.44 84.66 267.27 86.34L267.10 86.17L267.10 86.18Q267.07 87.99 267.07 88.91L266.98 88.82L267.09 88.94Q267.13 91.94 269.19 93.09L269.18 93.08L269.17 93.07Q271.44 96.54 278.53 96.26L278.51 96.24L278.58 96.31Q279.53 96.12 281.81 96.34Z"/><path d="M11 60 C167 75,169 56,332 117" stroke="#964ae2" fill="none"/><path d="M11 100 C178 60,188 28,321 109" stroke="#df964d" fill="none"/><path d="M6 28 C181 27,159 113,327 83" stroke="#42d58c" fill="none"/><path d="M16 34 C183 107,189 16,332 76" stroke="#6161db" fill="none"/><path d="M7 35 C154 104,160 137,325 87" stroke="#f09779" fill="none"/><path fill="#ea93a9" d="M159.83 82.02L159.67 81.86L159.71 81.89Q164.44 81.42 169.23 81.60L169.23 81.59L169.11 81.47Q169.08 77.67 169.08 74.07L169.08 74.08L169.02 74.02Q169.11 70.40 169.40 66.57L169.31 66.48L169.39 66.57Q167.63 69.20 159.81 81.99ZM174.66 93.02L174.52 92.88L174.66 93.02Q172.14 92.56 169.46 92.44L169.48 92.47L169.32 92.31Q169.08 88.81 168.91 85.10L168.85 85.03L168.88 85.07Q160.94 84.83 153.86 86.95L153.90 86.99L153.88 86.97Q154.04 86.21 154.32 84.73L154.41 84.82L154.36 84.76Q156.94 79.92 162.30 70.50L162.35 70.55L162.36 70.55Q166.74 63.29 171.88 57.46L171.86 57.44L171.88 57.46Q173.16 57.15 175.68 56.75L175.72 56.79L175.62 56.69Q172.92 66.49 172.92 77.06L172.83 76.97L172.78 76.92Q172.89 79.26 173.00 81.48L172.92 81.40L174.89 81.60L174.79 81.50Q175.70 81.55 176.61 81.72L176.72 81.83L176.75 81.86Q176.80 83.23 177.20 86.14L177.19 86.12L177.26 86.20Q175.52 85.88 173.29 85.60L173.21 85.51L173.31 85.61Q173.62 88.61 174.65 93.01ZM177.19 81.33L177.11 81.25L177.02 81.16Q176.80 81.11 176.52 81.11L176.58 81.17L175.91 81.08L176.01 81.18Q175.71 78.82 175.71 76.71L175.81 76.81L175.70 76.70Q175.72 67.13 178.81 58.11L178.92 58.22L178.89 58.19Q177.79 58.63 175.62 59.20L175.49 59.08L175.64 59.22Q175.90 58.00 176.58 55.88L176.68 55.98L176.63 55.93Q174.70 56.51 171.61 56.85L171.60 56.84L171.65 56.89Q165.72 63.35 157.89 77.39L157.79 77.29L160.99 71.87L161.01 71.89Q160.42 73.47 160.02 74.33L159.94 74.25L153.37 87.88L153.38 87.90Q154.24 87.56 155.96 86.99L155.97 87.01L155.76 87.37L155.85 87.45Q155.65 88.46 155.19 90.34L155.14 90.29L155.19 90.33Q161.38 88.36 168.63 88.65L168.47 88.48L168.51 88.53Q168.63 90.01 168.91 92.98L168.84 92.91L168.92 92.99Q170.43 92.90 172.03 93.07L172.11 93.15L172.09 93.13Q172.28 94.13 172.68 96.18L172.75 96.25L172.75 96.24Q175.48 96.46 179.99 97.83L180.04 97.89L180.07 97.92Q178.59 94.72 177.22 89.81L177.14 89.73L179.48 90.58L179.43 90.54Q180.46 90.89 181.49 91.40L181.49 91.40L181.36 91.27Q180.18 87.52 179.95 85.01L179.96 85.01L180.00 85.05Q179.10 84.78 177.39 84.44L177.40 84.46L177.38 84.43Q177.02 82.48 177.02 81.16ZM165.18 81.08L165.06 80.96L165.19 81.09Q166.28 79.10 168.62 75.28L168.53 75.19L168.52 75.17Q168.59 76.67 168.54 78.10L168.48 78.04L168.59 78.16Q168.45 79.50 168.51 80.93L168.55 80.97L168.57 80.99Q167.81 81.03 166.96 81.03L166.96 81.03L166.92 81.00Q166.03 81.02 165.11 81.02Z"/><path d="M1 8 C177 71,174 110,329 47" stroke="#64dda0" fill="none"/><path fill="#90cee3" d="M104.97 93.05L105.02 93.10L105.05 93.12Q98.90 93.42 97.41 89.94L97.36 89.89L97.40 89.92Q98.54 88.50 100.88 85.81L100.85 85.79L100.79 85.72Q101.53 88.75 106.04 88.92L106.21 89.09L106.11 88.99Q111.18 89.09 113.63 87.09L113.76 87.21L113.67 87.12Q115.87 84.82 115.76 80.76L115.76 80.77L115.64 80.65Q115.44 73.07 108.24 73.42L108.19 73.37L108.22 73.39Q104.09 73.72 101.46 75.60L101.49 75.63L100.89 75.26L100.68 75.16L100.62 75.11Q101.03 70.26 100.86 66.15L101.03 66.32L100.98 66.27Q100.86 62.38 100.35 57.41L100.19 57.25L100.19 57.26Q105.69 58.70 111.40 58.53L111.39 58.52L111.48 58.61Q117.08 58.38 122.44 56.50L122.46 56.51L121.74 58.94L121.72 58.91Q121.28 60.07 121.00 61.33L120.99 61.32L120.98 61.32Q116.34 62.90 110.51 62.90L110.33 62.71L110.51 62.89Q108.30 62.85 106.07 62.62L105.99 62.54L106.09 62.64Q105.89 63.59 105.38 70.27L105.33 70.22L105.49 70.38Q106.61 69.55 109.69 69.33L109.83 69.46L109.65 69.29Q115.32 69.70 117.49 72.22L117.46 72.18L117.56 72.29Q119.62 74.57 120.02 80.34L119.92 80.24L119.98 80.30Q120.31 86.51 118.48 89.53L118.53 89.59L118.60 89.66Q115.52 92.46 110.55 92.80L110.44 92.69L110.58 92.83Q108.99 92.84 105.00 93.07ZM114.17 96.59L114.00 96.42L114.02 96.44Q119.24 96.64 122.10 94.98L122.15 95.04L122.10 94.98Q123.61 92.73 123.61 89.59L123.64 89.62L123.48 89.46Q123.60 84.95 122.17 78.78L122.19 78.80L122.21 78.82Q121.54 76.09 119.71 73.98L119.66 73.93L119.88 74.21L119.36 73.57L118.88 73.32L118.93 73.37Q118.44 72.25 117.47 71.22L117.48 71.24L117.44 71.25L117.58 71.39Q115.16 68.75 109.63 68.75L109.66 68.79L109.21 68.73L109.30 68.83Q109.36 67.92 109.65 66.26L109.70 66.31L109.76 66.37Q117.15 66.45 123.20 63.99L123.30 64.09L123.27 64.07Q123.80 61.85 125.23 57.63L125.23 57.63L122.12 59.09L122.15 59.11Q122.60 57.28 123.34 55.57L123.41 55.64L123.36 55.59Q117.72 57.88 111.55 57.99L111.56 58.01L111.60 58.04Q105.41 58.19 99.47 56.54L99.50 56.56L99.32 56.39Q100.44 63.10 100.44 69.72L100.41 69.70L100.46 69.74Q100.36 72.50 100.19 75.36L100.16 75.33L100.18 75.35Q100.60 75.65 101.45 76.11L101.57 76.23L101.49 76.15Q102.12 75.92 103.09 75.40L102.96 75.27L102.97 75.28Q102.95 76.46 102.61 78.75L102.69 78.83L102.55 78.69Q103.22 79.01 103.85 79.36L103.82 79.33L103.88 79.40Q108.05 76.77 110.85 76.77L110.79 76.71L110.83 76.75Q112.73 76.65 114.50 77.62L114.64 77.76L114.51 77.63Q115.09 79.24 115.15 80.67L115.17 80.69L115.07 80.59Q115.22 84.50 113.67 86.16L113.69 86.17L113.81 86.29Q111.59 87.96 108.22 88.30L108.28 88.36L108.39 88.47Q106.94 88.56 105.91 88.45L105.76 88.30L105.78 88.32Q104.52 88.14 103.38 87.63L103.43 87.68L103.34 87.30L103.22 87.53L103.19 87.49Q102.11 86.87 101.31 84.87L101.30 84.86L101.25 84.81Q99.17 86.84 96.65 90.04L96.79 90.17L96.74 90.12Q97.25 91.15 98.51 92.58L98.47 92.54L98.45 92.52Q99.94 95.16 104.17 95.90L104.21 95.94L104.15 95.88Q105.96 96.26 114.01 96.43Z"/><path d="M14 107 C189 2,167 4,340 99" stroke="#4e73e3" fill="none"/><path d="M9 45 C172 69,180 136,332 93" stroke="#9ee952" fill="none"/><path d="M13 30 C180 29,176 81,337 77" stroke="#ed6285" fill="none"/><path d="M7 115 C191 117,188 104,326 133" stroke="#91e73a" fill="none"/><path d="M5 2 C151 81,190 78,327 3" stroke="#e882b5" fill="none"/><path d="M11 78 C153 38,188 116,341 3" stroke="#e990bc" fill="none"/><path d="M18 17 C179 117,156 15,338 114" stroke="#7795ed" fill="none"/><path d="M18 12 C166 86,173 64,326 13" stroke="#e36d6d" fill="none"/><path d="M3 73 C179 95,168 26,339 21" stroke="#ef8abc" fill="none"/><path d="M20 114 C173 26,159 117,324 74" stroke="#8ee372" fill="none"/><path d="M3 71 C165 42,150 68,327 64" stroke="#5998d8" fill="none"/><path d="M8 88 C168 16,158 29,336 67" stroke="#e7e744" fill="none"/><path d="M8 88 C161 117,159 77,339 121" stroke="#cb78e7" fill="none"/><path d="M12 63 C170 29,158 73,327 131" stroke="#4343e9" fill="none"/><path d="M5 138 C189 6,161 135,329 96" stroke="#cf90e4" fill="none"/><path d="M11 61 C160 37,168 112,336 114" stroke="#96e943" fill="none"/><path d="M17 8 C159 117,165 22,328 112" stroke="#bf8cf1" fill="none"/><path d="M2 106 C153 128,151 10,333 88" stroke="#e8a35d" fill="none"/><path d="M5 54 C173 121,175 138,326 45" stroke="#ed82b7" fill="none"/></svg>