<svg xmlns="http://www.w3.org/2000/svg" width="342" height="140" viewBox="0,0,342,140"><path d="M13 70 C172 39,185 31,324 83" stroke="#f18cf1" fill="none"/><path fill="#72dea8" d="M52.78 67.32L52.63 67.17L52.68 67.22Q47.22 67.24 44.08 65.41L44.18 65.50L44.18 65.51Q48.45 63.12 56.80 55.88L56.67 55.74L56.71 55.78Q57.92 55.43 60.14 54.39L60.30 54.54L60.14 54.38Q57.90 64.61 57.71 75.51L57.74 75.54L57.80 75.60Q57.64 86.54 59.46 96.98L59.45 96.96L59.28 96.79Q56.60 95.75 52.95 95.55L52.94 95.55L52.82 95.43Q52.70 88.38 52.70 81.40L52.71 81.41L52.57 81.27Q52.56 74.21 52.62 67.16ZM52.08 71.12L52.15 96.19L52.03 96.07Q54.10 96.05 55.73 96.38L55.82 96.47L55.70 96.35Q55.91 97.60 56.23 99.95L56.32 100.03L56.32 100.04Q61.11 100.84 65.29 104.69L65.25 104.65L65.34 104.75Q60.98 92.43 60.92 79.64L60.92 79.64L61.02 79.73Q60.86 66.92 63.99 54.52L64.05 54.58L63.92 54.45Q63.06 55.21 60.31 57.10L60.41 57.20L60.40 57.19Q60.69 55.85 61.21 53.24L61.27 53.29L61.16 53.18Q58.98 54.60 56.50 55.25L56.40 55.15L56.43 55.18Q49.94 61.28 42.56 65.20L42.68 65.31L42.67 65.30Q44.92 67.04 48.97 67.62L49.12 67.77L49.13 67.78Q47.91 68.59 45.69 70.41L45.73 70.45L45.75 70.47Q48.35 71.18 52.14 71.18L52.06 71.10Z"/><path fill="#93ef75" d="M103.78 96.34L103.82 96.38L103.87 96.43Q96.89 96.82 95.19 92.84L95.04 92.69L95.16 92.81Q96.48 91.19 99.16 88.13L99.15 88.12L99.10 88.07Q99.86 91.44 105.02 91.64L105.03 91.65L105.03 91.65Q111.00 91.95 113.81 89.66L113.77 89.63L113.63 89.48Q116.08 86.78 115.95 82.15L116.01 82.21L115.95 82.15Q115.81 73.59 107.59 73.98L107.44 73.83L107.51 73.90Q102.61 74.09 99.61 76.25L99.66 76.30L99.08 75.98L98.79 75.81L98.70 75.73Q99.31 70.33 99.11 65.63L99.26 65.78L99.09 65.61Q98.91 61.13 98.33 55.45L98.33 55.45L98.43 55.56Q104.72 57.21 111.24 57.01L111.23 56.99L111.16 56.93Q117.61 56.72 123.74 54.57L123.75 54.57L122.87 57.28L122.78 57.19Q122.32 58.56 121.99 59.99L122.05 60.06L121.97 59.97Q116.71 61.82 110.05 61.82L109.92 61.70L110.06 61.83Q107.51 61.76 104.97 61.50L105.06 61.59L104.89 61.42Q104.86 62.70 104.27 70.33L104.34 70.40L104.29 70.35Q105.77 69.62 109.30 69.36L109.23 69.30L109.28 69.34Q115.70 69.76 118.18 72.63L118.10 72.55L118.14 72.59Q120.51 75.22 120.96 81.81L120.81 81.65L120.82 81.66Q121.44 89.00 119.35 92.46L119.28 92.39L119.33 92.44Q115.75 95.58 110.07 95.98L110.10 96.00L110.08 95.99Q108.31 96.04 103.74 96.30ZM114.23 100.33L114.16 100.26L114.20 100.30Q120.04 100.39 123.30 98.50L123.31 98.51L123.31 98.51Q125.02 95.92 125.02 92.33L125.08 92.38L125.07 92.38Q124.97 86.98 123.33 79.94L123.43 80.03L123.34 79.94Q122.63 76.88 120.54 74.47L120.61 74.54L120.68 74.67L120.29 74.15L119.76 73.88L119.67 73.79Q119.12 72.52 118.01 71.35L118.11 71.45L118.08 71.49L118.06 71.47Q115.42 68.57 109.09 68.57L109.10 68.57L108.77 68.70L108.78 68.71Q108.88 67.70 109.21 65.81L109.07 65.67L109.18 65.78Q117.77 66.02 124.69 63.22L124.59 63.11L124.70 63.22Q125.35 60.74 126.98 55.91L126.89 55.82L123.39 57.54L123.29 57.44Q123.96 55.50 124.81 53.55L124.89 53.62L124.86 53.59Q118.26 56.06 111.21 56.19L111.19 56.17L111.18 56.17Q104.19 56.42 97.40 54.53L97.48 54.60L97.39 54.51Q98.56 62.08 98.56 69.65L98.58 69.67L98.67 69.76Q98.50 72.85 98.31 76.12L98.35 76.16L98.29 76.10Q98.80 76.49 99.78 77.01L99.90 77.12L99.90 77.12Q100.31 76.56 101.42 75.97L101.46 76.00L101.54 76.09Q101.39 77.31 101.00 79.92L101.01 79.93L100.98 79.90Q101.87 80.40 102.59 80.80L102.59 80.79L102.56 80.77Q107.22 77.66 110.42 77.66L110.38 77.62L110.48 77.72Q112.68 77.64 114.70 78.75L114.74 78.78L114.67 78.72Q115.28 80.50 115.35 82.13L115.38 82.16L115.48 82.26Q115.60 86.69 113.84 88.58L113.78 88.52L113.87 88.61Q111.40 90.58 107.55 90.97L107.64 91.06L107.62 91.04Q105.99 91.18 104.81 91.05L104.84 91.07L104.85 91.08Q103.36 90.83 102.06 90.25L101.96 90.15L102.04 89.91L101.76 90.01L101.71 89.96Q100.39 89.17 99.48 86.88L99.53 86.93L99.45 86.86Q97.17 89.27 94.30 92.93L94.37 93.00L94.41 93.04Q94.79 94.01 96.23 95.64L96.36 95.77L96.40 95.81Q98.06 98.78 102.89 99.63L102.99 99.73L103.00 99.73Q104.90 100.01 114.10 100.20Z"/><path fill="#9ee754" d="M271.59 83.61L271.55 83.57L271.58 83.60Q276.82 82.90 282.30 83.10L282.34 83.13L282.41 83.20Q282.30 78.79 282.30 74.68L282.27 74.65L282.23 74.60Q282.28 70.42 282.61 66.04L282.62 66.05L282.60 66.04Q280.47 68.93 271.53 83.55ZM288.54 96.19L288.62 96.26L288.68 96.33Q285.76 95.76 282.69 95.63L282.65 95.59L282.62 95.55Q282.25 91.46 282.05 87.22L282.13 87.29L282.09 87.26Q272.97 86.94 264.87 89.36L264.98 89.47L264.81 89.30Q265.02 88.46 265.35 86.77L265.35 86.77L265.43 86.85Q268.58 81.52 274.72 70.75L274.70 70.73L274.56 70.59Q279.65 62.37 285.52 55.71L285.45 55.64L285.46 55.65Q286.92 55.28 289.79 54.82L289.77 54.80L289.84 54.87Q286.49 65.81 286.49 77.88L286.65 78.05L286.65 78.05Q286.57 80.51 286.70 83.06L286.75 83.11L288.95 83.28L288.94 83.28Q289.88 83.24 290.93 83.43L291.08 83.58L291.02 83.53Q291.13 85.14 291.58 88.46L291.57 88.45L291.58 88.46Q289.57 88.08 287.03 87.76L287.11 87.84L287.07 87.80Q287.47 91.27 288.65 96.30ZM291.55 82.95L291.42 82.82L291.40 82.79Q291.06 82.65 290.73 82.65L290.82 82.74L290.22 82.79L290.16 82.73Q289.93 80.16 289.93 77.74L289.89 77.70L289.87 77.68Q289.96 66.81 293.49 56.50L293.48 56.49L293.52 56.53Q292.14 56.91 289.66 57.56L289.60 57.50L289.60 57.50Q290.11 56.32 290.90 53.91L290.97 53.97L290.94 53.95Q288.56 54.45 285.04 54.84L285.07 54.87L285.19 54.98Q278.48 62.44 269.54 78.49L269.41 78.37L273.03 72.13L272.96 72.06Q272.37 73.95 271.91 74.92L271.88 74.89L264.30 90.42L264.31 90.43Q265.33 90.08 267.29 89.42L267.41 89.54L267.01 89.80L266.98 89.77Q266.93 91.09 266.40 93.24L266.35 93.19L266.41 93.25Q273.45 90.95 281.74 91.28L281.68 91.22L281.66 91.20Q281.68 92.79 282.01 96.18L282.09 96.27L281.98 96.16Q283.92 96.27 285.75 96.47L285.77 96.49L285.78 96.50Q286.00 97.63 286.46 99.98L286.51 100.03L286.46 99.98Q289.64 100.29 294.80 101.86L294.90 101.96L294.91 101.98Q293.24 98.34 291.67 92.73L291.54 92.60L294.09 93.45L294.00 93.36Q295.21 93.79 296.39 94.38L296.33 94.32L296.44 94.43Q294.96 90.01 294.70 87.14L294.74 87.18L294.85 87.29Q293.74 86.90 291.78 86.50L291.92 86.65L291.78 86.51Q291.55 84.44 291.55 82.94ZM277.77 82.62L277.66 82.50L277.85 82.69Q279.04 80.36 281.72 75.98L281.73 76.00L281.78 76.05Q281.76 77.66 281.69 79.29L281.75 79.34L281.73 79.33Q281.70 80.99 281.76 82.62L281.77 82.63L281.82 82.68Q280.71 82.48 279.73 82.48L279.83 82.58L279.79 82.54Q278.86 82.66 277.82 82.66Z"/><path d="M14 20 C175 14,190 58,331 35" stroke="#5a5adc" fill="none"/><path d="M20 14 C181 50,184 51,328 71" stroke="#d2ed82" fill="none"/><path d="M11 85 C168 49,178 2,330 104" stroke="#63dd63" fill="none"/><path d="M4 110 C190 101,166 14,334 33" stroke="#49e396" fill="none"/><path d="M6 53 C176 111,155 75,334 102" stroke="#e164e1" fill="none"/><path d="M18 28 C153 119,166 96,331 83" stroke="#4b70e1" fill="none"/><path d="M16 129 C187 89,155 99,340 114" stroke="#53e353" fill="none"/><path d="M8 82 C190 19,180 6,338 49" stroke="#e1af7e" fill="none"/><path d="M15 9 C179 48,181 65,336 33" stroke="#6767de" fill="none"/><path d="M9 37 C191 80,190 91,327 129" stroke="#e65579" fill="none"/><path d="M2 20 C174 27,169 56,339 60" stroke="#e5b932" fill="none"/><path d="M3 119 C178 49,184 128,324 73" stroke="#73dc50" fill="none"/><path d="M21 110 C157 35,190 54,325 134" stroke="#5d5de8" fill="none"/><path d="M17 60 C187 131,155 87,337 133" stroke="#b57dec" fill="none"/><path d="M7 35 C165 111,170 101,338 39" stroke="#e5bc42" fill="none"/><path d="M5 118 C173 30,181 117,331 55" stroke="#3ae7e7" fill="none"/><path d="M11 84 C184 17,157 119,330 114" stroke="#579bdf" fill="none"/><path d="M9 4 C150 16,161 124,341 123" stroke="#e99b4d" fill="none"/><path fill="#ddbd5f" d="M158.37 83.72L158.29 83.65L158.35 83.70Q163.58 83.00 169.07 83.19L169.02 83.15L169.06 83.18Q168.98 78.81 168.98 74.69L169.04 74.75L169.08 74.79Q168.98 70.45 169.31 66.07L169.37 66.14L169.32 66.09Q167.27 69.06 158.33 83.68ZM175.34 96.33L175.33 96.31L175.30 96.28Q172.37 95.70 169.30 95.57L169.28 95.55L169.34 95.61Q169.07 91.61 168.87 87.37L168.84 87.34L168.79 87.29Q159.58 86.89 151.49 89.31L151.54 89.36L151.52 89.34Q151.84 88.62 152.17 86.92L152.09 86.84L152.01 86.76Q155.21 81.48 161.35 70.71L161.21 70.58L161.26 70.62Q166.20 62.26 172.08 55.60L172.04 55.56L172.04 55.56Q173.69 55.39 176.56 54.93L176.48 54.84L176.51 54.87Q173.22 65.88 173.22 77.96L173.15 77.88L173.19 77.92Q173.31 80.58 173.44 83.13L173.34 83.03L175.61 83.28L175.64 83.31Q176.62 83.31 177.66 83.51L177.58 83.42L177.72 83.56Q177.95 85.29 178.41 88.62L178.31 88.52L178.36 88.57Q176.21 88.05 173.66 87.73L173.70 87.76L173.73 87.79Q174.14 91.27 175.31 96.30ZM178.13 82.86L178.18 82.91L178.17 82.91Q177.78 82.70 177.45 82.70L177.45 82.71L176.83 82.73L176.89 82.80Q176.72 80.28 176.72 77.86L176.69 77.83L176.55 77.70Q176.65 66.83 180.17 56.51L180.08 56.42L180.18 56.52Q178.81 56.92 176.33 57.57L176.44 57.68L176.31 57.54Q176.73 56.27 177.51 53.85L177.51 53.85L177.63 53.97Q175.27 54.48 171.75 54.88L171.75 54.88L171.73 54.86Q164.99 62.28 156.05 78.33L156.17 78.45L159.77 72.21L159.74 72.17Q159.05 73.96 158.59 74.94L158.57 74.91L150.94 90.40L150.88 90.33Q152.12 90.20 154.08 89.55L153.94 89.41L153.71 89.83L153.67 89.79Q153.43 90.93 152.91 93.08L153.06 93.23L153.09 93.25Q160.07 90.91 168.36 91.24L168.32 91.20L168.31 91.18Q168.42 92.86 168.74 96.25L168.70 96.21L168.65 96.16Q170.47 96.15 172.30 96.35L172.31 96.36L172.45 96.50Q172.72 97.68 173.17 100.03L173.14 99.99L173.02 99.87Q176.31 100.29 181.46 101.86L181.51 101.90L181.55 101.95Q179.92 98.36 178.35 92.74L178.32 92.71L180.82 93.52L180.68 93.37Q181.91 93.82 183.08 94.41L183.16 94.49L183.08 94.40Q181.72 90.10 181.46 87.23L181.55 87.33L181.48 87.26Q180.41 86.90 178.45 86.51L178.45 86.51L178.59 86.65Q178.19 84.42 178.19 82.92ZM164.44 82.61L164.41 82.58L164.46 82.64Q165.66 80.31 168.34 75.94L168.48 76.08L168.49 76.09Q168.38 77.61 168.31 79.24L168.32 79.25L168.38 79.31Q168.31 80.94 168.37 82.57L168.48 82.67L168.46 82.65Q167.38 82.49 166.40 82.49L166.53 82.61L166.39 82.48Q165.48 82.61 164.44 82.61Z"/><path d="M10 92 C156 75,170 43,329 48" stroke="#e67d5a" fill="none"/><path d="M16 83 C191 116,169 108,324 102" stroke="#73ecec" fill="none"/><path d="M13 33 C172 55,180 7,330 61" stroke="#84eaea" fill="none"/><path d="M11 113 C159 110,162 14,330 82" stroke="#65c9eb" fill="none"/><path d="M10 82 C159 30,190 50,326 112" stroke="#e8b786" fill="none"/><path d="M3 70 C159 32,152 6,332 3" stroke="#61dbdb" fill="none"/><path d="M19 56 C174 6,177 128,323 73" stroke="#87e8cf" fill="none"/><path d="M11 30 C183 80,158 88,340 60" stroke="#56ebeb" fill="none"/><path d="M12 73 C187 91,164 22,321 51" stroke="#46db91" fill="none"/><path d="M18 125 C160 88,177 52,338 74" stroke="#53d974" fill="none"/><path d="M3 127 C177 41,162 115,322 78" stroke="#e9d38f" fill="none"/><path d="M15 28 C182 67,153 16,328 75" stroke="#8fe98f" fill="none"/><path d="M1 34 C185 124,177 108,336 54" stroke="#bae390" fill="none"/><path d="M4 134 C154 127,176 114,322 16" stroke="#de71c3" fill="none"/><path d="M6 126 C161 80,179 66,328 44" stroke="#529be4" fill="none"/><path d="M20 21 C173 119,182 93,336 41" stroke="#bc8deb" fill="none"/><path d="M19 8 C155 30,174 59,330 44" stroke="#5e5ee8" fill="none"/><path d="M1 97 C183 43,160 20,321 90" stroke="#77e3e3" fill="none"/><path d="M3 27 C168 93,168 69,333 4" stroke="#77afe8" fill="none"/><path d="M3 94 C179 122,179 118,329 35" stroke="#9be881" fill="none"/><path d="M3 34 C183 51,167 90,333 60" stroke="#8080e4" fill="none"/><path fill="#bedd64" d="M221.84 60.86L221.87 60.89L219.11 61.00L219.06 60.95Q215.25 61.19 214.86 64.65L214.84 64.63L214.77 64.56Q214.80 65.97 214.87 67.66L214.84 67.64L214.83 67.62Q214.77 70.83 216.92 73.11L216.99 73.18L217.05 73.24Q219.11 75.43 222.37 75.17L222.39 75.19L222.45 75.24Q226.01 75.02 227.32 73.46L227.25 73.39L227.29 73.43Q229.07 71.81 229.52 67.96L229.47 67.90L229.45 67.89Q229.98 64.11 227.83 62.67L227.86 62.71L227.93 62.78Q226.29 61.27 221.72 60.75ZM232.17 76.68L232.07 76.58L229.88 80.52L229.91 80.56Q225.33 88.83 218.87 95.81L218.93 95.87L218.85 95.80Q216.10 96.11 211.47 97.48L211.32 97.34L211.43 97.45Q220.55 86.66 225.96 78.43L226.01 78.48L225.85 78.32Q224.14 79.48 221.34 79.62L221.31 79.59L221.33 79.61Q216.15 79.84 213.54 76.45L213.60 76.51L213.59 76.50Q211.46 73.72 209.56 65.88L209.68 66.00L209.66 65.98Q209.60 65.14 209.34 63.54L209.44 63.64L209.31 63.51Q209.03 61.90 209.03 61.11L209.15 61.23L209.12 61.20Q209.10 58.12 210.93 57.07L210.86 57.00L210.99 57.13Q212.98 55.72 216.18 55.72L216.21 55.76L216.23 55.78Q221.61 55.68 221.61 55.68L221.77 55.83L221.73 55.80Q225.39 55.80 227.54 56.12L227.66 56.25L227.64 56.22Q231.30 56.68 232.86 57.53L232.87 57.54L232.78 57.44Q235.10 58.72 235.43 61.73L235.48 61.78L235.57 61.87Q235.49 62.18 235.16 66.75L235.11 66.70L235.16 66.74Q234.43 70.32 234.04 71.76L234.18 71.90L234.11 71.84Q233.43 74.21 232.12 76.63ZM235.48 80.83L235.40 80.76L235.40 80.75Q237.16 77.04 238.08 69.66L238.02 69.61L237.95 69.54Q238.40 65.74 238.33 64.24L238.34 64.24L238.33 64.24Q238.25 61.03 236.23 59.46L236.29 59.52L235.81 59.37L235.73 59.29Q235.31 58.02 233.74 56.91L233.81 56.97L233.75 56.92Q229.86 55.25 221.64 54.99L221.64 54.99L221.63 54.98Q220.05 55.03 215.87 55.03L215.81 54.97L215.93 55.09Q212.80 54.96 210.26 56.13L210.31 56.19L210.23 56.11Q208.42 57.62 208.55 60.76L208.39 60.60L208.47 60.68Q208.81 62.26 209.14 65.72L209.03 65.62L209.14 65.72Q210.06 70.10 210.52 71.54L210.58 71.60L210.60 71.62Q211.58 74.82 213.21 77.04L213.16 76.98L213.26 77.08Q213.71 77.67 214.37 78.32L214.26 78.22L214.28 78.23Q214.78 79.06 215.89 80.63L215.95 80.69L215.90 80.64Q218.39 82.93 221.72 83.26L221.83 83.37L221.79 83.34Q218.49 87.86 215.81 91.13L215.80 91.11L209.62 98.64L209.60 98.62Q213.40 97.26 216.21 96.68L216.30 96.77L216.33 96.79Q215.00 98.28 212.33 101.21L212.22 101.11L212.30 101.19Q217.55 99.59 222.90 99.52L222.86 99.47L222.93 99.55Q226.99 95.19 234.43 82.79L234.35 82.71L234.41 82.90L234.41 82.90Q234.90 81.69 235.49 80.85ZM225.08 64.89L225.05 64.86L225.02 64.82Q226.23 64.80 227.02 65.00L226.95 64.93L226.92 64.90Q228.06 65.13 228.71 65.32L228.63 65.24L228.77 65.38Q228.97 66.04 229.10 66.75L228.93 66.58L228.93 66.59Q229.07 67.31 228.87 67.96L229.05 68.14L228.96 68.05Q228.99 71.08 226.96 72.97L226.93 72.94L226.94 72.95Q225.28 74.69 222.48 74.62L222.42 74.56L222.47 74.61Q221.73 74.59 219.12 74.07L219.15 74.10L219.13 74.08Q218.73 72.57 218.73 71.33L218.68 71.28L218.70 71.30Q218.55 70.82 218.55 70.43L218.53 70.41L218.59 70.48Q218.58 66.68 222.49 65.31L222.41 65.22L222.42 65.23Q223.66 64.90 225.09 64.90Z"/></svg>