<svg xmlns="http://www.w3.org/2000/svg" width="342" height="140" viewBox="0,0,342,140"><path d="M16 64 C163 122,165 63,335 52" stroke="#8ce28c" fill="none"/><path d="M21 109 C179 59,158 22,327 73" stroke="#e7c459" fill="none"/><path fill="#51d693" d="M126.78 95.55L126.68 95.45L126.71 95.48Q120.06 95.98 118.42 92.12L118.27 91.98L118.34 92.04Q119.70 90.56 122.29 87.59L122.15 87.45L122.30 87.59Q122.99 90.82 127.99 91.01L128.08 91.10L128.06 91.08Q133.58 91.10 136.30 88.88L136.36 88.95L136.44 89.03Q138.78 86.37 138.65 81.88L138.56 81.79L138.68 81.91Q138.39 73.47 130.42 73.84L130.47 73.89L130.30 73.72Q125.70 74.05 122.79 76.14L122.74 76.09L122.25 75.85L121.82 75.55L121.89 75.62Q122.40 70.31 122.21 65.76L122.27 65.81L122.23 65.78Q122.12 61.49 121.55 55.99L121.56 56.00L121.42 55.87Q127.52 57.47 133.84 57.28L133.92 57.36L133.83 57.27Q140.22 57.21 146.16 55.12L146.25 55.21L145.33 57.77L145.27 57.72Q144.71 58.93 144.40 60.32L144.41 60.32L144.39 60.31Q139.14 61.95 132.69 61.95L132.87 62.13L132.86 62.12Q130.47 62.13 128.01 61.88L127.89 61.77L127.83 61.70Q127.74 62.88 127.17 70.28L127.21 70.32L127.14 70.25Q128.50 69.46 131.92 69.21L132.04 69.33L132.00 69.28Q138.21 69.68 140.61 72.46L140.72 72.57L140.60 72.45Q142.83 74.94 143.28 81.32L143.42 81.47L143.36 81.41Q143.82 88.38 141.80 91.73L141.84 91.77L141.77 91.70Q138.45 94.89 132.95 95.27L132.98 95.30L132.92 95.24Q131.16 95.25 126.73 95.50ZM136.73 99.25L136.83 99.34L136.79 99.30Q142.53 99.48 145.69 97.65L145.63 97.59L145.59 97.55Q147.38 95.16 147.38 91.68L147.28 91.58L147.25 91.56Q147.33 86.51 145.75 79.68L145.65 79.59L145.71 79.65Q145.06 76.72 143.04 74.38L143.00 74.35L143.24 74.65L142.83 74.11L142.11 73.65L142.16 73.70Q141.71 72.55 140.64 71.41L140.58 71.36L140.61 71.45L140.62 71.45Q138.18 68.77 132.05 68.77L131.99 68.71L131.57 68.73L131.58 68.74Q131.66 67.74 131.97 65.91L131.95 65.89L131.97 65.91Q140.20 66.05 146.90 63.33L146.86 63.28L146.84 63.27Q147.67 61.06 149.25 56.38L149.24 56.37L145.67 57.85L145.78 57.97Q146.34 56.00 147.16 54.10L147.25 54.19L147.20 54.15Q140.82 56.55 133.99 56.67L133.98 56.67L133.97 56.65Q127.15 56.85 120.58 55.02L120.54 54.98L120.67 55.11Q121.63 62.27 121.63 69.61L121.74 69.71L121.77 69.75Q121.80 72.93 121.61 76.10L121.43 75.91L121.61 76.09Q122.00 76.36 122.95 76.86L123.01 76.93L122.85 76.77Q123.48 76.45 124.56 75.88L124.49 75.81L124.56 75.88Q124.47 77.13 124.10 79.65L124.07 79.63L124.10 79.65Q124.74 79.92 125.44 80.30L125.47 80.33L125.54 80.41Q130.08 77.42 133.18 77.42L133.12 77.37L133.12 77.36Q135.53 77.56 137.49 78.63L137.39 78.54L137.47 78.62Q137.87 80.15 137.93 81.73L137.97 81.77L138.05 81.85Q138.07 86.04 136.36 87.87L136.45 87.96L136.45 87.96Q134.07 89.88 130.34 90.26L130.43 90.35L130.43 90.36Q128.94 90.56 127.80 90.44L127.75 90.39L127.63 90.27Q126.32 90.16 125.06 89.59L125.16 89.69L124.96 89.18L124.74 89.33L124.86 89.45Q123.58 88.69 122.70 86.47L122.51 86.29L122.68 86.46Q120.41 88.74 117.62 92.28L117.57 92.22L117.52 92.17Q118.18 93.40 119.57 94.98L119.57 94.99L119.52 94.93Q121.18 97.86 125.86 98.68L125.91 98.73L125.88 98.70Q127.85 99.09 136.77 99.28Z"/><path d="M17 32 C164 3,153 102,330 124" stroke="#6a40e7" fill="none"/><path d="M5 117 C181 49,154 87,340 59" stroke="#df4747" fill="none"/><path d="M21 30 C156 126,174 87,328 13" stroke="#964ede" fill="none"/><path d="M2 1 C158 4,166 58,329 109" stroke="#ad77e3" fill="none"/><path d="M14 83 C159 22,164 42,338 108" stroke="#c051e5" fill="none"/><path d="M20 115 C179 95,163 57,324 24" stroke="#987fe5" fill="none"/><path d="M5 131 C160 33,162 59,333 132" stroke="#78e155" fill="none"/><path d="M11 79 C157 67,191 111,329 115" stroke="#b753d9" fill="none"/><path d="M12 71 C188 105,157 82,322 94" stroke="#71d84f" fill="none"/><path d="M10 77 C158 69,151 29,333 14" stroke="#e7b27d" fill="none"/><path d="M13 94 C189 13,174 76,322 41" stroke="#4be6e6" fill="none"/><path d="M19 86 C161 104,184 7,330 56" stroke="#82eb60" fill="none"/><path d="M17 3 C163 55,165 7,331 40" stroke="#88bcf1" fill="none"/><path d="M9 64 C155 96,151 123,338 117" stroke="#eb7fd0" fill="none"/><path d="M7 41 C184 66,185 34,334 41" stroke="#d380ee" fill="none"/><path fill="#50ebc4" d="M64.09 67.26L64.16 67.33L64.24 67.41Q58.96 67.44 55.93 65.67L55.74 65.48L55.93 65.67Q60.08 63.37 68.17 56.35L68.16 56.35L68.15 56.33Q69.34 56.01 71.49 55.00L71.46 54.97L71.36 54.87Q69.31 64.89 69.12 75.45L68.97 75.30L69.12 75.45Q68.82 85.90 70.59 96.02L70.58 96.00L70.59 96.01Q67.90 94.90 64.36 94.71L64.25 94.60L64.38 94.73Q64.13 87.78 64.13 81.02L64.17 81.06L64.05 80.93Q64.13 74.19 64.19 67.36ZM63.48 71.01L63.48 95.23L63.59 95.33Q65.55 95.27 67.13 95.59L67.23 95.69L67.16 95.62Q67.34 96.81 67.65 99.08L67.63 99.06L67.56 98.99Q72.24 99.81 76.28 103.54L76.42 103.68L76.47 103.72Q72.35 91.90 72.29 79.50L72.13 79.34L72.22 79.44Q72.04 66.99 75.07 54.97L75.11 55.01L75.03 54.93Q74.25 55.74 71.60 57.57L71.49 57.47L71.52 57.49Q71.85 56.24 72.35 53.71L72.32 53.68L72.32 53.68Q70.22 55.05 67.81 55.68L67.69 55.56L67.80 55.67Q61.46 61.53 54.32 65.33L54.35 65.36L54.42 65.43Q56.81 67.31 60.73 67.88L60.58 67.74L60.65 67.81Q59.46 68.57 57.31 70.34L57.45 70.48L57.39 70.42Q59.81 71.01 63.48 71.01L63.50 71.03Z"/><path d="M11 49 C164 89,160 22,330 12" stroke="#e78463" fill="none"/><path fill="#dbb442" d="M268.08 67.25L268.08 67.25L268.11 67.28Q262.87 67.35 259.84 65.58L259.89 65.64L259.84 65.58Q264.04 63.34 272.14 56.32L272.14 56.32L272.17 56.36Q273.38 56.05 275.53 55.04L275.47 54.98L275.52 55.02Q273.31 64.89 273.12 75.45L273.11 75.44L272.98 75.31Q272.94 86.02 274.71 96.14L274.67 96.09L274.69 96.11Q271.94 94.94 268.40 94.75L268.38 94.73L268.37 94.73Q268.17 87.82 268.17 81.06L268.12 81.01L268.14 81.02Q268.19 74.25 268.26 67.43ZM267.61 71.14L267.53 95.28L267.52 95.26Q269.58 95.30 271.16 95.62L271.14 95.60L271.12 95.58Q271.31 96.78 271.62 99.05L271.50 98.93L271.62 99.05Q276.28 99.86 280.33 103.59L280.39 103.65L280.40 103.65Q276.20 91.75 276.14 79.36L276.18 79.40L276.19 79.40Q275.99 66.94 279.02 54.92L279.02 54.92L279.08 54.98Q278.17 55.65 275.51 57.48L275.61 57.59L275.49 57.47Q275.97 56.37 276.48 53.84L276.33 53.68L276.36 53.72Q274.23 55.06 271.82 55.69L271.74 55.61L271.73 55.60Q265.46 61.53 258.32 65.32L258.38 65.39L258.28 65.29Q260.77 67.27 264.69 67.84L264.71 67.86L264.59 67.74Q263.56 68.67 261.41 70.44L261.50 70.53L261.34 70.38Q263.80 71.00 267.47 71.00L267.51 71.04Z"/><path d="M8 100 C172 134,177 89,328 46" stroke="#d656d6" fill="none"/><path d="M9 76 C167 84,156 82,334 66" stroke="#dd7e5f" fill="none"/><path fill="#6fe0e0" d="M194.77 95.54L194.78 95.55L194.81 95.58Q187.98 95.89 186.33 92.03L186.34 92.04L186.45 92.16Q187.69 90.54 190.28 87.57L190.16 87.45L190.13 87.43Q191.13 90.96 196.13 91.15L195.99 91.01L196.03 91.05Q201.70 91.22 204.42 89.00L204.31 88.89L204.36 88.94Q206.65 86.24 206.52 81.75L206.52 81.75L206.59 81.82Q206.37 73.44 198.40 73.82L198.35 73.77L198.36 73.78Q193.77 74.12 190.86 76.20L190.80 76.14L190.20 75.80L189.82 75.54L189.88 75.61Q190.56 70.47 190.37 65.92L190.26 65.80L190.37 65.91Q190.07 61.44 189.50 55.94L189.44 55.89L189.53 55.97Q195.55 57.50 201.87 57.31L201.83 57.27L201.98 57.42Q208.29 57.28 214.23 55.20L214.11 55.07L213.21 57.65L213.30 57.74Q212.81 59.02 212.49 60.41L212.49 60.41L212.49 60.40Q207.21 62.02 200.76 62.02L200.81 62.07L200.71 61.97Q198.31 61.97 195.85 61.72L195.85 61.73L195.93 61.80Q195.75 62.89 195.18 70.29L195.17 70.27L195.30 70.40Q196.66 69.62 200.08 69.37L200.11 69.40L200.09 69.38Q206.11 69.58 208.52 72.37L208.66 72.51L208.57 72.42Q210.87 74.97 211.31 81.36L211.25 81.30L211.37 81.41Q211.83 88.39 209.81 91.74L209.69 91.63L209.73 91.67Q206.32 94.77 200.82 95.15L200.99 95.31L200.95 95.28Q199.27 95.36 194.84 95.61ZM204.83 99.35L204.79 99.30L204.74 99.26Q210.58 99.53 213.74 97.70L213.71 97.67L213.70 97.65Q215.27 95.05 215.27 91.58L215.30 91.60L215.24 91.55Q215.27 86.45 213.68 79.62L213.71 79.64L213.65 79.59Q213.17 76.83 211.15 74.49L211.02 74.37L211.12 74.53L210.75 74.03L210.12 73.66L210.14 73.68Q209.67 72.51 208.59 71.37L208.70 71.48L208.56 71.40L208.70 71.54Q206.13 68.72 200.00 68.72L200.03 68.75L199.54 68.70L199.52 68.68Q199.70 67.79 200.02 65.95L200.03 65.97L199.99 65.92Q208.19 66.04 214.90 63.32L214.89 63.31L214.97 63.39Q215.63 61.02 217.21 56.34L217.27 56.41L213.83 58.01L213.69 57.88Q214.44 56.09 215.26 54.20L215.17 54.11L215.22 54.16Q208.74 56.47 201.91 56.60L201.90 56.58L202.02 56.70Q195.12 56.82 188.54 54.98L188.67 55.11L188.64 55.08Q189.68 62.32 189.68 69.66L189.81 69.78L189.77 69.74Q189.66 72.80 189.48 75.96L189.54 76.03L189.44 75.93Q190.03 76.39 190.98 76.90L190.99 76.90L190.84 76.75Q191.45 76.41 192.52 75.84L192.52 75.84L192.65 75.97Q192.47 77.12 192.09 79.65L192.19 79.75L192.16 79.71Q192.84 80.02 193.53 80.40L193.47 80.33L193.59 80.45Q198.08 77.41 201.17 77.41L201.31 77.55L201.17 77.41Q203.52 77.55 205.48 78.62L205.44 78.58L205.41 78.56Q205.89 80.17 205.95 81.75L206.04 81.83L206.11 81.91Q206.17 86.14 204.46 87.97L204.50 88.02L204.41 87.92Q202.14 89.96 198.41 90.33L198.45 90.37L198.42 90.34Q196.78 90.41 195.65 90.29L195.64 90.28L195.65 90.29Q194.33 90.17 193.06 89.60L193.09 89.63L192.91 89.13L192.73 89.33L192.75 89.35Q191.55 88.65 190.66 86.44L190.68 86.46L190.66 86.44Q188.33 88.66 185.55 92.20L185.65 92.30L185.70 92.35Q186.15 93.37 187.54 94.95L187.60 95.01L187.59 95.00Q189.21 97.89 193.89 98.71L194.02 98.83L193.85 98.67Q195.89 99.13 204.80 99.32Z"/><path d="M9 105 C157 114,158 69,326 107" stroke="#7cedd1" fill="none"/><path d="M19 112 C190 78,152 35,333 87" stroke="#e88c6d" fill="none"/><path d="M3 114 C164 82,189 33,322 103" stroke="#5696d6" fill="none"/><path d="M9 12 C178 7,183 131,332 64" stroke="#e7e791" fill="none"/><path d="M17 135 C185 104,170 74,335 11" stroke="#7694ee" fill="none"/><path d="M18 64 C161 3,188 9,324 28" stroke="#e3e35d" fill="none"/><path d="M9 101 C153 130,154 134,330 109" stroke="#4b91d7" fill="none"/><path d="M20 119 C160 82,160 123,329 51" stroke="#ade674" fill="none"/><path d="M19 101 C156 94,170 94,323 9" stroke="#dd73a8" fill="none"/><path d="M20 55 C152 62,184 61,332 106" stroke="#4bd76e" fill="none"/><path d="M13 36 C162 98,176 51,326 104" stroke="#a9ea93" fill="none"/><path d="M7 100 C155 108,176 69,327 96" stroke="#8e37e6" fill="none"/><path d="M12 51 C155 121,189 65,340 6" stroke="#6c6cda" fill="none"/><path d="M3 69 C171 11,166 84,330 42" stroke="#edb57c" fill="none"/><path d="M12 64 C177 60,183 62,336 24" stroke="#4493e3" fill="none"/><path d="M11 98 C180 116,163 92,330 4" stroke="#e77894" fill="none"/><path d="M14 84 C184 56,182 108,323 37" stroke="#987fe5" fill="none"/><path d="M8 21 C185 74,187 1,335 26" stroke="#dc4b93" fill="none"/><path d="M18 68 C153 52,183 20,335 20" stroke="#e6913b" fill="none"/><path d="M10 68 C177 12,191 37,322 127" stroke="#90eeee" fill="none"/></svg>