<svg xmlns="http://www.w3.org/2000/svg" width="342" height="140" viewBox="0,0,342,140"><path d="M4 92 C165 3,174 22,329 34" stroke="#e6839c" fill="none"/><path fill="#8eefa7" d="M64.76 67.78L64.76 67.78L64.58 67.60Q60.06 67.71 57.42 66.17L57.40 66.14L57.36 66.10Q61.03 64.16 68.08 58.05L68.07 58.04L68.13 58.09Q69.21 57.85 71.08 56.97L70.96 56.86L70.96 56.86Q69.06 65.47 68.89 74.67L68.89 74.66L68.84 74.61Q68.84 83.97 70.38 92.78L70.34 92.74L70.22 92.62Q67.90 91.67 64.81 91.51L64.77 91.47L64.83 91.53Q64.68 85.54 64.68 79.65L64.63 79.60L64.57 79.54Q64.55 73.57 64.60 67.62ZM64.06 70.88L64.03 91.94L64.06 91.97Q65.97 92.12 67.35 92.39L67.31 92.36L67.31 92.36Q67.45 93.38 67.73 95.36L67.63 95.26L67.59 95.22Q71.79 96.06 75.31 99.31L75.24 99.24L75.30 99.29Q71.79 89.07 71.73 78.27L71.60 78.14L71.61 78.16Q71.65 67.51 74.29 57.05L74.29 57.05L74.13 56.89Q73.40 57.53 71.08 59.12L71.19 59.24L71.17 59.21Q71.45 58.11 71.89 55.91L71.86 55.88L71.90 55.92Q69.87 56.92 67.78 57.47L67.71 57.40L67.87 57.56Q62.31 62.63 56.08 65.93L56.14 65.99L56.23 66.08Q58.08 67.49 61.50 67.98L61.67 68.16L61.64 68.13Q60.55 68.74 58.68 70.29L58.77 70.38L58.69 70.30Q60.89 70.91 64.09 70.91L64.21 71.03Z"/><path d="M14 58 C177 49,163 39,327 7" stroke="#d5eb92" fill="none"/><path d="M4 94 C172 72,187 8,322 104" stroke="#9292e7" fill="none"/><path d="M18 52 C159 87,161 3,331 95" stroke="#afe07f" fill="none"/><path d="M9 23 C159 116,152 47,338 31" stroke="#ebb279" fill="none"/><path d="M2 72 C156 35,158 40,336 54" stroke="#7f61db" fill="none"/><path d="M8 124 C151 123,169 66,335 59" stroke="#5ee2c1" fill="none"/><path d="M5 60 C173 22,156 111,338 18" stroke="#a86ce4" fill="none"/><path d="M7 10 C164 139,187 103,340 22" stroke="#41b1d6" fill="none"/><path d="M21 107 C167 19,176 133,332 127" stroke="#82e79b" fill="none"/><path d="M16 122 C162 14,156 78,322 138" stroke="#6feb8e" fill="none"/><path d="M18 16 C155 41,167 36,334 5" stroke="#6789ee" fill="none"/><path d="M8 120 C186 72,151 108,322 82" stroke="#e98b6c" fill="none"/><path d="M6 43 C174 26,159 123,323 117" stroke="#e9b785" fill="none"/><path d="M1 100 C153 118,189 52,333 50" stroke="#65a8eb" fill="none"/><path d="M14 97 C180 51,155 114,331 118" stroke="#9d84eb" fill="none"/><path d="M15 7 C175 73,162 138,338 16" stroke="#79eb79" fill="none"/><path d="M10 55 C184 28,177 23,329 28" stroke="#85baee" fill="none"/><path d="M17 48 C177 11,172 103,333 90" stroke="#e96539" fill="none"/><path d="M18 86 C184 70,175 7,341 19" stroke="#62bcda" fill="none"/><path d="M4 74 C151 135,158 117,323 50" stroke="#a993eb" fill="none"/><path fill="#9bda5c" d="M195.91 87.15L196.02 87.26L195.96 87.21Q197.69 88.60 199.72 88.38L199.75 88.41L199.71 88.37Q203.97 88.66 204.91 83.82L204.93 83.84L204.78 83.69Q205.73 79.19 205.73 74.29L205.79 74.35L205.76 70.58L205.83 70.65Q205.81 68.81 205.31 66.99L205.26 66.93L205.29 66.97Q203.43 70.23 200.57 77.11L200.59 77.13L200.70 77.24Q197.80 84.09 196.04 87.28ZM203.30 63.44L203.33 63.47L203.21 63.35Q201.66 62.29 199.73 62.29L199.66 62.22L199.68 62.23Q197.53 62.02 195.93 63.34L195.91 63.31L195.99 63.39Q194.32 64.64 194.04 66.79L193.99 66.73L194.09 66.83Q193.51 68.73 193.45 70.88L193.50 70.93L193.56 70.98Q193.46 70.88 193.46 75.01L193.52 75.08L193.50 75.06Q193.43 78.40 194.09 83.63L194.19 83.73L194.10 83.64Q196.90 76.80 203.23 63.37ZM205.55 90.63L205.55 90.63L205.43 90.51Q202.95 91.88 199.59 91.88L199.58 91.87L197.17 91.83L197.19 91.85Q192.51 91.85 190.85 89.37L190.92 89.43L190.92 89.44Q189.81 86.34 189.70 82.10L189.75 82.15L189.58 81.98Q189.58 79.51 189.47 74.50L189.45 74.48L189.41 74.44Q189.40 72.71 189.18 68.31L189.15 68.28L189.30 68.44Q189.19 65.13 189.63 62.27L189.61 62.25L189.48 62.12Q190.36 58.04 196.64 57.71L196.49 57.56L196.63 57.70Q197.70 57.62 199.63 57.67L199.51 57.55L199.59 57.63Q207.76 57.82 209.30 62.83L209.34 62.87L209.24 62.77Q210.14 65.54 210.09 68.24L210.23 68.38L210.11 68.26Q209.94 75.41 209.83 77.18L209.87 77.22L209.95 77.29Q209.58 82.71 209.14 84.59L209.21 84.66L209.20 84.64Q208.19 89.08 205.43 90.51ZM212.62 90.21L212.68 90.27L212.71 90.30Q212.95 86.19 212.89 83.60L212.94 83.64L212.89 77.05L212.75 76.90Q212.70 72.62 211.93 64.63L212.01 64.71L212.01 64.71Q211.19 62.02 209.31 60.91L209.21 60.81L209.30 60.90Q206.96 57.13 199.47 56.91L199.47 56.91L199.64 57.08Q198.21 56.86 196.28 56.91L196.28 56.91L196.41 57.04Q189.78 57.07 189.06 61.59L189.18 61.71L189.04 61.57Q188.49 64.92 188.65 67.95L188.65 67.95L188.77 68.07Q189.23 74.36 189.17 79.21L189.07 79.11L189.20 79.24Q189.02 84.45 189.18 85.94L189.37 86.12L189.18 85.93Q189.85 90.51 192.05 91.67L192.03 91.65L192.08 91.70Q194.20 94.86 199.98 95.25L199.89 95.15L199.88 95.15Q205.09 95.51 206.03 95.46L206.03 95.46L206.11 95.54Q210.19 95.27 211.84 92.96L211.83 92.95L211.84 92.96Q212.59 92.00 212.70 90.29ZM200.18 87.74L200.29 87.85L200.30 87.85Q201.15 85.62 202.69 81.71L202.72 81.75L205.21 75.64L205.21 75.64Q205.09 77.94 204.54 82.79L204.56 82.82L204.71 82.96Q203.74 87.12 200.28 87.83ZM197.37 70.00L197.46 70.10L197.38 70.01Q198.02 67.41 199.01 66.58L199.08 66.65L199.07 66.64Q199.72 66.02 201.59 65.75L201.48 65.64L201.53 65.69Q198.99 70.91 196.29 77.63L196.40 77.74L196.36 77.69Q196.33 73.76 197.32 69.96Z"/><path d="M2 5 C175 68,171 122,339 41" stroke="#dc6f6f" fill="none"/><path d="M3 75 C158 76,179 132,336 74" stroke="#71dec3" fill="none"/><path fill="#8ed548" d="M131.66 75.93L131.66 75.93L131.72 75.99Q129.13 75.88 127.34 77.95L127.23 77.83L127.20 77.80Q125.44 79.90 125.16 82.65L125.18 82.67L125.13 82.62Q124.83 85.62 126.40 87.02L126.45 87.08L126.43 87.06Q127.90 88.36 130.93 88.19L130.94 88.21L130.92 88.19Q133.98 88.00 135.58 87.01L135.58 87.00L135.68 87.11Q137.21 85.39 137.21 83.13L137.38 83.30L137.34 83.26Q137.35 82.72 137.24 82.17L137.21 82.14L137.09 82.02Q137.25 79.64 135.65 77.69L135.78 77.82L135.78 77.82Q134.20 75.88 131.77 76.04ZM131.03 91.98L131.04 92.00L131.07 92.03Q124.72 92.01 122.68 90.91L122.78 91.00L122.78 91.00Q121.22 89.83 120.95 87.35L120.89 87.30L121.00 87.41Q120.86 86.33 120.92 85.29L120.98 85.35L120.85 85.22Q121.19 83.96 121.19 83.30L121.04 83.16L121.04 83.15Q121.81 79.13 122.03 78.14L121.94 78.05L122.00 78.11Q122.67 75.31 123.88 73.27L123.76 73.15L123.87 73.26Q127.65 66.86 136.24 57.66L136.28 57.70L136.33 57.74Q140.14 57.26 143.33 56.10L143.28 56.05L143.33 56.10Q133.47 66.95 128.84 73.06L128.81 73.03L128.79 73.00Q130.15 72.21 132.02 72.21L132.09 72.29L132.19 72.39Q136.83 72.24 139.03 75.04L139.19 75.20L139.08 75.09Q140.95 77.40 141.44 82.52L141.47 82.55L141.57 82.65Q141.68 83.69 141.68 84.58L141.56 84.45L141.72 84.62Q141.68 89.09 138.49 90.63L138.40 90.54L138.41 90.55Q136.60 91.38 130.98 91.94ZM134.47 95.59L134.44 95.56L134.30 95.42Q136.19 95.38 139.05 95.49L139.21 95.65L139.20 95.64Q141.54 95.72 143.80 94.68L143.76 94.64L143.83 94.71Q145.28 93.41 145.28 90.82L145.38 90.92L145.37 90.91Q145.23 90.05 144.99 88.62L145.13 88.76L145.03 88.66Q144.92 87.37 144.92 86.71L144.85 86.64L144.89 86.68Q143.48 79.71 141.16 76.95L141.21 77.00L141.27 77.06Q141.24 76.97 141.02 76.64L140.87 76.49L140.50 76.23L140.37 76.16L140.37 76.16Q139.89 75.46 139.01 74.08L138.94 74.01L139.03 74.10Q137.73 72.75 134.86 72.09L134.85 72.07L134.82 72.04Q136.53 69.68 140.83 64.34L140.88 64.39L147.06 56.80L146.95 56.69Q144.64 57.91 141.17 59.01L141.18 59.02L141.31 59.15Q142.48 57.57 145.07 54.71L145.10 54.73L145.14 54.78Q141.62 56.27 136.00 57.09L136.17 57.26L136.17 57.26Q127.90 65.78 123.60 72.94L123.53 72.86L123.56 72.89Q121.42 76.59 120.60 85.63L120.57 85.60L120.47 85.50Q120.32 86.29 120.43 87.66L120.59 87.82L120.59 87.82Q120.57 90.22 122.17 91.55L122.29 91.67L122.14 91.52Q122.82 91.87 122.77 91.93L122.80 91.95L122.72 91.88Q123.23 93.16 124.39 93.77L124.45 93.83L124.48 93.86Q126.42 94.69 129.22 94.97L129.27 95.01L129.33 95.07Q129.27 95.02 134.34 95.46ZM134.04 79.24L134.05 79.26L134.03 79.23Q134.92 79.14 136.30 79.85L136.20 79.75L136.25 79.81Q136.65 81.09 136.65 82.02L136.69 82.06L136.65 82.02Q137.08 84.87 135.70 86.30L135.60 86.20L135.59 86.20Q134.15 87.34 131.13 87.78L131.12 87.78L131.07 87.73Q129.07 87.82 128.30 87.44L128.19 87.33L128.27 87.41Q127.88 86.64 127.88 86.20L127.89 86.20L127.86 86.17Q127.51 81.41 131.75 79.54L131.85 79.64L131.78 79.57Q132.93 79.13 134.04 79.24Z"/><path d="M3 91 C176 24,161 115,322 50" stroke="#78cfec" fill="none"/><path d="M9 58 C181 77,171 135,336 138" stroke="#e87853" fill="none"/><path d="M21 133 C152 88,184 2,323 5" stroke="#ea57ea" fill="none"/><path d="M11 22 C160 21,191 91,333 56" stroke="#e5c156" fill="none"/><path d="M21 138 C179 95,179 18,327 27" stroke="#cb71e8" fill="none"/><path d="M15 133 C158 30,163 96,329 27" stroke="#e9e994" fill="none"/><path d="M4 136 C188 49,191 26,333 37" stroke="#eeee67" fill="none"/><path fill="#cb87e2" d="M267.72 75.99L267.68 75.95L267.69 75.96Q265.08 75.83 263.29 77.89L263.15 77.75L263.33 77.93Q261.46 79.92 261.19 82.67L261.21 82.69L261.24 82.73Q260.76 85.55 262.33 86.95L262.34 86.96L262.32 86.95Q264.04 88.50 267.07 88.33L266.96 88.23L266.97 88.24Q270.00 88.02 271.60 87.03L271.70 87.13L271.56 86.99Q273.30 85.48 273.30 83.22L273.33 83.25L273.34 83.26Q273.27 82.64 273.16 82.09L273.15 82.08L273.20 82.13Q273.35 79.74 271.75 77.79L271.62 77.66L271.63 77.67Q270.17 75.86 267.75 76.02ZM266.98 91.94L267.11 92.07L267.09 92.04Q260.65 91.94 258.61 90.83L258.66 90.88L258.70 90.92Q257.19 89.80 256.91 87.32L256.93 87.33L256.94 87.35Q256.94 86.41 256.99 85.36L256.98 85.35L256.93 85.30Q257.12 83.90 257.12 83.24L257.12 83.23L257.04 83.15Q257.80 79.12 258.02 78.13L257.94 78.05L258.03 78.14Q258.73 75.36 259.94 73.33L259.78 73.17L259.92 73.31Q263.74 66.95 272.33 57.75L272.21 57.63L272.28 57.70Q276.21 57.33 279.40 56.17L279.39 56.17L279.45 56.22Q269.45 66.93 264.82 73.04L264.87 73.09L264.81 73.02Q266.31 72.38 268.18 72.38L268.05 72.24L268.21 72.40Q272.88 72.28 275.08 75.09L275.17 75.18L275.09 75.10Q277.13 77.58 277.62 82.70L277.60 82.67L277.44 82.51Q277.71 83.72 277.71 84.60L277.61 84.50L277.68 84.58Q277.69 89.10 274.50 90.64L274.39 90.53L274.37 90.52Q272.60 91.39 266.99 91.94ZM270.41 95.53L270.38 95.50L270.45 95.57Q272.29 95.48 275.15 95.59L275.19 95.63L275.04 95.47Q277.51 95.69 279.77 94.64L279.81 94.69L279.71 94.59Q281.29 93.41 281.29 90.82L281.24 90.77L281.43 90.96Q281.42 90.24 281.17 88.81L281.06 88.70L281.08 88.72Q280.76 87.21 280.76 86.55L280.91 86.71L280.90 86.69Q279.62 79.85 277.30 77.09L277.30 77.09L277.16 76.95Q277.20 76.93 276.98 76.60L276.98 76.60L276.54 76.27L276.35 76.14L276.42 76.21Q275.96 75.53 275.08 74.15L275.03 74.10L275.03 74.10Q273.77 72.79 270.91 72.13L270.91 72.13L270.89 72.11Q272.58 69.72 276.87 64.38L276.78 64.29L283.08 56.82L282.89 56.63Q280.64 57.91 277.17 59.01L277.32 59.16L277.31 59.15Q278.53 57.61 281.12 54.75L281.09 54.72L281.11 54.74Q277.60 56.25 271.99 57.08L272.13 57.22L272.10 57.19Q263.73 65.62 259.44 72.77L259.56 72.89L259.43 72.77Q257.33 76.50 256.50 85.53L256.48 85.51L256.46 85.49Q256.40 86.36 256.51 87.74L256.48 87.71L256.45 87.69Q256.65 90.31 258.25 91.63L258.14 91.52L258.13 91.51Q258.70 91.75 258.64 91.80L258.69 91.85L258.74 91.90Q259.22 93.15 260.38 93.76L260.35 93.73L260.36 93.74Q262.59 94.87 265.40 95.14L265.31 95.05L265.34 95.08Q265.34 95.08 270.40 95.52ZM270.08 79.29L270.03 79.23L270.04 79.25Q270.79 79.01 272.17 79.72L272.24 79.79L272.19 79.74Q272.65 81.09 272.65 82.02L272.65 82.02L272.79 82.16Q273.03 84.83 271.66 86.26L271.55 86.16L271.58 86.18Q270.05 87.24 267.02 87.68L267.14 87.80L267.10 87.76Q265.05 87.80 264.28 87.41L264.28 87.42L264.14 87.28Q263.83 86.59 263.83 86.14L263.85 86.16L263.93 86.24Q263.51 81.41 267.75 79.54L267.88 79.67L267.86 79.65Q268.91 79.11 270.01 79.22Z"/><path d="M3 123 C176 126,191 64,331 17" stroke="#e47752" fill="none"/><path d="M11 62 C160 47,190 65,322 106" stroke="#663ae7" fill="none"/><path d="M14 8 C160 104,162 2,333 136" stroke="#e7e78c" fill="none"/><path d="M21 29 C176 132,171 39,337 82" stroke="#3ebbe4" fill="none"/><path d="M9 125 C181 122,159 35,339 45" stroke="#84ef9f" fill="none"/><path d="M8 137 C189 47,184 114,340 2" stroke="#daba5c" fill="none"/><path d="M2 5 C182 14,178 126,322 39" stroke="#a38aef" fill="none"/><path d="M9 103 C179 138,154 41,328 63" stroke="#92ea75" fill="none"/><path d="M5 126 C179 43,167 83,337 15" stroke="#e6a38d" fill="none"/><path d="M10 88 C180 52,188 35,331 130" stroke="#77edb2" fill="none"/></svg>