<svg xmlns="http://www.w3.org/2000/svg" width="342" height="140" viewBox="0,0,342,140"><path d="M7 6 C176 63,157 130,329 20" stroke="#92eb92" fill="none"/><path d="M6 7 C178 61,189 8,339 67" stroke="#e664e6" fill="none"/><path d="M16 120 C168 93,161 124,338 36" stroke="#913be6" fill="none"/><path d="M6 43 C160 72,171 68,328 41" stroke="#eb8665" fill="none"/><path d="M2 75 C159 126,159 108,336 74" stroke="#6687ea" fill="none"/><path fill="#3b8cdc" d="M52.55 67.11L52.58 67.14L52.63 67.19Q47.06 67.22 43.86 65.35L43.88 65.37L43.85 65.34Q48.32 63.02 56.85 55.62L56.72 55.49L56.72 55.50Q57.94 55.12 60.21 54.05L60.27 54.12L60.24 54.09Q57.96 64.53 57.76 75.65L57.86 75.76L57.73 75.63Q57.49 86.71 59.35 97.37L59.43 97.45L59.42 97.44Q56.54 96.23 52.81 96.03L52.68 95.89L52.81 96.03Q52.53 88.68 52.53 81.55L52.66 81.68L52.48 81.51Q52.63 74.45 52.69 67.26ZM52.03 71.20L51.90 96.58L52.05 96.72Q54.03 96.58 55.70 96.91L55.79 97.01L55.78 96.99Q55.93 98.21 56.26 100.61L56.26 100.61L56.29 100.64Q61.22 101.51 65.49 105.44L65.48 105.43L65.43 105.38Q61.23 93.06 61.17 80.00L61.07 79.90L61.03 79.86Q61.04 66.95 64.24 54.29L64.20 54.25L64.14 54.19Q63.31 55.03 60.51 56.96L60.44 56.89L60.36 56.80Q60.86 55.64 61.39 52.97L61.34 52.92L61.38 52.96Q58.99 54.24 56.46 54.90L56.35 54.79L56.44 54.88Q49.75 61.05 42.22 65.05L42.24 65.06L42.33 65.16Q44.83 67.12 48.96 67.72L48.83 67.60L48.91 67.67Q47.73 68.56 45.47 70.43L45.59 70.55L45.60 70.56Q48.14 71.16 52.00 71.16L51.96 71.12Z"/><path d="M8 55 C174 32,162 35,329 137" stroke="#90e8d2" fill="none"/><path d="M20 92 C173 131,150 109,335 67" stroke="#de6cc2" fill="none"/><path fill="#e07f97" d="M108.18 77.27L108.20 77.29L108.06 77.15Q104.98 77.07 102.82 79.57L102.78 79.54L102.81 79.57Q100.49 81.90 100.15 85.23L100.26 85.34L100.33 85.41Q99.93 89.01 101.83 90.71L101.80 90.68L101.76 90.63Q103.59 92.27 107.26 92.07L107.21 92.03L107.39 92.20Q110.99 91.87 112.92 90.67L112.89 90.65L112.95 90.70Q114.84 88.66 114.84 85.93L114.94 86.03L114.97 86.06Q114.93 85.36 114.80 84.69L114.73 84.62L114.73 84.62Q114.82 81.65 112.89 79.29L112.96 79.35L113.04 79.43Q111.03 76.99 108.10 77.19ZM107.38 96.66L107.37 96.65L107.43 96.70Q99.73 96.67 97.26 95.34L97.25 95.32L97.27 95.34Q95.38 93.91 95.04 90.92L95.21 91.08L95.16 91.04Q94.99 89.74 95.06 88.47L95.19 88.60L95.06 88.47Q95.28 86.76 95.28 85.96L95.28 85.95L95.40 86.08Q96.09 80.97 96.36 79.77L96.33 79.75L96.39 79.80Q97.25 76.47 98.72 74.01L98.66 73.95L98.69 73.97Q103.24 66.21 113.64 55.08L113.61 55.05L113.64 55.08Q118.40 54.65 122.26 53.25L122.23 53.21L122.16 53.14Q110.32 66.36 104.73 73.75L104.65 73.67L104.68 73.71Q106.32 72.75 108.59 72.75L108.68 72.85L108.70 72.86Q114.38 72.75 117.04 76.14L117.09 76.19L117.10 76.20Q119.47 79.10 120.07 85.29L120.09 85.32L120.11 85.33Q120.19 86.55 120.19 87.62L120.16 87.59L120.08 87.51Q120.18 93.07 116.32 94.93L116.38 94.99L116.26 94.88Q114.18 95.99 107.38 96.66ZM111.34 100.82L111.32 100.80L111.46 100.94Q113.69 100.84 117.16 100.97L117.08 100.89L117.01 100.82Q120.06 101.14 122.79 99.88L122.79 99.87L122.69 99.78Q124.72 98.48 124.72 95.35L124.58 95.21L124.65 95.28Q124.68 94.43 124.38 92.70L124.29 92.61L124.37 92.69Q124.01 90.90 124.01 90.10L123.93 90.02L124.05 90.14Q122.49 81.86 119.70 78.53L119.70 78.53L119.78 78.61Q119.49 78.25 119.22 77.85L119.39 78.02L118.67 77.43L118.66 77.50L118.55 77.38Q117.97 76.53 116.90 74.87L116.96 74.92L116.94 74.91Q115.36 73.26 111.89 72.46L111.92 72.49L111.82 72.39Q113.94 69.57 119.13 63.11L119.27 63.24L126.63 53.95L126.68 54.00Q123.93 55.51 119.73 56.84L119.63 56.75L119.68 56.80Q121.35 55.13 124.48 51.67L124.52 51.71L124.40 51.59Q120.28 53.53 113.49 54.53L113.42 54.46L113.47 54.51Q103.51 64.87 98.31 73.53L98.20 73.42L98.26 73.48Q95.60 77.88 94.60 88.80L94.54 88.75L94.64 88.85Q94.48 89.82 94.62 91.49L94.49 91.37L94.62 91.49Q94.74 94.55 96.67 96.14L96.69 96.16L96.65 96.13Q97.32 96.39 97.25 96.46L97.15 96.35L97.22 96.42Q97.87 98.01 99.27 98.74L99.23 98.70L99.28 98.75Q101.84 99.98 105.23 100.31L105.20 100.28L105.22 100.29Q105.34 100.41 111.47 100.94ZM111.00 81.23L110.88 81.10L111.03 81.26Q112.03 81.05 113.69 81.92L113.57 81.80L113.73 81.96Q114.33 83.62 114.33 84.75L114.15 84.58L114.14 84.56Q114.63 87.99 112.96 89.72L112.91 89.67L112.97 89.73Q111.01 90.90 107.35 91.43L107.33 91.41L107.37 91.45Q104.92 91.53 103.99 91.06L103.96 91.04L103.90 90.98Q103.58 90.20 103.58 89.66L103.58 89.66L103.52 89.60Q103.10 83.85 108.23 81.59L108.35 81.70L108.28 81.63Q109.67 81.09 111.00 81.22Z"/><path fill="#e68565" d="M217.02 97.00L216.95 96.92L216.85 96.83Q209.79 97.29 208.06 93.23L208.00 93.17L208.14 93.32Q209.39 91.56 212.12 88.43L212.16 88.47L212.15 88.47Q213.08 92.05 218.34 92.25L218.19 92.10L218.33 92.24Q224.23 92.35 227.10 90.02L227.07 89.99L227.13 90.05Q229.44 87.10 229.31 82.37L229.38 82.44L229.44 82.50Q229.08 73.55 220.69 73.95L220.64 73.90L220.77 74.03Q215.78 74.24 212.72 76.44L212.69 76.41L212.07 76.06L211.71 75.83L211.74 75.85Q212.34 70.33 212.14 65.53L212.13 65.52L212.20 65.59Q211.98 60.98 211.38 55.18L211.38 55.18L211.38 55.18Q217.82 56.89 224.48 56.69L224.39 56.60L224.45 56.66Q231.05 56.47 237.32 54.27L237.42 54.37L236.30 56.92L236.42 57.03Q235.92 58.41 235.59 59.87L235.43 59.71L235.60 59.88Q229.99 61.54 223.20 61.54L223.35 61.68L223.36 61.69Q220.68 61.54 218.08 61.28L218.23 61.43L218.12 61.32Q218.00 62.53 217.40 70.32L217.31 70.24L217.36 70.29Q218.80 69.46 222.40 69.20L222.51 69.30L222.57 69.36Q229.03 69.70 231.56 72.63L231.61 72.68L231.51 72.58Q233.98 75.32 234.45 82.05L234.38 81.98L234.40 81.99Q234.90 89.36 232.77 92.89L232.66 92.78L232.81 92.93Q229.23 96.22 223.44 96.62L223.32 96.50L223.48 96.66Q221.55 96.59 216.89 96.86ZM227.46 100.84L227.51 100.89L227.44 100.82Q233.47 100.98 236.80 99.05L236.93 99.19L236.82 99.07Q238.69 96.54 238.69 92.88L238.65 92.85L238.60 92.80Q238.59 87.39 236.93 80.19L236.84 80.11L236.91 80.18Q236.33 77.19 234.19 74.73L234.11 74.65L234.28 74.88L233.87 74.33L233.30 74.03L233.29 74.02Q232.74 72.75 231.61 71.55L231.48 71.42L231.46 71.47L231.53 71.53Q228.89 68.62 222.43 68.62L222.42 68.62L222.02 68.68L221.90 68.57Q222.09 67.62 222.42 65.68L222.47 65.74L222.44 65.70Q231.09 65.83 238.15 62.97L238.15 62.97L238.14 62.95Q239.01 60.63 240.68 55.70L240.61 55.63L236.91 57.26L236.94 57.28Q237.57 55.26 238.44 53.26L238.44 53.26L238.48 53.30Q231.78 55.86 224.58 55.99L224.54 55.95L224.51 55.92Q217.30 56.10 210.37 54.17L210.45 54.25L210.41 54.21Q211.59 61.92 211.59 69.65L211.54 69.59L211.57 69.63Q211.53 72.92 211.33 76.25L211.34 76.26L211.50 76.42Q211.84 76.63 212.84 77.16L212.81 77.13L212.78 77.10Q213.56 76.88 214.69 76.28L214.63 76.22L214.69 76.28Q214.55 77.53 214.15 80.20L214.08 80.13L214.05 80.10Q214.93 80.59 215.67 80.99L215.57 80.89L215.55 80.86Q220.42 77.81 223.69 77.81L223.74 77.87L223.70 77.82Q226.05 77.84 228.11 78.97L228.11 78.97L228.23 79.09Q228.66 80.72 228.72 82.38L228.83 82.49L228.79 82.45Q228.97 87.03 227.17 88.96L227.11 88.90L227.19 88.98Q224.74 91.06 220.81 91.46L220.75 91.40L220.75 91.40Q219.18 91.63 217.98 91.49L218.03 91.54L217.93 91.44Q216.51 91.29 215.18 90.69L215.13 90.64L215.13 90.31L214.89 90.47L214.96 90.54Q213.54 89.65 212.60 87.31L212.56 87.28L212.63 87.34Q210.30 89.81 207.37 93.54L207.37 93.54L207.32 93.49Q207.73 94.50 209.19 96.16L209.34 96.31L209.22 96.19Q211.14 99.44 216.07 100.31L215.98 100.22L216.09 100.33Q218.11 100.68 227.50 100.88Z"/><path d="M18 64 C185 39,187 41,337 11" stroke="#86edd3" fill="none"/><path d="M5 33 C162 97,165 122,327 121" stroke="#4cdbdb" fill="none"/><path d="M10 62 C171 20,153 57,324 101" stroke="#4dda93" fill="none"/><path d="M12 121 C166 103,157 85,337 75" stroke="#7adfad" fill="none"/><path d="M1 93 C173 8,164 135,327 2" stroke="#baed87" fill="none"/><path d="M3 39 C173 106,183 84,324 118" stroke="#9478e7" fill="none"/><path d="M18 93 C163 26,154 128,332 6" stroke="#8e43d9" fill="none"/><path d="M6 45 C165 73,180 132,330 27" stroke="#ee9f85" fill="none"/><path d="M11 20 C180 127,187 20,332 94" stroke="#e97048" fill="none"/><path d="M6 93 C169 131,188 36,332 108" stroke="#6faae5" fill="none"/><path d="M14 113 C171 59,190 70,325 21" stroke="#da9857" fill="none"/><path d="M3 49 C166 76,165 22,330 123" stroke="#eb92a8" fill="none"/><path fill="#ce72ed" d="M271.43 83.98L271.47 84.02L271.30 83.85Q276.76 83.25 282.36 83.45L282.35 83.44L282.38 83.47Q282.20 78.89 282.20 74.70L282.37 74.87L282.39 74.88Q282.21 70.38 282.55 65.92L282.62 65.99L282.55 65.92Q280.43 68.93 271.30 83.85ZM288.80 96.88L288.60 96.68L288.61 96.69Q285.75 96.24 282.62 96.10L282.57 96.06L282.73 96.21Q282.35 92.04 282.15 87.70L282.09 87.64L282.15 87.70Q272.70 87.25 264.44 89.72L264.47 89.74L264.49 89.77Q264.67 88.88 265.00 87.14L265.12 87.26L265.01 87.15Q268.21 81.69 274.47 70.69L274.48 70.71L274.48 70.71Q279.47 62.10 285.46 55.31L285.49 55.33L285.50 55.34Q287.03 55.01 289.96 54.54L289.99 54.57L290.00 54.58Q286.70 65.88 286.70 78.20L286.73 78.22L286.70 78.20Q286.73 80.82 286.86 83.42L286.77 83.33L289.07 83.56L288.98 83.47Q290.14 83.64 291.21 83.84L291.12 83.75L291.25 83.87Q291.36 85.52 291.83 88.92L291.86 88.96L291.89 88.98Q289.77 88.53 287.18 88.20L287.15 88.17L287.09 88.11Q287.45 91.61 288.65 96.74ZM291.58 83.08L291.69 83.19L291.70 83.19Q291.30 82.99 290.96 82.99L291.00 83.03L290.25 82.95L290.39 83.09Q290.04 80.34 290.04 77.87L290.06 77.89L290.15 77.99Q290.17 66.81 293.76 56.28L293.71 56.23L293.65 56.17Q292.34 56.66 289.81 57.32L289.90 57.41L289.78 57.29Q290.28 56.06 291.08 53.60L291.06 53.58L291.04 53.56Q288.67 54.12 285.07 54.52L285.25 54.69L285.13 54.58Q278.38 62.28 269.25 78.67L269.09 78.51L272.78 72.14L272.92 72.27Q272.14 74.03 271.67 75.02L271.55 74.90L263.89 90.83L263.90 90.84Q264.93 90.47 266.93 89.80L267.05 89.93L266.71 90.25L266.67 90.21Q266.54 91.48 266.01 93.68L265.96 93.63L266.05 93.72Q273.21 91.35 281.67 91.69L281.61 91.63L281.72 91.74Q281.72 93.33 282.05 96.80L281.96 96.71L281.95 96.69Q283.98 96.86 285.85 97.06L285.86 97.08L285.72 96.94Q286.02 98.17 286.49 100.57L286.49 100.57L286.59 100.68Q289.73 100.88 295.00 102.48L295.09 102.58L295.13 102.62Q293.27 98.76 291.67 93.03L291.73 93.09L294.32 93.94L294.32 93.94Q295.39 94.22 296.59 94.82L296.60 94.82L296.78 95.00Q295.31 90.53 295.04 87.60L295.11 87.67L295.11 87.68Q294.06 87.36 292.06 86.96L292.04 86.93L291.97 86.87Q291.56 84.59 291.56 83.05ZM277.63 82.85L277.57 82.80L277.62 82.84Q278.94 80.56 281.67 76.10L281.75 76.18L281.62 76.04Q281.62 77.71 281.55 79.38L281.55 79.37L281.70 79.52Q281.69 81.24 281.75 82.91L281.71 82.87L281.63 82.79Q280.73 82.82 279.73 82.82L279.62 82.71L279.73 82.82Q278.80 82.95 277.73 82.95Z"/><path d="M7 116 C175 88,157 83,332 29" stroke="#eb6082" fill="none"/><path fill="#7171ee" d="M165.90 67.14L165.95 67.18L166.07 67.30Q160.44 67.27 157.24 65.41L157.12 65.28L157.17 65.34Q161.63 63.00 170.16 55.60L170.20 55.64L170.05 55.50Q171.38 55.23 173.65 54.16L173.67 54.19L173.66 54.17Q171.40 64.64 171.20 75.76L171.04 75.60L171.08 75.64Q170.91 86.80 172.78 97.46L172.72 97.41L172.85 97.53Q169.77 96.12 166.04 95.92L166.17 96.05L166.14 96.02Q165.82 88.64 165.82 81.51L165.92 81.61L165.97 81.66Q165.94 74.44 166.01 67.24ZM165.32 71.15L165.40 96.74L165.26 96.60Q167.47 96.69 169.14 97.02L169.05 96.93L169.18 97.06Q169.19 98.14 169.53 100.54L169.48 100.49L169.48 100.49Q174.57 101.51 178.83 105.45L178.86 105.47L178.80 105.42Q174.53 93.02 174.47 79.96L174.52 80.01L174.42 79.92Q174.24 66.81 177.44 54.15L177.46 54.18L177.44 54.15Q176.52 54.90 173.72 56.83L173.83 56.94L173.76 56.87Q174.17 55.61 174.70 52.95L174.59 52.83L174.58 52.83Q172.32 54.23 169.79 54.90L169.86 54.97L169.67 54.78Q163.12 61.09 155.59 65.08L155.68 65.18L155.66 65.15Q158.13 67.09 162.26 67.69L162.28 67.71L162.20 67.63Q161.09 68.58 158.82 70.45L158.77 70.39L158.84 70.47Q161.35 71.04 165.21 71.04L165.27 71.10Z"/><path d="M2 10 C153 99,153 48,337 30" stroke="#9c82ed" fill="none"/><path d="M3 12 C164 16,186 111,337 31" stroke="#6fe08c" fill="none"/><path d="M5 81 C164 125,163 86,321 49" stroke="#60e080" fill="none"/><path d="M4 3 C175 36,154 111,340 76" stroke="#86e566" fill="none"/><path d="M15 126 C155 11,161 118,336 84" stroke="#8ea5ea" fill="none"/><path d="M19 59 C188 98,163 65,339 15" stroke="#e1e15a" fill="none"/><path d="M10 31 C171 107,162 99,330 116" stroke="#72e890" fill="none"/><path d="M12 122 C158 74,167 89,327 48" stroke="#5fe180" fill="none"/><path d="M20 129 C185 106,165 35,341 84" stroke="#a48fe4" fill="none"/><path d="M5 10 C189 85,180 73,325 53" stroke="#3863e5" fill="none"/><path d="M11 60 C161 81,189 79,339 134" stroke="#e94d4d" fill="none"/><path d="M12 105 C156 95,160 76,337 105" stroke="#b345d7" fill="none"/><path d="M4 86 C166 71,173 84,338 137" stroke="#a5e490" fill="none"/><path d="M4 88 C160 124,164 32,338 6" stroke="#d4d449" fill="none"/><path d="M12 136 C173 44,155 107,328 68" stroke="#4ee84e" fill="none"/><path d="M20 16 C150 68,151 52,332 74" stroke="#65eba8" fill="none"/><path d="M12 103 C152 15,172 48,329 18" stroke="#b27aea" fill="none"/><path d="M12 51 C175 34,179 126,332 15" stroke="#8e71e4" fill="none"/><path d="M3 4 C157 57,154 108,337 4" stroke="#62dabc" fill="none"/><path d="M6 35 C161 97,159 131,340 80" stroke="#eb89d2" fill="none"/></svg>