<svg xmlns="http://www.w3.org/2000/svg" width="342" height="140" viewBox="0,0,342,140"><path d="M21 58 C156 69,164 34,330 87" stroke="#debb53" fill="none"/><path d="M3 92 C187 51,166 96,323 66" stroke="#4ad3d3" fill="none"/><path d="M19 132 C174 27,152 137,340 25" stroke="#67da67" fill="none"/><path d="M7 92 C167 68,157 106,329 23" stroke="#af7ce3" fill="none"/><path d="M8 62 C189 51,168 89,322 114" stroke="#964be1" fill="none"/><path d="M5 6 C171 110,168 50,334 25" stroke="#e56a6a" fill="none"/><path d="M4 25 C162 91,171 20,331 19" stroke="#4cbfe5" fill="none"/><path fill="#8769e2" d="M63.95 67.19L64.02 67.27L63.83 67.08Q58.28 67.18 55.05 65.29L55.14 65.39L55.07 65.31Q59.53 62.91 68.14 55.44L68.14 55.44L68.05 55.34Q69.28 54.96 71.57 53.89L71.70 54.02L71.62 53.94Q69.34 64.51 69.14 75.75L69.11 75.72L69.16 75.77Q68.90 86.95 70.79 97.72L70.76 97.69L70.86 97.79Q67.76 96.37 63.99 96.17L64.10 96.28L64.11 96.29Q63.92 88.97 63.92 81.77L63.82 81.67L63.92 81.77Q63.84 74.42 63.91 67.15ZM63.27 71.16L63.21 96.88L63.31 96.97Q65.50 97.01 67.18 97.35L67.04 97.21L66.99 97.16Q67.21 98.46 67.55 100.88L67.57 100.90L67.47 100.80Q72.70 101.92 77.00 105.89L76.95 105.84L76.86 105.75Q72.58 93.25 72.51 80.06L72.53 80.08L72.40 79.95Q72.42 66.91 75.65 54.13L75.58 54.06L75.66 54.14Q74.68 54.84 71.85 56.79L71.82 56.76L71.89 56.83Q72.08 55.34 72.62 52.65L72.74 52.77L72.74 52.77Q70.31 54.04 67.76 54.72L67.76 54.72L67.68 54.63Q61.08 61.02 53.47 65.06L53.47 65.06L53.59 65.18Q55.94 66.99 60.11 67.60L60.15 67.64L60.21 67.70Q58.96 68.53 56.67 70.41L56.65 70.39L56.77 70.52Q59.44 71.24 63.35 71.24L63.23 71.12Z"/><path d="M18 12 C176 50,152 33,330 129" stroke="#ef85ef" fill="none"/><path d="M1 123 C156 30,167 4,336 124" stroke="#54dddd" fill="none"/><path d="M14 138 C165 31,174 104,324 50" stroke="#77e8af" fill="none"/><path d="M2 28 C166 89,189 68,331 132" stroke="#67e43e" fill="none"/><path d="M9 20 C165 78,186 65,336 133" stroke="#71df4d" fill="none"/><path d="M3 132 C151 45,191 136,337 78" stroke="#7f7fea" fill="none"/><path d="M17 128 C189 72,152 93,325 41" stroke="#9e5fdd" fill="none"/><path d="M2 42 C155 9,169 59,332 113" stroke="#e06238" fill="none"/><path d="M5 68 C158 2,177 27,334 80" stroke="#eeee8a" fill="none"/><path d="M17 46 C181 111,158 101,322 103" stroke="#ec8282" fill="none"/><path d="M16 18 C154 5,159 16,324 48" stroke="#ed82b7" fill="none"/><path d="M3 78 C191 34,165 43,339 45" stroke="#74e1e1" fill="none"/><path fill="#e188cb" d="M280.92 92.89L280.91 92.88L280.81 92.77Q281.30 94.47 282.24 98.04L282.34 98.14L282.25 98.05Q274.86 95.77 266.72 96.25L266.63 96.16L266.69 96.22Q258.67 96.75 251.60 100.25L251.57 100.22L251.67 100.31Q252.05 99.08 252.12 99.22L251.95 99.04L252.08 99.17Q258.62 92.12 265.55 84.31L265.65 84.41L265.48 84.24Q273.42 75.56 275.51 67.28L275.39 67.17L275.52 67.29Q276.30 64.17 274.05 62.09L274.01 62.05L274.04 62.08Q271.84 60.05 268.68 60.32L268.55 60.19L268.66 60.30Q267.94 60.12 267.33 60.12L267.43 60.21L267.48 60.26Q264.79 60.26 262.57 61.88L262.41 61.72L262.54 61.86Q260.16 64.18 260.56 68.89L260.64 68.97L260.59 68.92Q257.34 68.23 255.19 67.42L255.37 67.60L255.20 67.43Q254.99 65.07 254.85 62.51L254.75 62.40L254.73 62.39Q254.65 59.55 255.73 57.53L255.71 57.51L255.68 57.49Q258.88 55.09 264.80 55.09L264.78 55.08L267.95 55.15L267.98 55.17Q271.99 55.21 273.67 55.42L273.72 55.47L273.66 55.40Q281.35 56.16 281.82 60.47L281.74 60.39L281.77 60.42Q281.98 61.51 281.85 62.92L281.80 62.87L281.84 62.91Q281.65 63.94 281.38 65.15L281.54 65.31L281.47 65.23Q278.53 79.53 265.14 91.64L265.19 91.69L265.25 91.75Q267.70 91.44 270.12 91.44L270.18 91.50L270.12 91.44Q275.81 91.41 280.86 92.82ZM279.88 56.04L279.86 56.02L279.85 56.01Q276.96 54.80 273.93 54.67L273.95 54.69L267.89 54.35L267.90 54.36Q260.14 54.00 256.24 55.96L256.12 55.84L256.22 55.94Q254.27 58.29 254.27 61.93L254.24 61.90L254.24 61.90Q254.37 63.24 254.91 68.22L254.87 68.18L254.90 68.21Q255.75 68.52 257.83 69.06L257.83 69.05L257.93 70.98L257.82 70.86Q257.85 71.77 257.99 72.71L257.93 72.65L257.89 72.61Q260.15 72.86 264.53 73.26L264.48 73.22L264.56 73.30Q264.45 72.58 264.45 71.97L264.56 72.08L264.56 72.08Q264.48 68.77 266.64 66.38L266.73 66.48L266.65 66.40Q268.79 64.00 271.95 64.20L271.91 64.16L272.04 64.29Q273.36 64.33 274.71 64.60L274.60 64.49L274.67 64.56Q274.82 65.18 274.95 65.92L275.00 65.97L275.05 66.02Q275.07 66.71 274.94 67.32L274.96 67.34L274.84 67.22Q272.63 75.65 264.83 84.19L264.84 84.20L264.85 84.22Q261.09 88.20 251.47 98.90L251.58 99.01L251.47 98.90Q251.24 100.49 250.64 101.50L250.61 101.47L250.52 101.38Q253.39 99.88 256.08 98.94L256.10 98.96L256.07 98.93Q254.79 99.94 253.11 102.56L253.05 102.50L253.03 102.48Q252.92 103.18 252.71 103.78L252.66 103.73L252.75 103.81Q261.36 100.18 271.06 100.52L271.09 100.55L271.04 100.51Q280.97 100.68 289.05 104.85L289.07 104.87L287.37 101.16L287.32 101.10Q286.14 98.71 285.67 97.30L285.68 97.31L285.73 97.35Q284.47 96.64 282.32 95.90L282.33 95.91L282.24 95.82Q282.10 94.67 281.43 92.25L281.31 92.13L281.45 92.27Q277.48 91.19 273.44 90.86L273.51 90.93L273.39 90.80Q281.82 82.88 284.51 68.28L284.34 68.11L284.82 63.13L284.72 63.03Q284.58 59.87 282.43 58.66L282.54 58.77L282.34 58.63L282.31 58.60Q282.34 58.56 282.20 58.56L282.28 58.65L282.17 58.53Q281.81 57.10 279.86 56.02Z"/><path d="M9 8 C184 23,173 108,321 16" stroke="#8161df" fill="none"/><path fill="#5eed82" d="M130.72 77.27L130.62 77.17L130.66 77.21Q127.49 77.07 125.30 79.59L125.35 79.65L125.36 79.65Q123.03 82.04 122.70 85.40L122.86 85.56L122.73 85.43Q122.34 89.08 124.26 90.80L124.38 90.92L124.23 90.77Q126.28 92.62 129.98 92.42L129.98 92.42L129.90 92.34Q133.60 92.07 135.56 90.86L135.66 90.96L135.53 90.83Q137.54 88.87 137.54 86.11L137.60 86.17L137.61 86.18Q137.54 85.44 137.40 84.76L137.35 84.71L137.51 84.87Q137.53 81.79 135.58 79.40L135.66 79.49L135.62 79.45Q133.64 77.03 130.68 77.23ZM129.99 96.94L130.00 96.94L129.93 96.88Q122.24 96.93 119.75 95.58L119.69 95.52L119.83 95.65Q117.89 94.19 117.56 91.16L117.59 91.20L117.67 91.28Q117.54 90.00 117.61 88.72L117.60 88.72L117.64 88.76Q117.74 86.91 117.74 86.10L117.84 86.20L117.72 86.07Q118.53 81.03 118.80 79.82L118.82 79.85L118.95 79.97Q119.75 76.53 121.23 74.04L121.20 74.01L121.13 73.94Q125.93 66.29 136.43 55.05L136.45 55.07L136.27 54.90Q141.08 54.45 144.98 53.04L145.06 53.11L145.01 53.07Q132.95 66.31 127.30 73.79L127.17 73.65L127.26 73.75Q129.05 72.91 131.33 72.91L131.20 72.77L131.35 72.92Q137.07 72.79 139.76 76.22L139.71 76.17L139.75 76.21Q142.23 79.23 142.84 85.49L142.67 85.32L142.74 85.39Q142.90 86.69 142.90 87.77L142.86 87.73L142.94 87.81Q142.83 93.22 138.93 95.10L138.92 95.10L138.99 95.16Q136.89 96.30 130.03 96.97ZM133.99 101.13L134.05 101.20L133.93 101.08Q136.39 101.18 139.89 101.31L139.73 101.15L139.83 101.25Q142.73 101.39 145.49 100.12L145.51 100.14L145.45 100.08Q147.44 98.71 147.44 95.54L147.50 95.60L147.44 95.54Q147.39 94.62 147.09 92.87L147.08 92.86L147.07 92.85Q146.82 91.15 146.82 90.34L146.75 90.27L146.76 90.28Q145.32 82.05 142.49 78.68L142.43 78.62L142.47 78.65Q142.33 78.45 142.06 78.04L141.98 77.96L141.39 77.51L141.26 77.44L141.34 77.53Q140.74 76.66 139.66 74.98L139.75 75.06L139.76 75.08Q137.96 73.20 134.46 72.40L134.47 72.41L134.65 72.59Q136.76 69.72 142.01 63.19L141.94 63.12L149.50 53.85L149.51 53.86Q146.68 55.34 142.44 56.69L142.39 56.64L142.52 56.77Q143.96 54.84 147.12 51.34L147.26 51.48L147.11 51.33Q142.97 53.32 136.11 54.33L136.10 54.32L136.07 54.29Q126.04 64.78 120.79 73.53L120.66 73.40L120.84 73.58Q118.08 77.96 117.07 89.00L116.99 88.92L117.00 88.93Q116.93 90.00 117.06 91.68L117.15 91.77L117.09 91.70Q117.11 94.69 119.06 96.31L119.22 96.46L119.07 96.31Q119.75 96.59 119.68 96.65L119.81 96.78L119.71 96.69Q120.38 98.29 121.79 99.03L121.74 98.98L121.85 99.09Q124.29 100.19 127.73 100.53L127.75 100.55L127.89 100.69Q127.81 100.61 134.00 101.15ZM133.59 81.29L133.60 81.30L133.61 81.31Q134.59 81.08 136.28 81.95L136.32 81.99L136.39 82.07Q136.87 83.63 136.87 84.77L136.90 84.80L136.85 84.74Q137.27 88.13 135.59 89.88L135.60 89.89L135.56 89.86Q133.62 91.08 129.92 91.62L129.89 91.58L129.96 91.66Q127.33 91.58 126.39 91.11L126.38 91.10L126.39 91.12Q126.12 90.37 126.12 89.83L126.24 89.95L126.11 89.83Q125.78 84.11 130.97 81.82L130.90 81.76L130.88 81.74Q132.35 81.26 133.70 81.39Z"/><path d="M21 32 C181 130,153 102,326 11" stroke="#96e943" fill="none"/><path d="M4 107 C158 105,152 60,322 81" stroke="#8cecec" fill="none"/><path d="M13 59 C182 13,171 36,331 53" stroke="#54e2be" fill="none"/><path d="M12 54 C187 108,175 24,338 104" stroke="#9be650" fill="none"/><path d="M5 126 C160 34,179 134,323 131" stroke="#8ee23a" fill="none"/><path d="M16 14 C152 103,178 92,324 35" stroke="#e1805f" fill="none"/><path d="M2 106 C152 129,151 14,322 4" stroke="#e862a5" fill="none"/><path d="M8 57 C159 54,165 3,331 128" stroke="#e7e792" fill="none"/><path d="M14 112 C183 132,153 77,331 25" stroke="#c76ae5" fill="none"/><path d="M18 122 C177 95,168 71,333 15" stroke="#629ed9" fill="none"/><path d="M20 44 C159 128,182 44,322 69" stroke="#d58bed" fill="none"/><path d="M14 130 C156 18,175 18,337 22" stroke="#7ccde8" fill="none"/><path d="M4 60 C157 137,164 124,321 37" stroke="#62da9e" fill="none"/><path d="M1 14 C181 136,177 31,340 89" stroke="#5f9edd" fill="none"/><path fill="#5151e0" d="M192.96 97.05L193.09 97.18L193.05 97.14Q190.60 97.31 187.84 96.57L187.72 96.45L187.72 96.46Q185.54 94.81 185.27 91.92L185.38 92.03L185.45 92.10Q185.34 91.72 185.68 87.08L185.53 86.93L185.69 87.09Q187.35 86.60 190.92 85.92L191.06 86.07L190.75 87.44L190.67 87.36Q190.26 90.52 192.75 91.53L192.74 91.51L192.65 91.43Q194.12 92.09 197.82 92.09L197.83 92.10L197.78 92.05Q200.68 91.85 201.02 91.72L201.04 91.74L201.00 91.70Q202.57 91.39 203.85 90.51L203.77 90.43L203.92 90.58Q206.28 88.77 205.94 85.07L205.93 85.06L206.00 85.12Q205.77 80.92 202.71 78.16L202.63 78.09L202.61 78.06Q199.53 75.29 195.16 75.29L195.25 75.38L195.15 74.88L195.19 74.92Q195.81 74.80 197.36 74.66L197.40 74.71L197.33 74.64Q200.75 74.49 203.18 72.31L203.28 72.41L203.18 72.31Q205.62 70.14 205.89 66.85L205.93 66.88L205.93 66.88Q206.02 66.24 206.02 65.63L205.94 65.55L205.94 65.54Q205.93 62.85 203.51 61.23L203.61 61.33L203.51 61.23Q201.49 59.95 198.66 60.15L198.53 60.02L198.52 60.01Q196.31 59.82 194.16 60.56L194.18 60.59L194.22 60.62Q191.71 61.61 191.17 63.63L191.09 63.55L191.02 63.48Q190.74 64.88 190.87 66.22L190.85 66.21L190.96 66.32Q189.00 65.77 185.36 64.49L185.41 64.53L185.45 64.57Q184.99 61.56 185.06 60.08L185.10 60.12L185.10 60.12Q185.24 57.36 187.12 56.15L187.16 56.19L187.24 56.27Q189.74 55.20 192.56 55.20L192.49 55.13L192.53 55.17Q198.16 55.14 203.75 55.61L203.65 55.52L203.74 55.61Q212.61 56.27 212.07 62.93L212.07 62.93L212.01 62.86Q211.92 65.53 211.04 68.29L211.04 68.29L211.06 68.31Q209.43 73.75 205.26 75.36L205.23 75.34L205.22 75.33Q209.83 76.24 210.91 82.16L210.98 82.23L210.98 82.23Q211.48 84.34 211.61 87.91L211.59 87.88L211.53 87.83Q211.74 95.65 203.60 96.45L203.68 96.53L203.64 96.49Q202.30 96.57 192.95 97.04ZM202.23 101.08L202.28 101.12L202.33 101.17Q203.29 101.12 208.33 101.25L208.31 101.23L208.35 101.27Q211.37 101.33 214.27 100.19L214.38 100.30L214.39 100.31Q216.43 98.58 216.09 95.48L216.18 95.57L216.05 95.44Q215.88 93.12 215.34 90.03L215.45 90.13L215.35 90.03Q214.07 82.09 210.63 79.19L210.68 79.24L210.32 78.54L210.25 78.40L210.23 78.39Q213.33 75.83 214.67 68.09L214.68 68.09L214.63 68.04Q214.86 67.40 215.06 65.72L214.96 65.61L214.88 65.53Q215.06 64.24 214.93 63.03L214.89 62.99L214.91 63.01Q214.61 60.02 212.32 58.81L212.42 58.90L212.30 58.92L212.27 58.89Q211.82 57.23 209.80 56.28L209.77 56.25L209.81 56.29Q206.97 54.93 197.88 54.39L197.86 54.37L198.01 54.52Q194.95 54.29 192.12 54.29L192.24 54.40L192.18 54.34Q189.29 54.28 186.60 55.43L186.67 55.50L186.64 55.47Q184.48 56.80 184.48 59.90L184.44 59.86L184.38 59.81Q184.50 59.18 184.97 65.10L184.97 65.11L184.99 65.13Q185.48 65.21 188.37 66.28L188.41 66.32L188.42 66.34Q188.43 67.28 188.36 68.16L188.29 68.08L188.36 68.16Q188.32 68.99 188.38 69.93L188.41 69.96L188.33 69.88Q191.50 70.56 195.07 70.76L195.10 70.79L195.13 70.82Q195.07 67.33 197.02 65.85L196.98 65.81L197.02 65.85Q198.35 64.55 201.92 64.15L201.91 64.14L201.98 64.21Q203.97 64.18 204.98 64.52L205.09 64.63L205.06 64.60Q205.17 64.84 205.23 65.04L205.19 65.00L205.09 65.23L205.34 66.29L205.28 66.23Q205.31 66.60 205.25 66.87L205.29 66.91L205.18 66.81Q205.18 69.97 202.49 72.05L202.48 72.05L202.46 72.03Q200.75 73.55 197.18 73.88L197.21 73.91L197.26 73.96Q196.02 74.27 194.47 74.27L194.51 74.31L194.36 74.16Q194.59 74.93 194.86 76.14L194.84 76.11L194.86 76.14Q197.92 76.10 200.48 77.38L200.52 77.42L200.26 77.36L197.39 77.59L197.48 77.68Q197.50 78.24 197.70 79.32L197.78 79.39L197.69 79.31Q201.42 79.13 204.45 81.49L204.54 81.58L204.51 81.54Q204.93 82.23 205.47 85.13L205.49 85.16L205.46 85.13Q205.84 90.35 200.66 91.09L200.62 91.05L200.67 91.11Q197.00 91.60 195.99 91.53L195.87 91.41L195.84 91.38Q195.07 91.22 194.12 91.08L194.15 91.11L194.22 90.37L194.45 89.59L194.46 88.86L194.50 88.30L194.55 88.34Q192.78 88.40 191.37 88.73L191.31 88.68L191.33 88.70Q191.44 88.46 191.44 88.13L191.37 88.06L191.28 87.97Q191.44 87.73 191.44 87.32L191.41 87.29L191.35 87.23Q191.52 86.60 191.79 85.32L191.66 85.18L191.72 85.24Q188.39 85.62 185.10 86.23L185.10 86.23L185.20 86.33Q185.20 87.21 185.00 89.19L184.92 89.11L185.03 89.22Q184.73 91.11 184.73 92.19L184.65 92.11L184.77 92.23Q184.93 95.89 187.36 97.24L187.30 97.18L187.40 97.28Q189.91 101.20 198.25 100.86L198.18 100.80L198.36 100.97Q199.50 100.77 202.19 101.03Z"/><path d="M18 114 C170 135,152 78,340 130" stroke="#e6e674" fill="none"/><path d="M7 71 C178 85,173 80,340 3" stroke="#6a45d7" fill="none"/><path d="M15 89 C152 68,186 78,322 93" stroke="#ee9f85" fill="none"/><path d="M5 117 C173 98,178 25,332 21" stroke="#e89595" fill="none"/><path d="M18 4 C183 10,173 65,321 85" stroke="#db46db" fill="none"/><path d="M3 71 C188 72,159 49,325 111" stroke="#dd9b59" fill="none"/></svg>