<svg xmlns="http://www.w3.org/2000/svg" width="342" height="140" viewBox="0,0,342,140"><path d="M20 131 C180 73,157 133,335 105" stroke="#a4e58e" fill="none"/><path d="M16 68 C164 58,182 23,322 6" stroke="#d94343" fill="none"/><path d="M9 38 C159 69,181 2,324 43" stroke="#4ce0bb" fill="none"/><path d="M13 123 C190 27,178 19,338 108" stroke="#e83535" fill="none"/><path d="M6 2 C162 123,166 92,338 84" stroke="#91e791" fill="none"/><path d="M11 104 C186 18,175 113,334 136" stroke="#e868a8" fill="none"/><path d="M15 123 C161 82,161 108,337 84" stroke="#6c6ced" fill="none"/><path d="M12 95 C168 24,188 40,325 104" stroke="#aae273" fill="none"/><path d="M9 24 C165 31,155 50,330 100" stroke="#df964d" fill="none"/><path d="M15 112 C166 75,186 68,328 92" stroke="#7e5fdd" fill="none"/><path d="M2 126 C177 27,189 1,326 23" stroke="#e5b584" fill="none"/><path d="M7 90 C162 87,167 128,330 8" stroke="#c1e065" fill="none"/><path fill="#83b2e1" d="M267.27 76.94L267.23 76.89L267.30 76.97Q264.17 76.90 262.17 79.09L262.07 78.99L262.22 79.14Q260.19 81.30 259.94 84.43L259.93 84.41L259.92 84.41Q259.60 87.90 261.60 89.56L261.68 89.63L261.69 89.64Q263.59 91.20 267.09 91.08L267.02 91.00L267.18 91.17Q271.00 90.93 272.57 89.36L272.55 89.35L272.44 89.23Q274.25 86.98 274.06 83.98L273.92 83.83L274.05 83.96Q273.84 80.88 272.06 78.91L271.94 78.79L272.07 78.92Q270.16 76.83 267.16 76.83ZM267.11 61.33L267.12 61.33L267.07 61.28Q264.74 61.08 262.55 61.90L262.72 62.07L262.68 62.02Q260.58 63.36 260.95 66.43L260.85 66.32L260.96 66.44Q261.67 72.46 267.18 72.46L267.18 72.46L267.31 72.59Q269.68 72.72 271.31 70.84L271.34 70.88L271.33 70.86Q272.97 69.00 273.03 66.44L273.00 66.40L273.09 66.49Q273.14 63.54 271.95 62.54L272.00 62.59L271.97 62.56Q269.37 61.34 267.25 61.46ZM266.74 95.17L266.76 95.18L261.66 95.09L261.78 95.21Q259.26 95.19 257.07 93.75L257.05 93.74L257.02 93.70Q254.70 91.76 254.95 87.07L255.09 87.20L255.05 87.16Q255.72 75.82 261.66 74.20L261.69 74.23L261.80 74.34Q257.87 72.67 255.68 63.85L255.74 63.90L255.86 64.02Q255.17 61.58 255.30 60.27L255.29 60.26L255.36 60.34Q255.80 56.77 261.86 56.71L261.82 56.66L261.91 56.76Q268.93 56.70 271.31 57.02L271.21 56.92L271.20 56.91Q277.63 57.90 278.38 61.22L278.22 61.05L278.31 61.14Q278.41 62.06 278.41 62.69L278.50 62.77L278.48 62.75Q278.39 63.79 278.08 64.79L278.08 64.79L278.11 64.82Q277.09 71.74 272.27 74.24L272.36 74.33L272.44 74.41Q278.18 75.71 278.99 84.41L278.94 84.35L278.88 84.29Q279.01 84.67 279.07 86.80L279.07 86.79L279.05 86.78Q279.11 91.21 276.48 92.96L276.48 92.96L276.46 92.94Q274.21 94.38 266.71 95.13ZM270.55 99.04L270.53 99.02L275.93 99.04L275.88 98.99Q278.71 99.13 281.21 97.94L281.23 97.96L281.36 98.09Q283.17 96.84 283.29 93.77L283.19 93.67L283.30 93.78Q283.27 91.87 282.64 88.68L282.67 88.71L282.67 88.71Q281.23 81.13 277.79 78.07L277.79 78.07L277.53 77.50L277.18 77.03L276.85 76.51L276.91 76.57Q279.68 74.40 281.18 67.58L281.12 67.52L281.02 67.42Q281.15 66.93 281.28 65.55L281.15 65.42L281.28 65.55Q281.41 64.43 281.28 63.43L281.20 63.35L281.21 63.35Q280.92 60.94 278.98 60.13L279.02 60.17L279.07 60.15L278.72 59.93L278.75 59.96Q278.32 58.77 276.38 57.46L276.44 57.53L276.49 57.51L276.40 57.42Q273.14 56.29 266.45 55.98L266.61 56.14L266.44 55.96Q264.04 55.94 261.79 56.13L261.75 56.09L261.70 56.05Q260.32 56.04 258.20 56.29L258.28 56.37L258.19 56.28Q255.14 57.05 254.76 59.74L254.73 59.70L254.78 59.75Q254.60 60.45 254.66 61.76L254.74 61.84L254.61 61.71Q254.93 62.72 255.87 66.60L255.86 66.59L255.75 66.48Q257.23 71.96 260.11 74.15L259.97 74.01L260.24 74.29L260.23 74.27Q255.57 76.30 254.69 84.81L254.74 84.86L254.78 84.89Q254.49 88.55 254.49 90.05L254.38 89.94L254.31 89.87Q254.45 92.82 256.39 94.32L256.52 94.45L256.44 94.37Q256.65 94.52 257.09 94.83L257.14 94.89L257.08 94.83Q258.70 98.51 270.40 98.89ZM269.91 80.76L269.92 80.77L269.82 80.68Q271.47 80.70 272.91 81.45L272.78 81.32L272.93 81.47Q273.49 83.03 273.42 83.90L273.42 83.90L273.35 83.83Q273.42 84.33 273.42 84.83L273.40 84.81L273.43 84.84Q273.44 88.73 269.69 90.11L269.63 90.05L269.67 90.10Q268.41 90.64 267.10 90.46L267.05 90.41L267.09 90.45Q265.29 90.65 263.41 89.90L263.32 89.81L263.43 89.92Q262.93 88.79 263.05 87.16L263.15 87.26L263.01 87.13Q263.41 84.65 265.38 82.65L265.39 82.65L265.38 82.64Q267.30 80.59 269.93 80.78ZM270.32 65.22L270.24 65.15L270.29 65.20Q271.57 64.98 272.45 65.23L272.53 65.31L272.47 66.57L272.45 66.54Q272.56 68.97 271.06 70.62L270.94 70.50L270.99 70.55Q269.50 72.22 267.25 71.91L267.26 71.92L267.20 71.86Q265.67 71.96 264.98 71.58L264.97 71.57L264.83 71.43Q264.92 71.15 264.73 70.02L264.60 69.89L264.60 69.88Q264.20 67.61 266.20 66.23L266.26 66.29L266.22 66.25Q268.06 65.22 270.37 65.28Z"/><path d="M11 77 C153 50,156 25,330 95" stroke="#4793df" fill="none"/><path d="M10 16 C168 114,161 73,337 2" stroke="#ec9191" fill="none"/><path d="M11 136 C158 103,158 15,329 75" stroke="#5ae65a" fill="none"/><path d="M15 112 C166 25,155 139,322 110" stroke="#62ed85" fill="none"/><path d="M21 103 C150 9,162 55,336 77" stroke="#e85dc6" fill="none"/><path d="M12 64 C158 78,157 31,336 119" stroke="#bd67da" fill="none"/><path d="M20 2 C181 102,187 116,326 55" stroke="#db5196" fill="none"/><path d="M2 127 C176 15,151 21,323 77" stroke="#f1d688" fill="none"/><path d="M15 65 C170 135,172 72,331 85" stroke="#67c4e4" fill="none"/><path d="M19 92 C163 53,152 39,339 135" stroke="#78cfec" fill="none"/><path d="M20 106 C188 5,155 87,322 7" stroke="#6aebaa" fill="none"/><path d="M19 112 C192 17,170 138,326 68" stroke="#8bed8b" fill="none"/><path d="M7 50 C166 33,171 38,326 77" stroke="#4fe299" fill="none"/><path fill="#8ce335" d="M131.04 76.71L131.11 76.77L131.00 76.67Q128.17 76.65 126.14 79.00L126.14 79.00L126.01 78.86Q124.11 81.34 123.79 84.47L123.79 84.47L123.65 84.33Q123.26 87.69 125.04 89.28L125.09 89.33L125.22 89.45Q126.90 90.95 130.34 90.76L130.38 90.80L130.42 90.84Q133.77 90.50 135.58 89.38L135.69 89.48L135.58 89.38Q137.55 87.65 137.55 85.09L137.46 85.00L137.48 85.02Q137.44 84.36 137.32 83.73L137.41 83.83L137.41 83.83Q137.46 81.00 135.64 78.77L135.70 78.83L135.60 78.73Q133.92 76.65 131.17 76.83ZM130.32 94.94L130.48 95.10L130.34 94.95Q123.28 95.09 120.97 93.84L120.81 93.68L120.91 93.78Q119.17 92.47 118.85 89.66L118.87 89.68L118.96 89.77Q118.82 88.57 118.89 87.38L118.96 87.46L118.95 87.45Q119.14 85.82 119.14 85.06L119.15 85.08L119.15 85.08Q119.91 80.40 120.16 79.27L120.09 79.20L120.05 79.16Q120.84 76.01 122.22 73.70L122.18 73.66L122.30 73.78Q126.50 66.41 136.25 55.96L136.34 56.05L136.38 56.09Q140.74 55.57 144.37 54.26L144.29 54.18L144.44 54.33Q133.01 66.42 127.76 73.36L127.86 73.46L127.83 73.43Q129.52 72.68 131.65 72.68L131.54 72.57L131.53 72.57Q137.01 72.61 139.51 75.80L139.44 75.72L139.48 75.76Q141.76 78.55 142.33 84.36L142.29 84.32L142.20 84.24Q142.33 85.43 142.33 86.43L142.49 86.60L142.35 86.45Q142.38 91.61 138.75 93.36L138.70 93.31L138.84 93.45Q136.74 94.35 130.36 94.97ZM134.06 98.87L134.24 99.04L134.22 99.02Q136.20 98.82 139.46 98.94L139.51 98.99L139.62 99.11Q142.28 99.20 144.85 98.02L144.86 98.03L144.73 97.90Q146.59 96.63 146.59 93.70L146.55 93.66L146.52 93.62Q146.65 92.94 146.37 91.31L146.39 91.34L146.40 91.35Q145.97 89.58 145.97 88.82L145.95 88.80L146.12 88.97Q144.51 81.04 141.88 77.91L141.93 77.97L142.01 78.05Q141.93 77.90 141.68 77.53L141.56 77.41L141.06 77.03L140.92 76.96L140.98 77.01Q140.41 76.19 139.41 74.63L139.44 74.66L139.49 74.71Q137.93 73.09 134.68 72.34L134.70 72.36L134.71 72.37Q136.69 69.72 141.57 63.66L141.58 63.66L148.49 54.94L148.56 55.01Q145.82 56.28 141.88 57.53L141.91 57.55L141.98 57.62Q143.44 55.96 146.38 52.70L146.43 52.75L146.39 52.71Q142.47 54.48 136.09 55.42L136.18 55.52L136.01 55.35Q126.67 65.08 121.79 73.21L121.93 73.35L121.77 73.19Q119.28 77.32 118.34 87.58L118.41 87.65L118.35 87.60Q118.26 88.57 118.39 90.13L118.33 90.08L118.38 90.13Q118.58 93.07 120.39 94.57L120.43 94.61L120.34 94.52Q120.88 94.69 120.82 94.76L120.97 94.90L120.88 94.81Q121.59 96.40 122.90 97.08L122.81 97.00L122.84 97.03Q125.26 98.20 128.45 98.51L128.48 98.53L128.40 98.45Q128.49 98.55 134.25 99.05ZM133.80 80.53L133.72 80.45L133.83 80.56Q134.70 80.31 136.27 81.12L136.36 81.21L136.23 81.08Q136.91 82.77 136.91 83.83L136.86 83.78L136.81 83.73Q137.18 86.85 135.62 88.48L135.59 88.44L135.55 88.41Q133.74 89.54 130.30 90.04L130.42 90.16L130.34 90.08Q128.05 90.16 127.17 89.72L127.12 89.67L127.15 89.70Q126.89 89.00 126.89 88.50L126.86 88.47L126.84 88.45Q126.56 83.16 131.37 81.04L131.23 80.90L131.26 80.93Q132.43 80.29 133.68 80.41Z"/><path d="M9 29 C175 121,176 138,328 119" stroke="#69a8e7" fill="none"/><path d="M9 68 C173 80,173 62,330 132" stroke="#6c6ce4" fill="none"/><path d="M16 80 C182 38,176 121,331 80" stroke="#e46c8a" fill="none"/><path d="M8 118 C168 42,153 51,340 9" stroke="#81edb7" fill="none"/><path d="M14 5 C182 130,154 120,339 55" stroke="#80e9b5" fill="none"/><path d="M19 134 C190 42,154 55,330 120" stroke="#a8ec63" fill="none"/><path d="M9 41 C161 3,180 136,338 55" stroke="#ebb784" fill="none"/><path d="M8 137 C173 35,183 101,332 138" stroke="#7a94df" fill="none"/><path d="M7 44 C181 48,189 77,338 26" stroke="#dc7350" fill="none"/><path d="M19 22 C184 66,156 64,330 63" stroke="#40e7bd" fill="none"/><path d="M16 65 C180 34,161 7,340 91" stroke="#68e8a8" fill="none"/><path d="M21 9 C174 123,190 35,326 24" stroke="#dddd45" fill="none"/><path fill="#57da57" d="M192.76 83.06L192.72 83.01L192.78 83.08Q197.94 82.54 203.19 82.73L203.10 82.64L203.09 82.63Q202.95 78.36 202.95 74.42L203.12 74.59L203.08 74.56Q202.98 70.38 203.29 66.19L203.30 66.21L203.42 66.33Q201.34 69.06 192.77 83.07ZM208.95 95.06L209.05 95.16L209.04 95.14Q206.37 94.73 203.43 94.60L203.44 94.61L203.28 94.45Q203.12 90.73 202.93 86.66L202.90 86.63L202.86 86.59Q194.06 86.24 186.31 88.55L186.27 88.52L186.26 88.50Q186.52 87.76 186.83 86.13L186.92 86.22L186.81 86.12Q189.85 81.02 195.73 70.70L195.64 70.62L195.56 70.53Q200.40 62.61 206.02 56.23L206.09 56.29L206.04 56.25Q207.54 56.00 210.29 55.56L210.17 55.44L210.19 55.46Q207.08 66.04 207.08 77.61L207.07 77.60L207.05 77.58Q207.08 80.05 207.20 82.49L207.20 82.49L209.35 82.70L209.42 82.77Q210.31 82.72 211.31 82.91L211.32 82.92L211.34 82.94Q211.64 84.67 212.07 87.86L211.97 87.75L211.93 87.71Q210.04 87.39 207.60 87.08L207.45 86.92L207.47 86.94Q207.83 90.25 208.96 95.07ZM211.79 82.33L211.73 82.27L211.79 82.33Q211.38 82.10 211.06 82.10L211.17 82.20L210.62 82.28L210.59 82.25Q210.28 79.68 210.28 77.37L210.35 77.44L210.38 77.47Q210.44 67.03 213.82 57.14L213.68 57.01L213.72 57.05Q212.48 57.50 210.10 58.12L210.02 58.04L210.04 58.06Q210.54 56.94 211.29 54.62L211.31 54.63L211.26 54.59Q209.16 55.24 205.78 55.61L205.71 55.54L205.74 55.57Q199.30 62.71 190.74 78.09L190.81 78.17L194.24 72.15L194.20 72.12Q193.50 73.79 193.06 74.73L193.04 74.71L185.80 89.61L185.68 89.49Q186.81 89.31 188.69 88.68L188.71 88.70L188.45 89.07L188.38 88.99Q188.21 90.14 187.71 92.20L187.76 92.26L187.62 92.12Q194.42 89.98 202.37 90.29L202.34 90.26L202.48 90.40Q202.48 91.91 202.80 95.16L202.79 95.15L202.82 95.18Q204.58 95.19 206.33 95.38L206.23 95.27L206.32 95.36Q206.56 96.49 207.00 98.74L207.07 98.81L206.89 98.63Q210.05 99.03 214.99 100.53L215.12 100.66L215.01 100.56Q213.43 97.10 211.93 91.72L211.90 91.69L214.38 92.54L214.38 92.54Q215.37 92.78 216.49 93.34L216.52 93.38L216.55 93.40Q215.28 89.32 215.03 86.56L215.06 86.60L214.99 86.53Q214.00 86.23 212.13 85.85L212.19 85.92L212.23 85.96Q211.80 83.77 211.80 82.33ZM198.58 81.99L198.63 82.05L198.75 82.17Q199.91 79.95 202.47 75.76L202.54 75.82L202.37 75.66Q202.57 77.42 202.50 78.98L202.32 78.80L202.37 78.84Q202.39 80.49 202.45 82.05L202.55 82.15L202.54 82.15Q201.59 82.07 200.66 82.07L200.62 82.04L200.56 81.97Q199.65 82.07 198.65 82.07Z"/><path d="M12 8 C160 98,187 45,340 114" stroke="#e5cf8e" fill="none"/><path d="M10 105 C160 115,192 100,329 46" stroke="#4ce5e5" fill="none"/><path d="M19 12 C167 50,186 53,323 64" stroke="#69ddc0" fill="none"/><path fill="#e769c7" d="M64.20 67.36L64.31 67.47L64.27 67.42Q59.05 67.46 56.04 65.71L55.87 65.53L55.95 65.61Q60.19 63.47 68.19 56.53L68.11 56.45L68.02 56.35Q69.35 56.18 71.48 55.18L71.46 55.17L71.49 55.19Q69.20 64.85 69.01 75.29L69.06 75.35L69.07 75.35Q68.78 85.69 70.53 95.70L70.65 95.82L70.68 95.86Q67.94 94.68 64.44 94.49L64.28 94.33L64.25 94.30Q64.16 87.58 64.16 80.89L64.07 80.80L64.13 80.86Q64.13 74.11 64.19 67.35ZM63.65 71.13L63.61 95.04L63.57 95.00Q65.67 95.09 67.23 95.41L67.23 95.41L67.21 95.38Q67.36 96.54 67.67 98.79L67.57 98.68L67.50 98.61Q72.36 99.66 76.36 103.35L76.31 103.29L76.36 103.34Q72.14 91.50 72.08 79.24L72.08 79.24L72.17 79.33Q72.11 67.14 75.11 55.25L75.08 55.22L75.12 55.26Q74.14 55.85 71.51 57.66L71.54 57.68L71.58 57.73Q71.86 56.45 72.36 53.94L72.44 54.02L72.43 54.01Q70.18 55.20 67.80 55.82L67.72 55.74L67.75 55.77Q61.57 61.66 54.50 65.42L54.51 65.42L54.49 65.41Q56.86 67.27 60.73 67.83L60.62 67.72L60.68 67.78Q59.75 68.79 57.62 70.54L57.56 70.48L57.57 70.49Q60.04 71.14 63.66 71.14L63.51 70.98Z"/></svg>