<svg xmlns="http://www.w3.org/2000/svg" width="342" height="140" viewBox="0,0,342,140"><path d="M18 80 C181 45,161 75,337 70" stroke="#eb8383" fill="none"/><path d="M16 115 C169 16,161 110,337 57" stroke="#8ad1e9" fill="none"/><path d="M9 23 C180 120,191 51,322 7" stroke="#40e2b9" fill="none"/><path d="M12 85 C162 102,166 130,337 33" stroke="#549ee7" fill="none"/><path d="M6 127 C185 132,167 49,328 26" stroke="#70e14b" fill="none"/><path d="M15 94 C162 16,165 116,327 102" stroke="#92a7e7" fill="none"/><path d="M2 98 C186 102,172 44,337 73" stroke="#8163dd" fill="none"/><path d="M12 130 C177 27,157 69,338 80" stroke="#6f8be1" fill="none"/><path d="M9 24 C164 46,175 92,328 46" stroke="#dd3ab4" fill="none"/><path d="M13 10 C171 91,171 127,324 71" stroke="#e245e2" fill="none"/><path d="M18 77 C160 9,152 65,337 85" stroke="#91bce7" fill="none"/><path d="M19 1 C175 101,150 81,328 35" stroke="#8eebeb" fill="none"/><path fill="#8eebd3" d="M164.32 78.02L164.21 77.90L164.27 77.96Q160.71 77.71 158.33 80.46L158.26 80.40L158.35 80.49Q155.91 83.18 155.54 86.85L155.67 86.98L155.65 86.96Q155.17 90.89 157.26 92.76L157.26 92.76L157.19 92.69Q159.31 94.58 163.34 94.36L163.36 94.38L163.29 94.31Q167.30 93.98 169.42 92.66L169.50 92.73L169.50 92.74Q171.72 90.62 171.72 87.61L171.64 87.53L171.69 87.58Q171.71 86.88 171.57 86.14L171.68 86.25L171.48 86.06Q171.75 82.95 169.62 80.34L169.69 80.41L169.53 80.25Q167.42 77.66 164.19 77.88ZM163.49 99.42L163.33 99.27L163.43 99.37Q154.93 99.31 152.21 97.84L152.33 97.96L152.29 97.92Q150.25 96.40 149.88 93.09L149.85 93.06L150.02 93.22Q149.86 91.82 149.94 90.43L149.90 90.39L149.96 90.45Q150.11 88.48 150.11 87.59L150.14 87.62L150.13 87.61Q151.10 82.19 151.39 80.87L151.33 80.81L151.33 80.81Q152.15 77.00 153.77 74.29L153.87 74.39L153.74 74.27Q158.98 65.92 170.43 53.66L170.41 53.63L170.39 53.62Q175.53 53.03 179.79 51.49L179.72 51.41L179.82 51.52Q166.62 65.92 160.45 74.07L160.37 73.98L160.51 74.13Q162.35 73.11 164.85 73.11L164.75 73.01L164.80 73.06Q171.14 73.01 174.07 76.75L174.15 76.83L174.12 76.80Q176.67 79.94 177.33 86.76L177.45 86.88L177.38 86.81Q177.59 88.27 177.59 89.45L177.50 89.36L177.56 89.42Q177.43 95.31 173.18 97.37L173.24 97.43L173.36 97.55Q170.94 98.65 163.45 99.39ZM167.79 103.95L167.87 104.03L167.90 104.06Q170.31 103.90 174.13 104.05L174.08 104.00L174.13 104.05Q177.24 104.15 180.25 102.76L180.41 102.92L180.35 102.86Q182.48 101.31 182.48 97.86L182.44 97.82L182.44 97.82Q182.37 96.80 182.04 94.89L182.05 94.90L182.04 94.89Q181.87 93.14 181.87 92.26L181.79 92.17L181.74 92.13Q180.15 83.13 177.07 79.45L177.01 79.40L176.92 79.31Q176.95 79.27 176.66 78.83L176.57 78.73L176.06 78.37L175.88 78.27L175.89 78.27Q175.08 77.17 173.91 75.34L174.03 75.46L174.00 75.44Q172.25 73.61 168.44 72.73L168.40 72.70L168.38 72.68Q170.83 69.69 176.56 62.57L176.58 62.60L184.58 52.24L184.72 52.37Q181.64 54.00 177.02 55.47L177.00 55.45L177.08 55.53Q178.71 53.49 182.16 49.67L182.13 49.64L182.16 49.67Q177.53 51.72 170.04 52.82L170.15 52.93L170.05 52.83Q159.05 64.23 153.33 73.77L153.39 73.84L153.39 73.83Q150.41 78.64 149.31 90.68L149.28 90.65L149.25 90.62Q149.12 91.74 149.27 93.58L149.30 93.61L149.38 93.69Q149.45 96.99 151.58 98.75L151.54 98.72L151.58 98.76Q152.29 99.02 152.21 99.09L152.25 99.13L152.27 99.15Q153.01 100.92 154.55 101.72L154.64 101.82L154.55 101.72Q157.38 103.09 161.13 103.45L161.15 103.47L161.03 103.36Q160.98 103.31 167.74 103.89ZM167.34 82.28L167.45 82.39L167.41 82.35Q168.50 82.12 170.34 83.08L170.38 83.11L170.32 83.06Q170.99 84.90 170.99 86.15L171.08 86.24L170.90 86.06Q171.36 89.75 169.52 91.66L169.58 91.72L169.51 91.64Q167.52 93.11 163.49 93.70L163.36 93.57L163.41 93.62Q160.71 93.72 159.69 93.20L159.63 93.15L159.66 93.17Q159.15 92.15 159.15 91.56L159.25 91.67L159.15 91.57Q158.75 85.29 164.40 82.79L164.46 82.85L164.54 82.93Q165.97 82.23 167.44 82.38Z"/><path d="M20 118 C173 67,158 75,328 13" stroke="#7fe95c" fill="none"/><path d="M2 103 C152 4,153 84,325 112" stroke="#cded6c" fill="none"/><path d="M18 111 C167 74,157 16,330 124" stroke="#edcf77" fill="none"/><path d="M14 87 C151 87,170 62,337 132" stroke="#91e939" fill="none"/><path d="M4 86 C158 59,162 110,322 74" stroke="#7bdfc6" fill="none"/><path d="M11 110 C165 15,161 22,326 111" stroke="#e75f81" fill="none"/><path d="M19 83 C164 136,162 83,322 99" stroke="#e5bb3c" fill="none"/><path d="M16 84 C157 124,189 133,338 111" stroke="#7cd1ed" fill="none"/><path d="M9 8 C158 108,169 18,327 102" stroke="#c15ee2" fill="none"/><path d="M11 133 C175 73,152 110,336 21" stroke="#abe797" fill="none"/><path d="M3 18 C178 47,169 24,332 96" stroke="#6666ea" fill="none"/><path d="M10 100 C156 7,175 6,339 23" stroke="#e4579e" fill="none"/><path d="M9 91 C158 88,168 18,325 9" stroke="#8bbced" fill="none"/><path fill="#e8ba8b" d="M107.52 77.88L107.65 78.01L107.66 78.02Q104.07 77.73 101.68 80.49L101.70 80.51L101.59 80.40Q99.19 83.14 98.83 86.81L98.87 86.85L98.86 86.84Q98.44 90.83 100.53 92.70L100.63 92.80L100.47 92.63Q102.55 94.50 106.59 94.28L106.70 94.38L106.75 94.43Q110.64 93.99 112.77 92.67L112.92 92.83L112.95 92.86Q115.02 90.59 115.02 87.58L115.11 87.67L115.11 87.68Q115.14 86.97 115.00 86.24L114.95 86.19L114.97 86.21Q115.13 83.00 113.01 80.39L113.01 80.40L112.84 80.23Q110.84 77.75 107.61 77.97ZM106.84 99.45L106.79 99.40L106.86 99.47Q98.37 99.42 95.65 97.95L95.55 97.85L95.60 97.90Q93.70 96.51 93.33 93.21L93.24 93.11L93.34 93.22Q93.13 91.76 93.20 90.36L93.16 90.31L93.33 90.49Q93.49 88.51 93.49 87.63L93.43 87.58L93.39 87.53Q94.41 82.17 94.70 80.85L94.72 80.87L94.60 80.74Q95.61 77.13 97.23 74.41L97.14 74.33L97.13 74.31Q102.20 65.81 113.65 53.54L113.78 53.67L113.84 53.73Q118.85 53.01 123.11 51.47L123.17 51.54L123.05 51.41Q110.01 65.98 103.84 74.13L103.83 74.12L103.79 74.08Q105.76 73.18 108.25 73.18L108.22 73.15L108.23 73.16Q114.48 73.02 117.41 76.76L117.49 76.83L117.53 76.88Q119.99 79.92 120.65 86.75L120.67 86.77L120.68 86.78Q120.80 88.15 120.80 89.33L120.85 89.37L120.83 89.36Q120.84 95.38 116.58 97.44L116.64 97.50L116.68 97.54Q114.21 98.59 106.72 99.33ZM111.15 103.97L111.19 104.02L111.13 103.95Q113.71 103.96 117.53 104.11L117.51 104.09L117.40 103.98Q120.58 104.16 123.59 102.76L123.60 102.77L123.68 102.85Q125.78 101.28 125.78 97.83L125.75 97.80L125.73 97.78Q125.88 96.97 125.55 95.06L125.35 94.87L125.45 94.96Q125.22 93.15 125.22 92.27L125.16 92.22L125.14 92.20Q123.39 83.03 120.31 79.36L120.32 79.38L120.28 79.33Q120.14 79.12 119.85 78.68L119.88 78.71L119.33 78.31L119.26 78.32L119.23 78.28Q118.50 77.26 117.33 75.43L117.35 75.45L117.25 75.35Q115.66 73.68 111.84 72.80L111.80 72.76L111.68 72.64Q114.04 69.57 119.77 62.45L119.85 62.53L128.01 52.33L128.02 52.34Q124.89 53.91 120.26 55.38L120.38 55.50L120.38 55.50Q122.20 53.65 125.65 49.83L125.59 49.77L125.47 49.65Q120.96 51.82 113.47 52.92L113.38 52.83L113.47 52.92Q102.42 64.26 96.69 73.80L96.77 73.89L96.68 73.79Q93.85 78.75 92.75 90.79L92.71 90.75L92.71 90.75Q92.54 91.83 92.69 93.66L92.62 93.60L92.67 93.64Q92.86 97.07 94.99 98.83L94.93 98.77L95.00 98.84Q95.64 99.04 95.57 99.12L95.54 99.08L95.66 99.21Q96.27 100.85 97.82 101.65L97.81 101.65L97.82 101.65Q100.59 102.96 104.33 103.33L104.39 103.38L104.45 103.44Q104.49 103.49 111.25 104.07ZM110.74 82.34L110.77 82.37L110.74 82.35Q111.84 82.13 113.68 83.08L113.63 83.04L113.57 82.98Q114.25 84.83 114.25 86.07L114.22 86.05L114.40 86.22Q114.71 89.77 112.87 91.68L112.91 91.72L112.90 91.70Q110.74 92.99 106.70 93.58L106.70 93.58L106.82 93.70Q104.04 93.70 103.01 93.19L102.92 93.10L102.88 93.06Q102.56 92.23 102.56 91.65L102.55 91.63L102.53 91.61Q102.05 85.25 107.70 82.76L107.88 82.93L107.86 82.92Q109.26 82.19 110.73 82.34Z"/><path d="M7 47 C163 108,186 7,328 85" stroke="#5a79d7" fill="none"/><path fill="#e8cd7c" d="M228.50 74.26L228.43 74.18L228.50 74.26Q229.98 74.19 232.69 73.90L232.60 73.80L232.63 73.83Q232.70 75.23 232.70 76.47L232.69 76.46L232.52 78.71L232.71 78.91Q231.04 78.85 229.42 78.99L229.31 78.89L229.38 78.96Q227.75 79.01 226.14 78.94L226.10 78.91L226.14 78.95Q220.60 90.80 213.99 99.68L214.09 99.79L214.06 99.76Q209.28 101.07 206.79 102.25L206.63 102.09L206.73 102.19Q214.65 91.17 220.53 79.06L220.58 79.11L215.48 79.08L215.34 78.94Q215.33 76.36 215.11 73.79L215.29 73.97L215.15 73.83Q218.93 74.23 222.90 74.23L222.83 74.16L226.47 67.02L226.43 66.97Q228.45 63.42 230.80 60.33L230.75 60.28L230.71 60.24Q227.78 60.61 224.69 60.61L224.60 60.52L224.76 60.68Q213.01 60.67 205.74 56.41L205.62 56.29L204.36 52.98L204.35 52.97Q203.68 51.34 202.94 49.65L202.96 49.67L203.05 49.76Q211.35 54.75 222.36 55.19L222.43 55.27L222.36 55.20Q232.35 55.72 242.27 51.90L242.15 51.79L242.20 51.84Q241.90 52.71 240.95 54.40L240.91 54.36L240.90 54.35Q234.03 63.63 228.52 74.28ZM244.03 57.04L244.00 57.01L245.88 53.09L245.84 53.05Q244.10 54.10 240.87 55.49L240.91 55.53L241.12 54.79L241.30 54.97Q241.39 54.55 241.61 54.33L241.65 54.37L241.66 54.37Q242.39 53.05 243.78 50.48L243.84 50.53L243.81 50.51Q233.50 54.88 222.41 54.44L222.34 54.36L222.36 54.39Q210.81 53.92 201.63 48.20L201.62 48.19L201.72 48.28Q203.61 51.79 205.23 56.93L205.25 56.96L205.28 56.99Q207.31 58.13 208.85 58.72L208.96 58.83L208.90 58.77Q209.17 59.41 210.05 63.01L210.07 63.02L210.05 63.00Q216.12 65.40 226.77 65.11L226.76 65.10L226.84 65.18Q226.15 66.17 222.33 73.44L222.36 73.48L222.36 73.47Q218.36 73.44 214.54 73.07L214.65 73.18L214.64 73.17Q214.68 74.68 214.68 76.37L214.86 76.54L214.78 79.77L218.09 79.85L218.06 82.54L218.03 82.51Q210.48 96.76 205.12 103.67L205.11 103.66L205.08 103.62Q208.20 102.20 211.36 101.24L211.33 101.21L211.29 101.17Q210.08 103.04 207.44 106.35L207.31 106.22L207.38 106.29Q213.38 104.07 218.08 103.63L218.21 103.76L218.17 103.72Q223.79 96.42 229.81 83.35L229.92 83.46L236.40 83.70L236.52 83.82Q236.24 81.92 236.24 80.16L236.38 80.30L236.38 76.85L236.36 76.83Q235.75 76.73 234.69 76.81L234.70 76.82L234.76 76.88Q233.71 76.97 233.20 76.97L233.22 76.99L233.04 76.81Q233.06 76.61 233.13 76.32L233.28 76.46L233.30 75.97L233.17 75.84Q238.12 66.03 244.07 57.08Z"/><path d="M2 118 C176 109,168 74,322 122" stroke="#9072e8" fill="none"/><path d="M12 59 C178 125,154 96,338 66" stroke="#d75a5a" fill="none"/><path d="M20 38 C173 82,169 138,328 134" stroke="#57c5ea" fill="none"/><path d="M2 123 C178 37,184 34,335 91" stroke="#c7e278" fill="none"/><path d="M17 59 C151 79,178 93,322 96" stroke="#66df84" fill="none"/><path d="M16 72 C170 116,152 59,334 36" stroke="#e2829a" fill="none"/><path d="M5 33 C155 70,151 52,340 99" stroke="#93eba9" fill="none"/><path fill="#9144de" d="M52.24 66.93L52.16 66.86L52.32 67.01Q46.09 66.95 42.56 64.89L42.59 64.92L42.53 64.86Q47.28 62.12 56.68 53.97L56.68 53.97L56.73 54.02Q58.10 53.63 60.60 52.45L60.72 52.58L60.57 52.43Q58.03 63.92 57.81 76.18L57.96 76.32L57.89 76.25Q57.72 88.57 59.78 100.32L59.75 100.29L59.66 100.20Q56.47 98.84 52.36 98.62L52.41 98.67L52.29 98.55Q52.19 90.67 52.19 82.82L52.17 82.79L52.17 82.79Q52.07 74.76 52.14 66.83ZM51.46 71.22L51.56 99.44L51.46 99.33Q53.79 99.32 55.63 99.68L55.77 99.83L55.61 99.67Q55.82 101.06 56.19 103.70L56.19 103.70L56.10 103.61Q61.67 104.70 66.37 109.03L66.39 109.05L66.43 109.10Q61.55 95.26 61.48 80.87L61.53 80.92L61.52 80.91Q61.49 66.64 65.01 52.69L64.97 52.65L64.84 52.51Q63.81 53.32 60.72 55.45L60.77 55.49L60.72 55.45Q61.10 53.99 61.69 51.05L61.74 51.11L61.87 51.23Q59.25 52.65 56.46 53.38L56.37 53.30L56.43 53.35Q49.14 60.24 40.85 64.64L40.91 64.71L40.84 64.64Q43.60 66.81 48.15 67.47L48.05 67.37L48.06 67.38Q46.79 68.38 44.30 70.44L44.38 70.53L44.41 70.56Q47.32 71.34 51.58 71.34L51.42 71.17Z"/><path d="M16 62 C187 45,155 85,330 65" stroke="#d8b859" fill="none"/><path d="M21 120 C175 64,181 32,324 71" stroke="#e13b8e" fill="none"/><path d="M16 63 C159 54,159 32,338 90" stroke="#ec9173" fill="none"/><path d="M12 41 C188 75,180 137,333 25" stroke="#4c91d6" fill="none"/><path d="M11 23 C191 125,159 12,327 115" stroke="#62bcda" fill="none"/><path d="M20 86 C178 126,191 19,329 42" stroke="#72afed" fill="none"/><path d="M4 12 C153 88,169 77,332 66" stroke="#d5eb92" fill="none"/><path fill="#dede71" d="M271.42 99.65L271.29 99.51L271.45 99.67Q268.68 99.76 265.67 98.96L265.58 98.86L265.71 99.00Q263.27 97.14 262.97 93.98L263.09 94.11L262.99 94.00Q263.00 93.71 263.36 88.65L263.30 88.58L263.24 88.53Q265.33 88.26 269.22 87.53L269.25 87.56L268.85 89.00L268.87 89.01Q268.35 92.38 271.06 93.49L270.91 93.33L271.05 93.47Q272.46 94.00 276.49 94.00L276.50 94.01L276.61 94.12Q279.60 93.73 279.97 93.58L280.10 93.71L280.07 93.68Q281.82 93.37 283.21 92.42L283.17 92.37L283.20 92.41Q285.81 90.47 285.44 86.43L285.50 86.48L285.58 86.56Q285.23 81.88 281.89 78.87L281.77 78.75L281.80 78.79Q278.43 75.74 273.66 75.74L273.64 75.73L273.69 75.33L273.75 75.39Q274.51 75.35 276.20 75.20L276.06 75.06L276.09 75.09Q279.90 75.01 282.54 72.62L282.50 72.58L282.45 72.53Q285.10 70.15 285.39 66.55L285.36 66.52L285.41 66.57Q285.48 65.84 285.48 65.18L285.46 65.16L285.53 65.22Q285.50 62.26 282.86 60.50L282.87 60.51L282.97 60.61Q280.50 58.94 277.42 59.16L277.36 59.11L277.40 59.15Q275.04 58.99 272.69 59.80L272.65 59.76L272.66 59.77Q269.86 60.79 269.27 62.99L269.16 62.87L269.25 62.97Q268.81 64.36 268.95 65.82L269.02 65.89L268.97 65.84Q267.11 65.52 263.14 64.13L263.06 64.05L263.01 64.00Q262.64 60.84 262.72 59.22L262.77 59.27L262.67 59.18Q263.01 56.36 265.07 55.04L264.94 54.91L264.96 54.94Q267.65 53.73 270.73 53.73L270.84 53.84L270.75 53.74Q276.87 53.70 282.97 54.22L282.98 54.23L282.95 54.20Q292.66 54.95 292.07 62.22L292.07 62.22L292.09 62.24Q291.99 65.15 291.04 68.16L290.96 68.08L290.99 68.12Q289.28 74.11 284.73 75.87L284.75 75.90L284.68 75.82Q289.72 76.82 290.89 83.28L291.00 83.39L290.91 83.31Q291.41 85.56 291.56 89.46L291.61 89.51L291.46 89.36Q291.87 98.07 282.99 98.95L282.95 98.91L282.97 98.94Q281.57 99.07 271.36 99.58ZM281.38 103.88L281.52 104.01L281.47 103.96Q282.69 104.08 288.19 104.23L288.04 104.08L288.02 104.06Q291.48 104.29 294.64 103.04L294.73 103.13L294.61 103.00Q296.92 101.21 296.55 97.83L296.65 97.92L296.54 97.81Q296.27 95.19 295.68 91.82L295.69 91.83L295.64 91.78Q294.31 83.18 290.57 80.02L290.64 80.10L290.33 79.42L290.16 79.17L290.24 79.26Q293.57 76.42 295.04 67.98L295.11 68.04L295.03 67.96Q295.13 67.11 295.35 65.28L295.39 65.32L295.27 65.20Q295.48 63.79 295.34 62.47L295.35 62.49L295.30 62.44Q295.07 59.27 292.58 57.95L292.46 57.84L292.37 57.89L292.41 57.93Q291.87 56.07 289.66 55.04L289.62 54.99L289.55 54.92Q286.72 53.71 276.81 53.13L276.76 53.07L276.70 53.02Q273.53 52.93 270.45 52.93L270.34 52.82L270.36 52.84Q267.39 52.96 264.45 54.20L264.45 54.20L264.31 54.06Q261.99 55.56 261.99 58.94L261.99 58.94L262.09 59.03Q262.05 58.18 262.56 64.64L262.55 64.63L262.49 64.58Q263.11 64.76 266.27 65.93L266.39 66.05L266.27 65.93Q266.23 66.92 266.16 67.87L266.27 67.99L266.24 67.95Q266.21 68.88 266.28 69.91L266.23 69.86L266.33 69.95Q269.84 70.75 273.73 70.97L273.59 70.83L273.58 70.82Q273.44 66.94 275.57 65.32L275.67 65.42L275.65 65.40Q277.33 64.22 281.22 63.78L281.12 63.67L281.13 63.68Q283.25 63.60 284.35 63.97L284.46 64.08L284.40 64.02Q284.44 64.20 284.51 64.42L284.68 64.59L284.59 64.87L284.90 66.06L284.85 66.01Q284.76 66.29 284.69 66.58L284.81 66.71L284.63 66.52Q284.52 69.86 281.58 72.14L281.65 72.21L281.70 72.26Q279.93 74.01 276.04 74.38L275.96 74.30L276.08 74.42Q274.66 74.68 272.97 74.68L272.93 74.65L272.85 74.57Q272.98 75.28 273.27 76.60L273.18 76.52L273.24 76.57Q276.70 76.66 279.49 78.05L279.37 77.93L279.31 78.09L276.15 78.31L276.26 78.42Q276.36 79.10 276.58 80.28L276.58 80.28L276.58 80.28Q280.67 80.11 283.97 82.68L283.86 82.57L283.86 82.57Q284.38 83.38 284.96 86.54L284.92 86.49L285.01 86.58Q285.27 92.13 279.62 92.94L279.67 92.99L279.76 93.08Q275.54 93.41 274.43 93.33L274.48 93.38L274.48 93.38Q273.68 93.24 272.66 93.10L272.54 92.98L272.57 92.13L272.89 91.35L272.87 90.52L272.93 89.92L273.01 90.00Q271.05 90.02 269.51 90.39L269.69 90.57L269.58 90.46Q269.61 90.13 269.61 89.76L269.46 89.60L269.49 89.63Q269.59 89.30 269.59 88.86L269.53 88.79L269.58 88.85Q269.72 88.10 270.01 86.70L270.03 86.73L270.02 86.72Q266.46 87.19 262.86 87.85L262.76 87.75L262.74 87.73Q262.74 88.68 262.52 90.85L262.65 90.98L262.52 90.85Q262.43 93.15 262.43 94.32L262.34 94.23L262.26 94.15Q262.50 98.21 265.14 99.68L265.06 99.60L265.04 99.58Q268.03 104.10 277.13 103.74L277.14 103.75L277.05 103.66Q278.48 103.62 281.42 103.91Z"/></svg>