<svg xmlns="http://www.w3.org/2000/svg" width="342" height="140" viewBox="0,0,342,140"><path d="M12 91 C154 31,170 6,333 116" stroke="#deb539" fill="none"/><path d="M7 131 C188 47,166 116,334 63" stroke="#db5173" fill="none"/><path fill="#eba056" d="M64.42 67.51L64.49 67.57L64.53 67.61Q59.58 67.57 56.77 65.93L56.76 65.92L56.77 65.93Q60.52 63.72 68.00 57.23L68.12 57.35L68.02 57.25Q69.14 56.96 71.12 56.02L71.25 56.15L71.28 56.18Q69.19 65.25 69.01 75.02L68.96 74.97L68.99 75.00Q68.76 84.71 70.40 94.06L70.41 94.07L70.50 94.16Q67.77 92.89 64.50 92.72L64.57 92.79L64.52 92.74Q64.35 86.37 64.35 80.11L64.33 80.09L64.35 80.11Q64.33 73.79 64.39 67.47ZM63.95 71.06L63.84 93.35L63.96 93.47Q65.83 93.46 67.29 93.76L67.25 93.71L67.23 93.69Q67.33 94.73 67.62 96.84L67.55 96.77L67.54 96.76Q72.00 97.65 75.74 101.10L75.72 101.08L75.83 101.19Q71.97 90.19 71.91 78.73L71.79 78.62L71.86 78.68Q71.70 67.18 74.51 56.08L74.66 56.22L74.52 56.09Q73.79 56.82 71.34 58.52L71.30 58.48L71.25 58.43Q71.59 57.31 72.06 54.97L72.14 55.05L71.98 54.90Q70.06 56.19 67.84 56.77L67.79 56.73L67.79 56.73Q61.93 62.15 55.33 65.66L55.38 65.71L55.36 65.69Q57.54 67.40 61.16 67.93L61.26 68.02L61.23 67.99Q60.21 68.79 58.22 70.42L58.29 70.49L58.14 70.34Q60.50 71.01 63.89 71.01L63.96 71.08Z"/><path d="M18 49 C176 13,163 3,332 43" stroke="#b2d646" fill="none"/><path d="M20 138 C152 17,182 119,337 108" stroke="#eac24c" fill="none"/><path d="M16 46 C163 57,176 129,339 58" stroke="#91db46" fill="none"/><path d="M4 46 C178 17,176 97,336 63" stroke="#d6b75b" fill="none"/><path d="M17 41 C189 35,161 100,328 85" stroke="#aa77de" fill="none"/><path d="M16 94 C189 47,190 133,338 9" stroke="#ebeb84" fill="none"/><path d="M8 61 C174 118,156 66,332 108" stroke="#7e5be5" fill="none"/><path d="M7 71 C158 17,173 106,340 42" stroke="#7352d5" fill="none"/><path d="M14 12 C173 69,192 110,329 113" stroke="#7ab5ef" fill="none"/><path d="M17 127 C162 29,190 116,328 112" stroke="#bc88f0" fill="none"/><path d="M18 70 C185 77,175 126,338 36" stroke="#87e287" fill="none"/><path d="M14 121 C190 14,186 114,328 78" stroke="#7dec99" fill="none"/><path d="M15 31 C151 111,156 4,327 2" stroke="#ecaf73" fill="none"/><path d="M15 105 C173 19,175 9,322 121" stroke="#bee546" fill="none"/><path d="M1 96 C189 114,162 73,334 66" stroke="#aa6ce9" fill="none"/><path fill="#eba35a" d="M194.38 93.47L194.52 93.61L194.45 93.54Q192.34 93.71 189.94 93.07L189.96 93.09L189.87 93.00Q188.02 91.61 187.78 89.10L187.76 89.07L187.88 89.20Q187.71 88.79 188.00 84.75L188.04 84.79L187.95 84.70Q189.52 84.40 192.62 83.82L192.77 83.97L192.52 85.18L192.34 85.00Q191.96 87.71 194.12 88.59L194.27 88.75L194.12 88.59Q195.36 89.13 198.57 89.13L198.55 89.10L198.70 89.25Q200.99 88.86 201.29 88.74L201.34 88.79L201.39 88.84Q202.81 88.63 203.92 87.87L203.90 87.85L203.83 87.78Q205.99 86.31 205.70 83.10L205.84 83.24L205.84 83.24Q205.50 79.45 202.84 77.05L202.80 77.01L202.72 76.94Q200.19 74.66 196.39 74.66L196.35 74.63L196.39 74.31L196.28 74.21Q196.87 74.16 198.22 74.04L198.25 74.07L198.19 74.01Q201.15 73.87 203.25 71.97L203.33 72.05L203.34 72.06Q205.40 70.11 205.63 67.25L205.61 67.23L205.66 67.27Q205.71 66.69 205.71 66.16L205.70 66.14L205.68 66.12Q205.79 63.89 203.68 62.49L203.68 62.49L203.65 62.46Q201.77 61.23 199.32 61.40L199.35 61.43L199.34 61.42Q197.30 61.13 195.42 61.78L195.56 61.91L195.55 61.90Q193.27 62.66 192.80 64.42L192.71 64.32L192.77 64.38Q192.45 65.52 192.57 66.69L192.61 66.73L192.66 66.78Q191.00 66.36 187.84 65.25L187.83 65.23L187.92 65.32Q187.48 62.66 187.54 61.37L187.49 61.33L187.57 61.40Q187.68 59.00 189.32 57.95L189.48 58.11L189.46 58.09Q191.64 57.17 194.09 57.17L193.93 57.00L194.00 57.08Q198.93 57.09 203.78 57.50L203.72 57.45L203.62 57.34Q211.40 57.99 210.93 63.78L211.09 63.94L210.92 63.77Q210.85 66.09 210.09 68.49L210.06 68.46L210.23 68.63Q208.78 73.32 205.15 74.72L205.05 74.62L205.12 74.69Q209.10 75.45 210.03 80.59L210.03 80.59L210.06 80.62Q210.34 82.31 210.46 85.40L210.64 85.58L210.65 85.59Q210.69 92.24 203.62 92.95L203.71 93.04L203.61 92.94Q202.64 93.19 194.51 93.60ZM202.40 96.93L202.47 97.00L202.47 97.00Q203.43 97.08 207.82 97.20L207.80 97.19L207.88 97.27Q210.57 97.38 213.08 96.39L212.93 96.24L213.09 96.39Q214.84 94.87 214.55 92.18L214.61 92.25L214.56 92.19Q214.34 90.11 213.88 87.42L213.96 87.50L213.86 87.40Q212.81 80.56 209.83 78.05L209.87 78.10L209.43 77.36L209.44 77.31L209.53 77.40Q212.15 75.11 213.32 68.39L213.38 68.45L213.28 68.35Q213.33 67.64 213.51 66.18L213.48 66.15L213.56 66.23Q213.74 65.13 213.63 64.07L213.55 64.00L213.63 64.08Q213.25 61.36 211.26 60.30L211.36 60.40L211.19 60.35L211.20 60.36Q210.63 58.74 208.87 57.92L209.07 58.11L209.04 58.08Q206.71 57.04 198.82 56.57L198.81 56.56L198.84 56.59Q196.15 56.36 193.69 56.36L193.73 56.40L193.62 56.29Q191.25 56.38 188.91 57.37L188.97 57.43L188.87 57.32Q187.05 58.54 187.05 61.23L186.98 61.17L186.99 61.17Q187.11 60.65 187.52 65.79L187.42 65.69L187.47 65.74Q187.92 65.85 190.43 66.78L190.53 66.88L190.41 66.76Q190.49 67.66 190.43 68.42L190.42 68.40L190.33 68.31Q190.45 69.19 190.50 70.01L190.35 69.85L190.47 69.98Q193.25 70.59 196.35 70.77L196.35 70.77L196.20 70.62Q196.21 67.64 197.90 66.36L197.82 66.28L197.90 66.36Q199.23 65.41 202.33 65.06L202.22 64.95L202.18 64.91Q203.92 64.89 204.80 65.19L204.83 65.22L204.91 65.30Q204.94 65.44 204.99 65.62L205.04 65.66L204.97 65.89L205.14 66.76L205.27 66.88Q205.23 67.13 205.17 67.37L205.10 67.30L205.18 67.38Q204.90 69.85 202.56 71.66L202.63 71.72L202.65 71.75Q201.17 73.08 198.07 73.37L198.25 73.54L198.23 73.53Q196.99 73.63 195.65 73.63L195.77 73.75L195.71 73.69Q195.77 74.22 196.00 75.27L195.92 75.19L195.94 75.22Q198.72 75.30 200.94 76.41L200.91 76.39L200.76 76.41L198.32 76.65L198.37 76.71Q198.40 77.20 198.57 78.14L198.66 78.22L198.48 78.05Q201.80 77.98 204.43 80.02L204.40 79.99L204.47 80.05Q204.84 80.67 205.31 83.18L205.27 83.14L205.27 83.14Q205.52 87.60 201.02 88.24L200.98 88.21L201.05 88.27Q197.95 88.80 197.07 88.74L196.99 88.66L196.91 88.58Q196.29 88.48 195.47 88.36L195.51 88.41L195.53 87.73L195.71 87.03L195.61 86.28L195.82 85.96L195.79 85.94Q194.32 86.04 193.09 86.34L193.06 86.31L193.01 86.26Q193.09 86.04 193.09 85.75L193.08 85.74L193.06 85.72Q193.14 85.44 193.14 85.09L193.02 84.98L193.13 85.08Q193.05 84.31 193.29 83.20L193.42 83.33L193.43 83.34Q190.56 83.69 187.70 84.21L187.60 84.12L187.68 84.20Q187.73 85.01 187.55 86.73L187.53 86.71L187.40 86.58Q187.21 88.29 187.21 89.22L187.23 89.24L187.38 89.39Q187.48 92.53 189.58 93.70L189.43 93.55L189.46 93.58Q191.79 97.14 199.04 96.85L199.05 96.85L198.97 96.77Q200.16 96.79 202.49 97.03Z"/><path d="M15 78 C172 103,184 48,338 126" stroke="#e13be1" fill="none"/><path d="M4 41 C168 88,178 109,330 68" stroke="#79e0e0" fill="none"/><path d="M2 128 C180 102,171 76,327 110" stroke="#5fddbd" fill="none"/><path d="M10 43 C179 43,167 88,340 135" stroke="#cf87e7" fill="none"/><path d="M4 120 C172 116,155 88,332 5" stroke="#7ced98" fill="none"/><path d="M16 106 C167 96,176 75,334 75" stroke="#e65a7d" fill="none"/><path d="M21 122 C158 108,174 59,321 3" stroke="#ee7b98" fill="none"/><path d="M19 102 C190 103,168 65,326 138" stroke="#d95396" fill="none"/><path d="M11 113 C189 77,155 18,324 130" stroke="#e368a5" fill="none"/><path d="M15 50 C158 102,175 129,340 67" stroke="#e368e3" fill="none"/><path d="M20 71 C185 83,178 130,327 50" stroke="#6be4e4" fill="none"/><path d="M6 69 C187 72,154 117,334 97" stroke="#38e58e" fill="none"/><path d="M15 66 C183 37,185 49,331 112" stroke="#df7bc6" fill="none"/><path d="M15 113 C172 95,183 75,322 41" stroke="#bff08e" fill="none"/><path d="M20 34 C184 91,151 85,327 37" stroke="#8deb8d" fill="none"/><path d="M19 97 C157 71,163 80,332 74" stroke="#7fea7f" fill="none"/><path fill="#db5196" d="M268.40 67.48L268.47 67.55L268.39 67.47Q263.58 67.57 260.78 65.94L260.82 65.99L260.79 65.96Q264.68 63.88 272.17 57.39L272.06 57.28L272.14 57.36Q273.17 57.00 275.16 56.06L275.15 56.05L275.20 56.10Q273.08 65.15 272.91 74.91L272.93 74.94L273.05 75.05Q272.79 84.73 274.42 94.08L274.41 94.07L274.36 94.02Q271.87 93.00 268.60 92.82L268.60 92.83L268.65 92.87Q268.39 86.41 268.39 80.16L268.50 80.27L268.31 80.08Q268.32 73.77 268.38 67.46ZM267.92 71.04L267.79 93.30L267.81 93.31Q269.82 93.46 271.29 93.75L271.17 93.63L271.28 93.75Q271.29 94.69 271.58 96.80L271.65 96.87L271.58 96.80Q276.03 97.68 279.78 101.13L279.84 101.20L279.79 101.15Q275.89 90.11 275.83 78.65L275.79 78.62L275.79 78.61Q275.79 67.27 278.59 56.16L278.49 56.06L278.68 56.24Q277.85 56.88 275.39 58.57L275.32 58.50L275.28 58.46Q275.61 57.33 276.08 54.99L276.07 54.98L276.01 54.92Q274.07 56.20 271.85 56.78L271.80 56.73L271.80 56.74Q265.92 62.14 259.32 65.65L259.31 65.65L259.43 65.76Q261.50 67.36 265.12 67.89L265.27 68.04L265.24 68.00Q264.28 68.86 262.30 70.50L262.12 70.32L262.19 70.39Q264.55 71.06 267.94 71.06L267.93 71.05Z"/><path d="M19 52 C160 83,185 119,339 9" stroke="#d8d859" fill="none"/><path d="M13 84 C190 136,167 57,325 107" stroke="#87d3ec" fill="none"/><path d="M6 13 C184 58,168 85,335 136" stroke="#5858e9" fill="none"/><path fill="#e46786" d="M137.37 73.30L137.34 73.27L137.40 73.33Q138.61 73.31 140.78 73.08L140.85 73.16L140.76 73.06Q140.66 74.02 140.66 75.01L140.70 75.05L140.83 77.11L140.77 77.05Q139.42 76.99 138.14 77.10L138.23 77.20L138.18 77.15Q136.97 77.28 135.68 77.22L135.60 77.14L135.49 77.03Q131.20 86.60 125.94 93.68L125.85 93.59L125.93 93.67Q122.01 94.59 120.02 95.53L120.03 95.54L120.15 95.66Q126.32 86.74 130.99 77.10L131.00 77.10L127.10 77.24L127.04 77.17Q127.11 75.20 126.93 73.15L126.79 73.01L126.95 73.17Q129.78 73.31 132.94 73.31L133.03 73.40L135.95 67.73L135.97 67.75Q137.31 64.64 139.18 62.19L139.24 62.25L139.29 62.30Q136.97 62.61 134.51 62.61L134.47 62.56L134.46 62.55Q125.07 62.52 119.29 59.13L119.22 59.06L118.28 56.49L118.25 56.46Q117.73 55.18 117.15 53.84L117.14 53.83L117.24 53.93Q123.87 57.93 132.64 58.28L132.61 58.25L132.54 58.18Q140.48 58.58 148.37 55.54L148.30 55.46L148.30 55.46Q148.11 56.21 147.35 57.56L147.43 57.63L147.43 57.64Q141.79 64.86 137.40 73.33ZM149.82 59.67L149.71 59.56L151.23 56.46L151.29 56.52Q149.88 57.34 147.31 58.45L147.38 58.52L147.62 58.00L147.48 57.86Q147.83 57.80 148.00 57.62L147.91 57.53L147.84 57.46Q148.47 56.45 149.58 54.41L149.64 54.46L149.58 54.40Q141.34 57.86 132.52 57.51L132.65 57.64L132.63 57.63Q123.42 57.24 116.11 52.68L116.15 52.72L116.07 52.64Q117.56 55.41 118.84 59.51L119.02 59.68L118.85 59.52Q120.55 60.51 121.77 60.98L121.76 60.97L121.88 61.09Q122.03 61.52 122.73 64.39L122.69 64.35L122.84 64.50Q127.61 66.35 136.09 66.11L136.11 66.13L136.18 66.20Q135.56 66.92 132.52 72.71L132.55 72.75L132.60 72.79Q129.37 72.72 126.33 72.43L126.36 72.46L126.34 72.44Q126.44 73.71 126.44 75.05L126.56 75.18L126.50 77.74L129.19 77.87L129.03 79.87L129.17 80.01Q123.03 91.23 118.76 96.72L118.76 96.73L118.81 96.77Q121.22 95.56 123.74 94.80L123.84 94.90L123.83 94.89Q122.65 96.17 120.54 98.80L120.67 98.93L120.69 98.95Q125.47 97.18 129.21 96.83L129.14 96.76L129.28 96.90Q133.79 91.12 138.59 80.71L138.55 80.68L143.73 80.89L143.72 80.88Q143.60 79.47 143.60 78.06L143.68 78.15L143.62 75.34L143.75 75.47Q143.30 75.43 142.45 75.49L142.46 75.49L142.40 75.43Q141.48 75.42 141.07 75.42L141.13 75.48L141.19 75.54Q141.13 75.30 141.19 75.07L141.11 75.00L141.15 74.62L141.10 74.58Q145.03 66.75 149.76 59.62Z"/><path d="M10 100 C175 102,190 114,322 32" stroke="#5177ea" fill="none"/><path d="M9 33 C175 128,158 61,329 126" stroke="#dfc575" fill="none"/><path d="M13 46 C185 26,156 2,322 134" stroke="#ee9476" fill="none"/><path d="M4 40 C179 116,183 14,337 20" stroke="#e47676" fill="none"/></svg>