<svg xmlns="http://www.w3.org/2000/svg" width="342" height="140" viewBox="0,0,342,140"><path d="M15 53 C159 55,185 86,337 82" stroke="#db6b6b" fill="none"/><path d="M17 21 C165 131,168 84,338 33" stroke="#ea7f5b" fill="none"/><path d="M16 114 C189 61,154 135,341 16" stroke="#9344e3" fill="none"/><path d="M3 109 C162 102,171 88,333 136" stroke="#b2e381" fill="none"/><path d="M11 64 C183 54,165 75,323 57" stroke="#93d651" fill="none"/><path d="M2 66 C189 62,164 30,325 65" stroke="#e5c76a" fill="none"/><path d="M11 48 C185 72,160 19,324 91" stroke="#61e835" fill="none"/><path d="M7 61 C153 8,161 103,340 43" stroke="#e63bbc" fill="none"/><path d="M12 124 C153 21,160 110,325 103" stroke="#6742d5" fill="none"/><path d="M11 32 C167 61,158 41,329 129" stroke="#80e4e4" fill="none"/><path d="M14 80 C177 123,155 61,337 32" stroke="#7ae5e5" fill="none"/><path d="M2 99 C186 123,191 71,329 11" stroke="#c6df7a" fill="none"/><path d="M20 85 C150 25,171 22,335 101" stroke="#ed77ed" fill="none"/><path d="M16 115 C173 55,156 106,322 72" stroke="#8787e8" fill="none"/><path d="M11 10 C166 64,174 77,325 41" stroke="#d37ff0" fill="none"/><path d="M16 84 C157 59,177 65,332 130" stroke="#7793e8" fill="none"/><path d="M4 117 C187 37,182 75,331 14" stroke="#8b6be9" fill="none"/><path d="M11 57 C171 64,154 129,340 78" stroke="#d7914b" fill="none"/><path d="M3 125 C171 42,162 96,332 32" stroke="#8bd5ed" fill="none"/><path d="M17 114 C173 4,161 102,326 86" stroke="#7be9e9" fill="none"/><path d="M8 137 C184 97,164 69,334 78" stroke="#ba8ae9" fill="none"/><path d="M17 96 C167 135,178 66,333 127" stroke="#c65ce9" fill="none"/><path d="M15 112 C184 44,192 52,324 56" stroke="#a3e88c" fill="none"/><path d="M18 87 C152 99,176 4,341 127" stroke="#e961c7" fill="none"/><path d="M14 30 C158 15,173 117,338 19" stroke="#99e849" fill="none"/><path d="M8 125 C164 12,163 131,322 90" stroke="#ec8a69" fill="none"/><path d="M15 22 C165 49,156 21,332 17" stroke="#bfe995" fill="none"/><path d="M9 11 C191 37,189 11,340 120" stroke="#e49b52" fill="none"/><path d="M18 65 C171 108,161 113,330 67" stroke="#dfdf3e" fill="none"/><path fill="#90e674" d="M192.41 98.81L192.34 98.74L192.29 98.69Q189.62 98.81 186.70 98.02L186.71 98.03L186.83 98.16Q184.43 96.33 184.14 93.26L184.21 93.32L184.17 93.29Q184.06 92.89 184.42 87.96L184.45 88.00L184.55 88.09Q186.42 87.68 190.20 86.96L190.13 86.90L189.84 88.39L189.82 88.37Q189.31 91.65 191.96 92.72L192.02 92.79L192.02 92.79Q193.43 93.34 197.36 93.34L197.48 93.46L197.46 93.44Q200.42 93.12 200.78 92.98L200.86 93.05L200.70 92.90Q202.57 92.77 203.92 91.84L203.95 91.86L203.89 91.80Q206.43 89.92 206.08 86.00L206.09 86.01L206.09 86.00Q205.76 81.47 202.51 78.54L202.54 78.57L202.50 78.53Q199.22 75.57 194.58 75.57L194.75 75.73L194.62 75.18L194.63 75.19Q195.34 75.12 196.98 74.97L197.02 75.02L197.02 75.01Q200.64 74.85 203.21 72.53L203.07 72.38L203.08 72.40Q205.70 70.13 205.99 66.63L206.05 66.70L205.97 66.62Q206.20 66.07 206.20 65.42L206.18 65.40L206.22 65.44Q206.07 62.43 203.50 60.72L203.49 60.71L203.58 60.80Q201.32 59.33 198.32 59.54L198.39 59.61L198.38 59.60Q195.89 59.25 193.60 60.03L193.57 60.00L193.55 59.98Q190.90 61.04 190.32 63.18L190.39 63.25L190.20 63.05Q189.86 64.50 190.00 65.92L190.04 65.96L190.12 66.04Q188.23 65.65 184.38 64.30L184.33 64.25L184.23 64.15Q183.91 61.11 183.98 59.54L183.92 59.49L183.89 59.45Q184.25 56.74 186.25 55.46L186.09 55.30L186.09 55.30Q188.75 54.18 191.75 54.18L191.84 54.27L191.81 54.24Q197.75 54.19 203.68 54.69L203.58 54.59L203.56 54.57Q213.15 55.45 212.58 62.52L212.61 62.55L212.63 62.57Q212.45 65.32 211.52 68.24L211.49 68.21L211.54 68.26Q209.78 73.99 205.35 75.71L205.26 75.61L205.43 75.78Q210.20 76.63 211.35 82.91L211.50 83.07L211.47 83.03Q211.80 85.08 211.94 88.86L212.02 88.94L212.07 88.99Q212.20 97.18 203.56 98.04L203.68 98.16L203.55 98.03Q202.30 98.28 192.38 98.78ZM202.13 102.97L202.11 102.94L202.06 102.90Q203.25 103.01 208.60 103.16L208.69 103.24L208.70 103.26Q211.95 103.36 215.02 102.14L214.91 102.03L215.01 102.14Q217.17 100.30 216.81 97.01L216.94 97.14L216.77 96.98Q216.55 94.47 215.98 91.19L216.08 91.29L216.13 91.33Q214.75 82.89 211.11 79.82L210.98 79.69L210.63 78.98L210.74 79.02L210.66 78.94Q213.89 76.18 215.32 67.97L215.44 68.09L215.26 67.91Q215.37 67.09 215.58 65.30L215.71 65.43L215.58 65.31Q215.72 63.87 215.58 62.59L215.55 62.57L215.54 62.55Q215.41 59.57 212.99 58.29L213.00 58.30L212.83 58.27L212.82 58.26Q212.27 56.43 210.13 55.43L210.07 55.37L210.14 55.44Q207.27 54.14 197.64 53.57L197.56 53.49L197.48 53.42Q194.37 53.31 191.38 53.31L191.53 53.46L191.41 53.34Q188.53 53.45 185.67 54.67L185.50 54.49L185.50 54.49Q183.30 56.00 183.30 59.29L183.23 59.22L183.34 59.33Q183.25 58.46 183.75 64.74L183.81 64.80L183.88 64.87Q184.32 64.88 187.39 66.02L187.45 66.08L187.47 66.10Q187.44 67.07 187.36 68.00L187.45 68.09L187.43 68.06Q187.28 68.84 187.35 69.84L187.45 69.93L187.47 69.95Q190.81 70.66 194.59 70.87L194.56 70.84L194.49 70.77Q194.37 67.01 196.44 65.44L196.55 65.55L196.41 65.40Q197.98 64.19 201.76 63.76L201.82 63.82L201.84 63.84Q204.06 63.92 205.13 64.28L204.99 64.14L205.03 64.18Q205.19 64.48 205.26 64.69L205.16 64.59L205.24 65.03L205.38 66.03L205.36 66.01Q205.52 66.52 205.45 66.81L205.26 66.62L205.26 66.62Q205.24 69.96 202.39 72.17L202.37 72.15L202.36 72.14Q200.62 73.83 196.84 74.19L196.91 74.26L196.90 74.25Q195.42 74.41 193.78 74.41L193.90 74.53L193.92 74.55Q194.02 75.23 194.31 76.51L194.19 76.39L194.29 76.49Q197.48 76.40 200.19 77.76L200.20 77.76L200.07 77.85L197.04 78.10L197.11 78.18Q197.11 78.74 197.32 79.88L197.30 79.86L197.39 79.95Q201.28 79.70 204.50 82.20L204.48 82.19L204.67 82.37Q204.96 82.96 205.54 86.03L205.49 85.98L205.60 86.09Q205.91 91.54 200.41 92.32L200.50 92.41L200.38 92.29Q196.46 92.80 195.39 92.73L195.43 92.77L195.43 92.76Q194.60 92.58 193.60 92.44L193.51 92.35L193.53 91.51L193.88 90.78L193.82 89.94L193.88 89.36L193.88 89.36Q192.05 89.46 190.55 89.82L190.70 89.96L190.56 89.83Q190.60 89.51 190.60 89.15L190.49 89.04L190.52 89.07Q190.69 88.81 190.69 88.38L190.59 88.29L190.60 88.29Q190.74 87.57 191.02 86.22L191.02 86.22L191.05 86.25Q187.47 86.59 183.97 87.23L183.96 87.22L184.07 87.33Q184.11 88.30 183.90 90.41L183.84 90.35L183.75 90.26Q183.55 92.38 183.55 93.52L183.50 93.47L183.62 93.59Q183.73 97.41 186.30 98.83L186.34 98.88L186.23 98.77Q189.16 103.20 198.01 102.84L197.98 102.81L198.00 102.83Q199.22 102.62 202.07 102.91Z"/><path d="M12 83 C174 49,160 63,340 106" stroke="#dbdb42" fill="none"/><path d="M5 47 C152 66,179 23,330 137" stroke="#e15a5a" fill="none"/><path d="M10 105 C168 130,172 105,338 49" stroke="#daa36c" fill="none"/><path d="M6 60 C153 66,192 68,334 15" stroke="#eb88eb" fill="none"/><path d="M13 36 C180 76,176 73,329 56" stroke="#e065e0" fill="none"/><path d="M12 98 C188 123,189 77,341 123" stroke="#6ade44" fill="none"/><path d="M1 48 C169 3,159 50,327 125" stroke="#8969e6" fill="none"/><path d="M5 78 C160 126,163 115,333 103" stroke="#dbdb66" fill="none"/><path fill="#c362e4" d="M137.75 74.10L137.64 73.99L137.71 74.07Q139.27 74.13 141.91 73.84L141.79 73.72L141.76 73.69Q141.70 74.92 141.70 76.13L141.86 76.29L141.70 78.48L141.79 78.57Q140.29 78.65 138.72 78.79L138.55 78.62L138.71 78.78Q137.13 78.84 135.56 78.77L135.46 78.67L135.58 78.79Q130.08 90.20 123.65 98.84L123.72 98.90L123.64 98.83Q119.02 100.13 116.60 101.28L116.61 101.29L116.50 101.18Q124.19 90.46 129.90 78.68L129.96 78.74L125.12 78.82L125.17 78.87Q125.01 76.21 124.79 73.71L124.95 73.87L124.84 73.76Q128.41 74.04 132.26 74.04L132.26 74.04L135.85 67.13L135.92 67.21Q137.74 63.60 140.02 60.60L140.06 60.64L140.01 60.59Q137.16 60.95 134.16 60.95L134.13 60.93L134.15 60.94Q122.70 60.91 115.63 56.77L115.68 56.82L114.39 53.53L114.44 53.58Q113.81 52.02 113.10 50.38L113.05 50.33L112.95 50.23Q121.13 55.20 131.84 55.63L131.92 55.71L131.83 55.62Q141.48 56.06 151.11 52.35L151.16 52.40L151.09 52.32Q150.86 53.24 149.94 54.88L149.76 54.71L149.79 54.74Q143.08 63.73 137.73 74.08ZM152.80 57.32L152.76 57.28L154.74 53.62L154.75 53.63Q152.84 54.44 149.70 55.79L149.87 55.96L150.09 55.25L150.10 55.27Q150.30 54.96 150.51 54.74L150.52 54.75L150.56 54.80Q151.21 53.45 152.57 50.95L152.71 51.09L152.59 50.97Q142.70 55.36 131.92 54.93L131.77 54.77L131.87 54.88Q120.67 54.45 111.75 48.89L111.75 48.89L111.65 48.79Q113.64 52.36 115.21 57.35L115.06 57.20L115.19 57.32Q117.25 58.53 118.75 59.11L118.81 59.17L118.68 59.03Q119.02 59.73 119.88 63.23L119.84 63.19L119.90 63.26Q125.78 65.56 136.13 65.28L136.12 65.26L136.11 65.26Q135.57 66.35 131.86 73.42L131.76 73.33L131.84 73.41Q128.09 73.51 124.38 73.16L124.27 73.05L124.37 73.14Q124.53 74.74 124.53 76.38L124.50 76.35L124.49 79.55L127.55 79.46L127.62 82.18L127.65 82.21Q120.21 95.96 114.99 102.67L115.01 102.69L114.97 102.65Q117.93 101.19 121.00 100.26L121.07 100.32L121.16 100.41Q119.73 101.99 117.16 105.20L117.26 105.30L117.32 105.35Q123.25 103.29 127.81 102.86L127.73 102.77L127.70 102.74Q133.30 95.78 139.15 83.07L139.14 83.06L145.53 83.38L145.59 83.44Q145.37 81.66 145.37 79.94L145.28 79.85L145.44 76.65L145.31 76.52Q144.79 76.51 143.75 76.58L143.77 76.59L143.89 76.71Q142.68 76.61 142.18 76.61L142.36 76.79L142.19 76.62Q142.36 76.57 142.43 76.28L142.42 76.28L142.37 75.73L142.36 75.72Q147.06 66.07 152.84 57.36Z"/><path d="M3 1 C151 108,183 15,340 114" stroke="#e18383" fill="none"/><path d="M10 100 C181 27,152 79,334 124" stroke="#e56686" fill="none"/><path fill="#e27d96" d="M63.75 67.08L63.67 66.99L63.62 66.94Q57.76 67.07 54.33 65.07L54.24 64.98L54.31 65.06Q59.05 62.51 68.19 54.59L68.16 54.56L68.02 54.42Q69.39 54.08 71.81 52.93L71.92 53.04L71.81 52.93Q69.48 64.24 69.27 76.16L69.27 76.16L69.23 76.12Q68.99 88.02 70.99 99.44L70.96 99.41L71.02 99.47Q67.90 98.13 63.90 97.91L63.83 97.84L63.86 97.87Q63.60 90.05 63.60 82.41L63.53 82.34L63.65 82.46Q63.59 74.69 63.66 66.98ZM63.04 71.28L63.01 98.59L62.92 98.51Q65.22 98.52 67.01 98.88L66.97 98.84L67.05 98.92Q67.26 100.28 67.62 102.85L67.47 102.70L67.53 102.75Q72.89 103.77 77.46 107.98L77.36 107.88L77.42 107.94Q72.84 94.65 72.77 80.66L72.79 80.68L72.71 80.60Q72.53 66.57 75.95 53.01L76.00 53.05L75.94 52.99Q75.04 53.88 72.04 55.95L72.11 56.02L72.02 55.93Q72.30 54.42 72.87 51.57L73.03 51.73L73.02 51.71Q70.39 53.01 67.68 53.73L67.66 53.71L67.76 53.81Q60.65 60.48 52.59 64.76L52.62 64.80L52.60 64.77Q55.19 66.79 59.61 67.43L59.67 67.49L59.73 67.54Q58.54 68.57 56.11 70.57L56.06 70.51L56.05 70.50Q58.90 71.29 63.04 71.29L63.00 71.25Z"/><path fill="#e8d18b" d="M273.71 74.07L273.79 74.15L273.68 74.03Q275.13 73.99 277.78 73.71L277.80 73.73L277.87 73.80Q277.72 74.93 277.72 76.15L277.70 76.13L277.80 78.58L277.71 78.49Q276.15 78.50 274.58 78.65L274.62 78.69L274.66 78.73Q273.11 78.82 271.54 78.75L271.43 78.64L271.51 78.72Q266.21 90.34 259.79 98.98L259.64 98.82L259.82 99.01Q254.92 100.03 252.49 101.17L252.60 101.28L252.66 101.34Q260.29 90.55 266.00 78.77L265.91 78.69L261.03 78.73L261.00 78.70Q261.12 76.32 260.91 73.83L260.90 73.82L260.83 73.75Q264.35 73.99 268.21 73.99L268.25 74.03L271.88 67.17L271.80 67.09Q273.66 63.52 275.94 60.52L276.04 60.62L275.97 60.55Q273.17 60.96 270.17 60.96L270.01 60.80L270.10 60.89Q258.57 60.78 251.51 56.64L251.51 56.65L250.39 53.53L250.43 53.57Q249.68 51.89 248.97 50.25L249.02 50.31L248.95 50.24Q257.18 55.25 267.89 55.68L267.76 55.56L267.95 55.74Q277.41 55.99 287.05 52.28L287.19 52.42L287.09 52.33Q286.74 53.12 285.81 54.76L285.90 54.84L285.90 54.85Q279.02 63.67 273.66 74.02ZM288.89 57.41L288.79 57.31L290.71 53.59L290.70 53.58Q288.85 54.44 285.71 55.80L285.81 55.90L286.11 55.28L286.08 55.24Q286.32 54.98 286.53 54.77L286.52 54.75L286.54 54.77Q287.27 53.51 288.63 51.01L288.67 51.06L288.65 51.03Q278.60 55.26 267.82 54.83L267.91 54.91L267.78 54.78Q256.66 54.45 247.74 48.88L247.64 48.78L247.73 48.87Q249.50 52.21 251.07 57.21L251.11 57.25L251.24 57.38Q253.26 58.54 254.76 59.11L254.78 59.14L254.79 59.14Q255.07 59.78 255.93 63.28L255.89 63.24L255.82 63.17Q261.85 65.64 272.20 65.35L272.18 65.32L272.14 65.28Q271.55 66.34 267.84 73.41L267.85 73.41L267.90 73.47Q263.95 73.37 260.24 73.01L260.22 72.99L260.39 73.16Q260.42 74.63 260.42 76.27L260.50 76.35L260.51 79.57L263.64 79.56L263.65 82.21L263.52 82.08Q256.13 95.89 250.92 102.60L251.10 102.78L251.09 102.77Q254.03 101.28 257.09 100.35L257.08 100.33L257.03 100.29Q255.80 102.05 253.23 105.26L253.27 105.30L253.28 105.32Q259.20 103.24 263.77 102.81L263.69 102.73L263.70 102.75Q269.14 95.62 274.99 82.91L275.04 82.96L281.51 83.36L281.41 83.27Q281.43 81.72 281.43 80.00L281.32 79.89L281.32 76.53L281.27 76.49Q280.79 76.50 279.75 76.57L279.90 76.72L279.72 76.54Q278.79 76.72 278.29 76.72L278.32 76.75L278.33 76.76Q278.26 76.47 278.33 76.19L278.42 76.28L278.40 75.76L278.37 75.73Q283.11 66.12 288.90 57.42Z"/><path d="M17 6 C159 46,182 40,334 118" stroke="#b9e538" fill="none"/></svg>