<svg xmlns="http://www.w3.org/2000/svg" width="342" height="140" viewBox="0,0,342,140"><path d="M9 34 C177 74,155 64,341 136" stroke="#e7815f" fill="none"/><path d="M3 82 C185 46,191 93,334 52" stroke="#87bcf1" fill="none"/><path d="M19 97 C157 108,164 83,340 61" stroke="#df6666" fill="none"/><path d="M10 99 C187 30,167 3,322 107" stroke="#e5849c" fill="none"/><path d="M13 34 C170 134,186 102,326 67" stroke="#39b5de" fill="none"/><path d="M18 8 C166 94,171 129,339 51" stroke="#4ed44e" fill="none"/><path d="M11 29 C158 85,163 71,335 3" stroke="#a5e368" fill="none"/><path d="M15 63 C172 129,190 86,330 89" stroke="#c058e3" fill="none"/><path fill="#4ee373" d="M137.44 73.39L137.50 73.45L137.37 73.32Q138.65 73.36 140.84 73.13L140.94 73.22L140.91 73.20Q140.74 74.09 140.74 75.10L140.82 75.17L140.74 77.05L140.86 77.16Q139.58 77.18 138.28 77.30L138.20 77.23L138.12 77.15Q136.81 77.20 135.51 77.14L135.50 77.13L135.67 77.30Q131.15 86.80 125.83 93.95L125.74 93.87L125.73 93.86Q121.84 94.87 119.83 95.82L119.98 95.97L119.86 95.85Q126.28 87.01 131.01 77.25L131.10 77.35L126.89 77.22L126.91 77.23Q126.98 75.23 126.80 73.16L126.84 73.20L126.77 73.13Q129.68 73.32 132.87 73.32L132.87 73.32L135.79 67.55L135.97 67.73Q137.32 64.58 139.21 62.09L139.34 62.22L139.26 62.15Q136.80 62.34 134.31 62.34L134.43 62.46L134.34 62.37Q124.98 62.47 119.12 59.04L119.04 58.95L118.05 56.30L118.07 56.33Q117.51 55.00 116.92 53.64L117.03 53.75L117.01 53.73Q123.72 57.78 132.59 58.13L132.48 58.02L132.60 58.14Q140.54 58.45 148.52 55.37L148.53 55.38L148.63 55.48Q148.20 56.00 147.43 57.36L147.46 57.39L147.41 57.34Q141.77 64.71 137.33 73.28ZM149.99 59.56L150.02 59.60L151.57 56.47L151.41 56.31Q150.08 57.23 147.48 58.35L147.38 58.25L147.75 57.86L147.62 57.73Q147.83 57.52 148.01 57.34L148.08 57.42L148.05 57.39Q148.58 56.26 149.70 54.19L149.73 54.22L149.85 54.34Q141.58 57.89 132.64 57.54L132.48 57.38L132.64 57.53Q123.13 56.95 115.73 52.34L115.74 52.34L115.80 52.41Q117.37 55.28 118.68 59.42L118.79 59.53L118.83 59.57Q120.46 60.49 121.70 60.97L121.78 61.04L121.77 61.04Q122.00 61.56 122.71 64.46L122.64 64.38L122.63 64.38Q127.62 66.41 136.20 66.18L136.07 66.05L136.17 66.15Q135.70 67.04 132.62 72.89L132.49 72.75L132.48 72.74Q129.32 72.79 126.25 72.49L126.25 72.50L126.38 72.62Q126.46 73.89 126.46 75.25L126.37 75.15L126.33 77.78L129.06 77.91L128.94 79.97L128.97 80.00Q122.85 91.45 118.53 97.00L118.60 97.07L118.58 97.06Q121.17 95.98 123.71 95.21L123.62 95.12L123.58 95.08Q122.53 96.51 120.40 99.18L120.52 99.29L120.52 99.30Q125.38 97.52 129.16 97.17L129.09 97.09L129.11 97.11Q133.78 91.38 138.63 80.85L138.62 80.85L143.82 81.01L143.94 81.13Q143.84 79.73 143.84 78.31L143.81 78.28L143.75 75.45L143.83 75.52Q143.36 75.47 142.50 75.53L142.40 75.42L142.44 75.46Q141.64 75.58 141.22 75.58L141.28 75.64L141.29 75.65Q141.30 75.48 141.36 75.24L141.27 75.15L141.34 74.81L141.32 74.79Q145.14 66.72 149.93 59.51Z"/><path d="M21 32 C178 61,150 47,332 113" stroke="#67eeaa" fill="none"/><path d="M12 101 C183 68,164 17,330 110" stroke="#e7e740" fill="none"/><path d="M19 108 C165 73,172 23,328 86" stroke="#7c5dd9" fill="none"/><path d="M3 10 C161 7,187 133,331 101" stroke="#a066db" fill="none"/><path d="M20 60 C185 40,188 62,338 56" stroke="#b5dc41" fill="none"/><path d="M13 91 C165 81,176 25,324 63" stroke="#eb7ed0" fill="none"/><path d="M19 21 C153 124,161 40,334 84" stroke="#6ae740" fill="none"/><path d="M16 3 C170 100,156 13,338 68" stroke="#eb567b" fill="none"/><path d="M19 32 C164 17,174 42,338 46" stroke="#e8c868" fill="none"/><path d="M2 90 C190 123,178 75,336 52" stroke="#67a5e4" fill="none"/><path d="M3 127 C186 16,179 131,336 135" stroke="#913ce5" fill="none"/><path d="M13 43 C172 70,183 2,322 12" stroke="#87e8e8" fill="none"/><path d="M3 17 C186 31,181 1,330 33" stroke="#54e754" fill="none"/><path fill="#e06565" d="M267.39 76.42L267.56 76.59L267.52 76.55Q264.54 76.47 262.65 78.54L262.67 78.56L262.63 78.52Q260.85 80.70 260.61 83.66L260.47 83.51L260.48 83.52Q260.24 86.89 262.13 88.46L262.21 88.54L262.13 88.46Q264.12 90.13 267.44 90.01L267.31 89.88L267.45 90.03Q271.00 89.73 272.48 88.25L272.38 88.15L272.39 88.17Q274.05 85.98 273.88 83.14L273.91 83.18L273.78 83.05Q273.68 80.23 272.00 78.37L272.01 78.38L271.96 78.33Q270.24 76.43 267.40 76.43ZM267.44 61.86L267.35 61.77L267.41 61.83Q265.15 61.58 263.08 62.35L263.20 62.47L263.25 62.52Q261.07 63.59 261.42 66.49L261.57 66.64L261.55 66.62Q262.34 72.43 267.54 72.43L267.39 72.29L267.42 72.31Q269.86 72.62 271.39 70.84L271.53 70.98L271.53 70.98Q273.04 69.18 273.10 66.75L273.02 66.68L273.13 66.79Q273.19 64.01 272.07 63.06L271.96 62.95L271.99 62.98Q269.53 61.82 267.52 61.94ZM266.92 93.69L267.01 93.78L262.28 93.79L262.33 93.83Q259.91 93.78 257.84 92.42L257.87 92.45L257.81 92.40Q255.69 90.62 255.93 86.19L255.87 86.13L255.95 86.22Q256.65 75.56 262.27 74.02L262.33 74.08L262.32 74.07Q258.76 72.64 256.69 64.30L256.59 64.20L256.74 64.35Q256.13 62.09 256.25 60.85L256.27 60.87L256.15 60.74Q256.66 57.47 262.40 57.41L262.37 57.39L262.45 57.47Q268.93 57.26 271.18 57.56L271.27 57.65L271.19 57.57Q277.31 58.54 278.02 61.67L277.98 61.64L278.01 61.67Q278.11 62.54 278.11 63.13L278.14 63.16L278.17 63.19Q278.19 64.28 277.90 65.22L277.85 65.18L277.73 65.06Q276.93 71.76 272.37 74.13L272.27 74.02L272.34 74.09Q277.74 75.29 278.51 83.52L278.59 83.60L278.46 83.47Q278.56 83.81 278.62 85.82L278.64 85.83L278.52 85.71Q278.73 90.07 276.25 91.73L276.30 91.78L276.14 91.62Q274.13 93.10 267.04 93.81ZM270.47 97.30L270.59 97.42L275.72 97.47L275.77 97.51Q278.44 97.65 280.81 96.52L280.80 96.51L280.76 96.47Q282.59 95.41 282.71 92.51L282.76 92.56L282.68 92.48Q282.83 90.86 282.24 87.84L282.17 87.77L282.20 87.80Q280.65 80.46 277.40 77.56L277.45 77.61L277.27 77.13L276.79 76.54L276.59 76.16L276.64 76.20Q279.24 74.14 280.66 67.69L280.54 67.56L280.66 67.69Q280.57 67.01 280.69 65.71L280.70 65.72L280.77 65.79Q280.88 64.71 280.76 63.77L280.70 63.70L280.79 63.80Q280.42 61.42 278.59 60.65L278.74 60.80L278.63 60.63L278.46 60.58L278.37 60.49Q278.07 59.48 276.24 58.24L276.24 58.24L276.20 58.14L276.29 58.23Q273.09 57.04 266.76 56.75L266.82 56.81L266.76 56.75Q264.49 56.73 262.36 56.90L262.18 56.72L262.34 56.88Q261.00 56.84 258.99 57.08L258.92 57.01L258.92 57.01Q256.06 57.76 255.71 60.30L255.63 60.22L255.62 60.22Q255.64 61.06 255.70 62.30L255.62 62.22L255.67 62.28Q255.92 63.17 256.81 66.84L256.74 66.78L256.72 66.76Q258.00 71.82 260.72 73.89L260.69 73.86L260.75 73.92L260.72 73.89Q256.54 76.04 255.71 84.08L255.64 84.01L255.66 84.03Q255.43 87.53 255.43 88.95L255.31 88.82L255.34 88.85Q255.44 91.62 257.27 93.03L257.26 93.02L257.26 93.03Q257.54 93.25 257.96 93.54L257.86 93.44L257.86 93.45Q259.54 97.08 270.60 97.43ZM270.10 80.25L270.07 80.22L269.94 80.10Q271.42 80.03 272.78 80.74L272.74 80.70L272.81 80.77Q273.31 82.22 273.25 83.05L273.33 83.13L273.28 83.08Q273.41 83.63 273.41 84.10L273.29 83.98L273.47 84.16Q273.39 87.74 269.84 89.04L269.87 89.08L269.89 89.09Q268.55 89.47 267.31 89.29L267.35 89.34L267.32 89.30Q265.56 89.44 263.79 88.73L263.92 88.86L263.84 88.78Q263.52 87.87 263.64 86.33L263.58 86.28L263.50 86.20Q263.72 83.70 265.59 81.80L265.67 81.89L265.72 81.93Q267.54 80.00 270.02 80.17ZM270.33 65.40L270.37 65.44L270.40 65.47Q271.53 65.18 272.36 65.42L272.52 65.58L272.44 66.75L272.51 66.81Q272.44 68.93 271.02 70.49L270.95 70.43L271.00 70.48Q269.66 72.12 267.53 71.83L267.57 71.87L267.57 71.87Q266.00 71.84 265.35 71.48L265.28 71.41L265.21 71.34Q265.26 71.04 265.08 69.97L265.02 69.91L265.09 69.98Q264.63 67.75 266.52 66.45L266.50 66.42L266.57 66.49Q268.19 65.39 270.38 65.45Z"/><path d="M12 77 C161 35,169 125,331 76" stroke="#e7e787" fill="none"/><path fill="#e584b5" d="M64.34 67.44L64.45 67.54L64.39 67.48Q59.41 67.47 56.57 65.81L56.68 65.93L56.56 65.80Q60.48 63.69 68.05 57.13L68.03 57.10L68.17 57.25Q69.12 56.77 71.13 55.83L71.18 55.88L71.16 55.86Q69.23 65.23 69.05 75.10L69.00 75.05L68.91 74.96Q68.75 84.85 70.41 94.32L70.40 94.31L70.40 94.31Q67.86 93.25 64.55 93.08L64.58 93.11L64.57 93.10Q64.43 86.69 64.43 80.36L64.38 80.31L64.37 80.30Q64.44 73.98 64.50 67.59ZM63.84 71.01L63.86 93.69L63.73 93.56Q65.77 93.71 67.25 94.00L67.10 93.85L67.16 93.91Q67.24 94.94 67.54 97.07L67.67 97.20L67.56 97.09Q71.96 97.88 75.74 101.37L75.85 101.48L75.86 101.49Q71.90 90.31 71.84 78.72L71.90 78.78L71.86 78.74Q71.76 67.16 74.60 55.93L74.58 55.91L74.74 56.07Q73.85 56.65 71.36 58.37L71.35 58.36L71.28 58.29Q71.69 57.22 72.16 54.85L72.03 54.71L72.08 54.77Q70.07 56.02 67.83 56.61L67.84 56.62L67.76 56.54Q61.98 62.18 55.30 65.73L55.33 65.76L55.22 65.65Q57.53 67.49 61.20 68.02L61.15 67.98L61.20 68.02Q60.19 68.84 58.18 70.50L58.07 70.39L58.03 70.35Q60.38 70.98 63.81 70.98L63.85 71.02Z"/><path fill="#68ed89" d="M194.31 93.79L194.37 93.85L194.46 93.93Q192.26 94.05 189.84 93.39L189.80 93.36L189.73 93.28Q187.86 91.89 187.62 89.34L187.57 89.29L187.62 89.34Q187.65 89.14 187.95 85.06L187.80 84.91L187.81 84.92Q189.37 84.58 192.50 83.99L192.64 84.14L192.34 85.30L192.36 85.33Q191.92 88.02 194.11 88.91L194.09 88.90L193.97 88.77Q195.30 89.39 198.55 89.39L198.55 89.39L198.57 89.41Q201.12 89.24 201.42 89.12L201.34 89.04L201.41 89.12Q202.70 88.75 203.82 87.98L203.93 88.09L203.80 87.95Q206.11 86.60 205.81 83.35L205.84 83.37L205.68 83.21Q205.45 79.50 202.76 77.07L202.74 77.05L202.86 77.17Q200.18 74.76 196.34 74.76L196.23 74.65L196.28 74.35L196.30 74.36Q196.93 74.35 198.29 74.23L198.26 74.19L198.26 74.19Q201.12 73.92 203.25 72.00L203.29 72.04L203.37 72.12Q205.44 70.14 205.68 67.24L205.74 67.30L205.59 67.15Q205.79 66.70 205.79 66.17L205.73 66.11L205.79 66.17Q205.82 63.84 203.69 62.42L203.60 62.33L203.71 62.44Q201.72 61.10 199.24 61.28L199.22 61.26L199.27 61.31Q197.17 60.98 195.28 61.63L195.43 61.79L195.39 61.75Q193.05 62.48 192.57 64.25L192.56 64.24L192.67 64.35Q192.35 65.51 192.47 66.69L192.55 66.78L192.39 66.61Q190.97 66.43 187.77 65.30L187.60 65.13L187.62 65.15Q187.28 62.56 187.34 61.26L187.30 61.23L187.39 61.32Q187.63 59.01 189.29 57.95L189.12 57.79L189.19 57.85Q191.43 56.96 193.92 56.96L193.82 56.86L193.85 56.90Q198.88 56.95 203.79 57.37L203.77 57.35L203.78 57.36Q211.67 58.03 211.19 63.89L211.12 63.81L211.18 63.87Q211.02 66.14 210.25 68.56L210.19 68.50L210.31 68.62Q208.86 73.38 205.19 74.80L205.22 74.83L205.14 74.75Q209.21 75.56 210.15 80.77L210.22 80.84L210.08 80.69Q210.49 82.53 210.61 85.66L210.58 85.63L210.64 85.69Q210.79 92.52 203.64 93.23L203.70 93.30L203.69 93.29Q202.67 93.51 194.45 93.93ZM202.49 97.35L202.46 97.33L202.55 97.41Q203.34 97.31 207.77 97.43L207.82 97.48L207.76 97.42Q210.63 97.69 213.17 96.68L213.18 96.68L213.16 96.66Q214.86 95.05 214.56 92.33L214.56 92.33L214.67 92.44Q214.48 90.36 214.01 87.64L214.05 87.68L214.00 87.63Q212.79 80.57 209.77 78.02L209.82 78.07L209.63 77.58L209.51 77.40L209.52 77.41Q212.18 75.10 213.36 68.30L213.46 68.40L213.39 68.33Q213.39 67.56 213.57 66.08L213.65 66.17L213.55 66.07Q213.81 65.03 213.70 63.96L213.56 63.83L213.63 63.90Q213.49 61.39 211.48 60.33L211.35 60.20L211.32 60.28L211.24 60.21Q210.88 58.78 209.10 57.95L208.94 57.79L208.98 57.82Q206.66 56.81 198.68 56.34L198.68 56.34L198.67 56.33Q196.01 56.16 193.53 56.16L193.66 56.29L193.66 56.29Q191.17 56.29 188.81 57.29L188.75 57.23L188.68 57.16Q186.83 58.39 186.83 61.11L186.92 61.20L186.90 61.18Q186.84 60.47 187.25 65.67L187.28 65.70L187.25 65.67Q187.69 65.76 190.24 66.70L190.21 66.67L190.28 66.75Q190.38 67.67 190.32 68.44L190.31 68.44L190.29 68.42Q190.17 69.06 190.23 69.89L190.25 69.91L190.28 69.94Q193.12 70.59 196.25 70.77L196.23 70.75L196.12 70.64Q196.06 67.56 197.78 66.26L197.86 66.34L197.84 66.32Q199.11 65.29 202.25 64.94L202.31 65.00L202.29 64.98Q203.98 64.89 204.87 65.19L204.89 65.21L204.91 65.24Q204.93 65.38 204.99 65.55L205.10 65.66L204.94 65.80L205.17 66.74L205.21 66.77Q205.19 67.05 205.13 67.29L205.05 67.21L205.14 67.30Q204.96 69.90 202.60 71.73L202.69 71.83L202.63 71.77Q201.18 73.15 198.05 73.45L198.06 73.46L198.13 73.53Q196.98 73.75 195.62 73.75L195.62 73.75L195.67 73.80Q195.64 74.24 195.88 75.31L195.91 75.34L195.90 75.32Q198.71 75.41 200.96 76.54L200.77 76.35L200.75 76.51L198.29 76.77L198.33 76.81Q198.28 77.24 198.46 78.18L198.45 78.18L198.48 78.20Q201.86 78.15 204.52 80.22L204.40 80.10L204.38 80.08Q204.86 80.80 205.34 83.34L205.32 83.33L205.28 83.29Q205.51 87.78 200.96 88.43L200.98 88.44L201.05 88.52Q197.77 88.91 196.88 88.85L196.92 88.88L196.98 88.94Q196.24 88.74 195.41 88.62L195.44 88.65L195.44 87.93L195.59 87.20L195.50 86.46L195.59 86.01L195.63 86.05Q194.11 86.13 192.87 86.43L193.04 86.60L192.95 86.51Q192.94 86.21 192.94 85.91L192.92 85.89L192.81 85.78Q192.92 85.54 192.92 85.18L192.98 85.24L192.90 85.16Q193.05 84.60 193.29 83.48L193.16 83.35L193.27 83.46Q190.27 83.71 187.37 84.25L187.54 84.41L187.39 84.27Q187.54 85.18 187.36 86.92L187.28 86.85L187.34 86.91Q187.01 88.49 187.01 89.44L187.07 89.50L187.18 89.62Q187.19 92.70 189.32 93.88L189.26 93.82L189.37 93.93Q191.69 97.49 199.02 97.20L199.01 97.19L199.06 97.24Q200.09 97.08 202.45 97.31Z"/><path d="M15 38 C188 102,173 14,335 51" stroke="#c3e169" fill="none"/><path d="M19 131 C192 102,165 46,323 4" stroke="#df4dbb" fill="none"/><path d="M3 128 C182 119,176 52,339 23" stroke="#eb567b" fill="none"/><path d="M18 48 C156 95,168 36,327 72" stroke="#d9d93f" fill="none"/><path d="M18 119 C181 100,161 98,326 111" stroke="#72aae3" fill="none"/><path d="M7 23 C181 47,168 137,330 28" stroke="#af7ae5" fill="none"/><path d="M3 127 C174 8,151 125,331 68" stroke="#4bebc3" fill="none"/><path d="M12 48 C176 80,152 91,330 134" stroke="#76e650" fill="none"/><path d="M13 5 C173 57,186 133,339 9" stroke="#7373e7" fill="none"/><path d="M11 135 C188 93,181 82,324 18" stroke="#4296ea" fill="none"/><path d="M12 73 C163 22,177 138,335 136" stroke="#a994e9" fill="none"/><path d="M2 111 C192 68,176 50,332 61" stroke="#3fe869" fill="none"/><path d="M18 92 C152 28,186 23,323 127" stroke="#e95ca3" fill="none"/><path d="M7 130 C171 89,167 39,337 19" stroke="#8465e0" fill="none"/><path d="M5 36 C174 20,154 22,327 47" stroke="#ed9c81" fill="none"/><path d="M14 83 C188 67,176 42,333 45" stroke="#82e2b2" fill="none"/><path d="M5 75 C178 31,188 57,323 106" stroke="#eb7eeb" fill="none"/><path d="M10 51 C189 70,191 2,335 125" stroke="#7854e2" fill="none"/></svg>