<svg xmlns="http://www.w3.org/2000/svg" width="342" height="140" viewBox="0,0,342,140"><path d="M16 56 C152 57,180 92,324 85" stroke="#869ee8" fill="none"/><path fill="#8f8fe4" d="M214.14 84.41L214.19 84.46L214.13 84.40Q219.80 83.76 225.62 83.97L225.71 84.05L225.66 84.00Q225.62 79.39 225.62 75.03L225.50 74.90L225.52 74.92Q225.66 70.55 226.01 65.91L225.93 65.83L225.93 65.83Q223.76 69.00 214.26 84.53ZM232.33 97.96L232.15 97.78L232.29 97.92Q229.20 97.32 225.94 97.18L226.01 97.26L226.00 97.25Q225.59 92.88 225.38 88.37L225.31 88.30L225.40 88.39Q215.76 88.11 207.16 90.67L207.00 90.52L207.10 90.61Q207.31 89.72 207.66 87.91L207.63 87.88L207.57 87.83Q210.86 82.10 217.38 70.66L217.41 70.69L217.37 70.66Q222.69 61.83 228.93 54.75L228.86 54.68L229.00 54.83Q230.51 54.39 233.56 53.91L233.50 53.84L233.49 53.83Q230.04 65.58 230.04 78.40L230.03 78.39L230.02 78.38Q230.11 81.18 230.25 83.88L230.20 83.83L232.63 84.11L232.62 84.10Q233.70 84.14 234.81 84.35L234.85 84.39L234.90 84.44Q235.09 86.22 235.57 89.76L235.42 89.60L235.48 89.66Q233.38 89.30 230.68 88.95L230.57 88.85L230.67 88.95Q231.08 92.61 232.32 97.95ZM235.33 83.69L235.39 83.75L235.28 83.64Q235.02 83.59 234.67 83.59L234.62 83.54L233.95 83.56L233.82 83.42Q233.76 80.88 233.76 78.31L233.77 78.32L233.66 78.21Q233.63 66.53 237.37 55.57L237.37 55.57L237.49 55.69Q236.05 56.12 233.41 56.81L233.39 56.79L233.37 56.77Q233.89 55.49 234.72 52.92L234.70 52.89L234.66 52.86Q232.31 53.56 228.57 53.97L228.65 54.05L228.63 54.04Q221.42 61.88 211.92 78.93L211.99 79.00L215.77 72.31L215.72 72.27Q215.08 74.25 214.59 75.30L214.54 75.24L206.47 91.72L206.44 91.69Q207.54 91.34 209.62 90.64L209.74 90.76L209.28 91.00L209.45 91.16Q209.22 92.39 208.67 94.68L208.56 94.57L208.52 94.53Q216.00 92.10 224.81 92.44L224.97 92.61L224.99 92.63Q224.88 94.18 225.22 97.78L225.40 97.96L225.40 97.96Q227.35 97.97 229.29 98.18L229.19 98.07L229.23 98.11Q229.40 99.26 229.89 101.76L229.98 101.85L229.92 101.78Q233.48 102.29 238.95 103.96L238.93 103.94L238.91 103.91Q237.14 100.06 235.48 94.10L235.39 94.01L238.14 94.96L238.01 94.83Q239.31 95.30 240.56 95.92L240.59 95.95L240.57 95.93Q239.19 91.44 238.92 88.39L238.78 88.25L238.89 88.36Q237.75 87.99 235.67 87.57L235.74 87.63L235.71 87.60Q235.37 85.33 235.37 83.73ZM220.71 83.36L220.79 83.44L220.69 83.34Q222.11 81.01 224.96 76.37L225.04 76.45L224.94 76.35Q224.89 78.03 224.82 79.77L224.95 79.90L224.82 79.77Q224.90 81.65 224.97 83.38L225.02 83.43L224.97 83.39Q224.01 83.39 222.97 83.39L222.90 83.33L222.92 83.34Q221.88 83.41 220.77 83.41Z"/><path d="M13 60 C153 87,159 69,321 14" stroke="#e0c87f" fill="none"/><path d="M2 17 C191 1,175 80,323 31" stroke="#e769c7" fill="none"/><path d="M7 104 C173 68,164 139,332 69" stroke="#704cdb" fill="none"/><path d="M12 6 C172 92,152 91,340 62" stroke="#d37fef" fill="none"/><path d="M6 113 C188 86,164 17,335 82" stroke="#63dddd" fill="none"/><path d="M3 108 C169 14,182 126,329 63" stroke="#80cfe9" fill="none"/><path d="M3 67 C156 86,177 37,332 28" stroke="#b947df" fill="none"/><path d="M3 34 C169 59,174 23,330 137" stroke="#8f8fe9" fill="none"/><path fill="#de4e96" d="M52.46 67.08L52.54 67.16L52.44 67.05Q46.69 67.13 43.36 65.19L43.34 65.17L43.29 65.12Q47.85 62.60 56.73 54.91L56.72 54.90L56.70 54.89Q58.14 54.66 60.49 53.55L60.44 53.49L60.48 53.53Q58.07 64.36 57.86 75.94L57.82 75.90L57.80 75.88Q57.59 87.46 59.53 98.55L59.57 98.60L59.47 98.49Q56.58 97.33 52.69 97.13L52.53 96.96L52.52 96.96Q52.34 89.42 52.34 82.00L52.34 82.00L52.38 82.05Q52.36 74.54 52.43 67.05ZM51.74 71.14L51.81 97.76L51.77 97.73Q54.04 97.78 55.77 98.12L55.63 97.99L55.67 98.02Q55.77 99.23 56.12 101.73L56.22 101.83L56.28 101.89Q61.45 102.83 65.89 106.93L65.92 106.95L65.87 106.90Q61.32 93.89 61.25 80.30L61.29 80.34L61.37 80.42Q61.11 66.71 64.44 53.54L64.56 53.66L64.46 53.56Q63.47 54.30 60.56 56.31L60.55 56.30L60.68 56.43Q60.89 54.91 61.44 52.14L61.41 52.10L61.44 52.14Q59.16 53.66 56.52 54.36L56.35 54.18L56.36 54.20Q49.61 60.82 41.77 64.98L41.67 64.88L41.73 64.95Q44.27 66.93 48.57 67.55L48.63 67.61L48.49 67.47Q47.38 68.52 45.02 70.46L45.15 70.58L45.11 70.54Q47.80 71.22 51.82 71.22L51.72 71.12Z"/><path fill="#71dea8" d="M158.71 97.96L158.72 97.96L158.62 97.86Q156.08 98.03 153.24 97.27L153.28 97.31L153.21 97.25Q151.04 95.63 150.76 92.65L150.79 92.67L150.80 92.68Q150.79 92.40 151.14 87.61L150.97 87.45L151.02 87.50Q153.01 87.26 156.69 86.57L156.71 86.60L156.18 87.80L156.22 87.84Q155.81 91.10 158.38 92.14L158.32 92.09L158.30 92.07Q159.90 92.84 163.72 92.84L163.59 92.71L163.67 92.79Q166.62 92.55 166.96 92.41L166.96 92.41L166.97 92.42Q168.61 92.12 169.93 91.22L169.88 91.16L169.85 91.14Q172.42 89.40 172.07 85.59L172.17 85.69L171.98 85.50Q171.80 81.23 168.65 78.39L168.67 78.42L168.53 78.27Q165.48 75.53 160.97 75.53L160.85 75.42L160.98 75.12L160.88 75.02Q161.54 74.93 163.14 74.79L163.12 74.77L163.11 74.76Q166.72 74.70 169.22 72.44L169.07 72.29L169.12 72.35Q171.68 70.16 171.96 66.76L172.01 66.81L172.00 66.79Q172.04 66.07 172.04 65.45L171.99 65.41L172.16 65.57Q172.12 62.76 169.62 61.09L169.50 60.97L169.68 61.15Q167.30 59.54 164.39 59.74L164.43 59.78L164.41 59.77Q162.16 59.60 159.95 60.36L159.91 60.33L159.81 60.23Q157.18 61.20 156.62 63.28L156.69 63.35L156.78 63.44Q156.32 64.71 156.46 66.10L156.49 66.13L156.43 66.07Q154.56 65.65 150.82 64.34L150.89 64.42L150.78 64.30Q150.45 61.34 150.52 59.82L150.45 59.74L150.48 59.77Q150.79 57.10 152.74 55.86L152.57 55.69L152.68 55.80Q155.17 54.61 158.08 54.61L158.18 54.71L158.10 54.63Q164.00 54.70 169.75 55.19L169.66 55.10L169.68 55.12Q178.87 55.85 178.31 62.71L178.28 62.68L178.32 62.71Q178.11 65.35 177.21 68.20L177.35 68.33L177.23 68.22Q175.60 73.87 171.31 75.54L171.23 75.46L171.28 75.51Q176.16 76.58 177.27 82.68L177.13 82.54L177.14 82.55Q177.66 84.73 177.80 88.41L177.69 88.30L177.75 88.36Q177.95 96.39 169.56 97.23L169.56 97.23L169.69 97.36Q168.34 97.47 158.70 97.95ZM168.12 101.96L168.14 101.98L168.19 102.02Q169.33 102.13 174.53 102.27L174.57 102.30L174.43 102.17Q177.73 102.41 180.71 101.23L180.60 101.13L180.62 101.14Q182.84 99.48 182.50 96.29L182.51 96.30L182.55 96.35Q182.36 93.94 181.81 90.75L181.77 90.71L181.62 90.57Q180.46 82.54 176.93 79.56L176.90 79.53L176.44 78.73L176.42 78.63L176.44 78.66Q179.61 76.01 181.00 68.03L181.01 68.05L181.04 68.07Q181.10 67.23 181.31 65.50L181.24 65.43L181.30 65.49Q181.44 64.11 181.31 62.86L181.36 62.92L181.31 62.86Q180.95 59.74 178.60 58.49L178.59 58.48L178.51 58.54L178.59 58.62Q178.06 56.85 175.98 55.88L175.87 55.76L175.87 55.76Q173.17 54.58 163.81 54.03L163.84 54.06L163.68 53.91Q160.71 53.85 157.80 53.85L157.73 53.78L157.71 53.76Q154.90 53.86 152.12 55.03L152.02 54.94L152.18 55.09Q149.80 56.32 149.80 59.51L149.89 59.59L149.81 59.52Q149.88 58.82 150.36 64.92L150.39 64.95L150.48 65.04Q150.98 65.12 153.96 66.23L153.81 66.09L153.81 66.09Q154.00 67.25 153.94 68.15L153.87 68.08L153.75 67.96Q153.80 68.92 153.87 69.89L154.00 70.01L153.95 69.97Q157.16 70.61 160.84 70.82L160.84 70.83L160.83 70.81Q160.73 67.18 162.74 65.65L162.78 65.70L162.67 65.59Q164.21 64.42 167.89 64.00L167.94 64.06L167.88 64.00Q170.03 64.06 171.07 64.41L171.03 64.37L171.03 64.37Q171.05 64.54 171.12 64.74L171.20 64.82L171.13 65.10L171.48 66.28L171.46 66.26Q171.46 66.61 171.39 66.89L171.33 66.82L171.39 66.88Q171.14 69.89 168.36 72.04L168.37 72.04L168.46 72.13Q166.73 73.73 163.06 74.08L163.01 74.03L163.05 74.07Q161.77 74.39 160.17 74.39L160.24 74.45L160.08 74.30Q160.27 75.04 160.54 76.28L160.49 76.23L160.46 76.20Q163.62 76.18 166.26 77.49L166.25 77.49L166.12 77.56L163.18 77.81L163.20 77.83Q163.26 78.45 163.47 79.56L163.59 79.67L163.58 79.67Q167.41 79.47 170.53 81.90L170.64 82.01L170.64 82.01Q170.96 82.61 171.51 85.59L171.60 85.68L171.50 85.57Q171.95 91.02 166.61 91.78L166.44 91.62L166.48 91.65Q162.62 92.09 161.58 92.02L161.66 92.10L161.59 92.03Q160.94 92.01 159.97 91.87L159.84 91.74L159.91 90.97L160.08 90.11L160.24 89.50L160.16 88.79L160.27 88.91Q158.44 88.95 156.99 89.30L157.09 89.40L157.10 89.42Q156.91 88.88 156.91 88.53L157.00 88.62L156.99 88.61Q157.05 88.26 157.05 87.84L157.03 87.82L157.05 87.83Q157.18 87.13 157.45 85.81L157.29 85.65L157.42 85.78Q153.92 86.09 150.52 86.71L150.64 86.84L150.54 86.73Q150.64 87.73 150.43 89.78L150.28 89.63L150.30 89.65Q150.15 91.76 150.15 92.87L150.20 92.92L150.20 92.91Q150.27 96.59 152.77 97.98L152.73 97.94L152.74 97.95Q155.54 102.21 164.14 101.86L164.16 101.88L164.04 101.76Q165.40 101.74 168.18 102.01Z"/><path d="M16 32 C161 108,151 44,322 74" stroke="#45e645" fill="none"/><path d="M18 118 C157 134,168 16,323 41" stroke="#de44de" fill="none"/><path d="M3 130 C179 35,157 16,323 80" stroke="#e674c9" fill="none"/><path d="M3 118 C185 132,161 74,321 74" stroke="#93df47" fill="none"/><path d="M20 137 C165 65,183 91,334 92" stroke="#dc74a8" fill="none"/><path d="M4 42 C185 2,169 37,330 32" stroke="#68aaed" fill="none"/><path d="M12 52 C177 16,178 94,321 31" stroke="#ee67ee" fill="none"/><path d="M10 117 C174 41,167 68,330 59" stroke="#4cd66e" fill="none"/><path d="M12 98 C150 27,175 135,332 106" stroke="#91e33f" fill="none"/><path d="M11 3 C159 133,178 87,329 116" stroke="#50d772" fill="none"/><path d="M8 59 C172 47,190 1,324 49" stroke="#5151ea" fill="none"/><path d="M5 54 C179 51,190 65,336 127" stroke="#7feacf" fill="none"/><path d="M12 37 C172 122,165 122,337 131" stroke="#71e04c" fill="none"/><path d="M11 61 C176 94,185 21,332 124" stroke="#6ec9e7" fill="none"/><path fill="#8dbae6" d="M278.09 77.69L278.02 77.62L278.10 77.70Q274.60 77.60 272.38 80.03L272.33 79.97L272.43 80.07Q270.22 82.51 269.94 85.97L270.00 86.03L269.92 85.96Q269.67 89.93 271.89 91.77L271.77 91.65L271.78 91.66Q274.01 93.51 277.89 93.37L277.82 93.30L277.83 93.31Q282.19 93.16 283.93 91.43L283.86 91.36L283.83 91.34Q285.78 88.78 285.57 85.45L285.47 85.35L285.48 85.36Q285.26 81.95 283.29 79.76L283.30 79.78L283.24 79.72Q281.40 77.67 278.07 77.67ZM277.97 60.44L277.92 60.39L278.04 60.51Q275.43 60.26 273.01 61.16L272.96 61.12L272.91 61.07Q270.69 62.66 271.11 66.06L271.05 66.00L271.07 66.02Q271.87 72.72 277.97 72.72L278.00 72.75L277.98 72.73Q280.96 73.21 282.76 71.13L282.68 71.05L282.59 70.96Q284.52 69.00 284.59 66.16L284.60 66.17L284.46 66.03Q284.61 62.85 283.29 61.74L283.43 61.88L283.41 61.86Q280.25 60.22 277.89 60.36ZM277.50 97.90L277.48 97.88L271.92 97.86L271.93 97.88Q269.12 97.84 266.69 96.25L266.75 96.30L266.64 96.19Q264.25 94.22 264.53 89.02L264.45 88.95L264.55 89.04Q265.31 76.49 271.90 74.69L271.85 74.64L271.88 74.67Q267.72 73.00 265.29 63.22L265.41 63.34L265.24 63.18Q264.76 60.75 264.90 59.29L264.81 59.21L264.80 59.20Q265.35 55.31 272.08 55.24L272.09 55.26L272.09 55.26Q279.88 55.21 282.51 55.55L282.49 55.53L282.51 55.55Q289.45 56.46 290.29 60.14L290.33 60.19L290.26 60.12Q290.61 61.36 290.61 62.05L290.53 61.97L290.47 61.92Q290.45 63.14 290.10 64.25L290.14 64.29L290.13 64.28Q289.07 72.03 283.73 74.80L283.65 74.72L283.73 74.80Q290.01 76.16 290.91 85.79L290.96 85.85L290.90 85.79Q290.91 86.07 290.98 88.42L291.05 88.50L291.13 88.58Q291.18 93.49 288.27 95.43L288.28 95.43L288.29 95.45Q285.84 97.09 277.52 97.92ZM281.63 102.10L281.61 102.08L287.64 102.14L287.69 102.19Q290.90 102.42 293.67 101.11L293.60 101.04L293.61 101.04Q295.63 99.67 295.77 96.27L295.91 96.41L295.86 96.36Q295.95 94.37 295.26 90.84L295.22 90.80L295.23 90.81Q293.53 82.31 289.72 78.91L289.78 78.98L289.43 78.28L289.01 77.72L288.84 77.34L288.72 77.23Q291.83 74.86 293.50 67.30L293.40 67.21L293.46 67.26Q293.46 66.57 293.60 65.05L293.61 65.05L293.65 65.09Q293.71 63.76 293.57 62.66L293.51 62.60L293.55 62.64Q293.31 60.04 291.16 59.14L291.12 59.10L291.29 59.20L290.81 58.86L290.92 58.96Q290.40 57.62 288.25 56.16L288.27 56.18L288.24 56.08L288.23 56.07Q284.60 54.80 277.18 54.45L277.36 54.63L277.31 54.58Q274.35 54.25 271.85 54.46L272.01 54.62L271.86 54.47Q270.46 54.59 268.10 54.87L268.11 54.88L268.07 54.84Q264.51 55.51 264.09 58.49L264.09 58.49L264.25 58.65Q264.08 59.44 264.14 60.90L264.15 60.90L264.21 60.96Q264.42 61.94 265.46 66.24L265.42 66.20L265.34 66.12Q266.86 72.07 270.05 74.50L270.09 74.54L270.17 74.63L270.29 74.75Q265.19 77.06 264.21 86.49L264.18 86.46L264.20 86.48Q263.88 90.52 263.88 92.19L263.82 92.13L263.90 92.20Q264.00 95.43 266.15 97.09L266.01 96.95L266.05 96.99Q266.24 97.11 266.72 97.46L266.75 97.48L266.74 97.47Q268.74 101.76 281.71 102.18ZM281.06 81.97L281.07 81.99L281.03 81.95Q282.73 81.84 284.32 82.67L284.33 82.68L284.25 82.60Q285.05 84.51 284.98 85.48L284.82 85.32L284.87 85.37Q285.03 86.02 285.03 86.58L285.01 86.55L284.97 86.51Q284.99 90.83 280.83 92.35L280.82 92.34L280.88 92.40Q279.27 92.81 277.81 92.60L277.80 92.59L277.85 92.63Q275.86 92.86 273.78 92.03L273.86 92.11L273.87 92.12Q273.22 90.77 273.36 88.97L273.49 89.10L273.49 89.11Q273.75 86.18 275.94 83.96L275.83 83.85L275.83 83.85Q278.01 81.63 280.92 81.84ZM281.37 64.60L281.39 64.62L281.45 64.68Q282.82 64.39 283.79 64.67L283.92 64.80L283.88 66.22L283.82 66.15Q283.84 68.73 282.17 70.57L282.15 70.55L282.15 70.55Q280.53 72.44 278.04 72.09L277.94 71.99L277.96 72.01Q276.13 71.99 275.37 71.57L275.55 71.75L275.41 71.61Q275.37 71.16 275.17 69.91L275.11 69.85L275.25 69.99Q274.66 67.33 276.88 65.80L276.93 65.85L276.84 65.76Q278.79 64.52 281.35 64.59Z"/><path d="M6 77 C153 130,176 30,330 55" stroke="#77e3c8" fill="none"/><path d="M5 37 C176 108,187 96,331 39" stroke="#c068dd" fill="none"/><path d="M17 24 C182 106,157 99,328 44" stroke="#8ce06f" fill="none"/><path d="M6 124 C161 15,186 123,340 92" stroke="#f0b77f" fill="none"/><path d="M9 103 C159 82,185 92,335 111" stroke="#e03862" fill="none"/><path d="M11 130 C181 135,158 56,324 28" stroke="#e2cb87" fill="none"/><path d="M9 89 C156 67,189 53,341 129" stroke="#92e6bc" fill="none"/><path d="M16 33 C173 112,167 90,337 29" stroke="#50b5d7" fill="none"/><path d="M13 43 C156 76,164 123,334 87" stroke="#88e19e" fill="none"/><path d="M13 119 C168 83,183 63,321 101" stroke="#54dddd" fill="none"/><path d="M18 56 C165 3,164 49,325 94" stroke="#e1be55" fill="none"/><path fill="#76d0ee" d="M107.97 77.57L107.94 77.54L108.04 77.64Q104.57 77.57 102.35 79.99L102.34 79.99L102.48 80.12Q100.28 82.57 100.00 86.04L99.88 85.91L99.99 86.02Q99.54 89.81 101.76 91.64L101.75 91.63L101.78 91.66Q103.97 93.47 107.86 93.33L107.84 93.32L107.79 93.27Q112.18 93.15 113.92 91.42L113.89 91.39L113.83 91.34Q115.78 88.77 115.57 85.45L115.58 85.45L115.46 85.34Q115.33 82.01 113.35 79.83L113.29 79.77L113.40 79.88Q111.29 77.56 107.96 77.56ZM107.92 60.39L108.04 60.51L107.97 60.44Q105.47 60.30 103.05 61.20L102.95 61.10L103.06 61.22Q100.70 62.67 101.12 66.07L101.10 66.05L100.94 65.89Q101.97 72.82 108.08 72.82L108.03 72.77L108.00 72.74Q110.79 73.04 112.60 70.96L112.61 70.97L112.58 70.94Q114.53 69.01 114.60 66.17L114.50 66.07L114.52 66.09Q114.69 62.93 113.37 61.82L113.34 61.79L113.29 61.74Q110.39 60.36 108.03 60.50ZM107.55 97.95L107.52 97.92L101.87 97.82L101.91 97.86Q99.21 97.93 96.78 96.33L96.79 96.34L96.77 96.32Q94.16 94.13 94.44 88.93L94.47 88.97L94.48 88.98Q95.36 76.53 101.94 74.73L101.90 74.69L101.88 74.66Q97.68 72.96 95.25 63.19L95.34 63.27L95.33 63.27Q94.72 60.72 94.86 59.26L94.80 59.19L94.78 59.18Q95.50 55.46 102.22 55.39L102.23 55.39L102.07 55.23Q109.81 55.14 112.44 55.48L112.44 55.48L112.40 55.44Q119.47 56.48 120.31 60.16L120.38 60.23L120.25 60.10Q120.57 61.32 120.57 62.01L120.54 61.99L120.44 61.89Q120.46 63.15 120.11 64.26L120.26 64.41L120.08 64.23Q119.08 72.04 113.74 74.81L113.66 74.73L113.68 74.75Q120.08 76.22 120.98 85.86L120.96 85.85L121.09 85.98Q121.02 86.18 121.09 88.54L121.03 88.48L121.05 88.50Q121.24 93.55 118.33 95.49L118.29 95.45L118.35 95.51Q115.81 97.06 107.49 97.89ZM111.70 102.17L111.64 102.11L117.76 102.26L117.64 102.15Q120.81 102.33 123.58 101.01L123.71 101.14L123.66 101.09Q125.65 99.69 125.79 96.29L125.80 96.30L125.78 96.28Q126.02 94.44 125.33 90.90L125.15 90.72L125.16 90.74Q123.50 82.28 119.68 78.88L119.75 78.95L119.40 78.25L119.09 77.80L118.87 77.37L118.88 77.38Q121.86 74.88 123.52 67.32L123.32 67.13L123.50 67.31Q123.33 66.44 123.47 64.92L123.60 65.04L123.47 64.91Q123.77 63.83 123.63 62.72L123.52 62.61L123.56 62.65Q123.23 59.96 121.08 59.06L121.10 59.07L121.14 59.05L120.89 58.94L120.78 58.83Q120.38 57.60 118.23 56.14L118.21 56.12L118.24 56.08L118.27 56.11Q114.76 54.96 107.34 54.61L107.25 54.52L107.31 54.58Q104.51 54.42 102.02 54.63L101.86 54.47L101.85 54.46Q100.57 54.71 98.21 54.98L98.09 54.86L98.18 54.95Q94.67 55.67 94.26 58.65L94.12 58.52L94.16 58.55Q94.03 59.39 94.10 60.85L94.06 60.82L94.23 60.99Q94.37 61.89 95.41 66.19L95.47 66.25L95.34 66.12Q96.78 72.00 99.97 74.42L100.04 74.49L100.21 74.66L100.14 74.59Q95.04 76.91 94.07 86.34L94.15 86.42L94.16 86.44Q93.79 90.43 93.79 92.09L93.80 92.11L93.73 92.04Q93.99 95.41 96.14 97.08L96.07 97.01L96.07 97.01Q96.30 97.17 96.79 97.52L96.72 97.45L96.73 97.46Q98.67 101.70 111.64 102.11ZM110.94 81.85L111.11 82.02L110.99 81.90Q112.66 81.77 114.25 82.60L114.18 82.53L114.35 82.70Q114.92 84.38 114.85 85.36L114.97 85.47L114.93 85.43Q115.02 86.01 115.02 86.56L114.87 86.41L114.95 86.49Q114.99 90.83 110.83 92.35L110.73 92.25L110.80 92.32Q109.38 92.92 107.92 92.71L107.89 92.68L107.96 92.74Q105.86 92.86 103.78 92.03L103.72 91.97L103.73 91.99Q103.30 90.86 103.44 89.05L103.54 89.16L103.38 89.00Q103.64 86.06 105.82 83.84L105.88 83.90L105.87 83.90Q108.16 81.78 111.07 81.99ZM111.46 64.69L111.37 64.61L111.37 64.61Q112.85 64.42 113.83 64.70L113.93 64.81L113.76 66.10L113.80 66.13Q113.87 68.77 112.21 70.61L112.23 70.63L112.25 70.65Q110.56 72.46 108.06 72.12L108.02 72.07L107.95 72.00Q106.13 71.99 105.37 71.57L105.55 71.75L105.37 71.57Q105.49 71.27 105.28 70.03L105.27 70.02L105.27 70.01Q104.66 67.33 106.88 65.80L106.89 65.81L106.88 65.80Q108.79 64.52 111.36 64.59Z"/><path d="M19 116 C168 93,173 137,333 9" stroke="#e948e9" fill="none"/><path d="M11 77 C153 86,182 1,326 19" stroke="#7853e8" fill="none"/><path d="M4 9 C158 41,185 49,321 56" stroke="#e8805d" fill="none"/><path d="M20 119 C181 52,162 55,322 89" stroke="#b8d859" fill="none"/><path d="M2 80 C186 91,152 92,323 125" stroke="#c0e358" fill="none"/><path d="M4 100 C176 21,157 11,337 109" stroke="#df5c5c" fill="none"/></svg>