<svg xmlns="http://www.w3.org/2000/svg" width="342" height="140" viewBox="0,0,342,140"><path d="M17 22 C180 9,158 20,322 102" stroke="#e485b5" fill="none"/><path d="M11 48 C163 26,160 119,322 18" stroke="#dfb843" fill="none"/><path d="M4 99 C162 58,157 123,336 32" stroke="#89de6c" fill="none"/><path fill="#4f4fdd" d="M222.52 76.00L222.54 76.02L222.54 76.01Q219.75 75.89 218.01 77.79L218.04 77.82L218.17 77.95Q216.27 79.69 216.05 82.41L216.14 82.51L216.11 82.47Q215.87 85.56 217.61 87.00L217.66 87.04L217.67 87.05Q219.31 88.39 222.35 88.28L222.47 88.40L222.48 88.41Q225.75 88.15 227.11 86.79L227.08 86.76L227.09 86.77Q228.60 84.74 228.43 82.13L228.40 82.10L228.30 81.99Q228.24 79.43 226.69 77.72L226.69 77.72L226.76 77.79Q225.08 75.94 222.47 75.94ZM222.49 62.53L222.37 62.41L222.40 62.44Q220.37 62.26 218.46 62.96L218.56 63.06L218.49 63.00Q216.60 64.09 216.93 66.76L217.04 66.88L216.96 66.79Q217.67 72.12 222.45 72.12L222.46 72.13L222.59 72.26Q224.77 72.48 226.18 70.85L226.24 70.91L226.17 70.83Q227.50 69.13 227.56 66.90L227.68 67.02L227.59 66.92Q227.68 64.41 226.65 63.54L226.60 63.49L226.74 63.63Q224.29 62.38 222.44 62.49ZM222.12 91.92L222.10 91.89L217.78 91.93L217.81 91.95Q215.62 91.94 213.72 90.69L213.59 90.56L213.63 90.60Q211.63 88.93 211.85 84.85L211.98 84.98L211.88 84.88Q212.65 75.21 217.81 73.79L217.68 73.66L217.74 73.71Q214.36 72.30 212.46 64.63L212.53 64.70L212.49 64.67Q212.13 62.78 212.24 61.63L212.17 61.57L212.22 61.61Q212.59 58.51 217.86 58.45L217.81 58.40L217.79 58.38Q223.85 58.29 225.92 58.56L225.95 58.60L225.90 58.55Q231.48 59.39 232.13 62.28L232.07 62.21L232.14 62.29Q232.33 63.18 232.33 63.72L232.38 63.78L232.30 63.69Q232.35 64.72 232.07 65.59L231.96 65.47L232.04 65.56Q231.21 71.64 227.03 73.81L227.02 73.81L226.99 73.78Q231.97 74.89 232.67 82.45L232.64 82.41L232.69 82.47Q232.65 82.65 232.71 84.50L232.75 84.54L232.70 84.49Q232.93 88.53 230.65 90.05L230.63 90.04L230.60 90.01Q228.63 91.24 222.11 91.90ZM225.41 95.26L225.31 95.15L230.19 95.36L230.22 95.39Q232.65 95.48 234.82 94.44L234.84 94.46L234.72 94.34Q236.32 93.27 236.42 90.61L236.44 90.63L236.41 90.60Q236.54 89.09 235.99 86.31L236.04 86.36L235.96 86.28Q234.67 79.66 231.68 77.00L231.75 77.07L231.33 76.37L231.20 76.13L230.89 75.67L230.93 75.70Q233.27 73.75 234.58 67.82L234.56 67.80L234.59 67.84Q234.51 67.21 234.62 66.01L234.59 65.99L234.68 66.07Q234.80 65.11 234.69 64.24L234.59 64.14L234.69 64.24Q234.40 62.10 232.71 61.39L232.86 61.54L232.78 61.40L232.47 61.20L232.58 61.31Q232.15 60.23 230.46 59.08L230.43 59.05L230.48 59.05L230.63 59.19Q227.75 58.17 221.93 57.90L221.91 57.87L221.85 57.82Q219.69 57.72 217.73 57.88L217.79 57.94L217.81 57.96Q216.65 57.99 214.80 58.21L214.69 58.11L214.82 58.23Q211.88 58.61 211.55 60.95L211.62 61.01L211.58 60.97Q211.56 61.72 211.62 62.86L211.60 62.85L211.65 62.90Q211.73 63.57 212.54 66.94L212.56 66.97L212.55 66.95Q213.70 71.58 216.20 73.48L216.31 73.59L216.38 73.66L216.30 73.59Q212.36 75.46 211.60 82.86L211.73 82.99L211.72 82.98Q211.41 86.10 211.41 87.40L211.31 87.30L211.35 87.34Q211.45 89.89 213.13 91.19L213.06 91.12L213.16 91.22Q213.29 91.29 213.67 91.56L213.60 91.49L213.72 91.61Q215.17 94.86 225.34 95.18ZM224.88 79.39L224.75 79.26L224.76 79.27Q226.25 79.34 227.50 80.00L227.50 80.00L227.37 79.87Q228.03 81.39 227.97 82.15L227.80 81.98L227.88 82.06Q227.92 82.49 227.92 82.92L227.86 82.86L227.97 82.97Q227.91 86.29 224.65 87.48L224.58 87.41L224.72 87.55Q223.48 87.88 222.33 87.72L222.34 87.73L222.37 87.76Q220.80 87.93 219.17 87.28L219.09 87.20L219.24 87.35Q218.88 86.44 218.99 85.03L218.91 84.95L218.90 84.93Q219.19 82.73 220.91 80.99L220.80 80.88L220.87 80.95Q222.57 79.20 224.86 79.37ZM225.25 65.89L225.13 65.77L225.14 65.78Q226.34 65.68 227.11 65.90L227.04 65.84L227.04 66.98L227.08 67.02Q227.10 69.05 225.80 70.49L225.84 70.53L225.81 70.50Q224.42 71.86 222.46 71.59L222.58 71.70L222.54 71.66Q221.05 71.59 220.45 71.26L220.44 71.25L220.46 71.28Q220.37 70.85 220.20 69.87L220.32 69.99L220.19 69.86Q219.80 67.83 221.54 66.64L221.73 66.84L221.61 66.71Q223.24 65.84 225.25 65.89Z"/><path d="M20 85 C184 85,179 135,329 49" stroke="#eb56eb" fill="none"/><path d="M12 108 C182 47,157 42,333 68" stroke="#3bdc64" fill="none"/><path d="M5 41 C183 136,177 4,329 124" stroke="#85ef9f" fill="none"/><path d="M5 117 C169 31,157 97,329 108" stroke="#71dea8" fill="none"/><path d="M15 132 C171 41,170 36,336 54" stroke="#de7791" fill="none"/><path d="M18 77 C158 126,162 73,331 25" stroke="#dd40b6" fill="none"/><path d="M18 88 C181 17,172 18,339 84" stroke="#ee859f" fill="none"/><path fill="#a089e5" d="M279.25 62.33L279.28 62.35L277.02 62.49L276.97 62.44Q273.76 62.61 273.44 65.49L273.52 65.57L273.44 65.50Q273.43 66.62 273.48 68.03L273.43 67.98L273.41 67.96Q273.52 70.79 275.32 72.70L275.22 72.61L275.25 72.63Q277.13 74.62 279.85 74.41L279.84 74.39L279.76 74.32Q282.83 74.23 283.92 72.92L283.86 72.87L283.79 72.80Q285.42 71.59 285.80 68.38L285.75 68.34L285.69 68.27Q286.18 65.18 284.39 63.99L284.40 64.00L284.21 63.81Q283.15 62.86 279.35 62.42ZM287.91 75.55L287.90 75.55L285.97 78.73L286.09 78.85Q282.28 85.75 276.90 91.57L276.82 91.50L276.78 91.45Q274.43 91.66 270.57 92.81L270.57 92.81L270.53 92.76Q278.22 83.86 282.73 77.01L282.69 76.97L282.83 77.11Q281.23 77.90 278.89 78.01L278.84 77.96L278.85 77.97Q274.55 78.18 272.37 75.35L272.41 75.40L272.42 75.40Q270.76 73.19 269.18 66.67L269.05 66.54L269.05 66.54Q269.07 65.91 268.85 64.58L268.90 64.63L268.88 64.60Q268.78 63.38 268.78 62.73L268.73 62.68L268.72 62.67Q268.68 60.08 270.21 59.21L270.21 59.22L270.16 59.16Q272.05 58.23 274.72 58.23L274.67 58.19L274.64 58.15Q279.27 58.21 279.27 58.21L279.22 58.17L279.24 58.18Q282.40 58.30 284.19 58.57L284.06 58.43L284.00 58.38Q287.24 58.95 288.54 59.65L288.50 59.61L288.51 59.63Q290.45 60.69 290.72 63.19L290.71 63.19L290.67 63.14Q290.67 63.47 290.40 67.27L290.43 67.31L290.37 67.25Q289.95 70.41 289.62 71.61L289.59 71.58L289.50 71.49Q288.98 73.53 287.89 75.54ZM290.62 78.97L290.61 78.96L290.70 79.06Q292.09 75.88 292.86 69.73L292.78 69.66L292.73 69.61Q293.19 66.53 293.13 65.28L293.15 65.30L293.02 65.17Q293.07 62.61 291.39 61.30L291.42 61.33L291.02 61.21L290.90 61.08Q290.51 59.99 289.20 59.07L289.34 59.20L289.24 59.11Q286.01 57.72 279.15 57.50L279.24 57.59L279.09 57.43Q277.70 57.41 274.22 57.41L274.30 57.49L274.38 57.57Q271.85 57.53 269.73 58.51L269.61 58.40L269.65 58.44Q268.04 59.60 268.14 62.21L268.17 62.23L268.20 62.27Q268.42 63.51 268.69 66.39L268.65 66.36L268.68 66.39Q269.62 70.21 270.00 71.40L269.97 71.38L270.05 71.46Q270.77 74.02 272.13 75.87L272.03 75.77L272.18 75.92Q272.60 76.45 273.15 77.00L273.07 76.92L273.13 76.98Q273.44 77.57 274.37 78.87L274.44 78.95L274.45 78.96Q276.55 80.90 279.33 81.17L279.20 81.04L279.17 81.01Q276.61 84.97 274.38 87.69L274.34 87.66L269.14 93.88L269.21 93.95Q272.29 92.73 274.63 92.24L274.64 92.25L274.78 92.40Q273.67 93.62 271.44 96.06L271.46 96.08L271.30 95.93Q275.80 94.72 280.26 94.67L280.21 94.61L280.19 94.59Q283.59 90.98 289.79 80.65L289.67 80.52L289.83 80.79L289.69 80.65Q290.18 79.72 290.66 79.02ZM281.96 65.68L282.03 65.76L281.99 65.72Q282.94 65.64 283.60 65.80L283.53 65.74L283.48 65.68Q284.46 65.90 285.00 66.07L284.98 66.05L285.05 66.11Q285.26 66.70 285.37 67.30L285.22 67.15L285.32 67.25Q285.47 67.89 285.31 68.44L285.32 68.45L285.28 68.41Q285.08 70.72 283.40 72.29L283.46 72.36L283.57 72.47Q282.08 73.81 279.75 73.75L279.86 73.87L279.76 73.77Q279.19 73.80 277.02 73.37L277.01 73.35L277.02 73.37Q276.65 72.07 276.65 71.04L276.61 71.00L276.77 71.16Q276.66 70.77 276.66 70.45L276.63 70.43L276.57 70.36Q276.62 67.25 279.88 66.11L279.83 66.07L279.90 66.13Q280.75 65.68 281.95 65.68Z"/><path d="M11 127 C167 114,163 124,334 57" stroke="#6ae641" fill="none"/><path d="M13 107 C176 34,189 12,341 79" stroke="#8bb7e3" fill="none"/><path d="M16 94 C180 27,192 121,340 64" stroke="#73c6e2" fill="none"/><path d="M16 96 C176 91,191 80,324 11" stroke="#6ce9c9" fill="none"/><path d="M6 42 C151 81,183 93,324 36" stroke="#ef89ef" fill="none"/><path d="M15 50 C160 39,153 42,328 99" stroke="#815fe7" fill="none"/><path d="M6 5 C164 34,172 62,336 69" stroke="#4b93dc" fill="none"/><path d="M9 30 C173 84,159 94,331 5" stroke="#70efaf" fill="none"/><path fill="#52bfe4" d="M161.07 91.86L161.05 91.83L161.21 91.99Q159.07 91.97 156.84 91.37L156.85 91.38L156.80 91.33Q155.13 90.10 154.91 87.76L154.93 87.78L154.93 87.78Q154.80 87.43 155.07 83.67L155.11 83.71L155.14 83.75Q156.66 83.52 159.54 82.98L159.49 82.93L159.21 84.01L159.28 84.08Q158.83 86.52 160.85 87.33L160.79 87.27L160.80 87.29Q161.93 87.76 164.92 87.76L164.93 87.78L164.98 87.82Q167.32 87.66 167.60 87.56L167.54 87.50L167.58 87.54Q168.84 87.27 169.87 86.57L169.82 86.51L169.83 86.53Q171.97 85.29 171.70 82.30L171.66 82.26L171.56 82.17Q171.43 78.83 168.96 76.60L168.91 76.55L168.97 76.61Q166.33 74.22 162.79 74.22L162.88 74.30L162.78 73.87L162.97 74.06Q163.43 73.92 164.68 73.81L164.61 73.75L164.66 73.79Q167.42 73.67 169.38 71.91L169.28 71.81L169.40 71.93Q171.36 70.16 171.58 67.50L171.45 67.37L171.56 67.48Q171.67 66.99 171.67 66.50L171.62 66.45L171.71 66.54Q171.56 64.21 169.60 62.91L169.70 63.01L169.59 62.90Q167.89 61.79 165.60 61.96L165.62 61.97L165.74 62.10Q163.75 61.74 162.01 62.34L162.11 62.43L162.09 62.41Q160.01 63.16 159.57 64.79L159.60 64.82L159.54 64.77Q159.21 65.79 159.32 66.88L159.40 66.96L159.34 66.90Q157.99 66.69 155.05 65.65L155.05 65.66L154.96 65.56Q154.73 63.27 154.79 62.07L154.80 62.08L154.81 62.10Q154.79 59.73 156.31 58.76L156.38 58.83L156.39 58.84Q158.44 58.00 160.72 58.00L160.78 58.07L160.80 58.08Q165.23 57.95 169.75 58.33L169.66 58.24L169.73 58.30Q177.04 58.98 176.60 64.37L176.43 64.19L176.43 64.20Q176.50 66.49 175.79 68.72L175.65 68.58L175.70 68.63Q174.41 73.05 171.04 74.36L171.03 74.35L170.99 74.31Q174.79 75.12 175.66 79.91L175.63 79.87L175.69 79.93Q175.88 81.43 175.99 84.31L176.08 84.40L176.06 84.38Q176.25 90.72 169.67 91.37L169.80 91.50L169.81 91.51Q168.65 91.50 161.09 91.88ZM168.58 95.12L168.66 95.20L168.51 95.05Q169.37 95.09 173.44 95.20L173.57 95.32L173.58 95.34Q176.02 95.38 178.36 94.46L178.34 94.44L178.41 94.51Q180.13 93.18 179.85 90.68L179.72 90.54L179.71 90.53Q179.53 88.62 179.10 86.11L179.20 86.22L179.18 86.20Q178.24 79.87 175.47 77.53L175.43 77.50L175.20 77.00L175.01 76.75L175.00 76.74Q177.57 74.75 178.66 68.49L178.69 68.52L178.59 68.42Q178.67 67.79 178.83 66.43L178.87 66.47L178.84 66.44Q179.00 65.41 178.89 64.43L178.95 64.48L178.87 64.40Q178.71 62.07 176.86 61.09L176.79 61.02L176.61 60.95L176.76 61.10Q176.31 59.67 174.68 58.90L174.57 58.80L174.53 58.75Q172.49 57.91 165.14 57.48L165.02 57.35L165.09 57.42Q162.69 57.30 160.40 57.30L160.39 57.30L160.43 57.33Q158.09 57.27 155.91 58.20L155.96 58.25L155.92 58.20Q154.27 59.38 154.27 61.88L154.19 61.81L154.29 61.90Q154.20 61.22 154.59 66.01L154.56 65.98L154.52 65.94Q155.07 66.17 157.41 67.04L157.43 67.05L157.36 66.99Q157.41 67.80 157.36 68.51L157.32 68.46L157.24 68.38Q157.33 69.18 157.38 69.94L157.40 69.96L157.46 70.02Q159.94 70.49 162.83 70.66L162.86 70.69L162.86 70.69Q162.80 67.85 164.37 66.66L164.37 66.65L164.19 66.48Q165.56 65.72 168.44 65.40L168.40 65.35L168.40 65.35Q169.93 65.25 170.74 65.52L170.84 65.62L170.88 65.66Q170.85 65.73 170.90 65.90L170.86 65.86L170.91 66.18L171.06 66.98L171.12 67.04Q171.10 67.29 171.04 67.51L170.96 67.43L171.09 67.55Q170.92 69.94 168.74 71.62L168.73 71.61L168.77 71.65Q167.52 73.01 164.64 73.29L164.61 73.25L164.48 73.13Q163.44 73.34 162.19 73.34L162.29 73.44L162.25 73.40Q162.31 73.89 162.52 74.87L162.59 74.93L162.45 74.80Q165.06 74.90 167.12 75.93L167.17 75.98L167.02 75.99L164.77 76.25L164.75 76.23Q164.86 76.77 165.02 77.64L164.85 77.46L164.93 77.55Q167.94 77.40 170.38 79.30L170.35 79.27L170.38 79.30Q170.69 79.83 171.13 82.17L171.13 82.17L171.28 82.32Q171.56 86.52 167.37 87.12L167.23 86.97L167.24 86.98Q164.24 87.35 163.42 87.30L163.50 87.37L163.52 87.40Q162.83 87.20 162.07 87.09L162.15 87.17L162.00 86.36L162.16 85.71L162.21 85.16L162.24 84.70L162.36 84.82Q161.06 84.99 159.92 85.26L159.76 85.10L159.91 85.25Q159.80 84.87 159.80 84.60L159.86 84.66L159.86 84.66Q159.90 84.37 159.90 84.04L159.83 83.98L159.76 83.90Q159.87 83.36 160.08 82.33L160.08 82.32L160.09 82.34Q157.36 82.59 154.69 83.08L154.70 83.08L154.80 83.19Q154.73 83.83 154.57 85.43L154.60 85.46L154.60 85.46Q154.49 87.12 154.49 87.99L154.36 87.86L154.54 88.04Q154.48 90.81 156.44 91.90L156.44 91.90L156.46 91.92Q158.69 95.29 165.43 95.01L165.29 94.87L165.44 95.03Q166.35 94.84 168.52 95.06Z"/><path d="M16 62 C150 68,185 83,336 97" stroke="#bb54dd" fill="none"/><path d="M15 74 C180 57,159 132,334 12" stroke="#df9075" fill="none"/><path d="M10 117 C191 50,175 61,324 116" stroke="#eb8665" fill="none"/><path d="M15 100 C163 113,160 83,337 52" stroke="#8aec69" fill="none"/><path d="M20 21 C164 43,166 55,338 93" stroke="#50d750" fill="none"/><path d="M17 51 C152 135,155 28,324 55" stroke="#79ade0" fill="none"/><path d="M13 20 C170 133,153 97,338 28" stroke="#ee85ee" fill="none"/><path fill="#77de77" d="M109.11 75.92L109.24 76.05L109.16 75.97Q106.43 75.91 104.69 77.81L104.70 77.81L104.77 77.89Q102.99 79.75 102.77 82.47L102.73 82.42L102.73 82.42Q102.52 85.54 104.26 86.98L104.23 86.95L104.32 87.04Q106.00 88.42 109.05 88.31L109.00 88.27L109.10 88.36Q112.38 88.11 113.74 86.75L113.70 86.71L113.78 86.79Q115.20 84.68 115.04 82.07L115.13 82.15L115.09 82.11Q114.86 79.39 113.31 77.67L113.33 77.69L113.39 77.75Q111.70 75.89 109.08 75.89ZM109.19 62.57L109.14 62.52L109.10 62.48Q107.19 62.41 105.28 63.12L105.25 63.08L105.30 63.14Q103.42 64.25 103.75 66.91L103.68 66.85L103.63 66.80Q104.48 72.27 109.27 72.27L109.17 72.17L109.19 72.20Q111.46 72.50 112.87 70.87L112.76 70.75L112.78 70.78Q114.32 69.27 114.37 67.04L114.19 66.86L114.25 66.92Q114.44 64.50 113.40 63.63L113.31 63.54L113.36 63.59Q111.03 62.45 109.18 62.55ZM108.75 91.88L108.73 91.85L104.40 91.88L104.39 91.86Q102.18 91.83 100.28 90.58L100.31 90.61L100.40 90.70Q98.25 88.88 98.47 84.80L98.64 84.97L98.62 84.95Q99.15 75.04 104.31 73.62L104.30 73.61L104.39 73.70Q101.18 72.45 99.28 64.78L99.25 64.75L99.24 64.75Q98.65 62.63 98.76 61.49L98.81 61.54L98.93 61.66Q99.22 58.47 104.49 58.41L104.49 58.41L104.53 58.45Q110.68 58.45 112.74 58.72L112.68 58.66L112.58 58.56Q118.09 59.33 118.74 62.22L118.73 62.21L118.76 62.24Q119.05 63.24 119.05 63.78L118.92 63.65L119.05 63.78Q118.87 64.57 118.59 65.44L118.62 65.47L118.68 65.53Q117.90 71.65 113.71 73.83L113.61 73.73L113.56 73.68Q118.67 74.93 119.37 82.49L119.30 82.41L119.34 82.45Q119.28 82.61 119.33 84.45L119.31 84.44L119.46 84.58Q119.42 88.35 117.13 89.87L117.23 89.97L117.24 89.98Q115.31 91.25 108.78 91.90ZM111.99 95.17L111.97 95.15L116.73 95.23L116.79 95.29Q119.15 95.31 121.32 94.28L121.35 94.31L121.45 94.40Q122.96 93.25 123.07 90.59L123.20 90.72L123.14 90.66Q123.13 89.02 122.59 86.24L122.71 86.37L122.60 86.26Q121.27 79.59 118.28 76.93L118.29 76.94L118.07 76.45L117.84 76.11L117.65 75.75L117.60 75.71Q119.89 73.70 121.20 67.78L121.21 67.79L121.26 67.84Q121.32 67.35 121.43 66.15L121.40 66.13L121.39 66.12Q121.46 65.10 121.35 64.23L121.41 64.29L121.31 64.19Q121.10 62.13 119.41 61.42L119.53 61.54L119.56 61.51L119.33 61.39L119.25 61.32Q118.90 60.31 117.21 59.17L117.16 59.12L117.28 59.18L117.26 59.16Q114.44 58.19 108.62 57.92L108.57 57.87L108.60 57.89Q106.38 57.74 104.42 57.90L104.47 57.96L104.38 57.86Q103.17 57.85 101.32 58.07L101.33 58.08L101.46 58.21Q98.71 58.78 98.38 61.12L98.23 60.96L98.30 61.03Q98.17 61.66 98.23 62.81L98.23 62.81L98.27 62.85Q98.55 63.73 99.37 67.10L99.18 66.91L99.23 66.97Q100.39 71.61 102.89 73.51L102.95 73.56L102.94 73.55L103.04 73.65Q98.98 75.42 98.22 82.81L98.20 82.79L98.28 82.87Q98.00 86.02 98.00 87.32L98.11 87.44L98.07 87.39Q98.07 89.84 99.76 91.15L99.80 91.19L99.82 91.21Q99.94 91.28 100.32 91.55L100.41 91.64L100.27 91.50Q101.87 94.89 112.04 95.22ZM111.46 79.31L111.55 79.39L111.51 79.35Q112.91 79.34 114.16 79.99L114.00 79.83L114.01 79.85Q114.53 81.23 114.48 81.99L114.53 82.05L114.65 82.17Q114.58 82.47 114.58 82.91L114.52 82.85L114.53 82.86Q114.68 86.39 111.42 87.58L111.34 87.50L111.41 87.57Q110.22 87.96 109.08 87.79L109.05 87.77L109.04 87.76Q107.44 87.90 105.81 87.25L105.78 87.22L105.81 87.25Q105.54 86.43 105.65 85.02L105.57 84.95L105.56 84.93Q105.78 82.65 107.49 80.91L107.44 80.86L107.51 80.93Q109.16 79.13 111.45 79.29ZM111.75 65.72L111.83 65.81L111.86 65.83Q113.06 65.73 113.82 65.94L113.76 65.88L113.76 67.03L113.65 66.92Q113.72 69.00 112.42 70.44L112.47 70.49L112.42 70.45Q111.22 71.99 109.26 71.72L109.20 71.66L109.14 71.59Q107.71 71.59 107.11 71.26L107.11 71.25L107.13 71.28Q107.11 70.93 106.95 69.95L106.95 69.95L106.97 69.98Q106.59 67.96 108.33 66.76L108.28 66.71L108.25 66.68Q109.88 65.81 111.89 65.86Z"/><path d="M2 28 C158 76,153 79,328 84" stroke="#99e948" fill="none"/><path d="M4 27 C192 63,160 113,332 43" stroke="#87eca1" fill="none"/><path d="M12 67 C184 103,180 79,327 63" stroke="#7d99ec" fill="none"/><path d="M8 27 C162 19,178 29,338 3" stroke="#408edd" fill="none"/><path d="M19 104 C185 23,150 20,335 74" stroke="#d3b24f" fill="none"/><path d="M12 84 C175 112,151 131,321 60" stroke="#88f188" fill="none"/><path d="M16 6 C185 5,169 64,337 87" stroke="#7de27d" fill="none"/><path d="M17 36 C191 91,181 94,332 29" stroke="#7cedd1" fill="none"/><path d="M5 127 C176 36,185 122,323 40" stroke="#5ce45c" fill="none"/><path d="M14 38 C192 93,165 19,337 15" stroke="#de398c" fill="none"/><path d="M18 124 C173 56,184 53,331 111" stroke="#db5151" fill="none"/><path d="M4 82 C151 82,166 6,332 13" stroke="#d48ced" fill="none"/><path fill="#ea84d0" d="M53.31 67.65L53.42 67.76L53.32 67.66Q48.80 67.70 46.18 66.18L46.15 66.15L46.15 66.15Q49.71 64.16 56.67 58.12L56.81 58.26L56.85 58.30Q57.78 57.93 59.63 57.06L59.67 57.10L59.54 56.97Q57.69 65.51 57.53 74.59L57.64 74.69L57.65 74.71Q57.42 83.72 58.94 92.43L58.84 92.32L58.86 92.34Q56.56 91.41 53.52 91.24L53.41 91.13L53.44 91.16Q53.29 85.25 53.29 79.43L53.40 79.54L53.33 79.47Q53.26 73.52 53.31 67.65ZM52.77 70.86L52.74 91.66L52.90 91.82Q54.48 91.67 55.84 91.94L55.89 91.99L55.84 91.93Q56.05 93.02 56.32 94.97L56.40 95.05L56.24 94.89Q60.29 95.63 63.77 98.83L63.90 98.96L63.82 98.88Q60.25 88.68 60.20 78.02L60.24 78.06L60.18 78.00Q60.13 67.40 62.74 57.06L62.78 57.11L62.86 57.18Q61.95 57.64 59.67 59.21L59.71 59.26L59.75 59.30Q59.97 58.16 60.40 55.98L60.36 55.94L60.40 55.97Q58.62 57.19 56.55 57.73L56.44 57.62L56.40 57.58Q51.02 62.70 44.88 65.96L44.94 66.02L45.04 66.13Q46.94 67.58 50.31 68.07L50.32 68.09L50.28 68.05Q49.45 68.90 47.60 70.43L47.48 70.30L47.59 70.41Q49.74 70.99 52.89 70.99L52.86 70.95Z"/><path d="M18 18 C182 128,186 129,332 71" stroke="#e538b9" fill="none"/><path d="M15 42 C164 98,158 62,321 97" stroke="#d443b0" fill="none"/><path d="M5 39 C183 43,192 34,323 28" stroke="#5e5eed" fill="none"/></svg>