<svg xmlns="http://www.w3.org/2000/svg" width="342" height="140" viewBox="0,0,342,140"><path d="M11 15 C169 74,187 79,326 106" stroke="#e0e079" fill="none"/><path d="M20 93 C185 71,171 29,334 15" stroke="#dc5abb" fill="none"/><path d="M11 94 C176 36,161 32,333 51" stroke="#8686ed" fill="none"/><path fill="#e37777" d="M194.83 95.60L194.87 95.64L194.87 95.64Q187.96 95.88 186.32 92.02L186.41 92.12L186.31 92.02Q187.66 90.52 190.25 87.55L190.29 87.59L190.12 87.42Q190.95 90.77 195.94 90.96L195.94 90.96L196.11 91.13Q201.62 91.13 204.33 88.92L204.35 88.94L204.45 89.04Q206.77 86.36 206.64 81.87L206.53 81.76L206.56 81.79Q206.27 73.34 198.30 73.72L198.31 73.73L198.33 73.75Q193.61 73.96 190.70 76.04L190.81 76.15L190.28 75.88L189.85 75.57L189.94 75.67Q190.55 70.46 190.36 65.91L190.22 65.77L190.23 65.78Q190.14 61.51 189.57 56.01L189.52 55.96L189.53 55.98Q195.65 57.60 201.97 57.41L201.98 57.42L201.90 57.34Q208.26 57.25 214.20 55.17L214.11 55.07L213.23 57.67L213.20 57.64Q212.70 58.91 212.38 60.30L212.49 60.41L212.44 60.36Q207.27 62.08 200.82 62.08L200.82 62.07L200.72 61.98Q198.30 61.97 195.84 61.71L195.83 61.70L195.82 61.70Q195.86 63.00 195.29 70.40L195.25 70.35L195.19 70.30Q196.55 69.51 199.97 69.26L200.06 69.35L200.11 69.40Q206.18 69.65 208.58 72.44L208.58 72.43L208.57 72.42Q210.80 74.90 211.24 81.29L211.34 81.38L211.26 81.31Q211.79 88.35 209.77 91.70L209.81 91.74L209.71 91.64Q206.36 94.81 200.86 95.19L200.82 95.15L200.97 95.29Q199.25 95.35 194.83 95.60ZM204.90 99.41L204.77 99.29L204.77 99.29Q210.44 99.39 213.61 97.56L213.76 97.72L213.72 97.67Q215.23 95.02 215.23 91.54L215.36 91.67L215.34 91.65Q215.24 86.42 213.66 79.59L213.71 79.65L213.73 79.67Q213.12 76.78 211.10 74.44L211.00 74.35L211.15 74.56L210.83 74.11L210.21 73.75L210.11 73.64Q209.63 72.47 208.56 71.33L208.62 71.40L208.59 71.43L208.68 71.52Q206.09 68.68 199.96 68.68L199.89 68.61L199.60 68.76L199.53 68.70Q199.69 67.77 200.00 65.94L199.92 65.85L199.98 65.92Q208.25 66.09 214.95 63.37L215.02 63.44L215.04 63.46Q215.68 61.06 217.26 56.39L217.24 56.38L213.71 57.90L213.69 57.88Q214.30 55.96 215.12 54.06L215.22 54.16L215.20 54.15Q208.79 56.52 201.96 56.64L201.96 56.65L202.00 56.69Q195.19 56.89 188.61 55.05L188.50 54.94L188.50 54.94Q189.66 62.30 189.66 69.63L189.77 69.74L189.81 69.78Q189.74 72.88 189.55 76.04L189.59 76.08L189.49 75.98Q190.00 76.35 190.95 76.86L190.97 76.88L190.92 76.83Q191.49 76.46 192.57 75.89L192.58 75.91L192.52 75.85Q192.43 77.08 192.05 79.61L192.12 79.68L192.11 79.67Q192.82 80.00 193.51 80.38L193.47 80.33L193.60 80.46Q198.21 77.55 201.31 77.55L201.23 77.47L201.20 77.45Q203.44 77.47 205.40 78.54L205.41 78.56L205.32 78.47Q205.92 80.20 205.98 81.78L205.95 81.75L206.04 81.84Q206.22 86.19 204.51 88.02L204.48 87.99L204.49 88.00Q202.18 89.99 198.45 90.37L198.39 90.31L198.41 90.33Q196.93 90.56 195.79 90.43L195.81 90.45L195.70 90.34Q194.25 90.09 192.98 89.52L193.01 89.54L193.01 89.23L192.89 89.49L192.71 89.31Q191.53 88.64 190.64 86.42L190.55 86.33L190.56 86.34Q188.45 88.78 185.67 92.32L185.56 92.21L185.61 92.27Q186.13 93.35 187.52 94.93L187.55 94.96L187.40 94.81Q189.30 97.98 193.98 98.80L193.86 98.68L194.01 98.83Q195.99 99.23 204.91 99.42Z"/><path d="M12 39 C164 65,182 124,334 137" stroke="#f0d583" fill="none"/><path d="M13 128 C160 99,186 109,323 111" stroke="#8c47d1" fill="none"/><path d="M5 101 C159 34,186 7,339 79" stroke="#dfdf52" fill="none"/><path d="M2 60 C157 50,177 4,336 8" stroke="#718fe8" fill="none"/><path d="M6 110 C170 41,178 129,330 108" stroke="#4be6e6" fill="none"/><path d="M15 128 C179 34,155 56,328 97" stroke="#c8e17e" fill="none"/><path d="M4 71 C188 40,189 129,331 61" stroke="#ef70af" fill="none"/><path d="M4 93 C168 22,169 87,339 46" stroke="#51ea51" fill="none"/><path d="M16 100 C158 101,165 85,327 81" stroke="#43dfb8" fill="none"/><path d="M19 13 C179 39,172 97,336 41" stroke="#bbe344" fill="none"/><path d="M8 106 C177 137,172 138,332 116" stroke="#5050eb" fill="none"/><path d="M6 70 C179 33,159 138,339 22" stroke="#d646d6" fill="none"/><path d="M1 115 C163 66,157 60,331 91" stroke="#5bdb9b" fill="none"/><path d="M3 111 C179 60,192 82,330 21" stroke="#e0c87f" fill="none"/><path d="M6 55 C156 82,179 123,323 75" stroke="#486dd9" fill="none"/><path fill="#cd6ded" d="M64.21 67.38L64.24 67.41L64.10 67.27Q58.83 67.31 55.79 65.54L55.78 65.52L55.73 65.48Q60.06 63.36 68.15 56.34L68.19 56.37L68.18 56.36Q69.27 55.94 71.42 54.93L71.36 54.86L71.37 54.88Q69.24 64.82 69.05 75.38L68.98 75.31L69.00 75.33Q68.90 85.98 70.67 96.09L70.56 95.99L70.59 96.01Q67.75 94.75 64.21 94.56L64.25 94.61L64.40 94.75Q64.05 87.71 64.05 80.94L64.16 81.05L64.15 81.04Q64.18 74.24 64.25 67.42ZM63.59 71.12L63.51 95.26L63.56 95.31Q65.60 95.32 67.18 95.63L67.07 95.52L67.05 95.51Q67.25 96.72 67.56 98.99L67.64 99.07L67.55 98.98Q72.33 99.90 76.37 103.63L76.31 103.57L76.32 103.58Q72.33 91.87 72.27 79.48L72.22 79.44L72.16 79.37Q72.08 67.03 75.12 55.02L75.16 55.06L75.20 55.11Q74.29 55.78 71.64 57.61L71.57 57.54L71.62 57.59Q71.90 56.29 72.40 53.76L72.40 53.75L72.38 53.74Q70.13 54.96 67.72 55.59L67.84 55.71L67.69 55.56Q61.44 61.51 54.30 65.31L54.37 65.38L54.42 65.43Q56.75 67.26 60.67 67.83L60.65 67.80L60.70 67.85Q59.65 68.76 57.50 70.53L57.36 70.40L57.42 70.45Q59.89 71.09 63.55 71.09L63.59 71.12Z"/><path d="M6 66 C159 61,182 5,324 31" stroke="#c7e278" fill="none"/><path d="M3 136 C178 22,173 57,338 44" stroke="#e57a7a" fill="none"/><path d="M12 91 C184 35,172 62,327 124" stroke="#b2e87c" fill="none"/><path d="M18 50 C180 103,182 119,327 79" stroke="#63ecec" fill="none"/><path d="M8 53 C172 13,180 43,338 132" stroke="#68e8c8" fill="none"/><path d="M7 102 C182 105,152 54,327 34" stroke="#5a7eeb" fill="none"/><path d="M13 22 C160 50,187 6,336 66" stroke="#deb63f" fill="none"/><path d="M6 84 C164 76,163 60,339 118" stroke="#5b7ce0" fill="none"/><path d="M20 132 C185 130,163 50,330 100" stroke="#7694ee" fill="none"/><path d="M11 19 C166 79,177 100,333 124" stroke="#6d8ae3" fill="none"/><path fill="#ecaf73" d="M267.25 77.04L267.17 76.96L267.25 77.04Q264.08 76.97 262.06 79.18L262.01 79.13L262.06 79.19Q260.01 81.37 259.75 84.53L259.74 84.52L259.72 84.50Q259.49 88.12 261.51 89.80L261.57 89.85L261.56 89.85Q263.54 91.47 267.08 91.35L267.14 91.40L266.99 91.26Q270.84 91.00 272.42 89.42L272.56 89.56L272.40 89.40Q274.28 87.16 274.09 84.13L273.95 83.99L274.05 84.10Q273.72 80.85 271.92 78.86L272.07 79.02L271.94 78.89Q270.28 77.04 267.25 77.04ZM267.07 61.24L267.03 61.20L267.07 61.24Q264.74 61.07 262.53 61.89L262.54 61.90L262.47 61.83Q260.33 63.17 260.71 66.27L260.69 66.25L260.81 66.36Q261.61 72.54 267.17 72.54L267.15 72.51L267.07 72.44Q269.76 72.85 271.41 70.95L271.46 71.00L271.31 70.86Q272.99 69.00 273.06 66.41L273.20 66.56L273.12 66.48Q273.18 63.50 271.98 62.49L271.96 62.47L272.03 62.54Q269.21 61.11 267.06 61.24ZM266.58 95.34L266.64 95.39L261.64 95.46L261.50 95.32Q259.10 95.44 256.88 93.99L256.82 93.92L256.86 93.97Q254.49 91.97 254.74 87.23L254.81 87.30L254.77 87.25Q255.63 75.98 261.64 74.34L261.54 74.24L261.52 74.22Q257.79 72.76 255.58 63.85L255.67 63.95L255.63 63.90Q255.01 61.52 255.14 60.19L255.21 60.26L255.17 60.22Q255.56 56.56 261.69 56.50L261.71 56.52L261.80 56.61Q268.75 56.41 271.15 56.73L271.13 56.70L271.16 56.74Q277.53 57.61 278.29 60.96L278.40 61.07L278.40 61.07Q278.59 62.08 278.59 62.71L278.53 62.65L278.62 62.75Q278.52 63.78 278.20 64.79L278.21 64.80L278.22 64.81Q277.24 71.86 272.37 74.39L272.37 74.39L272.25 74.26Q278.10 75.62 278.92 84.41L278.92 84.42L278.95 84.44Q279.07 84.81 279.13 86.96L279.02 86.85L279.09 86.93Q279.14 91.40 276.48 93.17L276.62 93.30L276.62 93.30Q274.18 94.60 266.60 95.36ZM270.50 99.32L270.53 99.35L276.05 99.44L276.01 99.39Q278.78 99.44 281.30 98.24L281.31 98.24L281.45 98.39Q283.25 97.09 283.38 93.99L283.44 94.06L283.36 93.97Q283.51 92.23 282.88 89.00L282.92 89.05L282.79 88.92Q281.30 81.23 277.83 78.13L277.86 78.16L277.60 77.59L277.31 77.18L276.90 76.57L277.04 76.72Q279.75 74.43 281.27 67.54L281.12 67.39L281.18 67.45Q281.18 66.82 281.31 65.43L281.28 65.40L281.37 65.49Q281.36 64.22 281.24 63.21L281.25 63.22L281.25 63.23Q280.99 60.81 279.03 59.99L279.10 60.06L279.21 60.10L278.95 59.98L278.92 59.94Q278.39 58.65 276.43 57.33L276.48 57.38L276.55 57.39L276.58 57.42Q273.21 56.19 266.44 55.88L266.55 55.98L266.43 55.87Q263.94 55.78 261.67 55.97L261.68 55.99L261.55 55.85Q260.29 55.98 258.14 56.23L258.11 56.20L258.10 56.20Q254.85 56.81 254.47 59.52L254.57 59.62L254.58 59.63Q254.46 60.40 254.53 61.73L254.50 61.70L254.44 61.64Q254.78 62.68 255.73 66.60L255.70 66.57L255.69 66.55Q256.93 71.84 259.84 74.06L259.87 74.08L260.07 74.28L259.94 74.15Q255.38 76.36 254.50 84.96L254.60 85.07L254.51 84.98Q254.29 88.74 254.29 90.26L254.28 90.24L254.18 90.14Q254.28 93.09 256.24 94.60L256.23 94.60L256.24 94.60Q256.46 94.76 256.90 95.08L256.83 95.01L256.93 95.11Q258.61 98.87 270.43 99.25ZM269.80 80.79L269.79 80.79L269.85 80.84Q271.46 80.81 272.91 81.56L272.94 81.59L272.76 81.42Q273.53 83.19 273.46 84.08L273.40 84.01L273.44 84.05Q273.40 84.46 273.40 84.97L273.45 85.01L273.55 85.11Q273.51 88.99 269.71 90.38L269.72 90.39L269.79 90.46Q268.44 90.93 267.11 90.74L267.03 90.67L267.11 90.75Q265.17 90.83 263.27 90.07L263.37 90.17L263.31 90.11Q262.86 89.02 262.98 87.38L263.00 87.39L262.92 87.32Q263.15 84.64 265.14 82.62L265.21 82.68L265.23 82.71Q267.31 80.76 269.96 80.95ZM270.18 65.05L270.26 65.13L270.23 65.10Q271.57 64.92 272.45 65.18L272.44 65.16L272.46 66.51L272.42 66.47Q272.52 68.91 271.01 70.59L270.94 70.52L270.91 70.49Q269.45 72.22 267.17 71.90L267.15 71.89L267.09 71.82Q265.56 71.93 264.86 71.55L264.92 71.61L264.83 71.52Q264.69 71.00 264.50 69.87L264.58 69.95L264.49 69.85Q264.21 67.68 266.23 66.29L266.08 66.13L266.15 66.20Q268.02 65.16 270.36 65.23Z"/><path d="M20 12 C178 77,166 83,330 87" stroke="#96e448" fill="none"/><path d="M14 84 C187 50,191 11,338 35" stroke="#90e773" fill="none"/><path d="M20 82 C187 33,171 127,322 27" stroke="#82ecb7" fill="none"/><path d="M10 51 C175 94,159 28,336 33" stroke="#9c82ed" fill="none"/><path d="M5 18 C166 109,180 11,332 110" stroke="#43e443" fill="none"/><path d="M2 37 C163 101,153 46,335 113" stroke="#6baae9" fill="none"/><path d="M10 36 C184 127,151 117,329 38" stroke="#67a5e4" fill="none"/><path d="M12 35 C158 86,189 14,338 25" stroke="#dd6464" fill="none"/><path d="M7 15 C175 55,169 79,326 131" stroke="#67ee67" fill="none"/><path d="M14 39 C191 31,164 73,326 97" stroke="#80e480" fill="none"/><path fill="#6161e5" d="M131.24 77.03L131.23 77.02L131.09 76.89Q128.04 76.93 126.02 79.14L125.94 79.07L125.99 79.12Q124.09 81.45 123.84 84.61L123.84 84.62L123.78 84.56Q123.35 87.99 125.38 89.66L125.45 89.73L125.46 89.75Q127.53 91.46 131.07 91.34L131.00 91.27L131.10 91.37Q134.98 91.14 136.56 89.56L136.46 89.45L136.46 89.46Q138.18 87.07 137.99 84.03L137.94 83.98L137.98 84.02Q137.87 81.01 136.07 79.02L136.03 78.97L136.09 79.03Q134.17 76.93 131.14 76.93ZM131.01 61.18L131.00 61.18L131.13 61.31Q128.67 60.99 126.46 61.82L126.50 61.86L126.63 61.99Q124.49 63.32 124.87 66.42L124.74 66.30L124.74 66.30Q125.64 72.57 131.20 72.57L131.09 72.45L131.11 72.48Q133.73 72.82 135.37 70.92L135.49 71.04L135.38 70.93Q137.13 69.14 137.20 66.55L137.04 66.39L137.10 66.45Q137.23 63.55 136.03 62.54L136.08 62.58L135.95 62.46Q133.30 61.20 131.15 61.33ZM130.58 95.34L130.67 95.43L125.63 95.44L125.64 95.45Q123.11 95.45 120.89 94.00L120.86 93.96L120.87 93.98Q118.62 92.11 118.88 87.36L118.93 87.42L118.83 87.32Q119.67 76.02 125.68 74.38L125.61 74.31L125.64 74.34Q121.85 72.82 119.64 63.91L119.68 63.95L119.60 63.88Q119.12 61.62 119.25 60.30L119.24 60.28L119.19 60.24Q119.57 56.57 125.70 56.51L125.80 56.60L125.75 56.56Q132.90 56.57 135.31 56.88L135.20 56.77L135.15 56.73Q141.60 57.68 142.36 61.03L142.34 61.01L142.40 61.06Q142.58 62.07 142.58 62.70L142.46 62.58L142.52 62.64Q142.52 63.78 142.21 64.79L142.33 64.92L142.27 64.86Q141.25 71.87 136.38 74.40L136.40 74.41L136.29 74.30Q142.23 75.76 143.05 84.54L143.08 84.57L143.01 84.51Q143.08 84.83 143.15 86.98L143.11 86.95L142.96 86.79Q143.13 91.39 140.48 93.16L140.55 93.23L140.50 93.18Q138.23 94.64 130.64 95.40ZM134.47 99.29L134.37 99.19L139.92 99.31L140.10 99.48Q142.87 99.54 145.40 98.33L145.48 98.42L145.37 98.31Q147.36 97.20 147.49 94.10L147.31 93.93L147.35 93.96Q147.47 92.18 146.83 88.96L146.75 88.87L146.91 89.03Q145.25 81.18 141.77 78.08L141.77 78.08L141.57 77.56L141.21 77.08L141.03 76.70L140.94 76.61Q143.60 74.28 145.12 67.39L145.12 67.39L145.28 67.55Q145.10 66.74 145.23 65.35L145.40 65.52L145.31 65.44Q145.51 64.36 145.38 63.35L145.39 63.36L145.35 63.32Q145.05 60.88 143.09 60.05L143.03 59.99L143.13 60.03L142.91 59.94L142.93 59.95Q142.49 58.75 140.53 57.42L140.47 57.37L140.45 57.28L140.48 57.31Q137.16 56.14 130.39 55.83L130.51 55.95L130.53 55.96Q127.84 55.68 125.56 55.86L125.70 56.00L125.56 55.86Q124.35 56.04 122.20 56.30L122.04 56.13L122.17 56.27Q118.85 56.80 118.47 59.52L118.56 59.61L118.50 59.55Q118.55 60.48 118.61 61.81L118.61 61.81L118.53 61.72Q118.61 62.51 119.56 66.43L119.57 66.43L119.64 66.51Q121.05 71.96 123.96 74.17L123.80 74.02L124.06 74.28L124.09 74.30Q119.32 76.30 118.43 84.89L118.58 85.05L118.51 84.98Q118.17 88.61 118.17 90.13L118.13 90.10L118.16 90.12Q118.35 93.16 120.31 94.68L120.30 94.66L120.26 94.63Q120.51 94.81 120.95 95.13L120.91 95.09L120.91 95.08Q122.55 98.81 134.37 99.19ZM133.97 80.97L133.81 80.80L133.82 80.81Q135.36 80.71 136.82 81.47L136.77 81.42L136.82 81.47Q137.58 83.25 137.52 84.13L137.44 84.06L137.37 83.98Q137.46 84.52 137.46 85.02L137.57 85.13L137.41 84.97Q137.50 88.98 133.71 90.37L133.61 90.27L133.68 90.35Q132.35 90.85 131.02 90.66L131.08 90.72L131.05 90.69Q129.26 90.92 127.37 90.16L127.26 90.06L127.36 90.16Q126.86 89.03 126.99 87.38L126.93 87.32L127.08 87.47Q127.30 84.79 129.29 82.76L129.26 82.73L129.24 82.71Q131.30 80.76 133.95 80.95ZM134.29 65.16L134.24 65.11L134.25 65.12Q135.68 65.03 136.56 65.28L136.39 65.11L136.43 66.48L136.52 66.57Q136.52 68.91 135.00 70.58L134.87 70.45L134.88 70.46Q133.45 72.22 131.17 71.91L131.09 71.82L131.22 71.95Q129.56 71.93 128.86 71.55L128.86 71.55L128.83 71.53Q128.73 71.04 128.54 69.91L128.54 69.91L128.63 70.00Q128.15 67.62 130.17 66.23L130.20 66.25L130.16 66.22Q131.92 65.07 134.26 65.13Z"/><path d="M16 124 C154 92,169 72,321 34" stroke="#805de8" fill="none"/><path d="M17 118 C169 26,188 105,340 17" stroke="#bce14b" fill="none"/></svg>