<svg xmlns="http://www.w3.org/2000/svg" width="342" height="140" viewBox="0,0,342,140"><path d="M5 138 C190 38,154 66,326 121" stroke="#8aefa3" fill="none"/><path fill="#dc3bdc" d="M274.96 93.41L274.99 93.44L274.89 93.34Q268.71 93.68 267.20 90.16L267.27 90.22L267.20 90.16Q268.30 88.65 270.67 85.94L270.81 86.08L270.78 86.05Q271.45 89.03 276.02 89.21L276.07 89.25L276.09 89.28Q281.20 89.36 283.69 87.34L283.75 87.41L283.74 87.39Q285.91 85.00 285.80 80.90L285.63 80.74L285.76 80.86Q285.45 73.10 278.17 73.45L278.23 73.51L278.22 73.50Q273.87 73.65 271.21 75.56L271.33 75.68L270.68 75.26L270.36 75.05L270.39 75.09Q271.03 70.40 270.85 66.24L270.84 66.23L270.74 66.13Q270.70 62.28 270.18 57.25L270.15 57.22L270.12 57.20Q275.73 58.70 281.51 58.53L281.37 58.39L281.41 58.42Q287.20 58.33 292.64 56.42L292.54 56.33L291.83 58.79L291.76 58.72Q291.31 59.89 291.02 61.16L291.07 61.21L290.95 61.09Q286.29 62.72 280.39 62.72L280.46 62.80L280.45 62.78Q278.17 62.70 275.92 62.47L276.03 62.58L275.90 62.45Q275.87 63.58 275.35 70.34L275.32 70.30L275.26 70.25Q276.62 69.64 279.74 69.41L279.77 69.44L279.67 69.34Q285.27 69.62 287.46 72.17L287.54 72.24L287.61 72.31Q289.64 74.58 290.05 80.41L290.02 80.38L290.09 80.45Q290.51 86.83 288.66 89.89L288.56 89.78L288.62 89.85Q285.54 92.72 280.51 93.06L280.59 93.14L280.44 92.99Q278.96 93.14 274.92 93.37ZM283.99 96.72L284.07 96.79L283.99 96.72Q289.24 96.88 292.13 95.21L292.12 95.19L292.23 95.30Q293.65 92.91 293.65 89.73L293.64 89.72L293.67 89.75Q293.68 85.09 292.24 78.85L292.30 78.91L292.17 78.78Q291.66 76.19 289.81 74.05L289.89 74.13L289.78 74.08L289.58 73.76L288.92 73.33L289.02 73.43Q288.55 72.33 287.57 71.29L287.53 71.25L287.63 71.41L287.45 71.23Q285.17 68.72 279.56 68.72L279.54 68.69L279.24 68.80L279.33 68.88Q279.33 67.90 279.62 66.22L279.57 66.18L279.58 66.18Q287.27 66.48 293.39 63.99L293.40 64.01L293.23 63.83Q293.94 61.77 295.38 57.49L295.44 57.55L292.23 58.96L292.27 59.00Q292.77 57.19 293.52 55.45L293.64 55.57L293.57 55.50Q287.80 57.77 281.56 57.89L281.45 57.78L281.44 57.76Q275.19 57.93 269.18 56.25L269.15 56.22L269.18 56.25Q270.32 63.05 270.32 69.76L270.19 69.63L270.22 69.66Q270.32 72.64 270.14 75.53L270.15 75.54L270.05 75.44Q270.54 75.81 271.40 76.27L271.33 76.20L271.30 76.17Q271.83 75.83 272.81 75.31L272.97 75.47L272.89 75.39Q272.77 76.48 272.43 78.80L272.37 78.74L272.54 78.91Q273.04 79.06 273.67 79.41L273.77 79.51L273.70 79.43Q277.94 76.80 280.77 76.80L280.74 76.77L280.76 76.79Q282.89 76.89 284.68 77.87L284.68 77.88L284.56 77.75Q285.22 79.46 285.28 80.90L285.13 80.75L285.22 80.84Q285.30 84.74 283.74 86.41L283.82 86.49L283.66 86.33Q281.74 88.34 278.33 88.69L278.17 88.52L278.29 88.65Q276.75 88.67 275.71 88.55L275.79 88.63L275.75 88.59Q274.45 88.39 273.30 87.87L273.33 87.91L273.36 87.65L273.09 87.72L273.05 87.68Q271.96 87.05 271.15 85.03L271.03 84.92L271.17 85.05Q268.98 87.03 266.44 90.26L266.46 90.28L266.49 90.31Q266.99 91.33 268.26 92.78L268.24 92.76L268.17 92.69Q269.86 95.53 274.14 96.28L274.11 96.26L274.20 96.34Q275.85 96.55 284.00 96.73Z"/><path d="M3 28 C167 106,158 58,339 106" stroke="#7aafe5" fill="none"/><path d="M10 10 C161 122,160 79,329 83" stroke="#8ee471" fill="none"/><path fill="#5e31e6" d="M218.24 93.35L218.27 93.39L218.15 93.27Q211.98 93.63 210.48 90.10L210.57 90.19L210.48 90.10Q211.70 88.72 214.07 86.00L214.01 85.94L214.07 86.00Q214.73 88.97 219.29 89.15L219.47 89.33L219.47 89.33Q224.47 89.30 226.95 87.28L227.03 87.35L227.03 87.35Q229.07 84.83 228.95 80.72L229.05 80.82L229.02 80.79Q228.79 73.10 221.51 73.45L221.48 73.42L221.57 73.51Q217.26 73.71 214.60 75.61L214.61 75.62L213.98 75.23L213.76 75.13L213.69 75.05Q214.29 70.34 214.12 66.17L214.04 66.10L214.21 66.27Q213.99 62.24 213.47 57.21L213.49 57.23L213.38 57.12Q218.94 58.58 224.72 58.41L224.72 58.41L224.82 58.51Q230.56 58.35 236.00 56.45L235.93 56.38L235.09 58.72L235.14 58.77Q234.63 59.88 234.34 61.15L234.28 61.09L234.26 61.07Q229.65 62.75 223.75 62.75L223.63 62.63L223.63 62.63Q221.60 62.80 219.35 62.57L219.28 62.50L219.20 62.41Q219.11 63.49 218.59 70.25L218.69 70.34L218.54 70.20Q219.91 69.60 223.03 69.37L223.10 69.44L222.96 69.30Q228.66 69.69 230.86 72.23L230.79 72.16L230.80 72.16Q233.01 74.60 233.41 80.44L233.32 80.35L233.28 80.31Q233.87 86.86 232.02 89.92L231.99 89.89L231.97 89.86Q228.82 92.67 223.80 93.02L223.75 92.97L223.77 92.99Q222.36 93.20 218.32 93.43ZM227.38 96.77L227.40 96.80L227.47 96.86Q232.59 96.90 235.48 95.23L235.55 95.30L235.54 95.28Q237.11 93.04 237.11 89.86L237.10 89.85L236.96 89.71Q236.96 85.03 235.51 78.79L235.48 78.76L235.57 78.85Q235.07 76.26 233.22 74.12L233.06 73.96L233.23 74.20L232.92 73.77L232.31 73.39L232.38 73.46Q231.93 72.37 230.95 71.33L230.88 71.27L230.81 71.25L230.91 71.35Q228.67 68.89 223.07 68.89L222.89 68.70L222.51 68.73L222.61 68.83Q222.67 67.91 222.96 66.24L222.96 66.24L223.02 66.30Q230.53 66.41 236.66 63.92L236.64 63.91L236.65 63.92Q237.35 61.84 238.79 57.57L238.84 57.62L235.64 59.03L235.48 58.87Q236.05 57.14 236.81 55.41L236.96 55.56L236.83 55.43Q231.03 57.66 224.79 57.78L224.73 57.72L224.88 57.87Q218.48 57.88 212.47 56.21L212.53 56.27L212.66 56.39Q213.52 62.92 213.52 69.62L213.61 69.71L213.56 69.66Q213.59 72.58 213.42 75.47L213.49 75.55L213.34 75.39Q213.81 75.75 214.68 76.22L214.71 76.25L214.70 76.24Q215.18 75.85 216.16 75.33L216.13 75.30L216.27 75.44Q216.13 76.51 215.78 78.82L215.78 78.82L215.87 78.90Q216.43 79.12 217.06 79.47L217.13 79.53L217.02 79.42Q221.38 76.90 224.21 76.90L224.16 76.85L224.19 76.89Q226.06 76.73 227.85 77.71L228.01 77.87L228.02 77.88Q228.48 79.38 228.54 80.83L228.43 80.72L228.43 80.72Q228.59 84.69 227.03 86.37L227.07 86.41L227.00 86.34Q224.93 88.20 221.52 88.54L221.64 88.66L221.57 88.60Q220.06 88.65 219.02 88.53L219.14 88.65L219.15 88.65Q217.92 88.53 216.76 88.01L216.68 87.92L216.53 87.49L216.52 87.82L216.45 87.75Q215.24 87.00 214.43 84.98L214.32 84.87L214.33 84.88Q212.32 87.03 209.78 90.27L209.76 90.25L209.89 90.38Q210.38 91.39 211.65 92.83L211.57 92.75L211.49 92.67Q213.27 95.60 217.54 96.36L217.43 96.24L217.56 96.37Q219.36 96.73 227.51 96.90Z"/><path d="M16 89 C155 78,159 133,337 82" stroke="#913be6" fill="none"/><path d="M21 46 C173 49,156 41,324 3" stroke="#d2ed81" fill="none"/><path d="M19 83 C186 41,179 60,329 115" stroke="#52e9c3" fill="none"/><path d="M17 52 C184 132,153 82,338 47" stroke="#e95252" fill="none"/><path d="M15 26 C183 14,164 90,329 58" stroke="#cde584" fill="none"/><path d="M11 48 C188 124,185 107,332 99" stroke="#87e2e2" fill="none"/><path d="M1 70 C187 66,184 76,335 115" stroke="#e38c8c" fill="none"/><path fill="#df8e3e" d="M53.08 67.48L53.14 67.54L53.16 67.56Q48.23 67.49 45.46 65.87L45.46 65.87L45.52 65.94Q49.35 63.86 56.74 57.45L56.73 57.44L56.75 57.45Q57.93 57.25 59.89 56.33L59.84 56.27L59.91 56.35Q57.70 65.17 57.52 74.82L57.56 74.85L57.62 74.91Q57.51 84.63 59.13 93.87L59.04 93.78L59.11 93.86Q56.50 92.69 53.27 92.52L53.24 92.49L53.27 92.52Q53.14 86.26 53.14 80.08L53.02 79.96L53.13 80.07Q53.09 73.79 53.14 67.55ZM52.64 71.03L52.54 93.07L52.60 93.12Q54.52 93.19 55.96 93.48L55.91 93.43L55.93 93.45Q56.06 94.50 56.34 96.58L56.32 96.56L56.29 96.52Q60.67 97.38 64.37 100.79L64.36 100.78L64.36 100.78Q60.52 89.89 60.46 78.56L60.47 78.57L60.42 78.52Q60.42 67.31 63.19 56.33L63.12 56.26L63.22 56.36Q62.36 56.94 59.93 58.62L59.97 58.66L59.83 58.52Q60.17 57.42 60.64 55.10L60.61 55.07L60.59 55.05Q58.68 56.32 56.48 56.90L56.52 56.94L56.44 56.86Q50.78 62.35 44.25 65.82L44.16 65.73L44.13 65.70Q46.33 67.44 49.91 67.96L49.92 67.96L50.03 68.07Q48.87 68.71 46.91 70.33L46.96 70.38L46.98 70.40Q49.28 71.02 52.63 71.02L52.59 70.98Z"/><path d="M16 40 C164 133,180 17,326 49" stroke="#6ee26e" fill="none"/><path d="M19 13 C152 18,188 10,332 56" stroke="#84e5cd" fill="none"/><path d="M6 61 C172 58,168 87,340 67" stroke="#b280e4" fill="none"/><path d="M14 73 C155 10,186 127,340 11" stroke="#6ae589" fill="none"/><path d="M16 82 C184 105,163 122,340 50" stroke="#77edcf" fill="none"/><path d="M14 105 C166 1,186 101,333 3" stroke="#58bcde" fill="none"/><path d="M8 129 C161 21,164 18,340 56" stroke="#6bdfdf" fill="none"/><path d="M2 45 C157 7,155 119,331 100" stroke="#e14b70" fill="none"/><path d="M13 51 C156 85,163 65,324 54" stroke="#b279eb" fill="none"/><path fill="#cee782" d="M161.61 88.10L161.67 88.17L161.57 88.07Q163.25 89.39 165.38 89.16L165.55 89.33L165.55 89.33Q169.87 89.49 170.85 84.40L170.84 84.39L170.82 84.37Q171.75 79.58 171.75 74.43L171.79 74.48L171.88 70.63L171.90 70.65Q171.83 68.68 171.31 66.77L171.27 66.73L171.22 66.69Q169.39 70.23 166.39 77.45L166.47 77.54L166.46 77.52Q163.52 84.82 161.67 88.17ZM169.27 63.11L169.20 63.05L169.29 63.14Q167.54 61.91 165.52 61.91L165.56 61.95L165.39 61.78Q163.12 61.53 161.44 62.92L161.60 63.08L161.54 63.01Q159.79 64.32 159.50 66.58L159.56 66.64L159.65 66.73Q159.05 68.73 158.99 70.98L158.99 70.98L159.09 71.08Q159.00 70.99 159.00 75.32L158.95 75.27L158.93 75.26Q158.98 78.88 159.67 84.37L159.71 84.41L159.64 84.34Q162.66 77.25 169.31 63.15ZM171.61 91.63L171.69 91.71L171.52 91.54Q168.99 93.05 165.46 93.05L165.32 92.91L163.02 93.10L162.90 92.98Q158.10 93.08 156.36 90.48L156.32 90.44L156.26 90.38Q155.05 87.09 154.93 82.64L154.95 82.65L154.85 82.56Q154.96 80.06 154.84 74.80L154.79 74.76L154.70 74.66Q154.80 72.98 154.57 68.36L154.51 68.29L154.47 68.25Q154.39 64.82 154.85 61.82L154.88 61.84L154.87 61.83Q155.49 57.25 162.08 56.91L162.08 56.91L162.13 56.96Q163.29 56.90 165.31 56.96L165.44 57.09L165.44 57.09Q173.93 57.20 175.55 62.46L175.62 62.53L175.52 62.43Q176.51 65.39 176.45 68.22L176.47 68.23L176.50 68.27Q176.28 75.74 176.17 77.58L176.18 77.60L176.13 77.55Q175.97 83.45 175.50 85.41L175.50 85.41L175.51 85.42Q174.44 90.08 171.56 91.58ZM179.07 91.23L179.11 91.27L179.15 91.31Q179.39 86.99 179.33 84.28L179.37 84.31L179.19 77.25L179.28 77.34Q179.15 72.77 178.35 64.39L178.36 64.40L178.44 64.49Q177.59 61.67 175.62 60.51L175.56 60.45L175.56 60.45Q173.29 56.68 165.43 56.45L165.39 56.40L165.41 56.42Q164.06 56.35 162.04 56.41L162.00 56.37L162.07 56.43Q155.19 56.55 154.44 61.29L154.28 61.13L154.39 61.23Q153.74 64.69 153.92 67.87L154.00 67.95L153.98 67.93Q154.55 74.63 154.49 79.72L154.48 79.70L154.46 79.68Q154.28 85.17 154.46 86.73L154.57 86.85L154.55 86.82Q155.16 91.53 157.47 92.74L157.38 92.66L157.41 92.68Q159.68 96.06 165.75 96.46L165.74 96.46L165.79 96.50Q171.12 96.74 172.10 96.68L172.12 96.71L172.15 96.73Q176.47 96.49 178.20 94.07L178.22 94.08L178.26 94.12Q179.03 93.10 179.14 91.30ZM165.98 88.60L166.02 88.64L166.10 88.73Q167.07 86.45 168.68 82.35L168.64 82.31L171.26 75.91L171.29 75.94Q171.32 78.51 170.74 83.60L170.72 83.58L170.72 83.58Q169.59 87.82 165.95 88.57ZM163.13 70.09L163.13 70.10L163.09 70.05Q163.80 67.35 164.84 66.48L164.68 66.32L164.84 66.48Q165.53 65.85 167.49 65.56L167.44 65.50L167.48 65.54Q164.74 70.95 161.91 78.00L162.00 78.09L162.02 78.11Q162.00 73.99 163.04 70.00Z"/><path d="M13 131 C157 7,189 85,336 19" stroke="#88eb88" fill="none"/><path d="M12 105 C187 129,155 49,338 97" stroke="#718ee4" fill="none"/><path d="M11 32 C168 2,159 78,334 122" stroke="#8462e8" fill="none"/><path d="M20 53 C178 1,169 82,338 106" stroke="#77e8af" fill="none"/><path d="M17 80 C168 93,176 104,323 21" stroke="#a48fe4" fill="none"/><path d="M18 18 C170 93,165 100,322 119" stroke="#b655d7" fill="none"/><path d="M10 122 C185 78,175 134,330 4" stroke="#5858e9" fill="none"/><path d="M6 104 C152 100,176 74,329 9" stroke="#e0569b" fill="none"/><path d="M17 6 C182 25,156 3,322 7" stroke="#97bfe7" fill="none"/><path d="M13 14 C167 61,159 117,334 13" stroke="#8787e2" fill="none"/><path d="M4 20 C177 117,153 62,338 129" stroke="#6cdec2" fill="none"/><path d="M17 79 C172 123,156 9,321 98" stroke="#b5ec7d" fill="none"/><path d="M3 64 C152 102,172 16,335 134" stroke="#efef7f" fill="none"/><path d="M21 61 C171 115,155 102,337 35" stroke="#d99148" fill="none"/><path d="M11 29 C178 100,182 37,328 74" stroke="#d65172" fill="none"/><path d="M12 15 C190 30,156 136,327 7" stroke="#4de4be" fill="none"/><path d="M19 21 C164 77,169 132,330 22" stroke="#99e74a" fill="none"/><path d="M6 13 C165 52,167 105,334 66" stroke="#aa69ec" fill="none"/><path fill="#67c1de" d="M108.98 61.83L108.94 61.79L106.60 62.00L106.67 62.07Q103.22 62.19 102.87 65.26L102.91 65.30L102.80 65.19Q102.75 66.35 102.81 67.85L102.75 67.80L102.84 67.88Q102.91 70.85 104.82 72.87L104.79 72.84L104.75 72.80Q106.75 74.92 109.64 74.69L109.52 74.57L109.60 74.65Q112.75 74.44 113.91 73.06L113.84 72.99L113.78 72.93Q115.44 71.58 115.84 68.17L115.90 68.23L115.78 68.11Q116.19 64.71 114.29 63.44L114.30 63.45L114.39 63.54Q113.12 62.39 109.08 61.93ZM118.28 75.99L118.22 75.92L116.25 79.39L116.15 79.29Q112.19 86.71 106.47 92.90L106.46 92.89L106.39 92.81Q103.94 93.08 99.83 94.29L99.83 94.28L99.90 94.36Q107.87 84.70 112.67 77.42L112.68 77.44L112.71 77.46Q111.08 78.38 108.60 78.49L108.66 78.56L108.61 78.51Q104.11 78.80 101.80 75.80L101.72 75.72L101.74 75.74Q99.99 73.41 98.31 66.48L98.29 66.46L98.25 66.41Q98.32 65.79 98.09 64.37L98.05 64.33L97.94 64.22Q97.85 62.96 97.85 62.26L97.87 62.28L97.86 62.27Q97.87 59.56 99.49 58.64L99.31 58.46L99.45 58.60Q101.27 57.42 104.11 57.42L104.06 57.37L104.04 57.36Q108.97 57.43 108.97 57.43L108.99 57.45L109.03 57.49Q112.28 57.50 114.18 57.79L114.17 57.78L114.08 57.69Q117.29 58.07 118.68 58.82L118.86 59.00L118.69 58.83Q120.75 59.97 121.04 62.62L121.12 62.70L121.08 62.66Q121.11 63.04 120.82 67.09L120.78 67.05L120.83 67.10Q120.30 70.38 119.95 71.65L120.01 71.71L119.82 71.52Q119.43 73.85 118.28 75.98ZM120.99 79.45L121.07 79.53L121.12 79.58Q122.52 76.13 123.33 69.60L123.48 69.74L123.41 69.67Q123.87 66.38 123.81 65.05L123.76 65.00L123.69 64.93Q123.65 62.12 121.86 60.73L121.87 60.74L121.39 60.54L121.42 60.57Q120.97 59.38 119.58 58.39L119.55 58.36L119.57 58.38Q116.08 56.86 108.80 56.63L108.87 56.70L108.89 56.71Q107.38 56.65 103.68 56.65L103.84 56.81L103.70 56.67Q101.07 56.70 98.82 57.74L98.87 57.79L98.83 57.75Q97.10 58.97 97.22 61.75L97.20 61.73L97.30 61.82Q97.48 63.10 97.77 66.16L97.81 66.20L97.86 66.26Q98.74 70.20 99.15 71.47L99.07 71.40L99.20 71.53Q100.05 74.34 101.50 76.31L101.42 76.23L101.36 76.17Q101.82 76.74 102.39 77.32L102.47 77.40L102.35 77.28Q102.78 77.99 103.76 79.38L103.77 79.38L103.82 79.44Q105.99 81.43 108.93 81.72L109.09 81.87L108.91 81.70Q106.13 85.85 103.76 88.74L103.77 88.75L98.25 95.37L98.22 95.34Q101.76 94.31 104.25 93.79L104.12 93.67L104.12 93.66Q102.96 94.99 100.59 97.59L100.62 97.62L100.66 97.66Q105.23 96.16 109.96 96.10L110.06 96.20L110.04 96.18Q113.52 92.20 120.11 81.22L120.24 81.36L120.10 81.33L120.19 81.42Q120.52 80.25 121.04 79.50ZM111.93 65.47L111.87 65.41L111.98 65.53Q112.95 65.40 113.64 65.57L113.52 65.45L113.61 65.54Q114.55 65.66 115.12 65.84L115.03 65.75L115.08 65.79Q115.24 66.36 115.36 67.00L115.50 67.14L115.33 66.97Q115.54 67.70 115.37 68.28L115.28 68.19L115.37 68.28Q115.23 70.80 113.44 72.47L113.41 72.45L113.42 72.45Q112.08 74.12 109.60 74.07L109.57 74.04L109.62 74.09Q108.87 73.97 106.56 73.51L106.65 73.60L106.62 73.57Q106.24 72.21 106.24 71.11L106.29 71.16L106.38 71.25Q106.12 70.70 106.12 70.36L106.09 70.32L106.11 70.35Q106.15 67.04 109.62 65.82L109.58 65.79L109.54 65.75Q110.63 65.45 111.90 65.45Z"/><path d="M14 70 C177 134,172 78,331 58" stroke="#c4ea51" fill="none"/><path d="M4 67 C161 34,189 57,335 26" stroke="#8969e6" fill="none"/><path d="M7 59 C157 17,155 5,336 50" stroke="#7c98ed" fill="none"/></svg>