<svg xmlns="http://www.w3.org/2000/svg" width="342" height="140" viewBox="0,0,342,140"><path d="M4 123 C160 68,167 84,325 106" stroke="#66e586" fill="none"/><path d="M12 10 C163 22,178 110,323 49" stroke="#d54848" fill="none"/><path d="M10 13 C165 104,172 136,322 7" stroke="#76eeb2" fill="none"/><path d="M18 84 C186 77,154 109,334 24" stroke="#9eda62" fill="none"/><path d="M4 16 C167 45,156 135,325 106" stroke="#8de470" fill="none"/><path d="M11 42 C162 97,162 32,340 42" stroke="#e0c87e" fill="none"/><path d="M10 3 C189 43,189 88,332 35" stroke="#d27aef" fill="none"/><path d="M14 39 C158 8,165 64,331 51" stroke="#dd68c0" fill="none"/><path d="M15 57 C186 46,184 115,334 63" stroke="#7adf94" fill="none"/><path d="M8 33 C171 93,160 5,339 72" stroke="#c87ee0" fill="none"/><path d="M7 99 C179 97,191 3,340 138" stroke="#eded82" fill="none"/><path d="M4 17 C174 89,187 122,332 57" stroke="#e8e877" fill="none"/><path d="M15 42 C168 68,181 96,338 39" stroke="#4ed4d4" fill="none"/><path d="M2 41 C184 35,174 90,326 3" stroke="#9292e6" fill="none"/><path d="M11 117 C177 50,176 88,338 16" stroke="#eb7995" fill="none"/><path d="M12 139 C184 113,168 74,330 64" stroke="#48d991" fill="none"/><path fill="#3fdeb6" d="M130.52 59.63L130.36 59.47L127.35 59.72L127.49 59.86Q123.01 59.98 122.57 63.91L122.50 63.84L122.60 63.94Q122.40 65.29 122.47 67.22L122.59 67.34L122.58 67.32Q122.52 70.97 124.97 73.56L124.97 73.56L125.02 73.62Q127.45 76.19 131.15 75.90L131.20 75.95L131.15 75.90Q135.10 75.54 136.58 73.76L136.73 73.92L136.75 73.94Q138.83 72.16 139.35 67.79L139.31 67.76L139.18 67.62Q139.73 63.28 137.28 61.65L137.41 61.78L137.35 61.71Q135.70 60.21 130.51 59.62ZM142.23 77.57L142.28 77.62L139.79 82.09L139.73 82.03Q134.47 91.37 127.13 99.30L127.13 99.29L127.13 99.29Q124.01 99.66 118.75 101.21L118.60 101.06L118.59 101.05Q129.05 88.91 135.20 79.58L135.15 79.52L135.17 79.54Q133.10 80.74 129.92 80.88L129.99 80.96L129.90 80.87Q124.20 81.32 121.24 77.47L121.20 77.43L121.22 77.45Q118.87 74.36 116.72 65.47L116.61 65.35L116.75 65.49Q116.57 64.42 116.27 62.61L116.34 62.68L116.28 62.62Q116.01 60.83 116.01 59.94L115.98 59.91L116.02 59.95Q116.12 56.57 118.20 55.38L118.13 55.32L118.09 55.28Q120.49 53.83 124.12 53.83L124.13 53.83L124.24 53.94Q130.36 53.84 130.36 53.84L130.38 53.86L130.46 53.94Q134.49 53.82 136.94 54.19L137.08 54.33L137.11 54.36Q141.10 54.72 142.88 55.69L142.90 55.71L143.06 55.87Q145.72 57.34 146.09 60.75L146.09 60.75L146.01 60.67Q145.97 61.07 145.60 66.26L145.63 66.29L145.72 66.39Q144.92 70.47 144.47 72.10L144.53 72.16L144.54 72.17Q143.75 74.86 142.26 77.60ZM145.85 82.15L145.94 82.23L145.85 82.15Q147.79 77.86 148.83 69.49L148.81 69.47L148.95 69.61Q149.39 65.23 149.31 63.53L149.41 63.62L149.39 63.61Q149.19 59.85 146.89 58.07L146.87 58.05L146.34 57.89L146.45 58.00Q145.80 56.38 144.02 55.12L144.18 55.28L144.17 55.27Q139.72 53.34 130.39 53.05L130.21 52.87L130.32 52.99Q128.48 53.00 123.74 53.00L123.65 52.90L123.72 52.98Q120.21 52.87 117.32 54.21L117.43 54.32L117.31 54.20Q115.14 55.81 115.29 59.37L115.29 59.37L115.32 59.39Q115.72 61.21 116.09 65.14L116.09 65.13L115.97 65.02Q117.28 70.24 117.79 71.87L117.71 71.79L117.85 71.93Q118.80 75.40 120.65 77.92L120.81 78.08L120.82 78.09Q121.31 78.72 122.05 79.47L122.08 79.49L122.07 79.49Q122.50 80.28 123.76 82.06L123.86 82.16L123.84 82.15Q126.60 84.68 130.38 85.05L130.45 85.13L130.47 85.15Q126.68 90.25 123.64 93.95L123.66 93.97L116.66 102.53L116.68 102.55Q120.95 100.97 124.14 100.30L124.13 100.29L124.28 100.44Q122.69 102.04 119.66 105.38L119.75 105.47L119.75 105.47Q125.73 103.67 131.80 103.59L131.76 103.55L131.68 103.47Q136.24 98.47 144.69 84.40L144.65 84.36L144.79 84.64L144.84 84.69Q145.28 83.20 145.94 82.24ZM134.29 64.28L134.22 64.22L134.28 64.28Q135.47 64.06 136.36 64.28L136.25 64.18L136.32 64.24Q137.60 64.48 138.34 64.70L138.29 64.66L138.26 64.63Q138.58 65.47 138.73 66.29L138.75 66.31L138.77 66.32Q138.83 67.05 138.61 67.79L138.50 67.69L138.62 67.81Q138.51 71.10 136.22 73.25L136.18 73.21L136.31 73.34Q134.29 75.18 131.10 75.11L131.20 75.21L131.10 75.10Q130.30 75.12 127.34 74.53L127.41 74.60L127.41 74.60Q126.99 72.92 126.99 71.51L126.93 71.45L126.99 71.51Q126.72 70.88 126.72 70.43L126.90 70.60L126.80 70.51Q126.87 66.28 131.31 64.72L131.23 64.64L131.30 64.71Q132.51 64.14 134.14 64.14Z"/><path d="M12 24 C151 59,186 42,324 128" stroke="#829dec" fill="none"/><path d="M18 136 C176 18,188 22,335 125" stroke="#81e75f" fill="none"/><path d="M21 24 C169 118,170 5,323 130" stroke="#39de39" fill="none"/><path d="M18 108 C166 33,189 84,335 93" stroke="#da6783" fill="none"/><path d="M18 69 C189 48,157 17,323 25" stroke="#de62a0" fill="none"/><path d="M17 82 C160 73,173 20,331 52" stroke="#9854dd" fill="none"/><path d="M5 82 C182 35,177 68,323 21" stroke="#e650e6" fill="none"/><path d="M15 22 C173 72,170 94,340 111" stroke="#7bdfc6" fill="none"/><path d="M3 3 C161 3,171 47,336 77" stroke="#aa77de" fill="none"/><path d="M16 35 C180 28,183 64,330 30" stroke="#c9e674" fill="none"/><path d="M16 126 C173 6,179 126,340 17" stroke="#daa36c" fill="none"/><path d="M18 37 C177 15,152 51,335 54" stroke="#6ee7c9" fill="none"/><path fill="#eb8dd4" d="M63.58 66.96L63.58 66.95L63.60 66.97Q57.29 66.89 53.74 64.81L53.83 64.91L53.75 64.82Q58.71 62.23 68.19 54.00L68.05 53.86L68.06 53.87Q69.56 53.59 72.08 52.40L72.12 52.45L72.09 52.41Q69.53 64.01 69.31 76.38L69.31 76.39L69.15 76.23Q68.97 88.65 71.05 100.50L71.17 100.63L71.14 100.60Q67.86 99.16 63.71 98.94L63.74 98.98L63.71 98.95Q63.44 90.82 63.44 82.89L63.42 82.87L63.45 82.90Q63.41 74.85 63.48 66.85ZM62.82 71.31L62.88 99.74L62.84 99.70Q65.24 99.73 67.09 100.11L66.94 99.95L66.97 99.98Q67.16 101.36 67.53 104.03L67.54 104.03L67.44 103.94Q73.02 104.99 77.76 109.37L77.91 109.51L77.77 109.37Q72.93 95.49 72.86 80.97L72.99 81.10L72.95 81.06Q72.81 66.54 76.36 52.46L76.26 52.36L76.34 52.44Q75.29 53.24 72.17 55.39L72.13 55.35L72.13 55.34Q72.64 54.00 73.23 51.04L73.17 50.98L73.17 50.97Q70.60 52.49 67.79 53.23L67.71 53.15L67.75 53.19Q60.39 60.13 52.02 64.58L52.04 64.60L52.08 64.63Q54.67 66.64 59.27 67.31L59.39 67.43L59.30 67.34Q58.10 68.44 55.58 70.51L55.58 70.51L55.50 70.43Q58.40 71.18 62.70 71.18L62.74 71.22Z"/><path d="M13 59 C167 14,173 70,327 121" stroke="#e87c7c" fill="none"/><path d="M21 128 C175 77,176 101,325 126" stroke="#e475e4" fill="none"/><path d="M2 107 C151 138,168 50,339 122" stroke="#e872ad" fill="none"/><path d="M15 4 C176 82,186 4,329 114" stroke="#e637e6" fill="none"/><path d="M15 99 C169 11,190 87,331 94" stroke="#d3b14a" fill="none"/><path fill="#de3f66" d="M266.12 77.94L266.24 78.06L266.14 77.96Q262.62 77.77 260.21 80.55L260.24 80.58L260.13 80.47Q257.88 83.41 257.51 87.11L257.42 87.02L257.47 87.07Q256.90 90.95 259.01 92.84L259.04 92.87L259.09 92.91Q261.14 94.75 265.22 94.52L265.33 94.64L265.21 94.51Q269.43 94.36 271.57 93.03L271.58 93.03L271.53 92.98Q273.69 90.77 273.69 87.73L273.83 87.87L273.73 87.77Q273.70 87.00 273.55 86.26L273.57 86.27L273.56 86.27Q273.83 83.13 271.68 80.50L271.51 80.33L271.51 80.33Q269.53 77.87 266.27 78.09ZM265.43 99.70L265.43 99.70L265.32 99.59Q256.89 99.69 254.15 98.20L254.06 98.11L254.16 98.22Q252.01 96.58 251.64 93.24L251.77 93.38L251.67 93.28Q251.58 91.93 251.65 90.52L251.78 90.65L251.77 90.63Q251.96 88.68 251.96 87.79L252.00 87.83L252.04 87.87Q252.86 82.24 253.16 80.91L253.05 80.80L253.15 80.90Q253.99 77.07 255.62 74.33L255.63 74.34L255.64 74.35Q260.89 65.89 272.45 53.52L272.45 53.52L272.50 53.57Q277.55 52.84 281.85 51.28L281.97 51.40L281.87 51.30Q268.61 65.91 262.39 74.13L262.33 74.08L262.33 74.07Q264.32 73.18 266.84 73.18L266.78 73.11L266.74 73.07Q273.29 73.18 276.25 76.96L276.18 76.88L276.28 76.98Q278.69 79.98 279.35 86.88L279.48 87.01L279.40 86.92Q279.68 88.47 279.68 89.65L279.63 89.59L279.61 89.58Q279.52 95.56 275.22 97.64L275.23 97.65L275.38 97.79Q272.90 98.87 265.34 99.61ZM269.77 104.26L269.90 104.39L269.91 104.40Q272.36 104.26 276.22 104.41L276.18 104.38L276.14 104.33Q279.29 104.44 282.32 103.04L282.47 103.18L282.42 103.13Q284.47 101.48 284.47 98.00L284.56 98.08L284.52 98.05Q284.59 97.15 284.26 95.23L284.17 95.14L284.20 95.16Q283.86 93.24 283.86 92.35L283.86 92.35L283.97 92.46Q282.27 83.27 279.16 79.57L278.98 79.39L279.05 79.46Q278.92 79.25 278.62 78.80L278.73 78.92L278.04 78.37L277.82 78.23L277.84 78.25Q277.27 77.38 276.08 75.53L276.10 75.54L276.11 75.56Q274.33 73.70 270.48 72.81L270.36 72.70L270.34 72.67Q272.83 69.69 278.61 62.50L278.49 62.37L286.69 52.05L286.72 52.08Q283.76 53.86 279.09 55.34L279.00 55.25L279.10 55.35Q280.86 53.41 284.34 49.55L284.32 49.53L284.35 49.57Q279.67 51.63 272.11 52.74L272.13 52.76L272.09 52.72Q261.08 64.31 255.30 73.94L255.21 73.85L255.23 73.87Q252.26 78.75 251.15 90.91L251.12 90.88L251.08 90.84Q251.03 92.05 251.18 93.90L251.06 93.78L251.24 93.96Q251.31 97.29 253.46 99.07L253.47 99.08L253.37 98.98Q254.09 99.26 254.02 99.33L254.20 99.51L254.12 99.43Q254.75 101.10 256.30 101.91L256.44 102.05L256.37 101.98Q259.20 103.33 262.98 103.70L263.04 103.75L262.93 103.65Q263.04 103.76 269.86 104.35ZM269.41 82.49L269.31 82.39L269.44 82.52Q270.49 82.23 272.34 83.20L272.42 83.28L272.41 83.27Q273.05 85.09 273.05 86.35L272.99 86.29L273.08 86.39Q273.46 90.02 271.61 91.95L271.62 91.96L271.49 91.83Q269.37 93.20 265.30 93.79L265.27 93.76L265.35 93.84Q262.47 93.78 261.43 93.26L261.55 93.38L261.51 93.33Q261.21 92.52 261.21 91.92L261.07 91.78L261.07 91.79Q260.75 85.54 266.46 83.02L266.35 82.91L266.48 83.04Q267.84 82.25 269.32 82.40Z"/><path d="M19 94 C165 138,157 138,329 60" stroke="#498ed4" fill="none"/><path d="M16 47 C153 102,183 38,328 32" stroke="#74e074" fill="none"/><path d="M9 139 C166 61,160 108,333 61" stroke="#ebc860" fill="none"/><path d="M16 133 C186 88,176 20,341 97" stroke="#83e1ca" fill="none"/><path d="M9 82 C176 49,172 37,333 60" stroke="#5858de" fill="none"/><path d="M11 64 C182 126,172 29,339 57" stroke="#8cecec" fill="none"/><path fill="#d968a0" d="M213.68 95.05L213.74 95.12L213.74 95.11Q214.27 96.98 215.31 100.91L215.28 100.88L215.47 101.07Q207.08 98.31 198.11 98.83L198.27 98.99L198.21 98.92Q189.23 99.36 181.45 103.21L181.56 103.32L181.45 103.21Q181.88 101.86 181.96 102.01L182.10 102.16L182.12 102.18Q189.34 94.43 196.97 85.83L196.83 85.69L196.86 85.72Q205.56 76.12 207.86 67.01L207.84 66.99L207.81 66.95Q208.66 63.50 206.17 61.21L206.27 61.30L206.12 61.16Q203.65 58.86 200.16 59.16L200.19 59.19L200.19 59.18Q199.65 59.24 198.99 59.24L198.91 59.16L199.01 59.27Q195.92 59.14 193.47 60.92L193.48 60.92L193.57 61.02Q190.91 63.54 191.35 68.73L191.39 68.76L191.49 68.86Q187.92 68.11 185.55 67.23L185.65 67.32L185.60 67.27Q185.24 64.54 185.09 61.72L185.04 61.67L185.01 61.64Q185.02 58.61 186.20 56.39L186.07 56.26L186.01 56.20Q189.60 53.63 196.12 53.63L196.15 53.67L199.50 53.60L199.43 53.54Q204.05 53.79 205.91 54.01L205.74 53.85L205.83 53.94Q214.20 54.67 214.71 59.41L214.75 59.44L214.81 59.51Q214.99 60.65 214.84 62.21L214.71 62.08L214.79 62.15Q214.70 63.40 214.40 64.73L214.43 64.75L214.48 64.81Q211.25 80.54 196.50 93.88L196.54 93.92L196.46 93.84Q199.26 93.60 201.93 93.60L201.90 93.58L201.85 93.52Q208.28 93.66 213.84 95.22ZM212.63 54.59L212.59 54.54L212.72 54.67Q209.58 53.38 206.24 53.24L206.17 53.17L199.58 52.87L199.42 52.71Q190.80 52.25 186.51 54.40L186.59 54.48L186.52 54.41Q184.52 57.15 184.52 61.15L184.56 61.19L184.42 61.05Q184.50 62.46 185.09 67.95L185.23 68.09L185.23 68.09Q186.16 68.43 188.46 69.02L188.39 68.95L188.44 71.00L188.53 71.09Q188.32 71.84 188.47 72.88L188.48 72.89L188.59 73.00Q190.99 73.18 195.80 73.62L195.77 73.59L195.85 73.67Q195.68 72.84 195.68 72.17L195.65 72.13L195.82 72.31Q195.80 68.73 198.17 66.10L198.19 66.11L198.05 65.98Q200.51 63.44 204.00 63.66L203.96 63.63L204.01 63.68Q205.38 63.64 206.86 63.93L207.00 64.08L206.93 64.00Q207.16 64.75 207.31 65.56L207.32 65.58L207.26 65.52Q207.35 66.35 207.20 67.01L207.26 67.07L207.14 66.95Q204.75 76.28 196.16 85.69L196.12 85.64L196.09 85.62Q192.07 90.12 181.47 101.90L181.41 101.83L181.35 101.77Q181.09 103.52 180.43 104.63L180.43 104.64L180.36 104.56Q183.46 102.85 186.42 101.81L186.49 101.87L186.42 101.81Q185.02 102.92 183.16 105.81L183.27 105.92L183.21 105.86Q182.94 106.48 182.72 107.15L182.75 107.18L182.85 107.28Q192.28 103.22 202.95 103.59L202.91 103.56L202.88 103.52Q213.93 103.83 222.82 108.42L222.79 108.39L220.91 104.29L220.86 104.24Q219.63 101.67 219.11 100.11L219.21 100.21L219.20 100.20Q217.78 99.38 215.41 98.56L215.35 98.51L215.45 98.60Q215.06 97.10 214.32 94.43L214.30 94.42L214.43 94.55Q210.12 93.42 205.68 93.05L205.65 93.03L205.60 92.97Q214.74 84.11 217.70 68.03L217.72 68.04L218.04 62.37L218.02 62.34Q217.85 58.84 215.47 57.50L215.51 57.54L215.39 57.49L215.45 57.55Q215.36 57.39 215.21 57.39L215.14 57.31L215.20 57.38Q214.85 55.85 212.70 54.66Z"/><path d="M8 70 C152 35,169 131,337 27" stroke="#efb275" fill="none"/></svg>