<svg xmlns="http://www.w3.org/2000/svg" width="342" height="140" viewBox="0,0,342,140"><path d="M7 68 C169 99,183 13,322 98" stroke="#8be96c" fill="none"/><path d="M16 27 C174 70,164 1,333 37" stroke="#5656db" fill="none"/><path d="M21 43 C169 54,163 109,340 113" stroke="#e5e584" fill="none"/><path d="M9 108 C156 79,170 57,323 39" stroke="#4493e3" fill="none"/><path d="M16 68 C183 63,157 44,329 100" stroke="#e76ee7" fill="none"/><path d="M13 124 C186 83,189 127,321 32" stroke="#a3e85e" fill="none"/><path fill="#e14693" d="M228.19 73.55L228.05 73.40L228.21 73.56Q229.40 73.46 231.66 73.22L231.77 73.33L231.73 73.28Q231.62 74.28 231.62 75.32L231.61 75.31L231.68 77.39L231.53 77.25Q230.22 77.29 228.87 77.41L228.89 77.43L228.93 77.46Q227.61 77.55 226.27 77.49L226.30 77.52L226.20 77.42Q221.58 87.31 216.08 94.71L216.11 94.74L216.10 94.73Q212.07 95.78 209.99 96.76L210.08 96.86L210.00 96.78Q216.68 87.67 221.57 77.57L221.57 77.57L217.30 77.52L217.30 77.52Q217.22 75.29 217.03 73.15L217.08 73.20L217.05 73.17Q220.13 73.43 223.43 73.43L223.45 73.45L226.58 67.59L226.50 67.51Q228.04 64.40 230.00 61.83L230.17 62.00L230.15 61.98Q227.54 62.13 224.97 62.13L224.97 62.12L224.98 62.13Q215.14 62.09 209.09 58.54L209.21 58.66L208.21 55.95L208.20 55.94Q207.65 54.59 207.04 53.19L207.04 53.19L207.00 53.15Q213.96 57.35 223.13 57.72L223.11 57.70L223.14 57.73Q231.38 58.08 239.64 54.89L239.56 54.81L239.71 54.96Q239.39 55.62 238.59 57.02L238.56 56.99L238.54 56.97Q232.78 64.67 228.19 73.54ZM241.08 59.14L241.18 59.24L242.66 55.89L242.71 55.95Q241.13 56.68 238.44 57.85L238.51 57.92L238.86 57.47L238.83 57.44Q238.96 57.14 239.14 56.96L239.24 57.06L239.13 56.95Q239.86 55.96 241.02 53.82L240.91 53.71L240.91 53.71Q232.43 57.47 223.19 57.10L223.03 56.94L223.12 57.03Q213.55 56.70 205.90 51.92L205.74 51.76L205.71 51.74Q207.53 54.90 208.88 59.19L208.71 59.02L208.86 59.17Q210.62 60.19 211.90 60.68L211.85 60.63L211.93 60.71Q212.12 61.21 212.86 64.20L212.93 64.28L212.87 64.22Q217.93 66.22 226.80 65.97L226.80 65.97L226.89 66.06Q226.30 66.88 223.11 72.93L223.13 72.95L223.21 73.03Q219.75 72.87 216.57 72.57L216.56 72.56L216.72 72.72Q216.76 73.98 216.76 75.39L216.79 75.42L216.74 78.12L219.47 78.17L219.39 80.34L219.38 80.34Q213.15 92.27 208.68 98.02L208.72 98.06L208.77 98.11Q211.35 96.90 213.98 96.10L213.95 96.08L213.84 95.97Q212.85 97.54 210.65 100.30L210.64 100.29L210.57 100.22Q215.61 98.41 219.53 98.04L219.51 98.02L219.50 98.01Q224.31 92.06 229.33 81.17L229.34 81.18L234.79 81.43L234.90 81.54Q234.66 79.95 234.66 78.49L234.70 78.53L234.65 75.59L234.72 75.66Q234.17 75.55 233.28 75.61L233.44 75.77L233.45 75.77Q232.41 75.68 231.98 75.68L231.99 75.69L231.96 75.66Q232.01 75.52 232.07 75.28L232.03 75.24L232.10 74.88L232.15 74.93Q236.25 66.73 241.20 59.27Z"/><path fill="#c772e3" d="M108.81 61.44L108.83 61.46L106.33 61.65L106.33 61.65Q102.68 61.79 102.31 65.03L102.25 64.97L102.33 65.05Q102.10 66.11 102.16 67.70L102.28 67.82L102.13 67.66Q102.23 70.83 104.25 72.97L104.31 73.03L104.36 73.08Q106.34 75.19 109.40 74.94L109.28 74.82L109.43 74.97Q112.61 74.60 113.83 73.13L113.93 73.23L113.91 73.21Q115.68 71.80 116.11 68.19L115.97 68.04L116.12 68.20Q116.47 64.51 114.45 63.17L114.52 63.24L114.39 63.10Q113.12 61.96 108.84 61.47ZM118.50 76.27L118.52 76.29L116.37 79.89L116.32 79.84Q111.99 87.56 105.93 94.11L106.04 94.22L106.02 94.20Q103.44 94.49 99.10 95.78L98.94 95.62L99.00 95.68Q107.61 85.62 112.68 77.92L112.61 77.84L112.74 77.97Q111.07 79.00 108.44 79.12L108.30 78.98L108.35 79.02Q103.51 79.26 101.06 76.08L101.01 76.04L101.01 76.03Q99.08 73.49 97.30 66.15L97.33 66.18L97.36 66.20Q97.32 65.43 97.08 63.93L97.17 64.03L97.19 64.04Q96.92 62.52 96.92 61.79L96.89 61.75L96.81 61.67Q96.92 58.91 98.63 57.93L98.57 57.87L98.59 57.88Q100.49 56.61 103.49 56.61L103.52 56.63L103.56 56.68Q108.62 56.60 108.62 56.60L108.61 56.59L108.76 56.74Q112.12 56.67 114.14 56.98L114.10 56.94L114.10 56.93Q117.54 57.38 119.01 58.18L119.01 58.17L119.05 58.21Q121.38 59.56 121.68 62.38L121.64 62.34L121.60 62.30Q121.63 62.70 121.33 66.98L121.37 67.02L121.33 66.98Q120.58 70.28 120.22 71.62L120.38 71.79L120.25 71.66Q119.64 73.92 118.42 76.18ZM121.61 80.17L121.47 80.03L121.45 80.01Q123.15 76.58 124.01 69.66L123.96 69.62L124.02 69.67Q124.41 66.08 124.35 64.68L124.27 64.60L124.28 64.61Q124.22 61.62 122.33 60.15L122.38 60.20L121.92 60.04L121.94 60.07Q121.55 58.89 120.08 57.85L119.91 57.67L119.95 57.71Q116.25 56.09 108.54 55.85L108.71 56.02L108.63 55.94Q107.08 55.92 103.17 55.92L103.10 55.86L103.23 55.98Q100.42 55.98 98.03 57.09L97.88 56.93L98.05 57.10Q96.20 58.37 96.32 61.31L96.27 61.26L96.20 61.19Q96.60 62.75 96.90 65.99L96.86 65.95L96.84 65.93Q97.76 70.09 98.19 71.44L98.33 71.58L98.21 71.46Q99.18 74.51 100.71 76.59L100.72 76.60L100.65 76.53Q101.08 77.09 101.70 77.70L101.79 77.79L101.78 77.78Q102.10 78.41 103.14 79.88L103.16 79.89L103.18 79.92Q105.57 82.12 108.69 82.43L108.76 82.50L108.66 82.40Q105.63 86.71 103.12 89.77L103.20 89.85L97.27 96.76L97.43 96.93Q100.90 95.56 103.53 95.01L103.57 95.05L103.64 95.12Q102.29 96.40 99.78 99.15L99.97 99.34L99.89 99.27Q104.74 97.69 109.76 97.63L109.91 97.78L109.92 97.79Q113.67 93.65 120.65 82.02L120.51 81.88L120.59 82.09L120.49 81.99Q120.97 80.88 121.52 80.08ZM111.86 65.22L111.91 65.28L111.85 65.21Q112.83 65.03 113.57 65.22L113.50 65.15L113.50 65.15Q114.60 65.39 115.21 65.58L115.20 65.57L115.22 65.58Q115.43 66.23 115.55 66.90L115.53 66.87L115.44 66.79Q115.75 67.64 115.57 68.26L115.56 68.25L115.44 68.13Q115.40 70.90 113.50 72.68L113.57 72.75L113.43 72.61Q111.93 74.29 109.30 74.23L109.29 74.21L109.32 74.25Q108.75 74.35 106.30 73.86L106.23 73.79L106.14 73.70Q105.84 72.36 105.84 71.19L105.92 71.27L105.93 71.28Q105.81 70.86 105.81 70.49L105.79 70.47L105.76 70.44Q105.72 66.86 109.39 65.57L109.50 65.68L109.49 65.67Q110.57 65.28 111.91 65.28Z"/><path d="M5 57 C179 87,183 7,337 76" stroke="#4b91d7" fill="none"/><path d="M15 89 C155 49,170 48,325 116" stroke="#ce89e6" fill="none"/><path d="M20 82 C191 60,181 114,337 110" stroke="#d84a91" fill="none"/><path d="M3 32 C176 92,179 95,338 3" stroke="#ddc068" fill="none"/><path d="M15 118 C160 99,151 78,325 86" stroke="#6fc0dc" fill="none"/><path d="M9 48 C171 59,177 33,333 125" stroke="#8cd1e8" fill="none"/><path fill="#e542e5" d="M52.95 67.41L52.89 67.36L52.97 67.44Q47.77 67.37 44.83 65.66L44.99 65.82L44.92 65.75Q49.00 63.59 56.83 56.80L56.83 56.79L56.71 56.67Q57.85 56.34 59.93 55.36L59.96 55.40L59.99 55.43Q57.78 64.90 57.60 75.12L57.61 75.14L57.60 75.12Q57.55 85.48 59.26 95.27L59.18 95.18L59.12 95.12Q56.51 94.04 53.08 93.86L53.00 93.77L53.00 93.77Q52.94 87.23 52.94 80.68L52.87 80.61L52.88 80.62Q52.81 73.94 52.87 67.34ZM52.33 71.02L52.36 94.48L52.43 94.55Q54.33 94.49 55.86 94.80L55.84 94.78L55.86 94.80Q55.91 95.82 56.21 98.03L56.20 98.01L56.20 98.01Q60.80 98.88 64.71 102.49L64.69 102.46L64.71 102.48Q60.74 91.06 60.68 79.06L60.64 79.02L60.82 79.20Q60.65 67.16 63.58 55.53L63.63 55.58L63.61 55.56Q62.65 56.13 60.08 57.91L60.10 57.92L60.17 57.99Q60.49 56.78 60.98 54.33L60.87 54.22L60.99 54.35Q58.68 55.41 56.36 56.02L56.49 56.15L56.36 56.02Q50.38 61.84 43.46 65.51L43.44 65.49L43.56 65.61Q45.79 67.35 49.58 67.90L49.63 67.95L49.49 67.80Q48.43 68.65 46.35 70.36L46.41 70.42L46.34 70.35Q48.82 71.06 52.37 71.06L52.27 70.96Z"/><path d="M8 52 C154 37,183 78,333 58" stroke="#ef8989" fill="none"/><path d="M4 33 C160 16,165 55,328 11" stroke="#8b8be8" fill="none"/><path d="M12 135 C162 41,157 52,333 89" stroke="#e73a91" fill="none"/><path d="M1 94 C166 88,168 61,338 29" stroke="#7291ed" fill="none"/><path d="M18 89 C168 27,160 50,331 82" stroke="#6cee6c" fill="none"/><path d="M2 119 C169 17,182 138,333 5" stroke="#e18b6f" fill="none"/><path d="M7 92 C165 63,163 4,325 25" stroke="#de7e5e" fill="none"/><path d="M12 3 C179 111,183 90,332 93" stroke="#977aef" fill="none"/><path d="M17 94 C165 49,155 85,339 90" stroke="#7fdb61" fill="none"/><path d="M6 126 C185 78,161 22,331 59" stroke="#67daa0" fill="none"/><path fill="#bedf5d" d="M159.94 94.57L160.01 94.64L160.09 94.72Q157.77 94.78 155.26 94.11L155.24 94.09L155.30 94.15Q153.30 92.64 153.06 90.01L153.12 90.07L153.12 90.07Q152.98 89.69 153.29 85.47L153.28 85.47L153.39 85.57Q154.92 85.14 158.16 84.53L158.24 84.61L157.88 85.78L157.99 85.88Q157.44 88.59 159.71 89.50L159.78 89.57L159.68 89.47Q161.00 90.06 164.37 90.06L164.42 90.12L164.43 90.13Q166.96 89.85 167.27 89.72L167.32 89.78L167.29 89.74Q168.66 89.40 169.82 88.60L169.98 88.76L169.82 88.60Q172.11 87.10 171.81 83.74L171.76 83.69L171.82 83.75Q171.59 79.91 168.80 77.40L168.66 77.25L168.69 77.28Q165.95 74.82 161.97 74.82L161.94 74.79L162.06 74.54L162.05 74.53Q162.63 74.44 164.03 74.31L164.08 74.36L163.96 74.24Q167.14 74.18 169.35 72.19L169.30 72.14L169.18 72.03Q171.52 70.17 171.76 67.17L171.77 67.18L171.74 67.15Q171.93 66.67 171.93 66.12L171.89 66.07L171.81 65.99Q171.88 63.62 169.68 62.15L169.62 62.09L169.54 62.02Q167.59 60.74 165.02 60.92L165.13 61.03L165.15 61.06Q163.07 60.80 161.11 61.48L161.09 61.46L161.12 61.49Q158.74 62.29 158.25 64.12L158.35 64.22L158.30 64.18Q158.01 65.41 158.13 66.64L157.99 66.50L158.14 66.64Q156.36 66.15 153.06 64.99L153.14 65.07L153.21 65.14Q152.74 62.35 152.80 61.00L152.71 60.91L152.71 60.91Q153.08 58.65 154.79 57.55L154.67 57.42L154.68 57.43Q157.04 56.55 159.61 56.55L159.52 56.46L159.49 56.43Q164.54 56.34 169.62 56.77L169.70 56.85L169.78 56.93Q177.88 57.56 177.39 63.62L177.35 63.58L177.43 63.67Q177.24 65.98 176.44 68.49L176.49 68.54L176.42 68.47Q174.95 73.42 171.15 74.89L171.24 74.97L171.10 74.83Q175.48 75.85 176.46 81.23L176.41 81.18L176.33 81.10Q176.71 82.95 176.83 86.20L176.93 86.29L176.93 86.29Q177.15 93.42 169.74 94.15L169.70 94.11L169.64 94.05Q168.44 94.14 159.94 94.57ZM168.48 98.34L168.44 98.30L168.40 98.26Q169.36 98.30 173.95 98.42L173.96 98.43L174.02 98.50Q176.71 98.49 179.34 97.45L179.35 97.46L179.39 97.50Q181.27 95.95 180.96 93.14L180.95 93.12L181.08 93.26Q180.86 91.07 180.37 88.26L180.33 88.22L180.28 88.17Q179.11 80.95 175.99 78.32L176.03 78.36L175.72 77.74L175.61 77.57L175.76 77.71Q178.47 75.29 179.69 68.25L179.76 68.32L179.73 68.29Q179.83 67.59 180.01 66.06L180.00 66.05L179.92 65.97Q180.17 64.87 180.04 63.77L179.94 63.66L179.95 63.67Q179.75 61.03 177.67 59.93L177.71 59.97L177.52 59.90L177.52 59.90Q177.05 58.33 175.22 57.48L175.12 57.38L175.12 57.37Q172.75 56.35 164.49 55.86L164.42 55.79L164.54 55.91Q161.78 55.72 159.21 55.72L159.29 55.80L159.19 55.70Q156.61 55.70 154.17 56.74L154.29 56.86L154.28 56.85Q152.17 57.92 152.17 60.73L152.21 60.78L152.27 60.84Q152.29 60.18 152.72 65.57L152.71 65.56L152.59 65.44Q153.14 65.62 155.77 66.60L155.77 66.60L155.71 66.54Q155.89 67.58 155.83 68.37L155.77 68.31L155.72 68.26Q155.70 69.04 155.76 69.89L155.90 70.03L155.76 69.90Q158.63 70.50 161.87 70.68L161.97 70.78L162.00 70.81Q161.88 67.57 163.65 66.22L163.58 66.15L163.58 66.15Q164.99 65.18 168.24 64.81L168.26 64.83L168.16 64.73Q169.93 64.67 170.85 64.97L171.01 65.14L170.86 64.99Q170.90 65.15 170.96 65.33L170.97 65.34L170.98 65.65L171.14 66.55L171.23 66.64Q171.27 66.99 171.21 67.23L171.10 67.12L171.19 67.22Q171.01 69.91 168.56 71.81L168.54 71.78L168.58 71.82Q167.03 73.21 163.79 73.52L163.94 73.67L163.98 73.71Q162.75 73.89 161.35 73.89L161.41 73.95L161.29 73.83Q161.31 74.34 161.55 75.44L161.59 75.48L161.72 75.60Q164.51 75.59 166.84 76.75L166.73 76.65L166.54 76.63L164.14 77.05L163.98 76.89Q164.07 77.47 164.25 78.45L164.40 78.60L164.41 78.60Q167.81 78.46 170.56 80.60L170.50 80.53L170.49 80.53Q170.87 81.15 171.36 83.78L171.28 83.70L171.39 83.81Q171.75 88.57 167.04 89.25L166.90 89.11L166.93 89.14Q163.48 89.48 162.56 89.42L162.59 89.45L162.61 89.47Q162.01 89.42 161.16 89.30L161.05 89.20L161.06 88.47L161.34 87.83L161.27 87.09L161.43 86.70L161.35 86.62Q159.90 86.82 158.62 87.13L158.57 87.09L158.50 87.01Q158.48 86.68 158.48 86.38L158.44 86.34L158.55 86.45Q158.53 86.06 158.53 85.70L158.54 85.71L158.51 85.68Q158.69 85.12 158.93 83.96L158.96 83.98L158.78 83.80Q155.86 84.25 152.86 84.80L152.92 84.86L152.81 84.75Q152.79 85.52 152.61 87.33L152.74 87.46L152.65 87.37Q152.49 89.20 152.49 90.18L152.58 90.27L152.45 90.14Q152.66 93.53 154.86 94.75L154.84 94.73L154.89 94.78Q157.26 98.44 164.85 98.13L164.72 98.01L164.85 98.13Q165.94 98.00 168.38 98.24Z"/><path d="M18 85 C164 36,152 14,327 116" stroke="#a3e462" fill="none"/><path d="M5 81 C154 87,152 42,332 1" stroke="#eb509e" fill="none"/><path d="M10 65 C152 50,169 94,323 16" stroke="#ea6aea" fill="none"/><path d="M7 102 C158 97,155 102,333 111" stroke="#49e3e3" fill="none"/><path d="M11 132 C151 51,168 32,335 42" stroke="#6cdede" fill="none"/><path d="M3 93 C166 36,168 54,339 10" stroke="#e25ec1" fill="none"/><path d="M9 87 C190 14,184 15,323 65" stroke="#c35ae6" fill="none"/><path d="M3 33 C151 112,158 38,333 91" stroke="#cee689" fill="none"/><path fill="#69e83f" d="M284.74 73.43L284.80 73.49L284.77 73.45Q286.06 73.47 288.33 73.22L288.33 73.22L288.37 73.27Q288.29 74.29 288.29 75.33L288.38 75.41L288.23 77.28L288.34 77.39Q286.87 77.27 285.53 77.40L285.66 77.53L285.68 77.55Q284.24 77.51 282.89 77.45L282.86 77.42L282.89 77.45Q278.29 87.35 272.78 94.75L272.71 94.68L272.90 94.87Q268.77 95.82 266.69 96.80L266.76 96.87L266.69 96.80Q273.27 87.59 278.16 77.49L278.12 77.45L273.95 77.50L273.91 77.46Q274.03 75.44 273.85 73.30L273.76 73.21L273.69 73.14Q276.76 73.40 280.06 73.40L280.21 73.55L283.28 67.62L283.23 67.57Q284.72 64.41 286.68 61.85L286.78 61.94L286.77 61.93Q284.23 62.15 281.66 62.15L281.75 62.24L281.62 62.11Q271.94 62.22 265.88 58.67L265.91 58.69L264.81 55.88L264.75 55.82Q264.31 54.59 263.70 53.18L263.71 53.20L263.57 53.05Q270.57 57.30 279.75 57.66L279.84 57.76L279.81 57.73Q288.03 58.06 296.29 54.88L296.36 54.95L296.40 54.98Q295.92 55.48 295.12 56.89L295.23 57.00L295.29 57.06Q289.42 64.65 284.83 73.52ZM297.70 59.10L297.74 59.14L299.29 55.85L299.32 55.88Q297.89 56.77 295.19 57.94L295.05 57.79L295.43 57.37L295.37 57.32Q295.59 57.11 295.77 56.92L295.91 57.07L295.86 57.01Q296.52 55.96 297.68 53.82L297.54 53.67L297.65 53.78Q289.11 57.48 279.87 57.12L279.78 57.02L279.83 57.08Q270.12 56.61 262.48 51.84L262.46 51.81L262.55 51.91Q264.18 54.88 265.53 59.17L265.46 59.10L265.51 59.15Q267.26 60.17 268.54 60.66L268.51 60.62L268.59 60.70Q268.70 61.12 269.44 64.12L269.52 64.20L269.52 64.20Q274.58 66.20 283.45 65.96L283.48 65.98L283.47 65.97Q283.04 66.95 279.86 73.01L279.70 72.86L279.72 72.87Q276.47 72.92 273.29 72.62L273.27 72.60L273.23 72.56Q273.52 74.07 273.52 75.48L273.44 75.40L273.46 78.18L276.11 78.13L276.06 80.35L276.09 80.38Q269.87 92.33 265.41 98.08L265.28 97.95L265.41 98.09Q267.82 96.70 270.45 95.91L270.54 96.00L270.50 95.95Q269.37 97.40 267.17 100.15L267.20 100.18L267.27 100.25Q272.23 98.36 276.14 97.99L276.27 98.12L276.22 98.06Q281.00 92.07 286.01 81.18L285.97 81.14L291.48 81.45L291.37 81.34Q291.33 79.95 291.33 78.49L291.32 78.47L291.33 75.61L291.29 75.57Q291.00 75.71 290.12 75.77L290.00 75.66L289.98 75.64Q289.16 75.76 288.73 75.76L288.71 75.75L288.80 75.83Q288.81 75.66 288.87 75.42L288.83 75.38L288.72 74.83L288.69 74.81Q292.84 66.66 297.80 59.20Z"/><path d="M11 29 C166 124,160 107,335 47" stroke="#e5ca7a" fill="none"/><path d="M5 137 C171 23,190 81,327 110" stroke="#85e4cc" fill="none"/><path d="M5 93 C168 125,182 108,331 30" stroke="#6060e0" fill="none"/><path d="M11 65 C176 106,184 36,322 62" stroke="#84ebb7" fill="none"/><path d="M5 18 C160 85,165 117,325 94" stroke="#8c37e1" fill="none"/><path d="M17 20 C182 94,172 102,321 106" stroke="#b5e584" fill="none"/><path d="M14 53 C171 62,186 54,327 6" stroke="#e97bce" fill="none"/><path d="M12 6 C163 78,190 44,339 92" stroke="#3a8cdd" fill="none"/><path d="M7 73 C158 9,184 34,322 31" stroke="#7fe0e0" fill="none"/><path d="M3 85 C172 17,168 76,337 82" stroke="#94e4e4" fill="none"/></svg>