<svg xmlns="http://www.w3.org/2000/svg" width="342" height="140" viewBox="0,0,342,140"><path d="M20 84 C155 75,157 136,336 95" stroke="#ea9b4c" fill="none"/><path d="M9 59 C157 52,152 97,322 88" stroke="#eded8b" fill="none"/><path d="M20 16 C170 66,167 66,335 125" stroke="#b646db" fill="none"/><path fill="#6eadec" d="M131.69 61.83L131.59 61.73L129.18 61.89L129.24 61.96Q125.82 62.16 125.47 65.26L125.48 65.26L125.46 65.25Q125.36 66.38 125.42 67.90L125.34 67.82L125.27 67.74Q125.50 70.90 127.43 72.94L127.37 72.89L127.39 72.91Q129.22 74.85 132.14 74.62L132.26 74.74L132.20 74.67Q135.45 74.54 136.62 73.14L136.43 72.94L136.54 73.05Q138.16 71.63 138.57 68.18L138.61 68.22L138.53 68.14Q138.91 64.66 136.98 63.38L137.00 63.40L137.07 63.47Q135.66 62.18 131.57 61.71ZM140.81 75.86L140.94 75.99L139.01 79.56L138.91 79.46Q134.76 86.83 128.97 93.08L129.06 93.17L129.02 93.13Q126.56 93.42 122.41 94.65L122.40 94.63L122.23 94.47Q130.49 84.89 135.34 77.52L135.26 77.45L135.40 77.59Q133.80 78.56 131.29 78.68L131.27 78.66L131.20 78.59Q126.59 78.83 124.26 75.79L124.33 75.87L124.24 75.78Q122.34 73.30 120.65 66.28L120.82 66.45L120.81 66.45Q120.78 65.72 120.55 64.28L120.52 64.25L120.54 64.28Q120.30 62.84 120.30 62.14L120.18 62.02L120.35 62.18Q120.30 59.39 121.94 58.46L122.01 58.52L121.90 58.41Q123.74 57.21 126.60 57.21L126.60 57.21L126.60 57.21Q131.57 57.26 131.57 57.26L131.51 57.20L131.50 57.20Q134.79 57.21 136.72 57.51L136.90 57.68L136.72 57.51Q140.09 58.01 141.49 58.77L141.57 58.85L141.47 58.75Q143.53 59.87 143.82 62.56L143.82 62.56L143.98 62.72Q143.97 63.07 143.68 67.16L143.57 67.05L143.64 67.12Q143.04 70.37 142.68 71.66L142.60 71.58L142.69 71.66Q142.14 73.86 140.97 76.03ZM143.82 79.64L143.86 79.67L143.93 79.74Q145.45 76.35 146.27 69.75L146.16 69.64L146.16 69.64Q146.58 66.26 146.52 64.91L146.51 64.90L146.45 64.84Q146.52 62.11 144.71 60.70L144.56 60.55L144.12 60.41L144.11 60.39Q143.85 59.38 142.45 58.38L142.37 58.30L142.46 58.40Q138.82 56.74 131.45 56.51L131.53 56.59L131.49 56.55Q129.99 56.50 126.24 56.50L126.26 56.52L126.31 56.57Q123.56 56.50 121.28 57.56L121.40 57.68L121.28 57.56Q119.50 58.76 119.62 61.57L119.70 61.65L119.61 61.56Q119.98 63.04 120.27 66.14L120.31 66.17L120.20 66.07Q121.25 70.22 121.66 71.50L121.58 71.43L121.56 71.41Q122.49 74.32 123.95 76.31L123.88 76.24L123.90 76.26Q124.41 76.88 124.99 77.46L125.00 77.48L124.92 77.39Q125.34 78.11 126.34 79.51L126.29 79.47L126.43 79.61Q128.68 81.68 131.66 81.97L131.67 81.98L131.62 81.93Q128.67 86.00 126.27 88.92L126.36 89.01L120.79 95.72L120.80 95.73Q124.26 94.57 126.78 94.04L126.75 94.01L126.74 94.00Q125.52 95.30 123.12 97.93L123.16 97.97L123.12 97.93Q127.84 96.51 132.64 96.45L132.58 96.39L132.66 96.48Q136.18 92.46 142.85 81.35L142.94 81.44L142.93 81.55L142.90 81.52Q143.24 80.34 143.76 79.58ZM134.57 65.41L134.62 65.47L134.57 65.41Q135.62 65.35 136.32 65.53L136.29 65.50L136.26 65.46Q137.22 65.60 137.80 65.78L137.79 65.77L137.90 65.88Q137.99 66.38 138.11 67.02L138.04 66.95L138.13 67.04Q138.19 67.63 138.02 68.22L138.02 68.22L137.99 68.19Q138.04 70.93 136.23 72.63L136.18 72.57L136.24 72.64Q134.72 74.16 132.21 74.10L132.21 74.10L132.20 74.09Q131.49 74.02 129.15 73.56L129.28 73.69L129.15 73.55Q128.89 72.30 128.89 71.19L128.91 71.21L128.96 71.26Q128.65 70.66 128.65 70.31L128.71 70.37L128.83 70.49Q128.72 66.99 132.23 65.76L132.26 65.79L132.17 65.70Q133.34 65.47 134.62 65.47Z"/><path d="M19 18 C185 3,166 39,333 77" stroke="#4ed46f" fill="none"/><path d="M3 50 C174 47,166 70,327 108" stroke="#cfec78" fill="none"/><path d="M20 36 C160 94,175 50,337 105" stroke="#e6378e" fill="none"/><path d="M2 69 C190 125,180 35,324 65" stroke="#cb78e7" fill="none"/><path d="M18 81 C186 139,168 133,321 10" stroke="#e994d4" fill="none"/><path d="M17 42 C173 117,151 9,339 52" stroke="#8f8fef" fill="none"/><path d="M8 104 C182 53,172 82,338 124" stroke="#66bddb" fill="none"/><path d="M19 20 C188 116,190 106,340 79" stroke="#ee7694" fill="none"/><path d="M21 60 C184 105,184 42,327 134" stroke="#bee546" fill="none"/><path d="M12 40 C164 135,166 107,328 17" stroke="#e84e9b" fill="none"/><path d="M14 130 C179 127,183 93,337 100" stroke="#9379e0" fill="none"/><path d="M3 5 C189 97,158 15,329 93" stroke="#e4cf90" fill="none"/><path d="M9 28 C177 35,169 40,340 111" stroke="#e4c66c" fill="none"/><path d="M9 123 C182 59,191 33,339 20" stroke="#ec5fc9" fill="none"/><path d="M6 58 C174 73,191 70,341 21" stroke="#5dbad9" fill="none"/><path d="M7 90 C162 100,158 74,338 88" stroke="#8bbae8" fill="none"/><path d="M6 111 C181 110,168 13,324 95" stroke="#e86daa" fill="none"/><path d="M10 32 C161 8,185 21,336 134" stroke="#e15578" fill="none"/><path d="M21 136 C165 121,176 89,328 42" stroke="#9fef84" fill="none"/><path d="M18 44 C169 6,151 123,334 44" stroke="#da4dda" fill="none"/><path d="M6 103 C167 34,189 75,332 15" stroke="#41e641" fill="none"/><path d="M14 136 C189 31,178 65,326 130" stroke="#5adcdc" fill="none"/><path d="M18 42 C152 131,189 67,324 36" stroke="#70df70" fill="none"/><path d="M7 81 C190 32,179 122,340 67" stroke="#e476ad" fill="none"/><path d="M12 86 C181 17,162 64,332 100" stroke="#a3e88c" fill="none"/><path d="M4 44 C158 119,173 20,330 79" stroke="#e6c974" fill="none"/><path d="M20 37 C192 32,167 134,328 44" stroke="#e060a0" fill="none"/><path fill="#dcdc60" d="M64.47 67.55L64.54 67.62L64.51 67.59Q59.46 67.46 56.66 65.82L56.65 65.81L56.80 65.96Q60.56 63.76 68.04 57.27L68.04 57.27L68.17 57.39Q69.26 57.09 71.25 56.15L71.11 56.01L71.11 56.01Q69.21 65.28 69.04 75.04L68.92 74.92L68.87 74.88Q68.73 84.68 70.37 94.03L70.46 94.12L70.38 94.04Q67.82 92.94 64.54 92.76L64.62 92.84L64.52 92.74Q64.48 86.50 64.48 80.25L64.36 80.12L64.40 80.17Q64.50 73.95 64.56 67.64ZM63.86 70.98L63.82 93.33L63.92 93.43Q65.70 93.34 67.16 93.63L67.15 93.61L67.17 93.63Q67.39 94.79 67.68 96.89L67.58 96.80L67.68 96.90Q71.99 97.64 75.73 101.09L75.67 101.03L75.68 101.04Q71.91 90.14 71.85 78.68L71.80 78.62L71.89 78.72Q71.82 67.30 74.63 56.19L74.49 56.06L74.58 56.14Q73.76 56.79 71.30 58.48L71.24 58.42L71.23 58.41Q71.60 57.31 72.06 54.97L71.96 54.88L72.06 54.97Q69.94 56.06 67.72 56.65L67.70 56.64L67.83 56.76Q61.97 62.19 55.37 65.70L55.47 65.80L55.36 65.69Q57.61 67.48 61.24 68.00L61.16 67.93L61.10 67.87Q60.17 68.75 58.18 70.38L58.23 70.43L58.29 70.50Q60.58 71.08 63.97 71.08L63.81 70.92Z"/><path d="M5 18 C164 85,175 104,321 108" stroke="#e278c7" fill="none"/><path d="M1 6 C188 39,167 96,339 48" stroke="#51d6d6" fill="none"/><path d="M15 64 C159 93,174 41,327 45" stroke="#9072e8" fill="none"/><path d="M17 9 C183 39,152 41,332 47" stroke="#b833e4" fill="none"/><path d="M13 108 C166 11,172 110,330 2" stroke="#77ea51" fill="none"/><path d="M14 132 C154 1,181 7,323 90" stroke="#d2468c" fill="none"/><path d="M21 139 C188 102,189 45,337 125" stroke="#53d473" fill="none"/><path d="M16 135 C151 21,176 108,332 118" stroke="#dda063" fill="none"/><path d="M8 18 C153 74,159 63,336 44" stroke="#8663ec" fill="none"/><path d="M16 40 C187 50,152 68,339 91" stroke="#df6b6b" fill="none"/><path fill="#7b58e3" d="M199.37 76.27L199.48 76.38L199.47 76.37Q196.64 76.18 194.74 78.37L194.77 78.39L194.63 78.25Q192.84 80.56 192.55 83.48L192.50 83.43L192.45 83.39Q192.19 86.63 193.86 88.12L193.91 88.17L193.91 88.18Q195.41 89.51 198.63 89.33L198.77 89.47L198.61 89.31Q202.02 89.27 203.72 88.22L203.69 88.19L203.55 88.05Q205.38 86.44 205.38 84.04L205.45 84.11L205.47 84.12Q205.44 83.52 205.33 82.93L205.18 82.79L205.22 82.82Q205.42 80.34 203.72 78.26L203.62 78.15L203.65 78.18Q202.06 76.22 199.49 76.39ZM198.74 93.35L198.73 93.35L198.77 93.39Q192.14 93.48 189.98 92.31L189.91 92.24L189.88 92.21Q188.31 91.05 188.02 88.42L188.00 88.40L188.01 88.42Q187.91 87.32 187.97 86.21L188.10 86.35L187.95 86.19Q188.18 84.72 188.18 84.02L188.11 83.96L188.23 84.08Q188.80 79.56 189.03 78.51L189.07 78.55L189.19 78.66Q189.75 75.54 191.04 73.38L191.07 73.41L191.11 73.45Q195.18 66.70 204.30 56.94L204.35 56.99L204.39 57.03Q208.42 56.50 211.81 55.28L211.76 55.23L211.89 55.36Q201.28 66.72 196.37 73.21L196.43 73.28L196.33 73.17Q197.82 72.39 199.81 72.39L199.95 72.53L199.94 72.51Q204.91 72.40 207.25 75.39L207.38 75.51L207.33 75.46Q209.27 77.87 209.80 83.31L209.93 83.44L209.78 83.30Q210.03 84.54 210.03 85.47L210.07 85.51L209.93 85.37Q209.99 90.22 206.60 91.86L206.57 91.83L206.58 91.85Q204.64 92.71 198.67 93.29ZM202.33 97.12L202.32 97.12L202.34 97.13Q204.27 97.02 207.31 97.14L207.26 97.08L207.32 97.14Q209.85 97.28 212.25 96.17L212.22 96.14L212.24 96.15Q213.97 94.96 213.97 92.22L213.90 92.15L213.98 92.22Q213.81 91.30 213.55 89.78L213.67 89.90L213.65 89.88Q213.34 88.31 213.34 87.61L213.30 87.58L213.45 87.73Q211.96 80.33 209.50 77.40L209.64 77.54L209.63 77.53Q209.44 77.28 209.21 76.93L209.23 76.96L208.86 76.70L208.71 76.61L208.62 76.52Q208.10 75.76 207.16 74.30L207.18 74.32L207.16 74.30Q205.69 72.77 202.65 72.07L202.78 72.20L202.75 72.17Q204.54 69.64 209.10 63.97L209.12 63.98L215.71 55.96L215.59 55.83Q213.36 57.35 209.68 58.52L209.63 58.47L209.50 58.34Q210.92 56.84 213.67 53.80L213.68 53.81L213.79 53.92Q210.04 55.49 204.07 56.37L204.13 56.42L204.09 56.38Q195.28 65.40 190.72 73.00L190.72 73.00L190.73 73.02Q188.51 76.99 187.63 86.57L187.56 86.50L187.49 86.43Q187.47 87.41 187.59 88.87L187.61 88.89L187.63 88.91Q187.75 91.61 189.45 93.01L189.30 92.86L189.32 92.88Q190.01 93.22 189.95 93.28L189.91 93.24L189.88 93.21Q190.51 94.66 191.74 95.30L191.79 95.35L191.65 95.22Q194.00 96.39 196.98 96.68L196.84 96.54L196.95 96.65Q196.90 96.60 202.28 97.07ZM201.98 79.88L201.84 79.74L201.93 79.83Q202.89 79.74 204.35 80.50L204.17 80.31L204.31 80.46Q204.77 81.84 204.77 82.84L204.74 82.81L204.88 82.96Q205.06 85.71 203.60 87.23L203.63 87.25L203.55 87.18Q202.05 88.42 198.83 88.89L198.78 88.84L198.85 88.91Q196.60 88.88 195.78 88.47L195.79 88.48L195.72 88.40Q195.40 87.68 195.40 87.21L195.52 87.33L195.41 87.22Q195.11 82.25 199.62 80.26L199.61 80.25L199.58 80.23Q200.81 79.76 201.98 79.88Z"/><path fill="#d6f088" d="M273.42 73.35L273.38 73.31L273.42 73.35Q274.67 73.37 276.83 73.14L276.88 73.19L276.75 73.05Q276.79 74.15 276.79 75.14L276.68 75.03L276.83 77.11L276.73 77.01Q275.53 77.09 274.24 77.21L274.24 77.21L274.26 77.23Q272.83 77.14 271.54 77.08L271.50 77.05L271.57 77.12Q267.20 86.60 261.94 93.67L261.97 93.70L262.04 93.77Q258.08 94.67 256.10 95.61L256.10 95.61L256.04 95.55Q262.37 86.80 267.05 77.15L267.17 77.27L263.14 77.28L263.03 77.17Q263.07 75.16 262.89 73.11L262.96 73.18L262.81 73.03Q265.87 73.39 269.02 73.39L268.93 73.30L271.92 67.70L271.82 67.60Q273.41 64.74 275.28 62.29L275.18 62.19L275.32 62.33Q272.88 62.52 270.43 62.52L270.39 62.48L270.49 62.59Q261.01 62.45 255.22 59.06L255.22 59.07L254.24 56.45L254.19 56.40Q253.73 55.18 253.15 53.84L253.11 53.80L253.27 53.95Q259.93 57.98 268.70 58.33L268.67 58.31L268.68 58.32Q276.55 58.65 284.44 55.61L284.42 55.58L284.30 55.46Q284.18 56.28 283.42 57.63L283.42 57.62L283.40 57.61Q277.79 64.86 273.40 73.33ZM285.71 59.56L285.88 59.73L287.34 56.57L287.24 56.47Q285.88 57.33 283.30 58.44L283.38 58.52L283.59 57.97L283.54 57.92Q283.79 57.77 283.97 57.59L283.94 57.56L283.84 57.46Q284.46 56.44 285.57 54.40L285.67 54.50L285.70 54.52Q277.50 58.02 268.67 57.67L268.64 57.64L268.54 57.53Q259.39 57.21 252.08 52.65L252.12 52.69L252.12 52.70Q253.58 55.43 254.86 59.53L254.91 59.58L254.90 59.57Q256.67 60.64 257.90 61.11L257.86 61.07L257.76 60.96Q258.10 61.59 258.80 64.46L258.81 64.47L258.88 64.54Q263.58 66.31 272.05 66.08L272.10 66.12L272.19 66.21Q271.61 66.97 268.56 72.76L268.53 72.73L268.70 72.89Q265.55 72.90 262.51 72.61L262.49 72.59L262.44 72.55Q262.53 73.81 262.53 75.15L262.51 75.13L262.45 77.70L265.13 77.81L265.09 79.92L265.01 79.84Q259.18 91.38 254.91 96.87L254.79 96.76L254.82 96.78Q257.32 95.66 259.83 94.90L259.74 94.81L259.86 94.92Q258.64 96.16 256.53 98.79L256.53 98.79L256.68 98.94Q261.43 97.14 265.17 96.78L265.20 96.82L265.20 96.82Q269.73 91.06 274.52 80.65L274.53 80.65L279.68 80.84L279.84 81.00Q279.57 79.44 279.57 78.04L279.76 78.22L279.70 75.42L279.71 75.43Q279.20 75.33 278.36 75.39L278.50 75.54L278.31 75.35Q277.53 75.48 277.12 75.48L277.05 75.40L277.16 75.51Q277.07 75.25 277.13 75.01L277.22 75.10L277.26 74.73L277.14 74.61Q281.13 66.85 285.86 59.72Z"/></svg>