<svg xmlns="http://www.w3.org/2000/svg" width="342" height="140" viewBox="0,0,342,140"><path d="M4 57 C158 92,188 132,326 6" stroke="#58e3c0" fill="none"/><path d="M2 102 C167 9,184 85,330 122" stroke="#e14be1" fill="none"/><path d="M17 44 C158 39,162 78,323 80" stroke="#ea84b7" fill="none"/><path d="M4 76 C157 93,154 15,324 96" stroke="#77afe8" fill="none"/><path d="M14 68 C177 41,158 20,329 80" stroke="#8aa3ee" fill="none"/><path d="M10 52 C181 80,152 73,324 31" stroke="#d641b1" fill="none"/><path d="M2 79 C174 8,180 137,331 106" stroke="#dfdf57" fill="none"/><path d="M12 117 C184 39,152 71,335 5" stroke="#70eaea" fill="none"/><path d="M15 135 C188 136,162 65,334 131" stroke="#75e051" fill="none"/><path d="M6 113 C181 29,170 113,329 125" stroke="#e93e93" fill="none"/><path d="M12 5 C171 100,154 57,339 5" stroke="#964ae2" fill="none"/><path d="M3 39 C182 89,184 29,327 69" stroke="#eba188" fill="none"/><path d="M7 45 C157 115,171 106,339 13" stroke="#d48ced" fill="none"/><path d="M15 8 C178 116,153 72,338 53" stroke="#e976cc" fill="none"/><path d="M2 58 C178 55,150 112,332 126" stroke="#ef70cf" fill="none"/><path d="M4 41 C166 130,162 122,332 71" stroke="#7e5ede" fill="none"/><path d="M11 110 C154 12,174 38,324 31" stroke="#82ec5f" fill="none"/><path d="M10 64 C179 37,155 126,325 81" stroke="#e45c5c" fill="none"/><path d="M18 104 C178 16,174 86,327 26" stroke="#e2e259" fill="none"/><path d="M16 82 C192 28,168 114,326 17" stroke="#d5b34d" fill="none"/><path d="M6 55 C153 114,166 15,328 126" stroke="#addf7a" fill="none"/><path fill="#dd408e" d="M171.37 73.32L171.46 73.41L171.38 73.33Q172.76 73.47 174.95 73.23L174.87 73.15L174.90 73.19Q174.88 74.23 174.88 75.24L174.84 75.20L174.73 77.04L174.74 77.05Q173.51 77.12 172.21 77.24L172.17 77.19L172.19 77.22Q170.95 77.33 169.65 77.28L169.65 77.28L169.66 77.29Q165.17 86.82 159.85 93.97L159.76 93.89L159.89 94.02Q155.96 95.00 153.95 95.94L153.93 95.92L153.93 95.93Q160.40 87.13 165.13 77.37L165.12 77.36L161.02 77.34L161.04 77.36Q160.91 75.16 160.73 73.09L160.73 73.09L160.86 73.22Q163.70 73.34 166.90 73.34L166.84 73.28L169.97 67.72L169.87 67.63Q171.34 64.60 173.23 62.11L173.21 62.10L173.36 62.24Q170.84 62.38 168.35 62.38L168.49 62.51L168.32 62.35Q158.98 62.47 153.13 59.04L153.14 59.05L152.07 56.33L152.00 56.26Q151.65 55.14 151.06 53.78L151.00 53.72L150.86 53.58Q157.67 57.73 166.54 58.08L166.66 58.20L166.51 58.05Q174.52 58.43 182.50 55.35L182.44 55.29L182.54 55.39Q182.34 56.14 181.57 57.50L181.51 57.43L181.50 57.43Q175.85 64.79 171.41 73.37ZM183.98 59.56L183.95 59.52L185.51 56.41L185.55 56.45Q183.93 57.08 181.33 58.20L181.42 58.30L181.66 57.76L181.78 57.89Q181.81 57.51 181.99 57.33L182.08 57.42L182.15 57.48Q182.66 56.34 183.78 54.27L183.70 54.19L183.85 54.34Q175.44 57.76 166.51 57.40L166.55 57.44L166.51 57.40Q157.32 57.15 149.93 52.53L149.92 52.52L149.83 52.44Q151.38 55.28 152.68 59.42L152.80 59.54L152.69 59.43Q154.50 60.53 155.74 61.00L155.62 60.89L155.66 60.92Q155.84 61.39 156.54 64.29L156.62 64.37L156.56 64.30Q161.60 66.39 170.17 66.15L170.16 66.13L170.20 66.18Q169.74 67.08 166.66 72.93L166.64 72.91L166.51 72.78Q163.28 72.74 160.20 72.44L160.30 72.55L160.29 72.53Q160.32 73.75 160.32 75.11L160.41 75.20L160.42 77.87L163.00 77.84L163.05 80.08L162.95 79.99Q156.93 91.53 152.62 97.09L152.63 97.11L152.62 97.10Q155.07 95.88 157.61 95.11L157.58 95.08L157.70 95.20Q156.48 96.46 154.35 99.12L154.42 99.19L154.49 99.26Q159.42 97.57 163.21 97.22L163.05 97.05L163.07 97.08Q167.79 91.39 172.64 80.86L172.49 80.71L177.82 81.01L177.80 81.00Q177.84 79.73 177.84 78.31L177.72 78.20L177.72 75.42L177.76 75.45Q177.24 75.35 176.38 75.41L176.51 75.54L176.57 75.59Q175.66 75.60 175.25 75.60L175.24 75.59L175.16 75.51Q175.12 75.30 175.18 75.06L175.29 75.17L175.32 74.78L175.24 74.70Q179.17 66.75 183.96 59.54Z"/><path fill="#78e778" d="M53.19 67.62L53.17 67.60L53.01 67.44Q48.17 67.56 45.33 65.91L45.32 65.90L45.28 65.86Q49.26 63.81 56.83 57.24L56.67 57.08L56.69 57.10Q57.90 56.89 59.91 55.95L59.91 55.95L59.80 55.83Q57.87 65.20 57.70 75.08L57.66 75.05L57.60 74.98Q57.45 84.89 59.10 94.35L59.03 94.28L59.03 94.28Q56.42 93.14 53.11 92.97L53.30 93.16L53.30 93.16Q53.08 86.67 53.08 80.35L53.10 80.37L52.94 80.20Q53.01 73.89 53.07 67.50ZM52.50 71.01L52.47 93.63L52.42 93.59Q54.31 93.58 55.79 93.87L55.87 93.96L55.89 93.97Q56.00 95.03 56.29 97.16L56.33 97.20L56.28 97.15Q60.64 97.90 64.43 101.39L64.50 101.46L64.46 101.42Q60.56 90.31 60.50 78.72L60.53 78.75L60.55 78.77Q60.45 67.18 63.29 55.95L63.42 56.08L63.25 55.91Q62.46 56.60 59.98 58.32L60.09 58.43L60.01 58.35Q60.27 57.13 60.74 54.77L60.71 54.73L60.68 54.70Q58.72 56.00 56.47 56.59L56.44 56.55L56.47 56.59Q50.66 62.19 43.98 65.74L43.87 65.63L43.93 65.69Q46.07 67.36 49.74 67.89L49.71 67.86L49.68 67.83Q48.68 68.67 46.67 70.32L46.76 70.41L46.78 70.43Q49.09 71.02 52.52 71.02L52.57 71.08Z"/><path d="M6 97 C186 42,160 3,331 12" stroke="#c5e665" fill="none"/><path d="M8 121 C153 75,181 136,322 42" stroke="#ebeb79" fill="none"/><path d="M10 62 C156 7,179 72,340 124" stroke="#40e2e2" fill="none"/><path d="M8 94 C163 12,181 132,335 131" stroke="#b34cd6" fill="none"/><path fill="#84eb9d" d="M108.80 61.57L108.82 61.58L106.46 61.83L106.44 61.81Q102.99 62.02 102.63 65.15L102.68 65.21L102.57 65.09Q102.48 66.25 102.54 67.78L102.47 67.72L102.55 67.79Q102.70 70.90 104.65 72.97L104.63 72.94L104.50 72.82Q106.60 75.04 109.56 74.80L109.58 74.82L109.54 74.79Q112.65 74.47 113.84 73.05L113.85 73.06L113.78 72.99Q115.59 71.72 116.00 68.23L116.00 68.23L116.02 68.26Q116.28 64.61 114.33 63.30L114.31 63.29L114.50 63.47Q113.04 62.14 108.90 61.66ZM118.28 76.01L118.39 76.12L116.34 79.64L116.22 79.51Q112.05 86.99 106.20 93.32L106.14 93.27L106.17 93.29Q103.78 93.69 99.58 94.93L99.51 94.85L99.40 94.75Q107.73 85.04 112.64 77.59L112.59 77.53L112.67 77.62Q110.99 78.54 108.44 78.66L108.46 78.67L108.47 78.68Q103.93 79.05 101.56 75.97L101.52 75.93L101.47 75.88Q99.66 73.48 97.94 66.38L97.99 66.42L97.96 66.39Q97.86 65.59 97.62 64.14L97.63 64.14L97.71 64.23Q97.34 62.64 97.34 61.93L97.37 61.96L97.47 62.06Q97.32 59.14 98.98 58.19L99.08 58.29L98.99 58.20Q100.88 57.02 103.78 57.02L103.79 57.02L103.86 57.10Q108.78 57.05 108.78 57.05L108.79 57.05L108.85 57.12Q112.20 57.16 114.16 57.46L114.22 57.52L114.08 57.38Q117.54 57.95 118.96 58.72L118.86 58.61L118.92 58.67Q120.95 59.75 121.24 62.47L121.28 62.51L121.33 62.56Q121.24 62.82 120.94 66.96L121.01 67.04L121.06 67.08Q120.40 70.33 120.05 71.63L119.98 71.56L120.16 71.74Q119.53 73.89 118.34 76.07ZM121.24 79.74L121.25 79.75L121.19 79.69Q122.76 76.29 123.59 69.61L123.66 69.68L123.60 69.62Q124.05 66.23 123.99 64.87L124.06 64.93L124.01 64.88Q123.98 62.02 122.15 60.60L122.02 60.47L121.55 60.29L121.63 60.38Q121.14 59.12 119.72 58.11L119.72 58.11L119.79 58.18Q116.22 56.62 108.77 56.39L108.86 56.48L108.72 56.33Q107.37 56.46 103.58 56.46L103.61 56.49L103.52 56.40Q100.71 56.32 98.41 57.38L98.47 57.44L98.51 57.48Q96.74 58.73 96.86 61.57L96.74 61.45L96.93 61.64Q97.22 63.06 97.52 66.19L97.51 66.18L97.45 66.12Q98.46 70.27 98.87 71.57L98.82 71.51L98.81 71.50Q99.57 74.28 101.05 76.29L101.10 76.34L101.09 76.33Q101.50 76.85 102.09 77.44L102.23 77.59L102.19 77.54Q102.55 78.21 103.56 79.63L103.51 79.57L103.62 79.69Q105.85 81.74 108.87 82.04L108.98 82.15L108.84 82.01Q105.92 86.19 103.50 89.15L103.51 89.16L97.91 95.98L97.81 95.87Q101.35 94.74 103.89 94.21L103.97 94.29L104.00 94.31Q102.66 95.52 100.23 98.18L100.38 98.33L100.34 98.29Q105.17 96.91 110.02 96.85L109.93 96.76L109.91 96.74Q113.66 92.86 120.41 81.63L120.24 81.46L120.38 81.72L120.23 81.57Q120.80 80.61 121.34 79.84ZM111.94 65.42L111.85 65.32L111.98 65.46Q112.95 65.30 113.66 65.47L113.58 65.40L113.64 65.46Q114.55 65.54 115.14 65.71L115.17 65.75L115.17 65.74Q115.31 66.30 115.43 66.95L115.45 66.97L115.37 66.90Q115.54 67.59 115.36 68.18L115.31 68.13L115.36 68.18Q115.29 70.84 113.46 72.55L113.56 72.65L113.43 72.52Q111.98 74.15 109.44 74.09L109.48 74.13L109.54 74.19Q108.82 74.13 106.46 73.65L106.47 73.66L106.50 73.70Q106.15 72.34 106.15 71.21L106.09 71.15L106.20 71.27Q105.94 70.70 105.94 70.35L105.92 70.33L106.05 70.46Q106.09 67.07 109.64 65.83L109.49 65.68L109.60 65.80Q110.54 65.31 111.84 65.31Z"/><path d="M21 20 C151 72,191 102,328 24" stroke="#4d4de4" fill="none"/><path d="M7 49 C153 15,186 58,336 100" stroke="#bd39e9" fill="none"/><path d="M15 28 C163 116,188 135,327 99" stroke="#da6767" fill="none"/><path d="M18 64 C166 94,189 54,322 20" stroke="#e3bf53" fill="none"/><path d="M20 63 C167 33,154 23,330 91" stroke="#eca48c" fill="none"/><path d="M8 43 C181 29,153 31,333 72" stroke="#e8d18b" fill="none"/><path d="M15 25 C177 14,176 117,327 131" stroke="#db4691" fill="none"/><path fill="#8ce236" d="M273.73 93.87L273.60 93.74L273.74 93.88Q271.47 93.92 269.04 93.27L269.16 93.39L269.11 93.33Q267.19 91.89 266.95 89.34L267.02 89.41L266.88 89.27Q266.91 89.06 267.20 84.98L267.19 84.97L267.15 84.93Q268.86 84.74 271.99 84.15L272.01 84.17L271.67 85.31L271.67 85.30Q271.20 87.97 273.39 88.86L273.49 88.96L273.41 88.88Q274.56 89.32 277.81 89.32L277.81 89.31L277.94 89.44Q280.37 89.15 280.66 89.04L280.64 89.01L280.74 89.11Q281.99 88.71 283.12 87.94L283.19 88.01L283.28 88.10Q285.44 86.59 285.14 83.34L285.14 83.34L285.13 83.33Q284.88 79.59 282.19 77.16L282.11 77.09L282.04 77.02Q279.43 74.67 275.59 74.67L275.53 74.62L275.53 74.26L275.52 74.25Q276.14 74.22 277.50 74.11L277.53 74.13L277.56 74.16Q280.44 73.91 282.57 71.99L282.61 72.03L282.52 71.94Q284.69 70.05 284.93 67.16L284.99 67.22L284.98 67.21Q285.02 66.60 285.02 66.07L285.19 66.24L285.03 66.08Q285.07 63.75 282.94 62.33L282.93 62.32L282.88 62.27Q281.06 61.10 278.57 61.28L278.53 61.24L278.54 61.24Q276.51 60.99 274.62 61.64L274.70 61.72L274.75 61.77Q272.54 62.63 272.06 64.41L271.90 64.25L271.92 64.26Q271.74 65.56 271.86 66.74L271.73 66.62L271.71 66.60Q270.21 66.33 267.01 65.21L267.04 65.24L266.93 65.13Q266.69 62.65 266.75 61.34L266.76 61.36L266.70 61.29Q266.93 58.98 268.59 57.91L268.61 57.94L268.59 57.92Q270.77 56.97 273.26 56.97L273.24 56.95L273.23 56.94Q278.08 56.82 282.98 57.23L283.06 57.30L283.01 57.26Q290.90 57.94 290.43 63.79L290.37 63.73L290.47 63.83Q290.23 66.01 289.46 68.44L289.58 68.56L289.45 68.43Q288.12 73.31 284.46 74.73L284.37 74.65L284.42 74.69Q288.52 75.54 289.46 80.74L289.53 80.81L289.42 80.70Q289.91 82.61 290.02 85.74L289.99 85.71L289.90 85.62Q290.13 92.53 282.98 93.24L283.09 93.35L283.03 93.29Q281.96 93.46 273.74 93.88ZM281.84 97.37L281.81 97.34L281.82 97.34Q282.81 97.45 287.24 97.57L287.14 97.47L287.20 97.52Q289.90 97.62 292.44 96.61L292.43 96.60L292.49 96.66Q294.23 95.09 293.93 92.37L293.92 92.36L293.99 92.43Q293.89 90.43 293.41 87.71L293.27 87.56L293.27 87.56Q292.20 80.64 289.18 78.10L289.20 78.11L288.97 77.59L288.88 77.44L288.85 77.41Q291.59 75.18 292.77 68.38L292.75 68.36L292.69 68.29Q292.90 67.73 293.07 66.25L293.04 66.23L293.02 66.20Q293.00 64.88 292.88 63.82L292.91 63.85L292.99 63.93Q292.76 61.32 290.74 60.26L290.72 60.24L290.62 60.26L290.66 60.29Q290.17 58.74 288.40 57.91L288.28 57.80L288.36 57.87Q286.06 56.87 278.07 56.40L278.10 56.43L277.92 56.25Q275.49 56.30 273.00 56.30L272.99 56.29L272.86 56.15Q270.54 56.32 268.17 57.32L268.03 57.18L268.13 57.28Q266.19 58.42 266.19 61.14L266.25 61.20L266.22 61.17Q266.15 60.44 266.56 65.65L266.52 65.61L266.54 65.62Q267.07 65.80 269.61 66.75L269.63 66.76L269.69 66.83Q269.70 67.67 269.65 68.44L269.46 68.25L269.53 68.32Q269.58 69.14 269.64 69.97L269.65 69.98L269.62 69.95Q272.46 70.61 275.60 70.78L275.60 70.78L275.58 70.76Q275.47 67.64 277.18 66.34L277.07 66.22L277.09 66.24Q278.42 65.26 281.56 64.91L281.47 64.83L281.52 64.88Q283.35 64.93 284.24 65.23L284.20 65.19L284.16 65.15Q284.19 65.30 284.25 65.48L284.29 65.51L284.40 65.92L284.54 66.77L284.44 66.67Q284.49 67.02 284.43 67.26L284.40 67.22L284.52 67.34Q284.38 69.99 282.02 71.82L282.02 71.82L281.94 71.74Q280.50 73.14 277.36 73.44L277.36 73.43L277.50 73.57Q276.22 73.65 274.86 73.65L274.87 73.66L275.00 73.79Q275.07 74.33 275.31 75.40L275.25 75.34L275.33 75.42Q277.91 75.28 280.16 76.40L280.29 76.54L280.07 76.50L277.51 76.65L277.61 76.75Q277.70 77.32 277.88 78.27L277.75 78.14L277.88 78.27Q281.16 78.12 283.83 80.19L283.80 80.17L283.86 80.22Q284.19 80.80 284.67 83.34L284.61 83.28L284.67 83.34Q284.84 87.77 280.29 88.42L280.39 88.53L280.47 88.61Q277.14 88.95 276.26 88.89L276.14 88.77L276.15 88.78Q275.52 88.68 274.69 88.56L274.78 88.65L274.61 87.77L274.94 87.22L274.88 86.51L275.00 86.10L275.08 86.17Q273.60 86.29 272.35 86.58L272.32 86.55L272.19 86.42Q272.17 86.10 272.17 85.81L272.23 85.86L272.13 85.77Q272.32 85.60 272.32 85.24L272.31 85.24L272.27 85.19Q272.33 84.55 272.57 83.42L272.48 83.33L272.64 83.49Q269.62 83.73 266.72 84.26L266.72 84.26L266.69 84.22Q266.86 85.17 266.68 86.91L266.63 86.86L266.64 86.87Q266.43 88.59 266.43 89.53L266.32 89.42L266.48 89.58Q266.58 92.76 268.71 93.94L268.65 93.88L268.61 93.84Q270.92 97.39 278.25 97.09L278.36 97.21L278.33 97.17Q279.39 97.05 281.76 97.28Z"/><path d="M20 31 C178 14,167 132,325 67" stroke="#7ce958" fill="none"/><path d="M13 12 C168 43,191 83,341 90" stroke="#85ef85" fill="none"/><path fill="#eb8d8d" d="M217.11 93.92L217.09 93.90L217.07 93.88Q214.75 93.87 212.33 93.22L212.44 93.33L212.33 93.22Q210.59 91.96 210.36 89.41L210.31 89.37L210.33 89.38Q210.15 88.97 210.44 84.89L210.57 85.01L210.58 85.02Q212.11 84.66 215.24 84.06L215.18 84.00L214.90 85.21L215.05 85.35Q214.49 87.92 216.67 88.81L216.66 88.79L216.73 88.86Q217.88 89.31 221.13 89.31L221.26 89.44L221.30 89.48Q223.68 89.13 223.98 89.01L223.96 89.00L223.99 89.03Q225.33 88.71 226.45 87.94L226.65 88.14L226.53 88.02Q228.77 86.59 228.47 83.34L228.38 83.25L228.37 83.24Q228.22 79.60 225.53 77.17L225.53 77.17L225.37 77.01Q222.68 74.59 218.84 74.59L218.95 74.70L218.97 74.37L218.87 74.27Q219.44 74.19 220.80 74.07L220.94 74.21L220.79 74.06Q223.81 73.95 225.94 72.03L225.86 71.95L225.95 72.04Q228.19 70.22 228.42 67.32L228.31 67.21L228.23 67.13Q228.42 66.66 228.42 66.13L228.46 66.17L228.38 66.09Q228.35 63.70 226.22 62.28L226.29 62.35L226.38 62.44Q224.48 61.19 222.00 61.37L221.96 61.33L221.88 61.25Q219.91 61.06 218.02 61.71L218.05 61.73L217.99 61.68Q215.83 62.59 215.36 64.37L215.22 64.23L215.23 64.25Q214.97 65.46 215.08 66.64L215.07 66.62L215.17 66.73Q213.57 66.37 210.38 65.24L210.35 65.21L210.30 65.17Q209.91 62.52 209.96 61.22L210.01 61.27L210.04 61.30Q210.15 58.87 211.81 57.80L211.94 57.94L211.95 57.95Q213.98 56.84 216.46 56.84L216.53 56.91L216.55 56.93Q221.48 56.89 226.39 57.31L226.30 57.21L226.37 57.28Q234.16 57.85 233.68 63.71L233.82 63.85L233.84 63.86Q233.66 66.11 232.90 68.54L232.86 68.51L232.95 68.59Q231.51 73.36 227.84 74.78L227.89 74.83L227.83 74.77Q231.88 75.57 232.83 80.77L232.78 80.72L232.77 80.72Q233.24 82.60 233.35 85.74L233.37 85.76L233.35 85.74Q233.47 92.54 226.31 93.25L226.42 93.35L226.35 93.28Q225.34 93.51 217.12 93.92ZM225.13 97.33L225.08 97.27L225.16 97.36Q226.12 97.43 230.56 97.55L230.54 97.53L230.50 97.49Q233.30 97.69 235.85 96.69L235.78 96.62L235.73 96.57Q237.67 95.19 237.37 92.47L237.24 92.35L237.25 92.35Q237.05 90.26 236.58 87.54L236.70 87.66L236.76 87.72Q235.59 80.69 232.57 78.15L232.48 78.06L232.30 77.58L232.11 77.34L232.26 77.49Q234.79 75.05 235.98 68.25L236.07 68.34L236.13 68.41Q236.19 67.70 236.37 66.22L236.26 66.11L236.39 66.24Q236.37 64.92 236.25 63.85L236.33 63.93L236.41 64.01Q235.97 61.21 233.96 60.14L234.08 60.26L233.85 60.15L233.92 60.22Q233.43 58.67 231.66 57.84L231.76 57.94L231.63 57.81Q229.33 56.81 221.35 56.34L221.31 56.31L221.35 56.34Q218.75 56.23 216.27 56.23L216.17 56.13L216.23 56.19Q213.76 56.20 211.39 57.21L211.34 57.16L211.43 57.24Q209.60 58.49 209.60 61.21L209.47 61.08L209.54 61.15Q209.50 60.46 209.92 65.67L209.91 65.66L209.85 65.60Q210.47 65.87 213.01 66.81L212.91 66.72L212.95 66.75Q212.99 67.61 212.93 68.38L212.92 68.37L212.85 68.31Q212.92 69.15 212.98 69.98L212.95 69.94L212.86 69.86Q215.75 70.56 218.89 70.74L218.93 70.78L218.90 70.75Q218.69 67.52 220.40 66.22L220.48 66.30L220.40 66.22Q221.83 65.35 224.97 64.99L224.94 64.96L224.98 65.00Q226.58 64.82 227.46 65.12L227.59 65.24L227.58 65.24Q227.71 65.48 227.77 65.66L227.76 65.65L227.66 65.85L227.79 66.68L227.91 66.81Q227.80 67.00 227.74 67.23L227.71 67.19L227.79 67.28Q227.71 69.98 225.35 71.82L225.35 71.81L225.29 71.76Q223.97 73.28 220.84 73.57L220.66 73.40L220.85 73.59Q219.69 73.79 218.33 73.79L218.21 73.67L218.19 73.65Q218.36 74.29 218.59 75.35L218.62 75.37L218.57 75.33Q221.36 75.40 223.61 76.52L223.52 76.43L223.34 76.43L220.91 76.72L221.03 76.84Q220.99 77.28 221.17 78.22L221.10 78.16L221.25 78.31Q224.42 78.04 227.08 80.11L227.08 80.11L227.04 80.08Q227.58 80.85 228.06 83.39L228.05 83.39L228.04 83.38Q228.29 87.89 223.73 88.54L223.63 88.43L223.68 88.48Q220.54 89.01 219.66 88.96L219.64 88.94L219.54 88.84Q218.86 88.69 218.03 88.57L218.10 88.64L218.08 87.91L218.19 87.13L218.27 86.56L218.34 86.09L218.34 86.10Q216.80 86.15 215.56 86.45L215.56 86.45L215.68 86.58Q215.55 86.15 215.55 85.85L215.47 85.77L215.58 85.88Q215.60 85.55 215.60 85.19L215.56 85.15L215.53 85.12Q215.61 84.50 215.85 83.37L215.87 83.40L215.91 83.44Q212.98 83.76 210.08 84.29L210.07 84.27L210.10 84.30Q210.05 85.03 209.88 86.77L209.88 86.77L209.85 86.75Q209.68 88.50 209.68 89.45L209.69 89.46L209.76 89.52Q209.83 92.67 211.96 93.85L212.00 93.89L212.05 93.95Q214.25 97.38 221.58 97.09L221.63 97.13L221.59 97.10Q222.68 97.00 225.04 97.24Z"/><path d="M20 64 C156 23,191 113,326 90" stroke="#9a7feb" fill="none"/><path d="M8 24 C165 35,185 57,330 26" stroke="#e5cc7f" fill="none"/><path d="M2 34 C170 22,153 14,331 67" stroke="#71dec3" fill="none"/><path d="M10 88 C191 96,191 90,325 94" stroke="#e46b6b" fill="none"/><path d="M17 8 C158 29,184 99,334 111" stroke="#e862c7" fill="none"/><path d="M9 37 C160 77,173 51,332 12" stroke="#e985d0" fill="none"/></svg>