<svg xmlns="http://www.w3.org/2000/svg" width="342" height="140" viewBox="0,0,342,140"><path d="M2 99 C165 15,165 135,322 31" stroke="#6b6bdb" fill="none"/><path d="M5 44 C168 124,158 4,339 14" stroke="#95eb79" fill="none"/><path d="M11 56 C162 39,190 27,331 44" stroke="#57df79" fill="none"/><path d="M12 79 C180 13,188 109,331 136" stroke="#a48fe4" fill="none"/><path d="M3 98 C152 123,183 107,322 135" stroke="#bbe53c" fill="none"/><path d="M17 23 C180 27,189 36,323 86" stroke="#79e0ad" fill="none"/><path d="M3 112 C162 124,187 1,321 117" stroke="#7bb5ee" fill="none"/><path d="M14 118 C182 7,172 81,331 41" stroke="#7e9bf0" fill="none"/><path d="M9 100 C170 135,170 23,326 12" stroke="#d1e88b" fill="none"/><path d="M10 87 C160 79,174 30,326 28" stroke="#92d1e7" fill="none"/><path d="M8 97 C171 99,169 40,331 20" stroke="#e74496" fill="none"/><path d="M9 4 C192 36,189 78,336 38" stroke="#e7c254" fill="none"/><path d="M20 41 C190 30,154 15,331 39" stroke="#42e542" fill="none"/><path d="M20 39 C179 58,180 101,338 115" stroke="#5959d8" fill="none"/><path d="M18 128 C182 120,163 69,329 21" stroke="#f0f088" fill="none"/><path fill="#d64c6e" d="M164.81 77.24L164.68 77.11L164.68 77.10Q161.48 76.90 159.31 79.40L159.40 79.48L159.39 79.48Q157.30 82.05 156.97 85.38L156.86 85.27L156.83 85.24Q156.53 88.94 158.43 90.64L158.41 90.62L158.32 90.54Q160.23 92.24 163.90 92.04L163.94 92.08L163.95 92.10Q167.61 91.83 169.54 90.63L169.59 90.68L169.64 90.73Q171.51 88.67 171.51 85.93L171.51 85.93L171.47 85.89Q171.59 85.34 171.45 84.68L171.39 84.61L171.37 84.60Q171.50 81.66 169.57 79.30L169.57 79.29L169.63 79.36Q167.63 76.92 164.69 77.12ZM164.12 96.73L164.09 96.71L164.02 96.63Q156.31 96.59 153.85 95.25L153.92 95.32L154.01 95.41Q152.05 93.92 151.71 90.92L151.82 91.03L151.78 90.98Q151.75 89.83 151.82 88.56L151.87 88.61L151.87 88.61Q151.93 86.74 151.93 85.94L151.89 85.90L152.04 86.06Q152.82 81.03 153.08 79.83L153.04 79.79L153.02 79.77Q153.82 76.37 155.28 73.90L155.40 74.02L155.39 74.01Q159.91 66.21 170.30 55.08L170.43 55.21L170.42 55.19Q174.96 54.54 178.83 53.14L178.87 53.19L178.96 53.28Q166.82 66.19 161.23 73.58L161.31 73.66L161.32 73.68Q163.03 72.79 165.30 72.79L165.25 72.75L165.33 72.83Q171.15 72.85 173.81 76.25L173.79 76.22L173.74 76.18Q176.05 79.01 176.65 85.21L176.67 85.23L176.69 85.25Q176.85 86.54 176.85 87.61L176.88 87.64L176.87 87.62Q176.86 93.08 172.99 94.94L172.95 94.90L172.94 94.89Q170.74 95.89 163.94 96.55ZM167.94 100.75L168.08 100.89L168.06 100.87Q170.33 100.81 173.80 100.94L173.71 100.85L173.80 100.95Q176.54 100.96 179.28 99.70L179.41 99.83L179.34 99.76Q181.28 98.37 181.28 95.24L181.28 95.24L181.29 95.24Q181.28 94.37 180.98 92.64L181.01 92.67L180.95 92.60Q180.66 90.88 180.66 90.08L180.62 90.05L180.63 90.06Q179.25 81.95 176.45 78.62L176.36 78.52L176.42 78.59Q176.26 78.36 176.00 77.96L175.89 77.85L175.39 77.49L175.28 77.45L175.35 77.51Q174.75 76.65 173.68 74.98L173.60 74.90L173.68 74.97Q172.09 73.33 168.63 72.53L168.49 72.39L168.49 72.39Q170.73 69.70 175.93 63.24L175.88 63.19L183.20 53.86L183.24 53.89Q180.64 55.56 176.44 56.89L176.38 56.83L176.27 56.72Q177.96 55.07 181.09 51.61L181.05 51.57L181.04 51.56Q176.94 53.53 170.15 54.52L170.07 54.45L170.19 54.57Q160.08 64.78 154.89 73.44L154.97 73.52L154.85 73.41Q152.31 77.93 151.31 88.85L151.29 88.83L151.34 88.88Q151.20 89.88 151.34 91.54L151.19 91.40L151.15 91.36Q151.35 94.49 153.28 96.08L153.36 96.16L153.33 96.14Q153.98 96.38 153.91 96.45L154.00 96.54L153.83 96.36Q154.68 98.15 156.07 98.88L156.03 98.83L156.05 98.85Q158.59 100.06 161.99 100.40L161.95 100.36L161.81 100.22Q161.83 100.24 167.96 100.77ZM167.60 81.16L167.63 81.19L167.69 81.25Q168.61 80.97 170.28 81.84L170.22 81.78L170.31 81.87Q170.87 83.49 170.87 84.63L170.89 84.64L170.86 84.62Q171.21 87.90 169.55 89.64L169.53 89.62L169.51 89.59Q167.63 90.85 163.97 91.38L164.11 91.52L164.00 91.41Q161.41 91.36 160.48 90.89L160.61 91.02L160.63 91.05Q160.23 90.18 160.23 89.64L160.18 89.60L160.16 89.57Q159.82 83.90 164.95 81.64L164.91 81.60L164.96 81.65Q166.34 81.10 167.67 81.23Z"/><path d="M3 21 C180 26,192 26,327 34" stroke="#77e8e8" fill="none"/><path d="M17 102 C157 34,169 57,326 43" stroke="#4dda70" fill="none"/><path fill="#e792d1" d="M65.49 92.65L65.35 92.51L65.41 92.57Q65.92 94.27 66.85 97.80L66.95 97.90L66.93 97.89Q59.44 95.45 51.37 95.92L51.45 95.99L51.36 95.91Q43.48 96.49 36.49 99.96L36.36 99.83L36.36 99.83Q36.77 98.64 36.84 98.77L36.86 98.79L36.88 98.82Q43.39 91.87 50.25 84.14L50.38 84.27L50.28 84.17Q58.04 75.47 60.10 67.27L60.14 67.31L60.10 67.27Q60.81 64.12 58.58 62.05L58.61 62.08L58.73 62.21Q56.44 60.08 53.31 60.35L53.34 60.38L53.24 60.28Q52.76 60.33 52.16 60.33L52.14 60.31L52.14 60.31Q49.34 60.18 47.14 61.78L47.25 61.88L47.30 61.93Q44.98 64.28 45.38 68.94L45.30 68.86L45.40 68.96Q42.20 68.29 40.07 67.49L40.05 67.47L40.09 67.51Q39.84 65.13 39.71 62.60L39.66 62.55L39.60 62.50Q39.54 59.70 40.61 57.71L40.55 57.64L40.55 57.65Q43.65 55.21 49.51 55.21L49.57 55.28L52.56 55.20L52.62 55.26Q56.60 55.31 58.26 55.51L58.23 55.48L58.35 55.60Q65.83 56.21 66.30 60.48L66.37 60.55L66.33 60.51Q66.46 61.51 66.33 62.91L66.33 62.91L66.31 62.89Q66.21 63.98 65.94 65.18L65.99 65.23L66.08 65.32Q63.10 79.40 49.84 91.39L49.85 91.40L49.93 91.47Q52.28 91.09 54.68 91.09L54.81 91.23L54.77 91.19Q60.52 91.28 65.52 92.67ZM64.42 56.13L64.46 56.17L64.44 56.16Q61.55 54.93 58.55 54.80L58.55 54.80L52.55 54.45L52.68 54.58Q44.87 54.11 41.01 56.04L41.03 56.07L40.98 56.01Q39.09 58.38 39.09 61.98L39.07 61.97L39.19 62.09Q39.18 63.27 39.71 68.20L39.75 68.24L39.78 68.27Q40.59 68.54 42.65 69.08L42.66 69.09L42.80 71.02L42.80 71.02Q42.73 71.82 42.86 72.75L42.69 72.57L42.80 72.69Q45.01 72.90 49.34 73.30L49.33 73.29L49.23 73.19Q49.25 72.61 49.25 72.01L49.19 71.95L49.23 71.99Q49.17 68.73 51.30 66.36L51.28 66.34L51.35 66.41Q53.42 63.99 56.55 64.19L56.62 64.25L56.71 64.35Q58.03 64.40 59.36 64.66L59.25 64.56L59.37 64.68Q59.53 65.30 59.67 66.04L59.61 65.98L59.63 66.00Q59.77 66.80 59.63 67.40L59.60 67.37L59.59 67.36Q57.41 75.71 49.68 84.17L49.63 84.11L49.69 84.18Q45.89 88.04 36.37 98.63L36.47 98.74L36.43 98.69Q36.02 100.08 35.42 101.08L35.46 101.13L35.51 101.18Q38.15 99.49 40.82 98.55L40.95 98.68L40.91 98.65Q39.72 99.72 38.05 102.32L37.92 102.18L37.97 102.23Q37.86 102.93 37.66 103.53L37.64 103.50L37.58 103.44Q46.12 99.86 55.72 100.20L55.72 100.20L55.68 100.16Q65.53 100.35 73.53 104.48L73.56 104.51L71.92 100.88L71.91 100.87Q70.76 98.51 70.29 97.11L70.31 97.13L70.25 97.07Q69.11 96.47 66.98 95.74L66.84 95.59L66.91 95.66Q66.67 94.43 66.01 92.03L66.04 92.07L65.99 92.01Q62.06 90.95 58.06 90.61L58.20 90.75L58.02 90.57Q66.21 82.57 68.88 68.12L68.88 68.12L69.21 63.06L69.27 63.12Q69.08 59.93 66.95 58.73L67.02 58.80L66.98 58.83L67.02 58.87Q66.82 58.61 66.69 58.61L66.73 58.64L66.73 58.64Q66.33 57.18 64.39 56.11Z"/><path d="M10 17 C166 73,188 98,341 64" stroke="#da6262" fill="none"/><path d="M3 136 C171 91,183 38,332 44" stroke="#e4ba90" fill="none"/><path d="M9 13 C179 54,185 7,325 62" stroke="#7f9bf0" fill="none"/><path d="M14 16 C159 119,183 125,327 128" stroke="#c15ee2" fill="none"/><path d="M7 38 C158 25,161 125,335 50" stroke="#8de470" fill="none"/><path fill="#9b81e8" d="M278.11 77.20L278.04 77.14L278.15 77.25Q274.90 76.99 272.74 79.49L272.81 79.57L272.80 79.55Q270.52 81.94 270.19 85.27L270.34 85.42L270.21 85.29Q269.78 88.86 271.68 90.56L271.67 90.55L271.76 90.63Q273.55 92.23 277.21 92.03L277.30 92.12L277.29 92.11Q280.99 91.87 282.92 90.67L282.94 90.69L282.87 90.62Q284.80 88.63 284.80 85.89L284.98 86.07L284.95 86.04Q284.88 85.30 284.75 84.64L284.72 84.61L284.72 84.61Q284.81 81.64 282.88 79.27L283.02 79.41L282.87 79.26Q281.13 77.09 278.20 77.29ZM277.32 96.60L277.43 96.71L277.45 96.72Q269.79 96.72 267.32 95.39L267.23 95.31L267.22 95.29Q265.53 94.07 265.20 91.07L265.15 91.02L265.15 91.03Q265.11 89.85 265.17 88.58L265.11 88.52L265.07 88.48Q265.30 86.77 265.30 85.97L265.36 86.04L265.36 86.04Q266.05 80.93 266.32 79.73L266.35 79.77L266.34 79.76Q267.22 76.44 268.68 73.97L268.56 73.85L268.68 73.97Q273.30 66.26 283.69 55.14L283.60 55.05L283.67 55.11Q288.40 54.65 292.27 53.25L292.13 53.12L292.26 53.24Q280.29 66.32 274.69 73.72L274.62 73.65L274.60 73.63Q276.30 72.72 278.56 72.72L278.71 72.87L278.57 72.73Q284.38 72.74 287.04 76.14L287.15 76.25L287.15 76.25Q289.39 79.02 289.99 85.21L289.98 85.21L290.07 85.30Q290.10 86.46 290.10 87.53L290.16 87.58L290.26 87.69Q290.23 93.12 286.37 94.98L286.32 94.94L286.33 94.94Q284.25 96.06 277.45 96.73ZM281.45 100.93L281.30 100.78L281.32 100.79Q283.54 100.69 287.00 100.82L287.16 100.98L287.09 100.90Q290.01 101.10 292.74 99.83L292.71 99.79L292.70 99.78Q294.66 98.41 294.66 95.28L294.59 95.21L294.72 95.35Q294.62 94.38 294.32 92.64L294.40 92.73L294.34 92.66Q294.04 90.93 294.04 90.13L294.09 90.19L294.11 90.20Q292.52 81.88 289.72 78.55L289.72 78.55L289.76 78.59Q289.60 78.37 289.33 77.97L289.38 78.01L288.81 77.58L288.59 77.42L288.58 77.41Q288.13 76.69 287.06 75.03L286.91 74.88L286.91 74.87Q285.29 73.19 281.83 72.39L281.98 72.55L281.96 72.53Q284.11 69.75 289.31 63.28L289.25 63.23L296.60 53.91L296.69 54.01Q293.89 55.47 289.69 56.81L289.69 56.80L289.67 56.78Q291.28 55.06 294.41 51.60L294.51 51.70L294.35 51.53Q290.27 53.52 283.47 54.52L283.51 54.56L283.36 54.41Q273.50 64.87 268.31 73.53L268.26 73.48L268.19 73.41Q265.52 77.81 264.52 88.73L264.60 88.81L264.58 88.79Q264.43 89.77 264.56 91.43L264.54 91.41L264.49 91.36Q264.72 94.53 266.65 96.13L266.63 96.10L266.66 96.13Q267.35 96.42 267.28 96.49L267.24 96.44L267.29 96.49Q267.91 98.05 269.31 98.78L269.31 98.78L269.22 98.69Q271.75 99.89 275.15 100.22L275.29 100.37L275.34 100.41Q275.23 100.30 281.36 100.83ZM280.94 81.16L281.02 81.25L280.99 81.21Q281.91 80.94 283.58 81.80L283.71 81.94L283.70 81.93Q284.18 83.47 284.18 84.60L284.17 84.60L284.24 84.66Q284.60 87.95 282.93 89.68L282.82 89.58L282.83 89.58Q281.11 90.99 277.44 91.52L277.39 91.47L277.37 91.45Q274.80 91.41 273.86 90.94L273.84 90.92L273.89 90.97Q273.49 90.10 273.49 89.57L273.63 89.71L273.50 89.58Q273.21 83.96 278.34 81.69L278.33 81.69L278.26 81.62Q279.65 81.07 280.98 81.20Z"/><path d="M2 68 C159 48,159 16,327 23" stroke="#dd8568" fill="none"/><path d="M6 51 C183 17,191 46,330 102" stroke="#ea5bc7" fill="none"/><path fill="#a287f1" d="M221.43 77.19L221.37 77.13L221.40 77.16Q218.16 76.91 215.99 79.41L216.07 79.49L215.99 79.40Q213.84 81.93 213.51 85.26L213.63 85.37L213.57 85.32Q213.24 88.99 215.14 90.69L215.09 90.64L215.15 90.70Q217.00 92.35 220.67 92.15L220.54 92.02L220.61 92.09Q224.40 91.95 226.33 90.75L226.27 90.69L226.18 90.60Q228.23 88.72 228.23 85.99L228.15 85.91L228.18 85.93Q228.16 85.25 228.02 84.58L228.13 84.69L228.02 84.57Q228.33 81.82 226.40 79.46L226.33 79.39L226.35 79.41Q224.27 76.90 221.34 77.10ZM220.75 96.69L220.69 96.63L220.66 96.60Q213.04 96.64 210.57 95.31L210.60 95.34L210.66 95.40Q208.87 94.07 208.54 91.08L208.53 91.07L208.41 90.95Q208.46 89.87 208.53 88.60L208.50 88.57L208.52 88.59Q208.60 86.74 208.60 85.95L208.69 86.03L208.69 86.03Q209.37 80.92 209.64 79.72L209.64 79.72L209.76 79.85Q210.50 76.38 211.96 73.92L211.93 73.89L211.90 73.85Q216.56 66.19 226.95 55.06L226.99 55.10L226.95 55.06Q231.63 54.54 235.49 53.14L235.63 53.28L235.51 53.16Q223.51 66.21 217.91 73.60L217.89 73.59L217.96 73.65Q219.72 72.81 221.99 72.81L222.06 72.89L221.90 72.73Q227.79 72.82 230.45 76.22L230.47 76.24L230.47 76.24Q232.67 78.97 233.27 85.17L233.40 85.29L233.40 85.29Q233.55 86.58 233.55 87.64L233.46 87.56L233.54 87.64Q233.43 92.99 229.57 94.85L229.73 95.01L229.71 94.99Q227.48 95.96 220.68 96.63ZM224.72 100.86L224.68 100.83L224.66 100.81Q227.06 100.87 230.53 101.01L230.39 100.87L230.47 100.95Q233.32 101.07 236.05 99.80L235.96 99.71L236.05 99.80Q237.96 98.38 237.96 95.25L237.91 95.20L237.91 95.20Q237.88 94.31 237.59 92.58L237.66 92.65L237.64 92.63Q237.44 91.00 237.44 90.20L237.33 90.09L237.43 90.19Q235.83 81.86 233.03 78.53L233.13 78.63L233.11 78.60Q232.99 78.42 232.72 78.02L232.66 77.96L232.14 77.57L232.05 77.55L232.02 77.52Q231.38 76.61 230.31 74.94L230.35 74.98L230.22 74.85Q228.79 73.35 225.32 72.55L225.28 72.51L225.31 72.54Q227.40 69.70 232.60 63.24L232.59 63.23L240.05 54.04L239.90 53.89Q237.13 55.38 232.93 56.71L233.11 56.89L233.02 56.80Q234.58 55.03 237.71 51.56L237.74 51.59L237.85 51.70Q233.63 53.54 226.83 54.54L226.84 54.55L226.73 54.44Q216.82 64.85 211.62 73.51L211.52 73.40L211.63 73.52Q208.89 77.84 207.89 88.76L207.91 88.79L207.99 88.87Q207.69 89.70 207.82 91.36L207.90 91.44L207.94 91.48Q208.08 94.55 210.01 96.15L209.99 96.13L210.07 96.21Q210.71 96.45 210.65 96.52L210.65 96.52L210.58 96.45Q211.29 98.09 212.68 98.82L212.65 98.78L212.67 98.80Q215.17 99.97 218.56 100.30L218.55 100.30L218.59 100.33Q218.52 100.26 224.65 100.79ZM224.29 81.18L224.25 81.14L224.39 81.28Q225.30 80.99 226.96 81.85L227.06 81.95L226.92 81.81Q227.53 83.49 227.53 84.62L227.48 84.57L227.67 84.76Q227.97 88.00 226.31 89.73L226.28 89.70L226.16 89.58Q224.38 90.93 220.72 91.46L220.73 91.48L220.71 91.46Q218.11 91.38 217.17 90.92L217.21 90.96L217.18 90.92Q216.92 90.20 216.92 89.66L216.95 89.70L216.99 89.74Q216.48 83.89 221.61 81.63L221.55 81.57L221.68 81.71Q222.91 81.00 224.24 81.13Z"/><path d="M4 47 C151 33,180 77,328 74" stroke="#ed68cc" fill="none"/><path d="M3 123 C187 34,169 61,329 99" stroke="#8080ee" fill="none"/><path d="M12 59 C176 112,167 46,336 138" stroke="#e8c762" fill="none"/><path d="M15 104 C176 25,182 28,340 122" stroke="#90e674" fill="none"/><path d="M17 126 C168 110,169 88,327 62" stroke="#6c46db" fill="none"/><path d="M11 59 C165 91,168 43,323 136" stroke="#dd597a" fill="none"/><path d="M18 54 C186 80,185 31,339 122" stroke="#6b45dd" fill="none"/><path d="M11 119 C156 110,177 30,321 67" stroke="#40dd8e" fill="none"/><path d="M8 56 C178 136,189 139,329 135" stroke="#61c0df" fill="none"/><path d="M16 87 C165 90,190 52,324 30" stroke="#78cbe7" fill="none"/><path d="M5 52 C159 134,181 67,336 84" stroke="#92e7d1" fill="none"/><path d="M2 107 C154 129,189 39,339 72" stroke="#75cdea" fill="none"/><path d="M14 19 C173 26,183 110,325 99" stroke="#da67da" fill="none"/><path d="M20 17 C169 120,171 100,334 104" stroke="#a360e6" fill="none"/><path d="M21 80 C180 49,168 137,325 13" stroke="#e88686" fill="none"/><path fill="#56eb56" d="M103.54 90.75L103.59 90.80L103.65 90.87Q105.69 92.50 108.15 92.24L108.03 92.11L108.07 92.15Q113.18 92.46 114.31 86.60L114.45 86.74L114.30 86.59Q115.37 81.06 115.37 75.13L115.41 75.18L115.36 70.60L115.35 70.58Q115.44 68.48 114.84 66.28L114.75 66.19L114.75 66.19Q112.61 70.24 109.14 78.57L109.25 78.68L109.23 78.66Q105.69 86.91 103.56 90.77ZM112.34 61.91L112.52 62.09L112.48 62.05Q110.52 60.69 108.18 60.69L108.17 60.68L108.01 60.52Q105.42 60.26 103.49 61.86L103.61 61.97L103.57 61.93Q101.65 63.55 101.32 66.14L101.37 66.20L101.27 66.10Q100.74 68.56 100.67 71.16L100.73 71.22L100.60 71.09Q100.59 71.08 100.59 76.08L100.64 76.12L100.60 76.09Q100.68 80.30 101.48 86.63L101.38 86.53L101.36 86.51Q104.85 78.34 112.51 62.09ZM115.25 95.00L115.10 94.85L115.16 94.91Q112.13 96.54 108.06 96.54L108.08 96.56L105.09 96.43L105.10 96.45Q99.59 96.60 97.59 93.60L97.61 93.61L97.51 93.52Q96.13 89.74 95.99 84.61L95.89 84.50L96.07 84.68Q95.88 81.50 95.75 75.43L95.73 75.42L95.85 75.53Q95.81 73.42 95.54 68.09L95.39 67.95L95.40 67.96Q95.25 63.95 95.79 60.48L95.79 60.49L95.78 60.48Q96.81 55.50 104.40 55.10L104.36 55.07L104.39 55.10Q105.73 55.03 108.06 55.10L107.93 54.97L108.00 55.04Q117.89 55.27 119.75 61.33L119.76 61.34L119.75 61.33Q120.92 64.76 120.85 68.02L120.69 67.87L120.72 67.90Q120.58 76.61 120.44 78.74L120.49 78.79L120.58 78.88Q120.14 85.44 119.61 87.70L119.71 87.80L119.64 87.74Q118.60 93.28 115.26 95.02ZM123.83 94.53L123.87 94.57L123.78 94.47Q124.26 89.69 124.20 86.56L124.12 86.48L124.12 78.55L123.97 78.40Q123.86 73.16 122.92 63.50L123.00 63.58L122.92 63.50Q122.07 60.38 119.80 59.05L119.79 59.03L119.68 58.93Q117.13 54.64 108.07 54.38L107.91 54.21L107.92 54.23Q106.43 54.20 104.09 54.27L104.20 54.37L104.12 54.29Q96.13 54.37 95.27 59.83L95.37 59.93L95.34 59.90Q94.71 64.00 94.91 67.67L94.83 67.59L94.94 67.70Q95.49 75.31 95.42 81.17L95.41 81.15L95.40 81.15Q95.36 87.64 95.56 89.44L95.61 89.49L95.56 89.44Q96.28 94.88 98.94 96.28L98.93 96.27L98.87 96.21Q101.46 100.07 108.46 100.53L108.53 100.60L108.45 100.52Q114.77 100.98 115.90 100.92L115.91 100.92L115.89 100.90Q120.89 100.65 122.89 97.85L122.88 97.83L122.93 97.88Q123.64 96.53 123.78 94.47ZM108.79 91.54L108.75 91.50L108.83 91.58Q109.88 88.89 111.74 84.16L111.82 84.25L114.90 76.93L114.90 76.93Q114.84 79.80 114.17 85.66L114.08 85.57L114.14 85.63Q112.88 90.57 108.68 91.43ZM105.30 70.00L105.26 69.96L105.29 69.99Q106.11 66.87 107.31 65.88L107.34 65.91L107.32 65.88Q108.10 65.14 110.37 64.80L110.34 64.78L110.36 64.79Q107.28 71.11 104.02 79.24L104.15 79.37L104.02 79.24Q104.02 74.51 105.22 69.91Z"/><path d="M11 7 C155 36,157 45,329 137" stroke="#b64fd8" fill="none"/></svg>