<svg xmlns="http://www.w3.org/2000/svg" width="342" height="140" viewBox="0,0,342,140"><path d="M18 4 C178 135,177 74,334 129" stroke="#96da52" fill="none"/><path d="M7 96 C178 48,157 31,329 126" stroke="#ebb57e" fill="none"/><path d="M2 131 C188 30,190 139,332 111" stroke="#83e19b" fill="none"/><path d="M19 36 C186 117,150 126,329 75" stroke="#d5b248" fill="none"/><path d="M19 19 C182 73,174 46,339 48" stroke="#82e561" fill="none"/><path fill="#81b7ed" d="M76.63 92.17L76.65 92.20L76.50 92.04Q77.09 93.80 78.00 97.26L78.11 97.37L78.00 97.27Q70.70 94.92 62.81 95.38L62.83 95.41L62.85 95.42Q55.08 95.94 48.22 99.33L48.17 99.28L48.21 99.32Q48.54 98.08 48.60 98.21L48.72 98.33L48.70 98.31Q55.14 91.56 61.86 83.99L61.77 83.90L61.70 83.83Q69.27 75.28 71.29 67.26L71.44 67.40L71.35 67.31Q72.05 64.23 69.87 62.21L70.04 62.38L69.98 62.32Q67.72 60.22 64.65 60.48L64.61 60.44L64.73 60.56Q64.14 60.49 63.55 60.49L63.53 60.48L63.53 60.47Q61.01 60.56 58.86 62.13L58.73 62.00L58.85 62.12Q56.57 64.41 56.96 68.98L56.99 69.01L56.96 68.97Q53.97 68.47 51.88 67.68L51.83 67.64L51.78 67.58Q51.45 65.17 51.32 62.69L51.28 62.64L51.28 62.64Q51.26 59.95 52.30 57.99L52.29 57.97L52.25 57.93Q55.24 55.51 60.98 55.51L61.13 55.66L64.00 55.52L64.10 55.62Q67.89 55.57 69.52 55.76L69.70 55.93L69.67 55.91Q76.97 56.49 77.43 60.67L77.53 60.76L77.41 60.65Q77.58 61.67 77.45 63.04L77.47 63.06L77.57 63.16Q77.38 64.14 77.11 65.31L77.15 65.35L77.18 65.38Q74.31 79.21 61.32 90.96L61.37 91.00L61.32 90.96Q63.76 90.73 66.11 90.73L66.15 90.76L66.08 90.70Q71.71 90.78 76.61 92.15ZM75.60 56.42L75.53 56.35L75.68 56.50Q72.88 55.33 69.94 55.20L69.86 55.12L64.02 54.83L63.96 54.77Q56.34 54.33 52.56 56.22L52.56 56.22L52.69 56.35Q50.84 58.68 50.84 62.20L50.84 62.20L50.82 62.18Q50.79 63.33 51.32 68.16L51.46 68.31L51.37 68.21Q52.27 68.59 54.29 69.12L54.37 69.20L54.30 70.88L54.30 70.89Q54.32 71.76 54.46 72.67L54.44 72.65L54.31 72.53Q56.48 72.74 60.72 73.13L60.80 73.21L60.88 73.29Q60.69 72.52 60.69 71.93L60.76 72.00L60.71 71.95Q60.80 68.90 62.88 66.58L62.88 66.57L62.85 66.55Q64.85 64.14 67.92 64.34L68.03 64.45L68.01 64.43Q69.17 64.35 70.48 64.62L70.48 64.62L70.54 64.68Q70.80 65.39 70.93 66.11L70.98 66.16L70.91 66.09Q70.89 66.73 70.76 67.31L70.90 67.45L70.77 67.32Q68.69 75.55 61.12 83.84L61.10 83.82L61.21 83.93Q57.48 87.71 48.15 98.08L48.09 98.03L48.16 98.10Q47.87 99.56 47.28 100.54L47.13 100.40L47.21 100.48Q49.93 98.95 52.54 98.03L52.49 97.99L52.48 97.98Q51.34 99.06 49.71 101.60L49.75 101.64L49.68 101.57Q49.58 102.25 49.38 102.84L49.30 102.76L49.37 102.83Q57.62 99.20 67.02 99.53L67.09 99.60L67.09 99.60Q76.86 99.91 84.69 103.95L84.52 103.78L82.87 100.18L82.89 100.19Q81.81 97.94 81.36 96.57L81.44 96.65L81.34 96.56Q80.08 95.82 77.99 95.10L77.99 95.10L77.93 95.04Q77.75 93.88 77.10 91.53L77.13 91.56L77.19 91.62Q73.40 90.64 69.48 90.31L69.41 90.24L69.37 90.20Q77.37 82.34 79.98 68.18L79.94 68.14L80.37 63.28L80.34 63.25Q80.22 60.19 78.13 59.02L78.09 58.97L78.13 59.08L78.08 59.03Q78.11 59.00 77.98 59.00L77.95 58.96L77.81 58.82Q77.58 57.56 75.69 56.51Z"/><path d="M5 79 C163 136,161 103,333 23" stroke="#ef849f" fill="none"/><path d="M9 4 C190 29,187 88,332 41" stroke="#dd4f72" fill="none"/><path d="M6 43 C192 118,155 121,341 9" stroke="#6f4bdc" fill="none"/><path d="M8 121 C158 96,181 124,339 37" stroke="#97e87c" fill="none"/><path d="M7 53 C182 71,171 91,330 75" stroke="#7db2e7" fill="none"/><path d="M9 115 C189 20,152 64,322 61" stroke="#985ad7" fill="none"/><path d="M16 24 C151 11,173 118,339 138" stroke="#69dda3" fill="none"/><path d="M18 12 C150 112,165 47,341 73" stroke="#e48a8a" fill="none"/><path d="M2 105 C152 80,188 83,337 70" stroke="#d55796" fill="none"/><path d="M17 91 C159 32,169 53,324 67" stroke="#3e3ee9" fill="none"/><path d="M11 1 C158 61,171 131,338 128" stroke="#af72ed" fill="none"/><path d="M12 32 C173 56,184 107,325 40" stroke="#68dddd" fill="none"/><path d="M20 90 C175 42,167 107,339 122" stroke="#d288eb" fill="none"/><path d="M9 32 C160 23,168 55,337 46" stroke="#c4de77" fill="none"/><path d="M6 31 C175 73,169 96,331 102" stroke="#7c98ed" fill="none"/><path d="M13 62 C173 35,177 8,325 58" stroke="#df9143" fill="none"/><path d="M5 121 C181 89,170 55,338 46" stroke="#31e68c" fill="none"/><path fill="#68eded" d="M261.40 96.34L261.42 96.35L261.44 96.37Q258.87 96.36 256.20 95.64L256.35 95.79L256.25 95.70Q254.27 94.23 254.01 91.43L253.88 91.30L253.90 91.31Q253.95 91.10 254.27 86.60L254.16 86.48L254.08 86.41Q255.91 86.15 259.37 85.50L259.41 85.54L259.12 86.88L259.18 86.94Q258.60 89.81 261.01 90.79L261.02 90.81L261.09 90.87Q262.48 91.48 266.07 91.48L266.01 91.42L265.92 91.33Q268.73 91.13 269.05 91.00L269.16 91.11L269.12 91.07Q270.68 90.80 271.92 89.96L271.77 89.81L271.85 89.88Q274.35 88.34 274.02 84.75L273.94 84.66L274.00 84.73Q273.60 80.47 270.63 77.80L270.64 77.81L270.61 77.78Q267.70 75.17 263.46 75.17L263.42 75.13L263.47 74.78L263.42 74.73Q264.19 74.78 265.69 74.65L265.67 74.64L265.51 74.47Q268.84 74.34 271.19 72.22L271.21 72.24L271.13 72.16Q273.47 70.04 273.73 66.84L273.73 66.83L273.83 66.93Q274.05 66.44 274.05 65.85L273.95 65.75L273.97 65.77Q273.89 63.08 271.54 61.52L271.57 61.55L271.54 61.51Q269.53 60.22 266.78 60.41L266.73 60.35L266.69 60.31Q264.47 60.06 262.38 60.78L262.56 60.95L262.44 60.83Q260.03 61.82 259.51 63.77L259.43 63.69L259.49 63.76Q259.05 64.95 259.18 66.25L259.25 66.32L259.29 66.36Q257.60 66.04 254.07 64.80L253.94 64.67L253.96 64.68Q253.64 61.89 253.71 60.45L253.68 60.43L253.71 60.46Q253.82 57.76 255.65 56.59L255.75 56.68L255.68 56.61Q258.12 55.60 260.86 55.60L260.81 55.54L260.77 55.51Q266.20 55.45 271.61 55.91L271.59 55.89L271.62 55.92Q280.45 56.79 279.93 63.25L279.75 63.07L279.78 63.10Q279.63 65.62 278.78 68.30L278.75 68.27L278.92 68.43Q277.38 73.74 273.33 75.31L273.24 75.22L273.26 75.24Q277.78 76.17 278.82 81.91L278.79 81.88L278.85 81.94Q279.26 83.92 279.39 87.38L279.40 87.39L279.28 87.26Q279.47 94.83 271.58 95.62L271.66 95.70L271.65 95.69Q270.49 95.90 261.41 96.35ZM270.28 100.13L270.36 100.21L270.27 100.11Q271.35 100.22 276.24 100.35L276.26 100.37L276.18 100.29Q279.21 100.45 282.02 99.34L282.11 99.42L281.96 99.28Q283.98 97.64 283.65 94.64L283.68 94.67L283.78 94.77Q283.52 92.42 282.99 89.41L283.06 89.48L282.99 89.41Q281.76 81.72 278.43 78.91L278.55 79.03L278.04 78.19L278.06 78.15L277.97 78.06Q280.97 75.58 282.28 68.08L282.38 68.17L282.29 68.09Q282.49 67.43 282.68 65.80L282.72 65.84L282.73 65.85Q282.77 64.45 282.64 63.28L282.58 63.22L282.67 63.31Q282.39 60.42 280.17 59.24L280.20 59.27L279.97 59.17L280.01 59.21Q279.55 57.58 277.60 56.67L277.62 56.69L277.57 56.64Q274.89 55.40 266.08 54.88L266.07 54.87L266.05 54.85Q263.17 54.71 260.43 54.71L260.44 54.72L260.55 54.83Q257.69 54.71 255.08 55.82L255.16 55.90L255.18 55.92Q253.09 57.22 253.09 60.22L253.13 60.27L253.09 60.23Q253.03 59.44 253.48 65.19L253.50 65.21L253.52 65.22Q253.96 65.28 256.77 66.32L256.84 66.39L256.92 66.47Q256.82 67.29 256.76 68.14L256.77 68.15L256.80 68.18Q256.84 69.06 256.90 69.98L256.93 70.01L256.84 69.92Q259.86 70.52 263.32 70.72L263.42 70.82L263.45 70.84Q263.19 67.26 265.09 65.83L265.10 65.84L265.08 65.83Q266.52 64.71 269.97 64.32L270.02 64.36L270.08 64.42Q271.91 64.29 272.89 64.62L272.89 64.63L273.03 64.77Q273.04 64.91 273.11 65.11L273.13 65.13L273.09 65.41L273.29 66.40L273.40 66.51Q273.25 66.69 273.19 66.95L273.29 67.05L273.32 67.07Q273.18 70.01 270.57 72.03L270.52 71.98L270.45 71.91Q268.87 73.46 265.41 73.79L265.40 73.78L265.51 73.88Q264.17 74.05 262.67 74.05L262.70 74.08L262.69 74.07Q262.73 74.63 262.99 75.80L263.06 75.88L263.13 75.94Q266.01 75.82 268.49 77.06L268.47 77.04L268.30 77.07L265.66 77.43L265.68 77.45Q265.70 77.99 265.89 79.03L265.86 79.00L265.93 79.07Q269.63 78.99 272.57 81.27L272.62 81.32L272.44 81.14Q272.85 81.82 273.38 84.62L273.46 84.71L273.46 84.70Q273.82 89.77 268.80 90.49L268.67 90.36L268.66 90.35Q265.16 90.89 264.18 90.83L264.14 90.79L264.25 90.90Q263.39 90.62 262.47 90.49L262.44 90.46L262.56 89.80L262.62 88.88L262.64 88.18L262.75 87.70L262.72 87.68Q261.20 87.92 259.83 88.24L259.75 88.17L259.74 88.15Q259.77 87.85 259.77 87.52L259.72 87.48L259.72 87.48Q259.88 87.25 259.88 86.85L259.80 86.78L259.78 86.76Q259.94 86.14 260.20 84.90L260.17 84.86L260.16 84.85Q256.87 85.16 253.68 85.74L253.82 85.89L253.68 85.75Q253.72 86.63 253.52 88.56L253.47 88.51L253.52 88.56Q253.29 90.45 253.29 91.49L253.26 91.46L253.25 91.45Q253.46 95.05 255.81 96.36L255.80 96.36L255.87 96.42Q258.39 100.31 266.48 99.98L266.37 99.88L266.48 99.98Q267.62 99.82 270.23 100.08Z"/><path fill="#e34493" d="M132.09 67.30L131.98 67.19L132.12 67.33Q126.57 67.26 123.43 65.43L123.51 65.50L123.54 65.53Q127.81 63.15 136.16 55.90L136.18 55.92L136.03 55.77Q137.37 55.54 139.59 54.50L139.46 54.37L139.54 54.45Q137.27 64.65 137.07 75.55L137.06 75.53L137.11 75.59Q136.82 86.39 138.65 96.83L138.72 96.90L138.79 96.96Q135.92 95.73 132.27 95.54L132.18 95.45L132.18 95.45Q132.02 88.37 132.02 81.39L132.03 81.39L131.89 81.26Q131.89 74.21 131.95 67.16ZM131.49 71.20L131.40 96.11L131.31 96.01Q133.45 96.07 135.08 96.40L135.13 96.44L135.19 96.51Q135.30 97.66 135.63 100.01L135.54 99.92L135.59 99.96Q140.40 100.80 144.58 104.65L144.70 104.77L144.74 104.81Q140.42 92.53 140.35 79.74L140.39 79.77L140.37 79.76Q140.28 67.00 143.41 54.60L143.28 54.47L143.26 54.45Q142.48 55.30 139.74 57.20L139.62 57.08L139.76 57.22Q140.08 55.91 140.61 53.30L140.58 53.27L140.61 53.30Q138.32 54.61 135.84 55.26L135.82 55.23L135.70 55.11Q129.26 61.27 121.88 65.18L121.86 65.16L121.96 65.26Q124.42 67.20 128.47 67.79L128.40 67.72L128.49 67.81Q127.35 68.69 125.13 70.52L125.01 70.40L124.99 70.38Q127.58 71.07 131.36 71.07L131.39 71.10Z"/><path d="M11 3 C153 55,181 135,324 109" stroke="#3be6e6" fill="none"/><path fill="#f2bf8c" d="M194.46 90.38L194.53 90.46L194.60 90.53Q196.51 92.04 198.92 91.78L198.80 91.66L198.85 91.71Q203.90 92.05 205.01 86.31L204.94 86.24L204.94 86.24Q206.11 80.95 206.11 75.14L206.05 75.08L206.02 70.62L206.01 70.61Q206.00 68.44 205.41 66.29L205.51 66.38L205.52 66.40Q203.28 70.23 199.89 78.39L200.01 78.51L199.93 78.43Q196.50 86.55 194.41 90.33ZM203.07 62.12L203.16 62.21L203.05 62.10Q201.11 60.74 198.82 60.74L198.97 60.89L198.84 60.76Q196.28 60.48 194.39 62.05L194.53 62.20L194.53 62.19Q192.54 63.66 192.21 66.20L192.14 66.13L192.25 66.24Q191.68 68.62 191.62 71.16L191.61 71.16L191.49 71.03Q191.64 71.18 191.64 76.08L191.50 75.94L191.64 76.07Q191.53 80.01 192.31 86.21L192.35 86.25L192.39 86.29Q195.55 78.03 203.05 62.10ZM205.88 94.49L205.73 94.34L205.78 94.40Q202.85 96.03 198.87 96.03L198.84 96.00L196.02 95.99L195.96 95.93Q190.44 95.95 188.48 93.01L188.48 93.02L188.45 92.99Q187.13 89.32 187.00 84.30L187.01 84.31L187.08 84.37Q186.93 81.29 186.80 75.35L186.88 75.43L186.72 75.27Q186.69 73.22 186.43 68.00L186.55 68.11L186.55 68.12Q186.34 64.12 186.86 60.72L186.84 60.70L186.92 60.79Q187.66 55.65 195.10 55.26L195.15 55.31L195.11 55.27Q196.42 55.21 198.71 55.28L198.76 55.33L198.65 55.22Q208.56 55.67 210.39 61.61L210.26 61.48L210.25 61.47Q211.43 64.87 211.37 68.07L211.28 67.98L211.35 68.05Q211.07 76.45 210.94 78.54L211.07 78.67L210.97 78.57Q210.70 85.15 210.18 87.37L210.21 87.40L210.08 87.28Q208.99 92.64 205.73 94.34ZM214.25 93.99L214.33 94.06L214.37 94.11Q214.65 89.23 214.58 86.16L214.56 86.14L214.56 78.37L214.53 78.34Q214.29 73.07 213.37 63.61L213.47 63.71L213.47 63.71Q212.46 60.48 210.24 59.17L210.24 59.18L210.35 59.28Q207.64 54.87 198.76 54.61L198.66 54.52L198.74 54.59Q197.32 54.61 195.04 54.67L194.95 54.59L194.90 54.53Q187.11 54.64 186.26 59.99L186.42 60.15L186.39 60.12Q185.60 63.97 185.80 67.56L185.87 67.63L185.96 67.72Q186.47 75.14 186.40 80.89L186.43 80.92L186.42 80.91Q186.31 87.19 186.51 88.96L186.59 89.04L186.59 89.04Q187.14 94.22 189.75 95.59L189.85 95.69L189.83 95.67Q192.44 99.52 199.29 99.98L199.16 99.85L199.30 99.99Q205.42 100.36 206.53 100.29L206.46 100.23L206.45 100.22Q211.32 99.93 213.28 97.19L213.31 97.23L213.32 97.23Q214.13 96.02 214.26 94.00ZM199.61 91.16L199.60 91.15L199.50 91.05Q200.61 88.50 202.44 83.87L202.44 83.88L205.52 76.77L205.42 76.68Q205.31 79.44 204.66 85.18L204.67 85.19L204.75 85.27Q203.59 90.18 199.48 91.03ZM196.09 69.96L196.14 70.01L196.21 70.08Q196.98 67.00 198.16 66.02L198.11 65.97L198.05 65.91Q198.87 65.22 201.08 64.90L201.18 64.99L201.16 64.98Q198.24 71.26 195.04 79.22L194.88 79.05L194.89 79.06Q195.05 74.59 196.22 70.08Z"/><path d="M15 72 C185 37,164 101,326 107" stroke="#d5ef84" fill="none"/><path d="M14 97 C185 92,180 1,333 63" stroke="#96e27d" fill="none"/><path d="M15 34 C154 75,150 35,335 73" stroke="#ed7ced" fill="none"/><path d="M19 5 C151 23,184 129,332 63" stroke="#b950dc" fill="none"/><path d="M13 82 C155 13,162 122,332 118" stroke="#93e5d1" fill="none"/><path d="M2 104 C185 6,175 38,337 92" stroke="#ebcc6f" fill="none"/><path d="M15 48 C174 82,163 14,322 131" stroke="#e77954" fill="none"/><path d="M11 114 C172 109,189 42,330 16" stroke="#6ddd6d" fill="none"/><path d="M15 55 C172 119,162 75,322 38" stroke="#8fa7ef" fill="none"/><path d="M5 136 C172 65,191 97,337 34" stroke="#e5673c" fill="none"/><path d="M4 33 C171 55,152 14,324 9" stroke="#8ca1e3" fill="none"/><path d="M15 48 C191 41,154 34,335 39" stroke="#e84949" fill="none"/><path d="M7 132 C168 124,171 125,341 96" stroke="#97e7d3" fill="none"/><path d="M5 52 C173 114,152 84,336 87" stroke="#e55ba0" fill="none"/><path d="M10 94 C189 72,177 51,337 47" stroke="#673ee4" fill="none"/><path d="M4 36 C189 122,177 41,326 9" stroke="#72e64b" fill="none"/><path d="M13 108 C175 67,191 75,336 8" stroke="#bf4ce5" fill="none"/></svg>