<svg xmlns="http://www.w3.org/2000/svg" width="342" height="140" viewBox="0,0,342,140"><path d="M17 7 C159 102,179 27,324 6" stroke="#a288f1" fill="none"/><path d="M7 8 C169 68,155 116,339 106" stroke="#e79073" fill="none"/><path d="M13 65 C170 7,180 94,334 121" stroke="#6ec5e2" fill="none"/><path d="M17 37 C164 103,169 18,326 23" stroke="#ed7ced" fill="none"/><path d="M4 69 C188 52,184 7,326 82" stroke="#e2e24f" fill="none"/><path d="M7 86 C188 39,188 28,335 48" stroke="#6941e1" fill="none"/><path d="M10 63 C179 127,175 26,325 73" stroke="#9379e1" fill="none"/><path d="M15 81 C190 130,187 77,330 96" stroke="#da67a0" fill="none"/><path fill="#d4438c" d="M77.36 94.17L77.37 94.18L77.40 94.22Q77.98 96.08 78.98 99.86L78.94 99.82L78.96 99.84Q71.01 97.31 62.37 97.81L62.42 97.86L62.35 97.79Q53.89 98.40 46.39 102.11L46.31 102.03L46.25 101.97Q46.79 100.80 46.87 100.94L46.79 100.86L46.90 100.97Q53.75 93.41 61.10 85.13L61.26 85.29L61.09 85.11Q69.42 75.81 71.63 67.03L71.76 67.16L71.61 67.00Q72.49 63.75 70.10 61.54L70.10 61.54L70.21 61.64Q67.80 59.41 64.44 59.70L64.33 59.59L64.34 59.59Q63.76 59.59 63.12 59.59L63.14 59.61L63.09 59.56Q60.35 59.67 57.99 61.39L57.82 61.21L57.87 61.26Q55.50 63.89 55.93 68.89L55.94 68.89L55.95 68.91Q52.50 68.17 50.22 67.31L50.17 67.26L50.28 67.38Q49.91 64.73 49.77 62.01L49.67 61.91L49.78 62.02Q49.68 58.99 50.82 56.85L50.86 56.89L50.72 56.75Q54.08 54.19 60.36 54.19L60.46 54.28L63.72 54.26L63.76 54.30Q67.91 54.25 69.70 54.46L69.71 54.47L69.71 54.47Q77.92 55.32 78.41 59.89L78.29 59.77L78.29 59.77Q78.43 60.84 78.29 62.34L78.36 62.41L78.36 62.41Q78.36 63.69 78.07 64.98L78.09 65.00L78.00 64.91Q74.92 80.09 60.71 92.94L60.83 93.06L60.69 92.92Q63.44 92.74 66.01 92.74L65.92 92.66L66.05 92.78Q72.00 92.66 77.35 94.16ZM76.39 55.22L76.26 55.10L76.37 55.21Q73.39 54.01 70.18 53.87L70.11 53.80L63.62 53.38L63.75 53.51Q55.23 52.84 51.09 54.91L51.17 54.99L51.12 54.94Q49.12 57.51 49.12 61.36L49.22 61.46L49.23 61.47Q49.21 62.74 49.78 68.02L49.82 68.06L49.82 68.06Q50.79 68.46 53.00 69.03L53.07 69.09L53.09 71.04L53.00 70.95Q52.88 71.76 53.03 72.76L53.15 72.89L53.07 72.81Q55.44 73.03 60.08 73.46L60.16 73.54L60.09 73.47Q60.09 72.83 60.09 72.19L60.00 72.10L60.09 72.19Q59.96 68.63 62.24 66.10L62.41 66.27L62.40 66.25Q64.65 63.69 68.00 63.90L68.06 63.96L67.89 63.78Q69.35 63.89 70.78 64.18L70.74 64.14L70.77 64.17Q71.06 64.96 71.20 65.74L71.19 65.73L71.28 65.82Q71.25 66.51 71.11 67.15L71.17 67.21L71.20 67.24Q68.69 76.01 60.41 85.07L60.37 85.03L60.56 85.23Q56.55 89.42 46.34 100.77L46.30 100.72L46.35 100.78Q45.83 102.19 45.19 103.26L45.21 103.27L45.25 103.32Q48.26 101.69 51.12 100.69L51.10 100.67L51.22 100.79Q49.79 101.79 48.01 104.58L48.02 104.59L47.88 104.45Q47.79 105.21 47.57 105.85L47.58 105.86L47.63 105.91Q56.61 101.91 66.89 102.26L66.94 102.31L66.98 102.35Q77.54 102.56 86.10 106.98L86.20 107.08L84.36 103.10L84.28 103.01Q83.13 100.59 82.63 99.09L82.52 98.97L82.54 98.99Q81.31 98.33 79.02 97.55L78.88 97.40L78.97 97.50Q78.58 96.03 77.86 93.46L77.97 93.56L78.03 93.63Q73.76 92.43 69.48 92.07L69.46 92.06L69.45 92.04Q78.40 83.65 81.26 68.16L81.17 68.07L81.43 62.55L81.44 62.56Q81.29 59.19 79.00 57.91L79.16 58.07L78.95 57.93L79.11 58.09Q78.93 57.84 78.79 57.84L78.73 57.78L78.87 57.92Q78.42 56.32 76.35 55.18Z"/><path d="M14 102 C176 125,157 132,340 70" stroke="#3e66df" fill="none"/><path d="M16 93 C170 113,161 66,334 59" stroke="#debf62" fill="none"/><path d="M10 133 C191 94,158 71,335 17" stroke="#92d5eb" fill="none"/><path d="M10 133 C191 20,151 128,326 138" stroke="#4cdb93" fill="none"/><path d="M16 112 C189 80,160 43,331 64" stroke="#8868e8" fill="none"/><path d="M14 100 C162 20,161 6,331 58" stroke="#6fe5e5" fill="none"/><path d="M15 41 C175 15,169 33,329 121" stroke="#68e3c4" fill="none"/><path d="M10 94 C166 13,189 66,340 53" stroke="#87e2cb" fill="none"/><path d="M16 106 C171 21,156 106,325 124" stroke="#ec7895" fill="none"/><path d="M21 123 C158 130,154 45,333 57" stroke="#ade971" fill="none"/><path d="M12 100 C160 30,178 51,329 58" stroke="#df7bdf" fill="none"/><path d="M10 117 C161 80,154 44,330 114" stroke="#d6f188" fill="none"/><path fill="#5cdfdf" d="M259.23 84.96L259.28 85.01L259.19 84.92Q264.96 84.20 270.96 84.41L270.98 84.44L270.97 84.43Q270.96 79.70 270.96 75.20L270.96 75.21L270.95 75.19Q270.86 70.46 271.22 65.68L271.23 65.70L271.34 65.80Q269.06 69.02 259.28 85.01ZM277.79 98.73L277.75 98.70L277.80 98.75Q274.56 98.07 271.20 97.93L271.20 97.93L271.19 97.92Q270.95 93.61 270.73 88.97L270.71 88.95L270.62 88.85Q260.70 88.57 251.85 91.22L251.81 91.17L251.81 91.18Q251.99 90.21 252.35 88.36L252.38 88.39L252.45 88.46Q255.71 82.44 262.42 70.66L262.50 70.74L262.46 70.71Q267.97 61.65 274.39 54.37L274.22 54.20L274.34 54.32Q276.05 54.03 279.19 53.53L279.18 53.52L279.04 53.38Q275.53 65.49 275.53 78.70L275.57 78.75L275.45 78.63Q275.62 81.58 275.76 84.36L275.71 84.31L278.05 84.44L278.18 84.57Q279.34 84.66 280.48 84.87L280.40 84.79L280.47 84.86Q280.69 86.72 281.19 90.36L281.12 90.29L281.03 90.20Q278.89 89.85 276.11 89.49L276.13 89.51L276.10 89.49Q276.37 93.11 277.66 98.61ZM280.99 84.16L280.80 83.98L280.88 84.06Q280.47 83.86 280.12 83.86L280.22 83.97L279.45 83.91L279.55 84.01Q279.28 81.17 279.28 78.53L279.29 78.54L279.33 78.58Q279.19 66.45 283.04 55.17L283.18 55.30L283.15 55.28Q281.70 55.75 278.99 56.47L278.87 56.35L279.00 56.48Q279.46 55.09 280.32 52.45L280.30 52.42L280.27 52.40Q277.76 53.03 273.91 53.46L274.04 53.59L273.91 53.46Q266.61 61.65 256.83 79.20L256.87 79.25L260.74 72.34L260.67 72.27Q260.03 74.34 259.53 75.41L259.47 75.35L251.14 92.29L251.20 92.35Q252.26 91.91 254.40 91.19L254.50 91.30L254.18 91.69L254.20 91.71Q253.99 93.00 253.42 95.36L253.38 95.32L253.46 95.40Q261.11 92.84 270.18 93.20L270.26 93.28L270.20 93.22Q270.17 94.90 270.53 98.61L270.63 98.72L270.56 98.65Q272.70 98.79 274.70 99.00L274.69 98.99L274.55 98.86Q274.86 100.16 275.36 102.73L275.45 102.83L275.45 102.83Q278.96 103.19 284.60 104.90L284.55 104.85L284.51 104.81Q282.82 100.98 281.10 94.84L280.99 94.73L283.70 95.58L283.81 95.69Q284.96 95.98 286.24 96.62L286.40 96.79L286.25 96.63Q284.74 91.91 284.45 88.77L284.59 88.91L284.54 88.85Q283.37 88.48 281.23 88.05L281.22 88.04L281.40 88.22Q280.91 85.72 280.91 84.08ZM265.86 83.74L265.98 83.86L265.98 83.86Q267.32 81.34 270.24 76.56L270.31 76.63L270.31 76.63Q270.22 78.32 270.15 80.10L270.22 80.18L270.19 80.15Q270.22 82.03 270.29 83.82L270.29 83.82L270.17 83.70Q269.22 83.74 268.15 83.74L268.20 83.80L268.18 83.77Q266.96 83.70 265.82 83.70Z"/><path d="M5 40 C176 72,162 27,331 127" stroke="#7f60dc" fill="none"/><path d="M3 68 C180 4,191 63,323 68" stroke="#e967e9" fill="none"/><path d="M6 19 C192 76,160 45,335 27" stroke="#c5e75f" fill="none"/><path d="M8 84 C179 67,168 53,331 98" stroke="#5757da" fill="none"/><path d="M17 74 C175 26,160 37,322 111" stroke="#efd689" fill="none"/><path d="M14 80 C162 112,182 73,322 42" stroke="#d76640" fill="none"/><path d="M8 91 C187 138,158 24,339 57" stroke="#8663ec" fill="none"/><path d="M7 118 C182 30,188 113,337 55" stroke="#66bddb" fill="none"/><path fill="#8fe48f" d="M199.72 67.04L199.65 66.97L199.78 67.10Q193.63 66.95 190.20 64.95L190.20 64.95L190.24 64.98Q194.88 62.35 204.02 54.42L204.14 54.54L204.15 54.56Q205.41 54.10 207.84 52.96L207.95 53.07L207.96 53.08Q205.46 64.22 205.25 76.14L205.09 75.98L205.24 76.13Q204.87 87.90 206.87 99.32L206.90 99.34L206.87 99.31Q203.74 97.97 199.74 97.75L199.90 97.91L199.76 97.78Q199.68 90.13 199.68 82.49L199.60 82.41L199.66 82.47Q199.52 74.62 199.59 66.91ZM198.90 71.15L199.03 98.61L198.88 98.46Q201.19 98.49 202.97 98.84L202.94 98.81L202.97 98.85Q203.09 100.11 203.45 102.68L203.50 102.73L203.60 102.83Q208.92 103.79 213.48 108.00L213.38 107.89L213.54 108.06Q208.73 94.54 208.66 80.55L208.79 80.68L208.66 80.55Q208.60 66.64 212.03 53.08L211.99 53.04L212.01 53.06Q210.99 53.82 207.99 55.89L208.09 55.99L207.99 55.90Q208.44 54.56 209.01 51.71L208.98 51.67L208.89 51.58Q206.37 52.99 203.66 53.70L203.79 53.84L203.65 53.70Q196.71 60.54 188.65 64.82L188.69 64.87L188.53 64.70Q191.29 66.89 195.72 67.54L195.64 67.46L195.69 67.51Q194.40 68.43 191.98 70.43L192.09 70.54L192.11 70.57Q194.74 71.12 198.88 71.12L198.93 71.18Z"/><path d="M4 8 C184 124,164 24,325 138" stroke="#62dada" fill="none"/><path d="M13 54 C189 66,168 53,324 1" stroke="#57da99" fill="none"/><path d="M3 121 C159 75,173 14,328 3" stroke="#45bae2" fill="none"/><path d="M19 108 C174 6,154 9,321 97" stroke="#5ed89b" fill="none"/><path d="M8 17 C187 45,166 70,333 46" stroke="#bce890" fill="none"/><path d="M9 129 C171 79,155 139,339 128" stroke="#c778e2" fill="none"/><path d="M19 23 C171 106,163 2,334 134" stroke="#8c6fe0" fill="none"/><path d="M15 107 C189 110,174 107,339 95" stroke="#6787e9" fill="none"/><path d="M9 71 C188 7,191 105,322 75" stroke="#90e3ba" fill="none"/><path d="M20 90 C179 128,167 25,336 19" stroke="#589ee3" fill="none"/><path d="M18 107 C168 132,167 73,337 68" stroke="#e05be0" fill="none"/><path fill="#9ae980" d="M131.73 67.05L131.71 67.03L131.69 67.01Q125.77 67.08 122.34 65.08L122.23 64.97L122.31 65.06Q126.89 62.36 136.03 54.43L136.11 54.52L136.04 54.44Q137.50 54.19 139.92 53.05L139.97 53.09L139.88 53.00Q137.41 64.16 137.20 76.09L137.12 76.01L137.26 76.15Q137.03 88.05 139.03 99.47L138.93 99.38L138.87 99.31Q135.91 98.14 131.91 97.93L131.86 97.88L131.91 97.93Q131.53 89.98 131.53 82.34L131.69 82.50L131.52 82.33Q131.57 74.67 131.64 66.96ZM130.95 71.20L130.95 98.53L130.97 98.55Q133.19 98.49 134.97 98.84L134.97 98.84L135.13 99.00Q135.17 100.18 135.53 102.75L135.49 102.71L135.53 102.76Q140.86 103.73 145.43 107.94L145.44 107.95L145.52 108.03Q140.81 94.62 140.74 80.63L140.72 80.61L140.77 80.66Q140.67 66.71 144.10 53.15L144.12 53.17L143.95 53.01Q143.07 53.91 140.07 55.98L139.95 55.85L139.97 55.87Q140.43 54.55 141.00 51.70L141.00 51.70L141.06 51.76Q138.38 53.00 135.67 53.72L135.79 53.84L135.77 53.82Q128.78 60.60 120.71 64.88L120.58 64.75L120.56 64.73Q123.21 66.81 127.64 67.46L127.67 67.49L127.59 67.41Q126.44 68.47 124.01 70.47L124.09 70.55L124.12 70.58Q126.82 71.21 130.96 71.21L130.99 71.24Z"/><path d="M19 122 C170 97,174 83,332 29" stroke="#e787cf" fill="none"/></svg>