<svg xmlns="http://www.w3.org/2000/svg" width="342" height="140" viewBox="0,0,342,140"><path d="M4 79 C191 126,153 68,324 113" stroke="#c9ec5f" fill="none"/><path d="M3 75 C179 36,186 46,332 48" stroke="#a565e6" fill="none"/><path d="M11 65 C165 40,177 94,327 116" stroke="#82dd64" fill="none"/><path d="M16 73 C187 84,156 26,327 72" stroke="#b57eeb" fill="none"/><path d="M18 57 C180 48,155 16,324 18" stroke="#5273d5" fill="none"/><path d="M12 24 C175 84,165 126,328 137" stroke="#83f0f0" fill="none"/><path d="M10 23 C161 46,165 131,322 98" stroke="#dd5f9e" fill="none"/><path d="M20 4 C156 35,180 130,332 76" stroke="#eb6acb" fill="none"/><path d="M9 75 C187 5,185 47,325 128" stroke="#ee7676" fill="none"/><path d="M10 69 C154 4,156 56,321 125" stroke="#5dc6e8" fill="none"/><path d="M7 28 C191 103,160 32,332 34" stroke="#e74a71" fill="none"/><path d="M15 120 C173 95,182 78,329 35" stroke="#abe698" fill="none"/><path d="M2 127 C170 10,168 51,340 107" stroke="#4b72e6" fill="none"/><path d="M13 49 C154 100,156 134,337 29" stroke="#74e18f" fill="none"/><path d="M3 94 C153 3,169 41,327 5" stroke="#59a0e7" fill="none"/><path d="M18 136 C178 2,157 70,322 50" stroke="#e73a3a" fill="none"/><path d="M2 17 C187 22,160 131,321 112" stroke="#7adfad" fill="none"/><path d="M7 78 C161 101,184 134,334 69" stroke="#ebeb88" fill="none"/><path d="M19 28 C171 24,164 17,324 84" stroke="#dbb74c" fill="none"/><path d="M4 4 C167 17,168 35,325 86" stroke="#b781ed" fill="none"/><path d="M11 90 C167 116,160 47,333 80" stroke="#82ec82" fill="none"/><path d="M21 49 C153 100,180 90,337 120" stroke="#edca62" fill="none"/><path d="M12 77 C167 115,154 79,333 129" stroke="#69e1c3" fill="none"/><path d="M5 116 C167 5,176 111,322 87" stroke="#6d48d9" fill="none"/><path fill="#6bd548" d="M157.26 84.99L157.20 84.93L157.12 84.85Q162.94 84.17 168.93 84.39L168.92 84.38L169.06 84.52Q168.82 79.57 168.82 75.07L168.95 75.20L168.94 75.19Q168.88 70.49 169.24 65.71L169.16 65.63L169.19 65.66Q166.97 68.93 157.19 84.92ZM175.79 98.74L175.76 98.71L175.66 98.61Q172.65 98.17 169.30 98.03L169.21 97.94L169.26 97.99Q168.87 93.53 168.65 88.89L168.71 88.95L168.72 88.95Q158.62 88.49 149.77 91.13L149.82 91.18L149.87 91.24Q149.96 90.18 150.32 88.33L150.34 88.35L150.44 88.45Q153.66 82.39 160.37 70.62L160.44 70.68L160.43 70.67Q165.99 61.67 172.41 54.39L172.33 54.31L172.39 54.37Q174.01 53.98 177.15 53.48L177.05 53.39L177.18 53.52Q173.54 65.51 173.54 78.71L173.59 78.76L173.59 78.76Q173.60 81.55 173.74 84.34L173.67 84.27L176.03 84.41L176.06 84.45Q177.31 84.63 178.46 84.84L178.34 84.72L178.43 84.81Q178.52 86.55 179.02 90.19L179.04 90.21L179.06 90.24Q176.90 89.86 174.12 89.50L174.03 89.42L173.98 89.36Q174.44 93.18 175.73 98.68ZM178.82 83.99L178.95 84.13L178.94 84.11Q178.54 83.93 178.18 83.93L178.08 83.83L177.39 83.85L177.38 83.84Q177.25 81.14 177.25 78.50L177.28 78.53L177.22 78.47Q177.30 66.56 181.15 55.28L181.08 55.21L181.15 55.28Q179.70 55.76 176.99 56.47L176.87 56.35L176.86 56.34Q177.48 55.10 178.34 52.46L178.30 52.43L178.19 52.31Q175.82 53.09 171.97 53.52L171.99 53.54L172.02 53.57Q164.58 61.61 154.80 79.17L154.89 79.27L158.74 72.34L158.73 72.33Q158.00 74.31 157.50 75.38L157.50 75.38L149.12 92.27L149.03 92.18Q150.28 91.93 152.42 91.22L152.43 91.22L152.11 91.62L152.14 91.65Q151.99 92.99 151.42 95.35L151.43 95.37L151.41 95.34Q159.09 92.82 168.16 93.18L168.20 93.22L168.25 93.27Q168.15 94.88 168.51 98.60L168.56 98.65L168.56 98.65Q170.53 98.62 172.53 98.83L172.64 98.94L172.58 98.88Q172.97 100.27 173.47 102.84L173.43 102.81L173.33 102.70Q177.05 103.28 182.69 105.00L182.63 104.93L182.68 104.99Q180.66 100.82 178.94 94.68L178.96 94.70L181.77 95.65L181.81 95.70Q182.99 96.01 184.27 96.66L184.27 96.65L184.27 96.66Q182.88 92.05 182.59 88.91L182.54 88.86L182.46 88.78Q181.39 88.49 179.24 88.06L179.34 88.15L179.32 88.13Q178.80 85.62 178.80 83.98ZM163.86 83.74L163.81 83.69L163.85 83.73Q165.35 81.37 168.28 76.59L168.23 76.55L168.16 76.48Q168.27 78.37 168.20 80.15L168.24 80.19L168.14 80.10Q168.11 81.92 168.18 83.70L168.16 83.68L168.22 83.75Q167.26 83.79 166.19 83.79L166.16 83.75L166.15 83.75Q165.01 83.75 163.87 83.75Z"/><path d="M2 126 C163 6,188 51,341 28" stroke="#4cea9b" fill="none"/><path d="M15 50 C177 9,171 98,325 38" stroke="#95ed77" fill="none"/><path d="M20 17 C168 46,153 117,324 111" stroke="#e3bd49" fill="none"/><path d="M1 108 C168 3,154 55,322 34" stroke="#5596d7" fill="none"/><path d="M21 28 C165 61,158 104,333 111" stroke="#c6df7a" fill="none"/><path fill="#ef8fbf" d="M108.95 66.94L109.03 67.02L109.04 67.02Q103.03 67.02 99.61 65.02L99.50 64.91L99.61 65.02Q104.24 62.37 113.38 54.45L113.50 54.57L113.50 54.57Q114.77 54.13 117.20 52.99L117.17 52.96L117.27 53.06Q114.67 64.09 114.45 76.01L114.58 76.14L114.52 76.07Q114.23 87.92 116.23 99.34L116.38 99.50L116.23 99.35Q113.12 98.01 109.12 97.80L109.13 97.82L109.06 97.74Q108.97 90.08 108.97 82.45L108.91 82.39L108.89 82.36Q108.92 74.69 108.99 66.98ZM108.29 71.21L108.36 98.62L108.24 98.49Q110.50 98.47 112.29 98.83L112.33 98.87L112.28 98.82Q112.44 100.12 112.80 102.69L112.80 102.70L112.86 102.75Q118.19 103.73 122.76 107.94L122.87 108.06L122.84 108.03Q118.09 94.56 118.01 80.57L118.09 80.65L118.02 80.57Q117.86 66.56 121.28 53.00L121.38 53.10L121.38 53.10Q120.35 53.85 117.35 55.92L117.30 55.87L117.35 55.92Q117.63 54.42 118.20 51.56L118.28 51.64L118.33 51.69Q115.83 53.11 113.11 53.83L113.09 53.80L113.01 53.72Q105.92 60.41 97.85 64.69L97.91 64.75L98.02 64.85Q100.59 66.86 105.02 67.50L105.03 67.52L105.03 67.51Q103.78 68.48 101.36 70.48L101.45 70.57L101.41 70.53Q104.16 71.22 108.30 71.22L108.21 71.12Z"/><path d="M20 27 C152 52,153 50,332 38" stroke="#aa76df" fill="none"/><path d="M9 38 C168 70,152 49,335 89" stroke="#45d78e" fill="none"/><path fill="#d75a79" d="M270.56 84.96L270.61 85.01L270.55 84.95Q276.21 84.12 282.21 84.33L282.33 84.45L282.28 84.40Q282.20 79.61 282.20 75.11L282.29 75.20L282.32 75.24Q282.16 70.44 282.52 65.65L282.59 65.72L282.57 65.70Q280.26 68.89 270.48 84.88ZM289.09 98.70L289.11 98.73L289.02 98.63Q285.85 98.03 282.49 97.89L282.57 97.97L282.68 98.08Q282.25 93.57 282.03 88.93L282.08 88.98L282.01 88.92Q272.06 88.60 263.21 91.24L263.08 91.12L263.19 91.22Q263.30 90.19 263.65 88.33L263.81 88.49L263.72 88.40Q267.03 82.42 273.74 70.64L273.73 70.64L273.85 70.76Q279.14 61.49 285.57 54.21L285.58 54.22L285.75 54.39Q287.37 54.02 290.51 53.52L290.42 53.43L290.53 53.53Q286.82 65.46 286.82 78.66L286.78 78.62L286.87 78.71Q286.88 81.51 287.03 84.29L287.00 84.27L289.38 84.43L289.49 84.54Q290.54 84.53 291.68 84.74L291.65 84.70L291.74 84.80Q291.88 86.58 292.38 90.22L292.44 90.28L292.50 90.34Q290.18 89.80 287.39 89.44L287.32 89.37L287.35 89.40Q287.70 93.11 288.99 98.60ZM292.30 84.14L292.25 84.09L292.15 83.99Q291.94 83.99 291.58 83.99L291.55 83.97L290.82 83.95L290.87 84.00Q290.64 81.20 290.64 78.56L290.63 78.55L290.66 78.57Q290.49 66.41 294.34 55.14L294.45 55.24L294.44 55.23Q293.09 55.81 290.38 56.52L290.37 56.51L290.28 56.42Q290.68 54.96 291.53 52.32L291.64 52.43L291.51 52.31Q289.13 53.06 285.27 53.49L285.36 53.57L285.33 53.54Q278.00 61.70 268.22 79.26L268.21 79.25L272.12 72.39L272.12 72.39Q271.36 74.34 270.86 75.41L270.83 75.38L262.55 92.36L262.49 92.30Q263.63 91.94 265.77 91.23L265.75 91.21L265.52 91.69L265.51 91.68Q265.33 93.01 264.76 95.36L264.66 95.27L264.76 95.37Q272.44 92.83 281.50 93.19L281.42 93.10L281.61 93.30Q281.64 95.04 282.00 98.75L281.87 98.63L282.04 98.79Q283.98 98.74 285.98 98.95L285.97 98.94L285.97 98.94Q286.19 100.16 286.69 102.73L286.67 102.71L286.79 102.83Q290.23 103.13 295.87 104.84L295.96 104.93L295.86 104.84Q294.11 100.94 292.40 94.80L292.37 94.78L295.16 95.71L295.13 95.68Q296.41 96.11 297.70 96.75L297.56 96.61L297.73 96.78Q296.10 91.94 295.82 88.80L295.81 88.79L295.78 88.76Q294.72 88.49 292.57 88.06L292.56 88.05L292.59 88.08Q292.29 85.77 292.29 84.13ZM277.29 83.84L277.23 83.77L277.14 83.69Q278.74 81.43 281.67 76.65L281.52 76.50L281.67 76.65Q281.54 78.31 281.47 80.09L281.51 80.13L281.61 80.23Q281.51 81.99 281.58 83.77L281.51 83.70L281.68 83.87Q280.45 83.64 279.38 83.64L279.47 83.73L279.40 83.66Q278.43 83.83 277.28 83.83Z"/><path fill="#e1af7e" d="M214.96 98.70L215.01 98.74L215.11 98.84Q212.30 98.81 209.37 98.03L209.39 98.05L209.44 98.10Q207.20 96.43 206.91 93.36L206.80 93.25L206.92 93.36Q206.79 92.95 207.15 88.03L207.19 88.07L207.09 87.97Q209.17 87.76 212.95 87.05L212.84 86.94L212.47 88.35L212.56 88.45Q212.04 91.70 214.68 92.77L214.64 92.74L214.72 92.82Q216.22 93.46 220.14 93.46L220.13 93.45L220.19 93.51Q223.09 93.12 223.45 92.98L223.42 92.95L223.52 93.05Q225.22 92.75 226.57 91.82L226.59 91.84L226.54 91.78Q229.09 89.91 228.73 85.99L228.87 86.12L228.87 86.12Q228.51 81.55 225.26 78.62L225.28 78.64L225.20 78.57Q222.04 75.72 217.40 75.72L217.37 75.70L217.30 75.19L217.23 75.12Q218.07 75.18 219.71 75.03L219.58 74.91L219.72 75.05Q223.14 74.68 225.71 72.36L225.79 72.44L225.89 72.54Q228.31 70.07 228.60 66.58L228.63 66.61L228.61 66.59Q228.89 66.08 228.89 65.44L228.77 65.32L228.74 65.29Q228.86 62.56 226.29 60.85L226.33 60.88L226.30 60.86Q223.93 59.27 220.93 59.48L221.00 59.55L220.95 59.51Q218.52 59.22 216.24 60.00L216.28 60.04L216.30 60.06Q213.56 61.03 212.99 63.17L212.90 63.09L213.03 63.22Q212.66 64.63 212.80 66.05L212.80 66.05L212.78 66.04Q210.86 65.61 207.00 64.25L206.93 64.18L206.88 64.13Q206.59 61.13 206.66 59.56L206.62 59.52L206.59 59.49Q206.90 56.73 208.90 55.45L208.91 55.45L208.79 55.34Q211.53 54.29 214.53 54.29L214.41 54.18L214.48 54.25Q220.32 54.09 226.25 54.59L226.32 54.67L226.24 54.58Q235.78 55.41 235.21 62.48L235.19 62.46L235.33 62.60Q235.07 65.27 234.15 68.20L234.14 68.19L234.07 68.13Q232.54 74.09 228.12 75.80L227.95 75.64L228.08 75.77Q232.99 76.76 234.14 83.04L234.01 82.92L234.05 82.95Q234.60 85.21 234.74 88.99L234.72 88.98L234.61 88.87Q235.02 97.34 226.39 98.20L226.40 98.21L226.31 98.12Q224.86 98.18 214.94 98.67ZM224.88 103.05L224.85 103.02L224.79 102.96Q225.97 103.07 231.32 103.21L231.23 103.11L231.28 103.17Q234.54 103.29 237.61 102.07L237.59 102.05L237.72 102.18Q239.78 100.25 239.43 96.97L239.49 97.03L239.58 97.12Q239.29 94.54 238.72 91.26L238.63 91.18L238.68 91.22Q237.42 82.89 233.78 79.82L233.77 79.82L233.45 79.14L233.35 78.97L233.37 78.99Q236.54 76.16 237.97 67.96L238.11 68.10L238.02 68.01Q238.15 67.20 238.36 65.42L238.28 65.33L238.22 65.28Q238.35 63.84 238.21 62.55L238.32 62.67L238.38 62.73Q238.10 59.59 235.67 58.30L235.65 58.28L235.48 58.26L235.36 58.14Q234.81 56.30 232.67 55.30L232.70 55.33L232.82 55.46Q229.91 54.11 220.27 53.54L220.33 53.60L220.29 53.56Q217.08 53.35 214.08 53.35L214.04 53.31L214.03 53.30Q211.12 53.38 208.26 54.59L208.31 54.64L208.28 54.61Q205.92 55.96 205.92 59.24L205.92 59.25L205.91 59.24Q205.92 58.46 206.42 64.74L206.39 64.71L206.40 64.72Q207.06 64.96 210.13 66.10L210.17 66.14L210.13 66.10Q210.08 67.05 210.01 67.98L210.12 68.09L210.07 68.04Q210.02 68.92 210.09 69.92L210.11 69.93L210.16 69.98Q213.48 70.66 217.27 70.88L217.30 70.91L217.29 70.90Q217.18 67.15 219.25 65.58L219.18 65.51L219.16 65.49Q220.68 64.23 224.46 63.80L224.59 63.93L224.47 63.80Q226.74 63.93 227.81 64.29L227.80 64.28L227.73 64.21Q227.89 64.51 227.96 64.72L227.95 64.72L227.94 65.06L228.06 66.04L228.16 66.14Q228.03 66.37 227.96 66.65L228.06 66.76L228.11 66.81Q227.91 69.96 225.05 72.17L224.96 72.08L224.94 72.06Q223.38 73.92 219.60 74.28L219.46 74.15L219.54 74.22Q218.20 74.52 216.56 74.52L216.45 74.41L216.56 74.52Q216.57 75.11 216.86 76.40L216.79 76.33L216.85 76.38Q220.22 76.47 222.93 77.83L222.82 77.72L222.76 77.87L219.71 78.11L219.65 78.04Q219.72 78.69 219.94 79.83L219.98 79.88L219.98 79.87Q224.11 79.87 227.32 82.36L227.34 82.38L227.23 82.27Q227.66 82.99 228.23 86.05L228.33 86.16L228.25 86.07Q228.68 91.65 223.19 92.43L223.01 92.26L223.02 92.27Q219.18 92.85 218.11 92.77L218.06 92.73L218.06 92.73Q217.23 92.54 216.23 92.40L216.21 92.38L216.15 91.46L216.37 90.61L216.60 90.06L216.51 89.32L216.53 89.34Q214.76 89.50 213.26 89.85L213.35 89.94L213.37 89.97Q213.21 89.45 213.21 89.09L213.25 89.13L213.23 89.12Q213.41 88.86 213.41 88.43L213.35 88.38L213.39 88.41Q213.36 87.53 213.64 86.17L213.59 86.12L213.74 86.27Q210.16 86.61 206.66 87.25L206.67 87.26L206.60 87.20Q206.69 88.21 206.48 90.32L206.51 90.35L206.46 90.31Q206.21 92.37 206.21 93.51L206.15 93.46L206.33 93.63Q206.42 97.44 208.99 98.86L208.93 98.81L209.04 98.91Q211.67 103.04 220.52 102.69L220.58 102.74L220.68 102.84Q221.94 102.68 224.80 102.96Z"/><path d="M17 114 C158 55,157 129,332 121" stroke="#92e6a7" fill="none"/><path d="M2 129 C188 69,176 77,340 66" stroke="#e386e3" fill="none"/><path d="M12 114 C157 104,173 96,321 120" stroke="#98abe6" fill="none"/><path d="M14 52 C158 76,173 11,338 29" stroke="#bf44e7" fill="none"/><path d="M15 134 C178 34,150 134,339 87" stroke="#d9438e" fill="none"/><path d="M21 68 C167 101,173 69,328 122" stroke="#d542b0" fill="none"/><path d="M13 119 C152 83,180 30,325 125" stroke="#5abbdc" fill="none"/><path fill="#a3e660" d="M66.13 94.28L66.00 94.15L66.15 94.29Q66.64 96.07 67.64 99.86L67.56 99.77L67.61 99.83Q59.70 97.34 51.06 97.84L51.12 97.89L50.99 97.77Q42.49 98.33 34.99 102.04L35.01 102.06L34.92 101.96Q35.42 100.75 35.49 100.89L35.51 100.91L35.43 100.84Q42.59 93.58 49.95 85.30L49.93 85.28L49.78 85.13Q58.07 75.79 60.28 67.01L60.31 67.04L60.37 67.10Q61.21 63.80 58.82 61.59L58.85 61.62L58.73 61.50Q56.38 59.33 53.03 59.61L53.03 59.62L53.04 59.63Q52.39 59.55 51.75 59.55L51.69 59.49L51.84 59.64Q48.82 59.48 46.47 61.19L46.64 61.37L46.57 61.29Q44.13 63.85 44.56 68.85L44.50 68.79L44.51 68.80Q41.31 68.31 39.02 67.45L39.02 67.45L38.91 67.34Q38.59 64.74 38.45 62.03L38.48 62.06L38.37 61.95Q38.35 59.00 39.49 56.86L39.42 56.79L39.37 56.74Q42.78 54.22 49.06 54.22L49.03 54.19L52.37 54.25L52.38 54.26Q56.61 54.27 58.39 54.48L58.33 54.43L58.47 54.57Q66.49 55.23 66.99 59.80L66.99 59.80L66.96 59.78Q67.12 60.86 66.98 62.36L67.06 62.44L66.96 62.34Q66.95 63.61 66.66 64.90L66.75 64.99L66.63 64.87Q63.72 80.23 49.52 93.08L49.51 93.07L49.42 92.99Q52.11 92.75 54.68 92.75L54.70 92.77L54.56 92.63Q60.78 92.78 66.14 94.28ZM65.05 55.22L65.01 55.18L64.98 55.15Q62.00 53.96 58.79 53.81L58.85 53.87L52.44 53.53L52.34 53.43Q44.00 52.94 39.86 55.01L39.81 54.97L39.86 55.01Q37.90 57.62 37.90 61.47L37.77 61.35L37.88 61.46Q37.83 62.69 38.40 67.98L38.47 68.04L38.45 68.02Q39.58 68.58 41.80 69.16L41.81 69.17L41.81 71.09L41.67 70.95Q41.72 71.93 41.86 72.93L41.70 72.77L41.73 72.80Q44.18 73.11 48.82 73.54L48.74 73.45L48.83 73.54Q48.69 72.76 48.69 72.12L48.70 72.13L48.68 72.11Q48.63 68.63 50.91 66.10L50.95 66.14L50.92 66.11Q53.20 63.58 56.56 63.79L56.68 63.91L56.60 63.83Q58.01 63.88 59.44 64.17L59.52 64.25L59.47 64.20Q59.69 64.92 59.83 65.71L59.77 65.65L59.78 65.66Q59.83 66.42 59.69 67.06L59.78 67.15L59.82 67.20Q57.50 76.15 49.22 85.22L49.07 85.07L49.12 85.12Q45.04 89.25 34.83 100.59L34.99 100.75L34.93 100.69Q34.63 102.32 33.98 103.39L33.90 103.30L34.00 103.40Q36.88 101.64 39.73 100.64L39.85 100.76L39.86 100.76Q38.43 101.77 36.65 104.55L36.61 104.51L36.68 104.58Q36.45 105.21 36.24 105.86L36.12 105.74L36.27 105.89Q45.27 101.90 55.55 102.25L55.71 102.41L55.71 102.41Q66.22 102.57 74.79 107.00L74.89 107.11L73.07 103.14L73.04 103.12Q71.75 100.54 71.25 99.04L71.29 99.08L71.34 99.13Q69.86 98.22 67.58 97.44L67.58 97.44L67.61 97.47Q67.29 96.08 66.58 93.51L66.67 93.60L66.67 93.60Q62.46 92.46 58.18 92.11L58.12 92.04L58.14 92.07Q66.90 83.48 69.76 68.00L69.81 68.04L70.23 62.69L70.28 62.73Q70.00 59.24 67.71 57.95L67.83 58.07L67.65 57.96L67.64 57.95Q67.67 57.91 67.53 57.91L67.53 57.92L67.50 57.89Q67.04 56.28 64.97 55.14Z"/><path d="M11 103 C178 80,170 11,325 91" stroke="#e448e4" fill="none"/><path d="M15 63 C167 108,163 130,340 78" stroke="#4d96df" fill="none"/></svg>