<svg xmlns="http://www.w3.org/2000/svg" width="342" height="140" viewBox="0,0,342,140"><path d="M19 81 C189 38,173 4,321 46" stroke="#a3ee8a" fill="none"/><path d="M1 59 C187 78,188 4,326 137" stroke="#a863ec" fill="none"/><path d="M19 81 C161 29,161 53,336 89" stroke="#46e146" fill="none"/><path d="M2 83 C184 2,181 55,325 32" stroke="#e38bcd" fill="none"/><path fill="#afe679" d="M109.61 67.40L109.57 67.37L109.60 67.40Q104.59 67.53 101.65 65.82L101.61 65.77L101.63 65.79Q105.54 63.46 113.37 56.67L113.41 56.70L113.49 56.78Q114.55 56.38 116.63 55.40L116.74 55.51L116.67 55.45Q114.52 64.98 114.34 75.19L114.38 75.24L114.31 75.17Q114.25 85.51 115.96 95.30L115.93 95.27L115.89 95.22Q113.24 94.10 109.81 93.92L109.79 93.90L109.67 93.78Q109.52 87.14 109.52 80.59L109.58 80.65L109.63 80.71Q109.59 74.06 109.65 67.45ZM109.03 71.05L109.03 94.48L109.08 94.54Q110.88 94.37 112.41 94.68L112.58 94.86L112.50 94.77Q112.66 95.91 112.97 98.12L112.96 98.11L112.94 98.09Q117.48 98.90 121.40 102.51L121.40 102.50L121.44 102.55Q117.52 91.17 117.46 79.18L117.39 79.10L117.46 79.17Q117.20 67.05 120.14 55.42L120.13 55.42L120.27 55.55Q119.39 56.20 116.82 57.97L116.77 57.92L116.84 57.99Q117.05 56.68 117.54 54.23L117.64 54.33L117.55 54.25Q115.42 55.47 113.09 56.08L113.20 56.19L113.20 56.19Q107.09 61.89 100.18 65.57L100.21 65.60L100.19 65.57Q102.33 67.23 106.13 67.78L106.19 67.85L106.14 67.79Q105.11 68.66 103.03 70.37L103.15 70.49L103.07 70.41Q105.54 71.11 109.09 71.11L108.93 70.96Z"/><path d="M9 17 C163 59,180 94,326 116" stroke="#e4e490" fill="none"/><path d="M17 82 C173 110,190 5,323 45" stroke="#98e5bf" fill="none"/><path d="M13 26 C185 34,183 8,336 12" stroke="#b7e886" fill="none"/><path fill="#eb64ca" d="M221.96 76.70L221.90 76.64L221.93 76.67Q218.94 76.43 216.95 78.73L216.94 78.72L217.03 78.81Q214.99 81.05 214.68 84.11L214.67 84.10L214.69 84.12Q214.30 87.40 216.05 88.96L215.92 88.84L215.93 88.84Q217.86 90.59 221.22 90.41L221.22 90.40L221.03 90.21Q224.42 89.99 226.19 88.89L226.30 88.99L226.26 88.96Q228.07 87.16 228.07 84.65L228.05 84.63L228.03 84.61Q228.16 84.13 228.04 83.51L227.97 83.45L227.92 83.40Q228.07 80.73 226.29 78.56L226.37 78.63L226.39 78.66Q224.61 76.48 221.92 76.67ZM221.13 94.41L221.24 94.53L221.19 94.47Q214.14 94.46 211.88 93.24L211.95 93.31L211.87 93.23Q210.20 91.98 209.89 89.23L209.95 89.28L209.94 89.28Q209.86 88.16 209.92 86.99L209.98 87.06L209.99 87.06Q210.15 85.45 210.15 84.71L210.07 84.64L210.13 84.69Q210.92 80.16 211.16 79.06L211.17 79.07L211.07 78.96Q211.78 75.83 213.13 73.56L213.14 73.58L213.27 73.70Q217.56 66.67 227.10 56.45L226.93 56.28L226.96 56.32Q231.25 55.83 234.80 54.54L234.78 54.52L234.88 54.62Q223.79 66.54 218.65 73.33L218.72 73.40L218.71 73.39Q220.26 72.56 222.34 72.56L222.41 72.62L222.43 72.65Q227.64 72.54 230.09 75.66L230.14 75.71L230.22 75.79Q232.23 78.28 232.78 83.97L232.85 84.05L232.78 83.98Q233.03 85.26 233.03 86.24L232.97 86.18L232.96 86.18Q232.86 91.09 229.31 92.80L229.43 92.92L229.47 92.96Q227.37 93.80 221.13 94.42ZM224.89 98.35L224.83 98.29L224.95 98.42Q226.96 98.29 230.15 98.41L230.17 98.44L230.08 98.35Q232.77 98.53 235.28 97.37L235.22 97.31L235.24 97.33Q237.01 96.04 237.01 93.17L237.11 93.26L237.06 93.21Q237.04 92.40 236.77 90.81L236.67 90.71L236.67 90.71Q236.59 89.31 236.59 88.58L236.56 88.55L236.50 88.49Q235.03 80.84 232.46 77.78L232.53 77.85L232.42 77.75Q232.44 77.71 232.20 77.34L232.20 77.34L231.73 76.99L231.47 76.79L231.59 76.91Q231.00 76.08 230.02 74.55L229.99 74.52L229.91 74.44Q228.59 73.05 225.41 72.32L225.28 72.19L225.37 72.28Q227.25 69.63 232.02 63.70L232.14 63.82L238.96 55.34L238.85 55.23Q236.46 56.76 232.61 57.98L232.46 57.83L232.59 57.97Q234.07 56.39 236.95 53.21L236.93 53.19L236.95 53.21Q233.09 54.92 226.85 55.84L226.83 55.82L226.75 55.74Q217.64 65.29 212.87 73.24L212.72 73.09L212.76 73.13Q210.27 77.13 209.35 87.16L209.46 87.27L209.52 87.33Q209.35 88.20 209.47 89.73L209.36 89.62L209.45 89.71Q209.63 92.58 211.40 94.04L211.41 94.06L211.42 94.06Q211.99 94.27 211.93 94.33L211.94 94.34L211.93 94.32Q212.42 95.68 213.71 96.35L213.74 96.38L213.86 96.51Q216.10 97.52 219.22 97.82L219.28 97.89L219.15 97.76Q219.15 97.76 224.78 98.25ZM224.53 80.32L224.42 80.21L224.52 80.30Q225.37 80.05 226.90 80.84L226.97 80.91L226.87 80.82Q227.40 82.33 227.40 83.37L227.51 83.48L227.51 83.48Q227.86 86.52 226.33 88.11L226.27 88.05L226.36 88.14Q224.50 89.15 221.13 89.64L221.14 89.65L221.13 89.64Q218.77 89.61 217.92 89.18L218.00 89.26L217.94 89.21Q217.71 88.55 217.71 88.06L217.80 88.15L217.73 88.07Q217.42 82.87 222.13 80.79L221.96 80.62L222.03 80.69Q223.30 80.19 224.53 80.31Z"/><path fill="#7171e9" d="M64.73 90.76L64.67 90.69L64.69 90.72Q65.30 92.43 66.16 95.67L66.13 95.64L66.07 95.59Q59.34 93.50 51.93 93.93L51.88 93.87L51.91 93.91Q44.49 94.26 38.06 97.44L38.00 97.37L38.08 97.46Q38.52 96.43 38.58 96.55L38.46 96.43L38.48 96.45Q44.43 90.03 50.73 82.94L50.79 82.99L50.78 82.99Q57.83 74.92 59.72 67.40L59.81 67.49L59.75 67.43Q60.49 64.62 58.44 62.72L58.46 62.74L58.60 62.88Q56.53 60.96 53.65 61.20L53.56 61.11L53.55 61.10Q52.94 60.98 52.39 60.98L52.41 61.00L52.45 61.05Q50.10 61.13 48.08 62.60L48.09 62.61L47.95 62.48Q45.99 64.80 46.35 69.08L46.37 69.09L46.25 68.97Q43.50 68.55 41.54 67.81L41.54 67.81L41.43 67.71Q41.11 65.42 40.98 63.10L41.08 63.19L40.95 63.07Q40.82 60.42 41.80 58.59L41.95 58.74L41.93 58.72Q44.71 56.42 50.10 56.42L50.14 56.47L52.89 56.40L53.04 56.56Q56.60 56.51 58.13 56.69L58.11 56.67L58.25 56.80Q65.14 57.40 65.57 61.31L65.60 61.34L65.63 61.37Q65.67 62.21 65.55 63.50L65.50 63.45L65.48 63.42Q65.46 64.50 65.21 65.60L65.32 65.71L65.24 65.63Q62.69 78.75 50.51 89.76L50.37 89.61L50.42 89.67Q52.69 89.43 54.90 89.43L54.90 89.43L54.89 89.43Q60.17 89.51 64.76 90.79ZM63.88 57.36L63.85 57.33L63.70 57.18Q61.30 56.31 58.55 56.19L58.54 56.18L53.00 55.84L53.01 55.85Q45.72 55.29 42.17 57.06L42.26 57.15L42.18 57.07Q40.48 59.29 40.48 62.59L40.46 62.57L40.53 62.65Q40.52 63.73 41.01 68.26L41.06 68.32L41.16 68.41Q41.94 68.70 43.84 69.19L43.76 69.11L43.91 70.92L43.75 70.76Q43.79 71.59 43.91 72.45L43.85 72.39L43.97 72.50Q45.86 72.56 49.84 72.93L50.00 73.09L49.83 72.92Q49.83 72.38 49.83 71.83L49.79 71.78L49.82 71.81Q49.80 68.86 51.76 66.68L51.80 66.72L51.89 66.81Q53.67 64.47 56.55 64.65L56.62 64.72L56.65 64.76Q57.84 64.78 59.07 65.03L59.11 65.07L59.15 65.12Q59.20 65.59 59.32 66.26L59.47 66.41L59.42 66.36Q59.38 66.93 59.26 67.48L59.24 67.46L59.42 67.64Q57.23 75.13 50.14 82.90L50.28 83.04L50.22 82.98Q46.76 86.55 38.01 96.28L38.10 96.37L38.07 96.34Q37.77 97.69 37.22 98.61L37.22 98.61L37.16 98.55Q39.69 97.10 42.13 96.25L42.21 96.32L42.21 96.33Q41.07 97.26 39.54 99.65L39.45 99.56L39.43 99.54Q39.38 100.22 39.20 100.77L39.22 100.80L39.05 100.62Q47.05 97.49 55.86 97.80L55.71 97.64L55.75 97.69Q64.85 97.91 72.19 101.71L72.24 101.75L70.67 98.35L70.59 98.27Q69.54 96.12 69.11 94.83L69.09 94.82L69.10 94.82Q68.00 94.21 66.04 93.54L66.03 93.52L66.08 93.58Q65.74 92.32 65.12 90.11L65.21 90.20L65.28 90.27Q61.72 89.34 58.05 89.03L57.95 88.93L57.89 88.87Q65.46 81.58 67.91 68.30L67.96 68.36L68.23 63.67L68.31 63.74Q68.09 60.77 66.13 59.67L66.23 59.77L66.06 59.66L66.11 59.71Q65.97 59.51 65.85 59.51L66.00 59.66L65.96 59.62Q65.53 58.21 63.75 57.23Z"/><path d="M16 124 C167 55,180 27,322 63" stroke="#ea70ad" fill="none"/><path d="M16 81 C167 44,171 60,337 33" stroke="#ec6e6e" fill="none"/><path d="M9 84 C189 34,170 42,336 129" stroke="#6a6aea" fill="none"/><path d="M5 5 C159 132,171 52,337 120" stroke="#87ea66" fill="none"/><path d="M19 19 C173 15,177 73,333 48" stroke="#5bd65b" fill="none"/><path d="M15 54 C163 10,153 3,321 91" stroke="#c0e849" fill="none"/><path d="M14 81 C180 88,172 70,330 7" stroke="#5ad799" fill="none"/><path d="M8 136 C191 79,191 26,340 67" stroke="#b745dd" fill="none"/><path d="M3 100 C174 95,187 65,331 115" stroke="#e28282" fill="none"/><path d="M4 49 C176 137,155 121,323 76" stroke="#88e6a0" fill="none"/><path fill="#e3e362" d="M279.59 67.39L279.58 67.37L279.61 67.41Q274.43 67.37 271.50 65.66L271.57 65.73L271.58 65.74Q275.59 63.51 283.42 56.71L283.42 56.72L283.47 56.76Q284.62 56.45 286.70 55.48L286.68 55.45L286.67 55.44Q284.60 65.06 284.42 75.27L284.40 75.26L284.26 75.12Q284.18 85.44 285.89 95.23L285.97 95.30L285.92 95.25Q283.13 93.99 279.70 93.81L279.84 93.94L279.81 93.92Q279.60 87.22 279.60 80.68L279.52 80.59L279.61 80.69Q279.57 74.03 279.63 67.43ZM278.94 70.96L279.12 94.57L279.04 94.49Q280.90 94.39 282.43 94.70L282.50 94.77L282.47 94.74Q282.69 95.94 282.99 98.14L282.97 98.12L282.89 98.04Q287.61 99.03 291.53 102.64L291.47 102.58L291.51 102.62Q287.43 91.08 287.37 79.08L287.35 79.06L287.41 79.13Q287.22 67.06 290.15 55.44L290.22 55.50L290.29 55.58Q289.39 56.20 286.82 57.98L286.87 58.03L286.86 58.01Q287.08 56.71 287.57 54.26L287.54 54.23L287.67 54.36Q285.51 55.57 283.19 56.18L283.05 56.04L283.06 56.05Q277.11 61.91 270.19 65.58L270.25 65.63L270.16 65.55Q272.49 67.38 276.28 67.93L276.25 67.90L276.26 67.91Q275.11 68.66 273.03 70.38L273.00 70.34L273.02 70.36Q275.53 71.10 279.08 71.10L278.95 70.97Z"/><path d="M18 75 C155 92,169 75,324 49" stroke="#6abfdc" fill="none"/><path d="M8 122 C164 20,172 110,334 2" stroke="#c5e75f" fill="none"/><path d="M11 115 C181 135,180 8,330 39" stroke="#b7d854" fill="none"/><path d="M12 22 C177 83,171 123,324 72" stroke="#bde448" fill="none"/><path d="M4 51 C158 11,187 90,322 17" stroke="#9f84ef" fill="none"/><path d="M21 109 C166 95,155 109,326 10" stroke="#e4673e" fill="none"/><path d="M3 77 C155 21,182 125,327 119" stroke="#afed72" fill="none"/><path d="M12 34 C173 48,175 109,324 48" stroke="#bc8fe9" fill="none"/><path d="M6 133 C158 60,165 56,332 7" stroke="#3fdeb6" fill="none"/><path d="M21 51 C191 120,166 44,332 94" stroke="#43bce4" fill="none"/><path d="M3 124 C186 11,179 130,334 10" stroke="#eb7fb5" fill="none"/><path d="M7 40 C158 96,164 18,335 87" stroke="#41e169" fill="none"/><path d="M6 111 C162 125,188 55,326 96" stroke="#ed62ca" fill="none"/><path d="M1 10 C188 94,159 75,322 117" stroke="#3b8cdc" fill="none"/><path d="M8 120 C169 61,180 50,326 67" stroke="#dfdf47" fill="none"/><path d="M18 118 C156 52,185 90,339 5" stroke="#dd54dd" fill="none"/><path d="M12 6 C161 98,160 30,330 45" stroke="#c371de" fill="none"/><path d="M12 120 C157 129,177 68,331 116" stroke="#4ae270" fill="none"/><path d="M15 109 C158 13,155 89,332 139" stroke="#e8ad72" fill="none"/><path fill="#56e0e0" d="M159.05 82.82L159.00 82.77L159.03 82.80Q164.04 82.25 169.18 82.43L169.13 82.38L169.06 82.30Q169.10 78.31 169.10 74.46L169.14 74.49L169.08 74.43Q169.14 70.52 169.45 66.42L169.39 66.36L169.36 66.33Q167.37 69.05 158.98 82.75ZM174.97 94.64L174.91 94.58L174.89 94.56Q172.16 94.03 169.28 93.91L169.28 93.91L169.33 93.95Q169.08 90.22 168.90 86.24L168.95 86.30L168.90 86.24Q160.24 85.84 152.65 88.11L152.80 88.26L152.64 88.09Q152.84 87.32 153.15 85.73L153.20 85.78L153.17 85.75Q156.04 80.66 161.79 70.57L161.88 70.66L161.93 70.71Q166.52 62.82 172.03 56.58L172.06 56.61L171.92 56.47Q173.44 56.27 176.13 55.85L176.14 55.86L176.10 55.81Q173.08 66.20 173.08 77.52L173.07 77.51L172.98 77.42Q173.05 79.87 173.17 82.26L173.25 82.34L175.18 82.37L175.19 82.37Q176.21 82.48 177.19 82.66L177.22 82.69L177.25 82.73Q177.46 84.35 177.89 87.47L177.75 87.32L177.80 87.38Q175.79 86.90 173.41 86.59L173.38 86.56L173.50 86.69Q173.74 89.80 174.84 94.51ZM177.55 81.99L177.70 82.14L177.70 82.13Q177.35 81.97 177.04 81.97L177.00 81.92L176.37 81.91L176.33 81.87Q176.28 79.62 176.28 77.35L176.11 77.18L176.12 77.19Q176.23 67.02 179.54 57.36L179.43 57.25L179.47 57.29Q178.36 57.84 176.04 58.45L175.90 58.31L175.89 58.30Q176.36 57.18 177.09 54.92L177.00 54.82L176.99 54.81Q175.04 55.56 171.74 55.92L171.59 55.78L171.70 55.88Q165.37 62.83 156.99 77.88L157.08 77.98L160.27 71.93L160.31 71.97Q159.61 73.59 159.18 74.51L159.35 74.67L152.03 89.02L152.19 89.17Q153.20 88.90 155.03 88.29L154.98 88.24L154.73 88.60L154.83 88.69Q154.45 89.60 153.96 91.62L154.01 91.67L154.12 91.78Q160.69 89.60 168.46 89.91L168.39 89.83L168.53 89.97Q168.59 91.50 168.89 94.68L168.81 94.60L168.76 94.55Q170.59 94.67 172.31 94.85L172.16 94.71L172.24 94.79Q172.58 95.98 173.00 98.18L172.97 98.15L172.93 98.11Q176.05 98.54 180.89 100.01L180.78 99.90L180.70 99.82Q179.16 96.44 177.69 91.18L177.78 91.27L180.16 92.06L180.11 92.01Q181.23 92.39 182.33 92.94L182.21 92.82L182.30 92.92Q180.95 88.81 180.70 86.12L180.81 86.23L180.77 86.19Q179.88 85.97 178.04 85.60L177.95 85.51L177.99 85.54Q177.67 83.51 177.67 82.10ZM164.67 81.71L164.70 81.74L164.69 81.73Q166.02 79.76 168.53 75.66L168.43 75.56L168.50 75.63Q168.45 77.11 168.39 78.64L168.36 78.60L168.51 78.76Q168.46 80.30 168.52 81.83L168.41 81.72L168.58 81.89Q167.62 81.79 166.70 81.79L166.59 81.67L166.60 81.69Q165.76 81.82 164.78 81.82Z"/><path d="M14 44 C160 69,164 80,329 44" stroke="#3661e2" fill="none"/><path d="M8 51 C185 80,159 91,335 104" stroke="#e16f8b" fill="none"/><path d="M3 122 C177 125,163 20,341 28" stroke="#8ee6a4" fill="none"/><path d="M8 83 C189 68,158 129,331 86" stroke="#5779df" fill="none"/></svg>