<svg xmlns="http://www.w3.org/2000/svg" width="342" height="140" viewBox="0,0,342,140"><path d="M12 94 C170 16,183 36,326 39" stroke="#ef85ba" fill="none"/><path fill="#6fcceb" d="M192.10 83.72L192.18 83.80L192.22 83.83Q197.45 83.06 202.99 83.26L202.99 83.27L203.10 83.38Q203.01 78.93 203.01 74.78L202.95 74.72L203.05 74.82Q202.89 70.38 203.22 65.96L203.29 66.02L203.38 66.12Q201.17 68.98 192.13 83.75ZM209.26 96.46L209.36 96.56L209.40 96.60Q206.42 96.00 203.32 95.87L203.24 95.78L203.35 95.90Q203.01 91.79 202.81 87.51L202.71 87.41L202.75 87.45Q193.62 87.22 185.45 89.66L185.37 89.59L185.36 89.57Q185.48 88.64 185.81 86.93L185.92 87.03L185.92 87.03Q189.03 81.57 195.23 70.69L195.14 70.60L195.28 70.75Q200.15 62.16 206.09 55.44L206.17 55.52L206.11 55.45Q207.58 55.08 210.48 54.62L210.47 54.61L210.65 54.79Q207.33 65.91 207.33 78.11L207.25 78.03L207.23 78.01Q207.24 80.60 207.37 83.17L207.37 83.16L209.68 83.43L209.73 83.48Q210.60 83.36 211.66 83.56L211.65 83.55L211.75 83.65Q211.95 85.37 212.41 88.73L212.36 88.68L212.44 88.76Q210.36 88.33 207.79 88.00L207.67 87.88L207.81 88.02Q208.04 91.35 209.23 96.43ZM212.20 82.98L212.12 82.90L212.26 83.04Q211.95 82.93 211.62 82.93L211.63 82.94L210.98 82.94L210.88 82.85Q210.61 80.21 210.61 77.77L210.77 77.92L210.70 77.85Q210.72 66.79 214.28 56.37L214.20 56.30L214.28 56.37Q212.84 56.71 210.33 57.37L210.34 57.38L210.36 57.40Q210.79 56.11 211.58 53.67L211.55 53.65L211.57 53.67Q209.31 54.31 205.75 54.70L205.86 54.81L205.84 54.79Q199.09 62.35 190.05 78.57L190.06 78.58L193.56 72.12L193.52 72.08Q192.96 74.03 192.50 75.02L192.46 74.98L184.78 90.64L184.73 90.60Q185.81 90.29 187.79 89.63L187.91 89.75L187.60 90.10L187.61 90.11Q187.29 91.18 186.77 93.35L186.82 93.41L186.81 93.40Q193.85 91.01 202.23 91.34L202.37 91.49L202.40 91.51Q202.31 93.00 202.64 96.43L202.66 96.45L202.69 96.49Q204.52 96.47 206.37 96.67L206.42 96.72L206.50 96.80Q206.73 97.95 207.19 100.33L207.12 100.26L207.05 100.19Q210.36 100.60 215.57 102.18L215.68 102.29L215.68 102.29Q213.99 98.62 212.41 92.95L212.35 92.89L214.88 93.71L214.91 93.74Q215.95 93.98 217.14 94.58L217.23 94.67L217.19 94.63Q215.75 90.22 215.48 87.32L215.55 87.38L215.48 87.32Q214.54 87.10 212.56 86.70L212.55 86.70L212.52 86.67Q212.12 84.42 212.12 82.90ZM198.43 82.79L198.28 82.65L198.35 82.72Q199.73 80.53 202.43 76.11L202.45 76.13L202.45 76.14Q202.30 77.63 202.24 79.28L202.41 79.46L202.39 79.43Q202.36 81.12 202.43 82.77L202.47 82.81L202.39 82.73Q201.31 82.58 200.32 82.58L200.37 82.62L200.40 82.65Q199.33 82.64 198.27 82.64Z"/><path d="M13 110 C160 40,186 106,330 72" stroke="#e470aa" fill="none"/><path d="M20 69 C168 86,188 39,321 10" stroke="#bc8cec" fill="none"/><path d="M12 61 C191 20,172 77,334 11" stroke="#9c81ed" fill="none"/><path d="M18 119 C190 131,188 5,337 21" stroke="#97abe7" fill="none"/><path d="M14 32 C150 95,166 39,330 113" stroke="#71c3de" fill="none"/><path d="M10 92 C186 6,157 126,339 111" stroke="#e25ee2" fill="none"/><path d="M15 117 C171 37,188 66,324 6" stroke="#388ee5" fill="none"/><path d="M3 37 C192 52,178 137,338 122" stroke="#a066db" fill="none"/><path d="M5 117 C192 32,151 72,336 92" stroke="#71a8de" fill="none"/><path fill="#9bdc5a" d="M267.01 77.31L267.02 77.32L266.92 77.21Q263.82 77.35 261.71 79.66L261.58 79.52L261.55 79.50Q259.59 81.95 259.32 85.25L259.25 85.18L259.23 85.16Q258.84 88.79 260.95 90.53L260.95 90.53L261.02 90.60Q263.20 92.42 266.89 92.29L266.85 92.25L266.83 92.23Q270.93 92.04 272.58 90.39L272.55 90.36L272.56 90.38Q274.37 87.90 274.18 84.74L274.11 84.67L274.10 84.66Q273.84 81.37 271.96 79.29L272.04 79.37L272.06 79.39Q270.09 77.23 266.93 77.23ZM266.85 60.86L266.79 60.80L266.98 60.99Q264.53 60.79 262.22 61.64L262.10 61.52L262.18 61.59Q260.00 63.04 260.39 66.27L260.31 66.19L260.37 66.25Q261.15 72.64 266.95 72.64L266.98 72.67L266.92 72.60Q269.74 73.04 271.45 71.07L271.41 71.02L271.40 71.02Q273.14 69.06 273.20 66.36L273.23 66.38L273.13 66.28Q273.23 63.22 271.98 62.16L272.07 62.26L272.12 62.31Q269.04 60.68 266.80 60.81ZM266.51 96.59L266.53 96.61L261.07 96.43L261.24 96.59Q258.61 96.61 256.30 95.09L256.26 95.05L256.13 94.92Q253.86 93.04 254.12 88.10L254.05 88.02L254.14 88.11Q254.88 76.19 261.14 74.48L261.20 74.53L261.10 74.43Q257.15 72.86 254.85 63.56L254.85 63.57L254.82 63.53Q254.23 61.10 254.36 59.71L254.49 59.84L254.49 59.84Q254.89 56.02 261.28 55.95L261.33 56.00L261.28 55.95Q268.65 55.87 271.16 56.20L271.09 56.13L271.26 56.30Q277.78 57.08 278.57 60.58L278.59 60.60L278.70 60.71Q278.82 61.69 278.82 62.34L278.92 62.45L278.90 62.42Q278.91 63.63 278.58 64.68L278.52 64.61L278.41 64.50Q277.40 71.87 272.32 74.51L272.37 74.56L272.41 74.60Q278.46 75.97 279.32 85.13L279.21 85.03L279.20 85.01Q279.36 85.44 279.43 87.68L279.42 87.68L279.45 87.70Q279.51 92.38 276.74 94.23L276.67 94.16L276.69 94.18Q274.30 95.68 266.39 96.47ZM270.33 100.47L270.30 100.44L276.11 100.58L276.15 100.63Q279.25 100.89 281.89 99.64L281.89 99.64L281.81 99.56Q283.73 98.25 283.87 95.02L283.93 95.08L283.98 95.13Q284.00 93.18 283.34 89.81L283.41 89.88L283.36 89.83Q281.81 81.82 278.18 78.59L278.12 78.53L277.80 77.88L277.43 77.37L277.24 76.99L277.19 76.94Q279.95 74.49 281.53 67.30L281.53 67.29L281.61 67.37Q281.60 66.71 281.73 65.26L281.63 65.16L281.69 65.22Q281.81 64.02 281.68 62.96L281.69 62.98L281.78 63.07Q281.48 60.52 279.44 59.67L279.40 59.63L279.44 59.60L279.11 59.41L279.13 59.42Q278.68 58.19 276.64 56.80L276.59 56.75L276.73 56.83L276.75 56.85Q273.23 55.57 266.17 55.24L266.24 55.31L266.19 55.25Q263.60 55.17 261.23 55.37L261.21 55.35L261.09 55.23Q259.67 55.27 257.43 55.53L257.50 55.60L257.57 55.67Q254.11 56.23 253.71 59.06L253.76 59.12L253.70 59.05Q253.64 59.91 253.70 61.30L253.80 61.40L253.86 61.46Q254.01 62.33 255.00 66.42L255.00 66.42L254.92 66.34Q256.38 72.02 259.41 74.32L259.34 74.26L259.56 74.48L259.52 74.43Q254.79 76.76 253.86 85.73L253.84 85.70L253.72 85.58Q253.35 89.37 253.35 90.95L253.39 90.99L253.47 91.07Q253.54 94.11 255.58 95.69L255.59 95.69L255.69 95.79Q255.76 95.80 256.23 96.13L256.32 96.23L256.24 96.14Q257.98 100.07 270.32 100.46ZM269.70 81.26L269.86 81.41L269.83 81.39Q271.33 81.16 272.84 81.95L272.89 82.00L272.92 82.03Q273.59 83.76 273.53 84.68L273.51 84.67L273.51 84.67Q273.60 85.22 273.60 85.75L273.46 85.60L273.57 85.71Q273.46 89.70 269.51 91.15L269.64 91.28L269.67 91.31Q268.12 91.67 266.73 91.47L266.88 91.62L266.85 91.59Q264.97 91.82 262.99 91.03L263.02 91.05L262.91 90.94Q262.55 89.93 262.68 88.21L262.68 88.21L262.53 88.06Q262.85 85.34 264.92 83.23L264.94 83.25L264.91 83.22Q267.05 81.17 269.82 81.37ZM270.26 65.00L270.12 64.85L270.13 64.86Q271.54 64.69 272.46 64.96L272.49 64.98L272.49 66.37L272.50 66.37Q272.54 68.86 270.96 70.60L270.95 70.60L270.84 70.49Q269.30 72.27 266.92 71.95L266.93 71.95L266.92 71.94Q265.23 71.97 264.51 71.57L264.52 71.59L264.57 71.63Q264.49 71.16 264.30 69.98L264.21 69.89L264.20 69.88Q263.78 67.48 265.89 66.03L265.87 66.02L265.93 66.08Q267.82 64.93 270.26 65.00Z"/><path fill="#cd74eb" d="M76.76 92.44L76.61 92.29L76.75 92.43Q77.17 94.04 78.09 97.53L78.09 97.53L78.07 97.51Q70.84 95.30 62.86 95.76L62.76 95.66L62.80 95.69Q54.98 96.25 48.05 99.67L48.01 99.63L47.96 99.58Q48.31 98.35 48.38 98.48L48.50 98.61L48.46 98.56Q55.00 91.78 61.79 84.13L61.75 84.10L61.76 84.10Q69.38 75.44 71.42 67.32L71.39 67.29L71.37 67.27Q72.16 64.24 69.96 62.20L69.99 62.23L69.98 62.22Q67.76 60.16 64.66 60.43L64.77 60.54L64.75 60.52Q64.02 60.31 63.42 60.31L63.52 60.40L63.51 60.40Q60.83 60.36 58.66 61.94L58.57 61.86L58.71 62.00Q56.36 64.26 56.76 68.88L56.81 68.93L56.90 69.02Q53.71 68.34 51.60 67.55L51.57 67.51L51.55 67.50Q51.31 65.15 51.18 62.64L51.13 62.60L51.25 62.71Q50.95 59.71 52.00 57.73L52.15 57.87L52.04 57.76Q55.27 55.52 61.07 55.52L61.06 55.51L63.99 55.40L64.02 55.44Q67.87 55.40 69.52 55.60L69.66 55.74L69.61 55.68Q77.09 56.37 77.55 60.59L77.58 60.63L77.68 60.73Q77.71 61.61 77.57 62.99L77.56 62.98L77.56 62.98Q77.50 64.10 77.23 65.29L77.35 65.40L77.28 65.34Q74.50 79.43 61.38 91.30L61.26 91.18L61.38 91.30Q63.75 90.97 66.12 90.97L66.06 90.90L66.19 91.04Q71.68 90.92 76.62 92.31ZM75.63 56.23L75.78 56.38L75.72 56.32Q72.89 55.14 69.93 55.01L69.85 54.93L64.05 54.74L63.93 54.62Q56.30 54.24 52.47 56.15L52.51 56.19L52.49 56.17Q50.62 58.52 50.62 62.08L50.66 62.13L50.52 61.99Q50.62 63.27 51.15 68.15L51.14 68.14L51.16 68.16Q52.21 68.68 54.25 69.21L54.11 69.07L54.25 70.98L54.27 71.01Q54.21 71.80 54.34 72.73L54.17 72.55L54.25 72.63Q56.49 72.90 60.78 73.30L60.80 73.31L60.64 73.16Q60.65 72.57 60.65 71.98L60.68 72.01L60.71 72.05Q60.59 68.76 62.70 66.42L62.77 66.48L62.72 66.43Q64.91 64.17 68.00 64.37L67.90 64.26L67.97 64.33Q69.28 64.39 70.60 64.65L70.56 64.61L70.62 64.67Q70.83 65.35 70.96 66.07L71.01 66.12L70.90 66.01Q71.06 66.83 70.93 67.43L70.89 67.39L70.88 67.38Q68.63 75.54 60.98 83.92L61.06 84.00L61.01 83.95Q57.32 87.84 47.89 98.33L47.93 98.36L47.87 98.30Q47.64 99.86 47.05 100.85L47.04 100.84L47.05 100.85Q49.82 99.33 52.46 98.41L52.48 98.43L52.45 98.40Q51.11 99.30 49.46 101.87L49.58 102.00L49.42 101.84Q49.30 102.50 49.10 103.09L49.01 103.01L49.19 103.19Q57.46 99.46 66.96 99.79L67.02 99.85L67.06 99.89Q76.93 100.19 84.84 104.28L84.81 104.25L82.99 100.45L83.07 100.54Q81.95 98.23 81.49 96.85L81.57 96.92L81.57 96.92Q80.21 96.09 78.10 95.36L78.16 95.43L78.21 95.48Q77.87 94.14 77.21 91.77L77.18 91.75L77.11 91.67Q73.46 90.86 69.50 90.53L69.47 90.49L69.45 90.48Q77.50 82.50 80.13 68.19L80.09 68.14L80.44 63.15L80.49 63.20Q80.31 60.05 78.20 58.86L78.25 58.92L78.09 58.83L78.26 58.99Q78.19 58.86 78.06 58.86L77.95 58.75L78.03 58.83Q77.50 57.25 75.59 56.19Z"/><path d="M4 127 C151 27,183 2,329 40" stroke="#e5bc94" fill="none"/><path d="M20 61 C184 137,189 34,326 81" stroke="#69e83f" fill="none"/><path d="M6 46 C160 99,184 89,325 126" stroke="#e3e368" fill="none"/><path d="M20 51 C162 52,167 137,330 128" stroke="#4cc2ea" fill="none"/><path d="M20 80 C186 107,181 61,326 34" stroke="#dfdf43" fill="none"/><path d="M6 124 C187 26,151 128,336 2" stroke="#91bfec" fill="none"/><path d="M13 128 C177 15,183 60,327 21" stroke="#75e5ad" fill="none"/><path d="M11 42 C181 4,175 64,337 42" stroke="#8265dc" fill="none"/><path d="M11 109 C174 87,182 87,341 118" stroke="#cfe48f" fill="none"/><path d="M12 7 C186 49,163 36,340 101" stroke="#bce792" fill="none"/><path fill="#c2ea4c" d="M132.02 67.24L132.08 67.30L132.01 67.23Q126.47 67.23 123.31 65.39L123.36 65.44L123.28 65.36Q127.69 63.04 136.13 55.72L136.00 55.59L136.15 55.74Q137.29 55.30 139.53 54.25L139.65 54.36L139.67 54.39Q137.30 64.61 137.11 75.62L137.08 75.60L137.11 75.62Q136.80 86.53 138.65 97.08L138.79 97.22L138.64 97.07Q135.78 95.86 132.08 95.66L132.15 95.73L132.05 95.63Q132.02 88.61 132.02 81.55L131.94 81.47L132.00 81.53Q131.94 74.35 132.01 67.23ZM131.40 71.17L131.38 96.40L131.34 96.36Q133.49 96.40 135.14 96.73L135.16 96.75L135.15 96.75Q135.16 97.81 135.49 100.18L135.50 100.19L135.53 100.23Q140.55 101.22 144.77 105.11L144.81 105.15L144.71 105.05Q140.42 92.72 140.35 79.79L140.45 79.89L140.30 79.74Q140.23 66.87 143.39 54.34L143.34 54.30L143.36 54.31Q142.51 55.11 139.74 57.02L139.79 57.07L139.82 57.11Q140.02 55.66 140.55 53.02L140.54 53.01L140.63 53.10Q138.33 54.42 135.82 55.08L135.76 55.03L135.74 55.00Q129.14 61.13 121.69 65.09L121.76 65.15L121.69 65.09Q124.16 67.03 128.25 67.62L128.33 67.70L128.37 67.74Q127.26 68.68 125.02 70.53L125.03 70.53L124.89 70.40Q127.54 71.13 131.36 71.13L131.44 71.21Z"/><path d="M20 60 C152 108,172 60,326 57" stroke="#f1bc88" fill="none"/><path d="M8 39 C176 131,165 48,328 3" stroke="#52da96" fill="none"/><path d="M18 60 C173 78,185 98,338 30" stroke="#e87cb2" fill="none"/><path d="M8 103 C176 4,158 104,322 111" stroke="#d8d85e" fill="none"/><path d="M21 27 C181 128,177 3,327 99" stroke="#6febcc" fill="none"/><path d="M10 75 C151 93,159 106,332 127" stroke="#e0e03c" fill="none"/><path d="M5 19 C189 45,176 22,334 3" stroke="#7d96e2" fill="none"/><path d="M3 100 C173 93,155 25,335 115" stroke="#8ce433" fill="none"/><path d="M14 33 C182 83,189 25,332 109" stroke="#89a1eb" fill="none"/><path d="M20 123 C192 138,161 75,335 10" stroke="#e958e9" fill="none"/><path d="M20 121 C170 55,180 29,340 58" stroke="#d1e88b" fill="none"/><path d="M13 86 C191 6,168 47,332 126" stroke="#87e7cf" fill="none"/><path d="M14 124 C160 27,159 6,335 61" stroke="#92e7d1" fill="none"/><path d="M20 16 C151 50,159 56,330 44" stroke="#88f0f0" fill="none"/><path d="M9 139 C169 124,156 96,334 24" stroke="#8ce631" fill="none"/><path d="M16 102 C162 20,184 100,326 36" stroke="#87db6b" fill="none"/><path d="M10 108 C179 114,188 37,326 48" stroke="#a089e6" fill="none"/><path d="M9 90 C162 69,170 10,333 132" stroke="#53de76" fill="none"/><path d="M2 80 C187 29,172 55,335 82" stroke="#da5778" fill="none"/><path d="M2 79 C189 95,182 106,341 102" stroke="#bbe344" fill="none"/></svg>