<svg xmlns="http://www.w3.org/2000/svg" width="342" height="140" viewBox="0,0,342,140"><path d="M15 67 C166 61,157 135,334 93" stroke="#b780ee" fill="none"/><path d="M8 86 C159 43,167 5,332 118" stroke="#8ee13b" fill="none"/><path d="M5 136 C178 107,156 15,328 72" stroke="#aa72e3" fill="none"/><path d="M4 95 C179 51,158 55,321 31" stroke="#64c6e6" fill="none"/><path d="M3 50 C184 119,157 122,331 134" stroke="#c779e1" fill="none"/><path d="M16 122 C186 94,185 127,337 120" stroke="#eded62" fill="none"/><path fill="#8ed646" d="M75.94 90.35L75.86 90.27L75.91 90.32Q76.34 91.83 77.18 95.00L77.14 94.97L77.13 94.95Q70.54 92.91 63.30 93.33L63.30 93.33L63.29 93.32Q56.19 93.82 49.91 96.93L49.93 96.94L49.76 96.78Q50.17 95.76 50.23 95.88L50.23 95.87L50.32 95.96Q56.20 89.76 62.36 82.82L62.21 82.67L62.35 82.80Q69.29 74.97 71.15 67.61L71.07 67.53L71.13 67.60Q71.88 64.88 69.88 63.03L69.76 62.91L69.77 62.92Q67.82 61.12 65.01 61.36L64.93 61.28L64.93 61.28Q64.48 61.31 63.94 61.31L63.92 61.28L63.83 61.19Q61.50 61.26 59.53 62.70L59.63 62.80L59.55 62.71Q57.46 64.81 57.82 69.00L57.83 69.01L57.93 69.11Q55.08 68.54 53.17 67.82L53.10 67.75L53.10 67.75Q52.88 65.62 52.76 63.34L52.64 63.23L52.77 63.35Q52.59 60.72 53.55 58.93L53.53 58.91L53.51 58.89Q56.28 56.70 61.55 56.70L61.61 56.76L64.43 56.82L64.48 56.88Q68.00 56.87 69.49 57.05L69.45 57.01L69.37 56.93Q76.28 57.67 76.70 61.50L76.67 61.47L76.69 61.49Q76.90 62.48 76.78 63.74L76.80 63.75L76.61 63.56Q76.60 64.63 76.36 65.71L76.31 65.66L76.38 65.73Q73.85 78.51 61.94 89.28L61.95 89.29L61.88 89.22Q64.13 89.01 66.29 89.01L66.32 89.05L66.32 89.04Q71.43 89.07 75.92 90.33ZM75.05 57.63L74.90 57.49L75.06 57.64Q72.50 56.58 69.80 56.46L69.70 56.36L64.39 56.13L64.45 56.19Q57.31 55.63 53.84 57.36L53.82 57.34L53.82 57.35Q52.21 59.56 52.21 62.79L52.23 62.81L52.34 62.92Q52.33 63.99 52.81 68.42L52.70 68.31L52.68 68.29Q53.66 68.79 55.51 69.27L55.40 69.15L55.55 70.92L55.50 70.87Q55.47 71.61 55.59 72.45L55.60 72.46L55.56 72.43Q57.60 72.67 61.49 73.03L61.34 72.88L61.44 72.98Q61.23 72.24 61.23 71.70L61.26 71.72L61.28 71.74Q61.39 68.98 63.30 66.86L63.25 66.81L63.22 66.77Q65.08 64.59 67.89 64.77L67.96 64.85L68.02 64.91Q69.15 64.90 70.35 65.14L70.37 65.16L70.27 65.06Q70.63 65.84 70.75 66.50L70.72 66.47L70.73 66.48Q70.76 67.11 70.64 67.65L70.51 67.51L70.70 67.70Q68.55 75.01 61.61 82.61L61.60 82.59L61.74 82.74Q58.25 86.12 49.69 95.63L49.81 95.75L49.84 95.78Q49.48 97.04 48.95 97.94L48.86 97.85L48.87 97.86Q51.50 96.60 53.89 95.77L53.85 95.73L53.77 95.64Q52.62 96.52 51.12 98.86L51.32 99.05L51.19 98.93Q50.98 99.44 50.80 99.98L50.81 99.98L50.87 100.04Q58.44 96.73 67.06 97.03L67.20 97.17L67.22 97.18Q75.95 97.25 83.13 100.96L83.16 100.98L81.60 97.63L81.72 97.74Q80.63 95.58 80.21 94.33L80.21 94.32L80.22 94.33Q79.13 93.72 77.22 93.07L77.17 93.02L77.16 93.01Q76.85 91.81 76.26 89.65L76.26 89.66L76.25 89.65Q72.83 88.80 69.24 88.50L69.27 88.53L69.24 88.50Q76.64 81.36 79.03 68.38L79.06 68.41L79.33 63.83L79.41 63.92Q79.31 61.12 77.40 60.05L77.25 59.90L77.25 59.96L77.32 60.03Q77.10 59.75 76.98 59.75L77.15 59.92L77.16 59.92Q76.63 58.44 74.90 57.49Z"/><path d="M7 128 C154 50,191 111,329 12" stroke="#e4e457" fill="none"/><path d="M14 137 C169 36,156 138,340 123" stroke="#e6e655" fill="none"/><path d="M3 101 C172 71,183 125,329 19" stroke="#89e6b7" fill="none"/><path d="M17 100 C169 118,183 114,325 130" stroke="#ea7fea" fill="none"/><path d="M20 25 C189 38,188 115,336 10" stroke="#ba8ee5" fill="none"/><path d="M2 33 C163 37,151 48,326 129" stroke="#7bee98" fill="none"/><path d="M20 103 C179 39,151 32,336 53" stroke="#8163d8" fill="none"/><path d="M16 84 C179 64,153 103,335 61" stroke="#d8bb63" fill="none"/><path fill="#c1dd6d" d="M132.39 67.50L132.30 67.41L132.35 67.46Q127.44 67.57 124.57 65.89L124.55 65.88L124.54 65.87Q128.40 63.63 136.06 56.99L136.02 56.95L136.11 57.04Q137.23 56.73 139.27 55.77L139.23 55.73L139.22 55.72Q137.20 65.12 137.02 75.11L136.92 75.02L136.93 75.03Q136.78 85.05 138.46 94.62L138.48 94.65L138.57 94.74Q135.76 93.42 132.41 93.24L132.49 93.33L132.51 93.34Q132.41 86.90 132.41 80.50L132.35 80.44L132.23 80.32Q132.31 73.94 132.37 67.48ZM131.71 70.95L131.76 93.90L131.74 93.89Q133.70 93.94 135.20 94.23L135.25 94.29L135.18 94.22Q135.29 95.28 135.59 97.43L135.59 97.44L135.54 97.39Q140.10 98.29 143.92 101.82L144.00 101.90L143.95 101.85Q140.00 90.60 139.94 78.88L140.02 78.95L139.95 78.89Q139.80 67.13 142.67 55.76L142.80 55.90L142.79 55.88Q141.93 56.52 139.42 58.25L139.31 58.15L139.43 58.27Q139.66 57.00 140.14 54.60L140.25 54.72L140.18 54.65Q137.97 55.73 135.69 56.32L135.87 56.50L135.79 56.42Q129.96 62.14 123.20 65.72L123.17 65.70L123.04 65.56Q125.26 67.31 128.97 67.85L129.01 67.89L129.08 67.96Q127.94 68.67 125.90 70.34L126.03 70.47L125.91 70.35Q128.30 71.01 131.77 71.01L131.78 71.02Z"/><path d="M8 132 C190 72,172 45,336 113" stroke="#84cde5" fill="none"/><path d="M11 16 C168 29,180 7,337 116" stroke="#d99b5d" fill="none"/><path d="M5 127 C157 41,192 53,332 71" stroke="#43df43" fill="none"/><path d="M2 46 C190 41,175 27,322 119" stroke="#cae57a" fill="none"/><path fill="#e645be" d="M199.21 76.36L199.30 76.46L199.32 76.48Q196.37 76.22 194.42 78.46L194.42 78.45L194.54 78.57Q192.62 80.85 192.32 83.84L192.18 83.70L192.20 83.72Q191.93 87.04 193.64 88.56L193.53 88.46L193.51 88.44Q195.22 89.96 198.51 89.78L198.51 89.79L198.56 89.84Q201.94 89.68 203.67 88.61L203.63 88.57L203.67 88.61Q205.40 86.80 205.40 84.35L205.45 84.40L205.47 84.42Q205.48 83.83 205.36 83.23L205.25 83.13L205.31 83.18Q205.49 80.61 203.76 78.49L203.72 78.46L203.70 78.44Q202.02 76.37 199.39 76.55ZM198.66 93.95L198.56 93.84L198.60 93.88Q191.78 93.94 189.56 92.74L189.49 92.67L189.56 92.74Q187.91 91.51 187.61 88.82L187.61 88.82L187.67 88.88Q187.56 87.75 187.62 86.61L187.60 86.59L187.68 86.68Q187.80 85.06 187.80 84.34L187.88 84.42L187.82 84.36Q188.58 79.91 188.82 78.84L188.72 78.73L188.87 78.89Q189.40 75.65 190.72 73.44L190.88 73.60L190.84 73.56Q194.99 66.64 204.32 56.65L204.40 56.73L204.27 56.60Q208.43 56.09 211.90 54.84L211.93 54.87L212.04 54.98Q201.20 66.63 196.18 73.27L196.23 73.33L196.16 73.25Q197.82 72.59 199.86 72.59L199.84 72.57L199.85 72.58Q204.96 72.48 207.35 75.53L207.33 75.51L207.30 75.48Q209.48 78.14 210.02 83.70L210.06 83.75L209.96 83.65Q210.15 84.85 210.15 85.81L210.12 85.79L210.16 85.83Q210.17 90.74 206.71 92.42L206.72 92.43L206.65 92.37Q204.70 93.29 198.60 93.89ZM202.33 97.79L202.33 97.80L202.20 97.66Q204.30 97.67 207.41 97.79L207.48 97.86L207.32 97.70Q209.92 97.85 212.37 96.71L212.31 96.65L212.34 96.67Q214.16 95.51 214.16 92.69L214.11 92.64L214.22 92.75Q214.20 91.96 213.93 90.40L213.93 90.40L213.94 90.41Q213.69 88.88 213.69 88.16L213.63 88.10L213.53 88.00Q212.31 80.74 209.80 77.75L209.69 77.64L209.78 77.72Q209.58 77.47 209.34 77.11L209.42 77.18L208.85 76.73L208.76 76.70L208.80 76.74Q208.17 75.88 207.22 74.38L207.18 74.35L207.26 74.43Q205.87 72.97 202.76 72.26L202.69 72.19L202.64 72.14Q204.68 69.76 209.35 63.95L209.23 63.84L215.97 55.62L215.89 55.54Q213.46 56.94 209.69 58.13L209.77 58.21L209.71 58.15Q211.16 56.61 213.98 53.50L214.05 53.58L214.02 53.54Q210.29 55.26 204.19 56.16L204.15 56.12L204.09 56.06Q195.20 65.41 190.53 73.19L190.43 73.09L190.39 73.05Q188.01 77.01 187.11 86.82L187.15 86.86L187.23 86.94Q187.03 87.76 187.15 89.26L187.25 89.35L187.14 89.24Q187.20 91.93 188.93 93.37L189.10 93.53L188.98 93.42Q189.67 93.74 189.61 93.80L189.58 93.78L189.62 93.81Q190.22 95.26 191.48 95.92L191.50 95.94L191.48 95.91Q193.77 97.01 196.82 97.31L196.71 97.20L196.67 97.15Q196.64 97.13 202.15 97.61ZM201.88 80.06L201.96 80.14L201.81 79.98Q202.78 79.88 204.28 80.66L204.34 80.72L204.20 80.58Q204.78 82.12 204.78 83.14L204.76 83.11L204.73 83.08Q205.03 86.01 203.53 87.57L203.57 87.61L203.56 87.60Q201.97 88.81 198.68 89.29L198.56 89.17L198.55 89.16Q196.36 89.25 195.52 88.83L195.60 88.91L195.61 88.92Q195.15 88.04 195.15 87.56L195.31 87.72L195.29 87.70Q194.85 82.48 199.46 80.45L199.45 80.43L199.48 80.47Q200.59 79.84 201.79 79.96Z"/><path d="M7 72 C162 57,174 85,321 13" stroke="#3f3fe8" fill="none"/><path d="M9 102 C174 82,162 15,331 8" stroke="#a067da" fill="none"/><path d="M10 93 C184 78,180 111,325 49" stroke="#7e5aeb" fill="none"/><path d="M14 81 C187 108,159 36,331 131" stroke="#ea89ea" fill="none"/><path d="M6 30 C173 92,183 68,324 43" stroke="#e439e4" fill="none"/><path d="M8 121 C151 127,178 132,339 88" stroke="#9e5ede" fill="none"/><path d="M18 21 C162 98,161 136,332 62" stroke="#c86fe6" fill="none"/><path d="M5 76 C173 33,161 47,328 118" stroke="#4bb0d2" fill="none"/><path d="M12 48 C161 64,155 35,339 67" stroke="#7d7de2" fill="none"/><path d="M20 16 C176 37,170 93,333 121" stroke="#e245ba" fill="none"/><path d="M20 39 C150 50,152 54,326 68" stroke="#6161db" fill="none"/><path d="M6 92 C183 36,183 111,323 92" stroke="#7ff0f0" fill="none"/><path d="M3 6 C152 28,150 65,335 41" stroke="#e4436b" fill="none"/><path d="M2 10 C153 48,179 43,325 96" stroke="#3fd965" fill="none"/><path d="M11 68 C178 38,162 32,323 116" stroke="#d4b043" fill="none"/><path d="M4 82 C165 83,173 55,340 112" stroke="#3636e2" fill="none"/><path d="M9 126 C160 36,172 41,332 84" stroke="#ebeb7e" fill="none"/><path d="M17 107 C169 61,156 8,331 32" stroke="#7ddf5d" fill="none"/><path d="M11 104 C178 115,161 123,337 114" stroke="#caed62" fill="none"/><path d="M7 44 C174 15,186 130,339 12" stroke="#79ebcf" fill="none"/><path d="M7 50 C186 130,188 94,331 61" stroke="#6be4a8" fill="none"/><path fill="#60eb82" d="M268.45 67.56L268.39 67.49L268.39 67.49Q263.27 67.40 260.40 65.73L260.40 65.73L260.50 65.83Q264.38 63.60 272.03 56.96L272.15 57.08L272.11 57.04Q273.33 56.82 275.36 55.86L275.17 55.67L275.22 55.72Q273.08 65.01 272.90 75.00L273.03 75.13L273.04 75.14Q272.89 85.16 274.57 94.73L274.46 94.62L274.57 94.73Q271.88 93.54 268.53 93.36L268.60 93.43L268.56 93.39Q268.26 86.75 268.26 80.35L268.26 80.35L268.23 80.32Q268.29 73.91 268.35 67.45ZM267.76 71.00L267.69 93.83L267.68 93.83Q269.66 93.90 271.16 94.20L271.22 94.25L271.21 94.25Q271.32 95.32 271.62 97.47L271.58 97.43L271.67 97.51Q276.12 98.31 279.94 101.84L280.01 101.91L280.02 101.92Q276.07 90.67 276.01 78.95L276.06 79.00L275.91 78.84Q275.91 67.24 278.78 55.88L278.74 55.83L278.74 55.83Q277.84 56.42 275.32 58.16L275.39 58.23L275.46 58.30Q275.62 56.95 276.09 54.56L276.12 54.59L276.08 54.55Q274.12 55.88 271.85 56.48L271.82 56.45L271.83 56.46Q265.84 62.01 259.08 65.60L259.14 65.66L259.10 65.62Q261.33 67.38 265.04 67.92L264.96 67.83L265.01 67.88Q264.08 68.81 262.05 70.49L261.98 70.42L261.91 70.34Q264.28 70.98 267.75 70.98L267.76 70.99Z"/><path d="M7 44 C187 25,159 16,322 3" stroke="#65e03c" fill="none"/></svg>