<svg xmlns="http://www.w3.org/2000/svg" width="342" height="140" viewBox="0,0,342,140"><path d="M7 126 C188 55,185 8,333 12" stroke="#eb9579" fill="none"/><path d="M8 53 C188 57,153 127,335 127" stroke="#de8e3f" fill="none"/><path d="M1 104 C153 123,166 7,335 135" stroke="#db66bd" fill="none"/><path d="M7 39 C168 61,187 99,335 70" stroke="#45d7b3" fill="none"/><path d="M9 80 C169 8,167 43,327 116" stroke="#df6bdf" fill="none"/><path d="M7 17 C185 34,155 48,341 74" stroke="#e674ad" fill="none"/><path d="M10 17 C158 2,183 43,340 117" stroke="#86e8e8" fill="none"/><path d="M7 54 C187 50,183 11,330 80" stroke="#b5e485" fill="none"/><path d="M2 77 C186 122,185 90,336 60" stroke="#d34ad3" fill="none"/><path d="M20 90 C186 85,187 128,324 6" stroke="#6b42e5" fill="none"/><path d="M17 8 C151 48,159 2,322 88" stroke="#ee809c" fill="none"/><path d="M19 3 C191 99,171 44,334 17" stroke="#42e593" fill="none"/><path d="M16 114 C175 57,155 67,340 23" stroke="#a569e1" fill="none"/><path d="M11 12 C179 61,169 31,329 117" stroke="#71a8de" fill="none"/><path d="M5 16 C186 23,171 130,334 24" stroke="#8eeabc" fill="none"/><path d="M18 25 C173 114,178 89,331 52" stroke="#83e1ca" fill="none"/><path d="M14 35 C162 53,168 34,335 46" stroke="#59e77d" fill="none"/><path d="M9 123 C191 32,184 55,322 49" stroke="#7ddf5c" fill="none"/><path d="M19 124 C156 19,182 13,323 114" stroke="#4545d7" fill="none"/><path fill="#7858d9" d="M75.39 88.95L75.36 88.92L75.43 89.00Q75.70 90.27 76.48 93.22L76.56 93.30L76.64 93.38Q70.40 91.38 63.65 91.77L63.64 91.75L63.62 91.74Q56.90 92.09 51.04 94.99L51.03 94.97L51.11 95.05Q51.34 93.95 51.40 94.06L51.53 94.20L51.43 94.09Q56.97 88.38 62.71 81.91L62.61 81.81L62.62 81.82Q69.21 74.64 70.94 67.78L70.83 67.67L70.79 67.63Q71.53 65.14 69.66 63.41L69.71 63.46L69.68 63.43Q67.89 61.78 65.27 62.01L65.19 61.92L65.23 61.96Q64.77 61.94 64.26 61.94L64.12 61.80L64.14 61.82Q61.90 61.81 60.06 63.15L60.09 63.18L60.16 63.24Q58.17 65.16 58.51 69.06L58.61 69.17L58.49 69.05Q55.91 68.59 54.13 67.92L54.11 67.90L54.17 67.96Q53.93 65.93 53.81 63.81L53.66 63.66L53.82 63.82Q53.57 61.28 54.46 59.61L54.57 59.72L54.63 59.78Q57.12 57.65 62.03 57.65L62.10 57.72L64.60 57.65L64.54 57.60Q68.00 57.76 69.39 57.93L69.39 57.93L69.42 57.95Q75.70 58.49 76.09 62.06L76.16 62.14L76.03 62.00Q76.23 62.93 76.12 64.10L76.19 64.17L76.12 64.10Q76.05 65.04 75.83 66.04L75.79 66.00L75.80 66.01Q73.45 77.93 62.35 87.96L62.33 87.93L62.36 87.97Q64.35 87.67 66.36 87.67L66.44 87.75L66.47 87.79Q71.21 87.79 75.39 88.96ZM74.55 58.46L74.42 58.33L74.48 58.39Q72.20 57.51 69.69 57.39L69.70 57.40L64.71 57.15L64.63 57.07Q58.03 56.60 54.80 58.22L54.91 58.33L54.91 58.33Q53.31 60.30 53.31 63.31L53.36 63.36L53.23 63.23Q53.46 64.46 53.90 68.59L53.84 68.52L53.76 68.44Q54.53 68.77 56.26 69.21L56.40 69.35L56.41 70.87L56.40 70.86Q56.20 71.38 56.31 72.16L56.30 72.15L56.42 72.27Q58.17 72.35 61.79 72.68L61.77 72.67L61.81 72.71Q61.84 72.23 61.84 71.73L61.79 71.68L61.78 71.67Q61.81 69.02 63.59 67.04L63.56 67.01L63.67 67.12Q65.45 65.14 68.07 65.30L67.92 65.15L67.92 65.15Q69.17 65.34 70.28 65.56L70.12 65.40L70.20 65.48Q70.34 66.02 70.45 66.63L70.54 66.71L70.44 66.61Q70.49 67.22 70.38 67.72L70.36 67.71L70.50 67.85Q68.49 74.64 62.03 81.72L62.16 81.86L62.05 81.75Q59.08 85.19 51.11 94.05L51.05 94.00L51.00 93.94Q50.80 95.25 50.30 96.08L50.19 95.98L50.31 96.10Q52.67 94.83 54.90 94.05L54.75 93.91L54.78 93.94Q53.83 94.88 52.43 97.05L52.30 96.91L52.29 96.91Q52.26 97.54 52.09 98.04L52.03 97.99L52.09 98.04Q59.13 94.94 67.16 95.22L67.20 95.26L67.15 95.21Q75.57 95.55 82.26 99.00L82.11 98.86L80.72 95.79L80.73 95.80Q79.69 93.76 79.30 92.59L79.32 92.61L79.33 92.62Q78.39 92.12 76.60 91.51L76.54 91.44L76.52 91.42Q76.24 90.31 75.68 88.30L75.68 88.30L75.83 88.45Q72.49 87.50 69.14 87.22L69.28 87.36L69.22 87.30Q75.96 80.50 78.19 68.40L78.29 68.50L78.61 64.31L78.60 64.29Q78.50 61.68 76.71 60.68L76.63 60.60L76.54 60.56L76.55 60.57Q76.48 60.45 76.37 60.45L76.41 60.49L76.51 60.59Q76.17 59.35 74.55 58.46Z"/><path fill="#e19e5a" d="M279.42 88.99L279.41 88.97L279.24 88.81Q279.69 90.26 280.47 93.21L280.47 93.21L280.60 93.34Q274.30 91.28 267.55 91.67L267.57 91.68L267.57 91.68Q260.99 92.19 255.14 95.09L255.09 95.03L255.15 95.10Q255.44 94.05 255.50 94.17L255.43 94.09L255.45 94.12Q260.85 88.26 266.60 81.79L266.77 81.97L266.59 81.78Q273.05 74.48 274.78 67.62L274.77 67.62L274.82 67.67Q275.57 65.18 273.70 63.45L273.76 63.51L273.76 63.51Q271.81 61.70 269.19 61.92L269.16 61.89L269.15 61.88Q268.61 61.79 268.11 61.79L268.14 61.82L268.18 61.86Q265.91 61.82 264.07 63.16L264.07 63.16L264.12 63.21Q262.29 65.28 262.62 69.18L262.54 69.10L262.57 69.12Q259.89 68.56 258.10 67.89L258.16 67.95L258.18 67.96Q257.84 65.84 257.73 63.72L257.74 63.74L257.69 63.68Q257.74 61.46 258.63 59.78L258.58 59.73L258.54 59.69Q261.11 57.63 266.02 57.63L265.97 57.59L268.68 57.73L268.64 57.70Q271.99 57.75 273.38 57.92L273.46 58.00L273.46 58.00Q279.77 58.57 280.16 62.13L280.09 62.06L280.21 62.18Q280.27 62.97 280.16 64.14L280.12 64.10L280.17 64.15Q280.08 65.07 279.86 66.07L279.89 66.10L279.87 66.08Q277.40 77.88 266.31 87.92L266.35 87.95L266.31 87.92Q268.41 87.73 270.42 87.73L270.45 87.77L270.44 87.75Q275.24 87.81 279.42 88.98ZM278.53 58.44L278.52 58.44L278.57 58.48Q276.07 57.37 273.56 57.26L273.59 57.29L268.55 56.99L268.59 57.03Q262.16 56.74 258.93 58.35L258.93 58.35L258.96 58.38Q257.41 60.40 257.41 63.41L257.26 63.26L257.35 63.35Q257.40 64.40 257.84 68.53L257.78 68.46L257.86 68.54Q258.58 68.82 260.31 69.26L260.26 69.21L260.41 70.87L260.27 70.73Q260.33 71.51 260.44 72.29L260.31 72.16L260.33 72.19Q262.30 72.48 265.93 72.82L265.86 72.75L265.85 72.74Q265.87 72.26 265.87 71.76L265.85 71.74L265.80 71.68Q265.84 69.05 267.62 67.07L267.59 67.04L267.48 66.93Q269.44 65.13 272.06 65.30L271.89 65.12L272.00 65.23Q273.15 65.33 274.27 65.55L274.11 65.39L274.19 65.48Q274.34 66.01 274.45 66.62L274.55 66.73L274.49 66.67Q274.44 67.17 274.33 67.68L274.33 67.67L274.42 67.76Q272.61 74.76 266.14 81.84L266.09 81.79L266.08 81.78Q263.09 85.20 255.12 94.06L255.12 94.06L255.12 94.06Q254.78 95.23 254.28 96.07L254.24 96.03L254.30 96.09Q256.68 94.84 258.91 94.06L258.87 94.02L258.74 93.89Q257.71 94.76 256.31 96.93L256.44 97.06L256.28 96.89Q256.14 97.43 255.98 97.93L256.01 97.96L256.10 98.06Q263.22 95.03 271.25 95.31L271.12 95.18L271.21 95.27Q279.45 95.43 286.14 98.88L286.16 98.91L284.83 95.90L284.81 95.89Q283.74 93.80 283.35 92.63L283.37 92.66L283.47 92.76Q282.42 92.16 280.64 91.54L280.54 91.45L280.49 91.40Q280.40 90.47 279.85 88.47L279.69 88.31L279.85 88.46Q276.48 87.50 273.14 87.22L273.29 87.37L273.22 87.30Q280.00 80.54 282.23 68.44L282.27 68.48L282.58 64.28L282.59 64.28Q282.53 61.71 280.74 60.71L280.70 60.67L280.71 60.73L280.53 60.55Q280.48 60.45 280.37 60.45L280.35 60.43L280.43 60.51Q280.21 59.40 278.59 58.50Z"/><path d="M3 91 C151 104,164 32,333 82" stroke="#587ade" fill="none"/><path d="M15 72 C164 26,186 56,330 10" stroke="#ba5cda" fill="none"/><path d="M7 16 C169 33,188 97,334 112" stroke="#724ce5" fill="none"/><path d="M19 83 C178 5,164 38,325 73" stroke="#e0c984" fill="none"/><path d="M18 120 C188 58,176 102,333 129" stroke="#a0e689" fill="none"/><path d="M8 90 C165 87,152 85,337 100" stroke="#e362c3" fill="none"/><path d="M11 99 C167 132,176 92,339 133" stroke="#7cd1ed" fill="none"/><path d="M12 49 C173 29,172 107,325 46" stroke="#6262e8" fill="none"/><path d="M19 53 C185 87,151 105,328 46" stroke="#9140e2" fill="none"/><path d="M17 36 C158 8,164 106,338 6" stroke="#8bbced" fill="none"/><path d="M14 120 C167 13,160 39,324 28" stroke="#d85ed8" fill="none"/><path d="M5 132 C171 20,164 8,330 53" stroke="#69d246" fill="none"/><path d="M15 130 C155 1,167 30,323 110" stroke="#6464e6" fill="none"/><path d="M9 56 C155 45,163 87,329 92" stroke="#e665c5" fill="none"/><path d="M14 108 C180 122,184 121,324 49" stroke="#e86d8c" fill="none"/><path fill="#7a56e5" d="M143.30 88.87L143.28 88.85L143.28 88.85Q143.71 90.28 144.49 93.24L144.49 93.24L144.62 93.36Q138.31 91.29 131.56 91.68L131.69 91.80L131.58 91.70Q124.94 92.13 119.08 95.03L118.99 94.94L119.17 95.12Q119.47 94.08 119.53 94.19L119.45 94.11L119.53 94.19Q125.01 88.42 130.75 81.95L130.64 81.83L130.71 81.91Q137.24 74.67 138.97 67.81L138.85 67.70L138.95 67.79Q139.58 65.19 137.72 63.47L137.61 63.36L137.67 63.42Q135.89 61.78 133.27 62.00L133.25 61.98L133.12 61.85Q132.73 61.91 132.23 61.91L132.26 61.94L132.24 61.92Q130.03 61.94 128.19 63.28L128.11 63.19L128.17 63.26Q126.24 65.22 126.57 69.13L126.55 69.11L126.65 69.21Q123.97 68.64 122.18 67.97L122.19 67.98L122.06 67.85Q121.83 65.83 121.72 63.72L121.76 63.76L121.68 63.68Q121.70 61.41 122.59 59.74L122.60 59.75L122.53 59.68Q125.14 57.66 130.05 57.66L130.13 57.75L132.65 57.70L132.67 57.72Q135.99 57.76 137.39 57.92L137.27 57.81L137.30 57.84Q143.78 58.58 144.17 62.14L144.08 62.06L144.16 62.13Q144.19 62.89 144.08 64.06L144.10 64.09L144.05 64.03Q144.12 65.10 143.89 66.10L143.79 66.00L143.82 66.03Q141.47 77.96 130.38 87.99L130.32 87.92L130.38 87.98Q132.48 87.80 134.48 87.80L134.45 87.76L134.50 87.82Q139.12 87.69 143.30 88.87ZM142.48 58.39L142.40 58.31L142.55 58.46Q140.15 57.46 137.65 57.35L137.67 57.37L132.71 57.15L132.65 57.09Q126.05 56.62 122.81 58.24L122.83 58.25L122.82 58.24Q121.38 60.37 121.38 63.38L121.35 63.35L121.34 63.34Q121.37 64.37 121.81 68.49L121.84 68.53L121.75 68.44Q122.64 68.88 124.37 69.32L124.23 69.18L124.36 70.82L124.30 70.76Q124.17 71.35 124.28 72.13L124.35 72.20L124.28 72.14Q126.22 72.40 129.84 72.74L129.85 72.74L129.90 72.79Q129.73 72.12 129.73 71.62L129.83 71.72L129.74 71.63Q129.80 69.01 131.58 67.03L131.62 67.07L131.64 67.09Q133.29 64.97 135.91 65.14L136.02 65.26L135.97 65.20Q137.06 65.24 138.18 65.46L138.11 65.39L138.15 65.43Q138.39 66.06 138.50 66.67L138.45 66.62L138.40 66.58Q138.49 67.22 138.38 67.72L138.48 67.83L138.34 67.68Q136.63 74.78 130.16 81.86L130.05 81.75L130.19 81.89Q126.92 85.03 118.95 93.89L118.99 93.94L118.93 93.88Q118.69 95.14 118.19 95.98L118.34 96.13L118.22 96.01Q120.65 94.81 122.87 94.03L122.75 93.90L122.74 93.90Q121.68 94.73 120.29 96.91L120.46 97.08L120.45 97.07Q120.13 97.41 119.96 97.91L120.13 98.08L119.94 97.89Q127.09 94.90 135.12 95.18L135.21 95.28L135.14 95.20Q143.59 95.57 150.28 99.03L150.28 99.02L148.64 95.71L148.74 95.81Q147.79 93.86 147.40 92.69L147.31 92.60L147.31 92.60Q146.43 92.16 144.64 91.55L144.59 91.49L144.64 91.55Q144.34 90.41 143.78 88.40L143.87 88.49L143.68 88.30Q140.46 87.47 137.11 87.20L137.28 87.36L137.22 87.31Q144.05 80.58 146.28 68.49L146.33 68.54L146.58 64.27L146.58 64.27Q146.45 61.63 144.66 60.63L144.69 60.66L144.51 60.54L144.71 60.73Q144.64 60.61 144.53 60.61L144.36 60.44L144.47 60.54Q144.09 59.28 142.47 58.38Z"/><path d="M13 131 C170 98,165 100,341 44" stroke="#8dd0e6" fill="none"/><path d="M14 48 C181 9,156 129,323 30" stroke="#51ea77" fill="none"/><path d="M13 56 C171 11,192 15,334 48" stroke="#4fd893" fill="none"/><path d="M4 22 C189 78,156 102,324 31" stroke="#7a97ef" fill="none"/><path d="M15 79 C152 72,180 56,338 3" stroke="#eb9579" fill="none"/><path d="M16 72 C156 66,151 34,340 49" stroke="#bc94e4" fill="none"/><path fill="#df76df" d="M200.70 67.73L200.59 67.63L200.56 67.59Q195.91 67.62 193.23 66.06L193.32 66.15L193.34 66.17Q196.86 64.01 204.00 57.82L204.01 57.83L204.18 58.00Q205.07 57.55 206.96 56.66L207.00 56.69L207.14 56.83Q205.05 65.39 204.89 74.70L204.95 74.76L204.82 74.64Q204.80 84.10 206.36 93.02L206.33 92.99L206.23 92.89Q203.94 91.99 200.82 91.82L200.70 91.70L200.64 91.64Q200.51 85.60 200.51 79.64L200.48 79.61L200.59 79.72Q200.65 73.76 200.71 67.74ZM200.06 70.94L200.04 92.27L200.10 92.33Q201.86 92.30 203.25 92.58L203.15 92.48L203.24 92.57Q203.43 93.65 203.71 95.66L203.69 95.64L203.62 95.56Q207.77 96.32 211.34 99.61L211.40 99.67L211.29 99.56Q207.80 89.26 207.74 78.34L207.63 78.22L207.65 78.25Q207.57 67.36 210.25 56.77L210.27 56.79L210.21 56.72Q209.43 57.34 207.09 58.96L207.14 59.01L207.13 59.00Q207.50 57.97 207.94 55.74L207.89 55.69L207.89 55.69Q205.95 56.81 203.83 57.37L203.88 57.42L203.72 57.27Q198.33 62.63 192.03 65.98L191.89 65.84L191.89 65.83Q194.11 67.60 197.56 68.11L197.42 67.96L197.53 68.07Q196.50 68.77 194.61 70.34L194.57 70.29L194.73 70.45Q196.93 71.04 200.16 71.04L200.02 70.90Z"/></svg>