<svg xmlns="http://www.w3.org/2000/svg" width="342" height="140" viewBox="0,0,342,140"><path d="M2 95 C187 115,175 25,325 87" stroke="#e688e6" fill="none"/><path d="M16 76 C151 127,172 5,330 74" stroke="#e4aa71" fill="none"/><path d="M8 119 C159 34,178 135,333 65" stroke="#79df57" fill="none"/><path d="M15 61 C152 29,186 79,330 62" stroke="#49e8e8" fill="none"/><path d="M10 90 C183 16,152 2,329 116" stroke="#e98585" fill="none"/><path d="M3 55 C183 30,170 119,334 75" stroke="#e09379" fill="none"/><path d="M5 11 C183 93,180 10,323 99" stroke="#e377e3" fill="none"/><path d="M11 3 C170 102,182 67,322 126" stroke="#6ce98b" fill="none"/><path d="M3 77 C188 84,161 92,334 138" stroke="#cee782" fill="none"/><path d="M10 93 C170 137,184 33,332 16" stroke="#b5e683" fill="none"/><path d="M12 75 C172 93,170 56,323 37" stroke="#7eeb5a" fill="none"/><path d="M19 22 C176 35,155 82,329 17" stroke="#bb4ddf" fill="none"/><path d="M11 111 C191 55,189 14,340 135" stroke="#94e4d0" fill="none"/><path fill="#3535e3" d="M194.93 92.48L195.01 92.56L194.83 92.38Q192.80 92.53 190.52 91.92L190.66 92.06L190.58 91.98Q188.72 90.56 188.49 88.16L188.55 88.22L188.49 88.15Q188.53 87.98 188.81 84.13L188.74 84.06L188.86 84.18Q190.26 83.80 193.22 83.24L193.15 83.17L193.00 84.42L192.97 84.39Q192.56 86.93 194.62 87.77L194.62 87.77L194.70 87.84Q195.75 88.23 198.81 88.23L198.84 88.25L198.80 88.21Q201.29 88.14 201.57 88.03L201.45 87.90L201.42 87.88Q202.88 87.78 203.94 87.05L203.90 87.02L203.97 87.08Q205.94 85.60 205.67 82.54L205.61 82.48L205.66 82.53Q205.46 79.04 202.93 76.76L202.78 76.61L202.82 76.65Q200.25 74.33 196.63 74.33L196.60 74.31L196.74 74.11L196.66 74.04Q197.17 73.93 198.45 73.82L198.58 73.95L198.49 73.86Q201.41 73.82 203.41 72.01L203.42 72.01L203.42 72.01Q205.43 70.20 205.65 67.47L205.48 67.30L205.52 67.34Q205.71 66.91 205.71 66.41L205.63 66.33L205.60 66.30Q205.66 64.13 203.65 62.80L203.73 62.87L203.76 62.90Q201.98 61.73 199.63 61.90L199.54 61.80L199.58 61.84Q197.58 61.51 195.79 62.13L195.79 62.12L195.81 62.14Q193.73 62.96 193.28 64.63L193.21 64.56L193.29 64.64Q192.96 65.70 193.07 66.82L193.15 66.90L193.20 66.94Q191.59 66.51 188.58 65.45L188.65 65.52L188.53 65.40Q188.24 62.99 188.30 61.77L188.37 61.84L188.24 61.71Q188.47 59.54 190.03 58.54L190.16 58.67L190.15 58.66Q192.20 57.75 194.54 57.75L194.41 57.62L194.39 57.60Q199.11 57.64 203.73 58.03L203.73 58.02L203.74 58.03Q211.10 58.60 210.66 64.12L210.67 64.13L210.63 64.09Q210.53 66.27 209.80 68.56L209.91 68.67L209.82 68.58Q208.52 73.13 205.06 74.46L205.02 74.42L205.07 74.47Q208.89 75.22 209.78 80.13L209.79 80.13L209.88 80.23Q210.15 81.83 210.26 84.79L210.34 84.87L210.29 84.82Q210.48 91.30 203.73 91.97L203.77 92.01L203.64 91.88Q202.62 92.03 194.87 92.42ZM202.60 95.81L202.55 95.75L202.49 95.69Q203.49 95.86 207.67 95.97L207.71 96.01L207.61 95.91Q210.16 96.01 212.56 95.06L212.57 95.07L212.64 95.15Q214.25 93.62 213.97 91.06L214.00 91.10L214.08 91.17Q213.93 89.24 213.48 86.67L213.49 86.68L213.44 86.63Q212.37 80.04 209.53 77.65L209.48 77.60L209.31 77.15L209.12 76.90L209.22 77.00Q211.68 74.79 212.80 68.38L212.84 68.42L212.92 68.49Q212.95 67.80 213.12 66.41L213.09 66.38L213.15 66.44Q213.11 65.18 213.00 64.17L213.11 64.28L213.13 64.31Q212.88 61.82 210.99 60.82L211.01 60.84L210.93 60.87L210.92 60.87Q210.41 59.36 208.74 58.58L208.66 58.49L208.73 58.56Q206.53 57.59 199.00 57.14L199.04 57.18L198.90 57.04Q196.60 57.08 194.26 57.08L194.22 57.05L194.26 57.08Q191.94 57.10 189.71 58.05L189.65 57.99L189.71 58.05Q187.82 59.06 187.82 61.63L187.74 61.55L187.87 61.68Q187.82 61.01 188.21 65.92L188.30 66.00L188.32 66.03Q188.69 66.06 191.09 66.95L191.01 66.87L191.13 67.00Q191.05 67.70 191.00 68.42L191.07 68.50L191.11 68.53Q191.05 69.20 191.11 69.98L191.13 70.00L191.15 70.02Q193.71 70.53 196.67 70.70L196.72 70.74L196.57 70.59Q196.54 67.72 198.15 66.49L198.15 66.49L198.20 66.55Q199.30 65.47 202.26 65.14L202.42 65.30L202.35 65.23Q203.92 65.12 204.75 65.40L204.87 65.52L204.83 65.48Q204.81 65.57 204.86 65.73L205.01 65.88L204.97 66.12L205.09 66.91L205.06 66.88Q205.16 67.26 205.10 67.48L205.15 67.53L205.09 67.47Q205.03 70.03 202.80 71.75L202.78 71.74L202.64 71.59Q201.37 73.00 198.41 73.28L198.41 73.27L198.52 73.39Q197.29 73.43 196.00 73.43L196.04 73.47L196.17 73.59Q196.24 74.11 196.46 75.11L196.36 75.02L196.42 75.08Q198.95 75.04 201.07 76.10L200.95 75.99L200.96 76.15L198.51 76.28L198.65 76.41Q198.71 76.92 198.88 77.81L198.78 77.72L198.78 77.71Q202.02 77.72 204.53 79.67L204.46 79.60L204.54 79.68Q204.85 80.22 205.30 82.62L205.32 82.63L205.15 82.47Q205.48 86.81 201.19 87.43L201.26 87.49L201.21 87.45Q198.13 87.82 197.30 87.77L197.29 87.77L197.39 87.86Q196.63 87.60 195.85 87.49L195.89 87.53L195.84 86.82L195.99 86.13L196.03 85.56L196.05 85.07L196.13 85.15Q194.74 85.27 193.57 85.55L193.57 85.55L193.55 85.53Q193.50 85.20 193.50 84.92L193.51 84.93L193.47 84.89Q193.57 84.66 193.57 84.33L193.54 84.29L193.62 84.37Q193.56 83.64 193.78 82.58L193.91 82.71L193.77 82.57Q191.05 82.91 188.32 83.42L188.45 83.55L188.46 83.56Q188.37 84.19 188.20 85.84L188.18 85.82L188.23 85.87Q187.97 87.41 187.97 88.30L188.02 88.36L188.04 88.38Q188.18 91.42 190.19 92.54L190.19 92.53L190.27 92.62Q192.32 95.84 199.23 95.56L199.17 95.50L199.17 95.49Q200.28 95.49 202.51 95.72Z"/><path d="M5 65 C180 89,171 53,321 91" stroke="#7650e6" fill="none"/><path d="M1 61 C152 132,168 125,323 7" stroke="#6feb6f" fill="none"/><path d="M19 29 C159 3,156 74,326 11" stroke="#c673e2" fill="none"/><path d="M20 88 C165 132,164 77,333 129" stroke="#d84ad8" fill="none"/><path d="M8 24 C184 125,164 73,332 61" stroke="#eb89eb" fill="none"/><path d="M10 122 C164 35,177 91,327 122" stroke="#eeb276" fill="none"/><path d="M13 59 C189 40,162 11,323 20" stroke="#724fdd" fill="none"/><path d="M5 30 C160 42,150 78,337 55" stroke="#e13737" fill="none"/><path d="M12 10 C180 118,155 78,323 130" stroke="#45bee6" fill="none"/><path d="M13 55 C168 42,189 76,338 122" stroke="#c87fe0" fill="none"/><path d="M4 66 C168 102,162 20,324 58" stroke="#e43e3e" fill="none"/><path d="M7 55 C182 30,174 21,341 24" stroke="#964ede" fill="none"/><path d="M2 88 C188 46,173 93,331 38" stroke="#8edd40" fill="none"/><path d="M12 73 C177 18,180 52,341 81" stroke="#96e27d" fill="none"/><path d="M10 23 C186 23,168 5,325 86" stroke="#e58ea4" fill="none"/><path d="M7 51 C190 130,169 31,329 122" stroke="#8161df" fill="none"/><path d="M19 86 C177 136,188 113,327 37" stroke="#4bbfe6" fill="none"/><path d="M19 10 C163 54,165 134,326 55" stroke="#e8e85d" fill="none"/><path d="M15 15 C168 126,179 63,326 94" stroke="#d98062" fill="none"/><path d="M16 6 C186 46,170 127,337 9" stroke="#9d84eb" fill="none"/><path d="M18 52 C182 93,173 113,324 70" stroke="#eaea51" fill="none"/><path fill="#7996eb" d="M261.98 81.64L262.08 81.73L261.97 81.63Q266.50 81.08 271.18 81.25L271.15 81.21L271.28 81.35Q271.22 77.61 271.22 74.10L271.13 74.01L271.23 74.10Q271.23 70.48 271.51 66.75L271.40 66.64L271.45 66.69Q269.56 69.09 261.92 81.58ZM276.42 92.34L276.54 92.46L276.53 92.46Q273.95 91.88 271.33 91.77L271.47 91.90L271.50 91.93Q271.04 88.30 270.88 84.68L270.90 84.70L270.89 84.69Q263.10 84.43 256.19 86.49L256.24 86.55L256.30 86.60Q256.37 85.79 256.65 84.34L256.64 84.32L256.70 84.39Q259.41 79.85 264.65 70.65L264.51 70.51L264.58 70.58Q268.71 63.34 273.73 57.65L273.74 57.66L273.83 57.76Q275.14 57.51 277.60 57.12L277.60 57.12L277.62 57.15Q274.80 66.53 274.80 76.84L274.69 76.74L274.76 76.80Q274.69 78.91 274.81 81.08L274.88 81.16L276.72 81.27L276.70 81.25Q277.59 81.31 278.49 81.47L278.53 81.52L278.57 81.56Q278.73 83.00 279.12 85.84L279.05 85.78L279.13 85.86Q277.36 85.48 275.19 85.20L275.08 85.09L275.23 85.24Q275.58 88.22 276.59 92.51ZM279.01 81.05L278.93 80.97L278.93 80.97Q278.59 80.79 278.31 80.79L278.32 80.81L277.78 80.83L277.85 80.89Q277.67 78.71 277.67 76.65L277.58 76.56L277.63 76.60Q277.70 67.31 280.71 58.50L280.68 58.47L280.65 58.44Q279.48 58.78 277.36 59.33L277.46 59.43L277.48 59.46Q277.77 58.30 278.44 56.24L278.47 56.26L278.45 56.25Q276.54 56.79 273.53 57.12L273.62 57.21L273.45 57.04Q267.89 63.57 260.25 77.29L260.12 77.16L263.31 71.93L263.21 71.83Q262.61 73.35 262.22 74.18L262.31 74.27L255.61 87.30L255.65 87.34Q256.63 87.15 258.30 86.60L258.36 86.66L258.17 87.03L258.15 87.00Q257.85 87.88 257.41 89.72L257.43 89.74L257.48 89.79Q263.57 87.91 270.65 88.19L270.65 88.19L270.48 88.02Q270.66 89.54 270.94 92.44L270.96 92.45L270.93 92.43Q272.42 92.35 273.98 92.52L274.00 92.54L273.99 92.53Q274.21 93.53 274.60 95.54L274.67 95.61L274.60 95.54Q277.49 95.98 281.89 97.31L281.91 97.33L281.90 97.32Q280.29 94.04 278.96 89.25L279.05 89.35L281.23 90.07L281.23 90.07Q282.11 90.28 283.11 90.78L283.14 90.81L283.26 90.93Q281.98 87.14 281.75 84.69L281.88 84.81L281.79 84.73Q280.91 84.46 279.24 84.13L279.26 84.14L279.33 84.22Q278.89 82.21 278.89 80.93ZM267.19 80.72L267.22 80.74L267.29 80.82Q268.40 78.92 270.69 75.18L270.67 75.17L270.59 75.08Q270.69 76.57 270.63 77.97L270.66 78.00L270.49 77.83Q270.56 79.34 270.61 80.74L270.59 80.71L270.63 80.76Q269.80 80.70 268.96 80.70L268.88 80.62L268.93 80.67Q268.19 80.82 267.30 80.82Z"/><path d="M5 35 C186 119,180 28,323 110" stroke="#e868c8" fill="none"/><path d="M10 123 C176 120,153 29,337 47" stroke="#e5bb3c" fill="none"/><path d="M5 38 C157 36,165 78,336 109" stroke="#7ae5ca" fill="none"/><path d="M17 46 C186 79,172 62,326 52" stroke="#57eaa0" fill="none"/><path d="M20 135 C161 55,153 54,341 38" stroke="#da6783" fill="none"/><path fill="#704cdb" d="M75.29 88.86L75.32 88.88L75.43 88.99Q75.68 90.25 76.46 93.21L76.54 93.28L76.49 93.24Q70.30 91.28 63.56 91.67L63.54 91.66L63.53 91.65Q56.92 92.12 51.07 95.02L51.05 95.00L51.05 95.00Q51.46 94.07 51.51 94.18L51.40 94.06L51.53 94.19Q56.91 88.31 62.65 81.84L62.66 81.86L62.68 81.87Q69.16 74.59 70.89 67.73L70.84 67.68L70.92 67.77Q71.48 65.09 69.61 63.36L69.72 63.47L69.67 63.42Q67.88 61.76 65.26 61.99L65.26 61.99L65.18 61.91Q64.78 61.96 64.28 61.96L64.25 61.93L64.21 61.89Q62.02 61.92 60.18 63.26L60.16 63.25L60.15 63.24Q58.29 65.28 58.63 69.18L58.54 69.10L58.61 69.17Q55.98 68.66 54.20 67.99L54.14 67.93L54.21 68.00Q53.91 65.91 53.79 63.79L53.77 63.77L53.76 63.76Q53.69 61.41 54.58 59.73L54.58 59.73L54.49 59.64Q57.11 57.63 62.01 57.63L62.06 57.67L64.53 57.58L64.57 57.63Q68.00 57.76 69.39 57.93L69.46 58.00L69.35 57.89Q75.69 58.49 76.08 62.05L76.06 62.03L76.09 62.06Q76.17 62.86 76.05 64.03L76.13 64.11L76.06 64.04Q75.99 64.97 75.77 65.98L75.85 66.06L75.75 65.96Q73.51 77.99 62.42 88.03L62.35 87.96L62.39 88.00Q64.39 87.71 66.39 87.71L66.38 87.70L66.51 87.82Q71.20 87.77 75.38 88.94ZM74.45 58.36L74.51 58.42L74.56 58.47Q72.10 57.40 69.59 57.29L69.69 57.39L64.65 57.09L64.60 57.04Q58.02 56.59 54.78 58.21L54.85 58.28L54.83 58.25Q53.31 60.30 53.31 63.31L53.40 63.40L53.41 63.41Q53.36 64.36 53.80 68.48L53.88 68.56L53.80 68.48Q54.69 68.93 56.42 69.37L56.27 69.22L56.26 70.72L56.32 70.78Q56.28 71.46 56.39 72.24L56.40 72.25L56.29 72.14Q58.13 72.31 61.76 72.65L61.80 72.69L61.85 72.75Q61.87 72.26 61.87 71.76L61.70 71.58L61.70 71.59Q61.76 68.97 63.54 66.99L63.53 66.98L63.59 67.04Q65.33 65.02 67.95 65.19L67.90 65.14L68.06 65.29Q69.03 65.21 70.15 65.43L70.13 65.41L70.17 65.46Q70.36 66.03 70.47 66.65L70.55 66.72L70.41 66.59Q70.56 67.29 70.45 67.79L70.44 67.78L70.49 67.84Q68.58 74.73 62.11 81.81L62.06 81.76L62.06 81.76Q58.92 85.03 50.95 93.89L50.99 93.93L50.98 93.93Q50.80 95.24 50.29 96.08L50.20 95.99L50.28 96.07Q52.66 94.82 54.89 94.04L54.75 93.91L54.85 94.00Q53.78 94.83 52.38 97.00L52.29 96.90L52.42 97.04Q52.27 97.55 52.10 98.05L52.00 97.95L52.00 97.95Q59.13 94.94 67.16 95.22L67.13 95.19L67.16 95.22Q75.40 95.38 82.09 98.84L82.19 98.93L80.71 95.78L80.72 95.79Q79.78 93.85 79.39 92.68L79.48 92.77L79.47 92.76Q78.24 91.98 76.46 91.37L76.59 91.49L76.47 91.38Q76.25 90.32 75.70 88.32L75.81 88.42L75.81 88.43Q72.46 87.47 69.11 87.19L69.28 87.36L69.17 87.26Q76.05 80.59 78.28 68.49L78.30 68.51L78.51 64.20L78.50 64.19Q78.46 61.65 76.68 60.64L76.61 60.58L76.55 60.57L76.68 60.70Q76.57 60.54 76.46 60.54L76.53 60.60L76.45 60.53Q76.14 59.32 74.52 58.43Z"/><path fill="#d7d75a" d="M143.32 88.89L143.25 88.81L143.33 88.89Q143.78 90.35 144.57 93.31L144.62 93.37L144.49 93.23Q138.31 91.29 131.56 91.68L131.53 91.65L131.57 91.69Q124.86 92.06 119.01 94.96L119.11 95.06L119.07 95.02Q119.45 94.06 119.50 94.17L119.55 94.22L119.57 94.23Q125.00 88.40 130.74 81.94L130.64 81.84L130.72 81.91Q137.08 74.51 138.81 67.65L138.94 67.78L138.82 67.67Q139.56 65.17 137.69 63.44L137.76 63.51L137.59 63.34Q135.83 61.72 133.21 61.94L133.23 61.96L133.23 61.96Q132.72 61.90 132.22 61.90L132.28 61.96L132.10 61.78Q129.92 61.83 128.08 63.16L128.17 63.26L128.14 63.22Q126.22 65.21 126.56 69.12L126.51 69.07L126.63 69.18Q124.01 68.69 122.23 68.02L122.07 67.86L122.24 68.03Q121.81 65.82 121.70 63.70L121.78 63.78L121.73 63.73Q121.63 61.35 122.53 59.68L122.48 59.63L122.56 59.71Q125.24 57.77 130.15 57.77L130.03 57.64L132.71 57.77L132.55 57.61Q135.99 57.75 137.38 57.92L137.37 57.91L137.33 57.87Q143.63 58.43 144.02 61.99L144.11 62.08L144.10 62.07Q144.15 62.84 144.03 64.01L144.09 64.07L144.06 64.04Q143.97 64.95 143.74 65.95L143.80 66.01L143.83 66.04Q141.41 77.89 130.32 87.93L130.29 87.89L130.33 87.94Q132.35 87.67 134.35 87.67L134.41 87.72L134.48 87.80Q139.06 87.64 143.24 88.81ZM142.53 58.44L142.54 58.45L142.41 58.32Q140.16 57.47 137.65 57.36L137.72 57.42L132.66 57.10L132.62 57.06Q126.09 56.66 122.86 58.28L122.80 58.22L122.81 58.23Q121.40 60.39 121.40 63.40L121.40 63.40L121.33 63.33Q121.34 64.34 121.79 68.47L121.91 68.59L121.80 68.48Q122.54 68.77 124.26 69.22L124.35 69.31L124.33 70.79L124.23 70.69Q124.30 71.49 124.42 72.27L124.40 72.25L124.30 72.15Q126.23 72.41 129.86 72.75L129.89 72.78L129.91 72.80Q129.71 72.10 129.71 71.59L129.75 71.63L129.72 71.60Q129.78 68.99 131.56 67.01L131.66 67.11L131.62 67.07Q133.44 65.12 136.06 65.29L135.90 65.13L135.89 65.12Q137.05 65.22 138.16 65.44L138.23 65.51L138.15 65.43Q138.44 66.11 138.55 66.72L138.56 66.74L138.51 66.68Q138.55 67.28 138.44 67.78L138.44 67.78L138.47 67.82Q136.62 74.77 130.15 81.85L130.16 81.86L130.18 81.88Q126.96 85.07 118.99 93.94L118.95 93.89L119.00 93.94Q118.70 95.15 118.20 95.99L118.28 96.07L118.15 95.93Q120.69 94.85 122.92 94.07L122.91 94.07L122.85 94.00Q121.79 94.84 120.40 97.01L120.41 97.03L120.31 96.93Q120.25 97.54 120.09 98.04L120.11 98.06L120.04 97.99Q127.15 94.96 135.18 95.24L135.13 95.19L135.18 95.25Q143.55 95.53 150.24 98.99L150.10 98.85L148.73 95.80L148.76 95.83Q147.85 93.92 147.46 92.75L147.45 92.74L147.30 92.59Q146.32 92.06 144.54 91.44L144.63 91.53L144.61 91.51Q144.26 90.33 143.70 88.32L143.68 88.30L143.73 88.35Q140.57 87.59 137.22 87.31L137.12 87.20L137.25 87.34Q144.00 80.54 146.23 68.44L146.31 68.52L146.52 64.21L146.51 64.20Q146.36 61.54 144.57 60.54L144.76 60.72L144.68 60.71L144.65 60.67Q144.62 60.59 144.51 60.59L144.44 60.52L144.38 60.46Q144.20 59.38 142.58 58.49Z"/><path d="M2 60 C187 138,188 133,321 40" stroke="#73ddc2" fill="none"/></svg>