<svg xmlns="http://www.w3.org/2000/svg" width="342" height="140" viewBox="0,0,342,140"><path d="M15 52 C179 131,160 54,340 70" stroke="#ad7bdf" fill="none"/><path d="M21 4 C163 109,186 50,332 80" stroke="#e9744d" fill="none"/><path d="M4 59 C167 51,183 44,330 15" stroke="#67dede" fill="none"/><path d="M14 88 C175 14,190 13,331 38" stroke="#889ee1" fill="none"/><path d="M7 100 C161 11,190 115,333 83" stroke="#8fe48f" fill="none"/><path d="M21 120 C167 104,163 102,323 123" stroke="#e769c7" fill="none"/><path d="M5 80 C169 122,162 35,337 124" stroke="#c16edd" fill="none"/><path d="M18 23 C154 31,157 64,329 95" stroke="#e5ad75" fill="none"/><path d="M18 139 C173 97,191 53,332 86" stroke="#59e7e7" fill="none"/><path d="M10 77 C177 89,173 69,338 31" stroke="#90e9e9" fill="none"/><path d="M20 76 C191 46,152 22,329 28" stroke="#74aae0" fill="none"/><path d="M10 28 C177 137,162 19,336 77" stroke="#aa71e4" fill="none"/><path d="M17 73 C189 31,161 101,335 116" stroke="#ee9c80" fill="none"/><path d="M7 9 C161 132,182 24,323 72" stroke="#7c98ed" fill="none"/><path fill="#87cfe8" d="M145.56 94.66L145.63 94.73L145.61 94.71Q146.20 96.60 147.22 100.46L147.20 100.44L147.11 100.35Q139.06 97.83 130.26 98.34L130.24 98.32L130.26 98.34Q121.60 98.92 113.97 102.70L113.83 102.56L113.97 102.70Q114.44 101.43 114.52 101.58L114.53 101.59L114.48 101.55Q121.66 94.03 129.15 85.59L129.05 85.49L129.13 85.57Q137.58 76.06 139.84 67.11L139.68 66.95L139.81 67.08Q140.63 63.68 138.19 61.42L138.21 61.45L138.26 61.50Q135.74 59.15 132.32 59.44L132.30 59.42L132.30 59.43Q131.65 59.36 130.99 59.36L130.97 59.33L130.92 59.28Q128.06 59.33 125.66 61.08L125.68 61.10L125.66 61.08Q123.17 63.68 123.61 68.77L123.73 68.90L123.60 68.76Q120.34 68.27 118.01 67.39L117.95 67.33L118.00 67.39Q117.62 64.68 117.48 61.92L117.35 61.79L117.36 61.79Q117.19 58.65 118.35 56.46L118.51 56.62L118.40 56.51Q121.93 54.00 128.33 54.00L128.26 53.93L131.58 53.91L131.58 53.90Q136.02 54.06 137.84 54.27L137.86 54.29L137.70 54.14Q146.00 54.95 146.51 59.60L146.67 59.76L146.67 59.76Q146.65 60.69 146.51 62.21L146.66 62.36L146.60 62.31Q146.54 63.56 146.25 64.87L146.23 64.84L146.18 64.80Q143.19 80.43 128.71 93.52L128.62 93.42L128.71 93.51Q131.40 93.23 134.02 93.23L133.90 93.10L133.93 93.14Q140.16 93.18 145.61 94.70ZM144.39 54.78L144.48 54.88L144.55 54.94Q141.43 53.65 138.16 53.50L138.09 53.43L131.58 53.11L131.55 53.08Q123.07 52.60 118.85 54.71L118.93 54.78L118.90 54.75Q116.85 57.36 116.85 61.29L116.87 61.31L116.91 61.35Q116.83 62.57 117.41 67.96L117.55 68.09L117.44 67.99Q118.58 68.55 120.84 69.13L120.86 69.15L120.75 71.00L120.68 70.94Q120.60 71.80 120.75 72.82L120.87 72.94L120.77 72.84Q123.28 73.17 128.01 73.61L127.87 73.47L127.99 73.59Q127.95 72.90 127.95 72.24L127.93 72.23L127.83 72.12Q127.92 68.72 130.25 66.14L130.13 66.02L130.16 66.05Q132.46 63.44 135.87 63.66L136.00 63.78L135.96 63.74Q137.34 63.74 138.80 64.03L138.89 64.13L138.84 64.08Q139.07 64.81 139.21 65.61L139.14 65.54L139.17 65.57Q139.28 66.40 139.13 67.06L139.21 67.13L139.16 67.09Q136.76 76.18 128.32 85.42L128.24 85.33L128.42 85.51Q124.35 89.81 113.94 101.37L113.92 101.35L113.85 101.28Q113.50 102.89 112.84 103.98L112.82 103.95L112.73 103.87Q115.91 102.32 118.82 101.30L118.71 101.19L118.75 101.24Q117.35 102.30 115.53 105.14L115.53 105.14L115.63 105.24Q115.40 105.89 115.19 106.54L115.14 106.50L115.13 106.49Q124.45 102.57 134.93 102.93L134.87 102.88L134.99 102.99Q145.70 103.15 154.42 107.66L154.57 107.81L152.63 103.69L152.62 103.68Q151.39 101.14 150.88 99.61L150.89 99.62L150.91 99.64Q149.53 98.84 147.20 98.04L147.13 97.97L147.23 98.07Q146.89 96.64 146.16 94.02L146.17 94.02L146.23 94.09Q141.89 92.87 137.52 92.51L137.47 92.46L137.57 92.56Q146.48 83.79 149.39 68.01L149.39 68.00L149.83 62.55L149.88 62.61Q149.62 59.07 147.29 57.76L147.37 57.84L147.16 57.70L147.22 57.76Q147.08 57.55 146.93 57.55L146.96 57.57L147.06 57.68Q146.67 56.12 144.56 54.96Z"/><path fill="#d75a5a" d="M198.38 77.94L198.33 77.90L198.25 77.81Q194.83 77.67 192.47 80.40L192.43 80.36L192.50 80.43Q190.15 83.17 189.79 86.81L189.72 86.74L189.67 86.69Q189.35 90.74 191.42 92.59L191.29 92.46L191.37 92.54Q193.42 94.37 197.42 94.15L197.46 94.19L197.43 94.17Q201.46 93.90 203.57 92.59L203.57 92.59L203.55 92.57Q205.63 90.36 205.63 87.38L205.68 87.43L205.79 87.53Q205.63 86.65 205.49 85.92L205.57 86.01L205.63 86.07Q205.72 82.81 203.61 80.23L203.55 80.17L203.50 80.12Q201.41 77.55 198.21 77.77ZM197.49 99.10L197.47 99.07L197.48 99.08Q189.18 99.15 186.49 97.69L186.39 97.60L186.46 97.67Q184.47 96.19 184.11 92.91L184.01 92.81L184.13 92.94Q184.05 91.62 184.12 90.23L184.09 90.20L184.05 90.17Q184.28 88.28 184.28 87.41L184.40 87.54L184.26 87.39Q185.10 81.90 185.39 80.59L185.46 80.66L185.48 80.69Q186.39 77.01 187.99 74.32L187.97 74.30L187.95 74.28Q193.00 65.87 204.34 53.72L204.44 53.82L204.31 53.69Q209.50 53.21 213.72 51.68L213.63 51.59L213.68 51.64Q200.67 65.98 194.56 74.06L194.47 73.96L194.56 74.05Q196.48 73.14 198.96 73.14L198.87 73.06L198.85 73.03Q205.28 73.14 208.19 76.85L208.14 76.80L208.12 76.78Q210.60 79.84 211.25 86.60L211.28 86.63L211.27 86.62Q211.37 87.95 211.37 89.11L211.40 89.15L211.53 89.27Q211.46 95.18 207.25 97.21L207.31 97.28L207.33 97.30Q205.01 98.46 197.59 99.19ZM201.83 103.66L201.90 103.72L201.85 103.67Q204.42 103.70 208.21 103.85L208.05 103.69L208.15 103.79Q211.26 103.92 214.25 102.54L214.28 102.57L214.27 102.56Q216.30 100.95 216.30 97.53L216.39 97.63L216.24 97.48Q216.38 96.68 216.05 94.78L216.09 94.82L215.94 94.67Q215.71 92.88 215.71 92.01L215.61 91.90L215.74 92.03Q214.05 82.99 210.99 79.36L211.02 79.38L210.90 79.27Q210.89 79.18 210.60 78.75L210.55 78.70L209.94 78.23L209.88 78.24L209.75 78.11Q209.22 77.29 208.05 75.47L207.87 75.29L208.03 75.45Q206.22 73.56 202.43 72.69L202.47 72.73L202.53 72.78Q204.70 69.57 210.37 62.51L210.53 62.67L218.48 52.44L218.60 52.56Q215.56 54.17 210.97 55.62L211.03 55.68L210.89 55.54Q212.77 53.78 216.19 50.00L216.13 49.94L216.16 49.97Q211.60 52.03 204.18 53.12L204.16 53.10L204.20 53.14Q193.22 64.34 187.54 73.80L187.59 73.85L187.56 73.82Q184.63 78.59 183.53 90.52L183.45 90.44L183.56 90.55Q183.37 91.59 183.51 93.41L183.55 93.45L183.47 93.37Q183.60 96.70 185.71 98.44L185.78 98.52L185.79 98.53Q186.44 98.74 186.37 98.81L186.35 98.80L186.43 98.87Q187.17 100.63 188.69 101.43L188.67 101.40L188.62 101.35Q191.55 102.83 195.25 103.19L195.21 103.15L195.14 103.07Q195.17 103.10 201.86 103.69ZM201.34 82.14L201.33 82.14L201.36 82.17Q202.51 82.00 204.33 82.95L204.38 83.00L204.24 82.86Q205.04 84.83 205.04 86.06L204.90 85.92L205.00 86.02Q205.26 89.48 203.45 91.38L203.49 91.42L203.60 91.53Q201.49 92.84 197.49 93.42L197.53 93.46L197.50 93.43Q194.80 93.50 193.78 92.99L193.62 92.82L193.75 92.96Q193.34 92.04 193.34 91.46L193.24 91.36L193.38 91.49Q192.91 85.20 198.51 82.73L198.55 82.77L198.56 82.78Q199.93 82.04 201.38 82.19Z"/><path d="M8 25 C164 84,152 51,340 71" stroke="#ee76b2" fill="none"/><path d="M4 77 C178 66,191 78,336 101" stroke="#df3e66" fill="none"/><path d="M10 78 C187 49,190 107,339 67" stroke="#dc74dc" fill="none"/><path d="M17 114 C178 117,183 25,337 5" stroke="#4896e4" fill="none"/><path d="M17 45 C189 45,183 125,341 35" stroke="#5ae6c3" fill="none"/><path d="M6 92 C179 125,178 112,321 127" stroke="#ed987c" fill="none"/><path d="M15 4 C190 56,162 3,323 54" stroke="#90a7ed" fill="none"/><path d="M3 23 C175 135,157 137,340 22" stroke="#e16f8b" fill="none"/><path d="M14 91 C185 67,166 59,327 25" stroke="#c254e7" fill="none"/><path d="M3 16 C186 85,154 14,337 49" stroke="#c556eb" fill="none"/><path d="M10 38 C150 126,156 75,341 124" stroke="#819ae3" fill="none"/><path d="M15 54 C186 53,152 123,322 105" stroke="#4ed4d4" fill="none"/><path d="M8 127 C191 33,172 28,333 6" stroke="#89e589" fill="none"/><path fill="#e46262" d="M77.65 94.75L77.61 94.71L77.54 94.64Q78.21 96.61 79.23 100.47L79.26 100.50L79.16 100.40Q71.14 97.91 62.34 98.42L62.30 98.38L62.36 98.44Q53.52 98.84 45.88 102.62L45.85 102.58L45.96 102.70Q46.26 101.25 46.33 101.40L46.37 101.43L46.48 101.54Q53.60 93.97 61.09 85.53L61.02 85.46L61.12 85.56Q69.53 76.00 71.78 67.05L71.75 67.02L71.68 66.95Q72.53 63.58 70.09 61.32L70.12 61.36L70.08 61.32Q67.69 59.10 64.27 59.39L64.43 59.55L64.30 59.43Q63.58 59.29 62.93 59.29L63.05 59.41L63.04 59.41Q60.20 59.47 57.80 61.22L57.67 61.09L57.68 61.10Q55.20 63.71 55.64 68.81L55.58 68.75L55.70 68.86Q52.25 68.18 49.92 67.30L49.94 67.32L49.97 67.35Q49.47 64.52 49.32 61.76L49.32 61.76L49.45 61.88Q49.31 58.77 50.48 56.59L50.46 56.57L50.36 56.47Q53.82 53.89 60.22 53.89L60.22 53.89L63.66 53.99L63.51 53.84Q67.93 53.97 69.75 54.18L69.70 54.13L69.81 54.24Q78.11 55.06 78.62 59.71L78.65 59.74L78.68 59.77Q78.74 60.77 78.60 62.30L78.51 62.22L78.63 62.34Q78.52 63.53 78.23 64.84L78.27 64.88L78.24 64.85Q75.13 80.37 60.65 93.46L60.66 93.46L60.67 93.48Q63.39 93.21 66.01 93.21L65.89 93.10L65.84 93.05Q72.10 93.12 77.56 94.65ZM76.51 54.90L76.56 54.95L76.40 54.80Q73.33 53.54 70.05 53.40L70.06 53.40L63.51 53.04L63.64 53.17Q55.10 52.63 50.89 54.74L50.79 54.64L50.87 54.72Q48.77 57.28 48.77 61.21L48.74 61.18L48.84 61.28Q48.85 62.60 49.44 67.98L49.53 68.08L49.53 68.07Q50.57 68.54 52.82 69.12L52.66 68.95L52.72 70.98L52.72 70.98Q52.75 71.95 52.89 72.97L52.85 72.93L52.82 72.90Q55.33 73.22 60.06 73.66L60.01 73.61L59.93 73.54Q59.87 72.81 59.87 72.16L59.95 72.24L59.97 72.27Q59.98 68.79 62.31 66.20L62.17 66.06L62.31 66.20Q64.55 63.53 67.97 63.75L67.97 63.75L67.91 63.69Q69.47 63.87 70.93 64.16L70.81 64.04L70.81 64.05Q71.02 64.76 71.17 65.56L71.15 65.55L71.22 65.62Q71.27 66.40 71.13 67.05L71.09 67.02L71.25 67.18Q68.78 76.20 60.35 85.44L60.38 85.47L60.35 85.44Q56.17 89.63 45.77 101.20L45.78 101.21L45.80 101.23Q45.43 102.82 44.77 103.91L44.78 103.92L44.82 103.96Q47.81 102.22 50.72 101.20L50.80 101.28L50.73 101.21Q49.34 102.29 47.52 105.13L47.64 105.25L47.55 105.16Q47.48 105.96 47.26 106.62L47.18 106.53L47.10 106.45Q56.37 102.49 66.85 102.85L66.90 102.90L66.98 102.98Q77.85 103.31 86.58 107.82L86.60 107.84L84.66 103.72L84.71 103.77Q83.42 101.17 82.91 99.64L82.85 99.58L82.97 99.70Q81.45 98.76 79.12 97.96L79.12 97.96L79.22 98.06Q78.97 96.71 78.24 94.10L78.21 94.07L78.24 94.10Q73.92 92.91 69.56 92.54L69.50 92.48L69.58 92.57Q78.61 83.92 81.52 68.13L81.41 68.02L81.86 62.58L81.80 62.52Q81.72 59.17 79.40 57.86L79.27 57.74L79.21 57.75L79.16 57.70Q79.13 57.59 78.98 57.59L79.00 57.62L79.05 57.66Q78.58 56.03 76.47 54.87Z"/><path d="M20 137 C179 135,158 24,326 64" stroke="#d65151" fill="none"/><path d="M4 57 C162 81,171 34,325 133" stroke="#e7bd40" fill="none"/><path fill="#e76236" d="M267.59 66.93L267.61 66.95L267.61 66.95Q261.43 66.89 257.94 64.85L258.09 65.00L257.91 64.82Q262.81 62.30 272.12 54.23L272.02 54.12L272.04 54.15Q273.46 53.82 275.93 52.66L276.02 52.74L276.05 52.77Q273.35 63.97 273.13 76.11L273.27 76.25L273.23 76.21Q273.05 88.40 275.09 100.04L274.97 99.92L275.01 99.96Q271.80 98.56 267.72 98.35L267.74 98.36L267.82 98.44Q267.50 90.42 267.50 82.63L267.48 82.61L267.49 82.62Q267.62 74.89 267.69 67.03ZM266.87 71.24L266.86 99.08L266.80 99.02Q269.21 99.11 271.03 99.47L271.09 99.53L270.95 99.40Q271.11 100.72 271.47 103.33L271.51 103.38L271.48 103.34Q277.08 104.50 281.73 108.79L281.57 108.63L281.69 108.75Q276.85 95.03 276.78 80.78L276.79 80.79L276.81 80.81Q276.72 66.61 280.21 52.79L280.27 52.85L280.19 52.77Q279.08 53.48 276.03 55.59L276.09 55.66L276.09 55.65Q276.45 54.19 277.03 51.28L277.10 51.35L277.13 51.38Q274.46 52.71 271.70 53.44L271.73 53.47L271.72 53.47Q264.57 60.35 256.35 64.71L256.35 64.71L256.31 64.68Q258.95 66.73 263.46 67.38L263.55 67.48L263.46 67.38Q262.20 68.38 259.72 70.42L259.83 70.52L259.86 70.56Q262.73 71.32 266.95 71.32L266.82 71.18Z"/><path d="M11 72 C152 80,158 43,321 52" stroke="#7de2af" fill="none"/><path d="M14 50 C161 61,166 95,332 132" stroke="#e8e835" fill="none"/><path d="M5 86 C150 1,188 50,335 98" stroke="#65e084" fill="none"/><path d="M4 129 C187 122,181 93,327 131" stroke="#6d47df" fill="none"/><path d="M11 44 C173 35,168 105,336 49" stroke="#e07fe0" fill="none"/><path d="M21 125 C191 64,159 25,337 98" stroke="#9075df" fill="none"/><path d="M17 30 C192 126,184 12,339 65" stroke="#69ec69" fill="none"/><path d="M3 70 C163 116,154 71,324 94" stroke="#73e34e" fill="none"/><path d="M5 113 C173 106,154 3,336 91" stroke="#eb6feb" fill="none"/><path d="M4 22 C151 10,161 111,341 32" stroke="#7f5de3" fill="none"/><path d="M6 2 C164 101,173 71,329 17" stroke="#44b7de" fill="none"/></svg>