<svg xmlns="http://www.w3.org/2000/svg" width="342" height="140" viewBox="0,0,342,140"><path d="M5 136 C190 38,185 122,335 69" stroke="#e97bb2" fill="none"/><path d="M13 117 C187 40,183 124,339 60" stroke="#dba570" fill="none"/><path d="M20 16 C161 1,150 62,339 21" stroke="#7bdfad" fill="none"/><path d="M8 106 C185 95,176 77,340 20" stroke="#8cecbc" fill="none"/><path fill="#ee8a8a" d="M125.24 96.95L125.05 96.76L125.24 96.95Q122.65 96.96 119.92 96.23L119.91 96.22L120.04 96.34Q117.88 94.72 117.62 91.85L117.62 91.86L117.61 91.85Q117.52 91.49 117.85 86.89L117.71 86.76L117.79 86.83Q119.54 86.46 123.08 85.79L123.19 85.90L122.83 87.21L122.75 87.13Q122.34 90.25 124.80 91.25L124.84 91.28L124.81 91.26Q126.30 91.95 129.97 91.95L129.95 91.93L129.87 91.85Q132.63 91.55 132.97 91.42L133.10 91.55L132.94 91.39Q134.57 91.15 135.84 90.29L135.79 90.24L135.78 90.23Q138.40 88.73 138.07 85.06L138.03 85.02L138.03 85.02Q137.73 80.79 134.70 78.06L134.60 77.96L134.54 77.90Q131.66 75.32 127.33 75.32L127.25 75.24L127.37 74.96L127.20 74.80Q127.95 74.80 129.48 74.67L129.55 74.74L129.43 74.63Q132.79 74.45 135.19 72.29L135.29 72.39L135.13 72.23Q137.65 70.19 137.92 66.92L137.91 66.92L137.86 66.86Q138.00 66.27 138.00 65.67L137.94 65.61L138.04 65.71Q137.97 62.98 135.57 61.38L135.63 61.44L135.67 61.47Q133.47 60.01 130.68 60.21L130.63 60.17L130.64 60.18Q128.38 59.91 126.24 60.64L126.27 60.67L126.19 60.59Q123.84 61.70 123.30 63.70L123.28 63.68L123.21 63.61Q122.88 64.94 123.02 66.28L122.95 66.21L123.06 66.32Q121.23 65.88 117.63 64.62L117.60 64.59L117.63 64.62Q117.28 61.74 117.34 60.27L117.30 60.23L117.35 60.27Q117.58 57.64 119.44 56.44L119.36 56.36L119.36 56.36Q121.81 55.28 124.61 55.28L124.63 55.30L124.63 55.30Q130.21 55.28 135.74 55.75L135.59 55.60L135.75 55.76Q144.59 56.47 144.05 63.06L144.05 63.06L143.95 62.96Q143.78 65.52 142.91 68.25L142.94 68.28L143.01 68.35Q141.49 73.82 137.36 75.42L137.30 75.36L137.27 75.34Q141.94 76.34 143.01 82.20L142.87 82.07L143.00 82.20Q143.33 84.13 143.46 87.66L143.46 87.66L143.55 87.74Q143.78 95.50 135.72 96.30L135.73 96.31L135.67 96.25Q134.43 96.41 125.17 96.88ZM134.36 100.88L134.32 100.83L134.30 100.81Q135.36 100.88 140.36 101.01L140.34 100.99L140.30 100.94Q143.33 101.05 146.20 99.92L146.30 100.02L146.33 100.05Q148.35 98.34 148.02 95.28L148.01 95.27L148.05 95.31Q147.72 92.84 147.19 89.78L147.18 89.78L147.16 89.76Q145.93 81.93 142.53 79.06L142.69 79.23L142.32 78.52L142.25 78.38L142.12 78.25Q145.20 75.74 146.54 68.08L146.53 68.07L146.59 68.13Q146.66 67.33 146.86 65.67L146.82 65.63L146.89 65.70Q146.98 64.33 146.85 63.13L146.95 63.23L146.83 63.11Q146.62 60.24 144.36 59.04L144.42 59.10L144.24 59.05L144.09 58.91Q143.56 57.18 141.56 56.24L141.58 56.26L141.64 56.32Q138.95 55.09 129.96 54.56L130.02 54.63L130.08 54.69Q126.98 54.39 124.18 54.39L124.20 54.40L124.37 54.57Q121.49 54.49 118.83 55.62L118.87 55.66L118.75 55.54Q116.78 57.04 116.78 60.10L116.75 60.08L116.66 59.98Q116.76 59.35 117.22 65.21L117.07 65.07L117.21 65.20Q117.64 65.23 120.51 66.30L120.61 66.40L120.63 66.42Q120.51 67.23 120.44 68.10L120.46 68.12L120.57 68.23Q120.57 69.10 120.64 70.03L120.52 69.90L120.63 70.02Q123.64 70.56 127.17 70.76L127.29 70.88L127.13 70.73Q127.16 67.36 129.09 65.89L129.01 65.81L128.97 65.77Q130.44 64.64 133.98 64.24L133.96 64.23L134.04 64.31Q136.08 64.35 137.07 64.68L136.93 64.53L136.92 64.53Q137.10 64.84 137.17 65.04L137.11 64.98L137.20 65.40L137.36 66.37L137.29 66.29Q137.41 66.75 137.34 67.01L137.23 66.90L137.17 66.84Q137.03 69.83 134.37 71.90L134.49 72.03L134.41 71.95Q132.82 73.55 129.29 73.89L129.30 73.90L129.41 74.00Q128.12 74.24 126.59 74.24L126.46 74.12L126.50 74.16Q126.56 74.75 126.83 75.95L126.95 76.07L126.92 76.04Q130.01 76.07 132.54 77.34L132.52 77.31L132.31 77.30L129.44 77.50L129.62 77.68Q129.65 78.24 129.85 79.30L129.76 79.22L129.78 79.24Q133.62 79.22 136.62 81.55L136.58 81.50L136.58 81.51Q136.97 82.16 137.50 85.03L137.49 85.02L137.38 84.90Q137.88 90.20 132.75 90.93L132.71 90.89L132.61 90.80Q129.02 91.34 128.02 91.27L128.05 91.30L128.10 91.35Q127.17 91.02 126.24 90.88L126.37 91.01L126.19 90.04L126.39 89.23L126.44 88.56L126.56 88.08L126.70 88.21Q124.84 88.16 123.44 88.49L123.44 88.49L123.59 88.64Q123.39 88.10 123.39 87.77L123.48 87.86L123.43 87.81Q123.59 87.57 123.59 87.17L123.61 87.19L123.54 87.12Q123.68 86.46 123.95 85.20L123.95 85.19L123.91 85.16Q120.56 85.47 117.30 86.07L117.38 86.16L117.33 86.10Q117.31 86.96 117.11 88.92L117.06 88.86L117.15 88.96Q117.00 90.98 117.00 92.04L116.92 91.96L116.89 91.93Q117.09 95.60 119.49 96.93L119.51 96.95L119.58 97.01Q122.14 100.97 130.40 100.64L130.43 100.68L130.26 100.50Q131.61 100.52 134.28 100.79Z"/><path d="M19 40 C152 128,175 65,336 12" stroke="#cbe480" fill="none"/><path d="M1 19 C168 99,181 77,322 97" stroke="#e26840" fill="none"/><path d="M9 124 C161 48,160 80,325 6" stroke="#36e762" fill="none"/><path d="M19 36 C151 4,160 87,331 23" stroke="#e17474" fill="none"/><path d="M20 50 C161 70,156 5,325 27" stroke="#81ed9c" fill="none"/><path d="M8 11 C154 82,163 13,331 91" stroke="#56eb7b" fill="none"/><path d="M11 98 C164 101,161 15,323 95" stroke="#37e1e1" fill="none"/><path d="M20 50 C175 66,182 106,336 121" stroke="#a0e958" fill="none"/><path d="M14 63 C165 92,167 23,334 5" stroke="#cee881" fill="none"/><path fill="#e16fa8" d="M199.97 67.20L199.91 67.14L199.91 67.15Q194.45 67.28 191.25 65.41L191.22 65.38L191.20 65.36Q195.50 62.86 204.02 55.47L204.06 55.50L204.08 55.52Q205.32 55.17 207.59 54.10L207.68 54.19L207.60 54.11Q205.34 64.58 205.14 75.70L205.11 75.67L205.09 75.65Q204.91 86.80 206.78 97.46L206.75 97.43L206.78 97.46Q203.80 96.15 200.07 95.95L200.05 95.93L200.16 96.04Q200.00 88.81 200.00 81.69L199.92 81.61L199.93 81.62Q199.96 74.45 200.03 67.26ZM199.29 71.12L199.28 96.62L199.21 96.56Q201.49 96.70 203.15 97.03L203.04 96.92L203.14 97.02Q203.28 98.23 203.62 100.63L203.54 100.55L203.57 100.58Q208.50 101.45 212.77 105.38L212.82 105.44L212.89 105.51Q208.50 92.99 208.43 79.93L208.35 79.85L208.43 79.93Q208.31 66.88 211.51 54.22L211.41 54.13L211.56 54.28Q210.51 54.89 207.71 56.83L207.76 56.87L207.74 56.85Q208.00 55.45 208.54 52.78L208.70 52.94L208.54 52.78Q206.30 54.21 203.77 54.88L203.75 54.86L203.72 54.83Q197.10 61.06 189.57 65.06L189.61 65.10L189.70 65.20Q192.06 67.02 196.19 67.62L196.27 67.70L196.21 67.64Q195.05 68.55 192.79 70.41L192.92 70.55L192.81 70.43Q195.42 71.11 199.28 71.11L199.40 71.23Z"/><path d="M7 83 C166 138,187 100,327 101" stroke="#bfe995" fill="none"/><path d="M1 72 C166 100,183 83,330 98" stroke="#8ee13b" fill="none"/><path d="M5 87 C191 107,192 111,331 67" stroke="#48d9d9" fill="none"/><path fill="#eccb69" d="M76.67 92.49L76.80 92.63L76.85 92.67Q77.24 94.26 78.17 97.79L78.20 97.82L78.18 97.80Q70.75 95.43 62.68 95.90L62.84 96.06L62.68 95.89Q54.86 96.53 47.86 100.00L47.86 100.00L47.72 99.85Q48.21 98.74 48.27 98.87L48.33 98.93L48.29 98.89Q54.75 91.90 61.62 84.17L61.60 84.15L61.60 84.16Q69.29 75.39 71.36 67.20L71.37 67.20L71.53 67.36Q72.28 64.26 70.05 62.19L70.03 62.17L69.99 62.13Q67.74 60.05 64.61 60.32L64.71 60.41L64.61 60.31Q64.13 60.37 63.53 60.37L63.50 60.33L63.44 60.27Q60.73 60.23 58.53 61.83L58.65 61.95L58.54 61.84Q56.25 64.22 56.65 68.88L56.70 68.93L56.68 68.91Q53.60 68.36 51.47 67.56L51.48 67.57L51.44 67.53Q51.14 65.10 51.01 62.57L50.98 62.54L51.00 62.56Q50.75 59.58 51.82 57.58L51.91 57.67L51.96 57.72Q55.01 55.24 60.87 55.24L60.95 55.33L63.88 55.19L63.98 55.28Q67.98 55.36 69.65 55.56L69.55 55.46L69.70 55.61Q77.25 56.30 77.72 60.57L77.78 60.63L77.64 60.48Q77.85 61.56 77.72 62.96L77.77 63.02L77.64 62.89Q77.63 64.07 77.36 65.27L77.28 65.19L77.44 65.35Q74.47 79.44 61.21 91.43L61.23 91.45L61.15 91.36Q63.61 91.09 66.00 91.09L66.05 91.13L66.11 91.20Q71.74 91.16 76.74 92.56ZM75.67 56.05L75.75 56.13L75.76 56.14Q72.96 55.01 69.96 54.88L69.98 54.89L63.88 54.46L63.94 54.52Q56.18 54.09 52.32 56.02L52.26 55.96L52.23 55.93Q50.38 58.34 50.38 61.94L50.52 62.08L50.51 62.07Q50.51 63.27 51.05 68.20L51.10 68.26L51.00 68.15Q51.91 68.54 53.98 69.07L54.08 69.17L54.05 70.94L54.12 71.01Q53.92 71.68 54.05 72.61L54.18 72.74L54.03 72.59Q56.25 72.81 60.58 73.21L60.60 73.23L60.56 73.19Q60.55 72.58 60.55 71.98L60.61 72.04L60.59 72.01Q60.54 68.77 62.68 66.41L62.66 66.39L62.61 66.34Q64.90 64.13 68.03 64.33L68.04 64.35L67.97 64.28Q69.39 64.43 70.72 64.70L70.69 64.66L70.67 64.64Q70.90 65.33 71.03 66.07L71.06 66.10L70.97 66.01Q71.00 66.70 70.87 67.30L70.86 67.30L70.93 67.37Q68.65 75.62 60.93 84.08L60.98 84.13L60.89 84.04Q57.23 88.05 47.71 98.64L47.80 98.73L47.64 98.57Q47.37 100.10 46.77 101.10L46.79 101.12L46.88 101.21Q49.63 99.63 52.29 98.69L52.33 98.73L52.16 98.57Q50.95 99.62 49.29 102.22L49.29 102.22L49.35 102.29Q49.02 102.75 48.82 103.35L48.91 103.44L48.82 103.35Q57.51 99.91 67.10 100.25L67.06 100.20L67.06 100.21Q76.99 100.47 84.98 104.60L84.98 104.60L83.23 100.85L83.19 100.82Q81.99 98.42 81.53 97.02L81.58 97.07L81.62 97.11Q80.34 96.37 78.21 95.63L78.22 95.65L78.14 95.57Q77.90 94.33 77.24 91.93L77.26 91.95L77.23 91.92Q73.41 90.96 69.41 90.63L69.49 90.71L69.46 90.68Q77.55 82.58 80.21 68.12L80.38 68.29L80.66 63.17L80.60 63.11Q80.54 60.06 78.41 58.86L78.35 58.80L78.37 58.89L78.21 58.72Q78.23 58.68 78.10 58.68L78.07 58.65L78.15 58.73Q77.77 57.28 75.83 56.22Z"/><path d="M5 33 C171 98,183 41,330 74" stroke="#5074e1" fill="none"/><path d="M20 3 C185 81,168 123,329 96" stroke="#75c9e4" fill="none"/><path d="M20 16 C185 3,180 126,338 84" stroke="#e26840" fill="none"/><path d="M17 90 C156 127,150 23,338 88" stroke="#53de99" fill="none"/><path d="M15 30 C178 77,161 115,329 84" stroke="#72e3e3" fill="none"/><path d="M10 98 C177 48,183 82,324 92" stroke="#67da83" fill="none"/><path d="M16 106 C168 114,169 24,327 129" stroke="#90a7ee" fill="none"/><path d="M10 54 C176 134,152 31,341 22" stroke="#a3dc6a" fill="none"/><path d="M3 77 C153 86,164 51,337 110" stroke="#d584ef" fill="none"/><path d="M18 90 C171 95,176 94,340 77" stroke="#df579b" fill="none"/><path d="M15 81 C171 103,151 113,323 13" stroke="#95aae8" fill="none"/><path d="M11 63 C152 95,181 29,327 46" stroke="#54c2e7" fill="none"/><path d="M11 47 C184 102,179 71,335 36" stroke="#4ce0bb" fill="none"/><path d="M8 4 C176 127,152 131,324 113" stroke="#aae995" fill="none"/><path d="M10 18 C169 118,156 137,325 55" stroke="#6fdcdc" fill="none"/><path d="M18 31 C164 1,191 47,324 57" stroke="#58de9b" fill="none"/><path d="M17 57 C178 69,185 103,325 53" stroke="#4fd391" fill="none"/><path d="M6 112 C161 62,183 109,325 44" stroke="#e575c9" fill="none"/><path d="M2 91 C176 71,192 36,338 132" stroke="#63dddd" fill="none"/><path d="M19 118 C173 48,163 83,331 18" stroke="#ed7cd1" fill="none"/><path d="M10 123 C152 43,191 83,330 76" stroke="#51c0e5" fill="none"/><path d="M2 122 C165 101,162 70,324 5" stroke="#e38686" fill="none"/><path fill="#e890bc" d="M267.96 67.19L268.04 67.28L267.94 67.18Q262.40 67.23 259.20 65.36L259.15 65.31L259.22 65.38Q263.60 62.96 272.13 55.57L272.13 55.58L272.13 55.58Q273.32 55.16 275.58 54.09L275.68 54.19L275.65 54.16Q273.34 64.57 273.14 75.70L273.16 75.72L273.05 75.62Q272.82 86.71 274.69 97.37L274.80 97.48L274.68 97.36Q271.80 96.15 268.07 95.95L268.17 96.05L268.05 95.93Q267.93 88.75 267.93 81.62L267.82 81.51L267.85 81.54Q267.91 74.40 267.97 67.21ZM267.39 71.22L267.30 96.65L267.26 96.61Q269.42 96.63 271.09 96.97L271.10 96.98L271.11 96.99Q271.18 98.12 271.51 100.52L271.60 100.61L271.55 100.57Q276.51 101.46 280.77 105.39L280.88 105.49L280.84 105.46Q276.56 93.05 276.50 79.99L276.38 79.88L276.47 79.97Q276.38 66.95 279.58 54.29L279.52 54.24L279.59 54.31Q278.63 55.01 275.83 56.94L275.80 56.91L275.83 56.94Q276.19 55.64 276.72 52.97L276.71 52.96L276.55 52.80Q274.34 54.25 271.81 54.92L271.80 54.91L271.73 54.84Q265.12 61.09 257.59 65.09L257.62 65.12L257.72 65.21Q260.03 66.99 264.16 67.59L264.14 67.57L264.28 67.71Q263.11 68.60 260.84 70.47L260.94 70.56L260.87 70.49Q263.48 71.18 267.35 71.18L267.28 71.11Z"/><path d="M17 138 C152 120,169 2,341 39" stroke="#b785e9" fill="none"/><path d="M13 46 C177 79,188 103,337 113" stroke="#6987e2" fill="none"/></svg>