<svg xmlns="http://www.w3.org/2000/svg" width="342" height="140" viewBox="0,0,342,140"><path d="M17 85 C172 121,168 134,333 78" stroke="#ed62ca" fill="none"/><path d="M17 18 C176 127,177 34,339 70" stroke="#62e736" fill="none"/><path fill="#577ae4" d="M192.18 83.80L192.25 83.87L192.21 83.82Q197.53 83.15 203.07 83.35L203.09 83.36L203.08 83.36Q202.96 78.89 202.96 74.73L202.97 74.74L203.07 74.84Q202.91 70.40 203.24 65.98L203.37 66.10L203.23 65.97Q201.18 68.99 192.15 83.76ZM209.27 96.47L209.29 96.49L209.28 96.48Q206.49 96.06 203.39 95.93L203.39 95.93L203.36 95.90Q203.05 91.84 202.86 87.55L202.87 87.57L202.77 87.46Q193.50 87.10 185.32 89.53L185.28 89.49L185.30 89.51Q185.61 88.77 185.94 87.05L185.81 86.92L185.83 86.95Q189.09 81.63 195.28 70.75L195.20 70.66L195.27 70.74Q200.27 62.28 206.20 55.55L206.18 55.53L206.11 55.46Q207.66 55.17 210.56 54.70L210.57 54.71L210.59 54.73Q207.33 65.92 207.33 78.12L207.20 77.98L207.20 77.98Q207.22 80.57 207.35 83.14L207.37 83.17L209.60 83.35L209.64 83.39Q210.74 83.50 211.79 83.69L211.67 83.57L211.82 83.72Q211.98 85.40 212.45 88.77L212.43 88.75L212.44 88.76Q210.36 88.33 207.79 88.00L207.70 87.91L207.71 87.92Q208.16 91.47 209.35 96.55ZM212.21 82.99L212.22 83.00L212.27 83.05Q211.82 82.80 211.49 82.80L211.48 82.79L210.87 82.84L210.80 82.77Q210.72 80.32 210.72 77.88L210.71 77.87L210.65 77.81Q210.72 66.80 214.28 56.38L214.30 56.39L214.22 56.32Q212.95 56.82 210.44 57.48L210.36 57.41L210.37 57.41Q210.83 56.16 211.62 53.72L211.61 53.70L211.56 53.66Q209.37 54.37 205.81 54.76L205.75 54.71L205.88 54.83Q198.98 62.24 189.94 78.46L190.00 78.52L193.53 72.09L193.68 72.24Q192.92 73.99 192.46 74.98L192.37 74.89L184.72 90.58L184.70 90.56Q185.88 90.36 187.86 89.70L187.75 89.59L187.52 90.02L187.51 90.00Q187.37 91.25 186.84 93.43L186.89 93.48L186.79 93.38Q194.03 91.18 202.40 91.51L202.34 91.46L202.35 91.46Q202.35 93.05 202.68 96.48L202.80 96.59L202.68 96.48Q204.46 96.41 206.31 96.61L206.45 96.75L206.38 96.68Q206.58 97.80 207.04 100.17L207.16 100.30L207.04 100.17Q210.41 100.65 215.62 102.23L215.72 102.32L215.56 102.17Q213.83 98.46 212.24 92.78L212.25 92.79L214.86 93.68L214.78 93.60Q216.07 94.10 217.25 94.69L217.26 94.70L217.31 94.75Q215.75 90.22 215.48 87.32L215.61 87.44L215.60 87.44Q214.57 87.13 212.60 86.74L212.64 86.79L212.66 86.80Q212.30 84.60 212.30 83.08ZM198.46 82.82L198.43 82.79L198.35 82.71Q199.62 80.42 202.32 76.00L202.35 76.03L202.33 76.01Q202.46 77.79 202.39 79.44L202.35 79.40L202.40 79.45Q202.36 81.12 202.42 82.77L202.34 82.69L202.36 82.70Q201.35 82.61 200.36 82.61L200.32 82.57L200.39 82.65Q199.34 82.65 198.29 82.65Z"/><path d="M17 36 C166 42,155 71,330 43" stroke="#c75aeb" fill="none"/><path d="M7 104 C164 108,161 83,339 107" stroke="#9479e6" fill="none"/><path d="M21 136 C183 50,172 88,325 78" stroke="#93eaea" fill="none"/><path d="M13 101 C174 94,160 117,331 21" stroke="#4bc3eb" fill="none"/><path d="M6 70 C169 63,171 92,330 44" stroke="#8ae36d" fill="none"/><path d="M4 101 C187 107,176 19,341 100" stroke="#bae58e" fill="none"/><path d="M16 52 C188 15,191 33,325 96" stroke="#92e792" fill="none"/><path d="M4 11 C154 75,157 86,331 16" stroke="#4ddab7" fill="none"/><path d="M17 66 C155 1,163 98,337 126" stroke="#e67490" fill="none"/><path d="M2 122 C162 7,176 112,337 74" stroke="#67e987" fill="none"/><path d="M19 72 C156 19,172 27,335 122" stroke="#b6d755" fill="none"/><path d="M18 95 C161 3,160 124,327 99" stroke="#e467e4" fill="none"/><path d="M13 94 C161 15,157 28,326 27" stroke="#46db6c" fill="none"/><path d="M19 22 C187 33,179 139,334 133" stroke="#60e0c0" fill="none"/><path d="M4 59 C150 20,186 50,329 35" stroke="#c0e849" fill="none"/><path fill="#ed6262" d="M125.18 96.50L125.20 96.52L125.30 96.62Q122.73 96.63 120.03 95.90L120.17 96.05L120.04 95.91Q117.93 94.33 117.67 91.50L117.74 91.57L117.73 91.56Q117.73 91.30 118.06 86.75L118.10 86.78L117.97 86.66Q119.79 86.36 123.28 85.70L123.24 85.66L122.92 86.99L123.04 87.11Q122.42 89.98 124.86 90.97L124.83 90.94L124.83 90.95Q126.24 91.57 129.87 91.57L129.86 91.56L129.95 91.65Q132.66 91.32 132.99 91.19L133.12 91.32L133.13 91.33Q134.71 91.06 135.96 90.21L135.88 90.12L135.96 90.21Q138.40 88.55 138.07 84.93L137.98 84.84L137.88 84.74Q137.68 80.65 134.68 77.95L134.63 77.89L134.62 77.89Q131.74 75.31 127.46 75.31L127.42 75.27L127.38 74.84L127.34 74.80Q127.92 74.65 129.44 74.52L129.46 74.54L129.48 74.56Q132.91 74.49 135.28 72.35L135.12 72.18L135.15 72.22Q137.54 70.09 137.81 66.86L137.90 66.95L137.84 66.89Q138.01 66.34 138.01 65.74L138.05 65.79L138.03 65.76Q138.06 63.16 135.68 61.57L135.59 61.48L135.68 61.57Q133.55 60.17 130.78 60.36L130.67 60.25L130.77 60.36Q128.52 60.08 126.41 60.80L126.44 60.84L126.27 60.67Q123.90 61.73 123.37 63.70L123.38 63.71L123.29 63.62Q123.05 65.03 123.18 66.34L123.09 66.25L123.17 66.34Q121.31 65.86 117.75 64.61L117.83 64.69L117.79 64.65Q117.50 61.85 117.57 60.40L117.56 60.39L117.46 60.30Q117.69 57.69 119.54 56.51L119.47 56.44L119.43 56.39Q121.86 55.33 124.63 55.33L124.69 55.40L124.71 55.42Q130.11 55.28 135.59 55.74L135.60 55.76L135.65 55.80Q144.42 56.52 143.89 63.05L143.97 63.14L143.85 63.01Q143.71 65.57 142.85 68.28L143.00 68.42L142.95 68.38Q141.34 73.69 137.25 75.27L137.24 75.26L137.20 75.22Q141.76 76.16 142.82 81.96L142.82 81.97L142.95 82.10Q143.22 83.94 143.35 87.44L143.41 87.49L143.40 87.49Q143.60 95.14 135.62 95.93L135.57 95.88L135.58 95.89Q134.32 96.02 125.15 96.48ZM134.20 100.38L134.26 100.43L134.19 100.37Q135.43 100.62 140.37 100.75L140.37 100.75L140.22 100.60Q143.24 100.72 146.08 99.59L146.07 99.59L146.18 99.70Q148.29 98.11 147.96 95.08L147.89 95.02L147.88 95.00Q147.68 92.69 147.15 89.66L147.24 89.74L147.23 89.74Q145.87 81.85 142.50 79.01L142.62 79.13L142.12 78.29L142.03 78.14L142.09 78.20Q145.10 75.67 146.42 68.09L146.42 68.09L146.53 68.20Q146.48 67.29 146.68 65.64L146.84 65.81L146.84 65.81Q146.89 64.40 146.76 63.21L146.67 63.13L146.83 63.29Q146.43 60.25 144.18 59.06L144.32 59.20L144.09 59.10L144.02 59.03Q143.67 57.49 141.69 56.57L141.62 56.50L141.70 56.57Q139.04 55.37 130.14 54.84L130.15 54.85L130.09 54.80Q127.15 54.62 124.38 54.62L124.31 54.55L124.42 54.66Q121.53 54.54 118.89 55.66L119.05 55.82L118.91 55.68Q116.81 57.01 116.81 60.04L116.83 60.06L116.81 60.04Q116.92 59.43 117.39 65.23L117.25 65.09L117.39 65.23Q117.93 65.38 120.76 66.44L120.74 66.41L120.67 66.34Q120.74 67.33 120.67 68.19L120.54 68.06L120.58 68.10Q120.63 69.00 120.69 69.93L120.74 69.97L120.73 69.97Q123.83 70.63 127.33 70.82L127.33 70.83L127.34 70.84Q127.20 67.34 129.12 65.88L129.04 65.81L129.05 65.82Q130.47 64.67 133.96 64.27L134.07 64.37L134.10 64.40Q135.97 64.30 136.96 64.63L137.01 64.68L136.99 64.66Q137.02 64.82 137.09 65.02L137.20 65.13L137.09 65.35L137.38 66.43L137.23 66.29Q137.37 66.75 137.30 67.01L137.20 66.91L137.19 66.90Q137.15 69.96 134.51 72.01L134.46 71.96L134.40 71.89Q132.85 73.51 129.36 73.84L129.31 73.79L129.43 73.92Q128.11 74.11 126.59 74.11L126.73 74.25L126.67 74.19Q126.78 74.82 127.04 76.01L126.98 75.94L126.95 75.91Q130.03 75.96 132.53 77.22L132.46 77.15L132.32 77.20L129.69 77.60L129.51 77.42Q129.64 78.08 129.84 79.14L129.82 79.11L129.89 79.19Q133.62 79.09 136.59 81.40L136.52 81.34L136.46 81.27Q136.89 81.97 137.42 84.80L137.47 84.86L137.54 84.93Q137.73 89.86 132.65 90.59L132.67 90.61L132.79 90.73Q129.15 91.18 128.16 91.11L128.13 91.08L128.09 91.04Q127.26 90.81 126.34 90.67L126.45 90.78L126.41 89.95L126.56 89.11L126.55 88.38L126.63 87.86L126.68 87.91Q125.09 88.11 123.71 88.44L123.75 88.48L123.66 88.39Q123.65 88.05 123.65 87.72L123.56 87.63L123.52 87.59Q123.61 87.29 123.61 86.89L123.75 87.03L123.71 86.99Q123.76 86.25 124.02 84.99L124.10 85.07L124.09 85.06Q120.84 85.43 117.60 86.03L117.56 85.98L117.50 85.93Q117.50 86.77 117.30 88.72L117.30 88.72L117.43 88.85Q117.05 90.62 117.05 91.67L117.12 91.74L117.23 91.85Q117.37 95.42 119.75 96.74L119.69 96.68L119.67 96.66Q122.31 100.69 130.49 100.36L130.36 100.23L130.32 100.19Q131.71 100.27 134.35 100.53Z"/><path d="M16 23 C159 92,153 77,322 103" stroke="#3e93e9" fill="none"/><path d="M3 30 C159 123,175 117,339 47" stroke="#89efef" fill="none"/><path d="M18 58 C189 118,179 134,333 121" stroke="#94e5d0" fill="none"/><path d="M7 90 C164 28,151 60,334 97" stroke="#62a0de" fill="none"/><path fill="#b7e887" d="M268.02 67.24L268.03 67.25L267.99 67.21Q262.54 67.30 259.38 65.45L259.36 65.43L259.34 65.42Q263.66 63.01 272.10 55.69L272.05 55.64L272.20 55.79Q273.33 55.34 275.57 54.29L275.61 54.33L275.69 54.40Q273.28 64.58 273.08 75.60L273.08 75.60L273.05 75.56Q272.85 86.58 274.70 97.13L274.70 97.13L274.67 97.10Q271.75 95.83 268.06 95.64L268.07 95.64L268.16 95.73Q267.93 88.52 267.93 81.46L267.87 81.40L268.03 81.56Q267.97 74.37 268.03 67.25ZM267.26 71.03L267.30 96.33L267.43 96.45Q269.37 96.29 271.02 96.62L271.04 96.64L271.07 96.67Q271.30 97.95 271.63 100.33L271.58 100.28L271.52 100.21Q276.54 101.21 280.76 105.10L280.72 105.06L280.72 105.06Q276.48 92.78 276.41 79.85L276.33 79.77L276.41 79.85Q276.19 66.84 279.36 54.31L279.40 54.36L279.33 54.28Q278.50 55.10 275.73 57.01L275.81 57.10L275.78 57.07Q276.14 55.78 276.67 53.14L276.54 53.01L276.52 52.99Q274.37 54.46 271.86 55.12L271.68 54.94L271.68 54.94Q265.26 61.25 257.81 65.21L257.82 65.22L257.70 65.10Q260.25 67.12 264.34 67.71L264.32 67.70L264.32 67.69Q263.10 68.52 260.86 70.37L261.05 70.56L260.99 70.50Q263.56 71.16 267.39 71.16L267.32 71.09Z"/><path d="M20 75 C155 31,177 94,340 11" stroke="#63dda0" fill="none"/><path d="M9 121 C163 49,178 66,324 72" stroke="#55e178" fill="none"/><path d="M2 45 C171 41,182 71,323 50" stroke="#8ba2e8" fill="none"/><path d="M13 67 C177 85,171 73,336 107" stroke="#c0e551" fill="none"/><path d="M1 3 C151 38,159 5,338 136" stroke="#cce485" fill="none"/><path d="M18 55 C177 69,155 120,324 1" stroke="#7ed0eb" fill="none"/><path d="M13 9 C186 74,150 122,323 74" stroke="#75df75" fill="none"/><path d="M6 134 C175 134,191 52,330 101" stroke="#edbc8c" fill="none"/><path d="M12 102 C162 75,166 45,331 7" stroke="#44dede" fill="none"/><path d="M12 86 C178 89,173 86,339 113" stroke="#df5ddf" fill="none"/><path d="M4 56 C181 111,152 7,340 123" stroke="#8e49d4" fill="none"/><path d="M13 40 C158 42,184 133,327 48" stroke="#e895bf" fill="none"/><path d="M7 6 C158 24,179 123,332 68" stroke="#5578e1" fill="none"/><path d="M7 107 C188 98,160 32,324 3" stroke="#dcdc55" fill="none"/><path fill="#e26969" d="M76.75 92.43L76.71 92.39L76.72 92.40Q77.13 94.00 78.05 97.49L78.19 97.63L78.19 97.63Q70.71 95.16 62.73 95.62L62.83 95.73L62.82 95.72Q55.01 96.28 48.08 99.71L47.90 99.52L48.04 99.66Q48.43 98.47 48.50 98.60L48.46 98.56L48.44 98.54Q54.92 91.70 61.71 84.05L61.63 83.98L61.65 83.99Q69.33 75.38 71.37 67.27L71.40 67.30L71.41 67.31Q72.10 64.18 69.89 62.13L70.04 62.28L69.95 62.19Q67.72 60.12 64.62 60.39L64.60 60.37L64.71 60.47Q64.10 60.39 63.50 60.39L63.51 60.40L63.49 60.38Q60.83 60.36 58.66 61.94L58.64 61.92L58.64 61.92Q56.45 64.36 56.85 68.97L56.84 68.96L56.84 68.97Q53.64 68.27 51.53 67.48L51.62 67.56L51.63 67.58Q51.28 65.11 51.15 62.61L51.10 62.56L51.21 62.67Q50.95 59.71 52.01 57.73L51.99 57.72L52.17 57.89Q55.14 55.39 60.95 55.39L60.95 55.40L64.10 55.52L63.97 55.38Q67.87 55.40 69.52 55.59L69.56 55.64L69.53 55.60Q77.15 56.43 77.61 60.65L77.67 60.72L77.59 60.64Q77.72 61.62 77.59 63.00L77.65 63.07L77.64 63.05Q77.49 64.09 77.23 65.28L77.20 65.25L77.31 65.36Q74.41 79.35 61.29 91.22L61.22 91.14L61.40 91.33Q63.69 90.91 66.06 90.91L66.13 90.98L66.09 90.94Q71.70 90.94 76.64 92.32ZM75.69 56.30L75.60 56.20L75.62 56.22Q72.96 55.21 69.99 55.07L69.90 54.99L64.00 54.69L64.00 54.69Q56.27 54.22 52.45 56.13L52.42 56.10L52.40 56.09Q50.68 58.58 50.68 62.14L50.57 62.03L50.59 62.05Q50.75 63.40 51.28 68.28L51.20 68.20L51.23 68.23Q52.18 68.65 54.22 69.18L54.26 69.22L54.28 71.02L54.15 70.89Q54.17 71.76 54.30 72.69L54.25 72.63L54.30 72.69Q56.43 72.84 60.71 73.23L60.65 73.17L60.65 73.17Q60.68 72.61 60.68 72.01L60.75 72.08L60.66 71.99Q60.66 68.83 62.77 66.49L62.84 66.56L62.83 66.55Q64.96 64.23 68.06 64.42L67.94 64.31L67.92 64.28Q69.37 64.48 70.69 64.74L70.55 64.60L70.56 64.62Q70.84 65.36 70.98 66.08L70.94 66.05L71.02 66.13Q71.07 66.84 70.94 67.43L70.84 67.33L70.81 67.30Q68.73 75.64 61.08 84.01L61.10 84.04L60.97 83.90Q57.43 87.95 48.00 98.44L48.01 98.44L47.96 98.39Q47.53 99.75 46.94 100.73L46.96 100.76L46.96 100.75Q49.85 99.36 52.48 98.43L52.47 98.42L52.39 98.34Q51.05 99.25 49.40 101.82L49.58 102.00L49.51 101.92Q49.37 102.57 49.17 103.16L49.21 103.20L49.03 103.03Q57.52 99.51 67.01 99.84L67.05 99.88L67.10 99.93Q76.91 100.17 84.82 104.26L84.74 104.18L83.06 100.53L82.97 100.43Q81.93 98.20 81.47 96.82L81.43 96.78L81.52 96.88Q80.15 96.03 78.04 95.30L78.15 95.41L78.13 95.39Q77.76 94.04 77.10 91.67L77.27 91.83L77.18 91.74Q73.42 90.82 69.47 90.49L69.51 90.53L69.36 90.39Q77.58 82.58 80.21 68.27L80.10 68.16L80.45 63.16L80.56 63.27Q80.31 60.05 78.20 58.87L78.31 58.98L78.23 58.97L78.28 59.02Q78.04 58.71 77.91 58.71L78.02 58.82L77.98 58.78Q77.52 57.27 75.61 56.21Z"/><path d="M18 29 C171 82,182 62,339 30" stroke="#e66f8c" fill="none"/><path d="M16 78 C182 101,156 123,337 116" stroke="#ba90e3" fill="none"/><path d="M7 33 C175 117,153 42,321 84" stroke="#b2e77d" fill="none"/><path d="M9 55 C177 87,187 26,334 129" stroke="#5096dc" fill="none"/><path d="M1 39 C161 12,188 113,329 132" stroke="#7a57e4" fill="none"/></svg>