<svg xmlns="http://www.w3.org/2000/svg" width="342" height="140" viewBox="0,0,342,140"><path d="M11 86 C171 128,191 115,330 4" stroke="#96e645" fill="none"/><path d="M16 115 C170 59,183 30,338 134" stroke="#8be3cd" fill="none"/><path d="M4 88 C191 45,168 100,339 56" stroke="#d75576" fill="none"/><path d="M1 62 C153 107,188 33,321 59" stroke="#8ae46c" fill="none"/><path d="M7 50 C169 49,153 11,324 53" stroke="#71e48e" fill="none"/><path d="M3 83 C163 123,184 138,327 123" stroke="#9b5ed8" fill="none"/><path d="M2 124 C167 81,151 55,322 37" stroke="#eb8665" fill="none"/><path d="M10 138 C186 82,189 120,333 85" stroke="#ec9578" fill="none"/><path d="M14 86 C173 73,182 49,341 54" stroke="#69e769" fill="none"/><path fill="#d9b64e" d="M75.98 90.68L76.14 90.84L75.97 90.67Q76.63 92.43 77.49 95.67L77.30 95.48L77.35 95.54Q70.68 93.51 63.28 93.94L63.18 93.85L63.22 93.89Q55.91 94.34 49.48 97.52L49.39 97.43L49.45 97.49Q49.70 96.28 49.77 96.40L49.78 96.42L49.81 96.44Q55.85 90.12 62.15 83.02L62.17 83.04L62.16 83.04Q69.28 75.04 71.17 67.51L71.14 67.48L71.07 67.41Q71.92 64.71 69.87 62.81L69.90 62.85L69.87 62.82Q67.75 60.85 64.88 61.10L64.93 61.15L64.81 61.03Q64.33 61.04 63.78 61.04L63.74 61.00L63.73 60.98Q61.40 61.11 59.38 62.58L59.32 62.51L59.33 62.52Q57.27 64.74 57.63 69.02L57.63 69.02L57.71 69.11Q54.69 68.40 52.73 67.67L52.81 67.75L52.73 67.67Q52.39 65.37 52.27 63.05L52.31 63.09L52.38 63.16Q52.21 60.48 53.19 58.64L53.21 58.67L53.24 58.70Q56.11 56.49 61.49 56.49L61.51 56.50L64.31 56.49L64.39 56.57Q67.97 56.54 69.50 56.72L69.56 56.78L69.50 56.72Q76.42 57.34 76.85 61.26L76.88 61.29L76.82 61.23Q77.03 62.24 76.91 63.52L76.94 63.55L77.00 63.61Q76.77 64.49 76.53 65.59L76.58 65.64L76.61 65.67Q74.03 78.76 61.86 89.77L61.70 89.61L61.86 89.77Q64.01 89.41 66.21 89.41L66.19 89.39L66.21 89.41Q71.54 89.54 76.13 90.83ZM75.14 57.29L75.09 57.23L75.20 57.35Q72.53 56.20 69.77 56.08L69.81 56.12L64.30 55.81L64.39 55.90Q57.20 55.44 53.66 57.22L53.58 57.14L53.68 57.24Q51.85 59.32 51.85 62.63L51.81 62.59L51.93 62.70Q51.89 63.77 52.38 68.29L52.41 68.33L52.35 68.26Q53.29 68.72 55.19 69.21L55.28 69.30L55.11 70.78L55.23 70.90Q55.17 71.64 55.29 72.50L55.32 72.53L55.16 72.37Q57.34 72.71 61.31 73.07L61.19 72.95L61.20 72.96Q61.26 72.46 61.26 71.91L61.11 71.77L61.13 71.78Q61.11 68.84 63.07 66.66L63.19 66.79L63.10 66.69Q65.12 64.58 67.99 64.76L67.94 64.71L67.95 64.72Q69.22 64.83 70.44 65.07L70.38 65.01L70.40 65.03Q70.67 65.72 70.79 66.40L70.81 66.41L70.79 66.40Q70.83 67.04 70.70 67.59L70.70 67.60L70.66 67.55Q68.67 75.23 61.58 83.00L61.54 82.96L61.47 82.90Q58.22 86.68 49.47 96.41L49.42 96.35L49.44 96.38Q49.14 97.73 48.59 98.65L48.56 98.62L48.44 98.50Q51.14 97.23 53.59 96.37L53.52 96.30L53.55 96.33Q52.36 97.22 50.83 99.61L50.89 99.66L50.83 99.61Q50.59 100.10 50.41 100.65L50.50 100.74L50.48 100.72Q58.33 97.44 67.14 97.75L67.09 97.70L67.11 97.71Q76.17 97.91 83.52 101.70L83.49 101.67L82.00 98.35L82.07 98.41Q81.00 96.25 80.57 94.96L80.57 94.96L80.55 94.94Q79.40 94.28 77.44 93.61L77.30 93.47L77.35 93.51Q77.08 92.33 76.47 90.13L76.50 90.15L76.63 90.29Q72.95 89.24 69.28 88.93L69.25 88.91L69.33 88.98Q76.79 81.57 79.23 68.29L79.21 68.27L79.59 63.69L79.67 63.77Q79.55 60.90 77.59 59.80L77.45 59.66L77.45 59.71L77.42 59.69Q77.42 59.63 77.30 59.63L77.31 59.64L77.27 59.60Q76.84 58.20 75.07 57.22Z"/><path d="M8 58 C164 96,185 122,322 16" stroke="#45dd91" fill="none"/><path d="M1 62 C167 106,188 65,334 30" stroke="#d0ea84" fill="none"/><path d="M17 84 C186 66,154 12,328 10" stroke="#9854dd" fill="none"/><path d="M8 4 C159 113,175 9,338 13" stroke="#4bdcdc" fill="none"/><path d="M16 41 C154 88,174 53,325 26" stroke="#df61c0" fill="none"/><path d="M15 134 C165 4,171 40,331 125" stroke="#5b7ce0" fill="none"/><path d="M19 16 C183 95,160 26,324 15" stroke="#e77d98" fill="none"/><path d="M17 27 C188 45,182 8,337 57" stroke="#9856db" fill="none"/><path d="M4 21 C177 50,188 124,335 130" stroke="#dede62" fill="none"/><path d="M7 34 C163 41,190 11,338 128" stroke="#92e7d1" fill="none"/><path fill="#bb36e7" d="M126.04 94.66L126.06 94.69L126.02 94.65Q123.78 94.80 121.27 94.13L121.24 94.09L121.17 94.02Q119.32 92.66 119.08 90.03L119.06 90.02L119.12 90.08Q118.96 89.67 119.26 85.45L119.33 85.51L119.28 85.47Q120.87 85.09 124.11 84.48L124.11 84.48L123.84 85.74L123.91 85.80Q123.54 88.68 125.80 89.60L125.78 89.58L125.68 89.47Q127.10 90.16 130.46 90.16L130.32 90.02L130.35 90.05Q132.94 89.82 133.25 89.70L133.34 89.79L133.24 89.69Q134.74 89.48 135.90 88.68L135.87 88.65L135.85 88.63Q138.24 87.23 137.94 83.87L137.88 83.81L137.80 83.73Q137.46 79.78 134.68 77.27L134.84 77.43L134.79 77.39Q131.96 74.83 127.99 74.83L127.92 74.77L127.89 74.37L128.01 74.50Q128.61 74.42 130.02 74.30L130.08 74.36L130.10 74.38Q133.10 74.13 135.30 72.14L135.33 72.17L135.28 72.12Q137.40 70.06 137.65 67.06L137.62 67.03L137.68 67.10Q137.88 66.62 137.88 66.07L137.79 65.97L137.75 65.94Q137.77 63.51 135.57 62.04L135.72 62.20L135.71 62.18Q133.68 60.83 131.11 61.01L131.16 61.06L131.17 61.07Q129.09 60.83 127.14 61.50L127.05 61.41L127.07 61.44Q124.76 62.31 124.27 64.15L124.31 64.18L124.28 64.16Q123.99 65.40 124.12 66.62L124.10 66.60L124.00 66.50Q122.39 66.18 119.09 65.02L119.17 65.10L119.19 65.12Q118.72 62.33 118.78 60.98L118.79 60.99L118.90 61.09Q118.98 58.55 120.69 57.44L120.78 57.53L120.62 57.37Q123.00 56.51 125.57 56.51L125.60 56.54L125.60 56.54Q130.71 56.52 135.79 56.94L135.65 56.80L135.72 56.87Q143.79 57.48 143.30 63.54L143.37 63.60L143.31 63.54Q143.17 65.91 142.37 68.42L142.52 68.57L142.47 68.52Q141.05 73.52 137.26 74.99L137.08 74.81L137.17 74.91Q141.29 75.66 142.27 81.04L142.32 81.09L142.41 81.18Q142.71 82.95 142.83 86.19L142.77 86.13L142.86 86.22Q143.19 93.46 135.78 94.20L135.66 94.07L135.71 94.12Q134.62 94.31 126.11 94.74ZM134.45 98.31L134.47 98.33L134.42 98.28Q135.38 98.32 139.97 98.44L140.07 98.54L139.92 98.39Q142.83 98.61 145.46 97.57L145.38 97.49L145.40 97.51Q147.27 95.96 146.97 93.14L147.04 93.21L146.97 93.14Q146.89 91.10 146.40 88.29L146.26 88.15L146.24 88.13Q145.24 81.08 142.12 78.45L142.01 78.34L141.78 77.80L141.62 77.58L141.77 77.73Q144.59 75.41 145.82 68.38L145.65 68.21L145.77 68.32Q145.86 67.62 146.04 66.09L145.94 65.99L145.97 66.02Q146.09 64.79 145.97 63.69L145.89 63.62L146.05 63.77Q145.63 60.91 143.55 59.81L143.64 59.90L143.46 59.84L143.48 59.86Q143.13 58.41 141.30 57.55L141.27 57.53L141.23 57.48Q138.81 56.42 130.55 55.93L130.47 55.85L130.42 55.79Q127.79 55.74 125.22 55.74L125.17 55.68L125.16 55.67Q122.76 55.84 120.31 56.88L120.25 56.82L120.16 56.73Q118.26 58.01 118.26 60.82L118.34 60.91L118.24 60.80Q118.34 60.23 118.77 65.61L118.78 65.62L118.66 65.51Q119.20 65.68 121.83 66.66L121.80 66.63L121.86 66.69Q121.76 67.45 121.70 68.24L121.75 68.29L121.78 68.32Q121.67 69.01 121.73 69.87L121.72 69.85L121.72 69.85Q124.68 70.55 127.92 70.73L127.83 70.64L127.83 70.64Q127.78 67.47 129.55 66.12L129.56 66.13L129.59 66.16Q130.99 65.18 134.24 64.81L134.11 64.68L134.25 64.82Q135.91 64.65 136.82 64.95L136.92 65.05L136.83 64.95Q136.99 65.24 137.05 65.43L137.08 65.45L136.95 65.63L137.16 66.57L137.22 66.63Q137.27 66.98 137.21 67.23L137.08 67.10L137.15 67.18Q137.05 69.95 134.60 71.84L134.66 71.91L134.50 71.75Q133.03 73.21 129.79 73.52L129.79 73.52L129.82 73.55Q128.66 73.80 127.25 73.80L127.36 73.90L127.34 73.89Q127.33 74.36 127.57 75.46L127.59 75.47L127.62 75.51Q130.37 75.44 132.69 76.61L132.77 76.68L132.64 76.74L130.16 77.07L130.07 76.98Q130.21 77.61 130.40 78.59L130.25 78.44L130.24 78.43Q133.69 78.33 136.44 80.48L136.51 80.54L136.42 80.45Q136.92 81.20 137.41 83.83L137.33 83.75L137.35 83.77Q137.74 88.56 133.03 89.24L132.86 89.07L132.99 89.20Q129.62 89.62 128.70 89.56L128.73 89.58L128.57 89.42Q128.01 89.42 127.15 89.30L127.12 89.26L127.16 88.57L127.31 87.80L127.27 87.09L127.40 86.67L127.35 86.62Q125.75 86.67 124.46 86.97L124.58 87.09L124.53 87.04Q124.54 86.75 124.54 86.44L124.46 86.35L124.54 86.44Q124.63 86.16 124.63 85.79L124.61 85.78L124.49 85.66Q124.55 84.98 124.79 83.82L124.93 83.95L124.78 83.80Q121.81 84.20 118.81 84.75L118.94 84.88L118.90 84.84Q118.83 85.56 118.64 87.37L118.64 87.36L118.70 87.42Q118.56 89.27 118.56 90.25L118.55 90.24L118.52 90.21Q118.59 93.46 120.79 94.69L120.83 94.72L120.75 94.64Q123.20 98.38 130.79 98.07L130.79 98.07L130.80 98.08Q132.04 98.10 134.49 98.34Z"/><path d="M7 75 C182 129,157 50,331 17" stroke="#7ae4ca" fill="none"/><path d="M17 56 C167 136,154 70,333 124" stroke="#e8e86d" fill="none"/><path fill="#8ce7e7" d="M267.46 61.42L267.40 61.36L264.95 61.60L264.89 61.55Q261.31 61.75 260.94 65.00L260.96 65.01L260.85 64.91Q260.83 66.17 260.89 67.76L260.85 67.72L260.79 67.66Q260.93 70.86 262.95 73.00L262.88 72.93L262.95 73.00Q265.05 75.22 268.11 74.98L268.09 74.96L268.05 74.92Q271.25 74.57 272.47 73.10L272.54 73.17L272.54 73.17Q274.19 71.64 274.62 68.03L274.61 68.02L274.70 68.11Q275.17 64.54 273.15 63.19L273.17 63.21L273.17 63.21Q271.69 61.86 267.41 61.37ZM277.13 76.23L277.12 76.22L274.98 79.84L275.08 79.93Q270.72 87.62 264.66 94.17L264.70 94.21L264.57 94.08Q261.97 94.35 257.62 95.64L257.72 95.73L257.60 95.61Q266.15 85.50 271.23 77.79L271.26 77.83L271.37 77.93Q269.58 78.83 266.94 78.96L267.02 79.03L267.02 79.03Q262.25 79.34 259.80 76.16L259.75 76.11L259.69 76.05Q257.75 73.50 255.98 66.15L256.05 66.23L256.09 66.27Q256.02 65.46 255.78 63.96L255.86 64.04L255.78 63.96Q255.45 62.39 255.45 61.65L255.61 61.80L255.53 61.73Q255.63 58.95 257.34 57.97L257.24 57.87L257.19 57.82Q259.15 56.60 262.15 56.60L262.22 56.67L262.26 56.71Q267.28 56.60 267.28 56.60L267.28 56.60L267.43 56.74Q270.91 56.80 272.93 57.11L272.83 57.00L272.82 57.00Q276.21 57.38 277.68 58.18L277.80 58.30L277.73 58.24Q280.03 59.55 280.33 62.37L280.27 62.30L280.30 62.33Q280.17 62.57 279.86 66.85L280.05 67.04L279.88 66.87Q279.41 70.43 279.04 71.78L278.99 71.73L278.93 71.67Q278.44 74.06 277.22 76.32ZM280.23 80.13L280.14 80.04L280.28 80.17Q281.77 76.53 282.63 69.61L282.61 69.59L282.72 69.71Q283.03 66.04 282.96 64.63L282.91 64.58L282.93 64.59Q282.93 61.65 281.03 60.18L281.14 60.29L280.62 60.08L280.58 60.04Q280.18 58.84 278.71 57.80L278.61 57.70L278.66 57.75Q274.93 56.10 267.22 55.86L267.21 55.85L267.30 55.94Q265.70 55.87 261.78 55.87L261.83 55.91L261.87 55.95Q259.09 55.99 256.70 57.09L256.73 57.11L256.72 57.11Q254.81 58.32 254.94 61.26L255.01 61.33L255.00 61.33Q255.26 62.74 255.56 65.98L255.48 65.90L255.49 65.91Q256.50 70.17 256.93 71.51L257.01 71.59L256.91 71.49Q257.91 74.57 259.44 76.65L259.43 76.64L259.40 76.61Q259.86 77.20 260.47 77.81L260.36 77.70L260.41 77.74Q260.79 78.43 261.83 79.89L261.84 79.91L261.88 79.95Q264.38 82.26 267.50 82.57L267.42 82.49L267.41 82.48Q264.28 86.69 261.77 89.75L261.91 89.89L256.05 96.87L255.98 96.81Q259.67 95.67 262.31 95.12L262.18 95.00L262.26 95.08Q260.97 96.41 258.46 99.17L258.63 99.33L258.46 99.16Q263.40 97.68 268.42 97.62L268.58 97.79L268.57 97.78Q272.18 93.49 279.15 81.87L279.26 81.97L279.25 82.09L279.15 81.99Q279.64 80.88 280.19 80.09ZM270.58 65.28L270.53 65.22L270.58 65.28Q271.54 65.08 272.28 65.26L272.17 65.16L272.22 65.20Q273.21 65.33 273.82 65.52L273.91 65.61L273.80 65.50Q274.00 66.12 274.12 66.80L274.24 66.91L274.15 66.82Q274.28 67.51 274.10 68.12L274.14 68.17L274.17 68.19Q274.13 70.97 272.24 72.75L272.25 72.76L272.20 72.71Q270.68 74.37 268.05 74.30L268.05 74.31L267.97 74.23Q267.31 74.24 264.86 73.75L264.95 73.84L265.00 73.89Q264.47 72.32 264.47 71.16L264.59 71.28L264.54 71.23Q264.41 70.79 264.41 70.43L264.41 70.42L264.42 70.44Q264.35 66.81 268.02 65.53L268.04 65.55L268.16 65.67Q269.29 65.33 270.63 65.33Z"/><path d="M16 80 C155 20,163 85,325 82" stroke="#d64646" fill="none"/><path d="M5 31 C162 53,167 23,327 69" stroke="#e96767" fill="none"/><path d="M20 86 C187 14,165 116,321 121" stroke="#e85353" fill="none"/><path d="M10 108 C154 8,190 138,325 56" stroke="#ee6cee" fill="none"/><path d="M12 107 C183 103,175 67,332 12" stroke="#e56686" fill="none"/><path d="M15 2 C182 107,183 69,321 97" stroke="#e8cc77" fill="none"/><path d="M5 18 C164 27,160 84,328 48" stroke="#8be96c" fill="none"/><path d="M9 124 C169 106,175 38,325 113" stroke="#5fbddd" fill="none"/><path d="M8 27 C159 79,181 115,337 123" stroke="#5577dc" fill="none"/><path d="M8 17 C154 26,160 10,335 71" stroke="#e6724b" fill="none"/><path d="M11 92 C190 96,181 33,333 5" stroke="#e2c97d" fill="none"/><path d="M7 67 C181 98,167 6,327 131" stroke="#e9e948" fill="none"/><path d="M6 86 C189 87,176 77,332 17" stroke="#87eded" fill="none"/><path d="M14 132 C171 14,153 94,335 64" stroke="#79e1c7" fill="none"/><path d="M10 23 C187 134,181 106,321 62" stroke="#89e46b" fill="none"/><path d="M3 45 C157 90,182 76,340 61" stroke="#78cfec" fill="none"/><path d="M6 32 C173 3,161 121,325 33" stroke="#cbec69" fill="none"/><path fill="#e88cba" d="M199.31 76.72L199.39 76.80L199.38 76.79Q196.35 76.76 194.39 78.90L194.42 78.93L194.44 78.95Q192.36 80.97 192.12 84.03L192.10 84.01L192.18 84.09Q191.82 87.47 193.78 89.09L193.89 89.19L193.87 89.18Q195.76 90.73 199.19 90.61L199.12 90.55L199.23 90.65Q202.87 90.32 204.40 88.79L204.37 88.76L204.54 88.92Q206.12 86.53 205.94 83.59L205.91 83.56L205.86 83.51Q205.80 80.64 204.06 78.71L204.04 78.70L204.09 78.75Q202.17 76.64 199.23 76.64ZM199.19 61.49L199.19 61.49L199.31 61.60Q197.05 61.43 194.91 62.22L194.77 62.08L194.95 62.27Q192.76 63.44 193.13 66.44L193.07 66.38L193.08 66.39Q193.87 72.38 199.25 72.38L199.40 72.53L199.33 72.46Q201.79 72.72 203.38 70.88L203.36 70.86L203.36 70.86Q204.95 69.02 205.01 66.51L204.98 66.48L205.06 66.57Q205.17 63.73 204.00 62.75L204.11 62.86L203.93 62.68Q201.33 61.43 199.25 61.55ZM198.90 94.66L198.80 94.57L193.93 94.59L193.96 94.62Q191.48 94.58 189.34 93.18L189.33 93.17L189.35 93.19Q187.08 91.29 187.32 86.70L187.34 86.72L187.39 86.77Q188.06 75.69 193.87 74.10L194.03 74.26L193.90 74.12Q190.34 72.76 188.19 64.14L188.10 64.05L188.16 64.10Q187.49 61.72 187.61 60.44L187.61 60.44L187.77 60.59Q188.09 57.00 194.03 56.94L194.02 56.93L194.19 57.10Q200.86 56.86 203.19 57.17L203.30 57.28L203.19 57.17Q209.46 58.11 210.19 61.36L210.10 61.26L210.25 61.41Q210.33 62.29 210.33 62.90L210.37 62.94L210.36 62.93Q210.32 63.99 210.01 64.97L209.93 64.89L210.06 65.01Q209.07 71.79 204.36 74.24L204.42 74.31L204.30 74.18Q210.04 75.58 210.84 84.09L210.83 84.08L210.79 84.04Q210.81 84.30 210.87 86.38L210.90 86.42L210.74 86.25Q210.90 90.70 208.33 92.41L208.42 92.50L208.47 92.55Q206.23 93.92 198.89 94.66ZM202.49 98.32L202.52 98.35L207.87 98.44L207.88 98.44Q210.61 98.54 213.06 97.38L213.18 97.51L213.04 97.37Q215.00 96.33 215.13 93.33L215.10 93.31L215.05 93.26Q215.06 91.43 214.45 88.31L214.45 88.31L214.47 88.33Q212.95 80.81 209.58 77.81L209.66 77.89L209.29 77.21L209.03 76.84L208.70 76.32L208.78 76.40Q211.50 74.29 212.97 67.62L212.85 67.50L212.86 67.51Q212.97 67.01 213.10 65.67L213.05 65.62L213.01 65.58Q213.21 64.55 213.08 63.57L212.93 63.42L212.99 63.48Q212.86 61.27 210.97 60.48L210.87 60.38L210.92 60.37L210.57 60.14L210.68 60.26Q210.28 59.12 208.39 57.84L208.27 57.72L208.45 57.83L208.38 57.77Q205.10 56.57 198.55 56.26L198.66 56.37L198.70 56.41Q196.06 56.09 193.85 56.27L193.93 56.35L193.92 56.34Q192.69 56.46 190.61 56.70L190.57 56.66L190.53 56.62Q187.44 57.26 187.07 59.89L187.02 59.85L187.00 59.82Q187.09 60.77 187.15 62.05L187.18 62.08L187.08 61.98Q187.33 62.91 188.25 66.70L188.18 66.64L188.25 66.71Q189.46 71.83 192.27 73.97L192.23 73.93L192.50 74.19L192.45 74.15Q188.03 76.27 187.18 84.59L187.03 84.45L187.14 84.55Q186.73 88.00 186.73 89.47L186.81 89.55L186.79 89.53Q186.89 92.38 188.78 93.85L188.76 93.83L188.86 93.93Q189.03 94.03 189.46 94.34L189.49 94.37L189.43 94.32Q191.03 97.93 202.47 98.30ZM201.87 80.45L202.01 80.58L201.99 80.56Q203.45 80.43 204.86 81.17L204.75 81.06L204.84 81.15Q205.42 82.71 205.36 83.57L205.45 83.65L205.30 83.51Q205.38 84.02 205.38 84.51L205.41 84.53L205.41 84.54Q205.40 88.31 201.73 89.66L201.69 89.62L201.75 89.69Q200.56 90.26 199.27 90.08L199.18 89.99L199.25 90.06Q197.46 90.22 195.62 89.49L195.59 89.45L195.55 89.42Q195.17 88.43 195.29 86.84L195.24 86.78L195.35 86.89Q195.58 84.31 197.51 82.36L197.39 82.24L197.51 82.36Q199.32 80.28 201.89 80.47ZM202.39 65.36L202.29 65.26L202.33 65.30Q203.64 65.15 204.50 65.39L204.39 65.29L204.46 66.63L204.42 66.60Q204.44 68.88 202.97 70.50L202.98 70.51L203.09 70.62Q201.48 72.10 199.27 71.79L199.35 71.87L199.38 71.89Q197.72 71.83 197.05 71.46L197.00 71.41L197.05 71.46Q196.95 71.00 196.77 69.90L196.89 70.02L196.78 69.90Q196.37 67.66 198.33 66.32L198.33 66.31L198.32 66.30Q200.00 65.18 202.27 65.24Z"/><path d="M17 135 C166 17,167 79,327 39" stroke="#74e08f" fill="none"/><path d="M6 14 C164 67,175 110,338 21" stroke="#d44eb2" fill="none"/></svg>