<svg xmlns="http://www.w3.org/2000/svg" width="342" height="140" viewBox="0,0,342,140"><path d="M2 46 C172 19,179 65,325 27" stroke="#c274dc" fill="none"/><path d="M20 121 C181 26,171 132,324 19" stroke="#e48ace" fill="none"/><path d="M10 69 C167 126,175 52,322 78" stroke="#67c4e4" fill="none"/><path d="M10 86 C187 121,191 66,335 130" stroke="#41e641" fill="none"/><path d="M14 66 C187 133,180 90,323 103" stroke="#5998d8" fill="none"/><path d="M3 29 C192 96,191 55,323 129" stroke="#ebca64" fill="none"/><path d="M10 11 C161 104,178 46,340 58" stroke="#e96539" fill="none"/><path d="M14 2 C163 103,188 97,340 61" stroke="#e39d86" fill="none"/><path d="M8 11 C163 60,170 98,325 98" stroke="#d8914a" fill="none"/><path d="M13 129 C192 19,190 135,325 85" stroke="#879ee2" fill="none"/><path d="M17 52 C177 51,191 84,328 90" stroke="#dc8c3b" fill="none"/><path d="M11 32 C190 32,165 132,325 16" stroke="#7a58de" fill="none"/><path d="M20 5 C189 59,155 92,321 5" stroke="#f0f07f" fill="none"/><path d="M7 42 C153 33,183 21,327 80" stroke="#dab647" fill="none"/><path d="M20 19 C153 107,170 85,332 114" stroke="#577bea" fill="none"/><path d="M6 59 C178 93,158 134,322 109" stroke="#9654d8" fill="none"/><path fill="#e868e8" d="M126.51 93.21L126.57 93.27L126.60 93.31Q124.53 93.49 122.16 92.85L122.02 92.72L122.17 92.87Q120.20 91.35 119.97 88.87L120.03 88.93L119.99 88.89Q119.98 88.65 120.27 84.66L120.32 84.71L120.15 84.54Q121.83 84.38 124.89 83.80L124.89 83.79L124.55 84.90L124.49 84.84Q124.09 87.50 126.23 88.37L126.20 88.34L126.30 88.44Q127.49 88.93 130.66 88.93L130.69 88.96L130.59 88.86Q133.12 88.74 133.41 88.62L133.48 88.68L133.30 88.51Q134.76 88.35 135.86 87.60L135.98 87.72L135.96 87.70Q138.04 86.20 137.75 83.02L137.76 83.02L137.78 83.05Q137.38 79.24 134.75 76.87L134.76 76.88L134.78 76.90Q132.12 74.50 128.37 74.50L128.50 74.63L128.36 74.15L128.39 74.18Q129.11 74.26 130.44 74.14L130.24 73.95L130.30 74.01Q133.20 73.84 135.28 71.96L135.32 72.00L135.34 72.02Q137.46 70.19 137.69 67.36L137.56 67.22L137.54 67.21Q137.71 66.74 137.71 66.22L137.76 66.27L137.83 66.34Q137.77 63.96 135.68 62.58L135.69 62.58L135.73 62.62Q133.90 61.43 131.47 61.60L131.41 61.54L131.47 61.60Q129.46 61.33 127.61 61.96L127.54 61.89L127.62 61.97Q125.27 62.63 124.81 64.36L124.92 64.47L124.88 64.43Q124.63 65.63 124.75 66.78L124.77 66.80L124.76 66.79Q123.18 66.43 120.06 65.33L120.05 65.31L120.11 65.38Q119.74 62.81 119.80 61.54L119.77 61.51L119.67 61.42Q119.87 59.12 121.48 58.08L121.61 58.21L121.65 58.25Q123.64 57.17 126.06 57.17L126.11 57.22L126.15 57.26Q130.89 57.15 135.69 57.55L135.71 57.58L135.80 57.66Q143.38 58.20 142.92 63.92L142.85 63.85L142.92 63.92Q142.83 66.20 142.08 68.56L142.10 68.59L142.15 68.64Q140.73 73.29 137.15 74.68L137.08 74.61L137.00 74.53Q141.11 75.46 142.04 80.55L141.92 80.43L141.93 80.44Q142.35 82.24 142.46 85.30L142.51 85.35L142.41 85.25Q142.79 92.16 135.80 92.85L135.66 92.71L135.62 92.68Q134.59 92.86 126.56 93.26ZM134.40 96.60L134.47 96.67L134.57 96.76Q135.43 96.76 139.76 96.87L139.84 96.95L139.66 96.78Q142.32 96.89 144.81 95.91L144.89 96.00L144.90 96.00Q146.65 94.51 146.36 91.86L146.38 91.88L146.43 91.93Q146.20 89.85 145.73 87.19L145.74 87.20L145.81 87.27Q144.69 80.42 141.74 77.94L141.77 77.96L141.47 77.37L141.42 77.27L141.47 77.32Q144.04 75.03 145.19 68.39L145.17 68.36L145.13 68.33Q145.16 67.60 145.33 66.15L145.50 66.33L145.45 66.27Q145.53 65.09 145.42 64.05L145.40 64.03L145.50 64.13Q145.17 61.49 143.21 60.45L143.16 60.40L143.20 60.56L143.04 60.40Q142.55 58.87 140.82 58.06L140.96 58.20L140.90 58.15Q138.59 57.10 130.79 56.64L130.79 56.65L130.87 56.72Q128.25 56.53 125.82 56.53L125.88 56.59L125.88 56.58Q123.42 56.55 121.11 57.54L121.19 57.62L121.19 57.62Q119.18 58.61 119.18 61.27L119.21 61.30L119.24 61.33Q119.21 60.66 119.61 65.75L119.70 65.83L119.68 65.81Q120.10 65.89 122.58 66.81L122.69 66.92L122.66 66.89Q122.52 67.56 122.46 68.31L122.49 68.34L122.45 68.29Q122.50 69.10 122.56 69.90L122.57 69.92L122.59 69.94Q125.28 70.49 128.34 70.66L128.46 70.78L128.36 70.68Q128.32 67.69 129.99 66.42L130.00 66.42L129.90 66.32Q131.19 65.37 134.26 65.02L134.27 65.03L134.19 64.95Q135.96 64.99 136.82 65.28L136.80 65.25L136.82 65.27Q137.01 65.58 137.07 65.75L136.97 65.65L137.06 66.03L137.09 66.76L137.11 66.77Q137.21 67.16 137.15 67.39L137.10 67.34L137.17 67.42Q137.01 69.97 134.70 71.77L134.74 71.80L134.73 71.79Q133.29 73.12 130.22 73.41L130.17 73.36L130.20 73.39Q129.22 73.73 127.89 73.73L127.82 73.67L127.75 73.60Q127.85 74.15 128.08 75.19L128.11 75.22L128.00 75.12Q130.72 75.18 132.91 76.27L132.88 76.25L132.75 76.28L130.40 76.59L130.40 76.60Q130.47 77.12 130.64 78.05L130.63 78.03L130.69 78.09Q133.76 77.82 136.36 79.84L136.54 80.01L136.43 79.91Q136.74 80.45 137.20 82.93L137.34 83.07L137.29 83.02Q137.50 87.39 133.05 88.03L133.05 88.03L133.09 88.06Q129.88 88.44 129.02 88.38L129.08 88.44L129.11 88.48Q128.38 88.26 127.57 88.15L127.51 88.09L127.51 87.40L127.83 86.85L127.81 86.19L127.81 85.67L127.84 85.71Q126.42 85.84 125.20 86.13L125.09 86.02L125.27 86.19Q125.15 85.79 125.15 85.50L125.07 85.42L125.07 85.42Q125.28 85.29 125.28 84.94L125.11 84.76L125.21 84.87Q125.26 84.23 125.49 83.13L125.57 83.21L125.41 83.04Q122.64 83.45 119.81 83.97L119.75 83.92L119.81 83.97Q119.82 84.73 119.65 86.44L119.58 86.38L119.66 86.46Q119.55 88.22 119.55 89.15L119.40 89.00L119.39 88.99Q119.67 92.27 121.75 93.42L121.60 93.27L121.65 93.32Q123.99 96.88 131.16 96.59L131.17 96.60L131.12 96.56Q132.14 96.42 134.45 96.65Z"/><path d="M13 23 C163 117,185 53,335 58" stroke="#4793df" fill="none"/><path d="M20 61 C170 98,189 77,341 87" stroke="#ea6666" fill="none"/><path d="M18 77 C186 54,170 84,334 132" stroke="#e7b787" fill="none"/><path d="M15 17 C171 46,161 41,334 64" stroke="#54ddbb" fill="none"/><path fill="#7777ed" d="M75.70 89.69L75.60 89.59L75.68 89.67Q76.05 91.08 76.86 94.15L76.87 94.16L76.84 94.13Q70.43 92.11 63.44 92.51L63.38 92.45L63.53 92.60Q56.45 92.87 50.39 95.87L50.55 96.03L50.44 95.93Q50.71 94.81 50.77 94.92L50.92 95.07L50.86 95.01Q56.57 89.05 62.52 82.35L62.55 82.37L62.47 82.30Q69.16 74.71 70.95 67.60L70.94 67.60L71.04 67.69Q71.57 64.88 69.64 63.09L69.77 63.22L69.65 63.10Q67.78 61.38 65.07 61.61L65.13 61.67L64.99 61.53Q64.63 61.63 64.11 61.63L64.04 61.56L64.06 61.58Q61.82 61.65 59.91 63.04L59.78 62.91L59.78 62.91Q57.79 64.96 58.13 69.00L58.18 69.05L58.27 69.14Q55.53 68.60 53.68 67.90L53.57 67.79L53.72 67.94Q53.40 65.77 53.29 63.58L53.18 63.47L53.27 63.56Q53.16 61.08 54.09 59.35L54.07 59.34L54.06 59.33Q56.82 57.29 61.91 57.29L61.84 57.22L64.47 57.20L64.51 57.24Q67.90 57.22 69.35 57.39L69.46 57.51L69.49 57.53Q76.03 58.13 76.44 61.82L76.31 61.69L76.44 61.83Q76.59 62.73 76.48 63.94L76.40 63.86L76.38 63.85Q76.40 64.91 76.17 65.95L76.08 65.86L76.04 65.81Q73.63 78.20 62.13 88.60L62.20 88.68L62.08 88.55Q64.22 88.32 66.30 88.32L66.35 88.37L66.32 88.34Q71.33 88.44 75.66 89.65ZM74.70 57.95L74.77 58.02L74.71 57.96Q72.31 57.00 69.71 56.89L69.78 56.96L64.60 56.69L64.41 56.50Q57.80 56.24 54.44 57.92L54.35 57.82L54.44 57.91Q52.69 59.86 52.69 62.98L52.70 62.99L52.72 63.01Q52.79 64.12 53.25 68.39L53.31 68.46L53.24 68.39Q54.16 68.84 55.95 69.30L55.81 69.17L55.84 70.75L55.87 70.78Q55.77 71.43 55.88 72.24L56.04 72.39L55.90 72.26Q57.82 72.45 61.58 72.79L61.57 72.79L61.57 72.79Q61.56 72.25 61.56 71.73L61.54 71.72L61.47 71.65Q61.65 69.05 63.50 67.00L63.46 66.96L63.33 66.83Q65.31 64.92 68.03 65.09L67.92 64.98L68.03 65.09Q69.05 65.01 70.20 65.24L70.29 65.33L70.21 65.24Q70.47 65.91 70.59 66.55L70.53 66.49L70.58 66.54Q70.72 67.26 70.61 67.78L70.43 67.60L70.58 67.75Q68.63 74.93 61.93 82.27L61.81 82.15L61.86 82.21Q58.57 85.56 50.31 94.75L50.35 94.80L50.35 94.79Q50.08 96.09 49.56 96.95L49.56 96.95L49.53 96.91Q52.11 95.74 54.42 94.93L54.36 94.88L54.25 94.76Q53.19 95.67 51.75 97.92L51.71 97.89L51.70 97.88Q51.68 98.55 51.50 99.07L51.38 98.95L51.44 99.00Q58.77 95.82 67.09 96.11L67.14 96.16L67.25 96.27Q75.81 96.45 82.75 100.03L82.65 99.93L81.21 96.76L81.22 96.77Q80.21 94.72 79.81 93.51L79.90 93.61L79.86 93.56Q78.76 92.92 76.91 92.29L76.84 92.21L76.95 92.33Q76.70 91.21 76.13 89.13L76.15 89.16L76.04 89.04Q72.75 88.24 69.28 87.95L69.28 87.96L69.17 87.84Q76.35 80.98 78.67 68.44L78.61 68.38L78.88 63.98L79.05 64.15Q78.87 61.37 77.02 60.33L76.96 60.27L76.99 60.35L76.95 60.32Q76.88 60.19 76.77 60.19L76.85 60.28L76.77 60.19Q76.40 58.89 74.72 57.97Z"/><path d="M4 78 C167 61,171 37,329 123" stroke="#75df90" fill="none"/><path d="M20 56 C178 70,154 5,329 126" stroke="#45bae2" fill="none"/><path d="M7 86 C152 137,151 27,334 16" stroke="#e5325f" fill="none"/><path d="M14 116 C192 85,169 21,331 113" stroke="#92e7bc" fill="none"/><path fill="#e877cc" d="M199.66 61.84L199.68 61.87L197.35 62.08L197.39 62.12Q193.89 62.20 193.54 65.26L193.49 65.21L193.57 65.29Q193.43 66.36 193.49 67.86L193.43 67.81L193.48 67.86Q193.60 70.87 195.51 72.89L195.41 72.80L195.44 72.82Q197.42 74.92 200.31 74.69L200.28 74.66L200.33 74.70Q203.45 74.48 204.61 73.09L204.43 72.91L204.42 72.91Q206.21 71.69 206.61 68.28L206.46 68.13L206.61 68.27Q206.92 64.77 205.01 63.50L204.94 63.43L204.98 63.47Q203.76 62.36 199.71 61.90ZM208.84 75.88L208.86 75.90L206.91 79.38L206.85 79.32Q202.83 86.69 197.11 92.87L196.98 92.74L197.16 92.92Q194.60 93.08 190.50 94.29L190.41 94.20L190.48 94.27Q198.56 84.73 203.36 77.45L203.29 77.38L203.44 77.53Q201.82 78.45 199.34 78.57L199.41 78.65L199.39 78.62Q194.83 78.86 192.52 75.85L192.46 75.80L192.43 75.76Q190.53 73.28 188.85 66.35L188.87 66.37L188.92 66.42Q188.87 65.68 188.64 64.26L188.78 64.40L188.60 64.22Q188.50 62.94 188.50 62.25L188.53 62.27L188.52 62.26Q188.43 59.46 190.05 58.53L189.99 58.47L190.16 58.65Q192.00 57.48 194.84 57.48L194.79 57.44L194.73 57.38Q199.57 57.37 199.57 57.37L199.55 57.34L199.63 57.43Q202.97 57.52 204.87 57.81L204.76 57.70L204.78 57.72Q208.02 58.13 209.41 58.88L209.48 58.95L209.48 58.96Q211.55 60.09 211.83 62.75L211.81 62.72L211.83 62.75Q211.78 63.04 211.49 67.09L211.59 67.19L211.47 67.07Q210.84 70.25 210.50 71.53L210.50 71.53L210.66 71.69Q210.00 73.74 208.84 75.88ZM211.69 79.48L211.67 79.46L211.70 79.49Q213.18 76.11 213.99 69.59L214.09 69.69L214.14 69.74Q214.48 66.32 214.42 64.99L214.43 65.00L214.38 64.96Q214.27 62.07 212.48 60.68L212.62 60.82L212.14 60.64L212.07 60.56Q211.75 59.50 210.37 58.51L210.22 58.37L210.22 58.37Q206.78 56.89 199.50 56.66L199.51 56.67L199.58 56.74Q198.11 56.71 194.41 56.71L194.48 56.78L194.43 56.73Q191.71 56.67 189.46 57.71L189.59 57.84L189.54 57.80Q187.80 59.00 187.91 61.77L187.83 61.69L187.97 61.83Q188.21 63.16 188.50 66.23L188.54 66.27L188.40 66.13Q189.39 70.18 189.80 71.45L189.82 71.48L189.77 71.43Q190.56 74.19 192.01 76.15L192.11 76.25L192.14 76.28Q192.58 76.84 193.16 77.42L193.08 77.34L193.02 77.28Q193.56 78.11 194.55 79.50L194.52 79.48L194.53 79.49Q196.76 81.54 199.71 81.83L199.63 81.76L199.61 81.74Q196.75 85.80 194.38 88.69L194.34 88.65L188.99 95.44L189.02 95.47Q192.38 94.26 194.86 93.74L194.85 93.73L194.81 93.69Q193.72 95.09 191.35 97.69L191.36 97.70L191.37 97.71Q195.90 96.16 200.64 96.11L200.76 96.23L200.69 96.16Q204.26 92.28 210.85 81.30L210.76 81.21L210.91 81.48L210.91 81.48Q211.21 80.27 211.73 79.52ZM202.53 65.41L202.70 65.58L202.71 65.58Q203.60 65.38 204.29 65.55L204.17 65.43L204.20 65.46Q205.19 65.64 205.77 65.82L205.87 65.92L205.87 65.91Q205.97 66.42 206.08 67.06L206.02 66.99L206.10 67.07Q206.11 67.61 205.94 68.19L206.03 68.27L206.08 68.32Q206.02 70.92 204.23 72.59L204.20 72.57L204.14 72.51Q202.67 74.04 200.19 73.99L200.29 74.09L200.15 73.95Q199.70 74.14 197.39 73.68L197.30 73.58L197.34 73.63Q197.02 72.32 197.02 71.22L196.90 71.11L197.04 71.25Q196.75 70.66 196.75 70.32L196.87 70.44L196.88 70.45Q196.84 67.06 200.31 65.85L200.23 65.77L200.34 65.88Q201.34 65.49 202.61 65.49Z"/><path d="M13 56 C184 134,167 59,339 2" stroke="#da476c" fill="none"/><path d="M16 98 C161 35,156 76,336 57" stroke="#e56686" fill="none"/><path d="M18 68 C186 66,170 70,329 97" stroke="#dfdf6b" fill="none"/><path d="M2 70 C181 138,153 13,323 115" stroke="#ed7c7c" fill="none"/><path d="M20 88 C176 81,162 120,331 78" stroke="#4cd691" fill="none"/><path fill="#e287b5" d="M267.49 76.26L267.54 76.32L267.42 76.19Q264.69 76.07 262.81 78.23L262.89 78.31L262.86 78.28Q261.03 80.49 260.74 83.38L260.68 83.33L260.68 83.32Q260.34 86.45 261.99 87.92L261.91 87.84L261.85 87.79Q263.64 89.40 266.81 89.23L266.83 89.24L266.67 89.09Q269.86 88.87 271.54 87.83L271.71 88.00L271.66 87.95Q273.32 86.20 273.32 83.83L273.43 83.94L273.41 83.92Q273.43 83.36 273.31 82.78L273.15 82.62L273.17 82.64Q273.31 80.12 271.64 78.07L271.71 78.15L271.78 78.22Q269.92 75.98 267.37 76.15ZM266.87 93.15L266.73 93.02L266.79 93.08Q260.26 93.19 258.12 92.03L258.09 92.00L258.05 91.97Q256.55 90.87 256.27 88.27L256.21 88.21L256.10 88.10Q256.18 87.20 256.24 86.10L256.14 86.01L256.10 85.97Q256.36 84.55 256.36 83.85L256.33 83.83L256.32 83.81Q257.06 79.53 257.29 78.49L257.36 78.56L257.29 78.49Q257.89 75.45 259.16 73.31L259.27 73.42L259.19 73.34Q263.23 66.69 272.24 57.04L272.30 57.09L272.39 57.19Q276.46 56.75 279.81 55.53L279.69 55.42L279.76 55.48Q269.23 66.68 264.38 73.10L264.37 73.09L264.50 73.22Q265.87 72.33 267.83 72.33L267.97 72.48L267.88 72.38Q272.95 72.43 275.27 75.37L275.33 75.44L275.29 75.40Q277.29 77.86 277.81 83.23L277.82 83.24L277.77 83.19Q277.98 84.38 277.98 85.31L277.85 85.18L277.97 85.30Q277.85 89.92 274.50 91.54L274.62 91.66L274.50 91.54Q272.76 92.57 266.86 93.15ZM270.23 96.69L270.35 96.80L270.20 96.66Q272.34 96.77 275.34 96.89L275.28 96.83L275.27 96.82Q277.78 96.95 280.15 95.86L280.18 95.89L280.15 95.86Q281.84 94.66 281.84 91.94L281.80 91.91L281.78 91.89Q281.73 91.08 281.47 89.58L281.49 89.61L281.60 89.71Q281.34 88.21 281.34 87.52L281.30 87.47L281.23 87.40Q280.03 80.37 277.60 77.48L277.55 77.43L277.58 77.46Q277.43 77.25 277.20 76.91L277.15 76.85L276.80 76.62L276.67 76.54L276.58 76.46Q276.04 75.69 275.12 74.25L275.10 74.23L275.14 74.26Q273.86 72.93 270.86 72.24L270.71 72.09L270.76 72.14Q272.64 69.74 277.14 64.14L277.05 64.05L283.44 55.99L283.61 56.16Q281.22 57.46 277.58 58.62L277.49 58.53L277.57 58.61Q278.98 57.13 281.70 54.13L281.72 54.15L281.54 53.97Q277.91 55.60 272.02 56.47L272.02 56.47L272.10 56.55Q263.46 65.54 258.96 73.05L258.95 73.04L258.97 73.06Q256.67 76.89 255.80 86.37L255.64 86.20L255.63 86.20Q255.55 87.09 255.66 88.53L255.74 88.61L255.77 88.64Q255.82 91.23 257.49 92.62L257.43 92.55L257.62 92.74Q258.17 92.95 258.12 93.01L258.12 93.02L258.00 92.90Q258.60 94.30 259.81 94.94L259.92 95.05L259.74 94.87Q262.05 96.02 264.99 96.30L265.04 96.35L265.05 96.36Q265.03 96.34 270.34 96.80ZM269.91 79.67L269.88 79.64L270.00 79.76Q270.77 79.49 272.22 80.24L272.34 80.37L272.20 80.23Q272.69 81.64 272.69 82.63L272.74 82.67L272.85 82.78Q273.06 85.53 271.61 87.04L271.70 87.12L271.57 86.99Q270.04 88.18 266.86 88.64L266.78 88.56L266.79 88.56Q264.69 88.67 263.89 88.26L263.80 88.17L263.84 88.22Q263.46 87.43 263.46 86.97L263.47 86.99L263.57 87.08Q263.17 82.06 267.62 80.09L267.59 80.07L267.72 80.19Q268.77 79.57 269.93 79.69Z"/><path d="M3 10 C154 28,171 87,338 134" stroke="#e179c7" fill="none"/><path d="M18 46 C180 3,191 86,327 46" stroke="#ea7575" fill="none"/><path d="M15 20 C184 87,153 2,336 28" stroke="#da6783" fill="none"/><path d="M10 52 C157 122,167 39,322 92" stroke="#a563e7" fill="none"/><path d="M16 104 C151 68,185 15,329 126" stroke="#db5bbb" fill="none"/><path d="M12 73 C153 15,174 108,323 22" stroke="#cb71e8" fill="none"/><path d="M19 80 C171 28,159 98,325 107" stroke="#e6cc7e" fill="none"/><path d="M3 105 C166 62,178 62,326 21" stroke="#df6d47" fill="none"/><path d="M11 75 C154 78,162 66,331 45" stroke="#dc9855" fill="none"/><path d="M20 17 C170 23,151 61,332 22" stroke="#8ede3f" fill="none"/><path d="M15 98 C190 73,180 18,323 84" stroke="#b84bdc" fill="none"/></svg>