<svg xmlns="http://www.w3.org/2000/svg" width="342" height="140" viewBox="0,0,342,140"><path fill="#3c65e0" d="M285.03 73.92L284.95 73.84L284.93 73.82Q286.27 73.74 288.76 73.47L288.82 73.53L288.92 73.64Q288.79 74.71 288.79 75.86L288.74 75.81L288.80 78.10L288.70 77.99Q287.37 78.14 285.89 78.28L285.89 78.28L285.79 78.18Q284.39 78.33 282.91 78.26L282.89 78.24L282.80 78.15Q277.78 89.08 271.73 97.22L271.70 97.20L271.66 97.16Q267.28 98.36 264.99 99.44L265.05 99.50L265.04 99.49Q272.35 89.44 277.74 78.33L277.65 78.25L272.97 78.21L273.06 78.30Q273.04 75.93 272.84 73.57L272.88 73.61L272.77 73.51Q276.23 73.87 279.87 73.87L279.85 73.85L283.22 67.33L283.17 67.28Q285.00 63.99 287.15 61.17L287.07 61.09L287.09 61.10Q284.31 61.35 281.48 61.35L281.52 61.39L281.61 61.48Q270.81 61.44 264.14 57.54L264.02 57.42L263.02 54.53L262.99 54.50Q262.35 52.99 261.68 51.44L261.75 51.51L261.61 51.37Q269.41 56.14 279.50 56.54L279.51 56.56L279.37 56.41Q288.57 56.93 297.66 53.43L297.68 53.45L297.66 53.43Q297.31 54.17 296.44 55.71L296.43 55.70L296.45 55.73Q289.93 64.01 284.88 73.77ZM299.28 58.15L299.16 58.03L300.89 54.45L300.88 54.43Q299.37 55.48 296.41 56.76L296.25 56.60L296.56 56.04L296.73 56.21Q296.86 55.87 297.06 55.67L297.08 55.69L297.14 55.74Q297.76 54.47 299.04 52.12L299.04 52.12L299.01 52.09Q289.66 56.20 279.49 55.80L279.37 55.67L279.34 55.65Q268.72 55.18 260.31 49.93L260.44 50.06L260.34 49.96Q262.11 53.22 263.59 57.93L263.69 58.03L263.71 58.04Q265.69 59.22 267.10 59.76L266.99 59.65L267.04 59.70Q267.23 60.22 268.04 63.52L268.14 63.63L268.08 63.56Q273.66 65.78 283.42 65.51L283.53 65.62L283.54 65.63Q282.90 66.54 279.40 73.20L279.47 73.27L279.36 73.16Q275.70 73.13 272.20 72.79L272.33 72.93L272.27 72.86Q272.41 74.35 272.41 75.90L272.41 75.90L272.49 79.01L275.33 78.89L275.46 81.51L275.41 81.45Q268.45 94.49 263.54 100.82L263.55 100.83L263.64 100.92Q266.28 99.39 269.18 98.51L269.32 98.65L269.29 98.63Q268.03 100.19 265.60 103.22L265.73 103.34L265.65 103.26Q271.21 101.28 275.51 100.88L275.48 100.85L275.48 100.84Q280.69 94.21 286.21 82.23L286.17 82.19L292.23 82.53L292.35 82.65Q292.19 81.01 292.19 79.40L292.22 79.43L292.19 76.23L292.23 76.28Q291.69 76.20 290.71 76.27L290.64 76.19L290.70 76.25Q289.78 76.38 289.31 76.38L289.32 76.39L289.35 76.42Q289.34 76.21 289.41 75.94L289.32 75.85L289.26 75.32L289.36 75.42Q293.72 66.26 299.17 58.04Z"/><path fill="#d290e8" d="M101.29 84.11L101.34 84.15L101.34 84.15Q106.78 83.46 112.43 83.67L112.28 83.52L112.27 83.51Q112.31 79.11 112.31 74.87L112.25 74.81L112.32 74.88Q112.38 70.57 112.72 66.06L112.71 66.04L112.53 65.87Q110.42 68.93 101.20 84.01ZM118.78 97.08L118.80 97.11L118.74 97.04Q115.80 96.52 112.63 96.39L112.66 96.41L112.61 96.36Q112.25 92.16 112.04 87.79L112.06 87.80L112.17 87.91Q102.58 87.42 94.24 89.91L94.34 90.01L94.31 89.97Q94.56 89.15 94.89 87.40L94.90 87.41L94.87 87.37Q98.06 81.82 104.39 70.71L104.29 70.61L104.38 70.71Q109.44 62.04 115.50 55.17L115.49 55.16L115.56 55.24Q116.99 54.78 119.95 54.31L120.09 54.44L120.09 54.45Q116.73 65.83 116.73 78.28L116.75 78.30L116.75 78.30Q116.76 80.93 116.90 83.56L116.78 83.44L119.13 83.70L119.08 83.65Q120.16 83.72 121.23 83.92L121.28 83.97L121.22 83.91Q121.49 85.73 121.96 89.16L121.92 89.12L121.85 89.05Q119.84 88.72 117.22 88.39L117.21 88.38L117.17 88.34Q117.61 91.94 118.82 97.12ZM121.67 83.22L121.61 83.16L121.67 83.22Q121.41 83.16 121.07 83.16L121.02 83.10L120.31 83.06L120.34 83.10Q120.15 80.49 120.15 78.00L120.13 77.97L120.11 77.96Q120.10 66.64 123.73 56.00L123.87 56.14L123.80 56.07Q122.49 56.58 119.93 57.25L119.97 57.29L119.93 57.25Q120.38 55.95 121.19 53.46L121.07 53.34L121.07 53.34Q118.85 54.08 115.22 54.49L115.23 54.50L115.27 54.54Q108.33 62.20 99.11 78.76L98.96 78.61L102.83 72.31L102.68 72.17Q101.94 73.98 101.47 74.99L101.50 75.03L93.63 90.98L93.60 90.95Q94.81 90.75 96.83 90.07L96.80 90.05L96.64 90.56L96.55 90.46Q96.28 91.61 95.74 93.83L95.80 93.89L95.86 93.95Q103.04 91.51 111.59 91.85L111.61 91.87L111.56 91.81Q111.60 93.47 111.94 96.97L112.02 97.05L111.97 97.01Q113.96 97.11 115.84 97.31L115.79 97.25L115.89 97.36Q115.96 98.37 116.44 100.80L116.45 100.82L116.48 100.84Q119.81 101.21 125.13 102.83L125.23 102.93L125.16 102.85Q123.38 99.06 121.76 93.27L121.84 93.35L124.30 94.06L124.43 94.18Q125.60 94.55 126.81 95.16L126.81 95.15L126.86 95.21Q125.47 90.79 125.20 87.83L125.13 87.75L125.10 87.72Q124.04 87.40 122.02 87.00L122.16 87.14L122.16 87.14Q121.71 84.80 121.71 83.26ZM107.52 82.93L107.67 83.08L107.58 82.99Q108.92 80.70 111.68 76.19L111.65 76.16L111.59 76.10Q111.60 77.79 111.53 79.47L111.60 79.54L111.61 79.55Q111.67 81.36 111.74 83.04L111.69 83.00L111.77 83.08Q110.73 82.98 109.72 82.98L109.71 82.97L109.59 82.84Q108.59 82.92 107.51 82.92Z"/><path d="M15 18 C157 56,166 32,337 78" stroke="#7692e4" fill="none"/><path d="M19 124 C169 134,172 8,327 128" stroke="#e1c779" fill="none"/><path d="M6 67 C168 18,152 88,326 15" stroke="#e6e63b" fill="none"/><path d="M15 23 C171 28,181 120,332 90" stroke="#d0e68e" fill="none"/><path d="M10 75 C156 18,190 98,335 41" stroke="#6adcbf" fill="none"/><path d="M10 57 C175 138,164 86,334 108" stroke="#5475d8" fill="none"/><path d="M10 24 C177 124,172 78,330 101" stroke="#3b66e6" fill="none"/><path d="M14 91 C152 71,186 56,337 104" stroke="#e24a96" fill="none"/><path d="M5 116 C160 45,159 115,340 45" stroke="#8769e2" fill="none"/><path d="M17 127 C166 29,164 71,339 93" stroke="#c7ea5b" fill="none"/><path d="M6 66 C170 14,156 129,340 55" stroke="#9074e6" fill="none"/><path d="M5 138 C184 31,158 72,327 25" stroke="#83cae1" fill="none"/><path d="M16 7 C189 72,164 52,328 97" stroke="#56d676" fill="none"/><path d="M9 36 C177 2,184 26,339 68" stroke="#df47df" fill="none"/><path d="M19 57 C177 76,162 108,330 35" stroke="#dc8c3b" fill="none"/><path d="M20 98 C164 55,168 134,336 22" stroke="#7feab5" fill="none"/><path d="M15 75 C172 8,166 121,323 100" stroke="#e9ba8a" fill="none"/><path d="M5 32 C169 119,170 136,337 67" stroke="#cfec78" fill="none"/><path d="M8 127 C182 123,151 34,332 120" stroke="#90e9bc" fill="none"/><path d="M19 134 C183 135,171 54,331 96" stroke="#da6783" fill="none"/><path d="M12 77 C168 133,171 132,329 91" stroke="#adea70" fill="none"/><path d="M17 27 C160 100,177 46,331 110" stroke="#c4df70" fill="none"/><path d="M7 27 C175 101,165 15,325 130" stroke="#89eba1" fill="none"/><path d="M3 120 C174 25,168 22,332 10" stroke="#8ed3ea" fill="none"/><path d="M6 129 C180 65,189 68,331 57" stroke="#69c3e1" fill="none"/><path d="M10 46 C156 78,175 27,324 102" stroke="#48e46f" fill="none"/><path d="M3 36 C160 32,161 99,337 122" stroke="#7ee17e" fill="none"/><path fill="#c9e27d" d="M216.76 97.11L216.92 97.26L216.86 97.21Q209.57 97.52 207.82 93.42L207.98 93.58L207.96 93.56Q209.16 91.73 211.92 88.56L211.94 88.58L212.09 88.74Q212.86 92.19 218.17 92.40L218.24 92.46L218.13 92.36Q224.22 92.59 227.11 90.23L227.02 90.14L227.11 90.23Q229.52 87.32 229.38 82.54L229.48 82.64L229.34 82.50Q229.06 73.54 220.58 73.94L220.67 74.04L220.76 74.12Q215.74 74.35 212.64 76.57L212.62 76.54L211.95 76.15L211.73 76.06L211.70 76.03Q212.36 70.50 212.16 65.66L212.06 65.56L211.98 65.48Q211.91 60.96 211.30 55.11L211.28 55.08L211.19 55.00Q217.81 56.83 224.54 56.63L224.43 56.52L224.36 56.46Q231.26 56.48 237.58 54.26L237.57 54.25L236.58 56.97L236.45 56.83Q236.03 58.30 235.70 59.78L235.66 59.75L235.69 59.77Q230.05 61.47 223.19 61.47L223.28 61.56L223.28 61.57Q220.62 61.46 217.99 61.19L217.98 61.18L218.01 61.21Q217.93 62.48 217.32 70.35L217.21 70.24L217.26 70.29Q218.83 69.57 222.47 69.30L222.37 69.21L222.44 69.27Q229.11 69.76 231.67 72.72L231.53 72.57L231.58 72.63Q234.02 75.33 234.49 82.13L234.45 82.09L234.51 82.15Q234.97 89.54 232.82 93.11L232.74 93.04L232.73 93.02Q229.29 96.51 223.43 96.92L223.43 96.92L223.41 96.90Q221.47 96.84 216.76 97.11ZM227.61 101.30L227.46 101.14L227.57 101.26Q233.67 101.44 237.04 99.48L237.00 99.45L236.97 99.41Q238.67 96.67 238.67 92.97L238.63 92.93L238.71 93.01Q238.73 87.58 237.05 80.32L237.04 80.31L237.04 80.31Q236.45 77.29 234.29 74.80L234.12 74.62L234.33 74.90L233.91 74.35L233.29 74.00L233.19 73.90Q232.69 72.66 231.55 71.45L231.55 71.46L231.57 71.54L231.64 71.61Q228.82 68.52 222.30 68.52L222.40 68.63L221.86 68.56L221.91 68.60Q222.07 67.62 222.41 65.67L222.37 65.64L222.32 65.59Q231.15 65.80 238.29 62.91L238.23 62.86L238.34 62.96Q239.10 60.49 240.78 55.51L240.74 55.47L237.05 57.16L237.10 57.21Q237.64 55.07 238.52 53.05L238.67 53.20L238.61 53.14Q231.86 55.75 224.59 55.88L224.49 55.77L224.43 55.71Q217.32 56.07 210.32 54.12L210.29 54.09L210.21 54.02Q211.53 61.93 211.53 69.74L211.42 69.63L211.55 69.76Q211.52 73.10 211.32 76.46L211.32 76.46L211.19 76.33Q211.79 76.79 212.80 77.33L212.71 77.24L212.71 77.24Q213.25 76.77 214.39 76.17L214.44 76.21L214.49 76.26Q214.46 77.65 214.06 80.34L213.93 80.22L213.99 80.28Q214.81 80.69 215.55 81.09L215.59 81.14L215.46 81.00Q220.42 77.95 223.71 77.95L223.64 77.88L223.62 77.85Q226.08 77.96 228.17 79.11L228.11 79.05L228.16 79.10Q228.70 80.85 228.77 82.53L228.89 82.65L228.78 82.55Q228.90 87.11 227.09 89.06L227.22 89.20L227.14 89.11Q224.79 91.35 220.82 91.75L220.71 91.64L220.71 91.64Q219.11 91.86 217.90 91.72L217.86 91.68L217.86 91.68Q216.46 91.56 215.12 90.96L215.01 90.85L214.98 90.49L214.68 90.59L214.74 90.65Q213.35 89.80 212.41 87.44L212.50 87.53L212.33 87.36Q210.07 89.94 207.10 93.71L207.13 93.74L207.11 93.72Q207.72 94.93 209.20 96.61L209.12 96.54L209.06 96.47Q211.01 99.77 215.99 100.65L216.06 100.72L215.90 100.55Q218.09 101.06 227.58 101.27Z"/><path d="M2 79 C171 4,154 25,323 58" stroke="#e85d80" fill="none"/><path d="M14 67 C176 63,184 131,327 5" stroke="#bee546" fill="none"/><path d="M4 48 C153 92,156 3,325 83" stroke="#8162de" fill="none"/><path d="M10 64 C166 19,169 132,334 97" stroke="#6b48d5" fill="none"/><path d="M17 61 C163 103,169 34,336 3" stroke="#e3587b" fill="none"/><path d="M16 37 C164 73,169 83,338 63" stroke="#6280da" fill="none"/><path d="M7 22 C191 60,190 139,333 29" stroke="#83ebb7" fill="none"/><path fill="#eba35a" d="M65.51 92.81L65.61 92.91L65.49 92.79Q65.97 94.48 66.91 98.04L67.10 98.23L66.97 98.11Q59.49 95.74 51.35 96.21L51.36 96.23L51.48 96.35Q43.30 96.71 36.23 100.21L36.19 100.16L36.28 100.25Q36.66 99.02 36.73 99.16L36.80 99.23L36.79 99.22Q43.38 92.21 50.31 84.41L50.24 84.34L50.28 84.37Q58.01 75.48 60.09 67.20L60.04 67.14L60.07 67.18Q60.98 64.18 58.72 62.10L58.73 62.10L58.59 61.96Q56.40 59.94 53.23 60.21L53.30 60.28L53.35 60.32Q52.67 60.18 52.06 60.18L52.12 60.23L51.98 60.10Q49.34 60.15 47.12 61.77L47.19 61.84L47.10 61.75Q44.88 64.24 45.29 68.95L45.29 68.95L45.18 68.84Q42.18 68.40 40.02 67.59L39.86 67.43L40.02 67.58Q39.55 64.97 39.42 62.41L39.49 62.49L39.57 62.56Q39.28 59.51 40.36 57.49L40.37 57.50L40.43 57.56Q43.54 55.09 49.46 55.09L49.42 55.05L52.66 55.19L52.62 55.15Q56.65 55.22 58.34 55.42L58.34 55.42L58.35 55.43Q66.02 56.17 66.49 60.48L66.42 60.41L66.55 60.53Q66.66 61.52 66.53 62.94L66.45 62.85L66.44 62.84Q66.30 63.92 66.03 65.13L66.17 65.27L66.11 65.21Q63.21 79.53 49.81 91.65L49.91 91.75L49.78 91.61Q52.34 91.42 54.77 91.42L54.80 91.46L54.75 91.40Q60.48 91.41 65.52 92.82ZM64.47 55.97L64.51 56.01L64.56 56.06Q61.59 54.77 58.56 54.63L58.75 54.82L52.54 54.33L52.50 54.29Q44.67 53.87 40.77 55.82L40.85 55.90L40.75 55.80Q38.94 58.30 38.94 61.93L38.87 61.86L38.97 61.96Q39.02 63.22 39.56 68.20L39.49 68.14L39.59 68.24Q40.49 68.60 42.58 69.13L42.52 69.08L42.50 70.88L42.56 70.93Q42.47 71.72 42.60 72.66L42.69 72.75L42.65 72.71Q44.78 72.82 49.15 73.22L49.28 73.35L49.14 73.20Q49.25 72.71 49.25 72.10L49.10 71.95L49.08 71.94Q49.18 68.81 51.34 66.42L51.41 66.50L51.27 66.35Q53.53 64.07 56.69 64.27L56.61 64.19L56.55 64.12Q57.96 64.26 59.30 64.53L59.24 64.46L59.30 64.53Q59.59 65.29 59.73 66.03L59.75 66.05L59.74 66.04Q59.67 66.64 59.53 67.25L59.52 67.23L59.59 67.31Q57.31 75.66 49.50 84.20L49.63 84.33L49.58 84.28Q45.81 88.25 36.19 98.95L36.14 98.90L36.19 98.96Q35.80 100.39 35.20 101.40L35.28 101.48L35.32 101.52Q38.03 99.85 40.72 98.91L40.70 98.89L40.69 98.87Q39.53 100.01 37.85 102.64L37.85 102.64L37.80 102.58Q37.61 103.20 37.40 103.80L37.30 103.70L37.46 103.86Q46.00 100.15 55.69 100.49L55.78 100.58L55.67 100.47Q65.72 100.76 73.80 104.93L73.70 104.83L72.02 101.13L72.01 101.13Q71.00 98.90 70.53 97.49L70.39 97.35L70.52 97.48Q69.07 96.57 66.92 95.83L66.94 95.85L66.92 95.83Q66.73 94.63 66.06 92.21L66.09 92.24L66.08 92.24Q62.24 91.29 58.20 90.95L58.13 90.88L58.19 90.94Q66.35 82.75 69.05 68.15L69.07 68.17L69.32 62.97L69.41 63.06Q69.23 59.85 67.07 58.64L67.08 58.64L67.02 58.65L67.12 58.75Q67.06 58.62 66.93 58.62L66.79 58.48L66.85 58.54Q66.47 57.09 64.52 56.01Z"/><path d="M2 117 C182 86,174 83,331 96" stroke="#7c7ce3" fill="none"/><path d="M8 95 C173 64,173 106,328 137" stroke="#728ee3" fill="none"/><path fill="#eb92a8" d="M165.94 67.18L165.96 67.20L165.87 67.11Q160.19 67.09 156.96 65.20L157.12 65.36L157.08 65.32Q161.55 62.93 170.16 55.46L170.06 55.36L170.05 55.34Q171.48 55.16 173.77 54.08L173.62 53.94L173.67 53.99Q171.36 64.53 171.16 75.77L171.20 75.81L171.17 75.78Q170.81 86.87 172.70 97.63L172.73 97.67L172.81 97.75Q169.84 96.46 166.07 96.25L166.13 96.32L166.03 96.21Q165.96 89.01 165.96 81.81L165.93 81.78L165.90 81.75Q165.78 74.36 165.84 67.09ZM165.28 71.17L165.26 96.93L165.17 96.83Q167.43 96.94 169.11 97.28L169.04 97.20L169.08 97.24Q169.16 98.40 169.49 100.82L169.60 100.92L169.56 100.89Q174.56 101.79 178.87 105.76L178.92 105.80L178.86 105.74Q174.51 93.19 174.45 80.00L174.53 80.08L174.52 80.07Q174.32 66.82 177.55 54.03L177.51 53.99L177.58 54.06Q176.68 54.84 173.85 56.79L173.75 56.69L173.88 56.82Q174.21 55.47 174.75 52.77L174.67 52.70L174.60 52.62Q172.33 54.06 169.78 54.74L169.71 54.66L169.78 54.74Q163.20 61.14 155.59 65.18L155.56 65.15L155.51 65.10Q158.02 67.07 162.19 67.67L162.14 67.63L162.16 67.64Q161.11 68.68 158.82 70.57L158.79 70.54L158.66 70.40Q161.29 71.08 165.20 71.08L165.18 71.07Z"/><path d="M3 90 C180 43,157 42,337 132" stroke="#da5296" fill="none"/><path d="M19 113 C152 14,168 88,338 113" stroke="#ea4cea" fill="none"/><path d="M5 43 C192 135,175 58,338 126" stroke="#c86fe6" fill="none"/><path d="M9 117 C187 134,156 4,336 25" stroke="#8de470" fill="none"/></svg>