<svg xmlns="http://www.w3.org/2000/svg" width="342" height="140" viewBox="0,0,342,140"><path d="M15 27 C151 34,190 36,327 94" stroke="#a0dc65" fill="none"/><path fill="#8ce7e7" d="M194.37 93.85L194.34 93.81L194.28 93.76Q192.08 93.87 189.66 93.21L189.69 93.25L189.75 93.31Q187.90 91.93 187.66 89.38L187.58 89.30L187.57 89.29Q187.46 88.95 187.76 84.87L187.87 84.98L187.83 84.94Q189.40 84.62 192.54 84.03L192.49 83.98L192.23 85.20L192.35 85.32Q191.93 88.04 194.12 88.92L193.98 88.79L194.11 88.92Q195.32 89.42 198.58 89.42L198.53 89.37L198.53 89.37Q201.13 89.25 201.42 89.13L201.38 89.08L201.37 89.08Q202.71 88.76 203.83 87.99L203.95 88.11L203.89 88.05Q206.16 86.65 205.87 83.40L205.68 83.21L205.72 83.25Q205.47 79.51 202.78 77.09L202.83 77.14L202.83 77.14Q200.14 74.72 196.30 74.72L196.21 74.63L196.25 74.32L196.35 74.41Q196.81 74.23 198.17 74.11L198.28 74.21L198.25 74.19Q201.13 73.93 203.26 72.01L203.21 71.96L203.22 71.97Q205.39 70.09 205.63 67.19L205.59 67.15L205.70 67.26Q205.82 66.73 205.82 66.20L205.76 66.14L205.85 66.23Q205.68 63.70 203.55 62.28L203.73 62.45L203.74 62.47Q201.77 61.15 199.29 61.32L199.30 61.34L199.20 61.23Q197.33 61.14 195.44 61.80L195.28 61.63L195.36 61.71Q193.06 62.49 192.59 64.26L192.70 64.38L192.63 64.31Q192.38 65.54 192.50 66.72L192.50 66.72L192.52 66.74Q190.89 66.36 187.70 65.23L187.58 65.12L187.62 65.15Q187.25 62.53 187.31 61.23L187.41 61.33L187.34 61.26Q187.66 59.04 189.31 57.97L189.16 57.82L189.14 57.81Q191.45 56.98 193.94 56.98L193.89 56.94L193.86 56.90Q198.76 56.84 203.67 57.25L203.69 57.27L203.77 57.35Q211.48 57.85 211.01 63.70L211.09 63.78L211.04 63.73Q210.91 66.03 210.14 68.45L210.19 68.50L210.21 68.52Q208.77 73.29 205.10 74.71L205.14 74.74L205.21 74.82Q209.24 75.59 210.19 80.80L210.05 80.67L210.14 80.75Q210.60 82.64 210.72 85.77L210.72 85.77L210.57 85.62Q210.88 92.61 203.72 93.32L203.80 93.39L203.76 93.36Q202.56 93.40 194.34 93.81ZM202.54 97.40L202.44 97.30L202.43 97.30Q203.46 97.43 207.89 97.55L207.90 97.56L207.75 97.41Q210.51 97.57 213.06 96.56L213.14 96.65L213.05 96.56Q214.88 95.08 214.59 92.36L214.65 92.42L214.65 92.42Q214.56 90.44 214.09 87.72L213.91 87.54L213.93 87.56Q212.92 80.70 209.91 78.16L209.77 78.02L209.50 77.45L209.51 77.40L209.57 77.46Q212.22 75.14 213.40 68.34L213.38 68.32L213.38 68.32Q213.37 67.54 213.55 66.06L213.56 66.07L213.60 66.11Q213.74 64.95 213.62 63.89L213.61 63.87L213.64 63.91Q213.38 61.29 211.37 60.22L211.29 60.14L211.35 60.32L211.18 60.14Q210.79 58.70 209.02 57.87L209.06 57.91L208.99 57.84Q206.67 56.82 198.69 56.35L198.72 56.38L198.71 56.37Q196.14 56.29 193.66 56.29L193.49 56.12L193.50 56.13Q191.13 56.24 188.76 57.24L188.81 57.29L188.73 57.22Q186.76 58.32 186.76 61.04L186.89 61.17L186.92 61.20Q186.75 60.38 187.17 65.59L187.17 65.59L187.35 65.77Q187.73 65.80 190.27 66.74L190.24 66.71L190.30 66.77Q190.28 67.58 190.22 68.34L190.17 68.29L190.12 68.24Q190.17 69.06 190.23 69.89L190.22 69.88L190.24 69.91Q193.00 70.47 196.14 70.65L196.12 70.64L196.26 70.77Q196.01 67.51 197.73 66.21L197.76 66.24L197.70 66.18Q199.16 65.34 202.30 64.98L202.26 64.95L202.29 64.98Q203.91 64.82 204.79 65.12L204.86 65.18L204.98 65.30Q204.89 65.33 204.95 65.51L205.00 65.56L205.09 65.94L205.20 66.77L205.11 66.67Q205.18 67.04 205.12 67.28L205.11 67.26L205.17 67.32Q205.05 69.98 202.68 71.82L202.56 71.70L202.57 71.70Q201.15 73.12 198.01 73.42L198.09 73.49L198.00 73.40Q197.01 73.78 195.65 73.78L195.55 73.68L195.52 73.64Q195.72 74.31 195.95 75.38L195.98 75.40L195.83 75.25Q198.71 75.42 200.96 76.54L200.88 76.47L200.70 76.46L198.35 76.83L198.17 76.65Q198.35 77.30 198.53 78.25L198.56 78.28L198.52 78.24Q201.82 78.11 204.48 80.18L204.51 80.21L204.49 80.19Q204.86 80.80 205.34 83.34L205.38 83.38L205.24 83.25Q205.64 87.91 201.09 88.56L201.10 88.57L200.96 88.43Q197.87 89.00 196.98 88.94L196.94 88.91L197.00 88.96Q196.13 88.62 195.30 88.50L195.38 88.59L195.39 87.88L195.63 87.24L195.66 86.62L195.65 86.08L195.60 86.03Q194.22 86.25 192.98 86.54L192.87 86.43L193.00 86.56Q192.80 86.06 192.80 85.76L192.90 85.87L192.81 85.77Q192.93 85.55 192.93 85.19L193.04 85.30L193.01 85.27Q193.03 84.58 193.27 83.46L193.19 83.38L193.16 83.35Q190.31 83.75 187.41 84.29L187.41 84.29L187.47 84.34Q187.36 85.00 187.18 86.74L187.24 86.81L187.26 86.83Q187.03 88.51 187.03 89.46L187.15 89.58L187.07 89.50Q187.29 92.80 189.42 93.98L189.24 93.80L189.39 93.95Q191.69 97.49 199.02 97.19L199.01 97.19L199.03 97.20Q200.05 97.04 202.42 97.28Z"/><path d="M19 58 C169 7,176 58,337 56" stroke="#e15555" fill="none"/><path fill="#9071ee" d="M75.69 89.96L75.70 89.97L75.72 89.99Q76.17 91.51 77.00 94.65L77.14 94.79L77.06 94.70Q70.50 92.64 63.35 93.06L63.44 93.14L63.32 93.03Q56.32 93.54 50.11 96.62L50.14 96.65L49.97 96.48Q50.42 95.50 50.48 95.62L50.39 95.53L50.45 95.60Q56.32 89.51 62.41 82.65L62.34 82.58L62.28 82.52Q69.17 74.81 71.01 67.53L71.07 67.60L71.12 67.65Q71.80 64.90 69.82 63.07L69.85 63.10L69.79 63.04Q67.84 61.23 65.06 61.47L65.00 61.41L65.04 61.45Q64.41 61.30 63.88 61.30L63.96 61.38L64.01 61.42Q61.57 61.35 59.62 62.77L59.58 62.74L59.63 62.79Q57.53 64.82 57.88 68.96L58.03 69.11L57.91 68.98Q55.17 68.50 53.28 67.79L53.40 67.90L53.34 67.85Q52.98 65.59 52.86 63.35L52.79 63.28L52.81 63.29Q52.85 60.91 53.80 59.14L53.73 59.08L53.65 58.99Q56.47 56.90 61.67 56.90L61.64 56.86L64.37 56.88L64.38 56.89Q67.99 57.01 69.47 57.19L69.35 57.07L69.49 57.20Q76.24 57.87 76.66 61.65L76.65 61.64L76.68 61.67Q76.81 62.57 76.69 63.81L76.62 63.75L76.65 63.77Q76.54 64.73 76.31 65.80L76.39 65.88L76.40 65.89Q73.78 78.41 62.01 89.06L62.08 89.13L62.08 89.13Q64.11 88.74 66.24 88.74L66.29 88.79L66.31 88.80Q71.43 88.89 75.86 90.13ZM74.83 57.64L74.93 57.74L74.87 57.68Q72.43 56.72 69.77 56.60L69.76 56.59L64.34 56.19L64.43 56.29Q57.56 55.93 54.13 57.64L54.07 57.57L54.09 57.60Q52.36 59.65 52.36 62.84L52.38 62.86L52.41 62.89Q52.56 64.12 53.04 68.49L52.85 68.31L52.96 68.41Q53.74 68.72 55.57 69.20L55.56 69.18L55.52 70.74L55.63 70.85Q55.56 71.55 55.68 72.37L55.66 72.36L55.64 72.34Q57.55 72.47 61.39 72.83L61.43 72.87L61.38 72.81Q61.50 72.41 61.50 71.87L61.44 71.81L61.49 71.85Q61.48 69.01 63.37 66.91L63.39 66.92L63.23 66.77Q65.16 64.70 67.94 64.88L67.92 64.86L67.91 64.85Q69.18 65.00 70.36 65.23L70.26 65.13L70.30 65.17Q70.47 65.76 70.59 66.41L70.70 66.52L70.65 66.47Q70.73 67.14 70.61 67.67L70.50 67.56L70.59 67.65Q68.66 75.06 61.80 82.57L61.78 82.56L61.80 82.58Q58.40 85.98 49.94 95.38L49.96 95.40L49.91 95.35Q49.69 96.73 49.16 97.62L49.14 97.59L49.18 97.64Q51.60 96.21 53.96 95.38L53.95 95.37L54.04 95.46Q52.92 96.35 51.45 98.66L51.51 98.72L51.36 98.58Q51.19 99.12 51.01 99.65L51.14 99.78L51.14 99.78Q58.61 96.48 67.13 96.78L67.08 96.73L67.18 96.83Q75.94 97.01 83.03 100.68L83.10 100.75L81.53 97.40L81.60 97.46Q80.44 95.24 80.02 94.00L80.04 94.02L80.16 94.13Q78.91 93.36 77.01 92.71L77.09 92.78L77.07 92.76Q76.78 91.58 76.18 89.45L76.28 89.55L76.29 89.56Q72.76 88.57 69.21 88.27L69.19 88.25L69.33 88.39Q76.50 81.19 78.87 68.36L78.83 68.32L79.20 63.90L79.28 63.98Q79.08 61.12 77.19 60.05L77.23 60.10L77.05 59.98L77.18 60.10Q77.15 60.02 77.03 60.02L76.92 59.91L77.03 60.02Q76.51 58.55 74.79 57.60Z"/><path d="M9 68 C164 16,170 127,336 84" stroke="#829dec" fill="none"/><path d="M6 59 C177 68,172 17,332 126" stroke="#e8819b" fill="none"/><path d="M13 71 C159 6,179 62,329 28" stroke="#64dda0" fill="none"/><path d="M7 79 C151 26,158 132,321 87" stroke="#456ce2" fill="none"/><path d="M11 107 C191 10,166 125,325 26" stroke="#5f81e7" fill="none"/><path d="M7 114 C152 116,184 84,327 45" stroke="#c1dd6d" fill="none"/><path d="M2 10 C174 68,165 40,333 137" stroke="#6969e2" fill="none"/><path d="M15 18 C190 118,156 59,324 22" stroke="#8383e6" fill="none"/><path d="M3 58 C164 55,174 25,330 33" stroke="#3232e5" fill="none"/><path d="M1 48 C156 16,162 2,329 135" stroke="#a8e494" fill="none"/><path d="M7 4 C186 56,188 91,332 51" stroke="#6cd449" fill="none"/><path d="M14 78 C183 77,162 38,340 116" stroke="#f08da6" fill="none"/><path d="M5 98 C164 73,158 37,326 98" stroke="#a56fdc" fill="none"/><path d="M9 19 C162 109,155 14,334 91" stroke="#c8e07e" fill="none"/><path d="M16 113 C167 80,166 61,329 133" stroke="#53e878" fill="none"/><path fill="#d57352" d="M263.32 88.44L263.45 88.56L263.44 88.56Q265.12 89.89 267.31 89.65L267.29 89.63L267.26 89.60Q271.88 89.96 272.88 84.75L272.84 84.71L272.98 84.85Q273.79 79.81 273.79 74.54L273.85 74.60L273.94 70.67L273.85 70.58Q273.88 68.65 273.34 66.70L273.24 66.59L273.42 66.78Q271.51 70.37 268.43 77.76L268.34 77.67L268.26 77.59Q265.22 85.02 263.33 88.45ZM271.26 62.96L271.15 62.85L271.18 62.88Q269.42 61.66 267.35 61.66L267.33 61.64L267.36 61.67Q265.11 61.48 263.39 62.90L263.31 62.82L263.35 62.86Q261.54 64.19 261.25 66.49L261.41 66.65L261.33 66.58Q260.86 68.77 260.80 71.08L260.69 70.96L260.70 70.97Q260.82 71.09 260.82 75.52L260.75 75.46L260.65 75.36Q260.78 79.16 261.49 84.77L261.46 84.75L261.38 84.66Q264.43 77.37 271.24 62.94ZM273.70 92.19L273.57 92.06L273.61 92.10Q270.84 93.47 267.23 93.47L267.36 93.60L264.73 93.51L264.80 93.59Q259.74 93.55 257.97 90.89L258.02 90.94L257.90 90.83Q256.80 87.59 256.68 83.04L256.54 82.90L256.51 82.86Q256.63 80.33 256.51 74.95L256.40 74.84L256.38 74.82Q256.42 73.02 256.18 68.29L256.06 68.16L256.14 68.24Q255.92 64.59 256.39 61.52L256.53 61.65L256.38 61.51Q257.33 57.14 264.08 56.78L263.92 56.63L264.05 56.75Q265.11 56.57 267.18 56.63L267.27 56.72L267.33 56.78Q276.11 56.99 277.76 62.37L277.72 62.32L277.74 62.34Q278.57 65.19 278.51 68.09L278.59 68.16L278.58 68.15Q278.38 75.82 278.26 77.71L278.31 77.76L278.37 77.82Q278.09 83.74 277.61 85.76L277.60 85.75L277.51 85.66Q276.67 90.67 273.71 92.21ZM281.22 91.67L281.29 91.74L281.22 91.67Q281.66 87.44 281.60 84.66L281.68 84.74L281.51 77.53L281.54 77.56Q281.44 72.90 280.61 64.33L280.51 64.23L280.57 64.28Q279.82 61.52 277.81 60.34L277.80 60.33L277.71 60.24Q275.26 56.26 267.22 56.02L267.32 56.13L267.26 56.06Q265.82 55.93 263.75 55.99L263.81 56.05L263.83 56.06Q256.67 56.06 255.91 60.91L255.96 60.97L255.99 61.00Q255.32 64.53 255.50 67.78L255.66 67.95L255.66 67.94Q256.17 74.72 256.11 79.92L256.01 79.83L256.04 79.86Q255.91 85.53 256.09 87.12L256.25 87.28L256.14 87.17Q256.74 91.97 259.11 93.22L259.15 93.26L259.04 93.15Q261.38 96.61 267.59 97.03L267.67 97.11L267.65 97.09Q273.28 97.51 274.28 97.45L274.26 97.42L274.17 97.34Q278.63 97.12 280.40 94.64L280.35 94.59L280.41 94.64Q281.27 93.67 281.39 91.83ZM267.96 89.11L267.94 89.10L267.93 89.09Q268.99 86.84 270.65 82.64L270.63 82.62L273.26 76.02L273.30 76.06Q273.25 78.61 272.66 83.81L272.77 83.93L272.64 83.80Q271.60 88.26 267.87 89.03ZM264.87 70.00L264.86 69.99L264.96 70.08Q265.54 67.18 266.61 66.29L266.75 66.43L266.57 66.26Q267.40 65.73 269.41 65.43L269.31 65.33L269.43 65.45Q266.81 71.16 263.91 78.38L263.80 78.27L263.87 78.34Q263.82 74.09 264.89 70.01Z"/><path d="M5 92 C175 84,152 7,332 63" stroke="#ebb57f" fill="none"/><path d="M3 31 C182 21,173 128,328 88" stroke="#bf8fef" fill="none"/><path d="M10 102 C152 52,188 57,341 17" stroke="#e56aa8" fill="none"/><path d="M4 61 C192 18,184 82,338 19" stroke="#683fe3" fill="none"/><path d="M9 23 C157 128,151 50,338 135" stroke="#e4957a" fill="none"/><path d="M16 84 C151 133,151 79,324 42" stroke="#92d1e6" fill="none"/><path d="M1 95 C154 102,190 36,333 135" stroke="#e5c461" fill="none"/><path d="M20 116 C155 2,192 61,322 41" stroke="#69aaec" fill="none"/><path d="M19 41 C161 31,157 17,338 118" stroke="#84b7eb" fill="none"/><path d="M5 27 C184 59,162 137,326 9" stroke="#b2d44e" fill="none"/><path d="M14 72 C163 7,191 15,334 135" stroke="#4be6e6" fill="none"/><path d="M9 48 C159 78,171 112,338 136" stroke="#e67ee6" fill="none"/><path d="M14 32 C158 45,150 8,321 111" stroke="#dc4bdc" fill="none"/><path d="M20 101 C189 75,186 127,323 97" stroke="#d34ad3" fill="none"/><path d="M7 131 C186 70,169 70,321 32" stroke="#a0e65a" fill="none"/><path d="M9 38 C150 61,172 59,331 135" stroke="#81e89b" fill="none"/><path d="M5 15 C189 75,164 50,325 91" stroke="#8aefa3" fill="none"/><path d="M7 26 C159 94,161 31,330 105" stroke="#e877cc" fill="none"/><path d="M20 7 C177 54,151 3,322 8" stroke="#99dc55" fill="none"/><path d="M3 58 C161 135,178 70,340 56" stroke="#e98080" fill="none"/><path fill="#7a59dd" d="M125.40 82.37L125.36 82.34L125.43 82.41Q130.10 81.69 135.06 81.87L135.10 81.91L135.15 81.95Q135.16 78.06 135.16 74.34L135.14 74.31L135.06 74.24Q135.09 70.42 135.39 66.46L135.39 66.46L135.33 66.40Q133.53 69.15 125.42 82.40ZM140.84 93.86L140.84 93.85L140.66 93.68Q138.16 93.30 135.38 93.19L135.37 93.18L135.48 93.28Q135.15 89.59 134.98 85.74L134.87 85.64L134.93 85.69Q126.67 85.42 119.33 87.61L119.24 87.51L119.34 87.61Q119.53 86.86 119.83 85.32L119.74 85.23L119.81 85.31Q122.56 80.36 128.11 70.60L128.04 70.53L128.05 70.53Q132.70 63.12 138.02 57.09L137.94 57.00L138.00 57.07Q139.27 56.68 141.87 56.26L141.96 56.36L141.98 56.37Q138.92 66.26 138.92 77.20L138.99 77.28L138.87 77.16Q138.90 79.49 139.02 81.80L138.98 81.76L141.15 82.10L141.08 82.02Q142.00 82.06 142.95 82.24L142.89 82.19L142.96 82.26Q143.16 83.81 143.57 86.83L143.60 86.86L143.49 86.75Q141.67 86.40 139.36 86.11L139.39 86.13L139.39 86.13Q139.69 89.22 140.75 93.77ZM143.28 81.57L143.29 81.58L143.33 81.62Q143.08 81.55 142.79 81.55L142.84 81.60L142.12 81.47L142.27 81.62Q142.08 79.30 142.08 77.11L142.09 77.12L142.00 77.04Q141.98 67.08 145.17 57.73L145.26 57.82L145.27 57.83Q144.08 58.24 141.83 58.83L141.83 58.82L141.68 58.67Q142.09 57.55 142.80 55.36L142.77 55.33L142.92 55.48Q140.76 55.92 137.56 56.28L137.65 56.36L137.59 56.30Q131.44 62.98 123.34 77.53L123.47 77.67L126.72 71.98L126.74 72.00Q125.94 73.45 125.53 74.34L125.62 74.44L118.73 88.48L118.68 88.43Q119.67 88.18 121.45 87.59L121.44 87.59L121.18 87.92L121.31 88.05Q121.07 89.05 120.60 91.00L120.54 90.94L120.53 90.93Q126.89 88.84 134.41 89.14L134.44 89.17L134.58 89.31Q134.59 90.74 134.89 93.82L134.93 93.86L134.90 93.83Q136.43 93.71 138.09 93.88L138.23 94.03L138.21 94.01Q138.31 94.93 138.72 97.06L138.89 97.22L138.75 97.08Q141.87 97.60 146.54 99.02L146.37 98.85L146.43 98.92Q144.95 95.66 143.53 90.57L143.43 90.47L145.73 91.23L145.70 91.20Q146.81 91.60 147.87 92.13L147.93 92.19L147.86 92.12Q146.56 88.16 146.32 85.56L146.46 85.70L146.42 85.66Q145.57 85.45 143.79 85.10L143.63 84.94L143.72 85.03Q143.29 82.94 143.29 81.58ZM130.97 81.44L131.01 81.48L130.99 81.47Q132.21 79.49 134.64 75.53L134.57 75.46L134.51 75.40Q134.47 76.83 134.41 78.31L134.55 78.46L134.49 78.40Q134.44 79.88 134.50 81.36L134.52 81.38L134.48 81.35Q133.63 81.32 132.74 81.32L132.81 81.39L132.85 81.43Q131.80 81.32 130.85 81.32Z"/><path d="M3 109 C191 15,153 82,339 98" stroke="#e63b3b" fill="none"/><path d="M3 44 C172 21,158 90,332 2" stroke="#7aea7a" fill="none"/><path d="M14 77 C189 43,180 129,322 73" stroke="#e868a8" fill="none"/></svg>