<svg xmlns="http://www.w3.org/2000/svg" width="342" height="140" viewBox="0,0,342,140"><path d="M12 14 C151 91,160 135,339 133" stroke="#eece6c" fill="none"/><path d="M14 55 C160 50,173 7,341 105" stroke="#cb87e2" fill="none"/><path d="M8 51 C164 51,164 20,336 79" stroke="#db6161" fill="none"/><path d="M6 30 C168 92,159 56,323 11" stroke="#7c98ed" fill="none"/><path d="M20 106 C168 18,164 15,335 51" stroke="#9e5ddf" fill="none"/><path d="M4 21 C192 85,162 17,322 25" stroke="#d2ef7a" fill="none"/><path d="M20 134 C153 71,190 13,336 44" stroke="#4eb6d9" fill="none"/><path d="M9 102 C187 23,174 114,331 42" stroke="#428cd5" fill="none"/><path d="M2 43 C171 1,176 12,330 45" stroke="#5555d7" fill="none"/><path d="M14 127 C161 16,177 33,340 105" stroke="#63a8ec" fill="none"/><path d="M3 30 C156 39,163 24,337 79" stroke="#58c4e9" fill="none"/><path fill="#5dbad9" d="M124.27 83.63L124.21 83.57L124.26 83.62Q129.52 82.94 135.00 83.13L134.96 83.08L134.99 83.12Q135.07 78.89 135.07 74.78L135.02 74.73L134.92 74.63Q134.93 70.40 135.26 66.03L135.32 66.09L135.39 66.16Q133.31 69.11 124.37 83.73ZM141.19 96.17L141.21 96.19L141.16 96.14Q138.31 95.64 135.25 95.51L135.22 95.48L135.35 95.62Q134.96 91.50 134.76 87.26L134.70 87.20L134.76 87.26Q125.57 86.88 117.47 89.29L117.48 89.30L117.66 89.48Q117.86 88.63 118.18 86.94L118.04 86.80L118.11 86.87Q121.23 81.50 127.37 70.73L127.34 70.71L127.27 70.63Q132.33 62.39 138.21 55.73L138.03 55.55L138.17 55.69Q139.71 55.40 142.58 54.94L142.44 54.81L142.49 54.85Q139.19 65.85 139.19 77.92L139.16 77.89L139.24 77.97Q139.31 80.59 139.44 83.13L139.39 83.08L141.61 83.28L141.55 83.22Q142.71 83.40 143.75 83.59L143.58 83.43L143.62 83.46Q143.78 85.12 144.24 88.45L144.38 88.60L144.26 88.48Q142.17 88.02 139.63 87.69L139.67 87.74L139.70 87.77Q140.17 91.30 141.35 96.33ZM144.21 82.94L144.15 82.88L144.19 82.92Q143.70 82.63 143.37 82.63L143.50 82.75L142.81 82.71L142.80 82.71Q142.64 80.19 142.64 77.78L142.58 77.72L142.69 77.83Q142.70 66.87 146.22 56.56L146.12 56.47L146.15 56.49Q144.80 56.90 142.32 57.56L142.32 57.56L142.33 57.57Q142.75 56.29 143.53 53.87L143.48 53.82L143.51 53.85Q141.38 54.59 137.85 54.98L137.86 54.99L137.88 55.01Q130.98 62.28 122.04 78.33L122.17 78.46L125.70 72.13L125.67 72.10Q125.10 74.02 124.65 74.99L124.46 74.81L116.90 90.35L116.89 90.34Q117.96 90.04 119.92 89.39L119.95 89.42L119.68 89.80L119.65 89.77Q119.45 90.94 118.93 93.10L119.08 93.25L119.09 93.26Q126.01 90.85 134.30 91.17L134.32 91.20L134.31 91.19Q134.50 92.94 134.83 96.33L134.78 96.29L134.76 96.27Q136.48 96.16 138.31 96.36L138.36 96.41L138.32 96.37Q138.74 97.70 139.20 100.05L139.17 100.02L139.07 99.93Q142.34 100.33 147.50 101.89L147.56 101.96L147.51 101.91Q145.77 98.20 144.20 92.59L144.30 92.69L146.74 93.43L146.76 93.46Q147.88 93.79 149.05 94.37L149.16 94.48L149.09 94.41Q147.73 90.12 147.47 87.25L147.41 87.19L147.44 87.22Q146.40 86.90 144.45 86.51L144.48 86.54L144.59 86.65Q144.11 84.35 144.11 82.85ZM130.52 82.69L130.39 82.56L130.41 82.58Q131.75 80.40 134.42 76.02L134.49 76.09L134.32 75.93Q134.49 77.72 134.42 79.36L134.32 79.26L134.35 79.28Q134.43 81.05 134.49 82.69L134.42 82.61L134.43 82.62Q133.36 82.46 132.38 82.46L132.38 82.47L132.45 82.53Q131.48 82.61 130.44 82.61Z"/><path fill="#75d854" d="M261.45 96.39L261.36 96.30L261.29 96.22Q258.94 96.42 256.26 95.70L256.26 95.70L256.35 95.79Q254.10 94.06 253.84 91.25L253.93 91.34L253.83 91.25Q253.94 91.10 254.27 86.59L254.18 86.51L254.16 86.49Q255.87 86.11 259.33 85.45L259.33 85.46L259.14 86.90L259.15 86.91Q258.52 89.74 260.94 90.72L261.03 90.81L261.03 90.81Q262.42 91.42 266.01 91.42L265.91 91.32L266.07 91.48Q268.75 91.15 269.07 91.02L268.97 90.92L269.08 91.03Q270.55 90.67 271.79 89.82L271.95 89.99L271.78 89.82Q274.23 88.22 273.90 84.63L274.05 84.78L274.04 84.76Q273.65 80.53 270.69 77.85L270.67 77.84L270.75 77.92Q267.73 75.19 263.49 75.19L263.48 75.19L263.48 74.79L263.51 74.82Q264.08 74.68 265.58 74.55L265.51 74.48L265.59 74.55Q268.96 74.46 271.31 72.34L271.14 72.17L271.28 72.31Q273.62 70.18 273.88 66.98L273.78 66.88L273.80 66.90Q273.87 66.26 273.87 65.67L273.92 65.72L274.03 65.83Q273.92 63.11 271.57 61.55L271.54 61.52L271.63 61.60Q269.45 60.14 266.71 60.34L266.82 60.45L266.85 60.48Q264.55 60.13 262.46 60.85L262.57 60.96L262.41 60.80Q259.97 61.75 259.45 63.71L259.39 63.66L259.43 63.69Q259.18 65.08 259.31 66.38L259.22 66.29L259.33 66.40Q257.61 66.05 254.08 64.81L253.92 64.65L254.03 64.76Q253.51 61.75 253.57 60.32L253.73 60.47L253.72 60.47Q253.84 57.78 255.67 56.60L255.63 56.57L255.65 56.59Q258.17 55.65 260.91 55.65L260.82 55.55L260.86 55.59Q266.19 55.44 271.60 55.90L271.66 55.95L271.72 56.01Q280.28 56.61 279.76 63.08L279.88 63.20L279.78 63.10Q279.79 65.79 278.95 68.46L278.76 68.27L278.76 68.28Q277.34 73.71 273.30 75.28L273.24 75.22L273.33 75.31Q277.77 76.16 278.82 81.91L278.82 81.91L278.72 81.81Q279.20 83.85 279.33 87.31L279.36 87.35L279.40 87.39Q279.63 94.99 271.73 95.77L271.74 95.78L271.72 95.76Q270.48 95.89 261.41 96.35ZM270.34 100.19L270.31 100.16L270.39 100.24Q271.42 100.29 276.32 100.42L276.22 100.33L276.19 100.30Q279.28 100.51 282.09 99.40L282.12 99.44L282.11 99.43Q284.15 97.81 283.82 94.81L283.73 94.72L283.69 94.68Q283.53 92.42 283.00 89.42L282.96 89.38L283.00 89.42Q281.84 81.79 278.51 78.99L278.47 78.95L278.11 78.26L278.02 78.10L278.16 78.25Q281.02 75.63 282.33 68.12L282.29 68.08L282.37 68.16Q282.36 67.31 282.56 65.68L282.71 65.83L282.72 65.84Q282.85 64.54 282.72 63.36L282.66 63.30L282.72 63.36Q282.44 60.47 280.22 59.30L280.21 59.28L280.01 59.22L279.96 59.17Q279.53 57.56 277.57 56.65L277.54 56.61L277.51 56.59Q274.90 55.41 266.09 54.89L266.16 54.96L266.22 55.02Q263.19 54.73 260.45 54.73L260.59 54.87L260.52 54.80Q257.87 54.89 255.26 56.00L255.12 55.86L255.14 55.88Q253.01 57.14 253.01 60.14L253.03 60.17L253.10 60.24Q253.03 59.45 253.48 65.19L253.58 65.28L253.61 65.32Q254.06 65.37 256.87 66.42L256.95 66.50L256.82 66.37Q256.80 67.26 256.73 68.11L256.76 68.14L256.80 68.17Q256.72 68.95 256.78 69.86L256.94 70.01L256.85 69.93Q259.93 70.59 263.38 70.78L263.29 70.68L263.30 70.70Q263.32 67.39 265.22 65.96L265.23 65.97L265.15 65.89Q266.66 64.86 270.12 64.47L269.96 64.31L270.01 64.35Q272.01 64.40 272.99 64.73L272.91 64.65L272.95 64.68Q272.95 64.82 273.02 65.01L273.02 65.01L273.03 65.35L273.38 66.49L273.21 66.31Q273.24 66.67 273.18 66.93L273.21 66.97L273.25 67.00Q273.20 70.02 270.59 72.05L270.50 71.96L270.53 71.99Q268.92 73.51 265.46 73.84L265.41 73.78L265.50 73.88Q264.23 74.11 262.73 74.11L262.72 74.10L262.83 74.21Q262.85 74.75 263.11 75.92L263.00 75.81L263.04 75.86Q266.08 75.89 268.56 77.13L268.48 77.05L268.42 77.19L265.65 77.42L265.69 77.46Q265.78 78.07 265.98 79.12L266.00 79.14L266.02 79.16Q269.55 78.91 272.49 81.19L272.57 81.27L272.46 81.16Q273.00 81.97 273.52 84.77L273.50 84.75L273.39 84.64Q273.68 89.62 268.65 90.34L268.78 90.47L268.66 90.35Q265.13 90.87 264.15 90.80L264.11 90.76L264.15 90.80Q263.48 90.72 262.56 90.59L262.53 90.55L262.39 89.63L262.69 88.95L262.71 88.25L262.81 87.77L262.76 87.71Q261.12 87.83 259.74 88.16L259.77 88.18L259.83 88.24Q259.73 87.81 259.73 87.48L259.79 87.55L259.76 87.52Q259.79 87.16 259.79 86.76L259.75 86.73L259.72 86.70Q259.96 86.15 260.22 84.91L260.15 84.85L260.02 84.72Q256.96 85.24 253.76 85.83L253.77 85.83L253.71 85.78Q253.75 86.66 253.55 88.59L253.62 88.65L253.45 88.49Q253.36 90.52 253.36 91.56L253.32 91.52L253.28 91.48Q253.37 94.97 255.72 96.27L255.91 96.46L255.84 96.39Q258.29 100.22 266.39 99.89L266.38 99.89L266.49 99.99Q267.72 99.92 270.33 100.18Z"/><path d="M8 40 C158 58,192 126,324 62" stroke="#d0e68e" fill="none"/><path d="M16 8 C188 64,151 36,324 19" stroke="#b9da57" fill="none"/><path d="M9 66 C178 2,187 136,322 69" stroke="#e791bc" fill="none"/><path d="M16 46 C153 24,173 43,337 11" stroke="#ec8787" fill="none"/><path d="M18 129 C180 16,150 39,325 123" stroke="#63ec63" fill="none"/><path d="M6 87 C191 104,154 51,330 68" stroke="#96e27d" fill="none"/><path d="M3 36 C188 86,180 124,340 36" stroke="#cae282" fill="none"/><path d="M13 46 C172 63,171 7,324 89" stroke="#62dea0" fill="none"/><path d="M10 98 C172 78,179 108,321 89" stroke="#e76988" fill="none"/><path d="M6 9 C190 117,159 32,324 105" stroke="#7751ea" fill="none"/><path fill="#e35353" d="M198.89 77.06L198.80 76.97L198.92 77.09Q195.78 76.88 193.66 79.33L193.61 79.28L193.53 79.21Q191.47 81.72 191.15 84.98L191.11 84.95L191.26 85.10Q190.84 88.59 192.70 90.26L192.62 90.18L192.59 90.14Q194.41 91.76 198.00 91.57L198.18 91.76L198.10 91.67Q201.62 91.34 203.51 90.17L203.63 90.29L203.61 90.27Q205.63 88.43 205.63 85.76L205.60 85.72L205.48 85.61Q205.55 85.03 205.42 84.37L205.30 84.26L205.37 84.32Q205.50 81.45 203.61 79.14L203.56 79.09L203.60 79.13Q201.67 76.78 198.80 76.97ZM198.12 96.06L198.16 96.11L198.11 96.05Q190.71 96.16 188.29 94.85L188.19 94.75L188.18 94.74Q186.42 93.44 186.09 90.50L186.10 90.50L186.18 90.58Q185.99 89.29 186.06 88.05L186.12 88.11L186.07 88.06Q186.44 86.54 186.44 85.75L186.42 85.73L186.34 85.65Q187.10 80.73 187.36 79.56L187.43 79.63L187.35 79.55Q188.09 76.18 189.53 73.77L189.51 73.75L189.52 73.76Q194.19 66.36 204.37 55.46L204.28 55.37L204.34 55.43Q208.95 54.95 212.74 53.58L212.72 53.56L212.65 53.49Q201.00 66.38 195.52 73.62L195.43 73.53L195.52 73.63Q197.24 72.80 199.46 72.80L199.40 72.74L199.49 72.83Q205.01 72.67 207.62 76.00L207.60 75.98L207.75 76.13Q209.95 78.86 210.54 84.93L210.47 84.85L210.54 84.92Q210.63 86.13 210.63 87.17L210.68 87.22L210.63 87.16Q210.72 92.61 206.93 94.44L206.95 94.45L207.00 94.51Q204.77 95.41 198.12 96.06ZM202.01 100.15L202.01 100.15L202.14 100.28Q204.20 100.06 207.60 100.19L207.65 100.25L207.72 100.31Q210.50 100.42 213.18 99.18L213.18 99.18L213.08 99.08Q215.16 97.90 215.16 94.83L215.10 94.78L215.04 94.71Q215.12 93.94 214.82 92.25L214.68 92.10L214.75 92.17Q214.39 90.40 214.39 89.62L214.49 89.72L214.41 89.65Q213.00 81.64 210.26 78.38L210.32 78.44L210.14 78.26Q210.19 78.24 209.93 77.85L209.82 77.74L209.26 77.32L209.18 77.30L209.09 77.21Q208.51 76.37 207.47 74.74L207.65 74.92L207.62 74.89Q205.98 73.18 202.58 72.40L202.51 72.33L202.57 72.39Q204.69 69.68 209.78 63.35L209.69 63.26L217.01 54.26L217.00 54.25Q214.42 55.85 210.31 57.15L210.14 56.98L210.21 57.05Q211.75 55.34 214.82 51.94L214.83 51.96L214.96 52.08Q210.83 53.89 204.18 54.87L204.05 54.74L204.10 54.80Q194.37 64.97 189.28 73.46L189.28 73.46L189.31 73.49Q186.62 77.71 185.64 88.42L185.56 88.33L185.61 88.39Q185.60 89.48 185.73 91.11L185.70 91.09L185.58 90.96Q185.81 94.06 187.70 95.63L187.71 95.64L187.65 95.58Q188.21 95.75 188.15 95.82L188.29 95.96L188.15 95.82Q188.97 97.55 190.34 98.27L190.24 98.17L190.27 98.20Q192.67 99.29 195.99 99.62L196.11 99.73L196.08 99.71Q196.14 99.76 202.14 100.29ZM201.61 80.90L201.77 81.05L201.60 80.88Q202.69 80.80 204.32 81.65L204.24 81.57L204.38 81.71Q204.97 83.34 204.97 84.45L204.89 84.36L204.93 84.40Q205.28 87.63 203.65 89.32L203.49 89.17L203.60 89.28Q201.69 90.44 198.10 90.96L198.07 90.93L198.14 91.00Q195.60 90.94 194.69 90.48L194.70 90.49L194.80 90.59Q194.48 89.82 194.48 89.30L194.37 89.18L194.37 89.19Q193.97 83.56 198.99 81.34L199.03 81.38L199.05 81.40Q200.43 80.89 201.74 81.02Z"/><path d="M2 2 C178 79,168 24,336 136" stroke="#5374d9" fill="none"/><path d="M13 10 C154 61,184 123,334 41" stroke="#7591e4" fill="none"/><path d="M15 59 C179 108,184 111,340 9" stroke="#49e849" fill="none"/><path d="M9 65 C182 108,165 54,328 113" stroke="#da67bd" fill="none"/><path d="M8 92 C174 67,162 50,340 42" stroke="#73dddd" fill="none"/><path d="M3 44 C157 14,152 63,322 82" stroke="#ed9191" fill="none"/><path d="M11 64 C183 108,165 35,321 18" stroke="#85e99e" fill="none"/><path fill="#4646e1" d="M76.63 92.17L76.61 92.15L76.58 92.12Q77.20 93.92 78.11 97.38L78.03 97.29L77.93 97.19Q70.80 95.03 62.91 95.48L62.92 95.50L62.80 95.37Q55.06 95.92 48.21 99.32L48.25 99.36L48.10 99.21Q48.67 98.22 48.74 98.35L48.65 98.26L48.64 98.24Q55.10 91.53 61.82 83.96L61.80 83.94L61.82 83.96Q69.31 75.32 71.33 67.29L71.26 67.22L71.31 67.28Q72.07 64.24 69.88 62.22L69.98 62.32L70.00 62.34Q67.70 60.21 64.63 60.47L64.68 60.51L64.72 60.55Q64.20 60.55 63.61 60.55L63.60 60.54L63.53 60.47Q60.89 60.44 58.73 62.01L58.75 62.02L58.86 62.13Q56.56 64.40 56.95 68.97L56.88 68.89L56.94 68.96Q53.88 68.37 51.79 67.59L51.78 67.58L51.75 67.55Q51.46 65.18 51.33 62.70L51.25 62.61L51.30 62.67Q51.12 59.80 52.16 57.85L52.25 57.93L52.29 57.97Q55.37 55.64 61.11 55.64L61.11 55.64L64.14 55.67L64.06 55.59Q68.04 55.72 69.68 55.92L69.54 55.78L69.64 55.88Q77.00 56.52 77.46 60.69L77.45 60.69L77.54 60.78Q77.72 61.81 77.59 63.18L77.47 63.06L77.40 62.98Q77.34 64.11 77.08 65.28L77.17 65.37L77.07 65.27Q74.36 79.27 61.38 91.01L61.47 91.11L61.37 91.01Q63.89 90.85 66.24 90.85L66.12 90.73L66.17 90.78Q71.66 90.73 76.56 92.10ZM75.67 56.49L75.56 56.38L75.64 56.46Q72.81 55.27 69.88 55.14L69.99 55.25L64.13 54.94L64.15 54.96Q56.35 54.34 52.56 56.23L52.65 56.32L52.54 56.20Q50.80 58.64 50.80 62.17L50.82 62.19L50.72 62.09Q50.93 63.47 51.45 68.30L51.30 68.15L51.45 68.30Q52.36 68.68 54.38 69.21L54.35 69.18L54.25 70.83L54.43 71.01Q54.31 71.75 54.45 72.66L54.30 72.52L54.30 72.51Q56.58 72.83 60.82 73.23L60.80 73.21L60.72 73.13Q60.82 72.64 60.82 72.05L60.70 71.93L60.66 71.89Q60.78 68.88 62.87 66.56L62.90 66.60L62.73 66.43Q64.93 64.22 68.00 64.42L67.89 64.31L67.88 64.30Q69.19 64.37 70.50 64.64L70.64 64.78L70.62 64.75Q70.87 65.47 71.00 66.18L70.87 66.05L70.93 66.11Q71.06 66.90 70.93 67.48L70.77 67.32L70.79 67.34Q68.76 75.62 61.19 83.91L61.05 83.77L61.15 83.87Q57.44 87.66 48.10 98.04L48.21 98.14L48.15 98.09Q47.83 99.52 47.24 100.50L47.17 100.44L47.23 100.49Q49.93 98.95 52.54 98.04L52.55 98.05L52.65 98.15Q51.36 99.08 49.73 101.62L49.77 101.66L49.64 101.53Q49.58 102.25 49.38 102.84L49.32 102.78L49.30 102.76Q57.73 99.31 67.13 99.64L67.05 99.56L67.14 99.65Q76.79 99.84 84.62 103.89L84.70 103.96L82.96 100.26L82.95 100.25Q81.89 98.01 81.43 96.64L81.36 96.57L81.39 96.61Q80.10 95.84 78.01 95.12L78.06 95.17L78.04 95.14Q77.72 93.84 77.06 91.49L77.06 91.49L77.10 91.53Q73.37 90.61 69.46 90.29L69.43 90.26L69.31 90.14Q77.46 82.43 80.07 68.27L79.94 68.14L80.28 63.19L80.44 63.35Q80.29 60.27 78.20 59.09L78.12 59.01L78.09 59.04L78.11 59.06Q78.07 58.96 77.94 58.96L77.90 58.92L77.94 58.96Q77.49 57.46 75.59 56.42Z"/><path d="M8 55 C152 64,150 22,330 122" stroke="#40dd8e" fill="none"/><path d="M8 138 C161 113,180 76,327 57" stroke="#ddb640" fill="none"/><path d="M16 45 C152 87,168 48,336 124" stroke="#e4bb3e" fill="none"/><path d="M19 19 C172 66,159 107,329 61" stroke="#7654dd" fill="none"/><path d="M19 135 C158 66,158 42,331 63" stroke="#efa389" fill="none"/><path d="M16 33 C179 74,176 30,336 133" stroke="#8cf1a6" fill="none"/><path d="M15 51 C179 106,186 90,340 93" stroke="#7676e9" fill="none"/><path d="M15 32 C154 47,172 3,333 27" stroke="#57b5d5" fill="none"/><path d="M18 38 C180 123,180 50,334 120" stroke="#80cfe9" fill="none"/><path d="M11 129 C179 139,173 98,328 65" stroke="#baec87" fill="none"/><path d="M20 96 C183 6,169 56,331 72" stroke="#90e773" fill="none"/><path d="M14 127 C178 111,152 126,322 28" stroke="#ea5151" fill="none"/></svg>