<svg xmlns="http://www.w3.org/2000/svg" width="342" height="140" viewBox="0,0,342,140"><path d="M7 87 C190 68,163 126,330 86" stroke="#e95252" fill="none"/><path d="M10 5 C173 125,158 22,322 18" stroke="#4bbce1" fill="none"/><path d="M11 95 C151 129,186 99,326 86" stroke="#97e87c" fill="none"/><path d="M6 44 C190 7,166 44,330 19" stroke="#e88686" fill="none"/><path d="M5 58 C188 74,162 50,336 3" stroke="#54d8b7" fill="none"/><path d="M16 113 C158 94,159 28,322 37" stroke="#7692e4" fill="none"/><path d="M8 74 C156 110,155 126,324 61" stroke="#e1e146" fill="none"/><path d="M3 68 C172 86,168 58,334 85" stroke="#7f7fe5" fill="none"/><path d="M4 12 C164 12,162 110,332 133" stroke="#a5e06a" fill="none"/><path d="M19 59 C186 68,178 77,324 117" stroke="#51ea9e" fill="none"/><path d="M11 9 C163 112,174 96,327 118" stroke="#e67979" fill="none"/><path d="M8 98 C162 3,175 119,340 54" stroke="#e0e06f" fill="none"/><path d="M10 100 C163 121,182 63,340 37" stroke="#edd386" fill="none"/><path d="M4 24 C173 138,163 25,336 10" stroke="#7251d6" fill="none"/><path d="M2 72 C158 110,189 77,332 134" stroke="#5feca5" fill="none"/><path fill="#d9629e" d="M64.94 91.25L64.90 91.21L64.89 91.20Q65.42 92.86 66.30 96.17L66.17 96.05L66.34 96.21Q59.29 93.92 51.72 94.36L51.72 94.36L51.66 94.29Q44.17 94.75 37.61 98.00L37.65 98.05L37.74 98.14Q38.08 96.98 38.14 97.10L38.16 97.12L38.08 97.04Q44.21 90.54 50.65 83.28L50.66 83.28L50.62 83.24Q57.86 75.04 59.79 67.34L59.98 67.53L59.94 67.48Q60.56 64.48 58.47 62.54L58.57 62.65L58.58 62.66Q56.44 60.67 53.50 60.92L53.46 60.88L53.54 60.96Q52.95 60.88 52.39 60.88L52.46 60.95L52.43 60.91Q49.86 60.85 47.80 62.35L47.81 62.37L47.72 62.27Q45.68 64.61 46.05 68.99L46.16 69.10L46.01 68.94Q43.22 68.53 41.22 67.78L41.06 67.62L41.06 67.62Q40.78 65.34 40.65 62.96L40.60 62.91L40.75 63.06Q40.60 60.34 41.60 58.46L41.51 58.38L41.51 58.38Q44.47 56.14 49.97 56.14L50.07 56.25L52.92 56.22L52.79 56.09Q56.72 56.32 58.28 56.51L58.24 56.46L58.14 56.37Q65.38 57.17 65.82 61.18L65.83 61.19L65.86 61.21Q65.94 62.10 65.81 63.42L65.83 63.43L65.75 63.35Q65.70 64.43 65.45 65.56L65.45 65.56L65.51 65.62Q62.68 78.80 50.24 90.06L50.30 90.12L50.24 90.06Q52.69 89.94 54.94 89.94L54.96 89.97L54.88 89.88Q60.26 89.95 64.95 91.26ZM63.98 57.02L63.96 57.00L63.96 57.00Q61.23 55.83 58.42 55.71L58.61 55.90L52.95 55.56L52.92 55.52Q45.52 55.01 41.89 56.82L42.04 56.96L41.85 56.78Q40.18 59.11 40.18 62.49L40.15 62.46L40.12 62.43Q40.24 63.67 40.74 68.30L40.73 68.29L40.70 68.27Q41.60 68.66 43.54 69.16L43.56 69.19L43.60 70.92L43.65 70.97Q43.50 71.63 43.63 72.51L43.67 72.54L43.67 72.54Q45.74 72.74 49.81 73.12L49.78 73.09L49.81 73.12Q49.69 72.44 49.69 71.87L49.76 71.94L49.69 71.88Q49.66 68.85 51.67 66.63L51.64 66.60L51.60 66.56Q53.77 64.51 56.71 64.70L56.58 64.57L56.67 64.66Q57.97 64.77 59.22 65.02L59.05 64.84L59.20 65.00Q59.42 65.66 59.55 66.34L59.43 66.23L59.48 66.27Q59.55 66.98 59.43 67.54L59.31 67.42L59.44 67.55Q57.29 75.28 50.03 83.22L50.02 83.21L50.09 83.28Q46.62 87.00 37.67 96.94L37.60 96.87L37.69 96.96Q37.36 98.32 36.80 99.26L36.71 99.17L36.80 99.26Q39.37 97.76 41.87 96.89L41.90 96.92L41.91 96.93Q40.75 97.90 39.19 100.34L39.03 100.17L39.16 100.30Q38.98 100.88 38.79 101.44L38.69 101.34L38.80 101.45Q46.84 98.10 55.84 98.42L55.74 98.31L55.77 98.34Q65.10 98.60 72.61 102.48L72.68 102.56L70.93 98.93L71.04 99.04Q69.94 96.81 69.50 95.50L69.51 95.51L69.40 95.40Q68.28 94.78 66.28 94.09L66.33 94.14L66.24 94.05Q66.03 92.90 65.40 90.65L65.49 90.73L65.37 90.62Q61.85 89.79 58.10 89.48L58.02 89.39L57.92 89.30Q65.74 81.92 68.24 68.35L68.12 68.22L68.61 63.65L68.49 63.53Q68.45 60.67 66.44 59.54L66.32 59.42L66.25 59.41L66.36 59.52Q66.37 59.47 66.24 59.47L66.18 59.40L66.08 59.30Q65.84 58.06 64.02 57.06Z"/><path d="M21 55 C156 53,159 97,334 15" stroke="#8c70df" fill="none"/><path fill="#6d43e9" d="M102.20 83.16L102.06 83.02L102.12 83.09Q107.13 82.40 112.38 82.59L112.44 82.64L112.40 82.61Q112.29 78.37 112.29 74.43L112.34 74.48L112.31 74.45Q112.38 70.45 112.69 66.26L112.64 66.21L112.61 66.18Q110.71 69.10 102.14 83.10ZM118.36 95.13L118.30 95.08L118.27 95.04Q115.66 94.68 112.72 94.56L112.63 94.47L112.59 94.43Q112.45 90.72 112.26 86.66L112.23 86.63L112.21 86.61Q103.46 86.30 95.70 88.61L95.62 88.53L95.73 88.64Q95.95 87.86 96.26 86.23L96.13 86.11L96.14 86.11Q99.15 80.99 105.03 70.67L105.08 70.72L104.98 70.62Q109.81 62.69 115.44 56.32L115.45 56.32L115.43 56.30Q116.71 55.84 119.47 55.40L119.52 55.45L119.51 55.44Q116.35 65.98 116.35 77.55L116.47 77.67L116.44 77.64Q116.34 79.98 116.46 82.42L116.48 82.44L118.71 82.73L118.72 82.73Q119.73 82.80 120.73 82.99L120.74 83.00L120.63 82.89Q120.85 84.55 121.29 87.74L121.27 87.73L121.29 87.74Q119.38 87.40 116.94 87.09L116.78 86.92L116.77 86.91Q117.20 90.28 118.32 95.10ZM121.12 82.32L121.02 82.22L121.03 82.23Q120.79 82.18 120.48 82.18L120.55 82.25L119.86 82.19L119.79 82.11Q119.76 79.83 119.76 77.52L119.74 77.50L119.71 77.47Q119.69 66.95 123.07 57.06L123.09 57.08L123.10 57.09Q121.90 57.58 119.52 58.21L119.36 58.05L119.45 58.14Q119.87 56.93 120.62 54.62L120.46 54.46L120.62 54.62Q118.45 55.20 115.07 55.57L115.09 55.59L115.06 55.56Q108.55 62.62 99.98 78.01L100.12 78.15L103.54 72.12L103.49 72.07Q102.80 73.76 102.36 74.70L102.40 74.73L95.12 89.59L94.95 89.42Q96.09 89.25 97.97 88.63L97.99 88.65L97.67 88.95L97.77 89.06Q97.47 90.07 96.97 92.13L97.06 92.23L97.02 92.18Q103.75 89.97 111.70 90.28L111.80 90.39L111.64 90.23Q111.78 91.87 112.09 95.12L112.10 95.13L112.12 95.14Q113.95 95.23 115.70 95.42L115.61 95.33L115.55 95.26Q115.88 96.46 116.31 98.72L116.21 98.61L116.23 98.63Q119.38 99.03 124.32 100.53L124.37 100.59L124.41 100.62Q122.65 96.99 121.15 91.61L121.27 91.73L123.66 92.49L123.68 92.51Q124.73 92.81 125.85 93.37L125.85 93.37L125.78 93.30Q124.64 89.34 124.39 86.59L124.30 86.50L124.38 86.58Q123.45 86.33 121.57 85.96L121.42 85.81L121.55 85.94Q121.16 83.79 121.16 82.36ZM107.99 82.07L107.99 82.08L108.05 82.14Q109.23 79.94 111.80 75.75L111.74 75.69L111.88 75.83Q111.83 77.34 111.77 78.91L111.70 78.84L111.81 78.95Q111.72 80.49 111.78 82.05L111.83 82.10L111.77 82.04Q110.87 82.02 109.94 82.02L109.91 81.99L109.99 82.08Q108.89 81.97 107.89 81.97Z"/><path d="M10 38 C155 92,171 47,333 130" stroke="#87f1d7" fill="none"/><path d="M16 45 C190 116,171 53,325 122" stroke="#e556c1" fill="none"/><path d="M15 79 C164 72,170 43,332 43" stroke="#caeb64" fill="none"/><path d="M5 93 C168 27,181 29,328 122" stroke="#eca187" fill="none"/><path d="M4 11 C154 48,166 118,339 23" stroke="#e8e83f" fill="none"/><path d="M7 121 C167 93,182 53,329 3" stroke="#43e96d" fill="none"/><path d="M11 53 C178 42,162 75,333 129" stroke="#91e575" fill="none"/><path fill="#8aeea3" d="M221.70 76.70L221.85 76.85L221.68 76.68Q218.69 76.50 216.66 78.85L216.74 78.93L216.74 78.93Q214.77 81.33 214.45 84.46L214.30 84.31L214.41 84.42Q213.98 87.74 215.76 89.33L215.69 89.26L215.76 89.33Q217.66 91.04 221.10 90.85L220.93 90.69L220.95 90.70Q224.42 90.48 226.23 89.36L226.30 89.43L226.32 89.44Q228.14 87.58 228.14 85.01L228.12 84.99L228.14 85.02Q228.13 84.38 228.00 83.75L227.94 83.69L227.91 83.66Q228.06 80.93 226.24 78.71L226.26 78.73L226.30 78.76Q224.42 76.48 221.67 76.67ZM221.05 95.00L221.02 94.97L221.14 95.09Q213.85 94.99 211.53 93.74L211.53 93.74L211.52 93.73Q209.94 92.58 209.62 89.76L209.59 89.73L209.61 89.75Q209.53 88.61 209.60 87.42L209.63 87.45L209.57 87.39Q209.84 85.85 209.84 85.10L209.68 84.94L209.85 85.11Q210.41 80.23 210.66 79.11L210.66 79.11L210.67 79.12Q211.51 76.01 212.89 73.70L212.87 73.68L212.79 73.60Q217.21 66.46 226.97 56.01L227.00 56.05L227.09 56.13Q231.47 55.63 235.10 54.32L235.07 54.29L235.11 54.33Q223.77 66.51 218.52 73.46L218.59 73.53L218.58 73.51Q220.12 72.61 222.24 72.61L222.17 72.54L222.26 72.63Q227.62 72.54 230.12 75.73L230.27 75.88L230.21 75.82Q232.36 78.48 232.93 84.30L232.93 84.30L233.04 84.41Q233.18 85.61 233.18 86.61L233.05 86.49L233.16 86.59Q233.02 91.58 229.39 93.33L229.41 93.35L229.36 93.30Q227.54 94.48 221.16 95.11ZM224.81 98.95L224.76 98.90L224.72 98.86Q226.91 98.86 230.16 98.98L230.22 99.04L230.27 99.09Q232.92 99.18 235.49 97.99L235.42 97.92L235.48 97.98Q237.36 96.73 237.36 93.79L237.28 93.72L237.24 93.68Q237.19 92.81 236.91 91.18L236.90 91.18L236.99 91.27Q236.76 89.69 236.76 88.94L236.78 88.97L236.73 88.91Q235.22 81.08 232.59 77.96L232.64 78.01L232.64 78.01Q232.49 77.79 232.24 77.41L232.21 77.39L231.84 77.14L231.61 76.97L231.65 77.02Q231.03 76.14 230.02 74.58L230.10 74.66L230.14 74.69Q228.48 72.97 225.23 72.22L225.23 72.23L225.28 72.27Q227.32 69.68 232.20 63.62L232.25 63.67L239.08 54.86L239.15 54.94Q236.53 56.32 232.59 57.57L232.58 57.56L232.65 57.63Q234.18 56.03 237.12 52.78L237.07 52.73L237.09 52.75Q233.16 54.51 226.78 55.45L226.84 55.50L226.82 55.49Q217.45 65.19 212.57 73.32L212.41 73.16L212.53 73.28Q210.01 77.39 209.07 87.65L209.00 87.58L209.06 87.64Q208.87 88.51 208.99 90.07L209.03 90.10L209.05 90.13Q209.13 92.96 210.95 94.46L211.09 94.61L211.02 94.53Q211.63 94.77 211.57 94.84L211.49 94.76L211.57 94.84Q212.16 96.30 213.47 96.99L213.43 96.95L213.52 97.03Q215.79 98.06 218.98 98.37L219.05 98.44L219.16 98.55Q219.04 98.43 224.79 98.93ZM224.47 80.53L224.53 80.59L224.40 80.46Q225.35 80.29 226.92 81.10L226.97 81.15L226.86 81.05Q227.50 82.68 227.50 83.74L227.59 83.84L227.46 83.71Q227.89 86.89 226.32 88.51L226.28 88.47L226.21 88.40Q224.53 89.66 221.09 90.16L221.05 90.12L220.98 90.04Q218.76 90.21 217.89 89.77L217.87 89.76L217.76 89.64Q217.54 88.98 217.54 88.48L217.57 88.52L217.52 88.46Q217.06 83.00 221.87 80.87L221.98 80.98L222.01 81.01Q223.11 80.29 224.36 80.42Z"/><path d="M18 93 C189 71,172 88,322 38" stroke="#8fe9e9" fill="none"/><path d="M1 65 C175 69,182 51,336 39" stroke="#b5e287" fill="none"/><path d="M10 64 C174 74,185 109,327 58" stroke="#6383e2" fill="none"/><path d="M18 115 C186 52,189 126,330 9" stroke="#e68dba" fill="none"/><path fill="#4ed4b2" d="M279.49 67.31L279.62 67.44L279.49 67.32Q274.28 67.36 271.28 65.61L271.32 65.65L271.31 65.64Q275.48 63.43 283.48 56.48L283.44 56.44L283.51 56.51Q284.69 56.19 286.82 55.19L286.66 55.03L286.67 55.04Q284.62 64.94 284.43 75.38L284.29 75.24L284.39 75.34Q284.19 85.77 285.94 95.78L285.86 95.70L286.02 95.86Q283.13 94.53 279.63 94.34L279.68 94.40L279.67 94.39Q279.45 87.54 279.45 80.84L279.41 80.81L279.39 80.79Q279.41 74.05 279.48 67.30ZM278.93 71.07L278.89 94.98L278.85 94.95Q280.91 95.00 282.47 95.32L282.45 95.29L282.41 95.25Q282.70 96.54 283.01 98.79L282.97 98.75L282.94 98.72Q287.60 99.56 291.60 103.25L291.69 103.34L291.71 103.36Q287.50 91.52 287.44 79.26L287.44 79.27L287.56 79.38Q287.27 66.97 290.28 55.08L290.39 55.20L290.33 55.14Q289.41 55.78 286.79 57.60L286.80 57.61L286.79 57.61Q287.12 56.37 287.62 53.87L287.75 53.99L287.62 53.86Q285.55 55.24 283.18 55.86L283.15 55.84L283.05 55.74Q277.01 61.77 269.94 65.52L269.81 65.38L269.85 65.43Q272.13 67.21 276.01 67.78L276.06 67.82L276.14 67.90Q275.01 68.71 272.88 70.46L272.87 70.45L272.83 70.41Q275.23 71.00 278.86 71.00L278.93 71.07Z"/><path d="M1 52 C178 127,161 77,333 52" stroke="#663edf" fill="none"/><path d="M18 113 C184 59,167 94,336 121" stroke="#e9c352" fill="none"/><path d="M9 112 C173 85,162 116,328 106" stroke="#eb84b7" fill="none"/><path d="M17 63 C161 89,167 108,326 42" stroke="#db42db" fill="none"/><path fill="#8aefef" d="M171.48 73.54L171.48 73.54L171.48 73.54Q172.73 73.48 175.04 73.23L175.17 73.36L175.16 73.35Q175.04 74.35 175.04 75.41L175.14 75.52L175.06 77.50L174.97 77.41Q173.71 77.52 172.33 77.65L172.21 77.53L172.30 77.61Q170.89 77.64 169.51 77.58L169.66 77.73L169.59 77.66Q164.82 87.71 159.19 95.28L159.16 95.25L159.23 95.32Q155.16 96.44 153.03 97.44L152.90 97.31L152.96 97.36Q159.71 87.98 164.72 77.66L164.71 77.66L160.51 77.77L160.41 77.67Q160.51 75.58 160.32 73.39L160.26 73.33L160.26 73.33Q163.29 73.48 166.66 73.48L166.85 73.66L169.81 67.43L169.79 67.41Q171.52 64.39 173.52 61.76L173.56 61.80L173.59 61.83Q170.86 61.91 168.23 61.91L168.23 61.91L168.35 62.03Q158.29 61.98 152.10 58.35L152.03 58.28L151.08 55.58L151.01 55.51Q150.40 54.09 149.77 52.65L149.88 52.75L149.89 52.77Q156.90 56.96 166.28 57.34L166.32 57.37L166.38 57.44Q174.80 57.79 183.24 54.53L183.23 54.52L183.21 54.50Q182.96 55.25 182.15 56.69L182.07 56.61L182.22 56.76Q176.19 64.49 171.50 73.56ZM184.79 58.96L184.76 58.93L186.42 55.64L186.42 55.65Q184.89 56.50 182.14 57.69L182.04 57.58L182.37 57.10L182.42 57.15Q182.51 56.81 182.70 56.62L182.71 56.63L182.66 56.58Q183.38 55.55 184.56 53.36L184.55 53.34L184.58 53.37Q175.72 57.02 166.27 56.64L166.31 56.68L166.28 56.65Q156.46 56.28 148.65 51.40L148.60 51.36L148.67 51.43Q150.35 54.48 151.73 58.86L151.81 58.94L151.69 58.82Q153.50 59.88 154.81 60.38L154.84 60.40L154.83 60.39Q155.21 61.09 155.96 64.15L155.85 64.04L155.91 64.10Q161.10 66.17 170.17 65.92L170.13 65.88L170.14 65.88Q169.64 66.83 166.39 73.02L166.45 73.08L166.38 73.01Q162.97 72.97 159.72 72.66L159.72 72.66L159.78 72.73Q159.86 74.05 159.86 75.49L159.94 75.58L159.89 78.34L162.65 78.35L162.53 80.55L162.65 80.66Q156.13 92.72 151.57 98.60L151.56 98.59L151.53 98.56Q154.21 97.36 156.90 96.55L156.87 96.52L156.93 96.58Q155.80 98.08 153.55 100.89L153.48 100.82L153.47 100.82Q158.83 99.17 162.83 98.79L162.82 98.78L162.70 98.67Q167.52 92.47 172.65 81.34L172.75 81.44L178.35 81.73L178.37 81.75Q178.21 80.21 178.21 78.71L178.13 78.63L178.18 75.74L178.12 75.69Q177.66 75.66 176.76 75.73L176.78 75.75L176.91 75.88Q175.96 75.90 175.52 75.90L175.42 75.79L175.48 75.86Q175.47 75.66 175.54 75.41L175.55 75.43L175.50 74.93L175.65 75.09Q179.73 66.59 184.79 58.96Z"/><path d="M17 106 C181 61,180 36,339 103" stroke="#8362e3" fill="none"/><path d="M17 35 C166 70,166 16,334 65" stroke="#ebc556" fill="none"/><path d="M5 10 C181 13,175 19,323 53" stroke="#d7b44b" fill="none"/><path d="M17 22 C182 103,151 65,334 57" stroke="#9342e5" fill="none"/><path d="M7 41 C191 137,159 75,340 63" stroke="#7aaddf" fill="none"/><path d="M17 109 C161 47,169 100,332 24" stroke="#eb60eb" fill="none"/><path d="M14 77 C172 103,179 97,337 13" stroke="#77eded" fill="none"/><path d="M6 58 C180 25,186 14,331 48" stroke="#6adcdc" fill="none"/><path d="M9 18 C187 82,169 119,336 78" stroke="#db6bbf" fill="none"/></svg>