<svg xmlns="http://www.w3.org/2000/svg" width="342" height="140" viewBox="0,0,342,140"><path d="M17 102 C168 70,168 30,324 95" stroke="#dfdf61" fill="none"/><path d="M13 7 C163 93,170 124,329 129" stroke="#6a86dc" fill="none"/><path d="M13 28 C176 57,188 21,339 73" stroke="#e448e4" fill="none"/><path d="M6 51 C188 133,155 116,328 40" stroke="#5ae67d" fill="none"/><path fill="#ed7272" d="M64.27 89.59L64.28 89.60L64.34 89.66Q64.77 91.13 65.58 94.19L65.59 94.21L65.52 94.14Q59.21 92.22 52.22 92.63L52.15 92.55L52.18 92.58Q45.14 92.88 39.07 95.89L39.10 95.91L39.21 96.03Q39.53 94.96 39.59 95.08L39.49 94.97L39.63 95.11Q45.26 89.07 51.21 82.37L51.15 82.31L51.13 82.29Q57.79 74.68 59.58 67.57L59.56 67.55L59.56 67.55Q60.24 64.88 58.30 63.09L58.41 63.19L58.40 63.18Q56.51 61.44 53.80 61.67L53.69 61.56L53.77 61.64Q53.20 61.54 52.68 61.54L52.61 61.47L52.68 61.54Q50.46 61.63 48.55 63.01L48.40 62.86L48.43 62.89Q46.44 64.94 46.78 68.99L46.87 69.08L46.81 69.01Q44.20 68.60 42.35 67.90L42.24 67.79L42.39 67.95Q42.09 65.80 41.98 63.60L42.00 63.63L41.82 63.45Q41.80 61.06 42.72 59.32L42.62 59.22L42.75 59.35Q45.47 57.27 50.56 57.27L50.45 57.17L53.21 57.27L53.14 57.20Q56.72 57.37 58.17 57.55L58.09 57.47L58.05 57.43Q64.62 58.05 65.03 61.75L65.11 61.83L65.15 61.87Q65.19 62.66 65.07 63.87L65.05 63.85L65.01 63.81Q64.97 64.81 64.74 65.85L64.76 65.87L64.71 65.82Q62.38 78.28 50.88 88.68L50.80 88.60L50.81 88.62Q52.98 88.42 55.06 88.42L54.93 88.28L55.02 88.37Q59.93 88.38 64.27 89.59ZM63.41 57.99L63.31 57.89L63.42 58.00Q61.01 57.04 58.41 56.92L58.29 56.80L53.27 56.69L53.14 56.56Q46.36 56.14 43.01 57.82L43.03 57.84L42.96 57.77Q41.36 59.86 41.36 62.98L41.50 63.13L41.50 63.12Q41.59 64.26 42.06 68.54L41.89 68.37L41.95 68.43Q42.85 68.86 44.64 69.33L44.63 69.32L44.64 70.89L44.54 70.78Q44.49 71.49 44.61 72.30L44.57 72.26L44.64 72.33Q46.55 72.51 50.30 72.85L50.19 72.74L50.36 72.91Q50.21 72.24 50.21 71.72L50.13 71.64L50.19 71.70Q50.32 69.06 52.17 67.00L52.14 66.98L52.09 66.92Q53.95 64.88 56.66 65.06L56.56 64.96L56.70 65.09Q57.86 65.15 59.01 65.38L58.90 65.27L58.96 65.33Q59.06 65.83 59.17 66.47L59.24 66.54L59.15 66.44Q59.38 67.25 59.26 67.77L59.28 67.79L59.08 67.59Q57.20 74.84 50.50 82.18L50.55 82.23L50.47 82.15Q47.32 85.65 39.06 94.84L39.07 94.84L39.00 94.78Q38.71 96.05 38.19 96.91L38.30 97.02L38.30 97.02Q40.78 95.74 43.09 94.93L43.09 94.94L43.10 94.94Q41.81 95.62 40.36 97.87L40.53 98.04L40.46 97.97Q40.34 98.54 40.16 99.06L40.16 99.05L40.07 98.96Q47.42 95.80 55.74 96.09L55.82 96.17L55.84 96.19Q64.52 96.49 71.46 100.07L71.28 99.89L69.82 96.71L69.92 96.80Q68.82 94.66 68.41 93.45L68.44 93.48L68.46 93.49Q67.43 92.93 65.58 92.29L65.59 92.30L65.57 92.28Q65.21 91.05 64.63 88.97L64.73 89.07L64.69 89.03Q61.28 88.10 57.81 87.82L57.84 87.85L57.94 87.95Q64.95 80.91 67.26 68.37L67.42 68.53L67.64 64.07L67.53 63.96Q67.59 61.42 65.74 60.38L65.66 60.30L65.51 60.21L65.55 60.24Q65.46 60.10 65.35 60.10L65.38 60.14L65.37 60.12Q65.03 58.86 63.36 57.94Z"/><path d="M7 12 C150 3,165 47,321 31" stroke="#a8eb65" fill="none"/><path fill="#55d755" d="M159.71 82.16L159.56 82.01L159.56 82.01Q164.24 81.43 169.09 81.60L169.19 81.70L169.22 81.73Q169.07 77.77 169.07 74.13L169.08 74.13L169.01 74.07Q169.03 70.33 169.32 66.46L169.34 66.48L169.37 66.51Q167.58 69.16 159.66 82.11ZM174.67 93.25L174.56 93.14L174.75 93.33Q172.15 92.81 169.43 92.69L169.36 92.62L169.43 92.69Q169.19 89.15 169.01 85.39L169.02 85.40L168.84 85.22Q160.91 85.09 153.74 87.23L153.65 87.13L153.65 87.14Q153.92 86.48 154.21 84.98L154.08 84.85L154.12 84.89Q156.88 80.14 162.31 70.60L162.29 70.59L162.20 70.49Q166.67 63.17 171.87 57.28L171.85 57.26L171.94 57.34Q173.25 57.04 175.79 56.63L175.83 56.68L175.69 56.54Q172.85 66.35 172.85 77.04L172.82 77.01L172.92 77.11Q172.78 79.23 172.90 81.48L172.90 81.48L175.03 81.82L175.02 81.81Q175.79 81.71 176.71 81.89L176.89 82.06L176.85 82.03Q177.03 83.53 177.43 86.48L177.41 86.45L177.45 86.50Q175.57 86.06 173.31 85.77L173.27 85.72L173.32 85.78Q173.65 88.82 174.69 93.27ZM177.18 81.37L177.26 81.45L177.24 81.42Q176.91 81.28 176.62 81.28L176.53 81.18L176.14 81.36L175.98 81.21Q175.89 79.04 175.89 76.91L175.83 76.84L175.83 76.84Q175.83 67.14 178.95 58.01L179.07 58.13L178.98 58.03Q177.91 58.53 175.72 59.10L175.61 58.99L175.55 58.94Q176.06 57.95 176.76 55.81L176.72 55.77L176.70 55.75Q174.77 56.37 171.65 56.72L171.61 56.67L171.67 56.73Q165.73 63.33 157.81 77.54L157.79 77.52L160.83 71.83L160.94 71.94Q160.17 73.38 159.77 74.24L159.85 74.33L153.14 88.07L153.03 87.96Q154.06 87.78 155.80 87.20L155.73 87.14L155.54 87.52L155.63 87.61Q155.49 88.69 155.03 90.60L154.85 90.42L155.01 90.57Q161.15 88.46 168.49 88.75L168.59 88.84L168.48 88.73Q168.60 90.24 168.89 93.24L168.97 93.33L168.82 93.18Q170.50 93.24 172.12 93.41L172.15 93.44L172.10 93.40Q172.41 94.51 172.82 96.59L172.73 96.51L172.84 96.62Q175.73 96.97 180.30 98.36L180.26 98.31L180.11 98.17Q178.65 94.98 177.27 90.01L177.37 90.11L179.46 90.70L179.53 90.77Q180.49 91.03 181.53 91.55L181.62 91.65L181.60 91.62Q180.32 87.75 180.09 85.21L180.22 85.33L180.14 85.25Q179.28 85.03 177.55 84.69L177.58 84.71L177.45 84.58Q177.12 82.63 177.12 81.30ZM165.12 81.21L165.14 81.23L164.97 81.07Q166.18 79.15 168.55 75.28L168.51 75.24L168.54 75.28Q168.66 76.84 168.60 78.28L168.52 78.20L168.46 78.13Q168.60 79.78 168.65 81.22L168.67 81.24L168.61 81.18Q167.63 81.01 166.76 81.01L166.78 81.02L166.91 81.16Q166.03 81.20 165.11 81.20Z"/><path d="M7 129 C175 78,166 23,331 78" stroke="#6565e6" fill="none"/><path d="M16 4 C155 11,151 88,322 123" stroke="#f18383" fill="none"/><path d="M20 41 C165 122,184 91,335 78" stroke="#4e75e8" fill="none"/><path d="M21 3 C170 111,173 119,332 23" stroke="#72dec3" fill="none"/><path fill="#406ae7" d="M284.66 73.24L284.73 73.30L284.77 73.35Q285.98 73.34 288.11 73.11L288.06 73.05L288.09 73.08Q288.11 74.14 288.11 75.12L287.99 75.01L288.02 76.94L288.04 76.96Q286.68 76.87 285.41 76.99L285.52 77.10L285.52 77.10Q284.11 77.02 282.84 76.96L282.96 77.08L282.94 77.06Q278.56 86.37 273.36 93.36L273.44 93.45L273.41 93.42Q269.54 94.35 267.58 95.27L267.72 95.41L267.69 95.38Q273.86 86.65 278.48 77.11L278.51 77.14L274.48 77.10L274.56 77.17Q274.58 75.17 274.41 73.15L274.41 73.15L274.31 73.06Q277.20 73.28 280.32 73.28L280.32 73.29L283.13 67.60L283.18 67.65Q284.71 64.79 286.56 62.37L286.53 62.33L286.61 62.41Q284.21 62.62 281.79 62.62L281.79 62.62L281.68 62.51Q272.52 62.60 266.80 59.25L266.71 59.16L265.91 56.73L265.81 56.63Q265.26 55.34 264.69 54.01L264.81 54.13L264.68 54.00Q271.26 57.99 279.93 58.33L280.04 58.44L279.94 58.35Q287.88 58.83 295.68 55.83L295.53 55.68L295.66 55.81Q295.36 56.43 294.61 57.76L294.58 57.73L294.60 57.75Q289.05 64.92 284.72 73.29ZM296.98 59.78L296.95 59.75L298.41 56.65L298.50 56.74Q297.02 57.45 294.48 58.55L294.47 58.54L294.74 58.06L294.68 58.00Q294.88 57.80 295.06 57.63L295.10 57.67L295.19 57.76Q295.60 56.55 296.70 54.53L296.89 54.72L296.76 54.59Q288.78 58.17 280.05 57.82L280.02 57.79L279.91 57.68Q270.80 57.30 263.58 52.79L263.71 52.92L263.69 52.89Q265.11 55.59 266.39 59.64L266.55 59.80L266.52 59.77Q268.16 60.73 269.38 61.19L269.34 61.15L269.26 61.07Q269.54 61.63 270.23 64.47L270.26 64.49L270.23 64.47Q275.02 66.37 283.40 66.14L283.42 66.16L283.39 66.13Q283.00 67.06 279.99 72.78L280.04 72.83L279.92 72.71Q276.93 72.85 273.93 72.56L273.96 72.58L273.85 72.48Q274.06 73.84 274.06 75.17L273.97 75.08L274.04 77.75L276.47 77.64L276.60 79.91L276.43 79.74Q270.64 91.11 266.42 96.54L266.39 96.51L266.43 96.55Q268.85 95.38 271.33 94.63L271.27 94.57L271.34 94.64Q270.14 95.86 268.06 98.46L268.23 98.64L268.04 98.45Q272.99 96.92 276.69 96.58L276.63 96.52L276.54 96.43Q281.01 90.73 285.74 80.44L285.74 80.44L290.96 80.75L291.07 80.86Q290.93 79.44 290.93 78.05L290.95 78.08L290.85 75.26L290.86 75.27Q290.52 75.34 289.68 75.40L289.58 75.30L289.59 75.30Q288.78 75.39 288.38 75.39L288.44 75.46L288.44 75.45Q288.48 75.32 288.54 75.09L288.57 75.12L288.51 74.66L288.44 74.58Q292.34 66.87 297.02 59.82Z"/><path d="M20 49 C154 34,158 116,340 89" stroke="#6686e5" fill="none"/><path d="M17 11 C174 19,168 31,330 91" stroke="#e372c7" fill="none"/><path d="M13 114 C168 97,191 5,330 138" stroke="#d75555" fill="none"/><path d="M7 98 C164 60,157 48,327 60" stroke="#e66585" fill="none"/><path d="M17 106 C177 70,163 84,336 119" stroke="#3fb6de" fill="none"/><path d="M15 131 C155 119,191 130,338 124" stroke="#c9ea66" fill="none"/><path d="M3 79 C175 34,164 102,336 69" stroke="#7eafe1" fill="none"/><path fill="#bde056" d="M108.78 76.22L108.83 76.27L108.73 76.17Q106.09 76.13 104.21 78.30L104.22 78.31L104.23 78.32Q102.29 80.42 102.00 83.31L102.05 83.36L102.05 83.36Q101.70 86.48 103.35 87.96L103.23 87.83L103.23 87.84Q105.00 89.43 108.18 89.26L108.08 89.16L108.02 89.10Q111.23 88.90 112.91 87.86L112.87 87.82L112.88 87.83Q114.76 86.31 114.76 83.94L114.61 83.79L114.67 83.85Q114.72 83.32 114.61 82.75L114.65 82.78L114.61 82.75Q114.69 80.17 113.01 78.12L112.99 78.10L113.06 78.17Q111.31 76.04 108.77 76.21ZM108.15 93.10L108.25 93.21L108.23 93.19Q101.49 93.09 99.36 91.93L99.33 91.91L99.46 92.04Q97.88 90.86 97.59 88.26L97.47 88.14L97.44 88.12Q97.42 87.11 97.48 86.01L97.46 85.99L97.58 86.12Q97.74 84.60 97.74 83.91L97.76 83.93L97.64 83.80Q98.42 79.56 98.66 78.52L98.66 78.53L98.57 78.44Q99.36 75.58 100.63 73.44L100.52 73.34L100.61 73.43Q104.67 66.80 113.69 57.15L113.65 57.12L113.59 57.05Q117.69 56.64 121.04 55.43L120.97 55.37L121.11 55.50Q110.71 66.82 105.85 73.24L105.85 73.24L105.80 73.18Q107.32 72.45 109.28 72.45L109.34 72.51L109.30 72.47Q114.30 72.44 116.61 75.39L116.56 75.33L116.60 75.37Q118.71 77.94 119.23 83.32L119.16 83.25L119.16 83.25Q119.18 84.25 119.18 85.17L119.33 85.32L119.20 85.20Q119.27 90.00 115.92 91.62L115.85 91.56L115.82 91.53Q114.09 92.57 108.20 93.15ZM111.66 96.79L111.67 96.79L111.56 96.69Q113.53 96.63 116.53 96.75L116.53 96.75L116.63 96.85Q119.10 96.95 121.47 95.85L121.46 95.84L121.36 95.74Q123.18 94.67 123.18 91.95L123.13 91.90L123.07 91.84Q123.07 91.09 122.81 89.59L122.90 89.68L122.80 89.58Q122.69 88.22 122.69 87.53L122.60 87.45L122.58 87.42Q121.28 80.28 118.85 77.39L118.95 77.49L118.84 77.39Q118.66 77.15 118.43 76.80L118.45 76.82L118.09 76.57L117.93 76.47L117.94 76.48Q117.41 75.73 116.49 74.28L116.50 74.29L116.52 74.31Q115.15 72.89 112.15 72.20L112.08 72.13L111.99 72.04Q113.95 69.72 118.46 64.12L118.42 64.08L124.81 56.02L124.88 56.09Q122.46 57.37 118.82 58.53L118.83 58.54L118.86 58.57Q120.20 57.02 122.92 54.02L122.89 53.98L122.90 53.99Q119.29 55.64 113.39 56.51L113.35 56.46L113.33 56.44Q104.70 65.44 100.19 72.95L100.32 73.08L100.16 72.92Q97.88 76.76 97.01 86.24L97.03 86.26L97.09 86.32Q97.05 87.26 97.17 88.70L97.04 88.58L97.05 88.59Q97.12 91.20 98.80 92.59L98.89 92.69L98.86 92.65Q99.46 92.91 99.40 92.97L99.48 93.04L99.43 93.00Q99.97 94.34 101.18 94.97L101.25 95.04L101.11 94.90Q103.38 96.02 106.33 96.31L106.22 96.20L106.37 96.35Q106.39 96.37 111.71 96.83ZM111.26 79.68L111.34 79.77L111.23 79.65Q112.15 79.53 113.59 80.29L113.61 80.30L113.69 80.38Q114.14 81.75 114.14 82.74L114.07 82.67L114.16 82.76Q114.35 85.49 112.91 86.99L113.04 87.13L112.90 86.99Q111.37 88.17 108.19 88.64L108.09 88.53L108.10 88.55Q106.05 88.69 105.24 88.29L105.25 88.29L105.09 88.13Q104.86 87.50 104.86 87.03L104.86 87.03L104.77 86.95Q104.51 82.07 108.96 80.10L108.98 80.12L109.06 80.20Q110.13 79.60 111.28 79.71Z"/><path d="M14 97 C156 93,169 127,333 138" stroke="#7ae4af" fill="none"/><path d="M19 54 C171 136,178 33,338 12" stroke="#bb3ce5" fill="none"/><path d="M16 8 C160 124,166 46,341 73" stroke="#6986dd" fill="none"/><path d="M10 122 C177 27,173 74,334 85" stroke="#8b8be3" fill="none"/><path d="M9 111 C172 47,154 43,321 98" stroke="#e97f5c" fill="none"/><path d="M2 55 C179 20,192 79,322 21" stroke="#c5ea57" fill="none"/><path d="M18 110 C192 70,160 53,325 85" stroke="#78e778" fill="none"/><path d="M16 102 C161 9,162 69,336 138" stroke="#ed6ccd" fill="none"/><path d="M10 121 C187 85,155 106,326 55" stroke="#ea57c5" fill="none"/><path d="M12 132 C161 24,174 118,331 112" stroke="#6bdbbf" fill="none"/><path d="M5 3 C166 79,188 88,322 8" stroke="#e56fc8" fill="none"/><path d="M9 25 C154 10,159 2,334 125" stroke="#4fe7c1" fill="none"/><path d="M17 83 C160 29,166 131,324 9" stroke="#dc3b64" fill="none"/><path d="M11 105 C185 104,151 74,330 37" stroke="#45e2ba" fill="none"/><path d="M3 38 C187 41,168 12,322 126" stroke="#98e5e5" fill="none"/><path d="M17 134 C152 67,175 121,323 111" stroke="#c369e1" fill="none"/><path d="M17 103 C177 134,166 104,336 113" stroke="#869ee8" fill="none"/><path d="M17 31 C187 100,164 77,327 45" stroke="#4891d9" fill="none"/><path d="M9 4 C154 113,185 95,332 108" stroke="#d57352" fill="none"/><path d="M19 79 C160 90,169 51,332 59" stroke="#7de7e7" fill="none"/><path fill="#d64c91" d="M228.02 73.26L227.97 73.21L228.05 73.29Q229.21 73.23 231.34 73.00L231.42 73.07L231.45 73.10Q231.33 74.02 231.33 75.01L231.28 74.96L231.31 76.90L231.25 76.83Q230.02 76.88 228.75 76.99L228.72 76.96L228.85 77.09Q227.50 77.08 226.23 77.02L226.36 77.14L226.24 77.03Q221.99 86.47 216.79 93.46L216.76 93.44L216.83 93.50Q212.88 94.35 210.92 95.28L210.98 95.34L210.90 95.26Q217.24 86.69 221.86 77.15L221.74 77.03L217.78 77.06L217.74 77.02Q217.91 75.17 217.73 73.14L217.70 73.11L217.59 73.00Q220.49 73.24 223.61 73.24L223.75 73.38L226.46 67.60L226.46 67.60Q228.03 64.77 229.88 62.35L229.81 62.28L229.80 62.27Q227.56 62.63 225.14 62.63L225.18 62.68L225.17 62.66Q215.83 62.57 210.11 59.22L210.11 59.22L209.17 56.66L209.08 56.57Q208.59 55.33 208.01 54.00L208.14 54.13L208.09 54.09Q214.65 58.05 223.32 58.39L223.22 58.29L223.41 58.48Q231.05 58.67 238.85 55.67L238.89 55.70L239.01 55.82Q238.64 56.38 237.89 57.71L237.93 57.74L237.88 57.70Q232.32 64.84 227.98 73.22ZM240.38 59.85L240.40 59.87L241.86 56.76L241.77 56.67Q240.29 57.39 237.75 58.49L237.77 58.51L238.05 58.04L238.04 58.03Q238.21 57.80 238.39 57.62L238.53 57.77L238.36 57.60Q238.94 56.56 240.03 54.53L240.19 54.69L240.11 54.61Q232.06 58.11 223.33 57.76L223.35 57.78L223.36 57.79Q214.27 57.43 207.05 52.92L207.02 52.90L207.03 52.91Q208.46 55.61 209.73 59.65L209.83 59.75L209.74 59.66Q211.51 60.74 212.72 61.20L212.59 61.06L212.67 61.14Q212.89 61.66 213.59 64.49L213.66 64.56L213.64 64.55Q218.50 66.52 226.88 66.28L226.76 66.16L226.76 66.17Q226.42 67.15 223.41 72.87L223.37 72.83L223.26 72.72Q220.24 72.82 217.24 72.53L217.15 72.45L217.14 72.44Q217.21 73.67 217.21 74.99L217.36 75.14L217.29 77.67L219.78 77.62L219.76 79.74L219.83 79.81Q213.96 91.10 209.74 96.53L209.73 96.51L209.77 96.56Q212.06 95.27 214.55 94.52L214.55 94.51L214.53 94.50Q213.58 95.97 211.50 98.57L211.56 98.64L211.48 98.55Q216.23 96.83 219.93 96.49L219.93 96.49L219.96 96.51Q224.43 90.82 229.17 80.53L229.23 80.60L234.33 80.78L234.34 80.80Q234.29 79.47 234.29 78.09L234.22 78.02L234.23 75.31L234.17 75.25Q233.86 75.35 233.02 75.40L232.93 75.31L232.99 75.37Q232.07 75.34 231.66 75.34L231.78 75.46L231.66 75.34Q231.72 75.23 231.78 75.00L231.81 75.03L231.86 74.67L231.80 74.61Q235.62 66.82 240.30 59.77Z"/><path d="M20 4 C166 128,189 1,329 38" stroke="#ce89e6" fill="none"/><path d="M14 106 C162 99,170 5,329 110" stroke="#d24646" fill="none"/><path d="M4 111 C161 55,188 52,326 92" stroke="#f07e7e" fill="none"/><path d="M6 93 C150 85,186 24,332 83" stroke="#9e50eb" fill="none"/></svg>