<svg xmlns="http://www.w3.org/2000/svg" width="342" height="140" viewBox="0,0,342,140"><path d="M10 57 C180 96,165 118,329 110" stroke="#83e1e1" fill="none"/><path fill="#e78ce7" d="M161.58 92.99L161.64 93.05L161.72 93.13Q155.53 93.39 154.04 89.90L154.00 89.86L154.15 90.01Q155.15 88.44 157.49 85.76L157.47 85.74L157.57 85.83Q158.32 88.87 162.83 89.04L162.85 89.06L162.85 89.06Q167.82 89.06 170.28 87.06L170.30 87.09L170.40 87.18Q172.41 84.69 172.30 80.64L172.25 80.59L172.35 80.69Q172.20 73.17 165.01 73.52L164.93 73.44L164.82 73.33Q160.70 73.66 158.07 75.55L158.02 75.49L157.57 75.27L157.30 75.12L157.31 75.12Q157.79 70.35 157.62 66.24L157.60 66.22L157.62 66.25Q157.52 62.37 157.00 57.40L156.91 57.31L156.90 57.30Q162.49 58.83 168.20 58.66L168.09 58.56L168.13 58.59Q173.91 58.55 179.28 56.67L179.19 56.58L178.30 58.83L178.24 58.77Q177.88 60.01 177.60 61.27L177.61 61.27L177.59 61.26Q172.85 62.74 167.02 62.74L167.00 62.72L167.05 62.76Q164.89 62.77 162.66 62.55L162.59 62.48L162.63 62.51Q162.61 63.64 162.10 70.32L162.09 70.32L162.10 70.32Q163.41 69.69 166.49 69.46L166.46 69.43L166.36 69.33Q172.03 69.74 174.20 72.26L174.15 72.21L174.14 72.20Q176.25 74.54 176.65 80.31L176.54 80.20L176.71 80.37Q177.11 86.64 175.28 89.67L175.24 89.63L175.20 89.59Q172.26 92.53 167.29 92.87L167.14 92.72L167.12 92.70Q165.72 92.90 161.72 93.13ZM170.67 96.43L170.81 96.57L170.77 96.53Q175.87 96.60 178.72 94.94L178.80 95.02L178.81 95.02Q180.26 92.71 180.26 89.57L180.14 89.45L180.21 89.52Q180.12 84.81 178.70 78.64L178.84 78.78L178.71 78.66Q178.24 76.13 176.41 74.01L176.34 73.94L176.38 74.04L176.17 73.71L175.55 73.33L175.54 73.31Q175.15 72.30 174.18 71.27L174.16 71.24L174.22 71.36L174.22 71.36Q171.89 68.81 166.35 68.81L166.28 68.74L165.93 68.78L166.03 68.89Q165.98 67.86 166.26 66.20L166.35 66.29L166.36 66.30Q173.90 66.53 179.95 64.08L179.78 63.90L179.85 63.98Q180.51 61.89 181.94 57.67L181.98 57.71L178.85 59.15L178.75 59.05Q179.33 57.35 180.07 55.63L180.15 55.71L180.13 55.69Q174.40 57.90 168.23 58.01L168.18 57.95L168.11 57.89Q162.10 58.21 156.16 56.56L156.00 56.40L155.99 56.39Q157.02 63.02 157.02 69.64L157.19 69.81L157.15 69.77Q157.12 72.60 156.95 75.45L156.88 75.38L156.88 75.39Q157.41 75.80 158.27 76.26L158.10 76.09L158.21 76.19Q158.76 75.90 159.73 75.38L159.65 75.29L159.67 75.32Q159.63 76.47 159.28 78.76L159.29 78.76L159.32 78.79Q159.99 79.12 160.62 79.46L160.44 79.28L160.60 79.45Q164.64 76.69 167.44 76.69L167.47 76.72L167.44 76.69Q169.51 76.76 171.28 77.73L171.31 77.76L171.16 77.62Q171.81 79.29 171.87 80.72L171.90 80.75L171.83 80.68Q171.87 84.49 170.33 86.15L170.32 86.14L170.33 86.15Q168.25 87.95 164.88 88.30L164.97 88.38L164.92 88.33Q163.64 88.60 162.61 88.48L162.58 88.45L162.54 88.41Q161.34 88.29 160.20 87.78L160.14 87.72L159.97 87.27L159.93 87.56L159.96 87.60Q158.60 86.69 157.80 84.69L157.84 84.74L157.83 84.73Q155.83 86.84 153.32 90.03L153.35 90.07L153.47 90.19Q153.75 90.98 155.01 92.41L155.12 92.53L155.17 92.57Q156.62 95.16 160.84 95.91L160.83 95.89L160.85 95.91Q162.61 96.25 170.67 96.42Z"/><path d="M12 36 C171 99,187 29,327 136" stroke="#e86888" fill="none"/><path d="M10 120 C153 123,171 70,330 48" stroke="#8cedbc" fill="none"/><path d="M4 80 C175 61,179 16,325 105" stroke="#3c91e5" fill="none"/><path d="M18 100 C191 68,163 123,336 48" stroke="#a360e6" fill="none"/><path d="M20 106 C150 93,187 6,335 100" stroke="#529ee9" fill="none"/><path d="M8 58 C153 6,185 67,332 61" stroke="#eb7979" fill="none"/><path d="M5 35 C181 121,184 50,326 139" stroke="#d9b958" fill="none"/><path d="M13 12 C170 103,184 33,330 31" stroke="#e25959" fill="none"/><path d="M4 133 C182 5,167 101,328 89" stroke="#62e362" fill="none"/><path d="M18 50 C157 127,165 68,328 58" stroke="#61e5a3" fill="none"/><path d="M3 138 C183 76,164 78,334 80" stroke="#e94899" fill="none"/><path d="M16 94 C167 40,181 16,340 27" stroke="#e34ee3" fill="none"/><path d="M20 138 C186 77,171 117,328 27" stroke="#4ce54c" fill="none"/><path d="M7 116 C169 135,165 2,323 119" stroke="#a56ddd" fill="none"/><path d="M6 59 C191 94,154 78,323 34" stroke="#8ceca4" fill="none"/><path d="M20 35 C162 3,167 33,338 36" stroke="#db6bbf" fill="none"/><path d="M17 83 C173 91,159 26,332 80" stroke="#eb6565" fill="none"/><path d="M5 85 C181 126,160 17,326 80" stroke="#cc7ee6" fill="none"/><path d="M18 57 C171 105,157 8,332 76" stroke="#66e566" fill="none"/><path d="M12 68 C182 21,163 67,336 9" stroke="#d75576" fill="none"/><path d="M10 32 C165 46,188 96,328 127" stroke="#dbbd66" fill="none"/><path d="M7 129 C164 28,152 97,341 111" stroke="#db4c93" fill="none"/><path d="M17 117 C189 44,185 85,338 23" stroke="#33e433" fill="none"/><path d="M10 101 C188 16,183 3,332 24" stroke="#e49e57" fill="none"/><path d="M9 111 C155 58,162 38,339 47" stroke="#748fe0" fill="none"/><path d="M5 4 C190 79,184 27,335 79" stroke="#9ed962" fill="none"/><path d="M5 114 C189 106,183 118,333 71" stroke="#52e978" fill="none"/><path d="M1 129 C184 130,170 137,322 7" stroke="#63e7c6" fill="none"/><path d="M15 54 C175 137,152 126,323 87" stroke="#e34444" fill="none"/><path d="M14 122 C150 42,170 10,332 122" stroke="#7757d5" fill="none"/><path d="M19 137 C169 130,162 111,330 27" stroke="#426be5" fill="none"/><path fill="#b2eb79" d="M64.19 89.37L64.08 89.26L64.22 89.40Q64.59 90.80 65.39 93.83L65.36 93.80L65.37 93.81Q59.04 91.82 52.13 92.22L52.17 92.25L52.15 92.24Q45.29 92.63 39.30 95.60L39.25 95.55L39.43 95.73Q39.59 94.53 39.65 94.64L39.83 94.82L39.68 94.67Q45.26 88.72 51.15 82.10L51.27 82.22L51.22 82.17Q57.89 74.74 59.67 67.72L59.54 67.59L59.62 67.67Q60.21 64.95 58.30 63.18L58.33 63.21L58.37 63.25Q56.42 61.45 53.74 61.67L53.82 61.76L53.84 61.77Q53.19 61.58 52.68 61.58L52.75 61.66L52.68 61.59Q50.43 61.62 48.55 62.99L48.62 63.07L48.64 63.08Q46.66 65.10 47.00 69.10L46.91 69.01L46.98 69.08Q44.34 68.61 42.52 67.93L42.50 67.91L42.39 67.80Q42.25 65.84 42.14 63.67L41.99 63.51L42.12 63.65Q41.90 61.09 42.82 59.38L42.82 59.38L42.81 59.37Q45.48 57.30 50.50 57.30L50.49 57.28L53.31 57.48L53.13 57.30Q56.67 57.47 58.10 57.64L58.10 57.64L58.04 57.58Q64.67 58.33 65.07 61.99L64.99 61.90L64.90 61.81Q65.18 62.84 65.07 64.04L65.00 63.97L64.88 63.85Q64.94 64.94 64.71 65.97L64.73 65.98L64.76 66.02Q62.25 78.13 50.89 88.40L50.88 88.40L50.79 88.30Q53.04 88.21 55.09 88.21L55.06 88.18L55.10 88.22Q59.94 88.20 64.22 89.40ZM63.35 58.15L63.29 58.09L63.33 58.14Q60.82 57.05 58.25 56.94L58.42 57.10L53.29 56.83L53.23 56.77Q46.53 56.35 43.21 58.00L43.21 58.00L43.12 57.91Q41.61 60.06 41.61 63.14L41.58 63.10L41.57 63.10Q41.73 64.28 42.18 68.51L42.16 68.49L42.13 68.45Q43.02 68.89 44.79 69.35L44.64 69.20L44.70 70.80L44.62 70.72Q44.66 71.50 44.78 72.30L44.84 72.36L44.71 72.23Q46.58 72.39 50.29 72.73L50.43 72.87L50.34 72.78Q50.23 72.15 50.23 71.64L50.21 71.63L50.21 71.62Q50.20 68.88 52.03 66.85L52.20 67.02L52.08 66.90Q54.04 65.01 56.73 65.18L56.64 65.09L56.58 65.03Q57.79 65.15 58.93 65.38L58.93 65.39L58.89 65.34Q59.02 65.87 59.14 66.50L59.26 66.63L59.17 66.53Q59.29 67.23 59.17 67.74L59.20 67.76L59.08 67.65Q57.22 74.80 50.59 82.06L50.67 82.13L50.56 82.02Q47.52 85.55 39.36 94.63L39.19 94.47L39.27 94.55Q38.97 95.79 38.46 96.65L38.38 96.57L38.43 96.62Q40.90 95.38 43.19 94.58L43.22 94.61L43.18 94.57Q42.05 95.39 40.63 97.61L40.69 97.68L40.65 97.64Q40.57 98.25 40.40 98.76L40.35 98.71L40.27 98.63Q47.55 95.51 55.77 95.80L55.89 95.92L55.84 95.87Q64.31 96.06 71.16 99.60L71.18 99.62L69.75 96.47L69.73 96.45Q68.72 94.42 68.32 93.22L68.33 93.22L68.31 93.21Q67.33 92.68 65.50 92.05L65.36 91.91L65.48 92.03Q65.14 90.84 64.57 88.79L64.61 88.82L64.69 88.90Q61.31 87.97 57.88 87.69L57.90 87.70L57.92 87.73Q65.01 80.94 67.29 68.55L67.18 68.43L67.50 64.13L67.49 64.12Q67.34 61.40 65.51 60.37L65.51 60.37L65.40 60.32L65.48 60.40Q65.49 60.35 65.38 60.35L65.36 60.34L65.37 60.34Q64.88 58.95 63.23 58.03Z"/><path fill="#e390ba" d="M290.84 89.36L290.81 89.33L290.77 89.29Q291.38 90.92 292.18 93.95L292.05 93.82L292.07 93.84Q285.70 91.81 278.79 92.21L278.77 92.19L278.88 92.30Q272.01 92.68 266.01 95.65L266.00 95.64L266.03 95.66Q266.44 94.71 266.50 94.82L266.47 94.80L266.34 94.67Q271.94 88.73 277.83 82.11L277.82 82.10L277.91 82.20Q284.45 74.63 286.22 67.61L286.36 67.75L286.31 67.69Q286.87 64.95 284.96 63.18L285.14 63.36L285.13 63.34Q283.20 61.56 280.51 61.79L280.41 61.68L280.46 61.73Q279.89 61.61 279.37 61.61L279.40 61.65L279.35 61.59Q277.11 61.64 275.23 63.01L275.20 62.98L275.17 62.95Q273.39 65.17 273.74 69.17L273.64 69.08L273.73 69.16Q270.97 68.57 269.14 67.89L269.12 67.87L269.15 67.90Q268.81 65.73 268.70 63.56L268.83 63.69L268.73 63.59Q268.72 61.24 269.63 59.52L269.52 59.42L269.58 59.47Q272.19 57.35 277.22 57.35L277.33 57.45L279.82 57.32L279.91 57.41Q283.30 57.43 284.73 57.60L284.74 57.61L284.74 57.61Q291.16 58.15 291.56 61.81L291.69 61.94L291.72 61.97Q291.67 62.67 291.56 63.86L291.59 63.89L291.55 63.86Q291.67 65.01 291.45 66.03L291.39 65.97L291.27 65.86Q288.91 78.12 277.55 88.40L277.57 88.42L277.63 88.48Q279.70 88.21 281.76 88.21L281.68 88.14L281.69 88.15Q286.64 88.24 290.93 89.44ZM289.89 58.03L290.04 58.17L289.93 58.06Q287.62 57.18 285.05 57.07L285.05 57.07L279.79 56.66L279.96 56.84Q273.17 56.33 269.86 57.99L269.84 57.96L269.88 58.01Q268.22 60.00 268.22 63.08L268.30 63.16L268.22 63.08Q268.32 64.21 268.78 68.44L268.71 68.37L268.77 68.42Q269.58 68.78 271.35 69.24L271.36 69.25L271.39 70.82L271.40 70.83Q271.39 71.56 271.50 72.36L271.42 72.27L271.51 72.36Q273.38 72.53 277.09 72.87L276.97 72.74L276.96 72.73Q276.88 72.14 276.88 71.63L277.06 71.81L276.89 71.64Q277.05 69.06 278.88 67.03L278.71 66.86L278.85 67.00Q280.53 64.83 283.22 65.00L283.36 65.15L283.38 65.17Q284.41 65.11 285.55 65.34L285.52 65.31L285.68 65.47Q285.80 65.99 285.92 66.62L285.93 66.63L285.92 66.62Q285.95 67.23 285.84 67.74L285.87 67.76L285.88 67.78Q283.95 74.87 277.33 82.13L277.24 82.03L277.27 82.07Q274.20 85.56 266.03 94.64L266.03 94.64L266.01 94.62Q265.71 95.86 265.20 96.72L265.08 96.60L265.16 96.69Q267.58 95.39 269.86 94.59L269.81 94.54L269.73 94.46Q268.82 95.49 267.39 97.72L267.29 97.61L267.24 97.56Q267.16 98.17 266.99 98.68L266.89 98.59L266.89 98.58Q274.19 95.49 282.41 95.78L282.47 95.83L282.41 95.78Q290.96 96.04 297.81 99.58L297.78 99.55L296.37 96.43L296.31 96.37Q295.37 94.40 294.97 93.21L295.10 93.33L295.01 93.24Q293.87 92.56 292.05 91.93L292.12 92.00L292.13 92.01Q291.80 90.83 291.23 88.77L291.25 88.80L291.26 88.80Q287.96 87.96 284.53 87.67L284.49 87.63L284.50 87.64Q291.55 80.82 293.84 68.43L293.94 68.53L294.21 64.18L294.09 64.05Q294.00 61.39 292.17 60.37L292.24 60.43L292.19 60.44L292.10 60.35Q292.04 60.23 291.92 60.23L291.92 60.22L291.89 60.19Q291.64 59.03 289.98 58.12Z"/><path d="M19 115 C185 10,160 108,339 14" stroke="#e77d98" fill="none"/><path d="M11 11 C167 61,191 41,336 82" stroke="#dcc06f" fill="none"/><path d="M9 37 C182 111,160 59,337 20" stroke="#d397e7" fill="none"/><path d="M17 115 C151 68,157 102,340 21" stroke="#e877af" fill="none"/><path d="M15 109 C192 37,156 113,336 95" stroke="#d84f4f" fill="none"/><path fill="#b77ff0" d="M108.85 76.17L108.85 76.17L108.90 76.22Q106.14 76.03 104.28 78.17L104.25 78.13L104.28 78.16Q102.49 80.37 102.20 83.22L102.13 83.15L102.17 83.20Q101.69 86.14 103.32 87.60L103.43 87.70L103.30 87.58Q105.01 89.11 108.15 88.94L108.19 88.99L108.22 89.01Q111.38 88.81 113.04 87.78L112.94 87.68L112.99 87.73Q114.61 85.98 114.61 83.63L114.65 83.68L114.64 83.67Q114.62 83.08 114.51 82.51L114.64 82.65L114.65 82.65Q114.66 80.03 113.00 78.01L112.95 77.96L113.04 78.04Q111.45 76.08 108.94 76.25ZM108.31 92.93L108.17 92.79L108.29 92.91Q101.67 92.85 99.56 91.71L99.46 91.62L99.51 91.67Q97.94 90.50 97.66 87.93L97.72 87.99L97.76 88.03Q97.74 87.05 97.80 85.96L97.79 85.95L97.73 85.89Q97.94 84.45 97.94 83.76L97.89 83.71L97.84 83.66Q98.66 79.51 98.88 78.48L98.84 78.44L98.81 78.40Q99.43 75.43 100.69 73.31L100.75 73.38L100.74 73.37Q104.66 66.73 113.57 57.19L113.62 57.24L113.65 57.27Q117.62 56.79 120.93 55.59L120.87 55.52L120.95 55.61Q110.70 66.82 105.90 73.16L105.80 73.06L105.95 73.21Q107.41 72.44 109.35 72.44L109.29 72.38L109.36 72.45Q114.25 72.37 116.53 75.28L116.52 75.27L116.50 75.25Q118.61 77.82 119.13 83.13L119.11 83.12L119.02 83.03Q119.11 84.08 119.11 85.00L119.24 85.12L119.19 85.08Q119.13 89.70 115.82 91.30L115.91 91.39L115.88 91.36Q114.00 92.22 108.17 92.79ZM111.66 96.45L111.73 96.52L111.67 96.46Q113.53 96.32 116.50 96.43L116.59 96.53L116.47 96.40Q119.02 96.61 121.36 95.53L121.28 95.45L121.28 95.45Q122.92 94.24 122.92 91.55L123.04 91.67L122.93 91.56Q123.10 90.99 122.84 89.50L122.69 89.35L122.69 89.35Q122.45 87.88 122.45 87.20L122.48 87.23L122.43 87.18Q121.13 80.11 118.73 77.25L118.83 77.36L118.73 77.26Q118.75 77.22 118.52 76.87L118.44 76.80L117.93 76.40L117.90 76.42L117.89 76.41Q117.42 75.71 116.50 74.28L116.51 74.29L116.39 74.17Q115.14 72.86 112.17 72.17L112.03 72.03L112.17 72.17Q113.91 69.69 118.36 64.15L118.29 64.08L124.68 56.19L124.64 56.15Q122.40 57.56 118.80 58.70L118.77 58.67L118.71 58.62Q120.21 57.27 122.90 54.30L122.94 54.34L122.87 54.27Q119.34 55.93 113.51 56.79L113.42 56.70L113.42 56.70Q104.92 65.61 100.47 73.04L100.35 72.92L100.45 73.02Q98.09 76.71 97.23 86.07L97.23 86.07L97.16 86.01Q97.21 87.03 97.33 88.46L97.30 88.43L97.26 88.39Q97.38 91.02 99.03 92.39L98.96 92.32L99.02 92.38Q99.67 92.69 99.62 92.74L99.51 92.63L99.47 92.60Q100.05 93.98 101.25 94.61L101.24 94.60L101.31 94.66Q103.57 95.78 106.48 96.07L106.45 96.04L106.47 96.06Q106.35 95.94 111.60 96.39ZM111.24 79.52L111.33 79.62L111.35 79.64Q112.15 79.41 113.58 80.15L113.58 80.16L113.62 80.19Q114.13 81.62 114.13 82.59L114.17 82.63L114.05 82.51Q114.45 85.42 113.02 86.91L112.97 86.85L112.94 86.82Q111.36 87.93 108.22 88.38L108.31 88.47L108.28 88.44Q106.07 88.40 105.27 88.00L105.24 87.98L105.23 87.96Q104.96 87.30 104.96 86.84L104.95 86.83L104.92 86.80Q104.57 81.88 108.96 79.94L109.05 80.02L108.99 79.96Q110.07 79.39 111.22 79.50Z"/><path d="M20 88 C188 49,154 130,321 129" stroke="#bb5adc" fill="none"/><path d="M10 20 C170 24,162 131,322 5" stroke="#dcbf6a" fill="none"/><path d="M1 103 C185 10,174 51,336 137" stroke="#64e439" fill="none"/><path fill="#ea7751" d="M217.34 92.99L217.32 92.97L217.35 93.00Q215.16 93.04 212.82 92.41L212.96 92.55L212.95 92.54Q211.02 91.07 210.79 88.62L210.86 88.69L210.94 88.77Q210.85 88.44 211.13 84.50L211.07 84.44L211.13 84.50Q212.59 84.13 215.61 83.56L215.73 83.68L215.42 84.79L215.44 84.81Q215.03 87.43 217.14 88.28L217.17 88.31L217.08 88.22Q218.37 88.83 221.51 88.83L221.50 88.81L221.47 88.79Q223.89 88.58 224.18 88.47L224.07 88.36L224.10 88.39Q225.51 88.20 226.59 87.46L226.58 87.44L226.54 87.41Q228.72 86.05 228.44 82.90L228.41 82.88L228.43 82.90Q228.12 79.22 225.52 76.88L225.46 76.81L225.51 76.86Q222.90 74.51 219.19 74.51L219.28 74.60L219.21 74.20L219.17 74.15Q219.80 74.15 221.11 74.04L221.11 74.04L220.97 73.90Q223.84 73.75 225.90 71.89L225.90 71.89L225.89 71.88Q227.98 70.06 228.21 67.26L228.26 67.31L228.23 67.29Q228.45 66.87 228.45 66.36L228.37 66.28L228.45 66.36Q228.41 64.04 226.36 62.67L226.39 62.70L226.23 62.54Q224.52 61.46 222.12 61.63L222.03 61.54L222.16 61.66Q220.15 61.37 218.32 62.00L218.27 61.94L218.42 62.09Q216.19 62.84 215.74 64.55L215.78 64.60L215.63 64.44Q215.51 65.75 215.63 66.90L215.47 66.74L215.49 66.76Q214.03 66.50 210.95 65.42L210.97 65.43L210.94 65.41Q210.55 62.85 210.60 61.59L210.67 61.65L210.56 61.54Q210.79 59.32 212.39 58.29L212.40 58.31L212.38 58.28Q214.43 57.31 216.83 57.31L216.95 57.43L216.97 57.45Q221.64 57.32 226.38 57.72L226.32 57.66L226.45 57.80Q233.89 58.27 233.43 63.92L233.46 63.94L233.56 64.04Q233.48 66.30 232.74 68.65L232.72 68.63L232.75 68.66Q231.34 73.24 227.80 74.61L227.72 74.54L227.72 74.54Q231.64 75.32 232.56 80.34L232.62 80.41L232.64 80.42Q233.00 82.16 233.12 85.19L233.05 85.12L233.13 85.20Q233.29 91.81 226.38 92.50L226.29 92.41L226.43 92.55Q225.26 92.58 217.32 92.98ZM225.23 96.43L225.22 96.42L225.16 96.36Q226.12 96.46 230.40 96.58L230.43 96.61L230.31 96.49Q233.10 96.77 235.56 95.80L235.55 95.78L235.44 95.68Q237.24 94.27 236.95 91.65L236.94 91.64L236.92 91.62Q236.78 89.65 236.32 87.02L236.33 87.03L236.40 87.10Q235.26 80.30 232.35 77.85L232.26 77.77L231.98 77.20L231.94 77.10L232.03 77.19Q234.59 74.95 235.73 68.39L235.65 68.30L235.85 68.50Q235.81 67.72 235.98 66.29L236.07 66.38L235.96 66.27Q236.01 65.07 235.89 64.04L235.94 64.08L235.93 64.07Q235.74 61.60 233.80 60.58L233.72 60.49L233.60 60.49L233.75 60.63Q233.18 59.04 231.47 58.24L231.58 58.35L231.46 58.23Q229.29 57.32 221.58 56.86L221.49 56.78L221.58 56.87Q218.93 56.61 216.53 56.61L216.70 56.78L216.64 56.72Q214.25 56.72 211.96 57.69L212.01 57.74L211.86 57.60Q210.05 58.75 210.05 61.38L210.05 61.37L210.14 61.46Q210.02 60.72 210.42 65.74L210.43 65.76L210.58 65.91Q211.00 65.98 213.46 66.90L213.33 66.77L213.50 66.94Q213.35 67.59 213.29 68.33L213.29 68.33L213.28 68.32Q213.31 69.09 213.37 69.89L213.47 69.99L213.40 69.93Q216.15 70.56 219.17 70.73L219.11 70.67L219.19 70.75Q219.07 67.72 220.73 66.46L220.62 66.36L220.69 66.42Q221.99 65.49 225.01 65.15L224.93 65.07L224.98 65.12Q226.67 65.09 227.53 65.38L227.62 65.47L227.55 65.40Q227.68 65.64 227.73 65.81L227.61 65.69L227.73 66.10L227.75 66.80L227.89 66.94Q227.81 67.15 227.75 67.37L227.78 67.41L227.85 67.47Q227.58 69.88 225.29 71.65L225.32 71.68L225.31 71.67Q223.96 73.06 220.94 73.35L220.97 73.38L221.05 73.46Q219.85 73.57 218.53 73.57L218.64 73.68L218.57 73.61Q218.67 74.17 218.90 75.19L218.75 75.05L218.90 75.20Q221.56 75.23 223.73 76.32L223.60 76.18L223.48 76.23L221.22 76.60L221.03 76.41Q221.14 76.98 221.31 77.89L221.39 77.97L221.39 77.97Q224.58 77.85 227.15 79.85L227.07 79.77L227.04 79.74Q227.42 80.35 227.88 82.80L227.87 82.80L227.87 82.80Q228.15 87.19 223.76 87.82L223.75 87.81L223.84 87.91Q220.72 88.32 219.86 88.27L219.88 88.29L219.82 88.22Q219.08 88.00 218.28 87.88L218.30 87.90L218.25 87.16L218.59 86.65L218.63 86.06L218.65 85.57L218.52 85.44Q217.19 85.65 215.99 85.93L216.03 85.97L215.97 85.91Q216.00 85.66 216.00 85.37L215.84 85.21L215.97 85.35Q215.93 84.96 215.93 84.62L215.93 84.62L215.93 84.62Q215.95 83.95 216.17 82.86L216.30 82.99L216.35 83.04Q213.50 83.33 210.71 83.85L210.61 83.75L210.59 83.74Q210.75 84.64 210.58 86.32L210.53 86.27L210.47 86.21Q210.36 87.95 210.36 88.87L210.36 88.87L210.42 88.92Q210.52 92.00 212.58 93.14L212.58 93.14L212.43 93.00Q214.66 96.43 221.74 96.14L221.90 96.30L221.86 96.25Q222.98 96.23 225.26 96.46Z"/></svg>