<svg xmlns="http://www.w3.org/2000/svg" width="342" height="140" viewBox="0,0,342,140"><path d="M14 30 C170 75,179 12,334 15" stroke="#6ed64c" fill="none"/><path d="M1 67 C156 23,184 54,337 54" stroke="#6cdaa3" fill="none"/><path d="M9 94 C168 93,181 15,341 102" stroke="#52da52" fill="none"/><path d="M19 137 C153 8,176 125,330 108" stroke="#e584cd" fill="none"/><path d="M10 27 C155 62,183 54,331 82" stroke="#6cedad" fill="none"/><path d="M19 113 C167 14,156 62,324 78" stroke="#8a8aef" fill="none"/><path d="M14 63 C190 8,156 47,323 83" stroke="#77cce8" fill="none"/><path fill="#849de5" d="M75.33 88.90L75.34 88.91L75.31 88.88Q75.79 90.36 76.57 93.32L76.46 93.21L76.56 93.31Q70.31 91.29 63.56 91.68L63.61 91.73L63.53 91.64Q56.91 92.11 51.06 95.01L51.02 94.97L51.17 95.12Q51.39 94.00 51.44 94.11L51.44 94.10L51.40 94.06Q56.85 88.25 62.59 81.79L62.76 81.96L62.73 81.92Q69.18 74.60 70.90 67.75L70.80 67.64L70.94 67.78Q71.56 65.17 69.69 63.44L69.71 63.46L69.70 63.45Q67.85 61.74 65.23 61.97L65.10 61.84L65.17 61.91Q64.63 61.81 64.13 61.81L64.22 61.90L64.17 61.85Q62.00 61.91 60.16 63.24L60.15 63.24L60.17 63.26Q58.29 65.27 58.62 69.18L58.48 69.04L58.57 69.12Q55.94 68.61 54.16 67.95L54.11 67.90L54.14 67.93Q53.94 65.95 53.83 63.83L53.82 63.82L53.80 63.80Q53.65 61.36 54.54 59.69L54.59 59.74L54.48 59.63Q57.12 57.64 62.02 57.64L62.03 57.65L64.71 57.76L64.63 57.68Q68.03 57.79 69.42 57.96L69.44 57.98L69.27 57.81Q75.76 58.55 76.15 62.12L76.07 62.04L76.12 62.09Q76.28 62.98 76.17 64.15L76.07 64.05L76.07 64.05Q75.98 64.96 75.76 65.97L75.77 65.98L75.91 66.12Q73.44 77.93 62.35 87.96L62.31 87.92L62.36 87.97Q64.42 87.75 66.43 87.75L66.42 87.73L66.45 87.76Q71.15 87.73 75.34 88.90ZM74.51 58.43L74.52 58.43L74.41 58.32Q72.06 57.36 69.55 57.25L69.69 57.39L64.54 56.98L64.55 56.99Q58.08 56.65 54.84 58.26L54.87 58.29L54.84 58.26Q53.30 60.29 53.30 63.30L53.34 63.34L53.38 63.38Q53.45 64.45 53.90 68.58L53.86 68.55L53.76 68.44Q54.63 68.86 56.36 69.31L56.38 69.33L56.24 70.70L56.24 70.70Q56.21 71.40 56.32 72.18L56.39 72.24L56.30 72.15Q58.15 72.33 61.78 72.67L61.82 72.71L61.92 72.81Q61.78 72.17 61.78 71.66L61.70 71.59L61.85 71.74Q61.79 69.00 63.57 67.02L63.52 66.97L63.52 66.97Q65.36 65.05 67.98 65.21L67.99 65.23L67.90 65.13Q69.18 65.35 70.29 65.57L70.20 65.48L70.21 65.50Q70.47 66.14 70.58 66.76L70.48 66.65L70.44 66.61Q70.46 67.19 70.35 67.69L70.46 67.81L70.36 67.70Q68.50 74.65 62.03 81.73L62.20 81.90L62.13 81.83Q58.95 85.05 50.97 93.92L51.11 94.05L51.12 94.06Q50.67 95.12 50.17 95.95L50.26 96.04L50.21 96.00Q52.50 94.67 54.73 93.89L54.73 93.88L54.84 93.99Q53.76 94.81 52.37 96.98L52.30 96.92L52.38 97.00Q52.15 97.44 51.99 97.94L51.98 97.94L52.09 98.05Q59.19 95.00 67.22 95.28L67.21 95.27L67.27 95.33Q75.44 95.42 82.13 98.87L82.12 98.87L80.71 95.78L80.65 95.73Q79.73 93.80 79.34 92.63L79.33 92.62L79.50 92.79Q78.25 91.99 76.47 91.37L76.49 91.40L76.51 91.41Q76.37 90.44 75.81 88.43L75.84 88.46L75.88 88.49Q72.45 87.47 69.10 87.19L69.21 87.30L69.14 87.22Q76.06 80.60 78.29 68.50L78.21 68.42L78.48 64.18L78.63 64.33Q78.54 61.73 76.76 60.73L76.69 60.66L76.53 60.55L76.68 60.70Q76.48 60.45 76.37 60.45L76.50 60.58L76.35 60.43Q76.13 59.32 74.52 58.43Z"/><path d="M8 50 C181 107,187 114,335 90" stroke="#60c8eb" fill="none"/><path d="M9 77 C172 89,188 37,335 22" stroke="#a568e3" fill="none"/><path fill="#47df6d" d="M137.37 73.21L137.44 73.28L137.38 73.22Q138.52 73.19 140.58 72.97L140.56 72.95L140.53 72.91Q140.44 73.82 140.44 74.77L140.49 74.82L140.51 76.68L140.51 76.68Q139.25 76.65 138.02 76.76L138.10 76.84L138.10 76.84Q136.88 76.90 135.65 76.84L135.60 76.79L135.59 76.78Q131.47 85.88 126.46 92.62L126.42 92.58L126.41 92.58Q122.69 93.48 120.79 94.37L120.90 94.48L120.76 94.34Q126.81 86.01 131.27 76.81L131.35 76.88L127.45 76.83L127.55 76.93Q127.42 74.86 127.26 72.91L127.21 72.86L127.31 72.97Q130.04 73.13 133.05 73.13L133.07 73.15L135.80 67.68L135.83 67.72Q137.35 65.00 139.13 62.65L139.17 62.69L139.21 62.73Q136.76 62.79 134.42 62.79L134.53 62.90L134.58 62.95Q125.54 62.83 120.02 59.59L120.00 59.57L119.07 57.08L119.07 57.08Q118.52 55.81 117.96 54.53L118.06 54.63L118.13 54.69Q124.41 58.47 132.77 58.80L132.74 58.77L132.70 58.73Q140.29 59.12 147.81 56.22L147.76 56.18L147.74 56.16Q147.56 56.86 146.83 58.14L146.83 58.14L146.82 58.13Q141.50 65.07 137.32 73.16ZM149.17 60.15L149.16 60.14L150.56 57.13L150.64 57.21Q149.15 57.84 146.70 58.90L146.81 59.01L147.08 58.56L147.02 58.50Q147.24 58.33 147.41 58.16L147.32 58.08L147.30 58.06Q147.89 57.08 148.95 55.13L149.00 55.19L149.07 55.25Q141.12 58.45 132.70 58.12L132.86 58.28L132.79 58.20Q124.00 57.84 117.04 53.49L117.05 53.50L117.01 53.46Q118.45 56.13 119.68 60.03L119.70 60.05L119.79 60.14Q121.29 60.97 122.46 61.42L122.43 61.40L122.44 61.40Q122.76 62.00 123.42 64.73L123.42 64.72L123.34 64.64Q127.93 66.45 136.01 66.22L136.11 66.32L136.15 66.36Q135.75 67.24 132.85 72.76L132.75 72.66L132.75 72.66Q129.71 72.63 126.81 72.35L126.77 72.31L126.77 72.31Q127.02 73.67 127.02 74.95L127.02 74.95L127.06 77.51L129.47 77.46L129.35 79.40L129.44 79.50Q123.65 90.26 119.58 95.50L119.54 95.46L119.54 95.46Q121.87 94.33 124.26 93.61L124.29 93.63L124.27 93.61Q123.34 95.03 121.34 97.53L121.31 97.50L121.32 97.52Q126.03 95.99 129.60 95.65L129.47 95.52L129.49 95.54Q133.79 90.03 138.36 80.11L138.48 80.23L143.36 80.37L143.39 80.40Q143.28 79.06 143.28 77.72L143.22 77.66L143.37 75.20L143.21 75.04Q142.99 75.21 142.19 75.27L142.16 75.24L142.14 75.22Q141.33 75.28 140.94 75.28L140.91 75.25L140.99 75.33Q140.89 75.06 140.95 74.84L141.06 74.95L141.06 74.56L140.87 74.37Q144.63 66.92 149.14 60.12Z"/><path d="M15 33 C161 75,183 53,327 62" stroke="#6c89de" fill="none"/><path d="M8 130 C157 71,153 17,329 93" stroke="#99dc55" fill="none"/><path d="M10 30 C172 95,180 68,325 80" stroke="#de5376" fill="none"/><path d="M21 65 C190 97,165 15,321 17" stroke="#8adc6f" fill="none"/><path d="M21 30 C166 32,164 94,329 53" stroke="#8ce8e8" fill="none"/><path d="M5 109 C185 18,157 8,326 40" stroke="#7fe5e5" fill="none"/><path d="M2 79 C162 75,173 17,338 7" stroke="#44e796" fill="none"/><path d="M7 98 C164 13,187 26,334 121" stroke="#b2e381" fill="none"/><path d="M13 115 C174 137,167 3,332 39" stroke="#e645e6" fill="none"/><path d="M2 90 C168 90,155 58,324 31" stroke="#8ca1e3" fill="none"/><path d="M10 19 C162 41,162 42,341 36" stroke="#e14be1" fill="none"/><path d="M6 81 C162 41,176 106,332 133" stroke="#6ac7e5" fill="none"/><path d="M10 111 C183 9,156 109,332 4" stroke="#e53863" fill="none"/><path d="M8 10 C153 10,171 46,327 97" stroke="#5252e4" fill="none"/><path d="M4 91 C155 131,188 124,325 71" stroke="#e07fe0" fill="none"/><path d="M8 54 C180 51,161 32,325 30" stroke="#4293e5" fill="none"/><path d="M4 89 C177 86,186 27,326 45" stroke="#82ec5f" fill="none"/><path d="M14 116 C154 82,190 81,332 16" stroke="#7ab2ea" fill="none"/><path d="M7 68 C169 14,182 24,339 65" stroke="#edd17c" fill="none"/><path d="M5 22 C169 18,164 115,333 14" stroke="#deaa77" fill="none"/><path fill="#94e594" d="M262.03 81.68L262.09 81.75L261.94 81.60Q266.58 81.16 271.26 81.33L271.29 81.36L271.18 81.25Q271.15 77.54 271.15 74.02L271.20 74.08L271.15 74.03Q271.13 70.38 271.41 66.65L271.42 66.66L271.44 66.68Q269.58 69.11 261.94 81.60ZM276.56 92.48L276.55 92.47L276.51 92.44Q274.13 92.06 271.51 91.94L271.48 91.92L271.37 91.80Q271.21 88.47 271.04 84.85L270.97 84.77L271.04 84.84Q263.24 84.57 256.33 86.63L256.20 86.50L256.33 86.63Q256.36 85.78 256.64 84.33L256.73 84.41L256.67 84.35Q259.33 79.77 264.57 70.57L264.49 70.49L264.59 70.59Q268.88 63.51 273.90 57.82L273.79 57.71L273.85 57.77Q275.14 57.51 277.60 57.12L277.53 57.05L277.53 57.05Q274.71 66.43 274.71 76.75L274.71 76.75L274.85 76.89Q274.74 78.96 274.85 81.13L274.95 81.22L276.72 81.27L276.71 81.26Q277.59 81.30 278.48 81.47L278.46 81.45L278.52 81.51Q278.69 82.97 279.08 85.81L279.03 85.75L279.07 85.80Q277.41 85.52 275.23 85.25L275.25 85.26L275.23 85.24Q275.43 88.06 276.43 92.35ZM279.01 81.05L278.85 80.89L279.02 81.07Q278.75 80.96 278.47 80.96L278.40 80.89L277.76 80.80L277.88 80.92Q277.57 78.61 277.57 76.55L277.73 76.71L277.66 76.63Q277.59 67.20 280.60 58.39L280.74 58.53L280.70 58.49Q279.63 58.92 277.51 59.48L277.41 59.39L277.44 59.42Q277.81 58.33 278.48 56.27L278.41 56.21L278.44 56.24Q276.63 56.87 273.62 57.21L273.54 57.13L273.50 57.09Q267.88 63.57 260.24 77.28L260.11 77.14L263.20 71.82L263.30 71.92Q262.69 73.43 262.30 74.26L262.18 74.14L255.68 87.38L255.67 87.37Q256.63 87.15 258.30 86.60L258.27 86.57L258.10 86.96L258.07 86.92Q257.98 88.00 257.53 89.84L257.39 89.70L257.43 89.74Q263.57 87.91 270.65 88.19L270.56 88.10L270.63 88.17Q270.64 89.52 270.92 92.42L270.92 92.42L270.83 92.33Q272.38 92.32 273.95 92.49L274.04 92.58L273.99 92.54Q274.30 93.63 274.69 95.63L274.73 95.67L274.68 95.62Q277.52 96.00 281.92 97.34L281.85 97.27L281.75 97.17Q280.44 94.19 279.10 89.40L279.04 89.33L281.12 89.96L281.21 90.05Q282.11 90.29 283.12 90.79L283.16 90.83L283.22 90.90Q281.96 87.12 281.74 84.67L281.76 84.70L281.82 84.75Q280.85 84.40 279.18 84.06L279.29 84.18L279.26 84.14Q278.95 82.27 278.95 80.99ZM267.18 80.70L267.29 80.81L267.30 80.83Q268.42 78.94 270.71 75.20L270.60 75.10L270.64 75.14Q270.69 76.58 270.63 77.97L270.61 77.94L270.64 77.97Q270.51 79.29 270.56 80.69L270.63 80.75L270.62 80.75Q269.86 80.77 269.02 80.77L268.91 80.65L268.94 80.68Q268.18 80.81 267.29 80.81Z"/><path d="M3 17 C154 85,179 28,333 114" stroke="#62e736" fill="none"/><path d="M4 48 C165 121,178 107,339 74" stroke="#ea61a5" fill="none"/><path d="M13 118 C174 92,170 114,336 92" stroke="#a4e58e" fill="none"/><path d="M11 21 C169 8,170 125,332 133" stroke="#6f6fdc" fill="none"/><path d="M18 103 C189 71,154 64,340 127" stroke="#cb80e4" fill="none"/><path d="M17 43 C151 75,151 28,333 119" stroke="#e9e971" fill="none"/><path d="M8 106 C169 27,185 108,327 115" stroke="#db876b" fill="none"/><path d="M12 39 C184 132,187 49,324 127" stroke="#7cedd1" fill="none"/><path d="M2 100 C169 137,160 124,325 57" stroke="#57df79" fill="none"/><path d="M13 8 C166 103,167 111,326 127" stroke="#d6b551" fill="none"/><path fill="#8ced8c" d="M199.61 76.01L199.61 76.01L199.70 76.10Q197.00 75.90 195.18 77.99L195.20 78.01L195.15 77.96Q193.40 80.11 193.12 82.90L193.06 82.84L193.08 82.85Q192.72 85.84 194.31 87.26L194.30 87.25L194.22 87.17Q195.83 88.62 198.90 88.45L199.02 88.57L198.90 88.45Q202.03 88.29 203.64 87.29L203.64 87.28L203.65 87.29Q205.36 85.72 205.36 83.43L205.36 83.42L205.41 83.48Q205.24 82.75 205.13 82.19L205.20 82.27L205.16 82.22Q205.24 79.74 203.62 77.76L203.74 77.88L203.69 77.83Q202.17 75.95 199.72 76.11ZM198.96 92.24L199.02 92.31L198.92 92.21Q192.62 92.32 190.56 91.20L190.48 91.13L190.59 91.24Q188.94 89.98 188.66 87.47L188.78 87.59L188.70 87.51Q188.63 86.49 188.69 85.43L188.77 85.51L188.70 85.44Q188.94 84.07 188.94 83.40L188.92 83.38L188.93 83.38Q189.56 79.17 189.78 78.16L189.80 78.19L189.73 78.11Q190.41 75.28 191.64 73.22L191.71 73.29L191.73 73.31Q195.61 66.87 204.30 57.57L204.27 57.54L204.33 57.59Q208.22 57.13 211.45 55.96L211.36 55.87L211.41 55.92Q201.50 66.97 196.82 73.16L196.79 73.13L196.63 72.97Q198.26 72.43 200.16 72.43L200.12 72.39L200.00 72.28Q204.97 72.39 207.20 75.23L207.22 75.26L207.06 75.09Q209.18 77.66 209.68 82.85L209.60 82.77L209.58 82.74Q209.74 83.85 209.74 84.74L209.68 84.68L209.66 84.67Q209.77 89.34 206.53 90.90L206.48 90.85L206.55 90.92Q204.77 91.82 199.09 92.37ZM202.35 95.81L202.31 95.77L202.31 95.77Q204.24 95.74 207.14 95.85L207.20 95.91L207.21 95.92Q209.51 95.95 211.80 94.89L211.81 94.89L211.73 94.82Q213.44 93.74 213.44 91.12L213.39 91.06L213.49 91.17Q213.35 90.30 213.10 88.85L213.30 89.05L213.27 89.03Q212.88 87.44 212.88 86.77L212.94 86.83L213.02 86.91Q211.64 79.90 209.30 77.11L209.41 77.22L209.28 77.09Q209.13 76.89 208.91 76.55L208.92 76.56L208.59 76.35L208.35 76.16L208.51 76.33Q207.86 75.44 206.96 74.05L206.99 74.08L206.97 74.06Q205.75 72.78 202.85 72.11L202.71 71.97L202.70 71.96Q204.52 69.65 208.86 64.24L208.97 64.36L215.11 56.56L215.09 56.54Q212.81 57.82 209.30 58.94L209.28 58.92L209.28 58.92Q210.59 57.45 213.21 54.55L213.23 54.56L213.23 54.57Q209.83 56.23 204.14 57.07L204.05 56.98L204.15 57.07Q195.79 65.72 191.44 72.97L191.28 72.80L191.34 72.86Q189.10 76.53 188.26 85.68L188.22 85.64L188.34 85.75Q188.21 86.57 188.32 87.97L188.33 87.97L188.21 87.85Q188.38 90.48 190.00 91.82L190.08 91.90L190.12 91.93Q190.65 92.13 190.59 92.18L190.58 92.17L190.46 92.05Q191.17 93.54 192.34 94.16L192.33 94.15L192.24 94.06Q194.44 95.14 197.29 95.42L197.13 95.26L197.20 95.34Q197.18 95.31 202.30 95.76ZM202.03 79.38L202.03 79.37L202.08 79.42Q202.77 79.11 204.16 79.83L204.31 79.98L204.35 80.02Q204.76 81.33 204.76 82.27L204.82 82.33L204.72 82.23Q204.96 84.92 203.56 86.37L203.56 86.37L203.64 86.45Q202.05 87.48 198.98 87.92L198.93 87.87L198.93 87.87Q196.81 87.87 196.03 87.48L196.21 87.66L196.10 87.55Q195.74 86.80 195.74 86.35L195.81 86.42L195.87 86.48Q195.56 81.71 199.85 79.82L199.76 79.73L199.79 79.76Q200.88 79.23 202.00 79.34Z"/><path d="M4 51 C183 82,151 106,334 81" stroke="#e2967d" fill="none"/></svg>