<svg xmlns="http://www.w3.org/2000/svg" width="342" height="140" viewBox="0,0,342,140"><path d="M15 71 C162 111,153 17,339 11" stroke="#e94870" fill="none"/><path fill="#93e740" d="M216.75 97.48L216.72 97.44L216.79 97.51Q209.44 97.84 207.67 93.69L207.70 93.72L207.69 93.71Q208.98 91.95 211.77 88.75L211.78 88.77L211.82 88.81Q212.64 92.35 218.01 92.55L218.16 92.70L218.09 92.63Q224.23 92.86 227.16 90.48L227.02 90.34L226.98 90.30Q229.53 87.48 229.40 82.65L229.52 82.78L229.53 82.79Q229.20 73.68 220.63 74.09L220.71 74.17L220.53 73.99Q215.56 74.32 212.43 76.57L212.55 76.69L211.79 76.20L211.58 76.13L211.56 76.10Q212.04 70.33 211.84 65.44L211.97 65.57L212.01 65.61Q211.64 60.75 211.03 54.84L211.11 54.92L211.11 54.92Q217.68 56.66 224.47 56.46L224.43 56.41L224.45 56.43Q231.14 56.19 237.53 53.95L237.53 53.94L236.66 56.81L236.69 56.84Q236.10 58.15 235.76 59.65L235.74 59.63L235.78 59.68Q230.16 61.46 223.23 61.46L223.23 61.47L223.19 61.42Q220.52 61.34 217.87 61.07L218.04 61.24L217.87 61.07Q217.74 62.29 217.13 70.25L217.15 70.27L217.20 70.32Q218.77 69.58 222.44 69.31L222.48 69.35L222.34 69.20Q229.04 69.65 231.62 72.64L231.70 72.72L231.66 72.68Q234.10 75.39 234.57 82.26L234.53 82.21L234.52 82.20Q235.02 89.71 232.84 93.31L232.93 93.40L232.85 93.31Q229.16 96.63 223.24 97.03L223.39 97.18L223.32 97.11Q221.49 97.18 216.73 97.45ZM227.54 101.53L227.53 101.52L227.60 101.59Q233.58 101.59 236.98 99.62L237.04 99.68L237.11 99.75Q238.88 97.03 238.88 93.29L238.87 93.29L238.83 93.24Q238.83 87.74 237.13 80.40L237.08 80.35L237.10 80.36Q236.39 77.21 234.22 74.69L234.31 74.78L234.25 74.80L233.97 74.38L233.27 73.96L233.25 73.93Q232.86 72.79 231.70 71.57L231.64 71.51L231.56 71.49L231.57 71.50Q228.81 68.47 222.22 68.47L222.32 68.57L221.94 68.67L221.88 68.61Q221.88 67.46 222.22 65.49L222.23 65.49L222.29 65.55Q231.18 65.75 238.39 62.82L238.40 62.83L238.39 62.82Q239.17 60.34 240.87 55.31L240.85 55.29L237.20 57.08L237.05 56.93Q237.87 55.03 238.75 52.99L238.65 52.89L238.73 52.97Q231.92 55.61 224.58 55.75L224.42 55.58L224.56 55.72Q217.20 55.91 210.13 53.94L210.07 53.88L209.98 53.79Q211.40 61.87 211.40 69.76L211.24 69.60L211.32 69.67Q211.22 72.98 211.02 76.38L211.15 76.51L211.18 76.54Q211.53 76.75 212.55 77.30L212.66 77.41L212.58 77.33Q213.22 76.94 214.37 76.33L214.34 76.30L214.40 76.36Q214.36 77.74 213.95 80.46L213.87 80.39L213.89 80.41Q214.59 80.69 215.34 81.10L215.34 81.10L215.29 81.06Q220.25 77.92 223.58 77.92L223.63 77.98L223.59 77.93Q226.15 78.12 228.26 79.28L228.26 79.28L228.16 79.18Q228.69 80.93 228.75 82.63L228.92 82.79L228.93 82.80Q229.06 87.42 227.22 89.39L227.11 89.27L227.07 89.24Q224.78 91.56 220.77 91.97L220.59 91.79L220.61 91.81Q218.95 91.99 217.72 91.85L217.82 91.95L217.84 91.97Q216.21 91.63 214.85 91.01L214.98 91.14L214.87 90.70L214.57 90.81L214.54 90.78Q213.20 89.98 212.25 87.60L212.31 87.67L212.18 87.53Q209.87 90.12 206.88 93.93L206.83 93.88L206.89 93.93Q207.50 95.16 209.00 96.86L209.00 96.86L209.01 96.87Q210.77 99.99 215.80 100.88L215.80 100.88L215.79 100.87Q217.89 101.26 227.47 101.46Z"/><path d="M16 100 C182 1,169 115,340 13" stroke="#54e754" fill="none"/><path d="M1 126 C153 98,176 118,325 117" stroke="#ec9173" fill="none"/><path d="M8 13 C162 100,166 124,340 57" stroke="#90edbf" fill="none"/><path d="M5 79 C164 55,152 68,337 86" stroke="#6943d9" fill="none"/><path d="M12 132 C166 23,162 60,336 78" stroke="#c147ea" fill="none"/><path d="M15 40 C169 50,188 137,324 28" stroke="#59d879" fill="none"/><path d="M3 20 C151 76,191 118,336 100" stroke="#81e8ce" fill="none"/><path fill="#aae470" d="M284.87 73.78L285.00 73.91L284.98 73.89Q286.47 73.95 288.98 73.68L288.88 73.57L288.90 73.59Q288.94 74.86 288.94 76.01L288.80 75.88L288.89 78.20L288.75 78.07Q287.42 78.24 285.93 78.37L285.91 78.36L285.91 78.35Q284.41 78.42 282.91 78.35L282.88 78.31L282.87 78.30Q277.68 89.23 271.56 97.46L271.56 97.45L271.59 97.48Q267.22 98.76 264.91 99.85L264.90 99.83L264.84 99.77Q272.17 89.56 277.61 78.34L277.60 78.34L272.94 78.37L273.02 78.45Q272.85 75.90 272.65 73.52L272.63 73.50L272.70 73.58Q276.17 73.92 279.84 73.92L279.81 73.88L283.29 67.38L283.27 67.35Q284.87 63.79 287.05 60.93L287.17 61.06L287.16 61.04Q284.33 61.27 281.47 61.27L281.47 61.27L281.55 61.35Q270.59 61.26 263.86 57.32L263.86 57.33L262.77 54.33L262.82 54.38Q262.05 52.73 261.37 51.16L261.35 51.14L261.54 51.33Q269.23 55.97 279.43 56.38L279.45 56.40L279.32 56.27Q288.59 56.77 297.77 53.23L297.69 53.15L297.71 53.17Q297.42 53.97 296.54 55.54L296.62 55.62L296.60 55.60Q289.97 63.93 284.88 73.79ZM299.33 57.92L299.41 58.00L301.22 54.44L301.06 54.28Q299.38 55.18 296.39 56.47L296.43 56.51L296.77 55.97L296.72 55.92Q297.01 55.74 297.21 55.53L297.29 55.61L297.15 55.46Q297.83 54.24 299.12 51.86L299.21 51.95L299.13 51.87Q289.71 56.05 279.45 55.65L279.41 55.60L279.31 55.50Q268.69 55.16 260.20 49.85L260.22 49.88L260.23 49.89Q261.95 53.11 263.45 57.86L263.58 57.99L263.58 58.00Q265.54 59.14 266.97 59.69L266.93 59.65L266.84 59.55Q267.13 60.18 267.94 63.52L267.89 63.47L268.01 63.58Q273.59 65.76 283.45 65.49L283.40 65.44L283.41 65.45Q282.84 66.45 279.30 73.18L279.35 73.22L279.35 73.23Q275.70 73.24 272.16 72.90L272.21 72.95L272.09 72.83Q272.38 74.48 272.38 76.04L272.31 75.97L272.41 79.14L275.29 79.02L275.32 81.57L275.38 81.63Q268.32 94.76 263.36 101.15L263.44 101.23L263.41 101.20Q266.16 99.74 269.08 98.85L269.11 98.87L269.06 98.83Q267.97 100.59 265.52 103.65L265.46 103.59L265.44 103.57Q271.19 101.71 275.55 101.30L275.48 101.23L275.40 101.16Q280.75 94.54 286.33 82.44L286.20 82.31L292.42 82.76L292.37 82.71Q292.30 81.14 292.30 79.51L292.32 79.53L292.26 76.28L292.17 76.19Q291.71 76.20 290.73 76.27L290.79 76.34L290.83 76.37Q289.88 76.48 289.40 76.48L289.29 76.37L289.22 76.30Q289.37 76.25 289.44 75.97L289.34 75.87L289.45 75.50L289.29 75.34Q293.85 66.24 299.35 57.95Z"/><path d="M20 8 C175 122,152 71,331 96" stroke="#64ebeb" fill="none"/><path fill="#e17ee1" d="M115.00 73.91L115.02 73.93L114.87 73.78Q116.48 73.96 119.00 73.69L118.87 73.57L118.99 73.69Q118.82 74.74 118.82 75.90L118.88 75.96L118.91 78.23L118.83 78.15Q117.42 78.24 115.93 78.37L115.92 78.37L115.92 78.37Q114.26 78.26 112.76 78.20L112.85 78.28L112.88 78.31Q107.79 89.33 101.67 97.56L101.58 97.48L101.73 97.62Q97.09 98.62 94.78 99.71L94.86 99.79L94.93 99.87Q102.12 89.51 107.56 78.30L107.57 78.31L102.96 78.39L102.90 78.33Q102.87 75.92 102.67 73.54L102.70 73.58L102.78 73.65Q106.09 73.84 109.76 73.84L109.81 73.88L113.28 67.36L113.27 67.35Q114.87 63.79 117.05 60.93L117.23 61.12L117.07 60.96Q114.34 61.28 111.48 61.28L111.58 61.38L111.46 61.26Q100.70 61.38 93.97 57.44L93.97 57.44L92.76 54.32L92.82 54.38Q92.21 52.89 91.53 51.32L91.52 51.31L91.34 51.14Q99.19 55.92 109.38 56.33L109.47 56.42L109.44 56.38Q118.49 56.66 127.66 53.13L127.78 53.25L127.78 53.24Q127.41 53.96 126.53 55.53L126.44 55.43L126.48 55.48Q120.12 64.07 115.02 73.93ZM129.37 57.96L129.42 58.01L131.21 54.43L131.08 54.30Q129.39 55.20 126.40 56.49L126.37 56.45L126.76 55.97L126.73 55.93Q126.95 55.67 127.15 55.47L127.29 55.60L127.26 55.58Q127.82 54.24 129.12 51.86L129.22 51.97L129.12 51.87Q119.66 56.00 109.39 55.59L109.30 55.50L109.43 55.62Q98.56 55.02 90.06 49.72L90.11 49.77L90.10 49.75Q91.92 53.07 93.41 57.83L93.45 57.87L93.46 57.88Q95.43 59.03 96.86 59.58L96.96 59.68L96.88 59.60Q97.08 60.14 97.90 63.47L97.97 63.55L97.99 63.57Q103.56 65.73 113.42 65.46L113.41 65.46L113.38 65.43Q112.83 66.44 109.30 73.17L109.29 73.17L109.34 73.21Q105.82 73.36 102.28 73.02L102.21 72.95L102.11 72.85Q102.39 74.48 102.39 76.05L102.31 75.97L102.30 79.02L105.28 79.01L105.39 81.63L105.30 81.54Q98.23 94.67 93.27 101.06L93.36 101.15L93.37 101.16Q96.26 99.83 99.18 98.95L99.12 98.89L99.17 98.94Q98.00 100.62 95.55 103.68L95.51 103.64L95.40 103.52Q101.11 101.62 105.46 101.21L105.37 101.12L105.46 101.21Q110.72 94.51 116.29 82.41L116.21 82.32L122.46 82.80L122.33 82.67Q122.20 81.04 122.20 79.41L122.24 79.45L122.25 76.27L122.14 76.16Q121.75 76.25 120.77 76.31L120.85 76.39L120.72 76.27Q119.71 76.31 119.24 76.31L119.38 76.45L119.25 76.32Q119.24 76.11 119.31 75.84L119.35 75.88L119.34 75.39L119.43 75.49Q123.78 66.17 129.29 57.88Z"/><path d="M1 134 C154 31,160 136,339 13" stroke="#e47171" fill="none"/><path d="M10 7 C165 74,165 79,323 126" stroke="#eb5a5a" fill="none"/><path d="M4 125 C158 123,185 11,332 74" stroke="#5be09e" fill="none"/><path d="M12 47 C182 97,177 85,328 2" stroke="#7676df" fill="none"/><path d="M21 93 C180 16,151 97,322 133" stroke="#7e9bf0" fill="none"/><path d="M11 134 C156 81,187 90,334 43" stroke="#87ecec" fill="none"/><path d="M11 23 C171 97,181 55,336 98" stroke="#adee6c" fill="none"/><path d="M20 60 C178 8,150 38,341 88" stroke="#b782ed" fill="none"/><path d="M14 39 C159 26,185 69,331 9" stroke="#87e29e" fill="none"/><path d="M7 93 C177 22,157 55,335 130" stroke="#6fe349" fill="none"/><path d="M9 52 C173 116,171 137,335 93" stroke="#c0e551" fill="none"/><path d="M5 113 C152 39,175 3,330 79" stroke="#d5486b" fill="none"/><path d="M18 28 C189 41,161 29,323 66" stroke="#5b5be0" fill="none"/><path fill="#e7c254" d="M171.72 73.96L171.73 73.97L171.59 73.84Q173.14 73.96 175.66 73.68L175.64 73.67L175.63 73.66Q175.45 74.70 175.45 75.85L175.54 75.95L175.51 78.16L175.46 78.11Q173.93 78.08 172.43 78.21L172.53 78.31L172.49 78.27Q171.06 78.40 169.56 78.33L169.54 78.31L169.43 78.20Q164.35 89.23 158.23 97.46L158.29 97.52L158.37 97.60Q153.90 98.77 151.59 99.85L151.56 99.83L151.46 99.73Q158.77 89.50 164.21 78.28L164.24 78.31L159.60 78.36L159.70 78.46Q159.55 75.93 159.35 73.55L159.44 73.65L159.39 73.60Q162.78 73.86 166.45 73.86L166.44 73.85L169.79 67.20L169.77 67.18Q171.58 63.83 173.75 60.97L173.71 60.93L173.90 61.12Q171.01 61.29 168.16 61.29L168.20 61.34L168.20 61.34Q157.31 61.32 150.58 57.38L150.58 57.38L149.46 54.35L149.47 54.36Q148.74 52.75 148.06 51.18L148.11 51.23L148.11 51.24Q155.88 55.95 166.08 56.36L166.02 56.30L166.13 56.41Q175.30 56.81 184.48 53.28L184.39 53.18L184.42 53.22Q184.06 53.94 183.17 55.51L183.18 55.51L183.27 55.60Q176.69 63.98 171.59 73.83ZM186.14 58.06L186.08 58.01L187.83 54.38L187.73 54.28Q186.07 55.20 183.08 56.50L183.05 56.47L183.48 56.02L183.36 55.90Q183.62 55.68 183.82 55.47L183.91 55.56L183.95 55.60Q184.53 54.27 185.82 51.90L185.80 51.88L185.82 51.90Q176.32 55.99 166.05 55.58L166.11 55.64L166.05 55.58Q155.26 55.06 146.76 49.75L146.91 49.90L146.86 49.85Q148.67 53.15 150.16 57.91L150.18 57.93L150.09 57.84Q152.18 59.11 153.61 59.66L153.64 59.69L153.62 59.67Q153.74 60.13 154.55 63.46L154.68 63.58L154.55 63.46Q160.21 65.72 170.07 65.44L170.06 65.44L170.13 65.50Q169.63 66.57 166.09 73.30L166.11 73.31L166.08 73.28Q162.33 73.20 158.79 72.86L158.88 72.95L158.85 72.92Q158.93 74.36 158.93 75.93L159.00 75.99L159.01 79.07L161.88 78.94L162.03 81.61L161.94 81.52Q155.02 94.78 150.05 101.17L150.00 101.13L150.06 101.18Q152.89 99.80 155.81 98.91L155.89 98.99L155.72 98.82Q154.66 100.61 152.21 103.67L152.13 103.59L152.20 103.66Q157.86 101.71 162.21 101.30L162.10 101.19L162.17 101.26Q167.41 94.54 172.99 82.44L172.97 82.42L179.12 82.79L178.97 82.64Q178.96 81.13 178.96 79.50L178.94 79.48L179.00 76.34L178.97 76.32Q178.44 76.26 177.45 76.33L177.38 76.26L177.54 76.41Q176.44 76.38 175.97 76.38L175.91 76.32L176.02 76.42Q176.07 76.28 176.14 76.00L176.00 75.87L176.00 75.39L176.00 75.39Q180.53 66.26 186.04 57.96Z"/><path d="M9 34 C170 99,150 35,326 99" stroke="#ec73ce" fill="none"/><path d="M18 67 C160 74,171 135,327 38" stroke="#87cfe8" fill="none"/><path fill="#e06584" d="M65.65 93.09L65.51 92.95L65.55 92.99Q66.19 94.85 67.14 98.45L67.07 98.39L67.11 98.43Q59.64 96.12 51.41 96.59L51.39 96.57L51.25 96.43Q43.22 97.04 36.08 100.57L36.01 100.50L36.10 100.58Q36.45 99.31 36.52 99.44L36.59 99.52L36.60 99.52Q43.12 92.31 50.12 84.42L50.16 84.46L50.27 84.57Q58.15 75.67 60.26 67.30L60.14 67.18L60.07 67.12Q61.01 64.11 58.73 62.00L58.75 62.02L58.63 61.91Q56.36 59.80 53.16 60.07L53.33 60.24L53.14 60.05Q52.67 60.12 52.06 60.12L52.01 60.08L51.94 60.01Q49.24 60.02 47.00 61.66L46.95 61.61L46.96 61.62Q44.79 64.21 45.20 68.97L45.06 68.83L45.24 69.00Q41.90 68.25 39.72 67.44L39.76 67.47L39.84 67.55Q39.43 64.97 39.30 62.38L39.30 62.39L39.24 62.33Q39.17 59.48 40.26 57.44L40.28 57.46L40.18 57.36Q43.45 54.98 49.43 54.98L49.51 55.06L52.58 55.00L52.61 55.03Q56.54 54.95 58.24 55.16L58.36 55.28L58.28 55.20Q66.01 55.92 66.48 60.27L66.64 60.43L66.60 60.38Q66.79 61.46 66.65 62.89L66.60 62.84L66.65 62.89Q66.42 63.88 66.15 65.10L66.14 65.09L66.17 65.13Q63.21 79.57 49.68 91.81L49.73 91.85L49.73 91.85Q52.37 91.70 54.81 91.70L54.77 91.66L54.79 91.68Q60.41 91.52 65.51 92.95ZM64.58 55.85L64.68 55.95L64.64 55.91Q61.79 54.76 58.73 54.62L58.63 54.52L52.52 54.19L52.47 54.15Q44.55 53.70 40.60 55.67L40.59 55.66L40.64 55.71Q38.69 58.11 38.69 61.78L38.79 61.88L38.73 61.82Q38.92 63.23 39.46 68.26L39.46 68.26L39.44 68.24Q40.26 68.52 42.37 69.06L42.46 69.15L42.40 70.93L42.44 70.97Q42.37 71.78 42.51 72.73L42.50 72.72L42.41 72.63Q44.79 72.98 49.21 73.38L49.09 73.26L49.09 73.27Q49.06 72.63 49.06 72.02L49.01 71.96L49.17 72.12Q49.05 68.74 51.22 66.32L51.24 66.34L51.35 66.45Q53.37 63.88 56.57 64.09L56.66 64.18L56.60 64.12Q58.07 64.30 59.43 64.57L59.41 64.55L59.37 64.51Q59.59 65.20 59.72 65.95L59.61 65.84L59.69 65.92Q59.85 66.76 59.71 67.37L59.66 67.32L59.54 67.20Q57.35 75.75 49.46 84.38L49.43 84.34L49.41 84.33Q45.65 88.38 35.93 99.19L36.06 99.33L36.05 99.31Q35.60 100.70 34.99 101.72L35.03 101.76L35.08 101.81Q37.88 100.19 40.60 99.24L40.61 99.25L40.65 99.30Q39.23 100.19 37.53 102.84L37.55 102.85L37.54 102.84Q37.47 103.59 37.26 104.20L37.10 104.04L37.13 104.06Q45.82 100.38 55.61 100.72L55.63 100.75L55.71 100.83Q65.83 101.08 73.98 105.30L73.90 105.21L72.24 101.52L72.21 101.48Q71.03 99.09 70.56 97.66L70.63 97.73L70.55 97.65Q69.23 96.88 67.06 96.13L67.15 96.22L67.13 96.20Q66.88 94.93 66.20 92.48L66.12 92.41L66.19 92.47Q62.29 91.49 58.21 91.15L58.17 91.12L58.11 91.06Q66.40 82.83 69.12 68.08L69.14 68.09L69.59 63.03L69.56 63.01Q69.50 59.88 67.32 58.66L67.23 58.57L67.13 58.54L67.22 58.63Q67.10 58.44 66.96 58.44L66.91 58.38L66.92 58.40Q66.63 57.02 64.66 55.93Z"/><path d="M14 81 C159 74,187 53,325 49" stroke="#85ef85" fill="none"/><path d="M20 74 C157 31,170 122,333 59" stroke="#e26383" fill="none"/><path d="M20 81 C159 5,170 27,331 2" stroke="#a8e669" fill="none"/><path d="M11 2 C180 75,170 110,324 64" stroke="#77e8cc" fill="none"/><path d="M19 116 C179 68,162 116,323 116" stroke="#df6181" fill="none"/><path d="M6 88 C181 2,177 106,325 38" stroke="#4343e4" fill="none"/><path d="M12 44 C169 105,186 39,323 59" stroke="#6485e6" fill="none"/><path d="M2 27 C165 103,161 118,338 60" stroke="#914dd5" fill="none"/><path d="M4 27 C176 66,170 130,331 95" stroke="#9292e6" fill="none"/><path d="M2 58 C174 80,189 20,327 50" stroke="#90df75" fill="none"/><path d="M12 37 C153 107,157 45,323 117" stroke="#e74444" fill="none"/><path d="M10 86 C183 31,188 41,322 61" stroke="#bae48f" fill="none"/><path d="M8 86 C159 71,182 41,327 117" stroke="#c148e9" fill="none"/><path d="M2 47 C190 18,186 71,338 44" stroke="#5151e5" fill="none"/><path d="M10 29 C177 96,183 102,327 74" stroke="#c96ce9" fill="none"/><path d="M2 118 C174 102,191 3,331 90" stroke="#c9e96c" fill="none"/></svg>