<svg xmlns="http://www.w3.org/2000/svg" width="342" height="140" viewBox="0,0,342,140"><path d="M3 107 C183 7,186 102,337 3" stroke="#4491de" fill="none"/><path d="M5 116 C190 50,164 120,333 74" stroke="#dfaf80" fill="none"/><path d="M20 57 C191 98,182 137,323 94" stroke="#a5e169" fill="none"/><path d="M13 81 C167 125,188 46,322 43" stroke="#66dfdf" fill="none"/><path fill="#8ebff0" d="M77.05 93.29L77.03 93.28L77.13 93.37Q77.66 95.14 78.62 98.78L78.61 98.77L78.53 98.69Q71.00 96.38 62.69 96.86L62.51 96.68L62.68 96.85Q54.44 97.32 47.23 100.90L47.12 100.78L47.10 100.77Q47.63 99.65 47.70 99.79L47.65 99.74L47.63 99.72Q54.43 92.65 61.50 84.69L61.48 84.66L61.44 84.62Q69.47 75.70 71.60 67.25L71.54 67.19L71.56 67.21Q72.38 64.04 70.08 61.92L70.02 61.86L70.15 61.99Q67.71 59.72 64.48 59.99L64.44 59.95L64.47 59.98Q63.88 59.94 63.26 59.94L63.26 59.94L63.24 59.92Q60.59 60.01 58.32 61.66L58.30 61.64L58.28 61.62Q56.05 64.19 56.46 69.00L56.41 68.95L56.32 68.86Q53.10 68.25 50.90 67.42L51.01 67.54L50.96 67.48Q50.62 64.94 50.48 62.33L50.50 62.36L50.55 62.40Q50.25 59.29 51.35 57.23L51.42 57.30L51.41 57.29Q54.57 54.75 60.61 54.75L60.62 54.76L63.81 54.79L63.83 54.81Q67.98 54.91 69.70 55.12L69.65 55.07L69.66 55.08Q77.52 55.86 78.00 60.26L77.92 60.18L77.95 60.21Q78.12 61.27 77.98 62.71L77.98 62.71L78.00 62.73Q77.87 63.84 77.60 65.07L77.57 65.04L77.74 65.22Q74.61 79.67 60.95 92.03L60.95 92.02L61.01 92.09Q63.49 91.75 65.96 91.75L66.06 91.85L66.11 91.90Q71.93 91.88 77.08 93.32ZM75.92 55.64L76.04 55.76L75.94 55.66Q73.07 54.50 69.98 54.36L70.07 54.46L63.83 54.06L63.92 54.15Q55.89 53.67 51.91 55.66L51.93 55.68L51.80 55.55Q49.92 58.07 49.92 61.77L49.88 61.73L49.85 61.71Q49.96 63.05 50.51 68.13L50.52 68.14L50.54 68.16Q51.40 68.47 53.53 69.02L53.60 69.09L53.56 70.91L53.59 70.93Q53.46 71.70 53.60 72.66L53.73 72.80L53.73 72.80Q56.05 73.05 60.51 73.46L60.47 73.43L60.35 73.30Q60.32 72.65 60.32 72.03L60.31 72.02L60.26 71.98Q60.42 68.84 62.62 66.41L62.60 66.38L62.52 66.31Q64.81 63.97 68.04 64.17L67.96 64.09L67.97 64.10Q69.25 64.08 70.63 64.35L70.65 64.38L70.73 64.45Q70.92 65.13 71.06 65.89L71.14 65.96L71.08 65.91Q71.11 66.62 70.98 67.24L71.01 67.28L70.95 67.21Q68.75 75.86 60.78 84.58L60.71 84.51L60.66 84.46Q56.89 88.58 47.07 99.50L47.08 99.51L47.09 99.52Q46.79 101.08 46.17 102.11L46.04 101.98L46.10 102.03Q49.06 100.53 51.81 99.57L51.85 99.62L51.85 99.61Q50.41 100.50 48.69 103.18L48.72 103.21L48.83 103.32Q48.60 103.92 48.40 104.54L48.25 104.39L48.31 104.45Q57.20 100.84 67.08 101.18L66.97 101.07L67.04 101.13Q77.32 101.46 85.56 105.72L85.57 105.73L83.64 101.74L83.71 101.81Q82.59 99.45 82.11 98.01L82.10 98.00L82.07 97.97Q80.69 97.14 78.49 96.39L78.62 96.51L78.48 96.38Q78.27 95.14 77.59 92.67L77.52 92.60L77.48 92.56Q73.65 91.69 69.54 91.34L69.54 91.35L69.43 91.24Q78.01 83.13 80.75 68.23L80.72 68.20L80.99 62.91L81.02 62.93Q80.96 59.79 78.76 58.55L78.73 58.52L78.53 58.38L78.53 58.38Q78.62 58.41 78.48 58.41L78.31 58.23L78.50 58.42Q78.01 56.84 76.02 55.74Z"/><path d="M14 64 C152 115,168 47,336 63" stroke="#eaa993" fill="none"/><path d="M7 77 C163 116,185 81,332 22" stroke="#9b50e6" fill="none"/><path d="M18 135 C154 32,171 46,328 79" stroke="#e39277" fill="none"/><path d="M14 20 C160 1,191 71,331 130" stroke="#62dea0" fill="none"/><path d="M9 134 C154 86,184 13,325 11" stroke="#f083f0" fill="none"/><path d="M19 8 C178 77,163 110,333 90" stroke="#da3e8c" fill="none"/><path d="M15 19 C186 135,155 103,340 20" stroke="#71eeee" fill="none"/><path d="M7 101 C150 74,151 44,339 21" stroke="#8aeed5" fill="none"/><path d="M16 2 C150 10,184 63,329 12" stroke="#6789ee" fill="none"/><path d="M7 98 C150 40,185 118,330 126" stroke="#dea56c" fill="none"/><path d="M6 82 C188 106,168 52,329 114" stroke="#70e24a" fill="none"/><path d="M1 105 C179 37,158 106,323 75" stroke="#e34e4e" fill="none"/><path d="M16 83 C189 123,174 24,329 115" stroke="#e94d74" fill="none"/><path d="M17 108 C188 67,163 101,332 106" stroke="#c468e3" fill="none"/><path d="M11 49 C185 33,151 81,339 111" stroke="#b780ee" fill="none"/><path d="M14 134 C159 101,155 89,327 10" stroke="#bada5c" fill="none"/><path d="M9 27 C156 1,176 103,323 123" stroke="#79e6cb" fill="none"/><path d="M7 137 C186 135,178 96,340 26" stroke="#50b9dc" fill="none"/><path fill="#5579e6" d="M280.95 93.20L281.13 93.38L281.06 93.31Q281.59 95.07 282.55 98.71L282.64 98.80L282.52 98.68Q274.95 96.33 266.64 96.81L266.58 96.75L266.67 96.84Q258.41 97.29 251.20 100.86L251.07 100.74L251.13 100.79Q251.58 99.60 251.65 99.74L251.63 99.72L251.62 99.70Q258.30 92.52 265.38 84.56L265.49 84.67L265.41 84.59Q273.42 75.65 275.55 67.20L275.47 67.12L275.55 67.20Q276.38 64.04 274.08 61.91L274.01 61.84L273.99 61.82Q271.82 59.83 268.59 60.10L268.55 60.06L268.49 60.00Q267.91 59.97 267.29 59.97L267.31 59.99L267.20 59.88Q264.64 60.07 262.38 61.72L262.35 61.69L262.29 61.63Q260.01 64.15 260.42 68.96L260.44 68.98L260.43 68.97Q257.19 68.33 254.99 67.51L255.03 67.55L254.94 67.46Q254.66 64.99 254.53 62.38L254.38 62.23L254.37 62.22Q254.27 59.31 255.37 57.25L255.44 57.32L255.37 57.25Q258.60 54.78 264.64 54.78L264.67 54.81L267.89 54.87L267.89 54.87Q271.90 54.82 273.61 55.03L273.60 55.02L273.77 55.19Q281.43 55.78 281.91 60.17L281.96 60.22L281.93 60.19Q282.06 61.21 281.92 62.65L281.98 62.71L281.94 62.67Q282.02 63.99 281.74 65.22L281.67 65.15L281.63 65.11Q278.76 79.81 265.09 92.17L265.08 92.15L265.05 92.12Q267.67 91.93 270.14 91.93L270.12 91.91L270.05 91.84Q275.89 91.85 281.04 93.29ZM280.00 55.72L280.10 55.82L280.02 55.74Q277.12 54.55 274.03 54.42L274.11 54.50L267.80 54.02L267.94 54.16Q259.75 53.53 255.77 55.52L255.73 55.48L255.87 55.62Q253.85 58.00 253.85 61.71L253.90 61.76L253.99 61.85Q253.95 63.04 254.50 68.12L254.59 68.21L254.44 68.06Q255.39 68.47 257.52 69.01L257.67 69.16L257.65 71.00L257.54 70.89Q257.51 71.75 257.65 72.71L257.62 72.68L257.74 72.80Q259.85 72.86 264.32 73.27L264.40 73.36L264.43 73.38Q264.43 72.77 264.43 72.15L264.39 72.10L264.33 72.04Q264.40 68.82 266.59 66.38L266.63 66.41L266.59 66.38Q268.78 63.93 272.00 64.13L271.89 64.02L272.00 64.13Q273.26 64.08 274.63 64.35L274.68 64.41L274.76 64.49Q274.92 65.12 275.05 65.88L274.98 65.81L274.97 65.79Q275.13 66.64 274.99 67.26L274.91 67.17L275.02 67.29Q272.67 75.78 264.70 84.50L264.77 84.57L264.82 84.62Q260.84 88.54 251.02 99.45L251.06 99.49L251.01 99.44Q250.77 101.05 250.15 102.08L250.09 102.03L250.22 102.16Q253.02 100.49 255.76 99.52L255.66 99.42L255.86 99.62Q254.40 100.50 252.69 103.18L252.74 103.23L252.78 103.28Q252.45 103.77 252.25 104.39L252.24 104.38L252.25 104.39Q261.21 100.86 271.10 101.20L271.10 101.20L271.08 101.18Q281.14 101.29 289.38 105.54L289.42 105.58L287.69 101.79L287.66 101.77Q286.44 99.31 285.96 97.87L285.95 97.85L286.07 97.97Q284.78 97.24 282.59 96.48L282.55 96.44L282.46 96.36Q282.34 95.21 281.66 92.74L281.60 92.68L281.55 92.63Q277.58 91.61 273.46 91.27L273.54 91.35L273.45 91.25Q281.88 83.01 284.63 68.11L284.74 68.22L284.95 62.87L284.99 62.91Q284.97 59.80 282.77 58.56L282.75 58.53L282.52 58.38L282.51 58.37Q282.61 58.40 282.48 58.40L282.43 58.36L282.41 58.34Q281.94 56.76 279.94 55.66Z"/><path d="M14 50 C156 19,180 25,323 104" stroke="#d18ce8" fill="none"/><path d="M2 93 C188 35,164 46,334 138" stroke="#e3bb44" fill="none"/><path d="M17 10 C166 43,178 21,334 47" stroke="#7de65a" fill="none"/><path d="M12 102 C186 86,164 45,335 89" stroke="#4ae771" fill="none"/><path d="M17 34 C185 30,162 11,336 99" stroke="#e2984f" fill="none"/><path d="M10 96 C190 132,176 115,337 48" stroke="#63d863" fill="none"/><path d="M9 28 C165 118,159 129,340 89" stroke="#ee7694" fill="none"/><path d="M17 124 C190 97,178 11,328 89" stroke="#809ae9" fill="none"/><path d="M8 90 C160 103,159 100,325 4" stroke="#e8ad72" fill="none"/><path d="M3 77 C164 123,156 99,339 41" stroke="#82e2b2" fill="none"/><path d="M1 34 C171 86,177 107,333 96" stroke="#e6724b" fill="none"/><path d="M13 17 C160 110,181 92,332 126" stroke="#da5c5c" fill="none"/><path d="M11 66 C155 54,190 15,328 2" stroke="#e07c5b" fill="none"/><path d="M10 121 C168 27,168 60,338 13" stroke="#8364e1" fill="none"/><path d="M20 103 C158 7,163 64,340 27" stroke="#dede58" fill="none"/><path d="M18 27 C180 96,182 16,336 4" stroke="#b345d7" fill="none"/><path fill="#8ea4e6" d="M199.85 67.13L199.77 67.04L199.93 67.20Q194.17 67.20 190.87 65.28L190.73 65.14L190.73 65.14Q195.29 62.70 204.08 55.07L204.18 55.18L204.20 55.19Q205.41 54.75 207.74 53.66L207.64 53.56L207.81 53.73Q205.36 64.39 205.16 75.86L205.19 75.90L205.21 75.91Q204.89 87.26 206.81 98.25L206.93 98.37L206.81 98.25Q203.86 97.02 200.02 96.81L200.00 96.79L199.92 96.71Q199.83 89.35 199.83 82.00L199.81 81.98L199.73 81.90Q199.78 74.53 199.84 67.11ZM199.08 71.09L199.20 97.51L199.10 97.40Q201.38 97.49 203.09 97.83L203.02 97.76L203.14 97.88Q203.28 99.11 203.62 101.58L203.63 101.59L203.48 101.44Q208.72 102.49 213.11 106.54L213.08 106.51L213.14 106.57Q208.54 93.60 208.48 80.14L208.63 80.29L208.61 80.28Q208.37 66.71 211.66 53.66L211.78 53.78L211.73 53.73Q210.77 54.49 207.88 56.48L207.93 56.52L207.97 56.57Q208.26 55.13 208.81 52.39L208.80 52.38L208.69 52.27Q206.32 53.67 203.71 54.36L203.75 54.41L203.66 54.32Q196.99 60.89 189.23 65.01L189.24 65.02L189.21 65.00Q191.73 66.96 195.98 67.58L196.05 67.64L195.97 67.57Q194.82 68.55 192.49 70.47L192.58 70.56L192.59 70.57Q195.23 71.23 199.22 71.23L199.21 71.21Z"/><path d="M11 39 C176 12,170 64,331 68" stroke="#bedc65" fill="none"/><path fill="#4747df" d="M130.83 77.64L130.67 77.48L130.83 77.63Q127.35 77.52 125.15 79.92L125.18 79.95L125.22 79.99Q122.92 82.29 122.64 85.72L122.70 85.78L122.72 85.79Q122.31 89.58 124.51 91.40L124.48 91.37L124.62 91.51Q126.83 93.34 130.67 93.20L130.61 93.14L130.71 93.24Q134.90 92.96 136.61 91.25L136.49 91.13L136.46 91.10Q138.30 88.47 138.10 85.18L138.22 85.30L138.26 85.34Q138.03 81.95 136.07 79.78L135.90 79.62L136.02 79.74Q134.09 77.60 130.80 77.60ZM130.64 60.49L130.68 60.52L130.75 60.60Q128.18 60.36 125.78 61.25L125.75 61.23L125.76 61.24Q123.43 62.68 123.84 66.05L123.73 65.93L123.76 65.97Q124.68 72.72 130.72 72.72L130.66 72.66L130.79 72.79Q133.65 73.18 135.43 71.12L135.28 70.96L135.29 70.97Q137.09 68.93 137.16 66.11L137.20 66.15L137.24 66.20Q137.33 62.99 136.03 61.89L135.94 61.80L135.96 61.82Q132.93 60.30 130.59 60.44ZM130.13 97.54L130.11 97.52L124.68 97.57L124.73 97.63Q121.98 97.62 119.57 96.04L119.60 96.07L119.56 96.03Q117.10 93.98 117.37 88.83L117.33 88.78L117.38 88.83Q118.16 76.43 124.68 74.64L124.62 74.58L124.77 74.74Q120.60 73.04 118.20 63.36L118.18 63.33L118.09 63.25Q117.49 60.73 117.63 59.28L117.62 59.27L117.67 59.33Q118.30 55.56 124.96 55.49L125.00 55.53L125.00 55.54Q132.48 55.25 135.09 55.60L135.20 55.71L135.08 55.59Q141.99 56.52 142.81 60.16L142.81 60.16L143.00 60.35Q143.08 61.32 143.08 62.01L143.07 62.00L143.21 62.13Q143.12 63.28 142.77 64.38L142.85 64.45L142.73 64.34Q141.57 71.89 136.28 74.64L136.34 74.70L136.31 74.67Q142.79 76.28 143.69 85.82L143.62 85.76L143.59 85.73Q143.53 85.95 143.60 88.28L143.57 88.24L143.66 88.33Q143.71 93.20 140.83 95.12L140.93 95.22L140.85 95.14Q138.47 96.81 130.23 97.63ZM134.36 101.83L134.26 101.73L140.43 102.00L140.34 101.90Q143.47 102.08 146.21 100.78L146.27 100.83L146.28 100.84Q148.17 99.37 148.30 96.00L148.35 96.05L148.35 96.05Q148.48 94.12 147.80 90.62L147.68 90.51L147.74 90.57Q146.17 82.26 142.39 78.90L142.39 78.90L141.96 78.12L141.61 77.63L141.48 77.30L141.43 77.25Q144.38 74.78 146.03 67.29L146.08 67.34L146.05 67.31Q146.02 66.60 146.16 65.09L146.19 65.12L146.15 65.08Q146.23 63.78 146.09 62.68L146.21 62.80L146.22 62.81Q145.94 60.20 143.81 59.30L143.63 59.13L143.81 59.24L143.50 59.07L143.51 59.08Q142.96 57.70 140.83 56.26L140.79 56.21L140.96 56.31L140.89 56.25Q137.40 55.10 130.06 54.75L129.92 54.62L130.04 54.74Q127.25 54.56 124.78 54.76L124.69 54.67L124.79 54.78Q123.28 54.77 120.94 55.05L120.96 55.06L120.88 54.98Q117.47 55.76 117.06 58.71L116.98 58.63L116.93 58.59Q116.90 59.52 116.97 60.96L117.02 61.01L117.02 61.01Q117.29 62.03 118.32 66.29L118.18 66.15L118.27 66.24Q119.67 72.04 122.83 74.44L122.92 74.53L123.07 74.68L122.90 74.51Q117.96 76.92 117.00 86.26L117.09 86.34L117.08 86.34Q116.65 90.23 116.65 91.88L116.60 91.83L116.62 91.85Q116.82 95.14 118.95 96.79L118.85 96.69L118.97 96.81Q119.21 96.98 119.69 97.32L119.68 97.32L119.64 97.27Q121.51 101.41 134.35 101.82ZM133.75 81.86L133.75 81.86L133.74 81.85Q135.44 81.77 137.02 82.59L136.95 82.52L136.96 82.53Q137.67 84.34 137.60 85.30L137.45 85.15L137.59 85.29Q137.53 85.71 137.53 86.26L137.57 86.30L137.69 86.42Q137.60 90.59 133.48 92.10L133.47 92.08L133.58 92.19Q131.97 92.57 130.52 92.37L130.55 92.39L130.58 92.42Q128.58 92.62 126.52 91.79L126.52 91.80L126.55 91.82Q126.00 90.59 126.14 88.81L126.29 88.96L126.22 88.88Q126.41 85.92 128.57 83.72L128.73 83.88L128.61 83.76Q130.81 81.59 133.69 81.80ZM134.07 64.68L134.08 64.68L134.14 64.74Q135.65 64.60 136.61 64.87L136.60 64.87L136.53 66.24L136.47 66.18Q136.61 68.86 134.96 70.68L134.96 70.68L134.93 70.64Q133.29 72.48 130.82 72.13L130.79 72.11L130.66 71.97Q128.93 72.03 128.18 71.62L128.11 71.55L128.24 71.68Q128.21 71.24 128.01 70.01L127.93 69.93L127.92 69.92Q127.38 67.32 129.57 65.81L129.62 65.86L129.74 65.97Q131.50 64.57 134.04 64.64Z"/><path d="M17 43 C191 51,158 128,336 41" stroke="#e17855" fill="none"/></svg>