<svg xmlns="http://www.w3.org/2000/svg" width="342" height="140" viewBox="0,0,342,140"><path d="M8 104 C169 22,190 76,335 51" stroke="#e273aa" fill="none"/><path d="M12 107 C181 12,166 56,327 33" stroke="#d95374" fill="none"/><path d="M2 90 C182 116,152 35,340 69" stroke="#d0e985" fill="none"/><path d="M19 48 C168 97,159 14,332 108" stroke="#91ed72" fill="none"/><path d="M18 58 C185 66,175 82,330 27" stroke="#4cea9b" fill="none"/><path d="M4 59 C172 112,157 33,339 134" stroke="#6969e6" fill="none"/><path d="M18 93 C178 26,178 90,328 77" stroke="#eda48b" fill="none"/><path d="M5 121 C170 94,186 106,323 125" stroke="#7654dd" fill="none"/><path d="M8 32 C162 104,178 31,330 45" stroke="#eb89ba" fill="none"/><path d="M18 131 C157 136,157 139,321 121" stroke="#e1653b" fill="none"/><path d="M19 47 C159 123,172 53,325 117" stroke="#9379e1" fill="none"/><path d="M12 30 C159 57,164 27,329 3" stroke="#ef8aef" fill="none"/><path d="M11 97 C174 78,157 63,336 32" stroke="#52e9c3" fill="none"/><path d="M3 88 C184 126,185 40,322 115" stroke="#bbdf4d" fill="none"/><path fill="#91dd45" d="M131.54 76.44L131.49 76.39L131.43 76.34Q128.72 76.49 126.85 78.54L126.69 78.38L126.75 78.43Q124.86 80.46 124.62 83.38L124.65 83.41L124.77 83.53Q124.36 86.69 126.23 88.24L126.34 88.35L126.34 88.35Q128.04 89.72 131.31 89.60L131.36 89.65L131.32 89.61Q134.94 89.43 136.40 87.97L136.40 87.97L136.37 87.93Q138.06 85.83 137.89 83.02L137.85 82.98L137.85 82.99Q137.63 80.08 135.97 78.24L135.93 78.20L135.91 78.19Q134.38 76.48 131.58 76.48ZM131.38 61.84L131.44 61.90L131.38 61.84Q129.24 61.69 127.20 62.45L127.17 62.43L127.28 62.54Q125.21 63.69 125.56 66.55L125.58 66.56L125.60 66.59Q126.35 72.31 131.50 72.31L131.55 72.36L131.61 72.42Q133.96 72.66 135.48 70.91L135.35 70.78L135.41 70.85Q137.00 69.16 137.06 66.76L136.98 66.69L137.09 66.79Q137.23 64.12 136.12 63.19L135.99 63.06L136.00 63.07Q133.40 61.76 131.41 61.87ZM131.07 93.51L131.12 93.56L126.39 93.51L126.28 93.40Q123.98 93.44 121.94 92.10L122.06 92.22L121.96 92.12Q119.94 90.45 120.18 86.07L120.17 86.06L120.15 86.04Q120.84 75.51 126.39 73.99L126.34 73.93L126.32 73.91Q122.78 72.48 120.74 64.24L120.91 64.41L120.73 64.23Q120.29 62.16 120.41 60.93L120.44 60.96L120.47 60.99Q120.98 57.75 126.65 57.70L126.50 57.55L126.61 57.65Q133.12 57.56 135.34 57.86L135.22 57.73L135.35 57.86Q141.14 58.56 141.84 61.66L141.89 61.71L141.90 61.72Q142.07 62.65 142.07 63.24L142.13 63.30L142.15 63.32Q142.02 64.24 141.73 65.18L141.78 65.23L141.70 65.15Q140.78 71.65 136.28 73.99L136.42 74.13L136.41 74.12Q141.78 75.34 142.54 83.47L142.56 83.49L142.42 83.35Q142.53 83.69 142.59 85.68L142.48 85.57L142.59 85.68Q142.71 89.89 140.25 91.53L140.11 91.38L140.22 91.49Q138.04 92.76 131.02 93.46ZM134.49 96.99L134.55 97.05L139.67 97.14L139.67 97.14Q142.37 97.33 144.71 96.22L144.63 96.14L144.70 96.21Q146.44 95.09 146.56 92.22L146.50 92.16L146.49 92.15Q146.57 90.48 145.99 87.50L145.99 87.50L146.12 87.64Q144.68 80.47 141.47 77.60L141.42 77.56L141.06 76.90L140.91 76.64L140.57 76.12L140.54 76.09Q143.10 74.03 144.50 67.65L144.50 67.66L144.45 67.61Q144.41 66.98 144.53 65.69L144.64 65.81L144.65 65.82Q144.69 64.68 144.57 63.75L144.67 63.85L144.61 63.79Q144.46 61.65 142.64 60.89L142.65 60.90L142.58 60.77L142.38 60.69L142.31 60.61Q141.84 59.44 140.03 58.21L140.12 58.31L140.27 58.40L140.17 58.29Q137.05 57.16 130.79 56.87L130.82 56.90L130.94 57.02Q128.45 56.75 126.35 56.93L126.36 56.93L126.48 57.06Q125.24 57.11 123.25 57.34L123.26 57.35L123.08 57.16Q120.12 57.77 119.77 60.28L119.78 60.30L119.84 60.35Q119.81 61.15 119.87 62.38L119.90 62.41L119.87 62.38Q120.09 63.24 120.97 66.87L120.93 66.83L120.96 66.86Q122.10 71.74 124.79 73.78L124.75 73.75L124.83 73.82L125.01 74.00Q120.71 75.96 119.89 83.91L119.81 83.83L119.74 83.77Q119.63 87.33 119.63 88.73L119.45 88.55L119.54 88.65Q119.65 91.39 121.46 92.79L121.45 92.78L121.43 92.76Q121.59 92.86 122.00 93.16L122.04 93.19L122.05 93.20Q123.58 96.66 134.51 97.01ZM134.12 80.13L133.96 79.97L134.05 80.07Q135.54 80.04 136.89 80.74L136.83 80.68L136.78 80.63Q137.31 82.10 137.25 82.92L137.30 82.97L137.36 83.02Q137.41 83.48 137.41 83.95L137.42 83.96L137.47 84.01Q137.42 87.59 133.91 88.87L133.83 88.79L133.93 88.89Q132.67 89.33 131.44 89.15L131.48 89.18L131.42 89.12Q129.67 89.25 127.92 88.55L127.96 88.59L127.88 88.51Q127.52 87.57 127.64 86.05L127.66 86.07L127.59 86.00Q127.95 83.67 129.80 81.80L129.83 81.84L129.70 81.71Q131.54 79.83 134.00 80.01ZM134.41 65.52L134.48 65.58L134.31 65.42Q135.54 65.24 136.36 65.48L136.38 65.50L136.41 66.76L136.35 66.70Q136.40 68.91 135.00 70.46L134.99 70.45L134.98 70.44Q133.57 71.98 131.46 71.69L131.62 71.85L131.50 71.73Q130.01 71.75 129.36 71.40L129.30 71.34L129.44 71.48Q129.27 70.96 129.10 69.91L129.07 69.88L129.17 69.98Q128.72 67.77 130.59 66.49L130.65 66.55L130.60 66.50Q132.30 65.51 134.46 65.57Z"/><path d="M18 19 C176 73,173 87,337 24" stroke="#3f3fde" fill="none"/><path d="M6 56 C186 97,182 2,336 74" stroke="#91e791" fill="none"/><path d="M20 59 C166 23,153 129,338 84" stroke="#9ae183" fill="none"/><path d="M3 83 C170 36,166 76,327 90" stroke="#afdf80" fill="none"/><path fill="#87f1f1" d="M75.63 89.77L75.64 89.77L75.78 89.91Q76.06 91.25 76.88 94.35L76.92 94.38L76.94 94.40Q70.48 92.39 63.41 92.80L63.35 92.74L63.43 92.82Q56.37 93.18 50.23 96.22L50.20 96.19L50.35 96.34Q50.54 95.13 50.60 95.25L50.61 95.26L50.66 95.31Q56.32 89.16 62.35 82.38L62.46 82.50L62.47 82.51Q69.22 74.82 71.03 67.63L71.09 67.69L71.10 67.69Q71.80 65.00 69.84 63.19L69.67 63.02L69.80 63.14Q67.76 61.25 65.01 61.49L65.09 61.56L65.04 61.52Q64.53 61.47 64.00 61.47L63.91 61.38L63.98 61.45Q61.63 61.43 59.70 62.84L59.71 62.85L59.70 62.84Q57.71 64.94 58.06 69.04L58.01 68.98L58.00 68.97Q55.33 68.52 53.45 67.82L53.48 67.85L53.53 67.90Q53.15 65.64 53.03 63.42L53.03 63.42L53.07 63.46Q52.91 60.90 53.84 59.15L53.85 59.16L53.92 59.22Q56.60 57.05 61.74 57.05L61.84 57.14L64.37 56.99L64.41 57.03Q67.93 57.10 69.39 57.27L69.35 57.23L69.48 57.36Q76.17 58.02 76.57 61.77L76.47 61.66L76.49 61.68Q76.71 62.66 76.59 63.89L76.41 63.70L76.52 63.81Q76.54 64.89 76.31 65.95L76.26 65.90L76.22 65.86Q73.61 78.22 61.98 88.74L62.06 88.82L62.09 88.85Q64.19 88.55 66.30 88.55L66.39 88.65L66.36 88.61Q71.24 88.53 75.62 89.75ZM74.81 57.84L74.79 57.82L74.85 57.88Q72.36 56.85 69.73 56.73L69.81 56.82L64.55 56.52L64.41 56.38Q57.67 56.07 54.28 57.77L54.19 57.68L54.27 57.76Q52.59 59.82 52.59 62.98L52.61 63.00L52.57 62.96Q52.67 64.12 53.14 68.44L53.12 68.42L53.10 68.40Q53.92 68.75 55.73 69.22L55.80 69.29L55.69 70.75L55.74 70.81Q55.74 71.57 55.86 72.39L55.75 72.28L55.79 72.32Q57.74 72.51 61.54 72.86L61.47 72.79L61.52 72.84Q61.43 72.23 61.43 71.71L61.44 71.71L61.43 71.71Q61.38 68.85 63.25 66.77L63.26 66.78L63.43 66.95Q65.31 64.88 68.06 65.06L68.05 65.05L68.04 65.04Q69.09 64.98 70.26 65.21L70.22 65.17L70.40 65.35Q70.49 65.86 70.61 66.50L70.62 66.51L70.66 66.55Q70.66 67.14 70.55 67.66L70.63 67.74L70.57 67.69Q68.65 75.00 61.87 82.43L61.93 82.49L61.88 82.44Q58.62 85.91 50.26 95.21L50.14 95.08L50.28 95.23Q49.88 96.40 49.35 97.27L49.40 97.32L49.29 97.21Q51.75 95.88 54.09 95.06L54.11 95.08L54.21 95.18Q53.00 95.96 51.54 98.24L51.60 98.30L51.53 98.22Q51.52 98.92 51.35 99.45L51.26 99.36L51.31 99.41Q58.70 96.16 67.12 96.45L67.17 96.50L67.08 96.41Q75.83 96.68 82.85 100.31L82.87 100.33L81.32 97.03L81.37 97.08Q80.29 94.95 79.88 93.72L79.89 93.73L79.99 93.83Q78.85 93.16 76.98 92.51L76.92 92.46L76.93 92.46Q76.68 91.34 76.10 89.24L76.13 89.26L76.15 89.29Q72.78 88.44 69.28 88.14L69.25 88.12L69.28 88.14Q76.48 81.14 78.82 68.45L78.86 68.50L79.03 63.93L79.08 63.98Q78.98 61.25 77.11 60.19L77.05 60.14L77.12 60.27L77.09 60.23Q77.01 60.10 76.89 60.10L76.82 60.02L76.79 59.99Q76.58 58.85 74.88 57.91Z"/><path d="M20 50 C190 70,163 71,322 11" stroke="#e97676" fill="none"/><path d="M1 94 C172 10,183 118,325 111" stroke="#69ddc0" fill="none"/><path d="M14 103 C187 45,192 79,333 81" stroke="#9deb83" fill="none"/><path d="M10 118 C180 91,182 100,323 88" stroke="#3b66e6" fill="none"/><path d="M15 136 C180 77,182 139,336 5" stroke="#e43ee4" fill="none"/><path fill="#663edf" d="M273.39 73.32L273.42 73.35L273.50 73.43Q274.70 73.40 276.86 73.17L276.73 73.03L276.70 73.01Q276.83 74.19 276.83 75.18L276.77 75.12L276.78 77.06L276.68 76.96Q275.52 77.09 274.24 77.21L274.16 77.13L274.19 77.16Q272.89 77.20 271.60 77.15L271.66 77.20L271.51 77.05Q267.20 86.60 261.94 93.67L261.85 93.58L261.98 93.71Q258.03 94.61 256.04 95.55L256.10 95.61L256.02 95.53Q262.32 86.74 267.00 77.10L267.15 77.25L263.10 77.24L263.08 77.22Q263.13 75.22 262.95 73.17L262.92 73.14L262.78 73.00Q265.79 73.32 268.94 73.32L268.87 73.25L271.89 67.67L271.98 67.76Q273.44 64.77 275.31 62.32L275.25 62.26L275.22 62.23Q272.93 62.57 270.47 62.57L270.39 62.49L270.33 62.42Q261.14 62.59 255.35 59.20L255.18 59.03L254.36 56.57L254.21 56.42Q253.86 55.31 253.27 53.96L253.26 53.95L253.12 53.81Q259.93 57.99 268.70 58.34L268.65 58.29L268.60 58.24Q276.51 58.61 284.40 55.57L284.31 55.48L284.45 55.62Q284.05 56.15 283.29 57.49L283.37 57.58L283.29 57.50Q277.72 64.79 273.33 73.26ZM285.82 59.68L285.82 59.67L287.41 56.64L287.25 56.48Q285.77 57.23 283.20 58.34L283.25 58.39L283.64 58.02L283.61 57.99Q283.75 57.72 283.92 57.54L283.90 57.52L283.84 57.46Q284.42 56.41 285.53 54.36L285.71 54.53L285.57 54.40Q277.49 58.01 268.66 57.66L268.54 57.54L268.67 57.67Q259.42 57.25 252.11 52.69L252.04 52.61L252.03 52.60Q253.73 55.58 255.01 59.68L254.88 59.55L254.86 59.52Q256.64 60.60 257.87 61.07L257.85 61.06L257.89 61.09Q258.16 61.65 258.86 64.52L258.87 64.53L258.79 64.44Q263.68 66.41 272.16 66.18L272.07 66.10L272.08 66.10Q271.63 67.00 268.59 72.79L268.53 72.73L268.68 72.88Q265.44 72.79 262.40 72.50L262.33 72.43L262.51 72.61Q262.53 73.80 262.53 75.14L262.55 75.17L262.46 77.71L265.06 77.73L265.07 79.91L265.17 80.01Q259.12 91.32 254.85 96.82L254.82 96.78L254.90 96.86Q257.32 95.66 259.83 94.90L259.78 94.84L259.75 94.82Q258.69 96.21 256.59 98.85L256.69 98.95L256.61 98.87Q261.45 97.16 265.20 96.81L265.21 96.82L265.29 96.91Q269.66 90.99 274.46 80.58L274.55 80.68L279.78 80.94L279.69 80.85Q279.67 79.54 279.67 78.14L279.75 78.22L279.65 75.37L279.73 75.45Q279.31 75.44 278.46 75.50L278.46 75.49L278.50 75.53Q277.64 75.59 277.23 75.59L277.14 75.49L277.11 75.46Q277.12 75.29 277.18 75.06L277.29 75.17L277.11 74.58L277.27 74.74Q281.01 66.73 285.75 59.60Z"/><path fill="#c6e46b" d="M194.52 93.61L194.44 93.53L194.39 93.48Q192.28 93.65 189.88 93.01L189.99 93.12L189.92 93.04Q188.04 91.64 187.81 89.12L187.76 89.07L187.79 89.10Q187.84 88.92 188.13 84.88L188.04 84.79L187.95 84.70Q189.64 84.52 192.73 83.93L192.70 83.90L192.52 85.18L192.46 85.12Q192.01 87.77 194.18 88.65L194.20 88.67L194.09 88.56Q195.35 89.12 198.57 89.12L198.66 89.22L198.56 89.12Q200.98 88.85 201.28 88.73L201.42 88.88L201.38 88.83Q202.73 88.55 203.84 87.79L203.90 87.85L203.88 87.83Q206.11 86.44 205.82 83.22L205.73 83.13L205.81 83.21Q205.45 79.40 202.79 77.00L202.79 77.01L202.73 76.95Q200.09 74.57 196.29 74.57L196.31 74.59L196.33 74.26L196.42 74.35Q196.87 74.16 198.22 74.04L198.32 74.14L198.22 74.04Q201.29 74.01 203.39 72.11L203.34 72.06L203.31 72.03Q205.31 70.02 205.54 67.16L205.69 67.31L205.54 67.16Q205.67 66.64 205.67 66.12L205.79 66.23L205.79 66.24Q205.82 63.93 203.72 62.53L203.66 62.47L203.60 62.41Q201.84 61.30 199.39 61.47L199.35 61.43L199.37 61.45Q197.29 61.13 195.42 61.77L195.55 61.90L195.48 61.83Q193.26 62.65 192.79 64.41L192.75 64.36L192.70 64.31Q192.50 65.57 192.61 66.74L192.55 66.68L192.69 66.82Q191.08 66.43 187.92 65.32L187.81 65.21L187.91 65.31Q187.46 62.64 187.52 61.35L187.47 61.31L187.62 61.45Q187.76 59.08 189.40 58.03L189.45 58.08L189.43 58.06Q191.63 57.16 194.09 57.16L194.06 57.14L194.01 57.09Q198.81 56.98 203.66 57.39L203.70 57.42L203.69 57.42Q211.46 58.06 211.00 63.84L211.11 63.95L210.93 63.77Q210.99 66.23 210.23 68.63L210.17 68.57L210.12 68.52Q208.74 73.28 205.12 74.68L205.16 74.72L205.05 74.62Q209.19 75.54 210.13 80.69L209.99 80.55L210.04 80.60Q210.39 82.36 210.51 85.45L210.62 85.56L210.49 85.43Q210.79 92.34 203.71 93.04L203.79 93.12L203.71 93.04Q202.65 93.20 194.52 93.61ZM202.52 97.05L202.39 96.92L202.39 96.92Q203.45 97.10 207.83 97.22L207.73 97.11L207.87 97.26Q210.49 97.30 213.00 96.31L212.97 96.28L213.08 96.39Q214.86 94.89 214.57 92.20L214.51 92.15L214.54 92.18Q214.32 90.08 213.85 87.39L213.87 87.41L213.96 87.50Q212.85 80.60 209.87 78.09L209.83 78.05L209.45 77.38L209.51 77.38L209.47 77.34Q212.14 75.10 213.31 68.37L213.33 68.40L213.33 68.40Q213.38 67.69 213.56 66.23L213.54 66.21L213.50 66.17Q213.61 64.99 213.49 63.94L213.53 63.98L213.43 63.88Q213.22 61.33 211.23 60.28L211.31 60.36L211.15 60.31L211.25 60.41Q210.67 58.78 208.92 57.96L208.98 58.03L208.96 58.00Q206.63 56.96 198.73 56.49L198.64 56.40L198.83 56.58Q196.21 56.42 193.76 56.42L193.63 56.30L193.78 56.45Q191.21 56.33 188.87 57.33L188.98 57.43L188.89 57.35Q186.95 58.45 186.95 61.14L187.02 61.20L187.14 61.33Q187.02 60.56 187.43 65.71L187.51 65.79L187.47 65.75Q187.92 65.85 190.43 66.78L190.43 66.78L190.51 66.86Q190.40 67.56 190.34 68.32L190.43 68.42L190.39 68.37Q190.41 69.16 190.47 69.97L190.35 69.86L190.38 69.89Q193.25 70.59 196.35 70.77L196.35 70.77L196.19 70.61Q196.21 67.65 197.91 66.36L197.85 66.30L197.80 66.25Q199.09 65.27 202.19 64.92L202.34 65.07L202.16 64.88Q204.08 65.05 204.96 65.34L204.87 65.26L204.85 65.24Q204.89 65.39 204.94 65.57L204.91 65.54L204.92 65.83L205.09 66.70L205.12 66.73Q205.17 67.07 205.11 67.31L205.02 67.22L205.12 67.32Q204.98 69.93 202.64 71.74L202.69 71.79L202.66 71.76Q201.28 73.18 198.18 73.47L198.17 73.47L198.16 73.45Q197.08 73.72 195.74 73.72L195.67 73.66L195.72 73.70Q195.73 74.18 195.96 75.23L196.00 75.27L196.06 75.33Q198.59 75.17 200.81 76.28L200.90 76.38L200.78 76.43L198.37 76.71L198.25 76.59Q198.31 77.11 198.48 78.05L198.46 78.03L198.58 78.14Q201.85 78.02 204.48 80.07L204.50 80.09L204.48 80.07Q204.77 80.59 205.23 83.10L205.22 83.09L205.27 83.14Q205.49 87.57 200.99 88.21L201.15 88.37L201.09 88.31Q197.87 88.72 196.99 88.66L196.99 88.66L197.05 88.71Q196.26 88.45 195.44 88.33L195.37 88.26L195.45 87.64L195.69 87.01L195.68 86.36L195.80 85.95L195.78 85.93Q194.23 85.96 193.00 86.25L193.09 86.33L193.02 86.26Q192.94 85.89 192.94 85.60L193.06 85.72L193.00 85.66Q193.12 85.43 193.12 85.08L192.97 84.93L193.06 85.01Q193.18 84.43 193.41 83.32L193.32 83.23L193.42 83.33Q190.48 83.61 187.61 84.13L187.56 84.08L187.71 84.23Q187.64 84.91 187.46 86.64L187.48 86.65L187.48 86.66Q187.25 88.33 187.25 89.26L187.19 89.21L187.25 89.27Q187.48 92.53 189.58 93.70L189.52 93.64L189.45 93.57Q191.80 97.14 199.05 96.85L198.97 96.77L199.06 96.87Q200.21 96.85 202.55 97.08Z"/><path d="M19 45 C166 121,158 53,335 102" stroke="#82e7ce" fill="none"/><path d="M8 48 C172 33,183 27,326 51" stroke="#54b7d8" fill="none"/><path d="M3 18 C154 48,155 65,326 62" stroke="#50c0e6" fill="none"/><path d="M1 27 C153 44,182 16,327 26" stroke="#3be666" fill="none"/><path d="M14 19 C191 21,189 125,333 13" stroke="#dd5454" fill="none"/><path d="M16 116 C182 17,157 26,330 135" stroke="#e4bd48" fill="none"/><path d="M17 38 C184 104,150 137,332 93" stroke="#eb7ed0" fill="none"/><path d="M10 29 C156 68,180 12,328 36" stroke="#6feb8e" fill="none"/><path d="M8 12 C164 55,181 62,336 132" stroke="#e6e688" fill="none"/><path d="M5 113 C189 84,174 31,338 71" stroke="#9d84eb" fill="none"/><path d="M19 65 C183 2,185 95,338 50" stroke="#577bea" fill="none"/><path d="M3 22 C177 112,158 55,330 83" stroke="#e99e52" fill="none"/><path d="M2 57 C183 27,184 128,329 60" stroke="#88d6f0" fill="none"/><path d="M9 59 C160 28,185 64,334 16" stroke="#7cafe3" fill="none"/><path d="M9 42 C174 119,155 61,340 13" stroke="#84df66" fill="none"/><path d="M19 45 C168 126,189 58,328 110" stroke="#e637e6" fill="none"/><path d="M16 102 C160 135,170 76,330 17" stroke="#60eba5" fill="none"/></svg>