<svg xmlns="http://www.w3.org/2000/svg" width="342" height="140" viewBox="0,0,342,140"><path d="M18 82 C171 111,163 116,329 122" stroke="#e5569e" fill="none"/><path d="M9 108 C191 109,165 21,328 58" stroke="#7aea96" fill="none"/><path d="M20 105 C190 61,178 134,321 76" stroke="#44b7de" fill="none"/><path d="M15 127 C153 64,185 52,339 107" stroke="#6ee26e" fill="none"/><path d="M2 14 C185 36,176 37,321 94" stroke="#e88282" fill="none"/><path d="M2 102 C174 133,183 76,326 53" stroke="#7b5adc" fill="none"/><path d="M13 10 C187 87,170 50,334 16" stroke="#5151e0" fill="none"/><path d="M9 109 C152 122,158 75,323 132" stroke="#e84e4e" fill="none"/><path d="M9 97 C153 13,176 87,323 63" stroke="#6d47df" fill="none"/><path d="M12 46 C153 72,187 52,322 102" stroke="#e7e769" fill="none"/><path d="M13 38 C185 27,179 70,335 128" stroke="#6cc9e9" fill="none"/><path d="M17 27 C191 30,191 40,323 117" stroke="#89e5b7" fill="none"/><path d="M20 130 C189 32,177 53,332 79" stroke="#5fc1e1" fill="none"/><path d="M7 134 C162 110,191 24,334 58" stroke="#7979eb" fill="none"/><path d="M11 134 C176 64,170 10,333 64" stroke="#4fe274" fill="none"/><path d="M17 90 C191 124,155 31,337 86" stroke="#f18cf1" fill="none"/><path d="M14 72 C163 64,171 9,322 46" stroke="#e4e475" fill="none"/><path fill="#d0eb7e" d="M171.37 73.30L171.31 73.24L171.47 73.40Q172.56 73.26 174.72 73.02L174.70 73.00L174.85 73.15Q174.77 74.13 174.77 75.12L174.72 75.07L174.76 77.04L174.78 77.06Q173.50 77.07 172.21 77.18L172.19 77.16L172.23 77.20Q170.87 77.18 169.58 77.12L169.64 77.19L169.57 77.11Q165.16 86.56 159.90 93.63L160.00 93.74L159.91 93.65Q156.11 94.69 154.12 95.63L154.18 95.69L154.09 95.60Q160.46 86.89 165.14 77.24L165.17 77.27L161.11 77.25L161.09 77.22Q161.02 75.11 160.84 73.06L160.90 73.12L160.95 73.16Q163.72 73.25 166.88 73.25L167.05 73.42L169.93 67.71L169.79 67.57Q171.33 64.66 173.20 62.21L173.33 62.34L173.18 62.19Q170.94 62.58 168.49 62.58L168.52 62.62L168.49 62.59Q159.14 62.59 153.35 59.20L153.29 59.14L152.30 56.51L152.31 56.52Q151.76 55.21 151.18 53.87L151.27 53.96L151.13 53.82Q157.86 57.92 166.63 58.27L166.59 58.23L166.65 58.29Q174.50 58.60 182.39 55.56L182.32 55.49L182.35 55.52Q182.19 56.29 181.43 57.63L181.30 57.50L181.42 57.62Q175.88 64.95 171.50 73.43ZM183.71 59.57L183.70 59.56L185.30 56.53L185.41 56.65Q183.81 57.27 181.24 58.38L181.22 58.36L181.66 58.04L181.53 57.91Q181.67 57.65 181.85 57.47L181.88 57.50L181.89 57.51Q182.56 56.55 183.67 54.50L183.57 54.39L183.55 54.38Q175.38 57.90 166.56 57.55L166.63 57.63L166.70 57.70Q157.33 57.16 150.02 52.60L150.12 52.70L150.08 52.66Q151.56 55.42 152.85 59.51L152.96 59.63L152.91 59.57Q154.53 60.49 155.75 60.96L155.86 61.06L155.92 61.12Q156.17 61.66 156.87 64.53L156.71 64.37L156.86 64.52Q161.66 66.39 170.14 66.16L170.05 66.07L170.12 66.15Q169.65 67.02 166.61 72.80L166.57 72.76L166.55 72.74Q163.44 72.80 160.40 72.50L160.47 72.57L160.34 72.44Q160.62 73.89 160.62 75.24L160.55 75.17L160.59 77.84L163.06 77.73L163.19 80.03L163.17 80.01Q157.12 91.32 152.85 96.81L152.80 96.76L152.75 96.72Q155.32 95.66 157.83 94.90L157.77 94.84L157.69 94.75Q156.80 96.32 154.69 98.95L154.64 98.90L154.69 98.95Q159.44 97.15 163.19 96.80L163.19 96.80L163.16 96.77Q167.69 91.02 172.48 80.61L172.41 80.54L177.73 80.88L177.72 80.88Q177.62 79.49 177.62 78.09L177.64 78.11L177.60 75.32L177.66 75.38Q177.25 75.38 176.40 75.44L176.46 75.49L176.36 75.39Q175.62 75.56 175.21 75.56L175.20 75.55L175.24 75.59Q175.14 75.32 175.20 75.08L175.19 75.07L175.17 74.64L175.23 74.71Q179.08 66.80 183.82 59.67Z"/><path d="M7 119 C188 41,167 68,341 95" stroke="#6fdc4b" fill="none"/><path fill="#58d999" d="M64.43 89.89L64.33 89.80L64.34 89.81Q64.84 91.35 65.66 94.45L65.67 94.47L65.59 94.38Q59.06 92.30 51.99 92.71L51.99 92.71L52.11 92.83Q45.05 93.19 38.91 96.23L38.91 96.24L38.99 96.32Q39.24 95.16 39.30 95.28L39.36 95.34L39.25 95.23Q45.00 89.17 51.02 82.39L51.05 82.42L51.09 82.46Q57.79 74.72 59.61 67.53L59.72 67.64L59.66 67.59Q60.37 64.90 58.41 63.09L58.36 63.04L58.33 63.01Q56.39 61.22 53.64 61.45L53.72 61.53L53.70 61.51Q53.12 61.39 52.59 61.39L52.60 61.41L52.72 61.52Q50.36 61.50 48.43 62.90L48.48 62.95L48.35 62.82Q46.42 64.98 46.77 69.08L46.77 69.07L46.66 68.97Q44.04 68.57 42.17 67.87L42.23 67.93L42.16 67.85Q41.84 65.67 41.73 63.45L41.72 63.44L41.80 63.52Q41.68 61.01 42.61 59.25L42.55 59.18L42.49 59.12Q45.32 57.10 50.46 57.10L50.52 57.16L53.22 57.17L53.15 57.10Q56.57 57.07 58.03 57.24L58.11 57.33L58.03 57.24Q64.67 57.87 65.08 61.61L65.22 61.74L65.23 61.76Q65.21 62.50 65.09 63.72L65.10 63.73L65.17 63.80Q65.16 64.84 64.93 65.90L64.98 65.94L64.93 65.90Q62.45 78.39 50.82 88.91L50.68 88.77L50.68 88.77Q52.93 88.63 55.04 88.63L54.95 88.54L54.94 88.53Q59.99 88.61 64.38 89.84ZM63.41 57.77L63.43 57.79L63.58 57.94Q60.93 56.75 58.30 56.63L58.48 56.82L53.16 56.46L53.18 56.49Q46.36 56.10 42.97 57.80L42.86 57.69L42.97 57.80Q41.19 59.75 41.19 62.91L41.18 62.90L41.18 62.90Q41.28 64.06 41.75 68.38L41.81 68.44L41.82 68.45Q42.69 68.86 44.50 69.33L44.47 69.29L44.42 70.82L44.38 70.78Q44.39 71.55 44.51 72.37L44.41 72.27L44.53 72.39Q46.46 72.57 50.26 72.92L50.20 72.86L50.19 72.85Q50.24 72.37 50.24 71.84L50.15 71.76L50.12 71.73Q50.14 68.94 52.01 66.87L52.08 66.93L52.07 66.92Q53.83 64.74 56.58 64.91L56.65 64.99L56.58 64.91Q57.86 65.08 59.03 65.32L58.94 65.23L58.94 65.23Q59.10 65.80 59.22 66.44L59.31 66.53L59.19 66.41Q59.29 67.09 59.17 67.62L59.14 67.59L59.14 67.59Q57.35 75.04 50.56 82.46L50.53 82.43L50.48 82.38Q47.27 85.89 38.91 95.19L38.78 95.05L38.77 95.04Q38.64 96.49 38.11 97.37L38.10 97.36L38.00 97.25Q40.47 95.92 42.81 95.11L42.82 95.12L42.88 95.18Q41.74 96.03 40.28 98.31L40.19 98.22L40.30 98.33Q40.18 98.91 40.01 99.44L39.87 99.30L39.82 99.25Q47.45 96.24 55.87 96.54L55.84 96.50L55.85 96.51Q64.53 96.72 71.55 100.34L71.61 100.41L70.06 97.10L69.95 96.99Q69.12 95.11 68.71 93.88L68.63 93.80L68.54 93.71Q67.42 93.06 65.55 92.42L65.74 92.61L65.71 92.58Q65.32 91.31 64.73 89.20L64.75 89.22L64.82 89.29Q61.46 88.44 57.95 88.15L57.98 88.18L57.87 88.07Q65.07 81.06 67.40 68.37L67.47 68.44L67.77 64.00L67.79 64.02Q67.69 61.30 65.82 60.24L65.82 60.24L65.67 60.15L65.76 60.24Q65.59 60.01 65.48 60.01L65.52 60.05L65.44 59.98Q65.13 58.73 63.43 57.79Z"/><path fill="#e13bb8" d="M278.88 61.69L278.87 61.68L276.60 61.98L276.63 62.01Q273.12 62.12 272.77 65.22L272.84 65.30L272.66 65.11Q272.55 66.23 272.61 67.75L272.78 67.92L272.66 67.80Q272.79 70.86 274.72 72.90L274.71 72.89L274.73 72.92Q276.66 74.96 279.58 74.73L279.58 74.73L279.46 74.60Q282.79 74.54 283.96 73.14L283.92 73.10L283.96 73.14Q285.45 71.59 285.86 68.14L285.84 68.12L285.87 68.16Q286.23 64.65 284.30 63.37L284.40 63.47L284.35 63.42Q282.95 62.13 278.86 61.66ZM288.30 76.02L288.22 75.94L286.16 79.37L286.24 79.46Q282.04 86.77 276.25 93.03L276.32 93.10L276.26 93.04Q273.82 93.34 269.67 94.57L269.67 94.57L269.66 94.57Q277.91 84.98 282.77 77.62L282.69 77.54L282.67 77.52Q281.17 78.59 278.65 78.71L278.58 78.64L278.67 78.72Q273.90 78.80 271.56 75.76L271.67 75.87L271.57 75.77Q269.83 73.45 268.13 66.43L268.09 66.39L268.04 66.35Q267.98 65.58 267.75 64.15L267.86 64.26L267.87 64.27Q267.51 62.72 267.51 62.01L267.69 62.19L267.69 62.19Q267.65 59.41 269.29 58.47L269.26 58.44L269.31 58.49Q271.04 57.18 273.90 57.18L273.99 57.27L274.06 57.34Q278.94 57.30 278.94 57.30L278.89 57.26L278.90 57.27Q282.23 57.32 284.15 57.61L284.18 57.63L284.11 57.56Q287.37 57.95 288.77 58.71L288.85 58.79L288.85 58.80Q291.00 60.01 291.29 62.70L291.21 62.62L291.25 62.66Q291.23 62.99 290.94 67.08L290.91 67.06L290.85 67.00Q290.43 70.43 290.08 71.72L290.00 71.64L289.92 71.55Q289.50 73.89 288.33 76.05ZM291.20 79.68L291.27 79.75L291.23 79.71Q292.79 76.35 293.60 69.75L293.49 69.64L293.53 69.67Q293.88 66.22 293.82 64.88L293.80 64.86L293.83 64.89Q293.80 62.05 291.99 60.65L291.91 60.57L291.44 60.39L291.45 60.40Q291.10 59.30 289.70 58.30L289.71 58.32L289.72 58.32Q286.26 56.85 278.90 56.62L278.85 56.57L278.85 56.57Q277.30 56.48 273.56 56.48L273.63 56.55L273.57 56.49Q271.03 56.64 268.75 57.69L268.74 57.69L268.74 57.69Q266.98 58.91 267.10 61.71L266.96 61.58L267.03 61.65Q267.40 63.13 267.69 66.23L267.68 66.21L267.55 66.08Q268.59 70.22 269.00 71.51L268.99 71.50L269.05 71.56Q269.84 74.34 271.30 76.33L271.39 76.41L271.30 76.32Q271.72 76.86 272.30 77.44L272.22 77.36L272.31 77.45Q272.68 78.11 273.67 79.52L273.68 79.52L273.60 79.45Q275.94 81.60 278.92 81.90L278.88 81.85L278.91 81.88Q276.07 86.06 273.67 88.98L273.54 88.86L268.12 95.71L268.13 95.72Q271.60 94.58 274.12 94.05L273.97 93.90L274.07 94.00Q272.85 95.30 270.46 97.93L270.41 97.88L270.46 97.93Q275.27 96.61 280.07 96.55L280.00 96.49L279.95 96.43Q283.57 92.51 290.23 81.40L290.14 81.31L290.19 81.48L290.17 81.46Q290.56 80.33 291.09 79.57ZM281.95 65.46L281.97 65.47L281.98 65.49Q282.80 65.20 283.50 65.37L283.57 65.44L283.66 65.53Q284.64 65.69 285.23 65.87L285.07 65.71L285.07 65.71Q285.42 66.47 285.53 67.11L285.44 67.02L285.39 66.97Q285.50 67.61 285.33 68.19L285.48 68.34L285.45 68.31Q285.27 70.82 283.45 72.52L283.43 72.49L283.56 72.62Q281.98 74.08 279.46 74.02L279.56 74.12L279.48 74.04Q278.93 74.13 276.59 73.66L276.60 73.67L276.57 73.64Q276.23 72.31 276.23 71.20L276.29 71.26L276.29 71.25Q276.09 70.77 276.09 70.42L276.01 70.33L276.05 70.38Q276.05 66.98 279.56 65.75L279.56 65.76L279.56 65.76Q280.60 65.40 281.89 65.40Z"/><path d="M4 31 C161 4,173 19,327 118" stroke="#48e496" fill="none"/><path d="M2 41 C179 76,174 36,341 39" stroke="#7653de" fill="none"/><path d="M19 85 C168 105,190 112,322 90" stroke="#e6cf88" fill="none"/><path d="M11 48 C189 74,166 130,340 68" stroke="#e8e871" fill="none"/><path d="M9 112 C177 50,160 89,341 32" stroke="#68c0dd" fill="none"/><path d="M6 126 C177 127,188 76,322 103" stroke="#a0e35d" fill="none"/><path d="M10 20 C175 47,175 74,340 113" stroke="#e6cd83" fill="none"/><path fill="#39e439" d="M218.05 93.53L218.16 93.64L218.09 93.58Q211.89 93.98 210.37 90.42L210.38 90.43L210.42 90.47Q211.50 88.91 213.89 86.17L213.92 86.19L213.98 86.25Q214.67 89.28 219.29 89.46L219.24 89.40L219.38 89.55Q224.47 89.56 226.99 87.51L226.93 87.45L227.03 87.55Q229.10 85.00 228.98 80.85L229.07 80.94L229.13 81.00Q228.88 73.20 221.51 73.55L221.39 73.44L221.51 73.55Q217.23 73.84 214.54 75.77L214.55 75.77L213.98 75.44L213.58 75.15L213.60 75.17Q214.15 70.35 213.98 66.14L213.99 66.16L214.05 66.21Q213.80 62.11 213.28 57.02L213.27 57.02L213.26 57.00Q218.86 58.46 224.71 58.28L224.75 58.32L224.74 58.31Q230.54 58.14 236.03 56.22L236.14 56.32L235.23 58.62L235.28 58.68Q234.82 59.86 234.53 61.14L234.41 61.02L234.37 60.99Q229.71 62.69 223.75 62.69L223.72 62.66L223.77 62.72Q221.51 62.68 219.23 62.44L219.22 62.43L219.20 62.41Q218.98 63.36 218.45 70.20L218.61 70.36L218.51 70.27Q219.84 69.60 222.99 69.37L222.98 69.35L222.99 69.36Q228.71 69.71 230.93 72.28L231.00 72.34L230.86 72.21Q233.05 74.63 233.46 80.53L233.37 80.44L233.38 80.45Q233.88 86.98 232.01 90.08L232.01 90.07L231.97 90.04Q228.82 92.91 223.74 93.26L223.82 93.35L223.89 93.42Q222.18 93.35 218.09 93.58ZM227.39 97.09L227.50 97.20L227.33 97.03Q232.60 97.16 235.53 95.46L235.53 95.46L235.53 95.47Q237.23 93.31 237.23 90.09L237.05 89.91L237.07 89.93Q237.19 85.32 235.73 79.00L235.62 78.89L235.72 79.00Q235.18 76.35 233.31 74.19L233.31 74.19L233.24 74.18L232.89 73.71L232.34 73.39L232.34 73.40Q231.83 72.24 230.84 71.19L230.88 71.23L230.98 71.40L230.99 71.40Q228.66 68.83 222.98 68.83L222.99 68.83L222.60 68.85L222.61 68.87Q222.72 67.98 223.01 66.28L222.83 66.11L222.85 66.13Q230.64 66.43 236.84 63.92L236.81 63.89L236.86 63.94Q237.43 61.71 238.89 57.38L238.88 57.37L235.61 58.78L235.76 58.92Q236.21 57.03 236.97 55.28L237.05 55.36L236.93 55.25Q231.19 57.63 224.87 57.74L224.88 57.75L224.77 57.64Q218.53 57.89 212.45 56.20L212.34 56.08L212.30 56.05Q213.47 62.94 213.47 69.73L213.40 69.65L213.42 69.67Q213.50 72.68 213.33 75.60L213.28 75.55L213.32 75.59Q213.74 75.90 214.61 76.36L214.49 76.24L214.63 76.38Q215.11 75.98 216.10 75.45L216.00 75.36L216.18 75.53Q215.93 76.51 215.58 78.85L215.64 78.91L215.76 79.03Q216.34 79.26 216.98 79.61L217.05 79.68L216.96 79.59Q221.24 76.91 224.10 76.91L224.18 76.99L224.04 76.85Q226.04 76.80 227.85 77.79L227.86 77.80L228.02 77.96Q228.54 79.53 228.60 80.99L228.53 80.93L228.49 80.88Q228.69 84.94 227.11 86.64L227.07 86.60L227.04 86.57Q224.91 88.42 221.46 88.77L221.60 88.90L221.55 88.86Q220.02 88.91 218.97 88.79L218.94 88.76L219.00 88.82Q217.79 88.72 216.62 88.19L216.51 88.08L216.42 87.70L216.32 87.95L216.33 87.96Q215.06 87.16 214.25 85.12L214.25 85.12L214.20 85.07Q212.17 87.25 209.60 90.52L209.56 90.49L209.75 90.67Q210.20 91.65 211.49 93.11L211.47 93.10L211.48 93.11Q212.98 95.78 217.31 96.54L217.40 96.63L217.28 96.51Q219.12 96.88 227.36 97.06Z"/><path d="M11 78 C169 22,177 125,328 135" stroke="#e8ca72" fill="none"/><path d="M3 68 C171 117,192 105,323 29" stroke="#bbdd54" fill="none"/><path d="M11 32 C167 77,152 89,339 43" stroke="#91e939" fill="none"/><path d="M14 69 C178 9,173 120,341 94" stroke="#ead289" fill="none"/><path d="M4 68 C184 38,184 64,339 62" stroke="#8565e6" fill="none"/><path d="M11 86 C161 71,164 122,335 100" stroke="#a2e98a" fill="none"/><path fill="#7cb2e8" d="M108.91 76.48L108.91 76.48L108.85 76.42Q105.95 76.38 104.07 78.43L104.12 78.47L104.18 78.53Q102.33 80.60 102.09 83.52L102.02 83.45L102.09 83.51Q101.80 86.79 103.67 88.34L103.64 88.31L103.66 88.33Q105.37 89.72 108.64 89.60L108.71 89.66L108.78 89.74Q112.27 89.43 113.73 87.97L113.85 88.08L113.73 87.96Q115.32 85.75 115.14 82.95L115.23 83.03L115.13 82.93Q115.03 80.14 113.36 78.30L113.33 78.27L113.43 78.37Q111.75 76.52 108.95 76.52ZM108.82 61.95L108.82 61.95L108.71 61.84Q106.65 61.77 104.60 62.53L104.51 62.44L104.64 62.56Q102.57 63.71 102.92 66.58L102.97 66.62L102.91 66.56Q103.78 72.40 108.92 72.40L108.85 72.32L108.77 72.24Q111.24 72.61 112.76 70.85L112.76 70.86L112.86 70.96Q114.38 69.21 114.44 66.81L114.40 66.77L114.27 66.64Q114.40 63.97 113.29 63.03L113.29 63.03L113.41 63.15Q110.72 61.74 108.73 61.86ZM108.47 93.58L108.39 93.50L103.76 93.55L103.63 93.42Q101.28 93.40 99.23 92.06L99.42 92.24L99.26 92.08Q97.28 90.46 97.52 86.08L97.42 85.97L97.48 86.04Q98.10 75.43 103.65 73.91L103.80 74.06L103.76 74.02Q100.27 72.64 98.22 64.39L98.22 64.38L98.25 64.42Q97.56 62.09 97.68 60.86L97.84 61.03L97.84 61.02Q98.26 57.70 103.93 57.64L103.83 57.55L103.92 57.63Q110.38 57.48 112.60 57.78L112.68 57.86L112.69 57.87Q118.50 58.59 119.20 61.69L119.21 61.70L119.17 61.66Q119.45 62.70 119.45 63.28L119.31 63.14L119.44 63.27Q119.47 64.36 119.18 65.29L119.07 65.18L119.13 65.24Q118.25 71.79 113.75 74.13L113.75 74.13L113.65 74.03Q119.09 75.32 119.85 83.44L119.74 83.33L119.77 83.37Q119.69 83.52 119.75 85.51L119.83 85.59L119.78 85.53Q120.03 89.88 117.58 91.52L117.58 91.53L117.52 91.46Q115.32 92.71 108.30 93.41ZM111.81 96.98L111.94 97.10L117.05 97.19L117.09 97.23Q119.71 97.33 122.05 96.22L122.00 96.17L121.99 96.17Q123.79 95.10 123.91 92.24L123.87 92.20L123.90 92.23Q123.89 90.47 123.31 87.49L123.40 87.58L123.33 87.51Q121.92 80.37 118.71 77.51L118.72 77.52L118.46 76.97L118.19 76.58L117.90 76.11L117.83 76.04Q120.42 74.02 121.83 67.65L121.78 67.60L121.77 67.60Q121.78 67.02 121.89 65.73L122.04 65.87L121.96 65.79Q122.03 64.69 121.91 63.76L122.03 63.87L121.87 63.72Q121.65 61.51 119.84 60.75L119.93 60.84L119.95 60.80L119.67 60.64L119.65 60.62Q119.27 59.54 117.46 58.31L117.39 58.24L117.61 58.40L117.54 58.33Q114.51 57.30 108.26 57.00L108.25 56.99L108.20 56.94Q105.90 56.86 103.79 57.04L103.69 56.94L103.78 57.03Q102.44 56.97 100.45 57.21L100.48 57.24L100.41 57.16Q97.58 57.90 97.23 60.41L97.16 60.34L97.22 60.40Q97.19 61.20 97.25 62.43L97.20 62.37L97.25 62.43Q97.41 63.22 98.28 66.85L98.28 66.85L98.21 66.77Q99.50 71.81 102.19 73.86L102.14 73.80L102.20 73.86L102.16 73.82Q97.93 75.85 97.11 83.80L97.18 83.87L97.13 83.82Q96.90 87.27 96.90 88.67L96.91 88.68L96.86 88.63Q96.90 91.31 98.71 92.71L98.90 92.90L98.89 92.89Q99.06 92.99 99.47 93.29L99.33 93.15L99.35 93.17Q100.93 96.68 111.87 97.03ZM111.35 80.03L111.45 80.13L111.31 79.99Q112.84 80.00 114.19 80.70L114.10 80.61L114.11 80.62Q114.79 82.25 114.73 83.06L114.73 83.06L114.55 82.88Q114.79 83.53 114.79 84.00L114.63 83.83L114.74 83.94Q114.66 87.49 111.15 88.78L111.11 88.73L111.22 88.85Q109.94 89.26 108.71 89.08L108.67 89.05L108.65 89.02Q107.07 89.32 105.32 88.61L105.22 88.52L105.20 88.49Q104.90 87.61 105.02 86.09L105.06 86.14L104.93 86.00Q105.22 83.60 107.06 81.73L107.10 81.77L106.99 81.66Q108.85 79.81 111.31 79.99ZM111.64 65.42L111.69 65.47L111.68 65.45Q112.93 65.30 113.75 65.53L113.74 65.53L113.73 66.74L113.86 66.87Q113.82 69.00 112.42 70.55L112.46 70.59L112.43 70.56Q110.97 72.06 108.87 71.76L108.86 71.76L108.82 71.71Q107.25 71.66 106.61 71.31L106.67 71.38L106.78 71.48Q106.64 71.00 106.47 69.95L106.49 69.96L106.38 69.86Q106.07 67.79 107.94 66.50L108.01 66.58L108.00 66.57Q109.52 65.39 111.68 65.45Z"/><path d="M3 23 C162 99,178 103,329 94" stroke="#e7e773" fill="none"/><path d="M11 97 C159 53,176 111,327 113" stroke="#e141b9" fill="none"/><path d="M14 11 C171 22,168 76,329 76" stroke="#b851db" fill="none"/><path d="M4 61 C167 18,165 96,332 72" stroke="#aadf76" fill="none"/><path d="M15 78 C166 136,169 20,327 94" stroke="#eb8260" fill="none"/><path d="M7 7 C171 81,160 55,328 55" stroke="#ecec73" fill="none"/><path d="M8 76 C179 41,152 26,328 60" stroke="#4bd7b4" fill="none"/><path d="M18 38 C172 102,177 28,335 49" stroke="#50b9dc" fill="none"/><path d="M8 127 C151 38,156 114,339 74" stroke="#6783da" fill="none"/></svg>