<svg xmlns="http://www.w3.org/2000/svg" width="342" height="140" viewBox="0,0,342,140"><path d="M15 75 C167 44,182 61,325 44" stroke="#d7795a" fill="none"/><path d="M15 52 C163 48,186 14,329 68" stroke="#8be3e3" fill="none"/><path d="M19 76 C169 95,179 108,339 2" stroke="#e55656" fill="none"/><path d="M14 112 C191 29,151 126,333 2" stroke="#68d968" fill="none"/><path d="M12 33 C159 88,151 78,326 30" stroke="#73d552" fill="none"/><path d="M7 57 C172 123,157 137,324 66" stroke="#e594e5" fill="none"/><path d="M6 98 C174 112,159 27,338 75" stroke="#df4dbb" fill="none"/><path d="M11 24 C157 70,192 136,324 58" stroke="#d48e49" fill="none"/><path d="M15 74 C154 85,170 56,340 126" stroke="#8fbce9" fill="none"/><path d="M15 108 C180 131,185 41,335 106" stroke="#7fafe0" fill="none"/><path d="M16 32 C178 27,162 77,332 113" stroke="#dc5555" fill="none"/><path d="M21 129 C169 139,181 62,329 41" stroke="#77cfed" fill="none"/><path fill="#e85e5e" d="M131.54 76.57L131.39 76.42L131.39 76.42Q128.59 76.52 126.70 78.59L126.72 78.62L126.74 78.63Q124.86 80.71 124.62 83.67L124.56 83.60L124.53 83.57Q124.22 86.87 126.11 88.44L126.23 88.56L126.19 88.52Q128.05 90.06 131.37 89.94L131.44 90.01L131.28 89.85Q134.87 89.60 136.35 88.12L136.49 88.27L136.52 88.29Q137.98 85.91 137.80 83.07L137.89 83.16L137.80 83.06Q137.65 80.19 135.96 78.33L136.01 78.38L135.91 78.28Q134.31 76.50 131.47 76.50ZM131.37 61.79L131.35 61.77L131.42 61.84Q129.30 61.74 127.23 62.51L127.21 62.49L127.22 62.50Q125.11 63.64 125.47 66.54L125.49 66.55L125.53 66.60Q126.28 72.37 131.48 72.37L131.41 72.30L131.49 72.38Q133.97 72.73 135.51 70.95L135.37 70.82L135.53 70.98Q136.91 69.05 136.97 66.63L137.13 66.79L137.02 66.68Q137.11 63.92 135.98 62.97L136.08 63.07L136.03 63.02Q133.39 61.69 131.38 61.80ZM131.00 93.77L130.94 93.71L126.35 93.85L126.20 93.71Q123.92 93.79 121.85 92.43L121.82 92.40L121.80 92.38Q119.61 90.54 119.84 86.11L119.85 86.11L119.93 86.19Q120.63 75.53 126.24 74.00L126.37 74.12L126.28 74.03Q122.79 72.67 120.72 64.33L120.73 64.34L120.63 64.25Q120.21 62.16 120.33 60.92L120.30 60.89L120.14 60.73Q120.68 57.49 126.42 57.43L126.38 57.39L126.36 57.37Q133.03 57.36 135.28 57.66L135.33 57.70L135.29 57.67Q141.15 58.38 141.86 61.52L141.95 61.61L141.97 61.62Q142.14 62.57 142.14 63.16L142.17 63.19L142.03 63.05Q142.07 64.15 141.77 65.09L141.76 65.09L141.89 65.21Q140.97 71.81 136.42 74.17L136.28 74.04L136.42 74.18Q141.87 75.42 142.64 83.64L142.56 83.57L142.56 83.56Q142.58 83.83 142.64 85.84L142.65 85.85L142.54 85.73Q142.71 90.05 140.23 91.71L140.17 91.65L140.19 91.67Q138.16 93.12 131.06 93.83ZM134.52 97.35L134.53 97.36L139.83 97.58L139.71 97.46Q142.47 97.68 144.84 96.55L144.87 96.58L144.82 96.53Q146.56 95.37 146.68 92.48L146.74 92.54L146.67 92.47Q146.68 90.71 146.09 87.69L146.05 87.65L146.05 87.65Q144.79 80.59 141.54 77.69L141.51 77.67L141.17 77.03L140.90 76.64L140.62 76.19L140.57 76.13Q143.20 74.09 144.62 67.65L144.54 67.57L144.58 67.61Q144.61 67.04 144.72 65.74L144.67 65.69L144.73 65.75Q144.85 64.69 144.74 63.74L144.66 63.67L144.77 63.78Q144.56 61.56 142.73 60.79L142.73 60.80L142.74 60.74L142.50 60.62L142.35 60.47Q142.00 59.41 140.17 58.17L140.26 58.27L140.24 58.18L140.13 58.08Q137.16 57.11 130.83 56.82L130.84 56.82L130.85 56.84Q128.32 56.55 126.19 56.73L126.22 56.76L126.25 56.79Q124.93 56.77 122.92 57.01L123.09 57.18L122.94 57.02Q120.00 57.70 119.65 60.24L119.57 60.16L119.64 60.23Q119.65 61.07 119.71 62.31L119.66 62.26L119.69 62.30Q119.86 63.12 120.75 66.78L120.64 66.68L120.69 66.73Q121.91 71.73 124.63 73.80L124.73 73.90L124.80 73.97L124.82 73.99Q120.47 75.97 119.64 84.01L119.72 84.09L119.61 83.98Q119.44 87.54 119.44 88.96L119.44 88.96L119.40 88.91Q119.47 91.65 121.30 93.07L121.40 93.16L121.35 93.11Q121.43 93.13 121.84 93.43L121.93 93.51L121.97 93.56Q123.58 97.11 134.64 97.47ZM134.00 80.15L134.03 80.18L134.00 80.15Q135.37 79.98 136.73 80.69L136.79 80.75L136.74 80.71Q137.45 82.36 137.39 83.19L137.39 83.19L137.34 83.14Q137.42 83.64 137.42 84.11L137.34 84.03L137.37 84.06Q137.47 87.82 133.92 89.12L133.79 88.99L133.77 88.98Q132.62 89.54 131.38 89.36L131.35 89.34L131.34 89.33Q129.58 89.45 127.81 88.75L127.78 88.72L127.79 88.73Q127.48 87.83 127.60 86.29L127.52 86.21L127.54 86.24Q127.74 83.71 129.60 81.82L129.67 81.89L129.70 81.92Q131.60 80.06 134.09 80.24ZM134.37 65.44L134.29 65.37L134.47 65.54Q135.58 65.23 136.40 65.47L136.41 65.47L136.36 66.67L136.46 66.76Q136.54 69.03 135.12 70.60L134.97 70.45L135.02 70.50Q133.69 72.15 131.56 71.86L131.47 71.77L131.55 71.85Q130.01 71.84 129.35 71.49L129.22 71.35L129.24 71.37Q129.32 71.10 129.14 70.03L129.09 69.98L128.99 69.88Q128.70 67.81 130.59 66.51L130.52 66.44L130.47 66.39Q132.27 65.47 134.46 65.53Z"/><path d="M7 79 C187 64,168 27,328 103" stroke="#92d5eb" fill="none"/><path d="M7 29 C180 5,156 6,330 138" stroke="#8cbae8" fill="none"/><path d="M5 94 C153 136,190 73,329 138" stroke="#e09e5b" fill="none"/><path d="M14 79 C183 29,188 99,329 116" stroke="#49bde3" fill="none"/><path fill="#89a0e5" d="M263.35 93.88L263.32 93.85L263.39 93.92Q257.08 94.30 255.55 90.69L255.43 90.58L255.44 90.58Q256.71 89.19 259.14 86.41L259.15 86.43L259.05 86.33Q259.97 89.61 264.64 89.79L264.59 89.73L264.45 89.60Q269.91 89.91 272.45 87.84L272.26 87.65L272.41 87.80Q274.61 85.33 274.50 81.13L274.49 81.12L274.37 81.00Q274.15 73.16 266.70 73.51L266.76 73.58L266.69 73.51Q262.29 73.71 259.56 75.66L259.72 75.82L259.04 75.38L258.76 75.21L258.71 75.17Q259.26 70.27 259.08 66.01L259.14 66.07L259.10 66.03Q258.93 61.96 258.40 56.81L258.44 56.86L258.36 56.78Q264.18 58.40 270.10 58.22L270.07 58.20L269.99 58.11Q275.95 58.04 281.51 56.09L281.48 56.06L280.54 58.38L280.69 58.53Q280.09 59.58 279.80 60.88L279.95 61.04L279.78 60.87Q274.93 62.46 268.90 62.46L268.93 62.50L269.07 62.63Q266.66 62.47 264.36 62.24L264.38 62.26L264.43 62.31Q264.40 63.47 263.87 70.39L263.86 70.38L263.72 70.23Q265.01 69.52 268.21 69.28L268.36 69.43L268.28 69.36Q274.14 69.78 276.39 72.38L276.27 72.26L276.31 72.30Q278.53 74.76 278.95 80.73L278.85 80.64L278.77 80.56Q279.36 87.23 277.46 90.37L277.35 90.25L277.41 90.31Q274.27 93.27 269.13 93.63L269.13 93.62L269.02 93.52Q267.51 93.66 263.37 93.90ZM272.87 97.54L272.71 97.38L272.86 97.54Q278.15 97.62 281.11 95.90L281.03 95.82L281.10 95.90Q282.52 93.41 282.52 90.16L282.59 90.23L282.65 90.29Q282.68 85.53 281.20 79.14L281.07 79.01L281.18 79.12Q280.53 76.34 278.64 74.15L278.71 74.23L278.63 74.20L278.33 73.78L277.83 73.52L277.77 73.47Q277.31 72.36 276.31 71.29L276.29 71.27L276.37 71.41L276.38 71.42Q273.97 68.78 268.24 68.78L268.18 68.72L267.89 68.85L267.79 68.75Q267.89 67.84 268.19 66.13L268.17 66.11L268.26 66.20Q275.90 66.27 282.17 63.73L282.14 63.69L282.19 63.75Q282.79 61.51 284.27 57.14L284.36 57.23L281.10 58.70L281.20 58.80Q281.76 56.99 282.53 55.22L282.39 55.07L282.43 55.12Q276.45 57.36 270.06 57.48L270.19 57.61L270.20 57.61Q263.72 57.69 257.56 55.98L257.57 55.98L257.48 55.89Q258.56 62.77 258.56 69.63L258.73 69.80L258.58 69.65Q258.63 72.66 258.45 75.62L258.41 75.57L258.43 75.59Q258.94 75.99 259.83 76.46L259.78 76.41L259.68 76.31Q260.36 76.11 261.37 75.57L261.34 75.55L261.29 75.50Q261.22 76.67 260.86 79.03L260.84 79.01L260.90 79.06Q261.49 79.30 262.14 79.66L262.15 79.67L262.16 79.68Q266.48 76.96 269.38 76.96L269.31 76.90L269.46 77.04Q271.42 76.93 273.25 77.94L273.24 77.93L273.21 77.90Q273.76 79.50 273.82 80.98L273.91 81.07L273.94 81.10Q274.04 85.11 272.44 86.82L272.40 86.78L272.36 86.74Q270.28 88.69 266.80 89.04L266.71 88.96L266.81 89.06Q265.35 89.20 264.29 89.08L264.27 89.07L264.33 89.12Q262.85 88.77 261.67 88.24L261.71 88.28L261.65 87.92L261.56 88.19L261.49 88.11Q260.31 87.41 259.48 85.34L259.51 85.36L259.47 85.32Q257.37 87.49 254.77 90.80L254.84 90.87L254.87 90.90Q255.23 91.79 256.53 93.27L256.58 93.32L256.48 93.22Q258.24 96.16 262.62 96.93L262.53 96.84L262.54 96.85Q264.37 97.21 272.71 97.39Z"/><path d="M14 67 C175 29,163 29,340 23" stroke="#e4c25c" fill="none"/><path d="M10 120 C160 132,171 112,327 125" stroke="#68dd85" fill="none"/><path d="M12 91 C150 108,176 75,330 27" stroke="#6a45d7" fill="none"/><path d="M8 32 C175 41,165 112,331 35" stroke="#d279f0" fill="none"/><path d="M19 79 C153 111,189 36,321 18" stroke="#50dc50" fill="none"/><path fill="#52e452" d="M205.50 73.45L205.51 73.47L205.50 73.45Q206.64 73.35 208.83 73.11L208.77 73.05L208.79 73.08Q208.87 74.22 208.87 75.23L208.74 75.09L208.72 77.02L208.78 77.09Q207.50 77.11 206.20 77.23L206.25 77.28L206.22 77.25Q204.97 77.36 203.67 77.30L203.56 77.19L203.55 77.18Q199.06 86.70 193.73 93.86L193.76 93.89L193.87 94.00Q189.97 95.01 187.96 95.96L187.90 95.89L187.91 95.90Q194.36 87.09 199.09 77.34L199.10 77.35L194.87 77.19L194.91 77.23Q194.90 75.16 194.73 73.09L194.71 73.07L194.73 73.09Q197.73 73.37 200.93 73.37L200.90 73.35L203.79 67.54L203.80 67.55Q205.35 64.61 207.24 62.13L207.28 62.16L207.37 62.25Q204.88 62.42 202.39 62.42L202.39 62.42L202.36 62.39Q192.97 62.46 187.11 59.03L187.10 59.02L186.14 56.40L186.15 56.40Q185.50 54.99 184.91 53.63L184.91 53.63L184.89 53.61Q191.61 57.67 200.49 58.03L200.48 58.02L200.63 58.17Q208.57 58.49 216.56 55.41L216.51 55.36L216.61 55.46Q216.16 55.96 215.39 57.32L215.44 57.36L215.46 57.39Q209.92 64.86 205.49 73.44ZM217.95 59.53L217.96 59.54L219.41 56.31L219.48 56.39Q217.99 57.14 215.39 58.26L215.35 58.22L215.63 57.74L215.69 57.80Q215.97 57.67 216.15 57.49L216.11 57.45L216.10 57.43Q216.64 56.32 217.76 54.25L217.75 54.24L217.81 54.29Q209.59 57.91 200.66 57.55L200.62 57.51L200.47 57.36Q191.13 56.96 183.74 52.34L183.86 52.46L183.77 52.37Q185.38 55.29 186.68 59.43L186.78 59.52L186.80 59.54Q188.46 60.49 189.70 60.96L189.74 61.00L189.61 60.88Q189.94 61.50 190.65 64.40L190.73 64.47L190.70 64.45Q195.58 66.37 204.15 66.13L204.05 66.03L204.14 66.12Q203.56 66.90 200.48 72.75L200.49 72.76L200.53 72.80Q197.30 72.77 194.23 72.47L194.34 72.58L194.28 72.53Q194.45 73.87 194.45 75.23L194.48 75.27L194.37 77.82L197.08 77.92L197.09 80.13L196.92 79.96Q190.99 91.59 186.68 97.15L186.70 97.18L186.64 97.12Q189.07 95.88 191.61 95.11L191.63 95.13L191.67 95.16Q190.59 96.57 188.46 99.24L188.48 99.25L188.45 99.22Q193.30 97.45 197.09 97.10L197.12 97.13L197.06 97.07Q201.77 91.37 206.62 80.84L206.52 80.74L211.91 81.10L211.95 81.15Q211.70 79.59 211.70 78.17L211.69 78.16L211.85 75.54L211.80 75.49Q211.29 75.39 210.43 75.45L210.52 75.54L210.53 75.56Q209.64 75.58 209.23 75.58L209.13 75.49L209.19 75.55Q209.28 75.45 209.34 75.22L209.31 75.20L209.26 74.73L209.27 74.74Q213.23 66.81 218.03 59.60Z"/><path d="M12 43 C183 74,169 46,340 17" stroke="#e3ad77" fill="none"/><path d="M19 121 C157 134,160 77,325 44" stroke="#5c5cdf" fill="none"/><path d="M13 15 C155 23,175 39,338 114" stroke="#984be6" fill="none"/><path d="M19 114 C174 60,164 100,338 132" stroke="#d8b754" fill="none"/><path d="M10 69 C167 60,176 22,339 73" stroke="#e36c44" fill="none"/><path d="M2 11 C160 21,177 134,326 130" stroke="#e35da0" fill="none"/><path d="M20 82 C175 49,161 69,336 118" stroke="#9bf07f" fill="none"/><path d="M5 104 C183 100,154 65,335 24" stroke="#e688a0" fill="none"/><path d="M7 45 C191 85,190 96,337 38" stroke="#e2e278" fill="none"/><path d="M12 43 C191 113,170 8,335 61" stroke="#e958a0" fill="none"/><path d="M21 124 C162 1,151 3,337 97" stroke="#4ce096" fill="none"/><path d="M9 136 C171 93,165 109,327 123" stroke="#f07e7e" fill="none"/><path d="M4 93 C158 79,176 31,334 51" stroke="#ee7694" fill="none"/><path d="M17 94 C188 18,164 32,333 27" stroke="#74e6c9" fill="none"/><path d="M11 87 C180 13,173 34,339 52" stroke="#69e2a5" fill="none"/><path d="M18 60 C186 89,156 98,333 105" stroke="#d7d75f" fill="none"/><path d="M20 102 C185 99,156 28,333 115" stroke="#e28ce2" fill="none"/><path d="M14 2 C152 33,158 80,333 86" stroke="#55dcba" fill="none"/><path fill="#67e467" d="M75.73 90.00L75.78 90.05L75.70 89.97Q76.23 91.57 77.06 94.70L77.04 94.68L77.14 94.79Q70.44 92.58 63.29 93.00L63.29 93.00L63.36 93.07Q56.21 93.43 50.00 96.51L50.10 96.61L49.96 96.47Q50.48 95.57 50.54 95.69L50.52 95.66L50.40 95.54Q56.25 89.45 62.34 82.59L62.41 82.66L62.43 82.68Q69.21 74.84 71.04 67.57L71.01 67.54L71.06 67.59Q71.68 64.78 69.70 62.94L69.78 63.02L69.85 63.10Q67.77 61.17 64.99 61.40L64.95 61.36L65.03 61.44Q64.43 61.31 63.90 61.31L63.86 61.28L63.88 61.30Q61.52 61.30 59.57 62.72L59.68 62.84L59.61 62.76Q57.59 64.88 57.94 69.02L57.92 69.00L57.95 69.03Q55.25 68.58 53.36 67.87L53.38 67.89L53.30 67.81Q52.91 65.53 52.79 63.28L52.81 63.30L52.97 63.46Q52.83 60.89 53.77 59.11L53.73 59.07L53.80 59.14Q56.42 56.85 61.62 56.85L61.69 56.92L64.39 56.90L64.33 56.84Q67.89 56.90 69.36 57.08L69.37 57.09L69.50 57.22Q76.15 57.77 76.56 61.56L76.69 61.69L76.63 61.63Q76.74 62.50 76.62 63.74L76.69 63.82L76.54 63.67Q76.62 64.81 76.38 65.87L76.21 65.70L76.40 65.89Q73.83 78.46 62.06 89.11L62.01 89.06L62.01 89.06Q64.24 88.86 66.36 88.86L66.41 88.91L66.34 88.83Q71.37 88.83 75.80 90.07ZM74.91 57.72L74.98 57.79L74.92 57.73Q72.36 56.65 69.70 56.53L69.78 56.61L64.51 56.37L64.37 56.22Q57.46 55.83 54.03 57.54L54.08 57.59L54.07 57.58Q52.43 59.72 52.43 62.92L52.45 62.93L52.49 62.97Q52.38 63.93 52.85 68.31L53.00 68.46L52.99 68.44Q53.71 68.69 55.55 69.17L55.52 69.14L55.68 70.90L55.55 70.76Q55.57 71.56 55.69 72.38L55.64 72.33L55.76 72.45Q57.72 72.64 61.56 72.99L61.46 72.89L61.56 72.99Q61.43 72.34 61.43 71.80L61.31 71.68L61.42 71.79Q61.40 68.93 63.29 66.83L63.22 66.75L63.28 66.82Q65.23 64.78 68.01 64.96L68.06 65.00L68.04 64.99Q69.07 64.89 70.26 65.13L70.26 65.14L70.35 65.23Q70.55 65.84 70.67 66.49L70.59 66.41L70.61 66.43Q70.72 67.13 70.60 67.66L70.58 67.65L70.59 67.65Q68.64 75.04 61.78 82.56L61.69 82.47L61.81 82.59Q58.42 86.00 49.96 95.40L49.92 95.36L49.90 95.34Q49.71 96.75 49.18 97.63L49.08 97.54L49.17 97.63Q51.55 96.16 53.92 95.33L54.00 95.42L54.00 95.42Q52.99 96.42 51.51 98.72L51.33 98.54L51.44 98.66Q51.33 99.26 51.15 99.79L50.98 99.61L51.03 99.66Q58.70 96.58 67.22 96.87L67.15 96.80L67.12 96.77Q75.95 97.02 83.04 100.69L83.05 100.69L81.58 97.44L81.44 97.31Q80.54 95.34 80.12 94.10L80.05 94.03L80.15 94.13Q78.94 93.39 77.05 92.74L77.08 92.77L77.05 92.74Q76.74 91.55 76.15 89.42L76.25 89.52L76.34 89.61Q72.91 88.72 69.36 88.43L69.34 88.40L69.24 88.30Q76.58 81.27 78.94 68.44L78.99 68.48L79.24 63.94L79.17 63.87Q79.02 61.06 77.13 60.00L77.21 60.08L77.05 59.97L77.20 60.13Q77.10 59.96 76.98 59.96L76.90 59.88L77.03 60.02Q76.63 58.67 74.91 57.72Z"/><path d="M3 135 C168 101,153 96,327 76" stroke="#a0ea57" fill="none"/></svg>