<svg xmlns="http://www.w3.org/2000/svg" width="342" height="140" viewBox="0,0,342,140"><path d="M11 20 C169 133,171 25,333 74" stroke="#e7d397" fill="none"/><path d="M10 7 C156 118,158 98,332 39" stroke="#bce791" fill="none"/><path d="M2 2 C150 19,165 47,336 137" stroke="#82cee8" fill="none"/><path d="M9 107 C180 64,186 127,336 39" stroke="#e93e69" fill="none"/><path d="M19 49 C156 43,190 86,330 38" stroke="#bedc65" fill="none"/><path d="M17 125 C158 78,173 66,324 23" stroke="#ebeb5a" fill="none"/><path d="M19 74 C192 40,162 109,321 128" stroke="#b2ec78" fill="none"/><path d="M15 100 C191 23,181 18,341 39" stroke="#49e8c0" fill="none"/><path d="M8 88 C189 51,168 127,325 47" stroke="#c771e4" fill="none"/><path d="M7 73 C158 19,182 28,341 99" stroke="#e16969" fill="none"/><path d="M16 3 C165 16,173 37,334 13" stroke="#eb9d83" fill="none"/><path d="M10 99 C157 88,189 113,341 100" stroke="#7aea7a" fill="none"/><path d="M7 105 C162 3,173 110,335 132" stroke="#bae78c" fill="none"/><path fill="#9ee259" d="M76.43 91.69L76.48 91.74L76.33 91.59Q76.90 93.31 77.79 96.69L77.76 96.67L77.81 96.71Q70.73 94.49 62.99 94.93L62.95 94.89L63.03 94.97Q55.28 95.34 48.57 98.66L48.55 98.63L48.57 98.65Q48.91 97.46 48.97 97.59L49.08 97.69L49.13 97.74Q55.38 91.09 61.96 83.67L61.95 83.66L61.84 83.56Q69.28 75.21 71.26 67.35L71.25 67.33L71.35 67.44Q72.09 64.48 69.95 62.50L69.82 62.36L70.00 62.54Q67.75 60.45 64.74 60.70L64.80 60.77L64.69 60.65Q64.15 60.62 63.57 60.62L63.64 60.69L63.72 60.77Q61.13 60.73 59.02 62.26L58.88 62.13L58.99 62.23Q56.81 64.53 57.20 69.00L57.20 69.01L57.25 69.06Q54.26 68.49 52.21 67.73L52.22 67.73L52.17 67.69Q51.74 65.21 51.61 62.78L51.70 62.87L51.71 62.88Q51.63 60.18 52.66 58.27L52.50 58.12L52.62 58.23Q55.63 55.94 61.25 55.94L61.10 55.79L64.07 55.82L64.04 55.78Q67.92 55.90 69.52 56.09L69.58 56.15L69.53 56.10Q76.76 56.75 77.21 60.84L77.26 60.89L77.20 60.83Q77.39 61.85 77.27 63.20L77.31 63.24L77.34 63.27Q77.31 64.39 77.05 65.54L76.92 65.40L76.93 65.42Q74.33 79.17 61.61 90.67L61.44 90.50L61.61 90.67Q63.92 90.37 66.22 90.37L66.11 90.25L66.24 90.38Q71.54 90.25 76.33 91.59ZM75.46 56.73L75.46 56.72L75.54 56.81Q72.76 55.62 69.89 55.50L69.79 55.40L64.13 55.17L64.12 55.16Q56.67 54.74 52.96 56.59L52.85 56.48L52.99 56.62Q51.15 58.87 51.15 62.32L51.10 62.27L51.23 62.40Q51.28 63.60 51.80 68.33L51.71 68.25L51.66 68.20Q52.71 68.74 54.70 69.25L54.59 69.14L54.65 70.93L54.58 70.87Q54.46 71.57 54.59 72.47L54.75 72.62L54.75 72.63Q56.78 72.74 60.93 73.12L60.85 73.04L60.84 73.03Q60.83 72.44 60.83 71.87L60.94 71.98L60.85 71.89Q60.81 68.79 62.86 66.52L62.82 66.49L62.94 66.60Q65.04 64.39 68.04 64.58L68.06 64.60L67.88 64.42Q69.33 64.65 70.60 64.90L70.55 64.85L70.55 64.85Q70.73 65.47 70.85 66.18L70.86 66.19L70.80 66.12Q70.93 66.89 70.80 67.46L70.77 67.43L70.69 67.35Q68.64 75.40 61.23 83.51L61.22 83.50L61.31 83.60Q57.62 87.26 48.48 97.42L48.58 97.52L48.50 97.44Q48.26 98.92 47.69 99.88L47.65 99.85L47.72 99.91Q50.29 98.33 52.85 97.44L52.91 97.50L52.80 97.39Q51.64 98.41 50.05 100.90L50.05 100.90L50.15 101.01Q49.84 101.46 49.65 102.04L49.69 102.07L49.77 102.15Q57.96 98.72 67.16 99.04L66.99 98.87L67.15 99.02Q76.50 99.11 84.17 103.07L84.26 103.16L82.50 99.49L82.69 99.67Q81.53 97.37 81.09 96.03L81.06 96.00L81.07 96.01Q79.77 95.22 77.73 94.52L77.77 94.56L77.85 94.65Q77.51 93.35 76.88 91.05L76.90 91.07L76.82 91.00Q73.20 90.12 69.36 89.80L69.38 89.82L69.27 89.71Q77.20 82.10 79.75 68.24L79.79 68.28L80.12 63.43L80.13 63.44Q80.04 60.47 77.99 59.32L78.02 59.35L77.84 59.24L77.80 59.19Q77.72 59.05 77.60 59.05L77.64 59.10L77.67 59.13Q77.32 57.75 75.46 56.73Z"/><path d="M9 78 C190 89,182 39,329 114" stroke="#4ee84e" fill="none"/><path d="M4 135 C178 41,177 33,323 100" stroke="#d8d844" fill="none"/><path d="M5 106 C188 46,154 135,334 102" stroke="#e1e174" fill="none"/><path d="M1 41 C168 29,171 121,338 6" stroke="#704be1" fill="none"/><path d="M8 97 C165 55,181 10,328 37" stroke="#c1e065" fill="none"/><path d="M5 121 C182 82,161 60,323 49" stroke="#bfea93" fill="none"/><path d="M14 60 C192 41,167 4,325 111" stroke="#e890d2" fill="none"/><path d="M21 80 C185 84,151 36,339 54" stroke="#48d5d5" fill="none"/><path d="M7 72 C176 119,163 82,331 45" stroke="#aa6fe6" fill="none"/><path d="M18 77 C167 75,191 18,331 10" stroke="#59e29e" fill="none"/><path fill="#569ee5" d="M260.54 83.36L260.45 83.28L260.57 83.39Q265.68 82.69 271.05 82.88L271.00 82.83L271.16 83.00Q270.96 78.57 270.96 74.55L270.97 74.56L271.02 74.62Q271.02 70.46 271.34 66.18L271.36 66.19L271.41 66.25Q269.29 69.05 260.54 83.36ZM277.13 95.67L277.12 95.67L277.23 95.77Q274.27 95.11 271.26 94.98L271.31 95.03L271.27 94.99Q271.06 91.13 270.86 86.98L270.77 86.89L270.88 86.99Q261.84 86.59 253.92 88.95L254.03 89.06L254.03 89.06Q254.06 88.07 254.38 86.41L254.53 86.56L254.56 86.58Q257.40 81.12 263.41 70.58L263.50 70.67L263.47 70.64Q268.36 62.49 274.11 55.98L274.17 56.03L274.06 55.92Q275.46 55.54 278.27 55.09L278.37 55.18L278.37 55.18Q275.22 66.03 275.22 77.85L275.17 77.81L275.19 77.83Q275.09 80.22 275.22 82.71L275.34 82.83L277.41 82.92L277.53 83.04Q278.57 83.12 279.59 83.31L279.46 83.18L279.56 83.28Q279.67 84.86 280.12 88.12L280.09 88.09L280.05 88.05Q278.13 87.73 275.64 87.41L275.54 87.31L275.54 87.31Q275.98 90.75 277.13 95.67ZM279.96 82.60L279.97 82.60L279.89 82.52Q279.62 82.44 279.30 82.44L279.41 82.55L278.66 82.44L278.74 82.52Q278.44 79.93 278.44 77.56L278.42 77.54L278.55 77.67Q278.50 66.88 281.95 56.79L281.98 56.82L281.86 56.70Q280.68 57.25 278.26 57.88L278.29 57.91L278.17 57.79Q278.53 56.49 279.29 54.13L279.28 54.12L279.29 54.12Q277.19 54.84 273.74 55.22L273.68 55.16L273.79 55.27Q267.24 62.58 258.48 78.30L258.32 78.15L261.95 72.13L261.99 72.17Q261.19 73.79 260.74 74.75L260.83 74.84L253.33 89.96L253.23 89.86Q254.48 89.77 256.40 89.13L256.28 89.01L256.06 89.43L256.00 89.37Q255.96 90.67 255.45 92.78L255.42 92.75L255.30 92.63Q262.20 90.39 270.31 90.71L270.45 90.85L270.28 90.68Q270.39 92.32 270.71 95.64L270.69 95.62L270.79 95.72Q272.46 95.60 274.25 95.79L274.35 95.90L274.31 95.86Q274.61 97.06 275.06 99.36L275.12 99.42L275.05 99.35Q278.28 99.76 283.33 101.30L283.29 101.25L283.36 101.32Q281.71 97.76 280.18 92.27L280.05 92.14L282.42 92.85L282.56 92.99Q283.61 93.28 284.76 93.85L284.87 93.96L284.90 93.98Q283.51 89.72 283.26 86.91L283.30 86.96L283.14 86.79Q282.25 86.61 280.33 86.23L280.36 86.25L280.27 86.17Q279.94 84.04 279.94 82.57ZM266.44 82.24L266.49 82.29L266.61 82.41Q267.76 80.10 270.38 75.82L270.36 75.80L270.40 75.84Q270.36 77.41 270.30 79.00L270.35 79.05L270.33 79.03Q270.35 80.72 270.42 82.32L270.49 82.39L270.53 82.43Q269.57 82.36 268.61 82.36L268.53 82.28L268.56 82.31Q267.60 82.37 266.57 82.37Z"/><path d="M18 119 C190 9,174 129,341 57" stroke="#8383eb" fill="none"/><path d="M13 24 C170 119,185 8,329 69" stroke="#6ced8d" fill="none"/><path d="M18 131 C152 108,176 131,335 30" stroke="#a3eb5a" fill="none"/><path d="M2 24 C183 100,159 37,324 81" stroke="#e7e74f" fill="none"/><path d="M5 132 C174 46,186 44,333 63" stroke="#8dd8f0" fill="none"/><path d="M17 120 C156 131,153 68,336 30" stroke="#8fefd7" fill="none"/><path d="M16 4 C185 101,156 139,337 64" stroke="#e56f8d" fill="none"/><path d="M20 106 C150 79,158 88,327 104" stroke="#65eb65" fill="none"/><path d="M14 23 C164 1,153 60,340 2" stroke="#e7e74a" fill="none"/><path d="M18 107 C157 86,186 134,338 126" stroke="#8dd4eb" fill="none"/><path d="M10 78 C174 120,156 86,324 84" stroke="#e566e5" fill="none"/><path d="M10 104 C177 36,189 120,332 119" stroke="#81b2e3" fill="none"/><path d="M8 121 C150 5,157 32,326 19" stroke="#4ddf96" fill="none"/><path d="M14 88 C178 119,182 20,338 78" stroke="#8ed7f0" fill="none"/><path d="M18 55 C165 98,183 27,330 109" stroke="#c9e86d" fill="none"/><path fill="#d1ed7c" d="M131.24 61.03L131.11 60.90L128.51 61.11L128.53 61.13Q124.89 61.44 124.50 64.83L124.50 64.83L124.42 64.75Q124.34 66.00 124.40 67.67L124.40 67.66L124.33 67.59Q124.37 70.83 126.48 73.07L126.49 73.08L126.46 73.05Q128.63 75.35 131.83 75.09L131.89 75.15L131.93 75.19Q135.25 74.81 136.53 73.28L136.59 73.33L136.53 73.27Q138.33 71.75 138.78 67.98L138.77 67.97L138.84 68.05Q139.36 64.35 137.25 62.94L137.11 62.81L137.19 62.88Q135.71 61.53 131.24 61.02ZM141.45 76.60L141.39 76.54L139.24 80.40L139.15 80.30Q134.61 88.36 128.28 95.19L128.43 95.34L128.30 95.21Q125.51 95.42 120.97 96.76L120.96 96.75L121.13 96.92Q129.96 86.26 135.27 78.21L135.37 78.32L135.36 78.30Q133.49 79.25 130.74 79.38L130.73 79.37L130.80 79.44Q125.78 79.72 123.22 76.39L123.15 76.32L123.31 76.48Q121.11 73.65 119.26 65.98L119.23 65.95L119.29 66.00Q119.41 65.36 119.16 63.80L119.05 63.69L119.16 63.80Q118.84 62.17 118.84 61.41L118.90 61.46L118.89 61.45Q118.75 58.31 120.54 57.28L120.60 57.35L120.51 57.26Q122.70 56.12 125.83 56.12L125.76 56.05L125.79 56.08Q131.10 56.03 131.10 56.03L131.05 55.98L131.11 56.04Q134.83 56.18 136.94 56.50L136.96 56.52L136.87 56.43Q140.41 56.84 141.94 57.67L142.02 57.75L142.04 57.77Q144.39 59.09 144.71 62.03L144.60 61.92L144.66 61.98Q144.64 62.34 144.32 66.82L144.21 66.71L144.40 66.90Q143.68 70.39 143.29 71.80L143.38 71.89L143.38 71.88Q142.67 74.17 141.39 76.54ZM144.62 80.60L144.56 80.54L144.52 80.51Q146.27 76.88 147.16 69.66L147.08 69.57L147.04 69.54Q147.60 65.94 147.54 64.47L147.45 64.39L147.54 64.47Q147.41 61.28 145.43 59.74L145.55 59.86L144.89 59.52L144.95 59.59Q144.47 58.28 142.94 57.19L142.88 57.13L143.05 57.30Q139.22 55.65 131.17 55.39L131.17 55.39L130.98 55.21Q129.56 55.38 125.47 55.38L125.36 55.27L125.42 55.33Q122.36 55.21 119.87 56.36L119.87 56.36L119.89 56.38Q117.96 57.71 118.09 60.78L118.08 60.77L118.22 60.91Q118.44 62.34 118.76 65.73L118.88 65.85L118.77 65.74Q119.82 70.18 120.27 71.59L120.24 71.55L120.20 71.51Q121.34 74.83 122.93 77.00L122.81 76.88L122.76 76.82Q123.19 77.39 123.83 78.02L123.94 78.13L124.02 78.21Q124.31 78.82 125.40 80.36L125.40 80.36L125.46 80.42Q127.98 82.75 131.24 83.07L131.14 82.97L131.15 82.98Q128.06 87.56 125.44 90.75L125.44 90.75L119.28 98.01L119.40 98.14Q123.02 96.70 125.77 96.13L125.89 96.25L125.81 96.17Q124.55 97.66 121.93 100.54L121.84 100.45L121.87 100.47Q127.19 99.08 132.43 99.02L132.39 98.98L132.28 98.87Q136.23 94.58 143.51 82.43L143.53 82.45L143.51 82.56L143.61 82.66Q143.89 81.28 144.47 80.45ZM134.51 65.06L134.38 64.93L134.46 65.01Q135.54 64.88 136.31 65.07L136.27 65.03L136.35 65.11Q137.27 65.14 137.91 65.33L137.95 65.37L137.98 65.40Q138.23 66.09 138.36 66.80L138.36 66.80L138.29 66.73Q138.37 67.38 138.17 68.02L138.22 68.07L138.22 68.07Q138.08 70.86 136.10 72.72L136.14 72.76L136.14 72.76Q134.68 74.62 131.93 74.56L131.78 74.40L131.88 74.51Q131.21 74.54 128.65 74.02L128.66 74.04L128.51 73.89Q128.23 72.52 128.23 71.31L128.14 71.21L128.27 71.34Q127.99 70.74 127.99 70.36L128.17 70.54L128.08 70.45Q128.03 66.70 131.87 65.36L131.86 65.35L131.81 65.30Q133.04 64.99 134.44 64.99Z"/><path fill="#c24cea" d="M212.32 91.58L212.43 91.69L212.45 91.71Q212.93 93.34 213.82 96.72L213.86 96.76L213.84 96.74Q206.76 94.52 199.03 94.97L199.08 95.01L198.99 94.93Q191.34 95.40 184.63 98.72L184.64 98.73L184.57 98.66Q184.92 97.47 184.98 97.60L185.14 97.76L185.06 97.68Q191.40 91.11 197.98 83.70L197.81 83.53L197.85 83.56Q205.35 75.28 207.33 67.42L207.34 67.43L207.21 67.30Q208.13 64.51 205.98 62.53L205.94 62.49L206.00 62.55Q203.77 60.48 200.77 60.73L200.70 60.66L200.76 60.72Q200.26 60.73 199.68 60.73L199.61 60.66L199.59 60.63Q197.14 60.75 195.04 62.28L194.91 62.16L194.88 62.12Q192.79 64.51 193.17 68.98L193.11 68.92L193.14 68.95Q190.25 68.49 188.21 67.72L188.10 67.62L188.15 67.67Q187.85 65.32 187.72 62.89L187.68 62.85L187.71 62.88Q187.61 60.16 188.63 58.24L188.63 58.24L188.65 58.26Q191.55 55.86 197.17 55.86L197.24 55.92L200.05 55.80L200.17 55.91Q203.92 55.90 205.52 56.09L205.60 56.17L205.66 56.23Q212.88 56.87 213.33 60.96L213.27 60.90L213.38 61.00Q213.36 61.82 213.23 63.16L213.33 63.26L213.36 63.29Q213.31 64.39 213.05 65.54L212.88 65.37L212.91 65.39Q210.14 78.99 197.43 90.49L197.49 90.56L197.47 90.53Q199.78 90.22 202.08 90.22L202.17 90.31L202.26 90.40Q207.52 90.23 212.31 91.57ZM211.37 56.63L211.51 56.77L211.50 56.76Q208.77 55.63 205.89 55.50L205.98 55.59L200.04 55.08L200.21 55.25Q192.70 54.77 188.99 56.62L189.01 56.64L188.93 56.56Q187.15 58.87 187.15 62.32L187.26 62.43L187.25 62.42Q187.26 63.58 187.77 68.31L187.67 68.21L187.68 68.22Q188.54 68.57 190.52 69.08L190.57 69.12L190.52 70.80L190.68 70.96Q190.61 71.73 190.74 72.62L190.72 72.60L190.76 72.64Q192.69 72.65 196.84 73.04L196.99 73.18L196.96 73.15Q196.84 72.46 196.84 71.88L196.91 71.95L196.95 71.99Q196.93 68.90 198.97 66.64L198.90 66.56L198.94 66.60Q201.01 64.36 204.01 64.55L203.88 64.42L203.97 64.51Q205.15 64.48 206.43 64.73L206.47 64.77L206.59 64.89Q206.69 65.44 206.82 66.14L206.76 66.08L206.82 66.14Q206.93 66.90 206.81 67.47L206.71 67.37L206.69 67.35Q204.63 75.39 197.22 83.50L197.21 83.50L197.29 83.58Q193.74 87.37 184.60 97.53L184.59 97.53L184.61 97.55Q184.13 98.79 183.56 99.75L183.63 99.83L183.55 99.75Q186.25 98.29 188.80 97.39L188.82 97.41L188.81 97.40Q187.59 98.36 185.99 100.85L186.02 100.88L186.02 100.87Q185.84 101.46 185.64 102.03L185.66 102.05L185.75 102.14Q193.82 98.58 203.02 98.90L203.13 99.01L203.02 98.89Q212.50 99.11 220.17 103.07L220.18 103.08L218.53 99.51L218.62 99.61Q217.55 97.39 217.10 96.04L217.12 96.06L217.15 96.09Q215.79 95.24 213.74 94.54L213.89 94.68L213.71 94.51Q213.48 93.32 212.84 91.02L212.82 90.99L212.93 91.10Q209.21 90.13 205.38 89.81L205.31 89.75L205.31 89.75Q213.19 82.09 215.74 68.23L215.87 68.35L216.17 63.47L216.11 63.41Q215.92 60.36 213.88 59.21L213.85 59.18L213.85 59.24L213.90 59.29Q213.80 59.12 213.67 59.12L213.73 59.18L213.60 59.06Q213.33 57.77 211.48 56.75Z"/><path d="M13 131 C151 34,180 138,330 89" stroke="#e575c9" fill="none"/><path d="M18 67 C189 15,170 98,328 71" stroke="#e6e683" fill="none"/></svg>