<svg xmlns="http://www.w3.org/2000/svg" width="342" height="140" viewBox="0,0,342,140"><path d="M18 56 C178 105,163 41,321 84" stroke="#9d84eb" fill="none"/><path d="M11 30 C182 130,167 46,331 104" stroke="#de7272" fill="none"/><path d="M14 114 C182 46,175 121,323 135" stroke="#ec557a" fill="none"/><path d="M18 22 C165 39,169 97,332 5" stroke="#7fdc60" fill="none"/><path d="M17 71 C180 41,188 86,324 116" stroke="#e9e97b" fill="none"/><path d="M12 41 C181 62,154 91,335 39" stroke="#69e2a5" fill="none"/><path fill="#64bedd" d="M261.12 93.09L261.17 93.15L261.25 93.23Q263.46 94.99 266.20 94.69L266.18 94.67L266.15 94.64Q271.96 95.12 273.22 88.60L273.17 88.54L273.18 88.56Q274.26 82.30 274.26 75.71L274.27 75.71L274.27 70.68L274.35 70.76Q274.31 68.28 273.65 65.83L273.62 65.80L273.57 65.75Q271.29 70.36 267.44 79.63L267.40 79.59L267.44 79.63Q263.66 88.97 261.29 93.27ZM271.06 61.17L271.04 61.15L270.99 61.10Q268.87 59.65 266.28 59.65L266.24 59.61L266.27 59.63Q263.38 59.34 261.23 61.12L261.11 61.00L261.05 60.94Q259.09 62.91 258.72 65.80L258.69 65.77L258.65 65.73Q257.93 68.34 257.86 71.23L257.87 71.25L257.83 71.21Q257.87 71.24 257.87 76.80L257.82 76.75L257.81 76.74Q257.80 81.33 258.69 88.37L258.87 88.55L258.71 88.39Q262.42 79.13 270.95 61.05ZM274.07 97.74L274.04 97.71L273.96 97.64Q270.59 99.45 266.07 99.45L266.01 99.39L262.96 99.53L262.91 99.48Q256.64 99.50 254.41 96.17L254.46 96.22L254.42 96.18Q252.81 91.90 252.67 86.20L252.77 86.30L252.61 86.14Q252.71 82.91 252.56 76.16L252.51 76.11L252.50 76.10Q252.41 73.71 252.11 67.78L252.07 67.75L252.16 67.83Q251.97 63.34 252.56 59.49L252.52 59.45L252.52 59.45Q253.53 53.79 261.98 53.35L261.97 53.34L261.92 53.29Q263.45 53.26 266.04 53.33L266.04 53.33L266.10 53.39Q277.10 53.65 279.17 60.39L279.23 60.44L279.24 60.46Q280.40 64.13 280.32 67.76L280.32 67.76L280.30 67.74Q280.13 77.43 279.99 79.80L280.01 79.83L279.90 79.71Q279.67 87.27 279.08 89.79L278.90 89.61L278.92 89.63Q277.84 95.88 274.13 97.81ZM283.77 97.37L283.75 97.35L283.63 97.22Q284.20 91.94 284.12 88.46L284.09 88.42L283.84 79.36L283.93 79.45Q283.79 73.61 282.76 62.86L282.69 62.79L282.80 62.90Q281.69 59.27 279.17 57.79L279.06 57.68L279.19 57.81Q276.21 52.90 266.13 52.61L265.99 52.46L266.00 52.47Q264.25 52.35 261.65 52.43L261.64 52.42L261.78 52.56Q252.86 52.60 251.90 58.68L251.89 58.67L251.97 58.75Q251.20 63.24 251.42 67.32L251.39 67.29L251.54 67.43Q252.18 75.93 252.10 82.45L252.01 82.35L252.10 82.44Q251.94 89.55 252.17 91.55L252.18 91.56L252.08 91.47Q252.93 97.57 255.89 99.13L255.87 99.10L255.84 99.08Q258.84 103.49 266.62 104.00L266.52 103.90L266.49 103.87Q273.60 104.46 274.86 104.39L274.82 104.35L274.74 104.27Q280.36 104.03 282.58 100.92L282.53 100.87L282.63 100.97Q283.45 99.49 283.60 97.20ZM266.97 93.98L266.90 93.91L266.91 93.92Q268.17 91.03 270.25 85.77L270.35 85.88L273.66 77.62L273.61 77.58Q273.69 80.92 272.95 87.44L272.76 87.25L272.76 87.25Q271.64 93.02 266.97 93.98ZM263.00 69.93L263.14 70.07L263.10 70.03Q263.87 66.43 265.20 65.31L265.37 65.49L265.21 65.32Q266.09 64.49 268.60 64.12L268.75 64.27L268.65 64.17Q265.41 71.37 261.78 80.41L261.73 80.37L261.81 80.45Q261.66 75.04 262.99 69.92Z"/><path d="M6 36 C165 125,177 97,339 112" stroke="#8e45d7" fill="none"/><path fill="#6daae8" d="M131.52 66.89L131.54 66.91L131.61 66.98Q125.25 66.85 121.70 64.77L121.79 64.86L121.67 64.75Q126.64 62.16 136.13 53.94L136.05 53.85L136.20 54.00Q137.51 53.54 140.03 52.35L139.95 52.28L139.99 52.32Q137.39 63.87 137.17 76.25L137.25 76.33L137.13 76.21Q137.01 88.68 139.08 100.53L139.08 100.53L139.04 100.49Q135.89 99.20 131.74 98.98L131.66 98.90L131.57 98.80Q131.41 90.79 131.41 82.86L131.40 82.85L131.44 82.89Q131.51 74.96 131.58 66.95ZM130.76 71.24L130.84 99.70L130.76 99.62Q133.19 99.68 135.04 100.05L134.97 99.98L134.92 99.93Q135.11 101.30 135.48 103.97L135.59 104.08L135.51 104.00Q141.07 105.04 145.81 109.41L145.80 109.41L145.79 109.39Q140.92 95.48 140.84 80.96L141.01 81.12L141.01 81.13Q140.72 66.46 144.28 52.38L144.30 52.41L144.30 52.40Q143.27 53.22 140.15 55.37L140.16 55.38L140.24 55.45Q140.47 53.83 141.06 50.87L141.11 50.91L141.24 51.05Q138.64 52.52 135.82 53.26L135.74 53.18L135.83 53.27Q128.45 60.19 120.08 64.64L120.05 64.61L119.97 64.53Q122.80 66.76 127.39 67.43L127.40 67.44L127.33 67.37Q126.07 68.41 123.55 70.48L123.61 70.54L123.63 70.56Q126.48 71.26 130.77 71.26L130.70 71.18Z"/><path fill="#e8a38c" d="M198.50 59.61L198.43 59.54L195.47 59.84L195.34 59.71Q191.09 60.06 190.65 63.98L190.63 63.96L190.55 63.89Q190.42 65.31 190.50 67.24L190.61 67.36L190.58 67.32Q190.49 70.94 192.94 73.53L193.12 73.72L193.05 73.65Q195.44 76.19 199.14 75.89L199.14 75.89L199.17 75.91Q203.26 75.71 204.75 73.93L204.71 73.90L204.76 73.94Q206.66 72.00 207.18 67.62L207.18 67.62L207.18 67.62Q207.81 63.37 205.37 61.73L205.37 61.74L205.38 61.74Q203.60 60.11 198.41 59.52ZM210.16 77.49L210.24 77.58L207.80 82.10L207.73 82.03Q202.50 91.40 195.17 99.33L195.10 99.26L195.10 99.26Q191.88 99.52 186.62 101.08L186.73 101.19L186.62 101.08Q196.94 88.80 203.09 79.47L203.19 79.56L203.09 79.47Q201.13 80.76 197.94 80.91L198.02 80.99L198.00 80.96Q192.07 81.19 189.10 77.33L189.22 77.45L189.17 77.40Q186.84 74.32 184.69 65.43L184.68 65.43L184.71 65.46Q184.59 64.44 184.29 62.63L184.32 62.66L184.43 62.76Q184.15 60.97 184.15 60.08L184.02 59.95L184.06 59.99Q184.03 56.47 186.10 55.29L186.14 55.33L186.20 55.39Q188.46 53.79 192.09 53.79L192.08 53.79L192.19 53.89Q198.30 53.77 198.30 53.77L198.32 53.80L198.44 53.92Q202.68 54.01 205.13 54.38L205.07 54.32L205.01 54.27Q209.13 54.76 210.91 55.72L210.88 55.68L210.95 55.75Q213.71 57.34 214.09 60.75L214.05 60.71L213.94 60.60Q213.91 61.01 213.54 66.20L213.55 66.21L213.64 66.30Q212.97 70.53 212.53 72.16L212.45 72.08L212.43 72.05Q211.68 74.79 210.20 77.54ZM214.03 82.32L213.96 82.26L214.02 82.31Q215.80 77.88 216.84 69.50L216.82 69.48L216.81 69.47Q217.37 65.22 217.30 63.51L217.38 63.59L217.28 63.49Q217.35 60.00 215.05 58.23L214.99 58.17L214.29 57.84L214.29 57.84Q213.95 56.54 212.17 55.28L212.00 55.10L211.99 55.09Q207.64 53.26 198.30 52.97L198.24 52.90L198.20 52.86Q196.43 52.94 191.68 52.94L191.73 52.99L191.76 53.02Q188.19 52.86 185.30 54.19L185.36 54.25L185.35 54.24Q183.22 55.89 183.37 59.45L183.27 59.35L183.38 59.46Q183.71 61.19 184.08 65.12L184.16 65.20L184.16 65.20Q185.25 70.22 185.77 71.85L185.78 71.86L185.73 71.81Q186.98 75.58 188.83 78.10L188.69 77.96L188.77 78.03Q189.33 78.75 190.07 79.49L189.98 79.40L189.92 79.34Q190.59 80.37 191.85 82.15L191.85 82.16L191.69 81.99Q194.64 84.72 198.41 85.09L198.45 85.12L198.38 85.05Q194.73 90.30 191.70 94.01L191.79 94.10L184.60 102.47L184.61 102.48Q189.03 101.04 192.21 100.37L192.17 100.33L192.14 100.30Q190.72 102.07 187.68 105.40L187.61 105.33L187.70 105.42Q193.76 103.70 199.84 103.63L199.78 103.57L199.75 103.54Q204.26 98.49 212.71 84.42L212.70 84.40L212.78 84.63L212.68 84.53Q213.30 83.22 213.96 82.26ZM202.19 64.19L202.15 64.15L202.22 64.22Q203.44 64.03 204.33 64.25L204.20 64.12L204.23 64.15Q205.48 64.37 206.22 64.59L206.28 64.65L206.38 64.74Q206.57 65.46 206.72 66.27L206.68 66.23L206.65 66.21Q206.84 67.06 206.62 67.81L206.60 67.79L206.50 67.69Q206.50 71.09 204.20 73.24L204.16 73.20L204.31 73.35Q202.28 75.18 199.10 75.10L199.12 75.12L199.19 75.19Q198.41 75.23 195.44 74.63L195.42 74.61L195.34 74.53Q194.93 72.86 194.93 71.46L195.02 71.54L195.05 71.57Q194.77 70.92 194.77 70.48L194.88 70.59L194.80 70.50Q194.83 66.23 199.27 64.68L199.34 64.74L199.17 64.58Q200.65 64.28 202.28 64.28Z"/><path d="M6 111 C191 109,165 9,328 73" stroke="#e36da8" fill="none"/><path d="M7 109 C155 100,165 132,324 33" stroke="#db934c" fill="none"/><path d="M2 84 C184 96,164 85,331 101" stroke="#4393e4" fill="none"/><path d="M2 35 C174 19,152 14,336 134" stroke="#59ec59" fill="none"/><path d="M11 97 C178 31,174 80,336 48" stroke="#a792e6" fill="none"/><path d="M8 8 C186 33,158 42,336 51" stroke="#ef9f85" fill="none"/><path d="M3 122 C172 67,153 77,330 65" stroke="#e46786" fill="none"/><path d="M21 13 C154 19,189 66,325 35" stroke="#d1eb83" fill="none"/><path d="M3 11 C191 19,175 103,338 16" stroke="#7be358" fill="none"/><path d="M18 51 C168 100,192 11,337 81" stroke="#e985b7" fill="none"/><path fill="#6944d8" d="M55.94 99.88L55.90 99.84L56.02 99.96Q53.15 99.98 50.11 99.17L50.12 99.18L50.06 99.11Q47.82 97.47 47.53 94.28L47.45 94.21L47.49 94.25Q47.39 93.85 47.76 88.73L47.78 88.75L47.75 88.73Q49.84 88.45 53.77 87.70L53.64 87.58L53.27 89.06L53.27 89.06Q52.87 92.59 55.61 93.70L55.46 93.54L55.52 93.61Q57.10 94.30 61.18 94.30L61.21 94.34L61.26 94.38Q64.24 93.96 64.61 93.81L64.74 93.94L64.62 93.81Q66.37 93.49 67.77 92.52L67.85 92.60L67.78 92.53Q70.56 90.71 70.19 86.64L70.21 86.66L70.16 86.61Q69.82 81.89 66.45 78.86L66.48 78.89L66.50 78.91Q63.18 75.92 58.36 75.92L58.35 75.91L58.26 75.38L58.31 75.42Q59.03 75.33 60.74 75.19L60.84 75.28L60.82 75.27Q64.36 74.88 67.03 72.47L67.08 72.52L67.01 72.46Q69.81 70.18 70.11 66.55L69.98 66.42L70.10 66.54Q70.24 65.87 70.24 65.20L70.18 65.14L70.29 65.25Q70.23 62.23 67.56 60.45L67.55 60.43L67.50 60.39Q65.27 58.97 62.16 59.19L62.07 59.11L62.00 59.03Q59.59 58.85 57.22 59.66L57.23 59.68L57.26 59.71Q54.31 60.60 53.71 62.83L53.80 62.91L53.77 62.88Q53.45 64.41 53.60 65.90L53.55 65.85L53.48 65.78Q51.51 65.37 47.51 63.96L47.61 64.06L47.48 63.93Q47.13 60.77 47.21 59.14L47.09 59.02L47.15 59.08Q47.38 56.12 49.45 54.79L49.46 54.80L49.44 54.77Q52.27 53.68 55.38 53.68L55.35 53.64L55.27 53.57Q61.45 53.52 67.60 54.04L67.58 54.02L67.67 54.11Q77.49 54.89 76.90 62.22L76.98 62.31L76.85 62.17Q76.83 65.20 75.87 68.24L75.71 68.07L75.69 68.06Q74.00 74.15 69.41 75.93L69.33 75.85L69.31 75.83Q74.50 76.94 75.68 83.46L75.70 83.48L75.77 83.55Q76.21 85.77 76.36 89.69L76.34 89.67L76.26 89.60Q76.68 98.39 67.72 99.28L67.58 99.15L67.56 99.13Q66.29 99.41 55.99 99.93ZM66.10 104.26L66.17 104.33L66.03 104.19Q67.35 104.40 72.91 104.55L72.87 104.51L72.86 104.50Q76.31 104.69 79.50 103.43L79.44 103.37L79.43 103.36Q81.66 101.44 81.29 98.04L81.36 98.10L81.32 98.06Q81.10 95.48 80.51 92.07L80.58 92.14L80.50 92.06Q79.15 83.38 75.38 80.19L75.43 80.24L75.04 79.49L74.83 79.20L74.90 79.27Q78.27 76.41 79.75 67.89L79.86 68.00L79.79 67.93Q79.81 66.99 80.03 65.13L80.09 65.20L80.01 65.11Q80.29 63.76 80.14 62.43L80.17 62.46L80.02 62.31Q79.84 59.16 77.32 57.83L77.34 57.86L77.07 57.73L77.09 57.75Q76.54 55.87 74.32 54.83L74.31 54.82L74.32 54.83Q71.33 53.48 61.33 52.88L61.32 52.87L61.38 52.93Q58.03 52.70 54.92 52.70L54.94 52.72L54.93 52.71Q51.90 52.79 48.94 54.05L48.97 54.08L48.97 54.09Q46.52 55.48 46.52 58.89L46.51 58.88L46.46 58.83Q46.53 58.08 47.04 64.61L47.04 64.60L46.94 64.50Q47.70 64.81 50.88 66.00L50.75 65.86L50.89 66.01Q50.80 66.95 50.73 67.92L50.71 67.90L50.76 67.95Q50.77 68.92 50.84 69.96L50.72 69.84L50.71 69.83Q54.33 70.70 58.26 70.93L58.21 70.88L58.30 70.97Q58.11 67.00 60.26 65.37L60.29 65.40L60.20 65.32Q61.82 64.04 65.75 63.60L65.83 63.68L65.79 63.64Q67.95 63.58 69.06 63.95L69.17 64.06L69.17 64.06Q69.26 64.30 69.34 64.52L69.27 64.45L69.18 64.73L69.48 65.92L69.39 65.83Q69.46 66.27 69.39 66.57L69.42 66.60L69.51 66.69Q69.20 69.87 66.24 72.17L66.39 72.32L66.23 72.16Q64.61 74.09 60.68 74.46L60.64 74.42L60.65 74.43Q59.16 74.65 57.46 74.65L57.43 74.62L57.49 74.68Q57.53 75.31 57.82 76.65L57.93 76.76L57.84 76.66Q61.26 76.67 64.07 78.08L64.04 78.04L63.93 78.16L60.76 78.40L60.91 78.54Q60.97 79.19 61.19 80.38L61.15 80.34L61.15 80.34Q65.33 80.22 68.66 82.81L68.64 82.79L68.67 82.82Q69.08 83.53 69.67 86.71L69.55 86.59L69.70 86.74Q69.96 92.34 64.26 93.15L64.35 93.24L64.37 93.26Q60.18 93.67 59.06 93.59L59.06 93.59L59.02 93.55Q58.29 93.49 57.26 93.34L57.20 93.29L57.08 92.28L57.33 91.42L57.52 90.79L57.62 90.22L57.59 90.19Q55.67 90.27 54.11 90.64L54.17 90.70L54.24 90.77Q54.12 90.28 54.12 89.91L54.13 89.92L54.05 89.84Q54.17 89.51 54.17 89.07L54.22 89.12L54.11 89.01Q54.20 88.21 54.49 86.80L54.47 86.78L54.58 86.88Q50.83 87.21 47.20 87.88L47.34 88.02L47.29 87.97Q47.21 88.86 46.99 91.04L47.09 91.14L47.08 91.13Q46.81 93.27 46.81 94.45L46.88 94.53L46.71 94.36Q47.03 98.53 49.70 100.01L49.67 99.98L49.67 99.98Q52.48 104.35 61.67 103.98L61.77 104.08L61.70 104.01Q63.02 103.85 65.99 104.15Z"/><path d="M19 69 C185 79,185 3,335 7" stroke="#5bea7f" fill="none"/><path d="M5 7 C169 84,168 28,328 126" stroke="#9343e4" fill="none"/><path d="M16 134 C151 62,180 70,335 97" stroke="#e78c6e" fill="none"/><path d="M19 76 C172 133,176 80,326 100" stroke="#55ec55" fill="none"/><path d="M9 112 C151 91,175 15,338 38" stroke="#e8e849" fill="none"/><path d="M2 93 C188 96,158 121,324 105" stroke="#a35fe7" fill="none"/><path d="M19 30 C158 111,170 48,334 24" stroke="#87eded" fill="none"/><path d="M1 92 C190 73,159 79,330 139" stroke="#e85da3" fill="none"/><path d="M18 92 C155 22,173 97,323 70" stroke="#9142e0" fill="none"/><path d="M12 37 C160 126,165 74,335 49" stroke="#e7d291" fill="none"/><path d="M18 37 C171 1,177 15,323 78" stroke="#db70c0" fill="none"/><path d="M19 135 C153 139,191 71,328 24" stroke="#e470e4" fill="none"/><path d="M9 126 C184 89,182 101,337 121" stroke="#ddbe64" fill="none"/><path d="M16 10 C169 16,188 107,322 18" stroke="#ade475" fill="none"/><path d="M13 74 C190 65,162 46,323 106" stroke="#e49090" fill="none"/><path d="M9 59 C171 27,155 131,330 86" stroke="#91e575" fill="none"/><path d="M7 136 C185 80,165 29,322 110" stroke="#e08e3c" fill="none"/><path d="M4 5 C150 67,151 33,335 94" stroke="#c3e55b" fill="none"/><path d="M17 79 C174 85,161 74,341 102" stroke="#47c1ea" fill="none"/><path d="M19 43 C156 118,179 85,334 36" stroke="#f1f183" fill="none"/><path d="M18 37 C186 36,152 1,324 28" stroke="#b7e28c" fill="none"/><path d="M14 98 C181 31,174 33,329 134" stroke="#7ae4e4" fill="none"/><path d="M8 10 C180 114,159 80,341 113" stroke="#76afe9" fill="none"/></svg>