<svg xmlns="http://www.w3.org/2000/svg" width="342" height="140" viewBox="0,0,342,140"><path d="M17 79 C160 97,176 2,341 136" stroke="#83e1ca" fill="none"/><path d="M10 45 C162 104,162 53,325 100" stroke="#ed7272" fill="none"/><path d="M9 6 C182 95,169 117,339 44" stroke="#d7d75a" fill="none"/><path d="M21 98 C192 131,173 103,328 20" stroke="#ef8ebf" fill="none"/><path d="M8 40 C168 80,170 44,340 68" stroke="#9fef84" fill="none"/><path d="M11 46 C181 38,168 95,330 23" stroke="#e377e3" fill="none"/><path fill="#7791de" d="M44.83 99.33L44.89 99.39L44.86 99.37Q42.09 99.43 39.11 98.63L39.22 98.74L39.10 98.62Q36.88 96.99 36.59 93.86L36.61 93.88L36.43 93.70Q36.53 93.51 36.90 88.49L36.73 88.32L36.73 88.32Q38.69 87.96 42.54 87.23L42.63 87.31L42.33 88.83L42.18 88.68Q41.78 92.14 44.47 93.23L44.47 93.22L44.40 93.15Q45.95 93.83 49.95 93.83L49.96 93.85L49.89 93.78Q52.95 93.49 53.31 93.34L53.48 93.50L53.33 93.36Q55.17 93.16 56.55 92.22L56.53 92.19L56.58 92.24Q59.26 90.42 58.90 86.42L58.80 86.32L58.86 86.38Q58.58 81.80 55.27 78.82L55.15 78.71L55.19 78.75Q51.88 75.76 47.15 75.76L47.04 75.65L47.04 75.21L47.08 75.25Q47.96 75.33 49.64 75.19L49.49 75.05L49.47 75.02Q53.11 74.81 55.73 72.45L55.84 72.55L55.89 72.60Q58.33 70.07 58.62 66.50L58.79 66.67L58.70 66.57Q58.82 65.89 58.82 65.24L58.76 65.18L58.86 65.28Q58.81 62.33 56.19 60.58L56.26 60.65L56.27 60.66Q53.80 58.99 50.75 59.21L50.93 59.39L50.91 59.37Q48.33 58.98 46.01 59.78L46.13 59.90L46.11 59.88Q43.20 60.75 42.61 62.93L42.62 62.94L42.75 63.07Q42.26 64.39 42.40 65.85L42.53 65.97L42.40 65.85Q40.51 65.48 36.59 64.10L36.53 64.05L36.52 64.04Q36.14 60.89 36.21 59.29L36.19 59.27L36.30 59.38Q36.42 56.37 38.46 55.06L38.53 55.14L38.53 55.13Q41.09 53.84 44.14 53.84L44.31 54.00L44.22 53.92Q50.31 53.90 56.35 54.41L56.21 54.27L56.40 54.45Q66.07 55.25 65.49 62.46L65.45 62.42L65.34 62.31Q65.16 65.11 64.22 68.09L64.25 68.13L64.25 68.13Q62.46 73.98 57.95 75.72L58.08 75.85L58.11 75.88Q63.04 76.81 64.21 83.22L64.30 83.31L64.32 83.33Q64.67 85.42 64.81 89.27L64.89 89.35L64.79 89.25Q65.11 97.80 56.31 98.67L56.24 98.60L56.35 98.71Q54.91 98.80 44.80 99.31ZM54.68 103.51L54.74 103.57L54.70 103.53Q55.86 103.60 61.32 103.75L61.45 103.88L61.40 103.83Q64.74 103.96 67.86 102.73L67.85 102.71L67.84 102.71Q70.16 100.95 69.79 97.60L69.70 97.50L69.84 97.65Q69.45 94.93 68.86 91.58L68.91 91.63L68.93 91.65Q67.65 83.16 63.94 80.03L63.91 80.00L63.54 79.27L63.42 79.08L63.42 79.09Q66.75 76.30 68.20 67.94L68.32 68.05L68.14 67.87Q68.35 67.13 68.57 65.32L68.62 65.37L68.57 65.32Q68.77 63.92 68.62 62.61L68.46 62.44L68.57 62.56Q68.24 59.32 65.77 58.01L65.82 58.06L65.69 58.08L65.69 58.07Q64.99 56.06 62.80 55.04L62.76 55.00L62.76 55.00Q59.86 53.70 50.04 53.11L50.19 53.27L50.19 53.27Q46.97 53.11 43.92 53.11L43.94 53.13L43.90 53.09Q40.87 53.11 37.96 54.35L37.96 54.34L37.90 54.29Q35.64 55.81 35.64 59.16L35.62 59.14L35.50 59.02Q35.63 58.34 36.14 64.74L36.02 64.63L35.99 64.59Q36.65 64.82 39.78 65.99L39.77 65.98L39.74 65.95Q39.73 66.96 39.66 67.90L39.76 68.00L39.66 67.91Q39.70 68.89 39.78 69.91L39.87 70.01L39.75 69.89Q43.24 70.69 47.10 70.91L47.00 70.81L47.12 70.93Q46.90 66.99 49.01 65.39L49.12 65.51L49.02 65.41Q50.69 64.24 54.54 63.80L54.46 63.72L54.51 63.77Q56.63 63.71 57.72 64.07L57.74 64.09L57.84 64.19Q57.75 64.25 57.83 64.47L57.83 64.47L57.99 65.00L58.12 66.00L58.03 65.91Q58.17 66.41 58.10 66.70L58.02 66.62L57.96 66.57Q57.85 69.87 54.94 72.13L54.95 72.14L54.94 72.13Q53.33 74.01 49.47 74.37L49.42 74.32L49.46 74.35Q48.08 74.66 46.41 74.66L46.29 74.54L46.36 74.60Q46.35 75.17 46.64 76.48L46.71 76.56L46.80 76.64Q50.10 76.60 52.86 77.98L52.72 77.84L52.63 77.96L49.67 78.35L49.70 78.38Q49.67 78.93 49.89 80.10L49.94 80.15L49.83 80.04Q54.05 80.04 57.33 82.59L57.29 82.56L57.27 82.53Q57.62 83.18 58.21 86.31L58.34 86.44L58.20 86.30Q58.71 92.05 53.11 92.85L52.98 92.72L52.95 92.69Q49.12 93.37 48.03 93.30L47.93 93.19L47.88 93.15Q47.00 92.92 45.98 92.77L45.96 92.76L45.96 91.88L46.27 91.09L46.29 90.32L46.38 89.75L46.49 89.87Q44.59 89.93 43.07 90.30L43.09 90.32L43.05 90.28Q42.92 89.78 42.92 89.42L42.91 89.42L43.03 89.53Q43.13 89.20 43.13 88.76L43.07 88.70L43.14 88.77Q43.19 87.95 43.48 86.57L43.36 86.45L43.33 86.41Q39.91 86.99 36.34 87.65L36.37 87.67L36.30 87.60Q36.20 88.45 35.98 90.60L36.02 90.64L36.17 90.79Q35.87 92.85 35.87 94.01L35.95 94.09L35.82 93.96Q36.00 97.92 38.62 99.38L38.72 99.48L38.68 99.44Q41.53 103.82 50.55 103.46L50.52 103.42L50.45 103.36Q51.84 103.29 54.75 103.58Z"/><path d="M7 16 C177 13,162 90,341 134" stroke="#9bd95d" fill="none"/><path d="M9 59 C172 20,191 37,336 74" stroke="#bee645" fill="none"/><path d="M3 45 C189 22,151 110,330 23" stroke="#6786e4" fill="none"/><path d="M10 105 C169 89,151 67,331 22" stroke="#e04242" fill="none"/><path d="M15 109 C159 81,162 68,324 129" stroke="#6ca8e4" fill="none"/><path d="M10 101 C160 9,170 97,339 35" stroke="#81df61" fill="none"/><path d="M4 102 C152 24,180 91,337 126" stroke="#7beed1" fill="none"/><path d="M15 13 C151 32,187 68,336 22" stroke="#7ddf5c" fill="none"/><path d="M4 44 C169 90,169 51,323 55" stroke="#7593ef" fill="none"/><path d="M17 11 C159 27,190 45,335 51" stroke="#92bce7" fill="none"/><path d="M10 92 C155 95,157 71,328 97" stroke="#72ed72" fill="none"/><path d="M18 79 C167 78,171 114,334 137" stroke="#5b5bea" fill="none"/><path d="M4 77 C180 10,185 72,340 19" stroke="#e3a18b" fill="none"/><path d="M8 71 C168 116,189 11,339 54" stroke="#59e2e2" fill="none"/><path d="M2 128 C152 10,171 3,325 121" stroke="#8c8ced" fill="none"/><path d="M5 126 C166 9,189 91,340 95" stroke="#6cc2de" fill="none"/><path d="M9 26 C179 137,155 53,331 79" stroke="#4c91d6" fill="none"/><path fill="#dcc274" d="M228.34 74.08L228.35 74.08L228.51 74.24Q230.04 74.24 232.73 73.95L232.71 73.94L232.70 73.92Q232.63 75.16 232.63 76.40L232.58 76.35L232.58 78.75L232.54 78.71Q230.93 78.70 229.33 78.85L229.42 78.93L229.29 78.80Q227.71 78.90 226.11 78.83L226.15 78.87L226.14 78.86Q220.68 90.63 214.13 99.43L214.20 99.50L214.06 99.37Q209.31 100.65 206.84 101.82L206.88 101.85L206.79 101.77Q214.65 90.86 220.47 78.86L220.56 78.95L215.49 78.90L215.47 78.88Q215.45 76.32 215.24 73.77L215.23 73.77L215.33 73.87Q219.02 74.21 222.95 74.21L222.84 74.11L226.53 67.10L226.44 67.01Q228.41 63.45 230.74 60.39L230.74 60.39L230.75 60.41Q227.70 60.63 224.65 60.63L224.74 60.73L224.70 60.69Q212.97 60.60 205.77 56.38L205.89 56.50L204.68 53.25L204.59 53.16Q204.02 51.65 203.30 49.97L203.21 49.89L203.27 49.95Q211.55 54.96 222.46 55.40L222.45 55.39L222.38 55.32Q232.20 55.75 242.02 51.97L242.13 52.07L242.12 52.07Q241.71 52.82 240.76 54.49L240.78 54.51L240.71 54.44Q233.87 63.60 228.42 74.15ZM243.86 57.15L243.84 57.13L245.69 53.24L245.66 53.21Q243.97 54.28 240.77 55.66L240.71 55.60L241.02 54.96L241.04 54.98Q241.20 54.63 241.41 54.41L241.51 54.51L241.44 54.44Q242.29 53.25 243.67 50.71L243.57 50.61L243.57 50.60Q233.38 54.97 222.40 54.53L222.45 54.58L222.37 54.50Q210.86 53.98 201.77 48.30L201.81 48.35L201.86 48.39Q203.93 52.06 205.53 57.15L205.48 57.10L205.42 57.04Q207.54 58.29 209.07 58.88L209.00 58.81L209.04 58.85Q209.44 59.61 210.31 63.18L210.32 63.19L210.25 63.11Q216.32 65.54 226.86 65.25L226.86 65.25L226.87 65.26Q226.26 66.32 222.48 73.52L222.36 73.41L222.49 73.53Q218.48 73.45 214.70 73.09L214.74 73.13L214.72 73.11Q214.84 74.68 214.84 76.36L214.84 76.36L214.84 79.63L218.17 79.76L218.10 82.38L218.10 82.39Q210.51 96.39 205.20 103.23L205.35 103.39L205.22 103.25Q208.25 101.77 211.38 100.83L211.52 100.97L211.36 100.82Q210.22 102.72 207.60 106.00L207.55 105.95L207.49 105.88Q213.48 103.73 218.13 103.29L218.22 103.38L218.28 103.43Q223.81 96.16 229.77 83.22L229.72 83.16L236.42 83.68L236.27 83.53Q236.22 81.89 236.22 80.14L236.22 80.13L236.13 76.63L236.30 76.79Q235.64 76.65 234.59 76.72L234.73 76.86L234.68 76.81Q233.51 76.77 233.00 76.77L232.98 76.75L232.99 76.76Q233.02 76.58 233.10 76.29L233.21 76.40L233.18 75.85L233.18 75.86Q237.98 66.04 243.88 57.17Z"/><path d="M15 27 C188 101,165 51,340 21" stroke="#6f4ed4" fill="none"/><path fill="#75dfdf" d="M122.92 94.68L122.80 94.56L122.88 94.64Q123.41 96.47 124.42 100.33L124.47 100.37L124.51 100.42Q116.38 97.81 107.57 98.32L107.70 98.45L107.54 98.28Q98.86 98.84 91.22 102.63L91.31 102.71L91.20 102.60Q91.74 101.40 91.82 101.55L91.80 101.53L91.85 101.58Q98.93 93.97 106.42 85.53L106.41 85.51L106.45 85.56Q114.82 75.96 117.07 67.01L117.00 66.94L117.08 67.01Q118.02 63.74 115.59 61.49L115.56 61.46L115.45 61.35Q112.99 59.07 109.57 59.36L109.73 59.52L109.75 59.54Q108.97 59.34 108.31 59.34L108.32 59.35L108.38 59.40Q105.42 59.36 103.02 61.11L103.02 61.11L103.02 61.11Q100.63 63.80 101.06 68.89L100.96 68.79L101.10 68.93Q97.67 68.26 95.34 67.39L95.22 67.27L95.24 67.29Q94.88 64.60 94.73 61.84L94.81 61.91L94.77 61.87Q94.69 58.81 95.85 56.63L95.76 56.53L95.86 56.64Q99.10 53.84 105.50 53.84L105.64 53.98L108.95 53.94L108.90 53.89Q113.20 53.90 115.02 54.12L115.15 54.25L115.15 54.25Q123.45 55.06 123.96 59.71L123.82 59.58L123.99 59.75Q124.11 60.81 123.97 62.34L124.00 62.37L123.96 62.33Q123.89 63.57 123.59 64.88L123.51 64.79L123.60 64.89Q120.33 80.23 105.85 93.33L105.90 93.37L105.95 93.42Q108.56 93.05 111.18 93.05L111.31 93.18L111.34 93.22Q117.45 93.13 122.90 94.66ZM121.83 54.90L121.74 54.80L121.89 54.95Q118.68 53.56 115.40 53.41L115.46 53.47L108.96 53.15L109.02 53.21Q100.43 52.63 96.21 54.74L96.12 54.64L96.23 54.75Q94.14 57.32 94.14 61.25L94.09 61.20L94.20 61.31Q94.33 62.75 94.91 68.13L94.83 68.04L94.78 67.99Q95.75 68.39 98.01 68.97L98.07 69.03L98.03 70.95L98.18 71.11Q97.96 71.82 98.10 72.84L98.16 72.90L98.08 72.82Q100.47 73.03 105.20 73.46L105.38 73.65L105.23 73.50Q105.15 72.77 105.15 72.11L105.24 72.19L105.27 72.22Q105.19 68.66 107.52 66.08L107.53 66.08L107.60 66.16Q109.83 63.48 113.25 63.70L113.35 63.80L113.26 63.70Q114.77 63.84 116.22 64.13L116.23 64.13L116.29 64.19Q116.43 64.84 116.58 65.64L116.47 65.54L116.60 65.66Q116.60 66.39 116.45 67.04L116.48 67.08L116.54 67.13Q114.10 76.19 105.66 85.42L105.64 85.40L105.58 85.34Q101.64 89.76 91.24 101.33L91.09 101.19L91.21 101.30Q90.75 102.80 90.09 103.89L90.20 104.00L90.25 104.05Q93.18 102.25 96.09 101.24L96.03 101.18L96.22 101.37Q94.76 102.39 92.95 105.22L92.98 105.26L92.87 105.15Q92.75 105.89 92.53 106.55L92.59 106.61L92.53 106.55Q101.72 102.51 112.20 102.87L112.20 102.87L112.32 102.99Q123.06 103.19 131.79 107.70L131.85 107.75L130.03 103.76L129.88 103.60Q128.75 101.17 128.24 99.64L128.12 99.51L128.20 99.59Q126.76 98.74 124.43 97.94L124.45 97.96L124.43 97.93Q124.18 96.59 123.45 93.98L123.46 93.99L123.40 93.93Q119.25 92.90 114.88 92.54L114.83 92.48L114.92 92.57Q123.77 83.75 126.68 67.96L126.72 68.00L127.07 62.46L127.09 62.48Q126.99 59.11 124.67 57.80L124.70 57.83L124.58 57.79L124.49 57.70Q124.50 57.64 124.36 57.64L124.42 57.70L124.44 57.72Q123.97 56.09 121.86 54.92Z"/><path fill="#80d962" d="M285.16 74.23L285.04 74.11L285.14 74.21Q286.58 74.12 289.27 73.83L289.31 73.87L289.37 73.93Q289.25 75.12 289.25 76.36L289.30 76.41L289.26 78.77L289.26 78.76Q287.61 78.71 286.01 78.86L286.11 78.96L285.97 78.82Q284.49 79.01 282.89 78.94L282.77 78.82L282.90 78.95Q277.32 90.61 270.77 99.41L270.87 99.51L270.90 99.54Q265.99 100.67 263.52 101.83L263.60 101.91L263.50 101.81Q271.47 91.02 277.29 79.02L277.29 79.01L272.28 79.02L272.18 78.92Q272.26 76.45 272.04 73.91L272.01 73.88L272.08 73.95Q275.59 74.11 279.52 74.11L279.52 74.11L283.15 67.05L283.18 67.09Q285.15 63.53 287.48 60.47L287.43 60.42L287.36 60.35Q284.40 60.66 281.34 60.66L281.29 60.61L281.44 60.76Q269.81 60.77 262.61 56.55L262.44 56.38L261.31 53.22L261.28 53.18Q260.66 51.61 259.93 49.94L259.87 49.88L259.85 49.87Q268.24 54.98 279.15 55.42L279.13 55.39L279.15 55.42Q288.96 55.84 298.78 52.06L298.79 52.06L298.78 52.06Q298.30 52.74 297.35 54.42L297.41 54.47L297.40 54.46Q290.58 63.64 285.12 74.19ZM300.40 57.03L300.57 57.19L302.49 53.36L302.47 53.35Q300.59 54.23 297.39 55.62L297.44 55.67L297.70 54.98L297.73 55.01Q297.90 54.67 298.12 54.45L298.22 54.56L298.21 54.55Q298.94 53.24 300.32 50.69L300.29 50.65L300.24 50.61Q290.06 54.97 279.07 54.54L279.10 54.56L279.02 54.49Q267.53 53.98 258.44 48.31L258.58 48.45L258.59 48.46Q260.56 52.03 262.16 57.12L262.14 57.10L262.02 56.98Q264.14 58.22 265.67 58.81L265.68 58.82L265.76 58.90Q266.09 59.59 266.96 63.15L266.96 63.15L266.91 63.11Q273.03 65.59 283.58 65.30L283.57 65.29L283.53 65.25Q282.81 66.20 279.02 73.40L279.02 73.40L279.07 73.45Q275.09 73.40 271.31 73.03L271.47 73.19L271.39 73.11Q271.45 74.63 271.45 76.30L271.52 76.38L271.50 79.63L274.65 79.58L274.72 82.34L274.75 82.37Q267.36 96.58 262.05 103.41L261.93 103.30L262.04 103.40Q264.99 101.84 268.11 100.90L268.12 100.90L268.07 100.85Q266.90 102.74 264.28 106.01L264.18 105.91L264.24 105.97Q270.19 103.77 274.84 103.33L274.80 103.29L274.83 103.32Q280.43 96.12 286.40 83.17L286.48 83.26L293.04 83.63L293.11 83.70Q292.88 81.87 292.88 80.12L292.91 80.16L292.80 76.63L292.82 76.65Q292.26 76.60 291.21 76.67L291.35 76.82L291.23 76.70Q290.20 76.79 289.69 76.79L289.64 76.75L289.76 76.86Q289.71 76.59 289.78 76.30L289.84 76.36L289.88 75.89L289.75 75.76Q294.68 66.07 300.57 57.19Z"/><path d="M9 79 C182 74,170 134,322 98" stroke="#dc5096" fill="none"/><path d="M4 38 C175 120,192 96,337 21" stroke="#62e884" fill="none"/><path d="M13 102 C186 68,183 2,336 107" stroke="#e67474" fill="none"/><path d="M5 87 C157 31,174 48,333 75" stroke="#a58eea" fill="none"/><path d="M2 20 C172 69,154 51,341 124" stroke="#ba5cda" fill="none"/><path d="M10 86 C151 127,181 127,322 83" stroke="#4ae799" fill="none"/><path d="M19 8 C175 66,155 84,338 54" stroke="#7ec8e0" fill="none"/><path d="M14 77 C190 82,182 92,341 32" stroke="#e7ad73" fill="none"/><path d="M13 46 C158 123,176 78,330 108" stroke="#42e042" fill="none"/><path d="M17 44 C186 94,151 29,338 62" stroke="#f187d7" fill="none"/><path d="M7 126 C176 20,179 88,341 15" stroke="#e2964a" fill="none"/><path d="M18 105 C190 94,191 134,337 81" stroke="#d44eb2" fill="none"/><path fill="#8565e6" d="M165.61 66.96L165.60 66.94L165.50 66.85Q159.53 66.99 156.04 64.95L156.06 64.97L156.06 64.97Q160.85 62.34 170.16 54.26L170.10 54.20L170.09 54.20Q171.51 53.88 173.99 52.71L173.90 52.62L174.06 52.78Q171.46 64.07 171.24 76.22L171.29 76.28L171.19 76.17Q170.96 88.31 173.00 99.95L173.02 99.97L173.07 100.02Q169.87 98.63 165.79 98.42L165.67 98.30L165.75 98.37Q165.61 90.52 165.61 82.74L165.54 82.67L165.43 82.56Q165.62 74.90 165.70 67.04ZM164.85 71.21L164.93 99.16L164.83 99.06Q167.20 99.09 169.01 99.46L169.12 99.56L169.12 99.56Q169.22 100.82 169.58 103.44L169.50 103.36L169.43 103.30Q174.90 104.32 179.56 108.62L179.56 108.62L179.72 108.77Q175.00 95.19 174.93 80.93L174.84 80.84L174.85 80.85Q174.61 66.50 178.11 52.68L178.26 52.83L178.22 52.80Q177.22 53.61 174.16 55.72L174.12 55.68L174.13 55.69Q174.50 54.25 175.09 51.34L174.99 51.24L175.04 51.29Q172.52 52.78 169.76 53.50L169.74 53.49L169.68 53.42Q162.55 60.33 154.33 64.70L154.32 64.68L154.28 64.65Q156.96 66.74 161.47 67.40L161.57 67.49L161.43 67.36Q160.22 68.40 157.74 70.44L157.82 70.51L157.84 70.53Q160.71 71.29 164.93 71.29L164.95 71.32Z"/><path d="M19 112 C176 58,176 114,341 36" stroke="#57e457" fill="none"/><path d="M3 2 C181 129,151 4,326 136" stroke="#8161df" fill="none"/><path d="M6 120 C156 135,190 54,332 97" stroke="#4be1bc" fill="none"/><path d="M5 59 C187 41,152 52,326 101" stroke="#5278e9" fill="none"/></svg>