<svg xmlns="http://www.w3.org/2000/svg" width="342" height="140" viewBox="0,0,342,140"><path d="M5 3 C187 65,154 57,328 70" stroke="#af79e6" fill="none"/><path d="M19 122 C156 91,160 63,328 93" stroke="#e48080" fill="none"/><path d="M12 23 C187 20,188 39,338 25" stroke="#e24f4f" fill="none"/><path d="M20 134 C191 68,190 97,327 31" stroke="#ef85d4" fill="none"/><path d="M20 101 C160 38,182 66,329 24" stroke="#c2e35d" fill="none"/><path d="M6 91 C185 41,191 123,340 33" stroke="#ee76d0" fill="none"/><path d="M2 100 C164 86,154 87,331 62" stroke="#56d676" fill="none"/><path d="M18 17 C188 69,168 100,335 72" stroke="#93e5a8" fill="none"/><path d="M3 88 C154 112,171 65,336 93" stroke="#81dd63" fill="none"/><path d="M20 10 C186 109,158 7,338 90" stroke="#aa76df" fill="none"/><path fill="#4ad34a" d="M266.87 77.17L267.02 77.31L266.90 77.20Q263.75 77.28 261.64 79.59L261.63 79.58L261.69 79.64Q259.58 81.95 259.32 85.25L259.21 85.14L259.25 85.17Q258.88 88.83 260.99 90.58L260.97 90.55L261.05 90.64Q263.19 92.41 266.88 92.28L266.77 92.17L266.92 92.32Q270.77 91.88 272.42 90.23L272.40 90.22L272.40 90.22Q274.26 87.79 274.06 84.62L273.98 84.54L273.99 84.55Q273.87 81.40 272.00 79.33L271.91 79.24L271.97 79.30Q270.05 77.19 266.89 77.19ZM266.92 60.93L266.88 60.89L266.94 60.95Q264.49 60.74 262.18 61.60L262.22 61.64L262.10 61.52Q259.81 62.86 260.21 66.09L260.33 66.21L260.29 66.17Q261.21 72.70 267.01 72.70L266.92 72.60L266.88 72.56Q269.64 72.95 271.36 70.97L271.38 70.99L271.36 70.98Q273.14 69.06 273.20 66.36L273.12 66.28L273.22 66.37Q273.30 63.29 272.05 62.24L271.98 62.17L271.95 62.14Q269.23 60.87 266.99 61.00ZM266.52 96.60L266.46 96.54L261.15 96.50L261.20 96.56Q258.47 96.46 256.16 94.94L256.27 95.06L256.18 94.97Q253.90 93.08 254.16 88.14L254.03 88.00L254.05 88.03Q254.79 76.10 261.06 74.39L261.16 74.49L261.09 74.42Q257.13 72.84 254.83 63.54L254.83 63.55L254.87 63.59Q254.31 61.18 254.44 59.79L254.49 59.84L254.37 59.73Q255.04 56.17 261.44 56.11L261.28 55.95L261.29 55.96Q268.74 55.96 271.24 56.29L271.13 56.18L271.14 56.18Q277.81 57.12 278.60 60.61L278.61 60.62L278.62 60.63Q278.75 61.62 278.75 62.28L278.74 62.27L278.74 62.27Q278.80 63.51 278.47 64.57L278.50 64.60L278.49 64.59Q277.39 71.86 272.31 74.50L272.32 74.50L272.42 74.61Q278.46 75.97 279.32 85.13L279.32 85.14L279.38 85.20Q279.29 85.37 279.35 87.61L279.31 87.57L279.40 87.66Q279.50 92.37 276.73 94.22L276.65 94.13L276.75 94.23Q274.26 95.64 266.35 96.43ZM270.45 100.60L270.41 100.56L276.22 100.70L276.17 100.64Q279.09 100.73 281.73 99.48L281.79 99.54L281.71 99.46Q283.83 98.35 283.96 95.12L283.95 95.11L283.90 95.06Q283.91 93.09 283.25 89.72L283.23 89.71L283.24 89.71Q281.82 81.83 278.19 78.60L278.10 78.50L277.68 77.76L277.50 77.44L277.11 76.86L277.13 76.88Q279.94 74.47 281.52 67.29L281.50 67.27L281.62 67.38Q281.68 66.79 281.82 65.34L281.69 65.22L281.71 65.24Q281.80 64.01 281.67 62.95L281.63 62.92L281.70 62.99Q281.38 60.42 279.33 59.56L279.48 59.71L279.43 59.59L279.17 59.46L279.16 59.45Q278.62 58.12 276.57 56.74L276.68 56.84L276.63 56.73L276.70 56.80Q273.19 55.53 266.13 55.20L266.20 55.27L266.29 55.36Q263.47 55.04 261.10 55.24L261.20 55.34L261.13 55.28Q259.79 55.38 257.55 55.65L257.56 55.66L257.46 55.56Q254.20 56.32 253.81 59.16L253.74 59.09L253.73 59.08Q253.77 60.04 253.84 61.43L253.70 61.29L253.72 61.31Q253.89 62.21 254.88 66.29L254.95 66.37L254.89 66.31Q256.25 71.89 259.29 74.20L259.39 74.30L259.48 74.40L259.41 74.32Q254.64 76.61 253.72 85.58L253.68 85.54L253.84 85.70Q253.34 89.36 253.34 90.94L253.40 91.00L253.42 91.02Q253.64 94.21 255.69 95.79L255.61 95.71L255.52 95.62Q255.84 95.87 256.30 96.20L256.26 96.17L256.27 96.18Q258.14 100.22 270.47 100.61ZM269.84 81.39L269.86 81.41L269.74 81.29Q271.29 81.13 272.81 81.92L272.83 81.95L272.95 82.06Q273.57 83.74 273.51 84.66L273.55 84.70L273.49 84.65Q273.50 85.12 273.50 85.65L273.58 85.73L273.50 85.65Q273.61 89.85 269.66 91.30L269.50 91.14L269.66 91.30Q268.15 91.70 266.76 91.50L266.83 91.57L266.74 91.48Q264.84 91.69 262.87 90.90L262.91 90.94L262.87 90.91Q262.38 89.75 262.51 88.04L262.55 88.08L262.55 88.08Q262.86 85.36 264.94 83.25L264.99 83.30L265.04 83.35Q267.05 81.17 269.82 81.37ZM270.26 64.99L270.20 64.94L270.20 64.93Q271.49 64.64 272.41 64.91L272.55 65.04L272.53 66.40L272.51 66.39Q272.46 68.78 270.88 70.52L271.01 70.66L270.95 70.60Q269.32 72.30 266.94 71.97L266.92 71.95L267.03 72.05Q265.15 71.89 264.42 71.49L264.60 71.67L264.49 71.56Q264.44 71.11 264.24 69.92L264.22 69.90L264.17 69.85Q263.79 67.49 265.90 66.04L265.99 66.13L265.90 66.05Q267.77 64.88 270.21 64.95Z"/><path d="M4 48 C185 111,152 106,334 73" stroke="#db4268" fill="none"/><path d="M8 134 C154 35,175 75,325 91" stroke="#93e5bc" fill="none"/><path d="M15 62 C180 51,151 35,340 137" stroke="#6ddf47" fill="none"/><path d="M7 84 C163 101,157 23,338 70" stroke="#e2e282" fill="none"/><path d="M10 27 C185 128,188 50,323 36" stroke="#8cb7e2" fill="none"/><path d="M1 102 C164 73,159 15,328 106" stroke="#e07eaf" fill="none"/><path fill="#dc6fdc" d="M57.32 96.64L57.17 96.49L57.18 96.50Q54.79 96.69 52.09 95.96L52.09 95.96L52.02 95.89Q50.00 94.40 49.73 91.56L49.72 91.55L49.66 91.49Q49.75 91.32 50.08 86.77L50.01 86.69L50.09 86.77Q51.80 86.38 55.30 85.72L55.20 85.62L54.88 86.95L54.93 87.00Q54.57 90.13 57.01 91.12L56.97 91.09L57.02 91.13Q58.28 91.60 61.91 91.60L61.90 91.59L61.98 91.67Q64.73 91.39 65.06 91.26L64.96 91.16L65.06 91.26Q66.68 91.03 67.93 90.18L67.85 90.09L67.77 90.01Q70.31 88.46 69.98 84.84L70.01 84.87L69.89 84.75Q69.61 80.58 66.61 77.87L66.73 77.99L66.64 77.91Q63.64 75.20 59.35 75.20L59.32 75.17L59.34 74.79L59.38 74.83Q60.03 74.76 61.55 74.63L61.49 74.57L61.51 74.58Q64.85 74.43 67.22 72.29L67.15 72.21L67.17 72.23Q69.64 70.19 69.90 66.96L69.82 66.88L69.94 67.00Q69.91 66.24 69.91 65.64L70.02 65.75L70.03 65.76Q69.96 63.06 67.59 61.48L67.61 61.50L67.65 61.54Q65.40 60.02 62.63 60.22L62.67 60.26L62.79 60.38Q60.52 60.08 58.41 60.80L58.29 60.69L58.28 60.68Q55.85 61.67 55.32 63.65L55.30 63.63L55.33 63.66Q54.93 64.91 55.07 66.23L55.24 66.41L55.24 66.41Q53.29 65.84 49.73 64.59L49.77 64.63L49.86 64.72Q49.41 61.76 49.48 60.31L49.40 60.24L49.42 60.26Q49.64 57.64 51.48 56.45L51.55 56.52L51.56 56.53Q53.88 55.35 56.65 55.35L56.73 55.43L56.80 55.50Q62.19 55.35 67.66 55.81L67.68 55.83L67.61 55.76Q76.40 56.50 75.87 63.03L75.96 63.12L75.99 63.15Q75.74 65.61 74.89 68.31L74.84 68.26L74.83 68.26Q73.41 73.76 69.32 75.34L69.33 75.35L69.31 75.33Q73.86 76.26 74.92 82.06L74.86 82.00L74.81 81.95Q75.30 84.03 75.44 87.53L75.32 87.41L75.36 87.45Q75.63 95.17 67.65 95.96L67.59 95.90L67.67 95.98Q66.45 96.15 57.29 96.61ZM66.30 100.47L66.32 100.50L66.34 100.52Q67.27 100.46 72.21 100.59L72.25 100.63L72.20 100.58Q75.38 100.85 78.21 99.73L78.06 99.58L78.15 99.67Q80.28 98.11 79.95 95.07L79.91 95.03L79.93 95.05Q79.65 92.66 79.12 89.63L79.09 89.60L79.19 89.70Q77.80 81.78 74.43 78.94L74.52 79.03L74.18 78.35L74.18 78.30L74.18 78.29Q77.21 75.78 78.52 68.19L78.39 68.06L78.54 68.21Q78.52 67.33 78.72 65.68L78.83 65.80L78.73 65.69Q78.81 64.32 78.67 63.13L78.81 63.27L78.74 63.20Q78.58 60.40 76.34 59.21L76.31 59.19L76.03 59.04L76.17 59.18Q75.56 57.39 73.59 56.46L73.61 56.49L73.58 56.46Q71.05 55.37 62.14 54.85L62.10 54.80L62.00 54.70Q59.13 54.60 56.36 54.60L56.40 54.64L56.33 54.57Q53.62 54.63 50.98 55.75L51.02 55.79L50.97 55.74Q48.93 57.13 48.93 60.16L48.94 60.17L48.97 60.20Q48.93 59.44 49.39 65.24L49.25 65.10L49.36 65.21Q49.94 65.39 52.77 66.45L52.80 66.47L52.67 66.35Q52.72 67.31 52.65 68.17L52.61 68.13L52.64 68.15Q52.69 69.07 52.76 69.99L52.61 69.85L52.63 69.86Q55.72 70.51 59.22 70.71L59.29 70.79L59.25 70.75Q59.22 67.35 61.13 65.90L61.10 65.87L60.99 65.76Q62.48 64.68 65.97 64.28L66.08 64.39L65.99 64.30Q67.92 64.25 68.91 64.58L68.89 64.56L68.91 64.58Q69.08 64.88 69.15 65.08L69.09 65.02L69.18 65.44L69.32 66.38L69.36 66.42Q69.33 66.72 69.27 66.98L69.34 67.06L69.26 66.98Q69.19 70.01 66.55 72.05L66.54 72.04L66.43 71.93Q64.82 73.48 61.33 73.81L61.40 73.88L61.39 73.87Q60.13 74.13 58.61 74.13L58.57 74.09L58.73 74.24Q58.68 74.72 58.94 75.91L58.97 75.94L58.91 75.87Q61.97 75.91 64.48 77.16L64.43 77.11L64.37 77.25L61.59 77.50L61.65 77.56Q61.69 78.13 61.89 79.19L61.81 79.11L61.87 79.17Q65.55 79.03 68.52 81.34L68.52 81.33L68.51 81.33Q68.99 82.07 69.52 84.91L69.47 84.86L69.41 84.80Q69.77 89.90 64.69 90.62L64.63 90.56L64.61 90.55Q60.99 91.02 60.00 90.95L60.09 91.04L60.02 90.97Q59.29 90.83 58.37 90.70L58.37 90.71L58.41 89.95L58.66 89.22L58.72 88.54L58.79 88.03L58.70 87.93Q57.01 88.02 55.62 88.35L55.75 88.48L55.61 88.33Q55.61 88.00 55.61 87.67L55.53 87.60L55.68 87.75Q55.62 87.29 55.62 86.90L55.76 87.04L55.70 86.98Q55.74 86.23 56.01 84.98L56.04 85.01L56.01 84.98Q52.71 85.31 49.48 85.90L49.57 86.00L49.60 86.02Q49.55 86.83 49.36 88.78L49.38 88.80L49.28 88.70Q49.23 90.80 49.23 91.85L49.05 91.67L49.16 91.78Q49.31 95.36 51.68 96.68L51.67 96.67L51.57 96.57Q54.29 100.67 62.47 100.34L62.39 100.26L62.34 100.21Q63.65 100.20 66.28 100.46Z"/><path d="M10 135 C180 72,158 39,322 31" stroke="#df7ac6" fill="none"/><path fill="#e96c6c" d="M205.59 73.77L205.66 73.84L205.60 73.78Q207.05 73.84 209.49 73.58L209.40 73.49L209.47 73.56Q209.32 74.60 209.32 75.72L209.43 75.82L209.34 77.91L209.33 77.90Q207.97 77.99 206.51 78.12L206.40 78.00L206.40 78.01Q205.07 78.19 203.62 78.13L203.52 78.03L203.60 78.10Q198.63 88.76 192.70 96.74L192.68 96.73L192.62 96.67Q188.40 97.92 186.16 98.98L186.07 98.89L186.14 98.96Q193.27 89.08 198.55 78.20L198.40 78.05L193.92 78.11L193.93 78.13Q193.97 75.86 193.77 73.55L193.69 73.48L193.81 73.59Q197.02 73.77 200.58 73.77L200.60 73.78L203.87 67.36L203.79 67.29Q205.53 64.02 207.64 61.25L207.63 61.23L207.76 61.36Q204.89 61.46 202.12 61.46L202.27 61.61L202.26 61.60Q191.63 61.52 185.10 57.70L185.23 57.83L183.97 54.71L184.12 54.86Q183.41 53.30 182.75 51.79L182.81 51.84L182.81 51.84Q190.29 56.36 200.18 56.76L200.24 56.81L200.12 56.69Q209.05 57.11 217.95 53.68L218.01 53.74L217.98 53.72Q217.65 54.44 216.79 55.95L216.76 55.92L216.85 56.01Q210.46 64.13 205.52 73.69ZM219.65 58.42L219.47 58.23L221.35 54.91L221.23 54.79Q219.72 55.79 216.82 57.04L216.72 56.94L217.09 56.45L216.99 56.35Q217.28 56.17 217.47 55.98L217.45 55.95L217.38 55.88Q218.02 54.67 219.27 52.37L219.40 52.50L219.34 52.43Q210.19 56.47 200.23 56.08L200.27 56.11L200.14 55.98Q189.74 55.54 181.50 50.40L181.47 50.37L181.51 50.41Q183.23 53.58 184.68 58.20L184.78 58.30L184.76 58.28Q186.71 59.44 188.10 59.97L187.96 59.83L187.98 59.85Q188.35 60.55 189.15 63.78L189.15 63.79L189.15 63.79Q194.64 65.98 204.20 65.71L204.04 65.55L204.18 65.69Q203.60 66.63 200.17 73.16L200.21 73.20L200.25 73.24Q196.54 73.09 193.11 72.76L193.11 72.76L193.25 72.90Q193.26 74.22 193.26 75.74L193.36 75.84L193.37 78.82L196.20 78.75L196.32 81.31L196.22 81.21Q189.48 94.06 184.67 100.25L184.61 100.20L184.57 100.16Q187.33 98.83 190.17 97.97L190.14 97.95L190.22 98.03Q188.95 99.53 186.58 102.50L186.75 102.67L186.72 102.64Q192.12 100.65 196.34 100.25L196.36 100.28L196.41 100.33Q201.43 93.74 206.84 82.00L206.85 82.02L212.68 82.24L212.72 82.28Q212.56 80.67 212.56 79.09L212.70 79.23L212.64 76.07L212.66 76.09Q212.22 76.11 211.26 76.17L211.16 76.08L211.13 76.05Q210.20 76.13 209.73 76.13L209.85 76.25L209.85 76.25Q209.74 75.93 209.80 75.67L209.89 75.76L209.92 75.32L209.80 75.21Q214.16 66.32 219.50 58.27Z"/><path d="M10 100 C167 29,168 11,331 76" stroke="#dc5a5a" fill="none"/><path d="M9 46 C156 18,159 6,334 17" stroke="#46e1ba" fill="none"/><path d="M10 13 C164 19,173 84,330 34" stroke="#df7070" fill="none"/><path fill="#6fd44e" d="M144.65 92.34L144.76 92.44L144.71 92.39Q145.19 94.06 146.11 97.56L146.17 97.61L146.14 97.59Q138.88 95.33 130.90 95.79L130.87 95.76L130.77 95.66Q122.94 96.21 116.01 99.63L115.96 99.58L115.90 99.52Q116.39 98.43 116.46 98.56L116.51 98.62L116.52 98.63Q122.96 91.74 129.75 84.09L129.62 83.97L129.75 84.09Q137.33 75.38 139.37 67.27L139.47 67.37L139.49 67.39Q140.17 64.25 137.96 62.20L138.01 62.25L138.08 62.32Q135.78 60.19 132.68 60.45L132.61 60.38L132.58 60.35Q132.02 60.32 131.43 60.32L131.53 60.42L131.58 60.47Q128.83 60.35 126.65 61.94L126.74 62.02L126.58 61.87Q124.33 64.23 124.73 68.85L124.90 69.02L124.89 69.01Q121.76 68.39 119.65 67.59L119.57 67.52L119.56 67.50Q119.23 65.07 119.10 62.56L119.19 62.65L119.16 62.62Q119.05 59.80 120.10 57.83L120.06 57.79L120.02 57.74Q123.25 55.50 129.05 55.50L128.90 55.35L132.04 55.45L131.93 55.34Q135.94 55.46 137.59 55.66L137.67 55.74L137.60 55.67Q145.03 56.32 145.50 60.54L145.53 60.58L145.53 60.57Q145.65 61.55 145.52 62.94L145.53 62.95L145.66 63.08Q145.47 64.07 145.21 65.26L145.19 65.25L145.25 65.31Q142.34 79.28 129.22 91.15L129.29 91.22L129.24 91.17Q131.67 90.89 134.04 90.89L134.14 90.99L134.07 90.91Q139.71 90.96 144.66 92.34ZM143.64 56.25L143.69 56.30L143.63 56.23Q140.84 55.09 137.88 54.96L138.01 55.09L132.06 54.75L132.05 54.74Q124.28 54.22 120.45 56.13L120.47 56.15L120.44 56.12Q118.60 58.50 118.60 62.06L118.68 62.14L118.71 62.18Q118.62 63.27 119.15 68.15L119.21 68.21L119.16 68.16Q120.17 68.64 122.21 69.17L122.15 69.11L122.10 70.84L122.14 70.88Q122.13 71.72 122.26 72.65L122.26 72.65L122.25 72.64Q124.44 72.85 128.73 73.24L128.64 73.16L128.74 73.26Q128.63 72.55 128.63 71.96L128.66 71.99L128.61 71.94Q128.55 68.72 130.66 66.38L130.69 66.40L130.75 66.47Q132.89 64.15 135.99 64.35L135.99 64.35L135.92 64.28Q137.34 64.45 138.66 64.72L138.63 64.68L138.63 64.69Q138.80 65.32 138.93 66.04L138.84 65.95L138.85 65.96Q138.94 66.71 138.81 67.30L138.92 67.41L138.83 67.32Q136.76 75.67 129.11 84.04L129.01 83.95L128.96 83.90Q125.29 87.81 115.86 98.30L115.86 98.30L115.94 98.37Q115.58 99.79 114.99 100.78L114.92 100.72L115.00 100.80Q117.85 99.36 120.49 98.44L120.34 98.29L120.36 98.31Q119.12 99.31 117.47 101.89L117.56 101.97L117.47 101.88Q117.38 102.59 117.18 103.18L117.17 103.17L117.14 103.13Q125.63 99.62 135.12 99.95L135.08 99.91L135.14 99.97Q144.85 100.12 152.76 104.21L152.78 104.22L150.97 100.43L151.01 100.48Q150.04 98.32 149.58 96.93L149.58 96.93L149.52 96.87Q148.26 96.14 146.15 95.41L146.17 95.43L146.17 95.43Q145.96 94.23 145.30 91.86L145.15 91.71L145.22 91.78Q141.42 90.82 137.46 90.49L137.43 90.46L137.35 90.38Q145.51 82.51 148.15 68.20L148.09 68.14L148.46 63.18L148.57 63.29Q148.43 60.18 146.32 58.99L146.32 58.99L146.26 59.00L146.10 58.84Q146.13 58.80 146.00 58.80L145.99 58.79L145.95 58.75Q145.52 57.27 143.61 56.21Z"/><path d="M11 66 C191 118,164 38,325 13" stroke="#69e1a5" fill="none"/><path d="M14 16 C167 5,164 16,335 55" stroke="#e47b95" fill="none"/><path d="M18 17 C177 22,155 98,335 106" stroke="#e5c86f" fill="none"/><path d="M10 69 C178 2,186 120,333 49" stroke="#6e4cd6" fill="none"/><path d="M9 47 C163 33,159 85,326 78" stroke="#d548b2" fill="none"/><path d="M18 97 C188 55,171 100,325 71" stroke="#45d38c" fill="none"/><path d="M2 37 C170 77,189 45,330 43" stroke="#7ce8cd" fill="none"/><path d="M5 70 C156 43,181 58,327 119" stroke="#e995bf" fill="none"/><path d="M20 34 C153 30,184 13,338 132" stroke="#d745d7" fill="none"/><path d="M21 83 C182 108,156 16,337 64" stroke="#e16f8b" fill="none"/><path d="M20 66 C187 125,153 114,331 38" stroke="#b9dc50" fill="none"/><path d="M14 47 C183 126,154 100,337 100" stroke="#5050dc" fill="none"/><path d="M11 79 C172 136,192 32,340 85" stroke="#df7aad" fill="none"/><path d="M19 139 C152 41,154 69,338 8" stroke="#7fafe0" fill="none"/><path d="M15 118 C191 102,180 120,330 113" stroke="#8e37e6" fill="none"/><path d="M9 102 C179 59,184 73,326 7" stroke="#dc5adc" fill="none"/><path d="M20 49 C162 48,186 134,321 80" stroke="#5fe180" fill="none"/><path d="M18 11 C184 2,159 82,338 2" stroke="#e8a38c" fill="none"/><path d="M17 121 C180 58,162 48,337 20" stroke="#e8e886" fill="none"/><path d="M13 75 C166 47,171 64,338 92" stroke="#3abce7" fill="none"/></svg>