<svg xmlns="http://www.w3.org/2000/svg" width="342" height="140" viewBox="0,0,342,140"><path d="M14 104 C192 128,174 25,325 74" stroke="#d98062" fill="none"/><path d="M10 114 C154 74,187 13,338 5" stroke="#dfdf52" fill="none"/><path d="M8 90 C184 53,154 24,327 51" stroke="#7650e6" fill="none"/><path d="M5 10 C182 93,172 28,326 102" stroke="#bcef89" fill="none"/><path d="M15 105 C158 34,182 124,328 5" stroke="#e6be45" fill="none"/><path d="M3 90 C151 117,157 118,326 81" stroke="#7cedd1" fill="none"/><path d="M11 9 C182 126,174 117,340 136" stroke="#4691db" fill="none"/><path d="M15 49 C163 40,164 28,327 83" stroke="#7ff0f0" fill="none"/><path fill="#e65579" d="M45.77 96.81L45.89 96.93L45.79 96.83Q43.29 96.93 40.56 96.19L40.65 96.29L40.69 96.32Q38.57 94.74 38.30 91.88L38.23 91.80L38.27 91.84Q38.07 91.38 38.40 86.78L38.53 86.91L38.43 86.81Q40.25 86.50 43.78 85.83L43.84 85.88L43.53 87.25L43.47 87.18Q42.99 90.23 45.45 91.23L45.44 91.21L45.40 91.18Q46.79 91.77 50.46 91.77L50.52 91.83L50.49 91.80Q53.38 91.63 53.72 91.50L53.60 91.38L53.73 91.52Q55.18 91.10 56.45 90.23L56.55 90.34L56.52 90.31Q58.93 88.58 58.59 84.92L58.60 84.92L58.73 85.05Q58.37 80.77 55.34 78.04L55.38 78.07L55.34 78.03Q52.23 75.22 47.90 75.22L47.85 75.17L47.97 74.89L47.97 74.89Q48.64 74.84 50.18 74.70L50.09 74.62L50.13 74.65Q53.39 74.38 55.79 72.22L55.91 72.34L55.93 72.37Q58.18 70.05 58.45 66.78L58.61 66.95L58.61 66.94Q58.64 66.24 58.64 65.64L58.58 65.59L58.61 65.61Q58.70 63.04 56.30 61.44L56.34 61.48L56.18 61.31Q54.13 60.00 51.33 60.20L51.31 60.18L51.39 60.26Q48.98 59.85 46.85 60.58L46.97 60.70L46.93 60.66Q44.47 61.67 43.94 63.67L43.81 63.54L43.96 63.69Q43.50 64.90 43.64 66.23L43.66 66.25L43.67 66.27Q41.90 65.89 38.30 64.62L38.36 64.68L38.20 64.52Q37.97 61.76 38.04 60.30L37.99 60.25L37.85 60.11Q38.17 57.56 40.03 56.36L40.04 56.37L40.08 56.41Q42.49 55.29 45.29 55.29L45.32 55.33L45.23 55.23Q50.90 55.31 56.43 55.77L56.32 55.67L56.31 55.66Q65.21 56.42 64.67 63.02L64.72 63.06L64.67 63.02Q64.44 65.51 63.57 68.24L63.64 68.31L63.68 68.36Q62.05 73.72 57.92 75.32L58.03 75.43L57.86 75.25Q62.59 76.33 63.66 82.19L63.58 82.11L63.65 82.18Q64.05 84.18 64.19 87.71L64.10 87.63L64.14 87.67Q64.43 95.48 56.37 96.28L56.34 96.25L56.34 96.26Q55.08 96.40 45.82 96.86ZM54.84 100.68L55.01 100.85L55.01 100.85Q56.08 100.92 61.07 101.06L61.00 100.98L61.03 101.01Q63.97 101.02 66.83 99.88L66.84 99.89L66.95 100.00Q68.97 98.29 68.64 95.23L68.74 95.33L68.62 95.21Q68.38 92.84 67.85 89.78L68.02 89.95L67.89 89.82Q66.65 81.98 63.25 79.12L63.16 79.03L62.87 78.40L62.80 78.27L62.82 78.28Q66.02 75.89 67.36 68.23L67.22 68.10L67.31 68.19Q67.38 67.39 67.58 65.73L67.61 65.75L67.50 65.65Q67.66 64.34 67.53 63.14L67.59 63.21L67.56 63.17Q67.20 60.15 64.94 58.95L65.08 59.10L64.82 58.97L64.84 58.98Q64.40 57.35 62.40 56.41L62.39 56.40L62.37 56.38Q59.57 55.05 50.58 54.52L50.64 54.57L50.73 54.67Q47.72 54.46 44.92 54.46L45.02 54.56L44.89 54.43Q42.18 54.52 39.52 55.65L39.41 55.54L39.57 55.70Q37.35 56.95 37.35 60.01L37.43 60.09L37.43 60.09Q37.35 59.27 37.81 65.14L37.72 65.04L37.80 65.12Q38.43 65.36 41.30 66.42L41.18 66.31L41.25 66.37Q41.11 67.17 41.05 68.04L41.22 68.21L41.16 68.15Q41.20 69.05 41.26 69.99L41.23 69.95L41.15 69.87Q44.41 70.67 47.94 70.87L47.80 70.73L47.89 70.81Q47.65 67.18 49.58 65.71L49.76 65.89L49.62 65.75Q51.08 64.62 54.62 64.22L54.59 64.20L54.76 64.36Q56.71 64.31 57.71 64.65L57.67 64.60L57.60 64.53Q57.76 64.83 57.83 65.03L57.77 64.97L57.84 65.38L58.01 66.34L58.09 66.43Q57.99 66.66 57.92 66.92L57.98 66.98L58.01 67.01Q57.90 70.03 55.23 72.10L55.08 71.95L55.09 71.96Q53.52 73.58 49.99 73.92L49.94 73.87L50.10 74.02Q48.79 74.25 47.26 74.25L47.17 74.16L47.30 74.29Q47.24 74.76 47.51 75.96L47.59 76.05L47.59 76.05Q50.51 75.90 53.04 77.17L53.05 77.17L52.99 77.32L50.17 77.56L50.24 77.63Q50.32 78.25 50.52 79.31L50.54 79.33L50.51 79.30Q54.26 79.19 57.26 81.52L57.20 81.46L57.26 81.52Q57.51 82.03 58.04 84.90L58.09 84.95L58.11 84.97Q58.48 90.13 53.35 90.87L53.41 90.93L53.32 90.84Q49.58 91.22 48.58 91.16L48.74 91.32L48.60 91.18Q47.95 91.13 47.02 91.00L46.99 90.97L47.02 90.20L47.21 89.39L47.29 88.74L47.27 88.12L47.30 88.15Q45.60 88.24 44.20 88.58L44.19 88.57L44.23 88.60Q44.09 88.14 44.09 87.80L44.23 87.94L44.20 87.91Q44.19 87.50 44.19 87.10L44.18 87.10L44.22 87.14Q44.36 86.47 44.62 85.20L44.62 85.20L44.54 85.12Q41.20 85.44 37.93 86.04L38.11 86.22L38.01 86.12Q38.00 86.98 37.80 88.94L37.82 88.96L37.83 88.97Q37.65 90.95 37.65 92.02L37.63 92.00L37.63 92.00Q37.66 95.49 40.06 96.83L40.05 96.82L40.22 96.99Q42.82 100.99 51.08 100.66L50.92 100.49L50.92 100.49Q52.34 100.58 55.00 100.85Z"/><path d="M8 105 C189 111,164 4,325 94" stroke="#e6a565" fill="none"/><path d="M11 26 C157 122,186 136,341 59" stroke="#ceec73" fill="none"/><path d="M6 76 C155 125,169 102,336 23" stroke="#e44896" fill="none"/><path d="M6 88 C157 110,151 2,323 95" stroke="#95e9e9" fill="none"/><path fill="#77e8e8" d="M217.04 90.92L217.06 90.94L217.02 90.90Q218.91 92.39 221.37 92.12L221.49 92.24L221.46 92.21Q226.61 92.56 227.74 86.69L227.67 86.62L227.66 86.61Q228.72 81.08 228.72 75.15L228.82 75.26L228.79 70.69L228.74 70.64Q228.81 68.51 228.21 66.31L228.26 66.36L228.20 66.31Q226.03 70.33 222.57 78.66L222.58 78.67L222.63 78.72Q219.03 86.91 216.90 90.78ZM225.85 62.09L225.70 61.94L225.83 62.07Q223.74 60.58 221.41 60.58L221.47 60.64L221.41 60.58Q218.78 60.29 216.85 61.88L216.87 61.90L216.85 61.88Q215.05 63.61 214.71 66.21L214.62 66.12L214.54 66.04Q214.04 68.53 213.97 71.13L213.88 71.04L214.03 71.18Q214.00 71.16 214.00 76.16L213.93 76.09L214.06 76.21Q213.93 80.21 214.73 86.54L214.69 86.50L214.75 86.56Q218.11 78.26 225.77 62.01ZM228.41 94.83L228.42 94.84L228.53 94.94Q225.53 96.61 221.46 96.61L221.30 96.45L218.44 96.45L218.49 96.50Q212.76 96.43 210.76 93.43L210.76 93.43L210.77 93.44Q209.38 89.65 209.24 84.52L209.32 84.59L209.28 84.56Q209.32 81.60 209.19 75.54L209.15 75.50L209.20 75.56Q209.09 73.38 208.83 68.05L208.83 68.05L208.71 67.93Q208.60 63.96 209.13 60.49L209.20 60.56L209.10 60.46Q210.08 55.44 217.67 55.04L217.72 55.09L217.55 54.92Q218.94 54.91 221.27 54.98L221.32 55.02L221.23 54.94Q231.28 55.33 233.15 61.39L233.07 61.31L233.12 61.37Q234.16 64.67 234.10 67.94L234.14 67.98L234.13 67.97Q233.99 76.69 233.85 78.82L233.89 78.85L233.87 78.83Q233.43 85.39 232.90 87.65L232.95 87.71L232.97 87.73Q231.86 93.21 228.53 94.94ZM237.16 94.52L237.24 94.60L237.15 94.50Q237.48 89.58 237.42 86.45L237.43 86.46L237.41 78.51L237.37 78.48Q237.23 73.20 236.30 63.54L236.27 63.52L236.20 63.44Q235.30 60.27 233.03 58.94L233.13 59.04L233.00 58.91Q230.32 54.50 221.26 54.23L221.39 54.36L221.24 54.21Q219.74 54.18 217.41 54.25L217.51 54.35L217.50 54.34Q209.51 54.41 208.65 59.88L208.72 59.95L208.63 59.86Q207.94 63.90 208.14 67.56L208.20 67.63L208.24 67.66Q208.69 75.17 208.62 81.04L208.78 81.19L208.64 81.05Q208.70 87.64 208.90 89.44L208.87 89.41L208.81 89.35Q209.56 94.83 212.22 96.23L212.13 96.14L212.14 96.14Q214.85 100.12 221.84 100.58L221.70 100.44L221.72 100.46Q228.04 100.92 229.17 100.85L229.12 100.80L229.14 100.82Q234.16 100.58 236.16 97.78L236.24 97.86L236.18 97.80Q236.97 96.53 237.11 94.46ZM222.18 91.60L222.10 91.51L222.03 91.45Q223.24 88.92 225.10 84.19L225.26 84.35L228.21 76.90L228.08 76.77Q228.02 79.65 227.36 85.51L227.44 85.60L227.43 85.59Q226.39 90.74 222.19 91.61ZM218.68 70.04L218.65 70.01L218.57 69.93Q219.34 66.77 220.54 65.77L220.60 65.83L220.63 65.87Q221.46 65.16 223.72 64.82L223.69 64.79L223.79 64.89Q220.63 71.13 217.37 79.25L217.38 79.27L217.43 79.32Q217.35 74.50 218.55 69.91Z"/><path d="M18 64 C174 8,186 87,332 22" stroke="#3e69e9" fill="none"/><path d="M3 66 C165 4,163 38,337 73" stroke="#bede5e" fill="none"/><path d="M21 100 C191 66,187 11,339 89" stroke="#8787ed" fill="none"/><path d="M16 11 C158 99,174 101,329 111" stroke="#78d958" fill="none"/><path d="M6 96 C165 95,151 59,323 36" stroke="#4d98e4" fill="none"/><path d="M15 68 C188 2,159 12,323 35" stroke="#dc5adc" fill="none"/><path fill="#6a40e7" d="M285.03 73.89L284.87 73.73L284.90 73.77Q286.32 73.79 288.79 73.52L288.84 73.57L288.73 73.46Q288.70 74.64 288.70 75.77L288.71 75.78L288.74 78.00L288.72 77.99Q287.33 78.06 285.87 78.20L285.85 78.17L285.75 78.07Q284.40 78.26 282.94 78.20L282.90 78.16L282.90 78.16Q277.78 88.83 271.79 96.89L271.79 96.90L271.85 96.95Q267.52 98.16 265.26 99.22L265.16 99.13L265.29 99.26Q272.33 89.11 277.66 78.11L277.65 78.11L273.22 78.28L273.16 78.21Q273.21 75.93 273.01 73.60L272.95 73.54L272.93 73.52Q276.25 73.78 279.85 73.78L279.94 73.86L283.10 67.24L283.20 67.34Q284.88 63.95 287.01 61.15L287.13 61.27L286.98 61.12Q284.25 61.39 281.46 61.39L281.60 61.54L281.53 61.47Q270.93 61.52 264.33 57.66L264.21 57.54L263.08 54.55L263.06 54.53Q262.53 53.13 261.86 51.60L261.94 51.67L261.81 51.54Q269.46 56.19 279.45 56.59L279.41 56.55L279.40 56.54Q288.56 57.11 297.56 53.64L297.49 53.58L297.44 53.53Q297.20 54.35 296.34 55.89L296.29 55.84L296.23 55.78Q290.03 64.24 285.03 73.90ZM299.11 58.26L299.00 58.15L300.70 54.59L300.73 54.62Q299.08 55.50 296.15 56.76L296.12 56.74L296.56 56.31L296.46 56.21Q296.77 56.06 296.97 55.86L296.87 55.76L296.91 55.80Q297.54 54.56 298.81 52.23L298.90 52.32L298.95 52.37Q289.47 56.22 279.41 55.82L279.37 55.78L279.54 55.94Q268.94 55.41 260.61 50.21L260.54 50.14L260.68 50.28Q262.48 53.54 263.94 58.20L263.91 58.17L263.88 58.14Q265.79 59.25 267.19 59.79L267.21 59.80L267.30 59.90Q267.48 60.41 268.28 63.67L268.26 63.65L268.21 63.61Q273.71 65.77 283.37 65.51L283.50 65.64L283.54 65.68Q282.93 66.60 279.46 73.19L279.43 73.16L279.37 73.10Q275.97 73.29 272.50 72.96L272.43 72.89L272.37 72.83Q272.57 74.36 272.57 75.89L272.61 75.93L272.58 78.90L275.47 78.86L275.43 81.28L275.49 81.34Q268.70 94.34 263.84 100.60L263.77 100.54L263.81 100.57Q266.62 99.25 269.48 98.38L269.44 98.34L269.49 98.40Q268.14 99.84 265.74 102.84L265.90 103.00L265.71 102.81Q271.26 100.90 275.53 100.50L275.67 100.64L275.60 100.58Q280.74 93.99 286.21 82.13L286.22 82.14L292.16 82.43L292.29 82.55Q292.09 80.89 292.09 79.29L292.06 79.26L292.08 76.15L292.13 76.20Q291.50 76.04 290.54 76.11L290.64 76.21L290.68 76.25Q289.65 76.25 289.18 76.25L289.12 76.19L289.20 76.27Q289.25 76.12 289.32 75.85L289.20 75.73L289.25 75.32L289.35 75.41Q293.61 66.28 299.00 58.15Z"/><path d="M13 11 C186 87,154 56,341 130" stroke="#ec78ec" fill="none"/><path fill="#e2c778" d="M102.46 96.83L102.57 96.94L102.40 96.77Q99.94 96.91 97.20 96.17L97.31 96.28L97.32 96.30Q95.06 94.57 94.79 91.70L94.87 91.78L94.91 91.82Q94.86 91.49 95.19 86.90L95.10 86.81L95.20 86.91Q97.01 86.58 100.54 85.92L100.43 85.81L100.15 87.19L100.04 87.09Q99.61 90.19 102.07 91.19L102.08 91.19L102.23 91.35Q103.57 91.88 107.23 91.88L107.15 91.80L107.26 91.90Q109.98 91.56 110.31 91.43L110.40 91.52L110.28 91.40Q111.84 91.09 113.11 90.23L113.14 90.26L113.24 90.36Q115.64 88.63 115.31 84.97L115.26 84.92L115.33 84.98Q115.00 80.72 111.96 77.99L112.00 78.02L111.95 77.98Q109.01 75.33 104.68 75.33L104.57 75.23L104.63 74.89L104.63 74.89Q105.37 74.89 106.90 74.76L106.88 74.74L106.72 74.57Q110.13 74.46 112.53 72.30L112.51 72.27L112.63 72.40Q114.84 70.04 115.11 66.78L115.25 66.92L115.21 66.88Q115.41 66.35 115.41 65.75L115.37 65.71L115.31 65.65Q115.39 63.06 112.99 61.46L112.96 61.43L112.96 61.44Q110.79 60.00 107.99 60.20L108.08 60.29L108.04 60.24Q105.78 59.99 103.65 60.72L103.58 60.65L103.66 60.73Q101.13 61.66 100.60 63.66L100.50 63.56L100.64 63.70Q100.30 65.03 100.44 66.36L100.37 66.29L100.25 66.18Q98.58 65.91 94.99 64.64L94.93 64.59L94.98 64.64Q94.50 61.62 94.57 60.16L94.64 60.24L94.57 60.16Q94.80 57.53 96.67 56.33L96.60 56.26L96.66 56.32Q99.08 55.22 101.88 55.22L101.95 55.28L101.88 55.21Q107.50 55.24 113.03 55.70L113.04 55.72L112.90 55.58Q121.85 56.40 121.32 62.99L121.23 62.91L121.24 62.92Q121.11 65.52 120.24 68.25L120.28 68.28L120.38 68.39Q118.69 73.69 114.56 75.29L114.53 75.26L114.51 75.24Q119.19 76.26 120.26 82.12L120.36 82.22L120.26 82.12Q120.61 84.08 120.75 87.61L120.87 87.73L120.77 87.63Q121.13 95.52 113.07 96.32L113.01 96.26L113.04 96.28Q111.79 96.44 102.53 96.91ZM111.65 100.83L111.53 100.70L111.67 100.85Q112.58 100.76 117.58 100.90L117.76 101.07L117.74 101.06Q120.77 101.16 123.64 100.02L123.51 99.90L123.60 99.99Q125.69 98.35 125.36 95.28L125.33 95.26L125.28 95.20Q125.19 92.98 124.65 89.92L124.66 89.92L124.51 89.77Q123.36 82.02 119.96 79.16L119.98 79.18L119.50 78.37L119.43 78.23L119.45 78.25Q122.55 75.76 123.89 68.10L123.87 68.07L123.99 68.20Q123.92 67.27 124.12 65.60L124.29 65.77L124.20 65.68Q124.27 64.28 124.14 63.09L124.18 63.13L124.23 63.18Q123.84 60.12 121.58 58.92L121.68 59.03L121.54 59.02L121.51 58.99Q121.06 57.34 119.06 56.40L119.07 56.41L119.08 56.43Q116.36 55.17 107.37 54.64L107.37 54.65L107.36 54.64Q104.34 54.41 101.54 54.41L101.58 54.45L101.65 54.52Q98.86 54.53 96.20 55.66L96.06 55.52L96.23 55.70Q93.99 56.92 93.99 59.98L93.93 59.93L94.01 60.00Q93.95 59.21 94.41 65.07L94.47 65.13L94.57 65.23Q94.98 65.23 97.84 66.30L97.93 66.39L97.91 66.37Q97.87 67.26 97.80 68.12L97.82 68.14L97.74 68.07Q97.73 68.92 97.80 69.85L97.81 69.86L97.81 69.86Q101.08 70.67 104.61 70.87L104.63 70.89L104.47 70.73Q104.32 67.19 106.26 65.72L106.34 65.81L106.38 65.84Q107.90 64.76 111.43 64.37L111.33 64.26L111.39 64.32Q113.37 64.31 114.37 64.64L114.39 64.66L114.24 64.51Q114.46 64.87 114.53 65.07L114.41 64.94L114.49 65.36L114.63 66.30L114.63 66.30Q114.64 66.64 114.57 66.91L114.59 66.93L114.59 66.93Q114.39 69.86 111.73 71.93L111.73 71.93L111.72 71.92Q110.16 73.56 106.63 73.89L106.62 73.88L106.67 73.93Q105.34 74.13 103.81 74.13L103.89 74.22L103.88 74.21Q103.88 74.74 104.15 75.94L104.30 76.09L104.22 76.01Q107.22 75.95 109.75 77.21L109.87 77.33L109.57 77.23L106.89 77.62L106.83 77.56Q106.92 78.17 107.12 79.24L107.23 79.36L107.23 79.35Q110.89 79.15 113.89 81.48L113.80 81.39L113.87 81.47Q114.36 82.22 114.89 85.08L114.88 85.07L114.73 84.92Q115.16 90.14 110.03 90.88L110.03 90.88L109.98 90.83Q106.27 91.25 105.27 91.18L105.30 91.21L105.26 91.17Q104.61 91.12 103.68 90.99L103.68 90.99L103.63 90.15L103.89 89.40L103.93 88.71L103.87 88.05L103.99 88.17Q102.20 88.18 100.80 88.51L100.78 88.49L100.84 88.55Q100.82 88.20 100.82 87.87L100.75 87.79L100.82 87.86Q100.83 87.47 100.83 87.07L100.91 87.16L100.80 87.05Q101.03 86.48 101.29 85.21L101.30 85.21L101.13 85.05Q97.88 85.46 94.62 86.06L94.68 86.12L94.70 86.15Q94.61 86.92 94.41 88.88L94.52 89.00L94.58 89.05Q94.36 91.00 94.36 92.07L94.38 92.08L94.28 91.99Q94.38 95.55 96.78 96.88L96.79 96.89L96.90 97.00Q99.40 100.91 107.66 100.57L107.77 100.68L107.72 100.63Q109.02 100.59 111.68 100.86Z"/><path fill="#b539de" d="M160.34 90.88L160.40 90.94L160.35 90.89Q162.25 92.39 164.71 92.13L164.80 92.21L164.84 92.25Q169.98 92.59 171.11 86.73L171.06 86.68L171.02 86.64Q172.10 81.13 172.10 75.20L172.13 75.23L172.07 70.64L172.13 70.70Q172.07 68.44 171.47 66.24L171.54 66.31L171.53 66.30Q169.33 70.30 165.87 78.63L165.89 78.65L165.95 78.71Q162.38 86.93 160.25 90.80ZM169.19 62.09L169.17 62.07L169.13 62.03Q167.19 60.69 164.85 60.69L164.71 60.54L164.79 60.63Q162.11 60.27 160.17 61.87L160.28 61.98L160.15 61.84Q158.33 63.56 158.00 66.16L157.98 66.14L158.07 66.23Q157.37 68.53 157.30 71.13L157.33 71.16L157.38 71.20Q157.23 71.05 157.23 76.05L157.31 76.13L157.35 76.17Q157.38 80.34 158.18 86.66L158.14 86.62L158.18 86.66Q161.48 78.31 169.15 62.05ZM171.75 94.83L171.82 94.90L171.90 94.98Q168.71 96.46 164.65 96.46L164.69 96.50L161.76 96.44L161.76 96.43Q156.25 96.59 154.25 93.59L154.24 93.58L154.20 93.54Q152.72 89.66 152.58 84.53L152.63 84.58L152.69 84.63Q152.49 81.44 152.36 75.38L152.42 75.43L152.50 75.52Q152.44 73.39 152.18 68.06L152.13 68.02L152.15 68.04Q151.90 63.92 152.43 60.46L152.42 60.45L152.61 60.63Q153.28 55.31 160.87 54.91L160.93 54.97L161.06 55.10Q162.36 54.99 164.69 55.06L164.71 55.08L164.56 54.93Q174.59 55.30 176.46 61.37L176.46 61.37L176.40 61.31Q177.41 64.58 177.34 67.85L177.47 67.98L177.38 67.89Q177.35 76.72 177.22 78.85L177.24 78.87L177.15 78.79Q176.83 85.45 176.29 87.72L176.37 87.80L176.37 87.80Q175.16 93.18 171.83 94.92ZM180.40 94.42L180.59 94.61L180.47 94.49Q180.87 89.63 180.80 86.50L180.90 86.59L180.60 78.36L180.79 78.56Q180.50 73.14 179.57 63.48L179.63 63.54L179.54 63.45Q178.70 60.35 176.44 59.02L176.37 58.95L176.40 58.98Q173.76 54.61 164.70 54.34L164.62 54.26L164.62 54.26Q163.11 54.22 160.78 54.28L160.69 54.19L160.77 54.27Q152.75 54.32 151.89 59.78L151.90 59.79L151.88 59.77Q151.29 63.92 151.49 67.58L151.59 67.68L151.51 67.60Q152.16 75.31 152.10 81.18L152.08 81.16L152.11 81.19Q151.88 87.49 152.08 89.29L152.08 89.29L152.15 89.36Q152.89 94.82 155.55 96.22L155.42 96.09L155.52 96.19Q158.13 100.07 165.12 100.53L165.09 100.50L165.02 100.43Q171.27 100.82 172.40 100.75L172.45 100.80L172.46 100.81Q177.50 100.58 179.50 97.78L179.41 97.69L179.56 97.85Q180.27 96.49 180.40 94.43ZM165.47 91.55L165.48 91.56L165.51 91.59Q166.60 88.95 168.47 84.22L168.42 84.17L171.55 76.92L171.53 76.90Q171.45 79.74 170.78 85.60L170.76 85.58L170.68 85.50Q169.67 90.69 165.48 91.56ZM161.96 69.99L161.96 69.99L161.96 69.99Q162.86 66.96 164.06 65.96L163.89 65.79L163.91 65.81Q164.81 65.18 167.08 64.84L167.00 64.77L167.03 64.80Q164.10 71.26 160.83 79.39L160.79 79.34L160.82 79.37Q160.71 74.53 161.91 69.93Z"/><path d="M19 52 C185 67,191 128,332 135" stroke="#a3dc6a" fill="none"/><path d="M15 60 C185 113,184 120,326 26" stroke="#db42b4" fill="none"/><path d="M20 67 C177 69,165 126,331 111" stroke="#54bbdd" fill="none"/><path d="M20 5 C176 5,183 66,337 118" stroke="#72afed" fill="none"/><path d="M2 27 C167 41,174 30,340 45" stroke="#8be3a1" fill="none"/><path d="M5 85 C158 11,178 36,336 81" stroke="#debb53" fill="none"/><path d="M12 5 C182 92,191 16,336 110" stroke="#577ae4" fill="none"/><path d="M1 96 C163 41,179 108,334 84" stroke="#e55151" fill="none"/><path d="M12 100 C156 15,155 94,335 22" stroke="#5fe7a3" fill="none"/><path d="M6 90 C173 58,171 35,331 96" stroke="#e074aa" fill="none"/><path d="M9 58 C162 62,167 115,330 99" stroke="#91db46" fill="none"/><path d="M5 45 C179 80,186 46,340 88" stroke="#b7de44" fill="none"/><path d="M2 122 C171 98,163 118,324 97" stroke="#4dd5d5" fill="none"/><path d="M14 58 C153 38,162 120,327 107" stroke="#51d693" fill="none"/><path d="M11 103 C179 86,175 93,334 50" stroke="#5b9ee0" fill="none"/><path d="M17 15 C159 71,179 124,328 36" stroke="#dd59bc" fill="none"/><path d="M2 98 C153 76,184 50,328 124" stroke="#ba86ed" fill="none"/><path d="M4 96 C168 84,163 93,328 113" stroke="#987fe5" fill="none"/><path d="M13 18 C183 18,190 69,338 21" stroke="#41e141" fill="none"/><path d="M3 113 C159 94,178 2,338 52" stroke="#9a7feb" fill="none"/><path d="M19 100 C151 109,176 70,327 136" stroke="#92bce6" fill="none"/></svg>