<svg xmlns="http://www.w3.org/2000/svg" width="342" height="140" viewBox="0,0,342,140"><path d="M18 37 C168 15,159 21,322 58" stroke="#e57f98" fill="none"/><path d="M7 111 C187 122,162 52,340 14" stroke="#62e8c7" fill="none"/><path fill="#d18ce8" d="M47.30 92.96L47.41 93.06L47.36 93.02Q45.18 93.06 42.84 92.43L42.99 92.59L42.84 92.44Q41.01 91.06 40.78 88.60L40.75 88.57L40.86 88.69Q40.78 88.37 41.06 84.43L41.05 84.42L41.18 84.55Q42.68 84.22 45.71 83.65L45.71 83.65L45.42 84.79L45.27 84.65Q44.94 87.34 47.05 88.20L47.05 88.19L47.09 88.23Q48.35 88.81 51.49 88.81L51.35 88.66L51.40 88.71Q53.73 88.42 54.01 88.30L54.04 88.33L54.06 88.35Q55.45 88.14 56.53 87.40L56.51 87.38L56.58 87.44Q58.72 86.05 58.44 82.91L58.46 82.93L58.42 82.89Q58.19 79.29 55.59 76.95L55.47 76.83L55.45 76.81Q52.95 74.56 49.24 74.56L49.28 74.61L49.16 74.15L49.24 74.22Q49.78 74.14 51.09 74.02L50.98 73.91L51.08 74.01Q53.95 73.85 56.01 72.00L56.07 72.06L55.91 71.90Q58.02 70.10 58.25 67.30L58.29 67.34L58.28 67.33Q58.45 66.87 58.45 66.36L58.45 66.36L58.38 66.29Q58.41 64.04 56.36 62.66L56.37 62.68L56.30 62.61Q54.54 61.47 52.14 61.65L52.04 61.54L52.15 61.66Q50.20 61.42 48.37 62.05L48.38 62.05L48.36 62.03Q46.15 62.80 45.70 64.51L45.64 64.45L45.63 64.45Q45.46 65.70 45.57 66.84L45.47 66.74L45.58 66.85Q43.96 66.43 40.88 65.35L40.83 65.29L40.97 65.44Q40.52 62.82 40.58 61.56L40.56 61.54L40.61 61.59Q40.78 59.31 42.38 58.28L42.35 58.25L42.34 58.24Q44.42 57.30 46.82 57.30L46.84 57.32L46.89 57.37Q51.66 57.34 56.40 57.74L56.42 57.76L56.38 57.72Q64.01 58.38 63.55 64.04L63.56 64.04L63.56 64.05Q63.44 66.27 62.70 68.61L62.65 68.56L62.72 68.63Q61.35 73.25 57.81 74.62L57.65 74.47L57.65 74.47Q61.64 75.31 62.55 80.34L62.61 80.40L62.54 80.33Q62.99 82.15 63.11 85.18L63.09 85.16L62.98 85.05Q63.19 91.72 56.28 92.40L56.43 92.55L56.29 92.41Q55.28 92.60 47.35 93.00ZM55.12 96.32L55.23 96.43L55.28 96.48Q56.18 96.53 60.47 96.64L60.43 96.61L60.36 96.53Q63.01 96.67 65.47 95.70L65.46 95.70L65.50 95.74Q67.30 94.34 67.02 91.71L66.85 91.55L66.89 91.59Q66.68 89.55 66.22 86.92L66.36 87.06L66.24 86.94Q65.13 80.18 62.22 77.73L62.35 77.85L61.99 77.21L61.90 77.06L61.93 77.09Q64.60 74.97 65.75 68.40L65.75 68.41L65.83 68.49Q65.81 67.72 65.98 66.29L65.92 66.23L66.06 66.37Q66.06 65.12 65.95 64.09L66.03 64.17L66.02 64.16Q65.73 61.59 63.79 60.57L63.73 60.51L63.61 60.50L63.60 60.49Q63.22 59.08 61.50 58.28L61.53 58.30L61.56 58.34Q59.31 57.34 51.60 56.88L51.51 56.79L51.55 56.83Q48.96 56.64 46.56 56.64L46.68 56.76L46.67 56.75Q44.25 56.73 41.96 57.70L41.88 57.61L41.99 57.72Q40.08 58.78 40.08 61.40L40.04 61.37L40.10 61.43Q40.12 60.82 40.52 65.84L40.42 65.75L40.48 65.80Q41.02 66.00 43.47 66.91L43.52 66.96L43.47 66.91Q43.49 67.73 43.44 68.48L43.39 68.43L43.31 68.35Q43.36 69.14 43.42 69.94L43.46 69.99L43.33 69.86Q46.08 70.49 49.11 70.67L49.09 70.64L49.05 70.60Q49.00 67.64 50.66 66.39L50.73 66.46L50.63 66.36Q51.88 65.38 54.90 65.04L54.86 64.99L55.02 65.16Q56.64 65.06 57.50 65.35L57.52 65.37L57.51 65.36Q57.53 65.49 57.58 65.66L57.55 65.63L57.60 65.96L57.88 66.93L57.72 66.77Q57.87 67.20 57.81 67.43L57.77 67.39L57.85 67.47Q57.71 70.01 55.42 71.78L55.32 71.68L55.26 71.62Q54.05 73.15 51.02 73.44L51.04 73.45L50.95 73.36Q49.93 73.66 48.62 73.66L48.49 73.53L48.52 73.56Q48.65 74.15 48.88 75.18L48.87 75.16L48.83 75.12Q51.52 75.19 53.69 76.27L53.56 76.14L53.52 76.28L51.21 76.59L51.08 76.47Q51.09 76.93 51.26 77.85L51.37 77.95L51.44 78.02Q54.61 77.88 57.18 79.88L57.06 79.76L57.13 79.83Q57.42 80.35 57.88 82.80L57.84 82.76L57.96 82.89Q58.18 87.22 53.79 87.85L53.84 87.90L53.90 87.96Q50.70 88.30 49.84 88.24L49.89 88.29L49.80 88.20Q49.22 88.14 48.42 88.03L48.34 87.94L48.31 87.22L48.45 86.51L48.65 86.08L48.52 85.43L48.71 85.63Q47.28 85.74 46.08 86.03L46.03 85.98L45.95 85.89Q45.93 85.59 45.93 85.30L45.92 85.30L45.91 85.28Q46.07 85.10 46.07 84.76L45.97 84.66L45.95 84.64Q45.95 83.95 46.18 82.87L46.33 83.02L46.22 82.91Q43.49 83.32 40.69 83.83L40.75 83.89L40.69 83.84Q40.75 84.64 40.58 86.32L40.60 86.34L40.58 86.32Q40.33 87.92 40.33 88.84L40.38 88.89L40.25 88.76Q40.52 92.00 42.58 93.14L42.42 92.99L42.52 93.09Q44.76 96.53 51.84 96.24L51.79 96.19L51.79 96.19Q52.91 96.16 55.19 96.39Z"/><path d="M3 83 C161 111,178 105,328 13" stroke="#95e9aa" fill="none"/><path d="M12 85 C176 58,171 45,336 122" stroke="#a058e9" fill="none"/><path fill="#baec87" d="M104.02 93.00L103.94 92.93L103.99 92.97Q101.85 93.07 99.51 92.44L99.55 92.48L99.59 92.52Q97.66 91.04 97.43 88.59L97.42 88.57L97.50 88.66Q97.48 88.41 97.77 84.47L97.81 84.51L97.75 84.45Q99.28 84.16 102.31 83.59L102.24 83.52L101.96 84.67L102.12 84.82Q101.57 87.31 103.69 88.16L103.74 88.22L103.64 88.12Q104.96 88.75 108.10 88.75L107.99 88.64L108.17 88.82Q110.46 88.48 110.75 88.37L110.71 88.33L110.79 88.42Q112.21 88.24 113.30 87.50L113.18 87.38L113.25 87.45Q115.35 86.00 115.06 82.86L115.10 82.90L115.14 82.94Q114.79 79.23 112.20 76.89L112.13 76.82L112.13 76.82Q109.65 74.59 105.93 74.59L105.77 74.43L105.84 74.15L105.86 74.17Q106.33 74.02 107.64 73.90L107.65 73.91L107.75 74.01Q110.69 73.92 112.75 72.07L112.66 71.99L112.62 71.94Q114.78 70.19 115.01 67.39L114.98 67.36L115.03 67.41Q114.98 66.74 114.98 66.23L115.09 66.33L115.12 66.36Q115.05 64.01 112.99 62.64L113.03 62.67L112.97 62.62Q111.15 61.42 108.75 61.59L108.79 61.63L108.83 61.67Q106.82 61.38 105.00 62.01L105.06 62.07L105.09 62.10Q102.89 62.87 102.43 64.58L102.45 64.60L102.30 64.45Q102.02 65.60 102.14 66.74L102.29 66.89L102.27 66.87Q100.63 66.43 97.54 65.35L97.49 65.29L97.51 65.31Q97.16 62.79 97.21 61.53L97.21 61.53L97.33 61.65Q97.40 59.26 99.00 58.23L98.99 58.23L99.11 58.34Q101.10 57.31 103.50 57.31L103.52 57.33L103.52 57.33Q108.37 57.39 113.11 57.79L113.04 57.71L113.09 57.76Q120.60 58.30 120.14 63.96L120.19 64.01L120.21 64.03Q119.99 66.15 119.25 68.49L119.33 68.58L119.29 68.53Q118.05 73.29 114.51 74.66L114.50 74.65L114.40 74.55Q118.31 75.32 119.23 80.35L119.35 80.47L119.19 80.31Q119.54 82.03 119.65 85.06L119.66 85.06L119.75 85.16Q119.96 91.82 113.05 92.50L113.01 92.46L113.09 92.54Q111.88 92.53 103.94 92.93ZM111.81 96.34L111.87 96.40L111.85 96.38Q112.76 96.44 117.04 96.55L117.01 96.52L117.13 96.64Q119.70 96.69 122.15 95.72L122.10 95.67L122.08 95.65Q123.80 94.17 123.51 91.54L123.59 91.62L123.63 91.66Q123.38 89.58 122.92 86.95L122.90 86.93L123.01 87.05Q122.00 80.38 119.09 77.92L118.89 77.73L118.66 77.21L118.67 77.16L118.56 77.06Q121.26 74.96 122.40 68.39L122.38 68.37L122.44 68.43Q122.47 67.72 122.65 66.29L122.62 66.27L122.73 66.38Q122.85 65.24 122.73 64.21L122.67 64.15L122.71 64.19Q122.47 61.67 120.53 60.64L120.56 60.67L120.42 60.64L120.36 60.58Q119.94 59.13 118.23 58.34L118.18 58.29L118.17 58.27Q115.85 57.21 108.14 56.76L108.29 56.91L108.23 56.85Q105.72 56.74 103.33 56.74L103.28 56.69L103.31 56.72Q100.92 56.73 98.64 57.70L98.51 57.58L98.62 57.69Q96.80 58.84 96.80 61.47L96.76 61.42L96.68 61.35Q96.80 60.84 97.20 65.86L97.27 65.93L97.15 65.80Q97.67 65.98 100.12 66.90L100.01 66.78L100.06 66.83Q100.10 67.68 100.05 68.42L99.95 68.32L99.96 68.33Q99.94 69.05 99.99 69.85L100.06 69.92L100.09 69.95Q102.69 70.44 105.72 70.61L105.89 70.78L105.89 70.78Q105.60 67.57 107.25 66.32L107.37 66.44L107.36 66.43Q108.61 65.45 111.64 65.10L111.66 65.13L111.66 65.13Q113.39 65.15 114.25 65.43L114.15 65.33L114.12 65.31Q114.22 65.52 114.28 65.70L114.26 65.67L114.31 66.01L114.49 66.87L114.52 66.90Q114.56 67.23 114.51 67.46L114.32 67.28L114.42 67.37Q114.39 70.03 112.11 71.80L111.97 71.66L112.06 71.75Q110.63 73.06 107.60 73.35L107.70 73.45L107.59 73.34Q106.44 73.50 105.13 73.50L105.31 73.68L105.15 73.52Q105.20 74.03 105.43 75.06L105.58 75.21L105.55 75.18Q108.08 75.08 110.25 76.16L110.38 76.30L110.09 76.18L107.71 76.43L107.76 76.48Q107.83 77.01 108.01 77.92L108.06 77.97L107.95 77.87Q111.27 77.87 113.84 79.87L113.71 79.74L113.87 79.90Q114.17 80.43 114.62 82.88L114.61 82.87L114.58 82.84Q114.95 87.32 110.55 87.95L110.50 87.89L110.40 87.80Q107.24 88.18 106.39 88.12L106.44 88.18L106.50 88.23Q105.72 87.97 104.92 87.86L105.06 87.99L105.05 87.30L105.24 86.63L105.14 85.90L105.29 85.54L105.34 85.59Q103.91 85.70 102.71 85.99L102.61 85.88L102.67 85.95Q102.70 85.69 102.70 85.40L102.70 85.40L102.50 85.20Q102.69 85.05 102.69 84.71L102.73 84.75L102.73 84.75Q102.79 84.13 103.02 83.04L102.93 82.96L102.94 82.96Q100.14 83.30 97.34 83.82L97.25 83.72L97.30 83.78Q97.30 84.51 97.13 86.20L97.16 86.23L97.26 86.33Q96.98 87.91 96.98 88.83L97.01 88.85L96.97 88.81Q97.10 91.92 99.16 93.06L99.27 93.16L99.22 93.11Q101.42 96.52 108.50 96.23L108.43 96.16L108.43 96.16Q109.47 96.06 111.75 96.29Z"/><path d="M7 113 C189 49,172 133,334 120" stroke="#e23a64" fill="none"/><path d="M16 86 C165 79,157 48,331 94" stroke="#e07f7f" fill="none"/><path d="M3 94 C178 74,171 13,339 44" stroke="#5096dc" fill="none"/><path fill="#73dda8" d="M177.53 89.38L177.56 89.41L177.60 89.45Q177.89 90.76 178.69 93.79L178.80 93.91L178.81 93.91Q172.34 91.78 165.43 92.18L165.44 92.19L165.49 92.25Q158.68 92.68 152.68 95.65L152.72 95.70L152.61 95.59Q153.06 94.66 153.12 94.78L153.01 94.67L153.02 94.68Q158.67 88.79 164.55 82.17L164.58 82.19L164.48 82.09Q171.13 74.64 172.90 67.61L172.90 67.62L172.88 67.59Q173.72 65.13 171.81 63.36L171.76 63.31L171.70 63.24Q169.73 61.42 167.04 61.65L167.09 61.70L167.04 61.65Q166.66 61.72 166.15 61.72L166.03 61.61L166.09 61.67Q163.73 61.59 161.85 62.96L161.90 63.01L162.00 63.11Q160.03 65.14 160.37 69.14L160.34 69.11L160.25 69.01Q157.58 68.51 155.75 67.83L155.72 67.80L155.85 67.93Q155.62 65.87 155.51 63.70L155.48 63.67L155.47 63.66Q155.26 61.11 156.17 59.40L156.16 59.38L156.24 59.46Q158.84 57.33 163.87 57.33L163.95 57.41L166.56 57.40L166.56 57.40Q169.87 57.34 171.30 57.51L171.45 57.66L171.35 57.56Q177.93 58.26 178.33 61.91L178.26 61.85L178.27 61.85Q178.45 62.77 178.33 63.97L178.21 63.85L178.40 64.04Q178.17 64.84 177.95 65.87L177.95 65.87L177.96 65.89Q175.49 78.04 164.13 88.31L164.24 88.43L164.23 88.41Q166.36 88.20 168.41 88.20L168.28 88.07L168.47 88.26Q173.15 88.08 177.43 89.28ZM176.72 58.19L176.70 58.17L176.60 58.07Q174.33 57.23 171.76 57.12L171.75 57.10L166.45 56.66L166.59 56.80Q159.78 56.27 156.47 57.93L156.55 58.01L156.58 58.03Q154.92 60.03 154.92 63.12L154.98 63.17L154.88 63.08Q154.98 64.21 155.44 68.43L155.56 68.55L155.38 68.37Q156.23 68.76 158.00 69.22L158.12 69.34L157.98 70.75L158.05 70.81Q158.04 71.55 158.16 72.35L158.06 72.25L158.18 72.37Q160.01 72.48 163.72 72.83L163.64 72.75L163.76 72.87Q163.70 72.29 163.70 71.78L163.68 71.76L163.71 71.79Q163.65 68.99 165.48 66.97L165.48 66.96L165.54 67.02Q167.26 64.89 169.94 65.06L169.88 65.00L169.93 65.05Q171.01 65.05 172.16 65.28L172.25 65.37L172.32 65.43Q172.43 65.95 172.54 66.57L172.53 66.57L172.48 66.52Q172.56 67.16 172.45 67.68L172.56 67.79L172.55 67.78Q170.70 74.95 164.08 82.21L164.02 82.15L164.07 82.20Q160.78 85.48 152.61 94.56L152.65 94.59L152.70 94.64Q152.35 95.83 151.83 96.69L151.87 96.72L151.78 96.64Q154.19 95.33 156.47 94.53L156.42 94.48L156.54 94.59Q155.42 95.42 153.99 97.65L154.03 97.68L153.99 97.65Q153.75 98.09 153.58 98.61L153.55 98.57L153.58 98.61Q161.03 95.66 169.25 95.95L169.13 95.83L169.19 95.89Q177.65 96.07 184.51 99.61L184.47 99.57L183.02 96.41L182.97 96.36Q182.05 94.42 181.65 93.22L181.76 93.33L181.65 93.22Q180.67 92.69 178.84 92.06L178.70 91.92L178.69 91.91Q178.57 90.94 178.00 88.88L177.97 88.85L177.93 88.81Q174.64 87.97 171.21 87.69L171.13 87.61L171.18 87.65Q178.21 80.81 180.49 68.42L180.61 68.53L180.84 64.14L180.81 64.11Q180.68 61.41 178.85 60.38L178.94 60.47L178.77 60.35L178.75 60.33Q178.70 60.23 178.59 60.23L178.60 60.24L178.72 60.36Q178.25 58.98 176.59 58.06Z"/><path d="M8 128 C177 16,171 85,326 48" stroke="#7de7e7" fill="none"/><path d="M21 129 C156 122,187 82,326 121" stroke="#c65de8" fill="none"/><path d="M11 123 C175 117,170 111,339 117" stroke="#3edf8e" fill="none"/><path d="M8 7 C191 122,182 30,337 67" stroke="#bddf57" fill="none"/><path d="M18 133 C191 125,171 68,325 13" stroke="#a366df" fill="none"/><path d="M9 89 C188 30,181 95,324 132" stroke="#de3f3f" fill="none"/><path d="M8 123 C192 93,167 104,335 69" stroke="#d5d552" fill="none"/><path d="M2 75 C156 76,190 122,335 73" stroke="#7694ee" fill="none"/><path d="M9 135 C188 35,155 112,329 12" stroke="#44d844" fill="none"/><path d="M7 47 C187 113,160 5,328 20" stroke="#9f85ee" fill="none"/><path d="M9 90 C166 16,181 21,335 73" stroke="#4be672" fill="none"/><path fill="#e23a64" d="M279.03 76.35L278.95 76.27L279.06 76.38Q276.18 76.30 274.36 78.30L274.24 78.18L274.38 78.32Q272.55 80.32 272.33 83.18L272.23 83.08L272.35 83.20Q271.99 86.32 273.81 87.83L273.80 87.82L273.74 87.76Q275.60 89.30 278.79 89.19L278.77 89.16L278.89 89.28Q282.30 88.98 283.72 87.55L283.77 87.60L283.74 87.56Q285.26 85.37 285.09 82.63L285.12 82.67L285.04 82.59Q284.93 79.85 283.30 78.05L283.32 78.07L283.25 78.00Q281.71 76.28 278.97 76.28ZM278.82 62.04L278.82 62.04L278.86 62.07Q276.75 61.91 274.76 62.65L274.89 62.78L274.84 62.73Q272.92 63.96 273.27 66.76L273.23 66.72L273.28 66.77Q274.00 72.35 279.03 72.35L279.03 72.35L278.97 72.29Q281.40 72.67 282.89 70.95L282.89 70.95L282.76 70.83Q284.27 69.13 284.32 66.79L284.33 66.80L284.41 66.88Q284.45 64.18 283.36 63.26L283.44 63.34L283.35 63.25Q280.83 61.98 278.88 62.10ZM278.47 92.92L278.45 92.90L274.04 93.05L273.92 92.93Q271.66 92.96 269.66 91.64L269.72 91.70L269.74 91.72Q267.61 89.94 267.84 85.66L267.88 85.70L267.86 85.67Q268.45 75.30 273.87 73.81L273.85 73.79L273.89 73.84Q270.57 72.57 268.58 64.52L268.58 64.53L268.44 64.39Q267.95 62.30 268.07 61.10L268.05 61.08L268.04 61.07Q268.63 58.00 274.16 57.95L274.19 57.97L274.08 57.86Q280.35 57.69 282.52 57.97L282.55 57.99L282.60 58.04Q288.33 58.81 289.02 61.84L289.04 61.85L289.01 61.83Q289.21 62.77 289.21 63.34L289.19 63.32L289.25 63.38Q289.16 64.32 288.88 65.24L289.01 65.37L288.89 65.25Q288.00 71.61 283.60 73.89L283.56 73.85L283.72 74.01Q288.90 75.14 289.64 83.07L289.71 83.14L289.56 82.99Q289.72 83.38 289.78 85.33L289.70 85.25L289.78 85.33Q289.79 89.33 287.39 90.93L287.39 90.93L287.50 91.04Q285.27 92.18 278.42 92.87ZM281.94 96.45L281.92 96.42L286.93 96.52L287.06 96.65Q289.46 96.60 291.75 95.52L291.85 95.61L291.87 95.64Q293.50 94.47 293.61 91.67L293.70 91.76L293.67 91.73Q293.60 89.95 293.03 87.04L293.14 87.14L293.12 87.12Q291.84 80.25 288.70 77.45L288.58 77.33L288.28 76.74L288.10 76.45L287.78 75.96L287.76 75.94Q290.20 73.87 291.58 67.65L291.66 67.73L291.62 67.69Q291.69 67.19 291.80 65.93L291.80 65.93L291.79 65.92Q291.79 64.78 291.67 63.86L291.67 63.86L291.84 64.03Q291.53 61.78 289.76 61.04L289.70 60.97L289.72 60.94L289.59 60.93L289.54 60.87Q289.13 59.78 287.36 58.58L287.39 58.61L287.47 58.63L287.42 58.58Q284.54 57.65 278.43 57.36L278.39 57.32L278.26 57.19Q275.94 57.04 273.88 57.21L273.99 57.32L273.89 57.22Q272.77 57.36 270.83 57.59L270.71 57.46L270.86 57.61Q267.80 58.03 267.45 60.49L267.52 60.55L267.63 60.66Q267.54 61.38 267.60 62.58L267.48 62.45L267.55 62.52Q267.69 63.30 268.55 66.84L268.58 66.86L268.55 66.84Q269.80 71.74 272.42 73.74L272.39 73.70L272.41 73.73L272.54 73.86Q268.28 75.70 267.48 83.47L267.64 83.63L267.49 83.48Q267.20 86.79 267.20 88.16L267.23 88.18L267.20 88.15Q267.28 90.81 269.05 92.18L269.08 92.21L269.19 92.32Q269.29 92.36 269.69 92.65L269.63 92.59L269.76 92.72Q271.26 96.10 281.94 96.44ZM281.39 79.79L281.47 79.87L281.50 79.91Q282.69 79.61 284.01 80.30L284.20 80.49L284.18 80.47Q284.70 81.90 284.64 82.70L284.64 82.69L284.55 82.61Q284.62 83.08 284.62 83.53L284.67 83.59L284.66 83.57Q284.71 87.17 281.28 88.42L281.22 88.36L281.21 88.35Q280.11 88.91 278.91 88.74L278.92 88.74L278.86 88.68Q277.12 88.77 275.41 88.09L275.50 88.18L275.54 88.22Q275.15 87.25 275.26 85.77L275.15 85.66L275.21 85.72Q275.46 83.34 277.26 81.51L277.15 81.40L277.15 81.40Q278.97 79.60 281.37 79.77ZM281.81 65.65L281.68 65.52L281.72 65.56Q282.98 65.45 283.78 65.68L283.68 65.58L283.68 66.78L283.85 66.94Q283.72 68.93 282.35 70.44L282.33 70.43L282.34 70.44Q281.00 71.98 278.95 71.70L278.94 71.69L278.93 71.68Q277.38 71.62 276.76 71.27L276.80 71.32L276.82 71.34Q276.75 70.92 276.58 69.90L276.71 70.03L276.66 69.97Q276.27 67.87 278.09 66.62L278.14 66.66L277.98 66.50Q279.74 65.64 281.86 65.70Z"/><path d="M9 65 C170 95,192 131,332 2" stroke="#48de93" fill="none"/><path fill="#5cc2e4" d="M218.32 87.83L218.40 87.91L218.30 87.82Q220.08 89.25 222.19 89.02L222.08 88.92L222.12 88.95Q226.56 89.28 227.53 84.26L227.52 84.25L227.60 84.33Q228.45 79.52 228.45 74.44L228.42 74.41L228.42 70.53L228.43 70.53Q228.42 68.64 227.91 66.76L228.02 66.87L228.02 66.87Q226.07 70.24 223.10 77.37L223.13 77.39L223.24 77.51Q220.20 84.58 218.37 87.89ZM225.91 63.16L225.85 63.10L225.89 63.14Q224.19 61.96 222.19 61.96L222.19 61.95L222.16 61.93Q220.03 61.79 218.37 63.16L218.30 63.09L218.39 63.18Q216.58 64.40 216.30 66.63L216.40 66.73L216.37 66.70Q215.80 68.70 215.75 70.93L215.83 71.01L215.79 70.97Q215.75 70.93 215.75 75.21L215.79 75.26L215.70 75.17Q215.85 78.85 216.53 84.28L216.51 84.26L216.53 84.27Q219.25 77.00 225.81 63.07ZM228.21 91.33L228.30 91.42L228.28 91.40Q225.67 92.78 222.18 92.78L222.11 92.71L219.70 92.76L219.65 92.70Q214.80 92.71 213.09 90.14L213.19 90.24L213.03 90.09Q211.81 86.81 211.70 82.42L211.84 82.55L211.82 82.54Q211.76 79.91 211.65 74.71L211.62 74.68L211.58 74.64Q211.60 72.90 211.37 68.33L211.29 68.24L211.38 68.34Q211.27 64.91 211.73 61.94L211.61 61.83L211.59 61.80Q212.44 57.52 218.95 57.18L218.99 57.21L218.88 57.11Q220.09 57.11 222.09 57.17L222.08 57.16L221.97 57.05Q230.61 57.41 232.21 62.61L232.21 62.61L232.10 62.50Q233.12 65.46 233.06 68.26L232.97 68.17L233.03 68.22Q232.93 75.72 232.81 77.54L232.74 77.48L232.88 77.61Q232.42 83.15 231.96 85.09L231.97 85.09L232.04 85.17Q231.17 89.95 228.32 91.44ZM235.73 91.08L235.74 91.09L235.59 90.95Q235.97 86.82 235.92 84.13L236.01 84.23L235.85 77.27L235.81 77.23Q235.65 72.68 234.85 64.40L234.86 64.41L234.92 64.46Q234.07 61.67 232.13 60.53L232.18 60.58L232.20 60.60Q229.76 56.68 222.00 56.45L221.99 56.44L222.07 56.53Q220.84 56.55 218.84 56.61L218.66 56.43L218.66 56.43Q211.95 56.63 211.21 61.31L211.16 61.26L211.20 61.30Q210.65 64.80 210.82 67.95L210.90 68.02L210.72 67.85Q211.41 74.59 211.35 79.61L211.29 79.55L211.29 79.55Q211.13 84.99 211.31 86.53L211.45 86.68L211.48 86.70Q212.04 91.32 214.33 92.52L214.31 92.50L214.34 92.53Q216.55 95.83 222.55 96.23L222.39 96.08L222.47 96.15Q227.82 96.48 228.79 96.42L228.81 96.44L228.72 96.35Q233.00 96.12 234.71 93.72L234.83 93.83L234.74 93.75Q235.53 92.77 235.65 91.00ZM222.71 88.40L222.77 88.46L222.84 88.53Q223.79 86.28 225.39 82.23L225.47 82.31L227.99 75.92L227.98 75.91Q227.98 78.43 227.41 83.45L227.40 83.44L227.33 83.36Q226.28 87.63 222.68 88.37ZM219.69 69.90L219.85 70.07L219.78 70.00Q220.47 67.31 221.50 66.46L221.41 66.37L221.59 66.55Q222.09 65.74 224.03 65.45L224.22 65.64L224.22 65.64Q221.65 71.12 218.85 78.09L218.77 78.01L218.66 77.90Q218.79 73.98 219.82 70.04Z"/><path d="M4 68 C157 118,163 105,336 27" stroke="#e183e1" fill="none"/><path d="M20 5 C152 67,155 85,326 61" stroke="#e04242" fill="none"/><path d="M15 103 C174 33,156 7,335 117" stroke="#ec91a8" fill="none"/><path d="M21 28 C185 48,153 43,322 116" stroke="#87eded" fill="none"/><path d="M8 117 C186 51,176 73,340 34" stroke="#b95ed8" fill="none"/><path d="M20 68 C172 5,164 16,323 67" stroke="#85ee9f" fill="none"/><path d="M9 6 C150 134,182 48,322 74" stroke="#4d98e4" fill="none"/><path d="M16 84 C183 15,183 41,329 18" stroke="#ecaf73" fill="none"/><path d="M16 127 C178 110,150 6,324 59" stroke="#456ad7" fill="none"/><path d="M5 38 C185 58,185 33,327 101" stroke="#8ca4ec" fill="none"/><path d="M19 94 C163 58,172 93,338 130" stroke="#6de8e8" fill="none"/><path d="M2 131 C174 73,156 128,334 78" stroke="#a05de3" fill="none"/><path d="M15 72 C184 102,158 30,324 32" stroke="#da62da" fill="none"/><path d="M16 120 C178 2,184 95,336 80" stroke="#ad6ded" fill="none"/><path d="M4 99 C174 55,175 102,340 38" stroke="#7fdb61" fill="none"/><path d="M18 104 C190 127,180 122,336 6" stroke="#e46c6c" fill="none"/><path d="M5 136 C167 2,188 57,335 17" stroke="#6a6ae5" fill="none"/><path d="M17 51 C184 5,191 29,328 59" stroke="#e631b9" fill="none"/><path d="M3 44 C161 6,188 108,331 64" stroke="#e5e589" fill="none"/><path d="M18 121 C165 136,191 37,330 97" stroke="#51e5c0" fill="none"/><path d="M12 131 C152 86,165 39,330 102" stroke="#7756db" fill="none"/></svg>