<svg xmlns="http://www.w3.org/2000/svg" width="342" height="140" viewBox="0,0,342,140"><path d="M15 92 C159 59,189 73,329 107" stroke="#6943d9" fill="none"/><path d="M16 26 C190 76,190 18,323 117" stroke="#c1e457" fill="none"/><path d="M17 124 C179 79,174 103,325 56" stroke="#e33fe3" fill="none"/><path d="M3 74 C158 73,180 130,331 6" stroke="#68edaa" fill="none"/><path d="M8 71 C191 127,180 127,322 82" stroke="#e16fc4" fill="none"/><path fill="#72e8ad" d="M47.79 91.90L47.79 91.91L47.74 91.86Q45.81 92.05 43.58 91.45L43.47 91.33L43.47 91.34Q41.86 90.16 41.64 87.82L41.69 87.87L41.64 87.82Q41.45 87.42 41.73 83.66L41.83 83.77L41.78 83.72Q43.22 83.42 46.11 82.88L46.20 82.97L45.98 84.11L45.85 83.98Q45.52 86.53 47.53 87.35L47.58 87.39L47.60 87.42Q48.60 87.77 51.59 87.77L51.61 87.79L51.65 87.83Q53.97 87.64 54.24 87.53L54.22 87.51L54.20 87.49Q55.48 87.25 56.51 86.54L56.54 86.57L56.58 86.61Q58.54 85.19 58.26 82.20L58.35 82.28L58.34 82.28Q57.94 78.67 55.47 76.44L55.51 76.49L55.48 76.46Q53.02 74.24 49.48 74.24L49.58 74.34L49.51 73.93L49.56 73.99Q50.15 73.98 51.40 73.87L51.38 73.85L51.25 73.72Q54.02 73.61 55.98 71.84L55.94 71.80L56.00 71.86Q57.99 70.13 58.21 67.46L58.15 67.40L58.28 67.53Q58.21 66.87 58.21 66.38L58.35 66.51L58.28 66.45Q58.34 64.33 56.38 63.03L56.41 63.05L56.31 62.96Q54.70 61.94 52.41 62.10L52.36 62.05L52.39 62.08Q50.41 61.74 48.67 62.33L48.74 62.40L48.80 62.46Q46.76 63.25 46.32 64.88L46.21 64.76L46.21 64.76Q46.01 65.92 46.12 67.01L46.11 67.00L46.11 67.00Q44.69 66.72 41.75 65.69L41.69 65.63L41.62 65.56Q41.27 63.15 41.33 61.95L41.39 62.01L41.35 61.97Q41.45 59.73 42.97 58.75L43.02 58.80L43.01 58.79Q45.01 57.91 47.29 57.91L47.28 57.89L47.31 57.92Q51.97 58.02 56.48 58.40L56.33 58.24L56.38 58.29Q63.55 58.83 63.12 64.22L63.22 64.31L63.21 64.30Q63.00 66.33 62.30 68.56L62.37 68.63L62.42 68.68Q61.13 73.10 57.75 74.41L57.70 74.35L57.66 74.32Q61.37 75.03 62.24 79.82L62.42 79.99L62.31 79.89Q62.72 81.60 62.83 84.48L62.84 84.50L62.75 84.40Q62.99 90.79 56.41 91.44L56.34 91.37L56.44 91.48Q55.35 91.52 47.79 91.90ZM55.26 95.13L55.31 95.19L55.24 95.11Q56.13 95.19 60.21 95.30L60.28 95.37L60.17 95.25Q62.75 95.45 65.09 94.52L65.00 94.43L64.95 94.38Q66.80 93.19 66.53 90.68L66.44 90.60L66.45 90.61Q66.19 88.61 65.76 86.11L65.83 86.18L65.94 86.29Q64.90 79.87 62.13 77.53L62.15 77.55L61.83 76.96L61.71 76.78L61.82 76.89Q64.28 74.78 65.37 68.53L65.24 68.40L65.30 68.46Q65.39 67.85 65.56 66.49L65.46 66.39L65.61 66.54Q65.66 65.39 65.55 64.41L65.50 64.36L65.45 64.31Q65.38 62.07 63.53 61.09L63.38 60.94L63.29 60.96L63.44 61.11Q62.98 59.67 61.34 58.91L61.22 58.78L61.31 58.87Q59.08 57.84 51.74 57.40L51.84 57.51L51.74 57.41Q49.44 57.39 47.16 57.39L47.12 57.36L47.06 57.29Q44.78 57.30 42.60 58.22L42.59 58.21L42.64 58.26Q40.96 59.40 40.96 61.90L40.95 61.90L40.87 61.82Q40.97 61.32 41.35 66.11L41.24 66.00L41.29 66.05Q41.80 66.23 44.14 67.10L44.13 67.09L43.95 66.91Q44.01 67.73 43.95 68.44L43.99 68.48L44.03 68.51Q43.94 69.13 44.00 69.89L44.03 69.92L43.96 69.86Q46.67 70.55 49.55 70.72L49.54 70.70L49.52 70.68Q49.39 67.78 50.97 66.58L50.91 66.53L50.93 66.55Q52.19 65.68 55.07 65.36L55.12 65.41L54.99 65.28Q56.73 65.38 57.54 65.65L57.50 65.61L57.49 65.60Q57.59 65.81 57.65 65.98L57.60 65.93L57.52 66.12L57.82 67.07L57.84 67.10Q57.83 67.36 57.78 67.57L57.63 67.42L57.66 67.46Q57.64 69.99 55.46 71.68L55.45 71.66L55.33 71.55Q54.04 72.87 51.16 73.14L51.32 73.30L51.20 73.18Q50.26 73.49 49.01 73.49L48.89 73.37L48.88 73.36Q48.95 73.87 49.17 74.85L49.17 74.85L49.19 74.87Q51.70 74.87 53.76 75.91L53.85 75.99L53.60 75.91L51.35 76.16L51.42 76.23Q51.37 76.61 51.53 77.48L51.60 77.55L51.55 77.50Q54.63 77.43 57.08 79.33L57.14 79.39L57.12 79.37Q57.48 79.95 57.92 82.29L57.95 82.32L57.84 82.21Q58.14 86.43 53.95 87.02L53.93 87.01L53.86 86.93Q50.93 87.38 50.12 87.32L50.10 87.31L50.14 87.34Q49.47 87.16 48.71 87.06L48.70 87.05L48.75 86.45L48.96 85.84L48.90 85.19L48.93 84.73L49.04 84.84Q47.64 84.90 46.50 85.17L46.53 85.20L46.54 85.21Q46.41 84.81 46.41 84.54L46.41 84.54L46.39 84.53Q46.50 84.30 46.50 83.98L46.58 84.06L46.41 83.89Q46.62 83.44 46.83 82.41L46.85 82.43L46.74 82.32Q44.15 82.72 41.49 83.21L41.39 83.11L41.46 83.19Q41.50 83.93 41.34 85.54L41.28 85.48L41.23 85.43Q41.05 87.02 41.05 87.89L41.21 88.04L41.14 87.97Q41.25 90.91 43.20 92.00L43.16 91.95L43.21 92.00Q45.36 95.29 52.10 95.02L52.10 95.02L52.07 94.98Q53.15 94.98 55.32 95.20Z"/><path d="M11 132 C161 64,150 78,325 105" stroke="#e4e45c" fill="none"/><path d="M14 25 C191 44,163 57,322 6" stroke="#e0b284" fill="none"/><path d="M17 129 C153 134,171 72,336 83" stroke="#4d6fd5" fill="none"/><path d="M4 130 C180 55,191 14,331 12" stroke="#77e3c8" fill="none"/><path d="M16 92 C162 42,177 69,329 88" stroke="#7bdfad" fill="none"/><path d="M14 129 C177 31,188 46,333 87" stroke="#60eba5" fill="none"/><path d="M2 28 C190 123,160 34,326 32" stroke="#e1a86f" fill="none"/><path d="M2 9 C189 125,181 14,340 90" stroke="#9276e4" fill="none"/><path fill="#bce792" d="M104.56 92.01L104.51 91.96L104.52 91.97Q102.39 91.96 100.16 91.36L100.20 91.40L100.26 91.46Q98.42 90.06 98.21 87.72L98.19 87.70L98.30 87.82Q98.25 87.55 98.53 83.80L98.43 83.71L98.40 83.67Q99.95 83.49 102.84 82.94L102.88 82.98L102.59 84.05L102.60 84.06Q102.24 86.59 104.25 87.41L104.11 87.26L104.11 87.26Q105.36 87.86 108.35 87.86L108.23 87.74L108.35 87.86Q110.60 87.61 110.87 87.50L110.83 87.46L110.95 87.58Q112.22 87.33 113.26 86.62L113.19 86.55L113.27 86.63Q115.33 85.32 115.06 82.33L114.95 82.22L114.88 82.15Q114.76 78.82 112.28 76.59L112.18 76.48L112.27 76.58Q109.65 74.20 106.11 74.20L106.24 74.33L106.24 74.00L106.14 73.90Q106.68 73.84 107.93 73.73L108.10 73.90L107.99 73.80Q110.75 73.67 112.70 71.90L112.59 71.79L112.61 71.81Q114.73 70.20 114.95 67.54L114.81 67.40L114.95 67.54Q115.01 67.00 115.01 66.51L115.02 66.52L115.01 66.51Q115.04 64.36 113.08 63.06L113.01 62.99L113.00 62.98Q111.25 61.83 108.97 61.99L109.08 62.10L109.06 62.09Q107.12 61.78 105.38 62.38L105.37 62.36L105.32 62.31Q103.35 63.17 102.92 64.80L102.95 64.84L102.93 64.82Q102.55 65.79 102.65 66.88L102.81 67.04L102.68 66.91Q101.33 66.69 98.39 65.66L98.30 65.57L98.39 65.66Q98.04 63.25 98.10 62.05L98.13 62.09L98.13 62.09Q98.26 59.88 99.78 58.90L99.77 58.89L99.75 58.86Q101.78 58.01 104.06 58.01L104.12 58.06L104.07 58.02Q108.47 57.85 112.99 58.23L113.14 58.39L112.98 58.23Q120.35 58.96 119.91 64.34L119.95 64.39L119.82 64.25Q119.75 66.41 119.04 68.64L119.10 68.70L119.04 68.64Q117.75 73.06 114.38 74.37L114.41 74.40L114.46 74.45Q118.08 75.07 118.95 79.86L118.99 79.90L118.96 79.87Q119.36 81.57 119.47 84.45L119.47 84.46L119.39 84.38Q119.73 90.86 113.14 91.51L113.10 91.47L112.97 91.33Q112.04 91.55 104.48 91.93ZM111.88 95.09L112.01 95.22L111.89 95.10Q112.70 95.09 116.78 95.20L116.85 95.27L116.93 95.35Q119.45 95.48 121.79 94.55L121.77 94.53L121.66 94.42Q123.38 93.10 123.11 90.60L123.21 90.70L123.04 90.53Q122.96 88.71 122.53 86.21L122.58 86.26L122.44 86.12Q121.42 79.72 118.65 77.38L118.74 77.48L118.38 76.84L118.30 76.71L118.35 76.75Q120.96 74.80 122.05 68.54L122.05 68.54L121.94 68.43Q121.96 67.75 122.12 66.39L122.23 66.49L122.25 66.51Q122.37 65.44 122.26 64.46L122.29 64.49L122.13 64.33Q122.04 62.07 120.20 61.09L120.14 61.04L120.06 61.06L119.96 60.97Q119.59 59.62 117.96 58.85L118.03 58.93L117.90 58.79Q115.71 57.80 108.37 57.37L108.49 57.49L108.41 57.41Q106.05 57.33 103.76 57.33L103.73 57.30L103.75 57.32Q101.55 57.40 99.38 58.33L99.21 58.16L99.27 58.22Q97.63 59.41 97.63 61.91L97.59 61.87L97.64 61.93Q97.60 61.28 97.98 66.07L97.94 66.02L97.95 66.03Q98.41 66.17 100.74 67.04L100.66 66.96L100.70 66.99Q100.80 67.85 100.74 68.56L100.69 68.50L100.75 68.57Q100.62 69.15 100.68 69.91L100.77 70.00L100.69 69.91Q103.29 70.51 106.17 70.67L106.22 70.72L106.10 70.60Q106.05 67.77 107.62 66.58L107.55 66.50L107.57 66.52Q108.90 65.73 111.78 65.40L111.61 65.23L111.66 65.28Q113.42 65.41 114.24 65.68L114.15 65.60L114.21 65.66Q114.29 65.84 114.34 66.00L114.29 65.95L114.27 66.21L114.47 67.06L114.41 67.00Q114.52 67.38 114.46 67.59L114.29 67.42L114.35 67.48Q114.26 69.95 112.08 71.63L112.09 71.64L111.99 71.54Q110.80 72.96 107.92 73.23L107.81 73.13L107.87 73.19Q106.93 73.50 105.68 73.50L105.61 73.43L105.55 73.37Q105.63 73.88 105.85 74.86L105.90 74.91L105.95 74.96Q108.31 74.82 110.37 75.85L110.50 75.98L110.33 75.97L108.14 76.28L108.04 76.18Q108.11 76.68 108.27 77.55L108.26 77.54L108.32 77.61Q111.38 77.51 113.83 79.42L113.74 79.33L113.83 79.42Q114.12 79.93 114.56 82.27L114.60 82.31L114.62 82.33Q114.84 86.46 110.65 87.06L110.55 86.96L110.69 87.09Q107.54 87.32 106.73 87.27L106.81 87.35L106.88 87.42Q106.14 87.17 105.38 87.07L105.37 87.06L105.38 86.41L105.51 85.72L105.61 85.22L105.60 84.72L105.64 84.76Q104.38 84.98 103.24 85.25L103.10 85.11L103.07 85.08Q103.14 84.87 103.14 84.60L103.03 84.50L103.17 84.64Q103.15 84.29 103.15 83.97L103.08 83.90L103.18 83.99Q103.25 83.41 103.47 82.38L103.43 82.34L103.44 82.35Q100.80 82.70 98.13 83.19L98.05 83.11L98.02 83.07Q98.07 83.84 97.91 85.44L98.03 85.56L97.98 85.51Q97.79 87.09 97.79 87.96L97.76 87.93L97.72 87.89Q97.96 90.95 99.92 92.04L99.82 91.95L99.80 91.93Q102.05 95.32 108.80 95.05L108.78 95.03L108.79 95.04Q109.84 95.01 112.02 95.22Z"/><path d="M5 22 C156 44,171 77,325 100" stroke="#50bde1" fill="none"/><path d="M14 48 C152 128,160 88,339 11" stroke="#bc8eeb" fill="none"/><path d="M13 54 C166 67,182 62,338 41" stroke="#597eec" fill="none"/><path d="M16 135 C170 59,174 68,335 134" stroke="#6485e6" fill="none"/><path d="M3 121 C167 41,153 52,324 131" stroke="#5f9edd" fill="none"/><path d="M13 127 C157 44,176 98,334 23" stroke="#4646db" fill="none"/><path d="M12 54 C161 82,178 110,322 3" stroke="#4bdc4b" fill="none"/><path d="M6 130 C170 103,151 88,323 70" stroke="#eb7e99" fill="none"/><path d="M7 121 C162 38,177 62,333 96" stroke="#90e8d2" fill="none"/><path d="M7 107 C178 48,157 6,332 17" stroke="#728dde" fill="none"/><path fill="#7070ea" d="M275.49 92.07L275.49 92.07L275.35 91.93Q269.53 92.25 268.11 88.93L268.17 88.99L268.23 89.05Q269.18 87.55 271.41 84.99L271.50 85.09L271.50 85.09Q272.16 87.92 276.45 88.08L276.46 88.09L276.41 88.03Q281.34 88.24 283.68 86.33L283.68 86.34L283.66 86.31Q285.77 84.13 285.66 80.26L285.61 80.22L285.51 80.11Q285.31 72.90 278.46 73.23L278.51 73.28L278.44 73.21Q274.57 73.58 272.06 75.37L271.93 75.24L271.55 75.08L271.23 74.86L271.27 74.90Q271.63 70.26 271.47 66.35L271.48 66.36L271.50 66.38Q271.29 62.58 270.80 57.85L270.89 57.94L270.88 57.93Q276.16 59.35 281.60 59.19L281.63 59.21L281.48 59.06Q286.94 58.98 292.05 57.18L292.14 57.27L291.37 59.49L291.35 59.48Q290.80 60.44 290.53 61.64L290.66 61.77L290.58 61.69Q286.11 63.15 280.56 63.15L280.55 63.14L280.47 63.06Q278.45 63.11 276.33 62.89L276.29 62.85L276.39 62.94Q276.24 63.88 275.75 70.25L275.85 70.35L275.76 70.26Q277.03 69.68 279.97 69.47L279.86 69.36L279.84 69.33Q285.22 69.71 287.28 72.10L287.33 72.15L287.33 72.15Q289.28 74.32 289.66 79.81L289.67 79.82L289.70 79.85Q290.08 85.83 288.34 88.71L288.35 88.72L288.19 88.56Q285.46 91.44 280.73 91.76L280.68 91.71L280.72 91.75Q279.12 91.67 275.31 91.89ZM284.09 95.29L284.08 95.28L284.12 95.32Q288.93 95.34 291.65 93.77L291.71 93.82L291.59 93.70Q293.01 91.53 293.01 88.54L293.10 88.63L293.01 88.54Q293.03 84.16 291.67 78.29L291.66 78.28L291.73 78.34Q291.14 75.80 289.40 73.78L289.47 73.85L289.51 73.95L289.12 73.45L288.73 73.27L288.60 73.14Q288.22 72.17 287.30 71.19L287.27 71.16L287.29 71.24L287.21 71.15Q285.19 68.92 279.91 68.92L279.87 68.88L279.42 68.80L279.42 68.80Q279.57 68.03 279.84 66.45L279.83 66.44L279.92 66.53Q286.93 66.58 292.70 64.24L292.84 64.38L292.82 64.37Q293.30 62.23 294.65 58.21L294.67 58.22L291.68 59.59L291.63 59.53Q292.23 57.96 292.94 56.33L293.00 56.39L292.90 56.29Q287.50 58.45 281.62 58.55L281.66 58.60L281.62 58.55Q275.69 58.66 270.03 57.08L270.08 57.12L270.12 57.16Q271.06 63.43 271.06 69.74L270.98 69.66L271.01 69.70Q270.95 72.35 270.78 75.07L270.91 75.19L270.90 75.18Q271.19 75.37 272.00 75.80L272.14 75.94L272.13 75.93Q272.62 75.60 273.54 75.11L273.46 75.03L273.49 75.06Q273.46 76.17 273.13 78.34L273.17 78.38L273.10 78.31Q273.64 78.53 274.24 78.86L274.28 78.90L274.24 78.85Q278.32 76.46 280.98 76.46L280.90 76.38L280.89 76.36Q282.76 76.34 284.45 77.26L284.44 77.25L284.60 77.42Q285.04 78.83 285.09 80.19L285.16 80.26L284.97 80.07Q285.15 83.84 283.69 85.42L283.68 85.42L283.78 85.51Q281.73 87.16 278.53 87.49L278.46 87.42L278.63 87.59Q277.16 87.59 276.18 87.49L276.21 87.51L276.20 87.50Q275.09 87.43 274.00 86.94L273.89 86.82L273.77 86.44L273.68 86.67L273.79 86.78Q272.53 85.95 271.77 84.05L271.80 84.08L271.85 84.14Q269.93 86.13 267.54 89.18L267.50 89.13L267.49 89.13Q267.99 90.11 269.18 91.47L269.15 91.44L269.15 91.44Q270.75 94.12 274.77 94.83L274.63 94.68L274.66 94.72Q276.37 95.07 284.04 95.23Z"/><path d="M16 44 C159 106,192 76,322 4" stroke="#98e698" fill="none"/><path d="M2 74 C158 78,151 131,327 40" stroke="#73ec91" fill="none"/><path d="M9 55 C166 84,177 53,339 75" stroke="#dc6060" fill="none"/><path d="M9 57 C170 31,151 118,332 45" stroke="#cbeb6a" fill="none"/><path d="M8 28 C186 90,153 119,336 80" stroke="#dbdb6b" fill="none"/><path d="M14 4 C185 135,189 91,337 99" stroke="#44d8d8" fill="none"/><path d="M6 48 C167 120,153 121,341 114" stroke="#b2ed77" fill="none"/><path d="M20 77 C178 132,188 73,337 103" stroke="#e8819b" fill="none"/><path d="M9 116 C169 83,151 112,337 27" stroke="#3fd9b2" fill="none"/><path d="M6 45 C158 55,171 62,340 58" stroke="#58c4e9" fill="none"/><path d="M9 19 C158 50,186 65,326 45" stroke="#9fef84" fill="none"/><path d="M10 105 C166 2,161 51,334 21" stroke="#bfe698" fill="none"/><path d="M14 41 C180 4,155 129,332 83" stroke="#9a7feb" fill="none"/><path d="M20 108 C156 31,186 20,330 6" stroke="#de4848" fill="none"/><path d="M15 2 C155 41,174 93,324 131" stroke="#e5c975" fill="none"/><path d="M16 72 C170 3,179 111,322 42" stroke="#78c4dd" fill="none"/><path fill="#b579f0" d="M160.32 81.45L160.33 81.45L160.14 81.27Q164.60 80.78 169.17 80.94L169.28 81.05L169.28 81.06Q169.10 77.28 169.10 73.86L169.13 73.89L169.08 73.84Q169.06 70.29 169.34 66.64L169.50 66.81L169.45 66.75Q167.70 69.20 160.25 81.38ZM174.31 91.80L174.40 91.89L174.40 91.88Q171.96 91.40 169.40 91.29L169.42 91.31L169.48 91.37Q169.07 87.86 168.91 84.33L169.03 84.45L169.08 84.50Q161.37 84.13 154.62 86.14L154.66 86.18L154.57 86.09Q154.80 85.44 155.07 84.03L155.12 84.08L155.16 84.12Q157.55 79.44 162.66 70.46L162.79 70.60L162.68 70.49Q166.77 63.48 171.67 57.94L171.86 58.13L171.82 58.09Q173.05 57.80 175.44 57.42L175.40 57.37L175.34 57.31Q172.72 66.60 172.72 76.66L172.70 76.64L172.72 76.67Q172.78 78.84 172.89 80.96L172.86 80.94L174.61 81.00L174.64 81.03Q175.50 81.07 176.37 81.24L176.46 81.33L176.45 81.32Q176.47 82.59 176.85 85.37L176.93 85.44L176.99 85.50Q175.17 85.05 173.05 84.77L173.17 84.89L172.99 84.71Q173.33 87.61 174.31 91.80ZM176.76 80.70L176.76 80.71L176.67 80.62Q176.56 80.66 176.29 80.66L176.27 80.65L175.77 80.69L175.58 80.51Q175.57 78.53 175.57 76.52L175.47 76.42L175.47 76.42Q175.60 67.41 178.54 58.82L178.41 58.70L178.38 58.67Q177.45 59.20 175.38 59.74L175.38 59.74L175.31 59.68Q175.60 58.55 176.25 56.54L176.24 56.53L176.18 56.47Q174.44 57.12 171.50 57.44L171.59 57.53L171.50 57.44Q165.84 63.58 158.39 76.96L158.40 76.98L161.46 71.82L161.51 71.87Q160.87 73.30 160.49 74.11L160.50 74.12L154.08 86.95L154.19 87.07Q155.01 86.75 156.64 86.20L156.61 86.17L156.45 86.55L156.51 86.62Q156.27 87.51 155.83 89.30L155.85 89.32L155.82 89.29Q161.69 87.39 168.60 87.66L168.66 87.72L168.63 87.69Q168.57 88.94 168.84 91.76L168.91 91.83L169.00 91.92Q170.40 91.80 171.93 91.97L172.02 92.06L171.93 91.97Q172.20 93.01 172.58 94.96L172.62 95.00L172.50 94.88Q175.33 95.32 179.63 96.62L179.57 96.57L179.58 96.58Q178.14 93.50 176.83 88.83L176.94 88.93L178.85 89.43L179.03 89.61Q179.92 89.85 180.90 90.34L180.89 90.32L180.87 90.30Q179.82 86.81 179.60 84.41L179.57 84.38L179.50 84.32Q178.73 84.14 177.10 83.81L177.11 83.83L177.02 83.74Q176.85 82.04 176.85 80.79ZM165.41 80.56L165.33 80.47L165.42 80.56Q166.35 78.56 168.58 74.92L168.75 75.08L168.70 75.04Q168.76 76.46 168.71 77.82L168.57 77.68L168.70 77.80Q168.66 79.19 168.72 80.55L168.71 80.54L168.69 80.52Q167.87 80.46 167.05 80.46L166.98 80.39L167.02 80.42Q166.23 80.51 165.36 80.51Z"/><path d="M17 8 C168 56,153 15,333 78" stroke="#bedc65" fill="none"/><path fill="#dede6c" d="M233.88 88.50L233.86 88.48L233.89 88.51Q234.22 89.82 234.98 92.70L235.08 92.80L235.07 92.78Q229.06 90.92 222.48 91.30L222.39 91.21L222.35 91.16Q215.92 91.64 210.21 94.47L210.12 94.38L210.17 94.43Q210.43 93.38 210.48 93.49L210.57 93.58L210.62 93.63Q215.84 87.86 221.44 81.55L221.51 81.63L221.48 81.59Q227.73 74.41 229.42 67.72L229.53 67.83L229.48 67.78Q230.13 65.28 228.31 63.59L228.36 63.64L228.27 63.56Q226.52 61.94 223.96 62.16L223.90 62.09L223.95 62.14Q223.50 62.12 223.01 62.12L222.96 62.08L222.97 62.09Q220.85 62.15 219.06 63.45L219.03 63.43L218.97 63.36Q217.18 65.38 217.51 69.19L217.38 69.07L217.52 69.21Q214.81 68.56 213.07 67.90L213.15 67.99L213.08 67.92Q212.92 66.01 212.81 63.95L212.82 63.96L212.79 63.92Q212.66 61.56 213.53 59.93L213.60 60.01L213.56 59.97Q216.13 58.02 220.92 58.02L220.81 57.92L223.31 57.91L223.44 58.04Q226.72 58.11 228.08 58.27L227.92 58.12L227.92 58.11Q234.11 58.71 234.49 62.19L234.67 62.37L234.50 62.19Q234.73 63.13 234.62 64.27L234.60 64.26L234.66 64.31Q234.57 65.21 234.35 66.18L234.26 66.10L234.38 66.21Q232.03 77.78 221.21 87.57L221.05 87.41L221.24 87.61Q223.09 87.23 225.05 87.23L225.20 87.38L225.17 87.35Q229.74 87.30 233.82 88.44ZM233.09 58.78L233.08 58.77L232.93 58.62Q230.78 57.82 228.33 57.71L228.31 57.70L223.46 57.47L223.32 57.32Q216.92 56.91 213.76 58.48L213.92 58.64L213.90 58.62Q212.33 60.53 212.33 63.46L212.25 63.38L212.32 63.46Q212.48 64.59 212.91 68.62L212.75 68.46L212.83 68.54Q213.51 68.78 215.20 69.22L215.22 69.24L215.20 70.69L215.23 70.71Q215.30 71.49 215.41 72.25L215.29 72.14L215.28 72.13Q217.04 72.26 220.58 72.58L220.57 72.58L220.57 72.58Q220.64 72.16 220.64 71.67L220.67 71.70L220.66 71.69Q220.68 69.10 222.42 67.17L222.41 67.16L222.44 67.19Q224.05 65.12 226.60 65.29L226.72 65.41L226.65 65.34Q227.70 65.35 228.79 65.57L228.73 65.51L228.74 65.52Q229.00 66.16 229.10 66.75L229.17 66.82L229.10 66.75Q229.24 67.43 229.13 67.92L229.12 67.92L229.06 67.86Q227.23 74.62 220.93 81.53L220.92 81.52L220.93 81.53Q217.82 84.68 210.05 93.33L210.04 93.32L210.12 93.40Q209.77 94.52 209.28 95.33L209.44 95.49L209.43 95.48Q211.58 94.10 213.76 93.34L213.89 93.48L213.83 93.41Q212.80 94.23 211.44 96.35L211.44 96.35L211.37 96.28Q211.32 96.89 211.16 97.38L211.01 97.23L211.02 97.24Q218.06 94.38 225.89 94.65L225.85 94.61L225.80 94.56Q234.02 94.90 240.55 98.27L240.51 98.23L239.01 95.10L239.03 95.12Q238.22 93.33 237.84 92.19L237.86 92.21L237.78 92.13Q236.79 91.57 235.05 90.97L234.99 90.92L235.05 90.97Q234.85 89.96 234.31 88.00L234.30 87.99L234.20 87.90Q231.09 87.12 227.83 86.85L227.78 86.81L227.79 86.82Q234.56 80.36 236.73 68.56L236.76 68.59L236.99 64.41L236.95 64.38Q236.94 61.92 235.20 60.94L235.16 60.90L234.98 60.78L235.03 60.83Q235.00 60.74 234.89 60.74L234.83 60.68L234.95 60.79Q234.52 59.50 232.94 58.63Z"/></svg>