<svg xmlns="http://www.w3.org/2000/svg" width="342" height="140" viewBox="0,0,342,140"><path d="M20 17 C157 108,174 134,328 124" stroke="#c2e35d" fill="none"/><path d="M19 27 C185 123,154 23,338 73" stroke="#d9d953" fill="none"/><path d="M8 80 C153 119,163 50,336 131" stroke="#6183ea" fill="none"/><path d="M9 32 C185 23,191 108,324 112" stroke="#de67de" fill="none"/><path d="M12 69 C181 22,169 73,322 107" stroke="#a35fe7" fill="none"/><path d="M7 41 C183 99,180 121,323 85" stroke="#40e7e7" fill="none"/><path d="M4 17 C181 52,185 37,327 91" stroke="#c1e457" fill="none"/><path d="M6 108 C181 134,156 64,330 134" stroke="#6bd548" fill="none"/><path d="M3 9 C160 83,151 88,333 42" stroke="#e3446c" fill="none"/><path d="M13 42 C154 127,179 94,332 19" stroke="#60a0e0" fill="none"/><path d="M17 42 C157 123,179 52,329 88" stroke="#cb80e4" fill="none"/><path d="M12 8 C178 104,177 24,326 63" stroke="#bf62de" fill="none"/><path d="M9 131 C181 105,156 75,330 80" stroke="#e5e57f" fill="none"/><path d="M18 7 C188 51,181 25,327 119" stroke="#ed6889" fill="none"/><path d="M18 47 C188 79,185 129,331 132" stroke="#e9e97b" fill="none"/><path d="M16 116 C153 39,178 61,325 109" stroke="#5beac7" fill="none"/><path d="M17 57 C183 28,172 125,338 13" stroke="#bced8c" fill="none"/><path d="M17 74 C187 89,171 42,331 135" stroke="#dcdc41" fill="none"/><path d="M2 70 C190 31,187 59,335 129" stroke="#6ae0c3" fill="none"/><path d="M16 17 C154 57,190 94,332 43" stroke="#d557b5" fill="none"/><path fill="#7fefb7" d="M262.93 94.95L262.94 94.96L262.93 94.95Q256.31 95.33 254.70 91.55L254.77 91.62L254.83 91.68Q255.93 90.00 258.47 87.09L258.56 87.18L258.51 87.13Q259.33 90.43 264.22 90.61L264.13 90.53L264.16 90.55Q269.76 90.78 272.42 88.61L272.29 88.48L272.32 88.50Q274.62 85.92 274.50 81.53L274.52 81.55L274.57 81.61Q274.30 73.36 266.51 73.73L266.59 73.81L266.40 73.61Q261.82 73.86 258.97 75.90L259.01 75.94L258.55 75.73L258.23 75.53L258.26 75.56Q258.67 70.28 258.49 65.83L258.54 65.88L258.60 65.94Q258.47 61.72 257.91 56.34L257.88 56.31L257.91 56.34Q263.79 57.83 269.98 57.65L270.05 57.72L269.98 57.65Q276.12 57.48 281.94 55.44L282.00 55.51L281.05 57.95L281.04 57.95Q280.55 59.18 280.24 60.55L280.15 60.45L280.31 60.62Q275.14 62.19 268.83 62.19L268.93 62.29L268.85 62.21Q266.42 62.13 264.01 61.89L264.14 62.01L264.18 62.06Q263.93 63.04 263.37 70.28L263.50 70.41L263.33 70.24Q264.79 69.59 268.13 69.35L268.05 69.27L268.07 69.29Q274.21 69.74 276.56 72.46L276.58 72.48L276.44 72.33Q278.77 74.92 279.21 81.17L279.20 81.16L279.21 81.17Q279.59 87.92 277.61 91.20L277.61 91.20L277.57 91.15Q274.26 94.22 268.88 94.60L268.95 94.67L269.04 94.76Q267.37 94.82 263.04 95.07ZM272.81 98.71L272.83 98.73L272.81 98.71Q278.40 98.86 281.49 97.06L281.38 96.95L281.41 96.98Q283.04 94.52 283.04 91.12L283.17 91.25L283.16 91.24Q283.07 86.14 281.52 79.46L281.49 79.43L281.57 79.51Q280.94 76.65 278.96 74.36L279.01 74.41L278.95 74.42L278.56 73.90L278.01 73.59L278.00 73.58Q277.49 72.40 276.44 71.28L276.44 71.28L276.58 71.49L276.57 71.48Q274.01 68.67 268.01 68.67L268.04 68.70L267.54 68.63L267.61 68.70Q267.73 67.77 268.04 65.98L268.11 66.05L268.01 65.95Q276.09 66.11 282.64 63.45L282.69 63.49L282.75 63.55Q283.32 61.15 284.87 56.58L284.96 56.67L281.49 58.15L281.44 58.10Q282.23 56.42 283.04 54.56L283.02 54.54L283.04 54.56Q276.73 56.86 270.05 56.98L270.04 56.97L270.01 56.93Q263.33 57.12 256.90 55.33L256.90 55.34L256.86 55.30Q258.04 62.54 258.04 69.72L258.00 69.67L258.06 69.73Q257.96 72.73 257.78 75.82L257.81 75.85L257.80 75.84Q258.25 76.17 259.18 76.67L259.16 76.65L259.18 76.67Q259.70 76.26 260.75 75.70L260.88 75.83L260.90 75.85Q260.72 76.97 260.34 79.44L260.37 79.47L260.35 79.44Q261.11 79.83 261.79 80.21L261.75 80.16L261.65 80.06Q266.31 77.36 269.34 77.36L269.18 77.21L269.31 77.34Q271.40 77.26 273.32 78.31L273.35 78.34L273.39 78.38Q273.92 80.02 273.98 81.57L273.99 81.58L273.95 81.53Q274.03 85.70 272.36 87.50L272.35 87.49L272.34 87.47Q270.13 89.47 266.48 89.85L266.52 89.88L266.60 89.96Q265.05 90.08 263.94 89.96L263.93 89.95L263.91 89.94Q262.58 89.78 261.34 89.22L261.37 89.25L261.24 88.81L260.98 88.92L261.08 89.02Q259.81 88.25 258.95 86.08L258.86 86.00L258.86 86.00Q256.63 88.22 253.91 91.68L253.92 91.70L254.04 91.82Q254.47 92.81 255.83 94.35L255.79 94.31L255.93 94.45Q257.49 97.25 262.07 98.05L262.20 98.19L262.07 98.05Q264.16 98.59 272.88 98.78Z"/><path d="M7 62 C169 55,173 2,331 4" stroke="#50e199" fill="none"/><path d="M6 139 C180 47,150 69,322 129" stroke="#e98080" fill="none"/><path fill="#8ce038" d="M124.88 82.91L124.96 82.99L124.91 82.94Q129.95 82.35 135.14 82.54L135.07 82.47L135.02 82.42Q135.05 78.37 135.05 74.47L135.00 74.41L134.95 74.37Q135.06 70.45 135.37 66.31L135.40 66.33L135.28 66.22Q133.42 69.12 124.95 82.98ZM140.92 94.81L140.96 94.85L140.92 94.81Q138.27 94.39 135.36 94.26L135.35 94.25L135.44 94.34Q135.01 90.38 134.82 86.36L134.86 86.39L134.94 86.47Q126.24 86.13 118.57 88.42L118.53 88.38L118.44 88.29Q118.72 87.58 119.03 85.97L119.00 85.94L118.94 85.88Q121.96 80.86 127.78 70.66L127.80 70.68L127.83 70.71Q132.48 62.74 138.05 56.43L138.05 56.43L138.06 56.43Q139.45 56.10 142.17 55.67L142.24 55.73L142.25 55.74Q139.01 66.05 139.01 77.50L139.10 77.59L139.13 77.62Q139.10 80.00 139.22 82.41L139.13 82.32L141.37 82.64L141.21 82.48Q142.19 82.53 143.18 82.71L143.30 82.84L143.23 82.76Q143.50 84.46 143.93 87.61L143.79 87.47L143.86 87.54Q141.88 87.11 139.47 86.80L139.56 86.89L139.49 86.83Q139.79 90.03 140.90 94.79ZM143.66 82.14L143.69 82.18L143.77 82.26Q143.36 82.03 143.05 82.03L143.06 82.04L142.42 82.02L142.42 82.02Q142.19 79.56 142.19 77.27L142.25 77.34L142.32 77.40Q142.28 66.97 145.62 57.19L145.69 57.26L145.52 57.10Q144.44 57.68 142.09 58.30L142.06 58.27L142.00 58.21Q142.30 56.91 143.05 54.62L143.15 54.72L143.18 54.75Q141.02 55.32 137.68 55.69L137.70 55.70L137.69 55.70Q131.32 62.76 122.85 77.97L122.82 77.94L126.25 72.03L126.31 72.09Q125.61 73.75 125.18 74.67L125.08 74.58L117.95 89.34L117.87 89.27Q119.01 89.10 120.86 88.48L120.76 88.38L120.51 88.75L120.48 88.73Q120.37 89.91 119.88 91.96L119.80 91.88L119.87 91.94Q126.63 89.86 134.48 90.17L134.52 90.21L134.51 90.20Q134.55 91.72 134.86 94.94L134.79 94.86L134.72 94.80Q136.44 94.78 138.17 94.96L138.24 95.04L138.23 95.03Q138.58 96.24 139.01 98.47L139.01 98.47L138.89 98.34Q141.96 98.69 146.85 100.18L146.82 100.15L146.86 100.19Q145.33 96.80 143.84 91.48L143.82 91.46L146.13 92.16L146.15 92.18Q147.30 92.59 148.42 93.15L148.45 93.19L148.40 93.14Q147.10 89.05 146.85 86.33L146.93 86.40L146.93 86.41Q145.96 86.12 144.10 85.74L144.06 85.70L144.00 85.64Q143.66 83.56 143.66 82.14ZM130.72 81.95L130.67 81.90L130.79 82.02Q132.00 79.89 134.54 75.75L134.48 75.68L134.50 75.71Q134.58 77.33 134.52 78.88L134.48 78.84L134.37 78.73Q134.36 80.33 134.42 81.88L134.41 81.87L134.43 81.88Q133.65 81.97 132.72 81.97L132.68 81.93L132.57 81.82Q131.69 81.93 130.70 81.93Z"/><path d="M5 99 C191 59,183 30,330 69" stroke="#79f079" fill="none"/><path d="M2 5 C168 69,154 44,328 108" stroke="#e45757" fill="none"/><path d="M18 134 C173 51,155 118,329 29" stroke="#6bbfdb" fill="none"/><path d="M3 90 C171 113,189 117,331 97" stroke="#bf5be0" fill="none"/><path d="M8 126 C152 125,153 52,335 64" stroke="#e269c4" fill="none"/><path fill="#4a4ad3" d="M57.93 94.94L57.89 94.91L57.92 94.93Q55.55 94.98 53.01 94.30L53.01 94.29L53.14 94.42Q51.08 92.86 50.84 90.20L50.95 90.31L50.95 90.32Q50.89 90.00 51.19 85.73L51.06 85.60L51.18 85.72Q52.81 85.37 56.09 84.75L56.07 84.73L55.68 85.89L55.70 85.91Q55.27 88.76 57.56 89.69L57.58 89.71L57.64 89.76Q58.81 90.19 62.21 90.19L62.22 90.20L62.37 90.35Q64.93 90.07 65.24 89.94L65.26 89.96L65.16 89.87Q66.62 89.59 67.79 88.79L67.89 88.88L67.93 88.92Q70.18 87.34 69.88 83.94L69.92 83.98L69.84 83.90Q69.59 80.01 66.78 77.47L66.70 77.40L66.77 77.47Q63.99 74.96 59.96 74.96L59.83 74.82L59.83 74.45L59.82 74.44Q60.55 74.49 61.97 74.36L61.84 74.24L61.94 74.33Q65.12 74.24 67.35 72.23L67.19 72.07L67.30 72.18Q69.43 70.07 69.67 67.04L69.73 67.09L69.79 67.15Q69.81 66.49 69.81 65.93L69.89 66.01L69.78 65.90Q69.88 63.53 67.66 62.05L67.64 62.03L67.70 62.09Q65.58 60.65 62.98 60.84L62.95 60.81L63.14 60.99Q60.94 60.65 58.96 61.33L58.93 61.30L58.94 61.32Q56.56 62.15 56.06 64.00L56.06 64.00L56.03 63.97Q55.81 65.30 55.94 66.54L55.99 66.59L55.88 66.48Q54.28 66.18 50.94 65.01L51.03 65.09L50.98 65.04Q50.54 62.25 50.60 60.89L50.68 60.97L50.53 60.82Q50.90 58.53 52.63 57.41L52.46 57.24L52.43 57.22Q54.84 56.34 57.44 56.34L57.50 56.41L57.40 56.30Q62.46 56.17 67.59 56.60L67.70 56.71L67.61 56.62Q75.94 57.41 75.45 63.53L75.36 63.44L75.49 63.57Q75.36 65.98 74.56 68.52L74.53 68.49L74.52 68.48Q73.02 73.48 69.19 74.96L69.08 74.85L69.25 75.02Q73.37 75.74 74.36 81.18L74.35 81.18L74.52 81.35Q74.80 83.11 74.93 86.39L74.99 86.46L74.86 86.32Q75.27 93.72 67.78 94.47L67.60 94.28L67.60 94.28Q66.61 94.59 58.01 95.02ZM66.42 98.61L66.45 98.64L66.30 98.49Q67.46 98.72 72.10 98.85L71.99 98.73L72.12 98.86Q74.77 98.80 77.43 97.74L77.52 97.83L77.60 97.91Q79.49 96.33 79.18 93.49L79.19 93.50L79.05 93.36Q79.02 91.35 78.52 88.50L78.53 88.51L78.50 88.48Q77.18 81.04 74.03 78.38L74.14 78.49L73.78 77.83L73.77 77.75L73.69 77.67Q76.68 75.46 77.92 68.35L77.79 68.22L77.92 68.35Q77.88 67.50 78.06 65.96L78.18 66.08L78.08 65.97Q78.17 64.70 78.04 63.59L78.03 63.57L78.07 63.61Q77.79 60.86 75.69 59.75L75.69 59.75L75.53 59.71L75.57 59.76Q75.16 58.23 73.31 57.37L73.17 57.23L73.24 57.30Q70.85 56.27 62.50 55.78L62.40 55.67L62.43 55.70Q59.70 55.58 57.11 55.58L57.16 55.63L57.18 55.66Q54.42 55.49 51.95 56.54L52.05 56.65L51.98 56.58Q50.14 57.95 50.14 60.80L50.10 60.76L50.15 60.81Q50.07 60.06 50.51 65.50L50.58 65.57L50.49 65.48Q50.95 65.57 53.61 66.56L53.68 66.63L53.73 66.67Q53.66 67.47 53.60 68.28L53.64 68.32L53.55 68.23Q53.49 68.98 53.55 69.84L53.69 69.98L53.64 69.93Q56.51 70.51 59.79 70.70L59.82 70.73L59.77 70.68Q59.81 67.56 61.60 66.20L61.60 66.20L61.42 66.01Q62.89 65.07 66.17 64.70L66.16 64.69L66.21 64.74Q67.92 64.60 68.84 64.91L68.97 65.03L68.94 65.00Q68.98 65.17 69.04 65.35L68.99 65.30L69.11 65.72L69.24 66.60L69.32 66.68Q69.29 66.96 69.23 67.21L69.13 67.11L69.09 67.07Q69.06 69.94 66.58 71.86L66.55 71.83L66.57 71.85Q65.06 73.31 61.78 73.62L61.91 73.75L61.77 73.60Q60.70 73.96 59.28 73.96L59.12 73.81L59.12 73.80Q59.20 74.38 59.45 75.50L59.62 75.66L59.61 75.65Q62.31 75.51 64.66 76.68L64.66 76.69L64.59 76.80L62.08 77.14L61.95 77.00Q62.03 77.58 62.21 78.57L62.16 78.51L62.22 78.57Q65.74 78.50 68.52 80.67L68.58 80.72L68.46 80.60Q68.78 81.17 69.27 83.83L69.44 83.99L69.35 83.91Q69.63 88.64 64.86 89.32L64.92 89.38L64.92 89.38Q61.56 89.85 60.63 89.79L60.63 89.79L60.57 89.72Q59.89 89.60 59.02 89.48L59.07 89.52L58.91 88.63L59.12 87.91L59.27 87.38L59.18 86.73L59.21 86.76Q57.74 86.96 56.44 87.27L56.37 87.20L56.50 87.33Q56.45 86.96 56.45 86.66L56.28 86.48L56.35 86.56Q56.52 86.36 56.52 85.99L56.47 85.94L56.49 85.96Q56.50 85.22 56.75 84.05L56.81 84.11L56.81 84.12Q53.61 84.31 50.58 84.87L50.62 84.92L50.75 85.04Q50.68 85.78 50.49 87.60L50.48 87.58L50.48 87.58Q50.27 89.39 50.27 90.38L50.36 90.47L50.31 90.41Q50.44 93.76 52.67 95.00L52.60 94.93L52.65 94.98Q54.99 98.62 62.66 98.31L62.66 98.31L62.72 98.38Q63.92 98.34 66.40 98.59Z"/><path d="M18 134 C159 62,180 7,331 18" stroke="#61a5ea" fill="none"/><path d="M9 130 C169 21,180 30,334 6" stroke="#e9967b" fill="none"/><path d="M4 52 C155 52,155 9,328 139" stroke="#b9e439" fill="none"/><path d="M14 79 C167 29,176 117,339 3" stroke="#bce890" fill="none"/><path d="M21 36 C159 3,182 101,339 113" stroke="#ec73ec" fill="none"/><path d="M4 77 C178 71,153 77,330 111" stroke="#7f61db" fill="none"/><path d="M11 6 C165 96,156 32,339 120" stroke="#99e74a" fill="none"/><path d="M3 133 C155 5,181 54,334 40" stroke="#cde38b" fill="none"/><path d="M4 21 C157 82,162 58,338 123" stroke="#83db66" fill="none"/><path d="M3 2 C180 71,165 114,332 135" stroke="#7690df" fill="none"/><path d="M12 44 C158 87,182 31,337 12" stroke="#60a3e6" fill="none"/><path d="M14 19 C187 129,187 39,328 66" stroke="#b753d9" fill="none"/><path fill="#60e660" d="M195.02 89.39L194.91 89.28L194.92 89.28Q196.84 90.84 199.13 90.59L199.16 90.61L199.22 90.67Q203.86 90.86 204.91 85.42L204.95 85.45L204.89 85.40Q205.91 80.29 205.91 74.79L205.91 74.78L206.02 70.69L205.91 70.58Q205.94 68.57 205.38 66.53L205.34 66.48L205.40 66.54Q203.44 70.33 200.22 78.07L200.20 78.05L200.25 78.09Q196.99 85.79 195.01 89.38ZM203.11 62.52L203.24 62.65L203.07 62.48Q201.28 61.25 199.12 61.25L199.16 61.29L199.12 61.25Q196.81 61.11 195.02 62.59L194.88 62.46L194.97 62.54Q193.06 63.92 192.75 66.33L192.87 66.45L192.78 66.36Q192.24 68.60 192.18 71.01L192.31 71.15L192.21 71.04Q192.27 71.11 192.27 75.75L192.22 75.69L192.16 75.64Q192.23 79.54 192.97 85.42L192.88 85.32L193.04 85.48Q196.10 77.72 203.22 62.63ZM205.65 93.09L205.68 93.11L205.74 93.18Q202.76 94.53 198.99 94.53L199.15 94.69L196.37 94.57L196.49 94.68Q191.13 94.58 189.27 91.80L189.39 91.92L189.40 91.93Q187.92 88.22 187.79 83.46L187.82 83.49L187.80 83.46Q187.73 80.61 187.60 74.98L187.69 75.06L187.74 75.12Q187.60 73.06 187.35 68.11L187.30 68.05L187.32 68.08Q187.24 64.41 187.74 61.19L187.72 61.17L187.80 61.25Q188.65 56.54 195.70 56.17L195.53 55.99L195.57 56.03Q196.77 55.93 198.94 56.00L199.01 56.07L199.02 56.08Q208.30 56.40 210.04 62.02L210.04 62.02L209.92 61.90Q210.90 64.99 210.84 68.02L210.99 68.17L210.93 68.11Q210.78 76.19 210.66 78.17L210.68 78.20L210.66 78.17Q210.26 84.27 209.76 86.37L209.82 86.42L209.83 86.44Q208.82 91.55 205.72 93.16ZM213.80 92.82L213.68 92.70L213.65 92.67Q214.18 88.32 214.12 85.41L214.13 85.42L214.00 77.93L214.02 77.95Q213.74 72.91 212.88 63.94L212.87 63.93L212.90 63.96Q212.02 60.98 209.92 59.74L209.88 59.70L209.91 59.74Q207.38 55.59 198.96 55.35L198.94 55.32L198.99 55.37Q197.63 55.37 195.47 55.44L195.50 55.47L195.51 55.48Q188.07 55.52 187.26 60.59L187.21 60.54L187.19 60.52Q186.68 64.41 186.87 67.81L186.92 67.86L186.85 67.79Q187.41 74.91 187.35 80.35L187.30 80.30L187.24 80.24Q187.30 86.36 187.48 88.03L187.46 88.01L187.45 88.01Q188.13 93.07 190.60 94.37L190.52 94.29L190.47 94.24Q192.96 97.90 199.46 98.34L199.37 98.25L199.50 98.38Q205.35 98.79 206.40 98.73L206.24 98.56L206.37 98.69Q210.87 98.31 212.73 95.71L212.82 95.80L212.84 95.82Q213.59 94.66 213.72 92.74ZM199.84 90.06L199.80 90.01L199.77 89.99Q200.88 87.64 202.62 83.25L202.63 83.27L205.44 76.42L205.41 76.39Q205.29 78.99 204.67 84.43L204.67 84.43L204.67 84.43Q203.75 89.26 199.85 90.07ZM196.60 70.06L196.49 69.94L196.51 69.97Q197.25 67.06 198.37 66.13L198.49 66.25L198.47 66.24Q199.12 65.47 201.23 65.16L201.21 65.14L201.20 65.13Q198.50 71.15 195.47 78.70L195.52 78.75L195.46 78.69Q195.39 74.23 196.51 69.96Z"/><path d="M21 99 C187 78,174 26,340 101" stroke="#e4e470" fill="none"/></svg>