<svg xmlns="http://www.w3.org/2000/svg" width="342" height="140" viewBox="0,0,342,140"><path fill="#8ce3e3" d="M100.93 84.54L100.87 84.47L100.79 84.39Q106.56 83.86 112.39 84.06L112.33 84.01L112.31 83.98Q112.31 79.41 112.31 75.04L112.30 75.04L112.22 74.96Q112.17 70.39 112.51 65.75L112.60 65.83L112.56 65.79Q110.41 68.98 100.91 84.52ZM118.86 97.82L118.95 97.91L118.85 97.81Q115.87 97.33 112.61 97.19L112.67 97.25L112.57 97.14Q112.35 92.97 112.14 88.47L112.14 88.47L112.05 88.38Q102.25 87.94 93.65 90.50L93.74 90.59L93.66 90.51Q93.98 89.72 94.33 87.92L94.38 87.97L94.21 87.80Q97.48 82.06 104.00 70.62L104.00 70.62L103.98 70.60Q109.39 61.86 115.63 54.79L115.53 54.69L115.68 54.84Q117.27 54.49 120.32 54.00L120.15 53.83L120.26 53.94Q116.84 65.71 116.84 78.54L116.71 78.41L116.80 78.50Q116.81 81.21 116.95 83.91L116.92 83.88L119.34 84.16L119.20 84.01Q120.32 84.09 121.43 84.30L121.39 84.26L121.41 84.28Q121.64 86.11 122.13 89.65L122.13 89.65L122.22 89.74Q119.87 89.12 117.16 88.77L117.24 88.85L117.33 88.94Q117.74 92.61 118.99 97.95ZM122.02 83.72L121.88 83.57L121.94 83.63Q121.69 83.60 121.35 83.60L121.32 83.57L120.54 83.48L120.68 83.62Q120.32 80.77 120.32 78.21L120.31 78.19L120.44 78.32Q120.34 66.57 124.08 55.61L124.03 55.56L124.05 55.59Q122.63 56.04 120.00 56.73L120.09 56.82L120.07 56.80Q120.59 55.52 121.43 52.96L121.41 52.94L121.40 52.93Q119.04 53.63 115.30 54.04L115.33 54.07L115.14 53.89Q108.13 61.92 98.63 78.97L98.62 78.97L102.38 72.26L102.32 72.20Q101.67 74.18 101.18 75.22L101.08 75.11L93.15 91.73L93.12 91.71Q94.28 91.41 96.36 90.72L96.28 90.63L96.10 91.14L96.12 91.16Q95.75 92.26 95.20 94.55L95.29 94.64L95.24 94.58Q102.78 92.21 111.58 92.55L111.58 92.55L111.58 92.55Q111.65 94.28 111.99 97.89L111.94 97.83L111.98 97.88Q113.98 97.94 115.92 98.14L115.78 98.00L115.77 97.99Q116.23 99.41 116.71 101.91L116.64 101.84L116.53 101.73Q120.14 102.29 125.62 103.95L125.62 103.96L125.50 103.84Q123.69 99.95 122.03 93.98L122.14 94.09L124.72 94.88L124.80 94.95Q126.02 95.34 127.27 95.96L127.16 95.85L127.20 95.90Q125.81 91.39 125.54 88.34L125.41 88.22L125.50 88.30Q124.43 88.00 122.35 87.58L122.44 87.67L122.38 87.61Q121.89 85.18 121.89 83.59ZM107.32 83.29L107.38 83.36L107.45 83.43Q108.71 80.94 111.55 76.29L111.55 76.30L111.61 76.36Q111.72 78.19 111.65 79.93L111.63 79.91L111.56 79.84Q111.61 81.70 111.68 83.43L111.59 83.34L111.57 83.32Q110.59 83.31 109.55 83.31L109.55 83.31L109.61 83.37Q108.42 83.29 107.31 83.29Z"/><path d="M9 8 C154 19,186 113,327 128" stroke="#cae47a" fill="none"/><path fill="#89ee67" d="M165.82 67.11L165.82 67.10L165.83 67.11Q160.05 67.15 156.72 65.21L156.58 65.07L156.69 65.18Q161.28 62.70 170.16 55.01L170.14 54.99L170.05 54.90Q171.34 54.53 173.70 53.42L173.83 53.55L173.84 53.56Q171.37 64.33 171.16 75.91L171.21 75.96L171.24 75.99Q170.88 87.42 172.83 98.52L172.90 98.59L172.82 98.51Q169.86 97.29 165.98 97.08L165.89 96.98L165.98 97.08Q165.79 89.54 165.79 82.12L165.71 82.04L165.69 82.02Q165.64 74.48 165.71 66.99ZM165.20 71.27L165.02 97.64L165.10 97.73Q167.43 97.83 169.16 98.18L169.10 98.12L168.99 98.01Q169.16 99.29 169.51 101.78L169.47 101.74L169.55 101.83Q174.79 102.84 179.23 106.93L179.16 106.86L179.20 106.90Q174.75 93.99 174.68 80.40L174.68 80.40L174.56 80.28Q174.45 66.72 177.78 53.55L177.84 53.60L177.78 53.54Q176.79 54.29 173.88 56.30L173.96 56.38L174.01 56.44Q174.26 54.95 174.82 52.18L174.90 52.26L174.88 52.24Q172.46 53.64 169.83 54.33L169.79 54.29L169.75 54.26Q162.89 60.78 155.06 64.94L155.09 64.97L155.03 64.91Q157.53 66.86 161.83 67.48L161.97 67.62L161.86 67.52Q160.80 68.60 158.45 70.55L158.36 70.46L158.42 70.52Q161.12 71.20 165.14 71.20L165.05 71.12Z"/><path d="M9 2 C176 56,168 119,323 73" stroke="#efba85" fill="none"/><path d="M17 69 C190 3,183 31,322 104" stroke="#7eeb7e" fill="none"/><path d="M15 68 C160 11,154 35,340 12" stroke="#e95c5c" fill="none"/><path d="M19 50 C182 36,173 15,334 83" stroke="#9de485" fill="none"/><path d="M9 100 C183 58,177 134,332 125" stroke="#ec9d82" fill="none"/><path d="M15 131 C189 124,173 64,329 124" stroke="#e4c975" fill="none"/><path d="M19 136 C173 74,165 11,330 53" stroke="#e8869e" fill="none"/><path d="M4 91 C184 11,171 53,327 72" stroke="#7d59e7" fill="none"/><path d="M7 20 C162 64,179 18,334 123" stroke="#eaaf75" fill="none"/><path fill="#88e6a0" d="M273.23 98.03L273.21 98.01L273.22 98.02Q265.86 98.50 264.06 94.27L264.05 94.27L264.07 94.28Q265.31 92.40 268.15 89.14L268.25 89.24L268.13 89.12Q269.06 92.82 274.54 93.03L274.55 93.04L274.67 93.16Q280.73 93.19 283.71 90.76L283.81 90.87L283.69 90.74Q286.41 87.99 286.28 83.07L286.25 83.04L286.23 83.03Q285.90 73.75 277.16 74.16L277.07 74.06L277.19 74.19Q271.97 74.38 268.78 76.67L268.76 76.64L268.24 76.40L267.80 76.10L267.91 76.21Q268.51 70.43 268.30 65.44L268.31 65.45L268.27 65.40Q268.17 60.73 267.55 54.70L267.49 54.64L267.44 54.60Q274.13 56.35 281.06 56.15L281.08 56.17L281.05 56.13Q288.03 56.04 294.54 53.75L294.59 53.80L293.40 56.42L293.51 56.53Q292.90 57.86 292.55 59.38L292.46 59.29L292.55 59.38Q286.87 61.27 279.80 61.27L279.76 61.23L279.77 61.23Q277.16 61.26 274.45 60.98L274.40 60.93L274.48 61.01Q274.42 62.33 273.79 70.44L273.75 70.41L273.77 70.42Q275.15 69.44 278.89 69.16L278.87 69.14L279.06 69.33Q285.75 69.65 288.39 72.70L288.30 72.61L288.44 72.75Q290.88 75.47 291.37 82.47L291.46 82.56L291.28 82.38Q291.81 90.05 289.59 93.73L289.58 93.72L289.57 93.71Q285.91 97.19 279.88 97.61L279.89 97.62L279.98 97.72Q278.14 97.81 273.28 98.09ZM284.24 102.18L284.25 102.19L284.24 102.18Q290.41 102.24 293.87 100.23L293.89 100.25L294.01 100.37Q295.70 97.49 295.70 93.67L295.67 93.64L295.67 93.64Q295.73 88.09 294.00 80.60L294.10 80.70L294.00 80.60Q293.26 77.36 291.04 74.80L291.06 74.82L291.13 74.95L290.79 74.47L290.14 74.10L290.07 74.03Q289.64 72.84 288.46 71.59L288.35 71.48L288.46 71.66L288.47 71.67Q285.65 68.57 278.92 68.57L278.81 68.46L278.42 68.55L278.43 68.56Q278.51 67.46 278.85 65.45L278.93 65.53L278.88 65.48Q288.00 65.72 295.35 62.74L295.34 62.73L295.36 62.75Q296.12 60.19 297.86 55.05L297.78 54.98L294.05 56.79L294.11 56.85Q294.74 54.71 295.64 52.63L295.53 52.52L295.61 52.60Q288.57 55.20 281.09 55.34L281.13 55.39L281.17 55.42Q273.56 55.52 266.35 53.50L266.44 53.60L266.37 53.52Q267.72 61.67 267.72 69.71L267.70 69.69L267.58 69.57Q267.63 73.09 267.43 76.56L267.40 76.53L267.53 76.66Q267.91 76.90 268.95 77.46L268.92 77.43L269.02 77.53Q269.63 77.10 270.81 76.47L270.80 76.46L270.80 76.46Q270.70 77.83 270.29 80.60L270.37 80.68L270.39 80.70Q270.98 80.87 271.74 81.29L271.75 81.30L271.76 81.31Q276.85 78.15 280.25 78.15L280.29 78.19L280.20 78.10Q282.71 78.18 284.86 79.36L284.77 79.27L284.87 79.37Q285.43 81.18 285.50 82.92L285.59 83.00L285.61 83.03Q285.72 87.71 283.85 89.72L283.86 89.73L283.81 89.68Q281.39 91.98 277.30 92.40L277.21 92.31L277.20 92.30Q275.52 92.49 274.28 92.35L274.30 92.38L274.25 92.33Q272.78 92.17 271.39 91.55L271.33 91.49L271.24 91.05L271.09 91.32L271.15 91.38Q269.65 90.43 268.68 88.00L268.70 88.03L268.71 88.04Q266.11 90.43 263.06 94.31L263.25 94.50L263.18 94.43Q263.66 95.54 265.19 97.27L265.22 97.30L265.19 97.27Q267.23 100.70 272.36 101.60L272.22 101.46L272.28 101.52Q274.38 101.89 284.15 102.09Z"/><path d="M7 126 C163 22,187 102,331 139" stroke="#82ecb7" fill="none"/><path d="M3 99 C173 113,159 2,328 136" stroke="#87cbe2" fill="none"/><path d="M14 67 C177 104,166 55,333 69" stroke="#cfe58e" fill="none"/><path d="M4 11 C171 138,156 3,339 7" stroke="#aa6ce9" fill="none"/><path fill="#8ebae5" d="M215.27 97.85L215.28 97.86L215.36 97.94Q212.70 97.99 209.86 97.22L210.03 97.39L209.89 97.25Q207.83 95.75 207.55 92.77L207.54 92.75L207.49 92.70Q207.33 92.26 207.67 87.48L207.66 87.47L207.73 87.54Q209.54 87.12 213.21 86.43L213.31 86.53L212.84 87.79L212.99 87.94Q212.45 91.07 215.01 92.11L215.08 92.18L215.01 92.11Q216.43 92.70 220.24 92.70L220.26 92.71L220.19 92.65Q223.16 92.43 223.51 92.29L223.51 92.29L223.45 92.24Q225.20 92.04 226.52 91.14L226.46 91.08L226.60 91.22Q229.09 89.41 228.74 85.60L228.74 85.60L228.75 85.61Q228.36 81.13 225.21 78.28L225.30 78.38L225.34 78.41Q222.05 75.44 217.54 75.44L217.62 75.51L217.66 75.14L217.57 75.05Q218.36 75.08 219.96 74.94L219.79 74.77L219.84 74.82Q223.44 74.74 225.93 72.49L225.81 72.37L225.85 72.41Q228.33 70.13 228.60 66.74L228.68 66.81L228.51 66.64Q228.76 66.13 228.76 65.50L228.80 65.54L228.80 65.55Q228.70 62.67 226.21 61.01L226.24 61.05L226.22 61.03Q223.95 59.51 221.04 59.72L221.10 59.79L221.17 59.85Q218.75 59.52 216.53 60.28L216.47 60.22L216.53 60.28Q213.84 61.19 213.28 63.27L213.32 63.31L213.28 63.27Q213.03 64.76 213.17 66.14L213.10 66.07L213.08 66.05Q211.18 65.61 207.43 64.29L207.56 64.42L207.60 64.45Q207.12 61.34 207.19 59.81L207.11 59.73L207.18 59.80Q207.37 57.01 209.31 55.76L209.34 55.79L209.33 55.78Q211.85 54.63 214.76 54.63L214.84 54.71L214.88 54.75Q220.57 54.61 226.32 55.10L226.37 55.14L226.32 55.09Q235.48 55.79 234.92 62.66L235.02 62.75L235.04 62.78Q234.80 65.37 233.90 68.22L234.02 68.34L233.93 68.25Q232.22 73.82 227.92 75.48L228.06 75.63L227.95 75.52Q232.69 76.44 233.80 82.54L233.89 82.63L233.92 82.66Q234.36 84.76 234.50 88.44L234.36 88.30L234.40 88.35Q234.68 96.46 226.29 97.29L226.41 97.41L226.23 97.23Q225.05 97.50 215.41 97.99ZM224.79 101.96L224.77 101.94L224.85 102.02Q225.90 102.03 231.10 102.17L231.16 102.23L231.22 102.29Q234.28 102.30 237.26 101.12L237.30 101.16L237.38 101.24Q239.54 99.51 239.19 96.32L239.13 96.26L239.09 96.22Q238.90 93.81 238.35 90.63L238.33 90.61L238.29 90.57Q237.03 82.44 233.49 79.46L233.44 79.41L233.22 78.85L233.08 78.63L233.17 78.72Q236.29 76.02 237.67 68.04L237.74 68.11L237.79 68.15Q237.83 67.30 238.04 65.56L238.05 65.58L237.90 65.43Q238.18 64.18 238.04 62.93L238.03 62.92L238.00 62.89Q237.66 59.77 235.30 58.52L235.36 58.59L235.11 58.47L235.18 58.54Q234.61 56.72 232.53 55.75L232.66 55.88L232.63 55.86Q229.70 54.45 220.34 53.89L220.38 53.94L220.40 53.96Q217.28 53.75 214.37 53.75L214.46 53.84L214.55 53.93Q211.48 53.77 208.70 54.95L208.87 55.11L208.71 54.95Q206.63 56.48 206.63 59.67L206.52 59.56L206.49 59.53Q206.51 58.79 207.00 64.90L207.03 64.93L206.95 64.85Q207.56 65.04 210.55 66.15L210.59 66.20L210.54 66.15Q210.58 67.16 210.51 68.06L210.57 68.12L210.51 68.06Q210.48 68.93 210.55 69.90L210.61 69.96L210.49 69.84Q213.83 70.61 217.50 70.82L217.42 70.74L217.59 70.91Q217.42 67.20 219.43 65.67L219.45 65.70L219.34 65.58Q220.89 64.43 224.56 64.01L224.61 64.06L224.64 64.09Q226.66 64.03 227.70 64.38L227.62 64.29L227.61 64.29Q227.85 64.67 227.92 64.88L227.90 64.85L227.78 65.08L228.05 66.18L228.06 66.20Q228.02 66.50 227.95 66.78L227.91 66.73L228.03 66.85Q227.91 70.00 225.14 72.15L225.03 72.04L225.04 72.05Q223.36 73.70 219.69 74.05L219.70 74.06L219.82 74.17Q218.37 74.32 216.77 74.32L216.87 74.42L216.75 74.29Q216.91 75.01 217.19 76.26L217.19 76.26L217.10 76.18Q220.26 76.14 222.89 77.46L222.92 77.49L222.77 77.55L219.97 77.93L220.00 77.96Q220.00 78.52 220.21 79.63L220.14 79.56L220.18 79.60Q224.02 79.42 227.15 81.85L227.31 82.02L227.17 81.87Q227.70 82.68 228.25 85.66L228.25 85.66L228.27 85.68Q228.59 90.99 223.25 91.75L223.19 91.70L223.18 91.68Q219.48 92.29 218.44 92.22L218.45 92.22L218.30 92.07Q217.57 91.97 216.60 91.83L216.58 91.81L216.46 90.86L216.83 90.18L216.89 89.48L216.96 88.93L216.97 88.94Q215.23 89.07 213.77 89.42L213.67 89.31L213.70 89.34Q213.70 89.00 213.70 88.65L213.64 88.59L213.64 88.59Q213.78 88.32 213.78 87.90L213.73 87.85L213.60 87.72Q213.80 87.08 214.07 85.77L214.10 85.79L214.11 85.81Q210.74 86.24 207.34 86.87L207.33 86.86L207.27 86.80Q207.18 87.61 206.97 89.65L207.01 89.69L207.07 89.75Q206.87 91.81 206.87 92.92L206.87 92.91L206.88 92.92Q207.02 96.68 209.52 98.06L209.55 98.10L209.39 97.93Q212.20 102.20 220.80 101.85L220.86 101.92L220.70 101.76Q222.02 101.69 224.79 101.96Z"/><path d="M19 93 C167 116,191 111,338 96" stroke="#8ce038" fill="none"/><path d="M3 58 C168 32,185 130,335 121" stroke="#71e4c7" fill="none"/><path d="M12 117 C179 9,151 48,337 30" stroke="#d9d958" fill="none"/><path d="M2 24 C172 23,158 36,333 94" stroke="#e782e7" fill="none"/><path d="M13 13 C171 65,166 37,327 64" stroke="#5ce97f" fill="none"/><path d="M20 132 C171 13,175 65,326 110" stroke="#56db99" fill="none"/><path d="M4 66 C155 26,186 5,328 79" stroke="#ea8e8e" fill="none"/><path d="M2 100 C180 36,188 78,323 96" stroke="#87e169" fill="none"/><path d="M21 69 C178 88,163 19,328 21" stroke="#d67251" fill="none"/><path d="M2 28 C182 33,161 131,337 78" stroke="#a6f08d" fill="none"/><path d="M9 125 C156 49,177 106,335 78" stroke="#c467e4" fill="none"/><path d="M6 66 C163 122,192 6,336 37" stroke="#e88bd1" fill="none"/><path d="M3 56 C155 23,186 9,334 5" stroke="#dd6edd" fill="none"/><path d="M18 127 C162 104,190 84,331 74" stroke="#9076df" fill="none"/><path d="M5 45 C186 103,176 132,322 85" stroke="#c352e9" fill="none"/><path d="M16 63 C191 16,154 133,340 87" stroke="#e03c8e" fill="none"/><path fill="#45dd45" d="M45.35 97.93L45.38 97.96L45.41 97.99Q42.87 98.16 40.03 97.40L40.04 97.41L39.92 97.28Q37.83 95.75 37.55 92.76L37.46 92.68L37.37 92.58Q37.45 92.39 37.80 87.60L37.79 87.60L37.71 87.51Q39.66 87.25 43.34 86.56L43.29 86.51L42.99 87.94L42.88 87.83Q42.45 91.08 45.02 92.12L44.96 92.06L45.08 92.18Q46.38 92.65 50.19 92.65L50.33 92.79L50.21 92.67Q53.26 92.53 53.61 92.39L53.54 92.32L53.51 92.29Q55.22 92.06 56.54 91.16L56.51 91.13L56.52 91.14Q59.09 89.41 58.74 85.60L58.82 85.68L58.78 85.64Q58.47 81.23 55.31 78.39L55.30 78.37L55.23 78.31Q52.17 75.56 47.67 75.56L47.53 75.43L47.48 74.96L47.59 75.07Q48.35 75.06 49.94 74.92L49.85 74.83L49.96 74.95Q53.41 74.72 55.90 72.46L55.82 72.37L55.75 72.31Q58.26 70.07 58.54 66.67L58.56 66.69L58.59 66.72Q58.67 66.04 58.67 65.42L58.69 65.44L58.80 65.54Q58.83 62.80 56.33 61.13L56.17 60.97L56.29 61.10Q54.06 59.62 51.15 59.83L51.08 59.77L51.04 59.72Q48.75 59.52 46.53 60.28L46.58 60.33L46.45 60.19Q43.87 61.22 43.31 63.30L43.33 63.32L43.30 63.29Q42.98 64.71 43.12 66.09L43.13 66.10L43.11 66.08Q41.20 65.63 37.45 64.31L37.57 64.42L37.48 64.33Q37.12 61.34 37.19 59.81L37.16 59.79L37.11 59.73Q37.44 57.08 39.38 55.83L39.41 55.87L39.38 55.83Q41.89 54.66 44.80 54.66L44.76 54.62L44.81 54.68Q50.60 54.65 56.36 55.13L56.24 55.02L56.30 55.07Q65.59 55.90 65.03 62.76L64.92 62.66L65.07 62.80Q64.88 65.46 63.98 68.30L63.98 68.30L63.93 68.24Q62.28 73.88 57.98 75.55L57.97 75.54L57.95 75.52Q62.74 76.49 63.85 82.59L63.94 82.68L63.88 82.62Q64.22 84.62 64.35 88.30L64.36 88.30L64.34 88.28Q64.75 96.53 56.36 97.36L56.23 97.23L56.28 97.29Q54.97 97.43 45.33 97.91ZM54.94 102.11L54.91 102.08L54.85 102.02Q56.04 102.17 61.24 102.31L61.17 102.24L61.13 102.20Q64.38 102.40 67.36 101.22L67.29 101.15L67.28 101.14Q69.47 99.45 69.13 96.26L69.13 96.26L69.17 96.30Q68.97 93.88 68.41 90.69L68.37 90.65L68.38 90.65Q67.00 82.41 63.46 79.43L63.44 79.41L63.10 78.72L63.02 78.58L63.07 78.62Q66.34 76.07 67.73 68.09L67.75 68.11L67.68 68.04Q67.68 67.15 67.89 65.42L67.92 65.45L67.95 65.47Q68.15 64.15 68.01 62.90L67.99 62.88L68.03 62.92Q67.77 59.88 65.41 58.64L65.27 58.49L65.22 58.58L65.11 58.48Q64.64 56.75 62.56 55.78L62.47 55.69L62.53 55.75Q59.71 54.46 50.35 53.91L50.48 54.03L50.50 54.06Q47.35 53.82 44.43 53.82L44.44 53.82L44.38 53.76Q41.63 53.93 38.86 55.11L38.75 55.00L38.73 54.98Q36.49 56.34 36.49 59.53L36.58 59.62L36.61 59.65Q36.49 58.77 36.97 64.87L37.08 64.97L37.03 64.92Q37.62 65.10 40.60 66.21L40.57 66.18L40.68 66.29Q40.57 67.15 40.50 68.05L40.55 68.10L40.57 68.12Q40.51 68.96 40.58 69.93L40.53 69.88L40.48 69.83Q43.85 70.64 47.53 70.85L47.60 70.92L47.54 70.86Q47.31 67.09 49.32 65.57L49.35 65.59L49.34 65.59Q50.92 64.46 54.60 64.05L54.49 63.94L54.54 63.99Q56.61 63.98 57.65 64.33L57.73 64.40L57.78 64.46Q57.72 64.53 57.79 64.74L57.75 64.70L57.84 65.14L58.10 66.24L57.98 66.12Q58.05 66.52 57.98 66.80L57.90 66.73L58.01 66.83Q57.94 70.03 55.17 72.17L55.10 72.11L55.12 72.13Q53.50 73.83 49.82 74.18L49.80 74.15L49.76 74.12Q48.44 74.40 46.85 74.40L46.89 74.44L46.74 74.29Q46.89 74.99 47.17 76.24L47.26 76.33L47.22 76.29Q50.29 76.18 52.93 77.49L52.94 77.51L52.88 77.66L49.84 77.81L49.94 77.90Q49.92 78.44 50.13 79.55L50.28 79.70L50.28 79.70Q54.18 79.58 57.30 82.01L57.31 82.01L57.23 81.94Q57.63 82.61 58.18 85.59L58.12 85.53L58.27 85.68Q58.57 90.97 53.23 91.73L53.29 91.80L53.28 91.78Q49.30 92.10 48.26 92.03L48.41 92.18L48.43 92.21Q47.43 91.83 46.46 91.69L46.56 91.79L46.51 90.90L46.81 90.17L46.77 89.37L46.95 88.93L46.90 88.87Q45.22 89.07 43.77 89.41L43.68 89.32L43.70 89.34Q43.72 89.02 43.72 88.67L43.67 88.62L43.53 88.48Q43.73 88.27 43.73 87.85L43.75 87.88L43.77 87.89Q43.74 87.02 44.01 85.71L44.13 85.83L43.99 85.69Q40.66 86.17 37.26 86.79L37.25 86.77L37.24 86.77Q37.18 87.61 36.97 89.66L36.95 89.63L36.97 89.65Q36.79 91.73 36.79 92.84L36.74 92.79L36.91 92.96Q36.93 96.59 39.43 97.97L39.49 98.04L39.43 97.97Q42.20 102.20 50.80 101.85L50.84 101.89L50.84 101.89Q51.99 101.66 54.77 101.94Z"/><path d="M21 89 C185 67,163 54,326 9" stroke="#e68da3" fill="none"/><path d="M3 50 C150 66,159 121,323 85" stroke="#597add" fill="none"/><path d="M2 4 C164 36,192 48,337 52" stroke="#e96d43" fill="none"/><path d="M3 70 C170 50,154 30,333 7" stroke="#e5a361" fill="none"/><path d="M12 98 C175 110,169 40,324 73" stroke="#6eecad" fill="none"/><path d="M19 105 C166 47,156 119,340 108" stroke="#66df66" fill="none"/><path d="M4 13 C188 125,160 25,335 5" stroke="#edca62" fill="none"/><path d="M12 67 C153 124,190 94,335 104" stroke="#bf5cdf" fill="none"/><path d="M3 11 C175 132,154 88,323 99" stroke="#81d863" fill="none"/><path d="M18 109 C175 135,150 99,339 108" stroke="#5a79d7" fill="none"/></svg>