<svg xmlns="http://www.w3.org/2000/svg" width="342" height="140" viewBox="0,0,342,140"><path d="M8 135 C167 130,191 109,336 37" stroke="#5d7cd9" fill="none"/><path fill="#d396e8" d="M205.79 74.15L205.81 74.16L205.69 74.04Q207.20 74.05 209.84 73.77L209.79 73.72L209.80 73.73Q209.80 75.01 209.80 76.22L209.71 76.13L209.83 78.61L209.70 78.48Q208.17 78.52 206.60 78.67L206.70 78.77L206.62 78.68Q205.13 78.84 203.56 78.77L203.51 78.71L203.58 78.79Q198.12 90.24 191.69 98.88L191.73 98.91L191.78 98.97Q187.03 100.14 184.61 101.29L184.50 101.18L184.65 101.33Q192.38 90.64 198.09 78.87L198.00 78.77L193.02 78.72L193.14 78.84Q193.12 76.32 192.90 73.82L192.90 73.82L192.96 73.87Q196.46 74.10 200.31 74.10L200.30 74.08L203.87 67.16L203.78 67.07Q205.68 63.54 207.96 60.54L208.06 60.64L208.04 60.62Q205.06 60.86 202.07 60.86L202.06 60.85L202.11 60.90Q190.67 60.88 183.60 56.74L183.55 56.69L182.31 53.45L182.37 53.51Q181.71 51.92 180.99 50.28L181.09 50.37L181.01 50.30Q189.08 55.15 199.78 55.58L199.90 55.69L199.81 55.60Q209.54 56.13 219.18 52.41L219.08 52.32L219.05 52.29Q218.79 53.17 217.86 54.81L217.77 54.72L217.79 54.73Q210.99 63.64 205.64 73.99ZM220.81 57.33L220.89 57.41L222.76 53.64L222.71 53.60Q220.87 54.46 217.73 55.82L217.75 55.84L218.21 55.37L218.17 55.34Q218.44 55.10 218.65 54.89L218.59 54.82L218.55 54.78Q219.35 53.59 220.71 51.09L220.72 51.11L220.71 51.09Q210.62 55.28 199.84 54.85L199.92 54.93L199.81 54.81Q188.68 54.47 179.76 48.90L179.72 48.86L179.62 48.76Q181.60 52.31 183.17 57.30L183.18 57.32L183.07 57.20Q185.21 58.49 186.71 59.06L186.66 59.02L186.73 59.08Q187.09 59.80 187.95 63.30L187.86 63.21L187.96 63.31Q193.75 65.53 204.10 65.25L204.22 65.36L204.16 65.31Q203.66 66.45 199.95 73.52L199.77 73.33L199.78 73.35Q196.05 73.48 192.34 73.12L192.39 73.16L192.30 73.07Q192.41 74.61 192.41 76.25L192.40 76.25L192.35 79.41L195.49 79.40L195.55 82.11L195.52 82.07Q188.31 96.07 183.10 102.78L182.98 102.66L182.95 102.63Q185.96 101.21 189.03 100.28L189.11 100.36L189.16 100.42Q187.71 101.97 185.14 105.18L185.28 105.31L185.23 105.26Q191.21 103.25 195.78 102.82L195.71 102.76L195.76 102.80Q201.24 95.72 207.09 83.01L207.05 82.97L213.42 83.27L213.49 83.34Q213.31 81.59 213.31 79.88L213.43 80.00L213.44 76.66L213.37 76.58Q212.82 76.54 211.79 76.61L211.90 76.72L211.84 76.66Q210.70 76.63 210.20 76.63L210.35 76.77L210.23 76.65Q210.23 76.44 210.30 76.16L210.35 76.21L210.36 75.72L210.42 75.78Q215.16 66.17 220.94 57.46Z"/><path d="M6 62 C174 46,152 75,337 120" stroke="#e38668" fill="none"/><path d="M2 37 C183 67,191 5,321 101" stroke="#4de4be" fill="none"/><path d="M2 75 C156 122,155 68,339 72" stroke="#66dfc1" fill="none"/><path d="M10 24 C150 134,181 11,322 125" stroke="#406ae7" fill="none"/><path d="M6 18 C157 20,184 77,336 39" stroke="#77ed77" fill="none"/><path d="M8 132 C159 1,155 34,326 19" stroke="#e692d1" fill="none"/><path d="M12 136 C165 63,165 106,329 52" stroke="#6ce245" fill="none"/><path d="M12 34 C154 98,177 117,325 41" stroke="#d2ed82" fill="none"/><path d="M1 58 C190 66,192 110,328 122" stroke="#80b2e4" fill="none"/><path d="M9 22 C177 109,159 66,340 96" stroke="#91e73a" fill="none"/><path d="M17 68 C166 64,171 99,329 35" stroke="#df4391" fill="none"/><path d="M3 109 C188 24,182 73,331 98" stroke="#48b5d9" fill="none"/><path d="M11 68 C172 72,172 107,332 80" stroke="#baeb88" fill="none"/><path d="M10 57 C177 25,169 102,324 102" stroke="#c877e3" fill="none"/><path d="M11 47 C168 56,181 116,324 25" stroke="#e769c7" fill="none"/><path d="M10 25 C158 34,190 7,326 14" stroke="#d8d854" fill="none"/><path d="M20 124 C181 91,166 48,329 83" stroke="#6f48e4" fill="none"/><path d="M14 80 C163 26,164 108,330 72" stroke="#dfa870" fill="none"/><path d="M11 57 C158 115,181 102,329 46" stroke="#88f1bc" fill="none"/><path d="M17 34 C182 107,153 135,341 121" stroke="#bf62de" fill="none"/><path d="M15 90 C184 23,158 49,335 139" stroke="#58e958" fill="none"/><path fill="#c042ea" d="M123.23 84.96L123.23 84.96L123.21 84.94Q129.04 84.28 135.04 84.49L134.87 84.32L134.94 84.39Q134.97 79.71 134.97 75.22L134.82 75.06L134.83 75.07Q134.83 70.43 135.18 65.65L135.31 65.78L135.32 65.78Q132.95 68.92 123.17 84.91ZM141.78 98.73L141.81 98.75L141.81 98.76Q138.62 98.14 135.27 98.00L135.31 98.04L135.25 97.99Q134.95 93.62 134.74 88.98L134.72 88.96L134.63 88.87Q124.64 88.51 115.79 91.15L115.91 91.27L115.84 91.20Q116.12 90.34 116.48 88.49L116.39 88.40L116.41 88.42Q119.81 82.54 126.52 70.76L126.57 70.81L126.47 70.72Q131.85 61.53 138.27 54.25L138.34 54.31L138.35 54.32Q140.01 53.98 143.15 53.49L143.12 53.45L143.12 53.46Q139.51 65.48 139.51 78.68L139.62 78.79L139.61 78.78Q139.45 81.41 139.60 84.20L139.77 84.37L142.10 84.48L142.14 84.53Q143.17 84.49 144.31 84.70L144.34 84.73L144.36 84.75Q144.70 86.73 145.20 90.37L145.06 90.23L145.11 90.28Q142.75 89.71 139.97 89.35L139.97 89.35L140.12 89.50Q140.44 93.18 141.72 98.67ZM144.87 84.05L144.85 84.02L144.91 84.08Q144.49 83.88 144.14 83.88L144.27 84.02L143.43 83.89L143.42 83.88Q143.19 81.08 143.19 78.44L143.28 78.53L143.32 78.57Q143.21 66.46 147.06 55.19L147.18 55.30L147.14 55.26Q145.73 55.78 143.02 56.50L142.94 56.42L142.95 56.43Q143.32 54.94 144.18 52.30L144.18 52.31L144.25 52.38Q141.76 53.02 137.90 53.45L138.04 53.59L137.90 53.45Q130.64 61.67 120.86 79.23L120.82 79.20L124.83 72.43L124.80 72.40Q123.95 74.26 123.45 75.33L123.44 75.32L115.12 92.27L115.04 92.19Q116.29 91.94 118.44 91.23L118.42 91.21L118.16 91.67L118.25 91.76Q117.88 92.88 117.31 95.24L117.48 95.42L117.31 95.24Q125.17 92.90 134.24 93.25L134.15 93.17L134.23 93.25Q134.25 94.98 134.60 98.69L134.52 98.60L134.60 98.69Q136.55 98.64 138.55 98.85L138.67 98.97L138.62 98.92Q138.84 100.14 139.34 102.71L139.48 102.85L139.34 102.72Q143.04 103.27 148.68 104.99L148.68 104.98L148.63 104.93Q146.73 100.89 145.02 94.76L144.94 94.68L147.67 95.55L147.64 95.53Q149.03 96.05 150.31 96.70L150.28 96.66L150.36 96.74Q148.72 91.90 148.44 88.76L148.44 88.76L148.49 88.80Q147.37 88.47 145.23 88.04L145.24 88.06L145.25 88.07Q144.92 85.73 144.92 84.09ZM129.86 83.74L129.84 83.72L129.88 83.76Q131.30 81.32 134.23 76.54L134.29 76.61L134.17 76.49Q134.16 78.26 134.09 80.04L134.20 80.16L134.27 80.23Q134.24 82.05 134.31 83.83L134.34 83.86L134.25 83.78Q133.11 83.64 132.04 83.64L132.02 83.61L132.02 83.61Q131.06 83.80 129.92 83.80Z"/><path d="M10 45 C190 54,172 104,330 60" stroke="#74e150" fill="none"/><path d="M12 83 C168 70,155 86,329 64" stroke="#e67e7e" fill="none"/><path fill="#cf8ee5" d="M267.70 67.02L267.71 67.03L267.78 67.10Q261.72 67.04 258.30 65.04L258.28 65.02L258.36 65.10Q262.90 62.36 272.03 54.44L272.17 54.57L272.12 54.53Q273.55 54.24 275.98 53.10L275.98 53.10L275.83 52.95Q273.38 64.14 273.17 76.06L273.19 76.08L273.19 76.08Q272.95 87.97 274.95 99.40L274.98 99.43L274.98 99.43Q271.86 98.09 267.86 97.88L267.73 97.75L267.85 97.87Q267.65 90.10 267.65 82.46L267.66 82.47L267.71 82.52Q267.54 74.64 267.61 66.94ZM266.97 71.22L267.02 98.60L266.89 98.47Q269.25 98.55 271.04 98.91L270.95 98.83L270.98 98.85Q271.24 100.26 271.60 102.83L271.44 102.67L271.58 102.81Q276.84 103.71 281.41 107.92L281.41 107.92L281.45 107.96Q276.78 94.58 276.71 80.59L276.66 80.55L276.77 80.66Q276.65 66.69 280.08 53.13L280.04 53.09L279.99 53.04Q279.07 53.91 276.07 55.98L276.10 56.01L276.12 56.03Q276.33 54.45 276.90 51.60L276.88 51.57L276.99 51.68Q274.49 53.11 271.78 53.82L271.84 53.89L271.83 53.87Q264.65 60.48 256.59 64.76L256.55 64.72L256.63 64.80Q259.20 66.80 263.63 67.45L263.65 67.47L263.70 67.52Q262.42 68.45 260.00 70.45L260.03 70.49L260.04 70.49Q262.74 71.12 266.88 71.12L267.03 71.27Z"/><path d="M3 49 C152 106,164 110,338 98" stroke="#e344bb" fill="none"/><path d="M4 75 C161 26,161 101,337 124" stroke="#45e645" fill="none"/><path d="M7 132 C161 63,168 64,322 60" stroke="#3eda3e" fill="none"/><path d="M20 38 C151 31,179 100,340 62" stroke="#b57aef" fill="none"/><path d="M4 98 C179 27,189 85,336 96" stroke="#e4a590" fill="none"/><path d="M5 23 C164 92,168 86,334 22" stroke="#d57352" fill="none"/><path d="M16 111 C170 24,162 38,336 58" stroke="#c6e763" fill="none"/><path d="M13 24 C176 59,169 2,329 9" stroke="#d4b043" fill="none"/><path d="M4 62 C165 134,188 125,323 69" stroke="#9852df" fill="none"/><path d="M11 79 C165 17,183 17,338 63" stroke="#df7bdf" fill="none"/><path d="M15 23 C168 129,168 108,335 7" stroke="#bf91ed" fill="none"/><path d="M8 17 C171 123,175 119,325 107" stroke="#61ea83" fill="none"/><path fill="#83d1eb" d="M56.32 98.72L56.43 98.83L56.33 98.73Q53.80 98.98 50.87 98.20L50.71 98.04L50.78 98.11Q48.60 96.50 48.31 93.43L48.31 93.42L48.16 93.27Q48.09 92.92 48.44 87.99L48.51 88.06L48.42 87.97Q50.37 87.63 54.15 86.92L54.28 87.04L53.88 88.43L53.80 88.35Q53.33 91.66 55.97 92.73L55.93 92.69L56.07 92.83Q57.53 93.43 61.45 93.43L61.45 93.43L61.52 93.49Q64.33 93.03 64.69 92.89L64.80 93.00L64.73 92.93Q66.46 92.66 67.82 91.73L67.81 91.72L67.93 91.85Q70.55 90.04 70.19 86.11L70.14 86.06L70.10 86.02Q69.86 81.57 66.62 78.65L66.60 78.63L66.55 78.58Q63.26 75.61 58.62 75.61L58.59 75.58L58.55 75.11L58.66 75.22Q59.35 75.13 61.00 74.99L61.01 75.00L61.06 75.05Q64.62 74.82 67.18 72.50L67.17 72.49L67.18 72.50Q69.80 70.23 70.09 66.73L70.02 66.67L69.95 66.60Q70.10 65.96 70.10 65.32L70.10 65.32L70.15 65.37Q70.11 62.47 67.54 60.76L67.57 60.79L67.52 60.74Q65.36 59.37 62.37 59.58L62.30 59.52L62.37 59.59Q59.93 59.29 57.64 60.07L57.56 59.99L57.50 59.93Q54.96 61.10 54.38 63.24L54.23 63.09L54.23 63.08Q53.94 64.58 54.08 66.00L54.06 65.98L54.12 66.04Q52.21 65.63 48.35 64.27L48.33 64.25L48.24 64.16Q47.89 61.10 47.96 59.53L48.02 59.58L47.90 59.47Q48.18 56.68 50.18 55.39L50.15 55.37L50.17 55.38Q52.76 54.19 55.76 54.19L55.86 54.29L55.86 54.29Q61.71 54.14 67.63 54.64L67.68 54.69L67.73 54.74Q77.15 55.45 76.58 62.52L76.65 62.59L76.48 62.42Q76.37 65.24 75.45 68.17L75.51 68.23L75.41 68.13Q73.74 73.95 69.31 75.67L69.45 75.80L69.38 75.74Q74.33 76.75 75.47 83.04L75.33 82.90L75.47 83.04Q75.79 85.07 75.93 88.85L76.00 88.92L76.02 88.94Q76.19 97.18 67.55 98.04L67.74 98.22L67.58 98.06Q66.26 98.24 56.34 98.74ZM66.11 102.94L66.22 103.06L66.22 103.06Q67.26 103.02 72.61 103.16L72.64 103.19L72.71 103.27Q75.90 103.31 78.97 102.10L78.95 102.08L78.91 102.04Q81.18 100.31 80.83 97.03L80.83 97.04L80.91 97.11Q80.66 94.58 80.09 91.29L80.04 91.25L80.09 91.30Q78.63 82.77 74.99 79.70L75.15 79.86L74.73 79.09L74.72 79.00L74.58 78.86Q77.96 76.25 79.39 68.04L79.33 67.99L79.27 67.93Q79.48 67.21 79.70 65.42L79.73 65.46L79.70 65.42Q79.73 63.88 79.59 62.60L79.63 62.64L79.71 62.72Q79.36 59.52 76.94 58.24L76.96 58.26L76.77 58.21L76.69 58.13Q76.18 56.33 74.03 55.33L74.07 55.37L74.15 55.45Q71.20 54.07 61.56 53.50L61.58 53.51L61.52 53.45Q58.41 53.35 55.42 53.35L55.37 53.30L55.43 53.36Q52.51 53.44 49.65 54.65L49.54 54.54L49.65 54.65Q47.39 56.10 47.39 59.39L47.20 59.19L47.33 59.33Q47.38 58.59 47.88 64.87L47.82 64.81L47.82 64.81Q48.33 64.89 51.40 66.03L51.46 66.10L51.51 66.14Q51.36 66.99 51.28 67.92L51.32 67.95L51.46 68.10Q51.33 68.89 51.40 69.89L51.51 70.00L51.51 70.00Q54.88 70.73 58.66 70.94L58.51 70.79L58.65 70.93Q58.45 67.09 60.52 65.52L60.50 65.50L60.59 65.58Q62.02 64.24 65.81 63.81L65.81 63.82L65.78 63.78Q67.91 63.77 68.98 64.12L69.10 64.25L69.02 64.17Q69.09 64.38 69.16 64.60L69.22 64.65L69.23 65.02L69.36 66.00L69.41 66.06Q69.44 66.45 69.37 66.73L69.32 66.68L69.28 66.64Q69.16 69.87 66.30 72.09L66.41 72.19L66.34 72.12Q64.74 73.95 60.96 74.31L60.79 74.14L60.87 74.22Q59.59 74.58 57.94 74.58L57.82 74.45L57.93 74.56Q57.89 75.09 58.18 76.38L58.22 76.42L58.32 76.52Q61.53 76.45 64.24 77.81L64.16 77.73L64.02 77.80L61.06 78.13L61.15 78.21Q61.05 78.69 61.27 79.83L61.37 79.94L61.41 79.97Q65.30 79.72 68.51 82.22L68.53 82.24L68.51 82.22Q68.90 82.89 69.47 85.96L69.52 86.01L69.49 85.98Q69.94 91.57 64.45 92.36L64.52 92.43L64.44 92.35Q60.58 92.92 59.51 92.85L59.46 92.79L59.48 92.81Q58.54 92.52 57.54 92.38L57.56 92.40L57.60 91.58L57.89 90.80L57.90 90.03L58.01 89.49L57.85 89.33Q56.11 89.52 54.61 89.87L54.58 89.84L54.67 89.94Q54.64 89.55 54.64 89.19L54.59 89.14L54.57 89.12Q54.68 88.80 54.68 88.37L54.73 88.42L54.74 88.43Q54.70 87.54 54.99 86.18L54.92 86.11L54.96 86.16Q51.58 86.70 48.08 87.34L47.99 87.25L47.92 87.18Q48.00 88.19 47.78 90.29L47.73 90.24L47.81 90.32Q47.57 92.40 47.57 93.54L47.63 93.60L47.61 93.58Q47.83 97.51 50.40 98.94L50.35 98.89L50.33 98.87Q53.16 103.20 62.02 102.85L61.95 102.78L61.89 102.72Q63.23 102.63 66.08 102.92Z"/><path d="M17 63 C167 118,167 98,334 127" stroke="#b948de" fill="none"/><path d="M8 59 C179 117,170 51,335 111" stroke="#ec8d6e" fill="none"/><path d="M16 21 C185 7,183 108,336 118" stroke="#d94369" fill="none"/><path d="M8 65 C176 13,182 62,324 93" stroke="#84e0c9" fill="none"/></svg>