<svg xmlns="http://www.w3.org/2000/svg" width="342" height="140" viewBox="0,0,342,140"><path d="M3 23 C170 83,165 112,323 114" stroke="#d2ec82" fill="none"/><path d="M19 25 C165 90,157 20,340 67" stroke="#93d453" fill="none"/><path d="M10 122 C153 105,188 125,331 50" stroke="#8c3eda" fill="none"/><path d="M21 115 C192 119,152 130,322 62" stroke="#68e3c4" fill="none"/><path d="M19 127 C182 62,169 98,337 28" stroke="#e05b7c" fill="none"/><path d="M5 55 C166 21,187 18,336 112" stroke="#8c8ce2" fill="none"/><path d="M19 126 C187 15,154 108,337 95" stroke="#c7e862" fill="none"/><path fill="#3eda3e" d="M56.45 98.46L56.54 98.56L56.54 98.55Q53.81 98.59 50.91 97.81L51.01 97.91L50.94 97.83Q48.67 96.13 48.39 93.09L48.42 93.12L48.51 93.21Q48.34 92.76 48.69 87.88L48.61 87.80L48.71 87.90Q50.69 87.61 54.43 86.91L54.35 86.83L54.00 88.24L54.07 88.31Q53.54 91.53 56.15 92.59L56.09 92.52L56.15 92.58Q57.70 93.28 61.59 93.28L61.43 93.13L61.50 93.19Q64.51 92.95 64.87 92.81L64.90 92.85L64.78 92.73Q66.46 92.43 67.80 91.51L67.93 91.64L67.95 91.66Q70.57 89.90 70.22 86.01L70.18 85.97L70.15 85.94Q69.78 81.39 66.56 78.49L66.61 78.54L66.59 78.53Q63.28 75.53 58.68 75.53L58.75 75.59L58.65 75.08L58.73 75.15Q59.46 75.11 61.09 74.97L61.07 74.94L60.99 74.87Q64.60 74.74 67.15 72.44L67.23 72.52L67.12 72.41Q69.66 70.11 69.95 66.64L70.05 66.75L69.96 66.66Q70.14 66.06 70.14 65.43L70.21 65.49L70.20 65.48Q70.09 62.55 67.55 60.85L67.64 60.94L67.50 60.81Q65.40 59.48 62.43 59.69L62.33 59.60L62.26 59.52Q59.90 59.28 57.64 60.06L57.77 60.20L57.74 60.17Q55.00 61.10 54.43 63.22L54.37 63.16L54.39 63.17Q54.16 64.71 54.30 66.13L54.14 65.96L54.16 65.99Q52.40 65.72 48.59 64.37L48.47 64.26L48.48 64.27Q48.08 61.18 48.15 59.63L48.05 59.52L48.17 59.64Q48.25 56.68 50.23 55.41L50.37 55.55L50.37 55.55Q52.87 54.30 55.84 54.30L55.93 54.39L55.85 54.32Q61.81 54.34 67.68 54.83L67.62 54.78L67.56 54.71Q77.14 55.67 76.57 62.67L76.44 62.54L76.52 62.61Q76.26 65.25 75.34 68.15L75.38 68.19L75.38 68.19Q73.68 73.92 69.30 75.61L69.37 75.68L69.35 75.66Q74.29 76.72 75.43 82.94L75.41 82.92L75.31 82.82Q75.75 84.97 75.90 88.71L75.83 88.64L75.86 88.68Q76.12 96.92 67.56 97.77L67.57 97.78L67.69 97.90Q66.29 97.99 56.47 98.48ZM66.11 102.61L66.23 102.73L66.21 102.71Q67.34 102.78 72.64 102.92L72.66 102.94L72.52 102.80Q75.80 102.97 78.84 101.76L78.89 101.82L78.83 101.76Q81.17 100.14 80.82 96.89L80.82 96.89L80.82 96.89Q80.47 94.28 79.91 91.03L79.88 91.00L79.91 91.03Q78.60 82.72 75.00 79.68L75.02 79.71L74.73 79.06L74.51 78.77L74.59 78.86Q77.77 76.09 79.18 67.96L79.23 68.01L79.26 68.04Q79.26 67.12 79.47 65.35L79.47 65.35L79.57 65.45Q79.75 64.07 79.60 62.80L79.58 62.77L79.61 62.81Q79.30 59.67 76.90 58.39L76.82 58.32L76.63 58.27L76.72 58.36Q76.18 56.55 74.06 55.56L74.05 55.55L73.93 55.43Q71.22 54.27 61.67 53.70L61.68 53.72L61.65 53.68Q58.52 53.52 55.55 53.52L55.48 53.45L55.48 53.45Q52.53 53.47 49.71 54.68L49.69 54.66L49.70 54.67Q47.51 56.15 47.51 59.40L47.47 59.37L47.49 59.38Q47.44 58.56 47.94 64.78L48.06 64.91L48.04 64.89Q48.48 64.90 51.52 66.03L51.61 66.12L51.68 66.19Q51.56 67.06 51.48 67.98L51.52 68.02L51.49 67.98Q51.53 68.94 51.60 69.93L51.57 69.90L51.57 69.90Q54.82 70.54 58.57 70.75L58.63 70.81L58.69 70.87Q58.56 67.14 60.61 65.58L60.66 65.63L60.62 65.59Q62.06 64.27 65.80 63.84L65.87 63.91L65.96 64.00Q68.02 63.94 69.08 64.29L68.98 64.20L69.11 64.32Q69.23 64.58 69.30 64.79L69.29 64.78L69.24 65.09L69.35 66.05L69.47 66.16Q69.44 66.49 69.37 66.77L69.35 66.76L69.30 66.70Q69.28 70.01 66.45 72.20L66.33 72.08L66.44 72.19Q64.64 73.78 60.89 74.13L61.02 74.26L60.86 74.11Q59.50 74.37 57.88 74.37L57.90 74.39L57.97 74.46Q57.97 75.03 58.26 76.31L58.39 76.44L58.34 76.39Q61.55 76.34 64.23 77.69L64.31 77.76L64.04 77.70L61.11 78.03L61.04 77.96Q61.30 78.78 61.51 79.91L61.38 79.78L61.35 79.75Q65.36 79.66 68.54 82.14L68.56 82.15L68.58 82.18Q69.06 82.94 69.63 85.98L69.65 86.00L69.57 85.92Q69.93 91.37 64.49 92.15L64.41 92.07L64.51 92.17Q60.64 92.69 59.58 92.62L59.44 92.48L59.53 92.57Q58.65 92.33 57.66 92.19L57.66 92.19L57.62 91.29L57.93 90.55L57.98 89.81L58.12 89.32L57.97 89.17Q56.29 89.40 54.81 89.75L54.86 89.81L54.86 89.80Q54.69 89.28 54.69 88.93L54.77 89.01L54.68 88.92Q54.79 88.61 54.79 88.18L54.87 88.26L54.84 88.23Q54.91 87.46 55.20 86.11L55.12 86.04L55.19 86.11Q51.58 86.39 48.12 87.02L48.14 87.04L48.27 87.17Q48.20 88.02 47.99 90.11L47.92 90.04L47.97 90.09Q47.68 92.10 47.68 93.24L47.88 93.43L47.78 93.33Q47.97 97.20 50.52 98.61L50.54 98.64L50.49 98.58Q53.24 102.82 62.00 102.46L61.93 102.39L61.93 102.39Q63.33 102.38 66.16 102.66Z"/><path d="M5 103 C187 138,184 110,331 116" stroke="#58de9b" fill="none"/><path d="M7 118 C160 127,172 137,334 118" stroke="#9848e9" fill="none"/><path d="M12 68 C178 92,182 45,327 83" stroke="#e78787" fill="none"/><path fill="#72e3c7" d="M273.69 74.02L273.72 74.06L273.70 74.03Q275.12 73.97 277.74 73.69L277.82 73.77L277.78 73.73Q277.71 74.93 277.71 76.13L277.80 76.22L277.66 78.42L277.80 78.55Q276.25 78.56 274.69 78.70L274.53 78.54L274.55 78.55Q273.12 78.75 271.56 78.68L271.41 78.53L271.52 78.64Q266.25 90.13 259.89 98.68L259.83 98.63L259.84 98.63Q255.14 99.80 252.74 100.93L252.81 101.01L252.81 101.01Q260.41 90.37 266.07 78.70L266.06 78.69L261.16 78.67L261.16 78.68Q261.26 76.30 261.05 73.82L260.95 73.73L260.88 73.66Q264.45 73.98 268.27 73.98L268.40 74.10L271.93 67.24L271.80 67.11Q273.68 63.62 275.94 60.65L275.97 60.68L276.02 60.73Q273.03 60.92 270.06 60.92L270.15 61.01L270.07 60.93Q258.85 61.02 251.85 56.92L251.75 56.82L250.59 53.68L250.52 53.61Q249.88 52.05 249.17 50.42L249.21 50.46L249.31 50.57Q257.36 55.43 267.96 55.85L267.89 55.78L267.87 55.76Q277.50 56.27 287.04 52.59L286.97 52.52L287.06 52.61Q286.57 53.25 285.65 54.88L285.68 54.91L285.69 54.91Q279.04 63.82 273.74 74.07ZM288.76 57.56L288.73 57.53L290.49 53.71L290.61 53.83Q288.84 54.75 285.73 56.09L285.68 56.03L285.98 55.41L286.00 55.44Q286.21 55.16 286.43 54.94L286.35 54.87L286.37 54.89Q287.05 53.59 288.39 51.11L288.45 51.18L288.49 51.22Q278.62 55.48 267.94 55.05L267.96 55.07L267.91 55.03Q256.69 54.47 247.85 48.96L247.81 48.92L247.84 48.95Q249.73 52.40 251.29 57.35L251.45 57.51L251.31 57.37Q253.45 58.66 254.93 59.23L254.85 59.15L254.97 59.26Q255.22 59.86 256.07 63.33L256.02 63.28L255.96 63.22Q261.80 65.52 272.05 65.24L272.12 65.32L272.15 65.35Q271.61 66.43 267.93 73.43L267.99 73.49L267.90 73.39Q264.15 73.47 260.48 73.11L260.40 73.04L260.44 73.07Q260.63 74.67 260.63 76.30L260.64 76.31L260.50 79.36L263.70 79.45L263.65 82.01L263.71 82.07Q256.45 95.81 251.29 102.45L251.27 102.44L251.26 102.42Q254.27 101.05 257.31 100.14L257.14 99.96L257.27 100.10Q255.86 101.66 253.32 104.84L253.37 104.89L253.49 105.01Q259.29 102.89 263.81 102.47L263.71 102.36L263.71 102.36Q269.18 95.38 274.97 82.80L275.06 82.88L281.33 83.15L281.36 83.17Q281.29 81.56 281.29 79.86L281.22 79.79L281.22 76.47L281.31 76.55Q280.75 76.49 279.73 76.56L279.80 76.64L279.71 76.55Q278.74 76.67 278.24 76.67L278.17 76.60L278.16 76.59Q278.30 76.51 278.37 76.23L278.30 76.15L278.28 75.65L278.27 75.64Q282.93 66.08 288.65 57.46Z"/><path d="M11 130 C162 91,156 131,332 51" stroke="#e26840" fill="none"/><path d="M3 112 C165 105,178 64,336 83" stroke="#d1eb83" fill="none"/><path d="M7 30 C182 61,192 46,337 125" stroke="#83b5e6" fill="none"/><path d="M2 101 C150 95,155 35,328 9" stroke="#6b88df" fill="none"/><path d="M11 115 C167 27,183 139,323 75" stroke="#a86ae5" fill="none"/><path d="M16 31 C182 35,163 55,339 78" stroke="#c778e2" fill="none"/><path d="M10 98 C158 42,171 23,334 116" stroke="#b279eb" fill="none"/><path d="M16 80 C176 112,175 66,334 125" stroke="#76e4ad" fill="none"/><path d="M8 51 C165 33,159 47,335 24" stroke="#80e9e9" fill="none"/><path d="M12 29 C159 137,186 22,322 70" stroke="#f1839e" fill="none"/><path d="M2 127 C154 73,154 72,331 136" stroke="#51db73" fill="none"/><path d="M6 127 C154 74,190 128,330 105" stroke="#43e443" fill="none"/><path fill="#c1e948" d="M191.35 84.82L191.39 84.86L191.26 84.72Q197.10 84.13 203.04 84.34L203.06 84.36L203.00 84.31Q202.92 79.56 202.92 75.10L202.92 75.11L202.82 75.01Q202.84 70.43 203.20 65.70L203.33 65.83L203.24 65.74Q200.91 68.85 191.22 84.69ZM209.71 98.44L209.59 98.32L209.78 98.51Q206.59 97.87 203.27 97.73L203.18 97.64L203.16 97.62Q202.97 93.39 202.75 88.80L202.62 88.66L202.73 88.77Q192.80 88.39 184.04 91.01L184.00 90.97L184.09 91.06Q184.15 89.99 184.50 88.15L184.52 88.17L184.60 88.25Q188.00 82.46 194.64 70.79L194.50 70.64L194.63 70.78Q199.95 61.67 206.31 54.46L206.28 54.43L206.31 54.46Q207.93 54.10 211.04 53.60L211.08 53.64L211.13 53.69Q207.46 65.51 207.46 78.59L207.44 78.56L207.59 78.71Q207.54 81.42 207.68 84.18L207.72 84.22L210.02 84.33L210.02 84.33Q211.09 84.34 212.22 84.55L212.40 84.73L212.22 84.54Q212.58 86.54 213.08 90.14L212.93 90.00L212.96 90.03Q210.70 89.53 207.94 89.18L208.06 89.29L208.08 89.32Q208.47 93.03 209.74 98.47ZM212.75 83.88L212.71 83.83L212.88 84.00Q212.52 83.86 212.17 83.86L212.01 83.70L211.33 83.73L211.36 83.76Q211.20 81.05 211.20 78.43L211.16 78.40L211.18 78.41Q211.22 66.58 215.04 55.41L215.07 55.44L215.02 55.39Q213.63 55.91 210.94 56.61L210.89 56.56L210.81 56.49Q211.24 55.07 212.08 52.46L212.13 52.50L212.10 52.47Q209.83 53.31 206.01 53.73L206.03 53.76L206.02 53.74Q198.60 61.66 188.91 79.06L188.99 79.13L192.92 72.39L192.88 72.35Q192.03 74.19 191.54 75.25L191.58 75.29L183.23 91.97L183.26 91.99Q184.46 91.71 186.58 91.00L186.65 91.07L186.28 91.41L186.28 91.41Q186.06 92.67 185.49 95.01L185.52 95.04L185.51 95.03Q193.15 92.55 202.13 92.91L202.10 92.88L202.21 92.99Q202.28 94.76 202.63 98.43L202.63 98.43L202.68 98.48Q204.60 98.42 206.58 98.63L206.51 98.56L206.55 98.60Q206.84 99.88 207.33 102.43L207.39 102.48L207.39 102.48Q210.86 102.85 216.45 104.54L216.44 104.53L216.51 104.61Q214.71 100.68 213.01 94.60L212.94 94.53L215.55 95.30L215.58 95.33Q216.95 95.86 218.23 96.49L218.13 96.40L218.12 96.39Q216.59 91.68 216.31 88.57L216.47 88.72L216.40 88.66Q215.27 88.31 213.15 87.89L213.23 87.96L213.25 87.98Q212.81 85.56 212.81 83.93ZM198.04 83.73L197.96 83.65L197.93 83.62Q199.39 81.26 202.29 76.52L202.19 76.42L202.17 76.41Q202.29 78.29 202.22 80.06L202.12 79.96L202.26 80.10Q202.16 81.84 202.23 83.61L202.22 83.60L202.24 83.62Q201.28 83.64 200.22 83.64L200.12 83.55L200.22 83.65Q199.15 83.71 198.02 83.71Z"/><path d="M6 134 C165 6,190 112,332 111" stroke="#67e4c4" fill="none"/><path d="M19 75 C189 69,185 68,330 112" stroke="#badc55" fill="none"/><path d="M19 28 C165 95,167 32,339 9" stroke="#e57575" fill="none"/><path d="M15 119 C170 90,153 96,323 96" stroke="#99da57" fill="none"/><path d="M10 60 C159 128,190 97,326 134" stroke="#40b9e2" fill="none"/><path d="M12 10 C166 47,150 132,331 25" stroke="#a869e7" fill="none"/><path d="M3 38 C152 23,165 20,333 75" stroke="#62e884" fill="none"/><path d="M3 62 C153 60,170 10,334 66" stroke="#e68564" fill="none"/><path d="M3 74 C174 134,160 31,339 32" stroke="#b7ef7f" fill="none"/><path d="M20 104 C182 34,165 46,326 31" stroke="#e0ad79" fill="none"/><path d="M9 95 C189 135,188 19,331 40" stroke="#ebeb79" fill="none"/><path d="M13 54 C181 3,173 2,328 105" stroke="#6fdcc0" fill="none"/><path d="M17 136 C159 38,190 8,324 4" stroke="#72e372" fill="none"/><path d="M14 95 C174 62,151 106,340 52" stroke="#efd27a" fill="none"/><path fill="#e886b7" d="M125.74 98.62L125.71 98.59L125.60 98.48Q118.20 99.07 116.36 94.76L116.33 94.73L116.32 94.72Q117.72 92.94 120.62 89.62L120.57 89.56L120.67 89.66Q121.57 93.40 127.16 93.61L127.09 93.54L127.08 93.53Q133.46 93.76 136.50 91.28L136.42 91.21L136.35 91.14Q138.95 88.15 138.80 83.13L138.80 83.13L138.90 83.22Q138.65 73.85 129.74 74.27L129.76 74.29L129.80 74.34Q124.43 74.48 121.18 76.82L121.16 76.79L120.63 76.55L120.14 76.20L120.14 76.20Q120.89 70.45 120.68 65.36L120.73 65.41L120.57 65.25Q120.38 60.39 119.75 54.24L119.80 54.29L119.78 54.28Q126.50 55.98 133.57 55.76L133.67 55.86L133.66 55.86Q140.75 55.73 147.39 53.39L147.36 53.37L146.24 56.13L146.37 56.26Q145.68 57.56 145.33 59.11L145.34 59.12L145.40 59.18Q139.51 60.99 132.30 60.99L132.38 61.07L132.40 61.10Q129.67 61.06 126.91 60.77L126.94 60.80L126.85 60.71Q126.75 62.02 126.11 70.29L126.23 70.41L126.11 70.29Q127.74 69.52 131.56 69.23L131.64 69.32L131.61 69.29Q138.43 69.60 141.11 72.71L141.15 72.74L141.26 72.85Q143.80 75.68 144.30 82.82L144.21 82.74L144.29 82.82Q144.61 90.41 142.35 94.16L142.52 94.34L142.49 94.31Q138.68 97.78 132.53 98.20L132.58 98.26L132.56 98.23Q130.65 98.31 125.70 98.59ZM136.83 102.72L136.91 102.80L137.01 102.90Q143.38 103.04 146.91 100.99L146.75 100.83L146.73 100.81Q148.61 98.03 148.61 94.14L148.71 94.24L148.75 94.27Q148.69 88.49 146.92 80.85L146.79 80.72L146.92 80.85Q146.15 77.53 143.89 74.92L143.96 74.99L143.89 74.99L143.48 74.44L142.90 74.14L142.84 74.08Q142.38 72.84 141.17 71.57L141.07 71.46L141.25 71.71L141.22 71.68Q138.30 68.48 131.44 68.48L131.51 68.55L130.90 68.43L130.89 68.42Q131.21 67.54 131.56 65.49L131.55 65.48L131.43 65.36Q140.81 65.69 148.31 62.65L148.16 62.51L148.16 62.50Q149.10 60.05 150.87 54.82L150.72 54.67L146.82 56.43L146.98 56.59Q147.62 54.40 148.54 52.28L148.58 52.32L148.56 52.30Q141.38 54.95 133.74 55.09L133.78 55.13L133.82 55.16Q126.14 55.34 118.79 53.29L118.73 53.22L118.84 53.34Q120.02 61.45 120.02 69.65L120.07 69.70L120.05 69.67Q120.03 73.19 119.82 76.73L119.89 76.80L119.91 76.81Q120.22 76.99 121.28 77.55L121.37 77.64L121.45 77.72Q122.01 77.22 123.21 76.59L123.26 76.64L123.29 76.66Q123.17 78.02 122.74 80.85L122.64 80.74L122.67 80.78Q123.47 81.16 124.25 81.58L124.21 81.54L124.24 81.57Q129.52 78.43 132.98 78.43L132.95 78.40L132.80 78.26Q135.43 78.41 137.62 79.61L137.60 79.59L137.58 79.57Q138.16 81.42 138.23 83.19L138.33 83.29L138.16 83.12Q138.33 87.95 136.42 90.00L136.49 90.08L136.45 90.03Q133.99 92.38 129.82 92.80L129.83 92.82L129.70 92.68Q128.07 92.97 126.80 92.83L126.79 92.82L126.66 92.68Q125.17 92.54 123.76 91.91L123.68 91.83L123.67 91.46L123.46 91.68L123.43 91.65Q121.96 90.75 120.97 88.27L121.10 88.40L121.04 88.34Q118.56 90.95 115.45 94.91L115.34 94.80L115.52 94.98Q116.02 96.12 117.58 97.88L117.55 97.86L117.56 97.87Q119.49 101.21 124.72 102.13L124.81 102.22L124.66 102.07Q126.90 102.55 136.87 102.76Z"/><path d="M10 133 C185 131,163 60,324 126" stroke="#7ae5ca" fill="none"/><path d="M6 97 C170 71,181 81,330 79" stroke="#db6666" fill="none"/><path d="M9 67 C160 20,164 137,339 115" stroke="#dd5fbd" fill="none"/><path d="M4 68 C169 68,191 47,332 48" stroke="#edce72" fill="none"/></svg>