<svg xmlns="http://www.w3.org/2000/svg" width="342" height="140" viewBox="0,0,342,140"><path d="M6 11 C181 9,154 81,334 77" stroke="#e7b582" fill="none"/><path d="M20 56 C189 69,188 1,335 94" stroke="#e1a364" fill="none"/><path d="M17 8 C157 78,183 13,326 86" stroke="#7bdfc6" fill="none"/><path d="M2 110 C179 91,155 46,331 6" stroke="#84baef" fill="none"/><path d="M14 5 C160 79,153 81,322 47" stroke="#e28b6e" fill="none"/><path d="M4 113 C151 136,152 34,332 110" stroke="#79ebb2" fill="none"/><path d="M14 97 C172 62,155 133,334 46" stroke="#d8b859" fill="none"/><path d="M4 43 C186 69,178 129,333 130" stroke="#e0a060" fill="none"/><path fill="#77eb50" d="M127.07 94.35L127.20 94.48L127.10 94.38Q120.63 94.74 119.05 91.05L119.05 91.05L119.17 91.17Q120.37 89.65 122.85 86.80L122.87 86.82L122.82 86.77Q123.57 89.94 128.35 90.12L128.29 90.06L128.41 90.18Q133.73 90.24 136.33 88.12L136.40 88.19L136.40 88.19Q138.56 85.57 138.44 81.27L138.54 81.37L138.44 81.27Q138.20 73.23 130.57 73.59L130.52 73.53L130.58 73.60Q126.10 73.83 123.31 75.83L123.33 75.84L122.76 75.52L122.54 75.41L122.50 75.37Q123.12 70.43 122.94 66.08L122.97 66.10L122.79 65.93Q122.62 61.76 122.07 56.50L122.12 56.54L122.12 56.55Q127.86 57.98 133.91 57.80L133.97 57.87L133.94 57.84Q140.13 57.85 145.82 55.86L145.74 55.78L144.92 58.29L144.90 58.27Q144.44 59.51 144.14 60.84L143.97 60.67L143.97 60.67Q139.16 62.45 132.99 62.45L132.92 62.38L132.90 62.36Q130.58 62.34 128.22 62.10L128.17 62.05L128.25 62.13Q128.11 63.20 127.57 70.28L127.60 70.32L127.68 70.39Q128.83 69.48 132.09 69.24L132.16 69.30L132.28 69.42Q138.10 69.68 140.40 72.34L140.39 72.33L140.45 72.40Q142.61 74.79 143.03 80.90L142.97 80.84L142.95 80.82Q143.35 87.46 141.42 90.67L141.53 90.77L141.42 90.67Q138.33 93.81 133.07 94.18L133.03 94.13L132.99 94.10Q131.39 94.19 127.15 94.43ZM136.78 98.06L136.74 98.03L136.79 98.08Q142.32 98.28 145.35 96.53L145.33 96.52L145.29 96.47Q146.89 94.08 146.89 90.76L146.81 90.67L146.73 90.60Q146.80 85.76 145.29 79.23L145.24 79.18L145.32 79.26Q144.67 76.43 142.73 74.19L142.85 74.31L142.84 74.36L142.44 73.83L141.93 73.57L141.96 73.60Q141.39 72.36 140.36 71.27L140.45 71.36L140.46 71.44L140.33 71.31Q137.99 68.72 132.12 68.72L132.22 68.82L131.78 68.81L131.77 68.80Q131.82 67.82 132.13 66.07L132.13 66.07L132.08 66.01Q140.11 66.31 146.53 63.71L146.54 63.72L146.50 63.68Q147.18 61.45 148.69 56.98L148.60 56.89L145.35 58.48L145.24 58.37Q145.92 56.63 146.71 54.81L146.64 54.74L146.69 54.80Q140.50 57.02 133.97 57.14L134.08 57.25L133.97 57.14Q127.50 57.38 121.20 55.63L121.16 55.58L121.29 55.71Q122.40 62.75 122.40 69.77L122.28 69.65L122.24 69.61Q122.33 72.72 122.15 75.75L122.18 75.78L122.14 75.74Q122.62 76.10 123.52 76.58L123.51 76.57L123.48 76.54Q124.04 76.19 125.07 75.65L124.96 75.54L125.00 75.57Q124.97 76.81 124.60 79.23L124.72 79.36L124.67 79.30Q125.33 79.60 125.99 79.96L126.03 80.00L125.91 79.88Q130.39 77.16 133.35 77.16L133.26 77.07L133.37 77.17Q135.49 77.18 137.37 78.21L137.40 78.24L137.40 78.23Q137.92 79.85 137.99 81.36L138.01 81.39L137.88 81.25Q138.04 85.41 136.40 87.16L136.45 87.21L136.36 87.12Q134.26 89.13 130.69 89.49L130.66 89.47L130.72 89.53Q129.14 89.58 128.05 89.46L128.13 89.54L128.14 89.55Q126.80 89.35 125.59 88.81L125.59 88.82L125.45 88.37L125.33 88.61L125.21 88.49Q123.98 87.74 123.13 85.63L123.15 85.65L123.20 85.70Q121.02 87.87 118.36 91.26L118.46 91.36L118.34 91.24Q118.88 92.33 120.21 93.84L120.24 93.87L120.23 93.86Q121.91 96.75 126.38 97.53L126.33 97.48L126.29 97.44Q128.22 97.86 136.75 98.04Z"/><path d="M5 51 C178 128,169 64,325 101" stroke="#84d1eb" fill="none"/><path d="M10 16 C171 103,153 18,336 95" stroke="#e7987d" fill="none"/><path d="M15 3 C173 21,151 63,336 55" stroke="#dd8a6e" fill="none"/><path fill="#8fbae4" d="M58.07 94.31L58.13 94.38L58.10 94.35Q55.91 94.51 53.43 93.85L53.34 93.76L53.47 93.88Q51.49 92.39 51.24 89.79L51.26 89.80L51.15 89.70Q51.24 89.54 51.54 85.37L51.41 85.23L51.52 85.35Q53.09 84.98 56.30 84.38L56.41 84.49L55.99 85.58L56.12 85.71Q55.54 88.33 57.77 89.24L57.81 89.28L57.90 89.37Q59.17 89.91 62.50 89.91L62.39 89.80L62.41 89.82Q64.99 89.62 65.29 89.50L65.29 89.50L65.34 89.54Q66.63 89.14 67.78 88.36L67.82 88.39L67.79 88.36Q70.13 86.95 69.83 83.63L69.83 83.62L69.91 83.71Q69.42 79.65 66.67 77.17L66.67 77.17L66.74 77.24Q63.94 74.71 60.01 74.71L60.07 74.78L60.17 74.51L60.14 74.48Q60.76 74.44 62.15 74.32L62.15 74.31L62.04 74.20Q65.00 73.96 67.18 72.00L67.27 72.08L67.23 72.05Q69.41 70.08 69.65 67.12L69.72 67.18L69.78 67.24Q69.89 66.69 69.89 66.15L69.84 66.10L69.86 66.12Q69.75 63.58 67.57 62.13L67.54 62.10L67.58 62.14Q65.76 60.98 63.22 61.17L63.18 61.13L63.18 61.12Q61.04 60.80 59.10 61.47L59.21 61.57L59.08 61.44Q56.93 62.44 56.44 64.25L56.38 64.19L56.41 64.22Q56.05 65.38 56.18 66.59L56.12 66.53L56.22 66.63Q54.60 66.28 51.33 65.13L51.38 65.18L51.29 65.09Q50.97 62.47 51.03 61.14L50.95 61.06L51.03 61.14Q51.28 58.79 52.97 57.70L52.96 57.68L52.87 57.59Q55.05 56.56 57.59 56.56L57.56 56.53L57.69 56.66Q62.71 56.61 67.73 57.03L67.77 57.06L67.79 57.08Q75.80 57.71 75.32 63.70L75.30 63.69L75.20 63.59Q75.10 65.96 74.31 68.44L74.44 68.58L74.26 68.40Q72.94 73.43 69.19 74.88L69.15 74.84L69.13 74.82Q73.32 75.68 74.29 81.01L74.29 81.01L74.37 81.09Q74.67 82.84 74.79 86.05L74.83 86.08L74.68 85.94Q75.02 93.11 67.70 93.84L67.67 93.81L67.75 93.89Q66.65 94.06 58.24 94.48ZM66.42 97.94L66.34 97.86L66.51 98.04Q67.38 97.99 71.91 98.11L71.94 98.14L72.02 98.23Q74.70 98.24 77.30 97.21L77.41 97.32L77.27 97.18Q79.09 95.62 78.79 92.83L78.84 92.88L78.82 92.86Q78.65 90.76 78.17 87.97L78.16 87.96L78.17 87.97Q77.09 80.91 74.01 78.31L74.07 78.37L73.74 77.74L73.73 77.66L73.63 77.56Q76.47 75.32 77.68 68.37L77.69 68.37L77.53 68.22Q77.72 67.62 77.90 66.11L77.90 66.10L77.88 66.08Q78.05 64.93 77.93 63.84L77.89 63.80L77.85 63.75Q77.55 61.03 75.49 59.94L75.57 60.03L75.46 60.04L75.47 60.05Q74.95 58.43 73.13 57.59L73.19 57.64L73.23 57.68Q70.76 56.55 62.59 56.06L62.47 55.94L62.51 55.98Q59.94 55.95 57.40 55.95L57.35 55.90L57.32 55.87Q54.85 55.94 52.43 56.97L52.37 56.91L52.44 56.98Q50.42 58.11 50.42 60.89L50.51 60.98L50.52 60.99Q50.50 60.31 50.92 65.63L50.90 65.61L50.79 65.49Q51.36 65.70 53.96 66.67L53.93 66.64L53.92 66.63Q54.00 67.56 53.94 68.34L53.84 68.24L53.87 68.28Q53.95 69.14 54.01 69.99L53.94 69.92L53.99 69.96Q56.78 70.51 59.98 70.70L60.01 70.73L59.95 70.67Q59.82 67.45 61.57 66.12L61.68 66.22L61.57 66.11Q63.00 65.19 66.21 64.82L66.24 64.85L66.25 64.86Q67.96 64.76 68.87 65.06L68.96 65.16L68.81 65.00Q68.91 65.22 68.97 65.40L69.04 65.47L69.08 65.82L69.18 66.64L69.22 66.68Q69.27 67.03 69.21 67.28L69.06 67.13L69.14 67.20Q69.10 70.01 66.68 71.88L66.57 71.78L66.58 71.79Q65.14 73.25 61.93 73.55L61.88 73.50L61.91 73.52Q60.78 73.79 59.38 73.79L59.49 73.89L59.47 73.87Q59.41 74.29 59.65 75.38L59.76 75.49L59.76 75.50Q62.59 75.54 64.89 76.69L64.87 76.67L64.68 76.66L62.12 76.88L62.17 76.93Q62.16 77.41 62.34 78.38L62.38 78.41L62.32 78.35Q65.72 78.25 68.44 80.37L68.58 80.50L68.45 80.37Q68.90 81.06 69.38 83.66L69.37 83.65L69.24 83.53Q69.64 88.28 64.99 88.95L64.92 88.88L64.99 88.95Q61.67 89.38 60.76 89.32L60.79 89.35L60.67 89.23Q60.11 89.22 59.27 89.10L59.23 89.06L59.08 88.18L59.32 87.52L59.42 86.95L59.55 86.53L59.45 86.44Q57.86 86.48 56.59 86.79L56.64 86.83L56.68 86.88Q56.69 86.59 56.69 86.28L56.59 86.18L56.72 86.31Q56.59 85.82 56.59 85.45L56.67 85.53L56.70 85.56Q56.75 84.89 57.00 83.74L56.95 83.70L56.94 83.69Q53.98 84.05 51.01 84.59L50.96 84.55L51.08 84.67Q51.12 85.49 50.94 87.28L50.85 87.19L50.84 87.18Q50.70 89.00 50.70 89.97L50.77 90.04L50.74 90.01Q50.84 93.26 53.02 94.47L52.97 94.42L53.00 94.44Q55.38 98.10 62.88 97.80L62.91 97.83L62.96 97.87Q64.00 97.70 66.42 97.94Z"/><path d="M2 22 C178 121,188 81,322 92" stroke="#59e759" fill="none"/><path d="M8 72 C185 80,154 74,336 68" stroke="#f09e83" fill="none"/><path d="M14 85 C183 80,187 62,327 74" stroke="#5454dd" fill="none"/><path d="M16 76 C165 80,176 60,340 3" stroke="#7676e9" fill="none"/><path d="M5 33 C172 66,166 50,325 97" stroke="#7c98ed" fill="none"/><path fill="#61a0df" d="M195.17 94.45L195.12 94.39L195.18 94.45Q188.69 94.81 187.12 91.11L187.16 91.16L187.04 91.04Q188.34 89.61 190.82 86.77L190.82 86.77L190.79 86.74Q191.55 89.92 196.33 90.10L196.35 90.12L196.37 90.14Q201.83 90.33 204.43 88.21L204.31 88.10L204.41 88.19Q206.61 85.61 206.49 81.32L206.54 81.38L206.47 81.30Q206.27 73.30 198.65 73.66L198.69 73.71L198.70 73.72Q194.07 73.80 191.28 75.80L191.33 75.84L190.82 75.58L190.59 75.47L190.42 75.30Q191.05 70.36 190.87 66.00L190.93 66.06L190.83 65.97Q190.78 61.93 190.24 56.66L190.20 56.63L190.07 56.50Q196.01 58.14 202.06 57.96L202.09 57.98L201.99 57.89Q208.07 57.80 213.76 55.80L213.79 55.83L212.74 58.11L212.78 58.15Q212.25 59.31 211.95 60.65L212.00 60.70L212.11 60.81Q207.05 62.34 200.88 62.34L200.97 62.43L200.95 62.41Q198.70 62.46 196.34 62.22L196.24 62.12L196.35 62.22Q196.23 63.32 195.69 70.40L195.69 70.40L195.62 70.33Q196.86 69.51 200.13 69.27L200.09 69.24L200.11 69.25Q206.19 69.77 208.49 72.43L208.41 72.35L208.47 72.42Q210.69 74.88 211.12 80.99L211.06 80.93L210.97 80.85Q211.36 87.47 209.43 90.68L209.56 90.81L209.48 90.73Q206.34 93.82 201.08 94.18L201.02 94.13L201.04 94.15Q199.33 94.13 195.10 94.37ZM204.72 98.01L204.88 98.16L204.75 98.03Q210.19 98.15 213.21 96.39L213.32 96.51L213.34 96.52Q214.93 94.12 214.93 90.79L214.88 90.74L214.82 90.68Q214.79 85.76 213.28 79.22L213.37 79.30L213.34 79.28Q212.62 76.38 210.68 74.14L210.86 74.31L210.78 74.30L210.41 73.81L209.97 73.61L209.93 73.57Q209.40 72.38 208.37 71.29L208.42 71.33L208.43 71.40L208.45 71.42Q205.99 68.72 200.12 68.72L200.18 68.78L199.80 68.82L199.80 68.82Q199.84 67.84 200.14 66.08L200.03 65.97L200.17 66.11Q208.03 66.23 214.45 63.63L214.37 63.55L214.42 63.60Q215.15 61.42 216.66 56.94L216.72 57.01L213.41 58.53L213.35 58.47Q213.96 56.67 214.75 54.85L214.67 54.77L214.65 54.76Q208.69 57.20 202.15 57.32L202.08 57.25L202.04 57.21Q195.47 57.36 189.18 55.60L189.29 55.71L189.18 55.61Q190.39 62.74 190.39 69.76L190.32 69.69L190.42 69.79Q190.24 72.63 190.06 75.66L190.08 75.68L190.18 75.79Q190.55 76.04 191.46 76.52L191.47 76.53L191.49 76.55Q192.11 76.26 193.14 75.71L193.09 75.67L193.10 75.68Q192.96 76.81 192.60 79.23L192.59 79.22L192.66 79.29Q193.21 79.48 193.88 79.84L193.92 79.88L193.88 79.85Q198.28 77.05 201.25 77.05L201.28 77.08L201.41 77.22Q203.44 77.12 205.31 78.15L205.33 78.17L205.31 78.15Q205.97 79.90 206.03 81.41L205.97 81.35L205.97 81.35Q206.07 85.44 204.43 87.19L204.34 87.10L204.45 87.21Q202.15 89.03 198.59 89.39L198.59 89.40L198.65 89.45Q197.19 89.63 196.10 89.51L195.98 89.39L196.14 89.55Q194.73 89.28 193.52 88.74L193.48 88.70L193.37 88.29L193.29 88.57L193.32 88.60Q192.00 87.77 191.15 85.65L191.22 85.72L191.19 85.69Q188.99 87.84 186.32 91.23L186.39 91.29L186.41 91.31Q186.78 92.23 188.11 93.74L188.16 93.79L188.16 93.79Q189.83 96.67 194.31 97.46L194.44 97.59L194.31 97.46Q196.22 97.86 204.75 98.04Z"/><path d="M1 129 C158 14,178 89,323 105" stroke="#76d0ee" fill="none"/><path d="M9 87 C183 66,160 15,324 85" stroke="#ee90ee" fill="none"/><path d="M11 55 C190 3,150 61,334 21" stroke="#9bdf57" fill="none"/><path d="M12 27 C183 135,163 120,338 7" stroke="#9292e7" fill="none"/><path d="M16 59 C178 38,183 14,332 17" stroke="#92bfeb" fill="none"/><path d="M12 103 C178 96,157 6,334 14" stroke="#bc8eea" fill="none"/><path d="M18 136 C158 46,154 130,324 51" stroke="#de486e" fill="none"/><path d="M10 14 C183 42,179 135,330 29" stroke="#7aefd2" fill="none"/><path d="M8 6 C174 115,185 59,324 61" stroke="#89baea" fill="none"/><path d="M17 83 C166 83,180 72,328 38" stroke="#e76a40" fill="none"/><path d="M13 33 C189 38,151 122,332 109" stroke="#50d7b5" fill="none"/><path d="M3 75 C153 12,182 130,328 113" stroke="#4242d5" fill="none"/><path d="M9 9 C158 120,191 53,334 122" stroke="#d44343" fill="none"/><path d="M12 12 C180 25,153 121,339 67" stroke="#3fe391" fill="none"/><path d="M14 126 C167 52,173 56,331 4" stroke="#df75c5" fill="none"/><path d="M3 53 C168 86,172 45,336 135" stroke="#50ebeb" fill="none"/><path d="M12 42 C156 33,175 90,330 16" stroke="#6989e6" fill="none"/><path d="M6 108 C179 125,188 57,322 20" stroke="#6947d1" fill="none"/><path d="M17 64 C171 39,180 86,337 54" stroke="#e79f87" fill="none"/><path d="M13 12 C190 12,171 63,329 42" stroke="#ec6969" fill="none"/><path d="M18 16 C184 41,170 84,339 38" stroke="#54e29b" fill="none"/><path d="M19 116 C157 79,152 32,339 111" stroke="#8cd740" fill="none"/><path d="M19 118 C174 44,170 115,329 72" stroke="#eb4b4b" fill="none"/><path d="M11 105 C187 24,178 94,331 23" stroke="#6dc1dd" fill="none"/><path fill="#dbb646" d="M280.04 90.60L279.89 90.44L279.87 90.43Q280.45 92.10 281.30 95.30L281.26 95.26L281.27 95.27Q274.61 93.21 267.29 93.64L267.21 93.56L267.28 93.63Q260.07 94.10 253.72 97.24L253.63 97.16L253.68 97.21Q254.09 96.17 254.15 96.29L254.13 96.26L254.06 96.20Q260.03 89.95 266.26 82.93L266.21 82.88L266.22 82.88Q273.26 74.98 275.14 67.54L275.17 67.57L275.05 67.45Q275.83 64.72 273.80 62.85L273.89 62.94L273.91 62.96Q271.72 60.92 268.88 61.16L269.00 61.28L268.90 61.18Q268.36 61.13 267.82 61.13L267.90 61.21L267.89 61.20Q265.50 61.23 263.50 62.68L263.37 62.55L263.53 62.71Q261.47 64.88 261.83 69.12L261.73 69.02L261.81 69.10Q258.83 68.42 256.89 67.69L256.92 67.71L256.97 67.77Q256.70 65.56 256.58 63.26L256.54 63.22L256.54 63.23Q256.48 60.68 257.45 58.87L257.40 58.82L257.45 58.87Q260.29 56.69 265.62 56.69L265.49 56.56L268.29 56.58L268.28 56.57Q271.88 56.60 273.39 56.78L273.40 56.79L273.38 56.77Q280.32 57.48 280.74 61.35L280.77 61.38L280.79 61.40Q280.86 62.25 280.74 63.52L280.75 63.54L280.73 63.52Q280.76 64.63 280.52 65.72L280.42 65.62L280.49 65.69Q277.92 78.62 265.88 89.51L265.83 89.46L265.86 89.49Q268.17 89.32 270.35 89.32L270.19 89.16L270.27 89.23Q275.42 89.24 279.96 90.51ZM279.12 57.49L278.98 57.35L279.12 57.49Q276.51 56.38 273.78 56.26L273.86 56.34L268.42 56.04L268.28 55.90Q261.28 55.56 257.77 57.31L257.68 57.23L257.71 57.25Q256.12 59.54 256.12 62.81L256.01 62.69L255.97 62.66Q256.11 63.88 256.60 68.36L256.62 68.38L256.53 68.29Q257.45 68.73 259.32 69.21L259.26 69.15L259.31 70.83L259.36 70.88Q259.33 71.64 259.46 72.49L259.33 72.36L259.46 72.49Q261.39 72.61 265.32 72.97L265.32 72.97L265.37 73.02Q265.19 72.30 265.19 71.75L265.26 71.82L265.29 71.85Q265.20 68.86 267.14 66.71L267.23 66.80L267.17 66.75Q269.10 64.59 271.94 64.77L271.93 64.76L271.90 64.73Q273.20 64.87 274.41 65.12L274.29 65.00L274.49 65.20Q274.50 65.63 274.62 66.30L274.75 66.43L274.70 66.38Q274.85 67.13 274.73 67.68L274.62 67.57L274.63 67.57Q272.64 75.14 265.62 82.83L265.53 82.74L265.52 82.73Q262.32 86.49 253.67 96.11L253.65 96.09L253.66 96.10Q253.24 97.32 252.70 98.22L252.75 98.27L252.66 98.18Q255.30 96.89 257.72 96.05L257.79 96.11L257.60 95.93Q256.57 96.95 255.05 99.31L255.11 99.37L255.06 99.31Q254.75 99.73 254.57 100.28L254.64 100.35L254.64 100.34Q262.47 97.17 271.18 97.47L271.05 97.34L271.04 97.33Q280.05 97.56 287.31 101.31L287.45 101.45L285.78 97.97L285.74 97.93Q284.81 95.91 284.39 94.64L284.29 94.54L284.44 94.69Q283.14 93.88 281.20 93.21L281.21 93.22L281.21 93.22Q281.04 92.14 280.44 89.96L280.52 90.05L280.46 89.98Q276.94 89.07 273.31 88.77L273.33 88.78L273.31 88.77Q280.81 81.57 283.23 68.44L283.12 68.33L283.38 63.69L283.38 63.68Q283.37 60.95 281.43 59.86L281.33 59.75L281.38 59.87L281.32 59.81Q281.35 59.78 281.23 59.78L281.09 59.64L281.19 59.74Q280.73 58.31 278.98 57.34Z"/></svg>