<svg xmlns="http://www.w3.org/2000/svg" width="342" height="140" viewBox="0,0,342,140"><path d="M3 34 C169 106,152 17,322 19" stroke="#dc55ba" fill="none"/><path d="M3 130 C184 118,171 122,325 3" stroke="#e48f8f" fill="none"/><path d="M13 113 C154 37,171 136,329 39" stroke="#80e480" fill="none"/><path d="M5 99 C182 73,174 61,323 134" stroke="#61a0df" fill="none"/><path d="M14 99 C172 108,151 32,330 19" stroke="#b57aef" fill="none"/><path d="M19 72 C171 79,187 115,326 91" stroke="#e14b4b" fill="none"/><path fill="#98ed7c" d="M199.79 62.15L199.92 62.28L197.69 62.48L197.71 62.50Q194.43 62.64 194.10 65.55L194.04 65.49L194.08 65.54Q194.01 66.61 194.06 68.05L193.88 67.87L193.97 67.96Q193.95 70.69 195.77 72.62L195.76 72.60L195.89 72.74Q197.71 74.67 200.46 74.45L200.45 74.44L200.40 74.38Q203.31 74.10 204.41 72.78L204.56 72.93L204.57 72.94Q206.02 71.52 206.40 68.27L206.33 68.20L206.41 68.28Q206.84 65.08 205.03 63.87L204.93 63.77L204.91 63.75Q203.74 62.70 199.89 62.26ZM208.57 75.56L208.54 75.53L206.68 78.85L206.68 78.85Q202.75 85.77 197.30 91.66L197.31 91.67L197.38 91.74Q195.06 92.01 191.15 93.16L191.17 93.18L191.02 93.03Q198.74 83.95 203.31 77.02L203.46 77.17L203.48 77.19Q201.96 78.09 199.59 78.20L199.62 78.22L199.55 78.16Q195.21 78.39 193.01 75.53L193.00 75.52L192.98 75.50Q191.23 73.19 189.63 66.59L189.57 66.53L189.64 66.60Q189.71 66.00 189.49 64.65L189.43 64.60L189.39 64.56Q189.24 63.27 189.24 62.61L189.25 62.63L189.17 62.55Q189.14 59.93 190.68 59.05L190.74 59.11L190.81 59.18Q192.52 58.03 195.22 58.03L195.10 57.90L195.14 57.95Q199.72 57.91 199.72 57.91L199.86 58.04L199.83 58.01Q202.88 57.98 204.70 58.25L204.70 58.25L204.77 58.32Q207.82 58.68 209.14 59.40L209.14 59.39L209.14 59.39Q211.08 60.45 211.35 62.98L211.50 63.12L211.35 62.98Q211.39 63.35 211.11 67.20L211.08 67.17L211.09 67.17Q210.61 70.33 210.28 71.55L210.34 71.60L210.29 71.56Q209.72 73.57 208.62 75.61ZM211.47 79.18L211.37 79.08L211.29 78.99Q212.84 75.92 213.61 69.70L213.58 69.67L213.51 69.60Q213.92 66.43 213.86 65.16L213.87 65.17L213.93 65.23Q213.81 62.46 212.10 61.14L212.18 61.22L211.80 61.11L211.79 61.11Q211.31 59.91 209.99 58.97L210.06 59.05L209.98 58.97Q206.63 57.49 199.69 57.27L199.86 57.43L199.78 57.35Q198.42 57.38 194.90 57.38L194.93 57.40L194.77 57.25Q192.37 57.38 190.22 58.37L190.13 58.28L190.18 58.32Q188.61 59.57 188.72 62.21L188.66 62.15L188.54 62.03Q188.92 63.46 189.20 66.38L189.23 66.41L189.19 66.37Q190.01 70.11 190.40 71.32L190.39 71.32L190.41 71.33Q191.21 74.01 192.59 75.88L192.75 76.04L192.61 75.90Q193.10 76.50 193.65 77.05L193.56 76.96L193.53 76.93Q194.07 77.74 195.00 79.07L194.86 78.93L194.94 79.00Q197.06 80.96 199.87 81.23L199.84 81.20L199.79 81.15Q197.18 85.15 194.92 87.91L194.79 87.77L189.63 94.17L189.57 94.12Q192.93 93.13 195.30 92.63L195.26 92.59L195.16 92.50Q194.23 93.93 191.98 96.41L191.90 96.34L191.92 96.36Q196.42 95.07 200.94 95.02L200.95 95.03L200.84 94.93Q204.30 91.28 210.58 80.81L210.45 80.69L210.42 80.77L210.41 80.76Q210.88 79.80 211.38 79.08ZM202.75 65.78L202.67 65.69L202.65 65.68Q203.62 65.60 204.28 65.77L204.19 65.68L204.25 65.74Q205.18 65.90 205.73 66.06L205.62 65.95L205.66 65.98Q205.97 66.68 206.08 67.29L205.97 67.18L206.05 67.26Q206.15 67.86 205.99 68.41L205.96 68.38L205.87 68.29Q205.93 70.88 204.22 72.48L204.11 72.36L204.17 72.43Q202.71 73.83 200.34 73.78L200.47 73.91L200.44 73.88Q199.89 73.93 197.69 73.49L197.57 73.37L197.65 73.45Q197.20 72.07 197.20 71.02L197.37 71.19L197.19 71.01Q197.18 70.73 197.18 70.40L197.08 70.30L197.22 70.43Q197.21 67.23 200.51 66.07L200.56 66.12L200.55 66.11Q201.47 65.70 202.68 65.70Z"/><path d="M5 95 C161 48,155 36,333 65" stroke="#c0e74a" fill="none"/><path d="M3 105 C179 19,192 14,336 31" stroke="#eaea51" fill="none"/><path d="M14 108 C183 64,162 80,321 109" stroke="#bfe64b" fill="none"/><path d="M16 52 C187 29,161 53,327 37" stroke="#f0f088" fill="none"/><path d="M2 34 C161 102,171 107,323 56" stroke="#e5b584" fill="none"/><path d="M10 26 C170 49,186 70,336 136" stroke="#e886d0" fill="none"/><path d="M20 52 C155 16,161 115,328 85" stroke="#83baf1" fill="none"/><path fill="#7d99ec" d="M59.11 92.28L59.08 92.25L59.03 92.20Q57.04 92.35 54.78 91.75L54.76 91.73L54.70 91.66Q53.05 90.45 52.83 88.09L52.65 87.91L52.68 87.94Q52.75 87.79 53.03 83.99L52.88 83.84L53.04 84.00Q54.39 83.59 57.31 83.04L57.36 83.10L57.07 84.18L57.02 84.13Q56.68 86.71 58.72 87.54L58.85 87.66L58.65 87.47Q59.93 88.08 62.95 88.08L62.97 88.10L62.94 88.07Q65.32 87.92 65.60 87.81L65.48 87.69L65.44 87.65Q66.76 87.43 67.81 86.71L67.83 86.74L67.88 86.78Q69.97 85.46 69.69 82.43L69.66 82.40L69.68 82.41Q69.37 78.86 66.86 76.60L66.89 76.63L66.79 76.53Q64.36 74.35 60.78 74.35L60.74 74.31L60.86 74.09L60.78 74.01Q61.25 73.88 62.52 73.77L62.57 73.82L62.52 73.77Q65.31 73.65 67.30 71.86L67.35 71.91L67.42 71.98Q69.27 70.06 69.49 67.36L69.48 67.35L69.50 67.37Q69.58 66.84 69.58 66.35L69.58 66.35L69.66 66.43Q69.56 64.12 67.57 62.80L67.66 62.88L67.72 62.94Q65.85 61.68 63.54 61.85L63.57 61.89L63.69 62.00Q61.69 61.65 59.93 62.26L59.88 62.21L60.04 62.37Q57.78 62.98 57.34 64.63L57.37 64.66L57.37 64.66Q57.14 65.80 57.25 66.90L57.33 66.98L57.29 66.94Q55.78 66.59 52.80 65.54L52.90 65.63L52.73 65.46Q52.47 63.11 52.52 61.90L52.44 61.82L52.57 61.95Q52.70 59.71 54.24 58.72L54.28 58.76L54.25 58.73Q56.32 57.88 58.64 57.88L58.51 57.76L58.68 57.92Q63.12 57.74 67.69 58.13L67.79 58.22L67.75 58.19Q74.95 58.67 74.51 64.12L74.57 64.18L74.64 64.25Q74.56 66.43 73.84 68.68L73.85 68.69L73.78 68.63Q72.39 73.02 68.98 74.34L69.11 74.47L69.11 74.47Q72.79 75.12 73.67 79.96L73.78 80.08L73.64 79.93Q74.07 81.68 74.18 84.60L74.12 84.55L74.15 84.57Q74.48 91.13 67.82 91.79L67.75 91.72L67.72 91.69Q66.65 91.77 58.99 92.16ZM66.59 95.46L66.55 95.42L66.61 95.48Q67.51 95.56 71.64 95.67L71.54 95.57L71.65 95.67Q74.13 95.73 76.49 94.79L76.54 94.84L76.54 94.84Q78.22 93.43 77.94 90.90L77.98 90.94L78.01 90.97Q77.76 88.95 77.32 86.42L77.26 86.36L77.38 86.48Q76.28 79.93 73.47 77.56L73.39 77.48L73.18 77.00L73.17 76.93L73.08 76.84Q75.59 74.72 76.69 68.39L76.73 68.43L76.77 68.48Q76.87 67.86 77.04 66.48L77.07 66.52L76.90 66.35Q77.10 65.34 76.99 64.34L76.95 64.30L77.02 64.37Q76.80 61.95 74.92 60.96L74.84 60.87L74.86 61.00L74.70 60.84Q74.27 59.42 72.62 58.65L72.65 58.68L72.76 58.79Q70.54 57.79 63.11 57.35L63.04 57.28L63.14 57.37Q60.66 57.21 58.35 57.21L58.35 57.21L58.23 57.09Q56.08 57.25 53.88 58.19L53.72 58.03L53.85 58.16Q52.00 59.18 52.00 61.71L52.07 61.78L52.12 61.83Q51.94 61.04 52.32 65.89L52.43 65.99L52.38 65.94Q52.94 66.17 55.31 67.05L55.18 66.93L55.23 66.97Q55.24 67.76 55.18 68.47L55.09 68.37L55.27 68.56Q55.27 69.27 55.32 70.04L55.22 69.94L55.24 69.96Q57.74 70.43 60.66 70.59L60.81 70.74L60.83 70.76Q60.59 67.71 62.18 66.50L62.12 66.43L62.13 66.44Q63.47 65.63 66.39 65.30L66.44 65.36L66.35 65.27Q68.07 65.34 68.90 65.61L68.87 65.58L68.73 65.45Q68.95 65.78 69.01 65.94L68.90 65.84L68.85 66.06L69.07 66.94L69.14 67.01Q69.11 67.26 69.06 67.48L69.02 67.44L69.13 67.55Q68.89 69.90 66.69 71.61L66.65 71.57L66.74 71.66Q65.43 72.99 62.51 73.26L62.58 73.34L62.56 73.32Q61.48 73.50 60.21 73.50L60.08 73.37L60.10 73.39Q60.25 73.97 60.47 74.97L60.51 75.01L60.45 74.95Q62.90 74.87 64.99 75.91L65.01 75.93L64.91 76.00L62.70 76.32L62.57 76.18Q62.68 76.73 62.84 77.62L62.87 77.64L62.96 77.73Q66.03 77.61 68.51 79.54L68.37 79.40L68.36 79.39Q68.80 80.05 69.24 82.42L69.17 82.35L69.28 82.46Q69.52 86.66 65.28 87.26L65.27 87.26L65.30 87.29Q62.26 87.66 61.44 87.61L61.32 87.49L61.41 87.59Q60.80 87.47 60.03 87.36L59.88 87.21L60.03 86.70L60.15 85.99L60.10 85.33L60.33 85.08L60.24 84.98Q58.89 85.12 57.73 85.39L57.76 85.42L57.65 85.31Q57.57 84.95 57.57 84.67L57.59 84.70L57.69 84.80Q57.67 84.45 57.67 84.12L57.70 84.14L57.68 84.13Q57.79 83.58 58.01 82.54L57.90 82.42L58.04 82.56Q55.34 82.89 52.64 83.39L52.63 83.37L52.54 83.28Q52.52 83.98 52.35 85.60L52.47 85.72L52.49 85.74Q52.24 87.28 52.24 88.16L52.21 88.13L52.17 88.08Q52.29 91.07 54.27 92.17L54.37 92.27L54.35 92.26Q56.46 95.52 63.28 95.24L63.42 95.37L63.22 95.18Q64.42 95.27 66.62 95.49Z"/><path d="M5 134 C179 45,164 102,332 27" stroke="#8ad1e9" fill="none"/><path d="M14 52 C171 92,162 88,330 36" stroke="#663edf" fill="none"/><path fill="#79b2eb" d="M127.95 92.24L127.93 92.21L128.04 92.32Q122.15 92.66 120.72 89.30L120.54 89.12L120.67 89.25Q121.81 87.91 124.06 85.32L123.98 85.24L124.07 85.33Q124.62 88.08 128.97 88.24L129.08 88.36L129.02 88.29Q134.02 88.51 136.39 86.58L136.26 86.45L136.27 86.46Q138.34 84.18 138.23 80.27L138.21 80.25L138.18 80.22Q137.99 72.92 131.05 73.25L131.01 73.21L131.10 73.30Q126.95 73.45 124.42 75.26L124.53 75.38L123.90 74.97L123.79 74.97L123.66 74.84Q124.17 70.29 124.01 66.32L124.08 66.40L124.01 66.32Q123.86 62.54 123.36 57.75L123.40 57.79L123.41 57.79Q128.63 59.10 134.14 58.94L134.22 59.02L134.25 59.06Q139.73 58.91 144.90 57.10L144.94 57.13L144.03 59.26L143.98 59.21Q143.68 60.44 143.40 61.66L143.24 61.49L143.36 61.61Q138.82 63.07 133.20 63.07L133.19 63.06L133.29 63.16Q131.06 63.03 128.92 62.81L128.94 62.83L128.86 62.75Q128.86 63.85 128.37 70.30L128.42 70.35L128.33 70.26Q129.65 69.71 132.62 69.49L132.62 69.48L132.50 69.36Q137.99 69.79 140.08 72.21L139.92 72.05L139.93 72.06Q142.01 74.36 142.40 79.92L142.47 79.99L142.38 79.90Q142.85 86.05 141.09 88.97L140.94 88.81L140.93 88.81Q138.07 91.62 133.28 91.95L133.32 91.99L133.36 92.03Q131.81 92.02 127.95 92.24ZM136.64 95.47L136.69 95.52L136.72 95.55Q141.58 95.57 144.33 93.97L144.34 93.98L144.50 94.14Q145.92 91.92 145.92 88.89L145.91 88.88L145.76 88.74Q145.87 84.38 144.49 78.43L144.46 78.40L144.57 78.52Q144.02 75.98 142.26 73.94L142.23 73.91L142.30 74.04L141.88 73.52L141.48 73.33L141.45 73.30Q141.00 72.24 140.06 71.25L140.10 71.30L140.02 71.27L140.10 71.35Q137.86 68.89 132.52 68.89L132.44 68.81L132.10 68.86L132.06 68.81Q132.25 68.07 132.52 66.47L132.51 66.46L132.41 66.36Q139.68 66.57 145.51 64.21L145.50 64.19L145.48 64.18Q146.23 62.28 147.61 58.20L147.43 58.03L144.41 59.41L144.45 59.45Q145.13 57.93 145.85 56.28L145.74 56.17L145.82 56.25Q140.16 58.24 134.21 58.35L134.20 58.35L134.28 58.42Q128.36 58.61 122.63 57.01L122.60 56.99L122.54 56.92Q123.58 63.36 123.58 69.75L123.64 69.81L123.64 69.81Q123.64 72.56 123.47 75.31L123.40 75.24L123.39 75.23Q123.80 75.53 124.63 75.97L124.69 76.04L124.62 75.97Q125.15 75.67 126.09 75.18L126.01 75.09L126.12 75.20Q126.04 76.29 125.71 78.49L125.57 78.35L125.65 78.42Q126.25 78.69 126.85 79.02L126.82 78.99L126.90 79.07Q130.96 76.58 133.66 76.58L133.66 76.58L133.59 76.51Q135.50 76.49 137.21 77.43L137.26 77.49L137.15 77.38Q137.79 79.00 137.84 80.38L137.84 80.37L137.69 80.23Q137.79 83.95 136.30 85.55L136.31 85.56L136.39 85.64Q134.49 87.48 131.24 87.81L131.09 87.66L131.18 87.76Q129.84 87.91 128.85 87.80L128.86 87.81L128.75 87.70Q127.50 87.49 126.40 87.00L126.53 87.12L126.47 86.79L126.35 87.00L126.26 86.91Q125.16 86.25 124.39 84.32L124.36 84.29L124.23 84.17Q122.34 86.24 119.91 89.32L119.96 89.37L119.98 89.38Q120.47 90.37 121.68 91.75L121.70 91.77L121.67 91.74Q123.24 94.41 127.32 95.13L127.32 95.13L127.24 95.05Q129.02 95.45 136.78 95.62Z"/><path d="M2 41 C155 100,156 131,328 125" stroke="#d96884" fill="none"/><path fill="#e45c5c" d="M263.91 87.15L264.04 87.29L263.95 87.20Q265.63 88.55 267.67 88.33L267.59 88.25L267.78 88.44Q271.91 88.61 272.85 83.76L272.92 83.83L272.80 83.71Q273.80 79.26 273.80 74.36L273.74 74.30L273.71 70.53L273.66 70.48Q273.67 68.67 273.17 66.85L273.23 66.91L273.30 66.97Q271.46 70.26 268.60 77.14L268.59 77.13L268.57 77.11Q265.79 84.08 264.03 87.27ZM271.18 63.31L271.16 63.30L271.29 63.42Q269.60 62.23 267.67 62.23L267.70 62.25L267.58 62.14Q265.52 62.01 263.92 63.33L264.02 63.42L263.91 63.31Q262.40 64.72 262.12 66.87L262.03 66.77L262.14 66.88Q261.61 68.83 261.55 70.98L261.51 70.93L261.55 70.98Q261.47 70.89 261.47 75.02L261.60 75.15L261.50 75.05Q261.46 78.43 262.12 83.66L262.15 83.69L262.21 83.75Q264.87 76.77 271.20 63.34ZM273.46 90.54L273.43 90.51L273.53 90.61Q271.07 92.01 267.71 92.01L267.70 91.99L265.20 91.86L265.35 92.01Q260.57 91.91 258.92 89.43L258.86 89.38L258.96 89.48Q257.86 86.39 257.75 82.15L257.70 82.10L257.61 82.01Q257.62 79.54 257.51 74.53L257.39 74.42L257.52 74.54Q257.53 72.85 257.31 68.45L257.16 68.30L257.22 68.36Q257.08 65.02 257.52 62.16L257.53 62.16L257.48 62.11Q258.25 57.93 264.53 57.60L264.48 57.56L264.50 57.57Q265.56 57.47 267.49 57.53L267.50 57.54L267.54 57.58Q275.80 57.86 277.35 62.87L277.31 62.84L277.33 62.86Q278.22 65.62 278.17 68.32L278.18 68.34L278.11 68.26Q277.96 75.44 277.85 77.20L277.98 77.33L278.00 77.35Q277.69 82.82 277.25 84.69L277.30 84.75L277.21 84.66Q276.31 89.20 273.56 90.64ZM280.74 90.33L280.69 90.29L280.76 90.35Q281.03 86.27 280.97 83.68L280.87 83.58L280.88 77.04L280.85 77.01Q280.71 72.63 279.94 64.64L279.89 64.59L279.87 64.57Q279.19 62.02 277.32 60.92L277.36 60.97L277.37 60.97Q274.97 57.14 267.48 56.92L267.62 57.06L267.62 57.06Q266.21 56.86 264.29 56.92L264.35 56.98L264.46 57.09Q257.85 57.15 257.14 61.66L257.12 61.65L257.08 61.60Q256.56 64.99 256.72 68.02L256.65 67.95L256.69 67.98Q257.21 74.34 257.15 79.19L257.17 79.21L257.07 79.11Q257.03 84.46 257.19 85.95L257.22 85.97L257.27 86.02Q257.91 90.57 260.11 91.73L260.11 91.73L260.10 91.72Q262.17 94.84 267.95 95.22L267.86 95.12L267.86 95.13Q273.03 95.45 273.97 95.40L274.06 95.49L273.97 95.40Q278.22 95.30 279.87 92.99L279.86 92.97L279.93 93.05Q280.66 92.07 280.77 90.36ZM268.23 87.79L268.22 87.77L268.24 87.80Q269.32 85.79 270.86 81.88L270.83 81.86L273.29 75.73L273.23 75.66Q273.24 78.09 272.69 82.94L272.60 82.85L272.72 82.97Q271.69 87.06 268.22 87.78ZM265.33 69.97L265.44 70.08L265.42 70.05Q266.01 67.40 267.00 66.57L266.96 66.53L266.92 66.49Q267.74 66.04 269.61 65.76L269.59 65.74L269.60 65.76Q267.00 70.92 264.30 77.64L264.33 77.67L264.36 77.70Q264.35 73.78 265.34 69.98Z"/><path d="M3 101 C152 129,184 74,329 20" stroke="#d78eef" fill="none"/><path d="M16 131 C187 104,184 42,325 72" stroke="#45d78e" fill="none"/><path d="M19 116 C150 97,174 97,328 123" stroke="#ea5177" fill="none"/><path d="M6 106 C157 76,190 47,333 83" stroke="#e7446d" fill="none"/><path d="M6 58 C168 59,152 106,325 51" stroke="#e34949" fill="none"/><path d="M20 13 C183 30,180 68,341 46" stroke="#e494d0" fill="none"/><path d="M19 136 C155 116,184 18,335 88" stroke="#e763e7" fill="none"/><path d="M13 139 C161 106,190 7,327 113" stroke="#94e494" fill="none"/><path d="M3 66 C162 4,164 56,329 38" stroke="#bfdd63" fill="none"/><path d="M2 34 C156 131,184 104,336 137" stroke="#dbdb5b" fill="none"/><path d="M16 94 C184 124,171 70,339 96" stroke="#70e48d" fill="none"/><path d="M13 81 C185 62,170 39,326 41" stroke="#ac98e5" fill="none"/><path d="M5 30 C164 106,152 63,322 8" stroke="#7ccde8" fill="none"/><path d="M19 66 C168 98,161 44,337 24" stroke="#81e881" fill="none"/><path d="M10 92 C164 10,182 96,327 126" stroke="#6ee7c9" fill="none"/><path d="M4 107 C177 38,173 21,324 7" stroke="#8c8ced" fill="none"/><path d="M15 54 C191 120,178 129,335 53" stroke="#e83f93" fill="none"/><path d="M2 1 C170 103,164 112,331 130" stroke="#8181e3" fill="none"/><path d="M2 109 C173 56,171 26,321 33" stroke="#a893e5" fill="none"/><path d="M10 79 C155 79,171 37,330 137" stroke="#c9e475" fill="none"/><path d="M5 108 C180 2,151 83,323 59" stroke="#3ae73a" fill="none"/><path d="M16 33 C167 25,162 108,336 35" stroke="#44d869" fill="none"/><path d="M19 19 C173 82,159 111,328 52" stroke="#e46b89" fill="none"/><path d="M13 74 C163 21,168 56,330 37" stroke="#e6c050" fill="none"/></svg>