<svg xmlns="http://www.w3.org/2000/svg" width="342" height="140" viewBox="0,0,342,140"><path d="M2 9 C151 123,182 8,327 50" stroke="#ea4cc2" fill="none"/><path d="M18 93 C164 81,173 3,325 100" stroke="#89e56a" fill="none"/><path d="M7 6 C183 67,167 66,334 25" stroke="#eb88d2" fill="none"/><path fill="#df6b6b" d="M130.40 77.58L130.53 77.72L130.47 77.66Q126.96 77.33 124.67 79.98L124.70 80.02L124.85 80.17Q122.42 82.69 122.07 86.22L122.16 86.31L122.05 86.21Q121.65 90.05 123.67 91.85L123.71 91.89L123.73 91.92Q125.72 93.69 129.61 93.48L129.62 93.49L129.59 93.46Q133.50 93.20 135.55 91.92L135.52 91.89L135.61 91.99Q137.71 89.92 137.71 87.02L137.59 86.90L137.64 86.95Q137.66 86.26 137.52 85.55L137.48 85.51L137.61 85.64Q137.69 82.47 135.64 79.96L135.61 79.93L135.68 80.00Q133.55 77.41 130.44 77.62ZM129.63 98.23L129.59 98.20L129.77 98.38Q121.45 98.19 118.83 96.77L118.97 96.91L118.90 96.84Q117.03 95.47 116.68 92.28L116.63 92.24L116.59 92.19Q116.60 91.00 116.67 89.66L116.60 89.59L116.66 89.65Q116.90 87.84 116.90 86.99L116.83 86.92L116.97 87.06Q117.66 81.60 117.94 80.33L118.11 80.49L117.97 80.36Q118.80 76.73 120.35 74.11L120.45 74.21L120.43 74.20Q125.39 66.07 136.42 54.26L136.48 54.32L136.37 54.21Q141.42 53.75 145.52 52.26L145.53 52.27L145.47 52.21Q132.63 65.96 126.69 73.80L126.76 73.88L126.74 73.85Q128.61 72.97 131.01 72.97L130.98 72.93L130.92 72.87Q137.09 72.89 139.91 76.50L140.02 76.60L140.09 76.67Q142.40 79.54 143.03 86.12L143.10 86.18L143.09 86.18Q143.28 87.57 143.28 88.70L143.34 88.76L143.20 88.62Q143.17 94.39 139.07 96.37L139.08 96.38L139.10 96.40Q136.92 97.61 129.71 98.32ZM134.00 102.82L133.83 102.65L133.82 102.64Q136.37 102.72 140.05 102.86L140.04 102.85L140.02 102.83Q143.03 102.94 145.93 101.59L145.85 101.52L145.88 101.55Q147.94 100.08 147.94 96.75L147.94 96.75L148.04 96.85Q148.05 95.95 147.74 94.11L147.76 94.13L147.58 93.95Q147.33 92.19 147.33 91.34L147.31 91.31L147.33 91.33Q145.81 82.68 142.84 79.14L142.70 78.99L142.80 79.10Q142.54 78.76 142.25 78.34L142.34 78.42L141.81 78.04L141.53 77.83L141.64 77.93Q140.92 76.94 139.79 75.17L139.78 75.16L139.83 75.21Q138.12 73.43 134.45 72.58L134.51 72.64L134.56 72.70Q136.76 69.66 142.27 62.80L142.31 62.84L150.18 53.04L150.05 52.91Q147.27 54.65 142.81 56.06L142.66 55.91L142.82 56.07Q144.41 54.13 147.74 50.45L147.82 50.54L147.81 50.52Q143.26 52.40 136.04 53.46L136.13 53.55L136.10 53.52Q125.51 64.49 119.99 73.68L120.06 73.75L119.98 73.67Q117.26 78.44 116.20 90.04L116.06 89.90L116.18 90.02Q115.87 90.91 116.01 92.68L116.20 92.86L116.00 92.67Q116.14 95.92 118.19 97.62L118.38 97.81L118.21 97.64Q118.91 97.91 118.84 97.99L118.91 98.05L118.93 98.08Q119.58 99.71 121.06 100.49L121.04 100.46L121.08 100.51Q123.75 101.77 127.36 102.12L127.47 102.23L127.36 102.12Q127.32 102.08 133.82 102.64ZM133.39 81.78L133.56 81.95L133.59 81.97Q134.52 81.63 136.29 82.55L136.40 82.67L136.22 82.49Q136.95 84.35 136.95 85.55L136.88 85.48L137.02 85.62Q137.22 88.93 135.45 90.77L135.47 90.79L135.62 90.93Q133.48 92.11 129.59 92.68L129.74 92.84L129.59 92.69Q127.04 92.82 126.05 92.32L126.01 92.28L125.91 92.18Q125.74 91.52 125.74 90.95L125.61 90.83L125.72 90.94Q125.32 84.87 130.76 82.47L130.76 82.47L130.58 82.29Q132.02 81.68 133.43 81.82Z"/><path d="M9 79 C171 32,163 60,340 99" stroke="#7ef0f0" fill="none"/><path d="M11 46 C179 42,170 25,328 23" stroke="#7993e0" fill="none"/><path d="M9 84 C162 104,181 123,329 23" stroke="#eaca6a" fill="none"/><path d="M17 107 C176 133,167 103,325 69" stroke="#5676d6" fill="none"/><path d="M17 131 C180 9,174 10,326 37" stroke="#a5e467" fill="none"/><path d="M10 129 C180 54,161 132,329 57" stroke="#e68ed0" fill="none"/><path d="M5 34 C187 39,160 10,326 102" stroke="#dda369" fill="none"/><path d="M3 131 C172 115,160 59,335 12" stroke="#e0b842" fill="none"/><path d="M4 66 C153 96,173 13,326 102" stroke="#93db4c" fill="none"/><path d="M15 108 C186 111,153 19,327 113" stroke="#98e5bf" fill="none"/><path d="M4 9 C161 75,188 114,331 90" stroke="#d0e886" fill="none"/><path d="M9 13 C161 12,183 35,329 115" stroke="#e97852" fill="none"/><path fill="#8565e6" d="M198.48 77.66L198.39 77.57L198.50 77.69Q194.96 77.33 192.66 79.98L192.80 80.12L192.71 80.02Q190.37 82.64 190.02 86.17L190.03 86.18L190.12 86.28Q189.72 90.12 191.73 91.92L191.60 91.79L191.68 91.87Q193.72 93.69 197.61 93.48L197.64 93.51L197.58 93.45Q201.53 93.22 203.58 91.95L203.45 91.82L203.49 91.87Q205.73 89.94 205.73 87.04L205.62 86.93L205.61 86.92Q205.68 86.28 205.54 85.57L205.61 85.64L205.51 85.54Q205.59 82.37 203.54 79.86L203.61 79.93L203.63 79.95Q201.48 77.35 198.37 77.56ZM197.76 98.37L197.70 98.31L197.69 98.30Q189.56 98.29 186.94 96.88L186.98 96.92L186.92 96.86Q185.08 95.52 184.73 92.33L184.67 92.28L184.59 92.19Q184.63 91.04 184.70 89.69L184.64 89.63L184.74 89.73Q184.87 87.81 184.87 86.96L184.90 86.99L184.84 86.93Q185.66 81.60 185.95 80.33L185.96 80.34L186.07 80.45Q186.79 76.72 188.34 74.10L188.49 74.25L188.47 74.23Q193.33 66.01 204.36 54.20L204.47 54.32L204.35 54.19Q209.38 53.71 213.48 52.22L213.51 52.26L213.49 52.24Q200.68 66.01 194.74 73.86L194.87 73.98L194.77 73.88Q196.53 72.89 198.93 72.89L199.06 73.02L198.95 72.91Q205.27 73.07 208.09 76.67L207.95 76.54L207.99 76.57Q210.54 79.68 211.17 86.26L211.08 86.16L211.04 86.13Q211.18 87.47 211.18 88.60L211.19 88.61L211.22 88.64Q211.32 94.53 207.22 96.51L207.08 96.38L207.20 96.50Q204.81 97.50 197.60 98.21ZM201.86 102.68L201.85 102.67L201.93 102.75Q204.37 102.71 208.04 102.85L208.09 102.90L207.94 102.75Q211.06 102.97 213.96 101.63L213.94 101.61L213.87 101.54Q216.06 100.19 216.06 96.87L216.03 96.85L215.92 96.73Q216.02 95.91 215.70 94.07L215.62 93.99L215.58 93.96Q215.37 92.22 215.37 91.38L215.28 91.29L215.37 91.38Q213.76 82.62 210.79 79.09L210.67 78.96L210.84 79.14Q210.62 78.85 210.34 78.42L210.29 78.38L209.86 78.08L209.68 77.97L209.67 77.97Q208.95 76.96 207.82 75.20L207.77 75.15L207.88 75.26Q206.07 73.38 202.40 72.53L202.55 72.69L202.46 72.60Q204.75 69.66 210.27 62.80L210.23 62.76L218.12 52.98L218.01 52.87Q215.29 54.67 210.84 56.09L210.66 55.91L210.70 55.95Q212.52 54.24 215.84 50.56L215.70 50.41L215.69 50.40Q211.32 52.47 204.11 53.53L204.08 53.50L204.08 53.50Q193.43 64.41 187.91 73.60L187.89 73.58L187.91 73.60Q185.07 78.25 184.01 89.84L184.19 90.03L184.15 89.99Q183.90 90.94 184.04 92.71L184.07 92.73L184.13 92.80Q184.18 95.96 186.23 97.66L186.32 97.75L186.35 97.78Q186.98 97.98 186.91 98.05L186.94 98.08L186.90 98.04Q187.64 99.78 189.13 100.55L189.03 100.45L189.10 100.52Q191.86 101.87 195.46 102.22L195.49 102.25L195.51 102.26Q195.36 102.12 201.86 102.68ZM201.55 81.93L201.58 81.96L201.51 81.90Q202.60 81.72 204.37 82.63L204.30 82.57L204.38 82.64Q204.97 84.37 204.97 85.57L204.93 85.53L204.93 85.53Q205.31 89.02 203.55 90.86L203.48 90.79L203.61 90.92Q201.61 92.25 197.72 92.82L197.77 92.86L197.63 92.72Q194.94 92.72 193.95 92.23L194.07 92.35L193.90 92.17Q193.73 91.51 193.73 90.94L193.58 90.79L193.63 90.84Q193.31 84.86 198.75 82.46L198.64 82.35L198.66 82.37Q200.13 81.79 201.54 81.93Z"/><path d="M5 77 C153 4,186 100,329 81" stroke="#9645e6" fill="none"/><path d="M7 109 C175 87,184 117,335 40" stroke="#4fd391" fill="none"/><path d="M18 120 C188 71,179 81,322 58" stroke="#e03862" fill="none"/><path fill="#baed87" d="M267.78 67.09L267.73 67.04L267.71 67.02Q261.70 66.95 258.31 64.97L258.38 65.04L258.34 65.00Q263.11 62.56 272.16 54.71L272.02 54.57L272.20 54.76Q273.40 54.26 275.81 53.13L275.80 53.12L275.91 53.23Q273.47 64.30 273.26 76.10L273.09 75.93L273.12 75.96Q272.91 87.77 274.89 99.09L274.96 99.15L274.89 99.08Q271.89 97.85 267.93 97.64L267.83 97.54L267.88 97.59Q267.69 89.90 267.69 82.34L267.67 82.32L267.73 82.38Q267.61 74.63 267.68 66.99ZM267.03 71.22L267.06 98.32L266.99 98.26Q269.32 98.32 271.08 98.67L271.13 98.71L270.97 98.55Q271.14 99.86 271.49 102.40L271.56 102.47L271.49 102.40Q276.92 103.52 281.45 107.69L281.37 107.61L281.35 107.60Q276.83 94.45 276.76 80.59L276.62 80.46L276.62 80.45Q276.64 66.76 280.04 53.33L280.01 53.30L279.96 53.25Q279.04 54.10 276.07 56.15L276.02 56.10L275.98 56.06Q276.43 54.74 277.00 51.92L276.94 51.86L276.97 51.88Q274.35 53.16 271.66 53.86L271.75 53.95L271.67 53.87Q264.67 60.51 256.68 64.75L256.81 64.88L256.72 64.79Q259.34 66.85 263.72 67.49L263.84 67.60L263.74 67.51Q262.50 68.45 260.09 70.43L260.09 70.42L260.20 70.54Q262.83 71.12 266.93 71.12L267.09 71.28Z"/><path d="M19 30 C184 135,192 104,333 124" stroke="#e655e6" fill="none"/><path d="M1 86 C152 107,159 80,341 62" stroke="#e67ee6" fill="none"/><path d="M3 79 C178 126,176 98,335 135" stroke="#ade971" fill="none"/><path d="M18 60 C186 68,164 126,332 77" stroke="#eeee71" fill="none"/><path d="M15 138 C151 102,163 125,326 103" stroke="#e895d3" fill="none"/><path d="M18 8 C173 46,189 84,328 112" stroke="#68cced" fill="none"/><path d="M6 33 C150 113,151 22,324 88" stroke="#e4436b" fill="none"/><path d="M7 61 C161 101,188 52,340 32" stroke="#8b8be3" fill="none"/><path fill="#d24bb0" d="M56.40 98.41L56.57 98.58L56.57 98.58Q53.83 98.60 50.93 97.82L51.02 97.92L51.04 97.94Q48.72 96.18 48.43 93.14L48.51 93.21L48.33 93.04Q48.27 92.69 48.62 87.81L48.79 87.98L48.72 87.91Q50.58 87.50 54.33 86.80L54.42 86.89L54.09 88.33L54.02 88.26Q53.45 91.44 56.07 92.50L56.22 92.65L56.06 92.49Q57.63 93.21 61.51 93.21L61.58 93.27L61.49 93.19Q64.47 92.91 64.82 92.77L64.79 92.74L64.90 92.84Q66.56 92.53 67.90 91.61L67.78 91.49L67.93 91.63Q70.45 89.77 70.09 85.88L70.08 85.86L70.18 85.96Q69.70 81.31 66.48 78.41L66.47 78.40L66.63 78.56Q63.30 75.55 58.70 75.55L58.79 75.64L58.79 75.21L58.74 75.16Q59.36 75.01 60.99 74.87L61.11 74.99L61.12 75.00Q64.68 74.81 67.23 72.51L67.17 72.46L67.10 72.39Q69.66 70.11 69.95 66.64L70.07 66.76L69.88 66.58Q70.19 66.11 70.19 65.47L70.16 65.45L70.22 65.50Q70.11 62.56 67.56 60.87L67.63 60.94L67.56 60.86Q65.34 59.42 62.37 59.63L62.26 59.52L62.34 59.61Q59.88 59.27 57.62 60.05L57.72 60.14L57.72 60.15Q54.90 61.00 54.34 63.12L54.36 63.14L54.40 63.19Q54.17 64.73 54.31 66.14L54.15 65.98L54.18 66.01Q52.24 65.55 48.42 64.21L48.39 64.17L48.49 64.28Q48.08 61.18 48.15 59.62L48.07 59.54L48.16 59.63Q48.42 56.85 50.40 55.58L50.25 55.43L50.39 55.57Q52.92 54.35 55.89 54.35L55.97 54.43L55.99 54.46Q61.72 54.25 67.59 54.74L67.63 54.78L67.70 54.85Q77.04 55.57 76.48 62.57L76.44 62.53L76.55 62.64Q76.41 65.40 75.49 68.30L75.48 68.29L75.48 68.28Q73.74 73.97 69.36 75.67L69.41 75.72L69.41 75.72Q74.16 76.58 75.29 82.80L75.25 82.77L75.26 82.78Q75.72 84.93 75.86 88.67L75.90 88.71L75.97 88.79Q76.16 96.97 67.61 97.82L67.65 97.86L67.58 97.78Q66.29 97.98 56.46 98.48ZM66.15 102.65L66.15 102.65L66.19 102.69Q67.23 102.67 72.53 102.81L72.58 102.86L72.58 102.86Q75.77 102.94 78.81 101.74L78.82 101.75L78.82 101.75Q80.98 99.95 80.63 96.70L80.64 96.71L80.70 96.77Q80.53 94.33 79.96 91.08L79.99 91.11L79.95 91.07Q78.62 82.74 75.01 79.70L75.03 79.72L74.71 79.04L74.66 78.93L74.55 78.81Q77.79 76.12 79.21 67.99L79.25 68.03L79.24 68.01Q79.36 67.22 79.57 65.45L79.57 65.45L79.59 65.47Q79.66 63.99 79.52 62.71L79.51 62.70L79.55 62.75Q79.23 59.60 76.83 58.33L76.78 58.28L76.76 58.40L76.72 58.36Q76.18 56.55 74.06 55.56L74.05 55.54L73.99 55.49Q71.16 54.21 61.61 53.64L61.59 53.62L61.56 53.59Q58.53 53.53 55.56 53.53L55.58 53.55L55.58 53.55Q52.67 53.61 49.84 54.81L49.79 54.76L49.73 54.70Q47.44 56.09 47.44 59.34L47.48 59.38L47.57 59.47Q47.47 58.59 47.97 64.81L47.97 64.82L48.08 64.93Q48.49 64.91 51.53 66.05L51.64 66.16L51.51 66.02Q51.55 67.06 51.48 67.98L51.48 67.98L51.50 68.00Q51.50 68.91 51.57 69.90L51.50 69.83L51.57 69.91Q54.94 70.66 58.69 70.87L58.64 70.82L58.61 70.79Q58.47 67.05 60.52 65.49L60.51 65.47L60.64 65.61Q62.13 64.34 65.87 63.91L65.82 63.86L65.79 63.83Q67.94 63.86 69.00 64.21L69.11 64.32L69.05 64.27Q69.07 64.42 69.14 64.64L69.25 64.75L69.11 64.96L69.51 66.21L69.33 66.03Q69.36 66.41 69.29 66.69L69.42 66.83L69.31 66.72Q69.22 69.95 66.39 72.14L66.37 72.11L66.32 72.06Q64.70 73.84 60.95 74.19L61.02 74.26L60.85 74.09Q59.57 74.43 57.94 74.43L57.98 74.48L58.00 74.49Q58.12 75.18 58.41 76.46L58.34 76.39L58.33 76.38Q61.58 76.38 64.27 77.72L64.20 77.65L64.08 77.75L61.11 78.02L61.20 78.12Q61.11 78.60 61.33 79.73L61.37 79.77L61.49 79.89Q65.42 79.73 68.61 82.20L68.66 82.26L68.65 82.25Q69.07 82.95 69.64 85.99L69.56 85.91L69.53 85.88Q69.98 91.43 64.54 92.20L64.39 92.05L64.52 92.19Q60.52 92.57 59.46 92.50L59.44 92.47L59.60 92.64Q58.67 92.34 57.68 92.20L57.66 92.19L57.77 91.44L57.94 90.55L57.88 89.71L58.06 89.25L58.09 89.29Q56.17 89.28 54.69 89.63L54.70 89.65L54.73 89.67Q54.66 89.26 54.66 88.90L54.63 88.87L54.69 88.93Q54.77 88.59 54.77 88.16L54.75 88.15L54.81 88.20Q54.79 87.33 55.07 85.99L55.17 86.09L55.04 85.96Q51.76 86.57 48.30 87.20L48.24 87.15L48.19 87.10Q48.13 87.95 47.91 90.04L48.06 90.18L47.96 90.08Q47.69 92.11 47.69 93.24L47.79 93.34L47.77 93.32Q47.82 97.05 50.37 98.46L50.56 98.65L50.50 98.60Q53.18 102.76 61.95 102.41L62.08 102.54L61.95 102.42Q63.24 102.29 66.07 102.57Z"/><path d="M21 34 C154 120,162 135,340 25" stroke="#68e3a5" fill="none"/><path d="M19 11 C178 72,181 42,337 42" stroke="#bd56e0" fill="none"/><path d="M20 107 C166 63,166 107,333 94" stroke="#6b89e4" fill="none"/><path d="M6 35 C188 54,190 19,338 50" stroke="#aadf76" fill="none"/><path d="M18 130 C170 115,162 86,328 110" stroke="#dc934b" fill="none"/><path d="M1 40 C164 117,157 113,325 113" stroke="#59dd59" fill="none"/><path d="M11 115 C159 78,150 93,337 105" stroke="#df75aa" fill="none"/><path d="M7 29 C158 25,182 15,323 71" stroke="#86e368" fill="none"/><path d="M8 106 C185 62,183 36,332 21" stroke="#7de65a" fill="none"/><path d="M4 103 C184 41,169 61,326 127" stroke="#7feab5" fill="none"/><path d="M1 75 C167 46,177 62,322 85" stroke="#78ec78" fill="none"/><path d="M3 88 C169 119,167 51,328 44" stroke="#7de759" fill="none"/><path d="M13 92 C184 133,159 38,329 89" stroke="#bfe797" fill="none"/><path d="M10 39 C171 90,161 26,336 130" stroke="#df9075" fill="none"/></svg>