<svg xmlns="http://www.w3.org/2000/svg" width="342" height="140" viewBox="0,0,342,140"><path d="M20 138 C166 43,166 83,324 12" stroke="#4c70db" fill="none"/><path d="M9 102 C184 124,181 106,323 60" stroke="#9ced82" fill="none"/><path d="M16 3 C156 117,156 72,333 46" stroke="#e476ad" fill="none"/><path d="M17 95 C159 12,170 16,335 85" stroke="#e1b588" fill="none"/><path d="M10 66 C187 122,156 87,338 104" stroke="#eaa561" fill="none"/><path d="M4 52 C185 17,154 106,337 33" stroke="#6683db" fill="none"/><path d="M4 15 C176 78,182 116,321 112" stroke="#e146ba" fill="none"/><path d="M10 126 C180 53,168 104,334 65" stroke="#de4ede" fill="none"/><path d="M2 128 C152 76,177 62,327 9" stroke="#79f0b5" fill="none"/><path fill="#4ae296" d="M166.58 67.65L166.47 67.54L166.59 67.66Q161.60 67.52 158.83 65.90L158.83 65.91L158.94 66.02Q162.66 63.85 170.06 57.43L170.13 57.50L170.01 57.39Q171.27 57.26 173.24 56.34L173.22 56.32L173.19 56.28Q171.15 65.29 170.98 74.94L171.02 74.97L170.99 74.95Q170.82 84.60 172.44 93.85L172.44 93.85L172.39 93.80Q169.86 92.71 166.62 92.54L166.56 92.47L166.67 92.59Q166.50 86.29 166.50 80.11L166.55 80.15L166.48 80.09Q166.49 73.85 166.55 67.61ZM165.87 70.93L165.87 93.06L165.98 93.17Q167.74 93.08 169.18 93.37L169.24 93.42L169.30 93.49Q169.32 94.43 169.61 96.51L169.63 96.52L169.61 96.51Q173.87 97.24 177.57 100.65L177.69 100.77L177.72 100.81Q173.96 90.00 173.90 78.67L173.80 78.57L173.79 78.55Q173.79 67.35 176.57 56.37L176.54 56.35L176.51 56.31Q175.68 56.93 173.25 58.60L173.36 58.71L173.17 58.53Q173.64 57.54 174.10 55.23L173.93 55.06L174.03 55.17Q171.98 56.29 169.78 56.87L169.86 56.94L169.76 56.84Q163.98 62.22 157.45 65.68L157.52 65.76L157.61 65.84Q159.65 67.42 163.23 67.94L163.31 68.01L163.17 67.88Q162.25 68.75 160.28 70.37L160.41 70.50L160.30 70.38Q162.50 70.90 165.85 70.90L165.97 71.03Z"/><path d="M4 74 C156 87,181 91,323 129" stroke="#e4e48f" fill="none"/><path d="M19 114 C187 11,153 109,338 105" stroke="#90ef70" fill="none"/><path d="M17 60 C172 16,152 113,323 42" stroke="#bf8cf2" fill="none"/><path d="M13 98 C164 15,163 76,338 16" stroke="#e8cd7c" fill="none"/><path d="M5 39 C174 110,179 6,337 139" stroke="#67c1de" fill="none"/><path d="M9 59 C173 3,166 50,340 89" stroke="#7f9bef" fill="none"/><path d="M9 46 C161 125,188 28,325 95" stroke="#a868e8" fill="none"/><path d="M3 14 C163 121,191 84,322 82" stroke="#42db68" fill="none"/><path fill="#db9e61" d="M274.94 93.39L274.89 93.34L274.98 93.42Q268.78 93.76 267.28 90.24L267.27 90.22L267.29 90.24Q268.34 88.69 270.71 85.98L270.70 85.97L270.72 85.99Q271.40 88.98 275.96 89.15L275.99 89.18L276.02 89.21Q281.11 89.28 283.60 87.25L283.70 87.35L283.75 87.40Q285.80 84.89 285.69 80.79L285.80 80.90L285.73 80.83Q285.51 73.16 278.23 73.51L278.10 73.38L278.21 73.48Q274.00 73.78 271.34 75.69L271.28 75.63L270.74 75.32L270.53 75.23L270.41 75.10Q270.95 70.33 270.77 66.17L270.88 66.27L270.78 66.18Q270.56 62.14 270.04 57.11L270.11 57.18L270.18 57.25Q275.56 58.52 281.33 58.35L281.51 58.52L281.38 58.40Q287.17 58.29 292.60 56.38L292.63 56.42L291.86 58.83L291.79 58.75Q291.25 59.83 290.96 61.10L291.07 61.21L291.02 61.16Q286.29 62.73 280.40 62.73L280.46 62.79L280.33 62.67Q278.13 62.66 275.88 62.43L276.01 62.56L275.88 62.43Q275.79 63.50 275.27 70.26L275.29 70.27L275.34 70.33Q276.62 69.64 279.74 69.41L279.62 69.29L279.69 69.36Q285.32 69.68 287.52 72.22L287.50 72.21L287.52 72.22Q289.67 74.60 290.07 80.43L290.04 80.40L290.01 80.37Q290.36 86.68 288.51 89.74L288.67 89.90L288.59 89.81Q285.55 92.73 280.52 93.08L280.46 93.02L280.60 93.16Q278.89 93.06 274.85 93.29ZM284.16 96.88L284.00 96.73L284.07 96.79Q289.33 96.97 292.21 95.29L292.21 95.29L292.25 95.33Q293.64 92.90 293.64 89.72L293.66 89.75L293.60 89.68Q293.58 84.99 292.14 78.74L292.30 78.91L292.26 78.87Q291.69 76.22 289.84 74.08L289.83 74.07L289.93 74.23L289.55 73.74L289.04 73.45L289.07 73.48Q288.51 72.28 287.52 71.24L287.63 71.35L287.47 71.25L287.59 71.37Q285.24 68.78 279.63 68.78L279.62 68.77L279.20 68.75L279.13 68.69Q279.37 67.95 279.66 66.27L279.59 66.20L279.63 66.24Q287.30 66.51 293.43 64.03L293.29 63.89L293.30 63.90Q293.88 61.71 295.33 57.44L295.39 57.49L292.23 58.96L292.18 58.91Q292.88 57.30 293.63 55.57L293.62 55.56L293.49 55.43Q287.76 57.73 281.52 57.85L281.52 57.84L281.44 57.77Q275.34 58.08 269.33 56.40L269.29 56.36L269.20 56.27Q270.23 62.96 270.23 69.67L270.37 69.81L270.28 69.71Q270.26 72.58 270.08 75.47L270.11 75.50L270.11 75.50Q270.44 75.72 271.31 76.18L271.43 76.30L271.32 76.19Q271.84 75.84 272.82 75.32L272.82 75.32L272.89 75.39Q272.73 76.44 272.38 78.75L272.54 78.91L272.47 78.84Q273.19 79.21 273.83 79.56L273.68 79.42L273.83 79.57Q278.00 76.86 280.83 76.86L280.88 76.91L280.89 76.91Q282.89 76.89 284.68 77.88L284.68 77.87L284.64 77.83Q285.04 79.27 285.09 80.72L285.21 80.84L285.13 80.75Q285.22 84.66 283.66 86.33L283.66 86.33L283.69 86.36Q281.63 88.23 278.22 88.58L278.27 88.63L278.25 88.60Q276.84 88.75 275.80 88.64L275.68 88.52L275.70 88.54Q274.50 88.44 273.34 87.92L273.33 87.91L273.37 87.66L273.06 87.70L273.19 87.83Q271.81 86.91 271.00 84.88L271.18 85.06L270.99 84.87Q269.12 87.16 266.58 90.40L266.42 90.25L266.45 90.27Q267.05 91.39 268.32 92.84L268.32 92.84L268.28 92.79Q269.80 95.47 274.07 96.22L274.21 96.36L274.05 96.19Q275.85 96.55 284.00 96.72Z"/><path d="M6 43 C163 93,157 2,329 7" stroke="#7272e8" fill="none"/><path fill="#e37cc9" d="M47.34 93.37L47.32 93.36L47.27 93.31Q45.05 93.34 42.68 92.71L42.68 92.71L42.84 92.86Q40.92 91.41 40.69 88.92L40.58 88.82L40.60 88.83Q40.59 88.59 40.88 84.61L40.96 84.69L40.98 84.71Q42.52 84.40 45.58 83.82L45.56 83.80L45.17 84.86L45.28 84.96Q44.86 87.61 47.00 88.47L46.96 88.43L47.03 88.50Q48.12 88.90 51.30 88.90L51.38 88.99L51.43 89.03Q53.83 88.77 54.12 88.66L54.04 88.58L54.01 88.55Q55.46 88.38 56.55 87.63L56.48 87.55L56.45 87.53Q58.62 86.11 58.33 82.93L58.48 83.08L58.42 83.02Q58.19 79.38 55.56 77.02L55.52 76.97L55.51 76.96Q52.79 74.50 49.04 74.50L49.08 74.55L49.19 74.32L49.18 74.31Q49.70 74.19 51.03 74.07L51.05 74.09L51.01 74.06Q53.81 73.79 55.89 71.91L55.91 71.93L56.05 72.07Q58.07 70.13 58.30 67.30L58.20 67.20L58.38 67.37Q58.31 66.68 58.31 66.16L58.31 66.15L58.46 66.30Q58.44 63.97 56.36 62.58L56.38 62.61L56.31 62.54Q54.54 61.40 52.11 61.58L52.00 61.46L51.96 61.42Q50.05 61.24 48.20 61.88L48.27 61.95L48.29 61.97Q46.10 62.78 45.64 64.52L45.56 64.44L45.65 64.53Q45.32 65.65 45.44 66.80L45.40 66.77L45.44 66.81Q43.93 66.51 40.81 65.41L40.71 65.31L40.77 65.37Q40.34 62.75 40.40 61.48L40.38 61.46L40.39 61.47Q40.52 59.11 42.14 58.07L42.30 58.24L42.12 58.06Q44.43 57.30 46.86 57.30L46.79 57.23L46.71 57.15Q51.54 57.13 56.34 57.53L56.30 57.50L56.46 57.66Q64.13 58.28 63.67 64.00L63.68 64.01L63.59 63.92Q63.51 66.21 62.76 68.58L62.71 68.53L62.64 68.47Q61.44 73.33 57.86 74.71L57.83 74.69L57.77 74.63Q61.83 75.51 62.75 80.59L62.63 80.47L62.74 80.58Q62.99 82.21 63.10 85.28L63.23 85.41L63.05 85.23Q63.33 92.03 56.34 92.73L56.33 92.72L56.45 92.84Q55.20 92.80 47.17 93.21ZM55.18 96.71L55.13 96.66L55.23 96.76Q56.18 96.85 60.52 96.96L60.49 96.93L60.33 96.78Q63.09 97.00 65.58 96.02L65.52 95.95L65.54 95.98Q67.43 94.63 67.14 91.97L67.17 92.00L67.13 91.96Q66.95 89.93 66.48 87.27L66.50 87.29L66.41 87.19Q65.39 80.46 62.45 77.97L62.30 77.83L62.14 77.38L62.08 77.26L61.95 77.13Q64.64 74.96 65.79 68.32L65.78 68.30L65.88 68.41Q65.84 67.62 66.01 66.17L66.01 66.17L66.12 66.27Q66.16 65.04 66.04 64.00L66.11 64.07L66.17 64.13Q65.94 61.59 63.97 60.55L63.83 60.40L63.71 60.40L63.73 60.42Q63.32 58.97 61.58 58.16L61.64 58.21L61.53 58.10Q59.30 57.14 51.49 56.68L51.49 56.68L51.41 56.60Q49.02 56.63 46.59 56.63L46.50 56.54L46.42 56.46Q44.07 56.54 41.76 57.52L41.75 57.51L41.79 57.55Q39.83 58.60 39.83 61.26L39.98 61.40L39.93 61.35Q39.95 60.73 40.35 65.82L40.41 65.88L40.41 65.88Q40.74 65.86 43.23 66.79L43.18 66.74L43.18 66.74Q43.29 67.66 43.23 68.41L43.20 68.38L43.15 68.32Q43.22 69.15 43.28 69.96L43.19 69.87L43.32 70.00Q46.07 70.62 49.14 70.79L49.04 70.69L48.97 70.62Q48.84 67.54 50.51 66.27L50.61 66.37L50.60 66.36Q51.77 65.28 54.83 64.93L54.93 65.03L55.02 65.11Q56.68 65.04 57.54 65.33L57.62 65.41L57.44 65.22Q57.52 65.42 57.58 65.59L57.57 65.59L57.73 66.04L57.77 66.77L57.83 66.83Q57.89 67.18 57.84 67.41L57.86 67.44L57.86 67.44Q57.72 70.01 55.41 71.81L55.28 71.68L55.44 71.83Q53.86 73.03 50.80 73.32L50.97 73.49L50.88 73.40Q49.72 73.57 48.39 73.57L48.54 73.72L48.54 73.72Q48.58 74.22 48.81 75.26L48.71 75.16L48.73 75.18Q51.39 75.19 53.59 76.28L53.60 76.30L53.33 76.20L51.14 76.67L51.00 76.52Q51.09 77.07 51.26 78.00L51.37 78.11L51.30 78.04Q54.54 77.93 57.14 79.95L57.13 79.94L57.07 79.88Q57.49 80.53 57.95 83.01L58.03 83.09L57.87 82.93Q58.29 87.51 53.84 88.15L53.78 88.09L53.73 88.04Q50.63 88.52 49.77 88.47L49.65 88.35L49.82 88.52Q49.11 88.33 48.31 88.22L48.15 88.06L48.27 87.49L48.42 86.77L48.41 86.13L48.62 85.82L48.54 85.74Q47.09 85.85 45.88 86.14L45.82 86.08L45.94 86.20Q45.71 85.69 45.71 85.40L45.71 85.40L45.88 85.56Q45.84 85.18 45.84 84.83L45.91 84.90L45.91 84.89Q45.83 84.13 46.06 83.03L46.14 83.11L46.09 83.06Q43.30 83.45 40.47 83.97L40.39 83.89L40.52 84.01Q40.56 84.81 40.39 86.52L40.35 86.48L40.40 86.53Q40.10 88.10 40.10 89.03L40.18 89.11L40.06 88.99Q40.32 92.25 42.40 93.41L42.30 93.31L42.25 93.26Q44.51 96.73 51.68 96.45L51.77 96.54L51.81 96.57Q52.77 96.38 55.08 96.61Z"/><path d="M19 36 C180 65,172 9,324 128" stroke="#e4913e" fill="none"/><path d="M12 20 C161 124,185 80,329 10" stroke="#a2ea89" fill="none"/><path d="M16 11 C187 15,191 7,322 64" stroke="#e09851" fill="none"/><path d="M6 76 C185 93,191 93,322 81" stroke="#86ec63" fill="none"/><path d="M13 99 C180 39,154 83,338 68" stroke="#e53ce5" fill="none"/><path d="M19 7 C190 61,188 69,323 71" stroke="#eb93bf" fill="none"/><path d="M9 92 C154 35,152 123,323 104" stroke="#8868e8" fill="none"/><path fill="#e2b78c" d="M114.75 73.33L114.77 73.34L114.76 73.33Q115.99 73.35 118.13 73.12L118.07 73.06L118.17 73.16Q118.00 74.03 118.00 75.01L118.07 75.09L118.10 77.02L117.94 76.86Q116.84 77.03 115.57 77.14L115.55 77.13L115.50 77.07Q114.14 77.05 112.87 76.99L113.02 77.14L112.98 77.10Q108.69 86.51 103.49 93.50L103.46 93.47L103.48 93.49Q99.56 94.37 97.60 95.29L97.56 95.25L97.56 95.26Q103.88 86.66 108.50 77.13L108.53 77.16L104.47 77.09L104.45 77.07Q104.54 75.14 104.37 73.11L104.41 73.15L104.27 73.01Q107.27 73.36 110.39 73.36L110.40 73.37L113.30 67.77L113.24 67.71Q114.65 64.73 116.50 62.31L116.57 62.37L116.61 62.41Q114.11 62.51 111.68 62.51L111.73 62.56L111.73 62.56Q102.58 62.65 96.86 59.30L96.81 59.25L95.91 56.74L95.78 56.61Q95.29 55.37 94.72 54.04L94.74 54.06L94.78 54.11Q101.24 57.96 109.91 58.31L110.02 58.42L109.90 58.31Q117.75 58.70 125.55 55.69L125.52 55.67L125.67 55.81Q125.37 56.44 124.62 57.77L124.59 57.74L124.52 57.67Q119.08 64.94 114.75 73.32ZM127.03 59.83L126.94 59.74L128.49 56.73L128.47 56.71Q127.10 57.54 124.56 58.63L124.44 58.51L124.77 58.10L124.83 58.15Q124.98 57.90 125.15 57.72L125.03 57.60L125.20 57.77Q125.66 56.62 126.76 54.59L126.79 54.62L126.83 54.66Q118.62 58.01 109.89 57.66L110.00 57.76L110.02 57.79Q100.81 57.30 93.58 52.79L93.70 52.91L93.67 52.88Q95.22 55.70 96.49 59.75L96.37 59.63L96.46 59.72Q98.22 60.78 99.43 61.24L99.41 61.22L99.34 61.15Q99.52 61.62 100.22 64.45L100.25 64.48L100.29 64.53Q105.04 66.39 113.42 66.16L113.48 66.22L113.46 66.20Q113.03 67.10 110.03 72.82L109.98 72.78L109.97 72.76Q106.88 72.79 103.87 72.50L103.85 72.47L103.85 72.48Q104.01 73.80 104.01 75.12L104.00 75.11L103.98 77.69L106.56 77.73L106.43 79.73L106.61 79.92Q100.63 91.10 96.41 96.53L96.44 96.56L96.42 96.54Q98.87 95.41 101.35 94.65L101.20 94.50L101.21 94.51Q100.18 95.91 98.10 98.51L98.11 98.52L98.11 98.52Q102.95 96.89 106.65 96.54L106.57 96.46L106.71 96.60Q111.14 90.86 115.87 80.57L115.74 80.44L121.08 80.86L121.08 80.86Q120.98 79.50 120.98 78.11L120.84 77.97L120.82 75.23L120.85 75.27Q120.59 75.40 119.75 75.46L119.74 75.45L119.71 75.43Q118.82 75.43 118.41 75.43L118.33 75.34L118.44 75.46Q118.33 75.17 118.39 74.94L118.49 75.04L118.53 74.67L118.52 74.66Q122.22 66.75 126.90 59.70Z"/><path d="M19 26 C170 48,179 77,336 107" stroke="#6a6ae0" fill="none"/><path d="M17 59 C158 10,175 72,332 42" stroke="#5454dd" fill="none"/><path d="M4 69 C172 20,160 15,338 110" stroke="#8769e1" fill="none"/><path d="M21 123 C185 56,165 84,325 75" stroke="#71cbe8" fill="none"/><path d="M19 21 C189 92,179 32,330 46" stroke="#93e93e" fill="none"/><path d="M11 95 C179 106,189 108,327 36" stroke="#90bce8" fill="none"/><path d="M12 93 C164 88,156 14,338 66" stroke="#6fe0a8" fill="none"/><path d="M12 76 C178 86,182 76,334 131" stroke="#83e19b" fill="none"/><path d="M13 28 C164 139,153 83,325 99" stroke="#a792e7" fill="none"/><path d="M15 46 C174 117,167 5,337 106" stroke="#e16137" fill="none"/><path d="M14 36 C190 80,187 44,327 11" stroke="#6969dd" fill="none"/><path d="M10 54 C152 17,168 17,337 49" stroke="#718fe8" fill="none"/><path fill="#4a70e2" d="M222.14 76.25L222.06 76.17L222.13 76.24Q219.26 75.97 217.38 78.14L217.42 78.18L217.44 78.20Q215.51 80.31 215.22 83.20L215.31 83.29L215.24 83.22Q214.92 86.37 216.57 87.84L216.68 87.95L216.62 87.90Q218.30 89.40 221.48 89.22L221.41 89.15L221.51 89.26Q224.59 88.93 226.26 87.89L226.31 87.94L226.35 87.97Q228.02 86.23 228.02 83.86L228.03 83.87L228.10 83.95Q228.08 83.35 227.97 82.77L227.91 82.71L227.93 82.74Q228.06 80.20 226.38 78.15L226.29 78.06L226.43 78.20Q224.65 76.05 222.11 76.22ZM221.55 93.17L221.44 93.06L221.46 93.08Q214.81 93.07 212.67 91.91L212.62 91.86L212.75 92.00Q211.24 90.89 210.95 88.29L210.77 88.11L210.79 88.13Q210.77 87.13 210.83 86.03L210.81 86.01L210.79 85.99Q211.05 84.57 211.05 83.88L211.09 83.93L210.96 83.79Q211.71 79.52 211.94 78.48L211.92 78.45L211.89 78.43Q212.66 75.55 213.93 73.41L213.96 73.44L213.99 73.47Q217.92 66.71 226.93 57.06L226.90 57.03L226.90 57.02Q231.01 56.64 234.36 55.42L234.38 55.44L234.31 55.37Q223.94 66.72 219.09 73.14L219.17 73.22L219.17 73.22Q220.61 72.40 222.57 72.40L222.65 72.48L222.66 72.50Q227.63 72.44 229.94 75.38L230.00 75.44L229.83 75.27Q232.00 77.90 232.52 83.28L232.39 83.15L232.47 83.23Q232.66 84.40 232.66 85.33L232.51 85.18L232.68 85.34Q232.61 90.02 229.26 91.63L229.25 91.62L229.34 91.71Q227.33 92.48 221.44 93.06ZM224.94 96.73L225.02 96.81L224.95 96.75Q226.96 96.73 229.96 96.84L229.99 96.87L229.90 96.78Q232.51 97.02 234.87 95.92L234.85 95.90L234.77 95.81Q236.56 94.72 236.56 92.00L236.40 91.84L236.48 91.92Q236.39 91.07 236.13 89.57L236.24 89.68L236.14 89.58Q235.96 88.16 235.96 87.47L235.93 87.44L235.98 87.49Q234.56 80.24 232.13 77.35L232.18 77.39L232.20 77.41Q232.14 77.29 231.91 76.94L231.87 76.91L231.35 76.50L231.18 76.40L231.20 76.42Q230.74 75.72 229.82 74.28L229.89 74.35L229.85 74.31Q228.43 72.83 225.42 72.14L225.36 72.07L225.49 72.20Q227.28 69.72 231.79 64.12L231.86 64.19L238.18 56.06L238.27 56.15Q235.85 57.43 232.21 58.59L232.28 58.66L232.09 58.46Q233.55 57.03 236.26 54.03L236.21 53.98L236.26 54.03Q232.58 55.60 226.69 56.47L226.66 56.44L226.76 56.54Q218.17 65.58 213.67 73.09L213.60 73.02L213.67 73.10Q211.28 76.83 210.41 86.31L210.33 86.23L210.33 86.23Q210.30 87.18 210.41 88.62L210.37 88.58L210.40 88.61Q210.42 91.17 212.09 92.55L212.19 92.65L212.25 92.71Q212.73 92.84 212.67 92.90L212.80 93.03L212.68 92.91Q213.33 94.36 214.54 95.00L214.57 95.03L214.42 94.88Q216.63 95.94 219.58 96.23L219.58 96.22L219.70 96.35Q219.68 96.33 225.00 96.79ZM224.63 79.72L224.64 79.73L224.69 79.79Q225.51 79.56 226.96 80.31L226.93 80.29L227.00 80.36Q227.37 81.66 227.37 82.64L227.44 82.71L227.53 82.79Q227.77 85.58 226.33 87.08L226.30 87.05L226.23 86.98Q224.59 88.06 221.41 88.52L221.56 88.67L221.58 88.69Q219.31 88.62 218.50 88.21L218.55 88.26L218.57 88.29Q218.19 87.49 218.19 87.03L218.21 87.06L218.15 87.00Q217.91 82.13 222.36 80.17L222.40 80.20L222.38 80.19Q223.37 79.50 224.53 79.62Z"/><path d="M4 26 C185 57,180 17,324 114" stroke="#6f49e3" fill="none"/><path d="M19 62 C177 39,158 131,340 72" stroke="#80e9cf" fill="none"/><path d="M20 67 C151 31,174 135,330 33" stroke="#6e4cd6" fill="none"/></svg>