<svg xmlns="http://www.w3.org/2000/svg" width="342" height="140" viewBox="0,0,342,140"><path d="M12 104 C169 125,181 4,338 33" stroke="#e9a994" fill="none"/><path d="M13 16 C175 46,182 22,339 87" stroke="#e2b940" fill="none"/><path d="M20 23 C154 103,155 120,338 54" stroke="#e76988" fill="none"/><path d="M4 138 C165 11,163 43,332 59" stroke="#c9e27d" fill="none"/><path d="M12 43 C184 103,184 127,335 131" stroke="#6c8ae4" fill="none"/><path d="M15 36 C192 116,189 110,331 85" stroke="#d58e48" fill="none"/><path d="M7 90 C159 110,166 75,323 3" stroke="#e4ba90" fill="none"/><path d="M8 130 C182 16,190 92,339 30" stroke="#7ac6df" fill="none"/><path d="M17 73 C191 89,167 122,340 135" stroke="#43d969" fill="none"/><path d="M4 136 C168 111,172 124,336 131" stroke="#a869e6" fill="none"/><path d="M9 129 C178 102,155 75,332 79" stroke="#eed076" fill="none"/><path d="M18 16 C188 33,174 77,337 54" stroke="#50c0e6" fill="none"/><path d="M13 134 C177 61,187 4,328 129" stroke="#e4c66b" fill="none"/><path d="M12 137 C187 10,151 117,340 37" stroke="#82ecd2" fill="none"/><path d="M17 67 C162 105,160 106,328 79" stroke="#8ea5ea" fill="none"/><path d="M5 121 C166 101,189 101,336 67" stroke="#e377e3" fill="none"/><path d="M9 62 C157 50,161 18,330 92" stroke="#59e2c0" fill="none"/><path d="M13 90 C184 90,151 123,325 36" stroke="#eded6d" fill="none"/><path d="M8 134 C173 86,174 28,332 93" stroke="#dd68dd" fill="none"/><path d="M9 64 C170 65,167 139,333 90" stroke="#7593ef" fill="none"/><path d="M10 126 C152 116,182 124,339 42" stroke="#ed77cf" fill="none"/><path fill="#e995d4" d="M273.46 73.50L273.54 73.58L273.42 73.46Q274.85 73.59 277.14 73.35L277.03 73.24L277.06 73.27Q276.94 74.26 276.94 75.31L276.97 75.35L277.03 77.45L276.95 77.37Q275.62 77.39 274.26 77.52L274.30 77.55L274.39 77.65Q272.93 77.61 271.57 77.55L271.61 77.59L271.57 77.55Q266.91 87.55 261.34 95.04L261.28 94.97L261.46 95.15Q257.20 96.03 255.09 97.02L255.09 97.01L255.20 97.12Q261.79 87.75 266.73 77.54L266.76 77.56L262.48 77.56L262.53 77.61Q262.57 75.48 262.39 73.32L262.40 73.33L262.28 73.21Q265.37 73.45 268.71 73.45L268.75 73.49L271.80 67.45L271.91 67.55Q273.40 64.35 275.38 61.75L275.51 61.88L275.39 61.76Q272.99 62.15 270.40 62.15L270.25 62.00L270.41 62.16Q260.43 62.08 254.30 58.49L254.26 58.45L253.22 55.67L253.17 55.63Q252.68 54.33 252.06 52.90L252.12 52.96L252.02 52.87Q259.09 57.16 268.37 57.53L268.34 57.49L268.39 57.54Q276.75 57.93 285.10 54.71L285.14 54.75L285.02 54.63Q284.82 55.41 284.01 56.83L283.95 56.78L284.00 56.82Q278.06 64.49 273.42 73.46ZM286.70 59.15L286.58 59.03L288.17 55.73L288.27 55.84Q286.60 56.51 283.88 57.69L283.92 57.73L284.18 57.19L284.25 57.26Q284.50 57.08 284.69 56.89L284.61 56.81L284.56 56.77Q285.24 55.72 286.42 53.55L286.49 53.62L286.38 53.51Q277.85 57.35 268.51 56.98L268.33 56.80L268.39 56.86Q258.58 56.40 250.85 51.57L250.89 51.61L250.91 51.63Q252.57 54.65 253.93 58.98L253.89 58.94L253.95 59.00Q255.81 60.12 257.11 60.62L257.06 60.56L257.00 60.50Q257.33 61.14 258.07 64.17L258.08 64.18L257.93 64.03Q263.11 66.13 272.08 65.88L272.19 65.99L272.06 65.85Q271.72 66.93 268.50 73.06L268.33 72.89L268.38 72.94Q265.07 72.96 261.85 72.65L261.85 72.65L261.86 72.67Q261.88 73.93 261.88 75.35L262.00 75.46L261.97 78.22L264.70 78.23L264.76 80.58L264.65 80.46Q258.26 92.45 253.74 98.26L253.81 98.33L253.90 98.42Q256.32 97.01 258.98 96.20L259.01 96.23L259.17 96.39Q258.02 97.84 255.79 100.62L255.70 100.53L255.81 100.64Q260.93 98.83 264.89 98.46L264.84 98.41L264.82 98.39Q269.59 92.27 274.66 81.26L274.70 81.30L280.28 81.62L280.15 81.49Q280.20 80.18 280.20 78.69L280.04 78.53L280.02 75.61L280.18 75.77Q279.74 75.76 278.84 75.82L278.74 75.72L278.73 75.71Q277.81 75.75 277.38 75.75L277.48 75.85L277.45 75.82Q277.46 75.64 277.52 75.40L277.46 75.34L277.47 74.91L277.41 74.85Q281.56 66.57 286.57 59.02Z"/><path d="M8 100 C154 26,177 115,327 92" stroke="#77de77" fill="none"/><path fill="#bedf5d" d="M137.39 73.43L137.49 73.53L137.48 73.52Q138.83 73.57 141.12 73.32L141.11 73.32L141.06 73.26Q141.04 74.36 141.04 75.41L141.01 75.38L141.03 77.44L141.04 77.46Q139.56 77.34 138.20 77.46L138.29 77.55L138.33 77.59Q137.02 77.70 135.66 77.64L135.48 77.46L135.50 77.48Q130.97 87.61 125.41 95.10L125.41 95.10L125.41 95.10Q121.28 96.11 119.18 97.10L119.17 97.09L119.27 97.19Q125.77 87.73 130.72 77.52L130.71 77.52L126.45 77.52L126.57 77.64Q126.58 75.49 126.40 73.33L126.34 73.27L126.40 73.33Q129.38 73.46 132.72 73.46L132.72 73.46L135.91 67.56L135.91 67.56Q137.52 64.46 139.50 61.87L139.52 61.89L139.47 61.83Q136.97 62.12 134.37 62.12L134.36 62.11L134.41 62.16Q124.42 62.07 118.29 58.48L118.33 58.51L117.31 55.76L117.23 55.69Q116.61 54.26 115.99 52.84L116.00 52.84L115.99 52.84Q123.07 57.14 132.35 57.51L132.35 57.51L132.34 57.49Q140.67 57.84 149.02 54.63L149.08 54.68L149.05 54.65Q148.80 55.39 147.99 56.82L148.08 56.91L148.01 56.83Q142.14 64.58 137.50 73.55ZM150.66 59.11L150.63 59.09L152.20 55.77L152.28 55.84Q150.69 56.60 147.97 57.78L147.99 57.80L148.21 57.22L148.32 57.33Q148.49 57.06 148.68 56.88L148.61 56.81L148.61 56.82Q149.32 55.79 150.49 53.62L150.47 53.60L150.40 53.53Q141.67 57.17 132.33 56.80L132.32 56.80L132.43 56.91Q122.66 56.48 114.93 51.65L114.93 51.65L115.00 51.72Q116.57 54.66 117.93 58.99L118.03 59.08L117.98 59.03Q119.78 60.09 121.08 60.58L120.97 60.48L121.11 60.62Q121.33 61.15 122.07 64.18L121.99 64.09L121.98 64.09Q127.12 66.13 136.09 65.89L136.11 65.91L136.06 65.86Q135.70 66.91 132.48 73.04L132.37 72.92L132.42 72.98Q129.09 72.99 125.88 72.68L125.83 72.64L125.93 72.74Q126.04 74.08 126.04 75.51L125.93 75.39L126.06 78.30L128.75 78.28L128.69 80.51L128.70 80.52Q122.24 92.43 117.73 98.25L117.74 98.27L117.72 98.24Q120.36 97.05 123.02 96.24L123.12 96.34L123.00 96.22Q121.93 97.75 119.70 100.53L119.69 100.52L119.67 100.50Q124.80 98.70 128.76 98.33L128.89 98.46L128.92 98.49Q133.55 92.23 138.62 81.22L138.57 81.17L144.28 81.62L144.23 81.57Q144.05 80.03 144.05 78.55L144.09 78.59L144.20 75.79L144.18 75.77Q143.69 75.71 142.79 75.77L142.78 75.76L142.72 75.70Q141.93 75.87 141.50 75.87L141.52 75.89L141.37 75.74Q141.41 75.60 141.47 75.35L141.54 75.42L141.44 74.89L141.53 74.98Q145.50 66.51 150.51 58.96Z"/><path d="M5 50 C158 79,176 86,332 34" stroke="#6cdb46" fill="none"/><path d="M18 124 C166 64,191 57,338 135" stroke="#d56b48" fill="none"/><path d="M13 11 C188 65,171 61,325 32" stroke="#df7676" fill="none"/><path d="M2 42 C187 74,175 89,329 132" stroke="#e0a56a" fill="none"/><path fill="#64ebeb" d="M58.00 95.02L57.96 94.97L57.84 94.86Q55.63 95.06 53.10 94.38L53.15 94.43L53.06 94.34Q51.11 92.88 50.86 90.22L50.92 90.28L50.86 90.22Q50.80 89.92 51.11 85.65L51.02 85.56L51.16 85.70Q52.83 85.39 56.11 84.77L55.99 84.65L55.82 86.03L55.68 85.89Q55.36 88.85 57.65 89.78L57.59 89.72L57.67 89.79Q58.81 90.19 62.21 90.19L62.36 90.35L62.23 90.21Q64.85 89.98 65.16 89.86L65.28 89.98L65.27 89.97Q66.63 89.60 67.80 88.79L67.80 88.79L67.81 88.80Q70.25 87.41 69.94 84.01L69.79 83.85L69.85 83.91Q69.50 79.92 66.69 77.38L66.76 77.45L66.74 77.43Q63.94 74.91 59.91 74.91L59.88 74.87L59.91 74.53L59.81 74.43Q60.58 74.52 62.00 74.39L61.90 74.29L61.96 74.36Q64.99 74.11 67.22 72.10L67.19 72.06L67.20 72.08Q69.39 70.02 69.63 66.99L69.75 67.11L69.80 67.16Q69.90 66.58 69.90 66.03L69.89 66.02L69.89 66.01Q69.92 63.57 67.70 62.09L67.54 61.93L67.68 62.07Q65.73 60.81 63.14 60.99L63.12 60.98L62.99 60.84Q60.96 60.67 58.98 61.35L58.96 61.34L59.01 61.38Q56.58 62.17 56.08 64.02L56.18 64.12L56.10 64.03Q55.78 65.27 55.91 66.50L55.86 66.46L56.03 66.63Q54.22 66.12 50.88 64.94L50.91 64.97L50.94 65.01Q50.64 62.36 50.71 61.00L50.58 60.87L50.65 60.93Q50.77 58.40 52.50 57.29L52.56 57.35L52.43 57.22Q54.85 56.35 57.45 56.35L57.34 56.25L57.44 56.34Q62.46 56.18 67.60 56.61L67.68 56.68L67.66 56.67Q75.99 57.45 75.49 63.57L75.43 63.51L75.38 63.46Q75.33 65.95 74.53 68.48L74.44 68.39L74.42 68.38Q73.08 73.54 69.25 75.02L69.23 75.00L69.27 75.04Q73.42 75.79 74.41 81.23L74.34 81.16L74.49 81.32Q74.83 83.14 74.96 86.42L74.92 86.39L74.85 86.31Q75.13 93.59 67.65 94.33L67.60 94.29L67.79 94.47Q66.55 94.54 57.96 94.97ZM66.37 98.56L66.47 98.66L66.38 98.57Q67.33 98.59 71.97 98.72L71.96 98.70L72.11 98.86Q74.96 98.98 77.62 97.93L77.62 97.93L77.57 97.88Q79.36 96.21 79.05 93.36L79.22 93.53L79.17 93.49Q79.03 91.36 78.54 88.52L78.47 88.45L78.47 88.45Q77.32 81.18 74.17 78.52L74.13 78.48L73.90 77.94L73.77 77.75L73.65 77.63Q76.53 75.32 77.77 68.20L77.92 68.35L77.81 68.24Q77.88 67.51 78.07 65.96L78.11 66.01L78.16 66.05Q78.27 64.80 78.15 63.69L78.14 63.68L78.03 63.58Q77.76 60.83 75.66 59.72L75.71 59.77L75.57 59.75L75.58 59.77Q75.12 58.19 73.27 57.32L73.30 57.36L73.22 57.28Q70.75 56.17 62.40 55.68L62.46 55.74L62.36 55.63Q59.68 55.56 57.08 55.56L57.11 55.58L57.07 55.55Q54.44 55.52 51.97 56.57L51.99 56.59L52.11 56.71Q49.98 57.80 49.98 60.65L50.02 60.68L50.12 60.78Q50.12 60.10 50.55 65.54L50.54 65.53L50.48 65.47Q50.91 65.53 53.57 66.52L53.64 66.59L53.59 66.54Q53.63 67.44 53.57 68.25L53.68 68.36L53.57 68.25Q53.58 69.07 53.65 69.94L53.69 69.98L53.66 69.95Q56.52 70.53 59.80 70.71L59.86 70.77L59.76 70.67Q59.74 67.50 61.54 66.13L61.48 66.07L61.56 66.16Q62.87 65.06 66.15 64.69L66.08 64.62L66.17 64.71Q67.96 64.64 68.89 64.95L68.87 64.93L68.94 65.00Q68.91 65.09 68.97 65.28L69.04 65.34L69.08 65.70L69.27 66.63L69.18 66.54Q69.28 66.95 69.22 67.20L69.17 67.15L69.12 67.10Q68.96 69.84 66.48 71.76L66.60 71.88L66.56 71.84Q65.07 73.31 61.79 73.62L61.77 73.60L61.79 73.63Q60.64 73.89 59.21 73.89L59.18 73.86L59.22 73.90Q59.33 74.50 59.58 75.62L59.58 75.63L59.53 75.58Q62.37 75.57 64.73 76.75L64.69 76.71L64.63 76.84L62.02 77.07L62.02 77.07Q62.08 77.63 62.27 78.62L62.22 78.57L62.34 78.69Q65.69 78.45 68.47 80.61L68.40 80.54L68.46 80.61Q68.77 81.16 69.26 83.82L69.42 83.97L69.28 83.84Q69.69 88.70 64.93 89.38L64.91 89.37L64.84 89.30Q61.41 89.70 60.48 89.64L60.53 89.69L60.55 89.70Q59.79 89.50 58.92 89.38L58.98 89.43L58.89 88.60L59.20 87.99L59.20 87.31L59.19 86.74L59.36 86.91Q57.70 86.92 56.40 87.23L56.43 87.26L56.53 87.36Q56.40 86.92 56.40 86.61L56.45 86.66L56.31 86.52Q56.34 86.18 56.34 85.81L56.41 85.88L56.43 85.89Q56.46 85.18 56.70 84.01L56.70 84.01L56.77 84.07Q53.67 84.37 50.64 84.93L50.58 84.87L50.65 84.94Q50.61 85.71 50.42 87.53L50.55 87.66L50.41 87.51Q50.33 89.45 50.33 90.44L50.26 90.37L50.29 90.40Q50.41 93.73 52.64 94.97L52.74 95.07L52.60 94.94Q55.17 98.80 62.84 98.49L62.67 98.32L62.69 98.35Q63.92 98.33 66.39 98.58Z"/><path d="M12 51 C170 91,156 105,338 2" stroke="#48de93" fill="none"/><path d="M4 16 C167 3,155 119,337 81" stroke="#82e29a" fill="none"/><path d="M19 45 C179 9,183 95,334 70" stroke="#e9c458" fill="none"/><path d="M17 6 C187 65,186 81,325 128" stroke="#839be1" fill="none"/><path d="M14 48 C168 65,163 138,334 104" stroke="#c1df66" fill="none"/><path d="M12 60 C185 47,191 121,326 5" stroke="#728ee3" fill="none"/><path d="M3 74 C160 114,180 119,337 59" stroke="#6f8eeb" fill="none"/><path d="M12 73 C172 58,184 27,324 17" stroke="#dbdb4c" fill="none"/><path d="M4 80 C150 47,188 107,338 44" stroke="#5fec82" fill="none"/><path d="M9 68 C189 63,186 5,334 76" stroke="#984de4" fill="none"/><path d="M6 109 C168 44,171 66,331 9" stroke="#ea8ea5" fill="none"/><path d="M19 23 C186 117,186 105,332 113" stroke="#bce73a" fill="none"/><path d="M14 25 C164 86,160 135,330 124" stroke="#df6b6b" fill="none"/><path fill="#bde24f" d="M212.09 90.92L212.11 90.95L212.08 90.92Q212.73 92.68 213.60 95.96L213.40 95.76L213.57 95.93Q206.69 93.75 199.20 94.19L199.21 94.19L199.06 94.05Q191.67 94.51 185.17 97.72L185.24 97.79L185.23 97.78Q185.59 96.65 185.65 96.78L185.61 96.74L185.61 96.74Q191.79 90.42 198.16 83.24L198.14 83.22L198.15 83.24Q205.21 75.01 207.12 67.40L207.22 67.50L207.14 67.41Q207.99 64.68 205.92 62.76L205.86 62.70L205.94 62.78Q203.83 60.83 200.93 61.08L200.86 61.01L200.86 61.01Q200.23 60.88 199.67 60.88L199.83 61.04L199.84 61.05Q197.37 61.05 195.32 62.53L195.32 62.52L195.24 62.45Q193.22 64.75 193.59 69.08L193.58 69.07L193.50 69.00Q190.61 68.45 188.63 67.71L188.61 67.70L188.54 67.63Q188.33 65.44 188.21 63.09L188.19 63.06L188.16 63.04Q188.16 60.50 189.15 58.65L189.16 58.65L189.06 58.55Q191.91 56.27 197.35 56.27L197.33 56.25L200.17 56.24L200.21 56.28Q203.88 56.30 205.43 56.49L205.57 56.63L205.50 56.56Q212.52 57.21 212.96 61.17L213.02 61.24L213.05 61.27Q213.20 62.21 213.07 63.51L213.03 63.48L213.06 63.50Q212.90 64.46 212.66 65.57L212.70 65.62L212.71 65.63Q210.02 78.77 197.71 89.91L197.79 89.99L197.79 89.99Q199.97 89.64 202.20 89.64L202.23 89.67L202.21 89.64Q207.49 89.66 212.13 90.96ZM211.16 57.08L211.17 57.10L211.11 57.04Q208.57 56.04 205.78 55.91L205.77 55.90L200.18 55.57L200.34 55.73Q193.05 55.24 189.46 57.04L189.47 57.04L189.46 57.03Q187.67 59.21 187.67 62.55L187.66 62.54L187.64 62.51Q187.68 63.67 188.18 68.25L188.25 68.32L188.35 68.42Q189.06 68.64 190.98 69.14L191.10 69.25L191.13 70.96L191.07 70.89Q190.92 71.55 191.05 72.42L191.10 72.47L191.14 72.51Q193.06 72.58 197.09 72.95L197.12 72.98L197.10 72.96Q197.03 72.35 197.03 71.79L197.14 71.89L197.12 71.88Q197.00 68.79 198.98 66.59L199.06 66.67L199.00 66.61Q201.13 64.56 204.04 64.75L203.91 64.62L203.88 64.59Q205.18 64.71 206.41 64.96L206.53 65.07L206.46 65.01Q206.71 65.69 206.84 66.37L206.68 66.22L206.81 66.35Q206.74 66.89 206.61 67.45L206.78 67.62L206.73 67.57Q204.75 75.36 197.57 83.21L197.50 83.15L197.52 83.17Q193.96 86.71 185.11 96.55L185.17 96.61L185.18 96.62Q184.94 98.05 184.39 98.98L184.21 98.80L184.37 98.96Q186.91 97.48 189.38 96.61L189.36 96.59L189.37 96.61Q188.13 97.46 186.58 99.88L186.64 99.94L186.73 100.02Q186.54 100.57 186.35 101.13L186.20 100.98L186.30 101.08Q194.12 97.64 203.03 97.95L203.04 97.96L203.05 97.97Q212.39 98.34 219.81 102.17L219.72 102.08L218.19 98.69L218.12 98.63Q217.07 96.46 216.64 95.16L216.66 95.19L216.66 95.18Q215.53 94.56 213.55 93.88L213.42 93.74L213.47 93.79Q213.28 92.67 212.66 90.45L212.54 90.32L212.66 90.44Q209.07 89.52 205.36 89.21L205.37 89.21L205.42 89.27Q212.88 81.70 215.36 68.27L215.40 68.31L215.64 63.55L215.68 63.59Q215.53 60.65 213.55 59.53L213.65 59.64L213.47 59.52L213.56 59.61Q213.49 59.48 213.37 59.48L213.34 59.45L213.45 59.56Q213.03 58.15 211.24 57.16Z"/><path d="M14 15 C153 104,188 105,330 122" stroke="#aa70e4" fill="none"/></svg>