<svg xmlns="http://www.w3.org/2000/svg" width="342" height="140" viewBox="0,0,342,140"><path d="M6 21 C161 85,158 71,337 131" stroke="#edd387" fill="none"/><path d="M3 112 C186 128,163 134,339 54" stroke="#5cdf7d" fill="none"/><path d="M4 80 C191 79,161 67,337 61" stroke="#a56edd" fill="none"/><path fill="#c458e9" d="M193.59 95.75L193.52 95.69L193.68 95.85Q191.18 95.84 188.56 95.14L188.64 95.22L188.59 95.17Q186.51 93.60 186.25 90.85L186.25 90.84L186.33 90.92Q186.21 90.55 186.53 86.15L186.59 86.20L186.63 86.24Q188.27 85.84 191.66 85.20L191.68 85.22L191.31 86.45L191.31 86.45Q190.92 89.45 193.29 90.41L193.32 90.44L193.29 90.41Q194.58 90.93 198.09 90.93L198.05 90.89L198.08 90.92Q200.73 90.63 201.05 90.50L201.21 90.66L201.18 90.64Q202.70 90.36 203.91 89.53L203.93 89.54L203.91 89.53Q206.28 87.94 205.97 84.43L205.86 84.32L205.90 84.36Q205.60 80.29 202.69 77.67L202.79 77.77L202.78 77.76Q199.81 75.08 195.66 75.08L195.71 75.13L195.65 74.68L195.69 74.73Q196.18 74.51 197.65 74.38L197.69 74.43L197.76 74.50Q200.95 74.30 203.25 72.22L203.31 72.29L203.28 72.25Q205.44 70.03 205.69 66.90L205.73 66.94L205.80 67.01Q205.98 66.48 205.98 65.91L205.91 65.83L205.94 65.87Q205.88 63.25 203.58 61.72L203.52 61.66L203.61 61.75Q201.63 60.48 198.95 60.67L198.83 60.55L198.80 60.52Q196.66 60.29 194.61 61.00L194.70 61.09L194.70 61.08Q192.15 61.86 191.64 63.77L191.72 63.85L191.70 63.83Q191.40 65.14 191.53 66.41L191.50 66.38L191.58 66.47Q189.75 65.98 186.30 64.76L186.38 64.84L186.29 64.75Q186.08 62.11 186.14 60.70L185.98 60.54L185.95 60.51Q186.27 58.08 188.06 56.93L188.00 56.88L188.02 56.89Q190.40 55.88 193.08 55.88L192.99 55.80L193.14 55.95Q198.37 55.80 203.67 56.25L203.66 56.24L203.75 56.33Q212.11 56.89 211.60 63.22L211.66 63.28L211.57 63.20Q211.54 65.78 210.71 68.40L210.63 68.32L210.77 68.46Q209.20 73.60 205.24 75.14L205.16 75.05L205.29 75.19Q209.62 76.00 210.64 81.62L210.74 81.72L210.66 81.65Q211.06 83.58 211.19 86.97L211.24 87.02L211.06 86.84Q211.36 94.36 203.63 95.13L203.62 95.12L203.67 95.17Q202.40 95.24 193.52 95.69ZM202.27 99.45L202.25 99.43L202.35 99.53Q203.35 99.58 208.15 99.71L208.08 99.64L208.10 99.66Q211.12 99.87 213.87 98.78L213.93 98.85L213.89 98.81Q215.75 97.08 215.43 94.14L215.45 94.16L215.43 94.15Q215.31 91.98 214.80 89.04L214.73 88.97L214.89 89.14Q213.53 81.44 210.27 78.70L210.36 78.79L210.02 78.13L209.98 78.02L210.01 78.05Q212.87 75.54 214.14 68.19L214.23 68.29L214.09 68.14Q214.16 67.38 214.36 65.79L214.51 65.94L214.47 65.90Q214.56 64.58 214.43 63.43L214.36 63.36L214.38 63.38Q214.07 60.51 211.89 59.36L212.09 59.55L211.87 59.46L211.81 59.41Q211.37 57.82 209.46 56.92L209.49 56.96L209.51 56.98Q206.94 55.82 198.31 55.30L198.19 55.18L198.24 55.23Q195.41 55.08 192.72 55.08L192.81 55.17L192.70 55.06Q190.07 55.12 187.52 56.20L187.61 56.29L187.56 56.25Q185.46 57.46 185.46 60.40L185.52 60.47L185.42 60.37Q185.56 59.81 186.01 65.43L185.96 65.38L185.94 65.36Q186.36 65.40 189.11 66.42L189.15 66.46L189.25 66.56Q189.17 67.38 189.11 68.21L189.18 68.28L189.11 68.21Q189.10 69.03 189.16 69.92L189.15 69.91L189.24 70.00Q192.15 70.55 195.54 70.74L195.65 70.85L195.51 70.71Q195.35 67.29 197.20 65.89L197.26 65.95L197.37 66.06Q198.64 64.83 202.03 64.45L202.13 64.55L202.11 64.53Q203.90 64.41 204.86 64.73L204.92 64.79L204.96 64.83Q205.12 65.11 205.18 65.30L205.13 65.25L205.01 65.45L205.21 66.41L205.18 66.39Q205.19 66.72 205.13 66.98L205.16 67.01L205.23 67.08Q205.12 69.97 202.57 71.95L202.63 72.01L202.59 71.98Q201.10 73.55 197.71 73.87L197.59 73.75L197.69 73.85Q196.32 73.95 194.85 73.95L194.98 74.08L194.88 73.98Q194.90 74.51 195.16 75.66L195.24 75.75L195.26 75.77Q198.09 75.65 200.51 76.87L200.61 76.96L200.47 77.02L197.79 77.27L197.81 77.29Q197.88 77.88 198.08 78.90L197.98 78.81L198.08 78.91Q201.56 78.68 204.44 80.92L204.60 81.08L204.54 81.02Q204.81 81.55 205.33 84.30L205.36 84.33L205.32 84.29Q205.74 89.31 200.82 90.02L200.79 89.99L200.85 90.04Q197.27 90.42 196.31 90.36L196.43 90.48L196.27 90.32Q195.64 90.27 194.75 90.14L194.72 90.12L194.66 89.28L194.96 88.63L195.02 87.98L194.99 87.38L194.95 87.34Q193.33 87.45 191.99 87.76L192.14 87.92L192.09 87.87Q191.98 87.44 191.98 87.12L192.08 87.22L192.02 87.16Q192.02 86.78 192.02 86.40L192.07 86.44L192.09 86.46Q192.10 85.70 192.35 84.49L192.32 84.45L192.34 84.48Q189.33 84.98 186.20 85.56L186.06 85.41L186.19 85.55Q186.02 86.21 185.83 88.09L185.88 88.14L185.87 88.13Q185.76 90.10 185.76 91.12L185.71 91.07L185.69 91.06Q185.90 94.59 188.20 95.86L188.17 95.84L188.11 95.77Q190.72 99.73 198.65 99.41L198.66 99.43L198.58 99.34Q199.68 99.17 202.24 99.42Z"/><path d="M12 7 C189 124,190 131,335 87" stroke="#6786e4" fill="none"/><path d="M6 98 C151 95,156 2,328 78" stroke="#87eded" fill="none"/><path d="M19 135 C189 81,189 70,328 38" stroke="#73afec" fill="none"/><path d="M9 129 C186 83,164 69,330 110" stroke="#e4ce8a" fill="none"/><path d="M14 105 C190 129,183 87,331 112" stroke="#5adcbb" fill="none"/><path d="M8 89 C154 68,182 127,322 49" stroke="#e4d094" fill="none"/><path d="M9 126 C164 77,186 70,332 18" stroke="#e96787" fill="none"/><path d="M1 134 C175 112,152 116,339 64" stroke="#dcdc6f" fill="none"/><path d="M20 3 C174 89,159 89,330 77" stroke="#5959dd" fill="none"/><path d="M17 8 C166 95,151 29,339 37" stroke="#72e872" fill="none"/><path d="M12 64 C151 130,182 8,331 130" stroke="#75e84e" fill="none"/><path d="M9 119 C181 112,173 87,336 50" stroke="#87e29e" fill="none"/><path fill="#3edf3e" d="M280.43 91.69L280.34 91.60L280.31 91.57Q280.92 93.33 281.82 96.72L281.82 96.72L281.88 96.78Q274.77 94.53 267.03 94.97L266.99 94.92L266.89 94.83Q259.38 95.44 252.67 98.76L252.63 98.72L252.69 98.77Q252.96 97.52 253.03 97.64L252.98 97.60L253.11 97.73Q259.35 91.06 265.93 83.65L265.96 83.67L265.85 83.56Q273.31 75.24 275.29 67.38L275.24 67.33L275.26 67.35Q276.04 64.42 273.89 62.44L274.00 62.54L273.89 62.43Q271.83 60.54 268.83 60.79L268.71 60.68L268.76 60.72Q268.18 60.65 267.60 60.65L267.63 60.67L267.60 60.65Q264.98 60.58 262.87 62.12L263.01 62.26L263.01 62.26Q260.77 64.49 261.15 68.96L261.26 69.07L261.07 68.88Q258.14 68.37 256.09 67.61L256.05 67.57L256.16 67.68Q255.76 65.23 255.63 62.80L255.64 62.81L255.63 62.80Q255.46 60.01 256.48 58.09L256.50 58.11L256.66 58.27Q259.59 55.90 265.21 55.90L265.20 55.89L268.15 55.90L268.15 55.89Q271.92 55.90 273.52 56.09L273.62 56.18L273.57 56.13Q280.93 56.92 281.38 61.01L281.28 60.91L281.27 60.90Q281.51 61.97 281.38 63.31L281.22 63.15L281.23 63.16Q281.30 64.37 281.04 65.52L280.89 65.38L280.88 65.37Q278.28 79.12 265.56 90.63L265.54 90.60L265.57 90.63Q267.81 90.25 270.11 90.25L270.28 90.42L270.25 90.39Q275.55 90.26 280.34 91.60ZM279.54 56.80L279.51 56.77L279.36 56.62Q276.72 55.58 273.85 55.46L273.91 55.52L268.21 55.25L268.20 55.25Q260.70 54.77 256.99 56.62L256.93 56.56L256.92 56.55Q255.17 58.89 255.17 62.34L255.13 62.30L255.10 62.27Q255.15 63.47 255.66 68.20L255.83 68.37L255.64 68.18Q256.54 68.57 258.52 69.08L258.65 69.21L258.60 70.89L258.66 70.94Q258.49 71.61 258.62 72.50L258.73 72.61L258.71 72.59Q260.79 72.76 264.95 73.14L264.87 73.06L264.92 73.11Q264.92 72.54 264.92 71.96L264.81 71.86L264.96 72.00Q264.94 68.92 266.99 66.65L266.84 66.51L266.99 66.66Q268.93 64.28 271.94 64.47L271.92 64.45L272.05 64.59Q273.34 64.66 274.62 64.92L274.54 64.84L274.59 64.89Q274.78 65.53 274.91 66.23L274.94 66.26L274.83 66.15Q274.86 66.83 274.74 67.40L274.71 67.38L274.83 67.50Q272.73 75.49 265.32 83.60L265.31 83.59L265.21 83.50Q261.70 87.34 252.56 97.50L252.50 97.43L252.52 97.46Q252.15 98.81 251.57 99.77L251.70 99.89L251.56 99.76Q254.31 98.36 256.87 97.46L256.91 97.50L256.95 97.54Q255.62 98.38 254.02 100.87L254.08 100.93L254.17 101.02Q253.87 101.49 253.67 102.06L253.76 102.15L253.65 102.03Q261.96 98.72 271.16 99.04L271.15 99.02L271.13 99.01Q280.67 99.27 288.33 103.24L288.36 103.26L286.69 99.68L286.56 99.55Q285.49 97.32 285.04 95.98L285.05 95.99L285.14 96.08Q283.79 95.24 281.74 94.54L281.76 94.55L281.78 94.57Q281.54 93.37 280.90 91.07L280.92 91.10L280.94 91.12Q277.22 90.14 273.38 89.82L273.45 89.89L273.35 89.79Q281.31 82.22 283.87 68.35L283.71 68.19L284.17 63.48L284.19 63.49Q284.07 60.50 282.02 59.35L282.02 59.35L281.88 59.28L281.86 59.25Q281.75 59.07 281.62 59.07L281.70 59.16L281.75 59.20Q281.34 57.77 279.49 56.75Z"/><path d="M15 84 C151 101,173 2,340 25" stroke="#72e890" fill="none"/><path d="M10 40 C183 64,169 77,332 62" stroke="#83e19a" fill="none"/><path d="M15 125 C186 54,164 31,338 113" stroke="#92bce6" fill="none"/><path d="M18 110 C159 62,188 24,325 108" stroke="#42e5e5" fill="none"/><path d="M5 16 C155 98,173 73,338 118" stroke="#dec371" fill="none"/><path d="M2 4 C187 30,155 19,326 78" stroke="#d6d646" fill="none"/><path d="M17 106 C167 34,189 26,338 62" stroke="#51ea51" fill="none"/><path fill="#ea7592" d="M57.56 95.73L57.49 95.66L57.57 95.74Q55.20 95.86 52.58 95.15L52.67 95.24L52.54 95.12Q50.48 93.57 50.22 90.82L50.35 90.95L50.27 90.87Q50.14 90.48 50.46 86.07L50.55 86.17L50.56 86.17Q52.22 85.79 55.61 85.15L55.63 85.17L55.25 86.39L55.28 86.42Q54.92 89.45 57.28 90.40L57.28 90.40L57.26 90.39Q58.70 91.05 62.21 91.05L62.02 90.86L62.22 91.06Q64.89 90.79 65.21 90.66L65.13 90.58L65.04 90.49Q66.69 90.35 67.90 89.52L67.92 89.54L67.85 89.47Q70.18 87.83 69.86 84.32L69.87 84.33L69.88 84.34Q69.57 80.26 66.66 77.64L66.67 77.65L66.78 77.76Q63.73 75.00 59.58 75.00L59.63 75.05L59.64 74.67L59.72 74.75Q60.27 74.60 61.74 74.48L61.73 74.47L61.75 74.49Q65.00 74.34 67.30 72.27L67.32 72.29L67.18 72.16Q69.56 70.15 69.82 67.02L69.80 67.01L69.70 66.91Q69.89 66.39 69.89 65.82L69.88 65.81L69.91 65.84Q69.87 63.25 67.57 61.71L67.54 61.68L67.55 61.69Q65.55 60.39 62.86 60.58L62.96 60.68L62.94 60.66Q60.70 60.34 58.66 61.04L58.62 61.00L58.74 61.13Q56.21 61.91 55.70 63.83L55.65 63.79L55.83 63.96Q55.34 65.08 55.47 66.35L55.61 66.49L55.64 66.52Q53.80 66.02 50.34 64.81L50.37 64.83L50.28 64.74Q50.00 62.04 50.07 60.63L50.14 60.70L49.99 60.56Q50.23 58.04 52.02 56.89L52.01 56.89L52.00 56.88Q54.41 55.89 57.09 55.89L57.12 55.92L57.07 55.88Q62.30 55.74 67.60 56.18L67.66 56.24L67.77 56.35Q76.11 56.90 75.60 63.22L75.65 63.27L75.68 63.30Q75.59 65.83 74.76 68.45L74.69 68.38L74.63 68.32Q73.15 73.56 69.19 75.09L69.23 75.13L69.18 75.07Q73.61 76.00 74.63 81.62L74.71 81.70L74.58 81.56Q75.03 83.54 75.15 86.93L75.09 86.87L75.11 86.88Q75.48 94.48 67.75 95.24L67.76 95.26L67.61 95.11Q66.53 95.37 57.65 95.82ZM66.43 99.61L66.35 99.53L66.26 99.44Q67.27 99.50 72.06 99.62L72.22 99.78L72.12 99.68Q75.14 99.89 77.89 98.81L77.89 98.80L77.80 98.72Q79.84 97.17 79.52 94.23L79.54 94.25L79.45 94.16Q79.35 92.02 78.84 89.08L78.87 89.12L78.74 88.99Q77.67 81.58 74.41 78.84L74.42 78.85L73.95 78.06L73.92 77.97L73.95 78.00Q76.96 75.64 78.24 68.29L78.18 68.23L78.19 68.24Q78.18 67.40 78.37 65.80L78.42 65.85L78.40 65.83Q78.54 64.56 78.41 63.41L78.49 63.49L78.38 63.38Q78.20 60.65 76.03 59.50L75.94 59.41L75.77 59.36L75.90 59.49Q75.43 57.87 73.51 56.98L73.47 56.94L73.39 56.86Q70.90 55.78 62.28 55.27L62.15 55.14L62.35 55.34Q59.39 55.06 56.70 55.06L56.80 55.16L56.78 55.14Q53.97 55.01 51.42 56.10L51.49 56.17L51.56 56.25Q49.54 57.54 49.54 60.48L49.54 60.49L49.54 60.48Q49.53 59.77 49.97 65.39L49.95 65.37L49.86 65.28Q50.37 65.40 53.12 66.43L53.26 66.57L53.22 66.53Q53.11 67.31 53.05 68.15L53.03 68.13L53.14 68.24Q53.17 69.10 53.23 69.99L53.25 70.01L53.17 69.93Q56.24 70.64 59.63 70.83L59.48 70.68L59.59 70.79Q59.48 67.42 61.33 66.01L61.24 65.92L61.21 65.90Q62.77 64.97 66.16 64.58L66.01 64.43L66.07 64.49Q68.02 64.52 68.98 64.84L68.94 64.81L69.05 64.92Q69.06 65.05 69.12 65.24L69.05 65.17L69.17 65.61L69.21 66.42L69.36 66.57Q69.24 66.77 69.18 67.03L69.21 67.06L69.28 67.12Q69.07 69.92 66.52 71.90L66.49 71.88L66.54 71.93Q65.02 73.47 61.63 73.79L61.56 73.72L61.61 73.77Q60.44 74.07 58.97 74.07L58.95 74.05L58.90 74.00Q59.02 74.63 59.28 75.78L59.27 75.78L59.20 75.70Q62.17 75.74 64.60 76.95L64.59 76.94L64.32 76.87L61.72 77.20L61.79 77.27Q61.78 77.78 61.97 78.80L62.10 78.93L61.96 78.79Q65.71 78.83 68.59 81.07L68.58 81.06L68.58 81.06Q68.99 81.72 69.50 84.47L69.42 84.40L69.50 84.47Q69.77 89.35 64.85 90.05L64.81 90.00L64.89 90.09Q61.32 90.48 60.36 90.42L60.30 90.36L60.25 90.30Q59.53 90.16 58.64 90.03L58.65 90.05L58.70 89.32L58.91 88.58L58.85 87.82L58.95 87.34L58.90 87.29Q57.45 87.57 56.11 87.89L56.04 87.82L55.96 87.74Q56.03 87.49 56.03 87.17L55.89 87.03L56.06 87.20Q56.06 86.81 56.06 86.43L56.14 86.51L56.12 86.49Q56.13 85.73 56.38 84.52L56.46 84.60L56.32 84.45Q53.24 84.89 50.10 85.46L50.18 85.53L50.15 85.51Q50.01 86.20 49.82 88.09L50.01 88.27L49.93 88.19Q49.81 90.15 49.81 91.17L49.81 91.17L49.80 91.16Q49.93 94.61 52.23 95.89L52.21 95.88L52.19 95.85Q54.71 99.72 62.63 99.40L62.62 99.39L62.59 99.35Q63.81 99.30 66.37 99.55Z"/><path d="M12 25 C162 13,161 88,321 101" stroke="#d79655" fill="none"/><path d="M12 65 C170 33,157 129,336 10" stroke="#88baeb" fill="none"/><path d="M17 110 C177 36,152 74,329 82" stroke="#cc76e9" fill="none"/><path d="M16 8 C156 49,163 97,340 63" stroke="#e740bd" fill="none"/><path d="M3 76 C168 96,173 27,332 9" stroke="#c8e66f" fill="none"/><path d="M19 57 C183 10,178 82,329 110" stroke="#48dede" fill="none"/><path d="M16 31 C185 44,169 33,323 33" stroke="#b248d5" fill="none"/><path d="M12 97 C162 120,151 120,329 9" stroke="#36e78e" fill="none"/><path d="M12 42 C159 111,191 68,323 106" stroke="#bbe04c" fill="none"/><path d="M10 56 C160 40,182 62,324 117" stroke="#42db42" fill="none"/><path fill="#4ae74a" d="M137.50 73.61L137.48 73.59L137.59 73.70Q138.94 73.71 141.31 73.45L141.19 73.34L141.34 73.49Q141.12 74.42 141.12 75.51L141.26 75.64L141.19 77.68L141.15 77.64Q139.80 77.70 138.39 77.83L138.29 77.72L138.36 77.79Q136.88 77.79 135.48 77.72L135.48 77.72L135.55 77.80Q130.74 88.12 124.99 95.86L124.97 95.84L124.97 95.84Q120.82 97.00 118.65 98.02L118.58 97.95L118.64 98.01Q125.52 88.41 130.64 77.86L130.66 77.89L126.25 77.88L126.25 77.89Q126.14 75.54 125.94 73.30L126.04 73.40L126.12 73.48Q129.18 73.60 132.63 73.60L132.67 73.64L135.79 67.36L135.97 67.54Q137.52 64.23 139.56 61.55L139.63 61.62L139.67 61.66Q136.88 61.75 134.20 61.75L134.28 61.83L134.21 61.76Q124.06 61.83 117.73 58.12L117.69 58.08L116.60 55.20L116.62 55.22Q116.12 53.89 115.48 52.42L115.39 52.33L115.36 52.30Q122.64 56.71 132.23 57.09L132.21 57.07L132.39 57.25Q140.84 57.46 149.47 54.14L149.49 54.16L149.51 54.18Q149.19 54.88 148.36 56.35L148.44 56.43L148.43 56.42Q142.29 64.34 137.50 73.61ZM151.03 58.63L151.00 58.61L152.75 55.31L152.78 55.34Q151.16 56.15 148.35 57.36L148.27 57.28L148.72 56.91L148.72 56.90Q148.81 56.55 149.00 56.36L149.11 56.46L149.02 56.37Q149.77 55.33 150.98 53.10L150.89 53.01L150.92 53.03Q141.98 56.87 132.33 56.49L132.35 56.51L132.20 56.36Q122.17 55.98 114.18 50.99L114.19 51.00L114.13 50.94Q115.87 54.08 117.27 58.56L117.41 58.69L117.42 58.70Q119.18 59.69 120.52 60.20L120.58 60.27L120.52 60.20Q120.70 60.70 121.46 63.83L121.62 63.99L121.53 63.90Q126.94 66.12 136.20 65.86L136.19 65.84L136.05 65.70Q135.66 66.78 132.34 73.11L132.36 73.13L132.23 73.01Q128.91 73.14 125.59 72.82L125.48 72.71L125.55 72.78Q125.58 74.08 125.58 75.55L125.58 75.55L125.57 78.42L128.46 78.50L128.42 80.83L128.39 80.79Q121.83 93.21 117.16 99.22L117.16 99.21L117.20 99.25Q119.89 97.98 122.64 97.15L122.68 97.19L122.55 97.06Q121.40 98.60 119.10 101.48L119.29 101.66L119.12 101.49Q124.44 99.65 128.53 99.27L128.55 99.30L128.51 99.25Q133.44 92.93 138.68 81.56L138.81 81.69L144.49 81.94L144.55 82.00Q144.42 80.47 144.42 78.93L144.35 78.86L144.30 75.81L144.43 75.94Q143.99 75.95 143.07 76.01L143.03 75.97L143.02 75.96Q142.02 75.96 141.58 75.96L141.62 76.01L141.68 76.06Q141.62 75.81 141.68 75.56L141.70 75.57L141.75 75.17L141.70 75.13Q145.84 66.42 151.01 58.62Z"/><path d="M13 31 C157 72,166 29,328 63" stroke="#e2c97d" fill="none"/><path d="M16 62 C151 10,178 133,335 67" stroke="#e85dc6" fill="none"/><path d="M19 6 C183 60,190 108,333 36" stroke="#5adc7b" fill="none"/><path d="M3 121 C172 51,183 137,339 91" stroke="#6082eb" fill="none"/><path d="M20 21 C156 126,178 2,326 120" stroke="#d193e5" fill="none"/><path d="M7 5 C155 89,164 45,323 132" stroke="#e5c86f" fill="none"/><path d="M7 59 C179 31,177 94,338 125" stroke="#ed86ed" fill="none"/><path d="M5 98 C173 107,167 21,334 63" stroke="#bb53de" fill="none"/></svg>