<svg xmlns="http://www.w3.org/2000/svg" width="342" height="140" viewBox="0,0,342,140"><path d="M4 121 C156 16,178 121,338 84" stroke="#e6aa6f" fill="none"/><path d="M21 117 C174 107,153 52,335 36" stroke="#68aaed" fill="none"/><path d="M3 57 C186 126,181 18,325 113" stroke="#95eb79" fill="none"/><path d="M9 12 C163 57,150 68,327 3" stroke="#a865eb" fill="none"/><path d="M13 73 C164 10,183 53,326 134" stroke="#cbe480" fill="none"/><path d="M1 6 C177 108,164 88,329 137" stroke="#e8e868" fill="none"/><path d="M10 2 C181 63,161 36,323 67" stroke="#d552b4" fill="none"/><path d="M17 101 C153 82,186 60,327 139" stroke="#63e2c2" fill="none"/><path d="M11 126 C155 9,158 9,330 110" stroke="#96d656" fill="none"/><path d="M7 16 C163 58,187 23,340 72" stroke="#eded6d" fill="none"/><path fill="#edca62" d="M56.15 99.32L56.13 99.30L56.12 99.30Q53.43 99.44 50.45 98.64L50.38 98.57L50.42 98.61Q48.13 96.90 47.84 93.78L47.83 93.77L47.91 93.84Q47.81 93.46 48.17 88.44L48.07 88.33L48.10 88.36Q50.14 88.07 53.99 87.34L53.95 87.30L53.59 88.76L53.62 88.79Q53.10 92.13 55.79 93.22L55.74 93.16L55.80 93.22Q57.27 93.82 61.27 93.82L61.25 93.80L61.34 93.89Q64.40 93.61 64.77 93.46L64.78 93.47L64.67 93.36Q66.44 93.10 67.83 92.16L67.85 92.18L67.82 92.15Q70.45 90.27 70.08 86.27L70.28 86.47L70.20 86.39Q69.90 81.79 66.59 78.81L66.42 78.64L66.53 78.75Q63.21 75.76 58.48 75.76L58.47 75.75L58.56 75.40L58.39 75.23Q59.24 75.28 60.91 75.13L60.84 75.06L60.91 75.13Q64.43 74.79 67.05 72.43L67.09 72.47L67.21 72.60Q69.74 70.14 70.03 66.58L69.95 66.49L70.07 66.62Q70.25 65.99 70.25 65.34L70.14 65.23L70.10 65.19Q70.12 62.30 67.50 60.55L67.63 60.68L67.47 60.53Q65.27 59.13 62.22 59.34L62.17 59.30L62.22 59.34Q59.78 59.08 57.45 59.88L57.38 59.81L57.47 59.91Q54.65 60.86 54.06 63.05L54.00 62.98L54.00 62.98Q53.59 64.39 53.73 65.84L53.73 65.84L53.75 65.86Q51.86 65.49 47.93 64.11L47.97 64.16L47.96 64.15Q47.57 60.99 47.64 59.39L47.48 59.23L47.48 59.23Q47.72 56.34 49.75 55.03L49.91 55.18L49.83 55.10Q52.55 53.97 55.61 53.97L55.50 53.87L55.61 53.98Q61.65 53.90 67.68 54.41L67.65 54.38L67.58 54.30Q77.35 55.20 76.77 62.40L76.64 62.27L76.76 62.40Q76.49 65.11 75.55 68.09L75.67 68.21L75.62 68.16Q73.93 74.11 69.42 75.86L69.39 75.83L69.29 75.73Q74.44 76.87 75.60 83.27L75.55 83.23L75.56 83.24Q76.09 85.51 76.24 89.37L76.24 89.37L76.19 89.32Q76.52 97.86 67.71 98.74L67.58 98.60L67.64 98.67Q66.31 98.86 56.19 99.37ZM66.05 103.54L66.13 103.63L66.17 103.66Q67.35 103.75 72.80 103.90L72.68 103.78L72.64 103.74Q76.05 103.95 79.18 102.71L79.17 102.70L79.12 102.65Q81.43 100.89 81.07 97.54L81.10 97.58L81.08 97.56Q80.78 94.93 80.20 91.59L80.37 91.75L80.33 91.72Q78.93 83.11 75.22 79.98L75.17 79.93L74.76 79.16L74.79 79.12L74.81 79.13Q78.08 76.29 79.53 67.93L79.48 67.88L79.48 67.88Q79.56 67.01 79.77 65.19L79.86 65.27L79.76 65.17Q80.01 63.82 79.86 62.52L79.88 62.53L79.83 62.48Q79.62 59.36 77.15 58.06L77.18 58.08L76.98 58.03L77.04 58.09Q76.44 56.19 74.26 55.17L74.23 55.13L74.24 55.15Q71.31 53.82 61.50 53.24L61.49 53.24L61.44 53.18Q58.28 53.07 55.22 53.07L55.16 53.02L55.22 53.08Q52.13 53.04 49.22 54.28L49.23 54.29L49.25 54.31Q46.88 55.72 46.88 59.06L46.99 59.18L46.99 59.17Q47.00 58.38 47.51 64.78L47.39 64.67L47.51 64.79Q48.02 64.86 51.14 66.02L51.21 66.09L51.10 65.97Q51.10 67.00 51.03 67.94L51.11 68.02L51.04 67.95Q51.11 68.97 51.19 69.99L51.11 69.92L51.13 69.94Q54.49 70.60 58.35 70.82L58.30 70.78L58.32 70.80Q58.21 66.98 60.32 65.38L60.35 65.41L60.40 65.46Q61.89 64.11 65.74 63.67L65.76 63.69L65.74 63.67Q67.99 63.74 69.09 64.10L69.03 64.05L68.99 64.01Q69.23 64.39 69.30 64.61L69.32 64.63L69.24 64.91L69.37 65.92L69.42 65.96Q69.44 66.35 69.37 66.64L69.29 66.57L69.42 66.69Q69.29 69.98 66.38 72.24L66.23 72.09L66.34 72.19Q64.61 73.96 60.75 74.32L60.80 74.37L60.80 74.37Q59.34 74.58 57.67 74.58L57.71 74.62L57.66 74.57Q57.82 75.31 58.11 76.62L57.98 76.49L58.06 76.57Q61.44 76.60 64.20 77.99L64.07 77.85L63.99 78.00L60.93 78.28L60.93 78.28Q60.94 78.87 61.16 80.03L61.26 80.14L61.28 80.16Q65.38 80.04 68.66 82.59L68.54 82.47L68.67 82.60Q69.05 83.27 69.63 86.40L69.61 86.38L69.62 86.38Q69.92 91.93 64.32 92.73L64.42 92.83L64.41 92.82Q60.27 93.18 59.18 93.11L59.30 93.23L59.26 93.19Q58.43 93.02 57.41 92.87L57.37 92.83L57.47 92.05L57.56 91.06L57.64 90.34L57.68 89.72L57.69 89.73Q55.87 89.88 54.34 90.24L54.34 90.24L54.33 90.23Q54.26 89.80 54.26 89.43L54.41 89.58L54.39 89.56Q54.33 89.07 54.33 88.63L54.49 88.78L54.38 88.67Q54.44 87.87 54.73 86.48L54.84 86.59L54.83 86.58Q51.17 86.92 47.60 87.57L47.60 87.57L47.70 87.67Q47.64 88.56 47.43 90.70L47.51 90.79L47.49 90.77Q47.28 92.93 47.28 94.09L47.21 94.01L47.12 93.93Q47.41 98.00 50.03 99.46L50.03 99.46L49.99 99.42Q52.70 103.65 61.72 103.29L61.75 103.32L61.85 103.42Q63.22 103.34 66.13 103.63Z"/><path d="M3 5 C169 34,171 70,321 20" stroke="#e48a8a" fill="none"/><path d="M3 133 C183 7,164 29,325 82" stroke="#e5388e" fill="none"/><path d="M10 80 C165 47,183 13,327 68" stroke="#6787e9" fill="none"/><path d="M5 99 C165 58,190 38,339 37" stroke="#60ebc8" fill="none"/><path d="M5 31 C169 115,174 32,336 94" stroke="#e890a6" fill="none"/><path d="M11 84 C163 115,179 114,336 78" stroke="#e3cd8c" fill="none"/><path fill="#eaea4c" d="M205.73 74.13L205.73 74.13L205.75 74.15Q207.22 74.10 209.92 73.81L210.04 73.93L209.89 73.78Q209.83 75.03 209.83 76.27L209.84 76.28L209.85 78.68L209.90 78.74Q208.24 78.68 206.64 78.82L206.77 78.96L206.72 78.90Q205.09 78.94 203.49 78.87L203.48 78.86L203.58 78.97Q197.95 90.57 191.40 99.37L191.48 99.45L191.42 99.39Q186.71 100.72 184.24 101.88L184.22 101.86L184.16 101.81Q191.98 90.86 197.80 78.86L197.84 78.90L192.91 78.99L192.83 78.91Q192.95 76.48 192.73 73.93L192.57 73.77L192.58 73.78Q196.26 74.11 200.18 74.11L200.13 74.06L203.78 67.02L203.91 67.15Q205.73 63.43 208.05 60.38L207.98 60.31L208.04 60.37Q205.14 60.74 202.09 60.74L202.08 60.73L202.03 60.69Q190.40 60.69 183.20 56.47L183.15 56.42L182.01 53.25L181.98 53.22Q181.22 51.51 180.49 49.83L180.56 49.91L180.63 49.98Q188.84 54.91 199.75 55.35L199.86 55.46L199.80 55.40Q209.55 55.77 219.37 51.99L219.32 51.94L219.38 51.99Q219.04 52.81 218.09 54.48L218.11 54.50L218.09 54.48Q211.24 63.64 205.78 74.18ZM221.11 57.07L221.16 57.12L222.96 53.17L223.06 53.28Q221.30 54.27 218.10 55.65L218.02 55.58L218.48 55.09L218.36 54.98Q218.68 54.79 218.90 54.57L218.81 54.48L218.93 54.60Q219.56 53.19 220.95 50.65L221.03 50.74L220.97 50.68Q210.68 54.94 199.70 54.50L199.80 54.60L199.75 54.55Q188.25 54.04 179.16 48.36L179.26 48.46L179.12 48.32Q181.21 52.01 182.81 57.10L182.68 56.97L182.83 57.13Q184.79 58.21 186.32 58.79L186.40 58.88L186.44 58.91Q186.72 59.56 187.60 63.12L187.63 63.16L187.51 63.04Q193.57 65.46 204.12 65.17L204.15 65.21L204.11 65.16Q203.63 66.36 199.85 73.56L199.71 73.42L199.70 73.41Q195.94 73.58 192.16 73.22L192.14 73.20L192.16 73.21Q192.26 74.77 192.26 76.44L192.26 76.44L192.20 79.66L195.39 79.65L195.34 82.29L195.42 82.37Q187.88 96.43 182.57 103.27L182.66 103.36L182.66 103.36Q185.68 101.87 188.81 100.93L188.71 100.83L188.72 100.84Q187.53 102.70 184.91 105.98L184.80 105.86L184.88 105.94Q190.89 103.80 195.54 103.37L195.50 103.33L195.58 103.40Q201.20 96.22 207.16 83.27L207.06 83.17L213.70 83.63L213.71 83.64Q213.62 81.94 213.62 80.20L213.48 80.06L213.55 76.72L213.54 76.70Q212.97 76.65 211.92 76.72L211.93 76.73L211.95 76.75Q210.81 76.74 210.30 76.74L210.32 76.76L210.34 76.77Q210.42 76.64 210.49 76.35L210.51 76.37L210.45 75.80L210.41 75.76Q215.37 66.10 221.27 57.22Z"/><path d="M13 48 C154 100,189 19,330 97" stroke="#75dfc5" fill="none"/><path d="M14 112 C167 10,188 46,327 17" stroke="#dc5599" fill="none"/><path d="M1 28 C192 100,189 20,333 100" stroke="#baed86" fill="none"/><path d="M5 128 C166 71,182 65,327 123" stroke="#b281e3" fill="none"/><path d="M11 23 C161 97,177 9,334 121" stroke="#ea57ea" fill="none"/><path d="M7 57 C189 79,153 94,337 91" stroke="#c4e561" fill="none"/><path d="M5 11 C151 139,169 125,339 62" stroke="#4ae2bc" fill="none"/><path d="M12 27 C160 111,152 127,327 137" stroke="#d18c47" fill="none"/><path d="M6 78 C156 24,170 133,338 5" stroke="#9a7feb" fill="none"/><path fill="#d0e985" d="M273.73 74.13L273.71 74.11L273.79 74.19Q275.21 74.08 277.90 73.79L278.01 73.90L277.99 73.88Q277.88 75.08 277.88 76.32L277.96 76.40L277.96 78.80L277.97 78.81Q276.32 78.75 274.72 78.90L274.63 78.81L274.64 78.83Q273.14 79.00 271.54 78.93L271.43 78.82L271.53 78.91Q266.12 90.74 259.58 99.55L259.41 99.38L259.52 99.49Q254.76 100.76 252.28 101.93L252.21 101.85L252.22 101.87Q260.00 90.88 265.82 78.88L265.88 78.94L260.92 78.99L260.80 78.87Q260.85 76.38 260.63 73.83L260.75 73.95L260.69 73.89Q264.36 74.22 268.29 74.22L268.20 74.13L271.87 67.10L271.90 67.14Q273.75 63.46 276.08 60.41L276.01 60.33L276.09 60.42Q273.03 60.63 269.98 60.63L270.01 60.67L270.08 60.74Q258.35 60.64 251.15 56.42L251.28 56.55L250.01 53.24L249.89 53.12Q249.39 51.69 248.67 50.01L248.58 49.93L248.65 50.00Q256.82 54.90 267.74 55.33L267.72 55.32L267.78 55.38Q277.68 55.89 287.50 52.11L287.44 52.05L287.52 52.13Q287.10 52.87 286.15 54.55L286.11 54.50L286.11 54.51Q279.20 63.60 273.75 74.15ZM289.08 57.04L289.17 57.13L291.10 53.32L290.98 53.19Q289.25 54.23 286.05 55.61L285.96 55.52L286.45 55.06L286.48 55.09Q286.53 54.63 286.75 54.41L286.92 54.59L286.94 54.60Q287.58 53.21 288.96 50.67L288.91 50.62L288.85 50.55Q278.73 54.98 267.75 54.54L267.69 54.49L267.73 54.52Q256.22 54.00 247.12 48.33L247.16 48.36L247.10 48.30Q249.06 51.86 250.66 56.96L250.70 57.00L250.81 57.10Q252.79 58.21 254.31 58.79L254.49 58.96L254.32 58.80Q254.75 59.58 255.62 63.15L255.48 63.01L255.51 63.04Q261.64 65.53 272.18 65.24L272.13 65.18L272.05 65.10Q271.64 66.37 267.86 73.57L267.78 73.49L267.70 73.41Q263.93 73.57 260.15 73.21L260.05 73.11L260.03 73.08Q260.26 74.77 260.26 76.44L260.24 76.42L260.26 79.72L263.34 79.60L263.39 82.34L263.36 82.30Q256.00 96.56 250.69 103.39L250.59 103.29L250.56 103.26Q253.58 101.77 256.71 100.83L256.73 100.85L256.71 100.82Q255.39 102.56 252.77 105.84L252.84 105.90L252.79 105.86Q258.85 103.77 263.50 103.33L263.51 103.34L263.63 103.46Q269.26 96.28 275.22 83.34L275.20 83.31L281.59 83.52L281.62 83.54Q281.61 81.94 281.61 80.19L281.45 80.03L281.54 76.70L281.59 76.75Q281.00 76.67 279.95 76.75L279.92 76.72L279.88 76.68Q278.84 76.77 278.33 76.77L278.36 76.79L278.46 76.90Q278.31 76.53 278.38 76.23L278.47 76.32L278.43 75.78L278.50 75.85Q283.33 66.05 289.22 57.18Z"/><path d="M12 114 C188 34,172 138,338 126" stroke="#c461e5" fill="none"/><path fill="#cbe971" d="M137.84 74.24L137.79 74.20L137.68 74.08Q139.24 74.11 141.93 73.82L142.02 73.91L142.04 73.93Q141.81 75.01 141.81 76.24L141.88 76.31L141.89 78.73L141.91 78.74Q140.26 78.70 138.66 78.84L138.78 78.96L138.71 78.89Q137.07 78.93 135.47 78.86L135.49 78.87L135.54 78.92Q129.97 90.60 123.43 99.40L123.50 99.47L123.46 99.43Q118.75 100.76 116.28 101.92L116.17 101.81L116.23 101.88Q124.02 90.90 129.84 78.90L129.90 78.95L124.83 78.91L124.88 78.95Q124.84 76.37 124.62 73.82L124.72 73.93L124.71 73.91Q128.32 74.18 132.25 74.18L132.17 74.10L135.86 67.09L135.90 67.13Q137.80 63.51 140.13 60.45L140.09 60.42L140.01 60.34Q137.00 60.60 133.95 60.60L134.12 60.78L134.06 60.71Q122.41 60.70 115.21 56.48L115.25 56.53L113.98 53.21L113.96 53.20Q113.25 51.54 112.52 49.87L112.65 50.00L112.59 49.94Q120.88 54.96 131.80 55.39L131.84 55.44L131.77 55.37Q141.66 55.88 151.48 52.10L151.34 51.96L151.37 51.98Q150.99 52.76 150.04 54.44L150.09 54.49L150.12 54.51Q143.16 63.56 137.71 74.11ZM153.07 57.03L153.20 57.16L155.00 53.21L155.03 53.24Q153.16 54.14 149.96 55.52L149.97 55.53L150.37 54.99L150.41 55.02Q150.62 54.72 150.84 54.51L150.76 54.43L150.82 54.49Q151.62 53.25 153.00 50.70L152.91 50.61L153.04 50.74Q142.76 55.01 131.77 54.57L131.74 54.54L131.84 54.64Q120.27 54.05 111.18 48.38L111.26 48.46L111.23 48.43Q113.25 52.05 114.85 57.14L114.73 57.02L114.68 56.97Q116.90 58.32 118.43 58.90L118.48 58.96L118.43 58.90Q118.73 59.57 119.61 63.14L119.52 63.05L119.61 63.14Q125.66 65.55 136.20 65.26L136.13 65.19L136.20 65.25Q135.60 66.33 131.82 73.53L131.79 73.50L131.73 73.44Q127.88 73.52 124.10 73.16L123.97 73.03L124.14 73.20Q124.22 74.73 124.22 76.40L124.22 76.41L124.22 79.68L127.32 79.58L127.36 82.31L127.36 82.31Q119.91 96.47 114.60 103.31L114.65 103.35L114.53 103.23Q117.65 101.84 120.78 100.90L120.89 101.01L120.88 101.00Q119.57 102.74 116.95 106.01L116.81 105.87L116.81 105.88Q122.93 103.85 127.59 103.41L127.65 103.48L127.53 103.35Q133.13 96.15 139.09 83.20L139.15 83.26L145.65 83.58L145.57 83.50Q145.50 81.83 145.50 80.08L145.57 80.15L145.47 76.63L145.46 76.62Q145.11 76.78 144.05 76.85L144.04 76.84L143.88 76.68Q142.87 76.80 142.37 76.80L142.40 76.83L142.49 76.93Q142.46 76.68 142.54 76.39L142.54 76.40L142.49 75.83L142.41 75.76Q147.28 66.01 153.18 57.14Z"/><path d="M14 82 C174 91,168 56,335 125" stroke="#5696d6" fill="none"/><path d="M14 127 C192 15,175 57,325 57" stroke="#bb3ce5" fill="none"/><path d="M12 18 C184 128,186 104,328 61" stroke="#76e9cc" fill="none"/><path d="M12 14 C156 13,182 124,329 15" stroke="#86eda0" fill="none"/><path d="M10 128 C189 135,160 47,339 32" stroke="#93ef75" fill="none"/><path d="M13 101 C165 62,154 90,323 56" stroke="#5b9ee0" fill="none"/><path d="M2 63 C167 72,150 75,325 6" stroke="#6767de" fill="none"/><path d="M4 24 C162 110,157 65,335 79" stroke="#ed7c98" fill="none"/><path d="M19 59 C181 64,165 32,324 70" stroke="#7b5adc" fill="none"/><path d="M19 60 C183 75,190 98,337 28" stroke="#57df57" fill="none"/><path d="M14 62 C167 130,170 39,328 30" stroke="#d641d6" fill="none"/><path d="M9 84 C169 16,186 80,337 118" stroke="#b2e87c" fill="none"/><path d="M8 94 C159 37,178 95,338 51" stroke="#f1bc87" fill="none"/><path d="M2 104 C191 124,178 38,329 17" stroke="#e49d85" fill="none"/></svg>