<svg xmlns="http://www.w3.org/2000/svg" width="342" height="140" viewBox="0,0,342,140"><path d="M19 124 C154 19,180 130,333 25" stroke="#d45373" fill="none"/><path d="M13 3 C174 133,168 79,333 58" stroke="#5555dc" fill="none"/><path fill="#ee9071" d="M272.44 82.88L272.28 82.71L272.33 82.76Q277.30 82.17 282.44 82.35L282.41 82.32L282.41 82.33Q282.46 78.33 282.46 74.48L282.40 74.42L282.40 74.42Q282.42 70.47 282.73 66.37L282.69 66.32L282.61 66.25Q280.80 69.15 272.42 82.86ZM288.34 94.68L288.28 94.62L288.30 94.63Q285.61 94.15 282.74 94.03L282.68 93.98L282.72 94.01Q282.37 90.17 282.18 86.20L282.19 86.20L282.15 86.16Q273.64 85.91 266.05 88.17L266.13 88.25L266.04 88.17Q266.23 87.37 266.53 85.78L266.56 85.81L266.62 85.87Q269.46 80.75 275.21 70.66L275.15 70.59L275.10 70.55Q279.76 62.72 285.27 56.48L285.23 56.45L285.42 56.64Q286.64 56.15 289.33 55.72L289.37 55.75L289.37 55.75Q286.46 66.24 286.46 77.56L286.33 77.43L286.30 77.40Q286.44 79.93 286.56 82.31L286.46 82.22L288.58 82.43L288.52 82.38Q289.52 82.45 290.49 82.64L290.59 82.73L290.44 82.58Q290.74 84.29 291.17 87.41L291.23 87.47L291.18 87.42Q289.26 87.03 286.88 86.73L286.70 86.55L286.71 86.56Q287.20 89.93 288.30 94.64ZM290.86 81.96L291.03 82.14L291.04 82.14Q290.55 81.84 290.25 81.84L290.28 81.88L289.65 81.86L289.70 81.91Q289.63 79.63 289.63 77.37L289.51 77.25L289.54 77.27Q289.52 66.98 292.83 57.32L292.87 57.36L292.77 57.26Q291.64 57.78 289.31 58.39L289.20 58.28L289.38 58.45Q289.65 57.14 290.39 54.87L290.32 54.81L290.32 54.81Q288.29 55.47 284.98 55.83L284.94 55.79L284.96 55.81Q278.65 62.78 270.27 77.83L270.33 77.89L273.62 71.94L273.76 72.08Q272.97 73.62 272.54 74.54L272.64 74.64L265.42 89.07L265.44 89.09Q266.51 88.88 268.35 88.27L268.40 88.32L268.05 88.58L268.17 88.70Q267.91 89.73 267.42 91.75L267.45 91.77L267.30 91.62Q273.97 89.55 281.74 89.85L281.72 89.83L281.76 89.87Q281.77 91.35 282.08 94.54L282.07 94.53L282.16 94.61Q283.85 94.59 285.56 94.77L285.63 94.84L285.61 94.82Q285.77 95.84 286.20 98.05L286.19 98.04L286.21 98.06Q289.25 98.40 294.08 99.87L294.16 99.94L294.06 99.84Q292.48 96.43 291.01 91.17L291.10 91.26L293.35 91.92L293.34 91.90Q294.53 92.36 295.63 92.91L295.53 92.82L295.55 92.83Q294.30 88.83 294.05 86.13L294.03 86.11L294.10 86.18Q293.14 85.90 291.31 85.53L291.25 85.47L291.27 85.49Q290.93 83.44 290.93 82.03ZM278.14 81.84L278.14 81.84L278.17 81.88Q279.25 79.65 281.76 75.55L281.74 75.54L281.83 75.63Q281.79 77.11 281.73 78.64L281.83 78.75L281.68 78.60Q281.76 80.27 281.82 81.80L281.81 81.79L281.82 81.79Q281.00 81.83 280.09 81.83L280.07 81.82L279.96 81.71Q279.09 81.82 278.12 81.82Z"/><path d="M13 56 C161 74,181 93,335 76" stroke="#e853c3" fill="none"/><path d="M5 67 C187 68,166 30,339 115" stroke="#7ecce6" fill="none"/><path d="M13 50 C177 136,176 45,321 43" stroke="#e6ba8e" fill="none"/><path d="M9 107 C186 52,177 5,321 54" stroke="#4f72dd" fill="none"/><path d="M7 34 C155 51,177 38,325 38" stroke="#e961a5" fill="none"/><path d="M4 115 C158 114,184 4,328 116" stroke="#ebeb7e" fill="none"/><path fill="#ad71e8" d="M46.77 94.73L46.76 94.73L46.75 94.71Q44.46 94.81 41.95 94.13L41.85 94.04L41.88 94.07Q40.02 92.70 39.78 90.07L39.76 90.04L39.66 89.95Q39.71 89.75 40.02 85.53L40.02 85.53L39.91 85.42Q41.71 85.27 44.95 84.66L44.84 84.54L44.49 85.72L44.49 85.72Q44.17 88.65 46.44 89.57L46.31 89.44L46.48 89.61Q47.65 90.05 51.02 90.05L51.13 90.16L51.06 90.09Q53.69 89.90 53.99 89.78L53.93 89.71L53.98 89.77Q55.40 89.48 56.57 88.68L56.58 88.70L56.50 88.61Q58.83 87.15 58.52 83.79L58.50 83.76L58.45 83.72Q58.24 79.89 55.45 77.38L55.49 77.42L55.37 77.30Q52.61 74.82 48.64 74.82L48.65 74.83L48.58 74.40L48.73 74.54Q49.28 74.42 50.69 74.30L50.70 74.31L50.75 74.36Q53.64 74.01 55.84 72.02L55.92 72.10L55.87 72.05Q58.10 70.09 58.35 67.09L58.40 67.15L58.45 67.20Q58.51 66.58 58.51 66.03L58.48 66.00L58.57 66.09Q58.45 63.53 56.25 62.06L56.24 62.05L56.36 62.17Q54.42 60.90 51.85 61.09L51.87 61.10L51.80 61.03Q49.61 60.68 47.65 61.35L47.82 61.52L47.73 61.44Q45.41 62.29 44.92 64.13L44.95 64.15L44.91 64.11Q44.61 65.34 44.73 66.57L44.82 66.65L44.77 66.60Q43.07 66.19 39.76 65.03L39.78 65.05L39.75 65.02Q39.33 62.27 39.40 60.93L39.45 60.98L39.54 61.07Q39.58 58.48 41.29 57.37L41.32 57.41L41.41 57.50Q43.69 56.54 46.26 56.54L46.28 56.55L46.20 56.48Q51.23 56.37 56.31 56.80L56.28 56.77L56.46 56.94Q64.42 57.44 63.93 63.50L64.01 63.58L64.09 63.66Q63.85 65.92 63.05 68.43L63.07 68.45L63.14 68.52Q61.57 73.37 57.77 74.84L57.91 74.97L57.83 74.90Q62.00 75.70 62.98 81.09L62.94 81.05L62.94 81.04Q63.42 82.99 63.54 86.23L63.59 86.28L63.51 86.21Q63.85 93.46 56.45 94.19L56.40 94.14L56.30 94.05Q55.23 94.26 46.73 94.69ZM55.01 98.20L55.14 98.33L55.16 98.35Q56.01 98.28 60.60 98.40L60.71 98.51L60.57 98.37Q63.53 98.64 66.16 97.60L66.03 97.47L66.05 97.50Q67.97 95.99 67.66 93.17L67.73 93.24L67.76 93.27Q67.46 91.01 66.97 88.19L67.02 88.25L66.92 88.15Q65.89 81.06 62.77 78.43L62.67 78.33L62.51 77.86L62.41 77.70L62.31 77.60Q65.24 75.39 66.46 68.36L66.34 68.23L66.31 68.20Q66.42 67.52 66.61 65.99L66.69 66.07L66.63 66.01Q66.66 64.70 66.54 63.60L66.72 63.78L66.69 63.75Q66.46 61.07 64.38 59.97L64.38 59.97L64.18 59.89L64.15 59.86Q63.68 58.29 61.84 57.44L61.92 57.51L61.83 57.42Q59.37 56.31 51.11 55.82L51.09 55.80L51.12 55.83Q48.40 55.68 45.83 55.68L45.81 55.66L45.89 55.74Q43.28 55.69 40.83 56.73L40.81 56.71L40.81 56.71Q38.98 58.07 38.98 60.88L38.89 60.79L39.01 60.91Q39.02 60.24 39.44 65.63L39.39 65.57L39.40 65.58Q39.75 65.57 42.38 66.54L42.41 66.57L42.39 66.55Q42.39 67.41 42.33 68.21L42.45 68.32L42.48 68.35Q42.46 69.13 42.52 69.99L42.41 69.88L42.47 69.94Q45.40 70.61 48.65 70.79L48.60 70.74L48.55 70.70Q48.44 67.46 50.21 66.12L50.33 66.24L50.15 66.05Q51.52 65.03 54.76 64.67L54.79 64.69L54.80 64.70Q56.71 64.78 57.63 65.09L57.50 64.96L57.61 65.07Q57.58 65.16 57.64 65.35L57.72 65.42L57.68 65.69L57.80 66.54L57.82 66.57Q57.95 67.00 57.89 67.25L57.79 67.15L57.93 67.28Q57.72 69.95 55.27 71.85L55.32 71.90L55.22 71.80Q53.84 73.35 50.60 73.66L50.54 73.60L50.53 73.60Q49.33 73.80 47.93 73.80L47.97 73.84L48.05 73.93Q48.04 74.41 48.29 75.51L48.31 75.53L48.31 75.53Q51.11 75.51 53.43 76.68L53.52 76.77L53.34 76.76L50.66 76.90L50.74 76.98Q50.83 77.56 51.01 78.54L51.04 78.57L50.96 78.48Q54.32 78.30 57.07 80.44L57.22 80.59L57.20 80.57Q57.50 81.11 57.99 83.74L58.04 83.80L58.02 83.77Q58.40 88.56 53.69 89.23L53.56 89.10L53.62 89.16Q50.19 89.52 49.27 89.46L49.39 89.59L49.35 89.54Q48.67 89.42 47.82 89.29L47.77 89.24L47.64 88.38L47.94 87.77L47.94 87.09L48.10 86.70L48.10 86.70Q46.58 86.83 45.29 87.14L45.32 87.17L45.27 87.11Q45.26 86.80 45.26 86.49L45.16 86.40L45.15 86.39Q45.28 86.15 45.28 85.78L45.19 85.69L45.30 85.80Q45.28 85.05 45.53 83.89L45.49 83.85L45.57 83.93Q42.52 84.24 39.52 84.79L39.58 84.85L39.54 84.81Q39.47 85.54 39.29 87.34L39.27 87.33L39.33 87.38Q39.25 89.29 39.25 90.27L39.17 90.20L39.23 90.25Q39.31 93.51 41.51 94.73L41.43 94.66L41.47 94.69Q43.79 98.30 51.38 97.99L51.38 98.00L51.40 98.02Q52.68 98.08 55.13 98.32Z"/><path d="M9 58 C177 55,171 5,340 130" stroke="#7fea5b" fill="none"/><path d="M14 63 C155 27,175 81,338 10" stroke="#53d996" fill="none"/><path d="M9 44 C181 102,150 88,324 111" stroke="#e17979" fill="none"/><path d="M17 74 C191 93,167 39,334 100" stroke="#e86868" fill="none"/><path d="M10 49 C159 1,153 66,322 101" stroke="#9072e8" fill="none"/><path d="M15 86 C152 74,173 67,327 110" stroke="#ed8686" fill="none"/><path d="M20 32 C185 101,175 36,328 114" stroke="#ed7cd1" fill="none"/><path d="M16 57 C183 18,181 36,331 134" stroke="#cd73ec" fill="none"/><path d="M5 43 C177 85,173 49,324 53" stroke="#99de53" fill="none"/><path d="M9 137 C162 14,161 102,335 131" stroke="#eda086" fill="none"/><path d="M4 83 C175 50,152 67,337 91" stroke="#c7e961" fill="none"/><path d="M8 8 C186 101,154 31,322 119" stroke="#85ee85" fill="none"/><path d="M14 110 C154 11,155 120,338 133" stroke="#dc5096" fill="none"/><path d="M16 15 C184 90,160 79,339 129" stroke="#d5b042" fill="none"/><path d="M3 107 C186 29,168 80,327 124" stroke="#73e2aa" fill="none"/><path fill="#81e89b" d="M108.75 76.83L108.56 76.64L108.64 76.72Q105.68 76.75 103.72 78.89L103.66 78.84L103.75 78.92Q101.68 80.95 101.43 84.01L101.49 84.07L101.50 84.08Q101.21 87.52 103.17 89.14L103.10 89.07L103.21 89.18Q105.10 90.73 108.52 90.61L108.57 90.66L108.56 90.65Q112.31 90.42 113.84 88.89L113.77 88.82L113.75 88.80Q115.41 86.48 115.22 83.55L115.20 83.53L115.31 83.63Q115.16 80.66 113.41 78.74L113.43 78.75L113.31 78.63Q111.58 76.72 108.65 76.72ZM108.58 61.54L108.61 61.58L108.57 61.53Q106.30 61.35 104.16 62.14L104.25 62.23L104.17 62.15Q102.05 63.40 102.42 66.40L102.56 66.54L102.48 66.46Q103.35 72.53 108.73 72.53L108.65 72.44L108.56 72.36Q111.24 72.83 112.83 70.99L112.79 70.95L112.80 70.96Q114.43 69.17 114.49 66.66L114.34 66.51L114.43 66.60Q114.49 63.73 113.33 62.75L113.43 62.84L113.26 62.68Q110.77 61.53 108.69 61.66ZM108.25 94.69L108.22 94.65L103.23 94.56L103.33 94.66Q100.79 94.56 98.65 93.15L98.74 93.25L98.62 93.13Q96.48 91.35 96.72 86.77L96.74 86.78L96.79 86.83Q97.50 75.79 103.31 74.20L103.26 74.15L103.32 74.21Q99.67 72.76 97.53 64.13L97.39 63.99L97.38 63.99Q96.94 61.83 97.06 60.55L96.97 60.45L97.02 60.51Q97.57 57.15 103.51 57.08L103.50 57.08L103.47 57.04Q110.23 56.89 112.55 57.19L112.51 57.15L112.50 57.15Q118.84 58.17 119.58 61.41L119.51 61.34L119.53 61.36Q119.65 62.28 119.65 62.89L119.74 62.98L119.60 62.84Q119.65 63.99 119.35 64.97L119.26 64.89L119.44 65.06Q118.42 71.81 113.71 74.26L113.75 74.30L113.64 74.19Q119.30 75.50 120.09 84.01L120.03 83.95L120.03 83.95Q120.05 84.21 120.11 86.29L120.25 86.43L120.24 86.43Q120.31 90.78 117.74 92.49L117.61 92.36L117.69 92.43Q115.56 93.92 108.22 94.65ZM111.83 98.32L111.92 98.41L117.22 98.45L117.30 98.54Q120.05 98.65 122.49 97.48L122.50 97.49L122.50 97.49Q124.26 96.26 124.39 93.26L124.32 93.19L124.46 93.33Q124.53 91.57 123.92 88.45L123.84 88.37L123.84 88.37Q122.45 80.98 119.08 77.98L119.08 77.98L118.74 77.33L118.41 76.88L118.19 76.48L118.05 76.34Q120.68 74.14 122.15 67.47L122.29 67.61L122.28 67.60Q122.30 67.00 122.42 65.66L122.45 65.68L122.36 65.60Q122.48 64.50 122.36 63.52L122.44 63.59L122.41 63.56Q122.05 61.12 120.15 60.33L120.12 60.30L120.20 60.31L120.06 60.30L119.95 60.19Q119.55 59.05 117.65 57.77L117.61 57.73L117.77 57.82L117.76 57.81Q114.48 56.62 107.94 56.31L107.92 56.30L107.93 56.31Q105.45 56.15 103.25 56.33L103.31 56.40L103.34 56.42Q101.93 56.37 99.85 56.61L99.81 56.57L99.90 56.66Q96.79 57.28 96.42 59.91L96.43 59.92L96.35 59.84Q96.45 60.80 96.51 62.08L96.38 61.95L96.34 61.91Q96.58 62.82 97.49 66.61L97.43 66.55L97.48 66.60Q98.84 71.88 101.66 74.02L101.67 74.03L101.74 74.10L101.70 74.06Q97.18 76.08 96.32 84.40L96.36 84.45L96.42 84.50Q96.07 88.01 96.07 89.48L96.09 89.50L96.09 89.50Q96.20 92.36 98.10 93.83L98.22 93.95L98.18 93.92Q98.31 93.98 98.74 94.29L98.84 94.39L98.74 94.29Q100.43 98.00 111.88 98.37ZM111.35 80.59L111.34 80.58L111.28 80.52Q112.83 80.48 114.24 81.21L114.17 81.15L114.11 81.09Q114.84 82.80 114.78 83.65L114.68 83.55L114.79 83.66Q114.86 84.16 114.86 84.65L114.86 84.65L114.81 84.60Q114.70 88.29 111.03 89.63L111.08 89.68L111.16 89.76Q109.85 90.22 108.56 90.04L108.48 89.96L108.45 89.93Q106.80 90.23 104.96 89.50L104.88 89.41L105.00 89.53Q104.47 88.40 104.59 86.80L104.61 86.82L104.64 86.85Q104.86 84.25 106.79 82.30L106.75 82.26L106.69 82.21Q108.80 80.43 111.37 80.61ZM111.61 65.24L111.70 65.34L111.65 65.29Q112.95 65.12 113.80 65.36L113.76 65.32L113.69 66.54L113.86 66.70Q113.81 68.92 112.35 70.54L112.38 70.58L112.35 70.54Q110.80 72.09 108.60 71.78L108.63 71.81L108.56 71.75Q106.98 71.75 106.31 71.39L106.48 71.56L106.38 71.46Q106.23 70.94 106.05 69.84L106.22 70.01L106.07 69.87Q105.73 67.69 107.69 66.34L107.69 66.34L107.65 66.31Q109.46 65.30 111.72 65.36Z"/><path d="M5 71 C181 20,166 94,336 16" stroke="#6baae9" fill="none"/><path d="M3 97 C188 2,174 139,322 112" stroke="#e18769" fill="none"/><path d="M9 137 C185 83,180 48,340 123" stroke="#db7070" fill="none"/><path d="M2 96 C182 58,172 69,337 67" stroke="#e64596" fill="none"/><path d="M16 90 C175 29,184 64,326 99" stroke="#46db46" fill="none"/><path d="M4 36 C159 57,150 80,323 93" stroke="#84e5e5" fill="none"/><path fill="#de6767" d="M222.89 67.36L222.90 67.36L222.88 67.34Q217.83 67.43 214.89 65.72L214.88 65.70L214.79 65.62Q218.83 63.42 226.66 56.63L226.68 56.65L226.70 56.66Q228.01 56.51 230.09 55.53L229.99 55.43L230.01 55.44Q227.78 64.90 227.60 75.12L227.72 75.24L227.61 75.13Q227.43 85.36 229.15 95.15L229.17 95.17L229.14 95.14Q226.59 94.12 223.16 93.94L223.08 93.85L223.11 93.88Q222.95 87.24 222.95 80.70L222.81 80.56L222.88 80.62Q223.00 74.14 223.06 67.53ZM222.45 71.13L222.29 94.41L222.38 94.50Q224.38 94.54 225.90 94.84L225.83 94.76L225.76 94.70Q225.88 95.80 226.19 98.00L226.32 98.13L226.27 98.09Q230.95 99.03 234.87 102.64L234.72 102.50L234.85 102.62Q230.89 91.20 230.83 79.21L230.65 79.03L230.81 79.19Q230.66 67.18 233.60 55.55L233.52 55.47L233.62 55.57Q232.75 56.23 230.18 58.00L230.13 57.96L230.15 57.98Q230.33 56.63 230.82 54.18L230.83 54.19L230.84 54.20Q228.86 55.58 226.54 56.19L226.51 56.17L226.43 56.09Q220.31 61.77 213.39 65.45L213.41 65.47L213.42 65.47Q215.70 67.26 219.49 67.81L219.51 67.83L219.50 67.82Q218.41 68.63 216.33 70.34L216.47 70.48L216.39 70.40Q218.73 70.96 222.28 70.96L222.27 70.96Z"/><path d="M5 56 C169 108,191 116,326 123" stroke="#98d2e6" fill="none"/><path d="M15 128 C169 60,188 69,321 112" stroke="#af7ee1" fill="none"/><path fill="#8869e7" d="M178.00 90.70L177.98 90.68L177.97 90.66Q178.52 92.32 179.38 95.56L179.49 95.67L179.29 95.48Q172.55 93.38 165.14 93.81L165.27 93.93L165.18 93.85Q157.91 94.35 151.49 97.53L151.43 97.47L151.49 97.53Q151.86 96.43 151.92 96.55L151.77 96.40L151.84 96.47Q157.83 90.11 164.14 83.01L164.06 82.93L164.14 83.02Q171.16 74.92 173.06 67.40L173.08 67.42L173.24 67.58Q173.79 64.59 171.74 62.69L171.85 62.80L171.76 62.71Q169.74 60.84 166.86 61.08L166.83 61.05L166.95 61.16Q166.42 61.12 165.86 61.12L165.90 61.16L165.71 60.97Q163.43 61.14 161.41 62.60L161.27 62.47L161.36 62.56Q159.34 64.82 159.71 69.10L159.65 69.04L159.59 68.98Q156.72 68.43 154.76 67.70L154.70 67.64L154.86 67.80Q154.41 65.39 154.28 63.06L154.46 63.24L154.32 63.10Q154.33 60.60 155.31 58.76L155.15 58.61L155.26 58.71Q158.00 56.38 163.39 56.38L163.42 56.41L166.32 56.51L166.36 56.54Q169.92 56.49 171.45 56.68L171.48 56.70L171.40 56.62Q178.51 57.44 178.94 61.35L178.96 61.37L178.83 61.24Q179.09 62.30 178.97 63.58L178.91 63.53L178.82 63.43Q178.86 64.58 178.62 65.68L178.60 65.66L178.57 65.63Q176.05 78.77 163.87 89.78L163.88 89.79L163.81 89.72Q166.13 89.54 168.34 89.54L168.17 89.37L168.22 89.42Q173.42 89.42 178.01 90.70ZM177.05 57.19L177.05 57.19L177.14 57.29Q174.57 56.24 171.81 56.12L171.77 56.07L166.29 55.80L166.33 55.83Q159.16 55.40 155.61 57.17L155.68 57.24L155.58 57.14Q153.89 59.36 153.89 62.67L153.83 62.61L153.90 62.68Q154.03 63.91 154.52 68.44L154.50 68.42L154.45 68.37Q155.32 68.75 157.22 69.24L157.09 69.11L157.11 70.78L157.28 70.95Q157.06 71.53 157.18 72.39L157.34 72.54L157.31 72.51Q159.17 72.53 163.14 72.90L163.19 72.95L163.29 73.05Q163.16 72.36 163.16 71.81L163.14 71.80L163.24 71.90Q163.17 68.89 165.13 66.72L165.15 66.74L165.19 66.78Q167.12 64.58 170.00 64.76L169.99 64.76L170.05 64.82Q171.17 64.77 172.39 65.02L172.34 64.96L172.44 65.06Q172.63 65.69 172.76 66.36L172.69 66.30L172.79 66.39Q172.71 66.93 172.59 67.48L172.66 67.56L172.64 67.53Q170.57 75.12 163.47 82.89L163.49 82.91L163.45 82.87Q160.05 86.51 151.30 96.24L151.43 96.37L151.33 96.27Q151.11 97.70 150.56 98.61L150.60 98.66L150.44 98.50Q153.05 97.14 155.50 96.28L155.56 96.34L155.48 96.26Q154.30 97.16 152.78 99.55L152.92 99.69L152.77 99.54Q152.69 100.20 152.51 100.75L152.55 100.80L152.41 100.65Q160.29 97.39 169.10 97.70L169.07 97.67L169.09 97.69Q178.31 98.04 185.65 101.83L185.57 101.76L183.89 98.24L183.98 98.32Q182.99 96.24 182.56 94.95L182.45 94.84L182.53 94.92Q181.30 94.18 179.34 93.51L179.43 93.59L179.34 93.50Q179.05 92.30 178.44 90.10L178.44 90.10L178.55 90.20Q175.06 89.35 171.39 89.04L171.27 88.92L171.26 88.91Q178.76 81.54 181.21 68.27L181.34 68.40L181.60 63.70L181.56 63.66Q181.51 60.86 179.55 59.76L179.52 59.73L179.55 59.82L179.41 59.68Q179.34 59.55 179.22 59.55L179.37 59.70L179.27 59.60Q178.84 58.19 177.06 57.21Z"/><path d="M2 33 C163 11,174 131,324 42" stroke="#de58de" fill="none"/><path d="M11 23 C156 123,159 6,328 9" stroke="#89e5b7" fill="none"/><path d="M10 74 C153 114,166 130,333 61" stroke="#ee80d3" fill="none"/><path d="M15 52 C156 19,171 28,338 78" stroke="#cf87e8" fill="none"/><path d="M7 78 C165 64,171 14,334 55" stroke="#6cc2de" fill="none"/><path d="M17 62 C164 32,185 36,327 95" stroke="#7fcfea" fill="none"/><path d="M7 10 C152 104,182 111,340 97" stroke="#54dd99" fill="none"/><path d="M9 43 C181 63,164 94,331 56" stroke="#5959d8" fill="none"/><path d="M2 123 C177 75,180 55,327 58" stroke="#5e7ede" fill="none"/></svg>