<svg xmlns="http://www.w3.org/2000/svg" width="342" height="140" viewBox="0,0,342,140"><path d="M10 107 C172 57,178 63,335 135" stroke="#9e54e7" fill="none"/><path d="M15 45 C152 108,169 44,328 25" stroke="#e9a058" fill="none"/><path d="M20 63 C166 28,164 126,326 53" stroke="#e8ca72" fill="none"/><path fill="#df5779" d="M160.47 96.36L160.52 96.41L160.46 96.35Q153.58 96.85 151.88 92.87L151.87 92.86L151.77 92.75Q153.04 91.09 155.72 88.02L155.73 88.03L155.72 88.02Q156.59 91.51 161.75 91.71L161.83 91.78L161.77 91.73Q167.56 91.84 170.37 89.56L170.34 89.53L170.47 89.65Q172.83 86.87 172.70 82.23L172.64 82.17L172.58 82.10Q172.45 73.56 164.23 73.95L164.17 73.90L164.22 73.94Q159.35 74.16 156.35 76.32L156.43 76.40L155.76 75.99L155.39 75.75L155.35 75.72Q156.06 70.42 155.87 65.72L155.80 65.66L155.82 65.68Q155.68 61.23 155.09 55.55L155.11 55.57L154.98 55.44Q161.39 57.21 167.92 57.02L167.93 57.03L167.93 57.03Q174.36 56.81 180.50 54.65L180.55 54.71L179.47 57.22L179.49 57.24Q178.94 58.51 178.62 59.95L178.70 60.03L178.72 60.06Q173.41 61.85 166.75 61.85L166.60 61.71L166.65 61.76Q164.18 61.77 161.64 61.51L161.68 61.55L161.75 61.61Q161.46 62.64 160.87 70.27L161.02 70.42L161.02 70.41Q162.41 69.59 165.93 69.33L165.79 69.19L165.97 69.36Q172.24 69.63 174.72 72.50L174.83 72.61L174.72 72.50Q177.04 75.08 177.50 81.67L177.66 81.84L177.48 81.65Q177.96 88.86 175.87 92.32L176.01 92.46L175.87 92.32Q172.47 95.64 166.80 96.03L166.71 95.95L166.85 96.09Q165.03 96.10 160.47 96.36ZM170.89 100.33L170.83 100.26L170.84 100.28Q176.74 100.43 180.01 98.54L180.06 98.60L179.89 98.42Q181.67 95.89 181.67 92.30L181.65 92.29L181.61 92.25Q181.71 87.06 180.08 80.01L180.10 80.03L180.09 80.03Q179.42 77.00 177.33 74.59L177.28 74.54L177.33 74.66L177.08 74.28L176.34 73.79L176.34 73.80Q175.79 72.53 174.68 71.36L174.83 71.50L174.71 71.45L174.69 71.42Q172.17 68.64 165.84 68.64L165.88 68.69L165.33 68.59L165.32 68.58Q165.58 67.74 165.91 65.84L165.91 65.84L165.85 65.78Q174.28 65.87 181.20 63.06L181.21 63.07L181.31 63.16Q181.95 60.68 183.58 55.85L183.64 55.91L180.02 57.50L180.13 57.61Q180.76 55.64 181.61 53.68L181.60 53.67L181.56 53.63Q175.01 56.15 167.97 56.28L167.99 56.31L168.01 56.33Q160.95 56.51 154.16 54.62L154.14 54.60L153.98 54.44Q155.25 62.10 155.25 69.67L155.23 69.65L155.28 69.71Q155.18 72.87 154.98 76.13L155.13 76.28L155.11 76.25Q155.52 76.53 156.50 77.05L156.59 77.14L156.46 77.02Q157.13 76.71 158.24 76.12L158.24 76.12L158.25 76.14Q158.16 77.41 157.77 80.02L157.64 79.90L157.75 80.01Q158.46 80.32 159.18 80.71L159.18 80.72L159.24 80.77Q163.91 77.68 167.10 77.68L167.19 77.76L167.21 77.78Q169.50 77.79 171.52 78.89L171.53 78.90L171.35 78.73Q171.98 80.53 172.05 82.16L172.07 82.18L172.17 82.28Q172.15 86.57 170.39 88.46L170.54 88.62L170.38 88.46Q168.02 90.54 164.17 90.93L164.35 91.11L164.22 90.98Q162.53 91.05 161.35 90.92L161.52 91.08L161.42 90.98Q160.02 90.83 158.72 90.24L158.71 90.23L158.61 89.81L158.36 89.95L158.40 89.99Q157.13 89.24 156.22 86.95L156.20 86.94L156.19 86.92Q153.91 89.35 151.04 93.01L151.02 92.98L150.94 92.90Q151.56 94.11 153.00 95.74L152.92 95.67L152.92 95.67Q154.76 98.82 159.59 99.66L159.64 99.71L159.56 99.63Q161.63 100.07 170.83 100.26Z"/><path d="M9 106 C161 98,152 19,323 80" stroke="#e66485" fill="none"/><path d="M5 32 C182 105,178 120,337 98" stroke="#57c5ea" fill="none"/><path d="M15 41 C154 21,152 66,322 12" stroke="#e8ba8c" fill="none"/><path d="M12 95 C162 26,181 49,334 2" stroke="#87e2e2" fill="none"/><path fill="#6c47da" d="M222.62 67.16L222.65 67.19L222.82 67.36Q217.23 67.26 214.10 65.43L214.06 65.39L214.08 65.41Q218.50 63.17 226.86 55.93L226.71 55.78L226.73 55.80Q227.97 55.47 230.18 54.43L230.19 54.43L230.13 54.37Q227.94 64.65 227.74 75.55L227.77 75.58L227.64 75.45Q227.59 86.49 229.42 96.94L229.40 96.91L229.42 96.93Q226.58 95.73 222.93 95.53L222.86 95.46L222.79 95.39Q222.73 88.42 222.73 81.43L222.74 81.44L222.71 81.41Q222.72 74.37 222.79 67.33ZM222.10 71.14L222.00 96.04L222.04 96.08Q224.25 96.20 225.88 96.53L225.77 96.41L225.79 96.44Q225.90 97.59 226.23 99.94L226.25 99.96L226.30 100.01Q231.11 100.84 235.28 104.69L235.26 104.67L235.32 104.73Q231.06 92.50 231.00 79.71L230.94 79.66L230.96 79.67Q230.88 66.94 234.01 54.54L234.08 54.60L233.96 54.49Q233.11 55.27 230.37 57.16L230.42 57.21L230.26 57.05Q230.75 55.91 231.27 53.30L231.11 53.14L231.26 53.28Q228.88 54.49 226.40 55.15L226.42 55.17L226.39 55.14Q220.03 61.37 212.65 65.28L212.58 65.21L212.58 65.22Q215.08 67.19 219.12 67.77L219.02 67.67L219.09 67.74Q217.90 68.57 215.68 70.40L215.81 70.53L215.69 70.41Q218.28 71.11 222.07 71.11L222.07 71.11Z"/><path fill="#a5e06a" d="M273.83 96.39L273.71 96.27L273.79 96.35Q266.85 96.79 265.16 92.81L265.16 92.81L265.03 92.68Q266.47 91.18 269.14 88.11L269.08 88.05L269.17 88.14Q269.93 91.51 275.08 91.71L275.03 91.65L275.04 91.66Q280.82 91.77 283.63 89.48L283.76 89.61L283.63 89.49Q286.20 86.90 286.07 82.27L286.01 82.21L285.98 82.18Q285.66 73.43 277.44 73.83L277.54 73.93L277.55 73.94Q272.65 74.13 269.65 76.28L269.75 76.39L269.15 76.05L268.83 75.86L268.72 75.74Q269.45 70.47 269.25 65.77L269.16 65.68L269.14 65.66Q268.91 61.12 268.32 55.44L268.44 55.57L268.34 55.46Q274.74 57.23 281.27 57.03L281.24 57.01L281.09 56.86Q287.78 56.89 293.91 54.73L293.76 54.59L292.79 57.20L292.84 57.26Q292.29 58.53 291.96 59.96L292.02 60.02L292.08 60.08Q286.67 61.79 280.01 61.79L280.02 61.79L280.08 61.85Q277.47 61.73 274.93 61.47L274.99 61.52L274.97 61.51Q274.86 62.70 274.27 70.34L274.35 70.41L274.23 70.30Q275.63 69.48 279.16 69.22L279.22 69.28L279.14 69.20Q285.53 69.59 288.01 72.46L288.05 72.50L288.07 72.52Q290.45 75.15 290.90 81.75L290.99 81.83L290.91 81.75Q291.41 88.98 289.32 92.44L289.30 92.42L289.26 92.37Q285.89 95.72 280.21 96.11L280.15 96.05L280.14 96.04Q278.34 96.08 273.78 96.34ZM284.17 100.27L284.27 100.37L284.15 100.25Q289.99 100.35 293.26 98.46L293.32 98.52L293.35 98.55Q294.96 95.85 294.96 92.26L295.05 92.36L295.11 92.41Q294.94 86.95 293.30 79.91L293.48 80.08L293.36 79.96Q292.69 76.94 290.60 74.52L290.69 74.61L290.70 74.69L290.36 74.22L289.66 73.78L289.76 73.88Q289.19 72.59 288.08 71.42L288.15 71.49L288.00 71.40L288.07 71.48Q285.53 68.67 279.20 68.67L279.07 68.54L278.80 68.73L278.70 68.63Q278.85 67.67 279.17 65.78L279.18 65.78L279.17 65.77Q287.80 66.05 294.72 63.24L294.55 63.08L294.55 63.07Q295.33 60.72 296.96 55.89L296.89 55.82L293.36 57.51L293.38 57.53Q294.06 55.60 294.91 53.64L294.84 53.58L294.83 53.56Q288.39 56.20 281.34 56.33L281.19 56.17L281.28 56.27Q274.16 56.39 267.38 54.50L267.48 54.60L267.48 54.61Q268.68 62.20 268.68 69.77L268.53 69.62L268.67 69.76Q268.53 72.88 268.34 76.15L268.37 76.18L268.32 76.13Q268.92 76.60 269.90 77.12L269.76 76.99L269.92 77.14Q270.46 76.71 271.57 76.12L271.57 76.12L271.44 75.99Q271.36 77.28 270.97 79.89L271.13 80.05L271.16 80.08Q271.85 80.38 272.57 80.77L272.41 80.61L272.54 80.75Q277.32 77.76 280.52 77.76L280.50 77.74L280.50 77.74Q282.77 77.72 284.79 78.83L284.86 78.90L284.67 78.71Q285.45 80.67 285.51 82.30L285.43 82.21L285.47 82.25Q285.59 86.68 283.83 88.57L283.69 88.43L283.85 88.60Q281.41 90.59 277.55 90.98L277.55 90.97L277.65 91.07Q275.97 91.15 274.79 91.02L274.70 90.93L274.72 90.95Q273.25 90.72 271.95 90.14L271.98 90.17L271.99 89.85L271.70 89.96L271.70 89.96Q270.31 89.09 269.40 86.80L269.44 86.84L269.42 86.83Q267.14 89.24 264.27 92.90L264.34 92.97L264.30 92.93Q264.88 94.10 266.32 95.73L266.27 95.68L266.37 95.78Q268.21 98.93 273.04 99.78L273.05 99.79L273.03 99.77Q274.91 100.01 284.11 100.21Z"/><path fill="#e76eaa" d="M108.28 77.11L108.28 77.12L108.44 77.28Q105.05 77.09 102.97 79.37L103.05 79.46L103.10 79.51Q100.91 81.69 100.65 84.95L100.72 85.03L100.75 85.06Q100.40 88.69 102.49 90.42L102.51 90.44L102.51 90.44Q104.65 92.21 108.30 92.08L108.17 91.96L108.27 92.06Q112.25 91.79 113.89 90.16L113.77 90.04L113.86 90.14Q115.55 87.59 115.36 84.46L115.41 84.51L115.37 84.47Q115.19 81.29 113.33 79.23L113.33 79.23L113.27 79.17Q111.52 77.22 108.38 77.22ZM108.30 61.02L108.29 61.01L108.24 60.95Q105.89 60.83 103.60 61.67L103.50 61.57L103.57 61.64Q101.27 62.93 101.67 66.13L101.71 66.18L101.71 66.17Q102.60 72.62 108.35 72.62L108.38 72.65L108.28 72.55Q111.00 72.92 112.70 70.96L112.76 71.03L112.80 71.06Q114.45 69.06 114.52 66.39L114.48 66.35L114.48 66.35Q114.61 63.34 113.37 62.30L113.40 62.33L113.30 62.23Q110.57 60.94 108.35 61.07ZM107.89 96.31L107.90 96.32L102.57 96.20L102.64 96.27Q99.97 96.22 97.69 94.72L97.78 94.81L97.75 94.78Q95.29 92.71 95.55 87.81L95.52 87.78L95.52 87.79Q96.40 76.14 102.60 74.44L102.66 74.50L102.54 74.38Q98.59 72.78 96.31 63.58L96.47 63.74L96.47 63.74Q95.88 61.33 96.01 59.96L95.90 59.85L95.96 59.91Q96.44 56.20 102.77 56.14L102.78 56.16L102.79 56.16Q110.08 56.08 112.56 56.40L112.56 56.40L112.46 56.30Q119.11 57.27 119.89 60.73L119.91 60.75L119.89 60.73Q120.07 61.76 120.07 62.41L120.12 62.46L120.01 62.36Q120.12 63.63 119.79 64.68L119.82 64.71L119.68 64.56Q118.66 71.83 113.63 74.44L113.61 74.42L113.76 74.57Q119.62 75.80 120.47 84.87L120.64 85.04L120.52 84.92Q120.49 85.16 120.56 87.37L120.54 87.36L120.52 87.34Q120.74 92.12 118.00 93.95L117.92 93.87L117.92 93.87Q115.59 95.39 107.75 96.17ZM111.70 100.18L111.65 100.13L117.43 100.30L117.40 100.27Q120.32 100.39 122.94 99.15L123.10 99.32L123.06 99.28Q125.00 98.02 125.13 94.82L125.02 94.70L125.21 94.90Q125.21 92.94 124.56 89.61L124.53 89.58L124.62 89.68Q122.90 81.56 119.31 78.36L119.45 78.50L119.13 77.85L118.62 77.21L118.40 76.80L118.42 76.81Q121.31 74.55 122.88 67.44L122.88 67.44L122.84 67.40Q122.75 66.66 122.88 65.22L123.02 65.36L122.92 65.26Q123.15 64.18 123.02 63.14L122.91 63.03L122.87 62.99Q122.65 60.56 120.63 59.71L120.60 59.68L120.71 59.72L120.48 59.62L120.36 59.51Q119.89 58.26 117.87 56.88L117.86 56.88L117.91 56.86L117.90 56.85Q114.70 55.87 107.72 55.54L107.68 55.50L107.71 55.54Q105.00 55.30 102.65 55.50L102.60 55.45L102.51 55.36Q101.24 55.52 99.02 55.78L99.05 55.81L98.97 55.73Q95.59 56.33 95.20 59.14L95.35 59.29L95.34 59.29Q95.18 60.04 95.25 61.41L95.39 61.55L95.27 61.43Q95.57 62.45 96.55 66.50L96.45 66.40L96.56 66.51Q97.88 72.00 100.88 74.29L100.91 74.32L101.05 74.45L101.04 74.45Q96.26 76.65 95.34 85.52L95.38 85.56L95.36 85.54Q94.86 89.15 94.86 90.72L94.87 90.72L94.95 90.81Q95.13 93.92 97.15 95.49L97.14 95.47L97.11 95.44Q97.40 95.67 97.86 96.00L97.78 95.92L97.84 95.98Q99.57 99.86 111.77 100.25ZM111.10 81.18L111.15 81.23L111.07 81.15Q112.62 81.00 114.12 81.78L114.22 81.88L114.17 81.84Q114.88 83.59 114.82 84.50L114.79 84.48L114.78 84.47Q114.86 85.00 114.86 85.52L114.82 85.48L114.85 85.51Q114.96 89.67 111.04 91.10L110.95 91.01L111.03 91.10Q109.63 91.59 108.26 91.39L108.13 91.26L108.26 91.39Q106.30 91.52 104.35 90.74L104.40 90.79L104.30 90.70Q103.85 89.59 103.98 87.90L103.95 87.86L104.03 87.94Q104.29 85.20 106.34 83.11L106.25 83.02L106.44 83.20Q108.34 80.97 111.09 81.16ZM111.60 65.03L111.64 65.07L111.46 64.89Q112.85 64.72 113.77 64.99L113.74 64.96L113.80 66.38L113.86 66.45Q113.90 68.90 112.33 70.63L112.33 70.63L112.32 70.62Q110.76 72.35 108.41 72.03L108.42 72.03L108.35 71.97Q106.59 71.90 105.87 71.51L105.93 71.57L105.92 71.56Q105.95 71.20 105.76 70.03L105.74 70.01L105.63 69.90Q105.19 67.51 107.28 66.07L107.37 66.15L107.30 66.09Q109.20 64.99 111.62 65.05Z"/><path d="M13 82 C186 36,154 28,329 35" stroke="#eba189" fill="none"/><path d="M6 123 C180 25,170 10,331 73" stroke="#e9c867" fill="none"/><path d="M6 65 C169 6,162 58,333 112" stroke="#9643e9" fill="none"/><path d="M17 69 C177 110,150 7,340 30" stroke="#3c91e5" fill="none"/><path d="M8 89 C190 91,152 35,328 81" stroke="#e8e853" fill="none"/><path d="M8 2 C158 121,182 36,333 80" stroke="#72e3e3" fill="none"/><path d="M18 65 C160 96,154 120,326 136" stroke="#39e464" fill="none"/><path d="M1 123 C160 57,180 74,326 136" stroke="#8f74e0" fill="none"/><path d="M15 129 C166 1,185 133,339 43" stroke="#4de499" fill="none"/><path d="M4 122 C170 116,182 108,332 6" stroke="#91df43" fill="none"/><path d="M16 133 C152 72,160 80,323 58" stroke="#79b2eb" fill="none"/><path d="M15 95 C176 136,152 20,325 19" stroke="#ec87d3" fill="none"/><path d="M10 38 C180 40,170 101,335 28" stroke="#7d96e2" fill="none"/><path d="M9 118 C180 47,181 112,334 98" stroke="#849deb" fill="none"/><path d="M14 74 C153 44,173 37,333 56" stroke="#dc5a5a" fill="none"/><path d="M19 66 C150 96,154 19,327 101" stroke="#df61df" fill="none"/><path d="M2 92 C182 4,151 47,327 106" stroke="#d557d5" fill="none"/><path d="M9 54 C171 20,158 87,341 76" stroke="#dc4b6f" fill="none"/><path d="M11 57 C159 134,191 126,340 76" stroke="#a48ced" fill="none"/><path d="M5 33 C174 37,159 117,325 77" stroke="#e3e33f" fill="none"/><path d="M16 110 C181 6,157 82,340 104" stroke="#e07979" fill="none"/><path d="M13 100 C188 3,184 116,336 95" stroke="#ee90a7" fill="none"/><path d="M14 130 C164 26,189 67,340 23" stroke="#badc55" fill="none"/><path d="M16 65 C164 124,176 84,322 85" stroke="#7853e8" fill="none"/><path d="M5 17 C181 40,163 86,323 118" stroke="#78da57" fill="none"/><path d="M5 90 C167 131,159 85,322 25" stroke="#4848e4" fill="none"/><path d="M19 135 C182 61,161 60,323 75" stroke="#e75959" fill="none"/><path d="M1 113 C161 69,169 50,337 20" stroke="#3636e7" fill="none"/><path d="M13 136 C150 108,186 79,326 119" stroke="#b789e6" fill="none"/><path d="M10 31 C181 102,188 58,331 65" stroke="#e3b281" fill="none"/><path fill="#dcc06f" d="M46.10 96.37L45.98 96.25L46.00 96.27Q43.62 96.44 40.95 95.72L41.02 95.80L40.99 95.76Q38.76 94.06 38.50 91.25L38.61 91.36L38.66 91.41Q38.60 91.09 38.92 86.58L38.91 86.57L38.90 86.56Q40.52 86.09 43.98 85.44L44.04 85.50L43.77 86.86L43.70 86.80Q43.37 89.92 45.78 90.90L45.61 90.73L45.63 90.74Q47.12 91.45 50.71 91.45L50.60 91.34L50.65 91.39Q53.48 91.22 53.81 91.09L53.66 90.95L53.79 91.08Q55.34 90.80 56.58 89.95L56.47 89.83L56.62 89.99Q59.00 88.32 58.68 84.73L58.64 84.70L58.57 84.63Q58.35 80.56 55.38 77.88L55.35 77.85L55.42 77.92Q52.40 75.20 48.16 75.20L48.07 75.11L48.20 74.85L48.21 74.85Q48.86 74.79 50.36 74.66L50.24 74.53L50.31 74.61Q53.53 74.37 55.88 72.25L55.81 72.18L55.86 72.23Q58.20 70.10 58.46 66.90L58.40 66.84L58.51 66.95Q58.64 66.36 58.64 65.78L58.72 65.85L58.71 65.85Q58.65 63.17 56.30 61.60L56.30 61.60L56.27 61.57Q54.20 60.22 51.46 60.42L51.40 60.36L51.47 60.44Q49.33 60.25 47.24 60.96L47.19 60.92L47.21 60.93Q44.66 61.78 44.14 63.73L44.18 63.78L44.09 63.69Q43.88 65.11 44.01 66.42L43.95 66.35L44.01 66.42Q42.10 65.88 38.58 64.64L38.66 64.72L38.62 64.68Q38.28 61.86 38.35 60.42L38.30 60.38L38.33 60.41Q38.45 57.72 40.28 56.55L40.35 56.62L40.27 56.54Q42.82 55.64 45.57 55.64L45.55 55.62L45.58 55.65Q50.83 55.42 56.25 55.87L56.39 56.02L56.37 56.00Q64.98 56.65 64.46 63.11L64.43 63.08L64.54 63.19Q64.36 65.69 63.52 68.36L63.53 68.38L63.59 68.44Q61.91 73.61 57.86 75.18L57.95 75.27L57.98 75.29Q62.33 76.05 63.37 81.79L63.45 81.88L63.54 81.96Q63.90 83.89 64.04 87.35L64.07 87.39L63.98 87.29Q64.19 94.88 56.29 95.67L56.41 95.79L56.26 95.63Q55.11 95.86 46.04 96.31ZM54.90 100.08L54.99 100.17L54.97 100.15Q56.10 100.30 60.99 100.43L60.93 100.37L61.00 100.44Q63.98 100.55 66.79 99.44L66.76 99.41L66.75 99.40Q68.64 97.64 68.32 94.64L68.36 94.68L68.33 94.65Q68.27 92.50 67.74 89.50L67.72 89.47L67.79 89.54Q66.47 81.76 63.14 78.95L63.16 78.97L62.81 78.29L62.64 78.07L62.68 78.10Q65.74 75.68 67.05 68.17L67.06 68.19L67.12 68.25Q67.13 67.41 67.32 65.78L67.24 65.69L67.33 65.79Q67.35 64.37 67.22 63.19L67.29 63.27L67.27 63.24Q67.08 60.45 64.86 59.27L64.89 59.30L64.67 59.20L64.74 59.28Q64.20 57.57 62.25 56.65L62.13 56.54L62.26 56.67Q59.69 55.53 50.88 55.01L50.76 54.89L50.83 54.97Q47.88 54.75 45.14 54.75L45.19 54.80L45.17 54.79Q42.42 54.77 39.81 55.88L39.79 55.86L39.82 55.89Q37.64 57.11 37.64 60.11L37.72 60.19L37.78 60.25Q37.83 59.59 38.29 65.33L38.24 65.27L38.19 65.23Q38.75 65.40 41.56 66.44L41.48 66.37L41.52 66.41Q41.60 67.39 41.53 68.24L41.50 68.21L41.43 68.14Q41.48 69.04 41.54 69.95L41.59 70.00L41.44 69.85Q44.60 70.59 48.06 70.79L48.01 70.74L48.02 70.75Q47.88 67.28 49.77 65.84L49.77 65.84L49.85 65.93Q51.21 64.74 54.67 64.34L54.70 64.38L54.66 64.33Q56.71 64.43 57.69 64.76L57.55 64.62L57.65 64.72Q57.75 64.95 57.82 65.15L57.80 65.13L57.87 65.52L58.04 66.48L57.98 66.42Q57.94 66.70 57.87 66.96L57.95 67.04L57.82 66.91Q57.73 69.89 55.12 71.91L55.18 71.97L55.25 72.05Q53.60 73.53 50.14 73.85L50.18 73.89L50.10 73.81Q48.94 74.15 47.44 74.15L47.48 74.19L47.48 74.19Q47.41 74.65 47.67 75.82L47.66 75.81L47.78 75.93Q50.74 75.89 53.22 77.13L53.27 77.18L53.05 77.15L50.35 77.46L50.27 77.37Q50.46 78.09 50.66 79.13L50.62 79.10L50.58 79.06Q54.32 79.01 57.26 81.30L57.21 81.25L57.17 81.20Q57.58 81.88 58.10 84.69L58.20 84.78L58.11 84.70Q58.47 89.75 53.45 90.47L53.48 90.50L53.41 90.44Q49.80 90.86 48.82 90.80L48.78 90.77L48.86 90.85Q47.98 90.55 47.06 90.42L47.11 90.46L47.05 89.62L47.39 88.98L47.50 88.37L47.52 87.81L47.53 87.81Q45.74 87.79 44.37 88.12L44.50 88.24L44.40 88.14Q44.45 87.87 44.45 87.54L44.49 87.58L44.33 87.42Q44.44 87.14 44.44 86.75L44.38 86.68L44.52 86.83Q44.51 86.03 44.77 84.79L44.86 84.88L44.73 84.75Q41.57 85.19 38.37 85.77L38.45 85.85L38.37 85.77Q38.44 86.69 38.25 88.62L38.19 88.56L38.14 88.51Q38.03 90.52 38.03 91.56L38.01 91.54L37.96 91.49Q38.16 95.09 40.51 96.39L40.47 96.36L40.46 96.34Q43.07 100.33 51.17 100.00L51.15 99.99L51.19 100.02Q52.35 99.88 54.96 100.14Z"/><path d="M9 71 C179 106,169 91,336 69" stroke="#c769e6" fill="none"/><path d="M9 48 C182 57,151 13,340 53" stroke="#d94e4e" fill="none"/><path d="M12 27 C189 108,170 90,331 119" stroke="#e07474" fill="none"/></svg>