<svg xmlns="http://www.w3.org/2000/svg" width="342" height="140" viewBox="0,0,342,140"><path d="M16 17 C170 89,191 12,334 60" stroke="#c0e358" fill="none"/><path d="M3 130 C156 115,166 126,326 18" stroke="#b2e183" fill="none"/><path d="M18 9 C187 27,158 65,327 110" stroke="#d75050" fill="none"/><path d="M10 105 C160 83,157 27,338 67" stroke="#d281ed" fill="none"/><path d="M9 66 C161 75,151 22,331 111" stroke="#e269e2" fill="none"/><path d="M13 18 C180 111,183 138,330 29" stroke="#55d7d7" fill="none"/><path d="M3 42 C166 113,155 118,336 79" stroke="#bf97e6" fill="none"/><path d="M21 32 C153 27,151 126,322 135" stroke="#a1e38b" fill="none"/><path d="M19 56 C189 56,187 66,325 16" stroke="#e6e63b" fill="none"/><path d="M12 126 C192 11,182 24,327 21" stroke="#78e155" fill="none"/><path d="M11 108 C158 111,164 98,331 68" stroke="#6ee7c9" fill="none"/><path fill="#89ed68" d="M46.19 96.07L46.10 95.99L46.04 95.93Q43.76 96.17 41.11 95.46L41.14 95.48L41.00 95.35Q39.10 93.96 38.84 91.18L38.75 91.09L38.70 91.04Q38.64 90.72 38.96 86.26L39.09 86.40L38.99 86.29Q40.71 85.95 44.13 85.30L44.27 85.44L43.84 86.62L43.83 86.61Q43.51 89.72 45.90 90.69L45.76 90.54L45.91 90.69Q47.19 91.20 50.74 91.20L50.82 91.27L50.67 91.13Q53.52 91.00 53.84 90.87L53.69 90.72L53.76 90.79Q55.26 90.49 56.49 89.65L56.44 89.60L56.55 89.71Q58.87 88.03 58.55 84.48L58.65 84.57L58.57 84.50Q58.31 80.43 55.37 77.78L55.31 77.71L55.27 77.67Q52.37 75.07 48.18 75.07L48.30 75.20L48.16 74.67L48.21 74.72Q48.80 74.60 50.29 74.47L50.39 74.58L50.28 74.47Q53.52 74.28 55.85 72.18L55.84 72.17L55.80 72.13Q58.25 70.16 58.51 67.00L58.48 66.97L58.41 66.90Q58.63 66.41 58.63 65.82L58.57 65.77L58.58 65.77Q58.68 63.29 56.35 61.74L56.20 61.59L56.26 61.65Q54.13 60.23 51.42 60.43L51.59 60.59L51.46 60.47Q49.23 60.17 47.16 60.88L47.16 60.88L47.30 61.02Q44.69 61.77 44.18 63.71L44.31 63.84L44.28 63.81Q43.98 65.13 44.11 66.42L44.09 66.40L44.13 66.44Q42.33 65.99 38.84 64.77L38.88 64.81L38.86 64.79Q38.38 61.85 38.44 60.43L38.56 60.54L38.51 60.50Q38.68 57.89 40.49 56.73L40.47 56.71L40.57 56.81Q42.96 55.77 45.67 55.77L45.61 55.72L45.68 55.79Q51.06 55.74 56.42 56.19L56.25 56.02L56.36 56.13Q65.01 56.90 64.49 63.29L64.52 63.32L64.37 63.17Q64.25 65.70 63.41 68.35L63.36 68.30L63.37 68.30Q61.85 73.57 57.84 75.12L57.90 75.17L57.97 75.24Q62.34 76.06 63.37 81.74L63.41 81.78L63.32 81.69Q63.78 83.70 63.91 87.12L63.82 87.03L63.89 87.10Q64.22 94.74 56.41 95.51L56.43 95.53L56.43 95.53Q55.09 95.55 46.12 96.00ZM55.03 99.88L54.96 99.81L55.01 99.86Q56.05 99.93 60.89 100.06L60.94 100.11L60.96 100.12Q63.76 100.08 66.53 98.98L66.55 99.00L66.58 99.03Q68.55 97.39 68.23 94.42L68.35 94.54L68.25 94.44Q68.11 92.23 67.59 89.25L67.67 89.33L67.53 89.20Q66.45 81.72 63.16 78.95L63.15 78.94L62.82 78.29L62.77 78.17L62.66 78.06Q65.71 75.68 67.00 68.26L66.96 68.22L67.03 68.29Q66.99 67.41 67.18 65.79L67.20 65.80L67.12 65.73Q67.25 64.44 67.12 63.27L67.20 63.35L67.24 63.39Q67.02 60.60 64.83 59.43L64.72 59.33L64.61 59.34L64.52 59.25Q64.03 57.61 62.10 56.70L62.26 56.86L62.17 56.77Q59.52 55.54 50.80 55.03L50.90 55.12L50.90 55.13Q48.08 55.02 45.37 55.02L45.30 54.95L45.25 54.90Q42.55 54.91 39.96 56.01L40.06 56.11L40.06 56.11Q37.93 57.33 37.93 60.30L37.96 60.33L38.02 60.40Q37.91 59.57 38.36 65.26L38.29 65.19L38.38 65.28Q38.81 65.32 41.59 66.35L41.65 66.42L41.67 66.44Q41.72 67.38 41.65 68.22L41.54 68.11L41.54 68.12Q41.64 69.06 41.71 69.96L41.69 69.94L41.64 69.89Q44.63 70.49 48.05 70.69L48.21 70.84L48.10 70.73Q48.01 67.35 49.88 65.93L49.87 65.92L49.91 65.96Q51.23 64.75 54.65 64.37L54.65 64.37L54.77 64.49Q56.64 64.42 57.61 64.74L57.61 64.74L57.55 64.69Q57.69 64.95 57.75 65.15L57.68 65.07L57.77 65.49L58.05 66.54L57.92 66.41Q57.94 66.75 57.87 67.01L57.99 67.12L57.83 66.97Q57.73 69.90 55.14 71.90L55.26 72.02L55.12 71.88Q53.72 73.58 50.30 73.90L50.21 73.82L50.12 73.72Q48.91 73.99 47.42 73.99L47.58 74.16L47.52 74.10Q47.53 74.62 47.79 75.78L47.85 75.84L47.72 75.72Q50.74 75.76 53.19 76.99L53.23 77.03L53.12 77.11L50.33 77.29L50.39 77.35Q50.54 78.01 50.73 79.05L50.68 79.00L50.58 78.90Q54.37 78.94 57.28 81.20L57.17 81.09L57.27 81.19Q57.64 81.83 58.16 84.60L58.02 84.46L57.99 84.44Q58.37 89.46 53.40 90.17L53.35 90.13L53.39 90.17Q49.84 90.62 48.87 90.56L48.93 90.61L48.93 90.62Q48.07 90.34 47.17 90.21L47.21 90.25L47.33 89.59L47.45 88.75L47.59 88.17L47.63 87.64L47.47 87.48Q45.92 87.67 44.56 87.99L44.56 87.99L44.51 87.94Q44.45 87.56 44.45 87.23L44.50 87.28L44.50 87.28Q44.61 87.00 44.61 86.61L44.56 86.57L44.59 86.60Q44.56 85.80 44.82 84.57L44.86 84.61L44.83 84.58Q41.84 85.14 38.67 85.72L38.56 85.61L38.68 85.73Q38.49 86.37 38.30 88.28L38.43 88.42L38.41 88.39Q38.11 90.19 38.11 91.22L38.11 91.23L38.22 91.34Q38.24 94.71 40.56 96.00L40.67 96.11L40.72 96.16Q43.10 99.90 51.11 99.58L51.26 99.73L51.16 99.62Q52.46 99.63 55.04 99.89Z"/><path d="M6 33 C160 50,155 119,334 124" stroke="#dddd40" fill="none"/><path d="M3 55 C190 76,176 118,331 119" stroke="#bceb8d" fill="none"/><path d="M2 74 C182 15,180 49,334 98" stroke="#badc55" fill="none"/><path d="M8 13 C181 20,175 126,322 14" stroke="#4fd84f" fill="none"/><path d="M7 83 C179 120,190 47,339 61" stroke="#a5de6c" fill="none"/><path d="M19 44 C167 34,177 131,326 36" stroke="#76e492" fill="none"/><path d="M2 77 C159 64,161 14,328 37" stroke="#e6d08e" fill="none"/><path fill="#ecec55" d="M278.17 76.88L278.22 76.93L278.36 77.07Q275.19 76.81 273.09 79.23L272.97 79.11L273.05 79.18Q270.87 81.53 270.55 84.76L270.70 84.91L270.64 84.85Q270.25 88.34 272.09 89.98L272.03 89.92L272.13 90.02Q273.93 91.63 277.49 91.44L277.44 91.40L277.41 91.37Q281.09 91.24 282.97 90.07L282.83 89.93L282.95 90.06Q284.94 88.23 284.94 85.59L284.91 85.56L284.82 85.47Q284.80 84.80 284.67 84.16L284.64 84.13L284.70 84.19Q284.85 81.37 282.98 79.08L282.99 79.08L283.07 79.16Q281.20 76.88 278.36 77.07ZM277.62 95.90L277.47 95.75L277.50 95.78Q270.17 95.87 267.78 94.58L267.68 94.48L267.71 94.51Q266.07 93.32 265.74 90.42L265.66 90.34L265.70 90.37Q265.52 89.09 265.58 87.87L265.71 88.00L265.69 87.98Q265.86 86.27 265.86 85.49L265.78 85.41L265.89 85.53Q266.72 80.74 266.98 79.58L266.92 79.52L266.84 79.43Q267.57 76.10 268.99 73.71L269.10 73.81L269.02 73.73Q273.71 66.48 283.79 55.70L283.65 55.56L283.60 55.51Q288.23 55.10 291.97 53.74L291.97 53.74L291.86 53.63Q280.38 66.44 274.96 73.61L274.96 73.60L274.84 73.49Q276.51 72.64 278.71 72.64L278.81 72.74L278.71 72.65Q284.33 72.65 286.92 75.94L286.99 76.01L286.93 75.95Q289.32 78.86 289.90 84.86L289.80 84.77L289.86 84.83Q290.02 86.08 290.02 87.12L289.93 87.02L290.04 87.13Q289.90 92.29 286.15 94.10L286.15 94.09L286.20 94.14Q284.14 95.18 277.55 95.83ZM281.46 99.93L281.38 99.85L281.39 99.86Q283.71 99.92 287.07 100.05L287.03 100.01L287.00 99.98Q289.81 100.15 292.46 98.92L292.46 98.92L292.50 98.96Q294.31 97.55 294.31 94.51L294.25 94.45L294.26 94.45Q294.29 93.64 293.99 91.96L293.96 91.93L293.95 91.92Q293.77 90.35 293.77 89.58L293.61 89.42L293.77 89.58Q292.13 81.42 289.42 78.19L289.56 78.33L289.47 78.24Q289.46 78.16 289.21 77.78L289.09 77.66L288.66 77.36L288.43 77.19L288.51 77.27Q287.90 76.41 286.87 74.79L286.95 74.88L286.84 74.77Q285.23 73.10 281.88 72.32L281.98 72.43L281.97 72.41Q283.95 69.61 288.98 63.35L289.11 63.47L296.22 54.44L296.19 54.40Q293.52 55.87 289.45 57.16L289.41 57.12L289.43 57.14Q290.96 55.45 294.00 52.09L293.99 52.08L294.06 52.15Q290.05 54.01 283.46 54.98L283.36 54.88L283.44 54.96Q273.72 64.94 268.68 73.33L268.76 73.41L268.67 73.33Q266.20 77.69 265.23 88.29L265.06 88.11L265.21 88.26Q265.12 89.27 265.24 90.89L265.09 90.73L265.07 90.71Q265.30 93.79 267.18 95.34L267.21 95.37L267.08 95.24Q267.90 95.67 267.84 95.74L267.82 95.72L267.80 95.70Q268.38 97.18 269.73 97.89L269.67 97.83L269.69 97.85Q272.17 99.04 275.46 99.36L275.58 99.47L275.56 99.45Q275.57 99.47 281.52 99.99ZM281.00 80.81L281.13 80.94L281.08 80.89Q282.02 80.67 283.64 81.51L283.57 81.45L283.55 81.42Q284.21 83.12 284.21 84.22L284.20 84.20L284.29 84.30Q284.59 87.44 282.98 89.12L282.92 89.06L282.93 89.07Q281.13 90.30 277.57 90.82L277.45 90.70L277.54 90.78Q275.19 90.89 274.29 90.43L274.20 90.35L274.28 90.43Q273.95 89.65 273.95 89.13L273.85 89.03L273.94 89.12Q273.43 83.45 278.41 81.25L278.39 81.24L278.42 81.26Q279.66 80.63 280.95 80.76Z"/><path d="M9 13 C170 30,172 113,323 14" stroke="#de77c4" fill="none"/><path d="M20 122 C169 14,185 97,332 48" stroke="#e56666" fill="none"/><path d="M21 113 C182 82,165 45,336 82" stroke="#a5e664" fill="none"/><path d="M18 19 C181 50,168 65,325 120" stroke="#e8879f" fill="none"/><path fill="#549ee7" d="M235.22 91.96L235.16 91.89L235.06 91.80Q235.74 93.64 236.65 97.06L236.56 96.98L236.56 96.97Q229.50 94.82 221.68 95.27L221.65 95.24L221.55 95.14Q213.77 95.57 206.99 98.92L207.00 98.93L206.99 98.92Q207.42 97.81 207.49 97.93L207.57 98.02L207.50 97.95Q213.83 91.23 220.48 83.74L220.45 83.70L220.56 83.82Q228.07 75.38 230.07 67.43L229.91 67.27L230.06 67.42Q230.68 64.29 228.51 62.29L228.57 62.35L228.63 62.40Q226.54 60.47 223.50 60.73L223.43 60.66L223.47 60.70Q222.80 60.54 222.21 60.54L222.21 60.53L222.31 60.64Q219.74 60.65 217.61 62.20L217.51 62.11L217.57 62.17Q215.40 64.52 215.79 69.04L215.82 69.07L215.71 68.95Q212.73 68.43 210.67 67.66L210.60 67.60L210.57 67.56Q210.35 65.28 210.22 62.82L210.19 62.80L210.13 62.73Q210.07 60.02 211.10 58.08L211.07 58.06L211.08 58.06Q214.01 55.63 219.69 55.63L219.76 55.69L222.68 55.65L222.74 55.70Q226.55 55.71 228.17 55.90L228.32 56.06L228.28 56.01Q235.59 56.67 236.04 60.81L236.11 60.87L236.01 60.78Q236.23 61.83 236.10 63.19L236.10 63.19L236.07 63.16Q235.96 64.21 235.70 65.38L235.80 65.48L235.74 65.41Q233.04 79.25 220.19 90.87L220.14 90.82L220.05 90.73Q222.60 90.63 224.92 90.63L224.82 90.53L224.77 90.48Q230.38 90.60 235.22 91.95ZM234.26 56.63L234.14 56.52L234.21 56.59Q231.47 55.46 228.56 55.33L228.59 55.36L222.82 55.07L222.75 55.01Q215.29 54.65 211.54 56.52L211.49 56.47L211.39 56.37Q209.67 58.78 209.67 62.27L209.70 62.30L209.66 62.26Q209.80 63.57 210.32 68.35L210.30 68.33L210.15 68.18Q211.04 68.55 213.04 69.06L213.07 69.10L213.23 71.00L213.16 70.93Q212.98 71.59 213.11 72.50L213.11 72.50L213.23 72.62Q215.27 72.72 219.47 73.10L219.53 73.16L219.52 73.15Q219.50 72.55 219.50 71.97L219.55 72.02L219.48 71.95Q219.46 68.83 221.52 66.54L221.46 66.47L221.47 66.48Q223.50 64.16 226.54 64.35L226.63 64.44L226.68 64.49Q227.91 64.49 229.20 64.75L229.28 64.83L229.19 64.74Q229.32 65.32 229.45 66.03L229.55 66.14L229.57 66.15Q229.68 66.91 229.55 67.49L229.49 67.43L229.43 67.37Q227.34 75.48 219.85 83.68L219.86 83.70L219.91 83.75Q216.19 87.45 206.95 97.72L206.94 97.71L207.03 97.79Q206.66 99.17 206.08 100.14L206.08 100.14L206.10 100.16Q208.81 98.68 211.40 97.77L211.41 97.79L211.44 97.82Q210.19 98.76 208.58 101.28L208.53 101.24L208.58 101.29Q208.32 101.80 208.12 102.38L208.18 102.44L208.18 102.44Q216.46 98.97 225.76 99.29L225.71 99.24L225.81 99.33Q235.32 99.48 243.07 103.48L243.06 103.48L241.42 99.90L241.50 99.98Q240.37 97.69 239.92 96.33L239.93 96.34L239.79 96.21Q238.55 95.48 236.49 94.77L236.53 94.82L236.58 94.87Q236.39 93.71 235.74 91.38L235.74 91.37L235.75 91.39Q232.02 90.44 228.15 90.11L228.08 90.05L228.05 90.01Q236.05 82.32 238.63 68.31L238.51 68.19L238.87 63.31L238.81 63.25Q238.83 60.37 236.77 59.21L236.68 59.12L236.69 59.19L236.58 59.09Q236.65 59.09 236.52 59.09L236.40 58.97L236.49 59.06Q236.01 57.54 234.13 56.51Z"/><path d="M13 24 C152 66,170 98,322 127" stroke="#e8c458" fill="none"/><path d="M6 113 C179 80,172 11,332 102" stroke="#ce6cee" fill="none"/><path d="M20 23 C171 74,166 75,339 127" stroke="#c5e566" fill="none"/><path d="M10 16 C180 20,190 24,337 53" stroke="#9e5fdd" fill="none"/><path d="M16 97 C180 11,154 93,337 113" stroke="#e269c4" fill="none"/><path d="M4 85 C152 73,167 135,325 73" stroke="#8cedd4" fill="none"/><path fill="#e47a7a" d="M165.19 60.93L165.14 60.88L162.46 61.04L162.53 61.11Q158.64 61.22 158.25 64.65L158.27 64.67L158.23 64.62Q158.20 65.95 158.27 67.63L158.19 67.56L158.21 67.57Q158.36 70.95 160.49 73.21L160.49 73.22L160.43 73.15Q162.65 75.51 165.88 75.25L165.84 75.20L165.78 75.14Q169.26 74.88 170.55 73.33L170.62 73.40L170.50 73.28Q172.43 71.84 172.88 68.03L172.94 68.10L172.91 68.07Q173.38 64.27 171.25 62.85L171.16 62.76L171.16 62.77Q169.75 61.49 165.23 60.97ZM175.51 76.67L175.33 76.49L173.29 80.53L173.22 80.46Q168.56 88.52 162.17 95.43L162.32 95.58L162.24 95.50Q159.41 95.71 154.83 97.07L154.87 97.10L154.92 97.16Q163.91 86.45 169.27 78.31L169.31 78.35L169.34 78.38Q167.52 79.40 164.74 79.53L164.85 79.64L164.70 79.48Q159.73 79.88 157.15 76.52L157.04 76.41L157.13 76.50Q154.93 73.65 153.05 65.90L153.23 66.08L153.23 66.08Q153.06 65.14 152.80 63.56L152.90 63.66L152.88 63.63Q152.67 62.10 152.67 61.33L152.53 61.19L152.57 61.22Q152.56 58.18 154.37 57.15L154.49 57.27L154.53 57.31Q156.40 55.82 159.57 55.82L159.57 55.83L159.66 55.92Q165.06 55.89 165.06 55.89L165.10 55.93L165.08 55.91Q168.84 56.06 170.97 56.38L170.93 56.33L170.90 56.31Q174.52 56.76 176.07 57.60L176.06 57.59L176.01 57.54Q178.34 58.84 178.66 61.81L178.73 61.87L178.64 61.78Q178.82 62.35 178.50 66.87L178.47 66.84L178.49 66.86Q177.66 70.30 177.27 71.72L177.30 71.75L177.33 71.77Q176.67 74.15 175.38 76.54ZM178.61 80.61L178.62 80.63L178.73 80.73Q180.30 76.87 181.20 69.58L181.28 69.66L181.32 69.69Q181.73 65.91 181.67 64.42L181.67 64.43L181.53 64.29Q181.47 61.13 179.47 59.58L179.62 59.73L178.97 59.40L179.14 59.57Q178.68 58.28 177.13 57.18L176.97 57.01L177.13 57.17Q173.12 55.36 164.98 55.10L164.98 55.10L165.04 55.16Q163.39 55.12 159.26 55.12L159.34 55.21L159.18 55.05Q156.40 55.24 153.88 56.40L153.76 56.28L153.81 56.33Q151.92 57.74 152.05 60.84L152.06 60.85L151.95 60.73Q152.24 62.25 152.56 65.67L152.61 65.72L152.64 65.75Q153.56 70.09 154.01 71.52L154.12 71.62L154.16 71.66Q155.08 74.78 156.70 76.98L156.76 77.04L156.67 76.95Q157.10 77.51 157.75 78.15L157.70 78.11L157.85 78.25Q158.29 79.02 159.39 80.57L159.33 80.51L159.43 80.62Q161.81 82.79 165.10 83.12L165.07 83.09L165.09 83.10Q161.89 87.66 159.25 90.89L159.28 90.92L153.10 98.31L153.13 98.34Q156.94 97.05 159.72 96.46L159.69 96.44L159.80 96.55Q158.53 98.05 155.88 100.96L155.74 100.82L155.86 100.94Q161.02 99.32 166.31 99.25L166.39 99.33L166.31 99.25Q170.25 94.86 177.61 82.58L177.52 82.49L177.71 82.81L177.61 82.71Q178.14 81.56 178.72 80.72ZM168.35 64.87L168.45 64.97L168.45 64.96Q169.58 64.87 170.36 65.06L170.24 64.94L170.27 64.98Q171.28 65.08 171.93 65.27L171.91 65.25L172.01 65.36Q172.26 66.06 172.38 66.77L172.29 66.67L172.37 66.75Q172.44 67.41 172.25 68.05L172.34 68.15L172.25 68.05Q172.14 70.91 170.14 72.78L170.22 72.87L170.16 72.81Q168.50 74.51 165.72 74.44L165.85 74.56L165.84 74.56Q165.06 74.49 162.48 73.97L162.41 73.91L162.45 73.95Q162.22 72.61 162.22 71.39L162.09 71.26L162.04 71.21Q161.97 70.82 161.97 70.43L162.02 70.48L161.92 70.38Q161.97 66.69 165.85 65.33L165.83 65.32L165.83 65.32Q166.95 64.88 168.37 64.88Z"/><path d="M7 15 C186 29,155 120,323 91" stroke="#e53ce5" fill="none"/><path d="M2 35 C176 67,180 55,335 119" stroke="#b2d93f" fill="none"/><path d="M5 87 C163 108,187 13,329 111" stroke="#3662e7" fill="none"/><path d="M13 115 C183 89,162 38,340 44" stroke="#eb7eb5" fill="none"/><path d="M21 112 C152 21,174 74,335 7" stroke="#4fdddd" fill="none"/><path d="M14 72 C161 6,187 42,325 39" stroke="#e0964c" fill="none"/><path fill="#ddb640" d="M108.38 77.09L108.38 77.09L108.43 77.15Q105.32 77.19 103.25 79.45L103.21 79.41L103.23 79.43Q101.06 81.59 100.81 84.82L100.74 84.76L100.84 84.86Q100.53 88.49 102.60 90.20L102.64 90.24L102.66 90.26Q104.62 91.87 108.24 91.74L108.24 91.74L108.22 91.72Q112.13 91.43 113.75 89.82L113.85 89.92L113.78 89.86Q115.55 87.43 115.36 84.33L115.41 84.38L115.31 84.28Q115.10 81.10 113.26 79.07L113.42 79.23L113.39 79.20Q111.58 77.19 108.48 77.19ZM108.37 61.13L108.37 61.13L108.39 61.15Q106.02 60.98 103.76 61.82L103.76 61.82L103.74 61.80Q101.58 63.19 101.97 66.35L101.94 66.32L101.80 66.19Q102.76 72.63 108.44 72.63L108.40 72.59L108.37 72.56Q110.97 72.83 112.64 70.89L112.65 70.90L112.73 70.97Q114.42 69.05 114.48 66.40L114.46 66.38L114.45 66.37Q114.54 63.36 113.32 62.33L113.35 62.36L113.34 62.36Q110.46 60.89 108.26 61.02ZM107.83 95.92L107.93 96.01L102.67 95.93L102.66 95.91Q100.22 96.05 97.96 94.57L97.96 94.57L97.87 94.48Q95.48 92.48 95.74 87.63L95.88 87.78L95.75 87.65Q96.61 76.10 102.74 74.42L102.73 74.41L102.61 74.29Q98.76 72.77 96.50 63.66L96.52 63.69L96.64 63.80Q95.99 61.34 96.12 59.99L96.06 59.93L96.02 59.89Q96.64 56.37 102.90 56.31L102.88 56.29L102.82 56.23Q110.05 56.16 112.50 56.48L112.47 56.45L112.62 56.60Q119.01 57.36 119.78 60.79L119.76 60.76L119.85 60.85Q120.09 61.94 120.09 62.58L120.06 62.55L119.96 62.45Q119.92 63.57 119.60 64.61L119.61 64.62L119.78 64.79Q118.72 71.93 113.75 74.52L113.74 74.51L113.66 74.43Q119.71 75.89 120.55 84.87L120.47 84.79L120.51 84.83Q120.38 84.96 120.45 87.16L120.59 87.30L120.59 87.30Q120.64 91.87 117.93 93.68L117.92 93.67L118.00 93.75Q115.69 95.25 107.94 96.02ZM111.74 99.90L111.81 99.97L117.34 99.93L117.46 100.06Q120.42 100.24 123.00 99.01L122.87 98.88L122.97 98.98Q124.83 97.68 124.96 94.51L125.02 94.57L125.07 94.62Q124.96 92.57 124.31 89.28L124.45 89.41L124.41 89.37Q122.87 81.51 119.32 78.34L119.36 78.38L119.08 77.78L118.69 77.26L118.46 76.83L118.42 76.80Q121.20 74.48 122.75 67.44L122.74 67.42L122.65 67.34Q122.74 66.78 122.87 65.36L122.86 65.35L122.84 65.34Q123.07 64.27 122.94 63.24L122.89 63.18L122.96 63.25Q122.59 60.68 120.58 59.85L120.59 59.85L120.69 59.89L120.28 59.61L120.30 59.63Q119.81 58.36 117.81 57.00L117.87 57.07L117.97 57.10L117.96 57.10Q114.59 55.92 107.68 55.60L107.75 55.66L107.75 55.67Q104.99 55.36 102.67 55.56L102.70 55.59L102.80 55.69Q101.26 55.57 99.07 55.83L99.20 55.96L99.14 55.90Q95.85 56.56 95.47 59.33L95.44 59.31L95.53 59.39Q95.32 60.09 95.39 61.45L95.46 61.52L95.51 61.58Q95.72 62.49 96.69 66.50L96.65 66.46L96.61 66.42Q98.08 72.03 101.06 74.29L100.90 74.13L101.18 74.42L101.02 74.25Q96.35 76.49 95.44 85.27L95.53 85.36L95.38 85.21Q95.20 89.09 95.20 90.64L95.25 90.69L95.16 90.61Q95.38 93.73 97.38 95.28L97.27 95.18L97.19 95.09Q97.47 95.31 97.92 95.63L97.96 95.67L97.96 95.67Q99.62 99.46 111.70 99.85ZM111.20 81.14L111.11 81.05L111.25 81.19Q112.64 80.90 114.13 81.67L114.23 81.78L114.16 81.71Q114.94 83.52 114.87 84.42L114.85 84.40L114.86 84.42Q114.82 84.82 114.82 85.34L114.94 85.46L114.89 85.41Q114.79 89.31 110.92 90.73L110.97 90.79L110.94 90.76Q109.54 91.23 108.18 91.04L108.30 91.16L108.36 91.22Q106.39 91.31 104.46 90.54L104.44 90.53L104.55 90.63Q103.99 89.43 104.12 87.75L104.11 87.74L104.06 87.69Q104.41 85.07 106.44 83.00L106.45 83.01L106.35 82.91Q108.38 80.84 111.10 81.03ZM111.63 65.10L111.61 65.08L111.58 65.05Q112.87 64.79 113.77 65.04L113.78 65.05L113.89 66.52L113.86 66.49Q113.77 68.79 112.22 70.50L112.22 70.50L112.22 70.50Q110.62 72.16 108.29 71.84L108.36 71.90L108.32 71.87Q106.69 71.92 105.98 71.53L105.99 71.54L105.95 71.50Q106.02 71.18 105.83 70.02L105.67 69.86L105.81 70.00Q105.39 67.64 107.45 66.22L107.44 66.20L107.34 66.11Q109.17 64.97 111.56 65.03Z"/><path d="M16 28 C188 85,168 76,321 121" stroke="#9bea4c" fill="none"/><path d="M20 111 C158 64,163 29,335 3" stroke="#b585e4" fill="none"/><path d="M14 52 C156 28,167 112,327 130" stroke="#80b7ee" fill="none"/><path d="M7 60 C156 30,152 23,331 67" stroke="#e6ab98" fill="none"/><path d="M1 69 C175 133,166 58,332 60" stroke="#40e240" fill="none"/><path d="M10 64 C157 62,177 104,326 78" stroke="#bce542" fill="none"/></svg>