<svg xmlns="http://www.w3.org/2000/svg" width="342" height="140" viewBox="0,0,342,140"><path d="M16 110 C188 71,158 115,330 114" stroke="#e28c8c" fill="none"/><path fill="#82eded" d="M279.69 89.96L279.72 89.99L279.85 90.12Q280.34 91.68 281.17 94.81L281.11 94.76L280.98 94.63Q274.43 92.57 267.28 92.99L267.46 93.16L267.26 92.97Q260.16 93.38 253.95 96.46L254.08 96.59L254.09 96.59Q254.45 95.53 254.50 95.65L254.53 95.68L254.45 95.60Q260.34 89.54 266.43 82.68L266.37 82.61L266.35 82.59Q273.30 74.94 275.13 67.66L274.99 67.52L275.10 67.63Q275.70 64.80 273.72 62.97L273.77 63.02L273.84 63.09Q271.84 61.23 269.06 61.47L268.96 61.37L269.11 61.52Q268.44 61.32 267.91 61.32L267.99 61.41L267.92 61.34Q265.68 61.46 263.73 62.88L263.61 62.76L263.58 62.73Q261.63 64.93 261.99 69.07L262.06 69.14L261.95 69.02Q259.17 68.50 257.28 67.79L257.28 67.79L257.39 67.90Q256.96 65.58 256.85 63.33L256.86 63.35L256.96 63.45Q256.76 60.83 257.71 59.05L257.72 59.06L257.76 59.10Q260.51 56.94 265.72 56.94L265.63 56.86L268.35 56.86L268.49 57.00Q272.06 57.08 273.54 57.26L273.38 57.09L273.44 57.16Q280.12 57.74 280.53 61.53L280.69 61.69L280.65 61.65Q280.64 62.40 280.52 63.64L280.65 63.78L280.61 63.74Q280.62 64.81 280.38 65.87L280.29 65.78L280.28 65.77Q277.74 78.38 265.97 89.02L266.09 89.13L265.90 88.95Q268.15 88.77 270.28 88.77L270.21 88.71L270.24 88.73Q275.43 88.89 279.86 90.13ZM278.96 57.77L278.83 57.64L278.84 57.65Q276.38 56.66 273.72 56.54L273.84 56.67L268.40 56.26L268.44 56.30Q261.46 55.82 258.03 57.54L258.14 57.64L258.09 57.60Q256.46 59.75 256.46 62.94L256.50 62.99L256.44 62.93Q256.40 63.96 256.88 68.33L257.01 68.46L256.90 68.36Q257.83 68.82 259.67 69.29L259.55 69.17L259.69 70.91L259.55 70.76Q259.61 71.60 259.73 72.43L259.59 72.28L259.69 72.39Q261.65 72.57 265.49 72.93L265.39 72.82L265.52 72.96Q265.47 72.37 265.47 71.84L265.49 71.86L265.40 71.77Q265.47 69.00 267.37 66.91L267.25 66.79L267.31 66.84Q269.10 64.64 271.87 64.82L271.96 64.90L271.91 64.85Q273.16 64.98 274.34 65.21L274.36 65.23L274.28 65.15Q274.53 65.82 274.65 66.47L274.69 66.51L274.69 66.51Q274.76 67.17 274.64 67.70L274.63 67.69L274.58 67.65Q272.55 74.96 265.69 82.47L265.75 82.53L265.81 82.58Q262.37 85.95 253.91 95.35L254.02 95.46L254.07 95.51Q253.73 96.77 253.20 97.66L253.06 97.52L253.26 97.72Q255.73 96.34 258.10 95.52L257.96 95.38L258.09 95.51Q256.96 96.39 255.48 98.70L255.42 98.64L255.34 98.56Q255.27 99.19 255.09 99.72L255.03 99.66L255.03 99.66Q262.57 96.44 271.08 96.73L271.14 96.79L271.08 96.73Q280.00 97.08 287.10 100.74L286.98 100.63L285.42 97.29L285.48 97.35Q284.53 95.33 284.11 94.09L284.01 93.99L284.08 94.06Q282.94 93.39 281.05 92.74L281.05 92.75L281.07 92.76Q280.77 91.58 280.18 89.45L280.33 89.60L280.31 89.58Q276.80 88.61 273.26 88.32L273.28 88.34L273.29 88.36Q280.64 81.33 283.01 68.50L282.95 68.45L283.17 63.87L283.18 63.88Q283.13 61.17 281.23 60.10L281.17 60.04L281.23 60.16L281.19 60.12Q281.08 59.95 280.96 59.95L280.93 59.92L280.89 59.87Q280.66 58.70 278.94 57.75Z"/><path fill="#e88868" d="M131.63 61.73L131.58 61.68L129.08 61.78L129.23 61.93Q125.58 61.95 125.23 65.08L125.39 65.25L125.32 65.18Q125.27 66.37 125.33 67.90L125.23 67.80L125.21 67.79Q125.20 70.73 127.15 72.80L127.17 72.83L127.16 72.81Q129.22 74.99 132.18 74.75L132.24 74.82L132.23 74.81Q135.25 74.40 136.43 72.98L136.52 73.07L136.50 73.04Q138.14 71.61 138.55 68.12L138.61 68.17L138.65 68.21Q139.06 64.73 137.11 63.42L137.10 63.41L137.02 63.33Q135.61 62.04 131.47 61.56ZM140.99 76.06L141.02 76.08L139.01 79.63L138.94 79.56Q134.68 86.96 128.83 93.29L128.99 93.45L128.86 93.32Q126.37 93.61 122.17 94.85L122.20 94.88L122.23 94.91Q130.49 85.13 135.40 77.68L135.34 77.62L135.33 77.61Q133.68 78.56 131.14 78.68L131.27 78.82L131.13 78.68Q126.62 79.07 124.25 76.00L124.22 75.96L124.18 75.92Q122.29 73.44 120.57 66.34L120.48 66.25L120.65 66.42Q120.66 65.72 120.42 64.27L120.24 64.09L120.30 64.15Q120.15 62.79 120.15 62.08L120.13 62.06L120.05 61.98Q120.13 59.27 121.78 58.32L121.65 58.19L121.74 58.28Q123.56 57.03 126.46 57.03L126.59 57.16L126.59 57.16Q131.44 57.04 131.44 57.04L131.53 57.13L131.48 57.08Q134.90 57.19 136.85 57.48L136.88 57.52L136.87 57.50Q140.19 57.92 141.61 58.69L141.50 58.58L141.65 58.73Q143.67 59.81 143.97 62.53L143.92 62.49L144.07 62.63Q143.95 62.87 143.66 67.01L143.68 67.03L143.61 66.96Q143.19 70.45 142.83 71.75L142.82 71.74L142.82 71.73Q142.09 73.79 140.91 75.97ZM143.85 79.68L144.01 79.85L143.93 79.76Q145.47 76.33 146.29 69.65L146.39 69.74L146.27 69.63Q146.70 66.21 146.64 64.85L146.68 64.89L146.73 64.94Q146.56 61.93 144.73 60.51L144.70 60.49L144.27 60.35L144.21 60.29Q143.94 59.25 142.52 58.24L142.51 58.24L142.53 58.25Q138.99 56.72 131.54 56.49L131.41 56.36L131.39 56.34Q129.89 56.32 126.11 56.32L126.11 56.33L126.16 56.37Q123.41 56.35 121.11 57.41L121.20 57.50L121.17 57.48Q119.29 58.61 119.41 61.45L119.48 61.52L119.41 61.45Q119.83 63.00 120.13 66.14L120.18 66.19L120.11 66.12Q121.06 70.20 121.47 71.50L121.50 71.52L121.50 71.53Q122.39 74.43 123.87 76.44L123.82 76.39L123.85 76.42Q124.26 76.95 124.85 77.54L124.77 77.46L124.82 77.51Q125.15 78.14 126.16 79.56L126.28 79.68L126.15 79.55Q128.46 81.69 131.48 81.98L131.61 82.11L131.50 82.00Q128.63 86.23 126.21 89.19L126.14 89.12L120.66 96.06L120.65 96.05Q124.01 94.73 126.55 94.20L126.59 94.24L126.67 94.32Q125.43 95.62 123.00 98.28L122.99 98.27L123.07 98.36Q127.76 96.84 132.61 96.78L132.67 96.84L132.67 96.84Q136.26 92.79 143.00 81.56L143.04 81.59L142.91 81.58L143.00 81.67Q143.44 80.58 143.97 79.81ZM134.58 65.38L134.62 65.43L134.60 65.40Q135.51 65.19 136.22 65.37L136.22 65.37L136.21 65.36Q137.22 65.54 137.81 65.72L137.89 65.80L137.81 65.72Q138.09 66.41 138.21 67.06L138.13 66.99L138.20 67.06Q138.27 67.66 138.09 68.25L138.02 68.18L137.99 68.15Q137.96 70.84 136.13 72.55L136.22 72.64L136.12 72.55Q134.68 74.18 132.13 74.12L132.14 74.12L132.22 74.20Q131.52 74.15 129.15 73.68L129.06 73.59L129.21 73.73Q128.72 72.24 128.72 71.12L128.70 71.10L128.69 71.09Q128.61 70.71 128.61 70.35L128.75 70.49L128.60 70.35Q128.73 67.05 132.28 65.81L132.30 65.82L132.20 65.73Q133.33 65.44 134.63 65.44Z"/><path d="M3 105 C187 109,169 100,341 18" stroke="#dcdc65" fill="none"/><path d="M21 57 C186 130,153 37,332 117" stroke="#9ee358" fill="none"/><path d="M16 95 C178 28,186 64,330 11" stroke="#77ed95" fill="none"/><path d="M14 16 C151 65,158 88,338 77" stroke="#7cd1ed" fill="none"/><path d="M16 37 C151 47,161 131,327 101" stroke="#65a3e0" fill="none"/><path d="M5 93 C161 33,150 131,322 135" stroke="#dfdf47" fill="none"/><path d="M9 49 C169 110,157 44,337 120" stroke="#e4e485" fill="none"/><path d="M19 59 C175 23,158 26,339 130" stroke="#e2c469" fill="none"/><path d="M10 86 C160 20,183 64,336 63" stroke="#3a64e2" fill="none"/><path d="M7 9 C165 23,180 57,322 75" stroke="#5ce45c" fill="none"/><path d="M6 103 C171 10,159 33,336 80" stroke="#ade476" fill="none"/><path d="M9 25 C187 125,175 33,332 110" stroke="#e45c5c" fill="none"/><path d="M13 36 C179 121,154 115,332 100" stroke="#e665a5" fill="none"/><path d="M10 42 C178 21,187 98,332 125" stroke="#e2e236" fill="none"/><path d="M8 7 C166 22,173 121,333 95" stroke="#8769e2" fill="none"/><path d="M18 38 C186 61,155 62,339 60" stroke="#e593bc" fill="none"/><path d="M2 103 C165 43,163 129,324 133" stroke="#e77878" fill="none"/><path d="M2 46 C165 9,180 50,337 85" stroke="#4be196" fill="none"/><path d="M17 49 C181 33,153 68,325 50" stroke="#ab97e6" fill="none"/><path d="M14 135 C163 39,155 61,321 94" stroke="#7f5de3" fill="none"/><path d="M8 137 C172 136,178 86,333 37" stroke="#3fe391" fill="none"/><path d="M4 98 C165 23,160 49,336 71" stroke="#da62da" fill="none"/><path d="M5 14 C186 90,172 53,332 130" stroke="#8869e7" fill="none"/><path d="M14 60 C185 55,181 90,335 27" stroke="#c9e183" fill="none"/><path d="M6 10 C159 132,154 93,331 88" stroke="#c7e961" fill="none"/><path d="M15 4 C176 86,181 63,341 133" stroke="#af7ce3" fill="none"/><path d="M14 63 C156 33,161 43,331 59" stroke="#728ee3" fill="none"/><path d="M5 58 C172 16,182 30,339 130" stroke="#e37f5d" fill="none"/><path d="M15 79 C180 90,150 85,323 29" stroke="#ee7bd1" fill="none"/><path d="M16 107 C192 12,157 81,328 79" stroke="#94e5e5" fill="none"/><path d="M13 25 C169 35,157 31,323 19" stroke="#5757da" fill="none"/><path d="M6 131 C169 113,160 18,336 93" stroke="#d75f9b" fill="none"/><path d="M13 21 C151 100,173 50,337 58" stroke="#eb8989" fill="none"/><path fill="#db6b6b" d="M58.32 93.79L58.44 93.91L58.38 93.86Q56.22 94.00 53.79 93.35L53.71 93.27L53.69 93.25Q51.77 91.80 51.53 89.26L51.65 89.37L51.56 89.28Q51.51 89.00 51.81 84.92L51.89 85.00L51.82 84.93Q53.46 84.67 56.59 84.08L56.69 84.18L56.28 85.25L56.28 85.25Q55.96 88.06 58.15 88.95L57.98 88.79L58.09 88.89Q59.28 89.37 62.53 89.37L62.52 89.36L62.64 89.48Q65.14 89.26 65.43 89.14L65.40 89.11L65.34 89.05Q66.66 88.71 67.78 87.94L67.88 88.04L67.84 88.00Q70.14 86.63 69.84 83.38L69.82 83.35L69.81 83.34Q69.39 79.43 66.70 77.01L66.73 77.04L66.87 77.18Q64.03 74.60 60.18 74.60L60.21 74.63L60.18 74.25L60.19 74.25Q60.79 74.21 62.15 74.09L62.25 74.19L62.21 74.15Q65.24 74.04 67.37 72.12L67.24 71.99L67.30 72.05Q69.44 70.14 69.68 67.25L69.73 67.30L69.67 67.23Q69.81 66.73 69.81 66.19L69.74 66.12L69.74 66.12Q69.83 63.85 67.70 62.43L67.69 62.41L67.57 62.30Q65.76 61.14 63.28 61.31L63.22 61.26L63.35 61.39Q61.22 61.03 59.33 61.69L59.34 61.70L59.41 61.77Q57.08 62.51 56.61 64.28L56.61 64.29L56.67 64.35Q56.38 65.53 56.49 66.71L56.44 66.66L56.39 66.61Q54.96 66.42 51.77 65.30L51.58 65.12L51.67 65.20Q51.31 62.59 51.37 61.29L51.38 61.31L51.29 61.22Q51.50 58.88 53.15 57.81L53.25 57.91L53.16 57.82Q55.34 56.87 57.83 56.87L57.87 56.91L57.95 56.99Q62.75 56.83 67.66 57.24L67.65 57.23L67.79 57.37Q75.57 57.93 75.10 63.79L75.04 63.73L75.08 63.78Q74.98 66.10 74.22 68.53L74.22 68.53L74.28 68.60Q72.71 73.24 69.05 74.66L69.08 74.69L69.02 74.63Q73.29 75.64 74.24 80.85L74.13 80.74L74.07 80.69Q74.44 82.47 74.56 85.61L74.55 85.60L74.57 85.62Q74.93 92.67 67.78 93.38L67.68 93.28L67.78 93.38Q66.62 93.46 58.40 93.87ZM66.37 97.23L66.54 97.40L66.39 97.26Q67.47 97.44 71.90 97.56L71.85 97.51L71.78 97.44Q74.58 97.63 77.12 96.63L77.19 96.70L77.10 96.61Q79.04 95.23 78.74 92.51L78.57 92.34L78.61 92.37Q78.54 90.41 78.06 87.69L77.97 87.60L78.09 87.72Q76.90 80.68 73.89 78.14L73.91 78.15L73.65 77.60L73.55 77.45L73.55 77.45Q76.20 75.12 77.38 68.32L77.42 68.36L77.46 68.40Q77.47 67.64 77.65 66.16L77.72 66.23L77.67 66.19Q77.70 64.92 77.59 63.85L77.71 63.98L77.67 63.93Q77.46 61.36 75.45 60.30L75.31 60.16L75.33 60.29L75.31 60.28Q74.73 58.63 72.96 57.81L72.95 57.79L73.02 57.87Q70.63 56.78 62.65 56.31L62.59 56.25L62.63 56.29Q60.00 56.14 57.51 56.14L57.69 56.32L57.68 56.31Q55.13 56.25 52.77 57.25L52.66 57.14L52.74 57.22Q50.86 58.42 50.86 61.14L50.77 61.05L50.86 61.14Q50.79 60.42 51.20 65.62L51.25 65.67L51.16 65.59Q51.79 65.85 54.33 66.80L54.34 66.81L54.36 66.83Q54.18 67.48 54.12 68.25L54.24 68.37L54.25 68.38Q54.21 69.11 54.27 69.93L54.37 70.03L54.24 69.90Q57.08 70.56 60.22 70.73L60.26 70.78L60.11 70.63Q60.07 67.57 61.79 66.27L61.80 66.28L61.80 66.29Q63.07 65.25 66.21 64.90L66.23 64.92L66.22 64.91Q68.07 64.99 68.96 65.28L68.96 65.28L68.81 65.13Q68.89 65.33 68.95 65.51L69.09 65.65L69.08 65.94L69.15 66.71L69.21 66.77Q69.14 67.00 69.09 67.24L69.14 67.29L69.16 67.31Q68.93 69.86 66.56 71.70L66.64 71.77L66.68 71.81Q65.23 73.20 62.09 73.50L62.12 73.53L62.03 73.44Q60.94 73.70 59.58 73.70L59.67 73.80L59.51 73.63Q59.58 74.18 59.81 75.24L59.95 75.38L59.94 75.36Q62.56 75.27 64.81 76.39L64.85 76.44L64.59 76.35L62.21 76.69L62.17 76.65Q62.30 77.25 62.47 78.19L62.47 78.20L62.50 78.22Q65.75 78.04 68.41 80.11L68.41 80.11L68.47 80.17Q68.86 80.79 69.33 83.33L69.36 83.37L69.23 83.24Q69.53 87.80 64.98 88.45L64.99 88.46L64.95 88.42Q61.70 88.84 60.82 88.78L60.98 88.94L60.89 88.85Q60.26 88.75 59.43 88.64L59.35 88.55L59.29 87.79L59.53 87.14L59.68 86.64L59.72 86.14L59.66 86.09Q58.08 86.11 56.84 86.40L57.00 86.56L56.99 86.56Q56.83 86.09 56.83 85.80L56.84 85.81L56.85 85.82Q57.02 85.63 57.02 85.28L56.89 85.15L57.04 85.30Q56.97 84.52 57.21 83.40L57.30 83.49L57.15 83.34Q54.38 83.83 51.48 84.36L51.45 84.32L51.43 84.30Q51.40 85.04 51.22 86.78L51.32 86.88L51.33 86.89Q51.08 88.56 51.08 89.51L51.13 89.56L51.11 89.55Q51.14 92.65 53.27 93.83L53.33 93.89L53.34 93.90Q55.67 97.47 63.00 97.17L63.04 97.21L63.00 97.17Q64.02 97.01 66.38 97.24Z"/><path d="M21 72 C173 14,159 113,329 23" stroke="#e674ad" fill="none"/><path d="M10 118 C152 109,171 59,332 125" stroke="#5298df" fill="none"/><path d="M4 49 C177 136,159 129,323 119" stroke="#dc934b" fill="none"/><path d="M1 125 C160 77,166 46,322 11" stroke="#e58e8e" fill="none"/><path fill="#e179c7" d="M193.41 82.38L193.30 82.28L193.31 82.29Q198.24 81.83 203.21 82.01L203.22 82.03L203.23 82.04Q203.05 77.95 203.05 74.23L203.02 74.19L203.00 74.18Q203.09 70.42 203.38 66.45L203.33 66.40L203.42 66.50Q201.57 69.20 193.47 82.45ZM208.79 93.80L208.83 93.85L208.76 93.78Q206.08 93.22 203.30 93.10L203.29 93.10L203.36 93.16Q203.02 89.45 202.84 85.61L202.94 85.71L202.92 85.68Q194.68 85.43 187.34 87.61L187.27 87.54L187.30 87.58Q187.48 86.81 187.78 85.27L187.82 85.31L187.67 85.17Q190.51 80.32 196.07 70.56L196.17 70.65L196.11 70.60Q200.65 63.07 205.97 57.04L205.92 56.99L205.88 56.94Q207.20 56.61 209.80 56.19L209.82 56.22L209.88 56.28Q206.94 66.29 206.94 77.23L206.99 77.28L206.84 77.13Q206.99 79.59 207.11 81.90L207.01 81.79L209.00 81.95L209.07 82.02Q210.09 82.15 211.03 82.33L210.91 82.21L210.93 82.22Q211.15 83.81 211.57 86.82L211.61 86.87L211.60 86.86Q209.73 86.46 207.42 86.16L207.37 86.12L207.36 86.11Q207.64 89.16 208.70 93.71ZM211.30 81.59L211.46 81.75L211.41 81.70Q210.98 81.45 210.68 81.45L210.77 81.53L210.26 81.61L210.23 81.59Q209.97 79.19 209.97 77.00L210.07 77.11L209.93 76.96Q209.94 67.04 213.13 57.70L213.27 57.83L213.26 57.82Q212.10 58.25 209.85 58.85L209.72 58.72L209.69 58.68Q210.21 57.67 210.92 55.48L210.77 55.33L210.87 55.43Q208.85 56.02 205.66 56.37L205.72 56.44L205.69 56.40Q199.46 63.00 191.35 77.55L191.40 77.60L194.67 71.94L194.60 71.87Q194.09 73.61 193.68 74.49L193.58 74.39L186.76 88.51L186.77 88.52Q187.80 88.31 189.57 87.72L189.41 87.55L189.18 87.92L189.31 88.04Q188.98 88.96 188.51 90.91L188.62 91.03L188.60 91.00Q194.88 88.83 202.40 89.13L202.48 89.21L202.54 89.27Q202.61 90.76 202.91 93.84L202.75 93.68L202.76 93.69Q204.54 93.81 206.20 93.99L206.13 93.92L206.17 93.96Q206.34 94.97 206.76 97.10L206.75 97.08L206.73 97.06Q209.86 97.59 214.53 99.01L214.37 98.86L214.43 98.91Q212.91 95.62 211.50 90.54L211.45 90.49L213.75 91.25L213.73 91.24Q214.74 91.53 215.80 92.06L215.76 92.02L215.91 92.17Q214.62 88.22 214.38 85.62L214.33 85.56L214.30 85.53Q213.41 85.29 211.63 84.94L211.66 84.97L211.69 84.99Q211.29 82.94 211.29 81.58ZM199.00 81.47L198.86 81.34L198.97 81.44Q200.22 79.50 202.65 75.54L202.50 75.39L202.63 75.52Q202.56 76.93 202.50 78.40L202.47 78.38L202.57 78.48Q202.58 80.02 202.64 81.50L202.57 81.44L202.46 81.33Q201.64 81.33 200.75 81.33L200.82 81.40L200.85 81.43Q199.80 81.32 198.85 81.32Z"/><path d="M10 16 C191 38,190 105,339 128" stroke="#e14169" fill="none"/><path d="M5 76 C153 123,192 52,331 125" stroke="#7ce05b" fill="none"/></svg>