<svg xmlns="http://www.w3.org/2000/svg" width="342" height="140" viewBox="0,0,342,140"><path d="M9 114 C186 111,177 54,325 16" stroke="#a4e58e" fill="none"/><path d="M14 76 C150 19,164 104,333 10" stroke="#8968ed" fill="none"/><path d="M20 110 C173 77,180 104,337 91" stroke="#9173ec" fill="none"/><path d="M12 25 C161 7,169 103,340 105" stroke="#71e9e9" fill="none"/><path d="M1 76 C150 86,169 28,332 125" stroke="#87a1ec" fill="none"/><path d="M13 134 C191 73,161 55,338 16" stroke="#87e7e7" fill="none"/><path d="M3 1 C177 117,161 4,335 35" stroke="#46e5be" fill="none"/><path d="M20 33 C157 125,160 32,323 71" stroke="#e9933e" fill="none"/><path d="M13 24 C166 21,159 13,327 7" stroke="#b4d943" fill="none"/><path fill="#f07e7e" d="M56.40 98.42L56.41 98.43L56.48 98.50Q53.87 98.64 50.97 97.86L50.88 97.78L50.87 97.77Q48.60 96.06 48.32 93.02L48.38 93.08L48.33 93.03Q48.36 92.78 48.71 87.90L48.72 87.90L48.66 87.85Q50.69 87.61 54.43 86.91L54.28 86.76L54.09 88.32L53.94 88.18Q53.53 91.51 56.14 92.57L56.11 92.54L56.07 92.50Q57.55 93.13 61.44 93.13L61.50 93.19L61.53 93.22Q64.37 92.82 64.73 92.67L64.76 92.71L64.77 92.72Q66.56 92.53 67.90 91.61L67.90 91.60L67.89 91.60Q70.51 89.83 70.16 85.95L70.18 85.97L70.08 85.86Q69.82 81.44 66.61 78.54L66.47 78.40L66.62 78.55Q63.29 75.54 58.69 75.54L58.67 75.52L58.68 75.10L58.74 75.17Q59.50 75.15 61.13 75.01L61.17 75.05L61.13 75.01Q64.65 74.78 67.19 72.48L67.16 72.45L67.07 72.36Q69.68 70.13 69.97 66.66L69.96 66.65L70.07 66.77Q70.21 66.13 70.21 65.49L70.13 65.41L70.19 65.48Q70.09 62.54 67.54 60.85L67.60 60.90L67.48 60.79Q65.26 59.34 62.29 59.55L62.39 59.65L62.37 59.63Q59.85 59.24 57.59 60.01L57.69 60.11L57.63 60.05Q54.99 61.09 54.43 63.21L54.47 63.26L54.46 63.24Q54.09 64.64 54.23 66.05L54.21 66.04L54.21 66.04Q52.35 65.66 48.53 64.32L48.50 64.29L48.46 64.25Q48.00 61.10 48.07 59.54L48.13 59.60L48.22 59.69Q48.34 56.77 50.32 55.50L50.26 55.44L50.29 55.47Q53.03 54.46 56.00 54.46L55.94 54.41L55.92 54.38Q61.79 54.31 67.66 54.81L67.61 54.77L67.71 54.86Q77.12 55.65 76.55 62.65L76.53 62.63L76.48 62.57Q76.43 65.42 75.51 68.32L75.51 68.32L75.38 68.19Q73.77 74.01 69.39 75.70L69.26 75.57L69.42 75.73Q74.31 76.73 75.44 82.95L75.30 82.81L75.45 82.96Q75.81 85.02 75.95 88.77L75.83 88.64L75.89 88.71Q76.19 97.00 67.64 97.85L67.62 97.83L67.71 97.92Q66.24 97.93 56.41 98.43ZM66.13 102.63L66.26 102.76L66.25 102.75Q67.37 102.81 72.67 102.95L72.53 102.81L72.52 102.80Q75.87 103.04 78.91 101.84L78.94 101.87L78.94 101.86Q81.18 100.15 80.82 96.89L80.76 96.83L80.78 96.85Q80.56 94.36 79.99 91.11L80.03 91.15L79.99 91.11Q78.64 82.76 75.03 79.72L75.05 79.74L74.59 78.92L74.55 78.82L74.66 78.93Q77.87 76.19 79.28 68.06L79.29 68.07L79.23 68.01Q79.27 67.13 79.49 65.37L79.60 65.48L79.59 65.47Q79.59 63.92 79.45 62.64L79.43 62.62L79.44 62.64Q79.33 59.70 76.93 58.43L76.90 58.40L76.65 58.28L76.60 58.24Q76.13 56.49 74.01 55.50L74.05 55.55L74.10 55.60Q71.16 54.22 61.62 53.65L61.57 53.61L61.56 53.59Q58.46 53.46 55.49 53.46L55.61 53.58L55.49 53.46Q52.56 53.50 49.74 54.70L49.85 54.82L49.72 54.69Q47.48 56.12 47.48 59.38L47.47 59.37L47.58 59.48Q47.46 58.58 47.95 64.80L47.95 64.80L47.97 64.82Q48.46 64.88 51.50 66.01L51.60 66.11L51.61 66.13Q51.63 67.13 51.56 68.05L51.51 68.01L51.49 67.99Q51.45 68.87 51.52 69.85L51.52 69.85L51.52 69.85Q54.91 70.63 58.66 70.84L58.63 70.81L58.67 70.85Q58.58 67.15 60.63 65.60L60.64 65.61L60.62 65.59Q62.14 64.35 65.89 63.93L65.95 63.99L65.90 63.94Q68.09 64.01 69.15 64.37L69.03 64.24L68.99 64.20Q69.05 64.40 69.12 64.61L69.13 64.62L69.21 65.06L69.47 66.16L69.35 66.05Q69.36 66.41 69.28 66.69L69.31 66.71L69.25 66.65Q69.18 69.91 66.35 72.10L66.33 72.08L66.29 72.03Q64.67 73.81 60.92 74.16L60.92 74.16L60.89 74.13Q59.57 74.44 57.95 74.44L57.97 74.47L57.93 74.43Q58.04 75.10 58.33 76.38L58.22 76.27L58.27 76.32Q61.55 76.35 64.24 77.69L64.35 77.81L63.96 77.62L61.24 78.15L61.18 78.10Q61.15 78.63 61.36 79.76L61.50 79.90L61.52 79.92Q65.45 79.75 68.63 82.22L68.51 82.10L68.59 82.19Q69.08 82.96 69.65 86.00L69.56 85.91L69.56 85.92Q69.89 91.34 64.45 92.12L64.55 92.21L64.37 92.04Q60.50 92.55 59.44 92.48L59.59 92.63L59.54 92.58Q58.69 92.37 57.70 92.23L57.77 92.30L57.63 91.31L57.93 90.54L57.87 89.70L58.02 89.21L58.05 89.24Q56.18 89.29 54.69 89.64L54.69 89.64L54.78 89.73Q54.80 89.39 54.80 89.04L54.71 88.95L54.67 88.91Q54.73 88.55 54.73 88.13L54.70 88.09L54.85 88.24Q54.92 87.46 55.20 86.11L55.19 86.11L55.14 86.06Q51.66 86.46 48.20 87.10L48.26 87.17L48.25 87.16Q48.25 88.08 48.04 90.16L47.90 90.02L47.96 90.08Q47.83 92.25 47.83 93.38L47.78 93.33L47.79 93.34Q47.99 97.22 50.54 98.63L50.54 98.64L50.53 98.63Q53.32 102.90 62.09 102.55L62.01 102.48L62.06 102.52Q63.26 102.31 66.09 102.59Z"/><path d="M16 91 C191 136,186 38,335 86" stroke="#8abcef" fill="none"/><path d="M13 4 C151 125,181 59,337 127" stroke="#e8e868" fill="none"/><path d="M4 130 C174 67,184 117,334 109" stroke="#9be254" fill="none"/><path d="M1 115 C168 27,188 83,326 17" stroke="#ade377" fill="none"/><path d="M6 89 C182 96,178 5,337 87" stroke="#4c91d6" fill="none"/><path d="M5 58 C179 113,172 89,329 48" stroke="#d3ed87" fill="none"/><path d="M3 93 C186 43,177 90,341 36" stroke="#6daded" fill="none"/><path d="M15 34 C174 4,156 76,324 1" stroke="#e9809a" fill="none"/><path d="M16 93 C179 93,190 55,327 77" stroke="#d07dec" fill="none"/><path d="M15 11 C187 92,152 42,333 5" stroke="#c9e76e" fill="none"/><path d="M8 13 C158 32,182 110,334 33" stroke="#72e8e8" fill="none"/><path fill="#da67da" d="M130.67 60.00L130.71 60.04L127.82 60.26L127.78 60.22Q123.57 60.39 123.14 64.14L123.29 64.29L123.29 64.29Q123.15 65.64 123.22 67.47L123.17 67.42L123.12 67.37Q123.27 71.06 125.60 73.53L125.57 73.50L125.63 73.55Q127.79 75.86 131.32 75.57L131.44 75.70L131.35 75.61Q135.24 75.39 136.65 73.69L136.69 73.73L136.69 73.73Q138.61 71.98 139.11 67.81L139.06 67.76L139.03 67.72Q139.64 63.67 137.31 62.12L137.18 61.99L137.34 62.14Q135.58 60.53 130.63 59.96ZM141.86 77.13L141.96 77.23L139.54 81.46L139.59 81.50Q134.55 90.39 127.55 97.96L127.53 97.94L127.46 97.87Q124.39 98.12 119.37 99.61L119.38 99.62L119.44 99.68Q129.31 87.99 135.18 79.08L135.15 79.05L135.16 79.05Q133.28 80.29 130.24 80.43L130.19 80.38L130.31 80.50Q124.64 80.70 121.81 77.02L121.85 77.06L121.89 77.10Q119.58 74.09 117.53 65.60L117.58 65.65L117.48 65.55Q117.56 64.78 117.27 63.04L117.22 62.99L117.31 63.08Q117.04 61.36 117.04 60.51L117.06 60.53L117.04 60.51Q117.03 57.18 119.01 56.05L118.89 55.93L118.88 55.92Q121.14 54.50 124.60 54.50L124.65 54.55L124.68 54.58Q130.53 54.49 130.53 54.49L130.63 54.59L130.58 54.54Q134.56 54.56 136.89 54.91L137.04 55.06L137.04 55.06Q140.91 55.47 142.61 56.39L142.57 56.35L142.63 56.41Q145.09 57.74 145.45 60.99L145.50 61.05L145.52 61.07Q145.63 61.60 145.28 66.55L145.26 66.53L145.18 66.45Q144.51 70.45 144.09 72.01L143.99 71.91L144.16 72.08Q143.43 74.67 142.01 77.29ZM145.41 81.60L145.57 81.76L145.53 81.72Q147.38 77.63 148.37 69.64L148.20 69.48L148.35 69.62Q148.81 65.49 148.74 63.86L148.77 63.90L148.73 63.85Q148.68 60.41 146.49 58.72L146.41 58.64L145.92 58.50L145.86 58.44Q145.41 57.07 143.72 55.87L143.78 55.93L143.76 55.92Q139.40 53.96 130.50 53.68L130.61 53.80L130.50 53.68Q128.77 53.72 124.24 53.72L124.30 53.77L124.34 53.81Q120.95 53.68 118.19 54.95L118.32 55.08L118.26 55.02Q116.21 56.58 116.36 59.97L116.23 59.85L116.22 59.84Q116.60 61.56 116.95 65.30L117.00 65.35L116.94 65.29Q118.13 70.23 118.62 71.78L118.65 71.81L118.62 71.78Q119.62 75.18 121.38 77.58L121.47 77.67L121.48 77.68Q121.88 78.22 122.59 78.93L122.73 79.07L122.55 78.90Q123.17 79.86 124.37 81.56L124.25 81.44L124.28 81.47Q127.07 84.04 130.67 84.40L130.67 84.40L130.60 84.33Q127.14 89.35 124.24 92.89L124.34 92.99L117.53 101.02L117.57 101.06Q121.79 99.70 124.83 99.06L124.80 99.02L124.80 99.03Q123.36 100.63 120.46 103.81L120.38 103.73L120.48 103.83Q126.16 102.09 131.96 102.02L131.88 101.93L132.01 102.06Q136.33 97.26 144.39 83.83L144.24 83.69L144.27 83.85L144.41 84.00Q144.86 82.60 145.49 81.69ZM134.33 64.51L134.33 64.51L134.38 64.56Q135.53 64.37 136.38 64.58L136.25 64.45L136.27 64.48Q137.48 64.70 138.19 64.91L138.16 64.88L138.18 64.89Q138.34 65.56 138.48 66.33L138.57 66.41L138.64 66.49Q138.61 67.09 138.40 67.80L138.57 67.97L138.45 67.86Q138.37 71.03 136.18 73.08L136.30 73.20L136.23 73.12Q134.50 75.07 131.46 75.00L131.49 75.03L131.49 75.04Q130.55 74.87 127.72 74.30L127.83 74.42L127.87 74.46Q127.30 72.69 127.30 71.34L127.43 71.47L127.46 71.50Q127.32 71.00 127.32 70.58L127.23 70.49L127.17 70.43Q127.31 66.47 131.55 64.99L131.53 64.96L131.53 64.96Q132.80 64.54 134.36 64.54Z"/><path d="M4 128 C179 73,160 58,338 39" stroke="#e759e7" fill="none"/><path d="M17 133 C184 21,182 137,324 26" stroke="#6868ed" fill="none"/><path d="M14 71 C158 71,173 28,333 7" stroke="#6f8ce0" fill="none"/><path d="M14 81 C155 124,177 36,322 87" stroke="#5adc5a" fill="none"/><path d="M10 70 C179 49,166 117,325 34" stroke="#56d696" fill="none"/><path d="M20 120 C177 48,176 54,331 53" stroke="#62e862" fill="none"/><path d="M12 50 C182 86,164 6,337 128" stroke="#6161e5" fill="none"/><path d="M8 26 C189 16,189 18,330 22" stroke="#eded72" fill="none"/><path d="M14 47 C185 122,150 34,335 71" stroke="#caec63" fill="none"/><path d="M17 1 C192 65,192 128,334 7" stroke="#dd5454" fill="none"/><path d="M7 136 C171 49,177 5,336 27" stroke="#db6ba3" fill="none"/><path d="M13 72 C155 133,183 13,339 105" stroke="#38e58e" fill="none"/><path d="M18 75 C188 97,156 93,328 123" stroke="#ed86ba" fill="none"/><path d="M15 120 C173 108,154 99,325 26" stroke="#efef85" fill="none"/><path d="M20 103 C186 53,172 127,327 16" stroke="#46e596" fill="none"/><path d="M7 49 C179 23,188 123,328 68" stroke="#e28787" fill="none"/><path d="M2 7 C156 21,180 124,321 110" stroke="#8ad1e9" fill="none"/><path d="M13 122 C178 17,168 22,324 61" stroke="#6262ed" fill="none"/><path fill="#e34e4e" d="M261.68 98.57L261.73 98.61L261.68 98.57Q254.11 98.99 252.27 94.67L252.24 94.64L252.34 94.74Q253.68 92.90 256.58 89.58L256.61 89.61L256.59 89.59Q257.59 93.42 263.18 93.63L263.14 93.59L263.03 93.48Q269.38 93.68 272.42 91.21L272.48 91.27L272.40 91.18Q275.09 88.29 274.95 83.27L274.89 83.21L274.97 83.29Q274.61 73.81 265.70 74.23L265.77 74.30L265.62 74.15Q260.49 74.54 257.23 76.87L257.30 76.93L256.52 76.44L256.15 76.21L256.30 76.35Q256.81 70.37 256.60 65.27L256.62 65.30L256.60 65.27Q256.54 60.54 255.90 54.39L255.82 54.31L255.78 54.27Q262.59 56.07 269.66 55.86L269.67 55.86L269.61 55.80Q276.82 55.80 283.47 53.47L283.44 53.44L282.28 56.17L282.28 56.17Q281.80 57.67 281.45 59.23L281.38 59.16L281.31 59.09Q275.68 61.17 268.47 61.17L268.45 61.14L268.33 61.03Q265.79 61.18 263.04 60.89L262.86 60.72L262.94 60.80Q262.86 62.13 262.22 70.40L262.12 70.30L262.18 70.36Q263.76 69.54 267.58 69.25L267.56 69.23L267.48 69.15Q274.41 69.58 277.10 72.69L277.14 72.73L277.23 72.82Q279.73 75.61 280.23 82.75L280.19 82.72L280.23 82.76Q280.68 90.48 278.41 94.23L278.49 94.31L278.36 94.18Q274.69 97.78 268.53 98.21L268.54 98.21L268.60 98.28Q266.59 98.24 261.64 98.52ZM272.92 102.81L273.01 102.90L272.88 102.77Q279.29 102.96 282.83 100.91L282.84 100.92L282.81 100.89Q284.72 98.13 284.72 94.24L284.60 94.12L284.57 94.09Q284.70 88.50 282.94 80.87L282.81 80.74L282.83 80.76Q282.26 77.64 279.99 75.02L279.87 74.90L280.01 75.11L279.62 74.58L279.03 74.27L278.85 74.10Q278.40 72.86 277.19 71.59L277.08 71.47L277.13 71.60L277.11 71.58Q274.43 68.61 267.57 68.61L267.44 68.48L267.07 68.61L267.03 68.56Q267.11 67.44 267.46 65.39L267.42 65.34L267.49 65.42Q276.74 65.62 284.23 62.58L284.27 62.62L284.20 62.54Q285.00 59.95 286.77 54.72L286.83 54.79L282.81 56.42L282.93 56.54Q283.64 54.42 284.56 52.30L284.61 52.35L284.61 52.35Q277.35 54.92 269.72 55.06L269.81 55.16L269.81 55.16Q262.02 55.21 254.67 53.16L254.65 53.15L254.78 53.27Q255.96 61.38 255.96 69.58L256.12 69.74L256.09 69.71Q256.03 73.19 255.81 76.72L255.79 76.70L255.82 76.73Q256.38 77.14 257.44 77.71L257.28 77.55L257.45 77.72Q258.05 77.26 259.25 76.62L259.28 76.65L259.17 76.54Q259.20 78.06 258.78 80.89L258.69 80.80L258.66 80.76Q259.46 81.15 260.24 81.57L260.24 81.57L260.32 81.65Q265.49 78.40 268.95 78.40L268.89 78.34L268.79 78.24Q271.43 78.41 273.63 79.61L273.60 79.59L273.52 79.51Q274.11 81.37 274.18 83.14L274.22 83.18L274.20 83.16Q274.35 87.98 272.45 90.03L272.59 90.17L272.46 90.05Q270.01 92.41 265.84 92.83L265.74 92.73L265.88 92.86Q264.05 92.95 262.78 92.81L262.75 92.78L262.67 92.70Q261.23 92.60 259.81 91.96L259.80 91.95L259.65 91.45L259.51 91.73L259.54 91.76Q257.91 90.69 256.92 88.22L257.10 88.40L256.98 88.28Q254.60 90.99 251.49 94.95L251.42 94.88L251.43 94.89Q252.03 96.13 253.59 97.90L253.46 97.77L253.50 97.81Q255.55 101.27 260.78 102.19L260.83 102.23L260.66 102.07Q263.01 102.66 272.98 102.87Z"/><path d="M17 54 C156 127,165 33,340 7" stroke="#69ddc0" fill="none"/><path d="M18 60 C158 73,179 96,332 87" stroke="#7ab5ef" fill="none"/><path fill="#e4a18a" d="M198.53 77.71L198.64 77.83L198.53 77.72Q195.14 77.79 192.87 80.26L192.93 80.32L192.93 80.32Q190.52 82.65 190.24 86.18L190.26 86.20L190.36 86.30Q189.92 90.17 192.18 92.05L192.13 92.00L192.29 92.15Q194.48 93.96 198.44 93.81L198.48 93.86L198.51 93.89Q202.69 93.47 204.46 91.71L204.48 91.72L204.56 91.80Q206.41 89.06 206.19 85.66L206.21 85.68L206.29 85.76Q206.02 82.23 204.00 80.00L203.94 79.95L204.04 80.05Q201.90 77.69 198.51 77.69ZM198.55 60.27L198.60 60.32L198.60 60.32Q195.96 60.09 193.49 61.01L193.49 61.01L193.38 60.90Q191.12 62.52 191.54 65.99L191.35 65.80L191.52 65.97Q192.35 72.81 198.57 72.81L198.53 72.77L198.66 72.89Q201.55 73.24 203.39 71.12L203.27 71.01L203.25 70.98Q205.10 68.88 205.17 65.98L205.25 66.06L205.14 65.95Q205.38 62.79 204.04 61.66L204.04 61.67L204.12 61.74Q200.86 60.03 198.45 60.18ZM198.02 98.41L198.03 98.42L192.35 98.40L192.44 98.49Q189.52 98.40 187.05 96.78L187.06 96.79L187.13 96.86Q184.61 94.77 184.90 89.46L184.78 89.35L184.86 89.43Q185.66 76.65 192.37 74.81L192.41 74.85L192.46 74.90Q188.18 73.16 185.70 63.19L185.65 63.14L185.55 63.04Q184.97 60.48 185.11 59.00L185.06 58.94L185.19 59.07Q185.76 55.12 192.62 55.05L192.50 54.93L192.61 55.04Q200.38 54.82 203.06 55.17L203.16 55.27L203.13 55.24Q210.26 56.22 211.11 59.97L211.18 60.03L211.01 59.86Q211.26 61.03 211.26 61.74L211.42 61.90L211.30 61.78Q211.35 63.11 211.00 64.24L210.94 64.18L210.91 64.15Q209.78 71.99 204.33 74.82L204.39 74.88L204.36 74.85Q210.93 76.40 211.85 86.23L211.91 86.29L211.83 86.20Q211.79 86.45 211.86 88.85L211.96 88.95L211.79 88.78Q211.93 93.87 208.96 95.85L209.09 95.98L209.05 95.94Q206.48 97.55 198.00 98.39ZM202.32 102.78L202.32 102.78L208.54 102.92L208.41 102.80Q211.67 103.01 214.50 101.67L214.46 101.63L214.45 101.62Q216.64 100.35 216.78 96.88L216.84 96.94L216.84 96.95Q216.78 94.77 216.08 91.16L216.04 91.13L216.08 91.17Q214.50 82.66 210.61 79.19L210.59 79.17L210.13 78.35L209.87 77.95L209.48 77.35L209.60 77.47Q212.62 74.91 214.31 67.20L214.24 67.12L214.36 67.25Q214.33 66.50 214.47 64.95L214.45 64.93L214.45 64.93Q214.61 63.67 214.47 62.54L214.41 62.48L214.44 62.52Q214.11 59.78 211.92 58.86L212.01 58.95L212.07 58.94L211.67 58.69L211.74 58.76Q211.14 57.31 208.95 55.83L208.95 55.82L209.05 55.86L209.06 55.87Q205.44 54.65 197.88 54.30L197.80 54.22L197.90 54.32Q194.93 54.04 192.39 54.25L192.47 54.33L192.36 54.22Q190.88 54.30 188.47 54.58L188.42 54.53L188.52 54.62Q184.96 55.38 184.53 58.42L184.51 58.39L184.53 58.41Q184.40 59.27 184.47 60.76L184.55 60.84L184.48 60.77Q184.65 61.71 185.71 66.10L185.82 66.21L185.79 66.18Q187.17 72.08 190.42 74.56L190.55 74.69L190.56 74.70L190.56 74.70Q185.51 77.21 184.52 86.83L184.48 86.78L184.41 86.72Q184.01 90.77 184.01 92.46L184.01 92.47L184.16 92.62Q184.24 95.87 186.43 97.57L186.51 97.65L186.36 97.51Q186.70 97.77 187.19 98.12L187.22 98.15L187.21 98.14Q188.96 102.23 202.19 102.65ZM201.70 82.22L201.69 82.21L201.55 82.08Q203.41 82.10 205.03 82.95L204.86 82.77L204.93 82.84Q205.62 84.66 205.55 85.65L205.57 85.68L205.68 85.78Q205.66 86.26 205.66 86.82L205.71 86.87L205.62 86.79Q205.66 91.21 201.42 92.76L201.52 92.86L201.34 92.68Q199.91 93.30 198.42 93.09L198.35 93.02L198.47 93.14Q196.49 93.42 194.37 92.57L194.29 92.49L194.21 92.41Q193.72 91.22 193.86 89.38L193.96 89.48L193.96 89.48Q194.28 86.55 196.51 84.29L196.53 84.30L196.35 84.12Q198.62 81.91 201.59 82.12ZM201.96 64.46L202.12 64.62L202.06 64.56Q203.62 64.42 204.60 64.70L204.44 64.54L204.58 66.16L204.44 66.03Q204.50 68.70 202.80 70.57L202.88 70.65L202.74 70.51Q201.17 72.51 198.63 72.16L198.64 72.17L198.58 72.11Q196.67 72.04 195.89 71.61L196.03 71.75L196.01 71.73Q195.88 71.18 195.67 69.90L195.78 70.01L195.78 70.02Q195.17 67.29 197.43 65.73L197.40 65.70L197.44 65.74Q199.40 64.45 202.02 64.52Z"/></svg>