<svg xmlns="http://www.w3.org/2000/svg" width="342" height="140" viewBox="0,0,342,140"><path d="M19 82 C191 91,175 49,331 123" stroke="#dd73a8" fill="none"/><path d="M11 25 C175 61,162 81,335 25" stroke="#d0ec7d" fill="none"/><path d="M4 137 C173 138,179 53,336 133" stroke="#bce63b" fill="none"/><path d="M4 37 C175 72,182 34,329 137" stroke="#df70df" fill="none"/><path d="M12 90 C150 126,183 138,333 46" stroke="#8debeb" fill="none"/><path d="M16 82 C180 127,155 70,336 49" stroke="#5dbedf" fill="none"/><path d="M12 31 C190 108,189 23,341 66" stroke="#e871ad" fill="none"/><path d="M3 60 C185 126,156 81,323 44" stroke="#3737e1" fill="none"/><path d="M15 35 C190 68,181 134,329 120" stroke="#e76236" fill="none"/><path d="M10 48 C187 77,181 116,333 100" stroke="#e5bc94" fill="none"/><path d="M12 43 C191 18,183 90,340 32" stroke="#dd59bc" fill="none"/><path fill="#de6281" d="M266.59 77.78L266.69 77.87L266.54 77.73Q263.10 77.75 260.84 80.22L260.80 80.19L260.95 80.34Q258.59 82.72 258.31 86.25L258.42 86.36L258.28 86.23Q257.88 90.13 260.14 92.01L260.24 92.10L260.25 92.12Q262.45 93.93 266.41 93.79L266.51 93.89L266.39 93.76Q270.80 93.58 272.56 91.81L272.44 91.68L272.56 91.80Q274.42 89.07 274.21 85.68L274.24 85.71L274.21 85.68Q274.02 82.24 272.01 80.01L272.07 80.08L271.91 79.92Q270.04 77.83 266.65 77.83ZM266.53 60.26L266.50 60.22L266.45 60.18Q263.84 59.96 261.36 60.88L261.39 60.91L261.33 60.85Q259.00 62.41 259.43 65.88L259.49 65.94L259.46 65.91Q260.35 72.81 266.57 72.81L266.59 72.83L266.50 72.73Q269.45 73.14 271.29 71.02L271.32 71.06L271.25 70.98Q273.26 69.03 273.33 66.13L273.15 65.96L273.33 66.13Q273.29 62.70 271.95 61.57L271.99 61.62L271.97 61.59Q268.87 60.05 266.47 60.19ZM266.10 98.50L266.09 98.49L260.45 98.50L260.28 98.33Q257.45 98.32 254.97 96.70L254.98 96.71L255.03 96.76Q252.46 94.61 252.74 89.31L252.80 89.37L252.89 89.46Q253.71 76.70 260.43 74.86L260.42 74.86L260.31 74.75Q256.19 73.18 253.72 63.21L253.64 63.13L253.62 63.11Q253.09 60.60 253.23 59.11L253.17 59.05L253.09 58.97Q253.68 55.04 260.54 54.96L260.68 55.11L260.64 55.07Q268.45 54.89 271.14 55.25L271.17 55.27L271.08 55.18Q278.27 56.22 279.11 59.97L279.20 60.05L279.16 60.02Q279.38 61.15 279.38 61.86L279.37 61.85L279.38 61.87Q279.24 62.99 278.89 64.12L279.03 64.27L278.97 64.21Q277.81 72.03 272.36 74.85L272.45 74.94L272.49 74.98Q278.94 76.41 279.86 86.24L279.77 86.15L279.82 86.19Q279.73 86.39 279.80 88.80L279.92 88.92L279.85 88.85Q279.99 93.94 277.02 95.92L277.13 96.02L277.01 95.90Q274.42 97.48 265.93 98.33ZM270.24 102.70L270.34 102.81L276.54 102.93L276.54 102.93Q279.57 102.92 282.40 101.58L282.58 101.75L282.55 101.72Q284.65 100.36 284.79 96.90L284.69 96.80L284.80 96.91Q284.88 94.86 284.17 91.26L284.17 91.26L284.09 91.18Q282.48 82.63 278.59 79.17L278.54 79.12L278.22 78.44L277.90 77.98L277.51 77.38L277.61 77.49Q280.59 74.87 282.28 67.17L282.38 67.26L282.20 67.08Q282.32 66.50 282.47 64.95L282.51 65.00L282.39 64.87Q282.66 63.73 282.52 62.60L282.48 62.56L282.41 62.48Q282.19 59.87 280.00 58.95L279.88 58.83L279.94 58.82L279.68 58.70L279.58 58.59Q279.25 57.42 277.06 55.93L276.94 55.81L277.09 55.89L276.99 55.80Q273.31 54.52 265.74 54.16L265.83 54.25L265.82 54.24Q262.88 53.99 260.34 54.20L260.34 54.20L260.32 54.18Q258.82 54.24 256.41 54.52L256.42 54.53L256.42 54.53Q252.80 55.22 252.37 58.26L252.47 58.35L252.44 58.33Q252.34 59.21 252.41 60.70L252.45 60.74L252.37 60.65Q252.72 61.79 253.78 66.17L253.66 66.05L253.64 66.02Q255.29 72.20 258.54 74.68L258.50 74.64L258.68 74.82L258.61 74.75Q253.54 77.24 252.55 86.85L252.54 86.85L252.53 86.83Q252.10 90.86 252.10 92.56L252.04 92.50L252.15 92.61Q252.22 95.86 254.41 97.56L254.41 97.55L254.51 97.66Q254.58 97.65 255.07 98.00L255.05 97.98L255.22 98.15Q257.05 102.31 270.27 102.74ZM269.57 82.10L269.63 82.16L269.65 82.18Q271.27 81.96 272.90 82.81L273.01 82.92L273.02 82.93Q273.58 84.62 273.51 85.61L273.58 85.68L273.53 85.63Q273.61 86.21 273.61 86.78L273.72 86.88L273.60 86.77Q273.68 91.23 269.44 92.78L269.35 92.70L269.33 92.68Q267.93 93.32 266.44 93.11L266.51 93.18L266.36 93.03Q264.46 93.39 262.34 92.54L262.19 92.39L262.20 92.40Q261.74 91.23 261.88 89.40L261.83 89.34L261.95 89.47Q262.11 86.38 264.34 84.12L264.41 84.19L264.41 84.18Q266.57 81.85 269.54 82.07ZM270.13 64.63L270.15 64.65L270.02 64.52Q271.61 64.41 272.60 64.70L272.44 64.54L272.50 66.08L272.59 66.17Q272.62 68.82 270.93 70.69L270.78 70.55L270.92 70.69Q269.04 72.38 266.50 72.03L266.53 72.06L266.51 72.04Q264.66 72.03 263.89 71.61L263.89 71.61L263.90 71.62Q263.91 71.21 263.70 69.93L263.73 69.97L263.61 69.85Q263.17 67.28 265.43 65.73L265.44 65.74L265.48 65.78Q267.43 64.47 270.04 64.54Z"/><path d="M12 94 C190 32,191 62,322 136" stroke="#e5987f" fill="none"/><path d="M18 136 C162 14,189 67,336 71" stroke="#ecd387" fill="none"/><path d="M11 104 C192 18,175 117,334 2" stroke="#59c4e7" fill="none"/><path d="M19 79 C160 138,165 95,330 93" stroke="#5ddf9e" fill="none"/><path d="M19 8 C189 58,192 132,323 91" stroke="#6988e7" fill="none"/><path d="M10 7 C154 26,187 35,338 128" stroke="#84e5cd" fill="none"/><path d="M19 15 C178 117,171 77,327 130" stroke="#7954e7" fill="none"/><path d="M1 99 C180 14,185 34,325 75" stroke="#de8567" fill="none"/><path d="M21 130 C186 71,154 47,331 41" stroke="#55dc55" fill="none"/><path d="M16 112 C180 55,151 69,338 138" stroke="#74da52" fill="none"/><path d="M8 16 C165 72,178 18,337 51" stroke="#e697bf" fill="none"/><path d="M8 48 C178 114,162 68,323 34" stroke="#48de48" fill="none"/><path fill="#caec63" d="M125.69 92.11L125.71 92.13L125.67 92.08Q127.92 93.91 130.54 93.63L130.46 93.55L130.49 93.58Q135.94 93.95 137.15 87.72L137.09 87.67L137.16 87.74Q138.24 81.82 138.24 75.52L138.14 75.43L138.27 70.75L138.23 70.71Q138.19 68.34 137.55 66.00L137.68 66.13L137.57 66.02Q135.29 70.32 131.61 79.15L131.63 79.17L131.69 79.23Q127.88 87.93 125.61 92.03ZM135.09 61.56L135.05 61.52L135.09 61.56Q133.02 60.13 130.55 60.13L130.36 59.94L130.39 59.97Q127.63 59.69 125.58 61.38L125.67 61.48L125.64 61.44Q123.58 63.13 123.23 65.89L123.33 65.99L123.21 65.87Q122.68 68.52 122.60 71.27L122.61 71.28L122.43 71.10Q122.47 71.14 122.47 76.45L122.62 76.59L122.60 76.57Q122.52 80.88 123.37 87.59L123.43 87.66L123.39 87.61Q126.85 78.70 134.98 61.45ZM137.94 96.44L137.95 96.45L137.99 96.49Q134.74 98.19 130.43 98.19L130.36 98.12L127.43 98.23L127.38 98.18Q121.36 98.17 119.24 94.99L119.20 94.95L119.28 95.03Q117.66 90.87 117.52 85.42L117.61 85.51L117.63 85.53Q117.42 82.14 117.28 75.70L117.32 75.74L117.31 75.73Q117.38 73.61 117.09 67.96L117.05 67.91L116.98 67.84Q116.91 63.67 117.47 59.99L117.50 60.02L117.52 60.04Q118.27 54.42 126.33 54.00L126.43 54.11L126.48 54.15Q127.84 54.03 130.31 54.10L130.26 54.05L130.22 54.00Q140.82 54.35 142.80 60.78L142.78 60.77L142.83 60.82Q144.03 64.42 143.96 67.88L143.81 67.73L143.98 67.91Q143.79 77.12 143.65 79.38L143.57 79.30L143.67 79.40Q143.34 86.50 142.78 88.90L142.64 88.77L142.60 88.72Q141.43 94.56 137.90 96.40ZM147.13 96.02L147.15 96.03L147.09 95.97Q147.60 90.90 147.53 87.58L147.58 87.62L147.33 78.96L147.35 78.98Q147.19 73.38 146.20 63.13L146.24 63.16L146.24 63.17Q145.31 59.84 142.91 58.42L142.73 58.24L142.88 58.39Q139.99 53.67 130.38 53.38L130.36 53.37L130.33 53.34Q128.62 53.18 126.15 53.25L126.22 53.33L126.23 53.34Q117.75 53.42 116.84 59.21L116.85 59.23L116.96 59.34Q116.15 63.55 116.36 67.44L116.46 67.53L116.33 67.41Q116.98 75.55 116.91 81.77L116.97 81.83L116.93 81.79Q116.90 88.69 117.11 90.60L117.15 90.63L117.18 90.66Q117.73 96.24 120.56 97.72L120.58 97.75L120.53 97.69Q123.45 101.96 130.88 102.45L130.84 102.41L130.76 102.33Q137.55 102.90 138.75 102.83L138.64 102.72L138.65 102.73Q144.04 102.54 146.16 99.57L145.98 99.39L146.06 99.47Q147.07 98.28 147.21 96.09ZM131.09 92.77L131.08 92.76L131.24 92.92Q132.42 90.14 134.40 85.12L134.47 85.20L137.56 77.26L137.68 77.37Q137.61 80.41 136.90 86.63L136.85 86.58L136.84 86.57Q135.70 92.00 131.24 92.92ZM127.56 70.08L127.46 69.98L127.39 69.91Q128.30 66.65 129.57 65.59L129.68 65.69L129.58 65.60Q130.38 64.76 132.78 64.41L132.83 64.47L132.86 64.49Q129.58 71.19 126.12 79.81L126.29 79.98L126.24 79.93Q126.27 74.94 127.55 70.07Z"/><path d="M17 42 C157 76,164 67,325 76" stroke="#53d996" fill="none"/><path d="M14 113 C172 103,172 104,335 37" stroke="#92e278" fill="none"/><path d="M6 22 C185 130,168 83,333 39" stroke="#43d98e" fill="none"/><path fill="#f188bc" d="M193.70 98.59L193.67 98.56L193.58 98.47Q186.21 99.08 184.37 94.77L184.22 94.62L184.36 94.76Q185.78 93.00 188.68 89.68L188.60 89.59L188.54 89.54Q189.48 93.30 195.06 93.52L195.00 93.45L195.06 93.51Q201.39 93.69 204.43 91.22L204.43 91.21L204.38 91.17Q207.10 88.30 206.96 83.28L206.91 83.23L206.97 83.30Q206.55 73.75 197.64 74.18L197.66 74.20L197.77 74.31Q192.49 74.54 189.24 76.87L189.24 76.88L188.54 76.46L188.31 76.37L188.15 76.21Q188.93 70.49 188.72 65.40L188.72 65.39L188.67 65.35Q188.37 60.38 187.73 54.23L187.91 54.40L187.89 54.38Q194.58 56.06 201.65 55.85L201.64 55.83L201.72 55.91Q208.77 55.75 215.41 53.41L215.30 53.30L214.36 56.25L214.41 56.30Q213.80 57.67 213.44 59.22L213.39 59.17L213.34 59.12Q207.54 61.03 200.33 61.03L200.47 61.16L200.36 61.06Q197.67 61.05 194.91 60.77L194.85 60.71L195.02 60.88Q194.75 62.02 194.11 70.29L194.20 70.38L194.09 70.27Q195.70 69.48 199.52 69.20L199.60 69.28L199.50 69.18Q206.57 69.74 209.26 72.85L209.18 72.77L209.06 72.66Q211.77 75.65 212.26 82.79L212.27 82.80L212.10 82.63Q212.76 90.56 210.50 94.31L210.36 94.17L210.35 94.17Q206.61 97.70 200.45 98.13L200.59 98.26L200.44 98.11Q198.64 98.29 193.69 98.57ZM204.95 102.84L204.92 102.81L204.88 102.76Q211.24 102.90 214.77 100.85L214.73 100.81L214.83 100.91Q216.68 98.10 216.68 94.21L216.60 94.12L216.69 94.21Q216.67 88.47 214.91 80.83L214.85 80.78L214.80 80.73Q214.20 77.58 211.94 74.97L211.91 74.94L212.02 75.12L211.52 74.48L210.95 74.19L210.88 74.12Q210.27 72.74 209.07 71.47L209.24 71.63L209.18 71.64L209.10 71.56Q206.33 68.51 199.47 68.51L199.43 68.47L199.02 68.55L198.90 68.44Q199.11 67.45 199.47 65.40L199.45 65.38L199.43 65.36Q208.77 65.65 216.27 62.61L216.25 62.60L216.26 62.61Q216.98 59.93 218.74 54.70L218.74 54.69L214.91 56.52L214.91 56.52Q215.63 54.41 216.55 52.29L216.54 52.28L216.54 52.28Q209.41 54.98 201.78 55.12L201.69 55.04L201.80 55.14Q194.12 55.32 186.77 53.27L186.68 53.17L186.79 53.28Q188.10 61.53 188.10 69.73L188.09 69.71L188.05 69.67Q187.92 73.08 187.71 76.62L187.82 76.73L187.84 76.75Q188.24 77.01 189.31 77.58L189.41 77.68L189.32 77.59Q190.02 77.23 191.22 76.59L191.24 76.62L191.19 76.56Q191.07 77.93 190.65 80.75L190.71 80.82L190.67 80.78Q191.54 81.22 192.31 81.64L192.33 81.66L192.35 81.68Q197.37 78.29 200.83 78.29L200.96 78.42L200.82 78.27Q203.42 78.40 205.61 79.60L205.65 79.64L205.47 79.46Q206.16 81.42 206.23 83.19L206.30 83.26L206.34 83.29Q206.45 88.07 204.54 90.12L204.43 90.01L204.54 90.13Q202.01 92.40 197.83 92.82L197.84 92.83L197.73 92.72Q196.06 92.95 194.79 92.81L194.83 92.86L194.79 92.82Q193.21 92.58 191.79 91.94L191.80 91.95L191.77 91.56L191.57 91.79L191.39 91.61Q190.03 90.82 189.04 88.34L188.93 88.23L188.98 88.28Q186.48 90.87 183.37 94.83L183.45 94.91L183.44 94.90Q183.95 96.05 185.51 97.82L185.50 97.81L185.57 97.88Q187.54 101.26 192.77 102.18L192.84 102.25L192.74 102.15Q194.98 102.62 204.95 102.84Z"/><path fill="#8cb7e3" d="M55.34 84.81L55.23 84.70L55.28 84.74Q61.07 84.10 67.01 84.31L67.04 84.35L66.95 84.25Q66.96 79.60 66.96 75.14L66.86 75.05L66.91 75.09Q66.92 70.51 67.28 65.78L67.20 65.71L67.33 65.84Q65.04 68.99 55.36 84.82ZM73.67 98.40L73.78 98.51L73.60 98.33Q70.48 97.76 67.16 97.61L67.21 97.67L67.35 97.81Q66.92 93.35 66.71 88.75L66.64 88.68L66.71 88.75Q56.76 88.35 47.99 90.96L48.03 91.00L47.94 90.91Q48.21 90.05 48.56 88.21L48.50 88.15L48.53 88.17Q51.82 82.28 58.47 70.61L58.58 70.72L58.63 70.77Q64.03 61.75 70.39 54.54L70.26 54.41L70.39 54.54Q71.95 54.12 75.07 53.63L74.99 53.55L75.02 53.58Q71.60 65.65 71.60 78.73L71.47 78.59L71.40 78.53Q71.53 81.41 71.67 84.17L71.72 84.22L74.08 84.38L74.10 84.41Q75.26 84.50 76.39 84.71L76.23 84.56L76.39 84.72Q76.61 86.57 77.11 90.17L77.05 90.11L77.09 90.16Q74.82 89.66 72.07 89.30L72.00 89.23L71.97 89.20Q72.38 92.94 73.65 98.38ZM76.84 83.97L76.76 83.88L76.87 84.00Q76.48 83.81 76.12 83.81L76.04 83.73L75.42 83.82L75.37 83.77Q75.23 81.08 75.23 78.47L75.26 78.49L75.10 78.34Q75.21 66.57 79.03 55.40L78.90 55.28L78.94 55.31Q77.58 55.86 74.89 56.56L74.96 56.64L74.90 56.57Q75.23 55.06 76.07 52.45L76.15 52.52L76.21 52.58Q73.76 53.25 69.95 53.67L69.95 53.67L69.88 53.61Q62.66 61.73 52.98 79.12L53.06 79.21L56.92 72.39L56.85 72.32Q56.05 74.20 55.55 75.26L55.53 75.24L47.27 92.01L47.30 92.04Q48.49 91.75 50.61 91.04L50.60 91.02L50.32 91.45L50.26 91.39Q50.22 92.84 49.65 95.17L49.58 95.10L49.68 95.20Q57.26 92.67 66.24 93.02L66.26 93.04L66.17 92.95Q66.35 94.82 66.70 98.50L66.68 98.48L66.57 98.37Q68.61 98.43 70.59 98.65L70.54 98.60L70.53 98.59Q70.94 99.99 71.44 102.53L71.34 102.43L71.26 102.36Q74.89 102.87 80.48 104.57L80.51 104.61L80.41 104.51Q78.55 100.52 76.85 94.44L76.88 94.47L79.65 95.40L79.72 95.47Q80.81 95.72 82.09 96.35L82.27 96.53L82.12 96.39Q80.75 91.83 80.46 88.72L80.45 88.71L80.43 88.68Q79.40 88.44 77.28 88.01L77.14 87.87L77.19 87.92Q76.77 85.52 76.77 83.89ZM62.00 83.69L61.99 83.68L61.94 83.63Q63.42 81.30 66.32 76.56L66.31 76.55L66.30 76.54Q66.22 78.22 66.15 79.99L66.12 79.96L66.13 79.97Q66.19 81.87 66.26 83.64L66.19 83.57L66.29 83.66Q65.28 83.65 64.22 83.65L64.05 83.48L64.19 83.62Q63.02 83.57 61.88 83.57Z"/><path d="M7 5 C168 70,182 101,323 57" stroke="#e27878" fill="none"/><path d="M20 74 C160 42,167 5,325 120" stroke="#e86262" fill="none"/><path d="M15 38 C167 66,154 130,331 26" stroke="#59e7e7" fill="none"/><path d="M18 116 C153 58,151 20,330 126" stroke="#d859d8" fill="none"/><path d="M11 5 C160 82,151 95,324 82" stroke="#de3fb6" fill="none"/><path d="M7 14 C186 91,186 24,336 80" stroke="#73e2aa" fill="none"/><path d="M15 71 C184 5,191 100,334 48" stroke="#a5dd6e" fill="none"/><path d="M3 116 C179 82,173 25,327 50" stroke="#83e1c9" fill="none"/><path d="M19 63 C185 3,161 101,330 121" stroke="#e26969" fill="none"/><path d="M12 89 C157 30,189 26,335 55" stroke="#64ebca" fill="none"/><path d="M16 2 C154 72,189 44,326 131" stroke="#de8e3f" fill="none"/><path d="M6 134 C171 89,177 116,329 136" stroke="#6de8c9" fill="none"/><path d="M9 136 C166 38,186 24,338 60" stroke="#3662e7" fill="none"/><path d="M5 7 C182 119,164 89,323 38" stroke="#63d863" fill="none"/></svg>