<svg xmlns="http://www.w3.org/2000/svg" width="342" height="140" viewBox="0,0,342,140"><path d="M17 67 C190 116,158 9,323 51" stroke="#6ca8e4" fill="none"/><path fill="#ad6ced" d="M160.43 96.32L160.57 96.46L160.45 96.34Q153.42 96.69 151.73 92.71L151.77 92.75L151.78 92.77Q153.03 91.08 155.71 88.01L155.69 88.00L155.76 88.06Q156.60 91.52 161.76 91.71L161.87 91.82L161.70 91.66Q167.56 91.83 170.36 89.55L170.38 89.57L170.32 89.50Q172.87 86.90 172.74 82.27L172.77 82.29L172.68 82.21Q172.38 73.49 164.16 73.88L164.24 73.97L164.22 73.94Q159.46 74.27 156.45 76.42L156.38 76.35L155.78 76.01L155.47 75.83L155.42 75.78Q156.07 70.43 155.87 65.73L155.89 65.75L155.92 65.78Q155.57 61.12 154.98 55.44L155.10 55.56L155.06 55.52Q161.26 57.08 167.78 56.89L167.95 57.05L167.94 57.04Q174.37 56.81 180.50 54.66L180.49 54.64L179.60 57.35L179.57 57.32Q178.91 58.48 178.58 59.92L178.65 59.99L178.78 60.11Q173.38 61.82 166.72 61.82L166.75 61.85L166.75 61.86Q164.11 61.69 161.56 61.43L161.59 61.46L161.62 61.49Q161.51 62.69 160.93 70.32L160.84 70.24L160.87 70.26Q162.32 69.50 165.84 69.23L165.85 69.25L165.85 69.24Q172.38 69.77 174.86 72.64L174.76 72.55L174.70 72.48Q177.11 75.15 177.57 81.75L177.63 81.81L177.58 81.76Q177.96 88.86 175.87 92.32L176.04 92.48L175.98 92.43Q172.44 95.61 166.76 96.00L166.75 95.99L166.81 96.05Q164.98 96.05 160.41 96.31ZM170.86 100.29L170.76 100.19L170.76 100.20Q176.81 100.50 180.08 98.61L179.93 98.46L180.05 98.58Q181.76 95.99 181.76 92.40L181.70 92.34L181.60 92.24Q181.69 87.04 180.06 79.99L180.08 80.02L179.96 79.90Q179.49 77.07 177.40 74.66L177.28 74.54L177.43 74.75L177.06 74.25L176.47 73.92L176.42 73.88Q175.94 72.68 174.83 71.50L174.73 71.40L174.68 71.41L174.84 71.57Q172.07 68.55 165.74 68.55L165.76 68.56L165.28 68.54L165.30 68.56Q165.57 67.72 165.89 65.83L165.90 65.83L165.89 65.82Q174.33 65.91 181.25 63.11L181.24 63.10L181.38 63.24Q181.95 60.67 183.58 55.84L183.63 55.89L180.07 57.56L180.11 57.59Q180.74 55.61 181.59 53.65L181.56 53.63L181.53 53.60Q174.92 56.06 167.87 56.19L168.00 56.32L167.89 56.21Q160.82 56.38 154.03 54.49L154.14 54.59L154.08 54.54Q155.17 62.02 155.17 69.59L155.25 69.67L155.31 69.73Q155.17 72.85 154.97 76.12L154.97 76.11L155.07 76.22Q155.52 76.54 156.50 77.06L156.54 77.10L156.42 76.98Q156.99 76.57 158.10 75.98L158.13 76.01L158.20 76.08Q158.04 77.29 157.65 79.90L157.63 79.89L157.82 80.08Q158.47 80.33 159.19 80.72L159.12 80.66L159.12 80.66Q163.94 77.71 167.14 77.71L167.19 77.76L167.22 77.79Q169.32 77.60 171.34 78.71L171.51 78.89L171.45 78.82Q172.04 80.59 172.11 82.22L172.01 82.13L172.08 82.20Q172.13 86.55 170.36 88.44L170.39 88.47L170.44 88.52Q168.20 90.71 164.35 91.11L164.28 91.04L164.30 91.06Q162.54 91.06 161.37 90.93L161.38 90.94L161.50 91.07Q160.07 90.87 158.77 90.29L158.67 90.19L158.64 89.83L158.43 90.02L158.44 90.03Q157.09 89.20 156.18 86.92L156.14 86.88L156.11 86.85Q153.95 89.39 151.08 93.04L151.10 93.06L151.08 93.04Q151.45 94.00 152.89 95.63L152.88 95.63L153.02 95.77Q154.74 98.80 159.57 99.64L159.64 99.71L159.72 99.79Q161.66 100.10 170.87 100.30Z"/><path d="M11 47 C186 22,153 83,329 127" stroke="#8664eb" fill="none"/><path d="M17 83 C159 135,179 122,322 45" stroke="#b279eb" fill="none"/><path d="M14 26 C190 52,192 104,330 63" stroke="#db5677" fill="none"/><path d="M12 93 C168 15,165 93,331 66" stroke="#61dfdf" fill="none"/><path d="M15 68 C170 96,168 64,327 112" stroke="#e74ac0" fill="none"/><path d="M15 31 C187 74,179 96,336 85" stroke="#dd9b59" fill="none"/><path d="M14 89 C175 2,173 64,326 104" stroke="#e6bc3b" fill="none"/><path d="M7 50 C151 94,172 30,339 118" stroke="#e0e056" fill="none"/><path fill="#8fe48f" d="M272.67 96.28L272.73 96.34L272.67 96.27Q270.29 96.44 267.61 95.72L267.58 95.68L267.66 95.77Q265.54 94.17 265.28 91.37L265.23 91.31L265.26 91.34Q265.25 91.07 265.57 86.57L265.60 86.60L265.59 86.58Q267.23 86.13 270.69 85.48L270.84 85.63L270.48 86.90L270.45 86.87Q269.95 89.84 272.37 90.81L272.37 90.82L272.44 90.89Q273.71 91.37 277.30 91.37L277.24 91.31L277.41 91.48Q280.00 91.07 280.33 90.94L280.46 91.08L280.42 91.04Q282.02 90.81 283.26 89.97L283.24 89.94L283.13 89.83Q285.57 88.22 285.24 84.63L285.38 84.77L285.34 84.73Q284.94 80.48 281.97 77.81L281.92 77.76L282.08 77.91Q279.12 75.25 274.88 75.25L274.77 75.14L274.79 74.77L274.87 74.85Q275.53 74.80 277.04 74.67L276.98 74.61L277.03 74.66Q280.25 74.42 282.60 72.30L282.49 72.19L282.54 72.25Q284.97 70.20 285.23 67.01L285.09 66.86L285.25 67.02Q285.30 66.35 285.30 65.77L285.32 65.79L285.35 65.82Q285.24 63.10 282.89 61.53L282.86 61.50L282.86 61.50Q280.84 60.19 278.09 60.39L278.05 60.34L278.04 60.33Q275.91 60.16 273.82 60.88L273.72 60.78L273.87 60.93Q271.28 61.73 270.76 63.69L270.79 63.72L270.74 63.67Q270.51 65.07 270.64 66.37L270.55 66.28L270.59 66.33Q268.85 65.96 265.33 64.72L265.40 64.79L265.38 64.78Q264.93 61.85 265.00 60.41L265.01 60.42L265.08 60.49Q265.16 57.77 266.99 56.59L267.04 56.64L267.11 56.71Q269.51 55.66 272.25 55.66L272.14 55.54L272.27 55.67Q277.61 55.53 283.03 55.99L282.92 55.88L283.04 56.00Q291.73 56.73 291.21 63.19L291.21 63.19L291.13 63.11Q291.02 65.68 290.17 68.35L290.09 68.27L290.10 68.28Q288.55 73.58 284.50 75.15L284.58 75.23L284.51 75.16Q289.15 76.21 290.19 81.95L290.15 81.91L290.19 81.95Q290.43 83.75 290.56 87.21L290.72 87.38L290.68 87.33Q290.88 94.90 282.98 95.69L283.01 95.72L282.93 95.64Q281.72 95.79 272.65 96.25ZM281.73 100.25L281.74 100.25L281.68 100.19Q282.75 100.29 287.65 100.42L287.49 100.26L287.55 100.32Q290.59 100.49 293.40 99.38L293.48 99.47L293.29 99.28Q295.40 97.73 295.07 94.73L295.09 94.75L295.14 94.80Q294.86 92.43 294.34 89.42L294.40 89.49L294.33 89.41Q293.16 81.78 289.83 78.97L289.75 78.90L289.53 78.35L289.33 78.08L289.37 78.13Q292.39 75.66 293.69 68.16L293.74 68.20L293.67 68.13Q293.78 67.40 293.98 65.76L294.06 65.84L293.93 65.71Q294.01 64.36 293.88 63.19L294.06 63.37L293.94 63.24Q293.75 60.44 291.53 59.27L291.56 59.30L291.32 59.19L291.33 59.20Q290.89 57.58 288.93 56.67L288.79 56.53L288.82 56.56Q286.33 55.51 277.52 54.99L277.50 54.96L277.49 54.96Q274.67 54.87 271.93 54.87L271.78 54.73L271.85 54.80Q269.13 54.82 266.52 55.93L266.45 55.86L266.57 55.98Q264.44 57.24 264.44 60.24L264.36 60.17L264.40 60.20Q264.46 59.55 264.92 65.29L264.90 65.27L264.90 65.27Q265.37 65.35 268.17 66.39L268.27 66.49L268.26 66.48Q268.23 67.36 268.16 68.21L268.07 68.12L268.04 68.09Q268.15 69.05 268.22 69.96L268.23 69.98L268.18 69.92Q271.17 70.50 274.63 70.69L274.77 70.83L274.75 70.82Q274.58 67.32 276.48 65.88L276.41 65.82L276.41 65.82Q277.96 64.82 281.42 64.43L281.39 64.40L281.46 64.48Q283.38 64.43 284.36 64.76L284.31 64.72L284.32 64.72Q284.34 64.87 284.40 65.06L284.35 65.01L284.43 65.42L284.71 66.48L284.54 66.31Q284.69 66.79 284.63 67.05L284.55 66.98L284.53 66.95Q284.53 70.02 281.92 72.04L281.90 72.02L281.89 72.02Q280.27 73.53 276.81 73.85L276.82 73.86L276.89 73.93Q275.58 74.13 274.08 74.13L274.04 74.08L274.08 74.13Q274.13 74.70 274.39 75.88L274.37 75.85L274.32 75.81Q277.32 75.80 279.80 77.04L279.81 77.05L279.62 77.06L277.01 77.44L277.05 77.48Q277.12 78.08 277.32 79.13L277.32 79.13L277.19 79.00Q280.84 78.87 283.78 81.15L283.93 81.30L283.94 81.31Q284.28 81.91 284.80 84.72L284.72 84.63L284.73 84.65Q285.10 89.72 280.08 90.43L280.17 90.52L280.05 90.40Q276.43 90.83 275.45 90.77L275.48 90.80L275.49 90.81Q274.71 90.61 273.80 90.48L273.75 90.44L273.77 89.68L273.94 88.87L274.08 88.28L274.17 87.79L274.10 87.72Q272.59 87.97 271.22 88.29L271.04 88.12L271.12 88.20Q271.14 87.89 271.14 87.56L270.98 87.40L271.01 87.44Q271.10 87.14 271.10 86.75L271.21 86.85L271.04 86.68Q271.28 86.14 271.54 84.90L271.47 84.83L271.55 84.91Q268.18 85.13 264.98 85.71L265.09 85.82L265.03 85.76Q265.01 86.59 264.81 88.51L264.94 88.64L264.79 88.49Q264.65 90.47 264.65 91.52L264.73 91.59L264.61 91.48Q264.84 95.10 267.19 96.41L267.11 96.33L267.11 96.33Q269.74 100.33 277.84 100.01L277.83 100.00L277.79 99.95Q278.96 99.83 281.57 100.09Z"/><path d="M1 87 C186 57,188 2,341 60" stroke="#4b4bdc" fill="none"/><path d="M16 84 C156 102,176 50,322 130" stroke="#a3e462" fill="none"/><path d="M5 94 C158 36,167 71,340 110" stroke="#e881e8" fill="none"/><path d="M6 78 C161 138,187 46,338 95" stroke="#9edf5c" fill="none"/><path d="M2 65 C182 73,168 127,340 125" stroke="#96e37c" fill="none"/><path d="M7 11 C165 135,176 115,329 26" stroke="#d2d246" fill="none"/><path d="M11 110 C164 3,157 39,323 93" stroke="#4ed993" fill="none"/><path d="M9 88 C167 21,164 3,330 77" stroke="#f09b7f" fill="none"/><path d="M8 127 C154 36,187 102,337 30" stroke="#93d651" fill="none"/><path d="M18 119 C151 6,191 26,327 23" stroke="#83f083" fill="none"/><path d="M3 120 C180 84,162 14,341 68" stroke="#7171e4" fill="none"/><path d="M13 96 C173 50,155 68,338 129" stroke="#addf7b" fill="none"/><path d="M11 138 C165 61,175 38,330 58" stroke="#64e164" fill="none"/><path d="M19 11 C192 16,175 99,337 109" stroke="#85ee85" fill="none"/><path d="M6 117 C170 12,176 138,331 127" stroke="#3be691" fill="none"/><path d="M9 36 C186 48,182 40,334 85" stroke="#76eeee" fill="none"/><path fill="#b278ec" d="M216.10 96.37L216.02 96.29L216.02 96.30Q213.53 96.35 210.86 95.63L210.98 95.76L210.88 95.66Q208.90 94.20 208.64 91.39L208.69 91.44L208.54 91.29Q208.46 90.95 208.79 86.45L208.87 86.53L208.87 86.53Q210.64 86.21 214.10 85.56L214.15 85.61L213.65 86.74L213.84 86.93Q213.21 89.76 215.62 90.74L215.80 90.92L215.64 90.75Q217.15 91.48 220.74 91.48L220.57 91.31L220.67 91.42Q223.47 91.21 223.80 91.08L223.79 91.08L223.69 90.98Q225.33 90.78 226.57 89.93L226.55 89.91L226.44 89.81Q228.99 88.31 228.66 84.72L228.63 84.69L228.63 84.69Q228.24 80.45 225.27 77.78L225.27 77.77L225.42 77.92Q222.44 75.24 218.20 75.24L218.19 75.23L218.19 74.84L218.04 74.69Q218.85 74.78 220.35 74.65L220.25 74.54L220.36 74.66Q223.46 74.29 225.80 72.17L225.91 72.28L225.82 72.18Q228.28 70.18 228.54 66.98L228.56 67.00L228.52 66.96Q228.64 66.37 228.64 65.78L228.60 65.73L228.54 65.67Q228.60 63.12 226.25 61.56L226.33 61.63L226.31 61.62Q224.11 60.13 221.36 60.33L221.47 60.43L221.49 60.45Q219.19 60.11 217.10 60.82L217.22 60.94L217.20 60.92Q214.63 61.75 214.11 63.70L214.09 63.68L214.11 63.71Q213.84 65.07 213.97 66.38L213.93 66.33L213.88 66.28Q212.17 65.95 208.65 64.71L208.68 64.74L208.73 64.79Q208.36 61.94 208.42 60.50L208.23 60.31L208.43 60.50Q208.58 57.86 210.41 56.68L210.28 56.55L210.26 56.53Q212.76 55.58 215.51 55.58L215.47 55.54L215.46 55.53Q221.01 55.60 226.43 56.06L226.34 55.97L226.41 56.04Q235.02 56.69 234.50 63.15L234.45 63.10L234.42 63.07Q234.41 65.74 233.56 68.41L233.54 68.39L233.50 68.35Q231.92 73.62 227.87 75.18L227.87 75.19L227.82 75.13Q232.32 76.04 233.36 81.78L233.39 81.81L233.48 81.90Q233.76 83.75 233.89 87.21L234.04 87.36L233.91 87.23Q234.15 94.84 226.25 95.63L226.33 95.70L226.36 95.74Q225.02 95.76 215.95 96.22ZM225.00 100.18L225.01 100.19L225.04 100.22Q225.94 100.14 230.83 100.27L230.90 100.34L230.94 100.38Q233.92 100.48 236.72 99.37L236.64 99.29L236.80 99.45Q238.74 97.73 238.41 94.73L238.40 94.72L238.43 94.75Q238.22 92.45 237.70 89.45L237.64 89.39L237.76 89.52Q236.46 81.75 233.13 78.95L233.22 79.03L232.77 78.26L232.64 78.06L232.68 78.10Q235.83 75.77 237.13 68.26L237.11 68.24L237.08 68.21Q237.04 67.32 237.23 65.69L237.36 65.82L237.35 65.80Q237.53 64.55 237.40 63.38L237.29 63.26L237.24 63.22Q237.01 60.38 234.79 59.20L234.74 59.15L234.69 59.22L234.65 59.19Q234.12 57.49 232.17 56.57L232.23 56.64L232.20 56.61Q229.67 55.51 220.86 54.99L220.84 54.97L220.85 54.98Q217.96 54.84 215.22 54.84L215.21 54.82L215.13 54.74Q212.52 54.87 209.91 55.98L209.82 55.90L209.82 55.89Q207.81 57.28 207.81 60.28L207.83 60.30L207.65 60.12Q207.75 59.50 208.20 65.24L208.21 65.25L208.27 65.31Q208.70 65.35 211.51 66.40L211.59 66.48L211.43 66.32Q211.57 67.37 211.50 68.22L211.38 68.09L211.52 68.23Q211.54 69.10 211.61 70.02L211.51 69.92L211.54 69.95Q214.53 70.52 217.99 70.72L217.99 70.72L218.09 70.82Q217.98 67.39 219.88 65.95L219.80 65.88L219.79 65.86Q221.18 64.71 224.64 64.31L224.66 64.34L224.80 64.48Q226.58 64.30 227.56 64.62L227.69 64.76L227.71 64.77Q227.67 64.87 227.74 65.07L227.72 65.05L227.70 65.35L227.96 66.40L228.01 66.45Q228.00 66.76 227.93 67.02L227.98 67.07L227.86 66.95Q227.69 69.85 225.08 71.87L225.12 71.91L225.23 72.02Q223.61 73.54 220.15 73.86L220.14 73.85L220.18 73.89Q218.89 74.10 217.39 74.10L217.48 74.19L217.35 74.06Q217.39 74.62 217.65 75.80L217.82 75.97L217.63 75.78Q220.75 75.90 223.23 77.14L223.12 77.03L223.06 77.16L220.42 77.53L220.25 77.36Q220.46 78.09 220.66 79.13L220.53 79.00L220.60 79.07Q224.26 78.95 227.19 81.23L227.22 81.26L227.22 81.26Q227.60 81.89 228.12 84.70L228.05 84.63L228.19 84.77Q228.51 89.80 223.49 90.51L223.35 90.37L223.36 90.38Q219.84 90.91 218.86 90.84L218.74 90.72L218.77 90.75Q218.13 90.70 217.21 90.57L217.05 90.41L217.18 89.75L217.28 88.88L217.46 88.34L217.37 87.66L217.37 87.65Q215.85 87.90 214.48 88.22L214.49 88.24L214.37 88.12Q214.39 87.81 214.39 87.49L214.49 87.58L214.43 87.52Q214.49 87.19 214.49 86.80L214.40 86.71L214.51 86.82Q214.53 86.06 214.79 84.82L214.73 84.76L214.71 84.74Q211.62 85.23 208.42 85.82L208.43 85.83L208.45 85.85Q208.41 86.66 208.22 88.59L208.25 88.62L208.16 88.53Q208.00 90.49 208.00 91.54L207.95 91.48L207.96 91.50Q208.11 95.03 210.45 96.34L210.53 96.42L210.56 96.45Q213.12 100.37 221.21 100.05L221.14 99.97L221.08 99.92Q222.44 99.97 225.05 100.23Z"/><path d="M11 134 C192 111,162 23,334 70" stroke="#61e5e5" fill="none"/><path d="M6 20 C163 89,150 107,322 86" stroke="#76b2ee" fill="none"/><path d="M12 92 C180 92,163 23,329 121" stroke="#42e593" fill="none"/><path fill="#9bdd59" d="M45.02 83.71L45.03 83.72L45.00 83.69Q50.21 82.96 55.69 83.15L55.69 83.15L55.72 83.19Q55.63 78.79 55.63 74.68L55.59 74.64L55.56 74.61Q55.57 70.37 55.89 66.00L55.94 66.04L55.89 65.99Q53.84 68.97 44.90 83.59ZM61.89 96.21L62.02 96.33L61.93 96.24Q59.03 95.70 55.97 95.57L56.00 95.60L55.98 95.58Q55.74 91.62 55.55 87.38L55.56 87.39L55.53 87.37Q46.23 86.88 38.14 89.29L38.14 89.29L38.28 89.43Q38.35 88.46 38.68 86.77L38.77 86.86L38.69 86.77Q41.91 81.51 48.04 70.74L48.00 70.70L48.01 70.70Q52.92 62.30 58.79 55.65L58.80 55.65L58.83 55.69Q60.26 55.29 63.13 54.83L63.25 54.95L63.24 54.94Q59.80 65.79 59.80 77.87L59.93 78.00L59.97 78.03Q59.93 80.54 60.06 83.08L60.02 83.04L62.29 83.29L62.19 83.19Q63.37 83.39 64.41 83.59L64.33 83.50L64.34 83.51Q64.44 85.11 64.89 88.44L64.98 88.53L64.99 88.54Q62.96 88.14 60.42 87.81L60.28 87.67L60.34 87.73Q60.68 91.14 61.85 96.17ZM64.74 82.81L64.87 82.93L64.82 82.89Q64.45 82.71 64.13 82.71L64.13 82.72L63.49 82.73L63.48 82.72Q63.24 80.13 63.24 77.71L63.21 77.69L63.33 77.81Q63.24 66.76 66.77 56.44L66.81 56.49L66.72 56.39Q65.47 56.91 62.99 57.56L63.04 57.61L62.99 57.56Q63.45 56.33 64.23 53.91L64.25 53.93L64.15 53.83Q62.07 54.62 58.55 55.01L58.37 54.83L58.50 54.96Q51.78 62.40 42.84 78.46L42.86 78.48L46.30 72.06L46.43 72.19Q45.74 73.99 45.28 74.97L45.26 74.94L37.66 90.44L37.55 90.33Q38.71 90.12 40.67 89.47L40.56 89.36L40.29 89.75L40.34 89.79Q40.19 91.02 39.67 93.17L39.72 93.23L39.66 93.17Q46.64 90.81 54.92 91.13L54.96 91.17L55.05 91.25Q55.11 92.88 55.44 96.28L55.42 96.26L55.34 96.18Q57.19 96.20 59.02 96.40L59.13 96.51L59.12 96.50Q59.34 97.63 59.79 99.98L59.82 100.00L59.84 100.02Q62.93 100.25 68.09 101.81L68.15 101.87L68.14 101.87Q66.39 98.16 64.83 92.55L64.89 92.61L67.37 93.39L67.36 93.39Q68.58 93.82 69.75 94.41L69.72 94.37L69.74 94.40Q68.40 90.12 68.14 87.25L68.08 87.19L68.20 87.31Q67.19 87.01 65.23 86.62L65.13 86.52L65.11 86.50Q64.74 84.31 64.74 82.81ZM51.06 82.57L51.16 82.67L51.00 82.51Q52.45 80.43 55.12 76.06L55.06 75.99L55.09 76.03Q55.07 77.64 55.01 79.27L54.95 79.22L55.06 79.33Q55.07 81.03 55.14 82.66L55.00 82.53L55.01 82.54Q54.11 82.55 53.13 82.55L53.10 82.52L53.16 82.58Q52.09 82.55 51.04 82.55Z"/><path d="M7 123 C190 65,157 47,328 115" stroke="#ed7cd1" fill="none"/><path d="M5 18 C170 54,189 94,334 88" stroke="#caeb64" fill="none"/><path d="M17 136 C153 25,154 89,331 17" stroke="#8aefbc" fill="none"/><path d="M3 103 C182 82,167 7,329 71" stroke="#9bd85e" fill="none"/><path d="M12 56 C156 135,151 131,324 25" stroke="#e5a893" fill="none"/><path fill="#7f7fe0" d="M109.41 67.29L109.41 67.28L109.41 67.28Q103.89 67.25 100.76 65.42L100.79 65.46L100.82 65.48Q105.13 63.13 113.48 55.89L113.40 55.81L113.42 55.82Q114.65 55.49 116.87 54.45L116.81 54.39L116.91 54.49Q114.66 64.70 114.46 75.60L114.50 75.64L114.49 75.63Q114.30 86.53 116.12 96.97L116.08 96.92L115.99 96.84Q113.08 95.56 109.42 95.36L109.55 95.49L109.58 95.51Q109.34 88.36 109.34 81.37L109.28 81.32L109.33 81.36Q109.38 74.36 109.44 67.31ZM108.65 71.02L108.66 96.04L108.75 96.12Q110.76 96.05 112.39 96.37L112.53 96.51L112.38 96.36Q112.67 97.69 112.99 100.04L112.88 99.92L112.94 99.98Q117.79 100.85 121.96 104.70L121.98 104.71L121.92 104.66Q117.71 92.49 117.65 79.70L117.65 79.70L117.71 79.76Q117.51 66.90 120.64 54.50L120.66 54.52L120.60 54.46Q119.76 55.25 117.02 57.14L116.99 57.11L117.02 57.14Q117.42 55.91 117.94 53.30L117.89 53.25L117.85 53.21Q115.58 54.52 113.10 55.18L113.16 55.25L113.19 55.27Q106.61 61.29 99.23 65.20L99.25 65.22L99.31 65.27Q101.76 67.20 105.80 67.79L105.66 67.65L105.78 67.77Q104.63 68.64 102.41 70.47L102.40 70.46L102.32 70.37Q104.98 71.14 108.77 71.14L108.67 71.05Z"/><path d="M5 113 C152 102,164 15,337 74" stroke="#4fddb9" fill="none"/><path d="M7 21 C171 4,180 61,328 132" stroke="#83e69c" fill="none"/><path d="M17 126 C183 64,184 61,324 31" stroke="#6ee78c" fill="none"/><path d="M7 85 C189 1,155 102,339 41" stroke="#efa38a" fill="none"/><path d="M14 91 C157 116,152 126,331 96" stroke="#6464dd" fill="none"/><path d="M10 80 C169 31,153 23,340 91" stroke="#56e09b" fill="none"/><path d="M11 81 C170 82,152 91,325 119" stroke="#6d6ddd" fill="none"/></svg>