<svg xmlns="http://www.w3.org/2000/svg" width="342" height="140" viewBox="0,0,342,140"><path d="M2 43 C184 7,187 102,328 9" stroke="#d0ec7d" fill="none"/><path fill="#ebeb84" d="M165.07 76.99L164.92 76.84L164.93 76.84Q161.86 76.65 159.78 79.05L159.91 79.18L159.90 79.17Q157.84 81.58 157.52 84.78L157.49 84.74L157.44 84.70Q157.12 88.21 158.94 89.84L158.90 89.79L158.96 89.86Q160.64 91.35 164.16 91.15L164.16 91.15L164.15 91.15Q167.64 90.87 169.50 89.72L169.49 89.72L169.62 89.84Q171.45 87.91 171.45 85.29L171.54 85.37L171.48 85.31Q171.49 84.68 171.36 84.04L171.46 84.14L171.35 84.03Q171.52 81.27 169.67 79.00L169.68 79.01L169.57 78.90Q167.89 76.81 165.08 77.00ZM164.31 95.59L164.38 95.66L164.22 95.50Q156.95 95.58 154.59 94.30L154.57 94.28L154.60 94.32Q152.84 93.01 152.52 90.13L152.53 90.14L152.44 90.05Q152.51 89.03 152.57 87.82L152.49 87.73L152.60 87.84Q152.70 86.09 152.70 85.33L152.78 85.40L152.81 85.43Q153.39 80.45 153.64 79.30L153.77 79.42L153.67 79.33Q154.50 76.13 155.91 73.77L155.98 73.84L155.83 73.69Q160.40 66.44 170.37 55.77L170.33 55.73L170.33 55.73Q174.77 55.18 178.47 53.84L178.48 53.85L178.44 53.81Q166.96 66.35 161.59 73.44L161.59 73.44L161.68 73.54Q163.22 72.58 165.40 72.58L165.48 72.67L165.42 72.61Q171.12 72.75 173.68 76.01L173.53 75.87L173.60 75.94Q175.92 78.76 176.50 84.71L176.47 84.68L176.52 84.73Q176.46 85.75 176.46 86.78L176.63 86.95L176.58 86.90Q176.47 92.03 172.76 93.81L172.91 93.97L172.92 93.98Q170.86 94.98 164.34 95.62ZM168.19 99.66L168.14 99.61L168.11 99.59Q170.23 99.47 173.55 99.59L173.53 99.57L173.68 99.72Q176.40 99.82 179.02 98.61L179.03 98.62L179.01 98.59Q180.74 97.13 180.74 94.13L180.86 94.24L180.75 94.14Q180.83 93.38 180.54 91.72L180.46 91.64L180.57 91.75Q180.19 90.00 180.19 89.23L180.22 89.26L180.29 89.33Q178.78 81.37 176.10 78.17L176.10 78.18L176.09 78.17Q175.89 77.91 175.64 77.52L175.70 77.59L175.13 77.15L175.13 77.21L175.00 77.07Q174.60 76.42 173.58 74.82L173.55 74.79L173.47 74.72Q171.93 73.11 168.61 72.35L168.59 72.33L168.70 72.43Q170.61 69.62 175.59 63.42L175.58 63.41L182.69 54.54L182.82 54.67Q180.18 56.12 176.16 57.40L176.14 57.39L176.14 57.39Q177.64 55.69 180.64 52.37L180.65 52.38L180.56 52.28Q176.59 54.13 170.08 55.09L170.14 55.16L170.08 55.09Q160.49 64.99 155.50 73.30L155.60 73.40L155.56 73.36Q152.95 77.52 151.99 88.00L151.98 87.99L151.98 87.99Q151.79 88.89 151.92 90.48L152.06 90.62L151.97 90.53Q152.12 93.49 153.97 95.03L153.98 95.03L154.01 95.07Q154.56 95.23 154.49 95.29L154.64 95.44L154.50 95.30Q155.15 96.84 156.49 97.55L156.53 97.59L156.64 97.70Q159.01 98.79 162.27 99.10L162.14 98.98L162.22 99.06Q162.28 99.12 168.16 99.63ZM167.64 80.64L167.83 80.83L167.68 80.69Q168.74 80.59 170.34 81.42L170.26 81.34L170.27 81.36Q170.77 82.88 170.77 83.96L170.94 84.14L170.80 84.00Q171.18 87.18 169.58 88.85L169.65 88.92L169.51 88.77Q167.87 90.14 164.36 90.65L164.20 90.49L164.20 90.50Q161.79 90.52 160.90 90.07L161.01 90.18L160.89 90.06Q160.61 89.33 160.61 88.82L160.68 88.90L160.69 88.91Q160.24 83.34 165.16 81.17L165.13 81.14L165.22 81.23Q166.45 80.60 167.73 80.73Z"/><path d="M19 77 C151 11,153 52,335 30" stroke="#e7a38c" fill="none"/><path fill="#d0e886" d="M234.99 91.58L234.98 91.58L234.98 91.57Q235.48 93.23 236.38 96.61L236.44 96.67L236.44 96.68Q229.41 94.50 221.68 94.95L221.58 94.86L221.63 94.90Q213.91 95.29 207.20 98.62L207.33 98.75L207.25 98.67Q207.71 97.60 207.78 97.73L207.77 97.72L207.69 97.64Q213.93 90.97 220.51 83.56L220.64 83.69L220.53 83.58Q227.89 75.15 229.87 67.29L230.01 67.43L229.96 67.38Q230.63 64.35 228.49 62.37L228.48 62.36L228.67 62.55Q226.53 60.57 223.53 60.83L223.43 60.73L223.38 60.67Q222.84 60.64 222.26 60.64L222.27 60.65L222.20 60.58Q219.65 60.59 217.54 62.12L217.70 62.28L217.70 62.28Q215.46 64.52 215.85 68.99L215.92 69.06L215.80 68.94Q212.91 68.49 210.87 67.72L210.84 67.69L210.71 67.55Q210.46 65.27 210.34 62.84L210.44 62.94L210.34 62.84Q210.25 60.13 211.27 58.22L211.26 58.20L211.24 58.18Q214.34 55.98 219.96 55.98L219.89 55.90L222.81 55.88L222.86 55.94Q226.69 56.00 228.29 56.19L228.24 56.14L228.21 56.11Q235.49 56.81 235.94 60.90L235.93 60.90L235.94 60.90Q236.10 61.89 235.97 63.23L235.96 63.22L236.00 63.26Q235.81 64.22 235.56 65.37L235.63 65.45L235.73 65.54Q232.87 79.05 220.15 90.55L220.09 90.48L220.19 90.59Q222.64 90.42 224.95 90.42L224.82 90.29L224.80 90.28Q230.26 90.30 235.05 91.64ZM234.08 56.68L234.18 56.78L234.19 56.79Q231.34 55.54 228.47 55.41L228.64 55.59L222.87 55.24L222.71 55.08Q215.25 54.65 211.54 56.50L211.62 56.59L211.68 56.65Q209.82 58.87 209.82 62.32L209.81 62.32L209.76 62.26Q209.94 63.60 210.45 68.32L210.37 68.24L210.44 68.31Q211.36 68.72 213.35 69.24L213.19 69.08L213.34 70.96L213.33 70.94Q213.22 71.66 213.34 72.56L213.26 72.47L213.31 72.52Q215.37 72.66 219.52 73.05L219.60 73.13L219.52 73.04Q219.52 72.47 219.52 71.89L219.64 72.02L219.55 71.92Q219.55 68.86 221.60 66.59L221.60 66.59L221.57 66.56Q223.54 64.23 226.55 64.42L226.68 64.55L226.65 64.52Q227.92 64.58 229.20 64.83L229.25 64.88L229.19 64.83Q229.34 65.42 229.47 66.12L229.43 66.08L229.58 66.23Q229.56 66.86 229.43 67.43L229.52 67.52L229.54 67.54Q227.41 75.50 220.00 83.62L219.85 83.47L219.92 83.54Q216.26 87.23 207.12 97.39L207.31 97.58L207.22 97.49Q206.85 98.85 206.28 99.80L206.38 99.91L206.37 99.90Q209.05 98.42 211.61 97.53L211.57 97.49L211.56 97.48Q210.39 98.48 208.79 100.98L208.69 100.87L208.81 101.00Q208.56 101.52 208.37 102.09L208.26 101.98L208.33 102.05Q216.50 98.59 225.70 98.91L225.69 98.90L225.81 99.02Q235.26 99.20 242.93 103.16L243.02 103.25L241.29 99.61L241.35 99.66Q240.26 97.43 239.82 96.09L239.73 96.01L239.70 95.97Q238.57 95.36 236.53 94.66L236.51 94.64L236.51 94.63Q236.31 93.48 235.68 91.18L235.54 91.05L235.66 91.17Q231.81 90.06 227.97 89.74L228.11 89.87L228.06 89.82Q235.90 82.14 238.46 68.28L238.45 68.27L238.76 63.40L238.75 63.39Q238.58 60.35 236.54 59.20L236.57 59.23L236.45 59.17L236.52 59.25Q236.39 59.05 236.27 59.05L236.43 59.22L236.34 59.12Q236.06 57.82 234.20 56.80Z"/><path d="M3 110 C158 79,175 24,329 136" stroke="#e76e6e" fill="none"/><path d="M15 49 C192 139,173 55,337 26" stroke="#7c7ced" fill="none"/><path d="M8 38 C187 89,161 105,331 117" stroke="#96e448" fill="none"/><path d="M1 73 C180 27,155 69,338 40" stroke="#9ce683" fill="none"/><path d="M6 123 C152 108,156 116,325 104" stroke="#ecaf73" fill="none"/><path d="M6 124 C165 134,150 79,327 92" stroke="#e8b27c" fill="none"/><path d="M8 31 C172 87,188 23,330 105" stroke="#5bc7ea" fill="none"/><path d="M16 111 C159 24,159 56,334 65" stroke="#f08888" fill="none"/><path d="M2 33 C179 25,154 111,340 53" stroke="#5b5bdb" fill="none"/><path d="M6 41 C170 86,174 98,330 76" stroke="#e57aca" fill="none"/><path d="M2 51 C169 100,186 115,327 2" stroke="#d953b7" fill="none"/><path d="M11 121 C192 103,191 119,341 88" stroke="#da67da" fill="none"/><path d="M19 8 C156 101,164 114,330 85" stroke="#c56de3" fill="none"/><path d="M9 129 C181 87,150 75,337 137" stroke="#48d5b2" fill="none"/><path d="M13 103 C188 28,173 64,322 102" stroke="#bf5be0" fill="none"/><path d="M15 45 C173 42,154 26,341 91" stroke="#7891dd" fill="none"/><path d="M7 137 C184 118,181 50,324 117" stroke="#4ddada" fill="none"/><path d="M14 79 C166 34,169 60,339 53" stroke="#6caae9" fill="none"/><path d="M15 91 C190 64,183 126,329 10" stroke="#92eba8" fill="none"/><path d="M7 112 C164 20,183 134,336 44" stroke="#bceb8d" fill="none"/><path fill="#b3d844" d="M284.82 73.59L284.93 73.71L284.93 73.71Q286.15 73.58 288.51 73.33L288.51 73.32L288.61 73.43Q288.61 74.57 288.61 75.66L288.48 75.53L288.55 77.71L288.54 77.70Q287.09 77.66 285.69 77.79L285.79 77.89L285.65 77.75Q284.22 77.79 282.81 77.72L282.94 77.85L282.94 77.85Q278.09 88.15 272.34 95.88L272.25 95.79L272.26 95.80Q268.20 97.05 266.03 98.07L265.86 97.89L265.87 97.91Q272.84 88.39 277.95 77.85L278.04 77.94L273.56 77.86L273.64 77.95Q273.58 75.65 273.39 73.41L273.37 73.39L273.29 73.31Q276.63 73.72 280.08 73.72L280.06 73.69L283.19 67.43L283.20 67.44Q284.96 64.34 287.00 61.65L286.94 61.59L286.85 61.50Q284.33 61.86 281.65 61.86L281.55 61.76L281.56 61.77Q271.34 61.78 265.02 58.07L265.12 58.18L264.06 55.33L264.01 55.28Q263.39 53.83 262.75 52.36L262.84 52.45L262.81 52.42Q270.04 56.77 279.62 57.15L279.56 57.08L279.69 57.22Q288.33 57.62 296.96 54.29L296.82 54.16L296.80 54.14Q296.63 54.98 295.79 56.45L295.77 56.43L295.77 56.43Q289.61 64.33 284.82 73.59ZM298.36 58.64L298.49 58.76L299.98 55.21L300.03 55.26Q298.50 56.15 295.69 57.37L295.61 57.29L296.02 56.87L295.96 56.81Q296.25 56.65 296.44 56.46L296.38 56.40L296.30 56.32Q296.92 55.15 298.13 52.91L298.25 53.03L298.28 53.06Q289.31 56.87 279.66 56.48L279.69 56.52L279.55 56.37Q269.62 56.09 261.63 51.11L261.56 51.04L261.53 51.01Q263.18 54.07 264.59 58.54L264.75 58.70L264.62 58.57Q266.43 59.61 267.77 60.12L267.88 60.23L267.93 60.29Q268.04 60.71 268.80 63.84L268.99 64.03L268.90 63.94Q274.22 66.06 283.48 65.80L283.39 65.71L283.38 65.70Q283.01 66.81 279.69 73.13L279.54 72.98L279.55 72.99Q276.20 73.09 272.87 72.77L272.78 72.67L272.84 72.74Q273.08 74.25 273.08 75.72L272.94 75.58L272.95 78.47L275.73 78.44L275.80 80.87L275.71 80.78Q269.16 93.21 264.49 99.21L264.50 99.22L264.49 99.21Q267.21 97.97 269.96 97.14L269.90 97.09L269.95 97.13Q268.89 98.75 266.59 101.63L266.50 101.54L266.47 101.51Q271.90 99.79 275.99 99.40L275.94 99.35L275.97 99.38Q280.79 92.96 286.03 81.58L285.99 81.54L291.83 81.94L291.74 81.86Q291.76 80.47 291.76 78.93L291.67 78.85L291.66 75.84L291.72 75.89Q291.18 75.81 290.26 75.87L290.40 76.01L290.24 75.86Q289.45 76.05 289.00 76.05L288.86 75.91L289.00 76.05Q289.04 75.90 289.10 75.64L289.09 75.63L289.00 75.09L288.95 75.04Q293.15 66.39 298.32 58.60Z"/><path d="M15 126 C150 52,186 119,324 104" stroke="#75d854" fill="none"/><path d="M7 86 C182 49,184 83,332 43" stroke="#b9e240" fill="none"/><path d="M17 90 C179 85,166 30,321 73" stroke="#74e0c5" fill="none"/><path d="M6 13 C183 65,179 75,328 107" stroke="#45d76a" fill="none"/><path fill="#e2ca82" d="M45.22 83.38L45.18 83.34L45.20 83.36Q50.28 82.63 55.65 82.82L55.74 82.91L55.75 82.92Q55.68 78.63 55.68 74.60L55.65 74.57L55.73 74.65Q55.58 70.35 55.90 66.07L56.07 66.24L55.90 66.07Q54.00 69.09 45.25 83.41ZM61.80 95.68L61.85 95.73L61.73 95.61Q58.90 95.08 55.90 94.95L55.97 95.02L56.05 95.11Q55.77 91.19 55.58 87.03L55.54 86.99L55.50 86.95Q46.53 86.61 38.61 88.97L38.52 88.88L38.69 89.06Q38.82 88.17 39.14 86.51L39.07 86.43L39.16 86.52Q42.23 81.28 48.24 70.74L48.20 70.70L48.21 70.71Q53.04 62.51 58.79 55.99L58.73 55.93L58.73 55.93Q60.25 55.66 63.06 55.21L62.96 55.11L62.99 55.14Q59.90 66.04 59.90 77.86L59.91 77.88L59.83 77.79Q59.91 80.36 60.03 82.86L59.94 82.76L62.13 82.97L62.05 82.89Q63.08 82.96 64.10 83.15L64.13 83.18L64.26 83.31Q64.44 84.96 64.88 88.22L64.87 88.21L64.79 88.12Q62.86 87.79 60.37 87.47L60.33 87.43L60.33 87.44Q60.67 90.78 61.82 95.70ZM64.53 82.49L64.64 82.61L64.63 82.59Q64.34 82.50 64.02 82.50L63.96 82.43L63.44 82.56L63.26 82.37Q63.06 79.88 63.06 77.51L63.18 77.64L63.06 77.51Q63.22 66.94 66.67 56.84L66.65 56.82L66.61 56.78Q65.42 57.32 62.99 57.96L62.86 57.82L62.88 57.85Q63.19 56.49 63.96 54.12L64.03 54.20L64.12 54.29Q61.80 54.78 58.35 55.16L58.49 55.30L58.49 55.30Q51.88 62.56 43.12 78.28L43.14 78.29L46.67 72.18L46.63 72.14Q45.88 73.81 45.43 74.77L45.40 74.74L37.93 89.89L38.07 90.03Q38.98 89.60 40.90 88.96L41.01 89.08L40.65 89.35L40.75 89.45Q40.54 90.59 40.03 92.70L40.01 92.67L40.00 92.66Q46.92 90.44 55.03 90.76L54.97 90.70L55.06 90.79Q55.05 92.32 55.37 95.64L55.42 95.69L55.38 95.65Q57.24 95.72 59.03 95.91L58.96 95.84L58.90 95.78Q59.17 96.95 59.62 99.25L59.74 99.37L59.78 99.41Q62.93 99.75 67.98 101.28L68.01 101.32L68.03 101.33Q66.29 97.67 64.75 92.18L64.79 92.21L67.09 92.85L67.24 93.00Q68.32 93.31 69.47 93.89L69.52 93.94L69.51 93.93Q68.15 89.70 67.90 86.88L67.82 86.81L67.83 86.82Q66.90 86.59 64.98 86.21L64.96 86.19L65.09 86.32Q64.55 83.98 64.55 82.51ZM51.15 82.28L51.19 82.32L51.19 82.32Q52.42 80.10 55.04 75.82L55.05 75.83L55.04 75.81Q55.01 77.38 54.94 78.98L55.06 79.10L55.08 79.12Q55.09 80.79 55.15 82.39L55.12 82.35L55.09 82.33Q54.14 82.27 53.18 82.27L53.09 82.17L53.10 82.18Q52.13 82.24 51.11 82.24Z"/><path d="M1 58 C170 36,155 76,322 122" stroke="#629eda" fill="none"/><path d="M8 110 C157 89,155 52,333 43" stroke="#a3e462" fill="none"/><path d="M19 32 C176 49,186 34,340 126" stroke="#e26ea8" fill="none"/><path d="M4 133 C183 41,170 42,328 34" stroke="#a5e390" fill="none"/><path d="M5 49 C164 73,170 50,332 108" stroke="#63a5e7" fill="none"/><path d="M14 65 C180 104,170 116,326 116" stroke="#55e155" fill="none"/><path d="M16 102 C191 81,153 67,334 94" stroke="#6ce4a8" fill="none"/><path d="M1 17 C181 32,177 28,340 83" stroke="#ad6ded" fill="none"/><path d="M4 60 C165 96,166 43,338 119" stroke="#65dcbe" fill="none"/><path d="M5 67 C179 132,150 93,338 61" stroke="#6783da" fill="none"/><path d="M4 14 C177 119,175 43,327 50" stroke="#74ebaf" fill="none"/><path d="M8 93 C172 52,164 37,323 103" stroke="#70ea70" fill="none"/><path d="M14 67 C178 114,160 113,328 69" stroke="#663be6" fill="none"/><path d="M15 22 C156 86,182 64,334 129" stroke="#76e476" fill="none"/><path fill="#5275df" d="M109.43 67.28L109.40 67.25L109.47 67.32Q104.19 67.40 101.12 65.61L100.98 65.47L101.01 65.51Q105.26 63.23 113.44 56.14L113.37 56.07L113.46 56.16Q114.63 55.80 116.80 54.78L116.78 54.76L116.84 54.82Q114.63 64.81 114.44 75.48L114.48 75.52L114.45 75.50Q114.24 86.14 116.03 96.37L115.92 96.26L116.03 96.37Q113.11 95.05 109.53 94.86L109.61 94.93L109.52 94.85Q109.47 88.02 109.47 81.18L109.33 81.04L109.32 81.03Q109.47 74.28 109.53 67.38ZM108.73 70.99L108.79 95.52L108.78 95.51Q110.93 95.62 112.53 95.94L112.51 95.92L112.51 95.92Q112.63 97.06 112.95 99.36L112.85 99.26L112.94 99.35Q117.69 100.21 121.78 103.98L121.83 104.02L121.85 104.04Q117.64 92.04 117.57 79.51L117.49 79.43L117.51 79.44Q117.48 67.02 120.55 54.88L120.49 54.82L120.48 54.81Q119.67 55.60 116.99 57.46L116.97 57.43L116.91 57.38Q117.26 56.13 117.78 53.58L117.73 53.53L117.68 53.48Q115.62 54.94 113.19 55.58L113.16 55.55L113.17 55.55Q106.70 61.42 99.48 65.26L99.59 65.37L99.57 65.34Q102.02 67.29 105.99 67.86L105.88 67.76L105.88 67.76Q104.79 68.65 102.62 70.44L102.64 70.45L102.62 70.43Q105.11 71.07 108.81 71.07L108.74 71.00Z"/></svg>