<svg xmlns="http://www.w3.org/2000/svg" width="342" height="140" viewBox="0,0,342,140"><path d="M7 51 C158 90,189 119,329 39" stroke="#e368c4" fill="none"/><path fill="#57da78" d="M273.61 81.40L273.52 81.31L273.60 81.40Q277.97 80.82 282.54 80.98L282.59 81.03L282.56 81.00Q282.48 77.33 282.48 73.91L282.57 74.00L282.58 74.00Q282.45 70.34 282.72 66.70L282.83 66.80L282.70 66.68Q281.07 69.23 273.62 81.42ZM287.65 91.80L287.72 91.88L287.69 91.84Q285.34 91.45 282.78 91.34L282.73 91.29L282.68 91.24Q282.59 88.04 282.42 84.51L282.38 84.46L282.28 84.36Q274.78 84.21 268.03 86.22L268.05 86.24L267.87 86.06Q268.10 85.41 268.37 84.00L268.40 84.03L268.43 84.05Q271.04 79.60 276.15 70.62L276.11 70.58L276.05 70.52Q280.27 63.65 285.17 58.10L285.13 58.06L285.10 58.03Q286.27 57.68 288.66 57.30L288.78 57.42L288.74 57.37Q285.93 66.48 285.93 76.54L286.09 76.70L285.97 76.58Q285.98 78.71 286.09 80.83L286.23 80.97L288.04 81.10L288.02 81.08Q288.85 81.09 289.72 81.25L289.80 81.34L289.64 81.17Q289.82 82.61 290.20 85.38L290.25 85.43L290.22 85.40Q288.45 84.98 286.33 84.71L286.50 84.89L286.43 84.82Q286.65 87.59 287.63 91.78ZM290.20 80.81L290.05 80.66L290.17 80.78Q289.85 80.62 289.58 80.62L289.56 80.61L289.08 80.67L289.00 80.59Q288.77 78.40 288.77 76.39L288.79 76.41L288.77 76.39Q288.81 67.29 291.75 58.70L291.86 58.81L291.71 58.66Q290.68 59.10 288.61 59.64L288.73 59.77L288.56 59.59Q288.92 58.53 289.57 56.52L289.65 56.60L289.55 56.50Q287.78 57.12 284.84 57.45L284.90 57.51L284.88 57.49Q279.21 63.62 271.76 77.00L271.82 77.06L274.86 71.89L274.76 71.79Q274.10 73.20 273.72 74.01L273.83 74.12L267.35 86.89L267.42 86.97Q268.39 86.79 270.03 86.25L270.00 86.22L269.79 86.55L269.85 86.62Q269.55 87.46 269.12 89.26L269.24 89.38L269.22 89.36Q275.00 87.37 281.91 87.64L282.03 87.75L281.94 87.67Q281.90 88.94 282.18 91.77L282.23 91.82L282.29 91.88Q283.76 91.83 285.28 91.99L285.37 92.08L285.31 92.02Q285.59 93.06 285.97 95.01L285.87 94.92L286.00 95.04Q288.58 95.23 292.87 96.53L292.94 96.60L292.91 96.58Q291.43 93.46 290.13 88.78L290.12 88.78L292.20 89.45L292.27 89.51Q293.25 89.84 294.23 90.33L294.19 90.29L294.16 90.27Q293.01 86.66 292.79 84.27L292.80 84.28L292.78 84.26Q292.08 84.16 290.45 83.84L290.46 83.84L290.34 83.72Q290.08 81.94 290.08 80.69ZM278.78 80.59L278.75 80.56L278.70 80.52Q279.72 78.59 281.95 74.95L282.07 75.07L282.01 75.02Q282.03 76.40 281.98 77.75L281.90 77.68L282.00 77.77Q281.89 79.08 281.95 80.44L281.99 80.48L281.93 80.42Q281.17 80.43 280.36 80.43L280.29 80.36L280.31 80.38Q279.49 80.43 278.62 80.43Z"/><path d="M16 55 C167 89,173 132,334 68" stroke="#8e3edf" fill="none"/><path d="M21 58 C175 30,157 56,325 48" stroke="#dab74d" fill="none"/><path d="M12 36 C160 22,179 117,329 67" stroke="#96dd4f" fill="none"/><path fill="#6236e7" d="M166.73 67.73L166.78 67.78L166.79 67.80Q162.09 67.66 159.48 66.14L159.44 66.10L159.49 66.15Q163.10 64.22 170.07 58.18L170.16 58.28L170.12 58.24Q171.18 57.99 173.03 57.12L173.02 57.12L173.04 57.13Q171.08 65.56 170.92 74.64L170.90 74.62L170.92 74.64Q170.79 83.76 172.32 92.46L172.17 92.32L172.33 92.48Q169.93 91.44 166.89 91.28L166.83 91.22L166.73 91.13Q166.66 85.29 166.66 79.47L166.61 79.42L166.66 79.47Q166.59 73.52 166.64 67.65ZM166.11 70.87L166.19 91.77L166.11 91.70Q167.94 91.79 169.30 92.06L169.26 92.02L169.20 91.96Q169.44 93.07 169.71 95.03L169.59 94.91L169.69 95.01Q173.78 95.78 177.26 98.99L177.26 98.99L177.18 98.91Q173.61 88.71 173.56 78.05L173.52 78.01L173.58 78.07Q173.59 67.53 176.20 57.19L176.04 57.03L176.17 57.16Q175.28 57.63 172.99 59.21L173.06 59.27L173.01 59.22Q173.42 58.27 173.86 56.10L173.84 56.08L173.84 56.08Q171.85 57.09 169.79 57.63L169.77 57.61L169.77 57.62Q164.50 62.84 158.35 66.10L158.27 66.02L158.34 66.09Q160.29 67.60 163.66 68.09L163.61 68.04L163.62 68.05Q162.75 68.87 160.90 70.39L160.81 70.30L160.86 70.35Q162.94 70.85 166.09 70.85L166.17 70.93Z"/><path d="M1 106 C171 126,155 117,340 94" stroke="#8deb8d" fill="none"/><path d="M8 13 C168 75,189 19,330 17" stroke="#4bdcdc" fill="none"/><path d="M19 124 C181 40,181 88,329 62" stroke="#d962d9" fill="none"/><path d="M6 52 C163 115,192 93,327 126" stroke="#b74cdb" fill="none"/><path d="M5 49 C191 35,152 18,326 66" stroke="#6080e0" fill="none"/><path d="M11 10 C187 43,191 20,336 22" stroke="#42ea96" fill="none"/><path d="M19 57 C162 99,165 80,327 89" stroke="#e07e97" fill="none"/><path d="M18 48 C153 28,187 13,332 5" stroke="#e86d8c" fill="none"/><path d="M19 24 C164 32,152 7,333 63" stroke="#7171ee" fill="none"/><path d="M19 118 C165 89,163 74,334 78" stroke="#76ee76" fill="none"/><path d="M13 114 C166 31,159 85,339 41" stroke="#9090ee" fill="none"/><path d="M10 3 C170 133,165 50,328 111" stroke="#6262e8" fill="none"/><path d="M13 31 C174 131,164 113,328 127" stroke="#ba83f0" fill="none"/><path d="M13 28 C161 134,191 47,337 5" stroke="#eaa561" fill="none"/><path d="M2 36 C154 15,187 131,331 66" stroke="#436adf" fill="none"/><path d="M18 127 C184 82,159 75,330 48" stroke="#e34e73" fill="none"/><path d="M20 132 C173 5,164 19,321 19" stroke="#59a0e7" fill="none"/><path fill="#5c5ce4" d="M227.96 73.09L228.05 73.18L227.97 73.09Q229.20 73.18 231.21 72.97L231.15 72.91L231.12 72.87Q231.13 73.86 231.13 74.79L231.02 74.68L231.16 76.61L230.99 76.44Q229.93 76.58 228.73 76.69L228.77 76.73L228.58 76.54Q227.43 76.64 226.23 76.58L226.36 76.71L226.19 76.54Q222.22 85.45 217.32 92.04L217.30 92.01L217.23 91.94Q213.67 92.90 211.82 93.77L211.93 93.88L211.97 93.92Q217.68 85.59 222.03 76.62L222.07 76.66L218.40 76.75L218.39 76.73Q218.34 74.78 218.18 72.88L218.27 72.97L218.26 72.96Q220.90 73.10 223.84 73.10L223.79 73.05L226.47 67.74L226.53 67.79Q227.94 65.07 229.68 62.79L229.75 62.86L229.71 62.82Q227.48 63.03 225.19 63.03L225.20 63.04L225.18 63.02Q216.48 63.02 211.09 59.86L211.18 59.95L210.16 57.41L210.25 57.50Q209.60 56.15 209.06 54.89L209.18 55.01L209.08 54.92Q215.44 58.83 223.60 59.15L223.58 59.14L223.42 58.98Q230.86 59.40 238.20 56.57L238.10 56.47L238.13 56.50Q237.99 57.23 237.28 58.48L237.29 58.48L237.25 58.45Q232.11 65.27 228.03 73.16ZM239.43 60.30L239.53 60.40L240.90 57.48L240.82 57.39Q239.59 58.24 237.20 59.27L237.22 59.29L237.39 58.75L237.41 58.77Q237.59 58.57 237.75 58.41L237.76 58.42L237.70 58.35Q238.26 57.40 239.30 55.49L239.38 55.57L239.39 55.58Q231.74 58.82 223.53 58.49L223.51 58.47L223.46 58.41Q214.91 58.08 208.11 53.84L208.09 53.82L208.13 53.85Q209.67 56.59 210.86 60.40L210.82 60.35L210.73 60.27Q212.45 61.33 213.59 61.76L213.55 61.72L213.41 61.59Q213.81 62.25 214.46 64.92L214.29 64.75L214.36 64.82Q218.98 66.72 226.86 66.50L226.83 66.46L226.69 66.32Q226.40 67.29 223.57 72.67L223.55 72.65L223.56 72.66Q220.50 72.54 217.67 72.27L217.75 72.34L217.79 72.38Q217.76 73.44 217.76 74.69L217.87 74.80L217.89 77.26L220.28 77.27L220.29 79.28L220.29 79.29Q214.67 89.81 210.70 94.93L210.66 94.89L210.77 95.00Q212.98 93.84 215.32 93.13L215.26 93.07L215.21 93.02Q214.32 94.42 212.36 96.86L212.31 96.82L212.43 96.93Q216.83 95.24 220.31 94.91L220.30 94.90L220.37 94.98Q224.54 89.57 229.00 79.89L229.00 79.89L233.92 80.19L233.97 80.24Q233.69 78.77 233.69 77.46L233.74 77.51L233.73 74.94L233.73 74.94Q233.38 74.97 232.59 75.02L232.61 75.05L232.59 75.02Q231.88 75.16 231.50 75.16L231.38 75.04L231.51 75.17Q231.50 74.99 231.55 74.78L231.51 74.74L231.42 74.26L231.56 74.41Q235.04 66.95 239.45 60.32Z"/><path d="M8 73 C153 19,191 15,335 33" stroke="#cd84e5" fill="none"/><path fill="#e83fe8" d="M120.51 88.46L120.58 88.53L120.49 88.44Q120.92 89.85 121.68 92.73L121.68 92.73L121.61 92.67Q115.61 90.80 109.03 91.18L109.09 91.23L109.14 91.29Q102.46 91.51 96.74 94.34L96.93 94.52L96.87 94.46Q97.14 93.43 97.20 93.54L97.24 93.59L97.16 93.50Q102.54 87.90 108.14 81.59L108.21 81.66L108.18 81.63Q114.50 74.51 116.18 67.82L116.07 67.70L116.08 67.72Q116.82 65.30 115.00 63.62L115.00 63.62L115.04 63.65Q113.20 61.95 110.64 62.17L110.51 62.03L110.61 62.13Q110.16 62.12 109.67 62.12L109.62 62.07L109.59 62.04Q107.38 62.00 105.58 63.31L105.74 63.46L105.67 63.39Q103.73 65.26 104.05 69.07L104.08 69.09L104.17 69.19Q101.48 68.56 99.74 67.90L99.82 67.99L99.79 67.96Q99.49 65.92 99.38 63.85L99.36 63.83L99.54 64.01Q99.37 61.61 100.24 59.98L100.11 59.85L100.16 59.90Q102.69 57.92 107.48 57.92L107.59 58.03L109.96 57.89L109.98 57.91Q113.26 57.99 114.62 58.15L114.63 58.17L114.66 58.19Q120.88 58.81 121.26 62.29L121.26 62.30L121.25 62.28Q121.36 63.09 121.25 64.24L121.17 64.16L121.17 64.15Q121.17 65.13 120.95 66.11L120.93 66.10L121.00 66.17Q118.73 77.82 107.91 87.61L107.82 87.52L107.80 87.50Q109.78 87.25 111.74 87.25L111.75 87.26L111.80 87.31Q116.32 87.21 120.40 88.35ZM119.60 58.61L119.69 58.71L119.77 58.79Q117.33 57.71 114.88 57.60L115.02 57.73L109.98 57.32L110.12 57.46Q103.72 57.04 100.57 58.62L100.55 58.60L100.47 58.52Q98.94 60.48 98.94 63.41L98.94 63.41L98.92 63.39Q99.04 64.49 99.48 68.52L99.49 68.52L99.58 68.62Q100.17 68.77 101.85 69.21L101.98 69.34L101.89 70.71L101.94 70.76Q101.97 71.50 102.08 72.26L102.06 72.24L102.09 72.27Q103.79 72.34 107.32 72.67L107.34 72.68L107.40 72.75Q107.18 72.04 107.18 71.55L107.23 71.60L107.28 71.65Q107.37 69.12 109.11 67.19L109.10 67.18L109.01 67.09Q110.67 65.08 113.22 65.24L113.32 65.34L113.37 65.38Q114.35 65.34 115.44 65.55L115.57 65.68L115.42 65.53Q115.56 66.05 115.67 66.65L115.68 66.66L115.76 66.74Q115.91 67.43 115.80 67.92L115.65 67.78L115.72 67.85Q113.87 74.59 107.56 81.49L107.61 81.54L107.65 81.58Q104.54 84.73 96.77 93.38L96.79 93.40L96.78 93.40Q96.43 94.51 95.94 95.32L95.94 95.33L96.01 95.39Q98.35 94.21 100.53 93.44L100.41 93.33L100.38 93.30Q99.53 94.29 98.17 96.41L98.04 96.29L98.07 96.31Q97.83 96.73 97.67 97.22L97.76 97.31L97.73 97.28Q104.67 94.32 112.50 94.59L112.48 94.57L112.62 94.71Q120.55 94.76 127.08 98.13L127.10 98.15L125.85 95.27L125.86 95.28Q124.74 93.18 124.36 92.04L124.38 92.06L124.36 92.04Q123.34 91.46 121.60 90.86L121.65 90.91L121.66 90.92Q121.51 89.95 120.96 87.99L120.88 87.91L121.01 88.03Q117.79 87.16 114.53 86.89L114.44 86.80L114.47 86.83Q121.27 80.41 123.45 68.61L123.34 68.50L123.54 64.30L123.61 64.37Q123.56 61.88 121.82 60.90L121.69 60.76L121.73 60.86L121.79 60.92Q121.73 60.80 121.62 60.80L121.52 60.70L121.64 60.82Q121.23 59.54 119.65 58.67Z"/><path d="M7 66 C186 72,164 38,326 114" stroke="#cb6aeb" fill="none"/><path d="M4 116 C164 69,164 115,335 24" stroke="#bee155" fill="none"/><path d="M14 111 C158 92,185 24,323 81" stroke="#e943e9" fill="none"/><path d="M12 47 C175 26,158 81,324 61" stroke="#d9d94e" fill="none"/><path d="M16 72 C159 37,182 31,338 40" stroke="#e877cc" fill="none"/><path d="M6 55 C181 102,154 95,327 5" stroke="#a188eb" fill="none"/><path d="M6 102 C176 29,168 110,332 39" stroke="#a566e5" fill="none"/><path d="M3 59 C160 27,159 101,340 52" stroke="#66c9ea" fill="none"/><path d="M18 72 C153 138,161 138,341 62" stroke="#e1bd50" fill="none"/><path d="M17 41 C165 109,177 2,332 78" stroke="#91ec73" fill="none"/><path d="M17 101 C182 10,175 13,339 5" stroke="#e471aa" fill="none"/><path d="M12 121 C171 134,178 67,327 57" stroke="#8e6feb" fill="none"/><path d="M20 98 C161 126,173 1,335 117" stroke="#dfdf5c" fill="none"/><path fill="#91da47" d="M46.82 81.28L46.85 81.32L46.99 81.45Q51.29 80.80 55.85 80.96L55.82 80.92L55.78 80.89Q55.83 77.35 55.83 73.93L55.90 73.99L55.80 73.89Q55.74 70.30 56.01 66.65L56.08 66.72L56.02 66.66Q54.35 69.18 46.90 81.36ZM60.95 91.77L61.04 91.86L60.97 91.79Q58.75 91.52 56.19 91.42L56.18 91.40L56.18 91.40Q55.91 88.03 55.75 84.50L55.65 84.40L55.65 84.40Q48.06 84.15 41.31 86.16L41.34 86.19L41.24 86.09Q41.43 85.41 41.70 83.99L41.80 84.09L41.75 84.05Q44.29 79.51 49.40 70.54L49.41 70.55L49.49 70.63Q53.60 63.64 58.49 58.09L58.37 57.97L58.46 58.06Q59.70 57.78 62.09 57.40L62.16 57.46L62.13 57.44Q59.42 66.63 59.42 76.70L59.42 76.70L59.43 76.71Q59.34 78.74 59.45 80.86L59.46 80.87L61.34 81.07L61.37 81.10Q62.25 81.16 63.12 81.32L63.13 81.34L63.03 81.23Q63.15 82.61 63.54 85.38L63.50 85.35L63.52 85.37Q61.83 85.04 59.71 84.76L59.83 84.89L59.81 84.87Q60.16 87.77 61.14 91.95ZM63.53 80.81L63.39 80.67L63.45 80.73Q63.17 80.61 62.90 80.61L62.86 80.57L62.39 80.64L62.35 80.61Q62.12 78.42 62.12 76.41L62.19 76.48L62.11 76.40Q62.23 67.38 65.16 58.78L65.17 58.79L65.11 58.73Q64.07 59.16 62.01 59.71L61.93 59.63L61.88 59.58Q62.31 58.59 62.96 56.58L62.89 56.51L62.89 56.51Q61.10 57.11 58.16 57.44L58.10 57.38L58.16 57.43Q52.52 63.60 45.07 76.98L45.12 77.03L48.09 71.78L48.01 71.71Q47.60 73.36 47.22 74.17L47.21 74.17L40.67 86.88L40.74 86.95Q41.77 86.84 43.40 86.30L43.27 86.16L43.00 86.43L43.02 86.46Q42.84 87.42 42.40 89.21L42.52 89.33L42.45 89.25Q48.35 87.38 55.26 87.66L55.24 87.63L55.32 87.71Q55.41 89.11 55.68 91.94L55.55 91.81L55.70 91.96Q57.03 91.77 58.56 91.93L58.67 92.04L58.64 92.01Q58.91 93.05 59.29 95.00L59.18 94.89L59.32 95.04Q61.90 95.22 66.19 96.52L66.24 96.56L66.19 96.52Q64.77 93.47 63.47 88.79L63.47 88.79L65.61 89.52L65.59 89.51Q66.64 89.90 67.62 90.39L67.65 90.42L67.48 90.25Q66.52 86.84 66.30 84.44L66.11 84.26L66.28 84.43Q65.33 84.08 63.70 83.75L63.77 83.82L63.83 83.88Q63.45 81.98 63.45 80.73ZM51.94 80.42L52.01 80.49L52.00 80.48Q53.03 78.57 55.26 74.92L55.25 74.92L55.35 75.02Q55.31 76.34 55.25 77.70L55.27 77.71L55.37 77.81Q55.22 79.07 55.27 80.43L55.33 80.50L55.29 80.45Q54.50 80.42 53.68 80.42L53.67 80.40L53.80 80.54Q52.91 80.52 52.04 80.52Z"/><path d="M18 136 C172 127,164 25,328 114" stroke="#d24b8e" fill="none"/><path d="M19 78 C177 66,159 104,329 9" stroke="#8282ec" fill="none"/><path d="M11 14 C166 18,173 10,322 130" stroke="#e9d38f" fill="none"/><path d="M1 134 C189 25,165 61,331 17" stroke="#4ae2e2" fill="none"/><path d="M19 7 C189 6,172 114,337 11" stroke="#d583f0" fill="none"/></svg>