<svg xmlns="http://www.w3.org/2000/svg" width="342" height="140" viewBox="0,0,342,140"><path d="M4 96 C173 107,168 116,333 47" stroke="#59ddbc" fill="none"/><path d="M2 32 C178 128,166 121,333 91" stroke="#d44ed4" fill="none"/><path d="M2 18 C189 48,177 110,322 87" stroke="#5555dc" fill="none"/><path d="M3 26 C172 10,156 24,331 125" stroke="#e377e3" fill="none"/><path d="M3 100 C172 77,186 138,339 37" stroke="#a05de3" fill="none"/><path d="M5 93 C180 98,185 100,340 109" stroke="#8fe174" fill="none"/><path d="M13 135 C169 76,153 128,341 130" stroke="#e6e66f" fill="none"/><path d="M21 41 C176 78,189 36,321 68" stroke="#64a8eb" fill="none"/><path d="M19 83 C188 58,160 112,324 12" stroke="#6daae8" fill="none"/><path d="M2 3 C155 117,159 21,338 35" stroke="#d64cd6" fill="none"/><path d="M4 37 C160 41,168 86,326 59" stroke="#e2704a" fill="none"/><path d="M15 46 C183 32,155 98,324 89" stroke="#7c97e8" fill="none"/><path fill="#e43e67" d="M193.20 99.96L193.20 99.95L193.20 99.96Q185.23 100.35 183.30 95.83L183.40 95.94L183.38 95.91Q184.83 94.03 187.87 90.54L187.82 90.49L187.76 90.44Q188.81 94.46 194.67 94.68L194.74 94.75L194.64 94.65Q201.32 94.88 204.50 92.29L204.53 92.32L204.48 92.27Q207.16 89.09 207.01 83.83L207.06 83.88L207.03 83.84Q206.79 74.05 197.46 74.50L197.32 74.36L197.39 74.43Q191.94 74.76 188.53 77.21L188.43 77.10L187.94 76.91L187.50 76.62L187.52 76.63Q188.21 70.51 187.98 65.17L187.84 65.03L187.94 65.13Q187.66 59.96 187.00 53.52L186.99 53.51L187.11 53.63Q194.21 55.46 201.62 55.24L201.64 55.27L201.59 55.22Q209.03 55.10 216.00 52.65L215.89 52.54L214.80 55.53L214.77 55.50Q214.18 56.99 213.81 58.62L213.82 58.63L213.79 58.60Q207.79 60.67 200.23 60.67L200.30 60.74L200.16 60.60Q197.42 60.67 194.53 60.38L194.47 60.33L194.60 60.45Q194.29 61.62 193.62 70.29L193.66 70.33L193.63 70.30Q195.25 69.40 199.25 69.10L199.41 69.26L199.31 69.16Q206.57 69.61 209.39 72.87L209.41 72.89L209.40 72.88Q211.99 75.77 212.51 83.25L212.57 83.31L212.61 83.35Q213.15 91.53 210.78 95.46L210.76 95.44L210.74 95.41Q206.87 99.18 200.43 99.62L200.29 99.48L200.40 99.59Q198.33 99.60 193.15 99.90ZM205.05 104.47L204.95 104.37L204.91 104.33Q211.72 104.62 215.43 102.47L215.25 102.29L215.26 102.31Q217.32 99.47 217.32 95.39L217.21 95.29L217.31 95.39Q217.25 89.33 215.40 81.32L215.32 81.25L215.33 81.25Q214.76 78.02 212.39 75.28L212.22 75.11L212.42 75.38L211.96 74.78L211.23 74.34L211.26 74.37Q210.62 72.91 209.36 71.58L209.38 71.61L209.43 71.72L209.39 71.68Q206.53 68.52 199.34 68.52L199.29 68.47L198.64 68.34L198.72 68.42Q198.97 67.41 199.34 65.26L199.20 65.13L199.16 65.09Q208.89 65.33 216.74 62.14L216.91 62.31L216.83 62.23Q217.59 59.44 219.45 53.95L219.55 54.06L215.34 55.78L215.49 55.92Q216.08 53.56 217.05 51.33L217.08 51.36L217.05 51.33Q209.64 54.22 201.64 54.37L201.54 54.27L201.70 54.44Q193.56 54.52 185.86 52.38L185.90 52.42L185.85 52.37Q187.16 60.94 187.16 69.53L187.23 69.60L187.23 69.60Q187.22 73.30 187.00 77.00L187.01 77.02L187.02 77.03Q187.59 77.45 188.70 78.04L188.76 78.10L188.75 78.09Q189.34 77.57 190.60 76.90L190.51 76.82L190.54 76.84Q190.46 78.32 190.02 81.28L190.03 81.30L190.11 81.37Q190.84 81.66 191.65 82.10L191.61 82.07L191.65 82.10Q197.08 78.72 200.71 78.72L200.81 78.82L200.64 78.65Q203.28 78.69 205.58 79.95L205.69 80.06L205.71 80.08Q206.32 82.03 206.39 83.88L206.40 83.88L206.35 83.83Q206.48 88.85 204.48 91.00L204.53 91.05L204.51 91.03Q201.85 93.42 197.48 93.86L197.47 93.85L197.40 93.78Q195.65 94.03 194.31 93.88L194.35 93.92L194.27 93.84Q192.66 93.63 191.18 92.97L191.17 92.96L191.14 92.56L190.86 92.72L190.83 92.69Q189.40 91.85 188.36 89.26L188.33 89.23L188.34 89.24Q185.79 92.03 182.53 96.18L182.41 96.05L182.46 96.10Q183.11 97.42 184.74 99.27L184.64 99.18L184.61 99.14Q186.83 102.85 192.31 103.81L192.25 103.75L192.30 103.80Q194.49 104.13 204.94 104.36Z"/><path d="M13 6 C174 36,165 138,338 101" stroke="#dd45dd" fill="none"/><path d="M6 58 C173 58,155 62,334 66" stroke="#e69645" fill="none"/><path d="M8 70 C156 93,189 43,334 52" stroke="#e349bd" fill="none"/><path d="M10 75 C169 53,183 41,339 92" stroke="#6f6fdc" fill="none"/><path d="M14 111 C189 44,175 66,329 4" stroke="#55d7d7" fill="none"/><path d="M4 92 C184 26,190 83,328 95" stroke="#c458e9" fill="none"/><path fill="#5ce4e4" d="M54.80 85.58L54.64 85.43L54.74 85.52Q60.73 84.77 66.95 84.99L66.96 85.00L66.97 85.01Q66.90 80.05 66.90 75.38L66.91 75.39L66.89 75.38Q66.87 70.54 67.24 65.57L67.28 65.61L67.20 65.53Q64.88 68.92 54.73 85.51ZM74.06 99.88L73.93 99.75L73.98 99.80Q70.76 99.25 67.28 99.10L67.17 99.00L67.15 98.97Q66.90 94.50 66.68 89.69L66.66 89.66L66.55 89.56Q56.29 89.30 47.10 92.04L47.13 92.07L47.05 91.99Q47.22 90.98 47.59 89.05L47.61 89.07L47.66 89.12Q51.06 82.89 58.03 70.66L58.14 70.77L58.11 70.74Q63.84 61.35 70.51 53.80L70.38 53.67L70.32 53.61Q72.02 53.23 75.28 52.71L75.39 52.82L75.34 52.78Q71.72 65.39 71.72 79.09L71.75 79.13L71.75 79.12Q71.68 81.95 71.83 84.84L71.79 84.79L74.39 85.10L74.35 85.06Q75.50 85.10 76.69 85.32L76.74 85.38L76.66 85.30Q76.88 87.21 77.40 90.99L77.45 91.05L77.51 91.11Q75.01 90.46 72.12 90.09L72.14 90.11L72.17 90.14Q72.60 94.05 73.93 99.75ZM77.25 84.62L77.13 84.50L77.29 84.66Q76.95 84.55 76.58 84.55L76.53 84.49L75.74 84.45L75.74 84.44Q75.48 81.52 75.48 78.78L75.44 78.73L75.60 78.89Q75.60 66.45 79.60 54.74L79.47 54.61L79.52 54.66Q78.04 55.18 75.23 55.92L75.15 55.85L75.16 55.86Q75.68 54.45 76.57 51.71L76.63 51.77L76.56 51.70Q74.09 52.49 70.09 52.93L70.12 52.97L69.99 52.84Q62.45 61.37 52.30 79.60L52.17 79.48L56.33 72.44L56.25 72.36Q55.47 74.40 54.95 75.51L55.07 75.63L46.23 93.03L46.42 93.22Q47.67 92.90 49.89 92.16L49.89 92.16L49.53 92.54L49.56 92.57Q49.36 93.93 48.77 96.38L48.62 96.23L48.63 96.24Q56.68 93.70 66.10 94.07L66.11 94.08L66.12 94.10Q66.13 95.88 66.50 99.73L66.49 99.72L66.50 99.73Q68.64 99.80 70.72 100.02L70.78 100.09L70.70 100.00Q71.01 101.35 71.52 104.02L71.51 104.00L71.51 104.01Q75.18 104.41 81.03 106.19L81.15 106.31L81.11 106.27Q79.11 102.05 77.33 95.67L77.43 95.77L80.29 96.70L80.21 96.62Q81.55 97.07 82.88 97.74L82.78 97.63L82.87 97.72Q81.34 92.86 81.04 89.60L81.02 89.57L81.02 89.58Q79.89 89.26 77.67 88.82L77.76 88.91L77.67 88.82Q77.20 86.27 77.20 84.57ZM61.70 84.34L61.59 84.23L61.62 84.25Q63.07 81.71 66.11 76.74L66.17 76.80L66.27 76.90Q66.11 78.59 66.03 80.45L66.12 80.53L66.03 80.44Q66.07 82.41 66.15 84.26L66.17 84.29L66.12 84.23Q65.03 84.19 63.92 84.19L63.93 84.19L63.87 84.13Q62.84 84.29 61.65 84.29Z"/><path fill="#ade475" d="M145.81 95.19L145.81 95.18L145.81 95.19Q146.44 97.14 147.47 101.07L147.45 101.05L147.42 101.02Q139.14 98.37 130.17 98.89L130.18 98.90L130.17 98.88Q121.25 99.37 113.47 103.23L113.54 103.30L113.51 103.27Q113.98 101.96 114.06 102.11L114.01 102.07L113.98 102.04Q121.37 94.46 129.00 85.86L128.95 85.81L128.92 85.78Q137.44 76.00 139.74 66.88L139.81 66.95L139.89 67.04Q140.68 63.52 138.19 61.23L138.31 61.35L138.32 61.35Q135.70 58.92 132.21 59.21L132.24 59.24L132.26 59.26Q131.63 59.22 130.96 59.22L130.98 59.23L130.96 59.21Q128.03 59.25 125.58 61.03L125.55 61.00L125.50 60.94Q122.92 63.56 123.37 68.74L123.52 68.89L123.49 68.86Q119.95 68.14 117.58 67.25L117.57 67.24L117.67 67.35Q117.29 64.59 117.14 61.78L117.06 61.70L117.14 61.78Q116.99 58.59 118.18 56.36L118.05 56.23L118.10 56.28Q121.49 53.53 128.01 53.53L128.03 53.55L131.54 53.65L131.52 53.63Q136.06 53.80 137.92 54.02L137.89 53.99L137.74 53.84Q146.27 54.74 146.79 59.48L146.82 59.51L146.76 59.46Q146.92 60.58 146.77 62.14L146.78 62.14L146.69 62.05Q146.67 63.37 146.38 64.71L146.39 64.72L146.48 64.80Q143.30 80.60 128.56 93.94L128.47 93.85L128.57 93.96Q131.23 93.57 133.89 93.57L133.87 93.55L133.80 93.47Q140.24 93.62 145.80 95.17ZM144.68 54.64L144.71 54.67L144.62 54.58Q141.58 53.39 138.24 53.24L138.27 53.26L131.59 52.88L131.51 52.80Q122.83 52.27 118.53 54.42L118.48 54.37L118.52 54.41Q116.49 57.12 116.49 61.12L116.43 61.07L116.54 61.17Q116.61 62.58 117.21 68.06L117.13 67.99L117.08 67.93Q118.08 68.35 120.38 68.94L120.51 69.08L120.50 71.06L120.58 71.14Q120.46 71.99 120.61 73.02L120.63 73.04L120.62 73.03Q122.98 73.17 127.79 73.61L127.72 73.54L127.89 73.71Q127.73 72.89 127.73 72.22L127.81 72.29L127.71 72.20Q127.70 68.63 130.07 66.00L130.20 66.13L130.17 66.10Q132.38 63.31 135.86 63.53L135.94 63.60L135.89 63.55Q137.39 63.64 138.87 63.94L138.88 63.96L139.02 64.09Q139.15 64.74 139.30 65.56L139.38 65.63L139.36 65.61Q139.31 66.30 139.16 66.97L139.32 67.13L139.24 67.05Q136.69 76.21 128.10 85.62L128.25 85.78L128.10 85.62Q123.94 89.99 113.35 101.77L113.37 101.79L113.47 101.90Q113.06 103.49 112.39 104.60L112.45 104.65L112.44 104.64Q115.55 102.94 118.52 101.90L118.57 101.95L118.40 101.78Q117.02 102.93 115.17 105.82L115.31 105.96L115.16 105.81Q115.00 106.54 114.78 107.21L114.77 107.20L114.85 107.28Q124.32 103.26 134.99 103.63L134.87 103.51L135.01 103.66Q145.96 103.86 154.85 108.45L154.82 108.42L153.00 104.38L153.01 104.38Q151.76 101.80 151.24 100.24L151.15 100.16L151.13 100.14Q149.70 99.30 147.33 98.48L147.27 98.43L147.39 98.54Q147.05 97.09 146.31 94.42L146.26 94.38L146.25 94.37Q142.04 93.34 137.59 92.97L137.57 92.95L137.58 92.96Q146.65 84.02 149.61 67.94L149.67 68.00L149.96 62.28L150.09 62.42Q149.95 58.94 147.57 57.60L147.43 57.46L147.53 57.63L147.38 57.48Q147.31 57.34 147.16 57.34L147.14 57.32L147.24 57.42Q146.79 55.78 144.64 54.59Z"/><path d="M19 78 C162 98,161 66,323 114" stroke="#57da78" fill="none"/><path d="M7 102 C172 25,163 127,322 68" stroke="#b74cdb" fill="none"/><path d="M1 71 C168 96,183 26,322 51" stroke="#e3b78c" fill="none"/><path d="M15 57 C157 113,152 77,336 89" stroke="#6cd449" fill="none"/><path d="M12 81 C177 65,188 30,336 95" stroke="#bde24f" fill="none"/><path d="M10 56 C169 26,188 128,332 62" stroke="#8a6ce4" fill="none"/><path d="M2 111 C179 132,178 109,333 23" stroke="#65a3e0" fill="none"/><path fill="#87baec" d="M266.17 77.99L266.26 78.08L266.12 77.94Q262.56 77.71 260.15 80.49L260.18 80.52L260.24 80.58Q257.71 83.24 257.34 86.94L257.35 86.96L257.39 86.99Q257.04 91.09 259.15 92.98L259.07 92.90L259.12 92.95Q261.25 94.85 265.32 94.63L265.20 94.50L265.35 94.66Q269.28 94.22 271.43 92.88L271.49 92.95L271.43 92.89Q273.72 90.80 273.72 87.76L273.83 87.88L273.67 87.71Q273.83 87.13 273.68 86.39L273.56 86.27L273.67 86.38Q273.83 83.13 271.68 80.50L271.60 80.42L271.60 80.42Q269.36 77.70 266.10 77.92ZM265.27 99.55L265.29 99.56L265.42 99.69Q256.83 99.63 254.09 98.14L254.06 98.11L254.04 98.09Q252.11 96.68 251.74 93.35L251.71 93.32L251.70 93.31Q251.71 92.06 251.78 90.65L251.64 90.51L251.72 90.59Q251.87 88.59 251.87 87.70L251.96 87.79L251.93 87.76Q252.87 82.26 253.17 80.92L253.05 80.80L253.19 80.94Q253.97 77.06 255.60 74.32L255.76 74.47L255.68 74.39Q260.86 65.87 272.42 53.49L272.33 53.39L272.50 53.57Q277.68 52.97 281.98 51.41L281.80 51.23L281.86 51.29Q268.48 65.77 262.25 74.00L262.36 74.11L262.24 73.98Q264.25 73.10 266.77 73.10L266.83 73.17L266.78 73.11Q273.30 73.19 276.26 76.97L276.22 76.92L276.27 76.97Q278.77 80.07 279.44 86.96L279.51 87.03L279.42 86.94Q279.68 88.47 279.68 89.65L279.60 89.57L279.66 89.62Q279.55 95.59 275.25 97.67L275.34 97.76L275.24 97.66Q272.88 98.85 265.32 99.60ZM269.89 104.38L269.78 104.27L269.73 104.22Q272.31 104.21 276.16 104.35L276.11 104.30L276.21 104.40Q279.32 104.47 282.36 103.07L282.32 103.04L282.37 103.08Q284.54 101.55 284.54 98.07L284.61 98.13L284.56 98.08Q284.58 97.14 284.24 95.21L284.28 95.24L284.27 95.24Q283.86 93.23 283.86 92.34L283.94 92.43L283.92 92.41Q282.12 83.12 279.00 79.41L279.00 79.41L279.07 79.48Q278.90 79.24 278.61 78.79L278.66 78.84L278.11 78.44L277.98 78.39L277.80 78.21Q277.24 77.35 276.05 75.50L276.07 75.51L276.10 75.55Q274.34 73.71 270.49 72.82L270.36 72.69L270.43 72.77Q272.70 69.55 278.48 62.36L278.65 62.53L286.72 52.08L286.78 52.14Q283.73 53.83 279.06 55.31L279.11 55.37L279.13 55.39Q280.87 53.42 284.35 49.56L284.28 49.49L284.37 49.58Q279.69 51.64 272.13 52.75L272.15 52.77L272.05 52.67Q260.92 64.15 255.14 73.78L255.16 73.79L255.28 73.92Q252.24 78.73 251.13 90.88L251.20 90.96L251.07 90.83Q250.92 91.93 251.07 93.79L251.05 93.77L251.23 93.95Q251.33 97.31 253.48 99.09L253.44 99.05L253.46 99.07Q254.14 99.30 254.07 99.38L254.04 99.35L254.15 99.46Q254.78 101.13 256.34 101.95L256.36 101.97L256.48 102.09Q259.27 103.39 263.05 103.76L262.95 103.67L262.97 103.69Q263.06 103.78 269.88 104.37ZM269.33 82.41L269.41 82.49L269.35 82.43Q270.55 82.30 272.40 83.26L272.43 83.28L272.34 83.20Q272.92 84.97 272.92 86.23L273.06 86.36L272.97 86.27Q273.36 89.93 271.51 91.85L271.44 91.78L271.59 91.93Q269.37 93.19 265.29 93.79L265.37 93.86L265.40 93.89Q262.52 93.83 261.49 93.31L261.52 93.34L261.61 93.43Q261.19 92.50 261.19 91.91L261.24 91.95L261.21 91.92Q260.67 85.46 266.37 82.94L266.33 82.90L266.39 82.96Q267.88 82.29 269.36 82.44Z"/><path d="M1 59 C159 13,191 14,340 73" stroke="#e980cf" fill="none"/><path d="M21 61 C173 14,174 101,337 79" stroke="#3be18e" fill="none"/><path d="M20 22 C190 96,188 119,328 81" stroke="#4fd871" fill="none"/><path d="M15 125 C161 15,152 131,324 6" stroke="#bc88f1" fill="none"/><path d="M11 44 C186 112,168 30,329 116" stroke="#a68fe9" fill="none"/><path d="M14 59 C151 55,171 78,336 112" stroke="#e4cc85" fill="none"/><path d="M11 79 C181 89,166 105,339 18" stroke="#e877cc" fill="none"/><path d="M19 59 C179 37,180 47,336 51" stroke="#bfe698" fill="none"/><path d="M19 52 C170 78,179 73,335 117" stroke="#84d968" fill="none"/><path d="M19 122 C163 35,184 6,331 125" stroke="#aadd78" fill="none"/><path d="M9 104 C151 20,163 131,322 137" stroke="#65e03c" fill="none"/><path d="M6 20 C174 42,152 44,336 132" stroke="#dec372" fill="none"/><path d="M2 32 C173 40,185 93,326 28" stroke="#dede71" fill="none"/><path d="M10 29 C161 58,190 75,325 64" stroke="#6c6cda" fill="none"/><path d="M11 2 C183 127,187 29,323 62" stroke="#82e782" fill="none"/></svg>