<svg xmlns="http://www.w3.org/2000/svg" width="342" height="140" viewBox="0,0,342,140"><path d="M6 54 C178 87,157 2,329 78" stroke="#dd6868" fill="none"/><path fill="#de663f" d="M144.27 91.25L144.14 91.12L144.27 91.24Q144.70 92.80 145.57 96.11L145.70 96.24L145.69 96.23Q138.64 93.93 131.07 94.37L131.19 94.49L131.02 94.32Q123.49 94.73 116.92 97.98L117.11 98.17L117.06 98.13Q117.42 96.98 117.48 97.10L117.45 97.08L117.56 97.18Q123.61 90.60 130.05 83.35L129.93 83.22L129.94 83.23Q137.23 75.08 139.17 67.39L139.17 67.39L139.26 67.48Q139.94 64.53 137.84 62.59L137.95 62.70L137.81 62.55Q135.87 60.77 132.93 61.02L132.80 60.89L132.77 60.86Q132.22 60.82 131.66 60.82L131.74 60.90L131.76 60.91Q129.23 60.89 127.17 62.39L127.09 62.31L127.07 62.29Q124.95 64.55 125.32 68.92L125.44 69.04L125.38 68.98Q122.38 68.36 120.38 67.61L120.48 67.71L120.41 67.64Q120.09 65.31 119.96 62.94L119.99 62.96L120.03 63.00Q119.80 60.21 120.80 58.34L120.82 58.35L120.86 58.39Q123.78 56.12 129.29 56.12L129.41 56.25L132.23 56.20L132.12 56.08Q136.06 56.33 137.62 56.52L137.54 56.44L137.54 56.43Q144.57 57.02 145.01 61.03L145.07 61.09L145.16 61.18Q145.16 62.00 145.04 63.31L145.03 63.31L145.07 63.34Q145.06 64.45 144.81 65.58L144.88 65.65L144.83 65.60Q142.16 78.95 129.72 90.20L129.61 90.09L129.63 90.12Q132.05 89.97 134.30 89.97L134.13 89.80L134.27 89.94Q139.54 89.89 144.23 91.21ZM143.31 57.01L143.30 57.00L143.36 57.07Q140.60 55.87 137.79 55.75L137.88 55.84L132.29 55.56L132.25 55.52Q124.81 54.96 121.18 56.78L121.27 56.87L121.34 56.93Q119.44 59.03 119.44 62.41L119.46 62.44L119.47 62.44Q119.55 63.65 120.05 68.28L120.11 68.33L120.08 68.31Q120.89 68.62 122.83 69.12L122.92 69.21L122.85 70.83L122.90 70.88Q122.81 71.60 122.93 72.48L123.06 72.60L123.06 72.60Q125.05 72.72 129.12 73.09L129.18 73.15L129.17 73.14Q129.10 72.51 129.10 71.95L128.93 71.78L128.98 71.83Q129.01 68.86 131.01 66.64L130.94 66.57L131.12 66.74Q132.99 64.40 135.93 64.58L135.90 64.55L135.95 64.60Q137.27 64.73 138.52 64.98L138.46 64.92L138.40 64.87Q138.63 65.53 138.76 66.22L138.74 66.21L138.70 66.17Q138.85 66.94 138.72 67.50L138.80 67.58L138.81 67.59Q136.68 75.34 129.43 83.28L129.42 83.28L129.30 83.16Q125.82 86.87 116.88 96.82L117.00 96.94L116.88 96.82Q116.72 98.35 116.16 99.29L116.03 99.16L116.01 99.14Q118.72 97.78 121.22 96.91L121.22 96.91L121.28 96.96Q120.11 97.92 118.55 100.36L118.41 100.22L118.51 100.32Q118.17 100.74 117.99 101.30L118.11 101.43L118.13 101.44Q126.01 97.94 135.02 98.26L135.06 98.30L135.01 98.24Q144.44 98.61 151.95 102.49L151.85 102.39L150.28 98.94L150.34 99.00Q149.31 96.86 148.88 95.54L148.79 95.46L148.79 95.45Q147.60 94.77 145.60 94.08L145.68 94.16L145.70 94.17Q145.37 92.91 144.74 90.66L144.75 90.66L144.77 90.69Q141.13 89.74 137.38 89.42L137.41 89.45L137.37 89.41Q145.07 81.91 147.57 68.34L147.54 68.31L147.76 63.47L147.88 63.58Q147.77 60.66 145.76 59.53L145.82 59.58L145.68 59.51L145.76 59.59Q145.67 59.44 145.55 59.44L145.41 59.30L145.56 59.45Q145.04 57.93 143.22 56.93Z"/><path d="M13 26 C157 89,186 70,321 117" stroke="#78d958" fill="none"/><path d="M12 88 C174 110,160 29,322 53" stroke="#c772e3" fill="none"/><path d="M20 105 C186 45,187 102,326 50" stroke="#e28ccd" fill="none"/><path d="M16 43 C176 30,174 36,325 13" stroke="#de6785" fill="none"/><path d="M12 61 C155 115,183 100,336 53" stroke="#e6c565" fill="none"/><path d="M19 2 C191 80,188 129,324 16" stroke="#d7ef8f" fill="none"/><path d="M12 83 C167 135,162 47,341 108" stroke="#e5d094" fill="none"/><path d="M14 117 C188 123,165 34,330 95" stroke="#4545e6" fill="none"/><path d="M5 118 C161 125,163 111,337 103" stroke="#6bbfdb" fill="none"/><path fill="#7fd0eb" d="M261.76 95.16L261.78 95.18L261.85 95.25Q259.48 95.32 256.92 94.63L256.96 94.67L256.86 94.57Q255.00 93.22 254.75 90.53L254.73 90.51L254.77 90.54Q254.67 90.20 254.99 85.88L254.92 85.82L254.92 85.82Q256.69 85.59 260.01 84.96L259.96 84.92L259.58 86.10L259.67 86.18Q259.23 89.07 261.55 90.01L261.55 90.01L261.53 89.99Q262.85 90.55 266.29 90.55L266.25 90.51L266.28 90.55Q268.79 90.18 269.10 90.05L269.23 90.18L269.23 90.18Q270.65 89.85 271.84 89.04L271.87 89.07L271.78 88.98Q274.15 87.47 273.84 84.04L273.80 84.00L273.90 84.10Q273.62 80.13 270.78 77.56L270.75 77.53L270.67 77.45Q267.88 74.95 263.82 74.95L263.80 74.94L263.77 74.53L263.75 74.50Q264.44 74.51 265.87 74.38L265.87 74.37L265.83 74.34Q269.00 74.20 271.26 72.16L271.16 72.07L271.25 72.16Q273.57 70.20 273.83 67.13L273.72 67.03L273.65 66.96Q273.78 66.41 273.78 65.84L273.95 66.00L273.87 65.93Q273.88 63.43 271.62 61.93L271.68 61.99L271.65 61.96Q269.64 60.64 267.01 60.82L266.94 60.75L267.04 60.85Q264.78 60.47 262.78 61.15L262.92 61.29L262.84 61.22Q260.50 62.13 260.00 64.01L259.96 63.97L260.03 64.03Q259.68 65.25 259.81 66.50L259.88 66.58L259.90 66.60Q258.16 66.16 254.78 64.97L254.82 65.01L254.67 64.87Q254.34 62.16 254.40 60.78L254.45 60.83L254.48 60.86Q254.66 58.36 256.41 57.23L256.42 57.23L256.36 57.17Q258.72 56.22 261.35 56.22L261.26 56.14L261.25 56.12Q266.53 56.15 271.72 56.58L271.62 56.49L271.67 56.54Q280.06 57.29 279.56 63.49L279.42 63.34L279.56 63.48Q279.31 65.80 278.49 68.36L278.56 68.42L278.50 68.37Q276.99 73.42 273.11 74.92L273.21 75.02L273.25 75.07Q277.57 75.94 278.57 81.45L278.44 81.32L278.56 81.44Q278.88 83.26 279.01 86.58L279.09 86.66L279.02 86.58Q279.29 93.93 271.73 94.68L271.77 94.73L271.76 94.72Q270.43 94.70 261.73 95.13ZM270.36 98.88L270.43 98.95L270.37 98.89Q271.42 99.01 276.11 99.13L276.04 99.05L276.01 99.03Q278.92 99.18 281.61 98.12L281.63 98.14L281.73 98.24Q283.52 96.53 283.21 93.65L283.16 93.60L283.31 93.75Q283.08 91.52 282.58 88.64L282.57 88.64L282.48 88.55Q281.43 81.31 278.24 78.62L278.19 78.56L277.94 78.00L277.87 77.87L277.82 77.82Q280.72 75.47 281.97 68.27L281.98 68.29L281.87 68.18Q281.98 67.47 282.16 65.90L282.28 66.02L282.23 65.97Q282.22 64.59 282.10 63.46L282.16 63.52L282.18 63.54Q281.93 60.79 279.80 59.66L279.82 59.69L279.73 59.72L279.69 59.68Q279.15 58.02 277.28 57.14L277.30 57.16L277.38 57.25Q274.85 56.09 266.40 55.59L266.40 55.58L266.28 55.46Q263.55 55.36 260.93 55.36L261.06 55.49L260.97 55.41Q258.43 55.49 255.93 56.56L255.90 56.53L255.79 56.42Q253.92 57.80 253.92 60.67L253.91 60.67L253.94 60.69Q253.93 59.99 254.36 65.50L254.31 65.44L254.34 65.47Q254.84 65.60 257.53 66.60L257.46 66.53L257.49 66.56Q257.52 67.46 257.46 68.28L257.49 68.31L257.45 68.27Q257.42 69.05 257.48 69.93L257.55 69.99L257.40 69.85Q260.38 70.51 263.69 70.70L263.69 70.70L263.79 70.80Q263.56 67.37 265.37 66.00L265.41 66.04L265.51 66.14Q266.77 64.96 270.09 64.59L270.18 64.68L270.20 64.70Q272.00 64.62 272.93 64.93L272.85 64.84L272.85 64.85Q273.07 65.20 273.14 65.38L272.99 65.24L272.99 65.55L273.27 66.58L273.17 66.48Q273.21 66.84 273.15 67.09L273.18 67.11L273.17 67.10Q273.00 69.88 270.50 71.81L270.47 71.79L270.49 71.80Q269.02 73.33 265.70 73.65L265.65 73.59L265.79 73.73Q264.50 73.89 263.07 73.89L263.14 73.96L263.07 73.89Q263.09 74.41 263.34 75.54L263.50 75.70L263.52 75.71Q266.31 75.63 268.68 76.81L268.63 76.76L268.48 76.80L265.98 77.17L265.91 77.10Q266.02 77.72 266.21 78.72L266.24 78.75L266.14 78.65Q269.70 78.58 272.52 80.77L272.45 80.71L272.43 80.68Q272.92 81.43 273.42 84.12L273.31 84.01L273.36 84.05Q273.66 88.86 268.85 89.55L268.83 89.53L268.81 89.51Q265.51 90.09 264.57 90.03L264.51 89.96L264.56 90.01Q263.65 89.67 262.78 89.55L262.79 89.56L262.97 88.98L263.11 88.19L263.08 87.48L263.16 86.99L263.19 87.02Q261.57 87.09 260.26 87.40L260.31 87.46L260.30 87.45Q260.29 87.12 260.29 86.80L260.21 86.73L260.18 86.70Q260.35 86.50 260.35 86.12L260.23 86.00L260.27 86.04Q260.29 85.31 260.54 84.12L260.64 84.22L260.61 84.19Q257.46 84.48 254.40 85.05L254.58 85.23L254.49 85.14Q254.44 85.90 254.25 87.75L254.21 87.70L254.32 87.82Q254.20 89.73 254.20 90.73L254.12 90.65L254.18 90.70Q254.32 94.10 256.57 95.35L256.47 95.25L256.51 95.29Q258.86 98.95 266.61 98.64L266.68 98.71L266.74 98.76Q267.79 98.56 270.29 98.81Z"/><path d="M3 54 C190 58,172 117,340 64" stroke="#ea7070" fill="none"/><path d="M15 90 C182 129,159 36,324 5" stroke="#8564e6" fill="none"/><path d="M5 47 C164 99,191 78,323 111" stroke="#5656e5" fill="none"/><path fill="#75df75" d="M205.59 73.65L205.53 73.59L205.41 73.47Q206.85 73.60 209.16 73.35L209.11 73.30L209.06 73.25Q209.05 74.36 209.05 75.42L209.07 75.45L209.03 77.47L209.13 77.57Q207.66 77.47 206.28 77.60L206.26 77.57L206.23 77.54Q204.97 77.72 203.59 77.66L203.47 77.54L203.59 77.66Q198.78 87.67 193.15 95.24L193.34 95.42L193.28 95.37Q189.05 96.33 186.92 97.33L187.05 97.46L187.05 97.46Q193.76 88.02 198.76 77.71L198.83 77.78L194.45 77.71L194.51 77.77Q194.40 75.48 194.22 73.29L194.17 73.24L194.26 73.33Q197.39 73.58 200.77 73.58L200.73 73.54L203.86 67.49L203.79 67.42Q205.55 64.42 207.56 61.80L207.55 61.79L207.45 61.69Q204.87 61.92 202.24 61.92L202.28 61.96L202.29 61.97Q192.29 61.98 186.10 58.35L186.08 58.34L185.02 55.53L185.04 55.55Q184.41 54.10 183.79 52.67L183.91 52.78L183.91 52.79Q191.05 57.11 200.43 57.48L200.41 57.47L200.40 57.45Q208.75 57.73 217.19 54.48L217.30 54.59L217.27 54.56Q216.89 55.19 216.08 56.62L216.20 56.75L216.13 56.67Q210.17 64.47 205.48 73.54ZM218.82 58.99L218.86 59.03L220.37 55.60L220.40 55.63Q218.82 56.43 216.07 57.61L216.08 57.63L216.40 57.14L216.41 57.14Q216.47 56.77 216.66 56.58L216.71 56.63L216.77 56.69Q217.46 55.63 218.65 53.44L218.52 53.31L218.63 53.42Q209.78 57.08 200.34 56.70L200.39 56.75L200.36 56.73Q190.46 56.27 182.64 51.39L182.67 51.42L182.72 51.47Q184.34 54.47 185.72 58.85L185.65 58.78L185.82 58.95Q187.62 60.00 188.93 60.50L188.86 60.43L188.83 60.40Q189.18 61.06 189.93 64.13L189.84 64.04L189.84 64.03Q195.02 66.08 204.09 65.83L204.04 65.79L204.17 65.91Q203.53 66.72 200.28 72.91L200.45 73.08L200.34 72.97Q197.00 73.01 193.75 72.69L193.68 72.63L193.79 72.73Q193.88 74.08 193.88 75.51L193.82 75.45L193.83 78.28L196.58 78.28L196.58 80.60L196.71 80.73Q190.23 92.82 185.67 98.70L185.68 98.71L185.58 98.62Q188.30 97.45 190.99 96.64L190.96 96.61L190.85 96.50Q189.79 98.07 187.54 100.88L187.52 100.86L187.54 100.89Q192.82 99.16 196.82 98.78L196.66 98.62L196.67 98.63Q201.54 92.50 206.67 81.37L206.77 81.46L212.32 81.70L212.24 81.62Q212.28 80.28 212.28 78.78L212.18 78.68L212.24 75.80L212.14 75.71Q211.85 75.85 210.94 75.91L210.76 75.73L210.85 75.82Q209.90 75.84 209.46 75.84L209.57 75.95L209.41 75.78Q209.47 75.66 209.53 75.41L209.52 75.40L209.52 74.96L209.52 74.96Q213.64 66.51 218.71 58.88Z"/><path d="M2 133 C159 130,189 96,333 76" stroke="#de6cde" fill="none"/><path d="M2 121 C178 2,184 69,334 16" stroke="#91ed72" fill="none"/><path d="M6 99 C168 89,169 71,322 4" stroke="#e17c5a" fill="none"/><path d="M10 103 C152 110,174 138,339 108" stroke="#b8db51" fill="none"/><path d="M19 105 C176 125,152 37,322 78" stroke="#e7bc92" fill="none"/><path d="M9 78 C169 94,181 89,333 35" stroke="#e86868" fill="none"/><path d="M8 137 C183 50,173 82,333 126" stroke="#7552df" fill="none"/><path d="M2 8 C187 113,179 9,327 22" stroke="#ea93a9" fill="none"/><path d="M2 34 C151 61,162 29,339 116" stroke="#88ebeb" fill="none"/><path d="M3 56 C152 66,182 81,330 8" stroke="#ed77ed" fill="none"/><path d="M10 71 C190 49,183 59,335 127" stroke="#3ae791" fill="none"/><path d="M4 45 C173 15,173 85,325 87" stroke="#e0a86f" fill="none"/><path d="M6 61 C169 110,159 114,332 68" stroke="#b282e2" fill="none"/><path d="M8 17 C164 57,168 50,328 37" stroke="#f088a2" fill="none"/><path d="M17 96 C171 49,169 12,334 90" stroke="#e86d6d" fill="none"/><path d="M11 108 C181 128,165 127,334 30" stroke="#e57ae5" fill="none"/><path d="M13 94 C182 19,151 73,323 29" stroke="#e14bbc" fill="none"/><path d="M14 51 C171 121,168 17,321 95" stroke="#48bde4" fill="none"/><path d="M5 93 C157 62,166 39,341 52" stroke="#7ce37c" fill="none"/><path d="M7 136 C172 103,162 117,338 68" stroke="#7e5aeb" fill="none"/><path d="M2 94 C176 116,181 19,333 100" stroke="#d8d854" fill="none"/><path d="M3 92 C185 83,158 46,335 55" stroke="#53e878" fill="none"/><path d="M5 78 C152 97,180 96,340 86" stroke="#c9e475" fill="none"/><path d="M17 39 C185 97,167 59,328 123" stroke="#ea7aea" fill="none"/><path d="M19 47 C175 2,174 85,339 81" stroke="#9ee259" fill="none"/><path d="M18 13 C180 64,160 1,341 80" stroke="#e9e976" fill="none"/><path fill="#7575ea" d="M56.81 83.11L56.86 83.16L56.83 83.13Q61.80 82.40 67.05 82.59L67.18 82.72L67.19 82.73Q66.97 78.38 66.97 74.44L67.12 74.59L67.05 74.52Q67.09 70.49 67.40 66.30L67.42 66.32L67.43 66.33Q65.32 69.04 56.75 83.05ZM73.13 95.24L73.05 95.15L73.12 95.22Q70.27 94.63 67.33 94.51L67.39 94.56L67.27 94.45Q66.98 90.59 66.79 86.52L66.88 86.61L66.88 86.62Q58.06 86.24 50.31 88.55L50.37 88.61L50.40 88.64Q50.49 87.73 50.80 86.11L50.87 86.17L50.86 86.17Q53.79 80.96 59.67 70.64L59.68 70.66L59.69 70.67Q64.46 62.68 70.09 56.30L70.11 56.31L69.94 56.15Q71.51 55.97 74.26 55.53L74.22 55.49L74.19 55.46Q71.05 66.02 71.05 77.59L71.07 77.61L71.08 77.61Q71.17 80.14 71.29 82.58L71.25 82.53L73.39 82.74L73.40 82.75Q74.36 82.77 75.36 82.96L75.39 82.99L75.33 82.92Q75.44 84.47 75.87 87.66L75.88 87.67L76.01 87.80Q73.94 87.29 71.50 86.98L71.50 86.98L71.60 87.08Q71.90 90.32 73.03 95.13ZM75.73 82.27L75.75 82.28L75.87 82.40Q75.48 82.20 75.17 82.20L75.18 82.22L74.54 82.20L74.48 82.14Q74.38 79.79 74.38 77.48L74.31 77.41L74.26 77.36Q74.29 66.87 77.66 56.99L77.70 57.03L77.81 57.14Q76.46 57.48 74.08 58.10L74.06 58.08L74.20 58.21Q74.44 56.84 75.19 54.52L75.30 54.63L75.26 54.59Q73.05 55.13 69.67 55.51L69.79 55.62L69.79 55.63Q63.34 62.75 54.78 78.13L54.62 77.97L58.17 72.08L58.20 72.12Q57.44 73.74 57.01 74.67L57.09 74.75L49.74 89.55L49.70 89.50Q50.70 89.19 52.57 88.56L52.65 88.65L52.37 88.99L52.45 89.06Q52.19 90.12 51.69 92.18L51.65 92.14L51.68 92.18Q58.54 90.09 66.48 90.40L66.43 90.35L66.50 90.42Q66.44 91.86 66.75 95.12L66.68 95.04L66.83 95.19Q68.55 95.16 70.30 95.35L70.35 95.40L70.30 95.34Q70.54 96.46 70.97 98.71L71.02 98.75L71.00 98.74Q74.20 99.18 79.14 100.68L79.06 100.60L79.14 100.68Q77.44 97.11 75.94 91.73L76.00 91.79L78.36 92.52L78.20 92.37Q79.37 92.78 80.49 93.34L80.50 93.35L80.58 93.43Q79.27 89.31 79.02 86.55L79.05 86.58L78.96 86.49Q77.95 86.17 76.08 85.80L76.11 85.83L76.17 85.90Q75.87 83.84 75.87 82.40ZM62.73 82.15L62.62 82.04L62.58 82.00Q63.97 80.01 66.54 75.82L66.47 75.76L66.48 75.77Q66.48 77.33 66.42 78.90L66.37 78.84L66.31 78.79Q66.44 80.54 66.50 82.10L66.38 81.98L66.41 82.01Q65.60 82.08 64.66 82.08L64.58 82.00L64.59 82.00Q63.73 82.15 62.73 82.15Z"/><path d="M14 87 C167 19,152 50,334 63" stroke="#48bde4" fill="none"/></svg>