<svg xmlns="http://www.w3.org/2000/svg" width="342" height="140" viewBox="0,0,342,140"><path d="M8 93 C170 94,180 72,323 54" stroke="#3bdcdc" fill="none"/><path d="M4 18 C190 91,168 32,331 117" stroke="#d38fe9" fill="none"/><path d="M1 117 C155 129,151 63,330 108" stroke="#65dc65" fill="none"/><path d="M7 113 C189 130,158 104,330 74" stroke="#3965e9" fill="none"/><path d="M12 128 C173 14,165 55,325 70" stroke="#ed8181" fill="none"/><path d="M8 24 C168 106,180 25,338 60" stroke="#8a6aea" fill="none"/><path d="M19 102 C181 69,191 30,330 66" stroke="#97e797" fill="none"/><path d="M2 43 C151 45,180 139,324 29" stroke="#66dfdf" fill="none"/><path d="M10 106 C155 8,186 130,330 44" stroke="#e14bbc" fill="none"/><path d="M10 121 C153 52,161 63,332 49" stroke="#72a8de" fill="none"/><path d="M14 17 C190 101,158 83,338 63" stroke="#a6e98f" fill="none"/><path fill="#eb9a7f" d="M218.43 92.43L218.48 92.47L218.51 92.51Q212.59 92.88 211.14 89.48L211.17 89.51L211.20 89.54Q212.19 88.02 214.47 85.40L214.44 85.36L214.54 85.47Q215.26 88.41 219.66 88.58L219.68 88.60L219.60 88.52Q224.55 88.62 226.95 86.67L227.07 86.79L226.97 86.69Q228.98 84.30 228.87 80.34L229.02 80.50L228.87 80.34Q228.81 73.09 221.79 73.43L221.73 73.37L221.65 73.29Q217.50 73.48 214.93 75.32L214.99 75.38L214.48 75.09L214.16 74.89L214.18 74.91Q214.68 70.28 214.51 66.26L214.65 66.40L214.57 66.32Q214.34 62.41 213.84 57.56L213.95 57.67L213.90 57.62Q219.21 58.97 224.78 58.81L224.76 58.78L224.83 58.86Q230.34 58.68 235.58 56.84L235.62 56.88L234.78 59.11L234.84 59.17Q234.28 60.17 234.01 61.40L234.11 61.50L234.10 61.49Q229.56 63.02 223.87 63.02L223.86 63.01L223.85 63.00Q221.63 62.91 219.46 62.68L219.54 62.76L219.50 62.72Q219.36 63.69 218.85 70.21L218.84 70.20L218.98 70.34Q220.16 69.62 223.17 69.40L223.13 69.36L223.10 69.33Q228.65 69.76 230.77 72.21L230.76 72.20L230.68 72.12Q232.74 74.40 233.13 80.03L233.05 79.95L233.06 79.96Q233.46 86.10 231.68 89.06L231.74 89.12L231.81 89.19Q228.69 91.81 223.84 92.15L223.95 92.26L223.89 92.20Q222.33 92.20 218.43 92.42ZM227.48 95.95L227.47 95.94L227.42 95.89Q232.33 95.90 235.12 94.28L235.19 94.35L235.22 94.38Q236.64 92.13 236.64 89.06L236.59 89.01L236.74 89.16Q236.67 84.58 235.28 78.56L235.24 78.52L235.19 78.47Q234.60 75.87 232.81 73.81L232.90 73.90L232.90 73.95L232.56 73.49L232.10 73.26L232.20 73.36Q231.67 72.22 230.72 71.21L230.79 71.28L230.64 71.19L230.75 71.30Q228.44 68.76 223.03 68.76L223.05 68.78L222.66 68.79L222.79 68.91Q222.75 67.92 223.03 66.31L223.06 66.34L223.09 66.37Q230.41 66.55 236.32 64.15L236.22 64.06L236.22 64.05Q236.93 62.09 238.33 57.97L238.33 57.98L235.27 59.37L235.34 59.44Q235.82 57.70 236.55 56.02L236.52 55.99L236.52 55.99Q230.84 58.06 224.82 58.17L224.82 58.18L224.95 58.30Q218.79 58.33 212.99 56.71L213.11 56.83L213.02 56.74Q213.97 63.16 213.97 69.62L214.10 69.75L214.02 69.68Q214.07 72.51 213.90 75.29L213.86 75.26L213.81 75.20Q214.25 75.54 215.09 75.98L215.03 75.93L215.05 75.95Q215.67 75.72 216.61 75.22L216.56 75.16L216.64 75.25Q216.52 76.30 216.19 78.53L216.27 78.61L216.20 78.54Q216.79 78.79 217.40 79.13L217.36 79.09L217.43 79.16Q221.46 76.56 224.19 76.56L224.27 76.63L224.18 76.54Q226.12 76.54 227.85 77.48L227.86 77.49L227.88 77.51Q228.39 79.02 228.44 80.42L228.38 80.36L228.48 80.46Q228.54 84.19 227.03 85.81L227.00 85.77L226.98 85.75Q225.13 87.69 221.84 88.03L221.81 88.00L221.74 87.93Q220.31 88.01 219.31 87.89L219.29 87.88L219.45 88.04Q218.17 87.81 217.05 87.31L217.02 87.27L216.89 86.87L216.85 87.17L216.84 87.16Q215.59 86.35 214.81 84.40L214.79 84.38L214.83 84.42Q212.90 86.50 210.45 89.63L210.37 89.55L210.53 89.71Q210.89 90.57 212.12 91.97L212.11 91.96L212.16 92.01Q213.64 94.60 217.77 95.33L217.73 95.29L217.86 95.42Q219.53 95.69 227.39 95.86Z"/><path d="M5 44 C161 11,170 40,325 11" stroke="#68dda3" fill="none"/><path d="M7 28 C192 25,167 138,338 112" stroke="#e0e06a" fill="none"/><path d="M5 132 C161 14,163 65,340 137" stroke="#5edede" fill="none"/><path fill="#eeb780" d="M165.74 76.13L165.73 76.13L165.78 76.17Q163.08 76.21 161.30 78.16L161.31 78.18L161.23 78.10Q159.50 80.10 159.28 82.88L159.31 82.92L159.12 82.73Q158.89 85.90 160.67 87.37L160.73 87.43L160.62 87.33Q162.50 88.89 165.62 88.78L165.68 88.85L165.59 88.75Q168.98 88.52 170.38 87.13L170.36 87.12L170.42 87.17Q171.84 84.97 171.68 82.29L171.76 82.38L171.66 82.28Q171.51 79.56 169.92 77.81L170.06 77.94L170.01 77.90Q168.37 76.09 165.70 76.09ZM165.64 62.27L165.76 62.38L165.58 62.21Q163.71 62.23 161.76 62.96L161.63 62.83L161.64 62.84Q159.81 64.08 160.15 66.81L160.19 66.85L160.18 66.85Q160.77 72.17 165.67 72.17L165.78 72.28L165.73 72.22Q168.01 72.50 169.46 70.83L169.39 70.75L169.43 70.79Q170.91 69.15 170.96 66.86L170.98 66.88L171.03 66.94Q171.16 64.39 170.10 63.49L169.99 63.38L170.03 63.43Q167.59 62.21 165.69 62.32ZM165.38 92.50L165.19 92.31L160.79 92.37L160.83 92.41Q158.67 92.47 156.71 91.19L156.62 91.10L156.71 91.18Q154.65 89.46 154.87 85.28L154.81 85.22L154.94 85.35Q155.59 75.29 160.88 73.84L160.93 73.89L160.80 73.76Q157.49 72.46 155.54 64.60L155.58 64.64L155.52 64.57Q155.05 62.55 155.16 61.38L155.15 61.37L155.17 61.38Q155.55 58.20 160.96 58.14L161.06 58.24L160.93 58.11Q167.27 58.15 169.39 58.43L169.29 58.34L169.21 58.26Q174.85 59.05 175.52 62.01L175.66 62.14L175.63 62.11Q175.76 62.97 175.76 63.53L175.71 63.48L175.76 63.53Q175.81 64.57 175.53 65.47L175.52 65.46L175.42 65.36Q174.65 71.67 170.36 73.90L170.21 73.75L170.21 73.75Q175.40 74.99 176.13 82.73L176.19 82.80L176.09 82.70Q176.21 83.04 176.27 84.93L176.20 84.87L176.21 84.88Q176.25 88.82 173.91 90.38L173.91 90.38L173.99 90.46Q172.02 91.79 165.34 92.45ZM168.57 95.75L168.62 95.79L173.64 96.02L173.57 95.96Q175.97 95.96 178.20 94.90L178.34 95.04L178.20 94.89Q179.94 93.91 180.06 91.18L180.13 91.25L180.07 91.20Q180.12 89.56 179.56 86.72L179.59 86.75L179.64 86.81Q178.13 79.83 175.07 77.10L175.09 77.13L174.86 76.61L174.66 76.31L174.31 75.79L174.28 75.76Q176.77 73.84 178.11 67.77L178.08 67.74L178.20 67.86Q178.19 67.29 178.30 66.06L178.27 66.03L178.22 65.98Q178.30 64.95 178.18 64.05L178.23 64.10L178.25 64.12Q178.04 62.02 176.32 61.29L176.32 61.30L176.25 61.17L176.08 61.12L176.07 61.10Q175.60 59.96 173.87 58.79L174.01 58.93L174.07 58.93L173.99 58.86Q171.07 57.83 165.10 57.55L165.14 57.59L165.09 57.54Q162.87 57.44 160.87 57.61L160.79 57.53L160.91 57.64Q159.63 57.60 157.74 57.82L157.84 57.92L157.68 57.76Q154.92 58.40 154.58 60.80L154.52 60.73L154.61 60.82Q154.53 61.53 154.59 62.70L154.58 62.69L154.59 62.70Q154.75 63.47 155.58 66.93L155.53 66.87L155.66 67.00Q156.68 71.59 159.24 73.54L159.32 73.62L159.46 73.75L159.47 73.77Q155.37 75.63 154.59 83.22L154.50 83.12L154.53 83.15Q154.21 86.35 154.21 87.69L154.39 87.86L154.23 87.71Q154.46 90.44 156.18 91.78L156.23 91.83L156.16 91.76Q156.28 91.82 156.67 92.10L156.68 92.10L156.62 92.04Q158.24 95.50 168.66 95.84ZM168.06 79.52L168.10 79.55L168.20 79.65Q169.46 79.47 170.75 80.14L170.84 80.23L170.74 80.13Q171.39 81.68 171.34 82.46L171.26 82.38L171.28 82.40Q171.27 82.78 171.27 83.22L171.25 83.21L171.38 83.34Q171.38 86.80 168.04 88.02L167.99 87.97L167.99 87.98Q166.88 88.48 165.71 88.31L165.68 88.29L165.56 88.17Q164.02 88.41 162.35 87.74L162.39 87.78L162.30 87.69Q161.99 86.83 162.11 85.38L162.00 85.27L162.08 85.36Q162.27 82.98 164.02 81.19L164.12 81.29L164.06 81.23Q165.88 79.51 168.22 79.67ZM168.55 65.79L168.52 65.76L168.56 65.80Q169.65 65.55 170.43 65.77L170.39 65.73L170.50 67.02L170.38 66.90Q170.45 69.03 169.11 70.51L169.16 70.56L169.03 70.42Q167.72 71.93 165.71 71.65L165.81 71.74L165.73 71.67Q164.34 71.72 163.72 71.39L163.76 71.42L163.74 71.40Q163.63 70.96 163.47 69.96L163.39 69.89L163.38 69.87Q163.14 67.97 164.93 66.74L164.77 66.58L164.93 66.74Q166.35 65.60 168.41 65.65Z"/><path fill="#d5b557" d="M120.74 88.98L120.65 88.88L120.69 88.92Q121.15 90.39 121.93 93.34L121.82 93.23L121.82 93.23Q115.69 91.33 108.94 91.72L108.94 91.72L108.93 91.71Q102.27 92.13 96.41 95.03L96.50 95.12L96.51 95.12Q96.69 93.97 96.75 94.08L96.81 94.14L96.80 94.13Q102.20 88.27 107.94 81.80L108.00 81.86L108.04 81.90Q114.49 74.58 116.22 67.73L116.17 67.68L116.11 67.62Q116.84 65.12 114.97 63.39L115.10 63.51L115.03 63.44Q113.15 61.70 110.53 61.93L110.50 61.90L110.45 61.85Q109.93 61.78 109.43 61.78L109.44 61.79L109.57 61.92Q107.38 61.96 105.54 63.30L105.43 63.19L105.52 63.27Q103.57 65.23 103.91 69.13L103.83 69.05L103.89 69.12Q101.36 68.70 99.57 68.03L99.51 67.97L99.40 67.86Q99.23 65.91 99.12 63.79L99.09 63.76L99.13 63.80Q99.00 61.38 99.89 59.71L99.83 59.64L99.78 59.60Q102.53 57.72 107.43 57.72L107.37 57.65L110.00 57.72L110.02 57.74Q113.37 57.80 114.76 57.96L114.72 57.93L114.67 57.88Q120.98 58.44 121.37 62.01L121.42 62.06L121.44 62.08Q121.61 62.98 121.50 64.15L121.46 64.11L121.38 64.02Q121.36 65.01 121.13 66.01L121.12 65.99L121.17 66.04Q118.69 77.83 107.59 87.87L107.72 87.99L107.60 87.88Q109.76 87.75 111.76 87.75L111.81 87.79L111.72 87.71Q116.39 87.63 120.57 88.80ZM119.90 58.48L119.77 58.35L119.85 58.42Q117.40 57.37 114.89 57.26L114.95 57.31L109.88 56.99L110.05 57.16Q103.35 56.59 100.12 58.21L100.20 58.29L100.29 58.38Q98.55 60.21 98.55 63.22L98.74 63.41L98.62 63.29Q98.60 64.27 99.05 68.40L99.19 68.54L99.13 68.48Q100.00 68.90 101.73 69.35L101.67 69.29L101.61 70.74L101.73 70.85Q101.65 71.50 101.77 72.28L101.67 72.19L101.62 72.14Q103.54 72.39 107.17 72.72L107.11 72.66L107.20 72.76Q107.06 72.12 107.06 71.61L107.05 71.61L107.16 71.71Q107.18 69.06 108.96 67.08L108.91 67.03L108.90 67.01Q110.62 64.97 113.24 65.14L113.31 65.21L113.40 65.30Q114.51 65.35 115.62 65.57L115.51 65.46L115.48 65.43Q115.72 66.06 115.83 66.68L115.75 66.59L115.88 66.72Q115.93 67.33 115.82 67.83L115.81 67.82L115.66 67.67Q113.99 74.81 107.52 81.89L107.38 81.75L107.39 81.75Q104.36 85.14 96.39 94.00L96.29 93.90L96.38 93.99Q96.12 95.23 95.61 96.07L95.63 96.08L95.64 96.09Q98.01 94.84 100.24 94.06L100.14 93.96L100.09 93.91Q99.17 94.89 97.78 97.06L97.70 96.99L97.62 96.90Q97.53 97.48 97.36 97.98L97.27 97.89L97.40 98.02Q104.49 94.96 112.52 95.24L112.51 95.23L112.45 95.18Q120.77 95.41 127.46 98.87L127.50 98.91L126.14 95.88L126.03 95.77Q125.06 93.80 124.67 92.63L124.82 92.78L124.80 92.76Q123.63 92.03 121.84 91.42L121.93 91.50L121.98 91.55Q121.57 90.31 121.01 88.30L121.09 88.38L121.18 88.46Q117.98 87.66 114.63 87.38L114.54 87.29L114.45 87.20Q121.46 80.66 123.68 68.56L123.59 68.46L123.84 64.20L123.89 64.25Q123.81 61.66 122.02 60.66L122.03 60.67L121.89 60.58L121.85 60.54Q121.87 60.50 121.75 60.50L121.68 60.43L121.73 60.47Q121.39 59.24 119.77 58.35Z"/><path d="M11 49 C157 83,191 55,337 93" stroke="#ec82b7" fill="none"/><path d="M10 30 C179 74,187 15,323 6" stroke="#83f09e" fill="none"/><path d="M14 55 C183 96,167 63,329 116" stroke="#db5151" fill="none"/><path d="M4 65 C171 33,165 57,325 95" stroke="#e17450" fill="none"/><path d="M12 109 C151 81,155 102,335 14" stroke="#6e8dec" fill="none"/><path d="M21 13 C159 105,155 24,324 56" stroke="#d0eb7f" fill="none"/><path d="M6 76 C151 53,185 87,322 83" stroke="#66a0db" fill="none"/><path d="M3 98 C175 30,163 67,328 137" stroke="#e9ca6b" fill="none"/><path d="M7 31 C166 49,182 111,333 138" stroke="#bddf57" fill="none"/><path fill="#e19141" d="M279.09 76.15L279.06 76.12L279.15 76.21Q276.34 76.14 274.56 78.09L274.62 78.14L274.63 78.15Q272.68 79.95 272.46 82.73L272.64 82.92L272.49 82.76Q272.28 85.96 274.07 87.44L274.12 87.49L274.14 87.51Q275.93 88.99 279.05 88.88L278.93 88.76L278.86 88.69Q282.43 88.63 283.82 87.24L283.72 87.13L283.84 87.26Q285.22 85.01 285.05 82.34L285.11 82.39L285.05 82.34Q284.89 79.62 283.31 77.86L283.30 77.86L283.25 77.80Q281.72 76.11 279.05 76.11ZM278.98 62.27L279.02 62.31L278.98 62.28Q276.93 62.12 274.98 62.85L275.07 62.94L275.00 62.87Q273.15 64.08 273.48 66.81L273.37 66.70L273.48 66.81Q274.13 72.20 279.04 72.20L279.04 72.20L279.05 72.21Q281.34 72.49 282.79 70.82L282.83 70.86L282.77 70.80Q284.33 69.24 284.39 66.96L284.26 66.83L284.37 66.94Q284.33 64.23 283.27 63.34L283.30 63.36L283.39 63.45Q280.92 62.21 279.02 62.32ZM278.59 92.38L278.53 92.31L274.06 92.31L274.24 92.49Q272.01 92.49 270.06 91.20L270.00 91.15L270.04 91.18Q268.03 89.51 268.25 85.32L268.28 85.36L268.13 85.20Q268.93 75.30 274.22 73.85L274.13 73.76L274.12 73.75Q270.90 72.53 268.95 64.67L268.95 64.68L268.85 64.58Q268.29 62.46 268.41 61.29L268.41 61.30L268.39 61.27Q268.97 58.29 274.38 58.23L274.30 58.15L274.41 58.26Q280.60 58.15 282.72 58.43L282.65 58.36L282.70 58.41Q288.30 59.16 288.97 62.11L288.99 62.14L288.95 62.10Q289.17 63.04 289.17 63.60L289.02 63.45L289.03 63.46Q289.12 64.56 288.85 65.45L288.91 65.51L288.73 65.33Q287.99 71.68 283.70 73.91L283.68 73.89L283.63 73.84Q288.68 74.93 289.41 82.68L289.47 82.74L289.49 82.77Q289.52 83.01 289.57 84.91L289.58 84.91L289.54 84.88Q289.63 88.87 287.29 90.43L287.41 90.55L287.33 90.47Q285.27 91.70 278.58 92.37ZM281.98 95.82L282.06 95.91L286.84 95.89L286.80 95.85Q289.36 96.02 291.59 94.96L291.66 95.02L291.58 94.94Q293.37 94.00 293.48 91.26L293.49 91.28L293.48 91.27Q293.39 89.51 292.83 86.66L292.90 86.73L292.95 86.78Q291.54 79.91 288.48 77.18L288.45 77.16L288.26 76.68L287.87 76.18L287.72 75.86L287.74 75.89Q290.05 73.79 291.39 67.71L291.43 67.76L291.50 67.82Q291.42 67.19 291.53 65.96L291.63 66.06L291.56 65.99Q291.57 64.89 291.46 64.00L291.55 64.09L291.49 64.03Q291.35 61.99 289.62 61.26L289.64 61.29L289.73 61.32L289.30 61.00L289.37 61.07Q289.08 60.11 287.36 58.94L287.32 58.90L287.40 58.94L287.25 58.78Q284.51 57.93 278.54 57.66L278.54 57.65L278.51 57.63Q276.14 57.37 274.13 57.54L274.08 57.48L274.22 57.63Q272.92 57.55 271.02 57.77L271.13 57.88L271.17 57.92Q268.28 58.43 267.95 60.83L267.88 60.76L267.92 60.80Q267.86 61.52 267.92 62.69L267.86 62.64L268.02 62.79Q268.01 63.40 268.85 66.86L268.95 66.96L268.88 66.89Q270.14 71.72 272.70 73.67L272.59 73.55L272.80 73.76L272.75 73.71Q268.70 75.63 267.92 83.21L267.90 83.19L267.93 83.22Q267.72 86.53 267.72 87.86L267.71 87.85L267.55 87.69Q267.84 90.49 269.57 91.82L269.56 91.82L269.46 91.72Q269.70 91.90 270.09 92.18L270.01 92.10L269.96 92.05Q271.57 95.50 281.99 95.83ZM281.37 79.50L281.40 79.53L281.47 79.60Q282.86 79.53 284.14 80.20L284.16 80.22L284.00 80.06Q284.66 81.61 284.60 82.39L284.49 82.28L284.63 82.42Q284.64 82.82 284.64 83.27L284.56 83.19L284.65 83.27Q284.71 86.79 281.36 88.01L281.36 88.01L281.38 88.03Q280.04 88.31 278.87 88.14L279.01 88.28L278.88 88.15Q277.40 88.46 275.73 87.79L275.67 87.73L275.62 87.68Q275.30 86.80 275.41 85.35L275.45 85.39L275.43 85.37Q275.62 83.00 277.38 81.21L277.28 81.12L277.46 81.30Q279.03 79.33 281.38 79.50ZM281.70 65.61L281.86 65.77L281.82 65.72Q282.98 65.55 283.76 65.77L283.73 65.75L283.85 67.03L283.68 66.87Q283.72 68.97 282.38 70.44L282.35 70.41L282.46 70.52Q281.14 72.02 279.13 71.74L279.04 71.65L279.08 71.68Q277.56 71.62 276.95 71.28L277.06 71.39L277.05 71.38Q276.89 70.89 276.72 69.88L276.87 70.03L276.74 69.91Q276.42 67.91 278.21 66.69L278.26 66.74L278.17 66.64Q279.71 65.62 281.77 65.68Z"/><path d="M21 17 C192 82,181 90,323 81" stroke="#8ce28c" fill="none"/><path d="M15 93 C175 52,169 132,325 24" stroke="#62c7e8" fill="none"/><path d="M9 48 C191 108,184 97,330 91" stroke="#e4c770" fill="none"/><path d="M21 75 C170 19,164 89,328 135" stroke="#c5ea57" fill="none"/><path d="M16 75 C162 6,190 19,325 109" stroke="#eb6464" fill="none"/><path d="M3 34 C154 3,189 95,331 24" stroke="#a5e490" fill="none"/><path d="M4 68 C164 63,184 120,323 132" stroke="#7f5bea" fill="none"/><path d="M13 64 C189 56,178 17,336 122" stroke="#de71c3" fill="none"/><path d="M2 82 C163 105,157 85,339 112" stroke="#6fe06f" fill="none"/><path fill="#afd246" d="M46.68 81.67L46.73 81.72L46.70 81.69Q51.25 81.17 55.93 81.34L55.92 81.32L55.85 81.25Q55.90 77.62 55.90 74.11L55.72 73.93L55.71 73.92Q55.73 70.32 56.01 66.59L55.98 66.56L56.17 66.74Q54.33 69.19 46.69 81.68ZM61.16 92.41L61.10 92.35L61.06 92.31Q58.79 92.05 56.17 91.94L56.18 91.95L56.16 91.93Q55.85 88.45 55.69 84.82L55.68 84.82L55.68 84.81Q47.84 84.50 40.93 86.56L40.92 86.56L40.95 86.59Q41.18 85.93 41.46 84.48L41.39 84.41L41.44 84.46Q43.96 79.73 49.20 70.53L49.27 70.60L49.17 70.50Q53.46 63.42 58.47 57.73L58.44 57.70L58.55 57.81Q59.85 57.54 62.30 57.15L62.18 57.03L62.21 57.07Q59.33 66.39 59.33 76.70L59.49 76.86L59.33 76.71Q59.37 78.91 59.48 81.09L59.45 81.07L61.45 81.34L61.41 81.29Q62.35 81.40 63.25 81.57L63.22 81.54L63.27 81.59Q63.34 82.95 63.73 85.79L63.70 85.76L63.75 85.81Q61.91 85.36 59.73 85.08L59.76 85.10L59.80 85.15Q60.11 88.07 61.11 92.37ZM63.59 80.97L63.51 80.89L63.59 80.96Q63.37 80.92 63.10 80.92L63.03 80.85L62.46 80.84L62.54 80.92Q62.39 78.77 62.39 76.70L62.38 76.69L62.37 76.68Q62.41 67.35 65.42 58.55L65.29 58.42L65.37 58.50Q64.13 58.76 62.01 59.31L62.08 59.39L62.14 59.45Q62.51 58.37 63.18 56.31L63.01 56.14L63.11 56.24Q61.24 56.82 58.23 57.15L58.22 57.15L58.27 57.19Q52.48 63.50 44.84 77.21L44.82 77.19L47.96 71.91L47.89 71.84Q47.37 73.44 46.98 74.28L46.91 74.21L40.31 87.34L40.38 87.41Q41.37 87.23 43.04 86.67L43.03 86.66L42.74 86.93L42.80 86.99Q42.60 87.96 42.15 89.80L42.24 89.88L42.19 89.84Q48.23 87.90 55.30 88.18L55.16 88.04L55.21 88.08Q55.35 89.56 55.63 92.46L55.49 92.32L55.59 92.42Q57.12 92.39 58.68 92.55L58.72 92.60L58.77 92.64Q58.86 93.51 59.25 95.52L59.39 95.67L59.29 95.56Q62.09 95.91 66.49 97.25L66.51 97.26L66.51 97.27Q64.98 94.06 63.64 89.26L63.64 89.27L65.74 89.91L65.86 90.03Q66.74 90.25 67.75 90.75L67.87 90.87L67.77 90.77Q66.68 87.18 66.46 84.73L66.52 84.79L66.40 84.67Q65.68 84.56 64.01 84.23L63.84 84.06L63.98 84.20Q63.60 82.26 63.60 80.98ZM51.96 80.82L51.86 80.72L51.81 80.67Q52.95 78.79 55.23 75.06L55.37 75.20L55.34 75.16Q55.37 76.59 55.31 77.98L55.28 77.95L55.15 77.82Q55.33 79.45 55.38 80.84L55.39 80.85L55.30 80.75Q54.47 80.71 53.63 80.71L53.54 80.62L53.63 80.70Q52.84 80.81 51.95 80.81Z"/><path d="M21 54 C177 67,162 87,335 25" stroke="#bb5bdb" fill="none"/><path d="M6 100 C172 108,153 56,340 94" stroke="#6182e5" fill="none"/><path d="M8 20 C156 43,155 94,324 119" stroke="#e14141" fill="none"/><path d="M5 55 C150 111,160 67,335 124" stroke="#dc5599" fill="none"/><path d="M18 65 C182 121,159 57,333 71" stroke="#d7d75f" fill="none"/><path d="M2 41 C172 49,179 41,325 18" stroke="#ec78ec" fill="none"/><path d="M1 98 C192 65,167 136,336 19" stroke="#e8e868" fill="none"/><path d="M13 76 C155 75,167 46,323 28" stroke="#89a1eb" fill="none"/></svg>