<svg xmlns="http://www.w3.org/2000/svg" width="342" height="140" viewBox="0,0,342,140"><path d="M14 109 C151 2,169 50,329 22" stroke="#bcde58" fill="none"/><path d="M7 15 C186 1,190 77,322 30" stroke="#a35bea" fill="none"/><path d="M7 108 C174 41,168 93,334 22" stroke="#c4e467" fill="none"/><path d="M19 6 C161 97,163 40,321 104" stroke="#6845d3" fill="none"/><path d="M2 110 C175 84,182 64,333 55" stroke="#8ce3b7" fill="none"/><path d="M6 17 C174 15,174 13,324 18" stroke="#baef85" fill="none"/><path d="M16 37 C178 80,189 11,338 107" stroke="#90e3ba" fill="none"/><path d="M6 139 C192 27,182 134,324 126" stroke="#90e9e9" fill="none"/><path d="M3 35 C167 93,174 134,324 110" stroke="#e8869e" fill="none"/><path d="M10 64 C189 11,152 91,330 42" stroke="#673ce5" fill="none"/><path d="M8 47 C167 82,159 10,330 95" stroke="#ea5ba3" fill="none"/><path d="M8 134 C162 91,155 101,334 27" stroke="#cde38c" fill="none"/><path d="M10 98 C191 89,192 67,330 96" stroke="#6d46e1" fill="none"/><path d="M11 10 C164 123,183 81,338 98" stroke="#e16941" fill="none"/><path d="M20 60 C167 59,160 30,328 8" stroke="#39e4e4" fill="none"/><path d="M19 89 C181 104,179 121,335 33" stroke="#e2cb87" fill="none"/><path d="M6 71 C156 113,185 119,322 131" stroke="#7bdfdf" fill="none"/><path d="M14 71 C168 135,187 15,329 69" stroke="#d6b656" fill="none"/><path d="M14 67 C184 111,185 102,334 41" stroke="#84d5ef" fill="none"/><path fill="#cd6ded" d="M44.64 84.12L44.52 84.00L44.50 83.98Q50.10 83.46 55.76 83.66L55.72 83.62L55.64 83.55Q55.64 79.11 55.64 74.87L55.56 74.78L55.65 74.87Q55.66 70.50 55.99 65.99L55.95 65.95L55.92 65.92Q53.85 69.03 44.63 84.11ZM62.10 97.07L62.15 97.12L62.09 97.06Q59.13 96.52 55.96 96.39L55.90 96.32L55.87 96.29Q55.67 92.25 55.47 87.88L55.44 87.86L55.42 87.83Q45.98 87.48 37.64 89.97L37.56 89.90L37.60 89.93Q37.77 89.03 38.11 87.28L38.23 87.41L38.15 87.32Q41.30 81.72 47.62 70.61L47.65 70.64L47.67 70.66Q52.87 62.13 58.92 55.26L58.79 55.13L58.90 55.24Q60.46 54.91 63.42 54.44L63.46 54.48L63.43 54.45Q60.06 65.82 60.06 78.27L60.09 78.31L60.02 78.24Q59.98 80.82 60.12 83.45L60.22 83.54L62.33 83.57L62.42 83.66Q63.55 83.78 64.63 83.99L64.59 83.94L64.56 83.92Q64.69 85.59 65.16 89.03L65.30 89.16L65.29 89.16Q63.00 88.55 60.38 88.21L60.47 88.31L60.44 88.27Q60.80 91.80 62.01 96.98ZM64.95 83.16L64.98 83.19L65.11 83.32Q64.66 83.08 64.33 83.08L64.29 83.04L63.79 83.22L63.78 83.21Q63.41 80.41 63.41 77.92L63.56 78.07L63.40 77.91Q63.46 66.66 67.09 56.03L67.19 56.12L67.04 55.98Q65.76 56.51 63.20 57.18L63.17 57.15L63.29 57.28Q63.62 55.86 64.43 53.37L64.48 53.42L64.53 53.46Q62.08 53.98 58.44 54.38L58.47 54.40L58.55 54.48Q51.49 62.04 42.27 78.59L42.39 78.70L46.11 72.27L46.03 72.18Q45.39 74.10 44.92 75.11L44.88 75.07L36.96 90.98L37.06 91.08Q38.20 90.80 40.22 90.13L40.22 90.13L39.85 90.44L39.79 90.38Q39.66 91.65 39.12 93.87L39.15 93.91L39.18 93.94Q46.48 91.61 55.03 91.95L54.89 91.81L55.01 91.93Q55.09 93.63 55.43 97.13L55.43 97.13L55.43 97.13Q57.32 97.13 59.20 97.33L59.12 97.25L59.18 97.32Q59.45 98.53 59.92 100.95L59.78 100.81L59.93 100.96Q63.25 101.31 68.56 102.93L68.59 102.96L68.57 102.93Q66.82 99.17 65.20 93.38L65.20 93.37L67.64 94.06L67.80 94.23Q68.93 94.54 70.14 95.15L70.25 95.26L70.13 95.14Q68.73 90.71 68.46 87.75L68.46 87.75L68.57 87.86Q67.46 87.49 65.44 87.08L65.39 87.04L65.37 87.01Q65.03 84.79 65.03 83.25ZM50.93 83.01L50.96 83.04L50.86 82.94Q52.35 80.79 55.11 76.28L55.03 76.20L55.03 76.21Q55.00 77.86 54.93 79.54L54.92 79.52L55.00 79.61Q55.02 81.37 55.09 83.06L54.92 82.89L55.02 82.99Q53.97 82.88 52.96 82.88L53.05 82.97L53.03 82.95Q52.06 83.06 50.99 83.06Z"/><path d="M5 92 C161 13,167 20,335 116" stroke="#8fe4ba" fill="none"/><path fill="#6e6edd" d="M102.42 97.18L102.46 97.21L102.46 97.22Q99.94 97.33 97.18 96.59L97.17 96.58L97.08 96.49Q95.01 94.95 94.74 92.05L94.76 92.08L94.77 92.08Q94.59 91.64 94.93 86.99L94.88 86.95L95.00 87.07Q96.88 86.79 100.44 86.12L100.26 85.93L100.01 87.37L99.97 87.32Q99.52 90.44 102.01 91.45L102.03 91.48L101.94 91.38Q103.37 92.00 107.07 92.00L107.12 92.05L107.19 92.12Q109.97 91.81 110.31 91.68L110.27 91.64L110.36 91.73Q111.91 91.40 113.19 90.52L113.18 90.51L113.28 90.61Q115.61 88.77 115.27 85.06L115.31 85.10L115.44 85.23Q114.98 80.80 111.92 78.05L111.93 78.05L111.91 78.03Q108.83 75.25 104.45 75.25L104.57 75.37L104.43 74.82L104.54 74.94Q105.27 74.92 106.81 74.79L106.65 74.62L106.79 74.77Q110.02 74.43 112.44 72.24L112.49 72.29L112.45 72.25Q114.86 70.05 115.13 66.75L115.31 66.93L115.30 66.92Q115.42 66.30 115.42 65.69L115.26 65.53L115.32 65.59Q115.32 62.90 112.90 61.29L112.91 61.30L112.95 61.34Q110.76 59.89 107.93 60.09L108.03 60.19L108.01 60.17Q105.70 59.88 103.55 60.62L103.59 60.67L103.60 60.67Q100.91 61.48 100.37 63.50L100.43 63.55L100.43 63.56Q100.10 64.91 100.24 66.26L100.16 66.18L100.25 66.27Q98.38 65.81 94.75 64.54L94.77 64.56L94.72 64.51Q94.43 61.67 94.50 60.19L94.45 60.14L94.52 60.20Q94.58 57.37 96.47 56.16L96.58 56.28L96.52 56.21Q99.10 55.22 101.92 55.22L101.88 55.18L101.80 55.11Q107.33 54.98 112.92 55.45L113.02 55.55L113.02 55.55Q121.92 56.25 121.38 62.91L121.37 62.90L121.50 63.02Q121.21 65.49 120.34 68.25L120.47 68.39L120.33 68.25Q118.88 73.87 114.71 75.48L114.60 75.37L114.58 75.35Q119.20 76.27 120.28 82.19L120.26 82.17L120.34 82.25Q120.73 84.26 120.86 87.83L120.89 87.86L120.87 87.84Q121.08 95.65 112.94 96.46L112.94 96.46L113.01 96.53Q111.81 96.74 102.45 97.21ZM111.54 101.05L111.66 101.17L111.56 101.07Q112.62 101.12 117.67 101.26L117.72 101.31L117.70 101.29Q120.71 101.34 123.61 100.20L123.74 100.33L123.69 100.28Q125.83 98.65 125.49 95.55L125.42 95.48L125.45 95.51Q125.17 93.07 124.63 89.98L124.75 90.10L124.62 89.97Q123.37 82.05 119.94 79.16L120.05 79.28L119.64 78.53L119.53 78.35L119.67 78.49Q122.77 75.94 124.12 68.20L124.02 68.11L124.09 68.18Q124.18 67.39 124.39 65.71L124.30 65.62L124.40 65.72Q124.37 64.21 124.23 63.00L124.29 63.06L124.23 62.99Q123.97 60.05 121.69 58.84L121.65 58.80L121.68 58.97L121.68 58.97Q121.13 57.21 119.11 56.26L119.02 56.17L119.06 56.21Q116.28 54.91 107.20 54.37L107.36 54.54L107.32 54.50Q104.36 54.36 101.53 54.36L101.48 54.31L101.56 54.39Q98.63 54.28 95.93 55.43L95.93 55.43L95.96 55.46Q93.87 56.86 93.87 59.95L93.84 59.92L93.73 59.82Q93.89 59.24 94.36 65.16L94.25 65.05L94.22 65.02Q94.74 65.14 97.63 66.21L97.63 66.21L97.81 66.39Q97.79 67.32 97.73 68.19L97.64 68.11L97.65 68.11Q97.65 68.99 97.72 69.93L97.80 70.01L97.64 69.85Q100.82 70.54 104.39 70.74L104.49 70.85L104.41 70.77Q104.41 67.34 106.36 65.86L106.30 65.80L106.25 65.74Q107.81 64.68 111.38 64.28L111.29 64.19L111.35 64.25Q113.39 64.26 114.40 64.60L114.43 64.64L114.28 64.49Q114.47 64.81 114.54 65.01L114.42 64.90L114.49 65.31L114.59 66.21L114.73 66.35Q114.68 66.64 114.61 66.91L114.67 66.96L114.63 66.93Q114.45 69.90 111.76 71.99L111.87 72.10L111.80 72.03Q110.19 73.65 106.62 73.99L106.54 73.91L106.61 73.98Q105.32 74.24 103.77 74.24L103.83 74.29L103.76 74.22Q103.85 74.86 104.12 76.07L104.18 76.13L104.11 76.06Q107.30 76.15 109.86 77.43L109.70 77.27L109.51 77.28L106.81 77.68L106.75 77.61Q106.84 78.25 107.05 79.33L107.17 79.45L107.00 79.28Q110.76 79.14 113.79 81.50L113.87 81.58L113.84 81.55Q114.32 82.29 114.85 85.18L114.75 85.08L114.76 85.09Q115.17 90.34 109.99 91.08L109.94 91.04L109.94 91.03Q106.34 91.61 105.33 91.54L105.19 91.41L105.31 91.52Q104.35 91.17 103.41 91.03L103.52 91.15L103.44 90.26L103.71 89.52L103.68 88.75L103.92 88.38L103.88 88.34Q102.24 88.52 100.82 88.85L100.81 88.84L100.80 88.83Q100.62 88.31 100.62 87.97L100.68 88.03L100.69 88.04Q100.67 87.62 100.67 87.22L100.71 87.26L100.76 87.31Q100.74 86.48 101.01 85.20L101.03 85.23L101.04 85.24Q97.74 85.63 94.44 86.24L94.58 86.37L94.40 86.20Q94.52 87.20 94.32 89.18L94.24 89.10L94.21 89.07Q94.16 91.21 94.16 92.29L94.06 92.18L94.08 92.21Q94.24 95.87 96.67 97.21L96.58 97.13L96.73 97.28Q99.32 101.28 107.66 100.94L107.67 100.95L107.66 100.94Q108.83 100.76 111.52 101.03Z"/><path d="M18 59 C182 105,169 31,334 25" stroke="#ed6c6c" fill="none"/><path d="M13 123 C190 28,153 98,324 28" stroke="#67e987" fill="none"/><path d="M17 122 C171 83,188 67,336 104" stroke="#ec69ec" fill="none"/><path d="M19 24 C170 1,171 34,321 35" stroke="#75e475" fill="none"/><path fill="#be3ee9" d="M278.14 77.36L277.99 77.21L277.98 77.20Q274.83 77.08 272.65 79.61L272.66 79.62L272.58 79.53Q270.53 82.20 270.19 85.56L270.03 85.40L270.19 85.56Q269.62 89.03 271.54 90.74L271.56 90.76L271.70 90.91Q273.59 92.60 277.29 92.39L277.30 92.40L277.16 92.26Q281.04 92.17 282.99 90.96L282.85 90.81L282.87 90.84Q285.01 89.01 285.01 86.25L284.98 86.22L284.87 86.10Q284.89 85.46 284.76 84.79L284.71 84.74L284.83 84.85Q284.91 81.84 282.95 79.45L282.94 79.43L282.94 79.44Q281.10 77.15 278.14 77.36ZM277.37 96.98L277.22 96.83L277.34 96.95Q269.54 96.89 267.05 95.55L267.08 95.58L267.13 95.63Q265.27 94.24 264.94 91.21L264.92 91.19L264.89 91.16Q264.95 90.08 265.02 88.80L264.98 88.76L264.89 88.68Q265.12 86.95 265.12 86.14L265.18 86.20L265.12 86.14Q265.99 81.16 266.26 79.95L266.27 79.96L266.25 79.94Q267.05 76.50 268.53 74.01L268.46 73.94L268.55 74.02Q273.24 66.26 283.74 55.02L283.61 54.90L283.75 55.03Q288.47 54.51 292.38 53.10L292.38 53.10L292.31 53.03Q280.16 66.18 274.50 73.65L274.53 73.69L274.50 73.65Q276.37 72.89 278.65 72.89L278.51 72.75L278.66 72.89Q284.45 72.83 287.14 76.27L287.14 76.26L287.11 76.23Q289.46 79.13 290.07 85.39L290.05 85.37L290.03 85.34Q290.31 86.77 290.31 87.85L290.28 87.81L290.28 87.81Q290.24 93.29 286.34 95.18L286.30 95.14L286.24 95.08Q284.16 96.24 277.30 96.91ZM281.27 101.08L281.42 101.23L281.31 101.12Q283.59 101.05 287.09 101.18L287.20 101.29L287.13 101.22Q290.01 101.34 292.77 100.06L292.73 100.02L292.84 100.14Q294.67 98.60 294.67 95.44L294.73 95.49L294.67 95.44Q294.66 94.55 294.36 92.80L294.37 92.82L294.52 92.96Q294.21 91.21 294.21 90.40L294.19 90.38L294.15 90.34Q292.59 81.99 289.77 78.62L289.78 78.64L289.69 78.55Q289.56 78.35 289.29 77.94L289.37 78.03L288.76 77.54L288.72 77.57L288.68 77.53Q288.14 76.72 287.06 75.04L287.01 74.99L286.97 74.95Q285.49 73.40 281.99 72.59L281.84 72.44L281.98 72.58Q284.02 69.64 289.26 63.11L289.23 63.07L296.66 53.68L296.86 53.88Q294.07 55.39 289.83 56.74L289.71 56.63L289.78 56.70Q291.42 54.97 294.58 51.47L294.64 51.52L294.44 51.33Q290.35 53.36 283.48 54.37L283.43 54.31L283.50 54.39Q273.33 64.74 268.08 73.49L267.99 73.40L268.02 73.43Q265.43 77.97 264.42 89.01L264.48 89.07L264.41 89.00Q264.33 90.07 264.47 91.75L264.30 91.58L264.47 91.76Q264.53 94.77 266.48 96.39L266.48 96.39L266.39 96.30Q267.17 96.67 267.10 96.74L267.07 96.71L267.15 96.79Q267.80 98.39 269.22 99.13L269.09 99.00L269.19 99.10Q271.80 100.36 275.23 100.69L275.26 100.72L275.09 100.56Q275.12 100.58 281.31 101.12ZM280.95 81.31L281.01 81.38L280.89 81.26Q282.05 81.20 283.73 82.07L283.73 82.08L283.64 81.99Q284.16 83.58 284.16 84.72L284.25 84.81L284.30 84.86Q284.54 88.07 282.86 89.82L282.80 89.76L282.86 89.81Q281.10 91.22 277.40 91.76L277.23 91.59L277.28 91.64Q274.72 91.63 273.77 91.16L273.87 91.26L273.84 91.23Q273.40 90.32 273.40 89.78L273.52 89.90L273.40 89.78Q272.97 83.97 278.15 81.68L278.28 81.81L278.29 81.82Q279.55 81.13 280.90 81.26Z"/><path fill="#529be4" d="M222.58 67.16L222.61 67.19L222.57 67.15Q216.87 67.10 213.64 65.21L213.66 65.24L213.80 65.38Q218.09 62.81 226.71 55.34L226.78 55.41L226.72 55.34Q228.14 55.16 230.43 54.08L230.26 53.91L230.25 53.90Q227.92 64.43 227.72 75.67L227.73 75.67L227.71 75.65Q227.64 87.02 229.52 97.79L229.46 97.73L229.52 97.79Q226.45 96.40 222.68 96.20L222.63 96.15L222.82 96.34Q222.43 88.82 222.43 81.62L222.59 81.77L222.60 81.78Q222.60 74.52 222.67 67.25ZM221.87 71.09L221.97 96.97L221.92 96.91Q223.98 96.83 225.66 97.16L225.78 97.28L225.79 97.29Q225.83 98.41 226.17 100.83L226.28 100.94L226.22 100.88Q231.36 101.92 235.67 105.89L235.61 105.83L235.58 105.80Q231.27 93.28 231.21 80.09L231.14 80.02L231.15 80.04Q231.04 66.87 234.27 54.08L234.32 54.13L234.25 54.06Q233.35 54.85 230.53 56.80L230.50 56.77L230.48 56.75Q230.84 55.43 231.38 52.74L231.39 52.75L231.32 52.68Q229.05 54.11 226.49 54.79L226.46 54.75L226.40 54.69Q219.73 61.01 212.12 65.05L212.19 65.12L212.16 65.08Q214.61 67.00 218.78 67.60L218.90 67.71L218.87 67.69Q217.70 68.61 215.42 70.49L215.39 70.47L215.47 70.55Q217.96 71.09 221.86 71.09L222.01 71.23Z"/><path d="M11 108 C184 104,154 27,329 44" stroke="#e04291" fill="none"/><path d="M16 105 C166 31,170 72,328 124" stroke="#d7ef8e" fill="none"/><path fill="#ec7db5" d="M165.97 67.22L166.01 67.25L165.96 67.21Q160.32 67.22 157.09 65.34L157.01 65.25L157.09 65.34Q161.49 62.87 170.10 55.40L170.19 55.48L170.01 55.31Q171.31 54.99 173.60 53.92L173.76 54.07L173.58 53.89Q171.40 64.57 171.20 75.81L171.06 75.67L171.17 75.78Q170.90 86.95 172.78 97.72L172.74 97.67L172.88 97.81Q169.85 96.47 166.08 96.27L166.06 96.24L166.05 96.24Q165.77 88.82 165.77 81.62L165.84 81.69L165.84 81.69Q165.85 74.43 165.91 67.16ZM165.30 71.19L165.26 96.93L165.20 96.87Q167.49 97.00 169.17 97.34L169.10 97.27L169.15 97.32Q169.31 98.55 169.64 100.97L169.62 100.95L169.57 100.90Q174.61 101.84 178.92 105.81L179.00 105.88L178.94 105.83Q174.61 93.28 174.54 80.09L174.53 80.09L174.40 79.95Q174.28 66.77 177.51 53.99L177.48 53.96L177.59 54.07Q176.56 54.72 173.74 56.68L173.85 56.78L173.83 56.77Q174.16 55.41 174.70 52.72L174.78 52.80L174.59 52.62Q172.39 54.12 169.84 54.79L169.76 54.72L169.79 54.75Q163.03 60.98 155.43 65.02L155.49 65.08L155.48 65.07Q157.95 67.01 162.13 67.61L162.10 67.58L162.21 67.69Q160.98 68.55 158.69 70.43L158.83 70.57L158.77 70.51Q161.41 71.20 165.31 71.20L165.21 71.09Z"/><path d="M14 84 C175 12,186 15,341 122" stroke="#809ae9" fill="none"/><path d="M11 19 C158 65,183 26,327 14" stroke="#9b56e0" fill="none"/><path d="M9 24 C185 114,159 44,328 89" stroke="#83cde6" fill="none"/><path d="M2 20 C162 7,183 139,330 83" stroke="#63dd63" fill="none"/><path d="M12 100 C172 87,152 82,327 59" stroke="#55e6e6" fill="none"/><path d="M12 130 C175 73,151 23,330 38" stroke="#a189eb" fill="none"/><path d="M18 84 C172 85,165 27,330 98" stroke="#96d755" fill="none"/><path d="M5 53 C165 58,169 119,334 45" stroke="#7fdb61" fill="none"/><path d="M3 97 C178 57,157 131,340 1" stroke="#e19379" fill="none"/><path d="M12 133 C186 133,173 39,339 129" stroke="#e8e85d" fill="none"/><path d="M1 118 C160 121,159 55,326 100" stroke="#8e4ad3" fill="none"/><path d="M15 79 C182 90,180 95,334 19" stroke="#e179e1" fill="none"/><path d="M13 39 C188 33,167 25,330 109" stroke="#e68d8d" fill="none"/><path d="M2 41 C190 126,185 35,323 27" stroke="#67bdda" fill="none"/></svg>