<svg xmlns="http://www.w3.org/2000/svg" width="342" height="140" viewBox="0,0,342,140"><path d="M11 130 C183 11,179 100,331 88" stroke="#6888e8" fill="none"/><path d="M11 98 C160 119,170 2,327 57" stroke="#8fe9a6" fill="none"/><path d="M13 43 C159 66,167 47,335 27" stroke="#ea9393" fill="none"/><path d="M20 38 C189 82,173 35,339 79" stroke="#83e164" fill="none"/><path d="M18 33 C180 55,186 44,332 50" stroke="#5b7fea" fill="none"/><path d="M7 63 C179 57,190 95,339 82" stroke="#7ef0f0" fill="none"/><path d="M14 114 C179 102,186 112,333 126" stroke="#86e8b7" fill="none"/><path d="M18 114 C167 125,156 81,340 85" stroke="#48e9e9" fill="none"/><path d="M1 4 C181 23,184 55,331 53" stroke="#83c9e1" fill="none"/><path d="M16 130 C182 17,179 112,324 65" stroke="#e57aaf" fill="none"/><path d="M4 59 C181 54,159 8,321 68" stroke="#4d98e4" fill="none"/><path d="M14 80 C169 63,156 19,336 83" stroke="#e84e4e" fill="none"/><path fill="#5dd97c" d="M103.64 93.78L103.73 93.87L103.66 93.80Q101.42 93.87 98.99 93.22L99.12 93.35L99.11 93.33Q97.16 91.86 96.93 89.32L96.95 89.34L96.98 89.37Q96.96 89.11 97.25 85.03L97.13 84.90L97.16 84.94Q98.84 84.73 101.98 84.14L101.84 84.00L101.70 85.33L101.54 85.18Q101.16 87.93 103.35 88.82L103.44 88.91L103.32 88.79Q104.66 89.42 107.91 89.42L107.86 89.37L107.88 89.39Q110.33 89.12 110.63 89.00L110.67 89.04L110.68 89.05Q112.13 88.85 113.26 88.08L113.16 87.98L113.18 88.00Q115.48 86.64 115.18 83.38L115.06 83.26L115.09 83.29Q114.76 79.47 112.07 77.05L112.21 77.18L112.07 77.04Q109.36 74.60 105.51 74.60L105.54 74.63L105.53 74.26L105.60 74.33Q106.28 74.36 107.64 74.24L107.52 74.12L107.47 74.07Q110.53 74.00 112.66 72.08L112.70 72.12L112.67 72.08Q114.77 70.14 115.01 67.24L115.04 67.27L115.00 67.24Q115.14 66.72 115.14 66.19L115.21 66.25L115.15 66.20Q115.08 63.76 112.95 62.34L112.97 62.36L113.01 62.40Q111.03 61.08 108.55 61.25L108.67 61.37L108.70 61.40Q106.65 61.13 104.76 61.78L104.60 61.62L104.72 61.74Q102.48 62.58 102.01 64.35L102.05 64.39L101.91 64.26Q101.59 65.41 101.71 66.60L101.80 66.69L101.82 66.71Q100.22 66.35 97.02 65.22L96.93 65.13L97.06 65.26Q96.75 62.70 96.81 61.40L96.62 61.21L96.67 61.26Q96.85 58.89 98.50 57.83L98.50 57.83L98.62 57.95Q100.81 57.00 103.29 57.00L103.25 56.96L103.24 56.95Q108.07 56.82 112.98 57.23L113.11 57.35L113.08 57.33Q120.89 57.92 120.41 63.77L120.38 63.74L120.39 63.75Q120.31 66.09 119.54 68.52L119.53 68.51L119.59 68.57Q118.14 73.33 114.47 74.75L114.50 74.77L114.38 74.66Q118.54 75.56 119.49 80.76L119.58 80.86L119.43 80.71Q119.81 82.51 119.93 85.64L119.98 85.69L120.04 85.76Q120.25 92.65 113.10 93.36L113.12 93.39L113.13 93.39Q111.94 93.45 103.72 93.86ZM111.74 97.27L111.81 97.34L111.84 97.37Q112.66 97.30 117.10 97.42L117.11 97.44L117.22 97.54Q119.81 97.54 122.36 96.53L122.46 96.63L122.45 96.63Q124.18 95.05 123.89 92.32L123.98 92.42L124.06 92.50Q123.78 90.32 123.31 87.60L123.40 87.69L123.40 87.70Q122.25 80.69 119.23 78.15L119.16 78.08L118.98 77.60L118.82 77.38L118.84 77.40Q121.50 75.09 122.68 68.28L122.75 68.36L122.75 68.35Q122.82 67.66 123.00 66.18L122.91 66.09L123.02 66.20Q123.10 64.98 122.98 63.92L123.01 63.94L122.89 63.82Q122.72 61.28 120.71 60.22L120.77 60.29L120.57 60.20L120.67 60.31Q120.20 58.77 118.42 57.94L118.38 57.89L118.38 57.89Q116.09 56.91 108.11 56.44L108.09 56.42L108.09 56.42Q105.46 56.27 102.98 56.27L102.86 56.15L102.99 56.29Q100.37 56.15 98.00 57.15L98.14 57.29L98.01 57.16Q96.10 58.33 96.10 61.05L96.23 61.17L96.21 61.16Q96.12 60.42 96.54 65.62L96.61 65.69L96.53 65.62Q97.10 65.83 99.64 66.78L99.59 66.73L99.68 66.81Q99.53 67.50 99.48 68.27L99.56 68.35L99.47 68.26Q99.63 69.19 99.69 70.02L99.70 70.03L99.55 69.88Q102.49 70.63 105.62 70.81L105.51 70.69L105.61 70.80Q105.40 67.57 107.12 66.27L107.20 66.35L107.16 66.31Q108.41 65.26 111.55 64.90L111.51 64.87L111.49 64.85Q113.38 64.96 114.27 65.25L114.15 65.14L114.19 65.18Q114.19 65.30 114.25 65.48L114.38 65.61L114.43 65.95L114.60 66.83L114.48 66.71Q114.45 66.98 114.40 67.22L114.52 67.34L114.51 67.33Q114.30 69.91 111.94 71.74L112.02 71.82L111.94 71.74Q110.65 73.29 107.51 73.58L107.45 73.52L107.39 73.46Q106.27 73.70 104.91 73.70L104.98 73.77L104.86 73.65Q105.08 74.34 105.31 75.40L105.29 75.38L105.31 75.40Q107.97 75.35 110.22 76.47L110.15 76.40L110.09 76.52L107.61 76.76L107.50 76.64Q107.62 77.24 107.80 78.19L107.85 78.24L107.83 78.22Q111.13 78.09 113.79 80.16L113.85 80.22L113.71 80.08Q114.12 80.72 114.60 83.27L114.73 83.41L114.69 83.36Q114.89 87.82 110.33 88.47L110.43 88.56L110.42 88.55Q107.06 88.86 106.17 88.80L106.18 88.81L106.30 88.93Q105.55 88.72 104.73 88.60L104.74 88.61L104.75 87.91L104.78 87.06L104.91 86.53L104.90 85.99L104.94 86.04Q103.49 86.18 102.25 86.48L102.34 86.57L102.24 86.46Q102.18 86.11 102.18 85.81L102.30 85.94L102.14 85.78Q102.20 85.48 102.20 85.12L102.18 85.11L102.21 85.13Q102.25 84.47 102.49 83.35L102.48 83.34L102.61 83.47Q99.73 83.84 96.83 84.37L96.69 84.22L96.83 84.37Q96.75 85.05 96.57 86.80L96.55 86.78L96.67 86.90Q96.44 88.60 96.44 89.54L96.44 89.54L96.49 89.59Q96.46 92.63 98.58 93.81L98.64 93.86L98.71 93.94Q101.05 97.52 108.39 97.23L108.38 97.22L108.36 97.20Q109.35 97.01 111.72 97.25Z"/><path d="M15 72 C179 25,162 102,335 29" stroke="#79e179" fill="none"/><path fill="#7ae4e4" d="M278.80 76.50L278.79 76.49L278.81 76.50Q275.86 76.45 273.97 78.52L274.04 78.60L273.93 78.49Q272.09 80.61 271.85 83.56L271.93 83.65L271.83 83.54Q271.57 86.89 273.46 88.46L273.58 88.57L273.47 88.47Q275.32 89.99 278.63 89.87L278.76 90.00L278.65 89.89Q282.24 89.64 283.72 88.16L283.76 88.20L283.77 88.21Q285.35 85.94 285.17 83.11L285.20 83.13L285.13 83.06Q284.92 80.14 283.24 78.27L283.28 78.31L283.28 78.31Q281.58 76.43 278.74 76.43ZM278.78 61.87L278.81 61.90L278.82 61.91Q276.59 61.69 274.52 62.46L274.41 62.35L274.56 62.49Q272.56 63.75 272.92 66.65L272.90 66.63L272.89 66.63Q273.60 72.37 278.81 72.37L278.86 72.42L278.87 72.43Q281.33 72.75 282.86 70.98L282.79 70.91L282.85 70.97Q284.23 69.03 284.29 66.61L284.42 66.74L284.43 66.75Q284.42 63.91 283.30 62.96L283.42 63.08L283.39 63.05Q280.79 61.75 278.78 61.87ZM278.40 93.84L278.38 93.82L273.53 93.70L273.69 93.86Q271.25 93.79 269.18 92.43L269.14 92.38L269.13 92.38Q267.08 90.69 267.32 86.25L267.19 86.12L267.25 86.18Q268.07 75.64 273.68 74.10L273.60 74.02L273.57 73.99Q270.04 72.59 267.97 64.25L268.03 64.31L267.90 64.18Q267.52 62.14 267.64 60.90L267.67 60.93L267.48 60.74Q268.05 57.53 273.79 57.47L273.79 57.47L273.85 57.53Q280.42 57.42 282.67 57.71L282.65 57.70L282.55 57.60Q288.59 58.49 289.30 61.63L289.30 61.62L289.27 61.60Q289.45 62.54 289.45 63.13L289.50 63.19L289.36 63.04Q289.50 64.25 289.20 65.19L289.18 65.17L289.19 65.18Q288.22 71.72 283.66 74.08L283.75 74.17L283.62 74.04Q289.13 75.35 289.90 83.57L289.86 83.54L289.96 83.63Q289.88 83.79 289.94 85.80L289.98 85.84L289.92 85.78Q290.08 90.08 287.60 91.74L287.54 91.68L287.50 91.65Q285.39 93.02 278.29 93.73ZM281.84 97.34L281.80 97.30L287.10 97.52L287.05 97.46Q289.80 97.67 292.17 96.55L292.03 96.41L292.12 96.50Q293.88 95.36 293.99 92.46L294.05 92.52L294.05 92.51Q294.02 90.71 293.43 87.70L293.38 87.65L293.43 87.69Q292.06 80.53 288.80 77.63L288.80 77.63L288.51 77.04L288.30 76.71L287.96 76.19L287.97 76.20Q290.59 74.15 292.01 67.71L291.97 67.66L291.95 67.65Q291.95 67.05 292.06 65.75L291.99 65.68L292.04 65.72Q292.19 64.69 292.07 63.75L292.01 63.69L292.11 63.78Q291.80 61.47 289.97 60.70L290.01 60.74L290.12 60.79L289.83 60.61L289.70 60.49Q289.27 59.35 287.44 58.11L287.52 58.19L287.58 58.19L287.49 58.10Q284.58 57.20 278.25 56.90L278.22 56.87L278.20 56.86Q275.72 56.62 273.59 56.80L273.62 56.82L273.58 56.79Q272.34 56.85 270.33 57.08L270.32 57.08L270.38 57.13Q267.38 57.75 267.03 60.29L266.91 60.17L266.96 60.22Q266.98 61.07 267.04 62.31L267.06 62.33L267.08 62.35Q267.25 63.17 268.14 66.84L268.04 66.74L268.12 66.82Q269.32 71.81 272.04 73.88L271.94 73.78L272.12 73.96L272.08 73.91Q267.81 75.97 266.98 84.02L266.93 83.97L266.92 83.95Q266.64 87.40 266.64 88.82L266.72 88.91L266.76 88.94Q266.90 91.74 268.73 93.16L268.71 93.14L268.63 93.06Q268.91 93.28 269.32 93.57L269.14 93.39L269.22 93.47Q270.86 97.07 281.92 97.42ZM281.32 80.14L281.28 80.10L281.34 80.16Q282.75 80.03 284.11 80.74L284.14 80.77L284.17 80.80Q284.74 82.32 284.68 83.14L284.67 83.13L284.66 83.12Q284.66 83.54 284.66 84.01L284.79 84.15L284.73 84.08Q284.69 87.71 281.14 89.01L281.13 89.00L281.27 89.14Q279.94 89.53 278.70 89.35L278.62 89.27L278.62 89.27Q277.00 89.54 275.23 88.84L275.21 88.82L275.11 88.71Q274.79 87.80 274.91 86.27L274.96 86.32L274.86 86.22Q275.12 83.76 276.99 81.87L277.02 81.91L276.91 81.80Q278.96 80.09 281.45 80.27ZM281.71 65.44L281.79 65.53L281.66 65.40Q282.92 65.24 283.75 65.48L283.82 65.54L283.74 66.71L283.86 66.83Q283.81 68.97 282.39 70.54L282.45 70.60L282.37 70.52Q280.90 72.04 278.77 71.74L278.73 71.70L278.73 71.70Q277.21 71.72 276.56 71.36L276.62 71.42L276.68 71.48Q276.57 71.01 276.39 69.95L276.40 69.96L276.32 69.88Q275.97 67.76 277.87 66.46L277.89 66.48L277.92 66.51Q279.45 65.32 281.64 65.38Z"/><path d="M17 14 C175 87,174 72,321 127" stroke="#718ee4" fill="none"/><path d="M6 17 C181 24,189 138,323 110" stroke="#caea6a" fill="none"/><path d="M10 8 C164 99,178 35,338 93" stroke="#e593a8" fill="none"/><path d="M9 65 C191 127,176 76,326 55" stroke="#e03c65" fill="none"/><path d="M18 16 C163 72,161 82,340 58" stroke="#f187a2" fill="none"/><path d="M17 7 C167 52,164 111,329 74" stroke="#dc60bd" fill="none"/><path d="M9 21 C163 65,153 3,322 114" stroke="#cf79eb" fill="none"/><path fill="#78e292" d="M160.46 93.93L160.29 93.76L160.40 93.88Q158.24 94.03 155.82 93.38L155.67 93.22L155.79 93.35Q153.86 91.89 153.63 89.35L153.57 89.29L153.66 89.38Q153.58 89.06 153.87 84.98L153.88 84.99L153.94 85.05Q155.41 84.63 158.55 84.04L158.54 84.03L158.31 85.28L158.20 85.17Q157.84 87.94 160.02 88.83L160.07 88.88L160.00 88.81Q161.33 89.43 164.59 89.43L164.46 89.30L164.61 89.45Q166.95 89.07 167.24 88.95L167.28 88.99L167.29 88.99Q168.78 88.83 169.90 88.06L169.90 88.05L169.85 88.00Q171.97 86.46 171.68 83.21L171.87 83.41L171.74 83.28Q171.46 79.51 168.77 77.08L168.85 77.16L168.77 77.08Q166.11 74.68 162.26 74.68L162.21 74.63L162.32 74.39L162.16 74.22Q162.88 74.30 164.24 74.18L164.25 74.19L164.14 74.08Q167.24 74.04 169.37 72.12L169.20 71.95L169.39 72.14Q171.45 70.15 171.69 67.25L171.74 67.31L171.61 67.17Q171.75 66.67 171.75 66.13L171.83 66.21L171.80 66.18Q171.85 63.87 169.72 62.45L169.60 62.32L169.73 62.45Q167.82 61.19 165.33 61.37L165.34 61.38L165.28 61.31Q163.27 61.08 161.37 61.73L161.37 61.72L161.43 61.79Q159.13 62.56 158.66 64.33L158.61 64.29L158.56 64.24Q158.44 65.60 158.56 66.78L158.46 66.68L158.54 66.76Q156.95 66.41 153.76 65.29L153.67 65.21L153.75 65.29Q153.39 62.68 153.45 61.38L153.45 61.38L153.30 61.23Q153.48 58.86 155.13 57.79L155.27 57.94L155.29 57.96Q157.30 56.83 159.79 56.83L159.80 56.84L159.94 56.98Q164.82 56.90 169.73 57.31L169.77 57.35L169.72 57.30Q177.61 57.98 177.14 63.83L177.07 63.76L177.17 63.86Q177.03 66.14 176.26 68.57L176.25 68.56L176.12 68.43Q174.83 73.35 171.16 74.77L171.17 74.78L171.20 74.81Q175.17 75.52 176.12 80.73L176.09 80.71L176.21 80.82Q176.58 82.61 176.70 85.75L176.53 85.58L176.63 85.68Q176.77 92.50 169.62 93.21L169.65 93.25L169.62 93.22Q168.51 93.35 160.29 93.77ZM168.48 97.34L168.45 97.31L168.56 97.42Q169.41 97.38 173.84 97.50L173.90 97.56L173.92 97.57Q176.53 97.58 179.07 96.58L179.05 96.56L179.17 96.68Q180.89 95.08 180.59 92.36L180.57 92.34L180.56 92.33Q180.48 90.36 180.01 87.64L180.00 87.63L179.92 87.55Q178.92 80.70 175.91 78.16L175.91 78.16L175.46 77.41L175.43 77.32L175.58 77.47Q178.27 75.19 179.45 68.39L179.36 68.30L179.40 68.34Q179.54 67.71 179.72 66.23L179.64 66.15L179.61 66.13Q179.75 64.97 179.63 63.90L179.70 63.96L179.57 63.84Q179.40 61.30 177.39 60.24L177.38 60.23L177.32 60.29L177.19 60.16Q176.74 58.64 174.97 57.81L175.00 57.85L174.96 57.80Q172.72 56.87 164.74 56.40L164.69 56.35L164.74 56.40Q162.07 56.22 159.59 56.22L159.68 56.31L159.61 56.24Q157.14 56.25 154.77 57.25L154.82 57.31L154.74 57.23Q152.89 58.45 152.89 61.17L152.89 61.17L152.76 61.04Q152.82 60.45 153.24 65.66L153.35 65.77L153.26 65.68Q153.65 65.71 156.19 66.66L156.36 66.83L156.28 66.75Q156.30 67.59 156.24 68.36L156.20 68.33L156.25 68.37Q156.22 69.11 156.28 69.94L156.29 69.95L156.34 70.00Q158.98 70.45 162.11 70.63L162.27 70.79L162.19 70.70Q162.00 67.50 163.71 66.20L163.75 66.23L163.74 66.22Q165.02 65.20 168.15 64.84L168.21 64.90L168.17 64.86Q170.03 64.94 170.91 65.24L170.79 65.12L170.95 65.27Q170.85 65.29 170.91 65.46L170.93 65.49L170.96 65.81L171.23 66.79L171.13 66.69Q171.22 67.08 171.16 67.32L171.15 67.30L171.06 67.22Q170.99 69.93 168.63 71.76L168.70 71.83L168.65 71.79Q167.19 73.16 164.05 73.46L164.14 73.54L164.04 73.45Q162.92 73.69 161.56 73.69L161.65 73.77L161.63 73.76Q161.61 74.21 161.85 75.27L161.83 75.26L161.96 75.38Q164.70 75.40 166.95 76.53L166.83 76.42L166.70 76.46L164.34 76.82L164.20 76.68Q164.41 77.37 164.59 78.31L164.45 78.17L164.42 78.14Q167.84 78.13 170.50 80.20L170.55 80.25L170.38 80.08Q170.84 80.78 171.32 83.32L171.21 83.22L171.37 83.38Q171.53 87.80 166.98 88.45L166.94 88.41L167.14 88.61Q163.83 88.97 162.94 88.91L162.87 88.83L162.81 88.78Q162.11 88.61 161.28 88.49L161.32 88.52L161.42 87.92L161.56 87.17L161.62 86.58L161.60 86.03L161.66 86.08Q160.19 86.21 158.95 86.51L158.99 86.55L158.99 86.55Q158.82 86.08 158.82 85.79L158.79 85.76L158.98 85.95Q158.92 85.53 158.92 85.18L158.85 85.11L158.99 85.25Q158.99 84.54 159.22 83.41L159.28 83.47L159.33 83.52Q156.35 83.79 153.45 84.32L153.41 84.29L153.39 84.26Q153.39 85.03 153.21 86.78L153.21 86.77L153.28 86.84Q153.13 88.62 153.13 89.57L152.99 89.42L153.06 89.49Q153.13 92.64 155.26 93.82L155.37 93.93L155.26 93.82Q157.61 97.41 164.94 97.12L164.96 97.14L164.95 97.12Q166.08 97.07 168.45 97.31Z"/><path d="M6 24 C156 66,152 123,336 60" stroke="#7e5fdd" fill="none"/><path fill="#4addb8" d="M46.02 82.33L45.98 82.29L46.00 82.31Q50.86 81.79 55.83 81.96L55.73 81.87L55.85 81.99Q55.68 77.92 55.68 74.19L55.84 74.35L55.77 74.28Q55.83 70.49 56.13 66.53L56.02 66.42L55.99 66.40Q54.09 69.05 45.99 82.30ZM61.38 93.72L61.36 93.71L61.50 93.85Q58.91 93.39 56.13 93.27L55.99 93.13L56.06 93.20Q55.67 89.44 55.50 85.60L55.53 85.63L55.49 85.59Q47.19 85.28 39.86 87.47L39.95 87.56L39.93 87.53Q40.09 86.75 40.38 85.21L40.33 85.16L40.52 85.34Q43.30 80.44 48.86 70.68L48.84 70.66L48.83 70.65Q53.34 63.09 58.66 57.06L58.52 56.92L58.68 57.08Q59.87 56.61 62.47 56.20L62.52 56.25L62.61 56.34Q59.53 66.21 59.53 77.15L59.58 77.20L59.55 77.18Q59.53 79.46 59.65 81.77L59.78 81.89L61.71 82.00L61.66 81.94Q62.63 82.02 63.57 82.20L63.69 82.31L63.62 82.25Q63.85 83.83 64.26 86.85L64.17 86.76L64.12 86.71Q62.38 86.44 60.07 86.15L59.91 85.99L60.08 86.16Q60.44 89.30 61.51 93.86ZM63.99 81.61L63.95 81.57L64.10 81.72Q63.82 81.62 63.53 81.62L63.49 81.59L62.88 81.56L62.81 81.50Q62.73 79.29 62.73 77.10L62.72 77.09L62.74 77.11Q62.72 67.15 65.91 57.81L65.84 57.73L65.95 57.84Q64.75 58.24 62.50 58.83L62.48 58.81L62.42 58.75Q62.84 57.64 63.55 55.45L63.55 55.44L63.59 55.49Q61.53 56.02 58.33 56.38L58.26 56.30L58.30 56.35Q52.21 63.09 44.11 77.64L44.02 77.55L47.44 72.04L47.33 71.93Q46.63 73.48 46.22 74.37L46.31 74.46L39.37 88.46L39.35 88.43Q40.30 88.14 42.07 87.55L42.09 87.56L41.89 87.96L41.92 87.99Q41.77 89.08 41.30 91.03L41.18 90.91L41.17 90.91Q47.65 88.92 55.16 89.22L55.22 89.28L55.09 89.15Q55.15 90.63 55.44 93.70L55.59 93.85L55.50 93.76Q57.08 93.68 58.73 93.86L58.86 93.98L58.73 93.85Q59.01 94.96 59.42 97.09L59.49 97.16L59.54 97.21Q62.35 97.42 67.02 98.84L67.04 98.85L67.15 98.96Q65.58 95.62 64.16 90.53L64.10 90.48L66.37 91.21L66.35 91.19Q67.50 91.62 68.56 92.16L68.57 92.16L68.49 92.09Q67.26 88.20 67.03 85.59L67.13 85.70L67.04 85.61Q66.13 85.35 64.36 85.00L64.43 85.07L64.36 84.99Q63.94 82.92 63.94 81.56ZM51.65 81.46L51.68 81.48L51.60 81.40Q52.73 79.34 55.16 75.38L55.29 75.51L55.13 75.35Q55.31 77.02 55.25 78.49L55.14 78.38L55.19 78.43Q55.08 79.86 55.14 81.34L55.15 81.35L55.21 81.40Q54.40 81.42 53.51 81.42L53.50 81.41L53.44 81.35Q52.53 81.39 51.58 81.39Z"/><path d="M7 34 C155 87,163 61,338 24" stroke="#c9e86d" fill="none"/><path d="M8 102 C160 43,162 74,339 138" stroke="#b5e584" fill="none"/><path fill="#4040e2" d="M222.26 61.69L222.17 61.60L219.76 61.80L219.77 61.80Q216.36 62.05 216.00 65.19L216.05 65.24L216.04 65.23Q215.76 66.19 215.82 67.73L215.99 67.90L215.88 67.79Q216.06 70.92 218.01 72.99L217.93 72.92L217.98 72.96Q219.90 75.00 222.86 74.77L222.82 74.73L222.73 74.64Q226.10 74.58 227.29 73.16L227.25 73.13L227.27 73.14Q228.91 71.71 229.32 68.22L229.36 68.25L229.33 68.23Q229.67 64.66 227.72 63.36L227.69 63.33L227.72 63.36Q226.37 62.14 222.23 61.66ZM231.70 76.10L231.61 76.01L229.68 79.64L229.65 79.61Q225.47 87.08 219.62 93.41L219.53 93.32L219.55 93.35Q217.09 93.66 212.89 94.90L212.75 94.76L212.90 94.91Q221.18 85.15 226.09 77.70L225.99 77.60L226.05 77.66Q224.47 78.69 221.93 78.80L221.91 78.79L221.94 78.82Q217.15 78.93 214.78 75.86L214.85 75.93L214.81 75.89Q212.87 73.36 211.16 66.26L211.18 66.29L211.29 66.39Q211.26 65.66 211.03 64.21L211.02 64.20L211.05 64.23Q210.81 62.78 210.81 62.07L210.84 62.10L210.72 61.98Q210.82 59.30 212.48 58.36L212.36 58.23L212.48 58.35Q214.28 57.08 217.18 57.08L217.25 57.16L217.27 57.18Q222.14 57.08 222.14 57.08L222.18 57.11L222.26 57.19Q225.45 57.08 227.40 57.37L227.40 57.36L227.48 57.44Q230.87 57.94 232.29 58.71L232.28 58.70L232.24 58.66Q234.36 59.84 234.66 62.56L234.68 62.58L234.71 62.61Q234.69 62.94 234.39 67.08L234.33 67.01L234.35 67.04Q233.69 70.28 233.33 71.58L233.35 71.59L233.47 71.72Q232.85 73.88 231.67 76.07ZM234.50 79.66L234.58 79.74L234.60 79.77Q236.17 76.37 237.00 69.69L236.89 69.58L237.05 69.73Q237.41 66.25 237.35 64.89L237.35 64.89L237.38 64.92Q237.24 61.94 235.41 60.52L235.52 60.64L235.03 60.44L234.86 60.27Q234.45 59.09 233.03 58.08L233.06 58.12L233.10 58.16Q229.64 56.71 222.19 56.47L222.02 56.31L222.15 56.44Q220.70 56.46 216.91 56.46L216.77 56.32L216.85 56.40Q214.17 56.44 211.86 57.50L211.73 57.37L211.85 57.49Q210.01 58.67 210.13 61.50L210.21 61.58L210.14 61.52Q210.48 62.98 210.77 66.11L210.67 66.01L210.73 66.07Q211.66 70.14 212.08 71.44L212.20 71.57L212.16 71.52Q213.01 74.38 214.49 76.39L214.42 76.33L214.51 76.41Q214.81 76.83 215.40 77.43L215.42 77.44L215.57 77.59Q215.97 78.29 216.98 79.71L216.90 79.64L216.88 79.61Q219.30 81.86 222.32 82.15L222.25 82.09L222.17 82.00Q219.34 86.27 216.91 89.22L216.85 89.17L211.13 95.87L211.33 96.06Q214.65 94.71 217.19 94.17L217.20 94.19L217.17 94.15Q216.12 95.64 213.69 98.31L213.65 98.27L213.59 98.21Q218.40 96.81 223.25 96.75L223.32 96.82L223.21 96.70Q226.95 92.82 233.69 81.58L233.73 81.62L233.74 81.75L233.59 81.60Q234.11 80.57 234.64 79.81ZM225.21 65.35L225.20 65.34L225.32 65.46Q226.25 65.27 226.96 65.44L226.98 65.46L226.97 65.46Q227.83 65.49 228.43 65.67L228.55 65.79L228.47 65.72Q228.60 66.25 228.72 66.90L228.77 66.96L228.88 67.07Q228.91 67.63 228.73 68.22L228.72 68.21L228.66 68.15Q228.73 70.94 226.89 72.65L226.84 72.60L226.94 72.70Q225.39 74.22 222.84 74.16L222.86 74.18L222.83 74.15Q222.20 74.17 219.83 73.69L219.85 73.71L219.88 73.74Q219.35 72.21 219.35 71.09L219.40 71.13L219.36 71.10Q219.27 70.71 219.27 70.35L219.36 70.44L219.29 70.37Q219.31 66.96 222.86 65.72L222.88 65.74L222.85 65.71Q223.89 65.34 225.20 65.34Z"/><path d="M14 114 C151 19,154 34,325 89" stroke="#84cde5" fill="none"/><path d="M5 107 C172 35,157 137,327 31" stroke="#e24fe2" fill="none"/><path d="M4 91 C174 26,188 58,340 66" stroke="#4ceac2" fill="none"/><path d="M7 5 C168 36,176 66,336 6" stroke="#dd6885" fill="none"/><path d="M12 111 C159 86,179 31,328 60" stroke="#52e452" fill="none"/><path d="M11 46 C155 98,181 55,333 23" stroke="#6a89e5" fill="none"/><path d="M10 107 C156 91,159 27,333 9" stroke="#7cedb5" fill="none"/><path d="M15 91 C162 115,190 115,334 46" stroke="#d17ced" fill="none"/><path d="M14 71 C155 78,168 50,323 20" stroke="#d395e8" fill="none"/><path d="M20 39 C191 134,175 17,326 56" stroke="#4cdb70" fill="none"/><path d="M12 122 C165 66,181 128,322 116" stroke="#e98b6c" fill="none"/><path d="M2 45 C182 67,162 19,337 59" stroke="#a38de6" fill="none"/><path d="M13 135 C151 38,180 123,328 106" stroke="#7aefb5" fill="none"/><path d="M9 46 C178 133,156 55,323 72" stroke="#da934d" fill="none"/><path d="M15 52 C162 21,167 131,332 15" stroke="#87e2cb" fill="none"/><path d="M21 65 C163 77,154 117,329 117" stroke="#ed6d8d" fill="none"/><path d="M8 80 C161 123,164 87,332 78" stroke="#dd40b6" fill="none"/></svg>