<svg xmlns="http://www.w3.org/2000/svg" width="342" height="140" viewBox="0,0,342,140"><path fill="#50e676" d="M102.62 96.61L102.54 96.53L102.65 96.64Q100.24 96.80 97.54 96.08L97.41 95.95L97.41 95.95Q95.29 94.36 95.03 91.52L95.02 91.52L94.99 91.48Q94.93 91.16 95.26 86.61L95.39 86.74L95.42 86.78Q97.03 86.27 100.53 85.62L100.54 85.63L100.37 87.10L100.31 87.04Q99.77 90.00 102.21 90.99L102.30 91.08L102.34 91.12Q103.71 91.70 107.34 91.70L107.17 91.53L107.21 91.57Q109.96 91.29 110.29 91.15L110.29 91.16L110.47 91.33Q112.05 91.07 113.30 90.21L113.23 90.14L113.28 90.19Q115.70 88.52 115.37 84.90L115.30 84.82L115.40 84.92Q114.96 80.59 111.96 77.89L112.03 77.96L111.95 77.88Q108.97 75.20 104.69 75.20L104.70 75.22L104.63 74.75L104.63 74.75Q105.26 74.66 106.78 74.52L106.92 74.67L106.94 74.68Q110.15 74.40 112.52 72.26L112.60 72.34L112.45 72.18Q114.98 70.20 115.25 66.97L115.12 66.84L115.28 67.00Q115.30 66.30 115.30 65.70L115.32 65.72L115.26 65.67Q115.31 63.07 112.94 61.49L112.96 61.52L112.85 61.40Q110.85 60.13 108.08 60.32L107.96 60.21L108.14 60.39Q105.75 59.98 103.64 60.71L103.80 60.86L103.69 60.76Q101.16 61.66 100.64 63.63L100.59 63.59L100.70 63.70Q100.27 64.92 100.40 66.24L100.55 66.39L100.50 66.34Q98.64 65.86 95.08 64.61L95.04 64.57L95.23 64.76Q94.69 61.71 94.76 60.26L94.88 60.38L94.79 60.30Q95.05 57.71 96.89 56.53L96.90 56.54L96.90 56.54Q99.39 55.52 102.16 55.52L102.02 55.39L102.08 55.45Q107.63 55.46 113.10 55.92L112.98 55.80L112.95 55.77Q121.72 56.50 121.20 63.03L121.32 63.15L121.20 63.03Q121.07 65.60 120.21 68.31L120.29 68.39L120.32 68.41Q118.75 73.77 114.66 75.35L114.68 75.36L114.61 75.30Q119.22 76.28 120.27 82.09L120.26 82.07L120.27 82.08Q120.66 84.05 120.79 87.55L120.68 87.43L120.75 87.51Q121.05 95.26 113.07 96.05L113.03 96.01L112.98 95.96Q111.74 96.10 102.57 96.56ZM111.71 100.56L111.60 100.45L111.63 100.47Q112.77 100.63 117.72 100.76L117.69 100.73L117.57 100.62Q120.55 100.70 123.39 99.58L123.42 99.60L123.44 99.62Q125.60 98.09 125.27 95.06L125.23 95.01L125.13 94.92Q124.99 92.67 124.46 89.63L124.40 89.57L124.57 89.75Q123.32 81.97 119.96 79.13L119.93 79.11L119.49 78.33L119.54 78.32L119.49 78.26Q122.44 75.68 123.76 68.10L123.81 68.15L123.91 68.25Q123.84 67.32 124.04 65.67L124.13 65.76L124.06 65.69Q124.14 64.32 124.00 63.13L124.13 63.25L124.13 63.26Q123.82 60.31 121.58 59.12L121.48 59.03L121.45 59.12L121.48 59.16Q120.87 57.36 118.89 56.43L118.95 56.49L118.89 56.43Q116.36 55.36 107.46 54.83L107.49 54.86L107.40 54.77Q104.42 54.56 101.65 54.56L101.79 54.70L101.64 54.55Q98.93 54.60 96.29 55.72L96.29 55.73L96.26 55.69Q94.19 57.06 94.19 60.09L94.19 60.09L94.20 60.10Q94.23 59.40 94.69 65.21L94.71 65.23L94.75 65.27Q95.28 65.40 98.12 66.45L98.08 66.42L98.11 66.44Q98.11 67.37 98.04 68.23L97.89 68.07L97.91 68.09Q97.91 68.95 97.97 69.87L98.11 70.01L98.09 69.99Q101.18 70.64 104.67 70.84L104.67 70.83L104.53 70.70Q104.58 67.38 106.49 65.93L106.38 65.82L106.49 65.92Q107.76 64.63 111.26 64.23L111.31 64.28L111.33 64.30Q113.35 64.35 114.34 64.68L114.38 64.71L114.42 64.75Q114.29 64.76 114.36 64.96L114.37 64.97L114.36 65.29L114.74 66.46L114.72 66.44Q114.65 66.70 114.58 66.96L114.60 66.98L114.67 67.05Q114.44 69.92 111.80 71.96L111.86 72.02L111.80 71.96Q110.27 73.59 106.77 73.92L106.77 73.92L106.78 73.93Q105.49 74.16 103.97 74.16L103.90 74.09L103.95 74.13Q104.02 74.73 104.29 75.92L104.29 75.92L104.38 76.02Q107.38 75.98 109.88 77.23L109.75 77.10L109.60 77.14L106.97 77.55L107.02 77.60Q107.10 78.21 107.30 79.26L107.11 79.07L107.17 79.13Q110.87 79.01 113.84 81.32L113.85 81.34L113.82 81.30Q114.29 82.04 114.82 84.87L114.87 84.93L114.68 84.74Q115.13 89.93 110.06 90.66L110.00 90.60L110.07 90.67Q106.33 91.02 105.34 90.95L105.39 91.01L105.34 90.96Q104.57 90.78 103.65 90.65L103.64 90.64L103.77 89.98L103.92 89.14L103.90 88.39L104.00 87.90L103.99 87.89Q102.38 88.06 101.00 88.39L101.02 88.42L100.93 88.32Q101.03 88.10 101.03 87.77L100.91 87.65L101.01 87.75Q100.98 87.32 100.98 86.93L100.93 86.87L101.06 87.00Q101.12 86.27 101.38 85.02L101.43 85.06L101.36 85.00Q98.12 85.39 94.89 85.98L94.90 85.99L94.86 85.95Q94.81 86.76 94.62 88.70L94.66 88.75L94.70 88.79Q94.39 90.62 94.39 91.67L94.41 91.70L94.54 91.83Q94.59 95.30 96.96 96.62L97.01 96.67L96.88 96.54Q99.62 100.66 107.79 100.33L107.64 100.18L107.77 100.31Q109.08 100.30 111.71 100.56Z"/><path d="M21 132 C153 40,174 15,332 127" stroke="#eb8383" fill="none"/><path fill="#e99a80" d="M285.00 73.84L284.88 73.72L284.96 73.80Q286.37 73.83 288.81 73.57L288.65 73.41L288.78 73.54Q288.71 74.65 288.71 75.77L288.59 75.65L288.62 77.86L288.76 78.00Q287.25 77.94 285.80 78.07L285.81 78.08L285.77 78.04Q284.36 78.15 282.91 78.08L282.97 78.14L282.81 77.99Q277.97 88.77 272.04 96.75L272.03 96.75L272.08 96.79Q267.64 97.82 265.39 98.88L265.43 98.91L265.44 98.93Q272.53 89.00 277.80 78.12L277.86 78.17L273.28 78.14L273.29 78.15Q273.24 75.80 273.05 73.50L272.98 73.42L273.13 73.57Q276.25 73.67 279.82 73.67L279.91 73.76L283.29 67.46L283.17 67.33Q284.89 64.04 287.00 61.27L287.04 61.31L287.08 61.35Q284.37 61.60 281.60 61.60L281.50 61.51L281.51 61.52Q271.04 61.60 264.52 57.78L264.56 57.83L263.38 54.79L263.35 54.77Q262.84 53.39 262.18 51.88L262.13 51.83L262.12 51.82Q269.63 56.37 279.53 56.76L279.41 56.65L279.44 56.67Q288.37 57.10 297.28 53.67L297.25 53.65L297.32 53.72Q296.89 54.35 296.03 55.86L296.11 55.94L296.13 55.96Q289.95 64.28 285.00 73.84ZM298.93 58.37L298.97 58.41L300.58 54.80L300.57 54.80Q299.03 55.76 296.13 57.02L296.07 56.96L296.33 56.36L296.42 56.44Q296.64 56.20 296.83 56.00L296.83 56.00L296.69 55.86Q297.44 54.76 298.69 52.45L298.76 52.52L298.66 52.42Q289.41 56.36 279.45 55.96L279.47 55.98L279.60 56.12Q269.03 55.49 260.78 50.35L260.77 50.34L260.84 50.40Q262.63 53.65 264.08 58.26L264.18 58.36L264.07 58.25Q265.94 59.33 267.32 59.86L267.41 59.95L267.33 59.87Q267.56 60.43 268.35 63.66L268.44 63.75L268.42 63.73Q273.95 65.96 283.52 65.70L283.46 65.64L283.55 65.73Q282.93 66.63 279.50 73.15L279.43 73.09L279.44 73.10Q276.03 73.25 272.61 72.92L272.55 72.87L272.55 72.87Q272.73 74.37 272.73 75.88L272.57 75.73L272.64 78.76L275.51 78.73L275.60 81.25L275.63 81.28Q268.84 94.09 264.03 100.28L263.94 100.19L264.02 100.28Q266.70 98.87 269.54 98.01L269.46 97.94L269.56 98.03Q268.40 99.65 266.03 102.61L265.93 102.51L265.96 102.54Q271.43 100.63 275.65 100.23L275.68 100.26L275.77 100.35Q280.85 93.83 286.26 82.09L286.10 81.94L292.07 82.30L292.15 82.38Q291.94 80.71 291.94 79.13L291.92 79.12L291.88 75.97L291.96 76.05Q291.60 76.16 290.65 76.23L290.57 76.15L290.53 76.11Q289.63 76.23 289.17 76.23L289.21 76.27L289.20 76.26Q289.18 76.04 289.24 75.78L289.18 75.71L289.21 75.28L289.19 75.27Q293.65 66.47 298.99 58.43Z"/><path d="M16 57 C158 78,185 58,334 29" stroke="#ecc655" fill="none"/><path d="M18 27 C178 15,151 87,328 35" stroke="#61db9e" fill="none"/><path d="M16 92 C182 94,164 118,332 100" stroke="#4242e0" fill="none"/><path fill="#af74eb" d="M44.91 83.86L44.90 83.86L44.82 83.77Q50.26 83.21 55.80 83.41L55.76 83.37L55.76 83.37Q55.55 78.81 55.55 74.66L55.62 74.72L55.74 74.84Q55.56 70.38 55.89 65.96L55.90 65.97L56.02 66.09Q53.85 68.99 44.81 83.76ZM62.06 96.59L61.91 96.45L62.06 96.59Q59.08 95.98 55.98 95.85L56.02 95.89L56.01 95.88Q55.69 91.81 55.49 87.52L55.38 87.41L55.39 87.42Q46.12 87.05 37.94 89.49L38.03 89.57L38.11 89.66Q38.24 88.73 38.57 87.02L38.48 86.93L38.52 86.97Q41.68 81.55 47.88 70.67L47.81 70.60L47.84 70.63Q52.87 62.22 58.81 55.49L58.81 55.49L58.87 55.55Q60.35 55.19 63.25 54.73L63.18 54.65L63.14 54.62Q59.98 65.90 59.98 78.10L60.01 78.13L59.88 78.00Q59.94 80.63 60.07 83.20L60.03 83.16L62.22 83.30L62.36 83.44Q63.36 83.45 64.42 83.65L64.45 83.69L64.42 83.65Q64.70 85.46 65.17 88.82L65.08 88.73L65.09 88.74Q62.92 88.22 60.35 87.89L60.37 87.91L60.39 87.93Q60.81 91.45 62.00 96.53ZM64.97 83.09L64.83 82.94L64.89 83.01Q64.63 82.95 64.30 82.95L64.20 82.85L63.56 82.86L63.59 82.89Q63.41 80.34 63.41 77.90L63.30 77.79L63.42 77.91Q63.27 66.68 66.83 56.26L66.88 56.31L66.87 56.30Q65.58 56.79 63.07 57.45L63.01 57.39L63.05 57.42Q63.39 56.05 64.18 53.61L64.22 53.65L64.20 53.63Q62.07 54.40 58.51 54.80L58.38 54.67L58.43 54.71Q51.65 62.25 42.62 78.47L42.73 78.59L46.34 72.23L46.28 72.18Q45.63 74.03 45.17 75.02L45.01 74.86L37.37 90.57L37.40 90.60Q38.49 90.30 40.47 89.64L40.48 89.66L40.31 90.14L40.22 90.05Q39.97 91.19 39.44 93.36L39.52 93.44L39.53 93.45Q46.69 91.18 55.07 91.51L55.07 91.52L54.90 91.34Q55.14 93.17 55.47 96.60L55.36 96.48L55.42 96.55Q57.17 96.45 59.02 96.65L59.02 96.65L59.00 96.63Q59.33 97.88 59.79 100.26L59.85 100.32L59.72 100.19Q63.16 100.73 68.37 102.31L68.29 102.23L68.25 102.19Q66.51 98.47 64.93 92.80L65.04 92.91L67.43 93.59L67.48 93.64Q68.65 94.01 69.83 94.61L69.92 94.70L69.84 94.62Q68.58 90.39 68.32 87.49L68.24 87.41L68.21 87.38Q67.31 87.20 65.33 86.81L65.19 86.66L65.28 86.76Q64.95 84.58 64.95 83.06ZM50.95 82.64L50.95 82.65L50.98 82.68Q52.30 80.43 55.00 76.01L55.06 76.08L55.05 76.07Q54.99 77.65 54.92 79.30L55.00 79.38L54.95 79.33Q55.06 81.15 55.12 82.80L55.12 82.79L55.14 82.81Q54.09 82.69 53.10 82.69L53.03 82.62L53.07 82.66Q51.99 82.64 50.94 82.64Z"/><path d="M7 135 C159 55,178 7,329 82" stroke="#e8819b" fill="none"/><path d="M16 9 C172 20,165 72,333 138" stroke="#aadf76" fill="none"/><path d="M18 78 C182 57,169 20,334 120" stroke="#9090e8" fill="none"/><path d="M14 12 C180 108,166 85,335 60" stroke="#4493e3" fill="none"/><path d="M4 64 C161 60,159 77,332 113" stroke="#83e263" fill="none"/><path d="M1 55 C174 47,182 7,328 58" stroke="#9479e6" fill="none"/><path d="M14 84 C162 120,189 59,335 17" stroke="#8e3fde" fill="none"/><path d="M8 16 C170 6,154 81,325 66" stroke="#62dabc" fill="none"/><path d="M11 69 C179 81,158 120,329 98" stroke="#d38eeb" fill="none"/><path d="M20 9 C189 5,181 120,324 85" stroke="#7272e3" fill="none"/><path d="M6 93 C153 97,164 121,324 107" stroke="#c06fdc" fill="none"/><path d="M10 79 C161 67,184 81,338 102" stroke="#5274da" fill="none"/><path d="M13 43 C161 109,160 81,340 90" stroke="#e89f87" fill="none"/><path d="M9 81 C180 23,190 104,325 57" stroke="#4b4be6" fill="none"/><path d="M2 2 C190 95,191 133,322 76" stroke="#b7eb84" fill="none"/><path d="M15 108 C170 63,166 52,333 59" stroke="#71ee71" fill="none"/><path d="M12 111 C181 125,167 39,328 81" stroke="#cb87e2" fill="none"/><path d="M14 108 C180 12,157 137,331 45" stroke="#c96ce9" fill="none"/><path d="M3 18 C161 101,190 30,335 91" stroke="#b2e77d" fill="none"/><path d="M1 10 C189 107,171 113,338 114" stroke="#e4957a" fill="none"/><path d="M5 99 C185 94,158 80,333 103" stroke="#87b5e2" fill="none"/><path d="M2 13 C179 90,157 88,339 4" stroke="#77e8af" fill="none"/><path d="M21 114 C157 131,176 105,324 47" stroke="#718ee4" fill="none"/><path d="M21 136 C183 84,163 86,324 4" stroke="#64bedd" fill="none"/><path d="M2 115 C170 92,189 52,341 131" stroke="#e674c9" fill="none"/><path d="M4 1 C176 21,170 99,333 109" stroke="#5fecc9" fill="none"/><path fill="#b278ec" d="M221.75 60.73L221.63 60.61L218.99 60.87L218.93 60.82Q215.18 61.15 214.78 64.64L214.68 64.54L214.64 64.50Q214.63 65.88 214.70 67.59L214.68 67.58L214.70 67.59Q214.78 70.97 216.95 73.28L216.98 73.30L216.85 73.17Q219.17 75.63 222.47 75.36L222.41 75.31L222.35 75.25Q225.87 74.94 227.19 73.36L227.33 73.50L227.26 73.42Q229.10 71.84 229.56 67.95L229.63 68.02L229.64 68.02Q229.96 64.00 227.79 62.55L227.76 62.52L227.95 62.71Q226.42 61.32 221.81 60.79ZM232.28 76.80L232.25 76.77L229.95 80.66L230.06 80.78Q225.34 89.05 218.81 96.10L218.78 96.08L218.70 95.99Q215.92 96.31 211.24 97.70L211.33 97.79L211.16 97.62Q220.50 86.84 225.97 78.53L225.88 78.45L225.90 78.47Q224.18 79.65 221.35 79.78L221.34 79.78L221.41 79.84Q216.15 80.06 213.51 76.63L213.50 76.62L213.44 76.56Q211.42 73.88 209.51 65.96L209.54 65.99L209.51 65.97Q209.42 65.09 209.16 63.47L209.23 63.54L209.19 63.50Q208.94 61.90 208.94 61.10L208.96 61.13L208.94 61.11Q208.87 57.94 210.71 56.88L210.80 56.97L210.83 57.00Q212.89 55.63 216.12 55.63L216.17 55.68L216.13 55.63Q221.72 55.69 221.72 55.69L221.59 55.56L221.59 55.56Q225.31 55.59 227.49 55.92L227.51 55.94L227.53 55.96Q231.19 56.39 232.77 57.24L232.84 57.32L232.93 57.41Q235.29 58.71 235.62 61.74L235.62 61.74L235.60 61.72Q235.60 62.11 235.27 66.73L235.20 66.66L235.21 66.68Q234.65 70.47 234.26 71.92L234.20 71.86L234.09 71.75Q233.55 74.31 232.23 76.75ZM235.51 80.88L235.53 80.90L235.44 80.81Q237.14 76.98 238.06 69.53L238.18 69.64L238.21 69.67Q238.58 65.76 238.52 64.25L238.48 64.21L238.60 64.32Q238.53 61.09 236.49 59.51L236.40 59.42L235.90 59.26L235.94 59.29Q235.44 57.94 233.86 56.82L233.80 56.76L233.83 56.78Q229.92 55.11 221.61 54.85L221.62 54.86L221.63 54.87Q219.88 54.78 215.66 54.78L215.75 54.86L215.74 54.85Q212.60 54.75 210.03 55.93L210.10 56.00L210.07 55.98Q208.13 57.39 208.26 60.56L208.32 60.62L208.31 60.62Q208.52 62.07 208.85 65.57L208.94 65.66L208.91 65.63Q209.98 70.19 210.44 71.64L210.44 71.64L210.44 71.64Q211.46 74.90 213.11 77.14L213.12 77.16L213.03 77.07Q213.59 77.76 214.25 78.42L214.19 78.36L214.11 78.28Q214.63 79.13 215.75 80.72L215.76 80.72L215.86 80.82Q218.42 83.19 221.79 83.52L221.75 83.48L221.80 83.53Q218.39 88.03 215.68 91.33L215.63 91.28L209.52 99.02L209.41 98.90Q213.25 97.54 216.09 96.94L216.12 96.97L216.27 97.12Q214.81 98.50 212.10 101.46L212.17 101.53L212.21 101.57Q217.60 100.03 223.00 99.97L222.83 99.80L222.87 99.83Q227.02 95.48 234.54 82.95L234.49 82.90L234.47 83.01L234.44 82.98Q234.96 81.79 235.55 80.93ZM225.01 64.79L225.05 64.82L225.13 64.91Q226.11 64.63 226.90 64.83L227.01 64.94L226.84 64.76Q228.08 65.08 228.74 65.28L228.65 65.20L228.66 65.20Q228.83 65.84 228.97 66.56L229.00 66.59L229.03 66.63Q229.19 67.38 229.00 68.04L229.01 68.06L228.97 68.02Q228.98 71.06 226.93 72.97L226.86 72.90L226.79 72.83Q225.31 74.77 222.47 74.71L222.44 74.67L222.42 74.65Q221.59 74.55 218.95 74.02L218.96 74.03L218.94 74.01Q218.53 72.48 218.53 71.22L218.70 71.39L218.67 71.37Q218.57 70.94 218.57 70.54L218.55 70.52L218.48 70.45Q218.47 66.62 222.43 65.23L222.37 65.17L222.51 65.32Q223.70 64.92 225.15 64.92Z"/><path d="M7 8 C168 85,172 84,322 60" stroke="#e5a05b" fill="none"/><path d="M19 70 C153 12,154 16,326 48" stroke="#eb4b73" fill="none"/><path d="M10 138 C158 88,169 133,333 64" stroke="#a48ced" fill="none"/><path d="M20 59 C171 100,170 79,328 66" stroke="#7ee0af" fill="none"/><path fill="#90d2e9" d="M158.26 83.88L158.23 83.85L158.19 83.80Q163.46 83.08 169.00 83.28L169.10 83.38L169.03 83.30Q168.92 78.84 168.92 74.69L168.95 74.72L168.99 74.76Q168.95 70.43 169.28 66.01L169.32 66.06L169.32 66.05Q167.19 69.00 158.15 83.77ZM175.28 96.48L175.32 96.52L175.35 96.55Q172.38 95.95 169.28 95.82L169.40 95.94L169.31 95.85Q169.02 91.80 168.82 87.51L168.88 87.57L168.73 87.43Q159.65 87.24 151.47 89.68L151.45 89.66L151.42 89.64Q151.54 88.69 151.87 86.98L151.99 87.11L151.91 87.03Q155.09 81.63 161.29 70.75L161.21 70.68L161.27 70.74Q166.29 62.30 172.23 55.58L172.16 55.51L172.05 55.40Q173.70 55.21 176.61 54.75L176.66 54.80L176.61 54.75Q173.33 65.91 173.33 78.11L173.29 78.07L173.33 78.11Q173.33 80.68 173.46 83.25L173.30 83.09L175.54 83.29L175.67 83.42Q176.69 83.45 177.75 83.65L177.81 83.71L177.70 83.60Q177.96 85.38 178.43 88.75L178.33 88.65L178.43 88.75Q176.28 88.24 173.70 87.92L173.75 87.96L173.81 88.02Q174.12 91.43 175.30 96.50ZM178.29 83.07L178.17 82.95L178.21 82.99Q177.91 82.89 177.58 82.89L177.56 82.87L176.80 82.77L176.92 82.88Q176.79 80.38 176.79 77.94L176.79 77.94L176.60 77.75Q176.66 66.73 180.22 56.32L180.17 56.26L180.31 56.40Q178.91 56.78 176.40 57.44L176.45 57.49L176.38 57.42Q176.80 56.13 177.59 53.69L177.65 53.75L177.64 53.74Q175.33 54.32 171.77 54.72L171.85 54.81L171.76 54.71Q164.99 62.25 155.96 78.48L156.02 78.53L159.71 72.27L159.70 72.26Q158.85 73.92 158.39 74.90L158.44 74.96L150.74 90.60L150.75 90.61Q151.85 90.33 153.83 89.67L153.83 89.67L153.53 90.03L153.57 90.07Q153.44 91.33 152.92 93.50L152.83 93.42L152.85 93.44Q160.01 91.17 168.39 91.50L168.39 91.50L168.32 91.43Q168.46 93.15 168.79 96.58L168.75 96.54L168.70 96.50Q170.51 96.45 172.35 96.65L172.45 96.75L172.43 96.73Q172.65 97.87 173.11 100.25L173.20 100.34L173.10 100.24Q176.37 100.60 181.58 102.19L181.66 102.26L181.55 102.16Q179.93 98.55 178.34 92.88L178.43 92.97L180.84 93.67L180.91 93.73Q182.04 94.08 183.23 94.67L183.14 94.58L183.27 94.71Q181.85 90.32 181.58 87.42L181.59 87.42L181.49 87.33Q180.51 87.07 178.53 86.67L178.53 86.68L178.63 86.77Q178.30 84.60 178.30 83.08ZM164.36 82.73L164.42 82.78L164.44 82.80Q165.75 80.56 168.46 76.14L168.43 76.11L168.34 76.02Q168.45 77.78 168.38 79.43L168.23 79.27L168.28 79.33Q168.25 81.01 168.32 82.66L168.38 82.72L168.33 82.67Q167.44 82.70 166.45 82.70L166.43 82.68L166.45 82.70Q165.32 82.63 164.27 82.63Z"/><path d="M19 62 C162 61,177 106,328 118" stroke="#86dd69" fill="none"/><path d="M16 123 C180 103,178 133,330 3" stroke="#9ed863" fill="none"/><path d="M18 26 C177 138,168 38,328 96" stroke="#58e8c4" fill="none"/><path d="M6 102 C171 69,183 79,332 15" stroke="#6de86d" fill="none"/><path d="M7 91 C150 93,175 139,331 49" stroke="#99e34e" fill="none"/><path d="M19 5 C182 50,181 36,340 72" stroke="#d34ad3" fill="none"/></svg>