<svg xmlns="http://www.w3.org/2000/svg" width="342" height="140" viewBox="0,0,342,140"><path fill="#61db7f" d="M165.17 76.71L165.14 76.68L165.12 76.66Q162.17 76.49 160.16 78.81L160.19 78.84L160.23 78.89Q158.22 81.20 157.91 84.29L157.93 84.32L157.81 84.19Q157.45 87.55 159.22 89.13L159.32 89.23L159.21 89.12Q160.90 90.63 164.31 90.44L164.35 90.49L164.44 90.58Q167.83 90.32 169.62 89.20L169.54 89.12L169.63 89.21Q171.36 87.29 171.36 84.75L171.47 84.87L171.37 84.76Q171.53 84.30 171.40 83.68L171.32 83.60L171.39 83.67Q171.45 80.89 169.66 78.69L169.73 78.76L169.70 78.73Q167.81 76.44 165.09 76.63ZM164.38 94.66L164.48 94.76L164.38 94.67Q157.32 94.71 155.03 93.47L155.05 93.50L155.08 93.53Q153.37 92.25 153.06 89.46L153.18 89.58L152.99 89.40Q153.03 88.38 153.09 87.21L153.07 87.18L153.15 87.27Q153.21 85.53 153.21 84.79L153.34 84.92L153.22 84.80Q153.95 80.15 154.19 79.03L154.17 79.01L154.20 79.04Q155.04 75.98 156.40 73.69L156.30 73.59L156.41 73.70Q160.72 66.57 170.37 56.24L170.33 56.19L170.33 56.20Q174.63 55.67 178.22 54.37L178.28 54.43L178.23 54.38Q167.17 66.58 161.97 73.45L162.00 73.48L161.93 73.40Q163.57 72.64 165.68 72.64L165.63 72.59L165.66 72.62Q170.96 72.54 173.44 75.70L173.40 75.66L173.46 75.72Q175.62 78.38 176.18 84.13L176.13 84.08L176.27 84.22Q176.25 85.25 176.25 86.24L176.28 86.28L176.24 86.23Q176.31 91.37 172.72 93.11L172.69 93.07L172.67 93.05Q170.76 94.11 164.45 94.73ZM168.20 98.67L168.19 98.66L168.25 98.72Q170.23 98.54 173.45 98.66L173.51 98.72L173.45 98.66Q176.10 98.78 178.64 97.60L178.79 97.75L178.67 97.63Q180.59 96.45 180.59 93.55L180.53 93.49L180.44 93.40Q180.56 92.71 180.28 91.11L180.13 90.96L180.15 90.97Q179.90 89.39 179.90 88.65L179.89 88.65L180.03 88.78Q178.56 81.07 175.97 77.98L175.85 77.86L175.97 77.98Q175.85 77.80 175.60 77.43L175.54 77.36L174.95 76.90L174.83 76.84L174.95 76.97Q174.36 76.12 173.37 74.58L173.30 74.50L173.33 74.54Q171.96 73.11 168.75 72.37L168.64 72.26L168.67 72.29Q170.60 69.64 175.43 63.64L175.50 63.72L182.25 55.00L182.38 55.13Q179.81 56.52 175.91 57.75L176.00 57.85L175.88 57.73Q177.42 56.17 180.33 52.95L180.39 53.02L180.35 52.97Q176.46 54.71 170.15 55.64L170.15 55.64L170.09 55.59Q160.72 65.08 155.89 73.12L156.00 73.23L156.00 73.22Q153.56 77.34 152.63 87.49L152.65 87.51L152.53 87.39Q152.43 88.34 152.55 89.89L152.64 89.97L152.58 89.92Q152.70 92.76 154.49 94.24L154.41 94.16L154.44 94.19Q155.14 94.52 155.08 94.58L155.07 94.57L155.11 94.61Q155.58 95.95 156.88 96.63L156.93 96.67L156.99 96.74Q159.42 97.93 162.58 98.24L162.43 98.09L162.42 98.09Q162.48 98.14 168.17 98.64ZM167.76 80.35L167.74 80.33L167.80 80.39Q168.74 80.21 170.28 81.02L170.29 81.03L170.22 80.95Q170.90 82.63 170.90 83.68L170.83 83.61L170.89 83.67Q171.20 86.70 169.65 88.30L169.51 88.16L169.51 88.16Q167.90 89.46 164.50 89.96L164.46 89.92L164.49 89.95Q162.04 89.84 161.17 89.41L161.23 89.47L161.17 89.41Q161.03 88.84 161.03 88.35L160.87 88.19L160.86 88.17Q160.50 82.86 165.26 80.76L165.40 80.90L165.35 80.85Q166.66 80.36 167.89 80.48Z"/><path d="M19 103 C173 138,184 126,325 71" stroke="#77afe8" fill="none"/><path d="M4 66 C168 13,164 105,324 134" stroke="#de3f8e" fill="none"/><path d="M8 34 C191 74,186 25,327 66" stroke="#3be6e6" fill="none"/><path d="M2 113 C158 23,176 95,323 84" stroke="#8ed24b" fill="none"/><path d="M11 33 C159 11,192 7,341 113" stroke="#8e3be1" fill="none"/><path d="M2 4 C171 84,157 49,331 67" stroke="#e3ca81" fill="none"/><path d="M15 125 C171 27,157 12,329 119" stroke="#d9b753" fill="none"/><path d="M6 7 C172 27,164 105,328 135" stroke="#5cbfdf" fill="none"/><path d="M13 66 C174 120,191 31,338 96" stroke="#b3d64c" fill="none"/><path d="M11 109 C161 19,187 137,339 40" stroke="#3fe33f" fill="none"/><path fill="#5ca0e4" d="M45.61 82.98L45.57 82.94L45.60 82.97Q50.55 82.29 55.75 82.48L55.71 82.43L55.70 82.43Q55.77 78.41 55.77 74.51L55.78 74.52L55.61 74.36Q55.80 70.53 56.11 66.38L55.96 66.23L56.04 66.31Q53.96 68.99 45.48 82.85ZM61.67 94.90L61.64 94.86L61.56 94.78Q58.92 94.37 56.01 94.25L55.99 94.22L56.06 94.29Q55.75 90.45 55.56 86.43L55.60 86.47L55.44 86.31Q46.89 86.11 39.22 88.40L39.26 88.44L39.13 88.31Q39.31 87.50 39.61 85.89L39.73 86.00L39.75 86.02Q42.60 80.83 48.41 70.62L48.43 70.64L48.32 70.53Q53.15 62.74 58.71 56.43L58.67 56.38L58.60 56.31Q60.11 56.09 62.83 55.66L62.84 55.66L62.88 55.71Q59.80 66.17 59.80 77.62L59.63 77.45L59.77 77.58Q59.68 79.91 59.80 82.32L59.82 82.34L61.92 82.52L61.88 82.48Q62.93 82.61 63.92 82.79L63.85 82.72L63.84 82.71Q64.09 84.39 64.53 87.54L64.53 87.54L64.61 87.62Q62.59 87.15 60.17 86.84L60.14 86.81L60.10 86.77Q60.58 90.15 61.69 94.92ZM64.46 82.28L64.40 82.22L64.46 82.28Q64.05 82.06 63.74 82.06L63.80 82.11L63.22 82.15L63.12 82.05Q62.96 79.67 62.96 77.38L62.88 77.30L62.99 77.41Q62.94 66.97 66.28 57.19L66.35 57.26L66.26 57.17Q65.02 57.60 62.67 58.22L62.65 58.19L62.76 58.31Q63.05 56.99 63.79 54.70L63.91 54.82L63.77 54.68Q61.72 55.35 58.38 55.72L58.40 55.74L58.33 55.67Q52.01 62.78 43.54 77.99L43.57 78.03L46.86 71.98L46.83 71.95Q46.15 73.62 45.72 74.55L45.82 74.65L38.61 89.34L38.64 89.37Q39.56 88.99 41.41 88.37L41.41 88.37L41.27 88.85L41.16 88.73Q41.05 89.92 40.55 91.96L40.62 92.03L40.58 91.99Q47.16 89.73 55.02 90.03L55.06 90.08L54.99 90.01Q55.05 91.55 55.36 94.77L55.43 94.84L55.44 94.85Q57.15 94.82 58.88 95.01L59.00 95.13L58.85 94.98Q59.26 96.26 59.70 98.49L59.51 98.30L59.59 98.38Q62.67 98.74 67.56 100.22L67.59 100.26L67.54 100.20Q65.93 96.74 64.44 91.42L64.54 91.52L66.75 92.12L66.80 92.16Q67.97 92.59 69.08 93.15L69.11 93.18L69.07 93.13Q67.73 89.01 67.48 86.29L67.52 86.33L67.54 86.35Q66.60 86.09 64.75 85.72L64.71 85.68L64.79 85.77Q64.35 83.59 64.35 82.17ZM51.33 81.89L51.29 81.85L51.37 81.94Q52.59 79.81 55.13 75.67L55.12 75.66L55.08 75.62Q55.13 77.22 55.07 78.76L55.03 78.73L55.12 78.82Q55.16 80.46 55.22 82.01L55.11 81.89L55.09 81.88Q54.21 81.87 53.28 81.87L53.35 81.93L53.36 81.95Q52.42 81.99 51.43 81.99Z"/><path d="M14 46 C169 60,181 61,326 76" stroke="#dfb843" fill="none"/><path d="M15 30 C188 20,171 38,334 49" stroke="#4ab8dd" fill="none"/><path d="M12 100 C163 83,191 114,330 23" stroke="#6a6aeb" fill="none"/><path d="M4 4 C159 38,158 134,329 78" stroke="#63ecec" fill="none"/><path d="M12 15 C185 93,162 83,338 67" stroke="#549be2" fill="none"/><path fill="#e43939" d="M103.25 94.93L103.18 94.86L103.30 94.98Q100.95 95.05 98.42 94.37L98.48 94.42L98.37 94.32Q96.44 92.89 96.20 90.23L96.28 90.31L96.26 90.30Q96.20 89.98 96.51 85.71L96.50 85.71L96.47 85.67Q98.05 85.28 101.33 84.66L101.34 84.67L101.11 85.99L101.16 86.04Q100.62 88.78 102.91 89.71L103.01 89.81L102.86 89.65Q104.29 90.34 107.69 90.34L107.63 90.28L107.63 90.28Q110.31 90.12 110.62 89.99L110.48 89.85L110.49 89.86Q112.01 89.65 113.18 88.84L113.28 88.93L113.24 88.90Q115.47 87.30 115.16 83.89L115.21 83.94L115.24 83.97Q114.97 80.05 112.16 77.51L112.13 77.49L112.07 77.43Q109.24 74.88 105.22 74.88L105.27 74.93L105.22 74.51L105.31 74.60Q105.88 74.48 107.30 74.36L107.20 74.26L107.24 74.30Q110.37 74.15 112.60 72.14L112.53 72.08L112.50 72.04Q114.86 70.16 115.10 67.13L115.10 67.12L114.97 66.99Q115.15 66.50 115.15 65.94L115.17 65.96L115.16 65.95Q115.16 63.47 112.93 61.99L112.91 61.97L113.00 62.05Q110.94 60.67 108.34 60.86L108.37 60.89L108.31 60.84Q106.21 60.59 104.23 61.27L104.38 61.41L104.33 61.37Q102.02 62.27 101.52 64.13L101.49 64.09L101.39 63.99Q101.23 65.39 101.36 66.62L101.22 66.49L101.25 66.52Q99.69 66.26 96.35 65.08L96.18 64.91L96.24 64.97Q95.92 62.30 95.99 60.94L95.87 60.82L96.03 60.99Q96.13 58.43 97.87 57.32L97.82 57.27L97.94 57.39Q100.08 56.25 102.68 56.25L102.79 56.36L102.84 56.41Q107.87 56.25 113.00 56.68L112.99 56.66L113.08 56.76Q121.18 57.31 120.69 63.43L120.69 63.44L120.81 63.55Q120.65 65.93 119.85 68.47L119.85 68.47L119.92 68.55Q118.27 73.40 114.44 74.88L114.47 74.91L114.60 75.04Q118.74 75.78 119.73 81.23L119.73 81.22L119.85 81.35Q120.05 83.03 120.17 86.30L120.27 86.41L120.36 86.49Q120.45 93.57 112.96 94.31L113.05 94.40L112.98 94.33Q111.93 94.58 103.33 95.01ZM111.80 98.65L111.67 98.53L111.82 98.67Q112.80 98.73 117.44 98.86L117.35 98.77L117.39 98.80Q120.26 98.95 122.92 97.89L122.81 97.79L122.79 97.76Q124.83 96.35 124.52 93.50L124.40 93.37L124.47 93.45Q124.28 91.28 123.79 88.43L123.82 88.46L123.76 88.41Q122.66 81.18 119.50 78.52L119.53 78.54L119.23 77.94L119.09 77.74L119.18 77.83Q122.01 75.46 123.25 68.35L123.17 68.26L123.19 68.29Q123.17 67.46 123.35 65.91L123.33 65.89L123.34 65.90Q123.55 64.75 123.43 63.64L123.45 63.66L123.51 63.72Q123.10 60.83 120.99 59.72L121.12 59.85L120.86 59.71L120.98 59.84Q120.41 58.14 118.55 57.28L118.58 57.31L118.64 57.36Q116.21 56.30 107.86 55.80L107.75 55.69L107.84 55.79Q105.08 55.62 102.48 55.62L102.53 55.67L102.42 55.56Q99.80 55.54 97.33 56.59L97.40 56.66L97.30 56.56Q95.32 57.80 95.32 60.64L95.37 60.69L95.29 60.62Q95.49 60.13 95.92 65.58L95.90 65.55L95.82 65.48Q96.42 65.70 99.08 66.69L99.01 66.62L99.02 66.64Q99.00 67.48 98.94 68.29L98.92 68.26L98.83 68.18Q98.82 68.97 98.88 69.84L98.99 69.95L98.95 69.91Q101.85 70.51 105.12 70.70L105.14 70.72L105.25 70.82Q105.13 67.55 106.92 66.19L106.86 66.12L106.84 66.10Q108.19 65.04 111.47 64.67L111.57 64.77L111.51 64.71Q113.41 64.76 114.34 65.07L114.27 65.00L114.32 65.05Q114.28 65.13 114.34 65.31L114.33 65.31L114.41 65.70L114.53 66.56L114.65 66.67Q114.61 66.95 114.55 67.19L114.58 67.23L114.50 67.15Q114.38 69.93 111.91 71.85L111.86 71.80L111.92 71.87Q110.48 73.39 107.20 73.70L107.19 73.69L107.15 73.65Q106.02 73.95 104.60 73.95L104.56 73.91L104.59 73.94Q104.65 74.49 104.89 75.60L104.84 75.55L104.95 75.66Q107.78 75.65 110.13 76.82L109.97 76.65L109.90 76.78L107.37 77.09L107.32 77.04Q107.31 77.53 107.50 78.52L107.63 78.65L107.59 78.61Q111.05 78.48 113.83 80.64L113.73 80.54L113.76 80.57Q114.22 81.28 114.71 83.94L114.65 83.87L114.70 83.92Q115.01 88.69 110.24 89.37L110.27 89.39L110.23 89.35Q106.94 89.89 106.01 89.83L105.96 89.79L105.84 89.66Q105.09 89.47 104.22 89.35L104.30 89.43L104.37 88.75L104.43 87.89L104.48 87.25L104.54 86.75L104.62 86.84Q103.12 87.01 101.82 87.32L101.70 87.20L101.69 87.18Q101.73 86.91 101.73 86.61L101.66 86.54L101.79 86.66Q101.69 86.19 101.69 85.82L101.85 85.98L101.68 85.81Q101.92 85.31 102.17 84.14L102.00 83.96L102.09 84.05Q99.04 84.41 96.01 84.97L95.93 84.89L96.10 85.06Q96.07 85.84 95.89 87.66L95.86 87.63L95.77 87.55Q95.65 89.43 95.65 90.42L95.62 90.40L95.56 90.33Q95.79 93.78 98.02 95.02L97.97 94.97L97.95 94.96Q100.48 98.78 108.15 98.47L108.09 98.41L108.06 98.38Q109.22 98.30 111.70 98.55Z"/><path fill="#d6d651" d="M217.69 89.39L217.63 89.33L217.61 89.30Q219.56 90.88 221.84 90.63L221.81 90.60L221.80 90.59Q226.51 90.84 227.56 85.40L227.58 85.42L227.56 85.40Q228.66 80.37 228.66 74.87L228.62 74.83L228.64 70.64L228.58 70.58Q228.58 68.54 228.02 66.50L228.06 66.53L228.02 66.49Q226.00 70.23 222.78 77.96L222.79 77.97L222.83 78.01Q219.63 85.76 217.65 89.35ZM225.91 62.65L225.81 62.56L225.92 62.66Q223.97 61.27 221.80 61.27L221.83 61.30L221.80 61.26Q219.48 61.11 217.69 62.60L217.63 62.54L217.51 62.42Q215.78 63.97 215.47 66.38L215.60 66.51L215.54 66.45Q214.86 68.55 214.80 70.96L214.96 71.13L214.79 70.96Q214.81 70.98 214.81 75.62L214.97 75.78L214.92 75.73Q214.95 79.60 215.70 85.48L215.66 85.44L215.59 85.37Q218.63 77.59 225.75 62.49ZM228.40 93.17L228.42 93.19L228.37 93.14Q225.58 94.68 221.81 94.68L221.84 94.72L219.18 94.72L219.05 94.58Q213.92 94.72 212.07 91.93L211.92 91.79L211.93 91.79Q210.67 88.31 210.55 83.55L210.49 83.48L210.58 83.57Q210.53 80.74 210.41 75.11L210.33 75.04L210.35 75.05Q210.31 73.10 210.06 68.15L210.13 68.22L210.05 68.13Q209.86 64.36 210.35 61.14L210.41 61.20L210.38 61.17Q211.14 56.36 218.19 55.99L218.35 56.14L218.22 56.01Q219.49 55.99 221.65 56.05L221.73 56.12L221.63 56.02Q230.99 56.42 232.72 62.05L232.66 61.98L232.65 61.98Q233.60 65.02 233.54 68.05L233.54 68.05L233.60 68.11Q233.43 76.17 233.30 78.15L233.38 78.23L233.28 78.13Q233.01 84.36 232.52 86.46L232.56 86.51L232.57 86.51Q231.48 91.55 228.39 93.16ZM236.48 92.83L236.47 92.82L236.39 92.74Q236.81 88.28 236.75 85.37L236.65 85.28L236.52 77.78L236.59 77.85Q236.48 72.98 235.62 64.01L235.65 64.04L235.64 64.03Q234.67 60.96 232.57 59.73L232.70 59.85L232.71 59.87Q230.05 55.60 221.64 55.35L221.64 55.36L221.64 55.36Q220.22 55.30 218.06 55.36L218.19 55.49L218.08 55.39Q210.82 55.61 210.02 60.68L209.84 60.51L209.84 60.51Q209.22 64.28 209.41 67.68L209.59 67.86L209.55 67.82Q210.13 74.96 210.06 80.40L210.00 80.34L210.06 80.40Q209.96 86.36 210.14 88.03L210.17 88.06L210.04 87.93Q210.64 92.92 213.12 94.22L213.29 94.40L213.25 94.36Q215.55 97.83 222.05 98.26L222.11 98.33L222.10 98.31Q227.84 98.61 228.90 98.55L228.96 98.62L229.08 98.74Q233.69 98.46 235.54 95.86L235.42 95.73L235.56 95.87Q236.32 94.72 236.45 92.80ZM222.39 89.94L222.44 89.99L222.52 90.07Q223.59 87.68 225.32 83.28L225.36 83.33L228.07 76.38L228.11 76.43Q227.99 79.03 227.37 84.47L227.30 84.40L227.29 84.39Q226.26 89.11 222.37 89.92ZM219.19 69.98L219.12 69.91L219.21 70.00Q220.04 67.18 221.15 66.25L221.01 66.11L220.98 66.08Q221.87 65.54 223.97 65.23L223.95 65.22L223.99 65.25Q221.13 71.11 218.10 78.66L218.16 78.73L218.02 78.59Q218.10 74.27 219.21 70.00Z"/><path d="M4 50 C187 49,172 38,327 138" stroke="#92bce6" fill="none"/><path d="M17 63 C187 109,153 36,325 129" stroke="#e4957a" fill="none"/><path d="M17 36 C182 73,159 129,336 72" stroke="#d38eea" fill="none"/><path d="M19 124 C189 77,164 44,336 13" stroke="#90e490" fill="none"/><path d="M7 42 C188 25,177 13,337 125" stroke="#52c3e9" fill="none"/><path d="M14 5 C184 10,176 59,341 9" stroke="#ebeb8e" fill="none"/><path d="M9 26 C177 17,178 88,341 31" stroke="#5ce9e9" fill="none"/><path d="M8 49 C191 94,185 122,333 40" stroke="#c34beb" fill="none"/><path d="M2 61 C176 66,190 91,325 84" stroke="#e1c46f" fill="none"/><path d="M9 14 C182 34,178 71,340 84" stroke="#edcd6c" fill="none"/><path fill="#dec167" d="M278.67 61.25L278.62 61.21L276.22 61.52L276.20 61.51Q272.48 61.62 272.11 64.90L272.04 64.83L272.05 64.84Q272.05 66.14 272.11 67.74L271.98 67.62L272.08 67.72Q272.04 70.77 274.08 72.93L274.11 72.96L274.26 73.11Q276.28 75.25 279.37 75.01L279.30 74.94L279.33 74.97Q282.59 74.64 283.83 73.16L283.84 73.17L283.85 73.17Q285.65 71.76 286.08 68.11L286.11 68.14L285.97 68.00Q286.42 64.36 284.38 63.00L284.54 63.17L284.49 63.12Q282.99 61.74 278.66 61.25ZM288.58 76.36L288.61 76.39L286.37 79.96L286.51 80.10Q282.02 87.80 275.89 94.42L275.84 94.37L275.84 94.37Q273.23 94.66 268.84 95.96L268.88 96.01L268.82 95.95Q277.49 85.75 282.62 77.95L282.75 78.08L282.63 77.96Q281.03 79.08 278.37 79.20L278.36 79.19L278.26 79.09Q273.35 79.32 270.88 76.10L270.93 76.16L270.92 76.15Q268.96 73.57 267.17 66.15L267.23 66.21L267.12 66.10Q267.13 65.37 266.88 63.85L266.92 63.89L266.90 63.86Q266.74 62.44 266.74 61.69L266.62 61.58L266.73 61.68Q266.74 58.79 268.47 57.80L268.43 57.75L268.43 57.75Q270.49 56.60 273.52 56.60L273.49 56.57L273.53 56.61Q278.66 56.54 278.66 56.54L278.60 56.49L278.65 56.53Q282.24 56.66 284.29 56.97L284.12 56.80L284.12 56.81Q287.75 57.41 289.24 58.21L289.11 58.09L289.10 58.07Q291.29 59.27 291.60 62.12L291.65 62.17L291.65 62.17Q291.78 62.67 291.47 67.00L291.39 66.92L291.33 66.86Q290.82 70.44 290.45 71.80L290.48 71.82L290.49 71.83Q289.82 74.08 288.59 76.37ZM291.63 80.21L291.64 80.23L291.69 80.27Q293.22 76.61 294.09 69.62L294.05 69.58L294.03 69.56Q294.57 66.08 294.51 64.66L294.37 64.52L294.41 64.56Q294.35 61.53 292.43 60.04L292.40 60.02L291.95 59.87L291.94 59.86Q291.62 58.73 290.13 57.68L290.16 57.71L290.15 57.70Q286.35 56.01 278.56 55.76L278.55 55.75L278.51 55.71Q277.11 55.86 273.15 55.86L273.10 55.80L273.06 55.77Q270.28 55.83 267.86 56.94L267.84 56.92L267.72 56.80Q266.03 58.27 266.15 61.23L266.11 61.19L266.16 61.24Q266.33 62.58 266.64 65.86L266.77 66.00L266.65 65.87Q267.72 70.22 268.15 71.58L268.17 71.60L268.16 71.59Q269.01 74.54 270.55 76.65L270.60 76.69L270.52 76.61Q271.08 77.29 271.70 77.91L271.72 77.93L271.61 77.82Q271.99 78.52 273.04 80.00L273.13 80.09L273.08 80.03Q275.45 82.22 278.60 82.53L278.64 82.57L278.74 82.66Q275.69 87.04 273.15 90.13L273.07 90.05L267.18 97.15L267.13 97.10Q270.88 95.97 273.54 95.41L273.48 95.34L273.47 95.34Q272.28 96.80 269.74 99.59L269.74 99.59L269.67 99.51Q274.79 98.14 279.86 98.08L279.71 97.93L279.76 97.97Q283.66 93.90 290.71 82.14L290.54 81.97L290.62 82.17L290.54 82.09Q291.01 80.96 291.57 80.15ZM281.77 65.09L281.81 65.14L281.91 65.24Q282.94 65.09 283.68 65.27L283.57 65.16L283.63 65.22Q284.55 65.28 285.17 65.47L285.20 65.50L285.32 65.61Q285.41 66.14 285.53 66.82L285.52 66.80L285.65 66.93Q285.59 67.43 285.41 68.05L285.43 68.07L285.48 68.13Q285.48 70.97 283.56 72.77L283.51 72.71L283.57 72.77Q281.92 74.34 279.26 74.28L279.41 74.43L279.35 74.37Q278.60 74.30 276.12 73.80L276.17 73.85L276.06 73.74Q275.80 72.43 275.80 71.25L275.84 71.30L275.70 71.15Q275.60 70.74 275.60 70.37L275.74 70.51L275.72 70.49Q275.75 66.93 279.46 65.63L279.32 65.49L279.47 65.64Q280.40 65.09 281.76 65.09Z"/><path d="M3 92 C164 80,168 72,341 67" stroke="#e6aa6f" fill="none"/><path d="M14 108 C176 62,155 138,332 41" stroke="#b584e5" fill="none"/><path d="M14 1 C165 88,188 97,324 3" stroke="#6fe18b" fill="none"/><path d="M21 138 C156 98,174 119,331 93" stroke="#62e3c3" fill="none"/><path d="M15 6 C173 103,170 55,328 53" stroke="#e887e8" fill="none"/><path d="M11 61 C192 122,183 48,337 118" stroke="#eaa289" fill="none"/><path d="M19 19 C179 114,164 41,331 86" stroke="#4e6fd4" fill="none"/><path d="M17 107 C182 118,170 73,339 101" stroke="#e56666" fill="none"/><path d="M3 64 C166 28,164 92,340 36" stroke="#e43964" fill="none"/><path d="M20 81 C178 25,181 21,336 132" stroke="#48e999" fill="none"/><path d="M5 15 C163 2,182 60,339 20" stroke="#e24091" fill="none"/><path d="M10 51 C165 61,180 96,326 35" stroke="#84e5e5" fill="none"/><path d="M3 17 C172 122,164 80,323 27" stroke="#d74b91" fill="none"/><path d="M14 125 C164 21,159 101,325 27" stroke="#bd40e7" fill="none"/><path d="M21 77 C177 72,175 109,329 94" stroke="#eb88d2" fill="none"/></svg>