<svg xmlns="http://www.w3.org/2000/svg" width="342" height="140" viewBox="0,0,342,140"><path fill="#d557b5" d="M272.58 96.57L272.65 96.64L272.58 96.57Q270.07 96.63 267.36 95.90L267.35 95.89L267.50 96.04Q265.38 94.45 265.12 91.61L265.07 91.57L265.02 91.51Q265.00 91.23 265.33 86.68L265.40 86.75L265.41 86.76Q267.17 86.41 270.66 85.75L270.54 85.63L270.20 86.94L270.35 87.09Q269.91 90.14 272.34 91.13L272.17 90.95L272.35 91.13Q273.70 91.69 277.33 91.69L277.20 91.57L277.27 91.63Q279.98 91.31 280.31 91.18L280.31 91.17L280.31 91.18Q281.98 91.00 283.23 90.14L283.20 90.11L283.12 90.03Q285.63 88.45 285.30 84.82L285.35 84.88L285.33 84.86Q284.94 80.58 281.94 77.87L281.89 77.82L282.02 77.96Q278.97 75.19 274.68 75.19L274.68 75.20L274.61 74.73L274.63 74.75Q275.27 74.66 276.79 74.53L276.80 74.55L276.82 74.56Q280.13 74.38 282.50 72.24L282.49 72.22L282.58 72.31Q285.00 70.21 285.26 66.98L285.24 66.96L285.18 66.90Q285.28 66.27 285.28 65.68L285.25 65.65L285.23 65.63Q285.32 63.09 282.95 61.50L282.99 61.55L282.92 61.47Q280.84 60.12 278.07 60.32L278.11 60.36L278.08 60.33Q275.77 59.99 273.66 60.72L273.79 60.85L273.65 60.71Q271.29 61.78 270.76 63.76L270.73 63.73L270.77 63.77Q270.37 65.02 270.51 66.34L270.47 66.30L270.49 66.32Q268.74 65.95 265.18 64.70L265.10 64.63L265.08 64.61Q264.82 61.84 264.89 60.39L264.77 60.27L264.78 60.29Q264.99 57.66 266.84 56.48L266.81 56.45L266.87 56.50Q269.27 55.41 272.04 55.41L272.09 55.46L271.98 55.35Q277.45 55.28 282.92 55.74L283.06 55.88L282.93 55.75Q291.84 56.62 291.31 63.14L291.23 63.06L291.29 63.12Q291.13 65.67 290.27 68.37L290.27 68.36L290.28 68.37Q288.65 73.66 284.56 75.25L284.53 75.22L284.65 75.34Q289.05 76.12 290.11 81.92L290.10 81.91L290.19 82.00Q290.66 84.06 290.80 87.55L290.68 87.43L290.75 87.50Q291.00 95.20 283.02 95.99L282.94 95.92L283.10 96.07Q281.83 96.20 272.67 96.66ZM281.58 100.43L281.59 100.43L281.56 100.40Q282.58 100.44 287.53 100.57L287.59 100.63L287.69 100.74Q290.67 100.81 293.51 99.69L293.56 99.74L293.44 99.62Q295.57 98.07 295.24 95.03L295.25 95.04L295.26 95.05Q295.01 92.69 294.49 89.66L294.55 89.72L294.39 89.56Q293.28 81.93 289.92 79.09L289.87 79.04L289.44 78.28L289.54 78.32L289.52 78.30Q292.52 75.76 293.84 68.17L293.75 68.08L293.77 68.10Q293.93 67.41 294.13 65.76L294.14 65.78L294.12 65.75Q294.28 64.46 294.15 63.27L294.15 63.28L294.16 63.29Q293.81 60.29 291.56 59.11L291.62 59.16L291.53 59.20L291.36 59.04Q290.90 57.39 288.92 56.46L288.86 56.40L289.02 56.56Q286.35 55.35 277.45 54.82L277.43 54.80L277.36 54.73Q274.58 54.72 271.81 54.72L271.76 54.67L271.83 54.74Q268.89 54.56 266.25 55.68L266.34 55.78L266.23 55.66Q264.30 57.16 264.30 60.20L264.26 60.15L264.13 60.03Q264.29 59.46 264.75 65.26L264.71 65.23L264.61 65.13Q265.13 65.25 267.97 66.31L268.04 66.38L268.05 66.39Q268.12 67.38 268.05 68.23L267.99 68.17L267.92 68.10Q268.05 69.10 268.12 70.02L267.98 69.88L268.09 69.98Q271.23 70.69 274.72 70.88L274.65 70.82L274.56 70.73Q274.43 67.23 276.34 65.78L276.46 65.90L276.34 65.77Q277.80 64.67 281.30 64.27L281.35 64.32L281.27 64.24Q283.29 64.28 284.28 64.61L284.26 64.59L284.36 64.69Q284.44 64.90 284.50 65.10L284.40 65.00L284.51 65.44L284.75 66.47L284.71 66.43Q284.75 66.80 284.68 67.06L284.57 66.95L284.65 67.03Q284.47 69.95 281.84 72.00L281.74 71.90L281.86 72.02Q280.20 73.53 276.71 73.86L276.75 73.90L276.73 73.88Q275.44 74.11 273.92 74.11L273.92 74.11L274.07 74.25Q274.04 74.75 274.30 75.94L274.33 75.96L274.25 75.89Q277.36 75.96 279.87 77.21L279.77 77.12L279.66 77.21L276.85 77.43L276.90 77.48Q277.00 78.10 277.19 79.16L277.23 79.20L277.28 79.25Q280.98 79.12 283.95 81.43L283.79 81.27L283.88 81.36Q284.17 81.92 284.70 84.75L284.75 84.80L284.79 84.84Q285.20 90.00 280.13 90.73L280.03 90.63L280.06 90.66Q276.45 91.14 275.46 91.07L275.44 91.05L275.46 91.07Q274.71 90.92 273.79 90.79L273.72 90.72L273.79 90.00L273.91 89.13L273.91 88.41L273.97 87.87L274.03 87.93Q272.42 88.10 271.04 88.43L271.02 88.42L271.04 88.44Q271.00 88.07 271.00 87.74L270.95 87.69L270.89 87.63Q270.96 87.30 270.96 86.91L271.01 86.96L270.99 86.94Q271.09 86.25 271.36 84.99L271.36 85.00L271.26 84.90Q268.10 85.37 264.87 85.96L264.77 85.86L264.78 85.87Q264.78 86.72 264.58 88.67L264.62 88.71L264.71 88.80Q264.40 90.63 264.40 91.69L264.56 91.85L264.43 91.72Q264.58 95.29 266.95 96.61L266.90 96.56L266.92 96.58Q269.56 100.60 277.74 100.27L277.83 100.36L277.78 100.32Q278.90 100.12 281.53 100.38Z"/><path d="M20 104 C165 47,191 57,336 25" stroke="#6a8aea" fill="none"/><path d="M2 50 C166 105,164 37,337 64" stroke="#663be6" fill="none"/><path d="M4 21 C171 96,174 44,338 16" stroke="#e49090" fill="none"/><path d="M12 70 C191 36,156 47,321 52" stroke="#44b3d8" fill="none"/><path d="M13 105 C172 26,186 91,323 17" stroke="#d6b246" fill="none"/><path fill="#aaee67" d="M164.75 77.05L164.77 77.07L164.88 77.18Q161.76 77.02 159.61 79.49L159.45 79.34L159.46 79.34Q157.38 81.88 157.05 85.18L156.97 85.10L157.08 85.21Q156.56 88.64 158.44 90.32L158.60 90.48L158.48 90.37Q160.37 92.05 163.99 91.85L163.96 91.82L163.94 91.80Q167.60 91.57 169.51 90.38L169.65 90.52L169.65 90.52Q171.55 88.53 171.55 85.83L171.56 85.84L171.54 85.82Q171.64 85.26 171.51 84.60L171.50 84.59L171.52 84.60Q171.48 81.54 169.57 79.20L169.63 79.26L169.54 79.17Q167.64 76.83 164.73 77.03ZM164.01 96.29L164.01 96.28L164.16 96.44Q156.58 96.44 154.14 95.12L154.05 95.04L154.05 95.03Q152.26 93.70 151.93 90.74L151.94 90.75L152.00 90.81Q151.83 89.52 151.90 88.27L151.97 88.33L151.99 88.36Q152.16 86.62 152.16 85.83L152.09 85.76L152.24 85.90Q152.95 80.88 153.22 79.69L153.15 79.63L153.27 79.74Q153.92 76.24 155.37 73.80L155.40 73.83L155.37 73.80Q160.13 66.36 170.42 55.35L170.43 55.36L170.34 55.27Q174.96 54.75 178.78 53.36L178.79 53.37L178.87 53.45Q166.86 66.23 161.32 73.55L161.31 73.54L161.45 73.69Q163.18 72.84 165.42 72.84L165.43 72.85L165.37 72.79Q171.00 72.69 173.64 76.05L173.76 76.17L173.69 76.10Q175.94 78.88 176.54 85.01L176.60 85.08L176.55 85.03Q176.84 86.44 176.84 87.49L176.67 87.32L176.77 87.42Q176.68 92.73 172.85 94.58L172.96 94.68L172.88 94.61Q170.75 95.64 164.02 96.30ZM168.06 100.54L168.11 100.59L168.04 100.52Q170.23 100.40 173.66 100.53L173.79 100.66L173.70 100.57Q176.61 100.78 179.31 99.53L179.24 99.45L179.26 99.48Q181.08 97.99 181.08 94.90L181.21 95.03L181.13 94.95Q181.26 94.21 180.96 92.50L180.80 92.34L180.97 92.51Q180.51 90.63 180.51 89.84L180.63 89.96L180.55 89.88Q179.06 81.73 176.29 78.43L176.26 78.40L176.35 78.50Q176.15 78.23 175.89 77.83L175.99 77.94L175.31 77.39L175.22 77.36L175.22 77.37Q174.66 76.54 173.60 74.89L173.54 74.83L173.58 74.87Q172.09 73.31 168.66 72.52L168.61 72.47L168.64 72.50Q170.70 69.68 175.85 63.29L175.81 63.25L183.16 54.11L183.25 54.20Q180.54 55.71 176.38 57.03L176.20 56.85L176.30 56.94Q177.94 55.29 181.04 51.86L180.97 51.79L181.04 51.86Q176.89 53.71 170.16 54.70L170.07 54.61L170.12 54.66Q160.13 64.78 154.99 73.35L155.02 73.39L154.99 73.36Q152.50 77.86 151.52 88.67L151.40 88.56L151.47 88.63Q151.24 89.52 151.37 91.17L151.53 91.33L151.49 91.29Q151.65 94.35 153.56 95.93L153.58 95.95L153.57 95.93Q154.21 96.18 154.15 96.25L154.11 96.21L154.07 96.17Q154.79 97.81 156.17 98.54L156.11 98.48L156.10 98.46Q158.69 99.74 162.05 100.07L162.01 100.03L161.91 99.93Q162.02 100.04 168.09 100.56ZM167.73 81.15L167.65 81.07L167.74 81.16Q168.75 80.98 170.39 81.84L170.29 81.73L170.36 81.80Q170.95 83.44 170.95 84.56L170.95 84.56L170.86 84.48Q171.26 87.78 169.61 89.49L169.66 89.54L169.49 89.38Q167.70 90.68 164.07 91.21L164.17 91.31L164.05 91.18Q161.59 91.23 160.67 90.77L160.75 90.86L160.74 90.84Q160.32 89.96 160.32 89.43L160.39 89.50L160.40 89.52Q159.86 83.70 164.94 81.46L164.95 81.47L165.00 81.51Q166.31 80.91 167.63 81.05Z"/><path d="M11 34 C168 133,180 121,322 91" stroke="#d49353" fill="none"/><path fill="#4ebade" d="M102.68 96.67L102.68 96.67L102.55 96.54Q100.22 96.78 97.51 96.05L97.43 95.97L97.50 96.04Q95.26 94.32 94.99 91.49L95.01 91.50L95.02 91.51Q95.03 91.26 95.36 86.71L95.35 86.70L95.31 86.66Q97.14 86.39 100.64 85.73L100.65 85.74L100.29 87.02L100.29 87.02Q99.88 90.11 102.32 91.10L102.27 91.05L102.17 90.95Q103.69 91.68 107.32 91.68L107.25 91.62L107.32 91.68Q110.02 91.35 110.35 91.22L110.41 91.28L110.27 91.14Q112.04 91.06 113.29 90.20L113.13 90.04L113.19 90.10Q115.65 88.47 115.32 84.85L115.30 84.82L115.22 84.74Q114.98 80.61 111.98 77.91L112.03 77.96L111.98 77.92Q109.01 75.24 104.73 75.24L104.67 75.19L104.73 74.85L104.65 74.77Q105.43 74.82 106.95 74.69L106.86 74.61L106.97 74.72Q110.23 74.48 112.61 72.34L112.47 72.21L112.53 72.26Q114.91 70.12 115.17 66.89L115.17 66.89L115.14 66.86Q115.27 66.26 115.27 65.67L115.24 65.64L115.23 65.64Q115.27 63.04 112.90 61.45L112.98 61.53L112.98 61.53Q110.86 60.15 108.10 60.34L108.12 60.37L108.03 60.27Q105.76 59.99 103.65 60.71L103.74 60.80L103.67 60.73Q101.24 61.73 100.71 63.71L100.67 63.67L100.69 63.69Q100.37 65.01 100.50 66.33L100.57 66.40L100.41 66.25Q98.71 65.93 95.15 64.68L95.14 64.67L95.19 64.71Q94.65 61.67 94.72 60.22L94.84 60.34L94.82 60.32Q95.10 57.76 96.94 56.58L96.94 56.58L96.93 56.57Q99.24 55.38 102.01 55.38L102.12 55.49L102.04 55.40Q107.57 55.40 113.05 55.87L112.90 55.72L113.00 55.81Q121.69 56.47 121.16 62.99L121.19 63.02L121.18 63.00Q121.20 65.74 120.35 68.44L120.24 68.33L120.32 68.41Q118.71 73.73 114.62 75.31L114.58 75.27L114.63 75.32Q119.13 76.19 120.18 81.99L120.15 81.96L120.22 82.03Q120.60 83.99 120.73 87.49L120.72 87.48L120.66 87.41Q121.03 95.24 113.05 96.03L112.96 95.94L113.04 96.02Q111.83 96.19 102.66 96.65ZM111.54 100.39L111.66 100.50L111.59 100.44Q112.60 100.46 117.54 100.59L117.69 100.73L117.66 100.71Q120.60 100.74 123.44 99.62L123.55 99.74L123.40 99.58Q125.61 98.10 125.28 95.07L125.21 95.00L125.29 95.08Q124.96 92.64 124.44 89.61L124.43 89.61L124.42 89.60Q123.16 81.80 119.80 78.97L119.87 79.04L119.44 78.28L119.48 78.26L119.40 78.18Q122.49 75.73 123.81 68.15L123.79 68.13L123.90 68.24Q123.95 67.43 124.15 65.78L123.99 65.62L124.15 65.79Q124.17 64.35 124.04 63.16L124.08 63.21L124.07 63.19Q123.84 60.33 121.60 59.14L121.65 59.19L121.45 59.13L121.43 59.11Q120.93 57.41 118.95 56.49L119.04 56.58L118.85 56.40Q116.35 55.35 107.45 54.82L107.42 54.79L107.43 54.80Q104.56 54.70 101.79 54.70L101.71 54.62L101.71 54.62Q99.05 54.73 96.42 55.85L96.37 55.81L96.24 55.68Q94.27 57.13 94.27 60.17L94.30 60.20L94.16 60.06Q94.13 59.30 94.59 65.10L94.62 65.13L94.61 65.13Q95.19 65.31 98.02 66.36L98.11 66.44L98.01 66.35Q98.01 67.27 97.94 68.12L98.04 68.22L98.04 68.23Q97.91 68.95 97.98 69.88L98.03 69.93L98.08 69.98Q101.06 70.52 104.55 70.72L104.60 70.77L104.66 70.82Q104.53 67.33 106.44 65.88L106.33 65.77L106.31 65.75Q107.95 64.82 111.45 64.42L111.45 64.42L111.41 64.39Q113.24 64.24 114.23 64.57L114.31 64.65L114.40 64.74Q114.36 64.83 114.43 65.03L114.36 64.96L114.47 65.40L114.71 66.43L114.75 66.47Q114.60 66.66 114.54 66.92L114.51 66.89L114.54 66.92Q114.40 69.88 111.77 71.93L111.73 71.89L111.88 72.04Q110.21 73.53 106.71 73.86L106.75 73.90L106.81 73.96Q105.55 74.22 104.03 74.22L103.91 74.10L104.02 74.21Q103.97 74.69 104.24 75.87L104.26 75.89L104.26 75.90Q107.26 75.86 109.76 77.11L109.89 77.24L109.61 77.15L106.87 77.45L106.99 77.57Q107.05 78.15 107.24 79.21L107.23 79.20L107.24 79.20Q110.91 79.05 113.88 81.36L113.87 81.35L113.83 81.31Q114.20 81.94 114.73 84.78L114.87 84.92L114.85 84.90Q115.17 89.97 110.10 90.70L110.11 90.72L110.05 90.66Q106.38 91.07 105.39 91.00L105.51 91.13L105.50 91.12Q104.60 90.81 103.68 90.67L103.71 90.71L103.77 89.98L103.96 89.18L103.90 88.39L104.08 87.98L104.01 87.92Q102.32 88.00 100.93 88.33L100.98 88.38L100.96 88.35Q100.95 88.01 100.95 87.68L100.93 87.66L100.94 87.68Q101.02 87.36 101.02 86.97L100.97 86.92L100.99 86.93Q101.03 86.18 101.29 84.93L101.29 84.92L101.26 84.90Q98.18 85.44 94.95 86.04L94.92 86.01L94.94 86.03Q94.97 86.91 94.77 88.86L94.58 88.66L94.66 88.75Q94.52 90.75 94.52 91.81L94.56 91.85L94.43 91.72Q94.53 95.25 96.91 96.57L96.96 96.62L97.03 96.69Q99.48 100.53 107.66 100.20L107.63 100.17L107.79 100.32Q109.04 100.26 111.67 100.52Z"/><path d="M10 59 C185 93,175 19,338 39" stroke="#8383f0" fill="none"/><path d="M3 45 C192 85,178 61,338 41" stroke="#f0f083" fill="none"/><path d="M10 17 C171 15,154 2,329 32" stroke="#dc8a6f" fill="none"/><path d="M12 77 C158 109,157 12,328 111" stroke="#8a69ec" fill="none"/><path d="M16 20 C185 7,168 47,337 33" stroke="#e87cb2" fill="none"/><path fill="#6dcded" d="M216.96 96.56L217.12 96.73L216.95 96.56Q209.99 97.04 208.27 93.02L208.33 93.07L208.33 93.07Q209.52 91.30 212.22 88.20L212.39 88.36L212.38 88.36Q213.09 91.70 218.30 91.90L218.29 91.89L218.29 91.89Q224.32 92.19 227.16 89.88L227.11 89.83L227.07 89.79Q229.47 86.99 229.34 82.30L229.30 82.27L229.37 82.33Q229.06 73.52 220.75 73.91L220.80 73.96L220.81 73.97Q215.85 74.15 212.81 76.32L212.89 76.40L212.23 76.01L211.89 75.80L211.88 75.79Q212.63 70.47 212.43 65.72L212.34 65.63L212.30 65.59Q212.06 61.00 211.47 55.26L211.66 55.45L211.55 55.34Q217.84 56.95 224.44 56.76L224.43 56.76L224.48 56.80Q231.17 56.76 237.37 54.59L237.24 54.46L236.27 57.11L236.37 57.22Q235.75 58.45 235.42 59.90L235.52 59.99L235.34 59.82Q230.01 61.67 223.29 61.67L223.39 61.77L223.38 61.77Q220.79 61.69 218.22 61.42L218.29 61.50L218.21 61.41Q218.01 62.53 217.42 70.24L217.47 70.30L217.56 70.39Q218.86 69.45 222.42 69.19L222.48 69.24L222.52 69.28Q228.92 69.62 231.43 72.52L231.42 72.51L231.43 72.52Q233.77 75.12 234.23 81.78L234.36 81.91L234.40 81.95Q234.77 89.12 232.66 92.61L232.74 92.69L232.61 92.56Q229.11 95.86 223.38 96.25L223.53 96.41L223.49 96.37Q221.67 96.40 217.06 96.66ZM227.58 100.66L227.45 100.52L227.48 100.55Q233.48 100.75 236.78 98.84L236.80 98.86L236.77 98.83Q238.44 96.14 238.44 92.52L238.54 92.62L238.49 92.57Q238.50 87.24 236.85 80.12L236.82 80.09L236.88 80.14Q236.13 77.02 234.02 74.58L234.02 74.58L234.09 74.72L233.65 74.15L233.09 73.86L233.06 73.82Q232.64 72.67 231.52 71.49L231.55 71.52L231.45 71.49L231.52 71.56Q228.85 68.63 222.46 68.63L222.52 68.69L222.01 68.64L222.01 68.64Q222.12 67.63 222.45 65.72L222.38 65.65L222.35 65.62Q231.04 65.86 238.03 63.03L238.15 63.15L238.07 63.07Q238.71 60.54 240.35 55.66L240.40 55.71L236.85 57.43L236.76 57.35Q237.41 55.36 238.27 53.38L238.28 53.40L238.35 53.46Q231.61 55.89 224.49 56.02L224.57 56.10L224.48 56.01Q217.45 56.30 210.59 54.38L210.66 54.45L210.56 54.35Q211.82 62.07 211.82 69.72L211.71 69.62L211.81 69.71Q211.77 72.97 211.57 76.27L211.56 76.26L211.61 76.31Q212.07 76.64 213.06 77.16L212.95 77.06L212.94 77.04Q213.63 76.75 214.75 76.15L214.67 76.07L214.77 76.17Q214.57 77.36 214.18 80.00L214.25 80.07L214.30 80.12Q215.07 80.50 215.80 80.89L215.74 80.84L215.66 80.75Q220.57 77.82 223.80 77.82L223.80 77.82L223.73 77.75Q226.03 77.74 228.08 78.86L228.18 78.96L228.20 78.99Q228.70 80.67 228.76 82.32L228.73 82.28L228.75 82.30Q228.89 86.80 227.11 88.71L227.19 88.79L227.05 88.65Q224.76 90.84 220.87 91.24L220.87 91.24L220.96 91.33Q219.21 91.36 218.03 91.23L218.06 91.26L218.04 91.24Q216.64 91.10 215.32 90.51L215.21 90.39L215.16 90.02L214.92 90.17L214.97 90.22Q213.55 89.33 212.63 87.02L212.74 87.13L212.59 86.98Q210.44 89.58 207.54 93.28L207.47 93.20L207.57 93.31Q207.94 94.26 209.39 95.91L209.44 95.97L209.36 95.88Q211.23 99.07 216.11 99.93L216.12 99.95L216.12 99.95Q218.20 100.37 227.50 100.57Z"/><path d="M15 102 C185 130,173 27,333 133" stroke="#e6bc92" fill="none"/><path d="M20 115 C158 38,176 53,335 15" stroke="#9e60dc" fill="none"/><path d="M12 87 C162 129,161 66,333 108" stroke="#89ebba" fill="none"/><path d="M2 85 C168 66,158 3,325 8" stroke="#42db68" fill="none"/><path d="M4 36 C161 115,161 49,340 138" stroke="#dd73c2" fill="none"/><path d="M11 135 C169 112,190 85,341 61" stroke="#de6ca5" fill="none"/><path d="M2 98 C175 95,186 68,329 74" stroke="#85cce4" fill="none"/><path d="M19 133 C177 90,178 41,332 22" stroke="#e5d094" fill="none"/><path d="M19 131 C162 77,181 128,324 101" stroke="#438ed9" fill="none"/><path d="M4 55 C163 31,187 46,336 98" stroke="#b941e1" fill="none"/><path d="M10 89 C178 126,172 103,333 39" stroke="#db7f61" fill="none"/><path d="M15 131 C155 99,179 125,328 116" stroke="#ec8787" fill="none"/><path d="M15 54 C158 88,180 119,333 73" stroke="#df7b94" fill="none"/><path d="M11 32 C178 8,172 24,338 28" stroke="#428edb" fill="none"/><path d="M18 10 C174 28,178 123,324 117" stroke="#bee645" fill="none"/><path d="M9 15 C173 71,190 104,333 39" stroke="#edb782" fill="none"/><path d="M9 35 C176 64,158 117,340 46" stroke="#dddd4a" fill="none"/><path d="M10 50 C167 6,158 118,327 35" stroke="#59d879" fill="none"/><path d="M20 76 C163 61,151 53,322 91" stroke="#53e8c3" fill="none"/><path d="M19 62 C177 9,181 112,341 73" stroke="#6ec1dd" fill="none"/><path d="M13 44 C164 103,165 50,337 59" stroke="#d7b345" fill="none"/><path d="M9 71 C180 85,172 88,338 73" stroke="#c9e27d" fill="none"/><path d="M11 129 C153 11,187 121,325 7" stroke="#e84ee8" fill="none"/><path d="M17 60 C174 19,192 73,328 86" stroke="#df47b9" fill="none"/><path d="M14 118 C184 70,180 137,333 123" stroke="#ea9e51" fill="none"/><path fill="#aa6aea" d="M44.78 83.73L44.74 83.69L44.90 83.85Q50.20 83.15 55.73 83.34L55.68 83.29L55.64 83.25Q55.66 78.91 55.66 74.76L55.57 74.67L55.70 74.80Q55.57 70.39 55.90 65.97L55.90 65.97L55.90 65.97Q53.88 69.02 44.84 83.79ZM62.04 96.58L62.00 96.53L61.99 96.52Q59.01 95.91 55.91 95.78L55.98 95.85L56.01 95.89Q55.74 91.85 55.54 87.57L55.39 87.42L55.53 87.56Q46.26 87.19 38.09 89.63L38.11 89.65L38.00 89.55Q38.22 88.71 38.55 87.00L38.49 86.94L38.56 87.00Q41.65 81.52 47.84 70.64L47.96 70.76L47.91 70.71Q52.80 62.14 58.73 55.42L58.78 55.46L58.73 55.41Q60.25 55.09 63.15 54.63L63.20 54.68L63.16 54.63Q59.86 65.78 59.86 77.98L59.98 78.09L59.89 78.00Q59.97 80.65 60.10 83.22L60.11 83.24L62.24 83.32L62.28 83.36Q63.46 83.55 64.51 83.75L64.40 83.64L64.44 83.68Q64.65 85.40 65.11 88.77L65.02 88.67L65.13 88.79Q63.05 88.35 60.48 88.02L60.48 88.02L60.43 87.98Q60.79 91.43 61.98 96.51ZM64.92 83.04L64.92 83.03L64.92 83.03Q64.46 82.77 64.13 82.77L64.23 82.87L63.63 82.93L63.55 82.85Q63.34 80.27 63.34 77.83L63.43 77.92L63.38 77.87Q63.39 66.80 66.95 56.38L66.88 56.31L66.87 56.30Q65.63 56.84 63.12 57.50L63.04 57.41L63.10 57.48Q63.46 56.12 64.25 53.68L64.31 53.74L64.19 53.62Q62.01 54.34 58.45 54.74L58.47 54.75L58.52 54.81Q51.59 62.19 42.56 78.41L42.60 78.46L46.34 72.23L46.31 72.21Q45.58 73.98 45.12 74.97L45.13 74.99L37.36 90.55L37.46 90.66Q38.53 90.35 40.51 89.69L40.48 89.65L40.17 90.01L40.30 90.14Q40.05 91.27 39.52 93.45L39.50 93.42L39.53 93.45Q46.69 91.18 55.06 91.51L55.02 91.46L55.04 91.49Q55.01 93.04 55.34 96.47L55.36 96.49L55.44 96.57Q57.25 96.53 59.10 96.73L59.16 96.80L59.17 96.80Q59.28 97.84 59.74 100.21L59.88 100.35L59.76 100.23Q63.16 100.73 68.37 102.31L68.28 102.22L68.26 102.20Q66.62 98.58 65.03 92.91L65.03 92.90L67.56 93.72L67.47 93.62Q68.71 94.08 69.90 94.67L69.99 94.76L69.98 94.75Q68.46 90.26 68.19 87.36L68.24 87.40L68.30 87.47Q67.26 87.15 65.28 86.75L65.21 86.69L65.26 86.73Q64.95 84.58 64.95 83.06ZM50.94 82.64L51.02 82.72L51.09 82.79Q52.27 80.41 54.97 75.99L55.04 76.05L54.99 76.00Q54.98 77.64 54.91 79.29L54.90 79.28L54.92 79.30Q54.93 81.02 55.00 82.67L55.13 82.81L55.04 82.72Q54.16 82.76 53.17 82.76L53.06 82.65L53.11 82.70Q52.09 82.73 51.03 82.73Z"/><path d="M11 35 C153 60,161 130,323 103" stroke="#7fe5e5" fill="none"/><path d="M15 128 C190 80,150 32,339 34" stroke="#93d651" fill="none"/><path d="M14 85 C175 22,154 92,327 84" stroke="#3c3ce0" fill="none"/><path d="M7 23 C158 81,167 138,336 107" stroke="#61eaea" fill="none"/></svg>