<svg xmlns="http://www.w3.org/2000/svg" width="342" height="140" viewBox="0,0,342,140"><path d="M15 62 C152 62,151 7,335 61" stroke="#9bde58" fill="none"/><path d="M2 93 C162 20,176 60,334 13" stroke="#c5eb56" fill="none"/><path d="M6 95 C158 74,162 104,334 25" stroke="#71cfee" fill="none"/><path d="M6 76 C160 41,174 113,340 129" stroke="#4040e7" fill="none"/><path d="M5 128 C162 88,175 23,325 90" stroke="#e8ad72" fill="none"/><path fill="#e29278" d="M198.91 76.95L198.88 76.93L198.86 76.91Q195.74 76.70 193.65 79.12L193.80 79.27L193.81 79.28Q191.55 81.54 191.23 84.77L191.25 84.79L191.23 84.77Q190.91 88.33 192.75 89.97L192.80 90.03L192.83 90.05Q194.51 91.54 198.06 91.34L198.25 91.54L198.10 91.39Q201.62 91.09 203.49 89.93L203.52 89.96L203.61 90.05Q205.51 88.14 205.51 85.49L205.43 85.41L205.45 85.43Q205.58 84.92 205.45 84.27L205.45 84.27L205.42 84.24Q205.47 81.32 203.60 79.03L203.62 79.05L203.68 79.11Q201.71 76.72 198.87 76.91ZM198.14 95.76L198.23 95.85L198.28 95.90Q190.72 95.76 188.33 94.47L188.42 94.55L188.39 94.53Q186.70 93.29 186.37 90.38L186.32 90.32L186.26 90.26Q186.33 89.24 186.40 88.01L186.30 87.92L186.24 87.86Q186.45 86.19 186.45 85.42L186.61 85.57L186.51 85.48Q187.33 80.68 187.59 79.52L187.61 79.54L187.59 79.52Q188.39 76.26 189.82 73.87L189.75 73.80L189.72 73.77Q194.22 66.32 204.29 55.54L204.45 55.70L204.26 55.50Q208.82 55.02 212.56 53.67L212.59 53.70L212.55 53.66Q201.03 66.42 195.61 73.59L195.49 73.47L195.63 73.61Q197.20 72.66 199.39 72.66L199.39 72.66L199.52 72.78Q205.08 72.73 207.67 76.02L207.73 76.09L207.63 75.99Q209.97 78.85 210.56 84.85L210.51 84.81L210.52 84.82Q210.70 86.09 210.70 87.13L210.65 87.08L210.63 87.06Q210.59 92.32 206.85 94.13L206.85 94.13L206.86 94.14Q204.87 95.25 198.28 95.89ZM202.08 99.88L202.14 99.95L202.19 100.00Q204.31 99.86 207.67 99.99L207.62 99.94L207.57 99.88Q210.43 100.09 213.07 98.87L213.07 98.87L213.12 98.91Q214.97 97.54 214.97 94.50L214.85 94.38L214.97 94.50Q214.94 93.63 214.65 91.95L214.62 91.92L214.71 92.02Q214.46 90.37 214.46 89.59L214.40 89.54L214.44 89.58Q212.84 81.45 210.12 78.22L210.09 78.18L210.14 78.24Q210.09 78.13 209.83 77.74L209.80 77.71L209.35 77.39L209.19 77.29L209.20 77.30Q208.64 76.48 207.61 74.87L207.57 74.83L207.48 74.74Q205.90 73.09 202.54 72.32L202.66 72.44L202.70 72.48Q204.66 69.66 209.69 63.39L209.79 63.48L216.87 54.42L216.87 54.42Q214.30 55.99 210.24 57.28L210.24 57.29L210.10 57.14Q211.74 55.56 214.78 52.20L214.81 52.24L214.67 52.09Q210.73 54.03 204.14 55.00L204.09 54.94L204.09 54.95Q194.32 64.87 189.28 73.26L189.37 73.36L189.36 73.35Q186.72 77.55 185.75 88.14L185.74 88.13L185.81 88.20Q185.75 89.24 185.88 90.86L185.87 90.85L185.86 90.84Q185.99 93.81 187.86 95.36L187.88 95.38L187.87 95.37Q188.46 95.57 188.40 95.63L188.41 95.65L188.49 95.73Q189.00 97.14 190.35 97.85L190.39 97.88L190.48 97.97Q192.82 99.02 196.11 99.34L196.09 99.32L196.21 99.45Q196.24 99.47 202.18 99.99ZM201.63 80.77L201.72 80.87L201.67 80.82Q202.62 80.60 204.23 81.44L204.19 81.40L204.37 81.57Q204.87 83.11 204.87 84.21L204.87 84.20L204.92 84.26Q205.28 87.46 203.67 89.14L203.64 89.11L203.60 89.07Q201.80 90.30 198.25 90.82L198.13 90.71L198.19 90.77Q195.68 90.71 194.78 90.26L194.87 90.35L194.82 90.30Q194.63 89.66 194.63 89.15L194.57 89.08L194.63 89.14Q194.18 83.53 199.15 81.33L199.04 81.22L199.11 81.29Q200.39 80.69 201.68 80.82Z"/><path d="M19 13 C169 118,162 3,328 26" stroke="#c26bdf" fill="none"/><path d="M18 103 C188 74,182 72,341 34" stroke="#e56f8d" fill="none"/><path d="M20 22 C180 96,174 86,335 55" stroke="#e67d5a" fill="none"/><path d="M6 81 C168 47,164 81,332 89" stroke="#57df57" fill="none"/><path d="M16 115 C156 88,177 130,334 128" stroke="#c9e575" fill="none"/><path d="M14 50 C170 62,155 136,324 41" stroke="#46d2d2" fill="none"/><path d="M20 98 C151 109,174 48,338 6" stroke="#ebeb56" fill="none"/><path d="M7 37 C161 61,169 49,321 52" stroke="#e8e890" fill="none"/><path d="M10 83 C150 80,191 127,333 7" stroke="#b6da47" fill="none"/><path d="M17 13 C192 100,158 103,322 82" stroke="#e79073" fill="none"/><path d="M1 58 C164 82,162 120,341 91" stroke="#7ede5e" fill="none"/><path d="M21 125 C174 41,182 89,330 137" stroke="#7590df" fill="none"/><path d="M18 56 C184 137,183 113,323 85" stroke="#cfeb79" fill="none"/><path d="M14 59 C151 68,155 90,335 37" stroke="#7b94df" fill="none"/><path fill="#e45277" d="M125.40 95.96L125.40 95.95L125.53 96.08Q123.05 96.12 120.40 95.41L120.43 95.44L120.36 95.37Q118.36 93.88 118.10 91.10L118.10 91.11L118.08 91.08Q118.11 90.86 118.43 86.40L118.28 86.25L118.34 86.31Q120.11 86.02 123.54 85.37L123.48 85.32L123.26 86.71L123.16 86.61Q122.86 89.73 125.25 90.70L125.05 90.50L125.24 90.69Q126.56 91.23 130.11 91.23L130.07 91.20L130.15 91.28Q132.73 90.88 133.05 90.75L133.10 90.80L133.19 90.89Q134.69 90.59 135.92 89.75L135.89 89.72L135.83 89.65Q138.36 88.18 138.04 84.63L137.88 84.48L138.00 84.59Q137.69 80.47 134.75 77.82L134.64 77.72L134.64 77.71Q131.74 75.10 127.54 75.10L127.48 75.04L127.57 74.75L127.61 74.78Q128.19 74.65 129.67 74.52L129.75 74.60L129.67 74.52Q132.87 74.29 135.19 72.19L135.18 72.18L135.18 72.18Q137.65 70.23 137.91 67.06L137.88 67.04L137.77 66.93Q138.02 66.46 138.02 65.88L138.01 65.87L137.90 65.76Q138.00 63.29 135.68 61.74L135.69 61.75L135.54 61.59Q133.60 60.37 130.89 60.56L130.83 60.50L130.90 60.57Q128.65 60.26 126.58 60.97L126.62 61.00L126.66 61.05Q124.13 61.87 123.61 63.81L123.62 63.82L123.66 63.86Q123.22 65.04 123.35 66.33L123.33 66.31L123.47 66.45Q121.67 66.00 118.18 64.77L118.13 64.72L118.15 64.75Q117.83 61.97 117.89 60.55L117.94 60.59L117.87 60.52Q118.11 57.98 119.92 56.82L119.84 56.74L119.88 56.79Q122.23 55.71 124.94 55.71L125.00 55.77L124.98 55.75Q130.36 55.70 135.72 56.16L135.67 56.11L135.65 56.08Q144.34 56.90 143.82 63.29L143.79 63.26L143.83 63.30Q143.53 65.65 142.69 68.30L142.77 68.37L142.78 68.38Q141.18 73.57 137.18 75.12L137.20 75.14L137.16 75.10Q141.74 76.13 142.77 81.81L142.71 81.75L142.75 81.79Q143.12 83.70 143.24 87.13L143.20 87.08L143.15 87.03Q143.54 94.72 135.72 95.49L135.68 95.45L135.59 95.35Q134.38 95.50 125.40 95.95ZM134.41 99.93L134.30 99.81L134.25 99.77Q135.33 99.88 140.17 100.01L140.24 100.07L140.28 100.12Q143.23 100.22 146.01 99.12L145.90 99.02L145.93 99.05Q147.99 97.49 147.67 94.52L147.56 94.42L147.53 94.38Q147.52 92.30 147.00 89.33L146.93 89.26L146.86 89.19Q145.68 81.62 142.39 78.84L142.41 78.87L142.07 78.20L142.09 78.15L142.02 78.08Q145.05 75.69 146.34 68.26L146.27 68.19L146.23 68.16Q146.38 67.46 146.57 65.85L146.43 65.71L146.60 65.87Q146.75 64.60 146.62 63.44L146.51 63.33L146.44 63.26Q146.26 60.50 144.07 59.34L144.03 59.30L144.04 59.44L143.86 59.26Q143.34 57.58 141.40 56.67L141.55 56.82L141.39 56.67Q138.96 55.65 130.24 55.13L130.24 55.13L130.25 55.14Q127.35 54.96 124.64 54.96L124.69 55.01L124.59 54.91Q121.88 54.91 119.30 56.01L119.26 55.98L119.37 56.08Q117.19 57.26 117.19 60.23L117.30 60.35L117.22 60.26Q117.36 59.69 117.81 65.37L117.65 65.21L117.72 65.28Q118.15 65.33 120.93 66.36L121.00 66.43L121.09 66.52Q121.10 67.44 121.04 68.28L120.89 68.13L120.89 68.13Q120.95 69.03 121.01 69.93L121.12 70.04L120.95 69.87Q124.08 70.61 127.50 70.80L127.55 70.85L127.50 70.80Q127.36 67.37 129.24 65.95L129.16 65.88L129.22 65.93Q130.70 64.90 134.13 64.51L134.05 64.43L134.06 64.45Q136.02 64.46 136.98 64.78L136.97 64.77L136.94 64.74Q137.04 64.97 137.10 65.16L137.08 65.14L137.16 65.54L137.26 66.41L137.26 66.42Q137.26 66.74 137.20 67.00L137.15 66.96L137.15 66.95Q137.15 69.99 134.57 71.99L134.51 71.93L134.51 71.94Q133.01 73.53 129.58 73.85L129.45 73.72L129.48 73.75Q128.31 74.07 126.83 74.07L126.77 74.01L126.77 74.01Q126.82 74.57 127.08 75.74L127.05 75.71L127.25 75.91Q130.03 75.72 132.48 76.95L132.50 76.96L132.34 77.00L129.71 77.34L129.79 77.41Q129.71 77.85 129.90 78.88L130.00 78.99L130.07 79.06Q133.64 78.88 136.55 81.14L136.42 81.01L136.49 81.08Q136.90 81.75 137.42 84.53L137.47 84.58L137.42 84.53Q137.65 89.41 132.67 90.12L132.77 90.22L132.85 90.30Q129.24 90.69 128.27 90.62L128.25 90.60L128.30 90.65Q127.43 90.36 126.53 90.23L126.65 90.35L126.53 89.46L126.69 88.66L126.83 88.08L126.96 87.63L126.80 87.47Q125.31 87.73 123.95 88.05L123.92 88.02L123.97 88.07Q123.91 87.68 123.91 87.35L123.78 87.23L123.82 87.27Q123.85 86.91 123.85 86.52L123.88 86.55L123.99 86.67Q123.89 85.79 124.15 84.56L124.18 84.60L124.31 84.73Q121.08 85.04 117.91 85.62L117.88 85.59L117.90 85.61Q117.97 86.53 117.78 88.43L117.71 88.36L117.81 88.46Q117.49 90.24 117.49 91.27L117.49 91.27L117.54 91.32Q117.60 94.74 119.93 96.03L120.03 96.14L119.96 96.07Q122.51 99.97 130.52 99.65L130.52 99.65L130.51 99.64Q131.73 99.57 134.31 99.83Z"/><path fill="#69dda3" d="M262.51 96.03L262.63 96.15L262.52 96.04Q255.58 96.39 253.90 92.45L253.94 92.50L253.89 92.45Q255.29 90.94 257.93 87.90L257.97 87.94L257.85 87.82Q258.66 91.21 263.77 91.41L263.77 91.41L263.77 91.41Q269.58 91.60 272.35 89.34L272.35 89.34L272.36 89.34Q274.79 86.67 274.66 82.08L274.63 82.06L274.59 82.02Q274.38 73.47 266.24 73.86L266.17 73.79L266.35 73.97Q261.44 74.11 258.47 76.24L258.53 76.29L257.99 76.01L257.63 75.78L257.59 75.74Q258.10 70.31 257.91 65.66L258.04 65.80L257.93 65.68Q257.79 61.28 257.21 55.66L257.30 55.75L257.23 55.68Q263.41 57.28 269.87 57.08L269.93 57.15L269.93 57.14Q276.41 57.03 282.48 54.90L282.39 54.82L281.36 57.33L281.38 57.35Q280.90 58.68 280.58 60.11L280.54 60.07L280.57 60.10Q275.29 61.86 268.70 61.86L268.75 61.91L268.77 61.93Q266.17 61.78 263.65 61.52L263.83 61.70L263.64 61.51Q263.57 62.73 262.98 70.28L262.94 70.24L262.92 70.22Q264.41 69.52 267.90 69.26L268.00 69.35L267.99 69.35Q274.34 69.76 276.79 72.60L276.75 72.55L276.76 72.56Q279.04 75.11 279.50 81.63L279.42 81.55L279.54 81.67Q279.90 88.69 277.83 92.11L277.78 92.06L277.85 92.13Q274.41 95.33 268.79 95.72L268.92 95.85L268.93 95.86Q267.19 95.93 262.67 96.19ZM272.85 99.97L272.90 100.02L272.88 100.01Q278.71 100.15 281.94 98.28L281.82 98.16L281.80 98.15Q283.47 95.54 283.47 91.99L283.46 91.99L283.60 92.13Q283.64 86.93 282.02 79.96L281.97 79.91L281.86 79.79Q281.32 76.93 279.25 74.54L279.21 74.50L279.37 74.73L278.98 74.21L278.39 73.88L278.27 73.75Q277.84 72.61 276.74 71.45L276.63 71.34L276.64 71.42L276.73 71.50Q274.15 68.66 267.88 68.66L267.79 68.57L267.49 68.72L267.36 68.58Q267.57 67.71 267.90 65.83L267.81 65.75L267.90 65.83Q276.43 66.10 283.27 63.32L283.25 63.30L283.20 63.25Q283.93 60.88 285.55 56.10L285.56 56.12L281.94 57.66L281.87 57.59Q282.64 55.78 283.48 53.84L283.48 53.83L283.52 53.88Q276.92 56.26 269.95 56.39L269.85 56.29L269.98 56.42Q262.95 56.56 256.23 54.69L256.24 54.69L256.29 54.74Q257.44 62.22 257.44 69.71L257.32 69.59L257.49 69.77Q257.37 72.87 257.17 76.10L257.23 76.15L257.13 76.06Q257.67 76.46 258.64 76.98L258.70 77.04L258.65 76.99Q259.16 76.53 260.26 75.95L260.22 75.92L260.40 76.10Q260.18 77.24 259.80 79.82L259.92 79.94L259.91 79.93Q260.57 80.20 261.28 80.59L261.33 80.64L261.26 80.57Q265.97 77.60 269.13 77.60L269.12 77.58L269.11 77.57Q271.45 77.65 273.45 78.75L273.45 78.75L273.41 78.71Q274.01 80.47 274.07 82.08L273.97 81.98L274.02 82.04Q274.29 86.56 272.54 88.43L272.47 88.36L272.52 88.41Q270.17 90.45 266.36 90.84L266.23 90.71L266.34 90.82Q264.67 90.89 263.51 90.76L263.60 90.86L263.56 90.82Q262.13 90.61 260.84 90.03L260.75 89.94L260.76 89.63L260.62 89.88L260.61 89.87Q259.26 89.04 258.36 86.78L258.38 86.80L258.35 86.77Q256.01 89.07 253.16 92.69L253.24 92.77L253.20 92.73Q253.69 93.80 255.11 95.41L255.09 95.39L255.22 95.52Q256.93 98.52 261.71 99.36L261.79 99.44L261.75 99.41Q263.66 99.69 272.76 99.89Z"/><path d="M5 37 C178 58,172 50,324 20" stroke="#e6e660" fill="none"/><path d="M8 95 C180 91,178 21,335 123" stroke="#ec6ead" fill="none"/><path d="M4 22 C182 83,177 106,341 26" stroke="#e39090" fill="none"/><path d="M19 79 C189 13,180 63,333 126" stroke="#4c98e5" fill="none"/><path fill="#f1f187" d="M56.43 83.52L56.50 83.59L56.36 83.46Q61.59 82.80 67.02 83.00L67.05 83.04L67.09 83.08Q66.98 78.70 66.98 74.63L67.09 74.74L66.99 74.64Q67.09 70.54 67.41 66.21L67.29 66.09L67.32 66.13Q65.34 69.12 56.50 83.59ZM73.24 96.01L73.14 95.90L73.11 95.87Q70.42 95.50 67.38 95.37L67.40 95.39L67.28 95.27Q66.97 91.29 66.78 87.09L66.72 87.03L66.90 87.21Q57.67 86.70 49.66 89.09L49.80 89.23L49.68 89.11Q49.98 88.37 50.30 86.69L50.26 86.65L50.37 86.76Q53.36 81.35 59.43 70.70L59.48 70.74L59.43 70.70Q64.21 62.30 70.02 55.71L70.04 55.74L70.05 55.75Q71.68 55.56 74.52 55.11L74.37 54.96L74.50 55.09Q71.22 65.95 71.22 77.90L71.30 77.98L71.12 77.80Q71.20 80.40 71.33 82.92L71.34 82.93L73.44 83.03L73.51 83.10Q74.48 83.10 75.52 83.30L75.58 83.36L75.55 83.33Q75.84 85.10 76.29 88.39L76.24 88.34L76.13 88.24Q74.16 87.88 71.64 87.56L71.68 87.59L71.67 87.59Q72.06 91.01 73.22 95.98ZM76.06 82.74L76.01 82.70L76.00 82.68Q75.81 82.68 75.48 82.68L75.31 82.51L74.72 82.56L74.84 82.69Q74.48 80.00 74.48 77.61L74.51 77.64L74.61 77.74Q74.50 66.78 77.98 56.57L78.03 56.62L78.03 56.62Q76.70 57.03 74.24 57.67L74.38 57.81L74.37 57.81Q74.77 56.52 75.54 54.13L75.40 53.99L75.45 54.04Q73.18 54.61 69.69 55.00L69.78 55.08L69.80 55.11Q63.10 62.42 54.25 78.31L54.32 78.37L57.90 72.20L57.88 72.18Q57.12 73.88 56.67 74.85L56.72 74.90L49.18 90.22L49.12 90.16Q50.16 89.84 52.10 89.20L52.13 89.23L51.94 89.69L51.94 89.69Q51.76 90.87 51.25 93.00L51.27 93.02L51.16 92.91Q58.06 90.57 66.26 90.89L66.31 90.95L66.42 91.06Q66.51 92.70 66.83 96.06L66.71 95.94L66.69 95.91Q68.54 95.96 70.35 96.15L70.41 96.21L70.28 96.08Q70.64 97.34 71.09 99.67L71.10 99.68L70.99 99.57Q74.22 99.95 79.32 101.50L79.31 101.49L79.31 101.50Q77.75 98.00 76.20 92.44L76.18 92.42L78.57 93.13L78.53 93.09Q79.76 93.55 80.93 94.13L81.02 94.23L80.93 94.14Q79.54 89.84 79.28 86.99L79.35 87.07L79.24 86.96Q78.41 86.84 76.48 86.45L76.44 86.41L76.51 86.48Q75.96 84.13 75.96 82.64ZM62.53 82.51L62.39 82.37L62.53 82.52Q63.69 80.19 66.34 75.86L66.32 75.84L66.46 75.98Q66.42 77.56 66.36 79.18L66.27 79.09L66.38 79.20Q66.44 80.94 66.51 82.55L66.34 82.38L66.45 82.49Q65.42 82.37 64.45 82.37L64.56 82.48L64.40 82.32Q63.60 82.56 62.57 82.56Z"/><path d="M16 94 C159 53,169 12,340 129" stroke="#8f8fef" fill="none"/><path d="M4 123 C173 135,166 12,339 60" stroke="#d44e6f" fill="none"/><path d="M5 61 C162 90,187 69,323 71" stroke="#e792bc" fill="none"/><path d="M4 12 C183 106,188 20,333 47" stroke="#914fd3" fill="none"/><path d="M1 93 C183 120,178 108,323 67" stroke="#3ce567" fill="none"/><path d="M15 60 C164 5,159 70,333 135" stroke="#e6aa6f" fill="none"/><path d="M11 97 C187 14,162 72,321 23" stroke="#91ec73" fill="none"/><path d="M5 31 C153 110,189 135,333 8" stroke="#55dc77" fill="none"/><path d="M17 3 C181 1,152 33,326 53" stroke="#d4d44e" fill="none"/><path d="M13 3 C176 97,156 126,339 132" stroke="#e692bc" fill="none"/><path d="M4 22 C153 14,155 70,326 118" stroke="#e5ca7a" fill="none"/><path d="M18 93 C187 96,164 21,334 78" stroke="#86e3cc" fill="none"/><path d="M4 103 C156 37,165 113,326 45" stroke="#54dddd" fill="none"/><path d="M2 26 C170 76,167 33,324 80" stroke="#e4e470" fill="none"/><path d="M16 40 C187 138,152 127,336 41" stroke="#5b7ce0" fill="none"/><path d="M5 96 C187 93,176 46,338 119" stroke="#8062d9" fill="none"/><path d="M9 113 C188 74,173 128,321 139" stroke="#9fee85" fill="none"/></svg>