<svg xmlns="http://www.w3.org/2000/svg" width="342" height="140" viewBox="0,0,342,140"><path d="M14 31 C171 13,182 57,338 73" stroke="#879ee2" fill="none"/><path d="M10 5 C183 95,170 50,328 47" stroke="#db9651" fill="none"/><path d="M14 44 C170 106,167 20,338 136" stroke="#ea9e51" fill="none"/><path d="M5 74 C156 53,180 124,336 5" stroke="#6acbeb" fill="none"/><path d="M5 58 C170 55,159 127,322 129" stroke="#56e079" fill="none"/><path d="M2 92 C156 78,182 111,324 58" stroke="#c0e15a" fill="none"/><path d="M9 117 C151 29,155 101,325 51" stroke="#e65ae6" fill="none"/><path fill="#71e849" d="M217.40 93.05L217.27 92.93L217.32 92.97Q215.29 93.17 212.95 92.54L212.86 92.46L212.85 92.44Q211.16 91.21 210.93 88.75L210.95 88.77L210.93 88.76Q210.70 88.30 210.99 84.36L211.01 84.38L211.09 84.46Q212.62 84.16 215.65 83.59L215.61 83.55L215.41 84.78L215.34 84.71Q215.01 87.41 217.13 88.27L217.00 88.14L217.14 88.28Q218.27 88.73 221.41 88.73L221.38 88.70L221.45 88.77Q223.82 88.51 224.10 88.40L224.01 88.30L224.03 88.32Q225.41 88.10 226.49 87.36L226.62 87.48L226.62 87.48Q228.59 85.91 228.30 82.77L228.35 82.82L228.34 82.81Q228.03 79.13 225.43 76.79L225.43 76.79L225.47 76.82Q222.98 74.60 219.27 74.60L219.10 74.43L219.13 74.11L219.18 74.16Q219.79 74.15 221.11 74.03L221.08 74.00L221.12 74.05Q223.92 73.82 225.97 71.96L225.89 71.88L225.89 71.88Q228.02 70.10 228.25 67.30L228.29 67.34L228.25 67.30Q228.40 66.82 228.40 66.30L228.36 66.27L228.45 66.36Q228.44 64.07 226.39 62.70L226.23 62.54L226.30 62.61Q224.51 61.45 222.11 61.62L222.04 61.54L222.00 61.51Q220.24 61.46 218.41 62.09L218.35 62.03L218.24 61.91Q216.24 62.89 215.78 64.60L215.75 64.57L215.77 64.59Q215.41 65.65 215.52 66.79L215.45 66.72L215.48 66.75Q214.08 66.55 210.99 65.46L211.00 65.47L210.90 65.37Q210.60 62.90 210.66 61.65L210.63 61.62L210.58 61.57Q210.80 59.33 212.40 58.30L212.46 58.36L212.38 58.29Q214.50 57.38 216.90 57.38L216.85 57.33L216.81 57.29Q221.56 57.24 226.30 57.64L226.31 57.66L226.41 57.76Q233.96 58.33 233.50 63.99L233.45 63.93L233.55 64.03Q233.47 66.29 232.72 68.63L232.71 68.62L232.73 68.64Q231.21 73.11 227.67 74.48L227.79 74.60L227.74 74.56Q231.61 75.28 232.52 80.31L232.53 80.32L232.55 80.33Q233.02 82.18 233.14 85.21L233.14 85.21L232.97 85.04Q233.21 91.73 226.30 92.41L226.48 92.60L226.37 92.49Q225.25 92.57 217.32 92.97ZM225.22 96.42L225.13 96.33L225.18 96.38Q226.07 96.41 230.35 96.53L230.43 96.61L230.31 96.48Q232.92 96.58 235.38 95.61L235.51 95.74L235.44 95.68Q237.25 94.29 236.96 91.66L236.85 91.55L237.02 91.72Q236.69 89.56 236.24 86.94L236.31 87.01L236.31 87.01Q235.30 80.35 232.39 77.89L232.24 77.75L231.94 77.16L231.99 77.15L231.91 77.07Q234.65 75.01 235.79 68.44L235.75 68.40L235.84 68.49Q235.87 67.78 236.04 66.35L236.06 66.37L236.04 66.36Q236.07 65.12 235.95 64.10L235.91 64.06L236.00 64.14Q235.68 61.54 233.74 60.51L233.82 60.60L233.59 60.48L233.62 60.51Q233.26 59.12 231.55 58.32L231.59 58.36L231.53 58.30Q229.28 57.31 221.57 56.85L221.51 56.80L221.46 56.74Q219.06 56.74 216.66 56.74L216.66 56.73L216.61 56.69Q214.17 56.64 211.88 57.62L211.92 57.65L211.91 57.64Q210.11 58.82 210.11 61.44L210.11 61.44L210.20 61.52Q210.13 60.83 210.53 65.85L210.45 65.77L210.53 65.85Q211.00 65.99 213.46 66.90L213.47 66.91L213.50 66.94Q213.38 67.62 213.32 68.36L213.46 68.50L213.27 68.31Q213.35 69.13 213.40 69.93L213.48 70.00L213.42 69.94Q216.13 70.54 219.16 70.71L219.04 70.60L219.08 70.64Q219.10 67.75 220.76 66.49L220.59 66.32L220.73 66.46Q222.01 65.52 225.04 65.17L224.97 65.10L225.01 65.14Q226.73 65.15 227.58 65.44L227.55 65.40L227.60 65.45Q227.50 65.47 227.56 65.64L227.57 65.65L227.59 65.96L227.78 66.83L227.88 66.93Q227.75 67.09 227.70 67.32L227.67 67.29L227.83 67.46Q227.69 70.00 225.41 71.77L225.29 71.65L225.44 71.80Q223.91 73.01 220.88 73.30L221.05 73.47L221.00 73.41Q219.83 73.55 218.51 73.55L218.54 73.58L218.57 73.61Q218.56 74.05 218.79 75.08L218.87 75.17L218.80 75.10Q221.49 75.16 223.66 76.24L223.64 76.23L223.40 76.16L221.19 76.57L221.14 76.52Q221.23 77.07 221.40 77.98L221.43 78.01L221.33 77.91Q224.61 77.88 227.18 79.87L227.04 79.74L227.08 79.78Q227.55 80.48 228.01 82.93L227.99 82.92L227.95 82.87Q228.25 87.29 223.85 87.92L223.84 87.90L223.77 87.83Q220.67 88.27 219.81 88.21L219.79 88.19L219.86 88.26Q219.14 88.06 218.34 87.94L218.37 87.97L218.26 87.18L218.50 86.56L218.65 86.08L218.68 85.60L218.59 85.50Q217.26 85.72 216.06 86.00L215.91 85.86L216.08 86.02Q215.85 85.51 215.85 85.22L215.88 85.25L215.92 85.29Q216.04 85.07 216.04 84.73L215.91 84.60L215.94 84.63Q216.10 84.11 216.33 83.02L216.36 83.05L216.20 82.89Q213.48 83.31 210.68 83.82L210.60 83.74L210.59 83.73Q210.68 84.56 210.51 86.25L210.49 86.23L210.45 86.19Q210.26 87.85 210.26 88.76L210.38 88.89L210.32 88.83Q210.54 92.02 212.59 93.16L212.56 93.13L212.47 93.04Q214.67 96.44 221.76 96.15L221.87 96.27L221.78 96.18Q222.81 96.07 225.10 96.30Z"/><path d="M6 55 C164 43,160 61,323 39" stroke="#7dec99" fill="none"/><path d="M16 5 C179 111,176 100,329 66" stroke="#aae96c" fill="none"/><path d="M8 29 C184 98,170 111,338 59" stroke="#dfdf52" fill="none"/><path d="M18 56 C175 73,175 133,335 108" stroke="#ee76b2" fill="none"/><path d="M14 118 C166 73,156 73,336 8" stroke="#ec6363" fill="none"/><path fill="#e9c867" d="M161.78 87.96L161.75 87.94L161.68 87.86Q163.36 89.20 165.48 88.98L165.58 89.08L165.53 89.03Q169.87 89.26 170.84 84.23L170.98 84.37L170.84 84.23Q171.73 79.47 171.73 74.38L171.82 74.47L171.80 70.57L171.88 70.66Q171.88 68.77 171.37 66.88L171.38 66.90L171.29 66.80Q169.45 70.28 166.48 77.42L166.51 77.45L166.55 77.49Q163.48 84.53 161.66 87.84ZM169.13 63.05L169.31 63.23L169.22 63.14Q167.55 61.98 165.55 61.98L165.54 61.97L165.50 61.93Q163.32 61.75 161.66 63.12L161.59 63.05L161.60 63.06Q160.02 64.50 159.73 66.73L159.75 66.74L159.71 66.70Q159.09 68.65 159.03 70.88L159.14 70.99L159.15 71.00Q159.14 70.99 159.14 75.27L159.17 75.30L159.10 75.24Q159.22 78.89 159.90 84.32L159.84 84.26L159.88 84.29Q162.70 77.12 169.27 63.19ZM171.50 91.28L171.64 91.43L171.58 91.36Q168.93 92.71 165.44 92.71L165.53 92.80L163.05 92.78L163.04 92.76Q158.16 92.73 156.44 90.16L156.39 90.11L156.45 90.17Q155.30 86.96 155.18 82.57L155.05 82.43L155.22 82.60Q155.09 79.90 154.97 74.70L154.88 74.61L154.89 74.62Q154.92 72.88 154.69 68.31L154.74 68.36L154.60 68.22Q154.58 64.89 155.04 61.92L154.96 61.84L155.07 61.96Q155.70 57.44 162.21 57.10L162.24 57.12L162.25 57.13Q163.31 57.00 165.31 57.06L165.46 57.20L165.35 57.10Q173.96 57.43 175.56 62.62L175.49 62.56L175.54 62.61Q176.42 65.43 176.36 68.22L176.31 68.18L176.39 68.25Q176.31 75.77 176.20 77.60L176.15 77.55L176.13 77.53Q175.88 83.28 175.43 85.22L175.45 85.24L175.35 85.14Q174.45 89.90 171.59 91.38ZM179.09 91.11L178.96 90.98L179.09 91.11Q179.40 86.91 179.34 84.23L179.22 84.10L179.23 77.32L179.25 77.33Q179.08 72.77 178.28 64.49L178.24 64.45L178.35 64.55Q177.50 61.77 175.56 60.62L175.59 60.66L175.58 60.65Q173.24 56.83 165.48 56.60L165.31 56.44L165.40 56.52Q164.09 56.46 162.09 56.52L162.04 56.47L162.03 56.46Q155.31 56.65 154.56 61.33L154.49 61.26L154.58 61.35Q153.95 64.77 154.12 67.91L154.22 68.01L154.09 67.88Q154.66 74.51 154.61 79.53L154.52 79.44L154.69 79.61Q154.52 85.05 154.70 86.59L154.77 86.66L154.76 86.65Q155.27 91.22 157.56 92.42L157.51 92.37L157.62 92.49Q159.81 95.76 165.81 96.16L165.73 96.08L165.72 96.07Q171.26 96.58 172.23 96.53L172.11 96.40L172.15 96.45Q176.36 96.15 178.07 93.75L178.09 93.76L178.10 93.77Q178.84 92.74 178.95 90.97ZM166.00 88.35L166.06 88.41L166.10 88.46Q167.17 86.33 168.77 82.28L168.75 82.25L171.29 75.88L171.38 75.98Q171.22 78.33 170.65 83.36L170.75 83.45L170.76 83.46Q169.74 87.76 166.14 88.50ZM163.08 69.96L163.18 70.06L163.14 70.02Q163.75 67.26 164.78 66.40L164.86 66.49L164.92 66.55Q165.55 65.86 167.49 65.58L167.42 65.51L167.52 65.61Q164.92 71.05 162.12 78.02L162.18 78.08L162.01 77.91Q162.17 74.02 163.19 70.08Z"/><path d="M17 12 C179 9,170 15,341 40" stroke="#64bedd" fill="none"/><path d="M8 64 C158 108,170 15,336 133" stroke="#e471c7" fill="none"/><path fill="#ed9577" d="M103.11 81.96L103.10 81.95L102.98 81.83Q107.78 81.43 112.57 81.60L112.43 81.45L112.47 81.50Q112.41 77.67 112.41 74.07L112.44 74.10L112.52 74.18Q112.48 70.43 112.77 66.61L112.75 66.59L112.79 66.63Q110.86 69.10 103.04 81.89ZM117.98 93.00L117.89 92.92L117.89 92.92Q115.40 92.48 112.72 92.37L112.68 92.33L112.63 92.28Q112.53 88.93 112.36 85.22L112.19 85.05L112.29 85.15Q104.33 84.89 97.25 87.01L97.13 86.89L97.30 87.06Q97.38 86.22 97.66 84.74L97.69 84.76L97.63 84.70Q100.30 79.95 105.67 70.53L105.78 70.64L105.72 70.58Q110.14 63.35 115.28 57.53L115.25 57.50L115.27 57.52Q116.59 57.24 119.10 56.84L119.08 56.81L119.05 56.79Q116.07 66.32 116.07 76.88L116.09 76.89L116.15 76.95Q116.10 79.13 116.22 81.36L116.22 81.37L118.19 81.57L118.30 81.68Q119.08 81.60 120.00 81.78L120.08 81.86L120.11 81.89Q120.25 83.34 120.65 86.25L120.57 86.18L120.61 86.22Q118.74 85.77 116.51 85.48L116.57 85.54L116.64 85.61Q116.83 88.48 117.85 92.88ZM120.43 81.24L120.49 81.30L120.43 81.24Q120.07 81.05 119.79 81.05L119.82 81.09L119.34 81.17L119.27 81.11Q119.09 78.86 119.09 76.75L119.07 76.74L119.17 76.83Q119.17 67.24 122.25 58.22L122.12 58.09L122.18 58.14Q121.04 58.55 118.87 59.12L118.82 59.07L118.88 59.13Q119.23 57.99 119.91 55.88L119.96 55.93L119.84 55.81Q117.90 56.38 114.82 56.72L115.00 56.90L114.91 56.82Q109.09 63.39 101.27 77.43L101.24 77.40L104.40 71.95L104.39 71.94Q103.81 73.52 103.41 74.38L103.30 74.27L96.69 87.88L96.70 87.89Q97.68 87.66 99.39 87.09L99.23 86.93L99.04 87.32L99.18 87.45Q98.92 88.39 98.46 90.28L98.38 90.19L98.50 90.31Q104.69 88.33 111.94 88.62L111.78 88.46L111.81 88.49Q111.96 90.01 112.24 92.98L112.29 93.03L112.27 93.00Q113.78 92.91 115.38 93.09L115.44 93.15L115.47 93.17Q115.67 94.18 116.07 96.24L116.10 96.26L116.09 96.26Q118.96 96.61 123.47 97.99L123.41 97.92L123.44 97.96Q121.92 94.72 120.55 89.81L120.51 89.77L122.72 90.49L122.66 90.44Q123.76 90.85 124.79 91.37L124.80 91.37L124.83 91.40Q123.65 87.66 123.43 85.15L123.33 85.05L123.32 85.04Q122.47 84.82 120.76 84.48L120.88 84.60L120.83 84.55Q120.39 82.51 120.39 81.19ZM108.50 81.07L108.43 81.00L108.44 81.01Q109.61 79.09 111.95 75.27L111.99 75.31L111.84 75.16Q112.01 76.76 111.96 78.19L111.90 78.13L111.89 78.12Q111.83 79.54 111.88 80.97L111.97 81.06L111.90 80.99Q111.03 80.92 110.18 80.92L110.24 80.98L110.13 80.88Q109.34 80.99 108.42 80.99Z"/><path d="M15 115 C172 137,162 55,336 129" stroke="#e8e853" fill="none"/><path d="M20 120 C165 61,191 36,340 96" stroke="#7676ee" fill="none"/><path d="M8 131 C176 103,181 52,326 62" stroke="#5b5bea" fill="none"/><path d="M2 35 C163 75,164 135,333 130" stroke="#71a8de" fill="none"/><path fill="#eaea7f" d="M279.01 76.33L278.96 76.27L278.89 76.20Q276.15 76.26 274.32 78.26L274.42 78.36L274.33 78.27Q272.54 80.30 272.31 83.16L272.23 83.08L272.27 83.12Q272.06 86.40 273.89 87.91L273.75 87.77L273.90 87.92Q275.68 89.39 278.88 89.27L278.91 89.31L278.91 89.30Q282.42 89.11 283.85 87.68L283.79 87.62L283.81 87.64Q285.23 85.34 285.05 82.60L285.13 82.68L285.23 82.77Q285.02 79.94 283.39 78.14L283.35 78.10L283.37 78.12Q281.66 76.23 278.92 76.23ZM278.94 62.15L278.89 62.10L278.95 62.16Q276.83 61.98 274.83 62.72L274.88 62.78L274.88 62.77Q272.91 63.94 273.25 66.74L273.11 66.60L273.26 66.76Q273.95 72.30 278.98 72.30L278.99 72.31L278.94 72.26Q281.40 72.66 282.88 70.95L282.86 70.93L282.77 70.83Q284.20 69.07 284.26 66.73L284.31 66.78L284.28 66.75Q284.49 64.22 283.41 63.31L283.42 63.32L283.37 63.27Q280.78 61.94 278.84 62.05ZM278.55 93.00L278.42 92.86L273.87 92.88L273.84 92.86Q271.74 93.04 269.74 91.72L269.69 91.67L269.60 91.58Q267.59 89.92 267.82 85.64L267.74 85.55L267.74 85.56Q268.61 75.46 274.03 73.97L273.93 73.87L273.85 73.80Q270.55 72.55 268.56 64.50L268.46 64.41L268.46 64.41Q267.95 62.30 268.07 61.10L268.12 61.16L268.19 61.22Q268.48 57.86 274.02 57.80L274.08 57.87L274.15 57.94Q280.48 57.81 282.65 58.10L282.53 57.97L282.59 58.03Q288.35 58.83 289.03 61.85L289.13 61.95L289.16 61.98Q289.25 62.81 289.25 63.38L289.24 63.38L289.25 63.38Q289.26 64.42 288.98 65.34L288.95 65.31L288.91 65.27Q287.95 71.57 283.56 73.85L283.72 74.01L283.65 73.94Q288.81 75.05 289.55 82.98L289.57 83.01L289.57 83.00Q289.56 83.22 289.61 85.16L289.69 85.24L289.70 85.25Q289.74 89.29 287.34 90.89L287.46 91.00L287.41 90.95Q285.27 92.18 278.42 92.87ZM282.03 96.54L281.86 96.37L286.93 96.53L286.97 96.56Q289.44 96.58 291.73 95.50L291.90 95.67L291.88 95.65Q293.49 94.46 293.60 91.66L293.58 91.64L293.72 91.78Q293.78 90.13 293.21 87.22L293.16 87.17L293.18 87.18Q291.84 80.24 288.69 77.45L288.65 77.40L288.27 76.73L288.11 76.46L287.87 76.05L287.77 75.95Q290.21 73.87 291.58 67.65L291.69 67.77L291.63 67.70Q291.71 67.21 291.83 65.96L291.84 65.97L291.70 65.83Q291.94 64.93 291.83 64.02L291.72 63.91L291.85 64.05Q291.48 61.73 289.71 60.99L289.66 60.94L289.79 61.01L289.45 60.78L289.50 60.84Q289.06 59.71 287.29 58.51L287.31 58.53L287.32 58.49L287.43 58.59Q284.36 57.47 278.25 57.18L278.41 57.34L278.24 57.17Q276.06 57.16 274.00 57.33L274.02 57.35L274.02 57.35Q272.76 57.34 270.82 57.57L270.75 57.51L270.81 57.56Q267.94 58.18 267.60 60.63L267.50 60.54L267.48 60.52Q267.41 61.24 267.47 62.44L267.60 62.57L267.51 62.49Q267.70 63.30 268.56 66.84L268.64 66.92L268.67 66.96Q269.86 71.80 272.48 73.80L272.32 73.63L272.55 73.86L272.52 73.83Q268.30 75.73 267.50 83.49L267.54 83.53L267.58 83.57Q267.29 86.88 267.29 88.25L267.23 88.19L267.23 88.19Q267.32 90.85 269.09 92.22L269.10 92.22L269.06 92.19Q269.36 92.43 269.76 92.71L269.74 92.70L269.71 92.67Q271.27 96.11 281.95 96.45ZM281.50 79.90L281.38 79.78L281.44 79.84Q282.79 79.71 284.10 80.39L284.02 80.31L284.11 80.40Q284.64 81.85 284.59 82.65L284.71 82.76L284.64 82.70Q284.63 83.09 284.63 83.55L284.70 83.61L284.77 83.69Q284.60 87.06 281.17 88.31L281.18 88.32L281.18 88.32Q279.96 88.75 278.76 88.58L278.94 88.76L278.85 88.67Q277.22 88.87 275.51 88.19L275.55 88.23L275.40 88.07Q275.01 87.12 275.12 85.63L275.18 85.69L275.17 85.68Q275.34 83.22 277.14 81.39L277.25 81.50L277.17 81.42Q279.12 79.75 281.51 79.92ZM281.82 65.66L281.70 65.54L281.80 65.64Q282.93 65.39 283.72 65.62L283.68 65.58L283.71 66.80L283.70 66.79Q283.82 69.03 282.45 70.54L282.44 70.54L282.37 70.46Q280.96 71.94 278.90 71.65L278.98 71.73L278.95 71.70Q277.43 71.67 276.81 71.32L276.91 71.43L276.88 71.40Q276.81 70.98 276.64 69.96L276.69 70.01L276.70 70.02Q276.24 67.84 278.06 66.59L278.03 66.55L278.11 66.63Q279.69 65.58 281.80 65.64Z"/><path d="M15 90 C162 74,189 74,337 66" stroke="#c7e669" fill="none"/><path d="M19 81 C188 9,188 11,325 19" stroke="#83e1b2" fill="none"/><path d="M17 2 C178 45,181 16,341 106" stroke="#8cd4ec" fill="none"/><path d="M1 27 C172 48,153 116,323 41" stroke="#8f73e2" fill="none"/><path d="M11 42 C171 46,162 101,334 137" stroke="#e269a5" fill="none"/><path d="M14 113 C165 79,188 15,340 108" stroke="#e16f6f" fill="none"/><path d="M2 96 C171 104,170 65,324 106" stroke="#8ce78c" fill="none"/><path d="M3 83 C165 27,150 44,325 5" stroke="#8383e6" fill="none"/><path d="M4 19 C191 70,152 138,340 99" stroke="#cbe871" fill="none"/><path d="M13 54 C156 118,173 69,324 108" stroke="#ef7fb7" fill="none"/><path d="M8 90 C179 76,164 82,338 60" stroke="#6c6ce4" fill="none"/><path d="M20 101 C155 22,162 56,327 108" stroke="#e4c467" fill="none"/><path d="M4 108 C182 136,186 35,331 16" stroke="#84e5e5" fill="none"/><path d="M8 9 C157 62,188 71,324 27" stroke="#436adf" fill="none"/><path fill="#68ed68" d="M46.40 81.92L46.34 81.86L46.47 81.99Q51.03 81.36 55.83 81.53L55.78 81.48L55.85 81.54Q55.85 77.78 55.85 74.18L55.79 74.12L55.72 74.05Q55.70 70.32 55.98 66.49L56.11 66.62L56.00 66.51Q54.20 69.10 46.37 81.89ZM61.27 92.96L61.26 92.95L61.22 92.92Q58.70 92.45 56.02 92.34L56.09 92.40L56.04 92.36Q55.77 88.84 55.60 85.12L55.68 85.20L55.58 85.10Q47.66 84.89 40.58 87.01L40.45 86.87L40.55 86.97Q40.64 86.15 40.93 84.67L41.01 84.75L41.04 84.78Q43.74 80.05 49.10 70.63L49.13 70.66L48.95 70.48Q53.44 63.32 58.58 57.50L58.57 57.48L58.50 57.42Q59.83 57.15 62.34 56.75L62.32 56.72L62.36 56.77Q59.49 66.40 59.49 76.97L59.51 76.99L59.51 76.99Q59.52 79.22 59.64 81.45L59.57 81.39L61.46 81.51L61.50 81.54Q62.50 81.68 63.41 81.85L63.28 81.72L63.46 81.91Q63.52 83.28 63.92 86.19L63.88 86.15L63.85 86.12Q62.11 85.81 59.88 85.52L59.99 85.63L59.99 85.63Q60.18 88.50 61.21 92.90ZM63.77 81.24L63.87 81.34L63.81 81.28Q63.57 81.21 63.28 81.21L63.15 81.08L62.57 81.07L62.66 81.16Q62.56 79.00 62.56 76.89L62.47 76.80L62.48 76.82Q62.42 67.16 65.50 58.13L65.47 58.10L65.53 58.17Q64.35 58.53 62.18 59.10L62.31 59.23L62.14 59.05Q62.51 57.94 63.20 55.83L63.29 55.92L63.20 55.83Q61.24 56.39 58.16 56.73L58.15 56.72L58.29 56.86Q52.26 63.22 44.43 77.27L44.47 77.31L47.75 71.96L47.68 71.89Q47.08 73.46 46.68 74.31L46.70 74.34L40.02 87.87L39.88 87.74Q40.90 87.55 42.61 86.98L42.74 87.11L42.39 87.33L42.32 87.26Q42.16 88.30 41.71 90.19L41.88 90.36L41.77 90.25Q47.89 88.21 55.14 88.49L55.15 88.50L55.25 88.60Q55.27 89.99 55.56 92.96L55.58 92.98L55.46 92.86Q57.11 92.92 58.71 93.09L58.84 93.22L58.73 93.10Q59.04 94.22 59.44 96.27L59.31 96.14L59.45 96.28Q62.30 96.62 66.81 97.99L66.70 97.88L66.67 97.85Q65.18 94.64 63.81 89.73L63.98 89.91L66.02 90.47L66.13 90.57Q67.09 90.84 68.12 91.36L68.21 91.45L68.11 91.35Q67.00 87.67 66.77 85.16L66.67 85.06L66.66 85.05Q65.79 84.81 64.08 84.47L64.08 84.47L64.12 84.51Q63.76 82.55 63.76 81.24ZM51.77 81.00L51.87 81.11L51.75 80.98Q52.85 79.01 55.19 75.18L55.23 75.22L55.31 75.30Q55.31 76.73 55.26 78.16L55.14 78.04L55.12 78.02Q55.26 79.64 55.32 81.07L55.26 81.01L55.26 81.01Q54.50 81.05 53.64 81.05L53.55 80.96L53.51 80.92Q52.72 81.04 51.80 81.04Z"/><path d="M19 64 C174 25,184 84,323 31" stroke="#cb80e4" fill="none"/><path d="M5 23 C153 136,153 11,322 35" stroke="#35e8bb" fill="none"/><path d="M14 42 C183 102,173 11,323 11" stroke="#dec26c" fill="none"/><path d="M18 132 C162 132,173 31,325 11" stroke="#629eda" fill="none"/><path d="M14 126 C189 104,175 53,321 28" stroke="#b7ed82" fill="none"/><path d="M1 131 C189 112,167 9,323 120" stroke="#e89377" fill="none"/><path d="M11 14 C159 57,152 131,328 96" stroke="#99e051" fill="none"/><path d="M4 114 C164 53,154 24,340 77" stroke="#ed72ce" fill="none"/></svg>