<svg xmlns="http://www.w3.org/2000/svg" width="342" height="140" viewBox="0,0,342,140"><path d="M16 6 C187 4,166 38,323 23" stroke="#a5ea8e" fill="none"/><path d="M10 95 C172 72,159 101,334 31" stroke="#9175e5" fill="none"/><path d="M8 88 C164 118,185 114,334 98" stroke="#6d47df" fill="none"/><path d="M13 54 C162 130,175 34,335 90" stroke="#e386e3" fill="none"/><path d="M7 22 C190 94,180 12,340 97" stroke="#3360e4" fill="none"/><path d="M13 1 C175 88,177 121,339 92" stroke="#ec87a1" fill="none"/><path d="M8 135 C158 76,163 132,324 75" stroke="#e88be8" fill="none"/><path d="M2 94 C187 53,181 26,338 20" stroke="#73dda8" fill="none"/><path d="M8 90 C175 129,150 113,338 100" stroke="#7f9aeb" fill="none"/><path d="M8 132 C151 79,175 138,326 126" stroke="#36e7e7" fill="none"/><path d="M13 107 C177 21,185 2,327 135" stroke="#59e27b" fill="none"/><path d="M17 8 C160 89,152 126,336 34" stroke="#e23a8e" fill="none"/><path d="M7 26 C181 18,158 53,334 49" stroke="#ed7795" fill="none"/><path d="M8 31 C157 37,167 5,335 27" stroke="#ef7a7a" fill="none"/><path d="M18 86 C151 43,187 9,332 127" stroke="#6464dd" fill="none"/><path d="M10 50 C172 84,171 127,325 106" stroke="#c778e2" fill="none"/><path d="M19 52 C157 64,180 67,337 37" stroke="#a566e5" fill="none"/><path d="M20 93 C179 116,153 23,325 15" stroke="#8beda4" fill="none"/><path fill="#6c44e3" d="M165.22 76.63L165.27 76.69L165.16 76.57Q162.36 76.52 160.37 78.82L160.21 78.66L160.32 78.77Q158.22 80.94 157.91 84.00L157.91 84.00L157.94 84.03Q157.62 87.39 159.36 88.95L159.45 89.03L159.31 88.90Q161.14 90.54 164.50 90.35L164.38 90.23L164.40 90.25Q167.78 90.02 169.55 88.91L169.58 88.94L169.51 88.87Q171.50 87.25 171.50 84.75L171.48 84.72L171.50 84.75Q171.43 84.06 171.31 83.45L171.22 83.37L171.23 83.38Q171.43 80.76 169.66 78.59L169.61 78.55L169.75 78.68Q167.95 76.49 165.26 76.67ZM164.47 94.42L164.54 94.49L164.46 94.41Q157.44 94.42 155.17 93.20L155.23 93.25L155.22 93.25Q153.52 91.97 153.21 89.22L153.21 89.21L153.24 89.24Q153.25 88.21 153.31 87.05L153.28 87.03L153.31 87.05Q153.36 85.33 153.36 84.59L153.38 84.61L153.48 84.71Q154.28 80.19 154.53 79.09L154.38 78.95L154.44 79.01Q155.21 75.92 156.55 73.66L156.55 73.65L156.50 73.60Q160.82 66.60 170.36 56.38L170.40 56.42L170.41 56.43Q174.71 55.96 178.26 54.67L178.22 54.63L178.08 54.50Q167.22 66.64 162.08 73.43L161.92 73.27L161.93 73.28Q163.60 72.56 165.68 72.56L165.64 72.53L165.69 72.57Q171.02 72.58 173.47 75.70L173.40 75.63L173.39 75.62Q175.69 78.42 176.24 84.11L176.14 84.00L176.05 83.92Q176.22 85.13 176.22 86.11L176.25 86.13L176.21 86.09Q176.26 91.16 172.71 92.87L172.74 92.90L172.73 92.89Q170.79 93.89 164.55 94.50ZM168.20 98.33L168.18 98.32L168.22 98.35Q170.18 98.17 173.36 98.29L173.36 98.29L173.42 98.35Q176.03 98.45 178.53 97.29L178.58 97.33L178.53 97.28Q180.45 96.14 180.45 93.27L180.29 93.11L180.33 93.14Q180.46 92.49 180.19 90.90L180.19 90.89L180.02 90.72Q179.91 89.30 179.91 88.57L179.91 88.57L179.73 88.38Q178.50 80.98 175.93 77.92L175.83 77.82L175.93 77.92Q175.71 77.63 175.46 77.27L175.44 77.24L175.06 76.99L174.78 76.77L174.80 76.79Q174.39 76.14 173.41 74.61L173.25 74.45L173.42 74.62Q171.80 72.94 168.62 72.20L168.78 72.36L168.74 72.32Q170.68 69.73 175.45 63.80L175.37 63.71L182.16 55.21L182.23 55.27Q179.79 56.75 175.94 57.98L175.83 57.87L175.87 57.91Q177.39 56.37 180.26 53.19L180.17 53.10L180.14 53.07Q176.35 54.84 170.11 55.76L170.07 55.72L170.05 55.71Q160.84 65.15 156.06 73.10L156.14 73.18L156.09 73.13Q153.79 77.32 152.87 87.35L152.72 87.20L152.70 87.18Q152.65 88.16 152.77 89.69L152.83 89.76L152.81 89.74Q152.86 92.47 154.63 93.94L154.69 94.00L154.63 93.94Q155.34 94.28 155.28 94.34L155.26 94.33L155.13 94.20Q155.87 95.79 157.15 96.46L157.11 96.42L157.04 96.35Q159.51 97.59 162.63 97.90L162.48 97.75L162.65 97.92Q162.47 97.74 168.10 98.23ZM167.77 80.22L167.84 80.29L167.79 80.24Q168.76 80.11 170.29 80.91L170.30 80.92L170.37 80.98Q170.81 82.41 170.81 83.45L170.86 83.49L170.78 83.41Q171.15 86.48 169.62 88.07L169.68 88.12L169.58 88.03Q167.96 89.28 164.60 89.77L164.43 89.60L164.51 89.68Q162.12 89.62 161.26 89.19L161.38 89.31L161.34 89.27Q161.01 88.51 161.01 88.02L161.13 88.15L161.01 88.02Q160.75 82.87 165.46 80.79L165.34 80.67L165.29 80.61Q166.58 80.13 167.81 80.26Z"/><path d="M16 87 C150 101,164 19,328 39" stroke="#df6b88" fill="none"/><path d="M19 107 C188 23,173 71,337 133" stroke="#e683cd" fill="none"/><path d="M19 129 C187 58,164 98,340 62" stroke="#dc607f" fill="none"/><path d="M4 92 C170 84,159 95,334 128" stroke="#5f5fe7" fill="none"/><path fill="#d84a4a" d="M274.30 94.62L274.30 94.62L274.34 94.65Q267.88 95.11 266.28 91.37L266.24 91.33L266.20 91.29Q267.42 89.75 269.93 86.88L269.96 86.92L270.06 87.01Q270.73 90.13 275.57 90.32L275.64 90.39L275.61 90.36Q281.08 90.50 283.71 88.36L283.77 88.42L283.61 88.26Q286.04 85.86 285.92 81.52L285.82 81.42L285.94 81.54Q285.65 73.35 277.94 73.72L277.81 73.59L277.83 73.62Q273.40 73.95 270.58 75.97L270.62 76.00L270.05 75.68L269.71 75.47L269.77 75.53Q270.29 70.42 270.11 66.02L270.11 66.01L270.11 66.01Q269.95 61.82 269.40 56.49L269.26 56.36L269.22 56.32Q275.11 57.86 281.23 57.68L281.28 57.73L281.25 57.70Q287.39 57.60 293.14 55.58L293.17 55.61L292.20 58.00L292.32 58.12Q291.70 59.22 291.39 60.56L291.46 60.63L291.48 60.65Q286.54 62.37 280.30 62.37L280.20 62.28L280.23 62.31Q277.95 62.36 275.57 62.11L275.42 61.96L275.44 61.98Q275.41 63.18 274.86 70.34L274.84 70.32L274.74 70.21Q276.14 69.53 279.44 69.29L279.39 69.24L279.41 69.25Q285.55 69.77 287.87 72.46L287.90 72.48L287.73 72.32Q290.04 74.87 290.47 81.05L290.38 80.97L290.53 81.11Q290.87 87.76 288.91 91.00L288.95 91.03L288.99 91.08Q285.74 94.12 280.41 94.49L280.27 94.34L280.40 94.47Q278.60 94.39 274.31 94.63ZM284.05 98.31L284.23 98.49L284.20 98.46Q289.55 98.42 292.61 96.65L292.61 96.66L292.68 96.73Q294.25 94.26 294.25 90.89L294.32 90.96L294.30 90.94Q294.30 85.99 292.77 79.38L292.74 79.35L292.75 79.36Q292.11 76.51 290.15 74.25L290.13 74.22L290.25 74.41L289.84 73.87L289.25 73.53L289.33 73.61Q288.78 72.39 287.74 71.29L287.86 71.41L287.72 71.33L287.76 71.37Q285.30 68.67 279.37 68.67L279.32 68.62L279.08 68.81L278.90 68.63Q279.18 67.86 279.48 66.09L279.41 66.01L279.43 66.04Q287.38 66.15 293.86 63.52L293.91 63.57L293.95 63.61Q294.63 61.35 296.16 56.82L296.11 56.78L292.83 58.39L292.80 58.36Q293.32 56.43 294.12 54.60L294.14 54.62L294.12 54.60Q288.01 57.00 281.40 57.12L281.37 57.08L281.41 57.12Q274.69 57.20 268.33 55.43L268.42 55.51L268.39 55.48Q269.60 62.69 269.60 69.78L269.42 69.60L269.60 69.79Q269.41 72.66 269.23 75.72L269.24 75.73L269.29 75.78Q269.67 76.03 270.58 76.52L270.69 76.63L270.63 76.57Q271.23 76.25 272.27 75.70L272.32 75.76L272.27 75.70Q272.19 76.91 271.83 79.36L271.86 79.39L271.80 79.33Q272.45 79.61 273.12 79.98L273.19 80.05L273.11 79.97Q277.61 77.19 280.61 77.19L280.73 77.31L280.64 77.22Q282.80 77.23 284.69 78.27L284.66 78.24L284.65 78.23Q285.21 79.89 285.27 81.42L285.35 81.50L285.27 81.42Q285.44 85.63 283.79 87.40L283.79 87.41L283.74 87.36Q281.50 89.27 277.89 89.64L277.97 89.72L278.04 89.80Q276.36 89.77 275.26 89.64L275.37 89.75L275.40 89.78Q274.06 89.61 272.84 89.05L272.76 88.98L272.77 88.68L272.58 88.86L272.41 88.69Q271.23 88.00 270.37 85.85L270.27 85.75L270.45 85.93Q268.14 88.03 265.45 91.46L265.57 91.57L265.61 91.62Q266.08 92.63 267.42 94.16L267.28 94.02L267.31 94.05Q269.00 96.97 273.53 97.76L273.62 97.85L273.58 97.82Q275.59 98.29 284.22 98.48Z"/><path d="M7 125 C156 77,155 14,330 17" stroke="#d17bee" fill="none"/><path d="M18 92 C152 90,186 3,333 121" stroke="#e179ad" fill="none"/><path d="M11 69 C150 114,172 71,332 15" stroke="#5ede7e" fill="none"/><path d="M5 106 C153 139,151 129,338 62" stroke="#d962d9" fill="none"/><path d="M7 74 C190 122,192 19,322 60" stroke="#63bbd8" fill="none"/><path d="M8 18 C172 37,152 102,328 85" stroke="#8edb42" fill="none"/><path d="M16 5 C154 104,178 138,328 99" stroke="#60dcdc" fill="none"/><path d="M9 28 C187 9,173 126,325 106" stroke="#c468e3" fill="none"/><path d="M2 44 C166 76,151 130,323 29" stroke="#4996e3" fill="none"/><path d="M5 90 C162 120,172 108,335 104" stroke="#9ee655" fill="none"/><path d="M8 76 C163 130,156 116,321 115" stroke="#dada62" fill="none"/><path d="M20 80 C179 77,168 51,325 90" stroke="#5be5a0" fill="none"/><path fill="#c67adf" d="M102.36 82.80L102.43 82.87L102.34 82.78Q107.31 82.18 112.45 82.36L112.43 82.34L112.48 82.40Q112.32 78.20 112.32 74.34L112.34 74.36L112.47 74.49Q112.37 70.41 112.67 66.31L112.72 66.36L112.73 66.37Q110.74 69.09 102.36 82.80ZM118.36 94.69L118.33 94.66L118.35 94.69Q115.50 94.04 112.63 93.92L112.77 94.06L112.71 94.00Q112.46 90.27 112.28 86.29L112.23 86.24L112.16 86.17Q103.62 85.89 96.03 88.16L96.01 88.13L96.09 88.22Q96.33 87.47 96.64 85.88L96.48 85.73L96.57 85.81Q99.46 80.75 105.21 70.66L105.24 70.69L105.17 70.62Q109.91 62.88 115.42 56.64L115.24 56.46L115.34 56.56Q116.78 56.28 119.47 55.85L119.41 55.80L119.39 55.78Q116.27 66.05 116.27 77.37L116.28 77.39L116.43 77.53Q116.37 79.85 116.49 82.24L116.53 82.28L118.54 82.39L118.64 82.50Q119.51 82.45 120.49 82.63L120.46 82.60L120.58 82.72Q120.61 84.16 121.04 87.28L121.04 87.28L121.14 87.39Q119.11 86.88 116.72 86.57L116.77 86.62L116.82 86.67Q117.13 89.85 118.23 94.57ZM120.90 82.00L120.86 81.97L120.95 82.05Q120.64 81.93 120.33 81.93L120.43 82.02L119.68 81.88L119.75 81.95Q119.48 79.48 119.48 77.22L119.59 77.33L119.54 77.27Q119.47 66.93 122.78 57.27L122.87 57.36L122.83 57.32Q121.56 57.70 119.23 58.31L119.25 58.33L119.27 58.35Q119.68 57.17 120.42 54.90L120.43 54.91L120.31 54.79Q118.40 55.58 115.10 55.95L115.10 55.95L115.08 55.93Q108.79 62.91 100.40 77.97L100.25 77.81L103.63 71.95L103.72 72.04Q102.94 73.59 102.51 74.51L102.57 74.56L95.47 89.12L95.35 89.00Q96.46 88.83 98.29 88.21L98.28 88.20L98.00 88.53L98.05 88.58Q97.93 89.75 97.44 91.77L97.46 91.79L97.46 91.79Q103.99 89.57 111.76 89.87L111.76 89.87L111.87 89.98Q111.81 91.39 112.11 94.57L112.18 94.64L112.07 94.52Q113.75 94.50 115.47 94.68L115.57 94.78L115.54 94.75Q115.81 95.88 116.24 98.08L116.17 98.01L116.24 98.08Q119.30 98.45 124.13 99.92L124.07 99.85L124.11 99.90Q122.63 96.58 121.16 91.32L121.07 91.23L123.39 91.96L123.44 92.01Q124.42 92.25 125.52 92.80L125.66 92.95L125.57 92.86Q124.26 88.79 124.02 86.10L124.08 86.16L124.16 86.25Q123.11 85.86 121.27 85.50L121.38 85.60L121.29 85.51Q121.05 83.56 121.05 82.15ZM108.12 81.83L108.04 81.74L108.02 81.73Q109.31 79.71 111.82 75.61L111.75 75.55L111.79 75.58Q111.79 77.12 111.73 78.65L111.75 78.66L111.84 78.75Q111.85 80.36 111.91 81.89L111.93 81.90L111.85 81.83Q110.87 81.70 109.95 81.70L109.99 81.74L110.09 81.84Q109.13 81.86 108.16 81.86Z"/><path d="M11 87 C187 33,165 11,333 44" stroke="#4ed993" fill="none"/><path d="M17 85 C162 133,191 38,332 52" stroke="#afed72" fill="none"/><path fill="#eb6feb" d="M45.65 82.76L45.62 82.72L45.75 82.85Q50.64 82.18 55.78 82.36L55.85 82.43L55.79 82.37Q55.79 78.33 55.79 74.48L55.73 74.42L55.67 74.36Q55.75 70.46 56.05 66.36L56.02 66.32L56.02 66.33Q54.05 69.07 45.67 82.77ZM61.51 94.51L61.56 94.56L61.64 94.64Q58.89 94.10 56.01 93.97L56.04 94.00L56.12 94.08Q55.63 90.10 55.45 86.13L55.62 86.30L55.62 86.29Q46.97 85.91 39.39 88.18L39.35 88.14L39.38 88.17Q39.50 87.31 39.80 85.72L39.85 85.76L39.89 85.80Q42.66 80.62 48.42 70.53L48.51 70.62L48.50 70.62Q53.09 62.73 58.60 56.49L58.73 56.61L58.67 56.56Q60.01 56.18 62.70 55.75L62.70 55.75L62.85 55.90Q59.78 66.23 59.78 77.54L59.64 77.41L59.79 77.56Q59.66 79.82 59.78 82.20L59.86 82.27L61.82 82.34L61.93 82.45Q62.80 82.40 63.77 82.58L63.89 82.70L63.91 82.72Q63.99 84.20 64.41 87.32L64.47 87.37L64.51 87.42Q62.55 86.99 60.17 86.69L60.04 86.55L60.18 86.70Q60.42 89.81 61.52 94.52ZM64.29 82.06L64.26 82.02L64.20 81.97Q63.90 81.86 63.60 81.86L63.73 81.99L63.10 81.97L63.09 81.96Q62.81 79.47 62.81 77.21L62.96 77.37L62.97 77.37Q62.97 67.10 66.28 57.43L66.28 57.43L66.28 57.43Q64.97 57.77 62.64 58.39L62.63 58.37L62.63 58.37Q63.00 57.15 63.74 54.89L63.69 54.85L63.68 54.83Q61.57 55.42 58.27 55.78L58.38 55.90L58.29 55.81Q52.10 62.90 43.72 77.95L43.74 77.97L47.00 71.99L46.95 71.94Q46.35 73.67 45.92 74.58L45.96 74.62L38.74 89.05L38.80 89.12Q39.91 88.94 41.75 88.33L41.64 88.23L41.30 88.50L41.37 88.57Q41.16 89.65 40.67 91.66L40.72 91.71L40.70 91.69Q47.38 89.62 55.15 89.92L55.06 89.84L55.07 89.85Q55.16 91.40 55.46 94.58L55.42 94.54L55.47 94.59Q57.12 94.53 58.84 94.71L58.92 94.80L58.89 94.77Q59.08 95.81 59.51 98.02L59.51 98.02L59.60 98.11Q62.57 98.39 67.41 99.86L67.56 100.01L67.55 100.00Q65.85 96.47 64.38 91.21L64.48 91.31L66.78 92.01L66.63 91.87Q67.84 92.34 68.94 92.89L69.01 92.96L68.94 92.89Q67.71 88.91 67.47 86.21L67.47 86.21L67.33 86.08Q66.46 85.88 64.62 85.51L64.65 85.53L64.74 85.63Q64.19 83.36 64.19 81.96ZM51.40 81.77L51.45 81.82L51.53 81.90Q52.66 79.73 55.17 75.63L55.18 75.65L55.23 75.69Q55.12 77.11 55.06 78.64L55.11 78.69L55.01 78.59Q55.09 80.26 55.15 81.79L55.11 81.75L55.17 81.81Q54.21 81.71 53.29 81.71L53.36 81.78L53.33 81.75Q52.47 81.86 51.49 81.86Z"/><path d="M18 39 C179 69,157 72,338 99" stroke="#c9e674" fill="none"/><path fill="#9ce683" d="M216.66 94.62L216.72 94.68L216.69 94.65Q214.40 94.74 211.89 94.07L211.96 94.15L211.97 94.16Q209.99 92.66 209.74 90.03L209.73 90.02L209.71 90.00Q209.68 89.72 209.98 85.50L209.87 85.38L209.89 85.40Q211.56 85.12 214.80 84.51L214.90 84.61L214.48 85.71L214.59 85.82Q214.10 88.58 216.37 89.50L216.33 89.46L216.31 89.44Q217.61 90.01 220.98 90.01L221.11 90.14L221.13 90.16Q223.64 89.85 223.94 89.73L223.92 89.71L223.94 89.73Q225.47 89.54 226.63 88.75L226.47 88.58L226.46 88.58Q228.73 87.06 228.43 83.69L228.41 83.67L228.49 83.75Q228.23 79.88 225.44 77.37L225.38 77.31L225.32 77.25Q222.56 74.77 218.59 74.77L218.68 74.86L218.58 74.39L218.73 74.54Q219.30 74.44 220.71 74.32L220.61 74.22L220.68 74.29Q223.64 74.01 225.84 72.02L225.89 72.06L225.92 72.10Q228.06 70.05 228.31 67.05L228.32 67.06L228.36 67.10Q228.56 66.63 228.56 66.08L228.42 65.94L228.54 66.06Q228.60 63.67 226.39 62.20L226.35 62.16L226.26 62.07Q224.41 60.89 221.84 61.08L221.71 60.95L221.86 61.10Q219.70 60.77 217.74 61.44L217.69 61.39L217.72 61.42Q215.49 62.37 215.00 64.21L214.86 64.06L215.00 64.21Q214.56 65.30 214.68 66.52L214.72 66.56L214.75 66.59Q213.09 66.21 209.78 65.05L209.84 65.10L209.82 65.09Q209.37 62.31 209.43 60.96L209.41 60.94L209.46 60.99Q209.60 58.50 211.31 57.40L211.27 57.36L211.29 57.38Q213.55 56.39 216.12 56.39L216.21 56.48L216.28 56.55Q221.24 56.37 226.32 56.80L226.32 56.80L226.37 56.85Q234.48 57.50 233.99 63.56L234.04 63.60L234.00 63.56Q233.80 65.87 233.00 68.38L233.18 68.56L233.09 68.47Q231.60 73.40 227.80 74.87L227.92 74.98L227.77 74.84Q232.10 75.80 233.08 81.18L233.00 81.10L233.10 81.21Q233.31 82.88 233.43 86.12L233.59 86.28L233.46 86.16Q233.73 93.34 226.33 94.07L226.40 94.15L226.28 94.03Q225.11 94.14 216.60 94.57ZM225.05 98.24L225.03 98.22L225.06 98.25Q226.15 98.42 230.73 98.54L230.59 98.40L230.70 98.50Q233.38 98.49 236.01 97.45L236.13 97.58L236.03 97.47Q237.99 96.01 237.68 93.19L237.76 93.27L237.69 93.20Q237.52 91.07 237.03 88.26L237.03 88.26L237.09 88.32Q235.90 81.07 232.78 78.44L232.64 78.29L232.41 77.76L232.29 77.59L232.30 77.59Q235.23 75.38 236.45 68.34L236.45 68.34L236.33 68.22Q236.39 67.49 236.57 65.96L236.56 65.95L236.68 66.06Q236.70 64.74 236.58 63.64L236.62 63.68L236.61 63.66Q236.49 61.10 234.41 60.00L234.23 59.82L234.21 59.92L234.12 59.83Q233.68 58.29 231.84 57.43L231.83 57.42L231.96 57.55Q229.35 56.29 221.09 55.80L221.13 55.84L221.19 55.90Q218.51 55.78 215.94 55.78L215.92 55.76L215.93 55.78Q213.30 55.72 210.85 56.76L210.96 56.86L210.96 56.86Q208.96 58.04 208.96 60.86L208.85 60.75L208.94 60.84Q209.00 60.22 209.42 65.61L209.37 65.55L209.43 65.61Q209.86 65.68 212.49 66.65L212.53 66.69L212.43 66.59Q212.54 67.56 212.48 68.36L212.48 68.35L212.35 68.23Q212.34 69.01 212.40 69.87L212.47 69.94L212.54 70.01Q215.35 70.55 218.59 70.74L218.59 70.73L218.52 70.67Q218.40 67.42 220.17 66.07L220.33 66.23L220.28 66.19Q221.61 65.12 224.85 64.76L224.79 64.70L224.88 64.78Q226.62 64.69 227.54 65.00L227.59 65.05L227.66 65.12Q227.56 65.14 227.62 65.33L227.63 65.33L227.75 65.76L227.93 66.67L227.84 66.59Q227.94 66.99 227.87 67.23L227.89 67.24L227.90 67.25Q227.78 70.01 225.33 71.91L225.34 71.92L225.29 71.87Q223.82 73.33 220.58 73.64L220.47 73.53L220.55 73.61Q219.45 73.91 218.04 73.91L218.04 73.92L218.00 73.88Q218.05 74.42 218.30 75.52L218.34 75.56L218.33 75.55Q221.12 75.53 223.45 76.69L223.46 76.70L223.25 76.68L220.77 77.02L220.78 77.02Q220.79 77.52 220.97 78.50L220.92 78.45L221.02 78.55Q224.48 78.46 227.23 80.60L227.06 80.43L227.18 80.54Q227.58 81.19 228.06 83.82L228.07 83.83L228.06 83.81Q228.41 88.56 223.69 89.24L223.65 89.19L223.64 89.18Q220.15 89.49 219.24 89.43L219.35 89.54L219.34 89.53Q218.52 89.27 217.67 89.15L217.81 89.29L217.68 88.43L217.99 87.81L217.93 87.08L218.05 86.66L218.14 86.74Q216.48 86.73 215.19 87.04L215.21 87.06L215.30 87.15Q215.14 86.68 215.14 86.38L215.15 86.39L215.25 86.48Q215.16 86.03 215.16 85.66L215.26 85.76L215.31 85.81Q215.30 85.07 215.55 83.91L215.47 83.82L215.47 83.83Q212.63 84.35 209.63 84.90L209.48 84.75L209.57 84.84Q209.56 85.63 209.38 87.44L209.31 87.36L209.42 87.48Q209.25 89.29 209.25 90.27L209.14 90.16L209.18 90.21Q209.20 93.40 211.40 94.63L211.54 94.76L211.47 94.69Q213.87 98.38 221.45 98.07L221.46 98.07L221.43 98.05Q222.55 97.94 225.00 98.19Z"/><path d="M14 96 C168 51,160 118,332 12" stroke="#7ae5ca" fill="none"/><path d="M9 67 C181 109,186 22,339 133" stroke="#62dabc" fill="none"/><path d="M5 16 C178 39,178 42,330 27" stroke="#ed9c82" fill="none"/></svg>