<svg xmlns="http://www.w3.org/2000/svg" width="342" height="140" viewBox="0,0,342,140"><path d="M18 56 C190 96,176 57,322 93" stroke="#738fe2" fill="none"/><path d="M11 37 C161 59,182 25,327 132" stroke="#4fe299" fill="none"/><path d="M20 15 C187 109,155 10,331 47" stroke="#9b56e0" fill="none"/><path d="M9 99 C151 107,157 54,332 16" stroke="#c965eb" fill="none"/><path d="M11 26 C181 78,170 56,338 59" stroke="#e97171" fill="none"/><path d="M6 108 C168 65,189 94,322 106" stroke="#dab74d" fill="none"/><path d="M16 27 C177 95,191 10,322 102" stroke="#4a4ad3" fill="none"/><path d="M5 41 C181 113,169 128,328 139" stroke="#e769c7" fill="none"/><path d="M7 97 C190 122,172 120,338 88" stroke="#e8c96d" fill="none"/><path d="M7 99 C160 133,188 124,326 107" stroke="#e89b81" fill="none"/><path fill="#eace7a" d="M198.53 77.97L198.51 77.95L198.42 77.85Q194.91 77.88 192.61 80.40L192.69 80.49L192.61 80.40Q190.26 82.88 189.97 86.49L190.03 86.55L190.03 86.55Q189.72 90.63 192.03 92.54L192.06 92.58L192.09 92.61Q194.37 94.49 198.40 94.35L198.44 94.38L198.26 94.21Q202.80 94.06 204.60 92.26L204.59 92.24L204.45 92.11Q206.52 89.49 206.30 86.03L206.22 85.95L206.36 86.08Q206.07 82.49 204.02 80.22L203.91 80.11L203.91 80.10Q201.91 77.89 198.45 77.89ZM198.48 60.12L198.43 60.07L198.43 60.07Q195.72 59.81 193.20 60.75L193.31 60.86L193.24 60.79Q190.74 62.26 191.18 65.79L191.18 65.79L191.20 65.81Q192.12 72.86 198.46 72.86L198.55 72.95L198.41 72.81Q201.42 73.22 203.30 71.06L203.41 71.18L203.22 70.99Q205.17 68.90 205.25 65.95L205.17 65.88L205.31 66.01Q205.33 62.58 203.96 61.42L203.96 61.42L204.11 61.57Q200.90 59.95 198.45 60.09ZM197.96 99.02L198.00 99.06L192.09 98.91L192.06 98.88Q189.36 99.06 186.83 97.40L186.81 97.38L186.83 97.40Q184.13 95.13 184.42 89.73L184.43 89.73L184.39 89.70Q185.26 76.73 192.11 74.86L192.22 74.98L192.18 74.94Q187.78 73.13 185.26 62.97L185.22 62.93L185.20 62.91Q184.67 60.36 184.81 58.85L184.72 58.76L184.88 58.91Q185.35 54.77 192.34 54.70L192.27 54.64L192.33 54.69Q200.34 54.56 203.08 54.92L203.14 54.98L203.10 54.94Q210.45 56.02 211.32 59.84L211.23 59.76L211.26 59.79Q211.50 60.96 211.50 61.68L211.41 61.59L211.38 61.57Q211.41 62.89 211.05 64.04L211.08 64.08L211.00 63.99Q209.86 72.01 204.31 74.89L204.35 74.92L204.38 74.96Q211.04 76.50 211.97 86.51L211.88 86.42L211.90 86.43Q211.88 86.71 211.96 89.16L212.01 89.22L212.13 89.33Q212.25 94.50 209.22 96.51L209.09 96.38L209.06 96.35Q206.55 98.09 197.90 98.96ZM202.17 103.30L202.21 103.34L208.61 103.55L208.62 103.55Q211.76 103.60 214.65 102.23L214.61 102.19L214.61 102.19Q216.77 100.82 216.91 97.29L216.92 97.29L216.92 97.30Q217.06 95.28 216.34 91.60L216.26 91.52L216.44 91.70Q214.62 82.81 210.65 79.28L210.62 79.25L210.39 78.66L209.91 78.04L209.72 77.63L209.72 77.63Q212.80 75.02 214.53 67.17L214.51 67.15L214.43 67.06Q214.46 66.38 214.61 64.79L214.54 64.72L214.57 64.75Q214.68 63.43 214.54 62.27L214.64 62.37L214.65 62.38Q214.38 59.66 212.14 58.72L212.12 58.70L212.13 58.64L211.87 58.52L211.85 58.50Q211.40 57.19 209.17 55.68L209.16 55.66L209.05 55.49L209.22 55.66Q205.31 54.19 197.60 53.83L197.74 53.98L197.79 54.03Q194.72 53.69 192.12 53.91L192.08 53.86L192.23 54.01Q190.58 53.95 188.13 54.24L188.24 54.35L188.16 54.27Q184.60 55.11 184.17 58.21L184.12 58.16L184.15 58.19Q183.99 59.03 184.06 60.55L184.03 60.52L184.11 60.59Q184.30 61.58 185.38 66.05L185.34 66.01L185.32 65.98Q186.81 72.09 190.13 74.61L190.25 74.73L190.40 74.88L190.38 74.87Q185.01 77.20 184.00 87.00L184.08 87.08L184.01 87.01Q183.65 91.20 183.65 92.93L183.64 92.91L183.73 93.00Q183.78 96.30 186.01 98.02L186.02 98.03L186.14 98.15Q186.31 98.24 186.81 98.60L186.72 98.52L186.79 98.59Q188.70 102.87 202.18 103.31ZM201.66 82.47L201.67 82.48L201.50 82.31Q203.36 82.30 205.02 83.16L204.95 83.09L204.93 83.08Q205.70 85.00 205.63 86.01L205.63 86.00L205.60 85.97Q205.75 86.63 205.75 87.21L205.68 87.14L205.64 87.09Q205.68 91.60 201.35 93.19L201.27 93.11L201.37 93.21Q199.90 93.83 198.39 93.61L198.31 93.53L198.37 93.59Q196.16 93.69 194.00 92.83L194.14 92.97L194.02 92.85Q193.61 91.72 193.76 89.84L193.74 89.83L193.70 89.79Q194.10 86.87 196.37 84.57L196.32 84.52L196.30 84.50Q198.49 82.11 201.52 82.33ZM202.06 64.49L202.07 64.50L202.07 64.50Q203.59 64.29 204.60 64.58L204.55 64.54L204.61 66.11L204.59 66.08Q204.62 68.78 202.89 70.69L202.79 70.60L202.78 70.58Q201.11 72.55 198.51 72.19L198.39 72.07L198.57 72.24Q196.57 72.12 195.78 71.69L195.77 71.68L195.86 71.77Q195.74 71.22 195.53 69.92L195.51 69.90L195.50 69.90Q195.02 67.26 197.33 65.67L197.30 65.64L197.27 65.61Q199.41 64.44 202.08 64.51Z"/><path d="M4 131 C173 133,182 95,330 7" stroke="#e5724c" fill="none"/><path d="M15 37 C185 2,184 74,334 63" stroke="#50e676" fill="none"/><path fill="#d99858" d="M123.00 84.99L123.02 85.02L123.08 85.08Q128.94 84.38 135.00 84.60L134.98 84.58L134.90 84.50Q134.92 79.77 134.92 75.23L134.91 75.21L134.90 75.21Q134.85 70.47 135.21 65.64L135.34 65.78L135.19 65.62Q132.88 68.86 123.01 85.01ZM141.79 98.95L141.78 98.95L141.82 98.98Q138.70 98.46 135.31 98.32L135.27 98.27L135.16 98.16Q134.81 93.70 134.59 89.02L134.61 89.04L134.70 89.13Q124.60 88.75 115.66 91.42L115.62 91.38L115.64 91.40Q115.95 90.56 116.31 88.69L116.18 88.56L116.19 88.56Q119.53 82.54 126.31 70.65L126.33 70.67L126.34 70.68Q131.86 61.50 138.34 54.15L138.36 54.16L138.35 54.16Q139.99 53.78 143.16 53.27L143.14 53.25L143.27 53.38Q139.55 65.44 139.55 78.77L139.57 78.79L139.53 78.75Q139.55 81.59 139.69 84.40L139.67 84.37L142.18 84.64L142.08 84.54Q143.25 84.63 144.40 84.85L144.47 84.92L144.47 84.92Q144.72 86.83 145.23 90.51L145.23 90.51L145.11 90.38Q142.87 89.95 140.06 89.59L140.08 89.61L140.08 89.61Q140.57 93.48 141.86 99.03ZM144.90 84.13L144.90 84.12L144.98 84.20Q144.63 84.07 144.27 84.07L144.23 84.03L143.59 84.11L143.52 84.04Q143.35 81.28 143.35 78.61L143.27 78.53L143.41 78.67Q143.37 66.52 147.26 55.14L147.24 55.12L147.19 55.07Q145.78 55.60 143.04 56.32L143.01 56.29L142.99 56.27Q143.49 54.90 144.35 52.23L144.28 52.16L144.39 52.27Q141.82 52.87 137.93 53.30L137.91 53.29L138.01 53.39Q130.46 61.47 120.59 79.20L120.70 79.31L124.59 72.31L124.72 72.45Q123.78 74.24 123.27 75.32L123.43 75.48L114.91 92.47L114.98 92.54Q116.17 92.22 118.34 91.50L118.23 91.40L118.10 91.98L118.06 91.94Q117.80 93.20 117.22 95.58L117.16 95.52L117.24 95.60Q124.94 92.98 134.09 93.34L134.26 93.52L134.20 93.45Q134.28 95.27 134.64 99.02L134.51 98.89L134.51 98.88Q136.67 99.02 138.68 99.24L138.63 99.18L138.54 99.10Q139.01 100.57 139.51 103.16L139.49 103.15L139.45 103.11Q143.01 103.49 148.70 105.22L148.78 105.30L148.75 105.27Q146.89 101.25 145.16 95.05L145.04 94.93L147.84 95.86L147.84 95.86Q149.23 96.38 150.52 97.03L150.52 97.02L150.52 97.02Q149.03 92.29 148.74 89.12L148.62 89.00L148.68 89.06Q147.66 88.83 145.50 88.40L145.41 88.31L145.37 88.27Q144.89 85.77 144.89 84.11ZM129.91 83.98L129.83 83.90L129.93 84.00Q131.34 81.52 134.29 76.69L134.25 76.64L134.26 76.65Q134.33 78.53 134.26 80.33L134.22 80.29L134.06 80.13Q134.07 82.01 134.14 83.82L134.21 83.89L134.16 83.83Q133.20 83.89 132.12 83.89L131.99 83.75L132.05 83.81Q130.93 83.84 129.77 83.84Z"/><path d="M9 77 C192 136,188 138,322 79" stroke="#62e8a5" fill="none"/><path d="M2 19 C168 23,185 65,322 5" stroke="#967ce3" fill="none"/><path d="M18 69 C190 70,190 65,328 55" stroke="#6e4bd7" fill="none"/><path d="M17 104 C153 33,163 131,334 116" stroke="#9379e1" fill="none"/><path d="M3 130 C186 19,161 138,338 48" stroke="#72de8d" fill="none"/><path d="M11 99 C192 81,174 69,330 90" stroke="#eb92eb" fill="none"/><path d="M3 109 C165 11,153 29,334 100" stroke="#62e8a5" fill="none"/><path d="M8 14 C173 7,173 88,335 77" stroke="#a1e38b" fill="none"/><path fill="#5bbfe0" d="M54.97 84.96L55.04 85.04L55.07 85.07Q60.82 84.26 66.88 84.48L66.98 84.58L67.05 84.65Q66.92 79.76 66.92 75.22L66.90 75.20L66.91 75.22Q66.89 70.51 67.25 65.68L67.28 65.72L67.26 65.69Q64.99 68.97 55.11 85.11ZM73.85 99.01L73.82 98.99L73.76 98.93Q70.73 98.49 67.34 98.34L67.24 98.25L67.27 98.27Q66.84 93.73 66.62 89.05L66.67 89.10L66.61 89.04Q56.65 88.81 47.71 91.47L47.67 91.43L47.55 91.31Q47.93 90.53 48.29 88.66L48.25 88.62L48.23 88.61Q51.57 82.57 58.34 70.68L58.40 70.74L58.34 70.68Q63.81 61.45 70.30 54.10L70.31 54.12L70.42 54.23Q72.10 53.89 75.27 53.38L75.09 53.20L75.24 53.36Q71.64 65.53 71.64 78.86L71.62 78.85L71.62 78.85Q71.56 81.60 71.71 84.41L71.65 84.35L74.11 84.57L74.19 84.66Q75.27 84.65 76.42 84.87L76.47 84.92L76.52 84.97Q76.70 86.81 77.21 90.48L77.20 90.48L77.26 90.53Q74.92 90.00 72.11 89.64L72.02 89.55L72.08 89.61Q72.43 93.34 73.73 98.89ZM76.94 84.17L77.00 84.23L77.06 84.29Q76.68 84.12 76.32 84.12L76.22 84.02L75.62 84.14L75.54 84.06Q75.22 81.15 75.22 78.48L75.39 78.65L75.39 78.65Q75.26 66.42 79.15 55.03L79.16 55.04L79.21 55.09Q77.79 55.61 75.05 56.33L75.01 56.30L75.04 56.32Q75.55 54.95 76.41 52.29L76.39 52.27L76.23 52.11Q73.95 53.00 70.06 53.43L69.92 53.29L70.03 53.40Q62.50 61.51 52.63 79.24L52.60 79.21L56.60 72.32L56.60 72.33Q55.94 74.41 55.44 75.49L55.33 75.38L46.85 92.41L46.84 92.40Q48.08 92.13 50.24 91.41L50.30 91.46L50.05 91.93L50.10 91.98Q49.90 93.30 49.32 95.67L49.32 95.68L49.31 95.66Q57.09 93.14 66.24 93.50L66.18 93.44L66.25 93.51Q66.33 95.32 66.69 99.06L66.57 98.94L66.56 98.93Q68.54 98.89 70.55 99.11L70.65 99.21L70.60 99.15Q70.87 100.43 71.37 103.02L71.48 103.13L71.50 103.16Q74.95 103.43 80.64 105.16L80.66 105.18L80.76 105.28Q78.87 101.23 77.14 95.03L77.21 95.10L79.80 95.82L79.81 95.83Q81.12 96.27 82.42 96.92L82.46 96.97L82.44 96.94Q80.86 92.12 80.58 88.95L80.66 89.04L80.70 89.08Q79.49 88.66 77.33 88.23L77.35 88.25L77.49 88.39Q77.00 85.89 77.00 84.23ZM61.87 83.94L61.81 83.88L61.76 83.83Q63.28 81.46 66.23 76.63L66.31 76.70L66.30 76.69Q66.18 78.38 66.11 80.18L66.22 80.29L66.11 80.18Q66.09 82.03 66.16 83.83L66.14 83.81L66.28 83.96Q65.07 83.75 63.99 83.75L64.15 83.92L64.16 83.92Q62.95 83.86 61.79 83.86Z"/><path d="M5 3 C190 125,174 89,322 49" stroke="#e5b584" fill="none"/><path d="M13 98 C190 99,189 73,334 46" stroke="#dbbd66" fill="none"/><path d="M1 64 C153 105,163 91,336 20" stroke="#bad95d" fill="none"/><path d="M19 137 C150 57,166 26,334 15" stroke="#cd6ced" fill="none"/><path d="M19 84 C165 79,169 22,336 49" stroke="#e7d192" fill="none"/><path d="M13 92 C160 91,190 77,340 78" stroke="#eb74af" fill="none"/><path fill="#e46033" d="M266.27 77.70L266.42 77.86L266.30 77.74Q262.89 77.57 260.55 80.27L260.56 80.29L260.56 80.29Q258.17 82.94 257.81 86.54L257.90 86.63L257.87 86.60Q257.43 90.48 259.48 92.32L259.43 92.27L259.49 92.33Q261.46 94.09 265.43 93.87L265.50 93.95L265.41 93.85Q269.35 93.55 271.44 92.25L271.50 92.31L271.50 92.31Q273.71 90.26 273.71 87.31L273.65 87.25L273.79 87.39Q273.69 86.57 273.54 85.85L273.50 85.80L273.62 85.93Q273.60 82.59 271.51 80.03L271.60 80.12L271.53 80.05Q269.50 77.56 266.33 77.77ZM265.58 98.86L265.51 98.78L265.64 98.91Q257.28 98.84 254.61 97.40L254.50 97.29L254.55 97.34Q252.61 95.90 252.25 92.65L252.21 92.61L252.28 92.69Q252.20 91.38 252.27 90.01L252.26 90.00L252.29 90.03Q252.61 88.26 252.61 87.39L252.53 87.31L252.47 87.26Q253.44 81.95 253.72 80.66L253.67 80.60L253.69 80.62Q254.49 76.89 256.08 74.22L256.07 74.21L256.04 74.18Q261.08 65.89 272.32 53.86L272.49 54.03L272.41 53.94Q277.40 53.31 281.58 51.80L281.70 51.92L281.52 51.75Q268.57 65.89 262.52 73.89L262.56 73.93L262.60 73.97Q264.41 72.97 266.86 72.97L266.98 73.08L266.84 72.95Q273.27 73.11 276.15 76.78L276.09 76.72L276.02 76.65Q278.56 79.77 279.21 86.47L279.30 86.56L279.24 86.50Q279.46 87.94 279.46 89.09L279.42 89.06L279.46 89.10Q279.39 94.94 275.21 96.95L275.18 96.92L275.15 96.89Q272.83 98.03 265.48 98.75ZM269.78 103.27L269.78 103.27L269.93 103.42Q272.30 103.27 276.05 103.42L276.16 103.52L276.09 103.45Q279.18 103.59 282.13 102.22L282.20 102.29L282.10 102.19Q284.14 100.63 284.14 97.24L284.18 97.28L284.30 97.39Q284.18 96.34 283.86 94.47L283.80 94.41L283.96 94.57Q283.54 92.60 283.54 91.74L283.53 91.72L283.47 91.66Q281.92 82.84 278.90 79.24L278.92 79.26L278.84 79.18Q278.75 79.02 278.46 78.59L278.38 78.50L277.89 78.16L277.76 78.10L277.80 78.14Q277.12 77.17 275.96 75.37L275.93 75.33L275.87 75.28Q274.14 73.47 270.39 72.60L270.53 72.74L270.42 72.63Q272.81 69.70 278.44 62.71L278.32 62.59L286.40 52.66L286.41 52.66Q283.48 54.35 278.94 55.79L278.83 55.68L278.94 55.79Q280.54 53.78 283.92 50.04L284.09 50.21L284.01 50.13Q279.49 52.16 272.14 53.24L272.15 53.25L272.19 53.29Q261.33 64.41 255.71 73.78L255.64 73.71L255.77 73.84Q252.84 78.55 251.76 90.36L251.75 90.35L251.78 90.39Q251.52 91.36 251.67 93.16L251.71 93.20L251.77 93.26Q251.79 96.45 253.88 98.17L254.04 98.34L254.00 98.30Q254.67 98.53 254.60 98.61L254.61 98.62L254.54 98.55Q255.28 100.30 256.79 101.09L256.90 101.20L256.80 101.09Q259.55 102.41 263.23 102.77L263.31 102.85L263.18 102.72Q263.32 102.86 269.95 103.44ZM269.39 82.06L269.52 82.19L269.47 82.13Q270.61 81.98 272.41 82.92L272.42 82.92L272.39 82.89Q273.00 84.66 273.00 85.88L273.07 85.95L272.88 85.76Q273.34 89.39 271.54 91.26L271.44 91.16L271.50 91.22Q269.52 92.63 265.55 93.21L265.49 93.14L265.50 93.15Q262.72 93.11 261.71 92.60L261.76 92.65L261.88 92.77Q261.51 91.91 261.51 91.33L261.50 91.31L261.44 91.25Q260.96 85.01 266.50 82.56L266.46 82.51L266.63 82.69Q268.10 82.06 269.54 82.20Z"/><path d="M19 112 C169 62,170 83,337 53" stroke="#59e77d" fill="none"/><path d="M17 67 C186 74,171 84,329 11" stroke="#51e5c0" fill="none"/><path d="M20 22 C173 5,152 52,334 95" stroke="#e45c7e" fill="none"/><path d="M11 118 C152 27,162 123,324 112" stroke="#79f0b5" fill="none"/><path d="M7 80 C172 65,162 139,341 54" stroke="#5e30e8" fill="none"/><path d="M13 83 C165 13,174 94,328 136" stroke="#59d8b8" fill="none"/><path d="M12 78 C156 87,162 50,337 35" stroke="#ef7ab5" fill="none"/><path d="M10 2 C175 124,192 57,325 109" stroke="#8eef8e" fill="none"/><path d="M14 114 C161 131,188 56,337 35" stroke="#48e496" fill="none"/><path d="M9 118 C172 53,183 16,326 57" stroke="#afe07e" fill="none"/><path d="M5 128 C171 6,168 71,332 122" stroke="#e57fb2" fill="none"/><path d="M4 127 C179 6,156 15,336 1" stroke="#ade971" fill="none"/><path d="M5 98 C180 118,173 104,341 121" stroke="#8de56f" fill="none"/><path d="M16 40 C184 48,173 75,340 16" stroke="#deb948" fill="none"/></svg>