<svg xmlns="http://www.w3.org/2000/svg" width="342" height="140" viewBox="0,0,342,140"><path d="M3 125 C191 74,164 15,338 5" stroke="#83cae1" fill="none"/><path d="M12 34 C172 59,153 110,334 92" stroke="#97e7ab" fill="none"/><path d="M11 14 C178 63,154 95,334 19" stroke="#af75ea" fill="none"/><path d="M11 22 C172 107,169 86,328 127" stroke="#bce593" fill="none"/><path d="M15 75 C186 43,175 88,335 38" stroke="#d8b344" fill="none"/><path d="M19 114 C167 63,171 106,329 135" stroke="#8ce7e7" fill="none"/><path d="M20 54 C161 120,186 130,328 91" stroke="#df5cdf" fill="none"/><path d="M17 45 C162 104,166 58,330 80" stroke="#a8e868" fill="none"/><path fill="#e183e1" d="M103.04 82.15L102.94 82.06L102.96 82.08Q107.62 81.47 112.47 81.65L112.50 81.67L112.55 81.72Q112.44 77.80 112.44 74.16L112.38 74.10L112.50 74.22Q112.46 70.43 112.75 66.55L112.75 66.56L112.71 66.52Q110.89 69.15 102.98 82.09ZM118.06 93.30L117.91 93.16L117.97 93.21Q115.48 92.81 112.77 92.69L112.80 92.72L112.71 92.63Q112.40 89.03 112.22 85.27L112.36 85.41L112.27 85.32Q104.22 85.07 97.06 87.21L97.07 87.22L97.02 87.18Q97.13 86.36 97.42 84.85L97.47 84.91L97.48 84.92Q100.17 80.09 105.60 70.56L105.63 70.59L105.64 70.60Q110.10 63.27 115.30 57.38L115.29 57.37L115.29 57.37Q116.56 57.02 119.11 56.62L119.03 56.54L119.05 56.56Q116.18 66.34 116.18 77.03L116.22 77.07L116.18 77.04Q116.18 79.29 116.29 81.54L116.33 81.57L118.33 81.78L118.35 81.81Q119.12 81.71 120.04 81.88L120.03 81.86L120.19 82.03Q120.29 83.46 120.69 86.40L120.66 86.37L120.70 86.41Q118.77 85.92 116.51 85.63L116.51 85.63L116.54 85.66Q116.95 88.78 117.99 93.23ZM120.57 81.43L120.59 81.45L120.63 81.48Q120.20 81.23 119.91 81.23L119.92 81.24L119.35 81.25L119.36 81.26Q119.23 79.04 119.23 76.90L119.19 76.86L119.21 76.89Q119.29 67.26 122.41 58.13L122.32 58.04L122.26 57.98Q121.19 58.47 119.00 59.05L118.97 59.02L118.97 59.03Q119.32 57.87 120.01 55.73L119.96 55.68L120.02 55.74Q118.07 56.33 114.95 56.68L114.87 56.60L114.92 56.65Q108.88 63.14 100.96 77.36L101.02 77.42L104.15 71.82L104.29 71.97Q103.56 73.43 103.15 74.29L103.19 74.33L96.45 88.05L96.47 88.06Q97.44 87.83 99.18 87.25L99.13 87.20L98.83 87.48L99.01 87.66Q98.71 88.57 98.24 90.48L98.26 90.49L98.23 90.46Q104.45 88.42 111.79 88.71L111.80 88.72L111.78 88.69Q111.88 90.18 112.17 93.19L112.18 93.20L112.12 93.14Q113.75 93.15 115.36 93.32L115.44 93.40L115.48 93.44Q115.66 94.43 116.07 96.51L116.07 96.51L116.02 96.46Q119.06 96.96 123.62 98.35L123.49 98.22L123.57 98.30Q121.93 94.92 120.55 89.95L120.70 90.11L122.92 90.82L122.77 90.67Q123.82 91.03 124.86 91.55L124.89 91.58L124.86 91.55Q123.73 87.82 123.49 85.27L123.57 85.35L123.53 85.31Q122.61 85.03 120.88 84.68L120.78 84.59L120.94 84.74Q120.47 82.65 120.47 81.33ZM108.39 81.15L108.48 81.24L108.34 81.10Q109.45 79.09 111.82 75.22L111.84 75.23L111.98 75.38Q111.90 76.74 111.84 78.18L111.82 78.16L111.95 78.30Q111.86 79.71 111.92 81.15L111.92 81.15L111.93 81.17Q111.06 81.10 110.19 81.10L110.13 81.04L110.26 81.17Q109.39 81.22 108.46 81.22Z"/><path d="M15 107 C159 133,192 95,335 48" stroke="#41e66a" fill="none"/><path d="M7 121 C159 40,185 77,331 52" stroke="#75aadf" fill="none"/><path d="M13 121 C189 17,190 65,339 67" stroke="#e778e7" fill="none"/><path d="M19 49 C186 120,165 61,327 55" stroke="#9344e3" fill="none"/><path d="M15 86 C159 85,184 75,340 92" stroke="#f0f08e" fill="none"/><path d="M2 14 C178 63,166 17,327 6" stroke="#85e665" fill="none"/><path d="M20 102 C172 53,167 54,323 38" stroke="#de5353" fill="none"/><path d="M17 108 C185 133,185 74,328 27" stroke="#9dec82" fill="none"/><path d="M8 79 C184 100,183 135,336 72" stroke="#d64c91" fill="none"/><path d="M12 92 C164 130,151 5,336 58" stroke="#4646e1" fill="none"/><path d="M7 41 C152 11,188 46,333 135" stroke="#e476e4" fill="none"/><path d="M19 96 C191 25,160 45,336 124" stroke="#dd6edd" fill="none"/><path d="M9 45 C167 120,183 110,327 32" stroke="#80eeee" fill="none"/><path d="M4 92 C180 74,159 59,329 49" stroke="#eba864" fill="none"/><path fill="#eb89eb" d="M165.67 76.45L165.59 76.37L165.57 76.34Q162.69 76.29 160.84 78.32L160.81 78.29L160.82 78.30Q159.04 80.39 158.81 83.28L158.84 83.31L158.82 83.29Q158.62 86.61 160.47 88.15L160.37 88.05L160.31 87.99Q162.13 89.50 165.37 89.38L165.48 89.49L165.55 89.56Q168.89 89.14 170.33 87.70L170.42 87.78L170.46 87.82Q171.94 85.55 171.76 82.77L171.92 82.93L171.87 82.88Q171.66 80.01 170.02 78.19L170.04 78.21L170.05 78.23Q168.40 76.41 165.63 76.41ZM165.50 62.00L165.48 61.98L165.60 62.10Q163.31 61.78 161.29 62.53L161.29 62.53L161.35 62.59Q159.35 63.77 159.70 66.60L159.68 66.59L159.73 66.64Q160.46 72.28 165.55 72.28L165.53 72.27L165.57 72.30Q167.89 72.55 169.40 70.81L169.44 70.85L169.35 70.77Q170.91 69.09 170.97 66.72L170.92 66.68L170.96 66.72Q171.17 64.15 170.07 63.23L170.09 63.25L169.99 63.14Q167.39 61.81 165.43 61.93ZM165.16 93.27L165.12 93.24L160.43 93.16L160.50 93.23Q158.20 93.25 156.18 91.92L156.19 91.93L156.24 91.98Q153.98 90.07 154.21 85.73L154.31 85.83L154.38 85.91Q155.02 75.44 160.51 73.94L160.49 73.93L160.46 73.89Q156.94 72.46 154.92 64.31L154.95 64.34L154.98 64.37Q154.41 62.19 154.53 60.97L154.69 61.13L154.51 60.95Q154.98 57.73 160.59 57.67L160.67 57.75L160.70 57.78Q167.00 57.55 169.19 57.84L169.26 57.91L169.37 58.02Q175.05 58.67 175.75 61.73L175.87 61.86L175.73 61.72Q176.03 62.76 176.03 63.34L175.90 63.21L175.92 63.23Q175.91 64.26 175.62 65.19L175.72 65.29L175.72 65.29Q174.68 71.59 170.23 73.90L170.41 74.08L170.25 73.92Q175.73 75.30 176.48 83.33L176.43 83.28L176.33 83.18Q176.32 83.39 176.37 85.36L176.51 85.49L176.53 85.51Q176.57 89.60 174.14 91.21L174.15 91.23L174.18 91.25Q172.05 92.54 165.12 93.23ZM168.63 96.80L168.56 96.73L173.70 96.90L173.59 96.79Q176.20 96.91 178.51 95.81L178.63 95.94L178.64 95.95Q180.26 94.74 180.38 91.90L180.41 91.93L180.33 91.86Q180.57 90.36 179.99 87.41L179.91 87.34L179.95 87.38Q178.53 80.29 175.35 77.46L175.30 77.41L175.04 76.86L174.77 76.48L174.57 76.10L174.45 75.98Q177.09 74.06 178.48 67.76L178.32 67.60L178.39 67.67Q178.35 67.05 178.46 65.78L178.57 65.89L178.55 65.86Q178.63 64.79 178.52 63.87L178.52 63.88L178.59 63.94Q178.21 61.60 176.42 60.85L176.51 60.94L176.52 60.88L176.28 60.76L176.28 60.76Q175.79 59.58 174.00 58.37L174.12 58.49L174.11 58.43L174.12 58.43Q171.20 57.47 165.02 57.19L164.99 57.16L164.88 57.05Q162.57 56.93 160.48 57.10L160.43 57.05L160.54 57.16Q159.28 57.17 157.31 57.40L157.23 57.31L157.38 57.47Q154.44 58.05 154.09 60.54L153.98 60.42L153.93 60.37Q153.88 61.13 153.94 62.35L154.02 62.42L153.94 62.35Q154.26 63.30 155.13 66.89L155.00 66.75L155.16 66.92Q156.37 71.82 159.02 73.84L158.93 73.75L159.06 73.89L159.14 73.96Q154.75 75.75 153.94 83.61L153.94 83.61L153.93 83.60Q153.66 86.98 153.66 88.36L153.68 88.38L153.73 88.43Q153.85 91.15 155.64 92.54L155.68 92.58L155.74 92.63Q155.78 92.61 156.18 92.90L156.19 92.91L156.32 93.04Q157.72 96.34 168.52 96.69ZM168.11 79.98L168.11 79.98L168.05 79.92Q169.38 79.75 170.71 80.44L170.81 80.55L170.75 80.49Q171.43 82.09 171.38 82.90L171.39 82.91L171.29 82.82Q171.44 83.37 171.44 83.83L171.29 83.69L171.28 83.68Q171.37 87.35 167.91 88.62L167.91 88.63L167.81 88.52Q166.63 89.02 165.42 88.85L165.48 88.91L165.46 88.89Q163.82 89.10 162.09 88.41L162.05 88.37L162.13 88.45Q161.74 87.48 161.85 85.98L161.75 85.88L161.73 85.85Q161.90 83.37 163.72 81.52L163.82 81.62L163.90 81.70Q165.72 79.84 168.14 80.02ZM168.50 65.64L168.47 65.61L168.37 65.51Q169.53 65.28 170.34 65.51L170.42 65.59L170.38 66.77L170.39 66.78Q170.44 68.97 169.05 70.50L169.01 70.45L168.96 70.41Q167.71 72.08 165.63 71.79L165.64 71.80L165.57 71.73Q164.07 71.73 163.43 71.38L163.47 71.42L163.46 71.40Q163.32 70.92 163.15 69.88L163.18 69.91L163.25 69.98Q162.84 67.84 164.69 66.57L164.65 66.52L164.69 66.57Q166.18 65.40 168.32 65.46Z"/><path d="M7 93 C161 83,188 14,330 127" stroke="#3fe893" fill="none"/><path d="M1 14 C177 27,168 72,336 109" stroke="#eb734b" fill="none"/><path fill="#e179e1" d="M274.95 93.40L274.86 93.31L274.93 93.38Q268.73 93.71 267.23 90.19L267.12 90.08L267.23 90.18Q268.35 88.70 270.72 85.99L270.78 86.04L270.73 85.99Q271.50 89.08 276.06 89.25L275.97 89.16L276.15 89.34Q281.25 89.41 283.74 87.39L283.75 87.40L283.71 87.37Q285.74 84.83 285.63 80.73L285.77 80.87L285.64 80.74Q285.52 73.17 278.24 73.51L278.24 73.51L278.22 73.49Q273.89 73.67 271.23 75.58L271.21 75.56L270.64 75.22L270.42 75.12L270.54 75.23Q271.01 70.39 270.84 66.23L270.86 66.26L270.81 66.20Q270.62 62.20 270.10 57.17L270.01 57.08L270.14 57.21Q275.57 58.54 281.35 58.37L281.41 58.42L281.40 58.41Q287.22 58.34 292.65 56.43L292.63 56.41L291.69 58.65L291.82 58.79Q291.31 59.89 291.02 61.16L291.11 61.25L291.03 61.17Q286.26 62.70 280.36 62.70L280.29 62.62L280.45 62.78Q278.09 62.62 275.84 62.39L275.86 62.41L276.00 62.55Q275.85 63.56 275.33 70.32L275.25 70.24L275.28 70.27Q276.64 69.66 279.76 69.43L279.71 69.38L279.72 69.40Q285.36 69.72 287.56 72.26L287.50 72.20L287.47 72.18Q289.69 74.62 290.09 80.46L290.13 80.49L290.06 80.42Q290.45 86.77 288.61 89.83L288.56 89.79L288.60 89.83Q285.56 92.74 280.53 93.09L280.41 92.97L280.54 93.09Q278.88 93.05 274.83 93.28ZM284.04 96.77L284.05 96.78L284.18 96.91Q289.31 96.95 292.20 95.27L292.16 95.24L292.23 95.31Q293.63 92.90 293.63 89.72L293.74 89.82L293.69 89.78Q293.74 85.14 292.29 78.90L292.21 78.82L292.13 78.74Q291.62 76.15 289.77 74.01L289.77 74.01L289.77 74.07L289.49 73.67L289.05 73.46L289.02 73.43Q288.61 72.39 287.63 71.35L287.57 71.29L287.49 71.27L287.63 71.41Q285.26 68.81 279.65 68.81L279.55 68.71L279.28 68.84L279.16 68.72Q279.39 67.97 279.68 66.29L279.71 66.32L279.72 66.33Q287.18 66.40 293.31 63.91L293.29 63.90L293.31 63.91Q293.90 61.73 295.35 57.46L295.44 57.54L292.24 58.97L292.20 58.93Q292.81 57.23 293.56 55.50L293.49 55.43L293.57 55.50Q287.71 57.67 281.47 57.79L281.47 57.80L281.49 57.81Q275.27 58.01 269.26 56.33L269.26 56.33L269.30 56.37Q270.23 62.96 270.23 69.67L270.30 69.74L270.20 69.64Q270.32 72.65 270.15 75.54L270.08 75.47L270.09 75.47Q270.53 75.80 271.39 76.26L271.45 76.32L271.44 76.31Q271.85 75.85 272.83 75.33L272.96 75.46L272.81 75.31Q272.83 76.55 272.49 78.86L272.53 78.90L272.49 78.86Q273.18 79.21 273.82 79.55L273.77 79.51L273.68 79.41Q277.86 76.72 280.70 76.72L280.85 76.88L280.81 76.84Q282.75 76.76 284.54 77.74L284.63 77.83L284.64 77.83Q285.22 79.46 285.28 80.90L285.23 80.85L285.16 80.78Q285.33 84.77 283.77 86.44L283.66 86.33L283.65 86.32Q281.56 88.16 278.15 88.51L278.17 88.53L278.17 88.53Q276.81 88.73 275.77 88.61L275.84 88.68L275.81 88.65Q274.40 88.34 273.24 87.82L273.32 87.90L273.28 87.57L273.19 87.82L273.20 87.84Q271.88 86.97 271.07 84.95L271.08 84.96L271.18 85.06Q269.08 87.12 266.53 90.36L266.49 90.31L266.57 90.39Q266.91 91.25 268.18 92.69L268.21 92.73L268.21 92.72Q269.83 95.50 274.10 96.25L274.14 96.29L274.05 96.19Q275.92 96.63 284.07 96.80Z"/><path fill="#86e386" d="M222.25 76.36L222.21 76.32L222.24 76.35Q219.45 76.40 217.61 78.42L217.58 78.39L217.64 78.45Q215.71 80.40 215.48 83.29L215.50 83.30L215.49 83.30Q215.10 86.43 216.95 87.96L217.06 88.07L217.12 88.13Q218.99 89.68 222.23 89.57L222.17 89.51L222.20 89.55Q225.73 89.32 227.17 87.87L227.05 87.75L227.11 87.81Q228.67 85.61 228.49 82.83L228.57 82.91L228.50 82.84Q228.30 79.98 226.65 78.16L226.59 78.10L226.58 78.09Q225.05 76.38 222.27 76.38ZM222.15 61.99L222.25 62.09L222.14 61.98Q220.11 61.91 218.09 62.66L218.07 62.64L217.98 62.55Q216.10 63.85 216.45 66.69L216.43 66.67L216.35 66.59Q217.17 72.32 222.26 72.32L222.22 72.28L222.15 72.21Q224.60 72.58 226.10 70.85L226.18 70.93L226.16 70.91Q227.63 69.14 227.69 66.77L227.71 66.80L227.75 66.83Q227.73 64.04 226.63 63.12L226.75 63.23L226.60 63.08Q224.22 61.98 222.26 62.10ZM221.74 93.19L221.83 93.28L217.23 93.30L217.09 93.16Q214.95 93.33 212.93 92.00L212.77 91.84L212.77 91.84Q210.69 90.10 210.92 85.77L210.92 85.78L211.02 85.88Q211.59 75.35 217.08 73.85L217.08 73.85L217.07 73.84Q213.60 72.45 211.58 64.30L211.57 64.30L211.72 64.45Q211.12 62.22 211.23 61.01L211.19 60.96L211.19 60.97Q211.65 57.73 217.26 57.67L217.35 57.76L217.27 57.69Q223.72 57.61 225.92 57.90L225.97 57.95L225.96 57.94Q231.76 58.71 232.45 61.77L232.50 61.82L232.56 61.88Q232.71 62.78 232.71 63.36L232.74 63.38L232.69 63.34Q232.64 64.33 232.35 65.26L232.34 65.24L232.34 65.24Q231.38 71.62 226.93 73.93L226.91 73.91L226.97 73.97Q232.29 75.19 233.04 83.22L233.14 83.32L233.13 83.31Q233.00 83.42 233.06 85.38L233.14 85.46L233.15 85.47Q233.24 89.60 230.81 91.22L230.70 91.11L230.81 91.22Q228.64 92.46 221.70 93.15ZM225.19 96.70L225.23 96.74L230.39 96.92L230.36 96.89Q232.99 97.04 235.30 95.94L235.34 95.98L235.19 95.83Q237.06 94.87 237.18 92.04L237.10 91.97L237.03 91.89Q237.06 90.19 236.49 87.24L236.56 87.32L236.59 87.34Q235.21 80.31 232.03 77.47L232.01 77.45L231.78 76.93L231.39 76.43L231.29 76.15L231.20 76.06Q233.63 73.93 235.02 67.63L234.99 67.60L235.00 67.61Q235.17 67.20 235.28 65.93L235.23 65.88L235.17 65.82Q235.39 64.88 235.27 63.96L235.19 63.88L235.29 63.97Q234.93 61.65 233.14 60.90L233.24 61.00L233.14 60.84L232.85 60.67L232.90 60.72Q232.47 59.60 230.68 58.38L230.81 58.52L230.71 58.36L230.71 58.35Q227.88 57.49 221.69 57.20L221.64 57.15L221.63 57.13Q219.18 56.88 217.10 57.05L217.13 57.08L217.16 57.12Q215.85 57.08 213.89 57.31L213.99 57.41L214.02 57.44Q211.10 58.05 210.76 60.53L210.60 60.38L210.63 60.41Q210.56 61.15 210.62 62.36L210.68 62.42L210.72 62.46Q210.87 63.25 211.74 66.83L211.78 66.87L211.65 66.74Q212.96 71.75 215.62 73.78L215.67 73.82L215.72 73.87L215.82 73.97Q211.41 75.74 210.60 83.60L210.71 83.72L210.66 83.67Q210.48 87.13 210.48 88.51L210.41 88.44L210.45 88.49Q210.61 91.24 212.40 92.63L212.39 92.62L212.41 92.63Q212.44 92.61 212.85 92.90L212.87 92.92L212.84 92.90Q214.42 96.39 225.23 96.73ZM224.68 79.89L224.69 79.90L224.73 79.94Q226.12 79.82 227.45 80.52L227.45 80.52L227.52 80.59Q227.94 81.93 227.88 82.74L227.95 82.81L227.96 82.82Q228.10 83.36 228.10 83.82L228.09 83.82L228.08 83.81Q228.01 87.32 224.54 88.59L224.64 88.69L224.59 88.64Q223.41 89.13 222.19 88.96L222.07 88.83L222.21 88.98Q220.39 89.01 218.66 88.31L218.79 88.44L218.66 88.31Q218.32 87.40 218.43 85.89L218.51 85.97L218.48 85.93Q218.70 83.50 220.52 81.65L220.52 81.66L220.56 81.69Q222.28 79.74 224.71 79.92ZM225.16 65.64L225.06 65.53L225.10 65.57Q226.28 65.36 227.08 65.59L227.07 65.58L227.05 66.78L227.20 66.92Q227.03 68.89 225.64 70.42L225.72 70.49L225.74 70.51Q224.35 72.04 222.27 71.75L222.34 71.83L222.23 71.71Q220.70 71.69 220.07 71.35L220.18 71.46L220.15 71.43Q220.02 70.95 219.85 69.91L219.97 70.03L219.97 70.04Q219.50 67.83 221.35 66.56L221.26 66.47L221.22 66.43Q222.92 65.48 225.06 65.53Z"/><path d="M12 65 C186 44,167 100,337 123" stroke="#91e240" fill="none"/><path d="M1 30 C186 59,155 20,332 4" stroke="#db4cb7" fill="none"/><path d="M16 13 C157 69,165 49,333 57" stroke="#7aef7a" fill="none"/><path d="M15 19 C159 2,186 73,338 81" stroke="#68a0d9" fill="none"/><path d="M16 58 C164 67,158 122,326 111" stroke="#e353e3" fill="none"/><path d="M14 27 C185 135,153 97,331 105" stroke="#69e187" fill="none"/><path d="M16 95 C161 105,155 33,324 118" stroke="#dc7755" fill="none"/><path d="M7 84 C153 93,169 4,328 83" stroke="#ec9191" fill="none"/><path d="M5 83 C179 9,168 90,330 107" stroke="#93dd4a" fill="none"/><path d="M19 94 C166 6,176 134,321 1" stroke="#4f9be7" fill="none"/><path d="M10 133 C190 99,170 139,323 30" stroke="#e25ee2" fill="none"/><path d="M9 73 C177 27,150 33,341 69" stroke="#dd4a6e" fill="none"/><path d="M8 81 C164 13,177 25,330 36" stroke="#e8805e" fill="none"/><path d="M14 4 C191 69,157 100,329 54" stroke="#86e39d" fill="none"/><path fill="#eb8dbc" d="M46.38 82.16L46.38 82.16L46.28 82.06Q50.90 81.42 55.75 81.59L55.77 81.61L55.76 81.60Q55.71 77.74 55.71 74.10L55.74 74.13L55.75 74.14Q55.78 70.41 56.07 66.54L56.13 66.61L56.03 66.51Q54.21 69.13 46.29 82.07ZM61.29 93.20L61.39 93.30L61.32 93.23Q58.75 92.74 56.03 92.62L56.03 92.63L56.04 92.63Q55.82 89.12 55.65 85.36L55.55 85.27L55.64 85.36Q47.44 84.96 40.28 87.09L40.35 87.16L40.35 87.16Q40.55 86.45 40.84 84.94L40.89 84.99L40.75 84.85Q43.42 80.02 48.86 70.48L49.05 70.67L48.88 70.51Q53.36 63.20 58.56 57.30L58.57 57.31L58.53 57.27Q59.95 57.07 62.49 56.67L62.41 56.59L62.47 56.65Q59.59 66.42 59.59 77.11L59.55 77.07L59.56 77.09Q59.51 79.29 59.63 81.54L59.62 81.53L61.64 81.77L61.55 81.67Q62.57 81.83 63.50 82.00L63.42 81.92L63.43 81.93Q63.61 83.44 64.01 86.39L64.02 86.40L64.08 86.45Q62.15 85.97 59.89 85.68L59.92 85.70L59.99 85.78Q60.31 88.82 61.35 93.27ZM63.82 81.34L63.80 81.32L63.85 81.38Q63.57 81.27 63.28 81.27L63.30 81.29L62.71 81.27L62.76 81.32Q62.62 79.10 62.62 76.96L62.49 76.84L62.62 76.97Q62.48 67.12 65.60 57.99L65.60 57.99L65.65 58.04Q64.46 58.41 62.26 58.98L62.21 58.93L62.27 58.99Q62.71 57.93 63.40 55.79L63.41 55.80L63.41 55.80Q61.41 56.34 58.29 56.68L58.17 56.56L58.24 56.64Q52.37 63.31 44.46 77.52L44.30 77.37L47.54 71.88L47.62 71.96Q46.97 73.51 46.57 74.38L46.44 74.25L39.73 87.99L39.70 87.97Q40.66 87.71 42.39 87.13L42.55 87.29L42.15 87.47L42.19 87.50Q42.12 88.65 41.65 90.55L41.61 90.51L41.67 90.57Q47.90 88.54 55.24 88.83L55.11 88.70L55.16 88.75Q55.23 90.20 55.52 93.21L55.58 93.27L55.53 93.22Q57.11 93.18 58.73 93.35L58.76 93.39L58.85 93.47Q58.92 94.36 59.33 96.44L59.48 96.59L59.34 96.45Q62.38 96.95 66.95 98.34L66.93 98.32L66.93 98.32Q65.34 95.00 63.96 90.03L63.89 89.97L66.26 90.83L66.17 90.74Q67.26 91.14 68.30 91.66L68.16 91.51L68.32 91.68Q66.96 87.71 66.72 85.17L66.78 85.23L66.76 85.21Q65.90 84.98 64.17 84.64L64.12 84.59L64.18 84.65Q63.86 82.71 63.86 81.38ZM51.80 81.22L51.74 81.17L51.70 81.13Q52.91 79.22 55.28 75.35L55.31 75.38L55.25 75.32Q55.31 76.82 55.25 78.26L55.26 78.27L55.27 78.28Q55.26 79.77 55.32 81.22L55.23 81.13L55.25 81.16Q54.39 81.10 53.52 81.10L53.52 81.09L53.48 81.06Q52.71 81.22 51.79 81.22Z"/><path d="M16 3 C178 30,174 29,338 85" stroke="#e769e7" fill="none"/><path d="M19 28 C165 109,171 106,330 48" stroke="#dfdf70" fill="none"/></svg>