<svg xmlns="http://www.w3.org/2000/svg" width="342" height="140" viewBox="0,0,342,140"><path d="M13 21 C179 10,165 57,325 57" stroke="#e4e462" fill="none"/><path d="M1 126 C178 83,187 101,339 33" stroke="#db4cdb" fill="none"/><path d="M18 3 C164 129,168 107,333 9" stroke="#4fbde2" fill="none"/><path fill="#5396d9" d="M126.52 96.04L126.57 96.09L126.54 96.06Q119.67 96.49 117.99 92.55L118.07 92.62L117.96 92.52Q119.20 90.85 121.85 87.82L121.84 87.81L121.82 87.79Q122.84 91.39 127.94 91.58L127.96 91.60L127.81 91.45Q133.52 91.54 136.29 89.28L136.29 89.28L136.30 89.29Q138.81 86.70 138.68 82.11L138.72 82.15L138.58 82.01Q138.36 73.46 130.23 73.85L130.24 73.86L130.28 73.90Q125.49 74.15 122.52 76.28L122.42 76.18L121.93 75.95L121.63 75.78L121.61 75.76Q122.18 70.39 121.99 65.74L122.02 65.77L121.96 65.71Q121.76 61.25 121.18 55.64L121.20 55.65L121.31 55.76Q127.45 57.32 133.91 57.12L133.81 57.02L133.84 57.06Q140.35 56.98 146.42 54.85L146.47 54.90L145.40 57.38L145.36 57.34Q144.90 58.69 144.58 60.11L144.51 60.04L144.62 60.14Q139.25 61.82 132.66 61.82L132.64 61.79L132.69 61.85Q130.29 61.90 127.77 61.64L127.75 61.62L127.73 61.60Q127.68 62.84 127.10 70.40L127.05 70.35L127.08 70.38Q128.53 69.63 132.01 69.37L131.89 69.25L132.03 69.39Q138.28 69.69 140.73 72.54L140.75 72.55L140.67 72.48Q143.09 75.15 143.54 81.67L143.49 81.62L143.49 81.63Q143.90 88.68 141.83 92.10L141.92 92.20L141.84 92.12Q138.51 95.44 132.90 95.83L132.75 95.69L132.88 95.82Q131.01 95.75 126.48 96.00ZM136.82 99.94L136.84 99.97L136.81 99.94Q142.59 100.03 145.82 98.16L145.91 98.25L145.89 98.23Q147.57 95.65 147.57 92.09L147.53 92.06L147.47 92.00Q147.61 86.91 146.00 79.93L145.91 79.84L145.86 79.80Q145.29 76.90 143.22 74.51L143.32 74.61L143.38 74.73L142.96 74.19L142.33 73.81L142.26 73.75Q141.76 72.53 140.66 71.37L140.77 71.48L140.71 71.48L140.78 71.55Q138.12 68.63 131.85 68.63L131.85 68.63L131.41 68.64L131.39 68.62Q131.60 67.74 131.93 65.86L131.94 65.87L131.96 65.90Q140.28 65.95 147.13 63.18L147.23 63.27L147.17 63.21Q147.97 60.91 149.58 56.13L149.55 56.11L145.85 57.57L146.00 57.72Q146.58 55.72 147.42 53.78L147.36 53.72L147.50 53.86Q140.97 56.31 134.00 56.44L133.94 56.38L134.00 56.44Q127.05 56.66 120.33 54.78L120.25 54.71L120.22 54.67Q121.44 62.22 121.44 69.71L121.32 69.59L121.43 69.70Q121.40 72.90 121.20 76.13L121.13 76.05L121.24 76.16Q121.63 76.43 122.60 76.94L122.60 76.94L122.66 77.00Q123.28 76.66 124.38 76.08L124.27 75.96L124.27 75.97Q124.32 77.38 123.94 79.96L123.86 79.89L123.93 79.95Q124.65 80.29 125.36 80.68L125.30 80.62L125.23 80.55Q129.95 77.58 133.12 77.58L133.24 77.70L133.22 77.69Q135.46 77.66 137.46 78.75L137.47 78.77L137.38 78.67Q138.01 80.47 138.07 82.08L138.12 82.13L138.06 82.07Q138.10 86.37 136.35 88.24L136.42 88.31L136.52 88.41Q134.19 90.47 130.38 90.86L130.41 90.89L130.26 90.74Q128.65 90.88 127.49 90.75L127.49 90.75L127.60 90.86Q126.10 90.59 124.81 90.01L124.82 90.02L124.82 89.69L124.63 89.89L124.57 89.83Q123.12 88.89 122.21 86.63L122.39 86.81L122.33 86.75Q120.13 89.20 117.29 92.81L117.12 92.65L117.28 92.81Q117.70 93.81 119.12 95.42L119.11 95.41L119.15 95.45Q120.85 98.45 125.63 99.29L125.65 99.30L125.83 99.48Q127.65 99.69 136.75 99.88Z"/><path d="M14 21 C172 72,181 133,328 84" stroke="#d65193" fill="none"/><path d="M5 26 C181 36,163 113,325 55" stroke="#e4a86b" fill="none"/><path d="M18 22 C166 112,160 65,323 76" stroke="#59e759" fill="none"/><path d="M15 53 C185 47,184 105,324 108" stroke="#8e6feb" fill="none"/><path d="M11 130 C161 78,191 101,333 73" stroke="#aa73e2" fill="none"/><path d="M18 124 C183 103,175 54,336 48" stroke="#5ed8d8" fill="none"/><path d="M11 60 C166 89,180 38,327 89" stroke="#42bce5" fill="none"/><path d="M2 57 C153 93,178 76,329 31" stroke="#6feb8e" fill="none"/><path fill="#dd4591" d="M261.38 95.93L261.43 95.98L261.55 96.10Q259.17 96.24 256.52 95.53L256.51 95.52L256.49 95.50Q254.34 93.87 254.08 91.09L254.03 91.04L254.04 91.05Q254.06 90.81 254.38 86.35L254.38 86.35L254.28 86.25Q256.14 86.04 259.56 85.40L259.53 85.37L259.18 86.63L259.30 86.75Q258.68 89.55 261.07 90.52L261.20 90.65L261.24 90.69Q262.55 91.22 266.10 91.22L266.13 91.25L266.08 91.21Q268.84 90.99 269.16 90.86L269.19 90.89L269.05 90.75Q270.58 90.47 271.80 89.63L271.78 89.61L271.96 89.79Q274.25 88.07 273.92 84.52L273.94 84.54L273.93 84.52Q273.66 80.44 270.72 77.79L270.58 77.65L270.67 77.74Q267.66 75.02 263.46 75.02L263.63 75.19L263.47 74.65L263.60 74.77Q264.10 74.56 265.58 74.43L265.69 74.54L265.77 74.62Q268.96 74.39 271.28 72.29L271.18 72.18L271.26 72.26Q273.62 70.20 273.88 67.03L273.81 66.97L273.85 67.01Q273.96 66.41 273.96 65.83L273.87 65.74L273.96 65.82Q273.95 63.23 271.63 61.68L271.63 61.69L271.61 61.67Q269.64 60.40 266.92 60.60L266.74 60.41L266.84 60.51Q264.65 60.26 262.59 60.98L262.53 60.92L262.48 60.87Q260.20 61.94 259.68 63.88L259.66 63.86L259.56 63.76Q259.33 65.15 259.46 66.44L259.40 66.38L259.49 66.47Q257.64 65.97 254.15 64.75L254.24 64.83L254.12 64.72Q253.79 61.93 253.85 60.51L253.86 60.52L253.84 60.50Q253.99 57.86 255.80 56.70L255.91 56.82L255.95 56.85Q258.28 55.76 260.99 55.76L260.95 55.72L260.99 55.76Q266.32 55.67 271.68 56.12L271.69 56.12L271.70 56.14Q280.21 56.77 279.70 63.17L279.78 63.25L279.69 63.16Q279.63 65.74 278.79 68.39L278.71 68.31L278.69 68.30Q277.30 73.68 273.29 75.23L273.24 75.18L273.19 75.13Q277.59 75.98 278.62 81.66L278.76 81.80L278.70 81.73Q279.06 83.65 279.19 87.07L279.16 87.04L279.26 87.15Q279.50 94.67 271.68 95.45L271.74 95.50L271.58 95.35Q270.49 95.61 261.51 96.06ZM270.40 99.92L270.26 99.77L270.22 99.74Q271.28 99.82 276.12 99.95L276.12 99.96L276.16 100.00Q279.14 100.13 281.91 99.03L281.97 99.08L281.92 99.03Q283.96 97.46 283.64 94.49L283.62 94.47L283.53 94.38Q283.42 92.21 282.91 89.24L282.93 89.26L282.90 89.23Q281.63 81.57 278.34 78.79L278.34 78.80L278.00 78.14L277.92 77.99L277.99 78.06Q281.05 75.69 282.34 68.26L282.17 68.10L282.37 68.29Q282.41 67.50 282.61 65.88L282.54 65.81L282.45 65.73Q282.69 64.54 282.56 63.38L282.47 63.29L282.62 63.44Q282.34 60.58 280.14 59.41L280.10 59.37L280.00 59.40L279.98 59.38Q279.44 57.68 277.51 56.78L277.41 56.68L277.53 56.80Q274.96 55.66 266.25 55.14L266.21 55.11L266.15 55.05Q263.35 54.95 260.63 54.95L260.60 54.92L260.66 54.98Q257.99 55.02 255.40 56.12L255.25 55.96L255.37 56.09Q253.18 57.25 253.18 60.22L253.29 60.33L253.28 60.32Q253.37 59.70 253.82 65.39L253.66 65.22L253.66 65.23Q254.27 65.44 257.05 66.48L257.05 66.48L257.00 66.43Q257.07 67.41 257.01 68.25L256.96 68.20L256.96 68.20Q256.96 69.04 257.03 69.94L257.01 69.93L257.00 69.91Q260.15 70.68 263.57 70.87L263.52 70.82L263.53 70.83Q263.25 67.26 265.13 65.84L265.29 66.01L265.13 65.84Q266.70 64.89 270.12 64.51L270.01 64.39L270.06 64.44Q272.09 64.53 273.06 64.86L272.91 64.71L272.93 64.73Q273.12 65.05 273.18 65.24L273.05 65.11L273.00 65.39L273.37 66.52L273.34 66.50Q273.19 66.67 273.13 66.93L273.27 67.08L273.16 66.96Q273.04 69.88 270.45 71.88L270.56 71.98L270.55 71.98Q268.98 73.50 265.56 73.83L265.49 73.75L265.58 73.85Q264.23 73.98 262.75 73.98L262.76 74.00L262.80 74.04Q262.82 74.58 263.08 75.74L263.16 75.82L263.16 75.82Q266.13 75.82 268.59 77.05L268.51 76.98L268.39 77.04L265.81 77.44L265.82 77.45Q265.74 77.89 265.94 78.92L265.98 78.96L265.98 78.96Q269.59 78.83 272.50 81.09L272.50 81.09L272.45 81.04Q272.90 81.75 273.42 84.53L273.52 84.63L273.39 84.50Q273.75 89.51 268.78 90.22L268.78 90.22L268.70 90.14Q265.32 90.77 264.35 90.70L264.23 90.59L264.34 90.69Q263.54 90.47 262.63 90.34L262.59 90.29L262.49 89.42L262.80 88.76L262.87 88.12L262.95 87.63L262.80 87.47Q261.32 87.73 259.96 88.05L259.96 88.05L260.00 88.09Q259.77 87.54 259.77 87.22L259.77 87.22L259.87 87.32Q259.85 86.91 259.85 86.53L259.97 86.64L259.99 86.67Q260.05 85.95 260.31 84.72L260.28 84.69L260.25 84.67Q257.01 84.98 253.85 85.56L253.96 85.68L254.00 85.71Q253.97 86.52 253.78 88.43L253.66 88.31L253.75 88.40Q253.63 90.38 253.63 91.41L253.51 91.30L253.58 91.36Q253.65 94.79 255.98 96.08L256.07 96.18L255.97 96.08Q258.44 99.90 266.45 99.58L266.56 99.69L266.57 99.71Q267.76 99.60 270.35 99.86Z"/><path d="M5 48 C190 95,155 74,333 67" stroke="#80ee80" fill="none"/><path d="M3 68 C169 101,156 86,339 23" stroke="#3f66de" fill="none"/><path d="M2 74 C172 40,168 135,322 34" stroke="#5c7cda" fill="none"/><path d="M21 74 C161 95,170 35,333 32" stroke="#6ba5df" fill="none"/><path d="M19 106 C184 28,156 40,326 108" stroke="#51e051" fill="none"/><path d="M12 115 C186 55,186 36,329 128" stroke="#ddbb54" fill="none"/><path d="M2 139 C151 19,181 19,335 57" stroke="#aaea6a" fill="none"/><path d="M17 111 C178 29,174 28,336 115" stroke="#5eeda5" fill="none"/><path d="M7 72 C169 6,178 138,326 67" stroke="#7791de" fill="none"/><path d="M3 99 C153 121,180 98,339 64" stroke="#5a98d7" fill="none"/><path d="M16 96 C174 114,174 112,324 66" stroke="#74e6ad" fill="none"/><path d="M10 2 C151 68,157 31,334 42" stroke="#e0af7f" fill="none"/><path d="M7 133 C184 10,167 55,323 51" stroke="#6281de" fill="none"/><path d="M13 54 C176 43,151 42,327 43" stroke="#8ce06f" fill="none"/><path d="M13 44 C156 106,161 31,322 65" stroke="#8dd4eb" fill="none"/><path d="M5 74 C186 17,165 59,338 50" stroke="#7ee698" fill="none"/><path d="M2 116 C176 135,170 52,327 29" stroke="#ea57ea" fill="none"/><path d="M7 100 C176 90,176 64,326 110" stroke="#42dbb4" fill="none"/><path d="M18 117 C182 11,161 82,326 42" stroke="#df9880" fill="none"/><path d="M14 128 C183 102,158 137,322 36" stroke="#70dfc4" fill="none"/><path d="M13 100 C184 67,179 64,330 132" stroke="#91a7e7" fill="none"/><path d="M3 65 C181 27,180 119,333 117" stroke="#65eb86" fill="none"/><path fill="#d291e7" d="M200.19 67.39L200.00 67.20L200.10 67.29Q194.64 67.26 191.54 65.45L191.49 65.40L191.65 65.56Q195.73 63.05 204.00 55.89L204.04 55.93L204.04 55.93Q205.23 55.57 207.43 54.54L207.46 54.57L207.43 54.54Q205.34 64.78 205.14 75.57L205.16 75.58L205.15 75.57Q204.89 86.29 206.70 96.63L206.73 96.66L206.74 96.67Q203.93 95.47 200.31 95.28L200.22 95.19L200.24 95.20Q199.98 88.10 199.98 81.19L199.99 81.20L200.02 81.23Q200.00 74.23 200.07 67.26ZM199.50 71.15L199.39 95.78L199.46 95.84Q201.46 95.78 203.08 96.11L203.12 96.15L203.22 96.25Q203.29 97.35 203.61 99.67L203.51 99.57L203.49 99.55Q208.41 100.53 212.54 104.34L212.53 104.33L212.59 104.39Q208.37 92.29 208.31 79.64L208.27 79.60L208.27 79.60Q208.25 67.05 211.35 54.78L211.21 54.64L211.19 54.62Q210.44 55.48 207.73 57.36L207.63 57.26L207.67 57.30Q208.00 56.01 208.52 53.43L208.49 53.41L208.47 53.38Q206.19 54.66 203.74 55.31L203.87 55.43L203.76 55.32Q197.37 61.40 190.08 65.28L190.00 65.20L190.04 65.24Q192.39 67.08 196.40 67.66L196.38 67.64L196.56 67.83Q195.39 68.65 193.19 70.46L193.25 70.52L193.24 70.51Q195.70 71.09 199.44 71.09L199.41 71.06Z"/><path fill="#ed68ed" d="M56.34 83.43L56.46 83.55L56.46 83.55Q61.72 82.93 67.15 83.13L67.01 83.00L67.14 83.13Q67.06 78.78 67.06 74.71L67.00 74.65L66.97 74.63Q66.97 70.42 67.29 66.09L67.25 66.05L67.29 66.09Q65.20 68.97 56.35 83.44ZM73.16 95.92L73.26 96.03L73.17 95.94Q70.41 95.50 67.38 95.37L67.40 95.40L67.26 95.25Q66.99 91.30 66.79 87.10L66.78 87.09L66.72 87.03Q57.70 86.73 49.70 89.12L49.82 89.25L49.72 89.15Q49.99 88.39 50.32 86.71L50.19 86.58L50.24 86.63Q53.31 81.30 59.38 70.65L59.33 70.59L59.37 70.64Q64.28 62.37 70.09 55.79L70.03 55.72L70.14 55.83Q71.68 55.57 74.53 55.12L74.43 55.02L74.50 55.10Q71.23 65.97 71.23 77.92L71.18 77.86L71.11 77.80Q71.22 80.43 71.35 82.94L71.24 82.83L73.58 83.17L73.62 83.21Q74.47 83.09 75.50 83.28L75.62 83.40L75.57 83.35Q75.75 85.01 76.20 88.31L76.23 88.34L76.20 88.31Q74.19 87.91 71.67 87.59L71.66 87.58L71.61 87.52Q72.10 91.06 73.27 96.03ZM76.11 82.79L75.99 82.67L75.98 82.66Q75.65 82.52 75.33 82.52L75.45 82.65L74.85 82.69L74.76 82.61Q74.58 80.10 74.58 77.71L74.63 77.76L74.59 77.72Q74.53 66.81 78.02 56.61L78.09 56.68L78.08 56.67Q76.74 57.07 74.29 57.72L74.25 57.69L74.20 57.63Q74.62 56.37 75.39 53.98L75.48 54.07L75.45 54.04Q73.21 54.64 69.73 55.03L69.84 55.15L69.85 55.16Q63.05 62.37 54.20 78.26L54.36 78.42L57.89 72.19L57.91 72.22Q57.14 73.90 56.69 74.87L56.72 74.90L49.06 90.10L49.13 90.17Q50.18 89.86 52.12 89.22L52.12 89.22L51.84 89.59L51.86 89.61Q51.70 90.81 51.19 92.94L51.15 92.90L51.26 93.01Q58.23 90.75 66.43 91.07L66.30 90.93L66.43 91.07Q66.49 92.68 66.81 96.03L66.66 95.88L66.75 95.97Q68.61 96.02 70.42 96.21L70.45 96.25L70.26 96.06Q70.57 97.27 71.02 99.59L71.06 99.63L71.16 99.73Q74.24 99.98 79.35 101.53L79.43 101.61L79.46 101.64Q77.71 97.95 76.16 92.40L76.16 92.40L78.64 93.20L78.68 93.24Q79.87 93.66 81.03 94.24L81.03 94.24L80.89 94.09Q79.58 89.88 79.32 87.03L79.32 87.03L79.35 87.06Q78.44 86.86 76.50 86.48L76.50 86.47L76.34 86.32Q75.97 84.14 75.97 82.65ZM62.44 82.42L62.38 82.37L62.55 82.54Q63.71 80.21 66.36 75.88L66.50 76.02L66.40 75.92Q66.38 77.52 66.32 79.14L66.32 79.14L66.40 79.22Q66.42 80.92 66.49 82.53L66.35 82.40L66.37 82.42Q65.47 82.43 64.51 82.43L64.49 82.40L64.54 82.46Q63.52 82.47 62.49 82.47Z"/><path d="M16 48 C170 120,186 57,332 95" stroke="#93a9ea" fill="none"/><path d="M8 101 C166 95,175 34,325 134" stroke="#e2e25e" fill="none"/><path d="M12 42 C189 91,157 15,336 70" stroke="#a4ed8b" fill="none"/><path d="M3 13 C192 25,190 138,335 42" stroke="#e13b65" fill="none"/><path d="M16 99 C183 126,176 95,321 54" stroke="#42e0e0" fill="none"/><path d="M14 69 C190 130,152 28,326 114" stroke="#ea7ace" fill="none"/><path d="M13 125 C191 63,151 30,326 62" stroke="#44e7e7" fill="none"/></svg>