<svg xmlns="http://www.w3.org/2000/svg" width="342" height="140" viewBox="0,0,342,140"><path d="M2 64 C173 138,178 27,336 86" stroke="#e1e183" fill="none"/><path d="M5 31 C166 55,186 131,332 105" stroke="#bd57df" fill="none"/><path d="M6 100 C171 118,169 110,322 51" stroke="#6988e7" fill="none"/><path d="M9 29 C153 34,185 63,323 86" stroke="#e9aa95" fill="none"/><path d="M18 64 C163 8,166 108,324 90" stroke="#5adcdc" fill="none"/><path d="M2 128 C161 28,182 128,338 105" stroke="#dfa56b" fill="none"/><path fill="#c4eb50" d="M55.50 84.70L55.44 84.64L55.46 84.66Q61.10 83.93 66.98 84.14L67.02 84.18L66.97 84.13Q66.85 79.39 66.85 74.98L66.89 75.02L66.87 74.99Q66.85 70.43 67.20 65.74L67.28 65.81L67.34 65.87Q65.03 68.95 55.43 84.64ZM73.57 98.08L73.71 98.22L73.70 98.21Q70.59 97.62 67.30 97.48L67.28 97.46L67.21 97.40Q66.90 93.09 66.68 88.54L66.77 88.62L66.66 88.51Q56.99 88.30 48.31 90.89L48.25 90.83L48.28 90.85Q48.41 89.87 48.76 88.05L48.81 88.10L48.74 88.02Q52.06 82.25 58.64 70.69L58.62 70.67L58.71 70.76Q63.99 61.75 70.29 54.61L70.34 54.66L70.21 54.53Q71.91 54.27 74.99 53.78L74.94 53.73L75.04 53.83Q71.42 65.55 71.42 78.50L71.47 78.54L71.44 78.52Q71.43 81.23 71.57 83.97L71.67 84.07L73.90 84.13L74.04 84.27Q75.14 84.31 76.26 84.52L76.32 84.59L76.22 84.48Q76.49 86.37 76.98 89.94L76.95 89.91L76.97 89.93Q74.63 89.34 71.90 88.99L71.90 88.98L72.04 89.12Q72.42 92.80 73.68 98.19ZM76.72 83.80L76.78 83.86L76.72 83.80Q76.32 83.61 75.97 83.61L75.97 83.60L75.39 83.73L75.33 83.66Q75.09 80.90 75.09 78.31L75.16 78.39L75.16 78.39Q75.17 66.63 78.95 55.57L78.82 55.44L78.85 55.47Q77.51 56.02 74.85 56.72L74.87 56.74L74.76 56.63Q75.21 55.26 76.05 52.67L76.15 52.76L76.06 52.67Q73.71 53.41 69.93 53.83L69.95 53.84L69.88 53.78Q62.68 61.77 53.09 79.00L53.05 78.97L56.95 72.29L57.06 72.40Q56.21 74.21 55.72 75.26L55.64 75.18L47.56 91.89L47.58 91.91Q48.68 91.54 50.78 90.84L50.86 90.91L50.59 91.35L50.62 91.37Q50.33 92.55 49.77 94.86L49.75 94.84L49.68 94.77Q57.32 92.40 66.21 92.75L66.20 92.75L66.20 92.74Q66.25 94.47 66.60 98.11L66.63 98.14L66.60 98.12Q68.57 98.12 70.53 98.33L70.54 98.34L70.55 98.35Q70.76 99.54 71.25 102.06L71.35 102.16L71.40 102.21Q74.90 102.63 80.43 104.31L80.41 104.29L80.46 104.34Q78.56 100.34 76.88 94.32L76.82 94.26L79.56 95.18L79.51 95.13Q80.75 95.53 82.01 96.16L82.11 96.26L81.99 96.13Q80.59 91.58 80.31 88.50L80.32 88.51L80.32 88.51Q79.24 88.21 77.14 87.79L77.18 87.83L77.08 87.73Q76.72 85.40 76.72 83.79ZM61.98 83.48L62.04 83.54L61.95 83.45Q63.51 81.22 66.38 76.53L66.21 76.37L66.37 76.53Q66.34 78.25 66.27 80.00L66.12 79.84L66.19 79.91Q66.18 81.73 66.25 83.48L66.24 83.47L66.25 83.48Q65.30 83.51 64.25 83.51L64.28 83.54L64.21 83.47Q63.04 83.42 61.92 83.42Z"/><path d="M8 98 C182 43,163 70,323 102" stroke="#ebcb6a" fill="none"/><path d="M14 80 C189 95,178 62,331 137" stroke="#e95c7f" fill="none"/><path d="M17 3 C174 125,155 17,339 70" stroke="#4ed44e" fill="none"/><path d="M20 78 C172 125,154 105,336 22" stroke="#ec82d2" fill="none"/><path d="M10 71 C153 53,164 108,339 133" stroke="#e664e6" fill="none"/><path d="M18 42 C183 60,171 5,339 136" stroke="#8be96c" fill="none"/><path d="M13 46 C186 78,153 29,329 136" stroke="#5151d6" fill="none"/><path d="M7 121 C159 19,185 64,329 55" stroke="#93df47" fill="none"/><path d="M11 56 C154 55,153 112,335 22" stroke="#65eba8" fill="none"/><path d="M5 125 C154 45,157 73,334 46" stroke="#e689ce" fill="none"/><path d="M16 119 C157 73,158 23,333 19" stroke="#e28ccd" fill="none"/><path d="M1 75 C172 50,164 60,338 23" stroke="#df7957" fill="none"/><path d="M8 45 C189 135,190 25,340 66" stroke="#9cee80" fill="none"/><path d="M1 107 C187 48,156 16,330 67" stroke="#9ee556" fill="none"/><path d="M3 92 C154 94,184 67,338 9" stroke="#90e9a6" fill="none"/><path d="M16 7 C178 40,172 80,328 95" stroke="#b2d548" fill="none"/><path d="M19 131 C185 87,190 122,328 75" stroke="#5fbddd" fill="none"/><path d="M12 114 C184 69,170 126,331 118" stroke="#d290e9" fill="none"/><path d="M21 135 C178 77,154 112,323 133" stroke="#87b5e2" fill="none"/><path d="M4 135 C177 70,156 52,334 40" stroke="#5a7eeb" fill="none"/><path d="M19 96 C180 65,184 74,341 85" stroke="#83e1e1" fill="none"/><path d="M3 20 C188 77,176 81,322 137" stroke="#eac966" fill="none"/><path d="M18 133 C178 83,170 22,337 88" stroke="#e4a18a" fill="none"/><path d="M2 17 C175 70,163 28,336 63" stroke="#e980cf" fill="none"/><path d="M12 105 C183 109,171 130,335 84" stroke="#ea89a2" fill="none"/><path d="M16 31 C178 89,151 117,330 94" stroke="#e69c83" fill="none"/><path d="M8 127 C181 40,179 29,326 42" stroke="#a8e769" fill="none"/><path d="M20 89 C168 26,168 68,325 59" stroke="#e7a869" fill="none"/><path d="M7 29 C164 123,158 76,323 22" stroke="#92eb92" fill="none"/><path fill="#dddd4a" d="M260.53 98.17L260.66 98.29L260.64 98.27Q258.02 98.39 255.15 97.62L255.09 97.55L255.04 97.50Q252.94 95.96 252.66 92.95L252.62 92.91L252.65 92.94Q252.53 92.54 252.88 87.71L252.95 87.78L252.98 87.81Q254.73 87.32 258.44 86.62L258.48 86.66L258.06 87.99L258.14 88.07Q257.70 91.34 260.29 92.39L260.31 92.41L260.26 92.36Q261.74 93.00 265.59 93.00L265.59 93.00L265.61 93.02Q268.48 92.66 268.83 92.52L268.86 92.55L268.86 92.55Q270.54 92.28 271.87 91.37L271.78 91.28L271.76 91.26Q274.45 89.60 274.10 85.75L274.16 85.81L274.13 85.78Q273.75 81.27 270.56 78.40L270.60 78.44L270.50 78.34Q267.42 75.57 262.87 75.57L262.76 75.46L262.82 75.10L262.86 75.14Q263.43 74.95 265.05 74.81L265.17 74.93L265.12 74.88Q268.60 74.65 271.12 72.38L271.11 72.37L271.21 72.47Q273.72 70.18 274.00 66.74L273.98 66.73L273.87 66.62Q274.02 66.00 274.02 65.37L274.00 65.35L274.07 65.42Q274.16 62.70 271.64 61.02L271.54 60.93L271.55 60.94Q269.30 59.46 266.36 59.67L266.40 59.71L266.48 59.79Q263.97 59.38 261.73 60.15L261.73 60.15L261.80 60.22Q259.04 61.10 258.48 63.20L258.61 63.33L258.49 63.21Q258.20 64.67 258.34 66.07L258.39 66.12L258.32 66.05Q256.38 65.58 252.60 64.25L252.58 64.23L252.66 64.31Q252.16 61.15 252.23 59.61L252.26 59.64L252.26 59.64Q252.51 56.88 254.47 55.62L254.46 55.61L254.40 55.55Q257.07 54.51 260.01 54.51L260.07 54.57L260.12 54.62Q265.89 54.51 271.71 55.00L271.69 54.99L271.63 54.93Q281.01 55.76 280.45 62.69L280.50 62.74L280.31 62.56Q280.36 65.47 279.45 68.34L279.44 68.34L279.44 68.34Q277.58 73.83 273.24 75.51L273.40 75.67L273.36 75.63Q278.12 76.54 279.24 82.70L279.20 82.67L279.30 82.76Q279.66 84.80 279.80 88.52L279.77 88.48L279.88 88.60Q280.11 96.73 271.64 97.57L271.58 97.52L271.56 97.50Q270.38 97.79 260.65 98.28ZM270.10 102.27L270.16 102.33L270.14 102.31Q271.31 102.43 276.56 102.57L276.48 102.49L276.49 102.50Q279.71 102.63 282.72 101.44L282.69 101.42L282.77 101.50Q284.95 99.75 284.60 96.53L284.57 96.51L284.70 96.63Q284.46 94.15 283.90 90.93L283.75 90.79L283.89 90.92Q282.57 82.67 279.00 79.66L278.93 79.60L278.66 78.97L278.57 78.81L278.59 78.83Q281.70 76.06 283.10 68.01L283.18 68.09L283.20 68.11Q283.22 67.22 283.43 65.46L283.32 65.35L283.45 65.48Q283.64 64.14 283.50 62.88L283.31 62.69L283.38 62.75Q283.19 59.77 280.81 58.51L280.77 58.46L280.71 58.54L280.64 58.47Q280.11 56.69 278.01 55.71L278.03 55.72L278.01 55.70Q275.18 54.42 265.73 53.86L265.65 53.78L265.61 53.74Q262.70 53.77 259.76 53.77L259.60 53.61L259.65 53.66Q256.80 53.75 254.00 54.94L253.99 54.93L253.99 54.93Q251.76 56.34 251.76 59.56L251.73 59.53L251.66 59.46Q251.61 58.64 252.10 64.80L252.16 64.87L252.13 64.84Q252.74 65.02 255.75 66.14L255.79 66.18L255.85 66.24Q255.74 67.12 255.67 68.03L255.68 68.04L255.75 68.11Q255.72 68.98 255.79 69.96L255.75 69.93L255.80 69.98Q259.12 70.71 262.83 70.92L262.67 70.75L262.69 70.78Q262.64 67.16 264.68 65.62L264.59 65.53L264.57 65.51Q266.20 64.41 269.91 63.99L269.91 63.99L269.88 63.96Q272.04 64.02 273.09 64.37L273.01 64.29L272.99 64.27Q273.02 64.44 273.09 64.65L273.10 64.66L273.23 65.14L273.37 66.12L273.45 66.20Q273.43 66.53 273.36 66.81L273.40 66.85L273.32 66.77Q273.25 69.99 270.44 72.16L270.45 72.16L270.44 72.15Q268.69 73.76 264.98 74.11L265.00 74.14L265.04 74.17Q263.68 74.43 262.07 74.43L262.06 74.42L261.98 74.33Q262.16 75.07 262.44 76.33L262.43 76.32L262.41 76.30Q265.54 76.21 268.20 77.54L268.20 77.54L268.02 77.58L265.26 78.03L265.23 78.01Q265.27 78.60 265.48 79.72L265.54 79.79L265.56 79.81Q269.42 79.61 272.57 82.06L272.63 82.11L272.61 82.09Q272.95 82.71 273.51 85.72L273.52 85.74L273.49 85.71Q273.91 91.16 268.52 91.93L268.51 91.93L268.57 91.98Q264.61 92.36 263.56 92.29L263.59 92.33L263.63 92.37Q262.83 92.20 261.85 92.06L261.75 91.96L261.68 91.05L261.96 90.27L261.99 89.54L262.09 89.01L262.16 89.08Q260.35 89.16 258.88 89.51L258.81 89.44L258.97 89.60Q258.75 89.03 258.75 88.68L258.92 88.85L258.89 88.82Q258.96 88.47 258.96 88.05L258.90 87.99L258.94 88.03Q258.89 87.13 259.17 85.80L259.34 85.98L259.28 85.92Q255.81 86.30 252.38 86.93L252.35 86.90L252.44 86.99Q252.49 87.95 252.28 90.01L252.11 89.84L252.25 89.99Q251.95 91.96 251.95 93.08L251.92 93.06L252.03 93.16Q252.11 96.88 254.63 98.28L254.56 98.22L254.70 98.36Q257.32 102.44 266.00 102.09L265.99 102.08L266.02 102.11Q267.42 102.11 270.22 102.39Z"/><path d="M9 104 C169 89,171 5,326 15" stroke="#e890a6" fill="none"/><path d="M16 135 C172 122,181 132,334 9" stroke="#6de8aa" fill="none"/><path d="M17 51 C155 65,182 135,328 64" stroke="#e89f87" fill="none"/><path fill="#e96767" d="M125.77 98.28L125.76 98.27L125.73 98.24Q118.24 98.66 116.42 94.39L116.45 94.42L116.54 94.51Q117.96 92.79 120.84 89.50L120.74 89.40L120.68 89.34Q121.71 93.17 127.25 93.39L127.10 93.24L127.26 93.40Q133.40 93.45 136.41 91.00L136.43 91.01L136.36 90.95Q138.94 88.00 138.80 83.03L138.87 83.09L138.89 83.11Q138.57 73.76 129.75 74.18L129.85 74.28L129.82 74.25Q124.54 74.43 121.32 76.74L121.27 76.69L120.78 76.49L120.42 76.27L120.41 76.25Q121.01 70.42 120.80 65.37L120.87 65.44L120.71 65.29Q120.55 60.50 119.92 54.41L120.04 54.53L120.00 54.49Q126.73 56.24 133.73 56.03L133.72 56.02L133.72 56.03Q140.66 55.82 147.24 53.51L147.27 53.54L146.23 56.35L146.28 56.40Q145.61 57.70 145.26 59.24L145.29 59.27L145.31 59.29Q139.67 61.27 132.52 61.27L132.36 61.11L132.37 61.11Q129.67 61.08 126.94 60.80L127.10 60.96L126.99 60.85Q126.90 62.16 126.27 70.35L126.35 70.43L126.18 70.27Q127.81 69.51 131.59 69.23L131.56 69.20L131.59 69.23Q138.54 69.74 141.20 72.82L141.19 72.81L141.15 72.77Q143.62 75.52 144.11 82.60L144.20 82.68L144.09 82.58Q144.54 90.23 142.30 93.95L142.39 94.03L142.37 94.01Q138.58 97.44 132.49 97.86L132.63 98.00L132.57 97.94Q130.59 97.92 125.68 98.20ZM136.96 102.54L136.88 102.45L137.00 102.58Q143.30 102.72 146.80 100.69L146.79 100.68L146.63 100.51Q148.59 97.85 148.59 94.00L148.46 93.88L148.51 93.92Q148.45 88.19 146.70 80.63L146.78 80.71L146.78 80.71Q146.10 77.51 143.86 74.92L143.91 74.97L143.88 75.01L143.42 74.41L142.84 74.11L142.87 74.14Q142.32 72.82 141.13 71.56L141.08 71.51L141.11 71.61L141.02 71.52Q138.29 68.51 131.49 68.51L131.61 68.62L131.06 68.56L130.98 68.48Q131.17 67.48 131.52 65.45L131.45 65.38L131.55 65.48Q140.66 65.62 148.08 62.61L148.08 62.61L148.21 62.74Q148.80 59.97 150.55 54.79L150.54 54.78L146.80 56.65L146.75 56.59Q147.42 54.46 148.33 52.36L148.48 52.51L148.34 52.37Q141.40 55.16 133.84 55.30L133.68 55.14L133.72 55.18Q126.16 55.40 118.88 53.37L118.96 53.45L118.92 53.41Q120.12 61.47 120.12 69.59L120.25 69.73L120.25 69.73Q120.26 73.24 120.05 76.74L120.02 76.71L120.00 76.68Q120.40 76.95 121.45 77.51L121.57 77.63L121.55 77.61Q122.06 77.06 123.25 76.43L123.39 76.57L123.41 76.59Q123.28 77.94 122.86 80.74L122.79 80.66L122.86 80.74Q123.57 81.03 124.34 81.45L124.43 81.53L124.45 81.56Q129.56 78.34 132.99 78.34L132.90 78.24L132.91 78.25Q135.36 78.25 137.53 79.44L137.55 79.46L137.58 79.49Q138.20 81.37 138.27 83.12L138.22 83.08L138.34 83.19Q138.31 87.78 136.42 89.81L136.46 89.86L136.39 89.79Q133.88 92.04 129.75 92.46L129.83 92.53L129.93 92.64Q128.02 92.62 126.76 92.48L126.74 92.46L126.93 92.64Q125.30 92.35 123.90 91.72L123.92 91.74L123.83 91.30L123.64 91.53L123.66 91.55Q122.14 90.59 121.16 88.14L121.24 88.22L121.14 88.12Q118.74 90.76 115.66 94.68L115.53 94.55L115.59 94.62Q116.15 95.81 117.69 97.56L117.69 97.55L117.63 97.49Q119.61 100.87 124.79 101.78L124.83 101.82L124.92 101.91Q126.97 102.21 136.84 102.42Z"/><path fill="#ee85ee" d="M192.65 98.29L192.68 98.32L192.65 98.29Q190.04 98.40 187.17 97.63L187.10 97.56L187.07 97.53Q184.91 95.93 184.63 92.92L184.58 92.87L184.60 92.89Q184.47 92.48 184.82 87.65L184.80 87.63L184.87 87.70Q186.77 87.36 190.48 86.66L190.47 86.65L190.11 88.04L190.22 88.14Q189.71 91.35 192.30 92.40L192.20 92.30L192.16 92.26Q193.79 93.05 197.65 93.05L197.63 93.04L197.51 92.92Q200.44 92.63 200.79 92.49L200.80 92.50L200.87 92.57Q202.52 92.26 203.85 91.35L203.89 91.39L203.90 91.39Q206.37 89.53 206.02 85.68L206.17 85.83L206.04 85.69Q205.68 81.20 202.49 78.33L202.49 78.33L202.62 78.46Q199.46 75.61 194.91 75.61L194.91 75.62L194.74 75.02L194.92 75.21Q195.51 75.02 197.12 74.88L197.06 74.82L197.09 74.85Q200.57 74.62 203.09 72.35L203.16 72.41L203.22 72.47Q205.75 70.21 206.03 66.78L205.98 66.73L206.04 66.79Q206.03 66.00 206.03 65.37L206.05 65.39L206.10 65.45Q206.12 62.67 203.60 60.99L203.67 61.06L203.48 60.87Q201.41 59.56 198.47 59.77L198.31 59.62L198.49 59.80Q196.04 59.45 193.80 60.22L193.70 60.12L193.74 60.16Q191.04 61.10 190.48 63.20L190.48 63.21L190.58 63.31Q190.28 64.75 190.42 66.15L190.30 66.03L190.33 66.06Q188.49 65.70 184.71 64.36L184.77 64.43L184.77 64.42Q184.31 61.30 184.38 59.76L184.35 59.73L184.33 59.71Q184.47 56.84 186.43 55.58L186.41 55.56L186.43 55.58Q189.09 54.53 192.03 54.53L192.10 54.60L192.05 54.55Q197.74 54.36 203.55 54.85L203.74 55.04L203.64 54.93Q213.00 55.75 212.44 62.68L212.38 62.63L212.42 62.67Q212.21 65.33 211.30 68.20L211.30 68.19L211.33 68.23Q209.61 73.86 205.27 75.54L205.31 75.58L205.35 75.62Q210.12 76.54 211.24 82.70L211.27 82.73L211.25 82.71Q211.66 84.80 211.80 88.51L211.82 88.53L211.86 88.57Q212.02 96.65 203.55 97.49L203.61 97.55L203.66 97.60Q202.38 97.79 192.65 98.28ZM202.14 102.31L202.17 102.34L202.08 102.25Q203.35 102.47 208.60 102.61L208.54 102.54L208.58 102.59Q211.71 102.64 214.72 101.45L214.71 101.43L214.70 101.43Q216.93 99.73 216.58 96.51L216.53 96.46L216.67 96.60Q216.34 94.03 215.78 90.81L215.90 90.93L215.79 90.82Q214.53 82.63 210.96 79.62L210.93 79.59L210.56 78.87L210.60 78.84L210.58 78.82Q213.81 76.17 215.21 68.12L215.20 68.10L215.10 68.01Q215.23 67.23 215.44 65.48L215.34 65.38L215.47 65.50Q215.48 63.98 215.34 62.72L215.34 62.72L215.35 62.72Q215.22 59.79 212.84 58.53L212.70 58.39L212.58 58.41L212.58 58.41Q212.00 56.57 209.90 55.59L210.02 55.71L209.93 55.62Q207.08 54.32 197.63 53.76L197.73 53.85L197.65 53.77Q194.61 53.68 191.67 53.68L191.62 53.63L191.75 53.76Q188.82 53.77 186.02 54.96L185.94 54.88L185.87 54.82Q183.63 56.22 183.63 59.44L183.75 59.55L183.68 59.48Q183.73 58.76 184.22 64.93L184.19 64.89L184.18 64.89Q184.71 65.00 187.73 66.12L187.85 66.25L187.69 66.09Q187.75 67.13 187.68 68.04L187.66 68.01L187.77 68.13Q187.61 68.87 187.68 69.85L187.74 69.92L187.67 69.85Q191.14 70.73 194.86 70.94L194.67 70.76L194.74 70.82Q194.57 67.09 196.60 65.55L196.67 65.61L196.62 65.56Q198.14 64.35 201.86 63.93L201.98 64.06L201.85 63.93Q204.07 64.05 205.12 64.40L205.06 64.34L205.01 64.29Q205.05 64.47 205.12 64.68L205.11 64.67L205.10 65.01L205.33 66.07L205.37 66.11Q205.48 66.57 205.41 66.86L205.23 66.68L205.33 66.78Q205.16 69.90 202.36 72.07L202.46 72.17L202.46 72.17Q200.72 73.79 197.01 74.14L197.01 74.15L197.05 74.18Q195.66 74.41 194.05 74.41L194.08 74.44L194.12 74.47Q194.21 75.13 194.50 76.39L194.36 76.25L194.49 76.39Q197.59 76.26 200.25 77.59L200.23 77.58L200.05 77.61L197.27 78.05L197.28 78.06Q197.35 78.68 197.56 79.80L197.47 79.71L197.43 79.67Q201.35 79.53 204.50 81.99L204.65 82.13L204.55 82.04Q204.91 82.67 205.47 85.68L205.46 85.67L205.49 85.71Q205.80 91.05 200.40 91.82L200.50 91.92L200.48 91.90Q196.68 92.44 195.63 92.37L195.50 92.24L195.50 92.24Q194.81 92.18 193.83 92.04L193.78 91.99L193.82 91.19L193.93 90.25L193.97 89.52L194.22 89.14L194.18 89.10Q192.44 89.25 190.97 89.60L190.85 89.48L190.84 89.47Q190.82 89.10 190.82 88.75L190.86 88.79L190.74 88.67Q190.90 88.41 190.90 87.99L190.99 88.07L190.83 87.92Q190.88 87.13 191.16 85.80L191.29 85.93L191.33 85.96Q187.80 86.29 184.37 86.92L184.39 86.94L184.39 86.95Q184.43 87.89 184.22 89.96L184.22 89.95L184.16 89.89Q183.98 91.99 183.98 93.11L184.06 93.19L183.99 93.13Q184.07 96.84 186.59 98.24L186.72 98.37L186.57 98.22Q189.30 102.42 197.98 102.07L197.97 102.06L197.95 102.04Q199.37 102.06 202.17 102.34Z"/><path d="M6 43 C168 132,191 133,334 127" stroke="#7decb5" fill="none"/><path d="M6 24 C181 56,169 95,326 52" stroke="#8a6edd" fill="none"/></svg>