<svg xmlns="http://www.w3.org/2000/svg" width="342" height="140" viewBox="0,0,342,140"><path d="M18 78 C153 30,162 115,326 5" stroke="#df7bad" fill="none"/><path d="M6 77 C184 39,162 88,330 27" stroke="#e0388c" fill="none"/><path d="M13 75 C176 116,185 118,337 74" stroke="#7ce8b2" fill="none"/><path d="M2 119 C188 70,180 139,325 130" stroke="#e5ce89" fill="none"/><path d="M11 2 C151 127,158 74,324 80" stroke="#86e467" fill="none"/><path fill="#d85959" d="M199.97 67.22L199.84 67.09L199.93 67.18Q194.33 67.22 191.10 65.34L191.00 65.25L191.09 65.33Q195.47 62.85 204.09 55.38L204.12 55.41L204.07 55.36Q205.40 55.08 207.69 54.01L207.60 53.92L207.57 53.89Q205.40 64.57 205.20 75.81L205.07 75.68L205.02 75.63Q204.98 87.04 206.87 97.80L206.80 97.73L206.80 97.73Q203.90 96.52 200.13 96.32L200.12 96.30L200.04 96.22Q199.83 88.88 199.83 81.68L199.95 81.80L199.82 81.67Q199.85 74.43 199.92 67.16ZM199.26 71.15L199.28 96.94L199.32 96.99Q201.34 96.85 203.02 97.19L203.02 97.18L203.10 97.26Q203.22 98.46 203.55 100.88L203.59 100.92L203.48 100.81Q208.63 101.86 212.94 105.83L212.99 105.87L212.83 105.72Q208.48 93.15 208.41 79.96L208.47 80.02L208.43 79.99Q208.37 66.86 211.60 54.08L211.48 53.96L211.65 54.13Q210.73 54.89 207.90 56.84L207.81 56.75L207.89 56.83Q208.18 55.44 208.72 52.75L208.65 52.67L208.59 52.62Q206.42 54.15 203.86 54.82L203.86 54.82L203.75 54.71Q197.14 61.08 189.53 65.12L189.51 65.10L189.46 65.05Q191.91 66.97 196.09 67.57L196.08 67.56L196.14 67.63Q195.04 68.61 192.75 70.49L192.82 70.57L192.81 70.55Q195.44 71.24 199.35 71.24L199.34 71.23Z"/><path d="M14 33 C168 115,181 95,332 128" stroke="#4d4dda" fill="none"/><path d="M18 110 C160 20,177 13,328 118" stroke="#9b82e7" fill="none"/><path d="M20 33 C186 49,164 50,339 113" stroke="#66dba0" fill="none"/><path d="M21 66 C158 59,189 89,330 1" stroke="#83d5f0" fill="none"/><path d="M9 125 C170 106,167 106,329 89" stroke="#ec7878" fill="none"/><path d="M14 114 C170 18,171 76,328 87" stroke="#f08da6" fill="none"/><path fill="#4b6ed7" d="M130.78 77.33L130.63 77.18L130.76 77.31Q127.50 77.08 125.31 79.60L125.38 79.68L125.28 79.57Q123.15 82.15 122.81 85.51L122.69 85.39L122.75 85.46Q122.47 89.21 124.39 90.93L124.27 90.81L124.21 90.75Q126.21 92.55 129.92 92.35L129.84 92.27L129.85 92.28Q133.62 92.08 135.57 90.87L135.52 90.82L135.66 90.96Q137.53 88.86 137.53 86.11L137.48 86.05L137.63 86.20Q137.58 85.48 137.44 84.80L137.36 84.72L137.44 84.80Q137.66 81.93 135.71 79.54L135.63 79.46L135.64 79.47Q133.74 77.13 130.78 77.33ZM129.98 96.93L129.88 96.82L129.98 96.93Q122.23 96.91 119.74 95.57L119.79 95.62L119.72 95.55Q117.85 94.15 117.51 91.12L117.65 91.26L117.54 91.15Q117.49 89.95 117.56 88.67L117.52 88.63L117.57 88.69Q117.70 86.87 117.70 86.06L117.88 86.23L117.71 86.07Q118.63 81.13 118.90 79.92L118.95 79.97L118.83 79.85Q119.73 76.52 121.22 74.03L121.07 73.88L121.17 73.98Q125.96 66.32 136.46 55.08L136.35 54.97L136.30 54.92Q141.01 54.38 144.91 52.97L144.92 52.98L144.98 53.03Q132.94 66.30 127.28 73.77L127.27 73.75L127.28 73.77Q128.99 72.85 131.28 72.85L131.30 72.87L131.31 72.88Q137.06 72.78 139.75 76.21L139.76 76.21L139.76 76.22Q142.11 79.11 142.72 85.37L142.83 85.47L142.69 85.34Q142.94 86.73 142.94 87.81L142.99 87.86L142.96 87.83Q142.91 93.30 139.01 95.19L139.03 95.20L139.02 95.20Q136.91 96.31 130.04 96.99ZM134.06 101.21L134.02 101.17L133.94 101.09Q136.20 100.99 139.70 101.13L139.84 101.26L139.87 101.29Q142.78 101.44 145.54 100.17L145.42 100.05L145.39 100.02Q147.45 98.72 147.45 95.55L147.36 95.46L147.32 95.42Q147.44 94.66 147.14 92.91L147.12 92.89L147.16 92.94Q146.82 91.15 146.82 90.34L146.72 90.24L146.87 90.39Q145.22 81.94 142.39 78.58L142.39 78.58L142.35 78.53Q142.28 78.40 142.01 78.00L142.07 78.05L141.54 77.66L141.44 77.63L141.29 77.48Q140.67 76.59 139.59 74.91L139.75 75.06L139.74 75.05Q137.96 73.21 134.46 72.40L134.56 72.50L134.58 72.52Q136.61 69.57 141.86 63.04L141.87 63.05L149.33 53.69L149.38 53.74Q146.57 55.23 142.33 56.57L142.52 56.77L142.44 56.69Q143.97 54.85 147.13 51.35L147.28 51.50L147.22 51.44Q142.98 53.32 136.12 54.33L136.16 54.38L136.04 54.26Q125.94 64.68 120.69 73.43L120.81 73.56L120.74 73.48Q118.01 77.89 117.00 88.93L116.95 88.88L117.00 88.93Q116.89 89.96 117.02 91.64L116.99 91.61L117.07 91.69Q117.13 94.70 119.08 96.32L119.16 96.41L119.12 96.36Q119.90 96.74 119.83 96.80L119.78 96.75L119.66 96.63Q120.43 98.34 121.84 99.08L121.91 99.15L121.81 99.05Q124.44 100.33 127.87 100.67L127.81 100.61L127.81 100.61Q127.84 100.64 134.03 101.18ZM133.53 81.23L133.70 81.39L133.58 81.28Q134.62 81.10 136.30 81.98L136.21 81.89L136.29 81.97Q136.84 83.60 136.84 84.74L136.95 84.85L136.84 84.74Q137.17 88.03 135.49 89.78L135.49 89.78L135.59 89.89Q133.77 91.22 130.07 91.76L129.98 91.67L130.07 91.76Q127.44 91.69 126.50 91.22L126.51 91.23L126.50 91.22Q126.09 90.34 126.09 89.80L126.11 89.82L126.15 89.86Q125.66 83.99 130.84 81.70L130.94 81.80L130.93 81.78Q132.28 81.18 133.62 81.32Z"/><path d="M15 52 C177 27,188 59,332 92" stroke="#e660e6" fill="none"/><path d="M11 129 C181 98,173 82,332 90" stroke="#f07fb7" fill="none"/><path d="M2 133 C181 128,156 16,322 106" stroke="#ee76b2" fill="none"/><path d="M9 49 C192 55,152 126,329 128" stroke="#ed6ccd" fill="none"/><path d="M10 112 C173 16,157 127,323 95" stroke="#5ac7eb" fill="none"/><path d="M20 124 C152 130,156 128,340 78" stroke="#e849c0" fill="none"/><path d="M15 53 C192 125,188 65,321 56" stroke="#eba865" fill="none"/><path d="M17 76 C161 82,172 75,334 98" stroke="#db9b5b" fill="none"/><path d="M12 63 C186 123,162 58,340 86" stroke="#b2ee76" fill="none"/><path d="M8 71 C187 42,165 78,327 65" stroke="#ea5bea" fill="none"/><path d="M7 23 C171 36,186 114,337 71" stroke="#e476c8" fill="none"/><path fill="#cce976" d="M55.84 83.99L55.87 84.02L55.88 84.02Q61.30 83.32 66.95 83.52L67.12 83.69L67.01 83.58Q66.99 79.11 66.99 74.87L66.95 74.84L67.03 74.92Q66.89 70.41 67.23 65.90L67.38 66.05L67.35 66.02Q65.12 68.97 55.90 84.05ZM73.45 97.09L73.37 97.01L73.41 97.04Q70.50 96.56 67.33 96.42L67.34 96.43L67.22 96.31Q67.03 92.28 66.82 87.90L66.69 87.77L66.84 87.92Q57.26 87.42 48.91 89.91L48.98 89.98L49.08 90.08Q49.10 89.02 49.44 87.27L49.58 87.41L49.58 87.42Q52.70 81.79 59.02 70.68L59.10 70.76L59.03 70.69Q64.12 62.05 70.18 55.18L70.18 55.18L70.18 55.19Q71.72 54.85 74.69 54.37L74.76 54.45L74.66 54.35Q71.32 65.75 71.32 78.20L71.38 78.26L71.29 78.17Q71.37 80.88 71.51 83.50L71.50 83.49L73.85 83.75L73.76 83.67Q74.74 83.63 75.81 83.84L75.92 83.94L75.82 83.85Q76.17 85.74 76.64 89.17L76.57 89.10L76.53 89.07Q74.44 88.65 71.81 88.32L71.80 88.31L71.78 88.28Q72.28 91.95 73.49 97.13ZM76.37 83.25L76.33 83.21L76.45 83.33Q76.00 83.08 75.66 83.08L75.66 83.07L75.07 83.17L75.06 83.15Q74.83 80.49 74.83 78.00L74.80 77.98L74.76 77.94Q74.84 66.71 78.47 56.08L78.42 56.02L78.56 56.16Q77.07 56.49 74.51 57.16L74.48 57.13L74.59 57.24Q74.98 55.88 75.78 53.39L75.82 53.42L75.74 53.35Q73.58 54.14 69.94 54.55L69.78 54.38L69.89 54.50Q62.82 62.03 53.60 78.59L53.70 78.69L57.38 72.20L57.34 72.16Q56.67 74.05 56.20 75.06L56.14 75.00L48.24 90.92L48.36 91.04Q49.43 90.70 51.45 90.02L51.54 90.12L51.15 90.40L51.26 90.52Q51.04 91.71 50.50 93.93L50.50 93.92L50.45 93.88Q57.68 91.48 66.23 91.82L66.30 91.89L66.33 91.92Q66.39 93.60 66.73 97.09L66.66 97.03L66.72 97.09Q68.64 97.12 70.52 97.32L70.52 97.32L70.45 97.25Q70.81 98.55 71.28 100.97L71.12 100.81L71.11 100.80Q74.61 101.35 79.93 102.96L79.97 103.00L79.84 102.87Q78.18 99.19 76.56 93.40L76.53 93.37L79.00 94.09L79.15 94.25Q80.23 94.52 81.44 95.12L81.57 95.25L81.50 95.18Q80.03 90.68 79.76 87.72L79.73 87.69L79.76 87.72Q78.76 87.46 76.75 87.06L76.73 87.05L76.72 87.03Q76.37 84.80 76.37 83.25ZM62.18 82.93L62.18 82.92L62.33 83.07Q63.56 80.67 66.32 76.16L66.35 76.19L66.45 76.29Q66.37 77.89 66.30 79.57L66.27 79.55L66.21 79.48Q66.25 81.27 66.32 82.96L66.42 83.06L66.34 82.97Q65.38 82.96 64.37 82.96L64.36 82.95L64.32 82.91Q63.24 82.91 62.16 82.91Z"/><path d="M10 111 C171 86,176 137,339 30" stroke="#e5bc42" fill="none"/><path d="M5 58 C157 108,157 86,327 31" stroke="#8ca3e7" fill="none"/><path d="M16 18 C183 99,176 8,336 53" stroke="#77afe8" fill="none"/><path d="M5 53 C179 70,188 124,332 115" stroke="#6aeaca" fill="none"/><path d="M12 114 C164 12,189 91,323 65" stroke="#afe57a" fill="none"/><path d="M7 125 C162 108,187 45,332 81" stroke="#d84469" fill="none"/><path d="M3 82 C178 98,163 9,331 16" stroke="#92e6e6" fill="none"/><path d="M7 70 C164 5,170 109,334 68" stroke="#ec5f82" fill="none"/><path fill="#6183ea" d="M259.90 84.04L259.99 84.14L260.00 84.14Q265.45 83.48 271.11 83.68L270.98 83.55L271.03 83.60Q271.03 79.16 271.03 74.92L270.88 74.77L270.90 74.79Q270.98 70.49 271.31 65.98L271.33 65.99L271.21 65.88Q269.13 68.98 259.91 84.05ZM277.50 97.14L277.36 96.99L277.47 97.10Q274.43 96.49 271.27 96.36L271.27 96.36L271.30 96.39Q271.04 92.29 270.84 87.92L270.73 87.81L270.83 87.91Q261.30 87.47 252.96 89.96L253.07 90.07L253.06 90.06Q253.23 89.16 253.57 87.41L253.49 87.33L253.63 87.46Q256.73 81.82 263.06 70.72L262.96 70.62L263.10 70.76Q268.04 61.97 274.10 55.11L274.09 55.10L274.09 55.10Q275.77 54.89 278.73 54.42L278.65 54.34L278.68 54.37Q275.29 65.72 275.29 78.17L275.35 78.23L275.31 78.19Q275.37 80.88 275.51 83.50L275.50 83.49L277.69 83.60L277.70 83.61Q278.75 83.65 279.83 83.85L279.87 83.89L279.99 84.01Q280.20 85.77 280.67 89.21L280.60 89.13L280.67 89.20Q278.45 88.66 275.82 88.33L275.81 88.31L275.71 88.21Q276.15 91.82 277.36 97.00ZM280.34 83.22L280.44 83.32L280.38 83.26Q280.02 83.11 279.69 83.11L279.62 83.04L279.04 83.14L279.04 83.13Q278.82 80.48 278.82 77.99L278.92 78.10L278.80 77.98Q278.82 66.69 282.45 56.06L282.38 55.99L282.56 56.17Q281.02 56.44 278.46 57.11L278.55 57.20L278.55 57.20Q279.00 55.90 279.81 53.41L279.79 53.39L279.85 53.45Q277.56 54.12 273.92 54.52L273.77 54.37L273.86 54.46Q266.83 62.03 257.61 78.59L257.75 78.74L261.45 72.27L261.49 72.31Q260.70 74.08 260.23 75.09L260.19 75.05L252.22 90.90L252.30 90.99Q253.48 90.75 255.50 90.07L255.40 89.98L255.25 90.50L255.12 90.38Q255.04 91.71 254.50 93.93L254.56 93.98L254.44 93.86Q261.64 91.44 270.19 91.78L270.31 91.90L270.31 91.90Q270.31 93.51 270.64 97.01L270.69 97.06L270.59 96.96Q272.62 97.10 274.50 97.30L274.39 97.19L274.38 97.18Q274.64 98.39 275.11 100.81L275.22 100.91L275.19 100.89Q278.60 101.34 283.92 102.95L283.95 102.98L283.84 102.87Q282.20 99.22 280.59 93.43L280.52 93.36L283.01 94.10L283.12 94.21Q284.31 94.59 285.52 95.19L285.44 95.11L285.47 95.15Q284.08 90.73 283.81 87.77L283.73 87.68L283.76 87.72Q282.86 87.56 280.84 87.15L280.79 87.10L280.78 87.09Q280.38 84.80 280.38 83.26ZM266.27 83.02L266.34 83.09L266.17 82.91Q267.53 80.64 270.29 76.13L270.37 76.21L270.34 76.18Q270.29 77.81 270.22 79.50L270.25 79.52L270.27 79.54Q270.28 81.30 270.35 82.99L270.32 82.96L270.33 82.97Q269.36 82.94 268.35 82.94L268.28 82.87L268.28 82.87Q267.23 82.89 266.15 82.89Z"/><path d="M11 25 C159 79,159 69,327 33" stroke="#84e5b5" fill="none"/><path d="M6 40 C188 25,156 57,331 43" stroke="#54d8d8" fill="none"/><path d="M7 89 C192 123,155 43,339 46" stroke="#73dc50" fill="none"/><path d="M18 136 C162 43,190 42,330 3" stroke="#6ca8e4" fill="none"/><path d="M1 45 C155 91,188 74,335 138" stroke="#7f7fe0" fill="none"/><path d="M7 43 C173 32,191 133,336 8" stroke="#8bb7e3" fill="none"/><path d="M8 98 C190 109,151 47,328 18" stroke="#4ae2e2" fill="none"/><path d="M20 115 C190 56,162 4,325 53" stroke="#e46cc6" fill="none"/><path d="M1 18 C160 30,168 101,329 91" stroke="#77e392" fill="none"/><path d="M10 19 C161 3,169 104,329 129" stroke="#7edd5f" fill="none"/></svg>