<svg xmlns="http://www.w3.org/2000/svg" width="342" height="140" viewBox="0,0,342,140"><path d="M8 111 C179 107,164 88,329 14" stroke="#e2aa73" fill="none"/><path fill="#748fe1" d="M222.06 76.17L222.21 76.32L222.18 76.29Q219.28 75.99 217.40 78.15L217.41 78.16L217.44 78.20Q215.66 80.46 215.37 83.35L215.24 83.22L215.35 83.33Q214.94 86.38 216.58 87.86L216.55 87.83L216.70 87.98Q218.33 89.42 221.50 89.25L221.46 89.21L221.34 89.09Q224.58 88.92 226.26 87.88L226.24 87.87L226.38 88.00Q228.02 86.23 228.02 83.86L228.03 83.87L228.04 83.88Q228.12 83.39 228.01 82.81L227.97 82.78L227.85 82.65Q228.07 80.22 226.39 78.16L226.37 78.14L226.31 78.08Q224.60 75.99 222.05 76.16ZM221.41 93.03L221.46 93.08L221.48 93.10Q214.77 93.03 212.63 91.87L212.64 91.89L212.63 91.88Q211.14 90.79 210.85 88.19L210.78 88.12L210.87 88.21Q210.90 87.25 210.96 86.16L210.86 86.06L210.93 86.13Q211.07 84.60 211.07 83.90L210.98 83.81L211.07 83.91Q211.79 79.60 212.03 78.56L212.04 78.58L211.91 78.44Q212.57 75.46 213.84 73.33L213.84 73.32L213.97 73.45Q217.87 66.67 226.89 57.02L226.95 57.08L227.04 57.17Q231.11 56.73 234.46 55.52L234.38 55.44L234.35 55.41Q223.92 66.71 219.07 73.12L219.15 73.20L219.13 73.18Q220.55 72.35 222.52 72.35L222.62 72.45L222.54 72.38Q227.55 72.36 229.86 75.31L229.94 75.38L229.97 75.42Q232.02 77.92 232.54 83.30L232.44 83.20L232.45 83.20Q232.57 84.31 232.57 85.24L232.64 85.31L232.54 85.20Q232.67 90.07 229.32 91.69L229.24 91.61L229.26 91.63Q227.47 92.61 221.57 93.19ZM224.89 96.68L224.93 96.72L225.01 96.81Q227.01 96.78 230.02 96.90L230.03 96.91L230.01 96.89Q232.48 96.99 234.85 95.89L234.79 95.83L234.71 95.76Q236.46 94.62 236.46 91.90L236.39 91.83L236.52 91.96Q236.43 91.12 236.17 89.61L236.23 89.67L236.10 89.55Q235.87 88.08 235.87 87.38L236.03 87.54L235.87 87.38Q234.61 80.28 232.18 77.39L232.09 77.30L232.18 77.39Q232.02 77.18 231.79 76.83L231.82 76.86L231.30 76.45L231.24 76.45L231.29 76.51Q230.71 75.69 229.78 74.24L229.77 74.23L229.90 74.36Q228.35 72.75 225.34 72.06L225.36 72.08L225.38 72.09Q227.30 69.74 231.81 64.13L231.74 64.07L238.14 56.02L238.16 56.04Q235.85 57.42 232.20 58.58L232.21 58.58L232.13 58.50Q233.53 57.01 236.25 54.01L236.21 53.97L236.35 54.11Q232.60 55.62 226.71 56.49L226.74 56.52L226.85 56.63Q218.10 65.51 213.59 73.02L213.49 72.91L213.62 73.04Q211.17 76.72 210.30 86.20L210.38 86.28L210.30 86.20Q210.35 87.23 210.47 88.67L210.49 88.70L210.45 88.66Q210.59 91.34 212.27 92.73L212.22 92.68L212.10 92.56Q212.75 92.86 212.69 92.92L212.73 92.96L212.78 93.01Q213.34 94.38 214.56 95.02L214.59 95.05L214.56 95.02Q216.77 96.08 219.72 96.37L219.60 96.25L219.71 96.36Q219.66 96.31 224.98 96.77ZM224.56 79.65L224.63 79.73L224.54 79.63Q225.41 79.46 226.86 80.22L226.90 80.26L226.93 80.29Q227.46 81.74 227.46 82.73L227.53 82.80L227.48 82.75Q227.64 85.45 226.20 86.95L226.19 86.95L226.33 87.09Q224.67 88.14 221.49 88.61L221.56 88.67L221.48 88.59Q219.35 88.65 218.54 88.25L218.54 88.25L218.54 88.25Q218.28 87.59 218.28 87.13L218.10 86.95L218.28 87.13Q217.92 82.15 222.37 80.18L222.39 80.19L222.33 80.14Q223.42 79.55 224.58 79.67Z"/><path d="M18 130 C190 128,179 82,339 71" stroke="#db3ddb" fill="none"/><path d="M9 107 C162 73,189 59,329 90" stroke="#d94848" fill="none"/><path d="M20 56 C160 98,172 70,334 106" stroke="#79eb79" fill="none"/><path fill="#e18888" d="M46.33 82.12L46.23 82.01L46.26 82.04Q51.07 81.59 55.92 81.76L55.75 81.60L55.81 81.65Q55.84 77.87 55.84 74.23L55.68 74.07L55.70 74.09Q55.72 70.35 56.01 66.48L56.08 66.55L55.97 66.44Q54.26 69.18 46.34 82.12ZM61.25 93.16L61.29 93.20L61.34 93.25Q58.68 92.67 55.97 92.56L55.97 92.56L56.13 92.72Q55.74 89.03 55.56 85.28L55.64 85.36L55.54 85.25Q47.41 84.93 40.25 87.06L40.41 87.23L40.28 87.09Q40.48 86.38 40.77 84.87L40.77 84.87L40.84 84.95Q43.51 80.10 48.94 70.57L48.99 70.62L48.96 70.59Q53.43 63.27 58.63 57.37L58.53 57.27L58.59 57.33Q59.95 57.08 62.50 56.67L62.51 56.69L62.33 56.50Q59.57 66.41 59.57 77.10L59.49 77.02L59.47 76.99Q59.55 79.33 59.67 81.58L59.68 81.60L61.57 81.69L61.59 81.71Q62.49 81.74 63.41 81.92L63.50 82.00L63.48 81.98Q63.62 83.46 64.03 86.40L64.09 86.47L64.10 86.48Q62.14 85.96 59.89 85.67L60.01 85.80L59.91 85.69Q60.26 88.76 61.30 93.21ZM63.86 81.39L63.89 81.41L63.77 81.29Q63.64 81.33 63.35 81.33L63.20 81.19L62.69 81.25L62.73 81.29Q62.46 78.94 62.46 76.80L62.57 76.91L62.44 76.79Q62.63 67.26 65.75 58.13L65.64 58.02L65.61 57.99Q64.40 58.35 62.21 58.93L62.25 58.97L62.25 58.97Q62.73 57.95 63.42 55.81L63.39 55.77L63.44 55.82Q61.34 56.27 58.22 56.62L58.34 56.74L58.21 56.60Q52.39 63.32 44.47 77.54L44.31 77.37L47.59 71.93L47.47 71.82Q46.83 73.37 46.43 74.24L46.53 74.34L39.84 88.10L39.72 87.98Q40.80 87.85 42.54 87.28L42.42 87.16L42.27 87.59L42.28 87.60Q42.04 88.57 41.58 90.47L41.53 90.43L41.66 90.56Q47.85 88.48 55.19 88.77L55.17 88.75L55.23 88.82Q55.20 90.17 55.49 93.18L55.62 93.31L55.45 93.14Q57.23 93.30 58.85 93.47L58.78 93.41L58.84 93.47Q59.00 94.44 59.41 96.52L59.32 96.43L59.33 96.45Q62.32 96.89 66.89 98.28L66.77 98.16L66.83 98.22Q65.37 95.02 63.98 90.05L63.99 90.06L66.08 90.65L66.12 90.69Q67.26 91.13 68.30 91.65L68.24 91.60L68.27 91.63Q67.10 87.85 66.86 85.31L66.84 85.28L66.87 85.31Q65.92 85.01 64.19 84.66L64.13 84.60L64.25 84.72Q63.83 82.68 63.83 81.35ZM51.68 81.10L51.82 81.24L51.63 81.06Q52.90 79.21 55.27 75.33L55.34 75.40L55.29 75.35Q55.24 76.75 55.18 78.19L55.18 78.19L55.29 78.30Q55.14 79.65 55.20 81.10L55.17 81.07L55.31 81.21Q54.34 81.05 53.47 81.05L53.52 81.10L53.52 81.10Q52.72 81.22 51.80 81.22Z"/><path d="M21 78 C189 94,182 129,323 70" stroke="#c353e8" fill="none"/><path d="M7 2 C182 71,171 7,335 114" stroke="#e773e7" fill="none"/><path d="M2 104 C172 130,168 128,332 94" stroke="#98e57f" fill="none"/><path d="M8 63 C169 65,191 136,336 120" stroke="#e6b27e" fill="none"/><path d="M11 19 C158 128,181 132,325 26" stroke="#df57df" fill="none"/><path d="M8 113 C180 48,155 135,324 27" stroke="#8cecd4" fill="none"/><path fill="#6fe68c" d="M160.65 93.36L160.61 93.32L160.60 93.31Q158.51 93.47 156.14 92.83L156.12 92.81L156.04 92.73Q154.14 91.29 153.91 88.81L153.92 88.82L153.97 88.88Q154.04 88.71 154.32 84.72L154.15 84.55L154.32 84.72Q155.79 84.34 158.86 83.76L158.89 83.79L158.46 84.81L158.64 84.99Q158.21 87.63 160.35 88.49L160.27 88.41L160.36 88.50Q161.44 88.89 164.62 88.89L164.61 88.88L164.77 89.04Q167.10 88.71 167.39 88.59L167.30 88.51L167.32 88.53Q168.86 88.44 169.95 87.69L169.79 87.53L169.79 87.53Q171.99 86.14 171.70 82.97L171.66 82.93L171.82 83.09Q171.42 79.28 168.79 76.91L168.80 76.92L168.73 76.84Q166.10 74.48 162.34 74.48L162.41 74.55L162.52 74.30L162.39 74.18Q162.98 74.13 164.31 74.02L164.40 74.11L164.31 74.02Q167.32 73.97 169.40 72.09L169.25 71.94L169.39 72.08Q171.46 70.19 171.70 67.36L171.60 67.26L171.67 67.34Q171.76 66.79 171.76 66.27L171.65 66.16L171.83 66.34Q171.69 63.89 169.61 62.50L169.71 62.61L169.68 62.57Q167.89 61.42 165.46 61.59L165.34 61.47L165.39 61.52Q163.35 61.21 161.50 61.84L161.64 61.99L161.57 61.92Q159.32 62.67 158.86 64.40L158.84 64.38L158.98 64.53Q158.67 65.66 158.79 66.82L158.79 66.82L158.70 66.73Q157.12 66.37 154.00 65.27L154.15 65.41L154.08 65.35Q153.68 62.75 153.74 61.48L153.77 61.51L153.79 61.53Q153.96 59.22 155.58 58.18L155.50 58.10L155.59 58.20Q157.64 57.18 160.07 57.18L160.16 57.27L160.17 57.28Q164.93 57.18 169.72 57.59L169.78 57.64L169.76 57.63Q177.48 58.29 177.01 64.01L177.00 64.00L176.90 63.90Q176.85 66.21 176.09 68.58L176.05 68.54L176.02 68.50Q174.65 73.20 171.06 74.59L171.05 74.58L171.18 74.70Q175.05 75.39 175.97 80.48L175.91 80.42L176.04 80.55Q176.27 82.17 176.39 85.23L176.46 85.30L176.46 85.30Q176.71 92.08 169.71 92.77L169.67 92.73L169.80 92.85Q168.62 92.89 160.59 93.29ZM168.41 96.60L168.43 96.62L168.47 96.67Q169.50 96.84 173.84 96.95L173.67 96.79L173.67 96.78Q176.36 96.93 178.84 95.95L178.93 96.03L178.83 95.93Q180.63 94.50 180.34 91.84L180.33 91.82L180.50 92.00Q180.17 89.82 179.71 87.16L179.68 87.13L179.75 87.21Q178.59 80.32 175.64 77.84L175.76 77.96L175.39 77.30L175.39 77.24L175.39 77.24Q177.97 74.97 179.13 68.32L179.25 68.45L179.17 68.37Q179.34 67.78 179.51 66.34L179.35 66.18L179.42 66.24Q179.49 65.04 179.37 64.00L179.36 63.99L179.50 64.13Q179.11 61.43 177.14 60.39L177.16 60.41L177.16 60.52L177.12 60.48Q176.56 58.88 174.83 58.07L174.99 58.23L174.82 58.07Q172.64 57.15 164.84 56.69L164.72 56.58L164.82 56.67Q162.30 56.58 159.87 56.58L159.75 56.45L159.88 56.59Q157.41 56.55 155.10 57.53L155.19 57.61L155.10 57.52Q153.25 58.68 153.25 61.34L153.24 61.33L153.18 61.27Q153.28 60.73 153.68 65.82L153.67 65.81L153.73 65.87Q154.02 65.81 156.51 66.74L156.63 66.86L156.63 66.86Q156.65 67.68 156.59 68.44L156.48 68.32L156.58 68.42Q156.50 69.10 156.56 69.91L156.63 69.98L156.60 69.95Q159.30 70.51 162.36 70.68L162.42 70.74L162.41 70.73Q162.24 67.62 163.92 66.34L163.89 66.32L163.95 66.38Q165.23 65.41 168.30 65.06L168.32 65.09L168.25 65.01Q169.90 64.93 170.77 65.22L170.86 65.31L170.87 65.32Q170.92 65.49 170.98 65.66L170.97 65.65L170.91 65.88L171.21 66.88L171.11 66.77Q171.07 67.03 171.02 67.26L171.01 67.26L171.03 67.27Q170.91 69.87 168.60 71.66L168.60 71.66L168.68 71.74Q167.29 73.13 164.23 73.42L164.13 73.31L164.20 73.38Q163.05 73.57 161.72 73.57L161.77 73.61L161.86 73.70Q161.89 74.20 162.12 75.24L162.11 75.23L162.02 75.14Q164.67 75.13 166.87 76.23L166.99 76.35L166.80 76.34L164.42 76.61L164.35 76.54Q164.44 77.09 164.61 78.02L164.62 78.03L164.66 78.06Q167.80 77.85 170.40 79.87L170.41 79.89L170.38 79.86Q170.77 80.47 171.23 82.96L171.31 83.04L171.27 83.00Q171.55 87.44 167.10 88.07L167.16 88.13L167.13 88.11Q163.93 88.49 163.06 88.43L163.09 88.46L163.11 88.48Q162.40 88.29 161.59 88.17L161.62 88.20L161.63 87.52L161.74 86.76L161.76 86.14L161.93 85.80L161.82 85.69Q160.43 85.85 159.21 86.14L159.15 86.08L159.24 86.16Q159.14 85.78 159.14 85.49L159.04 85.39L159.14 85.49Q159.28 85.28 159.28 84.93L159.11 84.77L159.17 84.82Q159.32 84.28 159.55 83.18L159.42 83.06L159.39 83.02Q156.62 83.43 153.79 83.95L153.87 84.03L153.89 84.06Q153.91 84.82 153.74 86.53L153.64 86.44L153.67 86.46Q153.55 88.22 153.55 89.15L153.47 89.07L153.43 89.02Q153.63 92.23 155.71 93.38L155.74 93.41L155.72 93.40Q157.83 96.72 164.99 96.43L165.11 96.54L165.15 96.59Q166.17 96.44 168.48 96.68Z"/><path d="M8 56 C165 137,174 26,324 26" stroke="#76dfc4" fill="none"/><path d="M13 66 C168 124,176 85,339 113" stroke="#e561c4" fill="none"/><path d="M13 87 C159 128,184 89,336 83" stroke="#68dddd" fill="none"/><path d="M20 18 C166 80,175 65,333 99" stroke="#70dfdf" fill="none"/><path d="M12 123 C158 39,169 86,324 69" stroke="#e76d44" fill="none"/><path d="M8 51 C164 9,179 56,336 45" stroke="#e5b584" fill="none"/><path d="M13 35 C185 92,179 91,333 36" stroke="#e76e8c" fill="none"/><path d="M11 1 C172 33,154 36,326 5" stroke="#aae86d" fill="none"/><path d="M19 82 C168 21,169 93,332 111" stroke="#61e5c4" fill="none"/><path d="M5 4 C185 100,160 48,335 61" stroke="#6283e3" fill="none"/><path d="M18 32 C171 67,165 9,338 19" stroke="#b9d85e" fill="none"/><path d="M2 102 C158 126,167 123,330 94" stroke="#a6e990" fill="none"/><path d="M7 9 C156 109,181 127,322 70" stroke="#e787b7" fill="none"/><path d="M13 87 C157 44,153 89,328 123" stroke="#8ae4b7" fill="none"/><path d="M9 88 C152 22,159 129,333 81" stroke="#aae66f" fill="none"/><path d="M18 67 C172 16,169 114,322 56" stroke="#e24040" fill="none"/><path d="M12 77 C186 23,153 71,332 20" stroke="#4be170" fill="none"/><path d="M8 17 C168 23,190 73,339 19" stroke="#36b7e2" fill="none"/><path fill="#e8e849" d="M279.90 67.63L279.90 67.63L279.81 67.54Q274.89 67.48 272.12 65.86L272.28 66.02L272.14 65.89Q276.01 63.86 283.41 57.45L283.45 57.49L283.52 57.56Q284.60 57.26 286.57 56.33L286.50 56.27L286.50 56.27Q284.54 65.34 284.37 74.99L284.24 74.86L284.20 74.82Q284.17 84.62 285.79 93.87L285.67 93.75L285.64 93.72Q283.18 92.70 279.94 92.53L279.98 92.56L279.87 92.46Q279.82 86.28 279.82 80.10L279.81 80.09L279.81 80.08Q279.85 73.89 279.91 67.65ZM279.22 70.94L279.25 93.10L279.28 93.13Q281.18 93.18 282.62 93.47L282.54 93.39L282.63 93.48Q282.68 94.45 282.97 96.53L282.88 96.45L283.05 96.62Q287.22 97.26 290.92 100.67L291.06 100.81L290.93 100.68Q287.32 90.03 287.27 78.70L287.16 78.59L287.22 78.65Q287.00 67.23 289.78 56.25L289.89 56.36L289.88 56.35Q288.93 56.84 286.50 58.52L286.66 58.68L286.66 58.68Q286.97 57.54 287.43 55.23L287.44 55.24L287.37 55.17Q285.35 56.33 283.16 56.91L283.10 56.86L283.03 56.78Q277.47 62.37 270.94 65.84L270.89 65.79L270.87 65.77Q273.01 67.45 276.59 67.97L276.65 68.03L276.63 68.01Q275.65 68.81 273.68 70.43L273.59 70.34L273.65 70.40Q275.84 70.91 279.19 70.91L279.18 70.90Z"/><path d="M2 102 C181 74,166 87,326 51" stroke="#bced8c" fill="none"/><path d="M20 48 C164 133,182 45,324 127" stroke="#d9714e" fill="none"/><path d="M13 36 C154 68,158 106,322 59" stroke="#d86d4a" fill="none"/><path d="M3 55 C160 102,160 117,340 3" stroke="#b74cdb" fill="none"/><path fill="#6f6fdc" d="M108.77 76.22L108.79 76.23L108.86 76.31Q105.96 76.00 104.08 78.17L104.18 78.27L104.21 78.30Q102.31 80.44 102.02 83.33L102.07 83.38L101.98 83.30Q101.67 86.45 103.32 87.92L103.24 87.84L103.20 87.81Q105.02 89.45 108.20 89.28L108.04 89.12L108.09 89.17Q111.19 88.86 112.86 87.82L112.90 87.86L112.98 87.93Q114.79 86.33 114.79 83.96L114.60 83.78L114.64 83.82Q114.75 83.34 114.63 82.77L114.55 82.69L114.62 82.76Q114.67 80.15 112.99 78.10L113.07 78.17L112.99 78.09Q111.41 76.14 108.87 76.31ZM108.25 93.21L108.06 93.01L108.09 93.04Q101.58 93.18 99.45 92.02L99.41 91.99L99.28 91.86Q97.90 90.88 97.61 88.28L97.53 88.20L97.58 88.25Q97.41 87.10 97.47 86.00L97.55 86.08L97.46 86.00Q97.61 84.47 97.61 83.78L97.71 83.87L97.71 83.87Q98.50 79.63 98.73 78.59L98.53 78.40L98.64 78.51Q99.30 75.52 100.57 73.39L100.61 73.43L100.52 73.33Q104.67 66.80 113.68 57.15L113.65 57.11L113.70 57.17Q117.68 56.63 121.03 55.42L121.02 55.41L121.02 55.41Q110.69 66.81 105.84 73.22L105.73 73.11L105.75 73.13Q107.30 72.43 109.27 72.43L109.26 72.43L109.31 72.48Q114.38 72.52 116.70 75.47L116.54 75.31L116.50 75.28Q118.54 77.77 119.06 83.15L119.16 83.26L119.10 83.19Q119.24 84.32 119.24 85.24L119.35 85.35L119.19 85.19Q119.21 89.95 115.86 91.56L115.81 91.52L115.87 91.58Q114.08 92.56 108.19 93.14ZM111.72 96.85L111.58 96.70L111.73 96.85Q113.60 96.70 116.60 96.82L116.53 96.75L116.54 96.75Q119.04 96.88 121.40 95.78L121.51 95.88L121.46 95.84Q123.05 94.54 123.05 91.82L123.03 91.81L123.10 91.87Q123.13 91.15 122.87 89.65L122.93 89.71L122.82 89.59Q122.70 88.23 122.70 87.54L122.61 87.45L122.67 87.51Q121.19 80.20 118.77 77.31L118.88 77.42L118.86 77.40Q118.74 77.23 118.51 76.88L118.43 76.80L118.08 76.57L118.00 76.55L117.95 76.50Q117.45 75.76 116.52 74.32L116.42 74.22L116.58 74.37Q115.19 72.92 112.18 72.23L112.08 72.13L112.05 72.10Q113.96 69.73 118.47 64.13L118.44 64.10L124.86 56.07L124.91 56.12Q122.40 57.31 118.76 58.47L118.94 58.65L118.80 58.50Q120.30 57.12 123.02 54.12L123.04 54.14L122.93 54.02Q119.39 55.74 113.49 56.61L113.43 56.54L113.37 56.48Q104.84 65.59 100.34 73.10L100.25 73.01L100.20 72.96Q97.95 76.83 97.08 86.31L97.04 86.27L96.99 86.22Q96.90 87.11 97.01 88.55L97.01 88.55L97.16 88.70Q97.16 91.25 98.84 92.63L98.85 92.65L98.95 92.74Q99.37 92.82 99.31 92.88L99.40 92.96L99.35 92.91Q100.04 94.41 101.25 95.04L101.14 94.94L101.10 94.89Q103.34 95.98 106.29 96.27L106.22 96.20L106.22 96.20Q106.29 96.27 111.61 96.73ZM111.32 79.75L111.37 79.79L111.38 79.80Q112.22 79.60 113.66 80.35L113.67 80.36L113.65 80.34Q114.02 81.64 114.02 82.62L114.21 82.81L114.04 82.64Q114.43 85.57 112.99 87.08L112.93 87.02L113.02 87.11Q111.27 88.07 108.09 88.53L108.25 88.69L108.19 88.63Q105.93 88.57 105.12 88.17L105.20 88.24L105.21 88.26Q104.82 87.46 104.82 87.00L104.88 87.06L104.92 87.10Q104.50 82.06 108.95 80.09L108.91 80.05L108.92 80.06Q110.10 79.57 111.26 79.68Z"/><path d="M9 115 C158 114,153 95,340 3" stroke="#ddb84a" fill="none"/><path d="M11 103 C162 136,181 27,326 69" stroke="#7ceded" fill="none"/><path d="M15 47 C181 133,190 42,341 135" stroke="#90e9bc" fill="none"/><path d="M9 21 C151 66,187 111,326 135" stroke="#e5e551" fill="none"/><path d="M17 5 C151 82,155 30,325 69" stroke="#e38ce3" fill="none"/><path d="M5 55 C173 108,169 11,329 88" stroke="#7575e5" fill="none"/><path d="M5 62 C188 61,190 80,331 16" stroke="#e76236" fill="none"/><path d="M20 61 C156 37,168 25,338 49" stroke="#b83ae2" fill="none"/></svg>