<svg xmlns="http://www.w3.org/2000/svg" width="342" height="140" viewBox="0,0,342,140"><path d="M7 76 C177 108,153 130,334 37" stroke="#b548d9" fill="none"/><path d="M5 97 C176 103,154 36,337 135" stroke="#9f87e8" fill="none"/><path d="M2 46 C164 11,191 125,324 114" stroke="#59e7a0" fill="none"/><path d="M2 108 C175 16,184 117,336 138" stroke="#dab647" fill="none"/><path d="M13 54 C159 139,171 119,335 101" stroke="#d6b75b" fill="none"/><path d="M13 105 C180 129,164 110,340 24" stroke="#81de62" fill="none"/><path fill="#87ecec" d="M45.46 83.10L45.39 83.02L45.38 83.01Q50.58 82.52 55.84 82.71L55.84 82.72L55.76 82.64Q55.64 78.38 55.64 74.44L55.62 74.43L55.69 74.50Q55.61 70.35 55.92 66.16L55.96 66.20L56.01 66.25Q54.04 69.09 45.47 83.10ZM61.70 95.14L61.76 95.20L61.68 95.12Q58.85 94.54 55.91 94.42L55.98 94.48L55.94 94.45Q55.62 90.56 55.43 86.49L55.48 86.54L55.56 86.63Q46.81 86.32 39.06 88.63L38.90 88.48L38.95 88.52Q39.17 87.75 39.48 86.12L39.42 86.06L39.50 86.14Q42.36 80.87 48.24 70.55L48.42 70.72L48.23 70.54Q53.02 62.57 58.64 56.19L58.60 56.14L58.76 56.30Q60.14 55.93 62.89 55.49L62.98 55.59L62.89 55.49Q59.68 65.98 59.68 77.55L59.85 77.71L59.78 77.64Q59.68 79.99 59.80 82.42L59.94 82.56L62.03 82.71L61.94 82.62Q63.07 82.82 64.08 83.01L64.03 82.96L63.97 82.90Q64.15 84.52 64.59 87.71L64.67 87.79L64.57 87.69Q62.70 87.38 60.26 87.07L60.28 87.09L60.18 87.00Q60.59 90.34 61.71 95.15ZM64.42 82.29L64.40 82.26L64.44 82.30Q64.24 82.29 63.93 82.29L63.75 82.12L63.23 82.23L63.14 82.13Q63.04 79.79 63.04 77.47L62.92 77.35L63.10 77.53Q63.01 66.93 66.39 57.05L66.33 57.00L66.43 57.09Q65.11 57.46 62.73 58.09L62.80 58.16L62.85 58.21Q63.14 56.87 63.89 54.55L63.80 54.46L63.94 54.60Q61.81 55.22 58.43 55.60L58.41 55.58L58.33 55.50Q52.01 62.75 43.44 78.14L43.32 78.02L46.86 72.11L46.79 72.04Q46.03 73.65 45.59 74.59L45.76 74.76L38.46 89.60L38.47 89.61Q39.47 89.29 41.34 88.67L41.23 88.55L41.14 89.09L41.08 89.03Q40.85 90.11 40.35 92.18L40.30 92.13L40.33 92.15Q47.18 90.06 55.12 90.37L55.03 90.28L55.01 90.26Q55.12 91.88 55.43 95.13L55.50 95.20L55.43 95.13Q57.19 95.13 58.94 95.32L58.94 95.32L58.94 95.32Q59.18 96.44 59.62 98.69L59.65 98.72L59.64 98.71Q62.74 99.06 67.68 100.56L67.76 100.64L67.71 100.58Q66.03 97.03 64.53 91.65L64.64 91.76L66.95 92.44L66.92 92.42Q68.01 92.75 69.13 93.32L69.23 93.41L69.28 93.46Q67.87 89.24 67.62 86.49L67.73 86.60L67.69 86.56Q66.70 86.25 64.82 85.88L64.93 85.98L64.90 85.96Q64.37 83.68 64.37 82.24ZM51.38 82.13L51.25 82.00L51.38 82.13Q52.50 79.87 55.06 75.68L55.21 75.83L55.06 75.68Q55.23 77.42 55.17 78.98L55.08 78.89L55.14 78.95Q55.01 80.45 55.07 82.01L55.12 82.06L55.21 82.15Q54.11 81.93 53.18 81.93L53.27 82.02L53.19 81.94Q52.24 81.99 51.24 81.99Z"/><path d="M8 64 C159 76,181 128,327 26" stroke="#6fc0dc" fill="none"/><path d="M12 20 C178 102,169 60,330 38" stroke="#e3a86d" fill="none"/><path d="M17 63 C168 102,173 54,327 98" stroke="#b9dc50" fill="none"/><path d="M6 120 C163 100,187 6,330 51" stroke="#7feaea" fill="none"/><path d="M1 128 C152 100,176 77,326 119" stroke="#b2ef75" fill="none"/><path d="M12 60 C174 40,179 67,327 135" stroke="#d5488e" fill="none"/><path d="M19 8 C186 86,161 74,336 86" stroke="#7272de" fill="none"/><path d="M11 10 C180 69,153 32,325 106" stroke="#e67490" fill="none"/><path d="M5 66 C190 102,174 83,327 60" stroke="#bfdd63" fill="none"/><path d="M19 113 C155 34,170 52,329 76" stroke="#e5a893" fill="none"/><path d="M15 18 C158 116,158 109,336 43" stroke="#6fe68c" fill="none"/><path d="M14 10 C168 87,160 97,326 107" stroke="#6641d6" fill="none"/><path d="M3 124 C153 136,177 125,325 79" stroke="#8163dd" fill="none"/><path d="M9 105 C182 57,182 102,332 12" stroke="#e46b6b" fill="none"/><path d="M13 89 C150 119,158 25,334 16" stroke="#d5b452" fill="none"/><path d="M14 15 C185 71,170 117,322 70" stroke="#bf8fef" fill="none"/><path fill="#e8e872" d="M228.18 73.58L228.22 73.61L228.18 73.58Q229.42 73.50 231.73 73.25L231.80 73.32L231.81 73.33Q231.64 74.28 231.64 75.34L231.77 75.48L231.67 77.45L231.72 77.49Q230.31 77.46 228.93 77.58L228.96 77.61L228.92 77.57Q227.68 77.77 226.31 77.71L226.25 77.65L226.23 77.63Q221.53 87.76 215.90 95.32L215.93 95.35L216.00 95.42Q211.78 96.39 209.65 97.39L209.69 97.43L209.64 97.38Q216.50 88.10 221.50 77.78L221.46 77.74L217.01 77.61L217.03 77.62Q217.17 75.58 216.98 73.39L216.82 73.23L216.84 73.24Q220.04 73.57 223.41 73.57L223.32 73.47L226.51 67.46L226.52 67.47Q228.22 64.42 230.22 61.79L230.10 61.67L230.13 61.71Q227.58 61.97 224.95 61.97L224.93 61.95L225.00 62.02Q215.01 62.04 208.82 58.41L208.76 58.35L207.70 55.53L207.77 55.61Q207.18 54.20 206.55 52.76L206.59 52.80L206.60 52.81Q213.61 57.01 222.99 57.38L223.00 57.39L222.96 57.35Q231.53 57.85 239.97 54.60L239.87 54.50L240.02 54.65Q239.63 55.26 238.82 56.70L238.78 56.66L238.82 56.69Q232.95 64.59 228.26 73.66ZM241.33 58.83L241.38 58.88L243.04 55.61L243.01 55.57Q241.40 56.34 238.65 57.53L238.73 57.61L238.97 57.03L239.07 57.13Q239.23 56.86 239.42 56.67L239.34 56.59L239.36 56.61Q240.00 55.51 241.19 53.32L241.17 53.30L241.33 53.46Q232.41 57.04 222.96 56.66L222.99 56.69L223.06 56.76Q213.14 56.28 205.32 51.41L205.28 51.36L205.27 51.35Q207.09 54.55 208.47 58.93L208.49 58.96L208.46 58.93Q210.19 59.90 211.50 60.40L211.60 60.50L211.57 60.47Q211.87 61.08 212.62 64.15L212.54 64.06L212.49 64.02Q217.63 66.03 226.70 65.78L226.76 65.84L226.71 65.79Q226.23 66.75 222.98 72.94L223.06 73.03L223.12 73.09Q219.73 73.07 216.48 72.76L216.49 72.77L216.33 72.61Q216.59 74.12 216.59 75.56L216.58 75.55L216.50 78.29L219.28 78.31L219.20 80.55L219.30 80.64Q212.80 92.72 208.23 98.60L208.38 98.74L208.22 98.58Q210.95 97.44 213.64 96.63L213.60 96.58L213.66 96.64Q212.50 98.12 210.25 100.93L210.19 100.87L210.20 100.88Q215.37 99.04 219.37 98.67L219.48 98.78L219.43 98.72Q224.18 92.47 229.31 81.34L229.42 81.45L234.98 81.69L235.08 81.79Q234.78 80.11 234.78 78.61L234.90 78.73L234.87 75.76L234.94 75.84Q234.52 75.85 233.61 75.91L233.58 75.88L233.50 75.81Q232.65 75.92 232.21 75.92L232.11 75.82L232.10 75.81Q232.11 75.63 232.17 75.38L232.32 75.52L232.20 74.97L232.29 75.06Q236.45 66.65 241.51 59.02Z"/><path d="M6 68 C184 85,172 97,332 117" stroke="#e0c574" fill="none"/><path d="M14 88 C192 129,182 36,339 78" stroke="#67e4e4" fill="none"/><path d="M14 56 C183 87,177 82,329 132" stroke="#7eb7f0" fill="none"/><path d="M6 33 C182 50,159 119,337 63" stroke="#de4e72" fill="none"/><path d="M12 16 C165 135,172 109,324 13" stroke="#52d5d5" fill="none"/><path d="M12 44 C181 102,157 102,326 108" stroke="#e890d2" fill="none"/><path d="M2 14 C171 2,178 2,341 139" stroke="#b5e188" fill="none"/><path d="M21 27 C167 137,187 108,338 2" stroke="#c04ae7" fill="none"/><path d="M5 135 C182 26,179 35,324 119" stroke="#7e5ce4" fill="none"/><path d="M13 7 C157 57,174 14,334 5" stroke="#5ba3ea" fill="none"/><path d="M1 98 C182 21,152 136,329 98" stroke="#8484e5" fill="none"/><path d="M5 15 C182 106,154 17,334 108" stroke="#e2bc4a" fill="none"/><path d="M9 49 C156 36,188 77,333 123" stroke="#4c91d6" fill="none"/><path d="M12 50 C190 44,178 70,341 57" stroke="#9e83f0" fill="none"/><path d="M5 68 C187 10,174 3,331 36" stroke="#cfee71" fill="none"/><path d="M15 92 C156 30,163 38,337 9" stroke="#dbdb61" fill="none"/><path fill="#e155be" d="M108.45 76.79L108.35 76.68L108.48 76.81Q105.45 76.60 103.42 78.94L103.44 78.97L103.38 78.91Q101.32 81.22 101.00 84.34L101.03 84.37L101.04 84.38Q100.66 87.75 102.44 89.35L102.53 89.44L102.51 89.41Q104.16 90.88 107.60 90.69L107.61 90.70L107.59 90.68Q111.07 90.47 112.89 89.35L112.99 89.46L112.87 89.33Q114.76 87.53 114.76 84.97L114.80 85.01L114.88 85.08Q114.72 84.30 114.59 83.67L114.65 83.73L114.74 83.82Q114.90 81.10 113.08 78.88L113.03 78.83L113.00 78.80Q111.18 76.57 108.43 76.76ZM107.70 94.98L107.65 94.93L107.67 94.95Q100.57 95.04 98.25 93.79L98.29 93.83L98.30 93.84Q96.57 92.54 96.25 89.73L96.22 89.70L96.27 89.75Q96.09 88.49 96.15 87.31L96.14 87.30L96.16 87.31Q96.33 85.68 96.33 84.93L96.48 85.08L96.51 85.10Q97.21 80.37 97.46 79.24L97.41 79.19L97.47 79.25Q98.16 75.99 99.53 73.68L99.60 73.74L99.59 73.74Q103.85 66.43 113.61 55.98L113.62 56.00L113.76 56.13Q117.98 55.48 121.61 54.17L121.64 54.20L121.64 54.19Q110.34 66.41 105.08 73.35L105.14 73.41L105.22 73.49Q106.83 72.66 108.96 72.66L108.85 72.55L108.95 72.65Q114.45 72.71 116.95 75.90L116.96 75.91L116.86 75.81Q119.05 78.50 119.61 84.31L119.61 84.31L119.69 84.40Q119.68 85.44 119.68 86.45L119.68 86.45L119.83 86.59Q119.76 91.66 116.13 93.41L116.03 93.30L116.18 93.45Q114.16 94.43 107.78 95.06ZM111.43 98.89L111.51 98.97L111.53 99.00Q113.54 98.82 116.79 98.94L116.80 98.95L116.77 98.92Q119.48 99.06 122.04 97.88L122.16 98.00L122.19 98.03Q123.89 96.60 123.89 93.66L123.91 93.68L123.86 93.63Q123.96 92.91 123.68 91.29L123.59 91.20L123.58 91.19Q123.45 89.72 123.45 88.97L123.40 88.92L123.47 88.98Q121.96 81.16 119.34 78.04L119.40 78.10L119.33 78.03Q119.11 77.75 118.86 77.37L119.01 77.52L118.47 77.10L118.35 77.05L118.40 77.10Q117.74 76.19 116.74 74.63L116.68 74.56L116.73 74.61Q115.30 73.13 112.05 72.38L111.94 72.26L111.97 72.29Q113.93 69.63 118.81 63.56L118.81 63.56L125.73 54.85L125.88 55.00Q123.16 56.27 119.22 57.53L119.36 57.67L119.27 57.59Q120.74 55.92 123.68 52.67L123.74 52.74L123.76 52.76Q119.85 54.54 113.47 55.47L113.47 55.47L113.41 55.41Q104.09 65.17 99.22 73.30L99.26 73.35L99.22 73.31Q96.76 77.47 95.82 87.73L95.69 87.60L95.79 87.70Q95.55 88.52 95.67 90.08L95.77 90.18L95.80 90.21Q95.95 93.11 97.76 94.61L97.75 94.60L97.73 94.58Q98.33 94.81 98.27 94.87L98.15 94.75L98.28 94.88Q98.81 96.29 100.13 96.98L100.22 97.07L100.16 97.01Q102.49 98.09 105.68 98.41L105.79 98.51L105.67 98.39Q105.78 98.51 111.54 99.01ZM111.15 80.54L111.10 80.49L111.20 80.59Q112.08 80.35 113.65 81.16L113.64 81.15L113.59 81.10Q114.14 82.66 114.14 83.72L114.09 83.68L114.18 83.76Q114.46 86.80 112.90 88.42L112.95 88.47L113.02 88.54Q111.24 89.70 107.80 90.20L107.82 90.22L107.77 90.17Q105.34 90.12 104.46 89.68L104.43 89.65L104.57 89.78Q104.09 88.87 104.09 88.37L104.10 88.38L104.08 88.36Q103.75 83.03 108.57 80.90L108.64 80.97L108.67 81.01Q109.88 80.40 111.13 80.52Z"/><path fill="#e8b582" d="M165.02 76.68L165.01 76.68L165.04 76.71Q162.11 76.59 160.08 78.94L159.98 78.83L159.98 78.83Q157.96 81.19 157.64 84.32L157.74 84.41L157.77 84.45Q157.30 87.73 159.08 89.32L159.11 89.35L159.10 89.34Q160.86 90.91 164.30 90.72L164.27 90.70L164.28 90.70Q167.80 90.53 169.61 89.41L169.52 89.31L169.58 89.37Q171.42 87.52 171.42 84.96L171.41 84.95L171.46 85.00Q171.43 84.35 171.31 83.72L171.37 83.78L171.34 83.75Q171.42 80.96 169.61 78.74L169.57 78.71L169.60 78.73Q167.78 76.50 165.02 76.69ZM164.45 95.07L164.40 95.01L164.35 94.96Q157.12 94.93 154.80 93.68L154.94 93.81L154.88 93.75Q153.20 92.51 152.89 89.69L152.81 89.61L152.92 89.72Q152.85 88.59 152.91 87.40L152.88 87.38L152.91 87.40Q153.00 85.68 153.00 84.93L153.04 84.96L153.16 85.09Q153.85 80.33 154.10 79.21L154.16 79.27L154.17 79.28Q154.87 76.04 156.25 73.73L156.11 73.59L156.18 73.66Q160.61 66.52 170.37 56.07L170.41 56.12L170.33 56.04Q174.67 55.50 178.30 54.19L178.28 54.17L178.38 54.27Q167.14 66.55 161.89 73.49L161.74 73.34L161.76 73.36Q163.49 72.66 165.62 72.66L165.67 72.70L165.59 72.63Q171.09 72.68 173.59 75.87L173.62 75.90L173.63 75.92Q175.67 78.46 176.24 84.27L176.34 84.38L176.27 84.31Q176.39 85.49 176.39 86.50L176.41 86.51L176.47 86.57Q176.37 91.60 172.74 93.35L172.79 93.40L172.72 93.33Q170.87 94.48 164.49 95.10ZM168.07 98.87L168.17 98.97L168.06 98.86Q170.30 98.91 173.55 99.04L173.62 99.10L173.56 99.05Q176.20 99.12 178.76 97.93L178.70 97.87L178.80 97.97Q180.67 96.72 180.67 93.78L180.61 93.72L180.62 93.72Q180.54 92.83 180.26 91.21L180.25 91.20L180.38 91.32Q180.01 89.61 180.01 88.86L179.94 88.79L180.02 88.86Q178.54 81.07 175.91 77.94L175.93 77.97L176.04 78.08Q175.78 77.75 175.53 77.37L175.67 77.51L175.14 77.11L174.96 76.99L174.98 77.01Q174.46 76.24 173.46 74.68L173.40 74.62L173.44 74.66Q171.89 73.05 168.64 72.30L168.68 72.34L168.71 72.37Q170.56 69.59 175.44 63.53L175.52 63.61L182.43 54.88L182.56 55.01Q179.89 56.34 175.95 57.59L176.06 57.70L176.07 57.71Q177.44 55.96 180.38 52.70L180.48 52.80L180.34 52.66Q176.42 54.44 170.04 55.38L170.06 55.39L170.05 55.39Q160.75 65.16 155.87 73.29L155.85 73.26L155.87 73.29Q153.34 77.38 152.40 87.64L152.33 87.57L152.31 87.55Q152.32 88.63 152.45 90.19L152.45 90.20L152.45 90.19Q152.53 93.03 154.35 94.53L154.33 94.51L154.29 94.47Q154.91 94.72 154.85 94.78L154.80 94.73L154.94 94.88Q155.47 96.28 156.79 96.97L156.84 97.02L156.76 96.94Q159.27 98.21 162.46 98.52L162.34 98.40L162.35 98.40Q162.48 98.54 168.24 99.04ZM167.81 80.54L167.85 80.57L167.81 80.54Q168.73 80.33 170.30 81.15L170.30 81.15L170.29 81.15Q170.77 82.62 170.77 83.68L170.80 83.71L170.88 83.79Q171.09 86.76 169.53 88.38L169.54 88.40L169.59 88.45Q167.86 89.65 164.42 90.15L164.36 90.10L164.30 90.04Q161.94 90.05 161.07 89.62L161.18 89.73L161.06 89.61Q160.80 88.91 160.80 88.41L160.78 88.39L160.78 88.40Q160.36 82.97 165.18 80.85L165.26 80.93L165.29 80.96Q166.60 80.45 167.85 80.58Z"/><path d="M20 45 C169 110,187 1,332 93" stroke="#ee85d4" fill="none"/><path d="M15 87 C167 18,167 66,326 122" stroke="#aa74e1" fill="none"/><path fill="#78ecec" d="M291.50 91.15L291.52 91.16L291.47 91.12Q292.12 92.89 293.00 96.21L292.95 96.16L292.88 96.09Q286.06 94.02 278.49 94.46L278.36 94.33L278.47 94.43Q270.84 94.76 264.28 98.01L264.34 98.07L264.44 98.17Q264.82 97.04 264.88 97.17L264.83 97.12L264.73 97.03Q271.01 90.67 277.45 83.41L277.26 83.22L277.35 83.31Q284.64 75.15 286.58 67.46L286.60 67.48L286.62 67.51Q287.24 64.50 285.15 62.56L285.27 62.69L285.19 62.60Q283.06 60.63 280.12 60.88L280.13 60.89L280.17 60.93Q279.56 60.82 279.00 60.82L279.01 60.83L279.08 60.90Q276.46 60.78 274.40 62.28L274.46 62.35L274.51 62.39Q272.45 64.71 272.83 69.09L272.76 69.03L272.81 69.08Q269.81 68.45 267.80 67.70L267.74 67.63L267.87 67.77Q267.51 65.41 267.39 63.03L267.45 63.10L267.31 62.95Q267.21 60.29 268.21 58.41L268.27 58.47L268.31 58.51Q271.26 56.27 276.76 56.27L276.70 56.20L279.54 56.17L279.61 56.24Q283.25 56.19 284.81 56.38L284.96 56.52L284.80 56.36Q291.96 57.09 292.40 61.09L292.43 61.11L292.44 61.13Q292.48 61.98 292.35 63.29L292.44 63.38L292.39 63.33Q292.37 64.43 292.12 65.56L292.05 65.49L292.13 65.57Q289.41 78.86 276.97 90.12L277.02 90.17L277.07 90.22Q279.27 89.86 281.52 89.86L281.49 89.83L281.55 89.89Q286.83 89.86 291.52 91.17ZM290.72 57.09L290.61 56.98L290.65 57.02Q288.07 56.01 285.26 55.88L285.26 55.89L279.54 55.48L279.57 55.51Q272.28 55.10 268.65 56.91L268.70 56.96L268.52 56.78Q266.87 59.13 266.87 62.51L266.86 62.50L266.79 62.43Q266.94 63.70 267.44 68.33L267.49 68.39L267.44 68.34Q268.37 68.77 270.31 69.27L270.21 69.17L270.23 70.88L270.15 70.80Q270.23 71.69 270.36 72.57L270.23 72.44L270.24 72.45Q272.31 72.64 276.37 73.02L276.47 73.11L276.41 73.05Q276.35 72.43 276.35 71.86L276.43 71.95L276.27 71.79Q276.30 68.81 278.30 66.59L278.37 66.66L278.37 66.67Q280.31 64.38 283.25 64.57L283.31 64.63L283.39 64.71Q284.46 64.59 285.71 64.84L285.85 64.98L285.83 64.96Q286.03 65.60 286.16 66.29L286.18 66.31L286.07 66.20Q286.09 66.84 285.96 67.41L286.14 67.58L286.13 67.58Q284.00 75.33 276.75 83.27L276.71 83.24L276.72 83.24Q273.16 86.88 264.22 96.82L264.38 96.98L264.32 96.92Q264.02 98.32 263.46 99.25L263.51 99.30L263.36 99.16Q266.01 97.73 268.51 96.86L268.49 96.84L268.61 96.96Q267.34 97.82 265.78 100.26L265.86 100.35L265.82 100.30Q265.66 100.89 265.47 101.45L265.45 101.43L265.51 101.49Q273.36 97.96 282.36 98.27L282.47 98.38L282.34 98.25Q291.76 98.59 299.26 102.47L299.23 102.44L297.60 98.94L297.55 98.88Q296.64 96.85 296.20 95.53L296.04 95.37L296.04 95.38Q295.02 94.85 293.02 94.16L292.91 94.05L292.90 94.05Q292.74 92.95 292.12 90.70L292.03 90.61L292.16 90.74Q288.46 89.73 284.70 89.41L284.70 89.41L284.60 89.31Q292.43 81.94 294.93 68.37L294.92 68.36L295.12 63.49L295.26 63.64Q295.15 60.71 293.15 59.59L293.02 59.45L293.05 59.54L292.91 59.41Q292.96 59.39 292.83 59.39L292.90 59.46L292.85 59.41Q292.50 58.06 290.69 57.06Z"/></svg>