<svg xmlns="http://www.w3.org/2000/svg" width="342" height="140" viewBox="0,0,342,140"><path d="M11 12 C158 22,171 106,339 51" stroke="#6262e8" fill="none"/><path d="M19 37 C179 111,152 16,323 6" stroke="#a56edd" fill="none"/><path d="M2 93 C181 11,160 78,332 102" stroke="#6eccec" fill="none"/><path d="M4 54 C154 98,186 82,338 3" stroke="#b276ee" fill="none"/><path d="M13 70 C163 117,156 109,340 35" stroke="#e051bc" fill="none"/><path d="M17 4 C181 113,154 10,329 78" stroke="#e88ce8" fill="none"/><path d="M12 134 C174 29,192 82,333 108" stroke="#6280d9" fill="none"/><path d="M10 63 C151 35,158 67,325 30" stroke="#e778e7" fill="none"/><path d="M17 7 C159 45,179 117,339 125" stroke="#ba89eb" fill="none"/><path d="M5 136 C188 129,190 51,325 31" stroke="#a38ce7" fill="none"/><path d="M20 128 C167 130,169 22,338 87" stroke="#66db66" fill="none"/><path d="M11 47 C179 135,166 7,333 17" stroke="#64e6a5" fill="none"/><path fill="#8cde71" d="M221.23 77.62L221.26 77.65L221.22 77.61Q217.98 77.80 215.74 80.25L215.63 80.14L215.59 80.11Q213.44 82.65 213.16 86.15L213.06 86.05L213.16 86.14Q212.77 90.03 215.01 91.88L214.99 91.86L215.07 91.95Q217.24 93.73 221.16 93.59L221.18 93.60L221.20 93.62Q225.45 93.32 227.20 91.57L227.23 91.61L227.19 91.56Q229.13 88.95 228.92 85.59L228.77 85.45L228.86 85.53Q228.61 82.07 226.62 79.86L226.75 79.99L226.64 79.88Q224.77 77.80 221.41 77.80ZM221.17 60.27L221.34 60.44L221.32 60.42Q218.55 60.03 216.10 60.94L216.15 60.99L216.27 61.11Q213.77 62.46 214.19 65.89L214.19 65.89L214.23 65.93Q215.06 72.71 221.22 72.71L221.37 72.87L221.41 72.90Q224.12 73.09 225.94 70.99L226.04 71.09L226.09 71.14Q227.84 68.96 227.91 66.09L227.92 66.11L227.92 66.11Q228.08 62.90 226.75 61.78L226.80 61.83L226.75 61.79Q223.72 60.30 221.34 60.44ZM220.84 98.23L220.70 98.10L215.24 98.24L215.09 98.08Q212.33 98.13 209.88 96.52L209.90 96.54L209.82 96.46Q207.43 94.49 207.71 89.24L207.68 89.21L207.70 89.23Q208.54 76.63 215.19 74.81L215.07 74.68L215.15 74.77Q210.97 73.10 208.52 63.23L208.50 63.21L208.43 63.15Q207.89 60.64 208.03 59.17L207.91 59.06L207.97 59.11Q208.60 55.26 215.39 55.19L215.35 55.14L215.31 55.11Q223.09 54.97 225.75 55.32L225.75 55.33L225.79 55.36Q232.93 56.41 233.77 60.12L233.80 60.15L233.69 60.05Q233.86 61.12 233.86 61.82L233.98 61.95L233.90 61.86Q233.91 63.13 233.56 64.25L233.48 64.18L233.66 64.36Q232.41 71.99 227.01 74.79L227.12 74.90L227.12 74.90Q233.45 76.26 234.36 85.99L234.36 85.99L234.35 85.98Q234.31 86.22 234.38 88.60L234.57 88.79L234.55 88.77Q234.55 93.67 231.61 95.63L231.61 95.64L231.76 95.78Q229.22 97.37 220.82 98.21ZM225.03 102.50L224.86 102.32L231.12 102.57L231.19 102.63Q234.36 102.80 237.16 101.47L237.11 101.42L237.08 101.39Q239.15 100.02 239.29 96.59L239.38 96.69L239.33 96.63Q239.44 94.64 238.74 91.07L238.77 91.10L238.72 91.05Q237.01 82.48 233.16 79.05L233.15 79.03L232.79 78.33L232.52 77.92L232.13 77.32L232.21 77.40Q235.17 74.82 236.85 67.19L236.88 67.23L236.78 67.13Q236.79 66.43 236.93 64.89L236.99 64.96L236.96 64.93Q237.11 63.67 236.97 62.55L236.95 62.53L236.95 62.54Q236.64 59.84 234.47 58.93L234.61 59.08L234.67 59.06L234.24 58.77L234.26 58.80Q233.79 57.48 231.62 56.01L231.69 56.08L231.71 56.03L231.71 56.03Q228.09 54.79 220.60 54.44L220.51 54.36L220.55 54.40Q217.73 54.23 215.20 54.44L215.12 54.36L215.14 54.38Q213.64 54.42 211.26 54.70L211.37 54.81L211.28 54.72Q207.77 55.48 207.35 58.49L207.31 58.45L207.23 58.37Q207.31 59.43 207.38 60.90L207.27 60.79L207.30 60.83Q207.46 61.75 208.51 66.10L208.47 66.06L208.59 66.17Q209.98 72.05 213.20 74.50L213.21 74.50L213.44 74.73L213.36 74.65Q208.19 76.97 207.21 86.50L207.33 86.61L207.34 86.63Q206.91 90.61 206.91 92.29L206.94 92.32L206.98 92.36Q207.09 95.62 209.26 97.30L209.22 97.26L209.25 97.29Q209.44 97.41 209.93 97.76L209.98 97.82L209.97 97.80Q211.81 101.96 224.91 102.38ZM224.37 82.10L224.41 82.13L224.39 82.12Q226.04 81.94 227.65 82.78L227.62 82.75L227.64 82.77Q228.29 84.54 228.22 85.52L228.31 85.61L228.21 85.51Q228.29 86.08 228.29 86.64L228.32 86.67L228.33 86.68Q228.35 91.05 224.15 92.59L224.04 92.47L224.01 92.45Q222.56 93.03 221.09 92.82L221.09 92.81L221.13 92.86Q219.09 93.05 216.99 92.21L216.99 92.21L216.97 92.20Q216.59 91.12 216.73 89.30L216.75 89.32L216.70 89.26Q216.90 86.25 219.11 84.01L219.13 84.03L219.17 84.07Q221.42 81.87 224.36 82.08ZM224.83 64.70L224.68 64.55L224.83 64.70Q226.26 64.44 227.24 64.72L227.10 64.59L227.19 66.15L227.11 66.07Q227.25 68.80 225.57 70.65L225.45 70.54L225.51 70.60Q223.79 72.41 221.27 72.06L221.23 72.02L221.29 72.08Q219.42 72.03 218.65 71.61L218.68 71.64L218.74 71.70Q218.70 71.24 218.49 69.98L218.46 69.95L218.38 69.87Q217.98 67.37 220.22 65.83L220.17 65.78L220.19 65.80Q222.07 64.46 224.67 64.53Z"/><path d="M8 115 C186 9,153 35,329 134" stroke="#be5ede" fill="none"/><path d="M14 26 C170 88,171 56,339 41" stroke="#e6af79" fill="none"/><path d="M13 105 C184 65,185 121,327 18" stroke="#e8718f" fill="none"/><path d="M15 75 C185 121,173 22,331 82" stroke="#89efef" fill="none"/><path d="M9 98 C153 16,164 18,322 37" stroke="#75df90" fill="none"/><path d="M5 137 C169 59,166 128,326 26" stroke="#e9be3e" fill="none"/><path fill="#89e5ce" d="M285.11 74.09L284.93 73.91L284.95 73.93Q286.45 73.96 289.04 73.68L289.09 73.73L289.00 73.64Q289.03 74.93 289.03 76.12L288.98 76.07L289.06 78.46L288.97 78.36Q287.52 78.46 285.98 78.60L285.94 78.56L285.90 78.52Q284.47 78.70 282.93 78.63L282.86 78.56L282.92 78.62Q277.68 89.97 271.38 98.45L271.25 98.31L271.37 98.44Q266.59 99.47 264.21 100.59L264.37 100.75L264.29 100.67Q271.94 90.25 277.54 78.70L277.55 78.71L272.71 78.70L272.70 78.69Q272.56 76.10 272.35 73.65L272.49 73.79L272.35 73.65Q275.94 74.02 279.73 74.02L279.62 73.92L283.27 67.27L283.10 67.11Q285.01 63.69 287.25 60.75L287.30 60.80L287.27 60.78Q284.44 61.10 281.50 61.10L281.38 60.98L281.46 61.06Q270.32 61.12 263.39 57.06L263.24 56.90L262.06 53.76L262.04 53.75Q261.39 52.19 260.69 50.58L260.85 50.74L260.88 50.77Q268.75 55.48 279.25 55.90L279.28 55.93L279.21 55.87Q288.67 56.30 298.13 52.65L298.08 52.61L298.10 52.63Q297.80 53.45 296.89 55.06L296.94 55.11L296.93 55.10Q290.35 63.92 285.10 74.08ZM299.86 57.60L299.88 57.63L301.69 53.91L301.60 53.81Q300.00 54.88 296.92 56.21L296.92 56.21L297.17 55.55L297.24 55.61Q297.34 55.22 297.55 55.01L297.70 55.17L297.54 55.01Q298.38 53.88 299.71 51.43L299.55 51.27L299.57 51.30Q289.89 55.62 279.32 55.20L279.19 55.08L279.18 55.06Q268.20 54.66 259.45 49.20L259.36 49.11L259.53 49.28Q261.27 52.56 262.81 57.46L262.86 57.51L262.96 57.61Q264.95 58.76 266.42 59.32L266.39 59.29L266.32 59.22Q266.70 59.95 267.54 63.38L267.47 63.31L267.48 63.31Q273.36 65.70 283.52 65.42L283.46 65.36L283.56 65.46Q282.97 66.48 279.32 73.41L279.20 73.29L279.34 73.43Q275.50 73.37 271.86 73.02L271.76 72.92L271.81 72.97Q272.01 74.57 272.01 76.18L272.08 76.25L271.99 79.31L275.12 79.36L274.97 81.81L275.11 81.94Q267.84 95.47 262.73 102.06L262.85 102.17L262.68 102.00Q265.75 100.73 268.76 99.82L268.76 99.82L268.78 99.84Q267.40 101.40 264.88 104.55L265.00 104.67L264.82 104.50Q270.71 102.54 275.19 102.12L275.24 102.16L275.27 102.20Q280.55 95.15 286.29 82.69L286.34 82.74L292.70 83.14L292.74 83.19Q292.43 81.34 292.43 79.66L292.44 79.66L292.53 76.46L292.57 76.51Q291.93 76.36 290.92 76.43L291.08 76.59L291.01 76.52Q290.03 76.63 289.54 76.63L289.49 76.58L289.42 76.51Q289.55 76.43 289.62 76.14L289.53 76.05L289.60 75.64L289.52 75.56Q294.11 66.07 299.78 57.53Z"/><path d="M19 109 C151 84,153 111,331 30" stroke="#d4b043" fill="none"/><path d="M9 49 C172 131,174 12,339 121" stroke="#49e349" fill="none"/><path d="M19 136 C183 27,177 67,338 21" stroke="#9a83e1" fill="none"/><path d="M11 87 C171 37,186 46,331 31" stroke="#cf8ee5" fill="none"/><path d="M19 54 C159 5,175 107,329 110" stroke="#e3a18c" fill="none"/><path d="M9 50 C179 65,189 54,326 50" stroke="#9ae282" fill="none"/><path d="M10 41 C178 72,180 13,333 107" stroke="#edad6c" fill="none"/><path d="M9 93 C159 20,186 132,322 107" stroke="#41dc68" fill="none"/><path d="M14 90 C179 108,164 113,322 51" stroke="#8be8e8" fill="none"/><path fill="#be54e2" d="M44.13 84.67L44.15 84.68L44.03 84.57Q49.83 83.99 55.71 84.20L55.59 84.08L55.61 84.10Q55.58 79.45 55.58 75.04L55.60 75.06L55.60 75.06Q55.61 70.52 55.96 65.83L55.93 65.80L55.88 65.75Q53.60 68.86 44.01 84.54ZM62.39 98.23L62.21 98.06L62.29 98.13Q59.29 97.66 56.00 97.52L55.98 97.49L55.86 97.38Q55.48 93.01 55.27 88.46L55.33 88.51L55.29 88.47Q45.61 88.24 36.93 90.84L36.85 90.76L36.88 90.79Q37.11 89.90 37.46 88.08L37.47 88.08L37.42 88.03Q40.78 82.29 47.36 70.74L47.36 70.74L47.37 70.75Q52.58 61.67 58.88 54.53L58.89 54.55L59.01 54.67Q60.62 54.31 63.70 53.82L63.60 53.72L63.59 53.72Q60.16 65.62 60.16 78.57L60.05 78.46L60.07 78.48Q60.08 81.22 60.22 83.95L60.37 84.10L62.66 84.22L62.66 84.22Q63.77 84.28 64.89 84.49L64.81 84.41L64.82 84.42Q65.05 86.26 65.54 89.84L65.68 89.98L65.61 89.90Q63.31 89.35 60.58 89.00L60.65 89.08L60.58 89.00Q61.12 92.83 62.38 98.22ZM65.34 83.75L65.48 83.89L65.40 83.81Q65.12 83.74 64.77 83.74L64.72 83.69L63.96 83.63L63.99 83.66Q63.78 80.93 63.78 78.34L63.67 78.23L63.76 78.31Q63.86 66.66 67.64 55.60L67.60 55.56L67.57 55.52Q66.08 55.92 63.42 56.62L63.51 56.71L63.51 56.71Q63.82 55.20 64.66 52.61L64.82 52.77L64.73 52.68Q62.28 53.31 58.50 53.73L58.63 53.87L58.69 53.92Q51.45 61.88 41.86 79.10L41.74 78.99L45.63 72.30L45.68 72.35Q44.95 74.28 44.46 75.33L44.29 75.17L36.27 91.93L36.28 91.94Q37.46 91.65 39.56 90.95L39.54 90.93L39.11 91.20L39.25 91.34Q39.02 92.58 38.46 94.89L38.37 94.80L38.44 94.87Q46.03 92.45 54.93 92.80L54.97 92.85L54.93 92.81Q54.95 94.51 55.30 98.15L55.32 98.16L55.30 98.14Q57.20 98.09 59.16 98.30L59.19 98.32L59.32 98.46Q59.43 99.55 59.92 102.07L59.94 102.08L59.97 102.12Q63.59 102.66 69.12 104.34L68.95 104.17L68.94 104.16Q67.18 100.30 65.50 94.27L65.46 94.23L68.28 95.23L68.13 95.09Q69.51 95.63 70.77 96.26L70.64 96.12L70.76 96.25Q69.26 91.59 68.98 88.51L68.94 88.47L69.04 88.57Q67.98 88.28 65.88 87.86L65.85 87.83L65.83 87.81Q65.29 85.31 65.29 83.70ZM50.62 83.46L50.65 83.48L50.63 83.46Q52.06 81.12 54.93 76.42L55.05 76.54L54.88 76.37Q54.89 78.13 54.82 79.88L54.84 79.91L54.87 79.93Q54.96 81.84 55.03 83.59L55.03 83.59L55.01 83.58Q53.84 83.39 52.79 83.39L52.86 83.45L52.79 83.39Q51.83 83.55 50.71 83.55Z"/><path d="M14 117 C161 76,165 61,328 29" stroke="#e6d397" fill="none"/><path d="M13 18 C165 38,177 138,331 91" stroke="#bf95e8" fill="none"/><path d="M14 90 C168 4,166 119,334 119" stroke="#df714d" fill="none"/><path d="M7 101 C188 40,185 119,337 45" stroke="#ba8ae9" fill="none"/><path fill="#8a6aea" d="M107.78 77.50L107.80 77.52L107.87 77.59Q104.45 77.32 102.17 79.95L102.24 80.02L102.21 79.98Q100.01 82.69 99.66 86.19L99.54 86.07L99.50 86.03Q99.10 89.83 101.09 91.62L101.09 91.61L101.15 91.67Q103.08 93.39 106.93 93.18L106.97 93.22L106.93 93.18Q110.94 93.06 112.97 91.80L112.84 91.67L112.84 91.67Q114.95 89.65 114.95 86.77L114.94 86.77L114.98 86.81Q114.92 86.04 114.78 85.34L114.74 85.31L114.92 85.49Q114.96 82.30 112.93 79.82L112.89 79.78L112.99 79.88Q110.91 77.35 107.83 77.56ZM107.14 98.08L107.11 98.05L107.07 98.01Q99.00 98.00 96.41 96.59L96.33 96.51L96.48 96.67Q94.56 95.23 94.21 92.08L94.25 92.12L94.20 92.07Q94.15 90.83 94.22 89.50L94.20 89.49L94.25 89.53Q94.31 87.56 94.31 86.72L94.40 86.81L94.30 86.71Q95.31 81.63 95.59 80.37L95.46 80.24L95.42 80.20Q96.32 76.69 97.86 74.10L97.81 74.05L97.83 74.07Q102.77 66.05 113.69 54.36L113.64 54.30L113.71 54.37Q118.71 53.92 122.77 52.45L122.72 52.40L122.72 52.39Q110.08 66.08 104.20 73.86L104.10 73.76L104.17 73.83Q106.02 72.95 108.40 72.95L108.31 72.85L108.37 72.91Q114.50 72.95 117.30 76.52L117.34 76.57L117.26 76.48Q119.70 79.48 120.33 85.99L120.41 86.07L120.35 86.01Q120.58 87.43 120.58 88.55L120.43 88.41L120.54 88.52Q120.55 94.27 116.49 96.23L116.42 96.15L116.54 96.28Q114.24 97.34 107.10 98.04ZM111.26 102.42L111.24 102.39L111.33 102.48Q113.64 102.34 117.28 102.48L117.25 102.45L117.19 102.39Q120.34 102.67 123.21 101.34L123.10 101.23L123.16 101.29Q125.23 99.86 125.23 96.57L125.28 96.61L125.22 96.56Q125.11 95.54 124.79 93.71L124.83 93.75L124.87 93.79Q124.54 91.95 124.54 91.11L124.52 91.10L124.49 91.07Q123.00 82.50 120.06 79.00L120.10 79.04L120.05 78.99Q119.80 78.67 119.52 78.25L119.63 78.37L118.95 77.82L118.85 77.80L118.99 77.94Q118.31 76.97 117.19 75.22L117.20 75.23L117.07 75.10Q115.41 73.37 111.77 72.53L111.78 72.55L111.84 72.60Q114.14 69.72 119.60 62.93L119.47 62.79L127.22 53.04L127.24 53.06Q124.36 54.66 119.95 56.06L120.00 56.12L120.10 56.22Q121.75 54.36 125.04 50.72L125.09 50.77L124.93 50.62Q120.56 52.61 113.42 53.66L113.52 53.77L113.43 53.67Q102.86 64.47 97.40 73.57L97.55 73.71L97.45 73.61Q94.67 78.26 93.62 89.74L93.59 89.71L93.68 89.81Q93.47 90.78 93.61 92.53L93.56 92.49L93.70 92.63Q93.67 95.68 95.70 97.36L95.78 97.44L95.76 97.41Q96.42 97.66 96.35 97.73L96.34 97.71L96.38 97.75Q97.18 99.53 98.65 100.30L98.68 100.34L98.69 100.35Q101.27 101.53 104.84 101.88L104.93 101.96L104.87 101.91Q104.83 101.86 111.27 102.42ZM110.76 81.67L110.87 81.79L110.87 81.78Q111.83 81.49 113.58 82.40L113.66 82.47L113.65 82.47Q114.19 84.12 114.19 85.31L114.28 85.40L114.29 85.41Q114.68 88.88 112.92 90.70L112.86 90.64L112.96 90.74Q110.85 91.92 107.00 92.48L107.15 92.63L107.16 92.64Q104.34 92.48 103.36 91.99L103.42 92.05L103.45 92.09Q103.10 91.25 103.10 90.69L103.17 90.75L103.06 90.64Q102.69 84.66 108.08 82.28L108.10 82.31L108.05 82.26Q109.35 81.52 110.75 81.66Z"/><path d="M20 52 C168 72,153 51,325 113" stroke="#86eda0" fill="none"/><path fill="#de7171" d="M164.55 77.61L164.59 77.65L164.42 77.48Q161.07 77.28 158.80 79.91L158.85 79.96L158.84 79.95Q156.58 82.60 156.23 86.10L156.22 86.08L156.24 86.10Q155.73 89.80 157.73 91.58L157.77 91.62L157.89 91.75Q159.85 93.50 163.70 93.29L163.61 93.19L163.63 93.22Q167.43 92.88 169.46 91.62L169.53 91.69L169.51 91.67Q171.58 89.61 171.58 86.74L171.73 86.88L171.62 86.78Q171.55 86.01 171.41 85.31L171.41 85.31L171.56 85.46Q171.57 82.25 169.54 79.76L169.54 79.76L169.67 79.89Q167.54 77.31 164.46 77.52ZM163.73 98.01L163.77 98.05L163.70 97.97Q155.78 98.10 153.19 96.70L153.16 96.67L153.10 96.62Q151.23 95.24 150.88 92.09L150.81 92.02L150.89 92.10Q150.86 90.88 150.93 89.55L150.87 89.49L150.91 89.53Q151.00 87.59 151.00 86.75L150.98 86.73L151.13 86.87Q151.99 81.64 152.27 80.38L152.20 80.31L152.18 80.30Q152.95 76.65 154.49 74.06L154.46 74.04L154.54 74.12Q159.56 66.17 170.48 54.48L170.29 54.29L170.32 54.33Q175.26 53.80 179.33 52.33L179.43 52.44L179.38 52.39Q166.78 66.11 160.89 73.88L160.96 73.95L160.89 73.88Q162.66 72.92 165.04 72.92L165.06 72.93L165.11 72.99Q171.12 72.90 173.92 76.47L173.89 76.45L173.99 76.54Q176.40 79.52 177.03 86.03L177.13 86.13L177.09 86.08Q177.20 87.39 177.20 88.51L177.11 88.41L177.15 88.46Q177.20 94.25 173.14 96.21L173.10 96.17L173.20 96.27Q170.90 97.33 163.76 98.03ZM168.00 102.49L167.98 102.47L167.87 102.36Q170.34 102.37 173.98 102.52L173.87 102.40L174.00 102.53Q177.00 102.66 179.87 101.33L179.84 101.30L179.83 101.30Q181.91 99.87 181.91 96.58L181.86 96.53L181.90 96.57Q181.84 95.60 181.53 93.78L181.57 93.83L181.61 93.86Q181.15 91.89 181.15 91.05L181.17 91.08L181.32 91.23Q179.63 82.47 176.69 78.97L176.67 78.94L176.76 79.03Q176.46 78.67 176.18 78.25L176.21 78.27L175.64 77.84L175.51 77.78L175.51 77.79Q174.92 76.92 173.80 75.17L173.82 75.19L173.83 75.20Q172.20 73.50 168.56 72.66L168.43 72.52L168.43 72.53Q170.65 69.57 176.12 62.78L176.12 62.78L184.00 53.15L183.91 53.07Q181.04 54.67 176.63 56.07L176.65 56.10L176.66 56.11Q178.31 54.26 181.60 50.62L181.65 50.66L181.64 50.66Q177.15 52.54 170.01 53.59L170.09 53.67L170.12 53.70Q159.54 64.48 154.08 73.58L154.17 73.67L154.07 73.57Q151.25 78.18 150.20 89.66L150.33 89.79L150.37 89.83Q150.06 90.71 150.20 92.46L150.36 92.62L150.22 92.48Q150.47 95.81 152.50 97.49L152.49 97.48L152.47 97.46Q153.23 97.80 153.16 97.87L153.18 97.89L153.16 97.86Q153.72 99.41 155.19 100.18L155.18 100.17L155.24 100.22Q158.01 101.59 161.58 101.94L161.56 101.92L161.43 101.80Q161.53 101.89 167.97 102.45ZM167.54 81.79L167.50 81.75L167.45 81.70Q168.55 81.54 170.30 82.45L170.36 82.51L170.32 82.47Q171.03 84.30 171.03 85.49L170.99 85.45L170.96 85.41Q171.23 88.77 169.48 90.59L169.53 90.64L169.60 90.72Q167.65 92.05 163.80 92.61L163.82 92.63L163.63 92.45Q161.07 92.54 160.09 92.05L160.02 91.99L160.06 92.03Q159.68 91.16 159.68 90.60L159.70 90.61L159.64 90.56Q159.37 84.68 164.76 82.30L164.71 82.25L164.70 82.24Q166.03 81.54 167.43 81.68Z"/><path d="M10 73 C184 135,190 13,336 38" stroke="#d74040" fill="none"/><path d="M10 73 C183 52,178 56,341 65" stroke="#e183b2" fill="none"/><path d="M10 53 C171 87,185 9,324 72" stroke="#cde28c" fill="none"/><path d="M18 62 C184 133,171 134,334 18" stroke="#de947c" fill="none"/><path d="M16 110 C183 119,162 25,329 100" stroke="#55ecc6" fill="none"/><path d="M17 131 C151 48,164 2,326 93" stroke="#83b2e1" fill="none"/><path d="M7 63 C183 53,187 5,339 107" stroke="#6464e6" fill="none"/><path d="M17 58 C178 13,180 50,333 73" stroke="#61a5ea" fill="none"/></svg>