<svg xmlns="http://www.w3.org/2000/svg" width="342" height="140" viewBox="0,0,342,140"><path d="M6 10 C161 48,163 116,338 138" stroke="#ca81e3" fill="none"/><path d="M2 109 C179 85,171 129,329 55" stroke="#62dea0" fill="none"/><path d="M19 14 C169 26,151 54,323 30" stroke="#9cee80" fill="none"/><path d="M8 83 C150 93,168 68,325 9" stroke="#e87c7c" fill="none"/><path d="M12 30 C166 43,171 108,324 45" stroke="#ca83e1" fill="none"/><path d="M6 4 C181 135,162 134,322 59" stroke="#8181e3" fill="none"/><path d="M18 51 C150 78,190 89,337 33" stroke="#7cb2e8" fill="none"/><path d="M14 120 C157 136,190 101,340 134" stroke="#4be6e6" fill="none"/><path d="M8 133 C156 34,179 56,325 138" stroke="#87e967" fill="none"/><path d="M15 132 C178 114,182 71,323 12" stroke="#7956e0" fill="none"/><path d="M8 127 C166 11,190 64,324 73" stroke="#4971e8" fill="none"/><path d="M1 103 C160 47,155 128,332 37" stroke="#56badb" fill="none"/><path d="M2 98 C172 129,173 92,332 63" stroke="#e06fa8" fill="none"/><path d="M5 46 C159 69,172 93,330 37" stroke="#8cec8c" fill="none"/><path d="M11 39 C164 3,190 60,322 44" stroke="#98e67e" fill="none"/><path d="M15 6 C176 21,173 90,332 91" stroke="#b585e4" fill="none"/><path d="M10 78 C152 132,191 23,339 26" stroke="#e561a3" fill="none"/><path d="M10 20 C180 139,179 70,338 43" stroke="#d690ee" fill="none"/><path d="M9 100 C164 110,176 101,323 62" stroke="#829ced" fill="none"/><path d="M1 79 C150 82,187 64,335 89" stroke="#ea9275" fill="none"/><path d="M10 88 C172 89,189 131,335 45" stroke="#aa6be9" fill="none"/><path d="M2 48 C188 34,167 25,340 56" stroke="#81e8ce" fill="none"/><path d="M6 11 C179 11,187 99,334 31" stroke="#bb54dd" fill="none"/><path fill="#d750d7" d="M166.06 67.29L165.91 67.14L166.07 67.30Q160.46 67.29 157.27 65.43L157.27 65.43L157.18 65.34Q161.53 62.89 170.05 55.50L170.13 55.57L170.09 55.53Q171.44 55.29 173.71 54.22L173.72 54.24L173.57 54.08Q171.27 64.51 171.07 75.63L171.04 75.60L171.20 75.76Q170.81 86.70 172.68 97.36L172.76 97.45L172.70 97.39Q169.82 96.17 166.09 95.97L166.06 95.94L166.03 95.91Q165.99 88.81 165.99 81.68L165.89 81.58L165.86 81.55Q165.82 74.31 165.88 67.12ZM165.24 71.07L165.21 96.55L165.21 96.55Q167.36 96.58 169.03 96.91L169.20 97.08L169.08 96.96Q169.22 98.17 169.56 100.57L169.47 100.48L169.55 100.56Q174.63 101.58 178.90 105.51L178.84 105.45L178.88 105.50Q174.57 93.06 174.50 80.00L174.42 79.92L174.46 79.96Q174.28 66.85 177.47 54.19L177.48 54.19L177.42 54.13Q176.46 54.84 173.66 56.78L173.86 56.97L173.78 56.89Q174.15 55.60 174.68 52.93L174.58 52.83L174.73 52.98Q172.28 54.19 169.74 54.85L169.67 54.78L169.83 54.94Q163.11 61.07 155.58 65.07L155.68 65.17L155.71 65.20Q158.12 67.08 162.25 67.68L162.16 67.58L162.25 67.68Q161.02 68.51 158.75 70.38L158.83 70.46L158.85 70.48Q161.52 71.22 165.39 71.22L165.31 71.14Z"/><path d="M6 7 C166 91,153 67,329 131" stroke="#edca62" fill="none"/><path fill="#e44343" d="M272.51 96.89L272.53 96.90L272.43 96.80Q270.07 97.04 267.34 96.31L267.28 96.25L267.22 96.19Q265.12 94.62 264.85 91.76L264.97 91.88L264.87 91.78Q264.74 91.38 265.07 86.78L265.17 86.88L265.22 86.93Q266.99 86.57 270.52 85.90L270.38 85.76L270.05 87.10L270.09 87.13Q269.59 90.16 272.05 91.16L272.16 91.27L272.14 91.25Q273.48 91.80 277.15 91.80L277.29 91.93L277.23 91.88Q280.08 91.66 280.41 91.53L280.28 91.40L280.25 91.37Q282.00 91.25 283.27 90.39L283.11 90.23L283.23 90.35Q285.70 88.68 285.36 85.02L285.36 85.02L285.24 84.90Q285.08 80.80 282.05 78.07L281.95 77.98L281.93 77.95Q278.90 75.23 274.57 75.23L274.57 75.23L274.54 74.80L274.62 74.87Q275.36 74.89 276.90 74.76L276.70 74.56L276.80 74.66Q280.22 74.55 282.62 72.38L282.55 72.32L282.44 72.21Q284.86 70.06 285.13 66.80L285.19 66.86L285.27 66.94Q285.42 66.35 285.42 65.76L285.27 65.61L285.32 65.65Q285.42 63.09 283.02 61.49L282.93 61.40L282.95 61.42Q280.86 60.07 278.06 60.27L278.08 60.28L277.97 60.18Q275.66 59.86 273.53 60.60L273.54 60.61L273.70 60.77Q271.07 61.60 270.54 63.60L270.49 63.55L270.63 63.69Q270.15 64.88 270.29 66.21L270.33 66.26L270.33 66.25Q268.62 65.94 265.02 64.68L264.96 64.62L265.00 64.65Q264.54 61.67 264.61 60.21L264.70 60.30L264.54 60.13Q264.76 57.49 266.62 56.29L266.66 56.33L266.64 56.31Q269.17 55.30 271.97 55.30L272.01 55.35L271.93 55.26Q277.45 55.19 282.98 55.66L283.08 55.75L282.93 55.60Q291.84 56.39 291.31 62.98L291.24 62.92L291.32 63.00Q291.25 65.66 290.38 68.39L290.36 68.36L290.25 68.26Q288.69 73.69 284.56 75.29L284.62 75.35L284.54 75.27Q289.15 76.22 290.21 82.08L290.17 82.03L290.17 82.03Q290.64 84.10 290.78 87.63L290.88 87.74L290.87 87.73Q291.06 95.45 283.00 96.25L282.95 96.20L282.99 96.23Q281.67 96.32 272.41 96.78ZM281.66 100.84L281.54 100.72L281.53 100.71Q282.64 100.82 287.64 100.96L287.65 100.97L287.68 101.00Q290.70 101.08 293.57 99.95L293.66 100.05L293.50 99.89Q295.67 98.33 295.34 95.27L295.39 95.32L295.39 95.31Q295.04 92.83 294.51 89.77L294.57 89.83L294.57 89.83Q293.23 81.90 289.84 79.04L289.95 79.15L289.69 78.55L289.62 78.42L289.48 78.27Q292.56 75.76 293.89 68.10L293.91 68.11L294.02 68.23Q293.97 67.32 294.17 65.65L294.13 65.60L294.24 65.72Q294.42 64.43 294.29 63.23L294.27 63.22L294.21 63.16Q293.88 60.16 291.61 58.96L291.74 59.08L291.45 58.93L291.62 59.10Q290.99 57.27 289.00 56.34L288.95 56.30L288.90 56.25Q286.31 55.12 277.31 54.58L277.28 54.55L277.28 54.56Q274.36 54.44 271.57 54.44L271.55 54.42L271.51 54.38Q268.76 54.43 266.10 55.56L266.09 55.56L266.15 55.61Q264.00 56.93 264.00 59.99L264.04 60.03L263.97 59.96Q264.01 59.27 264.48 65.13L264.51 65.17L264.47 65.13Q265.04 65.30 267.90 66.36L267.84 66.30L267.90 66.36Q267.79 67.18 267.72 68.05L267.75 68.07L267.85 68.17Q267.73 68.92 267.79 69.85L267.84 69.90L267.83 69.89Q271.05 70.65 274.59 70.85L274.60 70.86L274.49 70.75Q274.36 67.22 276.29 65.75L276.43 65.90L276.40 65.87Q277.72 64.59 281.25 64.19L281.41 64.34L281.33 64.27Q283.27 64.21 284.27 64.54L284.29 64.56L284.42 64.69Q284.31 64.72 284.38 64.92L284.47 65.01L284.49 65.36L284.67 66.34L284.60 66.27Q284.70 66.71 284.64 66.97L284.58 66.92L284.65 66.98Q284.51 69.98 281.85 72.05L281.71 71.91L281.84 72.04Q280.10 73.50 276.57 73.83L276.61 73.87L276.69 73.95Q275.42 74.21 273.89 74.21L273.78 74.11L273.83 74.15Q273.91 74.76 274.17 75.96L274.13 75.92L274.28 76.07Q277.26 75.98 279.79 77.25L279.90 77.36L279.60 77.26L276.84 77.57L276.80 77.52Q277.03 78.28 277.23 79.35L277.17 79.29L277.05 79.17Q280.94 79.20 283.94 81.53L283.89 81.48L283.96 81.55Q284.22 82.08 284.76 84.95L284.74 84.93L284.75 84.94Q285.21 90.19 280.08 90.93L280.08 90.93L279.91 90.76Q276.37 91.35 275.37 91.29L275.29 91.21L275.33 91.25Q274.54 91.05 273.60 90.92L273.51 90.82L273.52 90.03L273.89 89.41L273.78 88.56L273.86 88.04L273.90 88.08Q272.25 88.23 270.85 88.56L270.85 88.57L270.85 88.56Q270.81 88.19 270.81 87.86L270.80 87.85L270.83 87.88Q270.83 87.48 270.83 87.08L270.95 87.20L270.89 87.14Q271.01 86.45 271.27 85.19L271.20 85.11L271.27 85.18Q268.04 85.62 264.78 86.22L264.67 86.12L264.62 86.07Q264.67 86.98 264.47 88.95L264.50 88.97L264.52 89.00Q264.26 90.90 264.26 91.96L264.35 92.05L264.19 91.89Q264.37 95.54 266.77 96.87L266.87 96.97L266.78 96.88Q269.34 100.84 277.60 100.51L277.75 100.66L277.71 100.62Q278.96 100.54 281.63 100.81Z"/><path d="M2 34 C180 76,179 114,337 77" stroke="#72dede" fill="none"/><path fill="#e236e2" d="M44.80 84.01L44.80 84.01L44.62 83.83Q50.20 83.35 55.79 83.55L55.75 83.51L55.67 83.42Q55.64 79.00 55.64 74.80L55.61 74.77L55.73 74.89Q55.69 70.52 56.02 66.06L55.93 65.96L55.98 66.02Q53.79 68.96 44.66 83.88ZM62.06 96.81L62.02 96.77L62.11 96.87Q59.09 96.24 55.96 96.11L55.97 96.12L56.02 96.17Q55.58 91.93 55.38 87.60L55.40 87.62L55.48 87.70Q46.16 87.37 37.90 89.84L37.82 89.77L37.91 89.85Q38.03 88.90 38.36 87.17L38.33 87.14L38.31 87.12Q41.49 81.64 47.75 70.65L47.81 70.70L47.81 70.70Q52.82 62.12 58.81 55.32L58.82 55.33L58.75 55.26Q60.41 55.06 63.34 54.59L63.27 54.52L63.21 54.46Q59.97 65.81 59.97 78.14L59.95 78.12L59.92 78.09Q60.03 80.79 60.17 83.39L60.07 83.29L62.28 83.45L62.27 83.43Q63.51 83.67 64.58 83.87L64.47 83.76L64.57 83.87Q64.72 85.55 65.19 88.95L65.25 89.01L65.24 89.00Q63.08 88.51 60.49 88.18L60.41 88.10L60.34 88.03Q60.75 91.57 61.95 96.70ZM64.88 83.04L64.96 83.12L64.87 83.03Q64.55 82.91 64.22 82.91L64.36 83.06L63.59 82.95L63.71 83.07Q63.38 80.34 63.38 77.88L63.49 77.99L63.43 77.92Q63.44 66.75 67.04 56.22L67.08 56.26L67.00 56.18Q65.68 56.66 63.15 57.33L63.10 57.28L63.07 57.25Q63.53 55.98 64.33 53.51L64.36 53.54L64.35 53.54Q62.12 54.24 58.53 54.64L58.51 54.62L58.57 54.69Q51.73 62.30 42.61 78.69L42.59 78.67L46.14 72.16L46.12 72.15Q45.44 74.00 44.98 75.00L44.89 74.91L37.18 90.79L37.23 90.83Q38.24 90.45 40.24 89.78L40.39 89.94L40.03 90.24L40.14 90.34Q39.92 91.53 39.39 93.72L39.38 93.72L39.27 93.61Q46.57 91.39 55.04 91.72L55.03 91.72L55.05 91.73Q54.96 93.24 55.29 96.71L55.45 96.87L55.33 96.75Q57.27 96.82 59.14 97.02L59.13 97.01L59.03 96.92Q59.27 98.08 59.73 100.48L59.90 100.64L59.84 100.58Q63.07 100.89 68.33 102.49L68.52 102.68L68.45 102.60Q66.61 98.76 65.01 93.03L65.06 93.09L67.70 93.99L67.58 93.87Q68.92 94.41 70.12 95.01L70.08 94.97L70.07 94.96Q68.66 90.56 68.40 87.62L68.28 87.51L68.29 87.51Q67.44 87.40 65.44 87.00L65.41 86.97L65.37 86.93Q64.98 84.67 64.98 83.14ZM50.96 82.84L51.05 82.94L51.06 82.95Q52.32 80.61 55.05 76.15L55.08 76.18L54.95 76.05Q55.09 77.85 55.02 79.51L54.94 79.44L55.06 79.56Q55.06 81.28 55.12 82.95L55.02 82.85L55.09 82.92Q54.11 82.86 53.11 82.86L53.02 82.77L53.00 82.75Q52.05 82.88 50.99 82.88Z"/><path d="M2 72 C189 27,180 63,333 80" stroke="#e65076" fill="none"/><path d="M20 88 C155 17,189 135,322 85" stroke="#60e0c0" fill="none"/><path d="M17 64 C157 47,165 32,339 14" stroke="#e5b584" fill="none"/><path d="M10 63 C184 66,170 86,329 115" stroke="#ca64eb" fill="none"/><path d="M11 30 C171 71,165 74,337 99" stroke="#8e39e4" fill="none"/><path fill="#98e57f" d="M108.25 77.34L108.32 77.41L108.30 77.39Q105.03 77.39 102.90 79.72L102.81 79.63L102.78 79.60Q100.72 82.00 100.45 85.33L100.35 85.23L100.49 85.37Q100.03 88.97 102.16 90.74L102.26 90.84L102.15 90.73Q104.29 92.51 108.03 92.37L108.05 92.40L108.18 92.52Q112.22 92.24 113.89 90.57L113.91 90.59L113.74 90.43Q115.72 88.07 115.52 84.87L115.43 84.79L115.38 84.74Q115.32 81.62 113.43 79.52L113.42 79.51L113.33 79.43Q111.46 77.35 108.26 77.35ZM108.09 60.73L108.13 60.77L108.14 60.77Q105.73 60.63 103.40 61.50L103.37 61.47L103.29 61.39Q101.12 62.88 101.52 66.15L101.50 66.12L101.54 66.17Q102.33 72.62 108.19 72.62L108.30 72.73L108.14 72.57Q110.90 72.93 112.64 70.94L112.76 71.06L112.72 71.02Q114.53 69.10 114.60 66.37L114.59 66.36L114.46 66.23Q114.69 63.27 113.43 62.20L113.32 62.10L113.37 62.14Q110.53 60.77 108.27 60.90ZM107.77 96.84L107.74 96.82L102.43 96.84L102.34 96.75Q99.75 96.82 97.42 95.29L97.35 95.23L97.42 95.30Q94.90 93.17 95.17 88.17L95.31 88.32L95.16 88.17Q96.07 76.28 102.40 74.55L102.44 74.59L102.41 74.56Q98.29 72.85 95.96 63.45L95.98 63.47L96.06 63.55Q95.36 60.99 95.49 59.59L95.63 59.73L95.53 59.63Q96.13 55.96 102.59 55.90L102.54 55.84L102.63 55.93Q109.87 55.65 112.41 55.98L112.41 55.99L112.51 56.09Q119.30 57.08 120.10 60.61L119.99 60.50L119.98 60.49Q120.31 61.68 120.31 62.35L120.21 62.25L120.24 62.28Q120.28 63.52 119.95 64.59L119.90 64.54L119.87 64.52Q118.79 71.89 113.66 74.55L113.76 74.66L113.68 74.57Q119.92 76.09 120.79 85.35L120.75 85.31L120.74 85.30Q120.69 85.52 120.76 87.79L120.79 87.81L120.82 87.84Q120.94 92.63 118.14 94.50L118.12 94.48L118.03 94.38Q115.73 96.01 107.73 96.81ZM111.69 100.84L111.69 100.83L117.57 100.98L117.54 100.95Q120.64 101.19 123.30 99.92L123.25 99.87L123.26 99.88Q125.14 98.50 125.28 95.24L125.26 95.22L125.42 95.38Q125.45 93.41 124.78 90.01L124.82 90.05L124.86 90.09Q123.26 81.96 119.59 78.69L119.59 78.69L119.24 78.00L118.84 77.47L118.48 76.91L118.50 76.93Q121.49 74.66 123.09 67.40L123.00 67.31L123.11 67.42Q123.03 66.68 123.17 65.21L123.14 65.18L123.19 65.23Q123.20 63.91 123.07 62.85L123.20 62.98L123.24 63.01Q122.98 60.49 120.91 59.63L120.77 59.48L120.86 59.50L120.63 59.40L120.58 59.36Q120.12 58.10 118.06 56.70L118.10 56.74L118.00 56.58L118.11 56.69Q114.65 55.49 107.52 55.16L107.59 55.23L107.56 55.20Q104.77 54.94 102.38 55.14L102.45 55.22L102.28 55.05Q100.89 55.13 98.63 55.39L98.61 55.38L98.79 55.56Q95.30 56.13 94.90 58.99L94.83 58.92L94.88 58.98Q94.83 59.86 94.90 61.26L94.85 61.21L94.99 61.35Q95.17 62.26 96.17 66.39L96.08 66.30L96.05 66.27Q97.58 72.06 100.64 74.40L100.62 74.37L100.64 74.39L100.61 74.37Q95.83 76.72 94.90 85.78L94.87 85.75L94.97 85.85Q94.65 89.72 94.65 91.32L94.61 91.28L94.68 91.35Q94.78 94.45 96.84 96.05L96.71 95.92L96.88 96.08Q96.96 96.09 97.42 96.43L97.49 96.49L97.35 96.35Q99.17 100.38 111.63 100.78ZM111.11 81.47L111.13 81.49L111.19 81.54Q112.75 81.38 114.28 82.18L114.17 82.06L114.27 82.16Q114.86 83.82 114.79 84.75L114.93 84.88L114.83 84.79Q114.92 85.35 114.92 85.88L114.88 85.84L114.82 85.78Q114.99 90.08 111.00 91.55L110.95 91.50L110.96 91.52Q109.46 91.95 108.06 91.75L108.11 91.80L108.01 91.70Q106.13 91.94 104.13 91.14L104.12 91.13L104.25 91.26Q103.66 90.01 103.79 88.27L103.87 88.35L103.88 88.36Q104.16 85.58 106.26 83.45L106.13 83.31L106.16 83.35Q108.27 81.23 111.07 81.43ZM111.42 64.79L111.57 64.94L111.54 64.91Q112.82 64.59 113.75 64.85L113.73 64.84L113.89 66.40L113.88 66.38Q113.86 68.83 112.26 70.59L112.20 70.53L112.17 70.50Q110.66 72.35 108.26 72.02L108.17 71.93L108.16 71.92Q106.51 72.00 105.78 71.60L105.86 71.69L105.68 71.51Q105.68 71.11 105.48 69.91L105.47 69.90L105.46 69.89Q105.10 67.53 107.23 66.06L107.23 66.06L107.16 65.99Q108.97 64.74 111.43 64.80Z"/><path d="M5 42 C187 134,169 19,323 89" stroke="#9650dc" fill="none"/><path d="M2 70 C168 137,171 25,328 103" stroke="#d45353" fill="none"/><path d="M19 118 C159 18,155 25,329 109" stroke="#e14646" fill="none"/><path d="M16 67 C154 122,163 60,339 74" stroke="#55dc77" fill="none"/><path fill="#93d552" d="M228.22 73.75L228.24 73.77L228.24 73.77Q229.66 73.79 232.12 73.53L232.09 73.49L232.03 73.43Q232.15 74.75 232.15 75.88L232.02 75.75L232.14 78.07L231.99 77.92Q230.57 77.97 229.11 78.10L229.19 78.19L229.08 78.07Q227.59 78.12 226.13 78.05L226.26 78.18L226.25 78.18Q221.14 88.85 215.14 96.92L215.21 96.98L215.28 97.05Q210.79 98.09 208.53 99.16L208.51 99.14L208.48 99.11Q215.75 89.20 221.08 78.21L221.10 78.22L216.55 78.27L216.49 78.22Q216.53 75.91 216.33 73.58L216.34 73.60L216.33 73.59Q219.58 73.77 223.18 73.77L223.14 73.74L226.53 67.33L226.44 67.24Q228.26 64.00 230.39 61.20L230.38 61.19L230.42 61.23Q227.63 61.43 224.83 61.43L224.88 61.48L224.89 61.49Q214.22 61.49 207.63 57.62L207.59 57.58L206.51 54.64L206.55 54.68Q205.89 53.15 205.22 51.62L205.25 51.65L205.14 51.54Q212.72 56.12 222.71 56.52L222.77 56.57L222.76 56.56Q231.87 57.08 240.86 53.61L240.85 53.60L240.74 53.50Q240.39 54.21 239.52 55.74L239.67 55.89L239.52 55.74Q233.23 64.10 228.23 73.76ZM242.43 58.25L242.39 58.21L244.22 54.77L244.03 54.59Q242.42 55.51 239.49 56.78L239.52 56.80L239.95 56.37L239.89 56.31Q240.06 56.01 240.26 55.81L240.28 55.83L240.20 55.76Q241.00 54.69 242.27 52.36L242.11 52.20L242.13 52.22Q232.79 56.20 222.73 55.80L222.74 55.82L222.86 55.93Q212.35 55.48 204.02 50.28L204.03 50.29L204.02 50.29Q205.67 53.40 207.13 58.06L207.26 58.19L207.23 58.15Q209.10 59.22 210.49 59.76L210.63 59.89L210.63 59.89Q210.78 60.37 211.58 63.64L211.52 63.58L211.54 63.60Q217.14 65.87 226.80 65.61L226.74 65.54L226.86 65.66Q226.31 66.64 222.84 73.24L222.85 73.25L222.72 73.12Q219.29 73.28 215.83 72.95L215.67 72.80L215.77 72.89Q215.89 74.34 215.89 75.87L215.79 75.78L215.96 78.95L218.78 78.84L218.71 81.23L218.72 81.24Q211.89 94.20 207.02 100.46L207.01 100.44L207.07 100.50Q209.90 99.20 212.76 98.33L212.77 98.34L212.81 98.38Q211.57 99.94 209.17 102.93L209.17 102.93L209.23 103.00Q214.58 100.88 218.84 100.48L218.93 100.57L218.90 100.54Q223.99 93.90 229.45 82.05L229.59 82.19L235.59 82.52L235.59 82.52Q235.46 80.92 235.46 79.32L235.34 79.21L235.45 76.18L235.32 76.06Q234.90 76.10 233.93 76.17L234.02 76.26L233.86 76.10Q232.93 76.20 232.47 76.20L232.55 76.28L232.48 76.21Q232.54 76.07 232.60 75.80L232.50 75.70L232.52 75.25L232.66 75.40Q237.01 66.35 242.41 58.23Z"/><path d="M18 10 C185 78,169 139,325 53" stroke="#79e056" fill="none"/><path d="M10 50 C183 2,170 125,321 121" stroke="#62dabc" fill="none"/><path d="M12 51 C160 19,151 92,327 77" stroke="#e06aa5" fill="none"/><path d="M17 98 C190 40,164 31,336 117" stroke="#df9852" fill="none"/><path d="M20 91 C154 49,151 132,322 93" stroke="#6886e3" fill="none"/><path d="M3 127 C178 111,166 76,332 109" stroke="#80e499" fill="none"/></svg>