<svg xmlns="http://www.w3.org/2000/svg" width="342" height="140" viewBox="0,0,342,140"><path d="M14 107 C152 69,155 43,337 42" stroke="#89cee6" fill="none"/><path d="M5 2 C180 83,185 15,334 93" stroke="#3fe83f" fill="none"/><path d="M17 81 C158 75,160 116,330 68" stroke="#eb56eb" fill="none"/><path d="M11 33 C162 102,167 10,334 30" stroke="#6cedad" fill="none"/><path d="M19 10 C164 9,167 110,328 11" stroke="#8f74e1" fill="none"/><path fill="#daba5c" d="M200.72 67.74L200.74 67.76L200.75 67.77Q195.98 67.62 193.33 66.08L193.36 66.11L193.44 66.18Q196.97 64.10 204.02 57.99L204.11 58.08L204.17 58.13Q205.20 57.85 207.07 56.97L206.90 56.80L207.02 56.91Q204.99 65.40 204.82 74.60L205.00 74.77L204.94 74.71Q204.75 83.89 206.29 92.70L206.37 92.77L206.30 92.71Q203.93 91.71 200.85 91.54L200.81 91.51L200.74 91.44Q200.52 85.38 200.52 79.49L200.55 79.52L200.51 79.48Q200.61 73.63 200.67 67.69ZM200.21 71.03L200.08 91.98L200.19 92.10Q201.81 91.96 203.19 92.23L203.27 92.32L203.34 92.38Q203.41 93.33 203.68 95.31L203.66 95.29L203.62 95.25Q207.86 96.13 211.38 99.38L211.30 99.30L211.39 99.38Q207.65 88.93 207.60 78.14L207.57 78.12L207.63 78.17Q207.54 67.41 210.19 56.94L210.18 56.93L210.23 56.99Q209.38 57.51 207.06 59.11L207.05 59.09L207.20 59.24Q207.40 58.07 207.84 55.86L207.76 55.78L207.81 55.83Q205.93 56.98 203.84 57.54L203.80 57.49L203.79 57.48Q198.45 62.77 192.23 66.07L192.12 65.96L192.08 65.93Q194.08 67.49 197.50 67.99L197.55 68.04L197.51 68.00Q196.59 68.79 194.72 70.33L194.85 70.46L194.86 70.47Q196.98 70.99 200.18 70.99L200.03 70.85Z"/><path d="M19 17 C192 137,166 111,332 37" stroke="#74da52" fill="none"/><path d="M16 21 C181 50,153 112,340 3" stroke="#eb8da5" fill="none"/><path d="M17 15 C152 83,153 78,335 72" stroke="#e69479" fill="none"/><path d="M13 111 C165 28,168 114,340 16" stroke="#e0e07e" fill="none"/><path d="M8 133 C174 21,156 5,340 1" stroke="#55dc55" fill="none"/><path d="M19 9 C151 28,187 131,336 63" stroke="#66c1df" fill="none"/><path d="M19 129 C179 113,167 8,333 87" stroke="#3a64e2" fill="none"/><path d="M2 115 C187 6,177 8,327 11" stroke="#c459e7" fill="none"/><path d="M7 74 C167 77,171 125,321 31" stroke="#6a41e6" fill="none"/><path d="M7 32 C171 91,154 32,324 39" stroke="#809ae9" fill="none"/><path d="M20 81 C171 38,174 11,327 112" stroke="#6641d6" fill="none"/><path d="M3 79 C189 29,174 87,334 60" stroke="#64e6a5" fill="none"/><path d="M16 119 C180 65,153 60,334 119" stroke="#f0f088" fill="none"/><path d="M2 89 C151 6,183 23,324 16" stroke="#64dda0" fill="none"/><path fill="#e0af7f" d="M267.78 76.05L267.82 76.09L267.86 76.13Q265.17 76.14 263.41 78.06L263.42 78.08L263.31 77.97Q261.63 79.98 261.41 82.73L261.25 82.57L261.32 82.64Q261.09 85.77 262.85 87.23L262.76 87.13L262.79 87.16Q264.61 88.68 267.69 88.57L267.61 88.49L267.68 88.55Q271.01 88.31 272.39 86.93L272.38 86.93L272.41 86.96Q273.92 84.89 273.76 82.25L273.73 82.22L273.82 82.31Q273.48 79.44 271.91 77.70L272.07 77.86L272.06 77.85Q270.49 76.11 267.84 76.11ZM267.69 62.36L267.73 62.40L267.69 62.36Q265.70 62.24 263.77 62.96L263.71 62.89L263.84 63.03Q261.94 64.15 262.27 66.85L262.27 66.85L262.16 66.74Q262.98 72.24 267.83 72.24L267.70 72.11L267.82 72.24Q270.14 72.57 271.57 70.92L271.43 70.78L271.52 70.87Q272.89 69.16 272.95 66.90L273.02 66.97L272.94 66.89Q273.08 64.39 272.03 63.51L271.97 63.45L272.05 63.53Q269.56 62.25 267.69 62.36ZM267.34 92.13L267.40 92.19L262.95 92.15L262.92 92.11Q260.65 92.04 258.72 90.78L258.78 90.83L258.75 90.81Q256.82 89.21 257.04 85.08L256.99 85.02L257.13 85.17Q257.78 75.25 263.01 73.81L262.89 73.69L262.94 73.74Q259.71 72.50 257.79 64.74L257.74 64.69L257.74 64.68Q257.20 62.60 257.31 61.45L257.23 61.37L257.26 61.40Q257.84 58.46 263.18 58.40L263.09 58.31L263.07 58.29Q269.23 58.23 271.32 58.50L271.37 58.55L271.35 58.53Q276.95 59.34 277.61 62.26L277.48 62.12L277.61 62.26Q277.67 63.04 277.67 63.59L277.68 63.60L277.75 63.67Q277.76 64.66 277.48 65.54L277.48 65.54L277.33 65.39Q276.58 71.63 272.34 73.83L272.21 73.71L272.21 73.70Q277.32 74.90 278.03 82.56L278.04 82.57L278.09 82.61Q278.02 82.76 278.07 84.63L278.11 84.67L278.10 84.66Q278.26 88.68 275.95 90.22L275.99 90.26L275.85 90.12Q273.99 91.51 267.39 92.18ZM270.62 95.47L270.63 95.47L275.57 95.68L275.51 95.62Q277.96 95.70 280.16 94.66L280.26 94.75L280.19 94.68Q281.84 93.64 281.96 90.94L281.95 90.94L282.02 91.01Q281.94 89.28 281.39 86.47L281.36 86.43L281.37 86.45Q280.18 79.86 277.15 77.16L277.17 77.18L276.72 76.45L276.62 76.25L276.26 75.72L276.23 75.69Q278.75 73.86 280.07 67.86L280.08 67.86L279.96 67.74Q280.00 67.23 280.11 66.02L280.17 66.09L280.12 66.04Q280.31 65.12 280.20 64.24L280.19 64.23L280.04 64.08Q279.95 62.12 278.24 61.40L278.17 61.33L278.24 61.34L277.96 61.18L277.96 61.17Q277.59 60.15 275.88 58.99L275.79 58.90L275.96 59.01L275.87 58.92Q273.11 58.03 267.21 57.75L267.23 57.77L267.15 57.68Q264.85 57.48 262.87 57.65L262.85 57.63L262.89 57.67Q261.87 57.86 260.00 58.08L259.88 57.96L259.83 57.91Q257.19 58.63 256.86 61.00L256.75 60.89L256.83 60.97Q256.78 61.69 256.83 62.84L256.69 62.70L256.69 62.70Q256.97 63.59 257.79 67.00L257.83 67.04L257.82 67.03Q258.91 71.64 261.44 73.56L261.50 73.62L261.60 73.72L261.51 73.64Q257.61 75.62 256.83 83.11L256.87 83.15L256.81 83.09Q256.57 86.31 256.57 87.63L256.42 87.49L256.57 87.64Q256.65 90.20 258.36 91.52L258.22 91.38L258.34 91.50Q258.40 91.51 258.79 91.78L258.93 91.92L258.77 91.76Q260.40 95.22 270.70 95.55ZM270.24 79.55L270.21 79.53L270.21 79.53Q271.49 79.37 272.75 80.03L272.80 80.08L272.84 80.12Q273.30 81.46 273.24 82.23L273.15 82.13L273.21 82.20Q273.21 82.58 273.21 83.02L273.26 83.07L273.33 83.14Q273.28 86.50 269.98 87.72L270.01 87.75L270.06 87.80Q268.78 88.12 267.63 87.95L267.73 88.06L267.59 87.92Q266.01 88.10 264.36 87.44L264.45 87.53L264.51 87.59Q264.05 86.58 264.16 85.14L264.14 85.13L264.06 85.05Q264.30 82.76 266.04 81.00L266.12 81.08L266.07 81.03Q267.75 79.21 270.06 79.38ZM270.42 65.69L270.54 65.81L270.56 65.83Q271.66 65.61 272.43 65.83L272.35 65.75L272.47 67.03L272.47 67.03Q272.39 68.99 271.07 70.44L271.04 70.42L271.15 70.53Q269.76 71.92 267.78 71.64L267.89 71.75L267.81 71.68Q266.38 71.68 265.78 71.35L265.70 71.27L265.66 71.23Q265.72 70.96 265.56 69.97L265.51 69.93L265.43 69.85Q265.14 67.91 266.91 66.70L266.87 66.66L266.97 66.76Q268.49 65.75 270.53 65.81Z"/><path d="M11 87 C163 90,158 99,338 44" stroke="#3bbce6" fill="none"/><path d="M17 27 C169 28,182 103,341 58" stroke="#85b5e4" fill="none"/><path d="M13 74 C174 114,175 58,329 104" stroke="#e259c0" fill="none"/><path d="M7 28 C157 42,168 12,339 41" stroke="#8367da" fill="none"/><path d="M9 77 C158 139,164 32,322 37" stroke="#e669a8" fill="none"/><path d="M14 31 C183 115,159 108,340 49" stroke="#61db9e" fill="none"/><path d="M1 43 C174 67,179 82,321 129" stroke="#d28e4b" fill="none"/><path fill="#8664eb" d="M131.76 76.03L131.71 75.98L131.88 76.14Q129.05 76.02 127.29 77.95L127.42 78.07L127.25 77.91Q125.63 79.97 125.41 82.73L125.27 82.59L125.25 82.57Q125.03 85.71 126.80 87.17L126.74 87.12L126.79 87.17Q128.51 88.58 131.59 88.47L131.68 88.56L131.75 88.63Q135.12 88.42 136.50 87.05L136.40 86.95L136.39 86.93Q137.93 84.90 137.77 82.26L137.77 82.26L137.71 82.20Q137.57 79.53 136.00 77.80L136.04 77.83L136.05 77.84Q134.49 76.12 131.85 76.12ZM131.71 62.38L131.71 62.38L131.71 62.38Q129.70 62.24 127.77 62.95L127.78 62.96L127.74 62.92Q125.93 64.15 126.26 66.85L126.19 66.77L126.20 66.78Q126.97 72.23 131.81 72.23L131.74 72.16L131.79 72.20Q134.10 72.54 135.54 70.88L135.49 70.84L135.48 70.83Q136.87 69.14 136.93 66.88L136.92 66.87L136.89 66.84Q137.00 64.31 135.96 63.43L136.11 63.58L136.10 63.57Q133.67 62.35 131.79 62.46ZM131.28 92.07L131.30 92.09L126.84 92.04L126.88 92.07Q124.73 92.13 122.80 90.86L122.78 90.84L122.79 90.85Q120.85 89.24 121.07 85.11L121.06 85.09L121.11 85.14Q121.74 75.20 126.97 73.77L126.91 73.71L126.95 73.75Q123.56 72.34 121.63 64.58L121.70 64.65L121.78 64.73Q121.20 62.61 121.31 61.45L121.23 61.37L121.23 61.37Q121.74 58.36 127.08 58.30L127.19 58.41L127.12 58.34Q133.15 58.14 135.24 58.42L135.26 58.44L135.26 58.44Q140.80 59.18 141.46 62.10L141.54 62.19L141.50 62.15Q141.76 63.13 141.76 63.68L141.77 63.69L141.64 63.55Q141.63 64.53 141.35 65.41L141.34 65.40L141.43 65.49Q140.64 71.69 136.40 73.89L136.22 73.72L136.32 73.82Q141.27 74.86 141.99 82.52L141.99 82.51L142.18 82.70Q142.08 82.83 142.13 84.70L142.22 84.78L142.13 84.69Q142.16 88.57 139.85 90.12L140.00 90.27L139.90 90.17Q138.04 91.56 131.43 92.22ZM134.59 95.43L134.57 95.41L139.55 95.66L139.55 95.66Q142.01 95.75 144.21 94.70L144.13 94.62L144.14 94.63Q145.77 93.56 145.88 90.86L145.89 90.87L145.85 90.83Q146.02 89.35 145.47 86.54L145.53 86.60L145.42 86.49Q144.20 79.88 141.17 77.18L141.17 77.18L140.82 76.55L140.49 76.11L140.23 75.69L140.24 75.70Q142.75 73.86 144.07 67.86L144.01 67.80L143.95 67.73Q143.92 67.16 144.03 65.94L144.08 65.99L144.15 66.06Q144.23 65.05 144.12 64.17L144.10 64.14L144.11 64.15Q143.97 62.14 142.27 61.43L142.22 61.38L142.26 61.37L142.04 61.26L142.03 61.25Q141.56 60.12 139.86 58.96L139.96 59.06L139.85 58.90L139.99 59.04Q137.04 57.96 131.15 57.69L131.28 57.82L131.17 57.71Q128.97 57.60 126.98 57.76L126.85 57.63L127.00 57.78Q125.72 57.71 123.85 57.93L123.93 58.01L123.94 58.02Q121.15 58.59 120.82 60.96L120.78 60.92L120.71 60.84Q120.72 61.63 120.78 62.79L120.81 62.82L120.86 62.87Q120.86 63.48 121.68 66.89L121.69 66.89L121.78 66.99Q122.93 71.66 125.47 73.59L125.48 73.60L125.63 73.75L125.56 73.68Q121.50 75.52 120.73 83.01L120.68 82.96L120.84 83.12Q120.43 86.17 120.43 87.49L120.40 87.47L120.54 87.61Q120.58 90.13 122.29 91.45L122.31 91.47L122.33 91.49Q122.48 91.58 122.86 91.85L122.96 91.96L122.97 91.96Q124.36 95.17 134.65 95.50ZM134.15 79.47L134.23 79.55L134.15 79.47Q135.45 79.34 136.72 80.00L136.74 80.02L136.68 79.96Q137.36 81.52 137.31 82.29L137.14 82.13L137.22 82.20Q137.23 82.60 137.23 83.04L137.35 83.16L137.20 83.01Q137.34 86.56 134.04 87.78L134.04 87.78L134.06 87.80Q132.80 88.14 131.64 87.97L131.62 87.95L131.68 88.01Q130.15 88.25 128.50 87.58L128.38 87.47L128.49 87.57Q128.14 86.67 128.25 85.24L128.09 85.08L128.16 85.14Q128.31 82.76 130.04 81.00L130.10 81.06L130.17 81.13Q131.76 79.22 134.07 79.38ZM134.54 65.81L134.54 65.82L134.48 65.76Q135.62 65.57 136.39 65.79L136.43 65.83L136.38 66.94L136.42 66.98Q136.45 69.04 135.13 70.50L135.14 70.51L135.08 70.46Q133.77 71.92 131.78 71.65L131.77 71.64L131.78 71.64Q130.34 71.64 129.74 71.31L129.80 71.37L129.81 71.39Q129.78 71.03 129.62 70.03L129.50 69.91L129.54 69.95Q129.20 67.97 130.97 66.76L130.98 66.77L130.84 66.62Q132.55 65.80 134.58 65.86Z"/><path d="M12 44 C158 47,168 115,329 50" stroke="#4cb7db" fill="none"/><path d="M19 126 C159 84,156 30,334 26" stroke="#7c5ae1" fill="none"/><path d="M2 90 C186 117,178 20,332 50" stroke="#dfa56b" fill="none"/><path d="M4 29 C188 82,188 83,325 72" stroke="#eab27a" fill="none"/><path d="M9 52 C169 22,188 87,330 9" stroke="#aa6fe6" fill="none"/><path d="M2 25 C169 29,160 6,322 12" stroke="#e46b43" fill="none"/><path d="M16 135 C177 83,160 66,325 122" stroke="#e47a7a" fill="none"/><path d="M4 4 C166 71,155 21,329 94" stroke="#e7bf44" fill="none"/><path d="M10 130 C170 115,165 39,331 22" stroke="#87f1bc" fill="none"/><path d="M14 61 C167 132,170 49,330 22" stroke="#e6e692" fill="none"/><path d="M2 65 C179 129,158 107,327 37" stroke="#69ddc0" fill="none"/><path fill="#4bdc6f" d="M58.07 81.46L58.21 81.60L58.18 81.57Q62.66 81.05 67.29 81.21L67.28 81.20L67.17 81.09Q67.19 77.48 67.19 74.01L67.20 74.02L67.18 73.99Q67.07 70.31 67.35 66.62L67.42 66.69L67.34 66.62Q65.65 69.16 58.11 81.50ZM72.48 92.18L72.39 92.09L72.49 92.19Q70.10 91.79 67.51 91.68L67.50 91.66L67.50 91.66Q67.21 88.24 67.05 84.66L67.05 84.66L66.96 84.57Q59.34 84.39 52.51 86.42L52.52 86.43L52.38 86.29Q52.58 85.61 52.86 84.18L52.80 84.12L52.90 84.23Q55.49 79.66 60.67 70.57L60.59 70.49L60.74 70.64Q64.77 63.44 69.72 57.82L69.83 57.93L69.87 57.96Q71.11 57.66 73.53 57.27L73.44 57.19L73.45 57.20Q70.73 66.54 70.73 76.73L70.79 76.78L70.66 76.65Q70.65 78.79 70.76 80.93L70.88 81.06L72.76 81.23L72.62 81.09Q73.60 81.24 74.48 81.41L74.55 81.48L74.53 81.45Q74.72 82.91 75.10 85.72L74.94 85.55L74.98 85.60Q73.17 85.16 71.02 84.89L71.10 84.96L71.17 85.04Q71.35 87.80 72.34 92.04ZM74.81 80.80L74.93 80.92L74.89 80.88Q74.59 80.75 74.32 80.75L74.23 80.66L73.74 80.72L73.81 80.80Q73.57 78.57 73.57 76.53L73.57 76.53L73.66 76.63Q73.60 67.31 76.57 58.61L76.60 58.64L76.52 58.56Q75.41 58.94 73.32 59.49L73.30 59.47L73.45 59.62Q73.62 58.36 74.28 56.32L74.43 56.47L74.30 56.34Q72.49 56.95 69.51 57.28L69.58 57.34L69.50 57.27Q63.75 63.46 56.21 77.01L56.23 77.03L59.27 71.76L59.42 71.91Q58.67 73.25 58.28 74.08L58.26 74.05L51.81 87.09L51.91 87.19Q52.76 86.89 54.41 86.34L54.45 86.37L54.27 86.75L54.32 86.80Q54.09 87.73 53.65 89.54L53.57 89.47L53.69 89.58Q59.70 87.72 66.69 87.99L66.67 87.97L66.55 87.85Q66.59 89.21 66.86 92.07L66.98 92.19L66.93 92.14Q68.41 92.08 69.95 92.24L70.08 92.37L70.02 92.31Q70.28 93.34 70.66 95.32L70.60 95.26L70.64 95.30Q73.41 95.65 77.76 96.97L77.67 96.87L77.79 96.99Q76.25 93.81 74.93 89.07L74.88 89.02L77.09 89.80L77.04 89.75Q77.97 90.02 78.96 90.52L79.07 90.62L78.98 90.53Q77.91 86.98 77.69 84.56L77.62 84.49L77.60 84.48Q76.87 84.35 75.22 84.02L75.18 83.98L75.18 83.98Q74.93 82.19 74.93 80.92ZM63.25 80.58L63.23 80.57L63.25 80.58Q64.35 78.72 66.61 75.03L66.70 75.12L66.62 75.04Q66.65 76.45 66.60 77.82L66.51 77.74L66.62 77.84Q66.58 79.23 66.63 80.61L66.56 80.54L66.61 80.58Q65.89 80.63 65.06 80.63L64.97 80.54L64.93 80.50Q64.09 80.54 63.21 80.54Z"/><path d="M11 7 C172 7,175 129,326 75" stroke="#704cdb" fill="none"/><path d="M12 30 C187 74,165 17,336 119" stroke="#85e9d0" fill="none"/><path d="M18 107 C190 33,171 44,341 7" stroke="#87e2b5" fill="none"/></svg>