<svg xmlns="http://www.w3.org/2000/svg" width="342" height="140" viewBox="0,0,342,140"><path d="M19 13 C154 117,175 86,335 73" stroke="#c264e1" fill="none"/><path fill="#7de27d" d="M131.39 76.42L131.41 76.44L131.48 76.51Q128.59 76.52 126.70 78.59L126.68 78.57L126.71 78.60Q124.73 80.58 124.49 83.54L124.50 83.55L124.49 83.54Q124.29 86.94 126.18 88.51L126.10 88.43L126.11 88.44Q128.08 90.09 131.40 89.97L131.31 89.88L131.29 89.86Q135.04 89.77 136.51 88.29L136.45 88.23L136.54 88.31Q138.01 85.94 137.83 83.10L137.92 83.19L137.93 83.19Q137.62 80.17 135.94 78.31L136.04 78.41L136.04 78.41Q134.35 76.54 131.51 76.54ZM131.43 61.86L131.45 61.88L131.35 61.77Q129.30 61.73 127.23 62.50L127.16 62.43L127.14 62.42Q125.05 63.58 125.41 66.48L125.51 66.58L125.49 66.55Q126.18 72.28 131.39 72.28L131.49 72.38L131.57 72.46Q133.80 72.57 135.34 70.79L135.54 70.98L135.45 70.90Q137.07 69.21 137.13 66.79L137.11 66.76L137.10 66.76Q137.19 64.00 136.07 63.06L136.06 63.05L136.12 63.11Q133.40 61.70 131.39 61.81ZM130.92 93.69L130.96 93.73L126.22 93.73L126.30 93.80Q123.94 93.81 121.87 92.45L121.81 92.39L121.88 92.46Q119.62 90.56 119.86 86.12L120.02 86.28L119.85 86.11Q120.70 75.60 126.32 74.07L126.27 74.02L126.19 73.94Q122.80 72.68 120.73 64.34L120.61 64.22L120.73 64.34Q120.03 61.98 120.15 60.74L120.21 60.80L120.28 60.88Q120.76 57.57 126.49 57.51L126.40 57.41L126.45 57.47Q133.09 57.42 135.34 57.72L135.20 57.58L135.23 57.61Q141.32 58.55 142.03 61.69L141.94 61.60L141.89 61.55Q142.06 62.49 142.06 63.08L142.04 63.06L142.07 63.08Q142.20 64.28 141.90 65.22L141.82 65.15L141.77 65.09Q140.86 71.69 136.30 74.06L136.41 74.17L136.39 74.14Q141.84 75.40 142.61 83.62L142.48 83.49L142.47 83.48Q142.54 83.78 142.60 85.80L142.54 85.73L142.51 85.71Q142.73 90.07 140.25 91.72L140.23 91.70L140.22 91.70Q138.05 93.02 130.96 93.73ZM134.50 97.33L134.53 97.36L139.84 97.58L139.76 97.50Q142.39 97.60 144.76 96.47L144.77 96.49L144.78 96.49Q146.51 95.33 146.63 92.43L146.67 92.47L146.71 92.51Q146.72 90.75 146.13 87.73L146.20 87.80L146.08 87.68Q144.68 80.48 141.43 77.59L141.39 77.55L141.24 77.11L140.94 76.69L140.59 76.16L140.59 76.16Q143.21 74.10 144.63 67.66L144.65 67.68L144.61 67.64Q144.55 66.99 144.67 65.68L144.80 65.82L144.75 65.76Q144.79 64.62 144.67 63.68L144.80 63.81L144.75 63.75Q144.40 61.39 142.56 60.62L142.61 60.67L142.80 60.80L142.51 60.63L142.42 60.54Q142.04 59.45 140.20 58.20L140.26 58.26L140.32 58.26L140.24 58.18Q137.21 57.16 130.88 56.87L130.90 56.88L130.81 56.80Q128.37 56.60 126.24 56.78L126.30 56.84L126.24 56.78Q124.98 56.82 122.97 57.06L122.94 57.03L123.01 57.10Q120.06 57.76 119.70 60.30L119.64 60.23L119.56 60.16Q119.63 61.05 119.69 62.29L119.72 62.33L119.70 62.31Q119.76 63.01 120.65 66.68L120.72 66.75L120.69 66.73Q121.86 71.68 124.58 73.75L124.58 73.75L124.75 73.92L124.89 74.06Q120.46 75.95 119.63 84.00L119.65 84.02L119.66 84.03Q119.43 87.53 119.43 88.95L119.34 88.86L119.26 88.78Q119.45 91.63 121.29 93.05L121.22 92.98L121.26 93.03Q121.46 93.16 121.87 93.46L121.92 93.50L121.90 93.49Q123.46 97.00 134.52 97.35ZM133.94 80.09L134.00 80.15L134.11 80.26Q135.52 80.13 136.88 80.84L136.81 80.78L136.86 80.83Q137.34 82.25 137.28 83.08L137.41 83.21L137.38 83.18Q137.48 83.70 137.48 84.17L137.32 84.00L137.47 84.15Q137.47 87.82 133.92 89.12L133.90 89.11L133.86 89.06Q132.51 89.43 131.27 89.25L131.41 89.39L131.44 89.42Q129.58 89.46 127.81 88.75L127.92 88.86L127.82 88.76Q127.53 87.88 127.65 86.34L127.57 86.27L127.51 86.20Q127.88 83.85 129.74 81.96L129.57 81.79L129.63 81.85Q131.56 80.02 134.04 80.20ZM134.36 65.43L134.43 65.51L134.39 65.46Q135.63 65.29 136.46 65.52L136.51 65.57L136.35 66.65L136.37 66.67Q136.53 69.02 135.11 70.59L134.97 70.45L135.11 70.59Q133.54 72.01 131.42 71.71L131.45 71.74L131.38 71.68Q129.94 71.78 129.29 71.42L129.27 71.40L129.27 71.40Q129.31 71.09 129.14 70.03L128.95 69.84L128.99 69.88Q128.63 67.74 130.52 66.44L130.45 66.38L130.57 66.49Q132.23 65.43 134.42 65.49Z"/><path d="M3 31 C171 45,160 136,324 5" stroke="#a060e0" fill="none"/><path d="M7 62 C163 135,190 87,330 88" stroke="#7777de" fill="none"/><path d="M19 57 C173 8,161 31,334 122" stroke="#e55bc3" fill="none"/><path d="M4 131 C179 108,174 10,334 131" stroke="#d380ee" fill="none"/><path d="M11 110 C169 51,180 100,331 131" stroke="#a38aee" fill="none"/><path fill="#cb80e4" d="M211.86 90.13L211.75 90.03L211.79 90.06Q212.34 91.68 213.17 94.82L213.05 94.69L213.11 94.75Q206.56 92.70 199.40 93.11L199.36 93.07L199.35 93.06Q192.25 93.47 186.04 96.55L185.98 96.48L185.95 96.46Q186.40 95.48 186.46 95.60L186.49 95.63L186.47 95.61Q192.33 89.53 198.42 82.67L198.33 82.58L198.27 82.52Q205.23 74.87 207.06 67.59L207.03 67.56L207.09 67.62Q207.68 64.78 205.70 62.95L205.75 63.00L205.70 62.95Q203.87 61.26 201.09 61.50L200.92 61.33L201.09 61.50Q200.57 61.45 200.04 61.45L199.91 61.33L199.97 61.38Q197.57 61.36 195.62 62.77L195.73 62.88L195.59 62.74Q193.68 64.97 194.04 69.11L194.05 69.13L193.93 69.01Q191.14 68.46 189.24 67.75L189.27 67.78L189.33 67.84Q188.92 65.53 188.80 63.28L188.95 63.44L188.79 63.28Q188.75 60.81 189.69 59.04L189.66 59.00L189.69 59.03Q192.50 56.94 197.71 56.94L197.80 57.03L200.46 56.97L200.44 56.95Q203.89 56.91 205.37 57.09L205.53 57.24L205.40 57.12Q212.23 57.86 212.65 61.64L212.54 61.54L212.55 61.55Q212.72 62.48 212.60 63.72L212.68 63.81L212.70 63.83Q212.62 64.81 212.39 65.88L212.26 65.75L212.40 65.89Q209.71 78.34 197.94 88.98L198.01 89.06L197.96 89.01Q200.25 88.88 202.38 88.88L202.31 88.81L202.30 88.79Q207.39 88.85 211.82 90.10ZM210.86 57.67L210.88 57.69L210.84 57.65Q208.43 56.71 205.76 56.59L205.70 56.52L200.34 56.19L200.44 56.29Q193.47 55.83 190.04 57.55L190.07 57.58L190.10 57.61Q188.43 59.73 188.43 62.92L188.40 62.89L188.49 62.98Q188.51 64.06 188.98 68.43L188.91 68.36L188.96 68.41Q189.77 68.75 191.60 69.23L191.53 69.15L191.58 70.80L191.69 70.91Q191.47 71.45 191.59 72.28L191.68 72.38L191.66 72.36Q193.65 72.57 197.50 72.93L197.37 72.80L197.53 72.96Q197.47 72.37 197.47 71.84L197.35 71.72L197.46 71.83Q197.50 69.03 199.39 66.93L199.39 66.93L199.35 66.89Q201.15 64.69 203.93 64.87L204.02 64.96L204.00 64.94Q205.21 65.03 206.40 65.27L206.25 65.12L206.38 65.26Q206.54 65.83 206.66 66.48L206.59 66.41L206.61 66.43Q206.77 67.18 206.65 67.71L206.58 67.64L206.50 67.56Q204.58 74.99 197.72 82.50L197.66 82.44L197.84 82.62Q194.54 86.12 186.08 95.52L185.95 95.39L186.04 95.48Q185.79 96.83 185.26 97.71L185.22 97.68L185.19 97.65Q187.74 96.35 190.10 95.52L190.06 95.48L190.00 95.42Q188.95 96.38 187.47 98.69L187.40 98.61L187.38 98.60Q187.22 99.14 187.04 99.68L187.14 99.77L187.07 99.70Q194.53 96.40 203.04 96.69L203.11 96.76L203.12 96.77Q211.88 96.95 218.98 100.62L219.02 100.66L217.43 97.30L217.61 97.48Q216.48 95.28 216.07 94.04L216.02 93.99L216.18 94.15Q214.87 93.32 212.98 92.67L212.98 92.67L213.03 92.73Q212.88 91.68 212.29 89.55L212.25 89.52L212.28 89.55Q208.85 88.66 205.30 88.37L205.36 88.42L205.35 88.41Q212.62 81.31 214.99 68.48L214.86 68.35L215.11 63.81L215.23 63.93Q215.02 61.06 213.13 60.00L213.20 60.06L213.09 60.02L213.15 60.07Q213.04 59.91 212.92 59.91L212.91 59.90L212.88 59.87Q212.64 58.68 210.93 57.74Z"/><path d="M3 84 C168 101,170 111,328 96" stroke="#bcee8a" fill="none"/><path d="M18 106 C189 69,154 30,325 70" stroke="#e689e6" fill="none"/><path d="M4 75 C151 123,162 87,333 27" stroke="#e7815f" fill="none"/><path d="M14 15 C187 56,157 45,324 90" stroke="#7e5be5" fill="none"/><path d="M13 34 C191 134,162 116,334 56" stroke="#67a5e4" fill="none"/><path d="M16 28 C185 9,169 109,327 20" stroke="#e980cf" fill="none"/><path d="M4 37 C153 84,182 33,335 71" stroke="#ebd289" fill="none"/><path d="M12 126 C173 87,176 133,338 13" stroke="#6384e7" fill="none"/><path d="M20 117 C151 2,186 121,322 76" stroke="#4dd54d" fill="none"/><path d="M19 5 C153 71,168 78,324 116" stroke="#df43b8" fill="none"/><path d="M3 109 C186 81,185 111,330 109" stroke="#e47a7a" fill="none"/><path d="M1 50 C156 112,175 31,335 53" stroke="#d64c6e" fill="none"/><path d="M17 33 C175 4,185 6,336 35" stroke="#87e7e7" fill="none"/><path d="M1 120 C156 117,184 3,338 103" stroke="#90bae4" fill="none"/><path d="M19 68 C173 72,158 65,330 107" stroke="#dc8e74" fill="none"/><path d="M7 49 C186 66,164 2,338 34" stroke="#8eeaa5" fill="none"/><path d="M10 16 C162 138,188 10,341 75" stroke="#9278e2" fill="none"/><path d="M12 37 C175 19,181 76,323 105" stroke="#6a45d7" fill="none"/><path d="M9 98 C151 17,161 65,325 130" stroke="#e49276" fill="none"/><path d="M5 139 C191 139,162 58,333 81" stroke="#ed72ed" fill="none"/><path d="M13 56 C189 16,187 138,330 137" stroke="#71e04c" fill="none"/><path d="M10 79 C179 106,172 15,330 16" stroke="#79c7e0" fill="none"/><path d="M19 19 C179 83,174 135,333 100" stroke="#466de1" fill="none"/><path d="M20 26 C182 94,151 105,330 54" stroke="#71e9ad" fill="none"/><path d="M16 20 C170 63,156 102,334 113" stroke="#e467e4" fill="none"/><path d="M8 69 C158 93,161 131,324 17" stroke="#50e174" fill="none"/><path d="M17 54 C154 72,177 115,330 90" stroke="#ce8ae4" fill="none"/><path d="M7 24 C157 70,151 10,328 37" stroke="#9655d7" fill="none"/><path d="M3 85 C163 113,159 120,326 37" stroke="#9ce584" fill="none"/><path d="M13 90 C153 40,186 129,322 47" stroke="#e06565" fill="none"/><path d="M9 97 C155 92,182 5,325 14" stroke="#3ae2b8" fill="none"/><path d="M7 126 C164 92,165 52,324 78" stroke="#b73edf" fill="none"/><path d="M3 55 C157 113,191 139,337 123" stroke="#dd8163" fill="none"/><path d="M2 44 C175 53,151 83,336 74" stroke="#e37c96" fill="none"/><path fill="#80e480" d="M268.52 67.61L268.37 67.47L268.36 67.45Q263.44 67.51 260.60 65.85L260.58 65.83L260.71 65.96Q264.54 63.75 272.11 57.19L272.05 57.13L272.13 57.21Q273.25 56.90 275.26 55.96L275.21 55.91L275.22 55.92Q273.23 65.23 273.06 75.11L272.94 74.99L272.99 75.05Q272.71 84.82 274.37 94.28L274.50 94.41L274.40 94.32Q271.77 93.16 268.46 92.99L268.56 93.09L268.56 93.09Q268.40 86.65 268.40 80.32L268.31 80.24L268.37 80.29Q268.33 73.87 268.39 67.49ZM267.78 70.95L267.87 93.69L267.74 93.57Q269.82 93.76 271.30 94.05L271.15 93.90L271.30 94.05Q271.23 94.92 271.52 97.05L271.53 97.06L271.65 97.18Q275.99 97.91 279.77 101.40L279.90 101.53L279.91 101.54Q275.91 90.32 275.85 78.73L275.84 78.72L275.84 78.71Q275.83 67.23 278.67 55.99L278.73 56.06L278.65 55.98Q277.75 56.56 275.27 58.28L275.36 58.36L275.40 58.40Q275.74 57.26 276.21 54.90L276.03 54.72L276.11 54.80Q274.10 56.04 271.85 56.63L271.77 56.56L271.73 56.51Q265.97 62.16 259.28 65.71L259.16 65.58L259.32 65.74Q261.39 67.34 265.05 67.87L265.17 67.99L265.17 67.99Q264.05 68.70 262.04 70.36L262.05 70.37L262.12 70.44Q264.41 71.01 267.84 71.01L267.80 70.98Z"/><path fill="#a0e15f" d="M57.46 82.44L57.32 82.30L57.35 82.33Q62.26 81.85 67.23 82.03L67.14 81.94L67.19 81.99Q67.09 77.99 67.09 74.26L67.05 74.22L67.05 74.22Q67.10 70.43 67.39 66.47L67.28 66.36L67.36 66.43Q65.50 69.13 57.40 82.38ZM72.76 93.78L72.85 93.86L72.66 93.68Q70.07 93.21 67.29 93.10L67.48 93.28L67.28 93.09Q67.04 89.47 66.86 85.63L66.84 85.61L66.87 85.64Q58.53 85.29 51.20 87.47L51.37 87.64L51.23 87.50Q51.47 86.80 51.77 85.26L51.85 85.35L51.70 85.19Q54.62 80.42 60.18 70.66L60.02 70.51L60.04 70.53Q64.60 63.02 69.92 56.99L70.01 57.08L69.82 56.89Q71.28 56.69 73.88 56.28L73.85 56.25L73.92 56.31Q70.87 66.21 70.87 77.15L70.96 77.24L70.87 77.16Q70.94 79.54 71.06 81.84L71.00 81.78L73.08 82.03L73.04 81.99Q74.04 82.10 74.98 82.28L75.05 82.34L75.00 82.29Q75.13 83.79 75.55 86.80L75.52 86.78L75.50 86.75Q73.63 86.37 71.32 86.07L71.29 86.03L71.36 86.10Q71.65 89.17 72.71 93.73ZM75.31 81.59L75.42 81.71L75.31 81.60Q75.15 81.61 74.85 81.61L74.86 81.63L74.23 81.59L74.19 81.54Q74.08 79.31 74.08 77.12L73.94 76.97L73.97 77.00Q73.94 67.04 77.13 57.69L77.21 57.77L77.21 57.77Q75.93 58.09 73.68 58.68L73.86 58.85L73.70 58.70Q74.20 57.66 74.91 55.47L74.81 55.37L74.82 55.38Q72.91 56.07 69.71 56.42L69.55 56.26L69.61 56.32Q63.45 63.00 55.35 77.55L55.35 77.54L58.65 71.92L58.72 71.98Q58.07 73.59 57.66 74.47L57.55 74.37L50.69 88.44L50.71 88.47Q51.67 88.18 53.45 87.59L53.56 87.71L53.18 87.92L53.16 87.90Q53.10 89.08 52.63 91.03L52.50 90.90L52.55 90.95Q58.88 88.83 66.39 89.12L66.40 89.13L66.56 89.29Q66.59 90.74 66.89 93.81L66.77 93.70L66.82 93.75Q68.45 93.72 70.10 93.90L70.07 93.86L70.21 94.00Q70.40 95.02 70.81 97.15L70.80 97.14L70.79 97.12Q73.83 97.56 78.50 98.98L78.36 98.84L78.44 98.92Q76.93 95.64 75.51 90.55L75.45 90.49L77.82 91.32L77.79 91.29Q78.86 91.66 79.93 92.19L79.91 92.17L79.81 92.07Q78.69 88.29 78.46 85.69L78.47 85.70L78.29 85.52Q77.55 85.43 75.77 85.08L75.77 85.07L75.76 85.06Q75.32 82.97 75.32 81.61ZM63.01 81.49L63.00 81.47L63.04 81.51Q64.15 79.42 66.57 75.46L66.59 75.48L66.51 75.40Q66.46 76.83 66.40 78.31L66.52 78.43L66.51 78.42Q66.57 80.02 66.63 81.50L66.57 81.43L66.46 81.33Q65.70 81.39 64.81 81.39L64.82 81.40L64.76 81.33Q63.95 81.48 63.01 81.48Z"/></svg>