<svg xmlns="http://www.w3.org/2000/svg" width="342" height="140" viewBox="0,0,342,140"><path d="M13 40 C169 93,185 2,329 34" stroke="#6cdea5" fill="none"/><path d="M1 78 C185 68,190 79,324 28" stroke="#3fe8be" fill="none"/><path d="M17 71 C174 75,180 31,326 26" stroke="#64a5e6" fill="none"/><path d="M17 52 C164 71,177 122,323 52" stroke="#c5e36d" fill="none"/><path d="M17 33 C160 91,151 60,341 117" stroke="#84cde5" fill="none"/><path d="M15 122 C183 110,162 34,324 38" stroke="#7acae4" fill="none"/><path d="M2 115 C182 106,157 39,324 132" stroke="#41e693" fill="none"/><path d="M4 95 C156 92,174 68,337 38" stroke="#9bd95d" fill="none"/><path fill="#e8ba8b" d="M195.39 93.55L195.39 93.54L195.50 93.65Q189.17 93.93 187.65 90.36L187.64 90.35L187.69 90.40Q188.91 88.99 191.31 86.25L191.33 86.26L191.28 86.22Q192.03 89.31 196.65 89.48L196.60 89.43L196.63 89.46Q201.75 89.50 204.27 87.45L204.42 87.61L204.40 87.59Q206.45 85.02 206.33 80.87L206.48 81.02L206.42 80.95Q206.18 73.17 198.81 73.52L198.71 73.42L198.82 73.53Q194.51 73.78 191.82 75.71L191.74 75.63L191.31 75.43L191.03 75.27L191.00 75.24Q191.44 70.31 191.27 66.10L191.40 66.23L191.34 66.17Q191.05 62.02 190.52 56.93L190.63 57.04L190.53 56.94Q196.27 58.52 202.11 58.35L202.01 58.24L202.03 58.27Q207.91 58.19 213.41 56.26L213.36 56.20L212.61 58.67L212.50 58.56Q212.04 59.74 211.74 61.02L211.82 61.10L211.71 60.99Q206.96 62.61 201.00 62.61L201.01 62.62L201.11 62.72Q198.72 62.56 196.44 62.32L196.50 62.38L196.43 62.31Q196.30 63.36 195.78 70.20L195.95 70.37L195.84 70.26Q197.11 69.54 200.27 69.31L200.32 69.36L200.25 69.29Q206.14 69.81 208.37 72.38L208.22 72.23L208.36 72.37Q210.35 74.60 210.76 80.50L210.71 80.45L210.70 80.45Q211.22 86.98 209.35 90.08L209.31 90.04L209.27 90.01Q206.19 92.95 201.10 93.30L201.08 93.27L201.22 93.41Q199.49 93.32 195.40 93.55ZM204.81 97.18L204.81 97.18L204.79 97.15Q210.06 97.28 212.98 95.59L213.00 95.60L212.92 95.52Q214.41 93.16 214.41 89.94L214.50 90.03L214.56 90.09Q214.40 85.19 212.94 78.88L212.97 78.91L212.95 78.89Q212.43 76.26 210.55 74.10L210.48 74.02L210.63 74.23L210.21 73.70L209.66 73.38L209.77 73.49Q209.28 72.35 208.28 71.30L208.32 71.34L208.26 71.34L208.31 71.39Q205.97 68.81 200.30 68.81L200.28 68.80L199.76 68.68L199.86 68.78Q199.98 67.91 200.28 66.22L200.33 66.27L200.25 66.19Q207.88 66.34 214.08 63.82L214.09 63.84L214.16 63.91Q214.70 61.64 216.16 57.32L216.13 57.29L213.03 58.86L213.03 58.86Q213.67 57.16 214.43 55.41L214.29 55.27L214.32 55.30Q208.54 57.64 202.22 57.76L202.15 57.68L202.23 57.76Q195.80 57.82 189.72 56.13L189.80 56.21L189.70 56.11Q190.77 62.91 190.77 69.69L190.80 69.72L190.71 69.63Q190.72 72.56 190.54 75.49L190.66 75.60L190.59 75.54Q191.02 75.85 191.90 76.32L191.89 76.30L191.99 76.41Q192.36 75.90 193.36 75.38L193.46 75.48L193.43 75.45Q193.30 76.55 192.95 78.88L192.94 78.87L192.97 78.91Q193.61 79.19 194.25 79.54L194.27 79.56L194.20 79.49Q198.49 76.82 201.35 76.82L201.49 76.96L201.43 76.90Q203.42 76.85 205.23 77.84L205.22 77.83L205.31 77.92Q205.81 79.47 205.87 80.93L205.81 80.87L205.83 80.89Q205.90 84.82 204.32 86.52L204.37 86.56L204.36 86.55Q202.31 88.48 198.86 88.83L198.95 88.92L198.91 88.88Q197.36 88.91 196.30 88.79L196.33 88.81L196.44 88.92Q195.07 88.66 193.90 88.14L193.89 88.13L193.89 87.83L193.67 87.97L193.75 88.04Q192.50 87.27 191.68 85.22L191.51 85.04L191.69 85.23Q189.59 87.33 187.02 90.61L186.97 90.56L186.90 90.49Q187.48 91.60 188.77 93.06L188.74 93.03L188.71 93.01Q190.45 95.92 194.78 96.68L194.61 96.51L194.61 96.51Q196.61 97.04 204.85 97.22Z"/><path d="M19 65 C158 123,152 44,322 71" stroke="#d18ae9" fill="none"/><path d="M15 42 C184 57,178 9,323 85" stroke="#b2e084" fill="none"/><path fill="#d85979" d="M57.57 82.28L57.58 82.29L57.50 82.21Q62.33 81.72 67.24 81.90L67.11 81.77L67.13 81.78Q67.16 77.96 67.16 74.28L67.04 74.16L67.04 74.16Q67.00 70.32 67.30 66.40L67.48 66.58L67.38 66.49Q65.53 69.14 57.52 82.23ZM72.73 93.53L72.62 93.42L72.77 93.57Q70.20 93.10 67.45 92.98L67.40 92.93L67.35 92.88Q67.07 89.27 66.90 85.47L66.83 85.40L66.93 85.50Q58.76 85.23 51.51 87.39L51.56 87.44L51.46 87.34Q51.63 86.57 51.92 85.05L51.94 85.08L51.88 85.01Q54.61 80.14 60.10 70.49L60.10 70.49L60.12 70.51Q64.73 63.20 69.99 57.23L69.88 57.12L69.91 57.15Q71.22 56.83 73.80 56.42L73.83 56.45L73.85 56.47Q70.98 66.40 70.98 77.22L70.99 77.23L70.88 77.12Q70.88 79.40 71.00 81.68L70.94 81.62L72.95 81.82L72.92 81.79Q73.86 81.86 74.80 82.03L74.88 82.11L74.89 82.12Q75.12 83.70 75.53 86.68L75.43 86.58L75.36 86.51Q73.50 86.11 71.22 85.82L71.21 85.81L71.37 85.97Q71.58 88.93 72.64 93.43ZM75.33 81.57L75.36 81.60L75.27 81.51Q75.01 81.42 74.71 81.42L74.61 81.32L74.06 81.35L74.06 81.35Q73.92 79.11 73.92 76.94L73.84 76.86L73.93 76.95Q73.90 67.10 77.06 57.86L77.06 57.87L77.14 57.94Q75.97 58.35 73.75 58.94L73.77 58.97L73.64 58.83Q74.11 57.79 74.82 55.62L74.82 55.62L74.70 55.51Q72.67 56.05 69.52 56.40L69.69 56.58L69.62 56.50Q63.58 63.16 55.57 77.54L55.53 77.50L58.74 71.87L58.71 71.84Q58.18 73.53 57.77 74.41L57.72 74.36L50.92 88.26L50.85 88.19Q51.89 88.00 53.64 87.42L53.65 87.42L53.32 87.68L53.49 87.85Q53.23 88.82 52.76 90.75L52.86 90.84L52.86 90.84Q59.10 88.73 66.53 89.02L66.42 88.91L66.44 88.93Q66.57 90.46 66.86 93.50L66.92 93.57L66.94 93.58Q68.58 93.59 70.22 93.76L70.09 93.63L70.18 93.72Q70.31 94.67 70.72 96.78L70.86 96.92L70.72 96.78Q73.75 97.23 78.37 98.64L78.29 98.56L78.29 98.56Q76.70 95.22 75.30 90.19L75.34 90.23L77.69 91.06L77.66 91.03Q78.67 91.34 79.72 91.86L79.65 91.79L79.69 91.83Q78.55 88.06 78.31 85.49L78.35 85.53L78.34 85.51Q77.42 85.23 75.66 84.88L75.71 84.93L75.67 84.89Q75.27 82.85 75.27 81.51ZM63.04 81.33L63.00 81.28L63.07 81.36Q64.26 79.38 66.65 75.46L66.48 75.29L66.66 75.47Q66.52 76.79 66.46 78.26L66.59 78.39L66.47 78.26Q66.44 79.76 66.50 81.22L66.49 81.21L66.65 81.36Q65.66 81.20 64.79 81.20L64.77 81.18L64.73 81.14Q63.92 81.27 62.99 81.27Z"/><path d="M17 43 C167 66,190 50,341 116" stroke="#77e8cc" fill="none"/><path d="M12 120 C184 109,156 76,326 89" stroke="#c7e372" fill="none"/><path d="M13 121 C180 91,169 23,332 7" stroke="#9be650" fill="none"/><path d="M11 48 C186 96,183 59,326 46" stroke="#ba83f1" fill="none"/><path d="M4 116 C178 18,168 125,327 33" stroke="#bfe54c" fill="none"/><path d="M17 72 C181 61,166 46,324 120" stroke="#3a3ae2" fill="none"/><path d="M12 98 C177 127,182 103,327 3" stroke="#e84ec1" fill="none"/><path d="M18 60 C161 46,191 101,335 40" stroke="#4fddb9" fill="none"/><path d="M3 41 C174 36,159 47,338 17" stroke="#b1d34a" fill="none"/><path d="M1 108 C166 44,164 37,327 120" stroke="#e146ba" fill="none"/><path d="M3 51 C178 138,170 21,336 70" stroke="#96dc50" fill="none"/><path d="M12 20 C151 125,151 89,325 131" stroke="#74e0e0" fill="none"/><path d="M8 75 C185 86,170 67,328 88" stroke="#8ccde3" fill="none"/><path d="M3 15 C166 77,154 10,326 36" stroke="#82e2e2" fill="none"/><path d="M13 49 C188 63,172 88,332 5" stroke="#48de93" fill="none"/><path d="M20 117 C163 128,180 69,332 102" stroke="#e5bc94" fill="none"/><path d="M3 119 C159 93,171 49,328 61" stroke="#7feaea" fill="none"/><path d="M6 92 C187 88,157 113,327 111" stroke="#44d88e" fill="none"/><path d="M20 84 C183 97,174 131,330 21" stroke="#48bde4" fill="none"/><path d="M12 103 C172 103,154 20,321 18" stroke="#ef7aef" fill="none"/><path d="M5 75 C181 114,183 11,341 91" stroke="#9e84ea" fill="none"/><path d="M2 2 C167 54,164 49,340 93" stroke="#ad79e0" fill="none"/><path d="M8 48 C166 3,186 73,324 18" stroke="#8a8ae4" fill="none"/><path fill="#5d5ddf" d="M267.53 76.43L267.43 76.33L267.55 76.45Q264.68 76.45 262.81 78.49L262.83 78.52L262.89 78.58Q260.89 80.49 260.66 83.41L260.63 83.39L260.71 83.47Q260.37 86.70 262.24 88.25L262.21 88.21L262.23 88.24Q264.07 89.75 267.34 89.63L267.47 89.76L267.50 89.79Q270.95 89.44 272.41 87.98L272.51 88.08L272.48 88.04Q274.08 85.85 273.90 83.04L273.88 83.02L273.76 82.90Q273.67 80.12 272.01 78.28L272.09 78.36L272.09 78.37Q270.42 76.51 267.61 76.51ZM267.42 61.88L267.40 61.87L267.46 61.93Q265.29 61.74 263.24 62.50L263.27 62.53L263.29 62.55Q261.18 63.66 261.54 66.52L261.53 66.52L261.54 66.53Q262.37 72.32 267.51 72.32L267.55 72.36L267.45 72.27Q269.99 72.70 271.51 70.94L271.54 70.97L271.45 70.88Q273.01 69.17 273.07 66.77L273.12 66.82L273.08 66.79Q273.17 64.07 272.06 63.13L271.96 63.03L272.00 63.07Q269.46 61.82 267.47 61.94ZM267.04 93.48L267.00 93.44L262.33 93.45L262.43 93.55Q260.12 93.58 258.08 92.24L258.01 92.17L257.92 92.08Q255.84 90.35 256.07 85.96L256.10 86.00L256.21 86.10Q256.74 75.41 262.29 73.89L262.41 74.01L262.30 73.89Q258.82 72.52 256.78 64.28L256.86 64.36L256.90 64.40Q256.22 62.08 256.34 60.85L256.48 60.99L256.37 60.89Q256.98 57.76 262.65 57.70L262.65 57.70L262.52 57.56Q268.96 57.40 271.18 57.69L271.35 57.86L271.22 57.73Q277.17 58.60 277.87 61.70L277.80 61.62L277.95 61.77Q278.06 62.64 278.06 63.22L278.02 63.19L278.04 63.21Q278.08 64.30 277.79 65.24L277.78 65.23L277.85 65.29Q276.79 71.66 272.29 74.00L272.24 73.95L272.25 73.96Q277.71 75.27 278.47 83.40L278.39 83.31L278.52 83.45Q278.45 83.62 278.51 85.60L278.51 85.60L278.46 85.55Q278.61 89.79 276.15 91.43L276.20 91.48L276.25 91.53Q274.13 92.86 267.11 93.56ZM270.65 97.15L270.64 97.15L275.65 97.13L275.78 97.26Q278.39 97.35 280.73 96.24L280.70 96.21L280.72 96.23Q282.44 95.08 282.55 92.22L282.59 92.25L282.63 92.29Q282.59 90.50 282.00 87.52L282.06 87.57L282.04 87.55Q280.53 80.31 277.31 77.45L277.47 77.60L277.12 76.97L276.90 76.63L276.65 76.20L276.57 76.12Q279.04 73.97 280.44 67.59L280.45 67.61L280.56 67.71Q280.53 67.10 280.64 65.81L280.68 65.85L280.59 65.76Q280.67 64.67 280.55 63.73L280.65 63.83L280.57 63.75Q280.49 61.68 278.67 60.92L278.52 60.76L278.59 60.77L278.40 60.70L278.39 60.69Q277.96 59.56 276.15 58.34L276.12 58.30L276.14 58.26L276.10 58.23Q273.12 57.24 266.87 56.95L266.80 56.88L266.83 56.91Q264.52 56.82 262.41 56.99L262.30 56.88L262.47 57.05Q261.07 56.93 259.08 57.17L259.12 57.21L259.21 57.30Q256.25 57.91 255.90 60.42L255.83 60.35L255.82 60.34Q255.75 61.08 255.81 62.31L255.74 62.25L255.83 62.34Q256.03 63.18 256.91 66.80L256.82 66.72L256.82 66.72Q258.13 71.77 260.82 73.82L260.83 73.83L260.94 73.93L260.96 73.95Q256.60 75.85 255.78 83.80L255.76 83.78L255.84 83.86Q255.63 87.34 255.63 88.74L255.50 88.60L255.50 88.61Q255.60 91.33 257.41 92.74L257.41 92.74L257.53 92.86Q257.63 92.91 258.04 93.20L258.09 93.24L258.04 93.19Q259.66 96.75 270.60 97.10ZM270.08 80.09L270.13 80.14L270.09 80.11Q271.48 79.98 272.83 80.68L272.81 80.66L272.86 80.71Q273.41 82.20 273.36 83.02L273.36 83.02L273.32 82.98Q273.28 83.35 273.28 83.82L273.31 83.85L273.38 83.92Q273.38 87.54 269.87 88.83L269.79 88.75L269.82 88.78Q268.71 89.37 267.48 89.19L267.44 89.14L267.40 89.10Q265.79 89.36 264.03 88.66L264.06 88.69L263.98 88.61Q263.64 87.68 263.76 86.16L263.69 86.10L263.58 85.99Q263.93 83.65 265.78 81.78L265.73 81.74L265.73 81.74Q267.60 79.89 270.05 80.07ZM270.32 65.42L270.42 65.52L270.33 65.44Q271.59 65.30 272.41 65.53L272.47 65.59L272.50 66.84L272.48 66.83Q272.34 68.85 270.94 70.40L271.13 70.59L271.02 70.48Q269.68 72.09 267.57 71.80L267.53 71.76L267.53 71.75Q265.96 71.71 265.32 71.36L265.27 71.31L265.43 71.47Q265.39 71.08 265.21 70.02L265.16 69.97L265.07 69.88Q264.72 67.78 266.59 66.49L266.63 66.53L266.58 66.48Q268.18 65.39 270.34 65.45Z"/><path d="M12 49 C179 64,173 93,322 93" stroke="#61e9e9" fill="none"/><path d="M2 11 C163 42,175 124,327 65" stroke="#e598bf" fill="none"/><path d="M15 5 C155 89,176 24,334 94" stroke="#809cee" fill="none"/><path d="M4 107 C187 79,178 108,340 45" stroke="#a8ec63" fill="none"/><path d="M16 126 C179 83,168 114,331 116" stroke="#9b58de" fill="none"/><path d="M11 138 C161 53,169 50,330 129" stroke="#47ea99" fill="none"/><path fill="#46e56e" d="M131.46 76.37L131.48 76.39L131.61 76.51Q128.59 76.35 126.72 78.40L126.88 78.57L126.71 78.39Q124.99 80.59 124.76 83.52L124.69 83.44L124.67 83.43Q124.43 86.76 126.30 88.31L126.17 88.18L126.23 88.23Q128.05 89.73 131.32 89.62L131.46 89.75L131.43 89.72Q135.06 89.56 136.53 88.09L136.41 87.97L136.49 88.06Q138.12 85.88 137.94 83.08L137.92 83.06L137.76 82.89Q137.70 80.15 136.03 78.30L135.96 78.24L136.00 78.27Q134.24 76.34 131.44 76.34ZM131.50 61.96L131.40 61.87L131.48 61.94Q129.25 61.70 127.20 62.46L127.31 62.57L127.21 62.47Q125.22 63.69 125.57 66.56L125.60 66.59L125.59 66.57Q126.39 72.34 131.53 72.34L131.59 72.40L131.48 72.29Q133.96 72.67 135.48 70.91L135.54 70.97L135.48 70.91Q136.88 69.03 136.93 66.64L137.08 66.78L136.95 66.66Q137.08 63.98 135.97 63.04L136.04 63.12L135.99 63.06Q133.51 61.86 131.52 61.98ZM130.97 93.41L131.08 93.52L126.29 93.41L126.38 93.50Q124.13 93.59 122.08 92.24L122.04 92.20L122.04 92.20Q119.93 90.44 120.17 86.06L120.08 85.97L120.19 86.08Q120.81 75.47 126.36 73.95L126.40 73.99L126.34 73.93Q122.91 72.61 120.86 64.36L120.92 64.42L120.78 64.28Q120.36 62.22 120.47 60.99L120.46 60.98L120.35 60.87Q120.94 57.72 126.61 57.66L126.55 57.59L126.57 57.62Q133.09 57.53 135.31 57.82L135.25 57.76L135.19 57.70Q141.20 58.63 141.90 61.72L141.96 61.78L141.78 61.60Q142.08 62.66 142.08 63.25L142.01 63.17L142.09 63.26Q142.13 64.35 141.84 65.28L141.74 65.19L141.77 65.22Q140.88 71.76 136.38 74.09L136.37 74.09L136.37 74.08Q141.60 75.16 142.36 83.29L142.38 83.30L142.45 83.38Q142.37 83.53 142.42 85.52L142.57 85.66L142.42 85.51Q142.71 89.89 140.25 91.53L140.16 91.43L140.14 91.42Q138.09 92.82 131.08 93.52ZM134.59 97.09L134.49 97.00L139.65 97.13L139.79 97.26Q142.39 97.35 144.73 96.24L144.77 96.28L144.61 96.12Q146.54 95.18 146.65 92.32L146.52 92.18L146.63 92.29Q146.52 90.43 145.93 87.45L145.96 87.47L145.93 87.44Q144.55 80.33 141.33 77.46L141.42 77.56L141.14 76.98L140.76 76.48L140.68 76.23L140.60 76.15Q143.20 74.13 144.61 67.76L144.52 67.68L144.52 67.67Q144.52 67.09 144.64 65.80L144.68 65.85L144.70 65.86Q144.76 64.75 144.64 63.82L144.63 63.81L144.62 63.80Q144.39 61.58 142.57 60.82L142.48 60.72L142.67 60.86L142.34 60.64L142.36 60.66Q141.98 59.58 140.16 58.35L140.13 58.32L140.23 58.36L140.10 58.23Q137.05 57.16 130.79 56.87L130.95 57.02L130.87 56.95Q128.44 56.74 126.33 56.91L126.46 57.04L126.36 56.94Q125.16 57.03 123.17 57.26L123.22 57.31L123.21 57.30Q120.20 57.85 119.84 60.36L119.79 60.31L119.86 60.38Q119.74 61.08 119.80 62.31L119.80 62.31L119.79 62.30Q119.99 63.14 120.87 66.76L120.93 66.83L120.92 66.82Q122.16 71.80 124.85 73.85L124.76 73.75L125.00 73.99L124.93 73.93Q120.67 75.92 119.85 83.88L119.91 83.93L119.84 83.86Q119.56 87.26 119.56 88.67L119.61 88.72L119.53 88.64Q119.72 91.46 121.53 92.86L121.43 92.76L121.52 92.85Q121.68 92.95 122.09 93.24L122.02 93.17L122.13 93.28Q123.64 96.72 134.57 97.07ZM134.07 80.09L133.98 79.99L134.04 80.06Q135.42 79.91 136.76 80.62L136.84 80.69L136.71 80.56Q137.39 82.18 137.34 83.00L137.41 83.07L137.33 83.00Q137.47 83.55 137.47 84.01L137.38 83.92L137.34 83.88Q137.39 87.55 133.88 88.84L133.85 88.81L133.91 88.87Q132.73 89.38 131.50 89.21L131.48 89.19L131.51 89.21Q129.79 89.37 128.03 88.67L128.05 88.68L127.88 88.51Q127.51 87.56 127.63 86.04L127.66 86.06L127.64 86.05Q127.84 83.55 129.68 81.68L129.77 81.77L129.82 81.83Q131.51 79.81 133.97 79.98ZM134.43 65.53L134.38 65.49L134.30 65.40Q135.65 65.36 136.47 65.59L136.44 65.56L136.45 66.79L136.35 66.70Q136.35 68.86 134.95 70.41L135.03 70.49L134.98 70.44Q133.68 72.10 131.58 71.80L131.55 71.78L131.45 71.67Q129.98 71.73 129.34 71.38L129.30 71.34L129.38 71.41Q129.35 71.04 129.18 69.99L129.18 69.99L129.18 69.99Q128.82 67.87 130.69 66.59L130.57 66.47L130.54 66.44Q132.16 65.37 134.32 65.43Z"/><path d="M7 111 C191 111,169 75,332 34" stroke="#e3b78c" fill="none"/></svg>