<svg xmlns="http://www.w3.org/2000/svg" width="342" height="140" viewBox="0,0,342,140"><path d="M19 7 C157 8,175 134,338 11" stroke="#6584e0" fill="none"/><path d="M16 74 C174 138,190 2,328 78" stroke="#97e07f" fill="none"/><path d="M17 110 C185 17,157 97,330 17" stroke="#81e881" fill="none"/><path d="M14 18 C188 55,188 91,332 71" stroke="#5a7de6" fill="none"/><path d="M18 10 C188 73,177 88,334 10" stroke="#cd74eb" fill="none"/><path d="M6 66 C177 125,179 49,321 67" stroke="#5ca3e9" fill="none"/><path d="M11 82 C168 131,180 62,326 131" stroke="#e439e4" fill="none"/><path d="M2 34 C177 127,156 75,325 130" stroke="#84efba" fill="none"/><path d="M19 107 C155 128,179 57,337 115" stroke="#e6c255" fill="none"/><path d="M14 69 C175 85,170 87,331 31" stroke="#c352e9" fill="none"/><path d="M6 61 C161 78,169 76,326 106" stroke="#ca62ed" fill="none"/><path d="M9 31 C187 108,162 115,324 52" stroke="#6edda5" fill="none"/><path d="M20 138 C174 134,158 55,324 1" stroke="#ebd07e" fill="none"/><path d="M14 24 C183 115,186 23,334 30" stroke="#e990a6" fill="none"/><path d="M19 115 C165 123,154 110,333 91" stroke="#e688a0" fill="none"/><path d="M19 89 C165 89,188 50,336 23" stroke="#e6bf4b" fill="none"/><path d="M14 2 C185 116,192 129,326 17" stroke="#e471aa" fill="none"/><path d="M14 4 C172 59,182 29,328 124" stroke="#ade179" fill="none"/><path d="M5 31 C159 41,178 1,340 78" stroke="#aa74e1" fill="none"/><path d="M14 55 C184 127,150 78,333 65" stroke="#e759e7" fill="none"/><path d="M18 13 C166 83,164 60,340 35" stroke="#8ce7d0" fill="none"/><path d="M14 66 C156 47,176 139,322 88" stroke="#d65656" fill="none"/><path fill="#5858e3" d="M273.40 73.26L273.30 73.16L273.38 73.24Q274.61 73.28 276.69 73.06L276.55 72.91L276.54 72.90Q276.60 73.98 276.60 74.94L276.52 74.86L276.64 76.84L276.47 76.67Q275.33 76.78 274.09 76.89L274.03 76.83L274.01 76.81Q272.91 77.00 271.67 76.94L271.61 76.89L271.66 76.94Q267.29 85.94 262.21 92.77L262.37 92.92L262.39 92.95Q258.55 93.79 256.63 94.69L256.64 94.70L256.72 94.78Q262.77 86.27 267.28 76.96L267.21 76.89L263.40 76.98L263.43 77.01Q263.40 75.00 263.23 73.02L263.26 73.05L263.11 72.90Q265.96 73.16 269.01 73.16L268.98 73.13L271.91 67.76L271.92 67.77Q273.31 64.88 275.12 62.51L275.10 62.50L275.13 62.53Q272.76 62.69 270.39 62.69L270.39 62.69L270.38 62.68Q261.55 62.88 255.96 59.60L255.85 59.49L254.98 57.04L254.96 57.02Q254.46 55.79 253.89 54.49L253.75 54.35L253.81 54.41Q260.26 58.31 268.72 58.65L268.66 58.59L268.71 58.64Q276.42 59.07 284.03 56.14L283.87 55.97L284.03 56.13Q283.63 56.64 282.90 57.94L283.02 58.06L282.99 58.02Q277.67 65.12 273.44 73.30ZM285.23 59.92L285.24 59.93L286.72 56.96L286.69 56.93Q285.29 57.67 282.81 58.75L282.99 58.92L283.08 58.28L283.17 58.38Q283.27 58.08 283.44 57.91L283.43 57.90L283.58 58.06Q284.02 56.91 285.09 54.94L285.07 54.92L285.21 55.05Q277.16 58.29 268.64 57.95L268.80 58.11L268.68 57.99Q259.75 57.58 252.69 53.18L252.79 53.28L252.75 53.23Q254.27 55.99 255.51 59.94L255.46 59.89L255.57 60.00Q257.07 60.83 258.26 61.28L258.25 61.27L258.32 61.34Q258.64 61.95 259.32 64.71L259.28 64.67L259.17 64.57Q263.87 66.44 272.05 66.21L272.05 66.21L272.17 66.33Q271.57 67.03 268.64 72.62L268.82 72.80L268.68 72.66Q265.73 72.76 262.80 72.48L262.81 72.49L262.66 72.34Q262.79 73.60 262.79 74.89L262.76 74.87L262.88 77.53L265.43 77.60L265.29 79.54L265.31 79.56Q259.54 90.55 255.42 95.85L255.34 95.77L255.45 95.88Q257.83 94.76 260.26 94.03L260.30 94.08L260.27 94.04Q259.13 95.27 257.10 97.81L257.08 97.79L257.07 97.79Q261.78 96.17 265.39 95.84L265.47 95.91L265.45 95.90Q269.77 90.29 274.40 80.24L274.50 80.34L279.52 80.57L279.45 80.50Q279.43 79.24 279.43 77.88L279.34 77.79L279.43 75.23L279.48 75.28Q278.95 75.15 278.13 75.20L278.14 75.21L278.17 75.24Q277.42 75.37 277.03 75.37L277.01 75.35L276.88 75.22Q276.91 75.08 276.97 74.86L277.03 74.92L276.94 74.43L276.92 74.42Q280.76 66.92 285.33 60.03Z"/><path d="M6 76 C185 60,190 133,328 2" stroke="#dcbb5a" fill="none"/><path d="M11 98 C153 103,178 52,324 18" stroke="#42e5e5" fill="none"/><path d="M10 55 C175 21,155 98,335 137" stroke="#df57df" fill="none"/><path d="M8 19 C162 120,181 77,332 15" stroke="#7eafe1" fill="none"/><path d="M20 15 C151 132,158 43,328 138" stroke="#99e051" fill="none"/><path d="M16 133 C152 95,166 126,322 125" stroke="#d64c4c" fill="none"/><path d="M14 58 C162 79,166 44,322 81" stroke="#7f7fef" fill="none"/><path d="M14 36 C180 58,159 114,323 35" stroke="#5656e5" fill="none"/><path d="M16 137 C156 119,157 59,335 96" stroke="#61e983" fill="none"/><path d="M6 68 C159 117,160 109,339 137" stroke="#84efba" fill="none"/><path d="M14 130 C183 110,156 29,324 108" stroke="#d6b75b" fill="none"/><path d="M19 79 C150 41,192 32,339 26" stroke="#e33f68" fill="none"/><path d="M14 99 C155 128,169 54,331 89" stroke="#dcc274" fill="none"/><path fill="#da4db7" d="M59.80 92.83L59.79 92.82L59.78 92.82Q53.68 93.09 52.22 89.65L52.33 89.76L52.19 89.62Q53.33 88.23 55.65 85.58L55.71 85.64L55.69 85.62Q56.45 88.64 60.91 88.80L60.81 88.71L60.85 88.75Q65.93 88.92 68.36 86.95L68.30 86.89L68.35 86.94Q70.51 84.64 70.40 80.64L70.35 80.59L70.29 80.53Q70.15 73.11 63.04 73.45L63.04 73.45L63.06 73.47Q58.71 73.52 56.11 75.38L56.29 75.56L55.75 75.25L55.50 75.11L55.48 75.09Q55.97 70.38 55.80 66.32L55.69 66.21L55.83 66.35Q55.49 62.29 54.98 57.38L55.12 57.52L55.18 57.57Q60.56 58.95 66.20 58.78L66.09 58.67L66.13 58.71Q71.77 58.59 77.08 56.73L77.14 56.79L76.29 59.05L76.23 58.99Q75.79 60.13 75.51 61.38L75.43 61.30L75.51 61.38Q70.95 62.96 65.19 62.96L65.17 62.93L65.05 62.82Q62.98 62.89 60.78 62.67L60.75 62.63L60.84 62.73Q60.69 63.70 60.18 70.31L60.08 70.21L60.21 70.33Q61.49 69.69 64.53 69.47L64.50 69.43L64.35 69.29Q70.03 69.77 72.17 72.25L72.03 72.11L72.07 72.15Q74.22 74.53 74.62 80.23L74.62 80.23L74.50 80.11Q74.95 86.37 73.14 89.36L73.20 89.42L73.18 89.40Q70.13 92.16 65.22 92.50L65.14 92.42L65.14 92.42Q63.63 92.49 59.68 92.71ZM68.79 96.24L68.80 96.25L68.74 96.19Q73.80 96.28 76.62 94.64L76.63 94.65L76.63 94.65Q78.10 92.40 78.10 89.30L78.15 89.35L78.09 89.29Q78.17 84.79 76.76 78.70L76.67 78.61L76.65 78.59Q76.20 76.11 74.39 74.02L74.30 73.93L74.40 74.09L74.13 73.70L73.48 73.28L73.49 73.29Q73.03 72.21 72.07 71.19L72.10 71.22L72.08 71.26L72.18 71.35Q69.84 68.80 64.37 68.80L64.47 68.89L63.92 68.74L63.94 68.76Q64.16 68.02 64.44 66.38L64.43 66.37L64.43 66.37Q71.77 66.50 77.75 64.07L77.73 64.05L77.76 64.08Q78.31 61.92 79.72 57.74L79.83 57.85L76.65 59.19L76.68 59.22Q77.24 57.51 77.97 55.82L77.91 55.76L77.92 55.77Q72.19 57.89 66.10 58.00L66.17 58.07L66.22 58.12Q60.02 58.18 54.15 56.55L54.14 56.54L54.32 56.71Q55.29 63.22 55.29 69.76L55.23 69.70L55.30 69.77Q55.20 72.49 55.03 75.31L55.08 75.36L55.10 75.38Q55.44 75.60 56.28 76.06L56.38 76.15L56.41 76.18Q56.89 75.81 57.85 75.31L57.74 75.20L57.75 75.21Q57.71 76.36 57.37 78.62L57.29 78.53L57.45 78.69Q58.06 78.96 58.68 79.30L58.68 79.30L58.56 79.18Q62.65 76.56 65.42 76.56L65.43 76.57L65.54 76.68Q67.53 76.70 69.28 77.66L69.22 77.60L69.20 77.58Q69.77 79.16 69.82 80.57L69.85 80.60L69.82 80.56Q69.84 84.31 68.32 85.95L68.45 86.08L68.36 85.99Q66.37 87.83 63.04 88.17L63.05 88.18L63.08 88.22Q61.62 88.28 60.61 88.17L60.58 88.14L60.51 88.07Q59.33 87.96 58.20 87.45L58.28 87.54L58.22 87.19L58.04 87.35L57.92 87.23Q56.83 86.59 56.04 84.61L56.11 84.68L55.99 84.56Q54.02 86.66 51.54 89.82L51.64 89.92L51.64 89.92Q52.05 90.84 53.30 92.25L53.18 92.14L53.33 92.28Q54.77 94.86 58.95 95.59L58.98 95.62L59.03 95.68Q60.74 95.97 68.70 96.14Z"/><path d="M3 50 C179 134,190 73,340 81" stroke="#db4691" fill="none"/><path fill="#dada3e" d="M132.57 67.62L132.51 67.56L132.60 67.64Q127.89 67.67 125.18 66.09L125.08 66.00L125.13 66.04Q128.82 63.98 136.05 57.72L136.12 57.79L136.03 57.70Q137.09 57.41 139.01 56.50L139.02 56.51L138.98 56.48Q137.06 65.33 136.89 74.76L136.95 74.81L136.92 74.78Q136.80 84.25 138.38 93.28L138.33 93.23L138.28 93.18Q135.86 92.17 132.70 92.00L132.75 92.06L132.64 91.95Q132.49 85.81 132.49 79.78L132.45 79.73L132.43 79.72Q132.44 73.63 132.50 67.54ZM132.02 70.95L131.93 92.47L132.01 92.56Q133.78 92.52 135.19 92.80L135.16 92.77L135.27 92.89Q135.37 93.88 135.65 95.91L135.73 96.00L135.66 95.92Q139.94 96.76 143.55 100.09L143.43 99.97L143.55 100.09Q139.88 89.54 139.82 78.48L139.70 78.36L139.75 78.41Q139.70 67.41 142.41 56.69L142.44 56.72L142.25 56.53Q141.60 57.29 139.23 58.92L139.22 58.92L139.24 58.93Q139.37 57.66 139.82 55.40L139.91 55.49L139.99 55.57Q137.99 56.67 135.84 57.23L135.77 57.16L135.77 57.16Q130.22 62.50 123.85 65.89L123.85 65.89L123.80 65.84Q125.93 67.52 129.43 68.03L129.51 68.11L129.44 68.04Q128.51 68.86 126.59 70.44L126.50 70.35L126.47 70.32Q128.79 71.00 132.06 71.00L132.06 71.00Z"/><path d="M17 111 C167 15,171 32,337 107" stroke="#e43939" fill="none"/><path d="M14 2 C163 118,160 16,332 89" stroke="#d64141" fill="none"/><path d="M6 109 C163 5,178 66,337 55" stroke="#819be8" fill="none"/><path d="M10 102 C159 35,161 20,333 124" stroke="#7575df" fill="none"/><path fill="#b7e38b" d="M194.73 92.66L194.84 92.78L194.75 92.69Q192.68 92.82 190.36 92.19L190.48 92.31L190.47 92.30Q188.50 90.78 188.27 88.35L188.31 88.39L188.36 88.44Q188.39 88.25 188.67 84.35L188.57 84.25L188.65 84.33Q190.06 83.93 193.05 83.37L193.09 83.41L192.91 84.64L192.89 84.62Q192.51 87.23 194.60 88.08L194.57 88.04L194.58 88.06Q195.62 88.43 198.73 88.43L198.84 88.54L198.90 88.59Q201.21 88.31 201.49 88.20L201.50 88.20L201.55 88.26Q202.88 88.00 203.95 87.27L203.82 87.14L203.84 87.16Q205.95 85.78 205.67 82.67L205.60 82.60L205.71 82.71Q205.34 79.02 202.78 76.70L202.90 76.83L202.79 76.71Q200.31 74.49 196.64 74.49L196.60 74.45L196.61 74.12L196.70 74.21Q197.14 74.03 198.44 73.92L198.39 73.87L198.53 74.01Q201.38 73.87 203.41 72.03L203.26 71.88L203.31 71.93Q205.32 70.08 205.54 67.31L205.59 67.36L205.62 67.39Q205.76 66.91 205.76 66.40L205.60 66.24L205.70 66.34Q205.78 64.16 203.74 62.80L203.73 62.79L203.68 62.73Q201.92 61.60 199.55 61.77L199.49 61.71L199.53 61.75Q197.53 61.45 195.73 62.07L195.84 62.18L195.71 62.05Q193.59 62.86 193.14 64.56L193.12 64.54L193.13 64.54Q192.86 65.69 192.98 66.82L192.98 66.82L192.99 66.83Q191.44 66.47 188.39 65.39L188.46 65.46L188.45 65.46Q188.16 63.02 188.21 61.77L188.05 61.61L188.24 61.80Q188.41 59.54 189.99 58.53L189.84 58.38L189.97 58.51Q191.94 57.49 194.31 57.49L194.38 57.56L194.33 57.51Q198.94 57.37 203.62 57.77L203.80 57.95L203.62 57.77Q211.13 58.40 210.68 63.98L210.68 63.98L210.80 64.10Q210.56 66.18 209.83 68.49L209.99 68.66L209.86 68.52Q208.59 73.18 205.10 74.54L205.07 74.51L205.00 74.44Q208.94 75.27 209.84 80.24L209.78 80.18L209.96 80.36Q210.12 81.88 210.23 84.87L210.35 84.99L210.26 84.90Q210.54 91.55 203.71 92.22L203.67 92.18L203.63 92.15Q202.60 92.30 194.76 92.69ZM202.50 96.04L202.52 96.05L202.52 96.05Q203.48 96.17 207.71 96.28L207.59 96.16L207.57 96.14Q210.28 96.37 212.70 95.41L212.79 95.49L212.61 95.31Q214.36 93.91 214.08 91.31L214.06 91.29L214.08 91.31Q214.02 89.44 213.56 86.84L213.51 86.79L213.48 86.76Q212.43 80.12 209.55 77.70L209.52 77.66L209.25 77.11L209.33 77.13L209.15 76.96Q211.87 74.94 213.00 68.45L213.00 68.45L213.05 68.50Q213.04 67.76 213.21 66.35L213.28 66.42L213.18 66.32Q213.29 65.18 213.17 64.16L213.24 64.23L213.17 64.16Q212.95 61.69 211.03 60.67L211.03 60.67L210.92 60.67L210.97 60.72Q210.56 59.29 208.86 58.50L208.89 58.52L208.88 58.51Q206.45 57.33 198.84 56.88L198.83 56.88L198.87 56.91Q196.52 56.94 194.15 56.94L194.16 56.94L193.99 56.78Q191.64 56.79 189.38 57.75L189.45 57.82L189.41 57.78Q187.62 58.93 187.62 61.52L187.74 61.64L187.70 61.60Q187.64 60.92 188.04 65.89L187.98 65.83L188.12 65.97Q188.45 65.96 190.87 66.86L190.93 66.91L190.85 66.84Q190.96 67.73 190.90 68.47L190.92 68.48L190.79 68.36Q190.81 69.11 190.86 69.90L190.82 69.85L190.90 69.94Q193.50 70.44 196.49 70.61L196.55 70.67L196.64 70.77Q196.37 67.61 198.00 66.37L198.01 66.38L198.11 66.48Q199.35 65.52 202.34 65.18L202.36 65.20L202.30 65.14Q204.02 65.16 204.86 65.45L204.87 65.46L204.81 65.40Q204.94 65.64 205.00 65.81L204.87 65.68L205.03 66.12L205.08 66.85L205.09 66.86Q205.13 67.19 205.08 67.41L205.16 67.50L205.12 67.45Q205.04 70.02 202.78 71.77L202.62 71.62L202.62 71.61Q201.34 73.04 198.35 73.32L198.40 73.38L198.37 73.34Q197.33 73.60 196.03 73.60L196.00 73.57L196.06 73.63Q196.06 74.08 196.29 75.10L196.21 75.02L196.29 75.10Q198.87 75.08 201.01 76.16L201.00 76.14L200.93 76.24L198.45 76.36L198.57 76.48Q198.59 76.95 198.76 77.85L198.83 77.92L198.70 77.79Q201.90 77.71 204.44 79.69L204.55 79.80L204.39 79.64Q204.76 80.24 205.21 82.66L205.25 82.70L205.22 82.67Q205.43 86.94 201.08 87.56L201.14 87.63L201.08 87.57Q198.10 88.08 197.26 88.03L197.16 87.93L197.15 87.92Q196.47 87.74 195.68 87.63L195.79 87.75L195.76 87.03L195.87 86.31L195.96 85.77L196.10 85.41L196.01 85.31Q194.68 85.51 193.50 85.79L193.53 85.82L193.52 85.81Q193.45 85.46 193.45 85.18L193.41 85.14L193.45 85.18Q193.42 84.81 193.42 84.47L193.36 84.41L193.42 84.47Q193.53 83.91 193.76 82.83L193.73 82.81L193.66 82.73Q191.01 83.20 188.25 83.70L188.27 83.72L188.16 83.61Q188.12 84.31 187.95 85.97L188.02 86.04L188.07 86.09Q187.81 87.66 187.81 88.56L187.94 88.70L187.87 88.63Q187.92 91.62 189.96 92.74L190.10 92.89L189.96 92.75Q192.15 96.12 199.14 95.84L199.25 95.94L199.14 95.84Q200.18 95.74 202.43 95.97Z"/></svg>