<svg xmlns="http://www.w3.org/2000/svg" width="342" height="140" viewBox="0,0,342,140"><path d="M18 99 C182 81,151 57,339 113" stroke="#87b5e2" fill="none"/><path d="M3 104 C166 33,170 6,336 77" stroke="#7ab5ef" fill="none"/><path d="M19 70 C185 62,172 37,331 44" stroke="#8a8ae9" fill="none"/><path d="M16 17 C174 52,163 8,334 12" stroke="#3add63" fill="none"/><path d="M11 32 C165 113,159 25,322 29" stroke="#df8098" fill="none"/><path d="M13 82 C186 53,155 109,328 21" stroke="#6767e4" fill="none"/><path d="M5 105 C154 79,188 94,340 31" stroke="#e6ce89" fill="none"/><path d="M7 71 C157 33,176 44,330 47" stroke="#d0e886" fill="none"/><path d="M6 5 C182 82,160 102,334 24" stroke="#5da0e3" fill="none"/><path d="M4 45 C156 51,182 95,340 130" stroke="#64e1c2" fill="none"/><path fill="#e269c4" d="M213.64 85.23L213.62 85.21L213.57 85.16Q219.55 84.53 225.66 84.74L225.71 84.79L225.55 84.63Q225.47 79.75 225.47 75.17L225.57 75.27L225.59 75.29Q225.53 70.50 225.89 65.63L225.82 65.56L225.84 65.57Q223.52 68.86 213.56 85.15ZM232.53 99.25L232.50 99.22L232.49 99.21Q229.31 98.65 225.89 98.50L226.00 98.61L225.83 98.44Q225.59 94.05 225.37 89.32L225.29 89.25L225.37 89.33Q215.19 88.96 206.17 91.65L206.07 91.55L206.08 91.57Q206.32 90.64 206.68 88.75L206.60 88.67L206.77 88.84Q210.02 82.63 216.86 70.63L217.02 70.80L217.00 70.77Q222.57 61.50 229.12 54.08L229.06 54.03L229.06 54.02Q230.79 53.72 233.99 53.21L233.97 53.19L233.87 53.09Q230.25 65.40 230.25 78.86L230.25 78.86L230.27 78.88Q230.22 81.66 230.36 84.50L230.38 84.52L232.93 84.81L232.84 84.72Q234.08 84.87 235.24 85.08L235.25 85.09L235.27 85.12Q235.40 86.92 235.91 90.63L235.96 90.67L236.03 90.75Q233.61 90.14 230.77 89.78L230.71 89.72L230.79 89.80Q231.18 93.60 232.49 99.20ZM235.82 84.42L235.63 84.24L235.77 84.38Q235.38 84.20 235.02 84.20L234.93 84.12L234.27 84.19L234.23 84.15Q234.04 81.33 234.04 78.64L234.01 78.61L234.05 78.65Q233.96 66.34 237.89 54.85L237.89 54.86L238.00 54.97Q236.49 55.41 233.72 56.14L233.81 56.23L233.71 56.13Q234.18 54.71 235.05 52.02L235.15 52.11L235.15 52.12Q232.58 52.75 228.65 53.19L228.70 53.23L228.68 53.21Q221.20 61.51 211.23 79.41L211.15 79.33L215.18 72.37L215.17 72.36Q214.44 74.39 213.93 75.48L214.00 75.55L205.42 92.73L205.38 92.69Q206.55 92.32 208.73 91.60L208.75 91.62L208.55 92.15L208.50 92.09Q208.22 93.34 207.63 95.74L207.80 95.91L207.69 95.79Q215.63 93.33 224.86 93.69L224.72 93.55L224.83 93.66Q224.97 95.54 225.33 99.32L225.23 99.23L225.32 99.31Q227.20 99.16 229.24 99.38L229.28 99.41L229.36 99.50Q229.55 100.71 230.06 103.33L230.05 103.31L230.17 103.43Q233.86 103.92 239.60 105.67L239.48 105.55L239.46 105.53Q237.60 101.48 235.85 95.22L235.89 95.26L238.55 96.03L238.59 96.07Q239.92 96.53 241.23 97.18L241.29 97.24L241.22 97.17Q239.80 92.48 239.51 89.28L239.34 89.11L239.39 89.17Q238.39 88.96 236.21 88.52L236.16 88.47L236.20 88.52Q235.72 86.00 235.72 84.33ZM220.47 84.06L220.51 84.10L220.54 84.13Q221.95 81.61 224.93 76.74L224.83 76.64L224.90 76.71Q224.96 78.58 224.89 80.40L224.73 80.25L224.83 80.34Q224.81 82.21 224.88 84.03L224.91 84.07L224.91 84.07Q223.88 84.05 222.79 84.05L222.66 83.92L222.61 83.88Q221.67 84.10 220.51 84.10Z"/><path d="M15 12 C184 131,160 86,332 139" stroke="#dc4141" fill="none"/><path d="M19 6 C178 101,169 133,335 10" stroke="#87b5e2" fill="none"/><path d="M9 39 C151 31,152 135,340 3" stroke="#e0c46f" fill="none"/><path fill="#df80c7" d="M109.03 67.04L108.90 66.92L109.02 67.04Q102.76 66.88 99.26 64.84L99.39 64.96L99.39 64.97Q104.08 62.24 113.39 54.16L113.51 54.29L113.52 54.29Q114.92 53.94 117.39 52.78L117.25 52.64L117.34 52.73Q114.65 63.94 114.43 76.08L114.51 76.16L114.50 76.15Q114.41 88.42 116.44 100.06L116.31 99.93L116.26 99.88Q113.10 98.53 109.02 98.31L109.12 98.41L109.14 98.43Q108.88 90.46 108.88 82.68L108.78 82.57L108.82 82.61Q108.80 74.74 108.87 66.88ZM108.17 71.20L108.28 99.17L108.18 99.07Q110.45 99.01 112.27 99.38L112.38 99.49L112.36 99.46Q112.49 100.76 112.85 103.38L112.82 103.35L112.89 103.41Q118.27 104.36 122.93 108.66L122.90 108.62L122.88 108.61Q118.19 95.04 118.11 80.78L118.18 80.85L118.22 80.89Q118.12 66.68 121.61 52.85L121.56 52.81L121.57 52.82Q120.50 53.56 117.45 55.67L117.47 55.70L117.47 55.70Q117.73 54.14 118.31 51.23L118.32 51.24L118.30 51.22Q115.84 52.76 113.08 53.49L113.15 53.55L113.12 53.53Q105.85 60.30 97.63 64.66L97.61 64.64L97.62 64.66Q100.31 66.76 104.82 67.41L104.91 67.50L104.80 67.39Q103.64 68.49 101.17 70.53L101.23 70.59L101.11 70.47Q104.01 71.26 108.23 71.26L108.24 71.27Z"/><path d="M18 116 C160 11,189 13,335 6" stroke="#af7ce3" fill="none"/><path d="M8 59 C185 67,159 32,333 51" stroke="#91eda8" fill="none"/><path d="M4 117 C176 10,153 49,331 23" stroke="#e5984c" fill="none"/><path d="M17 114 C160 71,166 51,327 34" stroke="#edbf91" fill="none"/><path d="M18 125 C171 9,167 114,336 101" stroke="#55dc99" fill="none"/><path d="M4 60 C153 43,152 87,326 74" stroke="#e5af7a" fill="none"/><path d="M4 65 C154 132,184 127,332 33" stroke="#ea8e8e" fill="none"/><path d="M8 34 C177 10,150 102,336 109" stroke="#ea8484" fill="none"/><path d="M6 108 C166 115,163 74,329 103" stroke="#7ddf5d" fill="none"/><path fill="#db6683" d="M46.08 99.42L46.09 99.43L45.96 99.30Q38.21 99.77 36.32 95.34L36.28 95.29L36.33 95.34Q37.76 93.50 40.74 90.08L40.71 90.05L40.87 90.21Q41.76 94.01 47.50 94.22L47.42 94.14L47.41 94.13Q53.97 94.36 57.10 91.81L57.17 91.88L57.19 91.91Q59.84 88.81 59.69 83.65L59.68 83.63L59.60 83.55Q59.30 73.87 50.13 74.30L50.26 74.43L50.12 74.29Q44.91 74.75 41.56 77.15L41.43 77.03L40.79 76.68L40.43 76.46L40.42 76.45Q41.04 70.37 40.82 65.13L40.79 65.11L40.86 65.17Q40.58 60.10 39.93 53.77L39.91 53.75L39.96 53.80Q46.96 55.64 54.23 55.42L54.31 55.50L54.23 55.42Q61.61 55.37 68.45 52.97L68.41 52.94L67.27 55.80L67.38 55.90Q66.80 57.37 66.44 58.97L66.33 58.86L66.37 58.90Q60.46 60.92 53.04 60.92L53.00 60.88L52.93 60.81Q50.15 60.79 47.31 60.50L47.27 60.46L47.39 60.57Q47.25 61.89 46.59 70.40L46.63 70.44L46.64 70.45Q48.17 69.50 52.09 69.21L52.06 69.18L52.01 69.12Q59.16 69.59 61.93 72.79L61.94 72.80L61.93 72.79Q64.60 75.75 65.11 83.10L65.13 83.12L65.10 83.09Q65.54 91.02 63.22 94.88L63.38 95.04L63.20 94.87Q59.37 98.53 53.04 98.96L53.16 99.08L53.02 98.94Q51.08 99.04 45.99 99.33ZM57.70 103.84L57.68 103.82L57.61 103.75Q64.16 103.90 67.80 101.79L67.79 101.78L67.80 101.79Q69.77 98.96 69.77 94.96L69.77 94.96L69.62 94.81Q69.72 89.02 67.90 81.16L67.89 81.15L67.93 81.19Q67.07 77.71 64.74 75.02L64.88 75.16L64.98 75.33L64.50 74.70L63.84 74.33L63.81 74.31Q63.14 72.83 61.90 71.53L61.99 71.61L62.05 71.74L62.00 71.69Q59.13 68.54 52.08 68.54L51.97 68.43L51.54 68.52L51.51 68.48Q51.64 67.37 52.00 65.26L52.11 65.37L52.09 65.35Q61.58 65.53 69.29 62.40L69.21 62.32L69.33 62.44Q70.01 59.63 71.83 54.25L71.82 54.24L67.86 56.10L67.95 56.18Q68.55 53.88 69.49 51.69L69.62 51.82L69.54 51.75Q62.18 54.49 54.33 54.64L54.33 54.65L54.37 54.68Q46.41 54.80 38.85 52.69L39.00 52.84L39.01 52.85Q40.21 61.18 40.21 69.62L40.16 69.57L40.31 69.72Q40.30 73.35 40.08 76.98L40.00 76.90L39.91 76.81Q40.50 77.26 41.60 77.84L41.66 77.91L41.57 77.82Q42.24 77.39 43.47 76.74L43.40 76.66L43.45 76.71Q43.35 78.14 42.91 81.05L43.07 81.21L42.91 81.04Q43.71 81.41 44.51 81.85L44.65 81.99L44.61 81.95Q49.85 78.53 53.41 78.53L53.38 78.50L53.38 78.50Q55.93 78.50 58.19 79.74L58.28 79.83L58.34 79.89Q58.94 81.80 59.01 83.62L59.02 83.63L58.94 83.55Q59.14 88.55 57.18 90.66L57.15 90.63L57.10 90.58Q54.51 92.93 50.21 93.37L50.27 93.42L50.33 93.48Q48.45 93.57 47.14 93.43L47.15 93.43L47.19 93.48Q45.62 93.29 44.16 92.63L44.00 92.47L43.93 92.03L43.75 92.29L43.82 92.36Q42.29 91.41 41.27 88.87L41.28 88.88L41.28 88.87Q38.77 91.60 35.57 95.67L35.52 95.62L35.47 95.58Q36.17 96.93 37.77 98.75L37.68 98.66L37.65 98.63Q39.80 102.23 45.18 103.17L45.07 103.07L45.03 103.03Q47.38 103.55 57.63 103.77Z"/><path d="M14 108 C185 42,169 6,340 51" stroke="#e29e59" fill="none"/><path fill="#509eeb" d="M277.60 77.83L277.71 77.94L277.60 77.84Q274.15 77.66 271.79 80.39L271.70 80.30L271.84 80.44Q269.34 83.03 268.97 86.66L269.14 86.83L269.04 86.73Q268.54 90.59 270.61 92.44L270.69 92.53L270.71 92.55Q272.74 94.36 276.74 94.14L276.68 94.08L276.82 94.22Q280.73 93.84 282.84 92.53L282.82 92.51L282.79 92.47Q285.02 90.42 285.02 87.44L285.08 87.50L284.96 87.37Q285.12 86.81 284.98 86.08L284.94 86.05L284.99 86.09Q284.98 82.74 282.87 80.16L282.98 80.26L282.97 80.26Q280.85 77.66 277.65 77.88ZM276.78 99.06L276.91 99.18L276.80 99.07Q268.41 99.05 265.72 97.59L265.86 97.74L265.72 97.59Q263.81 96.20 263.45 92.92L263.42 92.89L263.46 92.93Q263.36 91.60 263.44 90.22L263.42 90.20L263.47 90.25Q263.56 88.23 263.56 87.36L263.73 87.53L263.57 87.38Q264.53 82.00 264.82 80.70L264.88 80.75L264.91 80.78Q265.76 77.05 267.36 74.36L267.35 74.34L267.34 74.34Q272.37 65.91 283.72 53.77L283.66 53.71L283.78 53.83Q288.78 53.15 292.99 51.62L292.95 51.58L293.10 51.73Q279.91 65.89 273.80 73.96L273.85 74.01L273.79 73.95Q275.68 73.01 278.16 73.01L278.29 73.14L278.24 73.09Q284.61 73.13 287.52 76.84L287.44 76.76L287.49 76.81Q290.08 79.99 290.74 86.75L290.62 86.63L290.69 86.71Q290.86 88.11 290.86 89.27L290.75 89.17L290.78 89.19Q290.84 95.22 286.62 97.26L286.58 97.21L286.47 97.11Q284.16 98.28 276.74 99.01ZM281.14 103.63L281.27 103.76L281.24 103.73Q283.68 103.62 287.46 103.77L287.50 103.81L287.36 103.67Q290.51 103.83 293.49 102.45L293.58 102.54L293.62 102.58Q295.70 101.02 295.70 97.60L295.63 97.54L295.74 97.64Q295.57 96.53 295.24 94.63L295.36 94.76L295.31 94.70Q295.03 92.86 295.03 91.99L294.91 91.87L295.10 92.05Q293.32 82.93 290.27 79.30L290.31 79.34L290.29 79.32Q290.18 79.14 289.89 78.70L289.92 78.73L289.24 78.20L289.12 78.15L289.06 78.09Q288.54 77.28 287.38 75.46L287.32 75.40L287.25 75.33Q285.47 73.48 281.69 72.61L281.86 72.78L281.69 72.61Q284.02 69.56 289.69 62.50L289.70 62.51L297.78 52.40L297.87 52.49Q294.87 54.15 290.29 55.61L290.22 55.54L290.37 55.68Q291.95 53.63 295.37 49.85L295.46 49.94L295.48 49.96Q290.76 51.86 283.34 52.95L283.47 53.08L283.43 53.04Q272.62 64.41 266.95 73.87L266.81 73.73L266.76 73.69Q263.99 78.63 262.90 90.56L262.79 90.45L262.93 90.59Q262.67 91.57 262.82 93.39L262.81 93.37L262.92 93.48Q262.98 96.74 265.09 98.49L265.07 98.47L265.05 98.45Q265.81 98.77 265.74 98.85L265.76 98.87L265.82 98.93Q266.44 100.57 267.97 101.37L267.99 101.40L268.04 101.44Q270.71 102.66 274.42 103.03L274.55 103.15L274.59 103.19Q274.48 103.08 281.17 103.66ZM280.67 82.14L280.81 82.27L280.75 82.22Q281.94 82.10 283.75 83.04L283.58 82.87L283.76 83.04Q284.30 84.75 284.30 85.99L284.35 86.04L284.34 86.03Q284.73 89.62 282.91 91.51L282.77 91.37L282.84 91.44Q280.91 92.93 276.91 93.51L276.89 93.49L276.77 93.37Q274.02 93.39 273.00 92.88L273.02 92.90L273.13 93.00Q272.77 92.13 272.77 91.55L272.70 91.48L272.64 91.43Q272.22 85.19 277.83 82.71L277.85 82.74L277.86 82.75Q279.35 82.13 280.81 82.28Z"/><path d="M12 69 C163 106,158 72,340 34" stroke="#e36dc5" fill="none"/><path d="M4 70 C175 94,181 59,337 114" stroke="#b57fea" fill="none"/><path fill="#8080ee" d="M159.45 99.46L159.28 99.29L159.33 99.34Q151.56 99.78 149.67 95.35L149.76 95.44L149.72 95.40Q151.16 93.56 154.14 90.15L154.15 90.16L154.06 90.06Q155.17 94.08 160.91 94.30L160.78 94.17L160.91 94.30Q167.25 94.31 170.38 91.77L170.51 91.89L170.49 91.87Q173.15 88.79 173.01 83.63L172.95 83.57L172.88 83.50Q172.66 73.89 163.49 74.33L163.55 74.38L163.56 74.40Q158.12 74.63 154.77 77.03L154.78 77.04L154.09 76.64L153.77 76.47L153.85 76.55Q154.35 70.35 154.13 65.12L154.14 65.13L154.15 65.13Q153.93 60.11 153.27 53.78L153.25 53.76L153.38 53.89Q160.26 55.60 167.53 55.38L167.66 55.51L167.63 55.48Q174.91 55.34 181.75 52.94L181.65 52.85L180.60 55.80L180.69 55.89Q180.09 57.32 179.73 58.92L179.64 58.83L179.62 58.81Q173.80 60.92 166.38 60.92L166.35 60.89L166.32 60.87Q163.49 60.80 160.65 60.51L160.74 60.60L160.61 60.47Q160.60 61.91 159.95 70.42L159.90 70.38L159.80 70.28Q161.51 69.51 165.44 69.22L165.33 69.11L165.46 69.24Q172.62 69.71 175.39 72.91L175.29 72.81L175.38 72.91Q177.93 75.75 178.44 83.09L178.34 83.00L178.45 83.10Q179.04 91.18 176.71 95.04L176.54 94.87L176.70 95.03Q172.74 98.56 166.41 99.00L166.46 99.04L166.38 98.97Q164.50 99.12 159.41 99.41ZM171.03 103.84L170.85 103.65L170.96 103.76Q177.55 103.96 181.19 101.85L181.22 101.87L181.22 101.87Q183.03 98.88 183.03 94.88L183.09 94.94L182.96 94.82Q182.95 88.92 181.14 81.06L181.17 81.10L181.25 81.18Q180.56 77.87 178.24 75.18L178.23 75.17L178.18 75.19L177.78 74.65L177.14 74.30L177.11 74.28Q176.47 72.83 175.23 71.52L175.22 71.51L175.31 71.67L175.35 71.71Q172.34 68.42 165.29 68.42L165.40 68.53L164.80 68.44L164.85 68.49Q165.01 67.41 165.38 65.30L165.44 65.37L165.39 65.32Q174.94 65.55 182.65 62.43L182.61 62.39L182.64 62.42Q183.31 59.60 185.13 54.22L185.26 54.35L181.26 56.17L181.29 56.19Q181.96 53.95 182.90 51.77L182.93 51.80L182.85 51.72Q175.46 54.44 167.60 54.58L167.69 54.67L167.68 54.66Q159.80 54.85 152.23 52.74L152.20 52.71L152.21 52.72Q153.55 61.18 153.55 69.62L153.46 69.54L153.57 69.65Q153.66 73.37 153.44 77.01L153.40 76.96L153.32 76.89Q153.83 77.26 154.93 77.84L154.88 77.79L155.02 77.93Q155.57 77.39 156.80 76.73L156.92 76.85L156.87 76.80Q156.83 78.29 156.40 81.20L156.39 81.19L156.23 81.03Q157.07 81.44 157.87 81.88L157.84 81.84L157.95 81.95Q163.17 78.52 166.74 78.52L166.88 78.67L166.80 78.58Q169.43 78.66 171.68 79.90L171.70 79.92L171.59 79.81Q172.34 81.87 172.41 83.69L172.32 83.60L172.37 83.64Q172.53 88.60 170.56 90.71L170.57 90.72L170.49 90.64Q167.86 92.95 163.57 93.39L163.55 93.38L163.52 93.34Q161.85 93.64 160.54 93.49L160.40 93.35L160.40 93.35Q158.81 93.14 157.35 92.49L157.39 92.53L157.35 92.12L157.20 92.40L157.18 92.39Q155.53 91.32 154.51 88.77L154.53 88.79L154.55 88.81Q152.12 91.62 148.92 95.69L148.90 95.67L148.82 95.59Q149.32 96.75 150.92 98.57L151.10 98.74L151.09 98.73Q153.10 102.20 158.48 103.14L158.46 103.12L158.34 103.01Q160.65 103.50 170.91 103.71Z"/><path d="M3 40 C168 122,165 85,322 69" stroke="#afe976" fill="none"/><path d="M13 113 C180 4,169 103,324 138" stroke="#8a6edd" fill="none"/><path d="M21 99 C162 56,169 60,324 23" stroke="#d2d246" fill="none"/><path d="M1 8 C167 23,184 106,328 44" stroke="#52e9e9" fill="none"/><path d="M5 30 C158 33,176 110,335 27" stroke="#8eefef" fill="none"/><path d="M11 134 C175 39,164 8,325 42" stroke="#8888e6" fill="none"/><path d="M2 80 C180 89,171 133,337 46" stroke="#e56ae5" fill="none"/><path d="M18 11 C152 91,164 7,324 18" stroke="#e43e67" fill="none"/><path d="M5 72 C171 107,188 92,325 38" stroke="#46d6d6" fill="none"/><path d="M10 96 C183 124,158 130,333 53" stroke="#6edd4a" fill="none"/><path d="M4 134 C168 35,156 114,324 62" stroke="#93d651" fill="none"/><path d="M5 18 C172 24,191 114,332 24" stroke="#48dede" fill="none"/><path d="M2 18 C152 128,165 69,321 40" stroke="#d8d85e" fill="none"/><path d="M18 35 C185 136,156 93,325 121" stroke="#ef9b7f" fill="none"/><path d="M13 16 C161 18,191 67,329 119" stroke="#59e759" fill="none"/></svg>