<svg xmlns="http://www.w3.org/2000/svg" width="342" height="140" viewBox="0,0,342,140"><path d="M12 107 C156 92,181 58,337 97" stroke="#5e7ede" fill="none"/><path d="M21 82 C191 5,154 73,333 103" stroke="#ce72ed" fill="none"/><path d="M16 123 C171 25,188 50,340 53" stroke="#83e6b5" fill="none"/><path d="M11 15 C152 121,174 127,338 105" stroke="#83f1f1" fill="none"/><path d="M17 57 C150 123,192 8,330 107" stroke="#b452d5" fill="none"/><path fill="#a894e5" d="M109.14 67.09L109.20 67.15L109.23 67.18Q103.32 67.09 99.99 65.15L100.05 65.21L100.05 65.21Q104.58 62.67 113.46 54.98L113.50 55.01L113.41 54.93Q114.79 54.64 117.14 53.53L117.05 53.43L117.12 53.51Q114.72 64.35 114.51 75.93L114.52 75.93L114.42 75.83Q114.32 87.52 116.26 98.62L116.30 98.66L116.19 98.55Q113.11 97.20 109.23 97.00L109.23 96.99L109.21 96.98Q109.06 89.47 109.06 82.05L109.03 82.02L109.02 82.02Q108.99 74.49 109.06 67.01ZM108.39 71.12L108.39 97.68L108.37 97.66Q110.73 97.80 112.46 98.15L112.40 98.09L112.42 98.11Q112.46 99.25 112.81 101.75L112.82 101.77L112.92 101.87Q118.00 102.71 122.43 106.80L122.42 106.79L122.55 106.92Q118.00 93.90 117.93 80.31L117.93 80.32L117.90 80.29Q117.87 66.80 121.20 53.63L121.12 53.55L121.04 53.47Q120.17 54.34 117.26 56.35L117.33 56.42L117.25 56.33Q117.63 54.99 118.18 52.21L118.13 52.16L118.05 52.08Q115.78 53.62 113.15 54.31L113.09 54.25L113.05 54.22Q106.15 60.71 98.32 64.87L98.40 64.95L98.45 65.00Q100.94 66.94 105.24 67.56L105.28 67.60L105.23 67.55Q104.07 68.54 101.71 70.48L101.78 70.54L101.72 70.48Q104.43 71.19 108.45 71.19L108.44 71.17Z"/><path d="M12 91 C165 26,172 130,338 25" stroke="#5fe532" fill="none"/><path d="M15 83 C161 52,160 66,340 124" stroke="#c96ee7" fill="none"/><path d="M16 28 C162 24,165 63,340 32" stroke="#97d3e7" fill="none"/><path d="M5 108 C180 79,178 72,339 63" stroke="#dada62" fill="none"/><path d="M6 70 C191 91,162 54,338 71" stroke="#4e93d9" fill="none"/><path d="M11 133 C161 118,164 62,324 3" stroke="#d656d6" fill="none"/><path d="M20 97 C163 82,160 83,325 36" stroke="#4ab4d8" fill="none"/><path fill="#52d5b4" d="M46.61 98.08L46.55 98.02L46.52 97.99Q39.12 98.42 37.31 94.19L37.23 94.11L37.29 94.17Q38.75 92.51 41.59 89.25L41.61 89.26L41.59 89.25Q42.47 92.90 47.95 93.11L48.01 93.17L48.00 93.16Q54.06 93.19 57.04 90.76L57.03 90.75L57.06 90.78Q59.72 87.96 59.58 83.03L59.57 83.03L59.59 83.05Q59.19 73.71 50.46 74.12L50.50 74.17L50.54 74.20Q45.42 74.49 42.23 76.78L42.09 76.64L41.50 76.33L41.17 76.14L41.16 76.13Q41.79 70.38 41.59 65.39L41.69 65.49L41.65 65.45Q41.48 60.71 40.86 54.68L40.78 54.60L40.76 54.58Q47.36 56.26 54.30 56.05L54.30 56.06L54.44 56.19Q61.31 55.99 67.83 53.70L67.81 53.68L66.84 56.53L66.77 56.46Q66.21 57.84 65.87 59.37L65.83 59.34L65.98 59.49Q60.24 61.30 53.17 61.30L53.14 61.27L53.18 61.32Q50.44 61.21 47.74 60.93L47.78 60.97L47.70 60.89Q47.75 62.33 47.12 70.44L47.02 70.34L47.01 70.33Q48.61 69.57 52.36 69.29L52.21 69.15L52.28 69.22Q59.07 69.63 61.71 72.68L61.67 72.65L61.65 72.63Q64.15 75.40 64.63 82.40L64.67 82.44L64.80 82.57Q65.11 90.03 62.89 93.70L63.03 93.84L63.07 93.88Q59.27 97.22 53.24 97.64L53.26 97.66L53.33 97.73Q51.45 97.79 46.59 98.06ZM57.63 102.23L57.48 102.09L57.53 102.13Q63.81 102.31 67.27 100.30L67.18 100.20L67.21 100.24Q68.98 97.43 68.98 93.62L69.00 93.63L69.17 93.80Q69.05 88.07 67.31 80.58L67.38 80.64L67.26 80.53Q66.62 77.39 64.40 74.82L64.43 74.85L64.52 75.01L64.07 74.43L63.55 74.18L63.51 74.14Q62.97 72.84 61.79 71.59L61.63 71.43L61.64 71.51L61.65 71.52Q59.02 68.61 52.30 68.61L52.21 68.53L51.76 68.56L51.79 68.59Q51.80 67.42 52.15 65.41L52.15 65.41L52.23 65.50Q61.33 65.72 68.68 62.74L68.71 62.77L68.59 62.65Q69.52 60.25 71.26 55.12L71.22 55.09L67.27 56.68L67.38 56.79Q68.00 54.64 68.90 52.56L69.01 52.67L69.02 52.68Q61.87 55.17 54.39 55.31L54.35 55.27L54.47 55.39Q46.97 55.59 39.76 53.57L39.78 53.60L39.83 53.65Q41.09 61.70 41.09 69.75L41.07 69.73L41.07 69.73Q41.00 73.12 40.79 76.59L40.71 76.51L40.78 76.58Q41.31 76.97 42.35 77.53L42.24 77.42L42.32 77.50Q42.90 77.03 44.08 76.41L44.21 76.54L44.09 76.42Q44.13 77.92 43.71 80.69L43.69 80.67L43.53 80.51Q44.36 80.93 45.13 81.34L45.18 81.39L45.16 81.37Q50.12 78.09 53.52 78.09L53.70 78.26L53.60 78.17Q55.97 78.11 58.12 79.29L58.21 79.38L58.20 79.37Q58.83 81.25 58.90 82.98L58.83 82.91L58.91 82.99Q59.11 87.76 57.23 89.77L57.08 89.62L57.13 89.67Q54.56 91.81 50.47 92.23L50.50 92.26L50.54 92.30Q48.90 92.53 47.65 92.39L47.58 92.33L47.62 92.37Q46.00 92.06 44.61 91.44L44.68 91.51L44.70 91.17L44.47 91.36L44.44 91.34Q42.87 90.32 41.90 87.89L42.06 88.05L41.90 87.89Q39.52 90.50 36.47 94.39L36.49 94.41L36.49 94.41Q37.12 95.66 38.65 97.40L38.55 97.30L38.64 97.39Q40.52 100.65 45.65 101.56L45.59 101.49L45.64 101.55Q47.87 102.04 57.64 102.25Z"/><path d="M7 132 C181 66,180 31,336 28" stroke="#8f8fe4" fill="none"/><path d="M18 53 C176 125,190 43,326 33" stroke="#eccd73" fill="none"/><path d="M7 54 C187 56,153 86,338 49" stroke="#d9629e" fill="none"/><path d="M16 121 C192 116,160 69,331 6" stroke="#4dd5b3" fill="none"/><path fill="#8aa3ef" d="M221.37 77.64L221.28 77.55L221.45 77.72Q217.99 77.65 215.77 80.08L215.72 80.03L215.79 80.10Q213.46 82.41 213.18 85.88L213.29 85.99L213.30 86.00Q212.93 89.86 215.15 91.70L215.04 91.59L215.19 91.74Q217.36 93.53 221.25 93.39L221.15 93.30L221.32 93.46Q225.50 93.14 227.24 91.41L227.24 91.41L227.16 91.33Q229.13 88.79 228.92 85.46L228.84 85.38L228.84 85.38Q228.59 81.95 226.62 79.76L226.76 79.90L226.62 79.77Q224.66 77.59 221.33 77.59ZM221.36 60.50L221.29 60.42L221.26 60.40Q218.65 60.14 216.22 61.04L216.22 61.04L216.26 61.08Q213.92 62.56 214.34 65.96L214.31 65.93L214.40 66.01Q215.17 72.68 221.27 72.68L221.42 72.83L221.40 72.81Q224.19 73.10 225.99 71.02L225.92 70.95L226.09 71.13Q227.72 68.87 227.79 66.03L227.96 66.20L227.90 66.14Q228.12 63.02 226.80 61.92L226.76 61.88L226.69 61.81Q223.67 60.31 221.31 60.45ZM220.82 97.89L220.73 97.80L215.28 97.89L215.32 97.94Q212.40 97.79 209.97 96.19L209.99 96.21L210.11 96.33Q207.53 94.16 207.80 88.96L207.89 89.05L207.80 88.96Q208.65 76.50 215.24 74.69L215.29 74.74L215.26 74.72Q211.17 73.12 208.75 63.35L208.75 63.35L208.69 63.29Q208.11 60.77 208.25 59.31L208.11 59.17L208.18 59.24Q208.77 55.40 215.50 55.33L215.54 55.38L215.48 55.31Q223.14 55.13 225.77 55.48L225.78 55.49L225.72 55.43Q232.79 56.46 233.62 60.14L233.64 60.16L233.67 60.19Q233.79 61.21 233.79 61.90L233.77 61.88L233.75 61.86Q233.83 63.19 233.49 64.30L233.43 64.25L233.45 64.27Q232.47 72.10 227.13 74.87L227.03 74.77L226.97 74.70Q233.41 76.23 234.31 85.86L234.42 85.97L234.27 85.82Q234.40 86.23 234.47 88.58L234.39 88.51L234.38 88.49Q234.50 93.47 231.59 95.41L231.70 95.53L231.68 95.50Q229.17 97.08 220.84 97.91ZM225.00 102.14L224.96 102.09L231.08 102.26L231.13 102.30Q234.26 102.46 237.04 101.14L236.92 101.02L236.99 101.09Q238.97 99.68 239.11 96.28L239.18 96.34L239.13 96.29Q239.31 94.40 238.62 90.86L238.53 90.78L238.46 90.70Q236.93 82.37 233.11 78.98L233.09 78.95L232.67 78.18L232.32 77.69L232.14 77.31L232.19 77.36Q235.04 74.73 236.70 67.17L236.82 67.29L236.69 67.16Q236.81 66.59 236.95 65.06L236.85 64.97L236.82 64.94Q237.02 63.75 236.88 62.64L236.95 62.71L236.80 62.55Q236.64 60.04 234.49 59.14L234.50 59.15L234.49 59.07L234.23 58.95L234.14 58.86Q233.63 57.51 231.48 56.06L231.48 56.06L231.56 56.06L231.70 56.21Q228.08 54.94 220.66 54.60L220.52 54.46L220.50 54.44Q217.68 54.25 215.18 54.46L215.16 54.44L215.27 54.55Q213.85 54.65 211.49 54.93L211.41 54.85L211.48 54.92Q207.90 55.57 207.49 58.55L207.54 58.61L207.47 58.54Q207.35 59.38 207.42 60.84L207.58 61.00L207.55 60.97Q207.69 61.87 208.73 66.17L208.76 66.21L208.83 66.27Q210.20 72.09 213.39 74.51L213.36 74.48L213.54 74.66L213.61 74.73Q208.53 77.06 207.55 86.49L207.57 86.51L207.53 86.47Q207.16 90.46 207.16 92.13L207.11 92.08L207.25 92.22Q207.36 95.45 209.51 97.11L209.36 96.97L209.35 96.95Q209.55 97.09 210.03 97.43L210.07 97.47L210.03 97.43Q212.00 101.68 224.96 102.10ZM224.31 81.89L224.31 81.89L224.37 81.95Q225.98 81.76 227.57 82.59L227.51 82.52L227.59 82.60Q228.35 84.48 228.28 85.45L228.30 85.47L228.16 85.32Q228.36 86.01 228.36 86.56L228.33 86.54L228.26 86.47Q228.35 90.86 224.19 92.39L224.14 92.33L224.14 92.33Q222.70 92.91 221.25 92.70L221.22 92.67L221.24 92.69Q219.26 92.93 217.18 92.10L217.06 91.98L217.17 92.09Q216.61 90.84 216.75 89.04L216.88 89.16L216.75 89.03Q216.97 86.06 219.15 83.84L219.30 83.99L219.17 83.86Q221.41 81.70 224.32 81.90ZM224.68 64.58L224.68 64.58L224.80 64.70Q226.20 64.44 227.18 64.72L227.14 64.68L227.09 66.09L227.21 66.21Q227.17 68.74 225.51 70.57L225.50 70.56L225.61 70.68Q223.95 72.52 221.45 72.17L221.43 72.15L221.43 72.15Q219.53 72.05 218.76 71.63L218.83 71.69L218.89 71.76Q218.78 71.23 218.57 69.99L218.57 69.98L218.49 69.91Q217.94 67.27 220.16 65.74L220.19 65.78L220.22 65.81Q222.28 64.68 224.85 64.75Z"/><path d="M20 25 C189 58,158 108,322 51" stroke="#e43939" fill="none"/><path fill="#7653de" d="M273.12 97.92L273.19 98.00L273.23 98.03Q265.80 98.44 263.99 94.21L263.97 94.18L263.92 94.13Q265.39 92.49 268.24 89.23L268.13 89.12L268.31 89.30Q269.21 92.97 274.68 93.18L274.56 93.05L274.68 93.17Q280.74 93.20 283.72 90.77L283.66 90.71L283.76 90.81Q286.28 87.85 286.14 82.93L286.17 82.96L286.13 82.92Q285.92 73.76 277.18 74.18L277.20 74.20L277.08 74.08Q272.10 74.50 268.91 76.79L268.94 76.82L268.20 76.37L267.95 76.25L267.78 76.09Q268.44 70.36 268.23 65.36L268.24 65.38L268.33 65.47Q268.09 60.65 267.46 54.61L267.48 54.63L267.49 54.64Q274.16 56.38 281.09 56.18L281.05 56.14L281.04 56.13Q287.95 55.96 294.47 53.68L294.49 53.69L293.53 56.55L293.55 56.58Q292.97 57.93 292.62 59.46L292.47 59.30L292.52 59.36Q286.89 61.28 279.81 61.28L279.82 61.28L279.84 61.31Q277.12 61.23 274.42 60.95L274.53 61.06L274.55 61.07Q274.39 62.30 273.76 70.41L273.71 70.36L273.78 70.43Q275.14 69.44 278.89 69.16L278.97 69.25L278.88 69.15Q285.66 69.56 288.30 72.61L288.39 72.70L288.34 72.65Q290.79 75.38 291.28 82.38L291.39 82.49L291.34 82.44Q291.86 90.10 289.64 93.78L289.64 93.78L289.59 93.73Q286.07 97.35 280.04 97.77L279.90 97.63L279.84 97.58Q278.06 97.74 273.21 98.01ZM284.24 102.18L284.19 102.13L284.32 102.26Q290.41 102.25 293.88 100.24L294.03 100.39L293.97 100.33Q295.65 97.43 295.65 93.62L295.81 93.78L295.80 93.77Q295.65 88.00 293.91 80.51L294.06 80.65L293.97 80.57Q293.38 77.48 291.16 74.92L291.04 74.79L291.22 75.04L290.78 74.46L290.18 74.14L290.13 74.09Q289.66 72.86 288.48 71.61L288.43 71.57L288.46 71.66L288.41 71.61Q285.60 68.52 278.88 68.52L278.84 68.49L278.51 68.64L278.32 68.46Q278.50 67.46 278.85 65.45L278.99 65.58L278.92 65.52Q288.02 65.74 295.37 62.76L295.41 62.80L295.43 62.82Q296.01 60.07 297.74 54.94L297.76 54.95L293.95 56.70L294.10 56.84Q294.67 54.64 295.57 52.56L295.66 52.65L295.61 52.59Q288.70 55.33 281.21 55.46L281.14 55.40L281.10 55.35Q273.72 55.67 266.51 53.66L266.50 53.66L266.49 53.64Q267.75 61.70 267.75 69.74L267.68 69.68L267.67 69.66Q267.71 73.17 267.50 76.64L267.42 76.55L267.47 76.60Q267.86 76.86 268.90 77.41L269.05 77.56L268.97 77.47Q269.51 76.98 270.69 76.35L270.80 76.47L270.86 76.53Q270.78 77.90 270.36 80.67L270.36 80.67L270.29 80.60Q270.99 80.89 271.75 81.30L271.78 81.33L271.91 81.46Q276.86 78.16 280.26 78.16L280.24 78.14L280.28 78.18Q282.65 78.13 284.80 79.31L284.93 79.43L284.90 79.40Q285.56 81.31 285.63 83.05L285.48 82.89L285.47 82.88Q285.70 87.69 283.83 89.70L283.80 89.68L283.87 89.75Q281.23 91.82 277.14 92.23L277.33 92.42L277.31 92.41Q275.40 92.37 274.15 92.23L274.28 92.36L274.23 92.31Q272.66 92.06 271.28 91.43L271.41 91.57L271.34 91.15L270.99 91.22L270.99 91.22Q269.64 90.42 268.67 88.00L268.53 87.86L268.57 87.90Q266.22 90.54 263.17 94.42L263.22 94.47L263.16 94.41Q263.68 95.55 265.20 97.29L265.27 97.36L265.24 97.32Q267.10 100.57 272.23 101.47L272.40 101.64L272.29 101.53Q274.53 102.03 284.30 102.24Z"/><path d="M16 63 C176 41,178 46,337 31" stroke="#81b5e8" fill="none"/><path d="M13 17 C187 65,165 41,336 127" stroke="#de724e" fill="none"/><path d="M3 49 C170 31,185 60,322 95" stroke="#e85ee8" fill="none"/><path d="M8 124 C170 138,191 83,330 31" stroke="#bde056" fill="none"/><path d="M4 95 C151 21,155 12,324 95" stroke="#3535e8" fill="none"/><path d="M4 32 C166 17,159 125,327 84" stroke="#af77e8" fill="none"/><path d="M14 52 C170 125,177 41,331 123" stroke="#cb71e8" fill="none"/><path fill="#e9e96c" d="M171.71 74.00L171.76 74.05L171.59 73.88Q173.19 74.02 175.76 73.75L175.73 73.72L175.66 73.65Q175.66 74.90 175.66 76.08L175.67 76.08L175.62 78.32L175.63 78.34Q174.11 78.34 172.59 78.48L172.60 78.50L172.52 78.41Q171.01 78.50 169.48 78.43L169.61 78.55L169.53 78.47Q164.31 89.69 158.07 98.08L158.09 98.10L157.99 98.00Q153.52 99.29 151.16 100.39L151.17 100.40L151.11 100.34Q158.57 89.91 164.11 78.47L164.19 78.54L159.40 78.54L159.35 78.49Q159.42 76.13 159.21 73.70L159.09 73.58L159.21 73.70Q162.72 74.03 166.47 74.03L166.44 74.00L169.81 67.18L169.78 67.14Q171.63 63.73 173.85 60.81L173.88 60.85L173.84 60.81Q171.10 61.18 168.18 61.18L168.05 61.04L168.17 61.17Q157.04 61.13 150.18 57.11L150.25 57.18L148.93 53.92L149.08 54.07Q148.34 52.43 147.65 50.84L147.73 50.92L147.64 50.83Q155.62 55.68 166.02 56.10L166.02 56.10L166.01 56.10Q175.43 56.57 184.79 52.96L184.60 52.78L184.79 52.96Q184.32 53.60 183.42 55.20L183.39 55.17L183.40 55.18Q176.84 63.87 171.64 73.93ZM186.29 57.65L186.31 57.68L188.11 53.99L188.11 54.00Q186.48 55.00 183.43 56.32L183.42 56.31L183.70 55.69L183.81 55.79Q184.02 55.52 184.23 55.32L184.15 55.23L184.10 55.18Q184.94 54.08 186.25 51.65L186.10 51.50L186.11 51.51Q176.41 55.68 165.94 55.26L166.02 55.34L165.97 55.30Q154.97 54.76 146.30 49.36L146.44 49.49L146.45 49.50Q148.17 52.75 149.70 57.60L149.77 57.68L149.84 57.75Q151.84 58.92 153.30 59.47L153.16 59.33L153.28 59.46Q153.50 60.01 154.33 63.41L154.42 63.50L154.28 63.36Q160.16 65.77 170.21 65.50L170.23 65.51L170.20 65.48Q169.63 66.51 166.02 73.37L165.97 73.32L166.03 73.38Q162.20 73.29 158.59 72.94L158.64 72.99L158.59 72.95Q158.69 74.44 158.69 76.03L158.80 76.14L158.76 79.21L161.76 79.16L161.81 81.78L161.83 81.80Q154.73 95.29 149.66 101.81L149.58 101.72L149.70 101.84Q152.60 100.45 155.59 99.55L155.44 99.40L155.47 99.43Q154.28 101.15 151.78 104.28L151.74 104.23L151.83 104.32Q157.58 102.31 162.02 101.89L162.00 101.87L161.97 101.84Q167.37 95.04 173.06 82.70L172.92 82.56L179.25 82.99L179.24 82.98Q179.04 81.26 179.04 79.60L179.09 79.64L179.10 76.39L179.14 76.43Q178.54 76.32 177.54 76.39L177.57 76.42L177.67 76.53Q176.52 76.45 176.04 76.45L176.09 76.51L176.01 76.43Q176.16 76.36 176.23 76.09L176.08 75.94L176.19 75.56L176.17 75.55Q180.66 66.10 186.27 57.64Z"/><path d="M2 54 C167 7,190 63,338 125" stroke="#a8e36d" fill="none"/><path d="M18 55 C153 35,180 72,325 63" stroke="#6ee7c9" fill="none"/><path d="M15 106 C152 49,182 128,324 49" stroke="#43b8df" fill="none"/><path d="M3 92 C183 98,181 60,330 131" stroke="#ed7ced" fill="none"/><path d="M19 131 C155 55,182 59,325 44" stroke="#82e2b2" fill="none"/><path d="M20 48 C180 45,157 77,330 119" stroke="#d47353" fill="none"/><path d="M9 136 C167 70,182 120,321 32" stroke="#e48e71" fill="none"/><path d="M8 46 C152 47,170 12,339 51" stroke="#ee7190" fill="none"/><path d="M6 30 C182 120,179 8,331 55" stroke="#e57e5b" fill="none"/><path d="M20 48 C157 15,158 46,341 16" stroke="#eb88ba" fill="none"/><path d="M11 86 C171 62,182 55,332 29" stroke="#7ced7c" fill="none"/><path d="M20 2 C189 32,165 98,323 107" stroke="#468ed6" fill="none"/><path d="M8 26 C186 55,165 86,326 98" stroke="#e589ce" fill="none"/><path d="M2 115 C161 119,154 54,334 72" stroke="#d97453" fill="none"/><path d="M6 105 C162 27,160 50,338 121" stroke="#e89849" fill="none"/><path d="M13 111 C153 58,159 116,326 128" stroke="#d9d968" fill="none"/></svg>