<svg xmlns="http://www.w3.org/2000/svg" width="342" height="140" viewBox="0,0,342,140"><path d="M3 113 C176 81,166 120,326 107" stroke="#65dc65" fill="none"/><path d="M8 70 C187 134,185 60,335 104" stroke="#78ecec" fill="none"/><path d="M20 78 C165 136,189 53,335 87" stroke="#bfdf5c" fill="none"/><path d="M12 78 C182 121,165 36,329 106" stroke="#e77d7d" fill="none"/><path d="M20 129 C175 40,157 29,324 82" stroke="#71e9cb" fill="none"/><path d="M14 72 C163 127,174 112,333 120" stroke="#e1839b" fill="none"/><path d="M20 54 C156 30,169 93,329 110" stroke="#48e4bd" fill="none"/><path d="M5 56 C171 47,150 89,327 105" stroke="#6cedad" fill="none"/><path d="M16 60 C158 122,174 112,337 45" stroke="#9494e5" fill="none"/><path fill="#dd4a4a" d="M101.04 84.38L100.93 84.27L101.05 84.39Q106.59 83.68 112.35 83.89L112.38 83.91L112.29 83.82Q112.24 79.25 112.24 74.92L112.19 74.87L112.27 74.95Q112.19 70.40 112.54 65.80L112.59 65.86L112.63 65.90Q110.38 68.93 100.97 84.31ZM118.94 97.68L118.91 97.65L118.77 97.51Q115.79 97.01 112.57 96.87L112.62 96.93L112.58 96.88Q112.25 92.64 112.04 88.17L112.04 88.17L112.14 88.27Q102.51 87.92 94.00 90.46L93.85 90.31L94.02 90.47Q94.17 89.52 94.51 87.74L94.44 87.67L94.57 87.80Q97.64 81.94 104.09 70.61L104.07 70.59L104.19 70.71Q109.42 61.94 115.60 54.93L115.62 54.95L115.49 54.82Q117.05 54.46 120.07 53.98L120.18 54.09L120.13 54.03Q116.65 65.59 116.65 78.30L116.83 78.47L116.78 78.42Q116.67 80.99 116.81 83.67L116.88 83.74L119.26 83.99L119.13 83.86Q120.25 83.96 121.35 84.16L121.43 84.25L121.42 84.23Q121.60 85.99 122.08 89.50L122.08 89.50L122.15 89.56Q119.93 89.05 117.25 88.71L117.15 88.61L117.18 88.64Q117.62 92.31 118.86 97.60ZM121.89 83.53L121.87 83.51L121.97 83.62Q121.59 83.44 121.25 83.44L121.15 83.35L120.42 83.30L120.57 83.45Q120.28 80.69 120.28 78.14L120.21 78.08L120.38 78.25Q120.26 66.59 123.96 55.74L123.92 55.70L124.08 55.86Q122.62 56.25 120.01 56.94L120.03 56.96L120.08 57.01Q120.36 55.50 121.19 52.96L121.28 53.06L121.23 53.01Q118.88 53.68 115.17 54.09L115.20 54.11L115.27 54.19Q108.12 61.94 98.72 78.83L98.82 78.93L102.49 72.24L102.45 72.20Q101.84 74.19 101.36 75.22L101.36 75.22L93.21 91.38L93.33 91.50Q94.38 91.11 96.44 90.42L96.47 90.46L96.18 90.85L96.22 90.89Q95.91 92.02 95.36 94.28L95.53 94.45L95.47 94.39Q102.94 92.05 111.66 92.39L111.59 92.32L111.54 92.28Q111.60 93.98 111.95 97.55L111.92 97.53L111.97 97.58Q113.98 97.66 115.90 97.87L115.75 97.72L115.88 97.84Q116.05 98.98 116.53 101.45L116.53 101.45L116.51 101.43Q120.02 101.92 125.44 103.56L125.52 103.64L125.37 103.49Q123.72 99.79 122.07 93.88L122.00 93.81L124.61 94.63L124.62 94.64Q125.87 95.07 127.11 95.69L127.18 95.76L127.19 95.77Q125.73 91.22 125.46 88.20L125.37 88.11L125.32 88.06Q124.35 87.85 122.29 87.44L122.32 87.47L122.25 87.40Q121.86 85.08 121.86 83.50ZM107.45 83.24L107.45 83.23L107.46 83.25Q108.76 80.84 111.58 76.24L111.58 76.25L111.62 76.28Q111.66 78.04 111.59 79.76L111.50 79.66L111.61 79.78Q111.58 81.54 111.65 83.25L111.69 83.29L111.59 83.19Q110.61 83.17 109.58 83.17L109.66 83.25L109.52 83.11Q108.52 83.21 107.43 83.21Z"/><path fill="#8ed646" d="M46.66 97.75L46.63 97.73L46.68 97.78Q39.21 98.07 37.43 93.88L37.50 93.95L37.52 93.97Q38.96 92.32 41.78 89.10L41.60 88.92L41.79 89.11Q42.56 92.63 47.98 92.83L47.95 92.80L47.94 92.79Q54.18 93.05 57.13 90.65L57.03 90.55L56.99 90.51Q59.56 87.65 59.42 82.78L59.49 82.85L59.48 82.84Q59.23 73.73 50.58 74.14L50.63 74.19L50.47 74.03Q45.53 74.45 42.38 76.72L42.29 76.63L41.61 76.23L41.26 76.01L41.41 76.17Q42.03 70.47 41.82 65.52L41.83 65.53L41.76 65.46Q41.54 60.71 40.92 54.74L40.92 54.74L40.97 54.78Q47.54 56.48 54.40 56.27L54.39 56.26L54.45 56.32Q61.29 56.16 67.75 53.89L67.68 53.82L66.68 56.60L66.79 56.71Q66.18 58.02 65.83 59.53L65.79 59.48L65.82 59.52Q60.23 61.41 53.23 61.41L53.23 61.41L53.26 61.45Q50.61 61.40 47.93 61.13L47.79 60.98L47.84 61.03Q47.64 62.21 47.03 70.25L47.12 70.34L47.11 70.33Q48.68 69.56 52.38 69.29L52.33 69.23L52.28 69.18Q59.14 69.73 61.75 72.75L61.77 72.77L61.66 72.66Q64.12 75.39 64.60 82.33L64.72 82.44L64.62 82.35Q65.14 89.94 62.94 93.58L62.86 93.49L62.99 93.63Q59.19 96.90 53.22 97.31L53.21 97.31L53.23 97.32Q51.45 97.46 46.64 97.74ZM57.57 101.87L57.54 101.84L57.51 101.81Q63.72 101.97 67.15 99.98L67.09 99.92L67.17 100.01Q69.05 97.35 69.05 93.58L68.88 93.41L69.02 93.54Q68.90 87.87 67.19 80.45L67.28 80.55L67.18 80.44Q66.50 77.29 64.30 74.75L64.26 74.71L64.35 74.87L64.04 74.42L63.39 74.04L63.39 74.04Q62.90 72.80 61.74 71.57L61.69 71.52L61.58 71.48L61.70 71.60Q59.00 68.62 52.34 68.62L52.26 68.55L51.83 68.60L51.81 68.58Q51.84 67.43 52.18 65.44L52.30 65.56L52.19 65.46Q61.22 65.70 68.50 62.75L68.53 62.78L68.62 62.86Q69.26 60.21 70.97 55.12L71.06 55.21L67.27 56.92L67.17 56.81Q67.96 54.86 68.85 52.80L68.80 52.74L68.73 52.68Q61.88 55.37 54.46 55.51L54.55 55.59L54.56 55.60Q46.98 55.65 39.84 53.66L39.85 53.67L39.96 53.78Q41.14 61.68 41.14 69.65L41.20 69.71L41.18 69.68Q41.13 73.07 40.92 76.50L40.96 76.54L40.94 76.52Q41.49 76.93 42.52 77.48L42.47 77.43L42.40 77.36Q43.15 77.08 44.32 76.46L44.20 76.35L44.23 76.38Q44.13 77.72 43.71 80.46L43.76 80.50L43.68 80.43Q44.45 80.79 45.21 81.20L45.36 81.35L45.21 81.21Q50.26 78.08 53.62 78.08L53.57 78.03L53.70 78.16Q56.09 78.14 58.22 79.31L58.08 79.17L58.26 79.36Q58.80 81.13 58.87 82.84L58.93 82.91L58.77 82.74Q58.91 87.42 57.06 89.41L57.11 89.47L57.07 89.42Q54.68 91.70 50.63 92.11L50.67 92.16L50.68 92.16Q48.87 92.20 47.63 92.07L47.64 92.07L47.66 92.10Q46.16 91.91 44.79 91.29L44.80 91.29L44.62 90.78L44.55 91.11L44.54 91.10Q43.07 90.19 42.11 87.78L42.04 87.71L42.08 87.75Q39.76 90.37 36.74 94.22L36.62 94.11L36.64 94.12Q37.20 95.30 38.71 97.02L38.72 97.03L38.83 97.13Q40.65 100.32 45.73 101.22L45.77 101.26L45.75 101.25Q47.79 101.56 57.47 101.77Z"/><path d="M7 106 C163 112,185 93,334 108" stroke="#e1e13b" fill="none"/><path d="M9 132 C187 130,152 42,337 18" stroke="#7fb5ea" fill="none"/><path d="M5 89 C174 29,170 120,341 48" stroke="#91e7d2" fill="none"/><path d="M8 135 C170 50,161 35,335 119" stroke="#7fe25e" fill="none"/><path fill="#48d96d" d="M272.05 97.58L272.19 97.72L272.23 97.76Q269.51 97.71 266.69 96.96L266.79 97.06L266.70 96.97Q264.56 95.37 264.28 92.42L264.23 92.36L264.39 92.53Q264.31 92.17 264.65 87.43L264.66 87.45L264.59 87.37Q266.37 86.96 270.01 86.27L270.07 86.33L269.81 87.78L269.68 87.66Q269.31 90.92 271.85 91.95L271.75 91.85L271.77 91.87Q273.24 92.52 277.02 92.52L276.98 92.49L276.98 92.49Q279.82 92.17 280.17 92.03L280.23 92.10L280.25 92.12Q281.95 91.89 283.25 91.00L283.18 90.92L283.15 90.89Q285.78 89.27 285.44 85.49L285.32 85.38L285.39 85.45Q285.09 81.09 281.96 78.28L281.94 78.25L281.88 78.20Q278.89 75.52 274.43 75.52L274.35 75.43L274.43 75.10L274.42 75.09Q275.09 75.01 276.67 74.87L276.59 74.79L276.63 74.83Q280.08 74.65 282.55 72.41L282.51 72.37L282.42 72.28Q284.91 70.07 285.19 66.70L285.23 66.75L285.16 66.68Q285.39 66.15 285.39 65.53L285.35 65.49L285.36 65.50Q285.31 62.70 282.83 61.05L282.93 61.15L282.83 61.05Q280.77 59.75 277.88 59.95L277.92 59.98L277.79 59.86Q275.49 59.62 273.29 60.37L273.23 60.31L273.40 60.48Q270.76 61.41 270.21 63.47L270.12 63.38L270.24 63.50Q269.76 64.74 269.90 66.11L269.85 66.06L269.92 66.13Q268.13 65.79 264.43 64.48L264.34 64.39L264.37 64.43Q264.02 61.47 264.09 59.96L264.08 59.95L264.10 59.97Q264.27 57.18 266.19 55.95L266.21 55.97L266.13 55.88Q268.77 54.89 271.66 54.89L271.55 54.78L271.67 54.90Q277.32 54.79 283.02 55.27L283.06 55.31L283.00 55.25Q292.07 55.94 291.52 62.74L291.58 62.80L291.62 62.84Q291.47 65.50 290.58 68.32L290.49 68.24L290.46 68.20Q288.89 73.84 284.63 75.49L284.64 75.49L284.64 75.50Q289.28 76.36 290.38 82.40L290.47 82.49L290.45 82.47Q290.88 84.55 291.02 88.19L290.98 88.15L291.12 88.29Q291.24 96.17 282.93 96.99L282.98 97.05L282.99 97.05Q281.66 97.17 272.12 97.65ZM281.49 101.66L281.61 101.79L281.55 101.73Q282.56 101.70 287.71 101.84L287.80 101.93L287.75 101.88Q290.98 102.09 293.93 100.92L293.87 100.86L293.81 100.80Q295.97 99.12 295.63 95.96L295.61 95.94L295.63 95.96Q295.41 93.54 294.86 90.39L294.89 90.41L294.96 90.48Q293.64 82.37 290.14 79.42L290.05 79.32L289.86 78.79L289.66 78.53L289.65 78.52Q292.91 76.00 294.28 68.11L294.33 68.16L294.20 68.03Q294.28 67.21 294.49 65.50L294.60 65.61L294.47 65.48Q294.73 64.23 294.59 62.99L294.59 63.00L294.47 62.87Q294.27 59.93 291.94 58.69L291.86 58.62L291.69 58.58L291.86 58.75Q291.31 56.96 289.25 56.00L289.16 55.91L289.26 56.01Q286.34 54.60 277.07 54.05L277.11 54.09L277.19 54.18Q274.07 53.94 271.18 53.94L271.23 53.98L271.26 54.01Q268.44 54.07 265.69 55.24L265.69 55.24L265.63 55.18Q263.34 56.46 263.34 59.62L263.42 59.70L263.47 59.75Q263.49 59.02 263.97 65.06L263.86 64.94L263.88 64.97Q264.51 65.18 267.46 66.28L267.31 66.13L267.38 66.20Q267.50 67.28 267.43 68.17L267.42 68.16L267.30 68.04Q267.24 68.88 267.31 69.84L267.33 69.86L267.31 69.84Q270.59 70.58 274.23 70.79L274.17 70.72L274.25 70.80Q274.21 67.26 276.20 65.75L276.19 65.74L276.05 65.60Q277.61 64.49 281.25 64.08L281.22 64.04L281.24 64.07Q283.42 64.18 284.45 64.52L284.36 64.43L284.38 64.46Q284.37 64.58 284.44 64.79L284.47 64.82L284.58 65.27L284.78 66.29L284.64 66.15Q284.75 66.61 284.68 66.88L284.61 66.81L284.68 66.89Q284.47 69.90 281.73 72.03L281.72 72.02L281.76 72.06Q280.02 73.63 276.39 73.97L276.49 74.07L276.39 73.97Q275.07 74.24 273.49 74.24L273.64 74.39L273.68 74.42Q273.71 75.00 273.98 76.24L273.85 76.10L273.86 76.12Q277.18 76.28 279.79 77.58L279.73 77.52L279.43 77.43L276.66 77.81L276.67 77.82Q276.68 78.39 276.89 79.48L276.87 79.47L277.02 79.62Q280.82 79.43 283.91 81.83L283.92 81.84L283.88 81.81Q284.27 82.47 284.82 85.42L284.83 85.43L284.92 85.52Q285.24 90.78 279.95 91.54L279.87 91.46L279.87 91.46Q276.16 92.01 275.13 91.94L275.01 91.82L275.01 91.82Q274.22 91.65 273.26 91.51L273.39 91.64L273.38 90.81L273.54 89.93L273.68 89.32L273.61 88.63L273.58 88.60Q271.89 88.77 270.45 89.11L270.43 89.09L270.58 89.24Q270.40 88.72 270.40 88.38L270.37 88.35L270.34 88.32Q270.53 88.10 270.53 87.68L270.40 87.55L270.41 87.56Q270.57 86.90 270.84 85.59L270.91 85.66L270.80 85.55Q267.50 86.03 264.14 86.64L264.02 86.52L264.20 86.71Q264.01 87.41 263.81 89.44L263.83 89.47L263.99 89.62Q263.70 91.57 263.70 92.67L263.61 92.57L263.66 92.62Q263.82 96.35 266.29 97.72L266.21 97.65L266.40 97.83Q268.98 101.85 277.49 101.51L277.58 101.60L277.43 101.45Q278.75 101.40 281.50 101.67Z"/><path fill="#e15f80" d="M160.05 91.53L159.91 91.39L160.00 91.48Q162.05 93.12 164.59 92.85L164.54 92.80L164.56 92.82Q169.81 93.12 170.98 87.08L171.06 87.16L170.99 87.09Q172.15 81.45 172.15 75.34L172.07 75.26L172.25 70.78L172.11 70.64Q172.23 68.49 171.61 66.22L171.57 66.18L171.58 66.19Q169.41 70.41 165.84 78.99L165.70 78.85L165.68 78.83Q162.20 87.51 160.01 91.49ZM169.11 61.80L169.01 61.70L169.06 61.75Q167.06 60.36 164.65 60.36L164.63 60.34L164.67 60.38Q161.97 60.08 159.98 61.73L159.88 61.63L159.96 61.71Q157.92 63.31 157.58 65.99L157.51 65.92L157.56 65.97Q157.04 68.54 156.97 71.21L156.84 71.09L157.00 71.24Q156.89 71.14 156.89 76.29L156.93 76.33L156.85 76.25Q156.97 80.63 157.80 87.15L157.78 87.14L157.70 87.06Q161.19 78.53 169.08 61.77ZM171.83 95.62L171.85 95.64L171.95 95.74Q168.68 97.28 164.50 97.28L164.55 97.33L161.60 97.34L161.66 97.39Q155.81 97.38 153.75 94.29L153.62 94.16L153.73 94.27Q152.18 90.25 152.04 84.96L152.17 85.10L152.18 85.10Q151.97 81.80 151.83 75.56L151.96 75.68L151.86 75.58Q151.89 73.48 151.62 67.99L151.60 67.97L151.59 67.96Q151.49 63.89 152.04 60.32L152.07 60.34L151.89 60.17Q152.84 54.94 160.67 54.52L160.78 54.64L160.75 54.61Q162.08 54.49 164.48 54.56L164.47 54.55L164.42 54.50Q174.63 54.75 176.55 61.00L176.68 61.13L176.60 61.05Q177.79 64.58 177.73 67.94L177.73 67.95L177.75 67.97Q177.49 76.84 177.35 79.03L177.44 79.12L177.43 79.11Q176.96 85.85 176.41 88.19L176.56 88.33L176.42 88.19Q175.39 93.97 171.96 95.75ZM180.90 95.35L180.85 95.30L180.74 95.19Q181.26 90.29 181.19 87.06L181.12 86.99L180.94 78.64L181.07 78.77Q180.83 73.25 179.87 63.29L179.86 63.28L179.95 63.37Q178.88 59.97 176.55 58.59L176.59 58.64L176.71 58.76Q173.71 53.97 164.38 53.70L164.42 53.74L164.47 53.80Q162.80 53.64 160.40 53.71L160.48 53.79L160.58 53.88Q152.29 53.90 151.39 59.53L151.43 59.56L151.40 59.54Q150.83 63.84 151.03 67.61L151.01 67.59L151.04 67.62Q151.63 75.49 151.56 81.53L151.52 81.49L151.51 81.48Q151.42 88.12 151.62 89.97L151.68 90.03L151.63 89.98Q152.33 95.55 155.08 96.99L155.07 96.98L155.10 97.02Q157.84 101.06 165.05 101.54L164.88 101.37L164.93 101.42Q171.36 101.81 172.53 101.74L172.48 101.69L172.49 101.71Q177.65 101.44 179.71 98.55L179.87 98.71L179.77 98.61Q180.75 97.47 180.89 95.34ZM165.32 92.20L165.31 92.19L165.27 92.15Q166.44 89.47 168.36 84.60L168.40 84.63L171.49 77.02L171.50 77.02Q171.52 80.07 170.83 86.11L170.81 86.09L170.75 86.03Q169.70 91.36 165.37 92.25ZM161.74 70.01L161.63 69.91L161.66 69.93Q162.48 66.70 163.71 65.67L163.84 65.80L163.75 65.71Q164.61 64.99 166.95 64.65L166.92 64.62L166.92 64.62Q163.86 71.24 160.49 79.62L160.40 79.52L160.57 79.70Q160.49 74.74 161.73 70.00Z"/><path d="M1 104 C183 9,190 62,333 8" stroke="#a3df66" fill="none"/><path d="M15 130 C172 115,173 12,325 70" stroke="#83f0d5" fill="none"/><path d="M17 29 C157 25,166 83,339 9" stroke="#5b9ee0" fill="none"/><path d="M9 16 C161 98,168 116,326 116" stroke="#ef89bc" fill="none"/><path d="M19 36 C175 86,189 82,326 37" stroke="#89efef" fill="none"/><path d="M14 30 C159 120,169 35,330 84" stroke="#81e3b2" fill="none"/><path d="M10 9 C166 20,168 116,332 93" stroke="#67dea3" fill="none"/><path d="M7 3 C165 134,177 95,333 31" stroke="#e34ebe" fill="none"/><path d="M21 45 C190 21,177 130,336 9" stroke="#e84949" fill="none"/><path d="M20 7 C153 70,173 107,327 26" stroke="#e7e778" fill="none"/><path d="M19 90 C163 76,171 53,340 101" stroke="#65eb86" fill="none"/><path d="M13 31 C188 90,152 122,339 122" stroke="#87e269" fill="none"/><path d="M3 11 C166 60,177 53,335 21" stroke="#63e7a5" fill="none"/><path d="M6 45 C169 93,174 130,324 99" stroke="#e538e5" fill="none"/><path d="M5 28 C172 125,173 90,330 58" stroke="#36e762" fill="none"/><path d="M13 74 C191 57,161 53,338 25" stroke="#e9bf43" fill="none"/><path d="M19 42 C187 33,187 80,324 47" stroke="#dd597a" fill="none"/><path d="M3 50 C188 137,175 101,331 16" stroke="#50dc50" fill="none"/><path d="M4 127 C180 89,162 82,341 35" stroke="#ed7777" fill="none"/><path d="M2 31 C183 98,171 7,334 78" stroke="#8abcee" fill="none"/><path fill="#5aa3eb" d="M222.55 67.15L222.48 67.08L222.47 67.08Q216.80 67.17 213.50 65.25L213.46 65.20L213.48 65.23Q217.97 62.71 226.76 55.09L226.85 55.19L226.73 55.06Q228.08 54.76 230.41 53.66L230.46 53.71L230.41 53.66Q228.06 64.42 227.85 75.89L227.83 75.87L227.86 75.90Q227.59 87.30 229.51 98.29L229.51 98.28L229.44 98.21Q226.41 96.90 222.57 96.70L222.67 96.80L222.64 96.77Q222.54 89.39 222.54 82.04L222.36 81.86L222.46 81.97Q222.52 74.60 222.59 67.19ZM221.86 71.20L221.88 97.52L221.88 97.52Q224.01 97.45 225.72 97.79L225.80 97.87L225.77 97.84Q225.93 99.09 226.27 101.56L226.21 101.50L226.12 101.42Q231.44 102.55 235.84 106.60L235.73 106.49L235.75 106.52Q231.24 93.63 231.17 80.17L231.21 80.21L231.20 80.20Q231.03 66.71 234.33 53.66L234.32 53.66L234.34 53.68Q233.47 54.52 230.59 56.51L230.64 56.56L230.63 56.55Q230.93 55.14 231.47 52.39L231.39 52.31L231.50 52.41Q229.10 53.79 226.49 54.48L226.48 54.46L226.34 54.33Q219.61 60.85 211.85 64.97L211.91 65.03L211.97 65.09Q214.37 66.94 218.63 67.56L218.72 67.65L218.70 67.63Q217.57 68.62 215.23 70.55L215.14 70.45L215.22 70.53Q217.91 71.24 221.90 71.24L221.85 71.19Z"/><path d="M7 110 C178 125,182 93,334 123" stroke="#6f49e3" fill="none"/><path d="M9 101 C180 97,175 58,334 129" stroke="#db9146" fill="none"/><path d="M15 33 C170 100,176 56,341 93" stroke="#4e73e3" fill="none"/><path d="M3 117 C179 22,167 134,331 112" stroke="#c16edd" fill="none"/><path d="M18 101 C163 85,151 2,336 136" stroke="#d65151" fill="none"/><path d="M8 137 C159 134,161 121,340 60" stroke="#5fdd5f" fill="none"/><path d="M3 87 C179 46,173 36,334 54" stroke="#8debd4" fill="none"/></svg>