<svg xmlns="http://www.w3.org/2000/svg" width="342" height="140" viewBox="0,0,342,140"><path fill="#df47b9" d="M216.85 94.43L216.82 94.40L216.75 94.33Q214.62 94.56 212.14 93.89L212.01 93.76L212.00 93.75Q210.06 92.29 209.82 89.69L209.82 89.70L209.96 89.84Q209.86 89.49 210.16 85.32L210.06 85.22L210.05 85.21Q211.84 85.07 215.05 84.46L214.96 84.37L214.67 85.59L214.61 85.53Q214.19 88.32 216.43 89.23L216.50 89.29L216.45 89.25Q217.87 89.94 221.19 89.94L221.14 89.88L221.10 89.84Q223.56 89.52 223.86 89.40L224.04 89.58L223.86 89.40Q225.49 89.33 226.64 88.55L226.57 88.48L226.61 88.52Q228.87 87.02 228.56 83.70L228.45 83.58L228.42 83.55Q228.19 79.75 225.44 77.27L225.48 77.31L225.45 77.29Q222.73 74.84 218.80 74.84L218.74 74.78L218.73 74.41L218.78 74.46Q219.28 74.29 220.67 74.17L220.83 74.33L220.76 74.26Q223.67 73.97 225.85 72.00L225.88 72.03L225.99 72.13Q228.10 70.11 228.35 67.14L228.30 67.10L228.39 67.19Q228.39 66.52 228.39 65.97L228.39 65.98L228.53 66.12Q228.45 63.61 226.27 62.16L226.23 62.12L226.27 62.17Q224.33 60.89 221.79 61.07L221.88 61.16L221.76 61.04Q219.68 60.78 217.75 61.44L217.88 61.57L217.91 61.61Q215.48 62.32 214.99 64.14L215.07 64.21L214.97 64.12Q214.66 65.31 214.78 66.52L214.93 66.67L214.80 66.54Q213.31 66.33 210.05 65.18L210.03 65.16L209.93 65.06Q209.67 62.50 209.73 61.17L209.65 61.09L209.65 61.10Q209.82 58.65 211.51 57.57L211.48 57.53L211.52 57.58Q213.80 56.65 216.34 56.65L216.25 56.56L216.28 56.59Q221.38 56.61 226.40 57.03L226.42 57.05L226.41 57.03Q234.51 57.75 234.02 63.74L233.89 63.61L233.85 63.57Q233.77 65.97 232.98 68.45L232.98 68.45L233.09 68.56Q231.53 73.35 227.77 74.80L227.74 74.77L227.76 74.78Q231.90 75.60 232.87 80.92L232.94 81.00L232.95 81.00Q233.23 82.73 233.35 85.94L233.45 86.04L233.36 85.95Q233.64 93.07 226.32 93.79L226.28 93.76L226.32 93.80Q225.15 93.89 216.74 94.32ZM225.13 97.99L225.08 97.93L225.01 97.87Q226.02 97.97 230.55 98.09L230.55 98.09L230.57 98.11Q233.40 98.27 236.00 97.25L236.05 97.29L236.08 97.32Q237.90 95.76 237.60 92.97L237.60 92.97L237.50 92.88Q237.46 90.89 236.97 88.11L236.95 88.09L236.91 88.05Q235.70 80.85 232.61 78.24L232.71 78.34L232.39 77.72L232.30 77.57L232.29 77.56Q235.15 75.34 236.36 68.38L236.23 68.25L236.33 68.35Q236.39 67.63 236.57 66.11L236.54 66.08L236.63 66.17Q236.72 64.92 236.59 63.83L236.46 63.70L236.57 63.81Q236.21 61.03 234.16 59.94L234.31 60.10L234.15 60.06L234.17 60.08Q233.70 58.52 231.88 57.67L231.86 57.65L231.87 57.66Q229.43 56.55 221.26 56.06L221.26 56.06L221.21 56.01Q218.57 55.91 216.03 55.91L216.00 55.88L216.03 55.91Q213.43 55.85 211.01 56.88L210.96 56.84L211.06 56.94Q209.05 58.07 209.05 60.86L209.08 60.88L209.18 60.99Q209.17 60.31 209.60 65.63L209.53 65.57L209.46 65.50Q210.11 65.78 212.71 66.75L212.70 66.74L212.59 66.63Q212.69 67.58 212.63 68.37L212.60 68.34L212.64 68.38Q212.50 69.02 212.56 69.87L212.68 69.99L212.53 69.84Q215.42 70.49 218.62 70.67L218.59 70.63L218.65 70.70Q218.64 67.60 220.39 66.26L220.21 66.09L220.30 66.18Q221.59 65.11 224.80 64.74L224.78 64.73L224.85 64.79Q226.64 64.77 227.54 65.07L227.56 65.08L227.62 65.14Q227.59 65.24 227.65 65.42L227.71 65.47L227.71 65.78L227.94 66.74L227.78 66.57Q227.87 66.97 227.81 67.21L227.90 67.30L227.79 67.19Q227.75 70.00 225.33 71.87L225.19 71.73L225.22 71.76Q223.84 73.28 220.63 73.58L220.70 73.65L220.68 73.63Q219.42 73.76 218.03 73.76L218.16 73.89L218.08 73.82Q218.21 74.43 218.45 75.52L218.35 75.42L218.30 75.37Q221.09 75.37 223.39 76.52L223.42 76.56L223.31 76.62L220.84 76.93L220.72 76.82Q220.94 77.53 221.13 78.50L220.97 78.34L221.01 78.38Q224.38 78.24 227.10 80.36L227.08 80.34L227.08 80.34Q227.44 80.94 227.93 83.54L228.01 83.62L228.00 83.62Q228.37 88.35 223.72 89.01L223.67 88.96L223.74 89.03Q220.32 89.37 219.42 89.31L219.37 89.26L219.46 89.36Q218.62 89.06 217.78 88.94L217.80 88.97L217.88 88.32L218.05 87.58L218.10 86.96L218.16 86.48L218.24 86.56Q216.61 86.56 215.34 86.86L215.26 86.78L215.42 86.94Q215.31 86.53 215.31 86.23L215.38 86.30L215.22 86.15Q215.32 85.88 215.32 85.52L215.40 85.60L215.34 85.54Q215.48 84.95 215.72 83.80L215.64 83.72L215.67 83.74Q212.63 84.03 209.66 84.58L209.70 84.62L209.73 84.65Q209.74 85.45 209.56 87.23L209.58 87.25L209.51 87.18Q209.39 89.02 209.39 89.99L209.29 89.90L209.46 90.06Q209.55 93.30 211.73 94.51L211.59 94.37L211.73 94.51Q214.00 98.06 221.51 97.75L221.46 97.71L221.54 97.78Q222.71 97.75 225.13 97.99Z"/><path d="M7 67 C154 44,187 70,327 37" stroke="#4cbbe0" fill="none"/><path d="M5 50 C189 72,156 60,332 32" stroke="#3b8cdc" fill="none"/><path fill="#aae074" d="M284.81 73.47L284.79 73.46L284.70 73.36Q286.14 73.54 288.38 73.29L288.29 73.21L288.30 73.21Q288.23 74.23 288.23 75.25L288.31 75.34L288.33 77.36L288.23 77.26Q286.90 77.26 285.57 77.38L285.62 77.43L285.65 77.46Q284.18 77.38 282.85 77.32L282.86 77.34L283.00 77.47Q278.33 87.14 272.88 94.46L273.00 94.57L273.01 94.59Q268.96 95.56 266.90 96.53L266.82 96.44L266.96 96.58Q273.36 87.38 278.20 77.40L278.29 77.48L274.17 77.53L274.02 77.38Q274.16 75.41 273.98 73.29L273.96 73.27L273.83 73.14Q276.98 73.50 280.24 73.50L280.28 73.54L283.31 67.68L283.31 67.68Q284.80 64.57 286.73 62.02L286.63 61.93L286.77 62.07Q284.25 62.27 281.71 62.27L281.60 62.16L281.79 62.34Q272.00 62.23 266.01 58.73L266.11 58.83L265.05 56.07L264.99 56.01Q264.46 54.70 263.86 53.31L263.89 53.34L263.83 53.28Q270.66 57.38 279.73 57.75L279.89 57.91L279.91 57.92Q288.02 58.23 296.19 55.08L296.06 54.96L296.10 55.00Q295.91 55.77 295.12 57.16L294.99 57.04L295.12 57.16Q289.29 64.64 284.75 73.41ZM297.70 59.38L297.68 59.36L299.09 55.99L299.14 56.04Q297.73 56.92 295.06 58.07L295.02 58.03L295.38 57.60L295.40 57.62Q295.55 57.35 295.74 57.17L295.67 57.11L295.71 57.15Q296.37 56.11 297.52 53.99L297.35 53.82L297.46 53.94Q288.92 57.50 279.79 57.14L279.73 57.08L279.90 57.25Q270.21 56.69 262.64 51.97L262.70 52.02L262.71 52.04Q264.30 54.96 265.63 59.19L265.73 59.29L265.62 59.18Q267.44 60.28 268.71 60.77L268.62 60.67L268.70 60.75Q268.93 61.28 269.65 64.25L269.71 64.30L269.64 64.23Q274.76 66.33 283.53 66.09L283.38 65.93L283.49 66.04Q282.91 66.85 279.76 72.84L279.74 72.82L279.80 72.88Q276.54 72.89 273.39 72.59L273.34 72.53L273.33 72.52Q273.57 73.97 273.57 75.36L273.48 75.27L273.49 78.01L276.24 78.09L276.20 80.30L276.19 80.29Q269.95 92.01 265.54 97.70L265.52 97.69L265.49 97.66Q268.18 96.59 270.78 95.81L270.64 95.66L270.77 95.80Q269.69 97.25 267.51 99.98L267.44 99.91L267.37 99.84Q272.38 98.07 276.25 97.71L276.33 97.79L276.28 97.73Q281.05 91.85 286.01 81.09L285.97 81.04L291.39 81.32L291.38 81.31Q291.31 79.91 291.31 78.46L291.21 78.36L291.25 75.55L291.16 75.47Q290.92 75.65 290.04 75.71L289.91 75.58L289.98 75.64Q289.10 75.71 288.68 75.71L288.74 75.77L288.74 75.77Q288.74 75.59 288.80 75.35L288.77 75.32L288.65 74.77L288.69 74.81Q292.80 66.76 297.70 59.38Z"/><path d="M17 37 C171 115,152 10,327 27" stroke="#dd5454" fill="none"/><path d="M10 90 C169 117,182 134,333 80" stroke="#e1c983" fill="none"/><path d="M13 85 C160 123,167 44,338 118" stroke="#5e5ed8" fill="none"/><path d="M15 111 C186 83,151 26,338 50" stroke="#83db66" fill="none"/><path d="M6 73 C161 115,188 108,329 27" stroke="#7decec" fill="none"/><path d="M3 103 C156 126,156 30,330 137" stroke="#78e778" fill="none"/><path d="M4 99 C153 75,159 65,340 48" stroke="#88a0e6" fill="none"/><path d="M10 50 C179 131,169 80,329 30" stroke="#dede44" fill="none"/><path d="M5 112 C186 62,176 25,324 64" stroke="#e6ba8d" fill="none"/><path fill="#3a63dd" d="M102.52 82.70L102.53 82.70L102.44 82.61Q107.39 82.05 112.47 82.24L112.50 82.27L112.45 82.21Q112.39 78.16 112.39 74.35L112.38 74.34L112.34 74.30Q112.32 70.35 112.63 66.30L112.70 66.37L112.69 66.37Q110.69 69.02 102.40 82.57ZM118.17 94.29L118.22 94.34L118.23 94.35Q115.48 93.78 112.64 93.66L112.80 93.81L112.66 93.68Q112.45 90.02 112.27 86.09L112.24 86.06L112.20 86.02Q103.79 85.78 96.29 88.02L96.15 87.88L96.15 87.88Q96.41 87.17 96.71 85.60L96.75 85.63L96.81 85.69Q99.61 80.63 105.29 70.64L105.18 70.53L105.21 70.56Q109.95 62.96 115.40 56.79L115.28 56.67L115.38 56.77Q116.67 56.37 119.33 55.94L119.31 55.92L119.35 55.96Q116.28 66.14 116.28 77.34L116.34 77.39L116.31 77.36Q116.24 79.65 116.36 82.01L116.42 82.07L118.52 82.30L118.53 82.31Q119.51 82.38 120.48 82.56L120.42 82.51L120.45 82.53Q120.54 84.01 120.96 87.10L121.09 87.22L120.98 87.11Q119.15 86.80 116.80 86.50L116.79 86.50L116.70 86.40Q117.02 89.56 118.10 94.22ZM120.84 81.90L120.88 81.93L120.83 81.88Q120.48 81.72 120.18 81.72L120.22 81.76L119.57 81.71L119.58 81.72Q119.57 79.54 119.57 77.30L119.57 77.30L119.52 77.25Q119.47 67.03 122.73 57.47L122.73 57.47L122.68 57.41Q121.51 57.88 119.21 58.48L119.29 58.56L119.24 58.51Q119.59 57.29 120.32 55.05L120.31 55.04L120.29 55.03Q118.27 55.67 115.01 56.03L115.04 56.07L115.04 56.07Q108.74 62.90 100.45 77.78L100.38 77.71L103.82 72.02L103.83 72.02Q103.06 73.56 102.64 74.46L102.70 74.52L95.63 88.87L95.56 88.80Q96.63 88.60 98.45 88.00L98.45 88.00L98.20 88.35L98.29 88.44Q98.05 89.47 97.56 91.47L97.51 91.41L97.56 91.47Q104.03 89.28 111.71 89.59L111.80 89.67L111.78 89.65Q111.90 91.22 112.20 94.37L112.08 94.25L112.08 94.25Q113.94 94.42 115.64 94.60L115.48 94.45L115.63 94.59Q115.69 95.50 116.11 97.68L116.29 97.85L116.23 97.79Q119.15 98.05 123.93 99.51L123.96 99.53L123.99 99.56Q122.53 96.29 121.08 91.09L121.01 91.02L123.38 91.81L123.22 91.66Q124.46 92.16 125.54 92.71L125.39 92.56L125.41 92.57Q124.19 88.63 123.95 85.97L124.00 86.02L123.93 85.95Q123.09 85.77 121.27 85.41L121.27 85.41L121.19 85.33Q120.92 83.36 120.92 81.97ZM108.10 81.61L108.23 81.75L108.11 81.63Q109.31 79.56 111.79 75.50L111.79 75.51L111.80 75.52Q111.76 76.99 111.70 78.50L111.82 78.62L111.74 78.54Q111.88 80.26 111.94 81.77L111.88 81.70L111.76 81.59Q110.92 81.59 110.01 81.59L110.06 81.64L109.96 81.54Q109.19 81.74 108.22 81.74Z"/><path d="M18 118 C188 34,174 30,323 52" stroke="#89e6b7" fill="none"/><path d="M2 96 C177 96,170 46,334 57" stroke="#df4793" fill="none"/><path d="M19 128 C170 109,177 19,323 104" stroke="#dc6f8a" fill="none"/><path d="M17 49 C171 110,171 101,338 82" stroke="#a4ec8c" fill="none"/><path fill="#6aebcb" d="M47.84 94.45L47.93 94.54L47.76 94.37Q41.37 94.82 39.80 91.13L39.87 91.20L39.80 91.13Q41.00 89.61 43.49 86.77L43.39 86.68L43.47 86.75Q44.34 90.04 49.12 90.23L49.14 90.24L48.99 90.09Q54.34 90.18 56.94 88.06L56.97 88.09L56.98 88.10Q59.27 85.61 59.14 81.31L59.17 81.33L59.13 81.29Q58.93 73.29 51.31 73.65L51.23 73.57L51.25 73.60Q46.90 73.97 44.12 75.97L44.01 75.86L43.44 75.53L43.26 75.47L43.20 75.41Q43.68 70.32 43.50 65.97L43.59 66.06L43.55 66.02Q43.44 61.91 42.89 56.65L42.76 56.52L42.81 56.57Q48.60 58.06 54.65 57.88L54.75 57.98L54.62 57.85Q60.62 57.68 66.31 55.68L66.48 55.85L65.57 58.27L65.56 58.26Q64.99 59.39 64.69 60.72L64.75 60.78L64.64 60.67Q59.68 62.31 53.51 62.31L53.60 62.39L53.56 62.35Q51.25 62.34 48.89 62.10L48.95 62.16L49.02 62.23Q48.84 63.27 48.30 70.34L48.34 70.39L48.25 70.30Q49.66 69.65 52.93 69.41L52.86 69.34L52.88 69.36Q58.83 69.75 61.13 72.41L61.09 72.36L61.14 72.41Q63.25 74.77 63.68 80.88L63.64 80.85L63.69 80.89Q64.17 87.60 62.23 90.81L62.20 90.78L62.19 90.77Q58.94 93.75 53.67 94.11L53.67 94.11L53.66 94.10Q52.08 94.21 47.84 94.45ZM57.44 98.06L57.43 98.05L57.52 98.14Q62.89 98.19 65.92 96.43L65.96 96.47L65.86 96.38Q67.45 93.97 67.45 90.64L67.47 90.66L67.46 90.66Q67.52 85.81 66.00 79.28L65.90 79.17L65.93 79.20Q65.42 76.52 63.48 74.28L63.35 74.14L63.41 74.27L63.13 73.86L62.54 73.51L62.55 73.53Q62.12 72.43 61.09 71.34L61.11 71.36L60.99 71.30L61.05 71.36Q58.75 68.81 52.88 68.81L52.79 68.73L52.37 68.73L52.40 68.76Q52.50 67.83 52.80 66.07L52.80 66.07L52.89 66.17Q60.82 66.35 67.23 63.75L67.06 63.58L67.22 63.74Q67.71 61.32 69.22 56.84L69.41 57.03L65.93 58.39L65.89 58.35Q66.64 56.68 67.42 54.86L67.46 54.90L67.43 54.87Q61.29 57.14 54.75 57.26L54.67 57.17L54.69 57.19Q48.19 57.41 41.90 55.65L41.87 55.63L41.97 55.72Q43.08 62.76 43.08 69.78L43.06 69.76L42.91 69.62Q43.04 72.77 42.86 75.80L42.84 75.78L42.86 75.80Q43.26 76.08 44.17 76.56L44.16 76.55L44.07 76.46Q44.65 76.13 45.68 75.59L45.64 75.55L45.71 75.62Q45.68 76.87 45.32 79.29L45.27 79.23L45.33 79.29Q46.04 79.64 46.70 80.00L46.66 79.95L46.61 79.91Q51.04 77.13 54.00 77.13L53.96 77.09L54.07 77.20Q56.04 77.06 57.92 78.09L58.09 78.26L58.08 78.25Q58.62 79.88 58.68 81.39L58.62 81.33L58.50 81.22Q58.65 85.35 57.01 87.10L57.14 87.23L57.10 87.19Q54.91 89.11 51.34 89.48L51.40 89.54L51.41 89.55Q49.73 89.51 48.64 89.38L48.71 89.45L48.80 89.54Q47.50 89.39 46.29 88.84L46.20 88.76L46.20 88.45L45.96 88.58L46.04 88.65Q44.72 87.82 43.87 85.70L43.93 85.77L43.90 85.73Q41.63 87.82 38.97 91.21L39.13 91.36L39.04 91.27Q39.57 92.35 40.90 93.86L40.97 93.93L40.88 93.84Q42.51 96.68 46.98 97.47L47.06 97.54L46.98 97.47Q49.01 97.97 57.54 98.16Z"/><path d="M5 2 C173 35,166 68,337 8" stroke="#d84a6d" fill="none"/><path d="M16 42 C187 72,184 55,329 88" stroke="#de67de" fill="none"/><path d="M17 137 C176 4,182 28,339 30" stroke="#9ee655" fill="none"/><path d="M12 120 C189 29,176 19,336 72" stroke="#cae57a" fill="none"/><path d="M11 103 C167 18,160 29,323 77" stroke="#8eead3" fill="none"/><path d="M11 131 C186 123,189 80,326 82" stroke="#c3e65a" fill="none"/><path d="M12 39 C167 83,166 18,324 81" stroke="#4bbfe6" fill="none"/><path d="M17 108 C185 46,165 18,327 59" stroke="#e35da0" fill="none"/><path d="M21 132 C158 32,160 3,337 61" stroke="#5ad7b8" fill="none"/><path d="M3 8 C173 44,177 86,340 58" stroke="#d6418c" fill="none"/><path d="M6 107 C178 18,187 68,340 66" stroke="#a0e589" fill="none"/><path d="M14 51 C168 139,184 2,328 101" stroke="#7b59e2" fill="none"/><path d="M3 134 C170 18,155 118,326 98" stroke="#bced8c" fill="none"/><path d="M20 124 C156 71,153 133,332 137" stroke="#5de3c2" fill="none"/><path d="M1 47 C189 108,153 12,341 55" stroke="#4c4cd6" fill="none"/><path d="M20 45 C171 99,168 113,334 33" stroke="#e763a5" fill="none"/><path d="M18 29 C180 26,180 127,326 134" stroke="#e48c33" fill="none"/><path d="M15 9 C190 86,188 43,330 71" stroke="#9090e4" fill="none"/><path d="M7 51 C160 135,162 122,331 90" stroke="#e13bb8" fill="none"/><path d="M3 78 C153 55,185 24,333 37" stroke="#478cd1" fill="none"/><path d="M14 54 C184 34,183 34,338 87" stroke="#aaec69" fill="none"/><path d="M15 74 C160 86,173 85,323 98" stroke="#79e0ad" fill="none"/><path d="M11 63 C175 14,156 4,334 111" stroke="#84e5b5" fill="none"/><path fill="#8e70ea" d="M166.33 67.45L166.32 67.44L166.36 67.48Q161.23 67.43 158.32 65.74L158.29 65.70L158.26 65.68Q162.44 63.68 170.19 56.97L170.01 56.79L170.16 56.94Q171.22 56.54 173.27 55.58L173.29 55.59L173.38 55.68Q171.26 65.12 171.08 75.22L170.90 75.05L171.09 75.23Q170.73 85.16 172.42 94.84L172.44 94.86L172.45 94.86Q169.92 93.85 166.53 93.67L166.51 93.65L166.46 93.60Q166.19 86.91 166.19 80.44L166.25 80.50L166.29 80.54Q166.20 73.91 166.26 67.38ZM165.78 71.07L165.76 94.22L165.69 94.16Q167.58 94.11 169.09 94.41L169.28 94.60L169.17 94.49Q169.35 95.64 169.66 97.82L169.63 97.80L169.63 97.79Q174.16 98.64 178.03 102.20L177.93 102.10L178.10 102.27Q174.07 90.86 174.01 79.00L173.97 78.96L174.04 79.03Q173.97 67.23 176.88 55.73L176.77 55.63L176.85 55.70Q176.01 56.38 173.47 58.13L173.36 58.03L173.47 58.13Q173.63 56.78 174.12 54.36L174.19 54.44L174.14 54.39Q172.09 55.66 169.79 56.27L169.87 56.35L169.72 56.20Q163.89 62.04 157.05 65.67L156.98 65.61L157.03 65.65Q159.29 67.42 163.04 67.97L162.98 67.91L162.96 67.90Q161.86 68.66 159.80 70.36L159.92 70.48L159.90 70.46Q162.17 70.97 165.68 70.97L165.73 71.03Z"/><path d="M6 106 C180 87,157 105,328 95" stroke="#7ee0c8" fill="none"/><path d="M15 111 C177 12,170 108,332 80" stroke="#e86de8" fill="none"/></svg>