<svg xmlns="http://www.w3.org/2000/svg" width="342" height="140" viewBox="0,0,342,140"><path fill="#46d6d6" d="M179.27 93.94L179.30 93.97L179.24 93.91Q179.89 95.83 180.88 99.58L180.82 99.52L180.89 99.59Q173.05 97.12 164.49 97.62L164.42 97.55L164.45 97.57Q156.03 98.13 148.60 101.80L148.47 101.67L148.55 101.75Q148.93 100.44 149.00 100.58L148.99 100.57L149.03 100.61Q156.04 93.33 163.32 85.13L163.24 85.05L163.29 85.11Q171.44 75.79 173.63 67.09L173.72 67.18L173.70 67.16Q174.56 63.92 172.20 61.73L172.19 61.73L172.14 61.68Q169.75 59.47 166.43 59.75L166.49 59.80L166.48 59.80Q165.81 59.70 165.18 59.70L165.21 59.73L165.18 59.70Q162.28 59.63 159.95 61.32L159.93 61.31L160.04 61.41Q157.60 63.93 158.03 68.88L158.10 68.96L157.97 68.82Q154.61 68.15 152.35 67.30L152.41 67.37L152.42 67.37Q152.01 64.70 151.87 62.01L151.93 62.07L151.86 62.00Q151.76 59.01 152.89 56.89L152.99 56.99L152.92 56.91Q156.30 54.42 162.52 54.42L162.40 54.31L165.73 54.38L165.82 54.47Q169.91 54.39 171.67 54.60L171.76 54.69L171.76 54.68Q179.85 55.50 180.35 60.02L180.29 59.96L180.25 59.93Q180.33 60.93 180.19 62.41L180.28 62.50L180.36 62.58Q180.31 63.80 180.03 65.07L179.96 65.01L179.87 64.92Q176.81 79.96 162.74 92.68L162.84 92.78L162.88 92.82Q165.39 92.44 167.94 92.44L168.04 92.53L168.06 92.56Q174.08 92.57 179.39 94.06ZM178.27 55.33L178.32 55.38L178.26 55.32Q175.33 54.15 172.15 54.01L172.03 53.90L165.82 53.69L165.72 53.60Q157.39 53.05 153.29 55.10L153.36 55.16L153.38 55.18Q151.33 57.66 151.33 61.47L151.42 61.57L151.34 61.48Q151.52 62.94 152.09 68.17L152.10 68.19L152.08 68.16Q152.93 68.45 155.12 69.02L155.21 69.10L155.15 70.95L155.24 71.04Q155.20 71.92 155.34 72.91L155.34 72.91L155.32 72.89Q157.53 72.98 162.13 73.40L162.15 73.43L162.15 73.43Q162.12 72.76 162.12 72.13L162.19 72.19L162.08 72.08Q162.12 68.73 164.39 66.23L164.39 66.23L164.48 66.32Q166.69 63.76 170.01 63.97L170.02 63.97L169.93 63.89Q171.40 64.01 172.81 64.29L172.87 64.35L172.73 64.21Q173.06 65.04 173.20 65.82L173.08 65.69L173.23 65.85Q173.29 66.61 173.15 67.25L173.10 67.20L173.12 67.22Q170.84 76.11 162.64 85.08L162.53 84.98L162.61 85.06Q158.49 89.07 148.38 100.31L148.38 100.31L148.41 100.34Q148.18 102.02 147.55 103.08L147.44 102.98L147.55 103.08Q150.50 101.44 153.33 100.45L153.20 100.32L153.24 100.37Q151.92 101.45 150.16 104.21L150.11 104.16L150.24 104.29Q149.89 104.78 149.67 105.42L149.71 105.45L149.72 105.47Q158.81 101.69 168.99 102.04L168.99 102.05L169.02 102.08Q179.57 102.37 188.05 106.75L188.06 106.76L186.09 102.66L186.21 102.79Q184.90 100.21 184.41 98.72L184.42 98.73L184.48 98.79Q183.04 97.92 180.78 97.14L180.79 97.16L180.82 97.19Q180.67 95.98 179.96 93.43L179.81 93.28L179.79 93.26Q175.68 92.19 171.44 91.84L171.58 91.98L171.56 91.96Q180.12 83.33 182.95 67.99L183.04 68.09L183.31 62.63L183.46 62.78Q183.18 59.32 180.92 58.05L180.98 58.11L180.93 58.13L180.96 58.16Q180.94 58.06 180.79 58.06L180.81 58.08L180.74 58.01Q180.23 56.37 178.18 55.24Z"/><path d="M16 132 C154 48,191 83,328 6" stroke="#d3e98f" fill="none"/><path d="M7 99 C181 38,156 29,322 37" stroke="#ebeb64" fill="none"/><path d="M21 39 C166 60,173 109,328 5" stroke="#683fe3" fill="none"/><path d="M6 134 C183 75,183 58,332 125" stroke="#5ba0e5" fill="none"/><path d="M14 82 C171 136,159 39,333 105" stroke="#4be196" fill="none"/><path d="M17 92 C178 32,182 134,330 24" stroke="#e1839b" fill="none"/><path d="M5 17 C156 42,165 45,326 86" stroke="#e07f97" fill="none"/><path d="M3 127 C160 55,155 89,331 85" stroke="#4a4add" fill="none"/><path d="M12 17 C178 112,174 69,337 135" stroke="#36e236" fill="none"/><path fill="#b8e23a" d="M221.19 77.71L221.11 77.63L221.18 77.69Q217.67 77.37 215.37 80.02L215.47 80.12L215.51 80.16Q213.11 82.71 212.76 86.25L212.71 86.20L212.81 86.30Q212.41 90.14 214.42 91.94L214.45 91.97L214.43 91.94Q216.35 93.66 220.24 93.45L220.31 93.52L220.18 93.38Q224.14 93.17 226.19 91.90L226.29 92.00L226.15 91.86Q228.28 89.81 228.28 86.92L228.39 87.03L228.27 86.91Q228.24 86.18 228.10 85.47L228.25 85.62L228.09 85.46Q228.37 82.49 226.32 79.98L226.36 80.02L226.33 79.99Q224.17 77.37 221.06 77.58ZM220.34 98.28L220.32 98.26L220.28 98.22Q212.29 98.36 209.67 96.95L209.51 96.78L209.68 96.95Q207.68 95.44 207.32 92.26L207.29 92.23L207.24 92.18Q207.23 90.97 207.30 89.62L207.37 89.69L207.37 89.69Q207.60 87.87 207.60 87.02L207.55 86.98L207.64 87.07Q208.39 81.66 208.67 80.39L208.76 80.47L208.65 80.37Q209.55 76.82 211.11 74.20L211.15 74.25L211.14 74.23Q215.93 65.95 226.96 54.14L227.06 54.23L227.10 54.28Q231.93 53.59 236.03 52.11L236.07 52.15L236.14 52.22Q223.38 66.04 217.44 73.89L217.34 73.79L217.46 73.91Q219.20 72.89 221.61 72.89L221.73 73.02L221.76 73.05Q227.78 72.92 230.61 76.53L230.69 76.61L230.75 76.66Q233.14 79.62 233.77 86.19L233.81 86.23L233.70 86.12Q233.98 87.60 233.98 88.73L233.93 88.68L233.90 88.65Q233.97 94.52 229.87 96.50L229.90 96.53L229.90 96.53Q227.48 97.50 220.27 98.21ZM224.59 102.75L224.53 102.68L224.62 102.77Q227.01 102.69 230.69 102.83L230.60 102.74L230.73 102.88Q233.66 102.91 236.56 101.57L236.52 101.52L236.51 101.51Q238.63 100.10 238.63 96.78L238.70 96.84L238.65 96.79Q238.68 95.91 238.36 94.07L238.26 93.97L238.41 94.12Q238.04 92.22 238.04 91.38L237.98 91.32L238.00 91.34Q236.46 82.65 233.49 79.12L233.34 78.97L233.43 79.06Q233.31 78.87 233.03 78.45L232.94 78.36L232.34 77.90L232.32 77.95L232.21 77.84Q231.61 76.95 230.48 75.19L230.44 75.15L230.52 75.24Q228.90 73.54 225.23 72.70L225.08 72.55L225.22 72.69Q227.41 69.65 232.92 62.79L232.98 62.85L240.79 52.98L240.74 52.93Q237.83 54.55 233.38 55.96L233.34 55.92L233.36 55.95Q235.21 54.26 238.53 50.58L238.46 50.51L238.48 50.52Q234.02 52.50 226.81 53.56L226.76 53.51L226.74 53.49Q216.11 64.43 210.60 73.62L210.63 73.66L210.75 73.77Q207.89 78.41 206.83 90.00L206.68 89.85L206.77 89.94Q206.60 90.98 206.74 92.74L206.83 92.83L206.67 92.67Q206.96 96.07 209.01 97.76L209.00 97.75L208.96 97.72Q209.68 98.02 209.61 98.09L209.52 98.00L209.55 98.02Q210.31 99.78 211.80 100.56L211.82 100.58L211.77 100.53Q214.45 101.80 218.06 102.15L217.98 102.08L218.14 102.23Q218.13 102.22 224.64 102.79ZM224.16 81.88L224.08 81.80L224.15 81.87Q225.26 81.70 227.02 82.62L226.99 82.59L227.03 82.63Q227.54 84.27 227.54 85.47L227.57 85.50L227.70 85.64Q227.97 89.02 226.20 90.85L226.23 90.88L226.19 90.83Q224.27 92.24 220.38 92.81L220.44 92.86L220.41 92.84Q217.68 92.79 216.69 92.30L216.66 92.27L216.70 92.31Q216.32 91.44 216.32 90.87L216.23 90.78L216.24 90.79Q215.87 84.77 221.32 82.36L221.33 82.37L221.35 82.39Q222.83 81.83 224.25 81.97Z"/><path d="M1 84 C189 27,151 32,323 9" stroke="#d75093" fill="none"/><path d="M19 20 C152 137,171 49,332 84" stroke="#5cda7c" fill="none"/><path d="M20 67 C181 133,164 91,323 57" stroke="#56e079" fill="none"/><path d="M10 9 C156 44,165 111,337 50" stroke="#48bde4" fill="none"/><path d="M19 14 C166 94,189 54,330 101" stroke="#c867e9" fill="none"/><path d="M16 79 C169 30,152 64,328 42" stroke="#879fe7" fill="none"/><path d="M8 111 C157 77,185 20,327 113" stroke="#61a5ea" fill="none"/><path d="M8 137 C169 115,150 127,340 89" stroke="#84e5cd" fill="none"/><path fill="#e77de7" d="M270.61 84.74L270.55 84.68L270.72 84.85Q276.30 84.00 282.23 84.21L282.28 84.25L282.30 84.27Q282.25 79.55 282.25 75.10L282.25 75.10L282.15 75.00Q282.17 70.42 282.52 65.69L282.67 65.83L282.59 65.76Q280.32 68.93 270.63 84.76ZM288.94 98.34L289.07 98.47L289.01 98.41Q285.91 97.85 282.59 97.71L282.57 97.69L282.50 97.62Q282.24 93.33 282.03 88.74L282.06 88.77L282.04 88.75Q272.09 88.34 263.32 90.96L263.37 91.01L263.30 90.94Q263.53 90.04 263.88 88.20L264.01 88.33L263.92 88.23Q267.32 82.44 273.97 70.78L273.86 70.67L273.80 70.61Q279.27 61.66 285.63 54.45L285.63 54.45L285.56 54.38Q287.20 54.04 290.31 53.54L290.37 53.60L290.36 53.59Q286.89 65.60 286.89 78.68L286.84 78.63L286.73 78.53Q286.90 81.45 287.04 84.20L286.96 84.13L289.35 84.33L289.44 84.42Q290.55 84.46 291.68 84.67L291.57 84.56L291.62 84.61Q291.85 86.47 292.34 90.07L292.28 90.01L292.26 89.99Q290.12 89.62 287.36 89.27L287.41 89.32L287.32 89.23Q287.74 92.96 289.01 98.41ZM292.16 83.96L292.13 83.93L292.22 84.01Q291.79 83.79 291.43 83.79L291.49 83.85L290.73 83.80L290.64 83.70Q290.53 81.05 290.53 78.44L290.42 78.33L290.54 78.45Q290.43 66.46 294.25 55.29L294.29 55.32L294.39 55.42Q292.91 55.86 290.23 56.57L290.15 56.49L290.32 56.66Q290.67 55.17 291.52 52.55L291.46 52.49L291.52 52.56Q289.17 53.32 285.36 53.75L285.22 53.61L285.27 53.66Q277.92 61.66 268.24 79.05L268.40 79.21L272.23 72.37L272.15 72.29Q271.36 74.18 270.87 75.24L271.01 75.39L262.63 92.04L262.68 92.08Q263.79 91.71 265.91 91.00L265.99 91.09L265.66 91.46L265.66 91.46Q265.52 92.81 264.96 95.14L264.83 95.01L264.85 95.04Q272.51 92.58 281.49 92.93L281.47 92.91L281.53 92.98Q281.66 94.80 282.01 98.48L281.94 98.41L281.98 98.44Q284.01 98.50 285.99 98.71L285.83 98.55L285.85 98.57Q286.24 99.95 286.74 102.50L286.60 102.36L286.70 102.46Q290.20 102.85 295.78 104.54L295.76 104.52L295.84 104.60Q294.03 100.66 292.33 94.58L292.20 94.45L294.93 95.34L294.92 95.33Q296.33 95.90 297.61 96.54L297.50 96.43L297.50 96.43Q296.09 91.84 295.81 88.73L295.72 88.64L295.80 88.73Q294.60 88.30 292.48 87.87L292.65 88.04L292.51 87.91Q292.10 85.51 292.10 83.89ZM277.21 83.57L277.32 83.67L277.33 83.69Q278.66 81.19 281.55 76.46L281.64 76.54L281.57 76.48Q281.63 78.30 281.56 80.07L281.54 80.05L281.56 80.06Q281.60 81.95 281.67 83.72L281.55 83.59L281.59 83.64Q280.49 83.52 279.43 83.52L279.47 83.56L279.46 83.56Q278.48 83.70 277.35 83.70Z"/><path d="M18 60 C160 110,158 59,325 84" stroke="#dd6740" fill="none"/><path d="M8 22 C178 137,190 53,332 126" stroke="#ec7d7d" fill="none"/><path d="M7 33 C188 96,164 64,321 1" stroke="#ea7b57" fill="none"/><path d="M6 64 C161 134,167 105,334 130" stroke="#65eba8" fill="none"/><path d="M17 88 C168 123,189 30,329 116" stroke="#92bce6" fill="none"/><path fill="#c8e17e" d="M46.32 98.54L46.30 98.52L46.28 98.49Q38.79 99.00 36.96 94.69L36.96 94.70L36.97 94.71Q38.43 92.98 41.33 89.66L41.27 89.60L41.17 89.50Q42.27 93.43 47.85 93.64L47.72 93.50L47.74 93.52Q54.07 93.70 57.11 91.23L57.14 91.26L57.00 91.12Q59.69 88.22 59.55 83.20L59.59 83.24L59.47 83.13Q59.33 73.86 50.42 74.29L50.30 74.16L50.34 74.20Q45.18 74.57 41.93 76.90L41.96 76.93L41.28 76.53L40.91 76.30L40.85 76.25Q41.61 70.49 41.39 65.40L41.37 65.38L41.42 65.43Q41.14 60.48 40.50 54.33L40.56 54.39L40.55 54.38Q47.26 56.07 54.33 55.86L54.29 55.81L54.36 55.88Q61.45 55.76 68.09 53.43L67.96 53.29L66.94 56.16L66.94 56.17Q66.52 57.72 66.16 59.27L66.13 59.24L66.04 59.15Q60.35 61.17 53.14 61.17L53.01 61.04L53.08 61.11Q50.38 61.10 47.62 60.81L47.62 60.81L47.70 60.89Q47.44 62.05 46.80 70.32L46.89 70.41L46.86 70.38Q48.30 69.41 52.11 69.12L52.18 69.19L52.14 69.15Q59.18 69.68 61.86 72.79L61.84 72.77L61.83 72.76Q64.33 75.55 64.83 82.69L64.91 82.77L64.91 82.77Q65.42 90.56 63.16 94.31L63.02 94.17L63.13 94.28Q59.44 97.87 53.29 98.30L53.15 98.15L53.10 98.11Q51.37 98.36 46.42 98.64ZM57.54 102.76L57.54 102.76L57.58 102.80Q63.94 102.94 67.48 100.89L67.55 100.96L67.46 100.88Q69.26 98.00 69.26 94.12L69.25 94.11L69.39 94.25Q69.40 88.53 67.64 80.90L67.54 80.80L67.50 80.77Q66.76 77.47 64.49 74.86L64.64 75.00L64.66 75.10L64.29 74.58L63.60 74.18L63.66 74.24Q63.04 72.84 61.84 71.56L61.81 71.54L61.92 71.72L61.82 71.62Q58.94 68.46 52.09 68.46L52.22 68.60L51.62 68.49L51.67 68.54Q51.70 67.37 52.05 65.31L52.12 65.38L52.06 65.32Q61.32 65.53 68.81 62.49L68.84 62.52L68.85 62.52Q69.70 59.98 71.47 54.75L71.36 54.64L67.51 56.45L67.59 56.53Q68.33 54.44 69.25 52.32L69.27 52.34L69.09 52.16Q61.95 54.85 54.32 55.00L54.42 55.10L54.42 55.10Q46.72 55.24 39.36 53.19L39.45 53.28L39.33 53.16Q40.61 61.37 40.61 69.57L40.72 69.68L40.75 69.70Q40.71 73.20 40.50 76.74L40.44 76.68L40.38 76.62Q41.00 77.10 42.06 77.66L42.10 77.71L42.11 77.72Q42.59 77.14 43.79 76.50L43.86 76.56L43.77 76.48Q43.78 77.97 43.35 80.79L43.41 80.86L43.32 80.76Q44.09 81.11 44.87 81.53L45.00 81.67L44.84 81.51Q50.04 78.30 53.51 78.30L53.58 78.37L53.65 78.43Q56.06 78.37 58.25 79.57L58.21 79.53L58.16 79.48Q58.84 81.43 58.91 83.20L58.83 83.12L58.87 83.17Q59.12 88.08 57.21 90.13L57.19 90.11L57.16 90.08Q54.65 92.37 50.48 92.80L50.43 92.75L50.39 92.71Q48.70 92.93 47.43 92.79L47.48 92.84L47.37 92.73Q45.78 92.48 44.36 91.85L44.47 91.95L44.35 91.48L44.19 91.75L44.09 91.64Q42.72 90.84 41.73 88.37L41.63 88.27L41.58 88.22Q39.18 90.90 36.07 94.86L36.05 94.84L36.13 94.92Q36.74 96.17 38.30 97.94L38.28 97.92L38.12 97.77Q40.13 101.19 45.36 102.11L45.35 102.09L45.50 102.24Q47.58 102.55 57.54 102.76Z"/><path d="M9 36 C160 19,155 30,325 16" stroke="#94e994" fill="none"/><path d="M4 16 C190 39,180 42,331 116" stroke="#5656d6" fill="none"/><path d="M16 130 C180 65,172 57,336 12" stroke="#4fd84f" fill="none"/><path d="M21 132 C168 76,166 82,324 36" stroke="#81b5e8" fill="none"/><path d="M6 108 C186 102,152 122,329 137" stroke="#e26383" fill="none"/><path fill="#7352d5" d="M100.61 84.74L100.55 84.69L100.62 84.75Q106.31 84.01 112.25 84.22L112.39 84.37L112.31 84.28Q112.14 79.45 112.14 75.00L112.33 75.18L112.29 75.14Q112.33 70.59 112.69 65.85L112.67 65.84L112.55 65.71Q110.30 68.91 100.61 84.75ZM119.02 98.42L119.07 98.47L119.01 98.40Q115.87 97.81 112.54 97.67L112.69 97.81L112.58 97.71Q112.28 93.37 112.06 88.77L111.97 88.68L112.09 88.80Q102.17 88.43 93.40 91.04L93.42 91.05L93.26 90.90Q93.59 90.10 93.95 88.26L93.99 88.30L93.88 88.19Q97.33 82.45 103.97 70.78L103.94 70.75L103.86 70.67Q109.25 61.64 115.61 54.43L115.61 54.42L115.59 54.40Q117.35 54.18 120.46 53.69L120.43 53.66L120.36 53.59Q116.81 65.52 116.81 78.60L116.75 78.54L116.91 78.70Q116.77 81.32 116.91 84.08L116.95 84.12L119.39 84.37L119.40 84.37Q120.47 84.38 121.60 84.59L121.67 84.67L121.69 84.68Q121.77 86.39 122.27 90.00L122.35 90.08L122.38 90.11Q120.00 89.50 117.24 89.14L117.42 89.32L117.38 89.29Q117.77 93.00 119.04 98.44ZM122.11 83.90L122.04 83.83L122.11 83.90Q121.81 83.81 121.46 83.81L121.36 83.71L120.66 83.73L120.69 83.76Q120.61 81.13 120.61 78.51L120.51 78.42L120.56 78.46Q120.49 66.51 124.30 55.34L124.27 55.31L124.25 55.29Q122.90 55.84 120.21 56.55L120.19 56.53L120.16 56.50Q120.55 55.05 121.40 52.44L121.49 52.53L121.41 52.45Q119.12 53.27 115.31 53.70L115.37 53.76L115.30 53.70Q107.91 61.64 98.22 79.03L98.37 79.18L102.24 72.37L102.13 72.26Q101.45 74.27 100.96 75.33L101.01 75.39L92.65 92.05L92.57 91.97Q93.81 91.73 95.93 91.02L96.05 91.14L95.66 91.46L95.71 91.51Q95.48 92.77 94.92 95.10L94.94 95.12L94.86 95.04Q102.60 92.67 111.58 93.02L111.44 92.88L111.46 92.91Q111.61 94.75 111.96 98.43L111.94 98.41L111.96 98.43Q113.87 98.36 115.85 98.57L115.98 98.70L115.84 98.56Q116.17 99.88 116.66 102.42L116.70 102.46L116.76 102.52Q120.25 102.90 125.84 104.60L125.85 104.61L125.82 104.58Q123.97 100.60 122.27 94.52L122.19 94.44L124.94 95.36L125.05 95.47Q126.27 95.84 127.54 96.47L127.54 96.47L127.53 96.46Q126.08 91.83 125.80 88.72L125.72 88.64L125.82 88.74Q124.75 88.45 122.63 88.03L122.61 88.01L122.63 88.03Q122.09 85.51 122.09 83.88ZM107.19 83.55L107.33 83.68L107.35 83.71Q108.64 81.18 111.54 76.45L111.56 76.47L111.60 76.50Q111.67 78.34 111.60 80.11L111.47 79.98L111.52 80.03Q111.60 81.95 111.67 83.72L111.54 83.59L111.60 83.64Q110.52 83.56 109.46 83.56L109.42 83.52L109.54 83.63Q108.45 83.67 107.31 83.67Z"/><path d="M17 87 C158 136,175 126,321 77" stroke="#30e8ba" fill="none"/><path d="M1 96 C152 120,191 24,327 101" stroke="#cb71e8" fill="none"/><path d="M17 48 C187 131,178 3,339 138" stroke="#eb997e" fill="none"/><path d="M12 65 C174 60,180 43,322 91" stroke="#db5b7b" fill="none"/><path d="M8 117 C168 96,187 96,333 131" stroke="#70a8df" fill="none"/><path d="M21 67 C188 11,164 130,335 106" stroke="#d84fd8" fill="none"/><path d="M18 21 C163 124,156 98,327 138" stroke="#b6dd40" fill="none"/><path d="M6 72 C163 62,173 81,328 6" stroke="#ed72ce" fill="none"/><path d="M18 6 C181 6,156 125,336 16" stroke="#c273dd" fill="none"/><path d="M7 119 C186 24,160 80,337 4" stroke="#d9bb62" fill="none"/><path d="M20 124 C189 15,172 117,323 135" stroke="#75aadf" fill="none"/><path d="M9 115 C153 49,164 56,324 26" stroke="#e3e358" fill="none"/><path d="M11 34 C159 39,172 15,327 24" stroke="#7777de" fill="none"/></svg>