<svg xmlns="http://www.w3.org/2000/svg" width="342" height="140" viewBox="0,0,342,140"><path d="M20 26 C169 8,159 104,330 76" stroke="#e24040" fill="none"/><path d="M9 37 C184 120,173 121,326 88" stroke="#e66060" fill="none"/><path d="M6 35 C153 136,177 96,325 85" stroke="#d86381" fill="none"/><path d="M19 69 C175 49,166 42,336 126" stroke="#71e8cb" fill="none"/><path d="M17 71 C190 113,156 45,337 78" stroke="#83f19e" fill="none"/><path d="M2 79 C178 57,188 59,339 80" stroke="#5be05b" fill="none"/><path fill="#b7f07f" d="M262.99 89.36L262.98 89.34L263.01 89.38Q264.80 90.80 267.09 90.55L267.17 90.63L267.13 90.59Q271.81 90.82 272.86 85.37L272.88 85.38L272.86 85.37Q273.89 80.27 273.89 74.76L273.94 74.81L273.90 70.57L273.96 70.63Q273.90 68.53 273.35 66.49L273.32 66.46L273.45 66.59Q271.36 70.26 268.14 77.99L268.12 77.97L268.29 78.14Q264.97 85.76 262.99 89.35ZM271.14 62.56L271.18 62.59L271.22 62.64Q269.36 61.33 267.19 61.33L267.18 61.31L267.14 61.27Q264.64 60.94 262.85 62.43L262.98 62.55L262.86 62.43Q261.08 63.93 260.77 66.35L260.83 66.41L260.84 66.41Q260.27 68.63 260.21 71.05L260.30 71.13L260.30 71.13Q260.20 71.03 260.20 75.67L260.20 75.68L260.25 75.73Q260.29 79.61 261.04 85.48L260.96 85.40L260.97 85.42Q264.03 77.65 271.14 62.55ZM273.68 93.11L273.62 93.06L273.62 93.06Q270.82 94.58 267.05 94.58L267.03 94.56L264.49 94.69L264.40 94.60Q259.14 94.60 257.29 91.82L257.27 91.80L257.28 91.81Q255.93 88.23 255.80 83.46L255.88 83.54L255.79 83.46Q255.82 80.70 255.70 75.07L255.64 75.01L255.78 75.15Q255.57 73.02 255.32 68.07L255.37 68.12L255.41 68.16Q255.32 64.48 255.81 61.27L255.71 61.16L255.66 61.12Q256.57 56.46 263.62 56.09L263.53 55.99L263.61 56.07Q264.76 55.93 266.93 55.99L266.93 55.99L266.97 56.03Q276.18 56.27 277.91 61.90L278.03 62.01L277.91 61.90Q279.00 65.09 278.94 68.12L278.83 68.01L278.98 68.17Q278.72 76.13 278.59 78.11L278.70 78.22L278.66 78.18Q278.30 84.31 277.81 86.42L277.94 86.55L277.93 86.54Q276.88 91.62 273.79 93.23ZM281.83 92.85L281.77 92.79L281.76 92.79Q282.09 88.22 282.03 85.32L282.13 85.42L282.02 77.95L282.00 77.92Q281.86 73.02 280.99 64.05L280.91 63.97L280.98 64.04Q280.00 60.96 277.90 59.72L278.00 59.82L278.01 59.83Q275.43 55.64 267.02 55.40L267.07 55.46L266.93 55.32Q265.60 55.34 263.43 55.40L263.47 55.44L263.48 55.45Q256.04 55.50 255.24 60.57L255.27 60.60L255.26 60.59Q254.65 64.37 254.83 67.77L254.79 67.73L254.86 67.80Q255.47 74.96 255.41 80.41L255.40 80.41L255.23 80.23Q255.32 86.39 255.51 88.06L255.40 87.95L255.49 88.04Q256.16 93.10 258.63 94.40L258.45 94.22L258.59 94.36Q261.03 97.97 267.52 98.40L267.43 98.31L267.41 98.29Q273.25 98.69 274.30 98.63L274.38 98.70L274.24 98.56Q279.04 98.48 280.90 95.88L280.87 95.85L280.74 95.72Q281.55 94.61 281.67 92.69ZM267.73 89.95L267.79 90.01L267.80 90.02Q268.94 87.69 270.67 83.30L270.66 83.29L273.43 76.41L273.31 76.29Q273.43 79.13 272.81 84.57L272.77 84.54L272.68 84.44Q271.62 89.14 267.73 89.95ZM264.60 70.05L264.45 69.91L264.53 69.98Q265.34 67.14 266.45 66.21L266.34 66.10L266.48 66.24Q267.11 65.45 269.21 65.14L269.30 65.23L269.15 65.08Q266.46 71.11 263.43 78.65L263.53 78.76L263.41 78.64Q263.45 74.28 264.56 70.01Z"/><path d="M15 73 C176 25,163 77,338 63" stroke="#e6b27e" fill="none"/><path d="M16 127 C157 106,185 106,337 128" stroke="#e8d395" fill="none"/><path d="M16 22 C159 20,158 114,323 38" stroke="#b7e38c" fill="none"/><path d="M11 118 C171 91,157 136,330 107" stroke="#ad7adf" fill="none"/><path fill="#bf97e6" d="M125.00 83.03L124.96 82.99L124.88 82.91Q129.91 82.32 135.11 82.50L135.17 82.57L135.13 82.52Q134.95 78.26 134.95 74.36L135.08 74.49L134.99 74.41Q135.02 70.41 135.33 66.27L135.41 66.35L135.28 66.22Q133.42 69.12 124.94 82.98ZM140.90 94.79L140.99 94.87L141.00 94.89Q138.19 94.31 135.28 94.18L135.42 94.32L135.30 94.20Q135.02 90.39 134.83 86.37L134.93 86.47L134.76 86.30Q126.21 86.10 118.54 88.39L118.50 88.34L118.49 88.34Q118.76 87.62 119.07 86.01L119.06 86.00L118.93 85.87Q121.93 80.83 127.75 70.62L127.70 70.57L127.77 70.65Q132.36 62.62 137.93 56.31L137.97 56.35L137.93 56.31Q139.38 56.03 142.10 55.60L142.11 55.60L142.14 55.63Q139.04 66.08 139.04 77.52L139.09 77.58L139.00 77.49Q139.15 80.04 139.27 82.46L139.12 82.31L141.37 82.64L141.23 82.49Q142.21 82.55 143.20 82.73L143.27 82.80L143.18 82.71Q143.46 84.42 143.90 87.58L143.94 87.62L143.83 87.51Q141.94 87.17 139.52 86.86L139.44 86.77L139.43 86.77Q139.85 90.09 140.96 94.85ZM143.76 82.25L143.72 82.21L143.69 82.17Q143.44 82.11 143.13 82.11L143.05 82.03L142.53 82.13L142.47 82.07Q142.21 79.58 142.21 77.29L142.28 77.36L142.34 77.42Q142.21 66.90 145.55 57.13L145.57 57.14L145.54 57.12Q144.46 57.71 142.11 58.33L142.11 58.33L142.11 58.32Q142.44 57.05 143.19 54.76L143.07 54.64L143.08 54.65Q141.13 55.42 137.79 55.80L137.76 55.77L137.72 55.72Q131.42 62.85 122.94 78.07L122.91 78.04L126.26 72.05L126.22 72.01Q125.68 73.81 125.24 74.74L125.08 74.57L117.82 89.22L117.97 89.37Q119.04 89.14 120.90 88.52L120.80 88.42L120.64 88.88L120.52 88.77Q120.32 89.86 119.82 91.90L119.95 92.03L119.95 92.03Q126.64 89.87 134.50 90.18L134.51 90.20L134.49 90.18Q134.41 91.58 134.72 94.80L134.73 94.80L134.87 94.94Q136.53 94.87 138.26 95.06L138.31 95.11L138.22 95.02Q138.43 96.09 138.86 98.32L138.96 98.42L139.00 98.45Q142.11 98.84 147.00 100.33L146.88 100.21L146.83 100.16Q145.37 96.84 143.88 91.52L143.85 91.50L146.21 92.24L146.15 92.19Q147.33 92.62 148.45 93.18L148.43 93.16L148.42 93.16Q147.04 88.99 146.79 86.26L146.92 86.40L146.80 86.27Q145.96 86.12 144.11 85.75L144.05 85.69L144.14 85.78Q143.74 83.65 143.74 82.23ZM130.80 82.03L130.62 81.84L130.80 82.03Q131.96 79.85 134.50 75.71L134.51 75.71L134.53 75.74Q134.52 77.27 134.46 78.82L134.36 78.72L134.51 78.88Q134.40 80.37 134.46 81.92L134.54 82.00L134.54 81.99Q133.52 81.84 132.59 81.84L132.63 81.88L132.54 81.78Q131.66 81.89 130.67 81.89Z"/><path d="M20 88 C150 89,155 38,340 113" stroke="#4d73e4" fill="none"/><path d="M15 135 C160 131,186 40,337 94" stroke="#68a3dd" fill="none"/><path d="M10 58 C178 94,174 34,325 3" stroke="#43e4bc" fill="none"/><path d="M6 111 C162 110,170 48,323 97" stroke="#e8af77" fill="none"/><path d="M1 13 C166 77,173 76,335 130" stroke="#639ed8" fill="none"/><path d="M6 45 C185 110,187 46,337 95" stroke="#5579e6" fill="none"/><path d="M9 77 C157 128,150 133,322 61" stroke="#e06fa8" fill="none"/><path d="M5 124 C191 25,177 109,323 110" stroke="#8666e5" fill="none"/><path d="M13 16 C187 21,175 107,332 25" stroke="#d84a91" fill="none"/><path d="M4 34 C159 39,190 123,322 20" stroke="#e669c7" fill="none"/><path d="M14 21 C191 34,154 5,337 5" stroke="#9b82e8" fill="none"/><path d="M7 97 C173 92,150 23,334 109" stroke="#c25de3" fill="none"/><path d="M5 130 C167 72,178 32,331 100" stroke="#53de76" fill="none"/><path d="M10 122 C157 44,170 56,328 118" stroke="#5de37f" fill="none"/><path d="M18 128 C174 128,177 9,323 85" stroke="#85e4e4" fill="none"/><path d="M13 94 C157 95,176 127,336 108" stroke="#ecec8c" fill="none"/><path d="M8 1 C151 102,161 11,321 67" stroke="#5fc1e1" fill="none"/><path fill="#ee8abc" d="M58.91 94.93L58.90 94.93L58.98 95.00Q52.36 95.37 50.75 91.60L50.76 91.61L50.76 91.61Q51.96 90.02 54.49 87.12L54.51 87.13L54.58 87.21Q55.41 90.50 60.29 90.69L60.16 90.56L60.13 90.52Q65.81 90.82 68.47 88.66L68.40 88.59L68.42 88.60Q70.63 85.93 70.51 81.54L70.62 81.66L70.49 81.52Q70.33 73.38 62.53 73.75L62.52 73.73L62.47 73.69Q57.86 73.91 55.02 75.95L55.07 76.00L54.45 75.62L54.24 75.54L54.20 75.50Q54.82 70.43 54.63 65.97L54.60 65.94L54.56 65.91Q54.44 61.70 53.88 56.32L53.81 56.24L53.75 56.19Q59.70 57.75 65.89 57.56L65.91 57.58L65.99 57.66Q72.22 57.57 78.03 55.53L77.94 55.45L77.06 57.97L76.98 57.88Q76.44 59.08 76.13 60.44L76.32 60.63L76.20 60.51Q71.07 62.12 64.76 62.12L64.78 62.14L64.83 62.19Q62.58 62.29 60.16 62.04L60.12 61.99L60.12 62.00Q60.05 63.16 59.49 70.40L59.48 70.39L59.33 70.24Q60.81 69.62 64.15 69.37L64.04 69.26L64.10 69.32Q70.18 69.70 72.53 72.42L72.58 72.48L72.51 72.41Q74.71 74.85 75.14 81.10L75.11 81.07L75.26 81.22Q75.62 87.95 73.64 91.23L73.66 91.25L73.60 91.19Q70.28 94.24 64.89 94.61L64.97 94.69L64.99 94.71Q63.24 94.69 58.91 94.93ZM68.73 98.63L68.81 98.71L68.75 98.65Q74.38 98.84 77.48 97.04L77.42 96.99L77.53 97.10Q79.16 94.64 79.16 91.24L79.04 91.12L78.98 91.07Q79.08 86.15 77.53 79.47L77.45 79.39L77.53 79.47Q76.86 76.57 74.88 74.28L74.91 74.31L74.95 74.41L74.72 74.06L74.08 73.66L74.08 73.66Q73.59 72.49 72.53 71.38L72.58 71.43L72.49 71.39L72.53 71.44Q69.99 68.65 63.99 68.65L64.03 68.69L63.59 68.68L63.53 68.62Q63.76 67.81 64.07 66.01L63.99 65.93L64.01 65.95Q72.11 66.13 78.67 63.47L78.75 63.55L78.76 63.57Q79.42 61.25 80.97 56.67L80.94 56.65L77.43 58.08L77.58 58.24Q78.20 56.38 79.00 54.53L79.04 54.56L78.88 54.40Q72.80 56.92 66.12 57.04L66.10 57.03L66.06 56.99Q59.41 57.20 52.97 55.41L52.91 55.34L52.84 55.27Q54.07 62.57 54.07 69.74L53.96 69.63L54.09 69.76Q53.99 72.75 53.80 75.84L53.93 75.97L53.76 75.81Q54.17 76.09 55.10 76.59L55.23 76.71L55.13 76.61Q55.78 76.34 56.84 75.79L56.90 75.85L56.79 75.74Q56.74 76.99 56.37 79.46L56.47 79.56L56.45 79.54Q57.03 79.76 57.72 80.13L57.69 80.11L57.76 80.18Q62.17 77.23 65.20 77.23L65.23 77.26L65.20 77.22Q67.36 77.22 69.28 78.27L69.29 78.28L69.46 78.45Q69.93 80.04 70.00 81.59L70.05 81.64L69.97 81.56Q70.01 85.69 68.34 87.48L68.41 87.54L68.52 87.66Q66.29 89.63 62.64 90.00L62.48 89.84L62.60 89.96Q61.01 90.04 59.90 89.92L59.81 89.84L59.91 89.93Q58.53 89.73 57.29 89.17L57.40 89.28L57.22 88.79L57.07 89.01L56.98 88.92Q55.68 88.11 54.81 85.95L54.87 86.01L54.97 86.11Q52.72 88.31 49.99 91.77L50.04 91.82L49.91 91.69Q50.49 92.82 51.85 94.37L51.95 94.47L51.81 94.33Q53.51 97.27 58.09 98.07L58.15 98.13L58.25 98.24Q60.18 98.61 68.90 98.80Z"/><path d="M17 8 C165 90,185 46,340 104" stroke="#b640dd" fill="none"/><path d="M17 110 C189 29,181 42,339 69" stroke="#eb7eb5" fill="none"/><path d="M15 35 C172 6,162 34,331 96" stroke="#587be3" fill="none"/><path fill="#a363e2" d="M199.20 76.74L199.15 76.69L199.11 76.65Q196.13 76.45 194.12 78.77L194.10 78.75L194.11 78.76Q192.24 81.22 191.93 84.31L191.89 84.27L191.92 84.30Q191.51 87.60 193.27 89.18L193.33 89.24L193.19 89.10Q194.96 90.69 198.36 90.50L198.32 90.46L198.35 90.49Q201.80 90.29 203.59 89.17L203.54 89.12L203.57 89.15Q205.38 87.31 205.38 84.77L205.46 84.86L205.52 84.91Q205.35 84.13 205.23 83.51L205.32 83.60L205.36 83.64Q205.53 80.97 203.74 78.77L203.57 78.60L203.68 78.71Q201.80 76.43 199.08 76.62ZM198.42 94.70L198.37 94.65L198.56 94.84Q191.29 94.68 189.00 93.44L189.07 93.52L189.07 93.52Q187.48 92.36 187.17 89.58L187.03 89.43L187.07 89.48Q186.95 88.31 187.01 87.13L186.99 87.11L187.07 87.19Q187.34 85.66 187.34 84.92L187.33 84.91L187.29 84.87Q188.00 80.20 188.25 79.09L188.33 79.17L188.30 79.13Q189.05 75.99 190.41 73.70L190.33 73.62L190.31 73.60Q194.70 66.55 204.35 56.22L204.37 56.23L204.26 56.12Q208.75 55.79 212.34 54.49L212.29 54.44L212.25 54.40Q201.15 66.56 195.95 73.43L195.91 73.39L196.02 73.49Q197.49 72.55 199.59 72.55L199.61 72.57L199.59 72.55Q205.12 72.70 207.59 75.85L207.43 75.69L207.55 75.80Q209.57 78.33 210.13 84.08L210.14 84.09L210.13 84.07Q210.25 85.26 210.25 86.25L210.32 86.31L210.28 86.27Q210.42 91.49 206.84 93.22L206.71 93.10L206.72 93.10Q204.82 94.17 198.51 94.79ZM202.21 98.68L202.10 98.57L202.25 98.72Q204.30 98.60 207.52 98.73L207.56 98.77L207.51 98.72Q210.19 98.86 212.73 97.69L212.67 97.63L212.77 97.73Q214.51 96.38 214.51 93.47L214.52 93.48L214.42 93.38Q214.40 92.56 214.13 90.95L214.19 91.01L214.20 91.03Q214.01 89.50 214.01 88.76L214.02 88.77L213.97 88.72Q212.48 80.99 209.89 77.90L209.89 77.90L210.00 78.01Q209.79 77.74 209.54 77.37L209.59 77.41L209.03 76.98L208.96 76.97L208.88 76.90Q208.35 76.12 207.36 74.57L207.32 74.52L207.30 74.51Q205.88 73.03 202.67 72.29L202.74 72.36L202.74 72.36Q204.74 69.79 209.57 63.79L209.46 63.67L216.35 55.10L216.32 55.07Q213.84 56.55 209.94 57.78L209.97 57.81L209.88 57.72Q211.47 56.22 214.38 53.01L214.39 53.02L214.35 52.98Q210.36 54.61 204.05 55.54L204.07 55.57L204.04 55.54Q194.77 65.13 189.94 73.17L189.91 73.14L189.91 73.14Q187.61 77.39 186.68 87.54L186.64 87.50L186.58 87.44Q186.54 88.45 186.66 90.00L186.49 89.83L186.52 89.86Q186.81 92.86 188.60 94.35L188.51 94.25L188.41 94.16Q189.14 94.52 189.08 94.58L189.08 94.58L189.16 94.66Q189.72 96.09 191.02 96.77L191.03 96.78L190.98 96.72Q193.25 97.76 196.41 98.07L196.46 98.12L196.56 98.22Q196.53 98.19 202.22 98.69ZM201.71 80.30L201.88 80.47L201.82 80.41Q202.77 80.24 204.31 81.05L204.24 80.98L204.33 81.06Q204.89 82.61 204.89 83.66L204.77 83.55L204.93 83.71Q205.08 86.58 203.53 88.18L203.52 88.17L203.57 88.22Q201.90 89.46 198.50 89.95L198.52 89.98L198.52 89.98Q196.08 89.89 195.22 89.46L195.28 89.52L195.20 89.44Q194.96 88.77 194.96 88.27L194.92 88.23L194.97 88.28Q194.61 82.98 199.38 80.87L199.40 80.90L199.34 80.84Q200.60 80.30 201.84 80.43Z"/><path d="M9 13 C161 83,153 114,339 26" stroke="#7ef0f0" fill="none"/><path d="M6 121 C192 112,187 104,324 74" stroke="#914cd6" fill="none"/><path d="M7 139 C153 36,189 42,324 110" stroke="#f088bc" fill="none"/><path d="M19 41 C175 111,182 65,340 106" stroke="#8e37e6" fill="none"/><path d="M6 32 C161 101,192 92,322 96" stroke="#87e29e" fill="none"/><path d="M3 49 C167 138,181 127,333 19" stroke="#e17450" fill="none"/><path d="M3 8 C181 95,178 21,331 53" stroke="#da3eda" fill="none"/><path d="M9 24 C176 5,158 42,336 132" stroke="#53e377" fill="none"/><path d="M19 58 C176 100,175 66,340 69" stroke="#be4ee3" fill="none"/><path d="M16 111 C175 120,151 49,327 3" stroke="#b7e335" fill="none"/></svg>