<svg xmlns="http://www.w3.org/2000/svg" width="342" height="140" viewBox="0,0,342,140"><path d="M19 132 C169 61,158 93,324 115" stroke="#5656d6" fill="none"/><path d="M19 32 C172 117,174 128,339 129" stroke="#70ea8e" fill="none"/><path d="M7 53 C153 42,152 52,328 113" stroke="#e23a64" fill="none"/><path d="M8 131 C188 65,175 40,329 116" stroke="#9ced82" fill="none"/><path d="M18 22 C178 96,172 55,341 24" stroke="#9653d9" fill="none"/><path fill="#5d7ddf" d="M199.55 76.07L199.62 76.14L199.62 76.14Q196.82 75.88 194.99 78.00L194.95 77.96L195.07 78.08Q193.23 80.19 192.95 83.01L192.93 82.99L192.93 82.99Q192.55 86.00 194.16 87.44L194.20 87.48L194.19 87.47Q195.71 88.82 198.81 88.65L198.80 88.64L198.79 88.63Q202.01 88.52 203.64 87.50L203.60 87.46L203.66 87.52Q205.26 85.79 205.26 83.48L205.29 83.50L205.41 83.62Q205.24 82.89 205.13 82.33L205.27 82.47L205.25 82.45Q205.28 79.88 203.64 77.88L203.64 77.88L203.73 77.97Q202.14 76.01 199.65 76.18ZM198.90 92.52L198.90 92.52L198.86 92.48Q192.38 92.48 190.29 91.36L190.30 91.37L190.37 91.43Q188.92 90.38 188.64 87.84L188.60 87.81L188.65 87.86Q188.60 86.85 188.66 85.77L188.64 85.76L188.50 85.61Q188.80 84.28 188.80 83.60L188.75 83.56L188.66 83.46Q189.39 79.28 189.61 78.27L189.71 78.36L189.72 78.37Q190.28 75.38 191.52 73.29L191.55 73.32L191.59 73.36Q195.48 66.82 204.29 57.39L204.37 57.48L204.39 57.50Q208.31 57.02 211.59 55.83L211.57 55.82L211.59 55.84Q201.32 66.79 196.59 73.05L196.62 73.09L196.62 73.09Q198.05 72.32 199.97 72.32L200.01 72.35L200.01 72.35Q204.94 72.38 207.19 75.25L207.23 75.29L207.16 75.22Q209.18 77.69 209.69 82.94L209.70 82.95L209.58 82.83Q209.78 83.99 209.78 84.89L209.82 84.93L209.86 84.98Q209.71 89.45 206.44 91.03L206.61 91.20L206.48 91.07Q204.66 91.96 198.91 92.53ZM202.30 96.09L202.37 96.16L202.42 96.21Q204.28 96.09 207.21 96.21L207.19 96.19L207.10 96.09Q209.58 96.26 211.90 95.19L211.93 95.22L211.96 95.25Q213.60 94.07 213.60 91.42L213.58 91.40L213.63 91.45Q213.59 90.68 213.34 89.21L213.34 89.22L213.35 89.23Q213.14 87.80 213.14 87.12L213.02 87.01L213.05 87.04Q211.71 79.99 209.34 77.17L209.34 77.17L209.35 77.19Q209.36 77.14 209.14 76.80L209.05 76.71L208.65 76.43L208.58 76.42L208.40 76.23Q207.96 75.57 207.06 74.16L207.02 74.12L206.99 74.09Q205.81 72.85 202.87 72.17L202.81 72.11L202.84 72.14Q204.68 69.81 209.09 64.34L209.05 64.31L215.19 56.34L215.26 56.40Q212.86 57.62 209.30 58.74L209.36 58.80L209.37 58.81Q210.84 57.46 213.49 54.52L213.38 54.41L213.45 54.48Q209.75 55.91 203.99 56.76L204.12 56.89L204.01 56.78Q195.68 65.66 191.28 73.00L191.21 72.93L191.31 73.03Q189.04 76.73 188.19 85.99L188.10 85.89L188.09 85.88Q187.91 86.67 188.03 88.08L188.15 88.20L188.17 88.22Q188.23 90.77 189.87 92.12L189.87 92.13L189.87 92.12Q190.47 92.38 190.41 92.44L190.28 92.31L190.47 92.50Q190.95 93.76 192.13 94.38L192.19 94.44L192.22 94.47Q194.37 95.49 197.24 95.77L197.07 95.60L197.14 95.67Q197.05 95.58 202.24 96.03ZM202.03 79.52L202.04 79.52L201.92 79.40Q202.93 79.40 204.34 80.13L204.16 79.95L204.22 80.01Q204.73 81.42 204.73 82.38L204.86 82.51L204.76 82.41Q205.01 85.14 203.60 86.61L203.60 86.61L203.58 86.59Q202.00 87.67 198.90 88.12L198.88 88.10L199.05 88.27Q196.91 88.27 196.12 87.87L196.06 87.82L196.03 87.79Q195.73 87.09 195.73 86.64L195.70 86.61L195.83 86.74Q195.43 81.83 199.78 79.91L199.69 79.83L199.66 79.79Q200.82 79.32 201.95 79.43Z"/><path d="M9 123 C154 72,161 123,329 53" stroke="#4ad3d3" fill="none"/><path d="M5 44 C160 122,170 122,325 52" stroke="#e77894" fill="none"/><path d="M2 36 C172 84,178 17,324 46" stroke="#e791a7" fill="none"/><path d="M17 6 C181 45,175 25,325 15" stroke="#82b5e8" fill="none"/><path d="M4 10 C159 7,189 11,337 12" stroke="#b9e240" fill="none"/><path d="M5 139 C173 16,191 77,339 117" stroke="#67ccee" fill="none"/><path d="M16 54 C176 126,165 66,327 97" stroke="#3fbae3" fill="none"/><path d="M5 6 C169 31,165 56,339 124" stroke="#d4d44e" fill="none"/><path d="M19 11 C171 59,175 128,329 118" stroke="#5f80e1" fill="none"/><path d="M12 67 C167 22,167 72,331 35" stroke="#eb50c4" fill="none"/><path d="M5 127 C171 59,164 116,339 39" stroke="#da4d93" fill="none"/><path d="M11 57 C171 47,166 15,338 17" stroke="#e77d7d" fill="none"/><path d="M18 131 C176 39,161 38,338 101" stroke="#85e9d0" fill="none"/><path d="M15 125 C164 3,165 82,341 105" stroke="#b44ad8" fill="none"/><path d="M5 64 C170 12,153 133,331 43" stroke="#7ce8e8" fill="none"/><path d="M20 32 C176 125,180 119,325 49" stroke="#7653de" fill="none"/><path d="M17 31 C189 16,161 123,322 18" stroke="#e9809a" fill="none"/><path d="M10 114 C184 11,181 18,334 33" stroke="#73cae7" fill="none"/><path fill="#ba89ea" d="M267.68 76.20L267.67 76.19L267.65 76.17Q265.01 76.30 263.20 78.27L263.10 78.17L263.15 78.22Q261.34 80.19 261.12 83.01L261.13 83.02L261.14 83.04Q260.81 86.15 262.61 87.64L262.58 87.61L262.51 87.54Q264.32 89.04 267.48 88.92L267.57 89.02L267.59 89.04Q271.04 88.82 272.46 87.41L272.40 87.35L272.43 87.39Q273.94 85.22 273.77 82.52L273.74 82.49L273.84 82.59Q273.64 79.79 272.03 78.01L272.01 78.00L271.90 77.89Q270.36 76.18 267.66 76.18ZM267.66 62.25L267.68 62.27L267.58 62.17Q265.61 62.11 263.63 62.85L263.61 62.82L263.64 62.85Q261.60 63.91 261.94 66.68L261.93 66.67L262.00 66.74Q262.65 72.19 267.62 72.19L267.67 72.24L267.60 72.17Q270.08 72.62 271.55 70.93L271.43 70.81L271.47 70.85Q273.00 69.23 273.06 66.91L272.92 66.78L273.07 66.93Q273.14 64.29 272.07 63.38L271.97 63.28L272.08 63.39Q269.57 62.12 267.65 62.24ZM267.24 92.69L267.25 92.70L262.66 92.62L262.66 92.63Q260.48 92.70 258.50 91.40L258.56 91.46L258.48 91.38Q256.45 89.68 256.67 85.45L256.60 85.38L256.64 85.42Q257.38 75.33 262.75 73.86L262.81 73.92L262.69 73.80Q259.40 72.55 257.43 64.60L257.38 64.55L257.30 64.47Q256.93 62.51 257.04 61.33L256.98 61.27L256.90 61.19Q257.33 58.01 262.80 57.95L262.89 58.04L262.86 58.01Q269.20 57.97 271.34 58.26L271.25 58.17L271.30 58.21Q277.00 59.00 277.67 61.99L277.61 61.93L277.62 61.93Q277.94 62.99 277.94 63.55L277.91 63.52L277.89 63.51Q277.85 64.48 277.57 65.38L277.48 65.30L277.48 65.29Q276.58 71.56 272.23 73.82L272.27 73.85L272.29 73.87Q277.41 74.99 278.14 82.83L278.20 82.88L278.24 82.92Q278.28 83.19 278.34 85.11L278.25 85.02L278.30 85.07Q278.35 89.08 275.98 90.66L276.02 90.69L276.02 90.70Q274.05 92.05 267.28 92.73ZM270.55 96.05L270.63 96.13L275.63 96.29L275.66 96.31Q278.03 96.26 280.29 95.19L280.47 95.37L280.45 95.35Q282.02 94.16 282.14 91.39L282.28 91.54L282.27 91.53Q282.15 89.72 281.59 86.84L281.58 86.83L281.77 87.03Q280.35 80.07 277.24 77.30L277.21 77.27L276.90 76.68L276.65 76.32L276.39 75.88L276.48 75.97Q278.84 73.87 280.19 67.72L280.20 67.73L280.25 67.78Q280.18 67.15 280.29 65.91L280.24 65.85L280.27 65.89Q280.35 64.84 280.24 63.93L280.27 63.96L280.33 64.02Q280.15 61.93 278.40 61.20L278.37 61.16L278.50 61.24L278.19 61.04L278.02 60.87Q277.72 59.90 275.97 58.71L275.99 58.72L276.12 58.80L275.99 58.67Q273.09 57.69 267.06 57.41L266.97 57.33L267.05 57.41Q264.66 57.16 262.63 57.33L262.64 57.34L262.64 57.34Q261.55 57.49 259.63 57.72L259.66 57.74L259.54 57.62Q256.71 58.24 256.38 60.67L256.38 60.67L256.39 60.68Q256.43 61.51 256.49 62.70L256.48 62.69L256.36 62.57Q256.47 63.30 257.32 66.80L257.42 66.91L257.46 66.94Q258.50 71.60 261.10 73.57L261.21 73.69L261.37 73.84L261.35 73.82Q257.14 75.65 256.35 83.32L256.48 83.45L256.42 83.40Q256.13 86.66 256.13 88.01L256.12 88.00L256.08 87.96Q256.14 90.56 257.88 91.91L257.90 91.93L258.07 92.10Q258.06 92.03 258.45 92.31L258.58 92.44L258.56 92.42Q260.01 95.73 270.56 96.06ZM270.05 79.65L270.18 79.78L270.17 79.77Q271.43 79.56 272.73 80.24L272.71 80.21L272.68 80.19Q273.28 81.69 273.22 82.48L273.26 82.52L273.32 82.58Q273.23 82.88 273.23 83.33L273.40 83.50L273.23 83.34Q273.28 86.88 269.89 88.12L269.87 88.09L269.92 88.14Q268.78 88.64 267.60 88.48L267.55 88.43L267.56 88.44Q265.90 88.59 264.21 87.91L264.30 88.00L264.24 87.94Q263.89 87.02 264.00 85.56L264.00 85.56L264.02 85.57Q264.24 83.20 266.01 81.39L266.00 81.38L265.92 81.30Q267.68 79.48 270.05 79.65ZM270.54 65.75L270.42 65.63L270.40 65.61Q271.73 65.58 272.52 65.81L272.37 65.66L272.33 66.80L272.47 66.95Q272.47 69.03 271.12 70.53L271.11 70.52L270.99 70.40Q269.70 71.96 267.67 71.68L267.67 71.68L267.65 71.66Q266.30 71.78 265.68 71.44L265.65 71.41L265.68 71.44Q265.51 70.93 265.35 69.92L265.28 69.85L265.30 69.87Q264.96 67.84 266.76 66.60L266.76 66.60L266.81 66.65Q268.45 65.69 270.54 65.74Z"/><path d="M3 52 C169 114,161 16,332 119" stroke="#4edede" fill="none"/><path d="M9 49 C192 8,155 63,322 128" stroke="#76e476" fill="none"/><path d="M16 119 C173 15,183 54,324 121" stroke="#57ea7b" fill="none"/><path d="M8 120 C180 125,191 134,326 93" stroke="#e9bf95" fill="none"/><path d="M15 73 C191 62,174 69,338 71" stroke="#94ee76" fill="none"/><path d="M1 17 C166 116,188 12,339 105" stroke="#7ee097" fill="none"/><path d="M16 104 C151 122,159 120,339 34" stroke="#e67994" fill="none"/><path d="M14 29 C159 49,153 134,323 118" stroke="#69e1c3" fill="none"/><path d="M19 121 C152 16,163 81,338 4" stroke="#8d8df0" fill="none"/><path d="M9 32 C183 6,172 99,336 63" stroke="#d495e9" fill="none"/><path d="M1 92 C183 32,188 110,341 12" stroke="#95e9aa" fill="none"/><path fill="#4c96e0" d="M125.79 81.72L125.77 81.70L125.91 81.84Q130.50 81.29 135.24 81.45L135.23 81.45L135.26 81.48Q135.05 77.54 135.05 73.99L135.14 74.08L135.07 74.00Q135.03 70.30 135.31 66.52L135.42 66.63L135.39 66.60Q133.68 69.24 125.95 81.88ZM140.56 92.70L140.62 92.76L140.54 92.68Q138.14 92.31 135.49 92.20L135.39 92.11L135.49 92.20Q135.16 88.66 135.00 84.99L134.94 84.93L134.94 84.94Q127.06 84.68 120.07 86.76L120.04 86.74L120.14 86.84Q120.13 85.93 120.42 84.46L120.52 84.56L120.51 84.56Q123.18 79.89 128.48 70.58L128.52 70.62L128.37 70.47Q132.67 63.26 137.75 57.50L137.89 57.65L137.91 57.66Q139.13 57.30 141.61 56.91L141.55 56.84L141.57 56.86Q138.80 66.45 138.80 76.89L138.81 76.90L138.87 76.96Q138.72 79.01 138.83 81.21L138.94 81.32L140.90 81.53L140.84 81.47Q141.76 81.54 142.66 81.71L142.59 81.64L142.55 81.60Q142.82 83.16 143.21 86.04L143.13 85.96L143.10 85.93Q141.47 85.71 139.27 85.43L139.18 85.34L139.17 85.33Q139.57 88.38 140.59 92.73ZM143.10 81.19L143.08 81.17L143.00 81.09Q142.75 81.01 142.47 81.01L142.37 80.91L141.96 81.07L141.95 81.06Q141.65 78.73 141.65 76.64L141.75 76.74L141.79 76.78Q141.74 67.24 144.78 58.33L144.79 58.34L144.73 58.28Q143.55 58.62 141.41 59.19L141.49 59.27L141.41 59.19Q141.89 58.20 142.56 56.11L142.47 56.02L142.58 56.13Q140.50 56.53 137.45 56.87L137.45 56.87L137.63 57.05Q131.68 63.34 123.95 77.22L123.93 77.20L127.16 71.91L127.18 71.93Q126.40 73.29 126.00 74.14L126.10 74.23L119.54 87.65L119.44 87.55Q120.38 87.31 122.08 86.74L122.08 86.75L122.00 87.23L121.99 87.22Q121.82 88.23 121.37 90.10L121.30 90.02L121.31 90.04Q127.49 88.15 134.65 88.43L134.65 88.43L134.63 88.41Q134.67 89.80 134.95 92.73L134.91 92.69L134.86 92.65Q136.42 92.63 138.00 92.80L138.00 92.79L138.07 92.86Q138.37 93.96 138.77 95.99L138.58 95.80L138.63 95.84Q141.47 96.21 145.93 97.56L145.94 97.57L146.05 97.68Q144.50 94.44 143.15 89.59L143.15 89.59L145.32 90.29L145.27 90.25Q146.21 90.51 147.22 91.01L147.28 91.07L147.26 91.05Q146.14 87.39 145.91 84.91L145.82 84.82L145.91 84.90Q145.09 84.70 143.39 84.36L143.45 84.42L143.37 84.34Q142.94 82.33 142.94 81.04ZM131.24 80.95L131.24 80.96L131.15 80.86Q132.36 79.02 134.67 75.24L134.59 75.16L134.68 75.26Q134.53 76.52 134.48 77.93L134.57 78.02L134.54 77.99Q134.51 79.42 134.56 80.83L134.54 80.81L134.67 80.95Q133.81 80.87 132.97 80.87L132.91 80.82L132.96 80.87Q132.08 80.89 131.17 80.89Z"/><path d="M16 68 C153 5,163 61,326 82" stroke="#7ceded" fill="none"/><path d="M6 103 C153 83,171 51,328 123" stroke="#df9347" fill="none"/><path d="M19 43 C188 74,157 98,330 29" stroke="#7ce8b2" fill="none"/><path d="M9 68 C183 59,189 125,331 70" stroke="#5393d4" fill="none"/><path d="M4 9 C153 42,189 52,338 8" stroke="#e66f6f" fill="none"/><path fill="#5fa0e1" d="M59.69 92.73L59.72 92.75L59.79 92.82Q53.74 93.15 52.28 89.71L52.18 89.61L52.25 89.68Q53.45 88.34 55.76 85.69L55.77 85.70L55.68 85.61Q56.44 88.62 60.90 88.79L60.81 88.71L60.97 88.87Q65.84 88.83 68.27 86.86L68.31 86.90L68.43 87.01Q70.39 84.52 70.27 80.51L70.24 80.48L70.22 80.46Q70.16 73.12 63.05 73.46L62.89 73.30L62.91 73.32Q58.72 73.53 56.12 75.39L56.26 75.53L55.74 75.24L55.38 74.99L55.36 74.97Q55.90 70.31 55.73 66.25L55.82 66.34L55.79 66.31Q55.58 62.38 55.07 57.47L55.15 57.55L54.98 57.37Q60.53 58.92 66.17 58.75L66.18 58.75L66.19 58.77Q71.88 58.70 77.18 56.84L77.03 56.68L76.18 58.94L76.16 58.92Q75.82 60.16 75.54 61.41L75.60 61.46L75.60 61.46Q70.80 62.82 65.05 62.82L65.13 62.90L65.07 62.84Q62.91 62.83 60.71 62.60L60.69 62.58L60.78 62.66Q60.72 63.74 60.22 70.34L60.11 70.23L60.16 70.29Q61.49 69.70 64.54 69.47L64.47 69.41L64.53 69.46Q70.06 69.80 72.20 72.29L72.20 72.28L72.06 72.14Q74.09 74.40 74.49 80.10L74.53 80.14L74.54 80.15Q74.88 86.31 73.08 89.30L73.21 89.42L73.07 89.29Q70.11 92.14 65.20 92.48L65.29 92.57L65.22 92.49Q63.80 92.66 59.85 92.88ZM68.77 96.22L68.68 96.12L68.83 96.28Q73.82 96.30 76.64 94.67L76.67 94.70L76.73 94.76Q78.08 92.38 78.08 89.28L78.18 89.38L78.19 89.39Q78.00 84.63 76.59 78.54L76.68 78.62L76.60 78.55Q76.11 76.02 74.30 73.93L74.25 73.88L74.42 74.11L74.11 73.69L73.55 73.35L73.60 73.40Q73.03 72.20 72.07 71.19L72.05 71.17L72.09 71.27L72.15 71.33Q69.88 68.83 64.41 68.83L64.33 68.75L63.94 68.77L64.02 68.84Q64.19 68.05 64.47 66.42L64.43 66.38L64.43 66.37Q71.73 66.45 77.71 64.03L77.74 64.05L77.81 64.13Q78.47 62.07 79.88 57.90L79.76 57.78L76.70 59.23L76.62 59.15Q77.16 57.43 77.89 55.74L77.96 55.81L77.98 55.83Q72.30 57.99 66.20 58.10L66.26 58.16L66.20 58.10Q60.15 58.32 54.29 56.68L54.23 56.62L54.22 56.61Q55.15 63.08 55.15 69.62L55.27 69.74L55.26 69.73Q55.31 72.60 55.14 75.42L55.01 75.29L54.99 75.27Q55.41 75.58 56.25 76.03L56.38 76.15L56.27 76.05Q56.89 75.82 57.85 75.31L57.72 75.18L57.71 75.17Q57.67 76.32 57.33 78.58L57.34 78.58L57.38 78.62Q58.02 78.92 58.64 79.26L58.69 79.31L58.68 79.30Q62.67 76.57 65.43 76.57L65.57 76.71L65.59 76.73Q67.58 76.75 69.33 77.71L69.33 77.70L69.16 77.53Q69.85 79.24 69.90 80.65L69.83 80.58L69.77 80.52Q69.97 84.44 68.45 86.08L68.44 86.07L68.48 86.11Q66.30 87.77 62.97 88.11L62.97 88.11L62.97 88.10Q61.61 88.27 60.60 88.16L60.58 88.14L60.64 88.20Q59.40 88.03 58.27 87.52L58.29 87.54L58.11 87.08L57.92 87.23L57.94 87.25Q56.79 86.55 56.00 84.58L56.02 84.60L55.97 84.55Q54.16 86.80 51.68 89.96L51.52 89.80L51.55 89.83Q51.96 90.75 53.21 92.16L53.23 92.18L53.30 92.26Q54.76 94.84 58.93 95.58L59.01 95.65L58.93 95.58Q60.73 95.96 68.69 96.13Z"/><path d="M11 43 C180 92,155 45,333 39" stroke="#ed9172" fill="none"/></svg>