<svg xmlns="http://www.w3.org/2000/svg" width="342" height="140" viewBox="0,0,342,140"><path d="M2 80 C151 44,174 20,334 1" stroke="#e7c254" fill="none"/><path d="M6 137 C190 23,178 130,334 71" stroke="#e43ee4" fill="none"/><path d="M17 9 C153 29,171 66,323 63" stroke="#35b7e3" fill="none"/><path d="M2 40 C174 103,153 65,333 47" stroke="#a05de3" fill="none"/><path d="M19 126 C182 68,183 102,339 25" stroke="#e03c3c" fill="none"/><path d="M11 107 C171 116,170 120,339 47" stroke="#3abce7" fill="none"/><path d="M8 86 C178 99,154 104,332 132" stroke="#52dab8" fill="none"/><path d="M11 109 C181 115,156 113,321 22" stroke="#7753e3" fill="none"/><path d="M16 40 C156 82,157 11,324 130" stroke="#57eaa0" fill="none"/><path fill="#e689ce" d="M47.49 95.22L47.48 95.21L47.59 95.32Q40.84 95.64 39.22 91.83L39.18 91.79L39.20 91.81Q40.41 90.21 42.98 87.27L43.02 87.31L43.07 87.36Q43.87 90.66 48.81 90.85L48.88 90.92L48.83 90.87Q54.26 90.86 56.95 88.67L57.00 88.72L57.00 88.73Q59.32 86.10 59.19 81.66L59.20 81.67L59.16 81.63Q59.05 73.44 51.17 73.82L51.00 73.66L51.08 73.74Q46.56 74.09 43.69 76.16L43.56 76.03L43.01 75.74L42.64 75.49L42.73 75.58Q43.31 70.40 43.12 65.90L43.18 65.96L43.00 65.78Q42.84 61.49 42.28 56.05L42.36 56.13L42.33 56.10Q48.30 57.63 54.55 57.44L54.69 57.57L54.51 57.39Q60.91 57.42 66.79 55.35L66.71 55.28L65.74 57.74L65.88 57.89Q65.38 59.13 65.06 60.51L64.96 60.41L64.89 60.34Q59.89 62.15 53.51 62.15L53.46 62.11L53.53 62.17Q51.20 62.22 48.76 61.97L48.74 61.95L48.64 61.85Q48.58 63.04 48.02 70.36L48.03 70.37L47.92 70.26Q49.26 69.48 52.64 69.23L52.71 69.30L52.68 69.27Q58.95 69.78 61.33 72.54L61.15 72.35L61.25 72.46Q63.41 74.86 63.84 81.18L63.83 81.17L63.85 81.18Q64.39 88.17 62.39 91.48L62.32 91.42L62.39 91.49Q58.96 94.50 53.52 94.87L53.50 94.86L53.66 95.01Q51.83 94.93 47.45 95.18ZM57.48 99.02L57.38 98.92L57.54 99.08Q63.02 99.05 66.14 97.24L66.20 97.30L66.33 97.42Q67.81 94.78 67.81 91.34L67.88 91.41L67.84 91.37Q67.78 86.24 66.22 79.49L66.35 79.62L66.20 79.47Q65.75 76.77 63.74 74.45L63.59 74.29L63.81 74.58L63.28 73.93L62.76 73.65L62.80 73.70Q62.37 72.57 61.30 71.45L61.13 71.28L61.17 71.38L61.26 71.47Q58.70 68.66 52.64 68.66L52.74 68.76L52.17 68.63L52.21 68.67Q52.43 67.83 52.74 66.01L52.63 65.90L52.68 65.95Q60.94 66.21 67.57 63.52L67.41 63.36L67.46 63.41Q68.22 61.16 69.78 56.54L69.78 56.53L66.35 58.10L66.27 58.03Q66.99 56.24 67.80 54.36L67.77 54.34L67.78 54.35Q61.35 56.61 54.60 56.74L54.66 56.80L54.72 56.86Q48.00 57.09 41.50 55.27L41.39 55.16L41.36 55.13Q42.44 62.34 42.44 69.60L42.58 69.73L42.53 69.69Q42.55 72.83 42.36 75.96L42.34 75.94L42.33 75.93Q42.70 76.17 43.64 76.67L43.67 76.70L43.72 76.76Q44.24 76.34 45.30 75.77L45.30 75.77L45.38 75.85Q45.19 76.97 44.81 79.47L44.99 79.65L45.00 79.66Q45.67 79.96 46.36 80.33L46.19 80.16L46.24 80.21Q50.88 77.41 53.94 77.41L53.94 77.41L53.96 77.43Q56.01 77.29 57.95 78.35L58.03 78.43L58.05 78.45Q58.55 80.08 58.61 81.64L58.59 81.62L58.66 81.69Q58.75 85.91 57.06 87.72L57.11 87.77L57.09 87.75Q54.95 89.86 51.26 90.24L51.21 90.19L51.10 90.07Q49.60 90.27 48.48 90.14L48.51 90.17L48.52 90.19Q47.02 89.87 45.77 89.31L45.89 89.43L45.71 88.93L45.54 89.15L45.64 89.24Q44.26 88.37 43.39 86.18L43.31 86.10L43.33 86.12Q41.20 88.50 38.45 92.00L38.51 92.06L38.40 91.94Q38.98 93.10 40.36 94.66L40.31 94.61L40.36 94.66Q42.18 97.73 46.81 98.54L46.64 98.38L46.67 98.41Q48.73 98.90 57.54 99.08Z"/><path d="M4 93 C173 119,173 113,331 20" stroke="#b7e886" fill="none"/><path d="M6 25 C178 17,169 94,332 8" stroke="#71dea8" fill="none"/><path fill="#67e4a5" d="M104.10 95.17L104.27 95.34L104.17 95.23Q97.48 95.61 95.85 91.79L95.97 91.92L95.96 91.91Q97.21 90.34 99.78 87.40L99.80 87.42L99.70 87.32Q100.58 90.71 105.52 90.90L105.48 90.85L105.37 90.75Q111.09 91.02 113.78 88.83L113.79 88.84L113.65 88.70Q116.05 86.16 115.92 81.72L115.94 81.74L115.83 81.62Q115.58 73.31 107.70 73.69L107.79 73.78L107.84 73.82Q103.17 74.04 100.30 76.10L100.30 76.11L99.63 75.69L99.30 75.48L99.40 75.58Q99.89 70.32 99.70 65.81L99.73 65.84L99.73 65.84Q99.61 61.59 99.05 56.15L99.11 56.21L99.05 56.15Q105.03 57.69 111.28 57.50L111.25 57.47L111.21 57.43Q117.60 57.44 123.48 55.38L123.39 55.29L122.47 57.81L122.55 57.89Q121.92 59.01 121.61 60.39L121.56 60.34L121.64 60.42Q116.52 62.12 110.14 62.12L110.24 62.21L110.05 62.03Q107.80 62.15 105.36 61.90L105.23 61.77L105.34 61.88Q105.21 63.00 104.65 70.32L104.67 70.34L104.71 70.38Q105.99 69.54 109.37 69.29L109.46 69.38L109.39 69.31Q115.48 69.65 117.86 72.40L117.80 72.34L117.93 72.47Q120.10 74.89 120.54 81.21L120.62 81.29L120.66 81.33Q121.03 88.15 119.03 91.46L119.01 91.44L119.09 91.52Q115.72 94.59 110.28 94.96L110.27 94.96L110.35 95.03Q108.58 95.02 104.20 95.27ZM114.19 99.06L114.20 99.07L114.15 99.03Q119.84 99.21 122.97 97.40L122.80 97.23L122.91 97.34Q124.48 94.79 124.48 91.35L124.44 91.30L124.45 91.32Q124.53 86.33 122.97 79.57L123.03 79.63L122.96 79.56Q122.28 76.63 120.28 74.32L120.29 74.33L120.35 74.46L120.12 74.09L119.55 73.78L119.53 73.75Q118.87 72.41 117.80 71.28L117.97 71.45L117.86 71.40L117.82 71.36Q115.41 68.70 109.34 68.70L109.31 68.67L108.89 68.69L108.96 68.75Q109.05 67.79 109.37 65.97L109.30 65.90L109.33 65.93Q117.43 66.02 124.06 63.34L124.16 63.44L124.09 63.37Q124.75 61.03 126.31 56.40L126.31 56.40L122.87 57.96L123.02 58.11Q123.65 56.24 124.46 54.36L124.33 54.23L124.37 54.27Q118.18 56.78 111.43 56.90L111.28 56.75L111.28 56.76Q104.63 57.04 98.13 55.23L98.14 55.24L98.10 55.20Q99.24 62.47 99.24 69.73L99.21 69.70L99.18 69.67Q99.18 72.79 98.99 75.92L99.04 75.98L99.04 75.97Q99.53 76.33 100.47 76.83L100.47 76.83L100.33 76.70Q100.85 76.28 101.92 75.72L101.92 75.72L102.01 75.81Q101.87 76.99 101.50 79.49L101.63 79.63L101.62 79.62Q102.16 79.78 102.85 80.16L102.91 80.22L102.97 80.28Q107.61 77.47 110.67 77.47L110.62 77.42L110.62 77.42Q112.83 77.44 114.77 78.50L114.68 78.42L114.65 78.39Q115.27 80.13 115.33 81.70L115.26 81.62L115.39 81.75Q115.36 85.85 113.67 87.66L113.72 87.71L113.75 87.74Q111.44 89.68 107.75 90.06L107.90 90.21L107.82 90.13Q106.25 90.25 105.12 90.12L105.13 90.13L105.10 90.10Q103.72 89.91 102.47 89.35L102.55 89.42L102.37 88.93L102.23 89.17L102.21 89.14Q101.00 88.44 100.13 86.25L100.05 86.17L100.01 86.13Q97.97 88.60 95.22 92.10L95.09 91.97L95.18 92.06Q95.59 93.04 96.97 94.60L97.09 94.73L96.92 94.55Q98.81 97.69 103.43 98.50L103.39 98.45L103.36 98.43Q105.35 98.86 114.17 99.05Z"/><path d="M2 135 C167 84,180 21,336 55" stroke="#8ae9e9" fill="none"/><path d="M6 115 C166 68,160 19,328 57" stroke="#eb8665" fill="none"/><path d="M8 106 C159 84,164 64,323 121" stroke="#93eaa9" fill="none"/><path d="M1 32 C175 88,157 106,327 116" stroke="#7ce87c" fill="none"/><path d="M5 94 C189 93,189 84,329 23" stroke="#d0ee76" fill="none"/><path d="M7 99 C170 14,167 119,321 85" stroke="#6ce98b" fill="none"/><path d="M2 111 C177 75,192 61,335 84" stroke="#6feb8e" fill="none"/><path fill="#dd8d73" d="M166.30 67.45L166.30 67.45L166.16 67.31Q160.87 67.28 157.86 65.53L157.96 65.62L157.97 65.63Q162.05 63.33 170.05 56.39L170.13 56.46L170.10 56.43Q171.19 56.02 173.32 55.02L173.41 55.12L173.40 55.10Q171.28 64.93 171.09 75.37L171.11 75.40L171.09 75.37Q170.87 85.79 172.62 95.80L172.54 95.71L172.55 95.73Q169.89 94.63 166.39 94.44L166.41 94.46L166.27 94.32Q166.21 87.63 166.21 80.94L166.22 80.95L166.24 80.97Q166.22 74.20 166.29 67.44ZM165.58 71.05L165.49 94.92L165.63 95.05Q167.52 94.95 169.09 95.26L169.13 95.31L169.18 95.36Q169.21 96.39 169.52 98.64L169.60 98.71L169.60 98.72Q174.27 99.57 178.28 103.26L178.31 103.30L178.29 103.28Q174.30 91.66 174.24 79.40L174.16 79.32L174.21 79.37Q174.13 67.16 177.13 55.27L177.04 55.19L177.12 55.26Q176.22 55.92 173.59 57.74L173.52 57.67L173.49 57.64Q173.90 56.48 174.40 53.98L174.35 53.93L174.31 53.89Q172.14 55.16 169.76 55.78L169.82 55.84L169.69 55.71Q163.60 61.69 156.54 65.45L156.45 65.37L156.45 65.36Q158.81 67.22 162.69 67.78L162.79 67.88L162.73 67.83Q161.56 68.60 159.43 70.35L159.58 70.49L159.44 70.35Q161.88 70.98 165.51 70.98L165.59 71.06Z"/><path d="M14 62 C163 6,163 40,326 122" stroke="#e0964c" fill="none"/><path d="M5 67 C158 78,178 20,331 132" stroke="#7a7ae5" fill="none"/><path fill="#87e169" d="M222.88 67.37L222.79 67.29L222.78 67.27Q217.60 67.34 214.60 65.59L214.59 65.59L214.63 65.63Q218.71 63.32 226.71 56.38L226.76 56.43L226.76 56.42Q227.97 56.13 230.09 55.13L230.08 55.12L230.14 55.18Q227.94 64.93 227.76 75.37L227.63 75.25L227.68 75.30Q227.58 85.83 229.33 95.83L229.29 95.79L229.19 95.69Q226.56 94.63 223.06 94.44L222.93 94.31L223.02 94.41Q222.88 87.63 222.88 80.94L222.85 80.91L222.92 80.98Q222.84 74.15 222.91 67.40ZM222.26 71.06L222.31 95.07L222.33 95.09Q224.17 94.93 225.73 95.24L225.75 95.26L225.84 95.35Q225.99 96.49 226.30 98.75L226.24 98.69L226.27 98.72Q230.99 99.62 234.99 103.31L234.88 103.20L235.00 103.32Q230.89 91.58 230.82 79.32L230.76 79.26L230.91 79.40Q230.71 67.07 233.71 55.19L233.79 55.26L233.69 55.17Q232.89 55.93 230.26 57.74L230.29 57.77L230.21 57.69Q230.43 56.34 230.93 53.84L230.92 53.84L230.91 53.83Q228.91 55.26 226.53 55.89L226.47 55.83L226.46 55.81Q220.18 61.61 213.11 65.36L213.11 65.35L213.11 65.35Q215.41 67.15 219.29 67.72L219.36 67.79L219.35 67.78Q218.36 68.73 216.24 70.48L216.28 70.53L216.17 70.41Q218.58 71.02 222.21 71.02L222.33 71.13Z"/><path d="M11 22 C173 71,184 10,328 100" stroke="#4e4ee3" fill="none"/><path d="M7 100 C180 100,192 115,322 68" stroke="#e961a5" fill="none"/><path d="M21 4 C180 4,167 132,334 59" stroke="#89eba1" fill="none"/><path d="M13 119 C161 49,177 1,337 23" stroke="#ec6ecc" fill="none"/><path d="M13 77 C167 130,174 104,321 59" stroke="#8668e3" fill="none"/><path d="M16 22 C166 60,165 57,327 102" stroke="#bd39e9" fill="none"/><path d="M1 13 C179 55,171 122,322 114" stroke="#62d962" fill="none"/><path d="M3 95 C173 57,174 76,337 64" stroke="#e94848" fill="none"/><path d="M3 88 C153 93,151 88,328 66" stroke="#77afe8" fill="none"/><path d="M10 93 C162 108,158 137,324 137" stroke="#7ae4af" fill="none"/><path d="M9 93 C180 27,175 92,337 96" stroke="#8567de" fill="none"/><path d="M17 71 C189 56,162 75,333 130" stroke="#e88686" fill="none"/><path d="M4 80 C152 87,156 137,330 14" stroke="#63e784" fill="none"/><path fill="#e759a0" d="M273.24 95.30L273.15 95.22L273.14 95.20Q270.82 95.32 268.25 94.63L268.33 94.72L268.32 94.70Q266.29 93.17 266.04 90.48L265.96 90.41L265.99 90.43Q266.01 90.20 266.32 85.89L266.27 85.84L266.31 85.88Q267.95 85.51 271.26 84.88L271.30 84.92L270.96 86.15L270.89 86.07Q270.56 89.06 272.88 90.00L272.83 89.96L272.79 89.92Q274.20 90.57 277.64 90.57L277.54 90.47L277.66 90.59Q280.24 90.30 280.56 90.18L280.58 90.20L280.54 90.16Q282.08 89.95 283.27 89.14L283.27 89.14L283.19 89.06Q285.60 87.59 285.29 84.15L285.16 84.02L285.31 84.17Q284.96 80.13 282.12 77.57L282.00 77.45L281.95 77.41Q279.14 74.87 275.07 74.87L275.14 74.94L275.18 74.60L275.22 74.64Q275.69 74.42 277.12 74.30L277.25 74.43L277.13 74.31Q280.37 74.23 282.62 72.20L282.60 72.17L282.54 72.11Q284.93 70.22 285.18 67.16L285.17 67.15L285.12 67.09Q285.30 66.59 285.30 66.02L285.12 65.84L285.26 65.98Q285.30 63.53 283.05 62.02L282.87 61.85L282.91 61.88Q280.97 60.63 278.34 60.82L278.29 60.76L278.23 60.71Q276.23 60.58 274.23 61.27L274.22 61.26L274.13 61.18Q271.79 62.09 271.29 63.96L271.40 64.07L271.42 64.09Q271.08 65.32 271.21 66.57L271.05 66.41L271.07 66.43Q269.54 66.22 266.16 65.03L266.11 64.97L266.10 64.96Q265.71 62.20 265.78 60.82L265.77 60.82L265.82 60.87Q265.87 58.22 267.62 57.10L267.65 57.13L267.64 57.12Q269.95 56.12 272.58 56.12L272.56 56.10L272.65 56.19Q277.83 56.12 283.02 56.55L283.02 56.55L283.08 56.61Q291.28 57.18 290.78 63.37L290.93 63.52L290.93 63.53Q290.64 65.80 289.82 68.36L289.97 68.50L289.93 68.47Q288.38 73.49 284.51 74.99L284.62 75.10L284.62 75.10Q288.81 75.85 289.81 81.35L289.79 81.34L289.84 81.38Q290.23 83.28 290.36 86.59L290.35 86.59L290.26 86.49Q290.50 93.81 282.94 94.56L283.11 94.73L282.96 94.58Q281.80 94.74 273.11 95.17ZM281.76 98.95L281.71 98.89L281.79 98.98Q282.74 98.99 287.43 99.11L287.33 99.02L287.42 99.10Q290.29 99.22 292.98 98.16L292.92 98.10L292.88 98.06Q294.92 96.60 294.61 93.72L294.63 93.74L294.67 93.78Q294.39 91.50 293.89 88.62L293.90 88.64L293.88 88.62Q292.70 81.24 289.51 78.56L289.48 78.52L289.16 77.90L289.22 77.89L289.06 77.73Q291.93 75.35 293.19 68.16L293.19 68.16L293.19 68.17Q293.34 67.50 293.53 65.94L293.60 66.00L293.63 66.03Q293.60 64.63 293.48 63.51L293.55 63.58L293.46 63.49Q293.32 60.85 291.19 59.72L291.13 59.66L291.00 59.65L291.09 59.74Q290.59 58.12 288.72 57.25L288.70 57.23L288.62 57.15Q286.13 56.03 277.68 55.53L277.80 55.64L277.79 55.63Q275.04 55.51 272.41 55.51L272.24 55.35L272.36 55.47Q269.68 55.41 267.18 56.48L267.23 56.52L267.17 56.46Q265.10 57.65 265.10 60.52L265.20 60.63L265.28 60.70Q265.22 59.96 265.66 65.46L265.65 65.45L265.67 65.47Q266.21 65.64 268.90 66.64L268.74 66.48L268.79 66.52Q268.78 67.39 268.71 68.20L268.73 68.21L268.79 68.27Q268.79 69.09 268.86 69.97L268.81 69.92L268.89 70.00Q271.80 70.60 275.12 70.79L275.01 70.69L275.07 70.74Q274.91 67.39 276.72 66.02L276.85 66.14L276.71 66.00Q278.16 65.01 281.47 64.64L281.45 64.61L281.42 64.58Q283.41 64.70 284.35 65.01L284.28 64.95L284.20 64.86Q284.27 65.06 284.34 65.25L284.30 65.21L284.35 65.58L284.65 66.62L284.65 66.62Q284.57 66.86 284.51 67.11L284.58 67.18L284.57 67.17Q284.36 69.90 281.86 71.84L281.91 71.89L281.97 71.95Q280.36 73.35 277.05 73.66L277.02 73.63L277.09 73.70Q275.94 73.99 274.50 73.99L274.50 73.99L274.38 73.87Q274.48 74.47 274.73 75.60L274.75 75.61L274.72 75.58Q277.67 75.66 280.05 76.85L280.10 76.90L279.87 76.86L277.26 77.12L277.22 77.09Q277.38 77.74 277.57 78.74L277.45 78.63L277.51 78.68Q281.11 78.66 283.92 80.85L283.77 80.70L283.84 80.76Q284.13 81.31 284.63 83.99L284.66 84.03L284.65 84.01Q285.05 88.91 280.23 89.60L280.22 89.59L280.14 89.51Q276.75 90.00 275.82 89.94L275.87 90.00L275.85 89.97Q275.15 89.83 274.27 89.71L274.21 89.64L274.19 88.87L274.49 88.23L274.38 87.44L274.61 87.11L274.44 86.94Q272.86 87.04 271.55 87.36L271.61 87.42L271.62 87.43Q271.52 87.01 271.52 86.70L271.67 86.85L271.48 86.67Q271.61 86.42 271.61 86.05L271.69 86.12L271.60 86.04Q271.68 85.36 271.93 84.17L271.87 84.12L271.95 84.19Q268.80 84.49 265.73 85.05L265.84 85.16L265.86 85.18Q265.92 86.05 265.73 87.89L265.68 87.84L265.60 87.76Q265.49 89.68 265.49 90.68L265.42 90.61L265.52 90.71Q265.50 93.94 267.75 95.19L267.84 95.29L267.85 95.30Q270.22 98.98 277.98 98.67L277.98 98.67L278.03 98.71Q279.25 98.69 281.75 98.94Z"/><path d="M4 128 C176 50,165 93,332 114" stroke="#33b8e4" fill="none"/><path d="M19 8 C188 88,182 56,339 70" stroke="#5a7ce1" fill="none"/><path d="M6 27 C154 11,172 66,330 23" stroke="#8ce236" fill="none"/><path d="M15 92 C173 36,182 107,340 43" stroke="#eeba85" fill="none"/><path d="M19 72 C173 128,178 20,331 64" stroke="#eb79eb" fill="none"/><path d="M4 4 C168 118,170 57,325 65" stroke="#52e952" fill="none"/><path d="M7 56 C185 58,178 110,323 28" stroke="#e2738f" fill="none"/></svg>