<svg xmlns="http://www.w3.org/2000/svg" width="342" height="140" viewBox="0,0,342,140"><path d="M4 69 C156 33,191 17,337 91" stroke="#57c5ea" fill="none"/><path d="M17 129 C191 71,153 52,326 59" stroke="#90e490" fill="none"/><path d="M11 26 C184 70,156 112,322 70" stroke="#eded5e" fill="none"/><path d="M14 42 C161 111,178 95,323 93" stroke="#4de499" fill="none"/><path d="M1 110 C173 34,171 67,331 134" stroke="#eb5656" fill="none"/><path d="M3 25 C159 4,177 86,334 84" stroke="#e74a4a" fill="none"/><path d="M5 2 C190 122,187 59,324 59" stroke="#db4c4c" fill="none"/><path fill="#7592ea" d="M47.59 95.32L47.47 95.20L47.52 95.25Q40.80 95.60 39.18 91.79L39.12 91.73L39.26 91.87Q40.43 90.22 42.99 87.28L43.11 87.40L42.98 87.27Q43.77 90.56 48.71 90.75L48.80 90.84L48.77 90.81Q54.40 90.99 57.08 88.81L57.04 88.76L57.03 88.75Q59.40 86.18 59.27 81.74L59.30 81.77L59.25 81.71Q58.91 73.30 51.03 73.68L51.15 73.80L51.04 73.69Q46.49 74.02 43.61 76.08L43.55 76.02L43.00 75.72L42.66 75.50L42.79 75.64Q43.36 70.46 43.18 65.95L43.13 65.90L43.10 65.88Q42.95 61.59 42.38 56.15L42.29 56.06L42.32 56.09Q48.32 57.65 54.58 57.47L54.68 57.57L54.55 57.44Q60.81 57.32 66.69 55.25L66.73 55.30L65.88 57.88L65.83 57.84Q65.37 59.13 65.06 60.51L65.07 60.52L64.93 60.38Q59.84 62.10 53.46 62.10L53.52 62.16L53.58 62.22Q51.18 62.19 48.74 61.94L48.69 61.89L48.73 61.94Q48.61 63.07 48.05 70.39L47.88 70.22L48.02 70.36Q49.41 69.63 52.79 69.38L52.63 69.21L52.75 69.33Q58.76 69.59 61.13 72.34L61.30 72.51L61.33 72.54Q63.42 74.87 63.86 81.19L63.95 81.29L63.89 81.22Q64.34 88.12 62.34 91.43L62.36 91.45L62.30 91.40Q58.97 94.51 53.53 94.89L53.53 94.88L53.64 94.99Q51.91 95.01 47.53 95.26ZM57.57 99.11L57.42 98.96L57.49 99.03Q63.16 99.20 66.29 97.38L66.15 97.25L66.29 97.38Q67.95 94.92 67.95 91.48L67.79 91.32L67.93 91.45Q67.95 86.41 66.38 79.65L66.36 79.64L66.31 79.58Q65.70 76.72 63.70 74.40L63.75 74.45L63.73 74.50L63.29 73.93L62.72 73.62L62.79 73.69Q62.35 72.55 61.28 71.43L61.15 71.30L61.26 71.47L61.17 71.37Q58.77 68.73 52.70 68.73L52.63 68.65L52.16 68.62L52.18 68.64Q52.44 67.84 52.76 66.03L52.60 65.87L52.73 66.00Q60.89 66.16 67.52 63.47L67.46 63.41L67.47 63.41Q68.10 61.04 69.66 56.42L69.70 56.45L66.31 58.07L66.39 58.15Q66.95 56.20 67.76 54.33L67.72 54.29L67.84 54.40Q61.37 56.62 54.61 56.75L54.65 56.78L54.65 56.79Q47.91 56.99 41.40 55.17L41.43 55.20L41.45 55.22Q42.60 62.50 42.60 69.75L42.44 69.59L42.53 69.69Q42.50 72.78 42.31 75.91L42.25 75.85L42.36 75.95Q42.83 76.30 43.77 76.80L43.80 76.84L43.75 76.79Q44.24 76.34 45.31 75.78L45.31 75.78L45.37 75.84Q45.36 77.14 44.99 79.65L44.94 79.60L44.93 79.59Q45.52 79.81 46.21 80.18L46.30 80.28L46.35 80.33Q50.91 77.44 53.98 77.44L53.89 77.36L53.90 77.36Q56.18 77.45 58.12 78.52L57.98 78.38L58.05 78.45Q58.67 80.20 58.73 81.76L58.76 81.79L58.60 81.63Q58.85 86.01 57.16 87.82L57.01 87.67L57.19 87.85Q54.86 89.77 51.17 90.14L51.17 90.15L51.24 90.22Q49.55 90.22 48.43 90.09L48.51 90.18L48.44 90.10Q47.15 90.00 45.90 89.44L45.90 89.44L45.71 88.94L45.51 89.12L45.55 89.15Q44.26 88.37 43.39 86.18L43.37 86.16L43.34 86.13Q41.16 88.45 38.41 91.96L38.56 92.11L38.55 92.09Q38.99 93.10 40.36 94.66L40.25 94.55L40.42 94.72Q42.13 97.68 46.76 98.50L46.76 98.50L46.75 98.48Q48.71 98.88 57.53 99.07Z"/><path d="M7 22 C150 36,158 46,324 116" stroke="#ea8ea5" fill="none"/><path d="M21 71 C171 104,170 38,333 62" stroke="#84e0c9" fill="none"/><path fill="#52d5b4" d="M104.21 95.27L104.15 95.22L104.16 95.23Q97.50 95.64 95.88 91.82L95.97 91.92L95.79 91.73Q97.23 90.36 99.79 87.42L99.65 87.28L99.79 87.41Q100.47 90.60 105.41 90.79L105.46 90.84L105.41 90.78Q111.06 91.00 113.75 88.81L113.64 88.70L113.69 88.75Q115.98 86.09 115.86 81.65L115.96 81.76L115.87 81.67Q115.71 73.44 107.83 73.82L107.85 73.84L107.72 73.70Q103.22 74.09 100.35 76.15L100.33 76.13L99.76 75.81L99.42 75.60L99.43 75.61Q99.92 70.34 99.73 65.84L99.86 65.97L99.68 65.79Q99.51 61.49 98.94 56.05L98.94 56.04L99.03 56.14Q104.97 57.64 111.23 57.45L111.23 57.45L111.24 57.46Q117.60 57.44 123.48 55.38L123.49 55.39L122.37 57.71L122.37 57.71Q121.97 59.07 121.66 60.44L121.68 60.46L121.58 60.36Q116.56 62.15 110.18 62.15L110.18 62.15L110.17 62.15Q107.76 62.12 105.32 61.87L105.29 61.83L105.24 61.78Q105.16 62.96 104.60 70.27L104.71 70.38L104.59 70.26Q105.93 69.47 109.30 69.22L109.34 69.26L109.44 69.36Q115.50 69.67 117.88 72.42L117.81 72.35L117.88 72.42Q120.21 75.00 120.65 81.32L120.56 81.23L120.62 81.29Q120.97 88.08 118.97 91.39L119.04 91.47L119.12 91.55Q115.66 94.52 110.21 94.90L110.30 94.99L110.19 94.87Q108.51 94.95 104.13 95.20ZM114.21 99.08L114.21 99.08L114.22 99.09Q119.69 99.06 122.82 97.24L122.89 97.32L122.88 97.31Q124.43 94.73 124.43 91.29L124.49 91.35L124.50 91.36Q124.59 86.38 123.02 79.63L122.99 79.59L122.98 79.59Q122.34 76.69 120.34 74.38L120.27 74.31L120.30 74.41L120.04 74.02L119.44 73.67L119.48 73.71Q119.00 72.54 117.94 71.41L117.99 71.46L117.84 71.38L117.84 71.38Q115.38 68.67 109.31 68.67L109.34 68.69L108.92 68.71L108.88 68.67Q109.06 67.79 109.38 65.98L109.39 65.99L109.25 65.86Q117.58 66.18 124.21 63.49L124.24 63.52L124.12 63.40Q124.80 61.08 126.36 56.45L126.38 56.46L123.00 58.09L122.97 58.06Q123.52 56.11 124.34 54.24L124.32 54.22L124.50 54.40Q118.18 56.77 111.42 56.89L111.38 56.86L111.31 56.78Q104.50 56.91 98.00 55.10L98.16 55.27L98.06 55.17Q99.14 62.37 99.14 69.63L99.20 69.69L99.27 69.76Q99.17 72.79 98.98 75.91L98.93 75.86L98.91 75.84Q99.43 76.24 100.37 76.74L100.38 76.75L100.44 76.81Q100.99 76.42 102.05 75.85L102.07 75.88L102.04 75.84Q102.03 77.15 101.66 79.65L101.49 79.48L101.48 79.47Q102.17 79.79 102.86 80.17L102.90 80.21L103.01 80.32Q107.48 77.35 110.55 77.35L110.49 77.29L110.67 77.47Q112.87 77.47 114.80 78.54L114.74 78.47L114.71 78.45Q115.31 80.17 115.38 81.74L115.43 81.79L115.30 81.66Q115.40 85.89 113.71 87.70L113.84 87.83L113.78 87.77Q111.44 89.68 107.75 90.06L107.73 90.04L107.75 90.06Q106.30 90.30 105.18 90.18L105.18 90.18L105.07 90.07Q103.75 89.93 102.50 89.37L102.58 89.46L102.35 88.91L102.33 89.26L102.22 89.16Q100.90 88.34 100.03 86.15L100.15 86.28L100.12 86.24Q97.94 88.56 95.19 92.07L95.09 91.98L95.21 92.10Q95.72 93.17 97.10 94.73L96.97 94.60L97.06 94.69Q98.76 97.64 103.39 98.45L103.32 98.38L103.30 98.37Q105.25 98.75 114.07 98.94Z"/><path d="M17 57 C179 62,164 85,322 132" stroke="#e4cb80" fill="none"/><path d="M12 113 C188 12,169 15,333 46" stroke="#8cd4ec" fill="none"/><path d="M9 7 C173 25,168 114,322 110" stroke="#eded87" fill="none"/><path d="M18 45 C177 123,163 47,337 48" stroke="#ef8abc" fill="none"/><path d="M11 81 C172 99,162 8,330 75" stroke="#63a3e2" fill="none"/><path d="M16 56 C185 86,151 92,323 89" stroke="#6a6aea" fill="none"/><path d="M2 131 C188 26,158 78,335 35" stroke="#79e1ad" fill="none"/><path d="M9 83 C190 131,175 77,339 27" stroke="#b7ec82" fill="none"/><path fill="#92e6bc" d="M279.49 67.31L279.59 67.42L279.46 67.28Q274.32 67.39 271.31 65.64L271.20 65.53L271.30 65.62Q275.44 63.39 283.45 56.45L283.46 56.46L283.38 56.38Q284.56 56.06 286.69 55.06L286.79 55.16L286.82 55.20Q284.60 64.92 284.41 75.36L284.33 75.28L284.40 75.35Q284.24 85.82 285.99 95.83L285.99 95.83L285.89 95.73Q283.13 94.54 279.63 94.35L279.65 94.37L279.69 94.41Q279.40 87.48 279.40 80.79L279.48 80.87L279.46 80.85Q279.42 74.06 279.48 67.30ZM279.01 71.15L278.88 94.98L278.84 94.93Q280.86 94.95 282.42 95.26L282.44 95.28L282.56 95.40Q282.68 96.52 282.99 98.77L282.90 98.68L282.89 98.67Q287.57 99.54 291.57 103.23L291.58 103.24L291.67 103.32Q287.56 91.58 287.50 79.33L287.48 79.30L287.56 79.39Q287.30 66.99 290.30 55.11L290.37 55.17L290.34 55.15Q289.48 55.85 286.85 57.67L286.79 57.60L286.87 57.68Q287.10 56.35 287.60 53.85L287.60 53.84L287.72 53.97Q285.59 55.28 283.21 55.90L283.10 55.79L283.14 55.83Q276.96 61.72 269.89 65.47L269.79 65.37L269.76 65.34Q272.08 67.16 275.96 67.72L275.97 67.73L275.97 67.73Q274.96 68.67 272.84 70.42L272.80 70.38L272.86 70.45Q275.39 71.16 279.02 71.16L278.97 71.10Z"/><path d="M4 81 C156 100,176 56,341 104" stroke="#9652da" fill="none"/><path fill="#8ae9a2" d="M234.94 91.25L234.96 91.28L234.84 91.15Q235.42 92.86 236.30 96.17L236.27 96.15L236.29 96.17Q229.41 94.04 221.84 94.48L221.77 94.41L221.81 94.44Q214.16 94.73 207.59 97.98L207.60 98.00L207.60 97.99Q208.13 97.03 208.20 97.15L208.12 97.08L208.15 97.11Q214.16 90.49 220.61 83.23L220.73 83.36L220.63 83.26Q227.97 75.15 229.91 67.46L229.80 67.35L229.98 67.53Q230.58 64.50 228.49 62.57L228.50 62.58L228.48 62.56Q226.38 60.61 223.44 60.86L223.56 60.99L223.59 61.01Q222.86 60.78 222.29 60.78L222.43 60.92L222.33 60.81Q219.90 60.88 217.83 62.38L217.72 62.27L217.83 62.38Q215.76 64.69 216.14 69.07L216.07 69.00L215.98 68.91Q213.09 68.40 211.09 67.65L211.03 67.59L211.04 67.60Q210.82 65.38 210.70 63.00L210.60 62.91L210.79 63.09Q210.64 60.38 211.64 58.51L211.61 58.47L211.54 58.41Q214.60 56.27 220.10 56.27L219.95 56.12L222.81 56.10L222.79 56.09Q226.67 56.27 228.23 56.46L228.28 56.51L228.12 56.35Q235.37 57.16 235.81 61.16L235.68 61.03L235.75 61.10Q235.89 62.06 235.77 63.37L235.81 63.41L235.76 63.37Q235.62 64.35 235.37 65.48L235.36 65.47L235.51 65.62Q232.78 78.90 220.34 90.16L220.41 90.23L220.25 90.07Q222.59 89.85 224.84 89.85L224.89 89.89L224.96 89.96Q230.16 89.85 234.85 91.16ZM233.87 56.90L233.96 57.00L233.89 56.92Q231.38 55.98 228.56 55.85L228.44 55.73L222.98 55.58L222.82 55.42Q215.62 55.10 211.99 56.92L212.02 56.95L212.03 56.96Q210.24 59.17 210.24 62.54L210.13 62.44L210.28 62.58Q210.23 63.66 210.73 68.29L210.70 68.26L210.65 68.21Q211.61 68.67 213.55 69.17L213.66 69.28L213.52 70.83L213.62 70.93Q213.42 71.54 213.54 72.42L213.70 72.57L213.72 72.60Q215.66 72.66 219.72 73.03L219.67 72.98L219.82 73.12Q219.62 72.36 219.62 71.80L219.67 71.86L219.78 71.97Q219.60 68.78 221.60 66.56L221.74 66.70L221.68 66.64Q223.67 64.41 226.61 64.59L226.66 64.65L226.64 64.63Q227.88 64.68 229.13 64.93L229.22 65.01L229.05 64.84Q229.38 65.62 229.51 66.30L229.37 66.17L229.41 66.20Q229.55 66.98 229.43 67.54L229.38 67.49L229.45 67.56Q227.29 75.28 220.04 83.23L219.98 83.17L220.01 83.20Q216.48 86.87 207.54 96.81L207.68 96.95L207.71 96.98Q207.41 98.37 206.85 99.31L206.65 99.11L206.85 99.31Q209.36 97.75 211.86 96.88L211.93 96.95L211.90 96.92Q210.64 97.78 209.07 100.22L209.15 100.30L209.06 100.21Q208.86 100.76 208.67 101.32L208.71 101.35L208.66 101.31Q216.78 98.04 225.78 98.35L225.79 98.36L225.70 98.28Q235.12 98.63 242.63 102.51L242.59 102.47L240.91 98.91L240.93 98.93Q239.91 96.78 239.47 95.47L239.49 95.49L239.47 95.47Q238.19 94.69 236.19 94.00L236.33 94.14L236.17 93.98Q236.08 92.95 235.45 90.70L235.39 90.64L235.39 90.64Q231.82 89.75 228.07 89.44L228.05 89.43L228.05 89.43Q235.64 81.81 238.14 68.24L238.12 68.23L238.46 63.50L238.54 63.58Q238.30 60.53 236.30 59.40L236.33 59.43L236.40 59.57L236.33 59.49Q236.32 59.43 236.20 59.43L236.06 59.28L236.21 59.44Q235.76 57.99 233.95 56.99Z"/><path d="M8 10 C171 20,179 94,336 58" stroke="#e36283" fill="none"/><path d="M5 61 C172 69,160 27,325 59" stroke="#eaea51" fill="none"/><path d="M8 77 C172 96,153 104,328 94" stroke="#79cfeb" fill="none"/><path d="M6 34 C167 45,150 114,335 94" stroke="#c663e7" fill="none"/><path d="M16 49 C157 109,157 96,336 75" stroke="#46e546" fill="none"/><path d="M20 58 C158 65,183 117,340 2" stroke="#caec63" fill="none"/><path d="M14 65 C191 71,175 87,323 38" stroke="#e66337" fill="none"/><path d="M10 22 C165 38,188 7,340 107" stroke="#d36c4a" fill="none"/><path d="M21 22 C163 32,166 110,334 21" stroke="#8ebfef" fill="none"/><path d="M12 74 C188 131,157 95,332 97" stroke="#71e8e8" fill="none"/><path d="M20 116 C175 123,169 110,337 125" stroke="#4ddfbb" fill="none"/><path d="M8 63 C174 48,160 20,324 99" stroke="#639ed8" fill="none"/><path d="M20 27 C155 117,187 111,330 106" stroke="#93eb93" fill="none"/><path d="M19 17 C188 44,176 60,331 88" stroke="#e2e25e" fill="none"/><path fill="#ade475" d="M166.20 67.35L166.28 67.43L166.20 67.36Q160.89 67.30 157.88 65.54L157.89 65.55L157.94 65.60Q162.17 63.45 170.17 56.51L170.05 56.39L170.06 56.39Q171.25 56.08 173.38 55.08L173.40 55.10L173.32 55.02Q171.20 64.85 171.01 75.29L171.02 75.31L171.12 75.40Q170.80 85.72 172.55 95.73L172.64 95.81L172.55 95.72Q169.82 94.56 166.32 94.37L166.44 94.49L166.39 94.44Q166.22 87.64 166.22 80.95L166.17 80.89L166.06 80.79Q166.22 74.20 166.29 67.44ZM165.59 71.06L165.69 95.11L165.54 94.96Q167.59 95.02 169.16 95.33L169.07 95.24L169.15 95.32Q169.34 96.52 169.66 98.77L169.66 98.77L169.52 98.64Q174.22 99.52 178.22 103.21L178.28 103.26L178.25 103.24Q174.24 91.60 174.18 79.34L174.14 79.30L174.09 79.25Q174.02 67.04 177.02 55.16L177.01 55.15L176.97 55.11Q176.07 55.77 173.44 57.58L173.60 57.75L173.62 57.76Q173.91 56.49 174.41 53.99L174.37 53.95L174.25 53.83Q172.10 55.12 169.73 55.75L169.81 55.83L169.74 55.76Q163.54 61.63 156.47 65.38L156.58 65.49L156.53 65.44Q158.92 67.33 162.80 67.90L162.74 67.83L162.69 67.79Q161.70 68.74 159.58 70.49L159.44 70.36L159.54 70.45Q161.89 70.99 165.52 70.99L165.52 71.00Z"/><path d="M14 138 C161 57,171 117,332 68" stroke="#48c1e9" fill="none"/><path d="M8 32 C153 112,152 11,322 139" stroke="#b9e240" fill="none"/><path d="M9 83 C191 105,153 44,327 115" stroke="#673ee4" fill="none"/><path d="M7 26 C185 73,185 120,323 76" stroke="#8aefef" fill="none"/><path d="M16 26 C161 117,190 111,340 98" stroke="#ed6dcd" fill="none"/><path d="M3 116 C181 35,158 139,334 84" stroke="#e7913a" fill="none"/><path d="M10 12 C182 61,180 69,328 21" stroke="#df5d7d" fill="none"/><path d="M19 94 C160 95,191 135,327 139" stroke="#e75fc5" fill="none"/></svg>