<svg xmlns="http://www.w3.org/2000/svg" width="342" height="140" viewBox="0,0,342,140"><path d="M18 90 C155 79,158 134,335 98" stroke="#4bd24b" fill="none"/><path d="M18 105 C187 11,180 87,341 76" stroke="#83ebd1" fill="none"/><path d="M12 111 C173 11,170 26,333 66" stroke="#78e278" fill="none"/><path d="M18 90 C180 35,161 25,324 110" stroke="#6c6ce9" fill="none"/><path d="M10 112 C168 31,178 40,322 73" stroke="#b638e0" fill="none"/><path d="M12 137 C188 93,181 64,336 37" stroke="#62d980" fill="none"/><path d="M10 102 C175 65,152 125,336 88" stroke="#58e39e" fill="none"/><path d="M8 64 C174 56,181 66,330 122" stroke="#3fd98c" fill="none"/><path fill="#e3e35d" d="M105.03 93.10L105.07 93.14L104.94 93.01Q98.94 93.46 97.45 89.98L97.43 89.96L97.41 89.93Q98.51 88.47 100.85 85.79L100.93 85.87L100.87 85.81Q101.69 88.91 106.20 89.08L106.19 89.06L106.10 88.98Q111.25 89.16 113.71 87.16L113.65 87.10L113.62 87.07Q115.75 84.69 115.64 80.64L115.61 80.62L115.68 80.68Q115.38 73.01 108.18 73.36L108.21 73.38L108.31 73.49Q104.12 73.75 101.50 75.64L101.32 75.46L100.89 75.25L100.50 74.98L100.64 75.12Q101.20 70.43 101.03 66.32L100.85 66.14L100.89 66.18Q100.83 62.35 100.32 57.38L100.26 57.32L100.30 57.37Q105.81 58.82 111.52 58.65L111.38 58.51L111.45 58.58Q117.08 58.39 122.45 56.50L122.54 56.60L121.70 58.90L121.61 58.80Q121.21 60.00 120.92 61.26L120.94 61.28L120.83 61.16Q116.17 62.73 110.35 62.73L110.36 62.75L110.44 62.82Q108.30 62.85 106.07 62.62L105.98 62.53L105.96 62.52Q105.86 63.56 105.35 70.24L105.38 70.27L105.41 70.30Q106.62 69.57 109.70 69.34L109.77 69.40L109.81 69.45Q115.40 69.78 117.57 72.29L117.59 72.31L117.46 72.19Q119.52 74.47 119.92 80.24L120.00 80.32L119.86 80.18Q120.28 86.48 118.45 89.51L118.44 89.49L118.44 89.50Q115.46 92.40 110.49 92.74L110.63 92.88L110.61 92.86Q108.93 92.78 104.93 93.00ZM114.11 96.53L114.07 96.49L114.14 96.56Q119.24 96.63 122.09 94.98L122.03 94.91L122.11 95.00Q123.47 92.59 123.47 89.44L123.50 89.48L123.56 89.53Q123.52 84.87 122.10 78.70L122.04 78.65L122.08 78.69Q121.56 76.11 119.73 74.00L119.77 74.04L119.70 74.02L119.40 73.61L118.97 73.41L118.99 73.43Q118.41 72.22 117.44 71.20L117.53 71.28L117.50 71.31L117.57 71.38Q115.27 68.86 109.73 68.86L109.65 68.77L109.18 68.70L109.30 68.82Q109.32 67.87 109.60 66.21L109.68 66.29L109.67 66.28Q117.06 66.36 123.12 63.91L123.22 64.02L123.30 64.09Q123.87 61.92 125.30 57.69L125.27 57.67L122.21 59.17L122.05 59.02Q122.74 57.43 123.49 55.71L123.37 55.59L123.41 55.63Q117.75 57.92 111.59 58.03L111.59 58.04L111.56 58.00Q105.31 58.09 99.37 56.43L99.35 56.41L99.37 56.44Q100.39 63.05 100.39 69.67L100.44 69.73L100.50 69.79Q100.45 72.59 100.28 75.45L100.18 75.35L100.28 75.45Q100.75 75.80 101.61 76.26L101.53 76.19L101.54 76.19Q102.08 75.88 103.06 75.37L102.92 75.24L103.01 75.32Q103.03 76.54 102.69 78.82L102.62 78.75L102.56 78.70Q103.16 78.96 103.79 79.30L103.90 79.41L103.94 79.46Q108.10 76.82 110.90 76.82L110.90 76.82L110.85 76.76Q112.80 76.72 114.57 77.69L114.63 77.75L114.67 77.79Q115.13 79.27 115.18 80.70L115.09 80.60L115.12 80.64Q115.35 84.63 113.81 86.29L113.82 86.30L113.83 86.31Q111.59 87.96 108.22 88.30L108.39 88.47L108.21 88.29Q106.92 88.54 105.89 88.43L105.88 88.42L105.90 88.43Q104.50 88.12 103.36 87.61L103.55 87.79L103.41 87.37L103.19 87.50L103.27 87.57Q102.07 86.83 101.27 84.83L101.31 84.87L101.24 84.81Q99.17 86.84 96.65 90.04L96.79 90.17L96.68 90.07Q97.15 91.05 98.41 92.48L98.46 92.53L98.48 92.55Q100.04 95.26 104.27 96.00L104.21 95.94L104.35 96.08Q106.07 96.37 114.12 96.54Z"/><path d="M1 121 C190 13,173 19,334 8" stroke="#6337e6" fill="none"/><path d="M18 67 C191 85,155 126,327 123" stroke="#e561a3" fill="none"/><path d="M17 12 C176 62,182 2,334 49" stroke="#4fe299" fill="none"/><path d="M13 100 C152 95,191 33,323 46" stroke="#e57f98" fill="none"/><path d="M15 96 C154 92,169 37,331 69" stroke="#ed81ed" fill="none"/><path d="M4 122 C192 89,170 34,340 40" stroke="#7eeb7e" fill="none"/><path d="M17 66 C186 130,167 85,339 109" stroke="#e78e36" fill="none"/><path d="M5 52 C165 116,183 89,330 102" stroke="#46b2d6" fill="none"/><path d="M8 9 C160 19,172 58,327 122" stroke="#91d84a" fill="none"/><path d="M19 41 C177 137,161 108,324 68" stroke="#ef8aef" fill="none"/><path d="M4 118 C175 104,181 66,336 87" stroke="#57da78" fill="none"/><path d="M15 1 C160 39,151 66,329 46" stroke="#5275df" fill="none"/><path d="M9 106 C152 117,153 42,340 65" stroke="#70db8a" fill="none"/><path fill="#e645be" d="M48.40 93.14L48.28 93.02L48.43 93.17Q42.25 93.44 40.76 89.96L40.79 89.99L40.83 90.02Q41.97 88.59 44.31 85.91L44.26 85.86L44.23 85.83Q45.03 88.91 49.54 89.08L49.57 89.11L49.39 88.93Q54.56 89.13 57.01 87.14L57.11 87.23L57.06 87.19Q59.17 84.78 59.05 80.72L59.04 80.71L59.03 80.70Q58.86 73.16 51.67 73.51L51.64 73.49L51.59 73.43Q47.38 73.67 44.75 75.56L44.65 75.46L44.24 75.28L44.03 75.18L44.03 75.18Q44.51 70.40 44.34 66.29L44.32 66.28L44.26 66.22Q44.17 62.36 43.66 57.39L43.62 57.35L43.65 57.39Q49.17 58.84 54.88 58.67L54.77 58.57L54.88 58.68Q60.47 58.44 65.84 56.56L65.88 56.60L65.04 58.90L65.03 58.89Q64.57 60.03 64.29 61.29L64.27 61.27L64.30 61.30Q59.59 62.81 53.76 62.81L53.81 62.86L53.84 62.89Q51.52 62.74 49.29 62.51L49.38 62.60L49.37 62.59Q49.24 63.61 48.73 70.29L48.66 70.21L48.65 70.21Q50.00 69.62 53.09 69.39L52.97 69.28L53.06 69.36Q58.76 69.81 60.93 72.32L60.84 72.23L60.82 72.21Q62.87 74.49 63.27 80.26L63.35 80.34L63.29 80.28Q63.71 86.58 61.88 89.61L61.81 89.53L61.86 89.59Q58.92 92.52 53.95 92.86L53.82 92.74L53.90 92.82Q52.25 92.76 48.25 92.99ZM57.32 96.41L57.41 96.50L57.48 96.57Q62.64 96.70 65.49 95.04L65.30 94.85L65.48 95.03Q66.82 92.60 66.82 89.46L66.94 89.58L66.95 89.59Q66.94 84.95 65.51 78.79L65.48 78.76L65.43 78.71Q64.87 76.09 63.04 73.98L62.97 73.91L63.04 74.03L62.87 73.75L62.26 73.37L62.21 73.32Q61.78 72.26 60.81 71.23L60.89 71.31L60.81 71.29L60.82 71.30Q58.60 68.85 53.06 68.85L52.92 68.71L52.59 68.78L52.58 68.77Q52.66 67.88 52.95 66.23L52.96 66.23L53.02 66.29Q60.42 66.39 66.47 63.93L66.45 63.91L66.61 64.07Q67.18 61.90 68.61 57.67L68.62 57.68L65.52 59.15L65.53 59.16Q65.96 57.31 66.71 55.60L66.68 55.57L66.87 55.76Q60.99 57.82 54.82 57.93L54.90 58.01L54.88 57.99Q48.59 58.04 42.65 56.38L42.74 56.47L42.68 56.41Q43.77 63.10 43.77 69.73L43.69 69.64L43.72 69.67Q43.82 72.63 43.65 75.48L43.69 75.52L43.52 75.35Q44.01 75.73 44.87 76.19L44.92 76.24L44.85 76.17Q45.31 75.77 46.28 75.26L46.32 75.30L46.36 75.34Q46.21 76.39 45.86 78.67L45.97 78.77L46.01 78.82Q46.50 78.96 47.13 79.31L47.19 79.36L47.09 79.27Q51.40 76.79 54.20 76.79L54.25 76.83L54.22 76.81Q56.09 76.68 57.86 77.65L57.99 77.77L57.98 77.76Q58.36 79.17 58.42 80.60L58.49 80.67L58.47 80.66Q58.54 84.50 57.00 86.15L57.13 86.29L57.01 86.16Q55.07 88.11 51.70 88.45L51.63 88.37L51.68 88.43Q50.14 88.42 49.11 88.31L49.13 88.33L49.11 88.31Q47.92 88.20 46.77 87.69L46.70 87.61L46.78 87.41L46.62 87.60L46.49 87.46Q45.33 86.76 44.53 84.76L44.53 84.76L44.62 84.85Q42.50 86.84 39.99 90.04L40.02 90.07L39.99 90.04Q40.60 91.17 41.86 92.60L41.67 92.40L41.69 92.43Q43.43 95.30 47.65 96.05L47.67 96.07L47.52 95.92Q49.29 96.26 57.34 96.43Z"/><path d="M19 63 C185 31,189 130,334 37" stroke="#bfeb92" fill="none"/><path fill="#b941e1" d="M278.94 76.25L278.91 76.22L279.03 76.35Q276.09 76.21 274.26 78.20L274.37 78.31L274.41 78.36Q272.41 80.18 272.18 83.03L272.22 83.08L272.38 83.23Q272.02 86.36 273.85 87.87L273.88 87.90L273.81 87.83Q275.71 89.42 278.91 89.30L278.93 89.32L278.92 89.31Q282.25 88.93 283.68 87.50L283.80 87.62L283.86 87.69Q285.24 85.35 285.07 82.61L285.11 82.65L285.06 82.61Q284.96 79.87 283.33 78.07L283.30 78.05L283.39 78.13Q281.68 76.25 278.94 76.25ZM278.95 62.16L278.90 62.11L278.91 62.13Q276.84 61.99 274.84 62.73L274.75 62.64L274.73 62.62Q272.92 63.95 273.26 66.75L273.20 66.69L273.21 66.70Q274.03 72.38 279.06 72.38L278.93 72.25L279.00 72.32Q281.40 72.66 282.88 70.95L282.76 70.82L282.84 70.90Q284.37 69.23 284.42 66.89L284.24 66.70L284.34 66.81Q284.53 64.26 283.45 63.35L283.33 63.23L283.45 63.35Q280.91 62.07 278.97 62.18ZM278.55 92.99L278.42 92.87L273.84 92.86L273.94 92.96Q271.67 92.97 269.68 91.66L269.68 91.67L269.68 91.66Q267.65 89.97 267.87 85.69L267.78 85.59L267.89 85.71Q268.50 75.36 273.93 73.87L273.98 73.92L273.96 73.90Q270.51 72.51 268.51 64.46L268.53 64.47L268.59 64.53Q268.01 62.35 268.12 61.15L268.02 61.06L268.09 61.12Q268.54 57.92 274.08 57.86L274.20 57.98L274.11 57.89Q280.47 57.80 282.64 58.09L282.58 58.03L282.72 58.17Q288.41 58.89 289.10 61.92L289.10 61.92L289.00 61.82Q289.21 62.77 289.21 63.34L289.18 63.32L289.15 63.28Q289.33 64.49 289.05 65.41L289.03 65.39L288.96 65.32Q287.99 71.61 283.60 73.89L283.69 73.99L283.58 73.87Q288.96 75.20 289.70 83.14L289.72 83.16L289.72 83.16Q289.55 83.21 289.61 85.15L289.78 85.32L289.65 85.20Q289.80 89.34 287.40 90.94L287.41 90.96L287.48 91.02Q285.38 92.29 278.53 92.97ZM281.85 96.35L281.96 96.47L286.98 96.58L286.89 96.48Q289.59 96.73 291.87 95.64L291.90 95.67L291.79 95.56Q293.46 94.43 293.57 91.63L293.66 91.72L293.67 91.73Q293.66 90.01 293.09 87.10L293.10 87.10L293.22 87.22Q291.81 80.21 288.67 77.42L288.59 77.34L288.40 76.86L288.00 76.35L287.84 76.02L287.88 76.06Q290.20 73.86 291.57 67.64L291.55 67.62L291.64 67.71Q291.74 67.24 291.85 65.99L291.84 65.97L291.71 65.84Q291.78 64.77 291.66 63.85L291.66 63.85L291.84 64.03Q291.61 61.86 289.84 61.12L289.85 61.13L289.82 61.04L289.43 60.76L289.47 60.80Q289.22 59.87 287.45 58.67L287.26 58.48L287.40 58.56L287.42 58.58Q284.38 57.48 278.27 57.19L278.32 57.25L278.42 57.35Q276.07 57.17 274.01 57.34L274.02 57.35L273.86 57.18Q272.71 57.29 270.76 57.52L270.85 57.61L270.81 57.56Q267.85 58.08 267.51 60.54L267.48 60.51L267.46 60.49Q267.48 61.31 267.53 62.51L267.50 62.47L267.54 62.52Q267.70 63.30 268.55 66.84L268.56 66.85L268.52 66.81Q269.73 71.68 272.36 73.67L272.48 73.79L272.51 73.82L272.42 73.74Q268.35 75.78 267.55 83.54L267.61 83.60L267.47 83.46Q267.34 86.93 267.34 88.30L267.31 88.27L267.21 88.17Q267.41 90.94 269.18 92.31L269.08 92.21L269.14 92.27Q269.41 92.48 269.81 92.77L269.62 92.58L269.68 92.63Q271.29 96.13 281.97 96.47ZM281.33 79.73L281.40 79.81L281.51 79.91Q282.83 79.75 284.15 80.43L284.08 80.37L284.06 80.35Q284.75 81.95 284.70 82.75L284.66 82.72L284.52 82.58Q284.73 83.19 284.73 83.65L284.58 83.50L284.67 83.59Q284.63 87.09 281.20 88.34L281.29 88.43L281.15 88.29Q280.06 88.85 278.86 88.68L278.82 88.64L278.87 88.69Q277.21 88.86 275.50 88.18L275.45 88.13L275.51 88.19Q274.98 87.09 275.10 85.61L275.29 85.80L275.18 85.69Q275.49 83.37 277.29 81.55L277.16 81.42L277.29 81.55Q279.07 79.70 281.47 79.87ZM281.74 65.58L281.78 65.62L281.69 65.53Q283.02 65.49 283.82 65.72L283.75 65.65L283.81 66.91L283.72 66.82Q283.74 68.95 282.37 70.46L282.39 70.49L282.46 70.55Q281.06 72.03 279.00 71.75L279.00 71.75L278.92 71.66Q277.46 71.69 276.83 71.35L276.78 71.30L276.76 71.28Q276.77 70.95 276.60 69.92L276.61 69.93L276.60 69.92Q276.17 67.78 278.00 66.52L278.11 66.63L278.11 66.63Q279.68 65.57 281.79 65.63Z"/><path d="M14 86 C162 103,182 117,338 25" stroke="#e83561" fill="none"/><path fill="#72dede" d="M222.46 62.03L222.30 61.86L220.10 62.18L220.12 62.20Q216.60 62.22 216.26 65.25L216.27 65.25L216.27 65.25Q216.23 66.42 216.29 67.90L216.29 67.90L216.21 67.82Q216.33 70.80 218.21 72.80L218.26 72.84L218.19 72.78Q220.13 74.83 222.99 74.60L222.91 74.53L222.98 74.59Q226.00 74.30 227.14 72.93L227.21 73.00L227.21 73.00Q228.70 71.52 229.10 68.15L229.13 68.18L229.28 68.33Q229.51 64.79 227.63 63.54L227.79 63.70L227.63 63.54Q226.48 62.50 222.48 62.04ZM231.47 75.83L231.54 75.90L229.44 79.17L229.59 79.32Q225.47 86.45 219.82 92.56L219.82 92.57L219.87 92.61Q217.27 92.69 213.21 93.89L213.35 94.03L213.25 93.93Q221.29 84.56 226.03 77.36L226.05 77.37L226.13 77.46Q224.44 78.28 221.98 78.39L221.99 78.40L222.12 78.53Q217.57 78.72 215.29 75.75L215.34 75.80L215.17 75.64Q213.50 73.39 211.84 66.54L211.66 66.36L211.77 66.46Q211.75 65.76 211.52 64.36L211.51 64.35L211.49 64.33Q211.37 63.04 211.37 62.36L211.23 62.21L211.22 62.21Q211.34 59.64 212.94 58.73L213.00 58.78L212.95 58.74Q214.74 57.56 217.54 57.56L217.60 57.62L217.59 57.61Q222.42 57.64 222.42 57.64L222.40 57.62L222.34 57.56Q225.64 57.66 227.52 57.95L227.38 57.81L227.51 57.94Q230.62 58.25 231.99 58.99L232.04 59.04L232.10 59.10Q234.01 60.10 234.29 62.72L234.30 62.73L234.28 62.71Q234.28 63.05 233.99 67.05L234.05 67.10L234.05 67.11Q233.47 70.29 233.12 71.55L233.25 71.67L233.12 71.54Q232.59 73.69 231.45 75.81ZM234.23 79.34L234.30 79.41L234.36 79.46Q235.82 76.13 236.62 69.68L236.59 69.65L236.60 69.65Q237.01 66.35 236.95 65.04L236.94 65.03L236.99 65.08Q236.95 62.30 235.18 60.92L235.18 60.92L234.65 60.68L234.63 60.66Q234.36 59.65 232.99 58.68L232.81 58.49L232.90 58.59Q229.53 57.16 222.34 56.93L222.19 56.79L222.35 56.95Q220.85 56.87 217.19 56.87L217.22 56.90L217.10 56.78Q214.55 56.86 212.32 57.88L212.26 57.82L212.40 57.96Q210.53 59.00 210.65 61.75L210.64 61.74L210.70 61.80Q211.09 63.27 211.38 66.30L211.31 66.24L211.33 66.25Q212.24 70.19 212.64 71.45L212.66 71.47L212.63 71.44Q213.52 74.27 214.95 76.21L214.93 76.19L214.99 76.25Q215.37 76.74 215.94 77.32L215.92 77.30L215.92 77.29Q216.26 77.93 217.23 79.30L217.22 79.29L217.27 79.33Q219.43 81.33 222.35 81.61L222.43 81.70L222.44 81.70Q219.58 85.69 217.23 88.55L217.12 88.44L211.75 95.06L211.70 95.00Q215.15 93.95 217.61 93.43L217.49 93.32L217.64 93.47Q216.53 94.81 214.19 97.38L214.14 97.33L214.13 97.32Q218.69 95.89 223.38 95.83L223.39 95.85L223.32 95.77Q226.85 91.94 233.36 81.09L233.36 81.09L233.33 81.17L233.49 81.33Q233.84 80.20 234.35 79.46ZM225.23 65.48L225.24 65.49L225.26 65.51Q226.30 65.47 226.99 65.64L226.96 65.61L226.98 65.63Q227.89 65.74 228.46 65.91L228.37 65.82L228.47 65.93Q228.68 66.53 228.79 67.16L228.72 67.08L228.74 67.10Q228.89 67.77 228.72 68.34L228.63 68.25L228.65 68.27Q228.69 70.94 226.92 72.59L226.90 72.57L226.74 72.41Q225.34 73.99 222.89 73.93L222.96 74.00L223.01 74.05Q222.36 74.03 220.07 73.57L220.01 73.51L220.13 73.63Q219.61 72.14 219.61 71.06L219.77 71.21L219.73 71.18Q219.64 70.80 219.64 70.46L219.66 70.47L219.66 70.47Q219.54 67.04 222.96 65.84L222.99 65.87L223.10 65.98Q223.95 65.45 225.20 65.45Z"/><path d="M4 17 C182 85,177 89,327 32" stroke="#e97b7b" fill="none"/><path d="M18 89 C156 69,151 123,334 90" stroke="#e9e952" fill="none"/><path d="M11 136 C170 24,165 23,323 93" stroke="#50e199" fill="none"/><path d="M11 52 C173 93,172 15,340 136" stroke="#72c7e3" fill="none"/><path d="M6 28 C156 3,169 131,338 127" stroke="#589ee3" fill="none"/><path d="M20 42 C166 19,177 120,337 25" stroke="#46d6b2" fill="none"/><path d="M14 43 C172 80,160 34,324 94" stroke="#5656e5" fill="none"/><path d="M6 56 C191 68,156 99,338 130" stroke="#88bcf1" fill="none"/><path d="M11 37 C190 95,169 95,340 114" stroke="#9b56e0" fill="none"/><path fill="#edb781" d="M177.43 89.28L177.48 89.33L177.42 89.27Q177.97 90.85 178.77 93.87L178.84 93.94L178.78 93.88Q172.52 91.96 165.61 92.36L165.57 92.33L165.46 92.21Q158.58 92.59 152.58 95.55L152.71 95.68L152.75 95.72Q152.96 94.56 153.01 94.67L153.12 94.78L153.07 94.73Q158.57 88.69 164.45 82.07L164.61 82.22L164.49 82.11Q171.11 74.62 172.88 67.60L172.84 67.56L172.97 67.68Q173.73 65.13 171.81 63.36L171.80 63.35L171.67 63.22Q169.70 61.39 167.02 61.62L167.15 61.76L167.16 61.77Q166.58 61.64 166.07 61.64L166.04 61.61L166.01 61.59Q163.87 61.73 161.98 63.10L161.89 63.00L161.84 62.95Q160.02 65.13 160.36 69.13L160.41 69.18L160.31 69.08Q157.59 68.53 155.77 67.84L155.77 67.85L155.74 67.82Q155.58 65.83 155.46 63.66L155.48 63.68L155.41 63.61Q155.25 61.10 156.16 59.39L156.17 59.40L156.29 59.51Q158.80 57.29 163.83 57.29L163.85 57.32L166.63 57.46L166.48 57.32Q170.04 57.51 171.47 57.68L171.38 57.58L171.47 57.68Q177.97 58.30 178.37 61.95L178.28 61.87L178.24 61.83Q178.33 62.65 178.21 63.85L178.41 64.05L178.38 64.02Q178.26 64.92 178.03 65.95L178.06 65.98L177.99 65.91Q175.59 78.13 164.22 88.41L164.23 88.42L164.22 88.40Q166.23 88.07 168.29 88.07L168.32 88.11L168.36 88.14Q173.20 88.14 177.49 89.34ZM176.61 58.08L176.56 58.03L176.71 58.18Q174.31 57.20 171.74 57.09L171.71 57.06L166.49 56.69L166.59 56.80Q159.86 56.35 156.55 58.00L156.65 58.10L156.60 58.05Q155.00 60.12 155.00 63.20L154.94 63.14L154.90 63.10Q155.05 64.28 155.51 68.50L155.56 68.55L155.47 68.46Q156.22 68.75 157.99 69.21L157.97 69.19L157.95 70.72L158.12 70.88Q158.05 71.55 158.16 72.35L158.11 72.30L158.12 72.31Q160.03 72.50 163.74 72.85L163.70 72.81L163.71 72.82Q163.60 72.20 163.60 71.68L163.57 71.65L163.54 71.62Q163.59 68.93 165.42 66.90L165.46 66.94L165.51 67.00Q167.38 65.01 170.07 65.18L169.99 65.11L170.07 65.19Q171.09 65.12 172.23 65.35L172.32 65.44L172.26 65.38Q172.43 65.95 172.55 66.58L172.59 66.62L172.51 66.54Q172.56 67.16 172.44 67.68L172.51 67.74L172.43 67.67Q170.60 74.86 163.98 82.11L163.97 82.11L164.00 82.13Q160.69 85.39 152.52 94.46L152.53 94.47L152.60 94.54Q152.30 95.79 151.79 96.65L151.84 96.70L151.80 96.65Q154.24 95.39 156.53 94.59L156.58 94.64L156.50 94.56Q155.39 95.39 153.96 97.62L153.89 97.55L154.05 97.71Q153.82 98.16 153.65 98.67L153.55 98.58L153.71 98.74Q161.03 95.66 169.25 95.95L169.16 95.86L169.16 95.85Q177.74 96.15 184.59 99.69L184.60 99.70L182.98 96.37L183.12 96.51Q182.12 94.48 181.72 93.28L181.67 93.24L181.73 93.29Q180.62 92.64 178.79 92.01L178.70 91.92L178.72 91.94Q178.54 90.90 177.97 88.85L177.91 88.79L177.96 88.84Q174.56 87.89 171.13 87.60L171.15 87.63L171.32 87.80Q178.19 80.79 180.47 68.40L180.62 68.54L180.83 64.13L180.83 64.12Q180.65 61.38 178.82 60.35L178.83 60.36L178.89 60.47L178.86 60.44Q178.73 60.25 178.61 60.25L178.59 60.23L178.74 60.38Q178.35 59.07 176.69 58.16Z"/><path d="M9 3 C180 9,160 139,337 56" stroke="#df9e5d" fill="none"/><path d="M8 23 C160 44,176 128,335 11" stroke="#a568e3" fill="none"/><path d="M7 95 C177 70,171 23,324 138" stroke="#38e563" fill="none"/><path d="M10 48 C154 129,180 121,322 66" stroke="#4ce071" fill="none"/><path d="M3 64 C150 30,179 122,337 79" stroke="#df9b57" fill="none"/><path d="M10 14 C163 70,160 89,328 59" stroke="#7fe0c8" fill="none"/><path d="M8 34 C176 105,167 6,336 6" stroke="#e78282" fill="none"/><path d="M9 64 C165 66,180 25,336 30" stroke="#41b5dc" fill="none"/></svg>