<svg xmlns="http://www.w3.org/2000/svg" width="342" height="140" viewBox="0,0,342,140"><path d="M17 1 C164 24,176 38,330 106" stroke="#e7e791" fill="none"/><path fill="#4296ea" d="M127.99 91.90L127.99 91.90L128.00 91.91Q122.27 92.33 120.86 89.01L120.90 89.05L120.73 88.88Q121.99 87.70 124.22 85.14L124.07 84.99L124.13 85.05Q124.82 87.92 129.12 88.08L129.12 88.08L129.19 88.16Q134.06 88.29 136.40 86.39L136.34 86.33L136.32 86.31Q138.35 84.04 138.24 80.18L138.24 80.18L138.22 80.16Q137.98 72.91 131.13 73.24L131.09 73.19L131.14 73.24Q127.20 73.55 124.70 75.34L124.57 75.22L124.16 75.02L123.81 74.78L123.86 74.83Q124.32 70.28 124.15 66.36L124.20 66.41L124.11 66.32Q124.09 62.72 123.60 57.99L123.49 57.87L123.49 57.87Q128.86 59.38 134.30 59.22L134.18 59.10L134.17 59.09Q139.55 58.92 144.66 57.12L144.77 57.23L143.89 59.35L143.88 59.34Q143.56 60.54 143.29 61.73L143.20 61.65L143.29 61.73Q138.77 63.14 133.22 63.14L133.29 63.21L133.29 63.22Q131.08 63.07 128.96 62.85L128.94 62.83L128.95 62.84Q128.83 63.81 128.35 70.18L128.42 70.25L128.43 70.26Q129.58 69.57 132.52 69.35L132.56 69.39L132.58 69.41Q137.96 69.79 140.03 72.18L140.02 72.17L139.95 72.10Q142.03 74.40 142.41 79.89L142.37 79.85L142.34 79.82Q142.78 85.86 141.04 88.74L140.86 88.57L140.91 88.61Q138.01 91.32 133.28 91.64L133.41 91.78L133.38 91.75Q131.88 91.76 128.07 91.98ZM136.69 95.21L136.70 95.23L136.67 95.20Q141.65 95.39 144.36 93.81L144.38 93.83L144.41 93.85Q145.79 91.65 145.79 88.65L145.76 88.63L145.70 88.56Q145.70 84.15 144.34 78.28L144.42 78.37L144.32 78.26Q143.74 75.72 142.00 73.71L142.17 73.89L142.18 73.95L141.78 73.44L141.26 73.14L141.37 73.24Q140.90 72.18 139.98 71.21L140.04 71.27L140.06 71.34L140.01 71.29Q137.89 68.95 132.61 68.95L132.60 68.94L132.08 68.80L132.08 68.80Q132.30 68.10 132.57 66.52L132.49 66.43L132.61 66.55Q139.57 66.55 145.33 64.21L145.33 64.21L145.34 64.22Q145.97 62.25 147.33 58.22L147.29 58.17L144.42 59.65L144.28 59.51Q144.96 58.02 145.67 56.39L145.53 56.26L145.64 56.36Q140.10 58.38 134.22 58.49L134.27 58.54L134.32 58.59Q128.33 58.63 122.67 57.05L122.80 57.19L122.67 57.05Q123.64 63.35 123.64 69.66L123.64 69.66L123.64 69.66Q123.67 72.40 123.50 75.12L123.50 75.12L123.56 75.18Q124.00 75.51 124.82 75.95L124.84 75.97L124.76 75.89Q125.24 75.56 126.17 75.07L126.18 75.08L126.17 75.07Q126.08 76.12 125.75 78.30L125.74 78.28L125.78 78.33Q126.40 78.62 127.00 78.95L126.88 78.83L126.90 78.85Q130.86 76.34 133.53 76.34L133.67 76.48L133.65 76.46Q135.52 76.43 137.21 77.35L137.16 77.30L137.10 77.25Q137.63 78.75 137.68 80.11L137.66 80.09L137.78 80.21Q137.90 83.92 136.43 85.50L136.45 85.51L136.44 85.50Q134.38 87.14 131.17 87.47L131.13 87.43L131.27 87.57Q129.91 87.68 128.93 87.57L128.89 87.52L128.89 87.53Q127.58 87.25 126.49 86.76L126.50 86.77L126.45 86.45L126.36 86.68L126.33 86.65Q125.31 86.07 124.55 84.17L124.55 84.17L124.45 84.07Q122.52 86.05 120.13 89.10L120.10 89.07L120.08 89.05Q120.63 90.09 121.83 91.45L121.71 91.33L121.78 91.40Q123.25 93.96 127.28 94.67L127.30 94.69L127.29 94.69Q129.07 95.10 136.73 95.26Z"/><path d="M4 19 C185 131,170 59,337 8" stroke="#dc4141" fill="none"/><path d="M9 90 C180 15,164 90,336 66" stroke="#61dfc0" fill="none"/><path d="M17 43 C152 7,164 80,322 87" stroke="#e7e792" fill="none"/><path d="M7 26 C187 80,161 84,330 30" stroke="#bee254" fill="none"/><path d="M20 37 C162 111,158 18,326 2" stroke="#9b57df" fill="none"/><path d="M13 81 C174 94,178 64,326 4" stroke="#3c3ce0" fill="none"/><path d="M17 94 C157 21,154 90,323 20" stroke="#e381e3" fill="none"/><path fill="#edb57c" d="M268.64 67.64L268.74 67.75L268.81 67.81Q264.05 67.63 261.44 66.10L261.44 66.10L261.60 66.26Q265.15 64.27 272.12 58.23L272.15 58.27L272.07 58.19Q273.14 57.95 274.99 57.08L274.92 57.02L274.91 57.00Q272.99 65.47 272.83 74.56L272.85 74.57L272.95 74.68Q272.69 83.66 274.21 92.36L274.31 92.46L274.27 92.42Q271.95 91.46 268.90 91.30L268.80 91.19L268.90 91.29Q268.67 85.30 268.67 79.48L268.71 79.52L268.71 79.51Q268.75 73.68 268.80 67.81ZM268.17 70.93L268.14 91.72L268.22 91.81Q269.87 91.71 271.22 91.98L271.26 92.02L271.36 92.12Q271.40 93.03 271.67 94.99L271.64 94.95L271.74 95.06Q275.80 95.80 279.28 99.01L279.24 98.97L279.14 98.87Q275.59 88.68 275.54 78.02L275.61 78.10L275.71 78.19Q275.60 67.53 278.21 57.20L278.09 57.08L278.07 57.06Q277.28 57.63 275.00 59.21L275.07 59.28L275.17 59.38Q275.37 58.23 275.81 56.05L275.86 56.10L275.84 56.09Q273.97 57.21 271.91 57.75L271.86 57.71L271.78 57.62Q266.49 62.83 260.34 66.09L260.23 65.98L260.24 65.99Q262.29 67.61 265.66 68.10L265.56 68.00L265.68 68.11Q264.68 68.80 262.83 70.32L262.98 70.47L262.94 70.43Q264.91 70.83 268.07 70.83L268.17 70.92Z"/><path fill="#ccea70" d="M196.05 91.96L195.96 91.87L195.97 91.88Q190.27 92.33 188.86 89.01L188.74 88.89L188.79 88.94Q189.84 87.55 192.07 84.99L192.07 84.99L192.08 85.01Q192.87 87.97 197.17 88.13L197.14 88.10L197.05 88.01Q202.08 88.31 204.42 86.40L204.23 86.22L204.27 86.26Q206.32 84.01 206.21 80.15L206.29 80.23L206.15 80.09Q205.92 72.84 199.07 73.17L199.21 73.31L199.22 73.33Q195.07 73.42 192.57 75.21L192.58 75.22L192.11 74.96L191.86 74.83L191.97 74.94Q192.27 70.23 192.10 66.32L192.16 66.37L192.22 66.43Q192.06 62.68 191.57 57.95L191.45 57.83L191.55 57.93Q196.75 59.27 202.19 59.11L202.30 59.22L202.27 59.19Q207.72 59.09 212.84 57.30L212.82 57.29L211.85 59.30L211.95 59.40Q211.57 60.54 211.29 61.74L211.15 61.60L211.21 61.65Q206.75 63.12 201.20 63.12L201.29 63.21L201.30 63.22Q199.11 63.10 196.99 62.88L197.11 63.00L197.05 62.94Q197.02 64.00 196.53 70.36L196.45 70.28L196.47 70.30Q197.66 69.64 200.60 69.43L200.49 69.32L200.60 69.42Q205.90 69.72 207.97 72.12L207.93 72.09L207.98 72.13Q209.87 74.24 210.25 79.73L210.34 79.82L210.31 79.79Q210.71 85.79 208.97 88.68L208.98 88.68L209.02 88.72Q206.03 91.34 201.30 91.67L201.25 91.62L201.31 91.68Q199.89 91.77 196.08 91.99ZM204.65 95.18L204.67 95.19L204.67 95.20Q209.70 95.44 212.42 93.87L212.33 93.78L212.30 93.75Q213.72 91.58 213.72 88.59L213.78 88.64L213.69 88.56Q213.73 84.19 212.37 78.32L212.42 78.36L212.34 78.29Q211.92 75.91 210.18 73.89L210.13 73.84L210.23 74.00L209.91 73.57L209.24 73.12L209.27 73.15Q208.81 72.10 207.89 71.12L207.93 71.16L207.93 71.22L208.04 71.32Q205.89 68.95 200.61 68.95L200.58 68.92L200.17 68.89L200.13 68.85Q200.16 67.96 200.43 66.38L200.44 66.39L200.53 66.47Q207.73 66.71 213.49 64.37L213.44 64.32L213.33 64.21Q214.09 62.36 215.45 58.34L215.45 58.34L212.47 59.70L212.47 59.71Q212.85 57.91 213.55 56.28L213.58 56.30L213.69 56.41Q208.16 58.44 202.29 58.55L202.23 58.50L202.36 58.62Q196.38 58.68 190.72 57.10L190.76 57.14L190.68 57.06Q191.66 63.37 191.66 69.68L191.72 69.74L191.62 69.64Q191.79 72.53 191.63 75.25L191.51 75.13L191.51 75.13Q191.84 75.35 192.66 75.79L192.74 75.87L192.68 75.81Q193.22 75.54 194.14 75.05L194.21 75.11L194.10 75.00Q194.09 76.14 193.77 78.31L193.85 78.40L193.78 78.32Q194.31 78.53 194.91 78.86L194.96 78.91L194.89 78.84Q199.01 76.49 201.68 76.49L201.57 76.38L201.68 76.49Q203.58 76.48 205.26 77.41L205.22 77.37L205.21 77.35Q205.77 78.90 205.83 80.26L205.79 80.22L205.81 80.24Q205.89 83.91 204.42 85.49L204.44 85.51L204.33 85.40Q202.50 87.26 199.29 87.58L199.13 87.43L199.17 87.46Q197.84 87.60 196.86 87.49L196.96 87.60L196.78 87.41Q195.58 87.25 194.50 86.76L194.53 86.80L194.60 86.60L194.38 86.71L194.30 86.63Q193.23 85.99 192.47 84.08L192.40 84.01L192.42 84.03Q190.48 86.01 188.09 89.06L188.23 89.20L188.12 89.09Q188.60 90.06 189.80 91.42L189.79 91.41L189.83 91.45Q191.31 94.02 195.33 94.73L195.27 94.66L195.43 94.82Q197.13 95.17 204.80 95.33Z"/><path d="M6 77 C181 17,159 68,339 42" stroke="#e4ce8a" fill="none"/><path d="M13 116 C178 4,178 10,330 102" stroke="#82cee7" fill="none"/><path d="M7 86 C183 17,160 107,337 6" stroke="#de5ede" fill="none"/><path d="M8 116 C176 22,185 64,332 32" stroke="#9e5cdf" fill="none"/><path d="M18 84 C187 117,180 5,337 134" stroke="#5576d7" fill="none"/><path d="M14 24 C162 30,152 105,337 38" stroke="#934bdc" fill="none"/><path d="M6 127 C172 116,157 57,336 122" stroke="#67e467" fill="none"/><path d="M2 117 C187 40,178 121,322 108" stroke="#4a91d8" fill="none"/><path d="M5 112 C167 41,191 52,327 42" stroke="#b5e287" fill="none"/><path d="M13 43 C151 97,164 79,332 97" stroke="#e63b91" fill="none"/><path d="M4 15 C168 121,182 112,323 60" stroke="#5656e5" fill="none"/><path d="M3 11 C163 117,182 21,339 117" stroke="#e46282" fill="none"/><path d="M2 139 C172 57,187 129,335 49" stroke="#d345d3" fill="none"/><path d="M11 124 C160 92,160 32,326 137" stroke="#53e3e3" fill="none"/><path d="M8 138 C185 81,177 6,330 126" stroke="#51db51" fill="none"/><path d="M7 10 C190 96,160 81,339 104" stroke="#52bfe4" fill="none"/><path d="M21 102 C180 112,189 69,327 23" stroke="#84efba" fill="none"/><path d="M18 62 C187 4,161 92,333 30" stroke="#a362e3" fill="none"/><path d="M12 76 C159 128,176 53,324 87" stroke="#87f187" fill="none"/><path d="M16 124 C158 123,182 137,323 111" stroke="#6f6fdc" fill="none"/><path d="M3 89 C151 37,178 10,322 121" stroke="#7be996" fill="none"/><path d="M1 66 C162 137,171 50,341 32" stroke="#dfc166" fill="none"/><path d="M2 112 C187 64,190 88,339 42" stroke="#93ea93" fill="none"/><path d="M6 84 C153 129,176 32,334 2" stroke="#48d5d5" fill="none"/><path d="M16 7 C167 19,184 98,324 136" stroke="#7cb5ed" fill="none"/><path d="M3 46 C169 112,178 113,328 73" stroke="#6eeccc" fill="none"/><path d="M12 106 C165 30,188 6,333 59" stroke="#7ec8e1" fill="none"/><path d="M6 64 C175 84,172 3,338 62" stroke="#8dec6e" fill="none"/><path d="M9 87 C188 119,160 71,334 56" stroke="#4de94d" fill="none"/><path fill="#d65656" d="M60.08 91.99L60.13 92.04L60.05 91.96Q54.23 92.29 52.82 88.97L52.84 89.00L52.86 89.01Q53.84 87.55 56.07 84.99L56.09 85.01L56.07 84.99Q56.78 87.87 61.07 88.04L61.10 88.07L61.15 88.11Q65.94 88.17 68.28 86.27L68.33 86.32L68.25 86.24Q70.39 84.08 70.28 80.22L70.29 80.24L70.28 80.22Q70.00 72.92 63.14 73.25L63.17 73.28L63.10 73.20Q59.06 73.40 56.55 75.20L56.66 75.30L56.15 75.00L55.91 74.88L55.82 74.79Q56.29 70.26 56.13 66.34L56.16 66.38L56.15 66.36Q55.94 62.56 55.45 57.83L55.58 57.96L55.59 57.97Q60.78 59.30 66.22 59.14L66.23 59.14L66.14 59.06Q71.64 59.01 76.75 57.21L76.84 57.30L75.86 59.32L75.90 59.35Q75.49 60.47 75.22 61.66L75.24 61.68L75.24 61.69Q70.85 63.22 65.30 63.22L65.26 63.18L65.26 63.18Q63.09 63.08 60.97 62.86L61.12 63.01L61.02 62.91Q60.93 63.91 60.44 70.27L60.39 70.23L60.44 70.27Q61.73 69.72 64.67 69.50L64.58 69.41L64.54 69.37Q69.97 69.79 72.03 72.19L71.98 72.13L71.93 72.08Q73.97 74.33 74.35 79.83L74.22 79.70L74.29 79.77Q74.69 85.77 72.95 88.65L72.99 88.70L72.89 88.60Q70.09 91.40 65.36 91.73L65.38 91.75L65.32 91.69Q63.91 91.79 60.10 92.01ZM68.63 95.16L68.73 95.26L68.69 95.22Q73.67 95.42 76.39 93.84L76.33 93.78L76.41 93.86Q77.75 91.60 77.75 88.61L77.66 88.52L77.66 88.53Q77.82 84.28 76.46 78.40L76.30 78.25L76.47 78.41Q75.74 75.73 74.00 73.72L74.00 73.72L74.14 73.91L73.83 73.49L73.39 73.27L73.41 73.29Q72.80 72.08 71.87 71.10L71.91 71.13L72.04 71.32L71.99 71.27Q69.86 68.93 64.59 68.93L64.50 68.84L64.10 68.82L64.22 68.94Q64.31 68.11 64.59 66.53L64.60 66.54L64.54 66.48Q71.60 66.58 77.36 64.25L77.45 64.33L77.36 64.24Q77.95 62.22 79.31 58.20L79.32 58.21L76.39 59.62L76.31 59.55Q77.00 58.06 77.71 56.43L77.60 56.32L77.64 56.36Q72.21 58.50 66.34 58.61L66.16 58.43L66.20 58.47Q60.39 58.69 54.73 57.11L54.68 57.06L54.68 57.06Q55.62 63.33 55.62 69.64L55.64 69.65L55.63 69.65Q55.77 72.51 55.61 75.23L55.59 75.21L55.56 75.18Q55.88 75.39 56.70 75.83L56.69 75.82L56.65 75.78Q57.19 75.50 58.11 75.01L58.14 75.04L58.07 74.97Q58.03 76.08 57.71 78.25L57.84 78.39L57.75 78.30Q58.40 78.62 59.00 78.95L59.04 78.99L58.96 78.91Q62.93 76.40 65.59 76.40L65.58 76.39L65.68 76.49Q67.45 76.36 69.14 77.28L69.29 77.44L69.17 77.32Q69.74 78.86 69.79 80.22L69.68 80.11L69.75 80.18Q69.94 83.96 68.48 85.54L68.39 85.46L68.41 85.47Q66.50 87.26 63.29 87.59L63.22 87.52L63.31 87.61Q61.95 87.72 60.97 87.61L60.82 87.46L60.82 87.45Q59.62 87.28 58.53 86.80L58.69 86.96L58.48 86.48L58.31 86.64L58.42 86.75Q57.17 85.92 56.41 84.02L56.42 84.04L56.41 84.03Q54.54 86.07 52.15 89.12L52.11 89.08L52.23 89.20Q52.67 90.13 53.86 91.49L53.85 91.47L53.85 91.48Q55.41 94.12 59.44 94.83L59.43 94.83L59.35 94.75Q60.94 94.97 68.61 95.13Z"/><path d="M8 31 C166 15,192 56,332 57" stroke="#e74ae7" fill="none"/><path d="M15 85 C173 112,157 36,339 103" stroke="#744cea" fill="none"/><path d="M13 137 C173 79,180 12,334 27" stroke="#87e967" fill="none"/></svg>