<svg xmlns="http://www.w3.org/2000/svg" width="342" height="140" viewBox="0,0,342,140"><path d="M4 71 C191 73,183 18,330 53" stroke="#d583f0" fill="none"/><path fill="#92ea75" d="M171.63 73.92L171.74 74.03L171.66 73.95Q173.12 73.96 175.69 73.68L175.69 73.68L175.69 73.68Q175.69 74.93 175.69 76.11L175.60 76.02L175.64 78.35L175.54 78.25Q174.06 78.29 172.53 78.43L172.58 78.47L172.67 78.56Q171.03 78.51 169.50 78.44L169.59 78.54L169.48 78.43Q164.22 89.60 157.98 97.99L158.00 98.01L158.02 98.03Q153.54 99.31 151.19 100.42L151.13 100.36L151.22 100.45Q158.55 89.90 164.10 78.45L164.23 78.58L159.35 78.49L159.30 78.44Q159.39 76.11 159.19 73.68L159.26 73.76L159.28 73.77Q162.57 73.87 166.31 73.87L166.36 73.92L169.84 67.21L169.79 67.16Q171.58 63.68 173.80 60.77L173.93 60.89L173.89 60.86Q171.05 61.13 168.14 61.13L168.18 61.18L168.15 61.15Q157.05 61.14 150.19 57.12L150.25 57.18L148.93 53.92L148.96 53.96Q148.44 52.53 147.74 50.93L147.68 50.87L147.62 50.81Q155.64 55.71 166.04 56.13L165.99 56.08L165.97 56.06Q175.28 56.42 184.64 52.81L184.72 52.89L184.67 52.84Q184.31 53.59 183.41 55.19L183.55 55.33L183.38 55.16Q176.78 63.82 171.58 73.87ZM186.42 57.78L186.28 57.64L188.16 54.04L188.13 54.02Q186.49 55.01 183.44 56.33L183.45 56.34L183.72 55.70L183.82 55.80Q183.88 55.38 184.09 55.18L184.21 55.29L184.18 55.27Q184.88 54.02 186.19 51.59L186.19 51.59L186.06 51.46Q176.43 55.69 165.96 55.28L165.94 55.26L165.94 55.27Q154.95 54.74 146.28 49.34L146.29 49.34L146.39 49.44Q148.32 52.90 149.85 57.75L149.82 57.73L149.68 57.58Q151.78 58.85 153.23 59.40L153.27 59.44L153.32 59.49Q153.47 59.98 154.30 63.38L154.42 63.50L154.26 63.34Q160.09 65.71 170.15 65.43L170.06 65.35L170.12 65.41Q169.64 66.52 166.03 73.38L165.91 73.26L166.03 73.38Q162.19 73.29 158.59 72.94L158.68 73.03L158.62 72.98Q158.82 74.56 158.82 76.15L158.72 76.05L158.70 79.16L161.87 79.27L161.76 81.73L161.84 81.81Q154.77 95.34 149.71 101.85L149.54 101.68L149.65 101.79Q152.57 100.42 155.55 99.52L155.53 99.49L155.47 99.43Q154.19 101.07 151.70 104.19L151.83 104.32L151.81 104.31Q157.57 102.30 162.01 101.88L161.89 101.76L162.00 101.87Q167.36 95.03 173.05 82.68L173.05 82.69L179.22 82.96L179.29 83.03Q179.06 81.27 179.06 79.61L178.99 79.54L179.10 76.40L179.10 76.39Q178.53 76.31 177.53 76.38L177.64 76.49L177.55 76.41Q176.57 76.50 176.09 76.50L176.12 76.54L176.03 76.45Q176.13 76.34 176.20 76.06L176.19 76.06L176.08 75.45L176.25 75.62Q180.74 66.17 186.35 57.71Z"/><path fill="#82e8ce" d="M103.23 98.04L103.22 98.03L103.18 97.98Q95.81 98.45 94.01 94.22L94.03 94.25L94.06 94.28Q95.32 92.41 98.16 89.15L98.22 89.21L98.19 89.18Q99.10 92.87 104.58 93.08L104.63 93.12L104.57 93.06Q110.76 93.22 113.74 90.79L113.75 90.81L113.70 90.75Q116.33 87.91 116.19 82.99L116.12 82.91L116.17 82.96Q115.82 73.66 107.08 74.08L107.09 74.09L107.09 74.08Q101.94 74.34 98.75 76.63L98.92 76.80L98.25 76.42L97.94 76.24L97.80 76.10Q98.54 70.46 98.33 65.47L98.26 65.40L98.36 65.50Q98.11 60.67 97.49 54.64L97.38 54.53L97.54 54.70Q104.16 56.39 111.10 56.19L110.99 56.07L111.11 56.19Q118.04 56.06 124.56 53.77L124.55 53.76L123.54 56.56L123.54 56.56Q122.83 57.79 122.49 59.32L122.56 59.40L122.58 59.42Q116.87 61.26 109.79 61.26L109.75 61.21L109.86 61.32Q107.06 61.17 104.36 60.89L104.45 60.98L104.47 60.99Q104.22 62.14 103.60 70.25L103.75 70.40L103.60 70.26Q105.16 69.46 108.91 69.18L108.98 69.26L108.88 69.15Q115.67 69.56 118.30 72.61L118.38 72.69L118.36 72.67Q120.96 75.55 121.45 82.55L121.35 82.45L121.43 82.53Q121.86 90.10 119.64 93.78L119.65 93.79L119.70 93.84Q115.97 97.25 109.93 97.66L109.96 97.69L109.92 97.65Q108.07 97.74 103.22 98.02ZM114.25 102.19L114.32 102.26L114.18 102.12Q120.41 102.24 123.87 100.23L124.03 100.39L124.02 100.38Q125.79 97.57 125.79 93.76L125.82 93.79L125.72 93.69Q125.76 88.11 124.02 80.62L124.06 80.66L124.01 80.61Q123.39 77.49 121.17 74.92L121.07 74.83L121.25 75.07L120.76 74.44L120.16 74.12L120.20 74.16Q119.51 72.71 118.33 71.46L118.46 71.59L118.30 71.50L118.43 71.63Q115.55 68.47 108.82 68.47L108.85 68.49L108.34 68.47L108.40 68.53Q108.46 67.41 108.80 65.40L108.93 65.53L108.80 65.40Q117.96 65.68 125.31 62.70L125.35 62.74L125.42 62.81Q126.19 60.25 127.92 55.12L127.89 55.09L124.06 56.81L123.95 56.69Q124.76 54.73 125.66 52.65L125.59 52.58L125.69 52.68Q118.50 55.13 111.01 55.27L111.04 55.29L111.10 55.36Q103.56 55.52 96.35 53.50L96.33 53.48L96.46 53.61Q97.75 61.70 97.75 69.74L97.74 69.73L97.74 69.73Q97.73 73.19 97.52 76.66L97.41 76.54L97.43 76.56Q97.95 76.94 98.99 77.50L99.08 77.59L99.00 77.51Q99.51 76.98 100.69 76.36L100.85 76.52L100.77 76.43Q100.74 77.86 100.33 80.64L100.26 80.57L100.30 80.61Q101.02 80.91 101.78 81.33L101.88 81.43L101.76 81.31Q106.87 78.16 110.26 78.16L110.25 78.15L110.29 78.19Q112.73 78.20 114.88 79.38L114.77 79.27L114.77 79.27Q115.58 81.33 115.65 83.07L115.53 82.94L115.58 82.99Q115.66 87.66 113.79 89.67L113.89 89.76L113.89 89.76Q111.28 91.87 107.19 92.28L107.16 92.25L107.21 92.31Q105.45 92.42 104.21 92.28L104.23 92.31L104.16 92.24Q102.65 92.04 101.26 91.42L101.28 91.44L101.29 91.11L101.10 91.32L101.11 91.34Q99.54 90.32 98.57 87.89L98.69 88.02L98.53 87.86Q96.16 90.48 93.11 94.36L93.13 94.39L93.09 94.35Q93.74 95.61 95.26 97.35L95.29 97.38L95.33 97.42Q97.08 100.55 102.21 101.46L102.33 101.57L102.41 101.65Q104.49 102.00 114.27 102.21Z"/><path fill="#ee76b2" d="M270.83 84.44L270.87 84.48L270.85 84.46Q276.52 83.82 282.35 84.03L282.31 83.99L282.28 83.96Q282.18 79.28 282.18 74.91L282.24 74.98L282.32 75.06Q282.30 70.52 282.64 65.88L282.68 65.91L282.68 65.92Q280.47 69.04 270.97 84.57ZM288.93 97.89L288.93 97.88L289.00 97.96Q285.95 97.41 282.69 97.27L282.61 97.19L282.67 97.24Q282.28 92.90 282.07 88.40L281.95 88.28L282.07 88.39Q272.34 88.02 263.74 90.59L263.81 90.66L263.70 90.55Q263.98 89.72 264.33 87.92L264.31 87.90L264.34 87.93Q267.63 82.20 274.15 70.76L273.98 70.59L274.00 70.62Q279.44 61.91 285.68 54.84L285.54 54.70L285.56 54.72Q287.19 54.40 290.24 53.92L290.19 53.87L290.25 53.93Q286.74 65.61 286.74 78.44L286.74 78.43L286.70 78.39Q286.80 81.20 286.94 83.90L286.91 83.87L289.29 84.11L289.22 84.04Q290.40 84.17 291.51 84.38L291.42 84.29L291.38 84.26Q291.73 86.20 292.22 89.74L292.18 89.70L292.14 89.66Q289.97 89.23 287.27 88.88L287.29 88.90L287.30 88.91Q287.60 92.47 288.85 97.81ZM291.97 83.66L291.91 83.60L291.98 83.67Q291.71 83.61 291.36 83.61L291.34 83.59L290.52 83.47L290.52 83.46Q290.33 80.77 290.33 78.21L290.34 78.22L290.31 78.19Q290.32 66.55 294.06 55.59L294.17 55.70L294.10 55.63Q292.81 56.22 290.18 56.91L290.01 56.74L290.11 56.84Q290.50 55.43 291.33 52.86L291.33 52.86L291.43 52.96Q289.03 53.61 285.28 54.02L285.33 54.07L285.33 54.07Q278.05 61.84 268.55 78.90L268.51 78.86L272.50 72.37L272.48 72.35Q271.58 74.09 271.09 75.13L271.14 75.18L263.12 91.70L262.97 91.56Q264.26 91.39 266.34 90.70L266.25 90.60L265.97 91.01L266.03 91.08Q265.86 92.36 265.31 94.65L265.27 94.62L265.30 94.64Q272.83 92.26 281.63 92.60L281.59 92.56L281.55 92.52Q281.55 94.18 281.89 97.79L282.05 97.95L282.00 97.89Q283.90 97.85 285.84 98.06L285.85 98.07L285.94 98.15Q286.17 99.36 286.66 101.86L286.59 101.79L286.55 101.75Q290.07 102.21 295.54 103.88L295.58 103.91L295.50 103.84Q293.75 100.01 292.09 94.05L292.16 94.12L294.74 94.90L294.74 94.90Q295.93 95.25 297.18 95.88L297.30 96.00L297.33 96.03Q295.80 91.37 295.52 88.32L295.50 88.31L295.42 88.22Q294.49 88.06 292.41 87.64L292.35 87.58L292.38 87.61Q291.98 85.27 291.98 83.68ZM277.44 83.42L277.46 83.43L277.37 83.35Q278.87 81.10 281.71 76.46L281.55 76.30L281.70 76.45Q281.64 78.12 281.57 79.86L281.52 79.80L281.47 79.75Q281.62 81.70 281.69 83.44L281.59 83.34L281.55 83.30Q280.55 83.27 279.51 83.27L279.59 83.35L279.59 83.35Q278.49 83.36 277.38 83.36Z"/><path d="M12 31 C156 12,171 37,325 74" stroke="#7de2c9" fill="none"/><path d="M8 44 C153 62,190 15,331 82" stroke="#83f1f1" fill="none"/><path d="M12 119 C169 52,170 59,327 106" stroke="#8b8bed" fill="none"/><path d="M17 92 C153 73,153 75,338 29" stroke="#b78ae4" fill="none"/><path d="M3 112 C160 29,157 128,322 78" stroke="#c867e9" fill="none"/><path d="M10 23 C174 29,167 86,322 131" stroke="#76e492" fill="none"/><path d="M6 66 C153 35,176 102,322 49" stroke="#6fe1a8" fill="none"/><path d="M17 84 C180 93,159 24,335 133" stroke="#e655c2" fill="none"/><path d="M5 80 C155 104,155 96,336 31" stroke="#ea7a7a" fill="none"/><path d="M12 14 C180 7,192 76,324 100" stroke="#8b6be9" fill="none"/><path d="M13 59 C154 108,157 132,327 52" stroke="#80cbe4" fill="none"/><path d="M9 58 C176 120,172 102,332 14" stroke="#e85e5e" fill="none"/><path d="M10 110 C173 3,174 81,334 5" stroke="#37e68e" fill="none"/><path d="M17 105 C169 25,184 10,334 110" stroke="#d66641" fill="none"/><path d="M5 134 C188 136,190 122,329 118" stroke="#c0e74a" fill="none"/><path d="M18 118 C158 22,159 54,338 108" stroke="#81eded" fill="none"/><path d="M6 137 C186 28,163 68,333 45" stroke="#ec7d99" fill="none"/><path d="M7 17 C168 54,169 38,333 37" stroke="#bde150" fill="none"/><path d="M17 137 C166 55,191 23,331 60" stroke="#e58ea4" fill="none"/><path d="M20 56 C155 58,154 6,322 93" stroke="#ddb745" fill="none"/><path d="M11 59 C159 134,167 128,331 70" stroke="#e4a86b" fill="none"/><path d="M12 103 C171 29,191 43,339 112" stroke="#e25454" fill="none"/><path d="M10 96 C153 114,171 23,338 127" stroke="#eb849d" fill="none"/><path d="M4 34 C160 14,175 86,327 110" stroke="#bce890" fill="none"/><path d="M12 40 C178 42,152 102,339 83" stroke="#a86fe0" fill="none"/><path d="M13 130 C188 71,158 92,333 119" stroke="#58e8e8" fill="none"/><path d="M18 14 C168 129,184 91,326 84" stroke="#6ce46c" fill="none"/><path d="M11 92 C164 56,172 113,329 20" stroke="#66a8ea" fill="none"/><path d="M14 100 C156 8,189 24,322 70" stroke="#44deb7" fill="none"/><path d="M20 53 C177 17,180 101,334 128" stroke="#e7e78c" fill="none"/><path d="M8 26 C153 89,173 87,323 24" stroke="#60ebeb" fill="none"/><path d="M6 91 C162 51,190 40,328 87" stroke="#dc6060" fill="none"/><path d="M6 8 C189 55,156 49,329 113" stroke="#82cae2" fill="none"/><path d="M12 136 C153 50,161 69,330 97" stroke="#8465e0" fill="none"/><path d="M12 14 C167 58,161 85,323 130" stroke="#e66464" fill="none"/><path d="M14 32 C185 57,172 58,333 124" stroke="#f28cd8" fill="none"/><path d="M18 70 C189 138,188 47,330 120" stroke="#6a89e5" fill="none"/><path d="M16 95 C169 61,160 9,337 40" stroke="#e35d5d" fill="none"/><path d="M1 26 C176 110,169 31,331 98" stroke="#809ae9" fill="none"/><path fill="#64eba8" d="M215.43 98.01L215.38 97.96L215.30 97.88Q212.70 97.98 209.86 97.22L209.96 97.33L210.03 97.39Q207.67 95.59 207.39 92.61L207.38 92.60L207.38 92.60Q207.48 92.42 207.83 87.63L207.77 87.57L207.80 87.61Q209.59 87.18 213.27 86.49L213.36 86.58L212.87 87.82L212.94 87.89Q212.41 91.04 214.98 92.08L215.07 92.17L214.93 92.03Q216.57 92.84 220.38 92.84L220.39 92.84L220.38 92.84Q223.23 92.50 223.58 92.36L223.58 92.36L223.52 92.31Q225.29 92.13 226.61 91.23L226.44 91.06L226.61 91.23Q229.19 89.51 228.84 85.70L228.83 85.69L228.83 85.68Q228.47 81.23 225.32 78.39L225.25 78.33L225.19 78.27Q222.06 75.45 217.55 75.45L217.64 75.53L217.65 75.13L217.53 75.01Q218.21 74.93 219.81 74.79L219.78 74.76L219.96 74.95Q223.43 74.74 225.93 72.49L225.79 72.34L225.93 72.49Q228.43 70.24 228.71 66.84L228.51 66.64L228.66 66.79Q228.75 66.12 228.75 65.49L228.82 65.56L228.83 65.58Q228.73 62.70 226.23 61.03L226.34 61.14L226.19 61.00Q224.03 59.59 221.11 59.80L221.03 59.72L221.22 59.90Q218.84 59.61 216.62 60.37L216.57 60.32L216.51 60.26Q213.97 61.33 213.42 63.41L213.27 63.26L213.28 63.27Q213.06 64.79 213.20 66.17L213.10 66.07L213.19 66.16Q211.22 65.65 207.48 64.33L207.51 64.36L207.51 64.36Q207.04 61.25 207.10 59.73L207.21 59.84L207.11 59.73Q207.40 57.04 209.34 55.79L209.24 55.70L209.39 55.84Q211.91 54.69 214.82 54.69L214.73 54.60L214.86 54.73Q220.63 54.67 226.38 55.15L226.26 55.04L226.25 55.02Q235.48 55.79 234.93 62.66L234.94 62.68L234.98 62.71Q234.87 65.44 233.97 68.29L234.00 68.32L233.93 68.25Q232.26 73.86 227.96 75.52L228.04 75.60L228.01 75.58Q232.87 76.62 233.98 82.72L233.91 82.66L233.95 82.69Q234.33 84.74 234.47 88.41L234.53 88.47L234.38 88.32Q234.75 96.53 226.36 97.36L226.42 97.42L226.39 97.39Q225.09 97.54 215.45 98.03ZM224.95 102.13L224.89 102.07L224.92 102.09Q226.03 102.16 231.23 102.30L231.12 102.19L231.20 102.26Q234.37 102.39 237.35 101.21L237.32 101.18L237.39 101.25Q239.45 99.42 239.10 96.24L239.16 96.29L239.19 96.32Q238.98 93.89 238.43 90.70L238.41 90.69L238.38 90.66Q237.04 82.45 233.50 79.47L233.49 79.46L233.14 78.76L233.05 78.60L233.05 78.60Q236.29 76.02 237.67 68.04L237.69 68.05L237.67 68.04Q237.79 67.25 238.00 65.52L237.89 65.41L237.94 65.46Q238.13 64.13 237.99 62.88L238.06 62.95L237.89 62.78Q237.60 59.71 235.24 58.46L235.38 58.60L235.23 58.59L235.28 58.65Q234.70 56.82 232.62 55.84L232.46 55.69L232.59 55.82Q229.75 54.50 220.39 53.94L220.49 54.05L220.36 53.92Q217.44 53.91 214.53 53.91L214.44 53.82L214.49 53.87Q211.52 53.82 208.75 55.00L208.78 55.03L208.85 55.10Q206.50 56.35 206.50 59.54L206.47 59.51L206.64 59.68Q206.54 58.82 207.03 64.92L206.94 64.84L206.98 64.88Q207.50 64.98 210.49 66.09L210.60 66.21L210.53 66.13Q210.48 67.06 210.41 67.96L210.47 68.02L210.42 67.96Q210.54 68.99 210.61 69.96L210.62 69.97L210.56 69.91Q213.85 70.63 217.52 70.84L217.59 70.91L217.56 70.88Q217.40 67.18 219.41 65.65L219.41 65.66L219.44 65.69Q220.95 64.49 224.62 64.07L224.62 64.07L224.69 64.14Q226.69 64.06 227.73 64.41L227.73 64.41L227.80 64.48Q227.84 64.66 227.91 64.86L227.76 64.72L227.83 65.13L228.15 66.28L228.01 66.14Q228.02 66.50 227.96 66.78L228.07 66.90L227.89 66.71Q227.93 70.02 225.16 72.17L225.08 72.09L225.01 72.02Q223.35 73.68 219.67 74.03L219.83 74.19L219.66 74.02Q218.48 74.44 216.89 74.44L216.82 74.37L216.82 74.36Q216.94 75.04 217.21 76.29L217.19 76.26L217.18 76.25Q220.27 76.16 222.91 77.48L222.90 77.46L222.75 77.52L219.94 77.91L219.95 77.92Q220.06 78.58 220.27 79.69L220.20 79.62L220.29 79.71Q224.11 79.50 227.23 81.93L227.30 82.01L227.27 81.98Q227.59 82.58 228.15 85.56L228.11 85.52L228.23 85.64Q228.63 91.04 223.29 91.80L223.20 91.70L223.12 91.63Q219.46 92.27 218.42 92.20L218.42 92.19L218.28 92.05Q217.42 91.82 216.45 91.68L216.49 91.72L216.55 90.95L216.67 90.03L216.83 89.43L216.81 88.78L216.80 88.77Q215.24 89.09 213.79 89.43L213.75 89.40L213.78 89.43Q213.58 88.88 213.58 88.54L213.65 88.60L213.56 88.51Q213.65 88.19 213.65 87.77L213.61 87.73L213.60 87.72Q213.74 87.03 214.02 85.71L214.01 85.70L213.96 85.65Q210.69 86.20 207.30 86.83L207.31 86.84L207.17 86.70Q207.31 87.74 207.10 89.78L206.99 89.67L207.08 89.77Q206.89 91.82 206.89 92.93L206.79 92.84L206.77 92.82Q207.06 96.71 209.56 98.10L209.44 97.98L209.52 98.06Q212.22 102.22 220.82 101.88L220.77 101.83L220.75 101.81Q222.18 101.85 224.96 102.13Z"/><path fill="#e1e164" d="M46.61 98.08L46.62 98.09L46.45 97.92Q39.19 98.50 37.39 94.27L37.42 94.30L37.25 94.13Q38.81 92.57 41.65 89.31L41.57 89.23L41.54 89.20Q42.54 92.97 48.02 93.18L47.91 93.07L47.92 93.09Q54.19 93.32 57.17 90.89L57.02 90.74L57.12 90.84Q59.63 87.87 59.49 82.95L59.57 83.03L59.43 82.89Q59.18 73.69 50.44 74.10L50.54 74.21L50.42 74.08Q45.43 74.50 42.24 76.79L42.20 76.75L41.58 76.41L41.17 76.14L41.26 76.23Q41.92 70.51 41.71 65.51L41.67 65.47L41.72 65.52Q41.33 60.56 40.71 54.52L40.83 54.65L40.85 54.67Q47.43 56.33 54.37 56.12L54.33 56.08L54.43 56.18Q61.22 55.90 67.74 53.61L67.90 53.78L66.84 56.53L66.87 56.55Q66.18 57.81 65.84 59.34L65.97 59.47L65.89 59.40Q60.18 61.24 53.10 61.24L53.19 61.33L53.23 61.36Q50.58 61.35 47.88 61.07L47.83 61.02L47.74 60.93Q47.74 62.32 47.12 70.44L46.97 70.29L46.97 70.29Q48.52 69.48 52.27 69.21L52.23 69.17L52.31 69.25Q59.06 69.62 61.69 72.67L61.71 72.68L61.71 72.69Q64.32 75.57 64.81 82.58L64.65 82.43L64.71 82.48Q65.17 90.08 62.95 93.76L63.06 93.87L62.93 93.73Q59.36 97.31 53.33 97.73L53.31 97.71L53.33 97.72Q51.32 97.65 46.46 97.93ZM57.66 102.27L57.57 102.18L57.60 102.21Q63.85 102.36 67.32 100.35L67.35 100.38L67.18 100.20Q69.16 97.61 69.16 93.80L69.15 93.79L69.12 93.75Q69.06 88.08 67.33 80.59L67.30 80.57L67.25 80.52Q66.71 77.48 64.49 74.91L64.49 74.91L64.43 74.92L64.08 74.44L63.43 74.06L63.53 74.16Q62.94 72.80 61.76 71.55L61.72 71.52L61.80 71.67L61.66 71.53Q58.89 68.48 52.16 68.48L52.30 68.62L51.69 68.49L51.68 68.48Q51.84 67.47 52.19 65.46L52.15 65.41L52.30 65.56Q61.24 65.63 68.59 62.64L68.63 62.69L68.73 62.79Q69.39 60.12 71.13 54.99L71.08 54.94L67.36 56.77L67.43 56.84Q68.03 54.67 68.93 52.59L68.87 52.52L68.88 52.54Q61.88 55.18 54.39 55.32L54.45 55.38L54.47 55.40Q46.99 55.61 39.78 53.60L39.73 53.55L39.77 53.59Q40.91 61.52 40.91 69.57L41.00 69.66L40.93 69.59Q41.04 73.16 40.83 76.63L40.78 76.58L40.82 76.62Q41.20 76.86 42.24 77.41L42.31 77.48L42.25 77.43Q42.85 76.98 44.03 76.36L44.02 76.36L44.16 76.50Q43.96 77.74 43.54 80.52L43.67 80.65L43.57 80.55Q44.49 81.05 45.25 81.47L45.11 81.33L45.07 81.28Q50.19 78.15 53.58 78.15L53.55 78.11L53.55 78.12Q56.12 78.26 58.27 79.44L58.12 79.29L58.17 79.34Q58.72 81.13 58.79 82.87L58.92 83.00L58.87 82.95Q59.05 87.71 57.18 89.72L57.19 89.73L57.13 89.67Q54.63 91.88 50.54 92.30L50.51 92.27L50.48 92.25Q48.91 92.55 47.67 92.41L47.65 92.39L47.49 92.23Q46.10 92.16 44.71 91.54L44.60 91.43L44.60 91.07L44.32 91.22L44.37 91.27Q43.03 90.48 42.06 88.05L42.05 88.04L42.02 88.01Q39.55 90.53 36.50 94.41L36.54 94.46L36.55 94.47Q37.00 95.54 38.52 97.27L38.60 97.35L38.66 97.41Q40.56 100.70 45.69 101.60L45.66 101.57L45.59 101.50Q47.74 101.91 57.51 102.12Z"/></svg>