<svg xmlns="http://www.w3.org/2000/svg" width="342" height="140" viewBox="0,0,342,140"><path d="M17 108 C151 134,158 19,326 47" stroke="#df947b" fill="none"/><path d="M13 112 C151 37,185 78,325 51" stroke="#da6767" fill="none"/><path d="M8 84 C180 109,166 76,331 71" stroke="#68e386" fill="none"/><path d="M15 93 C180 111,153 35,333 129" stroke="#aaeb6a" fill="none"/><path d="M7 1 C168 34,156 57,332 47" stroke="#afeb74" fill="none"/><path d="M14 139 C182 2,164 71,336 40" stroke="#b27fe5" fill="none"/><path d="M14 133 C188 72,172 8,330 55" stroke="#e2a05e" fill="none"/><path d="M17 100 C155 48,173 107,329 116" stroke="#e55be5" fill="none"/><path d="M6 70 C155 16,180 91,334 1" stroke="#50e69b" fill="none"/><path d="M15 46 C169 42,187 111,326 108" stroke="#dbdb66" fill="none"/><path fill="#8383f1" d="M279.05 75.98L278.97 75.91L278.98 75.91Q276.30 75.71 274.51 77.78L274.56 77.82L274.55 77.82Q272.82 79.94 272.54 82.70L272.47 82.62L272.52 82.68Q272.26 85.72 273.83 87.12L273.82 87.11L273.82 87.11Q275.32 88.45 278.35 88.28L278.35 88.29L278.36 88.29Q281.38 88.06 282.97 87.07L283.06 87.15L283.06 87.16Q284.66 85.51 284.66 83.25L284.70 83.29L284.66 83.25Q284.58 82.61 284.47 82.06L284.48 82.07L284.60 82.19Q284.61 79.68 283.02 77.72L282.98 77.68L283.02 77.72Q281.37 75.72 278.95 75.88ZM278.49 92.11L278.31 91.93L278.31 91.93Q272.13 92.09 270.09 90.98L270.11 91.00L270.02 90.91Q268.53 89.81 268.26 87.33L268.36 87.44L268.18 87.25Q268.16 86.29 268.21 85.25L268.34 85.37L268.20 85.24Q268.41 83.84 268.41 83.18L268.35 83.13L268.35 83.12Q269.13 79.12 269.35 78.12L269.24 78.02L269.25 78.02Q269.99 75.30 271.20 73.26L271.27 73.33L271.23 73.29Q275.03 66.90 283.62 57.71L283.57 57.66L283.54 57.62Q287.50 57.29 290.69 56.13L290.64 56.08L290.70 56.14Q280.68 66.82 276.05 72.93L276.06 72.95L276.08 72.96Q277.61 72.34 279.48 72.34L279.54 72.40L279.54 72.40Q284.17 72.24 286.37 75.05L286.35 75.03L286.48 75.15Q288.38 77.50 288.87 82.62L288.79 82.53L288.81 82.55Q288.88 83.56 288.88 84.44L289.00 84.56L289.01 84.57Q288.90 88.97 285.70 90.51L285.75 90.56L285.81 90.62Q284.04 91.49 278.42 92.04ZM281.62 95.40L281.80 95.59L281.77 95.55Q283.68 95.53 286.54 95.64L286.46 95.57L286.38 95.49Q288.91 95.75 291.16 94.71L291.16 94.70L291.01 94.55Q292.65 93.44 292.65 90.86L292.68 90.89L292.73 90.94Q292.72 90.21 292.48 88.78L292.42 88.73L292.50 88.80Q292.21 87.33 292.21 86.67L292.24 86.70L292.24 86.70Q290.81 79.70 288.50 76.95L288.57 77.03L288.67 77.13Q288.54 76.94 288.32 76.61L288.33 76.62L287.75 76.15L287.78 76.24L287.76 76.22Q287.31 75.55 286.43 74.17L286.39 74.13L286.24 73.98Q285.07 72.76 282.21 72.10L282.25 72.14L282.11 71.99Q284.01 69.82 288.30 64.48L288.28 64.46L294.23 56.64L294.33 56.74Q292.06 57.99 288.59 59.09L288.55 59.05L288.53 59.04Q289.92 57.67 292.51 54.81L292.44 54.74L292.51 54.81Q289.07 56.38 283.46 57.21L283.47 57.22L283.39 57.14Q275.08 65.63 270.79 72.79L270.86 72.86L270.95 72.96Q268.63 76.47 267.81 85.50L267.81 85.51L267.91 85.61Q267.79 86.42 267.90 87.80L267.93 87.83L267.92 87.82Q268.01 90.34 269.61 91.66L269.45 91.50L269.48 91.52Q270.16 91.87 270.10 91.93L269.97 91.79L270.06 91.89Q270.66 93.26 271.82 93.86L271.80 93.84L271.69 93.74Q273.91 94.85 276.72 95.13L276.61 95.02L276.60 95.01Q276.68 95.10 281.75 95.54ZM281.41 79.28L281.30 79.17L281.29 79.16Q282.30 79.18 283.68 79.90L283.56 79.78L283.65 79.87Q283.99 81.09 283.99 82.03L284.11 82.15L283.99 82.03Q284.29 84.75 282.91 86.18L282.89 86.15L283.00 86.27Q281.37 87.23 278.34 87.67L278.42 87.75L278.47 87.79Q276.40 87.82 275.63 87.44L275.49 87.29L275.62 87.42Q275.36 86.78 275.36 86.33L275.27 86.25L275.27 86.25Q274.89 81.47 279.13 79.59L279.11 79.57L279.15 79.61Q280.28 79.14 281.38 79.25Z"/><path d="M2 133 C170 136,158 107,335 102" stroke="#9848e9" fill="none"/><path d="M7 125 C164 5,178 62,331 51" stroke="#e5e56a" fill="none"/><path d="M16 122 C185 107,151 27,335 23" stroke="#9e86e8" fill="none"/><path d="M4 32 C175 139,172 49,323 47" stroke="#bce542" fill="none"/><path d="M19 50 C164 24,158 7,335 90" stroke="#4fe299" fill="none"/><path d="M11 124 C181 71,178 138,327 11" stroke="#49e36f" fill="none"/><path fill="#4696e5" d="M166.58 67.60L166.67 67.69L166.64 67.66Q162.13 67.77 159.48 66.23L159.35 66.10L159.31 66.05Q163.01 64.14 170.06 58.03L170.05 58.02L170.02 57.99Q171.13 57.78 173.01 56.90L172.91 56.80L173.09 56.99Q171.15 65.56 170.98 74.75L170.85 74.62L170.96 74.73Q170.74 83.87 172.28 92.68L172.21 92.61L172.19 92.59Q169.94 91.72 166.86 91.56L166.72 91.41L166.86 91.56Q166.69 85.55 166.69 79.66L166.67 79.64L166.68 79.64Q166.53 73.55 166.58 67.60ZM166.09 70.91L166.18 92.09L166.08 91.98Q167.97 92.12 169.35 92.39L169.24 92.29L169.29 92.34Q169.43 93.36 169.71 95.34L169.69 95.32L169.72 95.36Q173.80 96.07 177.32 99.32L177.33 99.33L177.30 99.29Q173.64 88.92 173.59 78.13L173.69 78.24L173.60 78.14Q173.45 67.31 176.10 56.85L176.20 56.96L176.25 57.01Q175.38 57.51 173.07 59.11L173.15 59.19L173.14 59.19Q173.47 58.13 173.91 55.93L173.74 55.76L173.83 55.86Q171.90 56.95 169.81 57.51L169.75 57.45L169.84 57.53Q164.45 62.77 158.23 66.08L158.13 65.98L158.11 65.96Q160.07 67.48 163.49 67.97L163.65 68.14L163.57 68.05Q162.72 68.91 160.85 70.45L160.71 70.32L160.73 70.34Q163.02 71.04 166.22 71.04L166.05 70.87Z"/><path d="M18 49 C158 23,167 103,340 79" stroke="#63c6e7" fill="none"/><path d="M13 132 C168 27,163 30,334 36" stroke="#8ee6e6" fill="none"/><path d="M16 67 C160 106,176 136,329 131" stroke="#e985e9" fill="none"/><path fill="#8de6a3" d="M233.82 88.58L233.94 88.70L233.99 88.74Q234.44 90.19 235.21 93.10L235.17 93.07L235.10 93.00Q229.01 91.09 222.35 91.48L222.30 91.43L222.25 91.38Q215.69 91.81 209.91 94.68L209.92 94.69L210.02 94.79Q210.25 93.70 210.31 93.81L210.41 93.91L210.38 93.88Q215.77 88.15 221.45 81.77L221.44 81.76L221.36 81.68Q227.87 74.59 229.58 67.82L229.42 67.66L229.54 67.78Q230.16 65.20 228.31 63.50L228.36 63.55L228.35 63.54Q226.40 61.72 223.81 61.94L223.81 61.94L223.81 61.94Q223.31 61.88 222.81 61.88L222.89 61.95L222.83 61.90Q220.71 61.98 218.90 63.30L218.85 63.26L218.86 63.27Q216.95 65.21 217.28 69.07L217.27 69.05L217.26 69.04Q214.76 68.64 213.00 67.98L213.07 68.05L212.92 67.90Q212.75 65.97 212.64 63.88L212.59 63.83L212.56 63.79Q212.45 61.43 213.33 59.78L213.29 59.74L213.34 59.79Q216.03 57.90 220.88 57.90L220.89 57.92L223.37 57.87L223.43 57.93Q226.63 57.88 228.01 58.04L228.02 58.05L228.00 58.04Q234.25 58.61 234.63 62.14L234.65 62.16L234.73 62.23Q234.84 63.06 234.73 64.21L234.60 64.08L234.73 64.21Q234.58 65.05 234.36 66.04L234.33 66.02L234.42 66.11Q232.08 77.86 221.12 87.77L221.16 87.81L221.10 87.76Q223.19 87.58 225.17 87.58L225.08 87.49L225.18 87.60Q229.75 87.48 233.88 88.64ZM233.11 58.57L232.99 58.46L233.13 58.59Q230.69 57.53 228.21 57.42L228.29 57.50L223.31 57.20L223.32 57.21Q216.84 56.79 213.65 58.38L213.73 58.47L213.66 58.40Q212.10 60.36 212.10 63.33L212.07 63.30L212.20 63.43Q212.16 64.39 212.60 68.46L212.62 68.48L212.74 68.60Q213.36 68.78 215.07 69.22L215.16 69.31L215.10 70.74L215.09 70.73Q215.00 71.36 215.12 72.13L215.29 72.30L215.18 72.20Q216.95 72.32 220.53 72.65L220.58 72.69L220.62 72.73Q220.50 72.12 220.50 71.63L220.47 71.60L220.46 71.58Q220.61 69.09 222.37 67.14L222.39 67.15L222.33 67.10Q224.09 65.14 226.68 65.30L226.67 65.29L226.60 65.23Q227.70 65.28 228.80 65.50L228.91 65.60L228.75 65.45Q229.06 66.14 229.17 66.75L229.14 66.72L229.09 66.67Q229.18 67.31 229.07 67.80L228.97 67.70L229.03 67.77Q227.34 74.78 220.95 81.77L220.82 81.64L220.89 81.71Q217.75 84.90 209.88 93.66L209.88 93.65L209.85 93.63Q209.66 94.92 209.16 95.75L209.20 95.79L209.18 95.77Q211.51 94.51 213.71 93.74L213.69 93.73L213.55 93.59Q212.64 94.54 211.26 96.69L211.22 96.65L211.23 96.66Q210.96 97.05 210.80 97.55L210.93 97.69L210.92 97.67Q218.02 94.75 225.95 95.03L225.96 95.03L225.84 94.91Q233.98 95.07 240.59 98.49L240.70 98.60L239.19 95.44L239.31 95.56Q238.37 93.63 237.99 92.47L237.92 92.41L237.96 92.44Q236.93 91.85 235.16 91.24L235.17 91.25L235.16 91.24Q234.98 90.24 234.43 88.26L234.35 88.17L234.39 88.21Q231.08 87.27 227.77 86.99L227.92 87.14L227.89 87.10Q234.58 80.42 236.78 68.47L236.74 68.43L237.07 64.30L237.07 64.30Q236.90 61.65 235.14 60.66L235.29 60.81L235.19 60.76L235.18 60.76Q235.12 60.64 235.01 60.64L235.07 60.70L235.00 60.63Q234.72 59.47 233.13 58.59Z"/><path d="M20 66 C191 66,164 6,336 23" stroke="#e39649" fill="none"/><path d="M7 121 C178 28,177 8,340 70" stroke="#91dd45" fill="none"/><path d="M10 7 C165 91,173 68,338 87" stroke="#de62a0" fill="none"/><path d="M20 52 C177 60,177 14,339 43" stroke="#6be4c6" fill="none"/><path fill="#daba5c" d="M48.53 92.15L48.54 92.16L48.72 92.34Q42.74 92.58 41.31 89.22L41.38 89.30L41.30 89.22Q42.39 87.82 44.65 85.24L44.68 85.27L44.76 85.35Q45.37 88.17 49.72 88.33L49.74 88.35L49.70 88.31Q54.62 88.44 56.99 86.51L56.98 86.50L56.97 86.50Q59.05 84.22 58.94 80.31L58.91 80.28L58.98 80.36Q58.67 72.94 51.73 73.27L51.84 73.37L51.73 73.27Q47.77 73.60 45.23 75.42L45.09 75.28L44.57 74.97L44.48 75.00L44.48 74.99Q44.94 70.38 44.77 66.42L44.67 66.32L44.72 66.37Q44.58 62.59 44.08 57.80L44.07 57.79L44.14 57.86Q49.44 59.25 54.94 59.08L54.84 58.97L54.89 59.02Q60.40 58.92 65.57 57.10L65.54 57.07L64.72 59.27L64.71 59.26Q64.18 60.27 63.90 61.48L63.92 61.50L63.98 61.56Q59.55 63.14 53.94 63.14L53.80 63.00L53.91 63.11Q51.77 63.06 49.62 62.84L49.63 62.85L49.68 62.90Q49.59 63.92 49.10 70.36L49.05 70.31L49.02 70.29Q50.27 69.66 53.25 69.44L53.13 69.32L53.19 69.39Q58.66 69.80 60.76 72.22L60.64 72.10L60.70 72.16Q62.65 74.34 63.04 79.90L62.99 79.85L63.14 80.00Q63.34 85.87 61.58 88.79L61.74 88.94L61.66 88.87Q58.67 91.55 53.88 91.88L53.98 91.98L53.95 91.96Q52.58 92.13 48.73 92.35ZM57.28 95.45L57.38 95.55L57.43 95.60Q62.32 95.64 65.07 94.04L65.08 94.06L65.00 93.97Q66.50 91.84 66.50 88.81L66.51 88.82L66.44 88.75Q66.43 84.28 65.06 78.34L65.07 78.35L65.23 78.51Q64.62 75.92 62.86 73.88L62.90 73.92L62.85 73.92L62.64 73.60L62.14 73.32L62.02 73.21Q61.62 72.20 60.69 71.21L60.76 71.28L60.73 71.31L60.71 71.29Q58.46 68.82 53.12 68.82L53.18 68.88L52.75 68.84L52.71 68.79Q52.93 68.08 53.20 66.48L53.19 66.47L53.23 66.51Q60.29 66.52 66.13 64.16L66.20 64.23L66.10 64.13Q66.77 62.15 68.15 58.08L68.10 58.03L65.16 59.49L65.19 59.53Q65.67 57.81 66.39 56.15L66.33 56.10L66.51 56.27Q60.89 58.30 54.94 58.42L54.82 58.30L54.88 58.35Q48.95 58.54 43.22 56.94L43.28 57.00L43.25 56.97Q44.29 63.40 44.29 69.79L44.24 69.74L44.28 69.79Q44.29 72.55 44.13 75.30L44.11 75.28L44.01 75.19Q44.53 75.59 45.35 76.03L45.28 75.96L45.29 75.97Q45.68 75.54 46.62 75.04L46.73 75.15L46.75 75.17Q46.69 76.26 46.36 78.47L46.41 78.52L46.27 78.38Q47.01 78.79 47.62 79.12L47.59 79.10L47.59 79.09Q51.54 76.49 54.24 76.49L54.33 76.59L54.34 76.60Q56.21 76.54 57.92 77.48L57.96 77.51L57.94 77.49Q58.38 78.92 58.43 80.30L58.46 80.33L58.43 80.29Q58.56 84.06 57.07 85.66L56.96 85.54L57.09 85.68Q55.00 87.33 51.75 87.66L51.90 87.81L51.79 87.70Q50.37 87.77 49.38 87.66L49.42 87.69L49.43 87.71Q48.16 87.49 47.06 86.99L47.17 87.10L47.01 86.66L46.95 86.93L46.92 86.90Q45.83 86.25 45.06 84.33L45.04 84.31L44.99 84.26Q43.03 86.26 40.61 89.35L40.56 89.30L40.68 89.42Q41.13 90.37 42.34 91.74L42.24 91.64L42.36 91.76Q43.80 94.31 47.88 95.02L47.98 95.13L47.96 95.11Q49.60 95.36 57.36 95.53Z"/><path fill="#b8e13b" d="M108.93 75.87L108.92 75.85L108.93 75.87Q106.29 75.70 104.50 77.77L104.62 77.89L104.58 77.85Q102.87 80.00 102.60 82.75L102.47 82.62L102.56 82.71Q102.09 85.55 103.66 86.95L103.80 87.09L103.84 87.13Q105.26 88.38 108.29 88.22L108.29 88.22L108.39 88.32Q111.43 88.11 113.03 87.12L113.07 87.16L112.99 87.09Q114.69 85.53 114.69 83.27L114.68 83.27L114.54 83.12Q114.63 82.66 114.51 82.11L114.53 82.13L114.58 82.18Q114.57 79.64 112.98 77.68L113.03 77.74L113.03 77.73Q111.51 75.86 109.09 76.03ZM108.48 92.10L108.37 91.99L108.47 92.09Q102.15 92.10 100.11 91.00L99.95 90.84L100.12 91.01Q98.63 89.90 98.35 87.43L98.23 87.31L98.19 87.27Q98.27 86.41 98.33 85.36L98.26 85.29L98.21 85.24Q98.49 83.93 98.49 83.27L98.46 83.24L98.53 83.31Q99.14 79.13 99.36 78.14L99.25 78.03L99.23 78.00Q99.94 75.25 101.15 73.21L101.28 73.34L101.23 73.29Q104.96 66.83 113.55 57.63L113.54 57.62L113.59 57.67Q117.41 57.20 120.61 56.05L120.71 56.15L120.75 56.19Q110.74 66.89 106.12 73.00L106.13 73.01L106.24 73.12Q107.50 72.24 109.38 72.24L109.53 72.39L109.54 72.40Q114.17 72.24 116.37 75.05L116.37 75.05L116.45 75.13Q118.36 77.47 118.85 82.59L118.79 82.54L118.96 82.71Q118.97 83.65 118.97 84.53L118.89 84.45L118.96 84.52Q119.00 89.08 115.81 90.62L115.74 90.55L115.74 90.55Q114.10 91.55 108.48 92.10ZM111.73 95.52L111.70 95.49L111.77 95.55Q113.56 95.42 116.43 95.53L116.35 95.46L116.47 95.58Q118.77 95.62 121.03 94.58L120.98 94.52L121.00 94.55Q122.77 93.56 122.77 90.97L122.75 90.95L122.74 90.94Q122.62 90.10 122.37 88.67L122.38 88.68L122.43 88.73Q122.23 87.35 122.23 86.69L122.11 86.57L122.11 86.56Q120.91 79.81 118.60 77.05L118.63 77.09L118.58 77.03Q118.45 76.86 118.23 76.53L118.17 76.46L117.75 76.15L117.75 76.20L117.68 76.14Q117.31 75.55 116.43 74.17L116.25 73.99L116.36 74.10Q115.00 72.69 112.14 72.03L112.18 72.07L112.16 72.04Q113.94 69.75 118.23 64.41L118.19 64.36L124.35 56.76L124.25 56.66Q121.96 57.90 118.49 59.00L118.61 59.11L118.50 59.00Q119.94 57.69 122.53 54.83L122.57 54.87L122.46 54.76Q119.11 56.42 113.49 57.24L113.48 57.24L113.43 57.19Q105.09 65.64 100.79 72.80L100.91 72.91L100.81 72.82Q98.73 76.56 97.90 85.59L97.76 85.46L97.77 85.46Q97.77 86.40 97.88 87.78L97.80 87.70L97.86 87.75Q98.00 90.32 99.60 91.64L99.44 91.49L99.57 91.61Q100.05 91.77 100.00 91.82L100.05 91.88L100.06 91.88Q100.49 93.08 101.64 93.69L101.65 93.69L101.80 93.84Q103.88 94.83 106.69 95.10L106.63 95.04L106.64 95.05Q106.69 95.10 111.76 95.54ZM111.47 79.34L111.37 79.24L111.31 79.18Q112.12 79.00 113.50 79.72L113.65 79.88L113.52 79.74Q114.04 81.14 114.04 82.08L113.98 82.02L114.08 82.12Q114.32 84.78 112.94 86.21L113.06 86.32L113.04 86.31Q111.36 87.22 108.33 87.66L108.50 87.83L108.44 87.77Q106.25 87.67 105.48 87.28L105.49 87.30L105.51 87.31Q105.24 86.65 105.24 86.21L105.28 86.26L105.20 86.17Q105.00 81.57 109.24 79.70L109.12 79.58L109.28 79.74Q110.24 79.11 111.34 79.22Z"/><path d="M19 115 C154 96,151 31,327 28" stroke="#8989ea" fill="none"/><path d="M21 13 C158 30,159 73,327 59" stroke="#529be4" fill="none"/><path d="M19 108 C159 17,174 8,323 123" stroke="#c25ce4" fill="none"/><path d="M20 104 C160 20,167 25,322 14" stroke="#e2e254" fill="none"/><path d="M8 7 C187 9,172 42,330 125" stroke="#3fd98c" fill="none"/><path d="M17 112 C160 91,186 63,321 69" stroke="#e664c6" fill="none"/><path d="M10 81 C192 60,153 128,334 19" stroke="#96d953" fill="none"/><path d="M16 53 C179 56,175 93,327 57" stroke="#f079d2" fill="none"/><path d="M2 127 C155 111,155 119,340 47" stroke="#e4e467" fill="none"/><path d="M17 74 C156 47,186 48,335 102" stroke="#73d453" fill="none"/><path d="M13 56 C162 112,179 85,333 135" stroke="#e69341" fill="none"/><path d="M5 125 C150 11,186 102,331 69" stroke="#db3d64" fill="none"/><path d="M15 81 C184 46,173 49,326 84" stroke="#e26ea8" fill="none"/><path d="M8 42 C150 134,179 23,335 27" stroke="#c56ee2" fill="none"/><path d="M8 19 C182 67,158 90,330 2" stroke="#44e7e7" fill="none"/><path d="M5 134 C188 31,191 67,339 58" stroke="#eed076" fill="none"/><path d="M11 21 C153 28,172 30,333 126" stroke="#4fd8b6" fill="none"/></svg>