<svg xmlns="http://www.w3.org/2000/svg" width="342" height="140" viewBox="0,0,342,140"><path d="M3 49 C162 120,170 126,323 102" stroke="#dca56f" fill="none"/><path d="M9 81 C152 48,155 35,330 39" stroke="#dd6ea5" fill="none"/><path fill="#71e849" d="M59.78 92.44L59.81 92.47L59.87 92.53Q53.93 92.88 52.48 89.48L52.37 89.37L52.52 89.53Q53.54 88.03 55.82 85.41L55.92 85.52L55.76 85.35Q56.66 88.48 61.06 88.65L60.95 88.53L60.88 88.46Q66.04 88.77 68.43 86.82L68.27 86.66L68.30 86.69Q70.30 84.28 70.19 80.33L70.19 80.33L70.37 80.51Q70.12 73.07 63.10 73.40L62.98 73.29L63.05 73.36Q58.84 73.49 56.28 75.33L56.41 75.47L55.92 75.20L55.54 74.93L55.60 75.00Q55.98 70.25 55.81 66.23L55.83 66.25L55.99 66.41Q55.65 62.39 55.15 57.54L55.30 57.69L55.29 57.68Q60.59 59.03 66.17 58.86L66.20 58.89L66.13 58.82Q71.70 58.71 76.94 56.87L77.06 56.98L76.21 59.20L76.14 59.13Q75.65 60.21 75.38 61.43L75.50 61.56L75.35 61.41Q70.90 63.03 65.21 63.03L65.21 63.03L65.25 63.07Q63.12 63.06 60.95 62.84L60.87 62.75L60.79 62.68Q60.67 63.67 60.17 70.19L60.25 70.28L60.24 70.27Q61.53 69.66 64.54 69.44L64.50 69.39L64.41 69.31Q69.89 69.66 72.01 72.11L72.13 72.23L72.11 72.21Q74.01 74.34 74.40 79.97L74.50 80.06L74.38 79.95Q74.93 86.24 73.15 89.20L73.02 89.06L73.07 89.12Q70.14 91.93 65.29 92.27L65.36 92.33L65.20 92.17Q63.85 92.38 59.94 92.60ZM68.67 95.81L68.79 95.93L68.72 95.86Q73.76 96.00 76.55 94.38L76.56 94.40L76.56 94.40Q77.89 92.04 77.89 88.98L77.89 88.98L77.94 89.02Q78.01 84.58 76.62 78.56L76.59 78.54L76.53 78.48Q76.12 76.06 74.34 74.00L74.21 73.87L74.22 73.94L73.91 73.52L73.44 73.27L73.50 73.32Q72.96 72.18 72.02 71.17L72.06 71.22L72.10 71.31L72.08 71.29Q69.90 68.89 64.50 68.89L64.50 68.90L64.05 68.83L63.97 68.76Q64.09 67.92 64.36 66.31L64.34 66.29L64.36 66.31Q71.72 66.53 77.63 64.13L77.55 64.05L77.67 64.17Q78.17 61.99 79.56 57.87L79.69 58.00L76.49 59.26L76.56 59.33Q77.20 57.74 77.93 56.07L77.96 56.10L77.79 55.93Q72.20 58.09 66.18 58.20L66.17 58.19L66.24 58.26Q60.23 58.44 54.43 56.82L54.40 56.79L54.46 56.85Q55.42 63.27 55.42 69.74L55.49 69.81L55.32 69.64Q55.42 72.53 55.25 75.31L55.16 75.22L55.27 75.33Q55.71 75.65 56.54 76.10L56.48 76.04L56.44 76.00Q56.93 75.66 57.88 75.15L57.93 75.20L58.00 75.28Q57.91 76.35 57.57 78.58L57.55 78.56L57.61 78.62Q58.18 78.86 58.79 79.19L58.74 79.14L58.68 79.08Q62.88 76.64 65.61 76.64L65.46 76.49L65.48 76.51Q67.54 76.62 69.27 77.56L69.30 77.60L69.27 77.57Q69.73 79.04 69.79 80.43L69.79 80.43L69.87 80.51Q69.88 84.20 68.38 85.82L68.35 85.79L68.30 85.74Q66.28 87.52 63.00 87.85L63.09 87.95L63.12 87.98Q61.65 88.01 60.64 87.89L60.70 87.95L60.61 87.86Q59.54 87.85 58.43 87.35L58.37 87.30L58.37 87.01L58.10 87.08L58.09 87.07Q56.88 86.30 56.10 84.35L56.12 84.38L56.21 84.47Q54.31 86.58 51.85 89.70L51.75 89.59L51.76 89.61Q52.29 90.64 53.52 92.03L53.52 92.03L53.43 91.94Q55.01 94.63 59.13 95.36L59.21 95.43L59.08 95.31Q60.93 95.76 68.79 95.93Z"/><path d="M3 115 C190 23,176 104,332 115" stroke="#e98361" fill="none"/><path d="M18 130 C178 59,157 74,337 95" stroke="#e3a18c" fill="none"/><path d="M21 63 C191 21,179 37,322 34" stroke="#d99148" fill="none"/><path d="M19 86 C188 72,157 60,339 42" stroke="#d99e62" fill="none"/><path d="M8 98 C155 132,176 106,323 122" stroke="#e46439" fill="none"/><path d="M13 11 C183 123,176 129,324 30" stroke="#e6e64b" fill="none"/><path d="M19 20 C168 67,156 57,335 134" stroke="#67e467" fill="none"/><path d="M9 116 C179 66,177 2,339 123" stroke="#5edede" fill="none"/><path d="M14 20 C176 130,157 47,341 136" stroke="#eb849d" fill="none"/><path d="M19 133 C189 133,185 59,329 41" stroke="#e980b5" fill="none"/><path d="M4 131 C179 101,176 130,323 86" stroke="#9292eb" fill="none"/><path d="M14 104 C152 14,172 21,335 138" stroke="#4ebade" fill="none"/><path d="M18 65 C178 15,177 30,338 99" stroke="#e862c7" fill="none"/><path d="M10 54 C182 43,185 55,330 94" stroke="#ad79e0" fill="none"/><path d="M17 90 C177 41,190 21,330 90" stroke="#4f4fd8" fill="none"/><path fill="#9e85e9" d="M131.71 76.11L131.69 76.09L131.69 76.09Q128.91 75.81 127.09 77.90L127.22 78.03L127.08 77.89Q125.40 80.11 125.12 82.89L124.98 82.75L124.97 82.75Q124.66 85.78 126.24 87.20L126.39 87.35L126.31 87.27Q127.92 88.71 130.99 88.54L130.87 88.42L130.93 88.48Q134.07 88.33 135.68 87.33L135.64 87.28L135.55 87.19Q137.37 85.72 137.37 83.44L137.37 83.44L137.23 83.30Q137.35 82.86 137.24 82.31L137.17 82.23L137.28 82.35Q137.21 79.71 135.59 77.73L135.69 77.83L135.70 77.84Q134.14 75.92 131.69 76.08ZM131.06 92.34L131.09 92.38L131.04 92.33Q124.57 92.27 122.51 91.16L122.62 91.27L122.62 91.27Q121.10 90.13 120.82 87.62L120.79 87.59L120.74 87.54Q120.77 86.63 120.83 85.57L120.75 85.49L120.72 85.46Q121.01 84.13 121.01 83.46L120.99 83.45L120.83 83.29Q121.50 79.11 121.72 78.10L121.79 78.17L121.83 78.21Q122.58 75.45 123.81 73.39L123.63 73.21L123.75 73.33Q127.69 66.96 136.39 57.65L136.40 57.67L136.39 57.65Q140.22 57.14 143.45 55.96L143.44 55.95L143.37 55.88Q133.39 66.86 128.71 73.05L128.81 73.15L128.69 73.03Q130.27 72.43 132.16 72.43L131.97 72.24L132.09 72.36Q137.02 72.44 139.25 75.28L139.20 75.23L139.06 75.09Q141.05 77.53 141.55 82.71L141.60 82.76L141.56 82.72Q141.73 83.85 141.73 84.74L141.73 84.73L141.78 84.79Q141.78 89.35 138.55 90.91L138.50 90.87L138.49 90.86Q136.79 91.83 131.10 92.39ZM134.45 95.90L134.43 95.88L134.39 95.85Q136.21 95.71 139.11 95.82L139.08 95.79L139.08 95.80Q141.49 95.92 143.78 94.86L143.77 94.86L143.77 94.86Q145.43 93.73 145.43 91.11L145.53 91.21L145.41 91.09Q145.54 90.49 145.29 89.04L145.18 88.93L145.26 89.02Q145.00 87.56 145.00 86.89L144.86 86.75L144.91 86.80Q143.70 79.95 141.35 77.17L141.28 77.09L141.39 77.20Q141.17 76.92 140.95 76.59L140.90 76.54L140.54 76.30L140.36 76.17L140.45 76.27Q139.87 75.45 138.97 74.06L138.94 74.03L139.01 74.10Q137.64 72.67 134.74 72.00L134.87 72.13L134.84 72.11Q136.54 69.67 140.89 64.27L140.88 64.26L147.19 56.64L147.06 56.50Q144.88 57.89 141.36 59.00L141.29 58.92L141.31 58.95Q142.67 57.52 145.29 54.63L145.31 54.64L145.26 54.60Q141.82 56.23 136.14 57.07L136.16 57.09L136.17 57.10Q127.63 65.56 123.28 72.81L123.38 72.90L123.34 72.87Q121.06 76.50 120.23 85.64L120.33 85.74L120.26 85.67Q120.11 86.47 120.23 87.87L120.30 87.94L120.33 87.98Q120.36 90.45 121.98 91.79L122.00 91.81L122.02 91.84Q122.67 92.15 122.61 92.21L122.46 92.06L122.58 92.17Q123.09 93.46 124.26 94.07L124.21 94.02L124.33 94.15Q126.40 95.10 129.24 95.38L129.25 95.39L129.32 95.46Q129.14 95.28 134.27 95.73ZM133.95 79.30L133.97 79.31L134.00 79.35Q134.95 79.29 136.34 80.01L136.31 79.98L136.28 79.95Q136.65 81.22 136.65 82.16L136.84 82.35L136.72 82.23Q136.94 84.90 135.54 86.35L135.58 86.38L135.63 86.43Q134.05 87.47 130.98 87.92L131.03 87.97L130.95 87.88Q128.93 87.98 128.15 87.59L128.15 87.59L128.14 87.59Q127.93 86.99 127.93 86.54L127.93 86.54L127.85 86.46Q127.56 81.71 131.85 79.81L131.77 79.73L131.72 79.69Q132.81 79.15 133.92 79.27Z"/><path d="M14 30 C187 139,160 61,338 99" stroke="#e57591" fill="none"/><path d="M2 6 C162 63,163 10,336 110" stroke="#a28be8" fill="none"/><path d="M6 97 C154 124,155 62,327 134" stroke="#e76969" fill="none"/><path fill="#7ae57a" d="M195.91 92.57L195.81 92.47L195.78 92.44Q189.87 92.83 188.42 89.43L188.51 89.51L188.51 89.52Q189.66 88.16 191.95 85.54L191.79 85.38L191.93 85.52Q192.49 88.31 196.90 88.48L196.99 88.58L196.97 88.56Q201.91 88.65 204.31 86.69L204.25 86.64L204.43 86.82Q206.32 84.30 206.20 80.34L206.27 80.40L206.23 80.37Q206.09 73.04 199.07 73.38L199.08 73.39L198.98 73.29Q194.96 73.61 192.39 75.45L192.43 75.49L191.78 75.06L191.48 74.87L191.66 75.06Q192.16 70.43 191.99 66.41L191.93 66.35L191.92 66.34Q191.83 62.57 191.33 57.72L191.26 57.65L191.21 57.60Q196.63 59.06 202.20 58.89L202.21 58.91L202.20 58.89Q207.75 58.75 212.99 56.91L212.99 56.91L212.23 59.23L212.18 59.17Q211.73 60.28 211.45 61.51L211.47 61.53L211.35 61.41Q206.82 62.96 201.14 62.96L201.20 63.02L201.24 63.06Q199.07 63.00 196.89 62.78L196.85 62.74L196.77 62.66Q196.73 63.74 196.23 70.26L196.22 70.24L196.21 70.24Q197.52 69.66 200.53 69.43L200.48 69.37L200.44 69.33Q205.86 69.63 207.98 72.08L207.98 72.09L208.13 72.23Q210.07 74.40 210.46 80.03L210.48 80.05L210.55 80.12Q210.86 86.17 209.08 89.13L209.17 89.22L209.02 89.07Q206.12 91.91 201.27 92.24L201.32 92.29L201.35 92.32Q199.79 92.32 195.88 92.54ZM204.76 95.90L204.73 95.87L204.70 95.84Q209.77 96.01 212.56 94.39L212.52 94.35L212.43 94.26Q214.02 92.17 214.02 89.11L214.01 89.09L214.06 89.15Q213.89 84.46 212.50 78.44L212.59 78.54L212.54 78.48Q212.04 75.98 210.26 73.92L210.33 73.99L210.35 74.06L209.87 73.48L209.41 73.24L209.43 73.25Q208.95 72.17 208.01 71.16L208.01 71.17L208.04 71.25L208.15 71.36Q205.90 68.89 200.49 68.89L200.40 68.79L200.04 68.82L200.00 68.79Q200.17 68.01 200.45 66.40L200.38 66.33L200.41 66.35Q207.76 66.57 213.67 64.17L213.62 64.13L213.74 64.25Q214.21 62.04 215.60 57.91L215.71 58.02L212.68 59.44L212.67 59.43Q213.18 57.72 213.91 56.05L213.89 56.03L213.90 56.04Q208.31 58.20 202.29 58.31L202.19 58.21L202.30 58.32Q196.18 58.39 190.39 56.78L190.48 56.87L190.39 56.78Q191.42 63.27 191.42 69.74L191.34 69.66L191.36 69.68Q191.44 72.55 191.28 75.34L191.17 75.23L191.32 75.39Q191.63 75.58 192.46 76.02L192.45 76.01L192.40 75.96Q192.96 75.69 193.91 75.19L193.91 75.19L193.85 75.13Q193.82 76.27 193.49 78.50L193.55 78.56L193.59 78.60Q194.07 78.74 194.68 79.08L194.84 79.23L194.75 79.14Q198.87 76.64 201.61 76.64L201.49 76.52L201.50 76.53Q203.43 76.51 205.15 77.45L205.21 77.50L205.29 77.59Q205.68 78.98 205.74 80.38L205.72 80.36L205.80 80.44Q205.95 84.27 204.45 85.89L204.42 85.86L204.41 85.86Q202.40 87.63 199.11 87.97L199.10 87.96L199.12 87.97Q197.76 88.12 196.75 88.01L196.69 87.94L196.77 88.02Q195.48 87.79 194.37 87.29L194.29 87.22L194.23 86.87L194.13 87.11L194.09 87.07Q193.01 86.43 192.23 84.48L192.08 84.34L192.19 84.45Q190.28 86.54 187.82 89.67L187.72 89.57L187.86 89.70Q188.22 90.56 189.45 91.96L189.55 92.06L189.36 91.87Q191.06 94.69 195.19 95.41L195.09 95.31L195.19 95.42Q196.91 95.74 204.77 95.91Z"/><path fill="#57eaea" d="M273.32 73.16L273.31 73.15L273.39 73.23Q274.60 73.27 276.66 73.04L276.51 72.90L276.49 72.88Q276.53 73.91 276.53 74.86L276.61 74.95L276.61 76.78L276.49 76.66Q275.28 76.68 274.06 76.79L273.96 76.70L274.15 76.89Q272.81 76.83 271.58 76.77L271.56 76.75L271.55 76.74Q267.41 85.82 262.40 92.56L262.42 92.59L262.42 92.58Q258.82 93.61 256.92 94.50L256.78 94.36L256.79 94.37Q262.84 86.04 267.30 76.84L267.27 76.81L263.41 76.79L263.49 76.87Q263.54 74.97 263.37 73.02L263.39 73.04L263.35 73.00Q266.11 73.19 269.12 73.19L269.19 73.27L271.80 67.68L271.91 67.79Q273.38 65.02 275.16 62.68L275.06 62.58L275.18 62.70Q272.92 62.95 270.58 62.95L270.42 62.79L270.55 62.92Q261.54 62.83 256.02 59.60L256.02 59.60L255.17 57.18L255.17 57.18Q254.53 55.82 253.97 54.53L253.99 54.56L254.15 54.71Q260.41 58.47 268.77 58.80L268.78 58.81L268.85 58.87Q276.21 59.05 283.74 56.15L283.81 56.22L283.85 56.27Q283.62 56.92 282.89 58.20L282.84 58.15L282.73 58.04Q277.52 65.10 273.34 73.18ZM285.22 60.19L285.16 60.13L286.62 57.19L286.59 57.17Q285.14 57.83 282.69 58.89L282.72 58.92L283.11 58.59L283.01 58.49Q283.22 58.31 283.39 58.14L283.34 58.09L283.46 58.21Q283.92 57.11 284.98 55.16L285.07 55.25L285.00 55.18Q277.08 58.42 268.67 58.08L268.72 58.14L268.79 58.20Q260.01 57.84 253.04 53.50L253.04 53.50L252.97 53.42Q254.43 56.11 255.66 60.02L255.64 60.00L255.67 60.02Q257.37 61.05 258.54 61.50L258.55 61.51L258.43 61.39Q258.63 61.87 259.30 64.61L259.32 64.62L259.37 64.68Q264.06 66.58 272.14 66.35L272.06 66.27L272.10 66.31Q271.70 67.20 268.81 72.72L268.84 72.75L268.74 72.65Q265.81 72.73 262.91 72.45L262.95 72.48L262.83 72.37Q263.02 73.67 263.02 74.95L262.93 74.87L262.98 77.43L265.37 77.36L265.35 79.40L265.45 79.50Q259.69 90.30 255.62 95.54L255.53 95.45L255.53 95.44Q257.89 94.35 260.28 93.63L260.36 93.70L260.40 93.75Q259.39 95.07 257.38 97.58L257.37 97.57L257.29 97.49Q261.96 95.92 265.53 95.58L265.49 95.55L265.52 95.58Q269.90 90.14 274.47 80.22L274.46 80.21L279.49 80.50L279.38 80.39Q279.22 79.01 279.22 77.67L279.32 77.77L279.23 75.06L279.34 75.16Q278.85 75.07 278.04 75.12L278.19 75.27L278.19 75.27Q277.23 75.17 276.84 75.17L276.91 75.24L276.81 75.14Q276.92 75.08 276.97 74.86L276.96 74.85L276.95 74.45L277.01 74.51Q280.59 66.89 285.11 60.09Z"/><path d="M17 101 C171 88,181 45,340 127" stroke="#d5b042" fill="none"/><path d="M7 45 C154 16,182 132,323 118" stroke="#69ecaa" fill="none"/><path d="M21 132 C184 1,156 79,338 65" stroke="#8a6aeb" fill="none"/><path d="M16 101 C188 130,172 99,326 98" stroke="#9ee15a" fill="none"/><path d="M4 82 C186 14,167 88,334 133" stroke="#e4cf90" fill="none"/><path d="M17 79 C159 1,192 138,323 110" stroke="#e5e556" fill="none"/><path d="M5 67 C181 108,172 44,325 13" stroke="#8667e4" fill="none"/><path d="M15 52 C187 69,176 81,323 4" stroke="#e68ee6" fill="none"/><path d="M1 122 C151 116,175 8,326 92" stroke="#e584b5" fill="none"/><path d="M9 30 C179 17,178 6,322 14" stroke="#99dd54" fill="none"/><path d="M8 54 C157 76,166 61,325 8" stroke="#8e39e4" fill="none"/><path d="M3 15 C151 27,160 85,340 99" stroke="#e5e589" fill="none"/><path d="M17 47 C189 79,152 89,334 124" stroke="#4d70da" fill="none"/><path d="M18 22 C167 23,180 9,322 102" stroke="#e141e1" fill="none"/><path d="M20 77 C165 31,162 3,329 88" stroke="#baee85" fill="none"/><path d="M7 10 C179 117,186 81,336 44" stroke="#7c58e8" fill="none"/><path d="M1 16 C171 117,162 115,332 67" stroke="#a866ea" fill="none"/><path d="M15 15 C166 26,187 57,329 119" stroke="#7a56e5" fill="none"/><path d="M19 135 C183 15,189 136,329 88" stroke="#de6ca5" fill="none"/><path d="M20 42 C186 103,175 139,340 73" stroke="#d449b1" fill="none"/></svg>