<svg xmlns="http://www.w3.org/2000/svg" width="342" height="140" viewBox="0,0,342,140"><path d="M17 73 C179 2,178 90,329 95" stroke="#6a8aeb" fill="none"/><path fill="#e3913f" d="M228.06 73.34L228.09 73.37L228.11 73.40Q229.32 73.36 231.51 73.13L231.44 73.06L231.48 73.10Q231.50 74.18 231.50 75.18L231.40 75.09L231.41 77.05L231.46 77.10Q230.10 77.04 228.80 77.16L228.81 77.17L228.76 77.12Q227.63 77.35 226.33 77.29L226.28 77.24L226.16 77.12Q221.72 86.70 216.40 93.86L216.43 93.89L216.48 93.94Q212.63 95.00 210.62 95.95L210.65 95.97L210.54 95.87Q216.94 87.00 221.67 77.24L221.70 77.28L217.59 77.25L217.59 77.25Q217.61 75.20 217.44 73.13L217.51 73.20L217.50 73.20Q220.42 73.40 223.62 73.40L223.50 73.28L226.62 67.71L226.55 67.64Q228.09 64.68 229.98 62.20L229.95 62.16L229.95 62.16Q227.52 62.40 225.04 62.40L225.09 62.45L225.01 62.37Q215.52 62.35 209.67 58.92L209.72 58.96L208.68 56.28L208.78 56.38Q208.12 54.94 207.52 53.58L207.56 53.62L207.60 53.66Q214.45 57.84 223.32 58.20L223.24 58.12L223.21 58.09Q231.16 58.41 239.15 55.33L239.29 55.47L239.28 55.47Q238.81 55.94 238.04 57.30L238.16 57.42L238.17 57.43Q232.59 64.87 228.16 73.44ZM240.64 59.55L240.58 59.49L242.17 56.40L242.13 56.37Q240.60 57.08 238.00 58.21L238.04 58.25L238.31 57.75L238.43 57.87Q238.59 57.61 238.77 57.44L238.67 57.34L238.74 57.41Q239.32 56.34 240.45 54.27L240.48 54.30L240.45 54.27Q232.22 57.87 223.29 57.52L223.25 57.47L223.32 57.54Q213.93 57.08 206.53 52.47L206.41 52.34L206.58 52.52Q208.03 55.26 209.33 59.40L209.36 59.44L209.45 59.53Q211.02 60.38 212.26 60.86L212.43 61.02L212.30 60.90Q212.52 61.41 213.23 64.31L213.28 64.36L213.22 64.30Q218.17 66.30 226.75 66.06L226.70 66.01L226.81 66.13Q226.25 66.92 223.17 72.77L223.28 72.89L223.21 72.81Q220.02 72.81 216.94 72.52L216.99 72.57L216.89 72.46Q217.09 73.85 217.09 75.21L217.09 75.21L217.01 77.79L219.73 77.91L219.59 79.95L219.76 80.13Q213.64 91.57 209.33 97.13L209.37 97.18L209.29 97.10Q211.78 95.92 214.33 95.16L214.36 95.19L214.36 95.19Q213.20 96.52 211.07 99.18L211.03 99.13L211.18 99.28Q216.05 97.53 219.83 97.17L219.78 97.13L219.89 97.23Q224.30 91.23 229.15 80.70L229.15 80.71L234.43 80.96L234.59 81.12Q234.34 79.56 234.34 78.14L234.41 78.21L234.35 75.38L234.45 75.47Q234.04 75.48 233.19 75.54L233.19 75.55L233.11 75.47Q232.32 75.59 231.90 75.59L231.77 75.46L231.79 75.48Q231.97 75.48 232.03 75.24L231.91 75.12L231.98 74.78L232.00 74.80Q235.92 66.84 240.71 59.62Z"/><path d="M2 34 C161 127,160 65,337 81" stroke="#446ade" fill="none"/><path d="M19 70 C162 121,187 47,330 21" stroke="#57e47a" fill="none"/><path d="M12 72 C162 123,166 20,323 106" stroke="#ecaf73" fill="none"/><path d="M17 4 C188 38,189 41,329 102" stroke="#55e679" fill="none"/><path d="M12 2 C190 62,169 61,337 87" stroke="#8a8aee" fill="none"/><path d="M11 59 C168 50,164 65,324 127" stroke="#3b3be6" fill="none"/><path d="M17 136 C154 136,158 12,337 35" stroke="#ec6386" fill="none"/><path d="M15 61 C151 24,187 56,322 113" stroke="#eb8eeb" fill="none"/><path d="M4 67 C181 102,185 125,331 129" stroke="#85b7e9" fill="none"/><path d="M6 39 C176 131,176 65,340 99" stroke="#e4e47a" fill="none"/><path d="M16 52 C162 123,163 22,330 85" stroke="#99e480" fill="none"/><path d="M5 70 C182 23,161 45,326 45" stroke="#8dde72" fill="none"/><path d="M5 107 C185 77,151 6,328 113" stroke="#4040dd" fill="none"/><path d="M8 128 C172 80,178 130,339 119" stroke="#60e6e6" fill="none"/><path d="M5 15 C152 92,179 26,323 80" stroke="#e0b842" fill="none"/><path d="M19 1 C179 74,169 51,335 42" stroke="#6cde89" fill="none"/><path d="M20 105 C185 112,184 52,337 108" stroke="#e2738f" fill="none"/><path d="M17 69 C153 52,155 38,323 104" stroke="#ed5ea5" fill="none"/><path fill="#52dfbc" d="M274.66 93.85L274.75 93.94L274.69 93.88Q268.46 94.33 266.92 90.73L266.82 90.63L266.88 90.69Q267.97 89.12 270.40 86.34L270.50 86.45L270.44 86.38Q271.12 89.43 275.79 89.60L275.83 89.64L275.97 89.78Q281.12 89.79 283.66 87.72L283.71 87.77L283.74 87.79Q285.90 85.28 285.78 81.08L285.68 80.98L285.77 81.08Q285.44 73.11 277.99 73.46L278.01 73.49L278.09 73.57Q273.65 73.75 270.93 75.70L271.02 75.79L270.34 75.34L270.12 75.24L270.24 75.36Q270.78 70.45 270.60 66.20L270.45 66.05L270.46 66.06Q270.32 62.02 269.79 56.87L269.81 56.90L269.70 56.78Q275.53 58.42 281.45 58.24L281.43 58.22L281.42 58.21Q287.23 57.99 292.79 56.04L292.95 56.20L292.01 58.51L292.06 58.55Q291.53 59.68 291.23 60.98L291.15 60.90L291.18 60.93Q286.29 62.49 280.26 62.49L280.30 62.53L280.31 62.54Q278.01 62.48 275.70 62.25L275.82 62.37L275.85 62.40Q275.66 63.39 275.13 70.31L275.03 70.21L275.20 70.38Q276.43 69.60 279.62 69.36L279.68 69.42L279.60 69.34Q285.41 69.71 287.66 72.31L287.65 72.31L287.66 72.32Q289.84 74.73 290.25 80.70L290.12 80.57L290.13 80.58Q290.57 87.11 288.68 90.25L288.69 90.26L288.73 90.30Q285.62 93.28 280.48 93.64L280.46 93.62L280.43 93.59Q278.90 93.72 274.76 93.95ZM284.18 97.52L284.15 97.49L284.02 97.36Q289.46 97.59 292.41 95.88L292.44 95.91L292.42 95.88Q293.86 93.42 293.86 90.17L293.96 90.27L293.82 90.13Q294.02 85.53 292.54 79.15L292.39 79.00L292.48 79.08Q291.77 76.25 289.88 74.06L290.02 74.20L290.00 74.24L289.74 73.86L289.09 73.45L289.04 73.40Q288.56 72.27 287.55 71.20L287.72 71.37L287.61 71.32L287.59 71.30Q285.32 68.79 279.58 68.79L279.56 68.77L279.11 68.73L279.04 68.66Q279.34 67.95 279.63 66.24L279.50 66.11L279.62 66.23Q287.29 66.33 293.56 63.78L293.58 63.80L293.52 63.75Q294.23 61.61 295.71 57.24L295.66 57.19L292.49 58.75L292.39 58.65Q293.13 57.03 293.90 55.25L293.72 55.07L293.86 55.21Q287.75 57.33 281.37 57.45L281.52 57.60L281.46 57.54Q275.03 57.67 268.88 55.96L268.85 55.93L268.99 56.07Q270.02 62.89 270.02 69.75L270.05 69.79L269.98 69.72Q269.97 72.67 269.79 75.62L269.74 75.57L269.81 75.64Q270.14 75.85 271.02 76.32L271.16 76.45L271.09 76.38Q271.60 76.01 272.60 75.48L272.57 75.44L272.72 75.59Q272.52 76.63 272.16 79.00L272.28 79.12L272.15 78.98Q272.88 79.36 273.53 79.72L273.54 79.72L273.43 79.62Q277.81 76.96 280.71 76.96L280.65 76.89L280.83 77.08Q282.78 76.96 284.62 77.97L284.64 77.99L284.70 78.05Q285.20 79.61 285.26 81.09L285.19 81.03L285.17 81.00Q285.26 84.99 283.66 86.71L283.79 86.84L283.78 86.83Q281.70 88.77 278.21 89.12L278.09 89.00L278.04 88.95Q276.72 89.23 275.65 89.11L275.56 89.02L275.68 89.14Q274.22 88.80 273.04 88.27L273.16 88.40L273.07 88.01L272.78 88.07L272.94 88.23Q271.62 87.38 270.79 85.31L270.88 85.41L270.76 85.28Q268.82 87.60 266.22 90.91L266.07 90.76L266.21 90.90Q266.68 91.90 267.98 93.38L267.82 93.23L267.96 93.37Q269.65 96.24 274.02 97.00L273.94 96.92L273.84 96.82Q275.72 97.22 284.06 97.40Z"/><path d="M9 96 C166 7,188 91,337 22" stroke="#a35ce9" fill="none"/><path d="M5 54 C170 114,154 93,338 110" stroke="#72e890" fill="none"/><path d="M12 109 C152 73,173 39,335 129" stroke="#d07eeb" fill="none"/><path d="M14 19 C158 115,156 10,327 120" stroke="#7ff0f0" fill="none"/><path fill="#49e3e3" d="M47.97 93.83L47.94 93.80L48.03 93.89Q41.70 94.24 40.16 90.63L40.26 90.74L40.09 90.56Q41.43 89.25 43.86 86.47L43.80 86.41L43.68 86.29Q44.64 89.61 49.31 89.79L49.27 89.75L49.30 89.78Q54.48 89.81 57.02 87.74L56.98 87.70L57.12 87.84Q59.26 85.31 59.14 81.11L59.17 81.14L59.18 81.15Q58.76 73.10 51.31 73.45L51.38 73.53L51.35 73.50Q47.05 73.81 44.33 75.76L44.27 75.70L43.79 75.46L43.56 75.35L43.52 75.31Q44.01 70.35 43.83 66.10L43.89 66.16L43.89 66.16Q43.57 61.93 43.03 56.78L43.16 56.91L43.16 56.91Q48.81 58.36 54.73 58.18L54.72 58.18L54.63 58.09Q60.58 58.01 66.14 56.05L66.17 56.08L65.33 58.50L65.24 58.40Q64.78 59.60 64.48 60.90L64.57 60.99L64.44 60.86Q59.65 62.51 53.62 62.51L53.62 62.52L53.57 62.47Q51.49 62.64 49.19 62.40L49.15 62.37L49.15 62.37Q48.97 63.37 48.44 70.29L48.50 70.35L48.42 70.27Q49.70 69.54 52.89 69.30L52.99 69.40L52.93 69.34Q58.72 69.69 60.97 72.29L60.91 72.23L60.95 72.27Q63.13 74.69 63.55 80.66L63.47 80.59L63.52 80.63Q63.88 87.09 61.99 90.22L61.97 90.20L62.13 90.36Q59.01 93.34 53.86 93.69L53.70 93.53L53.74 93.57Q52.20 93.68 48.06 93.92ZM57.49 97.50L57.35 97.35L57.48 97.49Q62.73 97.53 65.68 95.81L65.70 95.83L65.71 95.84Q67.25 93.47 67.25 90.22L67.31 90.28L67.20 90.18Q67.16 85.34 65.68 78.96L65.72 78.99L65.74 79.02Q65.28 76.43 63.39 74.24L63.23 74.08L63.31 74.21L62.99 73.78L62.40 73.42L62.45 73.47Q61.98 72.35 60.97 71.29L60.95 71.27L60.91 71.29L61.08 71.45Q58.59 68.73 52.85 68.73L52.78 68.66L52.43 68.72L52.56 68.85Q52.64 67.92 52.93 66.21L52.88 66.15L52.93 66.20Q60.59 66.30 66.86 63.75L66.96 63.85L66.80 63.69Q67.50 61.56 68.98 57.18L69.12 57.32L65.80 58.73L65.71 58.64Q66.28 56.84 67.05 55.07L67.17 55.19L67.10 55.12Q61.16 57.40 54.77 57.52L54.81 57.56L54.73 57.48Q48.37 57.68 42.22 55.97L42.15 55.89L42.23 55.98Q43.27 62.82 43.27 69.68L43.32 69.73L43.32 69.72Q43.31 72.67 43.13 75.63L43.03 75.52L43.03 75.52Q43.59 75.97 44.48 76.44L44.35 76.31L44.42 76.38Q44.93 76.01 45.93 75.47L45.98 75.52L45.99 75.53Q45.98 76.76 45.62 79.12L45.46 78.96L45.63 79.13Q46.12 79.26 46.77 79.62L46.79 79.64L46.86 79.71Q51.14 76.95 54.04 76.95L54.00 76.91L54.04 76.95Q56.15 77.00 57.99 78.00L57.99 78.01L57.87 77.89Q58.49 79.57 58.55 81.05L58.48 80.98L58.62 81.12Q58.68 85.09 57.09 86.80L57.06 86.78L57.18 86.89Q54.86 88.60 51.37 88.96L51.48 89.07L51.51 89.09Q49.99 89.17 48.92 89.05L49.00 89.12L48.82 88.95Q47.61 88.86 46.42 88.32L46.41 88.31L46.37 87.98L46.25 88.21L46.22 88.18Q44.86 87.29 44.03 85.22L44.06 85.25L44.18 85.37Q42.00 87.45 39.40 90.76L39.48 90.85L39.47 90.83Q39.85 91.75 41.15 93.23L41.17 93.24L41.24 93.31Q42.85 96.11 47.23 96.88L47.21 96.86L47.17 96.82Q49.02 97.19 57.36 97.37Z"/><path d="M15 110 C154 108,181 82,327 111" stroke="#eaa866" fill="none"/><path d="M6 85 C174 79,169 30,328 16" stroke="#e36f49" fill="none"/><path d="M11 11 C160 139,175 86,322 127" stroke="#6be4c6" fill="none"/><path d="M6 109 C166 30,177 136,332 87" stroke="#e73662" fill="none"/><path d="M17 42 C170 12,168 30,332 41" stroke="#e358e3" fill="none"/><path d="M8 98 C181 105,174 91,336 63" stroke="#6ae641" fill="none"/><path d="M17 6 C183 23,167 126,328 122" stroke="#9353d4" fill="none"/><path fill="#663fde" d="M108.78 76.47L108.66 76.36L108.66 76.36Q105.81 76.17 103.89 78.39L103.98 78.48L103.94 78.44Q102.10 80.73 101.80 83.69L101.69 83.59L101.73 83.62Q101.40 86.84 103.09 88.35L102.95 88.21L103.02 88.28Q104.81 89.89 108.06 89.71L107.94 89.59L108.07 89.73Q111.15 89.31 112.86 88.25L112.93 88.32L112.94 88.32Q114.76 86.66 114.76 84.23L114.72 84.19L114.74 84.21Q114.72 83.60 114.60 83.01L114.64 83.05L114.66 83.07Q114.76 80.44 113.04 78.34L113.04 78.34L112.93 78.23Q111.34 76.26 108.74 76.43ZM108.09 93.70L108.08 93.70L107.97 93.58Q101.19 93.61 99.00 92.43L98.97 92.39L99.12 92.54Q97.41 91.25 97.12 88.59L97.11 88.58L97.11 88.59Q97.10 87.57 97.16 86.44L97.14 86.43L97.08 86.37Q97.31 84.88 97.31 84.17L97.25 84.11L97.28 84.14Q97.99 79.70 98.22 78.64L98.29 78.70L98.21 78.62Q98.92 75.60 100.22 73.41L100.37 73.57L100.20 73.39Q104.52 66.78 113.75 56.90L113.71 56.87L113.65 56.80Q117.89 56.43 121.32 55.19L121.20 55.06L121.14 55.00Q110.58 66.69 105.61 73.25L105.57 73.21L105.53 73.16Q107.14 72.48 109.16 72.48L109.10 72.42L109.12 72.44Q114.35 72.53 116.72 75.55L116.75 75.57L116.61 75.44Q118.66 77.96 119.19 83.46L119.31 83.58L119.31 83.58Q119.48 84.75 119.48 85.70L119.34 85.56L119.31 85.53Q119.45 90.52 116.02 92.18L115.98 92.14L115.88 92.03Q114.15 93.14 108.11 93.73ZM111.50 97.30L111.65 97.45L111.52 97.32Q113.62 97.35 116.70 97.47L116.64 97.41L116.68 97.45Q119.15 97.50 121.58 96.37L121.66 96.45L121.64 96.43Q123.39 95.23 123.39 92.45L123.27 92.33L123.26 92.32Q123.43 91.72 123.16 90.18L123.14 90.16L123.05 90.07Q122.74 88.49 122.74 87.78L122.78 87.82L122.89 87.92Q121.47 80.53 118.99 77.58L118.90 77.49L118.94 77.53Q118.81 77.34 118.57 76.98L118.57 76.98L118.09 76.62L118.12 76.70L118.13 76.72Q117.57 75.92 116.62 74.44L116.58 74.40L116.59 74.41Q115.15 72.91 112.08 72.20L112.13 72.26L111.99 72.12Q113.99 69.74 118.61 64.01L118.53 63.93L125.13 55.74L125.11 55.73Q122.77 57.17 119.04 58.35L118.95 58.26L119.03 58.34Q120.33 56.68 123.11 53.61L123.27 53.76L123.14 53.64Q119.43 55.30 113.39 56.19L113.36 56.15L113.34 56.14Q104.58 65.42 99.97 73.11L99.94 73.08L99.90 73.04Q97.56 76.96 96.67 86.66L96.68 86.67L96.60 86.59Q96.62 87.62 96.74 89.10L96.66 89.02L96.60 88.96Q96.88 91.84 98.60 93.26L98.48 93.15L98.53 93.20Q99.12 93.43 99.06 93.49L98.96 93.39L99.01 93.44Q99.69 94.95 100.93 95.60L100.80 95.47L100.83 95.50Q103.15 96.63 106.17 96.93L106.13 96.89L106.15 96.92Q106.14 96.90 111.58 97.38ZM111.25 79.95L111.28 79.98L111.20 79.90Q112.08 79.72 113.56 80.49L113.61 80.54L113.58 80.51Q114.12 81.99 114.12 82.99L114.11 82.99L114.16 83.04Q114.41 85.89 112.93 87.43L112.85 87.35L112.89 87.39Q111.33 88.60 108.07 89.08L108.09 89.09L108.01 89.01Q105.76 89.01 104.93 88.60L104.94 88.61L105.02 88.69Q104.61 87.86 104.61 87.39L104.70 87.48L104.68 87.46Q104.23 82.28 108.79 80.27L108.88 80.36L108.94 80.43Q109.96 79.72 111.14 79.84Z"/><path d="M9 93 C163 124,191 83,332 64" stroke="#ed86a0" fill="none"/><path d="M13 12 C167 95,166 22,327 16" stroke="#e5957a" fill="none"/><path d="M11 9 C166 92,186 9,333 57" stroke="#b78ce2" fill="none"/><path d="M20 34 C175 24,172 66,326 15" stroke="#7eafe0" fill="none"/><path d="M2 25 C175 113,152 51,328 92" stroke="#b94fdd" fill="none"/><path d="M2 134 C183 32,165 33,324 18" stroke="#bd60dc" fill="none"/><path d="M12 35 C180 32,171 29,324 23" stroke="#56ebc5" fill="none"/><path d="M12 78 C153 44,169 100,335 64" stroke="#bd67da" fill="none"/><path fill="#7f7fe5" d="M165.29 76.33L165.35 76.38L165.41 76.44Q162.58 76.27 160.66 78.49L160.60 78.44L160.69 78.52Q158.61 80.58 158.31 83.54L158.31 83.53L158.46 83.69Q157.97 86.75 159.66 88.25L159.73 88.32L159.62 88.21Q161.38 89.80 164.63 89.62L164.71 89.70L164.67 89.66Q167.98 89.48 169.70 88.42L169.61 88.33L169.65 88.37Q171.41 86.64 171.41 84.21L171.31 84.11L171.37 84.18Q171.35 83.57 171.23 82.97L171.21 82.95L171.21 82.95Q171.33 80.35 169.61 78.25L169.70 78.34L169.66 78.30Q167.98 76.23 165.37 76.40ZM164.74 93.69L164.77 93.72L164.66 93.61Q157.85 93.60 155.66 92.41L155.80 92.55L155.78 92.54Q154.05 91.23 153.76 88.56L153.87 88.67L153.82 88.63Q153.80 87.60 153.86 86.48L153.86 86.48L153.77 86.38Q154.07 84.97 154.07 84.27L153.98 84.17L153.98 84.18Q154.66 79.71 154.89 78.64L154.88 78.63L154.87 78.61Q155.68 75.70 156.98 73.51L156.92 73.45L156.93 73.46Q161.12 66.71 170.35 56.83L170.40 56.88L170.27 56.76Q174.49 56.37 177.92 55.12L177.92 55.12L177.95 55.15Q167.21 66.65 162.25 73.22L162.25 73.22L162.38 73.35Q163.88 72.54 165.89 72.54L165.81 72.47L165.82 72.48Q170.96 72.46 173.32 75.48L173.32 75.48L173.24 75.40Q175.35 77.99 175.89 83.49L175.90 83.50L175.89 83.49Q176.14 84.74 176.14 85.69L176.14 85.69L176.06 85.61Q176.05 90.45 172.62 92.10L172.66 92.15L172.71 92.19Q170.70 93.03 164.67 93.62ZM168.26 97.38L168.30 97.43L168.29 97.41Q170.33 97.39 173.41 97.51L173.36 97.46L173.37 97.47Q175.92 97.60 178.35 96.48L178.22 96.35L178.32 96.45Q180.07 95.24 180.07 92.46L180.10 92.49L179.93 92.32Q179.94 91.56 179.67 90.02L179.66 90.01L179.71 90.07Q179.56 88.64 179.56 87.93L179.39 87.76L179.53 87.90Q178.23 80.62 175.74 77.66L175.59 77.51L175.62 77.54Q175.54 77.40 175.30 77.04L175.34 77.09L174.87 76.73L174.64 76.56L174.64 76.56Q174.18 75.87 173.23 74.39L173.30 74.45L173.25 74.41Q171.77 72.87 168.70 72.16L168.66 72.12L168.76 72.22Q170.65 69.74 175.27 64.00L175.26 63.99L181.76 55.71L181.73 55.67Q179.43 57.16 175.70 58.35L175.71 58.35L175.61 58.25Q177.16 56.85 179.94 53.77L179.87 53.70L179.94 53.77Q176.17 55.38 170.13 56.26L170.06 56.19L170.08 56.21Q161.20 65.37 156.59 73.06L156.63 73.10L156.65 73.12Q154.17 76.92 153.29 86.62L153.41 86.73L153.45 86.78Q153.15 87.49 153.27 88.97L153.37 89.06L153.38 89.08Q153.47 91.77 155.19 93.19L155.23 93.23L155.25 93.25Q155.69 93.34 155.63 93.39L155.66 93.42L155.66 93.42Q156.25 94.84 157.50 95.50L157.56 95.56L157.50 95.50Q159.77 96.58 162.78 96.88L162.79 96.88L162.82 96.92Q162.73 96.83 168.18 97.30ZM167.95 79.99L167.88 79.92L167.95 79.99Q168.71 79.68 170.19 80.45L170.32 80.58L170.34 80.60Q170.78 81.99 170.78 83.00L170.75 82.96L170.75 82.96Q171.17 85.99 169.69 87.52L169.55 87.38L169.57 87.40Q168.06 88.67 164.80 89.14L164.80 89.13L164.74 89.08Q162.43 89.02 161.60 88.60L161.72 88.72L161.69 88.69Q161.41 88.00 161.41 87.52L161.28 87.39L161.28 87.39Q160.96 82.34 165.52 80.33L165.60 80.41L165.60 80.41Q166.67 79.77 167.85 79.89Z"/><path d="M9 96 C159 46,166 11,330 55" stroke="#e886b7" fill="none"/><path d="M3 118 C189 65,167 80,327 94" stroke="#b63fde" fill="none"/></svg>