<svg xmlns="http://www.w3.org/2000/svg" width="342" height="140" viewBox="0,0,342,140"><path d="M8 28 C173 19,156 19,324 3" stroke="#8aeed5" fill="none"/><path d="M12 121 C171 23,182 85,325 123" stroke="#7993e0" fill="none"/><path d="M15 72 C190 76,162 94,331 116" stroke="#e88bba" fill="none"/><path d="M13 78 C175 124,173 19,331 5" stroke="#d7d75f" fill="none"/><path d="M5 27 C171 82,161 51,334 116" stroke="#dc6f8a" fill="none"/><path d="M20 134 C190 127,156 16,323 129" stroke="#eded87" fill="none"/><path d="M19 122 C182 89,187 19,330 121" stroke="#4ae2bc" fill="none"/><path d="M14 71 C184 11,177 44,322 112" stroke="#e689b7" fill="none"/><path d="M3 75 C182 54,157 130,325 76" stroke="#6a6ae0" fill="none"/><path d="M9 60 C160 101,187 135,337 6" stroke="#e89377" fill="none"/><path fill="#62e8e8" d="M58.03 97.79L57.90 97.66L58.01 97.77Q50.59 98.12 48.81 93.93L48.92 94.04L48.77 93.88Q50.14 92.17 52.95 88.94L53.06 89.04L53.08 89.07Q53.99 92.72 59.41 92.93L59.37 92.89L59.36 92.88Q65.41 92.95 68.36 90.55L68.37 90.56L68.35 90.53Q70.91 87.67 70.77 82.80L70.81 82.84L70.72 82.75Q70.63 73.80 61.98 74.21L61.84 74.07L61.91 74.14Q56.81 74.40 53.66 76.67L53.65 76.66L53.03 76.31L52.74 76.17L52.61 76.03Q53.29 70.40 53.09 65.46L53.03 65.40L53.14 65.51Q52.95 60.79 52.33 54.81L52.25 54.73L52.26 54.74Q58.90 56.51 65.77 56.30L65.78 56.31L65.70 56.24Q72.64 56.18 79.10 53.91L79.08 53.89L78.05 56.64L78.02 56.61Q77.51 58.02 77.17 59.53L77.05 59.41L77.19 59.56Q71.46 61.31 64.46 61.31L64.43 61.28L64.57 61.43Q61.92 61.38 59.24 61.10L59.16 61.02L59.23 61.09Q59.13 62.37 58.51 70.40L58.40 70.28L58.40 70.29Q60.06 69.61 63.76 69.33L63.65 69.22L63.72 69.29Q70.44 69.70 73.05 72.72L72.98 72.64L73.11 72.77Q75.58 75.52 76.06 82.46L75.96 82.36L76.01 82.40Q76.41 89.87 74.21 93.51L74.17 93.47L74.30 93.60Q70.52 96.89 64.54 97.30L64.68 97.44L64.65 97.41Q62.73 97.41 57.92 97.68ZM68.92 101.89L68.87 101.84L68.91 101.87Q75.16 102.08 78.59 100.09L78.60 100.10L78.42 99.92Q80.36 97.33 80.36 93.55L80.35 93.54L80.25 93.44Q80.22 87.85 78.50 80.43L78.66 80.59L78.57 80.50Q77.80 77.26 75.61 74.72L75.76 74.88L75.86 75.04L75.30 74.35L74.74 74.07L74.63 73.95Q74.24 72.81 73.08 71.57L72.95 71.45L73.05 71.61L73.09 71.65Q70.29 68.58 63.63 68.58L63.63 68.58L63.09 68.52L63.06 68.49Q63.31 67.57 63.65 65.58L63.51 65.44L63.70 65.63Q72.54 65.68 79.81 62.73L79.81 62.72L79.78 62.70Q80.68 60.30 82.40 55.22L82.36 55.18L78.63 56.95L78.62 56.93Q79.23 54.79 80.12 52.73L80.13 52.74L80.24 52.86Q73.32 55.47 65.90 55.61L65.85 55.55L65.77 55.48Q58.41 55.74 51.27 53.75L51.31 53.79L51.20 53.68Q52.44 61.65 52.44 69.62L52.43 69.60L52.47 69.64Q52.45 73.05 52.24 76.49L52.36 76.61L52.32 76.56Q52.84 76.95 53.87 77.50L53.77 77.40L53.84 77.46Q54.49 77.09 55.66 76.47L55.53 76.35L55.58 76.39Q55.53 77.78 55.11 80.53L55.12 80.53L55.11 80.52Q55.87 80.87 56.62 81.28L56.51 81.17L56.61 81.27Q61.67 78.16 65.04 78.16L64.95 78.07L65.02 78.14Q67.30 78.02 69.43 79.19L69.50 79.26L69.44 79.20Q70.07 81.06 70.13 82.78L70.18 82.82L70.26 82.90Q70.25 87.42 68.39 89.41L68.48 89.50L68.50 89.51Q66.09 91.78 62.04 92.19L62.00 92.15L62.03 92.18Q60.24 92.24 59.00 92.11L59.08 92.18L58.94 92.04Q57.43 91.83 56.05 91.22L56.07 91.23L56.01 90.83L55.92 91.15L55.81 91.04Q54.48 90.26 53.52 87.86L53.37 87.71L53.48 87.82Q51.04 90.32 48.02 94.17L47.95 94.10L48.07 94.22Q48.53 95.30 50.05 97.02L50.00 96.97L50.11 97.09Q52.05 100.39 57.13 101.29L57.05 101.21L57.00 101.16Q59.25 101.69 68.93 101.89Z"/><path d="M10 57 C165 99,191 105,321 130" stroke="#3c67e5" fill="none"/><path d="M10 31 C168 117,157 1,337 81" stroke="#e73a3a" fill="none"/><path d="M16 71 C177 53,158 106,326 41" stroke="#edb277" fill="none"/><path fill="#e744bf" d="M137.67 73.94L137.60 73.87L137.67 73.93Q139.01 73.84 141.55 73.56L141.59 73.60L141.58 73.59Q141.52 74.76 141.52 75.93L141.66 76.07L141.62 78.30L141.64 78.32Q140.11 78.30 138.60 78.44L138.57 78.40L138.48 78.31Q137.09 78.51 135.58 78.44L135.50 78.36L135.60 78.45Q130.39 89.52 124.21 97.82L124.20 97.82L124.14 97.76Q119.66 98.97 117.32 100.07L117.30 100.05L117.33 100.08Q124.72 89.75 130.21 78.43L130.31 78.52L125.53 78.48L125.54 78.49Q125.50 76.05 125.29 73.64L125.30 73.65L125.22 73.57Q128.71 73.90 132.42 73.90L132.33 73.82L135.96 67.35L135.79 67.18Q137.72 63.89 139.92 61.01L139.94 61.04L139.82 60.91Q137.02 61.20 134.13 61.20L134.13 61.19L134.16 61.22Q123.25 61.30 116.45 57.32L116.41 57.27L115.24 54.19L115.29 54.23Q114.66 52.71 113.97 51.13L113.90 51.06L113.81 50.97Q121.77 55.84 132.07 56.25L132.07 56.25L131.92 56.10Q141.21 56.53 150.48 52.96L150.57 53.05L150.54 53.03Q150.14 53.73 149.25 55.31L149.39 55.44L149.23 55.28Q142.75 63.91 137.60 73.86ZM152.13 57.78L152.20 57.84L154.03 54.24L153.96 54.17Q152.31 55.14 149.29 56.45L149.23 56.39L149.54 55.80L149.53 55.79Q149.84 55.62 150.04 55.41L150.10 55.46L149.96 55.33Q150.60 54.05 151.91 51.64L152.00 51.74L151.96 51.69Q142.36 55.83 131.99 55.41L132.12 55.54L131.94 55.37Q121.23 55.02 112.65 49.67L112.55 49.57L112.67 49.69Q114.45 52.98 115.96 57.78L115.88 57.71L115.98 57.81Q117.87 58.87 119.31 59.42L119.41 59.52L119.43 59.54Q119.61 60.06 120.43 63.43L120.52 63.51L120.56 63.56Q126.21 65.77 136.17 65.50L136.14 65.48L136.09 65.42Q135.58 66.49 132.01 73.29L132.07 73.34L131.93 73.21Q128.21 73.20 124.64 72.85L124.73 72.94L124.83 73.05Q124.82 74.40 124.82 75.98L124.78 75.95L124.98 79.23L127.94 79.17L127.83 81.61L127.81 81.58Q120.79 94.96 115.78 101.41L115.79 101.43L115.90 101.53Q118.78 100.15 121.73 99.26L121.60 99.13L121.72 99.26Q120.40 100.81 117.92 103.90L117.89 103.87L117.84 103.82Q123.58 101.86 127.97 101.45L128.13 101.61L128.07 101.55Q133.30 94.69 138.93 82.47L139.00 82.54L145.09 82.80L145.09 82.80Q145.04 81.24 145.04 79.59L144.99 79.54L144.92 76.24L144.93 76.25Q144.51 76.31 143.51 76.38L143.47 76.34L143.48 76.34Q142.54 76.47 142.06 76.47L141.98 76.39L141.95 76.36Q142.02 76.22 142.09 75.95L142.04 75.90L142.09 75.47L142.01 75.40Q146.69 66.27 152.25 57.89Z"/><path d="M20 48 C167 76,183 44,328 105" stroke="#cded6c" fill="none"/><path d="M15 84 C180 78,162 97,322 110" stroke="#63a0dd" fill="none"/><path d="M10 125 C180 50,171 25,331 43" stroke="#53e377" fill="none"/><path d="M18 67 C176 38,182 54,333 27" stroke="#e0714c" fill="none"/><path d="M7 36 C177 53,182 89,333 15" stroke="#6ee7c9" fill="none"/><path d="M2 42 C184 94,181 13,339 109" stroke="#e4c362" fill="none"/><path d="M12 106 C171 127,164 51,334 74" stroke="#dd4f96" fill="none"/><path d="M2 128 C157 11,175 68,323 33" stroke="#de39de" fill="none"/><path fill="#6febcc" d="M267.91 67.18L267.92 67.19L267.94 67.21Q262.10 67.13 258.80 65.21L258.86 65.27L258.80 65.21Q263.27 62.67 272.06 55.05L272.11 55.11L272.06 55.06Q273.41 54.76 275.75 53.67L275.75 53.67L275.77 53.68Q273.30 64.33 273.10 75.80L273.15 75.85L273.17 75.87Q272.98 87.35 274.90 98.34L274.78 98.22L274.84 98.28Q271.74 96.90 267.90 96.69L267.97 96.76L267.90 96.69Q267.87 89.39 267.87 82.04L267.79 81.96L267.81 81.98Q267.80 74.55 267.87 67.14ZM267.08 71.09L267.15 97.45L267.10 97.40Q269.42 97.53 271.14 97.87L270.99 97.72L271.10 97.83Q271.19 99.02 271.53 101.49L271.56 101.52L271.48 101.44Q276.75 102.52 281.14 106.57L281.20 106.63L281.11 106.54Q276.61 93.66 276.54 80.21L276.53 80.20L276.57 80.23Q276.50 66.84 279.79 53.80L279.70 53.70L279.71 53.71Q278.68 54.40 275.80 56.39L275.81 56.41L275.96 56.56Q276.22 55.10 276.77 52.35L276.85 52.43L276.86 52.44Q274.46 53.81 271.85 54.50L271.66 54.32L271.75 54.40Q264.91 60.81 257.15 64.93L257.24 65.02L257.11 64.90Q259.84 67.07 264.09 67.69L264.00 67.60L263.92 67.51Q262.76 68.48 260.43 70.41L260.48 70.47L260.51 70.49Q263.20 71.19 267.18 71.19L267.23 71.24Z"/><path d="M18 80 C183 93,185 132,326 19" stroke="#a2f088" fill="none"/><path d="M16 22 C157 75,185 15,334 61" stroke="#dda063" fill="none"/><path d="M6 18 C186 29,166 15,337 68" stroke="#7a58de" fill="none"/><path d="M14 88 C183 53,186 38,328 40" stroke="#ef7ab5" fill="none"/><path d="M5 116 C162 106,157 120,326 46" stroke="#cd6ded" fill="none"/><path fill="#e3c362" d="M193.91 91.39L193.95 91.43L193.98 91.46Q195.99 93.06 198.53 92.78L198.52 92.78L198.65 92.90Q203.93 93.24 205.10 87.20L205.05 87.15L205.07 87.18Q206.09 81.40 206.09 75.29L206.23 75.42L206.24 70.76L206.18 70.71Q206.08 68.33 205.46 66.07L205.57 66.18L205.49 66.10Q203.33 70.33 199.76 78.91L199.70 78.85L199.71 78.86Q196.15 87.45 193.95 91.43ZM203.13 61.82L203.11 61.80L203.07 61.76Q201.07 60.38 198.67 60.38L198.58 60.29L198.62 60.33Q195.96 60.07 193.96 61.72L194.01 61.76L193.99 61.74Q191.93 63.32 191.59 66.00L191.59 66.00L191.63 66.05Q190.92 68.42 190.86 71.10L190.87 71.11L190.94 71.18Q191.00 71.25 191.00 76.40L190.94 76.34L190.85 76.25Q190.86 80.51 191.68 87.04L191.69 87.05L191.71 87.07Q195.24 78.58 203.14 61.83ZM205.98 95.77L205.88 95.67L205.82 95.61Q202.68 97.27 198.49 97.27L198.62 97.41L195.54 97.28L195.66 97.39Q189.66 97.23 187.60 94.14L187.60 94.14L187.71 94.26Q186.22 90.29 186.08 85.01L186.06 84.98L186.16 85.08Q186.10 81.93 185.96 75.68L185.81 75.53L185.93 75.65Q185.82 73.41 185.55 67.92L185.56 67.94L185.64 68.02Q185.41 63.80 185.96 60.23L185.90 60.17L186.02 60.29Q186.90 54.99 194.73 54.58L194.66 54.52L194.74 54.60Q196.13 54.55 198.54 54.62L198.53 54.60L198.41 54.49Q208.79 54.91 210.71 61.16L210.64 61.09L210.67 61.12Q211.68 64.46 211.61 67.82L211.75 67.97L211.60 67.81Q211.62 76.96 211.48 79.16L211.42 79.11L211.40 79.08Q211.14 86.03 210.59 88.36L210.53 88.31L210.39 88.17Q209.37 93.94 205.93 95.72ZM214.74 95.19L214.75 95.20L214.80 95.25Q215.15 90.17 215.08 86.95L215.13 87.00L214.95 78.65L215.02 78.72Q214.90 73.32 213.94 63.36L214.01 63.43L213.88 63.30Q212.90 59.98 210.57 58.61L210.66 58.71L210.69 58.74Q207.90 54.16 198.56 53.89L198.43 53.76L198.50 53.83Q196.89 53.73 194.49 53.80L194.42 53.72L194.52 53.82Q186.28 53.89 185.39 59.52L185.39 59.52L185.33 59.46Q184.79 63.80 185.00 67.58L185.04 67.62L184.90 67.48Q185.53 75.39 185.46 81.43L185.46 81.43L185.55 81.52Q185.40 88.10 185.60 89.95L185.69 90.04L185.72 90.06Q186.24 95.46 188.98 96.90L189.02 96.94L189.04 96.95Q191.66 100.88 198.87 101.37L198.86 101.36L198.95 101.44Q205.50 101.95 206.66 101.88L206.65 101.86L206.50 101.72Q211.66 101.45 213.72 98.57L213.80 98.65L213.88 98.73Q214.74 97.46 214.88 95.33ZM199.39 92.27L199.32 92.20L199.20 92.08Q200.59 89.62 202.51 84.75L202.36 84.60L205.57 77.10L205.47 76.99Q205.49 80.04 204.80 86.08L204.86 86.13L204.72 86.00Q203.53 91.19 199.20 92.08ZM195.68 69.96L195.75 70.03L195.63 69.90Q196.62 66.84 197.86 65.81L197.77 65.73L197.86 65.81Q198.60 64.98 200.94 64.64L200.90 64.60L200.91 64.61Q197.92 71.30 194.56 79.68L194.51 79.63L194.55 79.67Q194.58 74.82 195.81 70.08Z"/><path d="M20 37 C165 69,175 77,322 96" stroke="#ba8fe4" fill="none"/><path d="M16 107 C165 56,175 57,327 33" stroke="#7350dc" fill="none"/><path d="M17 27 C174 10,181 136,321 72" stroke="#d8f08d" fill="none"/><path d="M18 117 C162 79,150 21,339 52" stroke="#e3e38c" fill="none"/><path d="M15 120 C178 14,159 120,330 60" stroke="#6abfdc" fill="none"/><path d="M6 80 C184 86,182 35,331 133" stroke="#90eea7" fill="none"/><path d="M9 94 C165 62,185 26,322 5" stroke="#e53ce5" fill="none"/><path d="M10 23 C188 27,168 109,329 22" stroke="#5bdb9b" fill="none"/><path d="M7 101 C178 20,167 95,324 87" stroke="#e23a64" fill="none"/><path d="M8 133 C162 114,160 97,331 35" stroke="#f0d37f" fill="none"/><path d="M6 75 C177 69,156 98,325 97" stroke="#3939e4" fill="none"/><path d="M18 80 C167 85,166 126,336 66" stroke="#de9e5e" fill="none"/><path d="M7 62 C181 76,182 21,335 131" stroke="#43d443" fill="none"/><path d="M2 107 C171 100,157 110,324 80" stroke="#9e58e3" fill="none"/></svg>