<svg xmlns="http://www.w3.org/2000/svg" width="342" height="140" viewBox="0,0,342,140"><path d="M10 7 C169 46,173 97,324 43" stroke="#e7aa6e" fill="none"/><path d="M7 1 C152 5,175 72,323 66" stroke="#79f0f0" fill="none"/><path d="M3 9 C172 100,180 16,331 62" stroke="#8c6de8" fill="none"/><path d="M16 99 C177 94,158 77,331 73" stroke="#4f4fe2" fill="none"/><path fill="#5de3c2" d="M159.20 82.44L159.32 82.56L159.20 82.45Q164.14 81.94 169.16 82.12L169.20 82.15L169.23 82.18Q169.05 78.05 169.05 74.28L169.04 74.27L169.17 74.40Q169.10 70.45 169.40 66.44L169.44 66.47L169.41 66.45Q167.53 69.18 159.34 82.58ZM174.86 94.09L174.77 94.01L174.76 93.99Q172.25 93.64 169.44 93.52L169.37 93.44L169.38 93.46Q169.01 89.68 168.83 85.79L168.97 85.93L168.86 85.82Q160.54 85.57 153.12 87.79L153.20 87.86L153.02 87.69Q153.33 87.04 153.63 85.49L153.54 85.40L153.50 85.35Q156.39 80.47 162.02 70.60L162.00 70.58L162.10 70.69Q166.57 62.95 171.96 56.85L171.93 56.83L171.91 56.81Q173.39 56.61 176.02 56.19L176.03 56.20L175.90 56.06Q172.87 66.14 172.87 77.21L173.01 77.34L173.01 77.34Q173.05 79.72 173.17 82.05L173.18 82.06L175.09 82.12L175.21 82.23Q176.08 82.21 177.04 82.39L176.94 82.29L177.02 82.37Q177.22 83.95 177.64 87.00L177.61 86.97L177.61 86.97Q175.66 86.52 173.33 86.22L173.44 86.33L173.29 86.18Q173.65 89.35 174.73 93.96ZM177.42 81.76L177.40 81.73L177.52 81.85Q177.22 81.74 176.92 81.74L176.91 81.72L176.28 81.70L176.24 81.66Q176.04 79.30 176.04 77.09L176.10 77.15L176.14 77.19Q176.11 67.10 179.34 57.65L179.22 57.53L179.21 57.52Q178.11 58.04 175.84 58.64L175.93 58.73L175.76 58.56Q176.14 57.39 176.86 55.17L176.98 55.30L176.84 55.15Q174.94 55.88 171.71 56.24L171.66 56.20L171.60 56.13Q165.47 62.99 157.28 77.71L157.24 77.67L160.65 72.05L160.51 71.91Q159.93 73.60 159.51 74.50L159.48 74.47L152.53 88.69L152.59 88.75Q153.51 88.42 155.31 87.82L155.32 87.84L155.08 88.19L155.02 88.14Q154.89 89.26 154.42 91.24L154.35 91.18L154.34 91.16Q160.97 89.24 168.57 89.53L168.46 89.43L168.51 89.48Q168.59 91.00 168.89 94.11L168.83 94.05L168.91 94.13Q170.60 94.14 172.28 94.32L172.21 94.26L172.20 94.24Q172.49 95.37 172.91 97.53L172.81 97.43L172.84 97.46Q175.83 97.82 180.56 99.25L180.60 99.30L180.57 99.27Q178.92 95.82 177.48 90.67L177.59 90.78L179.91 91.54L179.90 91.54Q181.01 91.93 182.09 92.46L181.94 92.32L182.09 92.47Q180.81 88.49 180.57 85.86L180.49 85.78L180.56 85.86Q179.56 85.51 177.76 85.15L177.86 85.25L177.76 85.14Q177.43 83.14 177.43 81.77ZM164.79 81.45L164.79 81.45L164.79 81.45Q166.17 79.60 168.62 75.59L168.46 75.43L168.60 75.57Q168.55 77.01 168.49 78.51L168.50 78.52L168.45 78.47Q168.54 80.11 168.60 81.61L168.60 81.61L168.56 81.58Q167.66 81.51 166.76 81.51L166.84 81.58L166.75 81.50Q165.87 81.57 164.91 81.57Z"/><path fill="#d48deb" d="M47.93 94.17L47.87 94.10L47.97 94.21Q41.52 94.52 39.97 90.87L39.96 90.86L39.96 90.86Q41.08 89.29 43.53 86.48L43.59 86.54L43.58 86.53Q44.50 89.84 49.22 90.02L49.04 89.83L49.08 89.87Q54.42 90.01 56.99 87.91L57.00 87.93L57.06 87.98Q59.29 85.48 59.17 81.23L59.06 81.13L59.19 81.26Q58.96 73.31 51.42 73.67L51.33 73.58L51.35 73.59Q46.83 73.74 44.08 75.72L44.11 75.75L43.63 75.51L43.27 75.27L43.23 75.23Q43.88 70.38 43.70 66.07L43.74 66.11L43.71 66.07Q43.42 61.84 42.88 56.63L42.98 56.73L42.89 56.64Q48.67 58.18 54.66 58.00L54.63 57.97L54.73 58.07Q60.71 57.95 66.33 55.98L66.21 55.86L65.41 58.34L65.44 58.38Q64.89 59.50 64.59 60.82L64.61 60.83L64.63 60.85Q59.76 62.50 53.66 62.50L53.58 62.43L53.63 62.47Q51.31 62.43 48.98 62.19L49.05 62.27L49.04 62.25Q48.87 63.28 48.33 70.28L48.42 70.37L48.43 70.37Q49.67 69.58 52.90 69.34L52.82 69.27L52.83 69.27Q58.84 69.78 61.11 72.41L60.99 72.29L61.10 72.40Q63.20 74.73 63.61 80.78L63.65 80.82L63.51 80.67Q63.97 87.29 62.05 90.46L62.08 90.48L62.10 90.51Q58.95 93.52 53.75 93.88L53.82 93.96L53.69 93.83Q52.21 94.02 48.02 94.25ZM57.46 97.77L57.43 97.75L57.47 97.78Q62.79 97.84 65.78 96.10L65.83 96.16L65.85 96.17Q67.35 93.72 67.35 90.43L67.40 90.49L67.41 90.50Q67.39 85.63 65.90 79.17L65.96 79.24L65.83 79.10Q65.19 76.31 63.28 74.10L63.34 74.16L63.44 74.32L62.98 73.74L62.56 73.56L62.57 73.57Q62.14 72.48 61.12 71.40L61.07 71.35L60.95 71.30L61.03 71.37Q58.61 68.71 52.81 68.71L52.93 68.84L52.36 68.69L52.50 68.82Q52.57 67.87 52.87 66.14L52.81 66.08L52.90 66.18Q60.77 66.39 67.11 63.81L66.96 63.66L66.99 63.70Q67.71 61.55 69.21 57.12L69.09 56.99L65.81 58.51L65.83 58.53Q66.52 56.82 67.30 55.03L67.27 55.00L67.33 55.06Q61.12 57.16 54.66 57.28L54.80 57.42L54.72 57.34Q48.38 57.65 42.16 55.91L41.97 55.72L42.12 55.87Q43.09 62.71 43.09 69.65L43.24 69.79L43.19 69.75Q43.06 72.61 42.88 75.60L43.04 75.75L42.89 75.60Q43.34 75.94 44.24 76.41L44.32 76.49L44.30 76.47Q44.79 76.07 45.81 75.53L45.89 75.62L45.75 75.48Q45.74 76.73 45.39 79.12L45.45 79.18L45.48 79.21Q46.11 79.48 46.77 79.84L46.76 79.84L46.79 79.87Q51.03 76.99 53.96 76.99L54.12 77.15L53.95 76.98Q56.03 76.96 57.89 77.98L57.98 78.08L57.95 78.04Q58.53 79.70 58.59 81.20L58.65 81.25L58.64 81.25Q58.67 85.22 57.05 86.96L57.09 86.99L57.11 87.02Q54.96 88.93 51.43 89.29L51.50 89.36L51.31 89.18Q49.95 89.43 48.87 89.31L48.75 89.18L48.86 89.30Q47.60 89.17 46.40 88.63L46.38 88.61L46.25 88.18L46.08 88.37L46.12 88.41Q44.74 87.50 43.90 85.41L43.98 85.49L43.91 85.42Q41.89 87.71 39.26 91.06L39.24 91.04L39.20 91.00Q39.73 92.07 41.04 93.56L41.03 93.55L41.09 93.60Q42.83 96.54 47.25 97.32L47.20 97.26L47.07 97.14Q48.96 97.53 57.40 97.71Z"/><path d="M6 9 C168 114,186 112,339 121" stroke="#d34ad3" fill="none"/><path fill="#d58bed" d="M217.90 94.14L217.92 94.15L217.91 94.14Q211.47 94.46 209.91 90.82L210.01 90.91L209.97 90.87Q211.14 89.35 213.59 86.54L213.63 86.58L213.65 86.60Q214.32 89.66 219.05 89.84L219.06 89.85L219.04 89.83Q224.38 89.97 226.95 87.87L227.11 88.03L227.12 88.04Q229.33 85.53 229.21 81.28L229.05 81.12L229.22 81.29Q228.96 73.31 221.42 73.67L221.25 73.50L221.28 73.53Q216.89 73.80 214.14 75.78L214.13 75.77L213.66 75.53L213.42 75.42L213.41 75.41Q213.93 70.42 213.75 66.12L213.76 66.13L213.60 65.97Q213.56 61.98 213.02 56.77L212.99 56.75L212.88 56.63Q218.66 58.16 224.64 57.98L224.70 58.04L224.62 57.96Q230.75 57.99 236.37 56.01L236.32 55.96L235.43 58.37L235.39 58.32Q234.99 59.60 234.69 60.92L234.59 60.82L234.64 60.87Q229.78 62.53 223.68 62.53L223.59 62.44L223.63 62.48Q221.42 62.54 219.08 62.30L218.97 62.19L219.11 62.32Q218.87 63.28 218.33 70.28L218.35 70.30L218.28 70.23Q219.59 69.50 222.82 69.26L222.83 69.28L222.81 69.25Q228.75 69.69 231.02 72.32L231.11 72.41L231.03 72.33Q233.14 74.68 233.56 80.72L233.64 80.80L233.63 80.80Q233.99 87.32 232.08 90.49L232.08 90.49L232.17 90.58Q229.00 93.57 223.79 93.93L223.64 93.77L223.67 93.81Q222.04 93.85 217.85 94.09ZM227.38 97.70L227.54 97.85L227.42 97.73Q232.78 97.83 235.77 96.10L235.77 96.10L235.82 96.14Q237.44 93.81 237.44 90.52L237.33 90.41L237.47 90.55Q237.34 85.58 235.85 79.12L235.84 79.11L235.81 79.09Q235.36 76.48 233.45 74.27L233.31 74.13L233.41 74.29L233.10 73.86L232.49 73.49L232.47 73.47Q231.97 72.31 230.95 71.23L231.10 71.38L231.13 71.47L231.06 71.40Q228.62 68.72 222.81 68.72L222.79 68.69L222.44 68.76L222.42 68.74Q222.53 67.84 222.83 66.10L222.77 66.05L222.77 66.04Q230.75 66.37 237.09 63.80L237.06 63.76L237.06 63.76Q237.70 61.53 239.20 57.10L239.25 57.15L235.95 58.64L235.86 58.56Q236.43 56.74 237.21 54.94L237.19 54.92L237.26 54.99Q231.22 57.26 224.76 57.38L224.75 57.37L224.69 57.31Q218.23 57.49 212.01 55.76L212.05 55.80L212.08 55.83Q213.19 62.81 213.19 69.75L213.18 69.73L213.23 69.79Q213.07 72.62 212.89 75.61L213.03 75.75L212.92 75.64Q213.33 75.93 214.23 76.41L214.34 76.52L214.20 76.37Q214.78 76.06 215.79 75.52L215.94 75.66L215.85 75.58Q215.71 76.70 215.36 79.09L215.33 79.06L215.37 79.10Q216.02 79.39 216.67 79.75L216.67 79.74L216.66 79.73Q221.02 76.97 223.95 76.97L224.00 77.02L224.10 77.13Q226.16 77.09 228.02 78.11L228.03 78.12L228.06 78.15Q228.51 79.68 228.57 81.17L228.49 81.10L228.64 81.24Q228.70 85.25 227.09 86.99L227.10 87.01L227.00 86.91Q224.86 88.83 221.33 89.19L221.37 89.23L221.40 89.26Q219.93 89.40 218.85 89.28L218.85 89.28L218.74 89.17Q217.50 89.07 216.31 88.53L216.26 88.48L216.16 88.09L216.17 88.46L216.15 88.43Q214.87 87.64 214.04 85.55L214.06 85.57L214.06 85.57Q211.86 87.68 209.23 91.03L209.18 90.98L209.25 91.05Q209.65 91.99 210.97 93.49L211.02 93.54L211.07 93.59Q212.78 96.49 217.21 97.27L217.13 97.19L217.24 97.30Q218.94 97.50 227.37 97.68Z"/><path d="M12 36 C162 13,187 50,333 56" stroke="#48e970" fill="none"/><path d="M11 55 C163 101,175 110,324 18" stroke="#6783da" fill="none"/><path d="M11 37 C189 125,168 84,333 135" stroke="#8ee5e5" fill="none"/><path d="M20 10 C192 92,170 12,330 77" stroke="#e1e179" fill="none"/><path d="M5 9 C169 33,177 137,336 73" stroke="#4cbbe0" fill="none"/><path d="M20 92 C167 46,158 76,324 62" stroke="#d97858" fill="none"/><path d="M13 113 C161 78,167 129,331 29" stroke="#a289ea" fill="none"/><path d="M15 56 C169 30,164 133,339 8" stroke="#66e586" fill="none"/><path fill="#9275ea" d="M114.72 73.36L114.75 73.40L114.67 73.31Q115.95 73.34 118.17 73.10L118.15 73.08L118.23 73.16Q118.08 74.09 118.08 75.11L118.13 75.16L118.25 77.25L118.08 77.08Q116.77 77.09 115.45 77.21L115.58 77.33L115.50 77.25Q114.28 77.41 112.96 77.35L112.89 77.28L112.97 77.36Q108.37 86.93 102.98 94.17L103.01 94.20L102.99 94.17Q99.05 95.20 97.01 96.15L96.99 96.13L97.15 96.29Q103.50 87.21 108.29 77.34L108.24 77.29L104.14 77.31L104.10 77.28Q104.25 75.33 104.07 73.24L103.92 73.09L103.97 73.14Q107.05 73.47 110.28 73.47L110.22 73.41L113.26 67.66L113.20 67.60Q114.79 64.63 116.70 62.12L116.73 62.15L116.75 62.17Q114.28 62.39 111.76 62.39L111.76 62.39L111.62 62.25Q102.22 62.42 96.30 58.95L96.26 58.91L95.23 56.21L95.19 56.16Q94.73 54.93 94.14 53.55L94.03 53.45L94.15 53.56Q100.98 57.70 109.95 58.06L109.96 58.07L109.95 58.06Q117.96 58.36 126.04 55.25L126.04 55.25L126.09 55.30Q125.62 55.78 124.84 57.16L124.87 57.19L125.01 57.33Q119.20 64.68 114.72 73.36ZM127.41 59.37L127.55 59.51L128.91 56.15L129.04 56.27Q127.50 57.00 124.87 58.14L124.90 58.17L125.17 57.66L125.20 57.70Q125.31 57.39 125.49 57.21L125.61 57.33L125.51 57.23Q126.05 56.10 127.19 54.00L127.31 54.13L127.21 54.03Q118.84 57.62 109.81 57.26L109.91 57.36L109.81 57.26Q100.43 56.92 92.96 52.26L92.89 52.18L92.98 52.27Q94.46 55.07 95.77 59.26L95.96 59.45L95.94 59.43Q97.54 60.31 98.79 60.79L98.88 60.87L98.89 60.88Q99.03 61.32 99.74 64.25L99.79 64.29L99.90 64.40Q104.87 66.38 113.54 66.14L113.39 65.99L113.50 66.10Q112.90 66.87 109.79 72.79L109.96 72.97L109.78 72.79Q106.71 72.95 103.60 72.65L103.56 72.61L103.60 72.65Q103.63 73.87 103.63 75.25L103.60 75.22L103.62 77.93L106.34 78.02L106.36 80.26L106.26 80.16Q100.05 91.71 95.68 97.34L95.71 97.36L95.73 97.38Q98.32 96.26 100.89 95.48L100.89 95.49L100.84 95.43Q99.69 96.80 97.54 99.49L97.63 99.58L97.59 99.54Q102.59 97.84 106.42 97.48L106.33 97.40L106.49 97.55Q110.92 91.46 115.82 80.81L115.99 80.97L121.24 81.14L121.30 81.20Q121.11 79.69 121.11 78.25L121.26 78.41L121.17 75.50L121.10 75.44Q120.76 75.51 119.89 75.57L119.90 75.58L119.90 75.58Q119.00 75.61 118.59 75.61L118.55 75.57L118.52 75.54Q118.68 75.52 118.74 75.28L118.75 75.30L118.60 74.73L118.69 74.82Q122.63 66.73 127.47 59.43Z"/><path d="M7 88 C164 74,152 124,332 79" stroke="#4bbce1" fill="none"/><path d="M15 15 C174 100,177 110,330 66" stroke="#53b7d9" fill="none"/><path d="M13 65 C179 37,155 126,324 31" stroke="#eb50eb" fill="none"/><path d="M8 31 C154 48,150 135,338 116" stroke="#87edd3" fill="none"/><path d="M4 138 C186 45,179 3,334 95" stroke="#99e480" fill="none"/><path d="M11 117 C153 50,155 71,332 85" stroke="#d9ba5d" fill="none"/><path fill="#e4b585" d="M272.58 82.49L272.51 82.42L272.60 82.51Q277.47 81.93 282.49 82.11L282.45 82.07L282.48 82.10Q282.38 78.05 282.38 74.29L282.41 74.31L282.45 74.35Q282.49 70.50 282.79 66.49L282.66 66.36L282.62 66.32Q280.85 69.16 272.66 82.57ZM288.23 94.13L288.19 94.09L288.13 94.03Q285.52 93.57 282.71 93.45L282.67 93.41L282.72 93.47Q282.39 89.73 282.21 85.84L282.19 85.82L282.18 85.80Q273.78 85.49 266.37 87.70L266.42 87.76L266.48 87.82Q266.55 86.93 266.85 85.37L266.86 85.38L266.98 85.50Q269.75 80.49 275.37 70.62L275.43 70.69L275.39 70.64Q279.81 62.86 285.20 56.76L285.29 56.85L285.32 56.88Q286.70 56.58 289.33 56.16L289.19 56.02L289.37 56.20Q286.20 66.13 286.20 77.20L286.26 77.26L286.32 77.33Q286.30 79.63 286.42 81.97L286.39 81.94L288.50 82.19L288.37 82.06Q289.44 82.24 290.40 82.42L290.46 82.48L290.36 82.38Q290.57 83.97 290.99 87.02L290.93 86.96L291.03 87.06Q289.01 86.54 286.68 86.24L286.80 86.35L286.64 86.19Q286.99 89.36 288.07 93.97ZM290.70 81.70L290.73 81.73L290.74 81.75Q290.57 81.76 290.27 81.76L290.25 81.73L289.61 81.69L289.59 81.67Q289.42 79.34 289.42 77.13L289.45 77.17L289.44 77.16Q289.48 67.14 292.71 57.69L292.58 57.56L292.71 57.69Q291.41 58.00 289.13 58.60L289.23 58.70L289.08 58.55Q289.45 57.36 290.16 55.14L290.32 55.31L290.29 55.27Q288.25 55.87 285.02 56.22L285.05 56.26L284.90 56.11Q278.84 63.02 270.64 77.74L270.70 77.80L273.87 71.93L273.93 71.99Q273.33 73.67 272.91 74.56L272.79 74.44L265.82 88.65L265.89 88.72Q266.86 88.44 268.66 87.84L268.66 87.84L268.36 88.14L268.36 88.14Q268.31 89.35 267.83 91.32L267.67 91.16L267.78 91.27Q274.29 89.22 281.89 89.52L281.79 89.42L281.73 89.37Q281.83 90.91 282.13 94.02L282.10 93.98L282.25 94.13Q283.92 94.13 285.60 94.31L285.54 94.25L285.48 94.19Q285.74 95.29 286.16 97.45L286.18 97.46L286.14 97.42Q289.18 97.83 293.90 99.27L293.84 99.20L293.84 99.20Q292.42 95.99 290.99 90.84L290.83 90.69L293.27 91.57L293.14 91.44Q294.16 91.75 295.24 92.29L295.42 92.46L295.37 92.42Q294.05 88.40 293.81 85.77L293.91 85.88L293.93 85.89Q292.86 85.48 291.07 85.12L291.06 85.12L291.20 85.25Q290.79 83.17 290.79 81.79ZM278.22 81.55L278.23 81.56L278.26 81.59Q279.37 79.46 281.82 75.46L281.89 75.53L281.93 75.57Q281.82 76.95 281.76 78.44L281.77 78.46L281.71 78.40Q281.74 79.98 281.80 81.48L281.95 81.63L281.95 81.63Q280.94 81.45 280.04 81.45L280.10 81.52L280.06 81.47Q279.20 81.57 278.24 81.57Z"/><path d="M13 35 C188 88,183 55,334 12" stroke="#bf62de" fill="none"/><path d="M10 127 C163 63,150 121,332 3" stroke="#e56161" fill="none"/><path d="M15 85 C159 14,155 68,324 56" stroke="#df5dbe" fill="none"/><path d="M11 74 C184 83,192 40,325 137" stroke="#d34f70" fill="none"/><path d="M8 135 C173 32,166 27,340 37" stroke="#e8c762" fill="none"/><path d="M6 16 C160 101,171 71,336 25" stroke="#dc8a6f" fill="none"/><path d="M11 84 C183 62,164 5,329 14" stroke="#54d875" fill="none"/><path d="M3 87 C166 43,157 51,337 15" stroke="#8c42d5" fill="none"/><path d="M10 13 C166 49,160 92,329 134" stroke="#30e8ba" fill="none"/><path d="M9 26 C176 43,188 81,335 12" stroke="#886bdf" fill="none"/><path d="M15 5 C152 60,184 119,330 105" stroke="#e4859d" fill="none"/><path d="M21 37 C189 133,159 50,339 84" stroke="#8ae4b7" fill="none"/><path d="M10 136 C183 5,185 70,322 96" stroke="#a187ec" fill="none"/><path d="M11 96 C176 36,188 4,340 49" stroke="#90e4a5" fill="none"/><path d="M20 5 C172 61,156 119,333 128" stroke="#7e99eb" fill="none"/><path d="M17 127 C169 62,174 3,334 49" stroke="#7c7ce8" fill="none"/><path d="M3 128 C184 37,184 32,338 15" stroke="#6161e5" fill="none"/><path d="M12 9 C158 136,165 124,338 62" stroke="#b9e240" fill="none"/><path d="M6 16 C173 61,179 108,340 69" stroke="#b7ef7f" fill="none"/><path d="M19 80 C171 125,187 94,326 67" stroke="#77e3e3" fill="none"/><path d="M17 61 C155 101,185 138,321 86" stroke="#b95ed8" fill="none"/></svg>