<svg xmlns="http://www.w3.org/2000/svg" width="342" height="140" viewBox="0,0,342,140"><path d="M7 33 C191 44,182 133,337 40" stroke="#ebb279" fill="none"/><path d="M5 98 C191 59,174 77,323 57" stroke="#e47591" fill="none"/><path d="M14 56 C181 97,178 34,326 133" stroke="#54e2be" fill="none"/><path d="M2 83 C171 13,174 61,327 74" stroke="#7beeee" fill="none"/><path d="M16 4 C185 45,174 64,323 65" stroke="#e862e8" fill="none"/><path d="M12 84 C188 33,179 133,329 123" stroke="#92bce6" fill="none"/><path d="M11 8 C181 17,190 43,336 117" stroke="#e575c9" fill="none"/><path d="M9 28 C185 51,192 39,321 125" stroke="#9847ea" fill="none"/><path d="M12 46 C177 22,163 37,327 116" stroke="#a8e16f" fill="none"/><path d="M7 57 C155 100,169 34,326 26" stroke="#af7ce3" fill="none"/><path d="M11 3 C167 101,174 57,336 59" stroke="#9644e7" fill="none"/><path d="M7 30 C164 15,164 80,327 2" stroke="#cf71ee" fill="none"/><path d="M8 90 C171 61,169 28,331 116" stroke="#e697e6" fill="none"/><path d="M7 138 C186 29,168 5,323 93" stroke="#e24fbd" fill="none"/><path d="M6 93 C187 95,157 25,338 119" stroke="#e6e645" fill="none"/><path d="M17 117 C172 17,166 131,330 124" stroke="#6942e0" fill="none"/><path fill="#ee6c8c" d="M47.74 94.73L47.77 94.76L47.74 94.73Q41.20 95.10 39.61 91.37L39.57 91.33L39.51 91.26Q40.79 89.79 43.29 86.91L43.24 86.86L43.37 86.99Q44.22 90.29 49.06 90.47L48.91 90.32L48.95 90.37Q54.39 90.48 57.02 88.34L57.09 88.41L56.95 88.27Q59.28 85.77 59.16 81.43L59.21 81.47L59.08 81.35Q58.93 73.30 51.22 73.67L51.23 73.68L51.24 73.69Q46.76 73.98 43.94 76.00L43.84 75.90L43.27 75.57L43.05 75.47L43.00 75.42Q43.57 70.36 43.39 65.96L43.35 65.93L43.34 65.91Q43.30 61.83 42.75 56.51L42.75 56.51L42.75 56.51Q48.49 57.91 54.61 57.72L54.59 57.70L54.61 57.72Q60.71 57.59 66.46 55.57L66.59 55.69L65.64 58.11L65.59 58.06Q65.12 59.30 64.81 60.64L64.80 60.64L64.77 60.60Q59.87 62.37 53.63 62.37L53.45 62.19L53.54 62.29Q51.13 62.20 48.74 61.95L48.79 62.00L48.77 61.98Q48.78 63.22 48.23 70.38L48.25 70.39L48.16 70.30Q49.54 69.60 52.84 69.36L52.82 69.33L52.81 69.32Q58.79 69.68 61.12 72.37L61.15 72.41L61.11 72.36Q63.37 74.87 63.80 81.04L63.84 81.09L63.86 81.11Q64.18 87.73 62.23 90.98L62.23 90.98L62.22 90.97Q59.01 94.06 53.68 94.43L53.57 94.31L53.72 94.47Q51.97 94.43 47.69 94.67ZM57.43 98.35L57.47 98.39L57.55 98.48Q63.00 98.54 66.06 96.77L66.03 96.74L66.06 96.77Q67.65 94.32 67.65 90.96L67.70 91.01L67.67 90.97Q67.67 86.03 66.15 79.42L66.08 79.35L66.02 79.29Q65.38 76.45 63.43 74.19L63.51 74.28L63.64 74.46L63.25 73.95L62.69 73.63L62.74 73.69Q62.27 72.55 61.23 71.45L61.20 71.41L61.21 71.48L61.08 71.35Q58.72 68.75 52.78 68.75L52.70 68.66L52.27 68.66L52.33 68.72Q52.51 67.86 52.82 66.09L52.80 66.07L52.66 65.93Q60.77 66.21 67.26 63.58L67.17 63.49L67.23 63.56Q67.85 61.24 69.38 56.71L69.38 56.71L66.15 58.38L66.11 58.33Q66.65 56.43 67.45 54.60L67.57 54.72L67.47 54.62Q61.28 56.93 54.67 57.05L54.61 57.00L54.72 57.10Q48.06 57.24 41.70 55.46L41.65 55.41L41.67 55.43Q42.93 62.69 42.93 69.79L42.82 69.68L42.92 69.77Q42.76 72.68 42.58 75.74L42.71 75.87L42.70 75.85Q43.14 76.17 44.06 76.66L43.99 76.60L44.00 76.61Q44.53 76.22 45.57 75.67L45.57 75.67L45.68 75.78Q45.51 76.89 45.14 79.34L45.14 79.34L45.07 79.27Q45.87 79.70 46.54 80.06L46.57 80.09L46.55 80.07Q51.01 77.25 54.00 77.25L54.00 77.25L53.98 77.22Q56.06 77.16 57.95 78.20L58.01 78.26L57.94 78.19Q58.51 79.86 58.57 81.39L58.71 81.53L58.64 81.45Q58.71 85.57 57.06 87.34L57.00 87.28L57.13 87.41Q54.97 89.41 51.36 89.77L51.20 89.62L51.18 89.60Q49.78 89.85 48.68 89.73L48.69 89.74L48.69 89.74Q47.22 89.43 45.99 88.88L46.15 89.03L45.99 88.57L45.79 88.73L45.93 88.87Q44.56 87.99 43.70 85.85L43.76 85.91L43.79 85.94Q41.62 88.18 38.93 91.60L38.77 91.44L38.84 91.51Q39.26 92.48 40.60 94.01L40.65 94.06L40.70 94.10Q42.44 97.07 46.97 97.87L46.92 97.82L47.01 97.91Q48.92 98.29 57.54 98.47Z"/><path d="M11 120 C176 22,163 122,330 92" stroke="#7592ea" fill="none"/><path d="M12 85 C155 57,191 66,335 139" stroke="#72afed" fill="none"/><path d="M6 65 C157 44,184 13,327 115" stroke="#75efd1" fill="none"/><path d="M12 11 C165 70,153 80,332 134" stroke="#e56ae5" fill="none"/><path d="M12 101 C166 23,152 31,328 72" stroke="#e89849" fill="none"/><path d="M11 29 C159 79,163 73,333 10" stroke="#40bde7" fill="none"/><path d="M15 79 C187 45,172 77,335 111" stroke="#a3e660" fill="none"/><path fill="#a8eb64" d="M279.69 67.49L279.57 67.37L279.56 67.36Q274.49 67.43 271.55 65.71L271.61 65.77L271.61 65.77Q275.65 63.57 283.48 56.77L283.43 56.73L283.35 56.64Q284.59 56.42 286.67 55.44L286.65 55.42L286.73 55.51Q284.43 64.89 284.25 75.10L284.41 75.26L284.39 75.25Q284.21 85.47 285.93 95.26L285.83 95.17L285.82 95.16Q283.09 93.95 279.66 93.77L279.85 93.96L279.78 93.89Q279.59 87.22 279.59 80.67L279.49 80.57L279.52 80.60Q279.53 74.00 279.59 67.39ZM279.12 71.14L279.07 94.53L278.96 94.42Q281.05 94.54 282.58 94.85L282.42 94.69L282.57 94.84Q282.68 95.93 282.99 98.13L282.85 98.00L282.99 98.14Q287.48 98.90 291.40 102.51L291.50 102.61L291.43 102.54Q287.49 91.14 287.43 79.14L287.36 79.08L287.39 79.11Q287.32 67.16 290.25 55.54L290.21 55.50L290.27 55.56Q289.36 56.17 286.79 57.94L286.88 58.03L286.85 58.00Q287.16 56.79 287.65 54.34L287.60 54.29L287.54 54.23Q285.48 55.53 283.15 56.14L283.16 56.15L283.11 56.10Q277.10 61.90 270.19 65.57L270.11 65.49L270.15 65.54Q272.49 67.38 276.28 67.93L276.28 67.93L276.28 67.93Q275.18 68.73 273.10 70.45L273.03 70.37L273.02 70.37Q275.43 71.00 278.98 71.00L278.99 71.01Z"/><path d="M18 80 C161 106,161 46,326 112" stroke="#63ecca" fill="none"/><path fill="#99e150" d="M114.74 73.43L114.74 73.42L114.86 73.54Q116.16 73.56 118.42 73.32L118.37 73.26L118.34 73.23Q118.28 74.28 118.28 75.32L118.25 75.28L118.34 77.40L118.39 77.44Q116.87 77.26 115.52 77.39L115.65 77.52L115.53 77.39Q114.20 77.47 112.85 77.41L112.92 77.48L112.93 77.48Q108.30 87.36 102.79 94.76L102.79 94.76L102.91 94.87Q98.80 95.84 96.72 96.82L96.68 96.78L96.79 96.90Q103.22 87.55 108.12 77.45L108.18 77.51L103.94 77.49L103.92 77.47Q103.99 75.40 103.80 73.26L103.82 73.28L103.83 73.28Q106.85 73.49 110.16 73.49L110.06 73.39L113.15 67.49L113.16 67.51Q114.85 64.54 116.80 61.97L116.71 61.87L116.73 61.90Q114.21 62.12 111.64 62.12L111.67 62.15L111.73 62.22Q101.85 62.12 95.79 58.58L95.87 58.65L94.73 55.80L94.85 55.92Q94.20 54.48 93.59 53.07L93.70 53.19L93.60 53.08Q100.67 57.40 109.85 57.76L109.71 57.63L109.85 57.77Q118.10 58.12 126.36 54.94L126.37 54.95L126.27 54.85Q125.96 55.52 125.17 56.93L125.23 56.99L125.17 56.93Q119.30 64.53 114.71 73.40ZM127.83 59.23L127.71 59.11L129.43 56.00L129.46 56.03Q127.84 56.73 125.15 57.89L125.11 57.86L125.51 57.46L125.39 57.34Q125.59 57.11 125.77 56.93L125.85 57.00L125.74 56.89Q126.34 55.78 127.50 53.64L127.64 53.78L127.61 53.75Q118.93 57.30 109.69 56.94L109.81 57.06L109.81 57.06Q100.07 56.55 92.42 51.78L92.49 51.85L92.39 51.75Q94.16 54.86 95.51 59.15L95.43 59.07L95.43 59.07Q97.17 60.08 98.46 60.57L98.43 60.54L98.52 60.63Q98.82 61.23 99.55 64.23L99.59 64.27L99.48 64.16Q104.59 66.21 113.46 65.97L113.41 65.91L113.36 65.86Q112.91 66.83 109.73 72.88L109.81 72.96L109.69 72.84Q106.58 73.03 103.39 72.73L103.20 72.54L103.34 72.67Q103.35 73.90 103.35 75.31L103.50 75.46L103.50 78.22L106.03 78.06L106.06 80.34L106.07 80.36Q99.88 92.34 95.42 98.09L95.41 98.09L95.38 98.06Q97.84 96.72 100.47 95.93L100.59 96.05L100.61 96.06Q99.36 97.38 97.16 100.14L97.26 100.24L97.24 100.22Q102.30 98.43 106.22 98.07L106.21 98.06L106.24 98.09Q110.90 91.98 115.92 81.09L116.05 81.22L121.50 81.47L121.50 81.47Q121.26 79.89 121.26 78.42L121.38 78.54L121.34 75.62L121.30 75.58Q120.90 75.61 120.01 75.67L119.99 75.65L119.99 75.65Q119.12 75.72 118.69 75.72L118.64 75.67L118.71 75.75Q118.64 75.49 118.70 75.25L118.81 75.35L118.86 74.98L118.86 74.98Q122.78 66.60 127.74 59.14Z"/><path d="M11 135 C163 120,171 78,336 115" stroke="#86d0e8" fill="none"/><path d="M13 66 C177 37,170 96,326 27" stroke="#9bdd59" fill="none"/><path d="M8 93 C171 42,171 12,334 33" stroke="#eb5aa3" fill="none"/><path fill="#d4ef85" d="M165.15 76.56L165.22 76.63L165.29 76.70Q162.28 76.45 160.30 78.74L160.24 78.69L160.26 78.71Q158.29 81.02 157.98 84.08L158.02 84.11L157.97 84.07Q157.68 87.45 159.42 89.01L159.41 88.99L159.29 88.87Q161.09 90.49 164.45 90.30L164.44 90.29L164.39 90.24Q167.84 90.08 169.61 88.97L169.52 88.88L169.62 88.99Q171.39 87.15 171.39 84.64L171.51 84.75L171.35 84.60Q171.54 84.17 171.41 83.56L171.25 83.39L171.25 83.39Q171.54 80.87 169.76 78.69L169.68 78.61L169.67 78.60Q167.87 76.41 165.18 76.59ZM164.44 94.38L164.47 94.42L164.52 94.47Q157.57 94.56 155.31 93.33L155.13 93.16L155.32 93.35Q153.61 92.07 153.31 89.31L153.20 89.21L153.36 89.36Q153.29 88.26 153.36 87.10L153.36 87.11L153.27 87.01Q153.49 85.46 153.49 84.73L153.45 84.68L153.40 84.64Q154.10 80.01 154.35 78.91L154.50 79.07L154.35 78.91Q155.20 75.91 156.55 73.65L156.56 73.66L156.58 73.68Q160.77 66.55 170.31 56.33L170.31 56.32L170.33 56.35Q174.55 55.79 178.10 54.51L178.24 54.66L178.07 54.48Q167.10 66.52 161.96 73.31L162.10 73.45L161.94 73.29Q163.53 72.49 165.61 72.49L165.59 72.47L165.66 72.54Q171.01 72.57 173.46 75.69L173.39 75.62L173.56 75.79Q175.51 78.24 176.06 83.93L176.15 84.01L176.07 83.93Q176.25 85.15 176.25 86.13L176.30 86.18L176.24 86.12Q176.18 91.08 172.64 92.80L172.73 92.89L172.65 92.81Q170.82 93.92 164.58 94.53ZM168.19 98.32L168.19 98.32L168.24 98.37Q170.28 98.27 173.46 98.39L173.55 98.48L173.36 98.29Q176.14 98.56 178.65 97.40L178.62 97.37L178.69 97.44Q180.38 96.08 180.38 93.20L180.47 93.29L180.30 93.12Q180.32 92.34 180.04 90.75L180.17 90.88L180.18 90.89Q179.92 89.31 179.92 88.58L179.89 88.55L179.87 88.53Q178.38 80.86 175.81 77.80L175.76 77.75L175.86 77.85Q175.72 77.65 175.47 77.28L175.41 77.22L174.97 76.90L174.91 76.90L174.88 76.87Q174.30 76.05 173.32 74.52L173.43 74.62L173.24 74.43Q171.77 72.90 168.59 72.17L168.64 72.22L168.75 72.32Q170.68 69.73 175.45 63.79L175.40 63.74L182.29 55.34L182.13 55.18Q179.79 56.76 175.94 57.98L175.75 57.79L175.88 57.92Q177.31 56.29 180.18 53.11L180.25 53.17L180.26 53.19Q176.37 54.86 170.13 55.78L170.11 55.77L170.05 55.70Q160.89 65.20 156.12 73.16L156.20 73.24L156.24 73.28Q153.61 77.14 152.69 87.17L152.86 87.34L152.83 87.31Q152.56 88.08 152.68 89.61L152.71 89.63L152.74 89.66Q152.84 92.46 154.62 93.93L154.74 94.05L154.68 93.99Q155.31 94.26 155.25 94.32L155.28 94.34L155.26 94.33Q155.79 95.71 157.07 96.38L157.18 96.49L157.05 96.36Q159.35 97.44 162.47 97.74L162.53 97.81L162.65 97.92Q162.52 97.79 168.15 98.28ZM167.88 80.34L167.83 80.28L167.75 80.21Q168.75 80.10 170.28 80.89L170.28 80.89L170.35 80.96Q170.84 82.43 170.84 83.47L170.83 83.47L170.73 83.36Q171.06 86.39 169.53 87.98L169.57 88.02L169.58 88.02Q167.80 89.12 164.44 89.61L164.43 89.60L164.43 89.61Q162.15 89.65 161.29 89.22L161.35 89.28L161.34 89.27Q161.12 88.62 161.12 88.13L160.99 88.01L161.06 88.07Q160.64 82.76 165.35 80.68L165.43 80.76L165.28 80.61Q166.67 80.22 167.90 80.35Z"/><path d="M9 31 C160 43,158 98,336 76" stroke="#e3e368" fill="none"/><path d="M6 75 C183 22,173 138,327 3" stroke="#df7552" fill="none"/><path d="M20 48 C182 112,158 71,322 18" stroke="#e2e236" fill="none"/><path d="M13 124 C150 114,184 60,332 57" stroke="#eb6586" fill="none"/><path d="M9 84 C159 21,181 80,336 11" stroke="#e95858" fill="none"/><path d="M6 20 C184 46,191 106,323 70" stroke="#e64596" fill="none"/><path d="M14 27 C164 29,166 38,334 40" stroke="#ef8989" fill="none"/><path d="M20 62 C151 74,186 86,325 56" stroke="#9ee287" fill="none"/><path d="M5 73 C164 78,179 59,335 64" stroke="#3e91e4" fill="none"/><path d="M20 80 C172 77,171 37,336 9" stroke="#d5d548" fill="none"/><path fill="#bbe344" d="M217.77 94.76L217.75 94.74L217.76 94.74Q211.22 95.12 209.63 91.39L209.60 91.35L209.58 91.34Q210.91 89.91 213.41 87.03L213.29 86.90L213.27 86.89Q214.17 90.23 219.00 90.42L218.90 90.32L218.99 90.41Q224.49 90.58 227.12 88.44L227.04 88.36L227.07 88.39Q229.31 85.80 229.19 81.45L229.08 81.35L229.26 81.52Q228.89 73.27 221.19 73.63L221.12 73.57L221.30 73.75Q216.67 73.89 213.86 75.91L213.89 75.95L213.24 75.54L212.94 75.36L213.11 75.53Q213.66 70.46 213.48 66.05L213.38 65.95L213.39 65.96Q213.12 61.65 212.57 56.33L212.71 56.47L212.59 56.35Q218.51 57.93 224.63 57.74L224.66 57.78L224.60 57.72Q230.72 57.59 236.47 55.57L236.42 55.52L235.60 58.07L235.52 57.99Q235.08 59.27 234.78 60.61L234.74 60.58L234.81 60.65Q229.72 62.23 223.48 62.23L223.55 62.30L223.45 62.20Q221.21 62.28 218.82 62.03L218.85 62.06L218.91 62.12Q218.73 63.16 218.17 70.32L218.14 70.28L218.23 70.37Q219.59 69.65 222.89 69.41L222.82 69.33L222.74 69.26Q228.83 69.71 231.15 72.41L231.11 72.36L231.15 72.40Q233.32 74.82 233.75 81.00L233.86 81.11L233.74 80.99Q234.17 87.72 232.21 90.96L232.16 90.92L232.28 91.03Q228.97 94.02 223.64 94.39L223.62 94.37L223.70 94.45Q222.10 94.56 217.82 94.80ZM227.53 98.45L227.47 98.40L227.43 98.36Q232.93 98.48 235.99 96.70L236.09 96.80L236.10 96.81Q237.72 94.39 237.72 91.02L237.69 91.00L237.58 90.89Q237.63 85.98 236.10 79.38L236.05 79.32L236.15 79.43Q235.52 76.59 233.56 74.33L233.57 74.33L233.52 74.35L233.30 74.01L232.68 73.63L232.65 73.60Q232.15 72.43 231.11 71.33L231.12 71.33L231.04 71.31L231.10 71.38Q228.71 68.74 222.78 68.74L222.76 68.72L222.42 68.81L222.32 68.71Q222.39 67.74 222.69 65.96L222.68 65.96L222.78 66.05Q230.75 66.19 237.24 63.56L237.32 63.64L237.27 63.60Q237.84 61.23 239.37 56.70L239.43 56.76L236.11 58.33L236.15 58.38Q236.76 56.54 237.56 54.70L237.49 54.64L237.40 54.55Q231.24 56.89 224.63 57.02L224.67 57.05L224.71 57.09Q218.19 57.36 211.83 55.59L211.69 55.46L211.75 55.51Q212.88 62.63 212.88 69.73L212.92 69.77L212.84 69.69Q212.84 72.75 212.66 75.81L212.68 75.83L212.62 75.78Q213.11 76.14 214.03 76.63L214.09 76.70L213.93 76.54Q214.51 76.20 215.55 75.65L215.63 75.73L215.57 75.67Q215.49 76.87 215.12 79.32L215.07 79.27L215.13 79.33Q215.86 79.69 216.54 80.06L216.55 80.08L216.53 80.05Q220.90 77.14 223.89 77.14L224.07 77.32L224.05 77.29Q226.10 77.21 228.00 78.25L227.94 78.19L227.94 78.19Q228.50 79.85 228.56 81.38L228.60 81.42L228.69 81.51Q228.76 85.62 227.11 87.39L227.10 87.38L227.08 87.36Q224.95 89.39 221.34 89.75L221.30 89.72L221.29 89.71Q219.83 89.90 218.73 89.77L218.74 89.79L218.66 89.71Q217.26 89.48 216.04 88.93L216.06 88.95L216.04 88.61L215.75 88.70L215.87 88.82Q214.48 87.91 213.62 85.77L213.75 85.90L213.72 85.87Q211.51 88.07 208.82 91.49L208.80 91.48L208.77 91.44Q209.40 92.63 210.75 94.16L210.70 94.11L210.75 94.15Q212.44 97.08 216.97 97.87L216.89 97.79L216.84 97.74Q218.77 98.14 227.40 98.32Z"/><path d="M5 89 C192 121,159 108,328 67" stroke="#3d8cdb" fill="none"/><path d="M18 126 C188 52,176 12,338 39" stroke="#e14646" fill="none"/><path d="M10 54 C168 28,188 22,329 120" stroke="#6ceeee" fill="none"/></svg>