<svg xmlns="http://www.w3.org/2000/svg" width="342" height="140" viewBox="0,0,342,140"><path fill="#7d5ddf" d="M200.04 67.24L200.14 67.33L200.18 67.38Q194.58 67.20 191.48 65.39L191.52 65.43L191.65 65.56Q195.79 63.12 204.06 55.95L204.14 56.03L204.02 55.91Q205.33 55.67 207.53 54.64L207.45 54.56L207.56 54.67Q205.16 64.61 204.97 75.39L205.06 75.49L205.12 75.55Q204.83 86.24 206.64 96.57L206.66 96.59L206.64 96.57Q203.76 95.30 200.14 95.11L200.24 95.20L200.27 95.23Q200.03 88.15 200.03 81.24L200.01 81.22L200.04 81.25Q200.07 74.31 200.14 67.33ZM199.42 71.07L199.38 95.76L199.51 95.90Q201.43 95.75 203.05 96.08L203.20 96.23L203.16 96.19Q203.28 97.34 203.61 99.67L203.59 99.66L203.56 99.62Q208.38 100.51 212.52 104.32L212.47 104.27L212.61 104.41Q208.40 92.32 208.33 79.66L208.37 79.70L208.38 79.71Q208.22 67.02 211.32 54.75L211.34 54.77L211.21 54.64Q210.36 55.40 207.65 57.28L207.72 57.35L207.60 57.22Q207.89 55.90 208.40 53.32L208.50 53.42L208.49 53.41Q206.30 54.77 203.85 55.41L203.73 55.30L203.78 55.35Q197.37 61.40 190.07 65.28L190.17 65.37L190.06 65.26Q192.52 67.21 196.53 67.79L196.55 67.81L196.51 67.78Q195.39 68.65 193.19 70.46L193.27 70.54L193.13 70.40Q195.70 71.10 199.45 71.10L199.43 71.08Z"/><path d="M18 91 C182 21,152 126,327 1" stroke="#bd50e1" fill="none"/><path d="M8 95 C186 115,151 35,324 15" stroke="#e36283" fill="none"/><path d="M14 69 C156 61,166 136,321 3" stroke="#56e59e" fill="none"/><path d="M16 137 C190 63,162 55,327 132" stroke="#e443bc" fill="none"/><path d="M2 138 C151 31,157 112,336 24" stroke="#d85959" fill="none"/><path d="M15 99 C169 35,170 75,336 106" stroke="#da5cda" fill="none"/><path d="M7 60 C171 96,183 136,327 126" stroke="#8d73dd" fill="none"/><path fill="#d6d65b" d="M273.62 73.75L273.54 73.67L273.58 73.71Q274.83 73.60 277.22 73.35L277.35 73.47L277.21 73.34Q277.29 74.58 277.29 75.68L277.31 75.70L277.15 77.67L277.24 77.76Q275.75 77.69 274.33 77.82L274.47 77.96L274.38 77.87Q273.00 77.97 271.58 77.91L271.60 77.94L271.62 77.95Q266.77 88.40 260.96 96.22L260.92 96.19L260.97 96.24Q256.63 97.25 254.43 98.29L254.46 98.31L254.47 98.32Q261.39 88.58 266.56 77.92L266.66 78.03L262.09 77.91L262.21 78.03Q262.12 75.69 261.93 73.43L261.84 73.34L261.94 73.43Q265.07 73.59 268.55 73.59L268.59 73.63L271.92 67.47L271.83 67.37Q273.46 64.10 275.53 61.39L275.61 61.47L275.70 61.56Q273.00 61.76 270.29 61.76L270.21 61.69L270.27 61.75Q259.99 61.80 253.60 58.06L253.58 58.04L252.50 55.15L252.36 55.01Q251.83 53.64 251.18 52.15L251.25 52.22L251.23 52.20Q258.51 56.57 268.19 56.96L268.34 57.10L268.27 57.04Q277.04 57.47 285.75 54.11L285.66 54.02L285.71 54.07Q285.45 54.84 284.61 56.33L284.56 56.27L284.57 56.28Q278.41 64.34 273.57 73.70ZM287.31 58.64L287.30 58.63L288.98 55.21L288.99 55.22Q287.41 56.09 284.56 57.31L284.56 57.31L284.74 56.65L284.70 56.61Q285.08 56.54 285.27 56.34L285.20 56.27L285.22 56.29Q285.81 55.08 287.04 52.81L287.06 52.84L287.01 52.78Q277.93 56.62 268.18 56.23L268.22 56.27L268.18 56.24Q258.09 55.90 250.02 50.86L249.89 50.74L249.90 50.74Q251.71 53.97 253.13 58.49L253.17 58.53L253.24 58.60Q254.99 59.58 256.35 60.09L256.37 60.12L256.29 60.04Q256.61 60.68 257.39 63.85L257.36 63.82L257.36 63.82Q262.67 65.90 272.03 65.64L272.13 65.74L272.04 65.64Q271.65 66.74 268.29 73.13L268.34 73.19L268.33 73.18Q264.85 73.18 261.49 72.86L261.36 72.72L261.38 72.74Q261.56 74.22 261.56 75.70L261.49 75.64L261.45 78.50L264.38 78.59L264.38 80.98L264.38 80.97Q257.74 93.52 253.02 99.59L253.04 99.61L252.93 99.50Q255.72 98.28 258.50 97.44L258.53 97.48L258.53 97.47Q257.40 99.06 255.07 101.96L254.99 101.88L255.00 101.89Q260.43 100.08 264.56 99.69L264.49 99.63L264.53 99.67Q269.51 93.28 274.80 81.78L274.81 81.78L280.57 82.06L280.66 82.15Q280.48 80.54 280.48 78.99L280.52 79.04L280.54 76.02L280.50 75.98Q279.95 75.89 279.02 75.95L279.06 75.99L279.07 76.01Q278.12 76.06 277.67 76.06L277.58 75.97L277.63 76.02Q277.72 75.92 277.79 75.66L277.65 75.52L277.65 75.07L277.81 75.23Q281.92 66.36 287.15 58.48Z"/><path d="M6 86 C176 30,187 85,329 9" stroke="#b2d646" fill="none"/><path fill="#e48262" d="M130.97 77.01L131.14 77.18L130.98 77.03Q127.86 77.07 125.79 79.33L125.89 79.42L125.76 79.29Q123.84 81.70 123.58 84.93L123.58 84.93L123.54 84.89Q123.19 88.48 125.26 90.19L125.30 90.24L125.22 90.16Q127.24 91.82 130.86 91.69L130.89 91.73L130.93 91.77Q134.91 91.54 136.52 89.93L136.57 89.98L136.46 89.87Q138.31 87.52 138.12 84.42L138.02 84.33L137.99 84.29Q137.81 81.15 135.97 79.11L136.08 79.21L136.08 79.22Q134.17 77.11 131.07 77.11ZM130.98 61.07L130.91 61.00L130.99 61.08Q128.63 60.92 126.37 61.76L126.26 61.65L126.25 61.64Q124.18 63.12 124.57 66.29L124.46 66.17L124.53 66.25Q125.41 72.62 131.10 72.62L131.10 72.62L130.99 72.51Q133.65 72.85 135.33 70.91L135.46 71.05L135.48 71.06Q137.05 69.01 137.11 66.36L137.18 66.43L137.13 66.38Q137.24 63.40 136.02 62.36L136.01 62.36L135.99 62.34Q133.16 60.93 130.96 61.05ZM130.55 95.97L130.59 96.01L125.39 95.98L125.44 96.03Q122.74 95.91 120.48 94.43L120.61 94.56L120.58 94.52Q118.11 92.45 118.37 87.60L118.47 87.70L118.40 87.63Q119.26 76.09 125.39 74.41L125.30 74.32L125.28 74.30Q121.48 72.82 119.22 63.72L119.23 63.73L119.18 63.67Q118.60 61.29 118.73 59.93L118.77 59.97L118.73 59.93Q119.28 56.34 125.54 56.28L125.48 56.22L125.51 56.25Q132.70 56.14 135.15 56.46L135.13 56.44L135.14 56.45Q141.62 57.31 142.40 60.74L142.42 60.75L142.46 60.80Q142.76 61.93 142.76 62.58L142.64 62.47L142.73 62.55Q142.74 63.73 142.42 64.76L142.35 64.69L142.44 64.79Q141.31 71.85 136.33 74.43L136.36 74.46L136.40 74.50Q142.28 75.80 143.12 84.78L143.22 84.88L143.12 84.78Q143.14 85.05 143.20 87.25L143.20 87.24L143.26 87.30Q143.26 91.82 140.55 93.63L140.59 93.67L140.70 93.78Q138.26 95.16 130.51 95.93ZM134.48 99.97L134.47 99.95L140.03 99.96L140.01 99.94Q143.07 100.22 145.66 99.00L145.64 98.98L145.57 98.91Q147.60 97.78 147.73 94.61L147.64 94.52L147.56 94.44Q147.72 92.66 147.07 89.37L147.05 89.35L147.17 89.47Q145.57 81.54 142.02 78.38L141.89 78.25L141.60 77.63L141.26 77.16L141.10 76.81L141.12 76.83Q143.90 74.51 145.45 67.47L145.41 67.43L145.32 67.34Q145.33 66.71 145.46 65.29L145.43 65.25L145.44 65.27Q145.71 64.25 145.59 63.21L145.48 63.11L145.56 63.19Q145.35 60.78 143.35 59.94L143.17 59.77L143.27 59.80L142.97 59.63L143.03 59.69Q142.51 58.40 140.51 57.04L140.52 57.05L140.65 57.12L140.68 57.15Q137.31 55.97 130.40 55.64L130.33 55.58L130.38 55.63Q127.73 55.44 125.41 55.63L125.28 55.50L125.39 55.61Q124.08 55.72 121.88 55.98L121.81 55.90L121.77 55.87Q118.57 56.60 118.18 59.38L118.22 59.42L118.18 59.38Q118.13 60.24 118.20 61.60L118.22 61.62L118.21 61.61Q118.34 62.44 119.30 66.45L119.39 66.54L119.35 66.49Q120.60 71.88 123.57 74.14L123.61 74.18L123.69 74.26L123.79 74.36Q119.13 76.60 118.22 85.39L118.07 85.24L118.06 85.22Q117.82 89.05 117.82 90.60L117.73 90.51L117.80 90.58Q117.90 93.59 119.90 95.14L119.90 95.14L119.97 95.20Q120.24 95.41 120.69 95.73L120.51 95.55L120.64 95.68Q122.44 99.61 134.51 100.00ZM133.85 81.12L133.78 81.05L133.88 81.15Q135.49 81.08 136.97 81.85L136.85 81.74L136.80 81.68Q137.58 83.49 137.51 84.40L137.37 84.25L137.45 84.33Q137.48 84.82 137.48 85.34L137.59 85.44L137.48 85.34Q137.57 89.43 133.70 90.85L133.56 90.71L133.72 90.87Q132.20 91.23 130.85 91.03L131.00 91.19L131.02 91.21Q129.07 91.32 127.13 90.55L127.11 90.53L127.14 90.55Q126.74 89.51 126.87 87.83L126.78 87.75L126.84 87.80Q127.12 85.11 129.16 83.05L129.05 82.94L129.15 83.04Q131.08 80.87 133.79 81.06ZM134.14 64.95L134.13 64.93L134.29 65.09Q135.66 64.91 136.56 65.17L136.55 65.15L136.48 66.44L136.56 66.52Q136.56 68.91 135.01 70.63L134.92 70.53L134.89 70.51Q133.38 72.26 131.06 71.94L131.11 71.99L131.11 71.99Q129.29 71.85 128.58 71.46L128.58 71.46L128.70 71.58Q128.58 71.07 128.39 69.91L128.32 69.84L128.45 69.97Q127.86 67.45 129.93 66.03L130.06 66.15L129.99 66.08Q131.78 64.90 134.17 64.97Z"/><path fill="#8ce38c" d="M58.60 96.12L58.48 96.00L58.48 96.00Q51.74 96.56 50.06 92.62L50.06 92.62L50.00 92.56Q51.25 90.90 53.90 87.87L53.97 87.94L53.90 87.87Q54.81 91.36 59.91 91.55L59.92 91.56L59.94 91.58Q65.64 91.66 68.41 89.40L68.34 89.33L68.45 89.44Q70.82 86.70 70.69 82.12L70.55 81.98L70.71 82.14Q70.30 73.40 62.16 73.78L62.16 73.78L62.22 73.84Q57.52 74.18 54.55 76.31L54.48 76.24L53.95 75.97L53.58 75.73L53.70 75.84Q54.18 70.39 53.99 65.74L53.94 65.70L53.90 65.65Q53.69 61.18 53.11 55.56L53.22 55.68L53.26 55.71Q59.49 57.36 65.95 57.17L65.77 56.99L65.91 57.12Q72.24 56.87 78.31 54.74L78.32 54.74L77.39 57.37L77.52 57.49Q76.85 58.64 76.53 60.06L76.59 60.12L76.62 60.15Q71.26 61.83 64.67 61.83L64.80 61.95L64.79 61.94Q62.29 61.90 59.78 61.65L59.79 61.66L59.70 61.57Q59.70 62.86 59.12 70.42L59.03 70.33L58.97 70.27Q60.46 69.57 63.95 69.31L63.88 69.24L63.89 69.25Q70.21 69.63 72.67 72.47L72.72 72.53L72.69 72.50Q74.98 75.05 75.44 81.57L75.51 81.64L75.55 81.69Q75.96 88.75 73.90 92.17L73.79 92.07L73.88 92.16Q70.53 95.46 64.92 95.85L64.82 95.76L64.85 95.78Q63.17 95.91 58.65 96.17ZM68.85 99.98L68.92 100.05L68.74 99.87Q74.66 100.10 77.89 98.23L77.92 98.26L77.79 98.13Q79.47 95.55 79.47 92.00L79.53 92.06L79.64 92.17Q79.51 86.81 77.90 79.84L77.92 79.86L78.03 79.97Q77.31 76.92 75.25 74.53L75.15 74.44L75.27 74.62L74.95 74.18L74.35 73.83L74.27 73.75Q73.73 72.50 72.63 71.34L72.62 71.32L72.67 71.44L72.74 71.51Q70.21 68.73 63.95 68.73L63.96 68.74L63.41 68.64L63.33 68.56Q63.56 67.69 63.88 65.82L63.83 65.76L63.81 65.75Q72.34 66.01 79.18 63.23L79.17 63.22L79.07 63.12Q79.86 60.81 81.48 56.03L81.46 56.02L77.93 57.65L78.04 57.76Q78.53 55.67 79.37 53.73L79.49 53.85L79.38 53.74Q72.90 56.23 65.92 56.36L65.91 56.35L66.00 56.44Q59.03 56.64 52.31 54.76L52.25 54.70L52.31 54.77Q53.41 62.19 53.41 69.68L53.39 69.66L53.38 69.66Q53.41 72.91 53.22 76.14L53.24 76.16L53.24 76.16Q53.75 76.54 54.72 77.06L54.65 76.99L54.65 77.00Q55.29 76.67 56.39 76.09L56.38 76.07L56.34 76.04Q56.18 77.23 55.79 79.82L55.89 79.91L55.96 79.98Q56.52 80.16 57.23 80.54L57.27 80.58L57.23 80.55Q61.99 77.61 65.15 77.61L65.17 77.64L65.09 77.55Q67.33 77.53 69.33 78.63L69.33 78.63L69.40 78.70Q70.09 80.55 70.15 82.16L70.00 82.01L70.04 82.05Q70.20 86.47 68.45 88.34L68.41 88.30L68.47 88.36Q66.22 90.50 62.40 90.88L62.42 90.89L62.34 90.82Q60.79 91.01 59.63 90.88L59.57 90.83L59.59 90.85Q58.06 90.55 56.77 89.96L56.85 90.04L56.70 89.57L56.62 89.88L56.59 89.85Q55.26 89.03 54.35 86.77L54.25 86.66L54.35 86.77Q52.07 89.14 49.23 92.75L49.18 92.71L49.21 92.73Q49.76 93.86 51.18 95.48L51.05 95.35L51.10 95.40Q53.03 98.62 57.81 99.46L57.77 99.42L57.83 99.48Q59.79 99.82 68.89 100.02Z"/><path d="M18 62 C177 79,184 125,329 125" stroke="#e85858" fill="none"/><path d="M9 63 C191 93,177 118,339 40" stroke="#6cd34a" fill="none"/><path d="M13 77 C183 15,173 7,338 104" stroke="#68d345" fill="none"/><path d="M20 130 C172 127,150 96,329 75" stroke="#80e980" fill="none"/><path d="M19 8 C158 19,174 124,331 77" stroke="#6687ea" fill="none"/><path d="M13 92 C168 77,183 64,325 76" stroke="#85e4b5" fill="none"/><path d="M18 84 C181 129,166 113,321 88" stroke="#a058e9" fill="none"/><path d="M17 70 C170 92,187 49,340 54" stroke="#7ee55b" fill="none"/><path d="M4 21 C150 13,186 110,332 117" stroke="#a8e56a" fill="none"/><path d="M13 50 C165 67,151 81,327 75" stroke="#71e4e4" fill="none"/><path d="M9 77 C182 110,186 116,337 114" stroke="#9ced82" fill="none"/><path d="M6 58 C189 90,192 32,329 8" stroke="#4ae2e2" fill="none"/><path d="M17 127 C159 81,174 50,336 119" stroke="#dc6a86" fill="none"/><path d="M18 72 C184 83,189 28,327 116" stroke="#5578e1" fill="none"/><path d="M8 84 C164 70,150 80,322 108" stroke="#a58cf2" fill="none"/><path d="M14 122 C155 105,190 82,332 102" stroke="#e3ad77" fill="none"/><path d="M2 20 C190 9,184 45,323 100" stroke="#50e1bd" fill="none"/><path d="M13 46 C175 10,189 20,328 98" stroke="#d9b753" fill="none"/><path d="M20 134 C159 28,157 5,328 101" stroke="#66c9ea" fill="none"/><path d="M5 139 C191 137,159 126,340 11" stroke="#e183c9" fill="none"/><path d="M3 117 C166 28,157 96,330 111" stroke="#b958d9" fill="none"/><path d="M2 84 C171 80,181 16,341 85" stroke="#9652da" fill="none"/><path d="M5 8 C153 73,171 121,336 11" stroke="#879ee2" fill="none"/><path d="M4 121 C179 64,169 66,331 85" stroke="#e73636" fill="none"/><path d="M2 137 C170 19,151 102,327 50" stroke="#de9348" fill="none"/><path d="M21 106 C178 4,190 50,340 1" stroke="#b5e287" fill="none"/><path d="M18 72 C170 125,157 12,338 89" stroke="#e54ce5" fill="none"/><path d="M7 64 C161 106,163 17,325 84" stroke="#7ce8e8" fill="none"/><path d="M13 113 C162 124,187 19,336 30" stroke="#db5bbb" fill="none"/><path d="M4 44 C167 117,153 4,337 78" stroke="#ef7f9b" fill="none"/><path d="M8 64 C177 111,153 63,338 62" stroke="#70e948" fill="none"/><path d="M10 15 C164 33,172 28,322 7" stroke="#e5e584" fill="none"/></svg>