<svg xmlns="http://www.w3.org/2000/svg" width="342" height="140" viewBox="0,0,342,140"><path d="M2 128 C180 5,172 79,323 49" stroke="#6be443" fill="none"/><path d="M20 77 C178 20,157 98,326 68" stroke="#ed7c98" fill="none"/><path d="M4 12 C173 128,168 82,341 62" stroke="#e1be55" fill="none"/><path d="M17 119 C160 4,167 68,339 22" stroke="#c1e25e" fill="none"/><path d="M3 41 C185 35,179 120,327 110" stroke="#d67a5b" fill="none"/><path d="M8 2 C176 52,173 10,340 36" stroke="#de4e4e" fill="none"/><path d="M4 124 C192 75,169 123,327 12" stroke="#83eb83" fill="none"/><path d="M15 115 C154 134,188 69,336 138" stroke="#d58c42" fill="none"/><path d="M7 64 C169 44,158 95,337 96" stroke="#cb80e4" fill="none"/><path d="M1 52 C164 86,155 32,336 75" stroke="#e84e75" fill="none"/><path d="M4 11 C183 49,157 58,326 119" stroke="#e77954" fill="none"/><path d="M6 120 C160 106,169 37,332 110" stroke="#51d672" fill="none"/><path fill="#5ee85e" d="M263.18 94.09L263.28 94.18L263.21 94.11Q256.78 94.44 255.22 90.79L255.22 90.79L255.26 90.83Q256.45 89.33 258.90 86.51L259.04 86.65L259.00 86.62Q259.81 89.82 264.54 90.00L264.46 89.92L264.38 89.84Q269.84 90.10 272.41 88.00L272.37 87.96L272.30 87.89Q274.57 85.43 274.45 81.18L274.47 81.21L274.39 81.12Q274.12 73.14 266.59 73.50L266.73 73.64L266.69 73.60Q262.17 73.75 259.42 75.73L259.45 75.76L258.88 75.43L258.73 75.40L258.58 75.24Q259.28 70.45 259.10 66.14L259.12 66.15L259.10 66.13Q258.78 61.86 258.24 56.66L258.24 56.66L258.25 56.66Q264.07 58.25 270.06 58.07L270.08 58.09L269.95 57.96Q276.06 57.97 281.69 56.00L281.73 56.04L280.73 58.33L280.76 58.36Q280.30 59.58 280.00 60.89L279.86 60.75L280.02 60.91Q274.95 62.36 268.85 62.36L268.99 62.51L269.02 62.53Q266.72 62.51 264.39 62.27L264.26 62.14L264.41 62.29Q264.28 63.36 263.75 70.36L263.78 70.40L263.70 70.31Q265.09 69.67 268.32 69.43L268.15 69.26L268.14 69.25Q274.10 69.70 276.37 72.34L276.31 72.27L276.42 72.38Q278.45 74.66 278.87 80.70L278.92 80.75L278.94 80.77Q279.33 87.32 277.41 90.49L277.52 90.60L277.43 90.51Q274.20 93.44 268.99 93.80L269.11 93.91L269.09 93.89Q267.52 93.99 263.33 94.23ZM272.70 97.68L272.72 97.70L272.72 97.71Q278.11 97.83 281.10 96.09L281.17 96.16L281.25 96.24Q282.65 93.69 282.65 90.40L282.76 90.51L282.76 90.51Q282.77 85.68 281.28 79.22L281.14 79.08L281.29 79.23Q280.66 76.44 278.74 74.23L278.79 74.28L278.76 74.31L278.40 73.83L277.88 73.54L277.86 73.53Q277.46 72.47 276.45 71.40L276.39 71.34L276.29 71.29L276.29 71.30Q274.06 68.82 268.25 68.82L268.15 68.72L267.66 68.65L267.68 68.67Q267.88 67.85 268.18 66.12L268.11 66.05L268.14 66.08Q275.98 66.27 282.33 63.70L282.44 63.81L282.44 63.81Q283.02 61.51 284.51 57.09L284.43 57.01L281.31 58.67L281.27 58.63Q281.90 56.87 282.68 55.07L282.66 55.06L282.69 55.08Q276.63 57.34 270.17 57.46L270.14 57.44L270.16 57.45Q263.62 57.55 257.40 55.81L257.44 55.86L257.31 55.73Q258.43 62.71 258.43 69.65L258.44 69.67L258.48 69.70Q258.43 72.64 258.25 75.63L258.38 75.76L258.36 75.74Q258.66 75.93 259.56 76.41L259.61 76.46L259.57 76.41Q260.11 76.06 261.13 75.52L261.18 75.57L261.08 75.47Q261.02 76.67 260.66 79.06L260.82 79.22L260.79 79.19Q261.34 79.38 262.00 79.74L262.15 79.89L262.12 79.86Q266.36 76.98 269.29 76.98L269.28 76.97L269.39 77.08Q271.37 76.97 273.22 77.98L273.22 77.98L273.35 78.11Q273.83 79.66 273.89 81.16L273.99 81.26L273.86 81.13Q274.06 85.28 272.45 87.02L272.48 87.05L272.41 86.98Q270.35 88.99 266.83 89.35L266.81 89.34L266.71 89.24Q265.26 89.40 264.18 89.28L264.17 89.27L264.26 89.36Q262.83 89.07 261.64 88.53L261.69 88.59L261.51 88.10L261.34 88.30L261.38 88.33Q260.07 87.51 259.24 85.41L259.38 85.56L259.24 85.42Q257.32 87.80 254.69 91.16L254.54 91.01L254.56 91.03Q255.12 92.13 256.44 93.63L256.41 93.59L256.31 93.49Q258.06 96.45 262.49 97.22L262.47 97.20L262.49 97.22Q264.25 97.48 272.68 97.66Z"/><path d="M16 51 C177 20,184 131,324 128" stroke="#7e59ec" fill="none"/><path d="M3 77 C186 87,154 40,324 6" stroke="#6262ed" fill="none"/><path d="M18 107 C166 102,156 107,335 59" stroke="#e73662" fill="none"/><path d="M20 48 C174 72,191 70,330 81" stroke="#e538e5" fill="none"/><path fill="#8ae4e4" d="M211.87 90.28L211.79 90.20L211.88 90.30Q212.40 91.89 213.24 95.06L213.25 95.07L213.13 94.95Q206.61 92.98 199.38 93.40L199.27 93.29L199.39 93.42Q192.06 93.69 185.78 96.80L185.86 96.88L185.91 96.93Q186.26 95.84 186.32 95.96L186.17 95.81L186.35 95.99Q192.17 89.72 198.33 82.78L198.38 82.83L198.19 82.65Q205.21 74.89 207.06 67.53L207.13 67.59L207.05 67.52Q207.83 64.83 205.83 62.97L205.80 62.94L205.88 63.03Q203.79 61.09 200.98 61.33L200.96 61.31L200.93 61.28Q200.39 61.22 199.85 61.22L199.82 61.19L199.85 61.22Q197.58 61.33 195.60 62.77L195.47 62.63L195.55 62.71Q193.41 64.76 193.77 68.95L193.92 69.10L193.91 69.09Q190.97 68.42 189.05 67.71L189.19 67.85L189.12 67.78Q188.82 65.56 188.70 63.28L188.69 63.28L188.73 63.32Q188.65 60.78 189.60 58.98L189.55 58.93L189.64 59.02Q192.45 56.87 197.72 56.87L197.61 56.76L200.44 56.84L200.34 56.74Q203.97 56.84 205.47 57.02L205.51 57.06L205.56 57.12Q212.31 57.70 212.73 61.53L212.72 61.52L212.74 61.54Q212.84 62.42 212.72 63.68L212.71 63.66L212.80 63.75Q212.72 64.75 212.48 65.83L212.41 65.75L212.35 65.70Q209.75 78.42 197.85 89.18L197.86 89.20L197.94 89.28Q200.22 89.10 202.37 89.10L202.31 89.04L202.34 89.07Q207.34 88.99 211.83 90.24ZM210.92 57.51L210.92 57.51L210.94 57.52Q208.46 56.54 205.77 56.42L205.71 56.37L200.29 56.03L200.41 56.15Q193.32 55.64 189.85 57.38L189.99 57.52L189.93 57.45Q188.31 59.67 188.31 62.90L188.33 62.91L188.25 62.84Q188.33 63.99 188.81 68.42L188.82 68.43L188.72 68.33Q189.53 68.66 191.38 69.14L191.56 69.31L191.39 70.76L191.56 70.93Q191.34 71.48 191.46 72.32L191.60 72.47L191.58 72.44Q193.56 72.63 197.45 72.99L197.45 72.99L197.33 72.87Q197.36 72.37 197.36 71.83L197.25 71.72L197.40 71.86Q197.26 68.85 199.18 66.73L199.17 66.73L199.29 66.84Q201.14 64.66 203.95 64.84L204.06 64.95L204.07 64.95Q205.20 64.94 206.39 65.18L206.33 65.13L206.30 65.09Q206.63 65.84 206.75 66.49L206.57 66.32L206.74 66.49Q206.63 66.98 206.51 67.51L206.55 67.56L206.55 67.55Q204.70 75.16 197.76 82.76L197.60 82.60L197.67 82.66Q194.33 86.21 185.78 95.72L185.79 95.73L185.75 95.69Q185.56 97.11 185.02 98.01L184.98 97.97L184.88 97.87Q187.46 96.56 189.85 95.72L189.85 95.73L189.86 95.73Q188.75 96.65 187.25 98.99L187.24 98.97L187.18 98.92Q187.09 99.54 186.91 100.08L186.87 100.05L186.77 99.94Q194.53 96.81 203.15 97.11L203.10 97.07L203.06 97.03Q212.11 97.40 219.29 101.11L219.31 101.14L217.69 97.72L217.67 97.70Q216.67 95.62 216.25 94.37L216.15 94.26L216.28 94.39Q215.14 93.73 213.23 93.07L213.22 93.07L213.24 93.09Q212.88 91.83 212.28 89.68L212.29 89.69L212.33 89.72Q208.81 88.78 205.23 88.48L205.33 88.59L205.35 88.61Q212.60 81.32 214.99 68.34L215.12 68.47L215.26 63.76L215.36 63.86Q215.26 61.07 213.35 60.00L213.35 60.00L213.22 59.93L213.21 59.91Q213.11 59.75 212.99 59.75L213.06 59.83L213.11 59.88Q212.62 58.43 210.88 57.47Z"/><path d="M9 108 C171 97,154 102,325 9" stroke="#f187a2" fill="none"/><path fill="#b95fd7" d="M131.35 76.51L131.40 76.56L131.37 76.53Q128.41 76.50 126.50 78.59L126.54 78.64L126.61 78.70Q124.74 80.84 124.50 83.83L124.45 83.78L124.44 83.77Q124.18 87.16 126.09 88.75L125.99 88.65L126.09 88.74Q127.97 90.30 131.32 90.18L131.35 90.20L131.26 90.12Q134.95 89.91 136.44 88.42L136.47 88.44L136.44 88.41Q138.09 86.18 137.91 83.31L137.82 83.21L137.97 83.37Q137.77 80.42 136.07 78.53L136.09 78.55L136.08 78.54Q134.34 76.63 131.47 76.63ZM131.36 61.74L131.38 61.76L131.27 61.65Q129.07 61.49 126.98 62.26L127.13 62.42L127.05 62.34Q124.96 63.54 125.32 66.47L125.36 66.51L125.37 66.52Q126.10 72.34 131.37 72.34L131.45 72.42L131.46 72.43Q133.90 72.71 135.45 70.92L135.43 70.90L135.44 70.90Q136.98 69.09 137.04 66.64L137.12 66.72L137.13 66.73Q137.21 63.94 136.08 62.99L135.95 62.86L136.06 62.97Q133.45 61.67 131.41 61.79ZM130.90 94.01L130.89 93.99L126.22 94.11L126.20 94.09Q123.72 94.00 121.62 92.63L121.60 92.60L121.62 92.62Q119.45 90.80 119.68 86.32L119.69 86.33L119.74 86.37Q120.47 75.62 126.16 74.07L126.24 74.15L126.09 74.00Q122.62 72.69 120.53 64.25L120.54 64.26L120.43 64.15Q120.01 62.06 120.13 60.80L119.99 60.66L120.11 60.78Q120.47 57.32 126.28 57.26L126.33 57.31L126.25 57.23Q133.05 57.27 135.32 57.56L135.23 57.47L135.20 57.45Q141.38 58.42 142.10 61.59L141.93 61.42L141.97 61.47Q142.22 62.49 142.22 63.09L142.21 63.08L142.10 62.97Q142.14 64.08 141.84 65.04L141.92 65.12L141.97 65.17Q140.87 71.67 136.26 74.06L136.40 74.20L136.42 74.22Q141.77 75.33 142.55 83.64L142.56 83.65L142.53 83.62Q142.58 83.91 142.64 85.94L142.73 86.03L142.67 85.97Q142.73 90.22 140.22 91.89L140.27 91.95L140.24 91.91Q138.10 93.30 130.92 94.02ZM134.63 97.80L134.49 97.65L139.74 97.76L139.85 97.87Q142.40 97.85 144.79 96.71L144.97 96.88L144.90 96.82Q146.73 95.71 146.85 92.78L146.76 92.69L146.78 92.71Q146.93 91.07 146.33 88.02L146.34 88.03L146.21 87.89Q144.85 80.67 141.56 77.74L141.46 77.65L141.27 77.16L140.96 76.73L140.77 76.36L140.71 76.30Q143.21 74.07 144.65 67.55L144.69 67.59L144.64 67.54Q144.79 67.10 144.91 65.78L144.77 65.64L144.78 65.65Q144.93 64.61 144.81 63.65L144.88 63.71L144.74 63.57Q144.49 61.29 142.64 60.52L142.67 60.55L142.88 60.70L142.53 60.47L142.42 60.36Q142.14 59.36 140.29 58.11L140.27 58.09L140.31 58.07L140.25 58.01Q137.09 56.88 130.69 56.58L130.71 56.61L130.80 56.70Q128.22 56.38 126.06 56.56L126.07 56.57L126.15 56.65Q124.87 56.69 122.84 56.93L122.82 56.91L122.85 56.94Q119.84 57.58 119.49 60.16L119.41 60.08L119.47 60.14Q119.34 60.85 119.40 62.11L119.45 62.15L119.40 62.10Q119.69 63.05 120.59 66.76L120.62 66.80L120.63 66.80Q121.72 71.72 124.47 73.82L124.54 73.88L124.63 73.97L124.58 73.92Q120.21 75.95 119.37 84.09L119.37 84.09L119.51 84.23Q119.19 87.68 119.19 89.12L119.18 89.10L119.13 89.05Q119.24 91.86 121.10 93.29L121.11 93.30L121.07 93.27Q121.38 93.51 121.80 93.81L121.73 93.75L121.66 93.68Q123.28 97.27 134.47 97.63ZM134.04 80.33L134.02 80.31L134.04 80.34Q135.46 80.20 136.84 80.92L136.78 80.86L136.87 80.95Q137.40 82.43 137.34 83.27L137.43 83.37L137.33 83.27Q137.34 83.69 137.34 84.17L137.47 84.30L137.49 84.32Q137.45 87.99 133.86 89.31L133.80 89.24L133.78 89.23Q132.60 89.78 131.35 89.60L131.37 89.63L131.40 89.65Q129.57 89.74 127.77 89.02L127.84 89.09L127.84 89.09Q127.31 87.96 127.43 86.40L127.49 86.47L127.45 86.42Q127.71 83.94 129.60 82.02L129.52 81.94L129.57 82.00Q131.52 80.15 134.03 80.33ZM134.45 65.49L134.33 65.37L134.37 65.41Q135.59 65.19 136.42 65.43L136.41 65.41L136.43 66.69L136.46 66.72Q136.47 68.95 135.03 70.53L134.98 70.47L134.92 70.42Q133.54 72.06 131.39 71.76L131.49 71.86L131.51 71.88Q129.82 71.75 129.16 71.39L129.24 71.47L129.19 71.42Q129.06 70.92 128.88 69.85L129.01 69.98L128.93 69.90Q128.48 67.66 130.40 66.34L130.50 66.45L130.56 66.51Q132.23 65.42 134.44 65.48Z"/><path d="M4 133 C167 117,151 14,323 20" stroke="#8f8fe4" fill="none"/><path d="M2 5 C171 111,181 135,340 68" stroke="#4de4e4" fill="none"/><path d="M7 34 C173 114,180 21,333 12" stroke="#7979e1" fill="none"/><path d="M12 16 C188 129,174 44,324 101" stroke="#6ce46c" fill="none"/><path d="M17 131 C175 45,176 109,332 38" stroke="#e36c44" fill="none"/><path d="M3 111 C171 6,180 112,333 27" stroke="#96eb79" fill="none"/><path d="M13 95 C157 66,184 98,333 14" stroke="#e4718e" fill="none"/><path d="M1 130 C169 36,154 6,323 40" stroke="#e56fc8" fill="none"/><path d="M14 43 C166 114,168 13,330 71" stroke="#efef84" fill="none"/><path d="M18 26 C177 128,172 39,331 56" stroke="#4e4ed9" fill="none"/><path d="M9 51 C181 102,188 81,337 63" stroke="#7bb5ee" fill="none"/><path d="M16 87 C160 125,185 79,335 87" stroke="#55e1be" fill="none"/><path d="M14 12 C175 32,160 96,324 34" stroke="#c3e853" fill="none"/><path d="M11 104 C183 103,176 51,337 67" stroke="#d24646" fill="none"/><path d="M8 67 C177 41,152 19,338 136" stroke="#de77de" fill="none"/><path d="M13 110 C172 108,162 11,328 107" stroke="#74c9e6" fill="none"/><path d="M19 117 C164 114,161 131,325 6" stroke="#dbdb61" fill="none"/><path d="M14 85 C174 108,159 84,327 108" stroke="#b582e7" fill="none"/><path fill="#afe679" d="M59.36 94.26L59.29 94.19L59.17 94.07Q52.95 94.61 51.39 90.96L51.26 90.83L51.26 90.83Q52.49 89.37 54.94 86.56L54.97 86.58L54.95 86.57Q55.75 89.75 60.47 89.93L60.38 89.84L60.49 89.95Q65.71 89.96 68.28 87.87L68.33 87.92L68.32 87.91Q70.65 85.51 70.53 81.26L70.52 81.25L70.39 81.13Q70.12 73.14 62.59 73.50L62.59 73.50L62.70 73.61Q58.23 73.81 55.47 75.78L55.58 75.89L54.91 75.45L54.58 75.24L54.75 75.42Q55.20 70.36 55.02 66.05L55.07 66.10L55.07 66.10Q54.75 61.84 54.22 56.63L54.25 56.67L54.34 56.76Q60.00 58.17 65.98 57.99L65.94 57.95L65.97 57.98Q71.95 57.86 77.58 55.89L77.68 55.99L76.70 58.30L76.70 58.30Q76.34 59.62 76.04 60.93L76.02 60.91L75.94 60.83Q70.96 62.37 64.86 62.37L64.85 62.36L65.01 62.53Q62.74 62.53 60.41 62.29L60.31 62.19L60.30 62.18Q60.25 63.32 59.71 70.32L59.65 70.27L59.59 70.20Q61.09 69.67 64.32 69.43L64.22 69.33L64.32 69.43Q70.09 69.70 72.37 72.33L72.40 72.37L72.27 72.23Q74.51 74.71 74.93 80.76L74.92 80.75L75.03 80.86Q75.40 87.39 73.49 90.56L73.47 90.55L73.43 90.50Q70.23 93.47 65.03 93.83L64.99 93.79L65.13 93.93Q63.49 93.96 59.30 94.20ZM68.86 97.84L68.87 97.85L68.74 97.72Q74.26 97.97 77.25 96.24L77.13 96.12L77.09 96.08Q78.64 93.68 78.64 90.39L78.77 90.52L78.65 90.40Q78.73 85.63 77.23 79.17L77.12 79.06L77.29 79.23Q76.65 76.44 74.74 74.23L74.80 74.29L74.70 74.25L74.30 73.73L73.88 73.55L73.87 73.54Q73.39 72.40 72.37 71.32L72.37 71.31L72.30 71.31L72.38 71.38Q70.03 68.80 64.23 68.80L64.13 68.70L63.71 68.70L63.85 68.84Q63.86 67.83 64.16 66.10L64.13 66.07L64.24 66.18Q72.10 66.38 78.44 63.81L78.33 63.70L78.42 63.79Q78.96 61.45 80.45 57.03L80.55 57.12L77.15 58.51L77.30 58.66Q77.83 56.79 78.60 55.00L78.54 54.94L78.58 54.98Q72.51 57.22 66.05 57.34L66.15 57.44L66.07 57.36Q59.63 57.56 53.41 55.83L53.43 55.85L53.43 55.85Q54.41 62.69 54.41 69.63L54.55 69.77L54.47 69.69Q54.48 72.69 54.30 75.68L54.28 75.66L54.32 75.70Q54.72 75.98 55.62 76.46L55.62 76.47L55.58 76.42Q56.17 76.12 57.19 75.58L57.25 75.64L57.20 75.59Q57.10 76.75 56.74 79.14L56.80 79.20L56.75 79.15Q57.47 79.51 58.13 79.87L58.12 79.86L58.02 79.76Q62.35 76.97 65.28 76.97L65.30 76.99L65.29 76.98Q67.40 76.99 69.25 78.01L69.23 77.99L69.41 78.17Q69.82 79.65 69.88 81.15L69.99 81.27L69.85 81.12Q69.99 85.21 68.37 86.94L68.51 87.08L68.45 87.02Q66.28 88.92 62.75 89.28L62.69 89.22L62.82 89.35Q61.16 89.31 60.09 89.19L60.06 89.16L60.09 89.19Q58.93 89.16 57.73 88.63L57.65 88.54L57.60 88.20L57.44 88.39L57.40 88.35Q56.25 87.69 55.42 85.59L55.28 85.46L55.26 85.44Q53.23 87.71 50.59 91.06L50.53 91.00L50.61 91.07Q51.10 92.11 52.42 93.60L52.37 93.56L52.36 93.55Q54.09 96.47 58.52 97.25L58.44 97.17L58.45 97.18Q60.25 97.48 68.68 97.66Z"/><path d="M2 106 C155 84,181 115,329 61" stroke="#9e60dc" fill="none"/><path d="M21 54 C151 70,154 22,333 106" stroke="#66bddb" fill="none"/><path d="M15 112 C175 36,170 51,326 119" stroke="#8c6cee" fill="none"/><path d="M5 85 C163 49,182 78,334 88" stroke="#92e6bc" fill="none"/><path d="M11 25 C192 81,188 35,324 48" stroke="#714ce0" fill="none"/></svg>