<svg xmlns="http://www.w3.org/2000/svg" width="342" height="140" viewBox="0,0,342,140"><path d="M11 96 C156 53,157 135,329 79" stroke="#ea8e70" fill="none"/><path d="M8 110 C155 55,160 13,337 99" stroke="#d6466a" fill="none"/><path d="M11 119 C167 83,163 127,330 50" stroke="#df5d9e" fill="none"/><path d="M14 67 C177 83,181 54,325 102" stroke="#e65ae6" fill="none"/><path fill="#704be1" d="M58.42 96.69L58.29 96.56L58.42 96.69Q51.22 96.94 49.50 92.91L49.60 93.01L49.54 92.95Q50.84 91.29 53.55 88.19L53.66 88.31L53.65 88.29Q54.45 91.73 59.66 91.93L59.67 91.93L59.73 92.00Q65.65 92.18 68.49 89.88L68.38 89.77L68.37 89.75Q70.90 87.08 70.77 82.39L70.69 82.31L70.80 82.43Q70.48 73.60 62.17 74.00L62.17 73.99L62.06 73.89Q57.29 74.26 54.25 76.43L54.13 76.31L53.58 76.02L53.23 75.81L53.23 75.81Q53.83 70.34 53.63 65.59L53.76 65.71L53.71 65.66Q53.43 61.03 52.84 55.30L52.92 55.38L52.90 55.36Q59.16 56.94 65.75 56.74L65.90 56.89L65.81 56.80Q72.48 56.74 78.68 54.57L78.63 54.52L77.63 57.14L77.67 57.18Q77.04 58.40 76.71 59.85L76.73 59.87L76.80 59.94Q71.45 61.78 64.73 61.78L64.57 61.62L64.61 61.66Q62.09 61.65 59.52 61.39L59.54 61.41L59.58 61.45Q59.37 62.56 58.78 70.27L58.91 70.41L58.80 70.30Q60.28 69.54 63.84 69.27L63.92 69.35L63.82 69.25Q70.26 69.62 72.76 72.52L72.72 72.47L72.77 72.53Q75.23 75.25 75.69 81.91L75.65 81.87L75.73 81.95Q76.08 89.09 73.97 92.59L73.92 92.54L74.05 92.66Q70.52 95.93 64.78 96.32L64.68 96.22L64.70 96.25Q63.03 96.41 58.41 96.68ZM68.91 100.65L68.91 100.65L68.77 100.51Q74.83 100.77 78.13 98.86L78.03 98.76L78.16 98.89Q79.74 96.11 79.74 92.49L79.78 92.53L79.77 92.52Q79.76 87.17 78.11 80.05L78.07 80.01L78.13 80.07Q77.45 77.01 75.34 74.58L75.33 74.56L75.41 74.70L75.14 74.30L74.55 73.97L74.53 73.96Q73.85 72.55 72.72 71.36L72.78 71.42L72.75 71.45L72.91 71.61Q70.25 68.69 63.86 68.69L63.75 68.59L63.38 68.68L63.24 68.53Q63.38 67.55 63.71 65.64L63.69 65.63L63.70 65.63Q72.48 65.97 79.47 63.13L79.43 63.09L79.48 63.15Q80.16 60.67 81.81 55.79L81.77 55.75L78.25 57.50L78.13 57.38Q78.77 55.38 79.63 53.41L79.68 53.46L79.69 53.47Q73.08 56.02 65.96 56.15L65.98 56.18L65.91 56.10Q58.85 56.37 51.99 54.45L51.88 54.34L51.86 54.32Q53.09 62.01 53.09 69.66L53.17 69.74L53.12 69.70Q53.12 72.99 52.92 76.28L52.93 76.30L52.86 76.23Q53.44 76.67 54.43 77.20L54.37 77.14L54.44 77.21Q54.94 76.72 56.06 76.13L56.12 76.19L56.01 76.08Q55.96 77.42 55.57 80.06L55.64 80.13L55.64 80.13Q56.41 80.50 57.13 80.89L57.04 80.80L57.07 80.83Q61.87 77.78 65.10 77.78L65.02 77.70L65.01 77.69Q67.43 77.81 69.47 78.93L69.51 78.96L69.39 78.84Q70.10 80.74 70.17 82.39L70.07 82.29L70.17 82.39Q70.15 86.72 68.37 88.64L68.53 88.80L68.46 88.73Q66.01 90.76 62.12 91.15L62.14 91.18L62.21 91.25Q60.57 91.39 59.38 91.25L59.45 91.32L59.39 91.26Q57.89 91.01 56.57 90.42L56.65 90.50L56.55 90.07L56.36 90.27L56.37 90.29Q54.97 89.42 54.05 87.11L54.04 87.10L53.95 87.01Q51.68 89.49 48.78 93.18L48.80 93.20L48.73 93.13Q49.37 94.37 50.82 96.01L50.85 96.04L50.83 96.03Q52.65 99.16 57.53 100.02L57.56 100.05L57.49 99.98Q59.47 100.31 68.76 100.50Z"/><path d="M12 96 C150 136,161 66,326 55" stroke="#4a70e2" fill="none"/><path d="M11 52 C178 121,156 27,332 83" stroke="#e7ad73" fill="none"/><path d="M20 24 C161 103,179 112,325 89" stroke="#509eeb" fill="none"/><path d="M13 13 C179 55,171 98,327 89" stroke="#5555d7" fill="none"/><path d="M11 117 C179 108,177 65,334 52" stroke="#dd7a59" fill="none"/><path d="M19 46 C163 99,170 110,329 131" stroke="#4ad3d3" fill="none"/><path d="M7 43 C158 106,155 4,325 22" stroke="#d2eb88" fill="none"/><path d="M17 126 C173 90,183 136,330 25" stroke="#c674e1" fill="none"/><path d="M6 13 C152 129,170 100,332 63" stroke="#e96c6c" fill="none"/><path d="M11 135 C166 92,171 53,334 26" stroke="#dddd54" fill="none"/><path fill="#62debf" d="M131.04 77.34L130.87 77.17L130.99 77.29Q127.80 77.33 125.69 79.64L125.56 79.51L125.56 79.50Q123.50 81.86 123.23 85.16L123.24 85.16L123.28 85.21Q122.97 88.92 125.08 90.66L125.00 90.59L124.95 90.54Q127.16 92.38 130.85 92.25L130.74 92.14L130.75 92.15Q134.78 91.89 136.43 90.24L136.51 90.33L136.43 90.25Q138.33 87.86 138.13 84.69L138.17 84.73L138.09 84.65Q137.92 81.45 136.04 79.37L135.96 79.29L136.04 79.37Q134.05 77.19 130.89 77.19ZM130.92 60.93L130.80 60.82L130.85 60.86Q128.53 60.78 126.22 61.64L126.23 61.65L126.10 61.51Q123.89 62.94 124.29 66.17L124.34 66.22L124.28 66.16Q125.12 72.60 130.92 72.60L131.06 72.74L131.04 72.72Q133.76 73.07 135.47 71.09L135.44 71.06L135.32 70.93Q137.16 69.08 137.23 66.38L137.20 66.36L137.24 66.40Q137.32 63.31 136.07 62.25L136.04 62.23L136.04 62.22Q133.07 60.71 130.83 60.84ZM130.39 96.47L130.46 96.54L125.07 96.42L125.06 96.42Q122.54 96.54 120.24 95.02L120.30 95.09L120.24 95.02Q117.92 93.10 118.18 88.15L118.01 87.98L118.16 88.13Q118.97 76.28 125.23 74.56L125.20 74.53L125.15 74.48Q121.13 72.84 118.83 63.54L118.84 63.55L118.99 63.70Q118.23 61.10 118.36 59.71L118.47 59.82L118.49 59.85Q118.95 56.08 125.34 56.01L125.35 56.02L125.36 56.03Q132.65 55.87 135.15 56.20L135.11 56.16L135.11 56.15Q141.81 57.12 142.61 60.62L142.53 60.54L142.63 60.63Q142.81 61.67 142.81 62.33L142.83 62.35L142.76 62.28Q142.89 63.60 142.56 64.65L142.43 64.53L142.59 64.69Q141.45 71.92 136.37 74.56L136.42 74.61L136.39 74.58Q142.44 75.95 143.30 85.11L143.28 85.10L143.27 85.09Q143.38 85.45 143.44 87.70L143.40 87.65L143.26 87.52Q143.57 92.44 140.80 94.28L140.72 94.20L140.76 94.25Q138.27 95.65 130.36 96.44ZM134.46 100.61L134.45 100.60L140.11 100.58L140.21 100.69Q143.13 100.77 145.76 99.51L145.83 99.58L145.89 99.64Q147.83 98.35 147.96 95.12L147.91 95.06L147.94 95.10Q148.05 93.23 147.39 89.87L147.40 89.88L147.28 89.75Q145.73 81.74 142.10 78.51L142.04 78.44L141.86 77.94L141.49 77.43L141.13 76.88L141.25 76.99Q143.96 74.50 145.54 67.31L145.61 67.38L145.58 67.35Q145.59 66.69 145.72 65.24L145.63 65.16L145.76 65.28Q145.91 64.11 145.78 63.06L145.72 63.01L145.66 62.95Q145.38 60.42 143.33 59.56L143.47 59.69L143.41 59.57L143.12 59.41L143.18 59.48Q142.76 58.26 140.72 56.88L140.56 56.73L140.79 56.88L140.67 56.76Q137.35 55.68 130.29 55.36L130.19 55.25L130.25 55.32Q127.47 55.04 125.10 55.24L125.13 55.27L125.06 55.21Q123.68 55.27 121.44 55.54L121.43 55.53L121.47 55.57Q118.19 56.31 117.79 59.14L117.80 59.15L117.68 59.04Q117.70 59.97 117.76 61.36L117.78 61.37L117.78 61.37Q117.97 62.29 118.96 66.38L118.95 66.37L118.90 66.32Q120.39 72.02 123.42 74.33L123.39 74.31L123.56 74.47L123.55 74.46Q118.76 76.73 117.84 85.70L117.75 85.61L117.76 85.62Q117.41 89.42 117.41 91.00L117.44 91.04L117.41 91.00Q117.54 94.10 119.58 95.69L119.60 95.70L119.55 95.65Q119.73 95.77 120.19 96.10L120.25 96.15L120.27 96.17Q122.08 100.16 134.41 100.56ZM133.83 81.38L133.79 81.34L133.88 81.43Q135.31 81.14 136.82 81.93L136.82 81.94L136.86 81.97Q137.58 83.75 137.52 84.67L137.49 84.65L137.48 84.64Q137.59 85.21 137.59 85.73L137.56 85.71L137.56 85.70Q137.58 89.81 133.62 91.26L133.65 91.29L133.64 91.28Q132.31 91.86 130.92 91.66L130.78 91.52L130.87 91.61Q128.99 91.84 127.02 91.05L127.01 91.05L126.85 90.89Q126.42 89.79 126.55 88.08L126.59 88.12L126.55 88.08Q126.78 85.27 128.85 83.16L128.89 83.20L128.87 83.18Q131.02 81.14 133.79 81.34ZM134.18 64.92L134.18 64.92L134.09 64.83Q135.50 64.66 136.43 64.92L136.52 65.02L136.49 66.37L136.49 66.37Q136.41 68.73 134.83 70.48L134.93 70.58L134.84 70.49Q133.40 72.38 131.03 72.05L130.99 72.01L131.01 72.03Q129.28 72.02 128.56 71.62L128.45 71.52L128.43 71.49Q128.53 71.20 128.33 70.01L128.35 70.03L128.19 69.87Q127.76 67.46 129.87 66.01L129.82 65.96L129.96 66.11Q131.70 64.81 134.14 64.88Z"/><path d="M16 63 C183 56,175 116,335 60" stroke="#7adfdf" fill="none"/><path d="M7 35 C163 96,179 27,327 93" stroke="#e8cc77" fill="none"/><path d="M14 46 C176 39,176 54,333 28" stroke="#9ee05b" fill="none"/><path d="M10 20 C161 130,152 4,328 97" stroke="#e84999" fill="none"/><path d="M20 61 C171 18,170 33,333 11" stroke="#a35fe7" fill="none"/><path d="M11 59 C168 56,170 101,338 82" stroke="#e07faf" fill="none"/><path d="M14 48 C182 131,178 115,327 49" stroke="#d84469" fill="none"/><path d="M9 49 C151 60,180 87,322 134" stroke="#dede7c" fill="none"/><path fill="#e54242" d="M268.05 67.27L268.04 67.26L268.01 67.23Q262.42 67.18 259.26 65.34L259.31 65.39L259.31 65.39Q263.70 63.05 272.14 55.73L272.12 55.71L272.08 55.67Q273.33 55.34 275.57 54.28L275.51 54.22L275.52 54.23Q273.33 64.64 273.14 75.65L273.03 75.54L273.16 75.68Q272.91 86.64 274.76 97.19L274.65 97.08L274.65 97.08Q271.88 95.96 268.19 95.77L268.18 95.75L268.20 95.78Q267.85 88.44 267.85 81.38L268.00 81.53L267.97 81.50Q268.03 74.43 268.09 67.31ZM267.31 71.08L267.43 96.45L267.25 96.28Q269.54 96.45 271.19 96.78L271.18 96.78L271.04 96.63Q271.22 97.87 271.55 100.25L271.54 100.24L271.55 100.25Q276.57 101.24 280.79 105.13L280.75 105.09L280.68 105.02Q276.43 92.73 276.37 79.81L276.29 79.73L276.32 79.76Q276.17 66.82 279.33 54.29L279.39 54.34L279.32 54.27Q278.58 55.19 275.81 57.10L275.65 56.94L275.78 57.06Q276.07 55.70 276.59 53.06L276.56 53.03L276.57 53.04Q274.36 54.45 271.85 55.11L271.83 55.10L271.78 55.05Q265.24 61.23 257.79 65.19L257.70 65.09L257.88 65.28Q260.22 67.09 264.30 67.68L264.28 67.66L264.25 67.62Q263.17 68.59 260.93 70.44L260.89 70.40L261.01 70.52Q263.47 71.06 267.29 71.06L267.40 71.17Z"/><path d="M17 31 C161 89,181 115,334 54" stroke="#4568d3" fill="none"/><path fill="#e67650" d="M194.31 96.58L194.34 96.61L194.40 96.67Q187.25 96.97 185.53 92.95L185.59 93.00L185.68 93.09Q187.00 91.44 189.70 88.34L189.61 88.25L189.71 88.35Q190.52 91.80 195.73 92.00L195.63 91.89L195.75 92.02Q201.61 92.14 204.44 89.83L204.30 89.69L204.37 89.75Q206.74 86.92 206.61 82.24L206.69 82.32L206.77 82.40Q206.35 73.47 198.04 73.86L198.17 74.00L198.14 73.97Q193.35 74.31 190.31 76.49L190.17 76.34L189.72 76.17L189.30 75.87L189.20 75.78Q189.80 70.31 189.60 65.56L189.68 65.63L189.73 65.69Q189.49 61.10 188.90 55.36L188.90 55.36L188.91 55.37Q195.14 56.92 201.73 56.72L201.90 56.89L201.76 56.74Q208.36 56.63 214.56 54.45L214.55 54.43L213.55 57.06L213.62 57.14Q213.03 58.39 212.70 59.84L212.75 59.89L212.77 59.91Q207.40 61.73 200.67 61.73L200.66 61.71L200.67 61.72Q198.11 61.67 195.54 61.41L195.53 61.40L195.47 61.34Q195.51 62.69 194.91 70.41L194.78 70.28L194.77 70.26Q196.25 69.50 199.81 69.24L199.91 69.34L199.84 69.27Q206.40 69.76 208.91 72.66L208.80 72.55L208.77 72.53Q211.20 75.22 211.66 81.88L211.62 81.84L211.60 81.82Q212.05 89.07 209.94 92.56L210.09 92.71L210.05 92.67Q206.47 95.88 200.73 96.28L200.79 96.33L200.74 96.28Q198.99 96.38 194.38 96.64ZM204.84 100.58L204.88 100.62L204.85 100.59Q210.70 100.63 213.99 98.72L214.14 98.86L214.12 98.84Q215.71 96.09 215.71 92.46L215.86 92.60L215.89 92.64Q215.80 87.21 214.15 80.09L214.23 80.16L214.24 80.18Q213.41 76.97 211.30 74.53L211.47 74.70L211.37 74.67L211.04 74.21L210.51 73.94L210.47 73.90Q209.95 72.65 208.83 71.46L208.82 71.46L208.77 71.48L208.83 71.54Q206.19 68.63 199.80 68.63L199.72 68.56L199.40 68.70L199.33 68.62Q199.46 67.64 199.79 65.73L199.75 65.69L199.85 65.78Q208.40 65.89 215.39 63.06L215.36 63.03L215.33 63.00Q216.09 60.60 217.74 55.72L217.76 55.73L214.21 57.46L214.22 57.47Q214.78 55.39 215.63 53.41L215.69 53.46L215.60 53.37Q208.98 55.92 201.86 56.05L201.85 56.04L201.92 56.12Q194.77 56.28 187.91 54.37L187.96 54.42L187.95 54.42Q189.12 62.04 189.12 69.69L189.07 69.64L189.14 69.71Q189.08 72.95 188.88 76.25L188.85 76.22L188.88 76.25Q189.41 76.64 190.40 77.17L190.37 77.14L190.30 77.07Q190.95 76.74 192.07 76.14L192.03 76.10L192.00 76.07Q192.06 77.52 191.67 80.15L191.55 80.04L191.56 80.05Q192.34 80.43 193.06 80.82L193.09 80.85L193.08 80.85Q197.83 77.74 201.06 77.74L201.16 77.84L201.05 77.73Q203.44 77.82 205.49 78.94L205.42 78.87L205.53 78.99Q206.03 80.67 206.09 82.32L206.18 82.40L206.02 82.24Q206.31 86.88 204.52 88.79L204.45 88.71L204.54 88.81Q202.10 90.85 198.21 91.24L198.17 91.20L198.17 91.21Q196.56 91.38 195.37 91.24L195.39 91.26L195.42 91.29Q193.84 90.96 192.52 90.37L192.68 90.53L192.44 89.96L192.41 90.33L192.26 90.17Q190.88 89.33 189.96 87.02L189.97 87.03L189.98 87.04Q187.65 89.45 184.75 93.15L184.89 93.29L184.78 93.18Q185.31 94.30 186.76 95.95L186.82 96.01L186.71 95.90Q188.58 99.09 193.46 99.95L193.46 99.95L193.56 100.05Q195.60 100.44 204.89 100.63Z"/><path d="M4 62 C158 32,152 52,326 94" stroke="#46d6d6" fill="none"/><path d="M17 38 C180 90,179 36,334 121" stroke="#a5dc6f" fill="none"/><path d="M15 132 C164 29,158 123,339 125" stroke="#a5f28c" fill="none"/><path d="M17 37 C161 57,179 126,332 134" stroke="#dd9145" fill="none"/><path d="M2 8 C164 57,190 102,338 122" stroke="#75e4e4" fill="none"/><path d="M12 90 C164 104,174 63,337 91" stroke="#71de71" fill="none"/><path d="M17 55 C155 130,171 112,324 123" stroke="#bce542" fill="none"/><path d="M4 130 C160 134,188 26,328 32" stroke="#e4e471" fill="none"/><path d="M15 99 C186 40,158 90,325 117" stroke="#e8c65d" fill="none"/><path d="M15 59 C173 97,187 80,325 58" stroke="#48b2d5" fill="none"/><path d="M19 27 C178 68,152 115,322 7" stroke="#89e689" fill="none"/><path d="M1 82 C158 77,179 121,338 72" stroke="#7757d5" fill="none"/><path d="M16 85 C151 28,156 109,337 104" stroke="#d9934e" fill="none"/><path d="M7 21 C163 61,170 67,336 2" stroke="#dc8e74" fill="none"/><path d="M19 108 C155 53,161 114,331 89" stroke="#82cee7" fill="none"/><path d="M5 63 C182 43,175 78,329 123" stroke="#e26ea8" fill="none"/><path d="M7 107 C166 78,190 59,322 69" stroke="#4c72e5" fill="none"/></svg>