<svg xmlns="http://www.w3.org/2000/svg" width="342" height="140" viewBox="0,0,342,140"><path d="M16 60 C176 68,188 62,339 45" stroke="#6ee7c9" fill="none"/><path d="M13 95 C177 16,178 47,338 74" stroke="#dd9145" fill="none"/><path d="M7 138 C163 77,187 24,327 111" stroke="#bc8aef" fill="none"/><path fill="#e480e4" d="M217.19 96.04L217.16 96.02L217.19 96.04Q210.36 96.51 208.68 92.58L208.59 92.48L208.59 92.48Q209.95 90.94 212.60 87.90L212.53 87.83L212.67 87.97Q213.41 91.29 218.51 91.49L218.49 91.47L218.61 91.58Q224.33 91.69 227.11 89.43L227.15 89.47L227.13 89.45Q229.52 86.74 229.39 82.15L229.39 82.15L229.30 82.07Q229.02 73.45 220.89 73.84L220.83 73.78L220.92 73.87Q216.16 74.16 213.19 76.29L213.24 76.34L212.56 75.91L212.24 75.73L212.28 75.76Q212.94 70.49 212.75 65.84L212.56 65.64L212.59 65.67Q212.46 61.29 211.88 55.67L211.82 55.60L211.79 55.57Q218.12 57.32 224.58 57.13L224.45 57.00L224.50 57.04Q231.03 56.99 237.10 54.86L237.04 54.80L236.03 57.34L236.11 57.42Q235.56 58.68 235.24 60.10L235.24 60.10L235.20 60.06Q230.02 61.93 223.44 61.93L223.43 61.92L223.29 61.78Q220.90 61.84 218.38 61.58L218.37 61.57L218.38 61.58Q218.23 62.73 217.65 70.28L217.74 70.37L217.67 70.31Q219.18 69.62 222.67 69.36L222.62 69.31L222.53 69.22Q229.00 69.75 231.45 72.59L231.45 72.59L231.38 72.52Q233.79 75.18 234.24 81.71L234.16 81.62L234.19 81.65Q234.62 88.73 232.55 92.16L232.55 92.16L232.62 92.23Q229.14 95.40 223.52 95.79L223.42 95.69L223.50 95.77Q221.81 95.88 217.29 96.14ZM227.57 100.03L227.57 100.03L227.56 100.02Q233.29 100.07 236.52 98.20L236.60 98.28L236.65 98.32Q238.27 95.68 238.27 92.13L238.13 91.99L238.25 92.11Q238.33 86.96 236.71 79.98L236.56 79.83L236.56 79.83Q236.04 76.98 233.97 74.59L233.86 74.48L233.89 74.57L233.63 74.19L232.90 73.72L232.96 73.77Q232.39 72.50 231.29 71.33L231.33 71.37L231.29 71.39L231.44 71.54Q228.76 68.60 222.49 68.60L222.48 68.59L222.08 68.64L222.05 68.61Q222.23 67.70 222.56 65.83L222.58 65.84L222.62 65.89Q231.01 66.02 237.86 63.24L237.76 63.14L237.79 63.17Q238.59 60.87 240.20 56.09L240.11 56.00L236.67 57.72L236.59 57.64Q237.34 55.81 238.18 53.87L238.06 53.76L238.02 53.71Q231.60 56.27 224.62 56.40L224.68 56.45L224.70 56.47Q217.61 56.55 210.90 54.68L210.84 54.63L210.86 54.65Q212.08 62.19 212.08 69.68L212.10 69.70L212.05 69.66Q212.08 72.91 211.88 76.14L211.84 76.10L211.92 76.17Q212.33 76.46 213.30 76.98L213.20 76.88L213.32 77.00Q213.84 76.55 214.94 75.97L214.97 76.00L215.07 76.10Q214.84 77.23 214.45 79.81L214.56 79.92L214.46 79.82Q215.23 80.20 215.94 80.59L215.98 80.63L215.90 80.54Q220.72 77.68 223.88 77.68L223.90 77.69L223.79 77.58Q226.07 77.60 228.07 78.70L228.19 78.82L228.13 78.76Q228.58 80.37 228.64 81.98L228.68 82.02L228.64 81.98Q228.91 86.51 227.16 88.39L227.10 88.33L227.06 88.28Q224.85 90.46 221.03 90.85L221.00 90.81L220.95 90.76Q219.33 90.88 218.16 90.75L218.16 90.75L218.25 90.84Q216.80 90.62 215.51 90.04L215.59 90.12L215.37 89.57L215.17 89.76L215.31 89.90Q213.81 88.91 212.90 86.65L212.98 86.74L213.05 86.80Q210.74 89.14 207.90 92.76L207.84 92.70L207.93 92.78Q208.44 93.88 209.86 95.49L209.85 95.49L209.79 95.42Q211.57 98.49 216.35 99.33L216.42 99.40L216.45 99.43Q218.38 99.75 227.49 99.95Z"/><path d="M9 85 C154 5,177 85,337 73" stroke="#7fea7f" fill="none"/><path d="M10 131 C165 109,180 60,341 82" stroke="#8ee736" fill="none"/><path d="M8 65 C174 89,182 4,329 118" stroke="#eed690" fill="none"/><path fill="#e7987d" d="M108.55 60.96L108.50 60.91L105.84 61.08L105.81 61.05Q102.12 61.37 101.74 64.80L101.72 64.78L101.58 64.64Q101.53 65.95 101.60 67.63L101.68 67.71L101.58 67.61Q101.66 70.92 103.79 73.18L103.86 73.25L103.87 73.26Q105.98 75.50 109.21 75.24L109.09 75.12L109.09 75.12Q112.58 74.87 113.88 73.32L113.96 73.40L113.90 73.34Q115.69 71.77 116.14 67.96L116.12 67.95L116.27 68.09Q116.69 64.25 114.56 62.83L114.42 62.69L114.55 62.83Q112.94 61.34 108.42 60.82ZM118.80 76.62L118.75 76.58L116.60 80.50L116.53 80.43Q111.88 88.50 105.48 95.41L105.50 95.43L105.52 95.45Q102.90 95.86 98.32 97.22L98.22 97.12L98.13 97.03Q107.19 86.39 112.55 78.25L112.69 78.40L112.71 78.42Q110.96 79.51 108.18 79.64L108.02 79.48L108.12 79.58Q103.00 79.82 100.42 76.46L100.36 76.40L100.48 76.52Q98.29 73.69 96.42 65.94L96.54 66.06L96.55 66.07Q96.53 65.27 96.27 63.69L96.23 63.65L96.31 63.73Q95.92 62.02 95.92 61.25L95.88 61.20L96.03 61.35Q96.03 58.31 97.84 57.28L97.73 57.17L97.80 57.25Q99.82 55.91 102.99 55.91L103.02 55.94L102.99 55.91Q108.45 55.95 108.45 55.95L108.49 55.99L108.46 55.96Q112.16 56.04 114.29 56.36L114.18 56.26L114.30 56.37Q117.80 56.71 119.35 57.55L119.50 57.69L119.35 57.55Q121.80 58.96 122.12 61.93L122.10 61.91L122.14 61.95Q122.03 62.23 121.71 66.75L121.67 66.72L121.75 66.79Q121.04 70.34 120.65 71.77L120.60 71.72L120.62 71.74Q120.14 74.29 118.85 76.68ZM121.90 80.57L122.08 80.75L121.93 80.60Q123.69 76.94 124.60 69.64L124.49 69.53L124.51 69.55Q124.94 65.78 124.88 64.30L124.97 64.39L124.94 64.37Q124.91 61.23 122.91 59.68L122.86 59.63L122.41 59.51L122.35 59.44Q121.98 58.23 120.43 57.14L120.39 57.10L120.31 57.02Q116.54 55.45 108.41 55.19L108.46 55.24L108.32 55.11Q106.68 55.08 102.55 55.08L102.62 55.15L102.63 55.16Q99.58 55.08 97.06 56.25L97.11 56.30L97.13 56.31Q95.09 57.57 95.22 60.67L95.27 60.72L95.40 60.85Q95.61 62.29 95.94 65.71L95.95 65.73L96.05 65.82Q97.08 70.28 97.53 71.70L97.44 71.61L97.41 71.58Q98.41 74.78 100.03 76.97L100.08 77.02L100.12 77.07Q100.46 77.54 101.11 78.18L101.22 78.29L101.04 78.12Q101.63 79.03 102.73 80.58L102.74 80.59L102.76 80.61Q105.16 82.82 108.46 83.14L108.45 83.14L108.47 83.16Q105.21 87.65 102.56 90.88L102.57 90.88L96.55 98.42L96.49 98.36Q100.36 97.13 103.13 96.55L103.10 96.51L103.13 96.54Q101.86 98.06 99.22 100.96L99.11 100.85L99.09 100.83Q104.27 99.23 109.56 99.17L109.72 99.33L109.59 99.19Q113.54 94.82 120.91 82.54L121.01 82.65L120.93 82.70L120.91 82.67Q121.37 81.46 121.95 80.62ZM111.85 65.03L111.83 65.00L111.70 64.88Q112.82 64.77 113.59 64.97L113.62 64.99L113.59 64.96Q114.71 65.18 115.36 65.37L115.24 65.26L115.24 65.26Q115.52 65.99 115.65 66.70L115.70 66.75L115.63 66.68Q115.71 67.34 115.52 67.98L115.58 68.05L115.51 67.98Q115.59 71.03 113.59 72.91L113.61 72.93L113.47 72.78Q111.93 74.60 109.15 74.54L109.12 74.50L109.04 74.42Q108.51 74.60 105.92 74.09L105.91 74.07L105.84 74.00Q105.48 72.54 105.48 71.32L105.50 71.34L105.45 71.29Q105.28 70.80 105.28 70.41L105.40 70.53L105.27 70.40Q105.26 66.64 109.13 65.28L109.11 65.26L109.22 65.37Q110.34 64.94 111.76 64.94Z"/><path d="M14 118 C151 115,172 42,333 82" stroke="#4a4ae2" fill="none"/><path d="M12 137 C168 47,190 75,338 57" stroke="#7aefef" fill="none"/><path d="M3 31 C190 48,187 118,331 122" stroke="#78e2c7" fill="none"/><path d="M2 76 C187 1,154 120,337 34" stroke="#6e45e6" fill="none"/><path d="M18 116 C178 110,185 57,333 48" stroke="#d89654" fill="none"/><path d="M13 92 C190 74,173 9,335 98" stroke="#e985e9" fill="none"/><path d="M2 27 C181 68,183 124,332 2" stroke="#87e89f" fill="none"/><path d="M20 85 C186 130,166 23,324 120" stroke="#b75bd6" fill="none"/><path d="M7 138 C183 70,154 2,331 73" stroke="#8099e4" fill="none"/><path d="M16 59 C192 105,182 45,334 23" stroke="#e8869e" fill="none"/><path d="M14 71 C158 44,172 79,323 119" stroke="#d755b6" fill="none"/><path fill="#724fdd" d="M166.07 67.26L166.17 67.36L166.00 67.19Q160.75 67.37 157.65 65.56L157.61 65.52L157.64 65.55Q161.84 63.17 170.11 56.00L170.14 56.02L170.18 56.07Q171.42 55.76 173.61 54.72L173.46 54.57L173.49 54.59Q171.32 64.77 171.13 75.55L170.98 75.40L171.16 75.58Q170.94 86.34 172.74 96.67L172.61 96.54L172.64 96.57Q169.82 95.36 166.20 95.17L166.23 95.20L166.13 95.10Q166.06 88.18 166.06 81.27L165.96 81.16L165.94 81.15Q166.04 74.27 166.10 67.30ZM165.43 71.09L165.39 95.78L165.51 95.89Q167.47 95.79 169.09 96.12L169.06 96.09L169.12 96.15Q169.23 97.29 169.55 99.61L169.56 99.62L169.49 99.55Q174.34 100.47 178.48 104.28L178.54 104.34L178.52 104.32Q174.30 92.22 174.23 79.56L174.28 79.61L174.35 79.67Q174.21 67.01 177.31 54.74L177.35 54.78L177.24 54.67Q176.32 55.37 173.61 57.24L173.69 57.32L173.71 57.34Q174.01 56.02 174.53 53.44L174.51 53.42L174.54 53.46Q172.18 54.65 169.73 55.29L169.78 55.35L169.87 55.44Q163.29 61.32 155.99 65.19L156.12 65.32L155.98 65.19Q158.42 67.11 162.43 67.69L162.44 67.70L162.55 67.81Q161.37 68.63 159.17 70.44L159.17 70.44L159.11 70.38Q161.68 71.08 165.43 71.08L165.45 71.10Z"/><path d="M12 70 C169 64,184 95,340 39" stroke="#8e36e7" fill="none"/><path fill="#4dbbdf" d="M291.89 91.96L291.88 91.95L291.86 91.92Q292.40 93.63 293.30 97.05L293.28 97.03L293.30 97.05Q286.14 94.80 278.33 95.25L278.20 95.13L278.35 95.28Q270.44 95.57 263.66 98.93L263.80 99.06L263.64 98.90Q264.13 97.85 264.20 97.98L264.26 98.04L264.27 98.05Q270.55 91.29 277.20 83.79L277.25 83.84L277.20 83.79Q284.73 75.36 286.73 67.42L286.58 67.27L286.60 67.29Q287.47 64.42 285.31 62.42L285.37 62.48L285.28 62.39Q283.11 60.38 280.07 60.64L280.02 60.59L280.13 60.69Q279.42 60.50 278.84 60.50L278.87 60.53L278.98 60.64Q276.25 60.49 274.12 62.04L274.24 62.17L274.21 62.13Q272.09 64.54 272.48 69.06L272.30 68.88L272.34 68.92Q269.44 68.47 267.37 67.70L267.31 67.63L267.34 67.67Q266.89 65.15 266.77 62.70L266.89 62.83L266.87 62.80Q266.68 59.97 267.71 58.03L267.68 57.99L267.83 58.15Q270.86 55.82 276.55 55.82L276.49 55.77L279.50 55.80L279.34 55.64Q283.27 55.76 284.89 55.96L284.92 55.99L284.87 55.94Q292.28 56.69 292.73 60.83L292.68 60.78L292.69 60.79Q292.77 61.71 292.64 63.07L292.64 63.06L292.71 63.13Q292.73 64.32 292.48 65.48L292.40 65.41L292.44 65.45Q289.64 79.18 276.78 90.80L276.77 90.78L276.77 90.79Q279.18 90.55 281.50 90.55L281.40 90.45L281.52 90.56Q286.96 90.52 291.81 91.87ZM290.79 56.50L290.94 56.65L290.78 56.49Q288.12 55.45 285.22 55.32L285.14 55.24L279.36 54.95L279.48 55.08Q271.83 54.52 268.08 56.39L268.15 56.46L268.18 56.49Q266.24 58.69 266.24 62.18L266.35 62.28L266.36 62.30Q266.33 63.42 266.84 68.20L266.86 68.22L266.97 68.33Q267.80 68.64 269.80 69.16L269.88 69.23L269.77 70.87L269.85 70.96Q269.73 71.67 269.85 72.57L269.83 72.54L269.94 72.66Q272.00 72.77 276.19 73.16L276.22 73.19L276.28 73.25Q276.16 72.55 276.16 71.97L276.16 71.96L276.09 71.89Q276.22 68.93 278.29 66.64L278.24 66.59L278.19 66.53Q280.20 64.19 283.24 64.38L283.30 64.45L283.28 64.43Q284.51 64.43 285.80 64.69L285.83 64.71L285.86 64.75Q286.02 65.35 286.15 66.06L286.11 66.03L286.13 66.05Q286.21 66.77 286.08 67.35L286.18 67.46L286.12 67.40Q284.08 75.56 276.59 83.76L276.56 83.73L276.43 83.60Q272.85 87.45 263.62 97.72L263.64 97.74L263.64 97.74Q263.30 99.14 262.72 100.11L262.80 100.20L262.74 100.14Q265.42 98.62 268.01 97.72L268.02 97.73L268.05 97.76Q266.86 98.77 265.25 101.29L265.12 101.16L265.25 101.29Q265.12 101.93 264.92 102.51L264.93 102.52L264.88 102.47Q273.03 98.87 282.33 99.19L282.46 99.32L282.34 99.19Q292.01 99.50 299.76 103.51L299.71 103.45L298.12 99.93L298.00 99.81Q297.05 97.70 296.60 96.35L296.55 96.30L296.47 96.21Q295.26 95.53 293.20 94.82L293.17 94.79L293.33 94.95Q293.07 93.72 292.43 91.40L292.25 91.22L292.27 91.24Q288.54 90.28 284.66 89.96L284.67 89.97L284.64 89.94Q292.60 82.20 295.18 68.19L295.35 68.36L295.48 63.25L295.55 63.33Q295.41 60.28 293.34 59.12L293.42 59.19L293.27 59.10L293.40 59.24Q293.19 58.96 293.06 58.96L293.18 59.09L293.04 58.94Q292.72 57.59 290.85 56.56Z"/><path d="M12 100 C150 92,165 36,340 70" stroke="#dda873" fill="none"/><path d="M6 59 C159 124,173 84,329 117" stroke="#e06584" fill="none"/><path d="M20 74 C181 44,178 52,324 104" stroke="#7be47b" fill="none"/><path d="M10 28 C171 103,189 89,335 134" stroke="#ec8cec" fill="none"/><path d="M9 105 C180 40,180 101,328 22" stroke="#e1839b" fill="none"/><path d="M1 115 C167 65,183 92,339 42" stroke="#3761e1" fill="none"/><path d="M18 43 C169 92,175 134,335 127" stroke="#e2c56e" fill="none"/><path d="M2 57 C162 92,165 90,334 109" stroke="#6fe6c8" fill="none"/><path d="M15 98 C188 22,174 70,341 121" stroke="#3a3ae7" fill="none"/><path d="M4 90 C168 21,156 41,330 133" stroke="#7aafe4" fill="none"/><path d="M14 28 C157 44,161 129,338 58" stroke="#e28b6e" fill="none"/><path d="M8 87 C166 49,169 7,325 39" stroke="#e386e3" fill="none"/><path d="M12 99 C173 107,158 107,340 100" stroke="#3ee43e" fill="none"/><path d="M13 137 C161 103,160 46,338 79" stroke="#b043d4" fill="none"/><path fill="#e97171" d="M47.20 96.06L47.22 96.08L47.27 96.12Q40.33 96.48 38.65 92.54L38.57 92.46L38.69 92.58Q39.93 90.92 42.58 87.88L42.60 87.90L42.55 87.85Q43.45 91.34 48.56 91.53L48.51 91.49L48.56 91.54Q54.25 91.61 57.03 89.35L56.99 89.31L57.03 89.35Q59.46 86.68 59.33 82.10L59.34 82.10L59.25 82.01Q59.08 73.51 50.94 73.89L50.98 73.93L50.99 73.95Q46.05 74.05 43.08 76.18L43.24 76.34L42.66 76.01L42.25 75.73L42.19 75.67Q42.75 70.30 42.56 65.65L42.75 65.84L42.59 65.67Q42.44 61.26 41.85 55.64L41.82 55.60L41.83 55.62Q48.17 57.37 54.63 57.18L54.56 57.11L54.57 57.11Q61.08 57.04 67.15 54.91L67.10 54.86L66.19 57.50L66.01 57.33Q65.61 58.73 65.29 60.15L65.24 60.10L65.35 60.21Q59.95 61.85 53.36 61.85L53.43 61.92L53.43 61.92Q50.83 61.77 48.31 61.51L48.36 61.56L48.34 61.55Q48.29 62.78 47.71 70.34L47.67 70.30L47.75 70.39Q49.03 69.47 52.52 69.21L52.63 69.32L52.65 69.34Q58.97 69.72 61.42 72.56L61.33 72.46L61.35 72.49Q63.62 75.02 64.08 81.54L64.14 81.61L64.08 81.54Q64.64 88.75 62.57 92.18L62.50 92.11L62.56 92.17Q59.04 95.30 53.42 95.69L53.45 95.72L53.57 95.84Q51.78 95.86 47.26 96.12ZM57.59 100.05L57.41 99.87L57.52 99.98Q63.31 100.09 66.54 98.22L66.56 98.24L66.47 98.14Q68.14 95.55 68.14 92.00L68.13 91.99L68.18 92.04Q68.27 86.90 66.66 79.93L66.64 79.90L66.64 79.91Q66.01 76.95 63.94 74.56L63.99 74.61L64.06 74.75L63.55 74.11L62.99 73.81L62.93 73.74Q62.44 72.55 61.34 71.38L61.40 71.44L61.38 71.48L61.48 71.58Q58.82 68.67 52.56 68.67L52.52 68.63L52.14 68.70L52.06 68.63Q52.26 67.73 52.59 65.85L52.48 65.75L52.55 65.82Q60.92 65.93 67.77 63.15L67.76 63.14L67.76 63.14Q68.45 60.73 70.07 55.95L70.10 55.98L66.64 57.69L66.53 57.59Q67.30 55.77 68.14 53.83L68.12 53.82L68.08 53.77Q61.48 56.15 54.51 56.28L54.66 56.44L54.50 56.27Q47.60 56.54 40.88 54.67L40.98 54.76L40.96 54.75Q42.10 62.22 42.10 69.71L42.13 69.74L42.00 69.61Q41.98 72.82 41.79 76.05L41.96 76.22L41.78 76.04Q42.42 76.54 43.38 77.06L43.20 76.88L43.33 77.01Q43.97 76.68 45.07 76.10L44.99 76.01L45.02 76.05Q44.91 77.30 44.52 79.88L44.54 79.90L44.55 79.90Q45.21 80.18 45.92 80.57L45.87 80.51L45.91 80.56Q50.60 77.56 53.77 77.56L53.79 77.59L53.83 77.63Q56.16 77.69 58.16 78.79L58.00 78.63L58.14 78.77Q58.69 80.48 58.75 82.10L58.71 82.06L58.79 82.13Q58.90 86.50 57.15 88.37L57.20 88.43L57.20 88.43Q54.78 90.39 50.97 90.78L50.94 90.75L51.01 90.82Q49.32 90.88 48.16 90.75L48.26 90.85L48.29 90.88Q46.81 90.62 45.52 90.04L45.55 90.08L45.44 89.65L45.28 89.87L45.33 89.92Q43.81 88.92 42.91 86.66L42.89 86.64L43.01 86.77Q40.75 89.15 37.91 92.77L37.95 92.81L37.94 92.80Q38.41 93.85 39.83 95.47L39.82 95.45L39.76 95.40Q41.69 98.61 46.47 99.45L46.50 99.48L46.50 99.48Q48.32 99.69 57.43 99.88Z"/><path d="M2 95 C179 17,176 118,337 24" stroke="#59e27b" fill="none"/><path d="M12 67 C187 139,172 120,322 90" stroke="#dbdb61" fill="none"/><path d="M5 26 C150 129,174 133,328 76" stroke="#d962bb" fill="none"/><path d="M19 139 C166 122,182 58,327 65" stroke="#da57b9" fill="none"/><path d="M10 90 C189 104,165 44,338 137" stroke="#7ab2ea" fill="none"/><path d="M4 70 C177 80,164 75,326 24" stroke="#87ecec" fill="none"/><path d="M8 93 C167 45,157 30,340 82" stroke="#e958c4" fill="none"/><path d="M8 78 C163 10,165 96,326 104" stroke="#e15074" fill="none"/></svg>