<svg xmlns="http://www.w3.org/2000/svg" width="342" height="140" viewBox="0,0,342,140"><path d="M4 97 C184 21,169 102,337 134" stroke="#7c5ae1" fill="none"/><path d="M11 122 C156 62,157 44,339 114" stroke="#63bfdd" fill="none"/><path d="M11 82 C168 50,162 104,335 9" stroke="#66c9ea" fill="none"/><path d="M20 88 C180 73,163 64,340 7" stroke="#ba8fe4" fill="none"/><path d="M1 116 C187 81,160 36,330 113" stroke="#8d73dd" fill="none"/><path fill="#5adcdc" d="M213.73 95.10L213.77 95.15L213.65 95.02Q214.35 97.06 215.39 100.98L215.34 100.94L215.40 101.00Q207.19 98.43 198.23 98.94L198.23 98.94L198.25 98.97Q189.37 99.50 181.59 103.35L181.53 103.29L181.52 103.28Q181.99 101.97 182.06 102.12L182.04 102.09L181.99 102.05Q189.33 94.42 196.96 85.82L196.83 85.69L196.99 85.85Q205.54 76.09 207.83 66.98L207.87 67.01L207.74 66.89Q208.77 63.62 206.29 61.32L206.16 61.19L206.19 61.22Q203.84 59.06 200.36 59.35L200.18 59.18L200.30 59.30Q199.51 59.10 198.84 59.10L198.97 59.23L199.01 59.27Q196.05 59.27 193.61 61.05L193.61 61.06L193.43 60.88Q191.07 63.71 191.52 68.89L191.34 68.72L191.35 68.72Q187.88 68.07 185.51 67.18L185.58 67.25L185.57 67.24Q185.22 64.52 185.08 61.71L185.13 61.76L184.98 61.62Q184.90 58.50 186.09 56.27L186.18 56.36L186.10 56.28Q189.54 53.58 196.06 53.58L196.02 53.54L199.58 53.69L199.49 53.60Q203.97 53.70 205.82 53.93L205.77 53.88L205.78 53.89Q214.33 54.80 214.85 59.55L214.77 59.47L214.71 59.41Q214.99 60.65 214.85 62.21L214.78 62.14L214.69 62.06Q214.65 63.35 214.36 64.68L214.37 64.70L214.34 64.67Q211.32 80.62 196.58 93.96L196.40 93.78L196.57 93.95Q199.20 93.54 201.86 93.54L201.87 93.55L201.80 93.47Q208.26 93.64 213.82 95.19ZM212.60 54.56L212.61 54.57L212.58 54.54Q209.45 53.26 206.12 53.11L206.22 53.22L199.62 52.91L199.58 52.87Q190.91 52.36 186.62 54.51L186.58 54.46L186.51 54.40Q184.39 57.02 184.39 61.02L184.49 61.12L184.41 61.04Q184.57 62.54 185.17 68.02L185.18 68.03L185.16 68.02Q186.22 68.49 188.52 69.08L188.48 69.04L188.42 70.98L188.51 71.07Q188.47 71.99 188.61 73.03L188.46 72.87L188.52 72.94Q190.93 73.12 195.75 73.57L195.79 73.60L195.72 73.54Q195.67 72.82 195.67 72.15L195.72 72.21L195.71 72.19Q195.74 68.67 198.11 66.04L198.14 66.07L198.21 66.13Q200.53 63.46 204.01 63.68L203.97 63.63L203.93 63.60Q205.38 63.64 206.87 63.94L206.95 64.02L206.91 63.98Q207.09 64.68 207.24 65.50L207.22 65.47L207.31 65.57Q207.39 66.39 207.24 67.05L207.29 67.10L207.15 66.96Q204.85 76.37 196.25 85.78L196.25 85.78L196.21 85.74Q192.06 90.11 181.47 101.89L181.34 101.77L181.37 101.80Q181.08 103.51 180.42 104.62L180.47 104.67L180.31 104.52Q183.49 102.88 186.45 101.84L186.54 101.93L186.46 101.85Q185.02 102.93 183.17 105.82L183.12 105.77L183.32 105.96Q183.08 106.62 182.85 107.28L182.81 107.24L182.75 107.17Q192.24 103.18 202.91 103.55L202.85 103.49L202.93 103.58Q213.90 103.79 222.79 108.39L222.77 108.37L220.98 104.36L220.88 104.26Q219.73 101.77 219.21 100.21L219.15 100.15L219.12 100.13Q217.71 99.31 215.34 98.49L215.28 98.43L215.41 98.57Q215.06 97.10 214.32 94.44L214.36 94.48L214.39 94.50Q210.02 93.33 205.58 92.96L205.64 93.02L205.66 93.03Q214.79 84.17 217.76 68.09L217.76 68.09L218.11 62.44L218.07 62.39Q217.93 58.92 215.56 57.59L215.55 57.58L215.38 57.48L215.45 57.55Q215.33 57.36 215.18 57.36L215.20 57.37L215.17 57.35Q214.73 55.72 212.58 54.53Z"/><path d="M2 117 C178 61,155 46,323 135" stroke="#c5e074" fill="none"/><path d="M7 42 C181 121,173 116,326 107" stroke="#7b7be4" fill="none"/><path d="M21 76 C185 7,176 51,333 25" stroke="#52dada" fill="none"/><path d="M11 29 C181 11,183 17,332 50" stroke="#ecec78" fill="none"/><path d="M15 132 C159 30,187 77,332 92" stroke="#bd4fe2" fill="none"/><path d="M4 133 C166 17,187 18,322 100" stroke="#8cec8c" fill="none"/><path d="M9 106 C189 83,169 103,334 138" stroke="#d1e88b" fill="none"/><path d="M5 37 C184 22,187 119,330 45" stroke="#98df80" fill="none"/><path d="M16 5 C175 102,188 113,337 3" stroke="#67e9e9" fill="none"/><path d="M2 114 C174 43,171 68,324 48" stroke="#dd45dd" fill="none"/><path d="M1 51 C173 14,185 69,332 24" stroke="#e77d7d" fill="none"/><path fill="#cae381" d="M57.21 99.96L57.22 99.98L57.21 99.97Q49.26 100.39 47.33 95.87L47.30 95.84L47.25 95.78Q48.80 94.00 51.83 90.51L51.80 90.48L51.89 90.57Q52.78 94.43 58.64 94.65L58.71 94.72L58.62 94.64Q65.25 94.82 68.44 92.23L68.39 92.17L68.36 92.14Q71.16 89.09 71.01 83.83L71.13 83.95L71.03 83.85Q70.73 73.99 61.40 74.44L61.39 74.43L61.43 74.47Q55.86 74.68 52.45 77.12L52.61 77.28L51.90 76.87L51.55 76.67L51.52 76.64Q52.21 70.51 51.98 65.17L51.87 65.06L51.94 65.12Q51.61 59.91 50.94 53.46L51.12 53.64L51.09 53.61Q58.13 55.39 65.54 55.17L65.50 55.13L65.62 55.25Q72.88 54.95 79.85 52.51L79.93 52.59L78.89 55.62L78.78 55.51Q78.27 57.08 77.90 58.71L77.88 58.69L77.84 58.65Q71.81 60.70 64.25 60.70L64.15 60.60L64.28 60.72Q61.41 60.67 58.52 60.37L58.58 60.43L58.52 60.38Q58.37 61.71 57.71 70.38L57.68 70.35L57.66 70.33Q59.35 69.50 63.35 69.20L63.24 69.09L63.42 69.27Q70.67 69.71 73.49 72.97L73.50 72.98L73.35 72.83Q76.16 75.93 76.67 83.42L76.61 83.35L76.50 83.24Q77.09 91.46 74.72 95.39L74.71 95.38L74.68 95.35Q70.79 99.09 64.34 99.54L64.27 99.47L64.45 99.64Q62.32 99.60 57.14 99.89ZM69.02 104.44L68.95 104.36L69.03 104.45Q75.60 104.50 79.31 102.35L79.27 102.31L79.34 102.39Q81.25 99.40 81.25 95.33L81.23 95.31L81.33 95.41Q81.26 89.33 79.40 81.33L79.45 81.37L79.45 81.38Q78.60 77.85 76.22 75.11L76.25 75.14L76.38 75.34L75.95 74.76L75.33 74.44L75.25 74.36Q74.69 72.99 73.43 71.65L73.34 71.56L73.50 71.80L73.38 71.68Q70.47 68.47 63.28 68.47L63.31 68.49L62.71 68.41L62.83 68.54Q62.97 67.42 63.34 65.27L63.32 65.24L63.28 65.21Q72.90 65.35 80.76 62.16L80.76 62.16L80.86 62.26Q81.55 59.39 83.40 53.91L83.40 53.91L79.45 55.89L79.51 55.95Q80.13 53.61 81.10 51.38L81.09 51.38L81.17 51.45Q73.54 54.12 65.53 54.27L65.61 54.34L65.68 54.41Q57.64 54.60 49.93 52.45L49.96 52.47L49.84 52.36Q51.33 61.11 51.33 69.70L51.16 69.54L51.24 69.61Q51.19 73.27 50.96 76.97L51.12 77.13L50.99 77.00Q51.61 77.47 52.72 78.06L52.71 78.06L52.59 77.93Q53.30 77.53 54.56 76.87L54.51 76.81L54.60 76.90Q54.57 78.43 54.12 81.39L54.08 81.34L54.16 81.43Q54.79 81.61 55.60 82.06L55.71 82.17L55.76 82.22Q61.17 78.81 64.80 78.81L64.73 78.73L64.67 78.67Q67.41 78.82 69.70 80.08L69.65 80.03L69.69 80.06Q70.37 82.07 70.44 83.93L70.29 83.78L70.32 83.81Q70.43 88.80 68.42 90.95L68.53 91.05L68.44 90.96Q65.82 93.39 61.45 93.83L61.46 93.85L61.48 93.87Q59.64 94.03 58.31 93.88L58.25 93.81L58.37 93.94Q56.75 93.73 55.27 93.06L55.11 92.90L55.06 92.48L54.87 92.74L54.89 92.75Q53.39 91.85 52.35 89.25L52.39 89.29L52.34 89.24Q49.62 91.85 46.36 96.00L46.48 96.12L46.41 96.05Q47.12 97.43 48.75 99.28L48.58 99.12L48.61 99.15Q50.73 102.75 56.22 103.71L56.15 103.65L56.13 103.62Q58.43 104.08 68.88 104.30Z"/><path d="M20 112 C163 66,158 25,332 105" stroke="#e475c9" fill="none"/><path d="M2 74 C172 103,157 109,330 42" stroke="#8568dd" fill="none"/><path d="M12 123 C183 95,154 130,327 74" stroke="#d74b91" fill="none"/><path fill="#bfdb6b" d="M130.47 59.58L130.35 59.46L127.37 59.74L127.37 59.74Q122.97 59.94 122.53 63.86L122.58 63.92L122.61 63.95Q122.46 65.35 122.53 67.28L122.42 67.16L122.57 67.31Q122.58 71.03 125.02 73.62L125.04 73.64L124.98 73.58Q127.49 76.24 131.20 75.94L131.26 76.00L131.21 75.96Q135.10 75.55 136.58 73.77L136.75 73.94L136.57 73.76Q138.70 72.03 139.22 67.66L139.19 67.63L139.34 67.79Q139.76 63.31 137.32 61.68L137.29 61.66L137.32 61.69Q135.60 60.11 130.41 59.52ZM142.32 77.66L142.31 77.65L139.63 81.93L139.76 82.06Q134.39 91.29 127.06 99.22L127.13 99.29L127.09 99.25Q123.86 99.51 118.60 101.06L118.59 101.05L118.64 101.10Q129.13 88.99 135.28 79.65L135.10 79.47L135.09 79.47Q133.17 80.80 129.98 80.95L130.03 80.99L130.10 81.07Q124.18 81.30 121.22 77.45L121.14 77.37L121.16 77.39Q118.80 74.29 116.65 65.40L116.69 65.44L116.76 65.50Q116.68 64.53 116.38 62.72L116.46 62.80L116.36 62.70Q116.08 60.90 116.08 60.01L116.02 59.95L116.03 59.96Q116.13 56.58 118.20 55.39L118.14 55.33L118.21 55.40Q120.49 53.82 124.12 53.82L124.21 53.91L124.08 53.79Q130.46 53.94 130.46 53.94L130.44 53.92L130.46 53.94Q134.57 53.90 137.01 54.27L137.12 54.38L137.04 54.30Q141.24 54.86 143.02 55.82L142.99 55.80L142.93 55.74Q145.72 57.34 146.09 60.75L145.90 60.56L145.92 60.58Q145.96 61.06 145.59 66.25L145.64 66.30L145.59 66.25Q144.89 70.44 144.44 72.07L144.40 72.03L144.39 72.02Q143.64 74.75 142.16 77.49ZM145.88 82.18L145.91 82.20L146.01 82.31Q147.87 77.94 148.91 69.57L148.90 69.56L148.84 69.51Q149.39 65.24 149.32 63.53L149.26 63.48L149.24 63.46Q149.28 59.94 146.98 58.16L147.05 58.23L146.42 57.96L146.41 57.96Q145.79 56.37 144.01 55.11L144.11 55.21L143.98 55.08Q139.68 53.30 130.34 53.00L130.24 52.90L130.20 52.86Q128.44 52.95 123.70 52.95L123.70 52.96L123.77 53.03Q120.22 52.89 117.33 54.22L117.39 54.28L117.41 54.30Q115.19 55.86 115.33 59.41L115.43 59.50L115.40 59.48Q115.71 61.19 116.08 65.12L116.15 65.20L116.02 65.07Q117.17 70.14 117.69 71.77L117.79 71.87L117.81 71.89Q118.91 75.51 120.77 78.03L120.73 78.00L120.81 78.07Q121.19 78.60 121.93 79.34L121.95 79.37L122.01 79.42Q122.49 80.28 123.75 82.06L123.80 82.11L123.80 82.11Q126.59 84.68 130.37 85.05L130.39 85.07L130.36 85.04Q126.67 90.24 123.63 93.94L123.72 94.03L116.72 102.59L116.68 102.54Q121.01 101.03 124.20 100.36L124.26 100.42L124.12 100.28Q122.78 102.13 119.74 105.46L119.60 105.32L119.69 105.41Q125.76 103.71 131.84 103.63L131.68 103.47L131.84 103.63Q136.35 98.58 144.79 84.50L144.68 84.39L144.72 84.58L144.72 84.58Q145.27 83.20 145.94 82.23ZM134.18 64.18L134.30 64.30L134.18 64.18Q135.41 64.00 136.30 64.22L136.22 64.14L136.21 64.13Q137.57 64.45 138.31 64.68L138.38 64.74L138.31 64.68Q138.44 65.33 138.59 66.14L138.61 66.17L138.68 66.23Q138.72 66.94 138.50 67.68L138.56 67.74L138.57 67.75Q138.42 71.01 136.12 73.16L136.17 73.21L136.19 73.22Q134.40 75.29 131.21 75.22L131.11 75.12L131.28 75.28Q130.36 75.17 127.39 74.58L127.41 74.60L127.47 74.66Q126.93 72.86 126.93 71.45L126.91 71.44L126.91 71.43Q126.74 70.89 126.74 70.44L126.76 70.47L126.87 70.58Q126.85 66.26 131.30 64.70L131.31 64.72L131.28 64.69Q132.66 64.29 134.29 64.29Z"/><path d="M7 117 C184 122,168 41,334 82" stroke="#78e2c7" fill="none"/><path d="M1 83 C158 127,178 108,334 46" stroke="#73ceec" fill="none"/><path d="M15 51 C176 134,172 43,332 71" stroke="#ed8968" fill="none"/><path d="M3 115 C151 16,168 123,329 93" stroke="#55e69e" fill="none"/><path d="M7 5 C166 69,189 91,333 79" stroke="#e27373" fill="none"/><path d="M8 94 C182 46,164 113,330 56" stroke="#df7b7b" fill="none"/><path d="M16 135 C182 19,167 86,325 15" stroke="#ebb57f" fill="none"/><path d="M18 110 C180 2,177 25,328 109" stroke="#54dd99" fill="none"/><path d="M13 2 C171 3,192 94,331 57" stroke="#8bd5ed" fill="none"/><path d="M13 115 C183 69,162 44,328 107" stroke="#62d9bb" fill="none"/><path d="M17 99 C191 107,190 18,330 51" stroke="#4cdb70" fill="none"/><path d="M14 115 C164 71,189 91,331 117" stroke="#e87cb2" fill="none"/><path d="M2 72 C166 37,169 53,330 29" stroke="#bf44e7" fill="none"/><path d="M15 39 C152 112,169 102,335 123" stroke="#f07f7f" fill="none"/><path fill="#79e093" d="M266.53 59.64L266.54 59.65L263.38 59.75L263.32 59.69Q258.95 59.92 258.51 63.84L258.55 63.88L258.65 63.99Q258.49 65.38 258.56 67.31L258.49 67.23L258.53 67.28Q258.61 71.06 261.06 73.65L260.99 73.59L260.98 73.58Q263.42 76.16 267.12 75.87L267.17 75.91L267.18 75.93Q271.19 75.63 272.67 73.85L272.57 73.75L272.57 73.75Q274.71 72.04 275.23 67.67L275.27 67.71L275.17 67.61Q275.85 63.41 273.41 61.78L273.33 61.70L273.25 61.62Q271.69 60.20 266.50 59.61ZM278.22 77.56L278.30 77.64L275.77 82.07L275.78 82.08Q270.35 91.24 263.01 99.17L263.08 99.24L263.01 99.17Q259.91 99.55 254.65 101.11L254.58 101.04L254.69 101.15Q264.95 88.81 271.10 79.48L271.22 79.60L271.18 79.55Q269.26 80.89 266.07 81.04L266.00 80.97L266.03 81.00Q260.18 81.30 257.21 77.44L257.22 77.45L257.24 77.47Q254.85 74.34 252.70 65.45L252.61 65.36L252.67 65.41Q252.68 64.54 252.38 62.72L252.44 62.78L252.31 62.65Q251.99 60.81 251.99 59.92L252.11 60.04L251.97 59.90Q252.00 56.45 254.08 55.27L254.22 55.41L254.07 55.26Q256.59 53.93 260.22 53.93L260.24 53.95L260.15 53.85Q266.34 53.82 266.34 53.82L266.32 53.80L266.42 53.89Q270.62 53.95 273.07 54.32L273.10 54.35L273.08 54.34Q277.25 54.87 279.03 55.84L278.90 55.70L278.94 55.74Q281.62 57.24 281.99 60.65L282.09 60.75L281.95 60.61Q281.91 61.01 281.54 66.20L281.64 66.30L281.68 66.34Q280.96 70.51 280.51 72.14L280.45 72.08L280.54 72.17Q279.80 74.91 278.32 77.65ZM281.91 82.20L281.95 82.25L281.90 82.20Q283.90 77.98 284.94 69.60L284.93 69.59L284.85 69.51Q285.42 65.27 285.35 63.56L285.26 63.48L285.43 63.65Q285.26 59.92 282.97 58.14L282.94 58.11L282.38 57.93L282.45 58.00Q281.85 56.44 280.07 55.18L280.12 55.23L280.09 55.19Q275.55 53.17 266.21 52.87L266.24 52.90L266.30 52.96Q264.44 52.95 259.69 52.95L259.66 52.92L259.79 53.05Q256.38 53.04 253.49 54.38L253.44 54.33L253.33 54.22Q251.23 55.90 251.38 59.45L251.31 59.39L251.30 59.38Q251.70 61.19 252.07 65.12L252.01 65.05L252.05 65.09Q253.34 70.30 253.85 71.94L253.82 71.90L253.69 71.77Q254.84 75.44 256.69 77.96L256.80 78.07L256.69 77.95Q257.35 78.77 258.09 79.51L258.08 79.49L258.08 79.50Q258.54 80.33 259.80 82.11L259.69 81.99L259.71 82.01Q262.59 84.67 266.37 85.05L266.46 85.14L266.37 85.05Q262.77 90.34 259.73 94.04L259.66 93.97L252.68 102.55L252.68 102.55Q257.10 101.11 260.28 100.45L260.30 100.47L260.32 100.48Q258.67 102.02 255.63 105.35L255.76 105.48L255.72 105.44Q261.79 103.73 267.86 103.65L267.81 103.60L267.79 103.58Q272.28 98.51 280.73 84.43L280.64 84.35L280.80 84.65L280.65 84.51Q281.22 83.15 281.89 82.19ZM270.26 64.26L270.24 64.24L270.28 64.27Q271.47 64.06 272.36 64.28L272.26 64.18L272.34 64.26Q273.58 64.47 274.32 64.69L274.30 64.66L274.26 64.63Q274.43 65.31 274.58 66.13L274.65 66.20L274.69 66.25Q274.72 66.94 274.50 67.68L274.68 67.86L274.67 67.86Q274.58 71.17 272.28 73.32L272.32 73.36L272.26 73.30Q270.41 75.30 267.23 75.23L267.18 75.18L267.28 75.28Q266.31 75.13 263.35 74.54L263.43 74.62L263.37 74.55Q262.89 72.82 262.89 71.41L263.06 71.58L262.96 71.48Q262.79 70.94 262.79 70.49L262.76 70.47L262.72 70.42Q262.73 66.14 267.18 64.59L267.30 64.70L267.17 64.58Q268.68 64.31 270.31 64.31Z"/><path d="M11 6 C169 118,179 111,324 18" stroke="#d97453" fill="none"/><path d="M11 125 C180 45,151 46,335 85" stroke="#6280da" fill="none"/><path d="M20 101 C169 17,187 92,329 71" stroke="#8cedd4" fill="none"/><path d="M17 124 C152 56,181 11,331 120" stroke="#318ce6" fill="none"/><path d="M5 14 C166 59,171 47,340 97" stroke="#78e2ad" fill="none"/><path d="M3 87 C175 78,170 27,337 121" stroke="#5c7fe9" fill="none"/><path d="M9 137 C191 33,165 138,330 15" stroke="#37e161" fill="none"/></svg>