<svg xmlns="http://www.w3.org/2000/svg" width="342" height="140" viewBox="0,0,342,140"><path d="M8 13 C167 69,172 83,327 74" stroke="#c770e4" fill="none"/><path d="M21 44 C172 122,180 18,330 29" stroke="#95d3e8" fill="none"/><path d="M4 73 C165 4,157 91,326 117" stroke="#e24f4f" fill="none"/><path d="M15 115 C170 16,153 121,341 17" stroke="#6464eb" fill="none"/><path d="M14 67 C174 65,162 72,334 43" stroke="#e98aba" fill="none"/><path d="M20 5 C184 125,173 96,330 23" stroke="#54e2be" fill="none"/><path d="M15 129 C160 67,158 53,326 84" stroke="#72c3de" fill="none"/><path d="M13 37 C174 3,176 75,331 17" stroke="#6ee2a8" fill="none"/><path fill="#6de3e3" d="M47.16 96.02L47.29 96.14L47.20 96.06Q40.36 96.51 38.68 92.57L38.57 92.46L38.61 92.50Q40.04 91.02 42.68 87.98L42.55 87.86L42.66 87.96Q43.44 91.32 48.54 91.51L48.50 91.48L48.45 91.43Q54.27 91.63 57.05 89.37L57.08 89.40L57.08 89.41Q59.48 86.69 59.35 82.11L59.30 82.07L59.23 81.99Q58.98 73.41 50.84 73.80L50.86 73.81L50.84 73.80Q46.14 74.13 43.17 76.26L43.09 76.19L42.62 75.98L42.21 75.69L42.30 75.78Q42.77 70.31 42.57 65.66L42.74 65.82L42.61 65.70Q42.36 61.18 41.78 55.56L41.89 55.68L41.90 55.69Q48.14 57.34 54.60 57.15L54.56 57.11L54.61 57.16Q60.95 56.91 67.02 54.78L67.15 54.90L66.11 57.42L66.08 57.39Q65.58 58.70 65.25 60.12L65.17 60.03L65.16 60.02Q59.99 61.90 53.41 61.90L53.40 61.89L53.34 61.83Q50.88 61.82 48.36 61.56L48.33 61.53L48.45 61.65Q48.37 62.86 47.78 70.42L47.74 70.38L47.70 70.33Q49.05 69.48 52.53 69.23L52.52 69.21L52.62 69.31Q58.98 69.73 61.43 72.57L61.37 72.51L61.34 72.48Q63.61 75.00 64.06 81.53L64.19 81.66L64.20 81.67Q64.70 88.82 62.64 92.25L62.58 92.19L62.52 92.13Q59.03 95.29 53.41 95.68L53.47 95.74L53.56 95.82Q51.81 95.89 47.29 96.14ZM57.51 99.97L57.47 99.93L57.52 99.98Q63.37 100.15 66.60 98.28L66.46 98.14L66.62 98.30Q68.30 95.72 68.30 92.16L68.19 92.06L68.18 92.04Q68.26 86.89 66.64 79.91L66.68 79.95L66.52 79.79Q66.00 76.94 63.93 74.55L63.86 74.48L64.06 74.74L63.52 74.08L63.08 73.89L63.06 73.87Q62.46 72.57 61.36 71.40L61.48 71.52L61.32 71.42L61.44 71.55Q58.81 68.66 52.55 68.66L52.53 68.64L52.05 68.62L52.00 68.56Q52.27 67.73 52.59 65.86L52.56 65.83L52.54 65.81Q60.90 65.90 67.75 63.13L67.90 63.28L67.83 63.21Q68.61 60.89 70.22 56.11L70.21 56.10L66.59 57.65L66.58 57.63Q67.27 55.74 68.11 53.81L68.13 53.82L68.03 53.72Q61.61 56.28 54.64 56.41L54.61 56.39L54.69 56.47Q47.64 56.58 40.92 54.71L41.01 54.79L40.84 54.63Q42.09 62.21 42.09 69.70L42.00 69.60L42.03 69.64Q42.12 72.95 41.92 76.18L41.94 76.20L41.79 76.04Q42.40 76.52 43.36 77.04L43.24 76.91L43.37 77.04Q43.83 76.54 44.93 75.96L45.05 76.08L44.91 75.94Q44.94 77.32 44.55 79.91L44.54 79.90L44.56 79.91Q45.17 80.13 45.88 80.52L45.86 80.51L45.94 80.58Q50.65 77.61 53.82 77.61L53.91 77.71L53.79 77.59Q56.17 77.70 58.17 78.80L58.14 78.77L58.12 78.75Q58.62 80.42 58.69 82.03L58.77 82.11L58.70 82.04Q58.76 86.37 57.02 88.24L57.15 88.37L57.03 88.25Q54.86 90.47 51.05 90.86L50.89 90.70L50.89 90.70Q49.47 91.02 48.30 90.89L48.12 90.71L48.16 90.75Q46.73 90.54 45.43 89.96L45.54 90.07L45.51 89.71L45.14 89.73L45.32 89.91Q43.92 89.03 43.02 86.77L43.03 86.78L42.93 86.68Q40.74 89.14 37.89 92.75L37.82 92.68L37.89 92.74Q38.31 93.75 39.73 95.37L39.77 95.41L39.82 95.45Q41.52 98.45 46.30 99.29L46.32 99.30L46.36 99.35Q48.44 99.81 57.54 100.00Z"/><path fill="#e25ea0" d="M108.45 60.86L108.47 60.88L105.91 61.16L105.94 61.18Q101.93 61.18 101.55 64.61L101.69 64.75L101.69 64.75Q101.51 65.93 101.57 67.61L101.62 67.65L101.48 67.51Q101.69 70.96 103.83 73.22L103.74 73.13L103.68 73.07Q105.89 75.41 109.12 75.15L109.17 75.20L109.15 75.18Q112.66 74.94 113.95 73.39L113.86 73.30L113.92 73.36Q115.68 71.77 116.13 67.96L116.21 68.03L116.13 67.96Q116.65 64.21 114.52 62.79L114.53 62.80L114.45 62.72Q112.98 61.38 108.46 60.86ZM118.67 76.50L118.71 76.54L116.53 80.43L116.53 80.43Q112.04 88.67 105.65 95.58L105.53 95.45L105.51 95.43Q102.84 95.81 98.26 97.16L98.27 97.18L98.29 97.19Q107.18 86.39 112.54 78.25L112.61 78.31L112.60 78.31Q110.86 79.41 108.08 79.54L108.16 79.62L108.10 79.55Q102.99 79.81 100.41 76.45L100.49 76.53L100.40 76.44Q98.32 73.72 96.45 65.97L96.51 66.03L96.45 65.97Q96.43 65.17 96.17 63.59L96.18 63.60L96.27 63.69Q95.93 62.02 95.93 61.25L95.95 61.27L95.92 61.24Q96.03 58.32 97.84 57.29L97.69 57.14L97.78 57.22Q99.81 55.90 102.97 55.90L103.01 55.93L102.91 55.83Q108.51 56.01 108.51 56.01L108.41 55.90L108.39 55.89Q112.19 56.07 114.32 56.39L114.28 56.35L114.20 56.27Q117.94 56.85 119.49 57.69L119.46 57.66L119.40 57.59Q121.68 58.84 122.00 61.81L122.02 61.83L121.98 61.79Q122.09 62.29 121.77 66.81L121.67 66.71L121.79 66.83Q121.11 70.42 120.72 71.84L120.69 71.80L120.66 71.77Q120.10 74.25 118.81 76.64ZM122.09 80.75L122.07 80.74L121.99 80.66Q123.59 76.83 124.49 69.53L124.58 69.62L124.57 69.61Q125.03 65.88 124.97 64.39L124.87 64.29L124.93 64.35Q124.88 61.21 122.88 59.66L122.92 59.70L122.35 59.45L122.35 59.45Q121.89 58.15 120.34 57.06L120.28 56.99L120.29 57.00Q116.43 55.33 108.29 55.07L108.45 55.23L108.37 55.15Q106.77 55.17 102.64 55.17L102.69 55.23L102.65 55.18Q99.63 55.14 97.12 56.30L97.13 56.32L97.09 56.27Q95.19 57.67 95.32 60.77L95.38 60.83L95.30 60.75Q95.68 62.36 96.00 65.78L96.02 65.79L96.06 65.83Q96.96 70.16 97.41 71.58L97.35 71.52L97.37 71.54Q98.43 74.80 100.05 76.99L100.09 77.04L100.01 76.96Q100.54 77.61 101.18 78.26L101.12 78.20L101.19 78.26Q101.63 79.03 102.73 80.58L102.74 80.59L102.63 80.47Q105.26 82.92 108.56 83.24L108.55 83.24L108.41 83.10Q105.25 87.68 102.60 90.91L102.52 90.84L96.47 98.35L96.58 98.45Q100.33 97.10 103.11 96.52L103.13 96.54L103.16 96.58Q101.81 98.01 99.17 100.91L99.17 100.92L99.20 100.95Q104.31 99.28 109.61 99.21L109.60 99.20L109.72 99.32Q113.63 94.91 121.00 82.64L120.97 82.61L120.88 82.64L120.87 82.64Q121.46 81.55 122.04 80.71ZM111.70 64.88L111.72 64.90L111.84 65.02Q112.73 64.69 113.51 64.88L113.61 64.99L113.68 65.05Q114.72 65.19 115.37 65.38L115.41 65.42L115.39 65.41Q115.51 65.98 115.64 66.69L115.69 66.74L115.69 66.74Q115.77 67.40 115.58 68.04L115.67 68.14L115.61 68.08Q115.51 70.95 113.51 72.82L113.45 72.77L113.55 72.86Q111.93 74.61 109.16 74.54L109.16 74.54L109.14 74.53Q108.50 74.60 105.92 74.08L105.84 74.00L105.78 73.94Q105.38 72.44 105.38 71.22L105.37 71.21L105.44 71.28Q105.30 70.82 105.30 70.43L105.33 70.46L105.27 70.40Q105.24 66.62 109.12 65.27L109.14 65.29L109.24 65.39Q110.32 64.92 111.75 64.92Z"/><path fill="#e2704a" d="M165.09 77.13L165.01 77.06L165.08 77.12Q161.84 77.05 159.78 79.31L159.79 79.33L159.78 79.31Q157.77 81.63 157.51 84.86L157.59 84.94L157.54 84.89Q157.17 88.46 159.24 90.17L159.20 90.14L159.24 90.18Q161.28 91.86 164.89 91.73L164.99 91.83L164.85 91.68Q168.84 91.48 170.46 89.86L170.51 89.91L170.48 89.88Q172.20 87.41 172.01 84.31L172.02 84.32L172.04 84.34Q171.91 81.24 170.07 79.21L169.91 79.04L170.04 79.18Q168.21 77.15 165.11 77.15ZM164.96 61.06L165.00 61.09L164.91 61.01Q162.67 60.95 160.41 61.79L160.39 61.78L160.26 61.65Q158.20 63.14 158.59 66.30L158.58 66.30L158.60 66.32Q159.39 72.59 165.07 72.59L165.00 72.53L165.01 72.53Q167.77 72.97 169.45 71.03L169.31 70.89L169.33 70.91Q171.10 69.06 171.16 66.42L171.11 66.37L171.12 66.37Q171.28 63.43 170.05 62.40L170.08 62.43L170.03 62.37Q167.10 60.86 164.90 60.99ZM164.64 96.06L164.61 96.03L159.36 95.95L159.36 95.95Q156.87 96.04 154.61 94.55L154.61 94.55L154.53 94.47Q152.15 92.48 152.41 87.64L152.49 87.72L152.38 87.61Q153.25 76.08 159.39 74.40L159.30 74.31L159.34 74.35Q155.59 72.93 153.33 63.82L153.16 63.66L153.26 63.76Q152.67 61.36 152.80 60.00L152.70 59.90L152.82 60.02Q153.34 56.41 159.61 56.35L159.62 56.36L159.55 56.29Q166.72 56.16 169.18 56.49L169.29 56.60L169.16 56.47Q175.72 57.41 176.49 60.83L176.54 60.88L176.44 60.77Q176.66 61.84 176.66 62.49L176.64 62.46L176.78 62.61Q176.65 63.63 176.33 64.67L176.40 64.74L176.45 64.79Q175.34 71.88 170.36 74.46L170.38 74.48L170.41 74.51Q176.22 75.74 177.06 84.72L177.07 84.72L177.10 84.75Q177.23 85.14 177.29 87.34L177.13 87.18L177.15 87.20Q177.24 91.81 174.53 93.61L174.58 93.67L174.61 93.70Q172.32 95.21 164.57 95.99ZM168.48 99.97L168.44 99.92L174.09 100.02L174.03 99.96Q177.01 100.16 179.59 98.93L179.55 98.89L179.50 98.84Q181.44 97.62 181.57 94.46L181.66 94.55L181.56 94.44Q181.76 92.71 181.12 89.41L181.09 89.39L181.14 89.44Q179.48 81.45 175.93 78.28L176.03 78.38L175.64 77.68L175.37 77.28L175.08 76.79L175.04 76.75Q177.81 74.42 179.36 67.38L179.34 67.36L179.44 67.46Q179.39 66.77 179.52 65.34L179.46 65.29L179.56 65.38Q179.68 64.21 179.55 63.18L179.47 63.10L179.55 63.18Q179.35 60.78 177.35 59.94L177.25 59.84L177.35 59.88L177.03 59.69L176.99 59.65Q176.52 58.41 174.52 57.05L174.58 57.11L174.57 57.04L174.68 57.15Q171.28 55.94 164.37 55.62L164.41 55.66L164.43 55.68Q161.72 55.42 159.39 55.62L159.32 55.54L159.34 55.56Q158.12 55.76 155.92 56.02L155.91 56.00L155.89 55.99Q152.61 56.65 152.23 59.43L152.24 59.44L152.20 59.40Q152.13 60.24 152.20 61.59L152.22 61.62L152.10 61.50Q152.33 62.44 153.30 66.44L153.38 66.52L153.39 66.53Q154.61 71.89 157.58 74.15L157.64 74.20L157.69 74.25L157.78 74.34Q153.13 76.61 152.23 85.39L152.09 85.26L152.06 85.22Q151.86 89.09 151.86 90.64L151.82 90.60L151.80 90.59Q151.94 93.63 153.94 95.18L153.95 95.18L153.86 95.10Q154.08 95.25 154.53 95.57L154.55 95.59L154.64 95.69Q156.39 99.57 168.47 99.95ZM167.91 81.18L167.93 81.20L167.87 81.14Q169.46 81.05 170.94 81.83L170.89 81.77L170.87 81.75Q171.51 83.42 171.44 84.33L171.51 84.39L171.55 84.43Q171.43 84.77 171.43 85.29L171.58 85.44L171.46 85.31Q171.51 89.37 167.64 90.79L167.58 90.73L167.71 90.86Q166.31 91.34 164.96 91.14L165.01 91.19L165.01 91.20Q162.99 91.24 161.05 90.47L161.03 90.45L161.11 90.53Q160.61 89.38 160.74 87.70L160.88 87.84L160.83 87.79Q161.04 85.03 163.07 82.96L163.16 83.06L163.13 83.02Q165.04 80.83 167.75 81.02ZM168.14 64.94L168.22 65.03L168.19 65.00Q169.59 64.84 170.49 65.10L170.51 65.12L170.46 66.43L170.39 66.35Q170.40 68.76 168.85 70.47L169.00 70.61L168.90 70.52Q167.29 72.17 164.97 71.84L165.02 71.90L165.16 72.03Q163.43 71.99 162.72 71.60L162.61 71.49L162.64 71.52Q162.55 71.05 162.36 69.88L162.45 69.98L162.47 70.00Q162.03 67.61 164.09 66.19L164.09 66.19L164.09 66.19Q165.81 64.94 168.20 65.00Z"/><path d="M14 6 C156 139,175 8,330 14" stroke="#a86fe1" fill="none"/><path d="M5 47 C189 70,164 93,322 60" stroke="#e09142" fill="none"/><path d="M14 129 C190 79,166 21,329 128" stroke="#8ce06f" fill="none"/><path d="M18 40 C169 21,160 6,323 119" stroke="#e457e4" fill="none"/><path d="M20 134 C160 79,156 67,332 93" stroke="#e3e386" fill="none"/><path d="M20 124 C176 27,180 99,326 107" stroke="#54e278" fill="none"/><path d="M3 123 C190 103,154 23,333 34" stroke="#67dede" fill="none"/><path d="M10 48 C187 123,160 98,340 16" stroke="#6cc9e9" fill="none"/><path d="M4 24 C150 88,168 19,336 134" stroke="#8e8eea" fill="none"/><path d="M5 123 C191 80,157 29,332 110" stroke="#99e480" fill="none"/><path d="M3 63 C164 72,158 75,333 50" stroke="#e4e439" fill="none"/><path d="M7 125 C190 53,175 87,338 91" stroke="#d9714e" fill="none"/><path fill="#c274dc" d="M214.99 83.41L214.99 83.41L215.05 83.48Q220.28 82.83 225.71 83.02L225.66 82.98L225.69 83.00Q225.65 78.70 225.65 74.63L225.68 74.67L225.63 74.62Q225.71 70.50 226.04 66.17L225.96 66.10L225.96 66.10Q223.95 69.06 215.10 83.52ZM231.77 95.87L231.91 96.00L231.84 95.93Q229.10 95.52 226.07 95.39L226.01 95.34L226.06 95.38Q225.75 91.40 225.56 87.20L225.45 87.10L225.43 87.07Q216.47 86.83 208.46 89.22L208.39 89.14L208.50 89.26Q208.66 88.38 208.98 86.70L209.00 86.73L208.98 86.70Q211.91 81.24 217.98 70.58L217.96 70.56L218.02 70.62Q222.92 62.34 228.73 55.76L228.70 55.73L228.86 55.89Q230.26 55.48 233.10 55.02L233.16 55.09L233.00 54.93Q229.79 65.86 229.79 77.80L229.95 77.97L229.81 77.83Q229.83 80.36 229.95 82.88L230.00 82.92L232.11 83.03L232.09 83.01Q233.28 83.23 234.31 83.42L234.21 83.32L234.30 83.41Q234.44 85.04 234.89 88.33L234.99 88.43L234.97 88.42Q232.86 87.92 230.34 87.59L230.30 87.55L230.29 87.54Q230.62 90.90 231.78 95.87ZM234.80 82.82L234.75 82.76L234.69 82.71Q234.39 82.60 234.07 82.60L233.98 82.51L233.40 82.57L233.51 82.68Q233.32 80.17 233.32 77.78L233.17 77.63L233.26 77.73Q233.15 66.77 236.64 56.56L236.68 56.60L236.78 56.70Q235.38 57.04 232.92 57.69L232.87 57.64L233.02 57.78Q233.39 56.48 234.17 54.09L234.10 54.02L234.12 54.04Q231.96 54.72 228.47 55.11L228.43 55.06L228.50 55.13Q221.76 62.41 212.91 78.30L213.01 78.39L216.59 72.23L216.55 72.18Q215.82 73.91 215.36 74.88L215.31 74.83L207.72 90.09L207.87 90.24Q208.88 89.89 210.81 89.25L210.85 89.28L210.57 89.65L210.61 89.69Q210.30 90.73 209.78 92.87L209.90 92.98L209.91 92.99Q216.83 90.68 225.03 91.00L224.96 90.93L224.97 90.94Q225.07 92.59 225.40 95.95L225.45 96.00L225.47 96.02Q227.31 96.06 229.12 96.25L228.96 96.09L229.02 96.15Q229.27 97.30 229.72 99.63L229.77 99.68L229.79 99.70Q232.87 99.93 237.97 101.48L238.02 101.54L238.04 101.55Q236.39 97.96 234.84 92.41L234.81 92.38L237.39 93.28L237.21 93.11Q238.51 93.63 239.68 94.22L239.55 94.09L239.70 94.24Q238.18 89.81 237.92 86.97L238.08 87.13L238.05 87.10Q236.99 86.75 235.05 86.36L235.08 86.39L235.08 86.39Q234.63 84.13 234.63 82.65ZM221.11 82.43L221.21 82.53L221.17 82.49Q222.45 80.28 225.10 75.95L225.17 76.03L225.15 76.01Q225.08 77.55 225.02 79.17L225.11 79.26L225.09 79.24Q225.10 80.93 225.17 82.55L225.02 82.40L225.10 82.48Q224.15 82.43 223.18 82.43L223.09 82.34L223.18 82.44Q222.11 82.40 221.08 82.40Z"/><path d="M17 112 C168 17,192 79,336 16" stroke="#eeb276" fill="none"/><path d="M14 93 C178 119,172 36,337 97" stroke="#c3e853" fill="none"/><path d="M16 76 C187 123,174 79,339 102" stroke="#56e0e0" fill="none"/><path fill="#90a5e3" d="M278.38 77.09L278.42 77.13L278.49 77.20Q275.30 77.18 273.24 79.44L273.10 79.30L273.09 79.30Q271.03 81.56 270.78 84.79L270.83 84.85L270.90 84.92Q270.55 88.50 272.61 90.21L272.55 90.15L272.51 90.11Q274.72 91.97 278.34 91.84L278.30 91.80L278.27 91.77Q282.27 91.57 283.89 89.96L283.77 89.84L283.78 89.85Q285.54 87.42 285.35 84.32L285.31 84.28L285.42 84.39Q285.12 81.12 283.28 79.09L283.31 79.11L283.42 79.22Q281.51 77.12 278.41 77.12ZM278.40 61.16L278.36 61.12L278.23 60.99Q275.85 60.81 273.59 61.65L273.60 61.66L273.73 61.79Q271.47 63.08 271.86 66.24L271.81 66.19L271.84 66.22Q272.80 72.67 278.48 72.67L278.43 72.62L278.31 72.50Q281.10 72.97 282.78 71.03L282.73 70.98L282.62 70.87Q284.47 69.11 284.54 66.46L284.55 66.47L284.41 66.33Q284.65 63.47 283.42 62.44L283.32 62.33L283.32 62.33Q280.45 60.89 278.26 61.01ZM277.97 96.05L277.79 95.88L272.67 95.92L272.74 95.99Q270.09 95.93 267.83 94.44L267.87 94.48L267.83 94.44Q265.53 92.53 265.79 87.69L265.72 87.61L265.81 87.71Q266.52 76.02 272.66 74.34L272.76 74.44L272.71 74.39Q268.83 72.84 266.57 63.74L266.55 63.71L266.62 63.78Q265.92 61.27 266.05 59.91L266.19 60.05L266.19 60.06Q266.64 56.37 272.90 56.31L272.84 56.25L272.93 56.33Q280.03 56.14 282.49 56.46L282.45 56.43L282.45 56.43Q288.96 57.32 289.74 60.75L289.80 60.81L289.82 60.82Q290.01 61.86 290.01 62.50L289.98 62.47L289.95 62.44Q289.98 63.63 289.65 64.66L289.74 64.75L289.65 64.66Q288.75 71.96 283.78 74.55L283.78 74.55L283.73 74.50Q289.69 75.87 290.53 84.85L290.40 84.72L290.46 84.78Q290.46 85.04 290.52 87.23L290.58 87.29L290.47 87.18Q290.74 91.97 288.03 93.78L287.89 93.64L288.03 93.78Q285.58 95.14 277.83 95.91ZM281.78 99.93L281.84 99.99L287.38 99.98L287.50 100.09Q290.26 100.08 292.85 98.85L292.85 98.85L292.95 98.96Q294.77 97.62 294.90 94.45L294.91 94.46L295.05 94.60Q295.02 92.63 294.37 89.34L294.34 89.31L294.34 89.30Q292.92 81.56 289.37 78.40L289.28 78.30L289.05 77.75L288.69 77.27L288.44 76.81L288.33 76.71Q291.26 74.53 292.81 67.49L292.75 67.44L292.72 67.41Q292.64 66.68 292.77 65.26L292.83 65.32L292.87 65.36Q292.90 64.10 292.77 63.07L292.91 63.21L292.80 63.10Q292.63 60.73 290.63 59.89L290.57 59.84L290.63 59.83L290.33 59.66L290.38 59.71Q289.96 58.51 287.96 57.15L287.85 57.05L287.96 57.10L288.00 57.14Q284.57 55.90 277.66 55.58L277.71 55.63L277.75 55.67Q275.03 55.40 272.71 55.60L272.80 55.69L272.73 55.62Q271.34 55.65 269.14 55.91L269.22 55.98L269.26 56.02Q265.81 56.51 265.42 59.29L265.42 59.29L265.55 59.42Q265.47 60.24 265.54 61.60L265.50 61.56L265.40 61.46Q265.64 62.42 266.61 66.42L266.67 66.47L266.58 66.38Q268.09 72.04 271.06 74.30L271.01 74.24L271.12 74.35L271.12 74.35Q266.28 76.42 265.38 85.21L265.38 85.21L265.44 85.27Q265.25 89.15 265.25 90.70L265.06 90.51L265.07 90.52Q265.21 93.56 267.21 95.11L267.26 95.17L267.29 95.19Q267.41 95.25 267.87 95.57L267.98 95.69L267.92 95.63Q269.66 99.50 281.74 99.89ZM281.14 81.08L281.25 81.18L281.08 81.02Q282.82 81.07 284.30 81.85L284.26 81.81L284.14 81.68Q284.91 83.49 284.85 84.40L284.84 84.39L284.69 84.24Q284.79 84.79 284.79 85.31L284.90 85.42L284.86 85.38Q284.80 89.32 280.92 90.74L280.99 90.80L280.96 90.78Q279.59 91.28 278.23 91.08L278.21 91.06L278.20 91.05Q276.34 91.27 274.41 90.49L274.49 90.57L274.43 90.51Q273.99 89.43 274.12 87.75L274.06 87.69L274.06 87.69Q274.29 84.95 276.33 82.89L276.33 82.88L276.47 83.03Q278.46 80.92 281.17 81.11ZM281.49 64.96L281.49 64.96L281.63 65.10Q282.90 64.82 283.81 65.08L283.87 65.14L283.87 66.50L283.78 66.41Q283.83 68.85 282.28 70.57L282.24 70.52L282.25 70.53Q280.73 72.27 278.41 71.95L278.42 71.96L278.47 72.01Q276.69 71.91 275.98 71.52L276.05 71.60L275.99 71.54Q276.02 71.18 275.83 70.02L275.79 69.98L275.76 69.96Q275.25 67.51 277.32 66.09L277.33 66.09L277.41 66.17Q279.22 65.02 281.61 65.08Z"/><path d="M17 125 C167 32,179 6,330 121" stroke="#7994e6" fill="none"/><path d="M7 113 C166 100,152 114,334 69" stroke="#6161e5" fill="none"/><path d="M4 6 C177 42,170 118,331 49" stroke="#94e778" fill="none"/><path d="M13 9 C190 27,165 21,324 91" stroke="#eac966" fill="none"/><path d="M19 55 C176 121,151 40,329 16" stroke="#93ea93" fill="none"/><path d="M6 126 C189 51,152 61,324 67" stroke="#3ce03c" fill="none"/><path d="M4 108 C169 24,185 25,332 13" stroke="#e6a360" fill="none"/><path d="M12 52 C188 122,183 26,334 54" stroke="#80e4b2" fill="none"/><path d="M12 96 C165 77,178 139,339 104" stroke="#dd63a0" fill="none"/><path d="M16 89 C165 23,172 90,326 16" stroke="#96ea7a" fill="none"/><path d="M11 17 C186 56,189 133,325 78" stroke="#67e9c8" fill="none"/><path d="M18 17 C189 23,175 1,324 76" stroke="#ec73ec" fill="none"/><path d="M15 107 C189 76,179 134,336 119" stroke="#99e051" fill="none"/><path d="M17 21 C185 101,172 37,324 63" stroke="#a064dd" fill="none"/><path d="M8 80 C178 78,150 13,339 6" stroke="#76e4c8" fill="none"/><path d="M14 69 C150 69,181 64,323 33" stroke="#3b3be6" fill="none"/><path d="M3 97 C166 51,151 19,338 20" stroke="#dcbf6a" fill="none"/></svg>