<svg xmlns="http://www.w3.org/2000/svg" width="342" height="140" viewBox="0,0,342,140"><path fill="#dcdc65" d="M127.81 87.37L127.96 87.52L127.81 87.37Q129.59 88.81 131.65 88.59L131.64 88.58L131.54 88.48Q136.00 88.93 136.95 84.02L136.88 83.96L136.78 83.86Q137.78 79.33 137.78 74.37L137.71 74.30L137.84 70.64L137.76 70.56Q137.85 68.81 137.35 66.97L137.20 66.83L137.30 66.92Q135.41 70.22 132.52 77.19L132.53 77.20L132.63 77.30Q129.72 84.26 127.94 87.50ZM135.23 63.29L135.18 63.25L135.29 63.35Q133.55 62.12 131.60 62.12L131.56 62.08L131.64 62.15Q129.49 61.96 127.88 63.30L127.75 63.17L127.85 63.27Q126.12 64.50 125.84 66.67L125.85 66.68L125.87 66.70Q125.45 68.79 125.40 70.96L125.34 70.91L125.41 70.97Q125.41 70.98 125.41 75.16L125.36 75.11L125.37 75.12Q125.35 78.55 126.02 83.85L126.07 83.90L126.04 83.87Q128.90 76.98 135.31 63.38ZM137.55 90.86L137.48 90.80L137.45 90.77Q134.92 92.14 131.52 92.14L131.61 92.23L129.18 92.20L129.08 92.09Q124.39 92.15 122.72 89.64L122.80 89.72L122.77 89.68Q121.58 86.49 121.47 82.20L121.40 82.13L121.57 82.30Q121.49 79.71 121.38 74.64L121.32 74.57L121.37 74.63Q121.16 72.69 120.94 68.23L120.98 68.28L121.00 68.29Q120.88 64.95 121.33 62.05L121.46 62.18L121.32 62.03Q122.11 57.81 128.47 57.48L128.37 57.38L128.49 57.50Q129.54 57.38 131.49 57.44L131.59 57.53L131.47 57.41Q139.73 57.59 141.29 62.67L141.30 62.68L141.41 62.78Q142.26 65.53 142.21 68.26L142.23 68.29L142.12 68.17Q142.04 75.51 141.93 77.29L142.04 77.40L142.02 77.39Q141.64 82.86 141.20 84.76L141.26 84.82L141.27 84.83Q140.30 89.38 137.52 90.83ZM144.73 90.46L144.82 90.55L144.75 90.49Q145.16 86.49 145.10 83.87L144.99 83.76L144.91 77.05L144.98 77.12Q144.85 72.69 144.07 64.61L144.14 64.68L144.06 64.59Q143.29 61.93 141.39 60.82L141.41 60.83L141.45 60.87Q139.19 57.16 131.61 56.94L131.50 56.83L131.45 56.78Q130.29 56.85 128.34 56.90L128.35 56.92L128.20 56.76Q121.73 57.04 121.00 61.61L120.88 61.48L120.98 61.59Q120.28 64.84 120.44 67.91L120.47 67.93L120.45 67.91Q121.04 74.41 120.99 79.32L120.95 79.28L120.93 79.27Q120.96 84.75 121.13 86.26L121.08 86.21L121.01 86.15Q121.68 90.77 123.91 91.94L123.92 91.95L123.79 91.82Q126.15 95.24 132.00 95.63L131.90 95.52L131.92 95.55Q137.10 95.82 138.04 95.76L138.06 95.78L138.12 95.84Q142.21 95.52 143.88 93.18L143.98 93.28L143.97 93.27Q144.70 92.27 144.81 90.55ZM132.22 88.04L132.26 88.09L132.24 88.06Q133.20 85.90 134.76 81.94L134.69 81.87L137.22 75.71L137.20 75.69Q137.25 78.19 136.70 83.10L136.74 83.14L136.74 83.14Q135.79 87.37 132.27 88.10ZM129.27 69.99L129.29 70.01L129.37 70.08Q130.03 67.46 131.03 66.62L130.92 66.51L131.05 66.64Q131.56 65.87 133.46 65.59L133.56 65.69L133.51 65.64Q130.93 70.92 128.20 77.73L128.19 77.71L128.31 77.83Q128.31 73.88 129.32 70.03Z"/><path d="M16 127 C172 27,173 28,332 99" stroke="#e35377" fill="none"/><path d="M18 114 C173 52,162 83,324 22" stroke="#ad6feb" fill="none"/><path d="M20 43 C151 33,151 51,330 7" stroke="#ea4799" fill="none"/><path d="M12 48 C155 64,166 136,336 62" stroke="#e38ce3" fill="none"/><path d="M6 125 C183 132,166 98,327 42" stroke="#bb5adc" fill="none"/><path d="M15 62 C170 17,176 62,329 37" stroke="#e2704a" fill="none"/><path d="M18 129 C180 43,187 34,334 72" stroke="#53e853" fill="none"/><path d="M11 36 C166 47,191 59,323 75" stroke="#8e71e4" fill="none"/><path d="M17 113 C163 76,151 44,336 128" stroke="#a18be3" fill="none"/><path d="M18 20 C155 107,182 80,332 60" stroke="#bc4be1" fill="none"/><path d="M17 130 C171 131,185 81,322 20" stroke="#e179ad" fill="none"/><path d="M4 39 C174 97,155 74,336 23" stroke="#60a0e0" fill="none"/><path d="M1 25 C151 137,180 46,336 3" stroke="#b950dc" fill="none"/><path d="M8 114 C171 104,168 99,334 9" stroke="#9292e6" fill="none"/><path d="M17 62 C190 18,151 83,330 87" stroke="#7de7b2" fill="none"/><path d="M9 57 C186 97,190 136,339 31" stroke="#53dede" fill="none"/><path fill="#4ceac2" d="M194.01 81.67L193.91 81.57L193.94 81.60Q198.50 81.09 203.19 81.25L203.21 81.28L203.13 81.20Q203.08 77.47 203.08 73.95L203.13 74.01L203.22 74.10Q203.19 70.44 203.46 66.70L203.39 66.63L203.47 66.71Q201.66 69.19 194.02 81.68ZM208.43 92.35L208.40 92.33L208.39 92.31Q206.01 91.94 203.39 91.83L203.47 91.91L203.32 91.75Q203.23 88.49 203.07 84.87L202.96 84.76L203.02 84.82Q195.19 84.52 188.27 86.58L188.29 86.60L188.27 86.57Q188.52 85.93 188.80 84.48L188.64 84.33L188.79 84.48Q191.23 79.67 196.47 70.47L196.52 70.52L196.54 70.54Q200.74 63.37 205.76 57.68L205.79 57.71L205.89 57.81Q207.18 57.55 209.64 57.16L209.46 56.98L209.57 57.10Q206.75 66.48 206.75 76.79L206.68 76.72L206.70 76.74Q206.83 79.04 206.94 81.22L206.94 81.22L208.85 81.40L208.80 81.35Q209.75 81.46 210.64 81.63L210.59 81.58L210.55 81.53Q210.78 83.05 211.17 85.89L211.20 85.92L211.17 85.89Q209.42 85.53 207.24 85.25L207.12 85.13L207.06 85.07Q207.52 88.15 208.52 92.44ZM210.99 81.04L210.94 80.98L210.90 80.95Q210.71 80.92 210.43 80.92L210.39 80.88L209.86 80.90L209.74 80.79Q209.74 78.78 209.74 76.72L209.57 76.54L209.69 76.67Q209.64 67.25 212.65 58.44L212.60 58.39L212.69 58.48Q211.50 58.80 209.38 59.35L209.42 59.39L209.51 59.49Q209.81 58.33 210.47 56.27L210.40 56.20L210.42 56.21Q208.57 56.82 205.56 57.15L205.61 57.20L205.61 57.20Q199.76 63.45 192.13 77.16L192.24 77.27L195.14 71.76L195.13 71.75Q194.67 73.41 194.28 74.24L194.29 74.25L187.79 87.49L187.70 87.40Q188.68 87.20 190.35 86.65L190.34 86.63L190.00 86.86L190.01 86.86Q189.85 87.88 189.41 89.72L189.40 89.71L189.41 89.72Q195.59 87.93 202.67 88.21L202.62 88.15L202.64 88.18Q202.65 89.53 202.93 92.42L202.93 92.43L202.89 92.39Q204.57 92.50 206.13 92.67L206.07 92.61L206.02 92.56Q206.28 93.60 206.67 95.60L206.57 95.50L206.62 95.56Q209.35 95.83 213.75 97.17L213.80 97.22L213.82 97.24Q212.36 94.11 211.03 89.32L210.98 89.27L213.18 90.02L213.18 90.02Q214.22 90.39 215.22 90.89L215.20 90.87L215.23 90.90Q214.03 87.19 213.81 84.74L213.68 84.62L213.70 84.64Q212.87 84.42 211.20 84.09L211.35 84.23L211.22 84.10Q210.87 82.20 210.87 80.92ZM199.14 80.66L199.23 80.75L199.16 80.68Q200.43 78.94 202.71 75.21L202.55 75.05L202.60 75.09Q202.72 76.61 202.66 78.00L202.55 77.89L202.64 77.98Q202.63 79.42 202.69 80.81L202.57 80.69L202.72 80.84Q201.79 80.70 200.96 80.70L200.93 80.67L200.94 80.68Q200.19 80.82 199.30 80.82Z"/><path d="M15 103 C181 30,173 19,334 89" stroke="#f18888" fill="none"/><path d="M3 124 C188 28,158 28,329 138" stroke="#aadd78" fill="none"/><path d="M12 76 C153 53,162 132,333 112" stroke="#e6a792" fill="none"/><path d="M8 7 C153 103,184 113,325 6" stroke="#e4e452" fill="none"/><path d="M7 76 C152 94,173 37,336 59" stroke="#44e744" fill="none"/><path d="M8 3 C160 70,179 71,323 76" stroke="#75efd1" fill="none"/><path d="M7 57 C167 100,191 27,330 86" stroke="#44e744" fill="none"/><path d="M4 15 C150 106,174 47,328 131" stroke="#edd281" fill="none"/><path d="M11 42 C187 12,164 45,326 80" stroke="#e665c5" fill="none"/><path d="M6 37 C176 62,154 52,334 128" stroke="#da5757" fill="none"/><path d="M10 105 C158 50,181 74,325 2" stroke="#edba86" fill="none"/><path d="M14 120 C158 38,177 75,329 117" stroke="#5ec5e8" fill="none"/><path d="M11 61 C166 116,192 139,334 76" stroke="#65e6a5" fill="none"/><path d="M4 30 C186 22,177 64,338 75" stroke="#54bbdd" fill="none"/><path d="M20 122 C166 131,169 98,322 97" stroke="#e83fe8" fill="none"/><path d="M13 130 C158 107,173 133,321 18" stroke="#42e5bc" fill="none"/><path fill="#879fe7" d="M268.60 67.63L268.70 67.73L268.67 67.70Q264.04 67.76 261.37 66.20L261.31 66.14L261.22 66.05Q265.05 64.19 272.18 58.00L272.15 57.97L272.02 57.84Q273.20 57.68 275.10 56.79L275.06 56.76L275.07 56.77Q273.06 65.40 272.89 74.71L272.91 74.73L272.97 74.79Q272.82 84.12 274.38 93.04L274.31 92.96L274.31 92.97Q271.81 91.86 268.69 91.69L268.80 91.80L268.74 91.74Q268.65 85.74 268.65 79.78L268.60 79.73L268.63 79.76Q268.54 73.65 268.60 67.63ZM268.10 70.98L268.10 92.32L267.99 92.21Q269.76 92.20 271.15 92.48L271.27 92.60L271.19 92.52Q271.42 93.64 271.70 95.65L271.70 95.65L271.74 95.68Q275.79 96.34 279.36 99.63L279.41 99.68L279.46 99.73Q275.73 89.20 275.67 78.27L275.78 78.37L275.77 78.37Q275.52 67.30 278.19 56.71L278.26 56.78L278.25 56.77Q277.42 57.33 275.07 58.94L275.22 59.09L275.16 59.03Q275.51 57.99 275.96 55.76L275.97 55.77L275.78 55.58Q273.89 56.75 271.77 57.31L271.88 57.42L271.87 57.41Q266.19 62.49 259.89 65.84L260.01 65.96L260.06 66.01Q262.03 67.53 265.48 68.03L265.43 67.97L265.47 68.01Q264.50 68.78 262.61 70.34L262.72 70.44L262.73 70.46Q264.80 70.91 268.03 70.91L268.01 70.89Z"/><path d="M4 91 C163 79,189 83,335 113" stroke="#cb87e2" fill="none"/><path d="M19 80 C160 119,151 114,340 56" stroke="#e8e868" fill="none"/><path d="M14 48 C190 7,151 2,340 93" stroke="#e362c3" fill="none"/><path d="M8 67 C163 132,158 55,322 66" stroke="#4ed94e" fill="none"/><path d="M11 53 C160 63,153 21,325 41" stroke="#d094e4" fill="none"/><path d="M11 87 C167 34,157 33,330 121" stroke="#84ebb7" fill="none"/><path fill="#54bbdd" d="M63.61 76.01L63.58 75.98L63.57 75.96Q60.98 75.89 59.17 77.98L59.21 78.02L59.23 78.04Q57.25 79.96 56.97 82.75L57.10 82.88L57.01 82.79Q56.72 85.84 58.31 87.27L58.40 87.35L58.23 87.19Q59.84 88.62 62.90 88.46L63.03 88.59L63.05 88.60Q66.06 88.32 67.67 87.32L67.57 87.22L67.61 87.26Q69.32 85.68 69.32 83.39L69.35 83.42L69.40 83.47Q69.22 82.73 69.11 82.17L69.24 82.30L69.14 82.20Q69.30 79.80 67.69 77.82L67.69 77.82L67.78 77.92Q65.99 75.77 63.54 75.94ZM63.05 92.34L63.01 92.30L62.95 92.23Q56.63 92.33 54.57 91.22L54.48 91.12L54.52 91.17Q53.00 90.04 52.73 87.53L52.79 87.60L52.84 87.65Q52.78 86.64 52.83 85.58L52.74 85.48L52.77 85.51Q52.85 83.98 52.85 83.31L52.87 83.32L52.88 83.34Q53.68 79.29 53.90 78.28L53.78 78.16L53.89 78.27Q54.52 75.39 55.75 73.33L55.72 73.30L55.62 73.21Q59.52 66.79 68.21 57.48L68.35 57.61L68.28 57.54Q72.29 57.21 75.52 56.04L75.43 55.94L75.47 55.98Q65.43 66.90 60.75 73.09L60.63 72.97L60.71 73.05Q62.13 72.29 64.02 72.29L64.15 72.42L64.07 72.34Q69.02 72.44 71.25 75.28L71.06 75.09L71.07 75.10Q73.17 77.65 73.67 82.84L73.63 82.79L73.65 82.81Q73.79 83.90 73.79 84.79L73.76 84.77L73.76 84.76Q73.73 89.31 70.50 90.87L70.42 90.79L70.55 90.92Q68.68 91.73 63.00 92.29ZM66.29 95.74L66.38 95.83L66.29 95.74Q68.29 95.79 71.19 95.91L71.16 95.88L71.21 95.93Q73.58 96.01 75.87 94.95L75.93 95.01L75.86 94.95Q77.41 93.71 77.41 91.09L77.43 91.11L77.36 91.04Q77.46 90.41 77.21 88.96L77.15 88.91L77.15 88.90Q76.96 87.52 76.96 86.85L76.96 86.85L76.95 86.84Q75.58 79.84 73.24 77.06L73.27 77.08L73.29 77.11Q73.14 76.89 72.92 76.56L73.03 76.68L72.64 76.39L72.49 76.31L72.45 76.26Q71.90 75.49 71.01 74.10L71.05 74.14L70.96 74.04Q69.80 72.83 66.90 72.16L66.76 72.02L66.72 71.98Q68.55 69.69 72.90 64.28L72.87 64.25L79.21 56.66L79.18 56.63Q76.80 57.82 73.29 58.93L73.35 58.99L73.36 59.00Q74.57 57.42 77.19 54.53L77.26 54.59L77.25 54.58Q73.77 56.18 68.09 57.01L68.08 57.01L68.15 57.08Q59.77 65.70 55.43 72.95L55.43 72.95L55.39 72.92Q53.22 76.65 52.38 85.79L52.29 85.70L52.39 85.80Q52.10 86.46 52.22 87.86L52.29 87.93L52.24 87.88Q52.39 90.49 54.01 91.82L53.99 91.81L54.02 91.83Q54.56 92.04 54.50 92.10L54.60 92.19L54.45 92.04Q55.07 93.45 56.24 94.06L56.17 93.98L56.35 94.17Q58.38 95.08 61.22 95.36L61.31 95.44L61.20 95.34Q61.17 95.31 66.30 95.75ZM66.04 79.38L66.04 79.38L66.04 79.38Q66.78 79.12 68.17 79.85L68.27 79.95L68.24 79.91Q68.68 81.24 68.68 82.19L68.79 82.31L68.79 82.30Q68.98 84.94 67.59 86.39L67.58 86.38L67.72 86.52Q66.00 87.42 62.93 87.87L63.06 88.00L63.01 87.95Q60.83 87.89 60.05 87.50L60.13 87.58L60.11 87.55Q59.75 86.81 59.75 86.37L59.91 86.52L59.79 86.41Q59.44 81.59 63.73 79.70L63.72 79.68L63.74 79.70Q64.99 79.34 66.11 79.45Z"/><path d="M11 44 C184 127,191 56,330 69" stroke="#e882ce" fill="none"/><path d="M6 109 C176 25,158 32,339 123" stroke="#5f81e7" fill="none"/></svg>