<svg xmlns="http://www.w3.org/2000/svg" width="342" height="140" viewBox="0,0,342,140"><path d="M4 131 C161 91,175 49,331 86" stroke="#db5656" fill="none"/><path d="M11 23 C175 51,176 63,337 58" stroke="#37e6e6" fill="none"/><path fill="#e7754f" d="M103.23 92.00L103.14 91.91L103.12 91.89Q105.25 93.60 107.84 93.32L107.87 93.35L107.85 93.33Q113.13 93.57 114.32 87.41L114.51 87.60L114.51 87.60Q115.51 81.66 115.51 75.43L115.57 75.49L115.58 70.74L115.45 70.61Q115.51 68.36 114.88 66.05L114.83 66.00L114.92 66.09Q112.63 70.32 108.99 79.07L109.00 79.08L108.94 79.02Q105.30 87.77 103.06 91.83ZM112.38 61.59L112.40 61.61L112.47 61.68Q110.36 60.20 107.91 60.20L107.93 60.22L107.79 60.08Q105.01 59.75 102.98 61.43L103.15 61.60L103.13 61.58Q100.97 63.14 100.62 65.87L100.64 65.89L100.65 65.90Q100.10 68.50 100.03 71.23L100.03 71.22L100.06 71.26Q99.92 71.12 99.92 76.37L100.05 76.49L100.04 76.49Q99.96 80.75 100.80 87.40L100.88 87.48L100.83 87.43Q104.42 78.77 112.48 61.69ZM115.26 96.19L115.18 96.11L115.21 96.14Q112.03 97.86 107.76 97.86L107.72 97.82L104.80 97.91L104.66 97.77Q98.88 97.94 96.78 94.79L96.61 94.62L96.74 94.75Q95.22 90.72 95.08 85.33L95.18 85.42L95.17 85.41Q95.03 82.12 94.89 75.75L94.85 75.71L94.93 75.78Q94.88 73.57 94.60 67.97L94.62 67.99L94.55 67.92Q94.45 63.75 95.01 60.11L94.95 60.05L94.96 60.06Q95.89 54.69 103.87 54.27L103.85 54.25L103.77 54.17Q105.33 54.26 107.78 54.33L107.76 54.31L107.61 54.15Q118.07 54.46 120.03 60.83L120.14 60.95L120.10 60.90Q121.30 64.49 121.23 67.92L121.08 67.76L121.11 67.80Q121.00 77.00 120.86 79.24L120.85 79.23L120.78 79.16Q120.44 86.18 119.88 88.56L120.04 88.72L119.96 88.63Q118.75 94.36 115.25 96.18ZM124.39 95.79L124.33 95.74L124.43 95.84Q124.70 90.57 124.63 87.28L124.69 87.34L124.65 78.97L124.51 78.83Q124.50 73.43 123.52 63.27L123.54 63.30L123.44 63.19Q122.56 59.94 120.18 58.54L120.12 58.47L120.17 58.52Q117.20 53.74 107.68 53.46L107.63 53.41L107.73 53.51Q106.04 53.36 103.59 53.43L103.59 53.43L103.58 53.42Q95.34 53.65 94.43 59.40L94.48 59.44L94.37 59.33Q93.76 63.70 93.97 67.55L93.95 67.53L93.98 67.56Q94.48 75.48 94.41 81.64L94.42 81.65L94.54 81.77Q94.32 88.41 94.53 90.31L94.55 90.33L94.58 90.36Q95.40 96.14 98.20 97.61L98.12 97.54L98.13 97.54Q100.84 101.58 108.19 102.08L108.17 102.06L108.17 102.05Q114.77 102.50 115.96 102.43L116.05 102.51L116.01 102.48Q121.30 102.23 123.40 99.29L123.37 99.26L123.25 99.14Q124.26 97.97 124.40 95.80ZM108.55 92.63L108.60 92.68L108.59 92.67Q109.72 89.88 111.68 84.91L111.80 85.02L114.90 77.20L114.84 77.14Q114.91 80.30 114.21 86.46L114.06 86.30L114.15 86.40Q112.97 91.73 108.56 92.64ZM104.99 70.09L104.83 69.93L104.91 70.01Q105.81 66.79 107.07 65.74L107.08 65.74L107.04 65.70Q107.92 64.97 110.30 64.62L110.29 64.61L110.21 64.53Q107.04 71.23 103.61 79.77L103.71 79.88L103.73 79.90Q103.65 74.85 104.91 70.02Z"/><path d="M4 39 C174 137,160 49,336 22" stroke="#d58aee" fill="none"/><path d="M18 48 C186 50,152 7,331 13" stroke="#87e7b7" fill="none"/><path d="M8 67 C171 94,157 37,325 37" stroke="#dda369" fill="none"/><path d="M2 79 C173 27,152 117,325 135" stroke="#73ec73" fill="none"/><path d="M4 108 C190 107,173 92,338 9" stroke="#d6b34c" fill="none"/><path d="M8 50 C167 95,157 11,331 125" stroke="#d65656" fill="none"/><path d="M2 66 C190 78,170 13,330 98" stroke="#36e7e7" fill="none"/><path d="M19 91 C163 105,181 25,322 5" stroke="#edd17c" fill="none"/><path d="M20 29 C183 76,177 80,336 5" stroke="#6969e1" fill="none"/><path d="M12 74 C166 119,176 77,325 40" stroke="#72a8de" fill="none"/><path d="M6 73 C171 54,165 86,328 11" stroke="#62ed62" fill="none"/><path d="M15 38 C163 106,171 38,333 34" stroke="#d54d91" fill="none"/><path d="M14 81 C179 3,152 25,325 135" stroke="#e287b5" fill="none"/><path d="M14 113 C182 35,163 5,336 122" stroke="#e06f6f" fill="none"/><path d="M13 63 C183 133,187 59,324 71" stroke="#e7c04a" fill="none"/><path d="M4 117 C154 34,161 26,332 28" stroke="#9345e2" fill="none"/><path d="M4 43 C176 18,153 132,335 34" stroke="#4be170" fill="none"/><path d="M20 61 C180 50,189 75,336 102" stroke="#efbc89" fill="none"/><path fill="#e86868" d="M157.37 84.58L157.36 84.56L157.37 84.57Q163.19 84.03 169.08 84.24L168.96 84.12L168.92 84.08Q168.85 79.39 168.85 74.98L168.94 75.07L168.92 75.05Q168.84 70.41 169.19 65.72L169.18 65.72L169.25 65.79Q167.08 69.01 157.49 84.69ZM175.57 98.08L175.66 98.17L175.58 98.09Q172.51 97.55 169.22 97.41L169.17 97.36L169.31 97.49Q168.94 93.13 168.73 88.58L168.70 88.55L168.66 88.51Q158.99 88.30 150.31 90.89L150.14 90.72L150.32 90.89Q150.48 89.93 150.83 88.11L150.85 88.14L150.69 87.97Q154.14 82.32 160.72 70.77L160.66 70.71L160.62 70.67Q166.06 61.82 172.36 54.68L172.24 54.56L172.26 54.58Q173.85 54.21 176.93 53.72L177.06 53.85L177.02 53.81Q173.49 65.61 173.49 78.57L173.42 78.50L173.40 78.47Q173.44 81.25 173.58 83.98L173.57 83.96L175.97 84.20L175.92 84.15Q177.04 84.22 178.16 84.43L178.20 84.47L178.30 84.56Q178.51 86.39 179.00 89.96L179.01 89.96L178.94 89.90Q176.60 89.31 173.87 88.96L173.94 89.03L173.94 89.02Q174.34 92.72 175.60 98.12ZM178.63 83.70L178.75 83.82L178.70 83.78Q178.44 83.73 178.09 83.73L178.11 83.75L177.33 83.66L177.32 83.66Q177.13 80.94 177.13 78.35L177.13 78.35L177.04 78.27Q177.18 66.64 180.96 55.58L180.79 55.41L180.86 55.48Q179.40 55.91 176.74 56.61L176.89 56.76L176.75 56.62Q177.20 55.25 178.04 52.66L178.07 52.69L178.05 52.67Q175.66 53.36 171.88 53.78L171.84 53.74L171.97 53.87Q164.68 61.77 155.09 79.00L155.19 79.10L158.99 72.33L158.92 72.26Q158.14 74.14 157.65 75.19L157.64 75.18L149.60 91.92L149.53 91.86Q150.71 91.57 152.81 90.87L152.80 90.86L152.43 91.19L152.62 91.37Q152.37 92.59 151.81 94.91L151.76 94.86L151.79 94.89Q159.31 92.40 168.21 92.75L168.13 92.67L168.29 92.84Q168.25 94.47 168.60 98.11L168.67 98.19L168.69 98.21Q170.59 98.15 172.56 98.36L172.61 98.41L172.48 98.29Q172.83 99.61 173.32 102.14L173.25 102.07L173.23 102.04Q176.79 102.52 182.32 104.20L182.38 104.26L182.44 104.32Q180.54 100.32 178.86 94.30L178.76 94.20L181.47 95.09L181.58 95.20Q182.72 95.50 183.98 96.13L184.10 96.25L184.00 96.15Q182.67 91.66 182.39 88.58L182.22 88.42L182.37 88.57Q181.17 88.14 179.07 87.72L179.22 87.87L179.10 87.75Q178.67 85.36 178.67 83.75ZM164.00 83.50L163.99 83.49L164.00 83.50Q165.38 81.10 168.25 76.41L168.23 76.39L168.24 76.40Q168.19 78.10 168.12 79.85L168.18 79.91L168.24 79.97Q168.28 81.83 168.35 83.58L168.33 83.56L168.34 83.57Q167.27 83.48 166.22 83.48L166.26 83.52L166.17 83.43Q165.20 83.58 164.08 83.58Z"/><path d="M5 75 C176 49,185 61,331 46" stroke="#87ec87" fill="none"/><path d="M15 14 C191 110,167 56,330 71" stroke="#db66db" fill="none"/><path d="M17 79 C153 110,172 28,323 107" stroke="#e8d395" fill="none"/><path d="M21 63 C178 53,188 131,326 102" stroke="#82ed5e" fill="none"/><path d="M10 48 C170 134,192 49,328 53" stroke="#c263e2" fill="none"/><path d="M16 33 C163 84,192 72,337 26" stroke="#f18c8c" fill="none"/><path d="M16 126 C177 37,184 15,330 66" stroke="#e59646" fill="none"/><path fill="#39b9e4" d="M277.75 77.47L277.79 77.52L277.92 77.65Q274.52 77.39 272.24 80.02L272.23 80.01L272.22 79.99Q270.00 82.68 269.65 86.18L269.62 86.15L269.50 86.03Q269.23 89.96 271.22 91.74L271.14 91.66L271.06 91.58Q273.11 93.42 276.96 93.21L277.04 93.29L276.93 93.18Q280.92 93.04 282.95 91.78L282.95 91.77L282.90 91.73Q284.99 89.69 284.99 86.82L285.08 86.90L284.99 86.81Q284.99 86.12 284.85 85.42L284.78 85.35L284.75 85.32Q285.04 82.38 283.01 79.90L282.98 79.87L282.93 79.82Q281.01 77.44 277.93 77.65ZM277.01 97.95L277.08 98.02L276.98 97.92Q268.95 97.95 266.36 96.55L266.38 96.57L266.33 96.52Q264.49 95.17 264.14 92.01L264.22 92.10L264.20 92.07Q264.08 90.76 264.15 89.43L264.23 89.51L264.21 89.49Q264.44 87.70 264.44 86.86L264.31 86.72L264.30 86.71Q265.30 81.62 265.58 80.36L265.48 80.26L265.49 80.27Q266.35 76.72 267.89 74.13L267.95 74.18L267.91 74.15Q272.79 66.08 283.72 54.38L283.68 54.35L283.73 54.40Q288.63 53.83 292.69 52.36L292.63 52.30L292.67 52.35Q280.00 66.00 274.12 73.78L274.26 73.92L274.21 73.86Q275.93 72.85 278.31 72.85L278.31 72.86L278.34 72.88Q284.47 72.92 287.27 76.49L287.24 76.47L287.23 76.45Q289.65 79.43 290.28 85.94L290.38 86.05L290.28 85.94Q290.59 87.45 290.59 88.57L290.45 88.42L290.60 88.57Q290.52 94.24 286.46 96.20L286.40 96.14L286.51 96.24Q284.21 97.31 277.07 98.01ZM281.19 102.35L281.33 102.48L281.18 102.34Q283.67 102.37 287.31 102.51L287.20 102.40L287.33 102.53Q290.22 102.55 293.09 101.22L293.20 101.32L293.22 101.34Q295.27 99.90 295.27 96.61L295.15 96.48L295.26 96.60Q295.13 95.55 294.81 93.73L294.95 93.87L294.81 93.73Q294.63 92.05 294.63 91.21L294.67 91.24L294.49 91.06Q292.93 82.43 289.99 78.93L290.05 78.99L290.02 78.96Q289.95 78.82 289.67 78.40L289.66 78.39L289.12 78.00L288.98 77.92L288.96 77.90Q288.20 76.86 287.08 75.11L287.18 75.21L287.17 75.20Q285.40 73.36 281.76 72.52L281.85 72.61L281.76 72.52Q284.12 69.70 289.58 62.91L289.59 62.91L297.21 53.03L297.34 53.16Q294.42 54.72 290.01 56.12L290.01 56.13L289.93 56.04Q291.78 54.39 295.07 50.75L295.06 50.74L294.97 50.65Q290.64 52.69 283.50 53.74L283.35 53.60L283.52 53.77Q272.84 64.45 267.38 73.55L267.53 73.70L267.48 73.64Q264.69 78.28 263.64 89.77L263.56 89.68L263.66 89.78Q263.48 90.79 263.62 92.54L263.55 92.47L263.58 92.50Q263.76 95.76 265.79 97.44L265.78 97.44L265.81 97.46Q266.40 97.64 266.33 97.71L266.34 97.72L266.51 97.89Q267.17 99.53 268.64 100.30L268.56 100.21L268.56 100.22Q271.30 101.56 274.87 101.91L274.77 101.80L274.83 101.87Q274.74 101.78 281.18 102.34ZM280.87 81.79L280.90 81.81L280.81 81.73Q281.93 81.58 283.68 82.49L283.56 82.37L283.59 82.41Q284.35 84.28 284.35 85.47L284.37 85.50L284.35 85.47Q284.67 88.88 282.92 90.70L282.94 90.72L282.80 90.58Q280.82 91.89 276.97 92.45L277.02 92.50L277.11 92.59Q274.48 92.62 273.50 92.13L273.50 92.13L273.36 91.99Q273.10 91.24 273.10 90.68L273.16 90.75L273.04 90.63Q272.71 84.69 278.11 82.31L278.06 82.26L278.14 82.35Q279.49 81.66 280.89 81.80Z"/><path fill="#9fe787" d="M235.80 93.66L235.78 93.65L235.88 93.74Q236.36 95.48 237.34 99.20L237.46 99.31L237.44 99.29Q229.55 96.73 221.08 97.22L221.22 97.36L221.11 97.25Q212.76 97.79 205.41 101.44L205.41 101.44L205.50 101.52Q205.76 100.10 205.83 100.24L205.86 100.28L205.96 100.37Q212.69 92.96 219.90 84.84L219.90 84.83L220.01 84.94Q228.15 75.79 230.32 67.18L230.24 67.10L230.20 67.06Q231.07 63.86 228.72 61.69L228.70 61.67L228.68 61.65Q226.52 59.66 223.23 59.94L223.18 59.89L223.22 59.94Q222.47 59.74 221.84 59.74L221.79 59.70L221.91 59.82Q219.02 59.73 216.71 61.41L216.78 61.48L216.76 61.45Q214.47 64.07 214.89 68.97L214.80 68.88L214.81 68.89Q211.60 68.34 209.36 67.50L209.32 67.47L209.27 67.41Q208.95 64.85 208.81 62.19L208.73 62.12L208.77 62.15Q208.64 59.15 209.76 57.05L209.84 57.13L209.86 57.15Q213.02 54.50 219.18 54.50L219.29 54.61L222.44 54.53L222.35 54.44Q226.58 54.55 228.33 54.76L228.33 54.75L228.34 54.76Q236.34 55.55 236.83 60.03L236.83 60.03L236.79 59.99Q236.94 61.05 236.80 62.52L236.91 62.64L236.93 62.65Q236.72 63.70 236.44 64.96L236.47 65.00L236.60 65.12Q233.41 79.86 219.48 92.46L219.64 92.62L219.53 92.52Q222.12 92.23 224.64 92.23L224.66 92.25L224.70 92.29Q230.56 92.20 235.81 93.67ZM234.85 55.46L234.76 55.37L234.73 55.34Q231.86 54.22 228.71 54.08L228.70 54.07L222.42 53.75L222.35 53.67Q214.31 53.33 210.25 55.36L210.11 55.23L210.15 55.27Q208.13 57.73 208.13 61.51L208.30 61.68L208.23 61.61Q208.35 62.99 208.91 68.18L208.89 68.15L208.77 68.03Q209.88 68.58 212.05 69.14L212.00 69.09L211.97 70.95L211.97 70.96Q211.86 71.75 212.00 72.74L212.02 72.75L211.99 72.72Q214.45 73.08 219.00 73.50L219.00 73.50L218.86 73.36Q218.78 72.65 218.78 72.02L218.86 72.10L218.95 72.19Q218.79 68.67 221.03 66.19L221.18 66.34L221.14 66.30Q223.34 63.76 226.63 63.97L226.68 64.02L226.69 64.03Q227.97 63.98 229.37 64.26L229.40 64.30L229.35 64.25Q229.62 65.00 229.76 65.77L229.88 65.90L229.86 65.87Q229.76 66.47 229.62 67.10L229.71 67.19L229.67 67.16Q227.38 75.93 219.26 84.82L219.32 84.88L219.27 84.83Q215.43 89.05 205.42 100.18L205.41 100.17L205.39 100.15Q205.03 101.69 204.40 102.74L204.41 102.75L204.29 102.62Q207.25 101.03 210.05 100.05L210.18 100.19L210.11 100.12Q208.82 101.20 207.07 103.93L207.07 103.94L207.10 103.97Q206.72 104.43 206.51 105.06L206.66 105.20L206.55 105.09Q215.54 101.34 225.62 101.69L225.62 101.69L225.58 101.65Q236.16 102.07 244.56 106.41L244.50 106.35L242.67 102.42L242.58 102.33Q241.41 99.90 240.92 98.43L240.93 98.44L240.96 98.47Q239.70 97.77 237.46 97.00L237.44 96.98L237.40 96.95Q237.13 95.62 236.43 93.10L236.46 93.13L236.41 93.08Q232.39 92.07 228.18 91.72L228.27 91.80L228.10 91.64Q236.82 83.33 239.62 68.14L239.65 68.18L239.89 62.74L239.98 62.83Q239.84 59.54 237.60 58.28L237.62 58.31L237.45 58.20L237.58 58.34Q237.35 58.04 237.21 58.04L237.25 58.07L237.27 58.09Q236.81 56.51 234.78 55.39Z"/><path d="M6 47 C180 44,157 94,325 17" stroke="#a4e68e" fill="none"/><path fill="#e5a05b" d="M51.11 77.50L51.23 77.62L51.14 77.53Q47.78 77.32 45.50 79.94L45.49 79.94L45.49 79.93Q43.32 82.67 42.97 86.17L42.96 86.16L42.86 86.06Q42.48 89.88 44.47 91.66L44.42 91.61L44.50 91.69Q46.39 93.37 50.24 93.16L50.27 93.19L50.35 93.26Q54.27 93.06 56.30 91.80L56.17 91.67L56.11 91.61Q58.32 89.68 58.32 86.81L58.23 86.72L58.28 86.77Q58.37 86.16 58.23 85.46L58.17 85.40L58.24 85.47Q58.38 82.39 56.35 79.90L56.26 79.81L56.20 79.75Q54.34 77.44 51.26 77.65ZM50.33 97.94L50.31 97.91L50.34 97.95Q42.33 97.99 39.74 96.59L39.80 96.65L39.85 96.70Q37.94 95.28 37.59 92.13L37.60 92.14L37.42 91.96Q37.49 90.84 37.56 89.50L37.48 89.43L37.58 89.53Q37.64 87.56 37.64 86.72L37.75 86.83L37.80 86.88Q38.58 81.57 38.86 80.31L38.93 80.37L38.86 80.31Q39.68 76.72 41.22 74.13L41.24 74.14L41.14 74.04Q46.20 66.15 57.12 54.45L57.04 54.38L57.08 54.42Q61.86 53.73 65.92 52.26L66.08 52.42L66.11 52.45Q53.37 66.04 47.49 73.81L47.50 73.82L47.48 73.80Q49.39 72.99 51.78 72.99L51.79 73.00L51.74 72.95Q57.81 72.93 60.61 76.50L60.68 76.57L60.59 76.48Q63.01 79.46 63.64 85.97L63.80 86.13L63.73 86.06Q63.82 87.34 63.82 88.46L63.86 88.50L63.75 88.39Q63.89 94.27 59.83 96.23L59.70 96.10L59.84 96.25Q57.63 97.40 50.49 98.10ZM54.56 102.38L54.69 102.50L54.59 102.41Q56.94 102.31 60.58 102.45L60.61 102.48L60.71 102.58Q63.71 102.71 66.59 101.38L66.41 101.21L66.45 101.25Q68.56 99.85 68.56 96.56L68.46 96.46L68.62 96.62Q68.62 95.71 68.30 93.89L68.28 93.87L68.31 93.90Q68.00 92.08 68.00 91.24L67.95 91.19L67.92 91.16Q66.27 82.44 63.33 78.93L63.26 78.87L63.45 79.06Q63.22 78.76 62.94 78.34L62.99 78.39L62.32 77.86L62.29 77.90L62.19 77.80Q61.59 76.92 60.47 75.17L60.39 75.09L60.45 75.15Q58.83 73.46 55.19 72.62L55.20 72.63L55.13 72.56Q57.31 69.56 62.77 62.76L62.86 62.85L70.61 53.10L70.73 53.22Q67.81 54.78 63.40 56.18L63.34 56.12L63.40 56.18Q65.11 54.39 68.40 50.75L68.26 50.60L68.30 50.65Q63.89 52.61 56.75 53.66L56.87 53.78L56.84 53.76Q46.19 64.46 40.72 73.56L40.87 73.70L40.78 73.61Q37.98 78.24 36.93 89.72L36.86 89.65L37.01 89.80Q36.80 90.78 36.94 92.53L36.97 92.56L37.00 92.59Q37.18 95.85 39.21 97.53L39.20 97.52L39.07 97.39Q39.73 97.63 39.66 97.70L39.84 97.88L39.80 97.84Q40.39 99.42 41.87 100.19L41.91 100.23L41.92 100.24Q44.67 101.59 48.24 101.94L48.14 101.84L48.07 101.77Q48.20 101.90 54.64 102.46ZM54.09 81.67L54.24 81.82L54.10 81.68Q55.22 81.54 56.97 82.45L57.04 82.52L57.07 82.55Q57.52 84.12 57.52 85.31L57.64 85.43L57.53 85.32Q57.88 88.75 56.13 90.57L56.25 90.69L56.20 90.65Q54.15 91.89 50.30 92.45L50.45 92.60L50.41 92.56Q47.69 92.50 46.71 92.01L46.84 92.14L46.75 92.04Q46.38 91.18 46.38 90.62L46.45 90.70L46.32 90.57Q46.04 84.68 51.43 82.30L51.34 82.21L51.40 82.28Q52.70 81.55 54.10 81.69Z"/><path d="M6 93 C191 6,179 112,340 134" stroke="#e8e83f" fill="none"/><path d="M8 37 C179 36,188 71,325 118" stroke="#8e41dc" fill="none"/><path d="M7 126 C155 79,163 124,328 38" stroke="#e4be4d" fill="none"/><path d="M13 21 C174 28,160 54,339 21" stroke="#e68dd0" fill="none"/><path d="M9 10 C177 104,170 49,337 118" stroke="#4a4add" fill="none"/><path d="M18 58 C175 96,171 34,341 7" stroke="#5bb7d6" fill="none"/><path d="M11 40 C158 36,189 89,341 36" stroke="#4cdb70" fill="none"/><path d="M17 101 C160 80,160 26,340 83" stroke="#51d651" fill="none"/><path d="M15 12 C151 78,162 131,322 106" stroke="#9648e4" fill="none"/><path d="M13 91 C151 20,158 17,328 79" stroke="#6683db" fill="none"/><path d="M1 135 C181 122,172 5,323 60" stroke="#e03c65" fill="none"/><path d="M6 52 C170 28,160 126,329 16" stroke="#67eeee" fill="none"/></svg>