<svg xmlns="http://www.w3.org/2000/svg" width="342" height="140" viewBox="0,0,342,140"><path fill="#8cf2d8" d="M62.74 77.16L62.71 77.14L62.74 77.16Q59.62 77.04 57.46 79.54L57.32 79.40L57.40 79.49Q55.31 82.06 54.98 85.39L54.94 85.35L55.00 85.42Q54.56 88.97 56.46 90.67L56.49 90.70L56.43 90.65Q58.28 92.29 61.94 92.09L61.97 92.11L62.07 92.22Q65.59 91.81 67.52 90.61L67.50 90.59L67.57 90.66Q69.51 88.66 69.51 85.93L69.55 85.97L69.53 85.95Q69.48 85.23 69.34 84.57L69.52 84.74L69.43 84.65Q69.65 81.81 67.72 79.44L67.63 79.36L67.59 79.32Q65.76 77.06 62.83 77.26ZM62.05 96.66L62.09 96.70L62.09 96.70Q54.42 96.70 51.96 95.36L52.00 95.40L51.96 95.37Q50.07 93.95 49.74 90.95L49.83 91.04L49.84 91.04Q49.71 89.78 49.77 88.51L49.70 88.44L49.76 88.50Q49.97 86.78 49.97 85.98L49.91 85.92L50.01 86.02Q50.86 81.08 51.13 79.88L51.14 79.89L51.02 79.76Q51.87 76.42 53.34 73.96L53.39 74.01L53.35 73.97Q57.97 66.27 68.37 55.14L68.41 55.18L68.30 55.07Q73.01 54.59 76.88 53.19L76.97 53.28L76.86 53.18Q64.99 66.36 59.40 73.76L59.27 73.63L59.23 73.59Q61.00 72.76 63.27 72.76L63.31 72.81L63.27 72.76Q69.00 72.70 71.67 76.10L71.68 76.12L71.67 76.11Q74.07 79.03 74.67 85.23L74.79 85.35L74.71 85.27Q74.81 86.51 74.81 87.57L74.82 87.58L74.85 87.61Q74.76 92.98 70.90 94.85L70.89 94.84L71.02 94.97Q68.86 96.01 62.06 96.68ZM66.09 100.90L65.94 100.75L66.10 100.91Q68.28 100.76 71.74 100.89L71.71 100.86L71.83 100.98Q74.62 101.04 77.35 99.77L77.30 99.72L77.38 99.80Q79.26 98.34 79.26 95.21L79.32 95.28L79.26 95.22Q79.19 94.29 78.89 92.55L78.97 92.63L79.08 92.74Q78.62 90.85 78.62 90.05L78.61 90.04L78.79 90.22Q77.25 81.95 74.45 78.61L74.33 78.49L74.43 78.60Q74.21 78.31 73.94 77.91L74.01 77.98L73.37 77.47L73.30 77.47L73.29 77.46Q72.67 76.57 71.60 74.90L71.68 74.98L71.64 74.94Q70.07 73.30 66.60 72.50L66.48 72.38L66.62 72.51Q68.79 69.76 73.99 63.30L73.87 63.18L81.28 53.93L81.30 53.95Q78.47 55.38 74.27 56.72L74.46 56.91L74.33 56.78Q75.94 55.06 79.07 51.59L79.02 51.54L79.01 51.53Q74.89 53.47 68.09 54.47L68.18 54.56L68.19 54.56Q58.14 64.84 52.94 73.50L52.92 73.48L52.93 73.49Q50.22 77.83 49.22 88.76L49.21 88.75L49.32 88.86Q49.18 89.86 49.32 91.52L49.25 91.46L49.21 91.42Q49.38 94.51 51.31 96.11L51.24 96.04L51.37 96.17Q51.95 96.36 51.88 96.42L51.91 96.45L51.90 96.44Q52.62 98.09 54.02 98.82L53.92 98.73L54.03 98.84Q56.53 100.00 59.93 100.34L59.87 100.28L59.90 100.31Q59.81 100.22 65.94 100.75ZM65.60 81.16L65.67 81.23L65.66 81.22Q66.70 81.06 68.37 81.92L68.25 81.81L68.22 81.78Q68.86 83.49 68.86 84.62L68.88 84.63L68.87 84.63Q69.22 87.90 67.55 89.64L67.58 89.67L67.48 89.56Q65.76 90.98 62.10 91.51L61.94 91.36L61.94 91.35Q59.59 91.54 58.66 91.07L58.66 91.08L58.66 91.08Q58.30 90.25 58.30 89.71L58.27 89.68L58.18 89.60Q57.86 83.94 62.98 81.67L62.91 81.60L62.94 81.63Q64.25 81.00 65.58 81.14Z"/><path d="M19 93 C171 100,151 66,325 88" stroke="#e4cc85" fill="none"/><path d="M2 62 C152 29,177 79,335 27" stroke="#ba45e2" fill="none"/><path d="M5 45 C189 22,152 109,325 105" stroke="#e5e584" fill="none"/><path d="M18 129 C157 94,183 2,331 19" stroke="#74e074" fill="none"/><path d="M7 10 C188 90,173 91,330 117" stroke="#59c0e2" fill="none"/><path d="M19 81 C180 79,159 9,339 107" stroke="#964ce0" fill="none"/><path d="M3 46 C191 76,163 53,322 39" stroke="#b5e782" fill="none"/><path fill="#51c0e5" d="M126.24 90.79L126.33 90.87L126.30 90.85Q128.25 92.39 130.71 92.13L130.73 92.14L130.83 92.24Q135.86 92.48 137.00 86.62L136.97 86.59L136.99 86.61Q138.01 81.04 138.01 75.11L138.06 75.15L138.06 70.63L138.08 70.64Q138.06 68.43 137.46 66.23L137.59 66.36L137.43 66.20Q135.28 70.24 131.81 78.57L131.92 78.67L131.88 78.64Q128.35 86.90 126.22 90.77ZM135.20 62.10L135.07 61.98L135.13 62.03Q133.09 60.60 130.76 60.60L130.69 60.52L130.72 60.56Q128.23 60.39 126.29 61.99L126.16 61.86L126.26 61.96Q124.35 63.58 124.02 66.18L123.88 66.04L123.97 66.13Q123.33 68.49 123.26 71.09L123.35 71.17L123.30 71.12Q123.29 71.12 123.29 76.11L123.26 76.08L123.34 76.17Q123.34 80.30 124.14 86.62L124.17 86.65L124.08 86.56Q127.41 78.23 135.07 61.98ZM137.78 94.86L137.88 94.96L137.83 94.92Q134.77 96.51 130.70 96.51L130.65 96.47L127.85 96.53L127.85 96.53Q122.20 96.54 120.20 93.54L120.08 93.42L120.26 93.60Q118.71 89.65 118.58 84.52L118.72 84.66L118.74 84.68Q118.50 81.45 118.37 75.38L118.45 75.47L118.54 75.56Q118.35 73.30 118.08 67.97L118.05 67.94L118.01 67.90Q117.96 63.99 118.49 60.52L118.60 60.63L118.56 60.59Q119.30 55.33 126.89 54.93L126.97 55.00L126.97 55.00Q128.26 54.90 130.60 54.97L130.65 55.03L130.55 54.92Q140.54 55.25 142.40 61.32L142.49 61.40L142.46 61.37Q143.52 64.70 143.46 67.96L143.40 67.91L143.36 67.87Q143.37 76.73 143.23 78.87L143.22 78.85L143.12 78.76Q142.81 85.43 142.27 87.70L142.26 87.69L142.32 87.75Q141.07 93.09 137.74 94.82ZM146.52 94.54L146.58 94.60L146.55 94.57Q146.90 89.66 146.83 86.53L146.80 86.49L146.61 78.38L146.78 78.55Q146.56 73.20 145.62 63.54L145.66 63.57L145.56 63.47Q144.63 60.28 142.37 58.94L142.41 58.99L142.49 59.07Q139.72 54.56 130.66 54.30L130.68 54.32L130.59 54.23Q129.09 54.19 126.75 54.26L126.73 54.23L126.72 54.23Q118.86 54.42 117.99 59.89L118.02 59.92L118.05 59.95Q117.23 63.85 117.43 67.51L117.48 67.57L117.60 67.69Q118.16 75.31 118.10 81.18L117.99 81.07L118.01 81.09Q117.93 87.54 118.13 89.33L118.09 89.30L118.26 89.47Q118.80 94.74 121.47 96.14L121.49 96.16L121.52 96.19Q124.16 100.10 131.15 100.56L131.03 100.44L131.01 100.42Q137.28 100.83 138.41 100.76L138.49 100.84L138.46 100.81Q143.53 100.61 145.53 97.81L145.43 97.72L145.40 97.69Q146.35 96.57 146.48 94.51ZM131.35 91.44L131.52 91.60L131.36 91.44Q132.56 88.91 134.43 84.18L134.51 84.27L137.43 76.79L137.52 76.88Q137.39 79.69 136.73 85.55L136.76 85.58L136.84 85.66Q135.68 90.70 131.48 91.56ZM128.06 70.09L127.97 69.99L128.03 70.06Q128.83 66.93 130.03 65.93L130.03 65.93L129.96 65.86Q130.74 65.10 133.00 64.77L133.03 64.80L133.00 64.77Q130.02 71.19 126.76 79.31L126.79 79.34L126.78 79.33Q126.79 74.61 127.99 70.02Z"/><path d="M9 26 C168 56,162 77,337 135" stroke="#4242e0" fill="none"/><path d="M15 35 C186 97,172 89,336 97" stroke="#dca56f" fill="none"/><path d="M3 136 C169 93,165 72,330 139" stroke="#df7575" fill="none"/><path d="M11 88 C169 34,159 101,327 39" stroke="#7ff09b" fill="none"/><path d="M17 46 C166 117,188 88,330 18" stroke="#78e292" fill="none"/><path d="M13 36 C185 89,187 50,337 83" stroke="#4068e2" fill="none"/><path d="M13 37 C158 40,154 61,323 7" stroke="#da67da" fill="none"/><path d="M11 76 C170 85,178 131,336 87" stroke="#e46bc6" fill="none"/><path d="M10 115 C191 7,157 88,332 75" stroke="#53c3e8" fill="none"/><path d="M16 36 C175 127,170 137,325 101" stroke="#7d99ec" fill="none"/><path fill="#46db46" d="M266.85 77.28L266.83 77.26L266.83 77.25Q263.66 77.08 261.49 79.58L261.48 79.57L261.42 79.51Q259.17 81.92 258.84 85.25L258.95 85.36L258.96 85.37Q258.59 89.00 260.48 90.70L260.35 90.56L260.46 90.67Q262.34 92.35 266.01 92.16L266.01 92.16L266.03 92.18Q269.58 91.79 271.51 90.59L271.48 90.56L271.52 90.60Q273.62 88.77 273.62 86.04L273.61 86.04L273.57 85.99Q273.65 85.41 273.52 84.74L273.40 84.63L273.40 84.63Q273.55 81.71 271.62 79.34L271.71 79.44L271.56 79.29Q269.78 77.08 266.85 77.28ZM266.07 96.68L266.05 96.66L266.00 96.61Q258.33 96.60 255.86 95.27L255.98 95.38L255.87 95.28Q254.06 93.93 253.73 90.94L253.68 90.89L253.75 90.96Q253.80 89.87 253.86 88.60L253.70 88.44L253.82 88.56Q254.00 86.81 254.00 86.01L253.94 85.95L253.98 85.99Q254.72 80.93 254.98 79.73L255.09 79.84L254.96 79.71Q255.77 76.32 257.23 73.85L257.24 73.86L257.24 73.86Q261.94 66.24 272.34 55.11L272.37 55.15L272.40 55.18Q276.96 54.54 280.83 53.15L280.88 53.19L280.84 53.16Q268.90 66.27 263.31 73.67L263.28 73.64L263.33 73.68Q265.12 72.88 267.39 72.88L267.37 72.87L267.36 72.86Q273.15 72.85 275.81 76.25L275.80 76.23L275.76 76.19Q278.01 78.98 278.61 85.17L278.70 85.26L278.66 85.22Q278.86 86.56 278.86 87.62L278.74 87.50L278.89 87.65Q278.88 93.10 275.02 94.97L275.01 94.96L274.95 94.90Q272.81 95.96 266.01 96.62ZM269.97 100.78L270.05 100.86L270.08 100.89Q272.34 100.82 275.80 100.95L275.74 100.89L275.77 100.92Q278.59 101.01 281.33 99.75L281.33 99.75L281.34 99.76Q283.29 98.38 283.29 95.25L283.37 95.33L283.37 95.33Q283.28 94.37 282.98 92.64L283.01 92.66L283.05 92.71Q282.73 90.96 282.73 90.16L282.63 90.06L282.61 90.04Q281.24 81.94 278.44 78.61L278.30 78.47L278.38 78.55Q278.25 78.35 277.98 77.95L278.03 78.00L277.33 77.43L277.29 77.46L277.27 77.44Q276.68 76.58 275.62 74.92L275.72 75.02L275.72 75.02Q274.04 73.27 270.58 72.47L270.66 72.55L270.59 72.49Q272.62 69.58 277.81 63.12L277.91 63.22L285.28 53.93L285.21 53.86Q282.50 55.41 278.30 56.75L278.27 56.71L278.28 56.72Q279.93 55.04 283.06 51.58L283.03 51.55L283.08 51.60Q278.85 53.43 272.05 54.43L272.06 54.44L272.17 54.55Q262.11 64.81 256.91 73.47L256.89 73.45L256.90 73.45Q254.22 77.84 253.22 88.76L253.20 88.75L253.21 88.76Q253.16 89.83 253.29 91.50L253.17 91.38L253.28 91.48Q253.43 94.57 255.37 96.17L255.35 96.16L255.35 96.16Q255.95 96.36 255.89 96.42L255.99 96.53L255.99 96.53Q256.49 97.96 257.88 98.69L258.02 98.83L258.03 98.83Q260.55 100.02 263.95 100.35L263.97 100.38L263.92 100.33Q264.00 100.40 270.12 100.94ZM269.66 81.22L269.71 81.27L269.58 81.13Q270.56 80.92 272.23 81.79L272.30 81.86L272.38 81.94Q272.81 83.43 272.81 84.57L272.89 84.65L272.84 84.60Q273.28 87.96 271.61 89.70L271.64 89.72L271.56 89.64Q269.68 90.90 266.02 91.43L266.02 91.44L265.96 91.38Q263.60 91.54 262.66 91.08L262.54 90.95L262.62 91.04Q262.25 90.19 262.25 89.66L262.33 89.75L262.30 89.71Q261.76 83.84 266.89 81.58L266.97 81.66L267.05 81.73Q268.35 81.11 269.69 81.24Z"/><path d="M13 57 C190 41,176 48,323 33" stroke="#db5656" fill="none"/><path d="M10 96 C162 51,181 10,339 78" stroke="#7ce396" fill="none"/><path d="M5 49 C151 69,154 65,326 102" stroke="#8aeb6a" fill="none"/><path fill="#78e2ad" d="M205.56 73.75L205.51 73.71L205.52 73.72Q207.07 73.87 209.54 73.61L209.44 73.50L209.44 73.50Q209.48 74.74 209.48 75.88L209.49 75.89L209.38 77.98L209.33 77.93Q207.98 78.04 206.51 78.17L206.41 78.08L206.37 78.04Q205.01 78.20 203.54 78.13L203.50 78.09L203.62 78.22Q198.48 88.86 192.48 96.92L192.50 96.94L192.48 96.92Q188.17 98.14 185.91 99.21L185.91 99.21L185.86 99.16Q193.01 89.12 198.34 78.13L198.43 78.22L193.88 78.27L193.85 78.24Q193.90 75.96 193.70 73.63L193.64 73.56L193.59 73.51Q196.84 73.70 200.44 73.70L200.63 73.90L203.96 67.43L203.78 67.25Q205.61 64.02 207.75 61.22L207.73 61.20L207.76 61.23Q204.97 61.45 202.17 61.45L202.26 61.53L202.29 61.56Q191.59 61.52 184.99 57.65L184.85 57.51L183.82 54.62L183.86 54.65Q183.16 53.09 182.49 51.56L182.64 51.71L182.52 51.58Q190.19 56.25 200.18 56.65L200.16 56.63L200.12 56.60Q209.07 56.95 218.06 53.48L218.09 53.51L218.18 53.60Q217.88 54.37 217.01 55.90L217.02 55.90L216.83 55.72Q210.66 64.20 205.66 73.86ZM219.76 58.24L219.62 58.11L221.36 54.58L221.55 54.77Q219.83 55.59 216.90 56.85L216.85 56.80L217.11 56.19L217.27 56.36Q217.41 56.03 217.61 55.83L217.64 55.86L217.65 55.87Q218.35 54.71 219.62 52.37L219.59 52.35L219.60 52.36Q210.27 56.35 200.21 55.95L200.20 55.94L200.19 55.93Q189.71 55.51 181.38 50.31L181.20 50.13L181.37 50.30Q183.10 53.49 184.56 58.16L184.55 58.15L184.54 58.14Q186.49 59.28 187.88 59.81L187.90 59.83L187.91 59.84Q188.22 60.48 189.02 63.74L189.03 63.75L188.95 63.67Q194.56 65.95 204.22 65.69L204.12 65.59L204.17 65.64Q203.61 66.62 200.15 73.21L200.22 73.28L200.17 73.23Q196.54 73.20 193.07 72.86L193.12 72.91L192.99 72.78Q193.23 74.35 193.23 75.88L193.21 75.86L193.25 78.90L196.05 78.78L196.23 81.41L196.10 81.29Q189.37 94.34 184.51 100.61L184.46 100.56L184.38 100.48Q187.23 99.20 190.10 98.33L190.09 98.33L190.03 98.27Q188.93 99.96 186.53 102.96L186.39 102.83L186.39 102.82Q192.10 101.07 196.37 100.67L196.35 100.66L196.28 100.59Q201.47 94.05 206.94 82.20L206.88 82.14L212.95 82.55L212.96 82.55Q212.73 80.86 212.73 79.26L212.75 79.28L212.80 76.21L212.69 76.09Q212.35 76.22 211.39 76.29L211.20 76.10L211.28 76.18Q210.32 76.25 209.85 76.25L209.92 76.32L209.83 76.23Q209.77 75.97 209.84 75.70L209.85 75.72L210.03 75.43L209.83 75.23Q214.36 66.37 219.75 58.24Z"/><path d="M9 51 C171 87,165 117,335 49" stroke="#e1e14b" fill="none"/><path d="M10 115 C171 69,172 127,335 123" stroke="#a48ee6" fill="none"/><path d="M17 127 C185 128,179 2,338 100" stroke="#7694ee" fill="none"/><path d="M19 97 C189 52,169 74,325 43" stroke="#4ad3b1" fill="none"/><path d="M6 34 C171 118,192 6,337 131" stroke="#e287cb" fill="none"/><path d="M11 129 C178 16,172 11,325 72" stroke="#87edd3" fill="none"/><path d="M21 112 C165 65,174 58,326 66" stroke="#e68565" fill="none"/><path d="M6 15 C178 48,164 75,334 85" stroke="#80eeb7" fill="none"/><path d="M15 56 C156 79,190 109,331 43" stroke="#55e19b" fill="none"/><path d="M12 79 C182 105,190 75,331 46" stroke="#df66c1" fill="none"/><path d="M12 41 C161 22,160 135,327 81" stroke="#d94369" fill="none"/><path d="M20 3 C175 136,184 3,339 43" stroke="#5ee2a0" fill="none"/><path d="M6 105 C189 87,181 57,339 137" stroke="#d4d449" fill="none"/><path d="M8 58 C184 122,186 89,327 75" stroke="#adeb6f" fill="none"/><path d="M5 24 C190 121,191 82,337 56" stroke="#a089e6" fill="none"/><path d="M10 32 C184 3,173 118,334 73" stroke="#bc8aef" fill="none"/><path d="M20 119 C170 136,159 6,328 116" stroke="#ef9f84" fill="none"/><path d="M3 40 C186 92,162 4,323 23" stroke="#93de48" fill="none"/><path d="M19 6 C153 80,170 82,327 26" stroke="#dcc06f" fill="none"/><path d="M11 8 C164 19,177 30,335 76" stroke="#e38c35" fill="none"/></svg>