<svg xmlns="http://www.w3.org/2000/svg" width="342" height="140" viewBox="0,0,342,140"><path d="M18 16 C173 98,179 117,330 124" stroke="#b34cd6" fill="none"/><path fill="#df6bc2" d="M273.21 73.00L273.40 73.19L273.26 73.06Q274.45 73.10 276.46 72.89L276.42 72.84L276.36 72.78Q276.40 73.80 276.40 74.73L276.43 74.75L276.32 76.44L276.49 76.61Q275.22 76.53 274.02 76.64L274.00 76.63L273.94 76.56Q272.75 76.62 271.55 76.57L271.69 76.70L271.53 76.55Q267.52 85.43 262.63 92.01L262.62 92.00L262.66 92.04Q259.07 92.97 257.22 93.84L257.29 93.90L257.14 93.75Q263.02 85.60 267.37 76.62L267.37 76.63L263.62 76.63L263.71 76.72Q263.66 74.77 263.50 72.87L263.59 72.95L263.49 72.86Q266.31 73.17 269.25 73.17L269.08 73.01L271.99 67.92L271.79 67.73Q273.40 65.20 275.14 62.92L275.02 62.79L275.11 62.89Q272.90 63.12 270.61 63.12L270.44 62.95L270.60 63.10Q261.82 63.03 256.44 59.88L256.49 59.92L255.55 57.47L255.58 57.50Q254.94 56.14 254.39 54.89L254.47 54.97L254.53 55.03Q260.63 58.68 268.79 59.01L268.94 59.16L268.86 59.09Q276.14 59.35 283.49 56.52L283.59 56.62L283.62 56.66Q283.29 57.20 282.59 58.45L282.47 58.33L282.45 58.32Q277.46 65.29 273.38 73.17ZM284.85 60.39L284.84 60.38L286.20 57.45L286.17 57.42Q284.93 58.24 282.53 59.27L282.42 59.16L282.75 58.78L282.69 58.72Q282.99 58.64 283.15 58.48L283.01 58.33L283.16 58.49Q283.61 57.41 284.64 55.50L284.64 55.50L284.76 55.62Q277.15 58.89 268.93 58.56L268.82 58.45L268.87 58.50Q260.21 58.05 253.42 53.81L253.43 53.83L253.40 53.80Q254.88 56.47 256.07 60.27L256.18 60.38L256.02 60.22Q257.65 61.19 258.79 61.63L258.85 61.69L258.91 61.75Q259.01 62.13 259.67 64.79L259.62 64.74L259.64 64.77Q264.27 66.68 272.16 66.46L272.16 66.46L272.02 66.32Q271.76 67.31 268.93 72.69L268.92 72.68L268.76 72.53Q265.95 72.65 263.12 72.38L263.04 72.29L263.08 72.33Q263.23 73.58 263.23 74.83L263.16 74.76L263.12 77.16L265.65 77.30L265.51 79.17L265.65 79.31Q259.91 89.72 255.94 94.83L256.02 94.91L256.02 94.91Q258.22 93.74 260.56 93.04L260.56 93.04L260.73 93.21Q259.56 94.32 257.60 96.77L257.74 96.91L257.60 96.77Q262.20 95.28 265.68 94.95L265.79 95.06L265.68 94.95Q269.79 89.49 274.25 79.81L274.33 79.88L279.22 80.15L279.29 80.23Q279.05 78.79 279.05 77.49L279.10 77.53L279.06 74.93L279.04 74.92Q278.83 75.09 278.04 75.14L277.95 75.05L278.05 75.15Q277.08 75.03 276.70 75.03L276.85 75.17L276.75 75.07Q276.80 74.96 276.86 74.75L276.81 74.70L276.93 74.44L276.76 74.27Q280.51 67.08 284.91 60.45Z"/><path d="M6 118 C173 117,177 32,326 9" stroke="#b5e287" fill="none"/><path d="M14 70 C173 23,154 44,327 23" stroke="#aade77" fill="none"/><path d="M21 120 C169 121,168 51,336 78" stroke="#ba89eb" fill="none"/><path d="M21 99 C164 20,174 108,341 15" stroke="#e2597b" fill="none"/><path d="M3 82 C168 139,181 26,321 137" stroke="#79e1c7" fill="none"/><path d="M20 75 C153 16,151 115,340 17" stroke="#8da6f0" fill="none"/><path d="M17 84 C160 74,154 60,323 9" stroke="#ea61a5" fill="none"/><path d="M2 105 C190 113,151 115,339 106" stroke="#6ee7c9" fill="none"/><path d="M14 111 C161 110,167 86,322 99" stroke="#e87171" fill="none"/><path d="M20 46 C182 35,171 85,324 43" stroke="#6f8eeb" fill="none"/><path d="M10 36 C183 41,161 54,333 102" stroke="#56bde0" fill="none"/><path d="M15 6 C168 104,177 51,322 26" stroke="#89e6a0" fill="none"/><path d="M14 26 C155 16,154 1,328 18" stroke="#80e060" fill="none"/><path d="M7 90 C156 70,188 21,324 112" stroke="#d689ef" fill="none"/><path d="M7 130 C160 15,175 18,338 11" stroke="#dd5476" fill="none"/><path d="M4 136 C184 24,167 12,321 111" stroke="#78e2ad" fill="none"/><path d="M17 14 C191 66,188 77,327 7" stroke="#9ee457" fill="none"/><path d="M4 74 C175 76,182 3,334 29" stroke="#663fde" fill="none"/><path d="M13 58 C153 30,167 33,333 61" stroke="#8fe48f" fill="none"/><path d="M1 80 C166 1,185 97,334 136" stroke="#6ee7aa" fill="none"/><path fill="#80e4e4" d="M63.68 75.82L63.76 75.90L63.82 75.97Q61.16 75.75 59.39 77.79L59.44 77.84L59.39 77.79Q57.63 79.83 57.36 82.55L57.23 82.42L57.32 82.51Q56.91 85.37 58.46 86.76L58.53 86.82L58.54 86.83Q60.01 88.14 63.00 87.97L63.13 88.11L63.08 88.06Q65.97 87.74 67.55 86.76L67.66 86.87L67.64 86.85Q69.23 85.23 69.23 83.00L69.32 83.09L69.27 83.05Q69.23 82.46 69.12 81.91L69.16 81.95L69.13 81.93Q69.25 79.55 67.67 77.61L67.68 77.62L67.65 77.59Q66.03 75.61 63.63 75.78ZM63.13 91.75L63.18 91.80L63.22 91.84Q56.80 91.68 54.79 90.59L54.82 90.62L54.95 90.75Q53.47 89.65 53.20 87.20L53.18 87.18L53.03 87.03Q53.01 86.09 53.07 85.06L53.16 85.16L53.05 85.04Q53.34 83.75 53.34 83.10L53.28 83.05L53.31 83.07Q53.85 78.89 54.07 77.91L54.12 77.96L54.07 77.90Q54.84 75.25 56.04 73.24L55.97 73.17L55.92 73.12Q59.76 66.90 68.24 57.82L68.27 57.85L68.27 57.84Q72.14 57.47 75.29 56.33L75.29 56.32L75.21 56.24Q65.47 66.95 60.90 72.99L60.95 73.04L60.95 73.03Q62.36 72.33 64.21 72.33L64.22 72.33L64.19 72.31Q68.87 72.25 71.04 75.03L71.15 75.13L70.97 74.96Q73.02 77.44 73.51 82.50L73.39 82.38L73.39 82.37Q73.67 83.59 73.67 84.46L73.54 84.32L73.61 84.39Q73.66 88.91 70.51 90.43L70.44 90.36L70.36 90.28Q68.68 91.21 63.13 91.75ZM66.34 95.13L66.44 95.23L66.45 95.23Q68.27 95.15 71.09 95.26L71.15 95.32L71.14 95.30Q73.49 95.43 75.72 94.39L75.68 94.35L75.63 94.30Q77.26 93.21 77.26 90.65L77.30 90.69L77.19 90.58Q77.19 89.88 76.95 88.47L77.06 88.58L76.92 88.44Q76.65 87.00 76.65 86.35L76.78 86.48L76.66 86.35Q75.52 79.73 73.24 77.01L73.25 77.01L73.13 76.89Q73.07 76.78 72.85 76.46L72.86 76.47L72.51 76.22L72.34 76.10L72.26 76.03Q71.84 75.39 70.97 74.03L70.92 73.98L70.87 73.93Q69.62 72.62 66.79 71.97L66.74 71.92L66.75 71.93Q68.55 69.71 72.80 64.44L72.81 64.45L78.85 56.89L78.76 56.80Q76.61 58.14 73.19 59.23L73.12 59.16L73.27 59.31Q74.44 57.76 77.00 54.93L76.98 54.92L77.15 55.08Q73.65 56.53 68.10 57.35L68.06 57.31L67.98 57.23Q59.96 65.79 55.72 72.86L55.78 72.93L55.74 72.89Q53.42 76.33 52.60 85.25L52.73 85.37L52.72 85.36Q52.67 86.24 52.77 87.60L52.67 87.49L52.71 87.53Q52.84 90.06 54.42 91.36L54.37 91.31L54.38 91.33Q54.93 91.55 54.88 91.60L54.91 91.63L54.83 91.55Q55.44 92.93 56.58 93.53L56.64 93.58L56.58 93.53Q58.55 94.40 61.32 94.67L61.33 94.68L61.40 94.76Q61.37 94.73 66.38 95.16ZM66.00 79.07L66.14 79.21L66.00 79.07Q66.83 78.92 68.19 79.63L68.26 79.69L68.25 79.68Q68.66 80.96 68.66 81.89L68.66 81.90L68.70 81.93Q68.93 84.56 67.57 85.97L67.70 86.10L67.74 86.14Q66.04 86.99 63.05 87.43L63.19 87.57L63.09 87.47Q61.15 87.60 60.39 87.22L60.29 87.11L60.30 87.13Q60.01 86.46 60.01 86.02L60.03 86.04L60.05 86.06Q59.80 81.47 63.99 79.62L63.98 79.60L63.95 79.57Q65.07 79.12 66.16 79.23Z"/><path d="M1 127 C184 40,160 33,325 71" stroke="#406ae7" fill="none"/><path d="M1 19 C165 113,181 100,337 9" stroke="#4fd370" fill="none"/><path d="M15 134 C159 75,152 100,325 20" stroke="#b7ed82" fill="none"/><path d="M4 61 C155 45,172 117,333 61" stroke="#41e6e6" fill="none"/><path d="M4 121 C189 7,166 34,325 44" stroke="#e6cd83" fill="none"/><path d="M10 78 C153 129,173 47,338 53" stroke="#7956e0" fill="none"/><path d="M10 52 C189 74,182 35,331 93" stroke="#bce14b" fill="none"/><path d="M13 46 C168 69,164 65,334 124" stroke="#df6b6b" fill="none"/><path d="M3 76 C163 108,169 23,333 19" stroke="#7dd0ec" fill="none"/><path d="M20 121 C151 71,185 76,340 68" stroke="#987ee6" fill="none"/><path d="M10 48 C159 134,173 37,336 83" stroke="#5096dc" fill="none"/><path d="M19 19 C173 11,155 10,323 137" stroke="#bde056" fill="none"/><path d="M1 19 C176 12,162 80,331 56" stroke="#69dd69" fill="none"/><path d="M17 23 C153 11,184 5,340 101" stroke="#6b45dd" fill="none"/><path d="M3 137 C152 1,168 57,327 103" stroke="#e8e86d" fill="none"/><path d="M4 59 C174 63,162 82,328 113" stroke="#ec9578" fill="none"/><path d="M3 25 C185 23,184 98,323 31" stroke="#9090e4" fill="none"/><path d="M20 69 C188 89,155 57,322 23" stroke="#e278e2" fill="none"/><path fill="#8686e3" d="M132.74 67.75L132.76 67.77L132.77 67.78Q128.17 67.74 125.56 66.22L125.45 66.12L125.46 66.12Q129.04 64.15 136.00 58.12L136.11 58.22L136.07 58.19Q137.08 57.90 138.93 57.03L138.94 57.04L138.99 57.09Q137.15 65.63 136.98 74.71L136.92 74.65L136.91 74.63Q136.66 83.63 138.19 92.34L138.25 92.39L138.34 92.49Q135.87 91.38 132.83 91.22L132.81 91.20L132.84 91.23Q132.58 85.21 132.58 79.39L132.60 79.41L132.74 79.54Q132.63 73.56 132.68 67.69ZM132.09 70.85L132.10 91.68L132.12 91.71Q133.97 91.82 135.33 92.09L135.24 92.00L135.34 92.10Q135.33 92.96 135.60 94.92L135.56 94.87L135.74 95.05Q139.65 95.65 143.14 98.86L143.30 99.02L143.21 98.93Q139.66 88.75 139.60 78.09L139.66 78.15L139.69 78.18Q139.49 67.43 142.10 57.10L142.03 57.02L142.17 57.16Q141.39 57.74 139.10 59.32L139.14 59.35L139.05 59.26Q139.28 58.13 139.71 55.96L139.82 56.06L139.76 56.00Q137.82 57.06 135.76 57.60L135.82 57.67L135.88 57.73Q130.46 62.80 124.31 66.06L124.19 65.94L124.33 66.08Q126.27 67.58 129.64 68.07L129.59 68.02L129.66 68.09Q128.79 68.91 126.94 70.43L126.79 70.28L126.89 70.38Q129.06 70.97 132.21 70.97L132.14 70.90Z"/><path d="M17 82 C163 107,166 34,324 96" stroke="#dd964f" fill="none"/><path fill="#98e77d" d="M200.72 67.72L200.72 67.73L200.61 67.62Q196.05 67.63 193.44 66.10L193.46 66.12L193.50 66.16Q197.19 64.31 204.15 58.27L204.05 58.16L204.10 58.22Q205.04 57.85 206.89 56.98L207.00 57.09L206.92 57.01Q205.12 65.60 204.96 74.68L204.92 74.65L204.84 74.56Q204.71 83.68 206.23 92.38L206.23 92.38L206.24 92.39Q203.92 91.43 200.87 91.26L200.88 91.28L200.85 91.24Q200.56 85.18 200.56 79.36L200.73 79.54L200.72 79.53Q200.70 73.63 200.75 67.76ZM200.18 70.93L200.13 91.72L200.19 91.78Q201.87 91.72 203.23 91.99L203.28 92.04L203.33 92.09Q203.33 92.96 203.60 94.92L203.72 95.03L203.72 95.04Q207.82 95.82 211.30 99.03L211.24 98.96L211.15 98.87Q207.73 88.82 207.67 78.16L207.58 78.06L207.60 78.08Q207.53 67.47 210.14 57.13L210.14 57.13L210.08 57.07Q209.29 57.65 207.01 59.22L207.11 59.32L207.07 59.28Q207.31 58.17 207.75 55.99L207.71 55.95L207.86 56.11Q205.87 57.11 203.81 57.65L203.89 57.73L203.80 57.65Q198.38 62.72 192.23 65.98L192.36 66.11L192.22 65.97Q194.31 67.63 197.69 68.12L197.69 68.12L197.68 68.12Q196.64 68.76 194.79 70.28L194.92 70.41L194.82 70.31Q197.01 70.92 200.17 70.92L200.10 70.86Z"/></svg>