<svg xmlns="http://www.w3.org/2000/svg" width="342" height="140" viewBox="0,0,342,140"><path d="M13 130 C164 65,175 79,331 37" stroke="#eeee67" fill="none"/><path d="M13 42 C169 35,156 92,333 137" stroke="#c778e2" fill="none"/><path fill="#8e48d5" d="M199.01 77.06L199.03 77.07L198.92 76.97Q195.76 76.71 193.66 79.13L193.75 79.22L193.71 79.18Q191.66 81.65 191.34 84.88L191.25 84.80L191.39 84.94Q190.98 88.40 192.83 90.05L192.73 89.96L192.72 89.95Q194.70 91.73 198.26 91.54L198.08 91.37L198.18 91.47Q201.61 91.08 203.48 89.92L203.65 90.09L203.65 90.09Q205.55 88.18 205.55 85.53L205.58 85.56L205.58 85.56Q205.52 84.86 205.39 84.21L205.36 84.18L205.41 84.23Q205.45 81.30 203.57 79.00L203.71 79.14L203.73 79.16Q201.77 76.77 198.92 76.97ZM198.14 95.75L198.17 95.78L198.24 95.85Q190.80 95.84 188.41 94.55L188.35 94.48L188.36 94.50Q186.57 93.16 186.25 90.25L186.40 90.40L186.24 90.25Q186.28 89.19 186.35 87.96L186.38 87.99L186.39 88.01Q186.53 86.28 186.53 85.50L186.58 85.54L186.47 85.44Q187.21 80.56 187.46 79.39L187.62 79.55L187.57 79.50Q188.42 76.28 189.84 73.89L189.67 73.72L189.85 73.90Q194.22 66.32 204.29 55.53L204.44 55.68L204.39 55.64Q208.90 55.10 212.64 53.75L212.65 53.75L212.63 53.74Q200.96 66.35 195.54 73.52L195.61 73.59L195.62 73.60Q197.34 72.80 199.53 72.80L199.41 72.67L199.40 72.67Q205.08 72.73 207.67 76.02L207.68 76.04L207.74 76.09Q209.95 78.82 210.53 84.83L210.51 84.81L210.39 84.69Q210.68 86.08 210.68 87.11L210.71 87.14L210.62 87.05Q210.67 92.40 206.93 94.21L206.83 94.11L206.95 94.23Q204.84 95.22 198.26 95.87ZM202.13 99.94L202.17 99.98L202.11 99.92Q204.26 99.80 207.62 99.93L207.56 99.88L207.57 99.89Q210.34 100.01 212.99 98.79L213.08 98.88L212.99 98.78Q214.99 97.55 214.99 94.52L214.99 94.52L215.00 94.53Q214.98 93.67 214.69 91.99L214.58 91.88L214.65 91.95Q214.42 90.33 214.42 89.56L214.41 89.55L214.41 89.55Q212.86 81.47 210.14 78.24L210.08 78.18L210.18 78.28Q210.05 78.09 209.79 77.70L209.80 77.71L209.25 77.28L209.19 77.29L209.14 77.24Q208.51 76.35 207.47 74.73L207.46 74.72L207.49 74.75Q206.06 73.25 202.70 72.48L202.66 72.44L202.62 72.40Q204.72 69.72 209.76 63.46L209.78 63.48L216.95 54.50L216.88 54.43Q214.16 55.84 210.09 57.13L210.17 57.21L210.21 57.25Q211.81 55.63 214.85 52.27L214.83 52.25L214.70 52.12Q210.72 54.02 204.13 54.99L204.17 55.03L204.14 55.00Q194.40 64.96 189.37 73.35L189.37 73.36L189.42 73.41Q186.82 77.66 185.86 88.25L185.82 88.21L185.86 88.25Q185.66 89.15 185.79 90.77L185.88 90.85L185.72 90.70Q186.05 93.86 187.92 95.41L187.75 95.25L187.83 95.32Q188.44 95.54 188.37 95.61L188.49 95.73L188.41 95.65Q189.08 97.22 190.44 97.93L190.31 97.80L190.32 97.81Q192.84 99.04 196.13 99.36L196.13 99.36L196.21 99.44Q196.19 99.42 202.13 99.94ZM201.77 80.91L201.66 80.81L201.74 80.89Q202.71 80.69 204.33 81.53L204.22 81.42L204.36 81.57Q204.78 83.02 204.78 84.11L204.90 84.24L204.79 84.13Q205.11 87.28 203.49 88.96L203.59 89.06L203.62 89.09Q201.71 90.22 198.16 90.74L198.13 90.71L198.28 90.86Q195.76 90.79 194.85 90.34L194.91 90.39L194.77 90.25Q194.61 89.64 194.61 89.13L194.50 89.01L194.46 88.97Q194.14 83.49 199.11 81.29L199.05 81.22L199.11 81.29Q200.44 80.74 201.73 80.87Z"/><path d="M8 129 C161 132,165 95,333 52" stroke="#c4e368" fill="none"/><path d="M10 69 C162 6,186 79,336 76" stroke="#efd584" fill="none"/><path d="M19 102 C191 110,183 67,334 125" stroke="#db6842" fill="none"/><path d="M6 85 C153 132,172 106,333 126" stroke="#4242e5" fill="none"/><path d="M12 103 C177 121,172 90,334 86" stroke="#c6e174" fill="none"/><path d="M5 123 C159 112,151 3,334 8" stroke="#6c6ce9" fill="none"/><path d="M18 113 C168 111,152 85,339 107" stroke="#51e0e0" fill="none"/><path d="M3 108 C183 137,181 127,333 98" stroke="#6fdc4b" fill="none"/><path d="M16 127 C167 138,172 42,333 68" stroke="#e86284" fill="none"/><path d="M11 117 C168 8,176 20,339 118" stroke="#7decec" fill="none"/><path d="M14 18 C180 75,183 98,334 36" stroke="#afee71" fill="none"/><path d="M19 86 C167 70,159 37,335 45" stroke="#ed7777" fill="none"/><path d="M20 115 C184 66,153 45,327 29" stroke="#e538b9" fill="none"/><path fill="#77dede" d="M260.44 83.53L260.36 83.45L260.40 83.49Q265.73 82.94 271.15 83.14L270.99 82.97L271.16 83.14Q271.03 78.75 271.03 74.68L271.09 74.74L270.97 74.62Q270.92 70.37 271.24 66.04L271.25 66.05L271.40 66.20Q269.29 69.06 260.44 83.53ZM277.18 95.94L277.11 95.87L277.11 95.87Q274.38 95.47 271.34 95.34L271.35 95.35L271.33 95.32Q270.90 91.22 270.71 87.02L270.80 87.11L270.76 87.07Q261.79 86.82 253.78 89.21L253.66 89.09L253.81 89.24Q253.95 88.34 254.27 86.66L254.23 86.62L254.36 86.75Q257.40 81.39 263.47 70.74L263.43 70.69L263.36 70.63Q268.37 62.46 274.18 55.87L274.19 55.88L274.15 55.85Q275.53 55.42 278.37 54.97L278.34 54.94L278.52 55.11Q275.24 65.98 275.24 77.93L275.14 77.82L275.29 77.98Q275.16 80.36 275.28 82.87L275.25 82.84L277.45 83.04L277.62 83.21Q278.50 83.12 279.54 83.32L279.61 83.39L279.66 83.44Q279.76 85.02 280.21 88.32L280.31 88.42L280.26 88.37Q278.13 87.85 275.61 87.53L275.60 87.52L275.59 87.51Q275.96 90.91 277.12 95.88ZM280.00 82.68L280.14 82.82L279.97 82.65Q279.63 82.51 279.31 82.51L279.41 82.61L278.74 82.58L278.67 82.51Q278.58 80.10 278.58 77.71L278.46 77.59L278.51 77.64Q278.47 66.75 281.96 56.54L282.06 56.65L282.05 56.64Q280.77 57.10 278.31 57.75L278.31 57.74L278.31 57.74Q278.68 56.43 279.46 54.04L279.43 54.02L279.49 54.08Q277.32 54.75 273.83 55.14L273.68 54.98L273.75 55.06Q267.19 62.51 258.34 78.40L258.24 78.30L261.78 72.08L261.81 72.11Q261.07 73.82 260.61 74.79L260.67 74.85L253.19 90.23L253.07 90.11Q254.23 89.91 256.17 89.27L256.10 89.20L255.79 89.54L255.83 89.57Q255.70 90.81 255.19 92.94L255.08 92.83L255.12 92.87Q262.08 90.59 270.28 90.91L270.33 90.96L270.34 90.97Q270.38 92.57 270.71 95.93L270.82 96.04L270.77 95.99Q272.48 95.90 274.29 96.09L274.45 96.25L274.45 96.25Q274.62 97.33 275.08 99.65L275.16 99.73L275.09 99.67Q278.28 100.01 283.38 101.56L283.42 101.60L283.34 101.52Q281.70 97.95 280.15 92.39L280.13 92.37L282.57 93.13L282.69 93.25Q283.88 93.66 285.04 94.25L284.96 94.17L284.98 94.19Q283.60 89.90 283.35 87.06L283.40 87.12L283.43 87.14Q282.39 86.82 280.45 86.43L280.44 86.42L280.41 86.39Q280.08 84.24 280.08 82.76ZM266.57 82.56L266.46 82.44L266.40 82.38Q267.78 80.28 270.43 75.95L270.35 75.88L270.37 75.89Q270.48 77.62 270.42 79.24L270.42 79.24L270.34 79.16Q270.42 80.91 270.48 82.53L270.45 82.50L270.46 82.50Q269.54 82.49 268.57 82.49L268.43 82.35L268.57 82.49Q267.59 82.54 266.56 82.54Z"/><path d="M17 30 C181 86,178 19,328 3" stroke="#c7eb5a" fill="none"/><path d="M2 20 C166 106,159 25,323 26" stroke="#5fdd5f" fill="none"/><path d="M17 133 C176 109,160 63,321 99" stroke="#7adf7a" fill="none"/><path d="M8 104 C175 133,153 57,335 42" stroke="#ad6feb" fill="none"/><path d="M18 27 C175 137,185 58,341 8" stroke="#4abce2" fill="none"/><path d="M1 54 C153 54,171 38,327 49" stroke="#60dc9e" fill="none"/><path d="M5 44 C160 3,180 65,324 23" stroke="#dd4f72" fill="none"/><path d="M16 109 C179 122,162 36,332 96" stroke="#5be09e" fill="none"/><path d="M15 134 C190 52,154 98,334 27" stroke="#e8e85e" fill="none"/><path d="M15 125 C168 13,157 107,333 96" stroke="#7fe097" fill="none"/><path d="M10 119 C153 120,152 85,330 123" stroke="#6fd44e" fill="none"/><path d="M20 66 C155 75,189 7,327 125" stroke="#a35de8" fill="none"/><path d="M7 59 C159 67,164 132,329 82" stroke="#b85ad7" fill="none"/><path d="M7 135 C174 10,192 23,337 69" stroke="#7d5cdf" fill="none"/><path fill="#90ee71" d="M62.99 77.04L62.89 76.93L62.84 76.88Q59.85 76.80 57.75 79.22L57.67 79.14L57.68 79.15Q55.56 81.55 55.24 84.78L55.32 84.87L55.22 84.76Q54.92 88.34 56.76 89.99L56.73 89.96L56.71 89.93Q58.61 91.64 62.16 91.44L62.21 91.50L62.19 91.48Q65.78 91.26 67.66 90.10L67.67 90.11L67.64 90.08Q69.60 88.23 69.60 85.59L69.57 85.56L69.57 85.55Q69.60 84.93 69.47 84.29L69.30 84.12L69.45 84.27Q69.58 81.43 67.71 79.13L67.64 79.07L67.56 78.99Q65.82 76.83 62.98 77.02ZM62.15 95.76L62.30 95.91L62.17 95.78Q54.84 95.88 52.45 94.59L52.41 94.54L52.36 94.50Q50.57 93.16 50.24 90.25L50.25 90.26L50.27 90.28Q50.31 89.22 50.37 87.99L50.29 87.91L50.27 87.89Q50.55 86.30 50.55 85.52L50.61 85.58L50.58 85.55Q51.26 80.61 51.52 79.45L51.59 79.51L51.57 79.50Q52.33 76.19 53.75 73.80L53.73 73.78L53.74 73.79Q58.37 66.47 68.44 55.68L68.26 55.50L68.32 55.56Q72.88 55.08 76.62 53.72L76.52 53.63L76.62 53.73Q64.96 66.34 59.53 73.51L59.65 73.63L59.58 73.56Q61.23 72.69 63.43 72.69L63.40 72.66L63.39 72.65Q69.01 72.65 71.59 75.95L71.67 76.03L71.73 76.08Q73.83 78.70 74.41 84.71L74.51 84.80L74.51 84.81Q74.72 86.12 74.72 87.15L74.67 87.10L74.60 87.03Q74.71 92.44 70.96 94.24L70.96 94.24L70.80 94.08Q68.81 95.18 62.22 95.83ZM66.13 99.94L66.15 99.95L66.15 99.96Q68.32 99.86 71.68 99.99L71.72 100.03L71.72 100.03Q74.40 100.07 77.05 98.84L77.16 98.95L77.10 98.90Q78.92 97.48 78.92 94.45L78.99 94.52L78.94 94.47Q78.94 93.64 78.65 91.96L78.71 92.01L78.63 91.93Q78.39 90.30 78.39 89.52L78.44 89.58L78.36 89.50Q76.95 81.56 74.23 78.33L74.10 78.20L74.18 78.28Q73.94 77.97 73.68 77.59L73.83 77.73L73.32 77.35L73.09 77.19L73.06 77.16Q72.49 76.33 71.46 74.72L71.61 74.87L71.52 74.78Q70.07 73.26 66.71 72.49L66.61 72.39L66.66 72.44Q68.70 69.70 73.74 63.44L73.70 63.40L80.92 54.48L80.81 54.36Q78.23 55.92 74.16 57.21L74.15 57.20L74.19 57.23Q75.64 55.46 78.68 52.10L78.74 52.17L78.69 52.11Q74.64 53.94 68.05 54.91L68.06 54.91L68.05 54.90Q58.40 64.96 53.37 73.35L53.37 73.36L53.31 73.29Q50.76 77.59 49.79 88.18L49.86 88.25L49.79 88.18Q49.69 89.18 49.82 90.80L49.91 90.88L49.87 90.84Q49.96 93.77 51.83 95.32L51.76 95.25L51.78 95.27Q52.48 95.59 52.42 95.66L52.32 95.56L52.44 95.68Q53.06 97.20 54.42 97.91L54.31 97.81L54.47 97.97Q56.82 99.02 60.11 99.34L60.10 99.33L60.22 99.46Q60.11 99.35 66.06 99.86ZM65.75 80.90L65.62 80.76L65.72 80.86Q66.75 80.73 68.37 81.57L68.20 81.41L68.23 81.43Q68.78 83.02 68.78 84.12L68.95 84.29L68.80 84.14Q69.14 87.32 67.53 89.00L67.50 88.97L67.58 89.05Q65.85 90.36 62.30 90.88L62.19 90.77L62.29 90.86Q59.74 90.77 58.84 90.32L58.91 90.39L58.83 90.31Q58.48 89.51 58.48 88.99L58.57 89.09L58.48 88.99Q58.17 83.52 63.14 81.32L63.13 81.31L63.10 81.28Q64.33 80.63 65.62 80.76Z"/><path d="M16 71 C152 9,180 86,329 61" stroke="#e5a894" fill="none"/><path d="M21 29 C167 118,157 38,336 3" stroke="#48d5b2" fill="none"/><path d="M16 11 C189 58,181 48,336 108" stroke="#c16ddd" fill="none"/><path d="M2 36 C186 22,191 86,325 73" stroke="#6be46b" fill="none"/><path fill="#738fe2" d="M132.17 67.36L132.16 67.36L132.09 67.29Q126.61 67.23 123.51 65.42L123.66 65.57L123.53 65.44Q127.76 63.08 136.02 55.91L136.06 55.95L136.02 55.91Q137.40 55.74 139.60 54.71L139.42 54.53L139.53 54.64Q137.17 64.62 136.98 75.41L137.07 75.49L137.11 75.53Q136.97 86.37 138.78 96.71L138.64 96.56L138.74 96.67Q135.92 95.46 132.30 95.27L132.16 95.13L132.25 95.22Q132.02 88.14 132.02 81.23L132.05 81.26L132.01 81.21Q132.04 74.28 132.11 67.30ZM131.46 71.11L131.44 95.83L131.39 95.77Q133.43 95.75 135.05 96.08L135.04 96.07L135.18 96.21Q135.31 97.37 135.63 99.70L135.51 99.57L135.59 99.66Q140.37 100.49 144.50 104.30L144.46 104.26L144.64 104.44Q140.38 92.30 140.31 79.64L140.39 79.72L140.37 79.69Q140.07 66.87 143.17 54.60L143.18 54.60L143.36 54.78Q142.37 55.41 139.65 57.28L139.67 57.30L139.61 57.24Q140.00 56.01 140.51 53.43L140.42 53.33L140.39 53.30Q138.29 54.75 135.83 55.40L135.81 55.38L135.79 55.35Q129.46 61.49 122.16 65.36L122.06 65.26L122.09 65.30Q124.44 67.13 128.45 67.71L128.39 67.66L128.48 67.74Q127.38 68.65 125.19 70.46L125.15 70.42L125.21 70.48Q127.63 71.03 131.38 71.03L131.54 71.19Z"/><path d="M4 127 C173 129,186 44,324 25" stroke="#d6b551" fill="none"/><path d="M8 92 C167 117,189 16,336 4" stroke="#da67a0" fill="none"/><path d="M10 135 C176 88,175 52,333 34" stroke="#e24a70" fill="none"/><path d="M4 122 C174 92,151 83,340 10" stroke="#e49b52" fill="none"/><path d="M3 78 C162 54,153 101,337 96" stroke="#bedf5d" fill="none"/><path d="M1 31 C160 125,188 130,329 36" stroke="#64ddbe" fill="none"/><path d="M16 46 C188 73,188 38,333 139" stroke="#74e690" fill="none"/></svg>