<svg xmlns="http://www.w3.org/2000/svg" width="342" height="140" viewBox="0,0,342,140"><path d="M14 54 C159 115,174 104,327 61" stroke="#e4e470" fill="none"/><path d="M18 124 C188 50,159 53,338 107" stroke="#a0e35d" fill="none"/><path d="M18 103 C151 64,182 50,322 109" stroke="#e372aa" fill="none"/><path d="M13 61 C188 3,157 17,340 93" stroke="#7956e0" fill="none"/><path d="M10 124 C168 68,170 132,336 122" stroke="#c25de3" fill="none"/><path d="M9 19 C181 76,184 72,338 134" stroke="#579ee4" fill="none"/><path d="M4 123 C186 2,178 44,322 44" stroke="#87ea66" fill="none"/><path d="M13 81 C167 11,176 25,329 16" stroke="#d95d9b" fill="none"/><path d="M2 12 C174 106,159 31,333 82" stroke="#6dc5e3" fill="none"/><path d="M19 41 C171 90,182 27,338 108" stroke="#6de8aa" fill="none"/><path d="M18 24 C182 43,157 118,323 17" stroke="#d88df0" fill="none"/><path d="M10 138 C160 43,178 95,325 120" stroke="#4444d8" fill="none"/><path d="M4 97 C152 6,191 89,327 15" stroke="#7792e3" fill="none"/><path d="M14 35 C153 32,190 106,340 4" stroke="#e0e07f" fill="none"/><path d="M4 118 C154 73,187 122,340 75" stroke="#5dd99b" fill="none"/><path d="M12 59 C187 73,168 25,322 123" stroke="#a790ed" fill="none"/><path d="M4 112 C176 106,169 28,327 128" stroke="#d74b6e" fill="none"/><path d="M7 113 C160 68,187 91,332 9" stroke="#e8a690" fill="none"/><path d="M3 111 C182 89,157 119,331 113" stroke="#6fe58d" fill="none"/><path d="M9 20 C174 63,168 41,321 107" stroke="#7f7fe5" fill="none"/><path d="M18 70 C172 83,163 38,337 11" stroke="#72eded" fill="none"/><path d="M2 90 C152 13,184 108,324 26" stroke="#44de44" fill="none"/><path fill="#ee85d4" d="M266.32 77.88L266.25 77.81L266.28 77.85Q262.84 77.68 260.48 80.41L260.47 80.41L260.36 80.29Q257.98 83.00 257.62 86.64L257.71 86.73L257.73 86.76Q257.22 90.61 259.30 92.46L259.28 92.45L259.32 92.49Q261.44 94.39 265.44 94.18L265.43 94.16L265.44 94.17Q269.51 93.95 271.62 92.64L271.61 92.63L271.60 92.62Q273.66 90.39 273.66 87.41L273.64 87.39L273.73 87.47Q273.66 86.68 273.51 85.95L273.48 85.92L273.55 85.99Q273.78 82.87 271.67 80.29L271.62 80.24L271.59 80.21Q269.49 77.63 266.29 77.85ZM265.56 99.17L265.51 99.11L265.57 99.18Q257.06 99.03 254.37 97.57L254.42 97.63L254.40 97.60Q252.49 96.21 252.13 92.93L252.20 93.01L252.08 92.89Q252.06 91.63 252.13 90.25L252.04 90.16L252.10 90.22Q252.27 88.27 252.27 87.40L252.32 87.46L252.31 87.44Q253.14 81.95 253.43 80.64L253.42 80.62L253.40 80.61Q254.30 76.92 255.90 74.23L255.95 74.28L256.05 74.38Q261.02 65.90 272.37 53.75L272.38 53.76L272.34 53.72Q277.54 53.24 281.75 51.71L281.78 51.74L281.79 51.75Q268.69 66.00 262.58 74.07L262.44 73.93L262.51 74.00Q264.42 73.07 266.89 73.07L266.78 72.96L266.97 73.15Q273.14 72.99 276.05 76.70L276.08 76.73L276.02 76.68Q278.67 79.91 279.33 86.67L279.28 86.63L279.35 86.69Q279.56 88.14 279.56 89.30L279.51 89.25L279.54 89.29Q279.40 95.11 275.18 97.15L275.23 97.20L275.17 97.14Q272.83 98.29 265.41 99.02ZM269.85 103.68L269.85 103.68L269.84 103.66Q272.40 103.68 276.19 103.83L276.01 103.65L276.07 103.71Q279.31 103.97 282.29 102.59L282.17 102.47L282.31 102.61Q284.28 100.94 284.28 97.52L284.36 97.60L284.35 97.59Q284.41 96.70 284.08 94.81L284.06 94.78L283.95 94.68Q283.66 92.82 283.66 91.95L283.77 92.06L283.71 92.00Q282.10 83.04 279.04 79.40L278.96 79.32L279.05 79.41Q278.73 79.02 278.44 78.58L278.52 78.67L277.94 78.23L277.77 78.13L277.87 78.23Q277.06 77.14 275.90 75.32L275.87 75.29L275.94 75.36Q274.15 73.49 270.37 72.62L270.38 72.64L270.34 72.60Q272.79 69.66 278.46 62.60L278.37 62.51L286.52 52.48L286.50 52.46Q283.45 54.06 278.86 55.52L278.99 55.64L279.04 55.69Q280.60 53.62 284.02 49.83L284.05 49.86L284.05 49.86Q279.59 52.02 272.17 53.11L272.18 53.13L272.12 53.07Q261.19 64.31 255.51 73.77L255.54 73.80L255.59 73.85Q252.67 78.64 251.58 90.57L251.51 90.50L251.48 90.47Q251.46 91.69 251.61 93.51L251.59 93.49L251.53 93.43Q251.73 96.83 253.84 98.58L253.83 98.57L253.69 98.42Q254.57 98.87 254.49 98.94L254.44 98.88L254.34 98.78Q255.22 100.68 256.75 101.48L256.61 101.35L256.64 101.38Q259.50 102.78 263.21 103.14L263.16 103.09L263.19 103.12Q263.11 103.04 269.80 103.63ZM269.34 82.14L269.36 82.16L269.52 82.32Q270.59 82.08 272.41 83.03L272.24 82.86L272.35 82.97Q272.91 84.70 272.91 85.93L272.97 85.99L273.05 86.07Q273.37 89.59 271.55 91.49L271.56 91.49L271.45 91.38Q269.51 92.86 265.51 93.44L265.50 93.43L265.44 93.37Q262.69 93.38 261.67 92.87L261.68 92.89L261.77 92.98Q261.30 91.99 261.30 91.41L261.37 91.48L261.35 91.47Q260.97 85.27 266.58 82.80L266.43 82.65L266.41 82.63Q267.90 82.02 269.36 82.16Z"/><path fill="#967de2" d="M193.37 99.38L193.47 99.48L193.45 99.45Q185.58 99.81 183.69 95.37L183.67 95.35L183.68 95.36Q185.13 93.54 188.11 90.12L188.14 90.15L188.20 90.21Q189.15 94.07 194.90 94.29L194.77 94.16L194.76 94.15Q201.34 94.40 204.47 91.85L204.47 91.86L204.35 91.74Q207.14 88.78 206.99 83.61L207.06 83.68L207.02 83.64Q206.67 73.91 197.51 74.35L197.47 74.31L197.55 74.39Q192.06 74.57 188.71 76.97L188.80 77.06L188.05 76.60L187.72 76.42L187.76 76.45Q188.48 70.48 188.26 65.24L188.30 65.28L188.24 65.23Q187.97 60.16 187.32 53.83L187.28 53.79L187.40 53.91Q194.42 55.76 201.69 55.55L201.62 55.48L201.52 55.37Q208.92 55.35 215.76 52.95L215.63 52.83L214.64 55.83L214.60 55.80Q213.96 57.20 213.60 58.80L213.65 58.84L213.73 58.92Q207.79 60.92 200.37 60.92L200.25 60.79L200.29 60.84Q197.52 60.83 194.69 60.54L194.78 60.64L194.77 60.63Q194.57 61.88 193.92 70.39L193.89 70.36L193.94 70.42Q195.57 69.57 199.49 69.28L199.47 69.25L199.33 69.11Q206.47 69.56 209.24 72.76L209.26 72.78L209.24 72.77Q211.90 75.72 212.41 83.06L212.53 83.19L212.46 83.12Q212.98 91.12 210.65 94.98L210.69 95.02L210.52 94.85Q206.84 98.67 200.52 99.10L200.40 98.98L200.49 99.08Q198.57 99.19 193.48 99.49ZM204.96 103.77L205.01 103.82L204.88 103.69Q211.55 103.96 215.19 101.85L215.17 101.83L215.19 101.85Q217.00 98.86 217.00 94.85L216.97 94.83L216.96 94.82Q216.99 88.95 215.17 81.10L215.23 81.15L215.13 81.05Q214.46 77.77 212.13 75.07L212.16 75.10L212.25 75.26L211.85 74.73L211.09 74.26L211.15 74.31Q210.57 72.94 209.34 71.63L209.33 71.62L209.25 71.62L209.27 71.63Q206.37 68.44 199.31 68.44L199.26 68.39L198.74 68.38L198.81 68.45Q198.96 67.36 199.33 65.25L199.37 65.29L199.28 65.21Q208.89 65.50 216.60 62.38L216.50 62.27L216.59 62.37Q217.43 59.72 219.25 54.33L219.30 54.38L215.20 56.10L215.28 56.19Q216.01 54.00 216.95 51.82L216.94 51.81L216.80 51.67Q209.46 54.44 201.61 54.58L201.58 54.56L201.65 54.63Q193.83 54.89 186.27 52.78L186.27 52.78L186.33 52.84Q187.46 61.10 187.46 69.54L187.49 69.57L187.64 69.71Q187.48 73.19 187.26 76.83L187.28 76.85L187.26 76.83Q187.94 77.36 189.03 77.94L188.95 77.86L188.85 77.76Q189.69 77.52 190.93 76.86L190.86 76.79L190.74 76.67Q190.69 78.15 190.25 81.06L190.33 81.14L190.24 81.04Q191.15 81.52 191.95 81.95L191.86 81.86L191.92 81.92Q197.32 78.66 200.88 78.66L200.83 78.61L200.72 78.51Q203.31 78.55 205.57 79.79L205.66 79.88L205.63 79.85Q206.31 81.84 206.38 83.66L206.39 83.67L206.36 83.63Q206.41 88.49 204.45 90.60L204.58 90.73L204.42 90.57Q201.98 93.08 197.69 93.51L197.64 93.47L197.53 93.35Q195.85 93.64 194.54 93.49L194.56 93.51L194.44 93.39Q192.92 93.25 191.46 92.60L191.49 92.62L191.41 92.18L191.21 92.42L191.11 92.32Q189.52 91.31 188.50 88.76L188.60 88.86L188.65 88.91Q186.07 91.57 182.87 95.65L182.75 95.52L182.85 95.62Q183.42 96.85 185.02 98.66L184.93 98.57L185.03 98.68Q187.10 102.19 192.48 103.14L192.38 103.04L192.46 103.13Q194.70 103.55 204.96 103.77Z"/><path d="M20 136 C176 15,173 54,325 10" stroke="#b745dd" fill="none"/><path d="M14 93 C180 32,162 69,328 20" stroke="#52da74" fill="none"/><path d="M14 98 C159 48,151 103,322 57" stroke="#69e689" fill="none"/><path d="M9 61 C152 88,166 39,327 55" stroke="#7070e4" fill="none"/><path d="M21 137 C155 102,159 52,333 108" stroke="#914ad8" fill="none"/><path d="M10 88 C169 1,158 66,329 57" stroke="#6285ed" fill="none"/><path d="M3 11 C174 94,191 23,326 116" stroke="#6cdea5" fill="none"/><path d="M6 134 C161 69,167 116,328 64" stroke="#dd724f" fill="none"/><path d="M20 75 C184 89,178 24,335 75" stroke="#4ad3d3" fill="none"/><path fill="#e3e36d" d="M145.57 94.67L145.63 94.72L145.56 94.65Q146.23 96.63 147.25 100.49L147.21 100.45L147.11 100.35Q139.04 97.81 130.24 98.32L130.23 98.31L130.36 98.44Q121.48 98.80 113.84 102.58L113.99 102.73L113.89 102.62Q114.42 101.41 114.49 101.55L114.51 101.57L114.40 101.47Q121.54 93.91 129.04 85.48L128.97 85.41L129.12 85.56Q137.39 75.86 139.65 66.92L139.81 67.08L139.83 67.11Q140.68 63.73 138.24 61.47L138.08 61.32L138.09 61.32Q135.77 59.19 132.36 59.48L132.29 59.42L132.26 59.39Q131.71 59.42 131.05 59.42L130.99 59.35L131.06 59.42Q128.20 59.47 125.80 61.22L125.70 61.12L125.67 61.09Q123.19 63.70 123.62 68.79L123.62 68.78L123.70 68.86Q120.17 68.10 117.84 67.22L117.86 67.25L117.88 67.27Q117.48 64.54 117.34 61.78L117.38 61.81L117.50 61.94Q117.26 58.72 118.42 56.53L118.35 56.46L118.46 56.57Q121.80 53.88 128.21 53.88L128.27 53.95L131.70 54.02L131.59 53.91Q135.98 54.01 137.80 54.23L137.71 54.15L137.71 54.15Q146.08 55.02 146.58 59.67L146.51 59.60L146.54 59.63Q146.66 60.69 146.51 62.22L146.57 62.27L146.49 62.20Q146.43 63.45 146.14 64.76L146.26 64.87L146.28 64.90Q143.09 80.33 128.62 93.42L128.59 93.39L128.57 93.37Q131.25 93.07 133.87 93.07L133.87 93.07L133.93 93.13Q140.03 93.05 145.48 94.57ZM144.48 54.87L144.53 54.93L144.49 54.89Q141.46 53.68 138.19 53.53L138.23 53.58L131.58 53.10L131.64 53.16Q123.11 52.64 118.89 54.75L118.94 54.79L118.93 54.78Q116.90 57.41 116.90 61.33L116.77 61.21L116.78 61.22Q116.89 62.63 117.47 68.02L117.42 67.97L117.47 68.02Q118.51 68.48 120.77 69.06L120.66 68.96L120.80 71.06L120.66 70.92Q120.64 71.84 120.78 72.86L120.83 72.90L120.78 72.86Q123.19 73.08 127.91 73.52L127.96 73.56L128.03 73.63Q127.91 72.86 127.91 72.21L127.82 72.12L127.85 72.14Q127.98 68.78 130.30 66.20L130.21 66.11L130.15 66.04Q132.51 63.49 135.92 63.71L136.04 63.83L135.99 63.77Q137.47 63.87 138.92 64.16L138.87 64.10L138.91 64.14Q139.00 64.75 139.15 65.55L139.18 65.58L139.20 65.60Q139.24 66.37 139.10 67.02L139.26 67.18L139.12 67.04Q136.82 76.24 128.38 85.47L128.41 85.50L128.35 85.44Q124.16 89.62 113.75 101.18L113.87 101.29L113.90 101.33Q113.43 102.82 112.78 103.91L112.89 104.02L112.84 103.97Q115.81 102.22 118.72 101.20L118.71 101.19L118.72 101.20Q117.41 102.37 115.59 105.20L115.51 105.12L115.68 105.29Q115.34 105.82 115.12 106.48L115.13 106.49L115.23 106.59Q124.38 102.50 134.85 102.86L135.04 103.04L134.91 102.91Q145.87 103.33 154.60 107.84L154.47 107.71L152.67 103.73L152.56 103.61Q151.46 101.21 150.95 99.68L150.87 99.60L150.89 99.62Q149.57 98.88 147.24 98.08L147.08 97.92L147.14 97.98Q146.84 96.59 146.11 93.97L146.11 93.97L146.14 93.99Q141.89 92.88 137.53 92.51L137.64 92.62L137.57 92.55Q146.50 83.81 149.41 68.03L149.48 68.10L149.75 62.47L149.76 62.48Q149.63 59.08 147.30 57.77L147.35 57.82L147.33 57.87L147.28 57.82Q147.07 57.54 146.93 57.54L146.99 57.60L146.93 57.54Q146.68 56.13 144.57 54.97Z"/><path d="M8 92 C175 124,151 20,327 49" stroke="#57ea57" fill="none"/><path d="M16 74 C156 124,180 5,341 129" stroke="#d94369" fill="none"/><path d="M18 47 C155 83,169 130,335 64" stroke="#e37cc9" fill="none"/><path d="M8 26 C164 43,172 39,328 92" stroke="#e24593" fill="none"/><path fill="#de4e4e" d="M62.26 77.82L62.19 77.76L62.34 77.90Q58.88 77.72 56.52 80.45L56.45 80.38L56.40 80.33Q53.99 83.01 53.62 86.65L53.74 86.77L53.69 86.71Q53.20 90.59 55.27 92.44L55.28 92.44L55.41 92.58Q57.47 94.43 61.48 94.21L61.42 94.15L61.46 94.19Q65.42 93.86 67.53 92.56L67.47 92.50L67.46 92.48Q69.70 90.43 69.70 87.44L69.66 87.41L69.64 87.39Q69.64 86.66 69.50 85.94L69.46 85.90L69.59 86.03Q69.65 82.74 67.54 80.16L67.68 80.30L67.55 80.17Q65.57 77.72 62.37 77.94ZM61.50 99.11L61.43 99.04L61.47 99.07Q53.20 99.17 50.51 97.72L50.42 97.62L50.34 97.55Q48.40 96.11 48.03 92.84L48.18 92.98L48.08 92.89Q47.99 91.56 48.07 90.18L48.18 90.29L48.18 90.30Q48.23 88.23 48.23 87.36L48.34 87.47L48.42 87.55Q49.27 82.07 49.56 80.76L49.40 80.61L49.54 80.74Q50.28 76.90 51.88 74.21L51.96 74.29L51.90 74.23Q57.00 65.87 68.34 53.72L68.36 53.73L68.49 53.87Q73.56 53.27 77.78 51.74L77.63 51.59L77.69 51.65Q64.61 65.92 58.50 73.99L58.56 74.05L58.55 74.04Q60.45 73.10 62.92 73.10L62.77 72.96L62.82 73.00Q69.12 72.98 72.03 76.69L72.05 76.71L72.09 76.74Q74.60 79.84 75.25 86.60L75.26 86.61L75.27 86.62Q75.37 87.95 75.37 89.12L75.51 89.26L75.46 89.21Q75.50 95.21 71.28 97.25L71.32 97.29L71.26 97.22Q68.99 98.45 61.57 99.17ZM65.76 103.58L65.82 103.65L65.86 103.68Q68.34 103.62 72.12 103.77L72.17 103.81L72.15 103.79Q75.16 103.82 78.14 102.44L78.32 102.61L78.14 102.44Q80.30 100.96 80.30 97.54L80.39 97.62L80.39 97.63Q80.28 96.58 79.96 94.69L79.97 94.70L79.94 94.67Q79.66 92.82 79.66 91.95L79.69 91.99L79.74 92.03Q78.00 82.95 74.95 79.31L74.95 79.31L74.97 79.34Q74.70 78.99 74.41 78.56L74.48 78.63L73.95 78.24L73.81 78.18L73.72 78.09Q73.06 77.14 71.90 75.32L72.01 75.43L72.01 75.43Q70.20 73.54 66.42 72.67L66.37 72.62L66.48 72.74Q68.68 69.55 74.35 62.50L74.38 62.52L82.41 52.37L82.54 52.50Q79.45 54.06 74.87 55.52L75.03 55.68L74.95 55.60Q76.68 53.70 80.10 49.91L80.07 49.88L80.04 49.85Q75.56 51.99 68.14 53.08L68.04 52.98L68.06 53.00Q57.27 64.40 51.60 73.86L51.53 73.78L51.58 73.83Q48.68 78.65 47.59 90.58L47.50 90.49L47.43 90.42Q47.42 91.65 47.57 93.47L47.47 93.37L47.47 93.37Q47.62 96.72 49.73 98.46L49.74 98.48L49.73 98.47Q50.55 98.85 50.47 98.92L50.48 98.93L50.49 98.93Q51.17 100.63 52.70 101.43L52.76 101.49L52.60 101.33Q55.43 102.71 59.14 103.07L59.07 103.01L59.12 103.05Q59.21 103.14 65.90 103.73ZM65.44 82.25L65.47 82.27L65.48 82.28Q66.46 81.95 68.28 82.90L68.26 82.88L68.37 82.99Q68.96 84.75 68.96 85.98L69.03 86.05L68.98 86.00Q69.27 89.49 67.45 91.38L67.60 91.54L67.45 91.38Q65.55 92.90 61.55 93.49L61.45 93.38L61.52 93.46Q58.70 93.40 57.68 92.89L57.64 92.85L57.66 92.87Q57.43 92.13 57.43 91.55L57.34 91.46L57.34 91.46Q56.93 85.23 62.53 82.76L62.51 82.73L62.41 82.63Q63.93 82.05 65.39 82.19Z"/><path d="M4 11 C186 36,153 33,337 7" stroke="#84d5ef" fill="none"/><path d="M17 135 C188 108,163 63,326 130" stroke="#d98c3f" fill="none"/><path d="M16 89 C169 105,168 101,335 129" stroke="#9ae980" fill="none"/><path d="M19 94 C166 85,155 100,339 133" stroke="#c1df66" fill="none"/><path d="M17 75 C153 66,185 126,340 7" stroke="#dc8e41" fill="none"/></svg>