<svg xmlns="http://www.w3.org/2000/svg" width="342" height="140" viewBox="0,0,342,140"><path d="M19 21 C165 97,163 137,333 29" stroke="#c2e754" fill="none"/><path d="M19 57 C169 60,159 137,334 111" stroke="#df7ac6" fill="none"/><path d="M2 49 C161 124,173 124,340 76" stroke="#e9e995" fill="none"/><path d="M6 130 C151 116,175 26,332 86" stroke="#db6666" fill="none"/><path d="M13 82 C173 93,168 102,323 29" stroke="#d6b551" fill="none"/><path d="M11 41 C155 68,183 46,326 117" stroke="#e66f6f" fill="none"/><path d="M10 2 C156 126,173 22,335 40" stroke="#7cda5c" fill="none"/><path d="M18 90 C151 13,178 46,335 136" stroke="#6868e3" fill="none"/><path d="M5 42 C165 45,152 44,329 49" stroke="#3abce7" fill="none"/><path d="M12 130 C188 47,179 106,336 5" stroke="#da8367" fill="none"/><path d="M15 70 C163 80,180 127,328 136" stroke="#e27f5e" fill="none"/><path d="M5 117 C163 41,165 69,335 121" stroke="#d93fd9" fill="none"/><path d="M15 109 C171 89,173 95,341 3" stroke="#9646e5" fill="none"/><path d="M13 39 C153 13,176 13,331 29" stroke="#54bbdd" fill="none"/><path d="M7 52 C169 13,157 59,340 122" stroke="#eeee71" fill="none"/><path fill="#8be96c" d="M279.43 67.31L279.26 67.14L279.25 67.14Q273.72 67.14 270.55 65.29L270.67 65.41L270.68 65.43Q274.94 62.96 283.38 55.64L283.47 55.73L283.38 55.63Q284.69 55.37 286.93 54.31L286.97 54.35L286.91 54.29Q284.54 64.52 284.34 75.53L284.48 75.66L284.50 75.69Q284.19 86.58 286.04 97.13L286.15 97.25L286.13 97.23Q283.21 95.96 279.52 95.76L279.51 95.75L279.47 95.71Q279.34 88.59 279.34 81.54L279.24 81.43L279.27 81.47Q279.27 74.35 279.34 67.23ZM278.76 71.20L278.75 96.44L278.68 96.37Q280.74 96.33 282.39 96.66L282.54 96.80L282.49 96.75Q282.61 97.93 282.94 100.30L282.97 100.34L282.88 100.25Q287.86 101.20 292.08 105.09L292.03 105.04L292.14 105.15Q287.75 92.72 287.69 79.79L287.72 79.83L287.69 79.80Q287.49 66.80 290.65 54.27L290.71 54.33L290.74 54.36Q289.90 55.17 287.13 57.08L287.01 56.96L286.97 56.92Q287.30 55.61 287.83 52.97L287.86 53.00L287.84 52.97Q285.68 54.44 283.17 55.10L283.14 55.07L283.02 54.95Q276.47 61.13 269.02 65.09L269.15 65.21L269.03 65.09Q271.66 67.19 275.75 67.79L275.65 67.69L275.64 67.68Q274.48 68.56 272.23 70.41L272.21 70.39L272.34 70.51Q274.77 71.03 278.59 71.03L278.61 71.05Z"/><path d="M3 75 C157 96,156 72,327 30" stroke="#e2b940" fill="none"/><path d="M3 32 C190 128,186 52,333 79" stroke="#e593a8" fill="none"/><path d="M21 76 C181 44,175 3,323 66" stroke="#de7653" fill="none"/><path fill="#efef7a" d="M122.07 92.42L121.93 92.28L122.07 92.42Q122.50 94.04 123.43 97.53L123.40 97.51L123.54 97.64Q116.11 95.23 108.13 95.69L108.12 95.69L108.17 95.73Q100.30 96.23 93.37 99.66L93.29 99.57L93.22 99.51Q93.72 98.42 93.78 98.55L93.81 98.58L93.85 98.63Q100.23 91.69 107.03 84.04L107.09 84.10L107.12 84.13Q114.62 75.34 116.66 67.23L116.67 67.24L116.71 67.27Q117.58 64.32 115.37 62.28L115.37 62.28L115.38 62.29Q113.14 60.21 110.04 60.48L109.97 60.41L109.96 60.39Q109.37 60.33 108.77 60.33L108.72 60.28L108.85 60.40Q106.20 60.39 104.02 61.98L103.91 61.86L103.93 61.89Q101.69 64.26 102.09 68.88L102.10 68.89L102.20 68.99Q99.00 68.29 96.89 67.50L96.97 67.58L96.85 67.47Q96.62 65.12 96.49 62.61L96.53 62.66L96.54 62.67Q96.27 59.70 97.33 57.72L97.42 57.82L97.51 57.90Q100.43 55.35 106.24 55.35L106.34 55.45L109.31 55.39L109.39 55.48Q113.38 55.57 115.03 55.77L114.91 55.66L114.87 55.61Q122.37 56.32 122.84 60.54L122.83 60.54L122.93 60.64Q122.99 61.56 122.86 62.94L122.88 62.96L122.95 63.03Q122.87 64.14 122.60 65.32L122.55 65.27L122.57 65.29Q119.73 79.33 106.61 91.20L106.63 91.23L106.66 91.25Q109.02 90.91 111.39 90.91L111.49 91.01L111.43 90.95Q116.98 90.89 121.93 92.28ZM120.92 56.19L121.00 56.27L120.97 56.24Q118.30 55.21 115.33 55.08L115.31 55.07L109.32 54.67L109.42 54.78Q101.72 54.33 97.89 56.24L97.90 56.25L97.77 56.12Q95.96 58.53 95.96 62.09L96.03 62.16L95.94 62.07Q96.00 63.32 96.53 68.20L96.63 68.30L96.54 68.20Q97.51 68.65 99.55 69.18L99.55 69.17L99.60 71.00L99.60 71.00Q99.55 71.81 99.68 72.73L99.68 72.73L99.54 72.59Q101.68 72.75 105.96 73.15L106.05 73.24L106.05 73.23Q105.94 72.54 105.94 71.94L105.92 71.92L105.98 71.98Q105.90 68.73 108.01 66.39L108.06 66.44L108.16 66.54Q110.14 64.07 113.24 64.27L113.31 64.34L113.20 64.23Q114.70 64.47 116.01 64.74L115.93 64.65L115.89 64.61Q116.21 65.39 116.34 66.12L116.27 66.04L116.24 66.01Q116.40 66.84 116.27 67.43L116.21 67.37L116.26 67.42Q114.02 75.59 106.37 83.97L106.47 84.07L106.45 84.05Q102.74 87.93 93.31 98.41L93.33 98.43L93.26 98.36Q92.87 99.75 92.28 100.74L92.33 100.79L92.27 100.73Q95.06 99.23 97.69 98.31L97.79 98.41L97.80 98.41Q96.44 99.30 94.79 101.87L94.80 101.88L94.87 101.95Q94.60 102.47 94.40 103.07L94.45 103.11L94.52 103.18Q102.84 99.50 112.33 99.83L112.47 99.97L112.46 99.95Q122.12 100.06 130.04 104.14L130.04 104.14L128.50 100.63L128.40 100.53Q127.26 98.20 126.80 96.82L126.75 96.77L126.84 96.86Q125.50 96.05 123.39 95.33L123.37 95.31L123.52 95.45Q123.17 94.12 122.51 91.74L122.60 91.83L122.54 91.77Q118.61 90.68 114.66 90.35L114.74 90.43L114.81 90.50Q122.83 82.49 125.46 68.18L125.49 68.21L125.92 63.30L125.79 63.16Q125.65 60.06 123.54 58.88L123.60 58.94L123.50 58.90L123.56 58.96Q123.47 58.80 123.33 58.80L123.39 58.86L123.29 58.76Q122.97 57.38 121.06 56.33Z"/><path d="M12 15 C151 115,162 53,322 27" stroke="#72e3e3" fill="none"/><path d="M5 47 C179 77,188 139,334 32" stroke="#e3a362" fill="none"/><path fill="#e368e3" d="M171.68 73.86L171.61 73.79L171.53 73.71Q172.91 73.70 175.35 73.43L175.37 73.45L175.32 73.40Q175.30 74.58 175.30 75.70L175.38 75.78L175.33 77.90L175.44 78.01Q173.81 77.83 172.36 77.97L172.39 77.99L172.53 78.13Q170.93 78.06 169.48 77.99L169.63 78.13L169.48 77.99Q164.64 88.77 158.70 96.75L158.67 96.72L158.57 96.61Q154.22 97.74 151.97 98.79L151.97 98.79L152.05 98.87Q159.15 88.96 164.43 78.08L164.45 78.10L159.94 78.14L159.83 78.03Q159.82 75.71 159.62 73.40L159.62 73.40L159.74 73.52Q162.96 73.71 166.53 73.71L166.66 73.85L169.79 67.29L169.81 67.30Q171.61 64.09 173.72 61.32L173.64 61.25L173.71 61.32Q171.04 61.61 168.27 61.61L168.26 61.60L168.17 61.51Q157.67 61.56 151.14 57.74L151.06 57.66L150.07 54.81L149.97 54.72Q149.36 53.25 148.70 51.73L148.74 51.78L148.81 51.85Q156.25 56.31 166.14 56.71L166.27 56.84L166.19 56.76Q175.14 57.20 184.04 53.77L184.06 53.80L184.00 53.73Q183.55 54.34 182.70 55.86L182.80 55.96L182.80 55.96Q176.44 64.11 171.50 73.67ZM185.63 58.39L185.56 58.32L187.21 54.77L187.22 54.78Q185.62 55.68 182.72 56.93L182.68 56.89L183.10 56.46L183.13 56.49Q183.21 56.11 183.41 55.91L183.42 55.92L183.49 56.00Q184.16 54.82 185.41 52.51L185.43 52.52L185.27 52.37Q176.23 56.51 166.27 56.11L166.10 55.94L166.24 56.09Q155.72 55.52 147.48 50.38L147.42 50.32L147.44 50.34Q149.30 53.65 150.75 58.27L150.69 58.20L150.73 58.25Q152.56 59.29 153.95 59.81L154.13 60.00L154.04 59.91Q154.35 60.55 155.14 63.78L155.05 63.69L155.06 63.69Q160.57 65.92 170.14 65.65L170.15 65.66L170.21 65.73Q169.58 66.61 166.15 73.14L166.10 73.09L166.15 73.14Q162.67 73.22 159.24 72.89L159.21 72.86L159.27 72.92Q159.37 74.34 159.37 75.86L159.25 75.74L159.40 78.85L162.14 78.69L162.15 81.14L162.25 81.24Q155.44 94.01 150.62 100.21L150.52 100.11L150.57 100.16Q153.32 98.82 156.16 97.96L156.15 97.96L156.20 98.01Q154.94 99.51 152.56 102.48L152.66 102.58L152.68 102.60Q158.07 100.61 162.29 100.21L162.37 100.29L162.28 100.20Q167.50 93.81 172.90 82.07L172.75 81.91L178.77 82.33L178.83 82.39Q178.67 80.78 178.67 79.19L178.54 79.07L178.72 76.15L178.68 76.10Q178.11 76.00 177.15 76.07L177.24 76.15L177.26 76.17Q176.30 76.24 175.84 76.24L175.82 76.22L175.85 76.25Q175.78 75.97 175.84 75.71L175.92 75.79L175.83 75.24L175.77 75.18Q180.30 66.45 185.64 58.41Z"/><path d="M13 90 C154 76,156 62,336 101" stroke="#dda369" fill="none"/><path d="M10 101 C152 138,159 66,323 86" stroke="#94de7c" fill="none"/><path d="M15 4 C166 124,189 64,323 43" stroke="#d75072" fill="none"/><path d="M17 129 C177 126,175 92,328 84" stroke="#e3cd8b" fill="none"/><path d="M2 115 C174 30,163 74,330 18" stroke="#dd5499" fill="none"/><path d="M14 119 C181 126,159 55,328 92" stroke="#dc6f6f" fill="none"/><path d="M4 73 C161 118,179 34,331 11" stroke="#36e28c" fill="none"/><path d="M17 134 C186 69,175 137,338 51" stroke="#bd49e3" fill="none"/><path d="M4 20 C159 27,160 5,324 118" stroke="#4ee89b" fill="none"/><path d="M20 55 C156 64,152 39,326 59" stroke="#8282ec" fill="none"/><path d="M5 55 C151 6,156 46,331 11" stroke="#f0f08e" fill="none"/><path d="M19 36 C181 139,171 90,339 73" stroke="#9c84e5" fill="none"/><path d="M6 47 C170 46,156 12,327 28" stroke="#8ce8ba" fill="none"/><path d="M1 109 C160 125,166 42,333 77" stroke="#e68564" fill="none"/><path d="M19 82 C160 101,170 20,329 78" stroke="#7f5bea" fill="none"/><path d="M13 119 C178 50,186 85,339 118" stroke="#dd934a" fill="none"/><path fill="#e278c7" d="M51.42 77.05L51.47 77.10L51.41 77.04Q48.30 76.90 46.16 79.38L46.25 79.47L46.15 79.36Q44.13 81.96 43.80 85.26L43.75 85.21L43.69 85.15Q43.41 88.83 45.29 90.51L45.16 90.38L45.22 90.44Q47.08 92.10 50.71 91.90L50.75 91.95L50.62 91.81Q54.31 91.61 56.22 90.42L56.16 90.37L56.16 90.36Q58.23 88.55 58.23 85.84L58.26 85.87L58.31 85.92Q58.28 85.23 58.15 84.57L58.14 84.57L58.08 84.50Q58.13 81.52 56.22 79.18L56.36 79.32L56.33 79.29Q54.44 76.98 51.54 77.17ZM50.84 96.45L50.83 96.45L50.72 96.33Q43.12 96.32 40.68 95.00L40.65 94.97L40.67 94.98Q39.01 93.78 38.68 90.82L38.57 90.71L38.55 90.69Q38.58 89.60 38.65 88.35L38.61 88.31L38.71 88.41Q38.88 86.67 38.88 85.88L38.86 85.86L38.77 85.77Q39.52 80.78 39.79 79.59L39.83 79.64L39.79 79.60Q40.74 76.39 42.19 73.95L42.10 73.87L42.09 73.86Q46.77 66.33 57.06 55.32L57.00 55.27L57.03 55.29Q61.65 54.77 65.47 53.39L65.41 53.33L65.51 53.43Q53.70 66.40 48.16 73.72L48.15 73.71L48.09 73.65Q49.69 72.68 51.93 72.68L52.05 72.80L52.10 72.85Q57.67 72.69 60.31 76.05L60.33 76.07L60.32 76.06Q62.76 79.02 63.35 85.16L63.37 85.17L63.29 85.09Q63.52 86.45 63.52 87.50L63.51 87.50L63.42 87.41Q63.40 92.79 59.58 94.64L59.53 94.59L59.70 94.76Q57.46 95.68 50.73 96.34ZM54.74 100.55L54.75 100.56L54.73 100.54Q56.91 100.41 60.33 100.54L60.43 100.63L60.34 100.55Q63.27 100.77 65.97 99.51L66.00 99.54L65.85 99.40Q67.91 98.16 67.91 95.06L67.82 94.97L67.84 94.99Q67.76 94.05 67.46 92.34L67.46 92.34L67.56 92.43Q67.18 90.64 67.18 89.85L67.33 89.99L67.18 89.84Q65.67 81.68 62.90 78.38L63.00 78.48L62.97 78.45Q62.89 78.30 62.63 77.91L62.67 77.95L62.00 77.41L61.93 77.41L61.95 77.42Q61.29 76.50 60.23 74.85L60.32 74.94L60.26 74.88Q58.77 73.32 55.34 72.53L55.33 72.52L55.34 72.53Q57.43 69.74 62.58 63.35L62.52 63.30L69.90 54.19L69.80 54.09Q67.15 55.66 62.99 56.97L63.00 56.98L63.02 57.00Q64.61 55.29 67.71 51.86L67.72 51.87L67.69 51.84Q63.49 53.64 56.76 54.63L56.75 54.62L56.74 54.61Q46.97 64.95 41.82 73.52L41.77 73.46L41.80 73.49Q39.01 77.70 38.02 88.51L38.07 88.56L38.18 88.67Q37.97 89.58 38.10 91.23L38.07 91.20L38.14 91.27Q38.29 94.32 40.20 95.90L40.05 95.76L40.07 95.77Q40.85 96.16 40.79 96.22L40.80 96.24L40.77 96.20Q41.39 97.75 42.77 98.47L42.78 98.48L42.72 98.42Q45.31 99.69 48.67 100.02L48.63 99.98L48.64 99.99Q48.64 99.99 54.71 100.52ZM54.29 81.04L54.34 81.10L54.39 81.15Q55.39 80.96 57.04 81.81L56.90 81.67L57.06 81.84Q57.54 83.37 57.54 84.49L57.55 84.50L57.58 84.53Q57.96 87.81 56.31 89.53L56.28 89.49L56.29 89.51Q54.41 90.73 50.79 91.26L50.75 91.22L50.70 91.16Q48.26 91.23 47.33 90.77L47.42 90.85L47.30 90.74Q47.03 90.00 47.03 89.48L47.08 89.53L47.09 89.54Q46.52 83.69 51.60 81.45L51.74 81.59L51.61 81.46Q52.93 80.86 54.24 81.00Z"/><path d="M10 37 C175 86,159 131,341 1" stroke="#e83fe8" fill="none"/><path d="M4 33 C162 29,150 72,334 1" stroke="#673ee4" fill="none"/><path d="M12 94 C168 80,156 19,324 46" stroke="#8a69ec" fill="none"/><path d="M6 54 C191 34,163 56,334 64" stroke="#74e674" fill="none"/><path fill="#7750eb" d="M221.47 77.10L221.49 77.13L221.54 77.18Q218.32 76.91 216.17 79.39L216.26 79.47L216.28 79.49Q213.96 81.79 213.63 85.08L213.65 85.11L213.65 85.11Q213.24 88.66 215.12 90.34L215.23 90.45L215.20 90.42Q217.03 92.05 220.66 91.85L220.68 91.88L220.78 91.97Q224.42 91.73 226.34 90.54L226.15 90.36L226.24 90.45Q228.15 88.46 228.15 85.76L228.23 85.84L228.12 85.73Q228.30 85.25 228.17 84.59L228.01 84.43L228.13 84.55Q228.22 81.61 226.30 79.26L226.23 79.19L226.25 79.21Q224.37 76.90 221.47 77.10ZM220.77 96.38L220.78 96.39L220.67 96.28Q213.27 96.46 210.83 95.14L210.77 95.08L210.72 95.04Q209.01 93.79 208.69 90.82L208.60 90.74L208.66 90.80Q208.54 89.56 208.61 88.31L208.66 88.36L208.66 88.36Q208.76 86.55 208.76 85.76L208.76 85.75L208.85 85.84Q209.61 80.87 209.88 79.69L209.95 79.76L209.83 79.64Q210.64 76.30 212.09 73.86L212.21 73.97L212.06 73.82Q216.78 66.35 227.07 55.33L227.10 55.36L226.97 55.23Q231.64 54.76 235.46 53.37L235.39 53.31L235.48 53.39Q223.68 66.38 218.14 73.70L218.03 73.59L218.05 73.62Q219.77 72.76 222.01 72.76L222.05 72.80L222.00 72.76Q227.74 72.75 230.38 76.12L230.47 76.21L230.41 76.15Q232.73 79.00 233.32 85.13L233.36 85.17L233.21 85.02Q233.39 86.32 233.39 87.37L233.44 87.43L233.52 87.50Q233.34 92.73 229.51 94.57L229.62 94.68L229.52 94.58Q227.59 95.81 220.86 96.47ZM224.69 100.50L224.74 100.55L224.69 100.50Q227.05 100.56 230.48 100.69L230.30 100.50L230.43 100.64Q233.16 100.66 235.86 99.41L235.95 99.49L235.84 99.38Q237.82 98.07 237.82 94.97L237.94 95.09L237.81 94.96Q237.93 94.22 237.63 92.50L237.55 92.43L237.46 92.33Q237.33 90.79 237.33 90.00L237.30 89.97L237.23 89.89Q235.70 81.71 232.93 78.41L233.06 78.54L232.92 78.39Q232.78 78.19 232.52 77.79L232.65 77.93L232.12 77.53L231.99 77.47L231.98 77.45Q231.32 76.53 230.26 74.88L230.23 74.85L230.32 74.94Q228.70 73.26 225.27 72.46L225.25 72.44L225.27 72.46Q227.29 69.60 232.44 63.21L232.57 63.34L239.73 54.02L239.82 54.10Q237.15 55.66 233.00 56.98L233.01 56.99L232.87 56.85Q234.45 55.13 237.55 51.70L237.57 51.73L237.66 51.81Q233.59 53.74 226.86 54.73L226.86 54.73L226.80 54.67Q216.84 64.83 211.70 73.40L211.79 73.48L211.68 73.37Q209.09 77.78 208.10 88.59L208.17 88.66L208.05 88.54Q207.91 89.52 208.04 91.17L208.13 91.26L208.10 91.23Q208.24 94.27 210.15 95.85L210.20 95.90L210.07 95.77Q210.84 96.15 210.77 96.21L210.80 96.24L210.82 96.25Q211.41 97.77 212.79 98.50L212.87 98.57L212.80 98.50Q215.26 99.64 218.62 99.97L218.71 100.06L218.62 99.97Q218.73 100.08 224.80 100.61ZM224.28 81.03L224.27 81.03L224.39 81.15Q225.24 80.80 226.88 81.66L227.06 81.84L226.96 81.73Q227.53 83.36 227.53 84.48L227.54 84.49L227.47 84.42Q227.84 87.69 226.19 89.41L226.31 89.52L226.15 89.37Q224.45 90.77 220.83 91.30L220.70 91.16L220.84 91.31Q218.34 91.32 217.42 90.85L217.28 90.72L217.24 90.67Q217.04 90.02 217.04 89.49L216.99 89.43L217.07 89.52Q216.69 83.86 221.76 81.62L221.78 81.63L221.70 81.55Q223.00 80.94 224.32 81.07Z"/></svg>