<svg xmlns="http://www.w3.org/2000/svg" width="342" height="140" viewBox="0,0,342,140"><path d="M14 21 C151 114,191 27,331 134" stroke="#85efd4" fill="none"/><path d="M16 50 C157 127,182 65,322 54" stroke="#8665eb" fill="none"/><path d="M8 2 C182 4,186 34,336 123" stroke="#8383eb" fill="none"/><path d="M5 116 C182 10,165 76,336 85" stroke="#d96280" fill="none"/><path d="M15 56 C186 67,186 94,337 136" stroke="#42eac0" fill="none"/><path d="M13 82 C158 15,176 54,329 137" stroke="#75dfc5" fill="none"/><path d="M2 40 C188 124,157 132,335 116" stroke="#e787b7" fill="none"/><path fill="#e67994" d="M199.22 76.88L199.31 76.97L199.20 76.86Q196.05 76.78 194.05 78.97L194.06 78.98L194.17 79.09Q192.07 81.18 191.82 84.31L191.91 84.40L191.92 84.40Q191.56 87.86 193.56 89.52L193.67 89.63L193.68 89.63Q195.68 91.30 199.19 91.17L199.01 91.00L199.09 91.08Q202.98 90.90 204.55 89.34L204.45 89.25L204.52 89.32Q206.13 86.85 205.94 83.85L206.05 83.97L206.00 83.91Q205.87 80.91 204.09 78.94L204.04 78.88L204.00 78.85Q202.20 76.86 199.19 76.86ZM199.06 61.28L199.09 61.31L199.17 61.38Q196.79 61.13 194.60 61.94L194.63 61.97L194.58 61.93Q192.48 63.27 192.86 66.33L192.95 66.43L192.97 66.45Q193.69 72.48 199.20 72.48L199.31 72.59L199.13 72.42Q201.87 72.90 203.50 71.03L203.45 70.98L203.44 70.97Q205.12 69.15 205.18 66.59L205.10 66.50L205.13 66.54Q205.23 63.63 204.04 62.63L203.97 62.56L204.03 62.62Q201.31 61.27 199.18 61.40ZM198.81 95.24L198.80 95.23L193.61 95.05L193.77 95.20Q191.27 95.20 189.08 93.76L189.01 93.69L188.93 93.61Q186.71 91.77 186.96 87.08L187.00 87.12L187.12 87.24Q187.75 75.85 193.69 74.23L193.65 74.19L193.74 74.28Q189.87 72.66 187.68 63.84L187.71 63.88L187.83 63.99Q187.17 61.58 187.29 60.26L187.38 60.36L187.23 60.21Q187.82 56.80 193.89 56.73L193.96 56.80L193.81 56.66Q200.87 56.64 203.24 56.95L203.26 56.97L203.25 56.96Q209.48 57.74 210.23 61.06L210.23 61.06L210.24 61.07Q210.49 62.14 210.49 62.77L210.50 62.77L210.54 62.81Q210.42 63.82 210.11 64.82L210.12 64.83L210.09 64.80Q209.08 71.73 204.26 74.23L204.28 74.25L204.38 74.36Q210.19 75.72 211.00 84.41L210.92 84.33L210.84 84.26Q210.98 84.64 211.04 86.77L211.06 86.79L210.99 86.71Q211.04 91.14 208.41 92.89L208.43 92.91L208.55 93.03Q206.22 94.40 198.72 95.15ZM202.40 98.89L202.54 99.03L207.91 99.02L208.03 99.14Q210.70 99.13 213.21 97.94L213.22 97.95L213.34 98.07Q215.25 96.91 215.37 93.85L215.34 93.82L215.35 93.82Q215.25 91.85 214.63 88.66L214.65 88.69L214.72 88.76Q213.22 81.13 209.78 78.06L209.75 78.04L209.42 77.39L209.25 77.10L208.85 76.51L208.88 76.53Q211.70 74.42 213.20 67.60L213.01 67.41L213.11 67.51Q213.15 66.93 213.28 65.55L213.15 65.43L213.19 65.46Q213.42 64.44 213.30 63.44L213.31 63.45L213.14 63.28Q212.96 60.98 211.02 60.16L210.96 60.10L211.08 60.16L210.72 59.93L210.73 59.94Q210.44 58.89 208.50 57.58L208.36 57.44L208.53 57.55L208.51 57.53Q205.32 56.46 198.63 56.15L198.48 56.00L198.54 56.07Q195.99 55.89 193.74 56.08L193.68 56.02L193.64 55.98Q192.40 56.11 190.27 56.36L190.23 56.33L190.26 56.35Q187.00 56.91 186.62 59.60L186.76 59.73L186.77 59.74Q186.60 60.45 186.66 61.76L186.72 61.82L186.74 61.84Q186.94 62.73 187.88 66.60L187.74 66.47L187.79 66.51Q189.07 71.80 191.94 73.99L192.06 74.10L192.10 74.14L192.13 74.17Q187.67 76.41 186.80 84.91L186.65 84.76L186.66 84.78Q186.40 88.45 186.40 89.95L186.43 89.98L186.31 89.86Q186.56 92.93 188.50 94.43L188.37 94.30L188.51 94.44Q188.61 94.48 189.05 94.80L189.12 94.87L189.15 94.89Q190.73 98.54 202.43 98.92ZM201.90 80.76L201.95 80.81L201.86 80.71Q203.32 80.55 204.76 81.30L204.81 81.34L204.77 81.31Q205.54 83.08 205.48 83.95L205.49 83.96L205.35 83.83Q205.48 84.39 205.48 84.89L205.47 84.89L205.40 84.81Q205.41 88.70 201.66 90.08L201.64 90.06L201.65 90.08Q200.32 90.55 199.00 90.36L199.11 90.47L199.06 90.43Q197.33 90.69 195.45 89.94L195.34 89.83L195.43 89.92Q194.96 88.83 195.09 87.20L195.08 87.19L195.10 87.21Q195.27 84.51 197.24 82.51L197.22 82.48L197.33 82.59Q199.23 80.52 201.86 80.71ZM202.32 65.22L202.28 65.18L202.38 65.28Q203.50 64.90 204.37 65.15L204.56 65.34L204.43 66.52L204.39 66.49Q204.51 68.92 203.01 70.57L202.89 70.45L202.88 70.44Q201.51 72.23 199.26 71.92L199.12 71.79L199.25 71.91Q197.66 71.95 196.98 71.58L196.89 71.49L196.85 71.45Q196.80 71.02 196.61 69.89L196.58 69.87L196.67 69.96Q196.12 67.53 198.12 66.16L198.12 66.15L198.23 66.26Q200.06 65.22 202.38 65.28Z"/><path d="M14 98 C162 66,176 54,331 117" stroke="#e76236" fill="none"/><path d="M3 26 C159 75,160 29,329 42" stroke="#e6a38d" fill="none"/><path d="M20 104 C179 18,159 131,339 32" stroke="#6fe6c8" fill="none"/><path d="M14 63 C164 39,182 128,329 122" stroke="#e66585" fill="none"/><path d="M19 86 C151 12,151 116,328 79" stroke="#e94de9" fill="none"/><path d="M14 122 C182 55,152 23,332 90" stroke="#e69c83" fill="none"/><path d="M14 73 C181 67,170 118,326 80" stroke="#e4673e" fill="none"/><path fill="#9679eb" d="M267.16 76.82L267.01 76.67L267.13 76.79Q264.00 76.48 261.97 78.83L262.14 78.99L262.09 78.94Q259.95 81.19 259.64 84.31L259.71 84.39L259.72 84.39Q259.36 87.79 261.14 89.38L261.12 89.36L261.19 89.43Q262.90 90.95 266.34 90.77L266.42 90.85L266.35 90.77Q269.81 90.55 271.63 89.42L271.56 89.35L271.62 89.42Q273.40 87.50 273.40 84.94L273.50 85.04L273.50 85.04Q273.43 84.34 273.30 83.72L273.35 83.76L273.29 83.70Q273.41 80.95 271.60 78.73L271.75 78.88L271.64 78.77Q269.80 76.52 267.05 76.71ZM266.32 94.93L266.33 94.95L266.45 95.06Q259.21 95.02 256.90 93.77L256.85 93.72L256.88 93.75Q255.26 92.57 254.95 89.76L254.81 89.62L254.85 89.66Q254.85 88.59 254.91 87.40L254.85 87.34L254.92 87.41Q255.07 85.75 255.07 85.00L255.10 85.03L255.17 85.10Q255.83 80.32 256.08 79.19L256.03 79.14L256.15 79.26Q256.78 75.95 258.16 73.64L258.15 73.63L258.23 73.71Q262.50 66.41 272.25 55.96L272.40 56.11L272.44 56.15Q276.69 55.52 280.32 54.21L280.38 54.27L280.36 54.25Q269.13 66.54 263.88 73.48L263.82 73.43L263.80 73.40Q265.53 72.70 267.66 72.70L267.55 72.59L267.60 72.64Q273.09 72.68 275.59 75.87L275.46 75.75L275.53 75.82Q277.76 78.54 278.32 84.36L278.26 84.30L278.32 84.35Q278.32 85.42 278.32 86.42L278.48 86.58L278.40 86.50Q278.37 91.60 274.74 93.35L274.76 93.36L274.81 93.41Q272.83 94.44 266.45 95.07ZM270.14 98.94L270.08 98.88L270.22 99.02Q272.19 98.81 275.45 98.93L275.50 98.99L275.61 99.10Q278.29 99.22 280.86 98.03L280.78 97.94L280.81 97.98Q282.51 96.55 282.51 93.61L282.64 93.75L282.66 93.76Q282.57 92.86 282.29 91.23L282.34 91.29L282.27 91.21Q282.14 89.74 282.14 88.99L281.99 88.84L282.10 88.95Q280.62 81.15 277.99 78.02L277.92 77.95L277.87 77.91Q277.76 77.73 277.51 77.36L277.50 77.35L277.09 77.06L277.03 77.06L276.90 76.93Q276.37 76.15 275.37 74.59L275.47 74.69L275.43 74.65Q273.84 72.99 270.58 72.24L270.72 72.37L270.67 72.32Q272.66 69.69 277.54 63.62L277.59 63.67L284.47 54.92L284.41 54.86Q281.83 56.29 277.89 57.54L278.03 57.68L277.91 57.55Q279.55 56.06 282.49 52.81L282.42 52.74L282.43 52.76Q278.47 54.48 272.09 55.42L272.11 55.45L272.18 55.51Q262.63 65.04 257.75 73.17L257.79 73.21L257.78 73.20Q255.36 77.41 254.42 87.66L254.44 87.68L254.35 87.59Q254.24 88.55 254.37 90.11L254.33 90.07L254.34 90.09Q254.45 92.95 256.26 94.45L256.28 94.46L256.32 94.50Q257.00 94.81 256.94 94.87L256.92 94.86L256.87 94.81Q257.57 96.38 258.88 97.06L258.85 97.03L258.82 97.00Q261.27 98.21 264.46 98.52L264.32 98.38L264.38 98.43Q264.41 98.47 270.17 98.97ZM269.70 80.43L269.87 80.60L269.72 80.45Q270.66 80.26 272.22 81.08L272.31 81.17L272.38 81.23Q272.78 82.63 272.78 83.69L272.84 83.76L272.91 83.82Q273.08 86.74 271.51 88.37L271.50 88.35L271.59 88.44Q269.88 89.68 266.44 90.18L266.38 90.12L266.42 90.16Q264.07 90.18 263.19 89.74L263.05 89.60L263.23 89.78Q262.78 88.90 262.78 88.40L262.87 88.48L262.89 88.51Q262.54 83.15 267.36 81.02L267.33 81.00L267.36 81.02Q268.52 80.37 269.77 80.50Z"/><path d="M4 38 C179 54,156 86,334 28" stroke="#5d5de8" fill="none"/><path d="M19 91 C186 53,153 112,325 63" stroke="#9b58de" fill="none"/><path d="M7 18 C164 8,190 80,338 31" stroke="#ea7ace" fill="none"/><path d="M9 63 C153 131,192 26,338 64" stroke="#ea6183" fill="none"/><path d="M14 50 C187 42,152 120,325 37" stroke="#de4ede" fill="none"/><path d="M15 133 C178 65,166 50,333 42" stroke="#d9934e" fill="none"/><path d="M14 10 C166 118,184 47,322 60" stroke="#c16edd" fill="none"/><path d="M5 130 C166 87,182 61,337 57" stroke="#d79350" fill="none"/><path d="M18 112 C177 30,162 117,334 113" stroke="#86d0e8" fill="none"/><path d="M19 121 C177 73,155 34,325 54" stroke="#9175e5" fill="none"/><path fill="#9173ec" d="M63.04 76.70L63.01 76.68L62.99 76.66Q60.06 76.54 58.03 78.88L58.03 78.89L57.96 78.82Q55.95 81.18 55.63 84.31L55.64 84.31L55.64 84.32Q55.39 87.82 57.18 89.41L57.12 89.36L57.05 89.29Q58.98 91.03 62.42 90.84L62.40 90.82L62.24 90.67Q65.86 90.60 67.68 89.47L67.57 89.37L67.64 89.43Q69.42 87.53 69.42 84.96L69.43 84.97L69.40 84.94Q69.48 84.39 69.35 83.77L69.34 83.75L69.33 83.74Q69.48 81.02 67.66 78.80L67.64 78.77L67.68 78.81Q65.91 76.63 63.15 76.82ZM62.44 95.05L62.49 95.11L62.40 95.01Q55.15 94.96 52.84 93.71L52.98 93.85L52.84 93.71Q51.29 92.59 50.97 89.78L50.92 89.73L50.85 89.65Q50.86 88.60 50.92 87.41L50.95 87.44L50.97 87.46Q51.17 85.85 51.17 85.10L51.14 85.07L51.05 84.98Q51.82 80.31 52.07 79.18L52.02 79.13L52.01 79.12Q52.87 76.04 54.24 73.72L54.22 73.70L54.19 73.67Q58.67 66.58 68.43 56.14L68.39 56.10L68.40 56.11Q72.63 55.46 76.25 54.14L76.34 54.23L76.30 54.19Q65.01 66.42 59.76 73.36L59.75 73.35L59.87 73.47Q61.49 72.66 63.62 72.66L63.55 72.58L63.59 72.62Q69.04 72.63 71.54 75.82L71.51 75.79L71.47 75.75Q73.76 78.55 74.32 84.36L74.31 84.34L74.37 84.40Q74.40 85.50 74.40 86.50L74.37 86.47L74.36 86.46Q74.47 91.70 70.85 93.45L70.74 93.35L70.88 93.49Q68.72 94.33 62.34 94.96ZM66.09 98.90L66.12 98.92L66.10 98.90Q68.36 98.97 71.61 99.10L71.55 99.03L71.49 98.98Q74.15 99.08 76.72 97.89L76.79 97.96L76.87 98.04Q78.66 96.70 78.66 93.76L78.55 93.66L78.68 93.79Q78.65 92.94 78.37 91.32L78.40 91.34L78.22 91.17Q78.06 89.66 78.06 88.91L77.95 88.80L77.97 88.82Q76.70 81.23 74.07 78.10L73.95 77.98L73.97 78.00Q73.78 77.75 73.53 77.37L73.55 77.40L73.17 77.14L73.03 77.07L73.06 77.09Q72.37 76.15 71.37 74.59L71.33 74.55L71.43 74.65Q69.94 73.10 66.69 72.35L66.66 72.32L66.73 72.38Q68.58 69.61 73.45 63.54L73.47 63.56L80.47 54.92L80.54 54.99Q77.91 56.37 73.97 57.62L74.03 57.67L74.05 57.70Q75.41 55.93 78.35 52.68L78.37 52.69L78.32 52.65Q74.44 54.45 68.06 55.39L68.05 55.38L68.11 55.44Q58.71 65.12 53.83 73.25L53.85 73.27L53.79 73.21Q51.41 77.46 50.47 87.71L50.49 87.73L50.39 87.64Q50.34 88.64 50.46 90.21L50.47 90.21L50.40 90.15Q50.52 93.02 52.34 94.52L52.30 94.48L52.35 94.54Q53.04 94.84 52.97 94.91L52.98 94.91L52.84 94.77Q53.55 96.36 54.86 97.05L54.91 97.09L54.90 97.09Q57.25 98.18 60.44 98.50L60.41 98.47L60.33 98.38Q60.36 98.41 66.11 98.91ZM65.73 80.45L65.68 80.41L65.76 80.48Q66.64 80.24 68.20 81.05L68.19 81.04L68.23 81.08Q68.94 82.79 68.94 83.85L68.88 83.80L68.89 83.81Q69.09 86.76 67.53 88.39L67.58 88.44L67.56 88.42Q65.89 89.69 62.45 90.19L62.44 90.18L62.33 90.06Q60.05 90.16 59.17 89.72L59.21 89.76L59.12 89.67Q58.94 89.05 58.94 88.55L58.78 88.40L58.90 88.51Q58.36 82.97 63.18 80.85L63.21 80.88L63.27 80.94Q64.58 80.43 65.83 80.56Z"/><path d="M7 86 C153 34,155 49,322 38" stroke="#51ea9e" fill="none"/><path fill="#6868e3" d="M144.29 91.27L144.25 91.23L144.17 91.15Q144.64 92.74 145.51 96.06L145.61 96.15L145.52 96.06Q138.74 94.04 131.17 94.47L131.09 94.39L131.02 94.32Q123.66 94.91 117.10 98.16L116.96 98.02L117.09 98.16Q117.33 96.89 117.39 97.02L117.54 97.16L117.43 97.05Q123.68 90.67 130.12 83.41L130.09 83.38L130.07 83.37Q137.20 75.05 139.14 67.36L139.12 67.34L139.13 67.35Q139.87 64.46 137.78 62.52L137.90 62.64L137.94 62.68Q135.79 60.69 132.85 60.94L132.88 60.97L132.76 60.84Q132.35 60.94 131.79 60.94L131.77 60.92L131.71 60.86Q129.14 60.79 127.08 62.30L127.24 62.46L127.05 62.27Q124.99 64.59 125.37 68.97L125.31 68.92L125.49 69.09Q122.51 68.48 120.50 67.73L120.51 67.74L120.51 67.74Q120.08 65.30 119.95 62.93L120.08 63.06L120.07 63.04Q119.99 60.40 120.99 58.53L120.82 58.35L120.97 58.51Q123.79 56.13 129.29 56.13L129.40 56.23L132.23 56.19L132.27 56.23Q136.06 56.34 137.63 56.52L137.63 56.53L137.51 56.41Q144.70 57.16 145.14 61.16L145.09 61.11L145.08 61.10Q145.28 62.11 145.15 63.42L145.08 63.35L145.04 63.31Q145.13 64.52 144.88 65.65L144.73 65.50L144.72 65.49Q142.02 78.80 129.58 90.06L129.59 90.08L129.74 90.23Q132.01 89.94 134.26 89.94L134.14 89.81L134.26 89.93Q139.52 89.88 144.21 91.19ZM143.29 56.99L143.22 56.93L143.31 57.01Q140.67 55.94 137.86 55.82L137.76 55.72L132.12 55.39L132.30 55.57Q124.86 55.02 121.24 56.83L121.37 56.96L121.29 56.89Q119.47 59.07 119.47 62.44L119.60 62.58L119.52 62.50Q119.52 63.62 120.02 68.25L120.14 68.37L120.14 68.37Q121.04 68.77 122.98 69.27L122.98 69.27L122.86 70.84L122.84 70.82Q122.78 71.57 122.91 72.45L123.03 72.57L122.87 72.41Q125.06 72.73 129.13 73.10L129.08 73.05L129.17 73.15Q129.11 72.52 129.11 71.96L129.08 71.93L129.09 71.94Q128.94 68.79 130.95 66.57L131.07 66.69L130.95 66.57Q133.00 64.40 135.94 64.59L135.93 64.59L135.96 64.61Q137.31 64.77 138.56 65.02L138.56 65.02L138.42 64.88Q138.67 65.57 138.80 66.26L138.85 66.31L138.82 66.28Q138.90 66.99 138.77 67.55L138.75 67.53L138.68 67.45Q136.70 75.36 129.44 83.30L129.49 83.35L129.49 83.34Q125.91 86.96 116.97 96.91L116.91 96.85L116.89 96.82Q116.61 98.24 116.05 99.17L116.12 99.24L116.16 99.28Q118.67 97.73 121.17 96.85L121.28 96.96L121.31 96.99Q119.99 97.80 118.42 100.24L118.42 100.24L118.36 100.17Q118.32 100.89 118.14 101.45L118.08 101.40L118.09 101.41Q126.09 98.02 135.09 98.33L135.11 98.35L135.14 98.38Q144.43 98.60 151.93 102.47L151.86 102.40L150.30 98.96L150.36 99.02Q149.31 96.85 148.88 95.54L148.78 95.45L148.73 95.39Q147.66 94.82 145.66 94.14L145.52 94.00L145.63 94.11Q145.31 92.86 144.69 90.60L144.69 90.61L144.67 90.59Q141.09 89.69 137.34 89.38L137.41 89.45L137.33 89.37Q145.03 81.88 147.54 68.31L147.46 68.23L147.77 63.47L147.90 63.60Q147.65 60.55 145.65 59.42L145.79 59.56L145.67 59.50L145.58 59.41Q145.51 59.28 145.39 59.28L145.57 59.46L145.43 59.32Q145.19 58.08 143.38 57.08Z"/><path d="M18 125 C153 20,178 18,321 91" stroke="#e2e240" fill="none"/><path d="M13 72 C191 136,182 111,337 120" stroke="#cde38c" fill="none"/><path d="M16 104 C192 25,169 28,339 29" stroke="#4242d5" fill="none"/><path d="M16 94 C170 133,153 107,332 125" stroke="#e2c56e" fill="none"/><path d="M5 71 C169 129,162 19,327 129" stroke="#72dea8" fill="none"/><path d="M9 121 C184 125,175 14,338 24" stroke="#77e8cc" fill="none"/><path d="M9 124 C181 68,180 78,321 10" stroke="#e8c868" fill="none"/><path d="M7 114 C188 113,190 97,327 88" stroke="#6889ed" fill="none"/><path d="M20 102 C178 104,173 118,327 69" stroke="#e3869d" fill="none"/><path d="M4 20 C158 15,160 53,325 10" stroke="#80cbe4" fill="none"/><path d="M12 117 C157 70,183 8,326 88" stroke="#efef85" fill="none"/><path d="M8 41 C182 44,153 54,327 27" stroke="#e73a3a" fill="none"/><path d="M1 5 C173 109,190 78,326 66" stroke="#b5e584" fill="none"/><path d="M1 83 C187 104,190 123,326 47" stroke="#4d96df" fill="none"/><path d="M6 44 C186 59,185 34,330 54" stroke="#dbdb6b" fill="none"/></svg>