<svg xmlns="http://www.w3.org/2000/svg" width="342" height="140" viewBox="0,0,342,140"><path d="M4 68 C189 27,170 3,341 36" stroke="#e2c469" fill="none"/><path d="M10 14 C165 10,176 40,323 86" stroke="#92eb92" fill="none"/><path d="M11 39 C153 51,157 16,325 30" stroke="#45bee6" fill="none"/><path d="M15 132 C180 84,173 126,326 28" stroke="#3ddbb3" fill="none"/><path d="M10 98 C165 84,173 118,334 9" stroke="#e74f4f" fill="none"/><path d="M17 76 C152 95,167 119,341 125" stroke="#6daded" fill="none"/><path d="M8 4 C180 72,157 134,324 112" stroke="#df9076" fill="none"/><path fill="#e8ca72" d="M51.32 77.46L51.27 77.41L51.23 77.37Q47.95 77.17 45.71 79.75L45.71 79.75L45.67 79.70Q43.48 82.32 43.14 85.76L43.26 85.88L43.19 85.80Q42.75 89.49 44.71 91.24L44.67 91.20L44.75 91.28Q46.73 93.06 50.51 92.85L50.36 92.70L50.41 92.75Q54.16 92.45 56.15 91.21L56.21 91.28L56.24 91.31Q58.36 89.37 58.36 86.56L58.22 86.42L58.28 86.48Q58.33 85.84 58.19 85.15L58.18 85.14L58.10 85.06Q58.28 82.08 56.29 79.64L56.26 79.62L56.36 79.71Q54.25 77.17 51.23 77.37ZM50.62 97.56L50.55 97.49L50.56 97.50Q42.67 97.51 40.13 96.14L40.12 96.12L40.12 96.12Q38.21 94.70 37.87 91.61L37.85 91.59L37.90 91.64Q37.72 90.30 37.79 88.99L37.85 89.05L37.92 89.12Q38.15 87.36 38.15 86.53L38.07 86.46L38.02 86.40Q38.91 81.32 39.18 80.08L39.19 80.09L39.24 80.14Q39.99 76.56 41.50 74.02L41.47 74.00L41.53 74.06Q46.34 66.16 57.05 54.70L56.95 54.59L57.07 54.71Q61.86 54.15 65.84 52.70L65.77 52.63L65.73 52.60Q53.51 66.19 47.74 73.81L47.73 73.80L47.73 73.80Q49.40 72.79 51.73 72.79L51.86 72.92L51.75 72.81Q57.75 72.83 60.50 76.34L60.59 76.43L60.63 76.47Q63.04 79.43 63.66 85.81L63.62 85.77L63.48 85.64Q63.63 86.95 63.63 88.05L63.68 88.10L63.70 88.12Q63.64 93.69 59.65 95.61L59.68 95.64L59.74 95.69Q57.53 96.79 50.53 97.47ZM54.70 101.84L54.72 101.86L54.60 101.75Q57.00 101.75 60.57 101.88L60.60 101.91L60.58 101.89Q63.58 102.08 66.40 100.78L66.38 100.76L66.36 100.74Q68.28 99.23 68.28 96.00L68.29 96.01L68.21 95.92Q68.39 95.22 68.09 93.43L68.07 93.42L67.96 93.31Q67.71 91.59 67.71 90.76L67.77 90.82L67.72 90.77Q66.04 82.15 63.15 78.72L63.13 78.69L63.19 78.75Q63.10 78.60 62.83 78.18L62.86 78.22L62.26 77.76L62.03 77.59L62.13 77.70Q61.54 76.83 60.44 75.11L60.43 75.10L60.39 75.06Q58.67 73.28 55.10 72.45L55.17 72.52L55.26 72.61Q57.41 69.68 62.76 63.02L62.79 63.05L70.44 53.53L70.44 53.53Q67.56 55.04 63.23 56.42L63.21 56.39L63.22 56.40Q64.84 54.59 68.07 51.02L68.13 51.08L68.18 51.13Q63.76 52.96 56.76 53.99L56.84 54.07L56.79 54.02Q46.41 64.58 41.05 73.51L41.13 73.58L41.15 73.60Q38.38 78.11 37.35 89.37L37.26 89.29L37.40 89.42Q37.14 90.33 37.28 92.05L37.42 92.19L37.33 92.10Q37.52 95.31 39.51 96.96L39.53 96.98L39.47 96.91Q40.15 97.19 40.08 97.25L40.12 97.30L40.10 97.27Q40.79 98.93 42.23 99.68L42.17 99.61L42.29 99.74Q44.72 100.80 48.23 101.14L48.29 101.21L48.30 101.21Q48.35 101.26 54.66 101.81ZM54.22 81.53L54.30 81.61L54.25 81.56Q55.18 81.25 56.89 82.14L57.04 82.29L56.88 82.12Q57.65 83.99 57.65 85.16L57.63 85.14L57.52 85.03Q57.88 88.42 56.17 90.20L56.20 90.24L56.25 90.29Q54.22 91.49 50.45 92.03L50.44 92.03L50.45 92.04Q47.89 92.09 46.93 91.61L47.02 91.70L46.86 91.54Q46.52 90.72 46.52 90.17L46.55 90.20L46.62 90.27Q46.29 84.44 51.58 82.11L51.41 81.94L51.49 82.02Q52.88 81.42 54.25 81.56Z"/><path d="M15 115 C176 10,168 118,337 9" stroke="#69c0dd" fill="none"/><path d="M21 32 C175 121,163 115,331 42" stroke="#e2cb87" fill="none"/><path d="M12 17 C167 107,159 57,324 102" stroke="#ec8cd4" fill="none"/><path d="M12 108 C186 32,186 91,339 112" stroke="#7d99ec" fill="none"/><path d="M7 67 C150 11,164 80,334 118" stroke="#3fe33f" fill="none"/><path d="M15 75 C166 31,169 61,324 80" stroke="#8ed449" fill="none"/><path d="M8 92 C191 114,160 89,336 1" stroke="#e797ab" fill="none"/><path d="M9 34 C171 70,162 12,337 32" stroke="#84e065" fill="none"/><path d="M20 106 C158 59,188 2,339 95" stroke="#d85eb9" fill="none"/><path d="M19 127 C174 26,151 18,331 108" stroke="#80e4b2" fill="none"/><path d="M11 110 C152 137,167 104,323 100" stroke="#7fcce5" fill="none"/><path d="M10 18 C168 71,182 128,335 14" stroke="#7cb5ed" fill="none"/><path fill="#eded62" d="M122.44 93.35L122.32 93.24L122.42 93.34Q122.98 95.13 123.94 98.77L123.92 98.75L123.85 98.68Q116.27 96.31 107.96 96.80L107.89 96.72L107.89 96.73Q99.71 97.26 92.50 100.83L92.47 100.81L92.51 100.85Q92.88 99.56 92.95 99.70L92.90 99.66L93.02 99.77Q99.70 92.59 106.77 84.62L106.77 84.62L106.79 84.64Q114.77 75.66 116.90 67.22L116.96 67.28L116.79 67.10Q117.60 63.94 115.30 61.81L115.49 62.00L115.41 61.92Q113.02 59.69 109.79 59.97L109.82 60.00L109.96 60.13Q109.21 59.94 108.60 59.94L108.73 60.07L108.63 59.98Q105.88 59.98 103.62 61.62L103.61 61.61L103.54 61.54Q101.19 64.00 101.60 68.81L101.61 68.81L101.62 68.82Q98.44 68.25 96.24 67.43L96.18 67.37L96.29 67.48Q95.93 64.92 95.79 62.31L95.88 62.40L95.73 62.25Q95.65 59.35 96.75 57.29L96.76 57.30L96.83 57.38Q99.97 54.82 106.01 54.82L106.08 54.88L109.16 54.81L109.18 54.83Q113.21 54.80 114.92 55.01L114.96 55.04L115.00 55.08Q122.86 55.87 123.34 60.26L123.23 60.16L123.25 60.18Q123.36 61.18 123.23 62.63L123.36 62.76L123.33 62.73Q123.16 63.79 122.88 65.03L122.97 65.12L122.91 65.06Q120.07 79.79 106.41 92.15L106.39 92.13L106.40 92.14Q108.94 91.87 111.41 91.87L111.28 91.74L111.37 91.83Q117.23 91.85 122.38 93.29ZM121.41 55.79L121.42 55.81L121.32 55.71Q118.48 54.59 115.39 54.45L115.37 54.43L109.15 54.05L109.11 54.00Q101.17 53.62 97.19 55.61L97.20 55.62L97.14 55.56Q95.27 58.08 95.27 61.79L95.27 61.78L95.16 61.68Q95.31 63.07 95.86 68.15L95.85 68.13L95.83 68.11Q96.91 68.65 99.04 69.20L98.97 69.13L98.97 70.98L98.94 70.95Q98.93 71.84 99.07 72.80L98.94 72.66L98.99 72.72Q101.22 72.89 105.69 73.30L105.76 73.38L105.76 73.38Q105.70 72.70 105.70 72.08L105.62 72.00L105.71 72.10Q105.59 68.68 107.79 66.24L107.91 66.36L107.97 66.42Q110.03 63.85 113.26 64.06L113.37 64.17L113.27 64.06Q114.74 64.23 116.11 64.50L115.97 64.36L116.13 64.52Q116.18 65.05 116.32 65.81L116.41 65.90L116.39 65.88Q116.48 66.66 116.34 67.28L116.25 67.19L116.29 67.22Q114.05 75.83 106.09 84.55L106.16 84.62L106.05 84.52Q102.28 88.64 92.46 99.56L92.35 99.44L92.51 99.60Q92.07 101.02 91.45 102.05L91.55 102.15L91.43 102.03Q94.28 100.42 97.03 99.45L97.02 99.45L97.17 99.60Q95.87 100.63 94.15 103.31L94.14 103.29L93.99 103.15Q93.90 103.88 93.69 104.50L93.76 104.56L93.70 104.50Q102.36 100.67 112.25 101.01L112.31 101.07L112.26 101.02Q122.59 101.40 130.83 105.66L130.75 105.57L129.09 101.86L128.97 101.73Q127.83 99.36 127.35 97.92L127.43 98.00L127.29 97.86Q126.12 97.24 123.92 96.48L123.90 96.46L123.78 96.34Q123.54 95.07 122.85 92.60L122.91 92.66L122.90 92.65Q118.89 91.59 114.77 91.25L114.87 91.34L114.78 91.25Q123.25 83.04 125.99 68.14L125.96 68.10L126.39 62.98L126.44 63.03Q126.26 59.75 124.06 58.51L123.99 58.44L123.98 58.50L123.99 58.51Q123.90 58.36 123.77 58.36L123.67 58.26L123.80 58.39Q123.33 56.82 121.34 55.72Z"/><path d="M11 131 C164 8,161 44,339 104" stroke="#de67de" fill="none"/><path fill="#67c8e9" d="M228.25 73.85L228.39 73.99L228.32 73.92Q229.67 73.83 232.21 73.56L232.35 73.69L232.21 73.56Q232.27 74.85 232.27 76.02L232.30 76.05L232.15 78.16L232.23 78.24Q230.80 78.32 229.29 78.46L229.17 78.34L229.26 78.43Q227.71 78.46 226.20 78.39L226.09 78.28L226.26 78.45Q221.11 89.57 214.93 97.88L214.89 97.84L214.77 97.72Q210.28 98.93 207.95 100.03L207.89 99.98L207.91 99.99Q215.37 89.74 220.86 78.41L220.89 78.43L216.17 78.45L216.16 78.44Q216.10 75.98 215.90 73.58L215.86 73.54L216.00 73.68Q219.47 73.99 223.18 73.99L223.12 73.94L226.44 67.17L226.50 67.23Q228.27 63.78 230.47 60.89L230.42 60.84L230.50 60.92Q227.70 61.21 224.81 61.21L224.77 61.17L224.84 61.24Q213.79 61.17 206.99 57.19L207.07 57.27L205.77 54.05L205.92 54.20Q205.32 52.70 204.63 51.12L204.50 50.99L204.62 51.11Q212.48 55.89 222.78 56.30L222.62 56.13L222.59 56.11Q232.03 56.68 241.30 53.11L241.19 53.01L241.27 53.09Q240.91 53.83 240.02 55.41L240.03 55.42L239.89 55.28Q233.37 63.86 228.22 73.82ZM242.85 57.82L242.84 57.82L244.67 54.23L244.74 54.30Q242.87 55.03 239.85 56.34L239.96 56.44L240.35 55.95L240.18 55.77Q240.42 55.53 240.63 55.33L240.68 55.38L240.61 55.31Q241.41 54.19 242.72 51.79L242.76 51.83L242.67 51.74Q233.09 55.90 222.72 55.48L222.78 55.54L222.63 55.39Q211.93 55.06 203.35 49.71L203.18 49.53L203.20 49.55Q205.09 52.95 206.60 57.76L206.65 57.81L206.59 57.75Q208.51 58.85 209.96 59.40L210.10 59.55L209.98 59.43Q210.41 60.20 211.23 63.56L211.25 63.58L211.13 63.46Q216.93 65.83 226.89 65.55L226.85 65.51L226.72 65.38Q226.27 66.51 222.70 73.31L222.75 73.36L222.69 73.30Q218.94 73.26 215.37 72.92L215.35 72.90L215.33 72.88Q215.45 74.37 215.45 75.95L215.48 75.98L215.55 79.14L218.58 79.15L218.51 81.62L218.57 81.68Q211.54 95.04 206.52 101.49L206.39 101.36L206.41 101.38Q209.29 100.00 212.24 99.10L212.31 99.18L212.40 99.27Q211.05 100.80 208.58 103.89L208.64 103.95L208.59 103.90Q214.33 101.95 218.73 101.54L218.65 101.47L218.63 101.44Q224.05 94.78 229.68 82.56L229.72 82.59L235.77 82.81L235.71 82.75Q235.62 81.15 235.62 79.50L235.63 79.51L235.63 76.29L235.62 76.27Q235.19 76.33 234.19 76.39L234.27 76.47L234.19 76.39Q233.21 76.48 232.73 76.48L232.77 76.52L232.69 76.44Q232.78 76.32 232.85 76.04L232.69 75.89L232.85 75.57L232.80 75.52Q237.40 66.32 242.96 57.94Z"/><path d="M15 86 C182 2,152 40,326 32" stroke="#c362e3" fill="none"/><path d="M21 107 C158 90,166 133,331 82" stroke="#d17ced" fill="none"/><path d="M14 118 C173 115,179 27,326 97" stroke="#d86363" fill="none"/><path d="M15 53 C188 115,157 112,328 32" stroke="#b8e13b" fill="none"/><path d="M19 59 C192 90,191 53,322 14" stroke="#59d859" fill="none"/><path d="M13 41 C161 117,154 71,333 22" stroke="#693ee9" fill="none"/><path d="M5 96 C192 106,173 88,325 76" stroke="#dda063" fill="none"/><path fill="#9142e0" d="M277.95 77.42L277.93 77.40L277.96 77.44Q274.73 77.29 272.49 79.86L272.50 79.87L272.50 79.87Q270.15 82.32 269.80 85.75L269.87 85.82L269.76 85.71Q269.42 89.49 271.37 91.24L271.37 91.23L271.36 91.22Q273.34 92.99 277.11 92.79L277.11 92.78L277.10 92.78Q280.91 92.54 282.91 91.30L282.85 91.25L282.96 91.36Q285.03 89.37 285.03 86.56L285.00 86.53L285.00 86.53Q285.02 85.87 284.88 85.18L284.89 85.19L284.80 85.09Q284.92 82.05 282.93 79.62L282.93 79.62L283.02 79.71Q280.95 77.19 277.93 77.40ZM277.28 97.56L277.24 97.51L277.17 97.44Q269.30 97.47 266.76 96.10L266.67 96.01L266.66 96.00Q264.90 94.72 264.56 91.63L264.60 91.67L264.65 91.72Q264.44 90.34 264.51 89.04L264.61 89.15L264.65 89.19Q264.81 87.36 264.81 86.53L264.67 86.38L264.66 86.38Q265.63 81.38 265.91 80.14L265.85 80.08L265.76 80.00Q266.78 76.69 268.29 74.15L268.19 74.05L268.10 73.96Q273.03 66.19 283.74 54.72L283.64 54.62L283.75 54.73Q288.53 54.15 292.51 52.71L292.49 52.69L292.48 52.68Q280.11 66.13 274.35 73.75L274.46 73.86L274.43 73.84Q276.13 72.86 278.46 72.86L278.58 72.97L278.58 72.97Q284.45 72.86 287.19 76.37L287.17 76.34L287.16 76.34Q289.60 79.32 290.22 85.71L290.19 85.68L290.32 85.81Q290.42 87.08 290.42 88.18L290.39 88.15L290.31 88.06Q290.41 93.80 286.43 95.72L286.36 95.65L286.31 95.60Q284.19 96.78 277.19 97.47ZM281.23 101.71L281.41 101.89L281.35 101.83Q283.72 101.80 287.29 101.94L287.31 101.95L287.17 101.82Q290.24 102.07 293.05 100.76L292.89 100.60L292.91 100.62Q295.05 99.32 295.05 96.10L294.92 95.97L294.90 95.95Q294.91 95.07 294.60 93.28L294.66 93.34L294.74 93.42Q294.34 91.54 294.34 90.72L294.30 90.68L294.39 90.77Q292.77 82.22 289.89 78.79L289.88 78.78L289.98 78.88Q289.81 78.64 289.53 78.23L289.47 78.16L288.95 77.78L288.75 77.65L288.83 77.73Q288.17 76.80 287.07 75.08L287.02 75.02L287.13 75.14Q285.48 73.41 281.91 72.59L281.93 72.62L281.90 72.59Q284.14 69.75 289.50 63.09L289.39 62.98L297.06 53.48L297.13 53.55Q294.23 55.04 289.90 56.42L289.81 56.32L289.96 56.47Q291.46 54.55 294.69 50.97L294.84 51.13L294.80 51.09Q290.41 52.94 283.40 53.97L283.44 54.00L283.44 54.01Q273.18 64.68 267.82 73.61L267.86 73.65L267.80 73.59Q265.10 78.17 264.08 89.43L264.07 89.43L263.97 89.33Q263.88 90.40 264.01 92.12L263.93 92.03L264.09 92.19Q264.14 95.26 266.13 96.91L266.08 96.86L266.21 96.99Q266.76 97.13 266.69 97.20L266.77 97.27L266.84 97.34Q267.53 99.00 268.98 99.76L268.94 99.72L268.82 99.60Q271.39 100.80 274.89 101.14L275.00 101.25L274.90 101.15Q275.04 101.29 281.36 101.84ZM280.91 81.55L280.93 81.57L280.95 81.59Q282.00 81.41 283.72 82.30L283.59 82.17L283.56 82.14Q284.19 83.87 284.19 85.04L284.29 85.14L284.27 85.12Q284.53 88.40 282.82 90.19L282.83 90.20L282.80 90.17Q280.97 91.56 277.19 92.11L277.27 92.19L277.10 92.02Q274.49 92.02 273.53 91.54L273.62 91.63L273.60 91.61Q273.37 90.90 273.37 90.35L273.19 90.17L273.32 90.30Q272.92 84.41 278.21 82.07L278.12 81.99L278.20 82.06Q279.51 81.38 280.88 81.52Z"/><path fill="#7d99ec" d="M164.80 60.27L164.79 60.26L161.98 60.47L161.95 60.44Q158.05 60.80 157.64 64.44L157.59 64.39L157.61 64.41Q157.51 65.75 157.58 67.53L157.42 67.38L157.46 67.41Q157.59 70.97 159.85 73.38L159.83 73.36L159.78 73.30Q162.13 75.79 165.56 75.52L165.61 75.57L165.60 75.55Q169.31 75.28 170.68 73.63L170.64 73.59L170.66 73.61Q172.44 71.82 172.92 67.77L173.11 67.97L173.07 67.92Q173.48 63.80 171.22 62.29L171.31 62.38L171.29 62.37Q169.71 60.92 164.90 60.37ZM175.79 77.03L175.70 76.94L173.37 81.06L173.46 81.15Q168.62 89.84 161.82 97.18L161.69 97.05L161.82 97.18Q158.89 97.48 154.01 98.92L153.92 98.83L153.91 98.81Q163.51 87.47 169.21 78.82L169.15 78.77L169.27 78.88Q167.47 80.10 164.52 80.24L164.36 80.09L164.43 80.15Q158.99 80.41 156.25 76.84L156.31 76.91L156.32 76.92Q154.01 73.92 152.02 65.68L152.14 65.81L152.01 65.68Q152.12 64.96 151.85 63.28L151.81 63.24L151.72 63.15Q151.57 61.60 151.57 60.77L151.56 60.76L151.50 60.70Q151.60 57.58 153.53 56.48L153.52 56.48L153.36 56.32Q155.75 55.13 159.11 55.13L159.02 55.04L159.11 55.13Q164.79 55.04 164.79 55.04L164.79 55.04L164.84 55.09Q168.78 55.19 171.05 55.53L170.96 55.45L170.87 55.36Q174.80 55.92 176.45 56.81L176.55 56.91L176.40 56.76Q178.90 58.16 179.24 61.32L179.25 61.33L179.34 61.42Q179.20 61.69 178.85 66.50L178.97 66.62L178.88 66.52Q178.25 70.43 177.84 71.94L177.79 71.88L177.80 71.90Q177.21 74.53 175.84 77.07ZM179.20 81.32L179.15 81.28L179.15 81.28Q180.96 77.32 181.92 69.56L182.00 69.64L181.93 69.57Q182.41 65.59 182.34 64.01L182.42 64.08L182.34 64.01Q182.23 60.60 180.10 58.95L180.26 59.11L179.67 58.87L179.54 58.74Q179.19 57.49 177.54 56.33L177.44 56.23L177.46 56.24Q173.31 54.43 164.66 54.15L164.75 54.25L164.76 54.25Q163.04 54.25 158.65 54.25L158.60 54.20L158.58 54.19Q155.35 54.12 152.67 55.35L152.78 55.45L152.73 55.41Q150.67 56.85 150.80 60.14L150.93 60.27L150.88 60.21Q151.17 61.81 151.51 65.45L151.53 65.47L151.50 65.44Q152.57 70.15 153.05 71.66L153.07 71.68L153.11 71.71Q154.14 75.09 155.86 77.42L155.82 77.38L155.78 77.34Q156.29 77.98 156.97 78.67L157.00 78.69L157.02 78.72Q157.42 79.46 158.59 81.11L158.63 81.15L158.65 81.18Q161.36 83.67 164.86 84.02L164.82 83.98L164.87 84.02Q161.40 88.79 158.58 92.23L158.54 92.18L152.15 100.21L152.12 100.18Q156.13 98.77 159.08 98.15L159.12 98.19L159.18 98.25Q157.80 99.82 154.98 102.91L154.81 102.74L154.85 102.78Q160.50 101.21 166.13 101.14L166.09 101.11L166.16 101.18Q170.25 96.41 178.08 83.37L178.02 83.31L178.10 83.53L178.09 83.51Q178.53 82.17 179.15 81.28ZM168.32 64.61L168.31 64.60L168.31 64.61Q169.53 64.52 170.35 64.72L170.21 64.58L170.18 64.55Q171.54 64.94 172.22 65.15L172.17 65.09L172.19 65.12Q172.43 65.84 172.57 66.59L172.45 66.48L172.38 66.41Q172.51 67.16 172.31 67.84L172.35 67.88L172.49 68.03Q172.29 70.99 170.16 72.98L170.13 72.95L170.29 73.10Q168.56 74.94 165.60 74.87L165.50 74.77L165.59 74.86Q164.73 74.76 161.99 74.21L162.13 74.35L162.06 74.28Q161.54 72.59 161.54 71.29L161.57 71.32L161.64 71.39Q161.58 70.99 161.58 70.58L161.58 70.58L161.53 70.52Q161.39 66.40 165.51 64.96L165.66 65.11L165.55 65.00Q166.84 64.64 168.35 64.64Z"/><path d="M21 39 C155 27,161 111,323 70" stroke="#6dedcd" fill="none"/><path d="M4 44 C156 7,177 75,335 83" stroke="#6161df" fill="none"/><path d="M7 89 C178 85,185 56,336 13" stroke="#86eb64" fill="none"/><path d="M5 79 C185 77,179 118,329 72" stroke="#6dc1dd" fill="none"/><path d="M8 116 C176 89,158 121,328 82" stroke="#d76e4b" fill="none"/><path d="M9 114 C166 127,174 83,338 24" stroke="#dfc26b" fill="none"/><path d="M6 136 C185 95,151 92,326 65" stroke="#e8cd7c" fill="none"/><path d="M7 21 C168 7,164 45,337 46" stroke="#73dda8" fill="none"/><path d="M1 131 C169 114,179 114,336 63" stroke="#e692d1" fill="none"/><path d="M4 57 C160 83,173 56,335 70" stroke="#42e0b8" fill="none"/><path d="M20 114 C162 93,187 35,339 32" stroke="#6ce48a" fill="none"/><path d="M4 103 C154 61,187 23,329 64" stroke="#5e5ede" fill="none"/><path d="M5 13 C178 105,169 10,324 110" stroke="#886ae0" fill="none"/></svg>