<svg xmlns="http://www.w3.org/2000/svg" width="342" height="140" viewBox="0,0,342,140"><path d="M6 53 C189 42,172 113,330 133" stroke="#67e486" fill="none"/><path d="M2 52 C162 108,191 97,330 118" stroke="#bcdf52" fill="none"/><path d="M19 65 C152 39,176 58,328 122" stroke="#7575e5" fill="none"/><path d="M9 116 C172 23,176 106,334 4" stroke="#ea61c8" fill="none"/><path d="M14 79 C191 28,160 78,325 119" stroke="#e57f98" fill="none"/><path d="M8 61 C156 127,165 104,322 16" stroke="#8eead3" fill="none"/><path d="M19 19 C176 115,172 123,339 56" stroke="#8484ea" fill="none"/><path fill="#5072d7" d="M192.03 99.58L192.10 99.65L191.96 99.52Q189.30 99.72 186.29 98.91L186.35 98.97L186.27 98.89Q183.88 97.09 183.58 93.93L183.71 94.05L183.58 93.93Q183.59 93.64 183.95 88.57L183.87 88.49L184.00 88.62Q185.95 88.22 189.84 87.48L189.87 87.51L189.44 88.91L189.39 88.87Q188.90 92.27 191.61 93.37L191.63 93.39L191.66 93.42Q193.15 94.03 197.19 94.03L197.21 94.05L197.32 94.15Q200.23 93.69 200.60 93.54L200.61 93.56L200.77 93.71Q202.44 93.33 203.83 92.37L203.79 92.33L203.79 92.33Q206.59 90.58 206.23 86.54L206.13 86.45L206.16 86.47Q205.88 81.87 202.54 78.85L202.48 78.80L202.41 78.73Q199.15 75.79 194.37 75.79L194.35 75.77L194.33 75.31L194.29 75.27Q195.03 75.20 196.72 75.05L196.84 75.17L196.80 75.14Q200.49 74.94 203.13 72.55L203.04 72.45L203.12 72.53Q205.83 70.21 206.12 66.62L206.14 66.64L205.96 66.45Q206.12 65.80 206.12 65.14L206.27 65.29L206.22 65.24Q206.20 62.29 203.55 60.52L203.62 60.59L203.55 60.52Q201.23 59.01 198.15 59.23L198.03 59.11L198.08 59.16Q195.64 58.92 193.29 59.73L193.34 59.78L193.32 59.76Q190.54 60.80 189.95 63.00L189.89 62.94L189.94 62.99Q189.53 64.42 189.68 65.89L189.61 65.82L189.65 65.85Q187.76 65.50 183.79 64.11L183.77 64.09L183.71 64.03Q183.36 60.89 183.43 59.27L183.31 59.15L183.43 59.27Q183.56 56.24 185.61 54.92L185.56 54.86L185.57 54.87Q188.45 53.87 191.54 53.87L191.44 53.77L191.42 53.75Q197.59 53.75 203.69 54.27L203.55 54.14L203.60 54.18Q213.42 55.04 212.83 62.31L212.74 62.22L212.89 62.37Q212.72 65.21 211.77 68.22L211.71 68.16L211.74 68.20Q209.85 74.01 205.30 75.77L205.31 75.79L205.49 75.96Q210.40 76.84 211.58 83.30L211.67 83.39L211.72 83.44Q212.01 85.50 212.16 89.39L212.30 89.53L212.18 89.41Q212.60 98.13 203.71 99.01L203.61 98.90L203.64 98.93Q202.20 99.04 191.99 99.55ZM202.01 103.83L202.14 103.97L202.16 103.99Q203.30 104.03 208.81 104.18L208.81 104.18L208.76 104.13Q212.14 104.28 215.30 103.03L215.32 103.05L215.39 103.13Q217.61 101.23 217.25 97.86L217.15 97.76L217.18 97.79Q216.94 95.20 216.35 91.82L216.41 91.88L216.49 91.96Q214.91 83.12 211.17 79.96L211.30 80.09L211.00 79.42L210.77 79.12L210.81 79.16Q214.11 76.29 215.57 67.84L215.69 67.96L215.67 67.94Q215.68 67.00 215.90 65.16L215.97 65.23L216.02 65.28Q216.13 63.77 215.98 62.45L216.04 62.51L215.87 62.34Q215.68 59.22 213.19 57.90L213.19 57.90L213.10 57.96L213.12 57.98Q212.36 55.89 210.15 54.86L210.32 55.02L210.29 55.00Q207.28 53.61 197.37 53.02L197.41 53.06L197.36 53.00Q194.23 52.97 191.15 52.97L191.06 52.87L191.18 52.99Q188.02 52.92 185.09 54.17L185.00 54.08L185.16 54.24Q182.69 55.59 182.69 58.97L182.73 59.01L182.70 58.98Q182.63 58.11 183.15 64.57L183.14 64.56L183.30 64.71Q183.87 64.84 187.02 66.02L186.88 65.88L186.88 65.87Q187.05 67.07 186.97 68.03L186.97 68.02L186.86 67.91Q186.94 68.94 187.01 69.97L186.91 69.87L187.01 69.97Q190.34 70.58 194.23 70.80L194.32 70.89L194.21 70.79Q194.11 66.93 196.24 65.32L196.36 65.44L196.21 65.30Q197.96 64.18 201.85 63.74L201.72 63.61L201.89 63.78Q204.04 63.72 205.14 64.09L205.02 63.97L205.03 63.98Q205.23 64.33 205.30 64.55L205.22 64.47L205.24 64.85L205.54 66.03L205.39 65.88Q205.38 66.25 205.31 66.54L205.43 66.66L205.38 66.60Q205.32 69.99 202.38 72.27L202.24 72.13L202.22 72.11Q200.45 73.87 196.56 74.24L196.63 74.30L196.72 74.40Q195.21 74.57 193.52 74.57L193.61 74.66L193.51 74.56Q193.62 75.25 193.91 76.57L193.98 76.64L193.86 76.52Q197.37 76.66 200.16 78.05L200.04 77.93L199.91 78.02L196.88 78.37L196.93 78.42Q196.90 78.98 197.12 80.16L197.14 80.17L197.23 80.26Q201.24 80.01 204.54 82.58L204.51 82.55L204.68 82.72Q204.95 83.28 205.54 86.44L205.71 86.62L205.67 86.57Q206.08 92.27 200.43 93.08L200.36 93.01L200.38 93.03Q196.37 93.57 195.27 93.50L195.18 93.41L195.20 93.43Q194.28 93.18 193.26 93.03L193.34 93.11L193.36 92.25L193.56 91.35L193.49 90.47L193.58 89.90L193.69 90.02Q191.82 90.12 190.28 90.49L190.24 90.45L190.35 90.57Q190.22 90.06 190.22 89.70L190.10 89.58L190.13 89.60Q190.24 89.28 190.24 88.84L190.26 88.85L190.33 88.93Q190.33 88.05 190.62 86.65L190.56 86.59L190.73 86.76Q186.99 87.05 183.39 87.72L183.49 87.82L183.48 87.80Q183.44 88.72 183.22 90.89L183.21 90.88L183.22 90.89Q183.03 93.09 183.03 94.26L183.08 94.30L183.04 94.27Q183.11 98.16 185.76 99.63L185.76 99.63L185.81 99.68Q188.64 104.06 197.75 103.69L197.66 103.60L197.78 103.72Q199.19 103.66 202.13 103.96Z"/><path d="M21 21 C187 48,184 102,340 135" stroke="#ce82e7" fill="none"/><path d="M19 3 C164 46,159 32,324 125" stroke="#92a8eb" fill="none"/><path d="M6 37 C183 3,173 19,326 8" stroke="#ef7a7a" fill="none"/><path d="M7 16 C192 98,165 111,341 8" stroke="#da4d4d" fill="none"/><path d="M20 86 C153 30,174 105,326 92" stroke="#4393e4" fill="none"/><path d="M21 57 C179 137,172 61,334 83" stroke="#c255e6" fill="none"/><path d="M17 15 C182 131,157 14,323 18" stroke="#e49d85" fill="none"/><path fill="#e06f8c" d="M62.32 78.01L62.18 77.88L62.14 77.83Q58.72 77.71 56.33 80.47L56.38 80.52L56.32 80.45Q53.92 83.20 53.55 86.87L53.63 86.95L53.50 86.82Q53.15 90.87 55.24 92.74L55.16 92.66L55.14 92.64Q57.37 94.65 61.41 94.43L61.35 94.37L61.40 94.42Q65.36 94.05 67.49 92.73L67.45 92.69L67.49 92.73Q69.72 90.63 69.72 87.62L69.78 87.68L69.66 87.55Q69.63 86.79 69.49 86.06L69.67 86.25L69.52 86.10Q69.66 82.86 67.53 80.25L67.62 80.34L67.58 80.30Q65.57 77.81 62.33 78.03ZM61.50 99.44L61.40 99.34L61.43 99.37Q52.98 99.36 50.26 97.89L50.30 97.93L50.22 97.85Q48.26 96.41 47.89 93.10L47.95 93.16L47.89 93.10Q47.83 91.79 47.90 90.39L47.86 90.35L47.84 90.33Q48.07 88.43 48.07 87.55L48.07 87.55L48.16 87.64Q49.06 82.16 49.36 80.83L49.34 80.82L49.29 80.76Q50.17 77.03 51.79 74.31L51.78 74.30L51.76 74.28Q57.00 65.93 68.45 53.67L68.42 53.64L68.48 53.71Q73.55 53.04 77.80 51.50L77.75 51.45L77.86 51.56Q64.59 65.89 58.42 74.04L58.46 74.08L58.51 74.13Q60.42 73.18 62.92 73.18L62.74 73.00L62.74 73.00Q69.29 73.17 72.23 76.91L72.19 76.87L72.18 76.86Q74.65 79.91 75.31 86.74L75.35 86.78L75.36 86.79Q75.56 88.25 75.56 89.42L75.43 89.29L75.49 89.34Q75.49 95.37 71.24 97.43L71.34 97.53L71.36 97.55Q68.91 98.63 61.43 99.36ZM65.81 103.97L65.76 103.92L65.79 103.95Q68.41 104.00 72.23 104.14L72.17 104.09L72.05 103.97Q75.33 104.24 78.34 102.85L78.26 102.76L78.33 102.83Q80.50 101.33 80.50 97.88L80.50 97.89L80.39 97.77Q80.53 96.96 80.20 95.05L80.18 95.02L80.16 95.01Q79.78 93.05 79.78 92.17L79.71 92.10L79.74 92.13Q78.11 83.09 75.03 79.42L74.92 79.31L75.11 79.49Q74.89 79.20 74.60 78.76L74.48 78.65L73.92 78.23L73.82 78.21L73.87 78.26Q73.10 77.19 71.92 75.35L71.96 75.39L71.99 75.42Q70.17 73.53 66.35 72.64L66.50 72.79L66.38 72.68Q68.82 69.68 74.55 62.56L74.49 62.50L82.60 52.26L82.55 52.21Q79.62 53.98 75.00 55.45L74.95 55.40L74.96 55.41Q76.72 53.50 80.17 49.68L80.23 49.74L80.32 49.83Q75.66 51.85 68.17 52.95L68.04 52.83L68.02 52.80Q57.16 64.34 51.44 73.88L51.36 73.80L51.35 73.79Q48.48 78.71 47.38 90.75L47.40 90.77L47.28 90.66Q47.14 91.76 47.28 93.59L47.32 93.63L47.43 93.74Q47.52 97.06 49.65 98.82L49.52 98.69L49.64 98.81Q50.37 99.10 50.30 99.18L50.36 99.24L50.32 99.20Q51.02 100.93 52.56 101.74L52.53 101.70L52.46 101.63Q55.42 103.13 59.17 103.49L59.01 103.34L59.16 103.49Q59.17 103.50 65.93 104.09ZM65.30 82.24L65.47 82.42L65.42 82.36Q66.43 82.05 68.27 83.01L68.25 82.98L68.25 82.99Q69.06 84.98 69.06 86.22L68.97 86.14L68.89 86.05Q69.32 89.72 67.49 91.63L67.43 91.57L67.46 91.60Q65.52 93.10 61.48 93.69L61.50 93.71L61.34 93.55Q58.68 93.68 57.65 93.17L57.57 93.08L57.65 93.16Q57.33 92.33 57.33 91.75L57.29 91.70L57.33 91.74Q56.89 85.43 62.54 82.93L62.48 82.87L62.56 82.95Q63.95 82.22 65.42 82.36Z"/><path d="M12 49 C162 71,167 118,326 28" stroke="#bfef8e" fill="none"/><path fill="#43d98e" d="M124.04 99.60L124.11 99.67L124.11 99.66Q121.40 99.82 118.39 99.01L118.27 98.90L118.31 98.93Q115.91 97.12 115.61 93.96L115.70 94.04L115.74 94.08Q115.68 93.73 116.04 88.66L115.97 88.59L115.98 88.60Q117.86 88.13 121.76 87.40L121.81 87.45L121.39 88.87L121.51 88.99Q120.98 92.35 123.70 93.46L123.71 93.47L123.69 93.44Q125.11 93.99 129.15 93.99L129.26 94.10L129.30 94.14Q132.38 93.84 132.75 93.69L132.76 93.70L132.78 93.72Q134.37 93.26 135.77 92.31L135.80 92.34L135.82 92.36Q138.63 90.62 138.26 86.58L138.29 86.61L138.29 86.61Q137.89 81.87 134.55 78.86L134.57 78.88L134.41 78.73Q131.24 75.88 126.47 75.88L126.38 75.80L126.40 75.38L126.32 75.30Q127.20 75.37 128.89 75.22L128.81 75.15L128.75 75.08Q132.40 74.85 135.05 72.46L135.04 72.45L135.02 72.44Q137.74 70.12 138.03 66.52L138.11 66.60L137.96 66.46Q138.25 65.94 138.25 65.28L138.17 65.20L138.27 65.30Q138.29 62.38 135.64 60.61L135.57 60.54L135.63 60.60Q133.19 58.97 130.11 59.19L130.07 59.15L130.06 59.14Q127.64 58.92 125.29 59.73L125.38 59.82L125.21 59.65Q122.49 60.75 121.90 62.95L121.91 62.96L121.88 62.93Q121.59 64.48 121.74 65.95L121.60 65.80L121.59 65.79Q119.61 65.35 115.64 63.96L115.73 64.04L115.77 64.09Q115.24 60.77 115.31 59.15L115.27 59.11L115.47 59.30Q115.52 56.20 117.58 54.88L117.69 55.00L117.73 55.04Q120.36 53.78 123.45 53.78L123.53 53.86L123.48 53.81Q129.44 53.60 135.53 54.12L135.57 54.15L135.63 54.22Q145.40 55.03 144.82 62.30L144.73 62.21L144.72 62.20Q144.61 65.10 143.65 68.11L143.65 68.11L143.72 68.17Q141.91 74.08 137.36 75.84L137.31 75.79L137.45 75.93Q142.37 76.81 143.54 83.27L143.56 83.29L143.57 83.29Q144.01 85.50 144.16 89.39L144.25 89.49L144.26 89.49Q144.62 98.15 135.73 99.03L135.62 98.92L135.71 99.01Q134.16 99.00 123.95 99.51ZM134.02 103.85L134.00 103.83L134.18 104.01Q135.18 103.91 140.69 104.05L140.83 104.20L140.85 104.22Q144.08 104.22 147.24 102.97L147.33 103.06L147.30 103.03Q149.53 101.15 149.17 97.78L149.21 97.83L149.25 97.86Q148.97 95.23 148.39 91.86L148.51 91.98L148.48 91.95Q147.08 83.28 143.34 80.13L143.31 80.10L142.91 79.34L142.90 79.25L142.75 79.10Q146.18 76.36 147.65 67.92L147.77 68.04L147.65 67.92Q147.65 66.97 147.87 65.13L147.99 65.25L147.88 65.14Q148.12 63.77 147.98 62.45L147.95 62.42L148.03 62.50Q147.62 59.15 145.12 57.83L145.14 57.85L145.01 57.87L145.07 57.93Q144.53 56.06 142.33 55.04L142.20 54.91L142.23 54.94Q139.38 53.70 129.47 53.11L129.31 52.96L129.44 53.09Q126.20 52.93 123.12 52.93L123.06 52.87L123.17 52.99Q119.95 52.84 117.01 54.09L117.06 54.14L117.09 54.17Q114.71 55.61 114.71 58.99L114.69 58.97L114.76 59.04Q114.66 58.13 115.17 64.59L115.26 64.68L115.30 64.72Q115.89 64.86 119.04 66.04L119.02 66.02L119.05 66.04Q118.92 66.95 118.85 67.90L118.84 67.89L118.85 67.90Q118.84 68.84 118.91 69.87L119.05 70.01L119.06 70.02Q122.41 70.65 126.30 70.87L126.37 70.94L126.40 70.97Q126.18 67.01 128.31 65.39L128.36 65.44L128.28 65.36Q129.92 64.14 133.81 63.69L133.88 63.77L133.77 63.66Q135.94 63.63 137.04 64.00L137.17 64.12L137.07 64.03Q137.23 64.33 137.31 64.55L137.33 64.57L137.35 64.96L137.56 66.05L137.56 66.06Q137.40 66.26 137.32 66.55L137.32 66.55L137.44 66.67Q137.16 69.84 134.23 72.12L134.29 72.18L134.26 72.15Q132.61 74.02 128.71 74.39L128.56 74.23L128.68 74.35Q127.31 74.68 125.63 74.68L125.61 74.66L125.54 74.59Q125.55 75.19 125.84 76.51L126.03 76.70L125.92 76.59Q129.27 76.55 132.06 77.95L132.14 78.03L131.88 77.99L128.87 78.36L128.86 78.35Q128.99 79.07 129.21 80.24L129.24 80.27L129.12 80.15Q133.28 80.05 136.58 82.62L136.50 82.54L136.65 82.70Q137.10 83.43 137.69 86.59L137.52 86.43L137.69 86.59Q137.91 92.10 132.26 92.91L132.32 92.97L132.29 92.94Q128.31 93.51 127.21 93.44L127.26 93.49L127.14 93.37Q126.38 93.28 125.36 93.13L125.28 93.05L125.35 92.24L125.41 91.20L125.60 90.58L125.72 90.04L125.63 89.95Q123.78 90.09 122.24 90.45L122.35 90.56L122.22 90.44Q122.14 89.98 122.14 89.61L122.21 89.69L122.23 89.71Q122.22 89.26 122.22 88.82L122.18 88.78L122.19 88.79Q122.33 88.05 122.62 86.65L122.72 86.75L122.69 86.72Q118.99 87.06 115.40 87.72L115.35 87.68L115.49 87.82Q115.40 88.68 115.18 90.85L115.27 90.94L115.15 90.81Q114.92 92.97 114.92 94.14L114.96 94.18L114.97 94.19Q115.24 98.29 117.89 99.76L117.75 99.62L117.78 99.65Q120.66 104.07 129.76 103.70L129.70 103.64L129.82 103.76Q131.18 103.65 134.12 103.95Z"/><path d="M18 68 C170 6,191 134,324 47" stroke="#a893e5" fill="none"/><path d="M15 16 C188 83,191 29,328 40" stroke="#6c44e3" fill="none"/><path d="M4 54 C162 84,169 49,327 35" stroke="#de58bc" fill="none"/><path d="M17 108 C169 86,191 28,334 122" stroke="#78cbe7" fill="none"/><path fill="#99e948" d="M261.22 99.61L261.30 99.68L261.25 99.63Q253.45 100.12 251.54 95.65L251.45 95.56L251.54 95.65Q252.91 93.71 255.92 90.26L255.91 90.25L255.95 90.30Q256.94 94.22 262.74 94.44L262.70 94.40L262.67 94.37Q269.21 94.52 272.37 91.95L272.48 92.06L272.49 92.08Q275.08 88.87 274.94 83.66L275.06 83.78L275.02 83.74Q274.62 73.87 265.37 74.31L265.46 74.40L265.55 74.49Q260.12 74.79 256.75 77.21L256.64 77.11L255.99 76.75L255.66 76.57L255.62 76.53Q256.28 70.43 256.06 65.15L256.07 65.16L256.04 65.13Q255.80 60.04 255.14 53.66L255.23 53.75L255.21 53.73Q262.20 55.50 269.54 55.28L269.65 55.39L269.50 55.24Q277.01 55.26 283.91 52.83L283.80 52.72L282.77 55.74L282.68 55.64Q282.22 57.23 281.85 58.85L281.77 58.78L281.85 58.85Q275.82 60.83 268.33 60.83L268.34 60.84L268.28 60.77Q265.48 60.76 262.61 60.47L262.61 60.47L262.69 60.55Q262.38 61.70 261.72 70.29L261.71 70.28L261.81 70.38Q263.48 69.56 267.44 69.26L267.47 69.29L267.38 69.20Q274.56 69.62 277.35 72.85L277.43 72.93L277.39 72.89Q280.04 75.84 280.56 83.25L280.42 83.12L280.58 83.28Q281.03 91.29 278.68 95.18L278.78 95.28L278.76 95.26Q274.72 98.79 268.33 99.23L268.33 99.23L268.40 99.29Q266.49 99.44 261.36 99.74ZM272.92 104.03L272.95 104.07L272.87 103.98Q279.59 104.24 283.26 102.11L283.20 102.05L283.32 102.17Q285.19 99.19 285.19 95.15L285.07 95.04L285.04 95.01Q285.16 89.18 283.32 81.25L283.39 81.31L283.28 81.20Q282.64 77.93 280.29 75.21L280.16 75.08L280.22 75.21L279.78 74.62L279.16 74.30L279.20 74.34Q278.70 73.03 277.46 71.71L277.43 71.68L277.29 71.62L277.39 71.72Q274.39 68.42 267.27 68.42L267.30 68.45L266.76 68.43L266.87 68.54Q266.87 67.30 267.24 65.17L267.30 65.23L267.36 65.29Q276.96 65.49 284.74 62.33L284.75 62.34L284.73 62.31Q285.46 59.52 287.29 54.09L287.32 54.11L283.21 55.88L283.30 55.98Q284.07 53.81 285.03 51.61L284.98 51.56L284.95 51.53Q277.60 54.38 269.67 54.53L269.58 54.44L269.61 54.47Q261.71 54.72 254.08 52.59L254.01 52.53L254.18 52.69Q255.45 61.16 255.45 69.68L255.35 69.58L255.47 69.69Q255.49 73.39 255.27 77.06L255.20 76.98L255.21 77.00Q255.62 77.26 256.72 77.85L256.86 77.98L256.83 77.96Q257.46 77.48 258.71 76.82L258.70 76.82L258.66 76.77Q258.71 78.37 258.27 81.31L258.26 81.30L258.19 81.23Q258.93 81.52 259.73 81.96L259.82 82.05L259.91 82.14Q265.10 78.60 268.70 78.60L268.74 78.64L268.69 78.58Q271.30 78.62 273.57 79.87L273.62 79.91L273.56 79.85Q274.28 81.89 274.35 83.73L274.44 83.82L274.33 83.71Q274.46 88.69 272.48 90.82L272.55 90.89L272.55 90.88Q269.94 93.27 265.61 93.71L265.59 93.69L265.58 93.68Q263.78 93.87 262.46 93.72L262.28 93.54L262.43 93.69Q260.68 93.34 259.21 92.67L259.30 92.76L259.15 92.25L259.08 92.62L258.92 92.45Q257.49 91.61 256.46 89.04L256.37 88.95L256.50 89.09Q253.86 91.73 250.63 95.84L250.56 95.77L250.59 95.80Q251.25 97.12 252.87 98.96L252.93 99.02L252.78 98.87Q254.88 102.43 260.31 103.39L260.41 103.49L260.25 103.33Q262.54 103.79 272.90 104.01Z"/><path d="M7 98 C158 126,176 11,321 54" stroke="#e3bd49" fill="none"/><path d="M16 112 C165 54,177 46,337 36" stroke="#deba4e" fill="none"/><path d="M19 81 C192 11,161 127,338 77" stroke="#5f9edd" fill="none"/><path d="M6 109 C191 116,186 27,331 105" stroke="#8383f0" fill="none"/><path d="M12 54 C174 61,191 67,321 126" stroke="#e28e3a" fill="none"/><path d="M2 34 C152 2,151 45,322 41" stroke="#efef85" fill="none"/><path d="M19 9 C182 133,176 129,330 62" stroke="#dbdb66" fill="none"/><path d="M14 78 C186 14,162 115,323 121" stroke="#ea4c9b" fill="none"/><path d="M20 96 C170 72,175 120,332 110" stroke="#56db99" fill="none"/><path d="M16 23 C153 138,182 37,336 103" stroke="#4c4ce0" fill="none"/><path d="M14 109 C179 21,161 125,339 129" stroke="#e8ba8c" fill="none"/><path d="M7 95 C153 83,178 18,337 35" stroke="#55dcba" fill="none"/><path d="M1 135 C179 61,170 50,335 78" stroke="#5e5ee2" fill="none"/><path d="M20 138 C163 43,179 97,322 94" stroke="#5de3e3" fill="none"/><path d="M10 51 C190 51,183 18,322 97" stroke="#dd6e4a" fill="none"/><path d="M13 77 C168 8,180 5,337 37" stroke="#8ae4a1" fill="none"/><path d="M7 97 C155 112,171 112,326 34" stroke="#9645e6" fill="none"/><path d="M14 55 C163 55,179 84,332 69" stroke="#5555dc" fill="none"/><path d="M13 128 C157 19,162 116,339 105" stroke="#ebbc8e" fill="none"/><path d="M16 89 C165 15,184 57,322 80" stroke="#e0c87e" fill="none"/><path d="M12 129 C164 114,156 90,328 44" stroke="#bf5be0" fill="none"/></svg>