<svg xmlns="http://www.w3.org/2000/svg" width="342" height="140" viewBox="0,0,342,140"><path d="M18 5 C169 79,190 24,334 74" stroke="#609edc" fill="none"/><path d="M17 80 C185 11,188 48,334 8" stroke="#a0e25e" fill="none"/><path d="M6 99 C190 66,186 112,334 9" stroke="#bc88f1" fill="none"/><path d="M9 115 C173 68,151 100,338 50" stroke="#85e49d" fill="none"/><path d="M14 101 C190 50,192 110,325 90" stroke="#e74444" fill="none"/><path d="M8 32 C190 40,167 82,327 74" stroke="#6464e6" fill="none"/><path fill="#e94870" d="M63.31 76.60L63.26 76.54L63.32 76.60Q60.43 76.43 58.46 78.70L58.38 78.62L58.30 78.54Q56.41 80.89 56.11 83.91L56.21 84.01L56.13 83.93Q55.76 87.19 57.48 88.74L57.45 88.70L57.39 88.64Q59.24 90.31 62.57 90.13L62.57 90.13L62.61 90.17Q65.76 89.75 67.51 88.66L67.68 88.83L67.63 88.78Q69.50 87.08 69.50 84.60L69.44 84.54L69.50 84.60Q69.44 83.94 69.32 83.33L69.33 83.34L69.37 83.38Q69.51 80.73 67.75 78.58L67.68 78.51L67.76 78.60Q65.94 76.38 63.28 76.57ZM62.68 94.30L62.53 94.15L62.55 94.17Q55.61 94.19 53.37 92.98L53.30 92.90L53.39 93.00Q51.75 91.77 51.44 89.05L51.51 89.12L51.45 89.05Q51.32 87.89 51.38 86.74L51.52 86.89L51.54 86.90Q51.58 85.19 51.58 84.46L51.55 84.43L51.59 84.48Q52.38 80.00 52.62 78.91L52.61 78.90L52.66 78.96Q53.33 75.81 54.66 73.57L54.64 73.55L54.56 73.47Q58.93 66.65 68.37 56.54L68.26 56.43L68.29 56.46Q72.58 56.03 76.09 54.76L75.98 54.66L76.08 54.76Q65.22 66.64 60.14 73.36L60.17 73.39L60.13 73.35Q61.58 72.44 63.64 72.44L63.64 72.45L63.69 72.50Q68.93 72.47 71.35 75.56L71.33 75.54L71.33 75.53Q73.62 78.31 74.16 83.94L74.02 83.80L74.12 83.90Q74.25 85.05 74.25 86.02L74.13 85.90L74.21 85.99Q74.25 90.98 70.74 92.67L70.72 92.65L70.67 92.61Q68.73 93.57 62.56 94.18ZM66.17 97.97L66.31 98.11L66.12 97.92Q68.35 98.03 71.50 98.15L71.48 98.14L71.46 98.12Q74.10 98.27 76.58 97.12L76.52 97.06L76.58 97.12Q78.21 95.73 78.21 92.88L78.34 93.02L78.35 93.03Q78.29 92.17 78.01 90.60L77.89 90.47L77.92 90.51Q77.75 89.04 77.75 88.32L77.77 88.33L77.79 88.36Q76.30 80.75 73.76 77.73L73.70 77.67L73.80 77.77Q73.62 77.53 73.38 77.16L73.36 77.14L73.00 76.91L72.82 76.78L72.72 76.69Q72.33 76.05 71.36 74.54L71.32 74.50L71.37 74.55Q69.89 73.01 66.75 72.28L66.63 72.17L66.74 72.28Q68.71 69.77 73.43 63.90L73.43 63.90L80.06 55.40L80.09 55.44Q77.53 56.75 73.72 57.96L73.82 58.06L73.78 58.02Q75.31 56.52 78.15 53.38L78.15 53.37L78.07 53.30Q74.30 55.04 68.13 55.94L68.05 55.86L68.04 55.86Q58.94 65.20 54.22 73.07L54.38 73.23L54.22 73.07Q51.79 77.05 50.88 86.98L50.94 87.03L50.94 87.03Q50.81 87.93 50.93 89.44L51.02 89.53L51.00 89.51Q51.18 92.36 52.94 93.81L52.93 93.80L52.85 93.73Q53.50 94.01 53.44 94.07L53.47 94.10L53.40 94.03Q53.90 95.38 55.17 96.05L55.29 96.16L55.22 96.09Q57.48 97.14 60.56 97.44L60.69 97.57L60.61 97.49Q60.74 97.62 66.30 98.10ZM65.87 80.18L65.92 80.23L65.91 80.22Q66.83 80.05 68.34 80.84L68.20 80.69L68.35 80.85Q68.72 82.19 68.72 83.21L68.87 83.37L68.79 83.28Q69.18 86.33 67.67 87.91L67.66 87.90L67.63 87.87Q65.92 89.01 62.60 89.49L62.64 89.54L62.54 89.44Q60.35 89.54 59.50 89.12L59.50 89.12L59.44 89.05Q59.15 88.35 59.15 87.86L59.24 87.95L59.11 87.82Q58.83 82.70 63.49 80.64L63.38 80.53L63.39 80.55Q64.67 80.07 65.88 80.19Z"/><path d="M7 48 C158 56,183 17,330 52" stroke="#e8805e" fill="none"/><path d="M7 3 C171 85,169 114,331 125" stroke="#84eaea" fill="none"/><path d="M14 75 C165 68,174 52,332 135" stroke="#f07ef0" fill="none"/><path d="M4 10 C170 89,189 35,326 69" stroke="#5096dc" fill="none"/><path d="M11 132 C169 58,168 19,329 66" stroke="#e862e8" fill="none"/><path d="M4 107 C173 112,157 31,339 100" stroke="#a1e48a" fill="none"/><path d="M12 45 C172 33,152 28,330 49" stroke="#e08f74" fill="none"/><path d="M13 46 C156 55,188 13,321 42" stroke="#e980b5" fill="none"/><path d="M7 8 C155 71,167 87,324 93" stroke="#eb7979" fill="none"/><path d="M9 93 C191 112,159 41,334 113" stroke="#e66485" fill="none"/><path fill="#a7e792" d="M195.17 94.44L195.21 94.49L195.24 94.52Q188.62 94.74 187.05 91.05L187.20 91.20L187.20 91.20Q188.26 89.53 190.74 86.69L190.73 86.68L190.87 86.82Q191.69 90.06 196.47 90.24L196.29 90.06L196.33 90.10Q201.75 90.25 204.35 88.14L204.34 88.13L204.35 88.14Q206.53 85.54 206.41 81.25L206.53 81.36L206.39 81.23Q206.15 73.17 198.52 73.54L198.65 73.67L198.64 73.65Q194.17 73.90 191.38 75.90L191.37 75.88L190.88 75.63L190.52 75.39L190.46 75.34Q191.01 70.33 190.83 65.97L190.82 65.96L190.83 65.97Q190.76 61.91 190.22 56.64L190.12 56.54L190.14 56.56Q195.96 58.08 202.01 57.90L202.00 57.89L201.98 57.87Q208.05 57.78 213.74 55.78L213.77 55.81L212.76 58.13L212.75 58.12Q212.35 59.41 212.05 60.74L212.14 60.83L212.03 60.73Q207.11 62.40 200.94 62.40L200.97 62.44L201.01 62.47Q198.56 62.32 196.20 62.08L196.26 62.14L196.22 62.10Q196.07 63.16 195.52 70.23L195.58 70.30L195.64 70.35Q196.90 69.55 200.17 69.31L200.13 69.28L200.15 69.29Q206.20 69.78 208.50 72.44L208.43 72.38L208.48 72.42Q210.68 74.87 211.10 80.98L210.94 80.81L210.99 80.87Q211.50 87.61 209.57 90.81L209.46 90.70L209.53 90.78Q206.20 93.68 200.94 94.04L201.12 94.23L201.10 94.21Q199.46 94.26 195.23 94.51ZM204.69 97.98L204.88 98.16L204.82 98.11Q210.15 98.11 213.18 96.36L213.21 96.39L213.30 96.48Q214.82 94.01 214.82 90.68L214.91 90.77L214.90 90.77Q214.76 85.72 213.25 79.19L213.33 79.27L213.31 79.25Q212.63 76.39 210.70 74.15L210.82 74.28L210.91 74.43L210.51 73.91L209.96 73.60L209.87 73.52Q209.53 72.51 208.51 71.42L208.35 71.26L208.42 71.40L208.39 71.36Q205.97 68.70 200.10 68.70L200.05 68.65L199.64 68.67L199.72 68.75Q199.92 67.92 200.22 66.16L200.17 66.11L200.20 66.14Q208.06 66.25 214.47 63.65L214.43 63.61L214.54 63.72Q215.07 61.35 216.59 56.87L216.55 56.84L213.41 58.54L213.37 58.50Q213.84 56.55 214.63 54.74L214.62 54.73L214.64 54.74Q208.65 57.16 202.11 57.28L202.08 57.25L201.98 57.15Q195.49 57.38 189.20 55.62L189.21 55.63L189.29 55.71Q190.37 62.73 190.37 69.74L190.26 69.63L190.26 69.63Q190.42 72.81 190.24 75.84L190.10 75.71L190.23 75.83Q190.53 76.01 191.44 76.49L191.49 76.55L191.45 76.50Q192.11 76.26 193.14 75.72L192.99 75.57L192.96 75.54Q193.06 76.91 192.70 79.33L192.66 79.29L192.62 79.25Q193.34 79.61 194.01 79.97L194.03 79.99L193.94 79.90Q198.36 77.13 201.33 77.13L201.33 77.13L201.34 77.14Q203.55 77.24 205.43 78.26L205.39 78.22L205.26 78.09Q205.85 79.78 205.91 81.29L206.02 81.40L205.88 81.25Q206.11 85.48 204.48 87.24L204.50 87.26L204.36 87.12Q202.18 89.06 198.61 89.42L198.63 89.43L198.75 89.55Q197.14 89.58 196.05 89.46L196.15 89.56L195.99 89.40Q194.82 89.38 193.61 88.83L193.44 88.66L193.57 88.49L193.39 88.67L193.19 88.48Q192.01 87.78 191.16 85.66L191.11 85.60L191.09 85.59Q189.10 87.95 186.43 91.34L186.40 91.31L186.36 91.27Q186.85 92.30 188.18 93.81L188.22 93.85L188.28 93.91Q189.81 96.65 194.29 97.44L194.29 97.44L194.38 97.53Q196.17 97.81 204.70 97.99Z"/><path d="M4 45 C166 11,169 19,322 131" stroke="#d34a8e" fill="none"/><path d="M18 93 C158 104,186 99,337 112" stroke="#da3eb3" fill="none"/><path d="M4 8 C151 42,162 113,341 93" stroke="#5656d6" fill="none"/><path d="M17 10 C159 48,174 96,331 109" stroke="#e45c7e" fill="none"/><path d="M17 136 C163 105,188 87,329 39" stroke="#a865eb" fill="none"/><path fill="#39e4b9" d="M280.02 90.57L279.88 90.43L279.94 90.49Q280.51 92.16 281.36 95.36L281.22 95.22L281.27 95.27Q274.64 93.25 267.32 93.67L267.26 93.60L267.19 93.54Q260.06 94.09 253.71 97.23L253.57 97.10L253.57 97.10Q254.02 96.10 254.08 96.22L254.16 96.29L254.08 96.22Q259.91 89.83 266.15 82.81L266.20 82.87L266.25 82.91Q273.18 74.90 275.06 67.46L275.12 67.52L275.02 67.42Q275.92 64.82 273.90 62.94L273.78 62.82L273.88 62.92Q271.87 61.06 269.02 61.30L268.85 61.13L268.97 61.25Q268.38 61.15 267.84 61.15L267.92 61.23L267.85 61.16Q265.34 61.07 263.34 62.52L263.42 62.60L263.41 62.59Q261.33 64.74 261.69 68.98L261.66 68.95L261.84 69.12Q258.89 68.48 256.96 67.75L256.90 67.70L257.05 67.84Q256.68 65.54 256.56 63.24L256.52 63.21L256.44 63.12Q256.36 60.57 257.33 58.75L257.36 58.77L257.42 58.84Q260.17 56.57 265.50 56.57L265.62 56.69L268.29 56.58L268.24 56.53Q272.00 56.72 273.51 56.90L273.47 56.86L273.48 56.87Q280.28 57.44 280.70 61.31L280.77 61.38L280.77 61.37Q280.98 62.37 280.86 63.64L280.85 63.63L280.85 63.64Q280.82 64.69 280.58 65.78L280.42 65.63L280.53 65.74Q277.88 78.57 265.84 89.46L265.77 89.39L265.81 89.43Q268.06 89.20 270.24 89.20L270.32 89.28L270.23 89.20Q275.40 89.22 279.94 90.50ZM279.08 57.45L279.04 57.40L278.97 57.34Q276.54 56.42 273.82 56.30L273.80 56.28L268.34 55.96L268.42 56.05Q261.21 55.49 257.70 57.24L257.78 57.32L257.75 57.29Q256.07 59.48 256.07 62.75L256.06 62.74L256.01 62.69Q256.21 63.98 256.69 68.45L256.66 68.42L256.70 68.46Q257.50 68.78 259.38 69.26L259.26 69.14L259.36 70.88L259.33 70.85Q259.20 71.51 259.32 72.36L259.47 72.50L259.33 72.37Q261.33 72.55 265.27 72.92L265.27 72.92L265.41 73.06Q265.28 72.38 265.28 71.84L265.35 71.91L265.35 71.91Q265.22 68.88 267.16 66.73L267.27 66.85L267.27 66.84Q269.04 64.53 271.89 64.71L272.07 64.89L272.00 64.83Q273.12 64.80 274.33 65.04L274.44 65.15L274.34 65.05Q274.67 65.80 274.79 66.47L274.62 66.30L274.62 66.30Q274.84 67.12 274.72 67.67L274.56 67.51L274.65 67.59Q272.55 75.06 265.54 82.74L265.70 82.91L265.60 82.81Q262.27 86.43 253.61 96.05L253.61 96.05L253.62 96.06Q253.29 97.36 252.74 98.27L252.79 98.31L252.72 98.24Q255.27 96.86 257.69 96.02L257.66 95.98L257.66 95.99Q256.53 96.91 255.02 99.27L254.96 99.22L255.08 99.33Q254.88 99.86 254.69 100.40L254.66 100.36L254.71 100.42Q262.31 97.01 271.02 97.31L271.07 97.35L271.06 97.34Q280.08 97.59 287.34 101.34L287.49 101.50L285.82 98.01L285.73 97.92Q284.81 95.91 284.39 94.64L284.32 94.57L284.33 94.58Q283.14 93.88 281.21 93.21L281.21 93.21L281.27 93.28Q281.08 92.18 280.47 90.00L280.38 89.91L280.37 89.90Q276.96 89.08 273.33 88.78L273.27 88.73L273.34 88.79Q280.65 81.40 283.07 68.27L283.12 68.32L283.49 63.80L283.47 63.77Q283.34 60.92 281.41 59.83L281.34 59.77L281.26 59.75L281.40 59.89Q281.29 59.72 281.17 59.72L281.13 59.68L281.11 59.66Q280.82 58.40 279.07 57.44Z"/><path d="M18 125 C159 47,157 116,340 112" stroke="#e1c779" fill="none"/><path d="M10 93 C160 82,166 5,339 10" stroke="#6ee76e" fill="none"/><path d="M3 133 C170 113,191 89,323 56" stroke="#c674e1" fill="none"/><path d="M9 78 C171 73,175 39,334 84" stroke="#a891ec" fill="none"/><path d="M19 15 C165 130,183 80,332 111" stroke="#d968a0" fill="none"/><path d="M17 122 C168 118,173 111,324 51" stroke="#dfbd57" fill="none"/><path d="M10 128 C166 74,155 26,322 20" stroke="#4369d9" fill="none"/><path d="M17 21 C170 61,165 66,339 9" stroke="#e692a7" fill="none"/><path d="M20 38 C185 78,168 26,335 12" stroke="#e0a060" fill="none"/><path d="M19 45 C188 96,160 31,334 78" stroke="#3939e4" fill="none"/><path d="M16 41 C169 110,174 132,333 105" stroke="#8de6d0" fill="none"/><path d="M3 5 C175 101,170 37,325 28" stroke="#e05175" fill="none"/><path d="M20 19 C168 65,175 16,341 8" stroke="#e37c96" fill="none"/><path d="M9 54 C177 39,152 115,330 59" stroke="#9173ec" fill="none"/><path d="M8 52 C190 136,156 84,331 111" stroke="#829ae2" fill="none"/><path d="M9 40 C186 135,161 23,324 127" stroke="#e99595" fill="none"/><path d="M12 8 C156 57,183 25,335 108" stroke="#ecd48c" fill="none"/><path d="M1 67 C189 133,155 120,340 100" stroke="#eb93d5" fill="none"/><path fill="#dd64dd" d="M126.23 94.47L126.18 94.43L126.09 94.34Q123.82 94.43 121.34 93.76L121.40 93.82L121.36 93.78Q119.56 92.46 119.32 89.86L119.20 89.74L119.18 89.72Q119.22 89.53 119.53 85.35L119.58 85.41L119.58 85.40Q121.11 85.00 124.32 84.39L124.37 84.44L124.12 85.71L123.94 85.53Q123.67 88.47 125.91 89.38L125.84 89.31L125.75 89.21Q127.16 89.90 130.49 89.90L130.43 89.84L130.44 89.85Q133.00 89.63 133.30 89.51L133.34 89.54L133.21 89.41Q134.74 89.25 135.89 88.46L135.80 88.38L135.97 88.55Q138.17 86.99 137.86 83.66L137.76 83.56L137.83 83.63Q137.57 79.80 134.81 77.31L134.85 77.35L134.72 77.23Q132.06 74.84 128.13 74.84L127.99 74.70L128.07 74.41L127.99 74.33Q128.64 74.32 130.04 74.20L130.01 74.18L129.99 74.15Q133.06 74.02 135.24 72.05L135.29 72.11L135.18 72.00Q137.41 70.08 137.66 67.12L137.71 67.17L137.69 67.16Q137.75 66.55 137.75 66.00L137.79 66.04L137.79 66.05Q137.80 63.64 135.63 62.18L135.61 62.16L135.59 62.15Q133.80 61.02 131.26 61.20L131.12 61.07L131.20 61.14Q129.02 60.78 127.08 61.45L127.10 61.46L127.14 61.50Q124.93 62.44 124.45 64.26L124.31 64.12L124.30 64.11Q124.01 65.33 124.13 66.54L124.24 66.65L124.14 66.55Q122.64 66.32 119.38 65.18L119.37 65.17L119.20 65.00Q119.00 62.49 119.06 61.16L118.99 61.10L118.95 61.06Q119.08 58.59 120.78 57.50L120.85 57.57L120.83 57.55Q123.04 56.56 125.58 56.56L125.62 56.59L125.59 56.56Q130.63 56.53 135.65 56.95L135.73 57.02L135.63 56.92Q143.83 57.75 143.35 63.74L143.25 63.64L143.28 63.67Q143.24 66.10 142.45 68.58L142.30 68.43L142.31 68.45Q140.99 73.48 137.24 74.93L137.10 74.80L137.11 74.80Q141.27 75.63 142.24 80.96L142.30 81.02L142.36 81.08Q142.56 82.73 142.68 85.94L142.79 86.05L142.71 85.97Q142.93 93.02 135.61 93.75L135.78 93.92L135.79 93.93Q134.60 94.02 126.19 94.44ZM134.41 97.94L134.50 98.02L134.38 97.91Q135.31 97.92 139.84 98.05L139.91 98.11L139.92 98.13Q142.66 98.20 145.27 97.17L145.34 97.25L145.27 97.18Q147.11 95.63 146.81 92.85L146.91 92.95L146.92 92.96Q146.72 90.83 146.24 88.04L146.15 87.96L146.27 88.08Q145.06 80.87 141.97 78.27L142.09 78.39L141.68 77.68L141.55 77.49L141.53 77.47Q144.44 75.29 145.65 68.34L145.69 68.38L145.66 68.34Q145.64 67.54 145.82 66.02L145.87 66.08L145.87 66.07Q145.95 64.82 145.83 63.73L145.90 63.80L145.87 63.78Q145.58 61.06 143.52 59.97L143.50 59.95L143.45 60.02L143.51 60.09Q142.88 58.37 141.07 57.52L141.08 57.53L141.20 57.66Q138.80 56.58 130.63 56.10L130.50 55.97L130.62 56.09Q127.98 55.99 125.44 55.99L125.35 55.90L125.27 55.83Q122.77 55.86 120.35 56.89L120.38 56.92L120.29 56.83Q118.52 58.21 118.52 60.99L118.37 60.84L118.47 60.94Q118.41 60.21 118.83 65.54L118.95 65.65L118.91 65.62Q119.26 65.61 121.87 66.57L122.05 66.76L121.98 66.68Q121.88 67.44 121.82 68.23L121.98 68.38L121.98 68.39Q121.80 68.99 121.86 69.84L121.98 69.95L121.96 69.93Q124.72 70.46 127.92 70.64L127.92 70.63L127.98 70.69Q127.93 67.56 129.68 66.22L129.60 66.14L129.60 66.14Q131.05 65.23 134.26 64.87L134.27 64.88L134.19 64.80Q135.93 64.72 136.83 65.03L136.94 65.13L136.98 65.17Q136.91 65.22 136.97 65.41L136.93 65.36L136.98 65.71L137.25 66.72L137.24 66.70Q137.17 66.93 137.11 67.17L137.20 67.27L137.21 67.27Q136.97 69.88 134.55 71.76L134.65 71.86L134.67 71.88Q133.23 73.35 130.03 73.65L129.87 73.49L130.04 73.66Q128.71 73.72 127.31 73.72L127.31 73.72L127.45 73.85Q127.43 74.31 127.67 75.40L127.67 75.40L127.67 75.41Q130.58 75.53 132.88 76.68L132.78 76.59L132.67 76.65L130.20 76.97L130.04 76.80Q130.28 77.53 130.46 78.50L130.36 78.39L130.45 78.49Q133.72 78.24 136.44 80.36L136.48 80.40L136.50 80.43Q136.80 80.97 137.29 83.57L137.32 83.60L137.25 83.53Q137.63 88.27 132.97 88.94L132.95 88.91L132.95 88.91Q129.59 89.30 128.68 89.24L128.77 89.34L128.68 89.24Q128.08 89.18 127.23 89.06L127.17 89.00L127.24 88.34L127.37 87.57L127.40 86.93L127.39 86.38L127.49 86.47Q126.04 86.66 124.76 86.96L124.69 86.89L124.77 86.97Q124.54 86.43 124.54 86.13L124.64 86.23L124.67 86.26Q124.78 86.01 124.78 85.64L124.67 85.53L124.70 85.56Q124.84 84.97 125.08 83.82L124.95 83.70L125.04 83.78Q121.98 84.05 119.02 84.60L119.09 84.67L119.00 84.58Q119.08 85.45 118.90 87.24L118.84 87.18L118.89 87.22Q118.77 89.07 118.77 90.04L118.74 90.01L118.76 90.03Q118.72 93.13 120.90 94.34L121.09 94.54L121.06 94.51Q123.30 98.02 130.81 97.72L130.78 97.69L130.94 97.85Q132.01 97.71 134.43 97.96Z"/><path d="M15 69 C183 13,184 133,329 40" stroke="#dada6c" fill="none"/></svg>