<svg xmlns="http://www.w3.org/2000/svg" width="342" height="140" viewBox="0,0,342,140"><path d="M17 81 C171 28,156 46,330 74" stroke="#eb6a6a" fill="none"/><path d="M13 37 C161 95,166 33,323 62" stroke="#de58bc" fill="none"/><path d="M11 53 C175 86,170 33,326 57" stroke="#d58aee" fill="none"/><path d="M19 2 C170 29,188 20,338 133" stroke="#4ede4e" fill="none"/><path d="M18 125 C153 24,165 24,340 66" stroke="#d2e890" fill="none"/><path d="M7 60 C180 48,156 4,326 99" stroke="#9e57e4" fill="none"/><path d="M12 49 C189 128,188 81,337 7" stroke="#60dcbd" fill="none"/><path d="M11 82 C186 20,160 60,326 119" stroke="#d65172" fill="none"/><path d="M8 83 C185 104,156 87,334 15" stroke="#a0e65a" fill="none"/><path d="M16 126 C151 55,177 50,332 129" stroke="#7c98ed" fill="none"/><path d="M9 129 C180 109,159 119,331 128" stroke="#3be6bc" fill="none"/><path d="M9 32 C156 54,159 56,333 123" stroke="#7251d6" fill="none"/><path d="M19 108 C189 111,155 53,333 110" stroke="#6ce48a" fill="none"/><path d="M4 88 C174 37,162 70,323 42" stroke="#d64c6e" fill="none"/><path d="M11 105 C151 70,158 33,338 110" stroke="#3d8cdb" fill="none"/><path d="M1 26 C175 106,178 130,335 124" stroke="#d34f91" fill="none"/><path d="M6 128 C151 131,156 128,324 94" stroke="#99e849" fill="none"/><path d="M11 103 C190 26,181 32,335 2" stroke="#e4859d" fill="none"/><path d="M6 27 C187 96,174 84,331 23" stroke="#73eccd" fill="none"/><path fill="#a5e490" d="M164.31 77.88L164.30 77.87L164.22 77.79Q160.75 77.59 158.39 80.32L158.51 80.44L158.47 80.40Q156.10 83.13 155.74 86.76L155.78 86.80L155.63 86.66Q155.33 90.72 157.40 92.57L157.35 92.52L157.42 92.59Q159.38 94.33 163.38 94.11L163.49 94.23L163.51 94.24Q167.33 93.77 169.44 92.46L169.60 92.62L169.46 92.48Q171.68 90.41 171.68 87.43L171.78 87.53L171.63 87.38Q171.66 86.68 171.51 85.95L171.64 86.08L171.65 86.08Q171.69 82.78 169.58 80.20L169.51 80.13L169.68 80.30Q167.45 77.59 164.25 77.81ZM163.46 99.07L163.50 99.11L163.40 99.01Q155.10 99.07 152.41 97.62L152.39 97.60L152.51 97.72Q150.51 96.23 150.15 92.95L150.01 92.81L150.06 92.87Q150.06 91.63 150.13 90.25L150.06 90.18L150.06 90.17Q150.26 88.26 150.26 87.39L150.26 87.39L150.42 87.55Q151.19 82.00 151.48 80.69L151.57 80.77L151.49 80.69Q152.27 76.89 153.87 74.20L154.01 74.34L153.94 74.27Q159.09 65.97 170.44 53.82L170.38 53.76L170.37 53.75Q175.51 53.21 179.73 51.69L179.66 51.62L179.70 51.66Q166.60 65.91 160.49 73.98L160.51 74.00L160.54 74.03Q162.46 73.12 164.94 73.12L164.97 73.15L164.88 73.06Q171.19 73.04 174.10 76.75L174.14 76.80L174.16 76.81Q176.73 79.96 177.38 86.73L177.27 86.62L177.37 86.72Q177.53 88.11 177.53 89.27L177.38 89.13L177.53 89.28Q177.54 95.25 173.32 97.29L173.21 97.18L173.26 97.23Q170.92 98.38 163.51 99.11ZM167.88 103.70L167.94 103.76L167.76 103.59Q170.31 103.59 174.09 103.74L174.05 103.70L174.07 103.71Q177.27 103.93 180.26 102.55L180.16 102.46L180.27 102.57Q182.35 101.00 182.35 97.58L182.30 97.54L182.36 97.59Q182.32 96.62 182.00 94.72L182.07 94.80L181.90 94.63Q181.72 92.88 181.72 92.01L181.61 91.91L181.68 91.98Q179.98 82.92 176.92 79.29L177.03 79.40L176.98 79.34Q176.87 79.16 176.58 78.72L176.53 78.68L175.95 78.24L175.71 78.07L175.84 78.21Q175.22 77.30 174.06 75.48L174.00 75.42L173.95 75.37Q172.20 73.55 168.42 72.67L168.52 72.78L168.47 72.73Q170.78 69.65 176.45 62.60L176.44 62.59L184.47 52.43L184.49 52.45Q181.49 54.10 176.91 55.56L176.94 55.59L176.90 55.55Q178.74 53.76 182.16 49.97L182.11 49.92L182.07 49.88Q177.53 51.96 170.11 53.05L170.12 53.07L170.03 52.97Q159.28 64.41 153.60 73.86L153.58 73.84L153.45 73.71Q150.64 78.61 149.55 90.54L149.54 90.53L149.47 90.46Q149.45 91.67 149.59 93.49L149.54 93.43L149.45 93.34Q149.75 96.85 151.86 98.59L151.80 98.54L151.85 98.59Q152.58 98.88 152.51 98.96L152.52 98.96L152.48 98.92Q153.13 100.59 154.66 101.39L154.60 101.34L154.64 101.38Q157.54 102.82 161.25 103.19L161.19 103.13L161.20 103.13Q161.14 103.08 167.84 103.66ZM167.36 82.16L167.47 82.27L167.51 82.31Q168.43 81.92 170.25 82.87L170.36 82.98L170.40 83.02Q170.90 84.68 170.90 85.92L171.06 86.08L171.03 86.05Q171.25 89.47 169.43 91.36L169.47 91.40L169.48 91.41Q167.40 92.75 163.40 93.33L163.50 93.44L163.52 93.46Q160.82 93.52 159.80 93.01L159.61 92.81L159.68 92.89Q159.32 92.02 159.32 91.44L159.27 91.39L159.34 91.45Q158.82 85.12 164.42 82.64L164.47 82.69L164.55 82.77Q165.92 82.03 167.38 82.18Z"/><path d="M17 131 C177 81,171 108,321 69" stroke="#99d75a" fill="none"/><path d="M7 57 C190 11,179 55,340 44" stroke="#80dfaf" fill="none"/><path d="M20 23 C152 33,179 35,338 47" stroke="#a0e688" fill="none"/><path d="M12 85 C154 126,159 88,325 67" stroke="#63a8ec" fill="none"/><path d="M6 106 C169 70,192 117,330 73" stroke="#75ea92" fill="none"/><path d="M18 17 C189 18,156 39,337 80" stroke="#aae174" fill="none"/><path fill="#8aa1e4" d="M285.03 74.09L285.09 74.16L285.08 74.15Q286.53 74.07 289.23 73.78L289.40 73.95L289.28 73.84Q289.18 75.05 289.18 76.28L289.26 76.36L289.23 78.74L289.17 78.67Q287.65 78.75 286.05 78.90L286.01 78.86L285.99 78.84Q284.40 78.92 282.79 78.85L282.79 78.84L282.88 78.93Q277.44 90.73 270.89 99.53L270.87 99.51L270.79 99.43Q265.95 100.63 263.48 101.79L263.54 101.85L263.59 101.90Q271.42 90.97 277.24 78.97L277.15 78.88L272.21 78.95L272.18 78.92Q272.20 76.39 271.98 73.85L271.99 73.86L271.92 73.79Q275.65 74.17 279.57 74.17L279.62 74.21L283.24 67.14L283.20 67.11Q285.09 63.46 287.42 60.41L287.50 60.50L287.38 60.37Q284.40 60.67 281.35 60.67L281.35 60.66L281.34 60.66Q269.80 60.76 262.60 56.54L262.62 56.56L261.38 53.28L261.20 53.10Q260.57 51.53 259.85 49.86L260.00 50.01L259.84 49.85Q268.30 55.03 279.21 55.47L279.08 55.34L279.08 55.34Q289.00 55.88 298.81 52.09L298.74 52.02L298.67 51.94Q298.42 52.86 297.47 54.53L297.37 54.44L297.49 54.55Q290.47 63.53 285.01 74.08ZM300.51 57.13L300.51 57.14L302.43 53.31L302.43 53.31Q300.53 54.17 297.33 55.55L297.34 55.56L297.74 55.02L297.74 55.02Q298.02 54.79 298.24 54.57L298.09 54.43L298.11 54.45Q298.80 53.10 300.18 50.55L300.25 50.62L300.32 50.69Q290.10 55.01 279.11 54.58L279.17 54.63L279.09 54.55Q267.53 53.97 258.43 48.30L258.46 48.33L258.56 48.42Q260.49 51.95 262.09 57.04L262.12 57.08L262.15 57.11Q264.21 58.29 265.73 58.87L265.69 58.83L265.75 58.89Q266.11 59.61 266.98 63.18L266.99 63.19L266.90 63.09Q272.85 65.41 283.40 65.12L283.40 65.12L283.48 65.20Q282.82 66.21 279.03 73.41L279.09 73.46L279.05 73.43Q275.29 73.59 271.50 73.23L271.40 73.12L271.39 73.11Q271.47 74.65 271.47 76.32L271.54 76.40L271.46 79.58L274.66 79.58L274.70 82.31L274.84 82.46Q267.32 96.54 262.01 103.38L262.03 103.40L261.89 103.26Q265.07 101.92 268.20 100.98L268.18 100.97L268.13 100.91Q266.82 102.66 264.20 105.93L264.29 106.02L264.23 105.96Q270.15 103.74 274.81 103.30L274.94 103.43L274.90 103.39Q280.51 96.20 286.48 83.25L286.45 83.22L292.97 83.57L292.94 83.54Q292.81 81.80 292.81 80.05L292.84 80.09L292.79 76.62L292.92 76.75Q292.25 76.59 291.20 76.67L291.25 76.72L291.30 76.76Q290.16 76.75 289.65 76.75L289.71 76.81L289.70 76.80Q289.80 76.68 289.87 76.39L289.87 76.39L289.84 75.85L289.74 75.75Q294.58 65.97 300.47 57.10Z"/><path d="M1 123 C153 34,170 133,341 63" stroke="#ba88eb" fill="none"/><path d="M1 139 C151 21,166 56,336 15" stroke="#e86284" fill="none"/><path d="M10 117 C166 85,175 65,335 94" stroke="#d7f08e" fill="none"/><path d="M6 64 C167 109,160 13,340 26" stroke="#77cce8" fill="none"/><path fill="#83e6e6" d="M50.98 77.88L51.04 77.94L51.01 77.91Q47.40 77.57 45.03 80.30L45.01 80.27L45.19 80.45Q42.82 83.17 42.46 86.81L42.43 86.79L42.31 86.66Q41.96 90.68 44.03 92.53L44.04 92.54L43.97 92.47Q46.16 94.45 50.16 94.23L50.17 94.24L50.15 94.21Q54.04 93.81 56.15 92.50L56.20 92.55L56.27 92.62Q58.43 90.50 58.43 87.51L58.33 87.41L58.34 87.42Q58.44 86.79 58.29 86.07L58.23 86.00L58.14 85.91Q58.31 82.74 56.20 80.16L56.29 80.24L56.28 80.23Q54.21 77.69 51.01 77.91ZM50.22 99.16L50.07 99.01L50.13 99.07Q41.72 99.02 39.02 97.57L39.18 97.72L39.09 97.64Q37.16 96.21 36.80 92.94L36.80 92.94L36.72 92.86Q36.72 91.63 36.80 90.24L36.86 90.31L36.85 90.30Q37.05 88.39 37.05 87.52L37.03 87.50L37.02 87.49Q37.89 82.02 38.18 80.71L38.10 80.64L38.22 80.76Q39.00 76.96 40.60 74.26L40.55 74.21L40.69 74.35Q45.75 65.96 57.10 53.81L57.00 53.71L57.09 53.80Q62.16 53.20 66.38 51.67L66.41 51.70L66.43 51.72Q53.25 65.89 47.14 73.97L47.23 74.06L47.08 73.91Q49.08 73.07 51.55 73.07L51.51 73.03L51.54 73.06Q57.95 73.13 60.86 76.84L60.83 76.82L60.81 76.80Q63.36 79.93 64.02 86.70L63.91 86.59L64.05 86.73Q64.14 88.05 64.14 89.22L64.17 89.25L64.03 89.11Q64.06 95.10 59.84 97.14L59.95 97.25L59.85 97.15Q57.52 98.32 50.11 99.04ZM54.58 103.74L54.43 103.59L54.59 103.74Q56.99 103.60 60.77 103.74L60.78 103.76L60.74 103.72Q63.98 103.97 66.96 102.59L66.79 102.42L66.80 102.43Q68.94 100.93 68.94 97.51L68.99 97.56L69.02 97.59Q69.03 96.66 68.71 94.77L68.70 94.76L68.68 94.75Q68.28 92.78 68.28 91.91L68.34 91.96L68.39 92.01Q66.63 82.91 63.58 79.28L63.57 79.27L63.63 79.33Q63.52 79.14 63.23 78.71L63.25 78.73L62.63 78.26L62.43 78.12L62.49 78.19Q61.89 77.30 60.73 75.48L60.55 75.30L60.72 75.47Q58.79 73.47 55.01 72.60L55.14 72.73L55.07 72.66Q57.49 69.70 63.17 62.64L63.11 62.59L71.14 52.43L71.14 52.43Q68.25 54.19 63.66 55.65L63.62 55.60L63.51 55.50Q65.32 53.67 68.74 49.89L68.85 50.00L68.83 49.98Q64.19 51.96 56.77 53.05L56.84 53.11L56.72 53.00Q45.95 64.41 40.27 73.86L40.18 73.77L40.11 73.70Q37.21 78.51 36.12 90.44L36.28 90.60L36.28 90.61Q36.07 91.63 36.22 93.45L36.13 93.36L36.11 93.34Q36.29 96.72 38.40 98.47L38.49 98.56L38.38 98.45Q39.18 98.82 39.11 98.89L39.18 98.96L39.00 98.78Q39.76 100.56 41.29 101.36L41.33 101.40L41.32 101.39Q44.04 102.65 47.75 103.01L47.83 103.10L47.86 103.13Q47.80 103.06 54.49 103.65ZM54.03 82.16L53.99 82.13L54.13 82.27Q55.14 81.97 56.96 82.91L57.07 83.02L56.90 82.86Q57.63 84.75 57.63 85.99L57.64 85.99L57.56 85.92Q58.07 89.63 56.26 91.52L56.16 91.42L56.12 91.39Q54.07 92.75 50.07 93.33L50.15 93.42L50.18 93.45Q47.33 93.36 46.31 92.85L46.45 92.99L46.37 92.91Q46.02 92.05 46.02 91.47L45.94 91.39L46.02 91.46Q45.56 85.19 51.16 82.72L51.09 82.65L51.25 82.80Q52.71 82.15 54.16 82.30Z"/><path d="M13 98 C191 25,182 85,335 110" stroke="#d2ef7a" fill="none"/><path fill="#b7e985" d="M101.47 99.30L101.57 99.40L101.52 99.35Q98.69 99.37 95.71 98.57L95.74 98.60L95.73 98.58Q93.46 96.90 93.17 93.77L93.10 93.70L93.11 93.72Q93.05 93.37 93.42 88.35L93.57 88.50L93.41 88.34Q95.49 88.09 99.34 87.36L99.28 87.30L98.85 88.69L99.02 88.85Q98.43 92.12 101.12 93.21L101.17 93.26L101.17 93.26Q102.73 93.94 106.73 93.94L106.64 93.85L106.69 93.91Q109.73 93.60 110.09 93.45L109.97 93.33L109.99 93.35Q111.81 93.14 113.19 92.19L113.18 92.18L113.14 92.14Q115.90 90.39 115.53 86.39L115.53 86.38L115.58 86.43Q115.22 81.78 111.91 78.80L111.75 78.63L111.78 78.67Q108.47 75.68 103.74 75.68L103.87 75.81L103.72 75.23L103.75 75.25Q104.44 75.15 106.12 75.00L106.25 75.14L106.28 75.17Q109.80 74.83 112.42 72.47L112.40 72.45L112.37 72.42Q115.08 70.14 115.37 66.58L115.33 66.54L115.29 66.50Q115.49 65.91 115.49 65.25L115.51 65.27L115.44 65.20Q115.44 62.28 112.82 60.54L112.87 60.59L112.90 60.62Q110.47 58.99 107.41 59.21L107.47 59.26L107.51 59.30Q104.95 58.93 102.62 59.73L102.71 59.82L102.64 59.75Q99.93 60.82 99.35 63.00L99.46 63.11L99.32 62.97Q98.92 64.39 99.07 65.84L99.13 65.91L99.09 65.87Q97.27 65.58 93.35 64.20L93.31 64.17L93.34 64.19Q92.73 60.81 92.80 59.21L92.87 59.29L92.87 59.29Q93.20 56.49 95.24 55.18L95.07 55.01L95.07 55.01Q97.77 53.85 100.82 53.85L100.99 54.02L100.85 53.88Q106.84 53.76 112.87 54.27L112.91 54.31L113.00 54.39Q122.59 55.11 122.01 62.31L122.00 62.30L122.07 62.37Q121.93 65.21 120.98 68.19L120.98 68.19L120.96 68.17Q119.15 74.00 114.64 75.74L114.74 75.85L114.65 75.76Q119.68 76.79 120.85 83.19L120.88 83.22L120.97 83.31Q121.40 85.48 121.54 89.34L121.52 89.31L121.48 89.28Q121.68 97.69 112.88 98.57L112.99 98.68L112.88 98.57Q111.49 98.71 101.38 99.22ZM111.44 103.60L111.52 103.68L111.53 103.70Q112.52 103.59 117.97 103.74L118.07 103.83L118.02 103.78Q121.45 104.01 124.58 102.77L124.44 102.64L124.46 102.66Q126.81 100.93 126.44 97.58L126.49 97.63L126.38 97.53Q126.23 95.05 125.65 91.70L125.53 91.58L125.67 91.72Q124.23 83.08 120.52 79.95L120.58 80.01L120.21 79.28L120.17 79.17L120.19 79.18Q123.35 76.23 124.80 67.87L124.94 68.00L124.80 67.87Q124.97 67.09 125.19 65.27L125.21 65.29L125.14 65.22Q125.42 63.90 125.27 62.59L125.20 62.52L125.20 62.51Q124.94 59.35 122.47 58.04L122.39 57.96L122.38 58.09L122.25 57.97Q121.73 56.14 119.55 55.12L119.56 55.14L119.59 55.16Q116.51 53.69 106.69 53.10L106.76 53.17L106.70 53.11Q103.61 53.08 100.56 53.08L100.61 53.13L100.47 53.00Q97.53 53.10 94.62 54.34L94.67 54.39L94.65 54.37Q92.19 55.69 92.19 59.04L92.25 59.10L92.29 59.14Q92.27 58.32 92.78 64.72L92.79 64.73L92.78 64.72Q93.39 64.90 96.52 66.06L96.48 66.02L96.54 66.08Q96.38 66.94 96.30 67.88L96.45 68.03L96.30 67.88Q96.38 68.91 96.45 69.92L96.40 69.87L96.49 69.96Q99.90 70.67 103.75 70.89L103.82 70.96L103.82 70.96Q103.65 67.08 105.76 65.48L105.75 65.48L105.65 65.37Q107.35 64.24 111.21 63.80L111.08 63.67L111.23 63.82Q113.41 63.82 114.50 64.18L114.39 64.08L114.51 64.19Q114.46 64.29 114.54 64.51L114.52 64.49L114.52 64.86L114.78 65.99L114.80 66.01Q114.82 66.40 114.75 66.69L114.62 66.55L114.68 66.62Q114.50 69.86 111.59 72.11L111.73 72.25L111.57 72.09Q109.98 73.99 106.12 74.36L106.00 74.23L106.04 74.27Q104.65 74.56 102.98 74.56L103.08 74.65L103.08 74.65Q103.15 75.31 103.44 76.62L103.42 76.60L103.45 76.63Q106.72 76.55 109.48 77.93L109.42 77.87L109.33 78.00L106.32 78.33L106.23 78.25Q106.28 78.87 106.49 80.04L106.52 80.06L106.64 80.18Q110.65 79.98 113.93 82.52L113.91 82.51L113.97 82.57Q114.27 83.16 114.85 86.29L114.92 86.36L114.86 86.29Q115.26 91.93 109.65 92.73L109.67 92.74L109.76 92.83Q105.65 93.23 104.56 93.16L104.58 93.18L104.52 93.11Q103.80 93.06 102.78 92.91L102.64 92.77L102.77 92.02L102.96 91.12L102.95 90.32L103.11 89.82L103.06 89.77Q101.34 90.02 99.82 90.38L99.76 90.32L99.64 90.21Q99.71 89.91 99.71 89.55L99.67 89.50L99.58 89.42Q99.70 89.10 99.70 88.67L99.83 88.79L99.81 88.77Q99.74 87.83 100.03 86.45L100.02 86.44L100.04 86.46Q96.45 86.86 92.88 87.52L92.97 87.60L92.95 87.59Q92.99 88.57 92.77 90.72L92.69 90.64L92.68 90.62Q92.59 92.90 92.59 94.06L92.53 94.00L92.52 93.99Q92.66 97.92 95.28 99.37L95.36 99.45L95.25 99.34Q98.15 103.77 107.17 103.40L107.20 103.44L107.24 103.47Q108.57 103.35 111.48 103.64Z"/><path d="M9 125 C182 58,189 100,332 102" stroke="#8fe4a4" fill="none"/><path d="M14 92 C179 14,180 2,327 133" stroke="#95e9e9" fill="none"/><path d="M3 80 C189 135,185 19,324 83" stroke="#72d651" fill="none"/><path d="M21 19 C186 62,167 16,340 6" stroke="#8ee5a4" fill="none"/><path d="M8 35 C186 82,191 115,338 66" stroke="#7ccde8" fill="none"/><path d="M15 125 C172 26,157 55,341 64" stroke="#d94e4e" fill="none"/><path d="M16 57 C173 38,191 26,331 18" stroke="#a7ef8f" fill="none"/><path fill="#9be551" d="M214.91 99.41L214.74 99.24L214.77 99.27Q212.16 99.50 209.18 98.70L209.20 98.72L209.13 98.65Q206.74 96.85 206.45 93.72L206.46 93.73L206.50 93.77Q206.41 93.38 206.77 88.36L206.76 88.35L206.80 88.39Q208.76 88.02 212.61 87.30L212.59 87.28L212.33 88.84L212.23 88.74Q211.71 92.07 214.40 93.16L214.36 93.12L214.38 93.14Q215.98 93.86 219.98 93.86L219.92 93.81L219.88 93.76Q223.10 93.64 223.47 93.50L223.36 93.39L223.35 93.38Q225.22 93.21 226.60 92.27L226.45 92.12L226.54 92.21Q229.25 90.40 228.88 86.40L228.76 86.28L228.80 86.32Q228.47 81.70 225.16 78.72L225.15 78.70L225.10 78.65Q221.82 75.70 217.09 75.70L217.10 75.71L217.05 75.23L217.05 75.23Q217.84 75.21 219.51 75.07L219.62 75.17L219.63 75.18Q223.19 74.89 225.81 72.52L225.73 72.45L225.79 72.51Q228.35 70.08 228.64 66.52L228.66 66.54L228.61 66.48Q228.85 65.92 228.85 65.27L228.84 65.26L228.94 65.36Q228.79 62.30 226.17 60.56L226.28 60.66L226.19 60.58Q223.93 59.11 220.87 59.33L220.85 59.31L220.92 59.38Q218.43 59.07 216.10 59.87L216.07 59.84L216.08 59.85Q213.36 60.91 212.78 63.09L212.72 63.04L212.64 62.95Q212.30 64.44 212.45 65.89L212.41 65.85L212.49 65.93Q210.43 65.41 206.51 64.02L206.52 64.03L206.55 64.07Q206.20 60.95 206.27 59.35L206.26 59.34L206.31 59.39Q206.42 56.37 208.46 55.06L208.46 55.06L208.54 55.15Q211.17 53.92 214.22 53.92L214.19 53.89L214.24 53.94Q220.30 53.88 226.33 54.39L226.26 54.32L226.26 54.32Q236.06 55.24 235.47 62.44L235.49 62.45L235.30 62.27Q235.30 65.25 234.35 68.23L234.32 68.19L234.30 68.18Q232.64 74.15 228.13 75.90L228.04 75.81L228.14 75.91Q232.97 76.74 234.13 83.14L234.17 83.18L234.25 83.26Q234.72 85.47 234.87 89.33L234.74 89.20L234.83 89.29Q235.02 97.70 226.22 98.58L226.35 98.70L226.26 98.61Q224.90 98.78 214.79 99.29ZM224.70 103.53L224.76 103.59L224.70 103.53Q226.02 103.76 231.48 103.91L231.31 103.74L231.43 103.85Q234.65 103.88 237.78 102.64L237.94 102.81L237.95 102.81Q240.08 100.87 239.72 97.53L239.69 97.50L239.80 97.61Q239.53 95.01 238.95 91.67L238.94 91.66L239.03 91.74Q237.64 83.15 233.93 80.02L233.85 79.95L233.51 79.24L233.45 79.11L233.49 79.15Q236.79 76.34 238.24 67.97L238.31 68.04L238.27 68.01Q238.40 67.19 238.62 65.37L238.44 65.19L238.60 65.35Q238.68 63.83 238.54 62.52L238.43 62.42L238.44 62.43Q238.19 59.27 235.72 57.96L235.69 57.93L235.66 58.04L235.64 58.03Q235.09 56.16 232.90 55.14L232.83 55.07L232.86 55.10Q230.01 53.85 220.19 53.27L220.14 53.22L220.15 53.23Q216.87 53.01 213.82 53.01L213.80 52.99L213.87 53.06Q210.84 53.08 207.93 54.32L207.97 54.36L207.90 54.29Q205.58 55.75 205.58 59.10L205.66 59.18L205.65 59.16Q205.49 58.21 206.00 64.61L206.07 64.68L206.04 64.65Q206.57 64.74 209.70 65.91L209.70 65.91L209.86 66.07Q209.79 67.01 209.71 67.96L209.80 68.04L209.69 67.93Q209.79 68.98 209.87 70.00L209.81 69.95L209.75 69.89Q213.12 70.56 216.97 70.78L217.05 70.86L217.15 70.96Q216.87 66.97 218.98 65.37L219.05 65.44L218.95 65.34Q220.71 64.26 224.56 63.82L224.54 63.80L224.54 63.80Q226.66 63.74 227.75 64.10L227.81 64.16L227.76 64.11Q227.77 64.27 227.85 64.49L227.85 64.49L227.92 64.93L228.22 66.09L228.09 65.97Q228.21 66.45 228.13 66.74L228.05 66.66L228.11 66.71Q227.95 69.97 225.04 72.22L225.00 72.19L225.01 72.20Q223.30 73.98 219.44 74.34L219.39 74.29L219.44 74.34Q217.95 74.52 216.28 74.52L216.43 74.67L216.37 74.61Q216.42 75.25 216.72 76.56L216.69 76.53L216.60 76.45Q220.04 76.53 222.80 77.92L222.80 77.92L222.50 77.83L219.71 78.39L219.71 78.39Q219.64 78.90 219.86 80.07L219.86 80.07L219.89 80.10Q223.88 79.87 227.15 82.41L227.34 82.60L227.22 82.49Q227.74 83.29 228.32 86.42L228.30 86.40L228.19 86.29Q228.54 91.88 222.94 92.68L223.07 92.81L222.97 92.71Q218.95 93.20 217.86 93.13L218.01 93.28L217.93 93.20Q216.99 92.92 215.98 92.77L216.14 92.93L215.96 91.88L216.18 91.01L216.29 90.32L216.44 89.81L216.40 89.78Q214.57 89.90 213.04 90.27L213.06 90.29L212.99 90.22Q213.08 89.94 213.08 89.58L212.94 89.44L213.09 89.59Q213.04 89.11 213.04 88.67L213.09 88.72L213.09 88.72Q213.12 87.87 213.41 86.49L213.51 86.59L213.51 86.59Q209.88 86.96 206.31 87.62L206.35 87.65L206.30 87.60Q206.30 88.55 206.08 90.69L206.10 90.72L206.12 90.73Q205.84 92.82 205.84 93.98L205.77 93.91L205.87 94.01Q205.94 97.86 208.56 99.32L208.58 99.34L208.56 99.32Q211.43 103.72 220.45 103.36L220.42 103.32L220.42 103.32Q221.86 103.31 224.77 103.60Z"/><path d="M14 10 C181 94,154 5,333 103" stroke="#ec7db5" fill="none"/><path d="M10 103 C150 19,172 134,330 106" stroke="#a36adc" fill="none"/><path d="M19 2 C172 95,155 97,333 14" stroke="#6ee2e2" fill="none"/></svg>