<svg xmlns="http://www.w3.org/2000/svg" width="342" height="140" viewBox="0,0,342,140"><path d="M10 4 C174 100,177 111,326 10" stroke="#83e183" fill="none"/><path d="M20 1 C187 80,179 136,338 129" stroke="#e8c458" fill="none"/><path d="M9 88 C174 112,180 119,327 36" stroke="#78dddd" fill="none"/><path d="M9 42 C164 65,153 59,325 46" stroke="#cce877" fill="none"/><path d="M16 91 C181 49,186 128,334 80" stroke="#8282e2" fill="none"/><path d="M12 8 C191 120,174 20,331 116" stroke="#6262d9" fill="none"/><path d="M12 89 C191 30,187 129,330 94" stroke="#6faae6" fill="none"/><path d="M21 3 C189 6,191 128,332 126" stroke="#51e59b" fill="none"/><path d="M13 13 C188 64,160 61,331 75" stroke="#dfc470" fill="none"/><path d="M15 71 C175 85,186 128,340 88" stroke="#da5c5c" fill="none"/><path d="M18 21 C161 55,158 18,326 34" stroke="#e29278" fill="none"/><path d="M18 131 C164 121,171 16,331 89" stroke="#88df6b" fill="none"/><path fill="#d99653" d="M125.53 95.70L125.55 95.72L125.68 95.85Q123.26 95.92 120.64 95.21L120.63 95.21L120.62 95.20Q118.62 93.71 118.37 90.97L118.25 90.85L118.20 90.80Q118.16 90.50 118.48 86.09L118.61 86.22L118.47 86.08Q120.34 85.90 123.72 85.26L123.63 85.18L123.27 86.41L123.40 86.54Q122.81 89.33 125.17 90.29L125.23 90.35L125.17 90.29Q126.56 90.91 130.07 90.91L130.13 90.97L130.22 91.06Q132.71 90.61 133.03 90.48L133.03 90.48L133.22 90.67Q134.69 90.36 135.91 89.52L135.89 89.51L135.85 89.47Q138.22 87.88 137.90 84.36L137.91 84.37L137.98 84.44Q137.65 80.34 134.74 77.72L134.73 77.71L134.59 77.57Q131.87 75.14 127.72 75.14L127.60 75.02L127.67 74.71L127.60 74.64Q128.34 74.67 129.81 74.54L129.74 74.48L129.70 74.44Q132.97 74.31 135.27 72.24L135.21 72.18L135.24 72.22Q137.54 70.13 137.79 67.00L137.71 66.92L137.84 67.05Q137.84 66.34 137.84 65.77L137.89 65.82L138.00 65.93Q137.86 63.24 135.56 61.70L135.66 61.80L135.57 61.71Q133.66 60.50 130.97 60.69L130.82 60.54L130.99 60.70Q128.77 60.40 126.72 61.11L126.66 61.05L126.64 61.02Q124.20 61.91 123.69 63.83L123.66 63.80L123.70 63.83Q123.36 65.10 123.49 66.37L123.57 66.46L123.57 66.45Q121.75 65.97 118.30 64.76L118.26 64.72L118.43 64.89Q118.08 62.11 118.14 60.71L117.96 60.52L118.06 60.62Q118.23 58.04 120.01 56.89L119.96 56.83L119.97 56.84Q122.30 55.79 124.98 55.79L125.17 55.98L125.03 55.84Q130.43 55.87 135.74 56.32L135.67 56.25L135.64 56.22Q144.09 56.87 143.57 63.20L143.68 63.30L143.64 63.27Q143.64 65.88 142.81 68.50L142.67 68.36L142.79 68.48Q141.26 73.66 137.30 75.20L137.28 75.17L137.31 75.21Q141.59 75.97 142.61 81.60L142.59 81.57L142.73 81.71Q142.94 83.45 143.06 86.84L143.12 86.89L143.17 86.95Q143.38 94.38 135.65 95.15L135.75 95.25L135.67 95.17Q134.41 95.25 125.53 95.70ZM134.31 99.49L134.34 99.52L134.40 99.59Q135.33 99.55 140.12 99.68L140.24 99.80L140.22 99.78Q143.12 99.87 145.87 98.79L145.86 98.77L145.83 98.74Q147.82 97.15 147.50 94.22L147.54 94.25L147.57 94.28Q147.22 91.89 146.71 88.95L146.90 89.14L146.73 88.97Q145.56 81.48 142.30 78.73L142.38 78.81L142.07 78.17L141.95 78.00L141.92 77.96Q144.86 75.53 146.14 68.19L146.22 68.27L146.20 68.25Q146.20 67.42 146.39 65.82L146.37 65.80L146.44 65.87Q146.51 64.53 146.38 63.38L146.41 63.41L146.36 63.36Q146.24 60.68 144.06 59.53L144.02 59.49L143.82 59.41L143.91 59.51Q143.39 57.84 141.47 56.94L141.48 56.95L141.50 56.97Q138.94 55.82 130.32 55.30L130.33 55.32L130.18 55.17Q127.41 55.08 124.72 55.08L124.71 55.07L124.85 55.21Q122.17 55.21 119.61 56.29L119.45 56.13L119.53 56.22Q117.47 57.48 117.47 60.42L117.43 60.37L117.41 60.36Q117.46 59.70 117.91 65.33L117.85 65.27L117.83 65.25Q118.41 65.44 121.16 66.47L121.24 66.55L121.27 66.58Q121.08 67.29 121.02 68.12L121.19 68.29L121.02 68.12Q121.18 69.11 121.25 70.01L121.13 69.89L121.14 69.90Q124.22 70.62 127.61 70.81L127.47 70.67L127.49 70.70Q127.38 67.33 129.24 65.92L129.37 66.06L129.28 65.96Q130.75 64.94 134.13 64.55L134.07 64.49L134.07 64.49Q136.02 64.52 136.98 64.84L136.98 64.85L137.06 64.92Q136.95 64.95 137.02 65.14L137.11 65.23L137.07 65.51L137.32 66.53L137.20 66.41Q137.19 66.72 137.13 66.97L137.12 66.96L137.18 67.03Q137.10 69.95 134.54 71.93L134.62 72.01L134.60 71.99Q133.04 73.49 129.65 73.81L129.66 73.82L129.58 73.74Q128.42 74.05 126.95 74.05L126.94 74.04L126.99 74.09Q126.95 74.56 127.21 75.71L127.24 75.74L127.22 75.73Q130.24 75.80 132.66 77.02L132.68 77.03L132.44 76.99L129.81 77.29L129.79 77.28Q129.91 77.90 130.10 78.92L130.13 78.95L130.12 78.94Q133.69 78.80 136.56 81.04L136.50 80.98L136.43 80.91Q136.97 81.70 137.48 84.45L137.43 84.40L137.39 84.36Q137.76 89.33 132.84 90.04L132.90 90.09L132.77 89.97Q129.36 90.51 128.40 90.45L128.41 90.47L128.26 90.31Q127.48 90.10 126.58 89.98L126.76 90.16L126.65 89.28L126.95 88.62L126.89 87.86L127.00 87.39L127.06 87.45Q125.43 87.54 124.08 87.86L124.04 87.81L124.07 87.85Q124.07 87.53 124.07 87.21L124.08 87.22L124.05 87.19Q124.11 86.87 124.11 86.48L124.00 86.38L124.02 86.40Q124.07 85.67 124.32 84.46L124.37 84.51L124.37 84.50Q121.21 84.86 118.08 85.43L118.10 85.46L118.18 85.53Q118.10 86.29 117.91 88.18L117.88 88.15L117.97 88.23Q117.63 89.97 117.63 90.99L117.67 91.04L117.74 91.10Q117.88 94.56 120.18 95.84L120.25 95.91L120.11 95.77Q122.73 99.74 130.66 99.42L130.48 99.24L130.66 99.42Q131.84 99.33 134.40 99.58Z"/><path d="M15 5 C168 22,170 118,341 117" stroke="#7eb5eb" fill="none"/><path d="M15 97 C172 77,166 92,323 99" stroke="#6ec5e2" fill="none"/><path d="M6 27 C188 33,156 67,339 85" stroke="#87b5e2" fill="none"/><path d="M10 126 C182 5,165 76,334 108" stroke="#5576d7" fill="none"/><path d="M15 116 C156 2,150 65,330 43" stroke="#7fe95c" fill="none"/><path d="M9 39 C185 76,160 10,332 55" stroke="#977ee1" fill="none"/><path d="M9 65 C151 91,169 72,341 60" stroke="#58de7a" fill="none"/><path fill="#dfad7b" d="M62.89 76.81L62.99 76.91L63.01 76.93Q59.88 76.67 57.80 79.07L57.93 79.20L57.81 79.08Q55.81 81.55 55.49 84.74L55.42 84.67L55.54 84.79Q54.99 88.08 56.81 89.71L56.88 89.77L56.97 89.87Q58.80 91.50 62.31 91.31L62.16 91.16L62.31 91.31Q65.81 91.04 67.66 89.88L67.63 89.86L67.63 89.86Q69.60 88.05 69.60 85.43L69.59 85.43L69.52 85.35Q69.46 84.65 69.33 84.01L69.33 84.01L69.47 84.15Q69.46 81.21 67.61 78.94L67.55 78.88L67.68 79.01Q65.82 76.73 63.01 76.92ZM62.28 95.56L62.27 95.55L62.36 95.64Q54.93 95.56 52.57 94.28L52.53 94.25L52.55 94.27Q50.87 93.03 50.55 90.16L50.57 90.18L50.43 90.04Q50.50 89.02 50.56 87.80L50.56 87.80L50.57 87.81Q50.76 86.15 50.76 85.38L50.66 85.28L50.72 85.35Q51.50 80.56 51.76 79.41L51.77 79.42L51.84 79.49Q52.55 76.18 53.96 73.82L53.87 73.73L53.89 73.75Q58.32 66.35 68.28 55.68L68.40 55.80L68.26 55.65Q72.88 55.29 76.59 53.95L76.61 53.98L76.59 53.96Q65.07 66.47 59.71 73.56L59.74 73.59L59.69 73.55Q61.38 72.74 63.55 72.74L63.45 72.64L63.50 72.69Q68.96 72.59 71.52 75.85L71.55 75.88L71.70 76.04Q73.87 78.72 74.45 84.66L74.42 84.63L74.47 84.68Q74.63 85.93 74.63 86.95L74.47 86.79L74.47 86.79Q74.58 92.15 70.88 93.93L70.75 93.81L70.81 93.87Q68.74 94.86 62.22 95.50ZM66.17 99.64L66.10 99.57L66.15 99.62Q68.24 99.48 71.56 99.60L71.69 99.73L71.60 99.64Q74.27 99.69 76.89 98.47L77.02 98.60L76.94 98.53Q78.74 97.13 78.74 94.12L78.74 94.13L78.79 94.18Q78.92 93.47 78.63 91.81L78.55 91.73L78.47 91.66Q78.35 90.16 78.35 89.40L78.35 89.39L78.21 89.26Q76.86 81.45 74.18 78.25L74.14 78.21L74.09 78.17Q73.96 77.97 73.70 77.59L73.74 77.62L73.26 77.28L73.00 77.08L73.17 77.25Q72.45 76.27 71.42 74.67L71.48 74.73L71.43 74.68Q69.86 73.04 66.54 72.28L66.72 72.46L66.60 72.34Q68.60 69.61 73.58 63.41L73.63 63.45L80.68 54.54L80.72 54.57Q78.05 55.99 74.02 57.27L74.02 57.26L74.19 57.43Q75.67 55.72 78.68 52.40L78.69 52.41L78.56 52.28Q74.70 54.24 68.18 55.19L68.16 55.17L68.08 55.09Q58.53 65.03 53.54 73.34L53.48 73.27L53.46 73.25Q50.94 77.51 49.98 87.99L50.04 88.05L50.01 88.02Q49.96 89.06 50.09 90.65L49.98 90.54L50.05 90.61Q50.24 93.61 52.09 95.15L52.02 95.08L52.07 95.13Q52.57 95.24 52.50 95.30L52.53 95.33L52.66 95.46Q53.19 96.89 54.53 97.59L54.48 97.54L54.45 97.51Q57.07 98.85 60.33 99.17L60.31 99.15L60.25 99.09Q60.25 99.09 66.13 99.60ZM65.82 80.82L65.80 80.80L65.77 80.77Q66.68 80.53 68.27 81.36L68.23 81.32L68.38 81.47Q68.94 83.05 68.94 84.14L68.79 83.98L68.96 84.15Q69.20 87.20 67.60 88.86L67.59 88.86L67.64 88.91Q65.77 90.04 62.25 90.55L62.35 90.65L62.38 90.68Q59.79 90.51 58.89 90.06L58.92 90.09L59.03 90.20Q58.65 89.37 58.65 88.86L58.63 88.84L58.55 88.76Q58.22 83.32 63.14 81.15L63.24 81.25L63.16 81.16Q64.49 80.65 65.77 80.77Z"/><path d="M17 113 C180 129,179 93,331 1" stroke="#48e999" fill="none"/><path d="M14 86 C158 135,175 67,323 76" stroke="#7ab5ef" fill="none"/><path d="M5 125 C162 67,150 134,328 123" stroke="#c7e179" fill="none"/><path d="M20 117 C158 6,169 58,328 132" stroke="#9c83e6" fill="none"/><path d="M5 124 C154 41,168 53,333 19" stroke="#5f9edd" fill="none"/><path d="M15 82 C169 10,171 86,323 41" stroke="#8ee6e6" fill="none"/><path d="M9 84 C158 36,174 67,328 16" stroke="#bb5adc" fill="none"/><path d="M18 35 C165 52,165 71,324 2" stroke="#dc6f4b" fill="none"/><path d="M6 50 C159 116,171 98,336 54" stroke="#a590e3" fill="none"/><path fill="#6969e2" d="M261.61 95.78L261.68 95.85L261.49 95.66Q259.19 95.86 256.57 95.15L256.53 95.11L256.57 95.14Q254.52 93.61 254.26 90.86L254.34 90.94L254.25 90.85Q254.26 90.60 254.57 86.19L254.61 86.22L254.50 86.12Q256.38 85.94 259.76 85.31L259.69 85.24L259.26 86.40L259.44 86.58Q258.91 89.44 261.28 90.40L261.31 90.43L261.17 90.29Q262.63 90.98 266.14 90.98L266.20 91.04L266.07 90.91Q268.81 90.71 269.13 90.58L269.22 90.67L269.09 90.54Q270.62 90.29 271.84 89.45L271.95 89.56L271.90 89.52Q274.22 87.88 273.90 84.36L273.96 84.42L273.91 84.37Q273.63 80.33 270.73 77.71L270.70 77.67L270.72 77.70Q267.78 75.05 263.63 75.05L263.70 75.12L263.54 74.57L263.55 74.58Q264.32 74.65 265.79 74.52L265.77 74.50L265.81 74.55Q269.02 74.37 271.32 72.29L271.18 72.15L271.24 72.21Q273.57 70.16 273.82 67.03L273.71 66.92L273.79 67.00Q273.91 66.42 273.91 65.84L273.95 65.88L273.96 65.88Q273.93 63.30 271.63 61.77L271.67 61.81L271.53 61.67Q269.51 60.35 266.82 60.54L266.93 60.65L266.95 60.67Q264.72 60.36 262.68 61.06L262.58 60.96L262.58 60.96Q260.33 62.04 259.82 63.96L259.83 63.96L259.68 63.82Q259.35 65.08 259.48 66.36L259.63 66.51L259.55 66.44Q257.78 66.01 254.33 64.79L254.37 64.83L254.39 64.85Q253.97 62.00 254.04 60.60L254.06 60.62L254.01 60.57Q254.27 58.09 256.06 56.94L256.11 56.99L255.93 56.80Q258.37 55.85 261.05 55.85L261.03 55.83L261.07 55.87Q266.45 55.88 271.75 56.33L271.61 56.19L271.74 56.32Q280.21 56.99 279.70 63.32L279.70 63.32L279.58 63.20Q279.46 65.70 278.63 68.32L278.61 68.31L278.80 68.49Q277.21 73.61 273.25 75.15L273.30 75.20L273.14 75.03Q277.70 76.08 278.72 81.70L278.71 81.70L278.58 81.57Q279.10 83.61 279.22 87.00L279.20 86.98L279.18 86.96Q279.49 94.49 271.76 95.25L271.65 95.14L271.60 95.09Q270.56 95.39 261.67 95.84ZM270.43 99.62L270.33 99.51L270.34 99.52Q271.29 99.52 276.09 99.65L276.24 99.80L276.10 99.66Q279.19 99.94 281.94 98.86L281.89 98.80L281.83 98.74Q283.84 97.17 283.52 94.23L283.43 94.14L283.51 94.23Q283.23 91.90 282.72 88.96L282.75 88.99L282.74 88.99Q281.61 81.53 278.35 78.78L278.27 78.70L277.95 78.06L277.95 77.99L278.04 78.08Q280.88 75.55 282.16 68.21L282.14 68.19L282.20 68.25Q282.16 67.38 282.35 65.78L282.37 65.80L282.35 65.78Q282.60 64.62 282.47 63.47L282.51 63.51L282.36 63.37Q282.23 60.67 280.06 59.52L279.95 59.41L279.77 59.37L279.89 59.49Q279.40 57.85 277.48 56.95L277.50 56.97L277.43 56.90Q274.86 55.74 266.24 55.23L266.27 55.26L266.21 55.20Q263.36 55.04 260.68 55.04L260.76 55.12L260.82 55.17Q258.12 55.17 255.57 56.25L255.48 56.17L255.45 56.14Q253.50 57.50 253.50 60.44L253.49 60.44L253.50 60.45Q253.37 59.61 253.82 65.24L253.90 65.32L253.92 65.34Q254.53 65.56 257.27 66.58L257.08 66.39L257.20 66.51Q257.26 67.46 257.19 68.29L257.05 68.15L257.18 68.28Q257.11 69.04 257.18 69.94L257.16 69.92L257.16 69.92Q260.27 70.66 263.65 70.85L263.51 70.71L263.58 70.78Q263.44 67.38 265.29 65.98L265.33 66.01L265.35 66.03Q266.72 64.91 270.11 64.53L270.14 64.56L270.03 64.45Q272.04 64.54 272.99 64.86L273.00 64.86L272.99 64.85Q273.12 65.11 273.18 65.30L273.16 65.28L273.11 65.55L273.24 66.45L273.35 66.56Q273.24 66.77 273.18 67.02L273.22 67.07L273.19 67.03Q273.10 69.95 270.54 71.93L270.47 71.86L270.50 71.88Q268.96 73.42 265.58 73.74L265.64 73.80L265.70 73.86Q264.31 73.94 262.84 73.94L262.93 74.03L262.94 74.04Q262.96 74.57 263.22 75.72L263.21 75.72L263.33 75.84Q266.16 75.73 268.59 76.94L268.63 76.99L268.40 76.95L265.80 77.29L265.84 77.33Q265.87 77.87 266.06 78.89L266.10 78.93L266.02 78.85Q269.71 78.83 272.58 81.06L272.56 81.04L272.58 81.06Q272.87 81.61 273.38 84.35L273.47 84.44L273.32 84.29Q273.77 89.34 268.85 90.05L268.83 90.02L268.84 90.04Q265.30 90.46 264.34 90.40L264.30 90.35L264.30 90.36Q263.55 90.18 262.66 90.05L262.75 90.14L262.66 89.28L262.83 88.50L262.93 87.89L262.91 87.30L263.01 87.40Q261.40 87.52 260.06 87.84L259.99 87.77L260.06 87.83Q260.01 87.47 260.01 87.15L260.04 87.18L260.07 87.21Q260.15 86.90 260.15 86.52L260.08 86.46L260.00 86.37Q260.02 85.62 260.27 84.41L260.35 84.48L260.37 84.51Q257.25 84.90 254.12 85.48L254.14 85.49L254.21 85.56Q254.10 86.28 253.91 88.17L253.96 88.23L254.01 88.28Q253.74 90.08 253.74 91.10L253.78 91.14L253.82 91.18Q253.90 94.58 256.20 95.86L256.23 95.89L256.21 95.87Q258.58 99.59 266.51 99.27L266.65 99.41L266.66 99.42Q267.75 99.24 270.31 99.49Z"/><path d="M9 68 C188 115,183 115,330 54" stroke="#9679eb" fill="none"/><path fill="#eb60eb" d="M205.48 73.59L205.57 73.67L205.51 73.62Q206.82 73.58 209.18 73.33L209.27 73.41L209.15 73.30Q209.25 74.54 209.25 75.63L209.17 75.55L209.24 77.73L209.27 77.76Q207.85 77.75 206.44 77.88L206.38 77.81L206.32 77.76Q204.92 77.82 203.51 77.75L203.49 77.74L203.52 77.76Q198.68 88.07 192.93 95.80L192.99 95.86L193.03 95.90Q188.85 97.02 186.68 98.05L186.68 98.05L186.66 98.03Q193.51 88.39 198.62 77.85L198.66 77.89L194.26 77.90L194.25 77.89Q194.32 75.72 194.12 73.48L194.08 73.44L194.10 73.46Q197.16 73.58 200.61 73.58L200.69 73.65L203.81 67.38L203.83 67.40Q205.45 64.16 207.49 61.48L207.64 61.63L207.60 61.58Q205.03 61.89 202.35 61.89L202.19 61.73L202.18 61.73Q192.10 61.87 185.77 58.16L185.80 58.19L184.54 55.14L184.63 55.23Q184.04 53.81 183.40 52.34L183.37 52.31L183.50 52.44Q190.80 56.86 200.38 57.25L200.28 57.15L200.26 57.13Q208.88 57.50 217.50 54.17L217.50 54.17L217.53 54.19Q217.13 54.82 216.30 56.29L216.40 56.39L216.38 56.38Q210.29 64.34 205.49 73.60ZM219.14 58.75L219.08 58.69L220.70 55.26L220.65 55.21Q219.20 56.19 216.39 57.40L216.27 57.29L216.64 56.82L216.70 56.88Q216.75 56.49 216.95 56.30L216.94 56.29L217.03 56.38Q217.68 55.25 218.90 53.01L218.98 53.09L218.79 52.90Q209.90 56.79 200.25 56.41L200.34 56.50L200.23 56.39Q190.22 56.03 182.23 51.04L182.20 51.01L182.11 50.92Q183.86 54.08 185.26 58.55L185.39 58.68L185.40 58.68Q187.17 59.69 188.51 60.20L188.45 60.14L188.44 60.13Q188.79 60.80 189.56 63.93L189.48 63.86L189.54 63.91Q194.82 66.00 204.09 65.74L204.21 65.86L204.04 65.69Q203.57 66.69 200.25 73.02L200.38 73.15L200.23 73.00Q196.82 73.05 193.50 72.73L193.50 72.73L193.56 72.79Q193.75 74.25 193.75 75.72L193.62 75.60L193.60 78.46L196.50 78.54L196.52 80.92L196.49 80.90Q189.93 93.31 185.27 99.32L185.30 99.36L185.28 99.33Q187.83 97.92 190.58 97.09L190.65 97.17L190.58 97.10Q189.40 98.59 187.09 101.47L187.22 101.59L187.25 101.62Q192.42 99.63 196.51 99.25L196.57 99.31L196.59 99.33Q201.49 92.98 206.73 81.61L206.70 81.59L212.49 81.94L212.53 81.98Q212.38 80.43 212.38 78.89L212.39 78.90L212.27 75.78L212.32 75.83Q211.95 75.90 211.02 75.97L210.96 75.91L211.02 75.97Q210.07 76.01 209.63 76.01L209.60 75.99L209.64 76.03Q209.53 75.72 209.60 75.47L209.73 75.60L209.66 75.08L209.71 75.14Q213.92 66.51 219.10 58.71Z"/><path d="M19 63 C165 86,176 16,337 54" stroke="#728dde" fill="none"/><path d="M20 70 C189 77,164 135,322 47" stroke="#8585ef" fill="none"/><path d="M2 82 C186 106,173 52,322 90" stroke="#67e43e" fill="none"/><path d="M2 72 C171 9,163 3,338 118" stroke="#d96884" fill="none"/><path d="M7 44 C152 63,173 118,338 96" stroke="#985bd6" fill="none"/><path d="M19 42 C163 10,160 44,331 104" stroke="#b782ed" fill="none"/><path d="M20 45 C158 79,189 63,326 83" stroke="#e6e664" fill="none"/><path d="M11 137 C184 117,178 5,340 133" stroke="#a364e1" fill="none"/><path d="M16 137 C166 17,188 99,331 127" stroke="#f08dbf" fill="none"/><path d="M12 1 C186 16,191 93,337 59" stroke="#e853e8" fill="none"/><path d="M16 120 C155 124,188 66,328 99" stroke="#6fdc6f" fill="none"/></svg>