<svg xmlns="http://www.w3.org/2000/svg" width="342" height="140" viewBox="0,0,342,140"><path d="M18 31 C161 57,177 109,331 92" stroke="#58e97c" fill="none"/><path d="M14 106 C164 50,154 37,324 35" stroke="#e386b5" fill="none"/><path d="M16 138 C162 5,177 53,326 125" stroke="#d75a99" fill="none"/><path d="M5 51 C185 128,154 40,333 77" stroke="#eeb276" fill="none"/><path d="M19 115 C162 61,191 86,323 54" stroke="#aae273" fill="none"/><path d="M14 87 C151 28,178 26,324 39" stroke="#7350dc" fill="none"/><path d="M10 54 C181 120,156 5,322 102" stroke="#e4957b" fill="none"/><path d="M5 77 C181 6,174 4,325 68" stroke="#61db9e" fill="none"/><path fill="#ed77ed" d="M277.97 77.56L278.04 77.63L278.03 77.63Q274.68 77.68 272.46 80.11L272.44 80.08L272.34 79.99Q270.20 82.48 269.92 85.95L269.86 85.89L269.84 85.88Q269.49 89.76 271.71 91.59L271.70 91.58L271.88 91.76Q273.94 93.44 277.83 93.30L277.98 93.46L277.82 93.30Q282.20 93.18 283.94 91.44L283.76 91.26L283.76 91.26Q285.79 88.78 285.58 85.46L285.44 85.31L285.43 85.31Q285.32 82.00 283.34 79.82L283.27 79.75L283.24 79.72Q281.43 77.70 278.10 77.70ZM278.04 60.51L277.90 60.37L277.91 60.38Q275.31 60.13 272.88 61.04L272.89 61.05L272.90 61.06Q270.59 62.56 271.00 65.95L270.97 65.92L270.96 65.91Q272.02 72.87 278.13 72.87L278.11 72.85L278.11 72.85Q280.83 73.08 282.63 71.00L282.70 71.07L282.58 70.94Q284.43 68.91 284.50 66.07L284.48 66.05L284.49 66.06Q284.77 63.02 283.46 61.91L283.43 61.88L283.34 61.79Q280.34 60.32 277.98 60.45ZM277.54 97.94L277.50 97.90L271.88 97.83L271.83 97.78Q269.08 97.80 266.65 96.21L266.77 96.33L266.64 96.19Q264.16 94.13 264.43 88.93L264.54 89.03L264.49 88.98Q265.36 76.54 271.95 74.74L272.02 74.81L271.89 74.68Q267.79 73.08 265.36 63.30L265.31 63.24L265.26 63.20Q264.70 60.70 264.84 59.24L264.95 59.35L264.86 59.25Q265.41 55.37 272.14 55.30L272.22 55.38L272.04 55.21Q279.79 55.12 282.42 55.46L282.51 55.55L282.40 55.45Q289.42 56.43 290.26 60.11L290.25 60.10L290.32 60.17Q290.48 61.23 290.48 61.92L290.51 61.96L290.60 62.04Q290.43 63.13 290.09 64.24L290.16 64.31L290.17 64.32Q288.97 71.93 283.63 74.70L283.66 74.73L283.72 74.78Q290.03 76.18 290.93 85.82L291.07 85.95L291.02 85.90Q290.95 86.11 291.02 88.47L291.11 88.56L291.13 88.58Q291.27 93.57 288.35 95.51L288.31 95.46L288.35 95.51Q285.88 97.13 277.56 97.96ZM281.69 102.16L281.64 102.11L287.71 102.21L287.74 102.25Q290.96 102.48 293.73 101.16L293.56 100.99L293.70 101.13Q295.70 99.73 295.83 96.33L295.78 96.28L295.81 96.31Q295.87 94.29 295.18 90.76L295.30 90.87L295.14 90.71Q293.61 82.39 289.79 78.99L289.70 78.90L289.46 78.31L289.01 77.72L288.71 77.22L288.76 77.26Q291.76 74.79 293.42 67.23L293.47 67.27L293.46 67.26Q293.48 66.59 293.61 65.06L293.60 65.04L293.58 65.02Q293.70 63.76 293.56 62.65L293.64 62.73L293.50 62.59Q293.36 60.09 291.21 59.19L291.08 59.06L291.24 59.15L290.95 59.00L290.85 58.90Q290.45 57.66 288.30 56.21L288.14 56.05L288.26 56.10L288.20 56.04Q284.72 54.92 277.30 54.57L277.20 54.47L277.19 54.46Q274.36 54.26 271.86 54.47L271.88 54.49L271.94 54.55Q270.53 54.67 268.18 54.95L268.14 54.91L268.19 54.96Q264.65 55.65 264.23 58.63L264.19 58.59L264.12 58.52Q264.12 59.49 264.19 60.94L264.13 60.88L264.22 60.97Q264.35 61.87 265.39 66.17L265.46 66.24L265.40 66.18Q266.82 72.04 270.01 74.47L270.09 74.54L270.20 74.65L270.18 74.64Q265.09 76.96 264.12 86.39L264.21 86.48L264.08 86.36Q263.73 90.37 263.73 92.03L263.74 92.05L263.82 92.13Q263.98 95.41 266.13 97.07L266.10 97.04L266.03 96.97Q266.21 97.08 266.70 97.43L266.88 97.62L266.72 97.46Q268.59 101.61 281.56 102.03ZM280.99 81.91L281.09 82.00L281.01 81.92Q282.75 81.86 284.34 82.69L284.33 82.68L284.23 82.59Q285.01 84.47 284.94 85.44L284.85 85.35L284.82 85.32Q285.06 86.04 285.06 86.60L284.89 86.43L285.04 86.58Q284.93 90.77 280.77 92.29L280.71 92.23L280.74 92.26Q279.28 92.82 277.83 92.61L277.94 92.72L277.93 92.71Q275.83 92.83 273.74 92.00L273.72 91.97L273.85 92.10Q273.29 90.84 273.42 89.04L273.48 89.09L273.50 89.12Q273.81 86.23 275.99 84.01L275.96 83.99L275.86 83.88Q278.18 81.80 281.09 82.01ZM281.34 64.58L281.38 64.61L281.44 64.67Q282.97 64.55 283.95 64.82L283.80 64.67L283.92 66.25L283.86 66.19Q283.79 68.68 282.12 70.52L282.29 70.69L282.23 70.63Q280.61 72.51 278.12 72.17L278.04 72.10L278.13 72.18Q276.19 72.04 275.42 71.62L275.44 71.64L275.54 71.74Q275.39 71.18 275.18 69.93L275.16 69.90L275.22 69.97Q274.67 67.34 276.89 65.81L276.96 65.88L276.85 65.77Q278.88 64.61 281.44 64.68Z"/><path fill="#eaa58e" d="M179.21 93.59L179.04 93.43L179.19 93.58Q179.59 95.23 180.56 98.90L180.55 98.89L180.74 99.08Q172.96 96.57 164.57 97.06L164.63 97.11L164.65 97.14Q156.29 97.58 149.01 101.19L148.99 101.17L148.86 101.04Q149.29 99.80 149.36 99.94L149.41 100.00L149.38 99.97Q156.14 92.72 163.29 84.68L163.39 84.78L163.47 84.86Q171.45 75.72 173.60 67.19L173.51 67.10L173.61 67.19Q174.34 63.91 172.02 61.76L172.14 61.88L171.99 61.73Q169.82 59.73 166.56 60.01L166.40 59.85L166.41 59.86Q165.80 59.81 165.18 59.81L165.34 59.97L165.21 59.84Q162.45 59.85 160.17 61.52L160.18 61.53L160.14 61.49Q157.83 64.04 158.25 68.89L158.17 68.81L158.27 68.92Q154.97 68.24 152.75 67.41L152.81 67.47L152.71 67.37Q152.33 64.77 152.19 62.14L152.26 62.21L152.29 62.24Q152.19 59.30 153.30 57.22L153.33 57.25L153.35 57.27Q156.59 54.75 162.69 54.75L162.57 54.63L165.72 54.59L165.74 54.62Q169.91 54.69 171.64 54.90L171.73 54.99L171.69 54.94Q179.54 55.65 180.03 60.09L180.15 60.21L180.00 60.06Q180.31 61.28 180.17 62.73L180.03 62.60L180.06 62.62Q180.02 63.83 179.75 65.08L179.78 65.11L179.68 65.01Q176.78 79.87 162.98 92.35L162.87 92.23L162.91 92.28Q165.55 92.07 168.05 92.07L167.97 92.00L168.10 92.13Q173.82 91.96 179.03 93.41ZM178.02 55.52L178.12 55.62L178.17 55.67Q175.21 54.44 172.09 54.30L171.97 54.19L165.90 54.01L165.84 53.94Q157.65 53.39 153.63 55.40L153.74 55.51L153.57 55.34Q151.82 58.02 151.82 61.77L151.66 61.61L151.66 61.61Q151.72 62.92 152.28 68.05L152.43 68.21L152.39 68.16Q153.30 68.52 155.45 69.08L155.50 69.13L155.48 70.97L155.45 70.95Q155.38 71.78 155.52 72.75L155.56 72.79L155.59 72.82Q157.93 73.08 162.44 73.50L162.27 73.33L162.34 73.40Q162.19 72.63 162.19 72.00L162.18 71.99L162.19 72.00Q162.26 68.75 164.48 66.28L164.43 66.24L164.57 66.38Q166.64 63.76 169.90 63.97L170.00 64.07L170.03 64.10Q171.28 64.03 172.66 64.31L172.83 64.47L172.75 64.40Q172.95 65.08 173.09 65.84L173.08 65.84L173.02 65.77Q173.20 66.65 173.06 67.27L173.07 67.28L173.02 67.23Q170.80 75.97 162.76 84.77L162.74 84.76L162.59 84.60Q158.74 88.73 148.82 99.75L148.85 99.78L148.87 99.80Q148.58 101.38 147.96 102.42L147.93 102.39L148.00 102.47Q150.84 100.80 153.61 99.83L153.69 99.90L153.55 99.77Q152.30 100.87 150.56 103.57L150.61 103.62L150.58 103.59Q150.25 104.09 150.04 104.72L150.12 104.80L150.13 104.80Q158.92 100.97 168.90 101.32L168.93 101.35L168.90 101.32Q179.34 101.70 187.66 106.00L187.67 106.02L185.77 102.03L185.87 102.14Q184.61 99.62 184.13 98.17L184.27 98.31L184.27 98.31Q182.95 97.55 180.73 96.79L180.56 96.61L180.68 96.73Q180.29 95.31 179.60 92.81L179.71 92.92L179.65 92.86Q175.64 91.83 171.48 91.48L171.58 91.59L171.47 91.47Q179.92 83.07 182.69 68.03L182.86 68.20L183.18 62.90L183.11 62.83Q183.05 59.65 180.83 58.40L180.79 58.36L180.77 58.41L180.78 58.41Q180.70 58.26 180.56 58.26L180.53 58.24L180.54 58.25Q180.10 56.70 178.09 55.59Z"/><path d="M4 29 C150 58,168 39,328 97" stroke="#7cedb5" fill="none"/><path d="M6 135 C170 112,151 47,339 118" stroke="#e683e6" fill="none"/><path d="M15 37 C171 19,183 115,338 63" stroke="#e58261" fill="none"/><path d="M12 77 C171 20,175 104,335 136" stroke="#ef7aef" fill="none"/><path d="M12 22 C192 39,188 90,332 16" stroke="#5151ea" fill="none"/><path d="M1 34 C160 78,159 56,341 119" stroke="#58d978" fill="none"/><path d="M18 72 C175 61,154 8,334 13" stroke="#8eeaea" fill="none"/><path d="M18 134 C189 112,165 58,337 130" stroke="#93e877" fill="none"/><path d="M12 114 C160 127,184 1,327 40" stroke="#8a8aef" fill="none"/><path d="M8 7 C166 135,182 7,334 109" stroke="#6ed64c" fill="none"/><path fill="#b586e3" d="M100.86 84.47L100.89 84.49L100.92 84.53Q106.45 83.74 112.27 83.95L112.28 83.96L112.28 83.96Q112.30 79.41 112.30 75.04L112.25 74.98L112.25 74.98Q112.30 70.52 112.64 65.88L112.53 65.76L112.68 65.91Q110.29 68.86 100.79 84.40ZM119.00 97.96L118.94 97.89L118.97 97.93Q115.95 97.40 112.69 97.26L112.62 97.20L112.52 97.10Q112.20 92.82 111.99 88.31L112.00 88.32L112.15 88.47Q102.37 88.06 93.78 90.63L93.75 90.60L93.83 90.68Q93.98 89.72 94.32 87.91L94.20 87.79L94.31 87.90Q97.54 82.12 104.06 70.68L104.04 70.66L104.04 70.66Q109.29 61.76 115.53 54.69L115.50 54.66L115.54 54.70Q117.23 54.45 120.28 53.96L120.31 53.99L120.23 53.91Q116.72 65.58 116.72 78.41L116.69 78.38L116.80 78.49Q116.84 81.24 116.98 83.94L116.95 83.92L119.28 84.10L119.16 83.98Q120.45 84.22 121.56 84.43L121.42 84.30L121.57 84.44Q121.72 86.18 122.20 89.72L122.22 89.74L122.14 89.66Q120.05 89.30 117.35 88.95L117.23 88.84L117.34 88.95Q117.72 92.59 118.97 97.93ZM122.05 83.74L122.03 83.73L122.01 83.70Q121.69 83.59 121.34 83.59L121.24 83.48L120.49 83.43L120.59 83.53Q120.40 80.85 120.40 78.28L120.36 78.24L120.42 78.30Q120.34 66.57 124.09 55.62L124.19 55.72L124.15 55.68Q122.72 56.12 120.08 56.82L120.19 56.92L120.03 56.76Q120.52 55.45 121.35 52.88L121.34 52.87L121.25 52.79Q118.94 53.52 115.20 53.94L115.27 54.01L115.25 53.99Q108.04 61.83 98.54 78.89L98.70 79.04L102.41 72.29L102.32 72.19Q101.58 74.09 101.10 75.13L101.13 75.17L93.04 91.62L93.13 91.71Q94.27 91.40 96.35 90.71L96.37 90.73L96.05 91.10L95.96 91.00Q95.84 92.35 95.29 94.64L95.19 94.54L95.35 94.70Q102.75 92.18 111.56 92.53L111.55 92.52L111.61 92.58Q111.57 94.20 111.91 97.81L112.02 97.91L111.98 97.88Q113.92 97.87 115.86 98.08L115.77 97.99L115.85 98.07Q116.10 99.29 116.59 101.79L116.71 101.91L116.60 101.80Q120.17 102.32 125.65 103.99L125.62 103.95L125.62 103.96Q123.84 100.10 122.18 94.14L122.15 94.10L124.82 94.98L124.78 94.94Q126.03 95.35 127.28 95.97L127.27 95.97L127.20 95.90Q125.71 91.29 125.44 88.24L125.52 88.32L125.42 88.23Q124.43 88.00 122.35 87.58L122.30 87.53L122.41 87.64Q121.92 85.21 121.92 83.62ZM107.48 83.46L107.37 83.35L107.34 83.32Q108.87 81.10 111.71 76.46L111.57 76.32L111.60 76.34Q111.66 78.14 111.59 79.88L111.50 79.79L111.57 79.85Q111.56 81.64 111.62 83.37L111.73 83.48L111.68 83.43Q110.54 83.26 109.50 83.26L109.58 83.34L109.58 83.34Q108.43 83.30 107.32 83.30Z"/><path d="M2 39 C151 80,170 105,327 92" stroke="#6363ec" fill="none"/><path d="M1 59 C188 48,151 26,322 58" stroke="#e69898" fill="none"/><path d="M11 15 C172 59,153 130,333 117" stroke="#db9b5b" fill="none"/><path d="M11 8 C165 8,156 99,321 33" stroke="#ebd48d" fill="none"/><path d="M10 59 C176 107,189 107,330 85" stroke="#e273c6" fill="none"/><path d="M16 70 C174 46,156 51,329 3" stroke="#e886b7" fill="none"/><path d="M13 10 C192 101,170 52,341 71" stroke="#d5ed8b" fill="none"/><path d="M16 30 C163 121,162 69,337 71" stroke="#d0ee76" fill="none"/><path d="M3 126 C191 105,162 23,331 104" stroke="#ade476" fill="none"/><path d="M18 41 C176 70,151 94,334 21" stroke="#e29278" fill="none"/><path d="M19 66 C170 131,153 51,332 93" stroke="#c051e5" fill="none"/><path d="M8 6 C165 134,177 139,327 58" stroke="#73ecaf" fill="none"/><path d="M2 10 C157 74,156 132,329 133" stroke="#e476e4" fill="none"/><path d="M6 89 C158 37,191 68,332 78" stroke="#9ee358" fill="none"/><path d="M11 40 C173 83,160 52,327 103" stroke="#e7c04a" fill="none"/><path d="M18 111 C155 26,184 78,332 89" stroke="#dd5499" fill="none"/><path d="M4 37 C179 77,172 51,331 123" stroke="#d953b7" fill="none"/><path d="M4 100 C154 83,150 38,326 115" stroke="#69e7e7" fill="none"/><path d="M15 41 C157 107,180 29,339 45" stroke="#bfed91" fill="none"/><path fill="#a993eb" d="M51.23 77.49L51.28 77.55L51.19 77.45Q47.96 77.34 45.70 79.94L45.70 79.94L45.66 79.90Q43.39 82.49 43.05 85.95L43.08 85.99L43.13 86.04Q42.71 89.78 44.68 91.54L44.55 91.41L44.70 91.55Q46.54 93.19 50.35 92.98L50.48 93.11L50.41 93.04Q54.18 92.72 56.19 91.47L56.30 91.58L56.17 91.45Q58.34 89.53 58.34 86.69L58.29 86.64L58.34 86.69Q58.35 86.00 58.21 85.31L58.26 85.35L58.13 85.23Q58.36 82.27 56.35 79.81L56.35 79.81L56.29 79.75Q54.33 77.34 51.28 77.55ZM50.45 97.73L50.48 97.76L50.51 97.79Q42.48 97.73 39.92 96.34L39.83 96.26L39.83 96.26Q38.13 95.04 37.78 91.92L37.65 91.79L37.72 91.86Q37.54 90.50 37.61 89.19L37.67 89.25L37.73 89.30Q37.91 87.47 37.91 86.64L37.82 86.55L37.91 86.64Q38.75 81.45 39.03 80.20L39.05 80.23L39.07 80.24Q39.80 76.61 41.33 74.04L41.37 74.09L41.31 74.03Q46.14 66.03 56.96 54.45L57.11 54.60L57.01 54.50Q61.86 53.94 65.88 52.48L65.87 52.47L65.88 52.48Q53.40 66.08 47.58 73.77L47.55 73.75L47.67 73.87Q49.51 73.00 51.87 73.00L51.77 72.91L51.84 72.97Q57.81 72.91 60.58 76.44L60.54 76.40L60.59 76.45Q62.94 79.36 63.57 85.81L63.59 85.83L63.56 85.80Q63.71 87.13 63.71 88.24L63.81 88.34L63.70 88.23Q63.72 93.94 59.70 95.88L59.82 96.00L59.82 96.00Q57.45 96.96 50.38 97.65ZM54.61 102.10L54.64 102.13L54.68 102.16Q56.94 102.00 60.55 102.14L60.63 102.22L60.49 102.08Q63.66 102.41 66.51 101.09L66.47 101.05L66.32 100.91Q68.34 99.46 68.34 96.20L68.36 96.22L68.33 96.19Q68.32 95.28 68.01 93.48L68.19 93.66L68.14 93.60Q67.77 91.75 67.77 90.92L67.77 90.91L67.83 90.98Q66.17 82.31 63.26 78.84L63.36 78.95L63.26 78.85Q63.17 78.69 62.89 78.27L62.78 78.16L62.41 77.92L62.27 77.85L62.13 77.72Q61.54 76.84 60.43 75.11L60.41 75.10L60.49 75.17Q58.77 73.38 55.16 72.55L55.08 72.47L55.12 72.51Q57.32 69.58 62.73 62.85L62.71 62.84L70.45 53.24L70.48 53.26Q67.63 54.85 63.26 56.24L63.35 56.33L63.21 56.19Q64.91 54.42 68.17 50.82L68.26 50.91L68.28 50.93Q63.84 52.80 56.77 53.84L56.86 53.93L56.71 53.78Q46.45 64.68 41.05 73.69L41.03 73.67L40.86 73.51Q38.25 78.25 37.21 89.62L37.16 89.57L37.11 89.52Q37.09 90.68 37.23 92.41L37.16 92.34L37.24 92.42Q37.22 95.45 39.23 97.11L39.26 97.14L39.37 97.26Q39.89 97.36 39.82 97.43L39.92 97.52L39.84 97.45Q40.53 99.11 41.99 99.88L42.03 99.91L42.05 99.93Q44.66 101.15 48.19 101.50L48.27 101.58L48.30 101.61Q48.21 101.52 54.59 102.08ZM54.13 81.57L54.30 81.75L54.17 81.62Q55.17 81.37 56.90 82.27L56.88 82.24L57.04 82.40Q57.65 84.12 57.65 85.30L57.57 85.22L57.70 85.35Q57.95 88.66 56.22 90.46L56.30 90.53L56.12 90.36Q54.32 91.82 50.51 92.37L50.48 92.34L50.43 92.30Q47.80 92.30 46.83 91.82L46.92 91.91L46.85 91.84Q46.49 90.99 46.49 90.44L46.46 90.41L46.51 90.46Q46.17 84.57 51.51 82.21L51.52 82.22L51.51 82.21Q52.90 81.59 54.29 81.73Z"/><path d="M4 108 C184 59,155 13,332 28" stroke="#7be9e9" fill="none"/><path d="M13 52 C186 60,155 94,324 125" stroke="#f18cf1" fill="none"/><path d="M5 120 C152 132,176 49,328 91" stroke="#65e0c1" fill="none"/><path fill="#43e943" d="M216.51 97.98L216.60 98.07L216.62 98.10Q209.13 98.43 207.32 94.20L207.37 94.25L207.34 94.21Q208.71 92.47 211.55 89.21L211.51 89.17L211.62 89.28Q212.41 92.84 217.89 93.05L218.02 93.18L217.93 93.09Q224.20 93.33 227.18 90.90L227.07 90.79L227.15 90.87Q229.66 87.91 229.53 82.98L229.44 82.89L229.61 83.07Q229.26 73.77 220.52 74.18L220.59 74.25L220.44 74.10Q215.33 74.40 212.14 76.69L212.12 76.68L211.53 76.36L211.29 76.25L211.19 76.16Q211.86 70.45 211.65 65.45L211.52 65.33L211.57 65.37Q211.44 60.67 210.82 54.63L210.72 54.54L210.86 54.68Q217.36 56.25 224.29 56.04L224.38 56.14L224.42 56.18Q231.25 55.93 237.77 53.64L237.79 53.66L236.88 56.56L236.83 56.52Q236.15 57.78 235.80 59.31L235.93 59.43L235.86 59.37Q230.22 61.28 223.15 61.28L223.19 61.32L223.04 61.18Q220.51 61.27 217.80 61.00L217.88 61.08L217.81 61.00Q217.75 62.33 217.13 70.44L216.97 70.29L217.07 70.38Q218.53 69.49 222.28 69.22L222.37 69.31L222.34 69.28Q229.03 69.59 231.67 72.64L231.67 72.64L231.81 72.79Q234.16 75.41 234.65 82.42L234.64 82.41L234.78 82.55Q235.26 90.18 233.04 93.85L232.95 93.76L232.97 93.78Q229.35 97.30 223.32 97.72L223.21 97.61L223.25 97.65Q221.34 97.68 216.48 97.96ZM227.53 102.14L227.55 102.16L227.62 102.22Q233.81 102.32 237.28 100.31L237.30 100.32L237.24 100.26Q239.14 97.59 239.14 93.78L238.98 93.62L239.04 93.67Q239.14 88.16 237.40 80.67L237.25 80.51L237.30 80.57Q236.64 77.41 234.43 74.85L234.43 74.85L234.43 74.92L234.05 74.40L233.42 74.05L233.47 74.10Q232.89 72.76 231.72 71.51L231.79 71.59L231.64 71.50L231.79 71.66Q229.00 68.59 222.27 68.59L222.26 68.57L221.72 68.52L221.72 68.52Q221.81 67.43 222.15 65.42L222.15 65.42L222.20 65.46Q231.33 65.72 238.68 62.74L238.62 62.68L238.63 62.69Q239.51 60.24 241.25 55.11L241.18 55.05L237.33 56.74L237.40 56.81Q237.99 54.62 238.89 52.54L238.94 52.60L238.92 52.58Q231.96 55.25 224.47 55.39L224.37 55.29L224.44 55.36Q216.99 55.61 209.78 53.60L209.80 53.62L209.84 53.66Q211.03 61.64 211.03 69.68L210.98 69.63L210.99 69.65Q211.04 73.17 210.84 76.64L210.76 76.56L210.88 76.68Q211.36 77.02 212.40 77.58L212.25 77.42L212.36 77.54Q212.88 77.02 214.06 76.39L214.11 76.44L214.14 76.47Q213.98 77.77 213.56 80.54L213.68 80.66L213.58 80.56Q214.48 81.04 215.24 81.46L215.22 81.44L215.11 81.33Q220.31 78.27 223.71 78.27L223.71 78.28L223.53 78.10Q226.10 78.24 228.25 79.42L228.19 79.36L228.12 79.29Q228.84 81.25 228.91 82.99L228.94 83.02L228.94 83.02Q228.96 87.61 227.08 89.63L227.07 89.61L227.17 89.72Q224.71 91.96 220.62 92.38L220.66 92.42L220.58 92.34Q218.85 92.48 217.60 92.34L217.67 92.42L217.68 92.42Q216.02 92.08 214.63 91.46L214.66 91.49L214.70 91.18L214.44 91.33L214.46 91.35Q212.95 90.40 211.98 87.97L211.89 87.88L211.88 87.87Q209.53 90.51 206.47 94.39L206.51 94.43L206.43 94.34Q207.12 95.66 208.64 97.39L208.65 97.40L208.50 97.25Q210.56 100.69 215.69 101.60L215.55 101.46L215.67 101.58Q217.70 101.87 227.48 102.08Z"/></svg>