<svg xmlns="http://www.w3.org/2000/svg" width="342" height="140" viewBox="0,0,342,140"><path d="M14 42 C176 100,186 133,334 104" stroke="#4abce2" fill="none"/><path d="M17 132 C179 74,175 80,321 84" stroke="#ebad6f" fill="none"/><path d="M3 95 C152 50,168 10,332 94" stroke="#4646d6" fill="none"/><path d="M11 128 C158 89,168 74,323 65" stroke="#e4e457" fill="none"/><path d="M8 56 C190 134,151 62,334 24" stroke="#5aebc7" fill="none"/><path d="M12 130 C159 9,174 83,341 29" stroke="#eb56c5" fill="none"/><path d="M14 44 C155 59,161 36,338 19" stroke="#91e53c" fill="none"/><path d="M20 109 C170 116,173 106,323 48" stroke="#98e77d" fill="none"/><path d="M19 134 C175 39,174 53,335 99" stroke="#96d953" fill="none"/><path d="M14 92 C168 132,177 21,334 3" stroke="#e94d9b" fill="none"/><path d="M3 91 C183 136,162 89,341 117" stroke="#71de8c" fill="none"/><path d="M14 47 C167 29,151 118,331 135" stroke="#e03c3c" fill="none"/><path d="M5 96 C185 30,190 42,340 21" stroke="#53e878" fill="none"/><path d="M11 24 C192 45,172 97,332 127" stroke="#96ea7a" fill="none"/><path d="M16 70 C161 124,191 7,329 114" stroke="#e480e4" fill="none"/><path fill="#afe07f" d="M103.55 81.34L103.54 81.34L103.48 81.28Q107.88 80.73 112.45 80.89L112.62 81.06L112.55 80.99Q112.44 77.29 112.44 73.87L112.45 73.88L112.46 73.89Q112.54 70.43 112.81 66.79L112.73 66.70L112.80 66.78Q111.03 69.19 103.58 81.38ZM117.80 91.96L117.77 91.92L117.80 91.95Q115.27 91.38 112.71 91.27L112.71 91.26L112.67 91.23Q112.53 87.99 112.37 84.45L112.41 84.50L112.29 84.38Q104.71 84.14 97.97 86.15L97.97 86.15L98.05 86.23Q98.18 85.49 98.45 84.08L98.49 84.12L98.45 84.08Q100.96 79.51 106.07 70.54L106.11 70.58L106.09 70.56Q110.18 63.56 115.07 58.01L115.03 57.97L115.16 58.10Q116.27 57.68 118.66 57.30L118.65 57.29L118.73 57.37Q116.12 66.67 116.12 76.73L116.11 76.72L115.97 76.58Q115.97 78.70 116.07 80.82L116.20 80.94L118.01 81.06L118.03 81.09Q118.85 81.09 119.72 81.26L119.79 81.32L119.75 81.28Q119.81 82.59 120.19 85.37L120.23 85.40L120.26 85.44Q118.56 85.10 116.44 84.82L116.40 84.78L116.37 84.76Q116.78 87.72 117.76 91.91ZM120.06 80.67L120.12 80.73L120.08 80.69Q119.82 80.60 119.55 80.60L119.54 80.58L118.95 80.54L119.02 80.61Q118.90 78.53 118.90 76.52L118.82 76.43L118.92 76.54Q118.83 67.32 121.77 58.72L121.82 58.78L121.85 58.80Q120.76 59.18 118.69 59.72L118.65 59.68L118.66 59.70Q118.90 58.51 119.55 56.50L119.53 56.48L119.64 56.59Q117.72 57.06 114.78 57.39L114.84 57.45L114.85 57.46Q109.32 63.73 101.87 77.11L101.73 76.97L104.84 71.87L104.67 71.70Q104.23 73.32 103.85 74.14L103.86 74.15L97.51 87.05L97.45 87.00Q98.38 86.78 100.01 86.24L100.03 86.25L99.78 86.55L99.71 86.48Q99.66 87.57 99.22 89.36L99.16 89.30L99.22 89.37Q105.13 87.49 112.03 87.76L111.98 87.70L111.94 87.66Q111.95 88.98 112.22 91.81L112.22 91.81L112.18 91.77Q113.77 91.84 115.29 92.00L115.31 92.02L115.28 91.99Q115.53 92.99 115.91 94.95L115.98 95.02L115.84 94.89Q118.58 95.23 122.87 96.54L122.99 96.65L122.99 96.65Q121.54 93.57 120.24 88.90L120.18 88.84L122.35 89.60L122.21 89.45Q123.31 89.90 124.29 90.39L124.22 90.32L124.32 90.42Q123.01 86.66 122.79 84.27L122.87 84.35L122.92 84.40Q122.03 84.10 120.40 83.78L120.44 83.82L120.38 83.77Q120.14 82.00 120.14 80.75ZM108.64 80.46L108.72 80.53L108.69 80.51Q109.72 78.59 111.95 74.95L112.10 75.10L111.94 74.94Q112.07 76.43 112.02 77.79L111.88 77.66L112.04 77.81Q111.85 79.04 111.91 80.40L111.99 80.49L112.10 80.59Q111.19 80.44 110.37 80.44L110.39 80.46L110.32 80.40Q109.49 80.44 108.62 80.44Z"/><path d="M5 102 C181 66,182 128,330 24" stroke="#89ed68" fill="none"/><path d="M2 17 C179 104,187 88,333 39" stroke="#4242e0" fill="none"/><path d="M4 74 C174 109,152 114,328 137" stroke="#e060c0" fill="none"/><path d="M10 131 C162 36,150 125,331 62" stroke="#73cae7" fill="none"/><path fill="#edad6c" d="M279.28 62.35L279.33 62.40L277.12 62.59L277.07 62.54Q273.86 62.70 273.53 65.59L273.43 65.48L273.43 65.48Q273.35 66.54 273.40 67.95L273.47 68.02L273.35 67.90Q273.59 70.86 275.38 72.76L275.30 72.68L275.23 72.61Q277.09 74.58 279.81 74.36L279.88 74.43L279.83 74.38Q282.73 74.13 283.82 72.82L283.85 72.86L283.76 72.77Q285.33 71.51 285.71 68.30L285.73 68.31L285.72 68.31Q286.16 65.15 284.36 63.96L284.31 63.91L284.37 63.97Q283.10 62.80 279.29 62.37ZM287.98 75.63L288.00 75.64L286.13 78.89L286.14 78.90Q282.16 85.63 276.77 91.45L276.83 91.50L276.88 91.56Q274.53 91.76 270.67 92.91L270.52 92.76L270.53 92.76Q278.23 83.87 282.74 77.02L282.68 76.96L282.80 77.08Q281.25 77.92 278.91 78.03L278.97 78.09L278.88 78.00Q274.55 78.18 272.37 75.35L272.40 75.38L272.46 75.45Q270.64 73.08 269.06 66.55L269.14 66.63L269.10 66.59Q269.18 66.01 268.96 64.68L268.89 64.61L268.95 64.67Q268.67 63.28 268.67 62.63L268.71 62.66L268.72 62.68Q268.70 60.10 270.23 59.23L270.18 59.19L270.24 59.25Q271.98 58.16 274.64 58.16L274.59 58.11L274.58 58.10Q279.11 58.06 279.11 58.06L279.28 58.22L279.20 58.14Q282.26 58.16 284.05 58.43L284.18 58.55L284.05 58.42Q287.13 58.85 288.44 59.55L288.48 59.59L288.53 59.65Q290.39 60.64 290.67 63.14L290.68 63.15L290.61 63.09Q290.68 63.48 290.40 67.28L290.31 67.19L290.49 67.36Q289.92 70.39 289.59 71.58L289.56 71.55L289.59 71.58Q288.95 73.49 287.86 75.50ZM290.64 79.00L290.62 78.97L290.54 78.90Q292.07 75.85 292.83 69.71L292.83 69.70L292.81 69.69Q293.26 66.60 293.20 65.35L293.11 65.25L293.21 65.36Q293.12 62.65 291.43 61.35L291.44 61.35L290.99 61.18L291.05 61.23Q290.58 60.06 289.28 59.14L289.20 59.06L289.20 59.06Q285.95 57.66 279.09 57.44L279.23 57.58L279.22 57.56Q277.69 57.40 274.21 57.40L274.28 57.46L274.23 57.42Q271.77 57.46 269.65 58.43L269.65 58.44L269.63 58.42Q268.11 59.67 268.21 62.28L268.18 62.24L268.09 62.15Q268.47 63.57 268.74 66.45L268.70 66.41L268.64 66.35Q269.55 70.14 269.94 71.34L269.87 71.28L269.93 71.34Q270.76 74.01 272.12 75.86L272.10 75.84L272.20 75.94Q272.41 76.27 272.96 76.81L273.04 76.89L273.09 76.95Q273.35 77.48 274.28 78.78L274.44 78.94L274.27 78.77Q276.42 80.77 279.20 81.04L279.29 81.13L279.32 81.16Q276.44 84.81 274.21 87.53L274.35 87.67L269.16 93.90L269.05 93.79Q272.32 92.76 274.66 92.27L274.65 92.27L274.77 92.38Q273.64 93.59 271.41 96.03L271.35 95.98L271.35 95.98Q275.81 94.73 280.27 94.68L280.20 94.60L280.33 94.73Q283.50 90.89 289.70 80.56L289.80 80.66L289.67 80.63L289.71 80.68Q290.17 79.72 290.66 79.01ZM282.03 65.76L281.93 65.66L281.95 65.68Q282.87 65.56 283.52 65.73L283.59 65.79L283.62 65.83Q284.46 65.90 285.00 66.07L285.01 66.07L284.94 66.00Q285.12 66.56 285.22 67.16L285.23 67.17L285.31 67.25Q285.35 67.77 285.18 68.31L285.27 68.40L285.28 68.41Q285.28 70.91 283.60 72.49L283.43 72.32L283.56 72.46Q282.20 73.92 279.86 73.87L279.82 73.82L279.88 73.89Q279.20 73.80 277.02 73.37L277.06 73.41L276.98 73.33Q276.77 72.19 276.77 71.15L276.74 71.13L276.61 71.00Q276.53 70.65 276.53 70.33L276.58 70.37L276.60 70.39Q276.54 67.18 279.80 66.04L279.86 66.09L279.76 66.00Q280.81 65.74 282.01 65.74Z"/><path d="M12 108 C171 128,185 115,329 62" stroke="#c9e084" fill="none"/><path d="M13 4 C186 38,174 136,324 136" stroke="#87e7e7" fill="none"/><path d="M5 105 C165 138,153 101,339 73" stroke="#e66e45" fill="none"/><path d="M4 44 C161 19,161 80,326 132" stroke="#4ab4d8" fill="none"/><path d="M1 22 C176 118,154 42,341 91" stroke="#efef8a" fill="none"/><path d="M2 21 C154 19,163 109,328 123" stroke="#e698bf" fill="none"/><path d="M6 121 C184 83,185 53,338 105" stroke="#c058e3" fill="none"/><path fill="#e679e6" d="M160.15 81.27L160.17 81.30L160.26 81.39Q164.55 80.73 169.12 80.90L169.21 80.98L169.15 80.93Q169.18 77.37 169.18 73.94L169.08 73.84L169.20 73.96Q169.08 70.30 169.35 66.66L169.39 66.70L169.33 66.64Q167.72 69.22 160.27 81.40ZM174.43 91.92L174.34 91.82L174.38 91.86Q172.08 91.53 169.53 91.42L169.41 91.30L169.52 91.41Q169.10 87.89 168.93 84.35L169.02 84.44L168.90 84.32Q161.29 84.05 154.55 86.06L154.60 86.11L154.56 86.08Q154.82 85.47 155.10 84.06L155.06 84.02L155.01 83.97Q157.60 79.49 162.72 70.52L162.72 70.52L162.80 70.60Q166.88 63.59 171.77 58.04L171.68 57.94L171.87 58.13Q173.05 57.80 175.45 57.42L175.32 57.29L175.44 57.41Q172.60 66.48 172.60 76.54L172.60 76.55L172.75 76.69Q172.61 78.68 172.72 80.80L172.89 80.96L174.74 81.13L174.71 81.10Q175.44 81.01 176.31 81.18L176.39 81.26L176.45 81.32Q176.52 82.63 176.90 85.41L176.98 85.49L176.85 85.36Q175.10 84.97 172.98 84.70L173.15 84.87L173.11 84.83Q173.36 87.64 174.34 91.82ZM176.80 80.74L176.85 80.79L176.79 80.73Q176.56 80.67 176.29 80.67L176.21 80.59L175.65 80.57L175.76 80.68Q175.50 78.47 175.50 76.45L175.46 76.41L175.44 76.39Q175.50 67.31 178.43 58.72L178.42 58.71L178.45 58.73Q177.43 59.19 175.37 59.73L175.23 59.59L175.33 59.70Q175.55 58.50 176.20 56.49L176.35 56.63L176.31 56.60Q174.37 57.05 171.43 57.38L171.46 57.40L171.58 57.52Q165.85 63.60 158.40 76.97L158.47 77.04L161.36 71.72L161.35 71.71Q160.82 73.25 160.44 74.06L160.55 74.17L154.18 87.05L154.00 86.87Q155.02 86.75 156.65 86.21L156.66 86.22L156.37 86.48L156.35 86.45Q156.33 87.57 155.89 89.37L155.81 89.28L155.77 89.24Q161.76 87.46 168.67 87.73L168.65 87.71L168.54 87.60Q168.70 89.07 168.97 91.89L168.85 91.77L169.03 91.95Q170.38 91.78 171.90 91.94L171.91 91.95L172.03 92.07Q172.21 93.01 172.59 94.97L172.67 95.05L172.66 95.04Q175.32 95.31 179.62 96.61L179.52 96.51L179.65 96.64Q178.17 93.54 176.87 88.86L176.96 88.95L179.02 89.60L178.88 89.45Q179.96 89.88 180.94 90.37L180.91 90.35L180.81 90.25Q179.76 86.75 179.54 84.35L179.48 84.29L179.62 84.43Q178.71 84.12 177.08 83.79L177.09 83.81L177.15 83.87Q176.72 81.91 176.72 80.66ZM165.41 80.55L165.29 80.43L165.33 80.47Q166.51 78.72 168.74 75.08L168.67 75.01L168.57 74.91Q168.67 76.37 168.62 77.73L168.64 77.74L168.61 77.72Q168.64 79.16 168.69 80.52L168.76 80.58L168.61 80.44Q167.84 80.43 167.03 80.43L167.08 80.48L166.97 80.38Q166.30 80.58 165.43 80.58Z"/><path fill="#4fe2e2" d="M52.40 75.88L52.34 75.82L52.35 75.83Q49.69 75.62 47.93 77.66L47.96 77.69L47.95 77.68Q46.23 79.76 45.95 82.48L45.91 82.44L46.04 82.57Q45.58 85.37 47.13 86.76L47.25 86.88L47.12 86.75Q48.73 88.20 51.72 88.04L51.72 88.03L51.65 87.96Q54.84 87.94 56.41 86.96L56.38 86.93L56.25 86.80Q57.93 85.26 57.93 83.03L58.03 83.14L57.86 82.97Q57.89 82.45 57.78 81.91L57.80 81.92L57.90 82.03Q57.96 79.58 56.38 77.65L56.39 77.66L56.39 77.66Q54.86 75.78 52.46 75.94ZM51.83 91.78L51.78 91.73L51.74 91.69Q45.51 91.72 43.50 90.63L43.50 90.63L43.50 90.64Q42.11 89.63 41.84 87.18L41.88 87.22L41.81 87.15Q41.73 86.14 41.78 85.11L41.81 85.13L41.77 85.09Q41.96 83.71 41.96 83.06L41.87 82.97L41.86 82.96Q42.63 79.00 42.85 78.02L42.88 78.04L42.78 77.95Q43.57 75.31 44.77 73.30L44.60 73.13L44.58 73.11Q48.42 66.89 56.90 57.81L56.98 57.89L56.89 57.80Q60.77 57.43 63.92 56.29L63.92 56.29L63.86 56.23Q54.19 67.01 49.63 73.05L49.56 72.98L49.65 73.07Q50.99 72.29 52.84 72.29L52.83 72.29L52.76 72.21Q57.64 72.36 59.82 75.14L59.80 75.11L59.65 74.97Q61.64 77.40 62.13 82.45L62.23 82.55L62.18 82.50Q62.15 83.39 62.15 84.26L62.30 84.42L62.18 84.30Q62.25 88.83 59.10 90.35L59.17 90.43L59.09 90.34Q57.26 91.12 51.71 91.67ZM54.96 95.08L55.07 95.19L55.08 95.20Q56.97 95.19 59.80 95.30L59.73 95.22L59.80 95.29Q62.05 95.32 64.28 94.28L64.36 94.36L64.37 94.38Q65.82 93.10 65.82 90.54L65.92 90.65L65.90 90.63Q65.92 89.94 65.67 88.52L65.71 88.57L65.54 88.40Q65.39 87.07 65.39 86.42L65.34 86.37L65.36 86.39Q64.12 79.65 61.83 76.93L61.90 77.00L61.87 76.97Q61.79 76.83 61.57 76.51L61.59 76.53L61.12 76.16L60.91 76.01L61.08 76.18Q60.44 75.32 59.57 73.96L59.67 74.06L59.62 74.02Q58.41 72.75 55.58 72.10L55.43 71.94L55.45 71.97Q57.25 69.74 61.49 64.46L61.47 64.44L67.59 56.97L67.51 56.89Q65.24 58.10 61.82 59.19L61.90 59.27L61.90 59.27Q63.24 57.89 65.80 55.06L65.76 55.03L65.81 55.07Q62.27 56.48 56.72 57.30L56.76 57.34L56.72 57.30Q48.67 65.84 44.43 72.91L44.27 72.75L44.26 72.74Q42.15 76.40 41.34 85.32L41.32 85.30L41.28 85.25Q41.23 86.13 41.34 87.49L41.34 87.49L41.30 87.45Q41.43 89.98 43.01 91.29L42.97 91.25L43.04 91.31Q43.68 91.62 43.62 91.68L43.46 91.52L43.62 91.68Q43.99 92.81 45.13 93.41L45.28 93.56L45.27 93.54Q47.31 94.50 50.09 94.77L50.08 94.77L50.13 94.82Q49.98 94.66 54.98 95.10ZM54.68 79.08L54.72 79.12L54.76 79.16Q55.53 78.95 56.89 79.65L56.93 79.70L56.95 79.72Q57.46 81.10 57.46 82.02L57.38 81.94L57.50 82.06Q57.62 84.58 56.26 85.99L56.26 86.00L56.30 86.03Q54.86 87.15 51.87 87.58L51.82 87.53L51.75 87.46Q49.82 87.60 49.06 87.22L48.95 87.11L48.90 87.06Q48.77 86.55 48.77 86.12L48.71 86.05L48.61 85.95Q48.33 81.32 52.51 79.47L52.59 79.54L52.62 79.57Q53.61 78.99 54.70 79.10Z"/><path d="M13 121 C155 73,160 51,322 130" stroke="#87e2b5" fill="none"/><path d="M2 21 C178 105,151 93,334 47" stroke="#4bd26d" fill="none"/><path d="M13 29 C153 31,160 126,339 63" stroke="#ee85ee" fill="none"/><path d="M2 22 C176 132,159 25,332 9" stroke="#9a83e1" fill="none"/><path d="M7 99 C169 107,184 32,335 46" stroke="#eaea6a" fill="none"/><path d="M3 120 C184 62,164 57,322 114" stroke="#e1653b" fill="none"/><path d="M15 47 C171 78,177 76,331 75" stroke="#e35dc2" fill="none"/><path d="M7 31 C181 95,162 119,328 4" stroke="#e3ba3f" fill="none"/><path d="M2 124 C160 63,169 114,341 119" stroke="#e5e584" fill="none"/><path d="M6 126 C163 22,168 20,340 54" stroke="#e89e86" fill="none"/><path d="M8 71 C154 105,176 126,327 115" stroke="#62debf" fill="none"/><path fill="#ad6ced" d="M217.77 91.88L217.79 91.91L217.84 91.96Q215.82 92.06 213.59 91.46L213.53 91.40L213.52 91.39Q211.87 90.17 211.65 87.84L211.65 87.84L211.59 87.77Q211.54 87.51 211.82 83.76L211.82 83.76L211.85 83.79Q213.26 83.46 216.15 82.92L216.08 82.85L215.87 84.01L215.91 84.04Q215.51 86.52 217.52 87.34L217.56 87.38L217.56 87.38Q218.60 87.77 221.59 87.77L221.70 87.88L221.67 87.84Q223.95 87.63 224.23 87.52L224.29 87.58L224.21 87.50Q225.61 87.38 226.64 86.67L226.59 86.62L226.59 86.62Q228.59 85.25 228.32 82.26L228.29 82.23L228.26 82.20Q227.98 78.71 225.51 76.48L225.51 76.49L225.46 76.44Q223.13 74.35 219.60 74.35L219.61 74.37L219.64 74.06L219.45 73.88Q220.03 73.86 221.29 73.76L221.26 73.73L221.43 73.90Q224.03 73.61 225.99 71.85L226.11 71.97L225.95 71.81Q227.88 70.02 228.10 67.35L228.26 67.51L228.18 67.43Q228.36 67.01 228.36 66.52L228.24 66.41L228.35 66.52Q228.31 64.30 226.35 63.00L226.40 63.05L226.35 63.00Q224.56 61.80 222.27 61.96L222.34 62.03L222.24 61.93Q220.41 61.73 218.67 62.33L218.77 62.43L218.80 62.46Q216.75 63.24 216.31 64.87L216.21 64.77L216.26 64.81Q215.99 65.90 216.09 66.99L216.07 66.96L215.97 66.87Q214.66 66.70 211.72 65.66L211.66 65.59L211.62 65.56Q211.24 63.11 211.29 61.91L211.45 62.07L211.43 62.05Q211.57 59.86 213.10 58.88L213.02 58.80L213.01 58.79Q214.99 57.89 217.28 57.89L217.31 57.93L217.45 58.06Q221.98 58.02 226.49 58.40L226.45 58.36L226.42 58.33Q233.55 58.83 233.12 64.22L233.21 64.30L233.23 64.33Q233.05 66.38 232.34 68.61L232.46 68.72L232.46 68.73Q231.17 73.14 227.79 74.44L227.73 74.38L227.67 74.32Q231.53 75.19 232.40 79.98L232.28 79.85L232.38 79.96Q232.72 81.60 232.83 84.48L232.76 84.42L232.66 84.32Q233.05 90.85 226.47 91.50L226.30 91.33L226.37 91.40Q225.37 91.55 217.81 91.93ZM225.19 95.06L225.27 95.14L225.24 95.11Q226.18 95.24 230.26 95.35L230.20 95.28L230.30 95.39Q232.66 95.36 235.00 94.43L235.08 94.51L235.12 94.56Q236.77 93.15 236.49 90.65L236.43 90.58L236.53 90.69Q236.22 88.63 235.78 86.13L235.88 86.23L235.86 86.21Q234.77 79.74 232.00 77.40L231.97 77.37L231.76 76.89L231.72 76.79L231.66 76.73Q234.22 74.72 235.31 68.47L235.30 68.46L235.24 68.40Q235.29 67.75 235.46 66.39L235.61 66.55L235.57 66.50Q235.54 65.28 235.43 64.30L235.53 64.40L235.54 64.41Q235.38 62.07 233.53 61.09L233.50 61.06L233.40 61.07L233.45 61.12Q232.87 59.57 231.24 58.81L231.29 58.85L231.31 58.87Q229.12 57.88 221.78 57.45L221.68 57.34L221.86 57.53Q219.29 57.24 217.01 57.24L217.12 57.35L217.02 57.25Q214.79 57.31 212.61 58.23L212.62 58.24L212.61 58.22Q210.88 59.32 210.88 61.82L210.80 61.74L210.91 61.86Q210.92 61.27 211.30 66.06L211.26 66.01L211.30 66.06Q211.80 66.23 214.14 67.10L214.01 66.97L214.13 67.09Q214.00 67.72 213.95 68.43L214.00 68.49L214.04 68.52Q213.96 69.15 214.01 69.91L214.11 70.01L213.97 69.86Q216.66 70.55 219.55 70.71L219.44 70.61L219.56 70.72Q219.34 67.73 220.92 66.54L221.02 66.64L220.92 66.53Q222.10 65.60 224.99 65.27L224.94 65.23L225.09 65.38Q226.73 65.39 227.55 65.66L227.54 65.65L227.54 65.65Q227.61 65.83 227.66 65.99L227.65 65.98L227.61 66.21L227.69 66.95L227.82 67.08Q227.66 67.19 227.61 67.40L227.71 67.51L227.69 67.49Q227.67 70.02 225.49 71.71L225.44 71.66L225.44 71.66Q224.02 72.85 221.14 73.12L221.24 73.22L221.18 73.16Q220.12 73.35 218.87 73.35L218.98 73.46L218.86 73.35Q218.98 73.90 219.20 74.88L219.18 74.85L219.29 74.97Q221.69 74.87 223.76 75.90L223.85 75.99L223.72 76.02L221.39 76.20L221.45 76.25Q221.40 76.65 221.57 77.52L221.54 77.49L221.52 77.47Q224.74 77.54 227.19 79.44L227.09 79.35L227.12 79.37Q227.34 79.81 227.78 82.15L227.80 82.18L227.82 82.20Q228.14 86.43 223.96 87.03L223.97 87.05L223.99 87.07Q221.05 87.50 220.23 87.44L220.14 87.35L220.15 87.36Q219.53 87.23 218.77 87.12L218.63 86.98L218.81 86.51L218.91 85.79L219.04 85.32L219.05 84.84L219.07 84.86Q217.69 84.96 216.55 85.23L216.47 85.14L216.51 85.19Q216.42 84.83 216.42 84.56L216.37 84.50L216.52 84.65Q216.58 84.39 216.58 84.06L216.50 83.98L216.40 83.88Q216.55 83.37 216.76 82.34L216.86 82.44L216.83 82.41Q214.07 82.64 211.40 83.13L211.49 83.21L211.48 83.20Q211.40 83.83 211.24 85.44L211.29 85.49L211.36 85.55Q211.03 87.00 211.03 87.87L211.11 87.95L211.19 88.03Q211.12 90.78 213.08 91.87L213.24 92.03L213.10 91.90Q215.29 95.22 222.03 94.95L222.11 95.03L221.98 94.90Q223.10 94.93 225.28 95.15Z"/><path d="M4 10 C151 109,187 127,324 75" stroke="#e787cf" fill="none"/><path d="M4 85 C174 51,155 105,326 11" stroke="#d5486b" fill="none"/><path d="M9 56 C175 4,176 99,331 138" stroke="#e3a362" fill="none"/></svg>