<svg xmlns="http://www.w3.org/2000/svg" width="342" height="140" viewBox="0,0,342,140"><path d="M17 123 C179 10,163 108,325 71" stroke="#5fdd7e" fill="none"/><path fill="#af7ee0" d="M51.20 77.46L51.12 77.39L51.25 77.52Q47.93 77.31 45.67 79.91L45.56 79.80L45.73 79.97Q43.47 82.56 43.12 86.03L42.99 85.90L43.01 85.92Q42.56 89.62 44.53 91.39L44.59 91.45L44.60 91.46Q46.67 93.32 50.48 93.11L50.34 92.97L50.40 93.03Q54.22 92.76 56.23 91.51L56.23 91.51L56.18 91.46Q58.26 89.45 58.26 86.61L58.28 86.62L58.29 86.63Q58.26 85.91 58.12 85.22L58.25 85.35L58.25 85.35Q58.26 82.17 56.25 79.70L56.28 79.74L56.22 79.68Q54.25 77.26 51.20 77.47ZM50.50 97.78L50.51 97.78L50.46 97.74Q42.44 97.69 39.87 96.30L39.88 96.31L39.85 96.28Q38.00 94.92 37.66 91.80L37.70 91.84L37.62 91.76Q37.65 90.61 37.72 89.29L37.75 89.32L37.71 89.28Q37.85 87.42 37.85 86.58L37.86 86.59L37.86 86.59Q38.65 81.35 38.93 80.10L38.99 80.17L39.00 80.18Q39.82 76.62 41.34 74.06L41.35 74.06L41.45 74.16Q46.16 66.05 56.98 54.47L57.04 54.53L57.01 54.50Q61.89 53.97 65.92 52.52L65.96 52.56L65.99 52.59Q53.52 66.20 47.70 73.89L47.58 73.77L47.62 73.81Q49.49 72.98 51.85 72.98L51.68 72.82L51.73 72.87Q57.77 72.87 60.54 76.41L60.55 76.42L60.60 76.46Q63.07 79.49 63.70 85.94L63.71 85.95L63.71 85.96Q63.77 87.19 63.77 88.30L63.70 88.23L63.68 88.21Q63.86 94.07 59.83 96.02L59.84 96.02L59.75 95.93Q57.59 97.10 50.52 97.79ZM54.59 102.07L54.54 102.02L54.55 102.03Q57.03 102.09 60.64 102.23L60.54 102.13L60.64 102.23Q63.60 102.35 66.45 101.03L66.49 101.08L66.40 100.98Q68.44 99.56 68.44 96.30L68.36 96.22L68.51 96.37Q68.34 95.30 68.03 93.50L68.16 93.63L68.03 93.49Q67.88 91.85 67.88 91.02L67.76 90.90L67.74 90.88Q66.20 82.34 63.29 78.87L63.35 78.94L63.24 78.83Q63.14 78.66 62.86 78.24L62.89 78.27L62.31 77.82L62.17 77.76L62.18 77.76Q61.50 76.81 60.39 75.07L60.37 75.06L60.47 75.16Q58.85 73.47 55.25 72.64L55.26 72.65L55.15 72.54Q57.47 69.73 62.88 63.00L62.83 62.95L70.42 53.21L70.46 53.25Q67.76 54.98 63.39 56.37L63.31 56.29L63.27 56.25Q65.04 54.56 68.30 50.95L68.19 50.84L68.23 50.88Q63.79 52.75 56.71 53.79L56.84 53.91L56.76 53.83Q46.38 64.60 40.97 73.62L41.03 73.67L40.95 73.59Q38.12 78.11 37.08 89.48L37.13 89.54L37.17 89.57Q36.94 90.52 37.08 92.26L37.20 92.38L37.08 92.26Q37.21 95.44 39.22 97.10L39.39 97.27L39.26 97.14Q40.07 97.53 40.00 97.60L39.85 97.46L39.86 97.46Q40.62 99.20 42.08 99.96L42.06 99.94L42.03 99.92Q44.72 101.22 48.25 101.56L48.15 101.45L48.26 101.57Q48.16 101.47 54.54 102.02ZM54.19 81.64L54.27 81.72L54.23 81.67Q55.19 81.38 56.92 82.28L56.98 82.35L56.97 82.33Q57.65 84.12 57.65 85.30L57.52 85.17L57.63 85.28Q57.97 88.68 56.24 90.48L56.27 90.51L56.24 90.48Q54.32 91.82 50.50 92.37L50.52 92.39L50.45 92.31Q47.79 92.29 46.82 91.80L46.79 91.78L46.87 91.86Q46.43 90.93 46.43 90.37L46.58 90.53L46.52 90.47Q46.13 84.53 51.47 82.17L51.37 82.07L51.49 82.20Q52.85 81.54 54.23 81.68Z"/><path d="M4 41 C179 92,186 128,326 101" stroke="#3763e6" fill="none"/><path d="M3 40 C192 17,165 28,331 98" stroke="#9be881" fill="none"/><path d="M7 64 C162 101,189 15,333 45" stroke="#d44368" fill="none"/><path d="M12 91 C179 112,159 69,327 52" stroke="#e443e4" fill="none"/><path d="M2 122 C184 93,156 15,340 25" stroke="#ebeb89" fill="none"/><path d="M13 10 C170 121,183 16,325 26" stroke="#71dea8" fill="none"/><path d="M9 117 C187 92,164 9,330 111" stroke="#e94396" fill="none"/><path d="M11 8 C154 56,165 82,331 83" stroke="#e85ee8" fill="none"/><path fill="#7777e8" d="M214.19 84.46L214.14 84.41L214.14 84.41Q219.87 83.83 225.69 84.04L225.60 83.94L225.63 83.97Q225.68 79.45 225.68 75.08L225.59 74.99L225.60 75.00Q225.60 70.49 225.95 65.85L225.88 65.78L225.84 65.74Q223.64 68.88 214.14 84.41ZM232.23 97.85L232.23 97.86L232.34 97.97Q229.11 97.24 225.85 97.10L225.99 97.23L225.85 97.09Q225.67 92.96 225.46 88.45L225.37 88.36L225.46 88.45Q215.61 87.96 207.01 90.52L207.11 90.62L207.04 90.55Q207.21 89.61 207.55 87.81L207.58 87.84L207.72 87.97Q210.93 82.18 217.45 70.74L217.43 70.71L217.48 70.76Q222.64 61.78 228.88 54.70L228.88 54.71L228.93 54.76Q230.52 54.40 233.57 53.92L233.63 53.97L233.49 53.84Q230.17 65.70 230.17 78.53L230.10 78.46L230.14 78.51Q230.14 81.20 230.28 83.91L230.19 83.82L232.58 84.07L232.57 84.05Q233.73 84.17 234.84 84.38L234.81 84.35L234.76 84.30Q235.06 86.19 235.54 89.73L235.58 89.76L235.56 89.74Q233.19 89.11 230.49 88.76L230.53 88.81L230.54 88.82Q231.07 92.61 232.32 97.95ZM235.31 83.67L235.34 83.70L235.32 83.68Q234.96 83.53 234.62 83.53L234.61 83.53L234.01 83.62L233.83 83.44Q233.63 80.74 233.63 78.18L233.65 78.20L233.65 78.19Q233.67 66.57 237.42 55.62L237.37 55.56L237.40 55.59Q236.04 56.11 233.40 56.80L233.38 56.78L233.46 56.85Q233.79 55.38 234.62 52.81L234.69 52.89L234.63 52.82Q232.37 53.61 228.62 54.03L228.52 53.93L228.59 53.99Q221.44 61.89 211.94 78.95L211.98 78.99L215.75 72.29L215.82 72.37Q214.92 74.10 214.44 75.14L214.44 75.14L206.33 91.58L206.42 91.67Q207.63 91.43 209.71 90.73L209.62 90.64L209.34 91.06L209.41 91.12Q209.07 92.23 208.51 94.52L208.55 94.56L208.70 94.71Q215.99 92.09 224.80 92.44L224.88 92.51L224.99 92.63Q224.92 94.22 225.27 97.83L225.22 97.78L225.26 97.82Q227.32 97.94 229.26 98.15L229.18 98.06L229.13 98.01Q229.55 99.40 230.03 101.90L230.03 101.90L230.04 101.90Q233.40 102.21 238.88 103.88L238.87 103.87L238.87 103.88Q237.15 100.07 235.49 94.11L235.41 94.03L238.02 94.84L238.13 94.95Q239.24 95.23 240.49 95.85L240.56 95.92L240.66 96.03Q239.13 91.38 238.86 88.33L238.93 88.40L238.87 88.34Q237.70 87.93 235.62 87.52L235.77 87.67L235.73 87.63Q235.26 85.22 235.26 83.62ZM220.73 83.38L220.68 83.33L220.80 83.44Q222.15 81.05 225.00 76.41L224.96 76.38L224.88 76.29Q225.04 78.18 224.97 79.92L224.88 79.83L224.87 79.81Q224.95 81.70 225.01 83.43L224.94 83.36L224.90 83.31Q223.90 83.28 222.86 83.28L222.91 83.33L222.89 83.32Q221.92 83.46 220.81 83.46Z"/><path d="M7 97 C178 52,187 88,329 121" stroke="#4168dc" fill="none"/><path d="M4 30 C181 52,175 6,323 25" stroke="#87e2cb" fill="none"/><path d="M16 23 C178 49,181 19,326 42" stroke="#e15fa0" fill="none"/><path d="M9 88 C160 93,180 17,336 46" stroke="#e34949" fill="none"/><path d="M13 9 C178 112,181 1,336 4" stroke="#da6280" fill="none"/><path d="M21 49 C185 128,181 29,328 25" stroke="#d95dba" fill="none"/><path d="M14 100 C184 112,153 72,324 50" stroke="#96e546" fill="none"/><path d="M12 113 C183 113,153 70,339 43" stroke="#e664a5" fill="none"/><path d="M7 11 C174 126,156 57,328 104" stroke="#79b2eb" fill="none"/><path d="M21 2 C164 83,155 39,340 26" stroke="#6f4bdc" fill="none"/><path d="M15 23 C175 65,154 129,327 36" stroke="#eaaa6a" fill="none"/><path fill="#e5c975" d="M271.95 97.86L272.12 98.03L271.99 97.90Q269.52 98.14 266.68 97.38L266.67 97.37L266.65 97.35Q264.39 95.64 264.11 92.66L264.11 92.66L264.17 92.72Q264.12 92.39 264.47 87.61L264.40 87.54L264.33 87.47Q266.21 87.13 269.89 86.44L269.99 86.54L269.67 87.96L269.52 87.81Q269.08 91.04 271.64 92.08L271.64 92.08L271.75 92.18Q273.06 92.66 276.87 92.66L277.05 92.84L276.93 92.72Q279.93 92.53 280.27 92.39L280.28 92.40L280.27 92.38Q281.97 92.15 283.29 91.25L283.16 91.12L283.14 91.09Q285.83 89.49 285.49 85.67L285.51 85.70L285.37 85.55Q285.06 81.15 281.90 78.31L281.97 78.38L281.96 78.37Q278.68 75.40 274.17 75.40L274.27 75.50L274.32 75.13L274.30 75.12Q274.96 75.01 276.55 74.87L276.53 74.84L276.45 74.76Q279.98 74.62 282.48 72.37L282.52 72.41L282.47 72.36Q284.92 70.06 285.19 66.66L285.30 66.77L285.22 66.69Q285.43 66.14 285.43 65.51L285.32 65.40L285.40 65.48Q285.44 62.74 282.94 61.08L282.94 61.08L282.90 61.04Q280.63 59.53 277.72 59.74L277.76 59.78L277.73 59.75Q275.50 59.60 273.28 60.37L273.13 60.21L273.19 60.27Q270.48 61.16 269.92 63.24L269.98 63.30L269.97 63.29Q269.62 64.68 269.76 66.06L269.73 66.04L269.73 66.04Q267.87 65.63 264.12 64.31L264.14 64.33L264.19 64.38Q263.70 61.25 263.77 59.72L263.83 59.79L263.94 59.90Q264.00 56.97 265.94 55.73L266.06 55.84L265.91 55.70Q268.59 54.70 271.50 54.70L271.46 54.66L271.42 54.62Q277.27 54.64 283.02 55.13L282.96 55.07L282.99 55.10Q292.19 55.84 291.64 62.70L291.65 62.71L291.69 62.75Q291.52 65.43 290.62 68.27L290.61 68.26L290.54 68.19Q288.90 73.83 284.60 75.50L284.73 75.63L284.65 75.54Q289.46 76.55 290.57 82.65L290.51 82.58L290.49 82.57Q290.93 84.67 291.07 88.35L291.08 88.35L291.19 88.46Q291.41 96.52 283.02 97.35L282.94 97.28L283.02 97.35Q281.68 97.47 272.04 97.96ZM281.61 102.11L281.58 102.08L281.44 101.94Q282.61 102.07 287.81 102.21L287.93 102.33L287.78 102.19Q291.12 102.47 294.10 101.29L294.11 101.30L294.07 101.26Q296.08 99.39 295.73 96.20L295.91 96.37L295.86 96.32Q295.53 93.78 294.98 90.59L295.11 90.72L294.99 90.60Q293.69 82.44 290.16 79.46L290.25 79.55L289.80 78.75L289.87 78.76L289.84 78.73Q293.00 76.06 294.39 68.09L294.31 68.01L294.37 68.07Q294.49 67.29 294.70 65.56L294.68 65.53L294.66 65.52Q294.81 64.14 294.67 62.89L294.72 62.94L294.57 62.79Q294.44 59.89 292.08 58.64L292.07 58.63L291.83 58.52L291.87 58.56Q291.30 56.75 289.22 55.78L289.20 55.76L289.23 55.79Q286.41 54.49 277.05 53.94L277.03 53.92L277.03 53.92Q274.04 53.85 271.13 53.85L271.18 53.89L271.14 53.86Q268.18 53.81 265.41 54.99L265.44 55.01L265.49 55.07Q263.30 56.49 263.30 59.68L263.25 59.63L263.31 59.68Q263.17 58.78 263.66 64.89L263.68 64.90L263.68 64.91Q264.25 65.07 267.24 66.18L267.29 66.23L267.23 66.17Q267.20 67.11 267.13 68.01L267.11 67.99L267.20 68.08Q267.24 69.02 267.31 69.99L267.24 69.92L267.30 69.98Q270.50 70.62 274.18 70.83L274.19 70.84L274.08 70.74Q273.95 67.06 275.96 65.54L276.12 65.70L276.06 65.64Q277.61 64.49 281.29 64.07L281.33 64.12L281.23 64.02Q283.40 64.10 284.44 64.45L284.39 64.40L284.31 64.32Q284.50 64.65 284.57 64.85L284.54 64.83L284.52 65.15L284.71 66.18L284.69 66.16Q284.78 66.60 284.71 66.87L284.60 66.76L284.56 66.72Q284.44 69.86 281.66 72.01L281.65 72.00L281.67 72.02Q280.17 73.84 276.49 74.18L276.39 74.08L276.50 74.19Q275.04 74.33 273.44 74.33L273.53 74.41L273.40 74.28Q273.65 75.09 273.93 76.34L273.79 76.20L273.79 76.20Q277.11 76.33 279.75 77.65L279.64 77.54L279.52 77.63L276.59 77.88L276.52 77.82Q276.61 78.47 276.82 79.58L276.87 79.63L276.98 79.74Q280.74 79.47 283.86 81.90L283.90 81.93L283.87 81.91Q284.23 82.55 284.79 85.53L284.77 85.52L284.88 85.63Q285.25 90.99 279.91 91.75L279.83 91.67L279.85 91.69Q276.08 92.21 275.04 92.14L274.92 92.02L275.06 92.16Q274.27 92.00 273.30 91.86L273.13 91.69L273.21 90.94L273.35 90.04L273.54 89.47L273.48 88.79L273.65 88.96Q271.79 88.96 270.33 89.31L270.27 89.25L270.33 89.31Q270.37 89.01 270.37 88.66L270.21 88.50L270.28 88.57Q270.32 88.19 270.32 87.78L270.33 87.79L270.37 87.82Q270.37 86.99 270.65 85.67L270.71 85.74L270.63 85.66Q267.40 86.24 264.00 86.86L263.84 86.70L263.83 86.69Q263.90 87.67 263.70 89.71L263.64 89.66L263.68 89.70Q263.48 91.75 263.48 92.86L263.44 92.82L263.58 92.96Q263.56 96.54 266.05 97.93L266.05 97.93L266.14 98.02Q268.92 102.25 277.52 101.91L277.47 101.86L277.46 101.85Q278.77 101.77 281.54 102.04Z"/><path d="M12 1 C189 42,166 74,336 3" stroke="#e4ce8a" fill="none"/><path d="M17 109 C169 112,158 130,335 37" stroke="#5858e3" fill="none"/><path d="M14 71 C177 35,174 89,340 43" stroke="#9797e7" fill="none"/><path d="M18 49 C164 14,158 10,336 128" stroke="#a0e45c" fill="none"/><path d="M21 111 C177 24,157 96,341 90" stroke="#5bc7ea" fill="none"/><path d="M18 34 C170 49,191 81,321 61" stroke="#58d9b9" fill="none"/><path d="M8 123 C175 24,161 24,335 83" stroke="#83d5f0" fill="none"/><path d="M17 62 C190 18,192 4,334 57" stroke="#48d991" fill="none"/><path d="M10 127 C156 39,172 109,337 82" stroke="#ed7c98" fill="none"/><path d="M11 90 C186 37,167 46,329 12" stroke="#81ed81" fill="none"/><path d="M16 113 C167 92,154 132,332 75" stroke="#7ede5e" fill="none"/><path d="M16 67 C170 55,179 25,336 56" stroke="#45d38c" fill="none"/><path fill="#ed7c98" d="M157.47 84.41L157.60 84.54L157.53 84.47Q163.23 83.86 169.05 84.06L168.93 83.95L169.03 84.05Q169.01 79.44 169.01 75.07L169.01 75.08L168.95 75.02Q168.87 70.43 169.22 65.79L169.28 65.85L169.24 65.81Q166.98 68.89 157.48 84.42ZM175.61 97.91L175.60 97.89L175.54 97.83Q172.59 97.38 169.34 97.24L169.18 97.09L169.29 97.20Q168.87 92.83 168.66 88.32L168.63 88.29L168.65 88.31Q159.06 88.08 150.46 90.64L150.37 90.55L150.42 90.60Q150.69 89.76 151.04 87.96L151.01 87.94L151.03 87.95Q154.22 82.13 160.73 70.68L160.82 70.77L160.80 70.75Q165.96 61.77 172.20 54.69L172.28 54.77L172.35 54.84Q173.91 54.46 176.97 53.98L176.93 53.94L176.88 53.89Q173.47 65.67 173.47 78.50L173.43 78.46L173.44 78.47Q173.35 81.08 173.48 83.78L173.57 83.87L175.96 84.11L176.00 84.14Q177.03 84.14 178.14 84.34L178.09 84.29L178.16 84.36Q178.40 86.20 178.88 89.73L178.78 89.63L178.89 89.74Q176.64 89.23 173.94 88.88L173.94 88.88L173.83 88.78Q174.38 92.58 175.62 97.92ZM178.66 83.69L178.69 83.71L178.71 83.74Q178.30 83.53 177.95 83.53L177.95 83.53L177.22 83.49L177.18 83.45Q177.01 80.79 177.01 78.22L176.95 78.16L177.00 78.22Q177.11 66.68 180.86 55.72L180.76 55.62L180.81 55.68Q179.39 56.12 176.75 56.82L176.73 56.79L176.86 56.92Q177.25 55.51 178.08 52.95L177.94 52.80L178.06 52.93Q175.70 53.61 171.95 54.03L171.95 54.03L171.97 54.04Q164.68 61.80 155.18 78.86L155.31 78.99L158.99 72.20L159.03 72.24Q158.33 74.17 157.84 75.21L157.79 75.16L149.72 91.64L149.77 91.69Q150.94 91.40 153.02 90.71L152.92 90.60L152.62 91.00L152.76 91.14Q152.53 92.36 151.97 94.65L151.96 94.64L151.95 94.63Q159.35 92.11 168.15 92.46L168.31 92.62L168.15 92.45Q168.36 94.32 168.70 97.93L168.66 97.89L168.55 97.78Q170.51 97.79 172.45 98.00L172.54 98.09L172.57 98.12Q172.86 99.38 173.35 101.88L173.24 101.78L173.34 101.87Q176.69 102.17 182.17 103.83L182.29 103.96L182.20 103.87Q180.48 100.07 178.82 94.11L178.72 94.01L181.37 94.86L181.35 94.84Q182.70 95.35 183.95 95.98L183.93 95.96L183.87 95.90Q182.43 91.34 182.15 88.29L182.13 88.26L182.12 88.26Q181.13 88.03 179.05 87.61L178.99 87.55L179.02 87.58Q178.72 85.34 178.72 83.74ZM164.05 83.36L164.12 83.43L164.04 83.35Q165.55 81.12 168.40 76.47L168.26 76.34L168.40 76.47Q168.30 78.11 168.23 79.84L168.31 79.92L168.24 79.86Q168.30 81.71 168.36 83.45L168.40 83.48L168.31 83.39Q167.30 83.35 166.26 83.35L166.31 83.40L166.27 83.36Q165.11 83.32 164.00 83.32Z"/><path d="M21 55 C172 97,160 47,336 69" stroke="#4f74e2" fill="none"/><path d="M7 79 C174 45,161 116,324 1" stroke="#7fe0e0" fill="none"/><path d="M12 110 C184 91,158 18,328 124" stroke="#e49980" fill="none"/><path d="M4 80 C154 94,159 135,332 62" stroke="#d07feb" fill="none"/><path d="M10 34 C186 113,163 101,332 28" stroke="#3b65e1" fill="none"/><path d="M17 131 C184 62,188 135,326 118" stroke="#e15ac0" fill="none"/><path fill="#71afee" d="M100.88 84.48L100.83 84.44L100.80 84.41Q106.56 83.85 112.38 84.06L112.28 83.96L112.23 83.91Q112.31 79.41 112.31 75.04L112.25 74.98L112.21 74.94Q112.27 70.50 112.62 65.85L112.57 65.80L112.68 65.92Q110.33 68.91 100.83 84.44ZM118.95 97.91L118.94 97.90L118.88 97.84Q115.82 97.28 112.56 97.14L112.52 97.10L112.56 97.14Q112.26 92.88 112.05 88.37L112.00 88.33L112.09 88.42Q102.43 88.11 93.83 90.68L93.84 90.69L93.74 90.59Q93.89 89.63 94.24 87.83L94.23 87.82L94.28 87.87Q97.64 82.22 104.16 70.78L104.03 70.65L104.15 70.77Q109.37 61.84 115.61 54.77L115.50 54.65L115.58 54.73Q117.08 54.30 120.13 53.81L120.28 53.96L120.17 53.85Q116.78 65.65 116.78 78.48L116.84 78.53L116.69 78.39Q116.71 81.11 116.85 83.81L117.00 83.96L119.26 84.07L119.20 84.01Q120.36 84.14 121.47 84.34L121.42 84.29L121.41 84.29Q121.63 86.10 122.11 89.63L122.20 89.72L122.13 89.65Q119.86 89.11 117.16 88.77L117.21 88.82L117.31 88.92Q117.67 92.54 118.92 97.88ZM122.06 83.75L121.98 83.68L121.88 83.58Q121.60 83.50 121.26 83.50L121.20 83.45L120.50 83.44L120.60 83.54Q120.30 80.74 120.30 78.18L120.29 78.17L120.30 78.18Q120.28 66.52 124.03 55.56L124.17 55.70L124.11 55.65Q122.81 56.21 120.18 56.91L120.02 56.75L120.02 56.75Q120.45 55.38 121.28 52.81L121.27 52.81L121.28 52.81Q118.90 53.48 115.16 53.90L115.23 53.97L115.22 53.97Q108.12 61.91 98.62 78.97L98.67 79.01L102.33 72.21L102.32 72.20Q101.65 74.16 101.16 75.20L101.13 75.17L93.09 91.67L93.15 91.73Q94.24 91.36 96.32 90.67L96.22 90.57L95.98 91.02L96.04 91.09Q95.82 92.32 95.27 94.61L95.29 94.64L95.33 94.68Q102.76 92.19 111.56 92.53L111.53 92.50L111.48 92.45Q111.66 94.29 112.01 97.90L112.07 97.96L111.99 97.89Q113.93 97.88 115.87 98.09L115.92 98.14L115.88 98.10Q116.14 99.33 116.62 101.82L116.69 101.89L116.68 101.88Q120.15 102.30 125.63 103.97L125.55 103.88L125.63 103.96Q123.78 100.04 122.12 94.08L122.09 94.05L124.71 94.86L124.77 94.92Q126.07 95.39 127.32 96.02L127.23 95.93L127.25 95.95Q125.85 91.43 125.57 88.38L125.52 88.32L125.55 88.35Q124.45 88.02 122.37 87.60L122.40 87.63L122.47 87.70Q121.97 85.26 121.97 83.67ZM107.34 83.32L107.45 83.43L107.33 83.30Q108.73 80.96 111.57 76.32L111.68 76.42L111.63 76.38Q111.68 78.16 111.61 79.89L111.61 79.89L111.60 79.88Q111.64 81.72 111.71 83.46L111.57 83.32L111.54 83.29Q110.63 83.35 109.59 83.35L109.60 83.35L109.61 83.37Q108.59 83.46 107.48 83.46Z"/><path d="M5 17 C179 92,155 137,333 76" stroke="#ebeb8e" fill="none"/><path d="M13 113 C183 91,182 112,322 82" stroke="#7cb5ed" fill="none"/></svg>