<svg xmlns="http://www.w3.org/2000/svg" width="342" height="140" viewBox="0,0,342,140"><path d="M20 130 C161 13,168 13,325 40" stroke="#ebd07f" fill="none"/><path fill="#6565dc" d="M102.15 83.11L102.01 82.98L102.02 82.99Q107.10 82.37 112.35 82.56L112.43 82.63L112.35 82.56Q112.31 78.39 112.31 74.45L112.27 74.41L112.40 74.54Q112.41 70.48 112.72 66.29L112.59 66.16L112.75 66.33Q110.62 69.00 102.05 83.01ZM118.44 95.21L118.44 95.21L118.43 95.20Q115.52 94.55 112.58 94.42L112.59 94.43L112.67 94.51Q112.37 90.64 112.18 86.58L112.28 86.67L112.13 86.53Q103.44 86.28 95.68 88.59L95.58 88.49L95.68 88.59Q95.75 87.66 96.07 86.04L96.26 86.23L96.26 86.23Q99.20 81.04 105.08 70.72L104.96 70.60L104.95 70.60Q109.76 62.65 115.39 56.27L115.29 56.17L115.35 56.23Q116.75 55.88 119.50 55.44L119.61 55.54L119.61 55.54Q116.49 66.12 116.49 77.69L116.45 77.65L116.36 77.56Q116.53 80.17 116.65 82.60L116.54 82.50L118.67 82.69L118.62 82.64Q119.68 82.76 120.68 82.95L120.62 82.88L120.68 82.94Q120.90 84.60 121.34 87.79L121.38 87.83L121.30 87.76Q119.26 87.28 116.82 86.96L116.78 86.93L116.87 87.01Q117.16 90.24 118.28 95.06ZM121.11 82.31L121.10 82.30L121.12 82.32Q120.88 82.27 120.56 82.27L120.55 82.25L119.78 82.11L119.96 82.29Q119.74 79.82 119.74 77.51L119.67 77.43L119.75 77.51Q119.63 66.88 123.01 57.00L123.00 57.00L123.05 57.05Q121.86 57.54 119.48 58.17L119.47 58.15L119.38 58.06Q119.78 56.84 120.53 54.53L120.56 54.56L120.65 54.65Q118.42 55.16 115.04 55.54L114.99 55.49L115.01 55.51Q108.64 62.71 100.07 78.10L100.05 78.08L103.54 72.12L103.52 72.10Q102.71 73.67 102.27 74.61L102.36 74.70L94.99 89.47L95.13 89.60Q96.06 89.22 97.94 88.60L97.89 88.55L97.63 88.91L97.79 89.07Q97.44 90.04 96.94 92.10L97.07 92.23L97.08 92.24Q103.82 90.04 111.76 90.35L111.66 90.25L111.65 90.24Q111.88 91.97 112.19 95.22L112.11 95.14L112.15 95.18Q113.85 95.12 115.60 95.31L115.61 95.32L115.71 95.43Q115.85 96.44 116.29 98.69L116.27 98.68L116.24 98.64Q119.35 99.00 124.29 100.50L124.43 100.64L124.30 100.51Q122.67 97.00 121.17 91.63L121.19 91.64L123.57 92.40L123.71 92.54Q124.78 92.86 125.91 93.43L125.80 93.31L125.88 93.40Q124.48 89.18 124.22 86.43L124.34 86.55L124.34 86.55Q123.34 86.23 121.47 85.86L121.42 85.81L121.54 85.93Q121.20 83.84 121.20 82.40ZM108.02 82.11L107.93 82.02L108.01 82.09Q109.18 79.89 111.74 75.69L111.82 75.77L111.89 75.85Q111.71 77.22 111.65 78.79L111.81 78.96L111.65 78.80Q111.83 80.60 111.89 82.16L111.82 82.09L111.85 82.12Q110.93 82.07 109.99 82.07L109.86 81.94L109.89 81.97Q108.99 82.08 107.99 82.08Z"/><path d="M12 103 C154 24,182 127,333 21" stroke="#d95dd9" fill="none"/><path d="M19 13 C182 74,152 89,332 17" stroke="#db5677" fill="none"/><path d="M2 34 C173 41,182 98,332 70" stroke="#e6a360" fill="none"/><path fill="#e2aa73" d="M160.82 95.22L160.90 95.30L160.88 95.28Q154.17 95.63 152.54 91.82L152.59 91.86L152.52 91.80Q153.89 90.36 156.46 87.42L156.30 87.26L156.39 87.35Q157.15 90.61 162.09 90.80L162.13 90.84L162.09 90.80Q167.59 90.86 170.28 88.67L170.29 88.67L170.44 88.82Q172.76 86.20 172.63 81.76L172.51 81.64L172.52 81.65Q172.37 73.44 164.49 73.81L164.34 73.65L164.42 73.74Q159.83 74.03 156.96 76.09L156.91 76.04L156.39 75.78L156.04 75.56L156.04 75.56Q156.62 70.38 156.43 65.87L156.37 65.81L156.52 65.97Q156.31 61.63 155.75 56.19L155.77 56.20L155.60 56.04Q161.64 57.64 167.89 57.45L167.89 57.45L167.96 57.51Q174.19 57.37 180.07 55.30L179.98 55.21L179.04 57.71L179.22 57.89Q178.55 58.98 178.24 60.35L178.39 60.50L178.26 60.37Q173.16 62.09 166.79 62.09L166.86 62.17L166.81 62.12Q164.43 62.12 162.00 61.87L161.91 61.79L162.04 61.91Q161.89 63.01 161.32 70.33L161.25 70.25L161.21 70.22Q162.61 69.49 165.99 69.24L166.10 69.35L166.11 69.36Q172.10 69.60 174.48 72.35L174.49 72.37L174.56 72.43Q176.82 74.95 177.26 81.26L177.34 81.34L177.29 81.29Q177.67 88.11 175.66 91.42L175.78 91.55L175.69 91.45Q172.29 94.49 166.85 94.87L166.95 94.97L166.94 94.96Q165.23 95.00 160.85 95.25ZM170.82 99.03L170.87 99.08L170.79 99.00Q176.52 99.23 179.65 97.41L179.62 97.38L179.56 97.33Q181.15 94.78 181.15 91.34L181.10 91.30L181.25 91.44Q181.19 86.32 179.63 79.57L179.72 79.65L179.68 79.62Q178.94 76.63 176.94 74.32L176.96 74.34L177.03 74.46L176.66 73.97L176.03 73.59L176.09 73.65Q175.61 72.48 174.54 71.35L174.49 71.30L174.65 71.52L174.62 71.49Q171.98 68.61 165.92 68.61L166.06 68.75L165.57 68.70L165.64 68.77Q165.65 67.71 165.96 65.90L166.00 65.94L166.05 65.98Q174.28 66.21 180.91 63.52L180.75 63.37L180.87 63.48Q181.48 61.09 183.04 56.46L183.01 56.43L179.54 57.97L179.69 58.12Q180.29 56.21 181.10 54.34L181.03 54.26L181.13 54.36Q174.77 56.70 168.02 56.82L168.03 56.84L168.10 56.90Q161.15 56.90 154.65 55.09L154.65 55.09L154.64 55.08Q155.85 62.42 155.85 69.67L155.79 69.61L155.84 69.66Q155.90 72.85 155.71 75.98L155.63 75.90L155.58 75.84Q156.05 76.19 156.99 76.69L157.02 76.72L157.13 76.83Q157.61 76.37 158.67 75.81L158.64 75.78L158.62 75.76Q158.66 77.11 158.29 79.61L158.20 79.53L158.15 79.47Q158.88 79.83 159.57 80.21L159.69 80.33L159.56 80.20Q164.17 77.37 167.23 77.37L167.15 77.29L167.16 77.30Q169.48 77.43 171.42 78.49L171.38 78.45L171.33 78.39Q171.90 80.09 171.96 81.65L172.05 81.74L171.96 81.65Q172.11 85.93 170.42 87.74L170.35 87.67L170.51 87.83Q168.14 89.72 164.45 90.09L164.44 90.08L164.58 90.22Q162.88 90.21 161.76 90.09L161.72 90.05L161.75 90.08Q160.50 90.02 159.25 89.46L159.27 89.48L159.19 89.08L158.96 89.23L159.00 89.27Q157.59 88.36 156.71 86.17L156.72 86.18L156.83 86.29Q154.62 88.58 151.87 92.08L151.86 92.07L151.86 92.07Q152.28 93.06 153.66 94.62L153.68 94.65L153.62 94.58Q155.41 97.62 160.03 98.44L159.99 98.39L160.02 98.42Q162.01 98.85 170.83 99.04Z"/><path d="M16 2 C166 32,155 101,329 26" stroke="#50e676" fill="none"/><path d="M19 122 C180 49,181 6,324 70" stroke="#d24646" fill="none"/><path d="M4 51 C152 80,164 20,325 99" stroke="#ec6386" fill="none"/><path d="M3 6 C157 87,179 81,324 108" stroke="#88e06a" fill="none"/><path d="M1 87 C155 40,151 70,336 101" stroke="#e7b582" fill="none"/><path d="M16 67 C171 114,188 35,329 77" stroke="#e8869e" fill="none"/><path d="M11 12 C176 88,182 119,337 28" stroke="#47da6c" fill="none"/><path d="M13 95 C160 1,178 112,328 84" stroke="#66dbdb" fill="none"/><path d="M8 131 C152 124,181 36,335 135" stroke="#8e3ae2" fill="none"/><path d="M2 41 C178 20,183 5,325 30" stroke="#9577ed" fill="none"/><path fill="#e0886a" d="M291.51 91.15L291.47 91.11L291.46 91.10Q292.14 92.91 293.02 96.23L292.96 96.17L293.01 96.22Q286.01 93.97 278.44 94.41L278.41 94.38L278.44 94.40Q270.83 94.74 264.26 97.99L264.38 98.11L264.40 98.13Q264.65 96.88 264.71 97.01L264.80 97.09L264.88 97.17Q270.86 90.52 277.30 83.27L277.26 83.22L277.28 83.24Q284.56 75.08 286.50 67.38L286.57 67.45L286.48 67.36Q287.32 64.57 285.22 62.63L285.30 62.71L285.12 62.53Q283.10 60.66 280.16 60.91L280.14 60.90L280.17 60.93Q279.68 60.94 279.12 60.94L279.13 60.95L278.99 60.81Q276.58 60.90 274.52 62.40L274.49 62.38L274.43 62.31Q272.28 64.54 272.65 68.92L272.69 68.95L272.80 69.06Q269.75 68.39 267.75 67.64L267.86 67.76L267.77 67.66Q267.42 65.31 267.30 62.94L267.27 62.91L267.45 63.09Q267.32 60.40 268.32 58.52L268.15 58.36L268.30 58.50Q271.25 56.26 276.75 56.26L276.58 56.09L279.58 56.20L279.52 56.15Q283.21 56.15 284.77 56.33L284.89 56.45L284.92 56.48Q291.97 57.09 292.41 61.09L292.48 61.17L292.42 61.10Q292.62 62.12 292.50 63.44L292.49 63.43L292.52 63.46Q292.42 64.48 292.17 65.61L292.20 65.64L292.06 65.50Q289.39 78.84 276.94 90.09L277.01 90.16L276.91 90.07Q279.22 89.81 281.47 89.81L281.51 89.85L281.49 89.83Q286.83 89.85 291.52 91.17ZM290.67 57.05L290.67 57.04L290.53 56.90Q287.92 55.86 285.11 55.73L285.22 55.84L279.63 55.58L279.51 55.45Q272.21 55.03 268.58 56.84L268.52 56.78L268.52 56.78Q266.89 59.15 266.89 62.53L266.93 62.57L266.77 62.41Q266.87 63.64 267.37 68.27L267.49 68.38L267.32 68.21Q268.28 68.68 270.22 69.18L270.27 69.23L270.22 70.86L270.24 70.89Q270.13 71.59 270.25 72.46L270.32 72.53L270.32 72.53Q272.29 72.62 276.35 72.99L276.45 73.09L276.36 73.00Q276.40 72.48 276.40 71.91L276.27 71.79L276.40 71.92Q276.29 68.81 278.30 66.59L278.28 66.57L278.28 66.57Q280.38 64.45 283.32 64.64L283.23 64.55L283.38 64.70Q284.55 64.69 285.81 64.94L285.89 65.02L285.72 64.85Q286.02 65.59 286.15 66.28L286.11 66.24L286.08 66.21Q286.17 66.93 286.05 67.49L286.01 67.45L286.01 67.45Q283.95 75.28 276.69 83.22L276.83 83.35L276.66 83.19Q273.20 86.92 264.26 96.86L264.34 96.95L264.38 96.98Q263.98 98.27 263.42 99.21L263.33 99.12L263.36 99.15Q265.99 97.72 268.49 96.84L268.47 96.82L268.56 96.91Q267.29 97.76 265.72 100.20L265.89 100.37L265.76 100.24Q265.53 100.76 265.34 101.32L265.40 101.38L265.35 101.33Q273.42 98.01 282.42 98.33L282.48 98.39L282.42 98.33Q291.77 98.60 299.27 102.48L299.26 102.47L297.54 98.88L297.68 99.02Q296.54 96.74 296.10 95.43L296.05 95.38L296.03 95.36Q294.88 94.71 292.88 94.03L292.96 94.10L292.96 94.11Q292.69 92.89 292.06 90.64L292.09 90.67L292.15 90.73Q288.35 89.62 284.60 89.31L284.74 89.45L284.73 89.44Q292.34 81.85 294.84 68.28L294.88 68.32L295.14 63.51L295.18 63.55Q295.06 60.62 293.06 59.50L292.98 59.42L292.92 59.41L293.06 59.56Q292.90 59.34 292.78 59.34L292.78 59.34L292.77 59.33Q292.45 58.00 290.63 57.00Z"/><path d="M9 53 C171 110,171 28,339 17" stroke="#aa6be9" fill="none"/><path d="M1 87 C155 72,158 66,325 25" stroke="#54e2be" fill="none"/><path d="M3 43 C174 8,163 138,337 69" stroke="#e1e17e" fill="none"/><path d="M16 14 C174 110,192 4,333 34" stroke="#78ecb2" fill="none"/><path d="M9 101 C191 73,179 108,326 6" stroke="#73ecec" fill="none"/><path d="M1 18 C171 6,181 136,338 133" stroke="#66ea66" fill="none"/><path d="M10 134 C156 20,186 137,341 94" stroke="#9191ec" fill="none"/><path d="M8 79 C186 84,180 117,334 90" stroke="#ef70af" fill="none"/><path d="M1 90 C151 4,185 55,339 116" stroke="#e7ce82" fill="none"/><path d="M15 77 C163 37,182 83,324 63" stroke="#a5e467" fill="none"/><path d="M9 111 C187 49,182 8,332 110" stroke="#e69341" fill="none"/><path d="M4 89 C170 105,182 86,336 78" stroke="#7cd95d" fill="none"/><path d="M13 59 C179 63,192 58,331 137" stroke="#d85496" fill="none"/><path d="M8 92 C167 42,180 50,340 84" stroke="#52dfdf" fill="none"/><path d="M6 129 C172 111,169 33,329 51" stroke="#7453d9" fill="none"/><path d="M6 87 C157 17,167 130,341 45" stroke="#44d8d8" fill="none"/><path d="M2 57 C179 112,185 114,341 30" stroke="#ba5cda" fill="none"/><path d="M11 34 C161 78,188 20,323 57" stroke="#a056eb" fill="none"/><path d="M13 71 C151 19,166 92,323 132" stroke="#9e55e6" fill="none"/><path d="M7 102 C159 116,170 100,329 68" stroke="#e45252" fill="none"/><path d="M18 15 C150 38,171 63,325 97" stroke="#cfeb79" fill="none"/><path d="M11 28 C183 65,186 85,335 107" stroke="#db5bbb" fill="none"/><path d="M5 102 C159 124,162 116,322 68" stroke="#4e4ed9" fill="none"/><path fill="#5050d7" d="M51.77 76.77L51.66 76.66L51.71 76.70Q48.79 76.61 46.76 78.95L46.82 79.01L46.63 78.82Q44.70 81.27 44.39 84.40L44.43 84.44L44.30 84.30Q44.04 87.80 45.82 89.39L45.80 89.37L45.81 89.38Q47.63 91.02 51.07 90.83L50.96 90.71L50.95 90.71Q54.50 90.56 56.31 89.44L56.34 89.47L56.27 89.40Q58.05 87.48 58.05 84.92L58.20 85.08L58.22 85.10Q58.22 84.47 58.09 83.84L57.97 83.71L58.08 83.83Q58.09 80.96 56.27 78.74L56.24 78.70L56.39 78.85Q54.51 76.57 51.76 76.75ZM51.02 94.97L51.15 95.10L51.12 95.06Q43.93 95.08 41.62 93.82L41.64 93.84L41.57 93.78Q39.94 92.58 39.62 89.76L39.65 89.78L39.64 89.78Q39.40 88.48 39.46 87.29L39.64 87.46L39.64 87.47Q39.67 85.69 39.67 84.94L39.81 85.07L39.79 85.05Q40.49 80.31 40.74 79.19L40.80 79.25L40.70 79.15Q41.54 76.05 42.92 73.73L42.87 73.68L42.78 73.59Q47.25 66.50 57.01 56.05L57.07 56.11L56.98 56.02Q61.38 55.55 65.01 54.23L64.93 54.15L64.96 54.19Q53.67 66.41 48.41 73.35L48.53 73.47L48.54 73.47Q50.10 72.60 52.23 72.60L52.17 72.54L52.21 72.58Q57.61 72.54 60.11 75.73L60.26 75.88L60.12 75.74Q62.38 78.50 62.95 84.32L62.99 84.36L62.93 84.30Q63.15 85.58 63.15 86.59L63.07 86.51L63.00 86.43Q63.12 91.68 59.49 93.43L59.54 93.48L59.53 93.47Q57.35 94.30 50.97 94.92ZM54.87 99.00L54.91 99.04L54.82 98.95Q56.90 98.85 60.15 98.97L60.27 99.09L60.28 99.10Q62.96 99.22 65.53 98.03L65.48 97.98L65.48 97.99Q67.34 96.72 67.34 93.78L67.19 93.62L67.19 93.63Q67.21 92.83 66.93 91.21L67.06 91.34L66.98 91.26Q66.74 89.68 66.74 88.93L66.63 88.82L66.70 88.88Q65.29 81.15 62.66 78.03L62.62 77.98L62.65 78.02Q62.42 77.72 62.17 77.35L62.32 77.50L61.82 77.12L61.59 76.96L61.60 76.96Q61.00 76.11 60.00 74.55L60.03 74.58L60.14 74.70Q58.62 73.11 55.37 72.36L55.34 72.33L55.34 72.33Q57.38 69.74 62.26 63.67L62.21 63.63L69.16 54.95L69.19 54.97Q66.48 56.27 62.54 57.52L62.72 57.69L62.55 57.53Q64.11 55.96 67.05 52.71L67.01 52.66L66.98 52.64Q63.16 54.51 56.78 55.44L56.77 55.44L56.67 55.33Q47.29 65.03 42.41 73.16L42.46 73.21L42.51 73.26Q40.06 77.44 39.12 87.70L38.99 87.56L39.12 87.70Q38.95 88.59 39.08 90.16L39.06 90.14L39.03 90.11Q39.15 92.98 40.96 94.48L40.96 94.48L40.96 94.48Q41.61 94.75 41.54 94.81L41.58 94.85L41.58 94.85Q42.26 96.41 43.58 97.10L43.56 97.08L43.51 97.03Q45.94 98.21 49.13 98.52L49.08 98.47L49.02 98.41Q49.01 98.40 54.77 98.90ZM54.45 80.51L54.43 80.49L54.46 80.52Q55.47 80.41 57.03 81.22L56.95 81.14L57.01 81.20Q57.51 82.69 57.51 83.75L57.45 83.70L57.58 83.83Q57.79 86.79 56.23 88.42L56.27 88.46L56.25 88.44Q54.54 89.67 51.10 90.17L51.04 90.11L51.14 90.21Q48.76 90.20 47.88 89.77L47.76 89.64L47.72 89.61Q47.60 89.05 47.60 88.55L47.47 88.42L47.53 88.48Q47.12 83.07 51.94 80.94L51.91 80.91L51.86 80.86Q53.16 80.34 54.41 80.47Z"/><path d="M3 34 C188 125,153 44,339 4" stroke="#9345e2" fill="none"/><path d="M8 46 C152 64,188 70,326 87" stroke="#d65656" fill="none"/><path fill="#ed8ba4" d="M222.96 67.45L222.94 67.43L222.96 67.45Q217.64 67.38 214.63 65.63L214.69 65.69L214.62 65.61Q218.75 63.36 226.75 56.42L226.74 56.41L226.78 56.45Q228.00 56.17 230.13 55.17L230.04 55.08L230.17 55.21Q227.93 64.92 227.75 75.36L227.73 75.34L227.64 75.26Q227.48 85.73 229.23 95.74L229.20 95.71L229.25 95.76Q226.56 94.63 223.06 94.45L222.98 94.36L223.06 94.44Q222.80 87.56 222.80 80.86L222.73 80.80L222.84 80.90Q222.79 74.10 222.85 67.34ZM222.31 71.12L222.19 94.95L222.26 95.02Q224.31 95.07 225.87 95.38L225.82 95.32L225.85 95.36Q225.96 96.47 226.28 98.72L226.16 98.61L226.33 98.78Q230.97 99.61 234.98 103.30L234.90 103.22L234.89 103.21Q230.95 91.64 230.89 79.38L230.86 79.35L230.76 79.26Q230.69 67.05 233.70 55.17L233.66 55.13L233.76 55.23Q232.74 55.78 230.11 57.59L230.27 57.74L230.25 57.73Q230.48 56.39 230.98 53.89L231.01 53.93L230.92 53.83Q228.76 55.11 226.38 55.73L226.45 55.81L226.42 55.77Q220.32 61.75 213.26 65.50L213.28 65.53L213.14 65.39Q215.52 67.26 219.40 67.83L219.30 67.73L219.37 67.80Q218.41 68.78 216.28 70.53L216.20 70.44L216.16 70.40Q218.71 71.14 222.34 71.14L222.26 71.07Z"/><path d="M10 30 C185 32,188 31,340 87" stroke="#dd9b59" fill="none"/></svg>