<svg xmlns="http://www.w3.org/2000/svg" width="342" height="140" viewBox="0,0,342,140"><path d="M5 31 C185 79,162 102,334 77" stroke="#a1e38b" fill="none"/><path d="M15 131 C177 17,184 100,323 118" stroke="#be55e1" fill="none"/><path d="M3 120 C163 101,177 73,328 122" stroke="#86eda0" fill="none"/><path d="M18 13 C152 42,183 131,324 73" stroke="#5273d5" fill="none"/><path fill="#baee85" d="M51.56 76.81L51.69 76.94L51.63 76.88Q48.61 76.74 46.54 79.14L46.49 79.08L46.58 79.18Q44.40 81.48 44.08 84.67L44.19 84.77L44.15 84.74Q43.81 88.23 45.63 89.86L45.61 89.84L45.50 89.73Q47.41 91.45 50.93 91.26L50.84 91.17L50.86 91.19Q54.39 90.95 56.24 89.80L56.33 89.89L56.26 89.82Q58.09 87.88 58.09 85.26L58.21 85.38L58.19 85.36Q58.11 84.64 57.98 84.00L58.13 84.15L58.03 84.05Q58.22 81.30 56.37 79.03L56.41 79.07L56.38 79.05Q54.47 76.71 51.65 76.90ZM51.01 95.62L50.87 95.48L50.96 95.58Q43.58 95.54 41.21 94.26L41.28 94.33L41.19 94.23Q39.48 92.97 39.16 90.10L39.20 90.14L39.10 90.04Q39.21 89.06 39.27 87.85L39.19 87.76L39.25 87.83Q39.29 86.01 39.29 85.25L39.43 85.38L39.30 85.25Q40.09 80.49 40.35 79.34L40.42 79.41L40.48 79.47Q41.22 76.19 42.63 73.82L42.66 73.85L42.50 73.69Q47.01 66.38 56.98 55.71L57.02 55.75L57.01 55.74Q61.50 55.25 65.21 53.91L65.18 53.88L65.22 53.92Q53.79 66.51 48.42 73.61L48.32 73.51L48.38 73.56Q49.97 72.66 52.14 72.66L52.08 72.60L52.26 72.78Q57.67 72.63 60.22 75.89L60.18 75.85L60.34 76.01Q62.43 78.60 63.00 84.55L63.02 84.56L63.03 84.58Q63.22 85.85 63.22 86.87L63.22 86.87L63.12 86.78Q63.16 92.06 59.46 93.84L59.53 93.92L59.44 93.83Q57.44 94.90 50.92 95.54ZM54.86 99.67L54.74 99.55L54.73 99.53Q56.90 99.47 60.22 99.60L60.37 99.74L60.23 99.60Q63.01 99.77 65.63 98.55L65.55 98.47L65.70 98.62Q67.44 97.17 67.44 94.16L67.47 94.19L67.45 94.17Q67.41 93.30 67.13 91.64L67.25 91.77L67.28 91.80Q66.86 90.01 66.86 89.24L66.85 89.23L66.82 89.20Q65.42 81.34 62.74 78.15L62.78 78.19L62.85 78.26Q62.58 77.93 62.33 77.55L62.33 77.55L61.81 77.16L61.81 77.22L61.73 77.14Q61.27 76.42 60.25 74.83L60.17 74.75L60.06 74.64Q58.63 73.15 55.31 72.38L55.37 72.44L55.35 72.42Q57.39 69.74 62.38 63.54L62.32 63.48L69.42 54.60L69.45 54.63Q66.88 56.16 62.86 57.44L62.77 57.35L62.84 57.42Q64.30 55.69 67.31 52.36L67.31 52.36L67.32 52.38Q63.34 54.21 56.82 55.17L56.77 55.12L56.82 55.17Q47.08 64.92 42.10 73.23L42.12 73.25L42.19 73.32Q39.57 77.47 38.61 87.95L38.68 88.03L38.66 88.00Q38.53 88.96 38.65 90.55L38.59 90.49L38.65 90.54Q38.71 93.42 40.57 94.96L40.65 95.04L40.73 95.12Q41.33 95.34 41.27 95.40L41.33 95.46L41.33 95.46Q41.92 96.95 43.26 97.65L43.27 97.66L43.28 97.67Q45.55 98.66 48.81 98.98L48.83 99.00L48.81 98.99Q48.83 99.00 54.71 99.51ZM54.40 80.74L54.42 80.76L54.44 80.78Q55.32 80.50 56.91 81.34L57.03 81.45L56.92 81.34Q57.50 82.94 57.50 84.03L57.62 84.15L57.63 84.16Q57.85 87.19 56.25 88.85L56.22 88.82L56.24 88.84Q54.41 90.01 50.89 90.52L50.97 90.60L50.98 90.61Q48.61 90.66 47.71 90.22L47.67 90.17L47.58 90.08Q47.29 89.35 47.29 88.84L47.39 88.93L47.39 88.94Q46.96 83.39 51.88 81.22L51.79 81.13L51.90 81.24Q53.07 80.56 54.35 80.69Z"/><path fill="#eca359" d="M101.83 83.33L101.95 83.44L101.77 83.26Q106.96 82.63 112.32 82.83L112.36 82.86L112.50 83.00Q112.31 78.59 112.31 74.57L112.36 74.61L112.30 74.56Q112.38 70.49 112.70 66.20L112.62 66.12L112.57 66.07Q110.52 68.94 101.77 83.26ZM118.46 95.67L118.55 95.76L118.54 95.75Q115.64 95.15 112.63 95.02L112.71 95.09L112.75 95.14Q112.31 91.06 112.12 86.90L112.14 86.93L112.14 86.93Q103.13 86.54 95.21 88.91L95.30 89.00L95.26 88.96Q95.53 88.20 95.85 86.54L95.75 86.44L95.74 86.43Q98.84 81.23 104.85 70.69L104.79 70.62L104.77 70.61Q109.71 62.51 115.46 55.99L115.48 56.01L115.50 56.03Q116.85 55.59 119.66 55.14L119.72 55.20L119.75 55.23Q116.47 65.95 116.47 77.77L116.49 77.79L116.56 77.86Q116.56 80.35 116.69 82.84L116.60 82.76L118.89 83.07L118.83 83.01Q119.84 83.05 120.86 83.24L120.82 83.20L120.77 83.15Q121.03 84.89 121.48 88.15L121.53 88.20L121.42 88.09Q119.51 87.78 117.02 87.46L116.93 87.37L116.97 87.41Q117.37 90.81 118.52 95.73ZM121.19 82.49L121.24 82.54L121.29 82.59Q121.02 82.51 120.70 82.51L120.66 82.47L119.96 82.41L120.00 82.45Q119.78 79.93 119.78 77.56L119.79 77.57L119.91 77.69Q119.77 66.82 123.22 56.72L123.28 56.79L123.19 56.70Q122.07 57.30 119.64 57.93L119.65 57.94L119.65 57.94Q119.98 56.62 120.75 54.25L120.65 54.15L120.62 54.12Q118.56 54.87 115.10 55.25L115.01 55.16L115.00 55.15Q108.58 62.60 99.83 78.32L99.68 78.17L103.29 72.13L103.19 72.03Q102.59 73.86 102.14 74.81L102.17 74.84L94.69 89.99L94.69 89.98Q95.63 89.59 97.55 88.95L97.67 89.07L97.49 89.52L97.46 89.50Q97.18 90.56 96.67 92.67L96.70 92.70L96.69 92.69Q103.49 90.35 111.61 90.67L111.75 90.82L111.76 90.82Q111.82 92.41 112.14 95.74L112.10 95.71L112.10 95.70Q113.80 95.61 115.59 95.81L115.75 95.96L115.68 95.90Q115.95 97.06 116.40 99.36L116.29 99.25L116.45 99.41Q119.64 99.79 124.69 101.33L124.58 101.22L124.56 101.19Q123.03 97.75 121.49 92.25L121.43 92.19L123.86 92.95L123.83 92.92Q125.08 93.40 126.23 93.98L126.07 93.82L126.17 93.92Q124.86 89.73 124.60 86.92L124.59 86.91L124.62 86.94Q123.68 86.70 121.76 86.32L121.58 86.14L121.66 86.22Q121.37 84.14 121.37 82.67ZM107.88 82.34L107.97 82.43L107.84 82.30Q109.23 80.25 111.85 75.97L111.69 75.80L111.82 75.93Q111.73 77.44 111.67 79.04L111.79 79.16L111.66 79.03Q111.78 80.81 111.84 82.41L111.74 82.30L111.78 82.35Q110.78 82.24 109.82 82.24L109.78 82.20L109.91 82.33Q108.97 82.41 107.94 82.41Z"/><path fill="#69dddd" d="M160.75 95.90L160.73 95.88L160.73 95.88Q153.91 96.28 152.25 92.38L152.17 92.31L152.17 92.30Q153.54 90.79 156.16 87.79L156.06 87.69L156.01 87.64Q156.96 91.15 162.01 91.34L161.86 91.19L162.05 91.38Q167.56 91.33 170.31 89.09L170.36 89.15L170.40 89.19Q172.68 86.42 172.55 81.88L172.58 81.91L172.56 81.89Q172.33 73.42 164.28 73.80L164.37 73.89L164.41 73.93Q159.59 74.09 156.65 76.20L156.72 76.27L156.04 75.84L155.68 75.61L155.67 75.60Q156.26 70.32 156.07 65.72L156.09 65.74L156.05 65.70Q155.87 61.30 155.29 55.74L155.43 55.88L155.39 55.83Q161.50 57.41 167.89 57.22L167.91 57.23L167.88 57.20Q174.38 57.19 180.38 55.08L180.23 54.92L179.26 57.47L179.30 57.51Q178.89 58.89 178.57 60.29L178.57 60.30L178.51 60.24Q173.20 61.89 166.69 61.89L166.79 61.99L166.66 61.87Q164.27 61.90 161.78 61.65L161.89 61.77L161.86 61.74Q161.70 62.85 161.13 70.33L161.10 70.30L161.03 70.23Q162.55 69.58 166.00 69.33L166.07 69.39L166.01 69.34Q172.16 69.60 174.59 72.41L174.59 72.42L174.66 72.49Q176.93 75.01 177.37 81.46L177.42 81.51L177.35 81.44Q177.90 88.58 175.86 91.96L175.73 91.84L175.83 91.94Q172.43 95.12 166.87 95.50L166.84 95.47L166.88 95.51Q165.07 95.49 160.60 95.74ZM170.87 99.69L170.83 99.65L170.76 99.58Q176.68 99.87 179.87 98.02L179.82 97.97L179.84 97.98Q181.50 95.43 181.50 91.92L181.36 91.78L181.35 91.77Q181.45 86.69 179.85 79.79L179.92 79.86L179.94 79.88Q179.12 76.75 177.07 74.39L177.20 74.51L177.32 74.70L176.87 74.12L176.34 73.85L176.33 73.83Q175.71 72.52 174.62 71.36L174.71 71.45L174.61 71.42L174.58 71.38Q172.14 68.69 165.95 68.69L165.93 68.68L165.39 68.58L165.46 68.65Q165.63 67.74 165.95 65.88L165.94 65.88L165.97 65.91Q174.25 66.01 181.03 63.26L181.12 63.35L180.96 63.19Q181.74 60.91 183.34 56.18L183.34 56.18L179.79 57.75L179.80 57.76Q180.50 55.90 181.33 53.98L181.33 53.98L181.23 53.88Q174.93 56.47 168.03 56.59L167.91 56.47L168.00 56.56Q161.06 56.71 154.41 54.86L154.35 54.79L154.49 54.94Q155.53 62.24 155.53 69.65L155.47 69.59L155.54 69.66Q155.56 72.87 155.36 76.07L155.43 76.13L155.45 76.16Q155.85 76.42 156.81 76.93L156.87 77.00L156.86 76.99Q157.45 76.62 158.53 76.04L158.44 75.95L158.42 75.93Q158.39 77.24 158.01 79.80L157.91 79.70L157.96 79.75Q158.72 80.13 159.42 80.51L159.31 80.39L159.43 80.51Q163.98 77.47 167.11 77.47L167.10 77.45L167.14 77.49Q169.46 77.57 171.44 78.66L171.40 78.62L171.37 78.59Q171.97 80.34 172.04 81.94L172.07 81.98L172.07 81.98Q172.13 86.25 170.40 88.10L170.41 88.11L170.36 88.06Q168.24 90.28 164.47 90.67L164.30 90.50L164.42 90.62Q162.76 90.68 161.61 90.56L161.56 90.50L161.56 90.51Q160.26 90.42 158.98 89.84L158.90 89.76L158.91 89.46L158.61 89.54L158.66 89.59Q157.29 88.73 156.39 86.49L156.36 86.46L156.45 86.55Q154.19 88.89 151.38 92.47L151.36 92.45L151.45 92.54Q151.98 93.64 153.39 95.24L153.32 95.18L153.26 95.12Q155.13 98.27 159.86 99.10L159.78 99.02L159.83 99.07Q161.89 99.53 170.90 99.72Z"/><path d="M7 5 C155 130,157 38,337 69" stroke="#849ce5" fill="none"/><path d="M19 81 C183 50,182 17,326 14" stroke="#8d6ced" fill="none"/><path d="M20 42 C156 92,183 137,330 21" stroke="#be4de4" fill="none"/><path d="M10 76 C185 119,190 101,331 121" stroke="#e34493" fill="none"/><path d="M14 46 C190 68,183 91,329 94" stroke="#c8eb60" fill="none"/><path d="M12 72 C168 47,172 45,326 78" stroke="#e58ee5" fill="none"/><path d="M3 116 C180 65,186 106,332 114" stroke="#e87777" fill="none"/><path d="M20 90 C155 77,174 21,321 84" stroke="#7ccde8" fill="none"/><path d="M18 63 C162 135,173 15,322 121" stroke="#6565e0" fill="none"/><path d="M9 86 C157 78,179 87,331 134" stroke="#e2b940" fill="none"/><path d="M10 109 C165 23,165 126,337 21" stroke="#83e19b" fill="none"/><path d="M2 9 C191 65,160 123,325 131" stroke="#e56ae5" fill="none"/><path d="M9 5 C162 19,163 30,332 5" stroke="#e561c4" fill="none"/><path d="M16 91 C153 5,158 29,334 91" stroke="#e245e2" fill="none"/><path d="M10 101 C179 33,186 58,326 90" stroke="#dbdb42" fill="none"/><path d="M21 56 C157 46,164 123,326 67" stroke="#c5e75f" fill="none"/><path d="M4 103 C185 134,154 130,327 86" stroke="#bce890" fill="none"/><path d="M6 61 C163 82,159 53,332 8" stroke="#e287e2" fill="none"/><path fill="#39e9bd" d="M221.83 77.08L221.88 77.13L221.75 77.00Q218.72 77.11 216.68 79.34L216.68 79.34L216.64 79.31Q214.46 81.41 214.21 84.60L214.23 84.63L214.22 84.62Q214.06 88.36 216.11 90.05L215.94 89.88L216.12 90.07Q218.14 91.73 221.71 91.60L221.56 91.45L221.61 91.49Q225.49 91.22 227.08 89.62L227.14 89.67L227.09 89.63Q228.91 87.29 228.72 84.22L228.71 84.22L228.58 84.09Q228.42 80.99 226.60 78.98L226.75 79.13L226.67 79.05Q224.78 76.96 221.71 76.96ZM221.66 61.13L221.68 61.15L221.70 61.16Q219.27 60.91 217.03 61.74L217.21 61.92L217.05 61.76Q214.93 63.15 215.31 66.28L215.33 66.30L215.24 66.21Q216.07 72.47 221.70 72.47L221.85 72.63L221.81 72.59Q224.45 72.93 226.11 71.01L226.08 70.98L226.11 71.01Q227.70 69.02 227.76 66.40L227.83 66.47L227.75 66.38Q227.82 63.39 226.61 62.37L226.63 62.40L226.65 62.41Q223.89 61.06 221.72 61.19ZM221.30 95.72L221.34 95.76L216.15 95.69L216.10 95.63Q213.62 95.71 211.38 94.24L211.32 94.17L211.32 94.18Q209.11 92.35 209.37 87.56L209.37 87.57L209.31 87.50Q210.01 75.93 216.08 74.27L216.20 74.39L216.17 74.36Q212.25 72.74 210.01 63.73L210.10 63.82L210.08 63.80Q209.53 61.46 209.66 60.12L209.68 60.14L209.64 60.10Q210.11 56.48 216.31 56.42L216.34 56.44L216.39 56.49Q223.41 56.30 225.84 56.61L225.94 56.72L225.82 56.60Q232.29 57.51 233.06 60.89L233.18 61.01L233.00 60.83Q233.21 61.88 233.21 62.52L233.22 62.52L233.32 62.63Q233.26 63.72 232.94 64.74L232.96 64.76L233.00 64.80Q232.00 71.91 227.08 74.47L226.92 74.31L226.97 74.36Q232.84 75.70 233.67 84.58L233.76 84.67L233.73 84.63Q233.64 84.80 233.70 86.97L233.84 87.11L233.74 87.01Q233.98 91.72 231.29 93.51L231.23 93.45L231.17 93.38Q229.00 94.98 221.33 95.75ZM225.04 99.53L225.04 99.53L230.69 99.68L230.65 99.64Q233.65 99.89 236.21 98.68L236.07 98.54L236.21 98.68Q238.11 97.46 238.24 94.32L238.24 94.32L238.18 94.26Q238.23 92.39 237.59 89.13L237.58 89.12L237.64 89.18Q236.00 81.29 232.49 78.15L232.51 78.18L232.19 77.53L231.95 77.16L231.72 76.74L231.67 76.70Q234.39 74.36 235.92 67.40L235.93 67.41L236.00 67.48Q236.02 66.86 236.15 65.46L236.18 65.49L236.07 65.38Q236.29 64.32 236.16 63.30L236.16 63.29L236.14 63.28Q235.79 60.75 233.81 59.92L233.92 60.03L233.94 59.99L233.51 59.69L233.62 59.80Q233.17 58.58 231.19 57.24L231.26 57.31L231.24 57.22L231.21 57.19Q228.00 56.16 221.16 55.84L221.06 55.74L221.04 55.71Q218.54 55.64 216.24 55.84L216.12 55.72L216.08 55.68Q214.87 55.87 212.69 56.12L212.64 56.07L212.66 56.09Q209.41 56.74 209.03 59.49L209.07 59.52L208.95 59.41Q208.93 60.28 208.99 61.62L208.91 61.54L208.94 61.57Q209.25 62.58 210.20 66.54L210.23 66.57L210.11 66.45Q211.51 71.94 214.45 74.18L214.38 74.10L214.63 74.35L214.62 74.34Q209.79 76.35 208.90 85.05L209.04 85.19L208.98 85.13Q208.78 88.95 208.78 90.48L208.72 90.42L208.63 90.33Q208.79 93.38 210.78 94.91L210.77 94.90L210.78 94.91Q210.95 95.02 211.39 95.34L211.37 95.32L211.50 95.44Q213.16 99.21 225.11 99.60ZM224.49 80.96L224.58 81.05L224.57 81.04Q226.02 80.82 227.49 81.59L227.45 81.55L227.50 81.61Q228.26 83.39 228.20 84.28L228.05 84.13L228.08 84.17Q228.20 84.73 228.20 85.24L228.15 85.19L228.14 85.18Q228.11 89.11 224.27 90.52L224.29 90.53L224.34 90.58Q222.90 90.99 221.55 90.80L221.61 90.86L221.72 90.97Q219.81 91.10 217.89 90.34L217.95 90.39L217.96 90.40Q217.39 89.19 217.52 87.53L217.57 87.58L217.52 87.53Q217.84 84.92 219.86 82.87L219.81 82.83L219.89 82.91Q221.81 80.77 224.49 80.96ZM224.87 65.04L224.92 65.09L224.88 65.05Q226.32 64.96 227.21 65.21L227.08 65.08L227.12 66.46L227.10 66.44Q227.17 68.87 225.63 70.57L225.59 70.52L225.63 70.56Q224.12 72.28 221.82 71.96L221.78 71.92L221.76 71.90Q220.03 71.83 219.33 71.45L219.41 71.53L219.39 71.51Q219.42 71.15 219.22 70.00L219.19 69.96L219.17 69.94Q218.63 67.49 220.67 66.09L220.70 66.11L220.77 66.18Q222.59 65.06 224.96 65.13Z"/><path d="M17 18 C182 14,159 96,336 19" stroke="#66db66" fill="none"/><path d="M21 128 C183 64,161 128,327 123" stroke="#8ce86d" fill="none"/><path d="M17 121 C162 89,163 113,338 67" stroke="#d4ed8c" fill="none"/><path d="M19 44 C185 76,179 136,321 45" stroke="#52e4e4" fill="none"/><path fill="#8787e7" d="M278.25 76.84L278.27 76.86L278.32 76.90Q275.17 76.63 273.10 79.03L273.18 79.12L273.26 79.20Q271.04 81.45 270.72 84.65L270.81 84.73L270.76 84.68Q270.30 88.06 272.12 89.68L272.29 89.85L272.14 89.71Q273.96 91.33 277.48 91.14L277.49 91.15L277.47 91.14Q281.01 90.91 282.87 89.76L282.85 89.74L282.91 89.80Q284.81 87.93 284.81 85.31L284.86 85.36L284.82 85.33Q284.83 84.69 284.70 84.06L284.69 84.04L284.81 84.16Q284.89 81.30 283.03 79.03L283.05 79.05L283.03 79.02Q281.07 76.65 278.25 76.84ZM277.68 95.63L277.66 95.61L277.54 95.49Q270.29 95.58 267.92 94.30L267.97 94.35L267.91 94.29Q266.08 92.91 265.76 90.03L265.76 90.04L265.79 90.06Q265.89 89.07 265.95 87.86L265.80 87.71L265.80 87.71Q266.10 86.15 266.10 85.39L265.97 85.26L266.05 85.34Q266.82 80.55 267.07 79.40L266.98 79.30L267.06 79.38Q267.78 76.07 269.18 73.71L269.22 73.75L269.20 73.73Q273.70 66.40 283.66 55.73L283.77 55.83L283.59 55.66Q288.15 55.23 291.86 53.89L291.80 53.84L291.95 53.98Q280.44 66.50 275.07 73.59L275.01 73.53L274.97 73.49Q276.60 72.63 278.77 72.63L278.86 72.71L278.88 72.74Q284.41 72.70 286.96 75.96L287.02 76.02L286.89 75.89Q289.15 78.66 289.73 84.60L289.73 84.61L289.70 84.58Q289.98 85.94 289.98 86.97L289.95 86.93L289.86 86.85Q289.83 92.06 286.13 93.85L286.21 93.93L286.17 93.90Q284.08 94.87 277.57 95.51ZM281.36 99.50L281.40 99.53L281.35 99.49Q283.62 99.52 286.95 99.65L286.88 99.59L287.00 99.71Q289.63 99.72 292.25 98.51L292.27 98.52L292.30 98.55Q294.17 97.23 294.17 94.23L294.08 94.13L294.07 94.12Q294.23 93.45 293.94 91.79L293.80 91.65L293.92 91.77Q293.61 90.09 293.61 89.32L293.65 89.35L293.50 89.20Q292.04 81.29 289.35 78.10L289.51 78.25L289.47 78.21Q289.25 77.93 288.99 77.54L289.12 77.67L288.56 77.24L288.45 77.19L288.46 77.21Q287.92 76.40 286.89 74.81L286.72 74.63L286.81 74.72Q285.38 73.23 282.06 72.46L281.97 72.38L281.89 72.29Q284.03 69.70 289.01 63.50L289.04 63.54L296.09 54.61L296.18 54.70Q293.56 56.16 289.53 57.44L289.47 57.38L289.39 57.30Q290.95 55.66 293.95 52.34L293.89 52.28L294.00 52.39Q289.95 54.15 283.43 55.11L283.39 55.07L283.38 55.06Q273.91 65.08 268.92 73.39L268.91 73.37L268.79 73.25Q266.30 77.54 265.34 88.02L265.33 88.01L265.37 88.04Q265.21 88.97 265.34 90.57L265.36 90.60L265.35 90.58Q265.52 93.56 267.37 95.09L267.34 95.06L267.34 95.07Q267.94 95.28 267.87 95.34L267.91 95.38L267.82 95.29Q268.55 96.91 269.89 97.62L269.84 97.57L269.91 97.63Q272.39 98.83 275.64 99.15L275.54 99.04L275.49 99.00Q275.59 99.10 281.47 99.61ZM281.03 80.70L281.06 80.73L280.99 80.66Q282.09 80.61 283.68 81.44L283.66 81.41L283.60 81.35Q284.29 83.07 284.29 84.15L284.21 84.07L284.11 83.97Q284.54 87.21 282.94 88.87L283.00 88.93L282.82 88.75Q281.20 90.14 277.69 90.65L277.52 90.49L277.66 90.63Q275.09 90.48 274.20 90.03L274.27 90.11L274.20 90.04Q274.04 89.43 274.04 88.92L273.93 88.81L274.03 88.91Q273.68 83.45 278.60 81.28L278.56 81.23L278.47 81.14Q279.75 80.57 281.03 80.70Z"/><path d="M20 121 C188 21,180 19,324 93" stroke="#a362e4" fill="none"/><path d="M2 47 C162 1,153 55,341 124" stroke="#87edd3" fill="none"/><path d="M18 79 C183 38,163 78,323 75" stroke="#e782b5" fill="none"/><path d="M4 102 C190 96,159 104,326 114" stroke="#6d6ddd" fill="none"/><path d="M10 63 C184 53,159 29,338 52" stroke="#e7c769" fill="none"/><path d="M2 4 C153 23,152 78,332 58" stroke="#e3e377" fill="none"/><path d="M9 102 C164 66,164 69,339 113" stroke="#e0e060" fill="none"/><path d="M3 20 C152 68,160 38,338 119" stroke="#60e6a3" fill="none"/><path d="M6 10 C166 119,163 46,340 125" stroke="#96d854" fill="none"/><path d="M13 83 C174 83,188 64,340 92" stroke="#d290e9" fill="none"/><path d="M21 20 C153 77,186 76,333 29" stroke="#aadf76" fill="none"/><path d="M7 43 C176 52,180 74,324 28" stroke="#40e240" fill="none"/><path d="M21 76 C182 85,184 34,339 83" stroke="#8fe074" fill="none"/><path d="M13 90 C174 3,151 65,338 95" stroke="#eb4b9b" fill="none"/></svg>