<svg xmlns="http://www.w3.org/2000/svg" width="342" height="140" viewBox="0,0,342,140"><path d="M20 1 C183 21,190 137,337 52" stroke="#829be7" fill="none"/><path d="M3 54 C151 136,176 122,332 19" stroke="#90bce8" fill="none"/><path d="M12 86 C183 130,187 27,325 40" stroke="#ba46e1" fill="none"/><path d="M14 19 C188 15,166 120,335 40" stroke="#70e4aa" fill="none"/><path d="M19 67 C171 53,179 29,323 27" stroke="#a48bed" fill="none"/><path d="M5 74 C154 95,162 73,325 135" stroke="#55d7b6" fill="none"/><path d="M2 138 C158 60,188 19,334 34" stroke="#aa6be9" fill="none"/><path fill="#e07f7f" d="M198.36 77.80L198.25 77.69L198.30 77.74Q194.86 77.54 192.52 80.24L192.61 80.34L192.63 80.36Q190.15 82.92 189.79 86.53L189.83 86.56L189.85 86.58Q189.42 90.48 191.47 92.31L191.43 92.27L191.55 92.39Q193.57 94.19 197.53 93.98L197.52 93.97L197.54 93.98Q201.53 93.72 203.62 92.43L203.49 92.30L203.47 92.28Q205.65 90.21 205.65 87.25L205.73 87.33L205.69 87.29Q205.62 86.51 205.48 85.78L205.47 85.77L205.50 85.80Q205.75 82.74 203.66 80.18L203.68 80.20L203.51 80.03Q201.58 77.63 198.41 77.85ZM197.53 98.80L197.45 98.73L197.51 98.78Q189.34 98.90 186.68 97.46L186.62 97.40L186.52 97.30Q184.68 95.97 184.32 92.73L184.38 92.79L184.26 92.67Q184.20 91.38 184.27 90.01L184.21 89.95L184.37 90.11Q184.50 88.15 184.50 87.29L184.45 87.24L184.58 87.37Q185.30 81.81 185.59 80.52L185.75 80.68L185.68 80.61Q186.50 76.90 188.09 74.23L188.11 74.26L188.08 74.23Q193.23 66.04 204.48 54.01L204.37 53.90L204.32 53.85Q209.40 53.31 213.57 51.80L213.70 51.92L213.53 51.75Q200.57 65.89 194.52 73.89L194.54 73.90L194.54 73.91Q196.42 72.98 198.87 72.98L198.96 73.06L198.88 72.99Q205.13 72.97 208.02 76.65L208.12 76.75L208.05 76.68Q210.57 79.78 211.22 86.48L211.18 86.44L211.15 86.41Q211.30 87.78 211.30 88.93L211.43 89.07L211.43 89.07Q211.39 94.94 207.21 96.96L207.27 97.02L207.15 96.89Q204.95 98.15 197.60 98.87ZM201.84 103.33L201.81 103.30L201.79 103.28Q204.25 103.21 207.99 103.36L207.97 103.34L208.09 103.46Q211.23 103.64 214.19 102.27L214.17 102.26L214.15 102.24Q216.21 100.69 216.21 97.30L216.25 97.34L216.26 97.36Q216.17 96.33 215.84 94.45L215.88 94.49L215.93 94.54Q215.47 92.53 215.47 91.67L215.56 91.76L215.64 91.84Q213.81 82.73 210.79 79.13L210.86 79.20L210.82 79.16Q210.83 79.10 210.54 78.66L210.49 78.62L209.96 78.23L209.78 78.12L209.64 77.98Q209.16 77.21 208.01 75.41L207.84 75.25L207.90 75.30Q206.22 73.56 202.48 72.69L202.53 72.75L202.51 72.73Q204.69 69.57 210.31 62.58L210.38 62.65L218.47 52.73L218.31 52.57Q215.33 54.20 210.80 55.65L210.92 55.77L210.85 55.70Q212.53 53.78 215.92 50.03L216.06 50.18L215.93 50.05Q211.41 52.08 204.06 53.16L204.14 53.24L204.08 53.18Q193.33 64.41 187.71 73.78L187.65 73.71L187.59 73.66Q184.89 78.60 183.81 90.41L183.64 90.24L183.68 90.28Q183.63 91.46 183.78 93.27L183.64 93.13L183.82 93.30Q183.81 96.47 185.90 98.20L185.98 98.28L185.94 98.24Q186.71 98.57 186.63 98.64L186.62 98.63L186.67 98.68Q187.28 100.30 188.79 101.09L188.77 101.06L188.75 101.04Q191.49 102.34 195.16 102.70L195.33 102.87L195.32 102.86Q195.18 102.73 201.81 103.30ZM201.40 82.06L201.49 82.16L201.35 82.02Q202.48 81.85 204.28 82.79L204.30 82.80L204.40 82.90Q205.03 84.69 205.03 85.91L204.97 85.85L205.05 85.93Q205.40 89.45 203.60 91.33L203.47 91.19L203.58 91.31Q201.55 92.67 197.59 93.24L197.62 93.27L197.49 93.14Q194.87 93.26 193.86 92.76L193.81 92.70L193.76 92.66Q193.51 91.90 193.51 91.33L193.49 91.30L193.45 91.27Q193.04 85.09 198.59 82.64L198.63 82.68L198.52 82.57Q199.98 81.94 201.42 82.09Z"/><path d="M9 128 C175 28,157 33,333 82" stroke="#e93991" fill="none"/><path d="M15 24 C190 21,175 114,331 76" stroke="#e8c049" fill="none"/><path d="M5 40 C164 44,160 25,335 56" stroke="#afe47a" fill="none"/><path d="M19 122 C182 71,172 98,341 49" stroke="#e697d3" fill="none"/><path d="M18 133 C160 105,153 54,334 22" stroke="#df8c70" fill="none"/><path d="M19 45 C190 74,179 129,334 128" stroke="#ec7d99" fill="none"/><path d="M4 17 C171 107,158 7,339 88" stroke="#5198e0" fill="none"/><path d="M7 130 C154 14,155 10,329 35" stroke="#dc6a6a" fill="none"/><path d="M13 103 C151 48,188 108,325 7" stroke="#5b9bdb" fill="none"/><path d="M13 21 C172 33,166 81,339 11" stroke="#8ce7ba" fill="none"/><path d="M16 119 C169 116,168 110,323 93" stroke="#e3ca81" fill="none"/><path d="M12 12 C187 46,190 19,337 65" stroke="#8abcef" fill="none"/><path d="M15 67 C167 63,153 122,339 45" stroke="#ec5f5f" fill="none"/><path d="M5 65 C163 82,192 123,337 125" stroke="#d75ab8" fill="none"/><path d="M18 83 C178 49,162 133,333 39" stroke="#eb79cf" fill="none"/><path d="M16 105 C179 54,172 98,333 52" stroke="#73e2aa" fill="none"/><path fill="#e64141" d="M125.41 99.04L125.45 99.09L125.52 99.16Q117.80 99.58 115.93 95.18L115.86 95.11L115.80 95.06Q117.39 93.40 120.34 90.01L120.26 89.93L120.22 89.89Q121.18 93.74 126.88 93.95L126.97 94.04L126.86 93.94Q133.27 94.07 136.36 91.55L136.43 91.61L136.35 91.54Q139.14 88.64 139.00 83.52L138.86 83.38L138.93 83.45Q138.65 73.88 129.57 74.31L129.65 74.39L129.64 74.38Q124.25 74.60 120.93 76.98L120.90 76.95L120.24 76.58L119.91 76.40L119.86 76.35Q120.52 70.38 120.31 65.19L120.41 65.29L120.31 65.19Q120.22 60.34 119.57 54.08L119.42 53.92L119.55 54.05Q126.45 55.84 133.66 55.63L133.64 55.61L133.54 55.50Q140.91 55.53 147.69 53.15L147.69 53.15L146.59 56.02L146.60 56.03Q145.94 57.39 145.58 58.97L145.65 59.04L145.65 59.04Q139.60 60.84 132.25 60.84L132.25 60.85L132.38 60.98Q129.56 60.89 126.75 60.60L126.69 60.54L126.80 60.66Q126.69 61.98 126.04 70.42L126.02 70.39L126.04 70.42Q127.64 69.56 131.53 69.28L131.40 69.14L131.42 69.16Q138.60 69.72 141.34 72.89L141.34 72.89L141.26 72.81Q143.84 75.67 144.34 82.95L144.41 83.02L144.31 82.92Q144.93 90.96 142.62 94.78L142.64 94.80L142.54 94.70Q138.77 98.36 132.50 98.79L132.51 98.79L132.57 98.85Q130.61 98.91 125.56 99.19ZM136.88 103.38L136.86 103.36L136.94 103.44Q143.51 103.67 147.11 101.58L146.97 101.43L147.07 101.54Q148.89 98.60 148.89 94.64L148.86 94.60L148.99 94.74Q148.90 88.81 147.10 81.02L147.15 81.08L147.04 80.96Q146.45 77.78 144.14 75.11L144.09 75.07L144.06 75.11L143.63 74.53L142.98 74.17L142.97 74.16Q142.56 72.96 141.34 71.66L141.25 71.57L141.26 71.66L141.35 71.75Q138.32 68.43 131.33 68.43L131.35 68.45L130.80 68.40L130.97 68.57Q130.93 67.31 131.29 65.22L131.45 65.38L131.31 65.24Q140.75 65.45 148.38 62.35L148.52 62.49L148.48 62.45Q149.28 59.79 151.09 54.46L151.08 54.46L147.04 56.18L147.10 56.24Q147.82 54.08 148.76 51.92L148.68 51.84L148.73 51.89Q141.54 54.72 133.76 54.86L133.66 54.76L133.73 54.83Q125.92 55.02 118.42 52.93L118.36 52.87L118.41 52.92Q119.69 61.25 119.69 69.61L119.73 69.65L119.71 69.63Q119.62 73.15 119.41 76.76L119.60 76.94L119.49 76.84Q120.00 77.20 121.08 77.78L121.11 77.81L120.99 77.69Q121.67 77.29 122.90 76.64L123.01 76.76L122.97 76.72Q122.93 78.19 122.50 81.07L122.40 80.98L122.37 80.94Q123.27 81.41 124.06 81.84L124.10 81.88L124.05 81.83Q129.32 78.52 132.85 78.52L132.76 78.43L132.83 78.51Q135.38 78.53 137.61 79.75L137.57 79.71L137.51 79.66Q138.27 81.71 138.34 83.51L138.23 83.40L138.24 83.41Q138.49 88.41 136.54 90.50L136.56 90.52L136.45 90.41Q133.88 92.74 129.62 93.17L129.61 93.16L129.72 93.27Q127.88 93.37 126.58 93.22L126.53 93.17L126.64 93.28Q125.05 93.06 123.61 92.41L123.46 92.26L123.54 91.99L123.17 92.05L123.19 92.06Q121.72 91.17 120.71 88.65L120.72 88.66L120.80 88.74Q118.19 91.32 115.02 95.35L114.99 95.33L114.94 95.28Q115.61 96.59 117.20 98.40L117.21 98.41L117.10 98.30Q119.15 101.79 124.48 102.73L124.57 102.82L124.59 102.84Q126.73 103.17 136.89 103.38Z"/><path d="M13 120 C174 118,178 116,328 47" stroke="#3c3ce0" fill="none"/><path d="M20 65 C158 122,170 34,324 54" stroke="#e994e9" fill="none"/><path d="M17 43 C152 70,168 33,330 116" stroke="#69a5e1" fill="none"/><path d="M9 74 C160 138,189 134,341 131" stroke="#8aa2e9" fill="none"/><path d="M9 60 C171 45,190 3,339 40" stroke="#de72a8" fill="none"/><path d="M19 76 C157 7,173 75,327 42" stroke="#5cc6e9" fill="none"/><path d="M2 48 C157 104,158 7,331 10" stroke="#41e6bd" fill="none"/><path fill="#a8e967" d="M62.44 77.88L62.39 77.83L62.43 77.87Q58.95 77.63 56.61 80.34L56.61 80.33L56.48 80.21Q54.30 83.07 53.94 86.67L53.76 86.49L53.89 86.63Q53.31 90.37 55.37 92.21L55.36 92.20L55.37 92.21Q57.61 94.24 61.58 94.02L61.48 93.92L61.46 93.90Q65.54 93.73 67.63 92.43L67.46 92.26L67.45 92.25Q69.68 90.23 69.68 87.28L69.68 87.28L69.74 87.34Q69.67 86.55 69.53 85.83L69.53 85.83L69.65 85.95Q69.71 82.70 67.62 80.14L67.64 80.16L67.65 80.17Q65.56 77.62 62.39 77.83ZM61.56 98.83L61.45 98.72L61.54 98.81Q53.33 98.89 50.66 97.45L50.62 97.41L50.64 97.42Q48.74 96.03 48.38 92.79L48.21 92.62L48.37 92.77Q48.30 91.48 48.37 90.11L48.23 89.97L48.27 90.01Q48.55 88.20 48.55 87.34L48.46 87.25L48.60 87.39Q49.44 81.96 49.73 80.66L49.71 80.64L49.66 80.59Q50.60 76.99 52.19 74.33L52.07 74.21L52.12 74.26Q57.22 66.03 68.46 53.99L68.45 53.99L68.41 53.94Q73.41 53.33 77.59 51.82L77.52 51.74L77.56 51.78Q64.61 65.93 58.56 73.93L58.64 74.00L58.51 73.88Q60.44 72.99 62.89 72.99L63.00 73.10L62.88 72.99Q69.10 72.94 71.99 76.62L71.98 76.61L72.05 76.68Q74.66 79.87 75.31 86.57L75.32 86.58L75.20 86.46Q75.34 87.83 75.34 88.98L75.33 88.96L75.33 88.97Q75.33 94.88 71.15 96.89L71.22 96.96L71.24 96.98Q68.82 98.02 61.47 98.74ZM65.91 103.40L65.86 103.35L65.85 103.34Q68.29 103.25 72.03 103.40L72.11 103.48L72.00 103.36Q75.25 103.66 78.21 102.30L78.10 102.18L78.15 102.24Q80.30 100.78 80.30 97.40L80.25 97.35L80.11 97.21Q80.16 96.32 79.84 94.45L79.92 94.53L79.87 94.48Q79.54 92.60 79.54 91.74L79.47 91.66L79.64 91.84Q77.89 82.81 74.87 79.21L74.92 79.26L74.83 79.17Q74.74 79.01 74.45 78.58L74.53 78.65L73.89 78.16L73.66 78.00L73.77 78.12Q73.13 77.18 71.98 75.38L72.02 75.43L72.00 75.40Q70.15 73.49 66.41 72.62L66.41 72.62L66.44 72.66Q68.74 69.62 74.36 62.63L74.44 62.71L82.42 52.68L82.32 52.57Q79.52 54.39 74.98 55.83L74.91 55.77L74.87 55.72Q76.52 53.76 79.90 50.02L80.02 50.14L80.09 50.20Q75.51 52.18 68.16 53.26L68.12 53.22L68.12 53.22Q57.31 64.39 51.69 73.76L51.71 73.77L51.65 73.72Q48.79 78.50 47.71 90.32L47.63 90.23L47.71 90.31Q47.66 91.49 47.80 93.29L47.64 93.13L47.67 93.16Q47.83 96.49 49.92 98.22L49.97 98.27L49.92 98.22Q50.69 98.56 50.62 98.63L50.59 98.60L50.67 98.68Q51.42 100.44 52.93 101.23L52.89 101.18L52.90 101.20Q55.51 102.37 59.19 102.73L59.20 102.74L59.25 102.79Q59.32 102.86 65.95 103.44ZM65.36 82.03L65.39 82.06L65.42 82.08Q66.58 81.95 68.38 82.88L68.25 82.75L68.25 82.75Q69.04 84.70 69.04 85.92L68.95 85.83L68.95 85.83Q69.38 89.43 67.58 91.31L67.50 91.23L67.55 91.28Q65.47 92.58 61.50 93.16L61.54 93.19L61.62 93.27Q58.89 93.28 57.88 92.78L57.73 92.62L57.89 92.79Q57.46 91.85 57.46 91.27L57.53 91.35L57.42 91.24Q57.05 85.10 62.60 82.65L62.63 82.69L62.61 82.66Q63.90 81.86 65.34 82.01Z"/><path d="M5 61 C166 105,154 117,338 52" stroke="#c7e278" fill="none"/><path d="M9 45 C173 125,152 25,336 105" stroke="#4a4ad3" fill="none"/><path d="M13 25 C183 73,171 106,335 56" stroke="#68e3c4" fill="none"/><path d="M13 94 C163 109,178 129,331 134" stroke="#68e3a5" fill="none"/><path d="M3 73 C173 93,189 73,331 136" stroke="#829ae2" fill="none"/><path d="M12 104 C159 105,168 121,331 44" stroke="#73cdec" fill="none"/><path d="M5 98 C183 26,150 109,329 84" stroke="#aadd78" fill="none"/><path d="M16 69 C164 95,189 12,325 88" stroke="#e99376" fill="none"/><path d="M11 73 C161 108,190 44,324 41" stroke="#bf44e7" fill="none"/><path d="M14 100 C170 28,157 78,322 61" stroke="#b78ce3" fill="none"/><path fill="#cb78e7" d="M260.20 98.99L260.30 99.09L260.35 99.14Q257.68 99.28 254.73 98.49L254.57 98.32L254.67 98.43Q252.25 96.58 251.96 93.48L252.09 93.62L252.04 93.56Q252.03 93.26 252.39 88.29L252.32 88.22L252.24 88.14Q254.19 87.79 258.01 87.07L258.19 87.25L257.81 88.67L257.77 88.63Q257.30 91.98 259.97 93.06L259.90 93.00L259.88 92.98Q261.39 93.61 265.35 93.61L265.28 93.55L265.32 93.59Q268.32 93.27 268.68 93.13L268.82 93.27L268.69 93.14Q270.52 92.95 271.89 92.01L271.76 91.88L271.79 91.91Q274.45 90.11 274.09 86.15L274.17 86.22L274.14 86.19Q273.80 81.60 270.53 78.65L270.61 78.73L270.58 78.71Q267.26 75.71 262.58 75.71L262.62 75.76L262.64 75.34L262.51 75.21Q263.26 75.17 264.92 75.03L265.03 75.13L264.88 74.99Q268.53 74.81 271.12 72.47L271.14 72.49L271.17 72.52Q273.79 70.21 274.08 66.68L274.05 66.64L274.07 66.66Q274.17 65.97 274.17 65.32L274.13 65.28L274.24 65.39Q274.15 62.42 271.56 60.69L271.49 60.63L271.55 60.69Q269.28 59.20 266.25 59.42L266.30 59.47L266.23 59.40Q263.69 59.02 261.38 59.81L261.50 59.94L261.41 59.84Q258.76 60.94 258.18 63.10L258.12 63.04L258.19 63.10Q257.74 64.46 257.89 65.90L257.91 65.93L258.00 66.01Q256.07 65.60 252.18 64.23L252.21 64.26L252.02 64.07Q251.65 60.96 251.72 59.37L251.73 59.39L251.68 59.34Q252.00 56.56 254.02 55.26L254.04 55.28L253.91 55.16Q256.71 54.13 259.73 54.13L259.59 53.99L259.63 54.02Q265.63 53.97 271.61 54.48L271.64 54.51L271.54 54.41Q281.29 55.37 280.72 62.50L280.64 62.43L280.65 62.43Q280.49 65.23 279.55 68.18L279.64 68.27L279.51 68.14Q277.79 73.99 273.32 75.71L273.44 75.84L273.37 75.76Q278.39 76.82 279.55 83.17L279.56 83.18L279.42 83.04Q279.92 85.27 280.07 89.09L280.00 89.03L280.04 89.07Q280.46 97.62 271.74 98.49L271.58 98.33L271.62 98.38Q270.21 98.48 260.20 98.98ZM270.19 103.36L270.11 103.27L270.19 103.35Q271.28 103.36 276.68 103.50L276.60 103.43L276.59 103.41Q279.97 103.62 283.07 102.40L283.13 102.46L283.05 102.38Q285.28 100.57 284.92 97.26L285.00 97.34L284.93 97.27Q284.72 94.75 284.14 91.44L284.27 91.56L284.14 91.43Q282.76 82.93 279.09 79.83L279.04 79.78L278.85 79.23L278.70 79.01L278.72 79.02Q281.92 76.18 283.36 67.89L283.41 67.93L283.53 68.06Q283.57 67.16 283.79 65.36L283.79 65.36L283.66 65.24Q283.93 63.92 283.79 62.62L283.84 62.67L283.76 62.59Q283.47 59.42 281.02 58.12L281.05 58.15L280.87 58.12L280.93 58.18Q280.24 56.19 278.08 55.18L278.11 55.22L278.18 55.29Q275.24 53.93 265.51 53.35L265.44 53.28L265.46 53.30Q262.29 53.15 259.26 53.15L259.36 53.25L259.32 53.22Q256.22 53.14 253.34 54.37L253.39 54.41L253.33 54.35Q251.04 55.81 251.04 59.13L251.13 59.21L251.04 59.13Q251.04 58.33 251.54 64.68L251.52 64.66L251.60 64.74Q252.27 64.97 255.37 66.12L255.25 66.01L255.22 65.97Q255.24 67.00 255.17 67.94L255.19 67.96L255.14 67.92Q255.13 68.84 255.20 69.84L255.37 70.01L255.29 69.94Q258.71 70.69 262.53 70.90L262.53 70.90L262.39 70.77Q262.41 67.11 264.50 65.52L264.44 65.47L264.36 65.38Q265.93 64.14 269.74 63.71L269.90 63.86L269.82 63.79Q271.97 63.77 273.05 64.13L273.13 64.21L273.08 64.16Q273.15 64.38 273.23 64.60L273.22 64.60L273.23 64.96L273.47 66.06L273.34 65.94Q273.47 66.43 273.40 66.72L273.40 66.72L273.30 66.62Q273.13 69.83 270.25 72.07L270.27 72.08L270.44 72.26Q268.59 73.87 264.77 74.23L264.81 74.26L264.79 74.25Q263.41 74.53 261.76 74.53L261.67 74.44L261.78 74.56Q261.77 75.12 262.06 76.41L262.06 76.42L262.03 76.39Q265.53 76.57 268.27 77.94L268.27 77.94L267.95 77.84L265.08 78.28L264.94 78.14Q265.00 78.78 265.22 79.94L265.39 80.11L265.29 80.00Q269.43 79.97 272.67 82.49L272.48 82.30L272.63 82.44Q273.04 83.14 273.61 86.24L273.57 86.20L273.62 86.24Q274.01 91.83 268.46 92.62L268.43 92.59L268.30 92.46Q264.42 93.04 263.34 92.97L263.34 92.97L263.35 92.98Q262.42 92.70 261.41 92.56L261.46 92.61L261.50 91.78L261.63 90.83L261.68 90.09L261.86 89.62L261.83 89.59Q260.04 89.74 258.52 90.10L258.43 90.01L258.54 90.12Q258.42 89.64 258.42 89.28L258.38 89.24L258.41 89.27Q258.62 89.04 258.62 88.61L258.43 88.42L258.52 88.51Q258.50 87.63 258.79 86.26L258.80 86.27L258.93 86.40Q255.40 86.84 251.87 87.49L251.84 87.46L251.84 87.46Q251.78 88.33 251.56 90.46L251.57 90.46L251.55 90.45Q251.47 92.70 251.47 93.85L251.40 93.79L251.45 93.84Q251.46 97.59 254.05 99.03L254.05 99.03L254.15 99.13Q256.87 103.36 265.80 103.00L265.80 103.00L265.82 103.02Q267.16 102.92 270.04 103.21Z"/></svg>