<svg xmlns="http://www.w3.org/2000/svg" width="342" height="140" viewBox="0,0,342,140"><path d="M7 34 C178 125,184 113,331 77" stroke="#87cbe2" fill="none"/><path d="M12 101 C173 46,172 122,333 78" stroke="#c96ce9" fill="none"/><path d="M8 94 C191 102,180 46,329 42" stroke="#3fbee8" fill="none"/><path d="M21 101 C156 133,167 99,328 127" stroke="#6d48d9" fill="none"/><path d="M16 2 C153 111,177 35,331 113" stroke="#e0ad79" fill="none"/><path d="M20 135 C184 98,153 52,322 123" stroke="#d787f1" fill="none"/><path d="M6 95 C156 133,153 59,326 105" stroke="#e7af78" fill="none"/><path d="M2 40 C185 44,167 42,339 132" stroke="#e2e245" fill="none"/><path d="M11 21 C153 103,165 108,329 62" stroke="#d5ef8a" fill="none"/><path d="M1 1 C176 39,153 107,321 9" stroke="#c7e470" fill="none"/><path d="M15 17 C173 18,179 76,324 88" stroke="#d3ed87" fill="none"/><path d="M17 110 C186 111,179 58,332 116" stroke="#c0e849" fill="none"/><path d="M5 118 C155 63,176 27,325 82" stroke="#5fe15f" fill="none"/><path d="M3 80 C179 129,185 20,337 87" stroke="#e4398e" fill="none"/><path d="M9 114 C186 110,163 23,340 16" stroke="#93d84f" fill="none"/><path fill="#96d854" d="M51.64 77.02L51.61 76.99L51.69 77.06Q48.48 76.76 46.38 79.18L46.49 79.30L46.35 79.15Q44.30 81.62 43.97 84.85L43.97 84.85L44.03 84.91Q43.57 88.32 45.41 89.97L45.47 90.03L45.44 90.00Q47.34 91.71 50.89 91.51L50.87 91.49L50.90 91.51Q54.34 91.14 56.21 89.98L56.22 89.99L56.24 90.01Q58.12 88.09 58.12 85.44L58.26 85.57L58.11 85.43Q58.28 84.95 58.15 84.30L58.04 84.19L57.99 84.14Q58.12 81.30 56.25 79.01L56.36 79.13L56.27 79.03Q54.52 76.87 51.68 77.06ZM50.85 95.79L50.81 95.76L50.98 95.93Q43.55 95.92 41.16 94.63L41.09 94.56L41.00 94.47Q39.34 93.27 39.02 90.36L39.05 90.39L38.96 90.30Q39.03 89.28 39.10 88.05L39.02 87.97L39.08 88.03Q39.29 86.37 39.29 85.59L39.25 85.56L39.14 85.44Q39.98 80.67 40.24 79.50L40.14 79.40L40.27 79.53Q40.98 76.18 42.40 73.79L42.48 73.86L42.49 73.87Q47.01 66.45 57.09 55.66L57.08 55.66L56.94 55.52Q61.56 55.10 65.31 53.75L65.29 53.73L65.36 53.80Q53.76 66.48 48.34 73.65L48.18 73.49L48.20 73.51Q49.91 72.71 52.11 72.71L52.18 72.78L52.16 72.76Q57.81 72.79 60.39 76.08L60.35 76.04L60.40 76.09Q62.50 78.70 63.08 84.71L63.06 84.69L63.14 84.78Q63.23 85.96 63.23 87.00L63.22 86.99L63.26 87.03Q63.30 92.36 59.56 94.17L59.44 94.06L59.53 94.14Q57.48 95.19 50.89 95.84ZM54.67 99.81L54.77 99.91L54.84 99.98Q56.87 99.75 60.23 99.88L60.31 99.96L60.32 99.97Q63.03 100.04 65.68 98.81L65.84 98.97L65.73 98.85Q67.53 97.42 67.53 94.39L67.56 94.43L67.67 94.53Q67.66 93.69 67.37 92.01L67.30 91.93L67.30 91.94Q66.96 90.20 66.96 89.43L66.98 89.45L66.97 89.44Q65.45 81.40 62.74 78.17L62.90 78.33L62.87 78.30Q62.78 78.15 62.52 77.76L62.52 77.76L61.99 77.36L61.80 77.23L61.72 77.16Q61.23 76.40 60.19 74.79L60.09 74.68L60.13 74.73Q58.61 73.14 55.26 72.37L55.28 72.39L55.22 72.33Q57.36 69.70 62.40 63.43L62.38 63.41L69.62 54.51L69.53 54.41Q66.99 56.01 62.92 57.30L62.83 57.21L62.84 57.22Q64.39 55.54 67.43 52.19L67.34 52.10L67.39 52.15Q63.38 54.01 56.79 54.98L56.67 54.86L56.86 55.05Q47.13 65.02 42.09 73.41L42.00 73.31L41.98 73.30Q39.53 77.70 38.56 88.29L38.40 88.12L38.46 88.19Q38.33 89.16 38.46 90.77L38.56 90.87L38.43 90.74Q38.66 93.81 40.53 95.36L40.57 95.40L40.50 95.33Q41.13 95.57 41.06 95.63L41.05 95.62L41.07 95.64Q41.71 97.18 43.07 97.89L43.03 97.86L43.02 97.85Q45.48 99.01 48.77 99.34L48.86 99.43L48.87 99.43Q48.85 99.42 54.79 99.93ZM54.44 80.92L54.40 80.88L54.44 80.92Q55.27 80.58 56.88 81.42L56.92 81.46L56.90 81.44Q57.61 83.18 57.61 84.28L57.61 84.28L57.51 84.18Q57.85 87.36 56.23 89.04L56.26 89.06L56.17 88.98Q54.41 90.25 50.86 90.77L50.94 90.84L50.95 90.86Q48.36 90.72 47.46 90.27L47.52 90.34L47.52 90.33Q47.19 89.55 47.19 89.04L47.17 89.01L47.27 89.11Q46.81 83.48 51.78 81.29L51.74 81.26L51.79 81.30Q53.12 80.76 54.41 80.89Z"/><path d="M14 36 C180 72,158 99,338 139" stroke="#e1e137" fill="none"/><path d="M11 108 C175 98,189 60,332 132" stroke="#56d676" fill="none"/><path d="M4 37 C190 23,189 53,329 121" stroke="#5093d7" fill="none"/><path d="M9 66 C173 96,186 6,321 85" stroke="#de7653" fill="none"/><path d="M10 20 C167 23,177 51,324 12" stroke="#4fb6d8" fill="none"/><path d="M8 77 C164 35,182 117,331 122" stroke="#7bdf7b" fill="none"/><path d="M13 104 C156 53,152 36,335 38" stroke="#df3e3e" fill="none"/><path fill="#4ddf4d" d="M108.32 77.03L108.30 77.01L108.25 76.96Q105.12 76.74 103.03 79.16L103.16 79.29L103.06 79.20Q101.04 81.70 100.72 84.93L100.63 84.84L100.57 84.78Q100.18 88.27 102.02 89.91L102.07 89.96L102.02 89.91Q103.91 91.61 107.46 91.41L107.52 91.47L107.48 91.43Q111.04 91.18 112.91 90.02L112.94 90.04L112.82 89.92Q114.78 88.08 114.78 85.43L114.86 85.51L114.84 85.49Q114.85 84.86 114.73 84.21L114.75 84.24L114.70 84.18Q114.82 81.33 112.95 79.04L112.93 79.03L113.04 79.13Q111.18 76.86 108.34 77.05ZM107.58 95.86L107.59 95.87L107.63 95.91Q100.18 95.89 97.79 94.59L97.77 94.57L97.75 94.56Q95.95 93.21 95.63 90.30L95.74 90.42L95.77 90.44Q95.64 89.21 95.70 87.98L95.57 87.85L95.57 87.86Q95.86 86.27 95.86 85.49L95.78 85.41L95.83 85.46Q96.56 80.58 96.82 79.42L96.97 79.56L96.97 79.57Q97.65 76.18 99.07 73.79L99.10 73.81L99.19 73.90Q103.66 66.43 113.73 55.64L113.69 55.60L113.67 55.58Q118.24 55.12 121.99 53.76L121.89 53.66L121.87 53.64Q110.25 66.31 104.83 73.48L104.83 73.47L104.88 73.53Q106.53 72.65 108.72 72.65L108.84 72.78L108.82 72.76Q114.33 72.64 116.91 75.94L117.03 76.05L116.90 75.93Q119.26 78.80 119.84 84.81L119.77 84.74L119.82 84.79Q120.00 86.06 120.00 87.09L119.99 87.09L119.95 87.05Q120.01 92.40 116.26 94.21L116.14 94.09L116.16 94.10Q114.20 95.25 107.61 95.89ZM111.34 99.81L111.38 99.85L111.50 99.97Q113.56 99.77 116.92 99.90L117.00 99.99L117.03 100.01Q119.68 100.01 122.33 98.79L122.46 98.93L122.38 98.84Q124.24 97.47 124.24 94.43L124.31 94.50L124.32 94.52Q124.19 93.55 123.90 91.87L124.07 92.03L124.02 91.99Q123.61 90.19 123.61 89.41L123.70 89.50L123.68 89.49Q122.21 81.49 119.50 78.27L119.53 78.29L119.57 78.33Q119.38 78.08 119.12 77.69L119.18 77.75L118.54 77.24L118.54 77.31L118.41 77.17Q117.97 76.47 116.93 74.86L116.83 74.76L116.95 74.87Q115.24 73.10 111.88 72.33L111.92 72.36L111.93 72.38Q114.09 69.76 119.13 63.49L118.95 63.32L126.25 54.47L126.17 54.39Q123.57 55.93 119.51 57.22L119.60 57.31L119.54 57.25Q120.95 55.44 123.99 52.08L124.08 52.17L124.14 52.23Q119.98 53.95 113.39 54.92L113.51 55.03L113.40 54.92Q103.75 64.97 98.71 73.37L98.61 73.26L98.76 73.41Q96.03 77.53 95.06 88.12L95.22 88.28L95.08 88.14Q94.97 89.13 95.10 90.74L95.24 90.88L95.09 90.74Q95.36 93.85 97.24 95.40L97.22 95.38L97.10 95.26Q97.80 95.57 97.73 95.63L97.69 95.59L97.78 95.69Q98.35 97.15 99.70 97.86L99.68 97.84L99.71 97.88Q102.16 99.03 105.46 99.35L105.48 99.38L105.43 99.33Q105.42 99.32 111.37 99.84ZM111.12 80.93L110.95 80.76L111.01 80.82Q111.94 80.58 113.55 81.42L113.65 81.52L113.53 81.40Q114.25 83.16 114.25 84.26L114.17 84.18L114.21 84.21Q114.57 87.41 112.95 89.09L112.85 88.99L112.87 89.00Q111.10 90.27 107.55 90.79L107.60 90.84L107.47 90.71Q105.14 90.83 104.23 90.38L104.28 90.43L104.28 90.43Q103.84 89.54 103.84 89.02L103.89 89.07L103.87 89.05Q103.44 83.45 108.41 81.25L108.51 81.35L108.38 81.23Q109.69 80.66 110.98 80.79Z"/><path d="M2 56 C182 123,178 37,326 68" stroke="#f09b7e" fill="none"/><path d="M9 114 C172 69,151 131,330 114" stroke="#46dbb6" fill="none"/><path d="M12 90 C188 102,161 77,321 12" stroke="#68e240" fill="none"/><path fill="#54b7d8" d="M235.18 91.91L235.18 91.92L235.23 91.96Q235.71 93.60 236.61 97.03L236.64 97.05L236.66 97.07Q229.46 94.79 221.65 95.24L221.65 95.24L221.68 95.27Q213.91 95.70 207.13 99.06L207.00 98.93L206.97 98.90Q207.50 97.88 207.56 98.01L207.52 97.96L207.46 97.90Q213.88 91.28 220.54 83.79L220.48 83.73L220.46 83.72Q228.06 75.37 230.06 67.42L230.09 67.45L230.09 67.45Q230.82 64.44 228.66 62.43L228.54 62.32L228.65 62.42Q226.39 60.33 223.36 60.59L223.41 60.64L223.45 60.68Q222.81 60.55 222.23 60.55L222.25 60.58L222.29 60.61Q219.68 60.59 217.55 62.14L217.56 62.15L217.53 62.12Q215.28 64.40 215.67 68.92L215.78 69.03L215.71 68.95Q212.73 68.43 210.66 67.66L210.63 67.62L210.72 67.71Q210.28 65.21 210.15 62.75L210.08 62.68L210.23 62.83Q209.98 59.93 211.02 58.00L211.10 58.09L211.03 58.02Q214.12 55.74 219.80 55.74L219.72 55.66L222.76 55.73L222.71 55.68Q226.62 55.78 228.24 55.97L228.31 56.05L228.23 55.97Q235.55 56.63 236.00 60.77L236.07 60.83L235.97 60.74Q236.15 61.76 236.02 63.12L236.09 63.18L235.97 63.06Q236.06 64.31 235.80 65.47L235.82 65.49L235.81 65.48Q232.99 79.20 220.14 90.83L220.14 90.83L220.14 90.82Q222.50 90.54 224.83 90.54L224.92 90.63L224.81 90.53Q230.37 90.59 235.21 91.94ZM234.26 56.64L234.21 56.59L234.27 56.64Q231.48 55.47 228.57 55.34L228.57 55.34L222.70 54.96L222.84 55.09Q215.12 54.48 211.37 56.35L211.52 56.50L211.39 56.37Q209.60 58.72 209.60 62.20L209.74 62.34L209.59 62.19Q209.72 63.49 210.24 68.27L210.22 68.25L210.22 68.25Q211.16 68.67 213.16 69.19L213.07 69.09L213.11 70.88L213.20 70.97Q213.05 71.66 213.18 72.56L213.25 72.63L213.17 72.55Q215.25 72.69 219.44 73.08L219.48 73.11L219.63 73.26Q219.54 72.59 219.54 72.01L219.46 71.93L219.53 72.00Q219.54 68.91 221.61 66.62L221.46 66.47L221.49 66.50Q223.53 64.18 226.56 64.37L226.54 64.35L226.61 64.42Q228.02 64.60 229.31 64.86L229.12 64.67L229.28 64.84Q229.33 65.34 229.46 66.05L229.57 66.16L229.64 66.22Q229.57 66.80 229.44 67.38L229.45 67.40L229.41 67.35Q227.40 75.54 219.91 83.74L219.86 83.70L219.89 83.73Q216.34 87.60 207.10 97.87L206.98 97.75L207.05 97.82Q206.72 99.23 206.14 100.20L206.03 100.10L206.02 100.08Q208.77 98.63 211.35 97.73L211.31 97.69L211.45 97.83Q210.23 98.80 208.61 101.32L208.58 101.29L208.55 101.26Q208.31 101.79 208.11 102.37L208.19 102.45L208.22 102.48Q216.35 98.86 225.65 99.18L225.72 99.25L225.74 99.26Q235.27 99.44 243.02 103.44L243.08 103.49L241.46 99.94L241.52 100.00Q240.40 97.71 239.95 96.36L239.86 96.27L239.92 96.33Q238.66 95.59 236.60 94.88L236.57 94.86L236.48 94.76Q236.38 93.70 235.74 91.37L235.58 91.21L235.72 91.36Q231.89 90.31 228.02 89.98L228.07 90.04L227.96 89.92Q236.00 82.28 238.59 68.26L238.53 68.20L238.82 63.26L238.85 63.29Q238.71 60.25 236.64 59.08L236.74 59.19L236.64 59.15L236.59 59.09Q236.57 59.01 236.44 59.01L236.36 58.93L236.48 59.05Q236.02 57.56 234.15 56.52Z"/><path d="M2 24 C155 29,152 87,340 96" stroke="#e86284" fill="none"/><path d="M4 53 C172 69,154 111,336 29" stroke="#3fe391" fill="none"/><path d="M16 93 C159 110,162 121,334 119" stroke="#e1ba46" fill="none"/><path d="M17 111 C175 83,173 108,334 59" stroke="#738fe2" fill="none"/><path d="M7 82 C165 61,190 80,330 70" stroke="#e5bf4c" fill="none"/><path d="M12 20 C177 134,160 122,335 39" stroke="#da52da" fill="none"/><path d="M4 93 C168 43,187 100,337 110" stroke="#7891dd" fill="none"/><path fill="#426be5" d="M291.82 91.88L291.89 91.96L291.80 91.86Q292.34 93.57 293.24 96.99L293.34 97.08L293.24 96.99Q286.06 94.71 278.24 95.16L278.29 95.21L278.35 95.27Q270.58 95.71 263.80 99.07L263.73 98.99L263.81 99.08Q264.03 97.74 264.09 97.87L264.21 97.98L264.23 98.01Q270.46 91.19 277.11 83.70L277.22 83.81L277.22 83.81Q284.73 75.37 286.73 67.42L286.74 67.43L286.67 67.36Q287.50 64.45 285.34 62.45L285.21 62.32L285.28 62.39Q283.04 60.31 280.00 60.56L280.12 60.68L280.10 60.66Q279.58 60.66 279.00 60.66L278.82 60.48L278.82 60.48Q276.35 60.60 274.22 62.15L274.22 62.15L274.13 62.06Q271.92 64.37 272.31 68.89L272.36 68.94L272.48 69.06Q269.33 68.36 267.26 67.59L267.33 67.66L267.36 67.69Q266.93 65.19 266.80 62.74L266.76 62.70L266.82 62.75Q266.76 60.05 267.80 58.11L267.64 57.96L267.70 58.02Q270.69 55.65 276.37 55.65L276.42 55.69L279.41 55.71L279.40 55.71Q283.28 55.77 284.89 55.97L284.84 55.91L284.85 55.92Q292.23 56.65 292.68 60.78L292.81 60.91L292.82 60.92Q292.93 61.87 292.80 63.22L292.78 63.20L292.66 63.08Q292.62 64.21 292.36 65.37L292.48 65.49L292.43 65.43Q289.73 79.27 276.88 90.90L276.85 90.87L276.82 90.84Q279.21 90.58 281.54 90.58L281.57 90.62L281.51 90.56Q287.00 90.56 291.84 91.91ZM290.92 56.63L290.91 56.62L290.86 56.56Q288.07 55.39 285.16 55.26L285.30 55.40L279.49 55.08L279.42 55.01Q271.86 54.55 268.11 56.42L268.22 56.53L268.18 56.49Q266.33 58.78 266.33 62.26L266.28 62.22L266.38 62.32Q266.35 63.44 266.86 68.22L266.98 68.34L266.83 68.19Q267.80 68.65 269.81 69.16L269.78 69.14L269.87 70.97L269.74 70.84Q269.65 71.59 269.78 72.49L269.90 72.62L269.87 72.59Q272.04 72.82 276.24 73.20L276.21 73.17L276.10 73.07Q276.09 72.47 276.09 71.89L276.06 71.87L276.05 71.86Q276.16 68.87 278.23 66.58L278.17 66.52L278.22 66.56Q280.19 64.18 283.23 64.37L283.26 64.41L283.26 64.41Q284.68 64.59 285.97 64.85L285.93 64.81L285.88 64.76Q286.04 65.38 286.17 66.09L286.21 66.13L286.28 66.20Q286.24 66.80 286.11 67.38L286.06 67.34L286.20 67.47Q283.98 75.46 276.49 83.66L276.52 83.69L276.50 83.67Q272.81 87.41 263.58 97.68L263.69 97.79L263.65 97.75Q263.30 99.15 262.72 100.12L262.73 100.13L262.78 100.18Q265.55 98.74 268.13 97.84L268.12 97.83L268.13 97.84Q266.90 98.81 265.29 101.33L265.22 101.26L265.14 101.18Q265.09 101.91 264.90 102.49L264.85 102.44L264.86 102.45Q273.10 98.94 282.40 99.26L282.33 99.18L282.34 99.20Q291.98 99.48 299.73 103.48L299.83 103.57L298.00 99.81L298.15 99.96Q296.90 97.55 296.45 96.19L296.47 96.22L296.46 96.20Q295.41 95.67 293.34 94.96L293.31 94.93L293.33 94.95Q292.99 93.64 292.34 91.31L292.43 91.40L292.25 91.22Q288.56 90.30 284.68 89.98L284.64 89.94L284.67 89.97Q292.60 82.21 295.18 68.19L295.35 68.35L295.53 63.30L295.61 63.39Q295.35 60.22 293.28 59.06L293.41 59.19L293.27 59.11L293.23 59.07Q293.24 59.02 293.11 59.02L293.19 59.10L293.16 59.06Q292.71 57.59 290.84 56.55Z"/><path d="M2 36 C191 24,155 62,326 57" stroke="#c7e470" fill="none"/><path d="M14 30 C188 68,151 17,324 53" stroke="#69e6c7" fill="none"/><path d="M3 113 C152 66,186 106,331 62" stroke="#ce89e6" fill="none"/><path d="M11 37 C169 125,154 133,335 40" stroke="#8d8df0" fill="none"/><path d="M4 60 C192 12,159 91,331 43" stroke="#68e3c4" fill="none"/><path d="M19 108 C172 12,171 71,326 110" stroke="#bfe353" fill="none"/><path d="M10 47 C169 93,176 6,336 87" stroke="#b6db46" fill="none"/><path fill="#df6181" d="M164.89 76.94L164.89 76.94L164.86 76.90Q161.76 76.71 159.66 79.13L159.73 79.20L159.83 79.30Q157.65 81.65 157.33 84.88L157.28 84.83L157.27 84.82Q156.86 88.28 158.70 89.93L158.84 90.07L158.74 89.96Q160.51 91.55 164.07 91.35L164.12 91.40L164.10 91.38Q167.70 91.17 169.57 90.01L169.59 90.03L169.48 89.92Q171.58 88.21 171.58 85.56L171.52 85.50L171.52 85.50Q171.45 84.79 171.32 84.14L171.34 84.16L171.46 84.28Q171.61 81.46 169.74 79.17L169.69 79.12L169.62 79.05Q167.87 76.87 165.02 77.07ZM164.19 95.80L164.13 95.74L164.29 95.90Q156.88 95.92 154.49 94.63L154.40 94.53L154.36 94.50Q152.64 93.23 152.32 90.32L152.30 90.31L152.42 90.43Q152.18 89.09 152.25 87.86L152.29 87.91L152.32 87.94Q152.54 86.28 152.54 85.51L152.62 85.59L152.47 85.44Q153.32 80.67 153.57 79.50L153.49 79.42L153.46 79.39Q154.44 76.30 155.86 73.91L155.68 73.73L155.84 73.89Q160.32 66.42 170.39 55.63L170.39 55.63L170.29 55.54Q174.97 55.17 178.71 53.82L178.70 53.80L178.68 53.78Q166.99 66.38 161.56 73.54L161.49 73.47L161.50 73.48Q163.16 72.62 165.35 72.62L165.47 72.74L165.49 72.75Q171.15 72.80 173.73 76.09L173.60 75.96L173.70 76.06Q175.94 78.81 176.52 84.82L176.43 84.73L176.41 84.71Q176.66 86.06 176.66 87.09L176.60 87.03L176.66 87.09Q176.61 92.34 172.87 94.15L172.78 94.06L172.80 94.08Q170.82 95.20 164.23 95.84ZM168.00 99.80L168.01 99.82L168.19 99.99Q170.23 99.77 173.59 99.90L173.75 100.06L173.73 100.05Q176.43 100.10 179.08 98.87L179.14 98.94L179.03 98.82Q180.92 97.49 180.92 94.45L180.93 94.46L180.93 94.46Q181.03 93.72 180.74 92.04L180.61 91.91L180.63 91.94Q180.39 90.30 180.39 89.53L180.41 89.55L180.31 89.45Q178.80 81.42 176.09 78.19L176.21 78.31L176.16 78.26Q176.10 78.14 175.84 77.75L175.68 77.59L175.33 77.36L175.17 77.27L175.06 77.16Q174.48 76.32 173.44 74.70L173.42 74.68L173.52 74.78Q171.91 73.11 168.56 72.33L168.70 72.48L168.65 72.42Q170.64 69.64 175.68 63.37L175.65 63.35L182.88 54.43L182.84 54.39Q180.30 55.98 176.23 57.27L176.09 57.13L176.07 57.12Q177.64 55.46 180.68 52.10L180.68 52.11L180.80 52.23Q176.68 53.98 170.09 54.95L170.14 55.00L170.19 55.05Q160.32 64.87 155.28 73.27L155.47 73.45L155.34 73.32Q152.70 77.53 151.73 88.12L151.92 88.31L151.85 88.24Q151.71 89.20 151.84 90.81L151.87 90.85L151.83 90.80Q151.88 93.70 153.75 95.25L153.85 95.35L153.86 95.35Q154.46 95.57 154.40 95.64L154.36 95.60L154.50 95.74Q155.11 97.25 156.47 97.96L156.42 97.92L156.49 97.98Q158.78 98.99 162.08 99.31L162.09 99.32L162.12 99.35Q162.09 99.32 168.03 99.84ZM167.80 80.94L167.70 80.84L167.64 80.78Q168.63 80.61 170.24 81.45L170.21 81.41L170.35 81.56Q170.79 83.03 170.79 84.13L170.84 84.18L170.93 84.27Q171.18 87.36 169.57 89.04L169.53 89.00L169.65 89.12Q167.75 90.26 164.20 90.77L164.14 90.72L164.30 90.87Q161.76 90.79 160.85 90.34L160.87 90.35L160.80 90.28Q160.63 89.66 160.63 89.15L160.51 89.03L160.46 88.98Q160.07 83.42 165.05 81.22L165.13 81.31L165.10 81.28Q166.38 80.68 167.67 80.81Z"/><path d="M1 14 C188 93,163 54,330 111" stroke="#83f1f1" fill="none"/></svg>