<svg xmlns="http://www.w3.org/2000/svg" width="342" height="140" viewBox="0,0,342,140"><path d="M2 118 C180 28,172 73,322 23" stroke="#92eb74" fill="none"/><path d="M18 139 C191 67,174 133,341 94" stroke="#5fecc9" fill="none"/><path d="M8 120 C172 59,185 67,324 40" stroke="#da704d" fill="none"/><path d="M8 17 C172 46,151 5,321 124" stroke="#5576d7" fill="none"/><path d="M16 103 C191 28,157 83,337 116" stroke="#e0886a" fill="none"/><path fill="#56c1e5" d="M62.96 77.01L63.00 77.05L63.02 77.06Q59.86 76.81 57.76 79.23L57.68 79.15L57.73 79.20Q55.66 81.65 55.33 84.88L55.25 84.80L55.40 84.94Q55.01 88.42 56.85 90.07L56.67 89.90L56.68 89.91Q58.55 91.58 62.10 91.39L62.11 91.39L62.07 91.35Q65.73 91.20 67.60 90.04L67.63 90.07L67.50 89.94Q69.50 88.13 69.50 85.49L69.45 85.43L69.61 85.59Q69.55 84.89 69.43 84.24L69.39 84.21L69.35 84.17Q69.52 81.37 67.65 79.08L67.66 79.08L67.66 79.09Q65.83 76.84 62.99 77.03ZM62.14 95.75L62.22 95.83L62.27 95.89Q54.74 95.78 52.35 94.49L52.31 94.45L52.36 94.50Q50.57 93.16 50.25 90.25L50.27 90.27L50.43 90.43Q50.19 89.10 50.26 87.88L50.30 87.92L50.29 87.90Q50.53 86.28 50.53 85.50L50.51 85.48L50.48 85.45Q51.30 80.65 51.56 79.49L51.47 79.40L51.61 79.54Q52.40 76.27 53.82 73.88L53.82 73.87L53.75 73.80Q58.32 66.42 68.39 55.63L68.33 55.57L68.26 55.51Q72.85 55.05 76.59 53.70L76.69 53.80L76.58 53.68Q64.98 66.37 59.56 73.54L59.62 73.60L59.59 73.57Q61.32 72.78 63.51 72.78L63.37 72.64L63.45 72.72Q69.03 72.68 71.62 75.98L71.66 76.02L71.69 76.05Q73.85 78.73 74.43 84.73L74.47 84.77L74.56 84.86Q74.66 86.06 74.66 87.09L74.56 86.99L74.70 87.13Q74.54 92.27 70.79 94.07L70.78 94.05L70.91 94.19Q68.88 95.26 62.29 95.90ZM66.01 99.82L66.14 99.95L66.04 99.84Q68.29 99.83 71.65 99.96L71.64 99.96L71.73 100.05Q74.41 100.08 77.06 98.85L77.17 98.96L77.10 98.90Q78.89 97.46 78.89 94.42L79.01 94.54L78.99 94.52Q78.98 93.67 78.69 92.00L78.74 92.04L78.56 91.86Q78.39 90.30 78.39 89.53L78.40 89.54L78.30 89.44Q76.90 81.52 74.19 78.29L74.17 78.26L74.11 78.21Q74.06 78.10 73.80 77.71L73.85 77.76L73.26 77.29L73.18 77.28L73.18 77.28Q72.53 76.37 71.50 74.76L71.43 74.69L71.61 74.87Q70.04 73.24 66.69 72.46L66.70 72.48L66.58 72.35Q68.67 69.67 73.71 63.40L73.72 63.42L80.98 54.54L80.85 54.40Q78.17 55.86 74.10 57.15L74.16 57.21L74.22 57.27Q75.78 55.60 78.82 52.24L78.81 52.23L78.80 52.23Q74.68 53.98 68.09 54.95L68.03 54.88L68.01 54.87Q58.33 64.89 53.30 73.28L53.44 73.43L53.33 73.31Q50.77 77.60 49.80 88.19L49.87 88.26L49.72 88.11Q49.77 89.26 49.90 90.87L49.80 90.78L49.82 90.80Q49.93 93.75 51.80 95.30L51.80 95.30L51.83 95.32Q52.44 95.54 52.37 95.61L52.33 95.56L52.48 95.72Q53.14 97.28 54.50 97.99L54.40 97.89L54.34 97.83Q56.90 99.10 60.19 99.42L60.13 99.36L60.22 99.45Q60.18 99.41 66.12 99.93ZM65.71 80.85L65.63 80.77L65.81 80.95Q66.74 80.72 68.35 81.56L68.20 81.41L68.33 81.53Q68.83 83.06 68.83 84.16L68.77 84.11L68.84 84.18Q69.12 87.30 67.51 88.98L67.51 88.98L67.67 89.14Q65.75 90.26 62.20 90.78L62.20 90.78L62.25 90.82Q59.80 90.83 58.90 90.38L58.93 90.41L58.96 90.44Q58.58 89.61 58.58 89.10L58.58 89.10L58.50 89.01Q58.12 83.47 63.09 81.27L63.11 81.29L63.15 81.32Q64.33 80.63 65.62 80.76Z"/><path d="M16 89 C177 89,165 88,334 71" stroke="#4ae7e7" fill="none"/><path d="M19 116 C168 129,171 21,333 99" stroke="#4cbfe5" fill="none"/><path d="M1 116 C159 57,152 108,331 131" stroke="#6035e3" fill="none"/><path fill="#60e060" d="M130.90 76.95L131.01 77.05L130.98 77.03Q127.91 76.86 125.81 79.28L125.67 79.14L125.69 79.16Q123.66 81.65 123.34 84.88L123.28 84.83L123.40 84.95Q122.90 88.32 124.74 89.97L124.85 90.07L124.80 90.03Q126.53 91.56 130.08 91.36L130.13 91.41L130.22 91.50Q133.73 91.20 135.60 90.04L135.63 90.07L135.60 90.04Q137.45 88.08 137.45 85.44L137.61 85.59L137.43 85.41Q137.55 84.89 137.42 84.24L137.49 84.31L137.41 84.23Q137.45 81.30 135.58 79.01L135.65 79.07L135.63 79.06Q133.78 76.79 130.94 76.99ZM130.19 95.80L130.20 95.82L130.14 95.76Q122.78 95.81 120.39 94.52L120.41 94.55L120.35 94.49Q118.74 93.33 118.42 90.43L118.30 90.30L118.40 90.41Q118.29 89.20 118.36 87.97L118.35 87.96L118.24 87.86Q118.50 86.24 118.50 85.46L118.57 85.54L118.59 85.56Q119.30 80.65 119.56 79.49L119.66 79.59L119.58 79.51Q120.40 76.26 121.82 73.87L121.77 73.82L121.74 73.80Q126.38 66.48 136.45 55.69L136.32 55.56L136.36 55.60Q140.90 55.10 144.64 53.75L144.54 53.64L144.64 53.75Q132.95 66.34 127.53 73.51L127.49 73.47L127.53 73.51Q129.17 72.63 131.37 72.63L131.47 72.74L131.53 72.79Q137.08 72.73 139.66 76.02L139.62 75.98L139.75 76.10Q141.99 78.87 142.57 84.87L142.42 84.72L142.57 84.87Q142.65 86.05 142.65 87.08L142.65 87.08L142.60 87.03Q142.70 92.43 138.96 94.24L138.95 94.23L138.81 94.09Q136.82 95.20 130.23 95.85ZM134.15 99.96L134.05 99.85L134.02 99.82Q136.35 99.90 139.71 100.03L139.59 99.90L139.57 99.89Q142.36 100.03 145.01 98.80L145.15 98.94L145.04 98.83Q147.04 97.61 147.04 94.57L146.97 94.49L146.92 94.45Q146.95 93.64 146.66 91.96L146.75 92.05L146.64 91.94Q146.44 90.36 146.44 89.58L146.38 89.52L146.44 89.58Q144.95 81.56 142.23 78.33L142.07 78.17L142.24 78.34Q142.13 78.16 141.87 77.78L141.87 77.77L141.18 77.22L141.12 77.21L141.15 77.25Q140.61 76.45 139.58 74.84L139.45 74.71L139.43 74.69Q137.99 73.19 134.63 72.41L134.58 72.36L134.57 72.35Q136.65 69.65 141.69 63.39L141.76 63.45L148.87 54.42L148.95 54.50Q146.30 55.98 142.23 57.28L142.13 57.18L142.19 57.24Q143.72 55.54 146.76 52.18L146.78 52.20L146.77 52.19Q142.69 53.99 136.10 54.96L136.10 54.96L136.11 54.97Q126.42 64.97 121.38 73.37L121.37 73.35L121.40 73.39Q118.75 77.59 117.78 88.18L117.85 88.25L117.78 88.17Q117.73 89.22 117.86 90.83L117.85 90.83L117.81 90.78Q117.97 93.78 119.84 95.33L119.90 95.39L119.87 95.36Q120.51 95.61 120.44 95.68L120.47 95.71L120.33 95.56Q121.14 97.28 122.50 97.99L122.45 97.95L122.40 97.89Q124.92 99.12 128.21 99.44L128.06 99.29L128.17 99.40Q128.06 99.29 134.00 99.81ZM133.68 80.82L133.67 80.82L133.77 80.92Q134.66 80.64 136.27 81.48L136.31 81.52L136.29 81.49Q136.92 83.16 136.92 84.26L136.84 84.18L136.85 84.18Q137.12 87.30 135.51 88.98L135.48 88.96L135.56 89.03Q133.87 90.38 130.32 90.89L130.30 90.88L130.24 90.82Q127.82 90.85 126.92 90.40L126.79 90.27L126.82 90.31Q126.46 89.49 126.46 88.97L126.51 89.03L126.49 89.00Q126.07 83.42 131.04 81.22L131.11 81.29L131.04 81.22Q132.50 80.80 133.79 80.93Z"/><path d="M14 37 C163 21,184 96,325 109" stroke="#cf70ef" fill="none"/><path d="M8 88 C178 90,186 35,339 11" stroke="#65ebc9" fill="none"/><path d="M8 8 C176 126,171 56,337 88" stroke="#e9e94d" fill="none"/><path d="M10 137 C174 56,151 122,339 21" stroke="#4be6bf" fill="none"/><path d="M17 1 C151 66,183 40,332 91" stroke="#b647da" fill="none"/><path d="M21 97 C156 13,178 67,339 87" stroke="#dcdc6a" fill="none"/><path d="M7 135 C179 76,163 134,325 100" stroke="#e39b53" fill="none"/><path d="M15 50 C154 127,164 19,338 24" stroke="#c469e2" fill="none"/><path d="M12 107 C187 19,174 81,321 7" stroke="#9b51e5" fill="none"/><path d="M6 34 C160 38,171 40,328 112" stroke="#63ecca" fill="none"/><path d="M17 118 C152 102,154 78,327 107" stroke="#e4af7a" fill="none"/><path d="M10 80 C177 45,152 122,339 76" stroke="#e56fc8" fill="none"/><path d="M10 15 C184 70,179 76,334 76" stroke="#65e084" fill="none"/><path d="M18 100 C182 102,165 6,338 87" stroke="#cfe887" fill="none"/><path d="M1 13 C156 13,170 61,321 4" stroke="#9797e6" fill="none"/><path d="M18 121 C158 133,187 70,340 127" stroke="#db3ddb" fill="none"/><path d="M20 100 C183 3,151 133,334 31" stroke="#eea38a" fill="none"/><path d="M16 124 C188 53,180 125,338 28" stroke="#70df70" fill="none"/><path d="M16 79 C162 56,154 96,341 73" stroke="#4141e6" fill="none"/><path d="M15 43 C179 49,190 25,334 70" stroke="#cde28c" fill="none"/><path d="M20 78 C159 69,156 42,327 43" stroke="#8fe9e9" fill="none"/><path d="M1 56 C152 33,162 136,321 94" stroke="#4ec1e8" fill="none"/><path d="M8 43 C168 134,177 38,333 107" stroke="#e736bb" fill="none"/><path d="M12 61 C166 105,182 78,336 60" stroke="#efbc8a" fill="none"/><path d="M3 26 C160 56,157 86,337 19" stroke="#b9d958" fill="none"/><path d="M9 94 C186 114,151 54,339 22" stroke="#a5e862" fill="none"/><path d="M3 46 C184 62,191 60,322 97" stroke="#89d6ef" fill="none"/><path d="M14 65 C158 9,175 136,330 75" stroke="#7cedb5" fill="none"/><path d="M12 104 C161 85,154 114,327 122" stroke="#e76969" fill="none"/><path d="M12 96 C159 70,154 123,322 94" stroke="#d85999" fill="none"/><path d="M13 101 C169 72,183 128,333 76" stroke="#b7e38c" fill="none"/><path fill="#46e5e5" d="M273.61 73.74L273.62 73.75L273.52 73.65Q274.98 73.75 277.37 73.50L277.25 73.38L277.22 73.35Q277.19 74.48 277.19 75.58L277.22 75.61L277.19 77.71L277.28 77.80Q275.76 77.70 274.34 77.83L274.48 77.97L274.29 77.78Q272.98 77.95 271.56 77.89L271.47 77.81L271.57 77.90Q266.74 88.38 260.93 96.20L260.86 96.12L260.85 96.12Q256.64 97.27 254.45 98.30L254.34 98.19L254.45 98.30Q261.36 88.55 266.53 77.90L266.49 77.86L262.12 77.94L262.16 77.98Q262.17 75.74 261.98 73.48L261.96 73.46L261.95 73.45Q265.07 73.60 268.56 73.60L268.73 73.77L271.96 67.50L271.79 67.34Q273.65 64.29 275.72 61.57L275.66 61.52L275.61 61.47Q272.92 61.69 270.21 61.69L270.33 61.81L270.21 61.68Q259.92 61.73 253.53 57.99L253.58 58.04L252.51 55.16L252.46 55.11Q251.82 53.63 251.17 52.15L251.14 52.11L251.23 52.20Q258.55 56.61 268.24 57.00L268.16 56.93L268.27 57.04Q276.98 57.42 285.70 54.06L285.79 54.15L285.72 54.08Q285.43 54.82 284.59 56.30L284.48 56.19L284.50 56.22Q278.37 64.29 273.52 73.65ZM287.30 58.63L287.27 58.60L288.85 55.08L288.95 55.18Q287.30 55.98 284.46 57.21L284.48 57.23L284.85 56.76L284.87 56.78Q284.99 56.45 285.19 56.26L285.20 56.27L285.08 56.15Q285.72 54.98 286.95 52.72L287.11 52.89L287.01 52.78Q278.01 56.70 268.25 56.31L268.33 56.38L268.17 56.22Q258.04 55.84 249.96 50.80L249.89 50.73L250.05 50.90Q251.73 53.99 253.15 58.52L253.06 58.42L253.09 58.45Q255.04 59.63 256.39 60.14L256.31 60.05L256.46 60.21Q256.62 60.69 257.39 63.86L257.37 63.83L257.48 63.94Q262.71 65.95 272.08 65.69L272.05 65.66L272.06 65.67Q271.63 66.72 268.27 73.11L268.28 73.13L268.31 73.15Q264.68 73.01 261.32 72.69L261.40 72.77L261.51 72.88Q261.44 74.10 261.44 75.58L261.56 75.70L261.63 78.68L264.36 78.57L264.46 81.06L264.31 80.91Q257.73 93.51 253.02 99.58L252.92 99.49L252.97 99.54Q255.64 98.20 258.42 97.36L258.59 97.53L258.59 97.53Q257.28 98.94 254.95 101.84L254.97 101.85L255.10 101.99Q260.38 100.03 264.51 99.65L264.47 99.60L264.58 99.71Q269.42 93.19 274.71 81.69L274.77 81.75L280.68 82.17L280.61 82.10Q280.45 80.52 280.45 78.97L280.46 78.98L280.46 75.95L280.45 75.93Q280.03 75.96 279.09 76.03L279.16 76.09L279.05 75.99Q278.12 76.05 277.67 76.05L277.69 76.08L277.75 76.14Q277.64 75.84 277.71 75.58L277.79 75.67L277.73 75.15L277.74 75.15Q282.08 66.52 287.31 58.64Z"/><path d="M4 94 C178 117,184 35,322 71" stroke="#8484ef" fill="none"/><path fill="#5e9bd8" d="M199.01 77.06L199.01 77.05L199.08 77.12Q195.93 77.14 193.87 79.40L193.74 79.28L193.82 79.35Q191.79 81.65 191.53 84.88L191.51 84.86L191.52 84.87Q191.08 88.37 193.15 90.08L193.20 90.13L193.22 90.16Q195.24 91.81 198.85 91.69L198.93 91.77L199.03 91.86Q202.79 91.43 204.40 89.81L204.47 89.88L204.45 89.86Q206.31 87.52 206.11 84.42L206.13 84.44L206.12 84.42Q205.86 81.19 204.02 79.16L204.05 79.19L203.92 79.06Q202.15 77.09 199.05 77.09ZM199.02 61.11L199.04 61.13L199.00 61.09Q196.61 60.90 194.35 61.74L194.43 61.82L194.36 61.75Q192.12 63.06 192.50 66.22L192.55 66.27L192.58 66.29Q193.37 72.58 199.06 72.58L199.10 72.63L199.08 72.60Q201.74 72.94 203.42 71.00L203.36 70.95L203.35 70.93Q205.09 69.06 205.16 66.41L205.18 66.44L205.06 66.31Q205.26 63.41 204.03 62.38L204.01 62.36L204.04 62.39Q201.14 60.91 198.94 61.04ZM198.48 95.90L198.59 96.01L193.29 95.88L193.39 95.98Q190.74 95.91 188.48 94.42L188.47 94.42L188.51 94.45Q186.19 92.52 186.45 87.68L186.41 87.64L186.51 87.73Q187.24 76.06 193.37 74.39L193.37 74.38L193.32 74.34Q189.42 72.76 187.16 63.65L187.23 63.72L187.19 63.69Q186.67 61.36 186.80 60.00L186.87 60.07L186.77 59.97Q187.26 56.33 193.52 56.26L193.61 56.35L193.60 56.34Q200.72 56.17 203.18 56.49L203.25 56.56L203.25 56.56Q209.70 57.39 210.47 60.81L210.50 60.84L210.45 60.79Q210.78 61.95 210.78 62.60L210.75 62.57L210.67 62.49Q210.75 63.74 210.43 64.77L210.37 64.71L210.35 64.70Q209.39 71.93 204.42 74.52L204.30 74.40L204.26 74.36Q210.37 75.89 211.21 84.86L211.12 84.77L211.10 84.76Q211.23 85.14 211.30 87.34L211.27 87.32L211.19 87.23Q211.30 91.86 208.59 93.67L208.71 93.79L208.60 93.68Q206.34 95.24 198.59 96.01ZM202.33 99.82L202.40 99.88L208.14 100.06L208.00 99.93Q211.05 100.20 213.63 98.98L213.67 99.01L213.67 99.01Q215.45 97.63 215.58 94.47L215.75 94.63L215.74 94.62Q215.76 92.71 215.12 89.42L215.06 89.36L215.05 89.34Q213.46 81.43 209.91 78.27L210.00 78.36L209.56 77.59L209.31 77.21L209.07 76.79L209.16 76.87Q211.88 74.49 213.43 67.45L213.39 67.41L213.31 67.33Q213.49 66.86 213.62 65.44L213.55 65.37L213.56 65.38Q213.73 64.26 213.60 63.23L213.51 63.14L213.44 63.07Q213.32 60.75 211.32 59.91L211.32 59.91L211.41 59.94L211.01 59.67L211.08 59.74Q210.63 58.52 208.63 57.16L208.56 57.09L208.52 56.99L208.66 57.12Q205.33 56.00 198.42 55.67L198.44 55.69L198.31 55.56Q195.64 55.35 193.32 55.54L193.32 55.54L193.44 55.66Q192.02 55.67 189.83 55.92L189.78 55.88L189.78 55.88Q186.56 56.60 186.17 59.37L186.08 59.28L186.23 59.43Q186.10 60.21 186.17 61.56L186.08 61.47L186.18 61.58Q186.37 62.48 187.34 66.48L187.21 66.35L187.40 66.54Q188.70 71.98 191.67 74.24L191.55 74.12L191.86 74.42L191.79 74.36Q187.14 76.62 186.24 85.40L186.10 85.26L186.06 85.22Q185.80 89.04 185.80 90.58L185.80 90.58L185.80 90.58Q186.02 93.71 188.02 95.26L188.01 95.24L187.99 95.23Q188.16 95.33 188.62 95.66L188.51 95.56L188.50 95.54Q190.41 99.58 202.49 99.97ZM201.85 81.12L201.89 81.17L201.89 81.17Q203.31 80.91 204.80 81.68L204.86 81.75L204.78 81.66Q205.49 83.40 205.42 84.31L205.53 84.41L205.40 84.29Q205.59 84.93 205.59 85.44L205.51 85.36L205.61 85.46Q205.53 89.39 201.65 90.81L201.73 90.88L201.68 90.84Q200.28 91.30 198.92 91.11L198.96 91.15L198.99 91.18Q197.13 91.39 195.19 90.61L195.13 90.55L195.05 90.46Q194.62 89.39 194.75 87.71L194.76 87.73L194.81 87.78Q195.13 85.12 197.16 83.06L197.05 82.94L197.18 83.07Q199.22 81.01 201.94 81.21ZM202.15 64.95L202.21 65.01L202.24 65.05Q203.65 64.90 204.55 65.16L204.47 65.08L204.56 66.52L204.58 66.54Q204.42 68.77 202.87 70.49L203.00 70.61L202.90 70.52Q201.41 72.29 199.09 71.96L198.99 71.87L199.15 72.03Q197.31 71.87 196.60 71.48L196.70 71.58L196.76 71.64Q196.60 71.09 196.40 69.93L196.32 69.84L196.48 70.00Q196.05 67.64 198.12 66.21L197.99 66.09L198.12 66.22Q199.74 64.87 202.13 64.93Z"/></svg>