<svg xmlns="http://www.w3.org/2000/svg" width="342" height="140" viewBox="0,0,342,140"><path d="M4 41 C165 131,170 129,330 113" stroke="#8ed7ef" fill="none"/><path d="M16 26 C172 21,159 64,327 110" stroke="#a1ec87" fill="none"/><path d="M16 137 C163 10,160 29,340 115" stroke="#4be14b" fill="none"/><path d="M8 56 C191 77,174 79,325 19" stroke="#71e849" fill="none"/><path d="M14 118 C181 3,172 79,335 15" stroke="#e7a792" fill="none"/><path d="M2 127 C178 10,189 20,331 34" stroke="#93ea93" fill="none"/><path d="M20 118 C171 9,153 102,332 63" stroke="#74da52" fill="none"/><path d="M5 1 C169 123,155 125,333 55" stroke="#6febcc" fill="none"/><path d="M8 101 C171 70,152 40,328 66" stroke="#5fe1a0" fill="none"/><path d="M13 3 C186 41,153 85,328 63" stroke="#54e779" fill="none"/><path d="M20 110 C191 27,170 96,329 12" stroke="#e96bca" fill="none"/><path d="M7 39 C161 79,191 29,332 54" stroke="#e2738f" fill="none"/><path fill="#eeee67" d="M137.39 73.23L137.35 73.19L137.42 73.26Q138.45 73.12 140.51 72.90L140.47 72.85L140.66 73.05Q140.60 73.99 140.60 74.94L140.49 74.83L140.46 76.63L140.49 76.66Q139.25 76.66 138.03 76.77L138.11 76.85L138.09 76.83Q136.85 76.87 135.62 76.82L135.58 76.78L135.71 76.90Q131.37 85.77 126.35 92.51L126.51 92.67L126.39 92.56Q122.65 93.44 120.75 94.33L120.74 94.32L120.77 94.35Q126.83 86.03 131.29 76.83L131.28 76.82L127.48 76.87L127.53 76.92Q127.47 74.90 127.30 72.95L127.29 72.94L127.30 72.95Q130.00 73.09 133.01 73.09L133.08 73.15L135.93 67.82L135.86 67.74Q137.25 64.90 139.04 62.56L139.16 62.68L139.22 62.74Q136.76 62.79 134.42 62.79L134.49 62.86L134.43 62.80Q125.48 62.77 119.96 59.54L120.15 59.73L119.10 57.12L119.14 57.15Q118.68 55.97 118.12 54.69L118.13 54.69L117.99 54.55Q124.46 58.52 132.82 58.85L132.84 58.87L132.84 58.87Q140.39 59.22 147.91 56.32L147.77 56.18L147.75 56.16Q147.47 56.77 146.74 58.05L146.74 58.05L146.73 58.04Q141.42 65.00 137.24 73.08ZM149.07 60.05L149.23 60.21L150.70 57.27L150.56 57.14Q149.25 57.94 146.79 59.00L146.77 58.97L147.05 58.53L147.05 58.53Q147.23 58.32 147.40 58.16L147.39 58.14L147.30 58.05Q147.94 57.14 149.00 55.19L149.00 55.18L149.08 55.26Q141.12 58.46 132.71 58.12L132.87 58.28L132.71 58.13Q123.95 57.79 116.99 53.44L116.97 53.43L117.04 53.49Q118.60 56.27 119.82 60.18L119.64 59.99L119.78 60.13Q121.32 61.00 122.49 61.45L122.52 61.48L122.44 61.40Q122.83 62.07 123.50 64.80L123.32 64.62L123.38 64.68Q128.06 66.57 136.14 66.35L136.11 66.32L136.14 66.35Q135.75 67.24 132.85 72.76L132.76 72.67L132.79 72.70Q129.83 72.75 126.93 72.47L126.76 72.30L126.86 72.39Q126.96 73.61 126.96 74.89L126.98 74.91L126.92 77.37L129.42 77.41L129.36 79.41L129.38 79.43Q123.76 90.37 119.69 95.61L119.65 95.57L119.58 95.50Q121.86 94.32 124.26 93.60L124.37 93.71L124.26 93.60Q123.38 95.06 121.37 97.57L121.40 97.60L121.36 97.56Q125.93 95.88 129.49 95.55L129.56 95.61L129.50 95.55Q133.91 90.15 138.48 80.23L138.33 80.08L143.32 80.33L143.42 80.43Q143.30 79.08 143.30 77.74L143.30 77.75L143.33 75.16L143.40 75.22Q142.99 75.21 142.18 75.26L142.19 75.27L142.19 75.27Q141.35 75.30 140.96 75.30L140.85 75.18L140.87 75.21Q140.97 75.14 141.03 74.91L141.04 74.93L140.97 74.47L141.00 74.50Q144.69 66.98 149.21 60.18Z"/><path fill="#75e4e4" d="M194.95 92.51L194.87 92.42L194.85 92.40Q192.91 92.63 190.62 92.02L190.52 91.92L190.54 91.94Q188.76 90.61 188.54 88.21L188.52 88.19L188.59 88.26Q188.52 87.96 188.79 84.12L188.79 84.12L188.73 84.05Q190.31 83.85 193.27 83.29L193.21 83.24L193.03 84.45L193.00 84.42Q192.53 86.91 194.60 87.74L194.56 87.71L194.56 87.71Q195.90 88.38 198.97 88.38L198.95 88.36L198.95 88.37Q201.14 87.99 201.42 87.88L201.51 87.97L201.55 88.01Q202.78 87.68 203.84 86.95L203.91 87.02L203.79 86.91Q205.97 85.63 205.69 82.56L205.60 82.47L205.60 82.48Q205.47 79.05 202.93 76.76L202.92 76.75L202.79 76.63Q200.28 74.36 196.66 74.36L196.61 74.31L196.60 73.98L196.62 73.99Q197.26 74.02 198.54 73.90L198.63 74.00L198.55 73.91Q201.30 73.71 203.31 71.90L203.39 71.98L203.39 71.98Q205.36 70.13 205.58 67.40L205.58 67.40L205.54 67.36Q205.72 66.93 205.72 66.42L205.70 66.41L205.58 66.29Q205.76 64.24 203.76 62.90L203.72 62.86L203.57 62.71Q201.89 61.64 199.55 61.81L199.60 61.86L199.44 61.71Q197.55 61.49 195.77 62.11L195.77 62.11L195.94 62.27Q193.82 63.05 193.37 64.73L193.31 64.66L193.27 64.62Q192.96 65.71 193.08 66.82L193.07 66.82L193.18 66.93Q191.61 66.52 188.60 65.47L188.65 65.52L188.54 65.41Q188.31 63.06 188.36 61.83L188.37 61.84L188.32 61.79Q188.46 59.54 190.02 58.53L190.15 58.66L190.13 58.64Q192.17 57.72 194.51 57.72L194.41 57.62L194.51 57.72Q199.15 57.68 203.78 58.07L203.77 58.07L203.64 57.94Q211.16 58.65 210.71 64.17L210.68 64.14L210.72 64.18Q210.58 66.32 209.86 68.61L209.92 68.67L209.84 68.59Q208.54 73.14 205.08 74.48L204.98 74.38L205.09 74.49Q208.99 75.33 209.88 80.23L209.80 80.15L209.85 80.20Q210.04 81.73 210.15 84.68L210.22 84.75L210.22 84.75Q210.53 91.35 203.78 92.02L203.72 91.96L203.74 91.98Q202.59 92.00 194.84 92.39ZM202.61 95.81L202.52 95.72L202.58 95.78Q203.51 95.88 207.69 95.99L207.53 95.83L207.55 95.85Q210.29 96.13 212.68 95.18L212.53 95.03L212.61 95.11Q214.41 93.79 214.13 91.22L214.06 91.15L213.98 91.07Q213.77 89.08 213.33 86.52L213.32 86.51L213.47 86.66Q212.27 79.94 209.43 77.55L209.46 77.58L209.18 77.02L209.15 76.93L209.22 77.01Q211.81 74.91 212.93 68.50L212.94 68.51L212.95 68.52Q212.88 67.73 213.05 66.34L213.16 66.45L213.15 66.44Q213.19 65.25 213.07 64.25L213.03 64.20L213.11 64.28Q212.92 61.86 211.02 60.85L210.99 60.83L210.85 60.79L210.80 60.75Q210.46 59.41 208.79 58.63L208.81 58.64L208.82 58.65Q206.51 57.57 198.98 57.12L199.06 57.20L199.06 57.20Q196.57 57.05 194.23 57.05L194.24 57.06L194.14 56.96Q191.89 57.05 189.66 58.00L189.53 57.87L189.54 57.88Q187.84 59.08 187.84 61.64L187.93 61.73L187.84 61.64Q187.77 60.96 188.16 65.87L188.23 65.93L188.20 65.90Q188.71 66.08 191.11 66.97L191.00 66.87L191.02 66.88Q190.99 67.64 190.94 68.36L191.00 68.42L190.93 68.36Q190.92 69.07 190.98 69.85L191.14 70.02L191.09 69.96Q193.62 70.43 196.57 70.60L196.55 70.57L196.73 70.76Q196.44 67.63 198.06 66.40L198.18 66.52L198.18 66.52Q199.41 65.57 202.36 65.24L202.33 65.21L202.29 65.17Q203.91 65.12 204.75 65.39L204.84 65.49L204.85 65.50Q204.87 65.63 204.92 65.79L204.95 65.82L204.97 66.12L205.18 67.00L205.17 66.99Q205.05 67.15 204.99 67.37L205.08 67.46L204.98 67.36Q204.99 69.99 202.76 71.72L202.82 71.77L202.77 71.72Q201.44 73.07 198.49 73.35L198.48 73.34L198.35 73.21Q197.33 73.47 196.04 73.47L196.11 73.54L196.10 73.53Q196.12 74.00 196.34 75.00L196.36 75.01L196.43 75.08Q198.91 75.00 201.02 76.05L201.12 76.15L200.97 76.17L198.69 76.45L198.65 76.41Q198.60 76.81 198.77 77.70L198.83 77.77L198.88 77.81Q201.87 77.57 204.38 79.52L204.39 79.53L204.43 79.57Q204.77 80.14 205.22 82.53L205.25 82.56L205.17 82.49Q205.56 86.89 201.27 87.50L201.13 87.36L201.30 87.53Q198.20 87.89 197.36 87.84L197.23 87.70L197.33 87.80Q196.59 87.56 195.81 87.45L195.91 87.55L195.94 86.92L195.98 86.12L196.07 85.59L196.10 85.12L196.23 85.25Q194.67 85.20 193.50 85.48L193.60 85.57L193.56 85.53Q193.61 85.30 193.61 85.03L193.43 84.85L193.59 85.01Q193.51 84.60 193.51 84.26L193.64 84.39L193.65 84.40Q193.62 83.70 193.84 82.64L193.81 82.61L193.78 82.58Q191.19 83.06 188.46 83.56L188.40 83.50L188.31 83.41Q188.45 84.27 188.28 85.92L188.21 85.85L188.23 85.86Q188.00 87.45 188.00 88.34L187.99 88.33L188.04 88.38Q188.08 91.32 190.09 92.43L190.16 92.51L190.25 92.60Q192.30 95.82 199.21 95.54L199.35 95.67L199.29 95.61Q200.25 95.46 202.48 95.68Z"/><path d="M7 101 C163 3,154 91,331 64" stroke="#7857da" fill="none"/><path d="M8 29 C165 102,158 18,340 94" stroke="#a38de6" fill="none"/><path d="M8 74 C192 100,161 41,341 109" stroke="#4fdd96" fill="none"/><path d="M7 138 C168 122,165 12,339 129" stroke="#39e965" fill="none"/><path d="M6 121 C182 17,174 59,336 111" stroke="#e5913c" fill="none"/><path d="M9 15 C172 87,175 132,322 74" stroke="#eaaa6a" fill="none"/><path d="M4 60 C163 19,161 75,339 72" stroke="#6aa3dc" fill="none"/><path d="M12 80 C178 102,170 42,331 83" stroke="#e457c1" fill="none"/><path d="M11 48 C179 109,173 133,332 79" stroke="#8869e7" fill="none"/><path fill="#86dc6a" d="M267.67 76.06L267.81 76.21L267.78 76.18Q264.94 76.06 263.15 78.01L263.20 78.06L263.20 78.06Q261.34 79.94 261.12 82.73L261.25 82.86L261.11 82.72Q261.00 86.01 262.78 87.48L262.63 87.33L262.68 87.38Q264.44 88.83 267.56 88.72L267.60 88.76L267.64 88.80Q271.04 88.58 272.44 87.19L272.45 87.20L272.51 87.26Q274.02 85.15 273.85 82.47L273.72 82.34L273.81 82.42Q273.65 79.71 272.06 77.95L271.93 77.81L272.09 77.97Q270.46 76.18 267.79 76.18ZM267.72 62.35L267.74 62.37L267.66 62.28Q265.62 62.14 263.66 62.86L263.61 62.81L263.74 62.94Q261.69 63.96 262.03 66.69L262.10 66.76L262.09 66.75Q262.77 72.17 267.67 72.17L267.80 72.29L267.74 72.24Q270.08 72.57 271.53 70.90L271.40 70.77L271.39 70.76Q272.82 69.07 272.88 66.78L272.93 66.83L273.05 66.95Q273.16 64.38 272.10 63.49L272.06 63.46L272.03 63.42Q269.57 62.19 267.67 62.30ZM267.28 92.40L267.25 92.37L262.81 92.39L262.87 92.45Q260.65 92.46 258.70 91.18L258.65 91.13L258.69 91.17Q256.73 89.54 256.95 85.36L256.91 85.32L256.78 85.19Q257.57 75.28 262.87 73.83L262.84 73.80L262.74 73.70Q259.55 72.51 257.60 64.65L257.57 64.63L257.50 64.55Q257.12 62.61 257.23 61.44L257.14 61.36L257.21 61.42Q257.52 58.17 262.93 58.11L263.02 58.20L263.07 58.26Q269.18 58.06 271.29 58.34L271.40 58.44L271.37 58.42Q276.94 59.14 277.61 62.09L277.54 62.02L277.63 62.12Q277.69 62.90 277.69 63.46L277.84 63.60L277.68 63.44Q277.75 64.52 277.47 65.41L277.49 65.43L277.55 65.48Q276.63 71.65 272.34 73.88L272.21 73.75L272.25 73.79Q277.47 75.06 278.20 82.80L278.22 82.82L278.07 82.68Q278.17 83.00 278.22 84.89L278.12 84.79L278.22 84.89Q278.36 88.93 276.02 90.49L275.94 90.41L275.98 90.45Q273.93 91.69 267.24 92.36ZM270.71 95.88L270.69 95.86L275.45 95.83L275.56 95.94Q278.04 96.03 280.27 94.97L280.24 94.94L280.20 94.90Q281.93 93.89 282.04 91.16L281.97 91.09L282.14 91.26Q282.07 89.52 281.51 86.67L281.55 86.72L281.52 86.69Q280.15 79.85 277.09 77.12L277.10 77.13L276.91 76.67L276.69 76.33L276.31 75.79L276.39 75.87Q278.74 73.81 280.08 67.74L280.13 67.79L280.12 67.78Q280.08 67.18 280.19 65.95L280.13 65.90L280.15 65.91Q280.32 64.97 280.21 64.08L280.21 64.08L280.15 64.02Q280.01 61.98 278.28 61.26L278.30 61.28L278.36 61.28L278.09 61.12L277.95 60.99Q277.70 60.06 275.97 58.89L275.92 58.84L275.95 58.81L275.94 58.80Q273.07 57.83 267.10 57.55L267.08 57.53L267.04 57.49Q264.89 57.45 262.88 57.62L262.77 57.50L262.93 57.67Q261.61 57.57 259.71 57.79L259.74 57.82L259.82 57.91Q257.01 58.49 256.67 60.89L256.53 60.75L256.69 60.90Q256.53 61.52 256.58 62.70L256.55 62.66L256.54 62.65Q256.70 63.43 257.54 66.88L257.60 66.94L257.60 66.95Q258.73 71.64 261.29 73.59L261.27 73.57L261.44 73.74L261.39 73.69Q257.31 75.58 256.53 83.16L256.68 83.31L256.49 83.11Q256.36 86.50 256.36 87.83L256.29 87.77L256.35 87.83Q256.34 90.32 258.07 91.66L258.09 91.69L258.23 91.82Q258.33 91.87 258.72 92.15L258.72 92.14L258.77 92.20Q260.31 95.57 270.73 95.91ZM270.18 79.63L270.11 79.57L270.15 79.61Q271.49 79.49 272.77 80.16L272.73 80.12L272.66 80.05Q273.28 81.56 273.22 82.34L273.25 82.37L273.24 82.36Q273.41 82.92 273.41 83.36L273.31 83.27L273.33 83.29Q273.27 86.68 269.92 87.91L269.92 87.90L269.97 87.96Q268.89 88.49 267.72 88.33L267.65 88.26L267.57 88.18Q266.04 88.43 264.37 87.76L264.29 87.68L264.30 87.69Q263.95 86.79 264.06 85.34L263.97 85.24L264.13 85.41Q264.21 82.92 265.97 81.14L265.99 81.16L265.95 81.12Q267.77 79.40 270.11 79.57ZM270.38 65.62L270.55 65.79L270.49 65.74Q271.60 65.51 272.38 65.73L272.37 65.72L272.32 66.84L272.49 67.01Q272.40 68.98 271.07 70.46L271.09 70.48L271.02 70.41Q269.69 71.90 267.68 71.62L267.76 71.70L267.77 71.70Q266.38 71.76 265.77 71.43L265.76 71.43L265.69 71.36Q265.60 70.93 265.44 69.93L265.45 69.94L265.37 69.86Q265.13 67.96 266.92 66.73L266.91 66.72L266.83 66.64Q268.48 65.73 270.54 65.78Z"/><path d="M16 126 C174 40,163 51,328 76" stroke="#e69645" fill="none"/><path d="M4 137 C159 103,168 7,323 131" stroke="#6868ed" fill="none"/><path d="M2 12 C176 100,153 77,330 2" stroke="#9b4de9" fill="none"/><path d="M11 7 C158 23,167 116,337 6" stroke="#d7ef8e" fill="none"/><path d="M3 21 C157 16,166 27,328 135" stroke="#e2ba45" fill="none"/><path d="M13 87 C166 45,170 103,338 5" stroke="#bae33f" fill="none"/><path d="M10 65 C189 72,166 34,338 139" stroke="#e584e5" fill="none"/><path d="M5 93 C189 47,155 40,333 76" stroke="#72dec3" fill="none"/><path d="M8 78 C191 44,187 3,339 66" stroke="#71dede" fill="none"/><path d="M18 134 C151 126,166 31,337 128" stroke="#e03838" fill="none"/><path d="M14 114 C178 106,191 107,339 4" stroke="#ebeb64" fill="none"/><path d="M6 66 C157 103,161 29,326 101" stroke="#dfdf70" fill="none"/><path d="M20 5 C191 9,159 71,328 34" stroke="#6b89e4" fill="none"/><path d="M6 110 C188 20,177 128,332 25" stroke="#859ee9" fill="none"/><path d="M18 106 C167 53,182 92,326 78" stroke="#6be4e4" fill="none"/><path d="M20 70 C161 38,177 71,328 13" stroke="#91e7d2" fill="none"/><path d="M10 67 C182 113,164 122,334 80" stroke="#dd8d73" fill="none"/><path d="M10 136 C184 48,182 118,339 26" stroke="#ef8ea7" fill="none"/><path d="M4 69 C171 50,165 21,335 29" stroke="#46e5be" fill="none"/><path fill="#b3d745" d="M63.53 75.92L63.60 76.00L63.63 76.03Q60.90 75.80 59.08 77.89L59.13 77.94L59.14 77.95Q57.42 80.13 57.14 82.91L56.97 82.74L57.04 82.82Q56.61 85.73 58.20 87.16L58.25 87.20L58.23 87.19Q59.93 88.71 62.99 88.55L62.87 88.42L62.96 88.51Q66.00 88.27 67.62 87.26L67.70 87.34L67.67 87.31Q69.27 85.62 69.27 83.34L69.23 83.30L69.29 83.36Q69.32 82.83 69.20 82.27L69.12 82.18L69.20 82.27Q69.27 79.77 67.66 77.80L67.69 77.83L67.70 77.84Q66.08 75.86 63.63 76.02ZM63.10 92.39L62.98 92.27L63.07 92.35Q56.69 92.39 54.63 91.27L54.62 91.26L54.45 91.09Q53.04 90.08 52.76 87.57L52.77 87.58L52.78 87.59Q52.69 86.55 52.75 85.49L52.70 85.44L52.76 85.51Q52.90 84.03 52.90 83.36L52.85 83.31L52.84 83.29Q53.58 79.18 53.80 78.18L53.91 78.29L53.83 78.21Q54.39 75.26 55.61 73.19L55.79 73.37L55.71 73.29Q59.57 66.84 68.27 57.53L68.27 57.54L68.38 57.64Q72.26 57.18 75.50 56.01L75.35 55.86L75.44 55.95Q65.40 66.87 60.72 73.06L60.75 73.09L60.66 73.00Q62.22 72.39 64.11 72.39L64.05 72.32L64.05 72.32Q68.87 72.29 71.10 75.13L71.16 75.19L71.18 75.21Q73.11 77.59 73.61 82.78L73.50 82.67L73.68 82.84Q73.75 83.86 73.75 84.75L73.64 84.65L73.68 84.69Q73.73 89.30 70.49 90.86L70.57 90.94L70.41 90.78Q68.69 91.73 63.00 92.29ZM66.38 95.84L66.33 95.78L66.39 95.84Q68.22 95.73 71.12 95.84L71.19 95.91L71.14 95.86Q73.60 96.03 75.89 94.98L75.90 94.98L75.79 94.88Q77.45 93.75 77.45 91.13L77.44 91.11L77.39 91.07Q77.38 90.34 77.13 88.89L77.27 89.02L77.29 89.04Q77.02 87.58 77.02 86.91L76.90 86.79L76.91 86.80Q75.65 79.91 73.31 77.12L73.40 77.21L73.30 77.11Q73.16 76.91 72.94 76.58L72.95 76.60L72.60 76.35L72.51 76.32L72.38 76.19Q72.03 75.62 71.14 74.22L70.98 74.07L71.07 74.15Q69.61 72.64 66.71 71.97L66.79 72.05L66.71 71.97Q68.61 69.75 72.96 64.34L72.96 64.34L79.07 56.51L79.14 56.59Q76.74 57.76 73.23 58.87L73.30 58.94L73.42 59.06Q74.60 57.45 77.22 54.55L77.28 54.61L77.31 54.64Q73.82 56.23 68.13 57.06L68.12 57.05L67.99 56.92Q59.77 65.70 55.42 72.95L55.38 72.91L55.42 72.95Q53.24 76.68 52.41 85.82L52.24 85.65L52.23 85.64Q52.25 86.61 52.37 88.01L52.28 87.92L52.40 88.04Q52.37 90.47 53.99 91.81L54.13 91.95L53.97 91.79Q54.60 92.08 54.54 92.14L54.60 92.19L54.64 92.23Q55.13 93.51 56.30 94.12L56.26 94.07L56.32 94.14Q58.41 95.11 61.25 95.39L61.27 95.41L61.30 95.44Q61.28 95.42 66.41 95.87ZM66.10 79.44L66.11 79.45L66.10 79.45Q66.94 79.28 68.33 80.01L68.28 79.95L68.29 79.96Q68.72 81.29 68.72 82.24L68.68 82.19L68.82 82.33Q69.10 85.07 67.71 86.52L67.70 86.50L67.68 86.49Q66.04 87.47 62.98 87.91L63.05 87.98L63.08 88.02Q60.94 87.99 60.16 87.60L60.07 87.52L60.18 87.63Q59.77 86.83 59.77 86.38L59.87 86.48L59.82 86.43Q59.42 81.57 63.71 79.67L63.70 79.67L63.80 79.77Q65.00 79.35 66.12 79.46Z"/></svg>