<svg xmlns="http://www.w3.org/2000/svg" width="342" height="140" viewBox="0,0,342,140"><path d="M14 35 C159 72,185 25,334 18" stroke="#539be3" fill="none"/><path d="M18 12 C190 91,153 4,323 69" stroke="#4edede" fill="none"/><path d="M7 46 C153 117,165 44,327 88" stroke="#e390ba" fill="none"/><path d="M10 59 C168 36,182 63,335 17" stroke="#50e1e1" fill="none"/><path d="M17 66 C190 44,186 76,330 111" stroke="#86ec63" fill="none"/><path d="M12 14 C179 57,183 73,322 53" stroke="#eb60eb" fill="none"/><path d="M13 121 C152 55,174 58,341 121" stroke="#889ee1" fill="none"/><path fill="#a35fe7" d="M137.70 74.01L137.62 73.93L137.61 73.92Q139.16 74.00 141.75 73.72L141.76 73.73L141.80 73.77Q141.77 75.00 141.77 76.19L141.77 76.19L141.70 78.43L141.60 78.33Q140.11 78.39 138.57 78.53L138.50 78.46L138.68 78.63Q136.97 78.53 135.43 78.46L135.52 78.55L135.45 78.48Q130.30 89.93 124.00 98.40L123.94 98.34L123.99 98.39Q119.39 99.60 117.01 100.72L117.05 100.76L116.93 100.65Q124.61 90.26 130.21 78.70L130.16 78.65L125.39 78.71L125.22 78.54Q125.21 76.08 125.00 73.63L125.04 73.67L125.11 73.75Q128.57 73.99 132.36 73.99L132.35 73.98L135.92 67.26L135.77 67.10Q137.72 63.74 139.96 60.80L139.85 60.68L139.97 60.81Q137.14 61.13 134.20 61.13L134.09 61.02L134.05 60.98Q122.97 61.10 116.04 57.04L116.04 57.04L114.70 53.75L114.74 53.78Q114.17 52.30 113.47 50.69L113.39 50.61L113.54 50.76Q121.48 55.55 131.98 55.97L131.94 55.93L131.87 55.86Q141.45 56.41 150.91 52.77L150.89 52.75L150.86 52.72Q150.53 53.51 149.62 55.12L149.63 55.14L149.56 55.06Q142.97 63.87 137.72 74.03ZM152.46 57.54L152.51 57.59L154.39 53.94L154.30 53.85Q152.53 54.74 149.44 56.07L149.61 56.23L149.78 55.49L149.91 55.63Q150.06 55.28 150.27 55.07L150.32 55.13L150.26 55.06Q150.93 53.77 152.26 51.32L152.27 51.33L152.34 51.40Q142.43 55.49 131.86 55.07L131.89 55.10L131.89 55.10Q120.90 54.69 112.15 49.23L112.19 49.27L112.05 49.13Q114.09 52.71 115.63 57.61L115.56 57.54L115.51 57.49Q117.56 58.70 119.03 59.26L119.06 59.29L118.97 59.20Q119.41 59.99 120.25 63.42L120.14 63.31L120.27 63.44Q125.99 65.66 136.14 65.38L136.15 65.39L136.06 65.30Q135.64 66.49 132.00 73.42L131.89 73.31L131.86 73.28Q128.18 73.38 124.54 73.03L124.51 73.01L124.45 72.94Q124.59 74.49 124.59 76.10L124.66 76.16L124.74 79.39L127.81 79.39L127.71 81.88L127.70 81.87Q120.49 95.46 115.38 102.04L115.32 101.98L115.45 102.10Q118.41 100.72 121.42 99.81L121.40 99.80L121.38 99.78Q120.07 101.40 117.55 104.55L117.54 104.55L117.58 104.58Q123.41 102.57 127.89 102.15L127.95 102.22L127.81 102.07Q133.19 95.13 138.94 82.67L138.96 82.69L145.31 83.09L145.31 83.09Q145.12 81.36 145.12 79.68L145.17 79.73L145.26 76.53L145.21 76.47Q144.76 76.52 143.75 76.59L143.58 76.43L143.69 76.53Q142.58 76.51 142.09 76.51L142.25 76.67L142.26 76.68Q142.20 76.41 142.27 76.13L142.25 76.11L142.20 75.57L142.26 75.63Q146.94 66.23 152.61 57.69Z"/><path d="M18 94 C162 44,182 23,322 11" stroke="#eeee7b" fill="none"/><path d="M9 103 C156 20,182 22,325 86" stroke="#338ce4" fill="none"/><path d="M17 91 C175 112,170 8,336 109" stroke="#e06fc4" fill="none"/><path d="M8 107 C168 5,186 69,333 69" stroke="#dc7350" fill="none"/><path d="M4 131 C189 25,172 71,324 110" stroke="#eb7eb5" fill="none"/><path d="M13 26 C157 80,181 16,323 20" stroke="#71e74a" fill="none"/><path d="M3 68 C152 83,172 59,332 13" stroke="#8585ef" fill="none"/><path d="M2 91 C184 85,162 132,335 134" stroke="#c4e16f" fill="none"/><path d="M2 125 C178 12,191 9,333 72" stroke="#3fe83f" fill="none"/><path d="M15 63 C161 137,164 3,338 113" stroke="#c3e169" fill="none"/><path d="M2 97 C179 125,162 75,327 118" stroke="#cde87c" fill="none"/><path d="M2 84 C155 131,169 128,340 68" stroke="#e18769" fill="none"/><path d="M2 2 C159 95,162 21,325 129" stroke="#e17ec8" fill="none"/><path fill="#849fef" d="M191.43 84.64L191.44 84.65L191.49 84.70Q197.16 83.99 203.04 84.20L203.01 84.16L203.06 84.22Q202.86 79.40 202.86 74.99L202.95 75.08L202.92 75.04Q203.00 70.57 203.35 65.88L203.17 65.71L203.30 65.83Q200.96 68.89 191.37 84.57ZM209.59 98.11L209.67 98.18L209.69 98.20Q206.52 97.55 203.23 97.41L203.33 97.51L203.30 97.48Q202.86 93.05 202.65 88.50L202.72 88.57L202.68 88.53Q192.90 88.21 184.22 90.80L184.23 90.81L184.13 90.70Q184.47 89.93 184.82 88.10L184.79 88.08L184.85 88.13Q188.09 82.28 194.68 70.72L194.66 70.71L194.59 70.64Q199.88 61.64 206.18 54.50L206.19 54.51L206.32 54.64Q207.92 54.28 211.00 53.79L210.90 53.69L211.06 53.85Q207.40 65.52 207.40 78.47L207.39 78.47L207.55 78.63Q207.47 81.27 207.61 84.00L207.60 84.00L210.04 84.27L209.93 84.16Q211.13 84.31 212.25 84.52L212.21 84.47L212.17 84.43Q212.35 86.23 212.84 89.80L212.93 89.88L213.01 89.97Q210.60 89.31 207.87 88.96L207.86 88.95L207.99 89.08Q208.31 92.69 209.57 98.08ZM212.70 83.78L212.66 83.73L212.77 83.84Q212.41 83.69 212.06 83.69L211.92 83.55L211.32 83.65L211.24 83.58Q211.10 80.92 211.10 78.32L211.13 78.35L211.16 78.39Q211.12 66.58 214.90 55.52L214.99 55.60L214.94 55.55Q213.40 55.90 210.74 56.60L210.86 56.72L210.86 56.72Q211.32 55.37 212.16 52.78L212.04 52.66L212.04 52.66Q209.75 53.45 205.97 53.87L205.87 53.77L205.85 53.75Q198.66 61.75 189.07 78.98L189.20 79.11L193.02 72.36L192.90 72.23Q192.12 74.12 191.63 75.17L191.72 75.27L183.52 91.84L183.47 91.80Q184.71 91.57 186.81 90.87L186.78 90.84L186.45 91.21L186.52 91.28Q186.31 92.54 185.75 94.85L185.74 94.84L185.82 94.92Q193.32 92.40 202.21 92.75L202.15 92.69L202.26 92.80Q202.28 94.50 202.63 98.14L202.73 98.24L202.64 98.15Q204.58 98.13 206.54 98.34L206.57 98.37L206.63 98.43Q206.85 99.63 207.34 102.15L207.41 102.22L207.39 102.20Q210.78 102.51 216.31 104.19L216.39 104.27L216.31 104.19Q214.52 100.30 212.84 94.28L212.76 94.20L215.52 95.14L215.56 95.18Q216.74 95.52 218.00 96.15L218.10 96.25L218.02 96.17Q216.61 91.61 216.33 88.53L216.32 88.51L216.21 88.40Q215.27 88.24 213.17 87.82L213.11 87.76L213.19 87.83Q212.72 85.41 212.72 83.80ZM198.01 83.51L198.00 83.50L198.04 83.54Q199.42 81.14 202.29 76.45L202.27 76.43L202.36 76.52Q202.19 78.10 202.12 79.85L202.21 79.94L202.18 79.91Q202.17 81.72 202.24 83.47L202.22 83.45L202.23 83.46Q201.26 83.47 200.21 83.47L200.23 83.49L200.26 83.52Q199.11 83.49 197.99 83.49Z"/><path d="M11 57 C176 108,181 55,333 120" stroke="#e65ae6" fill="none"/><path fill="#dc418e" d="M62.49 77.55L62.51 77.57L62.41 77.47Q59.24 77.45 56.96 80.07L56.96 80.07L56.88 80.00Q54.66 82.68 54.31 86.18L54.21 86.07L54.31 86.18Q53.74 89.81 55.74 91.59L55.86 91.72L55.82 91.68Q57.84 93.49 61.70 93.28L61.63 93.22L61.68 93.26Q65.59 93.05 67.62 91.79L67.56 91.72L67.49 91.65Q69.67 89.70 69.67 86.83L69.68 86.84L69.60 86.76Q69.65 86.11 69.51 85.41L69.48 85.38L69.45 85.35Q69.63 82.30 67.60 79.82L67.64 79.86L67.71 79.94Q65.57 77.34 62.49 77.55ZM61.82 98.09L61.65 97.92L61.71 97.99Q53.77 98.10 51.18 96.70L51.11 96.63L51.02 96.54Q49.30 95.30 48.95 92.15L48.93 92.13L48.86 92.07Q48.71 90.73 48.78 89.40L48.78 89.40L48.91 89.52Q48.97 87.55 48.97 86.71L49.11 86.86L49.01 86.76Q49.85 81.50 50.13 80.24L50.27 80.38L50.15 80.27Q51.04 76.74 52.58 74.15L52.47 74.04L52.49 74.06Q57.56 66.18 68.48 54.48L68.43 54.43L68.30 54.30Q73.21 53.75 77.27 52.28L77.43 52.43L77.43 52.44Q64.79 66.12 58.91 73.89L58.92 73.90L58.87 73.85Q60.59 72.85 62.97 72.85L63.13 73.00L63.12 73.00Q69.09 72.88 71.90 76.45L71.91 76.47L71.97 76.53Q74.39 79.50 75.02 86.01L75.02 86.01L75.08 86.08Q75.23 87.42 75.23 88.54L75.26 88.57L75.10 88.41Q75.23 94.28 71.17 96.24L71.06 96.14L71.17 96.24Q68.89 97.32 61.74 98.02ZM65.86 102.34L65.88 102.36L66.01 102.49Q68.28 102.31 71.92 102.45L72.03 102.57L71.88 102.41Q75.01 102.67 77.88 101.34L77.85 101.31L77.88 101.34Q79.94 99.90 79.94 96.60L79.82 96.49L79.87 96.54Q79.78 95.54 79.46 93.72L79.62 93.88L79.57 93.82Q79.24 91.99 79.24 91.15L79.17 91.07L79.22 91.13Q77.55 82.39 74.61 78.89L74.70 78.97L74.75 79.03Q74.49 78.70 74.21 78.28L74.19 78.26L73.75 77.96L73.50 77.78L73.58 77.86Q72.89 76.89 71.77 75.14L71.84 75.21L71.83 75.20Q70.14 73.44 66.50 72.60L66.49 72.58L66.50 72.59Q68.70 69.62 74.16 62.82L74.28 62.94L82.02 53.18L82.01 53.16Q79.03 54.66 74.62 56.07L74.61 56.06L74.76 56.21Q76.35 54.30 79.64 50.66L79.75 50.77L79.67 50.68Q75.18 52.57 68.04 53.62L68.14 53.72L68.05 53.63Q57.62 64.56 52.16 73.66L52.12 73.62L52.14 73.64Q49.35 78.28 48.30 89.76L48.26 89.71L48.30 89.76Q48.12 90.76 48.26 92.51L48.35 92.60L48.25 92.51Q48.34 95.68 50.37 97.36L50.42 97.41L50.41 97.40Q51.10 97.67 51.03 97.74L51.13 97.84L51.18 97.89Q51.82 99.51 53.29 100.28L53.22 100.20L53.22 100.20Q55.89 101.47 59.46 101.82L59.57 101.94L59.46 101.82Q59.50 101.86 65.94 102.42ZM65.46 81.71L65.49 81.74L65.56 81.81Q66.62 81.61 68.37 82.52L68.38 82.53L68.35 82.50Q68.91 84.18 68.91 85.37L68.94 85.40L68.94 85.40Q69.26 88.80 67.51 90.62L67.63 90.74L67.51 90.62Q65.68 92.08 61.83 92.64L61.75 92.57L61.64 92.45Q59.06 92.54 58.08 92.05L58.11 92.07L58.17 92.14Q57.70 91.17 57.70 90.61L57.75 90.66L57.80 90.72Q57.34 84.65 62.73 82.27L62.76 82.30L62.68 82.22Q64.09 81.60 65.49 81.74Z"/><path d="M13 18 C174 124,177 84,329 89" stroke="#6de3a8" fill="none"/><path d="M5 114 C165 60,180 92,332 128" stroke="#97e87c" fill="none"/><path d="M16 21 C189 10,162 52,326 61" stroke="#6666df" fill="none"/><path d="M20 23 C151 136,160 57,331 42" stroke="#6fe56f" fill="none"/><path fill="#e9e961" d="M267.68 66.98L267.85 67.14L267.71 67.00Q261.91 67.08 258.55 65.12L258.56 65.14L258.56 65.14Q263.17 62.61 272.13 54.83L272.03 54.73L272.02 54.72Q273.51 54.53 275.89 53.41L275.76 53.27L275.87 53.39Q273.36 64.25 273.15 75.95L273.25 76.05L273.19 75.99Q272.99 87.69 274.95 98.89L274.85 98.79L274.92 98.86Q271.91 97.61 267.99 97.40L267.86 97.27L267.82 97.22Q267.61 89.59 267.61 82.10L267.60 82.09L267.69 82.18Q267.78 74.71 267.85 67.15ZM266.98 71.10L267.10 98.05L267.09 98.04Q269.35 98.05 271.10 98.40L271.09 98.39L271.15 98.45Q271.29 99.71 271.64 102.23L271.49 102.08L271.57 102.16Q276.75 103.08 281.23 107.21L281.18 107.15L281.19 107.16Q276.70 94.13 276.63 80.41L276.63 80.40L276.63 80.41Q276.43 66.62 279.79 53.32L279.79 53.31L279.83 53.36Q278.83 54.11 275.89 56.14L275.93 56.18L275.87 56.12Q276.25 54.75 276.81 51.95L276.93 52.06L276.92 52.06Q274.45 53.44 271.79 54.14L271.84 54.19L271.81 54.16Q264.82 60.68 256.90 64.88L256.99 64.97L256.91 64.89Q259.52 66.93 263.86 67.57L263.82 67.53L263.92 67.62Q262.65 68.52 260.27 70.48L260.18 70.40L260.19 70.41Q262.91 71.10 266.97 71.10L267.12 71.25Z"/><path d="M11 95 C186 57,172 85,323 53" stroke="#44d869" fill="none"/><path d="M11 58 C167 45,162 20,328 103" stroke="#a8e669" fill="none"/><path d="M12 22 C172 26,173 138,335 18" stroke="#6abfdc" fill="none"/><path d="M2 36 C170 78,163 94,327 119" stroke="#a5eb60" fill="none"/><path d="M3 126 C154 28,188 44,339 35" stroke="#89efbc" fill="none"/><path d="M19 59 C163 133,168 41,337 18" stroke="#87b7e8" fill="none"/><path d="M17 101 C175 94,178 63,328 27" stroke="#58e3c0" fill="none"/><path d="M20 75 C160 57,153 127,338 58" stroke="#df886b" fill="none"/><path d="M9 118 C162 81,184 31,322 6" stroke="#e36d8a" fill="none"/><path d="M5 83 C192 61,178 53,334 123" stroke="#d38eeb" fill="none"/><path d="M1 88 C153 108,160 41,328 105" stroke="#d8d85e" fill="none"/><path d="M13 80 C168 45,152 44,328 73" stroke="#eeee90" fill="none"/><path d="M6 68 C162 103,170 119,331 14" stroke="#e386cc" fill="none"/><path d="M12 42 C164 89,188 76,334 128" stroke="#efb275" fill="none"/><path d="M16 138 C157 56,183 126,338 34" stroke="#9393e5" fill="none"/></svg>