<svg xmlns="http://www.w3.org/2000/svg" width="342" height="140" viewBox="0,0,342,140"><path d="M7 80 C163 3,153 82,338 92" stroke="#dd9e5f" fill="none"/><path d="M19 115 C160 55,184 64,321 107" stroke="#dd68c0" fill="none"/><path d="M2 104 C182 2,186 134,324 24" stroke="#984fe2" fill="none"/><path d="M8 132 C189 114,155 72,326 134" stroke="#e769c7" fill="none"/><path d="M12 8 C157 47,155 38,331 10" stroke="#eaa289" fill="none"/><path d="M16 66 C180 76,182 128,333 122" stroke="#df714d" fill="none"/><path d="M20 79 C155 109,177 123,334 104" stroke="#e183b2" fill="none"/><path d="M2 44 C175 6,179 126,330 59" stroke="#e23ab8" fill="none"/><path d="M6 65 C167 88,188 37,340 56" stroke="#e44393" fill="none"/><path d="M16 116 C174 97,184 80,331 114" stroke="#debe5e" fill="none"/><path d="M12 107 C156 20,177 52,340 9" stroke="#63ec86" fill="none"/><path d="M18 139 C177 117,178 15,339 106" stroke="#a56edd" fill="none"/><path d="M2 37 C176 134,158 14,337 32" stroke="#6a8aea" fill="none"/><path d="M16 5 C177 110,171 87,323 122" stroke="#e084c9" fill="none"/><path d="M4 44 C153 71,155 7,322 26" stroke="#7ce15a" fill="none"/><path d="M18 13 C180 126,161 75,340 56" stroke="#64eb86" fill="none"/><path d="M3 65 C181 97,177 88,322 118" stroke="#e763e7" fill="none"/><path d="M17 5 C180 17,165 64,330 51" stroke="#54e2e2" fill="none"/><path fill="#c165e0" d="M171.60 73.78L171.57 73.74L171.57 73.74Q172.93 73.72 175.37 73.46L175.37 73.46L175.50 73.59Q175.41 74.68 175.41 75.80L175.26 75.65L175.40 77.97L175.43 78.00Q173.85 77.87 172.40 78.00L172.51 78.12L172.50 78.10Q171.04 78.17 169.59 78.10L169.58 78.09L169.58 78.08Q164.54 88.68 158.61 96.65L158.71 96.76L158.60 96.65Q154.21 97.73 151.97 98.79L152.02 98.84L152.08 98.90Q159.24 89.05 164.52 78.17L164.54 78.19L159.85 78.05L159.83 78.03Q160.01 75.90 159.81 73.59L159.67 73.45L159.78 73.56Q163.03 73.78 166.59 73.78L166.60 73.79L169.84 67.33L169.85 67.34Q171.56 64.04 173.67 61.27L173.78 61.38L173.78 61.38Q171.00 61.57 168.23 61.57L168.27 61.61L168.13 61.47Q157.59 61.48 151.06 57.65L151.05 57.65L150.09 54.84L150.00 54.75Q149.52 53.41 148.86 51.90L148.77 51.81L148.70 51.74Q156.36 56.42 166.25 56.82L166.23 56.80L166.12 56.69Q174.99 57.06 183.89 53.63L183.95 53.68L184.04 53.77Q183.68 54.47 182.82 55.99L182.76 55.93L182.71 55.87Q176.56 64.23 171.61 73.79ZM185.54 58.31L185.60 58.36L187.24 54.79L187.21 54.77Q185.59 55.65 182.69 56.91L182.68 56.90L183.16 56.52L183.09 56.45Q183.31 56.21 183.51 56.01L183.47 55.97L183.36 55.86Q184.07 54.73 185.32 52.42L185.39 52.48L185.46 52.55Q176.21 56.49 166.25 56.10L166.21 56.05L166.23 56.08Q155.72 55.52 147.48 50.38L147.58 50.48L147.43 50.33Q149.39 53.74 150.84 58.36L150.79 58.30L150.81 58.32Q152.58 59.30 153.96 59.83L154.07 59.93L153.97 59.84Q154.24 60.44 155.03 63.67L155.14 63.78L155.18 63.82Q160.63 65.97 170.19 65.71L170.14 65.66L170.21 65.72Q169.67 66.70 166.24 73.23L166.20 73.19L166.24 73.23Q162.57 73.12 159.14 72.79L159.21 72.86L159.16 72.81Q159.28 74.25 159.28 75.77L159.38 75.86L159.26 78.71L162.17 78.73L162.29 81.28L162.15 81.14Q155.49 94.07 150.68 100.27L150.60 100.19L150.61 100.20Q153.34 98.84 156.18 97.99L156.23 98.03L156.15 97.95Q154.99 99.56 152.61 102.53L152.70 102.62L152.56 102.48Q158.04 100.57 162.26 100.18L162.29 100.21L162.38 100.30Q167.51 93.82 172.91 82.08L172.79 81.96L178.77 82.33L178.68 82.24Q178.60 80.71 178.60 79.13L178.66 79.19L178.56 75.99L178.56 75.99Q178.27 76.16 177.31 76.23L177.31 76.23L177.14 76.06Q176.17 76.10 175.70 76.10L175.89 76.29L175.85 76.24Q175.84 76.04 175.91 75.78L175.81 75.68L175.92 75.32L175.97 75.37Q180.14 66.29 185.48 58.25Z"/><path d="M17 51 C165 125,152 8,322 78" stroke="#82ed82" fill="none"/><path d="M20 79 C181 5,177 139,322 99" stroke="#69e1e1" fill="none"/><path d="M3 39 C154 56,172 118,327 109" stroke="#94bce5" fill="none"/><path fill="#ea4c4c" d="M114.82 73.66L114.97 73.81L114.99 73.83Q116.25 73.71 118.69 73.44L118.64 73.40L118.68 73.43Q118.63 74.57 118.63 75.69L118.67 75.74L118.69 77.93L118.63 77.87Q117.30 77.99 115.85 78.13L115.70 77.97L115.82 78.09Q114.39 78.18 112.94 78.11L112.79 77.97L112.79 77.96Q107.86 88.66 101.93 96.64L101.92 96.64L101.90 96.62Q97.57 97.76 95.33 98.82L95.35 98.83L95.35 98.83Q102.61 89.08 107.88 78.20L107.71 78.02L103.16 78.02L103.24 78.11Q103.17 75.72 102.97 73.42L103.12 73.57L103.10 73.55Q106.35 73.76 109.91 73.76L109.97 73.83L113.20 67.36L113.21 67.37Q114.83 63.98 116.94 61.21L117.05 61.32L117.00 61.27Q114.26 61.50 111.49 61.50L111.47 61.47L111.49 61.50Q100.97 61.52 94.44 57.70L94.49 57.75L93.42 54.83L93.41 54.82Q92.74 53.30 92.08 51.78L92.10 51.80L92.03 51.73Q99.65 56.38 109.54 56.77L109.55 56.78L109.57 56.81Q118.35 57.08 127.26 53.66L127.34 53.74L127.31 53.71Q127.00 54.46 126.15 55.98L126.15 55.98L126.06 55.89Q119.84 64.17 114.89 73.73ZM128.96 58.39L128.89 58.32L130.62 54.84L130.67 54.89Q128.89 55.62 125.99 56.87L126.14 57.02L126.31 56.34L126.38 56.40Q126.51 56.07 126.71 55.88L126.84 56.01L126.85 56.02Q127.43 54.75 128.68 52.45L128.79 52.56L128.62 52.38Q119.44 56.39 109.48 55.99L109.44 55.96L109.54 56.05Q99.09 55.56 90.84 50.41L90.91 50.48L90.76 50.33Q92.62 53.64 94.07 58.25L94.16 58.35L94.14 58.33Q95.93 59.32 97.31 59.85L97.48 60.01L97.43 59.97Q97.66 60.53 98.46 63.76L98.48 63.78L98.34 63.64Q103.84 65.85 113.40 65.58L113.42 65.60L113.48 65.67Q113.00 66.70 109.57 73.23L109.60 73.26L109.53 73.19Q105.95 73.16 102.52 72.83L102.56 72.88L102.45 72.77Q102.56 74.20 102.56 75.72L102.69 75.84L102.74 78.86L105.62 78.84L105.63 81.29L105.48 81.13Q98.83 94.07 94.02 100.27L93.93 100.18L93.85 100.10Q96.69 98.86 99.53 98.00L99.45 97.93L99.46 97.93Q98.28 99.52 95.90 102.49L96.01 102.59L95.91 102.50Q101.41 100.61 105.63 100.21L105.74 100.32L105.62 100.20Q110.84 93.82 116.25 82.08L116.21 82.04L122.16 82.39L122.06 82.29Q121.93 80.71 121.93 79.12L122.05 79.25L121.91 76.00L121.98 76.08Q121.55 76.11 120.60 76.17L120.65 76.23L120.52 76.10Q119.53 76.13 119.07 76.13L119.15 76.22L119.17 76.23Q119.20 76.06 119.27 75.80L119.28 75.81L119.23 75.31L119.14 75.21Q123.55 66.37 128.89 58.32Z"/><path d="M16 68 C162 132,150 88,338 104" stroke="#bf8df0" fill="none"/><path d="M2 104 C173 138,176 3,333 115" stroke="#4be64b" fill="none"/><path d="M18 55 C153 84,169 68,339 131" stroke="#a3df66" fill="none"/><path d="M18 136 C190 20,159 33,335 119" stroke="#bbde53" fill="none"/><path d="M20 42 C155 20,182 4,326 45" stroke="#6687ea" fill="none"/><path fill="#e85e30" d="M51.44 77.07L51.52 77.15L51.39 77.02Q48.34 76.94 46.20 79.42L46.17 79.38L46.26 79.48Q43.99 81.82 43.66 85.12L43.72 85.17L43.66 85.11Q43.24 88.65 45.12 90.33L45.13 90.34L45.21 90.43Q47.13 92.15 50.76 91.95L50.73 91.93L50.63 91.82Q54.24 91.54 56.15 90.36L56.16 90.36L56.32 90.52Q58.31 88.63 58.31 85.92L58.29 85.90L58.20 85.81Q58.31 85.26 58.18 84.60L58.01 84.44L58.13 84.55Q58.22 81.60 56.30 79.26L56.21 79.17L56.40 79.36Q54.44 76.97 51.54 77.17ZM50.74 96.36L50.78 96.39L50.85 96.46Q43.25 96.45 40.81 95.13L40.67 94.98L40.76 95.08Q39.01 93.79 38.68 90.82L38.55 90.69L38.58 90.72Q38.48 89.50 38.54 88.24L38.72 88.42L38.56 88.26Q38.81 86.59 38.81 85.80L38.84 85.84L38.93 85.92Q39.67 80.93 39.93 79.74L39.97 79.78L39.93 79.74Q40.74 76.39 42.19 73.95L42.07 73.83L42.05 73.81Q46.67 66.23 56.95 55.22L57.06 55.33L56.94 55.20Q61.67 54.79 65.49 53.41L65.55 53.47L65.39 53.31Q53.52 66.23 47.98 73.55L48.03 73.59L48.01 73.58Q49.82 72.81 52.06 72.81L52.03 72.78L52.01 72.76Q57.72 72.74 60.36 76.10L60.31 76.05L60.41 76.15Q62.75 79.01 63.34 85.15L63.39 85.20L63.23 85.04Q63.45 86.37 63.45 87.43L63.49 87.47L63.51 87.49Q63.41 92.80 59.58 94.65L59.61 94.67L59.64 94.70Q57.59 95.81 50.86 96.47ZM54.71 100.52L54.68 100.49L54.80 100.61Q57.06 100.56 60.49 100.69L60.46 100.66L60.38 100.58Q63.27 100.77 65.98 99.52L65.93 99.47L65.94 99.49Q67.84 98.09 67.84 94.99L67.79 94.93L67.82 94.97Q67.75 94.04 67.46 92.33L67.51 92.38L67.52 92.39Q67.23 90.68 67.23 89.89L67.22 89.88L67.16 89.82Q65.72 81.73 62.95 78.43L62.95 78.42L62.91 78.39Q62.81 78.22 62.54 77.82L62.48 77.76L62.08 77.49L61.81 77.29L61.88 77.36Q61.22 76.43 60.16 74.78L60.27 74.89L60.24 74.86Q58.73 73.28 55.30 72.49L55.18 72.37L55.15 72.34Q57.38 69.69 62.52 63.30L62.60 63.37L69.74 54.03L69.80 54.09Q67.02 55.53 62.87 56.85L63.02 57.00L62.87 56.85Q64.48 55.16 67.58 51.73L67.58 51.74L67.64 51.79Q63.46 53.62 56.74 54.61L56.67 54.54L56.70 54.57Q46.82 64.80 41.68 73.37L41.77 73.47L41.80 73.49Q39.02 77.71 38.03 88.52L38.14 88.64L38.15 88.64Q38.06 89.67 38.19 91.32L38.06 91.19L38.11 91.24Q38.30 94.33 40.21 95.91L40.05 95.75L40.15 95.85Q40.75 96.06 40.68 96.12L40.73 96.17L40.76 96.19Q41.40 97.76 42.78 98.48L42.76 98.47L42.77 98.47Q45.22 99.61 48.59 99.93L48.61 99.96L48.57 99.92Q48.62 99.97 54.68 100.49ZM54.25 81.01L54.42 81.17L54.31 81.07Q55.32 80.88 56.97 81.74L56.97 81.74L57.06 81.83Q57.58 83.41 57.58 84.53L57.65 84.60L57.55 84.50Q57.91 87.76 56.26 89.48L56.25 89.46L56.25 89.47Q54.35 90.66 50.72 91.19L50.78 91.25L50.80 91.26Q48.35 91.32 47.43 90.86L47.43 90.87L47.25 90.68Q46.96 89.93 46.96 89.40L47.08 89.52L46.96 89.41Q46.52 83.69 51.60 81.45L51.63 81.48L51.70 81.55Q52.99 80.93 54.31 81.06Z"/><path d="M15 105 C169 73,164 100,337 68" stroke="#71e74a" fill="none"/><path d="M10 23 C169 54,188 112,323 124" stroke="#ecec82" fill="none"/><path d="M6 32 C153 94,187 17,328 113" stroke="#51dbdb" fill="none"/><path d="M11 108 C189 21,168 88,334 96" stroke="#63e283" fill="none"/><path fill="#ec5959" d="M278.21 77.17L278.28 77.25L278.36 77.33Q275.04 77.24 272.93 79.55L272.90 79.51L273.04 79.65Q270.88 81.92 270.62 85.21L270.52 85.11L270.61 85.20Q270.21 88.83 272.32 90.58L272.28 90.54L272.32 90.58Q274.39 92.28 278.09 92.15L278.15 92.22L278.08 92.15Q282.19 91.97 283.84 90.32L283.75 90.23L283.75 90.24Q285.64 87.83 285.44 84.67L285.37 84.60L285.41 84.64Q285.14 81.34 283.26 79.26L283.37 79.36L283.43 79.43Q281.43 77.23 278.26 77.23ZM278.19 60.87L278.24 60.92L278.31 60.99Q275.73 60.64 273.42 61.50L273.55 61.63L273.47 61.55Q271.25 62.96 271.65 66.19L271.65 66.19L271.64 66.18Q272.47 72.62 278.27 72.62L278.20 72.54L278.23 72.57Q280.92 72.90 282.64 70.92L282.64 70.92L282.76 71.04Q284.46 69.05 284.53 66.35L284.45 66.27L284.58 66.40Q284.70 63.35 283.44 62.30L283.44 62.30L283.34 62.19Q280.50 60.80 278.25 60.93ZM277.75 96.50L277.83 96.58L272.42 96.44L272.54 96.56Q269.83 96.49 267.52 94.97L267.49 94.94L267.53 94.98Q265.26 93.11 265.52 88.16L265.40 88.04L265.38 88.02Q266.24 76.22 272.51 74.50L272.49 74.49L272.50 74.50Q268.61 72.98 266.30 63.68L266.15 63.54L266.32 63.70Q265.67 61.20 265.80 59.82L265.84 59.86L265.69 59.71Q266.38 56.18 272.77 56.11L272.60 55.93L272.75 56.09Q280.10 55.99 282.61 56.32L282.43 56.13L282.43 56.14Q289.13 57.10 289.92 60.59L289.98 60.65L289.88 60.56Q290.08 61.61 290.08 62.27L290.22 62.41L290.24 62.43Q290.16 63.54 289.83 64.59L289.82 64.59L289.89 64.65Q288.86 72.00 283.78 74.63L283.69 74.54L283.62 74.47Q289.75 75.92 290.60 85.09L290.68 85.16L290.69 85.17Q290.54 85.29 290.61 87.53L290.65 87.57L290.62 87.54Q290.78 92.32 288.01 94.16L287.96 94.11L288.11 94.26Q285.66 95.70 277.75 96.49ZM281.68 100.49L281.72 100.53L287.58 100.73L287.62 100.76Q290.43 100.74 293.07 99.49L293.12 99.53L293.16 99.58Q295.04 98.22 295.17 94.99L295.23 95.05L295.19 95.01Q295.28 93.13 294.62 89.76L294.61 89.75L294.59 89.73Q293.15 81.83 289.53 78.60L289.50 78.57L289.14 77.88L288.83 77.44L288.61 77.02L288.50 76.92Q291.33 74.54 292.92 67.35L292.92 67.35L293.02 67.46Q292.94 66.71 293.07 65.26L293.02 65.21L293.02 65.21Q293.16 64.03 293.03 62.98L292.97 62.92L293.00 62.95Q292.77 60.48 290.72 59.62L290.73 59.63L290.83 59.65L290.55 59.51L290.48 59.44Q290.07 58.24 288.03 56.86L288.06 56.89L288.08 56.85L288.00 56.77Q284.52 55.53 277.47 55.20L277.51 55.24L277.61 55.35Q274.95 55.18 272.57 55.38L272.56 55.37L272.53 55.34Q271.11 55.37 268.87 55.64L268.95 55.71L268.79 55.56Q265.58 56.36 265.18 59.20L265.10 59.12L265.14 59.16Q265.10 60.04 265.16 61.42L265.12 61.38L265.04 61.30Q265.27 62.26 266.26 66.34L266.24 66.32L266.22 66.31Q267.76 72.06 270.79 74.37L270.72 74.30L270.86 74.44L270.83 74.41Q265.94 76.58 265.02 85.55L265.02 85.55L265.02 85.55Q264.68 89.36 264.68 90.94L264.87 91.13L264.82 91.08Q264.97 94.20 267.02 95.79L266.86 95.63L266.94 95.71Q267.17 95.87 267.63 96.20L267.52 96.09L267.70 96.28Q269.34 100.09 281.67 100.49ZM281.17 81.38L281.09 81.31L281.19 81.41Q282.69 81.19 284.20 81.98L284.19 81.97L284.27 82.05Q284.97 83.80 284.91 84.73L284.88 84.70L284.74 84.57Q284.94 85.23 284.94 85.76L284.80 85.61L284.86 85.67Q284.90 89.80 280.94 91.25L280.83 91.13L280.96 91.26Q279.51 91.73 278.12 91.53L278.16 91.57L278.22 91.63Q276.15 91.67 274.18 90.88L274.34 91.05L274.33 91.03Q273.89 89.94 274.02 88.22L273.97 88.17L273.86 88.05Q274.21 85.37 276.28 83.26L276.22 83.20L276.23 83.21Q278.37 81.16 281.14 81.36ZM281.54 64.94L281.49 64.89L281.54 64.94Q282.87 64.69 283.79 64.95L283.86 65.02L283.84 66.39L283.82 66.36Q283.84 68.83 282.26 70.57L282.34 70.65L282.23 70.54Q280.73 72.38 278.36 72.05L278.28 71.97L278.38 72.07Q276.60 72.00 275.87 71.60L275.81 71.54L275.87 71.60Q275.69 71.03 275.49 69.84L275.54 69.88L275.66 70.01Q275.19 67.56 277.30 66.11L277.21 66.02L277.29 66.10Q279.00 64.77 281.44 64.84Z"/><path d="M20 4 C160 80,176 67,322 138" stroke="#8ce8a3" fill="none"/><path d="M12 34 C172 62,165 21,335 31" stroke="#91db46" fill="none"/><path d="M3 94 C170 65,174 110,339 62" stroke="#94ee76" fill="none"/><path d="M11 19 C173 96,158 60,330 7" stroke="#e83f69" fill="none"/><path d="M9 63 C156 117,152 88,327 132" stroke="#8ed548" fill="none"/><path d="M4 47 C181 120,163 123,324 48" stroke="#ea5bea" fill="none"/><path d="M18 23 C186 101,158 70,323 43" stroke="#df8161" fill="none"/><path d="M16 73 C184 136,188 73,324 125" stroke="#4343e9" fill="none"/><path d="M18 17 C150 81,171 5,337 5" stroke="#d5d54d" fill="none"/><path fill="#e1e174" d="M214.77 83.72L214.89 83.84L214.77 83.72Q220.25 83.20 225.79 83.39L225.63 83.24L225.66 83.27Q225.57 78.83 225.57 74.67L225.55 74.65L225.72 74.82Q225.62 70.44 225.95 66.02L226.01 66.08L226.04 66.11Q223.81 68.96 214.78 83.73ZM232.00 96.53L231.93 96.46L231.92 96.46Q229.00 95.91 225.90 95.78L225.98 95.86L226.04 95.92Q225.63 91.75 225.44 87.46L225.52 87.55L225.35 87.38Q216.21 87.14 208.03 89.58L208.07 89.61L208.07 89.62Q208.15 88.64 208.48 86.92L208.50 86.95L208.60 87.05Q211.62 81.50 217.82 70.62L217.81 70.60L217.78 70.58Q222.80 62.14 228.73 55.42L228.88 55.57L228.84 55.53Q230.42 55.26 233.33 54.80L233.25 54.73L233.18 54.66Q229.99 65.90 229.99 78.10L230.01 78.12L229.93 78.05Q230.00 80.68 230.13 83.25L230.13 83.25L232.28 83.36L232.23 83.31Q233.31 83.41 234.37 83.60L234.32 83.55L234.34 83.58Q234.63 85.38 235.09 88.74L235.04 88.69L234.99 88.64Q232.87 88.17 230.30 87.84L230.32 87.87L230.34 87.88Q230.74 91.38 231.92 96.46ZM234.78 82.90L234.79 82.90L234.96 83.08Q234.45 82.76 234.12 82.76L234.22 82.86L233.65 82.95L233.52 82.82Q233.29 80.21 233.29 77.78L233.38 77.87L233.45 77.94Q233.36 66.77 236.92 56.35L236.84 56.27L236.96 56.39Q235.63 56.84 233.12 57.50L233.04 57.42L233.13 57.50Q233.58 56.24 234.37 53.80L234.32 53.75L234.28 53.71Q232.09 54.42 228.53 54.81L228.41 54.70L228.55 54.84Q221.66 62.25 212.62 78.47L212.61 78.46L216.27 72.16L216.31 72.21Q215.47 73.87 215.01 74.86L215.09 74.94L207.35 90.55L207.43 90.62Q208.55 90.36 210.53 89.70L210.57 89.74L210.31 90.14L210.21 90.04Q210.06 91.28 209.53 93.46L209.40 93.32L209.48 93.40Q216.51 91.01 224.89 91.34L225.03 91.47L225.05 91.49Q225.14 93.17 225.47 96.60L225.31 96.44L225.34 96.47Q227.15 96.43 228.99 96.63L229.01 96.64L228.99 96.62Q229.26 97.82 229.73 100.19L229.87 100.34L229.71 100.18Q233.17 100.74 238.38 102.32L238.29 102.23L238.26 102.20Q236.68 98.64 235.10 92.97L235.08 92.96L237.59 93.75L237.44 93.60Q238.76 94.13 239.95 94.72L239.80 94.58L239.83 94.60Q238.43 90.24 238.16 87.33L238.32 87.49L238.28 87.45Q237.25 87.15 235.28 86.75L235.32 86.79L235.33 86.80Q234.84 84.47 234.84 82.95ZM221.03 82.73L220.94 82.64L221.00 82.69Q222.38 80.52 225.08 76.10L225.09 76.11L225.00 76.02Q225.15 77.81 225.08 79.46L224.98 79.36L225.04 79.42Q225.03 81.12 225.09 82.77L225.08 82.76L225.15 82.82Q224.13 82.73 223.14 82.73L223.04 82.63L223.03 82.62Q222.11 82.75 221.05 82.75Z"/><path d="M9 74 C184 100,167 101,327 20" stroke="#d8bb63" fill="none"/></svg>