<svg xmlns="http://www.w3.org/2000/svg" width="342" height="140" viewBox="0,0,342,140"><path d="M5 65 C176 75,188 55,331 44" stroke="#4093e7" fill="none"/><path d="M6 81 C178 110,182 82,337 93" stroke="#e8be3f" fill="none"/><path d="M6 88 C177 62,176 137,331 9" stroke="#d2af46" fill="none"/><path d="M2 33 C175 16,189 132,336 109" stroke="#86eb64" fill="none"/><path d="M7 38 C154 33,175 34,331 10" stroke="#3b64dc" fill="none"/><path d="M4 1 C159 66,175 78,340 121" stroke="#e85353" fill="none"/><path d="M14 115 C171 71,166 77,338 74" stroke="#45e26c" fill="none"/><path d="M10 126 C155 50,188 12,324 98" stroke="#83ea61" fill="none"/><path d="M4 54 C179 82,173 76,326 3" stroke="#b5dc41" fill="none"/><path d="M4 137 C155 40,191 52,336 76" stroke="#ea577b" fill="none"/><path d="M11 135 C186 79,175 127,331 57" stroke="#c476df" fill="none"/><path d="M18 42 C161 34,163 106,328 129" stroke="#5ca0e4" fill="none"/><path d="M14 135 C164 14,173 2,333 83" stroke="#c3e462" fill="none"/><path d="M20 59 C187 52,182 69,332 15" stroke="#e594a8" fill="none"/><path d="M2 91 C186 82,163 119,327 128" stroke="#3db3db" fill="none"/><path d="M9 56 C151 48,178 72,325 19" stroke="#efef85" fill="none"/><path d="M16 135 C190 115,152 119,336 94" stroke="#8769e1" fill="none"/><path d="M13 94 C191 104,178 92,329 39" stroke="#5de8a3" fill="none"/><path d="M19 68 C152 64,191 68,326 92" stroke="#9be782" fill="none"/><path d="M7 46 C154 31,172 109,338 118" stroke="#e470c7" fill="none"/><path d="M14 40 C158 67,186 121,327 14" stroke="#58e9a0" fill="none"/><path fill="#eb83eb" d="M266.44 77.62L266.50 77.69L266.43 77.62Q263.05 77.42 260.75 80.07L260.72 80.04L260.81 80.12Q258.37 82.63 258.02 86.17L258.09 86.25L258.09 86.25Q257.59 89.98 259.60 91.78L259.69 91.88L259.74 91.93Q261.81 93.78 265.70 93.57L265.57 93.44L265.68 93.55Q269.52 93.22 271.57 91.94L271.47 91.85L271.52 91.90Q273.59 89.80 273.59 86.90L273.60 86.91L273.66 86.97Q273.64 86.24 273.50 85.53L273.47 85.50L273.62 85.65Q273.67 82.45 271.62 79.94L271.59 79.91L271.57 79.90Q269.50 77.36 266.39 77.58ZM265.75 98.35L265.72 98.33L265.61 98.22Q257.61 98.35 254.99 96.93L254.92 96.86L254.92 96.86Q253.04 95.47 252.68 92.29L252.62 92.23L252.72 92.33Q252.56 90.96 252.63 89.62L252.59 89.58L252.67 89.66Q252.95 87.90 252.95 87.05L252.85 86.94L252.84 86.93Q253.64 81.58 253.92 80.31L253.91 80.29L253.97 80.36Q254.90 76.83 256.45 74.22L256.39 74.15L256.36 74.12Q261.31 65.99 272.34 54.18L272.42 54.26L272.32 54.17Q277.26 53.59 281.36 52.11L281.48 52.22L281.45 52.19Q268.77 66.10 262.83 73.94L262.74 73.86L262.78 73.90Q264.68 73.04 267.08 73.04L267.06 73.01L266.93 72.88Q273.16 72.96 275.99 76.57L275.98 76.56L276.08 76.66Q278.48 79.63 279.12 86.20L279.11 86.20L279.02 86.11Q279.26 87.55 279.26 88.68L279.18 88.59L279.23 88.64Q279.26 94.48 275.16 96.46L275.06 96.36L275.06 96.36Q272.79 97.48 265.57 98.18ZM269.83 102.65L269.99 102.80L269.82 102.64Q272.40 102.75 276.08 102.89L276.04 102.85L275.92 102.73Q279.09 103.00 281.99 101.66L282.00 101.66L281.88 101.55Q284.06 100.20 284.06 96.87L283.95 96.76L284.02 96.83Q283.97 95.86 283.65 94.03L283.69 94.06L283.73 94.10Q283.32 92.18 283.32 91.33L283.44 91.44L283.44 91.44Q281.63 82.49 278.66 78.96L278.78 79.08L278.84 79.14Q278.64 78.86 278.36 78.44L278.42 78.50L277.81 78.03L277.71 78.01L277.59 77.89Q277.07 77.08 275.93 75.31L275.83 75.21L275.93 75.30Q274.19 73.50 270.51 72.65L270.43 72.57L270.52 72.66Q272.68 69.58 278.19 62.72L278.36 62.89L286.08 52.94L286.08 52.93Q283.11 54.49 278.65 55.90L278.76 56.01L278.75 56.00Q280.37 54.09 283.70 50.41L283.86 50.58L283.80 50.52Q279.33 52.48 272.12 53.54L272.10 53.52L272.04 53.46Q261.47 64.46 255.96 73.65L255.94 73.63L256.00 73.69Q253.10 78.29 252.04 89.88L252.10 89.94L252.18 90.02Q251.99 91.03 252.13 92.80L252.09 92.76L252.06 92.73Q252.26 96.04 254.31 97.74L254.24 97.67L254.32 97.75Q254.95 97.95 254.88 98.02L254.90 98.05L255.01 98.15Q255.65 99.78 257.14 100.56L257.14 100.57L257.02 100.45Q259.86 101.87 263.46 102.22L263.33 102.09L263.33 102.09Q263.42 102.18 269.93 102.75ZM269.40 81.79L269.59 81.97L269.44 81.83Q270.56 81.68 272.33 82.60L272.40 82.67L272.37 82.64Q273.02 84.42 273.02 85.62L272.99 85.59L273.05 85.65Q273.22 88.93 271.46 90.77L271.63 90.95L271.64 90.95Q269.50 92.14 265.61 92.70L265.74 92.84L265.66 92.76Q262.90 92.68 261.91 92.18L262.06 92.34L261.93 92.20Q261.64 91.42 261.64 90.86L261.62 90.83L261.65 90.86Q261.25 84.81 266.69 82.40L266.65 82.36L266.66 82.37Q268.02 81.68 269.44 81.83Z"/><path d="M21 98 C162 97,172 115,333 120" stroke="#38b6e0" fill="none"/><path d="M14 120 C166 50,184 129,324 43" stroke="#4444e3" fill="none"/><path d="M17 40 C162 66,153 68,322 78" stroke="#df7070" fill="none"/><path d="M12 118 C160 6,167 111,329 119" stroke="#6e6edd" fill="none"/><path d="M14 124 C186 79,157 8,341 131" stroke="#e791e7" fill="none"/><path d="M11 138 C176 77,178 2,322 18" stroke="#ed6c6c" fill="none"/><path d="M15 6 C161 126,157 96,333 116" stroke="#8cda3e" fill="none"/><path d="M8 116 C166 81,171 136,323 40" stroke="#a35de8" fill="none"/><path d="M3 32 C155 97,155 65,335 3" stroke="#89d2ea" fill="none"/><path d="M9 91 C169 128,164 132,324 74" stroke="#d67251" fill="none"/><path d="M13 30 C175 53,171 139,332 133" stroke="#dd8669" fill="none"/><path d="M20 125 C156 114,159 87,340 97" stroke="#61e5e5" fill="none"/><path d="M8 126 C153 11,175 134,328 132" stroke="#eded8c" fill="none"/><path d="M16 40 C171 40,159 79,329 99" stroke="#86a0ed" fill="none"/><path d="M10 93 C192 29,170 28,326 54" stroke="#e8e88c" fill="none"/><path d="M10 110 C177 39,171 52,338 55" stroke="#e07e7e" fill="none"/><path d="M20 4 C159 121,155 65,336 76" stroke="#53d953" fill="none"/><path fill="#92ebeb" d="M62.44 77.62L62.42 77.60L62.36 77.55Q59.11 77.48 56.81 80.13L56.68 80.00L56.74 80.06Q54.44 82.70 54.08 86.24L54.15 86.31L54.06 86.21Q53.70 90.10 55.72 91.90L55.77 91.96L55.73 91.91Q57.76 93.74 61.65 93.52L61.66 93.53L61.59 93.47Q65.57 93.27 67.62 92.00L67.47 91.85L67.52 91.90Q69.74 89.94 69.74 87.04L69.58 86.89L69.68 86.99Q69.63 86.23 69.49 85.52L69.54 85.57L69.50 85.53Q69.74 82.52 67.69 80.01L67.62 79.94L67.66 79.98Q65.54 77.41 62.43 77.62ZM61.58 98.19L61.73 98.34L61.72 98.33Q53.56 98.30 50.94 96.88L50.84 96.78L50.93 96.87Q49.12 95.55 48.76 92.37L48.70 92.30L48.57 92.18Q48.60 91.00 48.67 89.66L48.65 89.64L48.74 89.73Q48.92 87.86 48.92 87.01L48.90 86.99L48.97 87.06Q49.67 81.61 49.95 80.34L50.08 80.47L50.09 80.47Q50.94 76.87 52.50 74.26L52.31 74.07L52.46 74.22Q57.42 66.10 68.45 54.30L68.40 54.24L68.47 54.31Q73.28 53.61 77.38 52.12L77.52 52.27L77.39 52.13Q64.68 66.01 58.74 73.85L58.83 73.95L58.84 73.96Q60.63 72.99 63.03 72.99L63.01 72.97L62.94 72.90Q69.18 72.98 72.00 76.59L71.93 76.52L72.00 76.58Q74.41 79.55 75.04 86.13L75.10 86.18L75.03 86.12Q75.21 87.50 75.21 88.63L75.33 88.75L75.25 88.67Q75.27 94.49 71.17 96.47L71.22 96.52L71.18 96.48Q68.98 97.67 61.77 98.38ZM65.86 102.68L65.93 102.75L65.95 102.77Q68.23 102.57 71.90 102.71L72.09 102.90L71.90 102.71Q75.11 103.02 78.01 101.68L77.99 101.66L77.88 101.55Q79.97 100.10 79.97 96.78L79.95 96.76L79.94 96.75Q79.99 95.89 79.67 94.05L79.65 94.02L79.61 93.99Q79.43 92.28 79.43 91.44L79.29 91.29L79.26 91.27Q77.72 82.59 74.75 79.05L74.83 79.12L74.72 79.02Q74.68 78.91 74.40 78.48L74.36 78.44L73.77 78.00L73.53 77.82L73.65 77.95Q72.99 77.01 71.86 75.24L71.81 75.19L71.88 75.26Q70.22 73.52 66.54 72.68L66.44 72.58L66.54 72.68Q68.71 69.61 74.22 62.75L74.19 62.72L82.04 52.90L82.20 53.06Q79.21 54.59 74.75 56.00L74.71 55.96L74.72 55.97Q76.50 54.21 79.82 50.53L79.67 50.39L79.78 50.50Q75.35 52.50 68.13 53.56L68.08 53.50L68.06 53.48Q57.49 64.47 51.97 73.66L51.98 73.67L52.04 73.73Q49.24 78.42 48.18 90.02L48.15 89.99L48.04 89.88Q47.89 90.94 48.04 92.70L48.02 92.69L48.02 92.68Q48.20 95.98 50.25 97.67L50.37 97.80L50.33 97.76Q51.01 98.01 50.94 98.08L50.91 98.05L50.97 98.12Q51.59 99.72 53.07 100.50L53.22 100.64L53.12 100.54Q55.90 101.91 59.50 102.26L59.48 102.24L59.37 102.13Q59.41 102.17 65.91 102.73ZM65.47 81.85L65.56 81.94L65.59 81.97Q66.46 81.57 68.22 82.49L68.39 82.65L68.29 82.56Q68.93 84.33 68.93 85.53L68.95 85.55L69.05 85.65Q69.36 89.07 67.59 90.91L67.51 90.82L67.62 90.94Q65.59 92.23 61.70 92.80L61.59 92.68L61.63 92.73Q59.08 92.86 58.09 92.37L58.05 92.33L57.96 92.23Q57.67 91.45 57.67 90.88L57.60 90.82L57.58 90.79Q57.16 84.72 62.60 82.31L62.61 82.32L62.58 82.29Q64.06 81.72 65.47 81.86Z"/><path d="M8 29 C156 24,189 134,335 105" stroke="#6fa5dc" fill="none"/><path fill="#6ddf47" d="M198.57 77.75L198.62 77.80L198.63 77.82Q195.08 77.73 192.82 80.21L192.79 80.17L192.88 80.27Q190.66 82.79 190.38 86.32L190.36 86.31L190.33 86.28Q190.06 90.31 192.32 92.19L192.20 92.07L192.27 92.13Q194.42 93.90 198.38 93.76L198.51 93.89L198.44 93.82Q202.67 93.45 204.44 91.69L204.45 91.70L204.46 91.70Q206.49 89.14 206.28 85.75L206.13 85.60L206.25 85.71Q206.06 82.28 204.05 80.05L204.08 80.08L204.08 80.09Q201.97 77.76 198.57 77.76ZM198.50 60.22L198.56 60.28L198.60 60.32Q195.94 60.07 193.47 60.99L193.39 60.91L193.36 60.88Q191.08 62.49 191.51 65.96L191.49 65.94L191.42 65.87Q192.28 72.74 198.50 72.74L198.57 72.81L198.64 72.88Q201.58 73.27 203.41 71.15L203.25 70.99L203.41 71.15Q205.14 68.92 205.21 66.02L205.18 65.98L205.34 66.14Q205.41 62.82 204.07 61.69L204.06 61.69L203.97 61.59Q200.95 60.12 198.54 60.27ZM197.94 98.34L198.05 98.45L192.32 98.37L192.45 98.50Q189.61 98.49 187.14 96.87L187.04 96.77L186.97 96.70Q184.56 94.71 184.84 89.41L184.79 89.36L184.72 89.28Q185.72 76.71 192.43 74.87L192.41 74.85L192.39 74.83Q188.18 73.17 185.71 63.20L185.64 63.13L185.72 63.21Q184.93 60.44 185.07 58.96L185.10 58.99L185.18 59.06Q185.77 55.13 192.63 55.06L192.66 55.09L192.52 54.95Q200.40 54.84 203.09 55.19L203.18 55.28L203.16 55.26Q210.25 56.21 211.10 59.95L211.10 59.95L211.13 59.98Q211.36 61.14 211.36 61.84L211.29 61.77L211.31 61.79Q211.35 63.10 211.00 64.24L210.90 64.14L210.90 64.14Q209.81 72.03 204.36 74.85L204.37 74.86L204.46 74.95Q210.87 76.34 211.79 86.17L211.85 86.23L211.78 86.16Q211.73 86.39 211.80 88.79L211.97 88.96L211.95 88.94Q212.10 94.04 209.13 96.02L209.14 96.03L209.10 95.99Q206.53 97.59 198.05 98.44ZM202.17 102.64L202.34 102.81L208.48 102.87L208.42 102.81Q211.75 103.09 214.58 101.75L214.60 101.77L214.51 101.69Q216.70 100.41 216.84 96.94L216.66 96.77L216.79 96.90Q216.93 94.91 216.22 91.31L216.05 91.13L216.19 91.28Q214.40 82.56 210.51 79.10L210.55 79.13L210.14 78.36L209.91 78.00L209.56 77.44L209.49 77.36Q212.69 74.97 214.38 67.27L214.25 67.13L214.27 67.16Q214.29 66.46 214.43 64.91L214.43 64.91L214.40 64.88Q214.56 63.63 214.42 62.50L214.37 62.45L214.49 62.57Q214.07 59.74 211.88 58.82L211.90 58.85L212.02 58.89L211.60 58.61L211.74 58.76Q211.12 57.29 208.92 55.80L209.03 55.90L209.06 55.86L209.08 55.88Q205.32 54.52 197.75 54.17L197.90 54.32L197.78 54.20Q194.94 54.04 192.39 54.26L192.45 54.31L192.32 54.19Q190.94 54.36 188.54 54.65L188.46 54.56L188.52 54.63Q184.85 55.27 184.42 58.31L184.49 58.37L184.50 58.38Q184.43 59.30 184.50 60.79L184.50 60.79L184.50 60.78Q184.73 61.80 185.79 66.18L185.79 66.18L185.77 66.15Q187.22 72.13 190.47 74.61L190.39 74.53L190.58 74.72L190.68 74.82Q185.51 77.21 184.52 86.83L184.51 86.82L184.51 86.82Q184.08 90.84 184.08 92.54L184.09 92.55L184.09 92.54Q184.24 95.88 186.43 97.57L186.41 97.55L186.45 97.59Q186.69 97.76 187.18 98.11L187.06 97.99L187.20 98.13Q189.02 102.29 202.24 102.71ZM201.65 82.18L201.58 82.11L201.73 82.26Q203.42 82.11 205.04 82.96L204.94 82.85L204.99 82.90Q205.73 84.77 205.66 85.76L205.59 85.69L205.55 85.66Q205.72 86.32 205.72 86.88L205.61 86.77L205.58 86.75Q205.66 91.21 201.42 92.77L201.43 92.78L201.47 92.82Q200.00 93.39 198.51 93.18L198.54 93.21L198.45 93.12Q196.41 93.34 194.29 92.49L194.34 92.54L194.20 92.41Q193.88 91.37 194.02 89.54L194.02 89.54L193.99 89.50Q194.15 86.41 196.38 84.15L196.49 84.26L196.44 84.22Q198.70 81.98 201.67 82.20ZM202.06 64.56L201.98 64.48L202.08 64.58Q203.47 64.27 204.46 64.56L204.58 64.68L204.59 66.17L204.61 66.19Q204.45 68.65 202.75 70.52L202.86 70.62L202.93 70.70Q201.12 72.46 198.58 72.11L198.49 72.02L198.69 72.22Q196.81 72.18 196.04 71.76L195.91 71.63L196.05 71.77Q195.83 71.13 195.62 69.86L195.62 69.86L195.75 69.98Q195.24 67.36 197.51 65.80L197.44 65.74L197.51 65.81Q199.53 64.57 202.14 64.64Z"/><path fill="#c574e0" d="M137.68 74.01L137.68 74.02L137.67 74.00Q139.24 74.09 141.85 73.80L141.88 73.83L141.73 73.68Q141.74 74.96 141.74 76.16L141.64 76.07L141.63 78.39L141.82 78.58Q140.11 78.43 138.56 78.57L138.71 78.72L138.67 78.68Q136.98 78.62 135.43 78.55L135.46 78.58L135.41 78.54Q130.29 90.17 123.93 98.73L123.85 98.64L123.87 98.67Q119.08 99.74 116.68 100.87L116.74 100.94L116.71 100.91Q124.40 90.36 130.06 78.69L129.96 78.60L125.15 78.66L125.13 78.65Q125.09 76.13 124.88 73.66L125.02 73.80L125.07 73.85Q128.56 74.09 132.38 74.09L132.32 74.03L135.78 67.09L135.93 67.25Q137.65 63.59 139.91 60.62L140.00 60.70L139.88 60.59Q137.06 60.95 134.09 60.95L134.16 61.02L134.18 61.04Q122.86 61.03 115.86 56.93L115.68 56.75L114.67 53.76L114.59 53.68Q113.86 52.04 113.16 50.41L113.23 50.48L113.27 50.52Q121.24 55.31 131.84 55.73L131.82 55.71L131.97 55.86Q141.54 56.31 151.08 52.63L150.98 52.52L151.02 52.57Q150.61 53.29 149.69 54.92L149.77 55.00L149.79 55.02Q142.96 63.74 137.66 73.99ZM152.62 57.42L152.69 57.49L154.52 53.74L154.58 53.79Q152.75 54.65 149.64 55.99L149.61 55.97L150.08 55.52L150.08 55.51Q150.23 55.17 150.44 54.96L150.45 54.97L150.40 54.92Q151.15 53.69 152.49 51.21L152.38 51.10L152.46 51.18Q142.50 55.36 131.83 54.94L132.00 55.11L131.97 55.08Q120.67 54.46 111.84 48.95L111.99 49.10L111.93 49.04Q113.70 52.37 115.26 57.32L115.39 57.45L115.41 57.47Q117.35 58.56 118.83 59.13L118.96 59.25L118.85 59.15Q119.19 59.83 120.04 63.30L120.12 63.38L119.97 63.23Q125.93 65.66 136.18 65.37L136.20 65.40L136.10 65.29Q135.63 66.45 131.95 73.44L131.87 73.36L131.93 73.42Q128.15 73.46 124.47 73.11L124.46 73.10L124.31 72.95Q124.63 74.68 124.63 76.31L124.55 76.22L124.54 79.40L127.67 79.42L127.74 82.10L127.73 82.09Q120.40 95.76 115.24 102.41L115.25 102.42L115.12 102.29Q118.27 101.06 121.31 100.14L121.14 99.96L121.21 100.03Q119.98 101.78 117.44 104.96L117.46 104.98L117.41 104.93Q123.23 102.83 127.75 102.41L127.75 102.40L127.86 102.51Q133.28 95.49 139.08 82.91L139.12 82.95L145.34 83.16L145.35 83.16Q145.18 81.44 145.18 79.75L145.21 79.77L145.23 76.47L145.29 76.53Q144.83 76.57 143.81 76.64L143.77 76.60L143.68 76.52Q142.69 76.62 142.20 76.62L142.28 76.71L142.21 76.63Q142.16 76.38 142.23 76.09L142.30 76.16L142.26 75.62L142.37 75.73Q146.94 66.10 152.67 57.47Z"/><path d="M7 89 C154 103,164 84,324 79" stroke="#dca36a" fill="none"/></svg>