<svg xmlns="http://www.w3.org/2000/svg" width="342" height="140" viewBox="0,0,342,140"><path d="M19 118 C190 28,181 109,327 48" stroke="#b584e5" fill="none"/><path d="M19 132 C176 8,183 96,323 71" stroke="#d0ee76" fill="none"/><path d="M21 35 C176 106,188 65,333 65" stroke="#ee6cee" fill="none"/><path fill="#75c5df" d="M221.85 76.98L221.87 77.00L221.75 76.87Q218.74 76.96 216.71 79.17L216.70 79.15L216.68 79.14Q214.66 81.36 214.41 84.52L214.51 84.62L214.38 84.49Q214.12 88.08 216.14 89.76L216.09 89.71L216.22 89.84Q218.23 91.50 221.77 91.37L221.73 91.33L221.73 91.33Q225.57 91.06 227.15 89.48L227.07 89.40L227.24 89.57Q228.89 87.11 228.70 84.08L228.76 84.14L228.65 84.03Q228.51 80.98 226.71 78.99L226.74 79.02L226.60 78.88Q224.81 76.90 221.78 76.90ZM221.75 61.26L221.73 61.24L221.84 61.35Q219.40 61.05 217.18 61.88L217.12 61.82L217.21 61.90Q214.97 63.14 215.35 66.24L215.51 66.40L215.41 66.29Q216.32 72.58 221.88 72.58L221.77 72.47L221.79 72.49Q224.45 72.87 226.09 70.97L226.16 71.05L226.08 70.97Q227.65 68.99 227.71 66.40L227.81 66.49L227.73 66.42Q227.92 63.57 226.72 62.56L226.63 62.47L226.80 62.64Q223.85 61.08 221.70 61.21ZM221.31 95.40L221.39 95.48L216.20 95.35L216.31 95.46Q213.71 95.38 211.49 93.93L211.56 94.00L211.58 94.02Q209.28 92.09 209.53 87.35L209.52 87.34L209.45 87.27Q210.34 76.02 216.34 74.38L216.20 74.24L216.30 74.33Q212.54 72.85 210.33 63.94L210.24 63.84L210.22 63.82Q209.78 61.62 209.91 60.29L209.85 60.24L209.75 60.14Q210.24 56.57 216.37 56.51L216.56 56.70L216.37 56.51Q223.43 56.42 225.83 56.74L225.90 56.81L225.84 56.75Q232.28 57.69 233.04 61.04L233.10 61.10L233.08 61.08Q233.30 62.13 233.30 62.76L233.14 62.59L233.25 62.71Q233.29 63.89 232.98 64.90L232.80 64.72L232.88 64.80Q231.95 71.90 227.08 74.43L227.00 74.34L227.06 74.41Q232.87 75.73 233.69 84.51L233.71 84.53L233.59 84.41Q233.65 84.73 233.71 86.88L233.75 86.91L233.81 86.97Q233.74 91.33 231.09 93.10L231.22 93.24L231.18 93.19Q228.93 94.68 221.35 95.44ZM225.19 99.34L225.06 99.22L230.69 99.41L230.72 99.43Q233.47 99.46 235.99 98.26L236.13 98.40L236.12 98.39Q237.98 97.15 238.11 94.06L238.03 93.98L238.04 93.98Q238.06 92.11 237.43 88.89L237.52 88.98L237.51 88.97Q235.91 81.17 232.43 78.07L232.43 78.07L232.26 77.59L231.79 76.99L231.73 76.73L231.65 76.66Q234.27 74.29 235.79 67.40L235.81 67.41L235.92 67.53Q235.80 66.78 235.93 65.39L236.03 65.49L236.00 65.45Q236.16 64.35 236.03 63.34L236.06 63.37L236.09 63.40Q235.79 60.95 233.83 60.13L233.85 60.15L233.89 60.12L233.56 59.91L233.60 59.95Q233.04 58.64 231.08 57.31L231.17 57.40L231.12 57.29L231.15 57.31Q227.95 56.27 221.18 55.95L221.12 55.88L221.17 55.94Q218.54 55.71 216.27 55.90L216.34 55.98L216.25 55.88Q214.95 55.97 212.80 56.23L212.79 56.22L212.72 56.15Q209.66 56.95 209.28 59.67L209.15 59.54L209.19 59.57Q209.06 60.32 209.12 61.65L209.13 61.67L209.19 61.72Q209.38 62.60 210.32 66.52L210.30 66.50L210.41 66.61Q211.71 71.96 214.62 74.17L214.49 74.04L214.70 74.25L214.68 74.23Q210.03 76.34 209.14 84.94L209.09 84.89L209.21 85.01Q208.89 88.67 208.89 90.19L208.93 90.23L208.79 90.09Q208.99 93.13 210.95 94.65L210.97 94.67L211.04 94.74Q211.10 94.74 211.54 95.05L211.53 95.04L211.53 95.04Q213.30 98.90 225.12 99.28ZM224.57 80.90L224.51 80.84L224.53 80.85Q226.05 80.73 227.50 81.49L227.48 81.47L227.47 81.45Q228.06 83.06 227.99 83.94L228.12 84.07L228.01 83.96Q228.19 84.58 228.19 85.09L228.17 85.07L228.17 85.07Q228.25 89.06 224.46 90.45L224.34 90.34L224.33 90.33Q222.94 90.77 221.61 90.58L221.61 90.58L221.76 90.73Q219.77 90.77 217.88 90.01L217.91 90.04L218.03 90.16Q217.49 88.99 217.62 87.35L217.61 87.34L217.60 87.33Q217.85 84.67 219.85 82.65L219.86 82.67L219.92 82.73Q221.87 80.66 224.53 80.85ZM225.02 65.22L225.01 65.21L224.95 65.15Q226.30 64.99 227.19 65.24L227.05 65.10L227.05 66.43L227.08 66.46Q227.11 68.83 225.59 70.51L225.53 70.44L225.53 70.44Q224.14 72.25 221.87 71.93L221.86 71.93L221.79 71.85Q220.27 71.98 219.57 71.60L219.39 71.42L219.53 71.55Q219.34 70.98 219.15 69.85L219.26 69.96L219.17 69.87Q218.72 67.52 220.75 66.13L220.82 66.21L220.91 66.29Q222.68 65.16 225.02 65.23Z"/><path d="M9 102 C164 108,162 66,324 62" stroke="#a0e589" fill="none"/><path d="M14 40 C172 68,185 34,322 138" stroke="#6ed74b" fill="none"/><path d="M9 30 C157 104,174 68,327 22" stroke="#4870e9" fill="none"/><path d="M8 55 C170 106,172 59,336 97" stroke="#5cbfdf" fill="none"/><path d="M20 42 C181 14,160 13,328 60" stroke="#9ee287" fill="none"/><path d="M3 23 C167 71,163 31,326 55" stroke="#90eea7" fill="none"/><path d="M15 80 C170 33,190 116,333 80" stroke="#e9718f" fill="none"/><path d="M18 97 C190 53,191 98,331 88" stroke="#e594a8" fill="none"/><path d="M6 63 C174 20,175 79,323 111" stroke="#57c1e4" fill="none"/><path d="M16 104 C155 48,189 68,340 80" stroke="#876bdb" fill="none"/><path d="M9 69 C163 122,180 82,339 40" stroke="#bde150" fill="none"/><path d="M18 121 C150 7,166 67,337 42" stroke="#96e27d" fill="none"/><path fill="#8cecd4" d="M114.95 73.70L114.79 73.54L114.80 73.56Q116.23 73.65 118.57 73.40L118.57 73.41L118.54 73.37Q118.54 74.51 118.54 75.58L118.42 75.47L118.37 77.50L118.36 77.49Q117.05 77.57 115.65 77.70L115.72 77.76L115.65 77.69Q114.34 77.84 112.95 77.77L112.96 77.78L112.90 77.72Q108.18 87.99 102.49 95.64L102.52 95.66L102.38 95.52Q98.29 96.68 96.14 97.70L96.17 97.72L96.15 97.70Q102.90 88.14 107.96 77.71L108.01 77.76L103.72 77.84L103.61 77.73Q103.67 75.57 103.48 73.36L103.50 73.38L103.45 73.33Q106.70 73.67 110.11 73.67L109.96 73.51L113.21 67.47L113.23 67.49Q114.83 64.29 116.86 61.64L116.95 61.73L116.80 61.58Q114.28 61.91 111.63 61.91L111.65 61.94L111.61 61.89Q101.48 61.87 95.22 58.21L95.20 58.19L94.27 55.49L94.24 55.46Q93.53 53.93 92.90 52.48L92.91 52.49L93.07 52.65Q100.15 56.88 109.63 57.25L109.64 57.26L109.69 57.31Q118.11 57.58 126.65 54.29L126.67 54.32L126.77 54.41Q126.47 55.13 125.65 56.59L125.66 56.60L125.50 56.44Q119.51 64.36 114.77 73.52ZM128.33 58.88L128.24 58.80L129.86 55.42L129.86 55.42Q128.38 56.35 125.60 57.55L125.54 57.48L125.84 56.97L125.77 56.90Q126.12 56.80 126.31 56.61L126.22 56.52L126.14 56.45Q126.89 55.43 128.09 53.21L128.00 53.12L128.02 53.14Q119.23 56.99 109.68 56.61L109.67 56.60L109.68 56.61Q99.68 56.16 91.78 51.23L91.69 51.13L91.70 51.15Q93.54 54.38 94.93 58.81L94.81 58.68L94.96 58.84Q96.70 59.82 98.03 60.32L98.11 60.40L97.94 60.24Q98.24 60.85 99.00 63.94L99.14 64.09L99.05 64.00Q104.38 66.17 113.55 65.91L113.45 65.82L113.43 65.80Q113.01 66.84 109.73 73.09L109.72 73.09L109.73 73.10Q106.24 73.03 102.96 72.71L103.05 72.80L103.03 72.79Q103.00 74.02 103.00 75.47L103.12 75.59L103.06 78.38L105.93 78.47L105.81 80.69L105.78 80.65Q99.35 93.00 94.73 98.94L94.78 98.99L94.78 98.99Q97.47 97.76 100.19 96.94L100.21 96.96L100.22 96.97Q98.98 98.38 96.70 101.23L96.65 101.18L96.74 101.26Q101.94 99.39 105.99 99.01L106.06 99.08L105.99 99.01Q110.93 92.82 116.11 81.56L116.01 81.46L121.72 81.80L121.65 81.73Q121.57 80.26 121.57 78.74L121.62 78.80L121.66 75.87L121.69 75.89Q121.22 75.87 120.31 75.93L120.33 75.96L120.16 75.78Q119.28 75.88 118.84 75.88L118.94 75.99L118.91 75.95Q118.90 75.76 118.96 75.50L118.92 75.46L118.88 74.98L118.87 74.97Q123.18 66.57 128.30 58.85Z"/><path d="M7 87 C191 7,171 122,328 33" stroke="#b7e03c" fill="none"/><path d="M8 87 C172 25,150 107,324 71" stroke="#ea967a" fill="none"/><path d="M8 49 C190 35,169 105,335 103" stroke="#86eded" fill="none"/><path d="M6 130 C158 107,171 50,330 65" stroke="#e7a059" fill="none"/><path d="M19 41 C190 32,183 99,340 8" stroke="#74e24f" fill="none"/><path d="M21 131 C181 80,151 66,335 52" stroke="#6969e6" fill="none"/><path d="M13 88 C187 43,155 91,324 118" stroke="#dd7a59" fill="none"/><path d="M11 98 C187 70,166 91,338 133" stroke="#d745d7" fill="none"/><path d="M12 91 C172 83,163 125,331 52" stroke="#829dec" fill="none"/><path d="M18 78 C166 77,154 81,329 12" stroke="#8aa2e9" fill="none"/><path d="M14 84 C176 49,183 93,324 137" stroke="#85e664" fill="none"/><path d="M14 71 C188 49,171 72,322 69" stroke="#8ca4ed" fill="none"/><path d="M21 33 C171 20,157 41,331 37" stroke="#7edd5f" fill="none"/><path d="M12 111 C168 70,187 104,339 80" stroke="#ddb94f" fill="none"/><path d="M3 114 C183 44,175 19,330 92" stroke="#6feb8e" fill="none"/><path d="M19 54 C153 63,177 110,337 78" stroke="#79cbe6" fill="none"/><path d="M6 57 C159 5,188 81,338 81" stroke="#80dfaf" fill="none"/><path d="M10 136 C176 5,173 34,323 103" stroke="#71dea8" fill="none"/><path d="M15 70 C182 127,171 27,331 122" stroke="#f28ca5" fill="none"/><path d="M13 58 C162 27,179 131,338 87" stroke="#7c98ed" fill="none"/><path d="M7 32 C155 99,155 116,339 84" stroke="#dc6fa5" fill="none"/><path d="M18 98 C157 101,176 110,330 86" stroke="#90bae4" fill="none"/><path d="M15 14 C167 121,159 93,337 1" stroke="#7bdf94" fill="none"/><path fill="#e26383" d="M51.74 76.86L51.71 76.83L51.64 76.76Q48.62 76.58 46.56 78.96L46.64 79.04L46.53 78.92Q44.54 81.36 44.23 84.52L44.29 84.59L44.33 84.63Q43.78 87.87 45.58 89.48L45.72 89.62L45.63 89.53Q47.44 91.15 50.92 90.96L50.93 90.97L50.93 90.97Q54.47 90.79 56.31 89.65L56.26 89.60L56.24 89.58Q58.12 87.74 58.12 85.14L58.10 85.12L58.16 85.18Q58.17 84.56 58.05 83.93L58.01 83.89L58.01 83.89Q58.10 81.07 56.27 78.83L56.36 78.92L56.24 78.80Q54.53 76.68 51.75 76.87ZM51.10 95.38L50.94 95.22L50.94 95.22Q43.83 95.39 41.49 94.12L41.36 93.99L41.33 93.95Q39.68 92.75 39.36 89.90L39.34 89.88L39.28 89.82Q39.41 88.88 39.48 87.68L39.29 87.49L39.47 87.67Q39.56 85.92 39.56 85.16L39.54 85.15L39.59 85.20Q40.37 80.48 40.63 79.34L40.54 79.26L40.57 79.29Q41.42 76.15 42.81 73.81L42.75 73.75L42.70 73.70Q47.12 66.43 56.98 55.87L56.92 55.81L57.06 55.95Q61.40 55.35 65.06 54.03L65.05 54.01L65.15 54.11Q53.70 66.43 48.39 73.45L48.38 73.44L48.37 73.43Q49.97 72.56 52.12 72.56L52.20 72.64L52.26 72.71Q57.75 72.70 60.28 75.92L60.31 75.95L60.23 75.87Q62.38 78.53 62.95 84.41L63.08 84.53L63.05 84.50Q63.20 85.73 63.20 86.74L63.09 86.64L63.13 86.68Q63.23 91.96 59.56 93.73L59.58 93.74L59.55 93.71Q57.46 94.66 51.01 95.29ZM54.73 99.20L54.86 99.33L54.80 99.27Q56.86 99.11 60.14 99.24L60.15 99.24L60.16 99.25Q63.01 99.52 65.60 98.31L65.49 98.21L65.63 98.34Q67.33 96.88 67.33 93.91L67.41 93.99L67.35 93.93Q67.46 93.21 67.17 91.57L67.16 91.56L67.14 91.53Q66.78 89.82 66.78 89.06L66.89 89.17L66.89 89.17Q65.36 81.26 62.71 78.09L62.70 78.09L62.79 78.18Q62.60 77.92 62.35 77.54L62.28 77.48L61.86 77.18L61.71 77.09L61.63 77.02Q61.08 76.22 60.07 74.63L60.08 74.65L60.04 74.60Q58.59 73.09 55.30 72.33L55.36 72.39L55.28 72.31Q57.43 69.78 62.36 63.65L62.35 63.64L69.18 54.67L69.29 54.77Q66.63 56.16 62.64 57.42L62.62 57.40L62.68 57.46Q64.17 55.79 67.14 52.50L67.22 52.57L67.10 52.45Q63.24 54.35 56.79 55.30L56.74 55.25L56.75 55.26Q47.26 65.05 42.32 73.27L42.31 73.25L42.34 73.28Q39.89 77.53 38.94 87.90L38.92 87.88L38.96 87.92Q38.75 88.79 38.88 90.37L38.85 90.34L38.78 90.27Q39.00 93.27 40.83 94.78L40.90 94.85L40.91 94.87Q41.48 95.05 41.41 95.11L41.44 95.14L41.45 95.15Q42.07 96.66 43.40 97.35L43.42 97.37L43.33 97.29Q45.81 98.50 49.04 98.82L48.89 98.67L49.08 98.86Q48.95 98.73 54.77 99.24ZM54.45 80.65L54.38 80.57L54.49 80.69Q55.31 80.37 56.89 81.19L56.89 81.19L56.86 81.16Q57.57 82.89 57.57 83.96L57.55 83.94L57.61 84.00Q57.92 87.09 56.34 88.73L56.30 88.70L56.30 88.69Q54.47 89.84 51.00 90.34L50.93 90.28L51.05 90.40Q48.57 90.32 47.69 89.88L47.73 89.92L47.68 89.87Q47.35 89.10 47.35 88.59L47.39 88.64L47.34 88.58Q47.08 83.27 51.95 81.12L51.95 81.12L51.93 81.10Q53.06 80.40 54.33 80.53Z"/><path d="M6 11 C179 128,178 13,321 35" stroke="#60e0c0" fill="none"/><path fill="#e9bc90" d="M272.99 95.44L273.05 95.50L273.06 95.51Q270.61 95.53 268.02 94.83L268.14 94.95L268.10 94.91Q266.04 93.36 265.79 90.64L265.83 90.68L265.89 90.74Q265.78 90.38 266.10 86.02L266.06 85.99L266.03 85.95Q267.76 85.66 271.11 85.03L271.19 85.11L270.85 86.34L270.81 86.31Q270.36 89.20 272.70 90.15L272.80 90.25L272.69 90.15Q274.03 90.73 277.51 90.73L277.57 90.79L277.59 90.81Q280.11 90.42 280.42 90.29L280.48 90.35L280.52 90.39Q281.99 90.09 283.19 89.27L283.20 89.28L283.16 89.24Q285.49 87.65 285.18 84.17L285.25 84.24L285.29 84.29Q284.82 80.09 281.95 77.49L282.03 77.58L282.05 77.60Q279.20 75.04 275.09 75.04L274.97 74.91L275.03 74.60L275.08 74.65Q275.59 74.46 277.05 74.33L277.12 74.40L277.21 74.50Q280.21 74.15 282.49 72.10L282.57 72.17L282.62 72.22Q284.90 70.18 285.16 67.08L285.06 66.99L285.02 66.95Q285.19 66.42 285.19 65.85L285.30 65.96L285.24 65.90Q285.33 63.46 283.05 61.94L282.94 61.83L283.02 61.91Q280.92 60.51 278.27 60.70L278.20 60.63L278.22 60.65Q276.17 60.50 274.15 61.20L274.17 61.22L274.02 61.06Q271.66 61.99 271.15 63.89L271.20 63.94L271.22 63.96Q270.78 65.10 270.91 66.36L271.10 66.56L270.96 66.42Q269.20 65.98 265.79 64.78L265.84 64.84L265.86 64.85Q265.60 62.19 265.66 60.80L265.52 60.66L265.66 60.79Q265.85 58.27 267.62 57.13L267.55 57.06L267.60 57.11Q269.83 55.99 272.49 55.99L272.49 56.00L272.56 56.07Q277.84 56.03 283.08 56.47L283.02 56.41L283.04 56.43Q291.51 57.19 291.00 63.45L290.99 63.43L290.98 63.42Q290.80 65.84 289.98 68.43L289.90 68.34L290.00 68.44Q288.42 73.51 284.50 75.03L284.60 75.13L284.46 74.98Q288.83 75.88 289.84 81.44L290.00 81.60L289.99 81.59Q290.23 83.34 290.35 86.69L290.33 86.67L290.34 86.68Q290.62 94.11 282.97 94.86L283.03 94.92L283.07 94.96Q281.87 95.09 273.09 95.54ZM281.74 99.26L281.64 99.16L281.70 99.22Q282.78 99.35 287.52 99.48L287.48 99.44L287.54 99.50Q290.31 99.49 293.03 98.41L293.07 98.45L293.03 98.41Q294.98 96.82 294.66 93.91L294.68 93.92L294.71 93.95Q294.43 91.66 293.93 88.75L294.09 88.91L294.07 88.90Q292.72 81.28 289.50 78.57L289.54 78.61L289.27 78.02L289.26 77.95L289.21 77.90Q292.09 75.47 293.36 68.20L293.45 68.29L293.45 68.30Q293.49 67.51 293.68 65.93L293.59 65.84L293.64 65.90Q293.78 64.64 293.65 63.50L293.63 63.48L293.56 63.41Q293.46 60.78 291.31 59.64L291.19 59.53L291.18 59.64L291.11 59.57Q290.61 57.93 288.71 57.04L288.74 57.08L288.65 56.98Q286.17 55.90 277.64 55.39L277.58 55.33L277.67 55.42Q274.83 55.23 272.17 55.23L272.24 55.30L272.25 55.31Q269.64 55.36 267.11 56.44L267.05 56.37L267.10 56.42Q265.10 57.70 265.10 60.61L265.08 60.59L265.03 60.55Q265.01 59.83 265.45 65.40L265.38 65.33L265.51 65.45Q266.04 65.60 268.76 66.62L268.67 66.53L268.57 66.42Q268.76 67.50 268.70 68.33L268.50 68.13L268.64 68.26Q268.63 69.08 268.70 69.97L268.67 69.94L268.69 69.96Q271.68 70.62 275.03 70.81L274.98 70.75L274.90 70.67Q274.94 67.49 276.77 66.09L276.75 66.07L276.78 66.11Q278.08 64.94 281.43 64.56L281.34 64.47L281.38 64.51Q283.37 64.60 284.31 64.91L284.37 64.97L284.38 64.97Q284.39 65.11 284.45 65.30L284.41 65.26L284.36 65.53L284.52 66.44L284.66 66.59Q284.62 66.87 284.56 67.12L284.56 67.12L284.56 67.12Q284.35 69.88 281.82 71.84L281.80 71.82L281.86 71.88Q280.38 73.43 277.03 73.75L276.99 73.71L277.10 73.82Q275.78 73.95 274.33 73.95L274.44 74.07L274.26 73.89Q274.40 74.54 274.66 75.67L274.69 75.71L274.69 75.71Q277.65 75.76 280.05 76.96L279.89 76.80L279.83 76.93L277.30 77.31L277.26 77.27Q277.36 77.88 277.55 78.89L277.45 78.78L277.38 78.71Q281.09 78.76 283.94 80.97L283.83 80.86L283.89 80.93Q284.17 81.45 284.67 84.17L284.82 84.32L284.66 84.16Q284.97 89.03 280.11 89.72L280.19 89.81L280.24 89.86Q276.60 90.14 275.65 90.07L275.84 90.27L275.84 90.26Q274.93 89.92 274.04 89.79L274.02 89.77L274.04 89.03L274.35 88.39L274.40 87.75L274.42 87.20L274.48 87.26Q272.92 87.40 271.59 87.72L271.61 87.74L271.54 87.67Q271.43 87.25 271.43 86.93L271.45 86.95L271.47 86.97Q271.51 86.63 271.51 86.25L271.43 86.17L271.44 86.17Q271.53 85.51 271.78 84.31L271.83 84.36L271.73 84.25Q268.63 84.63 265.53 85.20L265.55 85.22L265.63 85.30Q265.71 86.20 265.52 88.07L265.48 88.02L265.37 87.92Q265.24 89.84 265.24 90.85L265.16 90.77L265.22 90.83Q265.41 94.31 267.69 95.58L267.74 95.63L267.63 95.52Q270.19 99.41 278.03 99.09L277.86 98.92L277.88 98.94Q279.12 98.92 281.65 99.17Z"/><path fill="#f188bc" d="M165.25 77.04L165.22 77.01L165.07 76.86Q162.02 76.91 160.00 79.12L160.02 79.14L159.96 79.09Q158.05 81.41 157.80 84.57L157.78 84.56L157.73 84.50Q157.37 88.01 159.40 89.68L159.56 89.84L159.40 89.69Q161.57 91.51 165.11 91.38L164.96 91.23L165.13 91.40Q168.89 91.05 170.47 89.47L170.42 89.41L170.45 89.44Q172.12 87.00 171.93 83.97L172.06 84.11L171.97 84.02Q171.81 80.95 170.01 78.96L169.99 78.94L170.10 79.04Q168.28 77.03 165.24 77.03ZM165.13 61.31L165.00 61.18L165.11 61.29Q162.68 61.00 160.46 61.82L160.65 62.01L160.59 61.95Q158.35 63.19 158.73 66.29L158.74 66.29L158.69 66.24Q159.63 72.56 165.19 72.56L165.17 72.54L165.10 72.46Q167.77 72.86 169.42 70.97L169.47 71.02L169.34 70.89Q171.01 69.02 171.07 66.43L171.20 66.56L171.14 66.49Q171.16 63.47 169.95 62.46L170.12 62.62L169.98 62.49Q167.24 61.14 165.09 61.27ZM164.60 95.36L164.73 95.49L159.69 95.51L159.65 95.46Q157.12 95.46 154.90 94.01L154.81 93.92L154.79 93.89Q152.68 92.16 152.93 87.42L152.93 87.41L152.90 87.39Q153.57 75.92 159.58 74.28L159.64 74.33L159.50 74.20Q155.82 72.80 153.61 63.88L153.50 63.77L153.55 63.83Q153.05 61.56 153.18 60.23L153.17 60.22L153.24 60.29Q153.61 56.62 159.75 56.55L159.72 56.52L159.82 56.63Q166.79 56.45 169.19 56.77L169.19 56.77L169.18 56.75Q175.57 57.65 176.33 61.00L176.36 61.03L176.28 60.94Q176.51 62.00 176.51 62.64L176.49 62.61L176.62 62.75Q176.50 63.76 176.18 64.77L176.29 64.88L176.15 64.74Q175.27 71.89 170.40 74.41L170.31 74.32L170.31 74.32Q176.11 75.64 176.93 84.42L177.05 84.54L176.98 84.47Q176.90 84.65 176.97 86.80L177.08 86.91L176.97 86.80Q177.16 91.41 174.50 93.18L174.60 93.28L174.53 93.21Q172.28 94.69 164.69 95.45ZM168.51 99.33L168.43 99.25L173.95 99.33L174.00 99.38Q176.83 99.49 179.35 98.29L179.49 98.42L179.39 98.32Q181.22 97.06 181.35 93.96L181.46 94.08L181.40 94.01Q181.53 92.24 180.89 89.02L180.75 88.87L180.85 88.97Q179.34 81.27 175.86 78.17L175.88 78.19L175.62 77.61L175.31 77.17L175.00 76.68L174.89 76.57Q177.78 74.46 179.29 67.57L179.22 67.49L179.15 67.42Q179.16 66.80 179.29 65.41L179.39 65.51L179.41 65.54Q179.48 64.34 179.35 63.33L179.37 63.34L179.30 63.27Q179.16 60.99 177.20 60.16L177.10 60.06L177.08 59.98L176.87 59.90L176.88 59.90Q176.36 58.63 174.40 57.30L174.45 57.35L174.53 57.36L174.55 57.38Q171.31 56.29 164.54 55.98L164.39 55.82L164.39 55.83Q161.95 55.78 159.67 55.97L159.66 55.97L159.64 55.94Q158.20 55.89 156.05 56.14L156.10 56.19L156.13 56.22Q152.92 56.87 152.54 59.59L152.46 59.51L152.50 59.55Q152.52 60.45 152.58 61.78L152.52 61.72L152.46 61.66Q152.61 62.50 153.56 66.42L153.60 66.47L153.64 66.51Q154.90 71.81 157.81 74.03L157.99 74.21L158.00 74.21L157.96 74.18Q153.35 76.33 152.47 84.93L152.55 85.02L152.60 85.06Q152.29 88.74 152.29 90.26L152.30 90.26L152.17 90.13Q152.32 93.13 154.28 94.65L154.25 94.62L154.30 94.66Q154.50 94.81 154.94 95.12L154.92 95.10L154.87 95.05Q156.70 98.96 168.52 99.34ZM167.81 80.80L167.80 80.80L167.94 80.93Q169.40 80.75 170.86 81.51L170.78 81.44L170.95 81.60Q171.56 83.22 171.49 84.11L171.50 84.11L171.44 84.05Q171.49 84.55 171.49 85.05L171.44 85.00L171.41 84.97Q171.42 88.90 167.63 90.29L167.71 90.37L167.65 90.31Q166.40 90.90 165.08 90.71L165.02 90.65L165.11 90.74Q163.18 90.84 161.29 90.09L161.29 90.09L161.25 90.05Q160.85 89.01 160.97 87.37L160.91 87.30L160.91 87.30Q161.33 84.82 163.32 82.79L163.21 82.68L163.17 82.64Q165.19 80.65 167.85 80.84ZM168.32 65.19L168.29 65.16L168.36 65.23Q169.64 64.99 170.52 65.24L170.48 65.20L170.54 66.59L170.49 66.54Q170.47 68.86 168.95 70.53L169.03 70.61L168.99 70.57Q167.37 72.14 165.09 71.83L165.22 71.95L165.21 71.94Q163.47 71.84 162.77 71.46L162.84 71.53L162.80 71.49Q162.80 71.11 162.61 69.98L162.52 69.89L162.60 69.97Q162.12 67.59 164.14 66.20L164.16 66.21L164.11 66.16Q165.91 65.05 168.25 65.12Z"/><path d="M3 94 C169 138,155 106,323 98" stroke="#7feb7f" fill="none"/></svg>