<svg xmlns="http://www.w3.org/2000/svg" width="342" height="140" viewBox="0,0,342,140"><path d="M12 72 C157 64,171 7,334 13" stroke="#e87853" fill="none"/><path d="M4 120 C181 126,179 126,340 102" stroke="#80e4e4" fill="none"/><path d="M2 45 C163 96,152 46,322 18" stroke="#d75f9b" fill="none"/><path d="M14 42 C151 93,153 98,337 82" stroke="#ce72ed" fill="none"/><path d="M18 129 C172 52,171 91,341 118" stroke="#90e990" fill="none"/><path d="M17 26 C157 33,171 105,322 133" stroke="#50d7d7" fill="none"/><path d="M17 61 C185 79,189 3,329 47" stroke="#e53c3c" fill="none"/><path fill="#51dbb8" d="M109.03 75.97L109.22 76.15L109.21 76.14Q106.41 76.04 104.65 77.97L104.63 77.95L104.62 77.94Q102.81 79.83 102.59 82.58L102.61 82.60L102.75 82.73Q102.42 85.76 104.18 87.22L104.24 87.28L104.23 87.27Q105.90 88.64 108.98 88.53L109.00 88.54L109.03 88.58Q112.40 88.36 113.77 86.99L113.79 87.01L113.67 86.89Q115.18 84.82 115.02 82.17L115.03 82.19L115.14 82.29Q114.85 79.47 113.28 77.74L113.43 77.89L113.35 77.81Q111.86 76.16 109.22 76.16ZM109.14 62.48L109.01 62.35L109.08 62.42Q106.96 62.17 105.04 62.89L105.14 63.00L105.04 62.89Q103.28 64.16 103.61 66.86L103.59 66.84L103.57 66.82Q104.19 72.11 109.03 72.11L109.21 72.29L109.20 72.28Q111.42 72.52 112.85 70.87L112.79 70.81L112.89 70.90Q114.26 69.19 114.31 66.93L114.31 66.93L114.25 66.87Q114.39 64.37 113.35 63.49L113.37 63.51L113.36 63.50Q111.00 62.35 109.13 62.46ZM108.64 92.09L108.77 92.22L104.20 92.06L104.31 92.17Q102.07 92.13 100.14 90.86L100.05 90.77L100.14 90.87Q98.08 89.14 98.30 85.01L98.42 85.12L98.48 85.18Q98.99 75.13 104.23 73.69L104.30 73.77L104.36 73.83Q100.98 72.43 99.05 64.66L99.04 64.66L99.03 64.65Q98.53 62.60 98.64 61.44L98.57 61.37L98.58 61.38Q99.18 58.46 104.52 58.41L104.39 58.27L104.44 58.32Q110.49 58.15 112.58 58.43L112.73 58.57L112.60 58.45Q118.21 59.27 118.87 62.19L118.79 62.11L118.91 62.22Q118.94 62.97 118.94 63.52L119.00 63.58L119.02 63.60Q119.01 64.58 118.73 65.46L118.74 65.47L118.72 65.45Q117.90 71.62 113.66 73.83L113.58 73.75L113.68 73.85Q118.63 74.89 119.35 82.54L119.45 82.65L119.33 82.52Q119.39 82.81 119.45 84.68L119.42 84.65L119.42 84.65Q119.64 88.73 117.33 90.27L117.28 90.22L117.20 90.14Q115.22 91.40 108.61 92.07ZM112.04 95.55L112.06 95.57L116.81 95.58L116.79 95.57Q119.34 95.75 121.55 94.71L121.51 94.66L121.41 94.57Q123.14 93.60 123.25 90.90L123.28 90.94L123.19 90.85Q123.35 89.35 122.80 86.54L122.76 86.51L122.72 86.46Q121.45 79.79 118.42 77.10L118.39 77.07L118.15 76.55L117.97 76.26L117.73 75.85L117.67 75.80Q119.95 73.73 121.27 67.72L121.29 67.75L121.31 67.76Q121.25 67.15 121.36 65.94L121.36 65.94L121.36 65.94Q121.57 65.05 121.46 64.17L121.43 64.14L121.45 64.16Q121.29 62.12 119.58 61.41L119.48 61.31L119.58 61.35L119.37 61.25L119.40 61.28Q118.98 60.20 117.27 59.04L117.28 59.05L117.21 58.93L117.37 59.08Q114.46 58.05 108.57 57.78L108.44 57.64L108.50 57.70Q106.35 57.65 104.37 57.81L104.29 57.74L104.33 57.78Q103.13 57.79 101.26 58.01L101.19 57.94L101.17 57.92Q98.34 58.45 98.01 60.82L98.13 60.94L98.07 60.87Q98.11 61.68 98.16 62.84L98.10 62.77L98.03 62.71Q98.21 63.49 99.03 66.91L99.13 67.00L99.07 66.95Q100.32 71.72 102.85 73.65L102.88 73.67L102.86 73.65L102.83 73.62Q98.94 75.62 98.17 83.11L98.13 83.07L98.15 83.10Q97.84 86.25 97.84 87.57L97.75 87.49L97.74 87.48Q97.99 90.20 99.70 91.53L99.57 91.39L99.66 91.48Q99.83 91.60 100.21 91.87L100.25 91.91L100.13 91.79Q101.75 95.23 112.05 95.56ZM111.50 79.48L111.56 79.55L111.59 79.57Q112.83 79.38 114.09 80.04L114.09 80.03L114.04 79.98Q114.69 81.52 114.64 82.29L114.59 82.25L114.61 82.27Q114.62 82.65 114.62 83.09L114.70 83.18L114.61 83.09Q114.60 86.49 111.30 87.70L111.39 87.80L111.23 87.64Q110.18 88.19 109.03 88.02L108.95 87.95L108.93 87.92Q107.32 88.08 105.67 87.42L105.74 87.49L105.70 87.45Q105.37 86.57 105.48 85.14L105.50 85.16L105.54 85.20Q105.77 82.89 107.50 81.13L107.47 81.10L107.47 81.09Q109.22 79.35 111.54 79.52ZM111.80 65.74L111.73 65.67L111.82 65.77Q112.99 65.61 113.76 65.83L113.71 65.78L113.71 66.93L113.76 66.99Q113.77 69.04 112.45 70.50L112.51 70.55L112.44 70.48Q111.09 71.92 109.11 71.64L109.22 71.75L109.18 71.72Q107.78 71.74 107.17 71.41L107.11 71.35L107.03 71.27Q106.99 70.90 106.83 69.91L106.86 69.94L106.92 70.00Q106.57 67.99 108.33 66.78L108.25 66.71L108.17 66.63Q109.71 65.63 111.74 65.68Z"/><path d="M9 86 C172 27,181 128,333 80" stroke="#e0a365" fill="none"/><path fill="#e9e961" d="M233.84 88.60L233.94 88.70L233.83 88.58Q234.36 90.11 235.13 93.02L235.05 92.94L235.05 92.94Q228.97 91.05 222.31 91.44L222.42 91.55L222.27 91.40Q215.75 91.88 209.97 94.74L209.87 94.64L210.02 94.79Q210.32 93.77 210.38 93.88L210.37 93.88L210.33 93.83Q215.76 88.14 221.43 81.75L221.45 81.77L221.42 81.74Q227.80 74.52 229.51 67.75L229.45 67.69L229.46 67.70Q230.20 65.25 228.36 63.54L228.33 63.52L228.35 63.53Q226.54 61.86 223.95 62.08L223.86 61.99L223.88 62.01Q223.43 62.00 222.93 62.00L222.94 62.00L222.96 62.03Q220.79 62.06 218.97 63.38L218.91 63.32L218.81 63.21Q217.01 65.27 217.34 69.13L217.33 69.11L217.40 69.19Q214.68 68.55 212.91 67.89L212.89 67.87L213.05 68.03Q212.79 66.00 212.68 63.91L212.58 63.81L212.55 63.79Q212.51 61.49 213.39 59.84L213.31 59.76L213.41 59.86Q216.03 57.91 220.88 57.91L220.72 57.75L223.32 57.82L223.37 57.87Q226.73 57.98 228.11 58.14L227.99 58.03L228.05 58.09Q234.25 58.62 234.64 62.14L234.68 62.18L234.58 62.09Q234.83 63.05 234.72 64.21L234.67 64.15L234.75 64.24Q234.53 65.01 234.31 66.00L234.45 66.14L234.42 66.10Q232.04 77.82 221.08 87.73L221.16 87.81L221.10 87.75Q223.11 87.51 225.09 87.51L225.09 87.50L225.17 87.58Q229.75 87.49 233.88 88.64ZM233.07 58.54L232.99 58.45L233.14 58.61Q230.80 57.64 228.32 57.53L228.37 57.58L223.42 57.31L223.39 57.28Q216.91 56.86 213.71 58.45L213.75 58.48L213.71 58.45Q212.16 60.42 212.16 63.39L212.23 63.47L212.15 63.39Q212.12 64.35 212.56 68.42L212.62 68.48L212.72 68.58Q213.33 68.75 215.04 69.19L215.09 69.25L215.13 70.77L215.11 70.75Q215.03 71.38 215.14 72.15L215.16 72.18L215.23 72.25Q217.04 72.41 220.62 72.74L220.60 72.72L220.58 72.69Q220.55 72.17 220.55 71.68L220.50 71.62L220.44 71.57Q220.55 69.03 222.31 67.08L222.20 66.97L222.26 67.03Q224.04 65.09 226.63 65.25L226.56 65.19L226.66 65.29Q227.74 65.32 228.84 65.54L228.84 65.54L228.82 65.52Q228.95 66.03 229.06 66.64L229.04 66.62L229.16 66.74Q229.19 67.32 229.08 67.81L229.11 67.85L229.00 67.74Q227.29 74.72 220.90 81.71L220.79 81.60L220.80 81.62Q217.73 84.88 209.85 93.63L209.88 93.66L209.90 93.68Q209.67 94.93 209.17 95.76L209.06 95.65L209.09 95.67Q211.52 94.53 213.72 93.76L213.66 93.70L213.69 93.73Q212.58 94.49 211.20 96.63L211.15 96.58L211.14 96.57Q211.04 97.13 210.87 97.62L210.92 97.67L210.88 97.63Q217.88 94.61 225.81 94.89L225.95 95.03L225.90 94.98Q234.13 95.22 240.74 98.63L240.74 98.64L239.24 95.48L239.33 95.58Q238.30 93.56 237.92 92.40L237.92 92.41L237.89 92.37Q236.89 91.82 235.13 91.21L235.15 91.23L235.12 91.20Q234.82 90.07 234.27 88.09L234.41 88.23L234.26 88.08Q231.24 87.43 227.94 87.16L227.76 86.98L227.78 87.00Q234.62 80.46 236.82 68.51L236.83 68.51L237.13 64.35L237.06 64.29Q236.93 61.68 235.17 60.69L235.18 60.70L235.09 60.66L235.18 60.75Q235.05 60.57 234.94 60.57L234.94 60.57L235.01 60.64Q234.59 59.33 232.99 58.45Z"/><path d="M3 102 C160 60,184 74,330 26" stroke="#7febd0" fill="none"/><path d="M11 26 C177 108,184 68,326 92" stroke="#8deb8d" fill="none"/><path d="M16 20 C150 72,183 39,333 32" stroke="#e6bc3b" fill="none"/><path d="M12 134 C190 58,167 47,341 41" stroke="#3e3edf" fill="none"/><path d="M4 36 C175 137,186 39,333 109" stroke="#e68de6" fill="none"/><path d="M8 64 C151 86,154 110,324 108" stroke="#6eddc1" fill="none"/><path d="M2 88 C163 72,150 121,336 92" stroke="#e36035" fill="none"/><path d="M20 124 C163 8,176 76,326 2" stroke="#a55eed" fill="none"/><path d="M4 126 C170 14,179 139,331 33" stroke="#a867e9" fill="none"/><path d="M6 37 C179 131,171 40,324 131" stroke="#7acae4" fill="none"/><path d="M9 121 C188 93,151 121,323 89" stroke="#e4436b" fill="none"/><path fill="#a55fec" d="M273.52 81.58L273.48 81.54L273.35 81.41Q277.98 81.02 282.60 81.19L282.54 81.13L282.54 81.13Q282.40 77.35 282.40 73.88L282.51 73.99L282.48 73.97Q282.40 70.31 282.67 66.62L282.80 66.74L282.84 66.78Q280.91 69.09 273.36 81.42ZM287.68 92.05L287.70 92.07L287.79 92.16Q285.39 91.74 282.80 91.63L282.66 91.49L282.76 91.59Q282.43 88.12 282.26 84.54L282.25 84.53L282.41 84.69Q274.70 84.41 267.87 86.45L267.82 86.39L267.79 86.37Q267.93 85.63 268.21 84.20L268.24 84.23L268.22 84.21Q270.78 79.61 275.96 70.52L276.04 70.61L275.95 70.52Q280.07 63.40 285.03 57.79L285.17 57.94L285.12 57.88Q286.42 57.64 288.85 57.26L288.74 57.15L288.86 57.27Q286.00 66.47 286.00 76.65L286.10 76.75L285.98 76.64Q286.13 78.93 286.24 81.08L286.24 81.08L288.01 81.15L288.07 81.21Q289.00 81.31 289.88 81.47L289.81 81.40L289.85 81.45Q289.93 82.79 290.31 85.60L290.26 85.54L290.44 85.73Q288.64 85.30 286.49 85.03L286.49 85.03L286.42 84.96Q286.87 87.99 287.86 92.23ZM290.25 80.91L290.18 80.84L290.12 80.78Q289.89 80.72 289.62 80.72L289.62 80.72L289.16 80.81L289.01 80.66Q288.92 78.59 288.92 76.55L289.01 76.64L288.85 76.48Q288.86 67.24 291.84 58.54L291.92 58.62L291.95 58.65Q290.76 58.95 288.67 59.51L288.80 59.63L288.62 59.46Q288.99 58.39 289.65 56.35L289.73 56.44L289.77 56.48Q287.81 56.94 284.84 57.27L284.83 57.26L284.94 57.37Q279.17 63.55 271.63 77.10L271.64 77.11L274.59 71.75L274.70 71.86Q274.09 73.34 273.71 74.17L273.75 74.22L267.17 87.12L267.20 87.16Q268.07 86.87 269.72 86.32L269.75 86.34L269.59 86.73L269.67 86.81Q269.45 87.75 269.01 89.57L268.95 89.51L268.93 89.49Q274.94 87.62 281.93 87.90L281.99 87.96L281.84 87.80Q281.98 89.27 282.26 92.14L282.27 92.15L282.25 92.12Q283.77 92.10 285.31 92.27L285.29 92.25L285.28 92.23Q285.50 93.22 285.88 95.21L285.92 95.25L285.86 95.18Q288.71 95.62 293.06 96.94L293.02 96.90L293.08 96.96Q291.56 93.78 290.24 89.05L290.29 89.10L292.35 89.73L292.41 89.79Q293.41 90.13 294.41 90.63L294.43 90.65L294.40 90.62Q293.31 87.05 293.09 84.63L293.07 84.61L293.01 84.55Q292.16 84.30 290.51 83.97L290.59 84.06L290.54 84.01Q290.18 82.11 290.18 80.84ZM278.72 80.72L278.65 80.65L278.57 80.57Q279.69 78.71 281.94 75.02L281.95 75.03L281.95 75.03Q282.05 76.51 281.99 77.88L281.84 77.73L281.90 77.79Q281.92 79.24 281.97 80.61L281.92 80.56L281.91 80.55Q281.22 80.63 280.39 80.63L280.38 80.62L280.40 80.64Q279.42 80.55 278.54 80.55Z"/><path d="M15 74 C154 4,153 136,328 129" stroke="#ba84ef" fill="none"/><path d="M5 47 C153 133,155 69,331 59" stroke="#e736bb" fill="none"/><path d="M3 109 C184 40,166 52,326 129" stroke="#dc418e" fill="none"/><path d="M15 135 C174 53,187 10,328 79" stroke="#7a56e5" fill="none"/><path d="M17 127 C176 38,158 56,340 2" stroke="#dddd40" fill="none"/><path d="M6 23 C175 14,183 51,341 129" stroke="#8b6be9" fill="none"/><path d="M12 42 C188 90,152 135,339 116" stroke="#ed87a0" fill="none"/><path d="M8 97 C173 62,186 11,330 42" stroke="#82dd64" fill="none"/><path d="M6 62 C155 131,180 71,324 26" stroke="#6783da" fill="none"/><path d="M2 57 C171 33,189 27,339 53" stroke="#81e3b2" fill="none"/><path d="M19 17 C159 107,155 82,336 8" stroke="#b7de44" fill="none"/><path d="M9 41 C164 14,185 80,328 48" stroke="#5fc9ec" fill="none"/><path d="M6 108 C177 31,165 48,334 57" stroke="#e2e24f" fill="none"/><path d="M16 35 C182 29,158 69,338 47" stroke="#68a0d9" fill="none"/><path d="M20 12 C153 118,177 59,322 15" stroke="#ba87ed" fill="none"/><path fill="#5d5de3" d="M52.35 75.95L52.37 75.98L52.25 75.85Q49.76 75.84 47.97 77.91L47.95 77.88L47.90 77.83Q46.08 79.87 45.81 82.62L45.87 82.69L45.80 82.61Q45.54 85.66 47.11 87.06L47.04 86.99L47.08 87.04Q48.68 88.47 51.71 88.30L51.70 88.30L51.66 88.26Q54.69 88.04 56.29 87.05L56.37 87.13L56.40 87.16Q57.98 85.49 57.98 83.23L58.01 83.26L57.87 83.13Q58.03 82.73 57.92 82.18L57.80 82.07L57.76 82.02Q57.87 79.60 56.27 77.65L56.28 77.65L56.34 77.71Q54.75 75.77 52.33 75.93ZM51.75 92.04L51.77 92.06L51.78 92.07Q45.34 91.96 43.30 90.86L43.29 90.85L43.47 91.02Q41.80 89.74 41.53 87.26L41.53 87.27L41.59 87.33Q41.59 86.39 41.64 85.34L41.63 85.33L41.53 85.23Q41.70 83.80 41.70 83.14L41.83 83.27L41.68 83.13Q42.41 79.07 42.63 78.08L42.60 78.04L42.71 78.15Q43.29 75.26 44.50 73.22L44.49 73.21L44.55 73.28Q48.42 66.96 57.01 57.76L57.05 57.80L57.00 57.75Q60.75 57.20 63.94 56.05L64.05 56.15L64.08 56.19Q54.11 66.92 49.49 73.03L49.43 72.97L49.38 72.93Q50.94 72.34 52.81 72.34L52.72 72.25L52.83 72.36Q57.50 72.24 59.71 75.05L59.70 75.05L59.84 75.18Q61.76 77.54 62.25 82.66L62.25 82.66L62.21 82.62Q62.26 83.60 62.26 84.48L62.39 84.61L62.27 84.49Q62.24 88.99 59.05 90.53L59.06 90.54L59.09 90.57Q57.35 91.47 51.73 92.02ZM54.98 95.43L55.00 95.45L55.04 95.49Q56.92 95.45 59.78 95.56L59.84 95.62L59.84 95.61Q62.19 95.71 64.45 94.66L64.47 94.68L64.41 94.62Q66.04 93.50 66.04 90.91L65.92 90.79L66.06 90.93Q66.02 90.17 65.77 88.74L65.74 88.71L65.67 88.64Q65.59 87.37 65.59 86.71L65.57 86.70L65.50 86.62Q64.31 79.87 62.00 77.12L62.00 77.12L61.92 77.05Q61.75 76.81 61.53 76.48L61.50 76.46L61.11 76.18L60.97 76.09L61.09 76.21Q60.61 75.51 59.73 74.13L59.60 74.01L59.59 74.00Q58.27 72.63 55.41 71.96L55.57 72.12L55.46 72.02Q57.21 69.69 61.51 64.35L61.61 64.46L67.64 56.72L67.60 56.68Q65.30 57.91 61.83 59.01L61.89 59.06L61.83 59.00Q63.17 57.59 65.76 54.73L65.78 54.75L65.92 54.89Q62.32 56.30 56.71 57.13L56.80 57.22L56.70 57.12Q48.40 65.62 44.11 72.78L44.17 72.84L44.17 72.83Q42.02 76.52 41.19 85.55L41.09 85.45L41.15 85.51Q41.13 86.43 41.24 87.81L41.21 87.77L41.16 87.73Q41.31 90.29 42.90 91.62L42.89 91.61L42.96 91.67Q43.33 91.71 43.27 91.76L43.37 91.86L43.32 91.81Q44.01 93.28 45.17 93.88L45.03 93.74L45.04 93.75Q47.17 94.78 49.98 95.06L50.07 95.15L49.94 95.02Q49.88 94.96 54.95 95.40ZM54.81 79.35L54.72 79.26L54.63 79.17Q55.53 79.08 56.91 79.80L56.97 79.86L56.96 79.85Q57.36 81.13 57.36 82.06L57.32 82.02L57.51 82.21Q57.73 84.86 56.35 86.29L56.29 86.23L56.36 86.30Q54.75 87.27 51.72 87.71L51.73 87.72L51.69 87.68Q49.69 87.77 48.91 87.38L48.85 87.32L48.95 87.42Q48.63 86.72 48.63 86.28L48.65 86.29L48.63 86.28Q48.22 81.46 52.46 79.58L52.55 79.68L52.51 79.64Q53.70 79.23 54.80 79.34Z"/><path d="M4 86 C162 112,174 61,339 15" stroke="#96e27d" fill="none"/><path d="M8 31 C188 7,179 12,334 55" stroke="#408cd7" fill="none"/><path d="M8 27 C170 50,184 12,332 98" stroke="#e43e91" fill="none"/><path d="M11 104 C185 35,153 77,339 68" stroke="#f0a288" fill="none"/><path d="M10 7 C155 7,183 71,339 136" stroke="#e692e6" fill="none"/><path fill="#4343e9" d="M165.72 75.99L165.70 75.97L165.63 75.90Q162.95 75.69 161.16 77.76L161.27 77.87L161.17 77.77Q159.49 79.95 159.22 82.70L159.12 82.60L159.22 82.71Q158.79 85.58 160.36 86.98L160.51 87.14L160.48 87.10Q162.07 88.53 165.10 88.36L165.07 88.33L165.09 88.36Q168.03 88.04 169.62 87.05L169.65 87.08L169.70 87.12Q171.27 85.45 171.27 83.19L171.38 83.30L171.35 83.27Q171.36 82.73 171.25 82.18L171.19 82.12L171.10 82.03Q171.22 79.62 169.62 77.66L169.67 77.71L169.63 77.67Q168.14 75.83 165.72 75.99ZM165.11 92.06L164.98 91.94L165.06 92.02Q158.84 92.12 156.80 91.02L156.68 90.90L156.61 90.83Q155.18 89.79 154.91 87.31L154.93 87.34L155.02 87.43Q154.89 86.36 154.95 85.32L155.02 85.39L154.90 85.27Q155.01 83.78 155.01 83.12L155.06 83.17L155.01 83.12Q155.80 79.12 156.02 78.13L155.94 78.05L156.02 78.13Q156.69 75.33 157.91 73.30L157.87 73.27L157.78 73.17Q161.63 66.84 170.22 57.64L170.21 57.62L170.29 57.71Q174.21 57.33 177.40 56.17L177.28 56.06L177.26 56.04Q167.50 66.97 162.87 73.08L162.84 73.05L162.78 73.00Q164.22 72.29 166.10 72.29L166.12 72.31L166.07 72.26Q170.99 72.39 173.19 75.20L173.07 75.08L173.08 75.09Q175.09 77.54 175.59 82.66L175.44 82.52L175.47 82.55Q175.69 83.71 175.69 84.59L175.64 84.53L175.60 84.49Q175.61 89.01 172.41 90.56L172.43 90.57L172.44 90.58Q170.61 91.39 164.99 91.94ZM168.37 95.49L168.29 95.41L168.45 95.57Q170.23 95.42 173.09 95.53L173.14 95.57L173.14 95.58Q175.51 95.69 177.77 94.65L177.64 94.51L177.83 94.71Q179.40 93.52 179.40 90.94L179.41 90.95L179.31 90.84Q179.38 90.20 179.13 88.77L179.15 88.79L179.03 88.66Q178.93 87.39 178.93 86.73L178.93 86.72L178.89 86.69Q177.61 79.85 175.30 77.09L175.21 77.00L175.36 77.15Q175.17 76.91 174.95 76.58L174.85 76.48L174.52 76.25L174.36 76.15L174.30 76.09Q173.82 75.39 172.94 74.01L173.02 74.09L173.03 74.11Q171.60 72.62 168.74 71.96L168.77 72.00L168.80 72.02Q170.49 69.64 174.79 64.30L174.87 64.38L180.97 56.71L180.93 56.67Q178.64 57.90 175.17 59.01L175.35 59.19L175.27 59.11Q176.55 57.63 179.14 54.77L179.15 54.78L179.07 54.70Q175.75 56.40 170.14 57.22L170.01 57.10L170.07 57.16Q161.77 65.65 157.47 72.81L157.45 72.79L157.45 72.78Q155.42 76.59 154.59 85.62L154.52 85.55L154.53 85.56Q154.39 86.36 154.50 87.74L154.41 87.64L154.52 87.75Q154.59 90.25 156.19 91.57L156.13 91.51L156.20 91.58Q156.80 91.85 156.74 91.90L156.66 91.82L156.77 91.93Q157.25 93.18 158.40 93.78L158.35 93.73L158.39 93.77Q160.48 94.76 163.29 95.03L163.27 95.02L163.39 95.14Q163.28 95.02 168.34 95.46ZM168.02 79.23L167.96 79.17L168.05 79.26Q168.90 79.11 170.28 79.83L170.34 79.89L170.33 79.88Q170.73 81.16 170.73 82.10L170.66 82.03L170.80 82.17Q171.08 84.87 169.70 86.31L169.59 86.19L169.63 86.23Q168.02 87.21 164.99 87.65L165.02 87.68L165.16 87.82Q163.05 87.80 162.28 87.42L162.11 87.25L162.17 87.31Q161.85 86.60 161.85 86.16L162.01 86.32L161.86 86.17Q161.67 81.58 165.91 79.71L165.84 79.63L165.77 79.57Q166.99 79.19 168.09 79.30Z"/><path d="M12 60 C152 76,185 24,326 39" stroke="#d859b8" fill="none"/></svg>