<svg xmlns="http://www.w3.org/2000/svg" width="342" height="140" viewBox="0,0,342,140"><path d="M16 94 C185 33,179 94,338 71" stroke="#54e278" fill="none"/><path d="M19 90 C157 102,173 48,328 21" stroke="#dd9b59" fill="none"/><path d="M1 79 C154 54,174 49,332 73" stroke="#5ca0e4" fill="none"/><path d="M2 135 C188 23,169 68,328 10" stroke="#64eb64" fill="none"/><path d="M7 20 C161 133,191 68,337 81" stroke="#6be489" fill="none"/><path d="M13 25 C182 76,187 98,322 128" stroke="#5396d9" fill="none"/><path d="M18 90 C178 104,178 63,323 78" stroke="#47dab6" fill="none"/><path fill="#7bdf7b" d="M51.43 77.31L51.41 77.30L51.48 77.36Q48.09 77.00 45.90 79.53L45.95 79.57L45.92 79.54Q43.83 82.17 43.49 85.53L43.53 85.57L43.54 85.58Q43.06 89.13 44.98 90.85L45.04 90.91L44.86 90.74Q46.92 92.59 50.62 92.39L50.62 92.39L50.54 92.31Q54.18 91.98 56.14 90.77L56.29 90.92L56.23 90.87Q58.32 88.99 58.32 86.23L58.21 86.12L58.32 86.23Q58.27 85.50 58.14 84.83L58.02 84.71L58.21 84.90Q58.29 81.89 56.34 79.50L56.36 79.52L56.36 79.52Q54.34 77.06 51.38 77.27ZM50.70 96.98L50.73 97.01L50.60 96.88Q43.00 97.02 40.51 95.67L40.37 95.53L40.38 95.54Q38.54 94.17 38.20 91.14L38.29 91.23L38.18 91.12Q38.15 89.95 38.22 88.67L38.24 88.69L38.21 88.66Q38.50 87.00 38.50 86.19L38.37 86.06L38.46 86.15Q39.37 81.20 39.64 79.99L39.63 79.98L39.50 79.86Q40.34 76.46 41.82 73.97L41.78 73.92L41.81 73.96Q46.57 66.26 57.07 55.02L57.06 55.02L56.99 54.94Q61.75 54.46 65.65 53.04L65.58 52.97L65.66 53.05Q53.57 66.27 47.92 73.74L47.94 73.75L47.96 73.78Q49.63 72.82 51.92 72.82L52.00 72.90L51.94 72.84Q57.83 72.88 60.53 76.32L60.45 76.24L60.47 76.26Q62.75 79.08 63.35 85.34L63.40 85.38L63.41 85.39Q63.65 86.78 63.65 87.85L63.64 87.85L63.63 87.83Q63.63 93.35 59.73 95.24L59.67 95.18L59.62 95.12Q57.49 96.23 50.62 96.90ZM54.62 101.10L54.73 101.21L54.59 101.07Q56.92 101.05 60.42 101.18L60.40 101.16L60.38 101.14Q63.33 101.33 66.09 100.05L66.05 100.01L66.05 100.02Q68.04 98.64 68.04 95.47L68.14 95.58L68.14 95.57Q68.02 94.58 67.72 92.83L67.77 92.88L67.84 92.95Q67.40 91.06 67.40 90.25L67.45 90.31L67.50 90.35Q66.01 82.07 63.18 78.70L63.09 78.61L63.06 78.58Q62.98 78.44 62.71 78.03L62.75 78.07L62.19 77.65L61.94 77.46L62.04 77.56Q61.32 76.57 60.25 74.89L60.40 75.04L60.31 74.96Q58.80 73.37 55.30 72.57L55.22 72.49L55.12 72.39Q57.33 69.62 62.58 63.09L62.67 63.19L70.13 53.82L70.19 53.88Q67.36 55.35 63.12 56.70L63.06 56.64L63.18 56.76Q64.64 54.85 67.80 51.35L67.95 51.50L67.89 51.44Q63.56 53.23 56.69 54.24L56.81 54.36L56.72 54.27Q46.62 64.69 41.37 73.44L41.45 73.53L41.33 73.41Q38.65 77.86 37.64 88.90L37.70 88.95L37.68 88.94Q37.55 89.95 37.69 91.64L37.76 91.71L37.66 91.61Q37.82 94.73 39.77 96.35L39.83 96.40L39.75 96.32Q40.49 96.66 40.42 96.72L40.35 96.66L40.48 96.79Q41.09 98.34 42.50 99.08L42.46 99.04L42.43 99.00Q44.98 100.21 48.41 100.55L48.52 100.65L48.51 100.64Q48.55 100.68 54.74 101.22ZM54.25 81.28L54.25 81.27L54.27 81.30Q55.38 81.20 57.06 82.07L56.91 81.92L56.90 81.91Q57.65 83.73 57.65 84.88L57.60 84.83L57.66 84.89Q58.01 88.20 56.32 89.95L56.22 89.85L56.31 89.93Q54.27 91.06 50.57 91.60L50.55 91.57L50.68 91.71Q48.12 91.71 47.18 91.24L47.19 91.25L47.24 91.30Q46.86 90.45 46.86 89.91L46.81 89.86L46.86 89.91Q46.44 84.10 51.62 81.81L51.51 81.70L51.49 81.68Q52.93 81.17 54.28 81.31Z"/><path d="M12 39 C161 37,180 28,334 54" stroke="#eb8deb" fill="none"/><path d="M1 37 C158 89,191 14,339 81" stroke="#dda56d" fill="none"/><path d="M3 103 C183 8,152 4,327 106" stroke="#4bd7d7" fill="none"/><path fill="#e467e4" d="M222.57 67.15L222.63 67.21L222.60 67.17Q216.97 67.20 213.74 65.31L213.64 65.21L213.68 65.25Q218.15 62.86 226.76 55.39L226.83 55.46L226.75 55.38Q228.06 55.07 230.35 53.99L230.28 53.93L230.26 53.91Q227.91 64.41 227.71 75.65L227.81 75.76L227.74 75.68Q227.66 87.05 229.55 97.82L229.43 97.70L229.44 97.71Q226.55 96.50 222.78 96.30L222.74 96.26L222.66 96.18Q222.50 88.89 222.50 81.69L222.53 81.71L222.45 81.64Q222.59 74.51 222.66 67.24ZM222.01 71.24L222.00 97.00L221.87 96.87Q224.01 96.85 225.69 97.19L225.67 97.17L225.73 97.22Q225.90 98.47 226.23 100.90L226.15 100.81L226.32 100.98Q231.36 101.92 235.67 105.89L235.61 105.83L235.55 105.77Q231.27 93.28 231.20 80.08L231.06 79.94L231.19 80.07Q231.07 66.89 234.30 54.11L234.27 54.08L234.28 54.10Q233.28 54.77 230.45 56.72L230.41 56.68L230.43 56.70Q230.88 55.47 231.42 52.78L231.42 52.78L231.35 52.71Q228.91 53.97 226.35 54.64L226.43 54.72L226.53 54.82Q219.83 61.11 212.23 65.15L212.17 65.10L212.22 65.15Q214.72 67.10 218.89 67.71L218.75 67.57L218.88 67.70Q217.75 68.65 215.46 70.54L215.30 70.38L215.42 70.50Q217.94 71.07 221.85 71.07L221.82 71.05Z"/><path d="M20 68 C190 26,189 127,328 102" stroke="#67dec1" fill="none"/><path d="M10 8 C181 55,160 68,334 90" stroke="#83e1e1" fill="none"/><path d="M13 55 C161 119,170 122,340 48" stroke="#ee9090" fill="none"/><path d="M15 92 C173 131,188 93,327 104" stroke="#63ecec" fill="none"/><path d="M13 89 C175 7,160 123,340 109" stroke="#4040e7" fill="none"/><path d="M4 85 C189 37,172 44,329 72" stroke="#eaea7a" fill="none"/><path d="M10 112 C184 136,179 131,326 10" stroke="#d95d5d" fill="none"/><path d="M6 136 C177 13,179 22,332 19" stroke="#3ce567" fill="none"/><path d="M3 111 C160 3,158 7,335 25" stroke="#b7e688" fill="none"/><path d="M10 28 C172 112,152 61,335 104" stroke="#37e137" fill="none"/><path d="M2 13 C171 41,175 38,335 49" stroke="#82dd64" fill="none"/><path fill="#d79350" d="M278.08 77.29L277.95 77.17L278.11 77.33Q274.79 77.04 272.60 79.56L272.58 79.54L272.62 79.58Q270.51 82.18 270.17 85.54L270.10 85.47L270.03 85.40Q269.76 89.17 271.68 90.88L271.54 90.75L271.69 90.90Q273.51 92.52 277.21 92.32L277.15 92.25L277.17 92.27Q281.01 92.14 282.96 90.93L282.93 90.90L282.84 90.81Q284.94 88.94 284.94 86.18L285.01 86.24L284.83 86.07Q284.88 85.45 284.75 84.77L284.72 84.74L284.81 84.84Q284.99 81.92 283.04 79.53L282.96 79.45L282.98 79.47Q280.94 77.00 277.98 77.20ZM277.28 96.89L277.37 96.98L277.39 97.00Q269.48 96.83 266.99 95.49L267.08 95.58L267.03 95.52Q265.32 94.29 264.98 91.26L265.00 91.28L264.90 91.17Q264.82 89.95 264.89 88.67L264.93 88.72L265.00 88.78Q265.03 86.86 265.03 86.05L265.16 86.19L265.10 86.13Q265.97 81.14 266.24 79.93L266.23 79.92L266.21 79.90Q266.97 76.42 268.45 73.93L268.44 73.91L268.56 74.04Q273.22 66.25 283.72 55.01L283.68 54.97L283.67 54.96Q288.42 54.46 292.33 53.05L292.27 53.00L292.36 53.08Q280.15 66.17 274.49 73.64L274.56 73.71L274.52 73.67Q276.30 72.83 278.59 72.83L278.58 72.81L278.52 72.76Q284.45 72.83 287.14 76.26L287.14 76.26L287.12 76.24Q289.43 79.09 290.04 85.35L290.01 85.33L290.18 85.50Q290.27 86.73 290.27 87.81L290.15 87.69L290.30 87.83Q290.23 93.29 286.33 95.17L286.31 95.15L286.24 95.08Q284.25 96.33 277.39 97.00ZM281.38 101.19L281.27 101.08L281.35 101.16Q283.55 101.01 287.05 101.15L287.20 101.29L287.12 101.21Q290.03 101.37 292.79 100.09L292.77 100.07L292.81 100.11Q294.70 98.63 294.70 95.46L294.82 95.59L294.69 95.46Q294.66 94.55 294.36 92.80L294.39 92.84L294.43 92.87Q294.10 91.10 294.10 90.29L294.13 90.31L294.18 90.37Q292.60 81.99 289.77 78.63L289.79 78.65L289.66 78.52Q289.66 78.44 289.39 78.04L289.44 78.10L288.86 77.65L288.60 77.46L288.65 77.50Q288.10 76.68 287.02 75.00L287.09 75.06L286.94 74.92Q285.34 73.25 281.84 72.44L281.86 72.46L281.83 72.44Q284.06 69.68 289.31 63.16L289.30 63.15L296.81 53.83L296.76 53.78Q293.98 55.31 289.74 56.66L289.76 56.67L289.85 56.76Q291.35 54.90 294.52 51.40L294.57 51.45L294.64 51.52Q290.37 53.38 283.51 54.39L283.41 54.29L283.37 54.25Q273.34 64.75 268.09 73.50L268.03 73.44L268.18 73.59Q265.42 77.97 264.41 89.00L264.34 88.93L264.35 88.94Q264.17 89.91 264.31 91.59L264.40 91.68L264.39 91.67Q264.43 94.68 266.38 96.29L266.53 96.44L266.44 96.35Q267.23 96.73 267.16 96.80L267.17 96.80L267.03 96.67Q267.76 98.34 269.17 99.08L269.07 98.98L269.07 98.98Q271.66 100.22 275.09 100.56L275.08 100.54L275.11 100.58Q275.19 100.65 281.38 101.19ZM280.85 81.21L280.88 81.24L280.99 81.35Q281.98 81.13 283.66 82.00L283.71 82.05L283.70 82.05Q284.18 83.60 284.18 84.75L284.26 84.82L284.17 84.73Q284.56 88.08 282.87 89.83L282.95 89.90L282.89 89.85Q281.01 91.13 277.31 91.67L277.22 91.58L277.23 91.59Q274.71 91.63 273.77 91.16L273.91 91.30L273.83 91.22Q273.37 90.29 273.37 89.75L273.39 89.77L273.50 89.88Q272.98 83.98 278.17 81.69L278.29 81.82L278.18 81.71Q279.66 81.24 281.01 81.37Z"/><path d="M11 80 C170 24,185 57,339 124" stroke="#4f98e2" fill="none"/><path d="M14 87 C188 23,156 11,331 83" stroke="#7290e8" fill="none"/><path d="M20 29 C186 2,177 133,334 16" stroke="#dfa061" fill="none"/><path d="M5 1 C173 88,184 11,325 117" stroke="#edaa68" fill="none"/><path d="M4 135 C172 21,159 101,329 11" stroke="#90e4a5" fill="none"/><path d="M19 40 C178 91,180 28,335 131" stroke="#e9bc8f" fill="none"/><path d="M18 90 C185 69,164 63,332 43" stroke="#e792bc" fill="none"/><path d="M6 97 C170 1,151 122,338 135" stroke="#d953b7" fill="none"/><path d="M12 33 C187 112,154 33,338 79" stroke="#4747da" fill="none"/><path d="M15 129 C162 66,177 82,334 21" stroke="#ea66a8" fill="none"/><path d="M17 28 C170 35,160 106,322 16" stroke="#9ee754" fill="none"/><path d="M7 71 C184 90,189 6,327 87" stroke="#81cee8" fill="none"/><path d="M19 14 C188 92,188 34,323 13" stroke="#bee44d" fill="none"/><path d="M6 81 C190 78,161 134,339 81" stroke="#d69656" fill="none"/><path d="M16 127 C167 36,161 96,328 57" stroke="#87ec87" fill="none"/><path d="M12 133 C157 106,192 124,339 57" stroke="#7feaea" fill="none"/><path fill="#e6e665" d="M108.18 77.39L108.11 77.33L108.12 77.34Q104.84 77.35 102.68 79.71L102.68 79.71L102.69 79.71Q100.53 82.07 100.26 85.43L100.33 85.50L100.31 85.48Q99.94 89.22 102.10 91.00L102.19 91.09L102.05 90.95Q104.26 92.79 108.03 92.66L108.13 92.76L108.02 92.65Q112.22 92.47 113.90 90.79L113.93 90.82L113.93 90.82Q115.61 88.13 115.41 84.90L115.49 84.97L115.41 84.89Q115.28 81.67 113.36 79.55L113.27 79.46L113.39 79.58Q111.48 77.47 108.25 77.47ZM108.10 60.69L108.19 60.79L108.16 60.75Q105.57 60.45 103.21 61.33L103.22 61.33L103.28 61.39Q101.00 62.81 101.40 66.11L101.48 66.19L101.38 66.09Q102.24 72.67 108.17 72.67L108.12 72.63L108.13 72.64Q110.88 72.97 112.63 70.95L112.63 70.94L112.71 71.03Q114.38 68.93 114.45 66.17L114.50 66.22L114.50 66.22Q114.64 63.13 113.36 62.05L113.30 61.99L113.30 61.99Q110.47 60.64 108.18 60.77ZM107.74 97.15L107.59 96.99L102.36 97.15L102.33 97.12Q99.63 97.11 97.27 95.56L97.28 95.57L97.23 95.53Q94.70 93.39 94.96 88.34L95.15 88.53L95.13 88.51Q95.86 76.32 102.26 74.57L102.17 74.48L102.35 74.66Q98.19 72.92 95.83 63.43L95.78 63.38L95.95 63.55Q95.17 60.89 95.30 59.47L95.42 59.59L95.49 59.66Q95.96 55.83 102.49 55.76L102.42 55.69L102.43 55.70Q109.86 55.53 112.42 55.86L112.41 55.86L112.41 55.85Q119.26 56.84 120.06 60.41L120.14 60.49L120.19 60.53Q120.30 61.53 120.30 62.20L120.39 62.28L120.23 62.13Q120.24 63.35 119.90 64.42L119.93 64.45L119.93 64.45Q118.84 71.90 113.65 74.60L113.61 74.55L113.70 74.64Q119.82 75.99 120.70 85.34L120.71 85.35L120.71 85.35Q120.77 85.68 120.84 87.97L120.76 87.89L120.83 87.96Q121.01 92.85 118.18 94.73L118.21 94.77L118.08 94.63Q115.74 96.26 107.66 97.07ZM111.75 101.22L111.62 101.09L117.60 101.28L117.56 101.25Q120.66 101.45 123.35 100.17L123.35 100.17L123.33 100.15Q125.30 98.82 125.43 95.53L125.39 95.48L125.41 95.50Q125.49 93.56 124.81 90.13L124.89 90.20L124.80 90.11Q123.17 81.89 119.47 78.59L119.66 78.78L119.29 78.08L118.86 77.52L118.57 77.02L118.69 77.14Q121.56 74.69 123.17 67.35L123.06 67.24L123.07 67.26Q123.07 66.58 123.21 65.10L123.27 65.16L123.35 65.24Q123.46 64.01 123.33 62.93L123.27 62.88L123.20 62.80Q123.05 60.37 120.96 59.49L120.94 59.47L120.95 59.41L120.67 59.27L120.54 59.14Q120.11 57.90 118.03 56.49L118.17 56.63L118.23 56.62L118.05 56.45Q114.57 55.26 107.37 54.92L107.46 55.00L107.40 54.94Q104.68 54.78 102.25 54.98L102.30 55.03L102.35 55.08Q100.81 55.02 98.52 55.29L98.60 55.36L98.56 55.33Q95.21 56.08 94.80 58.97L94.66 58.83L94.82 58.99Q94.63 59.75 94.70 61.16L94.77 61.23L94.67 61.13Q94.92 62.12 95.93 66.30L95.91 66.27L96.00 66.36Q97.31 71.98 100.41 74.34L100.38 74.31L100.63 74.56L100.54 74.47Q95.58 76.71 94.63 85.86L94.80 86.03L94.73 85.96Q94.34 89.81 94.34 91.42L94.33 91.41L94.48 91.57Q94.60 94.71 96.68 96.32L96.68 96.31L96.67 96.31Q96.89 96.47 97.37 96.80L97.38 96.81L97.29 96.73Q99.10 100.76 111.69 101.16ZM111.09 81.59L111.18 81.67L111.11 81.60Q112.72 81.46 114.27 82.27L114.33 82.34L114.17 82.17Q115.00 84.08 114.93 85.02L114.91 85.00L114.78 84.87Q114.83 85.39 114.83 85.93L114.84 85.95L114.92 86.02Q115.00 90.28 110.96 91.76L110.90 91.69L110.95 91.75Q109.44 92.18 108.02 91.98L108.13 92.09L108.02 91.98Q106.09 92.20 104.07 91.39L103.99 91.31L104.11 91.43Q103.70 90.35 103.84 88.60L103.67 88.44L103.67 88.43Q103.94 85.61 106.06 83.46L106.15 83.55L106.13 83.53Q108.18 81.30 111.00 81.50ZM111.39 64.73L111.46 64.80L111.39 64.73Q112.90 64.62 113.84 64.89L113.78 64.83L113.91 66.37L113.74 66.20Q113.94 68.89 112.32 70.67L112.17 70.52L112.25 70.60Q110.62 72.36 108.19 72.03L108.16 71.99L108.23 72.06Q106.43 72.02 105.69 71.61L105.72 71.65L105.79 71.71Q105.63 71.15 105.43 69.94L105.43 69.94L105.49 69.99Q105.01 67.50 107.16 66.02L107.06 65.91L107.17 66.02Q109.09 64.84 111.58 64.91Z"/><path d="M11 54 C158 121,158 33,339 116" stroke="#bada5c" fill="none"/><path fill="#5e5ede" d="M171.53 73.75L171.55 73.78L171.60 73.83Q173.12 73.93 175.61 73.66L175.60 73.65L175.51 73.56Q175.42 74.68 175.42 75.83L175.35 75.76L175.48 78.11L175.51 78.13Q174.03 78.13 172.55 78.27L172.48 78.20L172.57 78.29Q171.09 78.36 169.61 78.29L169.44 78.12L169.63 78.31Q164.45 89.08 158.39 97.22L158.49 97.32L158.41 97.24Q153.95 98.37 151.66 99.45L151.66 99.44L151.76 99.55Q159.00 89.42 164.38 78.31L164.35 78.28L159.79 78.37L159.76 78.34Q159.64 75.86 159.44 73.50L159.44 73.51L159.54 73.60Q162.91 73.88 166.54 73.88L166.60 73.93L169.90 67.34L169.82 67.26Q171.54 63.87 173.70 61.04L173.86 61.20L173.85 61.20Q171.09 61.47 168.26 61.47L168.27 61.47L168.23 61.43Q157.35 61.32 150.69 57.42L150.75 57.48L149.53 54.37L149.55 54.40Q149.02 52.99 148.35 51.44L148.24 51.34L148.25 51.35Q156.06 56.13 166.16 56.53L166.01 56.38L166.00 56.38Q175.16 56.85 184.24 53.35L184.34 53.45L184.18 53.29Q183.85 54.04 182.98 55.59L183.12 55.73L183.04 55.65Q176.62 64.04 171.57 73.80ZM185.97 58.18L185.98 58.18L187.69 54.57L187.57 54.46Q185.86 55.31 182.90 56.59L183.07 56.75L183.29 56.10L183.41 56.22Q183.55 55.89 183.75 55.69L183.80 55.73L183.65 55.59Q184.45 54.50 185.73 52.15L185.64 52.06L185.77 52.19Q176.32 56.19 166.15 55.79L166.08 55.71L166.11 55.75Q155.37 55.17 146.96 49.92L147.01 49.97L147.08 50.04Q148.88 53.32 150.36 58.04L150.43 58.11L150.26 57.93Q152.23 59.10 153.64 59.63L153.68 59.67L153.65 59.64Q153.98 60.30 154.79 63.60L154.76 63.58L154.70 63.51Q160.46 65.91 170.22 65.64L170.05 65.48L170.14 65.57Q169.55 66.52 166.05 73.18L166.18 73.31L166.12 73.25Q162.53 73.30 159.03 72.96L159.00 72.93L158.91 72.84Q159.07 74.34 159.07 75.89L159.14 75.97L159.04 78.90L162.01 78.90L161.98 81.37L162.08 81.46Q155.21 94.59 150.30 100.91L150.22 100.83L150.25 100.86Q152.96 99.39 155.85 98.52L155.98 98.65L155.88 98.54Q154.73 100.23 152.31 103.26L152.29 103.23L152.34 103.29Q157.85 101.26 162.16 100.86L162.17 100.86L162.29 100.99Q167.31 94.17 172.83 82.19L172.80 82.15L178.88 82.52L178.95 82.59Q178.90 81.05 178.90 79.44L178.72 79.26L178.76 76.14L178.90 76.28Q178.28 76.13 177.30 76.19L177.40 76.29L177.41 76.30Q176.45 76.38 175.98 76.38L175.89 76.30L175.99 76.40Q176.01 76.21 176.08 75.94L176.08 75.94L176.00 75.40L175.90 75.30Q180.48 66.34 185.93 58.13Z"/><path d="M17 62 C170 42,183 49,327 11" stroke="#5656d6" fill="none"/><path d="M19 72 C156 38,170 60,340 99" stroke="#71e88f" fill="none"/></svg>