<svg xmlns="http://www.w3.org/2000/svg" width="342" height="140" viewBox="0,0,342,140"><path d="M9 52 C169 125,164 41,335 89" stroke="#6de36d" fill="none"/><path d="M15 112 C155 46,161 126,328 106" stroke="#c1e556" fill="none"/><path d="M11 21 C177 96,155 97,336 124" stroke="#ed6c6c" fill="none"/><path fill="#df947a" d="M63.70 75.84L63.63 75.77L63.65 75.80Q61.17 75.76 59.40 77.80L59.35 77.75L59.26 77.66Q57.55 79.76 57.28 82.48L57.34 82.53L57.35 82.54Q57.06 85.52 58.61 86.90L58.47 86.77L58.45 86.74Q60.00 88.13 62.99 87.97L63.00 87.97L63.00 87.97Q66.12 87.89 67.70 86.91L67.57 86.79L67.74 86.95Q69.35 85.35 69.35 83.12L69.27 83.04L69.23 83.00Q69.34 82.57 69.23 82.03L69.20 82.00L69.11 81.91Q69.19 79.49 67.62 77.56L67.65 77.59L67.60 77.54Q66.05 75.64 63.66 75.80ZM63.16 91.79L63.15 91.77L63.14 91.76Q56.82 91.70 54.81 90.61L54.83 90.63L54.87 90.67Q53.35 89.53 53.07 87.08L53.04 87.04L53.14 87.15Q53.02 86.10 53.07 85.06L53.07 85.06L53.18 85.17Q53.31 83.73 53.31 83.07L53.19 82.95L53.29 83.05Q54.01 79.04 54.23 78.06L54.18 78.01L54.19 78.03Q54.77 75.18 55.97 73.17L56.03 73.23L56.01 73.21Q59.81 66.95 68.30 57.87L68.39 57.96L68.38 57.95Q72.18 57.51 75.33 56.36L75.27 56.30L75.16 56.20Q65.46 66.95 60.89 72.98L60.86 72.95L60.81 72.90Q62.41 72.38 64.26 72.38L64.13 72.25L64.19 72.31Q68.86 72.24 71.03 75.02L71.06 75.04L71.16 75.15Q72.90 77.32 73.39 82.38L73.42 82.41L73.52 82.51Q73.66 83.57 73.66 84.44L73.52 84.30L73.63 84.41Q73.50 88.74 70.35 90.27L70.34 90.26L70.49 90.41Q68.60 91.13 63.05 91.67ZM66.46 95.24L66.49 95.28L66.30 95.08Q68.20 95.08 71.03 95.19L71.11 95.27L71.01 95.17Q73.46 95.40 75.69 94.36L75.68 94.35L75.62 94.29Q77.12 93.07 77.12 90.52L77.14 90.54L77.25 90.64Q77.15 89.83 76.90 88.42L76.96 88.48L76.98 88.50Q76.64 86.99 76.64 86.34L76.77 86.47L76.66 86.35Q75.56 79.76 73.27 77.04L73.21 76.97L73.10 76.87Q73.04 76.75 72.82 76.42L72.80 76.41L72.41 76.13L72.35 76.12L72.26 76.03Q71.83 75.38 70.96 74.02L70.93 73.99L71.00 74.06Q69.64 72.65 66.81 71.99L66.86 72.04L66.74 71.93Q68.66 69.82 72.90 64.54L72.72 64.36L78.94 56.98L78.92 56.96Q76.53 58.05 73.10 59.14L73.25 59.29L73.16 59.20Q74.41 57.73 76.97 54.90L77.12 55.06L77.14 55.08Q73.72 56.60 68.17 57.42L68.11 57.35L67.99 57.23Q59.87 65.71 55.63 72.78L55.74 72.88L55.75 72.90Q53.51 76.42 52.69 85.34L52.67 85.32L52.73 85.37Q52.53 86.10 52.64 87.46L52.67 87.50L52.68 87.50Q52.78 89.99 54.36 91.30L54.28 91.23L54.31 91.25Q54.96 91.58 54.91 91.63L54.83 91.55L54.93 91.65Q55.48 92.97 56.63 93.57L56.53 93.47L56.59 93.54Q58.65 94.51 61.43 94.78L61.38 94.74L61.41 94.76Q61.41 94.76 66.41 95.20ZM66.14 79.21L66.02 79.09L66.08 79.15Q66.87 78.96 68.23 79.67L68.30 79.74L68.31 79.75Q68.68 80.98 68.68 81.91L68.71 81.94L68.64 81.87Q68.95 84.57 67.59 85.99L67.64 86.04L67.61 86.01Q66.06 87.01 63.07 87.45L63.06 87.44L63.10 87.48Q61.05 87.50 60.29 87.12L60.28 87.10L60.37 87.19Q59.94 86.39 59.94 85.95L59.98 85.99L60.02 86.03Q59.67 81.33 63.85 79.48L63.99 79.61L63.84 79.46Q64.91 78.96 66.00 79.07Z"/><path d="M20 72 C188 53,164 13,340 79" stroke="#e589b7" fill="none"/><path d="M7 115 C181 134,159 49,339 25" stroke="#edce72" fill="none"/><path d="M13 44 C161 99,163 119,338 102" stroke="#7792e3" fill="none"/><path d="M11 28 C166 17,177 51,336 37" stroke="#aa74e0" fill="none"/><path d="M16 95 C175 139,180 44,340 3" stroke="#c4de77" fill="none"/><path d="M17 111 C181 28,181 107,331 54" stroke="#e3a568" fill="none"/><path d="M7 123 C187 16,165 81,336 10" stroke="#43e493" fill="none"/><path d="M11 123 C160 80,159 1,340 45" stroke="#ecec82" fill="none"/><path d="M18 51 C188 49,178 128,331 99" stroke="#58e3e3" fill="none"/><path d="M3 18 C164 121,180 92,335 57" stroke="#58e37b" fill="none"/><path d="M1 116 C166 134,187 95,323 90" stroke="#e93ee9" fill="none"/><path fill="#47d1ae" d="M268.69 67.70L268.78 67.79L268.64 67.65Q264.08 67.65 261.47 66.13L261.53 66.19L261.51 66.18Q265.22 64.33 272.18 58.30L272.03 58.14L272.02 58.14Q273.08 57.89 274.93 57.02L275.05 57.14L274.90 57.00Q273.13 65.61 272.97 74.69L272.92 74.65L272.91 74.64Q272.71 83.68 274.23 92.38L274.21 92.36L274.32 92.46Q271.82 91.33 268.78 91.17L268.84 91.23L268.90 91.29Q268.66 85.29 268.66 79.47L268.61 79.41L268.61 79.42Q268.64 73.57 268.69 67.70ZM268.25 71.01L268.14 91.73L268.09 91.67Q269.91 91.76 271.27 92.03L271.32 92.08L271.28 92.04Q271.46 93.10 271.74 95.05L271.71 95.03L271.64 94.96Q275.66 95.66 279.14 98.87L279.13 98.86L279.23 98.96Q275.76 88.85 275.71 78.19L275.63 78.11L275.72 78.20Q275.53 67.47 278.14 57.14L278.03 57.03L278.06 57.05Q277.32 57.67 275.03 59.24L275.17 59.38L275.15 59.36Q275.44 58.30 275.88 56.12L275.85 56.09L275.76 56.00Q273.86 57.09 271.79 57.63L271.86 57.71L271.89 57.73Q266.35 62.69 260.20 65.95L260.37 66.12L260.20 65.95Q262.27 67.58 265.64 68.07L265.76 68.19L265.67 68.10Q264.78 68.90 262.93 70.42L262.87 70.36L262.97 70.46Q265.00 70.91 268.15 70.91L268.21 70.97Z"/><path d="M20 26 C155 86,187 31,329 96" stroke="#db8c3d" fill="none"/><path d="M10 96 C162 43,173 133,323 133" stroke="#e1964b" fill="none"/><path d="M6 24 C176 8,183 1,329 132" stroke="#4f4fdd" fill="none"/><path d="M5 101 C179 47,188 22,330 125" stroke="#e3683f" fill="none"/><path d="M9 45 C172 3,173 23,334 60" stroke="#d24bb0" fill="none"/><path d="M11 45 C163 88,152 57,325 139" stroke="#eb7fb5" fill="none"/><path d="M9 12 C151 32,154 81,331 90" stroke="#31e6b9" fill="none"/><path d="M3 79 C182 94,188 119,334 92" stroke="#ce82e8" fill="none"/><path d="M18 83 C161 70,183 115,335 36" stroke="#df43df" fill="none"/><path d="M18 100 C153 66,180 131,327 124" stroke="#6c46db" fill="none"/><path d="M12 85 C177 35,172 76,341 105" stroke="#6584e0" fill="none"/><path fill="#70dfc4" d="M199.81 75.95L199.78 75.92L199.84 75.99Q197.20 76.01 195.46 77.91L195.37 77.82L195.45 77.90Q193.61 79.70 193.39 82.42L193.51 82.54L193.49 82.53Q193.18 85.53 194.92 86.97L195.03 87.08L194.92 86.97Q196.70 88.45 199.74 88.34L199.82 88.42L199.68 88.28Q203.02 88.09 204.38 86.73L204.45 86.79L204.32 86.66Q205.79 84.59 205.62 81.98L205.80 82.16L205.81 82.17Q205.54 79.40 203.99 77.69L204.06 77.76L204.10 77.79Q202.36 75.89 199.75 75.89ZM199.76 62.47L199.84 62.55L199.78 62.49Q197.76 62.32 195.86 63.03L195.85 63.02L195.86 63.03Q194.07 64.23 194.39 66.89L194.42 66.91L194.40 66.90Q195.00 72.12 199.79 72.12L199.90 72.24L199.88 72.22Q201.99 72.37 203.41 70.74L203.50 70.83L203.51 70.84Q204.87 69.16 204.93 66.93L204.92 66.92L204.99 66.99Q205.09 64.49 204.06 63.62L203.94 63.50L204.01 63.56Q201.61 62.36 199.76 62.47ZM199.43 91.89L199.50 91.96L195.14 91.94L195.02 91.83Q192.89 91.87 190.98 90.62L191.02 90.66L190.89 90.52Q189.06 89.02 189.27 84.94L189.21 84.88L189.26 84.93Q189.89 75.11 195.05 73.70L195.00 73.65L195.06 73.70Q191.72 72.33 189.82 64.66L189.84 64.68L189.79 64.63Q189.42 62.74 189.53 61.59L189.47 61.53L189.44 61.50Q189.96 58.54 195.23 58.49L195.30 58.56L195.25 58.51Q201.16 58.26 203.22 58.54L203.23 58.54L203.25 58.56Q208.89 59.47 209.54 62.35L209.41 62.23L209.43 62.24Q209.55 63.07 209.55 63.61L209.54 63.60L209.53 63.59Q209.62 64.66 209.35 65.53L209.42 65.60L209.33 65.52Q208.57 71.66 204.38 73.84L204.25 73.70L204.33 73.78Q209.25 74.84 209.96 82.40L209.94 82.39L210.05 82.49Q210.08 82.74 210.13 84.59L210.00 84.46L210.00 84.45Q210.12 88.39 207.84 89.91L207.99 90.06L207.91 89.99Q205.98 91.26 199.46 91.92ZM202.70 95.21L202.71 95.22L207.48 95.32L207.37 95.21Q209.93 95.43 212.11 94.40L212.04 94.33L212.00 94.29Q213.67 93.29 213.78 90.63L213.81 90.66L213.79 90.64Q213.88 89.10 213.34 86.33L213.26 86.25L213.30 86.28Q212.06 79.72 209.07 77.05L208.94 76.93L208.71 76.42L208.52 76.13L208.29 75.73L208.18 75.62Q210.62 73.76 211.92 67.83L211.91 67.82L211.89 67.80Q211.92 67.29 212.03 66.10L212.00 66.06L211.94 66.00Q212.06 65.03 211.95 64.16L212.01 64.22L211.93 64.14Q211.76 62.12 210.07 61.42L210.05 61.40L210.19 61.48L209.92 61.32L209.93 61.33Q209.54 60.28 207.85 59.14L207.76 59.05L207.82 59.06L207.79 59.03Q205.11 58.19 199.29 57.92L199.23 57.86L199.19 57.82Q197.00 57.70 195.04 57.86L195.10 57.92L195.02 57.84Q194.01 58.02 192.16 58.24L191.97 58.05L192.15 58.23Q189.29 58.69 188.96 61.03L188.96 61.03L188.98 61.04Q188.84 61.67 188.90 62.81L188.91 62.83L188.92 62.83Q189.05 63.56 189.87 66.94L189.96 67.03L189.84 66.91Q191.12 71.66 193.62 73.57L193.50 73.45L193.65 73.60L193.70 73.65Q189.73 75.50 188.97 82.90L189.05 82.98L188.88 82.80Q188.69 86.05 188.69 87.35L188.68 87.34L188.66 87.32Q188.87 89.98 190.56 91.28L190.48 91.20L190.44 91.17Q190.60 91.27 190.98 91.54L191.08 91.64L190.94 91.50Q192.43 94.79 202.60 95.11ZM202.27 79.44L202.21 79.39L202.15 79.32Q203.58 79.34 204.83 79.99L204.76 79.92L204.81 79.97Q205.30 81.33 205.24 82.09L205.24 82.09L205.27 82.12Q205.35 82.58 205.35 83.02L205.30 82.97L205.21 82.87Q205.25 86.29 201.99 87.49L202.08 87.57L201.94 87.44Q200.81 87.88 199.66 87.72L199.65 87.70L199.74 87.80Q198.10 87.89 196.47 87.24L196.61 87.38L196.61 87.38Q196.15 86.38 196.26 84.97L196.29 85.00L196.27 84.98Q196.40 82.61 198.12 80.87L198.10 80.85L198.17 80.92Q199.93 79.23 202.22 79.39ZM202.60 65.91L202.42 65.73L202.51 65.82Q203.68 65.68 204.44 65.90L204.38 65.84L204.33 66.93L204.36 66.97Q204.36 68.97 203.05 70.41L203.10 70.46L203.10 70.46Q201.76 71.86 199.80 71.59L199.89 71.68L199.81 71.60Q198.44 71.64 197.84 71.32L197.81 71.29L197.77 71.25Q197.79 70.94 197.63 69.96L197.70 70.04L197.64 69.97Q197.26 67.96 199.00 66.77L198.96 66.73L198.98 66.75Q200.53 65.80 202.55 65.85Z"/><path d="M15 59 C184 69,170 75,333 113" stroke="#e7b27d" fill="none"/><path d="M11 23 C155 52,164 66,333 126" stroke="#70df8c" fill="none"/><path d="M2 94 C163 129,163 127,340 10" stroke="#8564e6" fill="none"/><path d="M12 37 C153 116,176 54,322 63" stroke="#e6e63b" fill="none"/><path d="M1 121 C188 8,167 99,337 35" stroke="#53de53" fill="none"/><path d="M13 12 C188 88,184 129,338 21" stroke="#bfde62" fill="none"/><path d="M9 113 C162 95,168 84,329 86" stroke="#7f5ce9" fill="none"/><path d="M1 103 C153 67,151 84,328 82" stroke="#eb6aeb" fill="none"/><path d="M4 82 C153 137,172 114,325 4" stroke="#77e377" fill="none"/><path d="M5 62 C154 82,168 48,329 67" stroke="#ed8686" fill="none"/><path d="M2 20 C187 70,179 81,334 102" stroke="#90e9bc" fill="none"/><path d="M7 84 C181 102,167 99,337 103" stroke="#e07e97" fill="none"/><path d="M17 138 C184 135,153 46,335 49" stroke="#8ce236" fill="none"/><path d="M20 42 C161 49,176 67,329 116" stroke="#44deb7" fill="none"/><path d="M18 36 C168 27,151 94,324 84" stroke="#d859b8" fill="none"/><path fill="#67dede" d="M131.89 62.30L131.86 62.28L129.77 62.58L129.78 62.58Q126.46 62.63 126.13 65.52L126.24 65.62L126.23 65.61Q125.99 66.52 126.05 67.93L126.10 67.99L126.18 68.07Q126.22 70.82 128.01 72.73L127.95 72.67L127.90 72.62Q129.78 74.60 132.50 74.38L132.48 74.37L132.54 74.42Q135.46 74.19 136.55 72.89L136.45 72.79L136.50 72.84Q138.06 71.57 138.44 68.36L138.44 68.36L138.44 68.36Q138.78 65.11 136.98 63.91L136.93 63.86L136.90 63.83Q135.78 62.82 131.97 62.38ZM140.59 75.57L140.50 75.48L138.81 78.90L138.71 78.80Q134.84 85.64 129.46 91.46L129.57 91.58L129.49 91.50Q127.19 91.75 123.33 92.89L123.33 92.89L123.21 92.78Q130.84 83.82 135.36 76.97L135.41 77.03L135.49 77.10Q133.89 77.90 131.55 78.01L131.63 78.09L131.66 78.11Q127.33 78.30 125.15 75.47L125.09 75.40L125.14 75.45Q123.35 73.13 121.78 66.60L121.81 66.63L121.87 66.70Q121.87 66.04 121.65 64.71L121.64 64.69L121.67 64.72Q121.34 63.28 121.34 62.63L121.42 62.71L121.42 62.71Q121.45 60.18 122.97 59.31L122.93 59.26L122.95 59.29Q124.73 58.24 127.39 58.24L127.30 58.15L127.31 58.15Q131.95 58.23 131.95 58.23L131.90 58.17L131.80 58.08Q134.93 58.16 136.72 58.43L136.70 58.41L136.74 58.45Q139.86 58.91 141.17 59.61L141.05 59.49L141.13 59.57Q143.13 60.71 143.41 63.21L143.31 63.11L143.39 63.20Q143.44 63.57 143.17 67.38L143.06 67.27L143.09 67.30Q142.45 70.25 142.13 71.45L142.20 71.52L142.23 71.55Q141.66 73.54 140.57 75.55ZM143.29 78.98L143.27 78.96L143.29 78.98Q144.79 75.90 145.55 69.76L145.38 69.59L145.44 69.65Q145.92 66.59 145.86 65.34L145.79 65.27L145.79 65.27Q145.70 62.56 144.01 61.26L144.11 61.36L143.52 61.04L143.71 61.23Q143.19 60.00 141.88 59.08L142.03 59.22L141.93 59.12Q138.75 57.79 131.90 57.57L131.85 57.52L131.87 57.55Q130.45 57.49 126.97 57.49L126.92 57.44L126.89 57.41Q124.38 57.40 122.26 58.38L122.43 58.55L122.38 58.50Q120.65 59.54 120.76 62.15L120.89 62.28L120.88 62.28Q121.17 63.60 121.44 66.48L121.39 66.43L121.28 66.32Q122.29 70.21 122.67 71.41L122.67 71.40L122.65 71.39Q123.50 74.08 124.86 75.93L124.73 75.80L124.70 75.78Q125.23 76.42 125.78 76.96L125.70 76.88L125.79 76.98Q126.08 77.53 127.00 78.84L126.95 78.78L127.07 78.91Q129.15 80.82 131.92 81.10L131.88 81.05L131.96 81.13Q129.21 84.91 126.99 87.63L127.05 87.70L121.76 93.83L121.86 93.93Q125.11 92.88 127.45 92.40L127.27 92.22L127.45 92.39Q126.28 93.56 124.05 96.01L124.11 96.07L124.01 95.97Q128.54 94.79 133.00 94.73L132.90 94.64L132.88 94.62Q136.13 90.85 142.33 80.52L142.39 80.57L142.41 80.70L142.39 80.69Q142.82 79.70 143.31 79.00ZM134.63 65.69L134.60 65.66L134.69 65.75Q135.62 65.65 136.28 65.82L136.21 65.75L136.25 65.79Q137.05 65.83 137.59 65.99L137.72 66.12L137.74 66.14Q137.88 66.66 137.99 67.26L137.95 67.22L137.90 67.17Q137.98 67.74 137.82 68.29L137.86 68.32L137.86 68.32Q137.78 70.75 136.09 72.32L136.07 72.30L136.10 72.33Q134.71 73.76 132.37 73.71L132.49 73.84L132.46 73.80Q131.89 73.83 129.71 73.39L129.59 73.27L129.60 73.28Q129.38 72.14 129.38 71.10L129.29 71.01L129.27 70.99Q129.34 70.79 129.34 70.46L129.17 70.29L129.29 70.41Q129.21 67.18 132.47 66.03L132.60 66.16L132.62 66.18Q133.43 65.69 134.63 65.69Z"/></svg>