<svg xmlns="http://www.w3.org/2000/svg" width="342" height="140" viewBox="0,0,342,140"><path d="M18 74 C184 53,163 70,323 53" stroke="#70e4c7" fill="none"/><path d="M16 5 C151 50,161 76,341 57" stroke="#9d84eb" fill="none"/><path d="M19 91 C174 100,172 61,333 37" stroke="#ec7d99" fill="none"/><path d="M8 118 C168 58,173 125,328 67" stroke="#cd7ce8" fill="none"/><path d="M21 66 C178 86,159 71,340 108" stroke="#7777e8" fill="none"/><path d="M13 36 C152 49,166 90,333 13" stroke="#6dedcd" fill="none"/><path d="M13 37 C187 101,185 64,340 20" stroke="#7892e2" fill="none"/><path d="M2 89 C182 12,161 101,332 48" stroke="#d1ed7c" fill="none"/><path d="M16 32 C156 34,162 61,332 131" stroke="#7edd5f" fill="none"/><path d="M13 47 C190 14,151 124,332 103" stroke="#70aae4" fill="none"/><path d="M6 19 C185 6,179 92,325 109" stroke="#77e8e8" fill="none"/><path d="M18 20 C165 94,171 79,328 115" stroke="#e77d98" fill="none"/><path fill="#55d755" d="M69.22 73.02L69.26 73.05L69.30 73.10Q70.38 73.03 72.39 72.81L72.55 72.97L72.38 72.80Q72.46 73.86 72.46 74.78L72.34 74.66L72.48 76.60L72.50 76.63Q71.29 76.61 70.10 76.72L69.97 76.59L70.09 76.72Q68.79 76.66 67.59 76.61L67.54 76.56L67.64 76.66Q63.50 85.41 58.61 91.99L58.68 92.06L58.56 91.94Q54.97 92.86 53.12 93.73L53.28 93.90L53.14 93.75Q59.07 85.65 63.42 76.68L63.50 76.75L59.74 76.75L59.63 76.64Q59.59 74.70 59.43 72.79L59.61 72.98L59.60 72.97Q62.27 73.13 65.20 73.13L65.17 73.10L67.89 67.82L67.96 67.89Q69.22 65.03 70.97 62.74L70.95 62.72L71.00 62.78Q68.77 62.99 66.48 62.99L66.56 63.07L66.52 63.02Q57.90 63.11 52.52 59.95L52.54 59.98L51.47 57.39L51.52 57.44Q51.07 56.28 50.53 55.03L50.55 55.05L50.43 54.93Q56.65 58.70 64.81 59.03L64.79 59.02L64.85 59.07Q72.09 59.30 79.43 56.47L79.49 56.53L79.52 56.55Q79.34 57.25 78.63 58.50L78.51 58.38L78.54 58.40Q73.44 65.27 69.36 73.16ZM80.88 60.41L80.81 60.35L82.16 57.40L82.17 57.41Q80.95 58.26 78.56 59.30L78.48 59.22L78.80 58.83L78.78 58.81Q79.01 58.65 79.17 58.49L79.01 58.34L79.15 58.47Q79.55 57.35 80.58 55.44L80.72 55.59L80.64 55.50Q73.09 58.83 64.88 58.50L64.75 58.38L64.80 58.43Q56.24 58.07 49.44 53.83L49.40 53.79L49.49 53.88Q51.02 56.61 52.22 60.42L52.07 60.27L52.04 60.24Q53.74 61.29 54.88 61.72L54.75 61.59L54.77 61.61Q55.08 62.19 55.73 64.86L55.70 64.83L55.79 64.92Q60.15 66.56 68.04 66.34L68.06 66.36L68.18 66.48Q67.74 67.29 64.91 72.67L64.84 72.60L64.90 72.67Q61.97 72.67 59.14 72.40L59.10 72.36L59.03 72.28Q59.16 73.50 59.16 74.75L59.11 74.70L59.26 77.30L61.55 77.20L61.65 79.31L61.59 79.25Q56.02 89.84 52.05 94.95L51.98 94.87L51.95 94.85Q54.38 93.90 56.72 93.20L56.57 93.05L56.65 93.13Q55.61 94.37 53.65 96.82L53.73 96.90L53.61 96.78Q58.27 95.35 61.75 95.02L61.78 95.05L61.73 95.01Q65.97 89.67 70.43 79.98L70.27 79.83L75.16 80.10L75.25 80.19Q75.19 78.93 75.19 77.63L75.13 77.57L75.04 74.92L75.14 75.02Q74.83 75.09 74.04 75.15L73.89 75.00L74.03 75.13Q73.23 75.17 72.84 75.17L72.82 75.15L72.80 75.13Q72.76 74.92 72.81 74.71L72.76 74.65L72.88 74.39L72.87 74.38Q76.48 67.06 80.89 60.43Z"/><path d="M16 13 C171 98,160 36,341 1" stroke="#9172ed" fill="none"/><path d="M9 72 C188 44,188 44,325 107" stroke="#5a5ae1" fill="none"/><path d="M18 11 C178 121,166 118,340 127" stroke="#e65050" fill="none"/><path d="M7 11 C157 54,169 8,338 49" stroke="#b149d4" fill="none"/><path fill="#a560eb" d="M267.78 75.92L267.81 75.95L267.75 75.89Q265.11 75.70 263.35 77.74L263.43 77.83L263.35 77.75Q261.50 79.70 261.23 82.42L261.27 82.46L261.32 82.52Q261.06 85.51 262.61 86.90L262.62 86.92L262.45 86.74Q264.07 88.20 267.06 88.04L267.06 88.04L267.16 88.14Q270.05 87.82 271.63 86.84L271.73 86.94L271.67 86.88Q273.26 85.26 273.26 83.03L273.37 83.15L273.18 82.96Q273.19 82.42 273.08 81.87L273.15 81.95L273.17 81.96Q273.23 79.52 271.65 77.59L271.78 77.72L271.66 77.60Q270.12 75.71 267.73 75.87ZM267.09 91.71L267.06 91.68L267.21 91.83Q260.86 91.74 258.85 90.65L258.81 90.61L258.94 90.74Q257.32 89.50 257.04 87.05L257.07 87.07L257.15 87.15Q257.02 86.10 257.07 85.07L257.06 85.06L257.10 85.09Q257.25 83.66 257.25 83.01L257.20 82.97L257.31 83.07Q257.85 78.88 258.07 77.90L258.20 78.04L258.21 78.04Q258.89 75.30 260.09 73.29L259.99 73.19L259.97 73.17Q263.89 67.03 272.37 57.95L272.20 57.78L272.26 57.84Q276.15 57.48 279.30 56.34L279.36 56.39L279.26 56.30Q269.45 66.93 264.88 72.97L264.86 72.95L264.82 72.91Q266.30 72.27 268.15 72.27L268.19 72.31L268.16 72.28Q272.82 72.21 275.00 74.98L275.14 75.13L275.15 75.13Q276.98 77.40 277.46 82.45L277.37 82.36L277.45 82.44Q277.65 83.57 277.65 84.44L277.52 84.30L277.67 84.45Q277.58 88.82 274.42 90.34L274.38 90.30L274.51 90.43Q272.69 91.22 267.14 91.76ZM270.30 95.09L270.31 95.10L270.45 95.24Q272.16 95.04 274.99 95.15L275.13 95.29L274.98 95.14Q277.50 95.43 279.73 94.39L279.63 94.30L279.56 94.23Q281.29 93.24 281.29 90.69L281.28 90.68L281.31 90.70Q281.20 89.89 280.96 88.48L280.95 88.47L281.06 88.57Q280.64 86.99 280.64 86.34L280.71 86.40L280.70 86.40Q279.50 79.71 277.22 76.99L277.17 76.94L277.28 77.05Q277.13 76.85 276.92 76.52L276.83 76.44L276.42 76.13L276.29 76.06L276.41 76.17Q275.91 75.46 275.04 74.10L275.04 74.10L274.87 73.93Q273.61 72.61 270.78 71.96L270.89 72.07L270.85 72.03Q272.55 69.71 276.79 64.43L276.77 64.41L282.77 56.81L282.81 56.85Q280.56 58.08 277.13 59.17L277.21 59.24L277.20 59.23Q278.56 57.88 281.12 55.05L281.11 55.05L280.98 54.91Q277.64 56.53 272.10 57.34L272.08 57.32L271.99 57.24Q264.01 65.85 259.77 72.92L259.71 72.86L259.64 72.79Q257.54 76.45 256.72 85.37L256.61 85.26L256.63 85.27Q256.50 86.07 256.61 87.43L256.66 87.48L256.79 87.61Q256.90 90.11 258.47 91.42L258.31 91.25L258.33 91.28Q258.93 91.55 258.88 91.60L258.77 91.49L258.89 91.62Q259.32 92.81 260.46 93.41L260.64 93.58L260.48 93.42Q262.71 94.56 265.48 94.83L265.40 94.75L265.42 94.78Q265.38 94.73 270.38 95.16ZM270.09 79.16L269.97 79.04L270.15 79.21Q270.82 78.91 272.18 79.61L272.32 79.76L272.26 79.70Q272.66 80.96 272.66 81.89L272.71 81.94L272.75 81.98Q273.01 84.64 271.65 86.05L271.57 85.96L271.66 86.06Q270.05 87.00 267.05 87.43L267.07 87.45L267.15 87.53Q265.02 87.47 264.26 87.09L264.34 87.17L264.31 87.14Q264.00 86.45 264.00 86.01L264.07 86.08L263.98 85.99Q263.71 81.37 267.90 79.52L267.82 79.44L267.87 79.50Q269.05 79.10 270.14 79.21Z"/><path d="M20 96 C174 48,169 25,325 96" stroke="#ebeb79" fill="none"/><path d="M7 93 C185 20,183 135,328 31" stroke="#ea47ea" fill="none"/><path d="M7 101 C156 86,183 8,332 134" stroke="#ca82e2" fill="none"/><path d="M20 101 C165 98,157 5,339 113" stroke="#7251d6" fill="none"/><path d="M5 32 C159 113,184 90,338 113" stroke="#5252df" fill="none"/><path d="M14 3 C173 29,187 83,325 69" stroke="#6f6fdc" fill="none"/><path d="M14 81 C176 51,177 93,325 75" stroke="#d8b95e" fill="none"/><path fill="#d5ef84" d="M199.91 62.32L200.01 62.42L197.60 62.41L197.69 62.50Q194.48 62.66 194.16 65.54L194.21 65.60L194.18 65.56Q194.02 66.55 194.08 67.96L194.01 67.89L194.07 67.96Q194.15 70.75 195.94 72.66L195.89 72.60L195.86 72.58Q197.72 74.54 200.44 74.33L200.50 74.38L200.53 74.42Q203.49 74.22 204.57 72.91L204.52 72.85L204.45 72.79Q206.02 71.53 206.40 68.32L206.33 68.25L206.36 68.28Q206.82 65.15 205.02 63.95L204.99 63.92L204.96 63.89Q203.81 62.84 200.00 62.41ZM208.47 75.45L208.52 75.50L206.65 78.75L206.73 78.82Q202.80 85.61 197.42 91.43L197.49 91.49L197.55 91.56Q195.04 91.60 191.18 92.75L191.23 92.80L191.30 92.87Q198.97 83.95 203.49 77.10L203.43 77.05L203.48 77.09Q201.95 77.96 199.61 78.07L199.56 78.02L199.55 78.01Q195.35 78.32 193.18 75.49L193.21 75.52L193.11 75.42Q191.38 73.16 189.81 66.63L189.78 66.60L189.74 66.56Q189.88 66.05 189.66 64.71L189.61 64.67L189.51 64.56Q189.36 63.30 189.36 62.65L189.31 62.60L189.35 62.64Q189.27 60.00 190.79 59.13L190.93 59.27L190.94 59.28Q192.62 58.13 195.28 58.13L195.24 58.08L195.31 58.15Q199.80 58.07 199.80 58.07L199.78 58.05L199.86 58.14Q202.96 58.19 204.76 58.46L204.81 58.52L204.67 58.38Q207.82 58.86 209.12 59.57L209.10 59.55L209.11 59.56Q211.09 60.67 211.36 63.17L211.31 63.12L211.35 63.15Q211.41 63.54 211.13 67.34L211.17 67.38L211.13 67.34Q210.45 70.25 210.12 71.44L210.21 71.53L210.19 71.51Q209.69 73.57 208.60 75.58ZM211.24 78.93L211.25 78.94L211.26 78.94Q212.65 75.76 213.41 69.62L213.37 69.58L213.37 69.58Q213.86 66.54 213.81 65.29L213.79 65.27L213.80 65.28Q213.77 62.64 212.09 61.34L212.08 61.33L211.56 61.08L211.63 61.16Q211.31 60.12 210.00 59.20L209.94 59.13L210.00 59.19Q206.60 57.64 199.74 57.42L199.89 57.57L199.78 57.46Q198.42 57.46 194.94 57.46L194.97 57.49L195.07 57.59Q192.47 57.49 190.35 58.47L190.34 58.46L190.44 58.56Q188.70 59.60 188.81 62.21L188.90 62.30L188.80 62.20Q189.06 63.49 189.33 66.37L189.37 66.41L189.29 66.33Q190.33 70.25 190.71 71.44L190.66 71.40L190.60 71.33Q191.38 73.97 192.74 75.82L192.81 75.88L192.83 75.90Q193.19 76.37 193.73 76.92L193.78 76.97L193.73 76.92Q194.12 77.58 195.05 78.88L195.05 78.89L194.98 78.82Q197.13 80.81 199.90 81.08L199.90 81.08L199.93 81.11Q197.25 84.95 195.02 87.67L195.00 87.65L189.78 93.85L189.83 93.90Q192.97 92.74 195.30 92.25L195.42 92.36L195.42 92.36Q194.18 93.46 191.95 95.91L192.08 96.04L192.12 96.08Q196.44 94.69 200.90 94.63L200.80 94.54L200.91 94.65Q204.25 90.97 210.45 80.64L210.51 80.69L210.45 80.75L210.36 80.65Q210.75 79.63 211.24 78.92ZM202.62 65.68L202.60 65.66L202.64 65.70Q203.57 65.60 204.22 65.76L204.17 65.71L204.16 65.70Q205.22 66.00 205.77 66.17L205.69 66.08L205.60 66.00Q205.80 66.58 205.91 67.18L205.94 67.21L206.03 67.30Q206.01 67.77 205.85 68.32L205.84 68.31L205.96 68.43Q205.88 70.85 204.20 72.43L204.09 72.32L204.15 72.38Q202.81 73.87 200.47 73.81L200.52 73.86L200.47 73.81Q199.83 73.77 197.66 73.34L197.67 73.35L197.64 73.32Q197.41 72.17 197.41 71.13L197.43 71.15L197.45 71.18Q197.20 70.65 197.20 70.33L197.22 70.34L197.21 70.33Q197.33 67.30 200.60 66.16L200.57 66.14L200.55 66.11Q201.43 65.69 202.63 65.69Z"/><path d="M11 46 C154 113,183 48,337 106" stroke="#e7e778" fill="none"/><path d="M16 121 C161 122,189 44,338 134" stroke="#cbeb6a" fill="none"/><path d="M4 42 C163 117,180 15,339 139" stroke="#ead289" fill="none"/><path d="M2 64 C155 4,162 132,325 67" stroke="#79e0e0" fill="none"/><path d="M19 62 C176 63,153 113,331 23" stroke="#ec91bf" fill="none"/><path d="M10 56 C185 2,153 51,325 75" stroke="#e4859d" fill="none"/><path d="M14 59 C158 48,183 121,328 12" stroke="#65bedc" fill="none"/><path d="M17 53 C166 26,163 27,331 41" stroke="#5ac3e6" fill="none"/><path d="M20 39 C190 45,190 55,336 108" stroke="#5be05b" fill="none"/><path d="M6 119 C159 95,156 28,323 45" stroke="#d54d6f" fill="none"/><path d="M19 137 C172 77,177 7,322 100" stroke="#79ebeb" fill="none"/><path d="M3 24 C170 124,163 63,324 108" stroke="#9858d9" fill="none"/><path d="M13 104 C187 105,162 82,323 75" stroke="#e27daf" fill="none"/><path d="M5 109 C170 53,158 75,340 9" stroke="#5ce4c2" fill="none"/><path d="M10 129 C162 11,191 57,332 46" stroke="#3a3ae7" fill="none"/><path d="M10 57 C156 110,168 74,332 128" stroke="#40dd40" fill="none"/><path fill="#5f80e1" d="M127.99 86.93L128.15 87.08L128.06 87.00Q129.68 88.29 131.69 88.07L131.82 88.20L131.65 88.03Q135.92 88.38 136.84 83.60L136.88 83.63L136.92 83.67Q137.78 79.15 137.78 74.31L137.70 74.23L137.65 70.48L137.75 70.58Q137.74 68.77 137.25 66.98L137.16 66.89L137.29 67.02Q135.53 70.32 132.70 77.11L132.66 77.07L132.67 77.09Q129.90 83.94 128.16 87.09ZM135.19 63.39L135.17 63.38L135.36 63.57Q133.64 62.34 131.74 62.34L131.73 62.33L131.80 62.40Q129.53 62.04 127.96 63.34L128.05 63.44L128.12 63.50Q126.51 64.78 126.23 66.90L126.27 66.94L126.28 66.94Q125.79 68.90 125.74 71.02L125.71 71.00L125.72 71.01Q125.60 70.89 125.60 74.97L125.58 74.95L125.63 74.99Q125.74 78.47 126.39 83.64L126.20 83.45L126.35 83.60Q128.99 76.72 135.25 63.45ZM137.58 90.42L137.50 90.35L137.42 90.26Q134.99 91.64 131.67 91.64L131.58 91.55L129.36 91.67L129.29 91.59Q124.72 91.65 123.09 89.20L122.99 89.11L123.08 89.19Q122.03 86.19 121.92 82.00L121.78 81.85L121.82 81.89Q121.85 79.48 121.74 74.53L121.67 74.46L121.64 74.43Q121.52 72.62 121.30 68.27L121.37 68.34L121.42 68.39Q121.21 65.03 121.65 62.20L121.65 62.20L121.64 62.19Q122.38 58.04 128.58 57.72L128.64 57.77L128.73 57.86Q129.73 57.72 131.63 57.77L131.61 57.75L131.70 57.84Q139.68 57.94 141.20 62.88L141.29 62.97L141.16 62.84Q142.09 65.62 142.04 68.29L141.98 68.23L141.97 68.22Q141.92 75.40 141.81 77.14L141.92 77.25L141.91 77.24Q141.59 82.63 141.16 84.48L141.06 84.39L141.23 84.56Q140.30 89.01 137.58 90.43ZM144.54 89.99L144.56 90.00L144.63 90.08Q144.92 86.07 144.87 83.52L144.76 83.41L144.79 76.97L144.75 76.93Q144.63 72.62 143.87 64.73L143.86 64.72L143.90 64.77Q143.11 62.13 141.26 61.04L141.30 61.08L141.21 60.99Q139.01 57.37 131.61 57.15L131.70 57.24L131.56 57.10Q130.42 57.16 128.52 57.21L128.51 57.21L128.37 57.07Q122.07 57.34 121.36 61.80L121.23 61.67L121.37 61.81Q120.68 64.98 120.84 67.98L120.85 67.98L120.89 68.03Q121.41 74.31 121.35 79.09L121.32 79.06L121.26 79.00Q121.38 84.45 121.55 85.92L121.45 85.82L121.49 85.86Q121.95 90.19 124.13 91.33L124.08 91.28L124.23 91.44Q126.36 94.59 132.07 94.97L132.02 94.92L131.95 94.85Q137.05 95.17 137.98 95.12L138.08 95.22L138.11 95.25Q142.12 94.96 143.75 92.68L143.65 92.58L143.67 92.59Q144.38 91.62 144.49 89.94ZM132.20 87.49L132.37 87.66L132.31 87.60Q133.27 85.52 134.80 81.66L134.74 81.60L137.19 75.56L137.27 75.65Q137.25 78.03 136.71 82.81L136.59 82.69L136.66 82.76Q135.65 86.80 132.22 87.51ZM129.41 69.96L129.40 69.96L129.49 70.05Q130.01 67.35 130.99 66.54L131.13 66.68L131.10 66.65Q131.72 66.02 133.57 65.75L133.53 65.71L133.64 65.82Q131.05 70.89 128.38 77.53L128.55 77.69L128.56 77.71Q128.47 73.76 129.45 70.01Z"/><path d="M20 86 C170 103,154 4,334 95" stroke="#e2e254" fill="none"/></svg>