<svg xmlns="http://www.w3.org/2000/svg" width="342" height="140" viewBox="0,0,342,140"><path d="M13 23 C168 73,170 106,322 15" stroke="#7474e1" fill="none"/><path fill="#e8ca72" d="M69.71 73.98L69.65 73.92L69.59 73.86Q71.05 73.88 73.59 73.60L73.73 73.74L73.70 73.71Q73.48 74.72 73.48 75.89L73.57 75.98L73.47 78.15L73.58 78.26Q71.97 78.16 70.46 78.30L70.50 78.34L70.52 78.35Q68.96 78.38 67.45 78.31L67.48 78.34L67.43 78.29Q62.34 89.46 56.16 97.77L56.22 97.83L56.15 97.77Q51.60 98.92 49.27 100.02L49.23 99.98L49.30 100.05Q56.70 89.74 62.20 78.41L62.14 78.36L57.46 78.41L57.42 78.37Q57.55 76.10 57.34 73.69L57.26 73.61L57.26 73.61Q60.65 73.84 64.36 73.84L64.35 73.84L67.80 67.20L67.83 67.22Q69.66 63.83 71.85 60.95L71.75 60.85L71.85 60.95Q69.07 61.25 66.19 61.25L66.07 61.13L66.07 61.14Q55.16 61.21 48.36 57.22L48.37 57.24L47.12 54.07L47.22 54.17Q46.55 52.60 45.86 51.02L45.94 51.09L45.99 51.15Q53.81 55.88 64.11 56.29L64.11 56.29L64.00 56.18Q73.32 56.64 82.59 53.07L82.52 53.00L82.66 53.14Q82.16 53.75 81.27 55.32L81.27 55.33L81.36 55.41Q74.75 63.91 69.60 73.87ZM84.27 57.92L84.16 57.81L86.05 54.26L86.02 54.24Q84.20 55.03 81.18 56.33L81.28 56.43L81.64 55.90L81.60 55.86Q81.81 55.59 82.02 55.39L81.93 55.30L82.01 55.37Q82.74 54.18 84.04 51.78L83.90 51.64L84.06 51.80Q74.35 55.82 63.98 55.41L64.09 55.51L64.11 55.54Q53.24 55.04 44.66 49.68L44.66 49.68L44.63 49.65Q46.53 53.06 48.04 57.87L47.97 57.80L47.99 57.82Q50.01 59.01 51.45 59.56L51.37 59.48L51.37 59.48Q51.74 60.20 52.57 63.56L52.51 63.51L52.55 63.55Q58.11 65.67 68.07 65.40L68.07 65.40L68.17 65.50Q67.52 66.43 63.95 73.23L64.03 73.30L64.02 73.30Q60.34 73.33 56.77 72.98L56.70 72.91L56.75 72.96Q56.83 74.42 56.83 75.99L56.87 76.04L56.97 79.22L59.81 79.04L59.88 81.65L59.95 81.72Q52.82 94.99 47.81 101.44L47.80 101.43L47.82 101.45Q50.75 100.13 53.71 99.24L53.56 99.09L53.61 99.14Q52.47 100.88 49.99 103.97L50.02 104.00L49.86 103.84Q55.70 101.99 60.09 101.57L60.09 101.57L59.94 101.42Q65.30 94.69 70.93 82.47L71.00 82.54L77.19 82.90L77.18 82.88Q77.02 81.22 77.02 79.57L76.92 79.47L76.93 76.25L76.92 76.24Q76.46 76.27 75.47 76.33L75.58 76.44L75.45 76.32Q74.52 76.45 74.04 76.45L74.12 76.53L74.01 76.42Q74.00 76.21 74.07 75.93L74.21 76.07L74.13 75.51L74.06 75.44Q78.74 66.32 84.30 57.94Z"/><path d="M16 51 C183 83,169 16,324 37" stroke="#ebc860" fill="none"/><path d="M15 49 C175 61,183 136,322 116" stroke="#e38be3" fill="none"/><path d="M9 117 C163 20,158 108,330 4" stroke="#ca83e1" fill="none"/><path d="M5 40 C178 134,192 45,333 44" stroke="#72ed91" fill="none"/><path d="M14 86 C175 113,191 71,340 96" stroke="#de9177" fill="none"/><path d="M4 13 C168 26,165 7,339 60" stroke="#e15050" fill="none"/><path d="M8 99 C172 18,164 122,332 79" stroke="#dcc274" fill="none"/><path d="M19 132 C152 2,160 86,334 32" stroke="#93e5e5" fill="none"/><path d="M12 132 C152 56,172 51,323 56" stroke="#55d796" fill="none"/><path d="M19 131 C186 18,156 13,325 5" stroke="#b8e433" fill="none"/><path d="M7 12 C173 117,150 134,334 9" stroke="#41dc41" fill="none"/><path fill="#89a3ef" d="M199.85 67.12L199.83 67.10L199.93 67.20Q193.99 67.03 190.69 65.10L190.69 65.10L190.84 65.25Q195.22 62.63 204.01 55.01L204.14 55.13L204.04 55.03Q205.43 54.78 207.76 53.68L207.83 53.75L207.76 53.67Q205.41 64.44 205.20 75.91L205.19 75.89L205.23 75.93Q204.93 87.31 206.86 98.30L206.93 98.37L206.94 98.38Q203.88 97.03 200.03 96.83L200.02 96.81L200.00 96.80Q199.73 89.24 199.73 81.90L199.77 81.94L199.70 81.87Q199.83 74.58 199.90 67.17ZM199.11 71.12L199.25 97.56L199.13 97.43Q201.37 97.48 203.09 97.82L202.99 97.72L203.06 97.80Q203.30 99.14 203.65 101.61L203.53 101.49L203.51 101.47Q208.74 102.51 213.13 106.56L213.06 106.49L213.04 106.47Q208.65 93.70 208.58 80.25L208.51 80.18L208.58 80.24Q208.53 66.87 211.82 53.83L211.67 53.67L211.82 53.83Q210.71 54.43 207.83 56.42L207.90 56.50L207.96 56.55Q208.13 55.01 208.68 52.26L208.74 52.32L208.80 52.38Q206.31 53.66 203.70 54.35L203.73 54.38L203.68 54.33Q196.87 60.78 189.11 64.90L189.17 64.95L189.23 65.02Q191.68 66.91 195.94 67.53L196.01 67.60L195.96 67.56Q194.74 68.47 192.41 70.39L192.46 70.44L192.57 70.55Q195.23 71.22 199.21 71.22L199.13 71.14Z"/><path d="M14 86 C191 71,168 34,340 138" stroke="#e34949" fill="none"/><path d="M6 113 C169 10,157 44,321 3" stroke="#ecaa69" fill="none"/><path d="M14 119 C192 137,178 32,331 38" stroke="#a0ed87" fill="none"/><path d="M18 59 C180 67,170 35,334 93" stroke="#7fe07f" fill="none"/><path d="M6 34 C176 66,162 98,339 99" stroke="#53c3e8" fill="none"/><path d="M13 125 C182 136,159 59,324 101" stroke="#e88787" fill="none"/><path fill="#4ddf96" d="M262.00 91.48L261.96 91.44L261.95 91.43Q264.15 93.22 266.69 92.95L266.66 92.91L266.60 92.86Q271.96 93.27 273.13 87.23L273.13 87.23L273.03 87.13Q274.21 81.51 274.21 75.40L274.13 75.32L274.12 70.65L274.14 70.67Q274.18 68.44 273.56 66.17L273.64 66.25L273.54 66.15Q271.28 70.27 267.71 78.86L267.71 78.86L267.87 79.02Q264.27 87.57 262.07 91.55ZM270.99 61.68L271.11 61.79L271.03 61.72Q268.99 60.30 266.59 60.30L266.57 60.28L266.66 60.37Q263.84 59.95 261.85 61.60L262.01 61.76L261.94 61.69Q260.02 63.41 259.68 66.09L259.64 66.06L259.65 66.06Q258.93 68.43 258.86 71.11L258.85 71.09L258.94 71.19Q258.94 71.19 258.94 76.34L258.88 76.28L258.85 76.25Q258.98 80.64 259.81 87.16L259.80 87.16L259.69 87.04Q263.12 78.46 271.02 61.71ZM273.96 95.75L273.83 95.62L273.95 95.74Q270.78 97.38 266.59 97.38L266.52 97.31L263.60 97.33L263.59 97.33Q257.83 97.41 255.77 94.32L255.67 94.21L255.61 94.15Q254.26 90.33 254.12 85.04L254.11 85.03L254.11 85.03Q254.13 81.96 253.99 75.71L253.92 75.65L253.83 75.56Q253.91 73.51 253.64 68.02L253.66 68.03L253.64 68.02Q253.34 63.74 253.89 60.17L253.96 60.24L254.03 60.31Q254.78 54.88 262.61 54.46L262.78 54.64L262.61 54.47Q264.15 54.57 266.56 54.63L266.47 54.55L266.54 54.62Q276.71 54.83 278.63 61.08L278.56 61.01L278.63 61.08Q279.76 64.54 279.69 67.91L279.75 67.96L279.58 67.80Q279.47 76.82 279.34 79.02L279.46 79.14L279.43 79.11Q278.98 85.87 278.43 88.20L278.46 88.23L278.57 88.35Q277.34 93.92 273.91 95.70ZM282.80 95.25L282.77 95.22L282.85 95.31Q283.30 90.33 283.23 87.10L283.15 87.02L283.01 78.71L282.94 78.64Q282.85 73.27 281.89 63.31L281.97 63.39L281.83 63.25Q280.89 59.97 278.55 58.60L278.64 58.69L278.72 58.77Q275.73 53.99 266.39 53.71L266.42 53.75L266.43 53.75Q264.87 53.70 262.47 53.77L262.45 53.76L262.58 53.89Q254.29 53.90 253.40 59.53L253.45 59.58L253.51 59.65Q252.76 63.77 252.97 67.55L253.01 67.59L252.90 67.49Q253.51 75.36 253.44 81.41L253.55 81.52L253.55 81.53Q253.35 88.05 253.55 89.90L253.59 89.94L253.63 89.98Q254.29 95.52 257.04 96.96L257.09 97.01L257.08 97.00Q259.82 101.04 267.03 101.52L266.86 101.36L266.96 101.45Q273.50 101.95 274.66 101.88L274.67 101.88L274.52 101.74Q279.74 101.53 281.80 98.65L281.78 98.62L281.85 98.69Q282.64 97.36 282.78 95.23ZM267.36 92.25L267.30 92.18L267.30 92.18Q268.45 89.49 270.38 84.61L270.37 84.61L273.53 77.06L273.56 77.08Q273.42 79.97 272.73 86.01L272.77 86.05L272.80 86.08Q271.58 91.24 267.25 92.13ZM263.75 70.02L263.75 70.03L263.81 70.09Q264.48 66.70 265.72 65.67L265.83 65.79L265.87 65.83Q266.63 65.00 268.96 64.66L268.92 64.62L268.94 64.64Q265.77 71.15 262.40 79.53L262.57 79.69L262.43 79.56Q262.45 74.70 263.69 69.96Z"/><path d="M20 25 C180 89,172 84,332 55" stroke="#40dddd" fill="none"/><path d="M3 79 C168 101,164 119,331 123" stroke="#e4e475" fill="none"/><path d="M12 11 C154 134,177 55,338 47" stroke="#da4db7" fill="none"/><path d="M6 103 C160 120,182 120,341 84" stroke="#d26946" fill="none"/><path d="M10 122 C160 89,171 25,321 94" stroke="#3fe8e8" fill="none"/><path d="M10 50 C172 85,157 95,327 36" stroke="#af7be4" fill="none"/><path d="M7 118 C184 117,166 31,339 138" stroke="#7eec59" fill="none"/><path d="M5 45 C182 53,175 67,332 124" stroke="#64e23a" fill="none"/><path d="M2 63 C187 6,177 48,340 128" stroke="#76eeb2" fill="none"/><path fill="#61a5e9" d="M131.82 67.09L131.80 67.07L131.78 67.05Q126.14 67.18 122.85 65.26L122.71 65.12L122.85 65.26Q127.28 62.68 136.06 55.06L136.10 55.10L136.17 55.17Q137.47 54.82 139.80 53.72L139.81 53.73L139.65 53.57Q137.29 64.32 137.08 75.79L137.12 75.82L137.08 75.78Q136.86 87.24 138.79 98.23L138.84 98.28L138.76 98.20Q135.91 97.07 132.07 96.86L132.08 96.88L132.01 96.80Q131.79 89.31 131.79 81.96L131.78 81.95L131.82 81.99Q131.86 74.61 131.93 67.20ZM131.08 71.09L131.10 97.40L131.25 97.55Q133.42 97.53 135.14 97.87L135.13 97.86L135.07 97.80Q135.13 98.97 135.48 101.44L135.47 101.43L135.47 101.43Q140.71 102.48 145.10 106.53L145.04 106.47L145.16 106.59Q140.68 93.73 140.61 80.27L140.64 80.31L140.63 80.30Q140.35 66.70 143.65 53.65L143.77 53.78L143.63 53.63Q142.68 54.40 139.80 56.39L139.83 56.42L139.78 56.38Q140.19 55.07 140.74 52.32L140.69 52.27L140.81 52.39Q138.39 53.75 135.78 54.43L135.72 54.37L135.66 54.32Q128.87 60.77 121.11 64.89L121.21 64.99L121.25 65.03Q123.76 66.99 128.01 67.61L127.97 67.57L128.09 67.69Q126.82 68.54 124.48 70.46L124.53 70.51L124.57 70.55Q127.15 71.14 131.13 71.14L131.22 71.23Z"/><path d="M20 88 C178 53,184 49,327 13" stroke="#df76c4" fill="none"/><path d="M8 34 C158 30,189 14,329 86" stroke="#be4de4" fill="none"/><path d="M16 61 C179 77,162 32,327 110" stroke="#934cdb" fill="none"/><path d="M6 67 C176 99,152 130,335 87" stroke="#e769e7" fill="none"/><path d="M18 24 C184 46,185 57,327 123" stroke="#8b6ee2" fill="none"/><path d="M4 53 C156 56,162 109,324 132" stroke="#8bed8b" fill="none"/><path d="M14 33 C190 9,189 60,331 37" stroke="#c867e9" fill="none"/><path d="M11 113 C166 68,181 66,328 134" stroke="#e38cb7" fill="none"/><path d="M12 95 C160 102,181 5,325 35" stroke="#8b8bed" fill="none"/><path d="M8 117 C150 17,172 91,340 35" stroke="#dd5f9e" fill="none"/><path d="M7 72 C171 39,189 107,337 50" stroke="#cce976" fill="none"/><path d="M4 92 C179 94,158 107,333 8" stroke="#a8e16f" fill="none"/><path d="M9 125 C189 27,174 35,340 52" stroke="#e0e056" fill="none"/></svg>