<svg xmlns="http://www.w3.org/2000/svg" width="342" height="140" viewBox="0,0,342,140"><path d="M9 40 C156 74,169 135,339 66" stroke="#8cd4ec" fill="none"/><path d="M14 73 C158 47,185 120,336 28" stroke="#db5b5b" fill="none"/><path d="M9 96 C178 83,189 127,339 121" stroke="#e66989" fill="none"/><path d="M2 7 C174 9,151 54,341 34" stroke="#426cea" fill="none"/><path d="M20 31 C175 98,190 83,341 3" stroke="#8686ed" fill="none"/><path d="M11 121 C158 2,172 11,321 134" stroke="#dddd40" fill="none"/><path d="M20 41 C153 128,167 124,338 118" stroke="#ebeb74" fill="none"/><path d="M5 137 C163 92,159 113,335 15" stroke="#f08da6" fill="none"/><path d="M8 124 C183 89,175 138,339 37" stroke="#889ee1" fill="none"/><path d="M14 47 C174 97,182 22,339 50" stroke="#cf80e9" fill="none"/><path d="M13 59 C169 35,177 127,325 65" stroke="#4e4ed9" fill="none"/><path d="M4 103 C156 24,154 25,339 113" stroke="#75efef" fill="none"/><path fill="#bc3ae7" d="M109.04 67.02L109.03 67.01L109.11 67.10Q102.96 66.94 99.53 64.94L99.52 64.93L99.57 64.98Q104.37 62.50 113.51 54.58L113.35 54.42L113.49 54.56Q114.73 54.08 117.15 52.94L117.23 53.02L117.28 53.07Q114.68 64.10 114.47 76.02L114.46 76.02L114.46 76.01Q114.39 88.08 116.39 99.50L116.28 99.40L116.37 99.48Q113.09 97.99 109.09 97.77L109.09 97.77L109.08 97.76Q108.86 89.97 108.86 82.33L108.90 82.37L108.97 82.45Q109.03 74.80 109.10 67.09ZM108.32 71.23L108.40 98.65L108.33 98.58Q110.52 98.48 112.30 98.84L112.39 98.93L112.46 98.99Q112.50 100.18 112.86 102.75L112.91 102.80L112.90 102.79Q118.31 103.85 122.88 108.06L122.88 108.06L122.74 107.92Q118.11 94.59 118.04 80.60L118.14 80.70L118.07 80.63Q117.90 66.60 121.32 53.04L121.45 53.17L121.33 53.05Q120.46 53.96 117.46 56.03L117.37 55.94L117.36 55.93Q117.81 54.59 118.38 51.74L118.24 51.60L118.36 51.73Q115.70 52.99 112.99 53.70L112.98 53.70L113.03 53.75Q106.11 60.60 98.04 64.88L97.87 64.71L97.90 64.74Q100.50 66.77 104.93 67.41L104.99 67.47L104.93 67.42Q103.82 68.52 101.39 70.51L101.35 70.47L101.42 70.54Q104.26 71.31 108.40 71.31L108.22 71.13Z"/><path d="M10 32 C168 46,177 60,340 28" stroke="#69e2a5" fill="none"/><path d="M6 51 C180 123,191 84,328 79" stroke="#bcec8c" fill="none"/><path d="M7 55 C180 42,175 54,324 76" stroke="#6789ee" fill="none"/><path fill="#50dcdc" d="M58.42 74.11L58.35 74.04L58.46 74.15Q59.83 74.02 62.47 73.73L62.49 73.75L62.54 73.80Q62.46 75.00 62.46 76.22L62.49 76.25L62.49 78.61L62.36 78.48Q60.91 78.59 59.34 78.74L59.24 78.64L59.31 78.71Q57.68 78.72 56.11 78.65L56.21 78.75L56.19 78.73Q50.88 90.34 44.45 98.97L44.47 98.99L44.32 98.84Q39.70 100.14 37.27 101.29L37.16 101.18L37.30 101.31Q44.96 90.55 50.67 78.77L50.64 78.75L45.77 78.81L45.65 78.68Q45.68 76.22 45.47 73.72L45.48 73.73L45.56 73.81Q49.02 73.99 52.87 73.99L52.94 74.06L56.47 67.09L56.49 67.11Q58.36 63.55 60.64 60.55L60.61 60.53L60.70 60.61Q57.72 60.84 54.72 60.84L54.69 60.82L54.71 60.83Q43.34 60.89 36.28 56.75L36.27 56.74L35.02 53.49L35.10 53.58Q34.44 51.98 33.72 50.34L33.59 50.20L33.76 50.38Q41.86 55.27 52.57 55.69L52.55 55.67L52.43 55.56Q62.25 56.17 71.89 52.46L71.84 52.41L71.77 52.34Q71.44 53.15 70.51 54.79L70.52 54.80L70.44 54.73Q63.68 63.67 58.33 74.02ZM73.59 57.44L73.53 57.38L75.41 53.63L75.42 53.63Q73.56 54.48 70.42 55.84L70.40 55.83L70.88 55.37L70.89 55.39Q71.06 55.05 71.27 54.84L71.28 54.84L71.14 54.71Q71.93 53.50 73.29 51.01L73.21 50.93L73.26 50.97Q63.25 55.24 52.47 54.81L52.60 54.94L52.60 54.94Q41.33 54.45 32.41 48.88L32.41 48.88L32.37 48.84Q34.29 52.33 35.86 57.33L35.76 57.23L35.73 57.20Q37.83 58.44 39.32 59.01L39.30 58.99L39.40 59.09Q39.61 59.66 40.47 63.16L40.53 63.22L40.57 63.25Q46.43 65.55 56.78 65.26L56.76 65.24L56.72 65.20Q56.28 66.40 52.57 73.47L52.46 73.36L52.57 73.47Q48.57 73.33 44.86 72.97L45.05 73.15L44.97 73.08Q45.01 74.55 45.01 76.19L45.12 76.30L45.03 79.42L48.23 79.48L48.17 82.06L48.32 82.21Q40.83 95.92 35.62 102.63L35.73 102.74L35.58 102.59Q38.66 101.25 41.73 100.32L41.77 100.36L41.75 100.34Q40.56 102.15 37.99 105.36L37.94 105.31L37.82 105.19Q43.90 103.28 48.47 102.85L48.36 102.74L48.42 102.79Q53.91 95.73 59.77 83.02L59.80 83.05L66.11 83.30L66.22 83.41Q66.09 81.71 66.09 79.99L66.06 79.96L65.97 76.52L65.96 76.51Q65.50 76.55 64.47 76.62L64.50 76.66L64.41 76.56Q63.42 76.69 62.92 76.69L62.93 76.69L63.04 76.80Q63.02 76.57 63.09 76.28L63.05 76.24L63.09 75.78L62.99 75.68Q67.78 66.12 73.56 57.42Z"/><path d="M14 53 C188 115,154 3,330 126" stroke="#e8c049" fill="none"/><path d="M3 110 C188 7,180 116,339 74" stroke="#dea56c" fill="none"/><path fill="#e06060" d="M285.09 74.11L285.13 74.15L285.01 74.04Q286.51 74.03 289.15 73.75L289.27 73.87L289.13 73.72Q289.09 74.97 289.09 76.19L289.20 76.29L289.09 78.54L289.08 78.53Q287.61 78.63 286.04 78.78L286.02 78.75L286.00 78.74Q284.43 78.80 282.85 78.73L282.88 78.75L282.91 78.79Q277.54 90.33 271.11 98.97L271.14 98.99L271.10 98.95Q266.41 100.18 263.98 101.32L263.88 101.22L264.00 101.35Q271.61 90.54 277.32 78.76L277.30 78.74L272.40 78.77L272.43 78.80Q272.36 76.23 272.15 73.74L272.14 73.73L272.11 73.69Q275.81 74.11 279.66 74.11L279.52 73.97L283.17 67.13L283.12 67.07Q284.98 63.50 287.26 60.51L287.29 60.53L287.36 60.61Q284.43 60.89 281.43 60.89L281.33 60.78L281.50 60.96Q269.96 60.84 262.90 56.70L262.83 56.64L261.65 53.46L261.71 53.52Q261.07 51.95 260.36 50.31L260.34 50.29L260.33 50.28Q268.49 55.23 279.19 55.65L279.24 55.70L279.19 55.65Q288.86 56.11 298.50 52.40L298.38 52.28L298.49 52.40Q298.02 53.06 297.09 54.70L297.15 54.76L297.09 54.71Q290.30 63.62 284.95 73.97ZM300.25 57.44L300.27 57.46L302.06 53.61L302.13 53.68Q300.33 54.59 297.19 55.94L297.17 55.93L297.47 55.30L297.39 55.22Q297.62 54.95 297.83 54.73L297.90 54.80L297.91 54.81Q298.52 53.42 299.88 50.92L300.02 51.06L299.97 51.02Q290.02 55.35 279.24 54.92L279.11 54.79L279.13 54.81Q268.01 54.46 259.09 48.89L259.07 48.87L259.02 48.83Q260.96 52.34 262.53 57.33L262.43 57.24L262.40 57.21Q264.57 58.51 266.07 59.09L266.16 59.18L266.13 59.15Q266.33 59.71 267.19 63.21L267.26 63.28L267.29 63.31Q273.19 65.64 283.54 65.35L283.43 65.24L283.38 65.19Q282.87 66.33 279.16 73.39L279.12 73.36L279.18 73.42Q275.27 73.35 271.56 73.00L271.58 73.02L271.59 73.03Q271.73 74.60 271.73 76.24L271.74 76.25L271.76 79.48L274.91 79.49L274.95 82.17L274.93 82.16Q267.53 95.95 262.32 102.66L262.36 102.70L262.40 102.75Q265.30 101.22 268.37 100.29L268.36 100.28L268.35 100.27Q267.08 102.00 264.51 105.21L264.66 105.36L264.54 105.24Q270.51 103.21 275.08 102.79L275.14 102.85L275.04 102.75Q280.58 95.73 286.43 83.02L286.49 83.08L292.84 83.36L292.88 83.40Q292.64 81.59 292.64 79.87L292.70 79.93L292.77 76.65L292.63 76.51Q292.09 76.48 291.06 76.55L291.09 76.58L291.24 76.73Q290.10 76.70 289.60 76.70L289.64 76.74L289.56 76.65Q289.58 76.46 289.65 76.17L289.65 76.18L289.65 75.68L289.67 75.69Q294.31 65.99 300.09 57.28Z"/><path d="M6 15 C181 10,160 36,341 100" stroke="#e17474" fill="none"/><path d="M14 49 C172 74,150 103,330 125" stroke="#da4d93" fill="none"/><path d="M8 90 C180 4,165 87,331 30" stroke="#96e744" fill="none"/><path d="M6 64 C189 6,155 78,330 54" stroke="#e9529e" fill="none"/><path fill="#4091e2" d="M158.45 98.85L158.35 98.75L158.37 98.77Q155.64 98.83 152.72 98.04L152.72 98.05L152.76 98.09Q150.52 96.42 150.23 93.35L150.33 93.44L150.32 93.44Q150.12 92.94 150.47 88.02L150.52 88.06L150.47 88.01Q152.40 87.66 156.18 86.95L156.26 87.03L155.85 88.40L155.78 88.33Q155.41 91.74 158.05 92.81L157.94 92.71L157.98 92.75Q159.54 93.44 163.46 93.44L163.35 93.33L163.44 93.41Q166.51 93.21 166.87 93.06L166.85 93.04L166.78 92.98Q168.58 92.78 169.94 91.85L169.76 91.68L169.95 91.86Q172.53 90.02 172.18 86.10L172.23 86.15L172.04 85.96Q171.78 81.48 168.53 78.56L168.61 78.64L168.63 78.66Q165.29 75.64 160.65 75.64L160.64 75.63L160.56 75.12L160.64 75.20Q161.33 75.11 162.97 74.97L163.09 75.09L162.96 74.95Q166.67 74.88 169.24 72.56L169.09 72.41L169.09 72.41Q171.73 70.16 172.01 66.66L171.96 66.60L172.03 66.68Q172.17 66.03 172.17 65.39L172.23 65.45L172.13 65.35Q172.10 62.46 169.53 60.75L169.51 60.74L169.58 60.80Q167.22 59.22 164.22 59.44L164.34 59.56L164.26 59.47Q161.91 59.27 159.63 60.06L159.54 59.97L159.66 60.09Q156.90 61.04 156.33 63.18L156.31 63.16L156.36 63.21Q155.98 64.62 156.13 66.05L156.10 66.02L156.09 66.01Q154.21 65.63 150.36 64.28L150.27 64.19L150.22 64.14Q149.91 61.12 149.98 59.55L149.85 59.42L149.89 59.46Q150.17 56.67 152.17 55.38L152.16 55.37L152.18 55.39Q154.78 54.21 157.78 54.21L157.70 54.13L157.87 54.30Q163.80 54.24 169.73 54.74L169.61 54.62L169.59 54.60Q179.13 55.43 178.56 62.50L178.55 62.49L178.53 62.47Q178.47 65.33 177.54 68.26L177.48 68.20L177.42 68.14Q175.82 74.03 171.39 75.74L171.36 75.71L171.44 75.79Q176.34 76.77 177.48 83.05L177.46 83.03L177.43 83.00Q177.79 85.07 177.93 88.85L177.91 88.83L177.94 88.86Q178.21 97.20 169.57 98.05L169.59 98.07L169.56 98.04Q168.26 98.24 158.34 98.74ZM168.10 102.93L168.05 102.89L168.09 102.93Q169.37 103.13 174.72 103.28L174.66 103.21L174.71 103.26Q177.87 103.28 180.94 102.07L180.97 102.09L181.08 102.21Q183.26 100.40 182.91 97.11L182.83 97.04L182.90 97.11Q182.61 94.53 182.04 91.25L182.03 91.24L182.16 91.37Q180.73 82.87 177.09 79.80L177.16 79.87L176.62 78.97L176.55 78.83L176.56 78.85Q179.94 76.23 181.37 68.02L181.35 68.01L181.35 68.00Q181.48 67.21 181.70 65.42L181.62 65.35L181.55 65.28Q181.69 63.85 181.55 62.56L181.56 62.58L181.61 62.62Q181.31 59.47 178.88 58.18L178.98 58.28L178.88 58.32L178.69 58.13Q178.11 56.27 175.97 55.27L176.09 55.39L176.03 55.33Q173.31 54.18 163.67 53.61L163.55 53.49L163.53 53.46Q160.47 53.40 157.47 53.40L157.38 53.31L157.41 53.34Q154.43 53.36 151.58 54.58L151.54 54.53L151.54 54.54Q149.27 55.98 149.27 59.26L149.38 59.37L149.34 59.33Q149.24 58.44 149.73 64.72L149.76 64.75L149.78 64.77Q150.44 65.00 153.51 66.14L153.52 66.16L153.38 66.02Q153.48 67.11 153.41 68.04L153.36 67.99L153.37 68.00Q153.31 68.87 153.38 69.87L153.41 69.90L153.37 69.86Q156.75 70.60 160.54 70.81L160.56 70.83L160.55 70.83Q160.35 66.99 162.42 65.42L162.57 65.56L162.57 65.57Q164.01 64.23 167.80 63.80L167.95 63.95L167.78 63.78Q169.91 63.77 170.98 64.12L171.09 64.24L171.06 64.20Q171.11 64.40 171.19 64.62L171.31 64.74L171.26 65.05L171.33 65.98L171.45 66.10Q171.43 66.43 171.36 66.72L171.42 66.78L171.26 66.62Q171.27 69.99 168.42 72.20L168.36 72.15L168.37 72.15Q166.62 73.83 162.84 74.19L162.93 74.28L162.94 74.29Q161.57 74.56 159.92 74.56L159.80 74.43L159.80 74.43Q159.86 75.07 160.15 76.35L160.21 76.41L160.26 76.46Q163.59 76.51 166.30 77.87L166.27 77.83L166.06 77.83L163.05 78.11L162.99 78.06Q163.17 78.80 163.39 79.95L163.32 79.88L163.35 79.91Q167.27 79.69 170.49 82.19L170.67 82.38L170.59 82.30Q171.08 83.07 171.65 86.14L171.49 85.98L171.61 86.10Q171.97 91.60 166.47 92.38L166.44 92.35L166.47 92.38Q162.56 92.90 161.49 92.82L161.49 92.83L161.51 92.84Q160.67 92.65 159.67 92.50L159.57 92.40L159.56 91.54L159.72 90.63L159.93 90.06L159.85 89.33L160.03 89.51Q158.18 89.59 156.68 89.94L156.72 89.98L156.73 89.99Q156.53 89.44 156.53 89.08L156.51 89.06L156.52 89.07Q156.61 88.73 156.61 88.30L156.64 88.34L156.67 88.36Q156.75 87.58 157.03 86.23L157.02 86.22L156.91 86.10Q153.45 86.57 149.95 87.21L149.93 87.19L150.11 87.37Q150.02 88.21 149.81 90.32L149.87 90.38L149.71 90.21Q149.60 92.43 149.60 93.57L149.63 93.60L149.54 93.51Q149.72 97.40 152.29 98.83L152.28 98.82L152.21 98.75Q155.08 103.12 163.93 102.76L163.89 102.73L163.85 102.68Q165.36 102.76 168.22 103.05Z"/><path d="M9 75 C181 124,163 133,322 26" stroke="#74ebaf" fill="none"/><path d="M15 129 C170 55,189 25,329 137" stroke="#eb7474" fill="none"/><path d="M4 61 C163 3,151 42,327 7" stroke="#55e178" fill="none"/><path d="M15 31 C164 93,168 53,334 126" stroke="#e96767" fill="none"/><path d="M11 73 C180 62,166 36,334 51" stroke="#6fdcdc" fill="none"/><path d="M18 106 C183 91,187 117,333 99" stroke="#f187d7" fill="none"/><path d="M16 46 C169 119,188 16,336 45" stroke="#da52da" fill="none"/><path d="M7 38 C188 91,173 88,328 72" stroke="#e278ad" fill="none"/><path d="M6 79 C185 53,182 94,326 57" stroke="#8c31e6" fill="none"/><path d="M12 35 C162 10,155 16,331 42" stroke="#9e5cdf" fill="none"/><path d="M18 87 C178 27,171 111,340 91" stroke="#ea66ea" fill="none"/><path d="M3 66 C171 48,159 31,327 56" stroke="#e33fba" fill="none"/><path d="M20 48 C191 127,172 12,325 129" stroke="#e54c4c" fill="none"/><path d="M9 23 C175 87,179 133,327 31" stroke="#58d999" fill="none"/><path d="M18 2 C165 21,173 93,332 128" stroke="#59b8d8" fill="none"/><path d="M12 20 C153 85,183 7,337 125" stroke="#e5e53c" fill="none"/><path d="M3 60 C161 73,153 21,334 15" stroke="#3fe83f" fill="none"/><path fill="#dc3b64" d="M215.05 98.78L215.06 98.80L214.97 98.71Q212.33 98.85 209.40 98.06L209.49 98.15L209.51 98.17Q207.10 96.33 206.81 93.26L206.95 93.40L206.89 93.34Q206.81 92.97 207.16 88.04L207.20 88.08L207.22 88.10Q209.01 87.60 212.79 86.89L212.94 87.04L212.59 88.47L212.62 88.51Q212.13 91.79 214.77 92.86L214.59 92.69L214.72 92.82Q216.20 93.44 220.12 93.44L220.13 93.44L220.19 93.50Q223.07 93.10 223.43 92.96L223.48 93.01L223.47 93.00Q225.11 92.64 226.46 91.71L226.54 91.79L226.46 91.70Q229.15 89.97 228.79 86.05L228.90 86.15L228.89 86.14Q228.47 81.51 225.22 78.58L225.25 78.61L225.17 78.54Q222.00 75.69 217.36 75.69L217.28 75.60L217.30 75.20L217.38 75.28Q218.12 75.23 219.76 75.08L219.74 75.06L219.65 74.98Q223.16 74.70 225.73 72.38L225.78 72.43L225.81 72.46Q228.36 70.13 228.65 66.63L228.68 66.66L228.64 66.62Q228.73 65.93 228.73 65.28L228.88 65.43L228.89 65.44Q228.86 62.56 226.29 60.85L226.32 60.87L226.24 60.80Q223.96 59.30 220.96 59.51L221.04 59.59L221.03 59.58Q218.58 59.27 216.29 60.06L216.16 59.92L216.30 60.06Q213.56 61.04 212.99 63.18L213.05 63.24L212.88 63.07Q212.60 64.57 212.75 66.00L212.75 66.01L212.72 65.97Q210.82 65.58 206.97 64.22L206.97 64.22L207.04 64.29Q206.48 61.02 206.55 59.45L206.67 59.57L206.61 59.51Q206.74 56.57 208.74 55.28L208.82 55.37L208.83 55.37Q211.43 54.19 214.43 54.19L214.54 54.30L214.42 54.18Q220.29 54.06 226.21 54.56L226.31 54.66L226.21 54.55Q235.87 55.50 235.30 62.57L235.32 62.60L235.30 62.57Q235.12 65.32 234.19 68.25L234.26 68.31L234.22 68.28Q232.51 74.06 228.09 75.78L228.01 75.70L227.93 75.62Q232.90 76.66 234.04 82.94L234.18 83.08L234.13 83.03Q234.53 85.14 234.67 88.92L234.56 88.82L234.68 88.94Q235.04 97.36 226.41 98.22L226.39 98.20L226.38 98.20Q224.90 98.22 214.98 98.72ZM224.87 103.03L224.87 103.03L224.76 102.93Q225.87 102.97 231.23 103.11L231.29 103.18L231.40 103.29Q234.55 103.29 237.62 102.08L237.68 102.14L237.68 102.15Q239.88 100.34 239.52 97.06L239.60 97.14L239.42 96.96Q239.25 94.50 238.68 91.22L238.82 91.37L238.75 91.29Q237.33 82.81 233.69 79.74L233.67 79.71L233.37 79.06L233.35 78.97L233.36 78.98Q236.67 76.29 238.10 68.08L238.07 68.06L237.97 67.96Q238.13 67.19 238.35 65.41L238.22 65.28L238.31 65.37Q238.48 63.97 238.34 62.69L238.22 62.56L238.36 62.70Q238.07 59.56 235.65 58.28L235.66 58.29L235.47 58.25L235.36 58.13Q234.90 56.39 232.76 55.40L232.74 55.37L232.80 55.43Q229.88 54.08 220.24 53.51L220.23 53.50L220.23 53.50Q217.09 53.36 214.10 53.36L214.09 53.36L214.04 53.31Q211.04 53.30 208.18 54.51L208.26 54.59L208.27 54.61Q205.98 56.03 205.98 59.31L206.04 59.37L205.95 59.28Q205.99 58.53 206.49 64.81L206.44 64.76L206.37 64.69Q207.09 64.98 210.16 66.12L210.05 66.01L210.04 66.01Q210.02 66.99 209.95 67.91L210.00 67.97L209.99 67.95Q210.01 68.91 210.08 69.91L210.07 69.89L210.14 69.96Q213.54 70.72 217.33 70.94L217.27 70.88L217.31 70.93Q217.01 66.98 219.08 65.41L219.22 65.55L219.15 65.48Q220.74 64.29 224.52 63.86L224.60 63.94L224.50 63.83Q226.57 63.76 227.64 64.12L227.79 64.27L227.73 64.21Q227.76 64.39 227.83 64.60L227.90 64.67L227.88 65.01L228.17 66.15L228.06 66.04Q228.18 66.51 228.11 66.80L227.98 66.67L228.02 66.72Q227.86 69.91 225.00 72.12L224.99 72.11L224.96 72.07Q223.22 73.77 219.44 74.12L219.44 74.12L219.44 74.13Q218.25 74.57 216.60 74.57L216.55 74.52L216.62 74.58Q216.52 75.06 216.80 76.34L216.88 76.41L216.90 76.44Q220.21 76.46 222.92 77.82L222.96 77.86L222.74 77.85L219.84 78.23L219.82 78.21Q219.89 78.85 220.10 80.00L220.03 79.93L220.03 79.93Q224.07 79.83 227.28 82.32L227.29 82.33L227.20 82.24Q227.60 82.93 228.17 86.00L228.33 86.15L228.26 86.08Q228.65 91.61 223.15 92.39L223.10 92.35L223.12 92.37Q219.22 92.89 218.15 92.82L218.19 92.86L218.03 92.70Q217.28 92.59 216.28 92.45L216.29 92.46L216.16 91.47L216.47 90.72L216.56 90.02L216.59 89.41L216.51 89.33Q214.86 89.60 213.36 89.96L213.28 89.87L213.29 89.88Q213.23 89.47 213.23 89.11L213.16 89.05L213.19 89.07Q213.32 88.77 213.32 88.34L213.23 88.25L213.41 88.43Q213.39 87.55 213.67 86.20L213.77 86.29L213.65 86.17Q210.17 86.63 206.67 87.27L206.68 87.27L206.67 87.27Q206.58 88.11 206.37 90.21L206.38 90.22L206.53 90.37Q206.18 92.34 206.18 93.48L206.23 93.53L206.21 93.51Q206.34 97.36 208.91 98.78L208.98 98.85L209.04 98.92Q211.76 103.13 220.61 102.78L220.56 102.72L220.54 102.70Q221.89 102.63 224.74 102.91Z"/><path d="M20 54 C155 120,185 107,328 77" stroke="#9e57e4" fill="none"/><path d="M5 68 C165 33,153 57,335 73" stroke="#44e393" fill="none"/></svg>