<svg xmlns="http://www.w3.org/2000/svg" width="342" height="140" viewBox="0,0,342,140"><path d="M13 32 C150 117,176 87,331 81" stroke="#7c7ce3" fill="none"/><path d="M13 58 C174 123,159 74,333 81" stroke="#5454e2" fill="none"/><path d="M17 49 C168 136,190 121,331 30" stroke="#83e1b2" fill="none"/><path d="M19 47 C177 37,177 48,339 8" stroke="#df947b" fill="none"/><path d="M15 7 C152 8,184 36,331 65" stroke="#4d4ddf" fill="none"/><path d="M10 64 C183 129,150 32,334 115" stroke="#e967e9" fill="none"/><path d="M19 87 C164 69,168 10,327 41" stroke="#b5de39" fill="none"/><path fill="#6ee7aa" d="M267.43 76.46L267.37 76.40L267.40 76.43Q264.44 76.13 262.51 78.35L262.59 78.42L262.53 78.36Q260.76 80.73 260.46 83.69L260.48 83.70L260.47 83.70Q260.08 86.85 261.76 88.36L261.72 88.31L261.73 88.33Q263.40 89.82 266.65 89.64L266.73 89.71L266.69 89.68Q269.81 89.31 271.52 88.24L271.56 88.28L271.70 88.42Q273.44 86.67 273.44 84.24L273.40 84.20L273.36 84.16Q273.36 83.58 273.25 82.99L273.28 83.02L273.18 82.92Q273.45 80.47 271.73 78.37L271.71 78.34L271.68 78.31Q269.96 76.21 267.36 76.39ZM266.66 93.61L266.77 93.72L266.70 93.65Q259.88 93.63 257.69 92.45L257.72 92.47L257.70 92.46Q256.18 91.36 255.89 88.69L255.72 88.53L255.78 88.58Q255.70 87.50 255.76 86.38L255.79 86.41L255.91 86.52Q255.95 84.85 255.95 84.14L256.04 84.23L256.08 84.28Q256.74 79.78 256.97 78.72L256.92 78.67L256.91 78.65Q257.64 75.66 258.94 73.47L258.91 73.44L258.88 73.41Q263.09 66.68 272.32 56.81L272.29 56.78L272.35 56.84Q276.52 56.39 279.95 55.15L279.82 55.02L279.84 55.04Q269.29 66.72 264.32 73.29L264.24 73.21L264.24 73.21Q265.73 72.39 267.74 72.39L267.93 72.58L267.85 72.51Q272.94 72.45 275.31 75.47L275.31 75.46L275.35 75.51Q277.41 78.04 277.94 83.54L277.91 83.51L278.00 83.60Q278.02 84.62 278.02 85.57L278.09 85.64L277.99 85.54Q278.06 90.47 274.63 92.12L274.73 92.22L274.71 92.19Q272.73 93.06 266.70 93.65ZM270.22 97.35L270.16 97.29L270.17 97.30Q272.26 97.32 275.33 97.43L275.31 97.41L275.36 97.46Q277.79 97.46 280.21 96.34L280.39 96.52L280.32 96.45Q282.06 95.23 282.06 92.45L282.05 92.44L282.03 92.43Q282.10 91.72 281.83 90.18L281.72 90.07L281.76 90.11Q281.48 88.56 281.48 87.85L281.53 87.90L281.56 87.93Q280.04 80.44 277.56 77.48L277.58 77.50L277.57 77.49Q277.55 77.42 277.32 77.06L277.20 76.94L276.77 76.64L276.76 76.68L276.80 76.72Q276.18 75.86 275.23 74.39L275.19 74.34L275.31 74.46Q273.78 72.88 270.71 72.17L270.65 72.11L270.63 72.09Q272.69 69.77 277.30 64.04L277.24 63.97L283.83 55.78L283.72 55.66Q281.36 57.09 277.64 58.28L277.72 58.36L277.69 58.33Q279.15 56.83 281.92 53.75L281.81 53.64L281.83 53.66Q278.18 55.39 272.15 56.28L272.04 56.17L272.16 56.29Q263.15 65.32 258.53 73.00L258.66 73.14L258.61 73.08Q256.22 76.96 255.34 86.66L255.31 86.64L255.37 86.70Q255.16 87.49 255.28 88.97L255.41 89.11L255.41 89.11Q255.54 91.84 257.26 93.26L257.13 93.13L257.09 93.09Q257.72 93.36 257.66 93.42L257.70 93.46L257.67 93.43Q258.24 94.83 259.49 95.49L259.55 95.55L259.54 95.54Q261.74 96.56 264.76 96.85L264.89 96.99L264.79 96.89Q264.78 96.88 270.22 97.35ZM269.80 79.84L269.81 79.85L269.91 79.94Q270.84 79.82 272.32 80.58L272.24 80.50L272.21 80.48Q272.79 81.99 272.79 83.00L272.78 82.99L272.71 82.92Q273.10 85.91 271.62 87.45L271.56 87.39L271.58 87.41Q270.05 88.66 266.80 89.14L266.70 89.03L266.63 88.97Q264.43 89.02 263.61 88.60L263.72 88.71L263.68 88.68Q263.41 87.99 263.41 87.52L263.33 87.45L263.28 87.39Q262.90 82.28 267.46 80.27L267.55 80.37L267.62 80.43Q268.72 79.82 269.90 79.94Z"/><path d="M20 50 C153 138,164 104,322 129" stroke="#e0a365" fill="none"/><path d="M14 67 C154 13,159 86,334 99" stroke="#8ebae6" fill="none"/><path d="M18 18 C189 101,175 106,328 69" stroke="#dfdf76" fill="none"/><path d="M10 31 C162 89,184 105,321 46" stroke="#57dfbd" fill="none"/><path d="M7 42 C187 119,191 43,339 88" stroke="#e03ce0" fill="none"/><path d="M14 113 C180 111,158 85,335 132" stroke="#e754c2" fill="none"/><path d="M5 51 C189 34,189 64,331 23" stroke="#519be5" fill="none"/><path d="M8 82 C175 74,179 17,334 14" stroke="#b9e538" fill="none"/><path d="M10 136 C191 11,184 37,322 6" stroke="#65e6c5" fill="none"/><path d="M9 20 C165 91,172 86,329 86" stroke="#5bd6b7" fill="none"/><path d="M18 27 C179 54,157 133,329 63" stroke="#a5e368" fill="none"/><path d="M4 112 C173 66,186 65,336 75" stroke="#e39344" fill="none"/><path d="M15 111 C183 24,172 101,329 121" stroke="#f0f088" fill="none"/><path d="M3 4 C170 19,171 65,325 17" stroke="#6282e4" fill="none"/><path d="M15 66 C159 52,181 85,322 15" stroke="#68c0dd" fill="none"/><path d="M11 57 C185 86,191 9,332 115" stroke="#d844d8" fill="none"/><path d="M20 26 C164 119,157 55,334 48" stroke="#69aaec" fill="none"/><path fill="#e5569e" d="M193.45 82.43L193.34 82.31L193.41 82.38Q198.09 81.69 203.06 81.86L203.06 81.86L203.08 81.89Q203.00 77.90 203.00 74.18L203.07 74.24L203.07 74.25Q203.17 70.50 203.47 66.54L203.41 66.49L203.43 66.50Q201.55 69.18 193.45 82.43ZM208.69 93.70L208.84 93.85L208.83 93.85Q206.16 93.31 203.38 93.19L203.40 93.21L203.39 93.19Q203.18 89.61 203.00 85.77L202.92 85.68L202.92 85.69Q194.63 85.38 187.29 87.57L187.34 87.62L187.39 87.66Q187.39 86.72 187.69 85.18L187.78 85.27L187.80 85.29Q190.50 80.31 196.06 70.55L196.10 70.59L196.08 70.57Q200.54 62.96 205.86 56.93L205.94 57.00L205.93 57.00Q207.20 56.61 209.80 56.20L209.87 56.27L209.81 56.20Q206.83 66.18 206.83 77.12L206.89 77.18L207.01 77.30Q206.89 79.49 207.01 81.80L207.09 81.87L208.96 81.91L209.01 81.96Q210.04 82.10 210.98 82.28L210.91 82.21L210.94 82.23Q211.08 83.74 211.50 86.75L211.50 86.76L211.58 86.83Q209.56 86.30 207.25 86.00L207.38 86.13L207.34 86.08Q207.69 89.21 208.75 93.77ZM211.39 81.68L211.34 81.63L211.40 81.68Q211.11 81.58 210.82 81.58L210.77 81.54L210.22 81.57L210.22 81.57Q210.09 79.31 210.09 77.13L210.07 77.11L209.99 77.02Q210.10 67.20 213.29 57.85L213.24 57.80L213.13 57.69Q211.93 58.08 209.68 58.67L209.70 58.70L209.78 58.78Q210.19 57.65 210.90 55.46L210.75 55.31L210.92 55.48Q208.82 55.99 205.63 56.34L205.71 56.42L205.59 56.31Q199.53 63.07 191.42 77.62L191.51 77.71L194.72 71.99L194.76 72.03Q194.00 73.51 193.58 74.40L193.58 74.40L186.74 88.49L186.74 88.50Q187.78 88.29 189.56 87.70L189.56 87.70L189.32 88.05L189.31 88.04Q189.07 89.05 188.60 91.00L188.69 91.09L188.50 90.90Q195.03 88.97 202.54 89.27L202.46 89.19L202.41 89.14Q202.58 90.73 202.87 93.80L202.85 93.77L202.76 93.69Q204.54 93.81 206.19 93.99L206.22 94.01L206.16 93.96Q206.46 95.08 206.88 97.21L206.88 97.22L206.86 97.20Q209.76 97.49 214.43 98.91L214.41 98.89L214.38 98.87Q212.91 95.62 211.49 90.53L211.45 90.50L213.65 91.15L213.67 91.17Q214.79 91.59 215.86 92.12L215.89 92.15L215.87 92.13Q214.55 88.15 214.31 85.54L214.42 85.66L214.42 85.65Q213.49 85.38 211.72 85.02L211.66 84.97L211.66 84.97Q211.42 83.07 211.42 81.71ZM199.01 81.48L198.96 81.43L198.94 81.41Q200.03 79.31 202.46 75.35L202.51 75.40L202.45 75.34Q202.53 76.89 202.47 78.37L202.49 78.40L202.51 78.41Q202.48 79.92 202.54 81.40L202.57 81.43L202.57 81.43Q201.73 81.42 200.84 81.42L200.84 81.42L200.68 81.26Q199.96 81.49 199.02 81.49Z"/><path d="M16 61 C151 91,171 112,331 82" stroke="#56ebeb" fill="none"/><path d="M19 23 C163 35,156 9,337 65" stroke="#93a9eb" fill="none"/><path d="M12 2 C154 53,174 114,328 102" stroke="#e5c975" fill="none"/><path d="M5 36 C185 83,173 52,329 19" stroke="#8cbcec" fill="none"/><path d="M5 129 C176 11,162 74,321 21" stroke="#b85ad7" fill="none"/><path d="M5 12 C185 137,172 11,334 129" stroke="#4ede4e" fill="none"/><path d="M21 21 C186 132,178 87,341 78" stroke="#89e56a" fill="none"/><path d="M17 137 C156 106,178 109,338 71" stroke="#3fdeb6" fill="none"/><path fill="#e462a3" d="M132.47 67.56L132.50 67.59L132.44 67.53Q127.52 67.58 124.68 65.92L124.62 65.87L124.57 65.81Q128.53 63.75 136.10 57.18L136.15 57.23L136.03 57.11Q137.28 56.94 139.29 55.99L139.32 56.02L139.20 55.90Q137.21 65.21 137.03 75.08L136.95 75.00L136.99 75.04Q136.84 84.95 138.50 94.41L138.54 94.45L138.52 94.44Q135.86 93.25 132.55 93.08L132.50 93.03L132.55 93.08Q132.43 86.69 132.43 80.36L132.45 80.38L132.40 80.33Q132.31 73.85 132.37 67.46ZM131.89 71.07L131.77 93.60L131.91 93.73Q133.66 93.60 135.14 93.89L135.23 93.98L135.18 93.93Q135.42 95.11 135.71 97.24L135.57 97.10L135.54 97.07Q140.07 98.00 143.86 101.49L143.87 101.50L143.88 101.51Q140.00 90.41 139.94 78.82L139.90 78.78L139.89 78.77Q139.77 67.18 142.61 55.94L142.73 56.06L142.67 56.00Q141.82 56.63 139.34 58.35L139.28 58.29L139.43 58.43Q139.63 57.16 140.10 54.79L140.08 54.77L140.04 54.73Q137.98 55.93 135.74 56.52L135.74 56.52L135.88 56.66Q129.98 62.18 123.30 65.73L123.22 65.64L123.18 65.61Q125.41 67.37 129.08 67.90L129.10 67.92L129.14 67.96Q128.15 68.81 126.14 70.46L126.12 70.44L126.10 70.42Q128.40 71.01 131.83 71.01L131.88 71.05Z"/><path d="M18 27 C173 104,168 137,341 31" stroke="#ebc556" fill="none"/><path d="M12 78 C163 101,159 51,332 18" stroke="#4141dc" fill="none"/><path d="M4 75 C160 24,178 51,339 78" stroke="#b859d8" fill="none"/><path d="M2 36 C162 73,183 37,323 13" stroke="#e56686" fill="none"/><path d="M16 106 C178 114,163 99,332 16" stroke="#744de9" fill="none"/><path fill="#6ce9c9" d="M69.44 73.39L69.34 73.29L69.52 73.47Q70.75 73.46 72.94 73.22L72.76 73.04L72.90 73.19Q72.74 74.09 72.74 75.09L72.70 75.05L72.80 77.10L72.88 77.19Q71.56 77.17 70.26 77.29L70.28 77.31L70.22 77.24Q68.95 77.33 67.65 77.28L67.49 77.12L67.64 77.27Q63.07 86.72 57.75 93.87L57.74 93.87L57.88 94.01Q54.02 95.05 52.01 96.00L51.98 95.97L51.84 95.83Q58.20 86.94 62.93 77.18L63.05 77.29L58.97 77.30L58.98 77.30Q59.01 75.26 58.83 73.19L58.68 73.04L58.78 73.14Q61.81 73.45 65.01 73.45L64.91 73.36L67.87 67.62L67.85 67.60Q69.46 64.72 71.35 62.24L71.23 62.11L71.31 62.20Q68.86 62.40 66.37 62.40L66.37 62.40L66.44 62.47Q56.97 62.46 51.12 59.03L51.15 59.07L50.13 56.39L50.13 56.39Q49.56 55.05 48.97 53.69L48.92 53.64L48.87 53.59Q55.63 57.69 64.50 58.04L64.47 58.01L64.57 58.11Q72.54 58.46 80.53 55.38L80.57 55.42L80.49 55.35Q80.27 56.07 79.50 57.43L79.50 57.43L79.44 57.36Q73.76 64.70 69.33 73.28ZM81.88 59.45L82.00 59.57L83.41 56.31L83.46 56.36Q82.06 57.21 79.46 58.33L79.32 58.20L79.68 57.78L79.79 57.90Q79.83 57.52 80.01 57.34L80.03 57.37L80.15 57.48Q80.69 56.37 81.81 54.30L81.74 54.23L81.75 54.24Q73.49 57.80 64.56 57.45L64.56 57.45L64.60 57.49Q55.28 57.10 47.89 52.49L47.89 52.49L47.87 52.47Q49.48 55.39 50.78 59.53L50.70 59.44L50.64 59.38Q52.38 60.41 53.62 60.88L53.62 60.88L53.61 60.87Q54.00 61.56 54.71 64.46L54.72 64.47L54.69 64.44Q59.60 66.39 68.17 66.15L68.04 66.02L68.10 66.07Q67.63 66.97 64.55 72.82L64.66 72.93L64.66 72.93Q61.28 72.74 58.20 72.45L58.23 72.48L58.33 72.57Q58.37 73.80 58.37 75.16L58.50 75.29L58.41 77.85L61.01 77.86L61.08 80.12L61.04 80.08Q54.96 91.56 50.64 97.12L50.71 97.18L50.54 97.01Q53.06 95.87 55.60 95.10L55.67 95.16L55.73 95.23Q54.48 96.46 52.35 99.12L52.52 99.29L52.42 99.19Q57.43 97.58 61.22 97.22L61.23 97.24L61.08 97.09Q65.76 91.36 70.61 80.83L70.62 80.84L75.87 81.07L75.89 81.08Q75.84 79.74 75.84 78.32L75.80 78.28L75.77 75.47L75.70 75.40Q75.36 75.47 74.50 75.53L74.52 75.55L74.54 75.57Q73.63 75.57 73.21 75.57L73.24 75.60L73.28 75.64Q73.14 75.32 73.20 75.08L73.30 75.18L73.34 74.81L73.23 74.70Q77.22 66.80 82.01 59.59Z"/><path d="M4 16 C157 128,183 98,336 118" stroke="#ad6ded" fill="none"/><path d="M20 107 C171 2,187 93,328 80" stroke="#6ee7c9" fill="none"/><path d="M9 8 C173 58,153 51,325 117" stroke="#e26c45" fill="none"/></svg>