<svg xmlns="http://www.w3.org/2000/svg" width="342" height="140" viewBox="0,0,342,140"><path fill="#e269c4" d="M58.42 74.19L58.49 74.27L58.46 74.24Q60.07 74.29 62.81 74.00L62.69 73.87L62.72 73.91Q62.62 75.13 62.62 76.39L62.61 76.39L62.73 78.96L62.65 78.87Q60.96 78.82 59.33 78.97L59.43 79.06L59.48 79.12Q57.81 79.15 56.18 79.08L56.24 79.13L56.17 79.06Q50.50 90.95 43.83 99.92L44.00 100.08L43.88 99.97Q39.02 101.26 36.50 102.45L36.51 102.46L36.53 102.48Q44.45 91.28 50.38 79.05L50.53 79.20L45.38 79.16L45.23 79.02Q45.43 76.62 45.21 74.03L45.20 74.02L45.02 73.84Q48.73 74.15 52.74 74.15L52.87 74.28L56.57 67.08L56.58 67.10Q58.48 63.37 60.85 60.26L60.85 60.25L60.88 60.29Q57.75 60.49 54.64 60.49L54.63 60.48L54.62 60.47Q42.85 60.55 35.51 56.26L35.57 56.31L34.17 52.84L34.18 52.85Q33.64 51.34 32.90 49.64L32.76 49.51L32.82 49.56Q41.17 54.57 52.28 55.02L52.40 55.14L52.40 55.14Q62.45 55.63 72.45 51.77L72.34 51.67L72.28 51.61Q72.05 52.56 71.08 54.26L70.99 54.16L70.96 54.13Q64.01 63.49 58.45 74.23ZM74.11 56.84L74.25 56.98L76.13 53.01L76.09 52.97Q74.20 53.89 70.94 55.30L71.04 55.40L71.37 54.77L71.37 54.76Q71.61 54.49 71.83 54.27L71.83 54.27L71.77 54.20Q72.45 52.81 73.86 50.22L73.95 50.31L73.84 50.20Q63.55 54.72 52.36 54.28L52.34 54.26L52.40 54.33Q40.68 53.79 31.42 48.01L31.44 48.03L31.43 48.02Q33.42 51.64 35.05 56.83L34.95 56.73L35.06 56.84Q37.23 58.12 38.79 58.72L38.75 58.68L38.74 58.66Q39.13 59.43 40.02 63.06L39.99 63.03L39.84 62.88Q45.99 65.33 56.74 65.03L56.81 65.10L56.81 65.10Q56.20 66.19 52.34 73.53L52.34 73.53L52.47 73.65Q48.30 73.49 44.45 73.12L44.53 73.20L44.47 73.14Q44.75 74.90 44.75 76.61L44.72 76.58L44.74 79.93L47.85 79.79L47.96 82.63L47.97 82.64Q40.24 96.93 34.84 103.89L34.93 103.98L34.82 103.88Q38.08 102.54 41.27 101.58L41.23 101.55L41.11 101.42Q39.85 103.28 37.18 106.61L37.21 106.63L37.24 106.67Q43.39 104.51 48.13 104.07L48.05 104.00L48.08 104.02Q53.80 96.70 59.87 83.51L59.92 83.56L66.50 83.83L66.53 83.87Q66.30 82.01 66.30 80.23L66.34 80.27L66.28 76.73L66.40 76.84Q65.92 76.88 64.84 76.95L64.74 76.85L64.72 76.83Q63.67 76.93 63.15 76.93L63.13 76.91L63.18 76.96Q63.13 76.69 63.21 76.39L63.28 76.47L63.28 75.95L63.31 75.98Q68.16 65.93 74.16 56.89Z"/><path d="M9 34 C165 87,179 70,336 32" stroke="#e8e882" fill="none"/><path d="M17 93 C171 27,166 101,332 108" stroke="#dfdf70" fill="none"/><path d="M5 108 C173 114,180 20,334 92" stroke="#e8c868" fill="none"/><path d="M9 131 C178 72,187 104,334 14" stroke="#e57a56" fill="none"/><path d="M3 8 C175 38,172 74,337 99" stroke="#8bd1e8" fill="none"/><path d="M11 64 C179 43,179 61,338 98" stroke="#4cd6d6" fill="none"/><path d="M15 22 C159 119,180 70,324 42" stroke="#bf6adc" fill="none"/><path d="M16 52 C177 27,182 87,340 59" stroke="#6ceece" fill="none"/><path d="M7 104 C175 115,186 85,333 71" stroke="#80e85e" fill="none"/><path d="M15 52 C158 131,159 47,323 9" stroke="#5696d6" fill="none"/><path d="M15 132 C186 45,191 38,334 47" stroke="#4bc3eb" fill="none"/><path d="M7 111 C150 98,164 120,337 50" stroke="#87e79f" fill="none"/><path d="M17 26 C154 60,154 5,332 58" stroke="#31e65e" fill="none"/><path d="M14 93 C188 57,172 46,321 71" stroke="#bf53e3" fill="none"/><path d="M21 71 C182 80,152 57,333 136" stroke="#48e948" fill="none"/><path d="M19 131 C184 108,158 21,330 32" stroke="#7777e3" fill="none"/><path d="M16 56 C162 21,153 63,334 20" stroke="#be3ee9" fill="none"/><path d="M14 125 C156 99,179 45,323 37" stroke="#dd63dd" fill="none"/><path fill="#edba86" d="M221.00 78.15L220.93 78.08L221.04 78.19Q217.42 78.21 215.05 80.80L214.93 80.68L214.93 80.68Q212.66 83.37 212.36 87.07L212.31 87.02L212.32 87.03Q211.87 91.11 214.24 93.07L214.40 93.23L214.40 93.23Q216.72 95.14 220.87 95.00L220.89 95.01L220.91 95.03Q225.32 94.62 227.17 92.77L227.21 92.82L227.27 92.87Q229.31 90.09 229.09 86.53L229.00 86.45L229.06 86.51Q228.71 82.75 226.59 80.41L226.60 80.42L226.67 80.48Q224.61 78.20 221.05 78.20ZM220.87 59.72L220.86 59.71L220.93 59.78Q218.20 59.57 215.61 60.54L215.52 60.45L215.54 60.47Q213.13 62.13 213.57 65.76L213.55 65.74L213.51 65.70Q214.48 72.97 221.00 72.97L220.90 72.87L221.08 73.05Q223.99 73.29 225.92 71.06L225.89 71.04L225.92 71.07Q227.90 68.90 227.97 65.86L227.93 65.82L228.03 65.91Q228.02 62.35 226.61 61.16L226.74 61.30L226.77 61.33Q223.35 59.53 220.83 59.68ZM220.31 99.69L220.50 99.88L214.53 99.84L214.51 99.82Q211.49 99.76 208.90 98.06L208.88 98.04L208.82 97.98Q206.22 95.83 206.52 90.27L206.61 90.37L206.63 90.38Q207.41 76.94 214.45 75.01L214.39 74.95L214.45 75.01Q209.97 73.20 207.38 62.75L207.46 62.83L207.37 62.75Q206.80 60.10 206.95 58.54L206.91 58.51L206.96 58.56Q207.53 54.39 214.72 54.31L214.73 54.32L214.61 54.20Q222.85 54.07 225.67 54.44L225.79 54.57L225.65 54.42Q233.22 55.55 234.11 59.47L234.20 59.56L234.18 59.54Q234.33 60.65 234.33 61.40L234.39 61.46L234.29 61.35Q234.38 62.79 234.01 63.97L234.00 63.96L233.94 63.89Q232.69 72.06 226.99 75.03L227.17 75.21L227.11 75.15Q233.86 76.64 234.82 86.94L234.83 86.94L234.82 86.93Q234.77 87.18 234.84 89.70L235.01 89.86L234.99 89.85Q235.11 95.15 231.99 97.22L231.94 97.17L231.92 97.14Q229.24 98.84 220.34 99.73ZM224.87 104.33L224.80 104.26L231.40 104.49L231.37 104.45Q234.70 104.60 237.67 103.19L237.61 103.14L237.58 103.11Q239.81 101.71 239.96 98.08L239.99 98.10L240.00 98.11Q240.21 96.11 239.47 92.33L239.41 92.26L239.44 92.29Q237.57 83.17 233.50 79.54L233.44 79.47L233.08 78.75L232.82 78.34L232.41 77.70L232.44 77.74Q235.76 75.20 237.54 67.12L237.43 67.02L237.48 67.06Q237.45 66.30 237.60 64.67L237.57 64.64L237.64 64.71Q237.69 63.28 237.54 62.09L237.55 62.10L237.63 62.18Q237.35 59.38 235.06 58.42L234.98 58.34L235.14 58.43L234.75 58.19L234.64 58.07Q234.28 56.83 231.98 55.27L231.83 55.12L231.96 55.17L231.99 55.21Q228.05 53.79 220.13 53.42L220.21 53.51L220.19 53.48Q217.23 53.34 214.57 53.56L214.49 53.49L214.45 53.45Q212.96 53.59 210.44 53.88L210.46 53.90L210.38 53.83Q206.69 54.65 206.24 57.84L206.16 57.75L206.16 57.76Q206.16 58.79 206.23 60.34L206.18 60.29L206.12 60.24Q206.47 61.40 207.58 65.99L207.45 65.86L207.57 65.98Q209.14 72.29 212.54 74.88L212.39 74.73L212.67 75.01L212.60 74.94Q207.18 77.45 206.14 87.52L206.10 87.49L206.18 87.56Q205.78 91.83 205.78 93.61L205.89 93.72L205.74 93.57Q205.86 97.03 208.16 98.80L208.21 98.86L208.33 98.98Q208.38 98.95 208.90 99.32L209.00 99.42L208.91 99.33Q210.93 103.80 224.79 104.24ZM224.19 82.75L224.26 82.83L224.13 82.69Q225.91 82.55 227.62 83.44L227.70 83.52L227.61 83.43Q228.45 85.46 228.38 86.49L228.40 86.52L228.26 86.38Q228.51 87.14 228.51 87.73L228.38 87.61L228.48 87.71Q228.50 92.32 224.05 93.95L224.06 93.95L223.98 93.88Q222.43 94.47 220.87 94.25L220.90 94.28L220.76 94.14Q218.67 94.42 216.45 93.54L216.49 93.57L216.56 93.64Q215.89 92.24 216.04 90.31L216.21 90.47L216.20 90.47Q216.42 87.28 218.76 84.91L218.74 84.90L218.73 84.89Q221.01 82.46 224.12 82.68ZM224.69 64.36L224.54 64.20L224.61 64.28Q226.15 64.04 227.19 64.34L227.22 64.37L227.24 65.94L227.30 66.00Q227.17 68.62 225.40 70.58L225.39 70.57L225.49 70.67Q223.63 72.56 220.96 72.18L220.95 72.18L220.96 72.18Q219.16 72.31 218.35 71.87L218.31 71.84L218.34 71.86Q218.27 71.35 218.05 70.02L217.89 69.86L218.04 70.01Q217.39 67.13 219.76 65.50L219.72 65.47L219.75 65.49Q221.89 64.22 224.63 64.29Z"/><path d="M21 37 C155 124,188 82,326 72" stroke="#71e74a" fill="none"/><path d="M7 32 C152 59,153 3,324 134" stroke="#e28282" fill="none"/><path d="M6 79 C190 96,155 22,339 94" stroke="#dd6986" fill="none"/><path d="M13 88 C183 42,176 20,341 5" stroke="#8868e8" fill="none"/><path d="M18 66 C162 72,167 65,322 133" stroke="#92e6bc" fill="none"/><path d="M17 131 C183 54,164 27,323 33" stroke="#ea93d4" fill="none"/><path d="M20 30 C179 88,170 85,337 15" stroke="#6ee7e7" fill="none"/><path fill="#67e467" d="M108.88 66.91L108.80 66.84L108.81 66.85Q102.59 66.85 99.03 64.78L99.11 64.86L98.99 64.73Q103.98 62.17 113.47 53.94L113.40 53.88L113.51 53.99Q114.84 53.54 117.36 52.35L117.41 52.40L117.41 52.40Q114.74 63.89 114.52 76.26L114.60 76.34L114.46 76.20Q114.34 88.67 116.41 100.53L116.46 100.58L116.50 100.62Q113.10 99.08 108.95 98.85L108.94 98.84L109.08 98.98Q108.75 90.80 108.75 82.87L108.84 82.96L108.69 82.81Q108.75 74.86 108.82 66.86ZM108.03 71.18L108.16 99.69L108.15 99.68Q110.54 99.70 112.39 100.07L112.33 100.01L112.30 99.98Q112.44 101.31 112.81 103.97L112.91 104.07L112.79 103.95Q118.32 104.96 123.06 109.33L123.16 109.43L123.19 109.46Q118.24 95.47 118.16 80.94L118.32 81.10L118.30 81.08Q118.07 66.48 121.63 52.40L121.66 52.43L121.75 52.52Q120.60 53.22 117.49 55.37L117.47 55.35L117.43 55.31Q117.89 53.92 118.48 50.96L118.40 50.87L118.47 50.94Q115.84 52.39 113.03 53.13L113.06 53.17L113.06 53.16Q105.68 60.09 97.31 64.53L97.40 64.63L97.29 64.51Q100.07 66.71 104.67 67.37L104.65 67.36L104.77 67.48Q103.50 68.50 100.98 70.58L100.99 70.59L100.96 70.56Q103.89 71.34 108.19 71.34L108.15 71.30Z"/><path d="M20 57 C183 79,183 34,338 90" stroke="#d542d5" fill="none"/><path d="M20 121 C174 78,186 133,332 99" stroke="#7de7e7" fill="none"/><path d="M2 99 C189 88,175 96,335 65" stroke="#e971cb" fill="none"/><path fill="#efa389" d="M272.47 93.11L272.45 93.10L272.60 93.24Q274.81 95.01 277.55 94.71L277.61 94.77L277.42 94.58Q283.32 95.14 284.58 88.62L284.47 88.51L284.40 88.45Q285.68 82.39 285.68 75.79L285.61 75.72L285.73 70.80L285.69 70.76Q285.66 68.29 285.00 65.85L285.07 65.92L285.05 65.90Q282.56 70.31 278.71 79.57L278.84 79.70L278.71 79.57Q275.02 88.99 272.65 93.29ZM282.25 61.03L282.28 61.05L282.42 61.20Q280.13 59.57 277.53 59.57L277.61 59.64L277.52 59.56Q274.62 59.25 272.47 61.03L272.48 61.03L272.53 61.09Q270.39 62.87 270.02 65.76L270.03 65.77L269.97 65.72Q269.21 68.28 269.13 71.17L269.23 71.27L269.21 71.25Q269.22 71.26 269.22 76.82L269.22 76.82L269.31 76.91Q269.20 81.40 270.09 88.44L270.14 88.48L270.16 88.50Q273.80 79.18 282.32 61.10ZM285.39 97.73L285.35 97.69L285.28 97.63Q282.06 99.58 277.54 99.58L277.52 99.57L274.24 99.47L274.21 99.44Q267.91 99.44 265.69 96.11L265.70 96.12L265.83 96.25Q264.12 91.88 263.98 86.17L264.02 86.22L264.06 86.25Q264.04 82.90 263.89 76.16L263.72 75.99L263.72 75.99Q263.76 73.74 263.47 67.81L263.41 67.75L263.37 67.71Q263.38 63.42 263.97 59.57L263.97 59.57L263.90 59.50Q264.78 53.71 273.23 53.26L273.35 53.39L273.25 53.28Q274.79 53.26 277.38 53.34L277.37 53.32L277.32 53.28Q288.46 53.67 290.53 60.42L290.44 60.33L290.50 60.39Q291.66 64.06 291.58 67.69L291.50 67.61L291.52 67.63Q291.35 77.32 291.21 79.69L291.33 79.81L291.29 79.77Q291.01 87.27 290.42 89.79L290.41 89.78L290.32 89.70Q289.05 95.76 285.34 97.68ZM295.05 97.32L294.94 97.20L294.92 97.19Q295.50 91.91 295.43 88.43L295.34 88.34L295.18 79.36L295.21 79.39Q294.99 73.46 293.95 62.72L294.04 62.81L293.98 62.75Q293.04 59.29 290.52 57.81L290.52 57.81L290.55 57.84Q287.54 52.91 277.46 52.61L277.30 52.45L277.30 52.45Q275.72 52.49 273.12 52.57L273.10 52.54L273.10 52.55Q264.25 52.66 263.29 58.73L263.33 58.78L263.25 58.70Q262.53 63.24 262.75 67.31L262.82 67.38L262.75 67.32Q263.45 75.87 263.38 82.39L263.28 82.29L263.45 82.46Q263.29 89.57 263.52 91.57L263.52 91.57L263.47 91.52Q264.24 97.55 267.20 99.10L267.21 99.11L267.30 99.20Q270.01 103.32 277.79 103.84L277.83 103.88L277.84 103.89Q284.80 104.33 286.06 104.25L286.10 104.29L286.04 104.23Q291.62 103.97 293.85 100.85L293.90 100.91L293.98 100.99Q294.92 99.63 295.07 97.34ZM278.35 94.02L278.20 93.87L278.17 93.84Q279.69 91.21 281.76 85.95L281.74 85.93L284.96 77.59L284.93 77.56Q284.86 80.75 284.12 87.27L284.10 87.26L284.20 87.35Q282.97 93.01 278.30 93.97ZM274.45 70.05L274.38 69.98L274.44 70.04Q275.23 66.46 276.57 65.34L276.64 65.41L276.55 65.33Q277.57 64.64 280.09 64.27L279.98 64.17L280.10 64.28Q276.63 71.26 272.99 80.30L273.06 80.37L273.14 80.44Q273.04 75.08 274.37 69.97Z"/><path d="M19 93 C179 75,176 117,341 113" stroke="#77e8af" fill="none"/><path d="M11 102 C165 2,157 12,331 78" stroke="#dd6e4a" fill="none"/><path d="M5 32 C186 90,176 55,327 84" stroke="#cf71ee" fill="none"/><path d="M4 28 C180 11,178 126,331 102" stroke="#7979e1" fill="none"/><path d="M17 2 C154 47,162 118,333 108" stroke="#bcf088" fill="none"/><path d="M18 57 C176 81,191 100,323 102" stroke="#4898e9" fill="none"/><path d="M13 62 C172 40,172 54,331 25" stroke="#63ec86" fill="none"/><path d="M11 72 C184 117,171 56,335 61" stroke="#9e59e2" fill="none"/><path d="M9 15 C159 127,180 48,331 115" stroke="#d948b5" fill="none"/><path d="M13 122 C155 69,167 16,334 129" stroke="#ea89ea" fill="none"/><path d="M2 5 C152 64,151 67,335 43" stroke="#60e0a0" fill="none"/><path fill="#52da52" d="M164.46 59.57L164.37 59.48L161.39 59.76L161.48 59.85Q157.10 60.06 156.65 63.99L156.61 63.94L156.52 63.85Q156.45 65.34 156.52 67.27L156.57 67.31L156.55 67.29Q156.52 70.97 158.97 73.57L159.03 73.62L159.12 73.71Q161.46 76.21 165.17 75.91L165.28 76.02L165.09 75.83Q169.24 75.69 170.72 73.91L170.64 73.83L170.68 73.87Q172.82 72.15 173.34 67.78L173.33 67.77L173.26 67.70Q173.86 63.42 171.42 61.79L171.25 61.62L171.42 61.79Q169.69 60.20 164.50 59.61ZM176.31 77.64L176.26 77.59L173.67 81.97L173.71 82.01Q168.41 91.31 161.07 99.24L161.13 99.29L161.15 99.32Q157.94 99.58 152.68 101.14L152.66 101.12L152.65 101.11Q162.97 88.83 169.12 79.49L169.14 79.52L169.10 79.48Q167.09 80.72 163.90 80.87L163.92 80.89L163.98 80.94Q158.11 81.23 155.15 77.38L155.18 77.41L155.18 77.41Q152.83 74.31 150.68 65.42L150.65 65.40L150.61 65.35Q150.56 64.42 150.27 62.60L150.36 62.69L150.45 62.79Q150.04 60.86 150.04 59.97L150.05 59.98L149.97 59.90Q150.02 56.47 152.10 55.28L152.12 55.31L152.13 55.32Q154.51 53.84 158.14 53.84L158.20 53.90L158.15 53.85Q164.44 53.92 164.44 53.92L164.41 53.89L164.29 53.77Q168.55 53.88 170.99 54.25L171.12 54.37L171.11 54.37Q175.28 54.90 177.06 55.87L176.96 55.77L176.97 55.78Q179.67 57.29 180.04 60.70L179.91 60.57L180.02 60.68Q180.06 61.17 179.69 66.35L179.55 66.21L179.57 66.23Q178.87 70.42 178.42 72.05L178.50 72.13L178.46 72.09Q177.80 74.91 176.32 77.65ZM180.02 82.32L179.90 82.20L180.01 82.30Q181.77 77.84 182.81 69.47L182.81 69.48L182.85 69.51Q183.51 65.35 183.43 63.65L183.29 63.50L183.36 63.58Q183.28 59.94 180.99 58.16L180.90 58.08L180.45 58.00L180.46 58.01Q179.78 56.37 178.00 55.11L178.17 55.27L178.08 55.19Q173.67 53.29 164.33 52.99L164.23 52.90L164.32 52.98Q162.48 53.00 157.74 53.00L157.65 52.90L157.71 52.97Q154.26 52.92 151.37 54.26L151.48 54.37L151.49 54.38Q149.20 55.87 149.35 59.43L149.43 59.50L149.24 59.32Q149.65 61.14 150.02 65.06L150.00 65.04L150.05 65.09Q151.25 70.22 151.77 71.85L151.81 71.89L151.76 71.84Q152.79 75.39 154.64 77.91L154.68 77.94L154.74 78.01Q155.22 78.64 155.96 79.38L156.04 79.46L156.05 79.46Q156.46 80.24 157.72 82.02L157.81 82.12L157.81 82.11Q160.68 84.76 164.46 85.13L164.50 85.18L164.39 85.06Q160.64 90.21 157.61 93.92L157.61 93.92L150.58 102.45L150.66 102.53Q154.95 100.97 158.14 100.30L158.23 100.39L158.19 100.35Q156.79 102.14 153.76 105.48L153.63 105.35L153.70 105.42Q159.77 103.71 165.85 103.64L165.79 103.58L165.80 103.59Q170.38 98.61 178.83 84.53L178.70 84.41L178.71 84.56L178.76 84.61Q179.17 83.10 179.84 82.13ZM168.18 64.18L168.21 64.21L168.13 64.13Q169.41 64.00 170.29 64.22L170.32 64.24L170.31 64.23Q171.63 64.51 172.37 64.74L172.28 64.65L172.25 64.62Q172.46 65.35 172.61 66.16L172.74 66.29L172.74 66.29Q172.91 67.13 172.68 67.87L172.67 67.86L172.66 67.85Q172.42 71.01 170.12 73.16L170.30 73.34L170.25 73.29Q168.39 75.28 165.20 75.20L165.27 75.28L165.13 75.13Q164.33 75.15 161.37 74.56L161.38 74.57L161.48 74.67Q160.92 72.85 160.92 71.45L160.99 71.51L160.88 71.41Q160.87 71.03 160.87 70.58L160.84 70.55L160.78 70.49Q160.75 66.16 165.20 64.61L165.22 64.62L165.23 64.64Q166.50 64.13 168.13 64.13Z"/><path d="M12 51 C159 116,158 102,334 57" stroke="#e641e6" fill="none"/></svg>