<svg xmlns="http://www.w3.org/2000/svg" width="342" height="140" viewBox="0,0,342,140"><path d="M16 102 C168 87,174 65,328 34" stroke="#b637e1" fill="none"/><path fill="#3964e4" d="M69.64 73.86L69.59 73.81L69.53 73.76Q71.07 73.88 73.56 73.61L73.57 73.61L73.55 73.60Q73.44 74.70 73.44 75.85L73.38 75.79L73.39 78.01L73.50 78.13Q72.04 78.14 70.55 78.28L70.49 78.21L70.43 78.15Q68.96 78.23 67.48 78.16L67.52 78.20L67.56 78.25Q62.39 89.02 56.33 97.17L56.42 97.25L56.42 97.26Q51.95 98.37 49.66 99.44L49.66 99.44L49.62 99.41Q56.97 89.39 62.35 78.28L62.38 78.31L57.68 78.25L57.69 78.26Q57.73 75.95 57.52 73.59L57.48 73.54L57.50 73.57Q60.91 73.88 64.55 73.88L64.41 73.75L67.82 67.26L67.93 67.37Q69.65 63.98 71.80 61.15L71.70 61.05L71.78 61.13Q69.03 61.41 66.21 61.41L66.26 61.46L66.13 61.33Q55.44 61.41 48.78 57.51L48.82 57.55L47.53 54.38L47.66 54.51Q47.04 53.01 46.36 51.46L46.37 51.46L46.27 51.36Q53.99 56.05 64.08 56.46L64.18 56.55L64.16 56.54Q73.26 56.95 82.34 53.45L82.35 53.46L82.36 53.47Q81.96 54.14 81.08 55.69L81.11 55.72L81.02 55.63Q74.58 63.99 69.53 73.75ZM83.97 58.18L83.86 58.06L85.60 54.48L85.72 54.61Q83.94 55.39 80.98 56.67L81.07 56.76L81.32 56.13L81.42 56.23Q81.46 55.80 81.66 55.60L81.73 55.66L81.78 55.72Q82.37 54.42 83.65 52.07L83.68 52.10L83.76 52.18Q74.29 56.17 64.13 55.76L64.04 55.68L64.00 55.63Q53.41 55.20 44.99 49.96L45.06 50.02L45.11 50.07Q46.88 53.33 48.37 58.04L48.32 58.00L48.40 58.07Q50.23 59.10 51.65 59.64L51.61 59.60L51.79 59.77Q52.01 60.33 52.82 63.63L52.85 63.66L52.83 63.64Q58.34 65.79 68.10 65.52L68.13 65.55L68.13 65.56Q67.68 66.65 64.18 73.32L64.15 73.28L64.19 73.32Q60.48 73.24 56.98 72.91L56.87 72.80L57.02 72.95Q57.13 74.41 57.13 75.95L57.16 75.98L57.09 78.95L60.04 78.93L60.00 81.39L59.98 81.36Q53.14 94.51 48.23 100.84L48.19 100.80L48.14 100.75Q51.11 99.55 54.01 98.68L54.02 98.69L53.86 98.52Q52.64 100.14 50.22 103.16L50.24 103.18L50.38 103.33Q55.94 101.35 60.25 100.95L60.19 100.89L60.16 100.85Q65.46 94.32 70.98 82.34L70.83 82.18L77.03 82.67L77.00 82.64Q76.74 80.90 76.74 79.28L76.77 79.31L76.88 76.26L76.81 76.19Q76.33 76.17 75.35 76.24L75.46 76.35L75.34 76.23Q74.38 76.31 73.91 76.31L73.96 76.37L73.95 76.36Q73.89 76.09 73.96 75.82L73.91 75.78L73.96 75.36L73.97 75.37Q78.51 66.38 83.96 58.17Z"/><path d="M5 34 C170 42,171 25,322 28" stroke="#e7d397" fill="none"/><path d="M13 75 C187 130,178 34,332 23" stroke="#559ee6" fill="none"/><path d="M20 92 C175 21,161 42,336 120" stroke="#63ecec" fill="none"/><path d="M17 26 C162 13,158 106,331 54" stroke="#43b8df" fill="none"/><path d="M19 119 C176 119,151 68,337 38" stroke="#bae68e" fill="none"/><path d="M9 62 C185 100,157 53,330 61" stroke="#3ae73a" fill="none"/><path d="M12 87 C153 34,169 61,322 96" stroke="#f0f07f" fill="none"/><path fill="#e87149" d="M144.94 92.91L144.83 92.79L144.91 92.88Q145.42 94.60 146.36 98.16L146.36 98.16L146.35 98.15Q138.95 95.86 130.81 96.34L130.62 96.15L130.62 96.15Q122.60 96.68 115.54 100.18L115.64 100.28L115.50 100.14Q116.03 99.06 116.09 99.19L116.15 99.24L116.04 99.14Q122.70 92.20 129.63 84.40L129.55 84.31L129.63 84.39Q137.34 75.48 139.43 67.20L139.44 67.22L139.44 67.21Q140.34 64.21 138.09 62.13L138.02 62.06L138.05 62.09Q135.70 59.91 132.54 60.18L132.56 60.20L132.52 60.16Q132.09 60.26 131.48 60.26L131.34 60.13L131.45 60.24Q128.78 60.26 126.56 61.87L126.50 61.82L126.38 61.69Q124.16 64.18 124.56 68.89L124.53 68.86L124.54 68.87Q121.46 68.35 119.30 67.54L119.22 67.46L119.23 67.47Q119.00 65.08 118.86 62.52L118.81 62.46L118.84 62.50Q118.61 59.51 119.69 57.49L119.70 57.50L119.84 57.64Q122.89 55.11 128.81 55.11L128.87 55.17L132.01 55.21L132.02 55.22Q136.05 55.28 137.73 55.48L137.72 55.47L137.72 55.47Q145.28 56.09 145.75 60.40L145.88 60.53L145.70 60.36Q146.02 61.55 145.89 62.96L145.70 62.77L145.77 62.85Q145.68 63.97 145.42 65.18L145.38 65.14L145.45 65.22Q142.63 79.63 129.24 91.74L129.26 91.76L129.15 91.65Q131.74 91.48 134.16 91.48L134.14 91.46L134.11 91.43Q139.80 91.40 144.84 92.81ZM143.75 55.91L143.84 56.00L143.85 56.01Q140.99 54.83 137.96 54.69L137.98 54.72L131.86 54.32L131.95 54.41Q124.02 53.88 120.12 55.83L120.20 55.92L120.18 55.89Q118.18 58.21 118.18 61.84L118.27 61.93L118.36 62.02Q118.23 63.10 118.77 68.08L118.95 68.27L118.90 68.21Q119.73 68.50 121.82 69.04L121.87 69.09L121.80 70.85L121.93 70.97Q121.90 71.81 122.03 72.75L121.90 72.62L122.05 72.77Q124.11 72.81 128.48 73.22L128.60 73.34L128.52 73.26Q128.47 72.60 128.47 71.99L128.43 71.95L128.44 71.97Q128.52 68.81 130.67 66.42L130.71 66.46L130.74 66.49Q132.84 64.05 136.01 64.25L136.06 64.31L135.94 64.19Q137.37 64.34 138.72 64.61L138.71 64.60L138.70 64.59Q138.89 65.25 139.02 65.99L138.99 65.96L138.91 65.88Q138.98 66.62 138.85 67.23L138.96 67.34L138.92 67.30Q136.73 75.74 128.92 84.29L128.89 84.26L128.98 84.34Q125.10 88.20 115.47 98.91L115.41 98.84L115.44 98.87Q115.23 100.48 114.62 101.49L114.48 101.35L114.53 101.40Q117.48 99.97 120.17 99.02L120.07 98.92L120.08 98.94Q118.77 99.92 117.09 102.54L117.05 102.50L117.11 102.56Q116.82 103.08 116.62 103.69L116.76 103.83L116.80 103.87Q125.25 100.07 134.94 100.41L135.12 100.58L134.99 100.45Q145.01 100.71 153.08 104.88L153.11 104.91L151.45 101.23L151.28 101.06Q150.27 98.84 149.80 97.43L149.76 97.39L149.83 97.46Q148.41 96.58 146.26 95.84L146.28 95.86L146.39 95.97Q146.06 94.63 145.39 92.21L145.36 92.18L145.40 92.22Q141.55 91.27 137.51 90.93L137.39 90.81L137.53 90.95Q145.76 82.82 148.45 68.22L148.37 68.14L148.67 62.98L148.76 63.07Q148.69 59.98 146.54 58.76L146.43 58.66L146.32 58.61L146.41 58.70Q146.38 58.61 146.25 58.61L146.17 58.53L146.26 58.62Q145.85 57.13 143.89 56.05Z"/><path d="M12 52 C176 83,179 45,334 131" stroke="#97bfe6" fill="none"/><path d="M12 128 C187 32,179 38,326 47" stroke="#e5a566" fill="none"/><path fill="#46e1e1" d="M194.16 91.02L194.15 91.01L194.20 91.06Q196.26 92.71 198.75 92.44L198.64 92.33L198.69 92.38Q203.81 92.66 204.96 86.74L205.04 86.83L205.06 86.84Q206.16 81.28 206.16 75.29L206.14 75.27L206.12 70.67L206.06 70.62Q206.20 68.53 205.59 66.31L205.46 66.18L205.60 66.32Q203.44 70.41 199.94 78.82L199.87 78.76L199.93 78.82Q196.30 87.10 194.14 91.00ZM203.11 61.94L203.06 61.89L203.11 61.94Q201.08 60.51 198.72 60.51L198.63 60.42L198.76 60.56Q196.05 60.19 194.09 61.81L194.11 61.82L194.19 61.91Q192.16 63.44 191.82 66.07L191.86 66.10L191.79 66.04Q191.24 68.51 191.17 71.14L191.20 71.16L191.23 71.20Q191.11 71.08 191.11 76.12L191.25 76.26L191.11 76.13Q191.09 80.28 191.90 86.67L191.91 86.68L191.91 86.68Q195.31 78.30 203.05 61.88ZM205.86 95.18L205.88 95.20L205.78 95.10Q202.82 96.85 198.71 96.85L198.56 96.70L195.71 96.74L195.85 96.88Q189.97 96.72 187.95 93.69L187.96 93.70L187.95 93.69Q186.69 90.01 186.55 84.82L186.43 84.70L186.48 84.75Q186.31 81.55 186.18 75.43L186.19 75.45L186.35 75.60Q186.18 73.35 185.91 67.96L185.91 67.97L185.97 68.02Q185.76 63.91 186.30 60.41L186.32 60.43L186.32 60.43Q187.20 55.25 194.87 54.85L194.83 54.81L194.79 54.76Q196.27 54.84 198.63 54.90L198.53 54.80L198.58 54.86Q208.56 55.07 210.44 61.20L210.45 61.21L210.48 61.23Q211.65 64.70 211.58 67.99L211.57 67.98L211.54 67.95Q211.44 76.80 211.31 78.95L211.18 78.83L211.14 78.79Q210.90 85.62 210.36 87.91L210.30 87.84L210.44 87.98Q209.29 93.49 205.92 95.24ZM214.52 94.68L214.59 94.75L214.60 94.77Q215.00 89.85 214.93 86.68L214.93 86.69L214.79 78.54L214.72 78.46Q214.67 73.23 213.73 63.47L213.81 63.56L213.81 63.56Q212.83 60.29 210.54 58.95L210.48 58.88L210.48 58.88Q207.69 54.34 198.54 54.07L198.60 54.13L198.49 54.03Q196.95 53.96 194.59 54.03L194.70 54.14L194.77 54.21Q186.58 54.17 185.71 59.68L185.75 59.72L185.71 59.68Q185.09 63.84 185.29 67.54L185.27 67.53L185.36 67.61Q185.90 75.29 185.83 81.21L185.84 81.22L185.90 81.28Q185.82 87.79 186.02 89.61L186.05 89.63L185.93 89.52Q186.66 95.02 189.35 96.43L189.34 96.43L189.28 96.36Q191.97 100.33 199.03 100.80L199.09 100.86L199.03 100.80Q205.38 101.23 206.53 101.16L206.48 101.11L206.62 101.25Q211.51 100.83 213.53 98.01L213.55 98.03L213.65 98.12Q214.37 96.76 214.51 94.67ZM199.32 91.67L199.47 91.82L199.47 91.82Q200.55 89.13 202.44 84.35L202.48 84.40L205.51 76.93L205.58 77.00Q205.54 79.92 204.87 85.84L204.81 85.78L204.80 85.78Q203.70 90.93 199.46 91.81ZM195.96 70.07L195.89 70.00L195.95 70.06Q196.65 66.78 197.86 65.77L197.87 65.79L197.90 65.81Q198.69 65.06 200.97 64.72L201.01 64.75L200.96 64.70Q197.88 71.12 194.59 79.33L194.73 79.48L194.77 79.51Q194.76 74.73 195.97 70.08Z"/><path d="M16 30 C187 106,174 21,336 71" stroke="#9fe787" fill="none"/><path d="M19 89 C151 7,192 44,340 96" stroke="#6384e7" fill="none"/><path d="M20 20 C180 54,157 43,328 47" stroke="#416ae6" fill="none"/><path d="M4 82 C163 69,150 86,337 76" stroke="#78e794" fill="none"/><path d="M18 99 C156 31,159 87,331 123" stroke="#559ee6" fill="none"/><path d="M17 90 C152 11,175 110,338 57" stroke="#96e645" fill="none"/><path fill="#79b2eb" d="M266.70 77.25L266.72 77.27L266.72 77.27Q263.56 77.14 261.37 79.66L261.33 79.62L261.37 79.66Q259.02 82.02 258.68 85.39L258.76 85.47L258.84 85.54Q258.28 89.03 260.20 90.74L260.31 90.85L260.29 90.83Q262.18 92.52 265.89 92.32L265.87 92.30L265.86 92.29Q269.71 92.17 271.66 90.96L271.49 90.79L271.58 90.88Q273.51 88.84 273.51 86.08L273.60 86.17L273.61 86.18Q273.59 85.48 273.45 84.81L273.43 84.79L273.54 84.90Q273.55 81.81 271.60 79.42L271.57 79.39L271.57 79.40Q269.59 76.98 266.63 77.18ZM265.99 96.94L266.01 96.96L266.02 96.96Q258.21 96.89 255.72 95.55L255.80 95.62L255.78 95.60Q253.87 94.17 253.54 91.14L253.59 91.20L253.50 91.11Q253.62 90.09 253.69 88.81L253.50 88.61L253.55 88.66Q253.81 86.98 253.81 86.17L253.81 86.17L253.75 86.11Q254.60 81.10 254.87 79.89L254.84 79.86L254.86 79.88Q255.64 76.42 257.12 73.93L257.16 73.97L257.13 73.94Q261.92 66.28 272.41 55.04L272.32 54.94L272.44 55.06Q277.08 54.45 280.98 53.03L280.99 53.04L280.95 53.01Q268.83 66.19 263.17 73.66L263.14 73.62L263.27 73.75Q264.95 72.80 267.23 72.80L267.18 72.75L267.34 72.92Q273.06 72.78 275.75 76.21L275.76 76.22L275.86 76.31Q278.15 79.15 278.76 85.41L278.80 85.45L278.73 85.38Q278.92 86.71 278.92 87.79L278.94 87.81L278.87 87.73Q278.92 93.30 275.01 95.19L274.96 95.13L274.96 95.14Q272.75 96.16 265.89 96.83ZM269.96 101.10L269.95 101.10L269.96 101.11Q272.33 101.12 275.83 101.26L275.82 101.25L275.83 101.26Q278.66 101.32 281.42 100.04L281.45 100.08L281.52 100.14Q283.44 98.70 283.44 95.54L283.46 95.56L283.42 95.52Q283.45 94.67 283.14 92.92L283.10 92.88L283.05 92.83Q282.86 91.19 282.86 90.39L282.85 90.38L282.82 90.34Q281.30 82.02 278.47 78.66L278.37 78.56L278.42 78.60Q278.33 78.45 278.06 78.05L277.97 77.96L277.55 77.67L277.28 77.47L277.27 77.45Q276.71 76.62 275.63 74.94L275.64 74.95L275.67 74.99Q274.13 73.37 270.63 72.56L270.54 72.48L270.55 72.48Q272.80 69.75 278.05 63.23L278.04 63.22L285.34 53.69L285.36 53.71Q282.67 55.33 278.43 56.67L278.37 56.62L278.53 56.77Q280.13 55.02 283.30 51.52L283.25 51.47L283.14 51.36Q278.89 53.23 272.03 54.24L272.20 54.42L272.19 54.40Q262.06 64.81 256.81 73.56L256.71 73.45L256.68 73.43Q254.14 78.02 253.13 89.05L253.08 89.01L252.99 88.92Q252.90 89.97 253.04 91.65L252.97 91.58L253.11 91.73Q253.18 94.76 255.14 96.38L255.17 96.41L255.13 96.37Q255.84 96.67 255.77 96.74L255.65 96.62L255.66 96.63Q256.39 98.30 257.80 99.04L257.91 99.15L257.87 99.11Q260.35 100.25 263.78 100.58L263.87 100.67L263.88 100.67Q263.88 100.68 270.07 101.21ZM269.69 81.39L269.66 81.35L269.70 81.39Q270.65 81.14 272.33 82.01L272.38 82.05L272.24 81.91Q272.92 83.68 272.92 84.82L272.89 84.79L272.99 84.89Q273.29 88.15 271.61 89.90L271.50 89.79L271.63 89.92Q269.64 91.09 265.94 91.63L266.07 91.77L265.95 91.64Q263.35 91.60 262.40 91.13L262.57 91.30L262.45 91.18Q262.06 90.32 262.06 89.78L262.07 89.78L262.11 89.83Q261.72 84.05 266.90 81.76L266.86 81.72L266.95 81.81Q268.26 81.17 269.61 81.30Z"/><path d="M18 71 C163 51,179 120,338 121" stroke="#7450e1" fill="none"/><path d="M4 132 C187 30,184 15,336 42" stroke="#ed8787" fill="none"/><path d="M14 69 C161 64,188 114,330 81" stroke="#e86888" fill="none"/><path d="M1 86 C161 13,166 15,322 137" stroke="#48d948" fill="none"/><path d="M14 107 C158 32,174 12,335 12" stroke="#7ce15a" fill="none"/><path d="M6 73 C183 59,189 11,335 56" stroke="#78ec78" fill="none"/><path d="M15 50 C165 65,156 97,335 22" stroke="#afec73" fill="none"/><path d="M7 26 C189 7,183 58,333 129" stroke="#e58484" fill="none"/><path d="M14 62 C187 105,163 133,323 57" stroke="#a86ee2" fill="none"/><path d="M4 126 C174 103,174 37,323 7" stroke="#bd50e1" fill="none"/><path d="M17 139 C158 103,171 28,330 57" stroke="#42eac0" fill="none"/><path d="M2 31 C192 129,164 118,324 24" stroke="#5c5ce4" fill="none"/><path d="M10 52 C171 7,175 7,323 17" stroke="#8ca1e3" fill="none"/><path d="M18 2 C179 91,160 45,332 25" stroke="#eea38a" fill="none"/><path d="M18 64 C156 80,184 95,324 100" stroke="#c9ed5e" fill="none"/><path d="M15 21 C173 106,172 12,330 46" stroke="#df5779" fill="none"/><path d="M20 134 C157 71,186 118,338 32" stroke="#91a8ed" fill="none"/><path d="M19 124 C152 46,180 39,340 104" stroke="#6aa8e5" fill="none"/><path d="M7 112 C158 64,172 77,332 44" stroke="#7fcce5" fill="none"/><path d="M10 132 C169 107,179 111,337 105" stroke="#5172d6" fill="none"/><path d="M2 39 C152 119,186 137,324 66" stroke="#7654dd" fill="none"/><path d="M13 10 C186 8,156 24,329 20" stroke="#6783da" fill="none"/><path d="M18 56 C191 102,179 30,339 62" stroke="#5cdfdf" fill="none"/><path d="M14 51 C188 132,185 15,333 39" stroke="#82e7b5" fill="none"/></svg>