<svg xmlns="http://www.w3.org/2000/svg" width="342" height="140" viewBox="0,0,342,140"><path d="M12 60 C159 71,167 110,335 31" stroke="#6febad" fill="none"/><path d="M19 96 C169 108,183 134,332 11" stroke="#80e4e4" fill="none"/><path d="M6 101 C182 91,159 45,325 75" stroke="#e96c8b" fill="none"/><path fill="#ec59c7" d="M199.67 66.98L199.77 67.08L199.76 67.06Q193.70 66.94 190.30 64.96L190.29 64.95L190.38 65.04Q194.96 62.41 204.01 54.56L204.01 54.57L204.11 54.66Q205.50 54.36 207.91 53.23L207.86 53.18L207.76 53.08Q205.37 64.19 205.16 76.00L205.19 76.04L205.13 75.98Q204.91 87.77 206.89 99.08L206.96 99.16L207.00 99.20Q203.92 97.88 199.96 97.67L199.81 97.52L199.90 97.60Q199.70 89.91 199.70 82.35L199.70 82.35L199.65 82.30Q199.57 74.59 199.64 66.95ZM198.98 71.16L198.93 98.20L198.94 98.20Q201.19 98.19 202.96 98.54L202.95 98.54L203.08 98.67Q203.17 99.89 203.53 102.44L203.50 102.41L203.53 102.44Q208.82 103.42 213.35 107.59L213.36 107.60L213.35 107.60Q208.86 94.48 208.79 80.62L208.62 80.45L208.62 80.45Q208.62 66.73 212.01 53.30L211.98 53.27L211.89 53.18Q211.03 54.09 208.06 56.14L207.96 56.04L207.99 56.07Q208.25 54.56 208.82 51.73L208.99 51.91L208.93 51.85Q206.38 53.19 203.70 53.90L203.75 53.95L203.84 54.04Q196.65 60.50 188.66 64.74L188.83 64.90L188.76 64.84Q191.30 66.81 195.68 67.44L195.81 67.58L195.74 67.50Q194.52 68.47 192.12 70.45L192.19 70.53L192.07 70.40Q194.90 71.18 199.00 71.18L198.93 71.12Z"/><path d="M21 78 C185 9,163 20,328 50" stroke="#a38aee" fill="none"/><path d="M9 137 C165 73,189 4,323 72" stroke="#e0e074" fill="none"/><path d="M3 65 C168 48,182 114,329 44" stroke="#a48ee5" fill="none"/><path d="M2 69 C187 103,182 51,323 31" stroke="#5050dc" fill="none"/><path d="M19 61 C188 54,152 114,329 137" stroke="#c975e5" fill="none"/><path d="M11 37 C169 75,152 72,333 21" stroke="#5151e0" fill="none"/><path d="M21 28 C166 104,179 119,326 106" stroke="#d84a4a" fill="none"/><path d="M9 25 C158 71,181 42,329 118" stroke="#e791a7" fill="none"/><path d="M19 3 C164 76,160 54,340 120" stroke="#79d859" fill="none"/><path d="M15 65 C180 9,155 91,330 7" stroke="#e4436b" fill="none"/><path d="M2 92 C168 38,192 138,335 123" stroke="#4bd791" fill="none"/><path fill="#4fe79b" d="M69.76 74.10L69.60 73.93L69.79 74.12Q71.22 74.07 73.84 73.79L73.74 73.69L73.81 73.76Q73.80 75.03 73.80 76.23L73.76 76.19L73.67 78.43L73.82 78.57Q72.26 78.58 70.71 78.72L70.67 78.68L70.69 78.70Q68.98 78.61 67.42 78.54L67.54 78.66L67.55 78.67Q62.17 90.04 55.80 98.60L55.91 98.70L55.76 98.55Q51.21 99.88 48.81 101.01L48.73 100.93L48.74 100.94Q56.44 90.40 62.10 78.73L62.02 78.65L57.20 78.71L57.15 78.66Q57.22 76.26 57.01 73.78L57.02 73.80L57.01 73.79Q60.44 73.97 64.26 73.97L64.36 74.07L67.82 67.13L67.95 67.26Q69.61 63.55 71.87 60.58L71.99 60.70L71.87 60.57Q69.03 60.92 66.07 60.92L66.16 61.02L66.15 61.01Q54.68 60.85 47.68 56.75L47.81 56.88L46.55 53.64L46.48 53.57Q45.99 52.16 45.28 50.53L45.19 50.44L45.32 50.57Q53.32 55.39 63.93 55.82L63.92 55.81L63.80 55.69Q73.51 56.28 83.05 52.60L83.00 52.55L83.06 52.61Q82.65 53.33 81.73 54.95L81.63 54.85L81.67 54.89Q75.04 63.82 69.74 74.07ZM84.78 57.58L84.71 57.51L86.62 53.84L86.48 53.69Q84.69 54.59 81.58 55.93L81.66 56.02L81.99 55.43L82.09 55.53Q82.14 55.08 82.35 54.87L82.40 54.91L82.41 54.93Q83.08 53.62 84.42 51.14L84.49 51.21L84.40 51.12Q74.62 55.48 63.95 55.06L63.97 55.09L63.83 54.94Q52.78 54.56 43.94 49.05L43.82 48.93L43.93 49.05Q45.87 52.53 47.42 57.48L47.29 57.35L47.32 57.38Q49.35 58.56 50.83 59.13L50.86 59.15L50.97 59.27Q51.11 59.75 51.96 63.22L51.94 63.20L51.99 63.25Q57.90 65.62 68.15 65.34L68.11 65.30L68.05 65.25Q67.48 66.30 63.80 73.30L63.81 73.30L63.81 73.31Q60.12 73.43 56.44 73.08L56.33 72.97L56.47 73.10Q56.55 74.60 56.55 76.22L56.50 76.17L56.49 79.34L59.57 79.31L59.59 81.95L59.74 82.11Q52.37 95.73 47.21 102.38L47.26 102.43L47.16 102.32Q50.15 100.93 53.19 100.01L53.20 100.02L53.23 100.05Q51.93 101.72 49.39 104.91L49.48 105.00L49.47 104.99Q55.37 102.97 59.89 102.55L59.75 102.40L59.70 102.35Q65.25 95.46 71.05 82.88L71.03 82.86L77.46 83.28L77.48 83.30Q77.34 81.60 77.34 79.90L77.17 79.74L77.22 76.46L77.34 76.59Q76.76 76.50 75.73 76.57L75.82 76.65L75.70 76.53Q74.68 76.61 74.19 76.61L74.15 76.58L74.16 76.59Q74.25 76.47 74.32 76.18L74.38 76.24L74.37 75.74L74.29 75.66Q79.00 66.15 84.72 57.52Z"/><path d="M2 52 C174 45,178 137,322 59" stroke="#e791d2" fill="none"/><path d="M5 107 C184 74,150 12,336 52" stroke="#6febad" fill="none"/><path d="M20 9 C185 15,180 37,339 29" stroke="#7ccde8" fill="none"/><path d="M11 135 C189 114,169 130,323 58" stroke="#52d5d5" fill="none"/><path fill="#3c3ce0" d="M281.35 94.02L281.36 94.03L281.30 93.97Q281.89 95.84 282.88 99.58L282.78 99.48L282.80 99.50Q275.01 97.09 266.46 97.58L266.46 97.58L266.41 97.53Q257.91 98.02 250.49 101.69L250.60 101.80L250.48 101.68Q250.94 100.44 251.01 100.58L250.97 100.55L250.94 100.52Q258.02 93.32 265.30 85.11L265.19 85.00L265.28 85.09Q273.40 75.75 275.59 67.05L275.70 67.16L275.57 67.03Q276.48 63.84 274.11 61.64L274.11 61.65L274.03 61.57Q271.68 59.39 268.35 59.67L268.44 59.76L268.35 59.67Q267.79 59.68 267.15 59.68L267.09 59.61L267.15 59.67Q264.29 59.63 261.95 61.33L261.93 61.31L262.00 61.38Q259.50 63.83 259.93 68.78L260.09 68.94L260.10 68.95Q256.79 68.33 254.52 67.48L254.47 67.42L254.43 67.38Q254.00 64.69 253.85 62.00L253.97 62.11L253.87 62.02Q253.84 59.09 254.98 56.97L254.93 56.92L254.90 56.89Q258.18 54.31 264.40 54.31L264.38 54.29L267.82 54.47L267.77 54.42Q271.93 54.41 273.70 54.62L273.73 54.66L273.73 54.66Q281.79 55.43 282.28 59.96L282.32 60.00L282.21 59.89Q282.43 61.02 282.29 62.51L282.19 62.41L282.23 62.45Q282.18 63.67 281.89 64.94L281.91 64.96L281.96 65.00Q278.91 80.06 264.84 92.78L264.85 92.79L264.86 92.80Q267.35 92.40 269.90 92.40L269.97 92.47L270.04 92.54Q276.00 92.49 281.31 93.98ZM280.15 55.21L280.24 55.30L280.30 55.36Q277.19 54.02 274.01 53.87L274.16 54.02L267.64 53.51L267.75 53.62Q259.53 53.18 255.43 55.23L255.44 55.25L255.28 55.08Q253.28 57.61 253.28 61.43L253.39 61.54L253.35 61.49Q253.49 62.91 254.06 68.14L254.07 68.15L254.06 68.15Q255.07 68.59 257.26 69.15L257.20 69.10L257.20 71.00L257.13 70.93Q257.12 71.84 257.26 72.83L257.30 72.87L257.31 72.88Q259.55 73.00 264.15 73.42L264.14 73.42L264.15 73.43Q264.05 72.69 264.05 72.05L264.10 72.10L264.20 72.20Q264.02 68.63 266.29 66.12L266.47 66.31L266.28 66.12Q268.59 63.66 271.91 63.87L272.00 63.95L271.92 63.88Q273.42 64.03 274.83 64.31L274.73 64.21L274.75 64.23Q275.09 65.07 275.24 65.85L275.10 65.71L275.12 65.73Q275.27 66.59 275.13 67.23L275.13 67.22L275.00 67.10Q272.77 76.04 264.57 85.02L264.56 85.01L264.52 84.97Q260.57 89.15 250.46 100.39L250.54 100.47L250.41 100.34Q250.13 101.97 249.50 103.03L249.47 103.01L249.47 103.00Q252.43 101.37 255.25 100.38L255.25 100.38L255.25 100.37Q253.99 101.52 252.23 104.28L252.14 104.20L252.16 104.21Q251.99 104.89 251.78 105.52L251.75 105.50L251.66 105.41Q260.70 101.58 270.88 101.93L270.97 102.02L271.04 102.09Q281.42 102.22 289.90 106.60L290.03 106.73L288.14 102.72L288.25 102.83Q286.89 100.20 286.40 98.72L286.46 98.78L286.39 98.71Q285.10 97.98 282.83 97.20L282.91 97.28L282.79 97.16Q282.53 95.84 281.82 93.29L281.96 93.43L281.79 93.26Q277.84 92.34 273.59 91.99L273.45 91.85L273.46 91.85Q282.23 83.45 285.06 68.11L284.98 68.03L285.36 62.68L285.40 62.72Q285.35 59.49 283.09 58.22L282.95 58.07L283.00 58.20L282.90 58.09Q282.92 58.05 282.78 58.05L282.64 57.91L282.79 58.06Q282.23 56.37 280.18 55.24Z"/><path d="M6 101 C183 9,158 65,332 126" stroke="#7feacf" fill="none"/><path d="M10 134 C188 92,172 75,341 81" stroke="#bce443" fill="none"/><path d="M13 78 C191 44,150 41,340 135" stroke="#82b5e7" fill="none"/><path d="M20 110 C165 110,158 24,336 53" stroke="#87e7cf" fill="none"/><path d="M9 122 C167 139,172 61,337 75" stroke="#9be084" fill="none"/><path d="M9 123 C177 120,152 11,331 28" stroke="#a4e68e" fill="none"/><path d="M15 94 C171 100,191 47,339 88" stroke="#ef7fb7" fill="none"/><path d="M11 44 C166 41,169 101,321 6" stroke="#e3967c" fill="none"/><path d="M11 87 C162 28,184 30,328 68" stroke="#e37753" fill="none"/><path d="M14 46 C156 98,190 109,336 84" stroke="#6fe68c" fill="none"/><path d="M2 64 C162 100,191 46,321 57" stroke="#da52da" fill="none"/><path d="M4 53 C168 130,178 127,337 67" stroke="#47ea70" fill="none"/><path d="M9 114 C188 17,187 62,334 109" stroke="#83e183" fill="none"/><path d="M17 66 C179 58,152 50,339 94" stroke="#dc4141" fill="none"/><path d="M2 3 C192 121,188 103,331 80" stroke="#79b2eb" fill="none"/><path d="M16 21 C174 1,185 105,338 124" stroke="#e6a564" fill="none"/><path d="M6 21 C155 37,159 27,335 97" stroke="#e56161" fill="none"/><path d="M17 137 C173 60,190 137,340 14" stroke="#66e586" fill="none"/><path d="M14 5 C176 62,192 135,326 31" stroke="#c983e1" fill="none"/><path d="M6 27 C162 15,182 62,330 115" stroke="#aaed68" fill="none"/><path d="M4 31 C171 42,184 117,334 108" stroke="#a062de" fill="none"/><path fill="#b932e5" d="M145.22 93.89L145.35 94.02L145.32 93.99Q145.83 95.77 146.82 99.52L146.76 99.47L146.89 99.59Q138.94 97.02 130.39 97.51L130.42 97.55L130.54 97.66Q122.01 98.11 114.59 101.79L114.59 101.80L114.53 101.73Q114.96 100.46 115.03 100.60L115.00 100.58L115.00 100.58Q122.03 93.33 129.31 85.13L129.28 85.10L129.26 85.07Q137.46 75.81 139.66 67.12L139.58 67.04L139.70 67.16Q140.52 63.88 138.15 61.69L138.07 61.61L138.08 61.62Q135.73 59.44 132.41 59.73L132.41 59.73L132.49 59.81Q131.84 59.72 131.20 59.72L131.18 59.70L131.22 59.75Q128.39 59.74 126.06 61.43L125.94 61.32L126.06 61.44Q123.57 63.89 123.99 68.84L124.09 68.94L124.01 68.86Q120.66 68.20 118.40 67.35L118.51 67.46L118.47 67.42Q118.02 64.71 117.88 62.02L117.97 62.11L117.98 62.13Q117.80 59.04 118.93 56.92L118.90 56.89L118.96 56.96Q122.24 54.37 128.46 54.37L128.49 54.40L131.70 54.36L131.71 54.36Q135.98 54.46 137.74 54.67L137.78 54.71L137.73 54.66Q145.78 55.42 146.27 59.95L146.26 59.93L146.27 59.95Q146.47 61.06 146.33 62.54L146.19 62.41L146.20 62.42Q146.16 63.65 145.87 64.92L146.00 65.05L145.97 65.02Q142.97 80.12 128.90 92.84L128.82 92.76L128.86 92.80Q131.48 92.52 134.02 92.52L134.02 92.52L134.05 92.54Q139.95 92.44 145.26 93.93ZM144.27 55.33L144.19 55.24L144.31 55.37Q141.21 54.03 138.03 53.89L138.14 54.01L131.80 53.68L131.74 53.61Q123.43 53.08 119.33 55.13L119.40 55.20L119.27 55.07Q117.30 57.62 117.30 61.44L117.37 61.52L117.31 61.45Q117.53 62.95 118.09 68.18L117.99 68.08L117.99 68.08Q119.01 68.53 121.20 69.09L121.26 69.15L121.17 70.97L121.21 71.02Q121.19 71.91 121.33 72.90L121.25 72.82L121.31 72.88Q123.59 73.03 128.18 73.46L128.27 73.55L128.17 73.45Q128.21 72.85 128.21 72.22L128.05 72.06L128.12 72.12Q128.03 68.64 130.30 66.13L130.37 66.21L130.47 66.31Q132.65 63.71 135.97 63.92L136.03 63.99L136.06 64.02Q137.41 64.02 138.82 64.30L138.87 64.35L138.78 64.26Q139.09 65.06 139.23 65.84L139.07 65.68L139.08 65.69Q139.29 66.60 139.14 67.24L138.98 67.08L139.12 67.21Q136.75 76.02 128.55 85.00L128.59 85.04L128.44 84.89Q124.48 89.06 114.37 100.30L114.49 100.42L114.41 100.34Q114.11 101.95 113.48 103.01L113.40 102.93L113.48 103.01Q116.42 101.36 119.25 100.37L119.18 100.31L119.18 100.31Q117.85 101.37 116.08 104.13L116.26 104.31L116.12 104.17Q116.05 104.95 115.84 105.59L115.72 105.47L115.75 105.50Q124.86 101.74 135.04 102.10L135.04 102.09L134.91 101.97Q145.52 102.32 154.00 106.70L153.97 106.67L152.10 102.68L152.09 102.66Q150.96 100.26 150.46 98.78L150.55 98.87L150.42 98.74Q149.05 97.93 146.79 97.16L146.81 97.18L146.77 97.14Q146.49 95.79 145.78 93.25L145.95 93.42L145.88 93.35Q141.69 92.20 137.45 91.84L137.56 91.95L137.58 91.98Q146.20 83.41 149.03 68.07L148.99 68.04L149.32 62.64L149.39 62.71Q149.26 59.40 147.00 58.13L147.02 58.14L146.98 58.18L146.91 58.11Q146.82 57.95 146.68 57.95L146.79 58.06L146.71 57.98Q146.19 56.33 144.14 55.20Z"/><path d="M2 53 C186 77,173 132,341 37" stroke="#45e6be" fill="none"/></svg>