<svg xmlns="http://www.w3.org/2000/svg" width="342" height="140" viewBox="0,0,342,140"><path d="M14 65 C181 26,168 41,326 129" stroke="#d688f1" fill="none"/><path fill="#8e8ee6" d="M58.34 74.05L58.48 74.19L58.40 74.12Q59.85 74.05 62.51 73.76L62.56 73.81L62.64 73.88Q62.44 74.98 62.44 76.20L62.55 76.32L62.53 78.67L62.41 78.55Q60.93 78.66 59.35 78.80L59.39 78.85L59.37 78.82Q57.78 78.90 56.20 78.83L56.20 78.83L56.10 78.73Q50.79 90.50 44.31 99.22L44.28 99.19L44.33 99.24Q39.51 100.40 37.06 101.55L37.12 101.62L37.11 101.61Q44.77 90.67 50.53 78.78L50.68 78.93L45.62 78.84L45.68 78.90Q45.67 76.37 45.46 73.85L45.44 73.84L45.37 73.77Q48.94 74.01 52.83 74.01L52.84 74.03L56.53 67.12L56.46 67.06Q58.48 63.60 60.79 60.57L60.73 60.51L60.67 60.46Q57.83 60.86 54.81 60.86L54.82 60.87L54.72 60.78Q43.10 60.68 35.96 56.50L36.04 56.58L34.92 53.44L34.90 53.42Q34.18 51.77 33.46 50.11L33.47 50.12L33.53 50.18Q41.60 55.01 52.41 55.44L52.49 55.52L52.57 55.60Q62.29 56.02 72.02 52.28L71.88 52.14L71.86 52.12Q71.62 53.03 70.69 54.69L70.66 54.66L70.60 54.60Q63.83 63.69 58.43 74.14ZM73.65 57.23L73.67 57.25L75.56 53.44L75.48 53.36Q73.71 54.32 70.54 55.69L70.54 55.70L70.86 55.08L70.90 55.12Q71.19 54.90 71.40 54.69L71.37 54.66L71.42 54.70Q72.19 53.45 73.56 50.93L73.52 50.90L73.36 50.74Q63.37 55.16 52.49 54.72L52.58 54.81L52.40 54.64Q41.15 54.27 32.14 48.64L32.18 48.69L32.05 48.55Q34.08 52.17 35.67 57.22L35.69 57.24L35.62 57.17Q37.73 58.41 39.24 58.99L39.28 59.03L39.33 59.07Q39.60 59.71 40.47 63.24L40.32 63.10L40.39 63.17Q46.42 65.59 56.87 65.30L56.75 65.18L56.85 65.28Q56.25 66.34 52.50 73.47L52.50 73.48L52.45 73.42Q48.64 73.50 44.89 73.14L44.92 73.17L44.78 73.03Q44.89 74.58 44.89 76.24L45.02 76.36L44.95 79.54L48.07 79.49L48.25 82.34L48.19 82.28Q40.80 96.28 35.54 103.06L35.42 102.94L35.39 102.91Q38.47 101.52 41.57 100.59L41.61 100.63L41.53 100.55Q40.33 102.38 37.74 105.62L37.77 105.66L37.69 105.57Q43.75 103.56 48.36 103.13L48.34 103.11L48.39 103.16Q53.86 95.94 59.77 83.12L59.76 83.11L66.31 83.53L66.23 83.45Q66.09 81.73 66.09 80.00L66.12 80.03L66.20 76.72L66.03 76.55Q65.60 76.63 64.56 76.70L64.52 76.67L64.55 76.69Q63.60 76.86 63.10 76.86L63.00 76.76L62.93 76.69Q62.93 76.48 63.01 76.20L62.99 76.17L63.11 75.80L63.07 75.76Q67.84 66.04 73.67 57.25Z"/><path d="M1 70 C174 98,161 99,340 118" stroke="#93e179" fill="none"/><path fill="#c0e551" d="M214.90 99.02L214.83 98.95L214.88 99.00Q212.17 99.10 209.22 98.31L209.33 98.42L209.29 98.38Q206.91 96.58 206.63 93.48L206.76 93.61L206.76 93.61Q206.56 93.13 206.92 88.16L207.07 88.31L206.97 88.20Q208.87 87.80 212.68 87.08L212.70 87.09L212.36 88.55L212.31 88.51Q211.97 91.98 214.63 93.06L214.56 92.99L214.48 92.91Q216.03 93.60 220.00 93.60L219.97 93.57L220.03 93.63Q223.15 93.43 223.51 93.29L223.34 93.12L223.33 93.11Q225.08 92.85 226.45 91.91L226.48 91.93L226.48 91.93Q229.16 90.15 228.80 86.18L228.79 86.18L228.87 86.25Q228.41 81.55 225.14 78.59L225.19 78.64L225.12 78.58Q221.87 75.65 217.18 75.65L217.28 75.75L217.25 75.28L217.31 75.34Q217.93 75.17 219.59 75.03L219.57 75.01L219.57 75.01Q223.17 74.79 225.76 72.45L225.73 72.41L225.89 72.57Q228.48 70.23 228.77 66.70L228.71 66.64L228.59 66.52Q228.89 66.03 228.89 65.38L228.93 65.41L228.76 65.25Q228.84 62.44 226.24 60.71L226.29 60.76L226.22 60.69Q223.84 59.10 220.81 59.32L220.85 59.36L220.90 59.40Q218.44 59.11 216.13 59.90L216.16 59.93L216.09 59.86Q213.31 60.82 212.74 62.99L212.85 63.10L212.81 63.06Q212.48 64.53 212.62 65.97L212.52 65.87L212.71 66.06Q210.73 65.60 206.84 64.23L206.77 64.15L206.73 64.12Q206.43 61.08 206.50 59.49L206.45 59.44L206.37 59.36Q206.56 56.45 208.58 55.16L208.63 55.20L208.67 55.25Q211.34 54.10 214.36 54.10L214.36 54.09L214.31 54.04Q220.34 54.01 226.32 54.52L226.34 54.54L226.36 54.56Q235.98 55.39 235.41 62.53L235.35 62.47L235.37 62.49Q235.26 65.33 234.32 68.29L234.16 68.13L234.20 68.16Q232.46 73.99 227.99 75.72L228.13 75.86L228.04 75.77Q233.04 76.81 234.19 83.15L234.19 83.15L234.15 83.11Q234.59 85.27 234.73 89.09L234.66 89.02L234.71 89.07Q235.05 97.55 226.33 98.41L226.24 98.33L226.27 98.36Q224.92 98.52 214.91 99.03ZM224.83 103.33L224.76 103.26L224.85 103.35Q225.87 103.29 231.28 103.44L231.32 103.48L231.44 103.60Q234.59 103.58 237.69 102.35L237.79 102.45L237.67 102.33Q239.90 100.53 239.54 97.21L239.64 97.31L239.67 97.35Q239.38 94.75 238.81 91.44L238.93 91.56L238.83 91.46Q237.47 82.97 233.80 79.87L233.77 79.84L233.41 79.13L233.33 78.97L233.28 78.92Q236.62 76.21 238.06 67.92L238.19 68.04L238.13 67.99Q238.26 67.18 238.48 65.38L238.40 65.30L238.48 65.38Q238.51 63.83 238.37 62.54L238.45 62.62L238.37 62.54Q238.03 59.32 235.58 58.02L235.77 58.20L235.62 58.20L235.58 58.16Q234.99 56.27 232.82 55.26L232.82 55.26L232.85 55.29Q229.96 53.98 220.23 53.40L220.21 53.38L220.22 53.39Q217.09 53.29 214.07 53.29L213.98 53.21L213.91 53.14Q210.86 53.11 207.98 54.34L208.12 54.48L208.04 54.40Q205.82 55.92 205.82 59.24L205.75 59.17L205.74 59.16Q205.68 58.31 206.19 64.65L206.18 64.65L206.20 64.67Q206.83 64.86 209.93 66.02L209.96 66.05L209.99 66.07Q210.00 67.10 209.93 68.04L209.90 68.01L209.86 67.96Q209.80 68.84 209.87 69.85L209.94 69.91L210.02 70.00Q213.37 70.68 217.19 70.90L217.15 70.86L217.09 70.80Q216.94 66.97 219.03 65.39L219.19 65.55L219.14 65.50Q220.60 64.15 224.42 63.72L224.53 63.82L224.57 63.87Q226.66 63.80 227.74 64.16L227.75 64.17L227.74 64.15Q227.79 64.34 227.86 64.56L227.85 64.55L227.89 64.96L228.15 66.08L228.20 66.13Q228.10 66.39 228.03 66.68L228.08 66.73L228.10 66.75Q227.92 69.95 225.03 72.19L225.09 72.24L225.07 72.22Q223.35 73.96 219.53 74.32L219.48 74.27L219.53 74.32Q218.13 74.58 216.47 74.58L216.40 74.51L216.49 74.60Q216.57 75.25 216.85 76.54L216.78 76.47L216.75 76.44Q220.03 76.41 222.77 77.78L222.80 77.81L222.71 77.93L219.66 78.19L219.71 78.25Q219.83 78.94 220.04 80.09L220.06 80.11L220.04 80.09Q224.04 79.91 227.28 82.43L227.23 82.38L227.17 82.33Q227.75 83.19 228.33 86.29L228.32 86.28L228.19 86.15Q228.57 91.72 223.02 92.51L223.00 92.49L223.14 92.63Q219.10 93.06 218.02 92.99L218.05 93.02L218.11 93.07Q217.18 92.80 216.17 92.65L216.10 92.58L216.22 91.84L216.32 90.86L216.38 90.12L216.52 89.61L216.59 89.68Q214.80 89.84 213.28 90.20L213.22 90.13L213.28 90.19Q213.05 89.60 213.05 89.24L213.08 89.27L213.20 89.40Q213.25 89.01 213.25 88.58L213.11 88.44L213.27 88.60Q213.25 87.71 213.53 86.34L213.50 86.31L213.55 86.35Q209.95 86.72 206.42 87.37L206.40 87.35L206.57 87.52Q206.54 88.42 206.32 90.55L206.36 90.58L206.27 90.50Q206.06 92.63 206.06 93.78L206.07 93.79L206.10 93.82Q206.18 97.65 208.77 99.09L208.77 99.09L208.89 99.21Q211.54 103.37 220.48 103.01L220.48 103.01L220.53 103.06Q221.88 102.97 224.76 103.26Z"/><path fill="#9141e1" d="M122.79 94.41L122.83 94.44L122.83 94.45Q123.38 96.30 124.39 100.12L124.45 100.18L124.37 100.09Q116.34 97.55 107.62 98.05L107.60 98.03L107.77 98.20Q99.11 98.69 91.55 102.44L91.55 102.44L91.39 102.28Q91.89 101.05 91.96 101.20L91.88 101.12L92.03 101.26Q99.06 93.74 106.48 85.38L106.53 85.43L106.35 85.25Q114.80 75.90 117.04 67.04L117.10 67.10L117.02 67.02Q117.87 63.69 115.46 61.46L115.48 61.48L115.43 61.43Q113.02 59.20 109.64 59.49L109.66 59.52L109.63 59.49Q108.96 59.39 108.31 59.39L108.38 59.46L108.42 59.50Q105.58 59.54 103.20 61.27L103.15 61.22L103.17 61.24Q100.69 63.81 101.12 68.85L101.03 68.76L101.03 68.76Q97.71 68.17 95.40 67.31L95.33 67.24L95.48 67.38Q95.10 64.70 94.96 61.96L94.95 61.95L94.90 61.91Q94.76 58.82 95.92 56.65L95.92 56.66L96.03 56.77Q99.30 54.06 105.64 54.06L105.62 54.04L109.00 54.10L108.97 54.07Q113.24 54.09 115.04 54.31L115.15 54.41L115.14 54.41Q123.35 55.19 123.85 59.80L123.88 59.83L123.74 59.69Q124.05 60.93 123.90 62.45L123.81 62.35L123.78 62.33Q123.69 63.53 123.40 64.82L123.48 64.91L123.55 64.97Q120.35 80.23 106.01 93.20L106.05 93.24L106.08 93.27Q108.74 92.97 111.34 92.97L111.27 92.90L111.33 92.97Q117.43 92.94 122.84 94.46ZM121.71 55.00L121.69 54.97L121.71 55.00Q118.65 53.74 115.41 53.59L115.52 53.70L109.02 53.32L108.94 53.25Q100.50 52.74 96.32 54.83L96.29 54.79L96.33 54.83Q94.42 57.54 94.42 61.43L94.43 61.44L94.38 61.39Q94.42 62.72 94.99 68.05L94.90 67.96L94.93 67.99Q96.04 68.53 98.28 69.10L98.21 69.03L98.25 71.02L98.19 70.96Q98.25 71.96 98.39 72.97L98.38 72.95L98.35 72.92Q100.74 73.16 105.43 73.59L105.30 73.46L105.34 73.50Q105.27 72.78 105.27 72.13L105.20 72.07L105.24 72.11Q105.39 68.80 107.70 66.24L107.66 66.20L107.60 66.14Q109.83 63.51 113.22 63.73L113.27 63.78L113.33 63.84Q114.68 63.82 116.12 64.11L116.20 64.18L116.11 64.09Q116.43 64.92 116.57 65.71L116.46 65.59L116.55 65.69Q116.61 66.46 116.46 67.11L116.50 67.15L116.41 67.06Q114.15 76.19 105.79 85.34L105.79 85.34L105.67 85.21Q101.67 89.51 91.37 100.96L91.38 100.98L91.41 101.00Q91.04 102.58 90.39 103.66L90.40 103.67L90.42 103.69Q93.50 102.08 96.38 101.07L96.34 101.03L96.35 101.04Q94.91 102.05 93.11 104.86L93.10 104.86L93.18 104.93Q92.83 105.45 92.61 106.10L92.65 106.14L92.78 106.26Q101.93 102.30 112.30 102.66L112.20 102.55L112.37 102.72Q123.11 103.02 131.76 107.49L131.72 107.45L129.90 103.46L129.85 103.42Q128.64 100.91 128.14 99.39L128.09 99.35L128.10 99.36Q126.76 98.60 124.46 97.81L124.31 97.66L124.46 97.80Q124.15 96.41 123.42 93.82L123.34 93.73L123.45 93.84Q119.20 92.69 114.87 92.33L114.97 92.43L114.97 92.43Q123.76 83.71 126.64 68.07L126.68 68.11L127.03 62.62L127.08 62.67Q126.89 59.23 124.58 57.94L124.49 57.85L124.45 57.88L124.39 57.82Q124.49 57.84 124.34 57.84L124.24 57.73L124.16 57.66Q123.85 56.20 121.76 55.05Z"/><path d="M4 16 C157 36,153 27,341 98" stroke="#d380ee" fill="none"/><path d="M19 41 C176 136,152 102,334 131" stroke="#c975e5" fill="none"/><path d="M9 28 C187 47,151 36,334 47" stroke="#69aaec" fill="none"/><path d="M10 55 C177 37,160 93,339 85" stroke="#539be3" fill="none"/><path d="M20 125 C187 136,184 21,338 83" stroke="#e15a7c" fill="none"/><path d="M16 5 C166 12,170 46,341 21" stroke="#dbb851" fill="none"/><path d="M9 101 C180 119,187 91,335 45" stroke="#74e6c9" fill="none"/><path fill="#a560eb" d="M285.16 74.20L285.08 74.12L285.07 74.11Q286.48 74.01 289.14 73.72L289.21 73.79L289.27 73.85Q289.13 75.01 289.13 76.23L289.15 76.24L289.14 78.61L289.14 78.62Q287.68 78.74 286.09 78.88L285.99 78.78L286.06 78.85Q284.51 78.96 282.92 78.88L282.92 78.88L282.80 78.77Q277.46 90.50 270.97 99.22L270.96 99.20L270.87 99.12Q266.19 100.41 263.74 101.56L263.72 101.55L263.63 101.46Q271.56 90.80 277.33 78.91L277.23 78.81L272.34 78.89L272.25 78.81Q272.31 76.34 272.09 73.82L272.14 73.87L272.06 73.79Q275.67 74.09 279.56 74.09L279.52 74.04L283.16 67.09L283.09 67.02Q284.98 63.44 287.29 60.41L287.30 60.42L287.40 60.52Q284.44 60.80 281.41 60.80L281.48 60.87L281.34 60.72Q269.88 60.80 262.75 56.62L262.71 56.58L261.48 53.33L261.41 53.27Q260.85 51.77 260.13 50.11L260.16 50.14L260.22 50.21Q268.44 55.18 279.25 55.62L279.14 55.50L279.12 55.48Q288.94 56.00 298.67 52.26L298.66 52.25L298.54 52.13Q298.34 53.09 297.41 54.75L297.40 54.74L297.36 54.70Q290.45 63.64 285.05 74.09ZM300.33 57.24L300.26 57.17L302.13 53.34L302.12 53.33Q300.42 54.38 297.25 55.75L297.21 55.70L297.66 55.22L297.62 55.17Q297.73 54.78 297.95 54.56L298.01 54.63L298.01 54.63Q298.75 53.35 300.12 50.83L300.16 50.86L300.07 50.78Q290.07 55.19 279.19 54.76L279.16 54.73L279.07 54.64Q267.83 54.28 258.82 48.66L258.79 48.62L258.86 48.70Q260.63 52.05 262.21 57.09L262.27 57.15L262.27 57.15Q264.33 58.34 265.84 58.92L265.93 59.01L265.81 58.89Q266.09 59.53 266.96 63.07L267.12 63.23L266.99 63.10Q272.98 65.48 283.42 65.19L283.56 65.33L283.49 65.25Q282.81 66.23 279.06 73.37L279.22 73.52L279.11 73.41Q275.17 73.36 271.42 73.00L271.59 73.17L271.47 73.05Q271.67 74.69 271.67 76.35L271.72 76.40L271.69 79.62L274.89 79.64L274.78 82.20L274.78 82.20Q267.49 96.31 262.23 103.09L262.21 103.07L262.23 103.09Q265.08 101.47 268.18 100.53L268.30 100.66L268.33 100.68Q266.95 102.33 264.36 105.57L264.44 105.66L264.42 105.63Q270.29 103.44 274.90 103.01L274.90 103.00L274.99 103.09Q280.54 95.95 286.44 83.13L286.36 83.04L292.92 83.48L292.99 83.55Q292.86 81.83 292.86 80.11L292.85 80.09L292.72 76.58L292.84 76.70Q292.20 76.56 291.16 76.64L291.27 76.75L291.19 76.66Q290.21 76.80 289.71 76.80L289.72 76.82L289.73 76.83Q289.58 76.46 289.65 76.18L289.67 76.19L289.74 75.76L289.79 75.81Q294.50 66.04 300.34 57.25Z"/><path d="M20 123 C173 58,172 76,325 20" stroke="#ed819c" fill="none"/><path d="M5 7 C164 17,188 59,337 100" stroke="#eebc8a" fill="none"/><path d="M20 121 C188 113,181 136,334 43" stroke="#61dfa0" fill="none"/><path d="M2 70 C184 94,171 99,324 134" stroke="#e58484" fill="none"/><path d="M13 33 C173 13,156 85,335 6" stroke="#e85dc6" fill="none"/><path d="M21 106 C188 5,178 18,325 139" stroke="#de6cc2" fill="none"/><path d="M19 134 C171 109,170 94,328 82" stroke="#bd5fdd" fill="none"/><path d="M12 81 C154 68,182 21,328 19" stroke="#6262e4" fill="none"/><path d="M16 114 C185 95,151 50,322 43" stroke="#e9a058" fill="none"/><path d="M2 102 C157 80,173 85,336 3" stroke="#afe07f" fill="none"/><path d="M17 95 C191 38,179 34,338 91" stroke="#52b4d5" fill="none"/><path d="M12 24 C170 99,172 129,340 129" stroke="#e35de3" fill="none"/><path d="M2 83 C154 101,182 77,341 2" stroke="#bbde53" fill="none"/><path d="M12 113 C183 71,166 139,332 99" stroke="#5ae67d" fill="none"/><path d="M1 67 C175 98,159 21,323 64" stroke="#ea9a7f" fill="none"/><path d="M15 103 C167 77,181 53,338 110" stroke="#e47676" fill="none"/><path d="M19 19 C179 112,185 130,337 27" stroke="#a561ea" fill="none"/><path d="M11 95 C151 44,167 96,330 37" stroke="#45d345" fill="none"/><path d="M6 132 C189 68,174 68,324 58" stroke="#8aea6a" fill="none"/><path d="M7 56 C185 51,187 84,339 30" stroke="#3fdeb6" fill="none"/><path d="M14 117 C155 33,162 67,329 83" stroke="#71e471" fill="none"/><path d="M4 93 C177 23,184 48,327 83" stroke="#45d78e" fill="none"/><path d="M15 58 C182 78,181 45,324 85" stroke="#92e6d1" fill="none"/><path d="M5 15 C154 46,168 38,335 59" stroke="#b63fde" fill="none"/><path d="M6 42 C181 38,185 58,321 3" stroke="#b581e8" fill="none"/><path d="M14 43 C174 26,160 69,332 133" stroke="#82ed5e" fill="none"/><path d="M2 137 C171 121,171 92,327 49" stroke="#d95878" fill="none"/><path fill="#e56a6a" d="M179.41 94.36L179.42 94.37L179.38 94.33Q180.05 96.29 181.05 100.11L181.15 100.21L180.99 100.05Q172.97 97.51 164.25 98.01L164.35 98.11L164.39 98.15Q155.73 98.64 148.16 102.39L148.07 102.30L148.20 102.43Q148.52 101.02 148.60 101.16L148.73 101.29L148.69 101.26Q155.62 93.63 163.04 85.27L163.15 85.39L163.04 85.27Q171.39 75.82 173.63 66.96L173.76 67.09L173.75 67.08Q174.59 63.74 172.17 61.51L172.18 61.51L172.18 61.52Q169.65 59.16 166.26 59.45L166.28 59.47L166.43 59.62Q165.74 59.51 165.09 59.51L165.07 59.49L164.98 59.40Q162.14 59.43 159.76 61.16L159.81 61.21L159.84 61.25Q157.35 63.80 157.79 68.85L157.77 68.84L157.70 68.76Q154.40 68.20 152.09 67.33L152.11 67.35L152.17 67.41Q151.78 64.71 151.64 61.98L151.55 61.89L151.56 61.90Q151.40 58.79 152.56 56.63L152.54 56.61L152.55 56.63Q155.93 54.02 162.27 54.02L162.27 54.01L165.67 54.10L165.70 54.14Q169.88 54.06 171.68 54.28L171.82 54.42L171.67 54.26Q179.97 55.15 180.48 59.76L180.54 59.83L180.51 59.79Q180.68 60.90 180.54 62.41L180.49 62.37L180.47 62.34Q180.36 63.53 180.07 64.83L180.16 64.91L180.15 64.91Q177.08 80.28 162.74 93.25L162.64 93.16L162.66 93.18Q165.42 92.98 168.01 92.98L168.04 93.01L167.89 92.86Q173.99 92.84 179.40 94.35ZM178.46 55.08L178.40 55.02L178.39 55.01Q175.28 53.70 172.04 53.55L172.03 53.55L165.66 53.30L165.65 53.29Q157.15 52.72 152.97 54.81L152.95 54.79L153.00 54.84Q151.07 57.52 151.07 61.41L150.93 61.27L150.96 61.30Q151.15 62.79 151.73 68.12L151.67 68.06L151.62 68.02Q152.68 68.50 154.91 69.07L154.80 68.96L154.80 70.91L154.98 71.09Q154.80 71.85 154.95 72.86L155.02 72.93L155.07 72.98Q157.35 73.10 162.04 73.53L162.09 73.58L161.96 73.45Q161.94 72.78 161.94 72.13L161.89 72.09L161.97 72.16Q161.91 68.65 164.22 66.09L164.25 66.13L164.29 66.16Q166.51 63.52 169.90 63.74L170.06 63.90L170.06 63.90Q171.39 63.86 172.83 64.15L172.92 64.23L172.79 64.10Q172.97 64.79 173.12 65.59L173.15 65.62L173.13 65.60Q173.34 66.53 173.19 67.18L173.12 67.10L173.10 67.09Q170.69 76.06 162.33 85.21L162.33 85.21L162.48 85.36Q158.33 89.50 148.03 100.96L148.06 100.98L148.08 101.01Q147.74 102.61 147.09 103.69L147.03 103.63L147.03 103.64Q150.11 102.03 152.99 101.02L153.02 101.05L152.93 100.95Q151.59 102.07 149.79 104.88L149.88 104.97L149.80 104.89Q149.53 105.49 149.32 106.14L149.37 106.19L149.42 106.24Q158.60 102.31 168.98 102.67L169.00 102.69L168.94 102.63Q179.68 102.92 188.32 107.38L188.30 107.36L186.51 103.41L186.54 103.44Q185.27 100.87 184.76 99.35L184.78 99.38L184.73 99.32Q183.40 98.57 181.09 97.77L181.07 97.76L181.07 97.75Q180.77 96.37 180.05 93.77L180.11 93.84L180.14 93.86Q175.78 92.60 171.45 92.24L171.65 92.44L171.61 92.40Q180.42 83.70 183.30 68.06L183.30 68.06L183.72 62.65L183.74 62.67Q183.46 59.14 181.15 57.84L181.22 57.91L181.07 57.83L181.09 57.85Q181.08 57.77 180.94 57.77L181.01 57.85L180.93 57.76Q180.58 56.26 178.49 55.11Z"/><path d="M14 23 C175 137,191 29,323 44" stroke="#56e09b" fill="none"/><path d="M4 48 C156 54,180 36,324 46" stroke="#35e8bb" fill="none"/><path d="M15 15 C171 81,177 3,340 76" stroke="#3fe83f" fill="none"/><path d="M8 65 C158 28,158 138,338 116" stroke="#c1de67" fill="none"/></svg>