<svg xmlns="http://www.w3.org/2000/svg" width="342" height="140" viewBox="0,0,342,140"><path d="M2 44 C186 81,178 109,325 90" stroke="#ebba89" fill="none"/><path d="M3 55 C175 33,168 113,325 81" stroke="#bce990" fill="none"/><path d="M1 55 C160 102,169 119,321 134" stroke="#d94848" fill="none"/><path d="M16 8 C175 87,158 55,327 102" stroke="#7452da" fill="none"/><path d="M15 75 C164 58,174 56,332 1" stroke="#df9075" fill="none"/><path d="M11 37 C165 109,183 56,341 87" stroke="#4ae7c0" fill="none"/><path d="M15 136 C154 107,154 85,330 88" stroke="#86e89e" fill="none"/><path d="M8 85 C164 25,162 125,323 98" stroke="#663ae7" fill="none"/><path d="M8 38 C162 50,170 102,327 72" stroke="#ed8cbc" fill="none"/><path d="M4 102 C168 21,169 128,339 11" stroke="#6941e1" fill="none"/><path d="M17 54 C155 44,153 71,334 50" stroke="#65eb86" fill="none"/><path d="M12 106 C187 35,170 74,335 133" stroke="#e6e692" fill="none"/><path d="M3 10 C156 84,181 122,337 61" stroke="#8e40dd" fill="none"/><path d="M6 12 C179 53,153 138,339 87" stroke="#d282ed" fill="none"/><path d="M19 39 C184 65,189 70,332 82" stroke="#d086e8" fill="none"/><path d="M5 86 C155 134,186 63,323 122" stroke="#bd4fe2" fill="none"/><path d="M1 95 C184 86,164 136,338 136" stroke="#8484ef" fill="none"/><path d="M9 16 C185 91,152 84,334 61" stroke="#e386b5" fill="none"/><path d="M11 50 C151 44,183 128,336 16" stroke="#e6e679" fill="none"/><path d="M9 107 C172 70,152 92,327 2" stroke="#b5d651" fill="none"/><path d="M13 82 C189 6,152 37,336 67" stroke="#e59b51" fill="none"/><path d="M18 58 C173 130,180 87,339 84" stroke="#6363e7" fill="none"/><path d="M14 33 C163 95,157 101,334 10" stroke="#e3ba90" fill="none"/><path fill="#42eaea" d="M143.93 90.35L143.97 90.38L143.88 90.29Q144.39 91.88 145.23 95.05L145.18 95.00L145.23 95.06Q138.62 92.99 131.38 93.41L131.30 93.33L131.29 93.32Q124.18 93.80 117.90 96.91L117.90 96.91L117.90 96.91Q118.29 95.87 118.35 95.99L118.24 95.88L118.27 95.91Q124.22 89.78 130.38 82.84L130.30 82.75L130.20 82.66Q137.16 74.84 139.01 67.48L139.04 67.51L139.17 67.63Q139.74 64.74 137.74 62.89L137.82 62.96L137.81 62.95Q135.72 61.01 132.90 61.25L133.00 61.34L133.06 61.41Q132.52 61.35 131.99 61.35L131.92 61.28L131.83 61.19Q129.58 61.34 127.61 62.77L127.48 62.65L127.52 62.68Q125.44 64.79 125.80 68.98L125.94 69.13L125.87 69.05Q122.97 68.42 121.05 67.71L121.20 67.85L121.20 67.85Q120.75 65.49 120.63 63.21L120.76 63.35L120.72 63.30Q120.66 60.79 121.61 58.99L121.51 58.89L121.59 58.97Q124.28 56.70 129.55 56.70L129.56 56.71L132.36 56.76L132.36 56.75Q136.00 56.87 137.49 57.05L137.56 57.11L137.39 56.94Q144.19 57.58 144.60 61.41L144.61 61.41L144.80 61.60Q144.78 62.36 144.67 63.62L144.68 63.63L144.76 63.72Q144.73 64.76 144.49 65.84L144.41 65.76L144.38 65.73Q141.74 78.40 129.83 89.17L129.83 89.17L129.92 89.25Q132.20 89.08 134.36 89.08L134.24 88.97L134.24 88.96Q139.45 89.09 143.93 90.35ZM142.91 57.49L142.91 57.50L143.01 57.60Q140.42 56.50 137.72 56.38L137.73 56.39L132.30 56.04L132.41 56.15Q125.36 55.68 121.89 57.41L121.90 57.43L121.83 57.35Q120.23 59.58 120.23 62.81L120.17 62.76L120.14 62.72Q120.35 64.01 120.83 68.44L120.75 68.36L120.76 68.37Q121.65 68.78 123.51 69.26L123.46 69.22L123.43 70.80L123.40 70.77Q123.49 71.63 123.61 72.47L123.58 72.45L123.51 72.38Q125.41 72.48 129.30 72.84L129.46 73.00L129.39 72.94Q129.23 72.24 129.23 71.70L129.38 71.84L129.35 71.81Q129.32 68.91 131.23 66.78L131.26 66.82L131.34 66.90Q133.15 64.66 135.96 64.84L135.91 64.80L135.99 64.87Q137.08 64.83 138.28 65.07L138.46 65.25L138.29 65.08Q138.56 65.77 138.67 66.42L138.70 66.44L138.76 66.51Q138.63 66.98 138.51 67.52L138.62 67.62L138.54 67.54Q136.62 75.08 129.68 82.68L129.76 82.75L129.77 82.76Q126.32 86.20 117.77 95.71L117.83 95.77L117.74 95.68Q117.52 97.07 116.98 97.97L117.01 98.00L116.97 97.96Q119.42 96.52 121.81 95.68L121.95 95.82L121.87 95.75Q120.66 96.57 119.17 98.90L119.31 99.05L119.23 98.97Q119.07 99.53 118.89 100.06L118.79 99.96L118.88 100.05Q126.46 96.74 135.07 97.04L135.20 97.17L135.09 97.05Q144.01 97.31 151.19 101.02L151.25 101.07L149.64 97.66L149.63 97.66Q148.67 95.62 148.25 94.36L148.26 94.37L148.23 94.34Q147.12 93.71 145.20 93.05L145.13 92.97L145.28 93.13Q144.90 91.85 144.30 89.70L144.31 89.71L144.29 89.69Q140.78 88.75 137.19 88.45L137.27 88.53L137.37 88.63Q144.61 81.33 147.00 68.35L147.06 68.41L147.27 63.77L147.38 63.88Q147.21 61.02 145.29 59.94L145.24 59.89L145.15 59.86L145.18 59.89Q145.23 59.88 145.11 59.88L145.07 59.84L145.01 59.78Q144.79 58.60 143.05 57.64Z"/><path d="M18 87 C168 9,151 117,335 23" stroke="#e1c779" fill="none"/><path fill="#dd59bc" d="M261.18 82.42L261.31 82.55L261.21 82.46Q266.14 81.94 271.17 82.12L271.19 82.14L271.21 82.16Q271.08 78.08 271.08 74.32L271.06 74.29L270.98 74.22Q271.12 70.47 271.42 66.46L271.40 66.44L271.46 66.49Q269.45 69.10 261.26 82.50ZM276.73 93.96L276.81 94.04L276.91 94.14Q274.13 93.52 271.32 93.40L271.30 93.38L271.47 93.55Q271.08 89.75 270.90 85.86L270.83 85.79L270.92 85.88Q262.47 85.51 255.05 87.72L255.19 87.86L255.12 87.79Q255.23 86.94 255.53 85.38L255.50 85.36L255.66 85.52Q258.45 80.53 264.08 70.66L264.01 70.60L264.08 70.66Q268.63 63.01 274.01 56.90L274.04 56.93L273.89 56.79Q275.31 56.53 277.94 56.11L277.85 56.02L277.88 56.05Q274.90 66.17 274.90 77.24L275.00 77.34L274.92 77.26Q275.04 79.71 275.16 82.05L275.10 81.98L277.14 82.17L277.14 82.17Q277.98 82.11 278.94 82.29L279.11 82.46L278.94 82.29Q279.30 84.03 279.72 87.08L279.65 87.02L279.65 87.01Q277.63 86.48 275.29 86.18L275.29 86.18L275.31 86.20Q275.83 89.54 276.91 94.14ZM279.43 81.77L279.47 81.81L279.46 81.80Q279.15 81.67 278.85 81.67L278.86 81.67L278.18 81.59L278.25 81.66Q278.16 79.42 278.16 77.20L278.02 77.07L277.99 77.04Q278.07 67.07 281.30 57.62L281.28 57.59L281.21 57.53Q280.05 57.98 277.77 58.57L277.86 58.66L277.88 58.68Q278.14 57.38 278.86 55.17L278.95 55.27L278.94 55.25Q276.89 55.83 273.66 56.19L273.59 56.12L273.55 56.09Q267.40 62.92 259.21 77.64L259.23 77.66L262.56 71.95L262.56 71.95Q261.84 73.51 261.42 74.41L261.48 74.47L254.45 88.61L254.57 88.73Q255.55 88.45 257.34 87.86L257.31 87.82L256.99 88.11L257.09 88.20Q256.84 89.21 256.36 91.18L256.39 91.21L256.43 91.25Q262.96 89.22 270.55 89.52L270.51 89.48L270.42 89.39Q270.61 91.01 270.90 94.12L270.93 94.14L270.75 93.97Q272.53 94.07 274.21 94.25L274.28 94.32L274.10 94.15Q274.35 95.23 274.77 97.39L274.89 97.51L274.77 97.39Q277.90 97.89 282.63 99.32L282.54 99.23L282.55 99.24Q281.08 95.98 279.64 90.83L279.60 90.79L281.85 91.48L281.78 91.41Q282.95 91.87 284.03 92.41L284.08 92.46L283.97 92.35Q282.82 88.50 282.58 85.87L282.59 85.89L282.58 85.87Q281.69 85.64 279.89 85.28L279.76 85.15L279.72 85.11Q279.39 83.11 279.39 81.73ZM266.79 81.45L266.95 81.61L266.89 81.55Q268.03 79.46 270.48 75.45L270.58 75.55L270.51 75.47Q270.54 77.00 270.48 78.50L270.43 78.45L270.57 78.59Q270.42 79.99 270.48 81.49L270.56 81.57L270.44 81.46Q269.70 81.55 268.80 81.55L268.77 81.52L268.80 81.54Q267.81 81.51 266.85 81.51Z"/><path d="M17 57 C182 7,174 8,334 82" stroke="#8cbcec" fill="none"/><path d="M10 47 C173 105,172 58,341 32" stroke="#83ebb7" fill="none"/><path d="M20 43 C151 48,156 54,321 80" stroke="#e1839a" fill="none"/><path d="M8 66 C188 65,172 29,331 116" stroke="#86eda0" fill="none"/><path fill="#e17993" d="M69.49 73.47L69.35 73.32L69.36 73.33Q70.74 73.46 72.96 73.22L72.88 73.15L72.89 73.15Q72.79 74.13 72.79 75.15L72.93 75.29L72.84 77.18L72.82 77.15Q71.51 77.16 70.20 77.28L70.19 77.27L70.15 77.24Q68.97 77.43 67.65 77.37L67.61 77.32L67.62 77.34Q63.06 86.95 57.67 94.19L57.78 94.30L57.68 94.20Q53.79 95.28 51.76 96.23L51.63 96.10L51.75 96.23Q58.27 87.31 63.05 77.44L62.90 77.29L58.80 77.31L58.85 77.36Q58.91 75.33 58.73 73.23L58.67 73.17L58.63 73.14Q61.70 73.45 64.93 73.45L64.92 73.44L67.79 67.52L67.80 67.52Q69.46 64.64 71.38 62.13L71.42 62.18L71.38 62.13Q68.82 62.26 66.31 62.26L66.40 62.35L66.43 62.38Q56.74 62.27 50.82 58.80L50.97 58.96L49.85 56.16L49.92 56.22Q49.33 54.86 48.73 53.49L48.83 53.58L48.68 53.43Q55.53 57.59 64.51 57.95L64.51 57.95L64.59 58.03Q72.68 58.41 80.75 55.29L80.65 55.19L80.76 55.31Q80.42 55.91 79.64 57.29L79.68 57.33L79.62 57.27Q74.02 64.83 69.53 73.50ZM82.15 59.44L82.06 59.35L83.66 56.23L83.61 56.18Q82.27 57.11 79.63 58.24L79.60 58.21L79.93 57.76L79.77 57.60Q80.03 57.44 80.21 57.26L80.17 57.22L80.18 57.23Q80.74 56.12 81.88 54.03L81.94 54.09L81.84 53.99Q73.52 57.63 64.49 57.27L64.47 57.25L64.46 57.25Q55.07 56.89 47.59 52.23L47.63 52.27L47.61 52.25Q49.20 55.15 50.52 59.34L50.50 59.32L50.49 59.31Q52.27 60.37 53.52 60.85L53.56 60.89L53.44 60.76Q53.80 61.42 54.51 64.35L54.53 64.36L54.40 64.24Q59.37 66.21 68.04 65.98L68.07 66.01L68.13 66.06Q67.65 66.95 64.54 72.88L64.50 72.84L64.55 72.89Q61.34 72.91 58.23 72.61L58.26 72.65L58.26 72.65Q58.36 73.94 58.36 75.32L58.35 75.31L58.34 77.98L61.00 78.02L60.96 80.19L60.88 80.10Q54.77 91.77 50.40 97.39L50.41 97.40L50.46 97.45Q52.91 96.19 55.49 95.41L55.47 95.40L55.49 95.42Q54.36 96.80 52.20 99.49L52.30 99.59L52.19 99.48Q57.24 97.83 61.07 97.47L61.13 97.52L61.15 97.55Q65.64 91.51 70.55 80.86L70.60 80.91L75.90 81.13L75.87 81.10Q75.78 79.70 75.78 78.26L75.88 78.36L75.90 75.57L75.83 75.50Q75.42 75.50 74.55 75.56L74.46 75.47L74.51 75.52Q73.68 75.62 73.26 75.62L73.30 75.66L73.31 75.67Q73.36 75.54 73.42 75.30L73.35 75.23L73.38 74.84L73.26 74.72Q77.34 66.77 82.18 59.47Z"/><path d="M20 70 C178 58,181 63,328 76" stroke="#d4d449" fill="none"/><path d="M20 29 C182 5,154 81,326 41" stroke="#d656b6" fill="none"/><path d="M2 94 C189 61,187 11,328 139" stroke="#53e39b" fill="none"/><path d="M19 90 C177 64,190 48,323 41" stroke="#dcba55" fill="none"/><path d="M20 96 C168 53,157 117,330 99" stroke="#6be443" fill="none"/><path d="M3 96 C161 77,163 98,337 26" stroke="#f088f0" fill="none"/><path d="M16 78 C177 19,163 97,324 61" stroke="#79e1c7" fill="none"/><path d="M6 50 C173 2,162 73,323 68" stroke="#77dec4" fill="none"/><path d="M16 84 C188 33,167 120,341 2" stroke="#6ae088" fill="none"/><path d="M14 24 C164 45,177 113,338 66" stroke="#7878e7" fill="none"/><path fill="#6ca5de" d="M195.36 94.26L195.33 94.23L195.30 94.20Q188.78 94.44 187.22 90.79L187.21 90.78L187.24 90.81Q188.48 89.35 190.93 86.54L191.05 86.66L191.03 86.64Q191.77 89.77 196.49 89.95L196.50 89.96L196.51 89.96Q201.88 90.14 204.45 88.04L204.41 88.00L204.32 87.91Q206.51 85.37 206.39 81.12L206.44 81.17L206.39 81.13Q206.18 73.19 198.64 73.55L198.69 73.60L198.60 73.51Q194.28 73.86 191.52 75.83L191.46 75.77L190.97 75.51L190.75 75.42L190.58 75.25Q191.27 70.43 191.09 66.13L190.94 65.98L190.94 65.97Q190.88 61.96 190.34 56.76L190.28 56.70L190.29 56.71Q196.04 58.21 202.02 58.03L202.01 58.02L201.96 57.97Q207.97 57.88 213.59 55.90L213.58 55.89L212.73 58.33L212.78 58.38Q212.19 59.47 211.89 60.78L211.87 60.76L212.03 60.92Q207.14 62.56 201.04 62.56L200.98 62.50L200.97 62.48Q198.77 62.55 196.43 62.31L196.29 62.17L196.24 62.12Q196.27 63.35 195.73 70.35L195.64 70.25L195.59 70.21Q197.05 69.63 200.28 69.39L200.22 69.33L200.24 69.35Q206.02 69.62 208.29 72.26L208.39 72.36L208.40 72.36Q210.60 74.81 211.02 80.85L210.90 80.72L210.99 80.82Q211.35 87.34 209.44 90.51L209.50 90.57L209.49 90.57Q206.25 93.49 201.05 93.85L201.11 93.91L201.02 93.82Q199.45 93.93 195.26 94.17ZM204.71 97.69L204.70 97.68L204.87 97.85Q210.07 97.79 213.06 96.05L213.25 96.24L213.17 96.16Q214.72 93.76 214.72 90.47L214.80 90.55L214.79 90.54Q214.77 85.68 213.28 79.22L213.22 79.16L213.29 79.23Q212.52 76.30 210.60 74.09L210.68 74.16L210.78 74.33L210.31 73.74L209.91 73.58L209.77 73.43Q209.31 72.32 208.30 71.24L208.45 71.40L208.32 71.33L208.41 71.42Q205.90 68.67 200.09 68.67L200.12 68.70L199.65 68.65L199.80 68.79Q199.78 67.76 200.08 66.02L200.18 66.12L200.16 66.10Q208.00 66.29 214.34 63.71L214.31 63.68L214.26 63.63Q214.95 61.45 216.44 57.02L216.48 57.06L213.30 58.66L213.19 58.55Q213.74 56.71 214.52 54.92L214.58 54.97L214.55 54.95Q208.46 57.17 201.99 57.29L202.17 57.46L202.11 57.40Q195.67 57.60 189.45 55.87L189.40 55.82L189.42 55.84Q190.50 62.78 190.50 69.72L190.44 69.66L190.40 69.62Q190.52 72.73 190.34 75.72L190.34 75.73L190.37 75.76Q190.65 75.91 191.55 76.39L191.64 76.48L191.57 76.42Q192.18 76.13 193.20 75.59L193.09 75.48L193.15 75.54Q193.12 76.77 192.76 79.16L192.78 79.18L192.82 79.22Q193.40 79.44 194.06 79.80L194.03 79.77L194.07 79.81Q198.36 76.99 201.30 76.99L201.37 77.07L201.29 76.98Q203.46 77.06 205.31 78.07L205.31 78.07L205.32 78.08Q205.86 79.69 205.92 81.19L205.96 81.23L205.82 81.09Q206.11 85.33 204.49 87.06L204.36 86.93L204.46 87.03Q202.21 88.85 198.68 89.21L198.65 89.18L198.75 89.28Q197.30 89.45 196.23 89.33L196.18 89.28L196.12 89.22Q194.90 89.13 193.70 88.60L193.70 88.59L193.52 88.12L193.38 88.33L193.48 88.43Q192.15 87.58 191.31 85.49L191.35 85.52L191.26 85.44Q189.19 87.67 186.56 91.02L186.55 91.02L186.68 91.14Q187.13 92.14 188.45 93.63L188.32 93.51L188.35 93.53Q190.11 96.49 194.54 97.27L194.49 97.22L194.58 97.31Q196.34 97.58 204.78 97.76Z"/><path d="M4 105 C173 86,151 92,324 36" stroke="#a569e1" fill="none"/><path d="M9 18 C164 63,152 71,335 102" stroke="#66dfa3" fill="none"/></svg>