<svg xmlns="http://www.w3.org/2000/svg" width="342" height="140" viewBox="0,0,342,140"><path d="M10 71 C168 77,161 21,328 84" stroke="#805ee8" fill="none"/><path d="M12 87 C186 116,188 102,323 94" stroke="#bfe64b" fill="none"/><path fill="#debc58" d="M199.98 67.24L199.89 67.15L199.95 67.21Q194.14 67.11 190.88 65.21L190.90 65.23L190.81 65.14Q195.35 62.74 204.05 55.19L204.12 55.26L204.03 55.17Q205.37 54.89 207.69 53.80L207.64 53.76L207.69 53.80Q205.33 64.43 205.13 75.78L205.07 75.73L205.12 75.78Q205.00 87.22 206.91 98.09L206.84 98.03L206.85 98.04Q203.75 96.63 199.94 96.43L199.97 96.46L199.98 96.47Q199.92 89.20 199.92 81.93L199.77 81.78L199.73 81.74Q199.90 74.57 199.97 67.23ZM199.28 71.23L199.23 97.21L199.23 97.22Q201.43 97.23 203.12 97.57L202.98 97.43L203.13 97.58Q203.27 98.81 203.61 101.26L203.65 101.30L203.62 101.27Q208.71 102.21 213.06 106.22L213.00 106.16L212.98 106.14Q208.66 93.53 208.59 80.20L208.48 80.09L208.58 80.19Q208.41 66.83 211.68 53.92L211.74 53.98L211.70 53.94Q210.68 54.62 207.83 56.60L207.83 56.60L207.82 56.59Q208.20 55.27 208.75 52.55L208.70 52.50L208.75 52.56Q206.25 53.79 203.67 54.47L203.86 54.67L203.79 54.59Q197.02 60.95 189.34 65.03L189.42 65.10L189.32 65.01Q191.95 67.09 196.16 67.71L196.18 67.72L196.13 67.67Q194.97 68.62 192.66 70.52L192.64 70.50L192.59 70.45Q195.27 71.16 199.22 71.16L199.30 71.25Z"/><path d="M16 83 C159 98,152 26,331 114" stroke="#9bdc5a" fill="none"/><path fill="#7c7ce3" d="M124.99 97.47L124.82 97.30L124.93 97.41Q122.50 97.63 119.71 96.88L119.71 96.88L119.55 96.72Q117.52 95.24 117.25 92.31L117.11 92.17L117.18 92.24Q117.14 91.93 117.48 87.24L117.44 87.19L117.36 87.12Q119.18 86.76 122.78 86.08L122.94 86.24L122.60 87.60L122.62 87.62Q122.05 90.65 124.56 91.67L124.56 91.67L124.60 91.71Q125.92 92.21 129.66 92.21L129.66 92.22L129.68 92.24Q132.69 92.12 133.03 91.98L132.98 91.93L132.95 91.90Q134.52 91.57 135.81 90.68L135.86 90.73L135.77 90.64Q138.30 88.96 137.96 85.22L137.95 85.20L137.98 85.24Q137.79 81.04 134.70 78.25L134.58 78.13L134.58 78.14Q131.49 75.35 127.08 75.35L127.01 75.29L127.00 74.87L127.04 74.90Q127.81 74.93 129.37 74.79L129.35 74.77L129.37 74.79Q132.67 74.49 135.12 72.28L135.13 72.29L135.11 72.27Q137.61 70.11 137.88 66.78L137.85 66.75L137.92 66.82Q138.00 66.16 138.00 65.55L137.95 65.50L138.05 65.60Q137.99 62.81 135.54 61.18L135.59 61.23L135.68 61.32Q133.45 59.84 130.60 60.04L130.57 60.02L130.53 59.98Q128.25 59.73 126.07 60.48L126.12 60.53L126.09 60.50Q123.51 61.45 122.96 63.49L122.87 63.40L123.00 63.52Q122.63 64.86 122.77 66.22L122.67 66.12L122.82 66.27Q120.90 65.78 117.23 64.48L117.16 64.41L117.16 64.41Q116.82 61.49 116.88 59.99L116.84 59.95L116.89 60.00Q117.16 57.35 119.07 56.13L118.99 56.04L118.91 55.97Q121.61 55.06 124.46 55.06L124.31 54.91L124.29 54.89Q130.05 54.95 135.70 55.42L135.70 55.42L135.68 55.40Q144.62 56.06 144.08 62.79L144.12 62.82L144.15 62.85Q144.08 65.57 143.19 68.36L143.09 68.25L143.08 68.25Q141.59 73.89 137.38 75.52L137.29 75.44L137.21 75.36Q142.06 76.47 143.15 82.45L143.11 82.41L143.03 82.33Q143.45 84.38 143.59 87.99L143.69 88.09L143.64 88.04Q143.95 96.03 135.72 96.84L135.57 96.69L135.62 96.75Q134.37 96.93 124.93 97.40ZM134.30 101.47L134.21 101.38L134.24 101.41Q135.41 101.57 140.51 101.70L140.32 101.52L140.36 101.55Q143.51 101.71 146.43 100.55L146.54 100.67L146.53 100.65Q148.59 98.90 148.25 95.78L148.24 95.76L148.33 95.86Q148.12 93.47 147.58 90.35L147.53 90.30L147.59 90.36Q146.14 82.18 142.68 79.26L142.71 79.30L142.34 78.58L142.28 78.46L142.39 78.57Q145.52 75.98 146.88 68.17L146.71 68.00L146.84 68.13Q146.94 67.34 147.14 65.64L147.12 65.62L147.17 65.67Q147.24 64.24 147.10 63.02L147.00 62.91L147.13 63.04Q146.74 59.94 144.43 58.71L144.48 58.77L144.33 58.76L144.39 58.81Q143.74 56.94 141.70 55.99L141.84 56.12L141.75 56.04Q139.12 54.90 129.95 54.36L129.93 54.35L129.92 54.34Q126.82 54.09 123.96 54.09L124.08 54.21L124.10 54.23Q121.27 54.25 118.55 55.41L118.47 55.32L118.38 55.24Q116.26 56.65 116.26 59.77L116.34 59.86L116.24 59.76Q116.36 59.13 116.84 65.12L116.81 65.09L116.81 65.08Q117.37 65.24 120.30 66.33L120.17 66.21L120.31 66.35Q120.27 67.25 120.20 68.14L120.19 68.13L120.13 68.07Q120.25 69.07 120.31 70.02L120.17 69.87L120.21 69.92Q123.37 70.56 126.97 70.76L127.07 70.86L127.00 70.79Q126.81 67.14 128.78 65.64L128.90 65.76L128.88 65.73Q130.42 64.62 134.02 64.21L134.00 64.20L133.98 64.17Q136.06 64.22 137.08 64.56L136.93 64.40L136.96 64.43Q137.05 64.66 137.12 64.87L137.20 64.94L137.19 65.27L137.45 66.35L137.27 66.17Q137.39 66.63 137.32 66.90L137.23 66.81L137.38 66.97Q137.18 69.95 134.46 72.06L134.34 71.95L134.40 72.00Q132.87 73.73 129.26 74.07L129.20 74.01L129.11 73.92Q127.98 74.36 126.42 74.36L126.43 74.36L126.40 74.33Q126.35 74.83 126.62 76.05L126.74 76.17L126.63 76.07Q129.83 76.13 132.41 77.42L132.44 77.45L132.24 77.46L129.39 77.74L129.33 77.67Q129.52 78.41 129.73 79.50L129.67 79.44L129.69 79.46Q133.54 79.37 136.60 81.75L136.57 81.72L136.51 81.65Q137.00 82.43 137.55 85.35L137.40 85.20L137.58 85.38Q137.85 90.54 132.61 91.29L132.64 91.31L132.66 91.34Q128.93 91.82 127.91 91.76L127.75 91.59L127.77 91.61Q127.07 91.53 126.12 91.39L126.07 91.34L126.11 90.57L126.21 89.65L126.41 89.10L126.33 88.40L126.44 88.52Q124.74 88.66 123.32 89.00L123.27 88.95L123.33 89.00Q123.18 88.52 123.18 88.18L123.19 88.19L123.29 88.29Q123.19 87.78 123.19 87.37L123.22 87.41L123.25 87.43Q123.36 86.73 123.64 85.44L123.53 85.34L123.70 85.50Q120.38 85.92 117.05 86.54L117.05 86.54L116.90 86.39Q117.06 87.43 116.86 89.44L116.77 89.35L116.67 89.25Q116.54 91.32 116.54 92.41L116.53 92.40L116.54 92.42Q116.73 96.14 119.18 97.50L119.18 97.50L119.17 97.50Q121.73 101.48 130.16 101.14L130.21 101.19L130.21 101.19Q131.42 101.04 134.14 101.32Z"/><path d="M17 84 C179 123,177 133,326 93" stroke="#82e7ce" fill="none"/><path d="M1 69 C171 123,170 18,340 45" stroke="#ea6aea" fill="none"/><path d="M2 127 C186 77,166 64,337 58" stroke="#89de6c" fill="none"/><path d="M13 48 C172 109,184 116,337 72" stroke="#ef7ab5" fill="none"/><path d="M6 48 C163 83,175 75,337 73" stroke="#dcdc4b" fill="none"/><path d="M1 15 C178 109,184 6,332 66" stroke="#da9857" fill="none"/><path d="M11 14 C164 19,182 127,333 112" stroke="#dede6c" fill="none"/><path d="M10 124 C191 103,164 35,338 55" stroke="#9d82ec" fill="none"/><path d="M2 58 C175 39,171 52,341 75" stroke="#e990d2" fill="none"/><path d="M20 71 C174 71,180 16,335 32" stroke="#8686e3" fill="none"/><path d="M11 21 C178 84,187 137,341 85" stroke="#b279eb" fill="none"/><path d="M20 49 C179 99,172 128,324 55" stroke="#e54293" fill="none"/><path d="M6 91 C169 16,154 130,328 135" stroke="#d34a8e" fill="none"/><path d="M6 22 C172 101,178 10,335 88" stroke="#8ce3e3" fill="none"/><path fill="#5ce9a3" d="M262.01 97.40L262.10 97.49L262.10 97.49Q254.89 97.96 253.13 93.82L253.13 93.82L253.06 93.75Q254.48 92.11 257.26 88.91L257.15 88.80L257.25 88.90Q258.03 92.40 263.41 92.61L263.48 92.68L263.39 92.59Q269.57 92.86 272.50 90.48L272.45 90.44L272.44 90.43Q274.91 87.53 274.77 82.70L274.71 82.64L274.76 82.69Q274.42 73.57 265.85 73.98L266.02 74.15L265.93 74.06Q260.91 74.35 257.79 76.59L257.88 76.68L257.17 76.24L256.84 76.05L256.88 76.09Q257.41 70.37 257.21 65.47L257.16 65.42L257.25 65.51Q257.11 60.89 256.50 54.98L256.38 54.85L256.49 54.97Q262.88 56.53 269.68 56.32L269.77 56.42L269.83 56.48Q276.65 56.37 283.04 54.12L282.87 53.95L282.02 56.84L281.98 56.80Q281.39 58.11 281.05 59.60L281.01 59.57L281.09 59.65Q275.45 61.41 268.51 61.41L268.57 61.47L268.46 61.37Q266.03 61.52 263.38 61.24L263.22 61.08L263.21 61.08Q263.16 62.38 262.55 70.34L262.50 70.28L262.46 70.25Q263.96 69.44 267.63 69.17L267.63 69.16L267.62 69.15Q274.38 69.66 276.96 72.65L276.89 72.58L276.92 72.61Q279.39 75.35 279.86 82.22L279.82 82.17L279.83 82.18Q280.29 89.65 278.12 93.25L278.25 93.38L278.17 93.30Q274.61 96.74 268.70 97.15L268.62 97.07L268.60 97.06Q266.82 97.18 262.07 97.46ZM272.79 101.45L272.80 101.46L272.97 101.63Q278.92 101.59 282.31 99.62L282.45 99.76L282.31 99.62Q284.20 97.02 284.20 93.28L284.26 93.34L284.25 93.33Q284.15 87.73 282.45 80.38L282.49 80.42L282.55 80.49Q281.87 77.35 279.69 74.83L279.52 74.67L279.69 74.90L279.32 74.40L278.70 74.05L278.64 73.99Q278.13 72.73 276.97 71.50L277.05 71.58L276.92 71.52L276.87 71.47Q274.17 68.49 267.57 68.49L267.69 68.62L267.23 68.63L267.12 68.52Q267.34 67.58 267.68 65.61L267.58 65.51L267.66 65.59Q276.57 65.80 283.78 62.88L283.69 62.79L283.83 62.93Q284.43 60.26 286.13 55.23L286.16 55.27L282.48 57.02L282.43 56.98Q283.06 54.89 283.95 52.85L283.99 52.90L284.06 52.96Q277.17 55.52 269.83 55.66L269.81 55.64L269.88 55.71Q262.55 55.92 255.48 53.95L255.43 53.90L255.44 53.92Q256.64 61.78 256.64 69.66L256.55 69.58L256.67 69.69Q256.72 73.15 256.52 76.55L256.48 76.51L256.41 76.44Q256.98 76.87 258.00 77.41L257.90 77.32L258.03 77.44Q258.56 76.96 259.72 76.35L259.78 76.41L259.75 76.37Q259.62 77.68 259.22 80.40L259.12 80.31L259.16 80.34Q259.89 80.66 260.63 81.07L260.72 81.15L260.63 81.07Q265.65 77.99 268.98 77.99L268.94 77.95L268.93 77.94Q271.37 78.01 273.48 79.16L273.56 79.24L273.46 79.14Q274.19 81.09 274.25 82.79L274.08 82.62L274.18 82.72Q274.40 87.43 272.57 89.40L272.39 89.22L272.53 89.36Q270.02 91.47 266.01 91.88L266.08 91.95L265.93 91.80Q264.33 92.03 263.10 91.90L263.13 91.93L263.07 91.87Q261.64 91.72 260.28 91.11L260.27 91.10L260.21 90.70L260.04 90.94L260.03 90.93Q258.52 89.96 257.57 87.59L257.58 87.60L257.66 87.67Q255.26 90.17 252.27 93.98L252.18 93.89L252.22 93.94Q252.77 95.09 254.27 96.79L254.26 96.79L254.18 96.71Q256.12 100.01 261.15 100.89L261.23 100.97L261.28 101.02Q263.36 101.40 272.94 101.60Z"/><path d="M19 37 C172 10,185 118,337 89" stroke="#a893e5" fill="none"/><path d="M15 17 C168 83,164 131,334 29" stroke="#8ae4b7" fill="none"/><path d="M19 105 C189 32,188 6,323 20" stroke="#33e48c" fill="none"/><path fill="#559be1" d="M69.58 73.82L69.68 73.92L69.61 73.86Q71.01 73.83 73.53 73.55L73.63 73.66L73.51 73.54Q73.52 74.77 73.52 75.93L73.43 75.84L73.53 78.18L73.50 78.15Q72.09 78.23 70.59 78.37L70.51 78.29L70.51 78.29Q68.92 78.27 67.43 78.20L67.49 78.26L67.52 78.29Q62.47 89.35 56.35 97.57L56.37 97.60L56.29 97.51Q51.74 98.61 49.43 99.70L49.53 99.79L49.49 99.76Q56.79 89.51 62.22 78.30L62.23 78.30L57.64 78.40L57.64 78.40Q57.66 76.04 57.46 73.66L57.46 73.67L57.43 73.64Q60.80 73.88 64.47 73.88L64.45 73.86L67.88 67.30L67.88 67.30Q69.63 63.88 71.80 61.02L71.83 61.05L71.82 61.04Q68.99 61.27 66.14 61.27L66.23 61.37L66.20 61.33Q55.32 61.33 48.59 57.38L48.54 57.34L47.43 54.32L47.39 54.29Q46.85 52.86 46.17 51.30L46.04 51.17L46.03 51.16Q53.78 55.85 63.98 56.26L64.08 56.36L64.09 56.37Q73.16 56.67 82.34 53.14L82.44 53.24L82.48 53.28Q82.01 53.89 81.13 55.46L81.18 55.51L81.22 55.55Q74.71 64.00 69.62 73.86ZM84.11 58.04L84.02 57.94L85.78 54.34L85.86 54.42Q84.06 55.20 81.07 56.49L81.06 56.48L81.51 56.04L81.54 56.08Q81.63 55.69 81.84 55.49L81.77 55.42L81.82 55.47Q82.57 54.32 83.86 51.94L83.85 51.93L83.90 51.98Q74.36 56.04 64.10 55.63L64.12 55.65L64.11 55.64Q53.27 55.07 44.77 49.76L44.81 49.80L44.92 49.91Q46.65 53.13 48.14 57.89L48.13 57.88L48.16 57.91Q50.02 58.96 51.45 59.50L51.59 59.64L51.51 59.56Q51.87 60.26 52.69 63.59L52.54 63.45L52.55 63.46Q58.21 65.72 68.07 65.45L68.24 65.61L68.20 65.57Q67.53 66.47 63.99 73.20L63.96 73.17L64.08 73.29Q60.45 73.33 56.92 72.99L56.89 72.96L56.93 73.00Q57.05 74.48 57.05 76.04L56.91 75.91L56.95 79.00L59.96 79.02L59.92 81.50L60.00 81.57Q53.05 94.81 48.08 101.20L47.93 101.05L48.11 101.23Q50.87 99.77 53.79 98.89L53.81 98.91L53.75 98.85Q52.57 100.53 50.12 103.59L50.05 103.51L50.20 103.66Q55.71 101.56 60.06 101.15L60.14 101.23L60.19 101.28Q65.38 94.51 70.96 82.40L71.02 82.47L77.08 82.75L77.01 82.68Q76.85 81.03 76.85 79.39L76.85 79.39L76.82 76.17L76.99 76.34Q76.40 76.23 75.42 76.30L75.51 76.39L75.45 76.33Q74.40 76.33 73.92 76.33L73.99 76.39L74.00 76.41Q73.88 76.09 73.95 75.82L74.15 76.01L74.09 75.47L74.11 75.50Q78.61 66.33 84.11 58.04Z"/><path d="M21 20 C167 51,172 52,330 10" stroke="#75e5ad" fill="none"/><path d="M9 14 C172 128,175 35,327 28" stroke="#d7b44b" fill="none"/><path d="M5 23 C191 32,172 126,340 43" stroke="#bf96e8" fill="none"/><path d="M15 26 C154 11,153 82,322 116" stroke="#e29e87" fill="none"/><path d="M8 87 C186 54,177 51,330 38" stroke="#d5f183" fill="none"/><path d="M12 15 C178 72,154 67,329 53" stroke="#e546be" fill="none"/><path d="M20 127 C160 11,165 99,333 43" stroke="#9ee15a" fill="none"/><path d="M16 16 C191 10,171 31,324 47" stroke="#eb6060" fill="none"/><path d="M7 70 C151 110,169 126,332 73" stroke="#e4ba8f" fill="none"/><path d="M21 65 C170 4,163 112,336 50" stroke="#dabe6c" fill="none"/><path d="M15 71 C191 133,154 88,329 23" stroke="#80e4b2" fill="none"/><path d="M4 100 C158 4,174 121,338 77" stroke="#b5e386" fill="none"/><path d="M8 25 C156 35,159 85,339 103" stroke="#45b7dd" fill="none"/><path d="M1 73 C163 123,176 19,332 20" stroke="#8ba2e8" fill="none"/><path d="M16 136 C154 112,151 46,330 55" stroke="#663edf" fill="none"/><path d="M21 27 C166 82,162 28,325 112" stroke="#e86888" fill="none"/><path d="M17 76 C189 88,161 33,331 124" stroke="#53d996" fill="none"/><path d="M7 32 C173 19,176 100,339 118" stroke="#d7458e" fill="none"/><path d="M1 14 C190 78,151 120,323 138" stroke="#e7a563" fill="none"/><path d="M7 106 C161 82,188 118,322 44" stroke="#d96d48" fill="none"/></svg>