<svg xmlns="http://www.w3.org/2000/svg" width="342" height="140" viewBox="0,0,342,140"><path d="M19 9 C158 33,169 119,337 5" stroke="#8ebae6" fill="none"/><path d="M21 68 C186 97,163 37,323 59" stroke="#8e8eeb" fill="none"/><path d="M20 130 C167 46,191 62,327 139" stroke="#8c45d3" fill="none"/><path d="M13 13 C179 54,179 29,326 119" stroke="#b5e287" fill="none"/><path d="M2 103 C161 1,171 26,323 19" stroke="#83e6e6" fill="none"/><path d="M9 64 C167 38,150 54,339 121" stroke="#eb8e6f" fill="none"/><path d="M12 130 C171 81,181 20,329 50" stroke="#92d1e6" fill="none"/><path d="M4 117 C184 32,189 10,328 124" stroke="#e94870" fill="none"/><path d="M8 29 C173 80,161 48,323 82" stroke="#ea93a9" fill="none"/><path d="M12 43 C182 83,168 124,332 42" stroke="#9e55e6" fill="none"/><path d="M5 110 C189 133,172 49,329 55" stroke="#99e150" fill="none"/><path d="M17 4 C176 86,183 68,331 71" stroke="#e26c45" fill="none"/><path d="M15 7 C175 63,179 44,326 54" stroke="#da7452" fill="none"/><path d="M16 54 C164 104,156 49,330 121" stroke="#8fe273" fill="none"/><path fill="#90e4cf" d="M221.87 76.74L221.99 76.86L221.85 76.72Q218.91 76.81 216.93 78.98L216.86 78.90L216.96 79.01Q214.97 81.16 214.73 84.26L214.77 84.30L214.68 84.21Q214.47 87.78 216.45 89.42L216.42 89.38L216.29 89.26Q218.42 91.05 221.88 90.92L221.72 90.76L221.81 90.85Q225.60 90.61 227.14 89.06L227.23 89.15L227.13 89.06Q228.79 86.69 228.60 83.72L228.55 83.66L228.72 83.83Q228.38 80.65 226.62 78.70L226.57 78.66L226.71 78.80Q224.94 76.84 221.97 76.84ZM221.84 61.43L221.96 61.55L221.94 61.53Q219.66 61.36 217.50 62.16L217.42 62.08L217.49 62.15Q215.24 63.31 215.61 66.34L215.76 66.49L215.77 66.50Q216.41 72.39 221.85 72.39L221.89 72.43L222.03 72.57Q224.48 72.80 226.09 70.94L225.99 70.84L226.16 71.01Q227.65 69.03 227.71 66.50L227.80 66.59L227.71 66.50Q227.92 63.74 226.75 62.75L226.65 62.65L226.64 62.64Q223.96 61.33 221.86 61.45ZM221.43 94.86L221.53 94.96L216.54 94.92L216.45 94.83Q214.02 94.87 211.85 93.45L211.82 93.41L211.94 93.54Q209.61 91.57 209.86 86.94L209.91 86.99L209.79 86.87Q210.69 75.89 216.56 74.28L216.53 74.25L216.58 74.29Q212.80 72.74 210.63 64.02L210.52 63.90L210.55 63.94Q210.03 61.68 210.15 60.38L210.11 60.34L210.09 60.32Q210.63 56.90 216.63 56.84L216.76 56.97L216.77 56.98Q223.47 56.69 225.82 57.00L225.91 57.09L225.99 57.16Q232.18 57.98 232.93 61.26L232.88 61.21L232.81 61.14Q233.07 62.20 233.07 62.82L233.15 62.90L232.99 62.74Q233.07 63.94 232.76 64.93L232.81 64.98L232.80 64.96Q231.76 71.79 227.00 74.26L227.09 74.35L227.01 74.27Q232.80 75.67 233.60 84.27L233.50 84.16L233.42 84.08Q233.46 84.37 233.52 86.47L233.47 86.43L233.62 86.57Q233.77 91.06 231.18 92.79L231.02 92.64L231.02 92.63Q228.84 94.11 221.42 94.85ZM225.15 98.64L225.13 98.62L230.55 98.72L230.53 98.70Q233.37 98.89 235.85 97.71L235.78 97.64L235.82 97.68Q237.79 96.62 237.91 93.58L237.81 93.49L237.77 93.45Q237.96 91.77 237.34 88.62L237.29 88.57L237.29 88.57Q235.85 81.07 232.45 78.04L232.39 77.98L232.12 77.41L231.85 77.01L231.54 76.51L231.59 76.56Q234.14 74.22 235.62 67.48L235.77 67.62L235.74 67.60Q235.71 66.95 235.83 65.59L235.87 65.63L235.86 65.61Q235.84 64.36 235.72 63.37L235.85 63.50L235.82 63.48Q235.56 61.11 233.64 60.30L233.57 60.24L233.77 60.37L233.38 60.10L233.44 60.16Q232.96 58.94 231.04 57.64L230.96 57.56L231.16 57.70L231.02 57.55Q227.80 56.44 221.18 56.13L221.21 56.16L221.21 56.16Q218.79 56.09 216.56 56.28L216.54 56.25L216.52 56.24Q215.21 56.29 213.11 56.53L213.09 56.52L213.17 56.60Q210.01 57.21 209.63 59.87L209.52 59.75L209.59 59.82Q209.54 60.64 209.61 61.94L209.49 61.82L209.52 61.86Q209.77 62.78 210.69 66.62L210.61 66.53L210.67 66.59Q211.89 71.77 214.74 73.94L214.83 74.03L215.00 74.20L215.02 74.22Q210.49 76.31 209.62 84.72L209.55 84.65L209.56 84.66Q209.18 88.18 209.18 89.66L209.26 89.75L209.32 89.80Q209.36 92.62 211.27 94.11L211.34 94.17L211.35 94.18Q211.53 94.30 211.97 94.61L212.00 94.65L211.85 94.50Q213.61 98.30 225.18 98.67ZM224.58 80.63L224.57 80.62L224.64 80.68Q226.05 80.49 227.48 81.23L227.52 81.27L227.58 81.34Q228.11 82.86 228.05 83.72L228.06 83.73L228.14 83.81Q228.14 84.25 228.14 84.74L228.15 84.76L228.11 84.71Q228.12 88.56 224.41 89.92L224.35 89.86L224.40 89.91Q223.12 90.42 221.82 90.24L221.84 90.26L221.74 90.16Q220.05 90.45 218.20 89.71L218.09 89.60L218.12 89.63Q217.79 88.69 217.92 87.08L217.84 87.00L217.90 87.06Q218.09 84.40 220.04 82.42L220.02 82.40L220.09 82.48Q221.95 80.41 224.55 80.60ZM224.97 65.24L224.87 65.14L225.01 65.28Q226.18 64.97 227.04 65.21L227.15 65.32L227.14 66.61L227.13 66.59Q227.14 68.89 225.65 70.53L225.67 70.55L225.61 70.49Q224.18 72.19 221.95 71.88L221.89 71.81L221.98 71.90Q220.32 71.85 219.64 71.48L219.64 71.48L219.66 71.50Q219.51 70.98 219.33 69.87L219.33 69.87L219.41 69.95Q218.96 67.64 220.94 66.28L220.92 66.27L220.86 66.20Q222.77 65.27 225.06 65.33Z"/><path d="M17 130 C179 31,190 118,337 49" stroke="#eded68" fill="none"/><path d="M5 108 C155 44,175 100,340 82" stroke="#dddd73" fill="none"/><path fill="#76eed0" d="M58.16 73.53L58.19 73.56L58.07 73.45Q59.50 73.57 61.79 73.33L61.70 73.24L61.65 73.19Q61.60 74.25 61.60 75.31L61.74 75.44L61.72 77.46L61.61 77.35Q60.37 77.48 59.01 77.60L58.86 77.46L58.95 77.55Q57.61 77.62 56.25 77.56L56.27 77.59L56.24 77.55Q51.52 87.50 45.95 94.98L46.05 95.08L46.04 95.07Q41.87 96.04 39.77 97.03L39.76 97.01L39.93 97.18Q46.48 87.77 51.43 77.57L51.41 77.55L47.18 77.59L47.19 77.60Q47.25 75.49 47.06 73.33L47.09 73.35L47.11 73.38Q50.13 73.55 53.47 73.55L53.39 73.46L56.53 67.52L56.55 67.54Q58.09 64.37 60.07 61.78L60.23 61.93L60.10 61.81Q57.62 62.11 55.02 62.11L54.90 61.99L55.01 62.09Q45.11 62.09 38.99 58.51L38.99 58.51L37.85 55.64L37.92 55.71Q37.41 54.40 36.79 52.97L36.75 52.93L36.79 52.97Q43.78 57.17 53.06 57.54L53.02 57.51L53.00 57.49Q61.43 57.93 69.78 54.72L69.86 54.80L69.72 54.66Q69.40 55.33 68.59 56.75L68.58 56.73L68.61 56.77Q62.83 64.59 58.19 73.56ZM71.30 59.08L71.33 59.11L72.83 55.73L72.88 55.77Q71.39 56.64 68.67 57.81L68.52 57.67L68.86 57.20L68.95 57.29Q69.15 57.06 69.33 56.87L69.22 56.75L69.34 56.88Q69.90 55.71 71.08 53.54L70.99 53.46L70.98 53.45Q62.34 57.17 53.00 56.80L53.02 56.82L53.07 56.87Q43.23 56.38 35.50 51.56L35.66 51.71L35.61 51.67Q37.21 54.62 38.57 58.95L38.64 59.02L38.62 59.01Q40.43 60.07 41.73 60.56L41.61 60.45L41.70 60.54Q41.97 61.12 42.71 64.15L42.70 64.13L42.68 64.12Q47.84 66.19 56.81 65.94L56.82 65.95L56.87 66.00Q56.33 66.88 53.12 73.01L52.99 72.88L53.16 73.05Q49.68 72.91 46.47 72.60L46.62 72.76L46.56 72.70Q46.58 73.96 46.58 75.38L46.56 75.36L46.60 78.18L49.27 78.13L49.28 80.43L49.37 80.52Q42.93 92.45 38.41 98.27L38.41 98.27L38.52 98.38Q41.10 97.12 43.76 96.32L43.81 96.36L43.71 96.27Q42.57 97.72 40.34 100.50L40.40 100.57L40.47 100.64Q45.47 98.70 49.43 98.33L49.51 98.42L49.43 98.33Q54.24 92.26 59.31 81.25L59.25 81.18L64.90 81.57L64.84 81.51Q64.72 80.03 64.72 78.54L64.77 78.59L64.79 75.71L64.74 75.66Q64.38 75.73 63.48 75.79L63.45 75.76L63.48 75.80Q62.56 75.83 62.13 75.83L62.17 75.87L62.09 75.79Q62.11 75.63 62.17 75.38L62.14 75.35L62.17 74.94L62.18 74.96Q66.19 66.53 71.20 58.98Z"/><path d="M4 71 C162 23,165 31,339 127" stroke="#ea426c" fill="none"/><path d="M2 81 C176 24,170 66,327 132" stroke="#5ce95c" fill="none"/><path fill="#b5e881" d="M159.83 94.85L159.86 94.87L159.97 94.98Q157.59 95.02 155.05 94.34L155.00 94.29L155.07 94.35Q153.07 92.85 152.82 90.19L152.79 90.16L152.79 90.16Q152.85 89.96 153.16 85.70L153.03 85.57L153.08 85.62Q154.69 85.25 157.97 84.63L158.16 84.82L157.67 85.88L157.75 85.96Q157.23 88.72 159.52 89.64L159.58 89.71L159.54 89.67Q160.92 90.31 164.33 90.31L164.31 90.29L164.27 90.26Q166.87 90.01 167.18 89.88L167.18 89.88L167.17 89.87Q168.67 89.64 169.85 88.84L169.79 88.79L169.88 88.87Q172.17 87.33 171.86 83.92L171.89 83.96L171.90 83.97Q171.51 79.92 168.70 77.39L168.80 77.49L168.66 77.35Q165.91 74.88 161.89 74.88L161.83 74.82L161.99 74.61L161.85 74.47Q162.51 74.45 163.94 74.33L163.91 74.30L164.03 74.42Q167.09 74.21 169.32 72.20L169.18 72.06L169.30 72.17Q171.51 70.15 171.75 67.12L171.75 67.11L171.73 67.09Q171.92 66.60 171.92 66.05L171.92 66.04L171.81 65.94Q171.87 63.52 169.64 62.03L169.61 62.01L169.72 62.11Q167.55 60.62 164.95 60.81L164.97 60.82L164.96 60.81Q163.03 60.75 161.05 61.43L160.87 61.24L161.04 61.41Q158.56 62.15 158.07 64.01L158.08 64.02L158.12 64.06Q157.74 65.22 157.86 66.46L157.97 66.56L158.02 66.62Q156.19 66.09 152.85 64.91L152.93 64.99L153.00 65.06Q152.65 62.36 152.71 61.00L152.61 60.90L152.53 60.82Q152.79 58.42 154.52 57.31L154.54 57.32L154.56 57.34Q156.79 56.30 159.39 56.30L159.47 56.37L159.35 56.26Q164.55 56.26 169.68 56.69L169.75 56.76L169.66 56.67Q177.93 57.39 177.44 63.52L177.38 63.46L177.51 63.59Q177.35 65.96 176.54 68.50L176.54 68.50L176.50 68.46Q174.91 73.37 171.08 74.85L171.24 75.02L171.13 74.90Q175.45 75.82 176.44 81.26L176.43 81.25L176.45 81.27Q176.89 83.20 177.02 86.48L176.98 86.44L176.86 86.33Q177.24 93.69 169.75 94.43L169.71 94.40L169.67 94.35Q168.51 94.50 159.92 94.93ZM168.42 98.61L168.42 98.61L168.47 98.66Q169.32 98.58 173.96 98.70L174.05 98.80L173.98 98.72Q176.78 98.80 179.44 97.75L179.57 97.88L179.60 97.91Q181.53 96.38 181.22 93.53L181.15 93.46L181.22 93.53Q181.04 91.37 180.55 88.53L180.53 88.51L180.49 88.47Q179.32 81.17 176.16 78.51L176.08 78.43L175.81 77.85L175.73 77.71L175.80 77.78Q178.62 75.40 179.85 68.28L179.75 68.19L179.83 68.26Q179.80 67.43 179.99 65.88L180.08 65.97L180.02 65.92Q180.21 64.75 180.09 63.63L180.05 63.59L180.12 63.66Q179.87 60.94 177.77 59.83L177.81 59.87L177.54 59.72L177.55 59.73Q177.05 58.12 175.19 57.25L175.30 57.36L175.28 57.34Q172.79 56.21 164.44 55.72L164.39 55.67L164.39 55.67Q161.74 55.61 159.14 55.61L159.17 55.64L159.11 55.58Q156.61 55.68 154.14 56.74L153.99 56.59L154.03 56.63Q152.11 57.92 152.11 60.77L152.11 60.77L152.14 60.80Q152.12 60.10 152.56 65.55L152.46 65.45L152.43 65.42Q153.00 65.62 155.66 66.61L155.57 66.52L155.58 66.52Q155.75 67.56 155.68 68.37L155.49 68.17L155.57 68.25Q155.59 69.08 155.65 69.94L155.72 70.01L155.66 69.95Q158.64 70.65 161.92 70.83L161.90 70.81L161.81 70.72Q161.72 67.47 163.51 66.11L163.58 66.18L163.60 66.20Q164.78 64.97 168.06 64.60L168.23 64.77L168.12 64.65Q170.00 64.68 170.93 64.99L171.01 65.08L170.92 64.98Q170.93 65.12 170.99 65.30L170.97 65.28L171.12 65.74L171.24 66.60L171.32 66.68Q171.21 66.88 171.15 67.13L171.15 67.12L171.22 67.20Q170.95 69.84 168.48 71.76L168.64 71.92L168.54 71.82Q167.18 73.43 163.90 73.74L163.88 73.72L163.87 73.71Q162.59 73.85 161.17 73.85L161.26 73.94L161.28 73.96Q161.30 74.47 161.54 75.59L161.46 75.50L161.49 75.54Q164.44 75.63 166.79 76.81L166.77 76.80L166.62 76.82L163.96 77.01L164.06 77.12Q164.06 77.60 164.24 78.59L164.24 78.59L164.15 78.50Q167.62 78.38 170.40 80.55L170.48 80.63L170.44 80.59Q170.83 81.22 171.32 83.88L171.32 83.87L171.37 83.93Q171.72 88.74 166.96 89.42L166.98 89.44L166.91 89.37Q163.50 89.79 162.57 89.73L162.66 89.82L162.61 89.77Q161.75 89.47 160.89 89.35L161.04 89.49L160.94 88.66L161.19 87.98L161.19 87.29L161.36 86.91L161.32 86.87Q159.68 86.90 158.38 87.21L158.37 87.20L158.39 87.22Q158.33 86.85 158.33 86.54L158.27 86.48L158.29 86.50Q158.52 86.36 158.52 85.99L158.49 85.96L158.42 85.88Q158.57 85.29 158.82 84.12L158.80 84.10L158.68 83.98Q155.65 84.35 152.62 84.91L152.64 84.93L152.62 84.92Q152.72 85.82 152.53 87.64L152.50 87.61L152.39 87.50Q152.38 89.50 152.38 90.49L152.29 90.40L152.35 90.45Q152.38 93.70 154.61 94.94L154.72 95.05L154.62 94.96Q157.12 98.75 164.79 98.44L164.81 98.46L164.84 98.49Q165.92 98.34 168.40 98.58Z"/><path d="M4 48 C186 58,164 71,333 12" stroke="#8585ef" fill="none"/><path d="M18 42 C169 28,177 112,334 130" stroke="#e05b5b" fill="none"/><path d="M9 68 C168 20,190 14,323 12" stroke="#92e377" fill="none"/><path d="M6 134 C157 25,155 102,333 115" stroke="#da47b6" fill="none"/><path fill="#de9e5e" d="M103.35 95.03L103.23 94.91L103.30 94.98Q100.90 95.00 98.37 94.32L98.41 94.36L98.35 94.30Q96.35 92.80 96.11 90.14L96.21 90.24L96.16 90.19Q96.11 89.89 96.42 85.62L96.44 85.65L96.38 85.59Q98.12 85.35 101.40 84.73L101.37 84.70L101.02 85.90L101.18 86.06Q100.60 88.76 102.89 89.68L102.90 89.69L102.85 89.65Q104.19 90.24 107.60 90.24L107.63 90.27L107.63 90.28Q110.21 90.01 110.51 89.88L110.51 89.88L110.60 89.97Q111.94 89.58 113.11 88.77L113.12 88.78L113.20 88.86Q115.51 87.33 115.20 83.93L115.28 84.01L115.15 83.88Q114.92 80.00 112.11 77.47L112.10 77.46L112.14 77.50Q109.35 74.99 105.33 74.99L105.33 74.99L105.17 74.46L105.28 74.57Q105.84 74.45 107.26 74.32L107.35 74.41L107.18 74.24Q110.29 74.07 112.51 72.06L112.53 72.08L112.55 72.09Q114.82 70.13 115.07 67.10L115.07 67.10L115.10 67.12Q115.20 66.55 115.20 65.99L115.18 65.97L115.14 65.93Q115.21 63.52 112.98 62.04L112.97 62.03L112.89 61.95Q111.08 60.82 108.48 61.01L108.43 60.95L108.39 60.92Q106.34 60.72 104.36 61.40L104.21 61.25L104.26 61.30Q101.97 62.22 101.47 64.08L101.50 64.11L101.36 63.96Q101.13 65.28 101.25 66.52L101.26 66.53L101.26 66.52Q99.70 66.26 96.36 65.09L96.29 65.02L96.24 64.97Q95.90 62.28 95.97 60.92L96.05 61.00L96.03 60.98Q96.18 58.47 97.91 57.36L97.77 57.22L97.85 57.31Q100.23 56.40 102.83 56.40L102.79 56.36L102.76 56.33Q107.92 56.29 113.05 56.73L112.94 56.61L112.98 56.66Q121.20 57.32 120.70 63.45L120.85 63.59L120.78 63.53Q120.59 65.88 119.79 68.41L119.75 68.37L119.89 68.52Q118.40 73.52 114.56 75.00L114.55 74.99L114.57 75.01Q118.70 75.74 119.69 81.18L119.71 81.20L119.67 81.16Q120.22 83.20 120.34 86.48L120.26 86.39L120.17 86.31Q120.46 93.58 112.97 94.32L113.07 94.42L113.11 94.46Q111.89 94.54 103.29 94.97ZM111.63 98.48L111.82 98.68L111.74 98.59Q112.74 98.67 117.38 98.79L117.37 98.78L117.42 98.83Q120.24 98.93 122.90 97.88L122.76 97.74L122.85 97.83Q124.83 96.35 124.52 93.50L124.40 93.38L124.39 93.36Q124.33 91.33 123.83 88.48L123.85 88.50L123.75 88.40Q122.54 81.07 119.39 78.41L119.40 78.42L119.21 77.92L119.17 77.82L119.00 77.64Q122.00 75.45 123.24 68.34L123.12 68.22L123.18 68.28Q123.27 67.56 123.45 66.01L123.43 65.99L123.33 65.89Q123.51 64.71 123.39 63.60L123.42 63.64L123.37 63.58Q123.11 60.84 121.00 59.73L121.14 59.87L120.99 59.84L120.90 59.75Q120.36 58.10 118.50 57.23L118.53 57.26L118.69 57.41Q116.05 56.14 107.70 55.65L107.87 55.81L107.78 55.73Q105.06 55.61 102.47 55.61L102.51 55.65L102.39 55.53Q99.91 55.65 97.44 56.70L97.39 56.65L97.30 56.56Q95.42 57.90 95.42 60.75L95.33 60.66L95.36 60.69Q95.45 60.09 95.88 65.54L95.74 65.40L95.86 65.52Q96.24 65.52 98.90 66.51L98.99 66.61L98.93 66.54Q98.95 67.44 98.89 68.24L98.86 68.21L98.93 68.28Q98.98 69.13 99.04 69.99L98.97 69.93L99.01 69.96Q101.81 70.48 105.09 70.67L105.16 70.73L105.21 70.78Q105.11 67.53 106.90 66.16L106.93 66.19L106.79 66.05Q108.11 64.96 111.39 64.59L111.57 64.77L111.55 64.75Q113.35 64.69 114.27 65.00L114.32 65.04L114.23 64.95Q114.41 65.26 114.47 65.45L114.47 65.44L114.34 65.63L114.49 66.52L114.55 66.58Q114.56 66.90 114.50 67.15L114.58 67.23L114.59 67.24Q114.33 69.89 111.86 71.80L112.01 71.95L111.87 71.82Q110.40 73.31 107.12 73.62L107.16 73.66L107.21 73.71Q106.02 73.94 104.59 73.94L104.56 73.91L104.55 73.90Q104.69 74.53 104.93 75.64L104.81 75.52L104.89 75.60Q107.65 75.52 110.00 76.69L110.05 76.74L109.88 76.75L107.27 76.99L107.25 76.97Q107.48 77.69 107.66 78.68L107.64 78.66L107.55 78.57Q111.14 78.57 113.92 80.73L113.90 80.71L113.90 80.71Q114.29 81.35 114.78 84.01L114.66 83.89L114.66 83.89Q114.97 88.65 110.21 89.33L110.23 89.35L110.16 89.28Q106.86 89.82 105.93 89.76L105.93 89.75L105.88 89.71Q105.11 89.49 104.25 89.37L104.26 89.38L104.30 88.68L104.51 87.97L104.45 87.22L104.60 86.82L104.70 86.92Q103.14 87.03 101.84 87.34L101.82 87.32L101.79 87.28Q101.73 86.92 101.73 86.61L101.78 86.65L101.74 86.62Q101.75 86.25 101.75 85.88L101.80 85.94L101.82 85.95Q101.75 85.14 101.99 83.96L102.02 83.99L102.14 84.10Q99.04 84.41 96.01 84.97L95.95 84.90L96.10 85.06Q96.07 85.83 95.89 87.66L95.80 87.57L95.73 87.50Q95.54 89.33 95.54 90.32L95.68 90.45L95.60 90.37Q95.84 93.83 98.06 95.06L98.02 95.02L98.02 95.02Q100.31 98.61 107.98 98.30L108.11 98.43L108.12 98.44Q109.29 98.37 111.76 98.62Z"/><path d="M5 137 C181 13,181 5,322 69" stroke="#84e5b5" fill="none"/><path d="M17 112 C174 105,168 42,329 24" stroke="#5ddfbe" fill="none"/><path d="M4 119 C151 23,163 6,324 65" stroke="#cf88e6" fill="none"/><path d="M7 113 C173 108,151 54,334 6" stroke="#77db56" fill="none"/><path d="M2 72 C192 101,184 131,335 31" stroke="#80dfc7" fill="none"/><path fill="#7baddf" d="M278.63 76.84L278.61 76.81L278.62 76.82Q275.57 76.80 273.59 78.97L273.51 78.89L273.57 78.95Q271.56 81.08 271.31 84.17L271.29 84.15L271.34 84.21Q271.03 87.67 273.01 89.31L272.95 89.25L273.00 89.30Q275.01 90.96 278.47 90.84L278.39 90.76L278.50 90.87Q282.30 90.65 283.85 89.10L283.71 88.97L283.89 89.14Q285.41 86.64 285.22 83.67L285.25 83.70L285.36 83.81Q285.13 80.73 283.37 78.79L283.39 78.81L283.26 78.68Q281.54 76.78 278.57 76.78ZM278.58 61.51L278.57 61.50L278.58 61.50Q276.35 61.37 274.18 62.18L274.07 62.07L274.12 62.12Q271.99 63.39 272.36 66.42L272.37 66.43L272.43 66.49Q273.13 72.45 278.57 72.45L278.68 72.55L278.57 72.44Q281.22 72.87 282.83 71.02L282.83 71.02L282.78 70.96Q284.37 69.09 284.43 66.55L284.43 66.55L284.35 66.47Q284.52 63.67 283.35 62.68L283.40 62.74L283.37 62.71Q280.62 61.32 278.52 61.44ZM278.17 94.94L278.06 94.82L273.15 94.86L273.09 94.80Q270.73 94.91 268.56 93.49L268.46 93.39L268.53 93.46Q266.28 91.58 266.53 86.94L266.60 87.01L266.50 86.91Q267.32 75.85 273.19 74.24L273.22 74.27L273.23 74.28Q269.54 72.82 267.38 64.10L267.28 64.00L267.20 63.92Q266.69 61.67 266.81 60.37L266.79 60.36L266.86 60.42Q267.43 57.04 273.44 56.98L273.25 56.79L273.36 56.90Q280.29 56.84 282.64 57.15L282.54 57.05L282.56 57.07Q288.79 57.92 289.54 61.20L289.59 61.25L289.57 61.23Q289.81 62.28 289.81 62.90L289.80 62.89L289.64 62.73Q289.70 63.90 289.39 64.89L289.51 65.01L289.44 64.94Q288.48 71.84 283.72 74.32L283.60 74.20L283.71 74.30Q289.39 75.60 290.20 84.20L290.16 84.16L290.25 84.25Q290.17 84.42 290.23 86.52L290.23 86.51L290.17 86.46Q290.42 91.03 287.82 92.76L287.79 92.74L287.79 92.74Q285.56 94.15 278.13 94.90ZM281.86 98.69L281.73 98.55L287.28 98.79L287.34 98.85Q290.11 98.96 292.59 97.78L292.52 97.71L292.43 97.63Q294.40 96.56 294.52 93.53L294.50 93.51L294.51 93.52Q294.66 91.81 294.04 88.66L293.99 88.61L294.04 88.65Q292.46 81.01 289.05 77.98L289.13 78.06L288.84 77.46L288.46 76.95L288.27 76.57L288.26 76.56Q290.88 74.30 292.36 67.55L292.40 67.59L292.34 67.53Q292.31 66.88 292.43 65.52L292.48 65.57L292.42 65.51Q292.67 64.52 292.55 63.53L292.53 63.51L292.37 63.35Q292.28 61.16 290.36 60.36L290.30 60.29L290.39 60.32L289.97 60.03L290.09 60.15Q289.71 59.02 287.79 57.72L287.67 57.60L287.79 57.66L287.79 57.66Q284.52 56.49 277.90 56.18L277.97 56.25L277.96 56.25Q275.39 56.03 273.16 56.21L273.21 56.26L273.21 56.26Q271.94 56.35 269.83 56.59L269.80 56.56L269.82 56.58Q266.66 57.19 266.28 59.85L266.15 59.71L266.27 59.84Q266.22 60.65 266.28 61.95L266.31 61.98L266.17 61.84Q266.46 62.81 267.39 66.65L267.25 66.50L267.30 66.55Q268.61 71.82 271.46 73.99L271.54 74.08L271.62 74.15L271.62 74.16Q267.02 76.18 266.16 84.59L266.25 84.68L266.19 84.63Q265.95 88.28 265.95 89.76L266.00 89.82L265.97 89.79Q266.11 92.70 268.02 94.19L267.98 94.15L268.02 94.19Q268.15 94.25 268.58 94.56L268.64 94.62L268.54 94.52Q270.35 98.37 281.91 98.74ZM281.20 80.58L281.29 80.67L281.24 80.62Q282.78 80.55 284.20 81.29L284.12 81.21L284.07 81.16Q284.88 82.96 284.81 83.82L284.69 83.70L284.68 83.69Q284.76 84.20 284.76 84.70L284.81 84.75L284.77 84.71Q284.77 88.54 281.05 89.90L281.06 89.91L281.05 89.89Q279.87 90.51 278.57 90.32L278.51 90.26L278.43 90.18Q276.77 90.50 274.92 89.76L274.84 89.68L274.88 89.72Q274.37 88.59 274.49 86.98L274.50 87.00L274.52 87.02Q274.80 84.44 276.74 82.46L276.78 82.50L276.70 82.42Q278.57 80.37 281.17 80.55ZM281.61 65.22L281.59 65.19L281.61 65.22Q282.89 65.01 283.76 65.26L283.79 65.29L283.73 66.53L283.78 66.58Q283.84 68.93 282.35 70.57L282.34 70.55L282.26 70.47Q280.75 72.09 278.53 71.78L278.65 71.91L278.67 71.92Q277.01 71.87 276.33 71.50L276.28 71.45L276.24 71.41Q276.21 71.01 276.02 69.90L276.15 70.02L276.01 69.88Q275.64 67.66 277.62 66.30L277.54 66.22L277.52 66.20Q279.40 65.24 281.69 65.30Z"/><path d="M9 21 C174 8,179 50,327 56" stroke="#46bae1" fill="none"/><path d="M20 110 C190 79,163 23,324 16" stroke="#e96c6c" fill="none"/><path d="M18 91 C173 57,153 47,335 14" stroke="#e4b280" fill="none"/><path d="M14 29 C190 43,163 67,331 80" stroke="#e8be3f" fill="none"/><path d="M8 98 C189 70,161 109,323 62" stroke="#849ce5" fill="none"/><path d="M3 98 C166 115,178 1,338 116" stroke="#cde683" fill="none"/><path d="M5 104 C187 40,190 127,339 40" stroke="#ea57ea" fill="none"/><path d="M15 61 C158 28,163 41,337 109" stroke="#ba46e1" fill="none"/><path d="M2 102 C161 119,169 121,324 111" stroke="#3ce0b7" fill="none"/><path d="M17 106 C177 114,183 132,335 119" stroke="#e98aa2" fill="none"/><path d="M10 116 C161 32,156 16,330 13" stroke="#51e5c0" fill="none"/><path d="M11 63 C169 24,189 19,330 93" stroke="#4bd791" fill="none"/><path d="M13 105 C166 91,178 123,339 135" stroke="#e04c4c" fill="none"/></svg>