<svg xmlns="http://www.w3.org/2000/svg" width="342" height="140" viewBox="0,0,342,140"><path d="M20 58 C186 69,190 123,332 72" stroke="#47ea99" fill="none"/><path d="M2 62 C152 122,177 42,328 98" stroke="#a38de6" fill="none"/><path d="M7 57 C163 135,191 108,340 62" stroke="#e7368e" fill="none"/><path d="M18 75 C174 13,166 39,323 46" stroke="#da4d70" fill="none"/><path d="M10 101 C175 87,178 16,338 108" stroke="#5bbfe0" fill="none"/><path d="M5 118 C173 93,170 77,324 109" stroke="#8dd8f0" fill="none"/><path fill="#aae86d" d="M69.75 74.13L69.71 74.09L69.77 74.15Q71.20 74.07 73.87 73.78L73.95 73.86L73.86 73.77Q73.89 75.10 73.89 76.32L73.81 76.24L73.83 78.64L73.77 78.58Q72.25 78.65 70.67 78.79L70.67 78.79L70.58 78.70Q69.17 78.95 67.59 78.88L67.46 78.75L67.42 78.71Q62.02 90.40 55.54 99.12L55.57 99.15L55.64 99.22Q50.80 100.36 48.35 101.51L48.36 101.52L48.46 101.62Q56.12 90.70 61.89 78.81L61.88 78.80L57.06 78.95L56.93 78.82Q57.01 76.38 56.80 73.86L56.82 73.88L56.69 73.75Q60.26 74.01 64.15 74.01L64.17 74.02L67.79 67.05L67.89 67.16Q69.75 63.53 72.05 60.51L72.08 60.53L71.95 60.40Q68.99 60.68 65.96 60.68L65.99 60.71L66.07 60.79Q54.60 60.85 47.47 56.68L47.37 56.58L46.25 53.44L46.12 53.30Q45.42 51.67 44.70 50.01L44.84 50.15L44.79 50.10Q53.04 55.11 63.85 55.54L63.84 55.54L63.91 55.60Q73.53 55.93 83.26 52.18L83.34 52.26L83.34 52.26Q82.97 53.05 82.04 54.71L82.05 54.72L82.04 54.71Q75.15 63.67 69.74 74.12ZM85.10 57.34L84.99 57.23L86.80 53.35L86.98 53.52Q85.13 54.41 81.96 55.78L81.97 55.80L82.28 55.17L82.34 55.23Q82.43 54.81 82.64 54.60L82.67 54.62L82.77 54.72Q83.50 53.44 84.87 50.91L84.72 50.76L84.84 50.88Q74.69 55.14 63.81 54.71L63.79 54.69L63.91 54.81Q52.45 54.24 43.44 48.61L43.37 48.54L43.34 48.51Q45.42 52.18 47.01 57.22L46.99 57.20L46.86 57.08Q48.97 58.32 50.48 58.89L50.63 59.05L50.53 58.94Q50.80 59.57 51.66 63.10L51.64 63.08L51.72 63.16Q57.68 65.52 68.13 65.23L68.20 65.30L68.07 65.17Q67.61 66.37 63.86 73.50L63.77 73.41L63.82 73.46Q59.89 73.42 56.14 73.06L56.24 73.15L56.13 73.04Q56.34 74.70 56.34 76.36L56.33 76.35L56.30 79.56L59.54 79.62L59.59 82.34L59.45 82.20Q52.16 96.32 46.90 103.09L46.75 102.94L46.84 103.03Q49.87 101.59 52.97 100.65L52.87 100.55L52.97 100.66Q51.72 102.44 49.13 105.68L49.05 105.60L49.00 105.55Q55.11 103.59 59.72 103.15L59.68 103.11L59.65 103.09Q65.22 95.97 71.13 83.14L71.04 83.05L77.59 83.48L77.63 83.52Q77.37 81.68 77.37 79.95L77.51 80.09L77.37 76.56L77.47 76.66Q76.96 76.65 75.91 76.72L75.95 76.76L75.97 76.78Q74.79 76.71 74.28 76.71L74.30 76.74L74.42 76.85Q74.32 76.54 74.39 76.25L74.40 76.25L74.40 75.75L74.39 75.74Q79.21 66.07 85.04 57.28Z"/><path d="M13 34 C152 79,167 73,336 134" stroke="#df3edf" fill="none"/><path d="M19 86 C163 107,150 35,340 95" stroke="#9b4cea" fill="none"/><path d="M5 124 C184 6,178 126,322 87" stroke="#5353e8" fill="none"/><path d="M3 134 C166 69,174 6,341 51" stroke="#ec9173" fill="none"/><path d="M4 105 C168 35,164 44,338 1" stroke="#8ceca4" fill="none"/><path fill="#c2e263" d="M124.30 99.09L124.25 99.04L124.34 99.13Q121.51 99.11 118.56 98.31L118.68 98.43L118.62 98.38Q116.32 96.65 116.03 93.55L115.99 93.52L115.98 93.50Q115.94 93.17 116.30 88.20L116.26 88.16L116.42 88.33Q118.32 87.91 122.14 87.19L122.17 87.23L121.74 88.60L121.75 88.61Q121.16 91.83 123.82 92.92L123.98 93.07L123.89 92.98Q125.41 93.64 129.37 93.64L129.46 93.72L129.35 93.62Q132.35 93.30 132.71 93.15L132.76 93.21L132.75 93.20Q134.51 92.94 135.88 92.00L135.76 91.88L135.78 91.90Q138.53 90.19 138.17 86.22L138.10 86.15L138.22 86.27Q137.86 81.66 134.58 78.71L134.58 78.70L134.57 78.69Q131.29 75.74 126.60 75.74L126.49 75.62L126.57 75.27L126.51 75.21Q127.28 75.19 128.94 75.05L128.89 75.00L128.95 75.06Q132.49 74.78 135.08 72.43L135.12 72.47L135.07 72.42Q137.72 70.13 138.01 66.60L137.98 66.58L138.05 66.65Q138.25 66.05 138.25 65.40L138.12 65.27L138.13 65.29Q138.18 62.45 135.59 60.72L135.50 60.64L135.61 60.75Q133.34 59.27 130.32 59.49L130.21 59.39L130.21 59.38Q127.87 59.20 125.56 60.00L125.42 59.85L125.52 59.95Q122.83 61.01 122.26 63.17L122.18 63.10L122.09 63.01Q121.82 64.54 121.97 65.98L121.95 65.97L121.85 65.87Q120.02 65.55 116.13 64.18L116.04 64.10L116.02 64.08Q115.62 60.94 115.70 59.35L115.76 59.42L115.79 59.45Q115.91 56.47 117.93 55.17L117.91 55.15L118.01 55.26Q120.67 54.10 123.70 54.10L123.62 54.02L123.63 54.03Q129.71 54.06 135.69 54.56L135.60 54.47L135.57 54.44Q145.22 55.29 144.64 62.43L144.71 62.50L144.58 62.36Q144.44 65.18 143.50 68.14L143.62 68.25L143.55 68.19Q141.78 73.98 137.31 75.71L137.41 75.80L137.29 75.69Q142.37 76.80 143.53 83.15L143.50 83.12L143.58 83.20Q143.90 85.25 144.04 89.07L144.01 89.04L144.16 89.18Q144.33 97.50 135.61 98.36L135.71 98.46L135.68 98.43Q134.31 98.57 124.29 99.07ZM134.20 103.36L134.11 103.28L134.06 103.23Q135.27 103.36 140.68 103.50L140.69 103.52L140.61 103.43Q144.08 103.74 147.18 102.51L147.01 102.34L147.07 102.40Q149.35 100.64 148.99 97.33L148.88 97.22L149.06 97.40Q148.75 94.78 148.17 91.47L148.21 91.50L148.18 91.47Q146.87 83.03 143.20 79.94L143.15 79.88L142.75 79.13L142.73 79.03L142.74 79.05Q146.03 76.29 147.47 68.00L147.51 68.04L147.54 68.07Q147.47 67.06 147.68 65.26L147.78 65.35L147.78 65.35Q147.83 63.82 147.69 62.52L147.76 62.59L147.69 62.53Q147.56 59.51 145.11 58.21L144.98 58.08L144.85 58.10L144.91 58.16Q144.36 56.31 142.20 55.30L142.14 55.24L142.09 55.19Q139.17 53.85 129.44 53.28L129.61 53.45L129.54 53.38Q126.25 53.11 123.22 53.11L123.37 53.26L123.24 53.13Q120.35 53.27 117.47 54.49L117.36 54.39L117.35 54.37Q115.10 55.88 115.10 59.19L115.01 59.10L115.04 59.13Q115.19 58.49 115.69 64.83L115.51 64.65L115.65 64.79Q116.23 64.93 119.33 66.09L119.19 65.94L119.23 65.99Q119.24 67.00 119.16 67.94L119.21 67.99L119.25 68.02Q119.25 68.96 119.32 69.96L119.27 69.92L119.34 69.98Q122.74 70.72 126.56 70.93L126.53 70.91L126.52 70.89Q126.26 66.96 128.35 65.38L128.47 65.50L128.48 65.51Q130.06 64.28 133.88 63.84L133.75 63.72L133.84 63.80Q136.08 63.89 137.16 64.25L137.00 64.08L137.10 64.18Q137.09 64.32 137.16 64.53L137.18 64.55L137.17 64.90L137.36 65.95L137.37 65.97Q137.51 66.46 137.43 66.75L137.39 66.70L137.47 66.78Q137.17 69.88 134.29 72.11L134.37 72.19L134.42 72.24Q132.52 73.80 128.70 74.16L128.73 74.18L128.72 74.18Q127.33 74.44 125.67 74.44L125.74 74.51L125.67 74.44Q125.88 75.23 126.17 76.53L126.11 76.46L126.16 76.51Q129.36 76.40 132.09 77.77L132.23 77.91L131.92 77.81L129.09 78.29L129.02 78.22Q129.18 78.96 129.39 80.11L129.21 79.93L129.30 80.02Q133.37 79.90 136.61 82.43L136.55 82.37L136.49 82.31Q137.10 83.21 137.68 86.31L137.55 86.18L137.65 86.28Q138.01 91.83 132.46 92.62L132.39 92.55L132.34 92.50Q128.36 92.98 127.27 92.91L127.35 92.98L127.34 92.97Q126.54 92.83 125.53 92.68L125.40 92.55L125.48 91.77L125.74 90.94L125.70 90.10L125.77 89.53L125.90 89.66Q124.12 89.82 122.60 90.18L122.54 90.12L122.51 90.09Q122.41 89.63 122.41 89.27L122.36 89.22L122.40 89.26Q122.52 88.94 122.52 88.51L122.60 88.60L122.52 88.51Q122.64 87.77 122.93 86.40L122.94 86.41L122.97 86.44Q119.32 86.75 115.79 87.40L115.85 87.46L115.82 87.43Q115.75 88.31 115.54 90.43L115.66 90.55L115.54 90.43Q115.46 92.70 115.46 93.85L115.41 93.80L115.29 93.68Q115.48 97.61 118.07 99.05L118.18 99.16L118.08 99.07Q120.89 103.39 129.83 103.03L129.89 103.09L129.84 103.04Q131.27 103.03 134.16 103.32Z"/><path d="M7 69 C153 17,175 32,326 78" stroke="#edd281" fill="none"/><path d="M18 130 C192 49,173 28,336 102" stroke="#9090ee" fill="none"/><path d="M8 73 C166 112,163 20,331 99" stroke="#dc50b9" fill="none"/><path d="M14 116 C185 32,162 124,330 135" stroke="#8eeb6f" fill="none"/><path d="M9 74 C163 70,181 87,340 73" stroke="#e9c96c" fill="none"/><path d="M7 27 C179 123,173 22,322 50" stroke="#d8d84f" fill="none"/><path fill="#ec69aa" d="M266.35 77.79L266.29 77.72L266.27 77.71Q262.84 77.52 260.50 80.22L260.57 80.29L260.53 80.25Q258.15 82.92 257.79 86.53L257.77 86.50L257.84 86.58Q257.49 90.54 259.54 92.38L259.45 92.29L259.36 92.20Q261.60 94.23 265.56 94.01L265.41 93.86L265.49 93.93Q269.45 93.64 271.54 92.35L271.55 92.36L271.57 92.37Q273.69 90.25 273.69 87.30L273.61 87.22L273.71 87.31Q273.72 86.60 273.57 85.88L273.56 85.86L273.61 85.92Q273.77 82.75 271.68 80.20L271.61 80.13L271.56 80.08Q269.57 77.62 266.40 77.84ZM265.58 98.85L265.58 98.86L265.51 98.78Q257.20 98.76 254.53 97.32L254.55 97.34L254.51 97.29Q252.74 96.03 252.38 92.79L252.30 92.71L252.27 92.67Q252.17 91.36 252.25 89.99L252.33 90.07L252.35 90.09Q252.53 88.18 252.53 87.32L252.42 87.21L252.58 87.37Q253.35 81.87 253.64 80.57L253.58 80.51L253.75 80.68Q254.46 76.85 256.05 74.19L256.19 74.33L256.19 74.33Q261.14 65.95 272.38 53.92L272.43 53.96L272.40 53.93Q277.51 53.42 281.69 51.91L281.68 51.90L281.56 51.78Q268.62 65.93 262.57 73.93L262.58 73.95L262.67 74.04Q264.42 72.97 266.87 72.97L266.83 72.94L267.01 73.11Q273.25 73.08 276.13 76.76L275.98 76.61L276.00 76.63Q278.60 79.81 279.25 86.51L279.23 86.49L279.30 86.56Q279.45 87.93 279.45 89.08L279.47 89.10L279.37 89.01Q279.45 95.00 275.27 97.02L275.14 96.88L275.27 97.02Q272.98 98.18 265.63 98.90ZM269.86 103.35L269.81 103.30L269.82 103.31Q272.41 103.37 276.15 103.52L276.02 103.38L276.01 103.37Q279.19 103.60 282.14 102.23L282.18 102.27L282.22 102.31Q284.14 100.63 284.14 97.24L284.17 97.26L284.20 97.30Q284.13 96.29 283.81 94.42L283.95 94.56L283.85 94.46Q283.60 92.67 283.60 91.80L283.60 91.80L283.51 91.70Q281.98 82.90 278.96 79.30L278.88 79.22L278.88 79.22Q278.83 79.10 278.54 78.67L278.49 78.61L277.89 78.16L277.65 77.99L277.64 77.98Q277.00 77.05 275.84 75.25L275.95 75.36L275.87 75.27Q274.26 73.59 270.51 72.73L270.50 72.71L270.54 72.76Q272.79 69.68 278.42 62.69L278.38 62.65L286.32 52.58L286.43 52.69Q283.49 54.35 278.95 55.80L278.92 55.77L278.92 55.77Q280.52 53.77 283.91 50.02L284.03 50.15L284.07 50.18Q279.44 52.11 272.09 53.19L272.21 53.31L272.13 53.24Q261.34 64.43 255.72 73.79L255.77 73.83L255.72 73.79Q252.89 78.59 251.80 90.41L251.62 90.23L251.77 90.37Q251.62 91.45 251.76 93.25L251.74 93.23L251.72 93.21Q251.96 96.62 254.05 98.34L253.90 98.20L253.93 98.23Q254.65 98.52 254.58 98.59L254.66 98.67L254.63 98.64Q255.34 100.36 256.85 101.15L256.82 101.12L256.83 101.12Q259.52 102.37 263.19 102.73L263.19 102.73L263.34 102.88Q263.34 102.89 269.97 103.46ZM269.49 82.15L269.54 82.21L269.51 82.18Q270.56 81.92 272.36 82.86L272.41 82.91L272.32 82.83Q272.89 84.55 272.89 85.77L273.00 85.88L272.96 85.84Q273.33 89.38 271.53 91.25L271.55 91.27L271.52 91.25Q269.61 92.72 265.64 93.29L265.54 93.19L265.65 93.30Q262.73 93.12 261.72 92.61L261.74 92.64L261.90 92.79Q261.43 91.82 261.43 91.24L261.37 91.18L261.42 91.24Q261.07 85.12 266.61 82.67L266.47 82.53L266.59 82.64Q267.91 81.87 269.35 82.01Z"/><path d="M21 122 C152 90,161 98,335 107" stroke="#c556eb" fill="none"/><path d="M2 39 C180 107,185 77,333 17" stroke="#dc41b5" fill="none"/><path d="M2 133 C185 47,153 86,329 133" stroke="#e692a7" fill="none"/><path d="M17 115 C184 80,156 7,326 123" stroke="#d4d443" fill="none"/><path d="M17 66 C179 113,160 41,328 8" stroke="#a189eb" fill="none"/><path d="M8 72 C156 62,159 46,332 110" stroke="#7fd0eb" fill="none"/><path d="M10 68 C169 45,189 131,334 72" stroke="#bd66db" fill="none"/><path d="M7 68 C179 5,191 113,337 86" stroke="#91edd6" fill="none"/><path d="M8 45 C185 131,177 97,325 139" stroke="#cde683" fill="none"/><path d="M6 135 C173 5,186 136,322 15" stroke="#f09779" fill="none"/><path d="M20 46 C182 117,177 3,326 127" stroke="#987ced" fill="none"/><path d="M19 10 C160 29,167 93,334 10" stroke="#78e952" fill="none"/><path d="M4 80 C164 86,176 90,334 35" stroke="#a86be4" fill="none"/><path d="M6 130 C188 22,181 137,325 137" stroke="#9e57e4" fill="none"/><path d="M15 55 C164 50,174 56,322 75" stroke="#e6ad74" fill="none"/><path d="M9 90 C164 116,165 26,339 127" stroke="#df6ba5" fill="none"/><path d="M21 94 C169 114,189 72,330 20" stroke="#eda55e" fill="none"/><path d="M14 79 C171 121,176 66,330 69" stroke="#eb9e50" fill="none"/><path d="M4 126 C186 28,185 56,338 92" stroke="#e990e9" fill="none"/><path d="M18 138 C162 61,161 104,333 91" stroke="#dd64dd" fill="none"/><path d="M21 125 C158 77,162 136,328 41" stroke="#f18383" fill="none"/><path fill="#e66f6f" d="M193.38 99.02L193.58 99.21L193.48 99.11Q185.68 99.46 183.81 95.06L183.90 95.15L183.99 95.24Q185.38 93.39 188.34 90.00L188.33 90.00L188.30 89.97Q189.17 93.72 194.86 93.94L195.02 94.09L194.84 93.92Q201.24 94.05 204.34 91.53L204.52 91.70L204.38 91.56Q207.06 88.55 206.92 83.44L206.94 83.46L206.90 83.42Q206.61 73.83 197.53 74.26L197.62 74.36L197.67 74.41Q192.23 74.59 188.92 76.97L188.85 76.90L188.31 76.65L187.84 76.33L187.87 76.35Q188.55 70.40 188.33 65.21L188.39 65.27L188.28 65.16Q188.09 60.22 187.44 53.95L187.41 53.92L187.53 54.04Q194.48 55.87 201.69 55.65L201.61 55.57L201.60 55.57Q208.77 55.38 215.54 53.00L215.51 52.97L214.56 55.98L214.60 56.03Q213.86 57.31 213.50 58.89L213.63 59.02L213.62 59.01Q207.74 60.98 200.39 60.98L200.41 61.01L200.28 60.87Q197.66 60.99 194.85 60.70L194.78 60.64L194.83 60.68Q194.66 61.96 194.01 70.39L194.02 70.40L193.99 70.36Q195.53 69.45 199.42 69.16L199.36 69.11L199.38 69.12Q206.47 69.58 209.20 72.75L209.20 72.75L209.21 72.76Q211.84 75.68 212.34 82.95L212.39 83.01L212.32 82.93Q212.96 90.99 210.65 94.81L210.50 94.66L210.48 94.64Q206.66 98.24 200.39 98.68L200.41 98.69L200.38 98.66Q198.46 98.76 193.42 99.05ZM204.86 103.36L205.00 103.50L204.94 103.44Q211.42 103.58 215.02 101.49L214.94 101.41L215.01 101.47Q216.97 98.67 216.97 94.71L216.98 94.72L216.90 94.64Q216.95 88.86 215.15 81.08L215.07 81.00L215.04 80.97Q214.28 77.61 211.97 74.95L212.05 75.03L212.19 75.23L211.72 74.62L211.05 74.24L210.96 74.15Q210.45 72.84 209.22 71.55L209.34 71.67L209.25 71.65L209.26 71.66Q206.41 68.51 199.42 68.51L199.33 68.43L198.87 68.47L198.81 68.42Q198.97 67.35 199.33 65.26L199.47 65.40L199.29 65.22Q208.88 65.59 216.52 62.49L216.49 62.46L216.51 62.48Q217.36 59.86 219.16 54.53L219.01 54.38L215.12 56.26L215.11 56.25Q215.83 54.09 216.77 51.92L216.77 51.92L216.76 51.91Q209.49 54.67 201.71 54.81L201.79 54.89L201.60 54.70Q193.87 54.97 186.37 52.88L186.36 52.87L186.43 52.94Q187.70 61.27 187.70 69.62L187.77 69.70L187.72 69.65Q187.69 73.22 187.48 76.82L187.59 76.94L187.42 76.76Q187.95 77.16 189.03 77.73L189.13 77.83L189.15 77.84Q189.66 77.28 190.89 76.63L190.94 76.69L190.93 76.67Q190.91 78.17 190.48 81.05L190.42 81.00L190.45 81.02Q191.21 81.35 192.00 81.78L192.01 81.79L192.10 81.88Q197.22 78.43 200.75 78.43L200.76 78.43L200.74 78.41Q203.29 78.44 205.52 79.66L205.54 79.69L205.49 79.63Q206.19 81.62 206.26 83.43L206.31 83.48L206.35 83.52Q206.41 88.33 204.46 90.42L204.47 90.43L204.51 90.47Q201.90 92.76 197.65 93.19L197.67 93.21L197.75 93.29Q195.81 93.30 194.52 93.16L194.55 93.20L194.56 93.20Q193.07 93.08 191.62 92.43L191.54 92.34L191.52 91.96L191.23 92.11L191.21 92.09Q189.76 91.21 188.75 88.69L188.66 88.60L188.73 88.67Q186.21 91.34 183.04 95.38L182.96 95.30L182.94 95.27Q183.70 96.69 185.29 98.49L185.11 98.31L185.22 98.41Q187.29 101.93 192.62 102.86L192.49 102.74L192.57 102.81Q194.77 103.21 204.93 103.43Z"/><path d="M8 92 C157 51,170 90,338 46" stroke="#c477de" fill="none"/><path d="M18 47 C164 26,169 29,329 95" stroke="#e4a86c" fill="none"/></svg>