<svg xmlns="http://www.w3.org/2000/svg" width="342" height="140" viewBox="0,0,342,140"><path d="M18 8 C164 113,163 38,333 81" stroke="#91ed72" fill="none"/><path d="M11 4 C163 24,152 64,327 36" stroke="#41b1d6" fill="none"/><path d="M9 66 C188 75,159 23,323 20" stroke="#59e259" fill="none"/><path d="M10 87 C163 108,172 21,326 104" stroke="#86edba" fill="none"/><path d="M15 120 C186 105,191 29,337 85" stroke="#714ed9" fill="none"/><path fill="#a2e88b" d="M58.21 73.72L58.31 73.82L58.19 73.70Q59.70 73.82 62.14 73.56L62.10 73.52L62.03 73.45Q61.92 74.53 61.92 75.65L62.09 75.82L61.91 77.82L62.02 77.92Q60.48 77.83 59.03 77.97L59.12 78.05L59.09 78.03Q57.67 78.13 56.22 78.06L56.30 78.14L56.13 77.97Q51.26 88.72 45.32 96.70L45.41 96.79L45.40 96.78Q40.98 97.83 38.74 98.89L38.66 98.81L38.81 98.96Q45.93 89.07 51.20 78.19L51.13 78.11L46.61 78.14L46.55 78.09Q46.56 75.79 46.37 73.48L46.38 73.50L46.40 73.51Q49.76 73.84 53.32 73.84L53.20 73.72L56.62 67.45L56.57 67.39Q58.21 64.03 60.32 61.26L60.29 61.23L60.28 61.21Q57.73 61.63 54.96 61.63L54.87 61.54L54.97 61.64Q44.40 61.62 37.87 57.80L37.82 57.75L36.70 54.78L36.68 54.76Q36.08 53.31 35.43 51.79L35.36 51.73L35.36 51.73Q42.96 56.36 52.86 56.76L52.80 56.70L52.91 56.81Q61.71 57.11 70.61 53.68L70.72 53.79L70.55 53.62Q70.22 54.34 69.37 55.86L69.38 55.88L69.52 56.02Q63.26 64.27 58.32 73.83ZM72.20 58.30L72.18 58.28L73.99 54.88L73.86 54.75Q72.37 55.77 69.47 57.02L69.46 57.01L69.66 56.35L69.74 56.43Q69.85 56.08 70.05 55.89L70.16 55.99L70.05 55.88Q70.77 54.76 72.02 52.45L72.06 52.49L72.01 52.44Q62.82 56.43 52.86 56.04L52.81 55.99L52.87 56.05Q42.47 55.61 34.23 50.46L34.14 50.38L34.12 50.35Q35.97 53.65 37.42 58.27L37.43 58.28L37.36 58.21Q39.29 59.35 40.67 59.87L40.74 59.94L40.62 59.82Q40.94 60.47 41.73 63.70L41.81 63.79L41.73 63.70Q47.24 65.92 56.80 65.65L56.79 65.64L56.70 65.55Q56.32 66.69 52.89 73.21L52.84 73.17L52.82 73.15Q49.23 73.11 45.80 72.78L45.76 72.75L45.84 72.82Q45.96 74.26 45.96 75.78L45.98 75.80L46.05 78.84L48.92 78.80L48.92 81.24L48.83 81.15Q42.13 94.04 37.31 100.23L37.19 100.11L37.30 100.22Q40.12 98.95 42.96 98.10L42.97 98.11L42.98 98.12Q41.65 99.56 39.27 102.52L39.29 102.54L39.40 102.65Q44.87 100.73 49.09 100.34L49.00 100.25L49.04 100.29Q54.08 93.72 59.48 81.98L59.52 82.02L65.46 82.35L65.36 82.25Q65.36 80.80 65.36 79.22L65.26 79.12L65.26 76.02L65.29 76.05Q64.82 76.04 63.86 76.11L63.83 76.08L63.97 76.21Q62.93 76.19 62.46 76.19L62.54 76.27L62.40 76.13Q62.41 75.94 62.47 75.67L62.52 75.72L62.60 75.34L62.48 75.22Q66.87 66.36 72.21 58.31Z"/><path d="M1 26 C172 76,169 86,322 57" stroke="#c9e475" fill="none"/><path d="M4 136 C186 113,168 108,330 62" stroke="#85efba" fill="none"/><path fill="#8fa7ef" d="M216.95 96.55L217.12 96.72L217.10 96.71Q210.08 97.14 208.37 93.11L208.33 93.07L208.28 93.02Q209.67 91.44 212.37 88.34L212.30 88.28L212.27 88.24Q213.14 91.75 218.35 91.95L218.30 91.90L218.44 92.05Q224.29 92.16 227.13 89.85L226.99 89.71L227.09 89.81Q229.56 87.07 229.43 82.39L229.31 82.27L229.34 82.30Q229.17 73.63 220.86 74.02L220.84 74.00L220.76 73.92Q215.96 74.27 212.93 76.44L212.89 76.40L212.36 76.14L212.06 75.96L211.91 75.82Q212.55 70.39 212.35 65.64L212.39 65.68L212.36 65.66Q212.17 61.11 211.58 55.37L211.51 55.31L211.61 55.41Q217.93 57.04 224.52 56.84L224.48 56.81L224.51 56.83Q231.14 56.74 237.34 54.56L237.32 54.54L236.24 57.09L236.33 57.18Q235.72 58.41 235.39 59.86L235.35 59.82L235.52 60.00Q230.12 61.79 223.40 61.79L223.40 61.78L223.28 61.67Q220.78 61.67 218.20 61.41L218.25 61.45L218.22 61.42Q218.05 62.57 217.46 70.29L217.43 70.26L217.47 70.30Q219.01 69.59 222.57 69.33L222.49 69.25L222.56 69.32Q228.91 69.61 231.42 72.51L231.46 72.56L231.39 72.48Q233.93 75.29 234.39 81.95L234.30 81.86L234.29 81.85Q234.87 89.22 232.76 92.71L232.67 92.63L232.70 92.65Q229.24 95.99 223.51 96.38L223.47 96.34L223.34 96.22Q221.73 96.45 217.11 96.71ZM227.58 100.65L227.52 100.59L227.50 100.58Q233.52 100.79 236.82 98.88L236.80 98.86L236.79 98.85Q238.48 96.19 238.48 92.56L238.57 92.65L238.53 92.61Q238.39 87.13 236.74 80.01L236.82 80.09L236.74 80.01Q236.13 77.03 234.02 74.59L234.13 74.70L234.04 74.67L233.81 74.31L233.23 73.99L233.15 73.92Q232.56 72.60 231.44 71.41L231.49 71.46L231.44 71.48L231.55 71.59Q228.82 68.59 222.42 68.59L222.41 68.58L222.05 68.68L221.89 68.53Q222.05 67.55 222.37 65.64L222.49 65.76L222.41 65.68Q231.05 65.87 238.04 63.04L238.08 63.08L238.08 63.08Q238.74 60.57 240.38 55.69L240.52 55.83L236.78 57.37L236.86 57.44Q237.52 55.47 238.38 53.49L238.38 53.49L238.40 53.51Q231.67 55.94 224.54 56.07L224.64 56.17L224.64 56.17Q217.53 56.38 210.67 54.47L210.51 54.30L210.57 54.37Q211.79 62.05 211.79 69.70L211.80 69.70L211.80 69.71Q211.84 73.04 211.64 76.34L211.62 76.32L211.63 76.33Q212.07 76.63 213.06 77.16L212.96 77.07L212.95 77.05Q213.54 76.66 214.66 76.07L214.73 76.13L214.83 76.23Q214.70 77.49 214.31 80.13L214.32 80.13L214.27 80.09Q215.03 80.45 215.75 80.85L215.70 80.79L215.81 80.90Q220.45 77.69 223.68 77.69L223.82 77.84L223.68 77.70Q226.02 77.73 228.06 78.85L228.12 78.91L228.11 78.90Q228.71 80.69 228.78 82.33L228.71 82.26L228.86 82.41Q228.94 86.84 227.16 88.76L227.18 88.78L227.16 88.76Q224.79 90.88 220.90 91.27L220.82 91.18L220.77 91.14Q219.22 91.37 218.03 91.24L218.07 91.27L218.01 91.22Q216.52 90.98 215.20 90.38L215.21 90.40L215.24 90.10L214.91 90.16L214.93 90.18Q213.68 89.45 212.75 87.14L212.71 87.10L212.62 87.01Q210.37 89.51 207.46 93.20L207.55 93.28L207.43 93.17Q208.02 94.35 209.47 96.00L209.52 96.05L209.46 95.98Q211.24 99.08 216.12 99.94L216.08 99.90L216.14 99.96Q218.26 100.43 227.56 100.63Z"/><path d="M14 110 C154 9,186 50,336 131" stroke="#67e9a8" fill="none"/><path d="M12 54 C187 131,185 72,334 61" stroke="#e2e27d" fill="none"/><path fill="#e0964c" d="M171.68 73.85L171.61 73.79L171.49 73.67Q172.90 73.69 175.34 73.43L175.50 73.59L175.42 73.50Q175.37 74.65 175.37 75.77L175.25 75.65L175.30 77.88L175.35 77.93Q173.83 77.85 172.38 77.98L172.45 78.06L172.42 78.02Q170.96 78.08 169.51 78.02L169.49 77.99L169.45 77.95Q164.57 88.70 158.63 96.68L158.70 96.75L158.71 96.76Q154.25 97.77 152.00 98.82L151.97 98.79L151.98 98.79Q159.24 89.04 164.51 78.16L164.55 78.20L159.99 78.19L159.94 78.14Q159.83 75.72 159.63 73.41L159.71 73.49L159.61 73.40Q162.95 73.70 166.51 73.70L166.58 73.77L169.83 67.33L169.89 67.39Q171.50 63.99 173.61 61.22L173.68 61.28L173.68 61.28Q170.95 61.52 168.18 61.52L168.19 61.53L168.14 61.48Q157.66 61.55 151.13 57.72L151.21 57.81L150.00 54.75L150.12 54.86Q149.52 53.41 148.86 51.90L148.80 51.83L148.86 51.90Q156.34 56.41 166.23 56.80L166.19 56.76L166.15 56.72Q175.02 57.08 183.92 53.65L183.99 53.73L184.01 53.74Q183.62 54.41 182.76 55.92L182.78 55.94L182.88 56.04Q176.50 64.17 171.55 73.73ZM185.51 58.28L185.63 58.40L187.29 54.84L187.30 54.85Q185.54 55.61 182.64 56.86L182.82 57.04L182.98 56.34L183.12 56.47Q183.34 56.24 183.54 56.04L183.41 55.91L183.50 56.01Q184.17 54.83 185.43 52.52L185.37 52.46L185.40 52.49Q176.05 56.33 166.09 55.94L166.09 55.94L166.27 56.12Q155.84 55.65 147.60 50.50L147.50 50.40L147.51 50.41Q149.39 53.74 150.84 58.35L150.66 58.17L150.82 58.34Q152.64 59.37 154.03 59.89L154.08 59.95L154.12 59.99Q154.33 60.53 155.12 63.76L155.03 63.67L155.01 63.65Q160.61 65.95 170.17 65.69L170.17 65.69L170.22 65.73Q169.58 66.61 166.15 73.14L166.24 73.23L166.22 73.21Q162.71 73.26 159.28 72.93L159.13 72.78L159.18 72.83Q159.23 74.19 159.23 75.71L159.41 75.90L159.32 78.77L162.20 78.75L162.27 81.26L162.14 81.13Q155.38 93.95 150.56 100.15L150.71 100.30L150.55 100.14Q153.34 98.84 156.18 97.98L156.19 97.99L156.25 98.05Q155.00 99.57 152.62 102.54L152.73 102.65L152.61 102.53Q158.19 100.73 162.42 100.33L162.28 100.20L162.42 100.34Q167.48 93.80 172.89 82.06L172.78 81.94L178.80 82.36L178.87 82.43Q178.55 80.66 178.55 79.08L178.54 79.07L178.74 76.16L178.61 76.04Q178.25 76.14 177.29 76.21L177.22 76.13L177.23 76.14Q176.33 76.26 175.86 76.26L175.89 76.28L175.86 76.26Q175.86 76.06 175.93 75.80L175.85 75.72L175.89 75.30L175.86 75.27Q180.22 66.37 185.56 58.32Z"/><path d="M21 19 C152 125,172 113,336 29" stroke="#ca82e2" fill="none"/><path d="M15 2 C173 79,188 107,326 41" stroke="#da57da" fill="none"/><path d="M12 104 C185 111,179 29,339 79" stroke="#de4893" fill="none"/><path d="M6 71 C182 10,170 72,336 15" stroke="#e25ee2" fill="none"/><path d="M10 62 C192 85,189 39,325 80" stroke="#41dcb5" fill="none"/><path d="M9 30 C159 31,175 120,340 35" stroke="#ec6e8d" fill="none"/><path d="M4 21 C156 66,184 64,332 108" stroke="#ebeb8d" fill="none"/><path d="M7 84 C189 77,173 123,336 60" stroke="#e697bf" fill="none"/><path d="M6 30 C181 100,175 79,326 130" stroke="#b2e97b" fill="none"/><path d="M4 110 C166 6,159 113,333 33" stroke="#86eded" fill="none"/><path d="M21 88 C166 64,155 31,340 35" stroke="#54b7d8" fill="none"/><path d="M15 14 C153 70,172 62,337 130" stroke="#6fadeb" fill="none"/><path d="M15 21 C185 56,186 12,328 132" stroke="#559be1" fill="none"/><path fill="#4ed491" d="M284.87 73.71L284.88 73.73L285.01 73.86Q286.25 73.71 288.69 73.44L288.73 73.48L288.83 73.58Q288.59 74.54 288.59 75.66L288.70 75.76L288.65 77.89L288.77 78.01Q287.28 77.97 285.83 78.10L285.71 77.99L285.84 78.12Q284.41 78.20 282.96 78.14L282.78 77.96L282.90 78.07Q277.91 88.71 271.97 96.69L271.94 96.65L272.05 96.76Q267.63 97.82 265.39 98.87L265.38 98.87L265.38 98.87Q272.60 89.07 277.88 78.19L277.83 78.15L273.23 78.10L273.18 78.04Q273.24 75.80 273.04 73.49L273.01 73.46L272.96 73.41Q276.27 73.68 279.83 73.68L279.88 73.73L283.25 67.41L283.24 67.40Q284.96 64.10 287.07 61.34L286.98 61.24L287.00 61.27Q284.37 61.61 281.60 61.61L281.64 61.64L281.58 61.59Q270.92 61.48 264.39 57.65L264.45 57.72L263.43 54.85L263.30 54.71Q262.67 53.23 262.01 51.71L262.07 51.77L262.01 51.71Q269.71 56.44 279.60 56.84L279.59 56.83L279.51 56.75Q288.33 57.06 297.24 53.64L297.39 53.79L297.36 53.76Q297.07 54.53 296.22 56.05L296.15 55.98L296.15 55.98Q289.90 64.23 284.95 73.79ZM298.98 58.41L298.99 58.43L300.67 54.89L300.56 54.78Q298.97 55.70 296.06 56.95L296.00 56.88L296.33 56.36L296.38 56.41Q296.64 56.20 296.84 56.00L296.80 55.97L296.82 55.99Q297.42 54.74 298.67 52.43L298.68 52.44L298.79 52.56Q289.53 56.48 279.57 56.08L279.47 55.98L279.41 55.92Q269.11 55.58 260.87 50.44L260.85 50.41L260.82 50.39Q262.56 53.58 264.01 58.20L264.12 58.30L264.14 58.32Q265.92 59.31 267.31 59.84L267.44 59.98L267.41 59.95Q267.72 60.59 268.51 63.82L268.39 63.70L268.40 63.71Q273.99 65.99 283.55 65.73L283.38 65.57L283.42 65.61Q282.88 66.58 279.45 73.11L279.60 73.26L279.60 73.26Q275.99 73.21 272.56 72.88L272.47 72.79L272.59 72.90Q272.61 74.25 272.61 75.77L272.72 75.87L272.64 78.76L275.64 78.86L275.53 81.19L275.65 81.31Q268.72 93.96 263.91 100.16L263.87 100.13L263.98 100.24Q266.68 98.84 269.51 97.99L269.48 97.96L269.49 97.97Q268.32 99.57 265.95 102.53L266.04 102.62L266.06 102.64Q271.44 100.64 275.66 100.24L275.68 100.26L275.60 100.18Q280.81 93.79 286.22 82.05L286.13 81.96L292.17 82.39L292.09 82.31Q291.95 80.72 291.95 79.14L292.06 79.25L292.05 76.14L291.99 76.08Q291.48 76.04 290.53 76.11L290.46 76.03L290.50 76.08Q289.51 76.11 289.05 76.11L289.10 76.16L289.04 76.10Q289.18 76.04 289.25 75.78L289.26 75.80L289.15 75.23L289.17 75.25Q293.54 66.36 298.89 58.32Z"/><path d="M21 62 C151 114,189 100,330 68" stroke="#d3e895" fill="none"/><path d="M5 71 C160 73,173 21,335 4" stroke="#6b88df" fill="none"/><path d="M15 71 C168 50,157 4,329 48" stroke="#52da74" fill="none"/><path d="M2 121 C172 90,187 46,322 22" stroke="#df4dbb" fill="none"/><path d="M7 43 C190 58,161 86,326 59" stroke="#5e82ed" fill="none"/><path d="M1 123 C187 20,171 25,336 87" stroke="#dd6e8a" fill="none"/><path d="M12 33 C162 99,158 61,322 60" stroke="#4bd7b4" fill="none"/><path d="M8 74 C168 58,182 15,333 61" stroke="#ba8ee6" fill="none"/><path d="M7 82 C155 125,177 67,327 126" stroke="#c0dc6f" fill="none"/><path d="M12 81 C158 115,180 43,335 34" stroke="#e6e692" fill="none"/><path d="M16 26 C183 66,176 4,324 116" stroke="#41e169" fill="none"/><path fill="#7cb5ed" d="M102.68 96.67L102.63 96.62L102.53 96.52Q100.11 96.67 97.41 95.95L97.34 95.88L97.47 96.01Q95.34 94.41 95.08 91.57L95.15 91.64L95.02 91.52Q94.92 91.15 95.25 86.60L95.28 86.63L95.34 86.69Q97.17 86.41 100.66 85.75L100.68 85.77L100.27 87.01L100.27 87.00Q99.77 90.01 102.21 90.99L102.20 90.98L102.23 91.01Q103.58 91.57 107.21 91.57L107.36 91.72L107.20 91.57Q109.96 91.29 110.29 91.16L110.46 91.32L110.36 91.23Q111.97 90.99 113.22 90.13L113.12 90.03L113.24 90.15Q115.68 88.50 115.35 84.88L115.38 84.91L115.36 84.88Q115.05 80.69 112.05 77.98L111.99 77.92L112.03 77.96Q108.97 75.19 104.68 75.19L104.77 75.29L104.74 74.85L104.62 74.74Q105.31 74.70 106.83 74.57L106.79 74.53L106.77 74.52Q110.24 74.49 112.62 72.35L112.55 72.28L112.57 72.31Q114.94 70.16 115.21 66.93L115.09 66.81L115.18 66.90Q115.35 66.35 115.35 65.75L115.29 65.70L115.39 65.79Q115.23 62.99 112.86 61.41L112.93 61.49L112.98 61.54Q110.88 60.16 108.11 60.36L108.01 60.26L107.97 60.22Q105.91 60.14 103.80 60.87L103.67 60.73L103.62 60.68Q101.26 61.76 100.74 63.73L100.58 63.58L100.67 63.67Q100.41 65.06 100.54 66.38L100.55 66.38L100.53 66.36Q98.72 65.94 95.16 64.69L95.12 64.65L95.12 64.65Q94.79 61.81 94.86 60.36L94.85 60.35L94.78 60.29Q95.08 57.75 96.93 56.57L96.85 56.48L96.83 56.47Q99.19 55.33 101.96 55.33L101.96 55.33L102.15 55.52Q107.62 55.45 113.09 55.91L113.08 55.90L113.10 55.92Q121.74 56.52 121.22 63.05L121.18 63.01L121.21 63.04Q121.12 65.65 120.26 68.36L120.29 68.38L120.34 68.43Q118.58 73.59 114.49 75.18L114.67 75.36L114.61 75.30Q119.14 76.20 120.19 82.00L120.10 81.91L120.11 81.92Q120.64 84.03 120.77 87.52L120.66 87.41L120.75 87.50Q120.94 95.15 112.96 95.94L113.05 96.03L113.05 96.03Q111.72 96.09 102.56 96.55ZM111.68 100.52L111.57 100.42L111.60 100.44Q112.75 100.61 117.70 100.74L117.59 100.63L117.54 100.58Q120.65 100.79 123.48 99.67L123.43 99.62L123.41 99.60Q125.47 97.97 125.14 94.93L125.27 95.06L125.21 95.00Q125.10 92.78 124.57 89.75L124.46 89.63L124.49 89.66Q123.14 81.79 119.78 78.95L119.84 79.01L119.55 78.40L119.41 78.19L119.39 78.16Q122.42 75.66 123.74 68.07L123.89 68.23L123.85 68.18Q123.85 67.33 124.05 65.68L124.02 65.65L124.08 65.71Q124.20 64.38 124.07 63.19L124.11 63.23L124.06 63.19Q123.86 60.35 121.62 59.16L121.61 59.15L121.37 59.04L121.50 59.17Q120.99 57.48 119.01 56.55L118.90 56.45L119.00 56.55Q116.27 55.27 107.37 54.74L107.43 54.80L107.48 54.85Q104.53 54.67 101.76 54.67L101.67 54.58L101.77 54.68Q98.96 54.64 96.33 55.76L96.42 55.85L96.38 55.82Q94.25 57.11 94.25 60.14L94.20 60.10L94.17 60.07Q94.25 59.42 94.71 65.23L94.63 65.15L94.67 65.19Q95.22 65.34 98.06 66.40L97.97 66.31L97.95 66.29Q98.09 67.35 98.02 68.21L97.99 68.17L98.03 68.22Q98.07 69.11 98.13 70.03L98.00 69.90L98.10 70.00Q101.19 70.64 104.68 70.84L104.71 70.87L104.60 70.76Q104.54 67.34 106.45 65.88L106.37 65.81L106.35 65.79Q107.78 64.64 111.27 64.25L111.44 64.42L111.38 64.35Q113.42 64.42 114.41 64.75L114.41 64.75L114.36 64.70Q114.34 64.81 114.41 65.01L114.36 64.96L114.55 65.48L114.73 66.46L114.64 66.36Q114.73 66.78 114.67 67.05L114.52 66.90L114.67 67.05Q114.37 69.85 111.73 71.90L111.81 71.97L111.74 71.91Q110.23 73.55 106.73 73.88L106.70 73.85L106.83 73.98Q105.52 74.19 104.00 74.19L104.01 74.20L103.89 74.07Q104.01 74.72 104.27 75.91L104.26 75.89L104.21 75.85Q107.38 75.98 109.89 77.24L109.90 77.24L109.59 77.13L106.90 77.48L107.00 77.58Q107.03 78.13 107.22 79.19L107.21 79.18L107.30 79.26Q110.87 79.01 113.84 81.32L113.80 81.28L113.94 81.42Q114.20 81.94 114.73 84.78L114.72 84.77L114.70 84.75Q115.17 89.97 110.09 90.69L110.09 90.69L110.10 90.70Q106.35 91.04 105.36 90.97L105.43 91.05L105.36 90.97Q104.66 90.87 103.73 90.73L103.75 90.75L103.79 90.00L103.85 89.07L103.89 88.38L104.07 87.97L104.02 87.92Q102.34 88.02 100.95 88.35L101.08 88.48L100.95 88.35Q101.02 88.09 101.02 87.76L100.93 87.67L100.85 87.59Q101.04 87.39 101.04 86.99L100.97 86.92L100.99 86.93Q101.01 86.16 101.27 84.91L101.34 84.97L101.31 84.94Q98.18 85.44 94.95 86.04L94.78 85.86L94.93 86.02Q94.85 86.79 94.65 88.74L94.67 88.76L94.60 88.68Q94.38 90.61 94.38 91.67L94.48 91.77L94.50 91.79Q94.67 95.39 97.05 96.71L97.04 96.70L97.00 96.67Q99.62 100.66 107.79 100.33L107.74 100.28L107.77 100.31Q108.91 100.13 111.55 100.39Z"/><path d="M2 24 C188 125,164 17,326 75" stroke="#a188eb" fill="none"/><path d="M10 33 C159 84,164 36,338 116" stroke="#77e8e8" fill="none"/><path d="M10 68 C186 82,182 1,329 53" stroke="#e890a6" fill="none"/><path d="M6 28 C181 68,189 47,326 53" stroke="#e3e381" fill="none"/><path d="M20 85 C161 65,158 13,322 13" stroke="#4166d6" fill="none"/><path d="M19 45 C159 66,179 98,338 48" stroke="#9b51e5" fill="none"/><path d="M5 87 C172 112,151 38,329 49" stroke="#de7c94" fill="none"/></svg>