<svg xmlns="http://www.w3.org/2000/svg" width="342" height="140" viewBox="0,0,342,140"><path d="M10 59 C166 107,181 115,338 61" stroke="#3c8ee0" fill="none"/><path d="M3 83 C155 25,158 86,323 18" stroke="#c9e475" fill="none"/><path d="M12 84 C160 28,172 8,326 121" stroke="#4848de" fill="none"/><path d="M6 91 C165 46,179 94,335 69" stroke="#e4b280" fill="none"/><path d="M8 63 C189 70,180 55,327 20" stroke="#9de584" fill="none"/><path d="M17 127 C157 43,185 79,326 39" stroke="#57dab9" fill="none"/><path d="M1 69 C172 7,157 72,338 116" stroke="#c7ea5b" fill="none"/><path d="M14 76 C151 19,153 79,337 33" stroke="#e76e8c" fill="none"/><path fill="#82e882" d="M58.44 74.15L58.37 74.08L58.41 74.12Q59.90 74.09 62.56 73.81L62.51 73.75L62.59 73.83Q62.49 75.03 62.49 76.25L62.49 76.26L62.51 78.66L62.50 78.64Q60.84 78.57 59.25 78.71L59.34 78.80L59.24 78.70Q57.67 78.79 56.08 78.71L56.26 78.89L56.23 78.86Q50.69 90.39 44.20 99.11L44.37 99.28L44.37 99.28Q39.55 100.45 37.10 101.60L36.97 101.46L37.11 101.61Q44.86 90.77 50.63 78.88L50.67 78.92L45.71 78.93L45.72 78.95Q45.66 76.36 45.45 73.84L45.51 73.90L45.44 73.84Q48.93 74.01 52.82 74.01L52.98 74.17L56.45 67.05L56.57 67.17Q58.35 63.47 60.66 60.44L60.64 60.43L60.62 60.41Q57.80 60.83 54.78 60.83L54.64 60.69L54.81 60.87Q43.23 60.81 36.09 56.63L36.11 56.65L34.90 53.42L34.78 53.30Q34.28 51.86 33.56 50.21L33.51 50.16L33.52 50.17Q41.64 55.04 52.45 55.48L52.54 55.57L52.47 55.50Q62.26 56.00 71.99 52.25L72.00 52.26L71.91 52.17Q71.52 52.93 70.58 54.59L70.56 54.57L70.64 54.64Q63.81 63.67 58.41 74.12ZM73.70 57.27L73.65 57.22L75.64 53.52L75.63 53.51Q73.75 54.37 70.58 55.74L70.48 55.64L70.91 55.13L71.02 55.24Q71.18 54.90 71.40 54.68L71.32 54.61L71.40 54.69Q72.12 53.39 73.49 50.86L73.51 50.89L73.38 50.76Q63.28 55.07 52.40 54.64L52.50 54.73L52.44 54.68Q41.05 54.17 32.05 48.55L32.09 48.59L32.19 48.69Q34.06 52.15 35.65 57.20L35.65 57.20L35.67 57.22Q37.76 58.44 39.27 59.02L39.21 58.95L39.17 58.92Q39.54 59.65 40.41 63.18L40.37 63.14L40.44 63.22Q46.33 65.50 56.78 65.21L56.81 65.24L56.76 65.20Q56.18 66.27 52.44 73.41L52.48 73.45L52.48 73.45Q48.54 73.41 44.80 73.05L44.85 73.10L44.81 73.06Q44.90 74.59 44.90 76.25L44.93 76.27L45.07 79.66L48.07 79.49L48.07 82.15L48.24 82.32Q40.81 96.30 35.55 103.07L35.40 102.92L35.55 103.08Q38.44 101.49 41.54 100.55L41.62 100.64L41.62 100.64Q40.37 102.41 37.77 105.66L37.67 105.55L37.72 105.60Q43.68 103.49 48.29 103.06L48.33 103.10L48.35 103.11Q53.82 95.90 59.73 83.08L59.74 83.08L66.30 83.52L66.31 83.54Q66.10 81.74 66.10 80.01L66.15 80.06L66.17 76.69L66.19 76.71Q65.69 76.71 64.64 76.78L64.46 76.61L64.57 76.71Q63.49 76.75 62.99 76.75L62.96 76.72L63.08 76.85Q63.09 76.64 63.17 76.36L63.02 76.21L63.05 75.73L63.12 75.80Q67.84 66.04 73.67 57.25Z"/><path d="M19 59 C160 60,154 24,339 68" stroke="#97d3e7" fill="none"/><path d="M14 82 C168 114,171 67,332 135" stroke="#7979e1" fill="none"/><path d="M10 73 C181 95,156 131,338 131" stroke="#59dd9b" fill="none"/><path d="M12 26 C179 90,168 20,322 101" stroke="#de8567" fill="none"/><path d="M10 52 C178 40,153 74,321 95" stroke="#4ad8d8" fill="none"/><path d="M10 102 C160 107,184 112,325 128" stroke="#a893e5" fill="none"/><path fill="#7ce396" d="M100.45 85.11L100.40 85.06L100.50 85.16Q106.21 84.32 112.26 84.53L112.38 84.64L112.23 84.50Q112.28 79.79 112.28 75.25L112.24 75.22L112.19 75.16Q112.31 70.60 112.67 65.77L112.55 65.65L112.51 65.61Q110.17 68.82 100.30 84.96ZM119.07 98.90L119.15 98.98L119.15 98.99Q116.03 98.46 112.64 98.31L112.54 98.21L112.48 98.15Q112.28 93.85 112.07 89.16L111.96 89.05L111.99 89.09Q101.88 88.71 92.95 91.37L93.04 91.46L92.90 91.33Q93.24 90.51 93.60 88.64L93.53 88.57L93.46 88.50Q96.92 82.59 103.70 70.70L103.68 70.68L103.69 70.70Q109.18 61.48 115.66 54.13L115.69 54.16L115.76 54.23Q117.28 53.74 120.45 53.23L120.60 53.38L120.57 53.35Q116.99 65.55 116.99 78.88L116.89 78.78L116.87 78.77Q116.96 81.66 117.11 84.47L117.01 84.38L119.57 84.70L119.54 84.67Q120.73 84.78 121.88 85.00L121.79 84.90L121.72 84.84Q122.02 86.79 122.52 90.47L122.57 90.51L122.51 90.46Q120.13 89.87 117.32 89.51L117.45 89.64L117.49 89.69Q117.83 93.41 119.13 98.96ZM122.29 84.18L122.22 84.11L122.34 84.23Q122.02 84.13 121.66 84.13L121.62 84.09L120.87 84.05L120.83 84.02Q120.66 81.26 120.66 78.59L120.60 78.52L120.59 78.52Q120.68 66.50 124.57 55.12L124.60 55.15L124.45 54.99Q123.08 55.57 120.34 56.29L120.28 56.23L120.31 56.26Q120.78 54.86 121.65 52.19L121.64 52.19L121.59 52.13Q119.28 52.99 115.39 53.43L115.35 53.39L115.40 53.44Q107.80 61.48 97.93 79.20L97.96 79.23L101.97 72.36L102.06 72.45Q101.18 74.31 100.68 75.40L100.71 75.43L92.25 92.47L92.22 92.45Q93.44 92.16 95.61 91.44L95.74 91.57L95.29 91.85L95.44 92.00Q95.04 93.11 94.47 95.49L94.64 95.66L94.48 95.50Q102.39 93.11 111.54 93.47L111.42 93.35L111.55 93.47Q111.67 95.32 112.03 99.07L111.87 98.91L111.95 98.99Q114.05 99.07 116.06 99.28L115.91 99.13L115.96 99.18Q116.18 100.41 116.68 103.00L116.73 103.05L116.79 103.11Q120.26 103.41 125.95 105.14L125.97 105.15L126.00 105.18Q124.19 101.21 122.46 95.02L122.35 94.91L125.16 95.84L125.16 95.85Q126.50 96.32 127.80 96.97L127.82 96.99L127.69 96.86Q126.32 92.25 126.03 89.08L125.95 88.99L125.94 88.98Q124.93 88.77 122.77 88.33L122.69 88.26L122.71 88.28Q122.28 85.83 122.28 84.17ZM107.15 83.88L107.20 83.93L107.10 83.83Q108.53 81.37 111.48 76.55L111.63 76.69L111.64 76.70Q111.49 78.35 111.42 80.15L111.46 80.19L111.45 80.19Q111.50 82.11 111.57 83.91L111.47 83.81L111.50 83.84Q110.44 83.79 109.36 83.79L109.37 83.80L109.42 83.85Q108.31 83.90 107.16 83.90Z"/><path d="M12 21 C153 82,166 7,340 71" stroke="#87d3ed" fill="none"/><path d="M15 103 C174 51,185 9,323 104" stroke="#4de44d" fill="none"/><path d="M1 84 C175 111,156 95,338 26" stroke="#4891d9" fill="none"/><path d="M7 12 C192 113,161 51,322 17" stroke="#4ee399" fill="none"/><path d="M12 125 C181 16,174 81,337 125" stroke="#d8714f" fill="none"/><path d="M5 72 C170 50,168 39,338 69" stroke="#a289ea" fill="none"/><path d="M5 21 C153 139,183 133,332 51" stroke="#e980cf" fill="none"/><path d="M9 24 C178 90,177 49,325 122" stroke="#e98aa2" fill="none"/><path fill="#4fd84f" d="M292.76 94.38L292.79 94.41L292.79 94.41Q293.40 96.31 294.41 100.13L294.44 100.16L294.46 100.18Q286.48 97.68 277.76 98.18L277.63 98.05L277.70 98.13Q269.01 98.58 261.44 102.33L261.50 102.39L261.44 102.33Q261.97 101.13 262.04 101.28L261.99 101.22L262.04 101.28Q269.11 93.79 276.54 85.43L276.43 85.32L276.53 85.42Q284.81 75.91 287.05 67.05L287.14 67.14L287.04 67.04Q287.93 63.76 285.52 61.52L285.54 61.54L285.44 61.44Q282.98 59.17 279.60 59.45L279.66 59.52L279.73 59.58Q279.01 59.44 278.36 59.44L278.46 59.54L278.35 59.44Q275.58 59.55 273.20 61.28L273.05 61.12L273.16 61.23Q270.59 63.70 271.02 68.75L271.03 68.76L271.14 68.87Q267.65 68.12 265.35 67.25L265.49 67.40L265.34 67.25Q265.15 64.75 265.01 62.01L264.88 61.89L264.92 61.92Q264.85 58.90 266.00 56.74L265.87 56.61L265.96 56.70Q269.27 54.02 275.61 54.02L275.73 54.15L278.94 54.04L278.97 54.07Q283.27 54.12 285.07 54.33L285.18 54.44L285.02 54.28Q293.31 55.15 293.81 59.76L293.73 59.68L293.79 59.74Q293.89 60.77 293.74 62.28L293.86 62.41L293.83 62.37Q293.71 63.55 293.42 64.85L293.45 64.87L293.48 64.91Q290.44 80.32 276.10 93.29L276.01 93.19L276.01 93.19Q278.74 92.97 281.34 92.97L281.33 92.96L281.28 92.92Q287.33 92.84 292.73 94.35ZM291.65 54.94L291.67 54.95L291.82 55.10Q288.79 53.87 285.54 53.73L285.41 53.59L278.90 53.21L279.02 53.33Q270.62 52.86 266.44 54.95L266.42 54.93L266.44 54.94Q264.41 57.53 264.41 61.42L264.34 61.35L264.26 61.26Q264.39 62.69 264.96 68.02L265.04 68.10L264.94 68.00Q265.95 68.44 268.19 69.01L268.25 69.08L268.32 71.09L268.15 70.92Q268.08 71.79 268.23 72.80L268.35 72.92L268.34 72.91Q270.78 73.19 275.46 73.62L275.28 73.44L275.43 73.60Q275.37 72.88 275.37 72.23L275.29 72.15L275.27 72.13Q275.34 68.75 277.65 66.19L277.67 66.21L277.51 66.05Q279.84 63.52 283.23 63.73L283.37 63.87L283.30 63.81Q284.83 63.96 286.27 64.25L286.26 64.25L286.19 64.17Q286.42 64.91 286.57 65.70L286.47 65.61L286.61 65.75Q286.57 66.42 286.42 67.07L286.48 67.13L286.48 67.13Q284.16 76.20 275.80 85.35L275.65 85.20L275.83 85.37Q271.73 89.56 261.43 101.02L261.38 100.97L261.30 100.90Q260.96 102.50 260.31 103.58L260.31 103.57L260.31 103.58Q263.33 101.91 266.21 100.90L266.36 101.06L266.38 101.07Q265.01 102.16 263.21 104.97L263.08 104.84L263.11 104.86Q262.89 105.51 262.67 106.16L262.59 106.07L262.78 106.26Q271.92 102.29 282.30 102.65L282.27 102.62L282.19 102.55Q292.99 102.90 301.64 107.37L301.74 107.46L299.75 103.32L299.78 103.34Q298.61 100.88 298.10 99.36L297.98 99.24L298.05 99.31Q296.63 98.46 294.32 97.67L294.35 97.69L294.30 97.65Q294.19 96.46 293.47 93.86L293.37 93.76L293.42 93.81Q289.29 92.79 284.97 92.43L284.93 92.39L284.82 92.27Q293.74 83.69 296.63 68.05L296.71 68.14L296.93 62.52L296.89 62.48Q296.92 59.27 294.61 57.97L294.45 57.81L294.40 57.83L294.52 57.95Q294.32 57.67 294.17 57.67L294.35 57.85L294.34 57.84Q293.74 56.08 291.65 54.93Z"/><path fill="#ad7bdf" d="M220.97 77.74L221.04 77.81L220.91 77.68Q217.49 77.50 215.14 80.20L215.16 80.22L215.30 80.36Q212.96 83.07 212.60 86.67L212.46 86.53L212.57 86.64Q212.06 90.45 214.11 92.29L214.22 92.39L214.08 92.25Q216.16 94.11 220.12 93.90L220.12 93.90L220.17 93.95Q224.06 93.59 226.15 92.29L226.10 92.24L226.18 92.32Q228.46 90.35 228.46 87.39L228.26 87.20L228.43 87.36Q228.34 86.56 228.20 85.84L228.14 85.77L228.26 85.89Q228.32 82.64 226.23 80.08L226.36 80.22L226.18 80.03Q224.23 77.62 221.06 77.83ZM220.27 98.88L220.30 98.91L220.19 98.79Q211.92 98.82 209.26 97.38L209.23 97.35L209.30 97.42Q207.39 96.01 207.03 92.77L206.97 92.71L207.03 92.77Q206.84 91.36 206.92 89.99L206.96 90.04L206.86 89.94Q207.09 88.08 207.09 87.21L207.12 87.24L207.22 87.34Q208.11 81.96 208.40 80.67L208.35 80.62L208.28 80.54Q209.16 76.89 210.75 74.22L210.71 74.18L210.81 74.29Q215.77 65.91 227.01 53.88L227.02 53.89L227.15 54.02Q232.17 53.42 236.35 51.90L236.31 51.87L236.20 51.75Q223.23 65.88 217.17 73.87L217.35 74.05L217.35 74.05Q219.19 73.08 221.64 73.08L221.68 73.12L221.61 73.05Q227.81 72.98 230.69 76.65L230.67 76.63L230.74 76.70Q233.23 79.77 233.88 86.47L233.87 86.46L233.84 86.44Q234.05 87.86 234.05 89.02L234.07 89.04L234.03 89.00Q234.08 94.96 229.90 96.98L229.86 96.94L229.78 96.86Q227.58 98.12 220.23 98.84ZM224.62 103.44L224.56 103.38L224.62 103.44Q226.95 103.25 230.70 103.40L230.79 103.49L230.73 103.43Q233.79 103.54 236.75 102.17L236.69 102.11L236.79 102.21Q238.90 100.71 238.90 97.33L238.96 97.39L238.83 97.26Q238.92 96.42 238.60 94.54L238.52 94.46L238.49 94.43Q238.20 92.60 238.20 91.73L238.21 91.74L238.33 91.86Q236.53 82.78 233.50 79.17L233.60 79.28L233.49 79.17Q233.47 79.08 233.19 78.65L233.14 78.60L232.56 78.16L232.48 78.15L232.47 78.14Q231.79 77.18 230.64 75.37L230.67 75.40L230.51 75.25Q228.81 73.47 225.06 72.61L225.11 72.66L225.13 72.68Q227.50 69.72 233.12 62.73L232.95 62.55L241.05 52.64L241.04 52.63Q238.16 54.37 233.62 55.81L233.63 55.82L233.47 55.66Q235.35 53.93 238.73 50.18L238.67 50.12L238.62 50.07Q234.11 52.11 226.76 53.19L226.80 53.23L226.70 53.14Q216.01 64.43 210.39 73.80L210.27 73.67L210.30 73.70Q207.47 78.51 206.39 90.33L206.41 90.35L206.48 90.42Q206.29 91.45 206.43 93.25L206.40 93.22L206.41 93.23Q206.58 96.57 208.67 98.30L208.64 98.27L208.63 98.27Q209.33 98.53 209.25 98.60L209.32 98.66L209.22 98.57Q209.97 100.32 211.48 101.11L211.56 101.19L211.43 101.06Q214.27 102.46 217.95 102.82L218.00 102.88L217.81 102.69Q217.92 102.80 224.55 103.38ZM224.12 82.11L224.16 82.15L224.01 82.01Q225.11 81.81 226.91 82.75L226.97 82.81L226.95 82.78Q227.63 84.62 227.63 85.85L227.58 85.80L227.62 85.83Q227.98 89.37 226.18 91.24L226.11 91.17L226.25 91.30Q224.14 92.59 220.18 93.16L220.23 93.22L220.26 93.25Q217.54 93.27 216.53 92.76L216.43 92.66L216.47 92.69Q216.19 91.92 216.19 91.34L216.14 91.29L216.13 91.28Q215.61 84.99 221.16 82.54L221.25 82.64L221.14 82.52Q222.63 81.93 224.07 82.07Z"/><path d="M18 61 C151 42,170 73,322 19" stroke="#e448bd" fill="none"/><path fill="#e79b4f" d="M165.61 66.94L165.56 66.90L165.63 66.96Q159.68 67.07 156.22 65.05L156.10 64.93L156.16 64.98Q160.89 62.37 170.12 54.37L170.09 54.34L170.02 54.28Q171.39 53.92 173.84 52.76L173.93 52.85L173.97 52.89Q171.46 64.15 171.24 76.18L171.16 76.10L171.28 76.21Q171.03 88.21 173.05 99.74L172.95 99.64L173.03 99.73Q169.87 98.37 165.83 98.15L165.71 98.03L165.71 98.03Q165.58 90.26 165.58 82.55L165.47 82.44L165.57 82.54Q165.58 74.77 165.65 66.98ZM164.91 71.22L164.83 98.73L164.88 98.79Q167.31 98.91 169.12 99.27L169.08 99.23L169.07 99.22Q169.27 100.58 169.63 103.17L169.62 103.17L169.49 103.03Q174.87 104.02 179.49 108.27L179.55 108.33L179.62 108.41Q174.83 94.83 174.76 80.71L174.70 80.65L174.85 80.80Q174.67 66.64 178.13 52.95L178.14 52.95L178.15 52.96Q177.18 53.80 174.16 55.89L174.08 55.81L174.10 55.83Q174.46 54.39 175.04 51.51L174.99 51.46L175.00 51.47Q172.56 53.00 169.83 53.72L169.84 53.74L169.73 53.63Q162.54 60.35 154.40 64.67L154.43 64.70L154.39 64.65Q157.05 66.74 161.52 67.39L161.65 67.52L161.60 67.48Q160.30 68.41 157.85 70.42L157.97 70.55L157.86 70.44Q160.76 71.25 164.94 71.25L164.88 71.19Z"/><path d="M2 42 C168 94,185 27,333 54" stroke="#8ae48a" fill="none"/><path d="M17 113 C169 90,174 16,336 28" stroke="#ed7291" fill="none"/><path d="M20 58 C152 130,170 55,321 111" stroke="#e5b584" fill="none"/><path d="M3 46 C179 64,181 132,327 136" stroke="#dd78aa" fill="none"/><path d="M11 95 C160 102,165 73,334 72" stroke="#48d56b" fill="none"/><path d="M4 36 C191 68,191 62,336 23" stroke="#51db51" fill="none"/><path d="M6 107 C150 66,180 114,335 93" stroke="#e689b7" fill="none"/><path d="M14 89 C173 88,170 96,324 128" stroke="#ecd48c" fill="none"/><path d="M16 86 C165 52,166 42,334 129" stroke="#73e34e" fill="none"/><path d="M1 75 C171 59,187 91,322 94" stroke="#ba8ae9" fill="none"/><path d="M9 35 C160 88,181 13,322 33" stroke="#9376e9" fill="none"/><path d="M10 108 C161 98,157 63,333 22" stroke="#6aa3dc" fill="none"/><path d="M18 57 C183 43,180 84,332 73" stroke="#53bfe3" fill="none"/><path d="M13 20 C171 43,151 35,322 85" stroke="#e3e37c" fill="none"/><path d="M7 93 C185 37,161 50,338 47" stroke="#ade475" fill="none"/><path d="M12 50 C161 99,189 102,339 67" stroke="#d3ed87" fill="none"/><path d="M10 132 C152 131,189 32,329 29" stroke="#6bdb6b" fill="none"/></svg>