<svg xmlns="http://www.w3.org/2000/svg" width="342" height="140" viewBox="0,0,342,140"><path d="M16 135 C177 68,158 65,327 88" stroke="#e04291" fill="none"/><path d="M19 57 C152 50,151 68,329 91" stroke="#ee9c80" fill="none"/><path d="M1 51 C166 124,157 69,331 44" stroke="#c868e8" fill="none"/><path d="M9 67 C174 35,151 134,334 133" stroke="#d95899" fill="none"/><path d="M10 118 C184 124,171 128,341 104" stroke="#7854e2" fill="none"/><path d="M20 49 C171 99,167 72,328 72" stroke="#ea61c8" fill="none"/><path d="M8 53 C158 48,154 75,329 122" stroke="#41e141" fill="none"/><path d="M21 115 C182 102,161 5,336 123" stroke="#c254e7" fill="none"/><path fill="#eaea70" d="M102.82 82.46L102.71 82.35L102.75 82.39Q107.56 81.82 112.53 82.00L112.54 82.01L112.47 81.94Q112.47 78.03 112.47 74.31L112.36 74.20L112.47 74.32Q112.48 70.47 112.77 66.51L112.68 66.42L112.78 66.52Q110.77 69.06 102.67 82.31ZM118.10 93.78L118.05 93.73L118.06 93.74Q115.47 93.28 112.69 93.16L112.77 93.24L112.62 93.10Q112.33 89.43 112.15 85.58L112.16 85.59L112.26 85.70Q103.87 85.29 96.54 87.48L96.71 87.65L96.71 87.65Q96.81 86.80 97.10 85.27L97.14 85.30L97.02 85.18Q99.79 80.26 105.35 70.51L105.45 70.60L105.38 70.53Q109.85 62.94 115.18 56.91L115.34 57.07L115.25 56.98Q116.57 56.64 119.17 56.23L119.14 56.20L119.26 56.32Q116.17 66.18 116.17 77.12L116.28 77.24L116.22 77.17Q116.32 79.58 116.44 81.89L116.32 81.77L118.48 82.10L118.43 82.05Q119.34 82.07 120.29 82.25L120.31 82.27L120.24 82.20Q120.50 83.82 120.91 86.84L120.91 86.84L120.86 86.78Q118.96 86.36 116.65 86.06L116.66 86.07L116.67 86.08Q117.11 89.31 118.18 93.86ZM120.77 81.72L120.60 81.55L120.61 81.56Q120.34 81.47 120.04 81.47L120.01 81.44L119.57 81.58L119.49 81.51Q119.33 79.22 119.33 77.03L119.27 76.97L119.25 76.96Q119.30 67.06 122.49 57.72L122.62 57.85L122.58 57.81Q121.39 58.21 119.14 58.80L119.08 58.74L119.01 58.67Q119.50 57.62 120.21 55.44L120.13 55.36L120.26 55.49Q118.06 55.89 114.87 56.25L114.93 56.31L114.98 56.36Q108.96 63.17 100.86 77.72L100.71 77.57L104.00 71.93L104.11 72.04Q103.46 73.64 103.04 74.52L102.96 74.45L96.06 88.48L95.99 88.41Q96.99 88.16 98.76 87.57L98.75 87.56L98.67 88.07L98.54 87.95Q98.43 89.07 97.96 91.03L97.85 90.92L97.95 91.02Q104.39 89.00 111.90 89.29L111.77 89.17L111.84 89.24Q111.98 90.80 112.28 93.87L112.23 93.83L112.27 93.87Q113.85 93.79 115.50 93.96L115.56 94.02L115.58 94.04Q115.69 94.98 116.10 97.10L116.20 97.21L116.16 97.17Q119.14 97.54 123.81 98.96L123.72 98.87L123.86 99.01Q122.28 95.65 120.86 90.57L120.90 90.61L123.09 91.26L123.05 91.22Q124.12 91.58 125.18 92.11L125.21 92.13L125.18 92.11Q123.90 88.17 123.66 85.56L123.80 85.70L123.72 85.62Q122.90 85.45 121.13 85.10L121.04 85.01L121.07 85.04Q120.71 83.02 120.71 81.66ZM108.30 81.44L108.23 81.36L108.34 81.48Q109.37 79.32 111.80 75.35L111.94 75.49L111.91 75.47Q111.88 76.92 111.82 78.40L111.79 78.36L111.85 78.43Q111.83 79.94 111.89 81.42L111.93 81.46L111.98 81.51Q110.96 81.32 110.07 81.32L110.13 81.37L110.15 81.39Q109.23 81.42 108.28 81.42Z"/><path d="M20 88 C163 111,174 53,326 21" stroke="#55ecec" fill="none"/><path d="M5 22 C157 79,156 91,334 49" stroke="#e980e9" fill="none"/><path d="M7 65 C185 53,191 105,338 21" stroke="#e051bc" fill="none"/><path d="M6 132 C186 18,182 37,328 26" stroke="#53d4d4" fill="none"/><path d="M13 89 C176 80,168 116,327 61" stroke="#6fa8e1" fill="none"/><path d="M18 22 C190 58,154 65,324 122" stroke="#e5d094" fill="none"/><path d="M6 47 C190 53,188 19,329 80" stroke="#edd691" fill="none"/><path d="M11 91 C191 65,183 27,339 16" stroke="#bc61db" fill="none"/><path d="M8 51 C159 25,176 56,340 70" stroke="#839ae1" fill="none"/><path d="M9 131 C182 46,183 111,324 26" stroke="#62da80" fill="none"/><path d="M13 29 C186 27,187 6,336 59" stroke="#bc90e9" fill="none"/><path d="M7 34 C152 83,167 36,329 34" stroke="#7894e7" fill="none"/><path d="M15 89 C162 15,188 119,340 74" stroke="#6e46e5" fill="none"/><path d="M8 85 C174 78,152 88,327 22" stroke="#8282e7" fill="none"/><path d="M13 86 C151 78,190 11,326 60" stroke="#6767e9" fill="none"/><path d="M20 95 C180 133,165 68,329 47" stroke="#e349bd" fill="none"/><path d="M9 44 C162 116,188 73,331 65" stroke="#d386ed" fill="none"/><path d="M11 45 C156 116,191 70,323 48" stroke="#cd73ec" fill="none"/><path fill="#e6a38d" d="M272.79 82.44L272.78 82.42L272.63 82.27Q277.53 81.79 282.50 81.97L282.41 81.88L282.51 81.98Q282.45 78.01 282.45 74.29L282.46 74.30L282.51 74.35Q282.39 70.39 282.69 66.43L282.66 66.40L282.78 66.52Q280.92 69.21 272.82 82.46ZM288.07 93.75L288.15 93.83L288.03 93.71Q285.40 93.21 282.62 93.09L282.69 93.16L282.70 93.17Q282.32 89.42 282.14 85.58L282.31 85.75L282.26 85.69Q273.88 85.30 266.54 87.49L266.68 87.62L266.56 87.50Q266.85 86.84 267.14 85.31L267.00 85.16L267.17 85.33Q269.78 80.25 275.34 70.50L275.41 70.56L275.49 70.64Q280.02 63.11 285.34 57.07L285.33 57.07L285.30 57.03Q286.71 56.79 289.32 56.38L289.19 56.25L289.31 56.37Q286.24 66.26 286.24 77.20L286.20 77.16L286.34 77.29Q286.27 79.53 286.39 81.84L286.37 81.82L288.30 81.92L288.31 81.93Q289.30 82.03 290.25 82.21L290.29 82.25L290.31 82.27Q290.39 83.71 290.80 86.72L290.90 86.82L290.96 86.89Q288.99 86.39 286.68 86.10L286.71 86.12L286.62 86.04Q287.00 89.19 288.07 93.75ZM290.70 81.66L290.68 81.64L290.73 81.68Q290.44 81.57 290.14 81.57L290.07 81.50L289.54 81.56L289.58 81.60Q289.38 79.27 289.38 77.08L289.37 77.07L289.38 77.08Q289.30 67.06 292.49 57.72L292.49 57.72L292.47 57.69Q291.40 58.23 289.15 58.82L289.10 58.77L289.08 58.75Q289.47 57.59 290.18 55.41L290.09 55.31L290.22 55.45Q288.10 55.93 284.90 56.28L285.02 56.40L284.93 56.31Q278.85 63.06 270.75 77.61L270.78 77.65L273.98 71.92L274.08 72.01Q273.30 73.49 272.89 74.37L272.97 74.45L266.08 88.50L266.00 88.42Q266.98 88.15 268.75 87.56L268.75 87.57L268.59 87.99L268.67 88.07Q268.40 89.04 267.92 90.99L267.95 91.02L268.01 91.08Q274.39 89.00 281.90 89.29L281.75 89.15L281.88 89.28Q281.80 90.62 282.10 93.70L282.22 93.82L282.08 93.68Q283.84 93.78 285.50 93.96L285.52 93.99L285.49 93.95Q285.69 94.98 286.11 97.11L286.05 97.06L286.08 97.09Q289.12 97.52 293.79 98.94L293.76 98.91L293.80 98.95Q292.30 95.67 290.88 90.59L290.81 90.52L293.09 91.26L293.07 91.24Q294.16 91.62 295.22 92.15L295.09 92.02L295.26 92.19Q293.91 88.18 293.67 85.57L293.68 85.58L293.66 85.56Q292.92 85.47 291.14 85.11L291.11 85.08L291.11 85.08Q290.72 83.04 290.72 81.68ZM278.35 81.48L278.37 81.51L278.23 81.37Q279.43 79.38 281.86 75.42L281.81 75.37L281.83 75.39Q281.91 76.95 281.85 78.42L281.77 78.34L281.92 78.49Q281.76 79.87 281.82 81.35L281.92 81.45L281.85 81.38Q280.93 81.29 280.05 81.29L280.10 81.35L280.16 81.41Q279.29 81.48 278.34 81.48Z"/><path d="M19 81 C191 34,171 99,334 42" stroke="#5353e8" fill="none"/><path fill="#5d5de8" d="M159.48 82.46L159.38 82.35L159.41 82.39Q164.16 81.76 169.13 81.93L169.10 81.91L169.06 81.86Q169.16 78.06 169.16 74.34L169.10 74.27L169.14 74.31Q168.99 70.32 169.28 66.36L169.42 66.49L169.42 66.50Q167.58 69.21 159.48 82.46ZM174.76 93.78L174.86 93.87L174.84 93.86Q172.15 93.29 169.37 93.18L169.46 93.27L169.34 93.15Q169.05 89.49 168.87 85.64L168.84 85.60L169.01 85.77Q160.59 85.35 153.26 87.53L153.29 87.56L153.24 87.51Q153.39 86.72 153.69 85.18L153.69 85.18L153.79 85.28Q156.51 80.31 162.07 70.55L162.15 70.64L162.19 70.67Q166.57 63.00 171.90 56.96L171.93 56.99L172.02 57.09Q173.33 56.74 175.93 56.32L175.96 56.35L175.93 56.33Q172.98 66.33 172.98 77.27L173.02 77.30L173.00 77.29Q172.94 79.53 173.06 81.84L173.07 81.85L175.06 82.01L175.07 82.02Q176.05 82.12 177.00 82.29L177.03 82.33L177.05 82.34Q177.22 83.87 177.63 86.89L177.63 86.89L177.53 86.78Q175.55 86.28 173.24 85.99L173.34 86.09L173.44 86.18Q173.78 89.30 174.84 93.86ZM177.32 81.61L177.44 81.73L177.33 81.62Q177.10 81.57 176.81 81.57L176.72 81.48L176.10 81.46L176.10 81.45Q175.97 79.19 175.97 77.00L175.96 76.99L176.07 77.10Q176.08 67.18 179.27 57.83L179.22 57.78L179.22 57.79Q178.01 58.17 175.76 58.76L175.77 58.76L175.80 58.80Q176.18 57.64 176.89 55.45L176.87 55.43L176.78 55.34Q174.84 56.00 171.64 56.36L171.63 56.34L171.56 56.27Q165.59 63.14 157.49 77.68L157.52 77.72L160.73 71.99L160.69 71.96Q160.06 73.58 159.65 74.47L159.52 74.34L152.70 88.46L152.67 88.43Q153.76 88.27 155.53 87.68L155.41 87.56L155.19 87.92L155.27 88.00Q155.13 89.11 154.66 91.06L154.67 91.07L154.57 90.97Q160.96 88.91 168.47 89.20L168.45 89.18L168.51 89.24Q168.63 90.78 168.93 93.86L168.80 93.73L168.79 93.72Q170.42 93.69 172.08 93.87L172.14 93.93L172.07 93.86Q172.31 94.93 172.73 97.06L172.89 97.22L172.76 97.10Q175.84 97.58 180.51 98.99L180.41 98.89L180.34 98.83Q178.95 95.66 177.53 90.57L177.52 90.56L179.72 91.22L179.75 91.25Q180.76 91.55 181.82 92.08L181.89 92.15L181.93 92.19Q180.71 88.31 180.47 85.71L180.37 85.60L180.31 85.54Q179.50 85.38 177.72 85.03L177.70 85.00L177.80 85.10Q177.31 82.96 177.31 81.60ZM164.98 81.45L164.98 81.45L164.92 81.39Q166.14 79.42 168.57 75.46L168.61 75.50L168.53 75.42Q168.49 76.86 168.43 78.33L168.45 78.35L168.41 78.32Q168.51 79.95 168.57 81.43L168.59 81.46L168.52 81.39Q167.75 81.44 166.86 81.44L166.80 81.37L166.69 81.26Q165.98 81.51 165.04 81.51Z"/><path d="M15 134 C189 52,188 43,333 120" stroke="#8ed646" fill="none"/><path d="M9 114 C160 139,152 53,336 99" stroke="#e04cbb" fill="none"/><path d="M8 64 C178 138,192 7,333 18" stroke="#e4b78a" fill="none"/><path d="M3 84 C150 33,163 106,335 94" stroke="#b27ce8" fill="none"/><path d="M17 134 C167 101,191 28,332 127" stroke="#63dd63" fill="none"/><path fill="#eeb57b" d="M216.98 93.79L217.06 93.87L216.95 93.76Q214.81 93.93 212.39 93.28L212.44 93.33L212.48 93.36Q210.52 91.88 210.28 89.34L210.34 89.39L210.23 89.28Q210.17 88.99 210.46 84.90L210.49 84.93L210.61 85.06Q212.07 84.62 215.21 84.03L215.20 84.02L214.92 85.22L214.91 85.21Q214.50 87.94 216.69 88.83L216.69 88.82L216.83 88.96Q217.92 89.34 221.17 89.34L221.14 89.31L221.32 89.49Q223.66 89.12 223.96 89.00L224.04 89.08L224.07 89.11Q225.34 88.72 226.46 87.95L226.52 88.01L226.61 88.10Q228.70 86.52 228.40 83.27L228.52 83.39L228.49 83.35Q228.16 79.54 225.47 77.11L225.51 77.15L225.36 77.00Q222.77 74.68 218.92 74.68L218.92 74.68L218.87 74.26L218.92 74.32Q219.51 74.26 220.87 74.14L220.95 74.22L220.90 74.17Q223.82 73.95 225.95 72.03L225.89 71.97L226.04 72.12Q228.03 70.06 228.27 67.17L228.31 67.21L228.34 67.24Q228.36 66.61 228.36 66.08L228.48 66.20L228.46 66.17Q228.51 63.86 226.39 62.44L226.38 62.44L226.36 62.42Q224.51 61.22 222.02 61.39L221.91 61.28L221.87 61.24Q219.86 61.01 217.97 61.66L218.03 61.72L218.00 61.69Q215.80 62.57 215.33 64.34L215.36 64.37L215.30 64.31Q214.97 65.46 215.09 66.65L215.18 66.73L215.23 66.78Q213.44 66.24 210.25 65.11L210.33 65.19L210.41 65.27Q209.94 62.56 210.00 61.26L210.05 61.31L209.97 61.23Q210.24 58.96 211.90 57.89L211.90 57.89L211.83 57.83Q214.06 56.92 216.54 56.92L216.51 56.89L216.63 57.01Q221.52 56.93 226.43 57.34L226.40 57.31L226.39 57.31Q234.21 57.91 233.74 63.76L233.72 63.74L233.78 63.80Q233.73 66.18 232.96 68.61L232.88 68.52L232.86 68.51Q231.47 73.32 227.80 74.74L227.86 74.80L227.89 74.83Q231.94 75.63 232.89 80.84L232.90 80.85L232.88 80.83Q233.18 82.55 233.30 85.68L233.24 85.63L233.23 85.61Q233.55 92.62 226.39 93.33L226.34 93.28L226.29 93.22Q225.28 93.46 217.06 93.87ZM225.10 97.30L225.15 97.35L225.20 97.40Q226.11 97.42 230.54 97.53L230.49 97.48L230.53 97.52Q233.20 97.59 235.74 96.58L235.76 96.60L235.71 96.55Q237.67 95.20 237.37 92.48L237.22 92.32L237.23 92.33Q237.04 90.25 236.56 87.53L236.62 87.58L236.62 87.58Q235.53 80.63 232.51 78.09L232.52 78.10L232.29 77.57L232.19 77.41L232.14 77.37Q234.96 75.22 236.14 68.42L236.06 68.34L236.12 68.40Q236.20 67.71 236.38 66.23L236.24 66.09L236.26 66.11Q236.48 65.03 236.36 63.97L236.33 63.93L236.33 63.94Q236.12 61.36 234.11 60.29L233.98 60.16L233.84 60.14L233.99 60.29Q233.45 58.68 231.67 57.86L231.62 57.81L231.77 57.96Q229.39 56.87 221.41 56.40L221.33 56.32L221.37 56.36Q218.68 56.16 216.19 56.16L216.23 56.20L216.22 56.18Q213.84 56.28 211.47 57.29L211.39 57.20L211.37 57.19Q209.58 58.47 209.58 61.19L209.52 61.13L209.56 61.18Q209.57 60.53 209.98 65.73L209.83 65.59L210.00 65.75Q210.47 65.87 213.02 66.82L212.91 66.71L212.88 66.68Q213.04 67.67 212.98 68.44L212.89 68.35L212.84 68.29Q212.91 69.13 212.96 69.96L212.99 69.98L212.87 69.86Q215.82 70.63 218.95 70.80L218.82 70.67L218.82 70.67Q218.73 67.57 220.45 66.27L220.36 66.18L220.37 66.19Q221.74 65.25 224.87 64.89L224.80 64.82L224.90 64.92Q226.72 64.97 227.61 65.26L227.46 65.11L227.55 65.21Q227.68 65.45 227.73 65.63L227.73 65.62L227.68 65.87L227.79 66.69L227.84 66.74Q227.83 67.02 227.77 67.26L227.88 67.37L227.78 67.27Q227.75 70.02 225.39 71.86L225.29 71.76L225.33 71.80Q223.84 73.15 220.71 73.44L220.74 73.48L220.67 73.40Q219.71 73.81 218.35 73.81L218.30 73.76L218.24 73.70Q218.42 74.35 218.66 75.42L218.48 75.24L218.58 75.34Q221.22 75.26 223.47 76.39L223.47 76.38L223.42 76.51L220.89 76.70L220.91 76.73Q220.92 77.21 221.10 78.16L221.23 78.29L221.11 78.17Q224.52 78.15 227.18 80.22L227.23 80.26L227.22 80.25Q227.53 80.80 228.00 83.34L228.05 83.39L228.04 83.38Q228.27 87.86 223.71 88.52L223.67 88.47L223.78 88.58Q220.36 88.83 219.48 88.77L219.65 88.95L219.50 88.80Q218.84 88.67 218.01 88.55L217.97 88.51L218.06 87.89L218.25 87.19L218.18 86.47L218.33 86.09L218.23 85.99Q216.85 86.20 215.61 86.50L215.68 86.58L215.62 86.51Q215.56 86.15 215.56 85.86L215.45 85.75L215.60 85.90Q215.57 85.52 215.57 85.16L215.69 85.29L215.69 85.28Q215.75 84.64 215.99 83.51L215.86 83.39L215.99 83.52Q213.03 83.80 210.13 84.33L210.20 84.41L210.04 84.25Q210.08 85.05 209.90 86.80L209.92 86.82L210.01 86.91Q209.79 88.61 209.79 89.55L209.67 89.43L209.70 89.46Q209.80 92.64 211.93 93.82L211.98 93.87L211.96 93.85Q214.28 97.42 221.62 97.12L221.67 97.18L221.62 97.13Q222.84 97.17 225.21 97.40Z"/><path d="M20 133 C161 32,186 79,330 34" stroke="#e16969" fill="none"/><path fill="#ebcc6f" d="M57.99 73.28L58.15 73.44L58.14 73.42Q59.42 73.46 61.60 73.22L61.47 73.09L61.61 73.22Q61.40 74.08 61.40 75.09L61.38 75.07L61.55 77.19L61.51 77.15Q60.16 77.10 58.86 77.22L58.93 77.29L58.83 77.20Q57.48 77.20 56.18 77.14L56.25 77.21L56.28 77.24Q51.78 86.76 46.46 93.92L46.54 94.00L46.56 94.02Q42.53 94.90 40.52 95.85L40.57 95.90L40.58 95.91Q46.99 87.06 51.72 77.30L51.70 77.28L47.65 77.30L47.53 77.19Q47.53 75.12 47.36 73.05L47.47 73.17L47.45 73.14Q50.48 73.46 53.68 73.46L53.59 73.37L56.63 67.72L56.52 67.61Q58.04 64.63 59.93 62.15L59.89 62.10L59.97 62.18Q57.48 62.35 54.99 62.35L55.15 62.51L55.05 62.41Q45.65 62.47 39.79 59.04L39.67 58.92L38.84 56.43L38.70 56.30Q38.14 54.96 37.54 53.60L37.66 53.71L37.54 53.59Q44.30 57.70 53.18 58.05L53.18 58.06L53.20 58.07Q61.24 58.48 69.22 55.41L69.23 55.41L69.11 55.29Q68.94 56.08 68.17 57.44L68.05 57.31L68.14 57.40Q62.49 64.76 58.05 73.34ZM70.55 59.46L70.54 59.44L72.09 56.32L72.07 56.31Q70.59 57.07 67.98 58.19L68.15 58.35L68.33 57.77L68.37 57.81Q68.53 57.55 68.70 57.37L68.79 57.46L68.72 57.39Q69.26 56.28 70.39 54.21L70.47 54.29L70.40 54.22Q62.23 57.88 53.30 57.53L53.27 57.49L53.23 57.46Q43.96 57.12 36.57 52.51L36.52 52.46L36.43 52.37Q38.07 55.30 39.37 59.44L39.31 59.38L39.40 59.48Q41.17 60.53 42.41 61.00L42.26 60.86L42.29 60.88Q42.50 61.39 43.21 64.29L43.36 64.44L43.36 64.44Q48.14 66.26 56.72 66.03L56.78 66.09L56.71 66.02Q56.38 67.05 53.31 72.91L53.25 72.85L53.20 72.81Q49.99 72.78 46.91 72.49L47.04 72.62L47.03 72.61Q47.14 73.90 47.14 75.26L47.16 75.28L47.17 77.95L49.64 77.81L49.68 80.05L49.67 80.03Q43.68 91.61 39.36 97.17L39.27 97.08L39.35 97.16Q41.74 95.88 44.28 95.11L44.39 95.22L44.39 95.22Q43.32 96.63 41.19 99.30L41.19 99.30L41.10 99.21Q46.06 97.54 49.85 97.19L49.86 97.20L49.81 97.15Q54.31 91.24 59.15 80.71L59.23 80.78L64.57 81.09L64.49 81.02Q64.32 79.54 64.32 78.12L64.38 78.19L64.33 75.36L64.45 75.48Q63.92 75.36 63.06 75.42L63.23 75.59L63.21 75.57Q62.34 75.62 61.93 75.62L61.94 75.63L61.89 75.58Q61.79 75.30 61.85 75.06L62.00 75.22L61.90 74.70L62.02 74.82Q65.87 66.78 70.66 59.57Z"/><path d="M10 97 C169 40,191 23,333 71" stroke="#a6e98f" fill="none"/><path d="M6 80 C158 70,176 84,338 59" stroke="#704ae2" fill="none"/><path d="M12 136 C189 59,172 17,322 67" stroke="#8669dd" fill="none"/><path d="M5 108 C190 89,189 73,323 29" stroke="#e66337" fill="none"/><path d="M15 137 C176 70,176 28,328 107" stroke="#91e7bc" fill="none"/><path d="M19 47 C179 54,171 13,330 3" stroke="#5096dc" fill="none"/><path d="M6 60 C186 66,166 44,332 19" stroke="#e2bc4a" fill="none"/></svg>