<svg xmlns="http://www.w3.org/2000/svg" width="342" height="140" viewBox="0,0,342,140"><path d="M6 62 C185 4,160 30,324 88" stroke="#55b6d7" fill="none"/><path d="M16 15 C164 29,163 6,335 16" stroke="#7c7cde" fill="none"/><path d="M13 121 C189 22,182 119,333 83" stroke="#6eaae7" fill="none"/><path d="M20 114 C183 122,166 108,326 112" stroke="#4b4beb" fill="none"/><path d="M16 46 C190 83,152 11,338 25" stroke="#c7e079" fill="none"/><path d="M1 46 C164 99,168 58,335 93" stroke="#9343e4" fill="none"/><path d="M19 48 C190 120,192 123,337 59" stroke="#e287e2" fill="none"/><path fill="#36e7bb" d="M158.31 83.66L158.24 83.59L158.31 83.67Q163.59 83.01 169.07 83.20L169.08 83.21L169.08 83.21Q168.97 78.79 168.97 74.68L168.98 74.69L169.01 74.72Q168.93 70.40 169.26 66.03L169.23 66.00L169.37 66.14Q167.13 68.93 158.19 83.55ZM175.34 96.32L175.33 96.32L175.18 96.17Q172.37 95.70 169.30 95.57L169.39 95.66L169.30 95.57Q169.04 91.58 168.84 87.34L168.80 87.30L168.71 87.21Q159.67 86.98 151.58 89.40L151.49 89.31L151.58 89.40Q151.72 88.49 152.04 86.79L152.17 86.92L152.10 86.85Q155.18 81.45 161.31 70.68L161.30 70.67L161.23 70.60Q166.15 62.20 172.02 55.54L172.04 55.56L172.06 55.58Q173.66 55.35 176.53 54.89L176.58 54.95L176.54 54.90Q173.23 65.89 173.23 77.96L173.18 77.92L173.30 78.04Q173.24 80.51 173.37 83.06L173.42 83.11L175.57 83.24L175.49 83.16Q176.67 83.35 177.71 83.55L177.66 83.51L177.62 83.47Q177.92 85.27 178.38 88.59L178.23 88.44L178.35 88.56Q176.24 88.09 173.70 87.76L173.79 87.85L173.62 87.68Q174.16 91.30 175.34 96.32ZM178.03 82.76L178.17 82.90L178.17 82.90Q177.81 82.74 177.48 82.74L177.48 82.74L176.86 82.76L176.85 82.75Q176.54 80.09 176.54 77.68L176.64 77.78L176.64 77.79Q176.64 66.82 180.16 56.50L180.06 56.40L180.19 56.53Q178.83 56.94 176.35 57.59L176.44 57.68L176.38 57.62Q176.68 56.22 177.46 53.80L177.54 53.88L177.59 53.93Q175.39 54.61 171.87 55.00L171.79 54.92L171.74 54.87Q164.99 62.28 156.05 78.34L156.09 78.38L159.70 72.13L159.76 72.20Q158.94 73.85 158.48 74.83L158.50 74.84L150.88 90.33L150.87 90.32Q152.02 90.10 153.98 89.45L154.03 89.50L153.68 89.80L153.63 89.75Q153.62 91.11 153.10 93.27L152.98 93.15L152.99 93.16Q160.05 90.89 168.34 91.22L168.35 91.23L168.30 91.18Q168.38 92.82 168.70 96.21L168.72 96.23L168.65 96.16Q170.48 96.16 172.31 96.36L172.30 96.35L172.41 96.46Q172.57 97.53 173.02 99.88L173.19 100.05L173.13 99.99Q176.29 100.27 181.44 101.84L181.61 102.00L181.50 101.90Q179.85 98.29 178.29 92.68L178.33 92.72L180.72 93.41L180.64 93.34Q181.91 93.82 183.09 94.41L183.15 94.48L183.16 94.49Q181.69 90.07 181.43 87.20L181.38 87.16L181.54 87.31Q180.48 86.97 178.52 86.58L178.57 86.63L178.47 86.53Q178.11 84.34 178.11 82.84ZM164.45 82.63L164.46 82.64L164.52 82.69Q165.74 80.39 168.42 76.02L168.30 75.91L168.36 75.97Q168.50 77.73 168.43 79.36L168.31 79.25L168.34 79.27Q168.27 80.90 168.34 82.53L168.32 82.52L168.39 82.58Q167.44 82.55 166.46 82.55L166.51 82.60L166.44 82.52Q165.39 82.52 164.35 82.52Z"/><path d="M15 46 C186 8,180 47,328 87" stroke="#e7e78c" fill="none"/><path d="M5 68 C162 42,179 129,325 99" stroke="#91bfec" fill="none"/><path d="M12 124 C172 132,167 43,323 16" stroke="#ec87ba" fill="none"/><path d="M11 111 C152 22,182 53,339 132" stroke="#e55ba0" fill="none"/><path d="M11 63 C179 30,155 121,322 103" stroke="#e68eba" fill="none"/><path d="M2 100 C171 72,172 7,331 14" stroke="#bc4be1" fill="none"/><path d="M1 8 C165 31,151 27,333 83" stroke="#76eed0" fill="none"/><path d="M13 73 C155 99,186 133,326 2" stroke="#d2ed82" fill="none"/><path d="M14 48 C173 16,168 43,324 104" stroke="#e25959" fill="none"/><path d="M7 44 C185 93,168 45,332 68" stroke="#de53bb" fill="none"/><path d="M17 116 C170 11,186 35,328 125" stroke="#589ee3" fill="none"/><path d="M17 104 C163 125,160 120,338 17" stroke="#62d980" fill="none"/><path d="M14 33 C161 132,192 14,327 112" stroke="#84ebb7" fill="none"/><path d="M11 124 C178 26,171 19,326 67" stroke="#55e655" fill="none"/><path d="M14 8 C182 36,172 79,325 130" stroke="#de8162" fill="none"/><path d="M6 12 C181 94,188 52,327 55" stroke="#e03c8e" fill="none"/><path fill="#bf43e9" d="M217.09 96.32L217.18 96.41L217.06 96.29Q210.19 96.79 208.49 92.81L208.39 92.71L208.47 92.78Q209.81 91.19 212.48 88.12L212.54 88.18L212.34 87.98Q213.35 91.60 218.51 91.79L218.48 91.77L218.54 91.83Q224.26 91.87 227.07 89.59L227.01 89.53L227.05 89.57Q229.37 86.74 229.24 82.10L229.32 82.18L229.41 82.27Q229.03 73.48 220.81 73.87L220.90 73.96L220.92 73.98Q216.07 74.22 213.07 76.38L213.03 76.33L212.45 76.02L212.21 75.90L212.21 75.91Q212.74 70.43 212.54 65.73L212.54 65.72L212.45 65.64Q212.29 61.17 211.71 55.50L211.72 55.51L211.81 55.60Q218.08 57.24 224.61 57.04L224.56 56.99L224.48 56.91Q231.05 56.83 237.19 54.68L237.25 54.74L236.18 57.26L236.11 57.19Q235.59 58.49 235.26 59.93L235.44 60.11L235.32 59.99Q230.02 61.80 223.36 61.80L223.24 61.68L223.25 61.69Q220.88 61.80 218.34 61.54L218.39 61.60L218.41 61.62Q218.24 62.75 217.66 70.39L217.69 70.42L217.56 70.29Q219.01 69.53 222.54 69.26L222.65 69.38L222.61 69.33Q228.95 69.67 231.43 72.54L231.34 72.46L231.48 72.60Q233.83 75.21 234.29 81.80L234.23 81.74L234.22 81.73Q234.60 88.84 232.52 92.30L232.67 92.45L232.65 92.43Q229.09 95.59 223.41 95.98L223.50 96.07L223.39 95.96Q221.75 96.15 217.18 96.41ZM227.43 100.19L227.58 100.35L227.50 100.27Q233.42 100.44 236.68 98.55L236.67 98.54L236.65 98.52Q238.30 95.86 238.30 92.27L238.43 92.40L238.34 92.31Q238.30 86.99 236.67 79.94L236.67 79.93L236.67 79.94Q235.97 76.89 233.88 74.48L233.93 74.52L233.97 74.63L233.72 74.25L233.13 73.92L233.05 73.84Q232.46 72.53 231.35 71.36L231.47 71.47L231.40 71.47L231.38 71.45Q228.86 68.67 222.53 68.67L222.49 68.63L222.11 68.71L221.99 68.59Q222.22 67.70 222.54 65.81L222.55 65.82L222.43 65.70Q230.97 65.88 237.89 63.08L237.93 63.12L237.98 63.17Q238.58 60.64 240.22 55.81L240.34 55.94L236.79 57.61L236.67 57.49Q237.38 55.59 238.23 53.63L238.19 53.59L238.28 53.68Q231.58 56.05 224.53 56.18L224.59 56.24L224.66 56.31Q217.63 56.52 210.84 54.63L210.71 54.50L210.74 54.53Q211.88 62.06 211.88 69.63L211.98 69.74L211.90 69.66Q211.98 73.00 211.79 76.27L211.64 76.12L211.79 76.27Q212.20 76.55 213.18 77.07L213.17 77.06L213.08 76.97Q213.68 76.60 214.79 76.01L214.77 75.99L214.76 75.98Q214.81 77.40 214.42 80.01L214.43 80.02L214.48 80.06Q215.21 80.40 215.93 80.80L215.93 80.80L215.93 80.80Q220.54 77.64 223.74 77.64L223.86 77.76L223.76 77.67Q226.07 77.69 228.09 78.80L228.05 78.76L228.02 78.73Q228.74 80.62 228.80 82.25L228.84 82.28L228.80 82.25Q228.88 86.64 227.12 88.53L227.08 88.49L227.19 88.60Q224.70 90.55 220.85 90.94L220.99 91.08L221.01 91.10Q219.34 91.20 218.17 91.06L218.12 91.01L218.05 90.95Q216.68 90.82 215.38 90.23L215.38 90.23L215.27 89.80L215.17 90.09L215.04 89.96Q213.75 89.19 212.83 86.91L212.86 86.93L212.80 86.87Q210.50 89.27 207.63 92.93L207.73 93.03L207.73 93.03Q208.10 93.99 209.54 95.62L209.66 95.74L209.63 95.71Q211.40 98.78 216.22 99.63L216.23 99.64L216.26 99.66Q218.30 100.07 227.50 100.27Z"/><path fill="#7e7eeb" d="M58.31 73.80L58.19 73.68L58.16 73.64Q59.61 73.73 62.02 73.46L61.93 73.37L62.08 73.52Q62.01 74.62 62.01 75.73L61.99 75.72L61.86 77.74L61.92 77.79Q60.54 77.85 59.10 77.98L59.09 77.97L59.12 78.00Q57.63 78.02 56.20 77.95L56.19 77.94L56.11 77.87Q51.26 88.48 45.39 96.38L45.41 96.40L45.39 96.38Q41.20 97.61 38.98 98.65L38.85 98.52L38.83 98.50Q46.05 88.88 51.27 78.12L51.10 77.95L46.65 78.00L46.67 78.02Q46.65 75.72 46.46 73.43L46.54 73.51L46.42 73.39Q49.82 73.80 53.35 73.80L53.34 73.79L56.52 67.37L56.62 67.48Q58.32 64.21 60.41 61.47L60.29 61.35L60.26 61.32Q57.62 61.62 54.88 61.62L54.87 61.62L54.83 61.57Q44.46 61.65 38.00 57.86L38.10 57.96L36.99 55.02L36.95 54.99Q36.36 53.54 35.71 52.04L35.65 51.99L35.70 52.04Q43.16 56.56 52.95 56.95L52.87 56.87L52.91 56.91Q61.68 57.26 70.49 53.86L70.55 53.93L70.59 53.97Q70.10 54.52 69.25 56.02L69.34 56.11L69.41 56.18Q63.07 64.19 58.17 73.66ZM72.00 58.38L72.08 58.46L73.81 55.03L73.67 54.90Q72.15 55.85 69.28 57.09L69.29 57.11L69.58 56.55L69.62 56.59Q69.84 56.35 70.03 56.15L69.99 56.11L69.90 56.02Q70.55 54.84 71.79 52.56L71.85 52.62L71.93 52.70Q62.78 56.60 52.92 56.21L52.80 56.09L52.93 56.22Q42.67 55.80 34.51 50.71L34.49 50.69L34.40 50.61Q36.25 53.89 37.69 58.46L37.57 58.34L37.68 58.45Q39.57 59.56 40.94 60.09L40.81 59.95L40.83 59.97Q41.08 60.55 41.86 63.75L41.85 63.73L41.90 63.78Q47.28 65.90 56.74 65.63L56.86 65.76L56.70 65.59Q56.35 66.75 52.96 73.21L52.89 73.15L52.88 73.13Q49.43 73.21 46.04 72.88L46.06 72.90L46.05 72.89Q46.15 74.30 46.15 75.80L46.14 75.78L46.02 78.61L48.94 78.66L48.99 81.12L49.05 81.17Q42.17 93.68 37.41 99.82L37.55 99.96L37.48 99.89Q40.27 98.63 43.07 97.78L42.97 97.68L43.11 97.82Q41.88 99.33 39.53 102.26L39.41 102.15L39.56 102.30Q44.97 100.39 49.14 100.00L49.01 99.87L49.00 99.86Q54.03 93.40 59.38 81.78L59.50 81.90L65.29 82.14L65.36 82.22Q65.15 80.57 65.15 79.00L65.13 78.99L65.26 76.05L65.27 76.06Q64.78 76.03 63.83 76.09L63.75 76.01L63.88 76.14Q62.85 76.12 62.40 76.12L62.42 76.15L62.42 76.14Q62.34 75.86 62.40 75.60L62.39 75.59L62.53 75.28L62.48 75.23Q66.85 66.48 72.14 58.52Z"/><path fill="#e69898" d="M101.59 83.61L101.58 83.60L101.69 83.71Q106.86 82.94 112.34 83.14L112.37 83.17L112.44 83.24Q112.29 78.78 112.29 74.67L112.41 74.79L112.23 74.61Q112.27 70.40 112.59 66.03L112.63 66.07L112.61 66.05Q110.65 69.11 101.71 83.73ZM118.59 96.24L118.68 96.33L118.63 96.27Q115.67 95.67 112.60 95.54L112.67 95.61L112.57 95.51Q112.28 91.49 112.08 87.25L112.05 87.22L112.05 87.22Q103.07 87.05 94.98 89.46L94.84 89.33L94.80 89.28Q95.09 88.53 95.42 86.84L95.48 86.90L95.50 86.92Q98.49 81.42 104.62 70.65L104.59 70.62L104.55 70.58Q109.48 62.20 115.36 55.55L115.55 55.74L115.51 55.70Q116.92 55.28 119.79 54.82L119.90 54.93L119.79 54.82Q116.56 65.88 116.56 77.96L116.51 77.91L116.64 78.04Q116.48 80.43 116.61 82.97L116.63 82.98L118.93 83.26L118.90 83.23Q119.99 83.35 121.04 83.54L120.93 83.44L120.97 83.48Q121.11 85.12 121.57 88.45L121.66 88.54L121.59 88.47Q119.49 88.00 116.95 87.68L116.94 87.67L117.03 87.76Q117.44 91.24 118.62 96.26ZM121.38 82.78L121.41 82.81L121.43 82.82Q121.20 82.79 120.87 82.79L120.77 82.69L120.12 82.69L120.16 82.74Q119.99 80.22 119.99 77.80L119.99 77.80L119.90 77.71Q119.98 66.83 123.51 56.52L123.44 56.45L123.45 56.46Q122.13 56.90 119.65 57.55L119.76 57.66L119.61 57.51Q119.99 56.20 120.78 53.79L120.79 53.80L120.93 53.94Q118.64 54.52 115.12 54.92L115.10 54.90L115.14 54.93Q108.47 62.43 99.53 78.48L99.41 78.37L103.02 72.12L102.99 72.09Q102.41 73.99 101.96 74.97L101.83 74.84L94.20 90.32L94.25 90.37Q95.39 90.14 97.35 89.49L97.22 89.36L97.09 89.88L96.96 89.75Q96.87 91.03 96.35 93.19L96.27 93.10L96.42 93.25Q103.40 90.90 111.69 91.23L111.67 91.21L111.76 91.30Q111.76 92.87 112.09 96.26L112.01 96.19L112.13 96.31Q113.92 96.27 115.75 96.47L115.74 96.45L115.74 96.46Q115.96 97.59 116.42 99.94L116.41 99.93L116.51 100.03Q119.66 100.31 124.81 101.87L124.77 101.83L124.90 101.96Q123.08 98.18 121.51 92.57L121.50 92.56L123.99 93.35L124.16 93.52Q125.20 93.78 126.38 94.37L126.39 94.38L126.35 94.34Q125.07 90.12 124.81 87.25L124.82 87.26L124.84 87.28Q123.84 87.00 121.88 86.61L121.90 86.63L121.75 86.48Q121.36 84.26 121.36 82.76ZM107.72 82.56L107.79 82.63L107.70 82.54Q109.13 80.44 111.80 76.07L111.69 75.96L111.65 75.92Q111.71 77.61 111.64 79.24L111.75 79.35L111.67 79.27Q111.61 80.90 111.67 82.53L111.68 82.54L111.67 82.53Q110.82 82.59 109.84 82.59L109.85 82.61L109.88 82.63Q108.90 82.69 107.85 82.69Z"/><path d="M5 83 C187 26,154 4,323 121" stroke="#89ebeb" fill="none"/><path d="M3 29 C174 6,172 62,334 64" stroke="#6bdba3" fill="none"/><path d="M1 17 C164 60,160 67,329 62" stroke="#efbc89" fill="none"/><path d="M13 35 C169 139,176 74,324 119" stroke="#8ce7d0" fill="none"/><path fill="#89ebeb" d="M279.46 67.33L279.31 67.19L279.45 67.32Q273.84 67.19 270.71 65.37L270.81 65.47L270.70 65.36Q275.00 63.00 283.35 55.76L283.47 55.87L283.53 55.94Q284.66 55.50 286.88 54.45L286.86 54.44L286.99 54.57Q284.56 64.61 284.37 75.51L284.49 75.63L284.35 75.49Q284.21 86.44 286.04 96.89L286.07 96.92L286.03 96.88Q283.21 95.68 279.55 95.49L279.51 95.45L279.48 95.42Q279.39 88.41 279.39 81.42L279.36 81.39L279.34 81.37Q279.33 74.32 279.40 67.27ZM278.68 71.06L278.75 96.12L278.64 96.01Q280.85 96.13 282.48 96.46L282.44 96.42L282.48 96.46Q282.59 97.61 282.91 99.96L282.92 99.96L282.87 99.92Q287.80 100.87 291.98 104.72L291.98 104.72L291.93 104.67Q287.80 92.58 287.73 79.78L287.70 79.75L287.73 79.78Q287.46 66.85 290.59 54.45L290.73 54.58L290.61 54.47Q289.83 55.31 287.08 57.21L286.93 57.06L286.98 57.10Q287.44 55.93 287.96 53.32L287.86 53.22L287.81 53.17Q285.50 54.45 283.02 55.10L283.04 55.12L283.18 55.26Q276.61 61.28 269.23 65.20L269.33 65.30L269.35 65.32Q271.71 67.15 275.75 67.74L275.69 67.68L275.65 67.63Q274.68 68.69 272.46 70.52L272.38 70.43L272.45 70.50Q275.01 71.18 278.80 71.18L278.64 71.01Z"/><path d="M9 92 C168 19,178 121,338 58" stroke="#8585e4" fill="none"/><path d="M6 133 C186 35,187 70,339 23" stroke="#efb57a" fill="none"/><path d="M1 63 C155 56,170 55,327 47" stroke="#eccc6e" fill="none"/><path d="M19 3 C159 9,185 45,340 115" stroke="#58d9d9" fill="none"/><path d="M13 101 C182 63,179 7,341 91" stroke="#a089e5" fill="none"/><path d="M17 2 C168 69,181 41,334 66" stroke="#e45252" fill="none"/><path d="M3 131 C174 50,161 126,326 130" stroke="#e448bd" fill="none"/><path d="M6 96 C172 97,151 118,323 72" stroke="#569ee5" fill="none"/><path d="M16 124 C186 46,169 8,330 106" stroke="#d854d8" fill="none"/><path d="M19 19 C178 71,162 135,338 83" stroke="#eaea42" fill="none"/><path d="M6 128 C182 31,165 39,322 40" stroke="#b9e141" fill="none"/><path d="M14 39 C172 67,171 29,326 44" stroke="#e33535" fill="none"/><path d="M3 49 C169 68,152 50,340 73" stroke="#e4b585" fill="none"/></svg>