<svg xmlns="http://www.w3.org/2000/svg" width="342" height="140" viewBox="0,0,342,140"><path d="M11 42 C171 82,154 86,338 62" stroke="#e7d397" fill="none"/><path d="M19 70 C166 6,181 82,333 3" stroke="#dcb84b" fill="none"/><path d="M20 30 C188 11,167 52,330 69" stroke="#7aeab2" fill="none"/><path d="M18 26 C157 62,181 83,331 69" stroke="#e0af7e" fill="none"/><path d="M9 23 C151 110,190 114,331 10" stroke="#486fe4" fill="none"/><path d="M3 40 C191 43,186 108,337 69" stroke="#84eab7" fill="none"/><path d="M19 63 C152 40,187 110,340 114" stroke="#e57651" fill="none"/><path d="M15 95 C156 5,157 90,335 98" stroke="#78e155" fill="none"/><path d="M11 120 C164 126,155 27,337 122" stroke="#65dcdc" fill="none"/><path d="M4 62 C166 131,176 91,328 115" stroke="#e3728e" fill="none"/><path d="M7 111 C151 100,152 103,326 26" stroke="#e791d2" fill="none"/><path fill="#51d6d6" d="M69.32 73.19L69.27 73.13L69.44 73.30Q70.56 73.24 72.65 73.01L72.67 73.04L72.67 73.04Q72.63 74.01 72.63 74.97L72.56 74.90L72.50 76.70L72.47 76.67Q71.41 76.86 70.17 76.97L70.11 76.90L70.07 76.86Q68.86 76.95 67.62 76.90L67.60 76.88L67.52 76.80Q63.34 85.99 58.26 92.81L58.32 92.87L58.20 92.76Q54.47 93.71 52.55 94.62L52.62 94.68L52.72 94.78Q58.75 86.26 63.27 76.95L63.18 76.86L59.47 77.04L59.32 76.90Q59.36 74.96 59.19 72.99L59.11 72.90L59.14 72.93Q62.07 73.27 65.12 73.27L65.11 73.26L67.93 67.78L67.79 67.65Q69.27 64.83 71.07 62.46L71.10 62.49L71.17 62.56Q68.88 62.81 66.51 62.81L66.42 62.72L66.48 62.79Q57.46 62.79 51.87 59.51L51.96 59.60L50.96 57.03L50.85 56.91Q50.33 55.66 49.77 54.37L49.83 54.42L49.90 54.50Q56.22 58.28 64.69 58.62L64.64 58.57L64.65 58.58Q72.32 58.97 79.94 56.04L79.97 56.07L80.01 56.11Q79.75 56.76 79.02 58.06L78.86 57.90L78.94 57.97Q73.57 65.02 69.34 73.20ZM81.29 59.98L81.34 60.04L82.74 56.98L82.86 57.10Q81.39 57.77 78.91 58.85L78.81 58.75L79.13 58.33L79.14 58.35Q79.31 58.12 79.48 57.95L79.49 57.96L79.49 57.96Q80.01 56.90 81.08 54.92L81.07 54.92L81.24 55.08Q73.28 58.41 64.76 58.07L64.74 58.05L64.68 57.99Q55.73 57.56 48.68 53.16L48.82 53.30L48.67 53.15Q50.21 55.93 51.45 59.88L51.62 60.06L51.44 59.87Q53.14 60.89 54.32 61.34L54.31 61.33L54.29 61.31Q54.58 61.88 55.25 64.65L55.23 64.63L55.26 64.65Q59.89 66.46 68.07 66.23L68.08 66.24L68.12 66.28Q67.72 67.18 64.78 72.76L64.70 72.68L64.70 72.68Q61.59 72.62 58.66 72.34L58.81 72.49L58.79 72.47Q58.86 73.67 58.86 74.97L58.88 74.98L58.95 77.60L61.30 77.47L61.43 79.68L61.42 79.67Q55.52 90.52 51.40 95.83L51.45 95.88L51.40 95.83Q53.75 94.69 56.18 93.95L56.30 94.08L56.19 93.96Q55.18 95.33 53.15 97.86L53.24 97.96L53.20 97.92Q57.83 96.22 61.44 95.88L61.53 95.97L61.39 95.84Q65.84 90.36 70.47 80.31L70.43 80.27L75.60 80.65L75.43 80.48Q75.40 79.20 75.40 77.85L75.40 77.85L75.29 75.09L75.37 75.17Q75.01 75.20 74.19 75.26L74.18 75.25L74.09 75.15Q73.35 75.30 72.96 75.30L72.95 75.29L72.97 75.31Q72.87 75.04 72.93 74.82L72.98 74.87L73.07 74.56L73.06 74.55Q76.78 66.93 81.35 60.05Z"/><path d="M9 15 C168 15,180 83,324 118" stroke="#eb8888" fill="none"/><path fill="#e25e7f" d="M125.88 81.80L125.92 81.84L125.86 81.78Q130.40 81.19 135.14 81.35L135.16 81.37L135.26 81.48Q135.08 77.58 135.08 74.02L135.20 74.14L135.17 74.10Q135.20 70.47 135.48 66.69L135.37 66.58L135.37 66.58Q133.56 69.11 125.83 81.75ZM140.54 92.68L140.49 92.63L140.60 92.74Q138.01 92.18 135.35 92.07L135.48 92.19L135.40 92.11Q135.11 88.60 134.94 84.93L134.88 84.88L134.91 84.91Q127.13 84.74 120.13 86.83L120.00 86.69L120.05 86.75Q120.17 85.97 120.46 84.50L120.59 84.63L120.56 84.60Q123.10 79.81 128.40 70.50L128.45 70.55L128.55 70.65Q132.70 63.29 137.78 57.53L137.80 57.55L137.91 57.66Q139.20 57.37 141.68 56.98L141.61 56.91L141.59 56.89Q138.72 66.37 138.72 76.81L138.88 76.97L138.87 76.96Q138.78 79.07 138.89 81.27L138.86 81.24L140.74 81.37L140.84 81.47Q141.72 81.50 142.62 81.67L142.62 81.67L142.73 81.78Q142.90 83.25 143.29 86.12L143.16 85.99L143.25 86.08Q141.38 85.62 139.18 85.33L139.23 85.39L139.22 85.38Q139.43 88.24 140.45 92.59ZM143.10 81.19L142.97 81.06L142.96 81.05Q142.72 80.98 142.44 80.98L142.44 80.98L141.87 80.98L141.92 81.02Q141.66 78.74 141.66 76.65L141.83 76.81L141.63 76.62Q141.64 67.15 144.69 58.23L144.85 58.39L144.81 58.36Q143.73 58.80 141.59 59.37L141.51 59.29L141.48 59.26Q141.88 58.19 142.56 56.11L142.44 55.98L142.59 56.14Q140.59 56.61 137.54 56.95L137.60 57.02L137.58 56.99Q131.81 63.47 124.08 77.35L124.01 77.27L127.13 71.88L127.11 71.85Q126.44 73.34 126.05 74.18L126.06 74.19L119.45 87.56L119.40 87.51Q120.37 87.30 122.06 86.73L122.23 86.90L121.94 87.17L122.01 87.24Q121.68 88.09 121.23 89.95L121.22 89.95L121.29 90.02Q127.37 88.03 134.53 88.31L134.63 88.41L134.63 88.40Q134.70 89.83 134.98 92.76L135.00 92.78L135.00 92.78Q136.52 92.72 138.10 92.89L138.11 92.91L138.08 92.88Q138.34 93.93 138.74 95.96L138.62 95.84L138.60 95.82Q141.46 96.20 145.92 97.55L145.87 97.50L146.03 97.66Q144.53 94.47 143.17 89.61L143.16 89.60L145.20 90.17L145.34 90.31Q146.27 90.57 147.29 91.08L147.27 91.06L147.27 91.06Q146.04 87.29 145.82 84.81L145.81 84.80L145.82 84.82Q145.10 84.72 143.41 84.38L143.42 84.39L143.33 84.30Q143.11 82.49 143.11 81.20ZM131.10 80.81L131.23 80.94L131.16 80.88Q132.25 78.92 134.57 75.14L134.60 75.17L134.63 75.21Q134.53 76.51 134.47 77.92L134.47 77.92L134.52 77.97Q134.51 79.43 134.56 80.84L134.54 80.82L134.59 80.86Q133.73 80.80 132.89 80.80L132.90 80.81L132.89 80.80Q132.01 80.82 131.10 80.82Z"/><path d="M14 118 C152 50,189 59,327 50" stroke="#4be699" fill="none"/><path d="M3 109 C174 1,174 61,340 136" stroke="#edbc8c" fill="none"/><path d="M10 58 C182 133,163 106,324 34" stroke="#aa75df" fill="none"/><path d="M7 61 C184 73,164 86,328 54" stroke="#8ccde2" fill="none"/><path d="M15 81 C174 63,155 68,331 20" stroke="#44bfe7" fill="none"/><path d="M16 101 C188 61,183 9,334 108" stroke="#82e2e2" fill="none"/><path fill="#c4e467" d="M193.88 81.80L193.94 81.86L193.94 81.86Q198.49 81.28 203.23 81.45L203.09 81.31L203.13 81.35Q203.11 77.60 203.11 74.04L203.17 74.11L203.14 74.08Q203.10 70.37 203.38 66.59L203.50 66.70L203.40 66.60Q201.60 69.15 193.87 81.79ZM208.54 92.68L208.62 92.76L208.48 92.62Q206.11 92.29 203.46 92.17L203.48 92.19L203.34 92.05Q203.22 88.72 203.05 85.05L203.04 85.03L202.95 84.94Q194.99 84.60 187.99 86.69L188.16 86.85L188.07 86.77Q188.26 86.06 188.54 84.59L188.58 84.62L188.49 84.54Q191.07 79.78 196.38 70.47L196.54 70.64L196.54 70.63Q200.84 63.43 205.92 57.67L205.76 57.51L205.84 57.59Q207.11 57.29 209.59 56.89L209.55 56.84L209.61 56.90Q206.72 66.37 206.72 76.81L206.77 76.86L206.85 76.94Q206.87 79.16 206.98 81.36L207.00 81.38L208.81 81.44L208.84 81.47Q209.81 81.59 210.71 81.76L210.69 81.74L210.68 81.73Q210.71 83.06 211.10 85.93L211.28 86.11L211.23 86.06Q209.43 85.67 207.22 85.38L207.13 85.29L207.24 85.40Q207.60 88.41 208.62 92.76ZM211.07 81.16L210.95 81.04L210.98 81.07Q210.75 81.01 210.47 81.01L210.44 80.98L209.82 80.92L209.83 80.94Q209.74 78.82 209.74 76.73L209.67 76.66L209.82 76.81Q209.68 67.19 212.73 58.27L212.75 58.30L212.81 58.35Q211.63 58.70 209.48 59.26L209.44 59.22L209.45 59.22Q209.92 58.23 210.60 56.14L210.50 56.05L210.53 56.08Q208.70 56.73 205.65 57.06L205.55 56.97L205.53 56.95Q199.83 63.49 192.10 77.37L192.03 77.29L195.05 71.80L195.07 71.82Q194.44 73.34 194.05 74.18L194.18 74.31L187.51 87.62L187.48 87.59Q188.56 87.48 190.25 86.91L190.08 86.75L189.98 87.21L189.89 87.12Q189.81 88.23 189.36 90.09L189.27 90.00L189.30 90.03Q195.32 87.99 202.49 88.27L202.60 88.37L202.52 88.30Q202.66 89.79 202.94 92.72L202.94 92.73L202.92 92.70Q204.47 92.67 206.05 92.84L205.98 92.77L206.05 92.84Q206.29 93.87 206.68 95.90L206.71 95.93L206.66 95.88Q209.46 96.20 213.92 97.55L213.90 97.53L213.95 97.58Q212.52 94.46 211.17 89.61L211.13 89.58L213.31 90.29L213.25 90.23Q214.23 90.53 215.24 91.03L215.25 91.03L215.41 91.20Q214.04 87.29 213.81 84.81L213.89 84.88L213.98 84.98Q213.08 84.69 211.39 84.36L211.39 84.36L211.39 84.36Q211.00 82.38 211.00 81.09ZM199.25 80.96L199.26 80.98L199.27 80.99Q200.37 79.04 202.68 75.26L202.53 75.11L202.70 75.28Q202.61 76.59 202.55 78.00L202.62 78.07L202.57 78.02Q202.59 79.51 202.65 80.92L202.70 80.97L202.55 80.83Q201.68 80.74 200.83 80.74L200.83 80.74L200.86 80.77Q200.01 80.83 199.11 80.83Z"/><path d="M16 15 C190 96,181 109,331 128" stroke="#e74f9b" fill="none"/><path d="M9 50 C164 36,174 7,335 96" stroke="#f1ba83" fill="none"/><path d="M5 1 C182 43,156 12,334 59" stroke="#5cda5c" fill="none"/><path d="M17 50 C152 51,175 78,330 117" stroke="#40dd40" fill="none"/><path d="M20 122 C184 97,155 19,329 111" stroke="#91eca8" fill="none"/><path d="M10 131 C158 85,164 39,340 63" stroke="#efbf8f" fill="none"/><path d="M9 90 C188 78,159 116,327 35" stroke="#4ad86d" fill="none"/><path d="M17 58 C186 91,151 58,322 110" stroke="#e467a5" fill="none"/><path d="M6 112 C186 123,169 28,329 63" stroke="#7aafe4" fill="none"/><path d="M9 118 C175 116,165 128,340 25" stroke="#e07f7f" fill="none"/><path d="M16 12 C183 131,191 47,333 130" stroke="#8ee23a" fill="none"/><path d="M21 69 C185 112,163 111,323 135" stroke="#b83ae2" fill="none"/><path d="M11 107 C171 113,176 97,329 108" stroke="#5fa3e7" fill="none"/><path d="M15 51 C176 52,192 89,340 32" stroke="#e4ba90" fill="none"/><path fill="#6de943" d="M273.26 73.13L273.34 73.20L273.40 73.27Q274.46 73.14 276.55 72.91L276.55 72.91L276.69 73.06Q276.54 73.92 276.54 74.88L276.60 74.94L276.61 76.81L276.63 76.83Q275.31 76.75 274.06 76.86L274.03 76.83L274.18 76.98Q272.80 76.90 271.56 76.84L271.59 76.87L271.65 76.93Q267.38 86.04 262.31 92.86L262.33 92.89L262.38 92.93Q258.55 93.79 256.63 94.69L256.67 94.74L256.63 94.69Q262.68 86.19 267.20 76.88L267.23 76.91L263.28 76.85L263.35 76.93Q263.39 74.99 263.22 73.01L263.30 73.09L263.29 73.08Q265.94 73.13 268.98 73.13L269.06 73.21L271.94 67.79L271.80 67.65Q273.44 65.00 275.24 62.64L275.07 62.46L275.13 62.52Q272.77 62.70 270.40 62.70L270.52 62.82L270.47 62.77Q261.38 62.71 255.79 59.44L255.88 59.53L254.97 57.03L254.94 57.01Q254.35 55.67 253.78 54.38L253.90 54.49L253.90 54.49Q260.18 58.23 268.64 58.57L268.72 58.66L268.71 58.64Q276.26 58.91 283.88 55.98L284.03 56.13L283.94 56.04Q283.60 56.60 282.86 57.90L282.98 58.02L282.96 58.00Q277.59 65.04 273.36 73.22ZM285.22 59.91L285.37 60.06L286.86 57.10L286.88 57.12Q285.27 57.66 282.79 58.73L282.89 58.83L283.09 58.30L283.23 58.43Q283.34 58.15 283.51 57.98L283.61 58.08L283.57 58.04Q284.15 57.04 285.22 55.06L285.05 54.89L285.18 55.03Q277.29 58.42 268.77 58.08L268.71 58.02L268.81 58.12Q259.81 57.64 252.76 53.24L252.76 53.24L252.69 53.18Q254.38 56.10 255.62 60.05L255.43 59.86L255.57 60.00Q257.07 60.83 258.26 61.28L258.35 61.37L258.44 61.46Q258.67 61.97 259.35 64.74L259.35 64.74L259.34 64.73Q263.92 66.49 272.10 66.26L272.13 66.29L272.10 66.26Q271.64 67.10 268.70 72.68L268.63 72.61L268.81 72.79Q265.67 72.70 262.74 72.42L262.84 72.52L262.78 72.46Q262.85 73.66 262.85 74.96L262.95 75.06L262.89 77.54L265.33 77.50L265.41 79.66L265.36 79.61Q259.55 90.56 255.43 95.86L255.37 95.80L255.43 95.86Q257.86 94.80 260.29 94.06L260.27 94.04L260.14 93.91Q259.18 95.32 257.15 97.86L257.08 97.80L257.25 97.97Q261.90 96.29 265.51 95.95L265.39 95.83L265.51 95.95Q269.82 90.34 274.45 80.29L274.33 80.18L279.51 80.55L279.42 80.47Q279.37 79.18 279.37 77.82L279.31 77.76L279.34 75.14L279.31 75.11Q278.99 75.19 278.18 75.25L278.20 75.27L278.22 75.29Q277.45 75.39 277.05 75.39L276.98 75.31L277.01 75.35Q277.03 75.20 277.08 74.97L277.08 74.97L276.99 74.48L277.00 74.49Q280.68 66.83 285.25 59.94Z"/><path d="M19 122 C156 62,170 52,325 99" stroke="#7de759" fill="none"/><path d="M1 72 C191 49,184 92,340 33" stroke="#6584e0" fill="none"/><path d="M14 77 C180 78,171 44,331 91" stroke="#b44bd7" fill="none"/><path d="M12 132 C158 56,158 128,327 57" stroke="#e59175" fill="none"/><path d="M8 40 C182 93,168 25,332 60" stroke="#74cdeb" fill="none"/><path d="M18 45 C181 7,178 29,327 64" stroke="#e259e2" fill="none"/><path d="M3 132 C191 126,176 136,326 111" stroke="#e86de8" fill="none"/><path d="M2 4 C176 33,156 110,323 37" stroke="#e58484" fill="none"/></svg>