<svg xmlns="http://www.w3.org/2000/svg" width="342" height="140" viewBox="0,0,342,140"><path d="M4 101 C162 137,186 43,326 122" stroke="#6fe1c4" fill="none"/><path d="M6 49 C190 49,180 33,329 13" stroke="#68dd68" fill="none"/><path d="M10 92 C154 43,190 11,339 3" stroke="#e895aa" fill="none"/><path fill="#e57fe5" d="M215.32 97.90L215.41 97.99L215.37 97.95Q212.83 98.11 209.98 97.35L209.87 97.24L209.86 97.23Q207.70 95.61 207.42 92.63L207.40 92.62L207.42 92.63Q207.36 92.30 207.71 87.51L207.77 87.57L207.80 87.61Q209.60 87.18 213.27 86.49L213.25 86.47L212.91 87.86L212.86 87.81Q212.40 91.02 214.96 92.06L214.98 92.08L215.06 92.17Q216.48 92.75 220.29 92.75L220.25 92.71L220.36 92.82Q223.16 92.43 223.51 92.29L223.64 92.42L223.51 92.29Q225.16 92.00 226.48 91.10L226.43 91.05L226.45 91.07Q229.16 89.48 228.81 85.67L228.74 85.60L228.77 85.63Q228.33 81.10 225.18 78.25L225.23 78.31L225.29 78.37Q222.03 75.42 217.53 75.42L217.59 75.48L217.61 75.09L217.58 75.06Q218.25 74.96 219.84 74.82L219.78 74.77L219.87 74.85Q223.32 74.63 225.82 72.38L225.86 72.42L225.78 72.34Q228.40 70.21 228.68 66.81L228.68 66.81L228.55 66.68Q228.73 66.10 228.73 65.47L228.78 65.53L228.74 65.49Q228.72 62.69 226.22 61.03L226.29 61.10L226.19 60.99Q223.95 59.52 221.04 59.72L221.09 59.78L221.13 59.82Q218.81 59.58 216.59 60.34L216.54 60.29L216.57 60.32Q213.94 61.30 213.39 63.38L213.41 63.40L213.29 63.28Q212.91 64.64 213.05 66.02L213.06 66.04L213.07 66.04Q211.32 65.75 207.58 64.43L207.53 64.39L207.56 64.41Q207.15 61.36 207.21 59.84L207.24 59.87L207.10 59.73Q207.42 57.06 209.36 55.81L209.34 55.79L209.43 55.88Q211.87 54.64 214.78 54.64L214.76 54.63L214.81 54.67Q220.48 54.52 226.24 55.01L226.34 55.12L226.40 55.17Q235.52 55.83 234.96 62.69L234.89 62.63L234.91 62.64Q234.93 65.50 234.03 68.35L233.86 68.18L234.04 68.36Q232.36 73.96 228.06 75.63L227.94 75.50L228.00 75.57Q232.87 76.62 233.98 82.72L233.89 82.63L233.89 82.63Q234.26 84.67 234.40 88.34L234.50 88.45L234.36 88.30Q234.69 96.47 226.30 97.30L226.41 97.41L226.22 97.22Q225.02 97.48 215.38 97.96ZM224.96 102.13L224.88 102.05L224.82 101.99Q225.97 102.11 231.17 102.24L231.16 102.23L231.20 102.27Q234.26 102.28 237.25 101.10L237.40 101.25L237.29 101.14Q239.58 99.56 239.24 96.37L239.24 96.37L239.24 96.37Q238.88 93.79 238.32 90.60L238.32 90.60L238.47 90.75Q237.00 82.41 233.46 79.43L233.50 79.47L233.18 78.81L233.16 78.71L233.20 78.75Q236.29 76.02 237.68 68.05L237.70 68.06L237.63 68.00Q237.79 67.25 238.00 65.52L237.91 65.43L237.88 65.41Q238.12 64.12 237.98 62.87L238.02 62.91L237.94 62.83Q237.63 59.74 235.27 58.49L235.33 58.55L235.24 58.60L235.16 58.52Q234.61 56.72 232.53 55.75L232.59 55.82L232.58 55.81Q229.88 54.63 220.52 54.07L220.46 54.02L220.49 54.05Q217.44 53.91 214.53 53.91L214.42 53.80L214.43 53.81Q211.63 53.93 208.86 55.11L208.71 54.96L208.75 55.00Q206.60 56.46 206.60 59.65L206.62 59.66L206.46 59.50Q206.47 58.75 206.96 64.85L207.05 64.95L206.98 64.87Q207.57 65.05 210.55 66.16L210.67 66.27L210.53 66.14Q210.56 67.14 210.50 68.04L210.47 68.02L210.43 67.97Q210.54 68.98 210.60 69.96L210.57 69.93L210.48 69.84Q213.82 70.60 217.49 70.81L217.52 70.84L217.61 70.93Q217.46 67.24 219.47 65.72L219.36 65.61L219.32 65.56Q220.98 64.52 224.66 64.11L224.49 63.94L224.68 64.13Q226.74 64.11 227.78 64.46L227.63 64.31L227.81 64.48Q227.83 64.65 227.90 64.86L227.86 64.82L227.82 65.12L228.05 66.19L228.02 66.15Q228.13 66.61 228.06 66.89L227.95 66.78L227.93 66.76Q227.81 69.90 225.04 72.05L225.12 72.13L225.00 72.00Q223.45 73.79 219.78 74.14L219.83 74.19L219.70 74.06Q218.42 74.37 216.82 74.37L216.86 74.41L216.86 74.41Q216.82 74.92 217.10 76.17L217.13 76.21L217.22 76.29Q220.31 76.20 222.95 77.52L222.97 77.54L222.71 77.48L220.02 77.98L220.02 77.98Q220.06 78.57 220.26 79.68L220.30 79.72L220.21 79.63Q224.02 79.42 227.14 81.85L227.14 81.85L227.19 81.89Q227.73 82.72 228.29 85.70L228.26 85.67L228.25 85.66Q228.57 90.98 223.24 91.74L223.12 91.63L223.17 91.68Q219.39 92.19 218.35 92.12L218.30 92.07L218.34 92.12Q217.42 91.82 216.45 91.68L216.47 91.70L216.59 90.98L216.74 90.10L216.87 89.46L216.94 88.91L216.92 88.89Q215.26 89.10 213.80 89.45L213.63 89.27L213.62 89.27Q213.58 88.88 213.58 88.53L213.56 88.52L213.55 88.50Q213.69 88.22 213.69 87.81L213.60 87.72L213.66 87.78Q213.78 87.07 214.06 85.75L214.03 85.72L214.04 85.73Q210.67 86.18 207.27 86.80L207.34 86.87L207.23 86.76Q207.21 87.64 207.00 89.68L207.08 89.77L207.09 89.77Q206.79 91.73 206.79 92.84L206.88 92.92L206.85 92.89Q207.07 96.72 209.57 98.11L209.54 98.08L209.40 97.94Q212.22 102.22 220.82 101.87L220.74 101.80L220.77 101.82Q222.18 101.84 224.95 102.12Z"/><path fill="#eb79eb" d="M159.93 98.07L159.93 98.07L159.86 97.99Q152.39 98.37 150.59 94.14L150.67 94.22L150.65 94.20Q152.03 92.46 154.87 89.20L154.92 89.24L154.88 89.20Q155.85 92.95 161.33 93.16L161.36 93.19L161.19 93.02Q167.46 93.26 170.44 90.83L170.49 90.87L170.35 90.74Q173.07 87.98 172.93 83.06L172.82 82.94L172.78 82.91Q172.49 73.67 163.76 74.09L163.79 74.12L163.85 74.18Q158.60 74.34 155.41 76.63L155.46 76.68L154.92 76.42L154.47 76.10L154.56 76.20Q155.24 70.49 155.03 65.50L155.03 65.50L154.96 65.43Q154.72 60.61 154.09 54.58L154.02 54.51L154.09 54.58Q160.82 56.39 167.76 56.18L167.76 56.18L167.67 56.09Q174.70 56.05 181.22 53.76L181.12 53.66L180.12 56.48L180.04 56.40Q179.50 57.80 179.16 59.33L179.12 59.29L179.13 59.29Q173.59 61.31 166.51 61.31L166.45 61.25L166.54 61.34Q163.86 61.30 161.16 61.02L161.19 61.05L161.06 60.92Q161.05 62.30 160.42 70.41L160.43 70.41L160.40 70.38Q161.91 69.53 165.65 69.26L165.67 69.28L165.63 69.23Q172.40 69.62 175.03 72.67L175.08 72.72L175.07 72.72Q177.52 75.44 178.00 82.44L177.98 82.42L177.98 82.42Q178.48 90.06 176.26 93.73L176.39 93.86L176.22 93.69Q172.62 97.23 166.59 97.65L166.70 97.76L166.55 97.62Q164.65 97.66 159.80 97.93ZM170.82 102.09L170.94 102.21L170.97 102.24Q177.18 102.35 180.64 100.34L180.63 100.32L180.62 100.32Q182.46 97.58 182.46 93.77L182.49 93.80L182.33 93.63Q182.45 88.14 180.72 80.65L180.60 80.53L180.67 80.60Q179.96 77.39 177.74 74.83L177.75 74.84L177.85 75.00L177.41 74.43L176.73 74.03L176.71 74.01Q176.31 72.84 175.13 71.59L175.08 71.54L175.09 71.62L174.96 71.50Q172.26 68.51 165.53 68.51L165.47 68.45L164.99 68.46L165.02 68.49Q165.14 67.43 165.49 65.42L165.65 65.58L165.56 65.49Q174.55 65.60 181.90 62.62L182.08 62.80L181.98 62.70Q182.78 60.17 184.51 55.04L184.46 54.99L180.73 56.81L180.73 56.80Q181.39 54.69 182.29 52.61L182.23 52.55L182.24 52.56Q175.29 55.25 167.80 55.39L167.77 55.35L167.87 55.46Q160.23 55.51 153.02 53.50L153.10 53.58L153.04 53.53Q154.36 61.64 154.36 69.68L154.27 69.59L154.39 69.72Q154.36 73.15 154.15 76.62L154.16 76.63L154.12 76.58Q154.57 76.89 155.61 77.45L155.57 77.41L155.58 77.43Q156.26 77.07 157.44 76.44L157.55 76.55L157.37 76.37Q157.35 77.81 156.94 80.58L156.98 80.62L156.87 80.52Q157.74 80.97 158.50 81.38L158.42 81.30L158.51 81.39Q163.49 78.12 166.89 78.12L166.88 78.12L166.94 78.18Q169.45 78.26 171.60 79.44L171.56 79.39L171.61 79.45Q172.07 81.15 172.14 82.89L172.18 82.93L172.24 82.99Q172.45 87.77 170.58 89.78L170.43 89.64L170.55 89.76Q167.96 91.89 163.87 92.30L163.86 92.29L163.89 92.32Q162.16 92.47 160.92 92.33L160.88 92.29L160.87 92.28Q159.32 92.05 157.93 91.42L157.93 91.42L157.92 91.06L157.68 91.24L157.68 91.24Q156.24 90.35 155.27 87.93L155.39 88.05L155.24 87.90Q152.84 90.49 149.79 94.38L149.72 94.31L149.85 94.44Q150.46 95.67 151.98 97.40L151.84 97.25L151.93 97.35Q153.92 100.73 159.06 101.63L159.00 101.58L159.02 101.60Q161.16 102.00 170.93 102.21Z"/><path fill="#dddd64" d="M100.95 84.56L100.91 84.51L100.84 84.44Q106.41 83.71 112.24 83.92L112.27 83.95L112.39 84.07Q112.18 79.29 112.18 74.92L112.17 74.90L112.23 74.96Q112.31 70.53 112.65 65.89L112.53 65.77L112.61 65.84Q110.33 68.90 100.83 84.44ZM118.98 97.94L118.94 97.90L118.85 97.81Q115.80 97.26 112.54 97.12L112.69 97.27L112.58 97.15Q112.32 92.95 112.12 88.44L112.00 88.33L112.10 88.42Q102.44 88.12 93.84 90.69L93.82 90.67L93.79 90.64Q93.99 89.73 94.34 87.93L94.35 87.94L94.32 87.91Q97.46 82.04 103.98 70.60L104.04 70.66L104.15 70.77Q109.32 61.79 115.56 54.72L115.64 54.80L115.58 54.74Q117.27 54.49 120.33 54.01L120.29 53.97L120.31 53.99Q116.69 65.56 116.69 78.39L116.71 78.40L116.84 78.53Q116.73 81.13 116.87 83.83L116.81 83.77L119.33 84.15L119.27 84.08Q120.30 84.07 121.41 84.28L121.48 84.35L121.56 84.43Q121.72 86.19 122.21 89.73L122.23 89.75L122.16 89.68Q119.92 89.17 117.21 88.82L117.32 88.93L117.30 88.91Q117.70 92.57 118.95 97.91ZM121.92 83.61L121.88 83.57L121.88 83.58Q121.54 83.44 121.19 83.44L121.28 83.53L120.55 83.50L120.55 83.49Q120.40 80.85 120.40 78.29L120.38 78.26L120.44 78.32Q120.45 66.68 124.19 55.72L124.17 55.70L124.10 55.63Q122.74 56.14 120.10 56.84L120.15 56.88L120.03 56.76Q120.56 55.49 121.39 52.92L121.41 52.94L121.41 52.94Q119.00 53.59 115.26 54.00L115.17 53.92L115.20 53.94Q108.15 61.94 98.65 78.99L98.61 78.96L102.49 72.36L102.51 72.38Q101.73 74.24 101.25 75.28L101.15 75.18L93.12 91.70L93.06 91.64Q94.23 91.36 96.31 90.66L96.28 90.63L95.93 90.98L95.99 91.04Q95.88 92.38 95.33 94.67L95.35 94.70L95.19 94.54Q102.69 92.12 111.50 92.47L111.53 92.50L111.49 92.46Q111.70 94.34 112.05 97.94L112.03 97.92L111.97 97.86Q114.01 97.96 115.95 98.17L115.91 98.13L115.80 98.02Q116.13 99.32 116.62 101.82L116.64 101.84L116.71 101.91Q120.00 102.15 125.48 103.81L125.55 103.89L125.55 103.88Q123.74 100.00 122.08 94.04L122.18 94.13L124.81 94.96L124.76 94.92Q126.04 95.36 127.29 95.98L127.19 95.89L127.32 96.02Q125.74 91.31 125.46 88.26L125.51 88.32L125.48 88.29Q124.49 88.06 122.41 87.64L122.48 87.71L122.44 87.67Q121.88 85.17 121.88 83.57ZM107.50 83.47L107.35 83.32L107.33 83.30Q108.85 81.08 111.69 76.44L111.60 76.35L111.55 76.30Q111.71 78.19 111.64 79.92L111.56 79.84L111.55 79.83Q111.59 81.67 111.66 83.40L111.54 83.29L111.60 83.35Q110.68 83.39 109.64 83.39L109.56 83.32L109.51 83.27Q108.53 83.40 107.42 83.40Z"/><path d="M12 69 C151 69,159 26,336 99" stroke="#56d656" fill="none"/><path d="M15 11 C171 36,187 61,324 107" stroke="#87e7e7" fill="none"/><path d="M20 95 C192 75,177 44,340 71" stroke="#d9bb62" fill="none"/><path fill="#bae390" d="M58.24 73.87L58.34 73.96L58.38 74.00Q59.81 73.98 62.38 73.70L62.35 73.68L62.44 73.77Q62.28 74.85 62.28 76.03L62.21 75.95L62.35 78.39L62.22 78.26Q60.81 78.37 59.28 78.51L59.30 78.53L59.30 78.53Q57.69 78.52 56.17 78.45L56.11 78.39L56.18 78.46Q50.94 89.65 44.70 98.05L44.77 98.12L44.77 98.11Q40.11 99.21 37.76 100.32L37.82 100.39L37.80 100.36Q45.29 89.97 50.84 78.53L50.88 78.57L46.09 78.56L46.01 78.48Q46.12 76.16 45.91 73.73L45.92 73.74L45.91 73.74Q49.37 74.01 53.12 74.01L53.15 74.04L56.47 67.17L56.47 67.17Q58.27 63.70 60.49 60.78L60.53 60.82L60.48 60.77Q57.78 61.20 54.87 61.20L54.71 61.04L54.73 61.06Q43.71 61.13 36.84 57.11L36.75 57.02L35.71 54.04L35.75 54.08Q34.94 52.37 34.25 50.77L34.31 50.83L34.28 50.80Q42.19 55.59 52.59 56.01L52.60 56.02L52.60 56.01Q62.06 56.53 71.42 52.92L71.35 52.86L71.31 52.82Q71.09 53.71 70.19 55.30L70.13 55.24L70.07 55.19Q63.63 63.99 58.43 74.05ZM73.05 57.74L73.05 57.74L74.87 54.09L74.87 54.09Q73.13 54.98 70.08 56.30L70.11 56.33L70.34 55.66L70.37 55.69Q70.68 55.51 70.88 55.30L70.85 55.27L70.76 55.18Q71.42 53.90 72.74 51.47L72.90 51.64L72.82 51.55Q63.15 55.75 52.68 55.34L52.59 55.25L52.58 55.24Q41.65 54.78 32.99 49.37L33.11 49.49L33.12 49.50Q34.85 52.76 36.37 57.61L36.40 57.64L36.39 57.63Q38.46 58.87 39.92 59.43L39.94 59.44L39.84 59.34Q40.15 60.00 40.98 63.40L41.09 63.51L41.03 63.45Q46.72 65.67 56.78 65.40L56.90 65.52L56.88 65.50Q56.19 66.40 52.58 73.27L52.56 73.24L52.65 73.34Q48.99 73.42 45.38 73.07L45.35 73.04L45.31 73.00Q45.34 74.41 45.34 76.01L45.50 76.17L45.49 79.28L48.48 79.22L48.51 81.82L48.44 81.74Q41.33 95.23 36.27 101.74L36.32 101.80L36.30 101.77Q39.26 100.43 42.24 99.53L42.18 99.48L42.09 99.39Q40.90 101.11 38.41 104.23L38.53 104.35L38.34 104.17Q44.28 102.34 48.72 101.93L48.61 101.81L48.72 101.92Q54.03 95.03 59.71 82.68L59.59 82.56L65.97 83.05L65.92 83.00Q65.68 81.23 65.68 79.57L65.66 79.55L65.77 76.40L65.68 76.30Q65.36 76.47 64.35 76.54L64.33 76.52L64.33 76.52Q63.28 76.54 62.80 76.54L62.73 76.48L62.86 76.61Q62.81 76.35 62.88 76.07L62.84 76.04L62.80 75.51L62.77 75.48Q67.44 66.21 73.06 57.75Z"/><path d="M11 70 C187 115,168 48,337 59" stroke="#6be9ca" fill="none"/><path d="M2 30 C160 17,185 35,340 93" stroke="#48e4e4" fill="none"/><path d="M14 71 C187 69,179 136,328 32" stroke="#aa76df" fill="none"/><path d="M18 96 C178 91,187 129,336 34" stroke="#63eca8" fill="none"/><path d="M11 49 C161 28,173 67,324 127" stroke="#76e4ad" fill="none"/><path d="M15 46 C192 13,173 9,330 10" stroke="#e38ccd" fill="none"/><path d="M17 80 C154 28,173 39,333 86" stroke="#93d94e" fill="none"/><path d="M2 93 C172 26,152 51,336 77" stroke="#eeaf71" fill="none"/><path d="M6 56 C178 118,160 14,338 44" stroke="#3f66de" fill="none"/><path d="M3 45 C177 115,189 127,327 11" stroke="#f1839e" fill="none"/><path d="M8 16 C168 75,183 49,332 97" stroke="#e18364" fill="none"/><path d="M1 134 C191 76,150 39,338 17" stroke="#d99e62" fill="none"/><path d="M11 14 C181 115,174 84,331 92" stroke="#ade476" fill="none"/><path d="M7 89 C177 91,182 129,324 64" stroke="#49e36f" fill="none"/><path fill="#82edd2" d="M279.12 67.07L279.20 67.15L279.13 67.08Q273.22 66.99 269.89 65.05L269.98 65.14L269.91 65.07Q274.46 62.55 283.34 54.86L283.45 54.97L283.43 54.95Q284.85 54.70 287.21 53.59L287.14 53.53L287.16 53.54Q284.63 64.25 284.42 75.83L284.39 75.80L284.55 75.97Q284.32 87.52 286.26 98.62L286.18 98.54L286.25 98.61Q283.13 97.23 279.25 97.02L279.23 96.99L279.21 96.98Q279.04 89.45 279.04 82.03L278.99 81.99L279.10 82.10Q279.14 74.65 279.21 67.16ZM278.48 71.21L278.39 97.68L278.35 97.64Q280.59 97.66 282.32 98.01L282.39 98.07L282.33 98.02Q282.45 99.24 282.79 101.74L282.82 101.77L282.80 101.75Q288.05 102.77 292.49 106.86L292.54 106.91L292.44 106.81Q287.98 93.89 287.91 80.30L287.87 80.26L287.99 80.38Q287.80 66.73 291.12 53.56L291.06 53.50L291.11 53.54Q290.07 54.24 287.16 56.25L287.20 56.29L287.23 56.32Q287.56 54.91 288.11 52.14L288.06 52.08L288.14 52.17Q285.68 53.52 283.04 54.21L283.12 54.29L283.18 54.35Q276.26 60.81 268.42 64.97L268.41 64.95L268.34 64.89Q270.90 66.90 275.20 67.52L275.26 67.58L275.36 67.67Q274.00 68.47 271.64 70.41L271.70 70.47L271.64 70.41Q274.45 71.20 278.47 71.20L278.39 71.13Z"/><path d="M20 95 C175 129,170 130,325 63" stroke="#d7d745" fill="none"/><path d="M5 7 C191 115,189 102,336 11" stroke="#e79073" fill="none"/><path d="M17 109 C191 29,162 78,329 8" stroke="#b550d7" fill="none"/><path d="M13 27 C153 103,159 112,333 58" stroke="#8ceded" fill="none"/><path d="M7 122 C171 36,158 138,328 48" stroke="#6262e4" fill="none"/><path d="M14 44 C167 58,166 117,331 122" stroke="#6fe6c8" fill="none"/><path d="M18 93 C168 109,160 73,322 111" stroke="#47ea47" fill="none"/><path d="M21 36 C172 54,182 101,337 13" stroke="#5bbbdb" fill="none"/><path d="M3 64 C151 66,157 68,333 45" stroke="#5498dd" fill="none"/><path d="M15 89 C163 102,170 71,336 24" stroke="#e66969" fill="none"/><path d="M9 56 C182 64,182 67,330 21" stroke="#e68969" fill="none"/><path d="M10 13 C173 85,171 79,332 37" stroke="#4b93dc" fill="none"/><path d="M18 9 C161 37,175 104,339 66" stroke="#ea7fb5" fill="none"/><path d="M9 105 C177 105,187 31,328 24" stroke="#e68383" fill="none"/><path d="M12 80 C182 48,151 136,333 135" stroke="#eeee76" fill="none"/><path d="M18 120 C175 124,161 12,329 68" stroke="#df947a" fill="none"/><path d="M17 51 C158 72,159 60,339 100" stroke="#f1f183" fill="none"/><path d="M19 96 C160 59,179 130,335 18" stroke="#addf7a" fill="none"/><path d="M11 122 C179 57,153 103,335 18" stroke="#b958d9" fill="none"/><path d="M13 57 C156 18,153 133,341 2" stroke="#7591e5" fill="none"/></svg>