<svg xmlns="http://www.w3.org/2000/svg" width="342" height="140" viewBox="0,0,342,140"><path d="M19 15 C170 6,161 89,324 100" stroke="#6ddda5" fill="none"/><path d="M8 67 C154 15,187 84,324 95" stroke="#40d766" fill="none"/><path d="M20 32 C169 112,165 45,338 4" stroke="#e3496f" fill="none"/><path d="M18 51 C161 132,171 99,328 28" stroke="#52df52" fill="none"/><path d="M2 68 C191 102,150 83,321 50" stroke="#ec7391" fill="none"/><path d="M4 18 C179 81,189 117,336 43" stroke="#4ceaea" fill="none"/><path d="M5 107 C185 6,169 31,327 30" stroke="#5ba3ea" fill="none"/><path d="M11 48 C170 6,152 76,334 18" stroke="#5ed8d8" fill="none"/><path d="M3 65 C182 61,181 71,324 129" stroke="#5fdddd" fill="none"/><path d="M14 121 C184 27,174 101,336 21" stroke="#8fe9bc" fill="none"/><path d="M11 108 C174 106,157 132,321 1" stroke="#e4e467" fill="none"/><path d="M17 14 C180 118,153 22,326 86" stroke="#e0c46f" fill="none"/><path d="M14 21 C190 94,179 115,326 135" stroke="#d7f08e" fill="none"/><path d="M12 80 C150 11,186 1,321 64" stroke="#8161df" fill="none"/><path d="M18 73 C178 76,178 38,329 114" stroke="#8ebae5" fill="none"/><path fill="#67e9a8" d="M69.41 73.43L69.47 73.49L69.46 73.48Q70.78 73.52 73.05 73.27L72.93 73.16L72.93 73.16Q72.94 74.26 72.94 75.30L73.04 75.41L73.04 77.42L72.87 77.26Q71.58 77.32 70.24 77.44L70.22 77.43L70.29 77.49Q68.99 77.60 67.64 77.54L67.55 77.44L67.67 77.56Q62.94 87.34 57.44 94.74L57.38 94.68L57.52 94.82Q53.46 95.84 51.38 96.82L51.38 96.82L51.40 96.84Q57.99 87.65 62.89 77.55L62.79 77.46L58.68 77.57L58.60 77.49Q58.57 75.31 58.38 73.17L58.43 73.22L58.37 73.16Q61.57 73.54 64.87 73.54L64.78 73.45L67.90 67.58L67.97 67.65Q69.38 64.41 71.34 61.84L71.44 61.94L71.47 61.97Q68.99 62.24 66.42 62.24L66.41 62.23L66.34 62.16Q56.54 62.15 50.48 58.60L50.49 58.61L49.51 55.91L49.37 55.77Q49.01 54.62 48.40 53.21L48.29 53.11L48.22 53.03Q55.20 57.27 64.38 57.63L64.54 57.79L64.43 57.68Q72.65 58.01 80.91 54.83L80.96 54.87L80.93 54.85Q80.74 55.64 79.95 57.05L79.91 57.01L79.93 57.03Q74.04 64.60 69.45 73.47ZM82.52 59.25L82.53 59.26L83.98 55.88L83.94 55.84Q82.44 56.67 79.75 57.83L79.86 57.94L80.07 57.35L80.06 57.34Q80.27 57.13 80.46 56.94L80.43 56.92L80.55 57.03Q81.07 55.84 82.23 53.70L82.26 53.73L82.18 53.65Q73.67 57.37 64.43 57.01L64.49 57.07L64.50 57.08Q54.86 56.68 47.21 51.90L47.18 51.87L47.21 51.90Q48.86 54.89 50.20 59.18L50.04 59.02L50.19 59.17Q51.83 60.07 53.11 60.56L53.15 60.60L53.16 60.60Q53.43 61.18 54.16 64.18L54.22 64.23L54.22 64.23Q59.19 66.14 68.06 65.90L68.17 66.01L68.19 66.03Q67.69 66.94 64.51 72.99L64.35 72.84L64.47 72.95Q61.05 72.84 57.87 72.53L57.98 72.65L58.05 72.72Q58.14 74.03 58.14 75.44L58.13 75.43L58.14 78.19L60.70 78.05L60.69 80.31L60.69 80.31Q54.49 92.28 50.02 98.03L49.99 97.99L49.92 97.92Q52.59 96.80 55.22 96.01L55.18 95.97L55.27 96.06Q54.07 97.43 51.87 100.18L51.93 100.25L51.94 100.26Q57.06 98.52 60.97 98.15L60.91 98.09L60.97 98.15Q65.56 91.97 70.58 81.08L70.61 81.12L76.04 81.34L76.15 81.45Q75.92 79.88 75.92 78.41L76.04 78.53L76.04 75.65L75.92 75.53Q75.57 75.62 74.69 75.68L74.68 75.67L74.68 75.67Q73.84 75.78 73.41 75.78L73.39 75.75L73.29 75.66Q73.48 75.67 73.54 75.42L73.47 75.34L73.49 74.93L73.37 74.82Q77.43 66.58 82.39 59.12Z"/><path d="M15 14 C161 36,162 85,323 72" stroke="#31b9e6" fill="none"/><path d="M4 71 C176 50,190 134,321 77" stroke="#d75093" fill="none"/><path fill="#967aea" d="M267.22 76.63L267.23 76.64L267.13 76.54Q264.23 76.39 262.24 78.69L262.17 78.62L262.19 78.64Q260.37 81.10 260.06 84.15L259.93 84.02L259.93 84.02Q259.65 87.41 261.39 88.97L261.31 88.90L261.33 88.91Q263.00 90.40 266.37 90.22L266.41 90.26L266.38 90.23Q269.73 89.97 271.51 88.87L271.65 89.01L271.52 88.89Q273.35 87.11 273.35 84.60L273.47 84.72L273.43 84.68Q273.50 84.13 273.38 83.52L273.25 83.39L273.24 83.39Q273.45 80.78 271.68 78.61L271.58 78.52L271.58 78.52Q269.89 76.42 267.19 76.60ZM266.58 94.52L266.46 94.41L266.45 94.40Q259.54 94.52 257.27 93.30L257.22 93.24L257.17 93.19Q255.52 91.97 255.21 89.22L255.24 89.25L255.18 89.18Q255.19 88.16 255.25 86.99L255.17 86.91L255.36 87.11Q255.42 85.39 255.42 84.65L255.53 84.76L255.55 84.78Q256.10 80.02 256.35 78.91L256.44 79.01L256.44 79.01Q257.07 75.78 258.42 73.52L258.50 73.60L258.60 73.70Q262.77 66.55 272.32 56.33L272.41 56.43L272.38 56.40Q276.57 55.82 280.12 54.53L280.17 54.58L280.19 54.60Q269.09 66.51 263.95 73.30L264.05 73.40L264.09 73.44Q265.56 72.53 267.64 72.53L267.67 72.56L267.60 72.49Q272.92 72.48 275.37 75.60L275.54 75.78L275.47 75.70Q277.58 78.30 278.13 83.99L278.14 84.01L278.10 83.96Q278.22 85.12 278.22 86.10L278.21 86.09L278.31 86.19Q278.22 91.12 274.67 92.83L274.69 92.85L274.66 92.82Q272.70 93.79 266.46 94.41ZM270.22 98.35L270.20 98.33L270.17 98.30Q272.33 98.32 275.51 98.45L275.51 98.44L275.53 98.46Q278.07 98.50 280.58 97.33L280.62 97.38L280.63 97.38Q282.38 96.07 282.38 93.20L282.32 93.14L282.33 93.15Q282.40 92.42 282.13 90.83L282.14 90.85L282.07 90.78Q281.79 89.18 281.79 88.45L281.91 88.57L281.81 88.47Q280.42 80.90 277.85 77.84L277.81 77.79L277.83 77.82Q277.68 77.61 277.44 77.24L277.56 77.37L277.04 76.96L276.78 76.77L276.91 76.89Q276.38 76.12 275.40 74.59L275.39 74.58L275.26 74.45Q273.95 73.08 270.77 72.35L270.78 72.36L270.75 72.33Q272.57 69.62 277.34 63.68L277.34 63.69L284.13 55.18L284.22 55.26Q281.79 56.76 277.94 57.98L277.91 57.95L277.81 57.86Q279.41 56.39 282.28 53.21L282.17 53.10L282.11 53.04Q278.40 54.90 272.16 55.82L272.15 55.80L272.13 55.79Q263.01 65.33 258.24 73.28L258.22 73.26L258.20 73.24Q255.62 77.14 254.70 87.18L254.81 87.29L254.81 87.28Q254.72 88.24 254.85 89.77L254.87 89.79L254.84 89.76Q254.86 92.47 256.63 93.94L256.66 93.97L256.68 93.99Q257.20 94.15 257.14 94.21L257.31 94.37L257.15 94.22Q257.76 95.69 259.05 96.36L259.12 96.43L259.07 96.38Q261.54 97.63 264.66 97.94L264.57 97.84L264.62 97.89Q264.64 97.91 270.27 98.40ZM269.88 80.33L269.78 80.23L269.81 80.27Q270.76 80.10 272.29 80.90L272.33 80.95L272.35 80.97Q272.84 82.43 272.84 83.47L272.92 83.56L272.83 83.46Q273.15 86.47 271.62 88.06L271.61 88.06L271.58 88.03Q269.89 89.22 266.53 89.71L266.46 89.63L266.45 89.62Q264.16 89.66 263.30 89.23L263.38 89.31L263.25 89.18Q263.12 88.63 263.12 88.14L262.98 88.00L263.00 88.01Q262.68 82.80 267.39 80.72L267.38 80.70L267.29 80.62Q268.51 80.07 269.74 80.19Z"/><path d="M19 85 C189 11,176 29,331 97" stroke="#6687ea" fill="none"/><path d="M19 112 C156 3,184 25,330 23" stroke="#de896c" fill="none"/><path d="M4 69 C176 107,181 34,323 35" stroke="#e05679" fill="none"/><path d="M9 8 C163 117,151 112,336 25" stroke="#e2e26e" fill="none"/><path d="M15 79 C177 122,190 29,336 96" stroke="#b6d94e" fill="none"/><path d="M18 55 C161 109,172 78,327 89" stroke="#edce72" fill="none"/><path d="M7 26 C181 11,171 9,327 75" stroke="#93e245" fill="none"/><path d="M7 73 C152 56,178 135,330 122" stroke="#8adb70" fill="none"/><path d="M1 24 C176 39,158 44,323 90" stroke="#d290e9" fill="none"/><path d="M2 85 C175 20,184 59,326 101" stroke="#a5e664" fill="none"/><path fill="#7955e6" d="M124.95 82.72L124.98 82.75L125.02 82.79Q129.89 82.09 135.03 82.28L135.06 82.31L135.15 82.39Q135.08 78.29 135.08 74.43L135.13 74.49L135.00 74.35Q135.11 70.49 135.42 66.39L135.29 66.26L135.26 66.24Q133.32 69.00 124.94 82.71ZM140.93 94.61L140.84 94.51L141.00 94.67Q138.31 94.18 135.43 94.06L135.29 93.92L135.30 93.92Q135.02 90.16 134.84 86.18L134.82 86.16L134.81 86.15Q126.24 85.85 118.66 88.11L118.66 88.12L118.78 88.24Q118.82 87.30 119.12 85.70L119.23 85.81L119.11 85.69Q122.12 80.75 127.88 70.66L127.74 70.52L127.76 70.54Q132.49 62.79 138.00 56.55L137.99 56.55L137.97 56.52Q139.47 56.31 142.16 55.88L142.00 55.72L142.06 55.78Q139.02 66.13 139.02 77.45L138.98 77.41L139.05 77.49Q139.03 79.85 139.15 82.24L139.24 82.32L141.28 82.46L141.30 82.49Q142.18 82.45 143.16 82.63L143.25 82.73L143.26 82.74Q143.46 84.34 143.89 87.46L143.78 87.36L143.77 87.35Q141.87 86.97 139.48 86.66L139.37 86.56L139.42 86.61Q139.85 89.91 140.95 94.62ZM143.60 82.03L143.58 82.01L143.66 82.10Q143.41 82.03 143.10 82.03L143.00 81.93L142.32 81.86L142.43 81.96Q142.25 79.59 142.25 77.32L142.13 77.20L142.26 77.33Q142.11 66.90 145.42 57.24L145.48 57.30L145.61 57.43Q144.24 57.71 141.91 58.32L141.92 58.33L142.06 58.47Q142.32 57.13 143.05 54.87L143.06 54.88L142.98 54.80Q141.07 55.59 137.77 55.95L137.63 55.81L137.61 55.79Q131.32 62.78 122.93 77.83L123.07 77.97L126.37 72.02L126.29 71.95Q125.68 73.66 125.25 74.58L125.33 74.65L118.06 89.04L118.18 89.17Q119.11 88.81 120.95 88.20L120.97 88.22L120.80 88.66L120.71 88.58Q120.59 89.74 120.10 91.75L120.13 91.79L120.03 91.69Q126.70 89.61 134.47 89.91L134.50 89.94L134.47 89.91Q134.53 91.45 134.84 94.63L134.84 94.63L134.80 94.59Q136.51 94.58 138.22 94.77L138.19 94.74L138.29 94.83Q138.48 95.89 138.91 98.09L138.86 98.04L138.99 98.17Q141.90 98.38 146.73 99.85L146.71 99.83L146.76 99.88Q145.11 96.39 143.64 91.13L143.68 91.17L145.99 91.89L145.99 91.89Q147.26 92.43 148.36 92.98L148.30 92.91L148.18 92.79Q146.91 88.77 146.66 86.08L146.75 86.17L146.81 86.22Q145.81 85.90 143.97 85.53L143.94 85.50L144.00 85.56Q143.57 83.42 143.57 82.01ZM130.80 81.83L130.85 81.89L130.69 81.73Q132.06 79.80 134.57 75.70L134.42 75.55L134.59 75.72Q134.55 77.21 134.49 78.74L134.47 78.72L134.45 78.70Q134.47 80.31 134.53 81.84L134.53 81.83L134.56 81.87Q133.54 81.70 132.62 81.70L132.58 81.66L132.65 81.73Q131.73 81.79 130.75 81.79Z"/><path d="M9 112 C165 66,159 18,328 98" stroke="#a6f08e" fill="none"/><path d="M18 137 C172 48,152 121,335 13" stroke="#7957df" fill="none"/><path d="M11 117 C191 23,155 72,328 131" stroke="#e8e849" fill="none"/><path d="M9 51 C173 73,180 108,337 51" stroke="#7d99ec" fill="none"/><path d="M2 60 C170 85,162 61,335 75" stroke="#56e59e" fill="none"/><path d="M12 51 C182 80,164 75,336 43" stroke="#b784eb" fill="none"/><path d="M9 111 C163 102,181 35,327 9" stroke="#e169e1" fill="none"/><path d="M18 27 C161 99,175 95,326 72" stroke="#e8693f" fill="none"/><path d="M8 54 C152 76,159 1,325 85" stroke="#adeb6f" fill="none"/><path d="M12 83 C153 13,163 101,328 99" stroke="#90ef70" fill="none"/><path d="M1 32 C152 82,155 130,334 110" stroke="#3661e2" fill="none"/><path d="M17 138 C192 2,169 86,340 34" stroke="#88e1cb" fill="none"/><path fill="#84b5e5" d="M199.13 76.54L199.16 76.57L199.25 76.66Q196.17 76.33 194.18 78.63L194.18 78.62L194.23 78.67Q192.30 81.03 191.99 84.09L191.97 84.06L191.88 83.98Q191.57 87.34 193.31 88.90L193.30 88.88L193.35 88.93Q195.17 90.57 198.54 90.39L198.47 90.32L198.55 90.40Q201.75 89.99 203.53 88.89L203.56 88.93L203.62 88.98Q205.50 87.25 205.50 84.74L205.34 84.59L205.50 84.75Q205.50 84.13 205.37 83.52L205.32 83.46L205.39 83.54Q205.48 80.81 203.70 78.64L203.74 78.68L203.61 78.54Q201.84 76.37 199.14 76.55ZM198.60 94.55L198.53 94.48L198.51 94.46Q191.45 94.43 189.18 93.21L189.26 93.28L189.32 93.35Q187.62 92.08 187.32 89.32L187.22 89.23L187.23 89.23Q187.29 88.25 187.35 87.09L187.22 86.96L187.36 87.10Q187.43 85.40 187.43 84.67L187.46 84.69L187.37 84.61Q188.12 80.03 188.36 78.93L188.36 78.93L188.40 78.96Q189.09 75.80 190.44 73.54L190.51 73.62L190.41 73.51Q194.79 66.57 204.34 56.36L204.34 56.36L204.29 56.31Q208.70 55.94 212.25 54.66L212.25 54.66L212.09 54.50Q201.23 66.65 196.09 73.44L196.02 73.37L196.11 73.46Q197.58 72.55 199.66 72.55L199.72 72.60L199.75 72.63Q204.99 72.55 207.44 75.67L207.47 75.70L207.38 75.61Q209.68 78.40 210.23 84.09L210.21 84.07L210.12 83.99Q210.35 85.26 210.35 86.24L210.18 86.06L210.31 86.19Q210.23 91.13 206.68 92.84L206.82 92.98L206.65 92.81Q204.84 93.94 198.60 94.55ZM202.21 98.34L202.17 98.30L202.13 98.26Q204.20 98.19 207.38 98.31L207.37 98.30L207.39 98.32Q210.07 98.49 212.58 97.33L212.51 97.27L212.66 97.41Q214.45 96.14 214.45 93.27L214.33 93.15L214.28 93.09Q214.29 92.31 214.01 90.72L214.14 90.84L214.11 90.82Q213.83 89.22 213.83 88.48L213.74 88.40L213.79 88.44Q212.33 80.81 209.76 77.75L209.77 77.76L209.88 77.86Q209.64 77.57 209.39 77.20L209.52 77.33L208.89 76.82L208.79 76.78L208.89 76.88Q208.36 76.10 207.38 74.57L207.29 74.48L207.30 74.50Q205.83 72.96 202.64 72.22L202.77 72.35L202.76 72.34Q204.56 69.61 209.33 63.68L209.47 63.82L216.21 55.26L216.21 55.26Q213.60 56.57 209.75 57.79L209.92 57.96L209.78 57.82Q211.36 56.34 214.23 53.16L214.15 53.07L214.25 53.17Q210.35 54.84 204.11 55.76L204.11 55.76L204.01 55.66Q194.93 65.24 190.16 73.20L190.18 73.22L190.22 73.26Q187.72 77.25 186.81 87.28L186.86 87.34L186.81 87.28Q186.64 88.16 186.76 89.68L186.80 89.72L186.88 89.80Q186.88 92.50 188.66 93.97L188.75 94.06L188.65 93.96Q189.31 94.25 189.25 94.31L189.14 94.20L189.12 94.19Q189.88 95.80 191.17 96.48L191.10 96.41L191.10 96.41Q193.39 97.48 196.51 97.78L196.63 97.90L196.49 97.76Q196.58 97.85 202.21 98.34ZM201.86 80.31L201.88 80.33L201.80 80.25Q202.69 80.04 204.22 80.83L204.25 80.86L204.28 80.89Q204.75 82.35 204.75 83.39L204.74 83.38L204.91 83.54Q205.17 86.49 203.64 88.08L203.68 88.13L203.60 88.04Q201.88 89.21 198.52 89.69L198.62 89.80L198.52 89.70Q196.16 89.66 195.30 89.23L195.42 89.35L195.33 89.26Q194.97 88.47 194.97 87.98L195.02 88.03L195.12 88.14Q194.64 82.76 199.35 80.67L199.29 80.62L199.36 80.69Q200.62 80.17 201.84 80.29Z"/><path d="M6 105 C184 111,168 48,323 89" stroke="#a4ec8c" fill="none"/></svg>