<svg xmlns="http://www.w3.org/2000/svg" width="342" height="140" viewBox="0,0,342,140"><path d="M19 124 C161 40,164 44,325 20" stroke="#db5677" fill="none"/><path d="M8 4 C165 113,152 121,335 136" stroke="#914ed4" fill="none"/><path d="M9 11 C183 57,170 104,338 117" stroke="#a2e98a" fill="none"/><path d="M3 26 C178 113,185 125,333 114" stroke="#8ce8e8" fill="none"/><path d="M15 8 C172 3,178 59,325 131" stroke="#50dc50" fill="none"/><path d="M2 84 C153 99,185 105,341 17" stroke="#e6aa6f" fill="none"/><path d="M7 39 C158 57,170 40,334 80" stroke="#b3da3e" fill="none"/><path d="M4 6 C164 108,179 75,324 111" stroke="#74ebeb" fill="none"/><path d="M18 132 C166 25,163 107,331 67" stroke="#8ce3e3" fill="none"/><path d="M13 13 C171 1,164 57,324 86" stroke="#cd8be3" fill="none"/><path d="M7 4 C180 71,188 39,333 71" stroke="#e6839c" fill="none"/><path d="M13 40 C172 124,179 36,332 1" stroke="#4b91d7" fill="none"/><path d="M17 19 C163 126,177 19,333 19" stroke="#e679af" fill="none"/><path d="M9 89 C159 75,182 117,322 42" stroke="#4bd791" fill="none"/><path fill="#eeee7b" d="M58.27 73.80L58.26 73.79L58.23 73.76Q59.63 73.76 62.10 73.50L62.05 73.45L62.18 73.58Q62.02 74.62 62.02 75.75L62.05 75.78L62.05 77.99L62.02 77.95Q60.56 77.96 59.10 78.09L59.05 78.05L59.18 78.18Q57.77 78.29 56.30 78.23L56.25 78.18L56.17 78.10Q51.26 88.97 45.26 97.03L45.12 96.89L45.28 97.06Q40.84 98.14 38.57 99.21L38.48 99.11L38.51 99.15Q45.81 89.26 51.14 78.26L50.98 78.10L46.53 78.25L46.51 78.23Q46.53 75.92 46.33 73.59L46.17 73.43L46.28 73.53Q49.51 73.70 53.10 73.70L53.19 73.78L56.53 67.33L56.44 67.25Q58.29 64.03 60.42 61.23L60.30 61.11L60.47 61.28Q57.58 61.38 54.78 61.38L54.88 61.48L54.94 61.55Q44.21 61.48 37.62 57.61L37.69 57.68L36.44 54.57L36.45 54.58Q35.92 53.18 35.25 51.65L35.12 51.52L35.19 51.59Q42.72 56.12 52.71 56.52L52.89 56.70L52.88 56.69Q61.79 57.00 70.78 53.54L70.88 53.63L70.72 53.48Q70.50 54.32 69.63 55.85L69.60 55.82L69.58 55.80Q63.35 64.22 58.35 73.88ZM72.47 58.29L72.45 58.27L74.06 54.61L74.12 54.67Q72.48 55.57 69.55 56.83L69.61 56.90L69.89 56.30L69.93 56.35Q70.11 56.06 70.31 55.86L70.29 55.84L70.19 55.75Q70.91 54.60 72.17 52.26L72.18 52.27L72.09 52.18Q62.95 56.37 52.90 55.97L52.80 55.87L52.71 55.78Q42.26 55.39 33.93 50.20L33.99 50.25L33.88 50.15Q35.83 53.56 37.30 58.23L37.13 58.05L37.22 58.15Q39.19 59.32 40.59 59.85L40.46 59.73L40.47 59.73Q40.89 60.48 41.69 63.75L41.57 63.63L41.57 63.63Q47.17 65.90 56.83 65.63L56.75 65.55L56.79 65.60Q56.36 66.70 52.90 73.29L52.76 73.16L52.72 73.11Q49.18 73.17 45.71 72.84L45.69 72.81L45.81 72.94Q45.82 74.28 45.82 75.81L45.87 75.86L45.94 78.93L48.74 78.80L48.85 81.37L48.72 81.24Q42.00 94.31 37.14 100.57L37.06 100.49L37.11 100.54Q39.80 99.10 42.67 98.24L42.83 98.40L42.67 98.24Q41.63 100.00 39.23 103.00L39.17 102.93L39.23 102.99Q44.76 101.07 49.03 100.67L49.02 100.66L48.86 100.50Q53.99 93.90 59.45 82.04L59.50 82.09L65.60 82.53L65.44 82.37Q65.44 80.91 65.44 79.31L65.36 79.22L65.49 76.22L65.32 76.05Q65.01 76.21 64.04 76.28L64.00 76.24L63.88 76.11Q63.03 76.30 62.57 76.30L62.44 76.18L62.49 76.22Q62.54 76.07 62.60 75.80L62.51 75.71L62.52 75.26L62.63 75.36Q67.01 66.35 72.41 58.23Z"/><path d="M12 18 C177 107,174 8,340 35" stroke="#e5466e" fill="none"/><path d="M19 37 C161 135,170 41,330 34" stroke="#89e5b7" fill="none"/><path d="M3 37 C151 122,150 13,321 66" stroke="#984fe2" fill="none"/><path d="M17 48 C181 44,190 61,335 14" stroke="#6ade44" fill="none"/><path fill="#e45252" d="M278.36 60.63L278.35 60.62L275.68 60.88L275.62 60.82Q271.67 61.00 271.27 64.53L271.20 64.46L271.18 64.44Q271.15 65.82 271.22 67.55L271.24 67.57L271.23 67.56Q271.26 70.91 273.45 73.24L273.37 73.17L273.47 73.26Q275.59 75.51 278.92 75.25L279.09 75.41L279.01 75.34Q282.62 75.09 283.96 73.49L283.94 73.48L283.91 73.45Q285.74 71.81 286.20 67.87L286.22 67.89L286.29 67.96Q286.81 64.08 284.61 62.62L284.49 62.50L284.43 62.44Q283.07 61.21 278.41 60.68ZM288.92 76.78L288.99 76.86L286.65 80.78L286.57 80.70Q281.96 89.21 275.37 96.34L275.38 96.36L275.25 96.22Q272.52 96.63 267.79 98.03L267.80 98.04L267.84 98.08Q277.01 86.93 282.54 78.53L282.58 78.57L282.63 78.62Q280.82 79.75 277.96 79.88L277.84 79.76L277.96 79.88Q272.59 80.04 269.92 76.58L270.06 76.72L270.01 76.66Q267.81 73.80 265.88 65.80L266.01 65.93L265.86 65.79Q266.02 65.14 265.75 63.51L265.62 63.38L265.66 63.41Q265.41 61.80 265.41 61.00L265.46 61.06L265.37 60.96Q265.31 57.77 267.18 56.71L267.19 56.72L267.24 56.78Q269.39 55.46 272.66 55.46L272.61 55.42L272.71 55.52Q278.36 55.57 278.36 55.57L278.18 55.38L278.19 55.39Q282.04 55.52 284.24 55.85L284.31 55.92L284.32 55.93Q288.02 56.36 289.62 57.23L289.54 57.15L289.69 57.30Q291.96 58.51 292.29 61.57L292.32 61.60L292.28 61.56Q292.24 61.92 291.90 66.58L292.08 66.76L291.99 66.66Q291.31 70.38 290.91 71.85L291.02 71.96L290.87 71.81Q290.27 74.33 288.93 76.80ZM292.19 80.92L292.22 80.95L292.17 80.91Q293.91 77.05 294.85 69.52L295.00 69.67L294.85 69.52Q295.39 65.73 295.32 64.20L295.32 64.20L295.27 64.15Q295.20 60.88 293.14 59.28L293.20 59.34L292.74 59.22L292.58 59.06Q292.14 57.75 290.54 56.62L290.53 56.61L290.60 56.68Q286.65 55.00 278.26 54.73L278.13 54.61L278.23 54.71Q276.55 54.69 272.29 54.69L272.20 54.60L272.32 54.72Q269.24 54.71 266.65 55.91L266.62 55.88L266.67 55.93Q264.67 57.33 264.80 60.53L264.84 60.57L264.74 60.47Q265.18 62.17 265.51 65.70L265.35 65.54L265.46 65.65Q266.42 70.14 266.89 71.61L266.95 71.68L267.01 71.73Q267.90 74.89 269.57 77.15L269.64 77.22L269.66 77.25Q270.09 77.81 270.76 78.48L270.69 78.41L270.74 78.46Q271.21 79.26 272.34 80.86L272.28 80.80L272.42 80.94Q274.89 83.21 278.29 83.54L278.35 83.61L278.30 83.55Q274.96 88.20 272.22 91.54L272.29 91.60L265.87 99.18L265.91 99.21Q269.95 97.99 272.81 97.39L272.72 97.29L272.83 97.41Q271.40 98.84 268.67 101.84L268.71 101.88L268.73 101.90Q274.04 100.21 279.50 100.14L279.52 100.16L279.61 100.25Q283.51 95.56 291.10 82.90L291.24 83.03L291.20 83.13L291.18 83.11Q291.61 81.81 292.21 80.94ZM281.70 64.77L281.79 64.86L281.67 64.74Q282.75 64.55 283.55 64.75L283.62 64.83L283.59 64.79Q284.68 64.95 285.35 65.15L285.35 65.16L285.38 65.19Q285.50 65.78 285.64 66.51L285.82 66.69L285.82 66.69Q285.91 67.38 285.71 68.05L285.76 68.09L285.67 68.01Q285.52 70.92 283.46 72.85L283.50 72.90L283.52 72.91Q281.82 74.68 278.95 74.61L278.97 74.63L278.93 74.59Q278.29 74.68 275.63 74.15L275.64 74.17L275.52 74.04Q275.25 72.64 275.25 71.38L275.22 71.35L275.17 71.29Q275.00 70.79 275.00 70.39L275.04 70.44L275.07 70.46Q275.11 66.64 279.10 65.24L279.10 65.23L279.02 65.15Q280.34 64.87 281.80 64.87Z"/><path d="M3 134 C184 64,151 130,334 116" stroke="#398cde" fill="none"/><path d="M8 71 C168 33,151 101,324 109" stroke="#aade77" fill="none"/><path d="M16 15 C177 100,160 14,321 94" stroke="#4191e1" fill="none"/><path d="M19 31 C184 108,179 97,338 41" stroke="#e76363" fill="none"/><path d="M1 33 C180 7,188 115,321 35" stroke="#e594a8" fill="none"/><path d="M16 113 C159 97,164 121,340 87" stroke="#8e70ea" fill="none"/><path d="M14 39 C173 57,184 44,337 135" stroke="#519eea" fill="none"/><path d="M10 25 C177 139,170 1,333 15" stroke="#bde150" fill="none"/><path fill="#92e7a7" d="M101.39 83.94L101.44 83.99L101.43 83.98Q106.70 83.19 112.30 83.39L112.36 83.45L112.37 83.46Q112.34 79.04 112.34 74.84L112.21 74.71L112.30 74.79Q112.35 70.51 112.68 66.05L112.56 65.93L112.62 65.99Q110.42 68.92 101.29 83.84ZM118.61 96.70L118.66 96.75L118.66 96.75Q115.84 96.32 112.70 96.19L112.54 96.02L112.60 96.08Q112.36 92.05 112.16 87.72L112.12 87.67L112.14 87.70Q102.87 87.42 94.61 89.88L94.45 89.73L94.45 89.73Q94.68 88.88 95.01 87.15L94.95 87.09L95.08 87.22Q98.16 81.64 104.42 70.65L104.35 70.58L104.47 70.69Q109.49 62.13 115.49 55.33L115.52 55.37L115.45 55.30Q116.99 54.97 119.92 54.50L119.88 54.46L119.97 54.56Q116.68 65.86 116.68 78.18L116.57 78.07L116.69 78.19Q116.54 80.64 116.68 83.24L116.84 83.40L119.00 83.50L119.02 83.52Q120.04 83.54 121.11 83.74L121.21 83.84L121.08 83.71Q121.37 85.53 121.84 88.93L121.82 88.91L121.88 88.97Q119.67 88.43 117.08 88.10L117.07 88.09L117.09 88.11Q117.51 91.67 118.71 96.80ZM121.72 83.22L121.63 83.12L121.55 83.05Q121.29 82.99 120.96 82.99L121.06 83.09L120.31 83.00L120.32 83.02Q120.05 80.34 120.05 77.88L120.14 77.97L120.10 77.94Q120.07 66.71 123.66 56.18L123.69 56.20L123.75 56.26Q122.33 56.65 119.80 57.32L119.92 57.43L119.81 57.32Q120.30 56.08 121.10 53.62L121.12 53.63L120.94 53.45Q118.77 54.22 115.17 54.62L115.10 54.55L115.24 54.68Q108.30 62.20 99.17 78.59L99.26 78.68L102.90 72.26L102.86 72.22Q102.03 73.92 101.56 74.92L101.65 75.00L93.92 90.86L93.79 90.73Q94.98 90.52 96.98 89.86L97.01 89.88L96.66 90.20L96.64 90.18Q96.53 91.47 96.00 93.67L96.02 93.69L95.92 93.59Q103.23 91.38 111.70 91.71L111.56 91.57L111.60 91.62Q111.76 93.38 112.10 96.84L111.99 96.74L111.95 96.70Q113.92 96.80 115.78 97.00L115.84 97.05L115.71 96.93Q116.04 98.19 116.51 100.59L116.59 100.67L116.41 100.49Q119.83 100.98 125.09 102.58L125.17 102.66L125.16 102.65Q123.42 98.90 121.82 93.17L121.74 93.10L124.37 93.99L124.34 93.96Q125.45 94.28 126.65 94.88L126.66 94.89L126.62 94.84Q125.37 90.60 125.10 87.67L125.07 87.64L125.07 87.63Q123.96 87.26 121.96 86.86L121.99 86.88L122.07 86.96Q121.61 84.64 121.61 83.11ZM107.68 82.90L107.65 82.87L107.59 82.81Q108.93 80.56 111.66 76.09L111.80 76.23L111.64 76.07Q111.76 77.86 111.70 79.52L111.73 79.56L111.62 79.45Q111.73 81.29 111.79 82.95L111.71 82.87L111.76 82.92Q110.78 82.87 109.78 82.87L109.60 82.69L109.67 82.76Q108.63 82.78 107.56 82.78Z"/><path d="M13 124 C167 3,154 11,324 76" stroke="#c5e85e" fill="none"/><path fill="#829ae2" d="M221.68 60.61L221.71 60.65L218.96 60.82L219.00 60.87Q215.11 61.11 214.71 64.64L214.52 64.45L214.57 64.49Q214.55 65.88 214.62 67.61L214.59 67.58L214.48 67.47Q214.52 70.85 216.72 73.18L216.87 73.32L216.86 73.32Q218.96 75.56 222.30 75.29L222.38 75.37L222.24 75.23Q225.88 75.01 227.22 73.42L227.33 73.53L227.31 73.50Q229.05 71.78 229.52 67.85L229.66 67.99L229.61 67.95Q229.99 63.93 227.79 62.47L227.81 62.48L227.92 62.60Q226.31 61.11 221.64 60.58ZM232.18 76.72L232.26 76.79L229.92 80.72L230.05 80.85Q225.27 89.19 218.67 96.32L218.71 96.35L218.77 96.41Q215.86 96.63 211.13 98.03L211.09 97.99L211.09 98.00Q220.35 86.93 225.88 78.54L225.86 78.52L225.88 78.54Q224.04 79.63 221.17 79.76L221.22 79.81L221.22 79.81Q216.10 80.22 213.43 76.75L213.27 76.59L213.26 76.58Q211.27 73.93 209.34 65.93L209.22 65.81L209.26 65.85Q209.24 65.04 208.98 63.40L208.96 63.38L209.06 63.48Q208.68 61.74 208.68 60.94L208.73 60.99L208.65 60.91Q208.76 57.89 210.62 56.82L210.70 56.90L210.68 56.87Q212.82 55.56 216.09 55.56L215.99 55.46L216.05 55.52Q221.55 55.42 221.55 55.42L221.57 55.45L221.56 55.44Q225.31 55.45 227.50 55.78L227.66 55.93L227.64 55.91Q231.28 56.30 232.88 57.16L232.93 57.21L232.97 57.25Q235.41 58.62 235.74 61.69L235.70 61.64L235.63 61.57Q235.62 61.97 235.29 66.63L235.39 66.73L235.28 66.62Q234.66 70.40 234.26 71.86L234.21 71.81L234.21 71.81Q233.61 74.35 232.28 76.81ZM235.67 81.06L235.61 81.01L235.54 80.94Q237.25 77.05 238.18 69.53L238.28 69.62L238.25 69.59Q238.63 65.64 238.57 64.11L238.66 64.20L238.63 64.17Q238.51 60.85 236.44 59.25L236.45 59.27L235.92 59.07L235.90 59.05Q235.61 57.89 234.01 56.76L234.01 56.76L233.98 56.72Q229.84 54.86 221.45 54.59L221.55 54.69L221.62 54.76Q219.79 54.60 215.53 54.60L215.63 54.70L215.64 54.71Q212.56 54.69 209.96 55.89L209.92 55.85L209.97 55.90Q208.02 57.35 208.15 60.54L208.01 60.40L208.04 60.43Q208.33 61.99 208.67 65.52L208.82 65.68L208.82 65.68Q209.77 70.16 210.24 71.62L210.37 71.76L210.24 71.63Q211.22 74.87 212.89 77.14L212.89 77.14L212.85 77.10Q213.32 77.70 213.98 78.37L214.01 78.40L214.15 78.54Q214.51 79.23 215.64 80.83L215.69 80.88L215.64 80.83Q218.34 83.32 221.73 83.65L221.67 83.59L221.68 83.60Q218.42 88.34 215.69 91.67L215.63 91.61L209.23 99.20L209.21 99.18Q213.27 97.97 216.13 97.37L216.15 97.39L216.11 97.35Q214.83 98.94 212.10 101.94L212.08 101.92L211.96 101.80Q217.45 100.29 222.91 100.22L222.79 100.10L222.91 100.22Q226.96 95.68 234.56 83.02L234.50 82.96L234.60 83.19L234.52 83.11Q235.07 81.94 235.67 81.07ZM225.10 64.83L225.09 64.83L225.15 64.88Q226.13 64.60 226.93 64.80L226.88 64.75L227.00 64.87Q228.09 65.03 228.76 65.23L228.73 65.20L228.65 65.12Q229.02 65.95 229.15 66.69L229.13 66.67L228.99 66.53Q229.21 67.34 229.01 68.01L229.07 68.07L228.98 67.99Q228.98 71.05 226.91 72.98L226.88 72.94L226.96 73.02Q225.27 74.80 222.41 74.73L222.33 74.66L222.29 74.62Q221.70 74.76 219.03 74.22L219.02 74.21L218.90 74.09Q218.56 72.62 218.56 71.35L218.51 71.30L218.57 71.36Q218.49 70.95 218.49 70.55L218.31 70.37L218.40 70.46Q218.42 66.62 222.42 65.22L222.47 65.27L222.34 65.14Q223.69 64.90 225.16 64.90Z"/><path d="M19 123 C177 100,177 82,328 38" stroke="#5656e5" fill="none"/><path d="M13 135 C189 33,154 43,325 129" stroke="#d9d948" fill="none"/><path d="M18 95 C152 20,189 129,335 121" stroke="#73ddc2" fill="none"/><path d="M16 133 C177 115,176 26,321 122" stroke="#d84a91" fill="none"/><path d="M20 106 C192 124,165 95,326 61" stroke="#5858e8" fill="none"/><path d="M6 124 C169 126,181 113,336 77" stroke="#dfc67b" fill="none"/><path fill="#e0e05b" d="M164.92 60.52L165.07 60.67L162.23 60.77L162.32 60.85Q158.32 60.98 157.92 64.51L158.01 64.61L157.87 64.46Q157.73 65.73 157.80 67.46L157.82 67.48L157.86 67.52Q158.01 71.00 160.21 73.33L160.15 73.27L160.09 73.21Q162.36 75.62 165.69 75.35L165.69 75.35L165.73 75.39Q169.22 75.01 170.55 73.41L170.61 73.48L170.61 73.48Q172.48 71.88 172.94 67.95L172.90 67.91L172.88 67.88Q173.48 64.08 171.28 62.62L171.28 62.62L171.23 62.57Q169.68 61.15 165.02 60.62ZM175.64 76.84L175.63 76.83L173.25 80.71L173.38 80.84Q168.58 89.17 161.99 96.30L161.99 96.30L162.02 96.33Q159.22 96.67 154.49 98.06L154.39 97.96L154.36 97.93Q163.69 86.94 169.22 78.55L169.30 78.63L169.17 78.50Q167.43 79.69 164.56 79.82L164.58 79.84L164.59 79.84Q159.30 80.09 156.64 76.62L156.77 76.76L156.65 76.64Q154.53 73.85 152.60 65.86L152.65 65.91L152.63 65.89Q152.69 65.15 152.42 63.52L152.37 63.46L152.39 63.49Q152.08 61.81 152.08 61.01L152.17 61.10L152.06 60.99Q152.12 57.92 153.99 56.85L154.02 56.89L153.85 56.72Q156.01 55.41 159.27 55.41L159.33 55.47L159.38 55.52Q164.84 55.38 164.84 55.38L164.86 55.40L164.87 55.41Q168.67 55.48 170.87 55.81L170.98 55.92L170.89 55.83Q174.60 56.28 176.20 57.15L176.20 57.15L176.18 57.12Q178.70 58.58 179.03 61.64L179.04 61.65L178.90 61.52Q179.02 62.03 178.68 66.69L178.57 66.58L178.74 66.74Q177.90 70.31 177.50 71.77L177.60 71.87L177.62 71.89Q176.83 74.23 175.50 76.70ZM178.98 81.04L179.01 81.08L178.91 80.97Q180.59 77.06 181.52 69.53L181.60 69.61L181.51 69.52Q182.13 65.80 182.06 64.27L181.94 64.15L181.89 64.11Q181.92 60.93 179.85 59.33L179.82 59.30L179.34 59.16L179.28 59.09Q178.84 57.79 177.24 56.65L177.25 56.67L177.31 56.72Q173.19 54.87 164.80 54.60L164.87 54.68L164.92 54.73Q163.24 54.71 158.98 54.71L158.94 54.68L158.94 54.68Q155.94 54.74 153.34 55.94L153.24 55.83L153.20 55.80Q151.32 57.31 151.45 60.51L151.36 60.42L151.46 60.52Q151.78 62.11 152.11 65.64L152.02 65.55L152.13 65.66Q153.11 70.16 153.57 71.63L153.53 71.59L153.67 71.72Q154.60 74.92 156.27 77.19L156.34 77.26L156.34 77.26Q156.80 77.86 157.47 78.52L157.39 78.44L157.51 78.56Q157.85 79.24 158.98 80.84L159.03 80.88L158.96 80.81Q161.59 83.24 164.98 83.57L165.05 83.64L164.94 83.53Q161.63 88.22 158.90 91.55L158.85 91.50L152.66 99.30L152.52 99.15Q156.64 98.01 159.50 97.41L159.50 97.41L159.50 97.41Q158.13 98.90 155.39 101.90L155.36 101.86L155.28 101.78Q160.74 100.24 166.20 100.18L166.13 100.11L166.11 100.09Q170.30 95.69 177.90 83.03L177.85 82.98L177.87 83.13L177.91 83.18Q178.24 81.77 178.84 80.91ZM168.46 64.86L168.44 64.85L168.46 64.86Q169.48 64.62 170.28 64.82L170.36 64.90L170.31 64.85Q171.37 64.97 172.03 65.17L171.98 65.12L172.06 65.20Q172.30 65.90 172.43 66.63L172.35 66.55L172.31 66.51Q172.55 67.35 172.35 68.02L172.37 68.04L172.24 67.91Q172.18 70.92 170.12 72.85L170.15 72.88L170.14 72.87Q168.44 74.64 165.58 74.57L165.70 74.70L165.76 74.76Q164.92 74.65 162.26 74.12L162.33 74.19L162.34 74.20Q161.93 72.66 161.93 71.39L161.87 71.33L161.90 71.36Q161.77 70.89 161.77 70.49L161.79 70.51L161.72 70.45Q161.76 66.63 165.76 65.23L165.79 65.26L165.82 65.28Q166.93 64.80 168.40 64.80Z"/><path d="M11 117 C170 26,175 53,332 6" stroke="#e48d70" fill="none"/><path d="M11 68 C186 10,165 35,333 46" stroke="#e76ec9" fill="none"/><path d="M14 43 C185 86,152 61,322 46" stroke="#cceb6f" fill="none"/><path d="M17 85 C163 32,152 105,325 110" stroke="#50e6c0" fill="none"/><path d="M10 27 C158 94,183 117,326 51" stroke="#76e9e9" fill="none"/><path d="M5 35 C163 82,170 11,323 126" stroke="#7373e7" fill="none"/><path d="M10 61 C153 118,162 48,328 41" stroke="#69e669" fill="none"/></svg>