<svg xmlns="http://www.w3.org/2000/svg" width="342" height="140" viewBox="0,0,342,140"><path d="M13 122 C173 8,161 31,332 92" stroke="#80e980" fill="none"/><path d="M15 129 C152 22,151 83,333 26" stroke="#45bee6" fill="none"/><path fill="#da62bc" d="M126.58 95.73L126.63 95.77L126.63 95.78Q119.85 96.22 118.19 92.32L118.08 92.21L118.10 92.23Q119.46 90.72 122.08 87.72L122.11 87.74L121.97 87.60Q122.80 90.99 127.85 91.18L127.89 91.22L127.92 91.25Q133.62 91.39 136.37 89.16L136.39 89.18L136.40 89.19Q138.77 86.51 138.64 81.97L138.54 81.87L138.58 81.91Q138.46 73.55 130.41 73.93L130.27 73.79L130.37 73.89Q125.62 74.12 122.68 76.23L122.74 76.30L122.10 75.91L121.76 75.70L121.70 75.64Q122.39 70.45 122.20 65.85L122.18 65.83L122.09 65.74Q122.01 61.44 121.43 55.88L121.32 55.76L121.39 55.83Q127.60 57.51 133.99 57.32L133.85 57.18L133.83 57.16Q140.35 57.16 146.35 55.05L146.30 54.99L145.37 57.58L145.42 57.63Q144.86 58.86 144.54 60.27L144.58 60.30L144.47 60.20Q139.33 62.02 132.81 62.02L132.64 61.85L132.65 61.86Q130.24 61.87 127.74 61.62L127.72 61.60L127.72 61.59Q127.61 62.76 127.04 70.24L127.18 70.38L127.13 70.33Q128.46 69.49 131.91 69.23L132.07 69.40L131.90 69.23Q138.19 69.63 140.62 72.44L140.57 72.40L140.61 72.43Q142.95 75.04 143.40 81.49L143.41 81.50L143.34 81.43Q143.95 88.62 141.91 92.01L141.88 91.98L141.78 91.88Q138.37 95.06 132.81 95.44L132.92 95.55L132.84 95.47Q131.21 95.63 126.74 95.89ZM136.74 99.56L136.82 99.64L136.88 99.70Q142.51 99.70 145.70 97.85L145.85 98.00L145.76 97.90Q147.34 95.27 147.34 91.76L147.42 91.84L147.46 91.87Q147.39 86.63 145.80 79.73L145.83 79.76L145.77 79.70Q145.19 76.83 143.14 74.46L143.06 74.38L143.13 74.51L142.86 74.12L142.17 73.68L142.20 73.71Q141.78 72.58 140.69 71.43L140.67 71.41L140.59 71.39L140.65 71.45Q138.09 68.64 131.89 68.64L131.82 68.56L131.56 68.76L131.56 68.76Q131.56 67.67 131.88 65.81L131.97 65.91L131.90 65.84Q140.33 66.08 147.10 63.34L147.01 63.25L147.11 63.35Q147.71 60.87 149.30 56.14L149.35 56.19L145.92 57.87L145.75 57.70Q146.50 55.90 147.33 53.98L147.25 53.90L147.30 53.95Q140.85 56.38 133.95 56.51L133.91 56.47L133.89 56.45Q127.14 56.80 120.50 54.95L120.45 54.90L120.48 54.92Q121.49 62.20 121.49 69.61L121.50 69.62L121.63 69.75Q121.47 72.78 121.27 75.98L121.41 76.11L121.38 76.09Q121.82 76.40 122.78 76.91L122.80 76.92L122.70 76.83Q123.30 76.47 124.38 75.89L124.51 76.02L124.52 76.03Q124.37 77.22 123.99 79.78L124.04 79.83L124.06 79.85Q124.62 80.03 125.33 80.42L125.35 80.44L125.45 80.54Q130.01 77.49 133.14 77.49L133.28 77.63L133.26 77.61Q135.51 77.62 137.49 78.71L137.49 78.71L137.42 78.64Q138.07 80.44 138.13 82.04L138.06 81.96L137.95 81.86Q138.21 86.33 136.48 88.18L136.39 88.10L136.36 88.06Q134.06 90.11 130.29 90.49L130.44 90.64L130.45 90.65Q128.77 90.69 127.62 90.57L127.71 90.66L127.64 90.59Q126.20 90.36 124.92 89.79L124.87 89.73L124.95 89.50L124.75 89.67L124.71 89.64Q123.42 88.86 122.52 86.62L122.42 86.51L122.52 86.61Q120.14 88.84 117.33 92.42L117.40 92.49L117.41 92.50Q117.90 93.56 119.30 95.16L119.23 95.08L119.40 95.26Q121.19 98.32 125.92 99.15L125.90 99.13L125.85 99.09Q127.75 99.39 136.76 99.58Z"/><path d="M19 14 C163 96,179 96,333 73" stroke="#b04bd2" fill="none"/><path d="M12 86 C186 105,186 30,332 26" stroke="#934add" fill="none"/><path d="M1 93 C180 21,191 14,340 77" stroke="#e4a86c" fill="none"/><path d="M16 83 C157 60,163 65,340 58" stroke="#e6e645" fill="none"/><path d="M4 112 C159 87,186 40,330 77" stroke="#5c5cdf" fill="none"/><path d="M1 106 C190 82,169 11,324 63" stroke="#52df75" fill="none"/><path d="M4 121 C166 126,188 59,336 1" stroke="#e5bc94" fill="none"/><path d="M18 19 C158 52,175 120,337 14" stroke="#edaa68" fill="none"/><path fill="#436adf" d="M262.61 89.91L262.64 89.94L262.70 90.00Q264.66 91.58 267.03 91.32L267.01 91.30L266.90 91.20Q271.92 91.62 273.01 85.99L272.92 85.90L273.03 86.01Q274.09 80.75 274.09 75.06L274.08 75.05L273.95 70.58L274.00 70.63Q273.98 68.50 273.41 66.39L273.49 66.47L273.43 66.42Q271.42 70.35 268.10 78.33L268.04 78.28L268.01 78.25Q264.77 86.32 262.73 90.02ZM271.14 62.34L271.15 62.34L271.19 62.38Q269.14 60.91 266.90 60.91L266.88 60.89L266.88 60.89Q264.49 60.73 262.63 62.26L262.63 62.25L262.65 62.28Q260.71 63.72 260.39 66.22L260.53 66.35L260.49 66.32Q259.88 68.58 259.82 71.08L259.90 71.16L259.73 70.99Q259.79 71.05 259.79 75.84L259.82 75.87L259.86 75.92Q259.87 79.88 260.64 85.96L260.60 85.92L260.53 85.85Q263.85 77.99 271.20 62.40ZM273.69 93.83L273.69 93.83L273.75 93.89Q270.82 95.43 266.92 95.43L267.01 95.52L264.23 95.49L264.21 95.48Q258.65 95.34 256.74 92.47L256.88 92.62L256.89 92.63Q255.47 88.91 255.34 83.99L255.36 84.00L255.41 84.05Q255.27 81.03 255.14 75.22L255.20 75.27L255.09 75.17Q255.07 73.17 254.82 68.06L254.80 68.04L254.82 68.06Q254.64 64.18 255.16 60.86L255.14 60.84L255.25 60.95Q255.96 55.91 263.25 55.53L263.43 55.71L263.29 55.57Q264.68 55.62 266.92 55.69L266.76 55.52L266.82 55.58Q276.30 55.80 278.09 61.62L278.20 61.73L278.09 61.61Q279.23 64.92 279.16 68.06L279.04 67.93L279.08 67.97Q279.02 76.41 278.89 78.46L278.92 78.49L278.92 78.49Q278.56 84.83 278.05 87.01L278.08 87.04L278.08 87.04Q277.00 92.28 273.80 93.94ZM282.15 93.60L282.00 93.46L282.06 93.51Q282.46 88.86 282.40 85.86L282.29 85.76L282.23 78.09L282.35 78.21Q282.15 73.09 281.25 63.82L281.29 63.86L281.27 63.84Q280.28 60.68 278.11 59.40L278.20 59.49L278.20 59.49Q275.51 55.14 266.82 54.89L266.84 54.90L266.92 54.98Q265.29 54.76 263.06 54.83L263.16 54.93L263.06 54.83Q255.56 55.06 254.73 60.30L254.68 60.25L254.80 60.37Q254.09 64.20 254.28 67.72L254.25 67.69L254.24 67.67Q254.89 75.10 254.83 80.72L254.83 80.73L254.83 80.72Q254.66 86.82 254.85 88.54L254.88 88.57L254.92 88.61Q255.48 93.70 258.03 95.04L258.15 95.16L258.08 95.09Q260.56 98.79 267.27 99.23L267.21 99.17L267.39 99.35Q273.27 99.61 274.36 99.55L274.41 99.60L274.34 99.53Q279.28 99.42 281.19 96.73L281.09 96.63L281.06 96.60Q281.94 95.50 282.07 93.52ZM267.61 90.63L267.58 90.60L267.71 90.73Q268.76 88.20 270.55 83.67L270.63 83.74L273.35 76.50L273.48 76.62Q273.31 79.26 272.67 84.89L272.75 84.97L272.79 85.01Q271.59 89.75 267.56 90.58ZM264.23 69.93L264.31 70.01L264.33 70.03Q265.11 67.04 266.26 66.08L266.16 65.98L266.26 66.08Q267.07 65.42 269.24 65.10L269.12 64.97L269.09 64.95Q266.22 71.09 263.09 78.89L263.24 79.03L263.17 78.96Q263.12 74.38 264.27 69.97Z"/><path d="M3 2 C163 27,189 107,338 92" stroke="#57a0ea" fill="none"/><path d="M19 123 C165 89,156 101,338 108" stroke="#f183f1" fill="none"/><path d="M7 98 C179 78,164 14,340 16" stroke="#d2d24b" fill="none"/><path d="M4 99 C169 76,170 47,323 132" stroke="#ebd38e" fill="none"/><path d="M3 79 C186 123,178 79,326 58" stroke="#e4e439" fill="none"/><path fill="#e57aca" d="M69.47 73.58L69.53 73.64L69.57 73.68Q70.85 73.62 73.21 73.36L73.26 73.41L73.18 73.33Q73.16 74.46 73.16 75.55L73.22 75.60L73.24 77.73L73.21 77.70Q71.80 77.70 70.40 77.83L70.37 77.80L70.37 77.80Q68.98 77.88 67.57 77.81L67.58 77.82L67.59 77.84Q62.83 88.21 57.08 95.95L57.11 95.98L56.92 95.79Q52.74 96.92 50.57 97.94L50.69 98.06L50.64 98.01Q57.47 88.35 62.58 77.81L62.70 77.93L58.21 77.85L58.29 77.93Q58.31 75.71 58.12 73.48L58.02 73.38L58.09 73.45Q61.26 73.68 64.72 73.68L64.75 73.72L67.84 67.42L67.78 67.35Q69.52 64.24 71.57 61.56L71.64 61.63L71.51 61.49Q68.91 61.77 66.22 61.77L66.18 61.72L66.24 61.78Q56.00 61.77 49.67 58.06L49.71 58.10L48.69 55.29L48.55 55.15Q48.14 53.91 47.50 52.44L47.35 52.29L47.41 52.35Q54.78 56.85 64.37 57.23L64.23 57.09L64.23 57.09Q72.97 57.59 81.59 54.26L81.57 54.24L81.48 54.14Q81.22 54.91 80.39 56.38L80.41 56.41L80.45 56.45Q74.41 64.46 69.62 73.73ZM83.16 58.77L82.98 58.59L84.66 55.22L84.69 55.25Q83.17 56.16 80.36 57.37L80.25 57.26L80.59 56.77L80.66 56.84Q80.75 56.49 80.94 56.29L80.98 56.33L81.09 56.44Q81.70 55.26 82.91 53.03L82.96 53.08L82.82 52.93Q74.04 56.93 64.39 56.55L64.30 56.46L64.29 56.45Q54.24 56.05 46.25 51.07L46.12 50.94L46.19 51.01Q47.95 54.16 49.35 58.64L49.25 58.53L49.43 58.71Q51.15 59.67 52.49 60.18L52.58 60.27L52.62 60.31Q52.85 60.86 53.62 63.99L53.59 63.96L53.48 63.85Q58.95 66.13 68.22 65.87L68.20 65.85L68.13 65.78Q67.62 66.75 64.30 73.07L64.25 73.03L64.27 73.05Q60.85 73.07 57.52 72.75L57.48 72.71L57.55 72.78Q57.56 74.07 57.56 75.54L57.68 75.65L57.59 78.44L60.44 78.48L60.49 80.89L60.45 80.85Q53.85 93.23 49.18 99.24L49.12 99.18L49.26 99.31Q51.89 97.98 54.63 97.15L54.56 97.07L54.67 97.19Q53.49 98.69 51.19 101.56L51.10 101.47L51.14 101.51Q56.47 99.69 60.56 99.30L60.63 99.37L60.54 99.29Q65.50 93.00 70.74 81.62L70.66 81.55L76.50 81.95L76.46 81.91Q76.42 80.47 76.42 78.93L76.46 78.97L76.34 75.85L76.44 75.94Q75.93 75.88 75.00 75.95L74.96 75.91L75.01 75.95Q74.12 76.06 73.67 76.06L73.60 75.99L73.58 75.96Q73.67 75.87 73.74 75.61L73.70 75.57L73.78 75.21L73.60 75.02Q77.85 66.43 83.03 58.64Z"/><path d="M5 102 C165 47,165 17,336 34" stroke="#eba188" fill="none"/><path d="M21 63 C160 88,187 17,338 40" stroke="#53d453" fill="none"/><path d="M15 92 C189 64,173 126,328 24" stroke="#da62bc" fill="none"/><path d="M6 120 C187 83,164 75,337 114" stroke="#e1805f" fill="none"/><path d="M3 27 C190 130,170 28,338 113" stroke="#7751ea" fill="none"/><path d="M12 25 C176 107,182 53,331 37" stroke="#5f5fe7" fill="none"/><path d="M5 51 C160 128,181 60,332 56" stroke="#78ec95" fill="none"/><path d="M13 58 C159 30,191 45,340 46" stroke="#db66a0" fill="none"/><path fill="#e7e787" d="M194.75 90.05L194.65 89.95L194.62 89.92Q196.70 91.62 199.07 91.36L198.95 91.25L198.99 91.29Q204.00 91.69 205.08 86.07L204.98 85.96L204.93 85.92Q206.09 80.75 206.09 75.06L206.00 74.97L205.98 70.61L206.09 70.71Q205.96 68.47 205.38 66.37L205.42 66.41L205.36 66.34Q203.34 70.27 200.02 78.25L200.08 78.32L200.00 78.23Q196.82 86.37 194.77 90.07ZM203.08 62.28L203.22 62.41L203.15 62.35Q201.12 60.89 198.89 60.89L198.96 60.97L198.91 60.92Q196.42 60.66 194.57 62.20L194.61 62.24L194.54 62.17Q192.75 63.76 192.43 66.25L192.47 66.30L192.53 66.36Q191.88 68.58 191.81 71.07L191.81 71.07L191.84 71.10Q191.91 71.17 191.91 75.96L191.76 75.82L191.83 75.88Q191.84 79.85 192.61 85.92L192.65 85.97L192.55 85.86Q195.89 78.02 203.24 62.43ZM205.75 93.89L205.77 93.91L205.69 93.84Q202.74 95.35 198.84 95.35L198.85 95.36L196.19 95.45L196.12 95.38Q190.83 95.52 188.91 92.65L188.90 92.63L188.77 92.50Q187.50 88.93 187.37 84.01L187.45 84.09L187.36 84.00Q187.37 81.14 187.24 75.32L187.12 75.20L187.09 75.16Q187.15 73.25 186.89 68.13L186.82 68.06L186.90 68.14Q186.72 64.26 187.23 60.93L187.32 61.02L187.31 61.01Q188.06 56.00 195.34 55.62L195.42 55.70L195.35 55.63Q196.52 55.46 198.76 55.53L198.86 55.63L198.80 55.56Q208.32 55.82 210.11 61.64L210.12 61.65L210.24 61.77Q211.10 64.80 211.03 67.93L211.13 68.03L211.22 68.12Q211.05 76.45 210.93 78.49L210.84 78.41L210.88 78.45Q210.54 84.82 210.03 86.99L210.10 87.06L210.11 87.07Q208.99 92.27 205.79 93.94ZM214.16 93.62L214.10 93.56L213.99 93.44Q214.44 88.84 214.37 85.84L214.46 85.92L214.17 78.03L214.17 78.02Q214.22 73.16 213.33 63.89L213.14 63.71L213.15 63.71Q212.42 60.81 210.24 59.53L210.24 59.53L210.22 59.51Q207.51 55.14 198.82 54.88L198.89 54.95L198.95 55.01Q197.45 54.92 195.22 54.99L195.17 54.94L195.13 54.90Q187.53 55.04 186.70 60.28L186.75 60.32L186.74 60.32Q186.03 64.14 186.22 67.65L186.17 67.60L186.24 67.67Q186.92 75.13 186.86 80.75L186.86 80.76L186.81 80.70Q186.80 86.96 186.99 88.68L186.84 88.53L187.00 88.69Q187.60 93.82 190.15 95.16L190.16 95.17L190.19 95.20Q192.53 98.75 199.24 99.20L199.26 99.23L199.29 99.25Q205.23 99.57 206.32 99.51L206.36 99.55L206.42 99.61Q211.19 99.33 213.11 96.65L213.14 96.69L213.03 96.57Q213.85 95.41 213.98 93.43ZM199.61 90.63L199.55 90.57L199.69 90.71Q200.69 88.13 202.48 83.59L202.64 83.75L205.46 76.60L205.41 76.56Q205.39 79.35 204.75 84.97L204.72 84.93L204.76 84.98Q203.64 89.80 199.61 90.63ZM196.28 69.98L196.24 69.94L196.28 69.98Q196.99 66.92 198.14 65.96L198.12 65.94L198.12 65.94Q199.00 65.36 201.18 65.04L201.14 65.00L201.06 64.92Q198.21 71.08 195.08 78.88L195.20 79.00L195.19 78.99Q195.21 74.47 196.36 70.06Z"/><path d="M7 102 C152 50,187 40,328 21" stroke="#e48fe4" fill="none"/><path d="M15 63 C182 76,183 14,331 25" stroke="#8cd641" fill="none"/><path d="M12 137 C168 138,159 123,325 70" stroke="#4adddd" fill="none"/><path d="M15 62 C153 92,174 56,335 77" stroke="#da5c7c" fill="none"/><path d="M6 9 C159 75,189 96,337 98" stroke="#de67a3" fill="none"/><path d="M4 73 C154 128,168 119,326 22" stroke="#91e43e" fill="none"/><path d="M20 12 C158 50,152 62,326 61" stroke="#3be6e6" fill="none"/><path d="M7 85 C187 118,186 116,338 72" stroke="#de5376" fill="none"/><path d="M2 31 C179 106,164 36,336 29" stroke="#8abcee" fill="none"/><path d="M18 23 C167 103,185 19,324 5" stroke="#85e4b5" fill="none"/><path d="M5 79 C156 89,189 55,333 123" stroke="#e15578" fill="none"/><path d="M13 11 C169 85,171 40,332 98" stroke="#60c4e6" fill="none"/><path d="M19 52 C183 61,151 137,334 53" stroke="#e5ac98" fill="none"/><path d="M8 111 C166 65,162 5,333 97" stroke="#d690ed" fill="none"/><path d="M18 51 C191 39,180 117,335 120" stroke="#86e8b7" fill="none"/><path d="M10 52 C153 43,176 58,332 65" stroke="#ba45e2" fill="none"/><path d="M21 18 C161 77,152 41,339 62" stroke="#db8e42" fill="none"/></svg>