<svg xmlns="http://www.w3.org/2000/svg" width="342" height="140" viewBox="0,0,342,140"><path fill="#8aeea3" d="M125.33 99.33L125.28 99.29L125.36 99.37Q117.65 99.88 115.76 95.44L115.70 95.38L115.67 95.35Q117.21 93.62 120.19 90.20L120.17 90.18L120.07 90.07Q121.14 94.05 126.89 94.27L126.81 94.20L126.75 94.14Q133.36 94.42 136.49 91.87L136.49 91.88L136.36 91.75Q139.21 88.85 139.07 83.69L138.96 83.58L139.01 83.63Q138.66 73.89 129.49 74.33L129.52 74.36L129.48 74.32Q124.23 74.74 120.88 77.14L120.72 76.98L120.20 76.75L119.84 76.53L119.88 76.57Q120.41 70.42 120.20 65.18L120.19 65.18L120.26 65.25Q120.06 60.25 119.41 53.92L119.31 53.82L119.42 53.92Q126.30 55.65 133.58 55.43L133.58 55.43L133.53 55.38Q140.83 55.26 147.67 52.86L147.80 53.00L146.68 55.88L146.57 55.77Q146.11 57.34 145.75 58.94L145.75 58.95L145.65 58.85Q139.76 60.89 132.34 60.89L132.23 60.77L132.35 60.90Q129.45 60.76 126.61 60.47L126.75 60.61L126.68 60.54Q126.57 61.88 125.91 70.39L125.92 70.39L125.93 70.41Q127.43 69.43 131.36 69.14L131.50 69.28L131.47 69.26Q138.58 69.67 141.35 72.87L141.24 72.77L141.34 72.86Q143.88 75.70 144.39 83.05L144.36 83.01L144.44 83.09Q145.04 91.19 142.72 95.05L142.67 95.00L142.68 95.01Q138.81 98.64 132.49 99.07L132.43 99.01L132.39 98.97Q130.46 99.08 125.36 99.37ZM136.89 103.69L136.93 103.73L137.00 103.81Q143.48 103.88 147.12 101.77L147.04 101.70L147.13 101.79Q148.94 98.80 148.94 94.80L148.97 94.83L149.06 94.92Q149.01 88.97 147.19 81.12L147.17 81.10L147.26 81.19Q146.56 77.87 144.23 75.17L144.05 74.99L144.14 75.16L143.83 74.70L143.20 74.36L143.20 74.37Q142.52 72.88 141.28 71.57L141.26 71.55L141.31 71.67L141.24 71.60Q138.32 68.40 131.27 68.40L131.39 68.52L130.85 68.48L130.91 68.55Q131.00 67.40 131.36 65.29L131.44 65.36L131.40 65.32Q140.94 65.56 148.65 62.43L148.57 62.35L148.49 62.27Q149.35 59.64 151.17 54.26L151.16 54.25L147.27 56.18L147.14 56.04Q147.91 53.90 148.85 51.72L148.97 51.84L148.83 51.70Q141.61 54.59 133.76 54.74L133.65 54.63L133.61 54.59Q125.74 54.80 118.18 52.69L118.27 52.78L118.21 52.72Q119.58 61.22 119.58 69.66L119.51 69.59L119.60 69.67Q119.59 73.30 119.37 76.94L119.32 76.89L119.25 76.82Q119.76 77.18 120.85 77.77L120.87 77.78L120.95 77.86Q121.59 77.41 122.83 76.76L122.90 76.83L122.89 76.82Q122.70 78.16 122.26 81.07L122.32 81.12L122.41 81.22Q123.22 81.59 124.02 82.03L123.85 81.86L123.88 81.89Q129.24 78.59 132.80 78.59L132.77 78.55L132.85 78.63Q135.29 78.52 137.54 79.76L137.55 79.77L137.63 79.85Q138.27 81.80 138.35 83.62L138.27 83.54L138.24 83.52Q138.48 88.55 136.51 90.66L136.44 90.59L136.54 90.69Q133.92 93.01 129.63 93.45L129.59 93.41L129.53 93.36Q127.74 93.52 126.43 93.38L126.48 93.43L126.42 93.37Q124.96 93.29 123.50 92.64L123.33 92.46L123.38 92.15L123.15 92.35L123.10 92.31Q121.59 91.37 120.57 88.83L120.65 88.91L120.62 88.88Q118.03 91.53 114.83 95.61L114.92 95.69L114.92 95.69Q115.40 96.83 117.00 98.64L116.92 98.57L116.92 98.56Q119.11 102.21 124.49 103.15L124.52 103.19L124.35 103.01Q126.67 103.51 136.92 103.73Z"/><path d="M15 135 C176 9,173 98,336 44" stroke="#8462e8" fill="none"/><path d="M12 132 C160 89,166 118,340 53" stroke="#62e3c3" fill="none"/><path d="M7 79 C167 104,172 17,328 28" stroke="#45d345" fill="none"/><path d="M9 57 C188 48,191 25,328 112" stroke="#bee93e" fill="none"/><path d="M19 126 C155 116,151 59,329 99" stroke="#987ee6" fill="none"/><path d="M4 139 C172 116,166 80,322 106" stroke="#cf7fea" fill="none"/><path d="M2 39 C161 19,183 65,338 136" stroke="#90e8d2" fill="none"/><path d="M18 36 C156 55,178 105,323 12" stroke="#5ae17c" fill="none"/><path d="M7 118 C176 27,175 130,332 13" stroke="#c6df7a" fill="none"/><path d="M3 69 C181 20,168 85,321 109" stroke="#7cd1ed" fill="none"/><path d="M18 92 C151 46,154 66,339 18" stroke="#c9e674" fill="none"/><path d="M4 105 C177 37,151 71,341 124" stroke="#eb56a0" fill="none"/><path d="M10 6 C186 63,189 54,341 129" stroke="#3c3ce5" fill="none"/><path d="M14 51 C177 47,150 105,340 104" stroke="#a5e961" fill="none"/><path d="M14 79 C165 97,170 11,322 107" stroke="#53debb" fill="none"/><path d="M17 62 C152 34,192 61,335 12" stroke="#9346e1" fill="none"/><path d="M16 16 C184 89,157 41,335 106" stroke="#e5e561" fill="none"/><path d="M5 10 C158 123,156 77,322 58" stroke="#bce73a" fill="none"/><path d="M19 23 C167 121,175 29,336 28" stroke="#69c4e2" fill="none"/><path d="M3 47 C172 26,181 130,322 114" stroke="#e9c24d" fill="none"/><path d="M11 46 C181 46,189 112,327 108" stroke="#73ecaf" fill="none"/><path d="M18 15 C173 36,161 41,339 41" stroke="#4be64b" fill="none"/><path fill="#7ae556" d="M190.94 85.20L190.88 85.14L190.93 85.19Q196.85 84.49 202.96 84.71L202.88 84.63L202.89 84.64Q202.78 79.73 202.78 75.15L202.85 75.22L202.95 75.31Q202.87 70.51 203.24 65.64L203.32 65.72L203.21 65.61Q200.95 68.96 190.99 85.25ZM209.82 99.21L209.84 99.23L209.85 99.23Q206.67 98.67 203.25 98.53L203.30 98.58L203.23 98.51Q202.82 93.95 202.60 89.22L202.70 89.32L202.70 89.32Q192.45 88.89 183.43 91.58L183.52 91.67L183.36 91.51Q183.63 90.62 183.99 88.73L184.02 88.76L184.08 88.81Q187.53 82.81 194.37 70.81L194.27 70.71L194.33 70.77Q199.81 61.41 206.36 53.99L206.27 53.90L206.41 54.04Q207.98 53.58 211.18 53.07L211.15 53.03L211.28 53.17Q207.55 65.36 207.55 78.82L207.61 78.88L207.60 78.87Q207.53 81.64 207.68 84.48L207.72 84.52L210.19 84.74L210.20 84.74Q211.30 84.76 212.46 84.97L212.52 85.03L212.55 85.06Q212.85 87.03 213.36 90.74L213.31 90.69L213.28 90.66Q210.96 90.17 208.13 89.80L208.03 89.71L208.20 89.87Q208.63 93.73 209.94 99.33ZM213.13 84.40L213.14 84.42L213.05 84.33Q212.65 84.14 212.29 84.14L212.29 84.15L211.50 84.09L211.68 84.27Q211.37 81.33 211.37 78.64L211.29 78.56L211.32 78.59Q211.37 66.42 215.29 54.93L215.31 54.94L215.36 54.99Q213.78 55.37 211.01 56.10L211.02 56.11L211.08 56.17Q211.46 54.66 212.34 51.97L212.32 51.96L212.37 52.00Q209.95 52.78 206.02 53.22L206.07 53.27L205.93 53.13Q198.59 61.57 188.62 79.46L188.64 79.48L192.52 72.38L192.60 72.46Q191.82 74.44 191.31 75.53L191.29 75.51L182.81 92.78L182.75 92.72Q183.92 92.36 186.10 91.63L186.09 91.62L185.90 92.16L185.92 92.18Q185.56 93.35 184.98 95.75L185.15 95.92L185.07 95.84Q192.83 93.20 202.07 93.56L202.08 93.58L202.22 93.72Q202.18 95.42 202.54 99.20L202.57 99.23L202.52 99.18Q204.54 99.16 206.58 99.38L206.72 99.53L206.64 99.44Q207.01 100.84 207.52 103.45L207.49 103.43L207.46 103.39Q211.02 103.75 216.76 105.49L216.84 105.57L216.80 105.53Q214.95 101.50 213.20 95.24L213.29 95.33L216.02 96.17L215.98 96.13Q217.32 96.60 218.63 97.25L218.51 97.13L218.61 97.23Q217.06 92.41 216.77 89.21L216.75 89.19L216.74 89.18Q215.75 88.99 213.57 88.56L213.42 88.41L213.58 88.56Q212.96 85.90 212.96 84.23ZM197.80 84.06L197.82 84.08L197.74 83.99Q199.26 81.59 202.24 76.72L202.15 76.63L202.18 76.65Q202.21 78.50 202.13 80.32L202.10 80.28L202.15 80.34Q202.17 82.24 202.24 84.06L202.27 84.09L202.31 84.13Q201.20 84.04 200.11 84.04L200.03 83.96L200.12 84.05Q198.87 83.97 197.71 83.97Z"/><path d="M7 59 C168 27,191 57,332 64" stroke="#a792e6" fill="none"/><path d="M15 99 C164 114,152 21,329 83" stroke="#f079d2" fill="none"/><path d="M3 81 C161 41,183 87,331 76" stroke="#7bafe4" fill="none"/><path d="M19 95 C162 72,155 41,326 62" stroke="#9649e3" fill="none"/><path d="M20 99 C166 53,190 30,341 130" stroke="#65e084" fill="none"/><path d="M5 20 C181 50,173 89,332 66" stroke="#3ee4bb" fill="none"/><path d="M17 72 C187 78,167 70,323 102" stroke="#62a8ed" fill="none"/><path d="M19 126 C179 100,159 42,337 27" stroke="#ed91a8" fill="none"/><path d="M10 112 C175 24,185 92,329 20" stroke="#b7e38b" fill="none"/><path d="M19 46 C172 128,191 60,330 21" stroke="#7ce8cd" fill="none"/><path d="M12 92 C166 120,173 121,337 102" stroke="#44e76d" fill="none"/><path d="M17 27 C151 57,188 132,335 116" stroke="#e98fd3" fill="none"/><path d="M5 2 C165 117,183 32,322 36" stroke="#964ddf" fill="none"/><path d="M20 65 C156 52,189 34,340 125" stroke="#8080ee" fill="none"/><path d="M6 91 C190 126,162 17,331 94" stroke="#a367de" fill="none"/><path d="M10 9 C172 34,190 111,322 96" stroke="#9e5ae1" fill="none"/><path fill="#eed380" d="M69.74 74.14L69.80 74.20L69.78 74.18Q71.36 74.24 74.06 73.95L74.02 73.91L73.88 73.77Q73.96 75.16 73.96 76.39L73.87 76.31L73.81 78.65L73.90 78.74Q72.26 78.70 70.66 78.85L70.72 78.90L70.69 78.87Q69.04 78.90 67.44 78.82L67.53 78.91L67.40 78.79Q62.12 90.74 55.57 99.55L55.55 99.52L55.56 99.53Q50.74 100.75 48.27 101.92L48.21 101.85L48.30 101.95Q56.10 90.98 61.92 78.97L61.96 79.02L56.87 78.95L56.95 79.03Q56.96 76.49 56.74 73.94L56.65 73.85L56.57 73.77Q60.24 74.10 64.17 74.10L64.22 74.15L67.95 67.18L67.81 67.05Q69.70 63.41 72.03 60.35L72.04 60.37L72.06 60.39Q69.11 60.71 66.05 60.71L66.08 60.74L65.95 60.60Q54.49 60.78 47.29 56.56L47.29 56.57L45.91 53.15L46.02 53.26Q45.27 51.57 44.55 49.89L44.62 49.97L44.54 49.89Q52.79 54.86 63.70 55.30L63.82 55.42L63.76 55.36Q73.59 55.80 83.41 52.02L83.41 52.02L83.39 52.00Q83.03 52.81 82.09 54.48L82.06 54.46L82.02 54.41Q75.15 63.55 69.69 74.09ZM85.22 57.18L85.22 57.18L87.04 53.26L87.12 53.33Q85.31 54.28 82.11 55.67L81.99 55.55L82.39 55.01L82.47 55.08Q82.67 54.78 82.89 54.56L82.85 54.51L82.86 54.53Q83.49 53.12 84.88 50.58L85.01 50.71L84.88 50.59Q74.84 55.09 63.86 54.66L63.72 54.52L63.75 54.55Q52.34 54.12 43.24 48.44L43.15 48.35L43.23 48.43Q45.07 51.87 46.67 56.96L46.83 57.12L46.67 56.97Q48.96 58.38 50.49 58.97L50.33 58.80L50.34 58.81Q50.65 59.49 51.52 63.05L51.66 63.19L51.49 63.02Q57.61 65.51 68.16 65.22L68.24 65.30L68.15 65.21Q67.46 66.19 63.68 73.39L63.78 73.49L63.74 73.45Q59.79 73.43 56.01 73.06L56.17 73.22L56.05 73.11Q56.16 74.67 56.16 76.35L56.17 76.35L56.20 79.65L59.45 79.71L59.43 82.37L59.49 82.44Q51.92 96.48 46.61 103.31L46.55 103.25L46.61 103.31Q49.69 101.88 52.82 100.94L52.85 100.96L52.86 100.98Q51.50 102.68 48.89 105.95L48.79 105.86L48.78 105.85Q54.90 103.82 59.56 103.38L59.48 103.30L59.49 103.32Q65.09 96.12 71.06 83.17L71.09 83.20L77.66 83.59L77.70 83.62Q77.47 81.79 77.47 80.05L77.46 80.04L77.53 76.69L77.46 76.62Q76.93 76.60 75.87 76.67L76.02 76.82L76.04 76.84Q74.98 76.90 74.47 76.90L74.35 76.78L74.35 76.78Q74.40 76.61 74.47 76.32L74.48 76.33L74.40 75.75L74.40 75.75Q79.31 66.03 85.20 57.16Z"/><path fill="#ef8aa3" d="M281.64 94.73L281.52 94.61L281.47 94.56Q282.24 96.64 283.26 100.50L283.11 100.35L283.09 100.33Q275.04 97.81 266.24 98.32L266.31 98.39L266.37 98.45Q257.59 98.90 249.95 102.69L249.86 102.60L250.02 102.75Q250.27 101.26 250.34 101.41L250.37 101.44L250.36 101.43Q257.57 93.94 265.07 85.51L265.09 85.53L265.04 85.48Q273.40 75.87 275.65 66.92L275.81 67.08L275.77 67.04Q276.71 63.76 274.27 61.51L274.22 61.46L274.09 61.33Q271.76 59.17 268.34 59.46L268.28 59.41L268.30 59.43Q267.77 59.47 267.11 59.47L266.97 59.33L267.11 59.47Q264.13 59.41 261.73 61.15L261.64 61.06L261.65 61.07Q259.26 63.77 259.70 68.87L259.73 68.89L259.76 68.92Q256.26 68.19 253.94 67.32L253.88 67.27L253.86 67.24Q253.55 64.60 253.40 61.84L253.42 61.86L253.42 61.86Q253.20 58.65 254.36 56.47L254.38 56.48L254.42 56.53Q257.80 53.88 264.20 53.88L264.29 53.96L267.59 53.91L267.52 53.84Q271.90 53.93 273.72 54.15L273.79 54.22L273.85 54.29Q282.14 55.08 282.65 59.73L282.65 59.74L282.60 59.69Q282.80 60.83 282.65 62.36L282.58 62.29L282.62 62.33Q282.60 63.61 282.31 64.92L282.25 64.87L282.26 64.87Q279.11 80.35 264.64 93.44L264.61 93.42L264.68 93.49Q267.33 93.16 269.95 93.16L269.84 93.05L269.90 93.10Q276.18 93.20 281.64 94.73ZM280.55 54.94L280.41 54.81L280.47 54.87Q277.33 53.54 274.06 53.40L274.06 53.40L267.70 53.22L267.50 53.03Q259.08 52.61 254.86 54.72L254.83 54.69L254.91 54.77Q252.79 57.30 252.79 61.23L252.91 61.35L252.92 61.36Q252.99 62.74 253.58 68.12L253.54 68.08L253.57 68.11Q254.42 68.38 256.67 68.97L256.80 69.10L256.66 70.92L256.77 71.03Q256.65 71.86 256.80 72.87L256.84 72.92L256.78 72.85Q259.31 73.20 264.03 73.64L263.94 73.55L263.98 73.58Q263.81 72.76 263.81 72.10L263.83 72.12L263.82 72.11Q263.98 68.79 266.31 66.20L266.14 66.03L266.24 66.13Q268.60 63.58 272.02 63.80L272.02 63.80L272.02 63.80Q273.49 63.89 274.94 64.18L274.81 64.05L274.94 64.17Q275.07 64.81 275.21 65.61L275.31 65.71L275.31 65.71Q275.28 66.41 275.14 67.07L275.10 67.03L275.16 67.09Q272.68 76.10 264.24 85.34L264.34 85.44L264.39 85.48Q260.18 89.64 249.78 101.21L249.85 101.28L249.95 101.38Q249.59 102.98 248.93 104.07L248.91 104.04L248.75 103.89Q251.84 102.25 254.75 101.23L254.74 101.22L254.85 101.33Q253.45 102.40 251.63 105.24L251.66 105.27L251.62 105.23Q251.46 105.95 251.25 106.60L251.08 106.43L251.15 106.51Q260.42 102.54 270.89 102.90L270.97 102.97L270.98 102.99Q281.68 103.14 290.41 107.65L290.46 107.70L288.54 103.60L288.62 103.68Q287.42 101.17 286.91 99.64L286.87 99.60L286.94 99.67Q285.59 98.90 283.26 98.10L283.18 98.02L283.12 97.96Q282.90 96.64 282.17 94.03L282.05 93.91L282.18 94.04Q277.90 92.89 273.54 92.52L273.47 92.46L273.58 92.57Q282.60 83.91 285.51 68.12L285.36 67.98L285.70 62.43L285.86 62.58Q285.63 59.08 283.30 57.77L283.28 57.75L283.31 57.85L283.17 57.71Q283.24 57.71 283.09 57.71L283.09 57.71L283.07 57.68Q282.67 56.12 280.56 54.95Z"/><path d="M3 138 C161 102,175 129,324 25" stroke="#6de943" fill="none"/><path d="M11 12 C166 7,158 97,336 123" stroke="#e141e1" fill="none"/></svg>