<svg xmlns="http://www.w3.org/2000/svg" width="342" height="140" viewBox="0,0,342,140"><path fill="#50d7b5" d="M199.17 76.45L199.28 76.57L199.18 76.47Q196.26 76.27 194.29 78.53L194.46 78.70L194.30 78.55Q192.51 80.98 192.20 84.01L192.14 83.94L192.05 83.86Q191.78 87.22 193.51 88.76L193.46 88.71L193.50 88.76Q195.14 90.22 198.47 90.03L198.61 90.17L198.59 90.15Q201.90 89.89 203.65 88.80L203.54 88.69L203.66 88.81Q205.52 87.10 205.52 84.62L205.40 84.50L205.33 84.43Q205.34 83.84 205.22 83.23L205.22 83.23L205.35 83.36Q205.52 80.74 203.76 78.60L203.58 78.42L203.57 78.41Q201.87 76.32 199.21 76.50ZM198.54 94.16L198.68 94.29L198.61 94.23Q191.60 94.17 189.36 92.96L189.40 93.00L189.43 93.04Q187.83 91.86 187.53 89.13L187.38 88.98L187.50 89.11Q187.31 87.89 187.37 86.74L187.48 86.85L187.41 86.77Q187.61 85.22 187.61 84.50L187.61 84.50L187.71 84.60Q188.35 79.97 188.59 78.88L188.61 78.90L188.50 78.80Q189.25 75.73 190.58 73.49L190.63 73.54L190.63 73.54Q194.95 66.67 204.39 56.56L204.37 56.54L204.38 56.55Q208.67 56.12 212.18 54.85L212.01 54.69L212.04 54.72Q201.19 66.61 196.10 73.33L196.01 73.23L196.14 73.36Q197.68 72.55 199.74 72.55L199.70 72.50L199.78 72.58Q204.90 72.44 207.32 75.53L207.37 75.58L207.43 75.64Q209.61 78.31 210.16 83.93L210.00 83.77L210.08 83.85Q210.30 85.10 210.30 86.07L210.25 86.02L210.28 86.05Q210.23 90.96 206.72 92.66L206.77 92.70L206.77 92.71Q204.74 93.58 198.57 94.18ZM202.13 97.93L202.27 98.07L202.25 98.05Q204.34 98.02 207.49 98.14L207.48 98.13L207.44 98.10Q210.00 98.18 212.48 97.03L212.50 97.05L212.42 96.97Q214.23 95.75 214.23 92.90L214.21 92.89L214.27 92.95Q214.30 92.19 214.03 90.62L213.92 90.51L214.06 90.65Q213.77 89.06 213.77 88.33L213.64 88.20L213.61 88.18Q212.25 80.70 209.71 77.68L209.83 77.79L209.73 77.70Q209.72 77.63 209.48 77.26L209.35 77.14L208.90 76.80L208.83 76.79L208.73 76.70Q208.32 76.05 207.35 74.53L207.22 74.40L207.26 74.44Q205.87 72.99 202.72 72.26L202.78 72.32L202.74 72.28Q204.58 69.64 209.29 63.77L209.30 63.77L216.01 55.36L216.02 55.37Q213.61 56.83 209.80 58.04L209.77 58.02L209.84 58.09Q211.18 56.39 214.02 53.25L214.00 53.23L214.02 53.25Q210.20 54.94 204.03 55.84L204.02 55.83L204.04 55.85Q195.01 65.28 190.29 73.14L190.25 73.10L190.39 73.24Q187.87 77.13 186.96 87.05L186.89 86.98L186.96 87.05Q186.93 88.06 187.06 89.57L187.00 89.51L187.02 89.53Q187.03 92.21 188.79 93.66L188.91 93.78L188.89 93.76Q189.52 94.03 189.46 94.09L189.35 93.98L189.47 94.10Q190.00 95.47 191.27 96.14L191.35 96.22L191.24 96.12Q193.54 97.20 196.63 97.51L196.55 97.43L196.72 97.60Q196.66 97.54 202.22 98.02ZM201.90 80.22L201.76 80.08L201.93 80.24Q202.77 79.99 204.28 80.78L204.19 80.69L204.34 80.84Q204.77 82.24 204.77 83.27L204.88 83.37L204.80 83.30Q205.21 86.37 203.70 87.94L203.64 87.89L203.52 87.76Q201.98 89.07 198.65 89.55L198.52 89.42L198.64 89.54Q196.20 89.39 195.35 88.97L195.37 88.99L195.44 89.06Q195.11 88.31 195.11 87.82L195.20 87.91L195.24 87.95Q194.87 82.74 199.53 80.69L199.53 80.69L199.46 80.62Q200.67 80.07 201.88 80.19Z"/><path d="M18 42 C181 13,159 118,340 136" stroke="#9143df" fill="none"/><path d="M20 8 C154 93,168 57,323 45" stroke="#5de8e8" fill="none"/><path d="M11 120 C173 95,185 106,323 135" stroke="#b6e137" fill="none"/><path d="M8 72 C180 42,176 23,322 58" stroke="#f0d688" fill="none"/><path fill="#a35fe7" d="M127.17 94.45L127.11 94.39L127.22 94.49Q120.61 94.72 119.03 91.03L119.14 91.13L119.18 91.17Q120.32 89.60 122.80 86.75L122.73 86.68L122.83 86.78Q123.54 89.91 128.32 90.09L128.41 90.18L128.47 90.24Q133.75 90.25 136.35 88.14L136.38 88.17L136.30 88.09Q138.54 85.55 138.42 81.26L138.57 81.41L138.39 81.23Q138.16 73.19 130.54 73.56L130.62 73.63L130.62 73.63Q126.12 73.86 123.34 75.85L123.41 75.93L122.90 75.66L122.45 75.33L122.42 75.30Q123.06 70.37 122.88 66.02L122.80 65.94L122.90 66.03Q122.68 61.82 122.13 56.56L122.17 56.60L122.14 56.56Q127.90 58.03 133.95 57.84L134.04 57.93L133.98 57.87Q140.11 57.83 145.79 55.83L145.76 55.80L144.83 58.19L144.89 58.26Q144.34 59.40 144.04 60.74L143.95 60.64L143.96 60.66Q139.11 62.40 132.93 62.40L132.91 62.38L132.82 62.28Q130.64 62.40 128.28 62.16L128.21 62.09L128.17 62.05Q128.12 63.21 127.57 70.28L127.62 70.33L127.53 70.24Q129.02 69.68 132.29 69.43L132.15 69.30L132.22 69.37Q138.13 69.71 140.43 72.37L140.35 72.29L140.38 72.33Q142.64 74.83 143.06 80.94L142.93 80.80L142.93 80.80Q143.50 87.60 141.56 90.81L141.47 90.72L141.46 90.70Q138.37 93.85 133.11 94.21L132.98 94.09L133.09 94.19Q131.34 94.14 127.10 94.38ZM136.85 98.14L136.87 98.15L136.78 98.06Q142.28 98.24 145.30 96.48L145.19 96.37L145.26 96.45Q146.82 94.01 146.82 90.69L146.84 90.71L146.91 90.77Q146.89 85.85 145.38 79.32L145.31 79.24L145.37 79.31Q144.64 76.40 142.71 74.16L142.73 74.19L142.79 74.31L142.55 73.95L142.02 73.66L142.02 73.66Q141.40 72.38 140.37 71.29L140.45 71.36L140.41 71.39L140.35 71.33Q137.99 68.73 132.13 68.73L132.17 68.77L131.80 68.83L131.77 68.80Q131.74 67.74 132.04 65.98L132.15 66.09L132.10 66.04Q140.10 66.29 146.51 63.69L146.51 63.69L146.51 63.70Q147.15 61.43 148.67 56.95L148.74 57.02L145.23 58.36L145.32 58.45Q145.97 56.68 146.76 54.87L146.63 54.74L146.75 54.85Q140.53 57.04 133.99 57.16L134.09 57.26L134.05 57.22Q127.56 57.44 121.26 55.69L121.14 55.57L121.28 55.70Q122.24 62.60 122.24 69.61L122.36 69.73L122.28 69.65Q122.29 72.69 122.11 75.71L122.13 75.73L122.09 75.69Q122.62 76.10 123.53 76.58L123.53 76.59L123.42 76.48Q123.95 76.10 124.98 75.56L125.11 75.69L125.03 75.61Q124.99 76.84 124.63 79.26L124.61 79.24L124.66 79.29Q125.38 79.65 126.04 80.01L125.98 79.95L125.89 79.86Q130.31 77.07 133.27 77.07L133.42 77.22L133.40 77.20Q135.36 77.04 137.24 78.07L137.41 78.25L137.29 78.12Q137.94 79.87 138.00 81.38L137.87 81.25L137.91 81.29Q138.07 85.44 136.44 87.19L136.35 87.10L136.40 87.16Q134.17 89.04 130.60 89.40L130.69 89.49L130.63 89.44Q129.23 89.67 128.14 89.55L128.01 89.42L128.14 89.55Q126.83 89.39 125.62 88.84L125.62 88.85L125.44 88.36L125.32 88.60L125.22 88.51Q124.12 87.89 123.27 85.77L123.24 85.74L123.19 85.69Q120.96 87.81 118.30 91.20L118.45 91.35L118.35 91.25Q118.81 92.26 120.14 93.77L120.24 93.87L120.11 93.74Q121.81 96.65 126.29 97.44L126.38 97.52L126.32 97.46Q128.24 97.88 136.77 98.06Z"/><path d="M2 38 C173 34,156 138,338 45" stroke="#b7eb84" fill="none"/><path d="M14 119 C159 53,152 81,332 94" stroke="#8ceca4" fill="none"/><path fill="#3f3fe8" d="M69.37 73.37L69.48 73.48L69.49 73.49Q70.72 73.44 72.95 73.20L73.06 73.30L72.95 73.19Q72.97 74.30 72.97 75.33L72.93 75.29L72.95 77.31L72.97 77.33Q71.54 77.24 70.21 77.36L70.15 77.29L70.31 77.45Q68.88 77.42 67.55 77.36L67.52 77.32L67.51 77.32Q62.95 87.10 57.51 94.42L57.59 94.50L57.69 94.60Q53.70 95.63 51.64 96.60L51.44 96.40L51.46 96.41Q58.01 87.35 62.85 77.37L62.87 77.39L58.72 77.42L58.80 77.50Q58.70 75.28 58.52 73.16L58.53 73.17L58.53 73.17Q61.64 73.51 64.91 73.51L64.95 73.54L67.82 67.53L67.86 67.56Q69.53 64.64 71.47 62.10L71.34 61.96L71.47 62.10Q68.84 62.19 66.30 62.19L66.41 62.30L66.42 62.31Q56.78 62.35 50.79 58.84L50.78 58.83L49.65 56.01L49.65 56.01Q49.16 54.73 48.56 53.34L48.50 53.29L48.43 53.21Q55.46 57.52 64.53 57.88L64.46 57.81L64.48 57.83Q72.57 58.12 80.74 54.97L80.83 55.06L80.89 55.12Q80.44 55.64 79.65 57.03L79.82 57.19L79.71 57.09Q73.91 64.59 69.37 73.37ZM82.18 59.19L82.31 59.32L83.81 56.04L83.83 56.06Q82.35 56.88 79.69 58.03L79.70 58.05L79.94 57.50L79.99 57.55Q80.15 57.28 80.33 57.10L80.39 57.16L80.42 57.19Q80.85 55.93 82.00 53.81L82.05 53.86L82.20 54.01Q73.57 57.47 64.43 57.11L64.54 57.23L64.59 57.27Q54.94 56.76 47.38 52.04L47.37 52.03L47.32 51.98Q49.04 55.03 50.37 59.27L50.34 59.24L50.43 59.33Q52.05 60.22 53.32 60.70L53.33 60.71L53.36 60.75Q53.68 61.37 54.40 64.33L54.39 64.32L54.25 64.18Q59.33 66.23 68.11 65.99L68.09 65.97L68.10 65.98Q67.57 66.85 64.43 72.84L64.45 72.87L64.56 72.98Q61.26 72.94 58.11 72.64L58.03 72.55L58.15 72.67Q58.12 73.85 58.12 75.25L58.13 75.25L58.25 78.10L60.86 78.04L60.91 80.34L60.90 80.32Q54.72 92.11 50.30 97.80L50.16 97.66L50.20 97.69Q52.77 96.51 55.37 95.73L55.27 95.62L55.28 95.64Q54.20 97.10 52.02 99.83L51.99 99.79L52.06 99.86Q57.05 98.07 60.92 97.71L60.91 97.70L60.97 97.76Q65.73 91.87 70.69 81.10L70.56 80.97L76.03 81.30L76.12 81.39Q75.91 79.84 75.91 78.39L75.89 78.38L75.90 75.54L75.98 75.62Q75.45 75.51 74.57 75.57L74.62 75.63L74.65 75.65Q73.76 75.70 73.34 75.70L73.31 75.68L73.42 75.79Q73.30 75.48 73.36 75.24L73.33 75.21L73.48 74.94L73.41 74.86Q77.40 66.70 82.30 59.31Z"/><path d="M8 108 C163 128,162 98,333 122" stroke="#e2738f" fill="none"/><path d="M2 28 C167 79,175 128,326 98" stroke="#65e13b" fill="none"/><path d="M12 73 C162 109,179 83,321 17" stroke="#86e886" fill="none"/><path d="M12 5 C154 14,151 102,324 100" stroke="#84eab7" fill="none"/><path d="M20 23 C170 35,164 13,341 100" stroke="#ecec7d" fill="none"/><path d="M16 44 C151 111,183 51,335 101" stroke="#e961e9" fill="none"/><path d="M14 116 C178 74,164 17,334 137" stroke="#e791a7" fill="none"/><path d="M17 46 C164 125,180 85,334 130" stroke="#6aa3dc" fill="none"/><path d="M6 58 C161 46,176 52,330 26" stroke="#5555e1" fill="none"/><path d="M7 94 C178 62,166 94,321 65" stroke="#83e1ca" fill="none"/><path d="M11 62 C178 13,190 17,323 69" stroke="#9eea84" fill="none"/><path d="M2 99 C177 137,160 117,329 21" stroke="#7ad65b" fill="none"/><path d="M9 77 C190 132,178 54,336 42" stroke="#8eeaea" fill="none"/><path d="M18 27 C152 128,168 51,327 53" stroke="#ade871" fill="none"/><path d="M4 121 C189 70,191 122,339 84" stroke="#7f7fe5" fill="none"/><path d="M3 4 C173 118,153 22,335 25" stroke="#82dd64" fill="none"/><path d="M5 49 C176 108,167 41,334 12" stroke="#e665e6" fill="none"/><path d="M3 113 C165 57,151 63,325 26" stroke="#6ce4a8" fill="none"/><path d="M6 26 C181 23,168 47,337 17" stroke="#b2eb79" fill="none"/><path d="M10 44 C158 127,180 106,332 65" stroke="#e05679" fill="none"/><path d="M11 131 C190 121,175 113,323 75" stroke="#4ed971" fill="none"/><path fill="#e8ad71" d="M279.92 90.48L279.87 90.42L280.05 90.60Q280.49 92.14 281.34 95.34L281.35 95.36L281.34 95.34Q274.53 93.14 267.21 93.56L267.26 93.60L267.33 93.67Q259.94 93.97 253.59 97.12L253.55 97.08L253.63 97.16Q253.95 96.03 254.01 96.15L254.05 96.19L254.11 96.25Q259.97 89.89 266.21 82.87L266.24 82.90L266.17 82.84Q273.32 75.04 275.20 67.60L275.12 67.52L275.21 67.61Q275.86 64.75 273.83 62.87L273.75 62.80L273.83 62.88Q271.72 60.92 268.87 61.16L268.85 61.13L269.02 61.31Q268.31 61.07 267.76 61.07L267.79 61.11L267.83 61.15Q265.50 61.23 263.50 62.68L263.46 62.64L263.44 62.62Q261.36 64.78 261.73 69.01L261.69 68.98L261.66 68.95Q258.96 68.55 257.03 67.82L257.00 67.80L256.93 67.73Q256.65 65.51 256.53 63.21L256.54 63.22L256.45 63.13Q256.49 60.69 257.46 58.88L257.44 58.86L257.37 58.79Q260.20 56.59 265.52 56.59L265.65 56.72L268.25 56.54L268.41 56.69Q271.88 56.60 273.40 56.79L273.40 56.79L273.49 56.87Q280.31 57.47 280.73 61.34L280.78 61.39L280.72 61.32Q280.97 62.37 280.85 63.64L280.71 63.50L280.87 63.65Q280.84 64.71 280.60 65.80L280.60 65.80L280.46 65.66Q277.86 78.55 265.82 89.45L265.79 89.42L265.91 89.53Q268.13 89.27 270.30 89.27L270.28 89.24L270.25 89.21Q275.33 89.15 279.87 90.42ZM279.10 57.46L279.04 57.40L279.01 57.38Q276.56 56.43 273.83 56.31L273.86 56.34L268.43 56.06L268.38 56.00Q261.33 55.61 257.82 57.36L257.75 57.30L257.84 57.39Q256.09 59.50 256.09 62.77L256.05 62.73L255.96 62.65Q256.02 63.79 256.51 68.27L256.65 68.41L256.67 68.43Q257.35 68.64 259.23 69.12L259.29 69.18L259.42 70.95L259.34 70.87Q259.28 71.59 259.40 72.44L259.47 72.51L259.32 72.36Q261.39 72.61 265.33 72.98L265.27 72.92L265.28 72.93Q265.17 72.28 265.17 71.73L265.27 71.83L265.32 71.88Q265.19 68.85 267.13 66.70L267.19 66.77L267.18 66.75Q269.23 64.71 272.07 64.90L271.97 64.80L271.96 64.78Q273.25 64.92 274.46 65.17L274.44 65.15L274.45 65.16Q274.57 65.70 274.69 66.37L274.76 66.43L274.67 66.35Q274.83 67.11 274.71 67.66L274.69 67.64L274.59 67.53Q272.61 75.12 265.60 82.81L265.66 82.87L265.56 82.77Q262.31 86.48 253.66 96.10L253.65 96.09L253.64 96.08Q253.19 97.27 252.65 98.18L252.64 98.16L252.68 98.20Q255.21 96.80 257.63 95.95L257.72 96.04L257.70 96.03Q256.48 96.87 254.97 99.23L255.00 99.25L255.01 99.26Q254.85 99.83 254.67 100.37L254.63 100.34L254.69 100.40Q262.51 97.20 271.22 97.51L271.20 97.49L271.11 97.39Q280.20 97.71 287.46 101.46L287.34 101.34L285.86 98.05L285.87 98.06Q284.76 95.86 284.34 94.59L284.34 94.59L284.29 94.54Q283.23 93.96 281.29 93.30L281.26 93.27L281.36 93.37Q281.08 92.18 280.48 90.00L280.36 89.89L280.38 89.91Q277.00 89.12 273.37 88.82L273.30 88.75L273.36 88.82Q280.73 81.48 283.15 68.35L283.11 68.31L283.38 63.68L283.41 63.71Q283.32 60.90 281.38 59.81L281.51 59.93L281.35 59.83L281.44 59.93Q281.28 59.71 281.16 59.71L281.11 59.66L281.07 59.62Q280.83 58.41 279.07 57.44Z"/><path d="M11 18 C171 25,182 67,322 85" stroke="#e665a5" fill="none"/><path d="M17 57 C178 15,160 82,338 69" stroke="#bae98a" fill="none"/><path d="M15 50 C177 28,178 118,328 33" stroke="#e7a35f" fill="none"/><path d="M14 49 C183 139,164 87,331 117" stroke="#5198e0" fill="none"/><path d="M19 116 C173 38,164 108,333 5" stroke="#4fd8b6" fill="none"/><path d="M4 86 C183 98,157 138,325 48" stroke="#5ae19e" fill="none"/><path d="M19 84 C157 34,154 13,323 52" stroke="#9855dc" fill="none"/><path d="M5 115 C188 83,183 37,330 44" stroke="#8be96c" fill="none"/><path d="M20 96 C150 61,174 111,322 106" stroke="#e038b6" fill="none"/><path d="M18 129 C186 90,155 56,327 8" stroke="#a360e6" fill="none"/><path d="M10 53 C182 85,155 36,325 24" stroke="#5ee8a3" fill="none"/><path d="M6 3 C183 108,165 26,329 31" stroke="#eea38a" fill="none"/><path d="M10 24 C151 85,179 33,330 41" stroke="#d3d345" fill="none"/></svg>