<svg xmlns="http://www.w3.org/2000/svg" width="342" height="140" viewBox="0,0,342,140"><path d="M10 40 C168 127,175 138,322 26" stroke="#80dfaf" fill="none"/><path fill="#e68ea4" d="M69.40 73.38L69.50 73.47L69.48 73.46Q70.65 73.37 72.87 73.13L72.92 73.18L72.90 73.17Q72.78 74.12 72.78 75.14L72.77 75.12L72.90 77.24L72.75 77.08Q71.57 77.21 70.25 77.33L70.26 77.35L70.28 77.37Q68.88 77.34 67.56 77.28L67.51 77.23L67.51 77.22Q63.09 86.99 57.71 94.23L57.79 94.30L57.67 94.19Q53.81 95.29 51.77 96.25L51.69 96.16L51.66 96.14Q58.27 87.31 63.05 77.44L62.92 77.30L58.91 77.42L58.81 77.33Q58.81 75.23 58.63 73.13L58.64 73.15L58.74 73.24Q61.72 73.47 64.95 73.47L64.90 73.42L67.86 67.58L67.82 67.55Q69.52 64.70 71.43 62.19L71.36 62.11L71.41 62.16Q68.91 62.35 66.39 62.35L66.42 62.38L66.43 62.38Q56.87 62.40 50.95 58.93L50.84 58.82L49.91 56.22L49.83 56.14Q49.39 54.92 48.79 53.54L48.70 53.45L48.80 53.55Q55.62 57.68 64.60 58.04L64.59 58.04L64.53 57.98Q72.53 58.25 80.60 55.14L80.66 55.20L80.61 55.15Q80.31 55.81 79.54 57.19L79.67 57.33L79.59 57.24Q73.85 64.66 69.36 73.34ZM82.20 59.49L82.19 59.49L83.67 56.24L83.61 56.17Q82.28 57.12 79.64 58.25L79.46 58.07L79.80 57.63L79.82 57.65Q79.95 57.36 80.13 57.19L80.18 57.24L80.19 57.24Q80.84 56.22 81.98 54.13L81.89 54.04L81.99 54.14Q73.59 57.70 64.55 57.34L64.48 57.27L64.56 57.35Q55.12 56.94 47.64 52.28L47.69 52.32L47.64 52.27Q49.17 55.12 50.49 59.31L50.62 59.44L50.47 59.29Q52.21 60.31 53.47 60.79L53.52 60.85L53.51 60.84Q53.77 61.39 54.49 64.32L54.46 64.30L54.55 64.39Q59.42 66.26 68.09 66.02L68.13 66.07L68.15 66.08Q67.68 66.99 64.57 72.91L64.58 72.92L64.47 72.81Q61.22 72.79 58.11 72.49L58.21 72.59L58.11 72.49Q58.35 73.93 58.35 75.31L58.23 75.18L58.25 77.90L61.01 78.02L60.99 80.21L60.89 80.12Q54.84 91.83 50.47 97.46L50.44 97.43L50.49 97.48Q52.86 96.14 55.43 95.36L55.50 95.43L55.58 95.51Q54.51 96.95 52.35 99.64L52.30 99.59L52.23 99.52Q57.27 97.85 61.10 97.50L61.07 97.46L60.97 97.37Q65.59 91.46 70.50 80.81L70.50 80.81L75.96 81.19L75.94 81.17Q75.83 79.74 75.83 78.30L75.80 78.28L75.78 75.45L75.85 75.52Q75.43 75.52 74.57 75.58L74.65 75.66L74.54 75.55Q73.61 75.55 73.19 75.55L73.19 75.55L73.28 75.64Q73.20 75.38 73.26 75.14L73.37 75.25L73.33 74.79L73.36 74.82Q77.18 66.62 82.03 59.32Z"/><path d="M10 6 C152 105,167 108,336 62" stroke="#e79340" fill="none"/><path d="M3 10 C170 120,165 23,338 4" stroke="#3ddbdb" fill="none"/><path d="M2 53 C156 41,181 62,323 55" stroke="#91e63b" fill="none"/><path d="M1 30 C163 59,151 65,321 37" stroke="#a36cda" fill="none"/><path fill="#dede71" d="M262.29 94.14L262.25 94.11L262.23 94.09Q260.06 94.25 257.60 93.59L257.50 93.49L257.62 93.61Q255.61 92.08 255.37 89.51L255.49 89.62L255.34 89.48Q255.37 89.26 255.67 85.14L255.71 85.17L255.64 85.11Q257.37 84.93 260.55 84.33L260.51 84.29L260.24 85.52L260.25 85.53Q259.83 88.28 262.04 89.18L261.88 89.01L261.86 88.99Q263.29 89.70 266.58 89.70L266.49 89.61L266.55 89.68Q268.99 89.37 269.29 89.25L269.26 89.21L269.24 89.20Q270.67 88.95 271.80 88.17L271.80 88.17L271.86 88.22Q274.09 86.74 273.79 83.45L273.73 83.40L273.72 83.38Q273.51 79.65 270.79 77.19L270.71 77.12L270.81 77.21Q268.05 74.72 264.16 74.72L264.12 74.68L264.11 74.31L264.13 74.33Q264.84 74.39 266.22 74.27L266.20 74.25L266.10 74.15Q269.03 73.91 271.19 71.97L271.23 72.01L271.18 71.97Q273.52 70.20 273.76 67.27L273.59 67.10L273.60 67.12Q273.71 66.57 273.71 66.03L273.76 66.07L273.76 66.07Q273.74 63.67 271.59 62.23L271.56 62.21L271.67 62.32Q269.69 60.99 267.18 61.17L267.20 61.19L267.27 61.26Q265.23 61.01 263.31 61.67L263.30 61.66L263.23 61.59Q261.04 62.51 260.57 64.31L260.52 64.26L260.60 64.34Q260.22 65.46 260.34 66.66L260.26 66.57L260.43 66.75Q258.65 66.22 255.42 65.08L255.59 65.25L255.57 65.23Q255.19 62.59 255.25 61.27L255.27 61.29L255.11 61.13Q255.34 58.79 257.02 57.71L257.05 57.74L257.10 57.79Q259.32 56.84 261.84 56.84L261.80 56.81L261.81 56.81Q266.83 56.81 271.79 57.23L271.78 57.21L271.73 57.16Q279.59 57.73 279.11 63.65L279.24 63.78L279.26 63.80Q279.03 66.03 278.26 68.48L278.36 68.58L278.28 68.50Q276.91 73.42 273.20 74.85L273.23 74.88L273.07 74.72Q277.19 75.55 278.15 80.82L278.32 80.98L278.13 80.80Q278.63 82.73 278.75 85.90L278.68 85.83L278.64 85.79Q278.95 92.87 271.72 93.59L271.70 93.57L271.77 93.64Q270.60 93.73 262.29 94.15ZM270.48 97.67L270.45 97.64L270.45 97.65Q271.50 97.79 275.98 97.91L275.92 97.85L275.96 97.89Q278.66 97.95 281.23 96.94L281.24 96.95L281.12 96.82Q283.07 95.43 282.77 92.68L282.86 92.77L282.73 92.64Q282.60 90.59 282.12 87.84L282.02 87.74L282.16 87.88Q280.99 80.78 277.94 78.21L277.89 78.16L277.55 77.52L277.48 77.40L277.54 77.45Q280.41 75.30 281.60 68.42L281.58 68.39L281.59 68.40Q281.56 67.59 281.74 66.10L281.83 66.19L281.73 66.09Q281.88 64.93 281.76 63.85L281.67 63.76L281.70 63.79Q281.50 61.19 279.46 60.11L279.43 60.08L279.35 60.12L279.32 60.09Q278.80 58.49 277.00 57.65L277.10 57.75L277.14 57.79Q274.71 56.67 266.63 56.19L266.58 56.14L266.61 56.17Q263.92 55.99 261.40 55.99L261.43 56.02L261.56 56.15Q259.03 56.13 256.63 57.15L256.47 56.99L256.47 56.98Q254.63 58.26 254.63 61.01L254.58 60.96L254.58 60.96Q254.56 60.27 254.97 65.54L255.02 65.58L255.15 65.71Q255.46 65.66 258.03 66.62L258.12 66.71L258.19 66.77Q258.11 67.53 258.05 68.31L258.04 68.31L257.98 68.24Q258.02 69.06 258.08 69.90L258.03 69.85L258.22 70.04Q260.96 70.57 264.13 70.74L264.15 70.77L264.18 70.79Q264.01 67.57 265.74 66.25L265.79 66.30L265.82 66.33Q267.03 65.21 270.20 64.85L270.16 64.81L270.24 64.89Q272.04 64.89 272.93 65.19L272.90 65.15L272.87 65.13Q272.88 65.26 272.94 65.43L272.97 65.46L273.08 65.88L273.19 66.70L273.26 66.77Q273.11 66.92 273.05 67.16L273.11 67.23L273.05 67.16Q273.00 69.92 270.60 71.78L270.60 71.77L270.58 71.75Q269.26 73.30 266.09 73.60L266.01 73.52L266.06 73.57Q264.87 73.76 263.49 73.76L263.48 73.74L263.42 73.68Q263.55 74.29 263.79 75.37L263.72 75.30L263.72 75.30Q266.54 75.37 268.82 76.51L268.74 76.43L268.75 76.62L266.22 76.85L266.11 76.73Q266.35 77.45 266.53 78.41L266.47 78.35L266.40 78.28Q269.86 78.27 272.55 80.36L272.43 80.24L272.47 80.29Q272.78 80.83 273.26 83.40L273.32 83.46L273.27 83.41Q273.65 88.10 269.04 88.76L269.03 88.75L268.98 88.70Q265.72 89.15 264.82 89.09L264.81 89.07L264.79 89.05Q264.17 88.97 263.34 88.85L263.27 88.79L263.33 88.14L263.52 87.42L263.45 86.69L263.59 86.30L263.61 86.32Q262.12 86.44 260.86 86.74L260.81 86.68L260.79 86.66Q260.77 86.35 260.77 86.05L260.78 86.05L260.76 86.04Q260.74 85.66 260.74 85.30L260.89 85.45L260.88 85.44Q260.95 84.79 261.19 83.65L261.02 83.49L261.11 83.57Q258.17 83.92 255.23 84.46L255.33 84.56L255.17 84.40Q255.28 85.29 255.10 87.05L255.13 87.08L255.01 86.96Q254.85 88.74 254.85 89.70L254.90 89.75L254.82 89.67Q255.04 93.00 257.20 94.20L257.24 94.24L257.20 94.20Q259.42 97.68 266.84 97.38L266.82 97.36L266.92 97.47Q268.08 97.43 270.47 97.66Z"/><path d="M14 70 C164 10,177 29,332 4" stroke="#e6cc7e" fill="none"/><path d="M20 38 C164 106,155 70,327 135" stroke="#69cbec" fill="none"/><path fill="#df7a7a" d="M127.19 94.09L127.19 94.10L127.22 94.12Q120.85 94.51 119.30 90.86L119.25 90.81L119.33 90.90Q120.52 89.39 122.97 86.58L122.86 86.47L123.02 86.63Q123.69 89.70 128.42 89.88L128.47 89.93L128.55 90.01Q133.82 90.08 136.39 87.98L136.32 87.90L136.41 87.99Q138.62 85.49 138.50 81.24L138.39 81.12L138.36 81.10Q138.31 73.32 130.77 73.68L130.77 73.68L130.59 73.51Q126.23 73.81 123.48 75.79L123.53 75.84L123.05 75.59L122.70 75.37L122.61 75.28Q123.29 70.45 123.11 66.14L123.04 66.07L122.99 66.02Q122.76 61.84 122.22 56.64L122.33 56.75L122.36 56.78Q128.14 58.31 134.12 58.13L134.02 58.02L134.01 58.02Q139.95 57.86 145.57 55.88L145.71 56.02L144.69 58.29L144.69 58.29Q144.26 59.54 143.96 60.85L144.04 60.93L143.87 60.76Q139.01 62.42 132.91 62.42L132.99 62.50L133.01 62.52Q130.61 62.40 128.28 62.16L128.33 62.21L128.40 62.28Q128.26 63.34 127.72 70.34L127.62 70.24L127.75 70.37Q128.90 69.48 132.13 69.25L132.15 69.26L132.31 69.42Q138.19 69.79 140.46 72.43L140.32 72.28L140.44 72.40Q142.57 74.77 142.99 80.82L142.87 80.70L142.90 80.73Q143.30 87.29 141.38 90.46L141.40 90.48L141.51 90.58Q138.23 93.47 133.03 93.83L133.03 93.83L133.03 93.83Q131.46 93.93 127.27 94.17ZM136.78 97.76L136.81 97.79L136.82 97.80Q142.21 97.92 145.20 96.19L145.23 96.22L145.24 96.23Q146.71 93.75 146.71 90.46L146.64 90.39L146.80 90.55Q146.72 85.63 145.23 79.17L145.27 79.21L145.30 79.24Q144.61 76.40 142.70 74.18L142.63 74.12L142.73 74.28L142.37 73.79L141.81 73.48L141.88 73.55Q141.35 72.36 140.34 71.29L140.36 71.31L140.35 71.35L140.40 71.41Q137.93 68.70 132.13 68.70L132.13 68.70L131.71 68.71L131.81 68.80Q131.80 67.78 132.10 66.04L132.15 66.09L132.22 66.16Q140.11 66.39 146.45 63.82L146.32 63.69L146.35 63.72Q146.97 61.46 148.46 57.04L148.59 57.16L145.24 58.60L145.19 58.55Q145.75 56.72 146.53 54.92L146.68 55.07L146.64 55.04Q140.52 57.23 134.06 57.35L134.00 57.29L134.03 57.32Q127.56 57.50 121.34 55.76L121.44 55.86L121.34 55.76Q122.41 62.69 122.41 69.63L122.40 69.62L122.53 69.75Q122.57 72.79 122.39 75.78L122.24 75.62L122.27 75.65Q122.67 75.93 123.57 76.41L123.69 76.54L123.62 76.46Q124.23 76.18 125.25 75.64L125.13 75.52L125.11 75.50Q125.19 76.84 124.83 79.23L124.67 79.07L124.71 79.11Q125.41 79.45 126.07 79.81L126.11 79.85L126.10 79.85Q130.50 77.12 133.43 77.12L133.31 77.00L133.38 77.07Q135.55 77.15 137.40 78.16L137.23 77.99L137.22 77.98Q137.81 79.65 137.87 81.15L137.84 81.11L137.94 81.22Q138.00 85.22 136.39 86.96L136.45 87.02L136.46 87.04Q134.21 88.85 130.68 89.21L130.75 89.28L130.68 89.21Q129.27 89.42 128.20 89.30L128.16 89.26L128.11 89.21Q126.87 89.10 125.67 88.56L125.74 88.64L125.61 88.21L125.36 88.31L125.41 88.36Q124.09 87.52 123.25 85.43L123.40 85.57L123.24 85.41Q121.28 87.76 118.65 91.11L118.66 91.13L118.60 91.07Q119.14 92.14 120.46 93.64L120.35 93.54L120.41 93.60Q121.99 96.37 126.41 97.14L126.53 97.26L126.48 97.21Q128.41 97.65 136.85 97.83Z"/><path d="M18 61 C184 84,163 111,338 8" stroke="#98e698" fill="none"/><path d="M11 3 C154 124,154 135,341 48" stroke="#7a7adf" fill="none"/><path d="M3 106 C189 76,183 136,333 48" stroke="#88e868" fill="none"/><path d="M5 102 C162 119,158 127,327 102" stroke="#6e4add" fill="none"/><path fill="#805fe1" d="M199.48 76.63L199.45 76.61L199.42 76.58Q196.43 76.52 194.51 78.61L194.57 78.66L194.66 78.75Q192.60 80.70 192.36 83.69L192.34 83.67L192.42 83.75Q192.21 87.19 194.12 88.78L194.04 88.69L194.00 88.65Q196.05 90.37 199.40 90.25L199.29 90.15L199.24 90.10Q203.00 89.97 204.50 88.48L204.43 88.41L204.36 88.34Q206.12 86.21 205.94 83.34L205.89 83.29L205.84 83.24Q205.66 80.31 203.96 78.42L204.04 78.50L204.05 78.52Q202.31 76.60 199.44 76.60ZM199.40 61.78L199.27 61.65L199.35 61.74Q197.13 61.54 195.03 62.32L195.06 62.34L195.05 62.33Q192.97 63.55 193.33 66.48L193.43 66.58L193.42 66.57Q194.17 72.40 199.43 72.40L199.46 72.43L199.43 72.40Q201.85 72.66 203.40 70.87L203.34 70.81L203.51 70.98Q204.97 69.08 205.03 66.63L205.06 66.67L205.01 66.61Q205.22 63.95 204.09 63.00L203.99 62.90L204.00 62.91Q201.46 61.68 199.42 61.80ZM198.94 94.04L198.94 94.04L194.14 94.03L194.17 94.06Q191.71 93.99 189.62 92.62L189.57 92.57L189.75 92.75Q187.49 90.85 187.73 86.36L187.79 86.43L187.66 86.29Q188.54 75.69 194.22 74.13L194.11 74.02L194.22 74.13Q190.64 72.71 188.55 64.27L188.50 64.22L188.56 64.28Q187.92 61.96 188.04 60.71L188.08 60.75L187.97 60.64Q188.55 57.39 194.35 57.33L194.34 57.32L194.28 57.25Q200.93 57.15 203.20 57.45L203.35 57.60L203.22 57.47Q209.34 58.38 210.06 61.55L210.08 61.57L209.93 61.43Q210.09 62.36 210.09 62.96L210.29 63.16L210.29 63.16Q210.16 64.10 209.86 65.06L209.90 65.10L209.85 65.05Q209.04 71.83 204.43 74.23L204.39 74.19L204.24 74.04Q209.90 75.45 210.67 83.76L210.53 83.62L210.67 83.76Q210.61 83.94 210.67 85.98L210.58 85.88L210.72 86.02Q210.83 90.32 208.31 91.99L208.21 91.89L208.20 91.88Q206.04 93.25 198.86 93.96ZM202.47 97.64L202.62 97.79L207.73 97.75L207.73 97.75Q210.48 97.93 212.88 96.79L212.88 96.80L212.86 96.78Q214.73 95.71 214.84 92.78L214.77 92.70L214.82 92.75Q214.87 91.01 214.27 87.96L214.20 87.88L214.34 88.03Q212.88 80.70 209.59 77.77L209.62 77.81L209.15 77.03L209.02 76.79L208.64 76.22L208.71 76.29Q211.19 74.05 212.63 67.53L212.70 67.60L212.65 67.56Q212.62 66.92 212.74 65.61L212.90 65.77L212.91 65.78Q212.94 64.61 212.82 63.66L212.79 63.62L212.89 63.72Q212.65 61.45 210.79 60.67L210.78 60.66L210.83 60.65L210.53 60.47L210.54 60.47Q210.14 59.36 208.28 58.10L208.15 57.97L208.33 58.09L208.37 58.13Q205.21 57.01 198.81 56.71L198.81 56.70L198.75 56.64Q196.30 56.47 194.14 56.65L194.11 56.61L194.11 56.61Q192.87 56.69 190.84 56.93L190.77 56.86L190.86 56.95Q187.81 57.55 187.45 60.12L187.43 60.10L187.43 60.10Q187.49 60.99 187.55 62.25L187.46 62.17L187.49 62.19Q187.61 62.97 188.51 66.68L188.48 66.65L188.45 66.62Q189.86 71.86 192.61 73.96L192.45 73.80L192.61 73.95L192.70 74.04Q188.38 76.13 187.55 84.26L187.54 84.26L187.40 84.12Q187.15 87.64 187.15 89.08L187.06 88.99L187.16 89.09Q187.19 91.81 189.05 93.25L189.06 93.26L189.17 93.37Q189.29 93.43 189.71 93.73L189.77 93.79L189.69 93.71Q191.32 97.31 202.50 97.67ZM202.06 80.35L201.91 80.21L202.01 80.30Q203.47 80.21 204.85 80.93L204.87 80.95L204.75 80.83Q205.46 82.50 205.40 83.34L205.28 83.22L205.30 83.24Q205.44 83.79 205.44 84.27L205.33 84.16L205.40 84.23Q205.33 87.87 201.74 89.18L201.74 89.18L201.75 89.20Q200.58 89.76 199.33 89.58L199.39 89.65L199.32 89.58Q197.53 89.70 195.73 88.98L195.68 88.93L195.82 89.07Q195.34 87.99 195.46 86.44L195.43 86.40L195.41 86.39Q195.69 83.91 197.57 82.00L197.64 82.06L197.51 81.94Q199.41 80.03 201.92 80.21ZM202.27 65.31L202.31 65.34L202.34 65.38Q203.70 65.30 204.54 65.54L204.51 65.51L204.39 66.65L204.53 66.79Q204.47 68.95 203.04 70.53L203.09 70.58L203.04 70.53Q201.60 72.12 199.45 71.82L199.41 71.78L199.34 71.71Q197.84 71.77 197.19 71.41L197.22 71.44L197.31 71.53Q197.20 71.07 197.02 69.99L197.04 70.01L196.94 69.91Q196.57 67.74 198.48 66.43L198.46 66.40L198.56 66.51Q200.24 65.43 202.45 65.49Z"/><path d="M3 114 C164 104,169 45,335 17" stroke="#61df61" fill="none"/><path d="M19 89 C156 59,157 94,333 102" stroke="#6033e4" fill="none"/><path d="M20 17 C151 42,165 60,339 25" stroke="#ce79eb" fill="none"/><path d="M11 61 C172 136,157 87,334 40" stroke="#aded6c" fill="none"/><path d="M9 5 C184 18,157 17,329 31" stroke="#e88bba" fill="none"/><path d="M5 33 C164 15,188 49,331 76" stroke="#58e9c4" fill="none"/><path d="M7 6 C188 12,173 80,328 104" stroke="#e164e1" fill="none"/><path d="M5 55 C189 130,175 44,330 98" stroke="#4a98e7" fill="none"/><path d="M8 41 C165 95,179 95,324 6" stroke="#6ced6c" fill="none"/><path d="M4 23 C158 82,168 98,330 103" stroke="#ba4ede" fill="none"/><path d="M19 82 C166 80,179 107,334 55" stroke="#8deba5" fill="none"/><path d="M6 60 C178 17,177 62,322 47" stroke="#84e59c" fill="none"/><path d="M13 14 C154 97,159 5,334 9" stroke="#f083d5" fill="none"/><path d="M5 24 C172 107,173 96,338 86" stroke="#73dd73" fill="none"/><path d="M20 128 C172 119,184 42,330 122" stroke="#af7ae5" fill="none"/><path d="M2 99 C186 24,173 86,321 16" stroke="#5454d8" fill="none"/><path d="M16 58 C161 138,178 137,339 21" stroke="#6283e3" fill="none"/><path d="M18 4 C162 106,162 38,331 98" stroke="#dfdf80" fill="none"/><path d="M3 50 C166 53,176 59,333 95" stroke="#8669dd" fill="none"/><path d="M7 27 C163 113,163 49,326 43" stroke="#cd73ec" fill="none"/><path d="M6 98 C179 21,169 22,336 64" stroke="#e5b932" fill="none"/><path d="M7 74 C156 93,186 22,321 75" stroke="#56d676" fill="none"/><path d="M18 135 C163 85,176 65,334 96" stroke="#e4b280" fill="none"/><path d="M2 7 C191 89,172 60,339 43" stroke="#6ce245" fill="none"/><path d="M3 20 C157 126,152 131,334 99" stroke="#ec9173" fill="none"/><path d="M3 52 C159 59,186 10,331 56" stroke="#ca6aea" fill="none"/><path d="M9 101 C171 43,154 51,339 41" stroke="#9e84ea" fill="none"/><path d="M5 36 C152 118,158 107,336 36" stroke="#b27be9" fill="none"/><path d="M20 32 C170 13,161 71,323 10" stroke="#77eded" fill="none"/></svg>