<svg xmlns="http://www.w3.org/2000/svg" width="342" height="140" viewBox="0,0,342,140"><path d="M9 41 C166 124,177 88,333 43" stroke="#a68ef0" fill="none"/><path d="M16 10 C188 44,169 122,325 67" stroke="#9980e4" fill="none"/><path fill="#d0ee76" d="M107.83 77.68L107.70 77.55L107.79 77.65Q104.32 77.35 102.02 80.00L102.07 80.05L102.08 80.06Q99.86 82.79 99.51 86.33L99.45 86.27L99.50 86.32Q98.94 90.00 100.96 91.81L101.07 91.92L100.99 91.84Q103.12 93.76 107.01 93.55L106.86 93.39L106.91 93.45Q110.76 93.13 112.81 91.86L112.78 91.82L112.97 92.01Q114.92 89.79 114.92 86.89L115.07 87.04L115.06 87.04Q115.09 86.36 114.95 85.65L114.79 85.49L114.78 85.48Q114.95 82.40 112.90 79.89L112.85 79.84L112.87 79.86Q110.90 77.43 107.79 77.64ZM106.97 98.25L106.92 98.20L107.09 98.37Q98.78 98.18 96.16 96.77L96.35 96.95L96.18 96.79Q94.44 95.54 94.09 92.36L93.94 92.21L93.98 92.25Q94.02 91.09 94.09 89.75L94.07 89.73L94.02 89.68Q94.23 87.83 94.23 86.99L94.17 86.93L94.22 86.98Q95.12 81.73 95.40 80.46L95.39 80.44L95.35 80.40Q96.19 76.79 97.74 74.17L97.74 74.17L97.66 74.09Q102.70 66.05 113.73 54.24L113.76 54.27L113.80 54.31Q118.63 53.62 122.73 52.14L122.82 52.23L122.81 52.22Q109.98 65.97 104.04 73.82L104.13 73.91L104.04 73.83Q105.89 72.92 108.30 72.92L108.28 72.91L108.43 73.05Q114.50 72.97 117.33 76.57L117.25 76.49L117.41 76.66Q119.88 79.69 120.52 86.27L120.52 86.27L120.42 86.18Q120.51 87.46 120.51 88.59L120.66 88.75L120.64 88.72Q120.61 94.49 116.51 96.47L116.47 96.44L116.39 96.35Q114.32 97.67 107.11 98.38ZM111.28 102.77L111.17 102.66L111.31 102.79Q113.63 102.64 117.30 102.78L117.33 102.80L117.24 102.71Q120.31 102.89 123.21 101.54L123.33 101.67L123.26 101.59Q125.29 100.09 125.29 96.77L125.41 96.89L125.25 96.73Q125.32 95.88 125.01 94.05L124.96 94.00L125.10 94.14Q124.63 92.15 124.63 91.31L124.73 91.40L124.70 91.37Q123.12 82.65 120.15 79.11L120.10 79.06L120.14 79.11Q119.84 78.74 119.56 78.31L119.63 78.38L119.04 77.93L119.03 77.99L118.94 77.91Q118.27 76.95 117.14 75.18L117.20 75.24L117.17 75.22Q115.52 73.49 111.84 72.64L111.76 72.56L111.85 72.65Q113.99 69.56 119.51 62.71L119.55 62.74L127.42 52.94L127.51 53.03Q124.46 54.51 120.01 55.93L120.06 55.97L120.04 55.95Q121.72 54.11 125.05 50.43L125.20 50.58L125.18 50.57Q120.62 52.44 113.41 53.50L113.51 53.60L113.52 53.60Q102.79 64.44 97.28 73.63L97.36 73.72L97.24 73.59Q94.41 78.26 93.35 89.86L93.36 89.87L93.35 89.86Q93.25 90.95 93.39 92.72L93.42 92.76L93.44 92.77Q93.52 95.97 95.57 97.66L95.60 97.69L95.64 97.73Q96.42 98.09 96.35 98.16L96.23 98.04L96.21 98.02Q96.92 99.71 98.40 100.49L98.39 100.48L98.47 100.56Q101.14 101.82 104.75 102.17L104.80 102.23L104.82 102.24Q104.79 102.22 111.30 102.78ZM110.89 81.94L110.91 81.96L110.73 81.78Q111.86 81.65 113.63 82.56L113.74 82.68L113.69 82.62Q114.32 84.38 114.32 85.59L114.37 85.63L114.24 85.51Q114.62 88.99 112.85 90.83L112.85 90.83L112.92 90.90Q110.81 92.12 106.92 92.68L107.01 92.77L107.09 92.85Q104.31 92.76 103.32 92.26L103.24 92.19L103.39 92.33Q102.91 91.35 102.91 90.79L102.93 90.81L102.98 90.86Q102.56 84.79 108.01 82.39L108.04 82.42L108.05 82.42Q109.42 81.75 110.84 81.89Z"/><path d="M17 3 C175 20,172 55,322 125" stroke="#6cdb46" fill="none"/><path d="M4 40 C163 73,188 120,341 46" stroke="#c7e769" fill="none"/><path d="M3 22 C159 88,153 108,340 76" stroke="#c274dc" fill="none"/><path d="M17 97 C178 1,155 120,331 106" stroke="#36bbe7" fill="none"/><path d="M15 6 C188 85,156 35,336 130" stroke="#6eeccc" fill="none"/><path d="M5 58 C150 124,162 68,330 81" stroke="#4bd7b4" fill="none"/><path d="M10 135 C166 28,190 14,334 60" stroke="#ec8d6e" fill="none"/><path d="M5 65 C178 133,184 2,328 122" stroke="#8eefef" fill="none"/><path d="M3 2 C175 129,192 93,337 118" stroke="#8ea5eb" fill="none"/><path d="M3 103 C154 101,182 4,332 12" stroke="#e8cd7c" fill="none"/><path d="M16 70 C159 129,154 76,325 126" stroke="#849deb" fill="none"/><path d="M18 137 C160 47,192 84,325 133" stroke="#79d859" fill="none"/><path d="M9 54 C152 110,184 6,336 60" stroke="#de44b7" fill="none"/><path fill="#bc8eeb" d="M179.38 94.05L179.26 93.93L179.23 93.90Q179.83 95.77 180.82 99.52L180.78 99.48L180.94 99.64Q173.08 97.16 164.53 97.65L164.39 97.51L164.55 97.67Q155.91 98.01 148.49 101.69L148.54 101.74L148.60 101.80Q148.93 100.44 149.00 100.58L148.99 100.57L149.00 100.57Q155.95 93.24 163.23 85.04L163.16 84.97L163.23 85.04Q171.49 75.84 173.68 67.14L173.70 67.16L173.73 67.19Q174.50 63.86 172.13 61.66L172.12 61.66L172.04 61.57Q169.82 59.53 166.49 59.81L166.38 59.70L166.35 59.67Q165.87 59.76 165.24 59.76L165.12 59.64L165.12 59.64Q162.27 59.62 159.94 61.32L160.03 61.41L159.91 61.29Q157.50 63.83 157.93 68.78L158.06 68.92L157.94 68.79Q154.76 68.29 152.49 67.45L152.48 67.43L152.38 67.33Q152.02 64.71 151.88 62.03L151.88 62.03L151.90 62.05Q151.82 59.07 152.95 56.95L152.86 56.85L152.97 56.97Q156.16 54.29 162.39 54.29L162.41 54.32L165.66 54.31L165.67 54.32Q170.01 54.49 171.78 54.70L171.76 54.69L171.82 54.74Q179.75 55.39 180.24 59.91L180.35 60.02L180.30 59.97Q180.47 61.06 180.33 62.55L180.34 62.56L180.35 62.57Q180.25 63.74 179.97 65.02L179.87 64.92L179.90 64.94Q176.85 80.00 162.78 92.72L162.82 92.76L162.87 92.81Q165.42 92.47 167.97 92.47L168.04 92.54L167.98 92.47Q173.94 92.43 179.25 93.92ZM178.16 55.22L178.14 55.20L178.22 55.27Q175.30 54.13 172.12 53.99L172.07 53.93L165.66 53.54L165.77 53.65Q157.48 53.13 153.38 55.18L153.33 55.13L153.31 55.11Q151.29 57.62 151.29 61.43L151.40 61.55L151.46 61.60Q151.48 62.90 152.05 68.13L151.96 68.04L151.91 68.00Q153.02 68.54 155.21 69.11L155.14 69.03L155.26 71.06L155.10 70.90Q155.19 71.91 155.33 72.90L155.29 72.86L155.21 72.77Q157.50 72.95 162.10 73.38L162.23 73.50L162.21 73.48Q162.08 72.72 162.08 72.08L162.12 72.12L162.14 72.14Q162.03 68.64 164.29 66.13L164.40 66.24L164.33 66.16Q166.59 63.66 169.92 63.87L170.04 63.99L169.98 63.94Q171.42 64.04 172.84 64.32L172.72 64.21L172.88 64.36Q172.92 64.90 173.06 65.68L173.20 65.81L173.14 65.75Q173.30 66.62 173.16 67.26L173.02 67.12L173.06 67.15Q170.77 76.04 162.57 85.02L162.59 85.03L162.58 85.03Q158.62 89.20 148.51 100.44L148.55 100.48L148.48 100.41Q148.03 101.86 147.39 102.92L147.57 103.10L147.39 102.93Q150.46 101.40 153.29 100.41L153.20 100.32L153.20 100.32Q152.03 101.56 150.27 104.32L150.17 104.23L150.09 104.14Q150.02 104.92 149.81 105.56L149.72 105.47L149.76 105.50Q158.76 101.64 168.94 101.99L168.96 102.02L169.07 102.12Q179.51 102.31 188.00 106.70L188.01 106.71L186.08 102.66L186.10 102.68Q185.00 100.31 184.51 98.82L184.39 98.71L184.48 98.80Q183.02 97.90 180.76 97.12L180.85 97.22L180.81 97.18Q180.60 95.91 179.89 93.36L179.88 93.35L179.81 93.28Q175.67 92.18 171.43 91.83L171.55 91.95L171.43 91.82Q180.16 83.38 182.99 68.04L183.08 68.13L183.44 62.76L183.46 62.78Q183.16 59.30 180.90 58.03L181.06 58.19L180.97 58.17L180.91 58.11Q180.80 57.92 180.66 57.92L180.72 57.99L180.68 57.95Q180.35 56.49 178.30 55.36Z"/><path d="M18 77 C189 100,176 129,336 19" stroke="#dc5599" fill="none"/><path d="M4 8 C188 83,182 120,327 82" stroke="#89e56a" fill="none"/><path d="M14 92 C159 112,177 14,323 74" stroke="#ecec5f" fill="none"/><path d="M14 114 C169 103,191 45,323 57" stroke="#e49175" fill="none"/><path d="M14 43 C179 76,160 94,335 10" stroke="#47ea70" fill="none"/><path d="M8 96 C190 64,180 30,324 3" stroke="#eb7eb5" fill="none"/><path fill="#e67e7e" d="M221.24 77.76L221.26 77.78L221.25 77.77Q217.81 77.79 215.55 80.27L215.47 80.19L215.47 80.19Q213.17 82.63 212.89 86.16L212.98 86.25L213.06 86.34Q212.60 90.19 214.86 92.06L214.98 92.18L214.87 92.07Q217.09 93.90 221.04 93.75L221.08 93.79L221.04 93.75Q225.49 93.60 227.25 91.83L227.11 91.69L227.28 91.86Q229.06 89.04 228.85 85.65L228.96 85.76L228.85 85.65Q228.72 82.27 226.71 80.05L226.73 80.07L226.69 80.03Q224.58 77.70 221.18 77.70ZM221.26 60.32L221.17 60.23L221.18 60.23Q218.48 59.94 216.01 60.86L216.17 61.02L216.14 60.99Q213.75 62.49 214.17 65.95L214.03 65.81L214.05 65.83Q215.13 72.92 221.35 72.92L221.27 72.84L221.20 72.77Q224.24 73.26 226.08 71.14L226.07 71.13L225.94 71.01Q227.87 68.98 227.94 66.08L227.98 66.11L227.82 65.95Q227.95 62.69 226.61 61.56L226.62 61.57L226.60 61.56Q223.65 60.16 221.25 60.30ZM220.76 98.49L220.61 98.33L215.05 98.43L215.01 98.40Q212.17 98.38 209.70 96.76L209.75 96.81L209.75 96.81Q207.22 94.70 207.50 89.40L207.38 89.28L207.49 89.39Q208.27 76.60 214.99 74.76L215.06 74.83L215.12 74.89Q210.86 73.18 208.39 63.21L208.33 63.15L208.38 63.21Q207.60 60.44 207.74 58.96L207.92 59.14L207.76 58.98Q208.44 55.13 215.30 55.06L215.19 54.95L215.17 54.93Q223.05 54.83 225.74 55.18L225.71 55.15L225.74 55.18Q232.98 56.27 233.83 60.02L233.77 59.96L233.83 60.02Q234.00 61.11 234.00 61.82L234.08 61.89L233.95 61.76Q234.07 63.16 233.72 64.29L233.62 64.19L233.55 64.13Q232.41 71.96 226.96 74.78L227.03 74.85L226.97 74.79Q233.63 76.43 234.55 86.26L234.45 86.16L234.51 86.22Q234.46 86.45 234.53 88.86L234.52 88.85L234.54 88.87Q234.77 94.04 231.80 96.02L231.63 95.86L231.63 95.86Q229.20 97.60 220.72 98.45ZM224.87 102.67L224.98 102.77L231.12 102.84L231.14 102.86Q234.29 102.97 237.12 101.63L237.17 101.68L237.20 101.71Q239.36 100.40 239.50 96.94L239.42 96.86L239.45 96.88Q239.59 94.90 238.88 91.30L238.88 91.30L238.83 91.25Q237.12 82.61 233.23 79.14L233.29 79.20L232.77 78.33L232.57 77.99L232.18 77.39L232.21 77.42Q235.23 74.85 236.92 67.14L237.00 67.22L236.99 67.21Q236.95 66.46 237.09 64.90L237.14 64.95L237.11 64.93Q237.18 63.58 237.04 62.45L237.04 62.46L237.15 62.56Q236.91 59.91 234.71 58.99L234.62 58.90L234.74 58.95L234.38 58.73L234.27 58.62Q233.80 57.30 231.61 55.82L231.75 55.95L231.65 55.78L231.65 55.79Q227.99 54.54 220.43 54.18L220.57 54.32L220.58 54.33Q217.62 54.06 215.07 54.27L214.96 54.16L215.04 54.24Q213.63 54.39 211.23 54.67L211.15 54.59L211.16 54.60Q207.46 55.21 207.04 58.25L207.05 58.27L207.15 58.37Q207.00 59.20 207.07 60.69L207.11 60.73L207.14 60.76Q207.28 61.68 208.34 66.06L208.41 66.13L208.43 66.15Q209.92 72.16 213.17 74.64L213.15 74.61L213.19 74.66L213.18 74.65Q208.12 77.15 207.13 86.77L207.11 86.75L207.10 86.73Q206.72 90.82 206.72 92.51L206.75 92.53L206.68 92.47Q206.98 95.95 209.17 97.65L209.17 97.65L209.18 97.65Q209.24 97.65 209.74 98.00L209.86 98.13L209.75 98.02Q211.75 102.34 224.97 102.77ZM224.28 82.14L224.33 82.19L224.39 82.25Q226.06 82.09 227.69 82.93L227.63 82.88L227.61 82.85Q228.41 84.79 228.34 85.78L228.18 85.62L228.21 85.65Q228.30 86.24 228.30 86.80L228.36 86.86L228.31 86.81Q228.29 91.17 224.05 92.73L224.05 92.73L224.17 92.84Q222.67 93.40 221.19 93.19L221.13 93.13L221.12 93.13Q219.10 93.37 216.98 92.52L216.92 92.46L216.94 92.48Q216.50 91.33 216.65 89.50L216.60 89.45L216.67 89.52Q216.82 86.42 219.05 84.16L219.16 84.27L219.03 84.14Q221.40 82.02 224.37 82.23ZM224.64 64.47L224.80 64.63L224.81 64.65Q226.18 64.32 227.17 64.60L227.12 64.54L227.14 66.05L227.24 66.15Q227.17 68.70 225.47 70.57L225.58 70.68L225.45 70.56Q223.88 72.55 221.34 72.20L221.35 72.21L221.31 72.17Q219.45 72.15 218.67 71.73L218.71 71.77L218.64 71.69Q218.59 71.22 218.38 69.95L218.30 69.87L218.44 70.01Q217.94 67.39 220.21 65.84L220.05 65.68L220.07 65.70Q222.02 64.39 224.63 64.46Z"/><path fill="#d85ed8" d="M277.79 77.65L277.79 77.64L277.70 77.55Q274.46 77.49 272.16 80.14L272.07 80.05L272.11 80.09Q269.87 82.80 269.51 86.33L269.43 86.25L269.40 86.22Q268.94 90.00 270.95 91.80L270.98 91.83L271.04 91.89Q273.10 93.74 276.99 93.53L277.00 93.53L277.00 93.54Q280.82 93.18 282.87 91.91L282.90 91.94L282.95 92.00Q284.92 89.79 284.92 86.89L284.99 86.96L285.06 87.03Q285.06 86.33 284.92 85.62L284.94 85.64L284.93 85.63Q284.98 82.43 282.93 79.92L283.04 80.03L282.99 79.98Q280.88 77.41 277.77 77.62ZM276.99 98.26L277.01 98.29L277.09 98.36Q268.83 98.24 266.22 96.83L266.35 96.95L266.32 96.93Q264.32 95.42 263.96 92.24L264.04 92.32L263.94 92.21Q263.95 91.02 264.02 89.68L264.00 89.66L264.09 89.75Q264.30 87.91 264.30 87.06L264.26 87.02L264.18 86.93Q265.03 81.64 265.31 80.36L265.26 80.31L265.42 80.47Q266.19 76.79 267.75 74.18L267.77 74.20L267.74 74.17Q272.70 66.04 283.73 54.24L283.74 54.25L283.82 54.33Q288.72 53.71 292.82 52.23L292.84 52.25L292.68 52.10Q280.01 66.01 274.07 73.85L274.21 73.99L274.07 73.85Q276.04 73.06 278.44 73.06L278.45 73.07L278.36 72.98Q284.59 73.06 287.41 76.66L287.38 76.63L287.35 76.60Q289.80 79.61 290.44 86.19L290.49 86.24L290.41 86.16Q290.51 87.46 290.51 88.59L290.55 88.63L290.60 88.68Q290.50 94.38 286.40 96.36L286.53 96.50L286.57 96.53Q284.29 97.65 277.08 98.35ZM281.21 102.69L281.30 102.79L281.17 102.65Q283.60 102.61 287.27 102.75L287.30 102.77L287.32 102.80Q290.45 103.03 293.35 101.69L293.24 101.58L293.25 101.58Q295.24 100.04 295.24 96.72L295.35 96.83L295.28 96.76Q295.26 95.82 294.94 93.98L294.95 93.98L294.95 93.99Q294.75 92.27 294.75 91.42L294.61 91.28L294.78 91.45Q292.99 82.52 290.03 78.99L290.02 78.99L290.09 79.06Q289.88 78.78 289.60 78.35L289.67 78.42L289.19 78.08L289.00 77.96L288.93 77.90Q288.31 76.99 287.18 75.22L287.14 75.18L287.10 75.15Q285.55 73.53 281.88 72.68L281.87 72.67L281.91 72.72Q284.17 69.74 289.68 62.88L289.67 62.87L297.39 52.92L297.53 53.06Q294.46 54.51 290.01 55.92L290.18 56.10L290.10 56.02Q291.75 54.13 295.07 50.45L295.03 50.41L295.15 50.53Q290.56 52.37 283.34 53.43L283.48 53.56L283.51 53.60Q272.93 64.58 267.41 73.77L267.26 73.61L267.27 73.62Q264.43 78.28 263.37 89.88L263.47 89.98L263.51 90.01Q263.23 90.93 263.37 92.70L263.40 92.74L263.47 92.81Q263.49 95.93 265.54 97.63L265.65 97.75L265.53 97.62Q266.27 97.94 266.20 98.01L266.29 98.10L266.34 98.15Q267.04 99.83 268.52 100.61L268.40 100.50L268.51 100.60Q271.10 101.78 274.70 102.13L274.73 102.15L274.67 102.10Q274.73 102.15 281.23 102.72ZM280.92 81.98L280.87 81.92L280.92 81.97Q281.98 81.76 283.74 82.68L283.70 82.63L283.59 82.52Q284.25 84.32 284.25 85.52L284.31 85.58L284.33 85.59Q284.67 89.05 282.90 90.89L282.97 90.95L282.85 90.83Q280.88 92.18 276.99 92.75L277.07 92.83L277.09 92.85Q274.26 92.70 273.27 92.21L273.24 92.18L273.38 92.32Q272.99 91.44 272.99 90.87L272.88 90.76L272.98 90.86Q272.53 84.76 277.97 82.35L278.03 82.41L277.93 82.30Q279.46 81.79 280.87 81.93Z"/><path d="M19 114 C174 40,185 104,326 95" stroke="#b4d74b" fill="none"/><path d="M17 35 C160 79,169 14,334 110" stroke="#dd5f9e" fill="none"/><path d="M11 68 C174 17,187 97,324 94" stroke="#f088f0" fill="none"/><path d="M16 19 C165 129,157 45,335 129" stroke="#4141dc" fill="none"/><path d="M3 109 C189 64,190 71,321 111" stroke="#e8358e" fill="none"/><path d="M4 96 C191 13,175 41,331 127" stroke="#62e4c3" fill="none"/><path fill="#8a8ae4" d="M58.34 74.00L58.40 74.07L58.27 73.93Q59.87 74.05 62.49 73.77L62.49 73.77L62.41 73.69Q62.43 74.98 62.43 76.18L62.33 76.09L62.38 78.47L62.40 78.49Q60.92 78.57 59.36 78.71L59.31 78.65L59.27 78.61Q57.75 78.72 56.19 78.65L56.11 78.56L56.27 78.72Q50.85 90.06 44.49 98.61L44.56 98.69L44.42 98.55Q39.92 99.92 37.52 101.05L37.41 100.94L37.52 101.05Q44.97 90.26 50.63 78.60L50.63 78.60L45.77 78.62L45.93 78.77Q45.82 76.19 45.61 73.72L45.57 73.68L45.60 73.70Q49.20 74.05 53.01 74.05L53.04 74.08L56.62 67.27L56.48 67.13Q58.46 63.73 60.72 60.76L60.53 60.57L60.70 60.75Q57.64 60.87 54.67 60.87L54.72 60.92L54.77 60.96Q43.49 60.99 36.49 56.89L36.50 56.91L35.22 53.64L35.26 53.68Q34.55 52.06 33.84 50.43L33.88 50.47L33.84 50.42Q41.98 55.38 52.58 55.81L52.48 55.70L52.64 55.86Q62.04 56.15 71.59 52.47L71.75 52.63L71.59 52.47Q71.31 53.32 70.39 54.95L70.42 54.98L70.29 54.85Q63.71 63.82 58.41 74.07ZM73.42 57.56L73.33 57.47L75.11 53.66L75.29 53.83Q73.38 54.62 70.27 55.96L70.29 55.98L70.58 55.35L70.70 55.47Q70.90 55.17 71.11 54.96L71.14 54.99L71.04 54.89Q71.73 53.60 73.07 51.12L73.22 51.27L73.06 51.12Q63.17 55.36 52.49 54.94L52.54 54.99L52.54 54.99Q41.47 54.59 32.63 49.07L32.47 48.92L32.62 49.06Q34.41 52.41 35.96 57.36L35.94 57.34L35.93 57.32Q38.04 58.58 39.52 59.15L39.60 59.23L39.46 59.08Q39.93 59.91 40.78 63.37L40.70 63.30L40.66 63.26Q46.51 65.57 56.76 65.29L56.74 65.26L56.84 65.37Q56.33 66.48 52.65 73.48L52.53 73.36L52.65 73.48Q48.85 73.49 45.17 73.14L45.12 73.09L44.98 72.95Q45.30 74.68 45.30 76.30L45.20 76.21L45.25 79.44L48.36 79.44L48.27 81.96L48.38 82.07Q41.09 95.79 35.93 102.43L35.89 102.39L35.81 102.31Q38.86 100.98 41.90 100.06L41.81 99.97L41.98 100.14Q40.52 101.65 37.98 104.83L38.13 104.98L38.16 105.01Q43.91 102.84 48.43 102.42L48.37 102.36L48.43 102.42Q54.01 95.55 59.80 82.97L59.62 82.78L66.00 83.15L66.16 83.31Q65.98 81.58 65.98 79.88L65.98 79.88L65.99 76.56L66.00 76.58Q65.41 76.48 64.38 76.55L64.38 76.55L64.38 76.55Q63.41 76.68 62.92 76.68L62.98 76.74L62.85 76.61Q62.93 76.47 63.00 76.19L62.89 76.08L62.99 75.69L62.95 75.64Q67.70 66.18 73.42 57.56Z"/><path d="M5 69 C165 128,176 30,325 44" stroke="#da3eda" fill="none"/><path d="M3 72 C157 54,152 115,324 117" stroke="#92bfeb" fill="none"/><path d="M18 109 C190 37,183 4,337 116" stroke="#badb56" fill="none"/><path d="M17 55 C182 88,172 61,330 59" stroke="#62e4e4" fill="none"/><path d="M8 113 C191 99,181 116,323 109" stroke="#6986dd" fill="none"/><path d="M7 127 C158 65,189 118,321 102" stroke="#876bdb" fill="none"/><path d="M16 58 C190 74,176 9,321 21" stroke="#d750d7" fill="none"/><path d="M11 39 C190 20,154 18,336 106" stroke="#49d46c" fill="none"/><path d="M11 22 C187 107,178 87,332 92" stroke="#8debeb" fill="none"/><path d="M18 83 C158 138,159 107,336 28" stroke="#dfdf80" fill="none"/><path d="M9 24 C164 91,187 117,326 116" stroke="#6e46e5" fill="none"/><path d="M6 66 C157 80,191 39,340 119" stroke="#e1cb88" fill="none"/><path d="M6 90 C154 42,152 114,337 31" stroke="#e494a8" fill="none"/></svg>