<svg xmlns="http://www.w3.org/2000/svg" width="342" height="140" viewBox="0,0,342,140"><path fill="#e5b27f" d="M108.18 77.02L108.31 77.15L108.23 77.07Q105.07 76.85 102.95 79.29L103.04 79.38L102.99 79.33Q100.79 81.70 100.46 84.96L100.47 84.97L100.41 84.91Q100.17 88.58 102.03 90.25L101.98 90.20L101.89 90.11Q103.81 91.83 107.40 91.64L107.45 91.69L107.45 91.69Q110.96 91.35 112.85 90.17L112.84 90.16L112.86 90.18Q114.84 88.32 114.84 85.64L114.87 85.67L114.84 85.64Q114.82 84.97 114.69 84.31L114.66 84.28L114.78 84.40Q114.84 81.46 112.95 79.14L112.99 79.19L112.91 79.11Q111.15 76.92 108.28 77.12ZM107.52 96.13L107.59 96.20L107.55 96.16Q99.89 96.01 97.48 94.71L97.53 94.76L97.50 94.72Q95.74 93.42 95.41 90.49L95.56 90.63L95.46 90.54Q95.50 89.46 95.57 88.22L95.55 88.21L95.41 88.07Q95.65 86.41 95.65 85.63L95.60 85.58L95.62 85.61Q96.39 80.69 96.65 79.52L96.67 79.54L96.78 79.64Q97.58 76.34 99.01 73.92L98.97 73.88L98.88 73.78Q103.59 66.42 113.77 55.52L113.71 55.47L113.71 55.46Q118.32 54.98 122.10 53.61L122.09 53.60L122.00 53.50Q110.33 66.37 104.84 73.62L104.72 73.50L104.80 73.57Q106.56 72.79 108.78 72.79L108.70 72.71L108.66 72.67Q114.42 72.75 117.03 76.08L117.11 76.16L116.96 76.01Q119.33 78.90 119.92 84.97L119.85 84.90L119.84 84.90Q119.98 86.14 119.98 87.19L120.01 87.22L120.11 87.32Q120.04 92.60 116.25 94.42L116.24 94.41L116.22 94.39Q114.05 95.35 107.39 96.00ZM111.48 100.29L111.46 100.26L111.49 100.30Q113.57 100.10 116.97 100.23L117.00 100.26L117.01 100.27Q119.85 100.44 122.53 99.20L122.41 99.07L122.46 99.13Q124.33 97.74 124.33 94.67L124.30 94.64L124.49 94.83Q124.35 93.84 124.05 92.14L124.05 92.14L124.15 92.24Q123.89 90.58 123.89 89.80L123.79 89.69L123.89 89.79Q122.33 81.64 119.59 78.38L119.63 78.42L119.47 78.26Q119.51 78.23 119.25 77.84L119.14 77.74L118.71 77.44L118.55 77.33L118.61 77.40Q117.98 76.51 116.94 74.88L116.94 74.88L116.86 74.80Q115.42 73.30 112.03 72.51L111.86 72.35L111.98 72.47Q114.10 69.76 119.19 63.43L119.10 63.33L126.38 54.30L126.39 54.31Q123.74 55.84 119.63 57.14L119.51 57.02L119.59 57.10Q121.22 55.47 124.28 52.07L124.15 51.94L124.29 52.08Q120.06 53.79 113.40 54.77L113.46 54.82L113.46 54.82Q103.62 64.89 98.53 73.37L98.58 73.42L98.65 73.49Q95.90 77.66 94.92 88.36L94.87 88.31L94.90 88.34Q94.82 89.37 94.95 91.00L94.93 90.98L94.96 91.01Q95.09 94.01 96.98 95.58L97.00 95.59L96.97 95.57Q97.61 95.81 97.54 95.88L97.63 95.96L97.60 95.94Q98.28 97.53 99.65 98.25L99.53 98.13L99.56 98.16Q102.10 99.40 105.43 99.72L105.31 99.60L105.40 99.69Q105.38 99.67 111.39 100.20ZM110.97 80.92L111.01 80.96L111.00 80.95Q112.04 80.81 113.67 81.66L113.59 81.58L113.57 81.56Q114.24 83.27 114.24 84.38L114.14 84.29L114.29 84.43Q114.45 87.47 112.82 89.17L112.94 89.28L112.85 89.19Q110.99 90.40 107.40 90.93L107.41 90.93L107.56 91.08Q105.06 91.06 104.15 90.60L104.16 90.62L104.01 90.46Q103.75 89.76 103.75 89.23L103.84 89.32L103.71 89.19Q103.46 83.72 108.49 81.50L108.41 81.43L108.39 81.40Q109.77 80.89 111.08 81.02Z"/><path d="M7 26 C182 133,168 114,332 52" stroke="#5656d6" fill="none"/><path d="M2 3 C169 117,156 98,340 71" stroke="#6384e7" fill="none"/><path d="M3 42 C183 37,166 92,328 25" stroke="#82e7e7" fill="none"/><path d="M17 108 C152 59,152 113,323 84" stroke="#e263e2" fill="none"/><path d="M6 11 C170 19,167 120,339 35" stroke="#dede62" fill="none"/><path d="M17 40 C184 86,151 92,325 22" stroke="#934cdb" fill="none"/><path d="M9 50 C177 93,159 116,335 100" stroke="#bcde58" fill="none"/><path fill="#e4a894" d="M228.31 73.80L228.29 73.77L228.30 73.79Q229.61 73.73 232.03 73.47L231.93 73.37L231.95 73.39Q231.99 74.60 231.99 75.71L231.90 75.62L231.95 77.83L232.02 77.90Q230.59 77.90 229.15 78.03L229.12 78.00L229.04 77.92Q227.60 77.99 226.17 77.92L226.11 77.87L226.24 77.99Q221.35 88.57 215.48 96.47L215.43 96.42L215.46 96.45Q211.20 97.61 208.99 98.65L208.99 98.66L208.97 98.64Q215.95 88.78 221.17 78.01L221.19 78.03L216.71 78.06L216.67 78.02Q216.73 75.79 216.54 73.51L216.52 73.49L216.50 73.47Q219.69 73.66 223.21 73.66L223.32 73.77L226.55 67.41L226.63 67.48Q228.29 64.18 230.38 61.44L230.38 61.44L230.40 61.46Q227.72 61.72 224.98 61.72L224.91 61.65L224.97 61.71Q214.51 61.69 208.05 57.90L207.95 57.81L206.86 54.89L206.91 54.94Q206.39 53.58 205.74 52.08L205.62 51.96L205.75 52.09Q213.01 56.41 222.80 56.80L222.91 56.91L222.88 56.88Q231.77 57.35 240.58 53.96L240.52 53.90L240.56 53.94Q240.24 54.67 239.39 56.17L239.38 56.15L239.32 56.10Q233.13 64.26 228.23 73.72ZM242.13 58.51L242.04 58.42L243.73 54.96L243.85 55.08Q242.07 55.78 239.20 57.02L239.27 57.09L239.66 56.62L239.61 56.57Q239.70 56.21 239.90 56.02L239.90 56.02L239.97 56.08Q240.70 54.99 241.94 52.71L241.87 52.63L241.86 52.63Q232.76 56.58 222.91 56.19L222.83 56.11L222.83 56.11Q212.58 55.72 204.43 50.63L204.32 50.53L204.42 50.63Q206.14 53.78 207.58 58.35L207.64 58.41L207.57 58.34Q209.48 59.47 210.85 60.00L210.81 59.95L210.94 60.08Q211.09 60.55 211.87 63.75L211.94 63.82L211.88 63.76Q217.34 65.96 226.81 65.70L226.80 65.70L226.88 65.77Q226.22 66.61 222.82 73.08L222.95 73.20L222.93 73.19Q219.32 73.10 215.93 72.77L215.95 72.79L216.03 72.87Q216.13 74.28 216.13 75.78L216.19 75.84L216.18 78.77L218.97 78.68L219.07 81.19L218.96 81.09Q212.28 93.79 207.51 99.92L207.42 99.83L207.43 99.84Q210.15 98.51 212.95 97.66L213.02 97.73L213.02 97.73Q211.92 99.37 209.57 102.31L209.49 102.23L209.51 102.25Q214.90 100.32 219.07 99.93L219.17 100.03L219.04 99.90Q224.20 93.57 229.55 81.96L229.46 81.87L235.33 82.18L235.44 82.30Q235.21 80.64 235.21 79.07L235.13 78.98L235.30 76.08L235.28 76.07Q234.72 75.97 233.77 76.03L233.74 76.00L233.76 76.01Q232.88 76.14 232.42 76.14L232.32 76.05L232.44 76.17Q232.43 75.96 232.50 75.70L232.47 75.67L232.38 75.13L232.51 75.25Q236.70 66.33 241.98 58.37Z"/><path d="M4 132 C182 20,190 18,333 85" stroke="#42e5e5" fill="none"/><path d="M18 106 C184 114,192 10,321 59" stroke="#a3e95c" fill="none"/><path d="M18 70 C170 24,154 97,330 10" stroke="#e7e744" fill="none"/><path d="M7 85 C171 76,159 63,325 13" stroke="#e67ecc" fill="none"/><path d="M12 117 C192 19,191 46,322 88" stroke="#b2e77d" fill="none"/><path d="M6 112 C171 14,157 137,327 22" stroke="#8f74e1" fill="none"/><path d="M7 75 C167 60,190 107,337 62" stroke="#9ee655" fill="none"/><path d="M16 69 C188 72,189 118,325 27" stroke="#db7351" fill="none"/><path d="M9 38 C157 22,183 33,328 115" stroke="#6cc2de" fill="none"/><path d="M2 116 C167 36,189 7,325 6" stroke="#be3fe8" fill="none"/><path d="M6 101 C172 34,152 4,324 29" stroke="#63c2e2" fill="none"/><path d="M15 54 C160 56,161 136,327 97" stroke="#e980e9" fill="none"/><path d="M10 30 C172 14,158 129,334 42" stroke="#57b9da" fill="none"/><path d="M21 62 C156 2,168 34,340 15" stroke="#b7e335" fill="none"/><path d="M2 89 C186 94,162 26,336 25" stroke="#cded6c" fill="none"/><path d="M3 118 C161 124,158 135,321 2" stroke="#cd7ce8" fill="none"/><path fill="#e35377" d="M278.46 60.82L278.44 60.80L275.79 61.02L275.73 60.96Q271.96 61.24 271.57 64.70L271.51 64.64L271.50 64.62Q271.47 65.96 271.53 67.66L271.52 67.65L271.38 67.51Q271.50 70.89 273.65 73.18L273.75 73.27L273.72 73.24Q275.85 75.50 279.11 75.24L279.13 75.26L279.00 75.13Q282.53 74.87 283.83 73.31L283.88 73.35L283.96 73.43Q285.70 71.78 286.16 67.93L286.30 68.07L286.16 67.93Q286.75 64.21 284.60 62.78L284.52 62.70L284.53 62.71Q283.02 61.33 278.45 60.81ZM288.75 76.59L288.72 76.56L286.67 80.64L286.51 80.49Q281.88 88.71 275.42 95.70L275.46 95.74L275.55 95.83Q272.72 96.07 268.09 97.44L268.09 97.44L268.09 97.43Q277.28 86.73 282.70 78.50L282.56 78.36L282.66 78.46Q280.90 79.58 278.10 79.71L278.00 79.61L277.99 79.60Q272.93 79.95 270.31 76.56L270.33 76.57L270.25 76.49Q268.24 73.83 266.35 66.00L266.21 65.86L266.21 65.87Q266.31 65.18 266.05 63.58L266.07 63.60L266.04 63.58Q265.87 62.07 265.87 61.28L265.72 61.13L265.75 61.16Q265.75 58.09 267.58 57.05L267.54 57.01L267.58 57.05Q269.68 55.76 272.87 55.76L272.88 55.76L272.82 55.71Q278.42 55.82 278.42 55.82L278.36 55.76L278.27 55.67Q282.19 55.94 284.35 56.26L284.15 56.07L284.27 56.19Q287.83 56.55 289.39 57.39L289.42 57.42L289.45 57.45Q291.89 58.85 292.22 61.85L292.15 61.78L292.22 61.86Q292.21 62.23 291.88 66.80L291.86 66.78L291.84 66.76Q291.23 70.46 290.84 71.89L290.80 71.85L290.81 71.87Q290.05 74.18 288.75 76.59ZM292.14 80.83L291.98 80.67L292.07 80.76Q293.72 76.93 294.64 69.56L294.66 69.58L294.78 69.70Q295.14 65.81 295.07 64.31L295.09 64.33L295.13 64.37Q295.04 61.14 293.01 59.58L292.91 59.48L292.55 59.44L292.57 59.46Q292.08 58.12 290.51 57.01L290.44 56.95L290.51 57.01Q286.52 55.24 278.29 54.98L278.37 55.06L278.36 55.04Q276.61 54.93 272.44 54.93L272.46 54.95L272.44 54.93Q269.44 54.93 266.90 56.11L266.90 56.11L266.94 56.15Q264.98 57.52 265.11 60.66L265.18 60.72L265.09 60.63Q265.47 62.26 265.80 65.71L265.84 65.76L265.80 65.72Q266.76 70.13 267.22 71.57L267.33 71.69L267.26 71.61Q268.20 74.77 269.83 76.99L269.94 77.09L269.91 77.07Q270.32 77.61 270.97 78.26L271.02 78.31L271.02 78.31Q271.40 79.02 272.51 80.59L272.47 80.54L272.58 80.65Q275.14 83.02 278.47 83.35L278.34 83.21L278.40 83.27Q275.15 87.86 272.48 91.12L272.49 91.13L266.27 98.62L266.37 98.72Q270.18 97.38 272.99 96.79L272.93 96.73L272.98 96.78Q271.69 98.30 269.02 101.24L268.98 101.20L269.04 101.26Q274.26 99.63 279.61 99.56L279.64 99.59L279.58 99.53Q283.58 95.11 291.02 82.71L290.99 82.68L290.99 82.81L290.95 82.77Q291.50 81.63 292.09 80.78ZM281.69 64.83L281.84 64.99L281.82 64.96Q282.73 64.63 283.51 64.83L283.66 64.97L283.53 64.85Q284.68 65.09 285.34 65.28L285.27 65.21L285.35 65.30Q285.48 65.88 285.61 66.60L285.62 66.61L285.76 66.75Q285.84 67.41 285.64 68.07L285.65 68.08L285.58 68.00Q285.63 71.06 283.61 72.95L283.46 72.80L283.60 72.94Q281.89 74.62 279.08 74.56L279.00 74.48L279.19 74.66Q278.34 74.53 275.73 74.01L275.76 74.04L275.79 74.07Q275.31 72.48 275.31 71.24L275.34 71.28L275.33 71.26Q275.25 70.85 275.25 70.46L275.28 70.49L275.29 70.50Q275.16 66.59 279.07 65.22L279.23 65.38L279.23 65.37Q280.28 64.86 281.71 64.86Z"/><path d="M11 120 C170 25,179 121,323 104" stroke="#de5399" fill="none"/><path d="M18 13 C183 56,174 110,328 77" stroke="#efd78e" fill="none"/><path d="M7 15 C156 71,190 78,340 138" stroke="#db4268" fill="none"/><path d="M1 79 C185 38,152 100,322 74" stroke="#38e5e5" fill="none"/><path d="M19 29 C178 94,184 44,322 14" stroke="#a4e48f" fill="none"/><path d="M19 58 C180 6,164 44,339 87" stroke="#e5e55b" fill="none"/><path d="M4 79 C160 29,190 58,337 135" stroke="#df8c70" fill="none"/><path d="M6 70 C152 88,185 127,334 13" stroke="#bfde62" fill="none"/><path d="M13 116 C159 37,153 48,332 75" stroke="#e83fe8" fill="none"/><path d="M6 34 C158 82,155 119,327 5" stroke="#a05be5" fill="none"/><path fill="#bbdb5b" d="M159.39 96.33L159.33 96.27L159.39 96.32Q156.93 96.41 154.25 95.69L154.27 95.71L154.22 95.66Q152.12 94.08 151.86 91.27L151.86 91.28L151.86 91.28Q151.90 91.05 152.22 86.55L152.28 86.60L152.21 86.54Q153.92 86.16 157.38 85.51L157.41 85.54L157.10 86.86L157.17 86.93Q156.55 89.77 158.97 90.75L159.06 90.84L158.98 90.77Q160.47 91.47 164.06 91.47L164.05 91.46L164.02 91.43Q166.76 91.17 167.09 91.04L167.11 91.07L167.12 91.07Q168.64 90.76 169.88 89.91L169.87 89.90L169.93 89.97Q172.22 88.21 171.89 84.62L172.01 84.73L171.92 84.64Q171.60 80.48 168.63 77.80L168.75 77.92L168.57 77.74Q165.70 75.16 161.46 75.16L161.55 75.25L161.40 74.71L161.40 74.72Q162.19 74.79 163.70 74.66L163.52 74.48L163.68 74.64Q166.86 74.37 169.21 72.25L169.18 72.21L169.31 72.34Q171.61 70.17 171.87 66.97L171.87 66.98L171.82 66.93Q171.86 66.25 171.86 65.66L172.05 65.85L171.86 65.66Q171.96 63.15 169.61 61.58L169.68 61.65L169.66 61.63Q167.42 60.11 164.68 60.31L164.88 60.50L164.77 60.39Q162.60 60.19 160.52 60.91L160.45 60.84L160.46 60.85Q157.93 61.72 157.41 63.68L157.40 63.66L157.43 63.70Q157.15 65.05 157.28 66.35L157.35 66.42L157.27 66.34Q155.53 65.97 152.01 64.73L152.08 64.81L152.06 64.78Q151.62 61.87 151.69 60.43L151.67 60.42L151.67 60.42Q151.79 57.73 153.62 56.56L153.66 56.59L153.75 56.69Q156.15 55.63 158.89 55.63L158.76 55.50L158.87 55.61Q164.36 55.61 169.77 56.07L169.61 55.90L169.67 55.96Q178.30 56.63 177.77 63.09L177.83 63.14L177.73 63.05Q177.79 65.78 176.94 68.45L176.90 68.41L176.82 68.33Q175.34 73.70 171.29 75.27L171.25 75.23L171.26 75.24Q175.82 76.21 176.87 81.96L176.74 81.83L176.88 81.97Q177.23 83.89 177.36 87.35L177.29 87.27L177.31 87.29Q177.50 94.86 169.61 95.64L169.59 95.63L169.59 95.63Q168.53 95.94 159.46 96.40ZM168.40 100.25L168.39 100.24L168.27 100.12Q169.39 100.26 174.29 100.39L174.31 100.41L174.31 100.41Q177.22 100.45 180.03 99.34L180.00 99.32L180.02 99.34Q182.06 97.72 181.73 94.72L181.79 94.78L181.66 94.65Q181.51 92.40 180.98 89.40L180.96 89.38L180.99 89.41Q179.86 81.82 176.53 79.01L176.48 78.96L176.18 78.33L176.04 78.13L176.01 78.10Q179.14 75.75 180.44 68.24L180.40 68.20L180.45 68.24Q180.52 67.47 180.72 65.84L180.66 65.78L180.66 65.78Q180.86 64.55 180.73 63.37L180.65 63.29L180.59 63.23Q180.44 60.47 178.22 59.30L178.22 59.30L177.93 59.14L178.12 59.33Q177.52 57.55 175.56 56.63L175.59 56.67L175.51 56.58Q172.90 55.41 164.09 54.89L164.15 54.95L164.19 54.99Q161.22 54.76 158.48 54.76L158.47 54.75L158.57 54.86Q155.86 54.88 153.24 55.99L153.12 55.86L153.06 55.80Q151.07 57.20 151.07 60.20L151.06 60.20L151.08 60.21Q151.09 59.51 151.55 65.25L151.62 65.32L151.61 65.31Q151.98 65.29 154.78 66.33L154.93 66.48L154.80 66.35Q154.91 67.38 154.85 68.23L154.71 68.09L154.72 68.10Q154.70 68.93 154.76 69.84L154.79 69.86L154.82 69.89Q158.02 70.68 161.48 70.88L161.30 70.69L161.37 70.77Q161.18 67.25 163.07 65.81L163.21 65.96L163.17 65.91Q164.59 64.79 168.05 64.39L168.12 64.46L167.95 64.29Q170.09 64.47 171.06 64.80L171.07 64.80L170.98 64.72Q171.11 64.97 171.17 65.17L171.08 65.08L171.04 65.36L171.31 66.42L171.31 66.42Q171.33 66.76 171.26 67.02L171.21 66.97L171.31 67.07Q171.11 69.93 168.50 71.96L168.59 72.05L168.42 71.88Q167.02 73.61 163.56 73.94L163.55 73.93L163.53 73.91Q162.21 74.09 160.71 74.09L160.74 74.11L160.64 74.02Q160.76 74.66 161.03 75.84L160.99 75.80L161.12 75.94Q164.15 75.96 166.63 77.20L166.45 77.02L166.32 77.08L163.73 77.50L163.63 77.40Q163.66 77.95 163.86 79.00L163.88 79.02L163.88 79.02Q167.62 78.98 170.56 81.26L170.57 81.27L170.53 81.24Q170.94 81.90 171.46 84.71L171.50 84.75L171.53 84.77Q171.83 89.77 166.80 90.49L166.71 90.40L166.83 90.52Q163.08 90.82 162.10 90.75L162.25 90.90L162.21 90.86Q161.40 90.64 160.49 90.51L160.54 90.56L160.54 89.77L160.69 88.95L160.80 88.34L160.78 87.73L160.76 87.71Q159.09 87.80 157.71 88.13L157.81 88.22L157.86 88.27Q157.64 87.73 157.64 87.40L157.67 87.43L157.74 87.50Q157.79 87.16 157.79 86.77L157.83 86.81L157.87 86.85Q157.96 86.15 158.22 84.91L158.10 84.79L158.07 84.77Q154.96 85.25 151.77 85.83L151.72 85.78L151.76 85.83Q151.74 86.65 151.54 88.58L151.61 88.64L151.51 88.55Q151.41 90.57 151.41 91.61L151.25 91.45L151.29 91.49Q151.39 94.99 153.74 96.29L153.72 96.27L153.77 96.32Q156.43 100.35 164.52 100.02L164.39 99.89L164.37 99.87Q165.68 99.88 168.29 100.14Z"/><path fill="#e85de8" d="M58.26 73.75L58.24 73.73L58.32 73.80Q59.52 73.63 61.93 73.37L61.98 73.43L62.11 73.55Q61.98 74.59 61.98 75.70L61.95 75.68L61.91 77.79L61.95 77.82Q60.53 77.85 59.10 77.98L59.17 78.05L59.06 77.94Q57.67 78.05 56.23 77.98L56.13 77.88L56.28 78.03Q51.29 88.51 45.42 96.41L45.51 96.50L45.36 96.35Q41.23 97.64 39.01 98.68L39.00 98.67L38.88 98.55Q45.93 88.76 51.15 77.99L51.15 77.99L46.58 77.93L46.77 78.12Q46.60 75.66 46.40 73.37L46.56 73.53L46.47 73.44Q49.84 73.81 53.36 73.81L53.20 73.65L56.51 67.36L56.51 67.37Q58.23 64.13 60.32 61.38L60.35 61.42L60.24 61.30Q57.74 61.75 55.00 61.75L54.96 61.71L54.83 61.57Q44.42 61.61 37.96 57.82L37.97 57.83L36.83 54.87L36.88 54.91Q36.29 53.47 35.63 51.97L35.75 52.08L35.73 52.06Q43.07 56.47 52.86 56.86L52.96 56.96L52.91 56.91Q61.65 57.23 70.46 53.84L70.48 53.86L70.58 53.96Q70.14 54.57 69.30 56.07L69.36 56.13L69.40 56.17Q63.09 64.22 58.20 73.68ZM72.10 58.48L72.08 58.46L73.72 54.94L73.83 55.06Q72.04 55.75 69.17 56.99L69.24 57.05L69.65 56.62L69.55 56.52Q69.69 56.20 69.88 56.00L69.98 56.10L70.06 56.18Q70.62 54.92 71.86 52.63L71.85 52.62L71.84 52.61Q62.80 56.62 52.95 56.23L52.80 56.08L52.90 56.18Q42.52 55.65 34.36 50.56L34.38 50.58L34.40 50.61Q36.18 53.82 37.61 58.39L37.59 58.36L37.53 58.30Q39.47 59.46 40.84 59.98L40.95 60.09L40.83 59.97Q41.13 60.60 41.91 63.80L41.85 63.73L41.82 63.71Q47.32 65.94 56.78 65.68L56.87 65.76L56.88 65.77Q56.25 66.65 52.86 73.11L52.91 73.16L52.96 73.21Q49.30 73.08 45.91 72.75L45.96 72.80L46.02 72.87Q46.05 74.20 46.05 75.70L46.02 75.67L46.19 78.78L48.88 78.60L48.98 81.11L49.02 81.15Q42.15 93.66 37.39 99.80L37.55 99.96L37.51 99.92Q40.21 98.57 43.02 97.73L42.94 97.65L42.93 97.64Q41.76 99.21 39.41 102.15L39.53 102.27L39.57 102.31Q44.86 100.28 49.03 99.89L49.19 100.05L49.10 99.96Q54.22 93.59 59.57 81.97L59.55 81.95L65.25 82.11L65.33 82.18Q65.15 80.58 65.15 79.01L65.27 79.13L65.18 75.97L65.17 75.96Q64.82 76.06 63.87 76.13L63.86 76.12L63.75 76.00Q62.80 76.07 62.34 76.07L62.39 76.12L62.49 76.22Q62.41 75.94 62.47 75.68L62.46 75.66L62.40 75.14L62.55 75.30Q66.72 66.34 72.00 58.38Z"/><path d="M19 79 C153 5,183 48,339 37" stroke="#44d844" fill="none"/><path d="M1 74 C190 76,164 19,341 46" stroke="#6d6de3" fill="none"/><path d="M7 44 C169 117,174 14,329 47" stroke="#a867e9" fill="none"/><path d="M17 6 C163 17,171 110,333 63" stroke="#b6da47" fill="none"/><path d="M10 115 C182 8,164 52,326 9" stroke="#6161df" fill="none"/><path d="M2 30 C190 58,167 32,323 112" stroke="#baf083" fill="none"/><path d="M11 53 C156 26,191 47,331 34" stroke="#8a6fdc" fill="none"/></svg>