<svg xmlns="http://www.w3.org/2000/svg" width="342" height="140" viewBox="0,0,342,140"><path d="M20 73 C170 132,162 127,340 33" stroke="#e4b833" fill="none"/><path d="M6 59 C169 48,158 77,330 124" stroke="#65c9eb" fill="none"/><path d="M17 36 C154 83,181 9,323 91" stroke="#73e790" fill="none"/><path d="M2 117 C153 26,189 79,332 38" stroke="#4d4dda" fill="none"/><path d="M20 13 C152 123,152 6,326 8" stroke="#76e4c8" fill="none"/><path d="M14 16 C160 34,151 119,336 136" stroke="#e0c060" fill="none"/><path d="M1 5 C161 117,187 105,327 45" stroke="#dd9e5f" fill="none"/><path d="M21 84 C168 48,185 116,323 47" stroke="#51d672" fill="none"/><path fill="#d6d641" d="M279.61 67.43L279.59 67.40L279.61 67.42Q274.34 67.35 271.37 65.61L271.45 65.69L271.46 65.71Q275.59 63.52 283.50 56.65L283.35 56.50L283.34 56.49Q284.55 56.22 286.66 55.23L286.68 55.26L286.73 55.31Q284.62 65.00 284.43 75.33L284.35 75.26L284.30 75.21Q284.10 85.52 285.83 95.42L285.82 95.40L285.89 95.48Q283.14 94.27 279.67 94.09L279.76 94.17L279.63 94.05Q279.60 87.46 279.60 80.84L279.52 80.75L279.47 80.70Q279.51 74.06 279.57 67.38ZM278.99 71.07L278.97 94.74L279.01 94.79Q280.90 94.69 282.45 95.00L282.51 95.07L282.42 94.98Q282.71 96.25 283.02 98.48L282.84 98.30L282.83 98.30Q287.61 99.30 291.57 102.95L291.51 102.89L291.63 103.01Q287.45 91.28 287.38 79.16L287.52 79.29L287.51 79.28Q287.36 67.13 290.33 55.38L290.20 55.24L290.38 55.42Q289.41 56.01 286.81 57.80L286.89 57.88L286.76 57.74Q287.11 56.54 287.60 54.07L287.60 54.07L287.61 54.08Q285.37 55.24 283.02 55.86L283.06 55.90L283.05 55.89Q277.06 61.84 270.07 65.55L269.97 65.45L270.08 65.56Q272.35 67.34 276.19 67.89L276.04 67.75L276.16 67.87Q274.99 68.62 272.89 70.35L272.90 70.36L272.97 70.43Q275.45 71.12 279.04 71.12L278.99 71.07Z"/><path d="M13 75 C187 45,172 116,336 62" stroke="#6eecec" fill="none"/><path d="M10 41 C176 6,177 19,331 18" stroke="#77afe8" fill="none"/><path d="M20 132 C186 78,155 96,335 63" stroke="#de5e7e" fill="none"/><path d="M12 131 C155 18,177 30,338 40" stroke="#e9ba8a" fill="none"/><path d="M6 124 C170 70,161 91,335 131" stroke="#aa73e2" fill="none"/><path fill="#de7e5e" d="M161.02 95.04L160.88 94.90L160.90 94.93Q154.27 95.28 152.66 91.51L152.70 91.55L152.81 91.66Q154.07 90.14 156.61 87.23L156.55 87.17L156.59 87.21Q157.24 90.34 162.13 90.53L162.30 90.70L162.15 90.55Q167.67 90.68 170.33 88.52L170.46 88.64L170.45 88.64Q172.68 85.98 172.56 81.59L172.63 81.66L172.56 81.59Q172.22 73.27 164.42 73.64L164.53 73.75L164.40 73.62Q159.82 73.87 156.98 75.91L156.97 75.90L156.43 75.61L156.30 75.60L156.26 75.56Q156.71 70.32 156.53 65.87L156.61 65.95L156.48 65.82Q156.38 61.63 155.82 56.25L155.79 56.22L155.81 56.25Q161.86 57.90 168.05 57.72L168.00 57.67L168.05 57.72Q174.07 57.43 179.89 55.39L179.94 55.44L179.03 57.94L179.09 58.00Q178.53 59.17 178.22 60.53L178.30 60.61L178.25 60.55Q173.08 62.13 166.77 62.13L166.79 62.15L166.83 62.19Q164.49 62.20 162.07 61.95L162.03 61.91L162.05 61.93Q161.87 62.98 161.31 70.22L161.31 70.22L161.35 70.26Q162.86 69.67 166.20 69.42L166.09 69.30L166.09 69.31Q172.15 69.68 174.50 72.40L174.50 72.39L174.51 72.41Q176.82 74.96 177.25 81.21L177.16 81.12L177.11 81.07Q177.53 87.86 175.55 91.14L175.55 91.14L175.67 91.26Q172.28 94.24 166.90 94.61L167.06 94.78L166.89 94.60Q165.33 94.78 161.00 95.02ZM170.74 98.64L170.86 98.76L170.75 98.65Q176.36 98.82 179.46 97.03L179.42 96.99L179.40 96.97Q180.97 94.46 180.97 91.06L181.13 91.21L181.15 91.23Q181.12 86.19 179.57 79.51L179.57 79.51L179.58 79.52Q178.87 76.58 176.89 74.29L176.95 74.35L177.02 74.48L176.63 73.97L176.07 73.66L176.15 73.74Q175.51 72.41 174.46 71.30L174.45 71.29L174.44 71.35L174.55 71.45Q171.95 68.61 165.95 68.61L166.13 68.79L165.60 68.69L165.61 68.71Q165.66 67.70 165.97 65.91L165.96 65.90L165.99 65.93Q174.24 66.26 180.79 63.60L180.69 63.49L180.64 63.44Q181.41 61.24 182.96 56.66L182.96 56.67L179.54 58.20L179.48 58.14Q180.09 56.28 180.90 54.42L180.95 54.47L180.86 54.38Q174.74 56.86 168.06 56.99L168.01 56.94L168.11 57.03Q161.40 57.19 154.97 55.40L154.91 55.34L154.95 55.38Q156.08 62.57 156.08 69.75L155.92 69.59L156.09 69.76Q156.08 72.84 155.89 75.94L155.74 75.78L155.83 75.87Q156.34 76.26 157.27 76.75L157.22 76.71L157.21 76.70Q157.70 76.25 158.75 75.70L158.81 75.76L158.77 75.72Q158.76 77.01 158.39 79.48L158.32 79.41L158.41 79.51Q159.15 79.87 159.83 80.25L159.78 80.20L159.82 80.24Q164.25 77.31 167.29 77.31L167.33 77.35L167.24 77.26Q169.35 77.21 171.27 78.26L171.44 78.43L171.36 78.35Q171.99 80.10 172.05 81.64L171.91 81.50L171.89 81.48Q172.18 85.85 170.51 87.64L170.51 87.65L170.44 87.57Q168.29 89.64 164.64 90.01L164.51 89.87L164.57 89.93Q163.07 90.10 161.96 89.98L161.90 89.93L161.94 89.96Q160.45 89.65 159.21 89.09L159.28 89.16L159.17 88.74L159.10 89.04L159.02 88.96Q157.84 88.28 156.97 86.11L156.94 86.08L156.93 86.06Q154.72 88.31 152.00 91.78L152.02 91.80L152.06 91.84Q152.57 92.91 153.93 94.45L153.83 94.35L153.91 94.43Q155.54 97.30 160.12 98.10L160.10 98.08L160.12 98.11Q162.14 98.57 170.86 98.76Z"/><path d="M5 94 C184 44,172 78,332 134" stroke="#edd690" fill="none"/><path d="M19 34 C168 68,173 28,333 88" stroke="#7bdf94" fill="none"/><path d="M4 28 C154 25,152 3,328 94" stroke="#9e87e2" fill="none"/><path fill="#5496d8" d="M222.09 61.34L222.03 61.28L219.53 61.50L219.47 61.45Q215.88 61.69 215.51 64.96L215.44 64.90L215.39 64.85Q215.38 66.14 215.44 67.75L215.33 67.63L215.33 67.64Q215.57 70.96 217.61 73.13L217.45 72.97L217.46 72.98Q219.65 75.29 222.74 75.05L222.57 74.87L222.58 74.88Q225.95 74.67 227.19 73.18L227.13 73.12L227.25 73.24Q229.02 71.80 229.46 68.15L229.34 68.04L229.41 68.10Q229.80 64.41 227.75 63.05L227.83 63.12L227.76 63.05Q226.35 61.77 222.02 61.27ZM231.88 76.33L231.82 76.27L229.67 79.93L229.69 79.95Q225.41 87.86 219.29 94.48L219.16 94.35L219.31 94.50Q216.50 94.60 212.11 95.90L212.09 95.88L212.17 95.96Q220.89 85.81 226.02 78.02L226.06 78.06L225.94 77.93Q224.30 79.02 221.64 79.14L221.75 79.25L221.61 79.11Q216.78 79.42 214.31 76.20L214.39 76.28L214.25 76.14Q212.32 73.60 210.53 66.17L210.57 66.21L210.56 66.21Q210.54 65.44 210.29 63.93L210.33 63.96L210.28 63.92Q210.01 62.37 210.01 61.63L210.11 61.73L210.11 61.74Q210.06 58.78 211.79 57.79L211.67 57.66L211.70 57.69Q213.73 56.50 216.76 56.50L216.78 56.52L216.75 56.49Q221.95 56.50 221.95 56.50L221.88 56.43L221.99 56.54Q225.59 56.67 227.63 56.98L227.45 56.81L227.44 56.79Q230.98 57.30 232.47 58.11L232.39 58.03L232.43 58.08Q234.64 59.29 234.95 62.14L235.03 62.22L234.99 62.18Q235.10 62.66 234.79 66.99L234.69 66.89L234.76 66.96Q234.16 70.44 233.78 71.80L233.63 71.64L233.78 71.79Q233.15 74.08 231.92 76.36ZM235.04 80.29L234.98 80.23L234.94 80.19Q236.65 76.70 237.51 69.71L237.33 69.53L237.40 69.60Q237.94 66.12 237.88 64.70L237.74 64.56L237.87 64.69Q237.66 61.51 235.74 60.02L235.91 60.19L235.34 59.93L235.23 59.82Q234.88 58.67 233.40 57.61L233.33 57.55L233.40 57.62Q229.73 56.05 221.94 55.81L221.88 55.75L222.00 55.86Q220.44 55.85 216.48 55.85L216.46 55.84L216.31 55.68Q213.60 55.82 211.19 56.94L211.16 56.91L211.14 56.89Q209.31 58.22 209.44 61.18L209.35 61.10L209.38 61.13Q209.71 62.63 210.02 65.91L209.99 65.88L210.03 65.93Q211.03 70.20 211.46 71.56L211.41 71.51L211.38 71.48Q212.28 74.48 213.83 76.59L213.92 76.68L213.92 76.67Q214.29 77.18 214.91 77.80L214.96 77.84L214.91 77.79Q215.43 78.62 216.48 80.11L216.43 80.06L216.56 80.18Q218.90 82.34 222.06 82.65L221.98 82.57L222.03 82.62Q218.98 87.00 216.45 90.09L216.45 90.10L210.57 97.21L210.55 97.19Q214.10 95.85 216.76 95.29L216.82 95.36L216.92 95.46Q215.66 96.85 213.12 99.64L213.11 99.62L213.11 99.62Q218.04 98.05 223.11 97.99L223.22 98.11L223.24 98.12Q226.86 93.77 233.91 82.01L234.03 82.13L233.93 82.15L233.99 82.22Q234.39 81.01 234.95 80.20ZM225.25 65.24L225.26 65.26L225.24 65.24Q226.08 64.90 226.82 65.08L226.89 65.15L226.86 65.12Q227.91 65.30 228.52 65.49L228.68 65.64L228.63 65.59Q228.69 66.09 228.82 66.77L228.99 66.94L228.81 66.76Q228.93 67.44 228.74 68.05L228.85 68.17L228.75 68.06Q228.76 70.91 226.84 72.71L226.83 72.70L226.90 72.77Q225.35 74.44 222.69 74.38L222.59 74.27L222.59 74.27Q222.02 74.38 219.54 73.89L219.51 73.86L219.47 73.82Q219.17 72.46 219.17 71.28L219.06 71.18L219.18 71.30Q218.95 70.75 218.95 70.38L218.93 70.37L218.99 70.42Q218.94 66.79 222.66 65.49L222.77 65.61L222.75 65.59Q223.89 65.24 225.25 65.24Z"/><path d="M11 39 C174 130,187 45,335 135" stroke="#5aebc7" fill="none"/><path d="M7 60 C191 69,163 19,334 136" stroke="#b64fd8" fill="none"/><path d="M18 22 C166 48,159 9,327 11" stroke="#e566a5" fill="none"/><path d="M16 4 C179 82,188 61,329 126" stroke="#dd6363" fill="none"/><path d="M13 118 C182 58,177 109,321 135" stroke="#e683e6" fill="none"/><path d="M17 24 C168 22,178 128,340 99" stroke="#83f19e" fill="none"/><path d="M10 44 C178 44,182 2,337 16" stroke="#de53de" fill="none"/><path d="M11 68 C182 24,150 11,324 88" stroke="#ef8484" fill="none"/><path d="M7 72 C175 90,173 27,336 10" stroke="#de4444" fill="none"/><path d="M11 22 C190 132,182 111,337 94" stroke="#c1e556" fill="none"/><path d="M5 58 C161 59,187 110,338 105" stroke="#de72de" fill="none"/><path d="M13 93 C186 118,185 38,324 45" stroke="#3eda65" fill="none"/><path d="M4 8 C174 128,165 113,338 57" stroke="#d9714e" fill="none"/><path d="M11 120 C189 17,191 22,330 88" stroke="#a7e792" fill="none"/><path d="M20 60 C165 128,167 113,321 3" stroke="#82ecb7" fill="none"/><path d="M4 73 C172 50,159 71,334 88" stroke="#9070ef" fill="none"/><path d="M18 122 C151 39,162 63,336 8" stroke="#e8977c" fill="none"/><path fill="#eac042" d="M108.45 76.66L108.46 76.67L108.48 76.69Q105.55 76.54 103.54 78.86L103.41 78.73L103.40 78.72Q101.52 81.17 101.21 84.26L101.16 84.21L101.12 84.17Q100.82 87.58 102.58 89.16L102.53 89.11L102.60 89.18Q104.31 90.70 107.71 90.52L107.75 90.56L107.81 90.61Q111.22 90.37 113.01 89.26L112.86 89.10L112.92 89.17Q114.86 87.46 114.86 84.92L114.72 84.78L114.80 84.86Q114.77 84.21 114.64 83.59L114.66 83.61L114.71 83.65Q114.76 80.86 112.96 78.66L112.96 78.66L113.07 78.76Q111.18 76.48 108.46 76.66ZM107.90 94.84L107.89 94.83L107.75 94.70Q100.59 94.65 98.30 93.42L98.33 93.44L98.45 93.57Q96.67 92.22 96.37 89.44L96.44 89.51L96.48 89.55Q96.39 88.41 96.45 87.24L96.32 87.10L96.50 87.29Q96.57 85.56 96.57 84.82L96.53 84.78L96.53 84.78Q97.35 80.22 97.60 79.11L97.62 79.12L97.58 79.09Q98.30 75.91 99.66 73.62L99.70 73.66L99.59 73.55Q103.98 66.49 113.63 56.16L113.64 56.17L113.69 56.22Q117.99 55.70 121.58 54.40L121.50 54.32L121.51 54.33Q110.43 66.50 105.23 73.37L105.31 73.45L105.31 73.46Q106.82 72.55 108.93 72.55L108.99 72.61L109.00 72.63Q114.35 72.59 116.82 75.74L116.91 75.84L116.74 75.67Q118.97 78.39 119.53 84.15L119.55 84.16L119.47 84.09Q119.69 85.35 119.69 86.34L119.62 86.28L119.72 86.37Q119.68 91.41 116.10 93.15L116.00 93.05L116.10 93.15Q114.18 94.20 107.87 94.82ZM111.42 98.56L111.50 98.64L111.49 98.63Q113.70 98.67 116.91 98.79L116.86 98.74L116.77 98.65Q119.51 98.85 122.05 97.68L122.09 97.71L121.94 97.57Q123.90 96.44 123.90 93.53L123.81 93.44L123.76 93.38Q123.73 92.55 123.45 90.94L123.53 91.02L123.59 91.08Q123.17 89.33 123.17 88.59L123.19 88.61L123.18 88.60Q121.85 81.02 119.25 77.93L119.26 77.94L119.32 78.00Q119.02 77.64 118.77 77.27L118.91 77.40L118.38 77.00L118.26 76.93L118.24 76.92Q117.65 76.08 116.66 74.53L116.71 74.59L116.80 74.67Q115.14 72.95 111.92 72.21L112.02 72.31L111.99 72.28Q113.93 69.63 118.75 63.63L118.75 63.63L125.68 55.10L125.73 55.15Q123.15 56.52 119.25 57.76L119.17 57.68L119.25 57.76Q120.81 56.22 123.71 53.01L123.71 53.01L123.73 53.02Q119.71 54.63 113.40 55.56L113.41 55.57L113.48 55.64Q104.06 65.09 99.24 73.13L99.41 73.30L99.42 73.32Q96.79 77.24 95.86 87.38L95.98 87.50L95.93 87.45Q95.87 88.45 95.99 89.99L95.86 89.86L95.87 89.87Q95.98 92.70 97.77 94.18L97.77 94.19L97.87 94.29Q98.39 94.43 98.33 94.50L98.45 94.62L98.35 94.52Q99.07 96.10 100.37 96.78L100.31 96.73L100.41 96.82Q102.65 97.83 105.81 98.14L105.87 98.20L105.75 98.09Q105.72 98.05 111.41 98.55ZM111.18 80.43L111.13 80.38L111.22 80.48Q112.11 80.26 113.66 81.06L113.62 81.02L113.67 81.07Q114.15 82.54 114.15 83.59L114.12 83.56L114.18 83.62Q114.53 86.69 112.98 88.30L112.89 88.21L112.97 88.29Q111.24 89.46 107.84 89.96L107.71 89.83L107.88 90.00Q105.49 89.97 104.63 89.53L104.67 89.58L104.53 89.44Q104.26 88.73 104.26 88.24L104.29 88.27L104.35 88.33Q103.99 83.02 108.76 80.92L108.60 80.76L108.57 80.74Q110.00 80.37 111.24 80.49Z"/><path d="M14 59 C180 50,188 120,321 92" stroke="#72ade8" fill="none"/><path fill="#76e9af" d="M58.09 73.46L58.24 73.61L58.06 73.43Q59.37 73.44 61.65 73.19L61.67 73.21L61.76 73.30Q61.74 74.39 61.74 75.45L61.69 75.39L61.61 77.36L61.64 77.39Q60.28 77.39 58.92 77.51L59.00 77.59L58.88 77.47Q57.57 77.58 56.21 77.52L56.24 77.56L56.32 77.64Q51.58 87.55 46.01 95.04L46.12 95.15L46.08 95.11Q41.93 96.09 39.83 97.08L39.79 97.04L39.76 97.02Q46.52 87.82 51.47 77.61L51.47 77.61L47.24 77.65L47.18 77.59Q47.11 75.35 46.92 73.18L47.08 73.34L47.06 73.32Q50.17 73.59 53.52 73.59L53.42 73.50L56.56 67.54L56.49 67.48Q58.15 64.43 60.13 61.83L60.14 61.84L60.12 61.82Q57.53 62.02 54.93 62.02L55.04 62.13L54.91 62.00Q45.01 62.00 38.89 58.41L39.03 58.55L37.87 55.66L37.91 55.70Q37.42 54.40 36.80 52.98L36.75 52.93L36.76 52.94Q43.85 57.25 53.13 57.62L53.17 57.66L53.01 57.50Q61.43 57.94 69.78 54.72L69.71 54.65L69.76 54.70Q69.54 55.47 68.73 56.89L68.70 56.86L68.70 56.85Q62.86 64.62 58.22 73.59ZM71.27 59.05L71.33 59.12L72.92 55.81L72.97 55.87Q71.29 56.53 68.56 57.71L68.70 57.85L68.95 57.29L69.01 57.35Q69.19 57.10 69.38 56.92L69.31 56.84L69.24 56.78Q69.81 55.62 70.99 53.45L71.16 53.63L71.03 53.50Q62.35 57.19 53.01 56.82L53.18 56.98L52.99 56.80Q43.27 56.41 35.53 51.59L35.62 51.68L35.61 51.66Q37.24 54.65 38.60 58.98L38.68 59.06L38.65 59.03Q40.35 59.99 41.65 60.49L41.61 60.45L41.75 60.59Q41.94 61.09 42.68 64.12L42.64 64.07L42.74 64.18Q47.90 66.24 56.87 65.99L56.76 65.88L56.76 65.89Q56.21 66.76 52.99 72.88L53.17 73.06L53.14 73.03Q49.70 72.93 46.48 72.62L46.51 72.65L46.44 72.58Q46.74 74.12 46.74 75.54L46.56 75.36L46.67 78.25L49.28 78.14L49.27 80.42L49.29 80.44Q42.95 92.47 38.43 98.29L38.40 98.25L38.47 98.33Q41.05 97.07 43.71 96.27L43.78 96.34L43.79 96.34Q42.57 97.72 40.34 100.50L40.50 100.66L40.48 100.64Q45.60 98.83 49.56 98.46L49.46 98.36L49.58 98.49Q54.24 92.26 59.32 81.25L59.28 81.22L64.84 81.51L64.80 81.47Q64.73 80.05 64.73 78.56L64.73 78.56L64.81 75.73L64.80 75.72Q64.42 75.77 63.52 75.83L63.34 75.66L63.36 75.67Q62.58 75.85 62.15 75.85L62.09 75.80L62.09 75.79Q62.04 75.56 62.10 75.31L62.26 75.47L62.25 75.03L62.08 74.86Q66.32 66.66 71.33 59.11Z"/><path d="M15 50 C155 19,173 22,339 111" stroke="#72edce" fill="none"/><path d="M3 80 C155 116,159 116,324 122" stroke="#dd40dd" fill="none"/><path d="M19 61 C177 86,168 29,331 17" stroke="#66eaea" fill="none"/><path d="M14 5 C151 101,182 54,329 110" stroke="#a870df" fill="none"/><path d="M11 72 C159 9,165 26,328 2" stroke="#e8d086" fill="none"/><path d="M1 119 C173 95,166 134,321 83" stroke="#de5353" fill="none"/></svg>