<svg xmlns="http://www.w3.org/2000/svg" width="342" height="140" viewBox="0,0,342,140"><path d="M9 36 C166 48,171 93,328 89" stroke="#c8e07e" fill="none"/><path d="M10 64 C167 20,189 85,331 102" stroke="#88df6b" fill="none"/><path d="M20 48 C175 33,188 53,334 49" stroke="#df714d" fill="none"/><path d="M10 109 C175 67,170 109,331 50" stroke="#a86be4" fill="none"/><path fill="#51e59b" d="M130.31 78.00L130.28 77.98L130.25 77.94Q126.67 77.66 124.28 80.42L124.31 80.44L124.23 80.36Q121.92 83.19 121.55 86.86L121.67 86.99L121.61 86.92Q121.18 90.90 123.27 92.77L123.32 92.82L123.32 92.82Q125.36 94.64 129.40 94.42L129.26 94.28L129.38 94.40Q133.46 94.15 135.59 92.82L135.42 92.66L135.55 92.79Q137.78 90.69 137.78 87.68L137.64 87.54L137.81 87.70Q137.78 86.94 137.63 86.21L137.66 86.23L137.60 86.18Q137.63 82.82 135.50 80.22L135.59 80.30L135.53 80.25Q133.43 77.67 130.20 77.89ZM129.47 99.41L129.50 99.44L129.39 99.33Q120.93 99.32 118.22 97.85L118.31 97.94L118.25 97.88Q116.20 96.35 115.83 93.04L115.89 93.10L115.97 93.17Q115.78 91.74 115.85 90.35L115.86 90.35L115.95 90.44Q116.06 88.42 116.06 87.54L116.21 87.69L116.19 87.67Q117.11 82.20 117.41 80.88L117.30 80.78L117.35 80.83Q118.12 76.97 119.73 74.25L119.83 74.35L119.85 74.37Q124.94 65.88 136.40 53.62L136.36 53.59L136.39 53.61Q141.63 53.13 145.89 51.59L145.78 51.48L145.75 51.44Q132.63 65.94 126.47 74.09L126.40 74.02L126.44 74.06Q128.38 73.14 130.88 73.14L130.92 73.18L130.91 73.17Q137.27 73.14 140.20 76.88L140.21 76.89L140.11 76.79Q142.63 79.90 143.29 86.73L143.42 86.85L143.46 86.90Q143.55 88.23 143.55 89.41L143.49 89.34L143.47 89.33Q143.48 95.36 139.23 97.42L139.24 97.44L139.21 97.40Q136.82 98.54 129.33 99.27ZM133.81 103.96L133.87 104.03L133.74 103.90Q136.27 103.86 140.09 104.01L140.13 104.05L140.20 104.12Q143.30 104.21 146.31 102.82L146.32 102.83L146.31 102.81Q148.40 101.23 148.40 97.78L148.54 97.92L148.49 97.87Q148.38 96.81 148.05 94.90L148.21 95.06L148.09 94.94Q147.83 93.10 147.83 92.22L147.68 92.07L147.86 92.25Q146.06 83.03 142.97 79.36L143.07 79.46L143.01 79.40Q142.87 79.18 142.57 78.74L142.61 78.77L141.98 78.29L141.74 78.13L141.74 78.13Q141.12 77.21 139.94 75.37L139.91 75.34L139.95 75.38Q138.24 73.59 134.42 72.71L134.39 72.68L134.49 72.79Q136.83 69.69 142.56 62.57L142.54 62.55L150.59 52.25L150.72 52.37Q147.68 54.04 143.06 55.51L142.93 55.38L142.92 55.37Q144.72 53.50 148.17 49.68L148.23 49.75L148.31 49.82Q143.52 51.71 136.03 52.81L136.10 52.88L136.16 52.94Q125.05 64.23 119.33 73.77L119.30 73.74L119.32 73.77Q116.41 78.64 115.31 90.68L115.35 90.72L115.38 90.76Q115.21 91.83 115.35 93.66L115.28 93.59L115.26 93.57Q115.43 96.97 117.56 98.73L117.57 98.75L117.53 98.70Q118.40 99.13 118.32 99.20L118.23 99.11L118.20 99.08Q119.01 100.92 120.56 101.73L120.53 101.70L120.57 101.74Q123.32 103.03 127.07 103.39L127.12 103.44L127.17 103.49Q127.07 103.39 133.82 103.98ZM133.49 82.43L133.37 82.31L133.47 82.41Q134.47 82.08 136.30 83.04L136.26 83.00L136.39 83.13Q137.01 84.92 137.01 86.17L137.07 86.23L136.98 86.14Q137.42 89.81 135.58 91.72L135.56 91.69L135.50 91.63Q133.38 92.97 129.35 93.56L129.33 93.55L129.36 93.57Q126.59 93.59 125.56 93.08L125.58 93.09L125.66 93.17Q125.32 92.33 125.32 91.74L125.22 91.63L125.29 91.71Q124.83 85.37 130.48 82.87L130.42 82.81L130.50 82.89Q131.86 82.12 133.33 82.27Z"/><path d="M18 47 C190 54,186 14,330 131" stroke="#ed81b7" fill="none"/><path d="M9 133 C158 109,167 45,329 76" stroke="#5959e2" fill="none"/><path d="M6 112 C158 127,164 99,340 94" stroke="#e8693f" fill="none"/><path d="M14 73 C181 28,192 113,337 60" stroke="#b5ea7f" fill="none"/><path d="M18 138 C155 116,184 68,326 18" stroke="#a9eb93" fill="none"/><path d="M9 33 C182 6,153 1,339 73" stroke="#6ce96c" fill="none"/><path d="M14 132 C152 54,167 44,335 80" stroke="#6a44de" fill="none"/><path d="M10 135 C191 78,158 43,336 88" stroke="#dede58" fill="none"/><path d="M18 6 C160 118,166 130,323 49" stroke="#7a59dd" fill="none"/><path d="M11 121 C161 12,165 16,327 96" stroke="#afe47a" fill="none"/><path fill="#6fe18b" d="M69.72 74.14L69.76 74.18L69.69 74.11Q71.25 74.13 73.96 73.83L74.00 73.87L73.98 73.85Q73.93 75.12 73.93 76.37L73.88 76.32L73.97 78.84L73.97 78.83Q72.26 78.74 70.65 78.89L70.76 79.00L70.80 79.04Q69.18 79.11 67.56 79.03L67.52 78.99L67.44 78.91Q62.02 90.89 55.41 99.78L55.34 99.70L55.34 99.71Q50.49 100.95 48.00 102.12L47.99 102.11L47.96 102.09Q56.01 91.20 61.88 79.08L61.85 79.05L56.74 79.00L56.71 78.97Q56.85 76.54 56.63 73.97L56.46 73.80L56.46 73.81Q60.27 74.24 64.23 74.24L64.11 74.11L67.94 67.15L67.92 67.13Q69.68 63.31 72.03 60.22L72.16 60.35L72.07 60.27Q69.18 60.68 66.09 60.68L66.11 60.70L65.97 60.56Q54.35 60.68 47.08 56.42L47.07 56.42L45.71 53.00L45.85 53.13Q45.11 51.44 44.38 49.75L44.34 49.72L44.28 49.65Q52.72 54.79 63.73 55.23L63.74 55.25L63.73 55.23Q73.70 55.73 83.61 51.91L83.61 51.91L83.50 51.80Q83.24 52.71 82.28 54.40L82.30 54.42L82.25 54.37Q75.17 63.44 69.67 74.09ZM85.40 57.08L85.33 57.01L87.25 53.12L87.29 53.17Q85.33 53.99 82.10 55.39L82.22 55.52L82.47 54.81L82.63 54.97Q82.83 54.65 83.05 54.43L82.89 54.27L82.89 54.28Q83.71 53.04 85.11 50.47L85.17 50.53L85.17 50.53Q74.84 54.89 63.75 54.45L63.79 54.49L63.82 54.51Q52.08 53.86 42.90 48.13L42.92 48.15L42.94 48.17Q44.90 51.75 46.52 56.89L46.64 57.01L46.64 57.01Q48.59 58.08 50.14 58.67L50.25 58.79L50.23 58.77Q50.53 59.43 51.41 63.03L51.38 63.00L51.34 62.96Q57.50 65.45 68.14 65.15L68.20 65.20L68.23 65.24Q67.58 66.27 63.76 73.54L63.79 73.57L63.82 73.61Q59.81 73.55 55.99 73.19L55.99 73.19L55.86 73.06Q56.13 74.79 56.13 76.48L56.20 76.56L56.20 79.86L59.30 79.73L59.27 82.42L59.28 82.43Q51.74 96.69 46.38 103.59L46.37 103.58L46.34 103.55Q49.56 102.22 52.72 101.27L52.69 101.24L52.57 101.11Q51.31 102.94 48.67 106.25L48.72 106.30L48.68 106.25Q54.76 104.11 59.46 103.67L59.41 103.62L59.56 103.78Q65.16 96.45 71.18 83.38L71.13 83.33L77.77 83.74L77.82 83.78Q77.66 82.01 77.66 80.25L77.67 80.26L77.68 76.82L77.61 76.74Q77.03 76.68 75.96 76.75L76.00 76.79L75.98 76.77Q74.92 76.85 74.41 76.85L74.41 76.85L74.37 76.81Q74.43 76.65 74.51 76.36L74.50 76.35L74.53 75.87L74.52 75.86Q79.32 65.90 85.27 56.94Z"/><path fill="#c966ea" d="M261.28 99.66L261.33 99.71L261.22 99.60Q253.38 100.06 251.47 95.58L251.58 95.69L251.59 95.69Q253.00 93.80 256.01 90.35L256.05 90.40L256.09 90.43Q256.88 94.16 262.68 94.38L262.80 94.50L262.66 94.36Q269.34 94.65 272.49 92.08L272.40 91.99L272.46 92.04Q275.23 89.01 275.08 83.80L275.01 83.73L275.02 83.74Q274.72 73.96 265.47 74.40L265.56 74.50L265.43 74.37Q260.06 74.72 256.68 77.15L256.73 77.19L255.96 76.72L255.64 76.55L255.57 76.48Q256.32 70.47 256.10 65.18L256.10 65.18L256.09 65.18Q255.77 60.01 255.11 53.62L255.24 53.76L255.25 53.76Q262.23 55.53 269.57 55.31L269.49 55.23L269.57 55.31Q276.98 55.23 283.88 52.81L283.91 52.84L282.71 55.68L282.72 55.69Q282.12 57.14 281.75 58.75L281.81 58.81L281.68 58.69Q275.66 60.67 268.17 60.67L268.18 60.68L268.35 60.85Q265.54 60.83 262.68 60.53L262.66 60.52L262.70 60.55Q262.48 61.81 261.82 70.40L261.75 70.33L261.89 70.46Q263.47 69.55 267.44 69.25L267.30 69.12L267.39 69.20Q274.52 69.59 277.31 72.82L277.27 72.78L277.45 72.95Q279.98 75.77 280.49 83.19L280.52 83.21L280.58 83.28Q280.97 91.23 278.62 95.12L278.58 95.09L278.78 95.28Q274.76 98.83 268.38 99.27L268.43 99.32L268.38 99.27Q266.40 99.35 261.26 99.65ZM273.04 104.15L272.93 104.05L273.04 104.15Q279.61 104.26 283.28 102.13L283.29 102.14L283.22 102.07Q285.09 99.09 285.09 95.05L285.12 95.09L285.22 95.19Q285.21 89.23 283.38 81.30L283.31 81.24L283.25 81.17Q282.63 77.92 280.28 75.20L280.16 75.08L280.26 75.25L279.83 74.67L279.12 74.26L279.25 74.38Q278.64 72.97 277.40 71.65L277.38 71.64L277.35 71.67L277.27 71.60Q274.39 68.43 267.27 68.43L267.29 68.44L266.71 68.38L266.77 68.44Q267.02 67.45 267.39 65.32L267.39 65.32L267.35 65.28Q276.90 65.43 284.68 62.27L284.70 62.29L284.75 62.34Q285.48 59.54 287.31 54.11L287.37 54.16L283.28 55.95L283.26 55.94Q283.95 53.68 284.90 51.48L285.00 51.58L284.90 51.48Q277.56 54.34 269.63 54.49L269.61 54.47L269.65 54.51Q261.76 54.77 254.12 52.64L254.15 52.66L254.16 52.67Q255.32 61.03 255.32 69.55L255.39 69.62L255.44 69.67Q255.33 73.23 255.11 76.90L255.18 76.96L255.13 76.91Q255.63 77.28 256.74 77.86L256.79 77.91L256.74 77.86Q257.40 77.43 258.65 76.76L258.79 76.90L258.68 76.80Q258.71 78.37 258.27 81.31L258.25 81.29L258.20 81.23Q258.94 81.54 259.75 81.98L259.80 82.03L259.88 82.11Q265.23 78.73 268.83 78.73L268.75 78.65L268.67 78.57Q271.38 78.70 273.66 79.95L273.64 79.94L273.59 79.88Q274.25 81.87 274.32 83.70L274.39 83.77L274.34 83.72Q274.51 88.73 272.52 90.86L272.55 90.89L272.52 90.86Q269.82 93.15 265.49 93.59L265.58 93.69L265.46 93.56Q263.67 93.75 262.35 93.61L262.47 93.73L262.46 93.72Q260.73 93.38 259.26 92.72L259.26 92.72L259.31 92.41L258.95 92.48L259.08 92.62Q257.53 91.65 256.50 89.08L256.37 88.95L256.36 88.94Q253.91 91.78 250.68 95.89L250.58 95.79L250.62 95.83Q251.23 97.10 252.84 98.93L252.83 98.92L252.93 99.02Q254.80 102.35 260.23 103.31L260.29 103.37L260.28 103.36Q262.54 103.78 272.89 104.00Z"/><path d="M12 75 C154 15,167 122,328 23" stroke="#bae245" fill="none"/><path d="M8 91 C187 101,175 42,323 24" stroke="#8262e4" fill="none"/><path d="M4 123 C185 96,156 97,329 107" stroke="#50e676" fill="none"/><path d="M17 125 C174 118,163 62,339 36" stroke="#87da6c" fill="none"/><path d="M20 52 C160 22,188 80,332 58" stroke="#ad7adf" fill="none"/><path d="M6 33 C154 119,175 118,336 94" stroke="#6181df" fill="none"/><path d="M6 22 C170 31,164 104,322 84" stroke="#e448e4" fill="none"/><path d="M13 59 C157 38,192 99,324 99" stroke="#da6767" fill="none"/><path d="M4 48 C177 98,162 68,337 33" stroke="#edcc68" fill="none"/><path d="M7 87 C161 62,169 100,324 89" stroke="#e97f5c" fill="none"/><path d="M13 9 C171 134,163 55,329 22" stroke="#6ea8e2" fill="none"/><path d="M8 84 C156 75,184 106,332 43" stroke="#7ae5e5" fill="none"/><path d="M12 59 C164 63,168 2,331 26" stroke="#6786e4" fill="none"/><path fill="#5e9bd8" d="M198.29 77.98L198.16 77.85L198.33 78.02Q194.65 77.65 192.26 80.40L192.36 80.50L192.40 80.54Q189.85 83.12 189.48 86.79L189.53 86.84L189.54 86.86Q189.15 90.87 191.25 92.75L191.22 92.72L191.27 92.77Q193.38 94.66 197.42 94.43L197.45 94.47L197.35 94.37Q201.44 94.13 203.57 92.81L203.57 92.81L203.52 92.75Q205.79 90.69 205.79 87.68L205.71 87.60L205.79 87.68Q205.70 86.86 205.55 86.13L205.56 86.13L205.67 86.24Q205.65 82.84 203.52 80.24L203.67 80.39L203.52 80.24Q201.50 77.75 198.27 77.97ZM197.43 99.37L197.35 99.29L197.47 99.41Q189.04 99.43 186.33 97.96L186.33 97.96L186.18 97.81Q184.36 96.50 183.99 93.20L183.89 93.09L183.83 93.04Q183.76 91.71 183.83 90.32L183.91 90.40L183.97 90.46Q184.10 88.46 184.10 87.58L184.20 87.68L184.06 87.54Q185.01 82.10 185.30 80.78L185.27 80.75L185.22 80.70Q186.29 77.15 187.91 74.43L187.87 74.39L187.71 74.23Q193.04 65.97 204.49 53.71L204.33 53.55L204.42 53.64Q209.53 53.03 213.79 51.49L213.82 51.52L213.83 51.53Q200.49 65.79 194.32 73.94L194.50 74.12L194.42 74.04Q196.30 73.06 198.80 73.06L198.74 73.00L198.80 73.06Q205.24 73.11 208.17 76.85L208.12 76.80L208.06 76.74Q210.64 79.91 211.30 86.74L211.29 86.73L211.46 86.90Q211.48 88.17 211.48 89.34L211.54 89.40L211.49 89.35Q211.60 95.48 207.34 97.54L207.28 97.47L207.26 97.45Q205.00 98.72 197.51 99.45ZM201.86 104.02L201.79 103.95L201.89 104.05Q204.29 103.88 208.11 104.03L208.16 104.08L208.16 104.08Q211.33 104.24 214.34 102.84L214.38 102.89L214.29 102.80Q216.39 101.23 216.39 97.78L216.38 97.76L216.51 97.89Q216.38 96.81 216.05 94.90L216.03 94.88L216.15 95.00Q215.78 93.05 215.78 92.17L215.85 92.24L215.77 92.16Q214.11 83.08 211.03 79.41L211.10 79.49L210.93 79.32Q210.88 79.19 210.59 78.75L210.67 78.83L210.04 78.36L209.91 78.30L209.93 78.32Q209.23 77.32 208.05 75.48L207.92 75.35L207.94 75.37Q206.29 73.65 202.47 72.76L202.49 72.79L202.49 72.79Q204.69 69.55 210.41 62.43L210.46 62.48L218.72 52.38L218.55 52.21Q215.59 53.95 210.97 55.42L211.10 55.56L211.08 55.53Q212.86 53.64 216.31 49.82L216.31 49.83L216.16 49.68Q211.54 51.73 204.05 52.83L204.03 52.81L204.05 52.83Q193.06 64.24 187.34 73.78L187.43 73.88L187.33 73.77Q184.34 78.57 183.24 90.61L183.33 90.70L183.39 90.76Q183.21 91.83 183.35 93.66L183.26 93.57L183.39 93.70Q183.45 96.99 185.58 98.75L185.52 98.69L185.63 98.80Q186.28 99.01 186.21 99.09L186.34 99.22L186.20 99.07Q186.99 100.90 188.54 101.71L188.47 101.65L188.53 101.70Q191.39 103.09 195.13 103.46L195.00 103.33L195.17 103.49Q195.12 103.45 201.88 104.04ZM201.41 82.35L201.46 82.40L201.32 82.26Q202.40 82.02 204.23 82.97L204.40 83.14L204.26 83.00Q205.02 84.93 205.02 86.18L205.07 86.23L204.97 86.13Q205.39 89.78 203.55 91.69L203.50 91.63L203.47 91.61Q201.55 93.14 197.52 93.73L197.53 93.74L197.34 93.55Q194.68 93.68 193.65 93.16L193.69 93.21L193.70 93.22Q193.21 92.21 193.21 91.63L193.24 91.65L193.19 91.61Q192.84 85.38 198.50 82.89L198.55 82.94L198.43 82.82Q199.89 82.15 201.36 82.30Z"/><path d="M12 34 C164 23,163 112,340 67" stroke="#59ddbc" fill="none"/><path d="M18 61 C157 30,163 9,329 4" stroke="#7995eb" fill="none"/><path d="M5 16 C177 131,185 46,328 120" stroke="#71e971" fill="none"/><path d="M3 79 C189 64,176 58,341 52" stroke="#8c8cec" fill="none"/><path d="M3 13 C179 121,173 64,326 108" stroke="#bd41e6" fill="none"/><path d="M12 103 C158 67,175 76,325 111" stroke="#97e07f" fill="none"/><path d="M8 44 C191 10,161 118,340 78" stroke="#a05fe1" fill="none"/><path d="M1 23 C167 67,162 91,334 74" stroke="#d38fe9" fill="none"/><path d="M2 108 C174 57,191 74,326 40" stroke="#e2a363" fill="none"/><path d="M20 59 C180 8,176 82,321 126" stroke="#4996e3" fill="none"/><path d="M19 20 C190 70,171 14,324 25" stroke="#e655c2" fill="none"/><path d="M14 91 C172 27,169 10,334 25" stroke="#66e63b" fill="none"/><path d="M14 69 C154 137,180 78,325 23" stroke="#97e07e" fill="none"/></svg>