<svg xmlns="http://www.w3.org/2000/svg" width="342" height="140" viewBox="0,0,342,140"><path fill="#eb9a7f" d="M215.89 99.97L215.76 99.85L215.81 99.90Q207.86 100.32 205.93 95.80L206.03 95.90L206.04 95.91Q207.41 93.95 210.45 90.46L210.52 90.54L210.48 90.50Q211.57 94.54 217.42 94.77L217.40 94.74L217.36 94.71Q223.93 94.83 227.12 92.24L227.10 92.22L227.21 92.33Q229.86 89.13 229.71 83.86L229.72 83.87L229.80 83.95Q229.37 73.97 220.04 74.41L220.01 74.39L220.16 74.54Q214.56 74.71 211.15 77.16L211.23 77.24L210.57 76.88L210.21 76.66L210.06 76.51Q210.78 70.42 210.56 65.08L210.50 65.03L210.59 65.12Q210.36 59.99 209.69 53.54L209.61 53.46L209.66 53.51Q216.77 55.36 224.18 55.14L224.30 55.26L224.16 55.12Q231.70 55.10 238.67 52.66L238.52 52.51L237.51 55.57L237.51 55.58Q236.90 57.04 236.53 58.67L236.53 58.67L236.51 58.65Q230.37 60.59 222.81 60.59L222.83 60.61L222.96 60.74Q220.11 60.71 217.22 60.41L217.11 60.30L217.12 60.31Q217.11 61.78 216.45 70.45L216.39 70.40L216.37 70.37Q218.05 69.53 222.05 69.24L222.03 69.22L222.09 69.28Q229.20 69.57 232.01 72.83L232.00 72.81L232.07 72.89Q234.79 75.90 235.31 83.38L235.22 83.29L235.20 83.28Q235.71 91.41 233.34 95.34L233.36 95.37L233.33 95.33Q229.55 99.19 223.10 99.63L222.95 99.48L223.03 99.56Q220.96 99.56 215.77 99.86ZM227.55 104.30L227.71 104.46L227.57 104.32Q234.30 104.53 238.01 102.39L238.02 102.40L237.92 102.29Q239.92 99.40 239.92 95.33L239.89 95.30L239.97 95.38Q239.95 89.36 238.09 81.35L238.10 81.36L238.09 81.35Q237.31 77.90 234.93 75.16L235.04 75.26L234.98 75.28L234.55 74.70L233.91 74.35L233.91 74.35Q233.37 73.00 232.11 71.67L232.01 71.57L232.03 71.66L232.03 71.66Q229.14 68.47 221.95 68.47L221.89 68.41L221.41 68.45L221.43 68.47Q221.53 67.31 221.90 65.16L221.88 65.14L221.99 65.25Q231.58 65.36 239.44 62.17L239.58 62.32L239.46 62.19Q240.38 59.56 242.23 54.07L242.17 54.02L238.13 55.90L238.05 55.82Q238.87 53.68 239.83 51.45L239.72 51.33L239.76 51.38Q232.31 54.23 224.31 54.38L224.23 54.30L224.34 54.41Q216.26 54.56 208.55 52.41L208.50 52.35L208.64 52.50Q209.86 60.97 209.86 69.57L209.89 69.60L209.88 69.59Q209.84 73.25 209.62 76.96L209.63 76.97L209.77 77.12Q210.12 77.31 211.23 77.91L211.24 77.91L211.25 77.92Q211.93 77.49 213.18 76.82L213.21 76.85L213.32 76.96Q213.20 78.40 212.76 81.36L212.75 81.35L212.65 81.26Q213.57 81.72 214.38 82.17L214.37 82.16L214.29 82.07Q219.84 78.81 223.47 78.81L223.41 78.74L223.36 78.70Q225.90 78.65 228.20 79.91L228.20 79.91L228.20 79.91Q228.91 81.95 228.98 83.80L228.95 83.76L228.97 83.79Q229.16 88.87 227.16 91.01L227.29 91.14L227.11 90.97Q224.54 93.44 220.17 93.89L220.21 93.92L220.18 93.90Q218.20 93.92 216.87 93.77L216.92 93.82L216.93 93.83Q215.23 93.54 213.75 92.88L213.76 92.88L213.73 92.48L213.51 92.71L213.52 92.72Q211.99 91.78 210.95 89.18L211.03 89.26L210.90 89.13Q208.43 92.00 205.17 96.15L205.02 96.00L205.18 96.16Q205.71 97.36 207.34 99.21L207.35 99.22L207.32 99.19Q209.43 102.78 214.91 103.74L214.96 103.79L214.87 103.70Q217.22 104.19 227.66 104.42Z"/><path d="M15 88 C160 13,191 14,334 24" stroke="#eb7979" fill="none"/><path d="M16 56 C171 62,185 78,330 99" stroke="#e7cf87" fill="none"/><path d="M10 62 C156 82,168 127,341 34" stroke="#60eba5" fill="none"/><path d="M8 92 C178 33,176 73,330 12" stroke="#e33535" fill="none"/><path d="M17 5 C154 102,166 88,328 62" stroke="#d58aee" fill="none"/><path d="M8 89 C162 70,159 53,323 53" stroke="#5fe75f" fill="none"/><path d="M13 2 C157 111,177 123,336 26" stroke="#68ddc0" fill="none"/><path d="M7 9 C158 73,187 35,325 123" stroke="#aae86d" fill="none"/><path fill="#d3f07f" d="M164.37 59.48L164.44 59.55L161.46 59.83L161.32 59.68Q157.01 59.97 156.56 63.90L156.68 64.01L156.61 63.94Q156.45 65.34 156.52 67.27L156.56 67.30L156.47 67.22Q156.66 71.11 159.11 73.71L158.95 73.55L159.10 73.69Q161.46 76.21 165.16 75.91L165.26 76.01L165.28 76.02Q169.14 75.59 170.62 73.81L170.62 73.80L170.63 73.82Q172.76 72.09 173.28 67.72L173.31 67.75L173.35 67.79Q173.80 63.35 171.35 61.72L171.43 61.79L171.37 61.74Q169.67 60.19 164.48 59.59ZM176.25 77.58L176.20 77.54L173.68 81.98L173.61 81.91Q168.46 91.35 161.12 99.28L161.07 99.23L161.13 99.29Q157.92 99.56 152.66 101.12L152.56 101.02L152.60 101.06Q162.96 88.83 169.11 79.49L169.19 79.56L169.23 79.60Q167.26 80.90 164.07 81.04L163.96 80.93L163.99 80.95Q158.19 81.31 155.22 77.45L155.20 77.43L155.18 77.41Q152.87 74.36 150.72 65.46L150.73 65.48L150.64 65.39Q150.65 64.51 150.36 62.69L150.39 62.72L150.34 62.68Q150.10 60.91 150.10 60.03L150.12 60.05L150.06 59.99Q150.07 56.52 152.15 55.34L152.05 55.24L152.14 55.33Q154.51 53.84 158.14 53.84L158.12 53.82L158.22 53.92Q164.30 53.78 164.30 53.78L164.35 53.82L164.46 53.93Q168.58 53.91 171.03 54.28L171.08 54.34L170.95 54.20Q175.11 54.74 176.89 55.70L176.96 55.77L177.01 55.82Q179.56 57.18 179.93 60.59L179.91 60.57L180.07 60.73Q180.07 61.17 179.69 66.36L179.57 66.23L179.72 66.38Q178.84 70.39 178.40 72.02L178.54 72.17L178.35 71.98Q177.75 74.86 176.27 77.60ZM180.03 82.33L179.97 82.26L179.92 82.22Q181.79 77.87 182.83 69.49L182.92 69.58L182.95 69.61Q183.34 65.19 183.27 63.48L183.30 63.51L183.37 63.58Q183.29 59.95 180.99 58.17L180.93 58.11L180.31 57.86L180.31 57.86Q179.76 56.34 177.98 55.08L178.01 55.11L178.07 55.18Q173.58 53.20 164.25 52.91L164.22 52.88L164.37 53.03Q162.44 52.95 157.69 52.95L157.62 52.87L157.71 52.97Q154.32 52.98 151.43 54.32L151.30 54.19L151.35 54.24Q149.08 55.75 149.23 59.31L149.34 59.42L149.26 59.33Q149.72 61.21 150.09 65.13L150.07 65.12L150.15 65.19Q151.17 70.14 151.69 71.77L151.84 71.92L151.68 71.76Q152.89 75.49 154.74 78.01L154.68 77.94L154.79 78.06Q155.17 78.59 155.91 79.33L155.93 79.34L156.06 79.48Q156.55 80.34 157.81 82.11L157.80 82.10L157.70 82.01Q160.71 84.79 164.49 85.16L164.44 85.12L164.41 85.08Q160.64 90.21 157.60 93.91L157.73 94.04L150.65 102.52L150.64 102.51Q154.93 100.95 158.12 100.28L158.27 100.44L158.15 100.31Q156.67 102.02 153.64 105.36L153.77 105.49L153.77 105.49Q159.71 103.65 165.78 103.57L165.79 103.58L165.76 103.55Q170.35 98.58 178.80 84.50L178.68 84.39L178.73 84.58L178.80 84.66Q179.33 83.26 180.00 82.29ZM168.21 64.21L168.13 64.13L168.23 64.23Q169.47 64.06 170.36 64.29L170.23 64.16L170.26 64.19Q171.60 64.48 172.34 64.70L172.37 64.74L172.30 64.66Q172.50 65.39 172.65 66.20L172.69 66.25L172.73 66.28Q172.89 67.11 172.66 67.85L172.67 67.85L172.60 67.78Q172.60 71.20 170.31 73.35L170.27 73.31L170.29 73.33Q168.37 75.26 165.18 75.19L165.11 75.12L165.16 75.16Q164.37 75.18 161.40 74.59L161.34 74.53L161.47 74.66Q160.94 72.87 160.94 71.47L161.01 71.53L160.91 71.43Q160.85 71.00 160.85 70.55L160.87 70.58L160.81 70.52Q160.75 66.16 165.20 64.60L165.33 64.74L165.18 64.58Q166.66 64.28 168.29 64.28Z"/><path fill="#82dd64" d="M107.46 77.94L107.51 78.00L107.43 77.91Q104.05 77.87 101.64 80.65L101.49 80.49L101.57 80.58Q99.08 83.27 98.71 86.98L98.81 87.08L98.77 87.04Q98.41 91.13 100.53 93.02L100.44 92.94L100.48 92.98Q102.54 94.81 106.62 94.59L106.70 94.68L106.68 94.66Q110.65 94.25 112.80 92.92L112.91 93.03L112.76 92.88Q115.17 90.91 115.17 87.88L115.17 87.88L115.16 87.87Q115.01 86.98 114.86 86.24L114.91 86.29L114.84 86.22Q115.07 83.04 112.92 80.40L112.86 80.34L112.83 80.32Q110.86 77.86 107.60 78.08ZM106.74 99.68L106.79 99.73L106.76 99.70Q98.25 99.71 95.51 98.23L95.42 98.14L95.47 98.19Q93.41 96.64 93.03 93.31L93.01 93.28L92.98 93.25Q92.94 91.95 93.01 90.55L93.11 90.64L93.09 90.62Q93.33 88.71 93.33 87.82L93.28 87.77L93.25 87.74Q94.25 82.29 94.54 80.96L94.43 80.84L94.40 80.81Q95.36 77.11 96.99 74.36L96.93 74.31L97.03 74.40Q102.11 65.78 113.67 53.41L113.68 53.42L113.84 53.57Q118.87 52.83 123.17 51.27L123.23 51.33L123.23 51.33Q109.83 65.79 103.60 74.02L103.76 74.17L103.62 74.03Q105.64 73.16 108.16 73.16L108.14 73.14L108.09 73.09Q114.49 73.04 117.45 76.82L117.51 76.88L117.47 76.84Q120.04 80.00 120.71 86.90L120.79 86.98L120.82 87.01Q120.95 88.40 120.95 89.58L120.98 89.61L120.96 89.59Q120.90 95.61 116.61 97.69L116.54 97.62L116.67 97.76Q114.17 98.80 106.61 99.55ZM111.12 104.28L111.23 104.39L111.17 104.33Q113.58 104.15 117.44 104.30L117.46 104.33L117.45 104.31Q120.76 104.58 123.80 103.18L123.67 103.04L123.66 103.04Q125.83 101.51 125.83 98.03L125.96 98.15L125.92 98.11Q125.87 97.10 125.54 95.17L125.57 95.21L125.51 95.14Q125.15 93.20 125.15 92.31L125.25 92.41L125.20 92.35Q123.59 83.26 120.48 79.55L120.47 79.54L120.39 79.46Q120.21 79.21 119.91 78.76L119.93 78.78L119.30 78.30L119.30 78.37L119.25 78.32Q118.54 77.32 117.35 75.47L117.32 75.43L117.30 75.42Q115.54 73.58 111.69 72.69L111.66 72.66L111.69 72.69Q114.09 69.61 119.87 62.42L119.99 62.54L128.16 52.18L128.03 52.06Q125.08 53.85 120.41 55.33L120.37 55.29L120.51 55.42Q122.23 53.45 125.71 49.59L125.58 49.45L125.61 49.48Q120.93 51.55 113.38 52.67L113.36 52.65L113.52 52.81Q102.33 64.22 96.55 73.85L96.52 73.82L96.61 73.91Q93.60 78.76 92.49 90.91L92.48 90.90L92.52 90.94Q92.29 91.97 92.44 93.83L92.55 93.93L92.40 93.78Q92.65 97.30 94.80 99.07L94.68 98.95L94.74 99.01Q95.54 99.37 95.47 99.45L95.34 99.32L95.38 99.36Q96.20 101.21 97.75 102.03L97.81 102.08L97.68 101.95Q100.58 103.37 104.36 103.75L104.28 103.67L104.41 103.80Q104.29 103.67 111.11 104.27ZM110.78 82.53L110.71 82.46L110.67 82.42Q111.81 82.23 113.67 83.19L113.75 83.27L113.73 83.26Q114.40 85.11 114.40 86.37L114.31 86.28L114.33 86.30Q114.76 89.99 112.90 91.91L112.83 91.84L112.93 91.94Q110.70 93.19 106.63 93.78L106.73 93.89L106.70 93.86Q103.85 93.83 102.81 93.31L102.83 93.32L102.89 93.39Q102.57 92.54 102.57 91.95L102.57 91.95L102.43 91.81Q102.01 85.46 107.72 82.94L107.69 82.92L107.68 82.91Q109.23 82.31 110.71 82.46Z"/><path d="M7 9 C187 10,162 113,326 106" stroke="#93eabf" fill="none"/><path d="M16 76 C185 89,160 25,332 108" stroke="#3c65e0" fill="none"/><path d="M7 13 C167 73,190 12,338 74" stroke="#4893de" fill="none"/><path d="M21 21 C169 11,161 31,327 44" stroke="#b5e287" fill="none"/><path d="M9 110 C173 10,173 97,327 135" stroke="#ed6262" fill="none"/><path d="M13 47 C153 48,152 97,331 18" stroke="#4dc2e9" fill="none"/><path d="M16 70 C169 77,178 111,328 25" stroke="#caea6a" fill="none"/><path d="M7 54 C163 71,157 79,340 98" stroke="#77e8cc" fill="none"/><path d="M17 127 C180 85,160 82,335 27" stroke="#ec82ec" fill="none"/><path d="M2 82 C174 33,183 9,332 48" stroke="#e7e77d" fill="none"/><path d="M13 7 C161 26,155 21,324 129" stroke="#deaa77" fill="none"/><path d="M7 15 C153 90,182 97,321 45" stroke="#77dc55" fill="none"/><path d="M7 52 C179 57,152 98,324 27" stroke="#e4b280" fill="none"/><path d="M16 99 C184 55,176 61,341 19" stroke="#e377e3" fill="none"/><path d="M10 128 C173 131,172 24,326 89" stroke="#e2e26e" fill="none"/><path d="M5 118 C155 116,187 127,324 5" stroke="#65e665" fill="none"/><path d="M11 34 C188 64,151 57,335 69" stroke="#eb8da5" fill="none"/><path d="M18 20 C157 63,175 43,324 131" stroke="#c55ee8" fill="none"/><path d="M16 48 C151 89,184 123,329 93" stroke="#ed86a0" fill="none"/><path d="M17 26 C190 73,168 114,330 123" stroke="#e95cc6" fill="none"/><path d="M7 93 C154 121,155 45,325 52" stroke="#7997f0" fill="none"/><path d="M17 79 C188 44,185 30,323 15" stroke="#93e5bc" fill="none"/><path d="M4 87 C186 32,157 70,331 15" stroke="#e556e5" fill="none"/><path d="M19 41 C151 80,157 1,334 49" stroke="#d1e792" fill="none"/><path fill="#ef7a97" d="M277.44 77.93L277.61 78.09L277.54 78.02Q273.91 77.73 271.50 80.51L271.55 80.55L271.50 80.50Q269.18 83.37 268.81 87.08L268.85 87.12L268.73 87.00Q268.29 91.01 270.40 92.90L270.39 92.89L270.39 92.88Q272.61 94.88 276.69 94.66L276.64 94.62L276.71 94.68Q280.76 94.37 282.91 93.03L282.91 93.03L282.81 92.93Q285.04 90.79 285.04 87.75L285.13 87.84L285.09 87.80Q285.16 87.12 285.01 86.38L285.02 86.39L284.85 86.23Q284.98 82.95 282.83 80.32L282.91 80.40L282.84 80.32Q280.73 77.74 277.47 77.96ZM276.64 99.58L276.67 99.61L276.64 99.58Q268.25 99.71 265.51 98.23L265.43 98.15L265.35 98.07Q263.40 96.63 263.02 93.30L263.11 93.39L263.09 93.36Q263.02 92.03 263.09 90.62L263.12 90.65L263.10 90.64Q263.38 88.76 263.38 87.87L263.32 87.81L263.24 87.73Q264.08 82.13 264.38 80.79L264.50 80.92L264.40 80.81Q265.46 77.21 267.09 74.47L267.05 74.43L266.96 74.34Q272.23 65.90 283.79 53.53L283.64 53.38L283.69 53.42Q288.95 52.90 293.25 51.35L293.18 51.28L293.21 51.31Q279.91 65.87 273.69 74.10L273.57 73.99L273.58 73.99Q275.60 73.12 278.12 73.12L278.03 73.03L278.02 73.02Q284.47 73.03 287.43 76.81L287.60 76.97L287.43 76.80Q290.18 80.14 290.85 87.04L290.83 87.01L290.82 87.01Q290.95 88.40 290.95 89.58L290.86 89.50L290.92 89.55Q290.94 95.65 286.64 97.72L286.69 97.77L286.73 97.81Q284.23 98.87 276.67 99.61ZM281.18 104.34L281.22 104.38L281.23 104.39Q283.71 104.28 287.57 104.43L287.50 104.37L287.43 104.29Q290.77 104.60 293.81 103.19L293.83 103.20L293.68 103.05Q295.92 101.59 295.92 98.11L295.80 97.99L295.83 98.02Q295.91 97.14 295.57 95.21L295.51 95.15L295.48 95.11Q295.28 93.32 295.28 92.43L295.14 92.29L295.31 92.46Q293.45 83.12 290.34 79.42L290.41 79.49L290.45 79.53Q290.17 79.17 289.87 78.72L289.92 78.78L289.39 78.39L289.15 78.22L289.24 78.31Q288.63 77.40 287.44 75.55L287.45 75.56L287.35 75.46Q285.64 73.68 281.79 72.79L281.82 72.82L281.80 72.81Q284.19 69.71 289.97 62.52L289.94 62.49L298.18 52.21L298.10 52.12Q294.98 53.75 290.31 55.23L290.37 55.29L290.41 55.33Q292.13 53.34 295.61 49.49L295.67 49.55L295.76 49.63Q290.98 51.60 283.42 52.71L283.54 52.83L283.50 52.79Q272.33 64.22 266.55 73.85L266.48 73.79L266.60 73.90Q263.63 78.79 262.52 90.94L262.39 90.81L262.53 90.95Q262.27 91.95 262.42 93.80L262.54 93.92L262.55 93.93Q262.57 97.21 264.72 98.99L264.70 98.98L264.81 99.09Q265.54 99.37 265.47 99.45L265.50 99.48L265.48 99.45Q266.17 101.19 267.73 102.01L267.75 102.03L267.68 101.95Q270.49 103.29 274.27 103.66L274.25 103.64L274.24 103.62Q274.29 103.68 281.11 104.27ZM280.66 82.41L280.69 82.43L280.73 82.48Q281.89 82.30 283.74 83.27L283.65 83.17L283.72 83.24Q284.36 85.07 284.36 86.33L284.34 86.31L284.31 86.28Q284.68 89.91 282.83 91.83L282.92 91.93L282.88 91.89Q280.73 93.22 276.65 93.81L276.79 93.95L276.64 93.79Q273.79 93.76 272.75 93.24L272.85 93.35L272.81 93.31Q272.41 92.39 272.41 91.79L272.40 91.78L272.43 91.81Q272.12 85.57 277.83 83.06L277.81 83.03L277.79 83.02Q279.27 82.35 280.75 82.50Z"/><path d="M6 111 C184 83,151 75,332 129" stroke="#e377c8" fill="none"/><path d="M12 91 C173 123,192 8,325 16" stroke="#73e790" fill="none"/><path d="M17 27 C185 118,178 117,334 120" stroke="#e645e6" fill="none"/><path d="M9 62 C184 126,151 97,325 30" stroke="#e287cb" fill="none"/><path fill="#d99b5d" d="M58.35 74.13L58.47 74.25L58.44 74.21Q60.08 74.31 62.82 74.01L62.76 73.94L62.75 73.94Q62.73 75.25 62.73 76.51L62.69 76.47L62.64 78.86L62.71 78.93Q61.07 78.93 59.44 79.07L59.31 78.94L59.39 79.02Q57.75 79.09 56.12 79.02L56.11 79.00L56.21 79.10Q50.60 91.05 43.93 100.02L43.93 100.02L43.92 100.01Q39.01 101.25 36.49 102.44L36.51 102.46L36.59 102.53Q44.43 91.25 50.35 79.03L50.39 79.06L45.24 79.02L45.39 79.17Q45.26 76.45 45.04 73.86L45.18 74.00L45.07 73.89Q48.84 74.25 52.84 74.25L52.73 74.15L56.51 67.02L56.62 67.13Q58.42 63.31 60.79 60.19L60.76 60.17L60.72 60.13Q57.87 60.60 54.75 60.60L54.62 60.47L54.71 60.56Q42.90 60.60 35.56 56.31L35.56 56.31L34.16 52.83L34.13 52.80Q33.54 51.25 32.80 49.54L32.73 49.48L32.89 49.63Q41.26 54.67 52.38 55.11L52.31 55.05L52.29 55.03Q62.29 55.46 72.29 51.61L72.42 51.74L72.46 51.78Q71.93 52.44 70.97 54.15L71.14 54.31L70.97 54.15Q64.10 63.58 58.54 74.32ZM74.12 56.85L74.09 56.82L76.16 53.04L76.12 53.00Q74.13 53.82 70.87 55.23L70.92 55.28L71.33 54.73L71.43 54.83Q71.60 54.48 71.82 54.25L71.71 54.14L71.73 54.16Q72.61 52.97 74.02 50.38L73.95 50.31L74.01 50.36Q63.56 54.73 52.37 54.29L52.31 54.23L52.34 54.26Q40.73 53.84 31.47 48.06L31.32 47.91L31.41 48.01Q33.47 51.70 35.10 56.88L35.08 56.86L35.11 56.89Q37.18 58.08 38.74 58.67L38.77 58.70L38.67 58.60Q39.13 59.43 40.02 63.06L39.96 63.00L39.96 63.00Q46.12 65.46 56.87 65.16L56.73 65.02L56.90 65.19Q56.25 66.24 52.39 73.58L52.42 73.60L52.37 73.56Q48.38 73.57 44.53 73.20L44.58 73.25L44.52 73.19Q44.66 74.82 44.66 76.52L44.66 76.52L44.63 79.83L47.83 79.76L47.88 82.56L47.98 82.66Q40.33 97.02 34.92 103.98L34.80 103.85L34.80 103.86Q38.06 102.52 41.25 101.56L41.17 101.48L41.18 101.49Q39.79 103.21 37.12 106.55L37.24 106.66L37.12 106.55Q43.27 104.40 48.02 103.96L47.99 103.93L48.04 103.98Q53.69 96.58 59.76 83.40L59.93 83.56L66.46 83.80L66.61 83.95Q66.39 82.09 66.39 80.32L66.40 80.33L66.28 76.72L66.33 76.77Q65.93 76.89 64.86 76.97L64.76 76.87L64.86 76.97Q63.71 76.97 63.20 76.97L63.24 77.01L63.28 77.06Q63.23 76.79 63.31 76.49L63.29 76.47L63.28 75.94L63.31 75.97Q68.10 65.88 74.11 56.84Z"/><path d="M18 60 C156 106,180 5,324 94" stroke="#77e8af" fill="none"/><path d="M2 11 C176 20,164 80,331 27" stroke="#eaa561" fill="none"/><path d="M12 15 C175 121,179 51,330 28" stroke="#718fe9" fill="none"/><path d="M6 106 C170 25,158 15,336 76" stroke="#dab647" fill="none"/></svg>