<svg xmlns="http://www.w3.org/2000/svg" width="342" height="140" viewBox="0,0,342,140"><path d="M11 14 C168 127,171 32,332 44" stroke="#8df08d" fill="none"/><path d="M17 45 C161 40,164 7,328 133" stroke="#d6f188" fill="none"/><path d="M8 82 C154 34,181 89,338 5" stroke="#c75bea" fill="none"/><path d="M20 47 C189 1,155 4,323 114" stroke="#e287b5" fill="none"/><path d="M13 25 C156 7,161 22,331 107" stroke="#c75aeb" fill="none"/><path fill="#e344e3" d="M115.00 73.89L115.04 73.93L114.89 73.78Q116.40 73.87 118.89 73.61L118.85 73.57L118.79 73.51Q118.76 74.69 118.76 75.83L118.86 75.93L118.75 78.05L118.73 78.02Q117.26 78.03 115.78 78.17L115.78 78.16L115.80 78.18Q114.32 78.25 112.84 78.19L112.81 78.16L112.85 78.20Q107.81 89.11 101.76 97.26L101.77 97.26L101.71 97.21Q97.29 98.37 95.00 99.45L95.04 99.49L94.97 99.42Q102.34 89.43 107.72 78.32L107.67 78.27L103.12 78.37L103.00 78.24Q103.13 76.02 102.93 73.66L102.77 73.50L102.74 73.48Q106.25 73.89 109.89 73.89L109.75 73.75L113.16 67.27L113.23 67.34Q115.04 64.04 117.20 61.21L117.19 61.20L117.07 61.09Q114.37 61.41 111.54 61.41L111.58 61.45L111.47 61.34Q100.69 61.33 94.03 57.43L94.15 57.55L93.02 54.53L93.04 54.55Q92.29 52.93 91.62 51.38L91.74 51.50L91.75 51.52Q99.39 56.12 109.48 56.52L109.34 56.39L109.47 56.52Q118.54 56.90 127.62 53.40L127.64 53.42L127.57 53.35Q127.23 54.08 126.35 55.63L126.30 55.58L126.36 55.63Q120.04 64.13 115.00 73.88ZM129.23 58.10L129.19 58.06L131.07 54.62L131.05 54.61Q129.27 55.39 126.31 56.66L126.39 56.74L126.69 56.16L126.59 56.06Q126.85 55.86 127.05 55.65L127.16 55.76L127.14 55.74Q127.64 54.36 128.92 52.00L129.05 52.13L128.98 52.06Q119.55 56.09 109.39 55.69L109.36 55.67L109.47 55.77Q98.74 55.21 90.33 49.96L90.30 49.93L90.30 49.93Q92.13 53.24 93.61 57.95L93.59 57.93L93.61 57.95Q95.59 59.12 97.00 59.66L97.14 59.79L97.00 59.66Q97.39 60.38 98.20 63.68L98.03 63.51L98.21 63.69Q103.72 65.84 113.48 65.57L113.40 65.49L113.37 65.46Q112.86 66.49 109.36 73.16L109.35 73.15L109.41 73.21Q105.80 73.23 102.30 72.90L102.29 72.89L102.20 72.80Q102.43 74.37 102.43 75.92L102.47 75.96L102.51 79.03L105.39 78.95L105.40 81.45L105.29 81.34Q98.54 94.57 93.62 100.90L93.60 100.88L93.53 100.81Q96.34 99.44 99.23 98.57L99.29 98.62L99.21 98.55Q98.12 100.28 95.69 103.31L95.59 103.20L95.68 103.30Q101.28 101.36 105.59 100.96L105.46 100.83L105.45 100.81Q110.70 94.22 116.22 82.24L116.26 82.28L122.26 82.56L122.20 82.50Q122.16 80.98 122.16 79.36L122.15 79.35L122.13 76.18L122.10 76.14Q121.77 76.28 120.79 76.35L120.61 76.17L120.67 76.23Q119.70 76.30 119.23 76.30L119.24 76.31L119.29 76.36Q119.34 76.21 119.41 75.94L119.29 75.82L119.30 75.36L119.23 75.30Q123.82 66.35 129.27 58.14Z"/><path d="M9 71 C175 23,181 67,328 32" stroke="#8a8ae9" fill="none"/><path d="M8 99 C153 31,190 112,329 41" stroke="#80afdf" fill="none"/><path d="M17 69 C159 17,158 92,338 25" stroke="#d47353" fill="none"/><path fill="#50d7b5" d="M228.30 73.86L228.38 73.93L228.36 73.91Q229.75 73.89 232.24 73.62L232.19 73.57L232.24 73.62Q232.11 74.70 232.11 75.84L232.08 75.82L232.12 78.08L232.05 78.00Q230.71 78.15 229.23 78.29L229.17 78.23L229.15 78.20Q227.67 78.28 226.19 78.21L226.23 78.25L226.27 78.29Q221.18 89.14 215.12 97.29L215.00 97.16L215.05 97.21Q210.71 98.46 208.42 99.54L208.36 99.48L208.33 99.45Q215.60 89.35 220.98 78.25L221.07 78.33L216.27 78.18L216.42 78.33Q216.30 75.85 216.10 73.50L216.20 73.60L216.21 73.61Q219.55 73.85 223.18 73.85L223.16 73.83L226.50 67.28L226.50 67.28Q228.19 63.85 230.35 61.03L230.52 61.20L230.51 61.19Q227.63 61.34 224.81 61.34L224.83 61.36L224.79 61.33Q214.06 61.37 207.40 57.46L207.44 57.50L206.25 54.42L206.27 54.45Q205.71 53.01 205.03 51.46L204.94 51.37L205.02 51.45Q212.76 56.16 222.85 56.56L222.71 56.42L222.77 56.48Q231.89 56.92 240.98 53.42L240.84 53.28L241.02 53.46Q240.61 54.13 239.74 55.68L239.66 55.60L239.73 55.67Q233.35 64.10 228.30 73.86ZM242.55 58.09L242.56 58.10L244.31 54.53L244.35 54.58Q242.55 55.33 239.59 56.61L239.60 56.61L240.01 56.15L240.06 56.21Q240.17 55.84 240.37 55.64L240.41 55.68L240.38 55.64Q241.08 54.47 242.36 52.11L242.31 52.06L242.30 52.05Q232.94 56.15 222.78 55.75L222.80 55.77L222.84 55.81Q212.09 55.22 203.68 49.97L203.75 50.05L203.71 50.00Q205.49 53.27 206.97 57.98L207.07 58.08L206.93 57.94Q209.01 59.21 210.42 59.75L210.35 59.67L210.48 59.80Q210.68 60.33 211.48 63.63L211.39 63.54L211.46 63.61Q216.97 65.76 226.73 65.49L226.74 65.50L226.75 65.51Q226.31 66.62 222.81 73.28L222.85 73.32L222.79 73.25Q219.15 73.25 215.65 72.91L215.54 72.81L215.56 72.83Q215.76 74.37 215.76 75.92L215.70 75.86L215.68 78.87L218.81 79.04L218.75 81.47L218.71 81.43Q211.83 94.53 206.91 100.86L206.79 100.74L206.98 100.92Q209.69 99.46 212.58 98.58L212.58 98.58L212.59 98.60Q211.30 100.13 208.88 103.16L208.92 103.20L208.99 103.27Q214.62 101.37 218.93 100.96L218.86 100.89L218.80 100.83Q224.01 94.19 229.52 82.21L229.59 82.28L235.55 82.52L235.63 82.60Q235.41 80.89 235.41 79.28L235.46 79.33L235.48 76.19L235.43 76.14Q234.96 76.14 233.98 76.20L234.07 76.29L234.11 76.33Q233.03 76.29 232.56 76.29L232.63 76.37L232.56 76.29Q232.52 76.06 232.59 75.79L232.69 75.89L232.68 75.41L232.57 75.30Q237.10 66.30 242.56 58.09Z"/><path d="M17 52 C158 110,183 76,341 94" stroke="#93d4ea" fill="none"/><path d="M6 37 C168 124,181 32,331 32" stroke="#f0d47e" fill="none"/><path d="M10 111 C191 34,185 37,339 102" stroke="#85e9d0" fill="none"/><path d="M13 22 C153 9,150 99,337 117" stroke="#61e5e5" fill="none"/><path fill="#7979eb" d="M58.29 73.84L58.29 73.85L58.32 73.88Q59.73 73.87 62.22 73.60L62.26 73.64L62.11 73.49Q62.22 74.81 62.22 75.95L62.10 75.84L62.14 78.10L62.20 78.16Q60.69 78.13 59.21 78.26L59.16 78.21L59.12 78.17Q57.73 78.33 56.25 78.26L56.16 78.18L56.28 78.29Q51.07 89.03 45.01 97.18L45.04 97.20L45.15 97.32Q40.67 98.42 38.38 99.50L38.34 99.45L38.44 99.55Q45.71 89.46 51.09 78.36L51.06 78.32L46.40 78.31L46.37 78.28Q46.31 75.87 46.11 73.51L46.17 73.57L46.17 73.57Q49.55 73.85 53.19 73.85L53.21 73.88L56.63 67.40L56.44 67.22Q58.27 63.93 60.43 61.11L60.47 61.15L60.37 61.05Q57.73 61.44 54.90 61.44L54.84 61.38L54.79 61.32Q44.17 61.47 37.51 57.57L37.46 57.52L36.31 54.49L36.22 54.40Q35.68 52.99 35.01 51.44L34.90 51.33L34.93 51.36Q42.67 56.07 52.77 56.48L52.76 56.47L52.73 56.44Q61.85 56.88 70.94 53.38L71.03 53.47L71.01 53.45Q70.50 54.02 69.63 55.57L69.78 55.72L69.67 55.61Q63.24 63.99 58.20 73.75ZM72.64 58.17L72.62 58.16L74.35 54.57L74.20 54.42Q72.63 55.41 69.67 56.69L69.57 56.58L70.06 56.20L69.97 56.11Q70.22 55.89 70.42 55.69L70.45 55.72L70.30 55.57Q70.98 54.36 72.26 52.01L72.41 52.16L72.37 52.12Q63.01 56.22 52.84 55.81L52.84 55.80L52.69 55.65Q42.14 55.27 33.73 50.02L33.78 50.07L33.71 50.01Q35.54 53.32 37.02 58.03L36.97 57.97L37.08 58.09Q39.01 59.21 40.42 59.74L40.32 59.65L40.45 59.77Q40.66 60.32 41.47 63.62L41.53 63.68L41.49 63.64Q46.97 65.75 56.73 65.48L56.82 65.57L56.85 65.61Q56.21 66.52 52.71 73.18L52.74 73.21L52.77 73.24Q49.09 73.20 45.60 72.86L45.58 72.85L45.58 72.84Q45.82 74.43 45.82 75.98L45.69 75.85L45.76 78.95L48.66 78.89L48.78 81.49L48.74 81.46Q41.85 94.55 36.94 100.88L36.93 100.87L36.82 100.76Q39.63 99.40 42.52 98.52L42.59 98.60L42.51 98.52Q41.38 100.21 38.96 103.24L38.91 103.19L39.02 103.30Q44.60 101.35 48.91 100.94L48.83 100.86L48.79 100.82Q54.13 94.32 59.65 82.34L59.66 82.35L65.57 82.54L65.68 82.65Q65.52 81.01 65.52 79.40L65.42 79.29L65.44 76.15L65.55 76.26Q65.11 76.29 64.14 76.36L64.08 76.30L64.08 76.30Q63.11 76.38 62.64 76.38L62.56 76.30L62.65 76.39Q62.58 76.12 62.65 75.85L62.72 75.92L62.68 75.41L62.74 75.47Q67.16 66.36 72.61 58.15Z"/><path d="M9 123 C191 135,191 79,327 87" stroke="#e25ee2" fill="none"/><path d="M11 25 C152 129,166 135,322 82" stroke="#45e26c" fill="none"/><path d="M8 103 C173 109,170 49,339 20" stroke="#7de77d" fill="none"/><path fill="#73cdec" d="M159.05 97.15L159.09 97.19L158.93 97.03Q156.49 97.21 153.73 96.47L153.85 96.59L153.77 96.51Q151.60 94.87 151.33 91.98L151.36 92.01L151.27 91.92Q151.34 91.72 151.68 87.08L151.58 86.98L151.53 86.93Q153.48 86.72 157.04 86.05L157.08 86.09L156.72 87.41L156.75 87.44Q156.28 90.53 158.77 91.54L158.68 91.45L158.60 91.38Q160.13 92.10 163.84 92.10L163.73 91.99L163.90 92.17Q166.72 91.89 167.06 91.76L166.91 91.61L166.88 91.58Q168.54 91.35 169.82 90.48L169.85 90.51L169.83 90.49Q172.27 88.76 171.94 85.06L172.02 85.15L171.92 85.04Q171.71 80.86 168.64 78.10L168.59 78.04L168.53 77.98Q165.65 75.41 161.28 75.41L161.18 75.32L161.13 74.86L161.25 74.98Q161.87 74.86 163.42 74.72L163.37 74.68L163.47 74.78Q166.82 74.56 169.24 72.37L169.26 72.39L169.19 72.31Q171.57 70.09 171.84 66.79L171.83 66.79L171.83 66.78Q171.95 66.17 171.95 65.56L172.12 65.72L172.06 65.66Q172.05 62.96 169.62 61.35L169.59 61.31L169.68 61.40Q167.38 59.84 164.55 60.04L164.70 60.19L164.65 60.15Q162.31 59.82 160.15 60.56L160.25 60.66L160.18 60.59Q157.57 61.47 157.03 63.49L156.99 63.46L156.98 63.44Q156.75 64.90 156.89 66.24L156.90 66.26L156.97 66.33Q155.12 65.89 151.49 64.61L151.45 64.58L151.37 64.50Q150.98 61.54 151.04 60.06L151.03 60.05L151.06 60.08Q151.25 57.37 153.13 56.16L153.16 56.19L153.14 56.17Q155.61 55.07 158.44 55.07L158.40 55.04L158.54 55.17Q164.02 55.00 169.61 55.47L169.65 55.51L169.58 55.45Q178.52 56.18 177.99 62.84L178.02 62.88L178.12 62.98Q177.97 65.58 177.09 68.34L176.99 68.24L177.08 68.33Q175.44 73.76 171.27 75.38L171.25 75.35L171.31 75.41Q175.99 76.39 177.07 82.32L177.06 82.31L176.94 82.19Q177.33 84.19 177.46 87.76L177.47 87.77L177.46 87.76Q177.82 95.72 169.67 96.53L169.62 96.47L169.60 96.46Q168.31 96.57 158.95 97.04ZM168.20 101.04L168.31 101.16L168.30 101.15Q169.31 101.15 174.36 101.28L174.29 101.21L174.46 101.38Q177.40 101.36 180.29 100.21L180.46 100.38L180.44 100.36Q182.38 98.53 182.04 95.44L182.02 95.42L182.14 95.54Q181.92 93.16 181.38 90.06L181.33 90.02L181.40 90.08Q180.00 82.02 176.56 79.12L176.57 79.13L176.24 78.46L176.26 78.41L176.16 78.32Q179.38 75.88 180.73 68.14L180.76 68.18L180.75 68.17Q180.75 67.29 180.95 65.61L180.89 65.55L180.98 65.63Q181.18 64.36 181.05 63.14L180.94 63.04L181.01 63.11Q180.79 60.20 178.50 58.98L178.36 58.84L178.22 58.84L178.37 58.99Q177.80 57.20 175.78 56.26L175.65 56.13L175.72 56.20Q172.95 54.91 163.86 54.37L164.00 54.51L163.86 54.37Q161.00 54.34 158.17 54.34L158.25 54.42L158.14 54.31Q155.31 54.30 152.62 55.44L152.66 55.48L152.72 55.55Q150.41 56.73 150.41 59.83L150.39 59.81L150.49 59.91Q150.46 59.14 150.93 65.06L150.96 65.09L150.96 65.09Q151.51 65.24 154.40 66.31L154.36 66.27L154.45 66.37Q154.30 67.16 154.23 68.03L154.36 68.15L154.30 68.10Q154.29 68.96 154.36 69.90L154.48 70.02L154.48 70.03Q157.61 70.67 161.18 70.87L161.18 70.87L161.19 70.88Q161.01 67.27 162.97 65.79L162.84 65.67L162.88 65.71Q164.42 64.63 167.99 64.22L168.06 64.29L167.89 64.12Q170.02 64.23 171.03 64.56L170.94 64.47L171.01 64.55Q171.03 64.70 171.09 64.90L171.19 65.00L171.18 65.33L171.33 66.28L171.37 66.32Q171.32 66.61 171.25 66.88L171.27 66.90L171.18 66.81Q171.17 69.96 168.48 72.05L168.39 71.96L168.49 72.06Q166.83 73.63 163.26 73.96L163.22 73.92L163.31 74.01Q161.89 74.14 160.35 74.14L160.44 74.24L160.50 74.30Q160.52 74.86 160.79 76.07L160.78 76.06L160.75 76.03Q163.80 75.98 166.35 77.26L166.47 77.37L166.22 77.32L163.48 77.68L163.40 77.60Q163.46 78.20 163.66 79.28L163.67 79.28L163.66 79.27Q167.50 79.21 170.53 81.57L170.59 81.63L170.49 81.52Q170.85 82.16 171.39 85.05L171.42 85.08L171.46 85.12Q171.81 90.32 166.63 91.06L166.67 91.10L166.72 91.15Q162.84 91.44 161.83 91.37L161.83 91.38L161.91 91.45Q161.02 91.17 160.08 91.04L160.21 91.17L160.12 90.27L160.34 89.48L160.41 88.81L160.55 88.35L160.42 88.22Q158.77 88.38 157.36 88.72L157.51 88.87L157.35 88.71Q157.35 88.38 157.35 88.04L157.36 88.05L157.39 88.08Q157.40 87.68 157.40 87.28L157.47 87.36L157.35 87.23Q157.49 86.56 157.76 85.29L157.72 85.24L157.81 85.33Q154.36 85.59 151.06 86.19L151.12 86.25L151.11 86.24Q151.15 87.16 150.95 89.14L150.96 89.15L151.03 89.22Q150.69 91.07 150.69 92.15L150.85 92.31L150.73 92.18Q150.91 95.87 153.33 97.21L153.25 97.13L153.34 97.22Q155.83 101.13 164.18 100.79L164.36 100.97L164.33 100.95Q165.61 100.88 168.30 101.15Z"/><path fill="#de4848" d="M279.36 67.27L279.31 67.22L279.27 67.18Q273.62 67.19 270.39 65.30L270.44 65.35L270.43 65.34Q274.87 62.92 283.49 55.45L283.45 55.41L283.49 55.45Q284.73 55.08 287.02 54.00L287.09 54.07L287.05 54.03Q284.61 64.45 284.41 75.69L284.49 75.77L284.45 75.73Q284.34 87.06 286.23 97.83L286.12 97.72L286.15 97.75Q283.17 96.45 279.40 96.25L279.48 96.33L279.36 96.21Q279.16 88.88 279.16 81.68L279.29 81.80L279.17 81.69Q279.24 74.48 279.30 67.22ZM278.58 71.13L278.51 96.84L278.66 96.99Q280.71 96.89 282.39 97.23L282.43 97.26L282.42 97.25Q282.54 98.45 282.88 100.87L282.86 100.85L282.92 100.92Q287.96 101.85 292.27 105.82L292.25 105.80L292.22 105.78Q287.93 93.28 287.87 80.09L287.71 79.93L287.84 80.06Q287.67 66.83 290.90 54.04L290.99 54.14L290.96 54.11Q289.90 54.72 287.07 56.68L287.04 56.65L287.04 56.64Q287.40 55.32 287.94 52.63L288.09 52.79L288.08 52.77Q285.69 54.09 283.13 54.76L283.09 54.72L283.19 54.82Q276.35 60.96 268.74 65.00L268.79 65.05L268.73 64.99Q271.34 67.06 275.51 67.66L275.59 67.74L275.55 67.70Q274.28 68.52 272.00 70.41L272.08 70.49L272.03 70.44Q274.62 71.07 278.52 71.07L278.57 71.13Z"/><path d="M14 21 C182 125,172 106,335 124" stroke="#e6c974" fill="none"/><path d="M6 87 C158 47,154 47,339 57" stroke="#e77954" fill="none"/><path d="M14 103 C182 56,154 88,327 68" stroke="#dd4f96" fill="none"/><path d="M14 134 C161 61,167 87,330 62" stroke="#89e6e6" fill="none"/><path d="M5 75 C190 132,187 9,336 127" stroke="#59e2c0" fill="none"/><path d="M5 49 C190 77,151 82,321 116" stroke="#7692e4" fill="none"/><path d="M5 127 C157 67,182 124,335 58" stroke="#d98c3f" fill="none"/><path d="M2 59 C152 102,192 94,340 117" stroke="#f18cd8" fill="none"/><path d="M19 110 C184 50,168 35,332 103" stroke="#a5e269" fill="none"/><path d="M8 53 C186 47,157 126,337 16" stroke="#e97f5c" fill="none"/><path d="M3 58 C187 115,151 128,339 6" stroke="#6ae641" fill="none"/><path d="M8 67 C183 106,181 107,334 30" stroke="#b3d745" fill="none"/><path d="M9 24 C186 59,168 44,337 72" stroke="#deb63f" fill="none"/><path d="M5 138 C184 28,172 8,336 35" stroke="#d89e63" fill="none"/><path d="M14 23 C162 4,153 123,332 12" stroke="#e6e68e" fill="none"/><path d="M2 122 C153 39,179 1,326 11" stroke="#94ee76" fill="none"/><path d="M4 64 C159 74,162 30,322 119" stroke="#8787e2" fill="none"/><path d="M16 111 C184 85,167 58,330 16" stroke="#65d93f" fill="none"/><path d="M9 92 C191 15,167 33,334 20" stroke="#79cbe6" fill="none"/><path d="M20 49 C151 34,163 48,340 97" stroke="#c566e5" fill="none"/><path d="M15 116 C181 60,165 6,333 20" stroke="#9653d9" fill="none"/><path d="M15 41 C186 109,183 49,331 3" stroke="#b33eda" fill="none"/><path d="M20 17 C169 20,180 104,325 21" stroke="#d5d552" fill="none"/><path d="M4 17 C184 65,163 29,323 7" stroke="#72e3e3" fill="none"/><path d="M16 90 C167 13,190 123,327 126" stroke="#54e779" fill="none"/></svg>