<svg xmlns="http://www.w3.org/2000/svg" width="342" height="140" viewBox="0,0,342,140"><path d="M7 14 C182 43,164 98,335 91" stroke="#d651b5" fill="none"/><path d="M18 98 C158 121,175 108,324 49" stroke="#a3e78c" fill="none"/><path d="M12 103 C167 16,183 53,338 94" stroke="#6363e7" fill="none"/><path d="M1 91 C182 72,182 3,322 69" stroke="#54b7d8" fill="none"/><path d="M5 37 C180 22,170 26,322 109" stroke="#61dfa0" fill="none"/><path d="M3 5 C190 9,169 79,333 46" stroke="#92e6bc" fill="none"/><path d="M9 9 C182 29,152 32,340 98" stroke="#8ce66f" fill="none"/><path d="M11 35 C152 94,171 84,323 77" stroke="#e1af7e" fill="none"/><path fill="#4343e9" d="M221.10 77.75L221.01 77.65L221.15 77.80Q217.66 77.52 215.34 80.20L215.23 80.08L215.27 80.13Q212.90 82.75 212.54 86.32L212.55 86.32L212.59 86.37Q212.16 90.22 214.19 92.04L214.30 92.15L214.31 92.15Q216.37 94.00 220.29 93.79L220.29 93.78L220.17 93.66Q224.22 93.50 226.29 92.22L226.22 92.15L226.28 92.21Q228.29 90.01 228.29 87.08L228.28 87.07L228.35 87.14Q228.27 86.35 228.13 85.63L228.25 85.76L228.19 85.69Q228.29 82.50 226.22 79.97L226.36 80.12L226.28 80.03Q224.14 77.43 221.00 77.65ZM220.26 98.54L220.36 98.64L220.27 98.54Q211.99 98.47 209.35 97.05L209.49 97.19L209.43 97.13Q207.52 95.72 207.17 92.51L207.12 92.46L207.12 92.46Q207.08 91.20 207.15 89.85L207.23 89.93L207.07 89.77Q207.39 88.02 207.39 87.16L207.42 87.19L207.30 87.07Q208.23 81.79 208.51 80.51L208.43 80.42L208.44 80.44Q209.43 76.92 211.00 74.28L210.87 74.15L210.98 74.26Q215.98 66.05 227.11 54.13L226.98 54.01L227.00 54.02Q232.03 53.49 236.17 51.99L236.16 51.98L236.22 52.04Q223.44 66.10 217.44 74.02L217.44 74.01L217.44 74.01Q219.17 72.96 221.59 72.96L221.64 73.01L221.66 73.02Q227.82 72.97 230.67 76.61L230.60 76.54L230.63 76.57Q233.25 79.76 233.89 86.40L233.75 86.25L233.78 86.29Q234.05 87.76 234.05 88.91L234.02 88.88L233.97 88.83Q233.97 94.68 229.83 96.68L229.89 96.75L229.94 96.79Q227.59 97.87 220.31 98.58ZM224.63 103.12L224.61 103.10L224.64 103.12Q227.05 103.04 230.76 103.18L230.71 103.13L230.68 103.10Q233.82 103.31 236.74 101.96L236.62 101.83L236.63 101.84Q238.85 100.49 238.85 97.13L238.83 97.12L238.74 97.02Q238.70 96.06 238.38 94.20L238.53 94.35L238.36 94.19Q238.11 92.40 238.11 91.54L238.07 91.51L238.05 91.49Q236.51 82.74 233.51 79.17L233.58 79.24L233.43 79.08Q233.43 79.01 233.15 78.59L233.05 78.49L232.50 78.09L232.44 78.09L232.30 77.95Q231.70 77.07 230.56 75.29L230.52 75.25L230.50 75.23Q228.82 73.47 225.11 72.62L225.19 72.70L225.20 72.71Q227.49 69.72 233.06 62.80L232.97 62.70L240.98 52.87L240.86 52.75Q238.00 54.46 233.50 55.88L233.42 55.80L233.39 55.78Q235.26 54.07 238.61 50.36L238.62 50.37L238.48 50.23Q234.13 52.37 226.85 53.44L226.79 53.38L226.70 53.29Q216.10 64.46 210.53 73.74L210.52 73.73L210.51 73.73Q207.62 78.40 206.55 90.10L206.49 90.05L206.60 90.16Q206.35 91.12 206.49 92.90L206.56 92.97L206.52 92.93Q206.71 96.26 208.78 97.97L208.79 97.98L208.82 98.01Q209.57 98.34 209.50 98.41L209.49 98.40L209.52 98.43Q210.05 99.96 211.55 100.74L211.70 100.90L211.56 100.76Q214.28 102.05 217.92 102.41L218.04 102.52L217.95 102.44Q217.96 102.44 224.53 103.02ZM224.23 82.08L224.07 81.93L224.09 81.95Q225.27 81.84 227.05 82.77L226.99 82.71L226.94 82.66Q227.59 84.45 227.59 85.66L227.56 85.63L227.55 85.62Q228.04 89.26 226.26 91.11L226.24 91.09L226.16 91.01Q224.14 92.35 220.21 92.92L220.19 92.89L220.20 92.90Q217.55 92.97 216.55 92.47L216.62 92.54L216.48 92.40Q216.17 91.59 216.17 91.02L216.27 91.12L216.25 91.10Q215.82 84.95 221.31 82.53L221.35 82.56L221.35 82.56Q222.72 81.86 224.14 82.00Z"/><path d="M9 10 C173 130,157 72,321 95" stroke="#9855dc" fill="none"/><path d="M18 62 C176 116,162 128,334 78" stroke="#42e542" fill="none"/><path d="M15 100 C172 121,165 18,339 4" stroke="#947bdf" fill="none"/><path d="M19 88 C161 78,187 80,322 9" stroke="#53dede" fill="none"/><path d="M4 112 C161 7,182 99,338 13" stroke="#e38b8b" fill="none"/><path d="M4 72 C185 101,183 103,335 17" stroke="#89e6e6" fill="none"/><path d="M17 72 C166 21,172 74,325 96" stroke="#54dd54" fill="none"/><path d="M13 116 C165 6,176 17,335 107" stroke="#b44bd7" fill="none"/><path d="M19 53 C172 117,151 79,331 82" stroke="#5050e1" fill="none"/><path d="M13 111 C179 130,180 83,333 122" stroke="#8ee23a" fill="none"/><path d="M6 52 C188 129,190 43,328 40" stroke="#f0a68e" fill="none"/><path d="M16 94 C175 57,153 68,324 15" stroke="#f083f0" fill="none"/><path d="M7 43 C181 43,170 115,331 132" stroke="#56b6d6" fill="none"/><path d="M20 6 C159 55,163 139,329 10" stroke="#e896e8" fill="none"/><path d="M18 114 C165 19,170 105,336 102" stroke="#e4c66c" fill="none"/><path d="M20 33 C167 88,152 135,325 10" stroke="#40e2b9" fill="none"/><path d="M16 82 C187 85,189 94,326 50" stroke="#e76969" fill="none"/><path d="M9 114 C174 55,182 6,328 51" stroke="#4747da" fill="none"/><path d="M7 19 C174 42,182 73,338 80" stroke="#ebd07f" fill="none"/><path d="M2 59 C181 113,170 98,337 27" stroke="#e49175" fill="none"/><path d="M9 44 C173 138,180 38,336 130" stroke="#4ed993" fill="none"/><path d="M14 127 C172 121,185 3,321 62" stroke="#6ce96c" fill="none"/><path d="M9 3 C162 138,165 21,332 103" stroke="#ed68ed" fill="none"/><path fill="#38b9e5" d="M277.85 77.83L277.94 77.92L277.89 77.86Q274.29 77.77 272.01 80.27L272.04 80.30L272.13 80.39Q269.73 82.77 269.45 86.34L269.45 86.35L269.53 86.43Q269.24 90.49 271.52 92.38L271.37 92.23L271.54 92.40Q273.70 94.17 277.70 94.02L277.70 94.03L277.67 94.00Q282.04 93.73 283.83 91.94L283.79 91.91L283.80 91.91Q285.74 89.21 285.52 85.79L285.53 85.79L285.58 85.85Q285.35 82.33 283.31 80.08L283.26 80.03L283.27 80.04Q281.28 77.84 277.86 77.84ZM277.72 60.07L277.83 60.17L277.74 60.09Q275.25 60.03 272.76 60.96L272.73 60.93L272.66 60.86Q270.16 62.29 270.59 65.79L270.74 65.93L270.74 65.94Q271.55 72.81 277.83 72.81L277.78 72.76L277.79 72.77Q280.88 73.29 282.74 71.15L282.74 71.16L282.66 71.08Q284.50 68.91 284.57 65.99L284.59 66.01L284.67 66.09Q284.66 62.65 283.30 61.51L283.43 61.64L283.44 61.65Q280.26 60.04 277.84 60.18ZM277.33 98.72L277.26 98.65L271.63 98.73L271.59 98.69Q268.67 98.63 266.18 96.99L266.26 97.07L266.27 97.08Q263.68 94.92 263.96 89.57L263.88 89.49L264.02 89.63Q264.83 76.73 271.61 74.88L271.49 74.75L271.53 74.79Q267.35 73.18 264.85 63.11L264.80 63.06L264.87 63.14Q264.20 60.47 264.34 58.97L264.40 59.03L264.24 58.86Q264.87 54.92 271.79 54.85L271.83 54.89L271.88 54.94Q279.72 54.72 282.43 55.07L282.54 55.18L282.50 55.14Q289.73 56.16 290.58 59.94L290.43 59.78L290.50 59.85Q290.64 60.93 290.64 61.64L290.68 61.68L290.76 61.76Q290.82 63.10 290.46 64.24L290.34 64.12L290.31 64.09Q289.30 72.15 283.81 75.00L283.72 74.92L283.79 74.99Q290.39 76.52 291.32 86.45L291.29 86.41L291.24 86.36Q291.14 86.56 291.22 88.98L291.30 89.06L291.25 89.02Q291.42 94.19 288.43 96.19L288.43 96.19L288.50 96.26Q285.95 97.92 277.38 98.77ZM281.60 103.07L281.53 102.99L287.94 103.27L287.80 103.13Q291.14 103.40 294.00 102.04L293.87 101.91L293.92 101.97Q295.98 100.53 296.12 97.03L296.21 97.11L296.15 97.05Q296.19 94.96 295.48 91.32L295.60 91.44L295.67 91.51Q293.85 82.70 289.93 79.20L289.95 79.22L289.50 78.41L289.15 77.92L288.92 77.47L288.89 77.45Q292.00 74.92 293.71 67.14L293.70 67.12L293.81 67.23Q293.63 66.34 293.77 64.77L293.87 64.87L293.90 64.90Q293.98 63.55 293.84 62.41L293.91 62.48L293.84 62.41Q293.52 59.67 291.31 58.74L291.33 58.76L291.40 58.76L291.11 58.61L291.14 58.64Q290.48 57.13 288.27 55.63L288.31 55.67L288.36 55.64L288.47 55.76Q284.70 54.41 277.06 54.05L277.05 54.04L277.07 54.07Q274.23 53.94 271.66 54.15L271.64 54.13L271.55 54.04Q270.09 54.15 267.67 54.44L267.69 54.46L267.59 54.37Q263.98 55.11 263.55 58.18L263.68 58.30L263.68 58.31Q263.58 59.21 263.66 60.71L263.58 60.63L263.60 60.65Q263.75 61.59 264.82 66.01L264.82 66.02L264.91 66.10Q266.47 72.23 269.75 74.73L269.58 74.55L269.81 74.79L269.79 74.77Q264.52 77.13 263.52 86.84L263.58 86.90L263.50 86.82Q263.28 91.09 263.28 92.81L263.14 92.67L263.14 92.67Q263.36 96.10 265.57 97.81L265.65 97.89L265.50 97.74Q265.87 98.04 266.37 98.40L266.31 98.34L266.34 98.37Q268.25 102.64 281.60 103.07ZM280.98 82.32L280.99 82.33L281.00 82.33Q282.70 82.18 284.35 83.04L284.23 82.92L284.37 83.06Q285.02 84.86 284.95 85.86L284.91 85.82L284.89 85.79Q284.97 86.38 284.97 86.95L285.05 87.02L284.94 86.91Q285.03 91.43 280.74 93.00L280.72 92.97L280.79 93.05Q279.20 93.53 277.70 93.31L277.68 93.29L277.68 93.30Q275.75 93.64 273.61 92.79L273.46 92.64L273.44 92.62Q273.10 91.57 273.24 89.71L273.21 89.68L273.26 89.73Q273.38 86.56 275.63 84.28L275.75 84.40L275.61 84.27Q277.89 82.01 280.89 82.22ZM281.37 64.50L281.37 64.51L281.34 64.47Q282.80 64.22 283.80 64.51L283.96 64.67L283.78 65.98L283.94 66.15Q283.88 68.73 282.17 70.62L282.11 70.56L282.23 70.68Q280.52 72.58 277.95 72.22L277.91 72.18L277.94 72.21Q276.10 72.23 275.32 71.80L275.26 71.74L275.21 71.70Q275.18 71.23 274.96 69.95L275.00 69.99L274.91 69.89Q274.54 67.38 276.83 65.81L276.83 65.81L276.67 65.66Q278.66 64.37 281.30 64.44Z"/><path fill="#e38362" d="M58.47 74.16L58.46 74.15L58.37 74.06Q59.90 74.09 62.54 73.81L62.51 73.78L62.59 73.86Q62.47 75.02 62.47 76.23L62.51 76.27L62.35 78.47L62.46 78.58Q60.79 78.48 59.22 78.62L59.30 78.70L59.35 78.75Q57.76 78.80 56.19 78.73L56.07 78.62L56.18 78.72Q50.90 90.36 44.48 99.00L44.46 98.98L44.33 98.85Q39.63 100.08 37.21 101.22L37.25 101.27L37.20 101.22Q45.05 90.65 50.76 78.87L50.58 78.69L45.76 78.79L45.77 78.81Q45.74 76.28 45.53 73.78L45.49 73.75L45.62 73.87Q49.11 74.08 52.96 74.08L52.90 74.01L56.43 67.05L56.61 67.23Q58.38 63.58 60.67 60.58L60.59 60.50L60.57 60.48Q57.66 60.79 54.66 60.79L54.70 60.83L54.71 60.84Q43.33 60.87 36.26 56.73L36.20 56.68L35.07 53.55L35.09 53.56Q34.48 52.02 33.76 50.38L33.61 50.23L33.72 50.34Q41.87 55.28 52.58 55.70L52.62 55.75L52.54 55.66Q62.14 56.06 71.78 52.35L71.83 52.40L71.82 52.39Q71.40 53.11 70.47 54.75L70.53 54.81L70.45 54.73Q63.71 63.69 58.36 74.04ZM73.49 57.34L73.60 57.45L75.39 53.61L75.37 53.59Q73.55 54.48 70.41 55.83L70.42 55.84L70.86 55.35L70.85 55.35Q70.94 54.94 71.16 54.73L71.19 54.76L71.16 54.73Q71.91 53.48 73.26 50.98L73.37 51.08L73.30 51.02Q63.28 55.27 52.50 54.84L52.56 54.90L52.52 54.87Q41.28 54.40 32.36 48.83L32.42 48.89L32.30 48.78Q34.27 52.32 35.84 57.31L35.91 57.38L35.85 57.32Q37.92 58.53 39.42 59.10L39.47 59.15L39.31 59.00Q39.60 59.64 40.45 63.14L40.50 63.18L40.54 63.22Q46.49 65.60 56.84 65.32L56.83 65.31L56.88 65.36Q56.19 66.31 52.48 73.37L52.46 73.36L52.53 73.43Q48.57 73.33 44.86 72.97L45.00 73.11L44.95 73.06Q45.06 74.60 45.06 76.24L45.15 76.33L45.09 79.48L48.30 79.55L48.27 82.16L48.23 82.12Q40.85 95.95 35.64 102.65L35.62 102.63L35.58 102.60Q38.63 101.21 41.69 100.28L41.68 100.27L41.72 100.31Q40.45 102.03 37.88 105.24L37.99 105.36L37.81 105.17Q43.84 103.21 48.40 102.78L48.37 102.75L48.33 102.70Q53.90 95.72 59.76 83.01L59.82 83.07L66.06 83.25L66.07 83.26Q66.10 81.72 66.10 80.01L66.10 80.00L66.05 76.60L65.98 76.53Q65.50 76.54 64.46 76.62L64.44 76.60L64.39 76.54Q63.40 76.66 62.90 76.66L63.01 76.77L62.98 76.75Q63.02 76.57 63.09 76.28L63.01 76.20L63.08 75.77L62.98 75.67Q67.68 66.03 73.47 57.32Z"/><path d="M3 110 C159 15,191 31,333 135" stroke="#de44de" fill="none"/><path d="M7 52 C156 91,162 32,324 34" stroke="#9ed863" fill="none"/><path d="M17 128 C172 2,183 8,338 96" stroke="#8cbae8" fill="none"/><path d="M3 110 C164 19,189 104,332 22" stroke="#dcb541" fill="none"/><path fill="#b0d542" d="M107.95 77.93L107.93 77.91L107.95 77.93Q104.29 77.77 102.01 80.27L102.07 80.33L102.09 80.35Q99.74 82.78 99.45 86.35L99.51 86.40L99.52 86.42Q99.11 90.36 101.39 92.25L101.44 92.30L101.35 92.21Q103.70 94.17 107.70 94.03L107.64 93.97L107.81 94.14Q112.15 93.83 113.93 92.05L113.83 91.95L113.94 92.06Q115.85 89.32 115.63 85.90L115.57 85.84L115.55 85.81Q115.41 82.40 113.38 80.15L113.40 80.17L113.36 80.12Q111.38 77.93 107.95 77.93ZM107.86 60.20L107.87 60.22L107.71 60.05Q105.11 59.88 102.61 60.81L102.65 60.85L102.71 60.91Q100.30 62.43 100.73 65.92L100.76 65.96L100.65 65.85Q101.52 72.78 107.80 72.78L107.92 72.90L107.95 72.94Q110.70 73.11 112.56 70.97L112.68 71.10L112.60 71.01Q114.47 68.89 114.54 65.96L114.68 66.10L114.66 66.08Q114.68 62.67 113.32 61.53L113.29 61.50L113.29 61.50Q110.18 59.95 107.75 60.10ZM107.23 98.62L107.21 98.61L101.56 98.67L101.58 98.69Q98.66 98.62 96.17 96.98L96.25 97.06L96.16 96.97Q93.72 94.97 94.01 89.61L93.89 89.49L93.86 89.47Q94.80 76.70 101.58 74.85L101.59 74.86L101.65 74.92Q97.28 73.12 94.78 63.05L94.84 63.11L94.90 63.17Q94.24 60.51 94.39 59.01L94.40 59.03L94.37 58.99Q94.98 55.03 101.90 54.96L101.80 54.86L101.85 54.91Q109.70 54.70 112.42 55.06L112.53 55.17L112.53 55.17Q119.67 56.10 120.53 59.88L120.49 59.85L120.58 59.94Q120.71 60.99 120.71 61.71L120.75 61.75L120.65 61.65Q120.63 62.91 120.27 64.05L120.29 64.08L120.36 64.14Q119.21 72.06 113.71 74.91L113.71 74.91L113.76 74.96Q120.31 76.44 121.24 86.36L121.28 86.41L121.15 86.27Q121.16 86.57 121.23 89.00L121.35 89.12L121.37 89.13Q121.48 94.24 118.48 96.24L118.42 96.18L118.40 96.16Q115.90 97.87 107.34 98.73ZM111.58 103.04L111.60 103.07L117.93 103.26L117.87 103.20Q121.02 103.28 123.88 101.92L123.89 101.93L123.98 102.03Q126.03 100.57 126.17 97.08L126.18 97.08L126.27 97.17Q126.21 94.97 125.49 91.33L125.56 91.40L125.60 91.44Q123.83 82.67 119.90 79.17L119.97 79.24L119.54 78.45L119.16 77.93L118.98 77.53L118.85 77.41Q122.05 74.97 123.77 67.19L123.79 67.22L123.68 67.11Q123.70 66.41 123.84 64.84L123.88 64.88L123.91 64.91Q124.07 63.64 123.93 62.50L123.83 62.41L123.95 62.52Q123.55 59.69 121.33 58.76L121.30 58.73L121.43 58.79L121.13 58.63L121.09 58.59Q120.54 57.18 118.33 55.69L118.43 55.79L118.48 55.76L118.37 55.65Q114.79 54.51 107.16 54.15L107.00 53.99L107.08 54.07Q104.13 53.84 101.56 54.05L101.59 54.08L101.62 54.11Q100.15 54.21 97.72 54.49L97.75 54.52L97.76 54.53Q94.09 55.22 93.66 58.29L93.66 58.28L93.68 58.30Q93.54 59.17 93.62 60.67L93.65 60.70L93.55 60.60Q93.76 61.59 94.83 66.02L94.80 65.99L94.98 66.17Q96.41 72.17 99.69 74.67L99.74 74.72L99.73 74.71L99.74 74.72Q94.63 77.25 93.63 86.95L93.51 86.83L93.54 86.86Q93.29 91.11 93.29 92.82L93.27 92.80L93.19 92.72Q93.29 96.04 95.51 97.75L95.54 97.78L95.66 97.90Q95.81 97.98 96.31 98.34L96.23 98.26L96.33 98.36Q98.33 102.71 111.67 103.14ZM111.00 82.34L111.04 82.37L111.00 82.34Q112.56 82.04 114.21 82.90L114.25 82.95L114.27 82.96Q115.07 84.91 115.00 85.91L115.03 85.94L114.87 85.77Q114.95 86.35 114.95 86.92L114.94 86.91L115.08 87.06Q115.05 91.45 110.76 93.02L110.82 93.07L110.76 93.01Q109.13 93.46 107.63 93.24L107.78 93.39L107.67 93.28Q105.69 93.59 103.55 92.73L103.60 92.78L103.46 92.64Q103.04 91.51 103.18 89.65L103.10 89.57L103.26 89.73Q103.40 86.59 105.65 84.30L105.78 84.43L105.60 84.25Q107.86 81.98 110.86 82.19ZM111.46 64.59L111.36 64.49L111.28 64.41Q112.84 64.26 113.84 64.55L113.93 64.64L113.87 66.08L113.78 65.99Q113.90 68.74 112.18 70.63L112.06 70.51L112.09 70.54Q110.44 72.50 107.87 72.14L107.78 72.05L107.89 72.16Q106.11 72.23 105.32 71.80L105.23 71.71L105.21 71.70Q105.25 71.30 105.04 70.02L104.88 69.86L104.91 69.89Q104.43 67.28 106.72 65.71L106.63 65.62L106.65 65.63Q108.75 64.45 111.39 64.52Z"/><path d="M6 7 C184 127,169 89,322 34" stroke="#e39b53" fill="none"/><path d="M21 99 C161 26,163 90,334 36" stroke="#90a5e3" fill="none"/><path d="M2 102 C184 64,179 29,330 40" stroke="#db7b5b" fill="none"/><path d="M11 95 C151 129,188 30,339 111" stroke="#dd6da5" fill="none"/><path fill="#8bed8b" d="M171.72 74.07L171.80 74.16L171.70 74.06Q173.29 74.14 175.93 73.86L175.89 73.82L175.84 73.77Q175.69 74.90 175.69 76.11L175.72 76.15L175.81 78.59L175.72 78.50Q174.25 78.60 172.68 78.75L172.55 78.62L172.63 78.70Q171.03 78.74 169.46 78.66L169.52 78.73L169.54 78.75Q164.09 90.21 157.67 98.85L157.70 98.88L157.82 99.00Q152.94 100.06 150.52 101.20L150.53 101.21L150.58 101.26Q158.22 90.48 163.93 78.70L164.08 78.85L159.00 78.70L159.09 78.79Q159.13 76.33 158.92 73.84L158.80 73.72L158.78 73.70Q162.50 74.13 166.35 74.13L166.26 74.04L169.86 67.15L169.95 67.23Q171.75 63.61 174.04 60.62L173.90 60.48L174.04 60.62Q171.06 60.86 168.07 60.86L168.00 60.79L168.17 60.96Q156.65 60.86 149.59 56.72L149.55 56.69L148.29 53.43L148.31 53.45Q147.70 51.91 146.98 50.27L147.11 50.39L146.92 50.20Q155.20 55.28 165.91 55.70L165.91 55.70L165.91 55.71Q175.45 56.03 185.08 52.32L185.12 52.35L185.04 52.27Q184.78 53.16 183.85 54.80L183.86 54.81L183.91 54.86Q177.07 63.72 171.72 74.07ZM186.89 57.41L186.93 57.45L188.66 53.54L188.65 53.53Q186.82 54.42 183.68 55.77L183.70 55.79L184.21 55.37L184.11 55.27Q184.37 55.03 184.58 54.82L184.54 54.77L184.63 54.86Q185.36 53.60 186.72 51.10L186.64 51.02L186.65 51.04Q176.62 55.28 165.84 54.85L165.83 54.84L165.84 54.84Q154.67 54.45 145.74 48.88L145.75 48.89L145.62 48.76Q147.56 52.27 149.13 57.27L149.16 57.30L149.17 57.31Q151.18 58.46 152.68 59.04L152.64 58.99L152.64 58.99Q152.98 59.69 153.84 63.19L153.87 63.22L153.83 63.18Q159.85 65.63 170.20 65.35L170.20 65.34L170.07 65.22Q169.54 66.32 165.82 73.39L165.80 73.36L165.77 73.34Q162.09 73.51 158.38 73.16L158.39 73.17L158.29 73.06Q158.41 74.61 158.41 76.25L158.38 76.22L158.42 79.47L161.50 79.42L161.49 82.05L161.65 82.21Q154.28 96.03 149.07 102.74L148.97 102.65L149.09 102.76Q151.98 101.23 155.05 100.30L155.02 100.27L155.04 100.29Q153.86 102.11 151.29 105.33L151.31 105.34L151.15 105.19Q157.18 103.22 161.75 102.80L161.67 102.71L161.78 102.82Q167.26 95.74 173.11 83.03L173.01 82.93L179.55 83.40L179.40 83.25Q179.28 81.57 179.28 79.86L179.27 79.84L179.26 76.48L179.39 76.61Q178.83 76.55 177.79 76.62L177.75 76.57L177.85 76.68Q176.77 76.70 176.27 76.70L176.33 76.76L176.20 76.62Q176.32 76.53 176.39 76.25L176.28 76.14L176.36 75.71L176.32 75.68Q181.06 66.07 186.84 57.36Z"/><path d="M2 113 C163 122,164 101,330 43" stroke="#dd6d6d" fill="none"/></svg>