<svg xmlns="http://www.w3.org/2000/svg" width="342" height="140" viewBox="0,0,342,140"><path d="M11 28 C188 111,184 116,340 43" stroke="#64e6c6" fill="none"/><path d="M14 136 C156 26,153 8,326 125" stroke="#754ee8" fill="none"/><path d="M15 44 C155 36,184 68,340 100" stroke="#70a8df" fill="none"/><path d="M9 124 C186 37,152 5,339 21" stroke="#b2e87c" fill="none"/><path d="M16 26 C160 22,156 71,328 83" stroke="#d75f7d" fill="none"/><path d="M14 120 C172 11,187 20,337 124" stroke="#76dfaa" fill="none"/><path d="M19 50 C169 54,181 37,339 5" stroke="#72aae3" fill="none"/><path d="M19 11 C174 102,189 58,330 79" stroke="#dc4bdc" fill="none"/><path d="M9 34 C150 54,163 31,323 1" stroke="#9be183" fill="none"/><path d="M10 29 C152 80,182 104,327 117" stroke="#42ea6c" fill="none"/><path d="M10 91 C150 137,181 92,333 46" stroke="#4b4be6" fill="none"/><path d="M11 40 C157 46,173 5,341 26" stroke="#4e6fd4" fill="none"/><path d="M20 115 C170 58,165 50,329 112" stroke="#6bdf88" fill="none"/><path d="M2 92 C176 5,153 92,325 17" stroke="#6b6be4" fill="none"/><path fill="#f08dd8" d="M69.42 73.26L69.27 73.10L69.27 73.11Q70.49 73.16 72.56 72.94L72.61 73.00L72.53 72.91Q72.46 73.85 72.46 74.79L72.59 74.93L72.45 76.62L72.56 76.74Q71.38 76.78 70.15 76.89L69.98 76.72L70.01 76.75Q68.91 76.93 67.68 76.87L67.71 76.90L67.61 76.80Q63.38 85.79 58.37 92.53L58.51 92.67L58.38 92.54Q54.64 93.43 52.75 94.33L52.92 94.50L52.85 94.43Q58.81 86.00 63.27 76.80L63.23 76.77L59.41 76.80L59.46 76.84Q59.55 74.98 59.38 73.03L59.38 73.03L59.27 72.92Q62.19 73.28 65.20 73.28L65.11 73.19L67.97 67.85L67.95 67.83Q69.38 65.02 71.16 62.68L71.17 62.69L71.15 62.67Q68.78 62.81 66.44 62.81L66.57 62.94L66.57 62.94Q57.59 62.87 52.07 59.64L52.05 59.62L51.12 57.13L51.05 57.06Q50.62 55.91 50.06 54.63L50.13 54.70L50.06 54.63Q56.32 58.37 64.68 58.71L64.75 58.78L64.84 58.87Q72.21 59.05 79.73 56.15L79.76 56.17L79.85 56.26Q79.48 56.78 78.75 58.06L78.80 58.11L78.83 58.14Q73.59 65.17 69.41 73.25ZM81.17 60.15L81.24 60.22L82.67 57.24L82.54 57.11Q81.27 57.96 78.82 59.02L78.82 59.02L79.08 58.56L78.95 58.43Q79.14 58.23 79.31 58.06L79.30 58.05L79.45 58.20Q80.00 57.20 81.06 55.25L80.93 55.12L81.00 55.18Q73.16 58.49 64.74 58.16L64.69 58.11L64.80 58.21Q56.00 57.84 49.04 53.49L49.00 53.46L48.90 53.35Q50.47 56.15 51.70 60.06L51.75 60.11L51.67 60.02Q53.43 61.11 54.60 61.56L54.57 61.53L54.45 61.42Q54.70 61.94 55.36 64.67L55.32 64.62L55.34 64.65Q59.98 66.50 68.06 66.27L68.15 66.36L68.10 66.31Q67.75 67.24 64.85 72.76L64.73 72.64L64.76 72.67Q61.66 72.58 58.76 72.30L58.91 72.45L58.94 72.48Q59.02 73.68 59.02 74.96L58.98 74.92L59.05 77.50L61.48 77.48L61.34 79.40L61.40 79.45Q55.61 90.22 51.54 95.46L51.62 95.54L51.70 95.62Q54.00 94.46 56.40 93.74L56.42 93.76L56.34 93.68Q55.39 95.08 53.39 97.59L53.43 97.62L53.29 97.48Q57.87 95.82 61.44 95.49L61.45 95.50L61.52 95.58Q65.79 90.03 70.36 80.11L70.30 80.05L75.50 80.51L75.42 80.43Q75.23 79.01 75.23 77.67L75.32 77.77L75.21 75.04L75.30 75.12Q74.99 75.21 74.19 75.27L74.03 75.11L74.04 75.12Q73.37 75.31 72.98 75.31L72.88 75.21L72.82 75.15Q72.95 75.12 73.01 74.90L72.98 74.87L72.92 74.42L73.00 74.50Q76.64 66.94 81.16 60.14Z"/><path d="M11 137 C176 74,173 82,333 62" stroke="#6e8ce7" fill="none"/><path d="M21 7 C187 86,173 113,327 70" stroke="#dc4141" fill="none"/><path d="M20 48 C191 35,161 135,328 23" stroke="#8361e9" fill="none"/><path d="M5 12 C155 65,166 104,338 58" stroke="#90d2e8" fill="none"/><path d="M16 23 C154 122,173 53,328 114" stroke="#e763e7" fill="none"/><path d="M1 45 C180 30,165 127,322 117" stroke="#e065a3" fill="none"/><path d="M16 36 C180 28,188 54,337 112" stroke="#8f73e2" fill="none"/><path d="M7 25 C176 76,177 102,335 86" stroke="#8484e5" fill="none"/><path d="M10 66 C186 103,179 35,329 15" stroke="#5cda9b" fill="none"/><path d="M12 112 C153 55,162 82,333 51" stroke="#cb6aeb" fill="none"/><path d="M18 137 C172 118,158 11,327 20" stroke="#d65151" fill="none"/><path d="M2 15 C170 20,171 45,329 23" stroke="#e47baf" fill="none"/><path d="M9 24 C190 137,152 53,338 3" stroke="#a064dd" fill="none"/><path d="M21 14 C164 71,152 14,334 93" stroke="#977fe0" fill="none"/><path d="M18 25 C173 118,184 132,331 20" stroke="#a0dd63" fill="none"/><path d="M14 66 C163 34,189 58,332 96" stroke="#e3cd8b" fill="none"/><path d="M18 51 C165 50,191 20,335 107" stroke="#85e4b5" fill="none"/><path d="M7 107 C176 75,175 89,337 36" stroke="#eb567b" fill="none"/><path d="M15 38 C153 58,174 123,334 65" stroke="#8e70ea" fill="none"/><path d="M13 111 C191 46,152 7,337 127" stroke="#e971e9" fill="none"/><path d="M20 39 C154 128,184 24,329 104" stroke="#e868a8" fill="none"/><path d="M20 134 C171 62,165 32,322 22" stroke="#87e2e2" fill="none"/><path d="M18 77 C187 11,175 127,341 48" stroke="#e85e80" fill="none"/><path d="M21 25 C160 121,179 64,332 78" stroke="#8c3bdc" fill="none"/><path d="M16 127 C177 73,182 67,329 93" stroke="#ecbf91" fill="none"/><path d="M2 63 C160 81,179 46,340 11" stroke="#ceec73" fill="none"/><path fill="#c9e37c" d="M199.72 76.12L199.74 76.14L199.64 76.04Q196.99 76.11 195.20 78.07L195.20 78.06L195.12 77.99Q193.45 80.05 193.23 82.84L193.22 82.83L193.21 82.82Q192.84 85.85 194.63 87.33L194.69 87.39L194.75 87.45Q196.51 88.91 199.63 88.80L199.72 88.88L199.58 88.75Q203.06 88.60 204.46 87.21L204.51 87.26L204.42 87.17Q205.88 85.01 205.71 82.33L205.73 82.34L205.70 82.32Q205.62 79.67 204.03 77.92L204.06 77.95L203.92 77.80Q202.42 76.14 199.74 76.14ZM199.64 62.27L199.62 62.25L199.76 62.39Q197.68 62.20 195.72 62.92L195.72 62.92L195.67 62.87Q193.81 64.08 194.15 66.81L194.15 66.81L194.05 66.71Q194.85 72.25 199.76 72.25L199.77 72.27L199.69 72.18Q201.92 72.41 203.37 70.74L203.53 70.90L203.50 70.87Q204.93 69.18 204.99 66.89L204.99 66.90L204.95 66.85Q205.03 64.26 203.97 63.37L204.06 63.45L203.95 63.34Q201.67 62.29 199.78 62.40ZM199.30 92.42L199.30 92.42L194.77 92.35L194.83 92.41Q192.62 92.43 190.67 91.14L190.60 91.08L190.63 91.11Q188.56 89.37 188.78 85.19L188.77 85.18L188.93 85.34Q189.49 75.20 194.79 73.75L194.75 73.71L194.87 73.83Q191.49 72.46 189.54 64.60L189.52 64.58L189.58 64.64Q189.10 62.60 189.21 61.43L189.17 61.39L189.13 61.34Q189.64 58.29 195.05 58.23L194.95 58.13L194.99 58.18Q201.28 58.16 203.40 58.44L203.22 58.26L203.36 58.41Q208.85 59.04 209.52 62.00L209.52 62.00L209.65 62.14Q209.73 62.93 209.73 63.49L209.78 63.54L209.75 63.51Q209.69 64.45 209.41 65.34L209.42 65.36L209.48 65.42Q208.66 71.67 204.36 73.90L204.36 73.90L204.38 73.92Q209.42 75.00 210.15 82.75L210.10 82.70L210.10 82.71Q210.23 83.06 210.29 84.96L210.14 84.80L210.28 84.95Q210.38 88.95 208.03 90.51L208.03 90.51L207.97 90.44Q205.98 91.74 199.29 92.41ZM202.62 95.80L202.68 95.85L207.58 95.96L207.55 95.93Q210.05 96.03 212.27 94.97L212.18 94.88L212.21 94.90Q214.01 93.97 214.12 91.24L214.09 91.21L214.06 91.18Q214.02 89.47 213.47 86.63L213.56 86.72L213.54 86.70Q212.30 80.00 209.24 77.27L209.11 77.14L208.78 76.54L208.70 76.34L208.40 75.87L208.43 75.91Q210.67 73.75 212.01 67.67L212.05 67.71L212.09 67.75Q212.05 67.15 212.16 65.92L212.16 65.93L212.25 66.02Q212.32 64.97 212.21 64.08L212.29 64.16L212.29 64.16Q212.04 62.02 210.32 61.29L210.35 61.32L210.24 61.16L209.97 61.00L210.02 61.06Q209.69 60.06 207.97 58.89L207.88 58.80L208.05 58.92L208.01 58.88Q205.05 57.81 199.08 57.53L199.09 57.54L199.19 57.64Q196.92 57.48 194.91 57.65L194.76 57.50L194.91 57.65Q193.70 57.67 191.80 57.89L191.85 57.94L191.67 57.75Q188.84 58.32 188.51 60.72L188.60 60.81L188.58 60.80Q188.63 61.62 188.68 62.79L188.66 62.77L188.59 62.70Q188.66 63.38 189.50 66.84L189.64 66.99L189.49 66.84Q190.78 71.69 193.35 73.65L193.26 73.56L193.50 73.80L193.48 73.78Q189.38 75.65 188.60 83.23L188.64 83.27L188.67 83.30Q188.31 86.45 188.31 87.78L188.21 87.69L188.34 87.82Q188.34 90.32 190.06 91.66L190.18 91.77L190.10 91.69Q190.23 91.77 190.62 92.05L190.71 92.14L190.75 92.17Q192.13 95.40 202.56 95.73ZM202.12 79.58L202.05 79.50L202.06 79.51Q203.55 79.55 204.83 80.22L204.69 80.08L204.70 80.09Q205.21 81.50 205.16 82.28L205.31 82.43L205.18 82.30Q205.31 82.82 205.31 83.27L205.37 83.33L205.22 83.17Q205.35 86.76 202.00 87.99L201.96 87.94L202.00 87.98Q200.70 88.31 199.53 88.14L199.62 88.23L199.61 88.22Q198.07 88.46 196.40 87.79L196.35 87.74L196.29 87.68Q196.04 86.88 196.15 85.43L196.07 85.35L196.15 85.42Q196.21 82.92 197.96 81.13L198.02 81.19L198.06 81.23Q199.79 79.42 202.13 79.59ZM202.52 65.77L202.46 65.70L202.47 65.71Q203.56 65.46 204.34 65.68L204.40 65.75L204.33 66.85L204.36 66.88Q204.33 68.91 202.99 70.39L203.06 70.46L203.09 70.48Q201.76 71.96 199.75 71.69L199.70 71.64L199.70 71.64Q198.25 71.64 197.64 71.30L197.65 71.32L197.72 71.38Q197.60 70.93 197.43 69.92L197.54 70.03L197.36 69.86Q197.00 67.83 198.79 66.60L198.87 66.68L198.74 66.56Q200.41 65.66 202.48 65.72Z"/><path fill="#e4e43e" d="M131.76 76.16L131.82 76.22L131.79 76.19Q128.97 76.10 127.19 78.05L127.31 78.18L127.23 78.09Q125.47 80.07 125.25 82.86L125.12 82.73L125.20 82.81Q124.96 85.96 126.74 87.44L126.71 87.41L126.75 87.46Q128.48 88.88 131.61 88.77L131.66 88.82L131.70 88.86Q135.10 88.64 136.49 87.24L136.46 87.21L136.41 87.16Q137.95 85.08 137.79 82.40L137.82 82.44L137.80 82.42Q137.65 79.70 136.06 77.95L135.93 77.81L136.01 77.90Q134.41 76.13 131.73 76.13ZM131.63 62.25L131.67 62.30L131.76 62.38Q129.61 62.13 127.66 62.86L127.65 62.85L127.73 62.93Q125.68 63.95 126.02 66.68L126.15 66.81L126.12 66.78Q126.76 72.16 131.67 72.16L131.80 72.29L131.69 72.18Q133.95 72.43 135.40 70.76L135.47 70.84L135.45 70.82Q136.82 69.07 136.88 66.78L137.04 66.95L137.06 66.96Q137.08 64.30 136.02 63.41L136.10 63.49L136.08 63.47Q133.63 62.25 131.73 62.36ZM131.25 92.37L131.27 92.39L126.81 92.39L126.78 92.36Q124.69 92.50 122.74 91.21L122.73 91.21L122.74 91.21Q120.60 89.42 120.83 85.24L120.88 85.29L120.78 85.19Q121.45 75.16 126.75 73.71L126.87 73.83L126.86 73.82Q123.57 72.53 121.62 64.67L121.52 64.58L121.51 64.57Q120.94 62.43 121.05 61.26L121.11 61.32L121.07 61.28Q121.54 58.19 126.95 58.13L127.01 58.20L127.06 58.25Q133.14 58.03 135.26 58.31L135.32 58.37L135.27 58.32Q140.91 59.10 141.57 62.06L141.54 62.03L141.61 62.09Q141.79 63.00 141.79 63.55L141.84 63.60L141.74 63.50Q141.78 64.55 141.50 65.44L141.47 65.41L141.58 65.52Q140.51 71.53 136.22 73.76L136.36 73.90L136.22 73.76Q141.42 75.01 142.15 82.75L142.20 82.81L142.20 82.81Q142.25 83.08 142.31 84.98L142.30 84.97L142.22 84.89Q142.32 88.90 139.98 90.46L140.07 90.54L140.07 90.55Q137.95 91.71 131.26 92.38ZM134.55 95.72L134.65 95.83L139.46 95.84L139.55 95.93Q141.99 95.97 144.22 94.91L144.27 94.97L144.23 94.93Q145.89 93.86 146.00 91.13L146.15 91.27L146.08 91.20Q146.11 89.55 145.55 86.71L145.63 86.79L145.60 86.76Q144.17 79.87 141.11 77.14L141.13 77.16L140.91 76.67L140.56 76.21L140.32 75.80L140.30 75.77Q142.77 73.85 144.11 67.77L144.20 67.85L144.03 67.69Q144.06 67.16 144.17 65.93L144.26 66.03L144.29 66.05Q144.38 65.03 144.26 64.13L144.16 64.02L144.22 64.09Q143.91 61.88 142.18 61.15L142.26 61.23L142.27 61.19L141.97 61.00L142.07 61.10Q141.63 60.00 139.91 58.83L139.97 58.89L139.94 58.81L140.03 58.89Q137.11 57.87 131.14 57.59L131.07 57.52L131.17 57.62Q128.75 57.32 126.75 57.48L126.86 57.60L126.76 57.49Q125.63 57.60 123.74 57.82L123.78 57.86L123.79 57.87Q120.93 58.41 120.59 60.81L120.59 60.81L120.54 60.76Q120.62 61.62 120.68 62.79L120.61 62.73L120.58 62.69Q120.67 63.39 121.51 66.85L121.59 66.93L121.55 66.90Q122.76 71.68 125.33 73.63L125.28 73.58L125.48 73.78L125.48 73.78Q121.32 75.59 120.54 83.17L120.61 83.24L120.54 83.16Q120.35 86.49 120.35 87.83L120.34 87.82L120.22 87.70Q120.44 90.42 122.17 91.76L122.24 91.83L122.09 91.68Q122.28 91.81 122.67 92.09L122.63 92.05L122.64 92.07Q124.15 95.42 134.58 95.75ZM134.22 79.67L134.06 79.52L134.05 79.51Q135.41 79.41 136.69 80.08L136.67 80.06L136.80 80.19Q137.31 81.60 137.26 82.38L137.33 82.45L137.34 82.46Q137.38 82.89 137.38 83.33L137.21 83.17L137.23 83.19Q137.35 86.76 134.01 87.99L133.92 87.91L134.04 88.03Q132.75 88.35 131.58 88.18L131.69 88.29L131.60 88.21Q130.07 88.46 128.40 87.79L128.35 87.74L128.24 87.63Q128.03 86.86 128.14 85.41L128.01 85.28L128.10 85.38Q128.19 82.89 129.94 81.11L130.07 81.24L129.95 81.12Q131.76 79.39 134.10 79.56ZM134.40 65.64L134.43 65.67L134.40 65.64Q135.64 65.54 136.42 65.77L136.44 65.79L136.47 66.99L136.48 67.00Q136.49 69.07 135.15 70.55L135.07 70.47L135.03 70.42Q133.65 71.86 131.64 71.58L131.75 71.69L131.73 71.67Q130.34 71.72 129.72 71.39L129.64 71.30L129.60 71.27Q129.55 70.88 129.38 69.88L129.41 69.90L129.36 69.85Q128.96 67.78 130.75 66.56L130.85 66.66L130.77 66.58Q132.39 65.64 134.45 65.69Z"/><path fill="#4ae296" d="M262.86 92.41L262.91 92.46L263.00 92.55Q260.84 92.57 258.56 91.96L258.66 92.06L258.58 91.97Q256.88 90.72 256.66 88.32L256.46 88.13L256.64 88.31Q256.60 88.04 256.88 84.20L256.85 84.17L256.76 84.08Q258.35 83.89 261.30 83.33L261.31 83.33L261.02 84.44L261.06 84.48Q260.59 86.96 262.65 87.80L262.72 87.86L262.55 87.70Q263.81 88.29 266.88 88.29L266.89 88.30L266.83 88.24Q269.26 88.11 269.54 88.00L269.40 87.86L269.55 88.01Q270.92 87.81 271.98 87.09L271.96 87.08L271.96 87.07Q273.99 85.65 273.71 82.58L273.77 82.64L273.65 82.52Q273.38 78.96 270.85 76.68L270.93 76.76L270.82 76.65Q268.25 74.34 264.63 74.34L264.68 74.39L264.67 74.04L264.66 74.03Q265.25 74.01 266.53 73.89L266.54 73.90L266.54 73.91Q269.41 73.82 271.42 72.01L271.39 71.98L271.39 71.99Q273.26 70.04 273.49 67.31L273.47 67.29L273.54 67.36Q273.69 66.89 273.69 66.39L273.59 66.29L273.62 66.32Q273.77 64.24 271.76 62.91L271.72 62.86L271.71 62.86Q269.87 61.62 267.53 61.79L267.48 61.74L267.56 61.82Q265.61 61.55 263.83 62.16L263.89 62.23L263.96 62.29Q261.78 63.01 261.33 64.68L261.23 64.58L261.37 64.72Q261.03 65.78 261.15 66.89L261.11 66.86L261.06 66.81Q259.62 66.54 256.61 65.48L256.63 65.50L256.71 65.58Q256.32 63.07 256.37 61.84L256.36 61.83L256.33 61.80Q256.55 59.62 258.11 58.62L258.16 58.67L258.06 58.56Q260.17 57.72 262.51 57.72L262.55 57.77L262.50 57.72Q267.06 57.59 271.69 57.98L271.64 57.94L271.65 57.94Q279.14 58.63 278.69 64.15L278.66 64.11L278.61 64.07Q278.56 66.30 277.83 68.58L277.88 68.63L277.84 68.59Q276.54 73.15 273.09 74.49L272.99 74.39L273.00 74.40Q276.82 75.16 277.71 80.06L277.89 80.24L277.79 80.14Q278.18 81.87 278.29 84.82L278.25 84.78L278.18 84.71Q278.46 91.28 271.71 91.95L271.75 91.99L271.65 91.89Q270.60 92.02 262.86 92.41ZM270.63 95.84L270.61 95.81L270.56 95.77Q271.43 95.79 275.61 95.91L275.63 95.93L275.68 95.98Q278.21 96.06 280.61 95.11L280.49 94.99L280.62 95.12Q282.23 93.61 281.95 91.04L282.04 91.13L281.94 91.04Q281.88 89.19 281.43 86.63L281.42 86.62L281.49 86.68Q280.35 80.02 277.50 77.62L277.61 77.73L277.17 77.01L277.18 76.97L277.23 77.01Q279.83 74.93 280.94 68.52L280.78 68.36L280.87 68.45Q280.87 67.72 281.04 66.33L281.04 66.33L281.18 66.47Q281.22 65.28 281.10 64.28L281.10 64.27L281.08 64.25Q280.85 61.80 278.96 60.79L278.88 60.71L278.82 60.76L278.83 60.78Q278.47 59.41 276.80 58.63L276.81 58.64L276.70 58.54Q274.58 57.64 267.05 57.19L266.92 57.06L266.89 57.03Q264.61 57.09 262.27 57.09L262.11 56.93L262.22 57.04Q259.79 56.95 257.56 57.90L257.59 57.93L257.70 58.04Q255.92 59.16 255.92 61.72L255.82 61.62L255.75 61.55Q255.93 61.12 256.32 66.03L256.13 65.84L256.30 66.00Q256.67 66.04 259.07 66.94L259.08 66.94L259.07 66.94Q259.00 67.65 258.94 68.37L259.04 68.47L259.08 68.51Q259.06 69.21 259.11 69.99L259.16 70.04L259.04 69.91Q261.62 70.44 264.58 70.60L264.62 70.65L264.61 70.64Q264.50 67.68 266.11 66.45L266.11 66.46L266.07 66.42Q267.31 65.48 270.27 65.15L270.25 65.13L270.38 65.26Q271.95 65.16 272.79 65.44L272.76 65.41L272.86 65.51Q272.90 65.66 272.96 65.83L272.99 65.86L272.86 66.01L273.16 66.98L273.21 67.03Q273.02 67.12 272.96 67.34L273.11 67.49L273.14 67.52Q272.87 69.87 270.64 71.60L270.63 71.59L270.75 71.70Q269.46 73.09 266.51 73.37L266.39 73.25L266.47 73.33Q265.27 73.42 263.99 73.42L264.04 73.46L264.06 73.49Q264.06 73.94 264.28 74.94L264.32 74.97L264.42 75.08Q267.01 75.10 269.13 76.16L269.05 76.08L268.78 75.98L266.50 76.26L266.59 76.35Q266.66 76.86 266.82 77.76L266.76 77.69L266.91 77.84Q269.91 77.61 272.42 79.56L272.47 79.61L272.54 79.68Q272.87 80.24 273.32 82.64L273.15 82.47L273.15 82.46Q273.44 86.77 269.15 87.39L269.27 87.51L269.18 87.42Q266.21 87.90 265.38 87.85L265.36 87.83L265.29 87.76Q264.74 87.71 263.96 87.60L263.79 87.43L263.83 86.80L264.06 86.20L264.16 85.69L264.24 85.26L264.07 85.10Q262.70 85.23 261.53 85.51L261.48 85.46L261.52 85.50Q261.52 85.22 261.52 84.94L261.49 84.91L261.47 84.89Q261.59 84.67 261.59 84.34L261.49 84.25L261.66 84.41Q261.73 83.81 261.95 82.75L261.89 82.69L261.94 82.74Q259.16 83.03 256.43 83.53L256.31 83.40L256.46 83.56Q256.30 84.12 256.13 85.77L256.19 85.83L256.30 85.94Q256.02 87.47 256.02 88.36L256.12 88.46L256.14 88.48Q256.17 91.41 258.18 92.53L258.21 92.56L258.25 92.60Q260.25 95.77 267.16 95.49L267.17 95.50L267.17 95.49Q268.40 95.61 270.62 95.83Z"/></svg>