<svg xmlns="http://www.w3.org/2000/svg" width="342" height="140" viewBox="0,0,342,140"><path d="M7 81 C190 135,183 74,336 16" stroke="#84d5ef" fill="none"/><path d="M16 69 C180 9,192 133,330 80" stroke="#4c91d6" fill="none"/><path d="M20 131 C177 7,158 24,323 106" stroke="#e28ccd" fill="none"/><path fill="#e38362" d="M194.57 93.66L194.41 93.50L194.49 93.58Q192.25 93.62 189.85 92.98L189.97 93.10L189.81 92.94Q188.10 91.69 187.86 89.17L187.81 89.12L187.87 89.18Q187.65 88.73 187.94 84.69L188.14 84.89L187.98 84.73Q189.57 84.45 192.67 83.87L192.66 83.85L192.51 85.17L192.45 85.11Q191.97 87.73 194.13 88.60L194.14 88.61L194.28 88.75Q195.33 89.10 198.54 89.10L198.66 89.22L198.54 89.10Q201.08 88.94 201.37 88.83L201.46 88.91L201.42 88.87Q202.75 88.57 203.86 87.81L203.85 87.79L203.83 87.78Q206.02 86.35 205.73 83.13L205.69 83.09L205.76 83.16Q205.52 79.47 202.86 77.07L202.75 76.96L202.88 77.10Q200.12 74.59 196.32 74.59L196.38 74.66L196.31 74.24L196.35 74.28Q196.83 74.11 198.17 73.99L198.29 74.11L198.24 74.06Q201.15 73.88 203.26 71.98L203.36 72.08L203.34 72.06Q205.34 70.06 205.58 67.19L205.60 67.22L205.60 67.22Q205.72 66.69 205.72 66.17L205.77 66.21L205.72 66.17Q205.73 63.83 203.62 62.43L203.62 62.43L203.57 62.38Q201.70 61.15 199.24 61.32L199.29 61.37L199.27 61.35Q197.32 61.16 195.45 61.80L195.38 61.73L195.52 61.87Q193.16 62.55 192.69 64.30L192.73 64.34L192.87 64.48Q192.40 65.48 192.52 66.65L192.60 66.73L192.51 66.63Q191.01 66.36 187.85 65.25L187.85 65.25L187.89 65.29Q187.46 62.64 187.52 61.36L187.55 61.38L187.56 61.39Q187.72 59.04 189.35 57.99L189.43 58.06L189.43 58.06Q191.63 57.16 194.09 57.16L193.94 57.02L194.07 57.15Q198.87 57.03 203.72 57.44L203.64 57.36L203.77 57.50Q211.53 58.12 211.07 63.91L211.08 63.93L210.92 63.76Q210.83 66.07 210.07 68.47L210.07 68.47L210.16 68.56Q208.69 73.23 205.06 74.63L205.17 74.73L205.17 74.74Q209.13 75.48 210.07 80.63L210.04 80.60L210.00 80.56Q210.45 82.41 210.56 85.51L210.53 85.48L210.49 85.44Q210.85 92.40 203.77 93.10L203.64 92.96L203.68 93.01Q202.57 93.12 194.44 93.53ZM202.55 97.08L202.53 97.06L202.46 96.99Q203.51 97.16 207.89 97.28L207.86 97.25L207.81 97.19Q210.46 97.27 212.97 96.28L212.99 96.29L212.92 96.23Q214.74 94.77 214.44 92.08L214.55 92.18L214.43 92.06Q214.26 90.03 213.79 87.34L213.83 87.37L213.79 87.33Q212.75 80.50 209.76 77.99L209.87 78.09L209.59 77.52L209.48 77.35L209.43 77.30Q212.09 75.05 213.26 68.32L213.23 68.30L213.30 68.37Q213.39 67.70 213.57 66.24L213.58 66.25L213.59 66.26Q213.65 65.03 213.53 63.98L213.54 63.99L213.45 63.90Q213.22 61.33 211.23 60.27L211.39 60.44L211.15 60.32L211.19 60.35Q210.66 58.77 208.90 57.95L209.02 58.07L209.03 58.07Q206.58 56.92 198.69 56.45L198.66 56.42L198.68 56.44Q196.22 56.43 193.76 56.43L193.73 56.40L193.77 56.44Q191.27 56.39 188.93 57.39L188.93 57.38L188.97 57.43Q186.99 58.48 186.99 61.17L187.08 61.26L186.99 61.18Q187.10 60.64 187.51 65.78L187.42 65.70L187.47 65.75Q188.01 65.93 190.52 66.87L190.38 66.73L190.44 66.79Q190.39 67.56 190.33 68.32L190.29 68.28L190.43 68.41Q190.44 69.18 190.50 70.00L190.52 70.02L190.43 69.94Q193.09 70.43 196.19 70.61L196.34 70.75L196.18 70.60Q196.22 67.65 197.91 66.37L197.85 66.31L197.76 66.22Q199.11 65.28 202.20 64.93L202.23 64.96L202.28 65.01Q204.02 64.99 204.89 65.28L204.92 65.30L204.84 65.23Q204.98 65.48 205.04 65.66L204.94 65.56L204.93 65.85L205.12 66.73L205.07 66.69Q205.25 67.15 205.19 67.39L205.08 67.28L205.18 67.38Q205.02 69.96 202.68 71.78L202.71 71.81L202.75 71.85Q201.22 73.12 198.12 73.42L198.16 73.46L198.17 73.47Q197.11 73.76 195.77 73.76L195.66 73.64L195.77 73.76Q195.76 74.21 195.99 75.26L195.92 75.19L195.93 75.21Q198.76 75.35 200.99 76.46L200.95 76.42L200.76 76.40L198.40 76.74L198.37 76.71Q198.38 77.18 198.55 78.12L198.56 78.12L198.62 78.19Q201.91 78.09 204.55 80.13L204.38 79.97L204.45 80.04Q204.77 80.60 205.24 83.11L205.35 83.22L205.31 83.18Q205.62 87.70 201.12 88.34L200.98 88.21L201.12 88.34Q197.90 88.75 197.03 88.69L196.97 88.63L197.08 88.74Q196.28 88.47 195.46 88.35L195.53 88.42L195.40 87.60L195.74 87.05L195.63 86.30L195.79 85.94L195.67 85.81Q194.27 85.99 193.04 86.29L193.07 86.32L193.03 86.27Q192.96 85.92 192.96 85.62L193.03 85.69L192.96 85.62Q193.13 85.44 193.13 85.08L193.11 85.07L193.02 84.98Q193.16 84.42 193.39 83.31L193.26 83.18L193.28 83.19Q190.51 83.64 187.65 84.16L187.53 84.05L187.61 84.13Q187.56 84.84 187.39 86.56L187.48 86.66L187.45 86.63Q187.23 88.31 187.23 89.25L187.26 89.28L187.32 89.33Q187.48 92.54 189.59 93.71L189.47 93.58L189.50 93.62Q191.81 97.15 199.06 96.86L198.94 96.75L199.00 96.80Q200.20 96.84 202.54 97.07Z"/><path d="M11 75 C157 139,162 133,340 76" stroke="#d953b7" fill="none"/><path d="M15 109 C177 33,189 26,331 32" stroke="#47df47" fill="none"/><path d="M2 128 C184 7,152 93,338 3" stroke="#d94e4e" fill="none"/><path d="M15 105 C167 121,188 13,340 59" stroke="#e76d44" fill="none"/><path d="M18 139 C154 55,169 11,327 34" stroke="#4d93da" fill="none"/><path d="M20 68 C160 90,157 96,340 63" stroke="#dede72" fill="none"/><path d="M20 132 C166 105,158 91,325 54" stroke="#c974e6" fill="none"/><path d="M14 55 C175 48,157 34,330 4" stroke="#dc9b5a" fill="none"/><path d="M8 84 C187 137,152 47,331 139" stroke="#e08465" fill="none"/><path d="M15 20 C166 137,182 12,340 12" stroke="#4ede96" fill="none"/><path d="M12 33 C192 115,185 64,338 59" stroke="#89efbc" fill="none"/><path d="M10 12 C188 53,165 45,332 13" stroke="#83e1b2" fill="none"/><path d="M12 129 C156 134,184 77,340 33" stroke="#d55796" fill="none"/><path d="M4 5 C169 128,180 64,324 133" stroke="#53d9d9" fill="none"/><path d="M16 105 C168 69,184 29,328 123" stroke="#eb8dbc" fill="none"/><path d="M14 99 C155 53,165 110,331 131" stroke="#8eebeb" fill="none"/><path d="M15 37 C169 101,182 57,338 88" stroke="#47da6c" fill="none"/><path fill="#76e476" d="M69.36 73.29L69.33 73.26L69.34 73.27Q70.73 73.43 72.89 73.19L72.77 73.08L72.82 73.12Q72.73 74.09 72.73 75.08L72.67 75.02L72.67 76.95L72.81 77.09Q71.55 77.11 70.26 77.23L70.06 77.03L70.21 77.18Q68.85 77.16 67.56 77.10L67.57 77.11L67.55 77.09Q63.27 86.67 58.01 93.74L58.03 93.76L57.86 93.59Q54.13 94.72 52.14 95.65L52.20 95.71L52.16 95.67Q58.41 86.83 63.08 77.18L63.10 77.20L58.98 77.11L59.05 77.19Q59.11 75.20 58.93 73.15L58.87 73.09L58.87 73.09Q61.88 73.41 65.04 73.41L64.92 73.29L67.84 67.62L67.98 67.75Q69.38 64.72 71.25 62.26L71.33 62.34L71.28 62.29Q68.80 62.44 66.34 62.44L66.43 62.53L66.49 62.59Q57.10 62.55 51.31 59.16L51.31 59.16L50.29 56.50L50.19 56.40Q49.67 55.12 49.09 53.78L49.23 53.92L49.25 53.94Q55.85 57.91 64.62 58.26L64.66 58.30L64.56 58.20Q72.53 58.63 80.43 55.59L80.43 55.60L80.45 55.61Q80.06 56.16 79.30 57.50L79.24 57.45L79.41 57.62Q73.79 64.86 69.41 73.34ZM81.74 59.59L81.73 59.59L83.34 56.58L83.23 56.47Q81.91 57.37 79.34 58.48L79.24 58.38L79.54 57.92L79.60 57.98Q79.77 57.75 79.95 57.57L79.88 57.50L79.84 57.46Q80.52 56.51 81.63 54.46L81.57 54.40L81.55 54.38Q73.41 57.93 64.58 57.57L64.54 57.53L64.62 57.61Q55.33 57.16 48.03 52.60L48.00 52.58L48.00 52.57Q49.73 55.59 51.02 59.68L50.96 59.63L50.97 59.63Q52.70 60.67 53.93 61.14L53.91 61.11L53.78 60.99Q54.11 61.61 54.81 64.47L54.73 64.39L54.82 64.48Q59.57 66.30 68.04 66.07L68.22 66.24L68.08 66.11Q67.72 67.09 64.68 72.88L64.67 72.86L64.68 72.87Q61.37 72.73 58.33 72.44L58.45 72.55L58.37 72.48Q58.52 73.79 58.52 75.14L58.51 75.13L58.54 77.79L61.18 77.85L61.05 79.89L61.12 79.96Q55.03 91.23 50.76 96.73L50.72 96.68L50.82 96.78Q53.25 95.59 55.77 94.83L55.75 94.82L55.74 94.81Q54.70 96.22 52.60 98.85L52.57 98.83L52.64 98.90Q57.50 97.21 61.25 96.86L61.19 96.81L61.18 96.80Q65.64 90.96 70.43 80.56L70.48 80.60L75.75 80.91L75.68 80.84Q75.68 79.55 75.68 78.15L75.67 78.14L75.62 75.34L75.59 75.31Q75.32 75.45 74.47 75.50L74.34 75.38L74.38 75.42Q73.46 75.41 73.06 75.41L73.13 75.48L73.24 75.59Q73.08 75.25 73.13 75.02L73.26 75.15L73.13 74.60L73.11 74.59Q77.04 66.77 81.78 59.63Z"/><path d="M14 7 C191 88,173 35,333 100" stroke="#dd6ec1" fill="none"/><path d="M5 89 C186 3,152 47,336 72" stroke="#80e15f" fill="none"/><path fill="#84e065" d="M267.47 76.37L267.36 76.27L267.49 76.40Q264.55 76.09 262.65 78.28L262.68 78.31L262.75 78.38Q260.85 80.57 260.56 83.49L260.42 83.35L260.45 83.39Q260.11 86.55 261.78 88.05L261.85 88.12L261.83 88.10Q263.40 89.49 266.61 89.31L266.71 89.41L266.66 89.36Q270.00 89.26 271.70 88.20L271.61 88.11L271.53 88.03Q273.31 86.36 273.31 83.97L273.29 83.95L273.39 84.05Q273.32 83.39 273.20 82.81L273.27 82.88L273.17 82.77Q273.32 80.23 271.62 78.16L271.70 78.23L271.68 78.22Q269.90 76.06 267.33 76.23ZM266.76 93.38L266.69 93.31L266.83 93.45Q260.00 93.34 257.84 92.17L257.79 92.12L257.89 92.22Q256.38 91.13 256.09 88.50L256.02 88.43L256.02 88.43Q255.98 87.39 256.04 86.28L255.93 86.17L256.09 86.33Q256.27 84.82 256.27 84.12L256.23 84.08L256.28 84.13Q256.98 79.74 257.21 78.68L257.18 78.65L257.16 78.63Q257.78 75.57 259.06 73.40L259.01 73.35L259.19 73.53Q263.22 66.75 272.34 56.98L272.25 56.89L272.41 57.05Q276.46 56.54 279.85 55.31L279.72 55.18L279.85 55.31Q269.30 66.74 264.39 73.23L264.30 73.15L264.42 73.26Q265.97 72.53 267.96 72.53L267.80 72.38L267.97 72.55Q272.95 72.44 275.28 75.42L275.36 75.50L275.36 75.49Q277.30 77.90 277.82 83.34L277.94 83.45L277.80 83.31Q277.91 84.42 277.91 85.35L278.02 85.47L277.92 85.36Q278.01 90.24 274.62 91.88L274.58 91.85L274.51 91.78Q272.79 92.86 266.82 93.44ZM270.28 97.07L270.27 97.06L270.26 97.05Q272.28 97.02 275.32 97.14L275.31 97.14L275.25 97.07Q277.87 97.30 280.27 96.19L280.26 96.18L280.17 96.09Q281.95 94.94 281.95 92.20L282.00 92.24L281.88 92.13Q281.96 91.45 281.69 89.93L281.57 89.80L281.65 89.88Q281.41 88.38 281.41 87.68L281.44 87.72L281.41 87.68Q280.03 80.40 277.58 77.48L277.53 77.43L277.54 77.44Q277.45 77.29 277.22 76.94L277.24 76.97L276.78 76.62L276.58 76.48L276.64 76.54Q276.05 75.72 275.12 74.26L275.25 74.39L275.17 74.31Q273.72 72.80 270.68 72.10L270.65 72.07L270.83 72.25Q272.52 69.61 277.08 63.94L277.09 63.95L283.66 55.91L283.66 55.91Q281.24 57.23 277.56 58.40L277.60 58.44L277.67 58.51Q279.02 56.94 281.77 53.90L281.74 53.87L281.74 53.87Q278.03 55.48 272.06 56.35L272.12 56.41L272.11 56.40Q263.32 65.44 258.76 73.04L258.66 72.94L258.74 73.02Q256.35 76.82 255.47 86.41L255.53 86.47L255.59 86.54Q255.45 87.39 255.56 88.85L255.62 88.91L255.54 88.83Q255.68 91.53 257.37 92.94L257.36 92.93L257.27 92.83Q257.95 93.16 257.89 93.22L257.93 93.26L257.92 93.24Q258.40 94.54 259.62 95.19L259.66 95.23L259.66 95.23Q262.01 96.40 264.99 96.69L264.89 96.59L264.90 96.60Q264.94 96.64 270.31 97.11ZM270.01 79.90L269.84 79.74L269.83 79.72Q270.87 79.71 272.33 80.47L272.31 80.46L272.24 80.38Q272.79 81.87 272.79 82.86L272.85 82.92L272.83 82.90Q273.02 85.66 271.56 87.18L271.71 87.34L271.56 87.19Q270.03 88.41 266.81 88.87L266.77 88.82L266.87 88.92Q264.62 88.90 263.80 88.49L263.64 88.33L263.72 88.41Q263.48 87.76 263.48 87.30L263.47 87.28L263.47 87.28Q263.13 82.27 267.63 80.28L267.62 80.26L267.60 80.24Q268.85 79.80 270.02 79.92Z"/><path d="M6 45 C171 5,174 28,326 43" stroke="#e59c84" fill="none"/><path d="M12 65 C163 134,190 84,326 59" stroke="#4a4ae7" fill="none"/><path d="M13 53 C182 80,179 121,323 115" stroke="#9e55e6" fill="none"/><path d="M5 38 C156 51,186 101,333 99" stroke="#dd597a" fill="none"/><path d="M2 54 C191 61,168 131,329 126" stroke="#8a6aea" fill="none"/><path d="M2 131 C181 108,164 38,334 93" stroke="#48de6e" fill="none"/><path d="M10 135 C176 22,191 21,322 135" stroke="#e475e4" fill="none"/><path d="M17 47 C182 90,165 98,326 13" stroke="#957ae5" fill="none"/><path d="M2 60 C192 113,188 126,323 85" stroke="#e4e47b" fill="none"/><path d="M13 13 C156 45,156 87,330 11" stroke="#8eebbc" fill="none"/><path d="M5 60 C160 37,170 104,324 128" stroke="#cd6ded" fill="none"/><path d="M18 102 C181 75,160 26,324 94" stroke="#4848d5" fill="none"/><path fill="#e6bf97" d="M131.55 61.69L131.56 61.70L129.12 61.84L129.15 61.87Q125.85 62.19 125.50 65.29L125.45 65.23L125.40 65.19Q125.20 66.22 125.26 67.74L125.39 67.87L125.37 67.85Q125.39 70.79 127.32 72.84L127.43 72.94L127.29 72.81Q129.23 74.87 132.16 74.64L132.22 74.70L132.23 74.71Q135.43 74.51 136.59 73.11L136.52 73.03L136.45 72.96Q138.19 71.66 138.60 68.22L138.56 68.17L138.62 68.23Q139.02 64.78 137.09 63.49L137.06 63.46L136.98 63.38Q135.69 62.21 131.60 61.74ZM140.96 76.02L140.93 75.98L138.88 79.43L138.91 79.45Q134.78 86.85 128.99 93.10L128.97 93.08L128.92 93.03Q126.52 93.37 122.37 94.60L122.29 94.52L122.23 94.47Q130.51 84.91 135.36 77.55L135.36 77.54L135.26 77.45Q133.85 78.61 131.34 78.72L131.28 78.67L131.20 78.59Q126.58 78.82 124.24 75.78L124.40 75.94L124.27 75.81Q122.45 73.41 120.76 66.39L120.73 66.36L120.76 66.40Q120.74 65.67 120.51 64.24L120.54 64.28L120.53 64.26Q120.21 62.74 120.21 62.04L120.22 62.05L120.20 62.03Q120.33 59.42 121.97 58.48L121.92 58.43L121.93 58.44Q123.73 57.21 126.60 57.21L126.73 57.34L126.59 57.20Q131.60 57.30 131.60 57.30L131.50 57.20L131.51 57.21Q134.80 57.23 136.73 57.52L136.87 57.66L136.87 57.65Q140.13 58.05 141.53 58.81L141.44 58.72L141.42 58.70Q143.60 59.95 143.90 62.64L143.81 62.55L143.89 62.63Q143.94 63.03 143.65 67.12L143.56 67.04L143.52 67.00Q143.01 70.35 142.66 71.64L142.73 71.70L142.70 71.67Q142.05 73.77 140.88 75.93ZM143.90 79.71L143.84 79.65L143.84 79.65Q145.40 76.31 146.22 69.70L146.24 69.72L146.27 69.74Q146.51 66.19 146.45 64.84L146.58 64.97L146.58 64.97Q146.52 62.10 144.71 60.70L144.71 60.71L144.26 60.55L144.12 60.40Q143.79 59.31 142.38 58.32L142.30 58.23L142.37 58.30Q138.90 56.82 131.53 56.58L131.43 56.48L131.41 56.47Q129.95 56.47 126.21 56.47L126.22 56.48L126.22 56.48Q123.57 56.52 121.29 57.57L121.32 57.60L121.27 57.55Q119.59 58.86 119.71 61.66L119.60 61.55L119.63 61.58Q119.93 62.99 120.22 66.09L120.24 66.11L120.30 66.16Q121.16 70.13 121.57 71.41L121.63 71.47L121.63 71.48Q122.42 74.25 123.88 76.24L123.88 76.24L123.95 76.31Q124.43 76.90 125.01 77.49L124.99 77.47L125.02 77.50Q125.38 78.14 126.37 79.55L126.33 79.51L126.42 79.60Q128.72 81.72 131.70 82.01L131.55 81.86L131.57 81.88Q128.65 85.98 126.25 88.90L126.34 88.99L120.80 95.73L120.71 95.63Q124.12 94.43 126.63 93.90L126.71 93.97L126.65 93.92Q125.51 95.29 123.11 97.92L123.18 97.99L123.08 97.89Q127.93 96.60 132.72 96.54L132.58 96.39L132.77 96.58Q136.32 92.59 142.98 81.49L142.89 81.39L142.90 81.52L142.97 81.59Q143.24 80.34 143.76 79.58ZM134.61 65.45L134.60 65.44L134.56 65.40Q135.55 65.28 136.25 65.46L136.23 65.44L136.31 65.52Q137.14 65.53 137.72 65.70L137.71 65.69L137.78 65.76Q137.98 66.36 138.09 67.01L138.16 67.08L138.19 67.10Q138.30 67.74 138.12 68.32L138.07 68.27L138.14 68.34Q137.92 70.81 136.11 72.51L136.21 72.60L136.14 72.54Q134.64 74.07 132.12 74.02L132.17 74.06L132.28 74.17Q131.64 74.17 129.30 73.70L129.14 73.54L129.23 73.64Q128.85 72.26 128.85 71.15L128.92 71.22L128.96 71.26Q128.67 70.68 128.67 70.33L128.72 70.38L128.71 70.37Q128.78 67.04 132.28 65.82L132.26 65.79L132.21 65.74Q133.34 65.47 134.63 65.47Z"/><path d="M6 136 C159 119,160 12,332 12" stroke="#efef84" fill="none"/><path d="M13 83 C181 106,171 94,334 9" stroke="#44b3d8" fill="none"/><path d="M18 80 C181 102,166 36,336 100" stroke="#e7a869" fill="none"/><path d="M6 44 C175 14,166 35,338 54" stroke="#8ea5ea" fill="none"/><path d="M10 34 C168 25,190 90,324 77" stroke="#ef85ba" fill="none"/><path d="M8 41 C160 44,164 59,328 12" stroke="#d54242" fill="none"/></svg>