<svg xmlns="http://www.w3.org/2000/svg" width="342" height="140" viewBox="0,0,342,140"><path d="M6 119 C184 103,172 58,340 90" stroke="#8e37e6" fill="none"/><path d="M2 74 C175 69,173 41,337 90" stroke="#61db9e" fill="none"/><path d="M12 91 C185 132,153 78,338 21" stroke="#c975e5" fill="none"/><path d="M14 116 C190 36,176 23,332 82" stroke="#ad7adf" fill="none"/><path d="M4 58 C170 137,169 127,340 12" stroke="#e7754f" fill="none"/><path d="M19 32 C180 136,179 2,329 17" stroke="#6feb8e" fill="none"/><path d="M17 89 C184 5,191 40,335 95" stroke="#d77250" fill="none"/><path d="M12 132 C176 41,179 23,325 68" stroke="#7edd5f" fill="none"/><path d="M4 69 C162 108,171 122,323 138" stroke="#dc60dc" fill="none"/><path fill="#9578ec" d="M69.73 74.15L69.74 74.17L69.80 74.23Q71.33 74.21 74.04 73.91L73.96 73.83L73.97 73.85Q73.93 75.12 73.93 76.37L73.90 76.34L73.97 78.83L74.01 78.88Q72.23 78.71 70.62 78.86L70.79 79.03L70.80 79.04Q69.12 79.05 67.51 78.98L67.51 78.98L67.55 79.02Q62.02 90.89 55.41 99.78L55.44 99.80L55.45 99.81Q50.47 100.93 47.98 102.11L48.08 102.21L47.95 102.08Q55.96 91.15 61.84 79.04L61.87 79.07L56.74 79.01L56.84 79.11Q56.76 76.46 56.54 73.89L56.46 73.80L56.46 73.80Q60.16 74.12 64.12 74.12L64.20 74.20L67.83 67.04L67.89 67.10Q69.81 63.44 72.16 60.36L72.19 60.39L72.02 60.22Q69.03 60.53 65.95 60.53L66.02 60.61L66.07 60.65Q54.19 60.52 46.92 56.27L47.01 56.35L45.77 53.06L45.85 53.14Q45.04 51.37 44.31 49.68L44.40 49.78L44.28 49.65Q52.70 54.78 63.71 55.22L63.76 55.26L63.64 55.14Q73.62 55.65 83.54 51.84L83.65 51.95L83.51 51.81Q83.20 52.68 82.25 54.36L82.33 54.45L82.30 54.42Q75.24 63.51 69.73 74.16ZM85.24 56.92L85.36 57.04L87.32 53.20L87.32 53.20Q85.36 54.03 82.13 55.42L82.11 55.40L82.44 54.78L82.54 54.88Q82.68 54.50 82.90 54.28L83.05 54.43L83.07 54.46Q83.64 52.97 85.03 50.40L85.11 50.48L85.10 50.47Q74.81 54.86 63.72 54.42L63.73 54.42L63.68 54.38Q52.24 54.02 43.06 48.29L42.88 48.11L43.03 48.26Q44.94 51.79 46.56 56.93L46.62 56.99L46.58 56.95Q48.67 58.16 50.21 58.75L50.23 58.77L50.18 58.71Q50.49 59.39 51.37 62.98L51.40 63.02L51.44 63.05Q57.46 65.41 68.11 65.12L68.13 65.14L68.19 65.20Q67.66 66.36 63.84 73.62L63.65 73.44L63.84 73.62Q59.69 73.44 55.87 73.07L56.03 73.22L56.02 73.21Q56.12 74.78 56.12 76.47L56.18 76.53L56.06 79.72L59.28 79.71L59.41 82.56L59.42 82.56Q51.69 96.64 46.33 103.54L46.32 103.53L46.47 103.68Q49.41 102.07 52.57 101.12L52.67 101.22L52.70 101.25Q51.31 102.94 48.66 106.24L48.60 106.18L48.74 106.32Q54.86 104.22 59.56 103.78L59.39 103.61L59.57 103.78Q65.09 96.38 71.11 83.32L71.08 83.29L77.83 83.80L77.67 83.64Q77.58 81.93 77.58 80.17L77.53 80.12L77.69 76.83L77.57 76.71Q77.04 76.69 75.98 76.77L76.11 76.90L76.13 76.92Q74.99 76.92 74.48 76.92L74.42 76.86L74.48 76.92Q74.50 76.72 74.58 76.43L74.51 76.36L74.50 75.84L74.51 75.85Q79.35 65.93 85.30 56.98Z"/><path d="M18 114 C156 89,185 46,331 121" stroke="#4a93dd" fill="none"/><path d="M20 66 C163 19,179 68,341 101" stroke="#8eea8e" fill="none"/><path d="M6 113 C161 88,176 56,339 98" stroke="#e59175" fill="none"/><path d="M9 5 C182 4,165 29,321 73" stroke="#4fc1e7" fill="none"/><path d="M21 46 C163 126,188 27,327 82" stroke="#90eea7" fill="none"/><path d="M20 65 C159 1,153 115,331 97" stroke="#e66565" fill="none"/><path d="M14 126 C190 103,176 123,340 71" stroke="#5de3a0" fill="none"/><path d="M8 12 C169 14,165 70,334 100" stroke="#eb5a7e" fill="none"/><path fill="#50eb77" d="M259.95 99.50L259.97 99.53L260.12 99.68Q257.22 99.64 254.21 98.83L254.40 99.02L254.35 98.97Q251.92 97.13 251.63 93.97L251.68 94.02L251.67 94.01Q251.59 93.64 251.96 88.57L251.89 88.51L251.91 88.53Q254.01 88.28 257.91 87.55L257.86 87.51L257.52 89.00L257.56 89.04Q257.03 92.40 259.75 93.51L259.74 93.49L259.64 93.39Q261.26 94.13 265.30 94.13L265.22 94.05L265.33 94.17Q268.24 93.69 268.60 93.55L268.75 93.69L268.61 93.55Q270.54 93.43 271.93 92.47L271.87 92.41L271.82 92.36Q274.67 90.65 274.30 86.62L274.21 86.53L274.29 86.61Q273.90 81.89 270.56 78.88L270.52 78.83L270.43 78.74Q267.15 75.80 262.38 75.80L262.33 75.75L262.29 75.27L262.38 75.35Q263.08 75.25 264.77 75.11L264.71 75.05L264.79 75.12Q268.41 74.85 271.05 72.46L271.04 72.46L271.17 72.58Q273.68 70.07 273.97 66.47L274.09 66.58L273.99 66.49Q274.27 65.95 274.27 65.29L274.17 65.20L274.14 65.17Q274.24 62.33 271.60 60.57L271.51 60.47L271.52 60.49Q269.16 58.93 266.07 59.15L266.13 59.21L266.04 59.12Q263.55 58.83 261.20 59.64L261.22 59.66L261.37 59.81Q258.42 60.68 257.84 62.88L257.96 63.01L257.94 62.99Q257.61 64.49 257.76 65.96L257.64 65.85L257.65 65.86Q255.67 65.42 251.71 64.03L251.71 64.03L251.72 64.04Q251.27 60.80 251.35 59.19L251.44 59.28L251.45 59.29Q251.51 56.19 253.57 54.87L253.57 54.88L253.68 54.98Q256.36 53.78 259.45 53.78L259.43 53.76L259.54 53.87Q265.47 53.63 271.56 54.15L271.63 54.21L271.70 54.28Q281.40 55.03 280.81 62.30L280.86 62.34L280.77 62.25Q280.70 65.19 279.75 68.20L279.68 68.14L279.78 68.24Q277.94 74.11 273.39 75.87L273.35 75.83L273.30 75.78Q278.40 76.84 279.58 83.30L279.73 83.46L279.68 83.40Q280.02 85.51 280.16 89.40L280.18 89.42L280.18 89.41Q280.47 98.00 271.59 98.89L271.65 98.95L271.67 98.96Q270.17 99.01 259.97 99.52ZM270.11 103.94L270.11 103.93L270.08 103.91Q271.34 104.07 276.85 104.22L276.72 104.09L276.74 104.11Q280.20 104.34 283.36 103.09L283.25 102.98L283.32 103.05Q285.65 101.27 285.28 97.89L285.20 97.81L285.31 97.92Q285.09 95.35 284.50 91.97L284.41 91.88L284.35 91.82Q283.02 83.22 279.28 80.07L279.21 80.00L278.84 79.27L278.81 79.16L278.79 79.14Q282.12 76.30 283.58 67.85L283.77 68.04L283.72 67.99Q283.84 67.16 284.06 65.32L283.90 65.16L283.96 65.22Q284.09 63.74 283.94 62.41L284.00 62.48L284.06 62.53Q283.75 59.28 281.25 57.96L281.12 57.83L281.06 57.91L281.01 57.86Q280.45 55.98 278.25 54.95L278.33 55.04L278.33 55.04Q275.27 53.60 265.36 53.01L265.34 52.99L265.32 52.97Q262.15 52.88 259.06 52.88L259.15 52.97L259.11 52.92Q256.05 52.95 253.11 54.20L253.14 54.22L253.08 54.16Q250.80 55.70 250.80 59.07L250.78 59.06L250.68 58.96Q250.67 58.14 251.18 64.60L251.16 64.58L251.26 64.68Q251.77 64.75 254.93 65.92L254.90 65.89L254.98 65.97Q254.93 66.96 254.86 67.91L254.98 68.03L254.81 67.86Q254.92 68.92 254.99 69.95L254.91 69.87L255.01 69.97Q258.35 70.59 262.24 70.81L262.21 70.79L262.28 70.85Q262.14 66.97 264.27 65.36L264.22 65.31L264.23 65.31Q265.90 64.12 269.79 63.68L269.88 63.77L269.88 63.77Q271.97 63.65 273.07 64.02L273.14 64.10L273.05 64.00Q273.08 64.18 273.16 64.40L273.29 64.54L273.17 64.78L273.48 65.98L273.39 65.88Q273.56 66.42 273.49 66.72L273.43 66.66L273.43 66.66Q273.27 69.95 270.33 72.22L270.35 72.24L270.33 72.22Q268.59 74.00 264.70 74.37L264.57 74.25L264.58 74.25Q263.31 74.67 261.62 74.67L261.49 74.55L261.65 74.70Q261.67 75.31 261.97 76.63L261.98 76.64L261.97 76.64Q265.38 76.67 268.17 78.06L268.03 77.92L267.94 78.06L264.88 78.37L264.95 78.44Q264.91 78.99 265.13 80.17L265.24 80.27L265.23 80.26Q269.26 80.04 272.57 82.61L272.69 82.73L272.54 82.58Q273.10 83.44 273.69 86.60L273.57 86.48L273.54 86.44Q273.96 92.15 268.31 92.96L268.42 93.08L268.24 92.89Q264.38 93.58 263.27 93.51L263.20 93.43L263.29 93.52Q262.40 93.29 261.37 93.14L261.30 93.07L261.31 92.20L261.45 91.24L261.52 90.50L261.70 90.02L261.74 90.06Q259.79 90.10 258.25 90.46L258.29 90.51L258.30 90.51Q258.18 90.02 258.18 89.66L258.13 89.61L258.16 89.64Q258.21 89.25 258.21 88.81L258.21 88.80L258.18 88.78Q258.39 88.11 258.69 86.71L258.66 86.69L258.69 86.72Q255.05 87.12 251.46 87.78L251.35 87.67L251.41 87.73Q251.43 88.71 251.21 90.88L251.22 90.89L251.15 90.82Q251.09 93.14 251.09 94.31L251.00 94.23L251.09 94.32Q251.10 98.14 253.74 99.61L253.87 99.74L253.73 99.60Q256.65 104.06 265.76 103.70L265.67 103.61L265.71 103.65Q267.11 103.58 270.05 103.88Z"/><path d="M4 28 C186 42,176 113,327 67" stroke="#4a70e2" fill="none"/><path d="M2 33 C157 43,188 82,333 30" stroke="#7575e5" fill="none"/><path d="M13 55 C166 119,188 121,338 121" stroke="#d3e697" fill="none"/><path d="M9 86 C174 78,167 55,337 133" stroke="#61e9c7" fill="none"/><path d="M14 133 C150 15,162 97,339 108" stroke="#4166d6" fill="none"/><path fill="#7fafe0" d="M198.43 59.58L198.40 59.55L195.46 59.84L195.53 59.92Q191.13 60.07 190.69 63.96L190.71 63.98L190.62 63.89Q190.62 65.43 190.69 67.34L190.55 67.20L190.69 67.34Q190.81 71.13 193.23 73.70L193.23 73.70L193.12 73.59Q195.61 76.22 199.28 75.93L199.16 75.80L199.20 75.85Q203.26 75.65 204.73 73.89L204.67 73.83L204.73 73.89Q206.66 72.00 207.18 67.67L207.29 67.79L207.24 67.73Q207.84 63.49 205.42 61.87L205.34 61.79L205.32 61.77Q203.65 60.25 198.51 59.67ZM210.09 77.41L210.18 77.51L207.73 81.96L207.60 81.83Q202.46 91.15 195.19 99.00L195.20 99.01L195.28 99.09Q192.11 99.37 186.89 100.91L186.79 100.80L186.85 100.86Q197.02 88.64 203.11 79.39L203.22 79.50L203.27 79.55Q201.16 80.67 198.00 80.82L198.07 80.89L198.05 80.86Q192.24 81.14 189.30 77.33L189.32 77.35L189.24 77.27Q186.96 74.26 184.83 65.44L184.76 65.37L184.77 65.38Q184.87 64.60 184.58 62.80L184.61 62.83L184.55 62.77Q184.30 61.02 184.30 60.14L184.17 60.01L184.26 60.10Q184.19 56.58 186.25 55.40L186.30 55.45L186.22 55.38Q188.58 53.92 192.18 53.92L192.34 54.08L192.25 54.00Q198.34 53.91 198.34 53.91L198.49 54.06L198.38 53.95Q202.62 54.09 205.04 54.45L205.09 54.50L204.99 54.40Q209.14 54.95 210.90 55.91L210.93 55.93L210.93 55.93Q213.57 57.40 213.94 60.77L213.97 60.81L213.88 60.72Q214.00 61.27 213.63 66.41L213.54 66.32L213.59 66.38Q212.73 70.36 212.29 71.98L212.45 72.14L212.37 72.06Q211.60 74.74 210.13 77.46ZM213.88 82.16L213.83 82.11L213.77 82.05Q215.78 77.89 216.81 69.59L216.74 69.53L216.71 69.50Q217.28 65.29 217.21 63.60L217.21 63.60L217.23 63.63Q217.09 59.96 214.81 58.20L214.91 58.29L214.21 57.96L214.19 57.95Q213.72 56.52 211.96 55.27L211.92 55.23L211.95 55.27Q207.66 53.47 198.41 53.18L198.37 53.14L198.39 53.16Q196.44 53.05 191.75 53.05L191.73 53.03L191.84 53.14Q188.43 53.11 185.57 54.43L185.67 54.53L185.65 54.51Q183.35 55.96 183.50 59.48L183.54 59.53L183.60 59.59Q183.87 61.25 184.24 65.14L184.33 65.23L184.24 65.15Q185.40 70.19 185.91 71.81L185.88 71.77L185.96 71.85Q186.99 75.38 188.82 77.88L188.90 77.96L188.91 77.96Q189.42 78.63 190.16 79.36L190.22 79.42L190.12 79.32Q190.64 80.21 191.89 81.97L191.90 81.99L191.89 81.97Q194.79 84.65 198.53 85.01L198.43 84.92L198.55 85.04Q194.75 90.04 191.73 93.71L191.78 93.75L184.74 102.14L184.81 102.20Q189.11 100.71 192.27 100.05L192.40 100.18L192.26 100.04Q190.88 101.81 187.87 105.12L187.94 105.19L187.94 105.19Q193.81 103.34 199.83 103.27L199.77 103.21L199.80 103.25Q204.38 98.36 212.75 84.41L212.67 84.33L212.63 84.43L212.66 84.46Q213.15 83.04 213.81 82.08ZM202.23 64.27L202.26 64.29L202.30 64.34Q203.48 64.12 204.36 64.34L204.21 64.19L204.31 64.29Q205.58 64.53 206.31 64.75L206.22 64.66L206.37 64.80Q206.43 65.38 206.58 66.19L206.63 66.24L206.58 66.19Q206.77 67.04 206.55 67.78L206.62 67.85L206.57 67.80Q206.58 71.18 204.30 73.31L204.32 73.33L204.15 73.16Q202.42 75.25 199.27 75.18L199.28 75.19L199.31 75.22Q198.32 75.04 195.38 74.45L195.46 74.53L195.42 74.49Q194.95 72.77 194.95 71.38L195.07 71.49L194.97 71.39Q194.92 70.97 194.92 70.53L194.89 70.50L194.98 70.60Q194.81 66.17 199.21 64.62L199.25 64.66L199.22 64.63Q200.66 64.31 202.28 64.31Z"/><path d="M2 42 C179 55,162 127,325 85" stroke="#e778cb" fill="none"/><path d="M18 97 C159 20,156 121,324 31" stroke="#e38b8b" fill="none"/><path d="M10 30 C172 50,182 84,331 102" stroke="#96e349" fill="none"/><path d="M3 32 C181 89,189 69,339 95" stroke="#eba189" fill="none"/><path d="M17 81 C181 50,164 65,332 67" stroke="#6969e7" fill="none"/><path d="M5 7 C191 38,168 30,322 41" stroke="#e146ba" fill="none"/><path d="M10 46 C175 45,184 41,331 17" stroke="#5fc5e7" fill="none"/><path d="M14 14 C153 55,184 50,329 32" stroke="#e88787" fill="none"/><path d="M18 115 C153 54,176 29,337 66" stroke="#de4eba" fill="none"/><path d="M16 101 C171 101,163 116,326 71" stroke="#ac98e5" fill="none"/><path d="M6 45 C183 89,186 131,337 101" stroke="#d592eb" fill="none"/><path d="M9 54 C175 16,168 83,322 83" stroke="#e475c9" fill="none"/><path d="M14 111 C159 57,180 112,341 51" stroke="#99e24f" fill="none"/><path d="M2 27 C191 69,173 11,326 125" stroke="#a7e692" fill="none"/><path d="M11 40 C177 30,160 105,335 2" stroke="#ed6c8d" fill="none"/><path d="M13 63 C163 86,157 100,335 126" stroke="#e36262" fill="none"/><path fill="#a0e15f" d="M130.40 59.56L130.46 59.62L127.45 59.83L127.50 59.88Q123.18 60.12 122.74 64.01L122.76 64.03L122.74 64.00Q122.57 65.38 122.64 67.29L122.70 67.34L122.72 67.37Q122.79 71.10 125.21 73.67L125.05 73.51L125.10 73.56Q127.59 76.20 131.26 75.91L131.13 75.78L131.32 75.97Q135.29 75.68 136.76 73.91L136.61 73.77L136.72 73.88Q138.62 71.96 139.13 67.63L139.27 67.76L139.25 67.74Q139.79 63.44 137.37 61.83L137.28 61.73L137.27 61.73Q135.61 60.22 130.47 59.63ZM142.18 77.50L142.14 77.46L139.71 81.93L139.64 81.87Q134.49 91.17 127.22 99.03L127.16 98.97L127.24 99.05Q124.09 99.36 118.88 100.90L118.83 100.85L118.82 100.83Q129.02 88.65 135.12 79.40L135.17 79.45L135.14 79.42Q133.31 80.82 130.15 80.96L130.01 80.82L130.11 80.93Q124.19 81.09 121.25 77.28L121.41 77.43L121.41 77.44Q118.91 74.20 116.78 65.39L116.85 65.46L116.74 65.35Q116.88 64.61 116.59 62.82L116.60 62.83L116.54 62.77Q116.31 61.03 116.31 60.15L116.29 60.13L116.29 60.13Q116.32 56.71 118.37 55.53L118.32 55.48L118.30 55.45Q120.75 54.09 124.35 54.09L124.18 53.92L124.31 54.05Q130.45 54.02 130.45 54.02L130.37 53.95L130.34 53.92Q134.51 53.98 136.93 54.34L136.98 54.39L136.95 54.36Q141.06 54.87 142.82 55.82L142.95 55.96L142.93 55.94Q145.60 57.43 145.97 60.81L145.91 60.74L145.93 60.77Q145.95 61.23 145.59 66.37L145.53 66.32L145.46 66.24Q144.77 70.40 144.33 72.01L144.29 71.98L144.47 72.16Q143.70 74.84 142.23 77.56ZM145.93 82.21L145.75 82.02L145.93 82.20Q147.65 77.76 148.68 69.46L148.76 69.54L148.78 69.56Q149.29 65.30 149.21 63.61L149.26 63.66L149.19 63.58Q149.09 59.96 146.81 58.20L146.90 58.29L146.25 58.00L146.36 58.12Q145.76 56.56 144.00 55.31L144.05 55.36L144.05 55.37Q139.62 53.43 130.37 53.13L130.33 53.10L130.28 53.05Q128.52 53.12 123.82 53.12L123.87 53.17L123.78 53.08Q120.48 53.16 117.62 54.48L117.51 54.37L117.62 54.48Q115.41 56.02 115.55 59.54L115.55 59.54L115.45 59.44Q115.83 61.21 116.19 65.10L116.34 65.25L116.32 65.22Q117.51 70.30 118.02 71.92L117.86 71.76L117.93 71.82Q119.08 75.48 120.92 77.97L120.94 77.99L120.86 77.91Q121.40 78.60 122.13 79.33L122.05 79.25L122.04 79.24Q122.63 80.20 123.88 81.96L123.97 82.05L123.89 81.97Q126.71 84.57 130.46 84.94L130.45 84.93L130.42 84.90Q126.80 90.10 123.79 93.77L123.91 93.89L116.75 102.14L116.89 102.28Q121.26 100.86 124.42 100.19L124.42 100.20L124.42 100.19Q122.94 101.88 119.93 105.18L119.94 105.19L119.93 105.18Q125.79 103.33 131.81 103.25L131.76 103.20L131.76 103.21Q136.20 98.17 144.57 84.22L144.69 84.35L144.67 84.47L144.67 84.47Q145.23 83.13 145.89 82.17ZM134.18 64.21L134.33 64.36L134.33 64.37Q135.50 64.14 136.38 64.36L136.36 64.34L136.24 64.22Q137.53 64.48 138.26 64.70L138.18 64.62L138.26 64.70Q138.56 65.51 138.71 66.32L138.70 66.31L138.60 66.21Q138.74 67.01 138.52 67.75L138.55 67.78L138.62 67.85Q138.57 71.18 136.30 73.31L136.26 73.27L136.20 73.21Q134.33 75.16 131.18 75.09L131.27 75.18L131.22 75.13Q130.38 75.10 127.44 74.51L127.52 74.59L127.40 74.47Q127.02 72.84 127.02 71.44L126.97 71.40L127.02 71.44Q126.81 70.87 126.81 70.43L126.88 70.50L126.97 70.58Q126.89 66.25 131.30 64.71L131.32 64.73L131.37 64.79Q132.52 64.18 134.14 64.18Z"/><path d="M9 17 C185 61,159 12,331 36" stroke="#e68da3" fill="none"/><path d="M14 78 C166 16,164 116,336 55" stroke="#3863e5" fill="none"/></svg>