<svg xmlns="http://www.w3.org/2000/svg" width="342" height="140" viewBox="0,0,342,140"><path d="M14 88 C152 41,154 49,330 108" stroke="#e89377" fill="none"/><path d="M7 3 C181 119,187 96,325 81" stroke="#43bfe9" fill="none"/><path d="M18 88 C157 38,185 129,323 47" stroke="#6daae8" fill="none"/><path fill="#4dd5b3" d="M103.26 91.72L103.17 91.63L103.28 91.74Q105.25 93.29 107.81 93.01L107.88 93.08L107.93 93.13Q113.26 93.46 114.43 87.36L114.45 87.38L114.45 87.38Q115.47 81.53 115.47 75.36L115.52 75.41L115.42 70.59L115.59 70.76Q115.59 68.48 114.96 66.19L114.99 66.22L114.93 66.15Q112.62 70.29 109.01 78.96L109.11 79.06L108.97 78.92Q105.46 87.68 103.24 91.70ZM112.38 61.67L112.47 61.75L112.47 61.75Q110.27 60.18 107.85 60.18L107.94 60.27L107.82 60.15Q105.23 59.99 103.22 61.66L103.19 61.62L103.21 61.64Q101.11 63.22 100.76 65.92L100.72 65.88L100.87 66.03Q100.14 68.42 100.07 71.13L100.14 71.20L100.18 71.23Q100.05 71.10 100.05 76.30L100.15 76.41L100.11 76.36Q100.11 80.66 100.94 87.25L100.97 87.28L100.86 87.17Q104.40 78.57 112.37 61.65ZM115.29 95.98L115.27 95.97L115.22 95.92Q112.07 97.62 107.84 97.62L107.83 97.61L104.92 97.68L104.79 97.55Q98.93 97.59 96.85 94.47L96.92 94.53L96.83 94.44Q95.37 90.48 95.23 85.15L95.33 85.25L95.26 85.17Q95.27 82.07 95.13 75.76L95.00 75.62L95.10 75.73Q95.04 73.51 94.76 67.96L94.68 67.89L94.80 68.01Q94.61 63.79 95.16 60.18L95.09 60.11L95.18 60.20Q96.12 54.90 104.03 54.49L103.95 54.41L103.99 54.45Q105.39 54.40 107.82 54.47L107.81 54.46L107.67 54.32Q118.15 54.74 120.09 61.05L120.07 61.03L119.94 60.90Q121.12 64.44 121.05 67.84L121.07 67.85L121.04 67.83Q120.86 76.87 120.72 79.09L120.81 79.17L120.74 79.11Q120.42 86.07 119.86 88.42L119.93 88.49L119.79 88.35Q118.66 94.08 115.19 95.88ZM124.24 95.50L124.18 95.44L124.26 95.52Q124.68 90.47 124.61 87.21L124.70 87.29L124.40 78.75L124.42 78.76Q124.38 73.39 123.41 63.33L123.45 63.37L123.41 63.33Q122.40 59.96 120.04 58.58L120.00 58.53L120.00 58.54Q117.26 53.99 107.83 53.71L107.76 53.65L107.69 53.58Q106.21 53.62 103.78 53.69L103.78 53.69L103.65 53.56Q95.55 53.85 94.65 59.54L94.62 59.50L94.53 59.41Q93.87 63.67 94.07 67.49L94.11 67.53L94.02 67.44Q94.76 75.52 94.69 81.62L94.67 81.60L94.64 81.57Q94.57 88.30 94.78 90.17L94.75 90.15L94.75 90.14Q95.52 95.84 98.30 97.29L98.26 97.25L98.17 97.16Q100.88 101.19 108.16 101.68L108.32 101.84L108.26 101.78Q114.79 102.21 115.97 102.14L116.02 102.19L116.01 102.18Q121.11 101.80 123.19 98.89L123.26 98.96L123.29 98.99Q124.07 97.62 124.21 95.47ZM108.51 92.33L108.58 92.39L108.60 92.41Q109.79 89.72 111.73 84.80L111.83 84.90L114.90 77.14L114.86 77.11Q114.84 80.13 114.14 86.24L114.08 86.18L114.07 86.16Q112.87 91.42 108.50 92.32ZM104.95 69.97L105.05 70.08L105.07 70.09Q105.90 66.83 107.15 65.79L107.02 65.67L107.14 65.79Q107.80 64.85 110.16 64.51L110.33 64.67L110.31 64.65Q107.17 71.29 103.77 79.75L103.68 79.66L103.73 79.71Q103.81 74.86 105.06 70.08Z"/><path d="M18 70 C180 14,185 29,323 52" stroke="#cb87e2" fill="none"/><path d="M14 131 C150 94,174 2,337 46" stroke="#db4c93" fill="none"/><path d="M14 63 C165 32,154 36,328 52" stroke="#de67c1" fill="none"/><path d="M10 53 C191 123,151 27,322 31" stroke="#70e4e4" fill="none"/><path d="M18 68 C177 102,176 18,331 77" stroke="#e990d2" fill="none"/><path d="M5 31 C174 112,165 97,339 40" stroke="#31e6e6" fill="none"/><path d="M13 39 C160 71,184 67,324 122" stroke="#e150e1" fill="none"/><path d="M17 52 C161 43,188 23,334 54" stroke="#9de584" fill="none"/><path d="M7 138 C175 14,187 124,322 112" stroke="#54c2e7" fill="none"/><path d="M11 139 C172 132,175 32,332 124" stroke="#6cdea5" fill="none"/><path d="M19 134 C185 82,176 57,341 105" stroke="#6de88c" fill="none"/><path d="M8 28 C164 84,164 54,335 2" stroke="#69e7c7" fill="none"/><path d="M7 19 C171 40,190 46,339 29" stroke="#5b7ce0" fill="none"/><path fill="#e17eaf" d="M157.58 84.52L157.56 84.50L157.46 84.40Q163.24 83.86 169.06 84.07L168.91 83.92L169.02 84.03Q169.00 79.44 169.00 75.07L168.94 75.00L168.96 75.02Q168.88 70.44 169.22 65.79L169.33 65.90L169.25 65.81Q167.00 68.91 157.50 84.44ZM175.54 97.84L175.68 97.97L175.64 97.93Q172.63 97.42 169.37 97.28L169.36 97.27L169.25 97.16Q168.91 92.87 168.70 88.36L168.63 88.29L168.75 88.41Q159.06 88.08 150.46 90.64L150.47 90.66L150.47 90.66Q150.62 89.69 150.97 87.89L150.94 87.86L150.98 87.91Q154.26 82.17 160.78 70.73L160.69 70.64L160.80 70.75Q166.09 61.89 172.33 54.82L172.26 54.76L172.20 54.69Q173.77 54.32 176.82 53.83L176.88 53.89L176.92 53.93Q173.49 65.69 173.49 78.52L173.48 78.50L173.52 78.55Q173.36 81.09 173.50 83.80L173.63 83.93L175.83 83.98L176.00 84.15Q177.05 84.16 178.16 84.37L178.17 84.37L178.16 84.36Q178.37 86.18 178.86 89.71L178.88 89.73L178.79 89.65Q176.57 89.15 173.86 88.80L173.97 88.91L173.88 88.82Q174.38 92.58 175.63 97.92ZM178.59 83.62L178.66 83.68L178.63 83.66Q178.32 83.56 177.97 83.56L177.97 83.56L177.20 83.48L177.23 83.50Q176.96 80.74 176.96 78.17L177.04 78.25L177.13 78.34Q176.98 66.54 180.72 55.59L180.81 55.67L180.76 55.62Q179.46 56.19 176.82 56.89L176.82 56.89L176.78 56.84Q177.11 55.37 177.94 52.81L178.00 52.86L178.04 52.91Q175.62 53.54 171.88 53.95L171.87 53.95L171.85 53.93Q164.71 61.84 155.21 78.89L155.26 78.94L159.05 72.26L159.14 72.34Q158.34 74.19 157.86 75.23L157.86 75.23L149.73 91.65L149.69 91.61Q150.89 91.35 152.97 90.65L152.90 90.58L152.80 91.18L152.64 91.02Q152.42 92.25 151.86 94.54L151.96 94.64L151.91 94.59Q159.43 92.19 168.24 92.54L168.13 92.44L168.33 92.63Q168.21 94.18 168.56 97.79L168.65 97.88L168.70 97.93Q170.51 97.80 172.45 98.01L172.52 98.07L172.57 98.12Q172.86 99.38 173.34 101.88L173.23 101.76L173.38 101.91Q176.81 102.29 182.28 103.95L182.22 103.89L182.14 103.81Q180.53 100.11 178.86 94.15L178.77 94.06L181.45 94.93L181.37 94.86Q182.62 95.28 183.87 95.90L184.00 96.03L183.87 95.90Q182.46 91.37 182.18 88.32L182.12 88.26L182.17 88.31Q181.17 88.07 179.09 87.65L178.98 87.54L179.02 87.58Q178.64 85.26 178.64 83.66ZM164.07 83.38L164.00 83.32L164.05 83.36Q165.45 81.01 168.29 76.37L168.27 76.35L168.24 76.32Q168.35 78.16 168.28 79.89L168.32 79.93L168.26 79.88Q168.20 81.62 168.27 83.35L168.24 83.32L168.29 83.37Q167.35 83.40 166.31 83.40L166.23 83.32L166.19 83.28Q165.24 83.44 164.13 83.44Z"/><path d="M8 59 C175 27,179 74,340 114" stroke="#7b95e4" fill="none"/><path d="M7 51 C180 96,169 31,340 104" stroke="#e4a362" fill="none"/><path fill="#ed81d2" d="M221.31 77.57L221.42 77.69L221.40 77.66Q217.98 77.65 215.76 80.07L215.76 80.07L215.68 79.99Q213.53 82.48 213.25 85.95L213.18 85.88L213.17 85.87Q212.89 89.82 215.11 91.66L215.03 91.57L215.06 91.60Q217.35 93.51 221.23 93.38L221.32 93.46L221.31 93.46Q225.51 93.15 227.25 91.42L227.14 91.31L227.10 91.27Q229.05 88.71 228.84 85.38L228.90 85.44L228.77 85.31Q228.74 82.09 226.76 79.90L226.71 79.85L226.67 79.82Q224.68 77.61 221.35 77.61ZM221.28 60.42L221.28 60.42L221.22 60.36Q218.66 60.16 216.24 61.06L216.36 61.19L216.24 61.06Q213.96 62.60 214.38 66.00L214.28 65.90L214.32 65.94Q215.34 72.85 221.44 72.85L221.26 72.67L221.36 72.77Q224.21 73.13 226.01 71.05L225.97 71.01L226.05 71.08Q227.76 68.91 227.83 66.06L227.90 66.14L227.78 66.02Q228.07 62.98 226.75 61.87L226.71 61.83L226.64 61.75Q223.59 60.23 221.23 60.37ZM220.77 97.84L220.85 97.92L215.31 97.92L215.33 97.94Q212.53 97.91 210.10 96.32L209.98 96.20L210.04 96.26Q207.52 94.16 207.80 88.96L207.86 89.02L207.79 88.95Q208.60 76.45 215.19 74.64L215.36 74.81L215.29 74.75Q211.20 73.15 208.77 63.37L208.71 63.31L208.72 63.32Q208.01 60.67 208.15 59.21L208.29 59.35L208.24 59.31Q208.82 55.45 215.55 55.38L215.57 55.40L215.55 55.38Q223.24 55.24 225.87 55.58L225.79 55.50L225.88 55.58Q232.83 56.50 233.66 60.18L233.72 60.24L233.64 60.16Q233.91 61.33 233.91 62.02L233.89 62.01L233.91 62.03Q233.87 63.23 233.53 64.34L233.54 64.36L233.42 64.24Q232.47 72.09 227.13 74.86L227.12 74.86L226.99 74.73Q233.41 76.22 234.31 85.86L234.31 85.86L234.36 85.91Q234.27 86.09 234.34 88.45L234.39 88.51L234.46 88.58Q234.51 93.48 231.60 95.42L231.60 95.43L231.53 95.36Q229.11 97.02 220.79 97.86ZM225.05 102.18L224.90 102.04L230.99 102.16L231.07 102.25Q234.24 102.44 237.02 101.12L236.87 100.97L237.05 101.15Q238.96 99.66 239.10 96.27L239.13 96.30L239.11 96.28Q239.34 94.42 238.64 90.89L238.53 90.77L238.63 90.88Q236.99 82.44 233.18 79.04L233.17 79.04L232.65 78.17L232.40 77.78L232.05 77.22L232.17 77.34Q235.03 74.73 236.70 67.17L236.76 67.23L236.67 67.14Q236.68 66.45 236.81 64.93L236.98 65.10L236.84 64.95Q236.98 63.71 236.84 62.60L236.86 62.61L236.83 62.59Q236.59 59.99 234.44 59.09L234.52 59.17L234.63 59.21L234.27 58.99L234.18 58.90Q233.64 57.52 231.49 56.06L231.46 56.04L231.67 56.17L231.61 56.11Q228.00 54.86 220.58 54.51L220.67 54.61L220.51 54.44Q217.81 54.38 215.31 54.59L215.18 54.46L215.31 54.59Q213.88 54.68 211.52 54.96L211.52 54.96L211.38 54.81Q207.87 55.53 207.45 58.52L207.54 58.60L207.50 58.57Q207.48 59.52 207.55 60.97L207.53 60.96L207.53 60.95Q207.67 61.85 208.71 66.15L208.72 66.17L208.78 66.23Q210.21 72.09 213.40 74.51L213.38 74.50L213.60 74.72L213.43 74.55Q208.54 77.08 207.57 86.51L207.52 86.46L207.56 86.50Q207.13 90.44 207.13 92.10L207.19 92.16L207.09 92.06Q207.35 95.44 209.50 97.11L209.45 97.06L209.40 97.01Q209.55 97.09 210.04 97.44L210.20 97.60L210.11 97.51Q212.00 101.69 224.97 102.11ZM224.44 82.02L224.36 81.94L224.26 81.84Q225.98 81.76 227.57 82.59L227.65 82.66L227.69 82.70Q228.22 84.34 228.15 85.31L228.32 85.49L228.19 85.35Q228.30 85.95 228.30 86.51L228.34 86.55L228.32 86.53Q228.36 90.87 224.20 92.39L224.04 92.23L224.19 92.38Q222.69 92.90 221.24 92.69L221.13 92.58L221.19 92.64Q219.20 92.87 217.12 92.03L217.16 92.08L217.11 92.03Q216.60 90.82 216.73 89.02L216.71 88.99L216.88 89.16Q217.08 86.17 219.27 83.96L219.16 83.85L219.16 83.85Q221.36 81.64 224.27 81.85ZM224.68 64.58L224.80 64.70L224.85 64.75Q226.17 64.41 227.14 64.68L227.26 64.81L227.14 66.14L227.16 66.16Q227.21 68.77 225.54 70.61L225.49 70.56L225.49 70.56Q223.95 72.52 221.46 72.17L221.43 72.15L221.27 71.99Q219.54 72.06 218.77 71.64L218.86 71.73L218.82 71.68Q218.68 71.13 218.47 69.88L218.51 69.92L218.55 69.96Q218.12 67.45 220.34 65.93L220.27 65.86L220.23 65.82Q222.11 64.51 224.67 64.57Z"/><path d="M10 29 C163 119,181 47,338 117" stroke="#75e74f" fill="none"/><path d="M2 79 C188 131,154 85,327 62" stroke="#44bbe3" fill="none"/><path d="M19 22 C167 39,168 111,339 100" stroke="#a3dd69" fill="none"/><path d="M14 60 C186 85,185 78,326 133" stroke="#d93f3f" fill="none"/><path d="M6 29 C184 15,184 38,329 135" stroke="#e164e1" fill="none"/><path d="M19 97 C190 111,171 48,340 120" stroke="#e871cb" fill="none"/><path d="M21 89 C186 106,151 33,331 53" stroke="#e2549b" fill="none"/><path d="M12 4 C156 95,167 24,330 31" stroke="#55e655" fill="none"/><path d="M15 16 C153 16,162 116,326 68" stroke="#e46c8a" fill="none"/><path d="M10 138 C171 26,162 8,322 22" stroke="#e14191" fill="none"/><path fill="#5a7de6" d="M273.16 97.96L273.19 98.00L273.19 97.99Q265.73 98.37 263.93 94.14L263.98 94.19L264.06 94.27Q265.28 92.37 268.12 89.11L268.29 89.28L268.31 89.30Q269.18 92.94 274.66 93.15L274.68 93.17L274.58 93.07Q280.80 93.26 283.78 90.83L283.68 90.73L283.74 90.80Q286.27 87.84 286.13 82.92L286.16 82.95L286.15 82.94Q285.86 73.70 277.12 74.12L277.09 74.09L277.26 74.25Q272.07 74.48 268.88 76.77L268.88 76.77L268.26 76.42L267.79 76.09L267.86 76.16Q268.46 70.38 268.25 65.39L268.20 65.33L268.24 65.37Q268.09 60.65 267.47 54.62L267.55 54.70L267.52 54.67Q274.09 56.31 281.02 56.11L281.05 56.14L281.08 56.17Q287.96 55.98 294.48 53.69L294.55 53.76L293.50 56.52L293.43 56.45Q292.87 57.83 292.52 59.36L292.65 59.49L292.47 59.31Q286.82 61.21 279.75 61.21L279.89 61.36L279.89 61.36Q277.08 61.18 274.38 60.91L274.38 60.91L274.54 61.07Q274.30 62.21 273.67 70.33L273.76 70.41L273.64 70.29Q275.22 69.51 278.96 69.23L278.90 69.17L278.99 69.26Q285.66 69.56 288.30 72.61L288.41 72.72L288.34 72.65Q290.90 75.49 291.38 82.49L291.46 82.57L291.30 82.40Q291.81 90.06 289.59 93.73L289.69 93.83L289.64 93.78Q285.95 97.24 279.92 97.65L279.91 97.64L279.98 97.71Q278.00 97.67 273.15 97.95ZM284.15 102.09L284.25 102.18L284.17 102.11Q290.44 102.28 293.91 100.27L293.85 100.21L293.90 100.26Q295.69 97.47 295.69 93.65L295.81 93.77L295.78 93.75Q295.83 88.18 294.10 80.69L293.94 80.54L293.94 80.54Q293.30 77.40 291.08 74.84L291.04 74.80L291.13 74.95L290.70 74.39L290.18 74.14L290.14 74.11Q289.62 72.82 288.44 71.57L288.44 71.57L288.35 71.55L288.49 71.69Q285.53 68.45 278.80 68.45L278.82 68.47L278.44 68.58L278.35 68.49Q278.45 67.40 278.80 65.39L278.91 65.51L278.93 65.53Q288.04 65.76 295.39 62.78L295.26 62.65L295.29 62.68Q296.00 60.06 297.73 54.93L297.74 54.94L294.07 56.81L294.08 56.82Q294.70 54.67 295.60 52.59L295.63 52.62L295.69 52.68Q288.70 55.33 281.21 55.47L281.15 55.40L281.06 55.31Q273.69 55.64 266.48 53.63L266.38 53.54L266.46 53.61Q267.73 61.67 267.73 69.72L267.67 69.66L267.63 69.62Q267.67 73.13 267.46 76.60L267.47 76.61L267.37 76.51Q267.90 76.89 268.94 77.45L269.04 77.55L269.03 77.54Q269.70 77.17 270.88 76.55L270.73 76.40L270.77 76.44Q270.74 77.87 270.33 80.64L270.34 80.65L270.31 80.63Q271.16 81.06 271.92 81.47L271.81 81.36L271.83 81.38Q276.95 78.25 280.35 78.25L280.31 78.21L280.24 78.14Q282.67 78.15 284.82 79.32L284.79 79.29L284.79 79.30Q285.42 81.17 285.49 82.91L285.59 83.00L285.54 82.95Q285.75 87.74 283.88 89.75L283.83 89.71L283.92 89.79Q281.35 91.94 277.26 92.36L277.17 92.27L277.29 92.39Q275.46 92.43 274.22 92.29L274.29 92.37L274.31 92.39Q272.73 92.13 271.34 91.50L271.43 91.59L271.26 91.07L271.13 91.36L271.15 91.38Q269.54 90.32 268.57 87.90L268.63 87.95L268.69 88.02Q266.17 90.49 263.12 94.38L263.09 94.34L263.19 94.44Q263.67 95.55 265.20 97.28L265.27 97.36L265.15 97.24Q267.17 100.64 272.30 101.54L272.27 101.52L272.24 101.48Q274.51 102.02 284.29 102.23Z"/><path d="M8 115 C176 66,170 50,324 46" stroke="#9173ec" fill="none"/><path d="M14 82 C177 117,167 42,337 109" stroke="#e8a38c" fill="none"/><path d="M12 88 C185 35,162 15,338 95" stroke="#67a0da" fill="none"/><path d="M12 95 C188 51,155 80,321 53" stroke="#56badb" fill="none"/><path d="M18 127 C164 2,181 33,332 12" stroke="#44d8d8" fill="none"/><path d="M4 37 C173 24,156 108,329 106" stroke="#86eb64" fill="none"/><path d="M15 11 C166 49,159 130,337 124" stroke="#e64596" fill="none"/><path d="M20 74 C167 62,168 121,322 108" stroke="#62e3e3" fill="none"/><path fill="#99ec7d" d="M51.28 77.55L51.32 77.59L51.45 77.71Q47.91 77.57 45.69 80.00L45.75 80.06L45.84 80.15Q43.62 82.58 43.35 86.04L43.17 85.87L43.32 86.02Q42.85 89.78 45.07 91.62L45.14 91.69L45.11 91.65Q47.32 93.49 51.20 93.35L51.27 93.41L51.23 93.38Q55.49 93.13 57.22 91.39L57.17 91.34L57.21 91.38Q58.98 88.64 58.77 85.32L58.79 85.33L58.78 85.33Q58.67 82.03 56.70 79.84L56.64 79.78L56.59 79.74Q54.61 77.55 51.29 77.55ZM51.37 60.51L51.34 60.48L51.19 60.33Q48.67 60.17 46.24 61.07L46.22 61.05L46.40 61.22Q43.86 62.50 44.28 65.90L44.29 65.91L44.27 65.89Q45.17 72.68 51.27 72.68L51.43 72.84L51.31 72.72Q54.12 73.04 55.93 70.96L56.08 71.12L55.94 70.98Q57.72 68.87 57.79 66.03L57.82 66.05L57.90 66.14Q58.04 62.95 56.72 61.84L56.69 61.81L56.67 61.79Q53.59 60.23 51.23 60.37ZM50.91 97.97L50.73 97.79L45.34 97.95L45.30 97.92Q42.43 97.82 40.00 96.22L40.06 96.28L40.12 96.34Q37.64 94.28 37.92 89.08L37.75 88.91L37.77 88.93Q38.60 76.45 45.19 74.65L45.27 74.73L45.33 74.78Q41.15 73.10 38.72 63.32L38.76 63.36L38.73 63.33Q37.97 60.63 38.11 59.18L38.13 59.19L38.23 59.29Q38.83 55.46 45.56 55.39L45.39 55.22L45.47 55.30Q53.25 55.25 55.89 55.59L55.75 55.46L55.88 55.59Q62.80 56.48 63.63 60.15L63.63 60.15L63.64 60.16Q63.79 61.21 63.79 61.91L63.92 62.03L63.83 61.95Q63.93 63.29 63.58 64.40L63.59 64.41L63.57 64.39Q62.37 71.99 57.03 74.77L56.98 74.72L57.11 74.85Q63.44 76.26 64.34 85.89L64.42 85.97L64.28 85.83Q64.37 86.20 64.44 88.55L64.41 88.53L64.36 88.48Q64.48 93.45 61.57 95.39L61.57 95.39L61.68 95.51Q59.17 97.09 50.85 97.92ZM54.92 102.06L54.95 102.09L61.07 102.24L60.97 102.15Q64.18 102.37 66.96 101.06L66.96 101.06L67.04 101.14Q68.97 99.67 69.11 96.27L69.26 96.42L69.22 96.38Q69.35 94.44 68.66 90.90L68.60 90.84L68.55 90.79Q66.89 82.34 63.07 78.94L63.15 79.02L62.64 78.16L62.32 77.70L62.14 77.31L62.19 77.36Q65.03 74.72 66.69 67.16L66.84 67.31L66.70 67.17Q66.69 66.47 66.83 64.94L66.87 64.98L66.81 64.92Q67.02 63.75 66.88 62.64L66.99 62.75L66.81 62.57Q66.63 60.02 64.48 59.12L64.54 59.19L64.63 59.21L64.23 58.94L64.28 59.00Q63.63 57.51 61.48 56.05L61.48 56.05L61.64 56.15L61.59 56.09Q57.98 54.84 50.56 54.50L50.69 54.63L50.60 54.54Q47.68 54.25 45.18 54.46L45.31 54.59L45.34 54.61Q43.78 54.58 41.42 54.86L41.43 54.87L41.50 54.94Q37.99 55.66 37.58 58.64L37.50 58.56L37.57 58.64Q37.33 59.36 37.40 60.82L37.41 60.83L37.48 60.90Q37.75 61.94 38.79 66.24L38.80 66.24L38.80 66.24Q40.13 72.02 43.32 74.44L43.43 74.55L43.44 74.56L43.49 74.61Q38.47 77.01 37.50 86.44L37.48 86.42L37.56 86.50Q37.09 90.40 37.09 92.07L37.10 92.08L37.21 92.18Q37.36 95.45 39.51 97.12L39.36 96.97L39.47 97.07Q39.61 97.15 40.09 97.49L40.07 97.47L40.06 97.46Q42.05 101.74 55.02 102.15ZM54.44 82.02L54.25 81.83L54.39 81.97Q55.91 81.69 57.50 82.52L57.52 82.54L57.64 82.66Q58.37 84.50 58.30 85.47L58.13 85.30L58.20 85.37Q58.24 85.89 58.24 86.45L58.28 86.49L58.34 86.54Q58.31 90.82 54.15 92.34L54.14 92.33L54.22 92.41Q52.78 92.98 51.32 92.77L51.15 92.60L51.27 92.72Q49.18 92.85 47.10 92.02L47.14 92.06L47.16 92.08Q46.66 90.88 46.80 89.08L46.84 89.13L46.71 89.00Q47.11 86.20 49.29 83.98L49.19 83.88L49.29 83.98Q51.46 81.75 54.38 81.96ZM54.75 64.65L54.76 64.67L54.68 64.58Q56.22 64.46 57.19 64.73L57.15 64.69L57.23 66.23L57.22 66.22Q57.11 68.68 55.45 70.51L55.51 70.57L55.48 70.55Q53.86 72.43 51.37 72.09L51.45 72.16L51.45 72.17Q49.60 72.12 48.84 71.71L48.82 71.68L48.78 71.65Q48.68 71.13 48.47 69.88L48.52 69.93L48.57 69.99Q48.13 67.46 50.35 65.94L50.24 65.83L50.16 65.75Q52.19 64.59 54.76 64.66Z"/><path d="M10 80 C171 103,164 48,340 98" stroke="#e06a88" fill="none"/><path d="M16 56 C165 71,172 138,324 132" stroke="#8be3cd" fill="none"/><path d="M20 120 C160 45,171 130,335 130" stroke="#6384e7" fill="none"/><path d="M15 53 C180 51,169 104,325 137" stroke="#a6e990" fill="none"/></svg>