<svg xmlns="http://www.w3.org/2000/svg" width="342" height="140" viewBox="0,0,342,140"><path d="M5 104 C170 34,156 24,335 19" stroke="#e849e8" fill="none"/><path d="M14 34 C183 5,169 29,330 58" stroke="#7575ef" fill="none"/><path d="M6 128 C163 53,157 30,324 84" stroke="#80b2e4" fill="none"/><path d="M2 54 C174 87,152 57,332 35" stroke="#66db83" fill="none"/><path d="M18 8 C175 23,154 120,334 104" stroke="#e4913e" fill="none"/><path d="M15 105 C182 26,189 134,324 75" stroke="#e15578" fill="none"/><path d="M10 101 C186 97,184 98,321 25" stroke="#e74444" fill="none"/><path d="M13 97 C186 3,154 128,333 80" stroke="#5aebeb" fill="none"/><path d="M10 10 C164 50,160 122,326 88" stroke="#e679e6" fill="none"/><path d="M19 82 C184 61,161 24,329 86" stroke="#5ce4c2" fill="none"/><path d="M5 18 C152 132,165 13,324 80" stroke="#4fd8b6" fill="none"/><path d="M7 87 C161 129,167 133,339 124" stroke="#e97c58" fill="none"/><path d="M1 14 C167 62,168 33,337 11" stroke="#78e952" fill="none"/><path d="M10 36 C163 58,165 5,340 35" stroke="#edca62" fill="none"/><path d="M5 20 C186 78,177 106,340 108" stroke="#db708a" fill="none"/><path d="M2 91 C178 68,156 113,337 26" stroke="#4ad3b1" fill="none"/><path d="M3 13 C173 93,150 71,329 91" stroke="#d6d651" fill="none"/><path d="M8 100 C183 81,188 34,328 110" stroke="#7793e8" fill="none"/><path d="M7 94 C165 13,183 133,331 91" stroke="#8868e8" fill="none"/><path d="M8 136 C191 52,166 86,332 52" stroke="#d485ef" fill="none"/><path d="M15 85 C153 71,171 131,337 26" stroke="#62a8ed" fill="none"/><path d="M5 74 C180 41,186 105,324 84" stroke="#4dda70" fill="none"/><path fill="#8585e4" d="M273.80 74.20L273.74 74.14L273.83 74.23Q275.29 74.17 277.98 73.87L278.02 73.91L278.00 73.89Q277.95 75.15 277.95 76.38L277.95 76.39L277.80 78.63L277.84 78.68Q276.22 78.66 274.62 78.81L274.64 78.82L274.63 78.81Q273.16 79.01 271.56 78.94L271.46 78.84L271.49 78.88Q266.08 90.70 259.53 99.50L259.51 99.48L259.58 99.55Q254.59 100.60 252.12 101.76L252.30 101.94L252.13 101.77Q260.10 90.97 265.91 78.97L265.94 79.00L260.92 79.00L260.80 78.88Q260.85 76.38 260.63 73.83L260.56 73.76L260.61 73.81Q264.31 74.17 268.24 74.17L268.18 74.11L271.86 67.09L271.92 67.15Q273.83 63.54 276.16 60.48L276.12 60.44L276.04 60.36Q273.18 60.77 270.12 60.77L269.99 60.64L270.08 60.73Q258.34 60.64 251.14 56.42L251.21 56.49L250.03 53.27L249.87 53.10Q249.35 51.64 248.62 49.97L248.56 49.90L248.57 49.92Q256.83 54.90 267.74 55.34L267.74 55.34L267.83 55.43Q277.60 55.82 287.42 52.04L287.42 52.04L287.33 51.94Q287.00 52.78 286.06 54.45L286.09 54.48L286.08 54.47Q279.19 63.59 273.74 74.14ZM289.21 57.17L289.24 57.19L291.03 53.24L291.13 53.34Q289.23 54.21 286.03 55.59L286.01 55.57L286.39 55.00L286.34 54.96Q286.60 54.71 286.82 54.49L286.91 54.58L286.88 54.55Q287.51 53.14 288.90 50.60L288.88 50.58L288.87 50.57Q278.76 55.02 267.78 54.58L267.82 54.62L267.87 54.66Q256.38 54.17 247.29 48.49L247.20 48.40L247.18 48.39Q249.16 51.96 250.76 57.05L250.78 57.07L250.78 57.07Q252.92 58.34 254.45 58.92L254.35 58.83L254.38 58.86Q254.72 59.56 255.60 63.13L255.52 63.05L255.55 63.08Q261.60 65.49 272.15 65.20L272.05 65.10L272.11 65.17Q271.49 66.22 267.71 73.42L267.80 73.51L267.85 73.56Q263.93 73.57 260.15 73.21L260.10 73.15L260.08 73.13Q260.15 74.66 260.15 76.33L260.25 76.44L260.23 79.68L263.44 79.70L263.46 82.40L263.40 82.35Q255.91 96.46 250.60 103.30L250.55 103.25L250.56 103.26Q253.59 101.78 256.72 100.84L256.79 100.91L256.75 100.87Q255.57 102.74 252.95 106.02L252.77 105.84L252.93 105.99Q258.83 103.75 263.49 103.31L263.55 103.38L263.58 103.41Q269.12 96.14 275.08 83.19L275.21 83.33L281.71 83.64L281.59 83.52Q281.52 81.85 281.52 80.10L281.53 80.11L281.53 76.69L281.45 76.61Q281.01 76.69 279.96 76.76L280.06 76.86L279.94 76.74Q278.84 76.77 278.34 76.77L278.41 76.85L278.31 76.74Q278.31 76.53 278.38 76.24L278.40 76.26L278.49 75.84L278.39 75.74Q283.27 66.00 289.16 57.12Z"/><path d="M1 133 C168 135,152 29,324 27" stroke="#398ee4" fill="none"/><path d="M10 5 C177 87,161 15,332 51" stroke="#61eaa5" fill="none"/><path d="M12 87 C181 57,170 87,331 131" stroke="#ecec73" fill="none"/><path fill="#cce877" d="M62.49 78.06L62.38 77.94L62.39 77.96Q58.78 77.91 56.45 80.46L56.46 80.47L56.52 80.53Q54.29 83.17 54.00 86.81L53.96 86.77L53.85 86.65Q53.64 90.88 55.97 92.81L55.79 92.64L55.86 92.70Q58.25 94.70 62.33 94.55L62.33 94.55L62.36 94.58Q66.72 94.21 68.53 92.39L68.51 92.37L68.62 92.48Q70.45 89.58 70.23 86.09L70.34 86.19L70.36 86.22Q70.16 82.67 68.08 80.38L67.99 80.28L67.91 80.20Q65.91 77.98 62.42 77.98ZM62.26 59.86L62.30 59.90L62.31 59.91Q59.68 59.76 57.14 60.70L57.19 60.76L57.13 60.70Q54.75 62.31 55.19 65.88L55.17 65.86L55.11 65.80Q56.11 72.98 62.51 72.98L62.40 72.88L62.53 73.01Q65.36 73.21 67.25 71.03L67.34 71.12L67.26 71.05Q69.11 68.82 69.18 65.84L69.28 65.93L69.34 65.99Q69.49 62.65 68.11 61.49L68.12 61.50L68.08 61.46Q64.83 59.81 62.35 59.95ZM61.84 99.23L61.85 99.24L55.99 99.20L56.01 99.21Q53.18 99.30 50.63 97.62L50.65 97.64L50.56 97.55Q47.93 95.35 48.22 89.90L48.25 89.93L48.34 90.02Q49.12 76.83 56.03 74.94L56.12 75.03L56.06 74.97Q51.71 73.24 49.16 62.99L49.18 63.00L49.07 62.89Q48.50 60.28 48.65 58.76L48.71 58.82L48.54 58.65Q49.21 54.67 56.27 54.59L56.28 54.61L56.24 54.57Q64.36 54.47 67.12 54.83L67.14 54.85L67.13 54.84Q74.36 55.74 75.23 59.59L75.26 59.62L75.27 59.63Q75.52 60.83 75.52 61.55L75.46 61.49L75.57 61.60Q75.57 62.92 75.21 64.08L75.07 63.94L75.17 64.04Q73.98 72.09 68.38 75.00L68.40 75.02L68.31 74.93Q75.06 76.52 76.01 86.63L76.06 86.68L76.08 86.70Q76.07 86.98 76.14 89.46L76.18 89.49L76.18 89.49Q76.19 94.59 73.14 96.63L73.12 96.61L73.20 96.69Q70.57 98.36 61.84 99.23ZM66.31 103.77L66.25 103.71L72.57 103.78L72.57 103.78Q75.96 104.04 78.87 102.66L78.72 102.50L78.89 102.67Q80.88 101.11 81.03 97.54L81.09 97.60L81.12 97.63Q81.20 95.53 80.47 91.82L80.46 91.80L80.54 91.88Q78.82 83.04 74.82 79.48L74.72 79.38L74.31 78.60L74.08 78.23L73.62 77.55L73.70 77.62Q76.90 75.08 78.65 67.15L78.52 67.03L78.65 67.16Q78.59 66.37 78.74 64.77L78.82 64.86L78.64 64.68Q78.81 63.39 78.66 62.22L78.67 62.23L78.65 62.21Q78.44 59.53 76.18 58.58L76.12 58.52L76.19 58.52L75.94 58.41L75.85 58.32Q75.48 57.08 73.23 55.55L73.14 55.47L73.15 55.40L73.22 55.47Q69.48 54.20 61.69 53.84L61.71 53.86L61.55 53.69Q58.67 53.58 56.06 53.80L56.02 53.76L56.04 53.79Q54.51 53.85 52.03 54.14L52.09 54.20L52.00 54.11Q48.41 54.96 47.98 58.09L47.84 57.95L47.93 58.04Q47.86 58.99 47.93 60.52L47.96 60.55L47.92 60.50Q48.09 61.47 49.18 65.98L49.21 66.01L49.21 66.02Q50.80 72.25 54.14 74.80L54.03 74.69L54.20 74.86L54.23 74.89Q48.93 77.37 47.91 87.26L47.89 87.25L47.98 87.33Q47.54 91.47 47.54 93.22L47.44 93.12L47.52 93.20Q47.76 96.71 50.01 98.46L49.93 98.37L49.82 98.27Q50.06 98.43 50.57 98.79L50.58 98.81L50.62 98.84Q52.68 103.31 66.28 103.74ZM65.62 82.57L65.57 82.52L65.57 82.52Q67.36 82.41 69.03 83.29L69.00 83.26L69.01 83.27Q69.76 85.19 69.69 86.20L69.57 86.08L69.55 86.06Q69.62 86.64 69.62 87.23L69.61 87.21L69.73 87.33Q69.75 91.86 65.38 93.46L65.44 93.51L65.26 93.34Q63.82 94.01 62.30 93.79L62.25 93.75L62.28 93.78Q60.10 93.93 57.92 93.05L57.95 93.08L58.04 93.17Q57.41 91.82 57.56 89.93L57.64 90.00L57.65 90.02Q57.89 86.92 60.19 84.59L60.22 84.63L60.17 84.57Q62.53 82.32 65.59 82.54ZM65.95 64.35L66.02 64.42L66.03 64.43Q67.56 64.22 68.58 64.51L68.45 64.38L68.51 65.96L68.64 66.09Q68.53 68.68 66.78 70.60L66.73 70.55L66.86 70.68Q65.09 72.58 62.47 72.21L62.52 72.27L62.37 72.11Q60.56 72.19 59.76 71.76L59.83 71.83L59.75 71.75Q59.74 71.31 59.53 70.00L59.45 69.93L59.47 69.95Q58.86 67.16 61.19 65.55L61.35 65.72L61.26 65.62Q63.25 64.27 65.94 64.34Z"/><path d="M2 68 C166 106,191 80,336 33" stroke="#90e990" fill="none"/><path d="M12 48 C182 67,156 88,322 6" stroke="#8c8cec" fill="none"/><path d="M2 76 C166 101,186 73,325 125" stroke="#e63be6" fill="none"/><path d="M5 87 C172 23,162 121,322 38" stroke="#e15050" fill="none"/><path d="M18 60 C169 8,157 87,336 60" stroke="#83c9e1" fill="none"/><path fill="#4ee399" d="M131.54 66.89L131.65 67.00L131.59 66.94Q125.47 66.93 121.98 64.89L121.97 64.89L121.97 64.88Q126.84 62.33 136.15 54.26L136.02 54.13L136.16 54.26Q137.50 53.86 139.97 52.70L140.03 52.75L140.02 52.74Q137.43 64.04 137.21 76.19L137.22 76.21L137.30 76.28Q136.93 88.28 138.97 99.92L138.95 99.90L139.08 100.03Q135.79 98.56 131.72 98.35L131.72 98.34L131.65 98.27Q131.49 90.40 131.49 82.62L131.45 82.58L131.46 82.59Q131.52 74.80 131.60 66.94ZM130.85 71.22L130.79 99.02L130.82 99.05Q133.21 99.10 135.02 99.47L135.06 99.50L134.99 99.44Q135.26 100.86 135.62 103.48L135.57 103.43L135.59 103.46Q141.07 104.49 145.72 108.78L145.55 108.61L145.72 108.78Q140.84 95.03 140.77 80.77L140.75 80.75L140.90 80.90Q140.72 66.60 144.21 52.78L144.13 52.71L144.23 52.81Q143.12 53.52 140.07 55.63L140.12 55.68L140.03 55.59Q140.44 54.19 141.03 51.28L141.01 51.26L141.14 51.39Q138.42 52.67 135.66 53.40L135.76 53.50L135.75 53.49Q128.59 60.37 120.37 64.74L120.31 64.67L120.31 64.68Q122.96 66.75 127.47 67.40L127.47 67.40L127.49 67.42Q126.20 68.38 123.72 70.42L123.90 70.59L123.84 70.54Q126.71 71.29 130.93 71.29L130.96 71.32Z"/><path d="M20 96 C153 98,181 67,324 52" stroke="#509be6" fill="none"/><path d="M4 89 C176 125,180 85,321 33" stroke="#e23ae2" fill="none"/><path d="M20 59 C164 118,187 119,333 85" stroke="#ed8bbc" fill="none"/><path d="M15 118 C153 19,162 76,334 16" stroke="#ed86ba" fill="none"/><path d="M17 25 C183 75,187 55,327 19" stroke="#df4dbb" fill="none"/><path d="M15 95 C174 3,158 35,335 93" stroke="#5172d6" fill="none"/><path d="M8 109 C162 136,159 57,332 62" stroke="#e88c8c" fill="none"/><path d="M12 20 C192 3,153 101,334 35" stroke="#e47070" fill="none"/><path d="M20 57 C168 50,155 58,336 96" stroke="#e060e0" fill="none"/><path fill="#597add" d="M199.65 67.00L199.58 66.93L199.58 66.93Q193.45 66.90 189.95 64.86L190.06 64.97L189.96 64.87Q194.75 62.25 204.07 54.17L204.20 54.30L204.19 54.30Q205.40 53.76 207.87 52.59L207.99 52.71L208.06 52.78Q205.42 64.04 205.20 76.19L205.14 76.12L205.20 76.18Q205.07 88.42 207.11 100.06L207.00 99.95L206.95 99.90Q203.78 98.54 199.70 98.33L199.84 98.46L199.78 98.40Q199.60 90.51 199.60 82.73L199.53 82.66L199.47 82.60Q199.55 74.82 199.62 66.97ZM198.89 71.26L198.78 99.00L198.78 99.01Q201.13 99.03 202.95 99.39L202.98 99.43L203.06 99.50Q203.24 100.84 203.60 103.46L203.63 103.49L203.47 103.33Q209.08 104.50 213.73 108.79L213.58 108.64L213.55 108.61Q208.87 95.06 208.80 80.80L208.77 80.77L208.89 80.89Q208.66 66.55 212.15 52.73L212.08 52.66L212.25 52.82Q211.22 53.62 208.17 55.73L208.02 55.58L208.21 55.77Q208.42 54.16 209.00 51.25L209.03 51.28L209.09 51.34Q206.54 52.79 203.77 53.52L203.78 53.52L203.67 53.41Q196.52 60.30 188.30 64.67L188.38 64.74L188.28 64.65Q191.03 66.82 195.54 67.47L195.45 67.38L195.43 67.36Q194.35 68.54 191.88 70.57L191.79 70.48L191.77 70.46Q194.72 71.30 198.94 71.30L198.82 71.19Z"/><path d="M2 128 C188 47,170 23,337 136" stroke="#e8c762" fill="none"/></svg>