<svg xmlns="http://www.w3.org/2000/svg" width="342" height="140" viewBox="0,0,342,140"><path d="M9 87 C188 45,173 9,329 82" stroke="#8be8d1" fill="none"/><path d="M2 42 C151 63,182 16,327 72" stroke="#b8e042" fill="none"/><path d="M1 92 C162 127,175 134,337 86" stroke="#e6c769" fill="none"/><path d="M17 50 C150 11,191 51,333 133" stroke="#8c42d5" fill="none"/><path d="M4 47 C166 96,188 16,337 62" stroke="#df76aa" fill="none"/><path d="M17 12 C168 76,187 114,324 118" stroke="#b7e48a" fill="none"/><path d="M1 78 C174 65,164 102,326 82" stroke="#e188b5" fill="none"/><path d="M12 43 C172 89,170 101,324 55" stroke="#e38c8c" fill="none"/><path d="M19 65 C167 131,166 124,329 46" stroke="#5e9bd8" fill="none"/><path d="M18 69 C191 87,172 8,323 104" stroke="#99e74a" fill="none"/><path d="M17 73 C159 23,153 17,337 3" stroke="#a5ed5e" fill="none"/><path fill="#50e199" d="M212.33 91.59L212.45 91.71L212.48 91.74Q212.84 93.25 213.74 96.64L213.86 96.76L213.76 96.66Q206.64 94.40 198.91 94.84L199.06 95.00L198.99 94.93Q191.27 95.33 184.56 98.65L184.51 98.60L184.51 98.60Q185.09 97.64 185.15 97.77L185.15 97.77L184.96 97.58Q191.37 91.08 197.95 83.67L197.85 83.56L197.93 83.65Q205.33 75.26 207.31 67.40L207.31 67.40L207.23 67.31Q208.15 64.53 206.01 62.55L206.01 62.55L205.91 62.45Q203.71 60.41 200.70 60.67L200.83 60.79L200.80 60.77Q200.17 60.64 199.59 60.64L199.62 60.66L199.58 60.63Q196.98 60.59 194.87 62.12L194.95 62.19L194.87 62.12Q192.71 64.43 193.10 68.91L193.24 69.05L193.13 68.94Q190.16 68.39 188.11 67.63L188.17 67.68L188.17 67.68Q187.86 65.33 187.73 62.90L187.58 62.75L187.75 62.92Q187.48 60.03 188.51 58.12L188.50 58.11L188.64 58.25Q191.59 55.89 197.21 55.89L197.12 55.81L200.21 55.95L200.03 55.78Q203.95 55.93 205.55 56.12L205.63 56.20L205.50 56.07Q212.83 56.82 213.28 60.91L213.22 60.85L213.30 60.93Q213.42 61.88 213.29 63.22L213.31 63.23L213.33 63.26Q213.23 64.31 212.98 65.46L212.96 65.45L212.95 65.43Q210.17 79.02 197.46 90.52L197.61 90.67L197.55 90.61Q199.84 90.28 202.14 90.28L202.22 90.37L202.18 90.33Q207.70 90.41 212.50 91.76ZM211.53 56.79L211.53 56.79L211.44 56.71Q208.74 55.60 205.86 55.47L205.84 55.45L200.18 55.22L200.04 55.08Q192.70 54.77 188.99 56.62L188.92 56.54L188.86 56.49Q187.15 58.87 187.15 62.32L187.11 62.28L187.24 62.41Q187.20 63.52 187.71 68.25L187.73 68.27L187.79 68.33Q188.69 68.71 190.67 69.22L190.65 69.21L190.54 70.82L190.66 70.94Q190.54 71.66 190.67 72.55L190.60 72.48L190.59 72.47Q192.73 72.69 196.88 73.08L196.93 73.13L197.00 73.19Q196.83 72.45 196.83 71.87L196.85 71.89L196.79 71.83Q196.87 68.84 198.91 66.57L198.98 66.64L198.91 66.58Q201.01 64.36 204.01 64.55L203.94 64.48L203.90 64.44Q205.16 64.48 206.44 64.73L206.50 64.80L206.53 64.83Q206.75 65.50 206.88 66.20L206.86 66.18L206.92 66.24Q206.92 66.88 206.79 67.46L206.73 67.40L206.87 67.53Q204.74 75.50 197.33 83.62L197.34 83.63L197.18 83.47Q193.69 87.33 184.56 97.49L184.59 97.53L184.45 97.38Q184.18 98.84 183.61 99.80L183.63 99.82L183.65 99.84Q186.41 98.45 188.96 97.55L188.80 97.39L188.97 97.56Q187.73 98.49 186.13 100.98L186.01 100.86L186.01 100.87Q185.85 101.47 185.66 102.04L185.65 102.03L185.70 102.09Q193.77 98.53 202.98 98.85L203.04 98.91L203.01 98.88Q212.62 99.23 220.29 103.19L220.29 103.19L218.52 99.50L218.58 99.56Q217.58 97.42 217.13 96.07L217.09 96.03L217.12 96.06Q215.91 95.36 213.87 94.66L213.90 94.69L213.83 94.62Q213.63 93.46 212.99 91.16L212.83 91.00L212.98 91.16Q209.29 90.21 205.46 89.89L205.31 89.74L205.35 89.79Q213.25 82.16 215.81 68.29L215.76 68.24L216.09 63.39L216.20 63.50Q215.97 60.41 213.93 59.26L213.96 59.29L213.88 59.27L213.83 59.22Q213.89 59.22 213.77 59.22L213.68 59.13L213.70 59.15Q213.36 57.79 211.50 56.77Z"/><path d="M2 114 C166 114,182 68,327 27" stroke="#41b5dc" fill="none"/><path d="M18 132 C171 22,162 100,333 62" stroke="#e736e7" fill="none"/><path d="M19 87 C171 126,157 114,326 131" stroke="#559ee6" fill="none"/><path d="M8 5 C163 55,184 16,335 90" stroke="#b9e439" fill="none"/><path d="M18 134 C191 96,178 87,337 31" stroke="#5be0bf" fill="none"/><path d="M5 55 C169 42,173 31,321 82" stroke="#de6262" fill="none"/><path d="M18 14 C155 137,168 2,329 132" stroke="#7a94df" fill="none"/><path fill="#7fe95c" d="M267.07 76.99L267.07 76.99L267.05 76.97Q263.95 76.74 261.87 79.14L261.76 79.03L261.76 79.02Q259.69 81.43 259.37 84.63L259.36 84.61L259.42 84.67Q258.96 88.05 260.78 89.68L260.93 89.82L260.82 89.72Q262.68 91.39 266.20 91.20L266.20 91.20L266.26 91.26Q269.76 90.99 271.62 89.84L271.62 89.85L271.58 89.81Q273.59 88.04 273.59 85.42L273.42 85.26L273.45 85.29Q273.53 84.72 273.40 84.09L273.37 84.05L273.42 84.10Q273.46 81.21 271.61 78.94L271.60 78.93L271.68 79.01Q269.80 76.71 266.98 76.90ZM266.20 95.48L266.33 95.61L266.21 95.49Q258.88 95.51 256.52 94.23L256.52 94.23L256.52 94.24Q254.89 93.05 254.57 90.17L254.45 90.06L254.59 90.20Q254.41 88.93 254.48 87.72L254.60 87.84L254.48 87.72Q254.74 86.13 254.74 85.36L254.66 85.28L254.71 85.33Q255.51 80.57 255.77 79.42L255.80 79.46L255.81 79.47Q256.57 76.20 257.97 73.83L257.90 73.76L257.96 73.82Q262.28 66.32 272.25 55.65L272.38 55.78L272.27 55.67Q276.81 55.22 280.52 53.88L280.48 53.85L280.45 53.81Q268.98 66.37 263.61 73.47L263.70 73.55L263.57 73.42Q265.37 72.73 267.54 72.73L267.51 72.70L267.42 72.61Q273.14 72.77 275.70 76.03L275.69 76.03L275.67 76.00Q277.86 78.71 278.44 84.65L278.40 84.61L278.47 84.68Q278.45 85.75 278.45 86.77L278.64 86.96L278.46 86.78Q278.63 92.19 274.93 93.98L274.85 93.90L274.92 93.98Q272.80 94.93 266.29 95.57ZM270.15 99.62L270.08 99.56L270.20 99.67Q272.37 99.61 275.69 99.73L275.60 99.64L275.58 99.62Q278.46 99.88 281.08 98.66L280.97 98.56L281.03 98.62Q282.80 97.19 282.80 94.19L282.91 94.30L282.77 94.16Q282.87 93.43 282.59 91.77L282.62 91.80L282.59 91.77Q282.28 90.09 282.28 89.33L282.27 89.31L282.26 89.30Q280.74 81.33 278.06 78.14L278.18 78.26L278.18 78.26Q277.99 78.00 277.74 77.62L277.78 77.67L277.27 77.28L277.18 77.25L277.08 77.15Q276.42 76.24 275.40 74.65L275.45 74.70L275.51 74.75Q273.89 73.07 270.57 72.31L270.70 72.44L270.64 72.38Q272.63 69.63 277.61 63.44L277.57 63.39L284.76 54.62L284.75 54.61Q282.20 56.14 278.18 57.42L278.13 57.37L278.15 57.39Q279.69 55.74 282.69 52.41L282.67 52.40L282.58 52.30Q278.71 54.25 272.19 55.20L272.00 55.01L272.04 55.06Q262.46 64.97 257.48 73.28L257.50 73.30L257.58 73.38Q255.02 77.59 254.06 88.07L253.95 87.96L253.99 88.00Q253.92 89.02 254.05 90.62L253.93 90.49L254.05 90.61Q254.11 93.48 255.96 95.02L255.97 95.03L255.92 94.97Q256.72 95.39 256.65 95.45L256.61 95.41L256.48 95.29Q257.31 97.00 258.65 97.71L258.51 97.57L258.60 97.66Q260.98 98.76 264.24 99.08L264.22 99.06L264.29 99.13Q264.23 99.07 270.11 99.58ZM269.78 80.79L269.65 80.65L269.80 80.80Q270.76 80.62 272.36 81.45L272.27 81.36L272.35 81.43Q272.78 82.89 272.78 83.97L272.86 84.06L272.95 84.14Q273.17 87.18 271.57 88.84L271.68 88.94L271.66 88.93Q269.79 90.06 266.28 90.57L266.38 90.67L266.24 90.54Q263.91 90.63 263.02 90.19L262.98 90.15L263.02 90.19Q262.73 89.45 262.73 88.94L262.68 88.89L262.70 88.92Q262.17 83.27 267.09 81.09L267.12 81.12L267.23 81.24Q268.51 80.67 269.79 80.80Z"/><path d="M13 15 C171 102,176 61,328 36" stroke="#6d8ae3" fill="none"/><path d="M14 96 C164 101,159 6,336 6" stroke="#bc8aef" fill="none"/><path fill="#bb3ee4" d="M63.02 76.94L63.18 77.10L63.05 76.96Q59.89 76.94 57.84 79.17L57.99 79.32L57.99 79.32Q55.83 81.44 55.58 84.64L55.68 84.74L55.68 84.74Q55.24 88.20 57.29 89.90L57.32 89.93L57.41 90.02Q59.43 91.69 63.01 91.56L63.04 91.59L63.04 91.59Q66.83 91.23 68.43 89.63L68.38 89.58L68.42 89.62Q70.12 87.17 69.93 84.10L70.04 84.22L70.00 84.18Q69.86 81.09 68.04 79.08L67.99 79.03L68.07 79.11Q66.27 77.12 63.20 77.12ZM63.01 61.15L63.14 61.27L63.05 61.18Q60.72 61.02 58.48 61.85L58.52 61.89L58.51 61.89Q56.23 63.12 56.62 66.25L56.62 66.26L56.73 66.37Q57.48 72.55 63.10 72.55L63.04 72.49L63.07 72.52Q65.80 72.94 67.46 71.02L67.42 70.99L67.44 71.01Q69.06 69.05 69.12 66.43L69.15 66.46L69.04 66.34Q69.24 63.47 68.02 62.45L67.96 62.39L68.07 62.50Q65.31 61.14 63.14 61.27ZM62.55 95.64L62.58 95.67L57.45 95.65L57.51 95.71Q55.00 95.75 52.76 94.28L52.72 94.25L52.70 94.23Q50.46 92.36 50.71 87.57L50.61 87.46L50.66 87.52Q51.32 75.91 57.39 74.25L57.48 74.34L57.48 74.34Q53.73 72.89 51.49 63.88L51.40 63.79L51.44 63.82Q50.84 61.44 50.97 60.10L51.03 60.16L51.01 60.13Q51.44 56.48 57.64 56.42L57.75 56.53L57.77 56.55Q64.76 56.31 67.19 56.63L67.11 56.55L67.28 56.72Q73.69 57.57 74.46 60.96L74.37 60.88L74.48 60.98Q74.62 61.96 74.62 62.60L74.68 62.65L74.60 62.58Q74.67 63.79 74.35 64.81L74.30 64.76L74.30 64.76Q73.19 71.77 68.27 74.32L68.29 74.34L68.36 74.41Q74.17 75.69 75.00 84.57L75.05 84.63L74.99 84.56Q74.98 84.81 75.04 86.98L75.05 86.99L75.17 87.11Q75.30 91.71 72.61 93.50L72.67 93.55L72.50 93.38Q70.22 94.88 62.56 95.65ZM66.52 99.67L66.51 99.67L72.09 99.74L72.04 99.70Q74.93 99.84 77.49 98.63L77.52 98.66L77.51 98.65Q79.35 97.36 79.48 94.23L79.59 94.34L79.58 94.33Q79.64 92.47 79.00 89.21L79.05 89.26L78.98 89.19Q77.51 81.46 73.99 78.33L73.97 78.30L73.66 77.68L73.37 77.25L73.00 76.69L73.08 76.77Q75.79 74.44 77.32 67.47L77.29 67.43L77.39 67.54Q77.27 66.78 77.40 65.37L77.34 65.32L77.47 65.44Q77.56 64.25 77.43 63.23L77.52 63.32L77.47 63.27Q77.25 60.88 75.27 60.05L75.16 59.94L75.35 60.06L74.90 59.74L74.95 59.80Q74.57 58.65 72.59 57.31L72.45 57.17L72.59 57.24L72.52 57.17Q69.29 56.11 62.45 55.79L62.38 55.72L62.45 55.79Q59.85 55.62 57.55 55.81L57.48 55.75L57.49 55.75Q56.19 55.85 54.01 56.11L54.01 56.10L53.96 56.05Q50.81 56.81 50.43 59.56L50.25 59.38L50.37 59.49Q50.24 60.26 50.31 61.60L50.42 61.72L50.39 61.68Q50.50 62.50 51.46 66.46L51.42 66.42L51.49 66.49Q52.87 71.96 55.80 74.20L55.70 74.09L55.81 74.20L55.91 74.30Q51.28 76.51 50.38 85.20L50.35 85.16L50.24 85.05Q50.08 88.92 50.08 90.45L50.09 90.47L49.99 90.37Q50.09 93.34 52.07 94.87L52.03 94.83L52.18 94.98Q52.38 95.11 52.82 95.43L52.70 95.31L52.82 95.43Q54.46 99.17 66.41 99.56ZM65.86 80.99L65.86 80.99L65.78 80.91Q67.42 80.89 68.89 81.66L68.89 81.65L68.81 81.58Q69.60 83.39 69.54 84.29L69.46 84.21L69.40 84.15Q69.41 84.60 69.41 85.11L69.50 85.21L69.59 85.30Q69.59 89.26 65.76 90.67L65.58 90.49L65.63 90.54Q64.28 91.04 62.93 90.85L63.01 90.92L63.06 90.97Q61.04 91.00 59.12 90.23L59.30 90.41L59.19 90.29Q58.81 89.27 58.93 87.61L58.88 87.55L58.88 87.56Q59.23 84.97 61.24 82.93L61.07 82.75L61.22 82.90Q63.10 80.73 65.79 80.92ZM66.24 65.08L66.16 65.00L66.30 65.13Q67.50 64.80 68.39 65.06L68.45 65.11L68.40 66.41L68.38 66.39Q68.43 68.80 66.90 70.50L66.91 70.51L66.89 70.48Q65.43 72.25 63.13 71.93L63.03 71.84L63.03 71.83Q61.55 72.02 60.85 71.63L60.84 71.63L60.67 71.46Q60.65 71.06 60.46 69.90L60.47 69.92L60.48 69.92Q59.97 67.50 62.02 66.09L62.09 66.17L62.13 66.20Q63.78 64.92 66.15 64.98Z"/><path d="M11 39 C190 107,162 55,329 53" stroke="#d8d854" fill="none"/><path d="M17 12 C190 118,190 47,338 115" stroke="#e5b584" fill="none"/><path d="M11 67 C187 54,154 92,334 49" stroke="#eaea66" fill="none"/><path d="M12 96 C159 26,158 116,337 129" stroke="#37e137" fill="none"/><path d="M9 65 C166 7,152 96,331 87" stroke="#dc9650" fill="none"/><path d="M13 71 C165 14,164 123,324 82" stroke="#8383f1" fill="none"/><path d="M10 93 C157 99,155 110,322 57" stroke="#edd282" fill="none"/><path d="M8 80 C184 67,170 123,337 50" stroke="#e5bf4c" fill="none"/><path d="M19 48 C167 81,153 113,340 99" stroke="#de6cc2" fill="none"/><path d="M2 101 C160 34,160 111,340 119" stroke="#e23661" fill="none"/><path fill="#9b5cda" d="M132.14 67.32L132.17 67.35L132.21 67.39Q126.81 67.36 123.75 65.57L123.62 65.44L123.63 65.46Q128.01 63.32 136.19 56.22L136.08 56.12L136.07 56.11Q137.41 55.91 139.58 54.89L139.42 54.73L139.40 54.71Q137.20 64.71 137.01 75.38L137.05 75.43L137.15 75.53Q136.90 86.14 138.69 96.36L138.56 96.24L138.57 96.24Q135.87 95.14 132.29 94.95L132.22 94.88L132.23 94.89Q132.03 87.91 132.03 81.08L132.17 81.21L132.10 81.15Q132.07 74.22 132.13 67.31ZM131.42 71.01L131.57 95.64L131.45 95.51Q133.46 95.48 135.06 95.80L135.23 95.97L135.22 95.96Q135.33 97.09 135.65 99.39L135.65 99.40L135.59 99.34Q140.41 100.26 144.50 104.03L144.52 104.04L144.50 104.03Q140.37 92.10 140.31 79.58L140.24 79.51L140.23 79.50Q140.02 66.90 143.09 54.76L143.16 54.82L143.10 54.77Q142.34 55.60 139.65 57.45L139.55 57.35L139.60 57.40Q139.92 56.12 140.43 53.57L140.39 53.52L140.34 53.48Q138.15 54.80 135.72 55.44L135.82 55.54L135.72 55.44Q129.37 61.42 122.15 65.25L122.30 65.41L122.20 65.31Q124.67 67.26 128.63 67.84L128.59 67.79L128.60 67.80Q127.56 68.75 125.39 70.54L125.25 70.40L125.29 70.44Q127.74 71.03 131.44 71.03L131.54 71.13Z"/><path d="M19 120 C188 130,156 110,322 19" stroke="#8ce7ba" fill="none"/><path d="M19 107 C169 60,163 92,326 139" stroke="#db56db" fill="none"/><path d="M12 61 C162 129,172 135,322 128" stroke="#72de4e" fill="none"/><path d="M6 64 C152 64,159 109,334 71" stroke="#56ebeb" fill="none"/><path d="M5 35 C168 135,174 137,333 51" stroke="#d6ed90" fill="none"/><path d="M19 20 C166 14,188 101,338 89" stroke="#3add3a" fill="none"/><path d="M20 41 C159 133,161 135,326 9" stroke="#88eba1" fill="none"/><path d="M16 66 C181 108,171 111,328 32" stroke="#ec9173" fill="none"/><path d="M18 52 C154 53,175 14,333 11" stroke="#e060c0" fill="none"/><path d="M18 136 C183 86,163 39,340 117" stroke="#5677db" fill="none"/></svg>