<svg xmlns="http://www.w3.org/2000/svg" width="342" height="140" viewBox="0,0,342,140"><path d="M15 134 C168 91,180 70,333 136" stroke="#88f1bc" fill="none"/><path d="M19 4 C191 137,187 42,327 123" stroke="#deba4e" fill="none"/><path d="M11 89 C167 25,164 74,329 110" stroke="#c5e074" fill="none"/><path fill="#7ee0af" d="M109.18 67.11L109.08 67.02L109.22 67.15Q103.32 67.02 100.02 65.10L100.07 65.15L100.02 65.10Q104.70 62.77 113.49 55.15L113.40 55.06L113.46 55.13Q114.70 54.71 117.03 53.62L117.08 53.67L117.02 53.60Q114.73 64.42 114.52 75.89L114.48 75.85L114.50 75.87Q114.18 87.23 116.11 98.21L116.15 98.25L116.15 98.25Q113.21 97.03 109.36 96.82L109.41 96.87L109.32 96.78Q109.04 89.23 109.04 81.88L109.14 81.97L109.10 81.94Q109.19 74.61 109.26 67.19ZM108.55 71.23L108.49 97.46L108.51 97.49Q110.65 97.42 112.36 97.77L112.37 97.77L112.50 97.90Q112.53 99.03 112.87 101.50L112.85 101.48L112.98 101.61Q118.05 102.49 122.44 106.54L122.39 106.48L122.45 106.54Q117.95 93.67 117.88 80.21L117.90 80.23L117.98 80.31Q117.82 66.83 121.11 53.78L121.04 53.71L121.15 53.82Q120.07 54.46 117.19 56.45L117.17 56.43L117.12 56.38Q117.59 55.14 118.14 52.39L118.14 52.39L118.04 52.29Q115.74 53.76 113.13 54.45L113.10 54.42L113.06 54.38Q106.28 60.85 98.52 64.97L98.62 65.07L98.57 65.02Q101.07 66.97 105.33 67.59L105.26 67.52L105.32 67.58Q104.12 68.51 101.79 70.43L101.76 70.40L101.92 70.56Q104.57 71.23 108.56 71.23L108.52 71.19Z"/><path d="M6 25 C167 130,165 12,338 134" stroke="#80e499" fill="none"/><path d="M14 76 C166 66,163 12,322 68" stroke="#d88cf1" fill="none"/><path d="M5 69 C182 111,168 117,334 24" stroke="#ed9172" fill="none"/><path d="M3 27 C161 29,180 17,339 104" stroke="#e7ca73" fill="none"/><path d="M13 71 C191 49,161 13,324 34" stroke="#e77db2" fill="none"/><path d="M8 136 C188 80,180 130,328 18" stroke="#96d854" fill="none"/><path d="M16 119 C169 83,177 65,330 22" stroke="#73ddc2" fill="none"/><path d="M15 8 C189 137,154 36,331 101" stroke="#c673e2" fill="none"/><path d="M10 98 C156 77,164 36,336 99" stroke="#66e5c5" fill="none"/><path fill="#e7e759" d="M158.87 97.74L158.89 97.75L158.78 97.64Q156.34 97.88 153.52 97.12L153.40 97.00L153.43 97.03Q151.17 95.32 150.90 92.37L150.89 92.36L150.94 92.41Q150.95 92.14 151.29 87.41L151.20 87.32L151.16 87.28Q153.18 87.10 156.82 86.41L156.77 86.36L156.40 87.71L156.38 87.69Q156.01 90.96 158.55 91.99L158.56 92.00L158.54 91.97Q159.94 92.55 163.71 92.55L163.69 92.53L163.59 92.43Q166.59 92.27 166.93 92.13L166.86 92.06L166.92 92.11Q168.54 91.81 169.84 90.92L169.90 90.98L169.93 91.01Q172.43 89.25 172.08 85.47L172.02 85.41L172.14 85.53Q171.69 81.03 168.57 78.21L168.66 78.30L168.57 78.21Q165.38 75.34 160.92 75.34L160.97 75.39L160.98 74.98L161.01 75.02Q161.72 74.97 163.30 74.84L163.32 74.85L163.18 74.71Q166.80 74.69 169.27 72.46L169.17 72.36L169.27 72.47Q171.61 70.09 171.88 66.73L171.85 66.70L171.83 66.68Q172.11 66.20 172.11 65.59L172.04 65.51L171.99 65.47Q172.02 62.75 169.55 61.10L169.67 61.23L169.67 61.23Q167.45 59.76 164.56 59.96L164.41 59.81L164.54 59.94Q162.27 59.73 160.08 60.49L159.99 60.40L159.94 60.35Q157.36 61.34 156.81 63.40L156.89 63.48L156.84 63.43Q156.41 64.72 156.55 66.09L156.66 66.20L156.54 66.08Q154.74 65.72 151.03 64.42L151.14 64.53L151.11 64.50Q150.72 61.50 150.79 59.99L150.61 59.81L150.76 59.96Q150.83 57.08 152.76 55.85L152.91 56.00L152.90 55.99Q155.36 54.82 158.25 54.82L158.33 54.90L158.18 54.74Q163.87 54.67 169.57 55.15L169.74 55.32L169.58 55.16Q178.72 55.93 178.17 62.72L178.20 62.75L178.21 62.76Q178.13 65.49 177.23 68.31L177.25 68.32L177.27 68.34Q175.58 73.86 171.32 75.51L171.27 75.46L171.37 75.56Q176.10 76.51 177.20 82.55L177.21 82.57L177.11 82.47Q177.63 84.63 177.77 88.27L177.64 88.14L177.61 88.11Q177.99 96.25 169.68 97.08L169.76 97.15L169.70 97.09Q168.34 97.18 158.80 97.66ZM168.14 101.64L168.17 101.68L168.15 101.66Q169.30 101.77 174.45 101.91L174.52 101.98L174.48 101.95Q177.53 101.97 180.48 100.80L180.56 100.89L180.65 100.98Q182.67 99.15 182.33 95.99L182.28 95.94L182.34 96.00Q182.20 93.66 181.65 90.51L181.57 90.43L181.67 90.53Q180.32 82.38 176.82 79.43L176.79 79.40L176.39 78.66L176.39 78.59L176.29 78.49Q179.62 76.05 180.99 68.15L180.96 68.12L180.87 68.03Q180.95 67.22 181.15 65.50L181.15 65.50L181.17 65.52Q181.34 64.18 181.20 62.94L181.21 62.95L181.29 63.03Q180.96 59.95 178.63 58.72L178.63 58.72L178.48 58.70L178.41 58.63Q177.84 56.83 175.78 55.87L175.93 56.02L175.88 55.96Q173.00 54.60 163.73 54.05L163.89 54.21L163.77 54.09Q160.72 53.92 157.84 53.92L157.85 53.93L157.82 53.90Q154.93 53.90 152.19 55.07L152.28 55.17L152.30 55.18Q150.08 56.54 150.08 59.70L150.05 59.67L150.07 59.68Q150.06 58.92 150.54 64.96L150.56 64.98L150.60 65.02Q151.07 65.07 154.02 66.17L154.11 66.26L154.01 66.17Q154.11 67.22 154.04 68.12L154.06 68.14L153.94 68.01Q153.95 68.92 154.02 69.88L153.99 69.85L154.10 69.96Q157.32 70.64 160.96 70.85L160.87 70.76L160.98 70.87Q160.76 67.15 162.75 65.64L162.82 65.71L162.79 65.68Q164.29 64.50 167.93 64.08L167.92 64.07L167.92 64.08Q169.99 64.08 171.02 64.42L171.09 64.49L170.95 64.35Q171.01 64.55 171.08 64.76L171.20 64.88L171.19 65.22L171.42 66.27L171.33 66.18Q171.44 66.63 171.37 66.91L171.34 66.88L171.38 66.91Q171.19 69.96 168.45 72.08L168.48 72.12L168.39 72.03Q166.87 73.80 163.23 74.15L163.16 74.08L163.19 74.11Q161.76 74.26 160.18 74.26L160.35 74.42L160.16 74.24Q160.29 74.91 160.56 76.15L160.52 76.11L160.56 76.14Q163.75 76.18 166.36 77.48L166.27 77.40L166.06 77.38L163.33 77.82L163.26 77.74Q163.43 78.46 163.63 79.56L163.53 79.46L163.70 79.63Q167.40 79.35 170.49 81.75L170.52 81.78L170.51 81.77Q170.96 82.49 171.51 85.44L171.59 85.53L171.53 85.47Q171.83 90.71 166.54 91.46L166.58 91.50L166.51 91.43Q162.77 91.95 161.74 91.88L161.77 91.91L161.82 91.96Q161.00 91.76 160.04 91.62L160.05 91.63L159.99 90.75L160.22 89.95L160.28 89.26L160.40 88.75L160.23 88.59Q158.56 88.78 157.12 89.12L157.23 89.22L157.07 89.07Q157.04 88.69 157.04 88.35L157.13 88.44L157.07 88.38Q157.14 88.03 157.14 87.62L157.07 87.56L157.17 87.65Q157.22 86.88 157.49 85.58L157.54 85.62L157.57 85.66Q154.21 86.07 150.85 86.69L150.86 86.70L150.69 86.53Q150.83 87.57 150.63 89.59L150.65 89.61L150.57 89.53Q150.42 91.62 150.42 92.72L150.40 92.70L150.43 92.73Q150.41 96.27 152.88 97.65L152.89 97.66L152.89 97.65Q155.65 101.86 164.17 101.52L164.14 101.49L164.17 101.52Q165.48 101.46 168.23 101.73Z"/><path d="M18 95 C166 130,189 78,332 36" stroke="#e655e6" fill="none"/><path fill="#9be353" d="M215.55 97.74L215.53 97.73L215.51 97.71Q212.89 97.77 210.08 97.01L210.16 97.10L210.12 97.05Q207.96 95.44 207.68 92.49L207.58 92.38L207.64 92.45Q207.55 92.08 207.89 87.34L207.91 87.36L207.91 87.35Q209.84 87.09 213.48 86.40L213.44 86.36L213.11 87.75L213.05 87.69Q212.50 90.78 215.04 91.81L215.23 92.00L215.19 91.96Q216.49 92.43 220.26 92.43L220.28 92.45L220.30 92.47Q223.26 92.27 223.61 92.14L223.53 92.06L223.49 92.02Q225.18 91.79 226.49 90.90L226.58 90.99L226.48 90.89Q229.02 89.18 228.68 85.40L228.73 85.45L228.67 85.39Q228.30 80.97 225.17 78.15L225.25 78.23L225.35 78.33Q222.15 75.44 217.69 75.44L217.68 75.43L217.68 75.02L217.76 75.10Q218.44 75.02 220.02 74.89L220.03 74.90L219.89 74.76Q223.31 74.54 225.78 72.31L225.81 72.33L225.75 72.27Q228.41 70.23 228.68 66.87L228.53 66.71L228.54 66.72Q228.64 66.06 228.64 65.45L228.68 65.49L228.65 65.46Q228.77 62.84 226.30 61.19L226.34 61.23L226.19 61.08Q223.97 59.61 221.08 59.82L221.15 59.89L221.27 60.00Q218.87 59.66 216.67 60.42L216.67 60.41L216.64 60.38Q214.00 61.32 213.45 63.38L213.40 63.32L213.56 63.49Q213.14 64.78 213.28 66.16L213.32 66.20L213.26 66.14Q211.42 65.74 207.72 64.44L207.80 64.53L207.70 64.42Q207.37 61.49 207.44 59.98L207.35 59.88L207.36 59.89Q207.52 57.10 209.44 55.86L209.50 55.92L209.41 55.83Q211.94 54.73 214.83 54.73L214.87 54.77L215.01 54.91Q220.62 54.75 226.32 55.23L226.40 55.31L226.23 55.15Q235.52 56.06 234.97 62.86L234.93 62.82L234.96 62.84Q234.85 65.55 233.96 68.37L233.80 68.21L233.86 68.26Q232.23 73.85 227.98 75.50L227.93 75.46L227.97 75.49Q232.66 76.41 233.76 82.45L233.86 82.55L233.80 82.48Q234.28 84.61 234.41 88.25L234.29 88.13L234.40 88.24Q234.68 96.28 226.38 97.10L226.41 97.14L226.39 97.12Q225.02 97.19 215.47 97.67ZM224.96 101.80L224.84 101.68L224.86 101.70Q225.93 101.74 231.08 101.88L231.20 102.00L231.13 101.93Q234.27 102.05 237.23 100.88L237.29 100.94L237.34 100.99Q239.41 99.22 239.07 96.06L238.93 95.93L239.04 96.03Q238.80 93.60 238.25 90.44L238.35 90.54L238.30 90.49Q236.91 82.31 233.41 79.35L233.55 79.49L233.13 78.73L233.06 78.59L232.98 78.51Q236.17 75.93 237.54 68.04L237.67 68.16L237.68 68.18Q237.68 67.28 237.88 65.56L237.91 65.59L237.91 65.59Q237.90 64.07 237.77 62.84L237.80 62.87L237.78 62.85Q237.68 60.01 235.35 58.77L235.16 58.58L235.15 58.71L235.02 58.58Q234.66 56.98 232.60 56.02L232.41 55.83L232.51 55.93Q229.79 54.72 220.52 54.17L220.48 54.13L220.59 54.24Q217.38 53.92 214.50 53.92L214.63 54.05L214.55 53.97Q211.65 53.95 208.90 55.12L209.01 55.23L208.91 55.12Q206.66 56.45 206.66 59.61L206.70 59.65L206.78 59.72Q206.69 58.88 207.17 64.92L207.28 65.03L207.33 65.08Q207.73 65.07 210.68 66.17L210.78 66.27L210.75 66.23Q210.72 67.17 210.65 68.06L210.68 68.09L210.61 68.02Q210.69 68.99 210.76 69.95L210.67 69.87L210.78 69.98Q213.93 70.58 217.57 70.79L217.56 70.79L217.63 70.85Q217.48 67.20 219.47 65.69L219.48 65.70L219.39 65.61Q220.90 64.44 224.54 64.03L224.55 64.03L224.56 64.05Q226.65 64.07 227.67 64.42L227.75 64.49L227.68 64.42Q227.81 64.69 227.88 64.90L227.84 64.86L227.92 65.28L227.98 66.16L228.11 66.29Q228.12 66.65 228.05 66.92L227.97 66.84L227.98 66.85Q227.93 70.03 225.18 72.15L225.04 72.01L225.05 72.02Q223.50 73.77 219.86 74.11L219.76 74.01L219.87 74.12Q218.55 74.38 216.97 74.38L216.92 74.33L216.91 74.32Q216.98 74.94 217.25 76.17L217.18 76.10L217.26 76.18Q220.32 76.08 222.93 77.39L223.07 77.52L222.86 77.53L219.99 77.81L219.92 77.74Q220.08 78.45 220.29 79.55L220.25 79.51L220.23 79.49Q224.14 79.42 227.23 81.83L227.16 81.75L227.29 81.88Q227.55 82.42 228.10 85.37L228.18 85.45L228.20 85.47Q228.47 90.69 223.19 91.44L223.19 91.45L223.19 91.44Q219.38 91.89 218.35 91.82L218.42 91.89L218.33 91.81Q217.69 91.78 216.73 91.65L216.61 91.53L216.64 90.73L216.81 89.88L216.88 89.19L217.00 88.69L217.03 88.72Q215.27 88.82 213.83 89.16L213.81 89.14L213.74 89.07Q213.76 88.75 213.76 88.40L213.76 88.40L213.72 88.37Q213.80 88.03 213.80 87.62L213.78 87.60L213.81 87.63Q213.85 86.85 214.13 85.54L214.13 85.54L214.10 85.52Q210.82 86.02 207.46 86.63L207.49 86.66L207.42 86.59Q207.37 87.44 207.16 89.46L207.14 89.44L207.28 89.57Q206.97 91.49 206.97 92.59L207.12 92.75L207.12 92.75Q207.17 96.37 209.64 97.74L209.70 97.80L209.73 97.83Q212.26 101.80 220.77 101.46L220.81 101.49L220.80 101.48Q222.11 101.42 224.86 101.70Z"/><path d="M8 92 C162 100,190 16,338 61" stroke="#d74bb4" fill="none"/><path d="M6 121 C154 44,154 4,331 116" stroke="#81e3e3" fill="none"/><path d="M5 63 C191 113,177 130,335 26" stroke="#e77d59" fill="none"/><path d="M2 97 C166 78,179 36,337 15" stroke="#d75ab8" fill="none"/><path d="M18 90 C182 133,156 122,324 31" stroke="#e3e34e" fill="none"/><path d="M15 64 C169 50,169 73,331 6" stroke="#db6b6b" fill="none"/><path d="M7 67 C161 93,170 12,323 124" stroke="#b5ed7c" fill="none"/><path d="M13 93 C183 34,150 120,325 49" stroke="#e6e645" fill="none"/><path d="M5 117 C151 67,165 34,335 60" stroke="#b7df3e" fill="none"/><path d="M12 32 C152 69,188 8,327 111" stroke="#b5e882" fill="none"/><path d="M17 133 C179 86,178 124,332 31" stroke="#e5c76a" fill="none"/><path d="M14 135 C189 119,163 72,337 130" stroke="#e6bd41" fill="none"/><path d="M5 12 C155 78,170 61,330 138" stroke="#e28363" fill="none"/><path fill="#53d9b7" d="M51.41 77.55L51.38 77.52L51.34 77.48Q48.14 77.64 45.94 80.04L45.81 79.92L45.78 79.89Q43.70 82.40 43.43 85.84L43.40 85.81L43.36 85.77Q42.97 89.57 45.16 91.39L45.32 91.54L45.14 91.36Q47.36 93.20 51.20 93.06L51.34 93.20L51.24 93.10Q55.38 92.78 57.10 91.06L57.20 91.17L57.14 91.11Q58.95 88.45 58.74 85.16L58.73 85.15L58.76 85.17Q58.63 81.89 56.68 79.72L56.61 79.66L56.69 79.74Q54.66 77.50 51.36 77.50ZM51.33 60.51L51.27 60.45L51.27 60.45Q48.90 60.41 46.49 61.30L46.43 61.24L46.48 61.29Q44.11 62.69 44.52 66.06L44.43 65.96L44.57 66.11Q45.33 72.71 51.37 72.71L51.40 72.74L51.37 72.70Q54.24 73.10 56.02 71.04L56.11 71.12L55.94 70.95Q57.76 68.93 57.83 66.12L57.77 66.06L57.91 66.20Q58.08 63.07 56.77 61.97L56.71 61.91L56.76 61.96Q53.60 60.31 51.27 60.44ZM50.93 97.66L50.78 97.52L45.31 97.54L45.44 97.67Q42.54 97.52 40.14 95.94L40.27 96.07L40.23 96.03Q37.83 94.04 38.10 88.89L37.94 88.73L37.97 88.75Q38.94 76.54 45.46 74.76L45.47 74.77L45.46 74.76Q41.27 73.04 38.86 63.35L38.85 63.35L38.94 63.44Q38.16 60.72 38.29 59.28L38.44 59.43L38.37 59.36Q38.92 55.52 45.58 55.45L45.64 55.51L45.65 55.52Q53.17 55.28 55.78 55.62L55.73 55.57L55.72 55.56Q62.67 56.53 63.49 60.17L63.48 60.16L63.52 60.20Q63.83 61.41 63.83 62.10L63.73 61.99L63.72 61.98Q63.69 63.19 63.35 64.29L63.47 64.41L63.50 64.44Q62.38 72.04 57.10 74.79L56.99 74.68L56.97 74.66Q63.32 76.14 64.22 85.69L64.22 85.69L64.24 85.71Q64.25 85.99 64.32 88.33L64.42 88.43L64.36 88.37Q64.48 93.30 61.60 95.22L61.66 95.29L61.62 95.24Q59.14 96.82 50.90 97.64ZM55.05 101.86L55.08 101.89L61.03 101.94L61.00 101.90Q64.11 102.06 66.86 100.76L66.82 100.71L66.91 100.81Q68.99 99.52 69.13 96.16L69.00 96.03L68.98 96.01Q69.16 94.13 68.48 90.63L68.53 90.68L68.51 90.66Q66.74 82.17 62.97 78.81L62.92 78.76L62.61 78.11L62.36 77.71L61.98 77.14L62.07 77.22Q65.06 74.79 66.71 67.31L66.66 67.26L66.66 67.26Q66.60 66.51 66.73 65.00L66.79 65.05L66.71 64.97Q67.00 63.89 66.86 62.79L66.70 62.63L66.86 62.78Q66.49 60.09 64.37 59.20L64.40 59.23L64.53 59.29L64.16 59.05L64.05 58.95Q63.63 57.71 61.51 56.27L61.42 56.18L61.54 56.24L61.63 56.32Q58.07 55.09 50.72 54.75L50.59 54.62L50.70 54.73Q47.76 54.40 45.28 54.60L45.31 54.63L45.42 54.74Q44.00 54.83 41.67 55.10L41.51 54.95L41.69 55.13Q38.18 55.80 37.76 58.75L37.61 58.60L37.75 58.73Q37.60 59.55 37.67 60.99L37.70 61.02L37.74 61.06Q37.97 62.05 39.00 66.30L38.85 66.16L38.90 66.21Q40.40 72.10 43.56 74.50L43.51 74.45L43.65 74.59L43.73 74.67Q38.72 77.01 37.76 86.35L37.70 86.29L37.59 86.18Q37.31 90.23 37.31 91.88L37.25 91.82L37.39 91.96Q37.42 95.08 39.55 96.72L39.53 96.70L39.70 96.88Q39.75 96.85 40.23 97.19L40.38 97.34L40.28 97.25Q42.24 101.48 55.08 101.89ZM54.30 81.74L54.37 81.81L54.42 81.87Q55.93 81.58 57.51 82.41L57.55 82.46L57.62 82.52Q58.37 84.38 58.31 85.34L58.22 85.25L58.21 85.24Q58.22 85.73 58.22 86.28L58.26 86.32L58.19 86.25Q58.34 90.66 54.22 92.17L54.08 92.03L54.23 92.18Q52.79 92.72 51.34 92.52L51.22 92.40L51.34 92.52Q49.29 92.66 47.23 91.83L47.25 91.86L47.26 91.87Q46.80 90.73 46.94 88.94L46.86 88.86L46.91 88.91Q47.08 85.92 49.24 83.72L49.27 83.75L49.39 83.87Q51.38 81.50 54.27 81.71ZM54.87 64.80L54.78 64.72L54.80 64.73Q56.20 64.49 57.16 64.76L57.15 64.75L57.14 66.19L57.28 66.32Q57.12 68.70 55.47 70.52L55.52 70.57L55.55 70.60Q53.93 72.44 51.45 72.10L51.33 71.98L51.37 72.02Q49.63 72.07 48.88 71.65L48.87 71.64L48.90 71.68Q48.79 71.16 48.59 69.92L48.51 69.84L48.69 70.02Q48.11 67.38 50.31 65.87L50.34 65.91L50.38 65.95Q52.16 64.57 54.70 64.64Z"/><path d="M13 97 C191 123,150 57,327 133" stroke="#e3b78c" fill="none"/><path fill="#b7e787" d="M292.45 93.37L292.36 93.28L292.35 93.26Q292.96 95.11 293.92 98.75L293.93 98.76L293.90 98.72Q286.31 96.36 278.00 96.84L277.93 96.76L277.91 96.75Q269.61 97.17 262.40 100.74L262.58 100.91L262.53 100.86Q262.85 99.53 262.92 99.67L262.89 99.64L262.91 99.66Q269.65 92.54 276.73 84.57L276.86 84.71L276.86 84.71Q284.77 75.66 286.90 67.21L286.90 67.21L286.95 67.26Q287.59 63.93 285.29 61.80L285.35 61.86L285.39 61.89Q283.13 59.81 279.91 60.09L279.78 59.96L279.94 60.12Q279.29 60.02 278.67 60.02L278.65 60.00L278.66 60.00Q275.83 59.92 273.56 61.57L273.57 61.58L273.56 61.57Q271.23 64.04 271.64 68.85L271.71 68.92L271.78 68.98Q268.41 68.23 266.22 67.40L266.34 67.53L266.31 67.50Q265.85 64.84 265.72 62.24L265.86 62.38L265.79 62.31Q265.68 59.39 266.78 57.33L266.80 57.34L266.78 57.32Q269.93 54.78 275.98 54.78L275.93 54.74L279.27 54.92L279.15 54.80Q283.28 54.88 285.00 55.09L284.98 55.07L284.94 55.02Q292.82 55.83 293.30 60.23L293.34 60.27L293.40 60.33Q293.42 61.24 293.29 62.68L293.32 62.72L293.24 62.64Q293.26 63.89 292.98 65.13L292.89 65.03L292.92 65.06Q290.11 79.83 276.44 92.19L276.32 92.07L276.33 92.07Q278.97 91.90 281.44 91.90L281.29 91.75L281.34 91.80Q287.23 91.85 292.38 93.29ZM291.26 55.65L291.31 55.70L291.32 55.71Q288.36 54.46 285.27 54.32L285.31 54.36L279.23 54.13L279.21 54.10Q271.09 53.54 267.11 55.53L267.17 55.59L267.12 55.53Q265.33 58.14 265.33 61.85L265.20 61.72L265.18 61.70Q265.34 63.09 265.89 68.18L265.84 68.13L265.84 68.12Q266.78 68.52 268.91 69.07L268.99 69.15L269.00 71.01L268.86 70.87Q268.93 71.84 269.07 72.80L269.07 72.80L269.03 72.76Q271.37 73.04 275.83 73.45L275.74 73.36L275.69 73.31Q275.75 72.75 275.75 72.13L275.70 72.08L275.67 72.05Q275.61 68.70 277.81 66.26L277.96 66.42L277.95 66.40Q280.09 63.91 283.32 64.12L283.21 64.01L283.38 64.17Q284.65 64.14 286.03 64.42L285.99 64.38L286.06 64.46Q286.25 65.12 286.39 65.88L286.48 65.97L286.32 65.81Q286.41 66.59 286.28 67.21L286.36 67.29L286.32 67.25Q284.05 75.83 276.08 84.55L276.05 84.52L276.17 84.64Q272.22 88.58 262.40 99.50L262.36 99.46L262.38 99.48Q262.12 101.08 261.51 102.11L261.38 101.98L261.47 102.07Q264.36 100.50 267.11 99.54L267.12 99.55L267.16 99.59Q265.88 100.64 264.16 103.32L264.10 103.25L264.17 103.33Q263.94 103.93 263.74 104.54L263.69 104.49L263.58 104.38Q272.47 100.78 282.36 101.12L282.30 101.06L282.32 101.09Q292.58 101.39 300.82 105.64L300.88 105.71L298.96 101.73L299.04 101.81Q297.84 99.37 297.36 97.93L297.40 97.97L297.39 97.96Q296.17 97.29 293.97 96.53L293.81 96.37L293.94 96.50Q293.69 95.22 293.01 92.75L292.87 92.61L292.83 92.58Q288.87 91.57 284.75 91.23L284.88 91.36L284.88 91.35Q293.32 83.11 296.07 68.21L296.01 68.16L296.38 62.96L296.28 62.86Q296.14 59.63 293.94 58.40L293.94 58.40L293.89 58.42L293.90 58.43Q293.81 58.27 293.68 58.27L293.70 58.29L293.64 58.23Q293.41 56.90 291.42 55.80Z"/><path d="M15 75 C167 80,185 54,338 53" stroke="#7bcae4" fill="none"/><path d="M5 36 C190 128,165 53,331 101" stroke="#a5dd6e" fill="none"/><path d="M11 92 C177 18,162 133,331 39" stroke="#bc90e8" fill="none"/><path d="M3 68 C178 48,166 62,341 59" stroke="#df9852" fill="none"/><path d="M11 51 C189 5,180 100,324 127" stroke="#4c4cdb" fill="none"/><path d="M2 127 C161 51,186 71,322 60" stroke="#7ee55b" fill="none"/><path d="M18 122 C157 95,189 107,326 90" stroke="#adde7c" fill="none"/><path d="M3 84 C183 102,183 76,322 109" stroke="#badc55" fill="none"/><path d="M2 137 C158 73,184 41,323 46" stroke="#7ee1af" fill="none"/><path d="M3 136 C160 66,150 24,324 131" stroke="#d4d44e" fill="none"/><path d="M10 103 C170 1,184 18,323 50" stroke="#5b5be5" fill="none"/><path d="M9 32 C171 132,162 131,327 16" stroke="#4444e7" fill="none"/><path d="M9 36 C179 69,167 106,338 62" stroke="#9d84eb" fill="none"/></svg>