<svg xmlns="http://www.w3.org/2000/svg" width="342" height="140" viewBox="0,0,342,140"><path d="M20 17 C189 70,185 66,324 42" stroke="#d56742" fill="none"/><path d="M19 5 C186 50,157 41,335 100" stroke="#8888e6" fill="none"/><path d="M12 26 C154 53,182 49,341 117" stroke="#7ee0af" fill="none"/><path d="M11 58 C163 131,166 92,337 56" stroke="#5555d7" fill="none"/><path d="M21 27 C182 89,171 107,324 77" stroke="#e33fe3" fill="none"/><path d="M2 93 C163 49,151 112,321 136" stroke="#f19e83" fill="none"/><path d="M10 92 C161 117,170 57,337 93" stroke="#ec82ec" fill="none"/><path fill="#d0e985" d="M261.14 99.90L261.14 99.90L261.24 99.99Q253.29 100.42 251.37 95.90L251.40 95.94L251.31 95.84Q252.85 94.05 255.89 90.57L255.90 90.58L255.75 90.43Q256.75 94.39 262.60 94.61L262.64 94.65L262.73 94.74Q269.20 94.76 272.38 92.17L272.50 92.28L272.40 92.19Q275.13 89.06 274.98 83.80L274.96 83.78L274.96 83.77Q274.82 74.08 265.48 74.52L265.47 74.51L265.31 74.35Q259.87 74.69 256.46 77.14L256.57 77.24L255.78 76.75L255.40 76.52L255.46 76.58Q256.05 70.35 255.83 65.01L255.94 65.13L255.87 65.05Q255.78 60.08 255.11 53.63L254.98 53.49L255.13 53.65Q262.20 55.46 269.61 55.24L269.52 55.15L269.57 55.20Q276.87 54.94 283.84 52.50L283.92 52.58L282.87 55.60L282.84 55.57Q282.25 57.06 281.88 58.69L281.76 58.57L281.82 58.63Q275.75 60.64 268.19 60.64L268.31 60.75L268.23 60.67Q265.41 60.67 262.52 60.37L262.44 60.29L262.59 60.44Q262.29 61.62 261.62 70.29L261.70 70.37L261.78 70.45Q263.35 69.50 267.35 69.21L267.39 69.25L267.41 69.26Q274.53 69.56 277.34 72.82L277.36 72.84L277.46 72.95Q280.10 75.87 280.61 83.36L280.59 83.34L280.64 83.38Q281.20 91.58 278.83 95.51L278.69 95.36L278.67 95.34Q274.88 99.18 268.43 99.63L268.37 99.56L268.30 99.49Q266.38 99.65 261.19 99.94ZM272.93 104.35L273.01 104.43L272.97 104.39Q279.58 104.48 283.29 102.33L283.36 102.40L283.31 102.36Q285.22 99.37 285.22 95.30L285.27 95.35L285.25 95.32Q285.31 89.39 283.46 81.39L283.37 81.30L283.46 81.38Q282.61 77.87 280.24 75.13L280.33 75.22L280.34 75.30L279.86 74.67L279.17 74.28L279.18 74.29Q278.76 73.05 277.50 71.72L277.34 71.56L277.36 71.66L277.50 71.80Q274.40 68.40 267.21 68.40L267.27 68.46L266.83 68.53L266.66 68.37Q266.88 67.33 267.25 65.18L267.24 65.16L267.34 65.26Q276.99 65.43 284.85 62.25L284.86 62.26L284.81 62.21Q285.57 59.41 287.42 53.93L287.44 53.95L283.38 55.82L283.35 55.78Q284.22 53.69 285.18 51.47L285.12 51.41L285.06 51.35Q277.68 54.26 269.68 54.41L269.54 54.28L269.64 54.38Q261.61 54.57 253.90 52.42L253.85 52.37L253.88 52.40Q255.20 60.98 255.20 69.58L255.35 69.73L255.33 69.71Q255.31 73.39 255.09 77.10L254.96 76.97L254.95 76.96Q255.60 77.46 256.72 78.06L256.59 77.94L256.73 78.07Q257.24 77.47 258.50 76.80L258.52 76.82L258.50 76.81Q258.49 78.34 258.04 81.31L258.00 81.27L258.04 81.30Q258.85 81.68 259.67 82.12L259.73 82.19L259.61 82.06Q265.05 78.69 268.68 78.69L268.69 78.70L268.66 78.66Q271.40 78.81 273.69 80.07L273.58 79.95L273.57 79.94Q274.36 82.06 274.43 83.91L274.40 83.89L274.28 83.76Q274.58 88.95 272.58 91.10L272.50 91.03L272.49 91.02Q269.78 93.35 265.41 93.79L265.51 93.89L265.43 93.81Q263.60 93.98 262.27 93.83L262.29 93.86L262.28 93.84Q260.59 93.57 259.11 92.90L259.25 93.04L259.09 92.51L258.93 92.79L258.93 92.80Q257.30 91.76 256.26 89.17L256.25 89.16L256.21 89.11Q253.71 91.95 250.45 96.10L250.53 96.17L250.40 96.04Q250.95 97.26 252.58 99.12L252.65 99.18L252.57 99.11Q254.69 102.71 260.17 103.67L260.22 103.71L260.16 103.66Q262.53 104.18 272.98 104.40Z"/><path d="M11 6 C174 18,182 74,336 33" stroke="#dd6dc1" fill="none"/><path d="M7 98 C179 132,177 133,323 63" stroke="#3ddb64" fill="none"/><path d="M12 138 C180 27,150 67,335 82" stroke="#4fd391" fill="none"/><path d="M5 102 C161 40,185 65,333 60" stroke="#9854dd" fill="none"/><path d="M18 113 C156 133,162 58,322 138" stroke="#93e079" fill="none"/><path d="M13 112 C170 97,187 66,338 49" stroke="#73eccd" fill="none"/><path d="M12 93 C160 74,182 34,327 13" stroke="#79f079" fill="none"/><path d="M12 59 C178 108,151 6,321 21" stroke="#e494d0" fill="none"/><path d="M11 80 C152 35,173 40,334 57" stroke="#e637e6" fill="none"/><path d="M3 5 C170 76,152 22,341 50" stroke="#83e961" fill="none"/><path d="M18 58 C171 8,189 9,339 34" stroke="#5959d8" fill="none"/><path d="M5 25 C187 126,155 98,330 103" stroke="#80e15f" fill="none"/><path d="M8 10 C163 118,174 23,337 14" stroke="#b5eb7e" fill="none"/><path d="M13 47 C175 116,162 102,332 28" stroke="#ea61a5" fill="none"/><path d="M7 17 C181 125,183 93,341 85" stroke="#df76c4" fill="none"/><path d="M6 135 C165 73,161 121,327 89" stroke="#df6181" fill="none"/><path d="M2 75 C182 94,154 79,322 51" stroke="#e849e8" fill="none"/><path d="M17 46 C176 23,167 55,337 118" stroke="#7ae5e5" fill="none"/><path d="M11 6 C180 89,163 19,328 45" stroke="#88e06a" fill="none"/><path d="M16 95 C178 6,161 118,334 13" stroke="#deaa77" fill="none"/><path fill="#65c1e0" d="M62.31 78.13L62.26 78.08L62.24 78.06Q58.72 78.17 56.35 80.76L56.27 80.68L56.29 80.70Q54.03 83.41 53.73 87.11L53.68 87.06L53.56 86.94Q53.22 91.12 55.59 93.09L55.72 93.21L55.73 93.22Q58.09 95.17 62.23 95.02L62.12 94.91L62.08 94.87Q66.73 94.70 68.58 92.85L68.54 92.81L68.53 92.79Q70.46 89.91 70.23 86.35L70.35 86.47L70.40 86.52Q70.05 82.75 67.93 80.42L68.10 80.58L67.95 80.44Q65.84 78.10 62.28 78.10ZM62.31 59.83L62.31 59.83L62.35 59.87Q59.50 59.54 56.91 60.50L56.92 60.51L57.01 60.60Q54.42 62.09 54.86 65.72L54.78 65.63L54.84 65.69Q55.90 73.05 62.42 73.05L62.41 73.04L62.39 73.03Q65.30 73.26 67.22 71.04L67.25 71.06L67.36 71.17Q69.16 68.83 69.24 65.79L69.36 65.91L69.28 65.83Q69.52 62.51 68.11 61.33L67.94 61.16L68.11 61.33Q64.76 59.61 62.24 59.76ZM61.74 99.78L61.75 99.80L55.75 99.72L55.82 99.80Q52.81 99.75 50.21 98.04L50.27 98.10L50.17 98.00Q47.67 95.94 47.97 90.39L47.83 90.25L47.90 90.32Q48.78 76.97 55.82 75.05L55.72 74.95L55.90 75.12Q51.37 73.26 48.77 62.81L48.79 62.83L48.86 62.90Q48.09 60.05 48.23 58.50L48.16 58.42L48.25 58.51Q48.93 54.45 56.12 54.38L56.09 54.35L55.99 54.25Q64.29 54.17 67.10 54.54L67.08 54.52L67.06 54.50Q74.63 55.63 75.52 59.55L75.50 59.53L75.43 59.47Q75.76 60.75 75.76 61.49L75.69 61.42L75.59 61.32Q75.63 62.70 75.26 63.88L75.33 63.95L75.35 63.97Q74.06 72.09 68.35 75.06L68.45 75.15L68.40 75.11Q75.27 76.71 76.23 87.01L76.11 86.89L76.16 86.94Q76.12 87.19 76.19 89.71L76.20 89.72L76.17 89.69Q76.43 95.14 73.32 97.22L73.28 97.18L73.20 97.10Q70.54 98.81 61.65 99.70ZM66.13 104.26L66.27 104.39L72.80 104.55L72.75 104.50Q75.99 104.56 78.96 103.15L79.02 103.22L78.98 103.17Q81.13 101.69 81.28 98.06L81.34 98.12L81.37 98.15Q81.41 95.97 80.67 92.19L80.71 92.23L80.72 92.24Q79.01 83.27 74.94 79.64L74.88 79.58L74.47 78.81L74.08 78.27L73.75 77.71L73.80 77.76Q77.04 75.15 78.81 67.07L78.85 67.11L78.81 67.06Q78.84 66.35 78.98 64.72L78.93 64.67L78.89 64.63Q78.99 63.24 78.84 62.06L78.97 62.19L78.98 62.19Q78.68 59.38 76.38 58.42L76.41 58.44L76.49 58.45L75.97 58.07L75.99 58.09Q75.52 56.73 73.22 55.17L73.23 55.18L73.28 55.17L73.23 55.12Q69.53 53.93 61.60 53.56L61.58 53.54L61.51 53.47Q58.42 53.19 55.75 53.42L55.80 53.46L55.86 53.52Q54.31 53.60 51.79 53.90L51.73 53.85L51.82 53.93Q47.88 54.51 47.44 57.70L47.50 57.76L47.51 57.78Q47.44 58.74 47.51 60.30L47.53 60.31L47.42 60.20Q47.68 61.28 48.79 65.87L48.83 65.91L48.86 65.94Q50.39 72.21 53.80 74.80L53.71 74.72L54.01 75.02L53.91 74.92Q48.51 77.44 47.47 87.52L47.60 87.65L47.44 87.49Q47.12 91.84 47.12 93.61L47.14 93.63L47.11 93.60Q47.34 97.17 49.64 98.95L49.52 98.84L49.59 98.90Q49.81 99.05 50.33 99.42L50.34 99.43L50.38 99.47Q52.31 103.84 66.17 104.29ZM65.52 82.75L65.46 82.68L65.52 82.75Q67.32 82.62 69.03 83.51L69.02 83.51L68.98 83.46Q69.66 85.33 69.59 86.37L69.67 86.46L69.64 86.42Q69.68 86.98 69.68 87.58L69.83 87.72L69.84 87.73Q69.74 92.23 65.29 93.86L65.31 93.87L65.35 93.91Q63.71 94.43 62.16 94.21L62.14 94.19L62.25 94.29Q60.05 94.47 57.83 93.58L57.86 93.61L57.80 93.56Q57.26 92.27 57.41 90.35L57.47 90.40L57.53 90.47Q57.70 87.23 60.04 84.86L60.12 84.95L60.00 84.82Q62.35 82.46 65.46 82.69ZM66.05 64.38L65.91 64.24L65.93 64.26Q67.60 64.15 68.63 64.45L68.49 64.30L68.53 65.90L68.54 65.91Q68.53 68.64 66.75 70.60L66.74 70.59L66.73 70.58Q65.02 72.61 62.35 72.24L62.39 72.28L62.27 72.16Q60.49 72.31 59.67 71.86L59.66 71.85L59.64 71.83Q59.60 71.34 59.38 70.01L59.35 69.98L59.32 69.96Q58.78 67.19 61.15 65.56L61.08 65.49L61.21 65.62Q63.24 64.24 65.98 64.32Z"/><path d="M10 97 C162 66,175 19,326 121" stroke="#64bedd" fill="none"/><path d="M14 8 C189 61,174 111,331 114" stroke="#e287b5" fill="none"/><path d="M11 107 C153 46,183 8,326 71" stroke="#d485ee" fill="none"/><path d="M3 23 C174 67,169 127,332 10" stroke="#bbdd54" fill="none"/><path fill="#714ddf" d="M191.85 99.79L191.97 99.91L191.89 99.83Q189.15 99.98 186.12 99.17L186.10 99.16L186.08 99.13Q183.80 97.45 183.50 94.26L183.42 94.17L183.40 94.15Q183.33 93.79 183.70 88.67L183.84 88.82L183.80 88.78Q185.77 88.38 189.70 87.64L189.61 87.55L189.28 89.07L189.29 89.08Q188.81 92.53 191.56 93.64L191.61 93.69L191.57 93.66Q193.09 94.29 197.17 94.29L197.21 94.33L197.25 94.37Q200.36 94.07 200.73 93.93L200.62 93.81L200.69 93.89Q202.44 93.56 203.85 92.60L203.92 92.67L203.94 92.69Q206.68 90.83 206.31 86.76L206.23 86.67L206.31 86.76Q205.91 81.99 202.54 78.95L202.47 78.88L202.49 78.90Q199.12 75.87 194.31 75.87L194.25 75.81L194.31 75.43L194.27 75.39Q195.08 75.38 196.78 75.23L196.68 75.12L196.64 75.09Q200.42 74.94 203.09 72.53L203.14 72.59L203.01 72.46Q205.72 70.09 206.02 66.46L206.17 66.62L205.99 66.43Q206.28 65.90 206.28 65.24L206.28 65.24L206.23 65.19Q206.14 62.14 203.48 60.36L203.48 60.37L203.60 60.49Q201.10 58.80 197.98 59.02L198.00 59.04L198.02 59.05Q195.53 58.79 193.16 59.60L193.14 59.59L193.21 59.66Q190.29 60.59 189.70 62.81L189.87 62.98L189.86 62.98Q189.47 64.43 189.62 65.92L189.65 65.95L189.46 65.76Q187.52 65.37 183.52 63.97L183.57 64.02L183.48 63.93Q183.12 60.75 183.19 59.12L183.25 59.18L183.10 59.03Q183.46 56.20 185.53 54.87L185.49 54.82L185.57 54.91Q188.24 53.65 191.35 53.65L191.27 53.56L191.27 53.57Q197.55 53.62 203.70 54.13L203.57 54.01L203.58 54.02Q213.54 54.93 212.94 62.27L212.96 62.28L212.92 62.25Q212.81 65.18 211.85 68.22L211.88 68.24L211.84 68.21Q210.06 74.20 205.46 75.98L205.47 75.99L205.33 75.85Q210.49 76.94 211.68 83.46L211.70 83.48L211.68 83.46Q212.24 85.79 212.38 89.72L212.22 89.56L212.32 89.66Q212.60 98.31 203.63 99.20L203.63 99.20L203.65 99.22Q202.12 99.24 191.82 99.76ZM202.11 104.27L202.02 104.18L202.05 104.21Q203.33 104.38 208.89 104.53L208.79 104.43L208.86 104.50Q212.14 104.52 215.33 103.26L215.39 103.33L215.38 103.32Q217.80 101.58 217.43 98.17L217.34 98.08L217.31 98.06Q217.07 95.44 216.48 92.03L216.60 92.16L216.49 92.05Q215.18 83.41 211.40 80.22L211.33 80.14L210.97 79.42L210.84 79.21L210.82 79.19Q214.24 76.39 215.73 67.87L215.85 67.99L215.83 67.97Q215.90 67.08 216.12 65.23L216.14 65.24L216.03 65.14Q216.19 63.66 216.04 62.33L215.99 62.28L216.01 62.30Q215.83 59.15 213.31 57.82L213.31 57.83L213.21 57.87L213.13 57.78Q212.59 55.92 210.37 54.88L210.38 54.89L210.32 54.83Q207.37 53.51 197.37 52.92L197.27 52.82L197.35 52.90Q194.11 52.77 190.99 52.77L190.92 52.69L190.96 52.74Q187.81 52.69 184.84 53.95L184.90 54.02L184.90 54.01Q182.43 55.39 182.43 58.80L182.52 58.89L182.46 58.83Q182.57 58.13 183.09 64.65L182.99 64.55L183.13 64.69Q183.62 64.74 186.81 65.92L186.71 65.83L186.79 65.90Q186.82 66.97 186.74 67.94L186.82 68.01L186.64 67.83Q186.68 68.84 186.76 69.88L186.87 69.99L186.78 69.89Q190.20 70.57 194.13 70.80L194.29 70.96L194.16 70.83Q194.05 66.94 196.20 65.31L196.15 65.26L196.18 65.29Q197.79 64.01 201.71 63.56L201.73 63.58L201.83 63.68Q204.05 63.67 205.16 64.04L205.16 64.05L205.15 64.04Q205.12 64.16 205.20 64.38L205.33 64.52L205.20 64.75L205.52 65.96L205.55 65.99Q205.56 66.37 205.49 66.67L205.33 66.51L205.35 66.53Q205.33 69.99 202.36 72.29L202.35 72.28L202.30 72.23Q200.49 73.97 196.56 74.34L196.62 74.40L196.49 74.27Q195.16 74.65 193.45 74.65L193.46 74.65L193.42 74.61Q193.56 75.35 193.86 76.68L193.85 76.68L193.82 76.64Q197.25 76.67 200.07 78.07L200.04 78.04L199.82 78.05L196.72 78.35L196.82 78.46Q196.93 79.16 197.16 80.35L197.09 80.28L197.11 80.30Q201.36 80.25 204.69 82.84L204.51 82.66L204.57 82.73Q205.07 83.52 205.67 86.71L205.61 86.65L205.67 86.71Q206.08 92.46 200.38 93.28L200.30 93.20L200.35 93.24Q196.14 93.63 195.03 93.56L195.12 93.64L195.05 93.58Q194.18 93.38 193.15 93.23L193.11 93.20L193.11 92.31L193.36 91.44L193.52 90.79L193.52 90.12L193.65 90.25Q191.77 90.38 190.22 90.75L190.21 90.74L190.11 90.64Q190.12 90.28 190.12 89.91L189.98 89.77L190.08 89.87Q190.07 89.42 190.07 88.97L190.11 89.01L190.15 89.05Q190.15 88.16 190.45 86.75L190.41 86.72L190.50 86.80Q186.79 87.17 183.16 87.84L183.23 87.91L183.17 87.85Q183.15 88.80 182.93 90.98L183.08 91.13L182.95 91.00Q182.82 93.28 182.82 94.47L182.84 94.48L182.73 94.37Q182.96 98.46 185.63 99.94L185.61 99.92L185.63 99.94Q188.57 104.44 197.76 104.07L197.66 103.97L197.80 104.11Q199.03 103.85 201.99 104.15Z"/><path fill="#9377e8" d="M131.55 66.92L131.58 66.95L131.58 66.95Q125.20 66.80 121.65 64.72L121.64 64.72L121.74 64.81Q126.58 62.10 136.06 53.87L136.20 54.01L136.10 53.91Q137.46 53.49 139.98 52.30L140.07 52.40L140.05 52.37Q137.41 63.89 137.19 76.26L137.30 76.37L137.22 76.30Q137.08 88.75 139.15 100.61L139.07 100.52L138.99 100.44Q135.80 99.11 131.65 98.89L131.61 98.85L131.75 98.98Q131.37 90.74 131.37 82.82L131.45 82.90L131.54 82.99Q131.35 74.79 131.42 66.79ZM130.68 71.16L130.83 99.69L130.82 99.68Q133.15 99.65 135.01 100.02L134.95 99.96L134.91 99.92Q135.15 101.35 135.53 104.02L135.58 104.07L135.53 104.02Q140.98 104.96 145.73 109.33L145.90 109.51L145.86 109.46Q141.10 95.66 141.02 81.14L141.03 81.14L141.03 81.14Q140.77 66.51 144.33 52.43L144.38 52.48L144.35 52.45Q143.29 53.24 140.18 55.39L140.18 55.40L140.21 55.42Q140.62 53.99 141.21 51.02L141.18 50.98L141.18 50.99Q138.46 52.35 135.65 53.09L135.76 53.20L135.67 53.10Q128.38 60.12 120.01 64.57L119.96 64.52L119.94 64.50Q122.86 66.82 127.45 67.49L127.45 67.49L127.43 67.46Q126.03 68.37 123.51 70.44L123.66 70.59L123.66 70.59Q126.58 71.36 130.87 71.36L130.87 71.35Z"/><path d="M5 76 C167 83,190 100,331 114" stroke="#c664e6" fill="none"/><path d="M10 43 C156 7,163 54,324 49" stroke="#876cda" fill="none"/><path d="M8 110 C190 44,190 82,337 28" stroke="#80e85d" fill="none"/><path d="M8 133 C157 126,192 122,329 33" stroke="#84efd5" fill="none"/><path d="M13 86 C175 23,175 111,330 42" stroke="#3fe83f" fill="none"/><path d="M16 66 C164 107,177 130,329 65" stroke="#8282e2" fill="none"/><path d="M2 125 C185 55,181 112,333 35" stroke="#e079c7" fill="none"/><path d="M5 41 C182 135,184 8,321 103" stroke="#3edf66" fill="none"/><path d="M17 57 C190 60,158 123,336 63" stroke="#dd6ea5" fill="none"/></svg>