<svg xmlns="http://www.w3.org/2000/svg" width="342" height="140" viewBox="0,0,342,140"><path d="M7 128 C186 121,158 85,334 131" stroke="#40e240" fill="none"/><path d="M17 97 C182 97,188 28,327 102" stroke="#e65ae6" fill="none"/><path fill="#eb8260" d="M159.96 98.09L159.96 98.10L159.97 98.11Q152.48 98.45 150.68 94.22L150.70 94.25L150.62 94.17Q152.14 92.56 154.98 89.30L154.94 89.27L154.92 89.24Q155.80 92.90 161.28 93.11L161.18 93.01L161.20 93.03Q167.38 93.17 170.36 90.74L170.42 90.80L170.38 90.77Q172.92 87.83 172.78 82.90L172.93 83.06L172.76 82.88Q172.56 73.74 163.82 74.15L163.90 74.23L163.73 74.07Q158.68 74.42 155.49 76.71L155.41 76.63L154.90 76.40L154.46 76.09L154.60 76.24Q155.07 70.32 154.86 65.33L154.94 65.41L155.03 65.50Q154.65 60.54 154.02 54.51L154.16 54.65L154.07 54.56Q160.72 56.28 167.66 56.08L167.76 56.18L167.67 56.09Q174.61 55.96 181.13 53.67L181.11 53.65L180.17 56.52L180.14 56.49Q179.47 57.77 179.13 59.29L179.25 59.42L179.17 59.34Q173.57 61.29 166.49 61.29L166.51 61.31L166.37 61.17Q163.91 61.34 161.20 61.07L161.13 60.99L161.14 61.00Q160.92 62.17 160.30 70.28L160.41 70.40L160.34 70.32Q161.91 69.54 165.65 69.26L165.67 69.27L165.59 69.20Q172.41 69.64 175.05 72.69L174.98 72.63L175.07 72.71Q177.48 75.40 177.96 82.40L178.02 82.46L177.97 82.41Q178.55 90.13 176.33 93.81L176.37 93.84L176.31 93.78Q172.60 97.22 166.57 97.63L166.55 97.62L166.54 97.61Q164.68 97.68 159.82 97.96ZM170.83 102.10L170.99 102.26L170.82 102.09Q177.11 102.28 180.57 100.27L180.64 100.34L180.64 100.33Q182.39 97.51 182.39 93.69L182.39 93.70L182.45 93.75Q182.38 88.07 180.65 80.58L180.69 80.62L180.58 80.51Q179.97 77.40 177.75 74.84L177.76 74.85L177.89 75.05L177.47 74.49L176.78 74.08L176.74 74.04Q176.32 72.85 175.14 71.60L174.99 71.45L175.15 71.69L175.04 71.57Q172.35 68.61 165.63 68.61L165.59 68.58L165.14 68.60L165.03 68.50Q165.16 67.45 165.51 65.44L165.48 65.41L165.58 65.51Q174.57 65.63 181.92 62.65L182.09 62.81L182.07 62.79Q182.66 60.05 184.39 54.92L184.40 54.93L180.63 56.71L180.77 56.85Q181.41 54.71 182.31 52.63L182.33 52.66L182.25 52.57Q175.23 55.20 167.75 55.33L167.71 55.30L167.72 55.31Q160.26 55.55 153.05 53.54L153.01 53.50L153.02 53.50Q154.27 61.55 154.27 69.59L154.32 69.64L154.27 69.59Q154.36 73.15 154.16 76.62L154.10 76.56L154.07 76.53Q154.59 76.91 155.63 77.47L155.70 77.54L155.60 77.44Q156.21 77.01 157.39 76.39L157.48 76.48L157.43 76.43Q157.35 77.81 156.94 80.58L157.06 80.70L156.98 80.63Q157.67 80.90 158.43 81.32L158.41 81.30L158.48 81.36Q163.48 78.11 166.88 78.11L167.01 78.24L166.90 78.14Q169.33 78.14 171.48 79.32L171.51 79.35L171.50 79.33Q172.24 81.33 172.31 83.06L172.19 82.94L172.32 83.06Q172.39 87.71 170.51 89.72L170.49 89.70L170.41 89.62Q167.91 91.84 163.82 92.25L163.81 92.24L163.80 92.23Q162.10 92.40 160.85 92.27L161.01 92.42L160.94 92.35Q159.45 92.17 158.06 91.55L157.93 91.42L157.84 90.98L157.76 91.32L157.76 91.32Q156.28 90.40 155.31 87.97L155.30 87.96L155.21 87.87Q152.87 90.52 149.82 94.40L149.73 94.32L149.77 94.35Q150.32 95.53 151.85 97.26L151.83 97.25L151.83 97.25Q153.89 100.69 159.02 101.59L158.89 101.46L159.05 101.62Q161.10 101.94 170.87 102.15Z"/><path d="M3 59 C161 72,175 101,340 66" stroke="#8c33e4" fill="none"/><path d="M6 105 C176 108,167 38,341 95" stroke="#63d8bb" fill="none"/><path fill="#e48ab7" d="M51.32 77.58L51.46 77.72L51.27 77.53Q47.90 77.56 45.68 79.99L45.77 80.08L45.69 79.99Q43.50 82.45 43.22 85.92L43.34 86.04L43.26 85.96Q42.88 89.81 45.10 91.65L45.03 91.58L45.13 91.68Q47.39 93.55 51.27 93.41L51.26 93.40L51.17 93.32Q55.37 93.01 57.10 91.27L57.27 91.44L57.09 91.26Q59.16 88.82 58.95 85.49L58.77 85.31L58.81 85.36Q58.55 81.91 56.58 79.72L56.76 79.90L56.76 79.91Q54.71 77.65 51.39 77.65ZM51.33 60.47L51.27 60.40L51.24 60.38Q48.67 60.17 46.25 61.07L46.33 61.15L46.21 61.04Q43.93 62.56 44.34 65.96L44.45 66.07L44.26 65.88Q45.31 72.83 51.42 72.83L51.44 72.85L51.42 72.83Q54.18 73.09 55.98 71.01L56.10 71.13L56.10 71.13Q57.83 68.98 57.90 66.13L57.84 66.08L57.91 66.15Q58.06 62.97 56.74 61.86L56.70 61.82L56.79 61.91Q53.71 60.35 51.35 60.49ZM50.85 97.92L50.87 97.94L45.20 97.81L45.20 97.82Q42.58 97.97 40.16 96.38L40.04 96.26L39.96 96.18Q37.65 94.28 37.92 89.08L37.81 88.97L37.83 88.99Q38.71 76.55 45.29 74.75L45.21 74.67L45.21 74.66Q41.19 73.14 38.76 63.36L38.67 63.27L38.66 63.26Q38.08 60.74 38.22 59.28L38.23 59.29L38.16 59.23Q38.78 55.41 45.51 55.34L45.48 55.31L45.47 55.30Q53.21 55.20 55.84 55.55L55.73 55.44L55.77 55.47Q62.80 56.48 63.63 60.15L63.64 60.16L63.60 60.12Q63.76 61.18 63.76 61.87L63.76 61.87L63.85 61.96Q63.85 63.21 63.51 64.32L63.46 64.27L63.51 64.33Q62.39 72.01 57.05 74.79L57.14 74.88L57.00 74.74Q63.47 76.29 64.37 85.92L64.30 85.85L64.40 85.95Q64.37 86.20 64.44 88.56L64.31 88.42L64.44 88.56Q64.50 93.47 61.59 95.41L61.57 95.39L61.56 95.39Q59.20 97.12 50.88 97.95ZM54.90 102.04L55.01 102.15L60.99 102.17L61.13 102.30Q64.11 102.30 66.88 100.98L66.95 101.05L66.92 101.02Q69.04 99.74 69.18 96.35L69.09 96.26L69.18 96.34Q69.20 94.29 68.51 90.75L68.54 90.78L68.61 90.86Q66.80 82.25 62.99 78.85L63.11 78.98L62.74 78.25L62.33 77.71L62.14 77.31L62.05 77.22Q65.06 74.76 66.73 67.20L66.75 67.22L66.72 67.19Q66.68 66.46 66.82 64.94L66.95 65.06L66.88 64.99Q66.97 63.70 66.83 62.59L66.96 62.72L66.94 62.70Q66.65 60.05 64.50 59.14L64.50 59.15L64.63 59.21L64.11 58.82L64.18 58.90Q63.67 57.55 61.52 56.10L61.47 56.05L61.53 56.03L61.58 56.09Q58.04 54.91 50.62 54.56L50.69 54.62L50.64 54.57Q47.69 54.26 45.19 54.47L45.28 54.56L45.20 54.47Q43.73 54.54 41.38 54.81L41.44 54.88L41.38 54.82Q37.82 55.49 37.41 58.47L37.43 58.49L37.55 58.61Q37.51 59.54 37.58 61.00L37.52 60.94L37.50 60.92Q37.79 61.97 38.83 66.27L38.71 66.15L38.64 66.09Q40.18 72.06 43.37 74.49L43.36 74.48L43.60 74.72L43.55 74.66Q38.52 77.06 37.55 86.49L37.46 86.40L37.46 86.40Q37.20 90.51 37.20 92.18L37.15 92.13L37.08 92.06Q37.28 95.37 39.43 97.04L39.49 97.10L39.45 97.06Q39.60 97.14 40.08 97.48L40.20 97.60L40.10 97.50Q42.06 101.74 55.02 102.16ZM54.30 81.88L54.31 81.90L54.36 81.95Q55.99 81.77 57.59 82.60L57.55 82.57L57.56 82.57Q58.38 84.51 58.31 85.48L58.17 85.34L58.31 85.47Q58.24 85.89 58.24 86.44L58.30 86.51L58.32 86.53Q58.26 90.76 54.10 92.29L54.13 92.32L54.13 92.32Q52.63 92.83 51.17 92.62L51.20 92.65L51.29 92.74Q49.28 92.95 47.20 92.12L47.14 92.05L47.13 92.05Q46.62 90.85 46.76 89.04L46.72 89.00L46.69 88.97Q47.08 86.17 49.26 83.95L49.21 83.90L49.34 84.03Q51.49 81.78 54.40 81.98ZM54.72 64.62L54.76 64.66L54.68 64.58Q56.12 64.36 57.09 64.63L57.09 64.63L57.13 66.13L57.25 66.25Q57.23 68.80 55.57 70.63L55.43 70.50L55.50 70.57Q53.93 72.50 51.43 72.15L51.46 72.17L51.34 72.05Q49.51 72.03 48.75 71.61L48.75 71.62L48.74 71.61Q48.81 71.26 48.60 70.01L48.50 69.91L48.46 69.88Q47.97 67.30 50.19 65.78L50.33 65.91L50.25 65.83Q52.24 64.64 54.81 64.71Z"/><path d="M21 91 C159 51,171 119,323 22" stroke="#57d5d5" fill="none"/><path d="M12 61 C159 18,178 10,326 95" stroke="#b275ef" fill="none"/><path d="M5 11 C183 102,173 84,327 45" stroke="#92ebeb" fill="none"/><path fill="#6f4ed4" d="M292.42 93.47L292.55 93.61L292.44 93.49Q292.95 95.26 293.92 98.93L293.92 98.92L293.96 98.96Q286.30 96.58 277.91 97.06L277.92 97.07L277.88 97.04Q269.60 97.56 262.32 101.17L262.35 101.19L262.34 101.18Q262.63 99.81 262.70 99.95L262.87 100.12L262.82 100.07Q269.47 92.72 276.61 84.67L276.76 84.82L276.62 84.68Q284.66 75.59 286.81 67.06L286.82 67.07L286.92 67.18Q287.68 63.91 285.35 61.76L285.36 61.76L285.47 61.87Q283.18 59.76 279.92 60.03L279.75 59.86L279.90 60.01Q279.14 59.81 278.52 59.81L278.58 59.88L278.60 59.90Q275.78 59.85 273.50 61.52L273.44 61.46L273.45 61.47Q271.14 64.02 271.56 68.87L271.52 68.83L271.56 68.87Q268.40 68.35 266.18 67.52L266.10 67.43L266.06 67.39Q265.69 64.80 265.55 62.17L265.61 62.23L265.65 62.26Q265.45 59.23 266.56 57.15L266.61 57.19L266.63 57.22Q269.80 54.63 275.90 54.63L275.99 54.72L279.15 54.68L279.11 54.65Q283.20 54.65 284.94 54.86L284.95 54.87L285.03 54.95Q292.95 55.73 293.44 60.17L293.46 60.19L293.50 60.23Q293.50 61.13 293.36 62.59L293.49 62.72L293.32 62.55Q293.34 63.81 293.06 65.06L293.00 65.01L293.15 65.15Q290.18 79.93 276.38 92.41L276.38 92.41L276.29 92.32Q278.95 92.14 281.44 92.14L281.45 92.14L281.37 92.06Q287.20 92.00 292.40 93.45ZM291.48 55.64L291.34 55.50L291.37 55.54Q288.55 54.45 285.43 54.31L285.35 54.23L279.17 53.95L279.08 53.86Q270.99 53.40 266.97 55.41L267.01 55.44L267.07 55.50Q265.00 57.87 265.00 61.62L265.04 61.65L264.99 61.61Q265.09 62.96 265.65 68.09L265.62 68.06L265.74 68.19Q266.59 68.48 268.74 69.03L268.80 69.09L268.82 70.98L268.76 70.92Q268.75 71.82 268.89 72.79L268.87 72.77L268.89 72.79Q271.14 72.95 275.64 73.37L275.72 73.44L275.69 73.42Q275.67 72.77 275.67 72.14L275.53 72.01L275.57 72.05Q275.61 68.76 277.83 66.30L277.91 66.38L277.76 66.23Q280.13 63.92 283.39 64.13L283.37 64.10L283.28 64.02Q284.77 64.19 286.16 64.47L286.13 64.44L285.99 64.30Q286.31 65.11 286.45 65.87L286.48 65.90L286.38 65.80Q286.39 66.50 286.25 67.13L286.41 67.29L286.42 67.30Q284.16 75.99 276.11 84.80L275.99 84.68L275.93 84.61Q272.13 88.79 262.21 99.81L262.16 99.76L262.21 99.81Q261.82 101.29 261.19 102.33L261.21 102.34L261.29 102.43Q264.11 100.74 266.88 99.77L266.97 99.85L266.85 99.73Q265.63 100.87 263.90 103.57L263.86 103.54L263.83 103.51Q263.77 104.28 263.56 104.90L263.47 104.81L263.38 104.72Q272.35 101.07 282.34 101.42L282.41 101.49L282.30 101.39Q292.59 101.62 300.91 105.92L301.05 106.06L299.17 102.10L299.12 102.05Q298.05 99.73 297.57 98.28L297.44 98.15L297.58 98.29Q296.10 97.37 293.88 96.60L293.94 96.66L294.00 96.72Q293.78 95.45 293.08 92.96L292.97 92.84L292.94 92.82Q289.07 91.93 284.91 91.58L284.84 91.51L284.89 91.56Q293.44 83.26 296.21 68.21L296.04 68.04L296.40 62.79L296.56 62.95Q296.36 59.63 294.15 58.38L294.12 58.35L293.98 58.28L293.95 58.26Q293.89 58.12 293.75 58.12L293.80 58.17L293.83 58.20Q293.34 56.61 291.33 55.50Z"/><path d="M2 107 C163 34,186 99,325 46" stroke="#977fe0" fill="none"/><path d="M12 14 C165 41,152 5,332 76" stroke="#e457c1" fill="none"/><path fill="#466ad6" d="M109.19 67.14L109.19 67.14L109.20 67.15Q103.28 67.06 99.96 65.12L99.89 65.05L99.98 65.14Q104.61 62.70 113.48 55.00L113.36 54.87L113.46 54.97Q114.75 54.60 117.10 53.49L117.07 53.45L117.20 53.59Q114.63 64.26 114.42 75.84L114.56 75.98L114.38 75.80Q114.31 87.51 116.25 98.61L116.16 98.51L116.25 98.61Q113.11 97.20 109.23 97.00L109.22 96.98L109.29 97.05Q109.14 89.55 109.14 82.13L109.16 82.16L109.09 82.09Q109.01 74.52 109.08 67.03ZM108.50 71.23L108.51 97.80L108.49 97.78Q110.59 97.66 112.32 98.01L112.40 98.08L112.35 98.04Q112.45 99.25 112.80 101.74L112.88 101.83L112.94 101.88Q118.08 102.80 122.52 106.89L122.60 106.97L122.58 106.95Q117.98 93.89 117.91 80.30L117.87 80.26L117.90 80.28Q117.85 66.79 121.18 53.61L121.22 53.66L121.22 53.66Q120.18 54.34 117.27 56.35L117.17 56.26L117.31 56.39Q117.64 55.00 118.20 52.22L118.20 52.22L118.06 52.09Q115.67 53.51 113.04 54.21L113.13 54.30L113.15 54.32Q106.18 60.73 98.35 64.89L98.33 64.88L98.33 64.88Q100.90 66.89 105.20 67.51L105.23 67.55L105.26 67.58Q104.16 68.62 101.80 70.57L101.80 70.56L101.67 70.43Q104.37 71.12 108.39 71.12L108.50 71.24Z"/><path d="M10 109 C175 129,158 64,331 12" stroke="#98e6d2" fill="none"/><path d="M13 10 C183 26,161 16,337 90" stroke="#83d1eb" fill="none"/><path d="M4 61 C191 76,169 87,330 55" stroke="#b5d651" fill="none"/><path d="M2 32 C170 44,156 72,334 75" stroke="#e96767" fill="none"/><path d="M15 59 C168 41,170 80,339 30" stroke="#8262e4" fill="none"/><path d="M11 127 C186 22,167 42,328 79" stroke="#e1b83b" fill="none"/><path d="M19 68 C156 126,157 65,332 47" stroke="#e1977e" fill="none"/><path d="M4 67 C173 72,178 36,327 32" stroke="#87e787" fill="none"/><path d="M17 100 C187 73,156 58,327 77" stroke="#baee85" fill="none"/><path d="M13 126 C172 95,167 61,340 42" stroke="#4fd8d8" fill="none"/><path d="M1 97 C159 99,175 6,338 112" stroke="#c25ce4" fill="none"/><path d="M18 38 C177 46,176 60,340 96" stroke="#5fdd5f" fill="none"/><path d="M6 119 C154 6,161 90,326 39" stroke="#e66969" fill="none"/><path d="M20 6 C153 18,164 13,338 98" stroke="#75e4e4" fill="none"/><path d="M19 124 C186 43,179 83,321 128" stroke="#4d4dda" fill="none"/><path d="M2 43 C174 137,150 110,341 125" stroke="#8e38e5" fill="none"/><path d="M19 124 C170 106,171 68,332 7" stroke="#48deb9" fill="none"/><path d="M9 11 C152 30,180 129,325 36" stroke="#7ce8cd" fill="none"/><path d="M20 108 C191 76,160 126,335 116" stroke="#dd6482" fill="none"/><path d="M14 60 C192 133,181 17,330 71" stroke="#e2b940" fill="none"/><path d="M4 16 C186 93,186 31,335 133" stroke="#de5858" fill="none"/><path d="M14 126 C157 37,166 55,332 87" stroke="#87e787" fill="none"/><path d="M6 127 C180 131,169 33,329 13" stroke="#6eddc1" fill="none"/><path d="M15 106 C184 89,188 134,334 79" stroke="#e89090" fill="none"/><path fill="#71cfee" d="M222.41 67.03L222.54 67.15L222.49 67.11Q216.73 67.17 213.40 65.23L213.23 65.06L213.26 65.08Q217.93 62.68 226.80 54.99L226.75 54.93L226.72 54.91Q228.03 54.55 230.38 53.44L230.49 53.54L230.39 53.44Q228.00 64.29 227.79 75.87L227.86 75.95L227.73 75.82Q227.57 87.44 229.51 98.53L229.48 98.50L229.46 98.48Q226.42 97.18 222.54 96.97L222.60 97.03L222.55 96.99Q222.48 89.57 222.48 82.15L222.44 82.10L222.38 82.04Q222.36 74.54 222.43 67.05ZM221.79 71.19L221.80 97.76L221.68 97.64Q224.02 97.76 225.75 98.10L225.71 98.06L225.77 98.12Q225.89 99.35 226.24 101.85L226.13 101.74L226.22 101.83Q231.44 102.82 235.88 106.91L235.91 106.95L235.82 106.85Q231.28 93.86 231.21 80.27L231.30 80.36L231.28 80.33Q231.15 66.75 234.48 53.58L234.51 53.61L234.38 53.48Q233.50 54.34 230.59 56.35L230.50 56.26L230.62 56.38Q230.92 54.94 231.47 52.17L231.57 52.27L231.40 52.10Q229.04 53.55 226.41 54.24L226.36 54.19L226.46 54.30Q219.66 60.87 211.82 65.03L211.75 64.97L211.81 65.02Q214.24 66.90 218.54 67.52L218.69 67.67L218.56 67.55Q217.45 68.59 215.10 70.53L215.01 70.44L215.14 70.57Q217.74 71.16 221.76 71.16L221.76 71.17Z"/><path d="M20 104 C157 95,154 26,326 3" stroke="#90e8bc" fill="none"/><path d="M16 126 C155 135,185 123,324 133" stroke="#ba5cda" fill="none"/><path d="M5 43 C190 122,177 63,322 16" stroke="#eeaf71" fill="none"/><path d="M6 104 C154 7,176 137,338 99" stroke="#e9a35c" fill="none"/><path d="M9 38 C154 14,152 125,337 136" stroke="#ed86d3" fill="none"/><path d="M19 18 C175 65,151 119,340 134" stroke="#aae896" fill="none"/><path d="M19 3 C183 25,185 71,331 102" stroke="#a8dd73" fill="none"/></svg>