<svg xmlns="http://www.w3.org/2000/svg" width="342" height="140" viewBox="0,0,342,140"><path d="M2 64 C173 96,161 106,335 35" stroke="#5d5dd9" fill="none"/><path d="M19 127 C159 56,171 14,336 21" stroke="#98d2e6" fill="none"/><path d="M19 7 C159 29,185 31,337 66" stroke="#7fdc60" fill="none"/><path d="M4 99 C188 80,174 54,335 24" stroke="#b2d44e" fill="none"/><path fill="#7ecce6" d="M63.23 77.02L63.11 76.90L63.26 77.05Q60.05 76.94 58.03 79.15L57.97 79.09L58.05 79.18Q56.02 81.38 55.77 84.54L55.74 84.51L55.83 84.61Q55.38 88.01 57.40 89.68L57.40 89.68L57.49 89.78Q59.51 91.44 63.05 91.32L63.13 91.40L62.95 91.22Q66.89 91.05 68.47 89.47L68.53 89.53L68.46 89.46Q70.08 86.97 69.89 83.94L69.92 83.96L70.05 84.10Q69.83 80.96 68.03 78.97L68.04 78.99L68.00 78.94Q66.17 76.92 63.13 76.92ZM63.07 61.25L63.04 61.22L63.11 61.28Q60.85 61.17 58.64 62.00L58.48 61.84L58.63 61.99Q56.39 63.22 56.77 66.32L56.82 66.37L56.81 66.36Q57.59 72.52 63.16 72.52L63.08 72.44L63.15 72.51Q65.85 72.94 67.49 71.04L67.47 71.02L67.36 70.91Q69.13 69.14 69.19 66.54L69.17 66.52L69.16 66.51Q69.20 63.52 68.00 62.51L67.96 62.47L68.00 62.50Q65.16 61.06 63.01 61.18ZM62.75 95.51L62.63 95.38L57.68 95.50L57.51 95.33Q55.12 95.46 52.91 94.01L52.77 93.87L52.79 93.89Q50.65 92.13 50.90 87.39L50.86 87.35L50.89 87.37Q51.67 76.01 57.67 74.37L57.52 74.22L57.62 74.32Q53.77 72.75 51.56 63.83L51.59 63.86L51.49 63.77Q51.12 61.62 51.24 60.29L51.25 60.30L51.17 60.21Q51.57 56.57 57.70 56.51L57.70 56.50L57.81 56.62Q64.84 56.50 67.24 56.82L67.31 56.89L67.28 56.86Q73.53 57.60 74.28 60.95L74.45 61.12L74.35 61.02Q74.62 62.11 74.62 62.74L74.60 62.72L74.52 62.64Q74.45 63.71 74.13 64.72L74.13 64.72L74.13 64.72Q73.12 71.74 68.26 74.27L68.29 74.30L68.40 74.42Q74.25 75.77 75.07 84.56L74.94 84.43L74.91 84.40Q75.09 84.83 75.15 86.98L75.03 86.86L75.06 86.90Q75.25 91.51 72.60 93.28L72.53 93.22L72.57 93.25Q70.27 94.68 62.68 95.44ZM66.45 99.27L66.49 99.31L72.01 99.39L72.08 99.46Q74.95 99.62 77.48 98.41L77.35 98.28L77.36 98.30Q79.21 97.05 79.34 93.95L79.42 94.03L79.34 93.95Q79.38 92.09 78.74 88.87L78.93 89.05L78.90 89.02Q77.28 81.21 73.80 78.11L73.81 78.12L73.56 77.56L73.21 77.07L73.01 76.68L73.00 76.68Q75.66 74.34 77.18 67.45L77.22 67.50L77.18 67.45Q77.18 66.82 77.31 65.43L77.39 65.51L77.28 65.41Q77.41 64.27 77.29 63.26L77.27 63.25L77.29 63.27Q77.04 60.87 75.08 60.04L75.02 59.98L75.15 60.05L74.95 59.98L74.85 59.88Q74.47 58.74 72.51 57.41L72.49 57.39L72.49 57.32L72.43 57.26Q69.17 56.15 62.40 55.84L62.52 55.96L62.53 55.96Q59.89 55.73 57.62 55.92L57.51 55.81L57.63 55.93Q56.29 55.98 54.14 56.24L54.03 56.12L54.06 56.16Q50.81 56.76 50.43 59.48L50.42 59.47L50.62 59.67Q50.52 60.46 50.59 61.79L50.47 61.67L50.62 61.81Q50.80 62.69 51.75 66.61L51.64 66.51L51.61 66.47Q53.07 71.98 55.98 74.20L55.93 74.14L55.97 74.18L56.09 74.31Q51.39 76.38 50.51 84.97L50.46 84.92L50.57 85.03Q50.17 88.62 50.17 90.14L50.24 90.21L50.23 90.19Q50.25 93.06 52.21 94.58L52.24 94.60L52.24 94.60Q52.57 94.87 53.01 95.19L52.83 95.01L53.00 95.18Q54.71 98.97 66.53 99.35ZM65.79 80.78L65.91 80.90L65.81 80.80Q67.35 80.70 68.80 81.46L68.87 81.52L68.91 81.57Q69.57 83.23 69.51 84.12L69.40 84.02L69.34 83.95Q69.46 84.52 69.46 85.02L69.53 85.09L69.48 85.04Q69.55 89.04 65.76 90.43L65.62 90.28L65.72 90.39Q64.30 90.80 62.98 90.61L62.99 90.63L63.10 90.74Q61.18 90.84 59.28 90.08L59.25 90.05L59.38 90.18Q58.95 89.12 59.08 87.47L59.09 87.48L59.04 87.43Q59.16 84.65 61.15 82.62L61.33 82.80L61.21 82.68Q63.26 80.72 65.92 80.91ZM66.32 65.19L66.21 65.08L66.33 65.21Q67.61 64.97 68.50 65.22L68.55 65.27L68.45 66.50L68.56 66.61Q68.40 68.78 66.88 70.46L66.91 70.49L66.99 70.57Q65.43 72.20 63.15 71.88L63.23 71.96L63.13 71.87Q61.50 71.88 60.81 71.50L60.87 71.57L60.80 71.49Q60.76 71.07 60.57 69.93L60.59 69.95L60.61 69.98Q60.12 67.59 62.14 66.19L62.18 66.23L62.11 66.16Q64.01 65.16 66.35 65.22Z"/><path d="M3 94 C179 36,159 125,323 109" stroke="#ea9847" fill="none"/><path d="M13 100 C152 86,180 85,332 80" stroke="#6cc6e4" fill="none"/><path d="M10 79 C150 54,172 108,328 110" stroke="#85eed4" fill="none"/><path d="M4 53 C190 30,152 112,338 114" stroke="#72e372" fill="none"/><path d="M3 15 C183 96,166 26,328 43" stroke="#4493e3" fill="none"/><path d="M9 74 C168 79,190 53,340 11" stroke="#e5c461" fill="none"/><path d="M8 109 C161 133,164 63,322 107" stroke="#97e17e" fill="none"/><path d="M14 52 C152 35,173 47,340 68" stroke="#69dd86" fill="none"/><path d="M14 51 C171 57,175 85,335 108" stroke="#9075df" fill="none"/><path d="M18 135 C152 71,162 127,323 17" stroke="#5ea0e2" fill="none"/><path d="M16 22 C186 38,165 42,332 79" stroke="#e1e14b" fill="none"/><path d="M7 66 C166 55,189 138,332 76" stroke="#e16d46" fill="none"/><path d="M20 26 C164 86,164 65,339 127" stroke="#5ee8c5" fill="none"/><path d="M13 15 C173 99,177 22,329 100" stroke="#bae68e" fill="none"/><path d="M12 99 C159 127,163 22,323 28" stroke="#89ebd2" fill="none"/><path d="M4 50 C181 46,183 76,341 16" stroke="#6fdca5" fill="none"/><path d="M13 52 C188 115,183 14,326 123" stroke="#d37fef" fill="none"/><path d="M3 89 C176 26,157 94,337 62" stroke="#7be9ce" fill="none"/><path d="M1 33 C174 138,189 55,337 108" stroke="#70a8df" fill="none"/><path d="M13 6 C169 20,175 48,326 121" stroke="#b57dec" fill="none"/><path d="M7 22 C169 66,160 20,329 45" stroke="#85b5e4" fill="none"/><path d="M2 52 C167 47,157 82,335 37" stroke="#dea367" fill="none"/><path d="M18 83 C174 115,175 120,337 11" stroke="#dd6ea5" fill="none"/><path d="M10 121 C155 55,174 46,339 118" stroke="#b7f07f" fill="none"/><path d="M13 25 C155 68,170 10,325 43" stroke="#e47b95" fill="none"/><path d="M7 66 C185 52,190 103,335 40" stroke="#e84949" fill="none"/><path fill="#91d34f" d="M132.19 67.36L132.20 67.37L132.22 67.38Q126.81 67.29 123.78 65.52L123.78 65.53L123.83 65.57Q127.95 63.24 136.04 56.23L136.07 56.26L136.19 56.38Q137.26 55.93 139.41 54.92L139.42 54.92L139.55 55.05Q137.26 64.84 137.07 75.40L137.04 75.37L137.10 75.43Q136.95 86.03 138.72 96.14L138.63 96.05L138.65 96.07Q135.79 94.80 132.25 94.61L132.32 94.67L132.30 94.66Q132.05 87.71 132.05 80.94L132.09 80.98L132.05 80.94Q132.10 74.16 132.17 67.34ZM131.53 71.06L131.53 95.28L131.56 95.30Q133.50 95.22 135.08 95.53L135.14 95.59L135.20 95.66Q135.30 96.77 135.62 99.05L135.50 98.93L135.68 99.11Q140.40 99.98 144.45 103.71L144.38 103.64L144.46 103.72Q140.32 91.86 140.26 79.47L140.21 79.42L140.12 79.34Q140.12 67.07 143.15 55.06L143.20 55.10L143.17 55.07Q142.19 55.68 139.54 57.51L139.48 57.45L139.59 57.56Q139.86 56.25 140.37 53.72L140.46 53.81L140.40 53.76Q138.26 55.09 135.85 55.72L135.73 55.60L135.83 55.70Q129.44 61.51 122.30 65.31L122.31 65.32L122.38 65.39Q124.64 67.15 128.56 67.72L128.67 67.82L128.65 67.80Q127.47 68.58 125.32 70.35L125.49 70.53L125.46 70.49Q127.81 71.01 131.48 71.01L131.49 71.03Z"/><path fill="#a36adc" d="M273.56 73.65L273.42 73.51L273.57 73.65Q274.76 73.52 277.10 73.26L277.14 73.30L277.17 73.33Q277.13 74.44 277.13 75.51L277.13 75.51L277.19 77.66L277.11 77.58Q275.83 77.68 274.43 77.81L274.30 77.67L274.34 77.72Q272.94 77.77 271.55 77.70L271.62 77.78L271.55 77.71Q266.90 88.04 261.21 95.69L261.20 95.68L261.14 95.62Q256.96 96.68 254.81 97.69L254.88 97.76L254.83 97.72Q261.62 88.19 266.68 77.76L266.64 77.72L262.37 77.82L262.37 77.82Q262.42 75.66 262.23 73.45L262.06 73.27L262.16 73.37Q265.26 73.56 268.67 73.56L268.79 73.68L271.91 67.50L271.97 67.57Q273.44 64.24 275.47 61.58L275.58 61.70L275.57 61.69Q272.98 61.94 270.32 61.94L270.28 61.90L270.30 61.92Q260.22 61.95 253.96 58.28L253.90 58.22L252.82 55.37L252.92 55.48Q252.18 53.91 251.55 52.46L251.70 52.61L251.70 52.61Q258.92 56.99 268.41 57.37L268.42 57.38L268.28 57.24Q276.82 57.62 285.36 54.34L285.46 54.44L285.33 54.31Q285.10 55.09 284.28 56.55L284.28 56.54L284.23 56.50Q278.36 64.53 273.62 73.70ZM286.90 58.79L286.86 58.75L288.64 55.54L288.48 55.38Q286.95 56.24 284.16 57.44L284.21 57.49L284.60 57.06L284.62 57.07Q284.63 56.64 284.82 56.45L284.84 56.48L284.92 56.56Q285.49 55.36 286.69 53.15L286.69 53.14L286.65 53.10Q277.90 56.99 268.35 56.61L268.25 56.51L268.24 56.50Q258.42 56.23 250.51 51.30L250.50 51.28L250.50 51.28Q252.11 54.28 253.50 58.70L253.49 58.70L253.55 58.76Q255.42 59.87 256.75 60.37L256.74 60.36L256.68 60.31Q256.96 60.90 257.72 64.00L257.73 64.01L257.75 64.03Q262.89 66.01 272.05 65.76L272.08 65.79L272.10 65.80Q271.57 66.73 268.28 72.99L268.34 73.04L268.29 73.00Q265.02 73.13 261.73 72.82L261.56 72.65L261.61 72.70Q261.73 74.08 261.73 75.54L261.75 75.56L261.70 78.35L264.61 78.48L264.48 80.69L264.62 80.83Q257.97 92.95 253.35 98.90L253.33 98.87L253.35 98.90Q256.13 97.75 258.85 96.93L258.74 96.83L258.88 96.96Q257.57 98.31 255.29 101.15L255.31 101.17L255.33 101.19Q260.60 99.37 264.64 98.99L264.70 99.05L264.64 99.00Q269.44 92.67 274.63 81.41L274.64 81.42L280.42 81.84L280.49 81.90Q280.19 80.21 280.19 78.69L280.21 78.72L280.18 75.72L280.34 75.87Q279.86 75.84 278.94 75.90L278.86 75.81L278.94 75.89Q278.08 76.02 277.64 76.02L277.56 75.94L277.48 75.86Q277.63 75.82 277.69 75.57L277.68 75.56L277.55 74.99L277.72 75.15Q281.79 66.52 286.91 58.80Z"/><path d="M2 46 C178 91,181 21,337 24" stroke="#dca065" fill="none"/><path d="M19 102 C151 5,158 6,341 4" stroke="#77db56" fill="none"/><path fill="#82e8b5" d="M199.14 76.93L198.95 76.74L199.02 76.81Q195.96 76.60 193.91 78.97L193.91 78.97L194.03 79.09Q191.91 81.39 191.59 84.55L191.50 84.47L191.53 84.50Q191.13 87.88 192.93 89.50L193.07 89.64L193.05 89.62Q194.72 91.10 198.20 90.91L198.20 90.91L198.32 91.03Q201.74 90.72 203.58 89.59L203.55 89.56L203.51 89.52Q205.51 87.79 205.51 85.20L205.42 85.11L205.46 85.15Q205.48 84.54 205.36 83.91L205.33 83.88L205.31 83.86Q205.47 81.11 203.64 78.87L203.59 78.82L203.66 78.89Q201.79 76.61 199.01 76.80ZM198.43 95.38L198.25 95.20L198.43 95.38Q191.17 95.39 188.83 94.12L188.64 93.93L188.77 94.07Q186.93 92.66 186.61 89.82L186.72 89.93L186.68 89.89Q186.64 88.77 186.70 87.57L186.80 87.67L186.79 87.65Q186.81 85.84 186.81 85.08L186.94 85.21L186.88 85.16Q187.66 80.44 187.92 79.30L187.81 79.20L187.92 79.31Q188.62 76.02 190.01 73.68L190.04 73.71L190.00 73.67Q194.45 66.43 204.32 55.87L204.43 55.98L204.42 55.97Q208.68 55.30 212.35 53.98L212.49 54.11L212.47 54.10Q201.03 66.43 195.72 73.45L195.81 73.54L195.84 73.57Q197.34 72.60 199.49 72.60L199.63 72.74L199.51 72.62Q204.98 72.59 207.51 75.81L207.54 75.85L207.66 75.97Q209.70 78.52 210.27 84.40L210.28 84.40L210.35 84.47Q210.49 85.69 210.49 86.70L210.48 86.69L210.51 86.72Q210.43 91.83 206.77 93.60L206.76 93.59L206.78 93.61Q204.73 94.59 198.28 95.23ZM202.17 99.31L202.07 99.21L202.21 99.35Q204.21 99.13 207.50 99.26L207.56 99.33L207.52 99.28Q210.34 99.51 212.94 98.31L212.78 98.16L212.91 98.29Q214.77 96.99 214.77 94.02L214.62 93.87L214.72 93.97Q214.70 93.13 214.42 91.48L214.41 91.47L214.50 91.57Q214.20 89.91 214.20 89.15L214.15 89.10L214.10 89.04Q212.77 81.33 210.11 78.17L210.05 78.11L210.07 78.12Q209.89 77.88 209.64 77.50L209.66 77.53L209.16 77.15L209.09 77.15L209.03 77.09Q208.48 76.28 207.47 74.70L207.39 74.62L207.47 74.70Q205.87 73.04 202.58 72.28L202.55 72.25L202.57 72.27Q204.63 69.65 209.56 63.51L209.57 63.52L216.60 54.75L216.55 54.70Q213.96 56.15 209.97 57.42L210.00 57.44L210.06 57.50Q211.55 55.83 214.52 52.55L214.53 52.56L214.44 52.46Q210.48 54.25 204.03 55.20L204.06 55.23L204.16 55.33Q194.52 64.97 189.58 73.19L189.67 73.28L189.77 73.38Q187.21 77.52 186.26 87.89L186.30 87.92L186.18 87.81Q186.02 88.72 186.15 90.31L186.15 90.30L186.20 90.35Q186.42 93.36 188.26 94.88L188.17 94.79L188.08 94.70Q188.71 94.95 188.64 95.01L188.66 95.03L188.64 95.01Q189.40 96.65 190.72 97.35L190.69 97.31L190.73 97.35Q193.07 98.42 196.29 98.74L196.26 98.71L196.26 98.71Q196.25 98.70 202.07 99.20ZM201.68 80.54L201.85 80.71L201.83 80.69Q202.74 80.47 204.32 81.29L204.23 81.20L204.34 81.31Q204.95 82.93 204.95 84.01L204.76 83.81L204.76 83.82Q205.13 86.97 203.55 88.61L203.66 88.72L203.63 88.69Q201.83 89.86 198.35 90.37L198.30 90.32L198.27 90.28Q195.97 90.39 195.08 89.95L195.07 89.93L195.00 89.87Q194.71 89.13 194.71 88.62L194.74 88.65L194.67 88.59Q194.44 83.29 199.31 81.14L199.14 80.98L199.25 81.08Q200.53 80.53 201.80 80.66Z"/><path d="M18 136 C183 85,185 12,333 15" stroke="#4cdbdb" fill="none"/><path d="M13 93 C160 90,172 102,337 94" stroke="#6cdabe" fill="none"/><path d="M1 129 C159 97,155 5,340 108" stroke="#9e57e4" fill="none"/><path d="M10 4 C189 107,155 34,339 105" stroke="#72e8ca" fill="none"/><path d="M9 31 C166 23,163 36,327 120" stroke="#7be259" fill="none"/><path d="M11 87 C188 42,184 82,332 43" stroke="#e1466d" fill="none"/><path d="M13 92 C164 92,180 96,326 10" stroke="#b7ec82" fill="none"/><path d="M1 46 C181 54,180 2,334 71" stroke="#3838e5" fill="none"/></svg>