<svg xmlns="http://www.w3.org/2000/svg" width="342" height="140" viewBox="0,0,342,140"><path d="M10 30 C179 21,165 51,326 31" stroke="#d076ee" fill="none"/><path d="M9 127 C172 76,187 83,322 27" stroke="#87e169" fill="none"/><path d="M21 127 C181 107,151 63,338 94" stroke="#4ceac2" fill="none"/><path d="M14 74 C183 22,151 135,322 105" stroke="#8ce06f" fill="none"/><path d="M19 112 C161 121,170 63,333 63" stroke="#e93e69" fill="none"/><path d="M19 129 C187 19,183 65,328 24" stroke="#97e87c" fill="none"/><path d="M8 37 C164 20,178 134,332 24" stroke="#b947df" fill="none"/><path d="M6 110 C177 59,160 68,330 65" stroke="#8aefd5" fill="none"/><path fill="#e868a8" d="M272.07 83.03L272.09 83.05L272.17 83.13Q277.09 82.36 282.34 82.55L282.48 82.68L282.36 82.56Q282.28 78.36 282.28 74.42L282.38 74.52L282.29 74.43Q282.44 70.52 282.75 66.32L282.68 66.25L282.74 66.31Q280.70 69.08 272.13 83.09ZM288.29 95.06L288.43 95.20L288.33 95.10Q285.63 94.65 282.69 94.53L282.76 94.60L282.62 94.46Q282.28 90.56 282.09 86.49L282.25 86.65L282.22 86.62Q273.45 86.29 265.70 88.61L265.63 88.54L265.73 88.64Q265.91 87.82 266.22 86.19L266.25 86.22L266.20 86.17Q269.19 81.03 275.07 70.71L274.99 70.63L274.90 70.54Q279.70 62.58 285.33 56.20L285.41 56.28L285.42 56.30Q286.71 55.83 289.46 55.39L289.53 55.46L289.51 55.44Q286.47 66.10 286.47 77.68L286.33 77.54L286.44 77.64Q286.47 80.11 286.60 82.55L286.54 82.50L288.61 82.63L288.62 82.63Q289.60 82.68 290.61 82.87L290.67 82.93L290.72 82.98Q290.87 84.57 291.31 87.76L291.40 87.85L291.32 87.78Q289.35 87.37 286.91 87.06L286.85 87.00L286.82 86.96Q287.29 90.37 288.41 95.19ZM291.21 82.41L291.15 82.35L291.07 82.27Q290.83 82.22 290.52 82.22L290.42 82.12L289.93 82.25L289.90 82.23Q289.74 79.82 289.74 77.50L289.64 77.40L289.74 77.50Q289.67 66.92 293.04 57.04L293.11 57.11L293.07 57.07Q291.75 57.43 289.37 58.06L289.43 58.12L289.44 58.12Q289.80 56.86 290.55 54.55L290.65 54.65L290.51 54.51Q288.48 55.22 285.10 55.60L285.05 55.55L285.06 55.56Q278.52 62.59 269.95 77.98L270.03 78.06L273.39 71.97L273.52 72.10Q272.71 73.66 272.27 74.60L272.38 74.71L265.10 89.57L265.00 89.47Q266.14 89.30 268.02 88.68L267.96 88.62L267.73 89.01L267.65 88.93Q267.50 90.10 267.00 92.16L266.98 92.14L267.07 92.23Q273.82 90.04 281.77 90.36L281.65 90.24L281.70 90.29Q281.82 91.91 282.13 95.16L282.06 95.09L282.14 95.17Q283.92 95.20 285.67 95.39L285.52 95.23L285.57 95.29Q285.85 96.44 286.29 98.69L286.35 98.75L286.34 98.75Q289.44 99.09 294.38 100.59L294.28 100.50L294.32 100.53Q292.75 97.08 291.25 91.70L291.23 91.68L293.64 92.47L293.67 92.50Q294.65 92.73 295.78 93.29L295.85 93.37L295.84 93.36Q294.60 89.30 294.35 86.55L294.27 86.47L294.37 86.57Q293.30 86.19 291.42 85.81L291.43 85.82L291.47 85.86Q291.19 83.83 291.19 82.39ZM277.97 82.06L277.97 82.05L277.93 82.02Q279.16 79.86 281.72 75.67L281.75 75.71L281.76 75.71Q281.72 77.23 281.66 78.80L281.83 78.98L281.66 78.80Q281.66 80.42 281.72 81.99L281.89 82.16L281.77 82.04Q280.85 82.00 279.91 82.00L279.96 82.04L279.91 82.00Q278.89 81.97 277.89 81.97Z"/><path d="M7 56 C164 64,159 30,328 18" stroke="#dd6464" fill="none"/><path d="M11 82 C153 65,152 13,337 139" stroke="#5bb7d6" fill="none"/><path d="M19 101 C187 99,165 122,337 106" stroke="#dd6edd" fill="none"/><path fill="#dd934a" d="M109.59 67.42L109.58 67.40L109.51 67.34Q104.33 67.41 101.33 65.66L101.33 65.66L101.21 65.54Q105.43 63.38 113.44 56.44L113.50 56.50L113.37 56.37Q114.57 56.07 116.70 55.07L116.78 55.15L116.71 55.08Q114.56 64.88 114.38 75.33L114.29 75.24L114.27 75.22Q114.19 85.77 115.94 95.78L116.00 95.84L115.99 95.83Q113.11 94.51 109.61 94.32L109.65 94.36L109.64 94.36Q109.57 87.66 109.57 80.97L109.49 80.89L109.40 80.80Q109.50 74.14 109.56 67.39ZM108.88 71.02L109.02 95.11L108.96 95.05Q111.02 95.11 112.59 95.43L112.40 95.24L112.41 95.25Q112.52 96.36 112.83 98.61L112.93 98.71L112.94 98.72Q117.66 99.62 121.66 103.31L121.62 103.28L121.54 103.20Q117.47 91.49 117.41 79.23L117.39 79.22L117.54 79.37Q117.41 67.11 120.41 55.22L120.44 55.24L120.32 55.13Q119.55 55.92 116.92 57.73L116.82 57.63L116.97 57.78Q117.12 56.37 117.62 53.86L117.76 54.00L117.78 54.03Q115.51 55.19 113.13 55.82L113.17 55.86L113.09 55.78Q106.82 61.58 99.76 65.34L99.76 65.34L99.84 65.42Q102.21 67.29 106.09 67.85L105.98 67.74L106.06 67.82Q104.89 68.60 102.77 70.35L102.88 70.46L102.76 70.34Q105.31 71.08 108.94 71.08L108.94 71.08Z"/><path d="M7 15 C166 30,177 26,341 93" stroke="#74d953" fill="none"/><path d="M7 125 C155 55,178 84,332 81" stroke="#e96caa" fill="none"/><path d="M13 138 C172 22,174 119,323 130" stroke="#4ee8e8" fill="none"/><path d="M5 33 C159 63,183 94,330 59" stroke="#95e57a" fill="none"/><path d="M1 117 C159 92,175 12,325 122" stroke="#ed8787" fill="none"/><path d="M10 74 C187 19,180 125,341 20" stroke="#6584e0" fill="none"/><path d="M15 122 C168 117,163 114,334 64" stroke="#43d98e" fill="none"/><path d="M9 79 C191 74,157 28,324 97" stroke="#efb275" fill="none"/><path d="M16 14 C157 133,169 4,334 39" stroke="#59c7ec" fill="none"/><path d="M5 96 C166 52,165 17,339 136" stroke="#a35de8" fill="none"/><path d="M17 63 C186 48,189 46,339 63" stroke="#45d7d7" fill="none"/><path d="M14 129 C179 136,153 90,321 42" stroke="#97e7ab" fill="none"/><path fill="#58d999" d="M221.96 76.96L221.85 76.85L221.83 76.83Q218.81 76.87 216.80 79.06L216.84 79.09L216.84 79.09Q214.77 81.21 214.52 84.34L214.53 84.35L214.58 84.40Q214.19 87.83 216.19 89.48L216.16 89.45L216.28 89.57Q218.33 91.28 221.83 91.15L221.72 91.03L221.81 91.13Q225.64 90.89 227.20 89.33L227.04 89.17L227.05 89.18Q228.84 86.90 228.65 83.90L228.62 83.87L228.68 83.93Q228.36 80.73 226.58 78.76L226.60 78.79L226.60 78.78Q224.82 76.82 221.82 76.82ZM221.85 61.40L221.83 61.38L221.83 61.38Q219.50 61.17 217.31 61.98L217.25 61.93L217.32 61.99Q215.28 63.40 215.66 66.47L215.61 66.42L215.61 66.41Q216.41 72.53 221.91 72.53L221.88 72.50L221.96 72.58Q224.36 72.73 225.99 70.85L226.09 70.95L226.00 70.87Q227.80 69.16 227.86 66.59L227.81 66.54L227.72 66.46Q227.98 63.71 226.79 62.71L226.76 62.69L226.70 62.62Q224.01 61.31 221.88 61.43ZM221.31 95.07L221.35 95.11L216.42 95.18L216.45 95.22Q213.86 95.12 211.67 93.69L211.76 93.77L211.64 93.65Q209.38 91.77 209.63 87.08L209.70 87.15L209.60 87.05Q210.51 75.96 216.46 74.33L216.31 74.19L216.37 74.24Q212.67 72.79 210.48 63.97L210.47 63.97L210.34 63.84Q209.85 61.60 209.97 60.28L210.05 60.36L209.95 60.25Q210.51 56.81 216.58 56.75L216.54 56.71L216.58 56.76Q223.55 56.65 225.92 56.97L225.96 57.01L225.79 56.83Q232.20 57.80 232.95 61.11L232.86 61.03L233.04 61.20Q233.21 62.19 233.21 62.82L233.18 62.79L233.07 62.67Q233.05 63.78 232.74 64.78L232.88 64.93L232.84 64.88Q231.79 71.78 226.98 74.28L226.95 74.25L227.04 74.35Q232.69 75.55 233.50 84.24L233.65 84.39L233.65 84.39Q233.48 84.48 233.54 86.60L233.62 86.68L233.67 86.73Q233.74 91.18 231.11 92.93L231.17 92.98L231.10 92.92Q228.82 94.32 221.31 95.07ZM225.18 99.00L225.11 98.93L230.72 99.16L230.65 99.09Q233.46 99.22 235.96 98.03L235.93 98.00L235.93 98.00Q237.82 96.82 237.95 93.76L237.88 93.69L238.04 93.85Q237.99 91.92 237.36 88.73L237.30 88.67L237.35 88.72Q235.96 81.20 232.52 78.13L232.38 78.00L232.22 77.52L231.74 76.92L231.55 76.54L231.50 76.49Q234.24 74.29 235.74 67.47L235.73 67.46L235.77 67.50Q235.74 66.85 235.86 65.47L235.84 65.44L235.82 65.43Q235.94 64.30 235.82 63.30L235.89 63.37L235.90 63.38Q235.72 61.08 233.79 60.26L233.67 60.15L233.81 60.23L233.48 60.02L233.36 59.90Q233.11 58.90 231.17 57.59L231.00 57.41L231.15 57.50L231.07 57.43Q227.85 56.33 221.16 56.02L221.24 56.10L221.25 56.11Q218.60 55.84 216.35 56.03L216.38 56.05L216.45 56.12Q215.08 56.13 212.95 56.38L212.89 56.32L212.88 56.31Q209.69 56.93 209.31 59.62L209.38 59.68L209.28 59.58Q209.22 60.40 209.28 61.72L209.34 61.77L209.31 61.74Q209.65 62.78 210.59 66.65L210.45 66.51L210.41 66.47Q211.91 71.97 214.78 74.16L214.65 74.03L214.74 74.12L214.81 74.18Q210.22 76.29 209.34 84.79L209.32 84.77L209.32 84.77Q209.12 88.51 209.12 90.01L209.12 90.01L209.13 90.02Q209.10 92.81 211.04 94.31L211.08 94.34L211.07 94.34Q211.41 94.61 211.85 94.92L211.74 94.81L211.85 94.93Q213.50 98.64 225.20 99.02ZM224.58 80.77L224.51 80.70L224.63 80.82Q225.98 80.54 227.42 81.29L227.49 81.36L227.59 81.46Q228.22 83.09 228.15 83.96L228.15 83.96L228.03 83.84Q228.20 84.45 228.20 84.95L228.18 84.93L228.16 84.90Q228.16 88.78 224.40 90.16L224.37 90.13L224.32 90.07Q223.16 90.73 221.85 90.54L221.69 90.38L221.77 90.46Q219.86 90.56 217.99 89.81L218.07 89.90L218.00 89.82Q217.56 88.76 217.69 87.13L217.72 87.17L217.85 87.30Q217.96 84.53 219.93 82.52L219.90 82.50L219.93 82.52Q221.96 80.59 224.59 80.77ZM224.91 65.15L225.00 65.24L224.87 65.11Q226.25 64.99 227.12 65.24L227.05 65.16L227.12 66.54L227.11 66.53Q227.12 68.86 225.62 70.51L225.54 70.44L225.57 70.47Q224.19 72.24 221.94 71.93L221.98 71.97L221.85 71.85Q220.26 71.88 219.57 71.50L219.59 71.52L219.65 71.58Q219.60 71.16 219.42 70.03L219.28 69.90L219.30 69.92Q218.79 67.53 220.79 66.16L220.85 66.21L220.90 66.26Q222.72 65.21 225.03 65.27Z"/><path fill="#b57ced" d="M171.44 73.51L171.55 73.62L171.52 73.59Q172.74 73.49 175.06 73.24L175.21 73.40L175.21 73.40Q175.04 74.35 175.04 75.42L175.00 75.37L175.14 77.58L174.98 77.42Q173.65 77.46 172.27 77.59L172.36 77.67L172.22 77.53Q170.89 77.65 169.52 77.58L169.46 77.53L169.63 77.69Q164.82 87.71 159.19 95.28L159.32 95.41L159.18 95.27Q155.14 96.42 153.01 97.42L153.02 97.42L153.01 97.41Q159.82 88.09 164.83 77.77L164.83 77.78L160.42 77.68L160.49 77.75Q160.36 75.43 160.17 73.25L160.31 73.38L160.14 73.21Q163.39 73.58 166.77 73.58L166.77 73.59L169.88 67.50L169.92 67.55Q171.46 64.33 173.46 61.70L173.50 61.74L173.47 61.72Q170.91 61.97 168.29 61.97L168.22 61.90L168.32 62.00Q158.38 62.07 152.19 58.44L152.06 58.32L151.13 55.63L151.05 55.55Q150.49 54.18 149.86 52.74L149.87 52.74L149.91 52.79Q157.00 57.06 166.38 57.44L166.47 57.53L166.38 57.43Q174.72 57.71 183.17 54.46L183.17 54.46L183.24 54.54Q182.86 55.16 182.05 56.60L182.18 56.72L182.16 56.71Q176.15 64.45 171.46 73.52ZM184.67 58.84L184.71 58.88L186.35 55.58L186.38 55.61Q184.78 56.38 182.02 57.57L182.15 57.70L182.29 57.02L182.38 57.12Q182.62 56.91 182.80 56.72L182.69 56.61L182.68 56.60Q183.32 55.49 184.51 53.30L184.51 53.30L184.51 53.30Q175.80 57.10 166.36 56.73L166.44 56.81L166.45 56.82Q156.40 56.22 148.59 51.34L148.57 51.33L148.62 51.37Q150.38 54.51 151.75 58.88L151.65 58.78L151.68 58.81Q153.48 59.86 154.79 60.36L154.96 60.53L154.78 60.35Q155.12 61.00 155.87 64.06L155.90 64.09L155.88 64.07Q161.05 66.12 170.12 65.87L170.19 65.94L170.16 65.91Q169.71 66.90 166.46 73.09L166.39 73.02L166.28 72.91Q162.99 73.00 159.74 72.69L159.83 72.77L159.84 72.79Q159.92 74.12 159.92 75.56L159.89 75.53L159.88 78.33L162.69 78.38L162.63 80.64L162.64 80.65Q156.15 92.74 151.59 98.62L151.63 98.66L151.51 98.55Q154.19 97.34 156.87 96.53L156.97 96.62L156.84 96.49Q155.81 98.09 153.56 100.90L153.57 100.92L153.58 100.93Q158.75 99.09 162.75 98.72L162.76 98.73L162.71 98.67Q167.48 92.44 172.61 81.31L172.77 81.46L178.41 81.79L178.37 81.75Q178.22 80.22 178.22 78.72L178.21 78.72L178.27 75.83L178.18 75.74Q177.73 75.73 176.82 75.79L176.82 75.79L176.95 75.91Q175.97 75.91 175.54 75.91L175.47 75.84L175.40 75.78Q175.58 75.77 175.64 75.52L175.57 75.45L175.65 75.09L175.64 75.08Q179.77 66.64 184.84 59.01Z"/><path d="M5 130 C191 63,167 82,332 26" stroke="#e05175" fill="none"/><path d="M3 126 C167 32,178 109,336 25" stroke="#88f188" fill="none"/><path d="M13 12 C163 116,184 68,327 62" stroke="#e566e5" fill="none"/><path d="M8 39 C158 12,172 121,337 115" stroke="#e84e9b" fill="none"/><path d="M16 6 C169 91,152 127,324 120" stroke="#619edb" fill="none"/><path d="M5 56 C191 71,170 40,328 35" stroke="#dede53" fill="none"/><path d="M11 93 C183 129,189 78,330 28" stroke="#94e5e5" fill="none"/><path d="M6 22 C153 33,188 38,332 58" stroke="#db466c" fill="none"/><path d="M20 87 C176 51,186 76,327 96" stroke="#84d5ef" fill="none"/><path d="M19 57 C161 112,162 85,322 11" stroke="#7895ec" fill="none"/><path fill="#e1b283" d="M51.87 76.87L51.92 76.92L51.88 76.87Q48.77 76.83 46.77 79.02L46.78 79.04L46.84 79.10Q44.74 81.18 44.49 84.31L44.64 84.46L44.61 84.43Q44.28 87.92 46.28 89.57L46.26 89.55L46.25 89.54Q48.25 91.19 51.75 91.07L51.80 91.12L51.81 91.13Q55.65 90.91 57.22 89.34L57.20 89.33L57.21 89.33Q58.79 86.85 58.60 83.85L58.68 83.93L58.71 83.95Q58.52 80.90 56.74 78.93L56.61 78.79L56.63 78.81Q54.85 76.85 51.85 76.85ZM51.83 61.38L51.76 61.31L51.72 61.27Q49.58 61.26 47.39 62.07L47.37 62.05L47.35 62.03Q45.29 63.41 45.66 66.47L45.48 66.29L45.47 66.28Q46.40 72.52 51.90 72.52L51.84 72.46L51.85 72.47Q54.49 72.86 56.12 70.98L56.03 70.89L56.17 71.04Q57.65 69.01 57.71 66.44L57.67 66.41L57.79 66.53Q57.92 63.65 56.73 62.65L56.67 62.59L56.61 62.54Q54.01 61.31 51.89 61.44ZM51.37 95.13L51.42 95.18L46.45 95.21L46.30 95.07Q43.93 95.20 41.74 93.76L41.69 93.71L41.75 93.77Q39.41 91.80 39.66 87.11L39.64 87.09L39.74 87.19Q40.40 75.84 46.34 74.22L46.34 74.21L46.46 74.34Q42.60 72.73 40.41 63.91L40.49 63.99L40.52 64.01Q39.87 61.61 39.99 60.30L39.98 60.29L40.06 60.37Q40.59 56.90 46.66 56.83L46.63 56.80L46.50 56.67Q53.61 56.72 55.98 57.03L55.87 56.92L55.84 56.88Q62.25 57.85 63.00 61.16L62.99 61.16L63.04 61.21Q63.23 62.21 63.23 62.83L63.20 62.81L63.17 62.78Q63.17 63.90 62.86 64.90L62.82 64.86L62.73 64.77Q61.81 71.79 56.99 74.29L57.03 74.34L57.04 74.35Q62.85 75.72 63.66 84.41L63.57 84.31L63.64 84.39Q63.49 84.49 63.56 86.61L63.58 86.64L63.59 86.65Q63.68 91.12 61.06 92.87L61.10 92.91L61.13 92.95Q58.89 94.39 51.38 95.14ZM55.12 98.94L55.20 99.03L60.68 99.13L60.62 99.06Q63.47 99.22 65.97 98.03L66.05 98.11L66.05 98.11Q67.79 96.79 67.91 93.72L67.95 93.76L67.91 93.72Q68.07 92.01 67.45 88.82L67.37 88.74L67.33 88.70Q65.83 81.07 62.39 78.00L62.45 78.07L62.17 77.47L61.91 77.09L61.50 76.49L61.60 76.59Q64.26 74.31 65.76 67.49L65.75 67.49L65.79 67.53Q65.82 66.93 65.95 65.55L65.98 65.59L65.88 65.49Q66.04 64.39 65.91 63.39L65.86 63.34L65.93 63.41Q65.67 61.02 63.73 60.20L63.66 60.13L63.77 60.18L63.52 60.06L63.47 60.01Q63.10 58.89 61.16 57.58L61.04 57.45L61.11 57.46L61.18 57.53Q57.98 56.46 51.29 56.15L51.26 56.12L51.11 55.97Q48.63 55.86 46.37 56.05L46.45 56.12L46.42 56.10Q45.04 56.09 42.92 56.34L43.03 56.45L42.87 56.30Q39.78 57.02 39.41 59.71L39.45 59.76L39.42 59.72Q39.36 60.54 39.42 61.85L39.29 61.72L39.44 61.87Q39.47 62.59 40.41 66.47L40.43 66.49L40.49 66.55Q41.83 71.90 44.71 74.09L44.67 74.05L44.74 74.12L44.72 74.09Q40.27 76.34 39.40 84.85L39.45 84.90L39.34 84.79Q39.01 88.40 39.01 89.90L38.99 89.88L39.04 89.93Q39.24 92.95 41.18 94.45L41.21 94.48L41.21 94.47Q41.28 94.48 41.72 94.79L41.71 94.79L41.82 94.90Q43.36 98.50 55.05 98.88ZM54.49 80.68L54.64 80.83L54.64 80.83Q56.15 80.71 57.59 81.46L57.54 81.41L57.59 81.46Q58.12 82.99 58.06 83.87L58.08 83.89L58.14 83.95Q58.14 84.39 58.14 84.89L58.12 84.87L58.17 84.92Q58.05 88.68 54.30 90.05L54.48 90.24L54.39 90.14Q53.15 90.72 51.83 90.53L51.68 90.38L51.80 90.49Q50.04 90.74 48.17 89.99L48.01 89.83L48.14 89.96Q47.64 88.84 47.77 87.21L47.67 87.12L47.74 87.19Q48.01 84.57 49.98 82.57L49.95 82.54L50.02 82.61Q51.97 80.59 54.59 80.78ZM54.89 65.13L54.88 65.11L54.94 65.17Q56.24 64.98 57.12 65.23L57.13 65.25L57.19 66.61L57.22 66.64Q57.06 68.79 55.55 70.45L55.68 70.58L55.62 70.52Q54.08 72.14 51.83 71.82L51.86 71.85L51.93 71.93Q50.18 71.80 49.49 71.42L49.56 71.49L49.66 71.59Q49.52 71.07 49.33 69.95L49.36 69.98L49.27 69.89Q48.82 67.56 50.82 66.18L50.94 66.30L50.90 66.27Q52.68 65.17 55.00 65.24Z"/><path d="M8 45 C167 52,166 22,324 91" stroke="#4141dc" fill="none"/><path d="M13 65 C154 108,190 82,326 96" stroke="#99e849" fill="none"/><path d="M8 135 C156 4,171 20,328 126" stroke="#47dada" fill="none"/><path d="M7 70 C151 120,151 77,331 117" stroke="#ea93bf" fill="none"/><path d="M8 26 C165 35,172 85,323 86" stroke="#e3c25d" fill="none"/><path d="M12 46 C191 20,164 138,330 6" stroke="#51dbdb" fill="none"/><path d="M17 82 C187 16,183 93,332 27" stroke="#59e7c4" fill="none"/></svg>