<svg xmlns="http://www.w3.org/2000/svg" width="342" height="140" viewBox="0,0,342,140"><path d="M14 86 C188 16,170 112,332 118" stroke="#8ae48a" fill="none"/><path d="M2 120 C150 86,175 79,340 74" stroke="#cb6aeb" fill="none"/><path d="M4 138 C192 92,152 61,331 39" stroke="#dc5050" fill="none"/><path d="M13 103 C183 55,175 8,326 132" stroke="#ec73af" fill="none"/><path d="M14 81 C159 126,155 63,329 79" stroke="#ebd183" fill="none"/><path d="M10 134 C181 74,186 129,330 138" stroke="#8cd8f1" fill="none"/><path d="M2 51 C192 134,184 16,340 33" stroke="#92e7bc" fill="none"/><path d="M14 8 C155 98,176 77,329 120" stroke="#c15ee2" fill="none"/><path d="M11 52 C169 21,190 80,334 87" stroke="#e485e4" fill="none"/><path d="M12 68 C185 7,163 23,335 107" stroke="#3ae2b8" fill="none"/><path d="M3 112 C186 22,171 97,329 32" stroke="#6e46e5" fill="none"/><path d="M6 57 C179 30,165 119,337 99" stroke="#6fa8e1" fill="none"/><path d="M14 88 C177 75,167 48,341 54" stroke="#8e3fde" fill="none"/><path d="M2 21 C162 46,182 126,324 100" stroke="#e78787" fill="none"/><path fill="#e45252" d="M62.57 77.76L62.57 77.76L62.57 77.76Q59.12 77.77 56.86 80.25L56.91 80.29L56.79 80.17Q54.57 82.70 54.29 86.23L54.40 86.34L54.30 86.24Q53.96 90.22 56.23 92.09L56.16 92.03L56.21 92.08Q58.45 93.93 62.41 93.79L62.47 93.84L62.40 93.77Q66.71 93.49 68.48 91.72L68.56 91.80L68.53 91.78Q70.49 89.14 70.28 85.75L70.19 85.66L70.23 85.70Q69.94 82.16 67.93 79.93L67.94 79.94L68.02 80.02Q65.99 77.78 62.59 77.78ZM62.61 60.34L62.56 60.28L62.55 60.28Q59.93 60.06 57.46 60.98L57.49 61.01L57.40 60.92Q55.02 62.43 55.44 65.89L55.52 65.97L55.39 65.83Q56.39 72.84 62.61 72.84L62.57 72.80L62.53 72.77Q65.40 73.09 67.24 70.97L67.39 71.12L67.29 71.03Q69.19 68.96 69.26 66.06L69.33 66.13L69.23 66.04Q69.32 62.73 67.98 61.60L68.11 61.73L68.08 61.70Q64.91 60.09 62.51 60.23ZM62.10 98.50L62.01 98.41L56.36 98.42L56.34 98.39Q53.58 98.46 51.11 96.84L51.11 96.83L51.06 96.79Q48.46 94.62 48.75 89.31L48.80 89.37L48.85 89.42Q49.75 76.74 56.46 74.90L56.31 74.75L56.46 74.90Q52.05 73.04 49.58 63.07L49.69 63.18L49.62 63.11Q48.97 60.48 49.11 59.00L49.11 59.00L49.21 59.09Q49.74 55.10 56.60 55.03L56.49 54.91L56.50 54.93Q64.36 54.80 67.04 55.15L67.15 55.26L67.18 55.29Q74.33 56.28 75.17 60.03L75.03 59.88L75.18 60.03Q75.36 61.13 75.36 61.84L75.28 61.76L75.28 61.76Q75.37 63.13 75.02 64.26L74.93 64.17L74.92 64.16Q73.86 72.08 68.41 74.90L68.43 74.92L68.48 74.97Q74.95 76.42 75.87 86.25L75.87 86.25L75.81 86.18Q75.78 86.44 75.85 88.85L75.93 88.93L75.86 88.85Q75.97 93.91 73.00 95.89L73.03 95.92L72.99 95.88Q70.56 97.62 62.07 98.47ZM66.25 102.71L66.35 102.82L72.54 102.92L72.57 102.96Q75.68 103.03 78.51 101.68L78.46 101.63L78.58 101.76Q80.71 100.42 80.85 96.96L80.77 96.87L80.81 96.91Q80.91 94.90 80.20 91.29L80.19 91.28L80.08 91.17Q78.51 82.67 74.62 79.20L74.52 79.10L74.26 78.49L73.81 77.89L73.58 77.46L73.61 77.48Q76.64 74.93 78.34 67.23L78.29 67.18L78.22 67.10Q78.21 66.39 78.35 64.83L78.39 64.88L78.43 64.91Q78.61 63.67 78.46 62.54L78.49 62.56L78.40 62.48Q78.13 59.80 75.94 58.88L76.05 58.99L76.03 58.91L75.60 58.62L75.63 58.65Q75.25 57.42 73.06 55.94L72.96 55.84L72.99 55.79L72.98 55.78Q69.48 54.69 61.91 54.33L61.73 54.15L61.88 54.30Q59.00 54.11 56.45 54.32L56.33 54.20L56.44 54.31Q54.96 54.38 52.55 54.66L52.48 54.58L52.52 54.63Q48.80 55.22 48.38 58.26L48.46 58.34L48.49 58.37Q48.33 59.20 48.40 60.69L48.44 60.72L48.42 60.71Q48.65 61.71 49.71 66.10L49.64 66.03L49.80 66.18Q51.30 72.21 54.55 74.69L54.49 74.62L54.57 74.70L54.67 74.81Q49.53 77.23 48.54 86.84L48.42 86.72L48.42 86.72Q48.07 90.83 48.07 92.52L48.06 92.52L48.08 92.53Q48.16 95.80 50.35 97.50L50.39 97.53L50.37 97.52Q50.74 97.81 51.23 98.16L51.21 98.14L51.12 98.05Q53.08 102.35 66.30 102.77ZM65.58 82.10L65.55 82.08L65.70 82.23Q67.36 82.05 68.98 82.90L68.96 82.88L69.05 82.96Q69.69 84.73 69.62 85.72L69.68 85.79L69.59 85.69Q69.64 86.24 69.64 86.81L69.67 86.84L69.64 86.80Q69.63 91.18 65.39 92.74L65.44 92.79L65.50 92.85Q64.00 93.40 62.51 93.18L62.37 93.03L62.44 93.11Q60.41 93.35 58.29 92.50L58.19 92.40L58.36 92.56Q57.70 91.20 57.84 89.36L57.89 89.41L57.98 89.50Q58.29 86.55 60.51 84.29L60.46 84.23L60.47 84.25Q62.59 81.87 65.55 82.08ZM65.99 64.49L66.12 64.62L66.13 64.63Q67.58 64.38 68.57 64.66L68.57 64.67L68.62 66.20L68.60 66.18Q68.58 68.78 66.88 70.65L66.92 70.69L66.93 70.69Q65.15 72.49 62.61 72.14L62.60 72.13L62.68 72.21Q60.83 72.20 60.05 71.77L59.88 71.61L59.91 71.63Q59.81 71.10 59.59 69.83L59.78 70.02L59.64 69.88Q59.13 67.24 61.39 65.69L61.49 65.79L61.49 65.78Q63.42 64.47 66.04 64.54Z"/><path d="M9 42 C173 86,172 55,326 55" stroke="#79e193" fill="none"/><path fill="#e056bd" d="M145.26 93.93L145.25 93.92L145.36 94.03Q145.80 95.74 146.79 99.49L146.77 99.47L146.89 99.59Q139.10 97.18 130.55 97.67L130.50 97.62L130.51 97.63Q122.00 98.10 114.58 101.78L114.51 101.71L114.45 101.65Q115.03 100.54 115.10 100.68L115.05 100.62L115.04 100.62Q121.94 93.23 129.22 85.03L129.25 85.06L129.17 84.98Q137.43 75.78 139.62 67.08L139.56 67.02L139.69 67.15Q140.49 63.85 138.12 61.66L138.20 61.74L138.08 61.61Q135.79 59.50 132.46 59.78L132.52 59.84L132.34 59.65Q131.84 59.73 131.21 59.73L131.20 59.72L131.24 59.76Q128.31 59.66 125.98 61.36L125.95 61.33L126.03 61.41Q123.54 63.87 123.96 68.82L124.09 68.95L124.04 68.89Q120.77 68.31 118.51 67.46L118.35 67.30L118.36 67.31Q118.10 64.79 117.96 62.11L117.95 62.10L118.02 62.16Q117.81 59.06 118.94 56.93L118.84 56.84L118.93 56.92Q122.32 54.45 128.54 54.45L128.52 54.42L131.69 54.34L131.64 54.29Q135.88 54.36 137.64 54.57L137.78 54.71L137.77 54.69Q145.85 55.49 146.34 60.01L146.21 59.88L146.23 59.91Q146.52 61.11 146.37 62.59L146.26 62.48L146.21 62.43Q146.15 63.64 145.87 64.91L145.90 64.94L145.98 65.03Q142.98 80.12 128.91 92.85L128.90 92.84L128.91 92.85Q131.35 92.39 133.89 92.39L133.90 92.40L134.05 92.55Q139.98 92.47 145.28 93.95ZM144.20 55.26L144.16 55.22L144.30 55.36Q141.18 54.00 138.00 53.86L137.99 53.86L131.70 53.57L131.72 53.60Q123.41 53.06 119.31 55.11L119.33 55.13L119.33 55.14Q117.30 57.63 117.30 61.45L117.35 61.50L117.29 61.44Q117.43 62.85 117.99 68.08L117.97 68.05L118.02 68.10Q118.96 68.48 121.15 69.04L121.19 69.08L121.12 70.92L121.19 70.99Q121.16 71.88 121.30 72.87L121.31 72.87L121.27 72.84Q123.50 72.95 128.10 73.38L128.28 73.55L128.10 73.38Q128.08 72.72 128.08 72.08L128.05 72.05L128.05 72.05Q128.15 68.76 130.41 66.25L130.29 66.13L130.37 66.21Q132.73 63.80 136.05 64.01L136.02 63.97L135.87 63.82Q137.40 64.01 138.81 64.30L138.79 64.27L138.84 64.32Q139.07 65.04 139.21 65.82L139.15 65.77L139.20 65.81Q139.20 66.52 139.06 67.15L139.06 67.16L139.06 67.16Q136.68 75.95 128.48 84.92L128.59 85.04L128.51 84.96Q124.55 89.12 114.44 100.37L114.50 100.42L114.43 100.36Q114.15 101.99 113.52 103.05L113.58 103.11L113.43 102.96Q116.37 101.31 119.20 100.32L119.35 100.48L119.37 100.49Q117.90 101.43 116.14 104.19L116.17 104.22L116.17 104.22Q115.99 104.88 115.77 105.52L115.81 105.56L115.68 105.43Q124.81 101.69 134.99 102.04L135.04 102.10L135.03 102.08Q145.50 102.30 153.99 106.69L153.95 106.65L152.24 102.82L152.10 102.68Q151.00 100.31 150.50 98.82L150.48 98.80L150.39 98.71Q149.07 97.95 146.81 97.18L146.84 97.21L146.87 97.24Q146.66 95.96 145.95 93.42L145.92 93.39L145.77 93.24Q141.78 92.29 137.54 91.94L137.57 91.97L137.43 91.83Q146.23 83.44 149.05 68.10L149.14 68.19L149.43 62.75L149.36 62.68Q149.25 59.39 146.98 58.11L147.04 58.17L147.01 58.21L146.93 58.13Q146.78 57.91 146.64 57.91L146.74 58.01L146.71 57.98Q146.34 56.48 144.29 55.35Z"/><path d="M14 70 C160 93,161 125,326 3" stroke="#7de2c9" fill="none"/><path d="M17 58 C185 51,161 85,335 15" stroke="#eaa993" fill="none"/><path fill="#86dd69" d="M199.64 66.94L199.76 67.07L199.73 67.04Q193.81 67.06 190.42 65.08L190.43 65.09L190.34 65.00Q195.07 62.52 204.12 54.67L204.08 54.63L204.19 54.74Q205.35 54.21 207.76 53.08L207.88 53.20L207.90 53.22Q205.35 64.17 205.13 75.98L205.08 75.93L205.18 76.02Q205.01 87.87 206.99 99.19L206.89 99.09L206.89 99.09Q203.80 97.76 199.84 97.55L199.85 97.56L199.88 97.59Q199.60 89.82 199.60 82.25L199.69 82.34L199.60 82.25Q199.59 74.61 199.66 66.97ZM199.01 71.20L198.95 98.22L199.08 98.35Q201.24 98.24 203.01 98.60L203.04 98.63L202.95 98.54Q203.12 99.84 203.47 102.38L203.45 102.36L203.45 102.36Q208.80 103.40 213.32 107.57L213.46 107.70L213.37 107.61Q208.72 94.34 208.65 80.48L208.60 80.44L208.62 80.46Q208.48 66.60 211.88 53.17L211.90 53.19L212.05 53.34Q211.03 54.09 208.06 56.14L207.97 56.05L207.93 56.01Q208.44 54.75 209.01 51.92L209.00 51.91L208.92 51.84Q206.44 53.24 203.75 53.95L203.69 53.88L203.80 54.00Q196.79 60.64 188.80 64.88L188.78 64.85L188.74 64.82Q191.41 66.92 195.80 67.56L195.85 67.61L195.70 67.46Q194.63 68.58 192.22 70.56L192.13 70.47L192.22 70.56Q194.94 71.23 199.04 71.23L198.97 71.16Z"/><path d="M16 14 C174 118,189 91,339 80" stroke="#d1e692" fill="none"/><path d="M18 110 C170 40,173 35,322 91" stroke="#afeb74" fill="none"/><path d="M8 56 C177 102,170 39,325 3" stroke="#e39b53" fill="none"/><path d="M6 64 C176 18,179 123,323 58" stroke="#96e349" fill="none"/><path d="M11 40 C178 54,167 113,339 106" stroke="#d44368" fill="none"/><path d="M10 111 C180 66,170 117,340 46" stroke="#5be0e0" fill="none"/><path d="M4 33 C161 123,158 67,327 67" stroke="#dada67" fill="none"/><path d="M12 45 C152 114,183 70,335 98" stroke="#609edc" fill="none"/><path d="M18 112 C156 50,165 41,332 29" stroke="#7fe07f" fill="none"/><path d="M2 28 C165 131,185 35,337 101" stroke="#e8a562" fill="none"/><path d="M13 85 C184 62,157 81,325 136" stroke="#6daded" fill="none"/><path fill="#e65076" d="M260.42 98.44L260.43 98.45L260.39 98.40Q257.85 98.62 254.95 97.85L254.97 97.86L254.93 97.82Q252.77 96.23 252.49 93.19L252.33 93.03L252.46 93.16Q252.37 92.79 252.72 87.91L252.72 87.91L252.62 87.81Q254.61 87.54 258.36 86.83L258.33 86.80L258.10 88.34L257.95 88.19Q257.54 91.52 260.15 92.59L260.13 92.56L260.11 92.54Q261.55 93.13 265.44 93.13L265.59 93.29L265.49 93.18Q268.56 93.00 268.91 92.86L268.73 92.68L268.80 92.74Q270.51 92.47 271.85 91.55L271.86 91.56L271.86 91.57Q274.46 89.78 274.11 85.89L274.09 85.88L274.03 85.81Q273.73 81.35 270.52 78.45L270.46 78.39L270.53 78.46Q267.35 75.60 262.75 75.60L262.75 75.60L262.66 75.08L262.83 75.25Q263.50 75.15 265.13 75.01L265.00 74.88L265.01 74.88Q268.67 74.80 271.22 72.50L271.09 72.38L271.09 72.38Q273.65 70.09 273.93 66.63L274.02 66.71L273.91 66.60Q274.05 65.97 274.05 65.34L274.06 65.34L274.06 65.34Q274.09 62.55 271.54 60.85L271.57 60.87L271.67 60.98Q269.29 59.38 266.32 59.59L266.32 59.58L266.27 59.53Q263.88 59.27 261.62 60.04L261.63 60.05L261.63 60.05Q259.00 61.10 258.43 63.22L258.49 63.27L258.46 63.24Q258.10 64.65 258.24 66.07L258.19 66.01L258.24 66.07Q256.23 65.54 252.41 64.20L252.43 64.21L252.39 64.18Q252.04 61.14 252.11 59.58L252.10 59.58L252.22 59.69Q252.27 56.70 254.25 55.43L254.37 55.55L254.40 55.58Q257.02 54.45 259.99 54.45L259.89 54.36L259.96 54.43Q265.82 54.34 271.69 54.84L271.64 54.79L271.69 54.84Q280.99 55.51 280.42 62.51L280.46 62.55L280.58 62.67Q280.35 65.34 279.43 68.24L279.48 68.28L279.36 68.17Q277.69 73.92 273.30 75.61L273.31 75.62L273.28 75.59Q278.20 76.62 279.33 82.84L279.28 82.80L279.31 82.82Q279.70 84.91 279.84 88.66L279.85 88.66L279.95 88.77Q280.29 97.09 271.73 97.94L271.70 97.91L271.72 97.93Q270.21 97.90 260.38 98.40ZM270.20 102.70L270.16 102.66L270.17 102.67Q271.31 102.75 276.61 102.89L276.51 102.79L276.52 102.80Q279.83 103.00 282.87 101.79L282.80 101.72L282.86 101.79Q285.17 100.14 284.82 96.89L284.68 96.75L284.63 96.70Q284.50 94.31 283.94 91.06L283.90 91.02L283.87 90.99Q282.52 82.64 278.91 79.60L278.99 79.68L278.70 79.03L278.52 78.78L278.67 78.93Q281.80 76.12 283.21 67.99L283.23 68.01L283.17 67.95Q283.29 67.15 283.50 65.39L283.52 65.40L283.44 65.32Q283.57 63.89 283.43 62.62L283.49 62.68L283.52 62.71Q283.27 59.64 280.87 58.37L280.80 58.30L280.68 58.31L280.73 58.37Q280.11 56.48 277.99 55.49L278.01 55.50L277.94 55.44Q275.22 54.27 265.67 53.70L265.72 53.75L265.59 53.62Q262.56 53.56 259.59 53.56L259.58 53.55L259.54 53.51Q256.59 53.53 253.76 54.73L253.80 54.77L253.73 54.70Q251.57 56.22 251.57 59.47L251.48 59.38L251.56 59.46Q251.47 58.59 251.96 64.81L251.94 64.79L251.97 64.82Q252.49 64.91 255.53 66.04L255.62 66.13L255.50 66.02Q255.58 67.09 255.51 68.01L255.43 67.93L255.50 68.00Q255.47 68.89 255.54 69.88L255.62 69.95L255.69 70.03Q258.91 70.62 262.66 70.84L262.60 70.78L262.74 70.92Q262.46 67.03 264.51 65.48L264.62 65.58L264.60 65.57Q266.06 64.27 269.80 63.84L269.94 63.98L269.90 63.94Q271.96 63.88 273.02 64.23L272.98 64.19L273.13 64.34Q273.18 64.53 273.25 64.75L273.17 64.66L273.17 65.02L273.40 66.10L273.40 66.09Q273.48 66.53 273.41 66.81L273.25 66.66L273.33 66.73Q273.21 69.94 270.39 72.13L270.37 72.12L270.40 72.14Q268.73 73.87 264.98 74.23L265.02 74.26L264.83 74.07Q263.53 74.40 261.91 74.40L261.97 74.46L262.03 74.52Q262.00 75.06 262.28 76.33L262.22 76.26L262.30 76.35Q265.49 76.28 268.17 77.63L268.22 77.68L268.04 77.70L265.19 78.10L265.24 78.16Q265.27 78.76 265.48 79.89L265.52 79.92L265.36 79.76Q269.34 79.65 272.53 82.12L272.66 82.25L272.60 82.20Q272.98 82.85 273.54 85.90L273.64 86.00L273.52 85.87Q273.99 91.43 268.54 92.21L268.42 92.08L268.54 92.21Q264.54 92.59 263.48 92.52L263.50 92.54L263.48 92.52Q262.72 92.40 261.73 92.26L261.63 92.15L261.63 91.31L261.83 90.45L262.02 89.86L262.10 89.30L262.04 89.24Q260.23 89.34 258.74 89.69L258.78 89.73L258.72 89.67Q258.64 89.23 258.64 88.88L258.67 88.91L258.73 88.97Q258.77 88.58 258.77 88.16L258.70 88.09L258.87 88.26Q258.93 87.47 259.21 86.13L259.23 86.14L259.14 86.06Q255.58 86.39 252.12 87.03L252.12 87.03L252.11 87.01Q252.21 88.04 252.00 90.12L252.02 90.14L251.91 90.04Q251.81 92.23 251.81 93.36L251.84 93.39L251.71 93.26Q251.85 97.08 254.39 98.49L254.48 98.58L254.46 98.56Q257.22 102.80 265.99 102.45L265.93 102.40L266.08 102.54Q267.31 102.36 270.14 102.64Z"/><path d="M3 112 C161 79,184 60,337 79" stroke="#597be2" fill="none"/><path d="M13 41 C167 116,166 6,337 129" stroke="#bc3be6" fill="none"/><path d="M4 29 C173 96,192 109,321 113" stroke="#99ec7d" fill="none"/><path d="M13 58 C186 123,185 25,340 122" stroke="#e381e3" fill="none"/><path d="M4 3 C190 132,161 74,332 117" stroke="#b57dec" fill="none"/><path d="M18 60 C155 69,156 22,326 16" stroke="#e68c31" fill="none"/><path d="M2 19 C158 100,184 9,329 15" stroke="#8eeabc" fill="none"/><path d="M14 5 C159 92,153 36,324 100" stroke="#d28e4b" fill="none"/><path d="M21 134 C154 119,167 74,324 31" stroke="#dd6ec1" fill="none"/><path d="M9 88 C160 69,168 40,338 64" stroke="#b283e1" fill="none"/><path d="M10 5 C155 43,152 22,338 74" stroke="#73eccd" fill="none"/><path d="M14 91 C152 72,167 16,333 71" stroke="#e45c7e" fill="none"/></svg>