<svg xmlns="http://www.w3.org/2000/svg" width="342" height="140" viewBox="0,0,342,140"><path d="M5 26 C151 61,169 23,340 31" stroke="#de486e" fill="none"/><path d="M11 67 C163 121,153 54,322 49" stroke="#7d59e7" fill="none"/><path d="M7 67 C180 40,177 35,322 105" stroke="#6fe0c4" fill="none"/><path d="M19 31 C154 48,174 106,327 81" stroke="#6c6cde" fill="none"/><path d="M17 37 C181 137,152 46,328 109" stroke="#4b6ed7" fill="none"/><path d="M10 129 C166 100,162 72,326 57" stroke="#42ea42" fill="none"/><path d="M2 12 C152 11,151 18,338 134" stroke="#4e71d9" fill="none"/><path d="M9 35 C163 69,154 30,321 14" stroke="#dd54dd" fill="none"/><path fill="#d281ed" d="M122.17 92.66L122.04 92.53L122.06 92.55Q122.60 94.29 123.53 97.82L123.47 97.75L123.50 97.79Q116.09 95.44 108.03 95.91L108.13 96.01L108.03 95.91Q100.17 96.51 93.17 99.97L93.12 99.92L93.09 99.89Q93.61 98.81 93.68 98.95L93.64 98.90L93.60 98.87Q100.12 91.93 106.98 84.20L107.02 84.24L106.89 84.11Q114.61 75.38 116.68 67.18L116.80 67.30L116.80 67.30Q117.50 64.14 115.27 62.07L115.32 62.12L115.30 62.11Q113.16 60.13 110.03 60.40L110.05 60.42L110.05 60.42Q109.36 60.26 108.76 60.26L108.73 60.23L108.70 60.21Q106.12 60.29 103.92 61.89L103.84 61.81L103.85 61.81Q101.59 64.22 101.99 68.88L101.96 68.85L102.05 68.94Q98.88 68.31 96.75 67.51L96.71 67.46L96.81 67.57Q96.42 65.05 96.29 62.52L96.30 62.53L96.27 62.49Q96.11 59.60 97.17 57.60L97.28 57.71L97.25 57.68Q100.41 55.31 106.27 55.31L106.19 55.23L109.38 55.36L109.21 55.19Q113.27 55.31 114.93 55.51L114.96 55.54L114.98 55.55Q122.55 56.26 123.01 60.53L122.99 60.50L122.95 60.46Q123.18 61.56 123.05 62.96L123.03 62.94L122.94 62.85Q122.97 64.08 122.70 65.27L122.75 65.33L122.64 65.21Q119.92 79.55 106.66 91.54L106.58 91.46L106.62 91.50Q108.96 91.10 111.35 91.10L111.42 91.17L111.39 91.15Q117.12 91.21 122.12 92.61ZM121.03 56.08L121.01 56.06L121.17 56.22Q118.22 54.94 115.23 54.81L115.32 54.90L109.33 54.57L109.27 54.51Q101.58 54.15 97.71 56.08L97.60 55.96L97.60 55.96Q95.87 58.50 95.87 62.10L95.76 61.99L95.80 62.03Q95.93 63.36 96.46 68.29L96.29 68.11L96.42 68.24Q97.40 68.69 99.46 69.22L99.40 69.16L99.37 70.92L99.34 70.89Q99.22 71.64 99.35 72.58L99.41 72.63L99.54 72.76Q101.72 72.94 106.05 73.34L105.88 73.17L106.05 73.35Q105.86 72.55 105.86 71.95L105.87 71.97L105.81 71.91Q105.85 68.75 107.98 66.38L107.97 66.37L108.11 66.51Q110.15 64.05 113.28 64.25L113.24 64.21L113.27 64.24Q114.56 64.26 115.89 64.53L116.00 64.64L115.96 64.60Q116.26 65.37 116.40 66.10L116.35 66.06L116.33 66.04Q116.35 66.72 116.22 67.32L116.26 67.36L116.33 67.43Q113.94 75.57 106.21 84.03L106.28 84.10L106.36 84.18Q102.49 87.97 92.96 98.56L93.02 98.62L93.08 98.68Q92.81 100.21 92.21 101.21L92.20 101.19L92.20 101.19Q94.84 99.51 97.51 98.58L97.50 98.56L97.57 98.64Q96.31 99.65 94.65 102.25L94.55 102.15L94.73 102.33Q94.42 102.82 94.22 103.42L94.20 103.40L94.27 103.47Q102.83 99.90 112.42 100.23L112.45 100.27L112.30 100.11Q122.32 100.47 130.32 104.60L130.37 104.66L128.57 100.86L128.60 100.89Q127.44 98.53 126.97 97.13L127.05 97.21L126.99 97.14Q125.63 96.32 123.50 95.59L123.56 95.65L123.51 95.60Q123.27 94.36 122.60 91.96L122.68 92.04L122.61 91.97Q118.82 91.04 114.82 90.70L114.79 90.68L114.71 90.60Q123.00 82.70 125.66 68.24L125.60 68.18L125.97 63.15L126.05 63.23Q125.91 60.09 123.78 58.89L123.62 58.74L123.56 58.74L123.61 58.79Q123.55 58.67 123.42 58.67L123.43 58.68L123.49 58.74Q122.93 57.12 121.00 56.05Z"/><path d="M17 56 C158 30,157 131,334 87" stroke="#5f9edd" fill="none"/><path d="M7 35 C165 9,163 45,339 138" stroke="#e19850" fill="none"/><path d="M3 36 C160 105,181 82,329 45" stroke="#bbdd54" fill="none"/><path d="M13 75 C162 47,182 9,325 73" stroke="#e98fe9" fill="none"/><path d="M8 2 C188 45,180 128,324 36" stroke="#9b7fef" fill="none"/><path d="M6 75 C167 83,160 106,340 91" stroke="#c9e575" fill="none"/><path d="M5 77 C170 129,180 46,323 31" stroke="#81e8b5" fill="none"/><path d="M4 44 C183 79,192 80,336 70" stroke="#71ade9" fill="none"/><path d="M19 24 C182 22,164 99,334 96" stroke="#df6b88" fill="none"/><path d="M8 66 C155 13,191 74,321 100" stroke="#e5673c" fill="none"/><path fill="#62e884" d="M51.57 77.33L51.59 77.35L51.50 77.25Q48.35 77.38 46.22 79.71L46.17 79.66L46.25 79.74Q43.96 81.91 43.69 85.24L43.83 85.37L43.73 85.28Q43.38 88.99 45.51 90.75L45.55 90.79L45.55 90.79Q47.77 92.65 51.50 92.51L51.39 92.41L51.45 92.46Q55.44 92.12 57.10 90.46L57.13 90.48L57.10 90.45Q58.92 87.95 58.73 84.75L58.84 84.86L58.79 84.81Q58.51 81.47 56.61 79.37L56.60 79.36L56.70 79.46Q54.75 77.31 51.55 77.31ZM51.52 60.82L51.50 60.81L51.48 60.79Q49.08 60.65 46.75 61.51L46.76 61.53L46.68 61.44Q44.39 62.82 44.79 66.08L44.77 66.06L44.89 66.19Q45.79 72.75 51.65 72.75L51.47 72.57L51.60 72.69Q54.25 72.95 55.99 70.95L56.08 71.05L55.97 70.94Q57.82 69.06 57.89 66.33L57.90 66.34L57.79 66.22Q58.03 63.26 56.76 62.20L56.63 62.07L56.68 62.12Q53.80 60.71 51.54 60.84ZM51.09 96.83L50.95 96.70L45.71 96.79L45.79 96.87Q43.02 96.76 40.69 95.23L40.65 95.19L40.74 95.28Q38.34 93.28 38.61 88.28L38.54 88.22L38.59 88.26Q39.30 76.18 45.63 74.45L45.76 74.58L45.71 74.53Q41.62 72.84 39.28 63.44L39.37 63.53L39.30 63.46Q38.85 61.14 38.98 59.74L38.93 59.69L38.98 59.74Q39.43 55.93 45.89 55.86L45.92 55.89L45.96 55.93Q53.34 55.78 55.88 56.12L55.90 56.15L55.81 56.05Q62.65 57.10 63.45 60.63L63.32 60.50L63.38 60.56Q63.55 61.59 63.55 62.26L63.61 62.32L63.52 62.23Q63.48 63.39 63.15 64.46L63.31 64.62L63.29 64.60Q62.19 71.96 57.06 74.62L56.97 74.53L56.95 74.51Q63.19 76.03 64.06 85.29L64.08 85.31L64.10 85.33Q63.93 85.43 64.00 87.69L64.10 87.80L64.19 87.88Q64.25 92.61 61.45 94.47L61.36 94.38L61.38 94.40Q58.95 95.90 50.95 96.70ZM54.99 100.81L55.12 100.93L60.86 100.95L60.93 101.01Q63.92 101.14 66.59 99.87L66.56 99.85L66.56 99.85Q68.62 98.64 68.75 95.38L68.65 95.27L68.74 95.36Q68.72 93.35 68.06 89.95L68.14 90.03L68.06 89.95Q66.59 81.95 62.92 78.69L62.91 78.68L62.42 77.85L62.14 77.44L61.85 76.95L61.88 76.98Q64.73 74.57 66.33 67.30L66.27 67.24L66.26 67.24Q66.37 66.68 66.51 65.22L66.44 65.15L66.50 65.21Q66.59 63.97 66.46 62.90L66.50 62.95L66.51 62.95Q66.26 60.44 64.19 59.57L64.16 59.53L64.20 59.51L63.98 59.42L63.88 59.32Q63.45 58.10 61.39 56.70L61.28 56.59L61.48 56.73L61.49 56.73Q57.93 55.44 50.80 55.11L50.85 55.16L50.90 55.21Q48.12 54.95 45.72 55.15L45.67 55.11L45.62 55.06Q44.26 55.16 41.99 55.42L41.99 55.42L42.08 55.52Q38.72 56.22 38.32 59.08L38.23 58.99L38.16 58.92Q38.11 59.81 38.18 61.21L38.22 61.25L38.21 61.24Q38.41 62.17 39.41 66.30L39.53 66.42L39.44 66.33Q40.78 71.93 43.84 74.26L43.97 74.39L44.08 74.51L44.12 74.54Q39.21 76.76 38.28 85.82L38.20 85.74L38.33 85.88Q37.96 89.70 37.96 91.30L37.82 91.16L37.94 91.28Q37.98 94.31 40.04 95.91L40.08 95.95L40.09 95.96Q40.36 96.16 40.83 96.50L40.74 96.42L40.79 96.46Q42.62 100.49 55.08 100.89ZM54.41 81.43L54.47 81.49L54.46 81.48Q55.97 81.26 57.50 82.06L57.66 82.22L57.58 82.14Q58.16 83.78 58.09 84.72L58.09 84.72L58.11 84.74Q58.18 85.27 58.18 85.80L58.24 85.86L58.25 85.88Q58.24 90.00 54.24 91.46L54.15 91.37L54.22 91.43Q52.92 92.07 51.52 91.87L51.38 91.73L51.46 91.81Q49.56 92.04 47.56 91.24L47.43 91.11L47.46 91.14Q47.05 90.06 47.18 88.33L47.19 88.34L47.17 88.32Q47.50 85.59 49.60 83.45L49.58 83.44L49.61 83.46Q51.65 81.28 54.45 81.48ZM54.84 64.88L54.77 64.81L54.89 64.93Q56.26 64.69 57.19 64.96L57.24 65.01L57.15 66.32L57.26 66.43Q57.19 68.82 55.59 70.59L55.62 70.62L55.47 70.47Q53.92 72.28 51.52 71.95L51.62 72.05L51.49 71.92Q49.87 72.03 49.13 71.63L49.20 71.70L49.20 71.70Q49.03 71.13 48.83 69.93L48.89 69.98L48.82 69.92Q48.47 67.57 50.60 66.10L50.59 66.09L50.45 65.95Q52.44 64.88 54.91 64.95Z"/><path d="M10 109 C179 74,150 112,334 86" stroke="#68edcc" fill="none"/><path d="M18 136 C179 65,182 27,335 17" stroke="#5f80e1" fill="none"/><path fill="#cce57f" d="M271.37 83.92L271.45 84.00L271.30 83.85Q276.77 83.25 282.36 83.45L282.39 83.48L282.46 83.55Q282.32 79.02 282.32 74.82L282.22 74.72L282.20 74.70Q282.31 70.48 282.64 66.01L282.57 65.94L282.58 65.95Q280.45 68.95 271.32 83.87ZM288.79 96.87L288.63 96.72L288.65 96.73Q285.77 96.26 282.64 96.12L282.70 96.19L282.59 96.07Q282.32 92.00 282.12 87.67L282.14 87.69L282.03 87.58Q272.85 87.40 264.59 89.87L264.59 89.86L264.58 89.85Q264.80 89.00 265.13 87.27L264.96 87.10L265.12 87.26Q268.15 81.63 274.41 70.63L274.35 70.58L274.38 70.61Q279.59 62.22 285.58 55.43L285.50 55.35L285.48 55.32Q286.94 54.92 289.87 54.45L290.06 54.64L290.02 54.60Q286.63 65.80 286.63 78.12L286.63 78.13L286.67 78.17Q286.58 80.67 286.71 83.27L286.85 83.41L289.02 83.52L288.99 83.48Q290.18 83.67 291.24 83.87L291.15 83.78L291.18 83.81Q291.27 85.43 291.74 88.83L291.90 89.00L291.83 88.92Q289.75 88.51 287.15 88.17L287.01 88.03L287.15 88.17Q287.55 91.71 288.75 96.84ZM291.71 83.20L291.72 83.22L291.67 83.17Q291.24 82.94 290.91 82.94L290.93 82.96L290.24 82.94L290.29 82.98Q290.10 80.39 290.10 77.93L290.13 77.96L290.17 78.00Q290.14 66.78 293.74 56.25L293.74 56.25L293.68 56.20Q292.28 56.60 289.75 57.26L289.91 57.42L289.85 57.36Q290.32 56.10 291.12 53.63L291.05 53.56L291.03 53.54Q288.86 54.31 285.26 54.71L285.16 54.61L285.20 54.65Q278.38 62.28 269.25 78.67L269.12 78.54L272.85 72.21L272.87 72.23Q272.15 74.04 271.68 75.04L271.72 75.08L263.85 90.79L263.76 90.70Q264.88 90.42 266.88 89.76L267.01 89.88L266.71 90.26L266.79 90.33Q266.53 91.47 265.99 93.67L266.06 93.73L265.89 93.56Q273.21 91.36 281.67 91.69L281.54 91.55L281.66 91.68Q281.66 93.28 282.00 96.74L282.07 96.81L282.13 96.88Q283.82 96.70 285.69 96.90L285.73 96.95L285.69 96.90Q285.98 98.13 286.45 100.53L286.58 100.66L286.45 100.53Q289.74 100.89 295.01 102.49L295.09 102.57L295.05 102.53Q293.32 98.81 291.72 93.08L291.85 93.21L294.24 93.86L294.39 94.01Q295.40 94.22 296.60 94.82L296.63 94.85L296.76 94.99Q295.21 90.43 294.94 87.50L295.08 87.64L295.06 87.62Q293.97 87.27 291.98 86.87L292.04 86.93L292.12 87.02Q291.65 84.68 291.65 83.15ZM277.73 82.95L277.66 82.88L277.54 82.76Q278.88 80.50 281.61 76.04L281.75 76.18L281.61 76.04Q281.74 77.83 281.67 79.49L281.72 79.54L281.65 79.48Q281.60 81.15 281.66 82.82L281.78 82.93L281.61 82.76Q280.61 82.70 279.61 82.70L279.71 82.80L279.66 82.75Q278.73 82.89 277.67 82.89Z"/><path fill="#e141b9" d="M178.67 92.50L178.78 92.60L178.75 92.58Q179.21 94.23 180.14 97.76L180.26 97.88L180.26 97.88Q172.86 95.54 164.80 96.01L164.82 96.03L164.78 95.99Q156.70 96.38 149.71 99.84L149.78 99.91L149.79 99.92Q150.17 98.70 150.24 98.84L150.31 98.91L150.29 98.89Q156.81 91.96 163.67 84.23L163.71 84.27L163.66 84.22Q171.44 75.53 173.50 67.34L173.43 67.27L173.34 67.18Q174.27 64.25 172.04 62.18L172.03 62.17L172.02 62.16Q169.72 60.03 166.59 60.29L166.54 60.24L166.65 60.35Q166.05 60.28 165.45 60.28L165.44 60.28L165.44 60.27Q162.70 60.20 160.50 61.80L160.56 61.85L160.53 61.83Q158.38 64.34 158.78 69.01L158.64 68.87L158.62 68.85Q155.54 68.30 153.41 67.50L153.42 67.51L153.47 67.56Q153.20 65.16 153.07 62.63L153.07 62.63L152.99 62.55Q152.86 59.69 153.93 57.69L154.00 57.76L153.91 57.68Q157.11 55.34 162.97 55.34L162.85 55.22L165.90 55.21L165.89 55.20Q169.98 55.35 171.64 55.55L171.72 55.63L171.70 55.61Q179.17 56.22 179.64 60.49L179.79 60.64L179.78 60.63Q179.85 61.57 179.72 62.97L179.61 62.85L179.66 62.90Q179.60 64.05 179.33 65.24L179.41 65.32L179.28 65.19Q176.40 79.37 163.14 91.36L163.15 91.36L163.15 91.37Q165.64 91.12 168.04 91.12L168.19 91.28L168.11 91.19Q173.69 91.11 178.68 92.51ZM177.70 56.08L177.70 56.08L177.83 56.21Q175.05 55.10 172.05 54.96L171.88 54.79L165.95 54.52L165.97 54.54Q158.12 54.02 154.26 55.96L154.27 55.96L154.37 56.07Q152.50 58.46 152.50 62.06L152.35 61.91L152.54 62.10Q152.60 63.36 153.13 68.29L153.01 68.17L153.06 68.22Q153.95 68.57 156.01 69.10L155.98 69.07L155.98 70.87L156.09 70.98Q156.02 71.78 156.15 72.71L156.13 72.68L156.11 72.67Q158.21 72.77 162.54 73.17L162.54 73.17L162.71 73.34Q162.60 72.63 162.60 72.03L162.52 71.94L162.48 71.91Q162.55 68.78 164.68 66.41L164.70 66.43L164.61 66.35Q166.74 63.98 169.87 64.18L169.96 64.27L170.00 64.30Q171.36 64.40 172.69 64.66L172.62 64.59L172.61 64.58Q172.75 65.19 172.89 65.92L172.89 65.92L172.98 66.02Q173.08 66.79 172.95 67.39L172.89 67.32L172.96 67.40Q170.62 75.58 162.89 84.04L162.97 84.13L162.91 84.06Q159.27 88.08 149.74 98.68L149.70 98.64L149.79 98.72Q149.34 100.08 148.74 101.07L148.69 101.02L148.69 101.02Q151.56 99.56 154.22 98.63L154.21 98.61L154.15 98.55Q152.97 99.63 151.30 102.23L151.30 102.23L151.27 102.20Q151.20 102.94 151.01 103.54L150.99 103.53L150.95 103.48Q159.38 99.78 168.97 100.12L168.96 100.10L169.03 100.18Q178.86 100.35 186.86 104.48L186.98 104.60L185.32 100.94L185.15 100.78Q184.18 98.60 183.71 97.20L183.70 97.19L183.55 97.04Q182.32 96.34 180.19 95.61L180.27 95.70L180.18 95.60Q180.03 94.46 179.37 92.06L179.34 92.04L179.30 92.00Q175.44 91.00 171.45 90.67L171.47 90.69L171.40 90.62Q179.61 82.64 182.28 68.19L182.31 68.22L182.53 63.04L182.70 63.22Q182.50 60.02 180.37 58.82L180.44 58.89L180.27 58.78L180.28 58.79Q180.27 58.72 180.14 58.72L180.15 58.73L180.03 58.61Q179.76 57.27 177.82 56.20Z"/><path d="M9 52 C187 104,188 78,325 110" stroke="#9b59dd" fill="none"/><path d="M9 14 C151 85,190 27,338 24" stroke="#e87c97" fill="none"/><path d="M8 90 C173 33,156 129,324 6" stroke="#ea7aea" fill="none"/><path d="M14 43 C181 28,164 46,335 82" stroke="#94df7a" fill="none"/><path d="M18 131 C171 124,152 47,340 130" stroke="#64dd64" fill="none"/><path d="M10 84 C184 27,163 85,330 15" stroke="#e344bb" fill="none"/><path d="M9 56 C179 121,189 57,331 7" stroke="#76ade4" fill="none"/><path d="M9 64 C177 69,162 116,322 115" stroke="#ea8a6a" fill="none"/><path d="M4 101 C167 106,184 97,340 42" stroke="#eb7ed0" fill="none"/><path d="M18 91 C174 56,182 118,328 131" stroke="#dd934a" fill="none"/><path d="M20 87 C181 55,157 86,336 28" stroke="#8b6ce9" fill="none"/><path d="M2 105 C154 127,168 76,333 41" stroke="#96d3e8" fill="none"/><path d="M12 86 C163 55,150 95,341 107" stroke="#ade575" fill="none"/><path d="M3 26 C183 26,170 91,333 109" stroke="#60e6e6" fill="none"/><path d="M16 75 C174 62,181 35,335 39" stroke="#eba58d" fill="none"/><path d="M7 97 C155 72,166 111,329 135" stroke="#8060e0" fill="none"/><path d="M12 100 C167 105,174 58,332 100" stroke="#49e3bd" fill="none"/><path d="M9 68 C150 41,154 18,331 8" stroke="#cde28c" fill="none"/><path d="M2 121 C151 84,157 76,321 81" stroke="#d96d48" fill="none"/><path d="M14 118 C181 107,160 24,337 91" stroke="#e6378e" fill="none"/><path fill="#efa78f" d="M215.77 96.81L215.72 96.76L215.82 96.87Q213.31 96.95 210.58 96.22L210.56 96.20L210.52 96.15Q208.44 94.61 208.17 91.75L208.27 91.84L208.26 91.83Q208.17 91.48 208.50 86.88L208.47 86.85L208.55 86.93Q210.31 86.56 213.84 85.89L213.75 85.80L213.39 87.10L213.50 87.21Q212.98 90.23 215.45 91.23L215.43 91.21L215.42 91.20Q216.97 91.95 220.63 91.95L220.53 91.84L220.48 91.79Q223.36 91.61 223.70 91.48L223.60 91.38L223.73 91.51Q225.19 91.11 226.46 90.24L226.62 90.41L226.62 90.41Q228.96 88.61 228.62 84.95L228.77 85.09L228.74 85.06Q228.27 80.66 225.23 77.93L225.22 77.91L225.33 78.02Q222.29 75.28 217.96 75.28L217.88 75.21L218.00 74.93L217.86 74.78Q218.64 74.84 220.18 74.70L220.13 74.66L220.14 74.66Q223.47 74.47 225.87 72.30L225.81 72.24L225.82 72.26Q228.22 70.08 228.48 66.82L228.46 66.79L228.46 66.80Q228.61 66.21 228.61 65.61L228.60 65.60L228.59 65.60Q228.74 63.08 226.35 61.48L226.17 61.31L226.32 61.46Q224.10 59.98 221.31 60.18L221.25 60.12L221.37 60.24Q219.12 59.98 216.98 60.72L216.94 60.67L216.91 60.64Q214.50 61.70 213.97 63.69L213.95 63.68L213.89 63.62Q213.45 64.85 213.59 66.18L213.61 66.20L213.74 66.33Q211.84 65.83 208.24 64.57L208.38 64.70L208.25 64.57Q207.94 61.73 208.00 60.26L208.03 60.29L207.90 60.16Q208.12 57.52 209.99 56.32L209.95 56.28L209.94 56.27Q212.55 55.35 215.34 55.35L215.22 55.22L215.20 55.21Q220.79 55.20 226.32 55.66L226.42 55.76L226.34 55.68Q235.10 56.31 234.57 62.91L234.58 62.92L234.70 63.04Q234.45 65.52 233.58 68.26L233.72 68.39L233.76 68.43Q232.02 73.69 227.89 75.29L227.94 75.34L227.91 75.30Q232.63 76.36 233.69 82.22L233.62 82.15L233.56 82.09Q233.97 84.10 234.10 87.63L234.17 87.70L234.17 87.70Q234.39 95.44 226.32 96.24L226.28 96.20L226.26 96.17Q224.98 96.29 215.72 96.76ZM224.86 100.71L224.87 100.72L225.02 100.86Q225.96 100.81 230.96 100.94L230.99 100.97L231.08 101.07Q234.09 101.14 236.95 100.01L236.85 99.91L236.90 99.95Q239.00 98.33 238.67 95.26L238.74 95.33L238.66 95.25Q238.51 92.97 237.97 89.90L237.87 89.80L237.97 89.89Q236.69 82.02 233.29 79.16L233.31 79.18L233.01 78.54L232.77 78.23L232.94 78.40Q235.89 75.76 237.22 68.10L237.25 68.12L237.32 68.19Q237.26 67.27 237.46 65.60L237.60 65.74L237.62 65.76Q237.66 64.34 237.53 63.14L237.53 63.14L237.60 63.21Q237.18 60.13 234.92 58.93L234.96 58.97L234.78 58.92L234.93 59.08Q234.40 57.35 232.40 56.42L232.30 56.31L232.38 56.40Q229.59 55.07 220.59 54.53L220.63 54.57L220.71 54.65Q217.67 54.41 214.88 54.41L214.86 54.39L214.91 54.44Q212.22 54.55 209.55 55.68L209.43 55.56L209.39 55.52Q207.27 56.87 207.27 59.93L207.25 59.91L207.41 60.07Q207.41 59.34 207.88 65.20L207.80 65.12L207.90 65.23Q208.44 65.36 211.30 66.43L211.21 66.33L211.27 66.40Q211.14 67.20 211.08 68.07L211.14 68.13L211.12 68.11Q211.07 68.93 211.14 69.86L211.29 70.01L211.15 69.87Q214.30 70.55 217.83 70.75L217.97 70.89L217.80 70.73Q217.69 67.22 219.62 65.75L219.76 65.89L219.68 65.81Q221.08 64.61 224.61 64.21L224.73 64.33L224.67 64.27Q226.74 64.34 227.74 64.67L227.65 64.59L227.66 64.60Q227.67 64.74 227.74 64.94L227.81 65.02L227.80 65.33L227.91 66.25L228.05 66.39Q228.02 66.69 227.96 66.96L227.96 66.96L227.91 66.91Q227.77 69.91 225.11 71.97L225.15 72.02L225.16 72.03Q223.44 73.51 219.91 73.84L220.02 73.95L219.96 73.89Q218.66 74.11 217.12 74.11L217.18 74.17L217.26 74.25Q217.37 74.89 217.63 76.09L217.56 76.02L217.49 75.95Q220.60 75.99 223.13 77.26L223.09 77.21L223.03 77.35L220.19 77.58L220.21 77.60Q220.23 78.16 220.43 79.22L220.48 79.27L220.48 79.27Q224.12 79.04 227.11 81.37L227.26 81.52L227.24 81.50Q227.69 82.21 228.22 85.08L228.09 84.95L228.05 84.90Q228.43 90.08 223.30 90.81L223.28 90.80L223.29 90.81Q219.65 91.30 218.66 91.24L218.77 91.35L218.70 91.28Q217.89 91.07 216.95 90.93L216.97 90.95L216.90 90.08L217.04 89.22L217.26 88.71L217.24 88.08L217.26 88.11Q215.51 88.16 214.11 88.49L214.22 88.60L214.12 88.49Q214.21 88.25 214.21 87.92L214.05 87.77L214.18 87.89Q214.20 87.51 214.20 87.11L214.27 87.19L214.25 87.16Q214.28 86.40 214.55 85.13L214.49 85.08L214.53 85.11Q211.25 85.49 207.98 86.09L207.96 86.07L208.03 86.14Q207.94 86.92 207.74 88.88L207.82 88.96L207.80 88.95Q207.64 90.95 207.64 92.01L207.63 92.00L207.70 92.07Q207.83 95.67 210.23 97.00L210.19 96.96L210.05 96.82Q212.67 100.84 220.93 100.50L221.07 100.64L221.02 100.60Q222.22 100.46 224.89 100.73Z"/></svg>