<svg xmlns="http://www.w3.org/2000/svg" width="342" height="140" viewBox="0,0,342,140"><path d="M4 80 C165 54,151 127,324 57" stroke="#c9e86d" fill="none"/><path d="M12 39 C184 126,182 35,325 90" stroke="#d1e692" fill="none"/><path fill="#d948b5" d="M63.60 76.37L63.62 76.39L63.57 76.35Q60.76 76.37 58.91 78.39L58.81 78.29L58.94 78.42Q56.97 80.32 56.74 83.21L56.81 83.28L56.72 83.19Q56.54 86.53 58.39 88.06L58.33 88.01L58.37 88.05Q60.25 89.61 63.48 89.49L63.41 89.42L63.56 89.57Q67.09 89.34 68.53 87.89L68.47 87.83L68.48 87.84Q69.95 85.55 69.77 82.78L69.87 82.88L69.76 82.76Q69.64 79.99 67.99 78.17L68.05 78.23L67.96 78.14Q66.33 76.34 63.56 76.34ZM63.42 61.93L63.54 62.04L63.54 62.04Q61.35 61.82 59.32 62.57L59.38 62.62L59.27 62.52Q57.44 63.86 57.78 66.69L57.78 66.69L57.68 66.59Q58.53 72.35 63.62 72.35L63.58 72.31L63.50 72.23Q65.93 72.58 67.43 70.85L67.44 70.85L67.42 70.83Q69.03 69.21 69.08 66.84L69.06 66.81L69.00 66.75Q69.08 64.06 67.98 63.13L67.99 63.14L68.07 63.22Q65.39 61.81 63.42 61.93ZM63.22 93.33L63.14 93.25L58.56 93.30L58.42 93.15Q56.18 93.23 54.16 91.90L54.26 91.99L54.09 91.83Q52.01 90.09 52.24 85.76L52.39 85.91L52.36 85.88Q52.95 75.37 58.44 73.87L58.46 73.90L58.42 73.85Q55.01 72.52 52.99 64.38L53.03 64.42L53.08 64.47Q52.47 62.25 52.59 61.03L52.55 60.99L52.68 61.13Q53.15 57.90 58.76 57.84L58.75 57.83L58.71 57.79Q65.12 57.67 67.31 57.96L67.25 57.89L67.23 57.87Q73.04 58.66 73.73 61.72L73.73 61.72L73.72 61.71Q74.05 62.79 74.05 63.37L73.96 63.28L74.07 63.38Q74.06 64.41 73.77 65.34L73.62 65.19L73.67 65.24Q72.79 71.70 68.35 74.01L68.27 73.94L68.37 74.04Q73.70 75.26 74.45 83.29L74.44 83.28L74.29 83.14Q74.35 83.42 74.40 85.39L74.48 85.46L74.38 85.36Q74.56 89.59 72.13 91.21L72.11 91.19L72.08 91.16Q69.97 92.46 63.04 93.15ZM66.64 96.81L66.53 96.70L71.58 96.78L71.66 96.86Q74.37 97.08 76.68 95.99L76.52 95.83L76.65 95.96Q78.37 94.84 78.48 92.01L78.50 92.03L78.46 91.99Q78.44 90.24 77.87 87.29L77.83 87.25L77.86 87.28Q76.57 80.33 73.39 77.50L73.34 77.45L72.98 76.80L72.75 76.45L72.48 76.01L72.51 76.05Q75.00 73.97 76.39 67.67L76.42 67.70L76.41 67.69Q76.39 67.10 76.51 65.83L76.54 65.85L76.60 65.92Q76.56 64.72 76.45 63.80L76.56 63.91L76.44 63.79Q76.33 61.72 74.54 60.97L74.41 60.84L74.61 60.98L74.34 60.82L74.26 60.75Q73.78 59.57 71.99 58.36L72.17 58.54L72.09 58.40L72.05 58.36Q69.14 57.42 62.96 57.13L62.97 57.14L62.90 57.07Q60.56 56.92 58.48 57.10L58.41 57.03L58.41 57.03Q57.24 57.14 55.28 57.37L55.36 57.45L55.26 57.35Q52.31 57.92 51.97 60.41L52.12 60.56L51.98 60.43Q51.93 61.19 51.99 62.40L52.02 62.43L52.07 62.48Q52.10 63.14 52.96 66.72L53.07 66.83L53.08 66.84Q54.29 71.74 56.95 73.77L57.00 73.82L57.09 73.91L57.09 73.91Q52.93 75.94 52.12 83.79L52.04 83.72L51.96 83.64Q51.71 87.02 51.71 88.41L51.75 88.45L51.83 88.53Q51.85 91.15 53.64 92.54L53.59 92.49L53.67 92.56Q53.79 92.63 54.19 92.92L54.27 92.99L54.24 92.96Q55.78 96.40 66.58 96.75ZM66.12 79.99L65.98 79.85L66.15 80.02Q67.46 79.83 68.79 80.53L68.78 80.52L68.69 80.43Q69.44 82.10 69.38 82.91L69.24 82.77L69.23 82.76Q69.38 83.32 69.38 83.78L69.39 83.78L69.35 83.75Q69.41 87.39 65.94 88.66L65.97 88.68L65.91 88.62Q64.67 89.06 63.46 88.89L63.46 88.89L63.45 88.88Q61.79 89.07 60.05 88.38L60.03 88.35L60.03 88.35Q59.57 87.32 59.69 85.81L59.72 85.85L59.69 85.81Q60.04 83.51 61.86 81.66L61.84 81.64L61.90 81.70Q63.59 79.72 66.02 79.89ZM66.37 65.51L66.41 65.55L66.43 65.57Q67.71 65.46 68.52 65.69L68.41 65.58L68.46 66.85L68.42 66.81Q68.49 69.02 67.11 70.55L66.97 70.41L67.05 70.50Q65.59 71.95 63.51 71.66L63.54 71.69L63.53 71.69Q62.14 71.80 61.51 71.45L61.40 71.34L61.44 71.38Q61.45 71.05 61.28 70.01L61.14 69.87L61.14 69.87Q60.72 67.71 62.57 66.44L62.62 66.50L62.75 66.63Q64.31 65.53 66.45 65.59Z"/><path d="M11 14 C152 116,157 75,328 14" stroke="#da4747" fill="none"/><path d="M19 74 C172 59,181 132,325 102" stroke="#77ade3" fill="none"/><path d="M3 25 C170 38,175 12,324 36" stroke="#e697d3" fill="none"/><path d="M12 110 C158 59,190 95,336 36" stroke="#debc58" fill="none"/><path d="M19 41 C178 72,159 121,334 127" stroke="#ebeb7e" fill="none"/><path d="M7 21 C159 107,168 138,338 112" stroke="#e390ba" fill="none"/><path d="M1 8 C174 129,184 79,328 18" stroke="#7f61db" fill="none"/><path d="M18 67 C166 72,179 112,335 135" stroke="#75c9e4" fill="none"/><path d="M12 37 C163 48,151 70,331 27" stroke="#60e6e6" fill="none"/><path d="M12 78 C184 17,180 108,328 53" stroke="#a8eb64" fill="none"/><path d="M14 102 C184 51,159 28,338 15" stroke="#53e8e8" fill="none"/><path d="M14 123 C188 19,158 129,325 72" stroke="#84ebb7" fill="none"/><path d="M16 58 C156 60,170 57,333 28" stroke="#e183b2" fill="none"/><path d="M7 86 C158 13,183 64,331 102" stroke="#38e0e0" fill="none"/><path d="M20 132 C169 27,164 49,327 29" stroke="#e17993" fill="none"/><path d="M16 39 C170 13,189 136,337 136" stroke="#e3b735" fill="none"/><path d="M7 139 C178 107,166 123,322 48" stroke="#aa67ee" fill="none"/><path d="M11 110 C175 10,190 115,340 35" stroke="#58de7a" fill="none"/><path d="M2 78 C178 51,184 50,335 111" stroke="#e49e57" fill="none"/><path d="M13 125 C171 100,163 101,339 3" stroke="#446ade" fill="none"/><path d="M20 131 C167 114,172 53,340 71" stroke="#4ebee3" fill="none"/><path d="M13 127 C152 70,170 135,324 91" stroke="#43b8df" fill="none"/><path d="M4 37 C151 84,187 3,336 105" stroke="#e74040" fill="none"/><path fill="#caed62" d="M143.54 89.53L143.64 89.63L143.52 89.51Q143.97 91.00 144.78 94.06L144.95 94.23L144.78 94.06Q138.41 92.08 131.42 92.49L131.54 92.62L131.38 92.45Q124.49 92.90 118.42 95.90L118.46 95.95L118.40 95.88Q118.83 94.93 118.89 95.04L118.96 95.12L118.87 95.02Q124.50 88.98 130.45 82.28L130.41 82.23L130.40 82.23Q137.20 74.75 138.99 67.65L139.01 67.67L138.91 67.56Q139.59 64.89 137.65 63.10L137.64 63.08L137.75 63.20Q135.87 61.46 133.16 61.70L133.03 61.57L133.07 61.61Q132.48 61.48 131.96 61.48L131.96 61.49L132.13 61.66Q129.78 61.61 127.87 63.00L127.74 62.87L127.89 63.02Q125.84 65.02 126.19 69.06L126.14 69.01L126.14 69.01Q123.54 68.60 121.69 67.91L121.66 67.89L121.65 67.88Q121.26 65.64 121.15 63.44L121.19 63.48L121.19 63.48Q121.14 61.06 122.06 59.32L122.07 59.33L122.01 59.27Q124.73 57.20 129.82 57.20L129.76 57.14L132.44 57.16L132.57 57.29Q135.96 57.28 137.41 57.45L137.40 57.44L137.35 57.39Q144.01 58.10 144.41 61.80L144.31 61.70L144.46 61.84Q144.62 62.76 144.51 63.97L144.47 63.94L144.34 63.81Q144.33 64.84 144.10 65.88L144.02 65.80L144.03 65.81Q141.67 78.24 130.17 88.64L130.18 88.65L130.12 88.59Q132.33 88.43 134.41 88.43L134.44 88.46L134.36 88.38Q139.18 88.29 143.51 89.50ZM142.82 58.07L142.75 58.00L142.66 57.91Q140.24 56.94 137.64 56.82L137.74 56.91L132.58 56.67L132.52 56.61Q125.73 56.17 122.37 57.85L122.31 57.78L122.39 57.86Q120.75 59.93 120.75 63.05L120.77 63.07L120.74 63.03Q120.82 64.15 121.28 68.43L121.29 68.43L121.20 68.35Q122.12 68.80 123.91 69.26L123.91 69.26L123.92 70.84L123.94 70.85Q123.84 71.51 123.96 72.32L123.94 72.30L124.04 72.40Q125.87 72.49 129.62 72.84L129.67 72.88L129.69 72.91Q129.61 72.31 129.61 71.79L129.46 71.64L129.53 71.71Q129.56 68.96 131.41 66.91L131.36 66.86L131.49 66.99Q133.28 64.88 135.99 65.05L135.93 64.99L135.95 65.01Q137.12 65.09 138.28 65.32L138.33 65.37L138.30 65.34Q138.36 65.80 138.48 66.44L138.66 66.62L138.53 66.50Q138.56 67.10 138.45 67.62L138.53 67.70L138.49 67.67Q136.67 74.98 129.97 82.32L129.99 82.33L129.98 82.32Q126.70 85.69 118.43 94.88L118.50 94.94L118.40 94.84Q118.18 96.19 117.66 97.05L117.56 96.95L117.67 97.06Q119.97 95.60 122.28 94.80L122.40 94.91L122.31 94.82Q121.33 95.80 119.88 98.06L119.73 97.90L119.80 97.97Q119.59 98.46 119.41 98.98L119.37 98.93L119.41 98.98Q126.91 95.96 135.24 96.25L135.15 96.16L135.10 96.11Q143.78 96.41 150.71 100.00L150.63 99.91L149.27 96.82L149.27 96.82Q148.30 94.81 147.90 93.60L147.85 93.55L147.90 93.60Q146.79 92.95 144.94 92.32L144.82 92.20L144.91 92.29Q144.73 91.24 144.15 89.16L144.01 89.02L143.98 88.98Q140.65 88.15 137.19 87.86L137.28 87.95L137.17 87.84Q144.33 80.96 146.64 68.42L146.62 68.40L147.00 64.10L146.96 64.06Q146.83 61.33 144.98 60.29L144.99 60.29L144.94 60.31L144.84 60.20Q144.90 60.21 144.78 60.21L144.67 60.09L144.74 60.16Q144.37 58.87 142.70 57.95Z"/><path d="M18 7 C191 41,189 105,333 48" stroke="#c67bdf" fill="none"/><path d="M3 120 C168 43,177 113,331 69" stroke="#a38ce8" fill="none"/><path fill="#a566e5" d="M279.56 89.55L279.60 89.59L279.53 89.52Q280.15 91.18 280.96 94.25L280.84 94.12L280.87 94.16Q274.42 92.09 267.43 92.50L267.50 92.57L267.53 92.60Q260.61 93.02 254.54 96.02L254.54 96.02L254.52 96.00Q254.85 94.95 254.91 95.06L254.94 95.09L254.77 94.93Q260.49 88.97 266.44 82.26L266.52 82.34L266.58 82.41Q273.09 74.64 274.88 67.53L274.89 67.55L274.91 67.56Q275.66 64.97 273.73 63.17L273.73 63.18L273.76 63.21Q271.89 61.48 269.17 61.71L269.16 61.70L269.15 61.69Q268.47 61.47 267.95 61.47L267.97 61.49L268.06 61.58Q265.76 61.59 263.85 62.98L263.87 63.00L263.90 63.03Q261.76 64.93 262.11 68.98L262.23 69.10L262.26 69.13Q259.50 68.57 257.65 67.87L257.58 67.80L257.68 67.90Q257.30 65.67 257.18 63.47L257.33 63.63L257.26 63.56Q257.19 61.11 258.12 59.38L258.08 59.35L257.99 59.26Q260.75 57.22 265.84 57.22L265.92 57.30L268.50 57.23L268.42 57.15Q271.93 57.25 273.38 57.42L273.49 57.54L273.41 57.45Q280.04 58.14 280.45 61.83L280.48 61.87L280.35 61.73Q280.49 62.63 280.37 63.84L280.50 63.96L280.33 63.80Q280.35 64.85 280.12 65.89L280.18 65.96L280.14 65.92Q277.69 78.26 266.19 88.66L266.16 88.63L266.15 88.62Q268.32 88.42 270.40 88.42L270.45 88.47L270.38 88.41Q275.33 88.44 279.67 89.66ZM278.66 57.91L278.67 57.92L278.74 57.99Q276.35 57.04 273.75 56.93L273.74 56.92L268.58 56.67L268.47 56.56Q261.81 56.25 258.45 57.93L258.40 57.87L258.46 57.93Q256.86 60.03 256.86 63.15L256.79 63.08L256.68 62.97Q256.80 64.13 257.26 68.41L257.30 68.45L257.26 68.41Q258.01 68.69 259.80 69.15L259.82 69.17L259.86 70.78L259.86 70.77Q259.89 71.55 260.00 72.36L259.97 72.32L260.00 72.36Q261.83 72.45 265.58 72.80L265.62 72.84L265.57 72.79Q265.50 72.20 265.50 71.68L265.46 71.64L265.58 71.75Q265.56 68.96 267.41 66.91L267.47 66.97L267.31 66.81Q269.19 64.80 271.91 64.97L272.03 65.09L271.95 65.01Q273.05 65.01 274.21 65.24L274.24 65.27L274.35 65.38Q274.44 65.88 274.55 66.51L274.63 66.59L274.63 66.60Q274.53 67.07 274.42 67.59L274.58 67.76L274.60 67.78Q272.52 74.83 265.82 82.17L265.89 82.24L265.90 82.25Q262.57 85.56 254.31 94.75L254.36 94.80L254.32 94.77Q254.07 96.07 253.55 96.94L253.67 97.06L253.52 96.91Q256.03 95.66 258.34 94.85L258.43 94.95L258.43 94.95Q257.25 95.73 255.81 97.98L255.83 98.01L255.79 97.96Q255.58 98.45 255.40 98.97L255.39 98.95L255.40 98.96Q262.83 95.87 271.15 96.16L271.24 96.26L271.13 96.14Q279.78 96.42 286.72 100.00L286.73 100.02L285.13 96.68L285.11 96.66Q284.19 94.71 283.79 93.49L283.88 93.58L283.84 93.54Q282.82 92.98 280.97 92.34L280.86 92.24L280.79 92.17Q280.56 91.07 279.99 88.99L280.14 89.15L280.01 89.01Q276.65 88.14 273.18 87.85L273.24 87.91L273.34 88.01Q280.28 80.91 282.59 68.37L282.57 68.35L282.89 63.99L282.89 63.99Q282.88 61.38 281.03 60.34L281.07 60.38L280.88 60.25L280.91 60.27Q280.96 60.26 280.84 60.26L280.78 60.21L280.66 60.08Q280.38 58.88 278.71 57.96Z"/><path fill="#52e4e4" d="M199.44 76.22L199.46 76.24L199.37 76.15Q196.65 76.03 194.78 78.20L194.84 78.26L194.88 78.30Q192.90 80.37 192.62 83.26L192.56 83.20L192.66 83.31Q192.37 86.48 194.02 87.95L194.02 87.96L193.93 87.87Q195.51 89.28 198.69 89.10L198.85 89.26L198.70 89.12Q201.97 88.98 203.65 87.93L203.67 87.96L203.71 88.00Q205.36 86.24 205.36 83.87L205.26 83.77L205.28 83.79Q205.28 83.21 205.16 82.63L205.23 82.70L205.15 82.62Q205.30 80.11 203.63 78.06L203.63 78.07L203.78 78.22Q202.07 76.13 199.53 76.30ZM198.82 93.10L198.85 93.13L198.75 93.04Q192.26 93.19 190.12 92.03L190.01 91.92L190.00 91.91Q188.46 90.78 188.17 88.18L188.29 88.29L188.21 88.21Q188.11 87.13 188.16 86.03L188.13 86.00L188.23 86.10Q188.45 84.64 188.45 83.95L188.37 83.86L188.38 83.88Q188.97 79.44 189.20 78.40L189.25 78.45L189.29 78.49Q189.94 75.50 191.21 73.36L191.19 73.34L191.25 73.40Q195.27 66.74 204.29 57.09L204.36 57.15L204.40 57.20Q208.29 56.58 211.64 55.37L211.78 55.50L211.73 55.46Q201.30 66.75 196.44 73.16L196.53 73.25L196.49 73.20Q198.00 72.46 199.96 72.46L199.91 72.41L199.88 72.38Q204.96 72.44 207.27 75.38L207.21 75.32L207.20 75.31Q209.38 77.95 209.90 83.32L209.82 83.24L209.79 83.22Q209.83 84.24 209.83 85.16L209.89 85.22L209.95 85.28Q209.96 90.03 206.60 91.64L206.51 91.55L206.67 91.71Q204.64 92.45 198.74 93.03ZM202.27 96.73L202.32 96.78L202.32 96.78Q204.36 96.79 207.36 96.91L207.23 96.78L207.30 96.85Q209.65 96.83 212.02 95.73L212.05 95.76L212.06 95.77Q213.70 94.52 213.70 91.80L213.73 91.83L213.75 91.85Q213.82 91.18 213.56 89.68L213.57 89.68L213.61 89.72Q213.24 88.11 213.24 87.42L213.27 87.44L213.25 87.43Q211.92 80.26 209.49 77.37L209.51 77.39L209.48 77.35Q209.32 77.15 209.09 76.80L209.18 76.88L208.70 76.52L208.54 76.42L208.65 76.53Q208.13 75.78 207.21 74.33L207.05 74.18L207.12 74.25Q205.86 72.93 202.85 72.23L202.79 72.17L202.71 72.09Q204.51 69.62 209.02 64.01L209.17 64.16L215.49 56.04L215.54 56.09Q213.21 57.45 209.57 58.61L209.51 58.55L209.43 58.47Q210.94 57.09 213.65 54.08L213.64 54.07L213.60 54.03Q210.05 55.73 204.15 56.60L204.15 56.60L204.13 56.58Q195.42 65.50 190.92 73.01L190.88 72.97L190.96 73.05Q188.56 76.78 187.70 86.26L187.80 86.37L187.64 86.20Q187.62 87.16 187.73 88.61L187.73 88.60L187.79 88.66Q187.82 91.24 189.50 92.62L189.43 92.55L189.47 92.60Q190.01 92.79 189.95 92.85L190.14 93.04L189.98 92.87Q190.53 94.24 191.75 94.87L191.80 94.93L191.80 94.93Q194.06 96.03 197.00 96.31L196.96 96.27L197.07 96.38Q197.06 96.37 202.38 96.83ZM201.91 79.67L202.04 79.80L201.92 79.68Q202.90 79.62 204.35 80.37L204.25 80.28L204.21 80.23Q204.86 81.81 204.86 82.79L204.83 82.77L204.78 82.71Q205.10 85.57 203.65 87.08L203.69 87.11L203.72 87.14Q202.00 88.14 198.83 88.60L198.83 88.61L198.78 88.56Q196.71 88.69 195.90 88.28L195.79 88.17L195.83 88.21Q195.60 87.57 195.60 87.11L195.48 86.99L195.49 87.00Q195.26 82.15 199.71 80.18L199.71 80.19L199.73 80.20Q200.78 79.58 201.94 79.70Z"/><path d="M2 96 C157 18,150 66,334 92" stroke="#64dd82" fill="none"/><path d="M12 133 C160 78,183 68,331 34" stroke="#984ce5" fill="none"/><path d="M9 129 C159 69,174 65,326 96" stroke="#81e381" fill="none"/><path d="M12 41 C167 59,156 113,331 28" stroke="#e67994" fill="none"/><path d="M15 59 C178 105,189 112,341 101" stroke="#e4e448" fill="none"/><path d="M16 105 C170 125,187 24,337 72" stroke="#d651d6" fill="none"/><path d="M13 59 C155 72,175 79,326 117" stroke="#e1559b" fill="none"/><path d="M16 4 C181 16,171 102,327 113" stroke="#eeee76" fill="none"/><path d="M13 102 C161 47,154 114,341 29" stroke="#d290e9" fill="none"/><path d="M19 119 C190 52,151 46,330 49" stroke="#e18383" fill="none"/><path d="M20 15 C157 12,161 3,334 77" stroke="#b7e589" fill="none"/><path d="M19 73 C152 44,173 3,331 21" stroke="#8282e7" fill="none"/><path d="M20 64 C183 121,177 31,331 64" stroke="#69e6e6" fill="none"/></svg>