<svg xmlns="http://www.w3.org/2000/svg" width="342" height="140" viewBox="0,0,342,140"><path d="M12 91 C156 137,189 16,327 9" stroke="#d4ee85" fill="none"/><path d="M6 34 C179 56,178 88,335 24" stroke="#c459e7" fill="none"/><path d="M6 10 C187 41,159 12,328 12" stroke="#79e1c7" fill="none"/><path d="M16 22 C181 20,162 73,330 135" stroke="#bbe53c" fill="none"/><path d="M18 18 C182 37,167 73,330 107" stroke="#d95d5d" fill="none"/><path d="M20 102 C159 96,170 66,340 34" stroke="#6ae06a" fill="none"/><path d="M9 42 C152 92,191 117,336 67" stroke="#ea8361" fill="none"/><path d="M6 63 C151 67,163 118,325 20" stroke="#6fe6aa" fill="none"/><path d="M11 118 C164 28,192 132,325 55" stroke="#ea6aea" fill="none"/><path d="M5 112 C168 77,151 60,328 35" stroke="#e150bd" fill="none"/><path d="M10 119 C172 80,171 111,324 69" stroke="#4c71e0" fill="none"/><path d="M17 23 C168 100,187 16,338 98" stroke="#5ae6e6" fill="none"/><path d="M3 24 C169 19,164 85,324 101" stroke="#7ee6cc" fill="none"/><path d="M15 71 C185 79,191 8,323 117" stroke="#73e34e" fill="none"/><path d="M7 110 C191 28,166 120,329 56" stroke="#4791da" fill="none"/><path d="M17 47 C157 31,170 78,322 85" stroke="#4ae296" fill="none"/><path d="M7 118 C185 127,161 65,326 137" stroke="#ea4cea" fill="none"/><path d="M4 125 C174 83,184 30,328 80" stroke="#e88ca3" fill="none"/><path d="M4 81 C184 131,155 31,337 122" stroke="#e98fe9" fill="none"/><path d="M3 7 C166 33,158 118,324 133" stroke="#6888e8" fill="none"/><path fill="#3f8ede" d="M63.36 76.65L63.40 76.68L63.39 76.68Q60.33 76.58 58.39 78.70L58.49 78.79L58.42 78.72Q56.61 80.96 56.37 83.99L56.20 83.82L56.39 84.01Q55.91 87.22 57.85 88.83L57.95 88.93L57.91 88.89Q59.80 90.44 63.18 90.32L63.30 90.44L63.17 90.31Q67.04 90.24 68.55 88.73L68.36 88.54L68.43 88.61Q70.17 86.42 69.99 83.52L69.84 83.37L69.89 83.41Q69.68 80.43 67.96 78.52L68.06 78.62L68.05 78.62Q66.30 76.68 63.39 76.68ZM63.31 61.65L63.32 61.66L63.39 61.73Q61.08 61.47 58.96 62.26L58.93 62.23L59.01 62.31Q56.80 63.43 57.16 66.39L57.31 66.54L57.26 66.49Q58.07 72.44 63.40 72.44L63.29 72.34L63.31 72.36Q65.89 72.76 67.46 70.95L67.46 70.95L67.46 70.94Q69.06 69.15 69.12 66.67L69.08 66.63L69.06 66.62Q69.11 63.76 67.96 62.79L68.09 62.92L68.07 62.90Q65.42 61.58 63.36 61.70ZM62.80 94.24L62.93 94.36L58.09 94.36L57.98 94.25Q55.59 94.28 53.47 92.89L53.61 93.03L53.47 92.90Q51.36 91.14 51.60 86.61L51.55 86.55L51.64 86.64Q52.36 75.75 58.11 74.17L58.00 74.06L58.00 74.07Q54.50 72.75 52.39 64.22L52.32 64.15L52.27 64.11Q51.78 61.92 51.90 60.65L51.89 60.63L51.78 60.52Q52.43 57.30 58.30 57.24L58.14 57.08L58.20 57.15Q65.04 57.15 67.34 57.45L67.27 57.38L67.31 57.42Q73.45 58.30 74.18 61.51L74.15 61.48L74.10 61.43Q74.22 62.33 74.22 62.94L74.18 62.90L74.26 62.98Q74.18 63.99 73.88 64.96L73.87 64.95L74.01 65.09Q72.98 71.74 68.32 74.16L68.27 74.11L68.32 74.16Q73.82 75.36 74.60 83.77L74.72 83.89L74.59 83.76Q74.60 84.01 74.66 86.07L74.65 86.06L74.78 86.19Q74.81 90.45 72.27 92.14L72.35 92.23L72.32 92.20Q70.07 93.51 62.81 94.24ZM66.56 98.06L66.56 98.06L71.89 98.18L71.75 98.04Q74.59 98.28 77.01 97.13L77.03 97.15L76.94 97.06Q78.89 96.04 79.01 93.08L78.90 92.97L78.98 93.05Q79.08 91.34 78.48 88.25L78.42 88.20L78.40 88.17Q76.97 80.81 73.64 77.85L73.62 77.83L73.26 77.17L72.93 76.72L72.66 76.26L72.82 76.42Q75.36 74.18 76.81 67.59L76.83 67.61L76.85 67.62Q76.86 67.03 76.98 65.70L76.93 65.65L76.98 65.70Q77.06 64.57 76.94 63.60L76.83 63.50L76.93 63.60Q76.76 61.37 74.89 60.58L74.83 60.52L74.82 60.46L74.49 60.24L74.61 60.37Q74.20 59.23 72.32 57.95L72.21 57.84L72.29 57.86L72.23 57.81Q69.20 56.83 62.73 56.53L62.77 56.58L62.78 56.58Q60.20 56.31 58.03 56.49L58.09 56.55L58.04 56.50Q56.77 56.56 54.71 56.81L54.81 56.91L54.80 56.89Q51.63 57.41 51.27 60.01L51.31 60.05L51.24 59.99Q51.11 60.71 51.17 61.98L51.23 62.03L51.29 62.09Q51.41 62.88 52.32 66.63L52.38 66.69L52.38 66.70Q53.68 71.87 56.47 73.98L56.33 73.85L56.60 74.12L56.55 74.07Q52.04 76.04 51.20 84.27L51.21 84.28L51.27 84.34Q50.95 87.83 50.95 89.28L50.88 89.22L50.92 89.26Q51.06 92.11 52.93 93.56L53.04 93.67L52.91 93.54Q53.05 93.62 53.48 93.93L53.56 94.00L53.57 94.02Q55.16 97.60 66.47 97.97ZM66.05 80.49L66.02 80.46L66.02 80.46Q67.44 80.30 68.83 81.03L68.88 81.08L68.79 80.99Q69.48 82.64 69.42 83.49L69.32 83.39L69.27 83.34Q69.48 83.97 69.48 84.46L69.38 84.36L69.47 84.45Q69.47 88.20 65.84 89.53L65.88 89.57L65.85 89.54Q64.46 89.90 63.19 89.72L63.26 89.79L63.23 89.76Q61.53 90.00 59.71 89.27L59.61 89.17L59.66 89.22Q59.29 88.24 59.41 86.67L59.47 86.73L59.44 86.70Q59.70 84.18 61.61 82.24L61.62 82.25L61.47 82.11Q63.45 80.24 65.99 80.43ZM66.31 65.31L66.27 65.28L66.41 65.42Q67.52 65.07 68.37 65.32L68.43 65.38L68.50 66.72L68.49 66.71Q68.39 68.85 66.94 70.45L66.94 70.45L66.94 70.45Q65.63 72.20 63.45 71.89L63.31 71.75L63.37 71.81Q61.82 71.84 61.15 71.47L61.09 71.41L61.04 71.36Q61.06 71.01 60.88 69.93L60.92 69.97L60.82 69.87Q60.50 67.74 62.44 66.41L62.38 66.35L62.31 66.28Q64.06 65.24 66.30 65.30Z"/><path d="M11 121 C160 41,164 11,326 24" stroke="#ea70ad" fill="none"/><path d="M8 48 C177 102,186 74,338 5" stroke="#c167de" fill="none"/><path d="M10 12 C154 112,184 104,334 37" stroke="#e269e2" fill="none"/><path d="M6 19 C165 109,152 24,323 27" stroke="#5ac7eb" fill="none"/><path d="M1 72 C155 107,157 117,331 130" stroke="#5be09e" fill="none"/><path d="M8 99 C151 107,185 82,338 109" stroke="#5b7bdb" fill="none"/><path d="M7 98 C158 50,174 27,335 100" stroke="#edcd6c" fill="none"/><path d="M3 70 C153 96,182 20,331 133" stroke="#afec73" fill="none"/><path d="M5 100 C164 38,159 114,324 116" stroke="#dd69c0" fill="none"/><path fill="#e561e5" d="M143.89 90.44L143.90 90.46L143.93 90.49Q144.53 92.18 145.38 95.38L145.28 95.28L145.36 95.36Q138.62 93.22 131.30 93.64L131.35 93.69L131.23 93.57Q124.08 94.11 117.73 97.26L117.56 97.09L117.55 97.08Q117.93 96.01 117.99 96.13L118.12 96.25L118.01 96.15Q123.90 89.81 130.13 82.79L130.18 82.84L130.28 82.94Q137.26 74.98 139.13 67.54L139.06 67.46L139.21 67.61Q139.88 64.78 137.85 62.90L137.78 62.83L137.81 62.85Q135.86 61.06 133.02 61.30L132.85 61.13L132.84 61.13Q132.36 61.12 131.81 61.12L131.78 61.09L131.77 61.08Q129.40 61.13 127.41 62.59L127.39 62.57L127.40 62.58Q125.39 64.80 125.75 69.04L125.71 68.99L125.68 68.97Q122.83 68.42 120.89 67.69L120.96 67.76L121.00 67.79Q120.73 65.59 120.61 63.29L120.55 63.24L120.57 63.25Q120.39 60.59 121.35 58.77L121.34 58.76L121.35 58.76Q124.14 56.53 129.46 56.53L129.57 56.64L132.38 56.67L132.35 56.64Q136.02 56.74 137.53 56.92L137.50 56.89L137.43 56.82Q144.30 57.46 144.73 61.33L144.71 61.31L144.77 61.38Q144.84 62.23 144.72 63.50L144.75 63.53L144.87 63.65Q144.77 64.64 144.53 65.73L144.60 65.80L144.55 65.75Q141.80 78.49 129.76 89.38L129.85 89.47L129.81 89.44Q132.09 89.24 134.27 89.24L134.37 89.34L134.35 89.31Q139.52 89.34 144.05 90.61ZM143.05 57.41L143.11 57.48L143.15 57.51Q140.53 56.41 137.80 56.28L137.70 56.19L132.37 55.99L132.35 55.97Q125.19 55.47 121.69 57.23L121.75 57.29L121.82 57.36Q120.01 59.42 120.01 62.69L120.06 62.74L120.09 62.77Q120.13 63.90 120.61 68.38L120.61 68.37L120.60 68.37Q121.54 68.82 123.42 69.31L123.27 69.16L123.34 70.86L123.39 70.92Q123.18 71.49 123.30 72.34L123.42 72.46L123.31 72.34Q125.32 72.54 129.25 72.90L129.25 72.90L129.41 73.06Q129.27 72.38 129.27 71.83L129.35 71.91L129.23 71.79Q129.16 68.82 131.10 66.67L131.25 66.82L131.10 66.68Q133.03 64.52 135.88 64.70L135.94 64.76L135.98 64.81Q137.19 64.87 138.40 65.11L138.49 65.20L138.37 65.08Q138.51 65.64 138.63 66.30L138.75 66.43L138.74 66.42Q138.66 66.94 138.54 67.49L138.62 67.57L138.66 67.61Q136.70 75.21 129.68 82.89L129.58 82.79L129.61 82.82Q126.25 86.42 117.60 96.04L117.54 95.98L117.50 95.94Q117.33 97.41 116.79 98.31L116.81 98.34L116.71 98.24Q119.33 96.92 121.75 96.08L121.69 96.01L121.75 96.07Q120.45 96.83 118.94 99.19L118.98 99.23L119.00 99.26Q118.89 99.87 118.71 100.42L118.70 100.41L118.66 100.37Q126.48 97.18 135.19 97.48L135.13 97.41L135.03 97.31Q144.14 97.65 151.40 101.41L151.43 101.43L149.90 98.08L149.76 97.95Q148.88 95.98 148.46 94.71L148.31 94.56L148.44 94.70Q147.28 94.01 145.34 93.35L145.25 93.26L145.21 93.22Q145.11 92.21 144.51 90.03L144.40 89.93L144.36 89.89Q140.85 88.98 137.22 88.68L137.29 88.74L137.40 88.86Q144.68 81.43 147.10 68.31L147.22 68.42L147.52 63.82L147.45 63.75Q147.26 60.84 145.33 59.75L145.31 59.74L145.42 59.91L145.28 59.76Q145.20 59.62 145.08 59.62L145.22 59.77L145.09 59.64Q144.88 58.46 143.13 57.49Z"/><path d="M10 137 C160 68,162 23,333 10" stroke="#6f8be1" fill="none"/><path d="M9 86 C186 39,180 66,332 65" stroke="#ee71af" fill="none"/><path fill="#9ee886" d="M199.18 76.46L199.26 76.54L199.30 76.58Q196.35 76.36 194.38 78.63L194.37 78.61L194.30 78.54Q192.40 80.87 192.09 83.90L192.03 83.83L192.17 83.97Q191.78 87.21 193.50 88.75L193.55 88.80L193.39 88.64Q195.24 90.32 198.57 90.14L198.50 90.07L198.44 90.00Q201.93 89.92 203.68 88.83L203.54 88.69L203.54 88.69Q205.51 87.09 205.51 84.61L205.50 84.60L205.41 84.50Q205.43 83.92 205.31 83.32L205.26 83.27L205.36 83.37Q205.51 80.74 203.76 78.59L203.74 78.57L203.73 78.56Q201.82 76.26 199.16 76.45ZM198.51 94.13L198.61 94.22L198.52 94.13Q191.55 94.13 189.31 92.92L189.35 92.95L189.30 92.90Q187.73 91.76 187.43 89.03L187.50 89.10L187.42 89.03Q187.43 88.01 187.49 86.86L187.51 86.88L187.36 86.73Q187.55 85.16 187.55 84.43L187.59 84.48L187.59 84.47Q188.44 80.06 188.68 78.97L188.57 78.86L188.58 78.87Q189.26 75.74 190.59 73.50L190.59 73.50L190.60 73.51Q194.91 66.63 204.35 56.52L204.25 56.43L204.30 56.48Q208.47 55.93 211.98 54.66L212.08 54.76L212.06 54.73Q201.25 66.67 196.17 73.39L196.08 73.30L196.10 73.33Q197.69 72.56 199.75 72.56L199.65 72.46L199.65 72.45Q204.94 72.49 207.36 75.57L207.43 75.64L207.35 75.55Q209.57 78.26 210.11 83.89L210.06 83.84L210.13 83.91Q210.15 84.95 210.15 85.92L210.27 86.04L210.14 85.91Q210.12 90.85 206.61 92.54L206.69 92.63L206.75 92.69Q204.72 93.56 198.54 94.16ZM202.25 98.05L202.14 97.94L202.26 98.06Q204.32 98.00 207.46 98.12L207.45 98.10L207.45 98.10Q209.93 98.10 212.41 96.95L212.44 96.98L212.55 97.09Q214.20 95.72 214.20 92.88L214.16 92.83L214.29 92.97Q214.22 92.11 213.95 90.53L214.07 90.66L214.00 90.59Q213.70 88.98 213.70 88.26L213.61 88.17L213.77 88.33Q212.23 80.68 209.68 77.65L209.75 77.71L209.87 77.84Q209.56 77.47 209.32 77.10L209.50 77.28L208.86 76.77L208.81 76.78L208.90 76.87Q208.23 75.95 207.26 74.44L207.35 74.53L207.27 74.45Q205.93 73.05 202.78 72.32L202.65 72.19L202.77 72.31Q204.55 69.62 209.27 63.75L209.27 63.74L216.02 55.36L216.17 55.52Q213.55 56.77 209.74 57.98L209.76 58.00L209.74 57.98Q211.32 56.54 214.17 53.39L214.12 53.35L214.12 53.35Q210.17 54.90 204.00 55.81L204.16 55.97L204.07 55.88Q194.97 65.24 190.25 73.10L190.25 73.10L190.22 73.07Q187.81 77.08 186.91 87.00L187.00 87.09L187.01 87.11Q186.83 87.95 186.95 89.47L186.89 89.40L186.95 89.46Q186.99 92.17 188.74 93.62L188.89 93.76L188.88 93.75Q189.40 93.91 189.34 93.97L189.47 94.10L189.46 94.09Q189.98 95.46 191.25 96.12L191.36 96.23L191.27 96.14Q193.49 97.15 196.57 97.45L196.64 97.52L196.65 97.53Q196.58 97.46 202.15 97.94ZM201.94 80.26L201.84 80.16L201.95 80.26Q202.75 79.97 204.26 80.76L204.37 80.87L204.17 80.67Q204.87 82.34 204.87 83.36L204.86 83.36L204.83 83.33Q205.20 86.36 203.69 87.93L203.58 87.83L203.53 87.77Q201.82 88.90 198.49 89.39L198.53 89.43L198.55 89.45Q196.25 89.45 195.41 89.03L195.48 89.10L195.51 89.13Q195.23 88.42 195.23 87.94L195.16 87.87L195.16 87.87Q194.86 82.73 199.52 80.67L199.50 80.66L199.47 80.63Q200.56 79.96 201.77 80.09Z"/><path d="M9 112 C179 130,152 85,339 41" stroke="#e457c1" fill="none"/><path d="M5 76 C160 64,187 84,331 104" stroke="#8be26e" fill="none"/><path d="M14 60 C176 75,188 133,335 70" stroke="#4cb7db" fill="none"/><path d="M1 85 C157 26,189 33,327 27" stroke="#e6be45" fill="none"/><path d="M8 69 C156 104,188 35,338 67" stroke="#9858d9" fill="none"/><path d="M10 97 C190 47,165 12,324 132" stroke="#52e9e9" fill="none"/><path d="M14 137 C189 60,158 91,325 51" stroke="#b736e2" fill="none"/><path d="M2 131 C180 41,155 125,329 33" stroke="#8888eb" fill="none"/><path d="M15 35 C171 75,186 129,336 101" stroke="#dc6060" fill="none"/><path fill="#6b6bdf" d="M267.45 76.73L267.42 76.71L267.27 76.56Q264.41 76.66 262.47 78.77L262.47 78.77L262.38 78.68Q260.44 80.80 260.20 83.82L260.21 83.83L260.25 83.87Q259.94 87.25 261.88 88.86L261.89 88.87L261.88 88.86Q263.88 90.53 267.27 90.41L267.25 90.39L267.21 90.35Q270.98 90.19 272.49 88.67L272.49 88.67L272.54 88.72Q273.99 86.24 273.81 83.34L273.85 83.37L273.95 83.47Q273.76 80.50 272.03 78.60L271.97 78.53L272.05 78.61Q270.26 76.64 267.35 76.64ZM267.38 61.72L267.30 61.64L267.23 61.57Q265.11 61.51 263.00 62.30L262.87 62.17L263.00 62.30Q261.00 63.62 261.36 66.59L261.32 66.55L261.23 66.46Q262.01 72.39 267.34 72.39L267.28 72.33L267.44 72.48Q269.76 72.63 271.33 70.81L271.47 70.95L271.46 70.95Q272.97 69.06 273.03 66.58L273.00 66.55L273.09 66.65Q273.26 63.91 272.11 62.94L271.94 62.77L272.10 62.93Q269.42 61.58 267.36 61.70ZM266.93 94.37L266.88 94.32L261.95 94.22L262.04 94.31Q259.64 94.33 257.52 92.94L257.47 92.89L257.59 93.01Q255.34 91.12 255.58 86.58L255.66 86.67L255.50 86.50Q256.31 75.70 262.06 74.13L262.14 74.20L261.96 74.02Q258.36 72.60 256.24 64.07L256.30 64.13L256.20 64.03Q255.71 61.85 255.83 60.58L255.88 60.62L255.89 60.64Q256.40 57.27 262.27 57.21L262.29 57.23L262.31 57.25Q268.96 57.07 271.26 57.38L271.18 57.29L271.27 57.38Q277.30 58.15 278.02 61.35L278.14 61.47L278.10 61.43Q278.21 62.33 278.21 62.93L278.24 62.96L278.27 62.99Q278.27 64.08 277.97 65.05L278.01 65.09L277.92 65.00Q277.03 71.79 272.37 74.21L272.25 74.09L272.26 74.11Q277.85 75.39 278.63 83.80L278.74 83.91L278.68 83.85Q278.70 84.11 278.76 86.17L278.79 86.20L278.83 86.23Q278.86 90.50 276.32 92.19L276.26 92.14L276.30 92.18Q274.05 93.50 266.79 94.23ZM270.47 97.96L270.46 97.95L275.84 98.14L275.75 98.05Q278.60 98.29 281.02 97.14L280.93 97.05L280.95 97.07Q282.72 95.87 282.84 92.91L282.86 92.93L283.00 93.07Q282.98 91.23 282.37 88.15L282.44 88.21L282.44 88.21Q280.89 80.73 277.56 77.77L277.59 77.80L277.39 77.29L276.92 76.71L276.79 76.40L276.66 76.27Q279.43 74.25 280.88 67.66L280.84 67.61L280.79 67.57Q280.82 66.99 280.94 65.66L280.95 65.67L280.83 65.55Q281.12 64.63 281.00 63.67L280.90 63.57L280.91 63.58Q280.59 61.19 278.71 60.40L278.87 60.56L278.79 60.42L278.53 60.28L278.52 60.27Q278.05 59.08 276.17 57.81L276.20 57.84L276.36 57.94L276.39 57.97Q273.13 56.76 266.66 56.46L266.78 56.58L266.75 56.55Q264.26 56.36 262.08 56.54L262.13 56.60L262.09 56.55Q260.84 56.63 258.78 56.87L258.77 56.86L258.72 56.81Q255.54 57.32 255.18 59.93L255.19 59.93L255.20 59.94Q255.19 60.78 255.25 62.05L255.34 62.15L255.37 62.17Q255.53 62.99 256.43 66.75L256.30 66.61L256.38 66.69Q257.60 71.79 260.39 73.91L260.33 73.85L260.45 73.97L260.50 74.02Q256.10 76.09 255.25 84.32L255.19 84.26L255.29 84.36Q254.91 87.79 254.91 89.24L255.04 89.38L255.04 89.37Q255.08 92.14 256.96 93.59L256.98 93.61L257.02 93.65Q257.10 93.67 257.52 93.97L257.49 93.94L257.49 93.94Q259.29 97.74 270.61 98.10ZM269.89 80.32L269.96 80.39L270.02 80.46Q271.52 80.38 272.91 81.10L272.82 81.01L272.79 80.98Q273.47 82.63 273.40 83.48L273.44 83.51L273.40 83.47Q273.48 83.97 273.48 84.46L273.48 84.46L273.40 84.38Q273.45 88.18 269.82 89.51L269.89 89.58L269.77 89.46Q268.47 89.92 267.20 89.74L267.30 89.84L267.30 89.83Q265.45 89.92 263.63 89.19L263.64 89.20L263.70 89.26Q263.32 88.28 263.44 86.70L263.43 86.69L263.45 86.71Q263.62 84.09 265.52 82.16L265.52 82.15L265.60 82.23Q267.52 80.31 270.06 80.49ZM270.37 65.38L270.43 65.44L270.28 65.28Q271.53 65.08 272.37 65.32L272.53 65.48L272.46 66.68L272.38 66.60Q272.43 68.88 270.97 70.49L271.09 70.60L271.04 70.55Q269.64 72.21 267.46 71.91L267.29 71.73L267.40 71.84Q265.77 71.78 265.10 71.42L265.16 71.48L265.13 71.45Q265.11 71.06 264.93 69.97L264.91 69.96L264.92 69.97Q264.54 67.77 266.47 66.44L266.50 66.46L266.48 66.44Q268.07 65.25 270.30 65.31Z"/></svg>