<svg xmlns="http://www.w3.org/2000/svg" width="342" height="140" viewBox="0,0,342,140"><path d="M6 111 C168 80,159 87,338 56" stroke="#cbe480" fill="none"/><path d="M8 78 C184 75,156 137,337 1" stroke="#5bdb7b" fill="none"/><path d="M8 2 C159 117,164 119,326 122" stroke="#e1a05f" fill="none"/><path d="M8 120 C191 114,168 109,329 12" stroke="#3a64e2" fill="none"/><path d="M3 36 C159 59,173 53,325 78" stroke="#e480b2" fill="none"/><path d="M1 136 C186 88,164 135,329 30" stroke="#7994e6" fill="none"/><path d="M4 4 C161 132,154 122,324 52" stroke="#85e9e9" fill="none"/><path d="M11 128 C182 106,183 10,323 71" stroke="#cee881" fill="none"/><path d="M1 77 C192 134,188 30,331 13" stroke="#529be4" fill="none"/><path fill="#75afea" d="M280.20 91.18L280.16 91.13L280.27 91.25Q280.77 92.87 281.64 96.18L281.59 96.13L281.68 96.22Q274.66 93.96 267.09 94.39L267.16 94.46L267.16 94.46Q259.54 94.78 252.97 98.04L253.03 98.09L253.01 98.07Q253.40 96.96 253.46 97.09L253.46 97.09L253.47 97.09Q259.57 90.56 266.01 83.31L266.12 83.42L266.06 83.36Q273.23 75.07 275.16 67.38L275.27 67.49L275.15 67.36Q276.05 64.64 273.96 62.70L273.88 62.62L273.86 62.61Q271.75 60.65 268.81 60.90L268.94 61.03L268.84 60.93Q268.25 60.84 267.69 60.84L267.74 60.89L267.62 60.77Q265.13 60.78 263.06 62.28L263.11 62.33L263.14 62.36Q260.96 64.56 261.33 68.93L261.36 68.96L261.30 68.90Q258.41 68.39 256.41 67.64L256.44 67.66L256.42 67.65Q256.24 65.47 256.12 63.09L256.00 62.98L255.98 62.95Q255.82 60.23 256.82 58.36L256.85 58.39L256.96 58.49Q259.86 56.20 265.36 56.20L265.35 56.19L268.16 56.12L268.23 56.19Q271.93 56.21 273.50 56.39L273.62 56.51L273.60 56.50Q280.66 57.12 281.10 61.12L281.18 61.20L281.07 61.09Q281.32 62.15 281.19 63.46L281.11 63.38L281.17 63.44Q281.05 64.45 280.80 65.57L280.83 65.60L280.73 65.50Q278.06 78.84 265.61 90.10L265.64 90.12L265.69 90.18Q267.95 89.88 270.21 89.88L270.13 89.80L270.15 89.83Q275.44 89.80 280.14 91.11ZM279.27 56.98L279.37 57.08L279.38 57.08Q276.73 55.99 273.91 55.87L273.80 55.76L268.15 55.43L268.20 55.47Q260.96 55.12 257.34 56.93L257.17 56.77L257.21 56.80Q255.43 59.03 255.43 62.41L255.47 62.45L255.47 62.44Q255.66 63.76 256.16 68.39L256.12 68.35L256.06 68.29Q257.04 68.77 258.98 69.27L258.93 69.22L258.96 70.94L258.93 70.90Q258.74 71.53 258.87 72.41L258.87 72.42L258.87 72.41Q260.93 72.59 264.99 72.97L265.16 73.13L265.08 73.06Q264.97 72.38 264.97 71.82L265.03 71.88L265.12 71.97Q265.01 68.85 267.01 66.63L267.00 66.63L266.96 66.58Q269.00 64.40 271.94 64.59L271.95 64.60L271.88 64.53Q273.19 64.65 274.44 64.90L274.54 65.00L274.47 64.94Q274.57 65.48 274.70 66.16L274.80 66.26L274.83 66.30Q274.90 66.99 274.77 67.55L274.68 67.46L274.74 67.51Q272.73 75.39 265.47 83.33L265.39 83.24L265.41 83.26Q261.93 86.98 252.98 96.92L252.86 96.80L252.96 96.90Q252.56 98.19 252.00 99.13L252.16 99.29L252.05 99.18Q254.64 97.70 257.14 96.82L257.27 96.96L257.30 96.99Q256.09 97.90 254.52 100.34L254.41 100.22L254.49 100.31Q254.26 100.82 254.07 101.38L254.02 101.33L254.18 101.49Q262.16 98.09 271.17 98.41L271.16 98.40L271.11 98.35Q280.47 98.64 287.97 102.51L287.83 102.37L286.29 98.96L286.23 98.89Q285.20 96.74 284.76 95.43L284.87 95.53L284.79 95.45Q283.53 94.70 281.53 94.01L281.64 94.12L281.59 94.07Q281.27 92.81 280.64 90.56L280.67 90.59L280.65 90.57Q277.12 89.72 273.37 89.41L273.35 89.39L273.38 89.42Q281.11 81.95 283.61 68.38L283.46 68.23L283.90 63.61L283.77 63.48Q283.68 60.57 281.68 59.45L281.73 59.49L281.74 59.57L281.73 59.56Q281.50 59.27 281.38 59.27L281.44 59.34L281.50 59.39Q281.06 57.95 279.25 56.95Z"/><path d="M16 74 C189 67,180 39,324 4" stroke="#e46cc6" fill="none"/><path d="M13 66 C180 48,188 25,332 26" stroke="#5fd75f" fill="none"/><path d="M16 67 C154 16,168 57,324 42" stroke="#dec477" fill="none"/><path d="M4 30 C161 136,163 21,322 75" stroke="#64c2e1" fill="none"/><path d="M6 37 C188 99,167 124,337 49" stroke="#913be6" fill="none"/><path d="M17 43 C158 77,173 120,325 20" stroke="#e4ad75" fill="none"/><path d="M6 70 C159 3,180 80,322 124" stroke="#df8c70" fill="none"/><path d="M13 79 C186 52,159 36,341 86" stroke="#829ae2" fill="none"/><path d="M10 108 C185 102,188 116,323 6" stroke="#dba066" fill="none"/><path d="M15 61 C179 82,154 47,332 99" stroke="#ed9c81" fill="none"/><path d="M13 87 C183 100,163 132,323 107" stroke="#e183c9" fill="none"/><path d="M20 9 C183 43,186 13,322 33" stroke="#d192e7" fill="none"/><path d="M11 50 C176 106,165 48,321 4" stroke="#7db2e7" fill="none"/><path fill="#c770e4" d="M205.52 73.58L205.46 73.52L205.56 73.62Q206.86 73.61 209.17 73.36L209.13 73.32L209.20 73.39Q209.10 74.41 209.10 75.47L209.07 75.44L209.04 77.48L209.10 77.54Q207.79 77.61 206.41 77.73L206.34 77.65L206.23 77.54Q204.85 77.61 203.48 77.54L203.53 77.60L203.47 77.54Q198.95 87.84 193.32 95.41L193.17 95.26L193.31 95.40Q189.05 96.33 186.93 97.33L187.00 97.40L186.93 97.34Q193.71 87.98 198.72 77.66L198.77 77.71L194.38 77.64L194.51 77.77Q194.38 75.45 194.19 73.26L194.19 73.26L194.31 73.38Q197.30 73.49 200.67 73.49L200.83 73.64L203.86 67.48L203.81 67.43Q205.52 64.39 207.53 61.77L207.58 61.82L207.49 61.73Q204.94 61.99 202.31 61.99L202.36 62.05L202.39 62.08Q192.27 61.96 186.08 58.33L186.12 58.37L185.14 55.64L185.06 55.56Q184.59 54.28 183.96 52.84L183.88 52.76L183.85 52.73Q190.94 57.00 200.32 57.38L200.36 57.41L200.31 57.36Q208.78 57.77 217.23 54.52L217.22 54.51L217.17 54.46Q216.90 55.19 216.08 56.63L216.22 56.77L216.21 56.76Q210.14 64.45 205.45 73.52ZM218.78 58.95L218.75 58.92L220.33 55.56L220.35 55.58Q218.82 56.42 216.07 57.61L216.04 57.58L216.47 57.20L216.31 57.04Q216.49 56.79 216.68 56.60L216.79 56.71L216.84 56.76Q217.36 55.53 218.55 53.34L218.62 53.42L218.47 53.26Q209.83 57.13 200.39 56.76L200.45 56.81L200.38 56.75Q190.58 56.40 182.77 51.52L182.77 51.52L182.64 51.39Q184.40 54.53 185.78 58.91L185.69 58.82L185.65 58.78Q187.48 59.86 188.79 60.36L188.83 60.40L188.79 60.35Q189.04 60.92 189.79 63.98L189.93 64.12L189.79 63.98Q195.08 66.15 204.15 65.90L204.14 65.89L204.08 65.83Q203.60 66.79 200.35 72.98L200.34 72.97L200.42 73.05Q196.91 72.91 193.66 72.60L193.71 72.65L193.81 72.75Q193.87 74.07 193.87 75.51L193.78 75.41L193.79 78.24L196.61 78.30L196.66 80.67L196.69 80.71Q190.20 92.79 185.63 98.67L185.65 98.68L185.57 98.60Q188.33 97.49 191.02 96.68L190.96 96.61L190.91 96.56Q189.75 98.03 187.50 100.84L187.54 100.88L187.52 100.87Q192.81 99.15 196.81 98.77L196.73 98.69L196.72 98.68Q201.47 92.42 206.60 81.29L206.71 81.40L212.26 81.63L212.38 81.76Q212.19 80.20 212.19 78.69L212.21 78.71L212.19 75.75L212.21 75.77Q211.71 75.71 210.81 75.77L210.88 75.84L210.80 75.77Q209.91 75.84 209.47 75.84L209.44 75.81L209.49 75.86Q209.59 75.78 209.66 75.53L209.52 75.40L209.51 74.95L209.58 75.01Q213.72 66.59 218.79 58.96Z"/><path d="M14 42 C153 120,177 98,324 6" stroke="#b785e9" fill="none"/><path d="M1 98 C182 29,154 8,334 31" stroke="#6ae088" fill="none"/><path d="M18 82 C165 130,159 64,337 26" stroke="#79e655" fill="none"/><path d="M14 122 C178 22,182 38,325 92" stroke="#5293d5" fill="none"/><path d="M9 102 C174 31,172 51,322 79" stroke="#ed86ed" fill="none"/><path d="M7 20 C164 31,163 108,329 30" stroke="#5050e6" fill="none"/><path d="M8 101 C185 60,164 15,328 134" stroke="#eb6f8e" fill="none"/><path d="M8 120 C159 115,183 63,335 102" stroke="#b57eeb" fill="none"/><path d="M9 74 C162 122,154 96,325 81" stroke="#e49980" fill="none"/><path d="M13 68 C157 102,176 20,340 40" stroke="#a5e961" fill="none"/><path d="M5 33 C180 139,159 38,340 129" stroke="#90e4e4" fill="none"/><path d="M5 35 C171 126,181 56,340 37" stroke="#dd5959" fill="none"/><path d="M7 85 C175 1,179 67,335 87" stroke="#704be1" fill="none"/><path d="M3 66 C157 39,186 65,331 113" stroke="#7cedd1" fill="none"/><path d="M13 10 C178 76,181 83,338 124" stroke="#7dd85e" fill="none"/><path d="M10 43 C180 132,172 22,338 6" stroke="#e5519b" fill="none"/><path fill="#7979e6" d="M63.15 76.82L63.22 76.89L63.17 76.83Q60.21 76.94 58.21 79.13L58.08 79.00L58.15 79.07Q56.20 81.31 55.95 84.44L55.81 84.30L55.90 84.39Q55.60 87.90 57.60 89.56L57.53 89.49L57.65 89.61Q59.61 91.22 63.11 91.10L63.10 91.09L63.02 91.01Q66.90 90.82 68.46 89.25L68.47 89.26L68.56 89.35Q70.24 86.97 70.05 83.96L69.96 83.88L69.98 83.90Q69.87 80.91 68.09 78.94L68.09 78.94L68.10 78.95Q66.29 76.95 63.29 76.95ZM63.24 61.46L63.21 61.42L63.06 61.28Q60.78 61.12 58.59 61.93L58.61 61.96L58.62 61.96Q56.61 63.39 56.98 66.46L57.00 66.47L56.88 66.36Q57.69 72.48 63.19 72.48L63.17 72.45L63.15 72.43Q65.71 72.74 67.34 70.87L67.44 70.97L67.35 70.88Q69.05 69.08 69.11 66.51L69.07 66.47L69.11 66.51Q69.22 63.62 68.03 62.62L67.96 62.54L68.12 62.70Q65.31 61.28 63.18 61.40ZM62.70 95.13L62.67 95.09L57.66 95.09L57.77 95.20Q55.25 95.19 53.07 93.75L53.10 93.78L52.95 93.63Q50.72 91.78 50.97 87.09L51.09 87.20L51.06 87.18Q51.72 75.83 57.67 74.21L57.75 74.29L57.80 74.34Q53.92 72.71 51.73 63.89L51.73 63.89L51.67 63.84Q51.29 61.70 51.41 60.38L51.26 60.23L51.36 60.33Q51.89 56.86 57.96 56.80L58.00 56.84L57.83 56.67Q64.88 56.65 67.26 56.97L67.20 56.91L67.25 56.96Q73.63 57.90 74.38 61.22L74.23 61.06L74.29 61.12Q74.48 62.13 74.48 62.75L74.40 62.67L74.54 62.81Q74.46 63.86 74.15 64.86L74.07 64.78L74.25 64.96Q73.09 71.75 68.28 74.25L68.39 74.36L68.34 74.31Q74.12 75.66 74.94 84.35L74.97 84.38L74.89 84.30Q74.86 84.52 74.92 86.65L74.90 86.63L75.04 86.76Q75.17 91.27 72.54 93.02L72.52 93.00L72.50 92.98Q70.31 94.48 62.80 95.23ZM66.44 98.93L66.42 98.91L71.97 99.08L71.96 99.07Q74.88 99.30 77.38 98.11L77.30 98.03L77.35 98.08Q79.18 96.85 79.31 93.78L79.33 93.81L79.36 93.83Q79.28 91.89 78.66 88.70L78.72 88.75L78.70 88.74Q77.26 81.16 73.82 78.10L73.81 78.09L73.40 77.37L73.20 77.04L72.95 76.61L72.94 76.59Q75.51 74.22 77.01 67.41L77.09 67.49L77.14 67.54Q77.07 66.84 77.20 65.47L77.21 65.49L77.21 65.48Q77.26 64.28 77.14 63.28L77.28 63.43L77.17 63.31Q76.97 60.99 75.03 60.17L75.00 60.14L75.16 60.24L74.72 59.92L74.72 59.92Q74.34 58.80 72.40 57.48L72.50 57.58L72.43 57.45L72.45 57.47Q69.27 56.41 62.58 56.10L62.46 55.98L62.53 56.05Q59.97 55.87 57.72 56.06L57.61 55.96L57.74 56.08Q56.37 56.09 54.25 56.34L54.25 56.35L54.30 56.40Q51.03 56.94 50.66 59.63L50.63 59.61L50.63 59.60Q50.63 60.48 50.69 61.79L50.79 61.89L50.66 61.76Q50.95 62.74 51.89 66.62L51.75 66.48L51.87 66.60Q53.14 71.87 56.02 74.06L56.12 74.16L56.10 74.14L56.11 74.15Q51.53 76.27 50.66 84.77L50.68 84.79L50.78 84.90Q50.30 88.35 50.30 89.85L50.34 89.89L50.48 90.04Q50.43 92.80 52.37 94.31L52.54 94.47L52.55 94.48Q52.63 94.50 53.07 94.81L53.04 94.78L53.03 94.78Q54.85 98.66 66.55 99.03ZM65.83 80.68L65.91 80.76L65.86 80.71Q67.31 80.54 68.75 81.29L68.94 81.48L68.93 81.47Q69.41 82.95 69.34 83.82L69.32 83.80L69.50 83.97Q69.49 84.40 69.49 84.90L69.38 84.80L69.42 84.84Q69.56 88.85 65.81 90.23L65.80 90.22L65.73 90.15Q64.42 90.66 63.11 90.47L63.11 90.47L63.11 90.48Q61.23 90.59 59.35 89.84L59.46 89.95L59.41 89.90Q58.90 88.76 59.03 87.14L59.17 87.28L59.13 87.24Q59.41 84.64 61.38 82.64L61.39 82.65L61.40 82.66Q63.35 80.64 65.98 80.83ZM66.29 65.19L66.36 65.26L66.35 65.26Q67.63 65.04 68.51 65.29L68.41 65.19L68.55 66.64L68.44 66.53Q68.52 68.92 67.02 70.58L67.04 70.61L66.94 70.50Q65.53 72.25 63.28 71.94L63.26 71.92L63.17 71.83Q61.52 71.81 60.83 71.43L60.88 71.48L60.98 71.58Q60.87 71.09 60.68 69.97L60.74 70.02L60.70 69.99Q60.31 67.72 62.31 66.34L62.31 66.35L62.18 66.21Q63.88 65.03 66.19 65.09Z"/><path fill="#89ea89" d="M144.24 91.22L144.16 91.14L144.30 91.28Q144.80 92.91 145.68 96.22L145.54 96.09L145.61 96.16Q138.73 94.03 131.17 94.47L131.18 94.48L131.16 94.46Q123.57 94.82 117.01 98.07L117.10 98.16L117.10 98.16Q117.32 96.88 117.38 97.01L117.37 96.99L117.40 97.03Q123.65 90.64 130.09 83.39L129.96 83.26L129.98 83.27Q137.36 75.21 139.30 67.52L139.17 67.39L139.12 67.34Q140.00 64.58 137.90 62.65L137.94 62.68L137.90 62.64Q135.84 60.74 132.90 60.99L132.77 60.86L132.77 60.86Q132.24 60.83 131.68 60.83L131.78 60.93L131.72 60.87Q129.15 60.80 127.09 62.31L127.10 62.32L127.06 62.28Q125.07 64.67 125.44 69.05L125.45 69.05L125.44 69.04Q122.43 68.41 120.43 67.66L120.52 67.74L120.44 67.67Q120.12 65.35 120.00 62.97L120.08 63.05L120.02 63.00Q119.89 60.30 120.89 58.43L120.87 58.40L120.82 58.35Q123.85 56.20 129.36 56.20L129.29 56.13L132.13 56.09L132.14 56.10Q135.96 56.23 137.52 56.42L137.48 56.37L137.48 56.37Q144.59 57.04 145.03 61.05L145.06 61.08L145.12 61.14Q145.14 61.98 145.02 63.29L145.17 63.44L145.13 63.40Q145.11 64.51 144.86 65.63L144.69 65.46L144.80 65.57Q142.03 78.82 129.59 90.07L129.69 90.17L129.60 90.09Q131.93 89.85 134.18 89.85L134.16 89.84L134.13 89.80Q139.54 89.90 144.23 91.21ZM143.33 57.04L143.25 56.95L143.20 56.91Q140.72 55.99 137.91 55.87L137.86 55.82L132.22 55.50L132.15 55.42Q124.88 55.03 121.25 56.85L121.18 56.78L121.18 56.77Q119.61 59.21 119.61 62.58L119.54 62.52L119.48 62.45Q119.62 63.72 120.12 68.34L120.09 68.32L120.07 68.30Q121.06 68.79 123.00 69.29L122.95 69.24L122.93 70.91L122.92 70.90Q122.85 71.64 122.97 72.51L122.90 72.44L122.98 72.52Q125.01 72.68 129.08 73.05L129.11 73.09L129.14 73.11Q128.96 72.38 128.96 71.81L129.11 71.96L128.93 71.78Q128.98 68.82 130.98 66.60L130.96 66.59L130.96 66.58Q132.96 64.36 135.90 64.55L136.05 64.70L136.04 64.69Q137.30 64.76 138.55 65.01L138.50 64.97L138.38 64.84Q138.67 65.57 138.79 66.26L138.78 66.24L138.75 66.22Q138.88 66.97 138.75 67.53L138.79 67.57L138.76 67.54Q136.59 75.25 129.33 83.19L129.34 83.19L129.44 83.30Q125.94 86.99 116.99 96.93L116.86 96.79L116.88 96.82Q116.71 98.34 116.15 99.28L116.01 99.13L116.14 99.27Q118.68 97.74 121.18 96.86L121.30 96.98L121.21 96.90Q119.95 97.76 118.39 100.20L118.40 100.22L118.38 100.19Q118.33 100.89 118.14 101.46L118.01 101.33L118.04 101.36Q126.01 97.94 135.02 98.26L135.06 98.30L135.02 98.26Q144.42 98.59 151.93 102.47L151.85 102.39L150.29 98.96L150.22 98.89Q149.23 96.77 148.79 95.45L148.70 95.36L148.70 95.36Q147.70 94.86 145.70 94.18L145.65 94.13L145.56 94.04Q145.40 92.94 144.78 90.69L144.75 90.66L144.63 90.55Q141.10 89.71 137.35 89.39L137.25 89.29L137.37 89.41Q145.02 81.86 147.52 68.29L147.47 68.24L147.91 63.62L147.92 63.62Q147.69 60.58 145.69 59.46L145.74 59.51L145.59 59.42L145.61 59.44Q145.68 59.45 145.55 59.45L145.55 59.45L145.50 59.39Q145.14 58.03 143.33 57.03Z"/><path d="M5 31 C167 118,172 17,339 9" stroke="#e2b736" fill="none"/><path d="M18 85 C174 90,189 1,337 11" stroke="#cf90e4" fill="none"/></svg>