<svg xmlns="http://www.w3.org/2000/svg" width="342" height="140" viewBox="0,0,342,140"><path d="M18 56 C184 133,172 24,328 76" stroke="#56bde0" fill="none"/><path d="M6 122 C153 117,189 32,326 18" stroke="#ee7694" fill="none"/><path d="M20 71 C165 46,178 131,323 70" stroke="#4cb3d6" fill="none"/><path d="M1 92 C169 98,170 31,331 108" stroke="#4ed491" fill="none"/><path d="M9 75 C176 128,156 110,329 84" stroke="#83d5f0" fill="none"/><path d="M21 13 C160 62,166 33,340 83" stroke="#eb4beb" fill="none"/><path d="M15 84 C184 55,189 42,333 139" stroke="#db4cb7" fill="none"/><path d="M16 17 C164 99,152 85,326 8" stroke="#7ced98" fill="none"/><path d="M8 127 C153 14,155 37,333 53" stroke="#9e62d9" fill="none"/><path d="M15 64 C167 131,154 108,327 79" stroke="#42e042" fill="none"/><path d="M20 82 C187 66,154 111,338 122" stroke="#7de27d" fill="none"/><path d="M21 107 C174 130,153 76,336 61" stroke="#5bdb7b" fill="none"/><path d="M4 80 C163 43,154 79,333 94" stroke="#8ed646" fill="none"/><path d="M11 27 C189 79,153 137,331 27" stroke="#eba188" fill="none"/><path d="M12 29 C167 56,185 81,332 69" stroke="#b042d5" fill="none"/><path d="M8 73 C166 88,183 51,334 90" stroke="#e3496f" fill="none"/><path d="M7 64 C177 106,184 109,323 79" stroke="#e689a0" fill="none"/><path d="M3 82 C174 134,168 66,322 99" stroke="#9ee287" fill="none"/><path fill="#d46c49" d="M205.75 74.15L205.67 74.07L205.82 74.22Q207.21 74.09 209.90 73.80L210.06 73.95L209.89 73.78Q209.81 75.01 209.81 76.24L209.98 76.41L209.97 78.80L209.82 78.65Q208.30 78.74 206.70 78.88L206.71 78.89L206.72 78.90Q205.18 79.03 203.58 78.96L203.40 78.78L203.43 78.81Q198.12 90.74 191.58 99.55L191.39 99.36L191.57 99.54Q186.63 100.63 184.15 101.80L184.12 101.77L184.29 101.94Q192.02 90.90 197.84 78.90L197.97 79.03L192.96 79.04L192.92 78.99Q192.82 76.35 192.61 73.81L192.68 73.88L192.71 73.91Q196.28 74.14 200.21 74.14L200.30 74.23L203.81 67.05L203.79 67.03Q205.77 63.48 208.10 60.43L208.13 60.45L208.13 60.46Q205.02 60.62 201.97 60.62L202.13 60.79L202.04 60.69Q190.43 60.72 183.23 56.50L183.15 56.42L182.03 53.26L181.99 53.22Q181.40 51.70 180.68 50.02L180.67 50.02L180.59 49.94Q188.91 54.99 199.82 55.42L199.76 55.36L199.76 55.36Q209.61 55.82 219.43 52.04L219.34 51.95L219.44 52.06Q219.08 52.86 218.14 54.53L218.08 54.48L218.15 54.55Q211.27 63.67 205.82 74.22ZM221.13 57.09L221.16 57.12L223.04 53.26L223.01 53.22Q221.22 54.20 218.02 55.58L218.05 55.61L218.31 54.92L218.37 54.99Q218.53 54.63 218.74 54.41L218.92 54.59L218.86 54.53Q219.62 53.25 221.01 50.71L220.97 50.67L220.94 50.64Q210.76 55.01 199.78 54.58L199.73 54.53L199.79 54.58Q188.29 54.07 179.20 48.40L179.20 48.40L179.22 48.42Q181.07 51.87 182.67 56.97L182.67 56.96L182.79 57.09Q184.89 58.31 186.42 58.89L186.49 58.97L186.49 58.97Q186.69 59.53 187.57 63.10L187.48 63.01L187.50 63.03Q193.63 65.52 204.17 65.23L204.05 65.10L204.21 65.27Q203.54 66.27 199.76 73.47L199.72 73.43L199.84 73.55Q195.81 73.45 192.03 73.09L192.13 73.19L192.00 73.06Q192.21 74.72 192.21 76.40L192.14 76.32L192.32 79.77L195.49 79.75L195.36 82.31L195.32 82.27Q187.91 96.46 182.60 103.30L182.53 103.23L182.53 103.23Q185.75 101.94 188.88 101.00L188.87 100.99L188.75 100.86Q187.47 102.64 184.85 105.92L184.85 105.91L184.93 105.99Q190.91 103.82 195.56 103.39L195.59 103.41L195.48 103.30Q201.18 96.20 207.14 83.25L207.09 83.21L213.75 83.68L213.61 83.54Q213.52 81.85 213.52 80.10L213.58 80.16L213.47 76.63L213.57 76.73Q213.08 76.76 212.03 76.83L211.93 76.73L211.93 76.73Q210.99 76.92 210.48 76.92L210.34 76.78L210.35 76.78Q210.39 76.61 210.46 76.31L210.43 76.29L210.43 75.78L210.55 75.89Q215.23 65.95 221.12 57.08Z"/><path d="M10 33 C180 137,169 93,327 120" stroke="#bfdd63" fill="none"/><path d="M10 107 C165 104,182 52,325 58" stroke="#a5e06a" fill="none"/><path fill="#7777e8" d="M145.57 94.67L145.57 94.67L145.66 94.75Q146.18 96.58 147.20 100.44L147.19 100.43L147.23 100.47Q139.11 97.88 130.31 98.39L130.37 98.45L130.26 98.34Q121.48 98.79 113.84 102.58L113.93 102.66L113.86 102.60Q114.34 101.33 114.42 101.48L114.47 101.53L114.44 101.51Q121.54 93.91 129.03 85.47L129.14 85.58L129.03 85.47Q137.42 75.89 139.68 66.95L139.75 67.03L139.71 66.98Q140.61 63.66 138.17 61.41L138.14 61.37L138.13 61.36Q135.80 59.22 132.38 59.51L132.29 59.41L132.29 59.42Q131.66 59.37 131.01 59.37L130.97 59.34L130.93 59.30Q128.12 59.39 125.72 61.14L125.79 61.21L125.76 61.17Q123.27 63.78 123.70 68.87L123.60 68.77L123.65 68.82Q120.17 68.10 117.84 67.22L117.95 67.33L117.98 67.36Q117.56 64.62 117.41 61.85L117.49 61.93L117.42 61.86Q117.19 58.65 118.35 56.46L118.45 56.56L118.35 56.46Q121.77 53.85 128.18 53.85L128.27 53.94L131.60 53.92L131.57 53.90Q135.91 53.94 137.73 54.16L137.78 54.21L137.71 54.14Q146.17 55.11 146.68 59.77L146.54 59.63L146.68 59.77Q146.69 60.73 146.55 62.25L146.63 62.33L146.64 62.34Q146.47 63.48 146.17 64.79L146.29 64.90L146.19 64.80Q143.18 80.41 128.70 93.51L128.54 93.34L128.53 93.33Q131.37 93.19 133.99 93.19L133.94 93.15L133.87 93.07Q140.02 93.04 145.47 94.57ZM144.41 54.81L144.44 54.83L144.48 54.88Q141.44 53.66 138.17 53.51L138.18 53.52L131.64 53.16L131.69 53.21Q123.05 52.57 118.83 54.68L118.86 54.71L118.84 54.69Q116.93 57.44 116.93 61.37L116.89 61.33L116.80 61.24Q116.92 62.67 117.50 68.05L117.52 68.07L117.54 68.08Q118.51 68.47 120.76 69.05L120.75 69.04L120.84 71.10L120.78 71.04Q120.62 71.82 120.77 72.84L120.74 72.81L120.78 72.85Q123.31 73.20 128.04 73.64L127.99 73.59L128.00 73.60Q127.90 72.85 127.90 72.19L127.96 72.26L127.81 72.10Q127.97 68.77 130.30 66.19L130.24 66.13L130.17 66.06Q132.60 63.58 136.02 63.80L135.88 63.66L135.92 63.70Q137.51 63.91 138.96 64.20L138.97 64.20L138.88 64.12Q139.07 64.82 139.22 65.62L139.22 65.62L139.26 65.66Q139.25 66.38 139.11 67.03L139.09 67.01L139.24 67.16Q136.69 76.11 128.25 85.35L128.28 85.37L128.39 85.49Q124.16 89.62 113.76 101.19L113.91 101.33L113.78 101.21Q113.57 102.96 112.92 104.05L112.85 103.99L112.91 104.05Q115.83 102.23 118.74 101.22L118.79 101.27L118.76 101.25Q117.47 102.42 115.65 105.26L115.59 105.19L115.60 105.21Q115.31 105.79 115.09 106.45L115.15 106.51L115.07 106.42Q124.44 102.56 134.91 102.92L134.90 102.91L134.98 102.98Q145.88 103.34 154.61 107.85L154.52 107.76L152.63 103.68L152.70 103.75Q151.41 101.16 150.90 99.63L150.93 99.66L150.96 99.69Q149.48 98.79 147.15 97.99L147.24 98.08L147.23 98.07Q146.87 96.62 146.14 94.00L146.05 93.90L146.05 93.90Q141.86 92.84 137.49 92.48L137.60 92.58L137.49 92.48Q146.60 83.91 149.51 68.13L149.43 68.05L149.74 62.46L149.79 62.51Q149.71 59.16 147.38 57.85L147.24 57.71L147.26 57.80L147.30 57.84Q147.22 57.69 147.08 57.69L147.05 57.67L146.95 57.56Q146.58 56.03 144.47 54.87Z"/><path d="M6 70 C188 134,171 6,338 23" stroke="#e17ee1" fill="none"/><path d="M8 74 C155 51,156 17,321 24" stroke="#e78c8c" fill="none"/><path d="M19 36 C166 7,171 89,331 7" stroke="#6a43df" fill="none"/><path d="M19 117 C171 48,174 29,335 107" stroke="#e18f74" fill="none"/><path d="M8 55 C184 79,186 86,335 137" stroke="#bce990" fill="none"/><path d="M20 87 C156 85,153 98,336 47" stroke="#b939e4" fill="none"/><path d="M10 91 C175 55,168 120,332 79" stroke="#e14bbc" fill="none"/><path d="M18 45 C190 28,154 117,324 121" stroke="#ebb279" fill="none"/><path fill="#ea89ba" d="M62.47 78.04L62.49 78.06L62.51 78.07Q58.94 78.07 56.62 80.62L56.53 80.53L56.45 80.46Q54.14 83.02 53.85 86.66L53.90 86.70L53.89 86.70Q53.65 90.89 55.98 92.82L55.98 92.82L55.95 92.79Q58.12 94.56 62.19 94.42L62.24 94.47L62.29 94.52Q66.81 94.31 68.63 92.49L68.58 92.44L68.52 92.38Q70.53 89.66 70.31 86.17L70.39 86.25L70.33 86.18Q70.10 82.61 68.02 80.32L68.02 80.31L68.01 80.30Q65.87 77.95 62.38 77.95ZM62.28 59.88L62.43 60.03L62.32 59.92Q59.69 59.76 57.15 60.71L57.09 60.66L57.10 60.66Q54.57 62.14 55.01 65.70L55.12 65.81L55.16 65.85Q56.05 72.92 62.45 72.92L62.52 73.00L62.47 72.95Q65.38 73.24 67.27 71.05L67.24 71.02L67.32 71.10Q69.11 68.82 69.18 65.84L69.25 65.91L69.19 65.84Q69.43 62.59 68.05 61.43L67.99 61.37L67.97 61.35Q64.87 59.85 62.39 59.99ZM61.84 99.23L61.84 99.23L55.95 99.15L56.13 99.33Q53.12 99.23 50.57 97.56L50.58 97.57L50.55 97.54Q48.01 95.44 48.31 89.99L48.29 89.97L48.18 89.86Q49.14 76.86 56.05 74.97L55.95 74.86L56.00 74.91Q51.64 73.17 49.09 62.91L49.12 62.94L49.19 63.01Q48.50 60.28 48.64 58.75L48.70 58.81L48.56 58.67Q49.27 54.73 56.33 54.65L56.31 54.64L56.31 54.64Q64.43 54.53 67.19 54.90L67.09 54.79L67.03 54.74Q74.45 55.83 75.33 59.69L75.22 59.58L75.29 59.65Q75.50 60.81 75.50 61.54L75.53 61.56L75.47 61.51Q75.44 62.78 75.08 63.95L75.08 63.95L75.11 63.98Q73.94 72.05 68.34 74.96L68.46 75.07L68.40 75.02Q75.18 76.64 76.13 86.75L76.04 86.66L76.00 86.62Q76.04 86.95 76.11 89.42L76.05 89.36L76.06 89.37Q76.33 94.73 73.27 96.76L73.29 96.78L73.22 96.72Q70.50 98.28 61.77 99.16ZM66.12 103.59L66.29 103.75L72.59 103.79L72.55 103.75Q75.91 103.98 78.82 102.60L78.87 102.66L78.70 102.49Q80.96 101.19 81.11 97.62L81.15 97.66L81.18 97.69Q81.26 95.59 80.53 91.88L80.48 91.83L80.47 91.82Q78.79 83.00 74.79 79.44L74.65 79.31L74.40 78.69L73.96 78.10L73.77 77.69L73.62 77.54Q76.75 74.93 78.49 67.00L78.63 67.14L78.51 67.02Q78.58 66.36 78.73 64.76L78.79 64.83L78.71 64.74Q78.81 63.39 78.67 62.23L78.79 62.35L78.83 62.39Q78.42 59.50 76.16 58.56L76.23 58.62L76.20 58.52L75.88 58.35L75.89 58.36Q75.29 56.89 73.03 55.36L73.09 55.42L73.24 55.49L73.23 55.48Q69.44 54.16 61.66 53.80L61.70 53.84L61.61 53.75Q58.61 53.52 55.99 53.73L55.96 53.70L56.09 53.83Q54.43 53.77 51.95 54.06L52.06 54.17L51.94 54.05Q48.31 54.86 47.88 57.99L47.89 58.00L47.88 57.99Q47.73 58.86 47.80 60.38L47.96 60.54L47.92 60.50Q48.02 61.40 49.11 65.91L49.27 66.07L49.21 66.01Q50.64 72.10 53.99 74.65L54.05 74.70L54.16 74.82L54.26 74.92Q48.94 77.38 47.93 87.28L47.85 87.20L47.95 87.30Q47.46 91.39 47.46 93.14L47.43 93.11L47.58 93.26Q47.77 96.72 50.02 98.47L49.97 98.42L50.00 98.44Q50.13 98.50 50.63 98.86L50.70 98.93L50.64 98.87Q52.69 103.31 66.29 103.75ZM65.59 82.54L65.63 82.58L65.55 82.50Q67.41 82.46 69.08 83.34L69.04 83.29L69.04 83.30Q69.79 85.21 69.71 86.23L69.66 86.17L69.73 86.24Q69.81 86.83 69.81 87.41L69.78 87.38L69.81 87.41Q69.64 91.76 65.28 93.36L65.28 93.36L65.39 93.47Q63.91 94.09 62.38 93.88L62.22 93.71L62.39 93.88Q60.13 93.95 57.94 93.08L57.99 93.13L57.91 93.04Q57.53 91.94 57.68 90.05L57.72 90.09L57.68 90.05Q57.98 87.00 60.27 84.67L60.32 84.72L60.15 84.55Q62.55 82.33 65.60 82.55ZM65.99 64.39L66.10 64.50L66.09 64.48Q67.54 64.20 68.56 64.49L68.62 64.54L68.49 65.95L68.45 65.90Q68.61 68.75 66.86 70.68L66.72 70.54L66.88 70.70Q64.97 72.46 62.35 72.10L62.37 72.12L62.41 72.16Q60.64 72.27 59.84 71.84L59.65 71.65L59.84 71.84Q59.65 71.22 59.43 69.91L59.52 69.99L59.40 69.88Q58.87 67.17 61.20 65.57L61.35 65.71L61.29 65.65Q63.29 64.31 65.98 64.38Z"/><path d="M1 18 C173 76,170 78,327 129" stroke="#75ade4" fill="none"/><path d="M8 88 C164 121,186 79,336 47" stroke="#da6c87" fill="none"/><path d="M20 117 C185 101,185 14,335 33" stroke="#6deded" fill="none"/><path d="M21 102 C179 109,181 122,337 124" stroke="#9edf5c" fill="none"/><path d="M7 6 C186 4,159 47,335 39" stroke="#43d4b0" fill="none"/><path d="M9 42 C188 58,165 138,329 29" stroke="#ddc16e" fill="none"/><path d="M16 66 C163 138,182 45,324 86" stroke="#866adc" fill="none"/><path d="M18 11 C188 111,159 137,339 130" stroke="#8deba5" fill="none"/><path d="M9 131 C186 4,177 31,327 50" stroke="#c36ae0" fill="none"/><path d="M11 3 C172 107,156 2,326 12" stroke="#dbb74c" fill="none"/><path d="M13 69 C177 53,162 135,322 84" stroke="#63c6e7" fill="none"/><path fill="#e58d6f" d="M261.37 99.37L261.40 99.41L261.40 99.41Q253.52 99.74 251.63 95.31L251.70 95.38L251.71 95.39Q253.24 93.65 256.22 90.23L256.09 90.09L256.19 90.20Q257.16 94.07 262.90 94.29L262.77 94.16L262.75 94.13Q269.23 94.29 272.36 91.74L272.34 91.73L272.39 91.77Q275.06 88.70 274.92 83.54L275.03 83.65L274.97 83.59Q274.66 73.90 265.50 74.34L265.44 74.28L265.58 74.42Q260.21 74.73 256.87 77.13L256.87 77.13L256.15 76.70L255.76 76.45L255.72 76.41Q256.50 70.51 256.28 65.27L256.23 65.22L256.28 65.27Q255.95 60.13 255.29 53.80L255.38 53.89L255.40 53.91Q262.33 55.67 269.60 55.45L269.53 55.38L269.65 55.51Q276.79 55.22 283.63 52.82L283.68 52.87L282.58 55.78L282.61 55.80Q282.03 57.27 281.67 58.87L281.67 58.86L281.71 58.91Q275.80 60.92 268.38 60.92L268.32 60.86L268.26 60.80Q265.55 60.86 262.71 60.56L262.63 60.48L262.76 60.61Q262.49 61.80 261.83 70.31L261.79 70.27L261.85 70.32Q263.39 69.39 267.32 69.10L267.45 69.23L267.43 69.21Q274.48 69.57 277.25 72.77L277.38 72.90L277.21 72.74Q279.85 75.67 280.36 83.02L280.46 83.12L280.44 83.10Q280.93 91.08 278.60 94.93L278.71 95.04L278.67 95.00Q274.81 98.63 268.48 99.07L268.38 98.97L268.35 98.94Q266.38 99.00 261.29 99.29ZM272.98 103.78L273.01 103.82L272.88 103.68Q279.53 103.94 283.17 101.83L283.03 101.69L283.14 101.80Q285.05 98.91 285.05 94.91L285.09 94.95L285.03 94.89Q284.96 88.92 283.14 81.06L283.28 81.21L283.15 81.08Q282.45 77.76 280.13 75.07L280.13 75.07L280.27 75.29L279.88 74.75L279.05 74.22L279.16 74.32Q278.48 72.84 277.24 71.53L277.33 71.62L277.40 71.77L277.25 71.62Q274.48 68.55 267.43 68.55L267.34 68.47L266.86 68.50L266.90 68.54Q266.94 67.34 267.30 65.23L267.29 65.21L267.38 65.30Q276.92 65.54 284.63 62.41L284.53 62.31L284.49 62.26Q285.29 59.57 287.10 54.19L287.14 54.22L283.28 56.18L283.24 56.14Q283.99 53.98 284.93 51.80L284.85 51.72L284.78 51.65Q277.48 54.46 269.63 54.61L269.75 54.73L269.61 54.59Q261.85 54.90 254.28 52.79L254.32 52.83L254.18 52.69Q255.55 61.19 255.55 69.63L255.59 69.67L255.63 69.71Q255.47 73.18 255.25 76.82L255.44 77.01L255.36 76.93Q255.85 77.27 256.94 77.85L256.87 77.79L256.94 77.85Q257.53 77.36 258.77 76.70L258.77 76.70L258.90 76.83Q258.71 78.17 258.27 81.08L258.40 81.21L258.32 81.13Q259.19 81.56 259.99 81.99L259.85 81.86L259.95 81.95Q265.14 78.49 268.71 78.49L268.77 78.56L268.79 78.57Q271.33 78.57 273.59 79.81L273.55 79.77L273.62 79.84Q274.35 81.88 274.42 83.69L274.41 83.69L274.39 83.67Q274.51 88.58 272.54 90.69L272.42 90.57L272.50 90.65Q269.84 92.93 265.54 93.37L265.51 93.34L265.70 93.52Q263.86 93.64 262.55 93.50L262.44 93.39L262.54 93.49Q260.95 93.28 259.49 92.63L259.40 92.53L259.26 92.03L259.09 92.29L259.12 92.32Q257.57 91.35 256.55 88.81L256.60 88.86L256.51 88.77Q254.13 91.63 250.93 95.70L250.82 95.59L250.82 95.59Q251.33 96.76 252.93 98.58L253.00 98.65L253.07 98.71Q255.04 102.14 260.42 103.08L260.49 103.15L260.38 103.04Q262.78 103.62 273.03 103.84Z"/><path d="M15 63 C189 130,169 38,335 96" stroke="#7fdc60" fill="none"/></svg>