<svg xmlns="http://www.w3.org/2000/svg" width="342" height="140" viewBox="0,0,342,140"><path d="M20 87 C182 133,188 89,336 57" stroke="#cae381" fill="none"/><path d="M13 85 C155 108,188 45,336 108" stroke="#6161ea" fill="none"/><path d="M6 30 C179 113,161 39,330 44" stroke="#dc7f60" fill="none"/><path d="M9 127 C181 40,169 68,338 111" stroke="#79e6cb" fill="none"/><path d="M18 49 C152 6,156 133,339 58" stroke="#54bee2" fill="none"/><path d="M17 72 C183 68,152 7,325 6" stroke="#d34ad3" fill="none"/><path d="M13 35 C156 34,171 51,328 138" stroke="#d48ced" fill="none"/><path d="M16 9 C152 28,154 53,323 121" stroke="#67eeee" fill="none"/><path d="M5 96 C165 98,183 39,332 2" stroke="#ef8989" fill="none"/><path fill="#68ed68" d="M205.66 74.01L205.74 74.09L205.78 74.13Q207.15 74.00 209.79 73.72L209.90 73.83L209.93 73.86Q209.74 74.95 209.74 76.17L209.77 76.20L209.73 78.51L209.83 78.61Q208.12 78.47 206.55 78.62L206.72 78.78L206.70 78.77Q205.09 78.80 203.52 78.73L203.51 78.72L203.55 78.76Q198.08 90.20 191.65 98.84L191.81 99.00L191.63 98.81Q187.10 100.21 184.67 101.35L184.52 101.20L184.63 101.31Q192.35 90.61 198.06 78.84L197.92 78.69L193.16 78.86L193.11 78.81Q193.01 76.22 192.80 73.72L192.80 73.72L192.96 73.87Q196.50 74.14 200.36 74.14L200.32 74.10L203.92 67.21L203.92 67.21Q205.71 63.58 208.00 60.58L208.08 60.66L207.98 60.56Q205.09 60.89 202.10 60.89L202.16 60.95L202.03 60.82Q190.61 60.82 183.54 56.68L183.56 56.70L182.29 53.43L182.29 53.43Q181.63 51.84 180.92 50.20L181.04 50.33L181.00 50.28Q189.16 55.24 199.87 55.66L199.93 55.72L199.86 55.65Q209.54 56.13 219.18 52.42L219.12 52.36L219.05 52.29Q218.72 53.10 217.79 54.74L217.77 54.72L217.80 54.75Q211.05 63.70 205.70 74.05ZM220.92 57.44L220.89 57.41L222.73 53.61L222.72 53.60Q220.90 54.50 217.76 55.85L217.87 55.96L218.10 55.26L218.04 55.20Q218.31 54.98 218.53 54.76L218.56 54.80L218.47 54.71Q219.34 53.58 220.70 51.08L220.71 51.09L220.72 51.10Q210.55 55.21 199.77 54.78L199.84 54.85L199.95 54.96Q188.54 54.33 179.62 48.76L179.72 48.86L179.76 48.90Q181.55 52.26 183.12 57.26L183.13 57.27L183.17 57.31Q185.17 58.45 186.67 59.02L186.74 59.09L186.70 59.05Q186.99 59.70 187.85 63.20L187.87 63.22L187.87 63.22Q193.86 65.64 204.21 65.35L204.21 65.36L204.05 65.19Q203.65 66.44 199.94 73.51L199.76 73.33L199.84 73.40Q195.95 73.37 192.24 73.01L192.28 73.06L192.23 73.01Q192.50 74.70 192.50 76.34L192.35 76.20L192.46 79.52L195.55 79.47L195.57 82.13L195.54 82.10Q188.28 96.03 183.07 102.74L183.10 102.77L183.06 102.74Q186.08 101.33 189.15 100.40L189.18 100.43L189.04 100.29Q187.87 102.12 185.30 105.33L185.28 105.32L185.17 105.21Q191.25 103.29 195.82 102.86L195.79 102.83L195.73 102.77Q201.27 95.75 207.12 83.04L207.04 82.96L213.45 83.31L213.47 83.32Q213.39 81.67 213.39 79.96L213.27 79.84L213.35 76.57L213.41 76.63Q212.91 76.62 211.87 76.69L211.87 76.70L211.87 76.69Q210.80 76.73 210.30 76.73L210.29 76.72L210.30 76.73Q210.37 76.58 210.44 76.30L210.32 76.17L210.36 75.72L210.40 75.75Q214.99 66.00 220.78 57.30Z"/><path d="M21 46 C190 136,153 27,322 73" stroke="#dca56f" fill="none"/><path d="M17 11 C187 17,154 7,326 87" stroke="#a2e98a" fill="none"/><path d="M15 123 C163 137,182 21,323 126" stroke="#49e899" fill="none"/><path d="M17 94 C172 115,189 38,337 3" stroke="#d8914a" fill="none"/><path d="M11 60 C162 105,154 128,322 139" stroke="#87edd3" fill="none"/><path d="M6 86 C172 92,183 78,333 49" stroke="#6b8be9" fill="none"/><path d="M7 62 C154 60,156 29,333 25" stroke="#bd56e0" fill="none"/><path d="M4 67 C184 75,176 127,328 36" stroke="#7fe0af" fill="none"/><path d="M14 130 C153 46,155 72,335 101" stroke="#5293d5" fill="none"/><path d="M8 137 C178 51,156 30,338 81" stroke="#76ee76" fill="none"/><path d="M20 137 C169 88,158 48,336 66" stroke="#e273c6" fill="none"/><path d="M5 10 C173 123,179 46,339 38" stroke="#af46d2" fill="none"/><path d="M17 100 C171 114,183 17,323 43" stroke="#a4ed8c" fill="none"/><path fill="#7aef97" d="M266.41 77.73L266.34 77.65L266.43 77.74Q263.01 77.53 260.69 80.21L260.71 80.23L260.74 80.26Q258.40 82.92 258.05 86.49L257.93 86.37L258.07 86.51Q257.57 90.30 259.61 92.12L259.53 92.04L259.62 92.13Q261.61 93.91 265.54 93.69L265.54 93.70L265.48 93.64Q269.44 93.38 271.51 92.10L271.47 92.06L271.45 92.04Q273.72 90.10 273.72 87.17L273.77 87.22L273.63 87.08Q273.70 86.44 273.55 85.72L273.53 85.69L273.53 85.70Q273.66 82.54 271.59 80.01L271.70 80.12L271.56 79.98Q269.54 77.50 266.40 77.72ZM265.61 98.55L265.54 98.48L265.69 98.63Q257.43 98.58 254.79 97.15L254.67 97.03L254.79 97.15Q252.86 95.73 252.51 92.51L252.39 92.40L252.51 92.52Q252.45 91.24 252.52 89.89L252.51 89.88L252.39 89.75Q252.70 88.00 252.70 87.14L252.65 87.09L252.71 87.15Q253.46 81.69 253.75 80.41L253.90 80.56L253.91 80.56Q254.63 76.79 256.20 74.15L256.30 74.25L256.23 74.18Q261.32 66.07 272.46 54.15L272.42 54.10L272.42 54.11Q277.43 53.55 281.57 52.05L281.50 51.98L281.51 52.00Q268.74 66.06 262.74 73.98L262.63 73.87L262.69 73.93Q264.48 72.94 266.91 72.94L266.97 73.00L266.89 72.92Q273.27 73.09 276.13 76.73L275.99 76.60L275.95 76.55Q278.54 79.72 279.19 86.36L279.19 86.36L279.26 86.43Q279.30 87.68 279.30 88.82L279.34 88.87L279.37 88.89Q279.31 94.69 275.17 96.69L275.10 96.62L275.10 96.62Q272.90 97.85 265.62 98.56ZM269.93 103.08L269.94 103.10L269.82 102.98Q272.37 103.03 276.09 103.17L276.08 103.17L275.95 103.04Q279.01 103.17 281.93 101.81L281.96 101.84L282.11 101.99Q284.16 100.47 284.16 97.12L284.15 97.11L284.20 97.15Q284.09 96.12 283.77 94.26L283.68 94.17L283.75 94.24Q283.43 92.39 283.43 91.53L283.44 91.54L283.48 91.58Q281.86 82.76 278.87 79.19L278.79 79.11L278.75 79.07Q278.75 79.00 278.47 78.57L278.29 78.40L277.90 78.15L277.65 77.97L277.72 78.04Q277.06 77.10 275.92 75.31L275.81 75.20L275.98 75.37Q274.13 73.45 270.42 72.60L270.53 72.70L270.42 72.59Q272.68 69.57 278.25 62.65L278.29 62.70L286.20 52.76L286.15 52.71Q283.32 54.45 278.83 55.88L278.73 55.78L278.90 55.95Q280.54 54.02 283.90 50.31L283.96 50.37L283.94 50.35Q279.34 52.25 272.06 53.32L272.11 53.38L272.14 53.40Q261.31 64.34 255.74 73.62L255.79 73.67L255.88 73.76Q253.02 78.47 251.95 90.17L251.86 90.09L252.00 90.22Q251.77 91.20 251.91 92.99L251.95 93.03L251.89 92.97Q252.02 96.24 254.09 97.95L254.08 97.94L254.11 97.97Q254.78 98.21 254.71 98.28L254.69 98.26L254.84 98.42Q255.45 100.03 256.95 100.81L256.94 100.80L257.01 100.87Q259.71 102.15 263.36 102.51L263.31 102.46L263.32 102.47Q263.26 102.41 269.83 102.98ZM269.52 82.05L269.38 81.91L269.44 81.97Q270.53 81.77 272.31 82.70L272.26 82.64L272.33 82.71Q272.89 84.42 272.89 85.63L272.95 85.69L272.99 85.73Q273.30 89.18 271.52 91.04L271.56 91.08L271.50 91.02Q269.47 92.34 265.54 92.92L265.58 92.95L265.53 92.90Q262.94 93.02 261.94 92.52L261.99 92.57L261.86 92.44Q261.62 91.71 261.62 91.13L261.52 91.03L261.54 91.05Q261.07 84.87 266.57 82.45L266.59 82.47L266.69 82.57Q267.95 81.76 269.38 81.90Z"/><path d="M17 2 C173 53,184 126,333 131" stroke="#d1ed7c" fill="none"/><path d="M16 93 C191 51,157 98,326 68" stroke="#e5913c" fill="none"/><path d="M14 38 C182 75,179 99,333 121" stroke="#e5cf8e" fill="none"/><path d="M19 45 C157 128,161 39,340 127" stroke="#a3e263" fill="none"/><path d="M13 130 C184 10,157 44,329 12" stroke="#c3e952" fill="none"/><path d="M3 116 C183 110,187 91,326 80" stroke="#90d6ee" fill="none"/><path fill="#46bee5" d="M62.53 77.84L62.58 77.89L62.46 77.77Q59.00 77.81 56.72 80.31L56.67 80.26L56.69 80.28Q54.49 82.87 54.21 86.44L54.24 86.47L54.18 86.41Q53.79 90.38 56.08 92.27L56.19 92.38L56.03 92.22Q58.48 94.28 62.48 94.14L62.31 93.97L62.36 94.01Q66.79 93.81 68.58 92.03L68.55 92.00L68.58 92.03Q70.39 89.20 70.18 85.78L70.24 85.83L70.18 85.78Q70.10 82.41 68.06 80.16L68.01 80.11L67.95 80.05Q65.95 77.83 62.52 77.83ZM62.43 60.11L62.49 60.17L62.50 60.18Q59.91 60.02 57.41 60.95L57.32 60.85L57.34 60.87Q54.82 62.28 55.24 65.77L55.23 65.76L55.31 65.84Q56.17 72.76 62.45 72.76L62.48 72.80L62.54 72.86Q65.50 73.24 67.35 71.10L67.32 71.07L67.33 71.08Q69.26 69.01 69.33 66.09L69.20 65.95L69.28 66.03Q69.31 62.63 67.95 61.49L68.13 61.67L68.01 61.55Q64.99 60.10 62.56 60.24ZM61.89 98.61L61.99 98.72L56.36 98.79L56.28 98.72Q53.40 98.70 50.91 97.06L50.93 97.08L50.83 96.98Q48.38 94.96 48.67 89.61L48.67 89.61L48.65 89.59Q49.40 76.63 56.18 74.77L56.21 74.80L56.33 74.93Q51.90 73.07 49.40 63.00L49.38 62.98L49.43 63.03Q48.89 60.49 49.03 58.99L49.03 58.99L49.03 58.99Q49.45 54.84 56.38 54.77L56.56 54.95L56.46 54.85Q64.33 54.66 67.04 55.02L67.01 54.99L67.20 55.17Q74.41 56.18 75.27 59.96L75.13 59.82L75.12 59.81Q75.30 60.91 75.30 61.63L75.46 61.79L75.44 61.78Q75.47 63.09 75.11 64.23L74.95 64.07L75.08 64.20Q73.89 72.08 68.40 74.93L68.29 74.83L68.38 74.92Q74.95 76.42 75.88 86.34L75.91 86.37L75.80 86.26Q75.92 86.67 75.99 89.09L75.95 89.05L76.01 89.11Q76.04 94.13 73.04 96.13L73.09 96.18L73.09 96.18Q70.44 97.74 61.87 98.60ZM66.20 103.00L66.19 102.98L72.44 103.10L72.52 103.18Q75.82 103.41 78.67 102.05L78.64 102.02L78.67 102.04Q80.74 100.62 80.88 97.12L80.89 97.13L80.97 97.21Q80.98 95.08 80.27 91.44L80.26 91.43L80.17 91.34Q78.61 82.79 74.69 79.29L74.51 79.12L74.33 78.57L73.91 78.02L73.55 77.44L73.60 77.50Q76.73 74.99 78.45 67.21L78.48 67.24L78.49 67.24Q78.43 66.47 78.57 64.90L78.47 64.80L78.50 64.83Q78.77 63.67 78.62 62.53L78.53 62.44L78.52 62.42Q78.22 59.70 76.01 58.77L76.00 58.76L76.18 58.87L75.67 58.50L75.67 58.50Q75.23 57.21 73.02 55.71L73.02 55.71L73.12 55.75L73.03 55.65Q69.39 54.44 61.76 54.08L61.74 54.07L61.82 54.15Q58.88 53.92 56.31 54.14L56.32 54.14L56.19 54.01Q54.66 54.06 52.23 54.34L52.27 54.37L52.34 54.45Q48.78 55.24 48.35 58.31L48.35 58.31L48.35 58.31Q48.16 59.12 48.23 60.62L48.21 60.59L48.35 60.74Q48.45 61.62 49.52 66.04L49.61 66.14L49.47 65.99Q51.14 72.23 54.42 74.73L54.36 74.67L54.53 74.84L54.43 74.74Q49.27 77.22 48.28 86.93L48.19 86.85L48.22 86.87Q47.98 91.13 47.98 92.84L47.99 92.86L47.89 92.76Q48.00 96.07 50.21 97.79L50.34 97.91L50.32 97.89Q50.52 98.02 51.02 98.38L51.00 98.36L50.88 98.24Q52.85 102.56 66.20 102.99ZM65.56 82.23L65.57 82.24L65.68 82.35Q67.38 82.19 69.02 83.05L69.04 83.07L69.01 83.03Q69.72 84.89 69.65 85.89L69.52 85.76L69.60 85.84Q69.75 86.49 69.75 87.06L69.60 86.91L69.77 87.08Q69.65 91.39 65.37 92.96L65.40 92.99L65.46 93.05Q63.99 93.65 62.50 93.44L62.46 93.41L62.43 93.38Q60.41 93.64 58.27 92.78L58.24 92.75L58.13 92.65Q57.78 91.58 57.92 89.72L57.77 89.57L57.84 89.64Q58.14 86.66 60.39 84.38L60.35 84.34L60.34 84.32Q62.71 82.16 65.70 82.37ZM66.00 64.47L66.09 64.56L66.06 64.52Q67.57 64.33 68.57 64.61L68.58 64.62L68.58 66.12L68.51 66.05Q68.46 68.64 66.75 70.53L66.89 70.67L66.74 70.53Q65.12 72.51 62.55 72.15L62.47 72.07L62.60 72.21Q60.62 72.08 59.83 71.65L59.91 71.73L60.00 71.81Q59.82 71.21 59.61 69.92L59.65 69.96L59.60 69.91Q59.14 67.32 61.43 65.75L61.34 65.66L61.47 65.79Q63.42 64.46 66.07 64.53Z"/><path d="M5 124 C185 124,182 37,333 66" stroke="#d54d91" fill="none"/><path d="M20 27 C181 20,158 62,337 66" stroke="#4beb9b" fill="none"/><path fill="#e3cd8c" d="M145.29 94.10L145.37 94.19L145.42 94.23Q145.94 96.03 146.93 99.81L147.01 99.89L146.98 99.86Q139.07 97.37 130.43 97.87L130.46 97.90L130.34 97.78Q121.76 98.27 114.27 101.98L114.38 102.09L114.28 102.00Q114.83 100.83 114.90 100.97L114.78 100.85L114.80 100.87Q121.79 93.44 129.14 85.16L129.13 85.15L129.22 85.24Q137.39 75.78 139.60 67.00L139.73 67.13L139.58 66.98Q140.59 63.84 138.20 61.63L138.20 61.64L138.18 61.62Q135.83 59.45 132.48 59.73L132.35 59.60L132.38 59.64Q131.77 59.60 131.13 59.60L131.05 59.52L131.12 59.58Q128.18 59.51 125.83 61.22L125.83 61.22L125.98 61.38Q123.53 63.92 123.96 68.91L123.99 68.95L123.81 68.76Q120.45 68.12 118.17 67.26L118.19 67.29L118.20 67.30Q117.84 64.65 117.70 61.94L117.83 62.07L117.78 62.02Q117.54 58.86 118.69 56.72L118.70 56.73L118.68 56.71Q122.05 54.16 128.33 54.16L128.44 54.27L131.74 54.28L131.70 54.25Q135.97 54.30 137.75 54.51L137.76 54.52L137.73 54.49Q145.93 55.34 146.43 59.91L146.37 59.85L146.47 59.95Q146.48 60.89 146.34 62.39L146.45 62.50L146.33 62.38Q146.26 63.59 145.97 64.88L146.09 65.00L146.06 64.96Q143.00 80.18 128.80 93.02L128.84 93.07L128.76 92.99Q131.37 92.68 133.94 92.68L134.02 92.75L134.04 92.77Q140.06 92.73 145.41 94.22ZM144.28 55.12L144.24 55.08L144.25 55.08Q141.27 53.89 138.05 53.74L138.03 53.72L131.76 53.52L131.60 53.36Q123.33 52.94 119.19 55.01L119.27 55.09L119.25 55.07Q117.12 57.51 117.12 61.37L117.12 61.37L117.22 61.47Q117.22 62.75 117.80 68.03L117.90 68.14L117.87 68.11Q118.88 68.55 121.09 69.12L121.14 69.16L121.03 70.99L121.01 70.97Q120.97 71.85 121.11 72.85L121.15 72.89L121.04 72.77Q123.54 73.13 128.18 73.56L128.16 73.55L128.20 73.58Q128.02 72.76 128.02 72.12L128.06 72.16L128.00 72.10Q128.09 68.76 130.37 66.23L130.24 66.10L130.41 66.26Q132.67 63.70 136.02 63.92L135.92 63.81L135.93 63.83Q137.49 64.03 138.92 64.32L138.92 64.32L138.74 64.14Q138.95 64.85 139.09 65.64L139.25 65.80L139.14 65.68Q139.24 66.50 139.10 67.14L139.12 67.16L139.05 67.09Q136.79 76.11 128.51 85.17L128.41 85.08L128.55 85.21Q124.47 89.35 114.27 100.70L114.33 100.76L114.17 100.60Q113.84 102.19 113.19 103.26L113.31 103.38L113.32 103.39Q116.33 101.76 119.18 100.76L119.09 100.67L119.17 100.74Q117.78 101.78 115.99 104.56L116.00 104.57L116.00 104.57Q115.68 105.11 115.47 105.75L115.52 105.80L115.57 105.86Q124.63 101.92 134.91 102.28L134.99 102.36L134.94 102.31Q145.52 102.54 154.09 106.97L154.21 107.09L152.35 103.09L152.38 103.12Q151.08 100.54 150.58 99.04L150.68 99.14L150.62 99.07Q149.16 98.18 146.88 97.40L146.90 97.42L147.05 97.58Q146.64 96.09 145.93 93.52L145.93 93.53L145.87 93.47Q141.79 92.45 137.50 92.10L137.48 92.07L137.59 92.19Q146.30 83.55 149.16 68.06L149.12 68.02L149.51 62.63L149.45 62.58Q149.47 59.38 147.18 58.09L147.17 58.08L147.10 58.08L147.07 58.05Q146.98 57.89 146.84 57.89L146.74 57.79L146.77 57.82Q146.32 56.22 144.25 55.08Z"/><path d="M14 3 C174 83,191 98,334 77" stroke="#31e631" fill="none"/><path d="M7 3 C153 128,155 38,338 94" stroke="#ecc95f" fill="none"/><path d="M1 84 C159 87,166 97,332 92" stroke="#e4c66b" fill="none"/><path d="M4 4 C157 107,152 75,323 120" stroke="#6f8eeb" fill="none"/><path d="M11 58 C186 59,184 2,333 98" stroke="#8ad5ef" fill="none"/><path d="M2 37 C156 72,172 131,334 65" stroke="#81e75f" fill="none"/><path d="M9 115 C157 131,190 9,336 36" stroke="#d4498e" fill="none"/><path d="M14 37 C172 120,190 15,329 64" stroke="#e68ee6" fill="none"/><path d="M3 12 C150 98,165 4,322 3" stroke="#c7ea5b" fill="none"/><path d="M12 36 C153 72,154 114,335 35" stroke="#8567de" fill="none"/></svg>