<svg xmlns="http://www.w3.org/2000/svg" width="342" height="140" viewBox="0,0,342,140"><path d="M12 5 C159 7,173 116,323 113" stroke="#8bcde3" fill="none"/><path d="M11 121 C191 42,192 53,337 92" stroke="#4e72de" fill="none"/><path d="M11 86 C190 116,173 9,324 12" stroke="#bcf188" fill="none"/><path d="M16 123 C152 88,150 121,335 3" stroke="#ebbc8d" fill="none"/><path d="M9 109 C190 64,191 82,336 76" stroke="#8686e3" fill="none"/><path d="M12 94 C192 11,186 18,336 105" stroke="#bc51e0" fill="none"/><path d="M10 46 C169 27,163 46,341 103" stroke="#88ebeb" fill="none"/><path d="M12 75 C169 62,169 20,328 98" stroke="#e69c83" fill="none"/><path d="M20 49 C151 90,180 102,326 83" stroke="#9797e7" fill="none"/><path d="M2 136 C174 115,189 22,340 88" stroke="#4d4de9" fill="none"/><path d="M20 94 C163 10,165 65,331 49" stroke="#bb5adc" fill="none"/><path d="M9 90 C152 128,183 48,329 33" stroke="#cc85e4" fill="none"/><path d="M18 14 C170 18,185 12,340 55" stroke="#ee85d4" fill="none"/><path d="M18 29 C156 56,176 58,332 95" stroke="#d4ef85" fill="none"/><path d="M3 83 C160 85,174 5,332 49" stroke="#7a96ea" fill="none"/><path d="M13 134 C188 137,153 133,337 109" stroke="#6f6fe6" fill="none"/><path d="M16 124 C174 96,172 39,321 73" stroke="#ea7b57" fill="none"/><path d="M10 43 C175 8,163 17,338 58" stroke="#60a5eb" fill="none"/><path d="M13 72 C188 85,191 124,321 122" stroke="#ebeb8e" fill="none"/><path fill="#e448bd" d="M121.35 90.71L121.43 90.79L121.33 90.69Q121.86 92.32 122.72 95.56L122.71 95.56L122.71 95.56Q116.00 93.50 108.60 93.93L108.52 93.85L108.55 93.88Q101.15 94.25 94.72 97.43L94.77 97.47L94.83 97.54Q95.15 96.39 95.21 96.51L95.16 96.46L95.13 96.43Q101.28 90.22 107.58 83.12L107.55 83.09L107.44 82.98Q114.63 75.06 116.53 67.54L116.51 67.52L116.45 67.46Q117.31 64.77 115.26 62.87L115.08 62.69L115.23 62.84Q113.19 60.95 110.31 61.20L110.21 61.09L110.25 61.13Q109.73 61.10 109.18 61.10L109.14 61.07L109.17 61.10Q106.65 61.02 104.63 62.49L104.59 62.45L104.72 62.58Q102.51 64.65 102.88 68.94L102.99 69.05L103.03 69.09Q100.01 68.40 98.06 67.66L98.09 67.69L98.20 67.81Q97.74 65.39 97.62 63.07L97.63 63.08L97.65 63.10Q97.49 60.43 98.47 58.60L98.52 58.64L98.56 58.68Q101.52 56.57 106.91 56.57L106.82 56.48L109.56 56.40L109.68 56.52Q113.31 56.54 114.84 56.73L114.85 56.75L114.84 56.73Q121.71 57.30 122.14 61.21L122.15 61.22L122.23 61.31Q122.40 62.27 122.28 63.56L122.20 63.48L122.25 63.53Q122.24 64.63 122.00 65.73L122.00 65.73L122.03 65.75Q119.29 78.68 107.11 89.69L107.05 89.63L107.09 89.67Q109.43 89.49 111.63 89.49L111.60 89.47L111.68 89.54Q116.74 89.40 121.33 90.69ZM120.38 57.20L120.44 57.25L120.55 57.36Q117.94 56.28 115.18 56.16L115.08 56.05L109.72 55.89L109.72 55.89Q102.43 55.34 98.88 57.11L99.00 57.22L98.91 57.13Q97.28 59.42 97.28 62.73L97.20 62.64L97.21 62.66Q97.31 63.86 97.80 68.39L97.84 68.43L97.81 68.39Q98.69 68.78 100.58 69.27L100.55 69.24L100.57 70.91L100.43 70.77Q100.39 71.53 100.51 72.38L100.56 72.43L100.66 72.53Q102.55 72.58 106.53 72.95L106.62 73.05L106.57 73.00Q106.49 72.37 106.49 71.82L106.51 71.83L106.61 71.93Q106.59 68.97 108.54 66.80L108.40 66.65L108.50 66.75Q110.46 64.59 113.33 64.77L113.31 64.75L113.29 64.72Q114.51 64.78 115.73 65.02L115.76 65.05L115.71 65.00Q115.88 65.60 116.00 66.27L116.16 66.43L116.03 66.30Q116.21 67.10 116.09 67.65L115.95 67.51L116.00 67.56Q113.89 75.12 106.79 82.89L106.98 83.07L106.84 82.93Q103.46 86.59 94.71 96.32L94.70 96.30L94.67 96.28Q94.33 97.58 93.78 98.50L93.79 98.51L93.91 98.64Q96.46 97.20 98.90 96.35L98.91 96.35L98.86 96.30Q97.69 97.22 96.16 99.60L96.22 99.66L96.14 99.58Q95.91 100.09 95.73 100.64L95.81 100.72L95.75 100.66Q103.62 97.39 112.43 97.70L112.41 97.68L112.53 97.80Q121.53 97.93 128.87 101.72L128.92 101.77L127.41 98.43L127.31 98.33Q126.19 96.10 125.76 94.82L125.79 94.84L125.92 94.98Q124.77 94.31 122.81 93.64L122.69 93.52L122.65 93.48Q122.54 92.45 121.93 90.25L121.91 90.23L121.78 90.10Q118.29 89.24 114.62 88.94L114.61 88.93L114.69 89.01Q122.16 81.61 124.60 68.33L124.68 68.40L124.90 63.67L124.92 63.69Q124.84 60.85 122.88 59.75L122.76 59.64L122.85 59.78L122.87 59.80Q122.69 59.56 122.57 59.56L122.60 59.60L122.70 59.70Q122.33 58.35 120.56 57.37Z"/><path d="M2 99 C169 54,159 108,333 104" stroke="#8ae4e4" fill="none"/><path d="M2 66 C186 11,176 118,335 53" stroke="#40bde7" fill="none"/><path d="M4 120 C191 135,152 128,325 19" stroke="#8fe4e4" fill="none"/><path d="M2 131 C166 64,158 74,323 124" stroke="#4949d4" fill="none"/><path d="M10 69 C160 28,178 117,339 79" stroke="#e6a089" fill="none"/><path d="M8 28 C159 94,180 69,334 138" stroke="#b9e240" fill="none"/><path d="M17 126 C160 9,159 81,326 73" stroke="#e9e939" fill="none"/><path d="M18 84 C191 44,166 65,323 72" stroke="#e2597b" fill="none"/><path d="M2 123 C185 63,174 13,339 111" stroke="#68ddc0" fill="none"/><path d="M13 98 C181 10,185 119,324 87" stroke="#8cde71" fill="none"/><path fill="#b587e2" d="M222.99 67.46L222.92 67.38L222.91 67.38Q217.84 67.44 214.90 65.73L214.91 65.74L214.93 65.76Q218.92 63.51 226.75 56.71L226.68 56.64L226.70 56.67Q227.88 56.38 229.96 55.40L230.03 55.47L230.08 55.52Q227.88 65.00 227.69 75.22L227.62 75.14L227.66 75.18Q227.52 85.44 229.23 95.23L229.12 95.12L229.17 95.17Q226.57 94.10 223.15 93.92L223.01 93.78L223.00 93.77Q222.96 87.24 222.96 80.70L222.93 80.67L222.98 80.73Q222.92 74.06 222.99 67.45ZM222.26 70.95L222.38 94.50L222.38 94.50Q224.29 94.45 225.82 94.75L225.86 94.79L225.94 94.87Q226.02 95.94 226.33 98.14L226.34 98.16L226.37 98.18Q230.81 98.89 234.73 102.50L234.81 102.58L234.78 102.56Q230.82 91.13 230.76 79.14L230.68 79.06L230.76 79.14Q230.59 67.10 233.53 55.48L233.51 55.46L233.49 55.44Q232.69 56.17 230.12 57.95L230.04 57.86L230.03 57.86Q230.33 56.63 230.82 54.18L231.01 54.37L230.87 54.23Q228.77 55.49 226.44 56.10L226.45 56.11L226.53 56.19Q220.38 61.85 213.47 65.52L213.44 65.49L213.42 65.47Q215.67 67.24 219.47 67.79L219.46 67.78L219.46 67.77Q218.55 68.77 216.47 70.48L216.34 70.34L216.33 70.34Q218.80 71.03 222.35 71.03L222.31 71.00Z"/><path d="M3 105 C150 127,166 42,334 131" stroke="#e54c99" fill="none"/><path d="M6 137 C169 35,161 94,335 13" stroke="#82cae2" fill="none"/><path d="M13 106 C172 86,173 134,324 134" stroke="#81cae3" fill="none"/><path d="M10 131 C160 113,162 102,336 3" stroke="#f188d6" fill="none"/><path fill="#8debbc" d="M165.33 76.74L165.33 76.74L165.26 76.67Q162.33 76.74 160.37 78.88L160.28 78.79L160.42 78.93Q158.32 80.92 158.07 83.98L158.13 84.05L158.11 84.02Q157.90 87.54 159.85 89.16L159.86 89.17L159.75 89.05Q161.76 90.73 165.18 90.60L165.25 90.67L165.19 90.61Q169.00 90.44 170.52 88.91L170.42 88.81L170.43 88.81Q172.03 86.44 171.84 83.50L171.95 83.61L171.93 83.58Q171.71 80.55 169.96 78.62L169.99 78.65L169.97 78.63Q168.33 76.80 165.39 76.80ZM165.16 61.46L165.28 61.58L165.22 61.52Q162.94 61.32 160.80 62.12L160.89 62.20L160.83 62.15Q158.78 63.46 159.15 66.46L159.19 66.50L159.17 66.48Q159.87 72.38 165.25 72.38L165.41 72.54L165.23 72.36Q167.84 72.77 169.43 70.93L169.32 70.82L169.44 70.94Q171.00 69.08 171.07 66.57L171.07 66.57L171.14 66.64Q171.19 63.76 170.03 62.78L170.09 62.84L170.07 62.82Q167.36 61.45 165.28 61.58ZM164.78 94.54L164.79 94.55L159.85 94.51L160.02 94.68Q157.48 94.58 155.33 93.18L155.26 93.10L155.39 93.23Q153.15 91.36 153.39 86.77L153.31 86.69L153.42 86.80Q154.22 75.85 160.03 74.26L160.02 74.24L159.88 74.11Q156.33 72.75 154.18 64.13L154.20 64.15L154.10 64.05Q153.51 61.74 153.63 60.45L153.75 60.57L153.77 60.59Q154.16 57.07 160.09 57.00L160.19 57.10L160.22 57.13Q166.90 56.90 169.22 57.20L169.30 57.28L169.22 57.20Q175.38 58.03 176.11 61.27L176.24 61.41L176.23 61.40Q176.33 62.29 176.33 62.90L176.27 62.84L176.37 62.94Q176.41 64.08 176.11 65.06L175.99 64.95L176.02 64.98Q175.05 71.77 170.34 74.22L170.29 74.17L170.41 74.30Q176.05 75.59 176.85 84.10L176.73 83.98L176.79 84.04Q176.81 84.31 176.87 86.39L176.91 86.43L176.87 86.39Q177.02 90.82 174.45 92.53L174.45 92.53L174.40 92.48Q172.27 93.96 164.93 94.69ZM168.56 98.39L168.46 98.29L173.89 98.46L173.81 98.38Q176.61 98.54 179.06 97.38L179.08 97.40L178.99 97.31Q180.96 96.28 181.08 93.29L181.10 93.31L181.09 93.30Q181.16 91.53 180.55 88.41L180.58 88.44L180.53 88.39Q179.07 80.94 175.71 77.94L175.72 77.95L175.40 77.32L174.97 76.77L174.90 76.52L174.90 76.52Q177.37 74.15 178.83 67.48L178.85 67.50L178.82 67.47Q178.96 66.99 179.08 65.65L179.08 65.65L179.03 65.60Q179.14 64.48 179.01 63.51L179.12 63.61L179.04 63.53Q178.79 61.20 176.89 60.40L176.95 60.46L176.87 60.32L176.64 60.21L176.65 60.22Q176.24 59.08 174.34 57.79L174.25 57.70L174.45 57.84L174.37 57.76Q171.18 56.65 164.64 56.35L164.56 56.27L164.67 56.38Q162.09 56.13 159.89 56.31L159.93 56.35L160.03 56.45Q158.71 56.47 156.63 56.72L156.61 56.70L156.55 56.64Q153.39 57.21 153.02 59.84L153.09 59.92L153.12 59.94Q153.07 60.75 153.13 62.03L153.11 62.01L153.18 62.08Q153.19 62.76 154.11 66.56L154.19 66.64L154.13 66.58Q155.52 71.88 158.33 74.02L158.34 74.04L158.35 74.05L158.35 74.04Q154.00 76.24 153.14 84.56L153.15 84.57L153.07 84.49Q152.77 88.05 152.77 89.51L152.81 89.55L152.75 89.49Q152.83 92.32 154.72 93.79L154.81 93.88L154.70 93.77Q154.89 93.89 155.32 94.20L155.41 94.30L155.33 94.21Q157.15 98.06 168.60 98.42ZM168.01 80.58L168.05 80.62L168.01 80.58Q169.39 80.38 170.80 81.11L170.77 81.08L170.91 81.22Q171.52 82.81 171.46 83.67L171.47 83.68L171.32 83.53Q171.41 84.04 171.41 84.53L171.48 84.60L171.39 84.52Q171.41 88.33 167.74 89.67L167.70 89.64L167.79 89.72Q166.49 90.20 165.21 90.02L165.21 90.02L165.12 89.93Q163.33 90.10 161.50 89.37L161.63 89.50L161.59 89.46Q161.12 88.37 161.24 86.78L161.36 86.90L161.37 86.91Q161.62 84.35 163.55 82.39L163.51 82.36L163.47 82.31Q165.40 80.36 167.97 80.54ZM168.35 65.32L168.24 65.21L168.36 65.33Q169.69 65.20 170.55 65.44L170.40 65.29L170.51 66.68L170.41 66.58Q170.53 68.97 169.07 70.60L169.05 70.58L169.05 70.58Q167.46 72.08 165.26 71.77L165.29 71.81L165.22 71.74Q163.67 71.77 162.99 71.40L162.97 71.38L163.12 71.53Q162.96 71.01 162.78 69.90L162.79 69.92L162.75 69.88Q162.35 67.64 164.31 66.29L164.37 66.36L164.43 66.42Q166.02 65.19 168.28 65.25Z"/><path d="M15 130 C168 2,178 112,339 134" stroke="#f1bc87" fill="none"/><path d="M3 18 C179 74,158 37,339 101" stroke="#b784ea" fill="none"/><path fill="#62e862" d="M52.08 76.83L52.02 76.76L52.06 76.81Q48.98 76.72 47.02 78.86L47.10 78.94L47.02 78.86Q45.09 81.03 44.85 84.09L44.85 84.09L44.91 84.15Q44.56 87.54 46.52 89.16L46.43 89.07L46.49 89.13Q48.43 90.73 51.85 90.61L51.95 90.70L51.84 90.59Q55.67 90.45 57.20 88.92L57.10 88.82L57.11 88.83Q58.82 86.56 58.63 83.62L58.50 83.49L58.59 83.58Q58.46 80.63 56.71 78.71L56.70 78.69L56.69 78.68Q54.93 76.74 51.99 76.74ZM51.88 61.51L51.88 61.51L51.83 61.47Q49.57 61.28 47.42 62.07L47.46 62.11L47.48 62.13Q45.52 63.53 45.88 66.53L45.75 66.39L45.77 66.41Q46.62 72.47 52.01 72.47L51.97 72.43L51.89 72.35Q54.56 72.82 56.15 70.98L56.16 71.00L56.00 70.83Q57.65 69.05 57.71 66.54L57.81 66.64L57.79 66.63Q57.83 63.73 56.67 62.75L56.77 62.85L56.80 62.88Q53.97 61.40 51.89 61.52ZM51.45 94.55L51.51 94.61L46.67 94.66L46.68 94.67Q44.18 94.62 42.04 93.21L42.00 93.18L41.97 93.15Q39.76 91.30 40.00 86.71L40.04 86.74L40.09 86.80Q40.80 75.76 46.61 74.17L46.70 74.26L46.68 74.24Q43.03 72.79 40.89 64.16L40.83 64.11L40.82 64.09Q40.22 61.78 40.34 60.50L40.37 60.53L40.42 60.58Q40.94 57.18 46.87 57.12L46.87 57.11L46.87 57.11Q53.65 56.98 55.98 57.29L55.97 57.28L55.87 57.18Q62.00 57.99 62.73 61.23L62.79 61.28L62.78 61.27Q62.92 62.21 62.92 62.82L62.95 62.86L62.92 62.82Q63.00 64.01 62.70 64.99L62.71 65.00L62.62 64.91Q61.80 71.86 57.09 74.30L56.98 74.20L57.06 74.28Q62.56 75.43 63.35 83.93L63.40 83.98L63.33 83.92Q63.38 84.21 63.44 86.29L63.56 86.41L63.55 86.40Q63.51 90.65 60.95 92.36L60.94 92.36L61.09 92.51Q58.89 93.91 51.55 94.64ZM55.11 98.27L55.15 98.31L60.61 98.51L60.46 98.36Q63.32 98.59 65.77 97.43L65.74 97.39L65.78 97.43Q67.52 96.18 67.65 93.19L67.62 93.16L67.74 93.28Q67.73 91.43 67.12 88.31L67.22 88.42L67.14 88.33Q65.64 80.84 62.28 77.84L62.35 77.91L61.98 77.24L61.80 76.94L61.44 76.40L61.49 76.45Q64.20 74.32 65.67 67.65L65.64 67.62L65.55 67.53Q65.60 66.97 65.72 65.63L65.77 65.67L65.69 65.60Q65.91 64.59 65.78 63.61L65.78 63.61L65.66 63.49Q65.47 61.22 63.58 60.42L63.52 60.36L63.62 60.40L63.32 60.22L63.38 60.28Q62.90 59.07 61.00 57.78L61.01 57.80L60.95 57.67L60.95 57.68Q57.85 56.65 51.30 56.35L51.29 56.33L51.30 56.34Q48.74 56.11 46.54 56.29L46.63 56.39L46.59 56.34Q45.40 56.50 43.32 56.74L43.23 56.65L43.26 56.69Q40.15 57.30 39.78 59.94L39.74 59.89L39.79 59.94Q39.77 60.78 39.83 62.06L39.74 61.98L39.72 61.96Q39.99 62.90 40.91 66.69L40.92 66.70L40.91 66.69Q42.23 71.93 45.04 74.07L44.92 73.94L45.07 74.10L45.15 74.17Q40.62 76.20 39.77 84.52L39.71 84.46L39.81 84.56Q39.38 87.99 39.38 89.46L39.37 89.45L39.36 89.43Q39.50 92.32 41.39 93.79L41.52 93.92L41.40 93.80Q41.59 93.93 42.02 94.24L42.08 94.29L42.01 94.22Q43.79 98.03 55.23 98.39ZM54.57 80.48L54.58 80.49L54.69 80.59Q55.99 80.31 57.40 81.04L57.40 81.04L57.42 81.07Q58.13 82.75 58.07 83.61L57.95 83.49L58.07 83.61Q58.12 84.09 58.12 84.57L58.14 84.59L58.12 84.57Q58.10 88.35 54.43 89.70L54.50 89.76L54.38 89.65Q53.20 90.24 51.91 90.05L51.90 90.04L51.80 89.95Q50.01 90.11 48.17 89.37L48.16 89.36L48.27 89.48Q47.82 88.41 47.94 86.82L48.02 86.89L47.91 86.79Q48.28 84.34 50.21 82.39L50.06 82.24L50.10 82.28Q51.97 80.27 54.54 80.45ZM55.03 65.33L55.01 65.31L55.00 65.31Q56.25 65.08 57.10 65.33L57.16 65.38L57.10 66.61L57.06 66.56Q57.12 68.89 55.65 70.51L55.61 70.47L55.67 70.53Q54.23 72.19 52.03 71.88L51.98 71.83L52.02 71.87Q50.39 71.83 49.71 71.46L49.79 71.54L49.63 71.38Q49.69 71.06 49.50 69.96L49.48 69.95L49.39 69.85Q49.06 67.69 51.02 66.34L51.05 66.37L51.01 66.33Q52.80 65.31 55.07 65.37Z"/><path d="M10 25 C185 113,179 84,339 110" stroke="#67dd40" fill="none"/><path fill="#e15578" d="M272.36 82.79L272.29 82.72L272.26 82.69Q277.40 82.27 282.54 82.45L282.47 82.38L282.39 82.30Q282.33 78.20 282.33 74.35L282.29 74.31L282.38 74.40Q282.30 70.35 282.61 66.25L282.76 66.40L282.73 66.37Q280.70 69.05 272.32 82.76ZM288.34 94.68L288.23 94.57L288.23 94.56Q285.50 94.04 282.63 93.92L282.70 93.99L282.62 93.91Q282.44 90.25 282.26 86.27L282.14 86.15L282.22 86.23Q273.65 85.93 266.07 88.19L266.13 88.25L266.12 88.24Q266.33 87.48 266.64 85.88L266.63 85.87L266.51 85.76Q269.46 80.75 275.21 70.65L275.11 70.56L275.23 70.67Q279.84 62.81 285.35 56.57L285.39 56.61L285.29 56.51Q286.77 56.27 289.46 55.84L289.44 55.82L289.35 55.74Q286.32 66.10 286.32 77.42L286.27 77.37L286.45 77.55Q286.33 79.82 286.45 82.20L286.48 82.23L288.53 82.39L288.60 82.45Q289.63 82.56 290.61 82.75L290.49 82.63L290.57 82.71Q290.64 84.19 291.07 87.31L291.21 87.45L291.19 87.43Q289.13 86.90 286.75 86.60L286.88 86.73L286.87 86.72Q287.24 89.97 288.34 94.68ZM290.86 81.96L290.85 81.95L290.95 82.06Q290.70 81.99 290.39 81.99L290.30 81.89L289.71 81.91L289.79 81.99Q289.51 79.51 289.51 77.24L289.62 77.36L289.48 77.22Q289.48 66.94 292.79 57.27L292.79 57.27L292.86 57.35Q291.71 57.85 289.39 58.46L289.35 58.42L289.34 58.41Q289.67 57.15 290.40 54.89L290.47 54.96L290.44 54.93Q288.29 55.47 284.99 55.84L285.11 55.96L285.12 55.97Q278.66 62.79 270.28 77.84L270.38 77.94L273.67 71.99L273.62 71.94Q272.98 73.63 272.55 74.55L272.67 74.67L265.36 89.01L265.38 89.04Q266.56 88.93 268.40 88.32L268.32 88.24L268.03 88.56L267.98 88.51Q267.86 89.67 267.37 91.69L267.34 91.67L267.43 91.75Q274.01 89.58 281.78 89.89L281.80 89.91L281.83 89.94Q281.90 91.48 282.21 94.66L282.23 94.68L282.07 94.52Q283.93 94.67 285.64 94.86L285.66 94.87L285.56 94.77Q285.80 95.87 286.23 98.07L286.17 98.02L286.26 98.10Q289.39 98.54 294.22 100.01L294.12 99.91L294.13 99.92Q292.63 96.58 291.16 91.32L291.01 91.17L293.33 91.90L293.35 91.92Q294.59 92.42 295.69 92.97L295.65 92.93L295.59 92.87Q294.34 88.87 294.10 86.18L294.04 86.12L294.03 86.11Q293.19 85.94 291.35 85.58L291.36 85.59L291.34 85.56Q290.98 83.49 290.98 82.09ZM278.02 81.72L278.17 81.88L278.05 81.76Q279.31 79.71 281.82 75.61L281.77 75.57L281.92 75.71Q281.93 77.25 281.87 78.78L281.79 78.71L281.79 78.70Q281.70 80.21 281.76 81.74L281.91 81.89L281.82 81.80Q280.99 81.82 280.08 81.82L280.06 81.81L279.90 81.65Q279.00 81.72 278.02 81.72Z"/><path d="M8 27 C187 86,164 96,338 108" stroke="#ef84ef" fill="none"/><path d="M8 40 C186 37,167 92,326 50" stroke="#6ade44" fill="none"/><path d="M17 131 C180 7,180 96,322 21" stroke="#4242d5" fill="none"/><path d="M20 48 C183 39,163 135,337 94" stroke="#e79340" fill="none"/></svg>