<svg xmlns="http://www.w3.org/2000/svg" width="342" height="140" viewBox="0,0,342,140"><path d="M2 63 C187 71,165 59,329 78" stroke="#dd7373" fill="none"/><path d="M11 104 C189 13,160 15,336 17" stroke="#4c74ea" fill="none"/><path d="M4 110 C163 60,162 79,339 108" stroke="#e56686" fill="none"/><path d="M6 34 C152 82,152 135,340 106" stroke="#eba35a" fill="none"/><path d="M2 135 C157 133,162 6,331 74" stroke="#aa70e4" fill="none"/><path d="M6 50 C170 7,163 106,331 61" stroke="#de5e9e" fill="none"/><path d="M13 98 C178 87,164 17,328 100" stroke="#b84add" fill="none"/><path d="M1 16 C153 86,173 53,332 131" stroke="#e2a86e" fill="none"/><path d="M3 40 C187 19,183 118,335 35" stroke="#ea5ba3" fill="none"/><path d="M14 40 C170 133,157 38,331 11" stroke="#6182e5" fill="none"/><path d="M7 14 C164 17,162 75,338 7" stroke="#80e9e9" fill="none"/><path d="M8 63 C174 63,189 48,338 77" stroke="#87b7e8" fill="none"/><path d="M16 2 C177 98,191 106,337 2" stroke="#42db8e" fill="none"/><path d="M10 108 C186 52,153 137,330 101" stroke="#da5274" fill="none"/><path d="M10 102 C156 90,177 13,323 77" stroke="#db61db" fill="none"/><path fill="#aadf75" d="M104.09 93.07L103.99 92.98L103.97 92.95Q101.97 93.18 99.63 92.55L99.57 92.49L99.53 92.46Q97.72 91.10 97.49 88.65L97.50 88.66L97.53 88.69Q97.37 88.29 97.65 84.35L97.69 84.40L97.74 84.44Q99.24 84.11 102.27 83.54L102.40 83.68L101.99 84.69L102.01 84.72Q101.71 87.44 103.83 88.30L103.82 88.30L103.76 88.24Q104.95 88.74 108.09 88.74L108.02 88.67L108.11 88.77Q110.45 88.47 110.73 88.36L110.85 88.47L110.70 88.32Q112.16 88.18 113.24 87.44L113.27 87.46L113.29 87.48Q115.42 86.07 115.13 82.93L114.99 82.79L115.10 82.91Q114.85 79.29 112.25 76.94L112.12 76.81L112.13 76.82Q109.55 74.50 105.84 74.50L105.81 74.47L105.93 74.24L105.79 74.10Q106.36 74.04 107.67 73.93L107.80 74.06L107.78 74.04Q110.68 73.91 112.73 72.05L112.60 71.92L112.62 71.94Q114.78 70.19 115.00 67.39L114.90 67.29L114.92 67.31Q115.10 66.86 115.10 66.34L114.99 66.23L115.05 66.29Q115.12 64.08 113.06 62.71L112.96 62.60L113.04 62.68Q111.23 61.50 108.83 61.67L108.69 61.53L108.74 61.58Q106.75 61.30 104.92 61.93L105.05 62.06L104.98 61.99Q102.84 62.82 102.38 64.53L102.31 64.46L102.46 64.61Q102.16 65.74 102.28 66.88L102.30 66.90L102.30 66.90Q100.62 66.42 97.53 65.34L97.57 65.37L97.49 65.29Q97.17 62.80 97.23 61.55L97.20 61.52L97.35 61.67Q97.54 59.40 99.13 58.37L99.15 58.38L99.14 58.37Q101.08 57.29 103.47 57.29L103.61 57.42L103.48 57.29Q108.28 57.30 113.02 57.69L113.02 57.69L113.08 57.75Q120.64 58.35 120.18 64.00L120.16 63.98L120.21 64.02Q120.14 66.30 119.40 68.64L119.26 68.50L119.32 68.56Q117.88 73.12 114.34 74.49L114.34 74.49L114.35 74.50Q118.29 75.30 119.20 80.32L119.30 80.42L119.26 80.39Q119.53 82.02 119.64 85.05L119.74 85.14L119.68 85.08Q120.00 91.86 113.09 92.54L113.01 92.46L113.13 92.58Q111.94 92.59 104.00 92.99ZM111.88 96.41L111.80 96.33L111.86 96.40Q112.86 96.53 117.14 96.65L117.05 96.56L117.01 96.52Q119.57 96.57 122.03 95.60L122.21 95.78L122.16 95.73Q123.84 94.21 123.55 91.58L123.57 91.60L123.66 91.69Q123.41 89.61 122.95 86.98L123.01 87.04L123.06 87.09Q121.85 80.23 118.94 77.78L118.92 77.75L118.71 77.26L118.63 77.12L118.63 77.12Q121.36 75.05 122.50 68.49L122.41 68.40L122.33 68.32Q122.39 67.63 122.56 66.21L122.73 66.37L122.71 66.36Q122.80 65.19 122.69 64.17L122.62 64.10L122.64 64.12Q122.48 61.67 120.54 60.64L120.52 60.63L120.31 60.54L120.37 60.59Q119.93 59.13 118.22 58.33L118.28 58.39L118.15 58.26Q115.94 57.30 108.23 56.84L108.19 56.80L108.26 56.87Q105.77 56.79 103.37 56.79L103.24 56.65L103.35 56.76Q100.84 56.65 98.56 57.62L98.66 57.72L98.62 57.68Q96.73 58.76 96.73 61.39L96.82 61.48L96.69 61.35Q96.83 60.87 97.23 65.89L97.27 65.92L97.24 65.90Q97.61 65.92 100.06 66.83L100.16 66.93L100.03 66.81Q100.04 67.61 99.98 68.35L100.03 68.41L100.07 68.45Q100.05 69.16 100.10 69.96L100.10 69.96L100.15 70.01Q102.74 70.49 105.77 70.66L105.89 70.78L105.80 70.69Q105.67 67.65 107.33 66.39L107.26 66.33L107.24 66.30Q108.62 65.46 111.65 65.12L111.71 65.18L111.71 65.18Q113.32 65.07 114.17 65.36L114.15 65.33L114.26 65.44Q114.23 65.53 114.29 65.70L114.29 65.70L114.36 66.06L114.40 66.78L114.49 66.87Q114.55 67.22 114.49 67.45L114.33 67.28L114.32 67.27Q114.30 69.94 112.01 71.71L112.12 71.81L112.12 71.81Q110.69 73.12 107.66 73.41L107.58 73.33L107.70 73.44Q106.44 73.50 105.13 73.50L105.26 73.64L105.27 73.64Q105.19 74.02 105.42 75.05L105.42 75.05L105.45 75.08Q108.16 75.16 110.33 76.25L110.35 76.27L110.07 76.16L107.75 76.47L107.85 76.57Q107.91 77.08 108.08 78.00L108.03 77.94L107.95 77.86Q111.27 77.87 113.84 79.87L113.80 79.83L113.77 79.80Q114.22 80.48 114.68 82.94L114.51 82.76L114.55 82.81Q114.83 87.20 110.43 87.83L110.42 87.82L110.55 87.95Q107.33 88.26 106.47 88.20L106.56 88.29L106.58 88.31Q105.81 88.06 105.01 87.94L105.01 87.95L105.02 87.27L105.15 86.54L105.22 85.98L105.27 85.52L105.21 85.46Q103.81 85.60 102.61 85.88L102.67 85.95L102.73 86.00Q102.64 85.63 102.64 85.34L102.68 85.38L102.66 85.37Q102.56 84.92 102.56 84.58L102.59 84.61L102.59 84.61Q102.75 84.08 102.97 83.00L102.99 83.02L102.97 82.99Q100.11 83.28 97.31 83.79L97.42 83.90L97.35 83.83Q97.25 84.46 97.08 86.15L97.18 86.25L97.19 86.26Q96.95 87.88 96.95 88.79L96.98 88.83L97.09 88.93Q97.03 91.84 99.09 92.99L99.10 93.00L99.24 93.14Q101.36 96.46 108.44 96.17L108.44 96.17L108.48 96.21Q109.48 96.07 111.76 96.30Z"/><path d="M7 134 C159 21,180 137,335 58" stroke="#e69292" fill="none"/><path d="M16 116 C183 80,166 41,329 18" stroke="#e443bc" fill="none"/><path d="M5 22 C183 6,179 48,336 130" stroke="#d953d9" fill="none"/><path d="M11 33 C153 68,158 115,336 1" stroke="#9eea84" fill="none"/><path d="M2 76 C164 77,166 109,340 27" stroke="#5de37f" fill="none"/><path d="M18 131 C177 107,153 86,326 130" stroke="#f18383" fill="none"/><path d="M18 114 C161 78,165 81,336 42" stroke="#e77d7d" fill="none"/><path d="M13 80 C172 40,156 18,338 112" stroke="#5376de" fill="none"/><path d="M6 103 C176 68,172 52,335 42" stroke="#8dde72" fill="none"/><path fill="#84e5e5" d="M273.09 81.94L273.01 81.86L273.13 81.98Q277.79 81.45 282.59 81.62L282.60 81.63L282.41 81.44Q282.35 77.61 282.35 74.01L282.41 74.08L282.54 74.20Q282.44 70.39 282.72 66.56L282.77 66.61L282.76 66.60Q280.87 69.10 273.04 81.90ZM287.85 92.88L287.98 93.00L287.91 92.93Q285.52 92.60 282.83 92.48L282.80 92.45L282.69 92.35Q282.47 88.87 282.30 85.15L282.20 85.05L282.26 85.12Q274.26 84.83 267.18 86.94L267.24 87.00L267.26 87.02Q267.40 86.25 267.69 84.76L267.72 84.80L267.56 84.63Q270.41 80.06 275.77 70.63L275.74 70.60L275.74 70.60Q280.09 63.31 285.23 57.48L285.24 57.48L285.13 57.37Q286.41 57.06 288.92 56.66L289.01 56.75L289.07 56.81Q286.21 66.45 286.21 77.02L286.16 76.96L286.12 76.93Q286.12 79.15 286.23 81.38L286.30 81.45L288.27 81.64L288.16 81.54Q289.14 81.66 290.06 81.84L290.02 81.79L290.14 81.92Q290.25 83.34 290.65 86.25L290.67 86.27L290.71 86.31Q288.87 85.90 286.64 85.62L286.65 85.62L286.63 85.61Q286.85 88.51 287.88 92.91ZM290.45 81.26L290.41 81.21L290.50 81.31Q290.10 81.08 289.81 81.08L289.87 81.13L289.22 81.06L289.30 81.13Q289.10 78.88 289.10 76.76L289.12 76.78L289.20 76.87Q289.16 67.24 292.25 58.21L292.30 58.27L292.26 58.22Q290.99 58.50 288.82 59.07L288.87 59.11L288.88 59.13Q289.30 58.06 289.98 55.95L289.90 55.87L289.98 55.95Q287.94 56.42 284.86 56.76L284.97 56.88L284.90 56.81Q278.95 63.25 271.13 77.30L271.22 77.39L274.28 71.83L274.42 71.97Q273.66 73.37 273.26 74.23L273.22 74.19L266.54 87.72L266.53 87.72Q267.66 87.65 269.38 87.08L269.30 87.00L269.05 87.33L269.10 87.37Q268.96 88.44 268.51 90.32L268.44 90.26L268.40 90.21Q274.66 88.30 281.91 88.59L281.87 88.55L281.83 88.51Q281.90 89.95 282.19 92.92L282.31 93.04L282.23 92.96Q283.92 93.05 285.52 93.23L285.40 93.11L285.39 93.10Q285.57 94.07 285.97 96.13L286.03 96.20L286.09 96.26Q288.91 96.56 293.42 97.93L293.44 97.95L293.32 97.83Q291.99 94.79 290.62 89.88L290.60 89.86L292.65 90.43L292.80 90.58Q293.68 90.77 294.71 91.28L294.70 91.27L294.77 91.34Q293.55 87.56 293.32 85.04L293.42 85.14L293.27 84.99Q292.49 84.84 290.78 84.50L290.75 84.46L290.78 84.50Q290.37 82.49 290.37 81.17ZM278.50 81.07L278.40 80.97L278.42 80.99Q279.65 79.14 281.99 75.31L282.00 75.32L281.98 75.30Q281.94 76.69 281.89 78.12L281.80 78.03L281.85 78.09Q281.80 79.52 281.86 80.95L281.91 80.99L281.87 80.96Q281.12 81.01 280.26 81.01L280.21 80.95L280.17 80.91Q279.35 81.01 278.44 81.01Z"/><path d="M14 80 C182 108,172 46,332 10" stroke="#91da47" fill="none"/><path d="M12 103 C186 110,191 66,339 101" stroke="#5be5a0" fill="none"/><path d="M5 40 C157 11,189 50,326 3" stroke="#e877e8" fill="none"/><path d="M14 7 C185 29,180 115,324 29" stroke="#ad79e1" fill="none"/><path d="M10 96 C189 66,168 52,327 21" stroke="#91a7e7" fill="none"/><path d="M4 42 C175 81,189 129,337 48" stroke="#e4957b" fill="none"/><path fill="#4545d3" d="M52.23 76.22L52.34 76.32L52.21 76.19Q49.58 76.36 47.75 78.36L47.63 78.24L47.63 78.24Q45.79 80.22 45.56 83.08L45.71 83.23L45.52 83.03Q45.38 86.38 47.21 87.89L47.08 87.76L47.07 87.75Q49.06 89.43 52.26 89.32L52.16 89.22L52.11 89.17Q55.62 88.97 57.05 87.54L57.19 87.68L57.16 87.65Q58.63 85.41 58.46 82.67L58.43 82.64L58.40 82.61Q58.33 79.91 56.70 78.11L56.66 78.08L56.67 78.08Q54.94 76.18 52.20 76.18ZM52.18 62.06L52.23 62.11L52.17 62.04Q50.07 61.89 48.07 62.63L48.13 62.69L48.03 62.59Q46.26 63.96 46.60 66.76L46.50 66.66L46.57 66.73Q47.27 72.28 52.30 72.28L52.21 72.19L52.37 72.36Q54.64 72.57 56.13 70.86L56.10 70.83L56.21 70.94Q57.65 69.18 57.70 66.84L57.75 66.89L57.65 66.78Q57.83 64.23 56.75 63.32L56.69 63.25L56.77 63.34Q54.15 61.97 52.21 62.09ZM51.84 92.95L51.87 92.99L47.21 92.89L47.18 92.86Q44.89 92.86 42.90 91.55L43.02 91.68L42.90 91.55Q40.84 89.83 41.07 85.55L41.12 85.60L41.12 85.61Q41.83 75.35 47.26 73.87L47.19 73.80L47.24 73.85Q43.75 72.42 41.76 64.37L41.93 64.54L41.77 64.38Q41.29 62.30 41.40 61.10L41.37 61.07L41.47 61.17Q41.96 58.01 47.50 57.95L47.39 57.84L47.46 57.91Q53.69 57.69 55.86 57.98L55.92 58.04L55.97 58.08Q61.75 58.90 62.44 61.92L62.48 61.96L62.42 61.91Q62.61 62.84 62.61 63.41L62.57 63.36L62.67 63.47Q62.55 64.38 62.27 65.29L62.33 65.36L62.30 65.33Q61.35 71.63 56.95 73.91L56.97 73.93L57.02 73.98Q62.20 75.10 62.94 83.04L62.99 83.09L63.00 83.10Q62.94 83.27 63.00 85.21L63.08 85.29L63.13 85.34Q63.09 89.30 60.70 90.90L60.65 90.86L60.81 91.02Q58.64 92.22 51.79 92.90ZM55.27 96.45L55.24 96.41L60.35 96.61L60.35 96.61Q62.83 96.64 65.11 95.55L65.09 95.52L65.05 95.49Q66.77 94.40 66.88 91.61L66.94 91.66L67.03 91.75Q66.95 89.96 66.37 87.05L66.37 87.04L66.54 87.21Q65.17 80.25 62.03 77.45L61.92 77.34L61.60 76.73L61.31 76.33L61.19 76.03L61.25 76.10Q63.60 73.93 64.97 67.71L65.04 67.78L64.98 67.73Q65.02 67.19 65.13 65.93L65.14 65.94L65.04 65.84Q65.18 64.83 65.06 63.92L65.07 63.93L65.06 63.92Q64.84 61.75 63.07 61.01L63.11 61.05L63.15 61.04L62.84 60.84L62.85 60.85Q62.47 59.78 60.70 58.58L60.71 58.59L60.73 58.56L60.71 58.54Q57.82 57.59 51.71 57.30L51.74 57.34L51.65 57.25Q49.39 57.15 47.33 57.33L47.35 57.35L47.21 57.20Q46.08 57.33 44.14 57.56L44.14 57.56L44.10 57.52Q41.25 58.16 40.91 60.61L40.83 60.53L40.84 60.54Q40.74 61.24 40.79 62.43L40.96 62.60L40.94 62.58Q41.13 63.40 41.99 66.94L41.97 66.92L41.97 66.92Q43.10 71.71 45.73 73.71L45.76 73.74L45.91 73.89L45.89 73.87Q41.71 75.80 40.91 83.57L40.93 83.58L40.85 83.51Q40.62 86.88 40.62 88.25L40.56 88.19L40.51 88.14Q40.61 90.80 42.38 92.17L42.43 92.22L42.57 92.36Q42.69 92.42 43.09 92.71L42.96 92.58L43.08 92.70Q44.55 96.05 55.23 96.40ZM54.69 79.75L54.70 79.77L54.66 79.73Q56.06 79.64 57.37 80.33L57.49 80.44L57.49 80.44Q57.97 81.84 57.91 82.64L57.94 82.66L57.88 82.61Q58.00 83.12 58.00 83.58L58.01 83.59L58.04 83.63Q57.94 87.07 54.52 88.32L54.67 88.48L54.61 88.41Q53.29 88.75 52.09 88.58L52.24 88.73L52.21 88.70Q50.55 88.87 48.84 88.18L48.81 88.15L48.91 88.25Q48.40 87.17 48.51 85.69L48.47 85.64L48.59 85.76Q48.77 83.32 50.57 81.49L50.58 81.50L50.58 81.50Q52.36 79.65 54.76 79.83ZM55.14 65.65L55.18 65.69L55.13 65.63Q56.29 65.43 57.09 65.65L57.14 65.70L57.11 66.87L57.10 66.86Q57.12 69.00 55.75 70.51L55.70 70.46L55.82 70.58Q54.44 72.08 52.38 71.80L52.37 71.78L52.24 71.66Q50.88 71.78 50.25 71.44L50.16 71.35L50.25 71.44Q50.07 70.91 49.90 69.88L50.01 70.00L49.99 69.98Q49.53 67.80 51.36 66.55L51.29 66.48L51.47 66.66Q52.94 65.51 55.06 65.56Z"/><path d="M8 123 C161 51,168 136,336 8" stroke="#7bdfdf" fill="none"/><path d="M19 109 C186 33,150 137,327 78" stroke="#e86888" fill="none"/><path d="M19 65 C175 12,153 139,324 6" stroke="#eeee80" fill="none"/><path d="M9 56 C169 110,185 72,323 80" stroke="#99eb7e" fill="none"/><path d="M13 111 C173 120,159 109,327 132" stroke="#7ef0b7" fill="none"/><path d="M14 17 C175 43,182 60,326 85" stroke="#b2e183" fill="none"/><path fill="#693fe8" d="M161.73 93.14L161.74 93.15L161.75 93.16Q155.64 93.50 154.15 90.01L154.16 90.02L153.99 89.85Q155.30 88.60 157.64 85.91L157.55 85.81L157.52 85.79Q158.27 88.82 162.78 88.99L162.82 89.03L162.79 89.00Q167.98 89.22 170.44 87.23L170.26 87.05L170.37 87.16Q172.43 84.71 172.31 80.65L172.27 80.60L172.30 80.64Q172.06 73.03 164.87 73.37L164.96 73.47L164.90 73.41Q160.63 73.60 158.01 75.48L157.98 75.45L157.55 75.25L157.27 75.09L157.32 75.14Q157.70 70.26 157.52 66.15L157.52 66.14L157.66 66.28Q157.35 62.21 156.84 57.24L156.92 57.32L156.88 57.28Q162.42 58.76 168.13 58.59L168.12 58.59L168.13 58.59Q173.80 58.43 179.16 56.55L179.18 56.56L178.43 58.95L178.41 58.94Q177.81 59.94 177.53 61.19L177.64 61.31L177.60 61.26Q172.83 62.72 167.01 62.72L167.18 62.90L167.00 62.71Q164.88 62.76 162.65 62.53L162.74 62.62L162.74 62.63Q162.51 63.54 162.00 70.22L162.05 70.27L162.16 70.38Q163.29 69.57 166.37 69.34L166.43 69.40L166.33 69.30Q172.03 69.74 174.20 72.26L174.24 72.30L174.17 72.23Q176.18 74.46 176.58 80.23L176.57 80.22L176.68 80.34Q177.05 86.58 175.22 89.61L175.24 89.63L175.25 89.64Q172.22 92.49 167.25 92.83L167.11 92.69L167.28 92.86Q165.61 92.79 161.61 93.02ZM170.81 96.56L170.78 96.54L170.66 96.42Q175.94 96.67 178.80 95.02L178.66 94.87L178.68 94.90Q180.16 92.61 180.16 89.47L180.13 89.44L180.30 89.61Q180.19 84.88 178.77 78.71L178.88 78.83L178.73 78.67Q178.27 76.15 176.44 74.04L176.48 74.08L176.47 74.13L176.11 73.65L175.69 73.46L175.59 73.36Q175.18 72.32 174.21 71.29L174.11 71.19L174.22 71.36L174.26 71.41Q171.82 68.73 166.28 68.73L166.32 68.78L166.03 68.88L165.94 68.80Q166.11 67.99 166.40 66.34L166.29 66.23L166.29 66.23Q173.80 66.43 179.85 63.98L179.86 63.99L179.84 63.97Q180.46 61.84 181.88 57.62L182.01 57.74L178.71 59.01L178.81 59.11Q179.37 57.38 180.11 55.67L180.20 55.76L180.19 55.75Q174.26 57.76 168.09 57.87L168.12 57.90L168.15 57.93Q162.05 58.16 156.11 56.51L156.16 56.56L156.05 56.45Q157.11 63.10 157.11 69.73L157.14 69.76L157.08 69.70Q157.11 72.59 156.94 75.44L157.00 75.50L156.93 75.43Q157.30 75.69 158.15 76.14L158.24 76.23L158.17 76.16Q158.62 75.75 159.59 75.24L159.58 75.23L159.63 75.28Q159.56 76.41 159.22 78.69L159.20 78.68L159.36 78.83Q159.80 78.93 160.43 79.27L160.49 79.34L160.48 79.32Q164.69 76.73 167.48 76.73L167.44 76.69L167.47 76.72Q169.43 76.68 171.20 77.66L171.30 77.75L171.32 77.77Q171.84 79.33 171.90 80.75L171.84 80.69L171.83 80.68Q171.92 84.54 170.38 86.20L170.37 86.19L170.31 86.12Q168.32 88.02 164.95 88.36L164.90 88.32L164.94 88.35Q163.47 88.43 162.45 88.31L162.48 88.35L162.53 88.40Q161.21 88.17 160.07 87.65L160.20 87.78L160.01 87.31L159.90 87.54L159.88 87.52Q158.76 86.86 157.96 84.86L157.86 84.76L157.96 84.86Q155.91 86.92 153.40 90.12L153.35 90.06L153.48 90.19Q153.84 91.07 155.10 92.50L155.04 92.44L155.03 92.43Q156.76 95.31 160.99 96.05L160.90 95.97L160.93 95.99Q162.75 96.39 170.80 96.56Z"/><path d="M17 106 C192 97,161 71,334 134" stroke="#b74cdb" fill="none"/><path fill="#e5ca7a" d="M217.36 93.01L217.30 92.95L217.43 93.08Q215.25 93.13 212.91 92.50L212.94 92.54L212.86 92.45Q211.08 91.14 210.86 88.68L210.81 88.64L210.87 88.69Q210.89 88.48 211.17 84.54L211.08 84.45L211.08 84.45Q212.63 84.17 215.65 83.60L215.57 83.51L215.27 84.64L215.28 84.65Q214.95 87.35 217.06 88.20L217.01 88.15L216.99 88.13Q218.33 88.79 221.48 88.79L221.35 88.67L221.31 88.63Q223.74 88.43 224.03 88.32L224.16 88.45L224.14 88.43Q225.38 88.07 226.47 87.33L226.47 87.34L226.58 87.45Q228.69 86.01 228.40 82.87L228.42 82.89L228.48 82.95Q228.19 79.29 225.59 76.95L225.52 76.88L225.43 76.79Q222.95 74.56 219.24 74.56L219.13 74.46L219.16 74.14L219.21 74.20Q219.71 74.06 221.02 73.95L221.06 73.99L221.07 73.99Q224.01 73.91 226.07 72.06L226.06 72.05L225.93 71.92Q227.95 70.03 228.18 67.23L228.30 67.35L228.23 67.28Q228.31 66.73 228.31 66.22L228.46 66.37L228.39 66.30Q228.44 64.06 226.38 62.69L226.31 62.62L226.31 62.62Q224.46 61.40 222.06 61.57L222.08 61.58L222.13 61.64Q220.12 61.34 218.29 61.97L218.30 61.98L218.23 61.91Q216.09 62.73 215.63 64.45L215.74 64.56L215.78 64.60Q215.38 65.62 215.49 66.77L215.56 66.83L215.57 66.84Q214.09 66.56 211.01 65.47L210.91 65.38L210.97 65.44Q210.65 62.95 210.71 61.69L210.66 61.64L210.69 61.68Q210.78 59.31 212.38 58.28L212.32 58.23L212.42 58.32Q214.50 57.38 216.90 57.38L216.89 57.36L216.84 57.32Q221.58 57.26 226.32 57.66L226.32 57.66L226.35 57.69Q233.90 58.27 233.44 63.93L233.44 63.93L233.50 63.99Q233.46 66.29 232.72 68.63L232.70 68.61L232.74 68.65Q231.39 73.30 227.85 74.67L227.84 74.66L227.74 74.56Q231.59 75.27 232.51 80.29L232.60 80.38L232.63 80.42Q233.00 82.16 233.11 85.18L232.97 85.04L233.12 85.19Q233.31 91.84 226.40 92.52L226.42 92.54L226.30 92.42Q225.26 92.58 217.32 92.98ZM225.23 96.43L225.17 96.37L225.27 96.47Q226.02 96.36 230.30 96.47L230.35 96.53L230.43 96.60Q232.99 96.65 235.44 95.68L235.43 95.66L235.36 95.60Q237.17 94.21 236.89 91.59L236.97 91.67L237.03 91.72Q236.78 89.65 236.33 87.03L236.23 86.93L236.31 87.01Q235.21 80.26 232.30 77.80L232.41 77.91L231.99 77.21L232.00 77.16L231.94 77.10Q234.61 74.97 235.75 68.41L235.82 68.48L235.70 68.35Q235.89 67.81 236.06 66.38L235.95 66.27L235.92 66.23Q236.05 65.11 235.94 64.08L235.91 64.05L236.07 64.22Q235.76 61.62 233.82 60.59L233.76 60.54L233.63 60.52L233.73 60.61Q233.20 59.06 231.49 58.26L231.45 58.22L231.46 58.23Q229.21 57.23 221.50 56.78L221.52 56.80L221.49 56.77Q219.07 56.75 216.67 56.75L216.58 56.66L216.58 56.65Q214.16 56.63 211.87 57.61L211.95 57.68L211.91 57.64Q210.02 58.72 210.02 61.35L210.15 61.48L210.08 61.41Q210.20 60.90 210.60 65.93L210.58 65.90L210.58 65.91Q210.99 65.97 213.45 66.89L213.35 66.79L213.38 66.82Q213.37 67.61 213.31 68.35L213.37 68.41L213.41 68.44Q213.30 69.08 213.35 69.88L213.34 69.86L213.47 69.99Q216.08 70.49 219.11 70.67L219.10 70.66L219.17 70.73Q219.09 67.73 220.74 66.47L220.68 66.41L220.58 66.31Q221.94 65.45 224.97 65.11L224.91 65.05L224.96 65.10Q226.76 65.18 227.62 65.47L227.57 65.42L227.49 65.34Q227.54 65.51 227.60 65.68L227.54 65.62L227.64 66.01L227.89 66.95L227.84 66.89Q227.86 67.19 227.80 67.42L227.66 67.28L227.66 67.28Q227.55 69.86 225.27 71.63L225.28 71.64L225.42 71.78Q223.97 73.07 220.94 73.35L220.91 73.32L220.88 73.29Q219.78 73.50 218.47 73.50L218.49 73.53L218.66 73.70Q218.56 74.06 218.79 75.08L218.85 75.15L218.86 75.15Q221.49 75.16 223.66 76.24L223.63 76.21L223.44 76.20L221.22 76.60L221.03 76.41Q221.16 77.00 221.33 77.91L221.31 77.89L221.44 78.02Q224.51 77.78 227.08 79.78L227.07 79.77L227.03 79.73Q227.53 80.46 227.99 82.91L227.84 82.77L227.88 82.81Q228.15 87.18 223.75 87.81L223.77 87.83L223.86 87.93Q220.60 88.20 219.74 88.14L219.81 88.21L219.82 88.23Q219.07 87.99 218.27 87.87L218.38 87.98L218.41 87.33L218.57 86.63L218.54 85.97L218.61 85.52L218.65 85.57Q217.13 85.59 215.93 85.88L215.97 85.91L216.06 86.01Q215.93 85.58 215.93 85.30L215.97 85.34L215.85 85.22Q215.99 85.03 215.99 84.68L216.06 84.74L215.91 84.60Q216.05 84.05 216.28 82.97L216.26 82.95L216.24 82.93Q213.56 83.39 210.76 83.90L210.62 83.76L210.63 83.77Q210.66 84.55 210.49 86.23L210.53 86.27L210.42 86.16Q210.25 87.85 210.25 88.76L210.43 88.94L210.34 88.85Q210.43 91.91 212.48 93.05L212.53 93.09L212.55 93.11Q214.68 96.44 221.76 96.16L221.87 96.26L221.81 96.21Q222.80 96.06 225.09 96.29Z"/><path d="M16 110 C157 109,190 118,328 53" stroke="#eb8260" fill="none"/><path d="M14 82 C170 43,157 48,327 87" stroke="#bbdc5a" fill="none"/><path d="M5 8 C169 132,189 71,340 89" stroke="#45d78e" fill="none"/></svg>