<svg xmlns="http://www.w3.org/2000/svg" width="342" height="140" viewBox="0,0,342,140"><path d="M10 50 C180 70,167 37,325 66" stroke="#e1e13b" fill="none"/><path d="M1 56 C151 33,184 28,324 96" stroke="#6fe08c" fill="none"/><path d="M18 139 C192 5,191 105,328 33" stroke="#69e788" fill="none"/><path d="M10 41 C180 136,155 23,326 112" stroke="#ea4c74" fill="none"/><path d="M11 137 C165 81,191 119,331 20" stroke="#c6e273" fill="none"/><path d="M11 43 C191 67,153 34,336 15" stroke="#e475ad" fill="none"/><path d="M14 94 C188 109,150 37,340 74" stroke="#ad6eec" fill="none"/><path d="M8 61 C168 23,167 133,330 132" stroke="#75eaea" fill="none"/><path d="M16 69 C165 100,181 108,339 31" stroke="#5ede9e" fill="none"/><path d="M2 105 C161 42,182 94,326 44" stroke="#eb9d83" fill="none"/><path d="M20 129 C185 22,181 39,323 56" stroke="#c6e273" fill="none"/><path d="M11 51 C154 135,170 79,328 91" stroke="#44d869" fill="none"/><path d="M10 51 C171 137,175 70,335 138" stroke="#aae273" fill="none"/><path d="M16 42 C173 115,171 14,334 78" stroke="#82e2ca" fill="none"/><path d="M6 93 C151 3,166 14,329 34" stroke="#7fe07f" fill="none"/><path d="M8 33 C157 67,185 96,326 122" stroke="#de663f" fill="none"/><path d="M7 81 C176 123,160 44,325 84" stroke="#62e482" fill="none"/><path fill="#4fe24f" d="M63.21 77.00L63.09 76.88L63.12 76.91Q60.06 76.95 58.04 79.16L58.00 79.12L58.10 79.23Q55.94 81.30 55.69 84.47L55.70 84.47L55.80 84.58Q55.55 88.18 57.57 89.85L57.48 89.77L57.45 89.73Q59.44 91.38 62.98 91.25L63.07 91.34L62.96 91.23Q66.81 90.97 68.40 89.39L68.45 89.45L68.43 89.43Q70.24 87.13 70.05 84.09L69.98 84.03L70.06 84.10Q69.85 80.99 68.05 79.00L67.92 78.87L68.01 78.95Q66.24 77.00 63.21 77.00ZM63.08 61.26L63.13 61.30L63.17 61.35Q60.69 61.01 58.48 61.84L58.52 61.87L58.49 61.85Q56.32 63.15 56.69 66.25L56.71 66.26L56.80 66.35Q57.58 72.51 63.14 72.51L63.13 72.50L63.10 72.46Q65.78 72.86 67.42 70.97L67.42 70.97L67.34 70.89Q69.09 69.10 69.15 66.50L69.19 66.55L69.15 66.51Q69.28 63.60 68.08 62.59L67.95 62.46L68.00 62.51Q65.33 61.23 63.18 61.36ZM62.62 95.38L62.63 95.39L57.61 95.43L57.52 95.34Q55.13 95.48 52.92 94.02L52.84 93.94L52.94 94.04Q50.48 91.96 50.74 87.22L50.82 87.31L50.89 87.37Q51.66 76.01 57.67 74.37L57.54 74.24L57.57 74.27Q53.89 72.86 51.68 63.95L51.68 63.95L51.58 63.86Q50.93 61.43 51.06 60.11L51.23 60.28L51.12 60.17Q51.67 56.67 57.80 56.61L57.82 56.63L57.87 56.67Q64.76 56.43 67.17 56.74L67.22 56.79L67.18 56.76Q73.67 57.75 74.43 61.10L74.30 60.96L74.26 60.92Q74.56 62.05 74.56 62.69L74.50 62.62L74.64 62.76Q74.59 63.85 74.28 64.86L74.14 64.73L74.13 64.72Q73.21 71.82 68.34 74.35L68.40 74.42L68.40 74.42Q74.14 75.66 74.96 84.45L75.04 84.54L74.90 84.39Q75.01 84.76 75.07 86.91L75.02 86.85L75.09 86.92Q75.23 91.49 72.57 93.26L72.50 93.18L72.53 93.21Q70.26 94.67 62.67 95.43ZM66.36 99.18L66.40 99.22L71.94 99.32L72.10 99.49Q74.77 99.44 77.30 98.24L77.35 98.29L77.45 98.38Q79.32 97.16 79.45 94.06L79.36 93.97L79.40 94.01Q79.50 92.21 78.86 88.99L78.83 88.95L78.82 88.95Q77.24 81.17 73.76 78.07L73.83 78.14L73.60 77.59L73.15 77.01L73.02 76.70L72.95 76.63Q75.66 74.34 77.17 67.45L77.22 67.50L77.28 67.55Q77.13 66.77 77.25 65.38L77.28 65.40L77.41 65.53Q77.48 64.34 77.36 63.33L77.37 63.35L77.23 63.21Q76.99 60.82 75.03 60.00L75.11 60.07L75.09 59.99L74.82 59.84L74.77 59.79Q74.33 58.60 72.37 57.27L72.39 57.29L72.44 57.27L72.55 57.38Q69.26 56.24 62.49 55.92L62.56 55.99L62.50 55.93Q59.85 55.69 57.58 55.88L57.60 55.90L57.64 55.94Q56.22 55.92 54.07 56.17L54.08 56.17L54.12 56.22Q50.98 56.93 50.60 59.65L50.58 59.63L50.44 59.48Q50.37 60.31 50.43 61.63L50.45 61.65L50.47 61.67Q50.72 62.61 51.67 66.53L51.59 66.46L51.57 66.43Q53.04 71.95 55.94 74.16L55.95 74.17L56.08 74.30L56.01 74.22Q51.36 76.34 50.47 84.93L50.51 84.98L50.60 85.06Q50.20 88.65 50.20 90.17L50.13 90.09L50.17 90.14Q50.29 93.10 52.25 94.62L52.33 94.70L52.36 94.72Q52.43 94.73 52.87 95.05L52.86 95.04L52.86 95.03Q54.56 98.83 66.39 99.21ZM65.80 80.80L65.95 80.94L65.90 80.89Q67.38 80.73 68.83 81.48L68.90 81.55L68.76 81.41Q69.44 83.10 69.38 83.99L69.39 84.00L69.47 84.09Q69.43 84.48 69.43 84.99L69.57 85.13L69.50 85.06Q69.50 88.98 65.70 90.37L65.71 90.38L65.73 90.40Q64.42 90.92 63.09 90.73L63.06 90.70L63.07 90.71Q61.29 90.95 59.39 90.19L59.32 90.12L59.34 90.14Q58.92 89.08 59.04 87.44L58.94 87.33L59.02 87.42Q59.19 84.68 61.18 82.66L61.14 82.61L61.33 82.80Q63.18 80.64 65.83 80.83ZM66.21 65.08L66.20 65.07L66.35 65.22Q67.69 65.04 68.57 65.29L68.55 65.28L68.50 66.55L68.43 66.48Q68.52 68.90 67.00 70.58L66.87 70.45L66.94 70.52Q65.47 72.24 63.19 71.92L63.25 71.98L63.13 71.86Q61.45 71.83 60.75 71.45L60.85 71.54L60.82 71.51Q60.74 71.05 60.55 69.91L60.50 69.86L60.53 69.90Q60.16 67.63 62.18 66.23L62.05 66.11L62.14 66.20Q63.97 65.12 66.31 65.18Z"/><path d="M7 20 C153 94,185 12,338 12" stroke="#3c67e5" fill="none"/><path d="M6 9 C173 33,187 33,341 99" stroke="#eb7e5a" fill="none"/><path d="M13 121 C174 8,165 5,340 80" stroke="#dc6abf" fill="none"/><path d="M11 132 C178 100,178 104,336 116" stroke="#69e169" fill="none"/><path d="M3 107 C167 27,157 19,341 40" stroke="#65a5e6" fill="none"/><path d="M9 102 C158 88,175 127,331 134" stroke="#dd9854" fill="none"/><path d="M4 121 C159 137,177 60,322 106" stroke="#cee782" fill="none"/><path d="M7 125 C180 6,188 33,331 115" stroke="#74e174" fill="none"/><path d="M1 75 C181 85,157 92,327 27" stroke="#dc6582" fill="none"/><path fill="#e68160" d="M124.57 83.13L124.62 83.18L124.66 83.22Q129.85 82.66 135.17 82.85L134.99 82.68L135.13 82.81Q134.98 78.50 134.98 74.51L134.99 74.52L134.92 74.45Q135.11 70.54 135.43 66.30L135.39 66.26L135.27 66.14Q133.40 69.13 124.73 83.30ZM141.00 95.32L141.08 95.41L141.04 95.36Q138.22 94.82 135.25 94.70L135.33 94.78L135.35 94.80Q135.03 90.88 134.84 86.77L134.85 86.78L134.92 86.84Q126.05 86.51 118.21 88.85L118.09 88.73L118.09 88.73Q118.41 88.04 118.73 86.39L118.61 86.28L118.64 86.30Q121.70 81.15 127.64 70.72L127.49 70.56L127.64 70.71Q132.34 62.52 138.03 56.07L138.06 56.10L138.02 56.06Q139.47 55.74 142.25 55.29L142.30 55.34L142.22 55.26Q139.11 66.00 139.11 77.70L139.06 77.64L139.07 77.65Q139.14 80.19 139.26 82.65L139.17 82.56L141.45 82.88L141.35 82.78Q142.35 82.83 143.36 83.02L143.38 83.04L143.34 82.99Q143.61 84.72 144.05 87.94L144.14 88.04L144.03 87.93Q142.07 87.55 139.61 87.23L139.55 87.17L139.50 87.13Q139.90 90.49 141.04 95.36ZM143.96 82.54L143.96 82.55L143.89 82.47Q143.47 82.24 143.15 82.24L143.21 82.30L142.56 82.28L142.61 82.33Q142.48 79.92 142.48 77.58L142.44 77.55L142.41 77.52Q142.34 66.83 145.76 56.84L145.87 56.95L145.84 56.92Q144.54 57.33 142.14 57.96L142.23 58.05L142.24 58.06Q142.50 56.68 143.26 54.34L143.35 54.43L143.39 54.47Q141.25 55.11 137.84 55.49L137.81 55.46L137.69 55.35Q131.25 62.63 122.59 78.18L122.62 78.21L125.99 72.03L126.11 72.15Q125.38 73.83 124.94 74.78L124.81 74.65L117.47 89.69L117.52 89.74Q118.62 89.51 120.51 88.87L120.47 88.84L120.18 89.18L120.26 89.26Q120.05 90.37 119.55 92.46L119.44 92.36L119.44 92.36Q126.33 90.20 134.36 90.52L134.47 90.63L134.40 90.56Q134.41 92.09 134.73 95.37L134.69 95.34L134.77 95.42Q136.53 95.40 138.30 95.59L138.37 95.66L138.25 95.55Q138.56 96.75 139.01 99.02L138.97 98.99L139.04 99.05Q142.13 99.37 147.13 100.89L147.25 101.00L147.21 100.97Q145.55 97.41 144.03 91.97L143.96 91.90L146.39 92.69L146.31 92.61Q147.44 92.98 148.58 93.55L148.70 93.67L148.71 93.68Q147.37 89.49 147.11 86.71L147.11 86.71L147.14 86.73Q146.20 86.49 144.30 86.11L144.31 86.11L144.34 86.15Q143.87 83.91 143.87 82.46ZM130.51 82.12L130.55 82.16L130.52 82.13Q131.78 79.97 134.37 75.74L134.49 75.85L134.38 75.75Q134.42 77.37 134.36 78.95L134.48 79.07L134.30 78.89Q134.38 80.61 134.44 82.19L134.45 82.20L134.37 82.12Q133.45 82.08 132.50 82.08L132.58 82.17L132.63 82.21Q131.61 82.20 130.59 82.20Z"/><path d="M18 83 C160 82,155 81,333 29" stroke="#c476df" fill="none"/><path d="M8 49 C188 39,181 134,339 123" stroke="#e1e13b" fill="none"/><path d="M2 133 C167 11,185 66,335 92" stroke="#e4957b" fill="none"/><path d="M11 136 C187 9,182 128,322 112" stroke="#48d58e" fill="none"/><path d="M9 8 C183 122,155 5,336 95" stroke="#b27ce8" fill="none"/><path d="M17 76 C188 15,152 17,328 125" stroke="#b64fd8" fill="none"/><path d="M15 80 C151 97,167 26,334 4" stroke="#8888f0" fill="none"/><path d="M18 44 C174 134,161 58,341 112" stroke="#65c1e0" fill="none"/><path d="M17 17 C158 138,183 90,324 119" stroke="#d7b85a" fill="none"/><path d="M13 1 C177 111,192 78,337 45" stroke="#c362e3" fill="none"/><path d="M8 124 C180 55,168 116,339 40" stroke="#efbf8e" fill="none"/><path d="M16 37 C172 17,192 109,336 4" stroke="#6aaaeb" fill="none"/><path fill="#9b5fd7" d="M212.29 91.41L212.39 91.51L212.30 91.42Q212.81 93.07 213.69 96.42L213.76 96.49L213.61 96.33Q206.60 94.13 198.95 94.57L199.09 94.71L198.96 94.58Q191.51 95.16 184.87 98.45L184.82 98.40L184.83 98.40Q185.19 97.25 185.26 97.38L185.19 97.31L185.26 97.38Q191.53 90.88 198.05 83.55L197.89 83.40L197.89 83.39Q205.31 75.20 207.27 67.42L207.17 67.32L207.29 67.45Q208.09 64.58 205.97 62.62L205.80 62.44L205.86 62.50Q203.87 60.67 200.90 60.92L200.73 60.76L200.86 60.89Q200.28 60.81 199.71 60.81L199.68 60.78L199.63 60.73Q197.19 60.82 195.11 62.34L195.10 62.33L195.13 62.36Q192.91 64.57 193.29 68.99L193.34 69.05L193.32 69.03Q190.32 68.42 188.29 67.66L188.22 67.60L188.27 67.65Q188.04 65.39 187.92 62.99L187.76 62.83L187.82 62.89Q187.78 60.26 188.79 58.36L188.73 58.30L188.75 58.32Q191.66 55.99 197.23 55.99L197.17 55.93L200.22 56.07L200.17 56.02Q203.99 56.11 205.57 56.30L205.51 56.25L205.57 56.30Q212.69 56.91 213.13 60.95L213.27 61.09L213.15 60.97Q213.41 62.05 213.28 63.38L213.26 63.36L213.11 63.21Q213.07 64.31 212.82 65.45L212.84 65.47L212.83 65.45Q210.14 78.95 197.56 90.33L197.55 90.32L197.54 90.32Q199.94 90.13 202.22 90.13L202.18 90.09L202.21 90.11Q207.65 90.18 212.39 91.51ZM211.28 56.77L211.44 56.92L211.29 56.78Q208.73 55.79 205.88 55.67L205.84 55.63L200.12 55.28L200.25 55.41Q192.69 54.80 189.02 56.63L189.15 56.76L189.17 56.78Q187.30 58.96 187.30 62.38L187.42 62.49L187.39 62.46Q187.35 63.56 187.85 68.24L187.96 68.34L187.96 68.35Q188.79 68.67 190.75 69.17L190.70 69.13L190.73 70.86L190.81 70.94Q190.69 71.64 190.82 72.53L190.84 72.56L190.75 72.46Q192.92 72.73 197.03 73.11L197.09 73.17L197.11 73.19Q196.95 72.47 196.95 71.90L196.96 71.90L197.04 71.99Q196.90 68.81 198.93 66.57L198.99 66.63L198.91 66.55Q200.91 64.29 203.89 64.48L203.92 64.51L204.02 64.62Q205.24 64.64 206.51 64.89L206.53 64.91L206.59 64.97Q206.73 65.56 206.86 66.25L206.74 66.14L206.73 66.12Q206.90 66.93 206.77 67.50L206.83 67.55L206.77 67.49Q204.71 75.42 197.38 83.45L197.41 83.49L197.32 83.39Q193.78 87.12 184.74 97.17L184.72 97.16L184.65 97.09Q184.39 98.54 183.82 99.48L183.95 99.61L183.90 99.56Q186.51 98.06 189.04 97.18L188.97 97.11L189.02 97.15Q187.92 98.21 186.34 100.68L186.32 100.65L186.21 100.54Q186.10 101.19 185.91 101.76L185.82 101.67L185.80 101.65Q194.04 98.38 203.14 98.70L203.06 98.62L202.99 98.55Q212.58 98.97 220.17 102.89L220.17 102.89L218.43 99.26L218.41 99.23Q217.34 97.02 216.89 95.70L216.87 95.68L216.98 95.79Q215.79 95.10 213.77 94.40L213.74 94.38L213.62 94.25Q213.47 93.16 212.84 90.88L212.79 90.84L212.82 90.86Q209.16 89.92 205.37 89.61L205.39 89.63L205.26 89.50Q213.13 82.00 215.66 68.28L215.71 68.34L215.94 63.45L216.07 63.58Q215.78 60.45 213.76 59.31L213.79 59.34L213.68 59.30L213.79 59.40Q213.77 59.32 213.64 59.32L213.59 59.27L213.49 59.16Q213.13 57.79 211.29 56.78Z"/><path d="M3 13 C185 108,161 104,338 79" stroke="#e5896a" fill="none"/><path fill="#dc9b5a" d="M261.62 95.41L261.70 95.48L261.69 95.48Q259.40 95.64 256.80 94.95L256.70 94.85L256.82 94.96Q254.78 93.43 254.53 90.71L254.50 90.69L254.49 90.68Q254.51 90.45 254.83 86.09L254.73 85.99L254.67 85.93Q256.48 85.71 259.83 85.08L259.87 85.12L259.53 86.36L259.56 86.39Q259.08 89.26 261.42 90.21L261.44 90.23L261.35 90.14Q262.76 90.79 266.23 90.79L266.20 90.76L266.24 90.79Q268.78 90.42 269.09 90.30L269.18 90.38L269.24 90.44Q270.68 90.11 271.88 89.29L271.93 89.34L271.95 89.36Q274.16 87.65 273.85 84.18L273.82 84.14L273.93 84.26Q273.66 80.26 270.79 77.67L270.72 77.60L270.66 77.54Q267.85 75.02 263.74 75.02L263.79 75.07L263.71 74.61L263.69 74.59Q264.25 74.45 265.71 74.33L265.85 74.47L265.87 74.49Q268.88 74.15 271.16 72.10L271.20 72.14L271.33 72.27Q273.55 70.16 273.80 67.06L273.76 67.01L273.70 66.96Q273.92 66.48 273.92 65.91L273.83 65.82L273.82 65.81Q273.84 63.30 271.56 61.79L271.54 61.76L271.57 61.80Q269.53 60.45 266.87 60.63L266.85 60.62L266.84 60.61Q264.71 60.38 262.69 61.07L262.73 61.11L262.82 61.20Q260.46 62.13 259.95 64.02L259.80 63.86L259.78 63.84Q259.53 65.18 259.66 66.45L259.67 66.46L259.72 66.51Q257.91 66.02 254.49 64.82L254.55 64.87L254.45 64.78Q254.19 62.12 254.26 60.73L254.19 60.66L254.26 60.73Q254.33 58.08 256.10 56.94L256.20 57.04L256.23 57.08Q258.47 55.96 261.12 55.96L261.14 55.98L261.19 56.03Q266.41 55.94 271.66 56.38L271.70 56.42L271.66 56.38Q280.07 57.08 279.56 63.33L279.59 63.37L279.57 63.35Q279.53 65.89 278.70 68.49L278.55 68.33L278.72 68.50Q277.07 73.49 273.15 75.00L273.15 75.01L273.21 75.07Q277.47 75.85 278.48 81.41L278.62 81.55L278.57 81.50Q278.89 83.33 279.01 86.69L279.13 86.80L279.08 86.75Q279.37 94.19 271.72 94.95L271.62 94.84L271.66 94.88Q270.40 94.95 261.61 95.40ZM270.38 99.23L270.28 99.13L270.45 99.30Q271.37 99.28 276.11 99.40L276.18 99.47L276.09 99.38Q279.02 99.53 281.74 98.45L281.69 98.41L281.79 98.51Q283.60 96.77 283.28 93.86L283.31 93.90L283.30 93.89Q283.16 91.72 282.66 88.81L282.65 88.81L282.63 88.79Q281.57 81.47 278.35 78.75L278.17 78.57L277.94 78.03L277.88 77.90L277.97 77.99Q280.80 75.52 282.07 68.25L281.99 68.17L282.00 68.18Q282.17 67.53 282.36 65.95L282.33 65.92L282.37 65.96Q282.47 64.67 282.35 63.53L282.35 63.53L282.25 63.44Q282.13 60.79 279.98 59.65L279.86 59.52L279.86 59.65L279.86 59.65Q279.25 57.90 277.35 57.02L277.29 56.96L277.41 57.08Q274.94 56.00 266.41 55.49L266.22 55.31L266.26 55.35Q263.43 55.17 260.78 55.17L260.80 55.20L260.78 55.18Q258.31 55.36 255.78 56.44L255.77 56.43L255.61 56.27Q253.61 57.56 253.61 60.47L253.74 60.59L253.66 60.51Q253.67 59.82 254.11 65.39L254.21 65.48L254.10 65.38Q254.61 65.51 257.33 66.52L257.42 66.61L257.40 66.59Q257.26 67.34 257.20 68.16L257.31 68.27L257.31 68.27Q257.37 69.15 257.43 70.03L257.28 69.88L257.25 69.85Q260.28 70.54 263.63 70.73L263.71 70.81L263.64 70.75Q263.56 67.44 265.40 66.05L265.43 66.08L265.26 65.92Q266.71 64.90 270.06 64.52L270.17 64.62L270.16 64.62Q272.03 64.59 272.98 64.91L272.97 64.90L272.92 64.85Q273.07 65.13 273.14 65.32L273.11 65.29L273.12 65.62L273.27 66.53L273.18 66.44Q273.18 66.75 273.12 67.01L273.30 67.19L273.29 67.18Q273.12 69.98 270.59 71.94L270.46 71.81L270.48 71.83Q269.11 73.50 265.76 73.81L265.69 73.74L265.65 73.70Q264.39 73.89 262.93 73.89L262.94 73.90L262.95 73.91Q263.11 74.58 263.37 75.72L263.28 75.63L263.35 75.70Q266.19 75.63 268.59 76.83L268.61 76.85L268.52 76.95L265.78 77.12L265.85 77.19Q266.01 77.86 266.20 78.87L266.09 78.76L266.21 78.88Q269.73 78.73 272.58 80.95L272.50 80.86L272.53 80.90Q272.94 81.56 273.45 84.28L273.31 84.14L273.35 84.19Q273.67 89.06 268.80 89.75L268.77 89.72L268.84 89.79Q265.37 90.24 264.43 90.18L264.50 90.25L264.48 90.24Q263.70 90.02 262.81 89.89L262.68 89.76L262.71 89.03L263.03 88.41L262.99 87.67L263.11 87.22L263.07 87.18Q261.51 87.33 260.19 87.65L260.22 87.68L260.10 87.56Q260.17 87.31 260.17 87.00L260.07 86.90L260.11 86.94Q260.15 86.60 260.15 86.23L260.09 86.16L260.24 86.31Q260.31 85.62 260.57 84.42L260.42 84.27L260.49 84.35Q257.44 84.78 254.34 85.35L254.23 85.23L254.32 85.33Q254.35 86.18 254.16 88.04L254.10 87.98L254.04 87.92Q253.99 89.92 253.99 90.94L253.94 90.88L253.86 90.80Q253.97 94.20 256.25 95.47L256.31 95.53L256.26 95.48Q258.74 99.29 266.58 98.98L266.59 98.99L266.54 98.93Q267.79 98.92 270.32 99.17Z"/><path d="M18 39 C191 133,185 46,323 27" stroke="#e8e890" fill="none"/></svg>