<svg xmlns="http://www.w3.org/2000/svg" width="342" height="140" viewBox="0,0,342,140"><path d="M10 42 C185 121,163 69,324 120" stroke="#90e4ba" fill="none"/><path d="M3 70 C162 137,182 115,326 24" stroke="#e589b7" fill="none"/><path d="M20 48 C180 83,169 69,340 94" stroke="#7ee55b" fill="none"/><path d="M14 35 C154 75,179 17,338 76" stroke="#4fb9dd" fill="none"/><path d="M20 113 C190 27,172 35,321 8" stroke="#d8d859" fill="none"/><path d="M1 5 C163 116,185 21,337 54" stroke="#a8e06f" fill="none"/><path d="M2 41 C173 98,170 20,328 136" stroke="#de9b58" fill="none"/><path d="M18 10 C153 108,175 128,323 80" stroke="#9c82ed" fill="none"/><path d="M20 17 C164 65,160 30,337 121" stroke="#4596e6" fill="none"/><path d="M16 21 C163 130,191 60,340 67" stroke="#e17ee1" fill="none"/><path d="M18 20 C185 8,168 109,339 126" stroke="#e480e4" fill="none"/><path d="M19 25 C164 116,159 31,337 3" stroke="#ea89ea" fill="none"/><path d="M16 125 C187 139,187 61,335 35" stroke="#e03c65" fill="none"/><path d="M14 80 C191 56,160 20,332 109" stroke="#ad72e8" fill="none"/><path d="M18 27 C185 137,159 127,332 94" stroke="#eaa057" fill="none"/><path d="M13 98 C162 130,167 19,338 3" stroke="#e35dc2" fill="none"/><path d="M13 116 C162 62,189 74,338 112" stroke="#60dcbd" fill="none"/><path d="M12 138 C160 106,160 100,325 85" stroke="#dc3bdc" fill="none"/><path d="M11 128 C187 118,185 68,340 63" stroke="#e96c8b" fill="none"/><path d="M19 2 C155 55,191 56,326 75" stroke="#5bdbdb" fill="none"/><path d="M15 42 C179 113,158 136,339 64" stroke="#49e8c0" fill="none"/><path d="M10 93 C187 10,175 69,323 110" stroke="#e042e0" fill="none"/><path d="M14 102 C179 35,160 74,325 108" stroke="#e16464" fill="none"/><path fill="#9851e0" d="M195.98 91.89L196.12 92.03L196.11 92.02Q190.29 92.35 188.88 89.03L188.80 88.95L188.79 88.94Q189.93 87.64 192.16 85.08L192.10 85.02L192.19 85.11Q192.78 87.88 197.08 88.04L197.21 88.17L197.15 88.12Q201.96 88.20 204.30 86.29L204.38 86.37L204.35 86.34Q206.29 83.98 206.18 80.12L206.22 80.16L206.30 80.24Q206.08 73.01 199.23 73.33L199.26 73.36L199.13 73.23Q195.17 73.52 192.67 75.31L192.61 75.25L192.22 75.08L191.79 74.75L191.96 74.93Q192.38 70.34 192.21 66.42L192.12 66.34L192.14 66.35Q192.13 62.75 191.64 58.02L191.46 57.84L191.58 57.96Q196.74 59.26 202.18 59.10L202.11 59.03L202.17 59.09Q207.65 59.03 212.77 57.23L212.73 57.19L212.01 59.46L211.93 59.38Q211.44 60.42 211.17 61.62L211.29 61.74L211.26 61.71Q206.84 63.22 201.29 63.22L201.20 63.12L201.18 63.10Q199.18 63.17 197.06 62.95L196.98 62.87L197.02 62.91Q197.00 63.98 196.51 70.35L196.37 70.20L196.34 70.17Q197.69 69.67 200.63 69.46L200.57 69.39L200.58 69.41Q206.00 69.82 208.06 72.21L208.00 72.15L207.92 72.07Q209.96 74.33 210.34 79.82L210.31 79.79L210.39 79.87Q210.65 85.73 208.91 88.61L208.89 88.60L208.97 88.68Q205.97 91.28 201.24 91.61L201.25 91.61L201.33 91.69Q199.97 91.85 196.16 92.07ZM204.66 95.19L204.78 95.31L204.71 95.23Q209.56 95.30 212.27 93.72L212.28 93.72L212.24 93.69Q213.78 91.63 213.78 88.64L213.79 88.65L213.70 88.56Q213.69 84.15 212.33 78.28L212.45 78.40L212.42 78.37Q211.80 75.79 210.06 73.77L210.13 73.84L210.20 73.97L209.90 73.57L209.26 73.14L209.34 73.22Q208.84 72.12 207.92 71.14L208.05 71.28L207.91 71.19L208.03 71.31Q205.76 68.82 200.48 68.82L200.57 68.91L200.04 68.76L200.11 68.83Q200.32 68.12 200.59 66.54L200.58 66.53L200.58 66.52Q207.68 66.67 213.45 64.33L213.32 64.20L213.45 64.33Q214.03 62.30 215.39 58.28L215.43 58.32L212.40 59.64L212.48 59.71Q212.82 57.89 213.53 56.25L213.67 56.40L213.53 56.25Q208.20 58.48 202.33 58.59L202.35 58.61L202.22 58.48Q196.39 58.69 190.73 57.11L190.73 57.11L190.76 57.14Q191.74 63.45 191.74 69.76L191.62 69.64L191.80 69.82Q191.71 72.45 191.54 75.16L191.58 75.20L191.46 75.08Q191.88 75.39 192.69 75.82L192.77 75.90L192.79 75.92Q193.25 75.56 194.17 75.07L194.15 75.05L194.23 75.13Q194.17 76.21 193.84 78.39L193.79 78.33L193.84 78.39Q194.41 78.63 195.01 78.95L195.03 78.97L194.93 78.88Q198.85 76.33 201.52 76.33L201.59 76.40L201.59 76.40Q203.45 76.35 205.13 77.28L205.21 77.36L205.11 77.25Q205.79 78.91 205.84 80.27L205.76 80.19L205.84 80.27Q205.83 83.85 204.36 85.42L204.45 85.51L204.36 85.43Q202.40 87.16 199.19 87.49L199.11 87.41L199.30 87.60Q197.79 87.56 196.81 87.45L196.97 87.60L196.86 87.50Q195.59 87.26 194.50 86.77L194.68 86.95L194.48 86.47L194.35 86.68L194.33 86.65Q193.14 85.90 192.38 84.00L192.44 84.05L192.57 84.19Q190.58 86.12 188.19 89.16L188.18 89.14L188.25 89.22Q188.63 90.09 189.83 91.45L189.88 91.50L189.77 91.39Q191.41 94.12 195.43 94.82L195.36 94.75L195.29 94.68Q197.05 95.09 204.72 95.25Z"/><path d="M20 62 C171 81,154 22,325 95" stroke="#7aef7a" fill="none"/><path d="M1 112 C157 45,177 61,327 90" stroke="#6060e6" fill="none"/><path d="M14 127 C189 18,186 51,340 38" stroke="#5be09e" fill="none"/><path d="M13 21 C189 4,169 39,324 120" stroke="#6c47da" fill="none"/><path d="M3 88 C183 35,155 44,327 41" stroke="#e43e91" fill="none"/><path d="M15 41 C191 112,165 112,336 91" stroke="#9bde58" fill="none"/><path d="M13 131 C161 103,190 41,336 69" stroke="#53d4b4" fill="none"/><path fill="#9ae183" d="M63.76 75.90L63.83 75.97L63.89 76.03Q61.16 75.97 59.42 77.87L59.39 77.84L59.45 77.90Q57.63 79.73 57.42 82.45L57.51 82.54L57.46 82.49Q57.30 85.65 59.04 87.09L58.96 87.01L59.00 87.05Q60.74 88.49 63.78 88.38L63.81 88.40L63.81 88.41Q66.95 88.01 68.31 86.65L68.34 86.69L68.39 86.73Q69.79 84.59 69.62 81.98L69.62 81.98L69.79 82.15Q69.56 79.42 68.01 77.70L67.95 77.64L68.07 77.77Q66.43 75.96 63.82 75.96ZM63.71 62.42L63.77 62.48L63.75 62.46Q61.76 62.32 59.85 63.02L59.92 63.09L59.78 62.95Q58.11 64.27 58.43 66.93L58.28 66.78L58.37 66.87Q59.09 72.21 63.87 72.21L63.86 72.20L63.76 72.09Q66.16 72.54 67.57 70.90L67.53 70.86L67.57 70.90Q68.89 69.17 68.94 66.94L68.94 66.95L68.97 66.98Q69.11 64.50 68.08 63.63L68.10 63.66L68.06 63.62Q65.73 62.48 63.88 62.59ZM63.40 91.86L63.37 91.83L59.03 91.84L59.03 91.84Q56.85 91.83 54.95 90.58L54.93 90.57L54.99 90.63Q53.09 89.05 53.31 84.98L53.22 84.89L53.19 84.86Q53.90 75.13 59.07 73.72L59.04 73.69L58.97 73.62Q55.71 72.31 53.81 64.64L53.87 64.70L53.85 64.69Q53.45 62.77 53.56 61.63L53.42 61.48L53.52 61.58Q53.90 58.48 59.18 58.43L59.31 58.56L59.18 58.43Q65.26 58.37 67.32 58.64L67.34 58.65L67.23 58.54Q72.87 59.45 73.52 62.33L73.42 62.23L73.46 62.27Q73.61 63.13 73.61 63.68L73.63 63.69L73.70 63.76Q73.54 64.58 73.26 65.45L73.32 65.50L73.41 65.59Q72.56 71.65 68.38 73.83L68.36 73.81L68.27 73.73Q73.37 74.96 74.08 82.52L74.11 82.55L73.99 82.44Q73.93 82.59 73.98 84.44L74.10 84.55L74.09 84.55Q74.18 88.44 71.89 89.96L71.95 90.02L71.87 89.94Q69.92 91.20 63.39 91.85ZM66.68 95.20L66.65 95.16L71.52 95.36L71.47 95.31Q73.92 95.42 76.10 94.39L76.14 94.43L76.16 94.45Q77.69 93.31 77.80 90.65L77.89 90.74L77.84 90.69Q77.80 89.02 77.26 86.25L77.27 86.26L77.30 86.29Q76.09 79.75 73.10 77.08L72.96 76.94L72.75 76.46L72.42 76.02L72.29 75.73L72.24 75.68Q74.68 73.82 75.98 67.89L75.83 67.74L75.99 67.90Q75.85 67.22 75.96 66.02L76.11 66.17L76.01 66.07Q76.14 65.11 76.03 64.24L76.12 64.33L75.94 64.15Q75.80 62.16 74.11 61.45L74.13 61.48L74.17 61.46L73.99 61.39L73.84 61.23Q73.62 60.36 71.93 59.22L71.75 59.04L71.88 59.12L71.86 59.09Q69.11 58.19 63.29 57.92L63.29 57.92L63.17 57.80Q61.05 57.74 59.09 57.91L59.07 57.88L59.08 57.90Q57.85 57.86 56.00 58.08L55.98 58.06L56.16 58.24Q53.25 58.65 52.92 60.99L53.03 61.09L52.94 61.01Q52.84 61.67 52.90 62.81L52.93 62.85L52.87 62.78Q53.20 63.71 54.02 67.09L53.89 66.96L54.01 67.08Q55.16 71.70 57.66 73.61L57.50 73.45L57.70 73.65L57.75 73.70Q53.63 75.40 52.87 82.80L52.94 82.87L52.93 82.85Q52.62 85.97 52.62 87.28L52.76 87.41L52.61 87.26Q52.86 89.97 54.55 91.27L54.50 91.22L54.44 91.16Q54.75 91.42 55.13 91.69L55.02 91.58L54.99 91.55Q56.56 94.92 66.73 95.24ZM66.17 79.35L66.23 79.41L66.10 79.28Q67.41 79.17 68.66 79.82L68.64 79.81L68.70 79.87Q69.20 81.24 69.15 82.00L69.25 82.10L69.22 82.07Q69.29 82.52 69.29 82.96L69.25 82.92L69.18 82.84Q69.34 86.38 66.08 87.58L66.04 87.54L65.99 87.48Q64.78 87.85 63.63 87.69L63.79 87.84L63.72 87.78Q62.09 87.88 60.45 87.23L60.50 87.28L60.48 87.25Q60.09 86.32 60.20 84.90L60.16 84.86L60.18 84.89Q60.43 82.63 62.14 80.89L62.23 80.98L62.20 80.95Q63.96 79.26 66.24 79.42ZM66.57 65.88L66.51 65.82L66.60 65.91Q67.70 65.70 68.46 65.92L68.35 65.80L68.34 66.94L68.36 66.96Q68.38 68.99 67.08 70.43L67.08 70.44L67.20 70.56Q65.72 71.82 63.76 71.55L63.77 71.56L63.82 71.61Q62.43 71.63 61.83 71.31L61.87 71.34L61.91 71.38Q61.78 70.93 61.62 69.95L61.60 69.93L61.59 69.92Q61.18 67.88 62.92 66.69L62.99 66.76L62.92 66.68Q64.47 65.74 66.48 65.79Z"/><path d="M7 123 C165 107,169 27,339 24" stroke="#aa6ce9" fill="none"/><path d="M18 44 C156 123,178 111,327 137" stroke="#5de3c2" fill="none"/><path d="M11 79 C164 47,166 120,334 89" stroke="#b2ee76" fill="none"/><path d="M2 64 C187 116,154 119,335 57" stroke="#e688e6" fill="none"/><path d="M20 93 C183 84,183 26,333 19" stroke="#dada47" fill="none"/><path d="M4 45 C153 85,160 120,333 32" stroke="#ed86d3" fill="none"/><path d="M11 20 C152 104,173 67,330 4" stroke="#e38362" fill="none"/><path d="M3 138 C159 51,172 95,322 84" stroke="#df7bc6" fill="none"/><path d="M15 94 C187 72,165 40,327 89" stroke="#8e3ae2" fill="none"/><path d="M2 34 C171 115,160 84,322 82" stroke="#61e137" fill="none"/><path fill="#ec6ecc" d="M262.28 81.41L262.19 81.32L262.18 81.31Q266.70 80.88 271.27 81.04L271.25 81.02L271.12 80.90Q271.06 77.24 271.06 73.82L271.14 73.90L271.10 73.86Q271.19 70.41 271.46 66.77L271.46 66.77L271.46 66.77Q269.65 69.15 262.20 81.33ZM276.29 91.77L276.30 91.79L276.38 91.87Q273.93 91.38 271.38 91.27L271.37 91.26L271.49 91.38Q271.07 87.86 270.90 84.32L270.93 84.35L270.91 84.33Q263.35 84.11 256.61 86.12L256.57 86.09L256.60 86.11Q256.84 85.49 257.11 84.07L257.10 84.06L256.99 83.95Q259.53 79.42 264.64 70.45L264.67 70.47L264.80 70.61Q268.81 63.52 273.71 57.97L273.72 57.98L273.78 58.05Q274.95 57.70 277.34 57.32L277.44 57.41L277.33 57.30Q274.76 66.64 274.76 76.70L274.70 76.65L274.64 76.58Q274.70 78.76 274.80 80.88L274.87 80.94L276.62 81.01L276.60 80.99Q277.48 81.06 278.35 81.22L278.33 81.20L278.43 81.30Q278.53 82.65 278.92 85.43L278.84 85.35L278.93 85.44Q277.11 84.99 274.99 84.71L275.12 84.84L275.11 84.83Q275.32 87.60 276.30 91.79ZM278.86 80.80L278.74 80.68L278.70 80.65Q278.55 80.65 278.27 80.65L278.26 80.64L277.60 80.52L277.72 80.65Q277.50 78.46 277.50 76.45L277.59 76.55L277.62 76.57Q277.49 67.30 280.42 58.71L280.38 58.66L280.36 58.65Q279.28 59.03 277.21 59.57L277.29 59.65L277.36 59.72Q277.65 58.60 278.31 56.59L278.32 56.60L278.19 56.48Q276.52 57.20 273.59 57.53L273.52 57.46L273.41 57.35Q267.99 63.74 260.54 77.12L260.44 77.01L263.39 71.75L263.52 71.88Q262.81 73.24 262.43 74.06L262.37 73.99L256.01 86.88L256.06 86.93Q257.05 86.78 258.68 86.24L258.71 86.27L258.38 86.48L258.46 86.56Q258.35 87.59 257.91 89.39L257.76 89.23L257.74 89.21Q263.75 87.45 270.66 87.72L270.66 87.72L270.53 87.60Q270.72 89.09 270.99 91.91L270.97 91.89L270.92 91.84Q272.48 91.88 274.00 92.04L273.89 91.93L273.95 91.99Q274.17 92.97 274.55 94.93L274.61 94.99L274.53 94.91Q277.30 95.29 281.60 96.59L281.57 96.56L281.65 96.65Q280.14 93.50 278.84 88.83L278.89 88.88L280.97 89.55L280.89 89.47Q281.89 89.82 282.87 90.31L282.98 90.42L282.89 90.33Q281.76 86.74 281.54 84.35L281.58 84.40L281.63 84.44Q280.75 84.16 279.12 83.84L279.08 83.80L279.05 83.77Q278.82 82.02 278.82 80.77ZM267.33 80.47L267.32 80.46L267.35 80.49Q268.51 78.72 270.74 75.07L270.66 75.00L270.69 75.02Q270.69 76.38 270.63 77.74L270.69 77.80L270.63 77.74Q270.71 79.23 270.76 80.59L270.69 80.52L270.73 80.55Q269.75 80.34 268.94 80.34L269.11 80.51L268.98 80.38Q268.13 80.41 267.26 80.41Z"/><path fill="#37e6e6" d="M126.31 81.44L126.27 81.40L126.31 81.44Q130.64 80.82 135.20 80.98L135.21 80.98L135.18 80.95Q135.12 77.30 135.12 73.88L135.23 73.99L135.08 73.84Q135.10 70.32 135.37 66.68L135.52 66.82L135.40 66.71Q133.71 69.20 126.26 81.39ZM140.38 91.87L140.38 91.87L140.30 91.78Q137.91 91.35 135.35 91.24L135.33 91.22L135.43 91.32Q135.21 88.00 135.04 84.46L135.01 84.43L135.04 84.46Q127.35 84.11 120.61 86.12L120.57 86.09L120.73 86.25Q120.73 85.38 121.01 83.97L121.12 84.08L121.04 84.00Q123.62 79.51 128.73 70.53L128.77 70.58L128.71 70.52Q132.81 63.52 137.71 57.98L137.70 57.97L137.74 58.00Q139.10 57.85 141.50 57.47L141.49 57.46L141.43 57.40Q138.70 66.58 138.70 76.64L138.68 76.62L138.63 76.58Q138.71 78.77 138.82 80.90L138.83 80.90L140.56 80.95L140.56 80.95Q141.44 81.02 142.31 81.18L142.43 81.30L142.41 81.27Q142.57 82.69 142.95 85.46L142.93 85.44L142.83 85.35Q141.22 85.09 139.10 84.82L139.04 84.76L139.16 84.88Q139.39 87.67 140.37 91.86ZM142.71 80.65L142.87 80.81L142.85 80.79Q142.45 80.55 142.18 80.55L142.29 80.67L141.71 80.64L141.71 80.63Q141.45 78.41 141.45 76.40L141.47 76.42L141.50 76.45Q141.43 67.24 144.36 58.65L144.39 58.67L144.41 58.70Q143.31 59.06 141.24 59.60L141.29 59.65L141.24 59.60Q141.63 58.59 142.29 56.57L142.20 56.48L142.22 56.51Q140.39 57.07 137.45 57.39L137.55 57.50L137.46 57.40Q131.94 63.68 124.49 77.06L124.44 77.02L127.44 71.80L127.44 71.80Q126.84 73.27 126.46 74.08L126.53 74.15L120.10 86.98L120.13 87.01Q121.07 86.80 122.70 86.26L122.74 86.30L122.52 86.62L122.38 86.48Q122.29 87.53 121.85 89.33L121.83 89.30L121.79 89.26Q127.73 87.43 134.64 87.70L134.66 87.72L134.67 87.73Q134.73 89.10 135.00 91.92L135.02 91.94L134.95 91.87Q136.46 91.86 137.98 92.02L138.04 92.08L137.90 91.94Q138.25 93.05 138.63 95.01L138.53 94.91L138.59 94.97Q141.27 95.25 145.56 96.56L145.56 96.55L145.56 96.56Q144.16 93.52 142.85 88.84L142.98 88.97L144.87 89.44L144.90 89.48Q146.00 89.93 146.98 90.42L146.82 90.25L146.94 90.38Q145.82 86.80 145.60 84.41L145.48 84.29L145.64 84.45Q144.74 84.15 143.10 83.82L143.16 83.88L143.03 83.75Q142.72 81.92 142.72 80.67ZM131.35 80.49L131.29 80.43L131.27 80.41Q132.43 78.64 134.66 75.00L134.68 75.01L134.67 75.00Q134.65 76.35 134.60 77.71L134.65 77.76L134.65 77.76Q134.64 79.16 134.69 80.52L134.57 80.40L134.71 80.54Q133.90 80.49 133.09 80.49L132.95 80.35L132.95 80.36Q132.27 80.55 131.40 80.55Z"/></svg>