<svg xmlns="http://www.w3.org/2000/svg" width="342" height="140" viewBox="0,0,342,140"><path fill="#90e990" d="M221.11 77.76L221.00 77.65L221.04 77.69Q217.66 77.52 215.34 80.19L215.29 80.14L215.23 80.09Q213.00 82.85 212.64 86.42L212.55 86.33L212.69 86.46Q212.24 90.30 214.27 92.12L214.23 92.08L214.24 92.08Q216.38 94.01 220.31 93.80L220.26 93.75L220.17 93.66Q224.15 93.43 226.22 92.14L226.28 92.20L226.24 92.16Q228.36 90.07 228.36 87.15L228.28 87.07L228.25 87.03Q228.33 86.41 228.19 85.69L228.17 85.67L228.19 85.69Q228.43 82.65 226.36 80.12L226.18 79.93L226.27 80.03Q224.27 77.56 221.13 77.78ZM220.23 98.50L220.30 98.57L220.22 98.50Q212.08 98.56 209.44 97.13L209.51 97.21L209.38 97.08Q207.47 95.67 207.12 92.46L207.16 92.50L207.15 92.49Q207.04 91.17 207.12 89.81L207.05 89.75L207.20 89.89Q207.29 87.92 207.29 87.06L207.31 87.09L207.35 87.12Q208.25 81.81 208.53 80.53L208.45 80.44L208.54 80.53Q209.29 76.78 210.86 74.14L211.00 74.29L210.84 74.13Q216.02 66.10 227.16 54.18L227.09 54.12L226.99 54.01Q231.96 53.41 236.10 51.91L236.27 52.08L236.13 51.94Q223.25 65.91 217.26 73.83L217.30 73.87L217.37 73.95Q219.28 73.08 221.71 73.08L221.57 72.93L221.68 73.05Q227.93 73.08 230.79 76.73L230.71 76.65L230.68 76.62Q233.10 79.61 233.74 86.25L233.90 86.41L233.80 86.31Q233.96 87.68 233.96 88.83L234.00 88.86L233.91 88.78Q233.89 94.60 229.75 96.60L229.79 96.65L229.83 96.68Q227.64 97.92 220.36 98.64ZM224.46 102.95L224.63 103.12L224.47 102.96Q226.97 102.96 230.68 103.10L230.69 103.11L230.73 103.15Q233.74 103.24 236.67 101.88L236.71 101.92L236.78 101.99Q238.70 100.34 238.70 96.99L238.70 96.99L238.75 97.04Q238.80 96.16 238.48 94.30L238.37 94.19L238.46 94.29Q238.07 92.36 238.07 91.50L238.17 91.60L238.12 91.55Q236.45 82.67 233.45 79.10L233.44 79.10L233.55 79.20Q233.29 78.88 233.01 78.45L233.01 78.45L232.42 78.00L232.28 77.93L232.36 78.01Q231.75 77.12 230.61 75.34L230.55 75.28L230.54 75.27Q228.75 73.41 225.04 72.55L225.21 72.72L225.15 72.66Q227.36 69.59 232.93 62.67L232.93 62.67L240.97 52.86L240.89 52.78Q237.92 54.38 233.42 55.80L233.41 55.79L233.54 55.93Q235.24 54.05 238.59 50.34L238.48 50.23L238.59 50.34Q234.09 52.34 226.81 53.41L226.74 53.33L226.72 53.31Q216.02 64.39 210.45 73.67L210.46 73.67L210.54 73.75Q207.56 78.34 206.49 90.04L206.53 90.08L206.48 90.04Q206.41 91.18 206.56 92.97L206.53 92.94L206.57 92.98Q206.76 96.31 208.83 98.03L208.74 97.94L208.81 98.00Q209.56 98.33 209.49 98.40L209.38 98.29L209.51 98.42Q210.21 100.11 211.70 100.90L211.70 100.90L211.55 100.74Q214.27 102.03 217.91 102.39L218.07 102.56L217.96 102.45Q217.95 102.43 224.52 103.01ZM224.08 81.94L224.05 81.91L224.19 82.05Q225.11 81.69 226.90 82.62L226.94 82.66L226.97 82.69Q227.60 84.46 227.60 85.67L227.59 85.67L227.71 85.79Q227.89 89.11 226.11 90.96L226.30 91.15L226.21 91.06Q224.14 92.35 220.21 92.92L220.26 92.97L220.33 93.04Q217.53 92.95 216.53 92.45L216.62 92.54L216.66 92.57Q216.18 91.59 216.18 91.02L216.25 91.10L216.27 91.12Q215.81 84.95 221.30 82.52L221.36 82.57L221.34 82.55Q222.76 81.90 224.18 82.04Z"/><path d="M7 14 C161 138,185 133,323 109" stroke="#c451ea" fill="none"/><path d="M11 10 C159 16,170 39,325 136" stroke="#bae390" fill="none"/><path d="M18 76 C192 93,166 51,338 2" stroke="#718fe8" fill="none"/><path d="M7 48 C173 117,165 8,339 61" stroke="#b5ec7d" fill="none"/><path fill="#da52b8" d="M100.49 84.89L100.52 84.91L100.47 84.87Q106.35 84.25 112.35 84.47L112.20 84.32L112.25 84.37Q112.27 79.68 112.27 75.18L112.23 75.15L112.22 75.14Q112.24 70.51 112.60 65.73L112.66 65.79L112.65 65.78Q110.30 68.93 100.52 84.91ZM119.01 98.63L119.10 98.71L119.04 98.65Q115.86 98.05 112.51 97.91L112.62 98.02L112.50 97.90Q112.29 93.62 112.08 88.98L112.11 89.02L111.94 88.84Q102.11 88.65 93.26 91.29L93.21 91.24L93.24 91.27Q93.30 90.18 93.65 88.33L93.64 88.32L93.76 88.44Q97.13 82.53 103.84 70.75L103.74 70.65L103.73 70.63Q109.24 61.58 115.66 54.30L115.56 54.20L115.66 54.31Q117.26 53.90 120.40 53.40L120.44 53.45L120.41 53.41Q116.79 65.43 116.79 78.63L116.95 78.79L116.86 78.71Q116.81 81.43 116.95 84.21L116.95 84.22L119.42 84.47L119.37 84.43Q120.65 84.63 121.79 84.84L121.63 84.68L121.62 84.68Q121.91 86.60 122.41 90.24L122.36 90.20L122.39 90.22Q120.07 89.69 117.28 89.33L117.42 89.47L117.43 89.48Q117.88 93.28 119.16 98.78ZM122.27 84.11L122.14 83.98L122.18 84.02Q121.83 83.89 121.48 83.89L121.43 83.84L120.88 84.01L120.70 83.83Q120.52 81.07 120.52 78.43L120.58 78.50L120.66 78.57Q120.67 66.60 124.53 55.32L124.42 55.21L124.34 55.13Q123.04 55.75 120.32 56.47L120.39 56.53L120.23 56.38Q120.64 54.92 121.49 52.28L121.61 52.40L121.60 52.39Q119.17 53.10 115.31 53.53L115.26 53.48L115.39 53.61Q107.91 61.62 98.13 79.18L98.26 79.30L102.17 72.44L102.19 72.46Q101.22 74.19 100.72 75.26L100.89 75.44L92.38 92.19L92.55 92.37Q93.69 92.00 95.83 91.29L95.89 91.35L95.55 91.72L95.59 91.77Q95.31 92.98 94.73 95.34L94.74 95.34L94.72 95.33Q102.37 92.76 111.43 93.12L111.53 93.22L111.54 93.22Q111.61 95.01 111.97 98.72L112.01 98.77L111.90 98.66Q114.03 98.79 116.03 99.00L115.93 98.90L115.97 98.94Q116.27 100.24 116.77 102.81L116.63 102.67L116.64 102.68Q120.38 103.28 126.02 104.99L126.00 104.98L125.86 104.84Q123.99 100.83 122.28 94.69L122.40 94.81L125.09 95.64L125.04 95.59Q126.36 96.05 127.65 96.70L127.69 96.75L127.67 96.72Q126.09 91.93 125.81 88.79L125.90 88.89L125.85 88.84Q124.87 88.64 122.73 88.21L122.61 88.09L122.59 88.07Q122.21 85.70 122.21 84.05ZM107.29 83.83L107.30 83.85L107.23 83.78Q108.59 81.28 111.52 76.50L111.54 76.52L111.53 76.52Q111.53 78.30 111.46 80.08L111.52 80.15L111.43 80.06Q111.61 82.09 111.68 83.88L111.63 83.82L111.49 83.68Q110.50 83.69 109.42 83.69L109.40 83.66L109.47 83.73Q108.30 83.71 107.16 83.71Z"/><path d="M9 136 C155 125,186 35,336 34" stroke="#e9c352" fill="none"/><path d="M14 103 C172 118,178 17,330 83" stroke="#bddd5f" fill="none"/><path d="M16 66 C180 81,156 25,339 77" stroke="#6988e7" fill="none"/><path d="M5 120 C166 108,160 93,325 43" stroke="#9e55e6" fill="none"/><path d="M14 76 C157 115,157 111,323 51" stroke="#e961e9" fill="none"/><path d="M16 131 C155 115,169 136,338 111" stroke="#4ee8e8" fill="none"/><path d="M12 116 C151 48,181 124,336 78" stroke="#e8c762" fill="none"/><path d="M16 100 C163 132,174 24,327 37" stroke="#88d6f1" fill="none"/><path d="M11 112 C175 21,151 79,340 61" stroke="#eeee76" fill="none"/><path d="M12 92 C174 125,187 28,329 82" stroke="#69a8e7" fill="none"/><path d="M8 36 C186 130,157 14,326 121" stroke="#e240e2" fill="none"/><path d="M19 52 C177 17,179 31,341 12" stroke="#e3e377" fill="none"/><path fill="#b7ee80" d="M285.07 74.09L284.95 73.98L284.99 74.02Q286.54 74.06 289.18 73.77L289.24 73.84L289.27 73.87Q289.09 74.97 289.09 76.19L289.12 76.21L289.05 78.51L289.20 78.65Q287.57 78.59 286.00 78.74L286.06 78.79L285.99 78.73Q284.42 78.80 282.85 78.72L282.76 78.63L282.93 78.80Q277.52 90.31 271.09 98.95L271.01 98.86L271.00 98.85Q266.36 100.14 263.94 101.28L263.82 101.17L263.86 101.21Q271.54 90.47 277.25 78.70L277.24 78.68L272.48 78.85L272.45 78.81Q272.35 76.22 272.14 73.73L272.13 73.71L272.16 73.75Q275.73 74.03 279.59 74.03L279.72 74.16L283.10 67.06L283.23 67.18Q285.11 63.64 287.39 60.64L287.29 60.54L287.26 60.51Q284.35 60.81 281.36 60.81L281.39 60.85L281.46 60.92Q269.98 60.86 262.91 56.72L262.83 56.64L261.72 53.53L261.65 53.45Q261.02 51.90 260.31 50.26L260.28 50.23L260.36 50.31Q268.54 55.27 279.24 55.70L279.13 55.59L279.11 55.57Q288.91 56.16 298.55 52.45L298.38 52.29L298.49 52.39Q298.13 53.17 297.20 54.82L297.23 54.85L297.12 54.73Q290.32 63.64 284.97 73.99ZM300.09 57.27L300.09 57.28L302.13 53.68L302.00 53.55Q300.26 54.52 297.12 55.87L297.07 55.82L297.39 55.22L297.39 55.22Q297.60 54.93 297.82 54.72L297.80 54.70L297.92 54.82Q298.64 53.54 299.99 51.04L299.96 51.01L299.97 51.01Q290.05 55.37 279.27 54.94L279.21 54.88L279.28 54.96Q267.82 54.27 258.89 48.70L259.09 48.90L258.90 48.71Q260.92 52.29 262.49 57.29L262.46 57.27L262.40 57.20Q264.60 58.55 266.10 59.12L266.08 59.10L266.08 59.10Q266.44 59.82 267.30 63.32L267.26 63.28L267.20 63.22Q273.07 65.52 283.42 65.24L283.40 65.22L283.38 65.19Q282.81 66.26 279.09 73.33L279.15 73.38L279.25 73.48Q275.32 73.41 271.61 73.05L271.66 73.11L271.67 73.11Q271.68 74.55 271.68 76.19L271.87 76.38L271.83 79.56L274.98 79.57L274.85 82.07L274.96 82.18Q267.58 96.00 262.36 102.71L262.43 102.78L262.27 102.62Q265.25 101.17 268.32 100.24L268.49 100.41L268.45 100.37Q267.16 102.08 264.59 105.29L264.55 105.25L264.63 105.33Q270.46 103.17 275.03 102.74L275.13 102.84L275.03 102.74Q280.50 95.65 286.36 82.94L286.36 82.94L292.81 83.33L292.87 83.39Q292.66 81.61 292.66 79.90L292.62 79.86L292.78 76.67L292.61 76.49Q292.20 76.58 291.16 76.65L291.06 76.55L291.25 76.74Q290.05 76.64 289.55 76.64L289.71 76.81L289.54 76.63Q289.68 76.56 289.76 76.28L289.74 76.26L289.60 75.63L289.65 75.67Q294.31 65.99 300.10 57.28Z"/><path d="M6 103 C173 24,174 63,331 119" stroke="#91d948" fill="none"/><path d="M12 53 C182 68,156 112,324 106" stroke="#e78463" fill="none"/><path d="M15 46 C184 85,154 118,340 8" stroke="#e96caa" fill="none"/><path d="M14 68 C183 40,184 21,329 45" stroke="#ed90ed" fill="none"/><path d="M2 78 C170 42,168 4,326 86" stroke="#89d2eb" fill="none"/><path d="M8 133 C175 124,159 107,332 129" stroke="#3be18e" fill="none"/><path d="M19 132 C169 77,161 17,321 127" stroke="#e7829b" fill="none"/><path d="M14 2 C152 101,174 7,327 28" stroke="#ef7f9b" fill="none"/><path d="M16 62 C189 116,173 30,323 2" stroke="#e589a0" fill="none"/><path d="M13 24 C176 55,165 108,328 134" stroke="#eb74eb" fill="none"/><path d="M19 82 C175 118,157 76,335 76" stroke="#e6839c" fill="none"/><path d="M3 31 C182 5,176 117,328 120" stroke="#76e9af" fill="none"/><path d="M18 29 C181 46,188 22,323 91" stroke="#51e075" fill="none"/><path fill="#e39d86" d="M51.13 77.78L51.12 77.77L51.17 77.81Q47.72 77.86 45.43 80.36L45.35 80.28L45.41 80.34Q43.14 82.84 42.85 86.41L42.88 86.45L42.85 86.41Q42.40 90.32 44.69 92.21L44.75 92.28L44.69 92.21Q47.10 94.24 51.10 94.09L50.98 93.97L51.10 94.09Q55.47 93.82 57.26 92.04L57.19 91.97L57.18 91.96Q59.12 89.26 58.90 85.83L59.00 85.94L58.89 85.82Q58.69 82.33 56.65 80.08L56.62 80.06L56.61 80.04Q54.53 77.75 51.11 77.75ZM51.20 60.21L51.13 60.14L51.10 60.11Q48.42 59.86 45.92 60.79L45.96 60.83L46.08 60.94Q43.62 62.41 44.05 65.91L44.09 65.96L44.01 65.88Q44.95 72.88 51.23 72.88L51.26 72.91L51.21 72.86Q54.13 73.21 55.98 71.07L56.08 71.16L56.07 71.15Q57.85 68.94 57.92 66.01L57.86 65.95L57.82 65.91Q58.08 62.74 56.72 61.60L56.61 61.48L56.72 61.60Q53.49 59.94 51.06 60.08ZM50.58 98.64L50.66 98.72L44.93 98.70L44.97 98.74Q42.13 98.76 39.64 97.12L39.53 97.01L39.61 97.09Q36.96 94.87 37.24 89.51L37.25 89.52L37.19 89.46Q38.20 76.76 44.98 74.91L44.93 74.86L44.91 74.84Q40.62 73.12 38.12 63.05L38.21 63.14L38.21 63.14Q37.43 60.37 37.57 58.87L37.59 58.88L37.69 58.98Q38.24 54.96 45.16 54.89L45.20 54.93L45.13 54.86Q53.07 54.73 55.78 55.09L55.83 55.14L55.70 55.01Q63.05 56.15 63.90 59.93L63.86 59.88L63.92 59.95Q64.08 61.03 64.08 61.74L64.00 61.67L64.06 61.73Q63.96 62.91 63.61 64.05L63.61 64.06L63.69 64.13Q62.63 72.15 57.14 75.00L57.14 75.00L56.97 74.83Q63.65 76.45 64.58 86.37L64.64 86.43L64.62 86.41Q64.60 86.67 64.67 89.10L64.65 89.09L64.56 89.00Q64.76 94.19 61.76 96.18L61.83 96.26L61.67 96.10Q59.28 97.92 50.72 98.78ZM54.91 103.04L54.95 103.08L61.22 103.21L61.24 103.23Q64.48 103.40 67.33 102.04L67.24 101.95L67.32 102.03Q69.36 100.57 69.50 97.08L69.61 97.18L69.50 97.07Q69.71 95.14 68.99 91.50L68.94 91.44L68.94 91.44Q67.14 82.65 63.22 79.16L63.24 79.18L62.81 78.40L62.63 78.07L62.28 77.51L62.23 77.46Q65.26 74.85 66.97 67.07L67.11 67.20L67.13 67.22Q67.10 66.47 67.24 64.90L67.15 64.82L67.26 64.93Q67.35 63.59 67.21 62.45L67.25 62.49L67.28 62.52Q66.98 59.80 64.77 58.87L64.69 58.78L64.74 58.77L64.35 58.51L64.48 58.64Q63.85 57.16 61.64 55.66L61.77 55.80L61.84 55.79L61.73 55.68Q58.01 54.39 50.37 54.04L50.42 54.08L50.33 53.99Q47.41 53.78 44.84 54.00L45.02 54.18L45.00 54.16Q43.41 54.14 40.99 54.43L40.91 54.35L41.00 54.44Q37.30 55.10 36.87 58.17L37.02 58.31L36.92 58.21Q36.80 59.09 36.87 60.59L36.87 60.59L36.95 60.67Q37.10 61.60 38.17 66.03L38.14 66.00L38.17 66.03Q39.71 72.13 42.99 74.63L43.00 74.64L43.08 74.72L43.21 74.86Q37.91 77.19 36.91 86.89L36.86 86.85L36.92 86.90Q36.54 91.02 36.54 92.74L36.57 92.77L36.66 92.85Q36.74 96.15 38.95 97.86L39.01 97.92L38.91 97.82Q39.20 98.04 39.70 98.40L39.73 98.43L39.57 98.26Q41.64 102.69 54.98 103.12ZM54.35 82.35L54.35 82.35L54.25 82.25Q55.91 82.05 57.55 82.91L57.66 83.02L57.68 83.04Q58.33 84.83 58.26 85.83L58.19 85.76L58.19 85.77Q58.35 86.42 58.35 86.99L58.32 86.96L58.42 87.07Q58.38 91.45 54.10 93.02L54.13 93.06L54.08 93.00Q52.49 93.49 50.99 93.27L51.08 93.36L51.16 93.44Q49.01 93.57 46.86 92.71L46.87 92.72L46.94 92.79Q46.42 91.55 46.56 89.69L46.40 89.54L46.52 89.66Q46.87 86.72 49.11 84.43L48.95 84.26L49.03 84.35Q51.27 82.06 54.27 82.27ZM54.69 64.49L54.70 64.50L54.67 64.47Q56.21 64.30 57.21 64.58L57.23 64.60L57.26 66.13L57.14 66.01Q57.20 68.71 55.49 70.60L55.47 70.58L55.48 70.60Q53.74 72.46 51.17 72.10L51.19 72.12L51.12 72.05Q49.39 72.18 48.60 71.75L48.57 71.72L48.49 71.64Q48.43 71.14 48.21 69.86L48.34 69.98L48.32 69.97Q47.76 67.27 50.05 65.70L50.16 65.81L50.09 65.75Q52.01 64.38 54.66 64.46Z"/><path d="M2 80 C171 32,172 102,326 39" stroke="#6fc4e0" fill="none"/><path d="M7 47 C179 121,172 29,327 24" stroke="#9a81e3" fill="none"/><path d="M3 113 C166 99,187 84,325 88" stroke="#e2368c" fill="none"/><path d="M5 25 C179 106,152 29,333 50" stroke="#ca72e8" fill="none"/><path d="M16 40 C161 122,160 72,325 107" stroke="#60dc9e" fill="none"/><path d="M2 105 C160 90,185 26,329 108" stroke="#c867e9" fill="none"/><path d="M5 108 C192 30,166 37,322 66" stroke="#a5ea8e" fill="none"/><path d="M20 126 C176 68,158 114,323 6" stroke="#e5e546" fill="none"/><path fill="#74e690" d="M159.57 98.83L159.66 98.92L159.58 98.84Q152.02 99.35 150.17 94.99L150.04 94.86L150.02 94.85Q151.53 93.14 154.45 89.79L154.44 89.77L154.34 89.68Q155.33 93.52 160.97 93.73L160.97 93.73L160.96 93.72Q167.29 93.84 170.36 91.34L170.36 91.34L170.49 91.48Q173.08 88.43 172.94 83.36L172.88 83.30L172.94 83.36Q172.68 73.90 163.69 74.32L163.64 74.27L163.57 74.20Q158.33 74.54 155.05 76.89L155.14 76.99L154.50 76.63L154.09 76.36L154.17 76.44Q154.71 70.41 154.50 65.27L154.56 65.33L154.44 65.22Q154.32 60.38 153.67 54.17L153.69 54.19L153.56 54.06Q160.46 55.89 167.60 55.68L167.73 55.80L167.59 55.67Q174.70 55.50 181.41 53.14L181.48 53.22L180.38 56.04L180.41 56.07Q179.92 57.58 179.56 59.15L179.59 59.17L179.48 59.06Q173.73 61.10 166.45 61.10L166.30 60.95L166.36 61.00Q163.58 60.94 160.80 60.65L160.91 60.77L160.88 60.74Q160.77 62.05 160.13 70.41L160.06 70.34L160.03 70.31Q161.64 69.49 165.50 69.21L165.60 69.31L165.44 69.15Q172.44 69.59 175.16 72.73L175.20 72.77L175.26 72.84Q177.72 75.58 178.22 82.79L178.36 82.93L178.29 82.86Q178.75 90.67 176.47 94.46L176.52 94.51L176.48 94.47Q172.78 98.12 166.57 98.54L166.43 98.41L166.42 98.40Q164.60 98.57 159.60 98.86ZM170.95 103.14L171.01 103.20L170.95 103.14Q177.30 103.21 180.87 101.14L180.93 101.20L180.97 101.24Q182.80 98.36 182.80 94.43L182.84 94.48L182.80 94.44Q182.84 88.70 181.06 80.99L181.06 80.99L181.04 80.97Q180.19 77.55 177.90 74.91L177.99 74.99L178.14 75.22L177.73 74.66L177.09 74.31L177.08 74.30Q176.46 72.89 175.24 71.60L175.20 71.56L175.30 71.73L175.18 71.61Q172.34 68.48 165.41 68.48L165.42 68.49L164.87 68.44L164.92 68.48Q165.06 67.42 165.42 65.35L165.37 65.30L165.45 65.38Q174.72 65.51 182.29 62.44L182.30 62.46L182.26 62.42Q183.09 59.82 184.87 54.53L184.91 54.58L180.99 56.37L181.03 56.41Q181.61 54.13 182.54 51.99L182.62 52.07L182.68 52.13Q175.34 54.71 167.63 54.86L167.76 54.98L167.68 54.90Q160.08 55.23 152.66 53.16L152.65 53.15L152.49 52.99Q153.81 61.31 153.81 69.59L153.77 69.55L153.82 69.60Q153.91 73.26 153.70 76.83L153.73 76.86L153.65 76.78Q154.07 77.06 155.15 77.63L155.20 77.68L155.21 77.70Q155.95 77.36 157.16 76.72L157.09 76.65L157.01 76.56Q156.93 77.99 156.51 80.85L156.57 80.91L156.56 80.90Q157.33 81.24 158.11 81.67L158.15 81.71L158.21 81.76Q163.31 78.37 166.81 78.37L166.91 78.48L166.95 78.51Q169.30 78.36 171.51 79.58L171.59 79.66L171.62 79.69Q172.24 81.60 172.32 83.38L172.36 83.42L172.34 83.40Q172.43 88.21 170.50 90.28L170.43 90.20L170.47 90.24Q167.90 92.52 163.68 92.95L163.78 93.05L163.73 92.99Q161.88 93.07 160.59 92.93L160.63 92.96L160.73 93.06Q158.99 92.68 157.56 92.04L157.71 92.19L157.49 91.61L157.40 91.95L157.36 91.91Q155.92 91.04 154.92 88.54L154.88 88.50L154.97 88.59Q152.29 91.05 149.15 95.05L149.25 95.15L149.18 95.08Q149.85 96.39 151.43 98.18L151.38 98.14L151.45 98.20Q153.46 101.64 158.74 102.57L158.69 102.52L158.65 102.47Q160.78 102.82 170.84 103.04Z"/><path d="M17 116 C169 75,182 107,331 68" stroke="#ea4799" fill="none"/><path d="M3 38 C150 106,177 105,339 26" stroke="#62da9e" fill="none"/><path d="M20 66 C184 30,166 127,334 85" stroke="#65dcbe" fill="none"/></svg>