<svg xmlns="http://www.w3.org/2000/svg" width="342" height="140" viewBox="0,0,342,140"><path d="M12 41 C186 27,151 74,339 116" stroke="#6fe08c" fill="none"/><path d="M15 9 C159 2,179 80,336 95" stroke="#c9e674" fill="none"/><path fill="#dc3b8c" d="M123.19 84.92L123.10 84.83L123.10 84.83Q128.93 84.16 134.93 84.38L134.94 84.40L134.94 84.40Q134.96 79.71 134.96 75.21L134.92 75.17L134.85 75.10Q134.80 70.40 135.16 65.62L135.27 65.73L135.23 65.70Q133.05 69.02 123.27 85.00ZM141.70 98.65L141.65 98.60L141.68 98.63Q138.51 98.03 135.16 97.89L135.18 97.91L135.34 98.07Q134.84 93.50 134.63 88.86L134.70 88.94L134.67 88.91Q124.65 88.52 115.80 91.17L115.87 91.23L115.74 91.10Q116.02 90.24 116.37 88.38L116.42 88.43L116.33 88.34Q119.67 82.40 126.38 70.62L126.48 70.72L126.50 70.74Q131.99 61.67 138.41 54.39L138.35 54.33L138.42 54.39Q139.96 53.94 143.10 53.44L143.12 53.46L143.15 53.49Q139.48 65.45 139.48 78.65L139.52 78.69L139.63 78.81Q139.63 81.59 139.77 84.37L139.76 84.36L142.04 84.43L142.03 84.41Q143.19 84.50 144.33 84.72L144.37 84.76L144.32 84.71Q144.62 86.65 145.12 90.29L145.09 90.26L145.07 90.24Q142.87 89.83 140.09 89.47L140.13 89.51L139.97 89.35Q140.54 93.28 141.83 98.78ZM144.93 84.11L144.93 84.10L144.83 84.01Q144.61 84.00 144.25 84.00L144.25 84.00L143.39 83.85L143.53 83.99Q143.33 81.23 143.33 78.58L143.24 78.49L143.21 78.46Q143.20 66.46 147.06 55.18L147.14 55.27L147.02 55.15Q145.62 55.67 142.91 56.39L142.87 56.35L143.06 56.54Q143.36 54.98 144.21 52.34L144.28 52.40L144.22 52.34Q141.85 53.11 137.99 53.54L138.02 53.56L138.05 53.60Q130.60 61.64 120.83 79.20L120.86 79.24L124.80 72.40L124.82 72.42Q124.06 74.37 123.56 75.44L123.52 75.40L115.10 92.25L115.17 92.32Q116.36 92.01 118.50 91.30L118.52 91.32L118.14 91.65L118.18 91.69Q117.96 92.97 117.39 95.33L117.41 95.35L117.50 95.43Q125.18 92.91 134.25 93.26L134.09 93.10L134.22 93.23Q134.31 95.04 134.67 98.75L134.57 98.66L134.53 98.62Q136.62 98.71 138.62 98.92L138.57 98.87L138.52 98.83Q138.92 100.23 139.42 102.80L139.41 102.79L139.38 102.75Q142.93 103.17 148.57 104.88L148.69 104.99L148.63 104.94Q146.70 100.86 144.98 94.72L144.94 94.68L147.82 95.70L147.64 95.53Q148.97 96.00 150.26 96.64L150.25 96.63L150.28 96.66Q148.87 92.04 148.58 88.90L148.58 88.90L148.50 88.82Q147.39 88.49 145.25 88.07L145.27 88.08L145.32 88.14Q144.85 85.66 144.85 84.02ZM129.92 83.80L129.91 83.78L129.87 83.75Q131.35 81.38 134.28 76.60L134.30 76.62L134.17 76.48Q134.22 78.32 134.15 80.11L134.09 80.04L134.27 80.22Q134.11 81.92 134.18 83.70L134.33 83.85L134.19 83.71Q133.22 83.75 132.15 83.75L132.13 83.73L132.12 83.71Q130.95 83.69 129.81 83.69Z"/><path d="M6 138 C190 14,185 99,323 23" stroke="#afe37c" fill="none"/><path d="M16 70 C154 127,177 31,336 65" stroke="#df3eb7" fill="none"/><path d="M16 92 C185 63,159 110,339 108" stroke="#e278ad" fill="none"/><path d="M13 127 C187 64,173 26,338 32" stroke="#59ddbc" fill="none"/><path d="M16 20 C191 128,157 4,322 126" stroke="#de6262" fill="none"/><path d="M17 103 C159 105,156 130,327 54" stroke="#df3e3e" fill="none"/><path d="M8 23 C168 117,182 77,329 105" stroke="#68dda3" fill="none"/><path d="M5 14 C185 56,174 79,328 10" stroke="#a892eb" fill="none"/><path fill="#efb77f" d="M266.55 77.86L266.61 77.93L266.60 77.91Q263.08 77.89 260.79 80.38L260.72 80.32L260.72 80.31Q258.48 82.85 258.19 86.42L258.22 86.45L258.13 86.36Q257.82 90.40 260.10 92.29L260.13 92.32L260.16 92.35Q262.41 94.21 266.41 94.07L266.39 94.05L266.37 94.03Q270.70 93.72 272.49 91.94L272.63 92.08L272.51 91.96Q274.50 89.31 274.29 85.89L274.23 85.83L274.31 85.91Q274.00 82.31 271.96 80.06L272.08 80.18L271.90 80.00Q270.06 77.95 266.64 77.95ZM266.48 60.16L266.54 60.22L266.39 60.07Q263.87 59.98 261.37 60.91L261.31 60.84L261.37 60.91Q258.87 62.33 259.30 65.83L259.42 65.95L259.40 65.93Q260.20 72.80 266.48 72.80L266.59 72.91L266.52 72.83Q269.48 73.22 271.33 71.08L271.35 71.10L271.31 71.05Q273.10 68.85 273.17 65.92L273.33 66.09L273.26 66.01Q273.48 62.80 272.12 61.66L272.06 61.61L272.11 61.65Q268.94 60.05 266.51 60.19ZM265.93 98.66L265.93 98.66L260.27 98.71L260.24 98.67Q257.48 98.77 254.98 97.13L254.92 97.07L255.00 97.15Q252.27 94.85 252.56 89.50L252.60 89.53L252.66 89.60Q253.55 76.78 260.33 74.92L260.28 74.88L260.29 74.88Q256.00 73.17 253.50 63.10L253.41 63.01L253.44 63.04Q252.86 60.46 253.00 58.96L252.97 58.93L253.01 58.97Q253.53 54.92 260.45 54.84L260.53 54.92L260.39 54.79Q268.38 54.71 271.09 55.07L271.04 55.01L271.01 54.98Q278.41 56.17 279.26 59.95L279.27 59.96L279.24 59.93Q279.38 61.00 279.38 61.72L279.35 61.68L279.37 61.70Q279.36 62.98 279.00 64.12L278.97 64.09L278.93 64.05Q277.81 71.99 272.31 74.84L272.41 74.94L272.40 74.93Q278.98 76.45 279.91 86.37L279.83 86.29L279.97 86.42Q279.80 86.54 279.87 88.97L280.04 89.14L279.93 89.02Q280.02 94.11 277.02 96.11L277.09 96.19L277.19 96.28Q274.56 97.87 266.00 98.72ZM270.27 103.07L270.17 102.97L276.58 103.23L276.44 103.10Q279.78 103.37 282.63 102.01L282.67 102.05L282.67 102.05Q284.68 100.56 284.82 97.06L284.93 97.17L284.92 97.16Q284.93 95.03 284.22 91.39L284.18 91.36L284.19 91.36Q282.60 82.78 278.67 79.28L278.55 79.16L278.34 78.59L277.98 78.09L277.61 77.50L277.63 77.52Q280.72 74.97 282.44 67.19L282.35 67.11L282.48 67.24Q282.36 66.41 282.50 64.84L282.44 64.77L282.51 64.84Q282.58 63.49 282.44 62.34L282.53 62.44L282.61 62.51Q282.32 59.80 280.11 58.87L280.01 58.78L280.10 58.79L279.78 58.61L279.83 58.66Q279.27 57.25 277.06 55.75L277.13 55.82L277.18 55.80L277.03 55.65Q273.48 54.53 265.84 54.17L265.81 54.13L265.85 54.18Q262.84 53.88 260.27 54.09L260.18 54.01L260.26 54.08Q258.85 54.25 256.43 54.53L256.33 54.44L256.38 54.49Q252.65 55.11 252.22 58.18L252.34 58.30L252.22 58.18Q252.14 59.09 252.21 60.59L252.17 60.55L252.28 60.66Q252.52 61.69 253.59 66.12L253.58 66.11L253.47 65.99Q255.02 72.11 258.30 74.61L258.40 74.71L258.53 74.84L258.48 74.79Q253.34 77.29 252.34 87.00L252.23 86.88L252.36 87.01Q251.84 90.99 251.84 92.71L251.94 92.80L251.89 92.75Q251.98 96.06 254.20 97.77L254.30 97.88L254.29 97.86Q254.41 97.91 254.91 98.27L255.03 98.39L254.90 98.27Q256.91 102.63 270.26 103.06ZM269.61 82.28L269.66 82.33L269.67 82.34Q271.31 82.13 272.96 82.98L272.97 82.99L273.04 83.07Q273.69 84.86 273.62 85.86L273.53 85.78L273.60 85.84Q273.77 86.51 273.77 87.08L273.69 87.00L273.59 86.90Q273.71 91.44 269.42 93.01L269.45 93.04L269.49 93.08Q267.90 93.56 266.40 93.34L266.46 93.40L266.43 93.37Q264.41 93.64 262.27 92.78L262.20 92.72L262.15 92.66Q261.62 91.42 261.77 89.57L261.75 89.55L261.92 89.72Q262.08 86.60 264.33 84.32L264.28 84.26L264.33 84.31Q266.68 82.13 269.68 82.34ZM270.09 64.56L270.10 64.57L269.98 64.45Q271.61 64.36 272.61 64.65L272.51 64.55L272.60 66.14L272.52 66.06Q272.55 68.73 270.84 70.62L270.76 70.54L270.85 70.64Q269.10 72.49 266.53 72.13L266.62 72.22L266.50 72.11Q264.69 72.14 263.90 71.72L263.85 71.67L263.98 71.80Q263.73 71.12 263.52 69.83L263.63 69.94L263.70 70.02Q263.09 67.26 265.37 65.69L265.44 65.76L265.36 65.68Q267.32 64.36 269.96 64.43Z"/><path d="M5 93 C157 126,180 74,333 115" stroke="#95e9d4" fill="none"/><path d="M18 129 C170 12,151 121,341 21" stroke="#e1e155" fill="none"/><path d="M4 85 C152 99,189 12,333 42" stroke="#58e8c4" fill="none"/><path d="M3 30 C164 41,167 133,333 44" stroke="#bc58de" fill="none"/><path d="M4 134 C182 73,173 96,335 45" stroke="#54e278" fill="none"/><path d="M17 41 C153 34,159 39,340 54" stroke="#ade079" fill="none"/><path d="M17 26 C170 52,168 37,322 66" stroke="#39de8c" fill="none"/><path d="M15 88 C182 51,185 83,333 136" stroke="#e4b939" fill="none"/><path fill="#dc866a" d="M198.32 77.63L198.41 77.72L198.35 77.66Q195.07 77.59 192.75 80.27L192.69 80.21L192.72 80.25Q190.39 82.91 190.03 86.48L189.96 86.40L190.02 86.46Q189.59 90.32 191.63 92.14L191.48 92.00L191.59 92.10Q193.57 93.87 197.50 93.65L197.58 93.74L197.58 93.74Q201.55 93.50 203.62 92.21L203.57 92.16L203.45 92.04Q205.68 90.06 205.68 87.13L205.78 87.23L205.72 87.18Q205.71 86.45 205.57 85.74L205.60 85.77L205.54 85.71Q205.58 82.47 203.51 79.93L203.55 79.97L203.55 79.97Q201.62 77.58 198.48 77.80ZM197.55 98.49L197.59 98.53L197.71 98.65Q189.48 98.62 186.83 97.20L186.84 97.20L186.71 97.08Q184.90 95.76 184.54 92.55L184.51 92.52L184.58 92.58Q184.31 91.10 184.38 89.75L184.54 89.91L184.51 89.88Q184.73 88.03 184.73 87.17L184.76 87.20L184.62 87.06Q185.55 81.78 185.83 80.49L185.91 80.57L185.82 80.48Q186.77 76.93 188.34 74.29L188.22 74.18L188.32 74.27Q193.21 65.95 204.34 54.03L204.37 54.06L204.35 54.04Q209.29 53.42 213.43 51.92L213.44 51.92L213.44 51.93Q200.66 65.98 194.66 73.91L194.64 73.88L194.62 73.86Q196.57 73.03 199.00 73.03L198.87 72.90L199.06 73.09Q205.14 72.96 208.00 76.61L208.12 76.72L208.07 76.67Q210.48 79.66 211.12 86.30L211.15 86.32L211.19 86.37Q211.23 87.61 211.23 88.76L211.24 88.77L211.40 88.93Q211.31 94.69 207.17 96.69L207.12 96.64L207.18 96.70Q204.91 97.86 197.63 98.57ZM201.97 103.12L201.93 103.08L201.96 103.11Q204.39 103.05 208.10 103.19L207.97 103.06L208.09 103.18Q211.09 103.25 214.02 101.90L214.12 102.00L214.12 102.00Q216.00 100.31 216.00 96.96L216.01 96.96L216.12 97.08Q216.05 96.08 215.73 94.23L215.74 94.23L215.84 94.33Q215.55 92.50 215.55 91.65L215.36 91.46L215.47 91.57Q213.85 82.74 210.85 79.17L210.88 79.20L210.80 79.12Q210.68 78.92 210.39 78.50L210.30 78.41L209.79 78.04L209.66 77.98L209.60 77.92Q209.12 77.16 207.98 75.37L207.80 75.19L207.96 75.35Q206.10 73.42 202.38 72.56L202.43 72.61L202.49 72.67Q204.81 69.70 210.38 62.78L210.24 62.65L218.33 52.89L218.19 52.75Q215.36 54.49 210.86 55.91L210.85 55.90L210.76 55.81Q212.54 54.02 215.89 50.30L215.97 50.39L215.82 50.23Q211.40 52.31 204.12 53.38L204.12 53.38L204.12 53.38Q193.42 64.45 187.85 73.73L187.76 73.64L187.85 73.73Q184.97 78.41 183.90 90.12L184.00 90.22L183.82 90.04Q183.74 91.17 183.88 92.96L183.82 92.90L183.89 92.97Q184.11 96.33 186.18 98.04L186.20 98.06L186.13 98.00Q186.89 98.32 186.82 98.40L186.75 98.33L186.82 98.40Q187.49 100.07 188.99 100.85L188.91 100.77L189.05 100.91Q191.59 102.03 195.23 102.38L195.40 102.55L195.28 102.43Q195.41 102.56 201.98 103.13ZM201.55 82.07L201.39 81.92L201.41 81.94Q202.55 81.79 204.33 82.72L204.41 82.79L204.31 82.69Q205.00 84.53 205.00 85.74L204.89 85.63L204.86 85.60Q205.42 89.30 203.64 91.16L203.47 90.99L203.50 91.02Q201.58 92.45 197.65 93.02L197.60 92.97L197.67 93.04Q194.91 92.99 193.91 92.49L193.93 92.52L194.00 92.58Q193.51 91.60 193.51 91.02L193.50 91.02L193.57 91.08Q193.09 84.90 198.59 82.47L198.53 82.41L198.52 82.40Q199.96 81.77 201.38 81.91Z"/><path d="M12 50 C162 70,165 5,339 44" stroke="#79d75a" fill="none"/><path d="M4 39 C165 107,163 94,328 71" stroke="#79f0d2" fill="none"/><path d="M4 81 C182 40,174 104,338 35" stroke="#9e58e3" fill="none"/><path d="M7 103 C162 28,180 106,323 132" stroke="#64e6e6" fill="none"/><path d="M6 6 C169 83,155 72,335 91" stroke="#71e849" fill="none"/><path d="M8 103 C167 122,157 49,332 29" stroke="#859fee" fill="none"/><path d="M17 39 C192 92,183 56,325 135" stroke="#6a6aeb" fill="none"/><path d="M7 92 C181 44,150 16,336 14" stroke="#8c6fe6" fill="none"/><path d="M14 12 C176 70,178 20,332 94" stroke="#9292e6" fill="none"/><path d="M9 53 C152 16,170 98,325 32" stroke="#8cf2f2" fill="none"/><path d="M10 109 C191 78,190 94,321 67" stroke="#bbe736" fill="none"/><path d="M11 28 C177 84,159 94,335 42" stroke="#e3589e" fill="none"/><path d="M2 69 C165 78,175 110,328 6" stroke="#5a5ae6" fill="none"/><path d="M3 44 C179 64,158 114,340 47" stroke="#4e6fd4" fill="none"/><path d="M20 104 C156 54,183 103,326 47" stroke="#d86d4a" fill="none"/><path d="M12 17 C173 39,157 56,330 94" stroke="#e17e7e" fill="none"/><path d="M15 11 C168 55,164 124,335 135" stroke="#6d8ded" fill="none"/><path d="M11 46 C183 127,161 104,341 88" stroke="#ebb279" fill="none"/><path d="M11 134 C157 138,154 4,322 82" stroke="#416ae6" fill="none"/><path d="M1 137 C176 133,161 117,331 26" stroke="#eb6a6a" fill="none"/><path d="M4 61 C165 65,177 53,332 84" stroke="#e5569e" fill="none"/><path fill="#ebb783" d="M62.54 77.86L62.60 77.91L62.56 77.87Q58.98 77.79 56.70 80.29L56.73 80.32L56.76 80.36Q54.41 82.78 54.12 86.35L54.16 86.39L54.27 86.50Q53.74 90.33 56.03 92.22L56.07 92.26L56.19 92.38Q58.43 94.22 62.42 94.08L62.34 94.00L62.37 94.03Q66.77 93.79 68.55 92.00L68.50 91.95L68.50 91.95Q70.50 89.31 70.28 85.88L70.28 85.88L70.33 85.93Q70.09 82.40 68.05 80.16L68.04 80.14L68.08 80.18Q66.03 77.91 62.60 77.91ZM62.40 60.08L62.55 60.23L62.53 60.21Q59.83 59.93 57.33 60.86L57.26 60.80L57.24 60.78Q54.88 62.34 55.31 65.84L55.26 65.79L55.30 65.83Q56.35 72.95 62.63 72.95L62.49 72.80L62.49 72.80Q65.37 73.12 67.23 70.98L67.32 71.07L67.28 71.03Q69.18 68.93 69.25 66.00L69.34 66.09L69.35 66.10Q69.41 62.73 68.05 61.59L67.96 61.50L68.10 61.64Q64.86 59.98 62.44 60.12ZM61.87 98.60L61.88 98.60L56.16 98.60L56.22 98.66Q53.41 98.71 50.92 97.06L50.90 97.05L50.93 97.08Q48.28 94.86 48.57 89.50L48.66 89.60L48.52 89.46Q49.56 76.79 56.34 74.94L56.34 74.94L56.27 74.86Q52.01 73.18 49.52 63.12L49.52 63.12L49.53 63.13Q48.87 60.47 49.01 58.97L48.95 58.91L48.93 58.88Q49.60 54.99 56.52 54.91L56.50 54.90L56.44 54.83Q64.32 54.65 67.04 55.01L67.10 55.07L67.18 55.15Q74.29 56.05 75.14 59.83L75.26 59.95L75.26 59.95Q75.35 60.96 75.35 61.68L75.47 61.80L75.33 61.66Q75.45 63.07 75.10 64.21L75.04 64.15L75.12 64.24Q73.91 72.09 68.41 74.94L68.40 74.93L68.33 74.86Q74.91 76.38 75.84 86.30L75.85 86.31L75.97 86.43Q75.97 86.72 76.04 89.14L75.89 88.99L75.97 89.07Q76.08 94.18 73.08 96.18L73.14 96.24L73.09 96.18Q70.59 97.89 62.02 98.75ZM66.24 103.04L66.17 102.97L72.61 103.27L72.56 103.22Q75.80 103.39 78.65 102.03L78.51 101.89L78.63 102.01Q80.84 100.72 80.98 97.22L80.93 97.17L80.80 97.04Q80.98 95.08 80.27 91.44L80.34 91.51L80.26 91.43Q78.47 82.65 74.55 79.15L74.56 79.17L74.17 78.42L73.93 78.04L73.54 77.43L73.61 77.50Q76.72 74.97 78.43 67.19L78.49 67.24L78.43 67.19Q78.29 66.34 78.43 64.76L78.62 64.95L78.55 64.88Q78.76 63.67 78.62 62.52L78.60 62.50L78.48 62.39Q78.14 59.62 75.93 58.70L76.10 58.86L76.18 58.87L75.74 58.57L75.71 58.55Q75.18 57.16 72.97 55.66L73.06 55.75L73.01 55.63L73.04 55.66Q69.49 54.54 61.85 54.18L61.79 54.12L61.83 54.16Q58.92 53.96 56.35 54.18L56.20 54.02L56.19 54.01Q54.69 54.08 52.26 54.37L52.32 54.42L52.35 54.46Q48.63 55.09 48.20 58.16L48.17 58.13L48.31 58.27Q48.16 59.12 48.23 60.62L48.32 60.71L48.25 60.64Q48.57 61.75 49.65 66.17L49.46 65.99L49.46 65.98Q50.97 72.07 54.26 74.57L54.37 74.68L54.57 74.88L54.52 74.83Q49.19 77.14 48.19 86.85L48.26 86.92L48.22 86.88Q47.90 91.05 47.90 92.76L47.90 92.76L47.84 92.71Q48.13 96.20 50.34 97.92L50.35 97.93L50.17 97.75Q50.45 97.96 50.95 98.31L50.91 98.27L50.99 98.35Q52.83 102.55 66.18 102.98ZM65.53 82.20L65.53 82.20L65.60 82.27Q67.26 82.07 68.90 82.93L69.00 83.03L69.00 83.03Q69.71 84.88 69.64 85.88L69.68 85.92L69.54 85.78Q69.68 86.42 69.68 86.99L69.75 87.06L69.67 86.98Q69.66 91.39 65.38 92.97L65.43 93.02L65.34 92.93Q63.90 93.56 62.40 93.34L62.34 93.29L62.34 93.29Q60.26 93.49 58.12 92.63L58.09 92.60L58.14 92.65Q57.63 91.43 57.77 89.57L57.91 89.71L57.77 89.58Q58.14 86.66 60.39 84.37L60.37 84.35L60.43 84.41Q62.57 82.02 65.57 82.24ZM66.03 64.49L66.07 64.54L65.97 64.44Q67.46 64.22 68.46 64.50L68.53 64.57L68.49 66.03L68.52 66.06Q68.62 68.80 66.91 70.69L66.78 70.56L66.79 70.57Q65.17 72.56 62.60 72.20L62.61 72.22L62.64 72.24Q60.61 72.07 59.83 71.64L59.90 71.72L59.88 71.69Q59.82 71.20 59.60 69.92L59.53 69.85L59.54 69.86Q59.20 67.37 61.48 65.80L61.37 65.69L61.37 65.69Q63.33 64.36 65.97 64.44Z"/><path d="M13 61 C174 51,156 85,324 4" stroke="#a064dd" fill="none"/></svg>