<svg xmlns="http://www.w3.org/2000/svg" width="342" height="140" viewBox="0,0,342,140"><path d="M2 51 C166 109,183 61,329 103" stroke="#d485ef" fill="none"/><path d="M14 55 C168 117,168 130,335 79" stroke="#e55176" fill="none"/><path d="M19 118 C179 115,151 12,329 33" stroke="#93bfeb" fill="none"/><path d="M16 14 C176 51,191 110,330 88" stroke="#e995bf" fill="none"/><path d="M6 133 C157 70,191 87,337 119" stroke="#eaea61" fill="none"/><path d="M12 101 C186 19,165 18,328 77" stroke="#9648e4" fill="none"/><path d="M14 120 C183 129,184 129,339 23" stroke="#67aaee" fill="none"/><path d="M15 126 C175 35,185 82,321 25" stroke="#9eeb50" fill="none"/><path d="M4 126 C168 88,160 106,326 23" stroke="#54dd76" fill="none"/><path d="M2 94 C154 13,169 127,330 93" stroke="#4cb7db" fill="none"/><path fill="#dc4bb8" d="M51.73 76.86L51.85 76.98L51.73 76.86Q48.70 76.92 46.67 79.13L46.65 79.11L46.80 79.26Q44.60 81.30 44.35 84.46L44.53 84.63L44.46 84.56Q44.12 88.08 46.14 89.75L46.08 89.69L46.08 89.69Q48.17 91.44 51.71 91.32L51.71 91.32L51.68 91.28Q55.60 91.09 57.18 89.51L57.11 89.45L57.19 89.53Q58.79 87.01 58.60 83.98L58.63 84.01L58.72 84.10Q58.40 80.87 56.60 78.88L56.61 78.89L56.73 79.01Q54.91 77.00 51.87 77.00ZM51.75 61.26L51.70 61.21L51.74 61.25Q49.35 61.01 47.14 61.83L47.22 61.91L47.20 61.89Q45.11 63.28 45.49 66.38L45.44 66.33L45.35 66.24Q46.19 72.45 51.75 72.45L51.86 72.56L51.91 72.61Q54.48 72.90 56.12 71.00L56.13 71.02L56.08 70.97Q57.66 69.00 57.72 66.41L57.75 66.44L57.83 66.52Q57.80 63.45 56.60 62.44L56.70 62.55L56.71 62.55Q53.85 61.09 51.70 61.21ZM51.30 95.39L51.37 95.46L46.17 95.32L46.29 95.43Q43.78 95.46 41.57 94.00L41.47 93.91L41.45 93.89Q39.23 92.05 39.49 87.31L39.58 87.40L39.50 87.32Q40.19 75.87 46.19 74.23L46.23 74.27L46.23 74.26Q42.45 72.76 40.24 63.85L40.35 63.96L40.24 63.84Q39.77 61.61 39.89 60.28L39.88 60.26L39.83 60.21Q40.34 56.68 46.47 56.61L46.39 56.53L46.37 56.52Q53.41 56.41 55.82 56.73L55.91 56.82L55.89 56.80Q62.28 57.69 63.04 61.04L63.04 61.04L63.01 61.01Q63.16 61.99 63.16 62.62L63.14 62.59L63.13 62.59Q63.15 63.74 62.83 64.76L62.96 64.88L62.90 64.82Q61.80 71.75 56.93 74.28L56.92 74.27L57.08 74.43Q62.87 75.73 63.69 84.52L63.74 84.57L63.64 84.47Q63.72 84.80 63.78 86.95L63.72 86.88L63.66 86.82Q63.83 91.42 61.17 93.19L61.25 93.27L61.15 93.17Q58.95 94.69 51.36 95.45ZM55.06 99.21L55.08 99.23L60.77 99.49L60.69 99.41Q63.48 99.48 66.01 98.27L66.04 98.31L66.14 98.40Q67.91 97.08 68.04 93.98L68.05 93.99L68.10 94.05Q68.24 92.29 67.61 89.07L67.59 89.04L67.54 88.99Q66.02 81.28 62.55 78.19L62.61 78.25L62.10 77.43L61.86 77.06L61.63 76.64L61.56 76.57Q64.39 74.40 65.91 67.51L65.85 67.46L65.93 67.54Q65.93 66.90 66.05 65.51L66.05 65.51L66.09 65.54Q66.09 64.28 65.96 63.27L65.91 63.22L66.06 63.37Q65.83 60.98 63.87 60.16L63.68 59.98L63.85 60.08L63.56 59.92L63.58 59.93Q63.16 58.76 61.20 57.43L61.08 57.31L61.10 57.27L61.19 57.36Q57.82 56.14 51.06 55.83L51.09 55.85L51.08 55.85Q48.51 55.68 46.23 55.87L46.22 55.85L46.31 55.94Q44.99 56.01 42.84 56.26L42.83 56.26L42.75 56.18Q39.51 56.80 39.13 59.52L39.26 59.64L39.26 59.64Q39.04 60.30 39.10 61.63L39.13 61.66L39.12 61.65Q39.36 62.59 40.31 66.51L40.26 66.46L40.40 66.60Q41.73 71.98 44.64 74.19L44.49 74.04L44.75 74.30L44.65 74.20Q40.17 76.48 39.28 85.08L39.20 84.99L39.27 85.07Q38.87 88.65 38.87 90.17L38.86 90.15L38.90 90.19Q39.08 93.23 41.04 94.74L41.03 94.73L40.94 94.64Q41.13 94.76 41.57 95.08L41.61 95.12L41.66 95.17Q43.38 98.98 55.21 99.36ZM54.58 80.91L54.49 80.82L54.57 80.89Q56.16 80.85 57.62 81.61L57.53 81.52L57.55 81.53Q58.24 83.24 58.18 84.12L58.17 84.11L58.03 83.98Q58.22 84.61 58.22 85.11L58.06 84.96L58.25 85.14Q58.23 89.05 54.44 90.44L54.44 90.43L54.40 90.40Q52.95 90.78 51.62 90.59L51.75 90.72L51.80 90.77Q49.97 90.96 48.07 90.20L48.01 90.15L48.01 90.14Q47.43 88.93 47.56 87.29L47.72 87.45L47.64 87.37Q47.88 84.70 49.87 82.68L49.94 82.75L49.89 82.69Q51.93 80.72 54.58 80.91ZM54.92 65.12L54.91 65.11L54.83 65.03Q56.33 65.02 57.22 65.27L57.08 65.13L57.20 66.58L57.08 66.47Q57.08 68.80 55.56 70.47L55.61 70.52L55.56 70.48Q54.21 72.31 51.93 72.00L51.77 71.84L51.83 71.90Q50.10 71.81 49.41 71.43L49.54 71.56L49.58 71.61Q49.40 71.05 49.21 69.91L49.33 70.03L49.24 69.94Q48.71 67.51 50.73 66.12L50.87 66.26L50.84 66.22Q52.68 65.16 55.02 65.22Z"/><path d="M6 49 C151 44,167 127,323 51" stroke="#62e4c3" fill="none"/><path fill="#d4eb8d" d="M279.42 67.26L279.57 67.40L279.48 67.32Q274.29 67.43 271.25 65.66L271.23 65.64L271.19 65.61Q275.38 63.35 283.47 56.33L283.47 56.32L283.42 56.28Q284.63 55.96 286.78 54.95L286.84 55.02L286.81 54.98Q284.63 64.88 284.44 75.44L284.31 75.31L284.36 75.36Q284.29 86.03 286.06 96.15L285.99 96.08L285.86 95.95Q283.24 94.91 279.70 94.72L279.69 94.71L279.60 94.62Q279.39 87.71 279.39 80.95L279.43 80.99L279.36 80.92Q279.45 74.18 279.52 67.35ZM278.98 71.17L278.85 95.27L278.92 95.33Q280.90 95.28 282.48 95.60L282.50 95.62L282.42 95.54Q282.66 96.80 282.98 99.07L282.91 99.00L282.90 98.99Q287.57 99.81 291.62 103.54L291.63 103.55L291.66 103.58Q287.54 91.76 287.48 79.36L287.63 79.51L287.62 79.50Q287.34 66.95 290.37 54.94L290.45 55.02L290.52 55.09Q289.61 55.76 286.95 57.59L286.91 57.55L286.82 57.46Q287.12 56.18 287.63 53.65L287.73 53.75L287.66 53.69Q285.53 55.03 283.13 55.66L283.05 55.59L283.18 55.72Q276.87 61.61 269.73 65.41L269.69 65.36L269.67 65.34Q272.08 67.25 276.00 67.82L275.93 67.75L275.88 67.70Q274.94 68.72 272.79 70.49L272.76 70.46L272.64 70.34Q275.23 71.09 278.89 71.09L278.84 71.04Z"/><path d="M2 124 C176 27,184 93,323 27" stroke="#ed8ca4" fill="none"/><path d="M5 54 C165 70,179 68,334 133" stroke="#e8805d" fill="none"/><path d="M9 9 C155 56,185 34,331 60" stroke="#38e062" fill="none"/><path d="M20 106 C169 30,160 98,336 70" stroke="#ad75e4" fill="none"/><path d="M18 46 C151 37,191 137,325 94" stroke="#9ee655" fill="none"/><path d="M13 21 C188 75,165 77,339 65" stroke="#e88686" fill="none"/><path d="M3 9 C176 59,166 92,333 88" stroke="#99db56" fill="none"/><path d="M14 35 C181 58,159 27,324 37" stroke="#c059e2" fill="none"/><path d="M8 9 C171 133,178 122,325 137" stroke="#80e4e4" fill="none"/><path d="M1 65 C177 28,160 18,331 97" stroke="#77ed95" fill="none"/><path d="M11 101 C156 49,171 48,335 118" stroke="#84e5e5" fill="none"/><path d="M5 132 C186 59,178 85,322 74" stroke="#e4a05c" fill="none"/><path fill="#45e2e2" d="M101.97 83.20L102.01 83.24L101.99 83.22Q107.08 82.56 112.39 82.75L112.43 82.78L112.50 82.86Q112.40 78.58 112.40 74.60L112.36 74.55L112.37 74.57Q112.41 70.50 112.73 66.27L112.63 66.17L112.63 66.16Q110.65 69.05 101.99 83.21ZM118.34 95.33L118.50 95.49L118.48 95.48Q115.54 94.81 112.57 94.69L112.72 94.84L112.73 94.84Q112.34 90.85 112.15 86.74L112.20 86.79L112.09 86.68Q103.33 86.46 95.49 88.80L95.51 88.82L95.47 88.77Q95.76 88.05 96.07 86.40L95.88 86.22L95.91 86.24Q99.03 81.14 104.97 70.71L104.90 70.64L104.83 70.56Q109.71 62.55 115.40 56.10L115.43 56.13L115.44 56.15Q116.84 55.77 119.62 55.33L119.70 55.41L119.62 55.33Q116.37 65.92 116.37 77.62L116.46 77.71L116.37 77.62Q116.41 80.13 116.54 82.59L116.51 82.56L118.67 82.77L118.71 82.81Q119.77 82.92 120.78 83.11L120.84 83.17L120.75 83.07Q120.92 84.70 121.37 87.93L121.32 87.88L121.31 87.87Q119.33 87.47 116.87 87.16L116.99 87.28L117.00 87.29Q117.31 90.58 118.45 95.44ZM121.22 82.47L121.16 82.41L121.20 82.45Q120.79 82.23 120.48 82.23L120.62 82.37L119.96 82.35L119.88 82.27Q119.84 79.95 119.84 77.61L119.73 77.50L119.73 77.50Q119.66 66.82 123.08 56.83L123.09 56.84L123.24 56.99Q121.88 57.34 119.48 57.97L119.49 57.98L119.40 57.89Q119.97 56.82 120.73 54.48L120.63 54.38L120.69 54.43Q118.50 55.03 115.09 55.41L115.15 55.48L115.07 55.39Q108.48 62.53 99.82 78.08L99.82 78.08L103.34 72.05L103.41 72.12Q102.73 73.84 102.29 74.79L102.33 74.84L94.83 89.71L94.93 89.81Q95.83 89.39 97.73 88.75L97.75 88.78L97.51 89.17L97.59 89.25Q97.34 90.33 96.84 92.42L96.90 92.48L96.78 92.36Q103.65 90.19 111.68 90.51L111.70 90.53L111.75 90.58Q111.73 92.07 112.04 95.36L112.13 95.44L112.17 95.48Q113.88 95.43 115.65 95.62L115.70 95.66L115.55 95.51Q115.80 96.65 116.24 98.93L116.39 99.08L116.30 98.98Q119.45 99.36 124.45 100.87L124.44 100.86L124.56 100.98Q122.77 97.30 121.25 91.86L121.40 92.01L123.65 92.62L123.79 92.76Q124.92 93.12 126.06 93.69L126.02 93.65L126.02 93.66Q124.61 89.40 124.36 86.62L124.35 86.61L124.49 86.75Q123.47 86.43 121.57 86.05L121.58 86.05L121.53 86.00Q121.11 83.81 121.11 82.36ZM108.01 82.28L107.89 82.17L107.91 82.18Q109.09 79.95 111.69 75.72L111.87 75.90L111.71 75.74Q111.72 77.33 111.66 78.91L111.66 78.91L111.71 78.96Q111.78 80.68 111.84 82.26L111.72 82.14L111.81 82.23Q110.86 82.16 109.91 82.16L109.91 82.16L109.86 82.11Q108.85 82.11 107.84 82.11Z"/><path d="M4 42 C158 10,185 19,338 7" stroke="#ea9e84" fill="none"/><path d="M9 120 C189 87,152 132,333 74" stroke="#e0e042" fill="none"/><path fill="#c9e084" d="M165.08 76.87L165.14 76.93L165.08 76.87Q162.11 77.00 160.09 79.21L160.05 79.18L160.03 79.15Q157.96 81.32 157.71 84.48L157.86 84.64L157.71 84.48Q157.49 88.13 159.52 89.80L159.38 89.66L159.38 89.66Q161.53 91.47 165.07 91.34L164.98 91.25L165.06 91.33Q168.95 91.11 170.53 89.53L170.46 89.46L170.42 89.42Q172.14 87.03 171.95 84.00L171.94 83.98L172.09 84.13Q171.71 80.84 169.90 78.85L170.02 78.96L169.97 78.92Q168.21 76.97 165.18 76.97ZM165.05 61.23L165.06 61.24L165.00 61.18Q162.80 61.13 160.59 61.95L160.53 61.88L160.52 61.87Q158.39 63.23 158.77 66.33L158.78 66.33L158.75 66.31Q159.53 72.46 165.09 72.46L165.24 72.60L165.16 72.53Q167.74 72.83 169.38 70.93L169.50 71.05L169.48 71.03Q171.03 69.03 171.09 66.44L171.13 66.48L171.18 66.54Q171.24 63.56 170.04 62.55L170.05 62.56L170.03 62.54Q167.30 61.20 165.15 61.33ZM164.63 95.38L164.74 95.50L159.68 95.50L159.52 95.33Q157.03 95.37 154.81 93.92L154.86 93.96L154.82 93.92Q152.58 92.06 152.83 87.32L152.79 87.28L152.76 87.25Q153.52 75.87 159.53 74.23L159.57 74.27L159.51 74.21Q155.83 72.81 153.62 63.89L153.61 63.88L153.60 63.87Q153.04 61.54 153.17 60.22L153.23 60.28L153.06 60.11Q153.70 56.70 159.83 56.64L159.88 56.69L159.70 56.51Q166.87 56.53 169.27 56.85L169.29 56.87L169.12 56.69Q175.63 57.71 176.39 61.06L176.34 61.01L176.45 61.12Q176.47 61.97 176.47 62.60L176.63 62.76L176.63 62.76Q176.59 63.85 176.27 64.86L176.28 64.87L176.21 64.80Q175.15 71.77 170.29 74.30L170.38 74.40L170.25 74.27Q176.08 75.61 176.90 84.40L176.94 84.43L177.01 84.50Q177.01 84.76 177.08 86.91L176.98 86.81L177.00 86.83Q177.12 91.37 174.46 93.14L174.43 93.12L174.46 93.14Q172.25 94.67 164.67 95.43ZM168.53 99.35L168.38 99.20L174.04 99.43L174.07 99.45Q176.95 99.61 179.48 98.41L179.44 98.37L179.40 98.33Q181.19 97.03 181.32 93.93L181.46 94.07L181.35 93.96Q181.38 92.10 180.75 88.88L180.81 88.93L180.86 88.98Q179.29 81.21 175.81 78.12L175.77 78.08L175.44 77.43L175.17 77.03L174.88 76.56L174.93 76.60Q177.65 74.33 179.17 67.44L179.27 67.54L179.25 67.52Q179.18 66.82 179.31 65.43L179.38 65.51L179.24 65.36Q179.55 64.41 179.42 63.40L179.28 63.26L179.32 63.29Q179.05 60.88 177.09 60.05L177.09 60.06L177.17 60.07L176.92 59.95L176.91 59.93Q176.44 58.71 174.48 57.38L174.54 57.44L174.52 57.35L174.59 57.43Q171.27 56.26 164.51 55.94L164.46 55.89L164.51 55.94Q161.79 55.62 159.51 55.81L159.65 55.95L159.57 55.87Q158.37 56.06 156.22 56.32L156.12 56.21L156.03 56.13Q152.95 56.90 152.57 59.62L152.56 59.61L152.46 59.51Q152.45 60.38 152.51 61.71L152.59 61.79L152.47 61.67Q152.67 62.57 153.62 66.49L153.74 66.60L153.75 66.62Q155.06 71.97 157.97 74.18L157.96 74.17L158.04 74.25L157.96 74.18Q153.49 76.47 152.60 85.07L152.43 84.90L152.48 84.94Q152.18 88.63 152.18 90.15L152.18 90.14L152.16 90.12Q152.37 93.18 154.33 94.70L154.38 94.75L154.34 94.71Q154.43 94.73 154.87 95.05L154.94 95.12L154.90 95.08Q156.60 98.86 168.42 99.24ZM167.90 80.89L167.81 80.80L167.89 80.88Q169.35 80.70 170.81 81.46L170.91 81.56L170.83 81.49Q171.45 83.12 171.39 84.00L171.33 83.94L171.34 83.95Q171.40 84.46 171.40 84.97L171.41 84.97L171.46 85.03Q171.41 88.89 167.61 90.28L167.66 90.33L167.71 90.37Q166.43 90.93 165.10 90.74L165.02 90.66L165.12 90.76Q163.15 90.81 161.26 90.05L161.40 90.20L161.34 90.14Q160.79 88.96 160.92 87.32L160.97 87.36L160.99 87.38Q161.16 84.65 163.16 82.63L163.19 82.66L163.17 82.64Q165.32 80.78 167.98 80.97ZM168.22 65.09L168.32 65.19L168.27 65.14Q169.60 64.95 170.49 65.21L170.43 65.15L170.39 66.44L170.52 66.57Q170.44 68.83 168.93 70.51L169.04 70.62L169.05 70.63Q167.46 72.24 165.19 71.92L165.09 71.83L165.23 71.97Q163.61 71.99 162.92 71.61L162.84 71.53L162.79 71.49Q162.69 71.01 162.50 69.87L162.48 69.84L162.61 69.98Q162.10 67.57 164.12 66.18L164.05 66.11L164.19 66.24Q166.02 65.17 168.36 65.23Z"/><path d="M5 135 C166 95,154 74,327 83" stroke="#7f5ce9" fill="none"/><path d="M21 56 C170 126,177 94,325 75" stroke="#40dddd" fill="none"/><path d="M2 67 C177 12,172 112,321 91" stroke="#dc6060" fill="none"/><path d="M4 72 C169 113,184 62,340 46" stroke="#67e9e9" fill="none"/><path d="M2 29 C170 85,157 103,335 112" stroke="#e952c3" fill="none"/><path d="M18 48 C153 26,191 26,322 139" stroke="#80ee9c" fill="none"/><path d="M8 2 C171 94,154 74,336 111" stroke="#9ced81" fill="none"/><path d="M17 61 C166 85,164 75,322 100" stroke="#e7e74f" fill="none"/><path d="M3 18 C152 54,163 57,324 23" stroke="#bc61db" fill="none"/><path d="M17 72 C158 3,180 77,326 33" stroke="#55e655" fill="none"/><path d="M18 73 C177 17,159 58,323 110" stroke="#55e6e6" fill="none"/><path d="M8 112 C159 74,154 65,333 123" stroke="#78e155" fill="none"/><path d="M20 36 C191 118,177 101,323 94" stroke="#ed7795" fill="none"/><path fill="#e15099" d="M217.45 95.56L217.39 95.50L217.43 95.53Q210.59 95.84 208.95 91.98L209.07 92.11L208.94 91.98Q210.32 90.51 212.91 87.54L212.84 87.47L212.80 87.43Q213.80 90.96 218.80 91.15L218.69 91.04L218.76 91.12Q224.29 91.14 227.01 88.93L227.11 89.03L227.06 88.99Q229.41 86.34 229.29 81.85L229.17 81.73L229.21 81.78Q228.99 73.39 221.02 73.77L221.13 73.88L221.05 73.80Q216.35 74.04 213.44 76.12L213.49 76.17L212.89 75.82L212.53 75.59L212.53 75.59Q213.06 70.30 212.87 65.75L212.89 65.77L213.00 65.88Q212.67 61.38 212.10 55.88L212.27 56.05L212.15 55.92Q218.23 57.51 224.55 57.32L224.51 57.28L224.49 57.27Q230.94 57.26 236.88 55.18L236.93 55.23L235.94 57.72L235.87 57.64Q235.40 58.94 235.08 60.33L235.14 60.39L235.06 60.31Q229.97 62.12 223.52 62.12L223.37 61.97L223.52 62.11Q221.01 62.01 218.55 61.75L218.60 61.81L218.54 61.75Q218.38 62.85 217.81 70.25L217.96 70.39L217.84 70.28Q219.36 69.65 222.78 69.40L222.62 69.24L222.76 69.38Q228.90 69.70 231.30 72.49L231.23 72.42L231.33 72.51Q233.57 75.01 234.02 81.40L233.98 81.35L233.92 81.30Q234.50 88.39 232.48 91.74L232.43 91.70L232.41 91.68Q229.14 94.92 223.64 95.30L223.63 95.29L223.62 95.28Q221.91 95.34 217.49 95.59ZM227.58 99.42L227.48 99.33L227.48 99.33Q233.21 99.50 236.38 97.66L236.33 97.61L236.42 97.71Q237.98 95.09 237.98 91.62L238.04 91.68L238.05 91.69Q238.06 86.58 236.48 79.75L236.37 79.64L236.40 79.67Q235.68 76.67 233.65 74.33L233.77 74.45L233.82 74.56L233.52 74.14L232.88 73.75L232.84 73.70Q232.44 72.61 231.36 71.47L231.26 71.37L231.38 71.55L231.31 71.48Q228.72 68.64 222.59 68.64L222.54 68.59L222.20 68.69L222.10 68.59Q222.38 67.80 222.70 65.97L222.71 65.98L222.68 65.95Q230.96 66.14 237.66 63.42L237.70 63.45L237.57 63.33Q238.21 60.94 239.79 56.26L239.94 56.41L236.37 57.89L236.41 57.93Q236.98 55.97 237.80 54.08L237.84 54.11L237.91 54.18Q231.42 56.48 224.59 56.60L224.64 56.66L224.59 56.60Q217.76 56.79 211.18 54.96L211.28 55.06L211.14 54.92Q212.38 62.35 212.38 69.68L212.43 69.74L212.43 69.73Q212.46 72.93 212.27 76.09L212.10 75.92L212.20 76.02Q212.65 76.34 213.60 76.85L213.59 76.84L213.66 76.91Q214.07 76.37 215.15 75.81L215.16 75.81L215.16 75.81Q215.15 77.13 214.77 79.66L214.76 79.65L214.86 79.75Q215.45 79.96 216.14 80.34L216.27 80.47L216.17 80.36Q220.88 77.55 223.97 77.55L223.91 77.49L223.93 77.50Q226.00 77.37 227.96 78.44L227.98 78.46L227.96 78.44Q228.53 80.14 228.59 81.73L228.74 81.87L228.73 81.87Q228.88 86.19 227.17 88.02L227.08 87.93L227.14 87.99Q224.79 89.93 221.06 90.31L221.14 90.39L221.20 90.45Q219.49 90.46 218.36 90.33L218.31 90.28L218.29 90.27Q216.90 90.07 215.63 89.50L215.69 89.56L215.76 89.32L215.42 89.36L215.56 89.49Q214.17 88.61 213.29 86.40L213.22 86.33L213.27 86.38Q211.00 88.66 208.22 92.20L208.32 92.31L208.19 92.18Q208.70 93.25 210.09 94.83L210.20 94.94L210.18 94.92Q212.03 98.04 216.71 98.86L216.67 98.82L216.55 98.70Q218.59 99.16 227.51 99.35Z"/><path d="M14 135 C189 61,189 46,338 73" stroke="#51db51" fill="none"/><path d="M9 73 C188 54,162 111,338 134" stroke="#60e0a0" fill="none"/></svg>