<svg xmlns="http://www.w3.org/2000/svg" width="342" height="140" viewBox="0,0,342,140"><path d="M12 21 C177 95,170 19,337 130" stroke="#6fd44e" fill="none"/><path d="M13 137 C160 41,185 102,329 8" stroke="#bd40e7" fill="none"/><path d="M12 133 C164 37,154 30,334 50" stroke="#3c3ce0" fill="none"/><path d="M19 89 C182 18,166 92,337 100" stroke="#7feb9a" fill="none"/><path d="M12 42 C154 65,190 66,338 30" stroke="#3e65da" fill="none"/><path fill="#8eebbc" d="M161.68 88.17L161.64 88.13L161.53 88.02Q163.42 89.56 165.55 89.33L165.46 89.24L165.55 89.32Q169.93 89.55 170.91 84.46L170.93 84.48L170.96 84.51Q171.85 79.68 171.85 74.54L171.75 74.43L171.88 70.63L171.87 70.63Q171.77 68.62 171.25 66.72L171.32 66.79L171.36 66.83Q169.44 70.28 166.44 77.50L166.39 77.45L166.50 77.56Q163.41 84.70 161.56 88.05ZM169.24 63.09L169.16 63.00L169.23 63.07Q167.39 61.76 165.37 61.76L165.44 61.83L165.46 61.85Q163.21 61.62 161.53 63.01L161.57 63.05L161.48 62.95Q159.91 64.45 159.62 66.70L159.52 66.60L159.52 66.60Q159.04 68.72 158.98 70.97L158.95 70.94L158.90 70.89Q158.96 70.95 158.96 75.29L159.01 75.33L159.06 75.38Q158.94 78.84 159.63 84.33L159.60 84.31L159.69 84.40Q162.60 77.19 169.25 63.09ZM171.56 91.58L171.58 91.60L171.67 91.69Q168.89 92.96 165.36 92.96L165.39 92.98L162.89 92.97L162.89 92.96Q157.98 92.97 156.25 90.37L156.20 90.33L156.34 90.46Q155.11 87.15 154.99 82.70L155.00 82.71L154.89 82.60Q154.95 80.05 154.83 74.79L154.85 74.81L154.71 74.68Q154.73 72.91 154.50 68.28L154.52 68.30L154.43 68.21Q154.34 64.77 154.81 61.77L154.82 61.78L154.89 61.86Q155.53 57.29 162.12 56.95L162.15 56.98L162.23 57.06Q163.35 56.96 165.37 57.02L165.43 57.08L165.32 56.97Q174.02 57.29 175.64 62.55L175.54 62.45L175.59 62.50Q176.58 65.45 176.52 68.28L176.45 68.21L176.37 68.14Q176.40 75.86 176.29 77.70L176.14 77.55L176.17 77.59Q175.97 83.45 175.51 85.42L175.52 85.43L175.52 85.43Q174.57 90.20 171.68 91.71ZM179.18 91.34L179.16 91.32L179.06 91.23Q179.37 86.97 179.31 84.25L179.34 84.28L179.36 77.42L179.18 77.25Q179.09 72.70 178.28 64.32L178.44 64.49L178.41 64.45Q177.53 61.61 175.57 60.46L175.58 60.47L175.66 60.55Q173.12 56.51 165.26 56.28L165.35 56.37L165.30 56.31Q163.94 56.22 161.92 56.28L162.03 56.40L161.97 56.34Q155.15 56.51 154.40 61.25L154.46 61.31L154.36 61.20Q153.81 64.76 153.99 67.94L153.98 67.93L153.94 67.89Q154.53 74.61 154.47 79.69L154.51 79.73L154.40 79.62Q154.45 85.33 154.62 86.89L154.48 86.75L154.56 86.83Q155.20 91.57 157.51 92.79L157.43 92.71L157.50 92.78Q159.73 96.11 165.80 96.51L165.77 96.48L165.81 96.52Q171.19 96.81 172.17 96.76L172.08 96.67L172.15 96.73Q176.55 96.57 178.28 94.15L178.23 94.09L178.33 94.20Q179.02 93.09 179.14 91.30ZM165.96 88.58L166.03 88.65L166.06 88.68Q167.02 86.41 168.64 82.31L168.73 82.40L171.21 75.86L171.30 75.95Q171.26 78.46 170.69 83.54L170.59 83.45L170.63 83.49Q169.74 87.97 166.10 88.72ZM162.95 69.91L163.10 70.07L163.03 69.99Q163.67 67.22 164.71 66.35L164.72 66.37L164.77 66.42Q165.42 65.74 167.39 65.45L167.49 65.55L167.34 65.40Q164.89 71.10 162.06 78.15L162.03 78.12L162.03 78.13Q161.92 73.91 162.96 69.92Z"/><path d="M12 120 C159 102,152 25,338 136" stroke="#8bed8b" fill="none"/><path fill="#81ed81" d="M52.20 76.31L52.24 76.35L52.31 76.42Q49.51 76.45 47.66 78.47L47.52 78.34L47.60 78.42Q45.76 80.44 45.53 83.33L45.51 83.31L45.57 83.37Q45.27 86.60 47.11 88.13L46.95 87.96L47.00 88.01Q48.89 89.59 52.13 89.47L52.09 89.43L52.15 89.50Q55.61 89.20 57.06 87.76L57.13 87.83L57.01 87.71Q58.65 85.59 58.47 82.81L58.52 82.87L58.58 82.92Q58.25 79.94 56.61 78.12L56.70 78.21L56.76 78.27Q55.02 76.36 52.25 76.36ZM52.21 62.05L52.27 62.11L52.10 61.94Q50.14 61.94 48.11 62.69L48.13 62.70L48.07 62.64Q46.06 63.82 46.41 66.65L46.42 66.65L46.42 66.66Q47.17 72.32 52.26 72.32L52.22 72.29L52.29 72.36Q54.63 72.61 56.13 70.88L56.10 70.85L56.09 70.84Q57.68 69.19 57.74 66.82L57.70 66.79L57.74 66.83Q57.87 64.19 56.78 63.26L56.75 63.24L56.79 63.28Q54.06 61.82 52.10 61.93ZM51.84 93.29L51.68 93.13L47.16 93.23L47.16 93.23Q44.77 93.15 42.75 91.82L42.91 91.98L42.89 91.96Q40.74 90.16 40.97 85.82L40.94 85.80L40.93 85.79Q41.76 75.52 47.25 74.02L47.15 73.91L47.19 73.96Q43.71 72.55 41.68 64.41L41.71 64.43L41.58 64.30Q41.16 62.27 41.28 61.05L41.33 61.11L41.20 60.97Q41.82 57.89 47.42 57.84L47.43 57.85L47.37 57.79Q53.83 57.71 56.02 58.00L55.90 57.88L56.03 58.01Q61.72 58.67 62.41 61.73L62.45 61.77L62.40 61.73Q62.71 62.78 62.71 63.36L62.59 63.24L62.63 63.28Q62.55 64.24 62.26 65.16L62.35 65.25L62.43 65.33Q61.50 71.75 57.05 74.06L57.05 74.06L57.02 74.02Q62.29 75.19 63.04 83.22L62.98 83.16L62.96 83.14Q63.10 83.51 63.16 85.48L63.10 85.42L63.13 85.45Q63.27 89.64 60.85 91.25L60.79 91.19L60.86 91.27Q58.75 92.57 51.82 93.26ZM55.18 96.68L55.22 96.72L60.27 96.80L60.40 96.93Q62.99 97.04 65.30 95.94L65.20 95.84L65.33 95.97Q66.94 94.75 67.05 91.92L67.09 91.95L67.08 91.94Q67.18 90.31 66.60 87.36L66.63 87.39L66.52 87.28Q65.27 80.37 62.10 77.54L62.03 77.47L61.63 76.78L61.52 76.56L61.20 76.06L61.26 76.12Q63.75 74.05 65.14 67.76L65.12 67.73L65.02 67.63Q65.03 67.07 65.15 65.80L65.24 65.89L65.22 65.87Q65.29 64.78 65.17 63.86L65.25 63.93L65.18 63.86Q64.89 61.61 63.10 60.86L63.15 60.91L63.20 60.91L62.84 60.65L62.88 60.70Q62.43 59.56 60.64 58.34L60.76 58.46L60.73 58.37L60.82 58.47Q57.82 57.43 51.64 57.14L51.67 57.17L51.61 57.12Q49.16 56.86 47.08 57.04L47.18 57.13L47.09 57.04Q45.97 57.20 44.01 57.43L44.03 57.45L43.93 57.35Q40.97 57.91 40.62 60.40L40.73 60.50L40.62 60.40Q40.58 61.17 40.64 62.38L40.73 62.47L40.70 62.44Q40.84 63.21 41.71 66.80L41.78 66.87L41.82 66.91Q42.97 71.76 45.63 73.78L45.68 73.84L45.77 73.92L45.73 73.88Q41.58 75.91 40.77 83.77L40.63 83.64L40.71 83.71Q40.49 87.13 40.49 88.52L40.31 88.34L40.45 88.48Q40.53 91.16 42.32 92.55L42.28 92.50L42.24 92.47Q42.51 92.68 42.91 92.97L42.91 92.97L42.97 93.03Q44.41 96.37 55.22 96.72ZM54.73 79.94L54.77 79.98L54.68 79.89Q56.13 79.84 57.46 80.53L57.51 80.58L57.39 80.46Q58.07 82.06 58.01 82.87L58.05 82.91L57.93 82.79Q58.09 83.36 58.09 83.82L58.12 83.85L57.99 83.71Q58.10 87.41 54.63 88.68L54.54 88.59L54.54 88.59Q53.35 89.07 52.13 88.90L52.20 88.97L52.20 88.96Q50.54 89.15 48.81 88.46L48.74 88.40L48.79 88.44Q48.39 87.47 48.51 85.96L48.43 85.89L48.46 85.92Q48.65 83.45 50.47 81.61L50.43 81.56L50.41 81.54Q52.26 79.73 54.69 79.90ZM55.05 65.53L54.99 65.46L54.98 65.46Q56.39 65.47 57.20 65.71L57.02 65.53L57.14 66.87L57.06 66.78Q57.15 69.01 55.77 70.55L55.77 70.55L55.71 70.49Q54.42 72.12 52.34 71.83L52.17 71.66L52.30 71.78Q50.66 71.65 50.03 71.31L50.02 71.30L50.06 71.33Q50.05 70.99 49.88 69.95L49.85 69.92L49.87 69.94Q49.48 67.81 51.33 66.54L51.35 66.56L51.25 66.46Q52.99 65.54 55.13 65.60Z"/><path d="M20 113 C158 4,191 18,324 115" stroke="#e4e480" fill="none"/><path d="M5 61 C185 102,157 52,322 31" stroke="#d8d859" fill="none"/><path d="M14 25 C191 67,163 73,326 36" stroke="#78e7cb" fill="none"/><path d="M5 106 C162 117,158 132,330 69" stroke="#e24fbd" fill="none"/><path d="M11 131 C161 33,159 24,338 12" stroke="#c4e06f" fill="none"/><path d="M7 98 C157 73,164 119,328 67" stroke="#e53c91" fill="none"/><path d="M7 36 C151 52,176 121,338 107" stroke="#e3e368" fill="none"/><path d="M18 10 C162 107,183 104,322 122" stroke="#549ee7" fill="none"/><path d="M1 96 C152 101,159 122,339 2" stroke="#e36de3" fill="none"/><path d="M8 135 C170 49,165 45,340 64" stroke="#b04bd2" fill="none"/><path d="M16 42 C150 20,172 137,327 75" stroke="#a38de6" fill="none"/><path d="M6 99 C169 124,171 121,333 55" stroke="#bae146" fill="none"/><path d="M10 43 C151 67,190 99,334 4" stroke="#b78be3" fill="none"/><path d="M19 120 C164 98,188 38,339 137" stroke="#6a6ae5" fill="none"/><path d="M4 35 C187 115,155 49,337 55" stroke="#97abe6" fill="none"/><path d="M16 63 C157 15,173 103,322 8" stroke="#bee546" fill="none"/><path d="M6 93 C167 47,185 70,339 26" stroke="#c264e1" fill="none"/><path fill="#5cda9b" d="M290.92 89.57L290.96 89.62L290.98 89.64Q291.39 91.08 292.20 94.15L292.21 94.16L292.22 94.17Q285.81 92.15 278.81 92.55L278.73 92.46L278.83 92.57Q271.83 92.91 265.76 95.91L265.71 95.86L265.70 95.85Q266.18 94.95 266.24 95.06L266.30 95.12L266.30 95.12Q271.87 89.02 277.82 82.31L277.74 82.23L277.84 82.33Q284.53 74.75 286.32 67.64L286.22 67.54L286.34 67.66Q287.05 65.02 285.11 63.23L285.05 63.16L285.16 63.27Q283.20 61.46 280.49 61.69L280.51 61.71L280.49 61.69Q279.88 61.54 279.36 61.54L279.34 61.53L279.29 61.48Q277.00 61.50 275.09 62.89L275.22 63.02L275.14 62.93Q273.29 65.13 273.63 69.17L273.63 69.16L273.53 69.07Q270.82 68.55 268.97 67.85L269.05 67.94L269.00 67.89Q268.72 65.76 268.60 63.56L268.65 63.61L268.59 63.55Q268.43 61.01 269.35 59.28L269.33 59.26L269.44 59.37Q272.07 57.20 277.15 57.20L277.16 57.21L279.91 57.30L279.85 57.24Q283.35 57.33 284.79 57.50L284.77 57.48L284.76 57.47Q291.33 58.09 291.74 61.79L291.84 61.89L291.81 61.87Q291.88 62.69 291.76 63.90L291.81 63.95L291.81 63.94Q291.61 64.79 291.38 65.83L291.35 65.80L291.52 65.97Q289.04 78.28 277.54 88.68L277.52 88.66L277.56 88.70Q279.51 88.28 281.59 88.28L281.61 88.30L281.77 88.46Q286.67 88.44 291.00 89.66ZM290.00 57.91L289.97 57.89L290.14 58.06Q287.60 56.96 285.00 56.85L284.96 56.80L279.86 56.61L279.89 56.65Q273.04 56.15 269.69 57.83L269.76 57.90L269.75 57.89Q268.12 59.96 268.12 63.08L268.18 63.13L268.08 63.03Q268.12 64.11 268.58 68.39L268.57 68.38L268.64 68.45Q269.47 68.82 271.26 69.28L271.29 69.31L271.20 70.78L271.25 70.83Q271.21 71.55 271.33 72.35L271.25 72.27L271.31 72.33Q273.11 72.40 276.87 72.75L277.04 72.92L276.86 72.75Q276.95 72.32 276.95 71.80L276.98 71.82L276.88 71.72Q276.84 68.91 278.69 66.86L278.76 66.93L278.83 67.00Q280.61 64.88 283.32 65.05L283.37 65.10L283.35 65.08Q284.39 65.02 285.55 65.25L285.54 65.24L285.68 65.38Q285.77 65.87 285.88 66.51L285.93 66.56L285.86 66.49Q285.88 67.08 285.76 67.60L285.83 67.67L285.84 67.68Q283.93 74.90 277.22 82.24L277.19 82.20L277.18 82.19Q273.99 85.65 265.73 94.84L265.68 94.79L265.75 94.86Q265.45 96.11 264.93 96.98L264.95 97.00L264.84 96.89Q267.27 95.57 269.59 94.77L269.73 94.91L269.63 94.81Q268.65 95.80 267.21 98.05L267.22 98.06L267.11 97.95Q267.05 98.59 266.88 99.11L266.72 98.94L266.78 99.01Q274.17 95.88 282.49 96.17L282.58 96.26L282.56 96.24Q291.20 96.50 298.13 100.08L298.12 100.07L296.61 96.83L296.61 96.83Q295.53 94.71 295.13 93.49L295.13 93.50L295.14 93.51Q294.12 92.95 292.27 92.31L292.13 92.17L292.19 92.23Q292.05 91.23 291.47 89.15L291.32 88.99L291.31 88.99Q288.04 88.20 284.57 87.91L284.58 87.92L284.65 87.98Q291.63 80.92 293.94 68.39L293.95 68.39L294.24 64.01L294.36 64.12Q294.09 61.25 292.24 60.21L292.34 60.31L292.35 60.38L292.18 60.21Q292.28 60.25 292.16 60.25L292.15 60.24L292.16 60.24Q291.83 58.99 290.15 58.07Z"/><path d="M16 122 C189 102,178 106,337 75" stroke="#de67de" fill="none"/><path fill="#8fcfe4" d="M108.87 76.31L108.78 76.22L108.89 76.33Q106.11 76.15 104.23 78.32L104.16 78.25L104.18 78.27Q102.34 80.47 102.05 83.36L101.95 83.26L102.04 83.35Q101.63 86.41 103.28 87.88L103.25 87.86L103.32 87.93Q104.93 89.36 108.11 89.19L108.20 89.28L108.17 89.25Q111.38 89.05 113.05 88.01L113.05 88.01L112.90 87.85Q114.62 86.16 114.62 83.79L114.73 83.91L114.67 83.85Q114.59 83.19 114.48 82.61L114.67 82.81L114.51 82.64Q114.70 80.18 113.02 78.12L112.92 78.02L112.95 78.06Q111.30 76.03 108.76 76.20ZM108.21 93.16L108.21 93.16L108.19 93.14Q101.53 93.12 99.39 91.97L99.39 91.97L99.29 91.87Q97.82 90.80 97.53 88.20L97.56 88.23L97.45 88.13Q97.42 87.11 97.48 86.01L97.43 85.97L97.60 86.14Q97.69 84.55 97.69 83.85L97.75 83.92L97.73 83.90Q98.30 79.44 98.53 78.40L98.68 78.54L98.68 78.55Q99.39 75.62 100.66 73.48L100.50 73.32L100.55 73.37Q104.73 66.86 113.75 57.21L113.59 57.05L113.65 57.12Q117.71 56.66 121.06 55.45L121.06 55.46L120.95 55.34Q110.62 66.74 105.77 73.15L105.87 73.26L105.80 73.19Q107.20 72.33 109.16 72.33L109.23 72.40L109.32 72.49Q114.20 72.34 116.52 75.29L116.53 75.30L116.57 75.34Q118.71 77.95 119.23 83.33L119.09 83.18L119.09 83.18Q119.17 84.25 119.17 85.17L119.34 85.34L119.18 85.18Q119.31 90.05 115.96 91.66L115.85 91.56L115.86 91.56Q113.96 92.44 108.06 93.02ZM111.62 96.74L111.70 96.82L111.60 96.73Q113.53 96.64 116.54 96.75L116.65 96.86L116.55 96.76Q119.01 96.85 121.38 95.75L121.45 95.82L121.36 95.74Q123.23 94.71 123.23 92.00L123.10 91.87L123.10 91.88Q123.12 91.14 122.86 89.64L122.83 89.61L122.92 89.70Q122.55 88.09 122.55 87.40L122.70 87.54L122.55 87.39Q121.31 80.32 118.88 77.43L118.82 77.36L118.78 77.33Q118.79 77.27 118.56 76.93L118.44 76.81L118.02 76.51L117.98 76.53L118.00 76.55Q117.49 75.81 116.57 74.36L116.54 74.34L116.52 74.31Q115.19 72.93 112.19 72.24L112.09 72.14L112.04 72.08Q113.88 69.65 118.39 64.05L118.42 64.08L124.88 56.09L124.81 56.02Q122.58 57.49 118.94 58.64L118.90 58.60L118.86 58.57Q120.32 57.14 123.03 54.13L122.98 54.07L123.01 54.10Q119.38 55.73 113.48 56.60L113.46 56.58L113.51 56.63Q104.83 65.57 100.32 73.08L100.21 72.97L100.15 72.91Q97.95 76.83 97.08 86.31L97.03 86.26L97.06 86.29Q97.03 87.24 97.15 88.69L97.14 88.67L97.09 88.63Q97.19 91.27 98.87 92.66L98.84 92.63L98.83 92.63Q99.48 92.93 99.42 92.99L99.32 92.88L99.39 92.95Q99.97 94.34 101.18 94.97L101.26 95.06L101.24 95.03Q103.32 95.95 106.26 96.24L106.34 96.32L106.37 96.35Q106.26 96.24 111.58 96.70ZM111.26 79.69L111.21 79.63L111.38 79.80Q112.21 79.59 113.65 80.34L113.68 80.37L113.67 80.36Q114.01 81.63 114.01 82.61L114.19 82.79L114.02 82.62Q114.39 85.54 112.95 87.04L113.00 87.09L113.04 87.12Q111.34 88.15 108.16 88.61L108.22 88.67L108.07 88.51Q105.92 88.56 105.11 88.16L105.25 88.30L105.23 88.28Q104.92 87.56 104.92 87.10L104.94 87.12L104.78 86.96Q104.51 82.07 108.96 80.11L109.05 80.19L108.88 80.02Q110.14 79.61 111.30 79.72Z"/><path d="M16 31 C190 107,162 81,324 59" stroke="#6464e1" fill="none"/><path d="M18 90 C168 75,150 4,329 41" stroke="#a994e9" fill="none"/><path d="M12 68 C188 52,182 26,322 76" stroke="#e93ebe" fill="none"/><path d="M6 91 C154 40,174 94,331 131" stroke="#84efd5" fill="none"/><path d="M14 53 C161 48,178 101,333 59" stroke="#70db8a" fill="none"/><path d="M20 107 C182 86,168 33,337 123" stroke="#44dede" fill="none"/><path d="M17 10 C175 81,178 26,334 51" stroke="#e650e6" fill="none"/><path d="M9 96 C187 19,180 85,328 46" stroke="#e8ba8c" fill="none"/><path d="M1 15 C179 114,165 62,329 106" stroke="#617fdb" fill="none"/><path fill="#e740e7" d="M228.01 73.25L227.96 73.20L227.96 73.20Q229.35 73.38 231.49 73.14L231.43 73.09L231.43 73.08Q231.29 73.99 231.29 74.97L231.37 75.05L231.44 77.03L231.26 76.84Q230.08 76.94 228.81 77.06L228.82 77.07L228.81 77.06Q227.48 77.06 226.21 77.00L226.23 77.01L226.21 76.99Q221.92 86.41 216.72 93.40L216.80 93.48L216.68 93.36Q212.96 94.43 211.00 95.36L210.88 95.24L211.04 95.40Q217.14 86.59 221.76 77.06L221.75 77.05L217.75 77.04L217.75 77.03Q217.84 75.10 217.66 73.07L217.64 73.05L217.75 73.16Q220.54 73.29 223.66 73.29L223.66 73.30L226.65 67.79L226.49 67.63Q228.14 64.88 229.99 62.46L229.94 62.41L229.97 62.44Q227.49 62.56 225.07 62.56L225.07 62.57L225.03 62.52Q215.94 62.69 210.22 59.33L210.16 59.27L209.25 56.74L209.13 56.63Q208.69 55.44 208.11 54.11L208.10 54.09L207.97 53.96Q214.59 57.98 223.26 58.33L223.22 58.29L223.27 58.35Q231.05 58.66 238.85 55.66L238.85 55.66L238.84 55.65Q238.67 56.40 237.92 57.73L237.80 57.61L237.83 57.64Q232.38 64.91 228.05 73.29ZM240.20 59.67L240.22 59.69L241.81 56.72L241.78 56.68Q240.42 57.52 237.88 58.62L237.75 58.49L238.11 58.10L238.03 58.02Q238.32 57.91 238.50 57.74L238.36 57.59L238.54 57.78Q239.03 56.65 240.13 54.63L240.13 54.63L240.17 54.67Q232.01 58.07 223.29 57.72L223.31 57.75L223.40 57.83Q214.15 57.31 206.92 52.80L206.99 52.86L207.02 52.90Q208.61 55.76 209.88 59.80L209.78 59.70L209.79 59.71Q211.43 60.65 212.64 61.12L212.73 61.21L212.73 61.21Q212.89 61.65 213.58 64.49L213.55 64.45L213.57 64.47Q218.38 66.39 226.76 66.16L226.72 66.13L226.78 66.18Q226.27 67.00 223.26 72.72L223.30 72.76L223.31 72.76Q220.11 72.69 217.10 72.40L217.14 72.43L217.20 72.49Q217.31 73.76 217.31 75.09L217.29 75.07L217.40 77.78L219.89 77.73L219.79 79.76L219.89 79.87Q213.96 91.09 209.74 96.53L209.76 96.55L209.60 96.38Q212.03 95.23 214.51 94.48L214.61 94.58L214.68 94.65Q213.46 95.86 211.38 98.46L211.40 98.48L211.40 98.47Q216.25 96.85 219.95 96.51L219.99 96.55L219.92 96.48Q224.35 90.74 229.09 80.46L229.06 80.43L234.43 80.88L234.27 80.72Q234.32 79.50 234.32 78.11L234.26 78.06L234.27 75.35L234.30 75.38Q233.84 75.33 233.00 75.38L232.92 75.30L233.02 75.40Q232.24 75.52 231.84 75.52L231.70 75.38L231.82 75.50Q231.76 75.26 231.81 75.03L231.74 74.95L231.87 74.68L231.77 74.58Q235.66 66.86 240.34 59.81Z"/><path d="M7 122 C155 104,152 19,333 64" stroke="#c371de" fill="none"/><path d="M1 1 C162 11,185 76,329 28" stroke="#e3e358" fill="none"/><path d="M17 12 C183 33,173 98,341 98" stroke="#75df90" fill="none"/><path d="M1 26 C162 136,162 111,324 51" stroke="#5293d5" fill="none"/><path d="M11 27 C163 65,162 82,333 45" stroke="#6ce98b" fill="none"/><path d="M13 139 C163 81,177 83,329 2" stroke="#e46be4" fill="none"/><path d="M17 23 C182 52,157 39,329 9" stroke="#94df7a" fill="none"/></svg>