<svg xmlns="http://www.w3.org/2000/svg" width="342" height="140" viewBox="0,0,342,140"><path d="M4 30 C169 81,151 134,328 125" stroke="#d8b44a" fill="none"/><path d="M13 35 C167 70,174 58,338 4" stroke="#eeb276" fill="none"/><path d="M14 98 C192 90,155 116,333 23" stroke="#4b93dc" fill="none"/><path d="M7 129 C186 61,177 103,332 15" stroke="#79e056" fill="none"/><path d="M16 122 C171 39,170 8,331 41" stroke="#e3c468" fill="none"/><path d="M14 103 C186 102,161 28,336 42" stroke="#eb6f6f" fill="none"/><path fill="#e24ae2" d="M51.91 77.04L51.84 76.97L51.83 76.96Q48.73 76.96 46.71 79.17L46.66 79.11L46.78 79.24Q44.72 81.42 44.47 84.58L44.37 84.48L44.48 84.59Q44.15 88.12 46.18 89.79L46.15 89.77L46.17 89.79Q48.10 91.37 51.64 91.24L51.64 91.24L51.67 91.27Q55.50 90.99 57.08 89.41L57.22 89.55L57.13 89.46Q58.79 87.01 58.60 83.97L58.74 84.11L58.72 84.10Q58.54 81.01 56.74 79.01L56.58 78.85L56.63 78.91Q54.88 76.97 51.85 76.97ZM51.80 61.30L51.81 61.32L51.86 61.37Q49.47 61.13 47.26 61.95L47.30 62.00L47.25 61.94Q45.06 63.23 45.44 66.33L45.43 66.32L45.39 66.28Q46.26 72.52 51.82 72.52L51.82 72.52L51.84 72.54Q54.35 72.77 55.99 70.87L56.14 71.03L56.16 71.04Q57.74 69.08 57.80 66.49L57.78 66.47L57.87 66.55Q57.93 63.58 56.72 62.57L56.68 62.52L56.66 62.51Q53.83 61.06 51.68 61.18ZM51.35 95.44L51.30 95.39L46.33 95.48L46.18 95.33Q43.83 95.50 41.61 94.05L41.57 94.01L41.45 93.89Q39.26 92.08 39.51 87.33L39.44 87.26L39.47 87.29Q40.21 75.89 46.21 74.25L46.18 74.21L46.34 74.37Q42.40 72.71 40.19 63.79L40.18 63.79L40.33 63.94Q39.75 61.59 39.88 60.26L39.79 60.17L39.73 60.12Q40.30 56.64 46.44 56.58L46.46 56.60L46.38 56.52Q53.55 56.54 55.95 56.86L55.87 56.78L55.96 56.87Q62.32 57.73 63.08 61.08L62.97 60.98L63.04 61.04Q63.21 62.04 63.21 62.67L63.27 62.72L63.19 62.64Q63.13 63.72 62.81 64.74L62.86 64.79L62.88 64.80Q61.86 71.81 56.99 74.34L56.99 74.33L56.94 74.28Q62.87 75.73 63.69 84.52L63.67 84.50L63.64 84.46Q63.56 84.64 63.62 86.79L63.69 86.86L63.78 86.95Q63.82 91.40 61.16 93.18L61.16 93.17L61.17 93.19Q58.88 94.62 51.29 95.38ZM55.11 99.26L55.04 99.20L60.66 99.38L60.64 99.35Q63.61 99.61 66.14 98.41L66.07 98.34L66.15 98.42Q67.88 97.05 68.01 93.95L68.09 94.04L68.02 93.97Q68.14 92.19 67.51 88.97L67.46 88.91L67.42 88.88Q65.97 81.23 62.49 78.13L62.57 78.21L62.14 77.47L61.91 77.11L61.66 76.67L61.72 76.73Q64.34 74.35 65.85 67.46L65.92 67.52L65.77 67.37Q65.91 66.89 66.04 65.49L66.01 65.47L66.09 65.54Q66.03 64.22 65.91 63.21L65.96 63.26L65.96 63.26Q65.79 60.94 63.83 60.12L63.70 59.99L63.87 60.10L63.61 59.97L63.51 59.87Q63.09 58.69 61.13 57.37L61.08 57.32L61.25 57.42L61.25 57.42Q57.99 56.31 51.22 55.99L51.18 55.95L51.05 55.82Q48.50 55.67 46.23 55.86L46.19 55.82L46.22 55.86Q44.88 55.90 42.73 56.16L42.77 56.20L42.84 56.27Q39.49 56.78 39.11 59.49L39.18 59.56L39.28 59.66Q39.16 60.43 39.22 61.76L39.26 61.80L39.16 61.70Q39.42 62.64 40.36 66.56L40.26 66.45L40.41 66.61Q41.67 71.91 44.58 74.13L44.54 74.09L44.73 74.28L44.61 74.15Q40.08 76.40 39.20 85.00L39.23 85.03L39.17 84.97Q38.92 88.70 38.92 90.22L38.79 90.09L38.81 90.11Q38.90 93.04 40.86 94.56L41.00 94.70L40.98 94.69Q41.10 94.74 41.54 95.05L41.60 95.11L41.49 95.00Q43.25 98.85 55.08 99.23ZM54.60 80.93L54.58 80.90L54.64 80.96Q56.09 80.77 57.54 81.53L57.50 81.48L57.61 81.60Q58.23 83.23 58.17 84.12L58.14 84.08L58.19 84.13Q58.14 84.53 58.14 85.03L58.13 85.03L58.08 84.97Q58.10 88.91 54.31 90.30L54.46 90.46L54.26 90.26Q52.98 90.81 51.65 90.62L51.78 90.75L51.73 90.70Q49.77 90.77 47.88 90.01L48.06 90.19L47.97 90.10Q47.56 89.06 47.69 87.42L47.73 87.46L47.58 87.31Q47.87 84.69 49.86 82.67L49.91 82.72L49.81 82.61Q51.87 80.66 54.52 80.85ZM55.02 65.22L54.92 65.12L54.97 65.17Q56.24 64.93 57.13 65.18L57.10 65.15L57.08 66.46L57.08 66.46Q57.06 68.78 55.54 70.45L55.68 70.59L55.57 70.49Q54.12 72.22 51.84 71.91L51.81 71.87L51.91 71.97Q50.14 71.86 49.45 71.48L49.50 71.52L49.54 71.56Q49.43 71.07 49.24 69.94L49.27 69.97L49.26 69.96Q48.72 67.52 50.74 66.13L50.86 66.25L50.72 66.11Q52.64 65.12 54.98 65.19Z"/><path fill="#59e2e2" d="M165.01 76.80L164.97 76.76L165.09 76.88Q161.96 76.59 159.90 78.96L159.88 78.94L159.97 79.03Q157.88 81.37 157.56 84.53L157.65 84.61L157.56 84.53Q157.17 87.93 158.97 89.54L159.03 89.60L159.03 89.60Q160.87 91.25 164.35 91.06L164.30 91.02L164.23 90.95Q167.67 90.66 169.51 89.52L169.52 89.53L169.58 89.59Q171.50 87.78 171.50 85.19L171.42 85.11L171.52 85.21Q171.49 84.54 171.36 83.91L171.31 83.86L171.42 83.97Q171.56 81.21 169.73 78.96L169.59 78.82L169.63 78.86Q167.88 76.70 165.10 76.89ZM164.28 95.22L164.24 95.19L164.29 95.24Q157.00 95.21 154.66 93.95L154.81 94.10L154.75 94.04Q153.05 92.79 152.74 89.94L152.75 89.95L152.68 89.89Q152.59 88.72 152.65 87.52L152.78 87.64L152.66 87.53Q152.81 85.84 152.81 85.09L152.99 85.27L152.82 85.09Q153.66 80.43 153.91 79.29L153.92 79.31L153.83 79.22Q154.70 76.10 156.09 73.76L156.08 73.75L156.09 73.76Q160.44 66.41 170.30 55.86L170.31 55.87L170.38 55.93Q174.78 55.40 178.45 54.07L178.47 54.10L178.43 54.06Q167.12 66.52 161.81 73.54L161.73 73.45L161.67 73.40Q163.38 72.64 165.53 72.64L165.57 72.68L165.54 72.65Q171.04 72.66 173.57 75.88L173.50 75.81L173.57 75.88Q175.86 78.67 176.43 84.55L176.26 84.38L176.38 84.51Q176.52 85.72 176.52 86.73L176.55 86.76L176.48 86.69Q176.58 91.97 172.91 93.74L172.89 93.72L172.91 93.75Q170.73 94.60 164.28 95.23ZM168.16 99.30L168.22 99.36L168.15 99.28Q170.20 99.12 173.49 99.25L173.55 99.31L173.67 99.43Q176.30 99.47 178.89 98.27L178.90 98.28L178.79 98.17Q180.71 96.93 180.71 93.96L180.80 94.05L180.76 94.00Q180.69 93.12 180.41 91.47L180.38 91.44L180.43 91.50Q180.23 89.93 180.23 89.18L180.24 89.19L180.09 89.04Q178.59 81.16 175.94 77.99L176.04 78.10L176.05 78.11Q175.98 77.98 175.73 77.60L175.64 77.51L175.09 77.08L175.03 77.08L175.00 77.05Q174.51 76.31 173.50 74.73L173.53 74.76L173.47 74.70Q171.85 73.02 168.57 72.26L168.62 72.32L168.73 72.43Q170.75 69.77 175.68 63.64L175.53 63.48L182.61 54.76L182.57 54.72Q180.09 56.28 176.10 57.55L176.06 57.51L175.95 57.40Q177.52 55.80 180.49 52.51L180.43 52.45L180.55 52.58Q176.55 54.32 170.10 55.27L170.02 55.19L170.09 55.27Q160.63 65.09 155.70 73.31L155.62 73.23L155.67 73.27Q153.17 77.48 152.22 87.85L152.22 87.84L152.20 87.83Q152.00 88.70 152.13 90.28L152.17 90.33L152.19 90.34Q152.29 93.23 154.12 94.74L154.07 94.69L154.09 94.71Q154.74 94.98 154.68 95.05L154.77 95.14L154.81 95.18Q155.39 96.64 156.72 97.34L156.60 97.22L156.62 97.24Q159.05 98.41 162.28 98.72L162.35 98.80L162.36 98.81Q162.28 98.73 168.10 99.23ZM167.71 80.58L167.77 80.64L167.70 80.57Q168.63 80.36 170.22 81.18L170.37 81.33L170.19 81.16Q170.80 82.78 170.80 83.86L170.78 83.84L170.83 83.88Q171.23 87.07 169.65 88.71L169.64 88.70L169.52 88.58Q167.76 89.79 164.28 90.30L164.41 90.43L164.42 90.43Q162.00 90.41 161.11 89.97L161.09 89.96L160.98 89.84Q160.78 89.20 160.78 88.69L160.71 88.62L160.71 88.62Q160.34 83.20 165.21 81.05L165.32 81.16L165.30 81.14Q166.59 80.59 167.85 80.72Z"/><path d="M21 125 C174 119,182 23,339 50" stroke="#ef89ef" fill="none"/><path d="M9 63 C152 92,170 42,335 68" stroke="#4c71e0" fill="none"/><path d="M9 78 C180 36,173 129,330 6" stroke="#68aaed" fill="none"/><path d="M3 12 C167 107,179 8,334 98" stroke="#e47e5c" fill="none"/><path d="M7 53 C176 55,179 116,328 135" stroke="#48e448" fill="none"/><path d="M18 101 C153 4,156 68,331 53" stroke="#b8e23a" fill="none"/><path d="M16 31 C181 88,161 84,331 94" stroke="#ddc069" fill="none"/><path d="M6 71 C191 84,170 25,324 17" stroke="#e07551" fill="none"/><path d="M6 55 C159 19,172 28,339 6" stroke="#93e5bc" fill="none"/><path d="M16 92 C158 121,169 105,327 65" stroke="#d5488e" fill="none"/><path d="M15 85 C176 14,164 134,329 76" stroke="#a6f08d" fill="none"/><path d="M6 28 C154 108,173 16,324 66" stroke="#e24ae2" fill="none"/><path d="M11 137 C150 119,176 53,339 110" stroke="#c1e84e" fill="none"/><path d="M20 20 C161 121,169 96,336 104" stroke="#90e4cf" fill="none"/><path d="M4 138 C166 68,185 29,322 16" stroke="#71e9cb" fill="none"/><path d="M4 97 C161 84,190 85,323 64" stroke="#ea6aca" fill="none"/><path d="M17 51 C151 36,169 90,332 118" stroke="#8282e8" fill="none"/><path d="M10 15 C165 23,171 100,321 95" stroke="#8361e9" fill="none"/><path d="M14 118 C182 69,164 4,339 56" stroke="#a0e688" fill="none"/><path d="M15 134 C165 27,167 106,324 103" stroke="#53e89e" fill="none"/><path d="M20 29 C150 34,165 126,330 3" stroke="#9be056" fill="none"/><path fill="#4a4add" d="M108.40 76.86L108.29 76.74L108.28 76.74Q105.38 76.69 103.33 79.06L103.21 78.94L103.38 79.11Q101.14 81.30 100.83 84.46L100.81 84.44L100.83 84.46Q100.51 87.94 102.31 89.55L102.34 89.57L102.28 89.51Q104.14 91.19 107.62 91.00L107.64 91.02L107.59 90.96Q111.15 90.80 112.98 89.66L112.87 89.55L112.93 89.61Q114.90 87.84 114.90 85.25L114.87 85.23L114.81 85.16Q114.84 84.56 114.71 83.93L114.76 83.98L114.66 83.88Q114.81 81.11 112.97 78.87L112.95 78.85L112.94 78.84Q111.22 76.71 108.44 76.90ZM107.58 95.19L107.74 95.35L107.73 95.34Q100.33 95.21 97.99 93.95L98.06 94.02L98.07 94.03Q96.43 92.83 96.12 89.99L95.99 89.87L96.03 89.90Q95.98 88.78 96.04 87.58L95.98 87.51L96.09 87.62Q96.29 85.99 96.29 85.23L96.31 85.25L96.19 85.14Q96.92 80.36 97.18 79.23L97.32 79.37L97.22 79.27Q98.09 76.16 99.48 73.82L99.35 73.69L99.33 73.67Q103.77 66.41 113.63 55.85L113.65 55.87L113.77 55.99Q118.07 55.36 121.74 54.03L121.82 54.11L121.84 54.13Q110.47 66.54 105.16 73.55L105.06 73.45L105.05 73.44Q106.70 72.63 108.85 72.63L108.78 72.56L108.82 72.60Q114.39 72.67 116.92 75.90L116.93 75.91L116.97 75.95Q119.14 78.62 119.71 84.50L119.69 84.48L119.69 84.48Q119.76 85.63 119.76 86.64L119.82 86.70L119.88 86.75Q119.87 91.93 116.20 93.70L116.22 93.72L116.06 93.56Q114.12 94.65 107.67 95.28ZM111.51 99.31L111.45 99.26L111.45 99.25Q113.58 99.17 116.87 99.30L116.91 99.34L116.87 99.30Q119.62 99.46 122.22 98.26L122.28 98.33L122.27 98.32Q123.99 96.87 123.99 93.90L123.96 93.87L124.01 93.92Q123.95 93.04 123.67 91.40L123.81 91.54L123.80 91.53Q123.41 89.78 123.41 89.02L123.52 89.13L123.52 89.13Q122.08 81.31 119.42 78.15L119.37 78.09L119.29 78.01Q119.15 77.81 118.90 77.43L119.05 77.58L118.42 77.07L118.29 77.01L118.31 77.03Q117.75 76.21 116.73 74.63L116.85 74.75L116.82 74.72Q115.16 73.00 111.88 72.24L111.92 72.29L111.89 72.26Q113.93 69.62 118.86 63.48L119.00 63.62L125.86 54.67L125.91 54.73Q123.37 56.23 119.38 57.50L119.46 57.57L119.39 57.50Q120.91 55.86 123.88 52.57L123.93 52.62L123.88 52.57Q119.97 54.41 113.52 55.36L113.35 55.19L113.49 55.33Q103.86 64.98 98.93 73.20L99.04 73.32L98.99 73.26Q96.52 77.49 95.57 87.86L95.56 87.86L95.51 87.80Q95.33 88.70 95.46 90.28L95.50 90.32L95.57 90.39Q95.56 93.17 97.40 94.69L97.51 94.79L97.42 94.71Q98.06 94.97 98.00 95.03L97.97 95.00L98.07 95.11Q98.70 96.61 100.02 97.31L100.11 97.39L100.01 97.30Q102.47 98.49 105.70 98.81L105.70 98.81L105.60 98.72Q105.68 98.80 111.50 99.30ZM111.02 80.55L111.03 80.57L111.12 80.65Q112.12 80.51 113.70 81.33L113.68 81.31L113.66 81.30Q114.13 82.78 114.13 83.85L114.27 83.99L114.16 83.88Q114.47 86.98 112.89 88.62L112.85 88.57L112.95 88.68Q111.22 89.92 107.75 90.43L107.67 90.35L107.70 90.38Q105.27 90.36 104.39 89.92L104.32 89.85L104.30 89.83Q104.08 89.16 104.08 88.65L103.99 88.57L104.11 88.68Q103.65 83.17 108.51 81.02L108.48 80.98L108.49 80.99Q109.92 80.59 111.18 80.71Z"/><path d="M21 5 C159 49,183 132,339 100" stroke="#eb7e7e" fill="none"/><path d="M3 98 C156 118,184 87,334 42" stroke="#de6a44" fill="none"/><path d="M16 117 C153 121,187 135,329 114" stroke="#ea7a96" fill="none"/><path d="M17 80 C168 59,169 80,337 20" stroke="#e25959" fill="none"/><path d="M20 4 C153 45,177 98,326 61" stroke="#7cedb5" fill="none"/><path d="M12 71 C191 93,151 80,322 60" stroke="#7fea9a" fill="none"/><path d="M4 58 C186 91,177 89,326 60" stroke="#8fe174" fill="none"/><path d="M11 108 C177 43,150 121,334 120" stroke="#c35ae6" fill="none"/><path fill="#b27fe5" d="M274.19 89.84L274.21 89.87L274.09 89.74Q276.10 91.37 278.44 91.12L278.46 91.14L278.43 91.11Q283.19 91.32 284.26 85.76L284.34 85.83L284.40 85.89Q285.39 80.62 285.39 74.99L285.41 75.01L285.40 70.70L285.34 70.65Q285.32 68.54 284.75 66.45L284.74 66.45L284.78 66.48Q282.76 70.34 279.47 78.24L279.54 78.31L279.54 78.31Q276.19 86.15 274.17 89.82ZM282.43 62.37L282.58 62.51L282.54 62.48Q280.67 61.17 278.46 61.17L278.36 61.08L278.29 61.01Q275.88 60.80 274.04 62.32L274.16 62.44L274.04 62.32Q272.17 63.80 271.85 66.26L271.85 66.27L272.01 66.43Q271.45 68.70 271.38 71.17L271.39 71.17L271.31 71.10Q271.19 70.98 271.19 75.72L271.35 75.88L271.36 75.89Q271.31 79.76 272.07 85.77L272.07 85.76L272.11 85.81Q275.23 77.86 282.50 62.43ZM285.03 93.60L285.17 93.74L285.11 93.68Q282.15 95.14 278.29 95.14L278.23 95.09L275.62 95.19L275.49 95.07Q270.21 95.15 268.31 92.31L268.26 92.26L268.31 92.31Q267.01 88.73 266.88 83.86L266.85 83.84L266.79 83.77Q266.77 80.91 266.64 75.15L266.70 75.21L266.71 75.22Q266.62 73.17 266.37 68.11L266.32 68.06L266.45 68.19Q266.19 64.27 266.70 60.98L266.69 60.98L266.82 61.11Q267.58 56.18 274.79 55.80L274.82 55.83L274.81 55.81Q276.03 55.71 278.24 55.78L278.17 55.70L278.32 55.85Q287.75 56.11 289.52 61.86L289.42 61.76L289.34 61.69Q290.45 64.95 290.39 68.04L290.32 67.98L290.33 67.99Q290.27 76.34 290.15 78.36L290.05 78.27L290.06 78.28Q289.89 84.74 289.38 86.89L289.24 86.75L289.39 86.89Q288.15 91.92 284.99 93.56ZM293.34 93.32L293.29 93.26L293.28 93.25Q293.72 88.71 293.66 85.73L293.65 85.72L293.52 78.07L293.40 77.95Q293.40 73.08 292.51 63.91L292.54 63.94L292.48 63.87Q291.65 60.90 289.50 59.64L289.39 59.53L289.34 59.48Q286.88 55.37 278.28 55.12L278.17 55.01L278.26 55.09Q276.72 54.94 274.50 55.01L274.56 55.07L274.52 55.02Q267.01 55.16 266.19 60.35L266.30 60.46L266.29 60.44Q265.59 64.23 265.78 67.71L265.73 67.66L265.78 67.72Q266.45 75.08 266.38 80.65L266.32 80.58L266.29 80.55Q266.24 86.70 266.43 88.41L266.41 88.39L266.40 88.37Q267.13 93.59 269.66 94.92L269.55 94.81L269.67 94.93Q272.01 98.48 278.65 98.92L278.65 98.92L278.78 99.05Q284.60 99.31 285.68 99.25L285.72 99.29L285.70 99.27Q290.43 99.01 292.33 96.35L292.25 96.27L292.25 96.28Q293.21 95.27 293.33 93.31ZM278.95 90.37L278.98 90.40L279.00 90.42Q280.15 88.03 281.92 83.54L281.89 83.51L284.81 76.56L284.70 76.46Q284.73 79.27 284.10 84.83L284.10 84.84L283.96 84.70Q283.00 89.61 279.02 90.44ZM275.81 70.09L275.78 70.07L275.78 70.07Q276.42 66.98 277.56 66.03L277.68 66.15L277.58 66.05Q278.39 65.41 280.54 65.09L280.61 65.16L280.51 65.06Q277.61 71.07 274.51 78.78L274.57 78.85L274.48 78.75Q274.60 74.38 275.74 70.02Z"/><path d="M8 105 C161 81,150 89,338 17" stroke="#9856db" fill="none"/><path d="M9 29 C181 135,179 129,328 22" stroke="#639ed8" fill="none"/><path fill="#71e8cb" d="M217.37 95.48L217.44 95.55L217.43 95.54Q210.61 95.86 208.97 92.01L208.99 92.03L209.08 92.12Q210.26 90.45 212.85 87.48L212.83 87.46L212.86 87.49Q213.63 90.79 218.63 90.98L218.66 91.01L218.69 91.04Q224.30 91.16 227.02 88.94L227.07 88.99L227.09 89.01Q229.40 86.33 229.28 81.84L229.28 81.84L229.27 81.83Q229.01 73.42 221.05 73.80L221.11 73.86L221.06 73.81Q216.37 74.05 213.46 76.14L213.35 76.03L212.84 75.77L212.57 75.63L212.62 75.68Q213.22 70.46 213.03 65.91L212.98 65.86L213.04 65.92Q212.76 61.47 212.19 55.97L212.18 55.96L212.26 56.04Q218.31 57.59 224.63 57.40L224.52 57.29L224.66 57.43Q230.82 57.15 236.76 55.06L236.93 55.23L235.85 57.63L235.93 57.71Q235.46 59.00 235.14 60.40L235.14 60.39L235.17 60.42Q229.89 62.03 223.44 62.03L223.53 62.12L223.35 61.95Q221.04 62.03 218.57 61.78L218.53 61.74L218.55 61.76Q218.40 62.87 217.83 70.27L217.88 70.31L217.80 70.24Q219.27 69.56 222.69 69.31L222.77 69.39L222.78 69.40Q228.81 69.61 231.21 72.39L231.37 72.56L231.20 72.39Q233.47 74.91 233.91 81.29L234.07 81.45L233.95 81.33Q234.38 88.27 232.36 91.62L232.39 91.66L232.43 91.69Q229.00 94.78 223.50 95.16L223.53 95.19L223.66 95.32Q221.77 95.20 217.34 95.45ZM227.46 99.30L227.41 99.26L227.58 99.43Q233.24 99.52 236.40 97.69L236.32 97.61L236.30 97.59Q237.93 95.05 237.93 91.57L238.08 91.72L237.95 91.59Q238.08 86.60 236.50 79.77L236.49 79.76L236.44 79.71Q235.85 76.84 233.82 74.50L233.66 74.34L233.84 74.58L233.34 73.95L232.78 73.64L232.80 73.67Q232.35 72.53 231.28 71.39L231.23 71.34L231.19 71.36L231.25 71.42Q228.79 68.71 222.65 68.71L222.61 68.66L222.21 68.70L222.17 68.66Q222.25 67.67 222.57 65.84L222.55 65.82L222.64 65.91Q230.82 66.00 237.52 63.28L237.57 63.33L237.69 63.44Q238.27 60.99 239.85 56.32L239.86 56.33L236.44 57.96L236.32 57.84Q237.01 56.01 237.84 54.11L237.89 54.16L237.80 54.07Q231.46 56.52 224.63 56.65L224.59 56.61L224.58 56.59Q217.85 56.88 211.27 55.05L211.19 54.97L211.34 55.11Q212.29 62.26 212.29 69.59L212.32 69.63L212.39 69.69Q212.35 72.82 212.16 75.98L212.11 75.93L212.25 76.07Q212.66 76.35 213.61 76.86L213.68 76.92L213.68 76.93Q214.13 76.43 215.21 75.86L215.26 75.91L215.24 75.89Q215.09 77.08 214.71 79.61L214.86 79.75L214.85 79.74Q215.42 79.93 216.11 80.31L216.13 80.32L216.23 80.42Q220.75 77.42 223.85 77.42L223.94 77.51L223.83 77.41Q226.02 77.38 227.98 78.45L227.96 78.44L227.98 78.46Q228.58 80.19 228.64 81.77L228.77 81.90L228.60 81.73Q228.77 86.07 227.06 87.91L227.08 87.93L227.04 87.88Q224.84 89.99 221.11 90.36L221.09 90.34L221.19 90.44Q219.44 90.40 218.30 90.28L218.32 90.29L218.41 90.39Q217.03 90.21 215.77 89.64L215.63 89.50L215.59 89.14L215.50 89.43L215.51 89.44Q214.23 88.67 213.35 86.46L213.27 86.38L213.24 86.35Q211.05 88.71 208.27 92.25L208.22 92.20L208.28 92.26Q208.78 93.33 210.17 94.91L210.21 94.96L210.17 94.91Q211.90 97.91 216.58 98.74L216.57 98.72L216.69 98.84Q218.54 99.11 227.46 99.30Z"/><path d="M2 107 C170 46,178 40,335 108" stroke="#e28769" fill="none"/><path d="M19 136 C181 46,170 104,332 60" stroke="#e7e754" fill="none"/><path d="M10 129 C166 85,179 22,333 93" stroke="#e3e349" fill="none"/></svg>