<svg xmlns="http://www.w3.org/2000/svg" width="342" height="140" viewBox="0,0,342,140"><path d="M5 109 C157 17,176 44,323 57" stroke="#dd6e8a" fill="none"/><path d="M19 55 C190 21,171 101,334 18" stroke="#849ce5" fill="none"/><path d="M11 14 C171 112,162 32,326 52" stroke="#a064dd" fill="none"/><path d="M14 81 C164 105,188 40,339 69" stroke="#7ff0f0" fill="none"/><path d="M2 29 C150 82,175 88,328 117" stroke="#4d70da" fill="none"/><path d="M5 132 C187 3,153 107,339 101" stroke="#d85ed8" fill="none"/><path fill="#5479e7" d="M160.82 92.76L160.71 92.64L160.80 92.74Q158.76 92.89 156.44 92.27L156.34 92.17L156.32 92.15Q154.69 90.97 154.46 88.54L154.39 88.47L154.40 88.48Q154.27 88.13 154.56 84.24L154.55 84.22L154.58 84.26Q156.14 84.02 159.13 83.45L159.05 83.37L158.82 84.55L158.86 84.59Q158.48 87.20 160.57 88.05L160.53 88.01L160.59 88.07Q161.72 88.52 164.82 88.52L164.83 88.52L164.77 88.47Q167.08 88.18 167.36 88.07L167.37 88.08L167.38 88.09Q168.75 87.88 169.82 87.15L169.81 87.13L169.92 87.24Q171.94 85.76 171.66 82.66L171.71 82.72L171.74 82.74Q171.43 79.11 168.87 76.79L168.75 76.68L168.94 76.87Q166.33 74.51 162.67 74.51L162.64 74.49L162.55 74.06L162.69 74.20Q163.12 74.01 164.42 73.90L164.38 73.86L164.43 73.91Q167.28 73.77 169.31 71.94L169.41 72.04L169.24 71.87Q171.42 70.18 171.65 67.41L171.68 67.45L171.51 67.28Q171.79 66.94 171.79 66.43L171.62 66.26L171.63 66.27Q171.67 64.05 169.64 62.70L169.68 62.74L169.62 62.68Q167.82 61.50 165.45 61.67L165.58 61.80L165.55 61.77Q163.63 61.55 161.83 62.17L161.78 62.11L161.76 62.10Q159.66 62.93 159.21 64.62L159.25 64.67L159.18 64.60Q158.96 65.78 159.07 66.91L158.96 66.80L159.04 66.89Q157.50 66.53 154.45 65.46L154.48 65.48L154.33 65.33Q154.04 62.90 154.09 61.65L154.23 61.79L154.08 61.64Q154.28 59.42 155.86 58.40L155.81 58.35L155.86 58.39Q157.90 57.45 160.27 57.45L160.32 57.50L160.30 57.48Q165.10 57.54 169.79 57.94L169.63 57.78L169.63 57.78Q177.31 58.58 176.86 64.17L176.74 64.04L176.85 64.16Q176.62 66.23 175.88 68.55L175.86 68.52L176.02 68.68Q174.53 73.12 171.03 74.47L171.11 74.55L171.09 74.53Q174.95 75.29 175.85 80.26L175.92 80.32L175.88 80.28Q176.18 81.93 176.29 84.92L176.24 84.87L176.24 84.87Q176.61 91.62 169.78 92.29L169.81 92.32L169.67 92.18Q168.60 92.30 160.76 92.69ZM168.54 96.08L168.61 96.15L168.55 96.08Q169.44 96.13 173.67 96.24L173.61 96.18L173.73 96.30Q176.28 96.37 178.70 95.41L178.69 95.39L178.69 95.40Q180.45 94.00 180.17 91.40L180.23 91.46L180.08 91.31Q180.06 89.48 179.61 86.89L179.59 86.87L179.51 86.79Q178.51 80.20 175.63 77.77L175.61 77.75L175.39 77.25L175.23 77.04L175.15 76.96Q177.89 74.95 179.02 68.47L178.97 68.42L178.94 68.39Q178.99 67.71 179.16 66.29L179.12 66.25L179.10 66.23Q179.37 65.27 179.26 64.25L179.12 64.11L179.16 64.15Q178.94 61.67 177.02 60.66L177.00 60.64L176.90 60.65L176.86 60.61Q176.40 59.14 174.71 58.35L174.84 58.48L174.77 58.41Q172.63 57.50 165.01 57.05L164.95 56.99L164.89 56.93Q162.52 56.94 160.15 56.94L160.14 56.93L160.05 56.83Q157.72 56.88 155.47 57.84L155.39 57.76L155.37 57.74Q153.58 58.88 153.58 61.48L153.61 61.51L153.61 61.51Q153.72 61.00 154.11 65.96L153.95 65.80L153.99 65.84Q154.50 66.01 156.93 66.92L157.01 66.99L156.90 66.89Q156.85 67.63 156.80 68.36L156.80 68.36L156.91 68.47Q156.85 69.16 156.91 69.94L156.81 69.84L156.90 69.94Q159.52 70.46 162.51 70.63L162.62 70.74L162.61 70.74Q162.51 67.76 164.15 66.52L163.98 66.35L164.11 66.48Q165.36 65.53 168.35 65.19L168.27 65.11L168.26 65.10Q169.95 65.10 170.79 65.38L170.82 65.40L170.80 65.39Q170.85 65.55 170.91 65.72L170.98 65.79L170.88 65.97L171.09 66.86L171.15 66.92Q171.07 67.12 171.01 67.35L171.15 67.48L171.04 67.38Q171.01 69.99 168.75 71.74L168.77 71.76L168.69 71.68Q167.39 73.09 164.40 73.37L164.42 73.39L164.31 73.28Q163.32 73.59 162.02 73.59L162.03 73.60L162.01 73.58Q161.95 73.97 162.18 74.98L162.35 75.16L162.32 75.13Q164.93 75.14 167.07 76.22L167.10 76.25L166.87 76.18L164.54 76.45L164.55 76.46Q164.50 76.85 164.67 77.76L164.80 77.89L164.75 77.84Q168.01 77.83 170.55 79.80L170.36 79.61L170.48 79.73Q170.69 80.17 171.14 82.60L171.30 82.76L171.24 82.69Q171.51 87.02 167.16 87.64L167.21 87.70L167.17 87.65Q164.10 88.08 163.25 88.03L163.29 88.06L163.19 87.96Q162.50 87.78 161.71 87.66L161.69 87.64L161.69 86.97L161.91 86.35L162.07 85.88L161.99 85.29L162.13 85.44Q160.60 85.43 159.41 85.71L159.52 85.81L159.51 85.80Q159.30 85.31 159.30 85.03L159.42 85.15L159.31 85.04Q159.35 84.74 159.35 84.41L159.47 84.52L159.47 84.53Q159.55 83.92 159.77 82.85L159.79 82.87L159.74 82.82Q156.90 83.08 154.14 83.59L154.17 83.62L154.20 83.65Q154.24 84.43 154.07 86.09L153.96 85.99L154.13 86.15Q153.89 87.74 153.89 88.65L153.81 88.57L153.85 88.61Q154.05 91.74 156.08 92.87L155.92 92.70L156.08 92.87Q158.20 96.18 165.20 95.89L165.23 95.93L165.27 95.96Q166.32 95.89 168.58 96.11Z"/><path d="M13 80 C189 33,156 20,328 8" stroke="#ec78ec" fill="none"/><path d="M15 31 C154 73,187 20,330 15" stroke="#44dede" fill="none"/><path d="M11 6 C178 101,173 120,327 78" stroke="#5fe1e1" fill="none"/><path d="M8 67 C186 31,183 95,338 81" stroke="#4f9be7" fill="none"/><path d="M16 14 C164 21,158 108,339 101" stroke="#7ef0b7" fill="none"/><path d="M11 91 C184 103,159 89,327 95" stroke="#5959d8" fill="none"/><path d="M21 86 C175 22,160 137,335 79" stroke="#55dcdc" fill="none"/><path d="M12 118 C168 118,180 79,333 89" stroke="#8ed3eb" fill="none"/><path d="M6 61 C167 128,152 35,324 16" stroke="#d86944" fill="none"/><path d="M2 21 C182 9,188 45,339 58" stroke="#dede4e" fill="none"/><path d="M7 7 C152 40,165 95,324 113" stroke="#6666df" fill="none"/><path d="M16 23 C163 137,151 29,339 94" stroke="#64a5e6" fill="none"/><path d="M16 105 C170 40,160 70,327 101" stroke="#e85d80" fill="none"/><path fill="#e2e263" d="M52.43 76.29L52.43 76.29L52.43 76.29Q49.56 76.19 47.76 78.16L47.72 78.12L47.77 78.17Q45.94 80.12 45.71 82.94L45.76 82.99L45.75 82.98Q45.39 86.06 47.20 87.56L47.20 87.56L47.22 87.58Q49.11 89.16 52.27 89.05L52.31 89.08L52.28 89.06Q55.77 88.88 57.18 87.47L57.08 87.36L57.06 87.35Q58.59 85.21 58.42 82.50L58.53 82.61L58.53 82.61Q58.21 79.69 56.60 77.92L56.58 77.90L56.59 77.91Q55.09 76.24 52.38 76.24ZM52.31 62.23L52.32 62.24L52.28 62.20Q50.12 61.96 48.15 62.69L48.15 62.70L48.31 62.86Q46.41 64.06 46.75 66.83L46.74 66.81L46.57 66.64Q47.40 72.27 52.37 72.27L52.41 72.32L52.31 72.22Q54.67 72.54 56.13 70.85L56.17 70.89L56.08 70.80Q57.57 69.12 57.63 66.81L57.69 66.88L57.73 66.92Q57.80 64.27 56.72 63.37L56.73 63.37L56.69 63.34Q54.29 62.17 52.37 62.29ZM51.88 92.67L51.87 92.66L47.38 92.68L47.35 92.65Q45.14 92.69 43.17 91.40L43.08 91.31L43.07 91.30Q41.22 89.79 41.45 85.56L41.38 85.49L41.44 85.56Q41.97 75.25 47.33 73.79L47.33 73.78L47.33 73.78Q44.06 72.54 42.09 64.59L41.98 64.48L42.03 64.53Q41.55 62.47 41.66 61.28L41.63 61.26L41.67 61.30Q42.12 58.13 47.59 58.07L47.46 57.94L47.65 58.13Q53.86 57.97 56.01 58.25L56.01 58.26L55.96 58.21Q61.75 59.09 62.43 62.08L62.31 61.96L62.32 61.97Q62.51 62.89 62.51 63.46L62.56 63.51L62.52 63.47Q62.47 64.44 62.19 65.34L62.20 65.35L62.18 65.33Q61.33 71.65 56.99 73.91L56.94 73.86L56.91 73.83Q62.19 75.10 62.92 82.94L62.82 82.84L62.84 82.86Q62.82 83.06 62.87 84.98L63.00 85.11L62.92 85.03Q63.01 89.06 60.64 90.64L60.74 90.74L60.79 90.80Q58.73 92.06 51.95 92.74ZM55.22 96.06L55.35 96.19L60.29 96.28L60.20 96.19Q62.89 96.45 65.14 95.38L65.12 95.35L65.02 95.25Q66.67 94.14 66.79 91.38L66.87 91.45L66.79 91.38Q66.84 89.74 66.28 86.86L66.29 86.88L66.39 86.97Q65.01 80.07 61.91 77.30L61.82 77.21L61.59 76.70L61.25 76.25L61.01 75.84L61.12 75.95Q63.49 73.86 64.84 67.71L64.92 67.78L64.79 67.66Q64.82 67.12 64.93 65.88L65.06 66.01L64.99 65.94Q65.18 65.00 65.06 64.09L64.90 63.93L64.97 64.00Q64.79 61.90 63.04 61.17L62.97 61.09L62.99 61.06L62.84 61.03L62.81 60.99Q62.30 59.81 60.55 58.62L60.67 58.74L60.78 58.80L60.74 58.75Q57.74 57.67 51.70 57.39L51.76 57.45L51.81 57.50Q49.39 57.22 47.36 57.39L47.46 57.49L47.35 57.38Q46.26 57.53 44.34 57.76L44.37 57.79L44.20 57.62Q41.32 58.18 40.98 60.61L41.02 60.65L41.06 60.68Q41.04 61.46 41.10 62.64L41.08 62.62L41.08 62.62Q41.19 63.35 42.04 66.85L42.07 66.88L42.15 66.97Q43.34 71.77 45.93 73.74L45.95 73.76L46.02 73.82L46.07 73.88Q41.94 75.78 41.15 83.46L41.14 83.45L41.02 83.33Q40.71 86.57 40.71 87.92L40.72 87.94L40.73 87.95Q40.93 90.69 42.68 92.04L42.62 91.98L42.73 92.09Q42.91 92.21 43.30 92.49L43.20 92.39L43.15 92.34Q44.67 95.72 55.22 96.06ZM54.85 79.77L54.87 79.79L54.72 79.65Q56.17 79.63 57.47 80.31L57.48 80.32L57.38 80.22Q58.04 81.78 57.98 82.57L58.03 82.62L57.94 82.53Q57.91 82.90 57.91 83.35L57.99 83.42L58.08 83.51Q57.97 86.91 54.59 88.15L54.67 88.23L54.70 88.26Q53.50 88.70 52.32 88.53L52.31 88.52L52.22 88.44Q50.65 88.67 48.95 87.99L48.84 87.87L48.92 87.95Q48.52 86.99 48.63 85.52L48.61 85.50L48.66 85.55Q48.93 83.22 50.70 81.42L50.73 81.44L50.53 81.25Q52.48 79.61 54.85 79.78ZM55.11 65.65L55.08 65.62L55.15 65.69Q56.37 65.56 57.16 65.78L57.02 65.65L57.02 66.83L57.02 66.83Q57.11 69.00 55.75 70.50L55.74 70.48L55.71 70.45Q54.38 71.97 52.35 71.69L52.27 71.61L52.30 71.64Q50.97 71.78 50.35 71.44L50.18 71.27L50.30 71.39Q50.24 70.99 50.07 69.98L49.96 69.87L50.05 69.96Q49.71 67.92 51.52 66.68L51.43 66.59L51.48 66.64Q53.09 65.66 55.18 65.72Z"/><path d="M3 109 C158 118,176 77,336 41" stroke="#4cb3d6" fill="none"/><path d="M9 24 C161 19,167 29,323 53" stroke="#e57e5b" fill="none"/><path d="M7 69 C163 65,192 109,339 57" stroke="#82b2e2" fill="none"/><path d="M9 53 C153 81,160 46,323 90" stroke="#c26cde" fill="none"/><path d="M19 91 C164 43,151 121,327 37" stroke="#dabc62" fill="none"/><path d="M13 12 C189 23,179 41,332 129" stroke="#96df4d" fill="none"/><path d="M18 38 C188 128,186 77,324 100" stroke="#809ae9" fill="none"/><path d="M7 130 C168 68,188 51,329 126" stroke="#b780ee" fill="none"/><path d="M16 90 C164 87,185 125,323 121" stroke="#4de499" fill="none"/><path fill="#e688e6" d="M114.74 73.27L114.68 73.21L114.70 73.23Q115.77 73.12 117.86 72.89L118.01 73.04L117.94 72.97Q117.96 74.00 117.96 74.96L117.86 74.87L117.97 76.83L117.81 76.68Q116.67 76.78 115.43 76.89L115.34 76.80L115.33 76.80Q114.27 77.03 113.03 76.98L112.91 76.85L112.85 76.80Q108.67 85.98 103.59 92.81L103.60 92.82L103.68 92.90Q99.90 93.81 97.98 94.71L97.92 94.65L97.97 94.69Q104.09 86.26 108.60 76.95L108.67 77.02L104.68 76.92L104.64 76.88Q104.77 75.04 104.60 73.06L104.45 72.91L104.54 72.99Q107.31 73.17 110.35 73.17L110.41 73.23L113.24 67.76L113.13 67.65Q114.64 64.88 116.45 62.51L116.52 62.58L116.40 62.46Q114.19 62.79 111.82 62.79L111.83 62.80L111.82 62.79Q102.85 62.85 97.26 59.57L97.18 59.49L96.29 57.02L96.24 56.96Q95.68 55.68 95.12 54.38L95.22 54.48L95.25 54.52Q101.56 58.29 110.03 58.62L110.02 58.61L110.10 58.70Q117.70 59.02 125.32 56.09L125.37 56.14L125.20 55.97Q125.08 56.75 124.34 58.05L124.22 57.92L124.20 57.90Q118.99 65.11 114.76 73.29ZM126.57 59.93L126.64 60.00L128.05 56.95L128.18 57.08Q126.62 57.67 124.14 58.74L124.15 58.75L124.57 58.45L124.57 58.44Q124.65 58.12 124.81 57.95L124.84 57.98L124.75 57.88Q125.43 56.99 126.50 55.01L126.40 54.91L126.45 54.96Q118.64 58.43 110.12 58.10L110.12 58.09L110.01 57.99Q101.07 57.57 94.02 53.17L94.01 53.16L94.01 53.16Q95.71 56.10 96.95 60.05L96.82 59.92L96.78 59.88Q98.55 60.98 99.74 61.43L99.63 61.32L99.69 61.38Q99.93 61.90 100.61 64.67L100.53 64.59L100.63 64.69Q105.25 66.49 113.43 66.26L113.47 66.30L113.46 66.29Q112.97 67.09 110.03 72.68L110.08 72.73L110.14 72.79Q106.99 72.68 104.05 72.40L104.07 72.42L104.00 72.35Q104.24 73.72 104.24 75.01L104.26 75.04L104.15 77.46L106.69 77.52L106.73 79.65L106.64 79.56Q100.77 90.44 96.65 95.75L96.76 95.85L96.72 95.82Q99.15 94.75 101.58 94.02L101.57 94.01L101.60 94.04Q100.51 95.32 98.48 97.86L98.57 97.95L98.52 97.90Q103.23 96.29 106.84 95.95L106.76 95.87L106.84 95.95Q111.19 90.37 115.81 80.32L115.68 80.19L120.86 80.58L120.92 80.64Q120.76 79.23 120.76 77.88L120.66 77.77L120.75 75.21L120.67 75.14Q120.43 75.29 119.61 75.34L119.52 75.26L119.44 75.17Q118.66 75.27 118.26 75.27L118.24 75.25L118.34 75.35Q118.28 75.11 118.34 74.89L118.30 74.85L118.32 74.48L118.26 74.42Q122.07 66.89 126.64 60.01Z"/><path d="M15 41 C161 77,180 34,341 90" stroke="#77e353" fill="none"/><path d="M14 121 C160 132,183 62,338 25" stroke="#d37ff0" fill="none"/><path d="M2 12 C177 5,177 21,323 45" stroke="#663edf" fill="none"/><path d="M17 75 C189 73,179 5,338 28" stroke="#e79b82" fill="none"/><path d="M13 127 C191 13,175 92,326 21" stroke="#86e3b5" fill="none"/><path fill="#daba5c" d="M284.79 73.31L284.70 73.23L284.60 73.13Q285.80 73.15 287.89 72.92L287.94 72.97L287.95 72.98Q287.96 74.01 287.96 74.97L287.94 74.95L287.80 76.67L287.91 76.77Q286.71 76.82 285.47 76.93L285.40 76.86L285.46 76.92Q284.09 76.85 282.85 76.79L283.00 76.94L282.88 76.83Q278.80 86.12 273.72 92.94L273.66 92.88L273.67 92.89Q269.92 93.83 268.00 94.73L268.02 94.74L267.95 94.68Q274.12 86.29 278.63 76.98L278.69 77.03L274.60 76.84L274.70 76.94Q274.65 74.92 274.48 72.94L274.60 73.06L274.54 73.00Q277.40 73.27 280.45 73.27L280.43 73.25L283.20 67.72L283.13 67.65Q284.72 64.96 286.53 62.59L286.42 62.48L286.50 62.56Q284.18 62.78 281.81 62.78L281.77 62.74L281.84 62.81Q272.84 62.83 267.25 59.56L267.23 59.54L266.30 57.03L266.19 56.92Q265.65 55.65 265.09 54.35L265.26 54.53L265.09 54.35Q271.53 58.25 279.99 58.59L280.07 58.66L280.03 58.63Q287.67 58.99 295.28 56.05L295.32 56.08L295.23 56.00Q295.01 56.68 294.28 57.98L294.31 58.01L294.33 58.03Q288.87 64.99 284.64 73.17ZM296.66 60.02L296.72 60.08L298.03 56.94L298.09 56.99Q296.78 57.83 294.30 58.90L294.29 58.89L294.44 58.31L294.50 58.37Q294.65 58.12 294.82 57.95L294.93 58.07L294.93 58.07Q295.34 56.90 296.41 54.92L296.48 54.99L296.47 54.99Q288.49 58.28 279.97 57.95L280.03 58.01L280.15 58.13Q271.15 57.64 264.09 53.24L264.17 53.32L264.10 53.25Q265.53 55.92 266.77 59.87L266.77 59.86L266.80 59.90Q268.43 60.85 269.61 61.30L269.64 61.33L269.75 61.43Q269.81 61.78 270.48 64.54L270.49 64.55L270.61 64.67Q275.35 66.59 283.53 66.36L283.40 66.23L283.54 66.37Q283.02 67.15 280.09 72.74L280.08 72.73L280.08 72.73Q277.11 72.80 274.17 72.52L274.17 72.51L274.12 72.47Q274.13 73.61 274.13 74.90L274.13 74.90L274.10 77.41L276.59 77.42L276.61 79.53L276.76 79.68Q270.84 90.51 266.72 95.82L266.67 95.77L266.73 95.83Q269.08 94.68 271.51 93.95L271.57 94.01L271.47 93.91Q270.60 95.41 268.57 97.95L268.46 97.84L268.55 97.93Q273.14 96.20 276.75 95.86L276.88 95.99L276.85 95.96Q281.14 90.32 285.77 80.28L285.73 80.24L290.91 80.63L290.79 80.50Q290.79 79.26 290.79 77.91L290.81 77.92L290.79 75.26L290.65 75.11Q290.25 75.12 289.44 75.17L289.44 75.17L289.55 75.29Q288.67 75.28 288.27 75.28L288.25 75.26L288.20 75.21Q288.32 75.15 288.38 74.93L288.36 74.92L288.34 74.50L288.36 74.52Q292.01 66.83 296.58 59.95Z"/><path d="M18 116 C184 37,177 97,338 93" stroke="#9e59e2" fill="none"/><path d="M1 10 C175 67,153 81,334 48" stroke="#e494e4" fill="none"/><path d="M7 65 C182 41,177 67,341 93" stroke="#bfee90" fill="none"/><path d="M16 84 C186 7,170 52,339 105" stroke="#79e655" fill="none"/><path d="M10 68 C177 133,183 10,334 20" stroke="#97f079" fill="none"/><path fill="#a1e38b" d="M234.12 89.16L234.05 89.09L234.01 89.05Q234.61 90.67 235.40 93.66L235.27 93.53L235.25 93.51Q228.99 91.53 222.16 91.93L222.23 91.99L222.26 92.03Q215.46 92.40 209.54 95.33L209.51 95.30L209.56 95.35Q209.87 94.31 209.93 94.42L209.91 94.41L209.87 94.37Q215.37 88.47 221.18 81.92L221.22 81.96L221.26 82.00Q227.90 74.70 229.65 67.76L229.53 67.65L229.49 67.60Q230.30 65.14 228.41 63.39L228.45 63.43L228.29 63.28Q226.51 61.63 223.86 61.86L223.86 61.86L223.72 61.72Q223.34 61.79 222.83 61.79L222.82 61.78L222.86 61.82Q220.46 61.67 218.60 63.03L218.60 63.04L218.75 63.19Q216.73 65.11 217.07 69.06L217.16 69.15L217.05 69.05Q214.52 68.66 212.72 67.99L212.73 68.00L212.74 68.00Q212.44 65.90 212.33 63.76L212.35 63.78L212.22 63.65Q212.22 61.34 213.13 59.65L213.09 59.61L213.08 59.60Q215.77 57.60 220.73 57.60L220.57 57.45L223.28 57.56L223.15 57.43Q226.57 57.52 227.98 57.69L228.02 57.73L227.97 57.67Q234.43 58.32 234.82 61.94L234.85 61.96L234.94 62.05Q235.05 62.90 234.94 64.08L234.81 63.95L234.97 64.12Q234.82 64.97 234.59 65.99L234.54 65.94L234.60 66.00Q232.07 77.92 220.85 88.07L220.86 88.09L220.96 88.19Q223.09 88.00 225.12 88.00L225.07 87.96L225.01 87.89Q229.88 87.97 234.11 89.15ZM233.19 58.21L233.22 58.24L233.27 58.29Q230.85 57.29 228.31 57.17L228.36 57.22L223.17 56.83L223.30 56.96Q216.61 56.47 213.33 58.10L213.30 58.07L213.31 58.08Q211.81 60.19 211.81 63.24L211.71 63.14L211.81 63.24Q211.79 64.24 212.25 68.42L212.30 68.47L212.26 68.43Q213.10 68.82 214.85 69.27L214.75 69.17L214.77 70.72L214.82 70.76Q214.78 71.46 214.89 72.25L214.88 72.23L214.84 72.19Q216.69 72.35 220.36 72.69L220.37 72.70L220.46 72.79Q220.47 72.29 220.47 71.79L220.47 71.79L220.40 71.72Q220.29 68.90 222.09 66.89L222.28 67.08L222.14 66.94Q223.91 64.90 226.56 65.07L226.59 65.09L226.66 65.17Q227.73 65.17 228.86 65.40L228.86 65.40L228.90 65.44Q229.03 65.96 229.15 66.58L229.26 66.70L229.24 66.67Q229.26 67.26 229.14 67.77L229.16 67.78L229.15 67.77Q227.27 74.81 220.72 81.97L220.70 81.95L220.68 81.92Q217.57 85.30 209.50 94.27L209.44 94.22L209.50 94.28Q209.13 95.43 208.62 96.27L208.73 96.39L208.72 96.38Q211.10 95.09 213.36 94.30L213.33 94.27L213.27 94.21Q212.27 95.13 210.86 97.33L210.90 97.37L210.91 97.38Q210.59 97.73 210.42 98.24L210.56 98.38L210.41 98.24Q217.68 95.24 225.81 95.52L225.92 95.63L225.86 95.57Q234.21 95.74 240.98 99.23L240.97 99.23L239.50 96.06L239.55 96.11Q238.62 94.17 238.22 92.98L238.25 93.01L238.16 92.92Q237.22 92.43 235.42 91.81L235.35 91.74L235.41 91.80Q235.07 90.62 234.50 88.59L234.47 88.55L234.44 88.52Q231.36 87.86 227.97 87.58L227.90 87.52L227.82 87.44Q234.78 80.68 237.03 68.43L237.05 68.45L237.35 64.18L237.38 64.21Q237.20 61.49 235.39 60.47L235.44 60.52L235.29 60.43L235.48 60.61Q235.34 60.42 235.23 60.42L235.16 60.36L235.23 60.42Q234.78 59.07 233.14 58.16Z"/><path d="M16 8 C174 99,156 69,338 8" stroke="#7cc5de" fill="none"/><path d="M9 7 C155 136,160 23,322 133" stroke="#e7c14f" fill="none"/></svg>