<svg xmlns="http://www.w3.org/2000/svg" width="342" height="140" viewBox="0,0,342,140"><path fill="#5aeba3" d="M222.31 66.95L222.43 67.07L222.38 67.02Q216.55 67.13 213.15 65.15L213.08 65.07L212.98 64.97Q217.65 62.43 226.70 54.58L226.71 54.60L226.87 54.76Q228.07 54.26 230.48 53.13L230.56 53.21L230.51 53.16Q228.13 64.29 227.92 76.10L227.90 76.07L227.75 75.93Q227.54 87.73 229.52 99.04L229.60 99.13L229.57 99.09Q226.44 97.73 222.48 97.52L222.49 97.54L222.48 97.52Q222.41 89.95 222.41 82.39L222.26 82.24L222.35 82.33Q222.38 74.73 222.45 67.10ZM221.71 71.23L221.60 98.20L221.68 98.28Q223.90 98.24 225.67 98.59L225.67 98.59L225.67 98.59Q225.78 99.84 226.14 102.38L226.26 102.50L226.28 102.53Q231.51 103.44 236.03 107.61L236.01 107.59L235.97 107.55Q231.37 94.32 231.30 80.47L231.45 80.62L231.46 80.62Q231.31 66.76 234.71 53.33L234.60 53.22L234.71 53.33Q233.63 54.02 230.66 56.07L230.67 56.08L230.62 56.03Q231.09 54.73 231.66 51.91L231.67 51.92L231.65 51.90Q229.05 53.19 226.36 53.89L226.52 54.05L226.33 53.86Q219.48 60.66 211.49 64.90L211.38 64.79L211.41 64.82Q214.11 66.95 218.49 67.59L218.45 67.55L218.51 67.61Q217.30 68.59 214.90 70.57L214.73 70.40L214.73 70.40Q217.55 71.17 221.65 71.17L221.69 71.21Z"/><path d="M12 93 C176 134,159 99,329 120" stroke="#4ad38e" fill="none"/><path d="M2 75 C172 137,173 30,334 77" stroke="#dec26c" fill="none"/><path d="M8 94 C173 99,151 102,332 82" stroke="#e7ba8c" fill="none"/><path d="M13 63 C176 103,177 64,332 33" stroke="#849fef" fill="none"/><path d="M10 95 C155 27,158 42,329 42" stroke="#d58aee" fill="none"/><path d="M14 20 C191 40,159 20,324 77" stroke="#5bd6b7" fill="none"/><path d="M12 33 C179 81,179 37,335 98" stroke="#8ee439" fill="none"/><path d="M19 54 C158 114,154 28,323 84" stroke="#e9e985" fill="none"/><path d="M3 1 C179 32,153 43,331 64" stroke="#dfdf76" fill="none"/><path fill="#8e4ad3" d="M292.60 93.94L292.63 93.97L292.57 93.90Q293.14 95.75 294.13 99.49L294.14 99.50L294.20 99.57Q286.38 97.12 277.82 97.61L277.82 97.61L277.84 97.63Q269.31 98.08 261.88 101.75L261.81 101.67L261.96 101.83Q262.23 100.41 262.30 100.55L262.38 100.63L262.44 100.68Q269.33 93.29 276.61 85.09L276.64 85.12L276.58 85.06Q284.70 75.72 286.89 67.02L286.94 67.07L287.04 67.17Q287.82 63.85 285.45 61.66L285.52 61.72L285.47 61.67Q283.17 59.55 279.85 59.83L279.82 59.81L279.81 59.79Q279.18 59.73 278.54 59.73L278.42 59.60L278.42 59.61Q275.66 59.67 273.32 61.37L273.33 61.37L273.40 61.45Q271.01 64.00 271.43 68.95L271.33 68.85L271.40 68.92Q268.09 68.30 265.83 67.45L265.85 67.47L265.75 67.37Q265.48 64.84 265.34 62.15L265.32 62.13L265.35 62.16Q265.22 59.14 266.35 57.01L266.21 56.87L266.17 56.83Q269.60 54.39 275.82 54.39L275.78 54.35L278.96 54.28L279.05 54.37Q283.37 54.52 285.14 54.73L285.01 54.61L285.13 54.72Q293.11 55.42 293.61 59.95L293.69 60.03L293.69 60.03Q293.75 61.01 293.61 62.49L293.62 62.51L293.61 62.50Q293.47 63.63 293.19 64.90L293.19 64.90L293.31 65.02Q290.23 80.04 276.16 92.77L276.11 92.72L276.15 92.76Q278.76 92.47 281.31 92.47L281.30 92.46L281.38 92.54Q287.30 92.46 292.60 93.94ZM291.64 55.36L291.49 55.22L291.65 55.38Q288.68 54.17 285.49 54.03L285.36 53.89L279.04 53.58L278.96 53.50Q270.83 53.15 266.73 55.20L266.77 55.24L266.65 55.12Q264.75 57.75 264.75 61.56L264.75 61.56L264.77 61.58Q264.83 62.92 265.40 68.15L265.37 68.12L265.38 68.13Q266.32 68.51 268.51 69.07L268.43 68.99L268.61 71.08L268.46 70.93Q268.51 71.90 268.65 72.89L268.54 72.78L268.52 72.75Q270.99 73.10 275.58 73.52L275.43 73.38L275.52 73.46Q275.39 72.70 275.39 72.06L275.50 72.17L275.47 72.14Q275.50 68.78 277.76 66.27L277.74 66.25L277.70 66.20Q279.91 63.64 283.23 63.85L283.23 63.85L283.39 64.01Q284.70 63.98 286.11 64.26L286.17 64.32L286.06 64.21Q286.31 64.95 286.45 65.73L286.49 65.77L286.41 65.68Q286.61 66.59 286.47 67.23L286.46 67.23L286.50 67.27Q284.05 75.99 275.85 84.97L275.81 84.93L275.81 84.93Q271.91 89.15 261.80 100.40L261.81 100.40L261.78 100.38Q261.54 102.05 260.90 103.11L260.77 102.98L260.81 103.01Q263.86 101.46 266.69 100.47L266.54 100.33L266.62 100.41Q265.22 101.41 263.45 104.17L263.59 104.31L263.51 104.23Q263.31 104.88 263.10 105.52L262.99 105.41L263.14 105.56Q272.04 101.59 282.22 101.94L282.34 102.06L282.25 101.97Q292.84 102.31 301.33 106.69L301.34 106.70L299.46 102.71L299.59 102.83Q298.19 100.17 297.70 98.68L297.84 98.82L297.76 98.74Q296.51 98.06 294.25 97.28L294.23 97.27L294.11 97.14Q293.91 95.88 293.20 93.34L293.15 93.29L293.12 93.25Q289.11 92.29 284.87 91.93L284.82 91.88L284.81 91.87Q293.54 83.43 296.37 68.09L296.46 68.17L296.80 62.79L296.70 62.69Q296.54 59.35 294.28 58.08L294.35 58.14L294.35 58.21L294.33 58.19Q294.14 57.93 294.00 57.93L294.00 57.94L293.97 57.90Q293.53 56.34 291.48 55.21Z"/><path d="M19 87 C158 75,152 11,330 28" stroke="#5ad779" fill="none"/><path d="M1 95 C154 10,169 121,329 116" stroke="#e674ad" fill="none"/><path d="M14 99 C176 132,189 40,339 106" stroke="#e4e462" fill="none"/><path d="M13 100 C154 92,182 114,339 134" stroke="#4949d4" fill="none"/><path fill="#95eb79" d="M159.70 98.59L159.73 98.62L159.73 98.62Q152.20 99.08 150.36 94.76L150.33 94.73L150.20 94.60Q151.64 92.86 154.54 89.54L154.62 89.62L154.50 89.49Q155.51 93.34 161.10 93.55L161.01 93.46L161.17 93.62Q167.30 93.60 170.34 91.13L170.48 91.26L170.50 91.29Q173.14 88.34 173.00 83.32L172.86 83.18L172.89 83.22Q172.64 73.84 163.73 74.27L163.61 74.15L163.61 74.14Q158.44 74.49 155.19 76.83L155.28 76.92L154.60 76.52L154.28 76.33L154.18 76.24Q154.92 70.47 154.70 65.38L154.63 65.30L154.61 65.28Q154.41 60.42 153.77 54.27L153.82 54.31L153.89 54.38Q160.53 56.01 167.60 55.80L167.57 55.76L167.60 55.79Q174.76 55.74 181.41 53.41L181.44 53.44L180.30 56.19L180.26 56.15Q179.84 57.71 179.49 59.27L179.31 59.09L179.45 59.23Q173.61 61.10 166.40 61.10L166.32 61.01L166.46 61.16Q163.78 61.17 161.02 60.88L160.86 60.72L161.02 60.88Q160.88 62.15 160.24 70.42L160.21 70.39L160.07 70.25Q161.65 69.43 165.47 69.14L165.52 69.19L165.58 69.26Q172.48 69.65 175.17 72.76L175.17 72.76L175.06 72.66Q177.61 75.49 178.11 82.63L178.19 82.71L178.24 82.77Q178.63 90.44 176.37 94.18L176.42 94.24L176.48 94.30Q172.59 97.69 166.44 98.12L166.54 98.21L166.54 98.21Q164.55 98.21 159.60 98.49ZM170.84 102.73L170.84 102.72L170.93 102.81Q177.29 102.95 180.82 100.90L180.75 100.82L180.86 100.93Q182.66 98.07 182.66 94.18L182.57 94.10L182.69 94.21Q182.68 88.48 180.91 80.84L180.83 80.76L180.83 80.76Q180.08 77.47 177.82 74.85L177.87 74.90L177.98 75.08L177.47 74.43L176.84 74.08L176.94 74.18Q176.30 72.76 175.10 71.49L175.20 71.59L175.10 71.57L175.16 71.63Q172.33 68.51 165.47 68.51L165.47 68.51L165.03 68.56L165.06 68.59Q165.14 67.48 165.50 65.43L165.44 65.37L165.54 65.47Q174.76 65.64 182.25 62.60L182.29 62.63L182.21 62.55Q183.03 59.98 184.80 54.75L184.74 54.70L180.83 56.44L180.97 56.58Q181.58 54.36 182.49 52.23L182.48 52.22L182.48 52.22Q175.35 54.92 167.71 55.06L167.64 54.98L167.79 55.13Q160.17 55.36 152.82 53.31L152.67 53.16L152.81 53.30Q153.99 61.42 153.99 69.62L154.08 69.70L154.01 69.63Q153.92 73.08 153.71 76.62L153.83 76.73L153.85 76.76Q154.38 77.15 155.44 77.71L155.42 77.69L155.46 77.73Q156.06 77.27 157.26 76.64L157.11 76.48L157.19 76.56Q157.19 78.04 156.76 80.87L156.63 80.74L156.74 80.85Q157.55 81.24 158.33 81.66L158.31 81.64L158.20 81.53Q163.41 78.33 166.88 78.33L166.90 78.35L166.87 78.32Q169.33 78.31 171.52 79.51L171.49 79.48L171.58 79.57Q172.15 81.41 172.22 83.18L172.36 83.32L172.31 83.27Q172.44 88.06 170.53 90.11L170.50 90.08L170.40 89.98Q167.96 92.35 163.79 92.78L163.69 92.68L163.70 92.69Q162.10 92.99 160.82 92.85L160.80 92.83L160.80 92.83Q159.20 92.58 157.79 91.94L157.74 91.89L157.62 91.42L157.57 91.79L157.50 91.72Q156.03 90.81 155.04 88.34L154.99 88.29L155.08 88.38Q152.63 91.02 149.51 94.97L149.40 94.87L149.44 94.90Q149.96 96.06 151.52 97.83L151.53 97.84L151.50 97.80Q153.49 101.21 158.72 102.13L158.84 102.25L158.72 102.13Q160.98 102.63 170.95 102.84Z"/><path d="M19 106 C156 24,177 138,328 111" stroke="#69e83f" fill="none"/><path d="M14 132 C184 111,185 31,339 52" stroke="#ddc273" fill="none"/><path d="M9 132 C176 11,156 87,333 13" stroke="#e6d192" fill="none"/><path d="M15 90 C179 1,178 31,325 83" stroke="#44d88e" fill="none"/><path d="M17 21 C151 33,175 19,324 79" stroke="#dc50b9" fill="none"/><path d="M20 25 C163 129,189 29,338 105" stroke="#78e155" fill="none"/><path fill="#4eb6d9" d="M51.35 77.87L51.35 77.87L51.26 77.78Q47.82 77.80 45.56 80.28L45.45 80.17L45.44 80.16Q43.19 82.64 42.90 86.18L43.02 86.29L42.92 86.20Q42.71 90.30 44.97 92.17L44.86 92.06L44.86 92.06Q47.06 93.87 51.02 93.73L51.09 93.80L51.21 93.92Q55.52 93.63 57.28 91.86L57.26 91.84L57.16 91.74Q59.11 89.09 58.90 85.70L58.96 85.76L58.95 85.75Q58.66 82.21 56.64 79.98L56.58 79.92L56.76 80.10Q54.61 77.73 51.22 77.73ZM51.22 60.27L51.23 60.28L51.14 60.20Q48.57 60.03 46.09 60.94L46.17 61.03L46.02 60.87Q43.62 62.36 44.05 65.83L44.08 65.86L44.09 65.87Q45.13 72.93 51.36 72.93L51.17 72.74L51.16 72.73Q54.09 73.12 55.93 71.00L55.90 70.97L55.99 71.05Q57.77 68.87 57.84 65.97L57.98 66.12L57.81 65.94Q58.08 62.82 56.74 61.69L56.67 61.63L56.77 61.73Q53.63 60.14 51.23 60.28ZM50.71 98.44L50.61 98.34L45.01 98.40L44.99 98.38Q42.14 98.35 39.67 96.73L39.73 96.79L39.67 96.73Q37.14 94.63 37.43 89.33L37.46 89.36L37.55 89.45Q38.36 76.69 45.08 74.85L45.03 74.80L45.00 74.77Q40.75 73.06 38.27 63.09L38.26 63.08L38.42 63.24Q37.61 60.45 37.75 58.96L37.92 59.13L37.88 59.10Q38.39 55.08 45.25 55.01L45.15 54.91L45.17 54.93Q53.06 54.83 55.74 55.18L55.74 55.18L55.75 55.19Q62.90 56.19 63.75 59.93L63.76 59.95L63.70 59.89Q64.02 61.13 64.02 61.83L64.03 61.84L63.94 61.75Q64.06 63.15 63.70 64.28L63.69 64.26L63.60 64.17Q62.45 72.00 57.01 74.83L57.08 74.90L57.10 74.92Q63.54 76.35 64.46 86.17L64.51 86.22L64.45 86.16Q64.48 86.47 64.55 88.88L64.65 88.97L64.59 88.91Q64.63 93.91 61.66 95.89L61.79 96.02L61.64 95.86Q59.14 97.54 50.66 98.39ZM54.98 102.78L54.85 102.65L61.09 102.81L61.10 102.82Q64.29 102.97 67.12 101.63L67.21 101.72L67.17 101.68Q69.33 100.37 69.47 96.91L69.50 96.94L69.51 96.95Q69.51 94.82 68.80 91.22L68.74 91.16L68.85 91.27Q67.09 82.58 63.20 79.11L63.16 79.08L62.84 78.40L62.41 77.83L62.30 77.51L62.24 77.45Q65.30 74.92 67.00 67.22L66.86 67.08L66.91 67.13Q66.90 66.41 67.04 64.85L67.05 64.87L67.04 64.86Q67.22 63.62 67.08 62.49L67.00 62.41L67.18 62.59Q66.88 59.89 64.69 58.97L64.52 58.80L64.69 58.90L64.26 58.61L64.29 58.65Q63.77 57.27 61.58 55.79L61.66 55.87L61.81 55.95L61.74 55.88Q58.10 54.64 50.53 54.29L50.57 54.33L50.46 54.22Q47.55 53.99 45.00 54.20L45.06 54.26L45.09 54.29Q43.46 54.21 41.06 54.50L41.19 54.63L41.23 54.67Q37.60 55.35 37.18 58.39L37.05 58.27L37.13 58.35Q37.11 59.32 37.19 60.81L37.11 60.73L37.02 60.64Q37.42 61.82 38.48 66.21L38.49 66.21L38.36 66.08Q39.86 72.11 43.12 74.58L43.15 74.62L43.27 74.74L43.31 74.77Q38.05 77.08 37.06 86.70L37.05 86.69L37.14 86.78Q36.74 90.83 36.74 92.53L36.79 92.58L36.84 92.63Q36.83 95.80 39.02 97.50L39.00 97.47L39.06 97.53Q39.38 97.79 39.88 98.14L39.90 98.17L39.84 98.10Q41.77 102.36 54.99 102.79ZM54.38 82.24L54.26 82.12L54.28 82.14Q55.93 81.95 57.56 82.80L57.63 82.88L57.63 82.87Q58.26 84.64 58.19 85.63L58.31 85.75L58.26 85.69Q58.24 86.18 58.24 86.74L58.39 86.88L58.41 86.90Q58.28 91.16 54.03 92.71L54.06 92.74L54.15 92.83Q52.56 93.29 51.08 93.08L51.09 93.10L51.16 93.17Q49.11 93.37 46.99 92.52L47.00 92.54L47.02 92.56Q46.38 91.21 46.52 89.37L46.62 89.47L46.69 89.54Q46.90 86.50 49.13 84.24L49.06 84.17L49.04 84.15Q51.30 81.92 54.27 82.14ZM54.70 64.53L54.81 64.64L54.78 64.61Q56.23 64.37 57.22 64.65L57.26 64.69L57.29 66.20L57.24 66.16Q57.26 68.79 55.57 70.67L55.57 70.67L55.47 70.57Q53.77 72.44 51.22 72.08L51.23 72.10L51.25 72.11Q49.44 72.14 48.67 71.72L48.56 71.61L48.67 71.72Q48.50 71.13 48.29 69.86L48.37 69.94L48.43 70.00Q47.81 67.25 50.07 65.70L50.19 65.83L50.16 65.79Q52.17 64.55 54.79 64.62Z"/><path d="M12 51 C167 132,181 101,340 108" stroke="#75eaea" fill="none"/><path d="M7 75 C157 30,168 70,334 121" stroke="#ec91a8" fill="none"/><path d="M15 77 C176 109,162 52,335 89" stroke="#7ab2ea" fill="none"/><path d="M17 119 C170 70,165 136,336 62" stroke="#e83f93" fill="none"/><path d="M16 112 C169 29,184 42,331 36" stroke="#d646d6" fill="none"/><path d="M20 84 C180 75,180 29,329 11" stroke="#e5567a" fill="none"/><path d="M7 105 C158 129,185 120,321 119" stroke="#e556e5" fill="none"/><path d="M13 27 C173 93,188 122,329 122" stroke="#ecec87" fill="none"/><path d="M14 35 C176 80,176 42,326 69" stroke="#dc74dc" fill="none"/><path d="M11 73 C191 113,190 133,339 14" stroke="#6a44de" fill="none"/><path d="M15 85 C185 50,165 136,322 134" stroke="#ed6868" fill="none"/><path fill="#e98f8f" d="M115.06 74.06L114.96 73.96L115.01 74.01Q116.60 74.12 119.22 73.84L119.05 73.67L119.13 73.75Q119.15 75.04 119.15 76.24L119.01 76.10L118.99 78.41L119.07 78.50Q117.50 78.48 115.95 78.62L115.97 78.64L116.03 78.71Q114.43 78.73 112.87 78.66L112.93 78.72L112.93 78.72Q107.44 89.98 101.08 98.54L101.16 98.62L101.23 98.70Q96.56 99.88 94.15 101.02L94.11 100.97L94.06 100.92Q101.84 90.46 107.49 78.79L107.48 78.78L102.61 78.79L102.44 78.62Q102.57 76.27 102.36 73.80L102.21 73.65L102.24 73.68Q105.81 74.00 109.63 74.00L109.60 73.97L113.16 67.14L113.16 67.14Q115.12 63.73 117.39 60.76L117.19 60.57L117.20 60.57Q114.45 61.01 111.48 61.01L111.47 61.00L111.52 61.05Q100.11 60.95 93.11 56.85L93.09 56.82L91.82 53.58L91.92 53.68Q91.37 52.21 90.67 50.58L90.55 50.47L90.49 50.41Q98.63 55.37 109.24 55.79L109.14 55.70L109.14 55.69Q118.69 56.13 128.24 52.45L128.37 52.58L128.26 52.47Q128.02 53.37 127.10 54.99L126.98 54.87L126.99 54.88Q120.25 63.70 114.95 73.95ZM130.06 57.53L129.95 57.42L131.87 53.75L131.81 53.69Q130.10 54.67 126.99 56.01L126.88 55.90L127.38 55.48L127.24 55.34Q127.48 55.09 127.69 54.88L127.85 55.03L127.73 54.92Q128.47 53.68 129.81 51.20L129.71 51.10L129.83 51.22Q119.95 55.48 109.27 55.05L109.29 55.07L109.21 54.99Q98.03 54.48 89.19 48.97L89.20 48.97L89.25 49.03Q91.16 52.49 92.72 57.44L92.66 57.39L92.78 57.51Q94.82 58.70 96.31 59.27L96.28 59.24L96.28 59.24Q96.58 59.89 97.43 63.36L97.29 63.22L97.26 63.19Q103.19 65.58 113.44 65.30L113.49 65.35L113.42 65.27Q112.96 66.44 109.28 73.44L109.19 73.35L109.24 73.40Q105.48 73.46 101.81 73.11L101.72 73.02L101.80 73.10Q101.98 74.69 101.98 76.32L101.85 76.19L101.86 79.39L105.00 79.42L105.01 82.04L104.90 81.93Q97.68 95.71 92.52 102.35L92.54 102.37L92.64 102.47Q95.59 101.04 98.63 100.13L98.61 100.10L98.50 99.99Q97.20 101.66 94.66 104.84L94.66 104.85L94.82 105.01Q100.52 102.78 105.04 102.36L105.22 102.54L105.07 102.39Q110.59 95.46 116.38 82.88L116.33 82.82L122.81 83.29L122.64 83.13Q122.63 81.56 122.63 79.86L122.65 79.88L122.52 76.43L122.61 76.52Q122.08 76.49 121.06 76.56L120.99 76.49L121.13 76.63Q120.02 76.62 119.53 76.62L119.46 76.55L119.63 76.73Q119.49 76.37 119.56 76.09L119.65 76.18L119.58 75.61L119.63 75.66Q124.32 66.14 130.05 57.52Z"/><path d="M17 118 C191 81,191 16,340 34" stroke="#71e471" fill="none"/><path d="M9 60 C154 39,160 6,341 104" stroke="#7be47b" fill="none"/><path d="M5 130 C188 125,189 49,339 58" stroke="#ee76b2" fill="none"/><path d="M5 87 C162 135,151 113,338 43" stroke="#7ad2ef" fill="none"/><path d="M18 93 C183 37,161 58,328 52" stroke="#bb5bdb" fill="none"/><path d="M10 22 C154 45,155 29,321 103" stroke="#73dda8" fill="none"/><path d="M11 2 C158 65,181 79,334 34" stroke="#9ee358" fill="none"/><path d="M18 134 C181 56,164 39,322 92" stroke="#9145dd" fill="none"/><path d="M6 33 C169 54,177 69,340 25" stroke="#e13b3b" fill="none"/><path d="M5 22 C155 119,184 57,333 122" stroke="#5c5cdf" fill="none"/></svg>