<svg xmlns="http://www.w3.org/2000/svg" width="342" height="140" viewBox="0,0,342,140"><path d="M8 109 C165 126,164 95,330 17" stroke="#df7adf" fill="none"/><path d="M10 16 C158 22,173 82,333 6" stroke="#df947a" fill="none"/><path d="M4 104 C168 106,156 120,327 136" stroke="#84e065" fill="none"/><path d="M17 13 C162 107,190 15,335 91" stroke="#c7eb5a" fill="none"/><path d="M11 118 C168 38,169 125,330 50" stroke="#e59342" fill="none"/><path d="M11 102 C191 72,176 15,323 74" stroke="#db7756" fill="none"/><path d="M12 112 C164 101,181 31,325 52" stroke="#e4cb80" fill="none"/><path d="M15 19 C152 107,184 109,326 82" stroke="#9dec82" fill="none"/><path d="M10 66 C164 52,180 8,341 47" stroke="#e13be1" fill="none"/><path d="M10 109 C154 134,157 4,334 6" stroke="#8cee6c" fill="none"/><path d="M19 55 C161 137,173 111,328 24" stroke="#7ff07f" fill="none"/><path fill="#ca83e1" d="M215.62 82.99L215.63 83.00L215.51 82.88Q220.49 82.23 225.69 82.42L225.78 82.51L225.73 82.46Q225.78 78.42 225.78 74.53L225.67 74.42L225.69 74.44Q225.79 70.51 226.10 66.37L225.97 66.24L226.01 66.28Q224.02 69.06 215.55 82.91ZM231.57 94.79L231.66 94.89L231.59 94.82Q229.01 94.46 226.10 94.33L226.12 94.35L226.06 94.30Q225.73 90.44 225.55 86.42L225.50 86.37L225.49 86.36Q216.87 86.09 209.19 88.38L209.22 88.40L209.21 88.39Q209.35 87.55 209.66 85.94L209.77 86.05L209.59 85.87Q212.52 80.75 218.34 70.55L218.51 70.72L218.45 70.66Q223.15 62.74 228.72 56.43L228.77 56.49L228.70 56.42Q230.09 56.07 232.81 55.63L232.92 55.74L232.83 55.65Q229.69 66.06 229.69 77.51L229.64 77.46L229.67 77.49Q229.68 79.91 229.80 82.32L229.91 82.43L231.88 82.49L231.96 82.56Q233.03 82.70 234.02 82.89L233.93 82.80L233.91 82.78Q234.19 84.48 234.62 87.64L234.53 87.55L234.49 87.50Q232.67 87.23 230.26 86.92L230.18 86.85L230.19 86.85Q230.58 90.16 231.70 94.92ZM234.38 82.20L234.43 82.25L234.41 82.23Q234.11 82.12 233.80 82.12L233.82 82.14L233.10 82.03L233.17 82.10Q232.92 79.63 232.92 77.34L232.93 77.35L232.88 77.30Q233.02 67.05 236.37 57.27L236.23 57.14L236.25 57.16Q234.98 57.56 232.63 58.18L232.63 58.18L232.79 58.34Q233.10 57.04 233.85 54.75L233.78 54.69L233.73 54.64Q231.69 55.32 228.35 55.69L228.29 55.63L228.37 55.71Q222.09 62.85 213.61 78.07L213.52 77.98L216.90 72.02L216.96 72.08Q216.21 73.68 215.78 74.61L215.85 74.68L208.63 89.36L208.64 89.37Q209.54 88.97 211.40 88.35L211.45 88.41L211.16 88.74L211.24 88.81Q210.95 89.83 210.46 91.87L210.58 91.99L210.65 92.06Q217.18 89.75 225.04 90.06L225.09 90.10L225.15 90.17Q225.17 91.67 225.48 94.89L225.47 94.87L225.37 94.78Q227.09 94.77 228.83 94.96L228.93 95.06L228.97 95.10Q229.13 96.13 229.56 98.35L229.70 98.49L229.56 98.35Q232.60 98.67 237.49 100.15L237.68 100.35L237.59 100.25Q235.99 96.80 234.51 91.48L234.56 91.54L236.78 92.15L236.76 92.13Q237.96 92.59 239.08 93.14L239.04 93.11L239.15 93.22Q237.84 89.12 237.59 86.40L237.57 86.38L237.55 86.35Q236.60 86.09 234.75 85.72L234.65 85.62L234.83 85.80Q234.42 83.66 234.42 82.24ZM221.39 81.95L221.40 81.96L221.45 82.01Q222.62 79.84 225.16 75.70L225.16 75.70L225.23 75.77Q225.23 77.31 225.17 78.86L225.17 78.86L225.00 78.70Q225.04 80.34 225.10 81.89L225.18 81.97L225.22 82.01Q224.30 81.95 223.37 81.95L223.25 81.83L223.36 81.95Q222.37 81.94 221.38 81.94Z"/><path d="M6 95 C177 62,180 73,332 135" stroke="#4ddab7" fill="none"/><path d="M5 29 C184 27,172 15,323 103" stroke="#58e87c" fill="none"/><path d="M11 115 C159 25,192 138,332 15" stroke="#e14b70" fill="none"/><path fill="#e9e967" d="M291.54 91.04L291.48 90.99L291.45 90.95Q291.98 92.60 292.85 95.88L292.92 95.95L292.77 95.80Q285.98 93.71 278.49 94.14L278.49 94.14L278.47 94.12Q271.09 94.60 264.59 97.81L264.63 97.85L264.56 97.78Q264.97 96.71 265.04 96.83L264.92 96.71L264.91 96.70Q270.96 90.26 277.34 83.09L277.51 83.26L277.51 83.26Q284.62 75.09 286.53 67.48L286.44 67.38L286.47 67.41Q287.32 64.67 285.24 62.75L285.26 62.77L285.26 62.77Q283.14 60.81 280.24 61.06L280.11 60.93L280.23 61.05Q279.70 61.01 279.14 61.01L279.19 61.07L279.06 60.93Q276.62 60.96 274.58 62.45L274.56 62.43L274.48 62.35Q272.48 64.69 272.86 69.02L272.84 69.00L272.83 68.99Q269.90 68.42 267.92 67.67L268.05 67.80L267.97 67.72Q267.66 65.43 267.54 63.08L267.56 63.10L267.51 63.05Q267.48 60.49 268.47 58.64L268.32 58.48L268.48 58.64Q271.36 56.39 276.81 56.39L276.77 56.36L279.54 56.28L279.58 56.31Q283.26 56.35 284.81 56.53L284.92 56.65L284.90 56.63Q291.90 57.25 292.33 61.21L292.42 61.30L292.32 61.20Q292.53 62.22 292.41 63.51L292.28 63.39L292.32 63.43Q292.20 64.42 291.95 65.54L291.97 65.55L292.05 65.63Q289.27 78.68 276.95 89.82L277.00 89.86L277.12 89.99Q279.35 89.68 281.58 89.68L281.51 89.61L281.56 89.67Q286.79 89.63 291.43 90.93ZM290.49 57.09L290.51 57.10L290.49 57.08Q287.94 56.08 285.16 55.96L285.09 55.89L279.59 55.65L279.59 55.65Q272.31 55.17 268.72 56.97L268.73 56.97L268.81 57.06Q267.04 59.24 267.04 62.58L267.01 62.55L267.09 62.63Q267.08 63.74 267.58 68.32L267.56 68.30L267.67 68.41Q268.52 68.77 270.44 69.27L270.37 69.19L270.47 70.96L270.43 70.92Q270.32 71.61 270.44 72.48L270.36 72.40L270.53 72.57Q272.48 72.66 276.50 73.03L276.40 72.94L276.47 73.00Q276.45 72.42 276.45 71.87L276.52 71.94L276.52 71.94Q276.42 68.87 278.40 66.67L278.39 66.67L278.34 66.62Q280.48 64.58 283.39 64.76L283.23 64.60L283.24 64.62Q284.61 64.81 285.84 65.06L285.69 64.90L285.71 64.92Q285.97 65.61 286.09 66.29L286.03 66.23L286.09 66.29Q286.12 66.95 286.00 67.50L286.12 67.62L286.06 67.56Q283.94 75.22 276.77 83.08L276.77 83.08L276.86 83.17Q273.40 86.82 264.56 96.66L264.43 96.54L264.49 96.60Q264.27 98.04 263.71 98.97L263.70 98.96L263.63 98.89Q266.21 97.45 268.68 96.58L268.65 96.55L268.78 96.68Q267.61 97.61 266.06 100.02L266.07 100.03L265.98 99.94Q265.89 100.59 265.70 101.15L265.60 101.04L265.69 101.14Q273.46 97.64 282.37 97.95L282.39 97.98L282.42 98.00Q291.66 98.28 299.09 102.12L299.05 102.08L297.41 98.58L297.50 98.67Q296.45 96.51 296.02 95.21L295.91 95.10L295.99 95.18Q294.84 94.53 292.86 93.85L292.75 93.74L292.78 93.77Q292.57 92.63 291.95 90.40L291.94 90.39L291.98 90.43Q288.46 89.57 284.75 89.26L284.59 89.10L284.68 89.19Q292.25 81.74 294.73 68.31L294.65 68.24L295.14 63.72L295.06 63.64Q294.91 60.70 292.93 59.59L292.92 59.58L292.88 59.59L292.84 59.56Q292.74 59.40 292.62 59.40L292.74 59.52L292.68 59.46Q292.29 58.07 290.49 57.08Z"/><path d="M2 59 C170 98,169 95,331 44" stroke="#84d5ef" fill="none"/><path fill="#d1ef75" d="M52.01 76.88L52.00 76.87L51.93 76.80Q48.91 76.82 46.93 78.98L46.91 78.96L46.85 78.90Q44.92 81.11 44.67 84.20L44.65 84.18L44.76 84.29Q44.44 87.75 46.42 89.39L46.42 89.39L46.39 89.36Q48.27 90.89 51.73 90.77L51.90 90.94L51.87 90.91Q55.60 90.62 57.15 89.07L57.11 89.03L57.09 89.01Q58.76 86.66 58.58 83.69L58.66 83.77L58.66 83.78Q58.34 80.62 56.58 78.67L56.71 78.79L56.57 78.66Q54.98 76.88 52.01 76.88ZM51.89 61.48L51.83 61.42L51.91 61.50Q49.54 61.23 47.37 62.04L47.44 62.10L47.43 62.10Q45.40 63.47 45.77 66.50L45.74 66.46L45.59 66.32Q46.52 72.51 51.97 72.51L52.00 72.54L52.02 72.56Q54.57 72.88 56.18 71.03L56.11 70.96L56.05 70.90Q57.75 69.14 57.82 66.60L57.67 66.46L57.68 66.47Q57.87 63.69 56.69 62.70L56.76 62.77L56.73 62.74Q53.98 61.35 51.88 61.47ZM51.51 94.94L51.37 94.80L46.43 94.81L46.50 94.88Q44.03 94.89 41.87 93.46L41.76 93.36L41.76 93.36Q39.70 91.67 39.95 87.03L39.92 86.99L39.88 86.96Q40.65 75.85 46.53 74.24L46.51 74.22L46.55 74.27Q42.85 72.79 40.68 64.07L40.63 64.02L40.64 64.02Q40.13 61.78 40.25 60.49L40.16 60.39L40.15 60.38Q40.64 56.92 46.65 56.85L46.69 56.90L46.77 56.98Q53.49 56.71 55.84 57.02L55.83 57.01L55.88 57.05Q62.16 57.96 62.91 61.24L62.94 61.27L62.93 61.26Q63.03 62.17 63.03 62.79L63.06 62.81L63.08 62.84Q63.04 63.91 62.73 64.90L62.68 64.85L62.78 64.94Q61.68 71.71 56.92 74.18L56.96 74.22L57.08 74.35Q62.63 75.50 63.43 84.10L63.49 84.15L63.53 84.20Q63.57 84.48 63.63 86.59L63.47 86.43L63.52 86.47Q63.64 90.93 61.05 92.66L61.11 92.72L61.03 92.64Q58.86 94.12 51.44 94.87ZM55.12 98.61L55.20 98.69L60.52 98.69L60.63 98.80Q63.46 98.97 65.94 97.80L65.88 97.74L65.79 97.65Q67.72 96.55 67.84 93.52L67.87 93.55L67.91 93.59Q67.96 91.78 67.34 88.62L67.34 88.63L67.24 88.52Q65.87 81.09 62.46 78.05L62.35 77.94L62.15 77.43L61.80 76.96L61.45 76.42L61.47 76.44Q64.16 74.25 65.65 67.51L65.70 67.56L65.58 67.44Q65.76 67.00 65.88 65.64L65.74 65.49L65.72 65.47Q65.92 64.44 65.80 63.45L65.82 63.47L65.82 63.47Q65.56 61.10 63.64 60.30L63.56 60.22L63.66 60.25L63.29 60.02L63.42 60.14Q62.91 58.89 60.99 57.59L60.99 57.59L61.15 57.69L61.10 57.64Q57.89 56.53 51.27 56.23L51.18 56.13L51.16 56.11Q48.68 55.98 46.45 56.17L46.42 56.13L46.47 56.18Q45.10 56.17 42.99 56.42L43.02 56.45L43.04 56.47Q39.88 57.08 39.51 59.74L39.59 59.82L39.65 59.88Q39.46 60.56 39.52 61.86L39.50 61.83L39.55 61.89Q39.68 62.70 40.61 66.53L40.64 66.56L40.71 66.63Q41.90 71.79 44.75 73.95L44.81 74.01L44.86 74.06L45.03 74.23Q40.50 76.32 39.63 84.73L39.60 84.69L39.51 84.61Q39.31 88.31 39.31 89.79L39.31 89.79L39.25 89.73Q39.46 92.72 41.37 94.21L41.34 94.17L41.35 94.19Q41.57 94.34 42.00 94.65L41.94 94.59L41.94 94.59Q43.51 98.19 55.07 98.57ZM54.50 80.55L54.56 80.61L54.67 80.72Q56.03 80.47 57.45 81.21L57.59 81.35L57.42 81.17Q58.16 82.91 58.10 83.77L58.01 83.69L58.15 83.83Q58.19 84.29 58.19 84.79L58.20 84.80L58.02 84.63Q58.20 88.64 54.49 90.00L54.38 89.89L54.49 90.00Q53.19 90.49 51.89 90.31L51.85 90.27L51.82 90.24Q50.07 90.47 48.21 89.72L48.17 89.68L48.15 89.66Q47.69 88.58 47.81 86.97L47.90 87.07L47.91 87.08Q48.12 84.43 50.07 82.45L50.08 82.46L50.14 82.52Q52.02 80.48 54.62 80.66ZM55.05 65.32L55.04 65.31L55.03 65.30Q56.19 64.98 57.06 65.22L57.05 65.22L57.07 66.54L57.18 66.65Q57.15 68.91 55.67 70.55L55.73 70.61L55.65 70.53Q54.15 72.16 51.93 71.85L51.90 71.82L51.93 71.85Q50.26 71.79 49.58 71.42L49.59 71.43L49.71 71.55Q49.51 70.97 49.32 69.86L49.39 69.93L49.35 69.89Q49.06 67.75 51.04 66.39L50.90 66.24L50.88 66.22Q52.61 65.11 54.90 65.17Z"/><path fill="#e53cbb" d="M160.95 94.97L160.95 94.97L161.04 95.06Q154.43 95.44 152.82 91.67L152.76 91.61L152.83 91.68Q153.94 90.00 156.47 87.10L156.59 87.21L156.58 87.20Q157.37 90.47 162.26 90.65L162.26 90.66L162.23 90.62Q167.76 90.77 170.42 88.61L170.35 88.54L170.43 88.62Q172.61 85.91 172.49 81.52L172.59 81.63L172.48 81.51Q172.27 73.32 164.48 73.70L164.43 73.65L164.42 73.64Q159.94 73.98 157.10 76.03L156.98 75.91L156.60 75.78L156.25 75.56L156.21 75.51Q156.70 70.31 156.52 65.86L156.51 65.85L156.59 65.94Q156.45 61.71 155.89 56.33L155.90 56.33L155.90 56.34Q161.81 57.85 167.99 57.66L168.05 57.72L168.06 57.73Q174.19 57.55 180.01 55.51L180.03 55.53L178.98 57.88L178.97 57.87Q178.56 59.19 178.25 60.55L178.28 60.59L178.15 60.46Q173.13 62.18 166.82 62.18L166.89 62.25L166.75 62.11Q164.47 62.18 162.06 61.93L162.12 62.00L162.08 61.95Q161.88 63.00 161.33 70.24L161.30 70.21L161.44 70.34Q162.68 69.49 166.02 69.24L166.13 69.35L166.09 69.31Q172.19 69.72 174.54 72.44L174.47 72.36L174.60 72.49Q176.83 74.98 177.26 81.22L177.12 81.08L177.17 81.13Q177.57 87.90 175.59 91.17L175.71 91.30L175.67 91.26Q172.41 94.37 167.03 94.74L166.98 94.69L166.89 94.61Q165.26 94.71 160.93 94.96ZM170.88 98.78L170.85 98.75L170.81 98.71Q176.33 98.78 179.42 96.99L179.40 96.97L179.44 97.01Q181.10 94.58 181.10 91.18L181.07 91.15L181.08 91.17Q181.07 86.14 179.52 79.46L179.56 79.50L179.50 79.44Q178.95 76.67 176.97 74.38L176.99 74.39L176.99 74.45L176.56 73.90L176.10 73.69L176.08 73.67Q175.52 72.43 174.47 71.32L174.53 71.38L174.51 71.42L174.51 71.42Q172.04 68.70 166.04 68.70L166.03 68.69L165.65 68.74L165.55 68.64Q165.83 67.87 166.14 66.07L165.97 65.91L166.12 66.06Q174.13 66.15 180.68 63.49L180.61 63.41L180.70 63.50Q181.46 61.29 183.00 56.71L183.00 56.71L179.45 58.11L179.51 58.17Q180.05 56.23 180.85 54.37L180.99 54.52L180.88 54.40Q174.79 56.91 168.11 57.03L167.98 56.91L168.06 56.98Q161.25 57.04 154.82 55.25L154.90 55.33L154.96 55.39Q156.00 62.50 156.00 69.67L156.01 69.68L156.07 69.75Q155.99 72.75 155.80 75.84L155.92 75.97L155.85 75.89Q156.28 76.20 157.21 76.69L157.11 76.60L157.13 76.61Q157.70 76.26 158.75 75.70L158.77 75.73L158.81 75.76Q158.80 77.05 158.43 79.53L158.36 79.45L158.34 79.43Q159.09 79.81 159.77 80.19L159.72 80.13L159.77 80.18Q164.17 77.22 167.20 77.22L167.32 77.34L167.29 77.31Q169.41 77.27 171.33 78.32L171.39 78.38L171.40 78.39Q171.98 80.09 172.05 81.63L171.92 81.51L172.00 81.59Q172.15 85.83 170.48 87.62L170.50 87.63L170.34 87.47Q168.16 89.50 164.51 89.88L164.60 89.97L164.59 89.95Q163.09 90.12 161.98 90.00L161.88 89.90L161.88 89.91Q160.60 89.80 159.36 89.24L159.38 89.26L159.16 88.73L158.99 88.93L159.13 89.07Q157.68 88.12 156.81 85.95L156.90 86.04L156.81 85.95Q154.82 88.41 152.10 91.87L152.03 91.81L151.98 91.76Q152.51 92.84 153.87 94.39L153.89 94.41L153.77 94.29Q155.54 97.30 160.12 98.10L160.10 98.09L160.16 98.14Q162.11 98.54 170.83 98.73Z"/><path d="M8 53 C186 29,167 78,331 42" stroke="#59eca3" fill="none"/><path d="M8 69 C155 98,177 4,333 8" stroke="#9851e0" fill="none"/><path fill="#e83f69" d="M114.80 73.51L114.76 73.47L114.91 73.62Q116.09 73.50 118.38 73.25L118.41 73.28L118.43 73.30Q118.33 74.31 118.33 75.36L118.37 75.41L118.37 77.45L118.25 77.33Q117.00 77.44 115.63 77.56L115.58 77.51L115.66 77.59Q114.30 77.65 112.94 77.59L112.94 77.59L112.91 77.55Q108.29 87.60 102.73 95.09L102.71 95.07L102.69 95.05Q98.56 96.05 96.46 97.04L96.51 97.10L96.51 97.10Q103.27 87.90 108.22 77.69L108.16 77.63L103.92 77.66L103.97 77.71Q103.87 75.44 103.68 73.28L103.59 73.19L103.64 73.23Q106.84 73.59 110.18 73.59L110.20 73.61L113.22 67.53L113.22 67.54Q114.75 64.37 116.73 61.77L116.70 61.74L116.83 61.87Q114.18 62.00 111.59 62.00L111.56 61.98L111.57 61.99Q101.79 62.11 95.67 58.52L95.63 58.48L94.59 55.72L94.62 55.74Q93.96 54.27 93.34 52.85L93.48 52.99L93.41 52.92Q100.37 57.10 109.65 57.47L109.69 57.51L109.73 57.55Q118.08 57.92 126.43 54.70L126.47 54.74L126.45 54.72Q126.15 55.41 125.34 56.83L125.26 56.75L125.26 56.75Q119.55 64.65 114.91 73.62ZM128.00 59.12L127.92 59.04L129.56 55.79L129.62 55.85Q127.95 56.54 125.23 57.71L125.30 57.78L125.55 57.22L125.65 57.33Q125.77 57.01 125.95 56.82L125.89 56.76L125.95 56.82Q126.53 55.67 127.71 53.50L127.81 53.61L127.71 53.51Q119.03 57.20 109.69 56.83L109.78 56.92L109.68 56.82Q99.94 56.42 92.21 51.60L92.25 51.64L92.16 51.55Q94.00 54.75 95.36 59.08L95.31 59.03L95.22 58.94Q97.01 59.99 98.31 60.48L98.29 60.47L98.39 60.56Q98.65 61.14 99.40 64.17L99.29 64.06L99.26 64.03Q104.42 66.10 113.39 65.85L113.43 65.89L113.38 65.84Q112.87 66.75 109.65 72.88L109.81 73.04L109.65 72.87Q106.48 73.05 103.26 72.74L103.14 72.61L103.27 72.74Q103.37 74.08 103.37 75.50L103.34 75.48L103.30 78.21L106.01 78.20L106.11 80.59L106.07 80.56Q99.69 92.55 95.17 98.36L95.06 98.24L95.24 98.43Q97.66 97.01 100.32 96.20L100.48 96.36L100.45 96.34Q99.28 97.76 97.05 100.55L97.13 100.63L97.15 100.64Q102.17 98.74 106.13 98.37L106.21 98.45L106.12 98.36Q111.01 92.36 116.08 81.35L115.98 81.24L121.63 81.63L121.53 81.54Q121.44 80.09 121.44 78.60L121.45 78.61L121.36 75.62L121.46 75.71Q121.06 75.74 120.16 75.81L120.19 75.84L120.05 75.70Q119.28 75.89 118.85 75.89L118.80 75.84L118.73 75.77Q118.79 75.65 118.86 75.40L118.90 75.44L118.88 74.99L118.90 75.01Q122.97 66.64 127.98 59.10Z"/><path d="M17 43 C192 14,191 78,330 131" stroke="#d66e4c" fill="none"/><path d="M2 82 C187 45,156 48,337 79" stroke="#6ed64c" fill="none"/><path d="M3 93 C178 53,159 35,323 119" stroke="#7ae457" fill="none"/><path d="M2 135 C160 66,155 47,330 89" stroke="#9657d5" fill="none"/><path d="M16 108 C190 119,176 28,334 80" stroke="#e5e584" fill="none"/><path d="M14 24 C176 38,190 127,337 114" stroke="#eac451" fill="none"/><path d="M12 38 C179 42,162 103,321 102" stroke="#b74dda" fill="none"/><path d="M7 9 C151 48,152 55,333 11" stroke="#6fe0c4" fill="none"/><path d="M4 61 C155 122,159 68,340 28" stroke="#e0e06a" fill="none"/><path d="M17 99 C158 38,180 16,327 131" stroke="#e074e0" fill="none"/><path d="M5 139 C172 63,173 6,339 38" stroke="#e57aaf" fill="none"/><path d="M9 41 C162 122,165 31,323 81" stroke="#8d72de" fill="none"/><path d="M2 31 C171 96,170 55,338 95" stroke="#d69351" fill="none"/><path d="M15 91 C165 108,189 126,327 40" stroke="#89e5a0" fill="none"/><path d="M8 98 C181 135,156 40,334 44" stroke="#d75576" fill="none"/><path d="M9 126 C166 32,170 100,333 15" stroke="#e698ab" fill="none"/><path d="M19 60 C180 16,169 112,335 78" stroke="#62e884" fill="none"/><path d="M14 14 C184 119,154 64,340 94" stroke="#82ec9d" fill="none"/><path d="M7 49 C187 138,176 89,327 10" stroke="#5a98d7" fill="none"/><path d="M9 128 C162 41,168 136,330 120" stroke="#e259e2" fill="none"/><path d="M7 21 C191 111,191 44,336 27" stroke="#c575df" fill="none"/><path d="M6 15 C180 114,165 117,327 128" stroke="#4a4ae7" fill="none"/><path d="M11 94 C159 23,172 109,327 87" stroke="#ed77cf" fill="none"/></svg>