<svg xmlns="http://www.w3.org/2000/svg" width="342" height="140" viewBox="0,0,342,140"><path d="M3 10 C186 2,168 86,325 13" stroke="#6faae6" fill="none"/><path d="M4 35 C172 133,163 98,328 127" stroke="#3be6e6" fill="none"/><path d="M11 71 C179 111,171 97,338 78" stroke="#41dcb5" fill="none"/><path d="M12 104 C162 121,170 52,323 56" stroke="#df5c9e" fill="none"/><path d="M14 64 C167 57,192 56,333 130" stroke="#e5466e" fill="none"/><path d="M12 108 C168 95,173 130,327 80" stroke="#60dcbd" fill="none"/><path d="M11 55 C182 14,156 127,335 67" stroke="#e13b3b" fill="none"/><path d="M15 105 C172 129,161 69,325 137" stroke="#c8e07e" fill="none"/><path d="M16 52 C174 64,189 6,326 7" stroke="#c7e278" fill="none"/><path d="M20 90 C165 83,169 97,323 115" stroke="#456ee6" fill="none"/><path d="M3 66 C150 67,167 118,336 5" stroke="#4343e4" fill="none"/><path d="M21 63 C161 118,153 133,334 95" stroke="#ea4c4c" fill="none"/><path fill="#ad6feb" d="M62.98 77.02L62.99 77.03L63.00 77.04Q59.83 77.04 57.77 79.30L57.89 79.43L57.93 79.46Q55.67 81.53 55.41 84.76L55.50 84.85L55.59 84.94Q55.21 88.50 57.28 90.21L57.21 90.15L57.35 90.28Q59.23 91.81 62.85 91.68L62.98 91.82L62.97 91.81Q66.89 91.53 68.50 89.91L68.40 89.81L68.56 89.96Q70.24 87.45 70.04 84.35L70.04 84.34L70.00 84.31Q69.77 81.10 67.93 79.07L67.92 79.05L68.06 79.20Q66.12 77.07 63.03 77.07ZM62.92 61.01L63.00 61.10L62.95 61.04Q60.61 60.90 58.35 61.74L58.32 61.71L58.33 61.72Q56.21 63.15 56.60 66.31L56.45 66.16L56.55 66.26Q57.35 72.56 63.04 72.56L63.07 72.59L62.97 72.49Q65.68 72.88 67.36 70.94L67.49 71.07L67.37 70.96Q69.06 69.02 69.12 66.38L69.12 66.38L69.18 66.44Q69.33 63.48 68.10 62.45L68.13 62.47L68.09 62.44Q65.15 60.92 62.96 61.05ZM62.47 95.89L62.55 95.97L57.47 96.06L57.38 95.97Q54.71 95.88 52.45 94.39L52.52 94.47L52.57 94.51Q50.15 92.48 50.41 87.64L50.42 87.65L50.54 87.77Q51.27 76.10 57.41 74.43L57.39 74.40L57.33 74.35Q53.42 72.76 51.16 63.65L51.22 63.71L51.24 63.73Q50.62 61.30 50.75 59.95L50.79 59.99L50.76 59.96Q51.38 56.45 57.64 56.38L57.58 56.31L57.49 56.23Q64.67 56.11 67.12 56.43L67.24 56.55L67.12 56.43Q73.71 57.40 74.48 60.82L74.42 60.76L74.53 60.87Q74.69 61.86 74.69 62.51L74.77 62.60L74.60 62.42Q74.73 63.71 74.40 64.75L74.37 64.72L74.45 64.79Q73.40 71.94 68.43 74.53L68.38 74.48L68.26 74.36Q74.33 75.84 75.17 84.82L75.22 84.88L75.07 84.73Q75.23 85.15 75.30 87.34L75.11 87.15L75.24 87.29Q75.27 91.83 72.56 93.64L72.56 93.64L72.66 93.75Q70.21 95.10 62.46 95.88ZM66.51 99.99L66.34 99.82L72.17 100.10L72.08 100.01Q74.95 100.10 77.53 98.88L77.54 98.88L77.62 98.96Q79.58 97.75 79.71 94.59L79.65 94.54L79.74 94.63Q79.74 92.69 79.10 89.40L79.02 89.32L79.08 89.38Q77.55 81.52 74.00 78.36L74.07 78.43L73.75 77.78L73.28 77.18L73.14 76.86L73.15 76.87Q75.80 74.41 77.35 67.37L77.36 67.38L77.40 67.42Q77.36 66.73 77.49 65.31L77.52 65.34L77.46 65.28Q77.64 64.18 77.51 63.14L77.57 63.19L77.47 63.10Q77.20 60.64 75.20 59.80L75.35 59.95L75.41 59.94L74.99 59.65L75.07 59.73Q74.61 58.49 72.60 57.13L72.61 57.14L72.68 57.14L72.53 57.00Q69.19 55.86 62.28 55.53L62.27 55.52L62.43 55.67Q59.68 55.39 57.36 55.58L57.37 55.60L57.46 55.68Q56.02 55.67 53.83 55.93L53.87 55.97L53.81 55.90Q50.52 56.56 50.13 59.33L50.22 59.42L50.23 59.43Q50.15 60.25 50.21 61.61L50.10 61.50L50.14 61.54Q50.37 62.48 51.34 66.48L51.26 66.40L51.28 66.42Q52.67 71.94 55.64 74.20L55.56 74.13L55.84 74.40L55.79 74.36Q51.08 76.56 50.18 85.34L50.24 85.40L50.24 85.40Q49.83 89.06 49.83 90.61L49.75 90.53L49.74 90.52Q50.02 93.71 52.02 95.26L51.94 95.17L51.91 95.14Q52.11 95.28 52.57 95.61L52.68 95.73L52.65 95.70Q54.37 99.54 66.44 99.93ZM65.92 81.19L65.82 81.09L65.74 81.01Q67.47 81.07 68.96 81.84L68.96 81.84L68.78 81.66Q69.47 83.38 69.40 84.28L69.49 84.37L69.44 84.33Q69.49 84.83 69.49 85.34L69.45 85.30L69.57 85.43Q69.43 89.29 65.55 90.71L65.66 90.82L65.59 90.75Q64.38 91.40 63.02 91.21L62.98 91.17L62.92 91.11Q61.10 91.36 59.17 90.58L59.21 90.63L59.08 90.50Q58.63 89.40 58.76 87.72L58.75 87.71L58.88 87.84Q59.14 85.14 61.18 83.07L61.05 82.94L61.02 82.91Q63.12 80.91 65.83 81.11ZM66.29 65.09L66.22 65.02L66.16 64.96Q67.54 64.80 68.45 65.06L68.46 65.07L68.44 66.41L68.54 66.50Q68.49 68.85 66.94 70.56L66.95 70.57L66.95 70.57Q65.31 72.19 62.99 71.87L62.97 71.84L63.13 72.00Q61.47 72.03 60.76 71.64L60.71 71.59L60.64 71.52Q60.67 71.17 60.48 70.00L60.49 70.01L60.32 69.84Q60.05 67.63 62.11 66.21L62.12 66.22L61.99 66.09Q63.86 64.98 66.25 65.05Z"/><path d="M17 94 C157 49,169 33,324 100" stroke="#9476ee" fill="none"/><path d="M14 60 C159 40,183 10,327 130" stroke="#98e6d2" fill="none"/><path d="M6 110 C161 119,159 32,324 74" stroke="#79d2f0" fill="none"/><path d="M3 137 C157 51,174 118,339 100" stroke="#7ae5e5" fill="none"/><path d="M12 96 C179 99,173 113,337 86" stroke="#86d3ed" fill="none"/><path d="M19 35 C174 136,175 44,337 65" stroke="#ceeb79" fill="none"/><path d="M12 10 C190 90,151 91,331 35" stroke="#ea9e84" fill="none"/><path d="M13 128 C164 124,159 17,326 100" stroke="#6464e1" fill="none"/><path d="M19 47 C187 47,159 39,338 83" stroke="#62dede" fill="none"/><path d="M16 10 C183 78,160 98,329 31" stroke="#59d899" fill="none"/><path d="M20 86 C155 34,190 136,338 135" stroke="#a3e462" fill="none"/><path d="M14 76 C166 85,182 121,331 131" stroke="#e95c7f" fill="none"/><path d="M19 110 C156 36,154 34,340 118" stroke="#80cbe4" fill="none"/><path d="M17 67 C168 72,150 7,340 78" stroke="#e24f74" fill="none"/><path d="M17 54 C180 132,158 71,336 13" stroke="#e9e958" fill="none"/><path d="M8 44 C191 14,155 104,328 101" stroke="#4493e3" fill="none"/><path fill="#a564e6" d="M137.46 73.60L137.55 73.69L137.58 73.71Q138.90 73.67 141.29 73.42L141.28 73.41L141.28 73.41Q141.22 74.51 141.22 75.61L141.18 75.57L141.30 77.81L141.30 77.82Q139.90 77.84 138.48 77.97L138.37 77.86L138.48 77.97Q136.97 77.94 135.54 77.88L135.50 77.83L135.54 77.87Q130.64 88.28 124.83 96.09L124.86 96.12L124.93 96.19Q120.54 97.16 118.34 98.20L118.38 98.23L118.48 98.34Q125.38 88.57 130.54 77.91L130.64 78.01L126.11 77.94L126.21 78.04Q126.20 75.77 126.01 73.51L125.96 73.46L125.99 73.48Q129.15 73.68 132.64 73.68L132.55 73.59L135.97 67.52L135.91 67.46Q137.49 64.13 139.56 61.42L139.70 61.56L139.65 61.51Q136.88 61.65 134.17 61.65L134.18 61.66L134.19 61.67Q123.98 61.79 117.59 58.04L117.49 57.94L116.43 55.08L116.52 55.17Q115.76 53.57 115.11 52.09L115.19 52.17L115.15 52.12Q122.64 56.70 132.33 57.09L132.22 56.99L132.22 56.98Q141.04 57.47 149.76 54.11L149.59 53.95L149.67 54.03Q149.33 54.72 148.49 56.20L148.50 56.22L148.50 56.22Q142.32 64.25 137.48 73.61ZM151.23 58.56L151.27 58.60L152.91 55.14L152.99 55.21Q151.38 56.06 148.53 57.28L148.45 57.20L148.74 56.65L148.72 56.63Q148.90 56.36 149.10 56.17L149.17 56.24L149.09 56.16Q149.79 55.05 151.02 52.79L151.04 52.81L151.08 52.85Q142.09 56.78 132.34 56.39L132.19 56.24L132.20 56.25Q121.99 55.80 113.92 50.76L113.95 50.79L113.89 50.73Q115.65 53.91 117.07 58.43L117.17 58.53L117.09 58.45Q119.03 59.61 120.38 60.13L120.31 60.06L120.29 60.03Q120.63 60.70 121.41 63.87L121.46 63.92L121.46 63.92Q126.85 66.08 136.21 65.82L136.22 65.83L136.12 65.73Q135.64 66.74 132.29 73.13L132.17 73.01L132.19 73.04Q128.78 73.11 125.42 72.79L125.32 72.69L125.41 72.78Q125.49 74.15 125.49 75.64L125.56 75.71L125.45 78.50L128.42 78.63L128.29 80.89L128.46 81.06Q121.69 93.47 116.97 99.54L116.97 99.54L116.96 99.53Q119.73 98.29 122.51 97.45L122.45 97.39L122.53 97.47Q121.38 99.04 119.06 101.95L119.11 102.00L118.98 101.87Q124.37 100.02 128.50 99.63L128.59 99.72L128.48 99.62Q133.39 93.15 138.68 81.66L138.84 81.82L144.63 82.11L144.64 82.13Q144.52 80.58 144.52 79.03L144.43 78.95L144.55 76.03L144.47 75.95Q144.05 75.98 143.11 76.04L143.00 75.93L143.15 76.09Q142.10 76.03 141.65 76.03L141.60 75.99L141.65 76.04Q141.67 75.87 141.74 75.61L141.74 75.61L141.69 75.11L141.72 75.14Q146.04 66.48 151.27 58.60Z"/><path d="M11 133 C161 77,170 54,340 32" stroke="#4be64b" fill="none"/><path d="M17 68 C184 57,175 95,327 119" stroke="#ea57ea" fill="none"/><path fill="#4343e4" d="M199.01 77.05L198.93 76.97L198.92 76.96Q195.75 76.70 193.65 79.13L193.82 79.30L193.74 79.21Q191.53 81.53 191.21 84.75L191.38 84.93L191.39 84.93Q190.98 88.40 192.83 90.05L192.86 90.08L192.77 89.99Q194.59 91.62 198.15 91.43L198.14 91.42L198.10 91.39Q201.68 91.16 203.56 90.00L203.55 89.99L203.68 90.12Q205.59 88.22 205.59 85.57L205.58 85.56L205.48 85.47Q205.52 84.85 205.39 84.21L205.38 84.19L205.35 84.17Q205.56 81.40 203.68 79.11L203.74 79.17L203.56 78.99Q201.79 76.80 198.95 77.00ZM198.20 95.81L198.27 95.88L198.30 95.91Q190.76 95.80 188.37 94.51L188.49 94.63L188.31 94.44Q186.56 93.15 186.24 90.25L186.35 90.36L186.40 90.41Q186.21 89.12 186.27 87.89L186.28 87.90L186.25 87.87Q186.59 86.34 186.59 85.56L186.55 85.52L186.53 85.50Q187.39 80.74 187.65 79.58L187.57 79.50L187.62 79.55Q188.34 76.20 189.76 73.81L189.85 73.90L189.82 73.87Q194.30 66.41 204.38 55.62L204.35 55.59L204.38 55.62Q208.92 55.13 212.67 53.77L212.66 53.77L212.69 53.80Q200.93 66.32 195.51 73.49L195.56 73.54L195.65 73.63Q197.17 72.63 199.37 72.63L199.37 72.63L199.49 72.75Q205.08 72.73 207.66 76.02L207.67 76.02L207.72 76.07Q209.82 78.69 210.40 84.70L210.53 84.83L210.52 84.82Q210.72 86.11 210.72 87.15L210.70 87.13L210.54 86.97Q210.59 92.32 206.85 94.13L206.85 94.13L206.82 94.10Q204.77 95.15 198.19 95.80ZM202.00 99.81L202.19 100.00L202.12 99.93Q204.23 99.78 207.59 99.91L207.61 99.92L207.71 100.02Q210.37 100.04 213.02 98.81L213.08 98.88L213.09 98.88Q214.94 97.50 214.94 94.47L214.97 94.50L214.98 94.51Q214.93 93.62 214.64 91.94L214.71 92.01L214.68 91.98Q214.33 90.25 214.33 89.47L214.31 89.45L214.45 89.59Q212.97 81.58 210.26 78.36L210.07 78.17L210.26 78.36Q210.03 78.06 209.77 77.68L209.77 77.67L209.23 77.26L209.07 77.17L209.04 77.14Q208.57 76.41 207.54 74.80L207.44 74.70L207.43 74.69Q205.95 73.15 202.60 72.37L202.68 72.46L202.67 72.45Q204.71 69.70 209.74 63.44L209.79 63.49L216.93 54.49L216.89 54.44Q214.33 56.01 210.26 57.30L210.25 57.30L210.12 57.17Q211.66 55.48 214.69 52.12L214.72 52.14L214.69 52.11Q210.75 54.05 204.17 55.02L204.01 54.86L204.06 54.92Q194.34 64.90 189.30 73.29L189.37 73.36L189.42 73.40Q186.71 77.54 185.74 88.13L185.75 88.14L185.81 88.20Q185.76 89.25 185.89 90.86L185.90 90.88L185.84 90.81Q185.92 93.74 187.79 95.29L187.87 95.36L187.85 95.34Q188.38 95.49 188.32 95.55L188.33 95.57L188.49 95.72Q189.12 97.26 190.48 97.97L190.48 97.98L190.50 97.99Q192.95 99.15 196.24 99.47L196.07 99.30L196.09 99.32Q196.23 99.46 202.17 99.98ZM201.79 80.93L201.71 80.86L201.69 80.83Q202.61 80.59 204.22 81.43L204.36 81.57L204.24 81.45Q204.79 83.02 204.79 84.12L204.79 84.12L204.92 84.25Q205.23 87.41 203.62 89.09L203.51 88.98L203.62 89.09Q201.78 90.28 198.22 90.80L198.26 90.84L198.16 90.74Q195.77 90.80 194.87 90.35L194.91 90.39L194.83 90.31Q194.56 89.59 194.56 89.08L194.55 89.07L194.53 89.04Q194.19 83.54 199.17 81.35L199.21 81.39L199.06 81.24Q200.47 80.78 201.77 80.91Z"/><path d="M12 24 C188 65,176 16,323 23" stroke="#d183eb" fill="none"/><path d="M9 56 C171 109,176 34,324 61" stroke="#53d473" fill="none"/><path d="M18 34 C190 108,158 102,329 120" stroke="#88ebeb" fill="none"/><path d="M10 94 C152 29,181 15,337 56" stroke="#dede71" fill="none"/><path d="M6 119 C169 84,184 24,327 51" stroke="#a3dd69" fill="none"/><path d="M10 3 C174 67,182 60,324 111" stroke="#9859d8" fill="none"/><path fill="#e56faa" d="M262.64 96.16L262.52 96.04L262.50 96.02Q255.76 96.58 254.08 92.64L253.97 92.52L253.91 92.47Q255.31 90.96 257.96 87.93L257.85 87.81L257.98 87.95Q258.70 91.25 263.80 91.45L263.87 91.51L263.96 91.60Q269.53 91.56 272.31 89.30L272.46 89.45L272.47 89.45Q274.78 86.66 274.65 82.08L274.62 82.05L274.72 82.15Q274.36 73.46 266.23 73.85L266.16 73.78L266.15 73.78Q261.51 74.17 258.54 76.30L258.58 76.35L257.86 75.88L257.55 75.70L257.68 75.83Q258.08 70.29 257.89 65.64L258.05 65.80L258.01 65.76Q257.72 61.21 257.14 55.59L257.15 55.60L257.11 55.57Q263.42 57.29 269.88 57.09L269.87 57.09L269.83 57.05Q276.42 57.04 282.49 54.91L282.38 54.81L281.53 57.51L281.52 57.49Q280.84 58.62 280.52 60.04L280.56 60.09L280.66 60.19Q275.36 61.92 268.77 61.92L268.68 61.84L268.73 61.88Q266.33 61.94 263.81 61.68L263.65 61.52L263.69 61.56Q263.55 62.71 262.96 70.26L262.93 70.23L263.03 70.33Q264.48 69.58 267.97 69.32L267.96 69.32L267.91 69.27Q274.28 69.70 276.74 72.54L276.73 72.53L276.63 72.43Q278.99 75.05 279.44 81.57L279.49 81.63L279.50 81.63Q279.93 88.72 277.86 92.14L277.96 92.24L277.91 92.18Q274.42 95.35 268.80 95.74L268.76 95.69L268.82 95.75Q267.05 95.79 262.53 96.05ZM272.94 100.06L272.89 100.02L272.78 99.91Q278.64 100.08 281.87 98.21L281.91 98.25L281.97 98.31Q283.49 95.57 283.49 92.02L283.58 92.11L283.59 92.11Q283.58 86.87 281.96 79.90L281.92 79.85L281.89 79.82Q281.33 76.94 279.27 74.56L279.14 74.43L279.31 74.66L278.91 74.13L278.38 73.86L278.24 73.72Q277.72 72.49 276.62 71.33L276.62 71.32L276.73 71.50L276.64 71.41Q274.22 68.74 267.96 68.74L267.81 68.59L267.42 68.65L267.41 68.64Q267.60 67.73 267.92 65.86L267.85 65.78L267.81 65.74Q276.41 66.08 283.25 63.30L283.17 63.21L283.24 63.29Q283.82 60.76 285.43 55.98L285.45 56.00L281.97 57.68L281.94 57.66Q282.54 55.68 283.38 53.74L283.44 53.80L283.45 53.81Q276.91 56.24 269.93 56.37L269.91 56.35L269.97 56.41Q262.93 56.53 256.21 54.66L256.25 54.70L256.27 54.72Q257.39 62.17 257.39 69.66L257.35 69.62L257.50 69.77Q257.34 72.84 257.15 76.07L257.18 76.11L257.15 76.07Q257.61 76.40 258.58 76.92L258.69 77.03L258.72 77.07Q259.14 76.51 260.23 75.93L260.38 76.08L260.24 75.93Q260.22 77.27 259.83 79.85L259.83 79.85L259.96 79.98Q260.56 80.20 261.27 80.59L261.25 80.56L261.26 80.57Q265.94 77.56 269.10 77.56L269.21 77.67L269.24 77.70Q271.35 77.55 273.35 78.65L273.44 78.73L273.39 78.69Q274.04 80.50 274.11 82.12L274.07 82.08L274.15 82.16Q274.30 86.57 272.55 88.44L272.45 88.34L272.51 88.40Q270.06 90.34 266.25 90.73L266.29 90.76L266.29 90.76Q264.62 90.84 263.46 90.71L263.48 90.73L263.56 90.82Q262.17 90.65 260.88 90.07L260.88 90.07L260.71 89.58L260.66 89.92L260.62 89.87Q259.25 89.03 258.35 86.77L258.36 86.78L258.31 86.72Q256.06 89.13 253.22 92.75L253.29 92.81L253.28 92.80Q253.70 93.80 255.12 95.42L255.12 95.42L255.04 95.35Q257.04 98.63 261.82 99.47L261.75 99.40L261.64 99.29Q263.82 99.86 272.92 100.05Z"/><path d="M8 47 C180 53,166 113,332 54" stroke="#df5299" fill="none"/><path d="M12 64 C166 37,156 17,329 35" stroke="#e26ee2" fill="none"/><path d="M21 54 C177 22,163 75,333 126" stroke="#4f98e2" fill="none"/><path d="M16 81 C158 134,162 95,322 74" stroke="#72c3de" fill="none"/></svg>