<svg xmlns="http://www.w3.org/2000/svg" width="342" height="140" viewBox="0,0,342,140"><path d="M3 108 C172 58,174 102,326 54" stroke="#cce976" fill="none"/><path d="M15 109 C168 134,174 94,335 81" stroke="#e457e4" fill="none"/><path d="M4 85 C158 13,173 104,331 132" stroke="#e282e2" fill="none"/><path d="M10 100 C158 116,181 75,338 1" stroke="#e5cd84" fill="none"/><path fill="#ef8e8e" d="M137.48 73.57L137.51 73.60L137.46 73.55Q138.79 73.54 141.12 73.29L141.09 73.26L141.23 73.40Q141.21 74.51 141.21 75.59L141.15 75.53L141.09 77.56L141.14 77.60Q139.81 77.67 138.42 77.79L138.25 77.62L138.40 77.78Q137.04 77.86 135.64 77.80L135.50 77.66L135.57 77.72Q130.77 87.91 125.08 95.56L125.08 95.56L125.03 95.51Q120.96 96.69 118.81 97.70L118.86 97.75L118.79 97.68Q125.73 88.30 130.78 77.87L130.61 77.70L126.32 77.77L126.34 77.79Q126.37 75.60 126.18 73.39L126.23 73.44L126.05 73.26Q129.32 73.63 132.74 73.63L132.77 73.66L135.79 67.39L135.78 67.38Q137.56 64.36 139.59 61.70L139.58 61.70L139.47 61.58Q137.01 61.97 134.36 61.97L134.30 61.91L134.28 61.89Q124.25 61.98 117.99 58.32L117.85 58.17L116.92 55.48L116.92 55.47Q116.36 54.09 115.73 52.64L115.59 52.50L115.66 52.56Q122.81 56.87 132.29 57.25L132.40 57.36L132.31 57.27Q140.92 57.72 149.45 54.43L149.47 54.45L149.33 54.31Q149.15 55.14 148.33 56.60L148.34 56.61L148.29 56.56Q142.27 64.45 137.53 73.61ZM150.86 58.75L150.96 58.85L152.61 55.50L152.63 55.52Q151.07 56.37 148.29 57.57L148.19 57.47L148.61 57.07L148.45 56.91Q148.65 56.67 148.84 56.48L148.81 56.45L148.84 56.48Q149.56 55.43 150.76 53.21L150.76 53.22L150.66 53.11Q141.81 56.91 132.27 56.53L132.26 56.52L132.34 56.60Q122.29 56.10 114.39 51.17L114.38 51.17L114.46 51.24Q116.14 54.32 117.54 58.74L117.62 58.83L117.57 58.78Q119.36 59.81 120.69 60.32L120.72 60.35L120.63 60.26Q120.96 60.91 121.72 64.00L121.80 64.08L121.75 64.04Q127.03 66.15 136.20 65.90L136.09 65.79L136.04 65.74Q135.70 66.86 132.42 73.12L132.37 73.07L132.36 73.06Q128.95 73.06 125.66 72.75L125.61 72.70L125.59 72.67Q125.71 74.06 125.71 75.52L125.85 75.66L125.72 78.37L128.48 78.35L128.49 80.70L128.50 80.71Q122.11 93.10 117.50 99.04L117.45 98.99L117.50 99.05Q120.03 97.66 122.75 96.84L122.75 96.84L122.87 96.96Q121.69 98.42 119.41 101.27L119.47 101.33L119.32 101.18Q124.62 99.40 128.67 99.02L128.67 99.03L128.69 99.05Q133.59 92.82 138.78 81.57L138.77 81.56L144.43 81.84L144.32 81.73Q144.24 80.26 144.24 78.75L144.37 78.88L144.19 75.73L144.28 75.82Q143.87 75.84 142.95 75.91L142.93 75.88L142.97 75.93Q141.98 75.92 141.54 75.92L141.59 75.97L141.63 76.01Q141.59 75.78 141.65 75.53L141.65 75.53L141.71 75.14L141.53 74.96Q145.86 66.58 150.98 58.87Z"/><path d="M8 82 C187 87,184 120,323 13" stroke="#70e24a" fill="none"/><path d="M18 109 C175 38,159 34,335 129" stroke="#7ce8e8" fill="none"/><path d="M9 76 C164 19,163 83,324 102" stroke="#7fefef" fill="none"/><path d="M21 12 C173 51,155 7,335 32" stroke="#e78cd0" fill="none"/><path d="M12 56 C172 51,179 89,324 7" stroke="#86d0e8" fill="none"/><path d="M21 123 C189 139,164 138,324 125" stroke="#e88bba" fill="none"/><path d="M9 53 C165 68,177 58,334 122" stroke="#ee7676" fill="none"/><path d="M12 67 C177 136,154 8,324 17" stroke="#baec87" fill="none"/><path d="M14 75 C180 137,152 104,337 78" stroke="#52e452" fill="none"/><path d="M15 57 C164 52,183 112,338 52" stroke="#95aae9" fill="none"/><path fill="#977ee1" d="M267.32 61.15L267.22 61.05L264.60 61.21L264.74 61.35Q260.93 61.46 260.55 64.81L260.60 64.85L260.62 64.88Q260.46 66.05 260.53 67.70L260.45 67.62L260.57 67.74Q260.64 70.97 262.73 73.18L262.66 73.11L262.62 73.08Q264.68 75.26 267.84 75.01L267.93 75.10L267.83 74.99Q271.30 74.80 272.56 73.28L272.62 73.34L272.55 73.27Q274.28 71.71 274.72 67.98L274.77 68.03L274.81 68.06Q275.18 64.27 273.10 62.88L273.13 62.91L273.16 62.94Q271.65 61.56 267.22 61.05ZM277.24 76.37L277.26 76.40L275.19 80.27L275.23 80.31Q270.68 88.21 264.42 94.98L264.46 95.02L264.36 94.92Q261.64 95.17 257.15 96.50L257.20 96.54L257.17 96.52Q265.98 86.04 271.22 78.07L271.28 78.14L271.26 78.11Q269.54 79.18 266.82 79.30L266.83 79.31L266.83 79.30Q261.92 79.64 259.39 76.35L259.29 76.26L259.34 76.31Q257.39 73.72 255.55 66.14L255.44 66.02L255.56 66.14Q255.46 65.28 255.20 63.73L255.21 63.73L255.20 63.72Q254.95 62.18 254.95 61.42L255.06 61.53L255.05 61.52Q255.09 58.59 256.86 57.58L256.83 57.55L256.74 57.45Q258.81 56.24 261.91 56.24L261.96 56.30L261.80 56.14Q267.17 56.19 267.17 56.19L267.11 56.13L267.18 56.20Q270.79 56.27 272.88 56.59L272.79 56.50L272.79 56.50Q276.51 57.13 278.03 57.95L277.96 57.88L277.90 57.82Q280.25 59.15 280.56 62.06L280.57 62.07L280.56 62.06Q280.56 62.43 280.24 66.86L280.31 66.93L280.15 66.77Q279.56 70.35 279.18 71.74L279.21 71.77L279.13 71.69Q278.64 74.18 277.38 76.52ZM280.54 80.50L280.50 80.46L280.45 80.41Q282.15 76.80 283.03 69.65L283.09 69.71L283.06 69.68Q283.49 66.00 283.42 64.54L283.36 64.48L283.35 64.47Q283.34 61.43 281.38 59.91L281.26 59.79L280.79 59.63L280.80 59.64Q280.46 58.48 278.94 57.41L278.97 57.44L278.94 57.41Q275.05 55.66 267.08 55.41L267.18 55.51L267.15 55.48Q265.63 55.53 261.58 55.53L261.46 55.41L261.53 55.49Q258.58 55.44 256.11 56.58L256.07 56.54L256.09 56.55Q254.27 57.96 254.39 60.99L254.45 61.05L254.28 60.88Q254.59 62.39 254.91 65.74L254.93 65.76L255.07 65.91Q255.92 70.11 256.37 71.50L256.52 71.65L256.55 71.68Q257.31 74.59 258.89 76.74L259.02 76.87L259.05 76.91Q259.38 77.36 260.02 77.99L260.03 78.01L260.14 78.12Q260.43 78.73 261.51 80.24L261.49 80.22L261.63 80.37Q263.96 82.51 267.18 82.82L267.34 82.98L267.25 82.88Q264.16 87.39 261.57 90.55L261.45 90.43L255.40 97.66L255.59 97.84Q259.32 96.59 262.04 96.02L262.02 95.99L261.87 95.84Q260.66 97.35 258.07 100.20L258.13 100.25L257.99 100.12Q263.18 98.67 268.36 98.60L268.32 98.57L268.31 98.55Q272.18 94.27 279.39 82.25L279.42 82.28L279.38 82.38L279.47 82.47Q279.93 81.28 280.50 80.46ZM270.44 65.03L270.46 65.04L270.56 65.15Q271.53 64.92 272.29 65.11L272.16 64.98L272.32 65.13Q273.31 65.24 273.95 65.43L273.98 65.47L274.00 65.49Q274.13 66.06 274.25 66.75L274.26 66.76L274.18 66.68Q274.48 67.55 274.29 68.18L274.22 68.11L274.25 68.14Q274.13 70.92 272.17 72.76L272.16 72.75L272.21 72.81Q270.69 74.57 267.97 74.50L267.90 74.44L267.80 74.34Q267.17 74.40 264.64 73.89L264.71 73.97L264.67 73.93Q264.31 72.49 264.31 71.29L264.22 71.19L264.30 71.28Q264.25 70.91 264.25 70.53L264.21 70.49L264.14 70.42Q264.13 66.74 267.92 65.41L267.86 65.35L267.87 65.37Q269.12 65.10 270.51 65.10Z"/><path d="M9 131 C179 28,172 109,324 127" stroke="#b784ea" fill="none"/><path fill="#b7e48a" d="M63.25 77.04L63.09 76.88L63.17 76.96Q60.06 76.95 58.03 79.16L58.11 79.24L58.10 79.22Q55.97 81.33 55.72 84.49L55.74 84.52L55.82 84.60Q55.47 88.10 57.49 89.78L57.57 89.85L57.38 89.67Q59.46 91.39 63.00 91.26L62.96 91.23L62.97 91.24Q66.86 91.02 68.44 89.44L68.48 89.48L68.43 89.43Q70.10 86.99 69.91 83.96L69.90 83.95L70.07 84.12Q69.90 81.03 68.09 79.04L68.08 79.02L67.98 78.92Q66.22 76.98 63.19 76.98ZM63.05 61.23L63.06 61.24L63.00 61.18Q60.70 61.03 58.49 61.85L58.57 61.93L58.59 61.95Q56.36 63.20 56.74 66.30L56.79 66.35L56.72 66.28Q57.61 72.54 63.17 72.54L63.07 72.44L63.17 72.53Q65.76 72.85 67.40 70.95L67.50 71.05L67.39 70.94Q69.14 69.14 69.20 66.55L69.12 66.47L69.07 66.42Q69.29 63.61 68.09 62.60L67.99 62.50L67.94 62.45Q65.16 61.06 63.01 61.18ZM62.56 95.32L62.75 95.51L57.52 95.33L57.61 95.42Q55.04 95.38 52.83 93.93L52.80 93.90L52.81 93.91Q50.55 92.03 50.80 87.29L50.78 87.26L50.89 87.38Q51.55 75.90 57.56 74.26L57.63 74.33L57.55 74.25Q53.82 72.79 51.60 63.88L51.62 63.89L51.65 63.92Q51.06 61.56 51.19 60.24L51.16 60.21L51.14 60.19Q51.66 56.66 57.79 56.60L57.73 56.54L57.84 56.65Q64.75 56.41 67.15 56.73L67.17 56.75L67.14 56.72Q73.54 57.62 74.30 60.97L74.37 61.04L74.37 61.03Q74.63 62.12 74.63 62.75L74.46 62.58L74.48 62.60Q74.48 63.74 74.16 64.75L74.18 64.77L74.26 64.85Q73.13 71.74 68.26 74.27L68.28 74.30L68.42 74.44Q74.22 75.74 75.04 84.53L75.06 84.55L75.01 84.50Q74.90 84.64 74.96 86.79L74.96 86.79L75.09 86.92Q75.24 91.49 72.58 93.27L72.49 93.17L72.44 93.12Q70.18 94.60 62.60 95.35ZM66.40 99.22L66.44 99.27L72.06 99.44L71.97 99.36Q74.88 99.55 77.41 98.34L77.44 98.38L77.45 98.39Q79.29 97.13 79.42 94.03L79.36 93.98L79.51 94.12Q79.44 92.16 78.81 88.93L78.81 88.94L78.81 88.93Q77.30 81.23 73.82 78.13L73.84 78.14L73.60 77.60L73.31 77.18L72.94 76.62L72.88 76.55Q75.72 74.40 77.24 67.51L77.17 67.44L77.30 67.57Q77.28 66.92 77.41 65.53L77.34 65.46L77.28 65.41Q77.47 64.33 77.35 63.32L77.30 63.28L77.28 63.26Q77.06 60.88 75.10 60.06L75.21 60.17L75.12 60.02L74.82 59.84L74.80 59.83Q74.32 58.59 72.36 57.26L72.55 57.45L72.61 57.44L72.44 57.28Q69.33 56.31 62.56 56.00L62.44 55.88L62.40 55.84Q59.94 55.78 57.67 55.97L57.57 55.87L57.67 55.97Q56.21 55.90 54.06 56.16L54.15 56.25L54.11 56.21Q50.85 56.80 50.47 59.52L50.48 59.53L50.59 59.64Q50.38 60.31 50.44 61.64L50.61 61.81L50.52 61.72Q50.75 62.65 51.70 66.57L51.69 66.56L51.57 66.44Q53.00 71.91 55.91 74.13L55.91 74.13L56.08 74.30L56.03 74.25Q51.50 76.48 50.61 85.08L50.54 85.00L50.61 85.07Q50.28 88.73 50.28 90.25L50.16 90.13L50.29 90.25Q50.30 93.11 52.26 94.63L52.34 94.71L52.22 94.59Q52.47 94.78 52.91 95.09L52.87 95.05L52.92 95.10Q54.61 98.88 66.44 99.26ZM65.90 80.89L65.85 80.84L65.79 80.78Q67.40 80.75 68.85 81.51L68.80 81.46L68.92 81.57Q69.47 83.13 69.40 84.02L69.51 84.12L69.33 83.95Q69.47 84.52 69.47 85.03L69.41 84.97L69.52 85.08Q69.43 88.91 65.63 90.30L65.73 90.39L65.64 90.31Q64.34 90.84 63.01 90.65L63.02 90.65L63.01 90.65Q61.27 90.93 59.38 90.17L59.41 90.20L59.27 90.07Q58.94 89.10 59.06 87.46L59.03 87.42L59.05 87.44Q59.20 84.69 61.19 82.66L61.24 82.71L61.14 82.62Q63.19 80.65 65.85 80.84ZM66.22 65.09L66.20 65.07L66.17 65.04Q67.60 64.96 68.49 65.21L68.48 65.21L68.46 66.51L68.47 66.52Q68.44 68.83 66.92 70.50L66.99 70.57L67.02 70.61Q65.40 72.17 63.12 71.86L63.15 71.88L63.20 71.93Q61.47 71.85 60.78 71.47L60.83 71.52L60.88 71.57Q60.74 71.05 60.55 69.92L60.52 69.88L60.64 70.01Q60.13 67.60 62.15 66.21L62.15 66.20L62.24 66.29Q63.85 65.00 66.19 65.06Z"/><path d="M15 58 C153 129,160 123,321 36" stroke="#efd27a" fill="none"/><path d="M5 72 C154 47,159 45,323 135" stroke="#e386b5" fill="none"/><path d="M10 86 C170 50,190 22,334 104" stroke="#e1c05a" fill="none"/><path d="M20 105 C168 55,186 116,324 27" stroke="#dede48" fill="none"/><path d="M9 101 C155 56,176 10,328 133" stroke="#a8e967" fill="none"/><path d="M5 41 C154 27,190 96,338 72" stroke="#eab57f" fill="none"/><path d="M8 133 C191 89,189 6,322 63" stroke="#5fd79b" fill="none"/><path d="M18 18 C187 30,182 55,340 41" stroke="#5ea3e8" fill="none"/><path d="M21 111 C161 30,181 21,331 15" stroke="#ef7fef" fill="none"/><path d="M7 83 C181 102,166 81,338 39" stroke="#5f5fe1" fill="none"/><path d="M21 128 C171 47,153 13,338 19" stroke="#e27878" fill="none"/><path d="M11 74 C182 122,183 28,333 95" stroke="#8cbced" fill="none"/><path d="M20 87 C177 11,177 76,329 69" stroke="#d97c5d" fill="none"/><path d="M3 134 C155 24,174 24,335 35" stroke="#e38a6d" fill="none"/><path d="M7 26 C168 138,178 92,332 92" stroke="#dd4f4f" fill="none"/><path d="M15 82 C185 71,162 30,339 44" stroke="#47eac1" fill="none"/><path d="M4 22 C155 106,187 83,323 60" stroke="#e44d99" fill="none"/><path d="M6 62 C156 44,162 118,336 63" stroke="#de9348" fill="none"/><path d="M2 24 C170 114,171 59,324 32" stroke="#3fbee8" fill="none"/><path d="M15 32 C191 117,170 123,321 38" stroke="#eb60c8" fill="none"/><path d="M3 68 C190 34,189 132,335 41" stroke="#d968a0" fill="none"/><path d="M5 118 C172 27,167 76,341 123" stroke="#529be4" fill="none"/><path d="M21 104 C175 122,175 98,339 130" stroke="#e55656" fill="none"/><path d="M3 31 C191 82,163 7,340 27" stroke="#6969e7" fill="none"/><path d="M6 22 C162 35,168 115,339 128" stroke="#67e467" fill="none"/><path fill="#7c98ed" d="M199.00 76.79L198.96 76.75L199.12 76.92Q196.00 76.64 193.95 79.01L194.00 79.06L193.90 78.96Q191.97 81.46 191.65 84.62L191.57 84.53L191.50 84.47Q191.27 88.03 193.07 89.64L193.05 89.61L193.07 89.64Q194.83 91.20 198.30 91.01L198.20 90.91L198.20 90.91Q201.82 90.80 203.65 89.66L203.57 89.58L203.69 89.70Q205.41 87.69 205.41 85.10L205.52 85.21L205.55 85.24Q205.51 84.56 205.38 83.93L205.26 83.81L205.34 83.89Q205.46 81.10 203.63 78.86L203.63 78.86L203.73 78.96Q201.75 76.57 198.97 76.76ZM198.40 95.35L198.39 95.34L198.40 95.35Q191.03 95.25 188.69 93.98L188.66 93.95L188.64 93.93Q187.08 92.81 186.76 89.97L186.73 89.94L186.73 89.94Q186.59 88.73 186.66 87.52L186.64 87.51L186.67 87.54Q186.99 86.03 186.99 85.27L186.90 85.17L186.81 85.09Q187.57 80.35 187.83 79.21L187.90 79.28L187.94 79.33Q188.74 76.14 190.13 73.81L190.13 73.80L189.98 73.65Q194.52 66.49 204.38 55.93L204.40 55.96L204.34 55.89Q208.82 55.44 212.48 54.11L212.50 54.13L212.39 54.02Q201.14 66.54 195.83 73.55L195.81 73.54L195.70 73.43Q197.31 72.57 199.46 72.57L199.50 72.62L199.56 72.67Q204.95 72.56 207.48 75.79L207.48 75.79L207.56 75.86Q209.83 78.65 210.40 84.53L210.28 84.40L210.34 84.46Q210.49 85.69 210.49 86.70L210.41 86.62L210.45 86.66Q210.39 91.79 206.73 93.56L206.86 93.69L206.91 93.74Q204.82 94.69 198.37 95.32ZM202.18 99.31L202.05 99.19L202.23 99.36Q204.26 99.19 207.55 99.31L207.52 99.29L207.48 99.24Q210.25 99.42 212.84 98.21L212.98 98.35L212.92 98.29Q214.69 96.91 214.69 93.94L214.76 94.00L214.69 93.93Q214.78 93.20 214.50 91.56L214.35 91.41L214.39 91.45Q214.07 89.77 214.07 89.02L214.13 89.07L214.09 89.04Q212.70 81.26 210.05 78.10L209.96 78.02L210.00 78.05Q209.84 77.84 209.59 77.46L209.67 77.53L209.17 77.16L208.93 76.99L208.94 77.00Q208.41 76.21 207.40 74.63L207.49 74.72L207.47 74.70Q205.84 73.01 202.55 72.25L202.69 72.38L202.70 72.39Q204.63 69.65 209.57 63.52L209.67 63.63L216.70 54.85L216.58 54.73Q213.95 56.15 209.97 57.41L210.12 57.57L210.03 57.47Q211.55 55.84 214.53 52.55L214.53 52.56L214.61 52.63Q210.63 54.41 204.18 55.36L204.14 55.31L204.11 55.29Q194.67 65.13 189.74 73.35L189.70 73.31L189.74 73.35Q187.18 77.49 186.23 87.86L186.24 87.86L186.21 87.84Q186.09 88.79 186.22 90.37L186.29 90.45L186.16 90.31Q186.31 93.25 188.15 94.77L188.11 94.73L188.06 94.68Q188.80 95.04 188.74 95.10L188.68 95.04L188.69 95.06Q189.31 96.56 190.63 97.25L190.78 97.40L190.78 97.40Q193.17 98.52 196.39 98.84L196.22 98.67L196.26 98.71Q196.25 98.69 202.06 99.20ZM201.70 80.56L201.72 80.59L201.70 80.56Q202.78 80.50 204.36 81.32L204.37 81.34L204.25 81.22Q204.79 82.77 204.79 83.85L204.84 83.89L204.79 83.84Q205.22 87.06 203.64 88.70L203.60 88.66L203.67 88.73Q201.85 89.88 198.37 90.39L198.31 90.33L198.39 90.41Q195.90 90.32 195.02 89.88L195.14 90.00L195.06 89.92Q194.74 89.16 194.74 88.66L194.68 88.59L194.73 88.65Q194.45 83.30 199.32 81.15L199.32 81.15L199.21 81.05Q200.58 80.59 201.85 80.71Z"/></svg>