<svg xmlns="http://www.w3.org/2000/svg" width="342" height="140" viewBox="0,0,342,140"><path d="M11 19 C181 68,153 27,338 40" stroke="#859ee9" fill="none"/><path d="M7 112 C185 108,160 96,327 17" stroke="#6767e4" fill="none"/><path d="M19 79 C181 4,168 76,338 31" stroke="#e25ea0" fill="none"/><path d="M8 109 C188 58,164 79,325 9" stroke="#ed6262" fill="none"/><path d="M15 86 C192 108,180 57,330 47" stroke="#eb92eb" fill="none"/><path d="M3 38 C156 36,176 14,324 82" stroke="#9be084" fill="none"/><path d="M6 57 C153 108,188 76,338 50" stroke="#8be38b" fill="none"/><path d="M1 93 C169 62,179 74,341 5" stroke="#dd64be" fill="none"/><path d="M2 96 C163 62,179 53,323 110" stroke="#e36262" fill="none"/><path d="M9 81 C176 16,163 73,331 53" stroke="#6eec8d" fill="none"/><path d="M14 84 C179 15,169 43,334 79" stroke="#e655c2" fill="none"/><path d="M12 87 C178 7,152 133,330 86" stroke="#df43b8" fill="none"/><path d="M14 10 C169 114,162 137,338 66" stroke="#d7b345" fill="none"/><path d="M11 38 C165 130,186 49,324 71" stroke="#ed8968" fill="none"/><path d="M19 23 C170 137,155 77,341 40" stroke="#e16f6f" fill="none"/><path d="M12 50 C179 55,192 29,323 71" stroke="#93df47" fill="none"/><path d="M8 36 C185 4,152 82,327 48" stroke="#47df47" fill="none"/><path d="M14 136 C192 78,169 36,334 69" stroke="#b2e480" fill="none"/><path d="M19 135 C165 94,166 88,331 119" stroke="#55d755" fill="none"/><path d="M7 43 C160 56,169 94,324 89" stroke="#6ddda5" fill="none"/><path d="M13 65 C164 112,181 33,331 63" stroke="#df3e66" fill="none"/><path fill="#97e17e" d="M114.87 73.76L114.97 73.86L114.87 73.76Q116.31 73.79 118.80 73.52L118.78 73.50L118.93 73.64Q118.83 74.76 118.83 75.90L118.77 75.84L118.86 78.15L118.81 78.10Q117.21 77.98 115.73 78.11L115.77 78.16L115.81 78.20Q114.37 78.31 112.89 78.24L112.78 78.13L112.89 78.24Q107.88 89.18 101.83 97.33L101.82 97.31L101.70 97.20Q97.24 98.32 94.95 99.40L95.04 99.49L95.10 99.55Q102.38 89.47 107.76 78.36L107.63 78.22L103.07 78.31L102.96 78.20Q103.09 75.98 102.89 73.62L102.75 73.48L102.80 73.53Q106.26 73.89 109.89 73.89L109.78 73.78L113.24 67.35L113.15 67.26Q115.00 63.99 117.15 61.17L117.06 61.08L117.19 61.20Q114.29 61.33 111.46 61.33L111.49 61.36L111.42 61.29Q100.72 61.36 94.06 57.46L94.04 57.43L92.97 54.48L92.89 54.41Q92.40 53.03 91.72 51.49L91.60 51.36L91.69 51.45Q99.36 56.09 109.45 56.49L109.44 56.49L109.47 56.51Q118.58 56.94 127.67 53.44L127.52 53.30L127.58 53.36Q127.31 54.16 126.43 55.71L126.42 55.70L126.32 55.60Q120.05 64.14 115.01 73.89ZM129.18 58.05L129.31 58.19L131.01 54.57L131.01 54.57Q129.22 55.33 126.26 56.61L126.28 56.63L126.70 56.17L126.59 56.07Q126.81 55.82 127.01 55.61L127.12 55.72L127.12 55.73Q127.73 54.44 129.00 52.09L129.11 52.20L129.07 52.15Q119.65 56.19 109.48 55.79L109.43 55.73L109.38 55.68Q98.72 55.19 90.31 49.94L90.41 50.04L90.33 49.96Q92.25 53.35 93.73 58.07L93.68 58.02L93.59 57.93Q95.71 59.25 97.13 59.78L97.11 59.77L97.01 59.67Q97.33 60.32 98.13 63.62L98.16 63.65L98.14 63.63Q103.75 65.87 113.51 65.60L113.39 65.48L113.55 65.64Q112.91 66.55 109.41 73.21L109.43 73.23L109.52 73.32Q105.84 73.27 102.34 72.93L102.36 72.96L102.34 72.93Q102.53 74.47 102.53 76.02L102.48 75.97L102.49 79.01L105.37 78.93L105.39 81.44L105.29 81.34Q98.41 94.45 93.50 100.77L93.45 100.73L93.64 100.91Q96.38 99.48 99.27 98.61L99.27 98.61L99.19 98.53Q97.99 100.15 95.56 103.18L95.56 103.18L95.60 103.22Q101.30 101.38 105.61 100.97L105.60 100.97L105.57 100.93Q110.70 94.22 116.22 82.24L116.13 82.15L122.24 82.54L122.25 82.55Q122.08 80.90 122.08 79.28L122.09 79.30L122.16 76.20L122.07 76.11Q121.77 76.28 120.79 76.35L120.72 76.27L120.73 76.29Q119.82 76.42 119.35 76.42L119.18 76.25L119.24 76.31Q119.29 76.16 119.36 75.89L119.25 75.78L119.37 75.43L119.37 75.43Q123.79 66.32 129.24 58.11Z"/><path d="M14 63 C159 77,191 108,333 130" stroke="#67e9e9" fill="none"/><path fill="#5be09e" d="M216.81 91.00L216.80 91.00L216.91 91.11Q218.85 92.63 221.34 92.37L221.46 92.49L221.32 92.35Q226.53 92.71 227.67 86.79L227.61 86.73L227.62 86.74Q228.83 81.28 228.83 75.29L228.78 75.24L228.81 70.69L228.72 70.61Q228.89 68.55 228.28 66.33L228.17 66.22L228.28 66.33Q226.11 70.42 222.61 78.83L222.44 78.66L222.62 78.85Q219.06 87.19 216.90 91.10ZM225.68 61.84L225.77 61.93L225.77 61.93Q223.70 60.47 221.34 60.47L221.37 60.50L221.45 60.58Q218.85 60.34 216.90 61.95L216.84 61.89L216.78 61.83Q214.80 63.41 214.46 66.04L214.45 66.03L214.61 66.19Q213.92 68.53 213.85 71.15L213.90 71.20L213.88 71.17Q213.76 71.06 213.76 76.11L213.91 76.25L213.85 76.19Q213.93 80.45 214.74 86.84L214.73 86.84L214.72 86.82Q218.03 78.36 225.77 61.94ZM228.45 95.10L228.44 95.09L228.42 95.08Q225.43 96.79 221.32 96.79L221.41 96.88L218.33 96.69L218.48 96.84Q212.63 96.71 210.61 93.68L210.76 93.84L210.64 93.71Q209.31 89.96 209.18 84.78L209.12 84.72L209.12 84.72Q208.98 81.55 208.84 75.43L208.90 75.49L209.00 75.59Q208.95 73.45 208.68 68.07L208.62 68.01L208.59 67.97Q208.54 64.02 209.08 60.52L209.06 60.51L208.99 60.44Q209.82 55.21 217.49 54.80L217.49 54.80L217.45 54.76Q218.84 54.73 221.19 54.80L221.24 54.85L221.35 54.96Q231.19 55.04 233.07 61.16L233.13 61.22L233.11 61.20Q234.32 64.70 234.25 67.99L234.14 67.88L234.17 67.91Q234.01 76.71 233.88 78.86L233.88 78.87L233.96 78.94Q233.55 85.60 233.01 87.89L233.09 87.96L233.02 87.89Q231.91 93.44 228.54 95.19ZM237.36 94.86L237.23 94.73L237.23 94.73Q237.64 89.83 237.57 86.66L237.64 86.73L237.56 78.64L237.40 78.48Q237.31 73.21 236.37 63.45L236.32 63.40L236.42 63.50Q235.52 60.31 233.23 58.97L233.12 58.85L233.12 58.85Q230.44 54.43 221.29 54.16L221.23 54.09L221.15 54.02Q219.71 54.06 217.35 54.13L217.43 54.20L217.28 54.05Q209.29 54.21 208.42 59.73L208.56 59.87L208.43 59.74Q207.72 63.81 207.93 67.51L207.96 67.54L208.01 67.60Q208.65 75.37 208.58 81.29L208.61 81.32L208.57 81.28Q208.38 87.69 208.58 89.50L208.72 89.64L208.62 89.55Q209.29 94.99 211.98 96.40L212.09 96.52L212.08 96.50Q214.74 100.44 221.80 100.91L221.80 100.90L221.71 100.81Q228.02 101.20 229.16 101.13L229.21 101.18L229.12 101.09Q234.32 100.97 236.34 98.14L236.22 98.03L236.31 98.12Q237.08 96.80 237.21 94.71ZM222.06 91.74L222.02 91.70L222.12 91.80Q223.35 89.26 225.23 84.48L225.08 84.33L228.22 76.97L228.14 76.89Q228.02 79.73 227.35 85.65L227.34 85.65L227.51 85.82Q226.31 90.88 222.07 91.75ZM218.60 70.05L218.50 69.94L218.65 70.10Q219.35 66.83 220.57 65.82L220.60 65.85L220.53 65.78Q221.44 65.14 223.73 64.81L223.60 64.68L223.75 64.83Q220.66 71.23 217.37 79.44L217.31 79.39L217.25 79.33Q217.29 74.59 218.50 69.95Z"/><path d="M18 56 C179 40,172 68,325 67" stroke="#f1a288" fill="none"/><path d="M21 87 C165 93,185 63,326 98" stroke="#e4984d" fill="none"/><path d="M4 53 C184 112,153 3,332 20" stroke="#7373ec" fill="none"/><path d="M19 21 C151 101,162 112,337 119" stroke="#e65a5a" fill="none"/><path fill="#72a8de" d="M164.99 60.55L165.01 60.56L162.29 60.81L162.25 60.77Q158.30 60.99 157.89 64.56L157.88 64.54L157.87 64.54Q157.61 65.68 157.67 67.43L157.77 67.53L157.74 67.50Q157.91 71.04 160.13 73.39L160.00 73.26L159.97 73.23Q162.29 75.68 165.65 75.41L165.70 75.46L165.65 75.41Q169.32 75.18 170.67 73.56L170.65 73.54L170.68 73.58Q172.55 71.94 173.02 67.97L172.92 67.87L173.00 67.95Q173.39 63.90 171.17 62.42L171.11 62.36L171.24 62.49Q169.60 60.98 164.89 60.45ZM175.64 76.85L175.63 76.84L173.43 80.96L173.46 80.99Q168.50 89.30 161.84 96.50L161.83 96.49L161.85 96.51Q159.06 96.89 154.28 98.30L154.35 98.36L154.18 98.20Q163.68 87.17 169.26 78.69L169.34 78.76L169.30 78.73Q167.44 79.82 164.54 79.96L164.48 79.89L164.59 80.01Q159.30 80.29 156.60 76.79L156.51 76.70L156.45 76.64Q154.39 73.90 152.43 65.83L152.36 65.76L152.48 65.88Q152.36 64.94 152.09 63.30L152.23 63.43L152.24 63.45Q151.98 61.81 151.98 61.00L151.80 60.82L151.85 60.87Q151.99 57.84 153.87 56.76L153.72 56.61L153.76 56.65Q156.01 55.40 159.30 55.40L159.18 55.28L159.26 55.35Q164.95 55.39 164.95 55.39L164.85 55.29L164.94 55.38Q168.66 55.33 170.88 55.67L170.98 55.77L170.93 55.72Q174.77 56.26 176.38 57.13L176.26 57.01L176.36 57.12Q178.83 58.50 179.16 61.60L179.07 61.50L179.13 61.57Q179.02 61.86 178.69 66.57L178.78 66.67L178.70 66.59Q178.15 70.47 177.74 71.95L177.70 71.91L177.76 71.98Q177.08 74.45 175.73 76.94ZM178.99 81.08L178.99 81.07L178.98 81.07Q180.76 77.19 181.70 69.59L181.68 69.57L181.73 69.62Q182.28 65.79 182.21 64.24L182.18 64.21L182.04 64.07Q182.07 60.87 179.99 59.26L180.02 59.29L179.52 59.12L179.51 59.12Q178.89 57.62 177.27 56.48L177.40 56.60L177.33 56.53Q173.23 54.72 164.75 54.45L164.76 54.47L164.81 54.51Q163.13 54.52 158.83 54.52L158.84 54.53L158.75 54.44Q155.67 54.46 153.05 55.67L153.07 55.70L153.08 55.70Q151.03 57.09 151.16 60.32L151.28 60.43L151.25 60.40Q151.65 62.09 151.99 65.65L151.94 65.60L151.83 65.49Q152.93 70.16 153.41 71.64L153.35 71.59L153.53 71.77Q154.45 74.97 156.13 77.26L156.14 77.27L156.09 77.22Q156.53 77.79 157.20 78.47L157.36 78.63L157.26 78.52Q157.78 79.38 158.92 81.00L158.97 81.04L158.80 80.87Q161.59 83.46 165.02 83.80L164.97 83.75L164.93 83.71Q161.54 88.40 158.79 91.76L158.89 91.86L152.38 99.49L152.49 99.60Q156.47 98.27 159.37 97.66L159.29 97.58L159.34 97.64Q157.99 99.18 155.24 102.21L155.10 102.08L155.13 102.10Q160.61 100.52 166.13 100.45L166.12 100.44L166.12 100.45Q170.19 95.84 177.87 83.05L177.90 83.08L178.03 83.35L177.86 83.18Q178.35 81.92 178.96 81.04ZM168.40 64.77L168.35 64.71L168.46 64.82Q169.42 64.51 170.23 64.71L170.22 64.70L170.32 64.80Q171.44 64.98 172.12 65.19L172.00 65.07L172.19 65.25Q172.32 65.85 172.45 66.60L172.44 66.59L172.48 66.62Q172.46 67.21 172.26 67.89L172.36 67.98L172.41 68.03Q172.33 71.05 170.24 73.00L170.21 72.97L170.13 72.89Q168.53 74.79 165.64 74.72L165.69 74.77L165.55 74.63Q164.87 74.70 162.18 74.16L162.24 74.21L162.18 74.16Q161.84 72.68 161.84 71.40L161.76 71.32L161.85 71.40Q161.70 70.92 161.70 70.51L161.74 70.55L161.63 70.45Q161.65 66.56 165.69 65.15L165.76 65.22L165.66 65.12Q166.83 64.68 168.32 64.68Z"/><path d="M21 76 C167 19,182 96,334 100" stroke="#5959d8" fill="none"/><path fill="#69c4e2" d="M273.49 97.17L273.43 97.12L273.51 97.19Q266.33 97.62 264.58 93.52L264.47 93.40L264.51 93.44Q265.92 91.82 268.68 88.66L268.59 88.57L268.67 88.65Q269.54 92.21 274.86 92.42L274.94 92.49L274.91 92.47Q280.91 92.62 283.81 90.26L283.75 90.20L283.67 90.13Q286.28 87.42 286.15 82.64L286.18 82.67L286.16 82.66Q285.89 73.70 277.41 74.10L277.40 74.09L277.28 73.97Q272.29 74.24 269.20 76.46L269.33 76.59L268.59 76.12L268.41 76.07L268.29 75.95Q268.91 70.38 268.71 65.53L268.65 65.48L268.70 65.53Q268.51 60.90 267.91 55.05L267.90 55.04L267.97 55.11Q274.42 56.78 281.15 56.57L281.06 56.49L281.15 56.58Q287.89 56.46 294.22 54.24L294.25 54.26L293.25 56.97L293.10 56.82Q292.61 58.21 292.27 59.69L292.32 59.74L292.32 59.74Q286.78 61.53 279.91 61.53L279.87 61.49L279.82 61.44Q277.25 61.43 274.63 61.16L274.66 61.19L274.76 61.29Q274.63 62.51 274.02 70.38L273.91 70.27L274.05 70.41Q275.40 69.47 279.04 69.20L279.09 69.26L279.12 69.29Q285.66 69.63 288.22 72.60L288.19 72.57L288.23 72.61Q290.69 75.34 291.16 82.14L291.08 82.05L291.05 82.02Q291.64 89.54 289.48 93.11L289.56 93.18L289.42 93.05Q285.85 96.41 280.00 96.81L279.98 96.80L279.94 96.76Q278.26 96.96 273.55 97.23ZM284.20 101.22L284.18 101.20L284.22 101.24Q290.18 101.27 293.54 99.32L293.57 99.35L293.56 99.34Q295.41 96.75 295.41 93.05L295.38 93.02L295.42 93.05Q295.43 87.61 293.75 80.35L293.64 80.24L293.73 80.32Q293.04 77.22 290.89 74.73L290.86 74.70L290.88 74.79L290.45 74.22L290.01 74.05L289.96 74.00Q289.31 72.61 288.17 71.40L288.28 71.51L288.22 71.52L288.22 71.52Q285.54 68.57 279.01 68.57L279.01 68.57L278.64 68.67L278.55 68.58Q278.65 67.54 278.99 65.59L278.99 65.59L279.07 65.67Q287.85 65.83 294.98 62.94L295.04 62.99L294.96 62.92Q295.81 60.53 297.49 55.55L297.39 55.45L293.67 57.12L293.71 57.16Q294.31 55.06 295.18 53.04L295.22 53.09L295.21 53.07Q288.54 55.76 281.27 55.89L281.08 55.70L281.13 55.75Q273.91 56.00 266.91 54.05L266.88 54.02L266.98 54.11Q268.03 61.77 268.03 69.57L268.14 69.68L268.07 69.61Q268.11 73.01 267.91 76.38L267.91 76.38L267.99 76.46Q268.46 76.80 269.47 77.33L269.42 77.29L269.32 77.19Q270.03 76.89 271.17 76.28L271.18 76.29L271.13 76.24Q271.12 77.64 270.72 80.34L270.64 80.25L270.64 80.26Q271.49 80.70 272.23 81.10L272.17 81.05L272.17 81.05Q277.05 77.92 280.35 77.92L280.36 77.93L280.34 77.90Q282.82 78.03 284.90 79.17L284.83 79.10L284.73 79.00Q285.49 80.98 285.56 82.66L285.51 82.61L285.40 82.50Q285.61 87.15 283.80 89.10L283.82 89.12L283.78 89.09Q281.33 91.22 277.36 91.62L277.32 91.58L277.45 91.71Q275.78 91.85 274.56 91.72L274.45 91.61L274.61 91.76Q272.99 91.43 271.65 90.82L271.68 90.85L271.58 90.42L271.37 90.61L271.46 90.70Q269.97 89.75 269.03 87.39L269.12 87.48L269.13 87.50Q266.79 90.00 263.83 93.77L263.67 93.61L263.83 93.77Q264.30 94.84 265.78 96.53L265.79 96.54L265.86 96.61Q267.65 99.75 272.63 100.62L272.55 100.54L272.59 100.58Q274.74 101.05 284.23 101.25Z"/><path d="M17 61 C152 72,151 84,337 133" stroke="#829ae2" fill="none"/><path d="M5 39 C182 83,155 65,337 112" stroke="#e9ce7b" fill="none"/><path d="M10 136 C176 89,151 108,333 57" stroke="#7eebb5" fill="none"/><path d="M13 26 C176 138,155 72,322 17" stroke="#3eb7df" fill="none"/><path d="M20 96 C154 38,183 29,327 20" stroke="#bddb66" fill="none"/><path d="M7 118 C160 122,157 79,339 116" stroke="#8cde71" fill="none"/><path d="M5 3 C157 78,173 89,332 61" stroke="#dddd6e" fill="none"/><path d="M6 91 C182 137,188 67,325 49" stroke="#c9eb65" fill="none"/><path fill="#dddd63" d="M51.47 77.36L51.60 77.49L51.62 77.50Q48.24 77.43 46.09 79.78L46.14 79.83L46.05 79.74Q44.01 82.21 43.74 85.57L43.57 85.40L43.68 85.52Q43.34 89.28 45.50 91.07L45.44 91.01L45.55 91.12Q47.68 92.88 51.45 92.74L51.36 92.65L51.47 92.77Q55.57 92.49 57.25 90.81L57.25 90.81L57.14 90.70Q58.95 88.13 58.75 84.90L58.75 84.90L58.85 85.00Q58.68 81.74 56.76 79.62L56.58 79.43L56.70 79.56Q54.71 77.36 51.48 77.36ZM51.36 60.62L51.37 60.63L51.43 60.69Q48.97 60.52 46.61 61.39L46.52 61.30L46.57 61.35Q44.25 62.73 44.65 66.03L44.74 66.11L44.68 66.05Q45.68 72.78 51.60 72.78L51.51 72.69L51.57 72.74Q54.29 73.04 56.04 71.02L55.93 70.91L55.96 70.94Q57.81 69.02 57.87 66.26L57.80 66.18L57.75 66.13Q58.02 63.17 56.74 62.10L56.78 62.14L56.61 61.97Q53.69 60.53 51.40 60.67ZM50.89 96.97L51.05 97.12L45.63 97.09L45.65 97.11Q42.97 97.12 40.62 95.57L40.60 95.56L40.50 95.46Q38.13 93.49 38.40 88.44L38.47 88.52L38.36 88.41Q39.27 76.40 45.67 74.65L45.60 74.58L45.58 74.56Q41.55 72.95 39.19 63.46L39.28 63.54L39.28 63.55Q38.65 61.04 38.79 59.63L38.71 59.54L38.77 59.61Q39.27 55.80 45.80 55.73L45.85 55.79L45.72 55.66Q53.24 55.57 55.80 55.91L55.89 56.00L55.82 55.93Q62.64 56.90 63.45 60.46L63.44 60.45L63.53 60.54Q63.71 61.60 63.71 62.27L63.61 62.17L63.61 62.17Q63.59 63.37 63.26 64.44L63.22 64.41L63.25 64.44Q62.14 71.87 56.96 74.56L57.01 74.62L57.02 74.63Q63.19 76.02 64.07 85.38L64.12 85.43L64.20 85.51Q64.11 85.69 64.18 87.98L64.10 87.90L64.20 88.00Q64.35 92.86 61.53 94.75L61.52 94.74L61.45 94.67Q59.07 96.26 50.99 97.06ZM55.12 101.26L55.02 101.16L60.85 101.20L60.86 101.21Q63.98 101.44 66.68 100.17L66.76 100.25L66.63 100.12Q68.74 98.93 68.87 95.63L68.81 95.57L68.76 95.52Q68.89 93.63 68.22 90.20L68.21 90.19L68.17 90.15Q66.54 81.92 62.83 78.62L62.95 78.74L62.48 77.93L62.29 77.60L61.93 77.05L61.96 77.08Q64.93 74.73 66.54 67.39L66.47 67.32L66.53 67.37Q66.36 66.54 66.49 65.05L66.69 65.25L66.57 65.14Q66.63 63.85 66.50 62.77L66.58 62.86L66.50 62.77Q66.40 60.38 64.31 59.51L64.27 59.47L64.35 59.47L64.03 59.29L64.06 59.32Q63.46 57.92 61.37 56.50L61.47 56.59L61.43 56.49L61.58 56.64Q57.93 55.28 50.73 54.94L50.78 54.99L50.74 54.95Q48.11 54.88 45.69 55.09L45.63 55.03L45.66 55.05Q44.18 55.05 41.89 55.32L41.87 55.30L41.93 55.36Q38.45 55.99 38.04 58.88L38.10 58.94L38.03 58.87Q37.93 59.71 38.00 61.13L38.03 61.16L38.14 61.26Q38.29 62.16 39.30 66.33L39.29 66.32L39.35 66.38Q40.70 72.04 43.80 74.39L43.79 74.38L43.84 74.44L43.85 74.45Q39.04 76.84 38.10 85.99L37.98 85.88L38.16 86.05Q37.72 89.85 37.72 91.47L37.67 91.42L37.64 91.38Q37.86 94.64 39.95 96.25L39.99 96.30L39.88 96.18Q40.23 96.47 40.70 96.81L40.53 96.64L40.64 96.74Q42.49 100.82 55.08 101.22ZM54.50 81.66L54.49 81.65L54.43 81.59Q56.04 81.46 57.59 82.26L57.66 82.34L57.62 82.30Q58.26 84.01 58.19 84.95L58.25 85.01L58.10 84.86Q58.17 85.40 58.17 85.94L58.28 86.05L58.27 86.04Q58.32 90.26 54.28 91.74L54.23 91.69L54.29 91.75Q52.88 92.29 51.47 92.09L51.36 91.98L51.47 92.09Q49.47 92.25 47.45 91.44L47.39 91.37L47.51 91.50Q46.95 90.27 47.09 88.52L47.10 88.54L47.13 88.56Q47.36 85.69 49.48 83.54L49.40 83.46L49.54 83.60Q51.49 81.28 54.32 81.48ZM54.88 64.88L54.81 64.81L54.75 64.76Q56.25 64.63 57.19 64.90L57.20 64.92L57.23 66.36L57.11 66.23Q57.19 68.81 55.58 70.59L55.61 70.63L55.57 70.59Q53.96 72.38 51.54 72.04L51.42 71.93L51.42 71.92Q49.75 72.00 49.01 71.60L48.99 71.57L48.95 71.54Q49.00 71.19 48.80 69.98L48.84 70.02L48.77 69.94Q48.20 67.35 50.35 65.87L50.46 65.98L50.46 65.98Q52.33 64.75 54.82 64.82Z"/><path d="M18 133 C158 132,181 61,332 15" stroke="#83e183" fill="none"/><path d="M4 113 C169 68,183 57,330 35" stroke="#69e1c3" fill="none"/><path d="M2 106 C153 70,191 38,338 75" stroke="#5777d5" fill="none"/><path d="M17 77 C182 54,164 118,329 136" stroke="#7ae47a" fill="none"/><path d="M3 43 C155 90,170 100,333 96" stroke="#7e7ee0" fill="none"/></svg>