<svg xmlns="http://www.w3.org/2000/svg" width="342" height="140" viewBox="0,0,342,140"><path d="M6 139 C157 56,158 41,323 41" stroke="#ebeb56" fill="none"/><path d="M14 15 C153 59,179 115,324 5" stroke="#b2e480" fill="none"/><path d="M13 52 C170 76,187 81,323 91" stroke="#e490e4" fill="none"/><path d="M4 90 C154 53,163 111,322 95" stroke="#b2e480" fill="none"/><path d="M19 61 C184 120,171 42,336 42" stroke="#e179e1" fill="none"/><path d="M3 28 C189 107,184 90,333 68" stroke="#829be7" fill="none"/><path fill="#6edda5" d="M200.64 67.68L200.55 67.59L200.54 67.59Q195.84 67.62 193.13 66.04L193.13 66.04L193.12 66.04Q196.82 63.98 204.05 57.72L204.14 57.81L204.06 57.74Q205.22 57.54 207.14 56.63L207.06 56.56L207.02 56.52Q205.05 65.32 204.88 74.74L204.87 74.73L204.85 74.72Q204.74 84.20 206.32 93.22L206.39 93.29L206.29 93.19Q203.91 92.23 200.75 92.06L200.62 91.93L200.70 92.00Q200.62 85.95 200.62 79.91L200.61 79.90L200.50 79.78Q200.62 73.81 200.67 67.72ZM200.12 71.05L200.01 92.56L200.04 92.59Q201.92 92.66 203.33 92.94L203.24 92.86L203.14 92.76Q203.45 93.97 203.73 96.00L203.72 95.99L203.65 95.92Q207.77 96.59 211.38 99.92L211.53 100.07L211.44 99.98Q207.71 89.37 207.66 78.31L207.71 78.37L207.81 78.47Q207.61 67.32 210.32 56.60L210.32 56.60L210.38 56.66Q209.62 57.31 207.25 58.95L207.15 58.84L207.17 58.86Q207.41 57.70 207.86 55.44L207.86 55.44L207.85 55.43Q205.96 56.64 203.82 57.21L203.81 57.20L203.84 57.23Q198.22 62.50 191.85 65.89L191.80 65.84L191.82 65.86Q193.92 67.51 197.41 68.01L197.51 68.11L197.52 68.12Q196.49 68.84 194.57 70.42L194.59 70.44L194.47 70.31Q196.73 70.94 200.01 70.94L199.96 70.89Z"/><path d="M7 33 C162 122,183 102,338 126" stroke="#dddd63" fill="none"/><path d="M20 43 C151 23,173 107,341 20" stroke="#9e83f0" fill="none"/><path d="M1 128 C187 75,177 108,336 113" stroke="#9343e4" fill="none"/><path d="M7 18 C183 127,175 72,323 6" stroke="#76b2ee" fill="none"/><path d="M2 64 C157 32,168 46,338 56" stroke="#ecec5f" fill="none"/><path d="M6 102 C180 86,181 65,341 73" stroke="#7ddf5c" fill="none"/><path d="M5 123 C185 57,170 46,341 100" stroke="#96e27d" fill="none"/><path d="M5 55 C172 13,192 68,329 65" stroke="#4ee373" fill="none"/><path d="M1 80 C184 119,169 83,322 122" stroke="#6337e6" fill="none"/><path d="M8 106 C191 35,161 46,329 137" stroke="#a8e16f" fill="none"/><path d="M5 8 C192 126,174 69,326 13" stroke="#e89e86" fill="none"/><path d="M7 28 C176 76,175 121,334 45" stroke="#a4e58e" fill="none"/><path d="M5 8 C186 1,173 100,322 134" stroke="#96e04c" fill="none"/><path d="M12 89 C186 7,188 134,340 75" stroke="#59eca3" fill="none"/><path fill="#ddbf63" d="M131.64 76.16L131.73 76.25L131.68 76.21Q128.91 76.20 127.10 78.17L127.15 78.22L127.01 78.08Q125.33 80.18 125.11 83.00L125.18 83.07L125.03 82.93Q124.75 86.09 126.56 87.58L126.54 87.57L126.61 87.63Q128.37 89.09 131.53 88.98L131.58 89.02L131.52 88.97Q134.92 88.70 136.33 87.29L136.43 87.38L136.35 87.30Q137.97 85.25 137.80 82.55L137.80 82.55L137.79 82.54Q137.56 79.71 135.95 77.93L136.07 78.06L136.03 78.02Q134.39 76.21 131.68 76.21ZM131.57 62.16L131.68 62.26L131.57 62.16Q129.62 62.12 127.64 62.86L127.63 62.84L127.50 62.71Q125.62 63.93 125.96 66.70L125.91 66.66L126.00 66.74Q126.75 72.29 131.72 72.29L131.67 72.24L131.75 72.32Q133.96 72.50 135.42 70.81L135.56 70.94L135.51 70.89Q136.98 69.20 137.04 66.89L136.95 66.81L136.93 66.79Q137.03 64.18 135.96 63.28L136.06 63.37L135.98 63.29Q133.64 62.20 131.72 62.31ZM131.29 92.74L131.26 92.71L126.77 92.74L126.72 92.68Q124.47 92.69 122.49 91.39L122.55 91.45L122.58 91.48Q120.55 89.79 120.78 85.56L120.63 85.41L120.73 85.51Q121.41 75.35 126.77 73.89L126.70 73.82L126.71 73.83Q123.32 72.47 121.35 64.51L121.38 64.55L121.33 64.50Q120.91 62.50 121.03 61.32L120.92 61.21L120.88 61.17Q121.51 58.19 126.98 58.13L126.81 57.96L126.95 58.10Q133.25 58.02 135.39 58.30L135.29 58.20L135.38 58.30Q141.07 59.08 141.75 62.07L141.64 61.96L141.66 61.98Q141.88 62.93 141.88 63.50L141.87 63.49L141.86 63.47Q141.74 64.37 141.46 65.28L141.51 65.32L141.64 65.45Q140.56 71.54 136.22 73.80L136.22 73.80L136.23 73.81Q141.46 75.03 142.19 82.88L142.20 82.88L142.32 83.01Q142.24 83.16 142.30 85.07L142.19 84.97L142.27 85.05Q142.34 89.06 139.97 90.64L140.09 90.77L140.13 90.80Q138.02 92.03 131.25 92.70ZM134.57 96.08L134.60 96.11L139.51 96.17L139.67 96.32Q142.05 96.28 144.31 95.21L144.45 95.35L144.36 95.26Q146.00 94.14 146.11 91.37L146.10 91.35L146.14 91.39Q146.25 89.81 145.68 86.94L145.72 86.97L145.70 86.95Q144.25 79.97 141.14 77.20L141.29 77.35L140.91 76.69L140.67 76.34L140.40 75.89L140.39 75.88Q142.82 73.85 144.17 67.70L144.26 67.80L144.13 67.67Q144.17 67.14 144.29 65.90L144.26 65.87L144.23 65.85Q144.43 64.92 144.32 64.01L144.33 64.02L144.39 64.09Q144.13 61.91 142.38 61.18L142.43 61.22L142.49 61.23L142.18 61.03L142.08 60.93Q141.68 59.86 139.94 58.67L139.92 58.66L140.05 58.73L139.94 58.62Q137.06 57.66 131.02 57.37L130.98 57.33L131.14 57.49Q128.76 57.26 126.73 57.43L126.66 57.36L126.79 57.49Q125.47 57.41 123.55 57.64L123.67 57.76L123.70 57.78Q120.80 58.33 120.46 60.75L120.35 60.64L120.50 60.79Q120.43 61.51 120.49 62.69L120.41 62.62L120.39 62.60Q120.65 63.48 121.49 66.97L121.37 66.85L121.41 66.89Q122.63 71.72 125.22 73.70L125.18 73.65L125.22 73.69L125.29 73.77Q121.24 75.75 120.45 83.43L120.39 83.36L120.48 83.45Q120.08 86.61 120.08 87.96L120.15 88.04L120.06 87.94Q120.29 90.71 122.04 92.06L121.96 91.99L121.99 92.02Q122.16 92.13 122.56 92.41L122.46 92.32L122.63 92.49Q124.13 95.85 134.68 96.19ZM134.03 79.62L134.14 79.74L134.18 79.77Q135.41 79.53 136.70 80.21L136.73 80.23L136.86 80.36Q137.25 81.66 137.19 82.45L137.19 82.45L137.18 82.43Q137.35 83.00 137.35 83.45L137.32 83.42L137.40 83.51Q137.31 86.91 133.93 88.15L133.93 88.16L133.91 88.14Q132.67 88.53 131.48 88.36L131.51 88.39L131.64 88.52Q129.96 88.65 128.27 87.97L128.14 87.84L128.34 88.04Q127.85 86.98 127.96 85.52L128.02 85.58L127.88 85.44Q128.13 83.09 129.91 81.29L130.01 81.39L129.91 81.29Q131.72 79.51 134.09 79.68ZM134.42 65.63L134.45 65.66L134.35 65.56Q135.60 65.45 136.39 65.67L136.41 65.70L136.42 66.89L136.34 66.82Q136.42 68.99 135.07 70.48L135.16 70.57L135.08 70.49Q133.78 72.04 131.75 71.76L131.72 71.73L131.64 71.65Q130.29 71.76 129.67 71.42L129.55 71.31L129.58 71.34Q129.51 70.93 129.34 69.91L129.36 69.94L129.40 69.97Q128.93 67.81 130.74 66.57L130.82 66.66L130.71 66.54Q132.40 65.64 134.49 65.70Z"/><path fill="#e76ec9" d="M268.61 67.66L268.63 67.67L268.58 67.62Q263.94 67.72 261.23 66.14L261.21 66.12L261.14 66.06Q264.93 64.09 272.15 57.82L272.02 57.69L272.04 57.72Q273.15 57.47 275.07 56.57L275.02 56.51L275.02 56.51Q273.20 65.47 273.03 74.89L272.87 74.73L272.88 74.75Q272.84 84.29 274.41 93.32L274.41 93.32L274.42 93.33Q271.92 92.24 268.76 92.07L268.71 92.02L268.62 91.92Q268.45 85.77 268.45 79.73L268.49 79.77L268.51 79.79Q268.51 73.70 268.56 67.61ZM268.07 71.01L267.93 92.48L268.09 92.64Q269.83 92.57 271.24 92.85L271.28 92.89L271.33 92.94Q271.28 93.80 271.56 95.83L271.62 95.88L271.57 95.83Q275.86 96.69 279.47 100.01L279.57 100.11L279.40 99.94Q275.89 89.55 275.83 78.49L275.75 78.40L275.83 78.49Q275.74 67.45 278.45 56.73L278.30 56.58L278.42 56.70Q277.55 57.24 275.18 58.88L275.09 58.79L275.10 58.79Q275.54 57.82 275.99 55.57L275.89 55.46L275.83 55.41Q273.96 56.64 271.82 57.21L271.80 57.19L271.88 57.27Q266.28 62.56 259.91 65.95L259.80 65.84L259.93 65.97Q262.02 67.61 265.52 68.12L265.49 68.09L265.52 68.12Q264.37 68.72 262.45 70.30L262.56 70.41L262.52 70.36Q264.80 71.01 268.07 71.01L267.93 70.86Z"/><path d="M15 137 C153 80,154 63,337 123" stroke="#e58484" fill="none"/><path d="M20 48 C192 129,188 22,325 112" stroke="#bf4be6" fill="none"/><path d="M10 85 C176 65,177 46,334 44" stroke="#5be0bf" fill="none"/><path d="M10 73 C177 126,179 22,331 117" stroke="#e87c7c" fill="none"/><path fill="#5ce4c2" d="M63.70 76.22L63.73 76.25L63.68 76.20Q60.95 76.24 59.15 78.22L59.18 78.25L59.17 78.24Q57.40 80.25 57.18 83.07L57.13 83.03L57.01 82.91Q56.87 86.21 58.68 87.71L58.68 87.71L58.61 87.64Q60.38 89.10 63.54 88.99L63.51 88.95L63.64 89.08Q67.09 88.87 68.50 87.46L68.47 87.42L68.43 87.39Q69.87 85.16 69.70 82.45L69.79 82.54L69.79 82.54Q69.69 79.84 68.08 78.06L68.02 78.00L67.95 77.94Q66.44 76.25 63.73 76.25ZM63.59 62.18L63.65 62.23L63.56 62.15Q61.49 62.00 59.52 62.73L59.60 62.81L59.62 62.83Q57.62 63.94 57.96 66.70L57.96 66.70L57.98 66.72Q58.72 72.26 63.69 72.26L63.70 72.27L63.66 72.23Q66.02 72.56 67.48 70.87L67.39 70.77L67.48 70.86Q68.91 69.14 68.97 66.82L68.90 66.76L69.07 66.92Q69.16 64.30 68.09 63.40L68.06 63.37L68.00 63.31Q65.54 62.10 63.63 62.21ZM63.30 92.75L63.25 92.70L58.80 92.76L58.70 92.66Q56.38 92.60 54.40 91.30L54.40 91.30L54.55 91.44Q52.48 89.72 52.71 85.49L52.72 85.50L52.60 85.38Q53.38 75.33 58.74 73.86L58.73 73.85L58.79 73.90Q55.40 72.55 53.42 64.59L53.45 64.62L53.42 64.59Q52.93 62.52 53.04 61.33L53.02 61.31L53.00 61.29Q53.42 58.10 58.89 58.04L58.84 57.99L58.97 58.12Q65.18 57.96 67.33 58.24L67.22 58.14L67.30 58.22Q73.03 59.04 73.71 62.03L73.60 61.92L73.62 61.94Q73.76 62.81 73.76 63.37L73.92 63.54L73.90 63.52Q73.94 64.57 73.65 65.47L73.56 65.37L73.53 65.34Q72.62 71.60 68.27 73.85L68.24 73.82L68.30 73.88Q73.45 75.03 74.19 82.87L74.33 83.01L74.14 82.82Q74.24 83.15 74.30 85.07L74.32 85.10L74.25 85.02Q74.40 89.12 72.03 90.70L71.95 90.62L72.10 90.78Q69.98 91.98 63.21 92.66ZM66.52 96.03L66.65 96.15L71.67 96.32L71.53 96.18Q74.14 96.37 76.40 95.30L76.42 95.32L76.42 95.32Q78.16 94.30 78.27 91.53L78.27 91.53L78.23 91.49Q78.29 89.86 77.73 86.98L77.65 86.90L77.64 86.89Q76.35 80.07 73.24 77.30L73.28 77.34L72.85 76.62L72.65 76.31L72.35 75.84L72.52 76.01Q74.81 73.85 76.17 67.70L76.21 67.74L76.20 67.73Q76.23 67.20 76.34 65.96L76.30 65.91L76.30 65.92Q76.43 64.91 76.31 64.01L76.42 64.12L76.39 64.09Q76.02 61.80 74.27 61.06L74.35 61.14L74.39 61.13L74.06 60.91L74.04 60.89Q73.81 59.99 72.06 58.80L71.99 58.73L72.06 58.75L72.13 58.81Q69.14 57.74 63.10 57.46L63.15 57.50L63.08 57.44Q60.73 57.22 58.69 57.39L58.67 57.37L58.64 57.34Q57.60 57.54 55.68 57.77L55.70 57.78L55.57 57.65Q52.69 58.21 52.35 60.64L52.34 60.63L52.34 60.63Q52.37 61.46 52.43 62.64L52.45 62.66L52.31 62.52Q52.56 63.39 53.41 66.89L53.45 66.93L53.48 66.96Q54.63 71.73 57.23 73.70L57.18 73.65L57.30 73.77L57.35 73.82Q53.25 75.76 52.46 83.44L52.46 83.44L52.44 83.41Q52.15 86.68 52.15 88.03L52.10 87.98L52.16 88.04Q52.21 90.63 53.96 91.99L53.98 92.01L54.04 92.07Q54.11 92.08 54.51 92.37L54.45 92.31L54.44 92.30Q56.07 95.79 66.62 96.13ZM66.07 79.66L66.20 79.80L66.09 79.69Q67.38 79.51 68.68 80.18L68.70 80.21L68.75 80.26Q69.36 81.77 69.30 82.56L69.35 82.61L69.18 82.44Q69.31 82.96 69.31 83.41L69.25 83.36L69.29 83.39Q69.33 86.93 65.95 88.17L65.89 88.11L65.91 88.14Q64.75 88.61 63.56 88.44L63.48 88.36L63.59 88.47Q61.91 88.60 60.22 87.92L60.25 87.95L60.23 87.93Q59.84 86.97 59.95 85.51L59.87 85.42L59.91 85.47Q60.11 83.07 61.89 81.27L62.01 81.38L61.93 81.31Q63.78 79.57 66.15 79.74ZM66.48 65.68L66.49 65.70L66.37 65.58Q67.62 65.47 68.41 65.69L68.37 65.66L68.47 66.94L68.38 66.86Q68.49 69.06 67.14 70.55L67.02 70.43L67.05 70.46Q65.81 72.07 63.78 71.79L63.64 71.64L63.65 71.66Q62.26 71.74 61.64 71.40L61.61 71.37L61.69 71.45Q61.47 70.89 61.30 69.88L61.43 70.00L61.29 69.87Q60.93 67.82 62.74 66.57L62.74 66.57L62.80 66.63Q64.38 65.62 66.47 65.68Z"/><path d="M13 103 C153 41,182 8,328 33" stroke="#72e8e8" fill="none"/><path d="M19 58 C177 105,152 90,323 132" stroke="#5598dc" fill="none"/><path d="M3 14 C152 62,178 20,322 10" stroke="#79e6cb" fill="none"/><path d="M6 89 C154 14,175 119,328 124" stroke="#d3e98f" fill="none"/><path d="M16 81 C159 16,168 121,333 123" stroke="#aaeb6a" fill="none"/><path d="M3 19 C181 19,191 82,323 55" stroke="#6f6fe6" fill="none"/><path d="M14 7 C163 36,154 138,340 67" stroke="#6caded" fill="none"/><path d="M13 128 C162 96,187 74,327 66" stroke="#87ea66" fill="none"/><path d="M3 93 C158 119,158 102,331 43" stroke="#46d6b2" fill="none"/><path d="M15 131 C186 97,154 131,337 114" stroke="#6dd84a" fill="none"/><path d="M2 118 C177 91,167 41,337 98" stroke="#ee8aee" fill="none"/><path d="M8 40 C152 58,166 58,324 111" stroke="#54dd54" fill="none"/><path d="M3 91 C190 19,154 119,340 82" stroke="#4c72e5" fill="none"/><path d="M10 131 C181 51,178 124,340 24" stroke="#5aeb7e" fill="none"/><path d="M10 129 C179 71,170 101,328 62" stroke="#67de85" fill="none"/><path d="M19 20 C159 125,189 8,326 35" stroke="#c16ddd" fill="none"/></svg>