<svg xmlns="http://www.w3.org/2000/svg" width="342" height="140" viewBox="0,0,342,140"><path d="M9 129 C172 62,183 19,337 14" stroke="#83e19a" fill="none"/><path d="M19 100 C179 27,185 28,338 124" stroke="#dc50dc" fill="none"/><path d="M5 9 C190 113,157 40,322 138" stroke="#ca6be9" fill="none"/><path d="M6 43 C156 125,156 74,339 77" stroke="#e28f73" fill="none"/><path d="M13 51 C175 124,162 104,329 5" stroke="#72e3e3" fill="none"/><path d="M8 24 C153 97,163 27,339 69" stroke="#75c9e5" fill="none"/><path d="M8 20 C155 117,164 9,334 50" stroke="#e83f69" fill="none"/><path fill="#4de499" d="M216.97 96.95L217.02 97.00L216.89 96.87Q209.83 97.33 208.10 93.27L208.16 93.33L208.16 93.33Q209.38 91.56 212.11 88.43L212.15 88.46L212.24 88.55Q213.09 92.07 218.35 92.27L218.33 92.24L218.18 92.09Q224.26 92.37 227.12 90.04L227.16 90.08L226.98 89.90Q229.62 87.27 229.48 82.54L229.50 82.56L229.38 82.44Q229.18 73.65 220.79 74.05L220.74 74.00L220.78 74.04Q215.88 74.34 212.82 76.54L212.78 76.50L212.07 76.05L211.77 75.89L211.76 75.88Q212.49 70.48 212.29 65.68L212.19 65.59L212.27 65.67Q212.03 61.03 211.43 55.23L211.44 55.24L211.34 55.14Q217.79 56.86 224.45 56.66L224.44 56.65L224.52 56.73Q231.06 56.47 237.32 54.27L237.37 54.33L236.42 57.04L236.46 57.07Q235.83 58.32 235.50 59.78L235.60 59.88L235.52 59.80Q230.12 61.67 223.33 61.67L223.36 61.70L223.25 61.59Q220.78 61.65 218.18 61.38L218.08 61.28L218.06 61.26Q218.03 62.56 217.43 70.36L217.48 70.41L217.50 70.42Q218.84 69.50 222.44 69.24L222.49 69.29L222.52 69.32Q229.03 69.69 231.56 72.63L231.52 72.59L231.62 72.69Q233.87 75.20 234.34 81.93L234.37 81.97L234.43 82.02Q234.88 89.34 232.75 92.87L232.73 92.85L232.81 92.93Q229.15 96.14 223.36 96.54L223.46 96.64L223.46 96.64Q221.55 96.60 216.89 96.86ZM227.54 100.92L227.62 101.00L227.50 100.88Q233.52 101.04 236.85 99.10L236.78 99.03L236.93 99.18Q238.50 96.36 238.50 92.69L238.52 92.71L238.69 92.88Q238.63 87.43 236.96 80.23L236.98 80.25L236.95 80.22Q236.17 77.04 234.04 74.57L234.20 74.73L234.15 74.75L233.81 74.28L233.23 73.96L233.11 73.84Q232.62 72.63 231.49 71.43L231.48 71.42L231.49 71.49L231.51 71.51Q228.78 68.51 222.31 68.51L222.38 68.58L222.00 68.66L221.85 68.51Q222.05 67.59 222.39 65.65L222.32 65.58L222.34 65.61Q231.17 65.91 238.23 63.04L238.11 62.93L238.22 63.03Q238.88 60.49 240.54 55.56L240.68 55.70L236.89 57.24L236.83 57.18Q237.65 55.33 238.51 53.33L238.42 53.24L238.39 53.21Q231.67 55.75 224.47 55.88L224.50 55.91L224.55 55.95Q217.43 56.23 210.50 54.30L210.37 54.17L210.37 54.17Q211.52 61.85 211.52 69.57L211.71 69.76L211.64 69.70Q211.71 73.09 211.51 76.42L211.43 76.35L211.39 76.31Q211.78 76.57 212.78 77.10L212.79 77.11L212.97 77.29Q213.42 76.74 214.55 76.14L214.61 76.20L214.59 76.17Q214.55 77.53 214.15 80.20L214.12 80.17L214.11 80.16Q214.87 80.52 215.60 80.92L215.56 80.88L215.58 80.90Q220.44 77.83 223.71 77.83L223.82 77.95L223.66 77.78Q225.99 77.78 228.05 78.91L228.16 79.02L228.19 79.05Q228.80 80.86 228.87 82.53L228.87 82.53L228.73 82.39Q228.89 86.95 227.09 88.88L227.16 88.95L227.07 88.85Q224.69 91.01 220.76 91.41L220.80 91.45L220.84 91.49Q219.07 91.52 217.88 91.39L217.94 91.46L217.93 91.44Q216.44 91.22 215.10 90.62L215.18 90.69L215.09 90.27L214.89 90.47L214.84 90.42Q213.38 89.49 212.44 87.16L212.49 87.20L212.52 87.24Q210.16 89.67 207.23 93.40L207.24 93.42L207.36 93.53Q207.79 94.56 209.26 96.23L209.28 96.25L209.19 96.16Q211.14 99.44 216.07 100.31L216.15 100.39L216.04 100.28Q218.12 100.70 227.52 100.90Z"/><path fill="#edcf77" d="M178.79 92.62L178.83 92.66L178.71 92.54Q179.28 94.30 180.21 97.83L180.14 97.76L180.30 97.93Q172.79 95.48 164.73 95.94L164.75 95.97L164.73 95.94Q156.69 96.36 149.69 99.83L149.70 99.83L149.82 99.95Q150.14 98.67 150.20 98.80L150.27 98.87L150.20 98.80Q156.75 91.89 163.61 84.16L163.63 84.18L163.59 84.14Q171.44 75.53 173.50 67.34L173.47 67.31L173.43 67.27Q174.33 64.30 172.10 62.24L171.97 62.11L172.07 62.21Q169.69 60.00 166.56 60.27L166.66 60.36L166.60 60.30Q165.98 60.21 165.38 60.21L165.42 60.26L165.49 60.33Q162.67 60.18 160.48 61.78L160.63 61.92L160.57 61.87Q158.29 64.25 158.69 68.92L158.66 68.89L158.65 68.88Q155.49 68.25 153.36 67.45L153.48 67.57L153.40 67.49Q153.14 65.10 153.01 62.57L152.92 62.48L152.98 62.54Q152.93 59.76 154.00 57.76L153.82 57.58L153.96 57.72Q156.97 55.21 162.83 55.21L162.97 55.34L165.96 55.27L166.00 55.31Q169.91 55.29 171.57 55.49L171.65 55.56L171.58 55.49Q179.14 56.19 179.60 60.45L179.78 60.63L179.78 60.63Q179.77 61.48 179.64 62.88L179.78 63.02L179.65 62.89Q179.64 64.09 179.38 65.29L179.42 65.33L179.41 65.32Q176.49 79.45 163.23 91.44L163.16 91.37L163.25 91.47Q165.75 91.23 168.14 91.23L168.12 91.20L168.01 91.10Q173.80 91.22 178.80 92.62ZM177.80 56.18L177.83 56.21L177.66 56.05Q175.00 55.04 172.00 54.91L172.06 54.98L166.00 54.58L165.96 54.53Q158.12 54.03 154.26 55.96L154.39 56.09L154.32 56.02Q152.40 58.36 152.40 61.96L152.42 61.98L152.47 62.03Q152.52 63.28 153.05 68.21L153.06 68.22L152.95 68.10Q153.94 68.56 156.00 69.09L156.12 69.21L156.02 70.91L156.00 70.89Q156.04 71.80 156.17 72.73L156.10 72.66L156.02 72.58Q158.30 72.85 162.63 73.25L162.57 73.20L162.60 73.23Q162.57 72.59 162.57 72.00L162.65 72.08L162.53 71.96Q162.66 68.89 164.79 66.53L164.78 66.51L164.76 66.50Q166.82 64.05 169.95 64.25L169.93 64.24L170.05 64.35Q171.38 64.41 172.71 64.68L172.67 64.64L172.60 64.58Q172.77 65.21 172.90 65.94L173.00 66.03L173.02 66.06Q173.07 66.77 172.94 67.37L172.81 67.25L172.85 67.29Q170.69 75.65 162.96 84.11L162.90 84.06L162.89 84.04Q159.32 88.13 149.79 98.72L149.74 98.67L149.69 98.62Q149.43 100.17 148.83 101.17L148.79 101.13L148.87 101.20Q151.52 99.52 154.18 98.59L154.21 98.61L154.17 98.58Q153.07 99.74 151.40 102.34L151.34 102.28L151.29 102.22Q151.14 102.87 150.94 103.47L150.90 103.43L150.89 103.42Q159.53 99.94 169.13 100.27L168.95 100.10L169.04 100.18Q178.92 100.40 186.91 104.54L186.88 104.50L185.24 100.86L185.22 100.84Q183.99 98.41 183.52 97.02L183.56 97.05L183.57 97.06Q182.36 96.38 180.23 95.65L180.27 95.69L180.18 95.60Q180.01 94.43 179.34 92.03L179.28 91.97L179.27 91.97Q175.36 90.92 171.36 90.58L171.46 90.68L171.37 90.59Q179.65 82.68 182.31 68.22L182.36 68.27L182.53 63.05L182.66 63.17Q182.50 60.01 180.37 58.82L180.31 58.76L180.37 58.88L180.21 58.72Q180.20 58.65 180.07 58.65L180.10 58.68L180.18 58.76Q179.71 57.23 177.78 56.16Z"/><path d="M5 134 C172 59,164 9,338 58" stroke="#bee93e" fill="none"/><path d="M12 52 C185 44,179 138,330 13" stroke="#da3e65" fill="none"/><path d="M6 134 C168 15,171 33,341 46" stroke="#8e70ea" fill="none"/><path d="M2 46 C192 109,160 37,330 124" stroke="#ea5b5b" fill="none"/><path d="M2 27 C176 131,152 38,321 96" stroke="#e6c565" fill="none"/><path d="M16 88 C172 95,158 121,332 58" stroke="#e4a05c" fill="none"/><path d="M17 55 C158 64,155 76,328 74" stroke="#4bbfe6" fill="none"/><path d="M14 56 C177 4,186 17,327 130" stroke="#e2e273" fill="none"/><path d="M13 15 C152 79,177 100,332 27" stroke="#deb744" fill="none"/><path d="M18 136 C163 83,189 135,323 124" stroke="#6886e3" fill="none"/><path d="M13 2 C165 20,162 25,322 131" stroke="#3a8cdd" fill="none"/><path d="M18 130 C178 65,189 85,335 120" stroke="#e66585" fill="none"/><path d="M11 101 C154 43,178 2,340 103" stroke="#e7446d" fill="none"/><path fill="#73e2aa" d="M108.25 77.34L108.18 77.27L108.31 77.40Q104.95 77.31 102.82 79.64L102.87 79.69L102.91 79.73Q100.78 82.06 100.51 85.39L100.39 85.27L100.48 85.37Q100.04 88.98 102.17 90.75L102.22 90.79L102.17 90.75Q104.45 92.66 108.18 92.53L108.11 92.46L108.09 92.44Q112.07 92.09 113.73 90.42L113.87 90.56L113.80 90.49Q115.61 87.96 115.41 84.77L115.49 84.85L115.35 84.71Q115.28 81.57 113.38 79.47L113.35 79.45L113.29 79.39Q111.43 77.32 108.23 77.32ZM108.24 60.87L108.16 60.79L108.24 60.88Q105.67 60.57 103.34 61.44L103.32 61.42L103.31 61.41Q101.20 62.96 101.60 66.22L101.55 66.18L101.49 66.12Q102.45 72.74 108.31 72.74L108.33 72.76L108.27 72.70Q110.96 72.99 112.69 70.99L112.69 70.99L112.76 71.06Q114.51 69.08 114.58 66.35L114.43 66.20L114.45 66.22Q114.59 63.16 113.32 62.10L113.29 62.07L113.30 62.07Q110.53 60.77 108.26 60.90ZM107.63 96.71L107.67 96.75L102.33 96.74L102.43 96.84Q99.68 96.76 97.35 95.23L97.39 95.26L97.46 95.33Q94.98 93.25 95.25 88.25L95.16 88.17L95.24 88.25Q96.03 76.25 102.36 74.52L102.36 74.52L102.36 74.51Q98.47 73.03 96.14 63.64L96.05 63.54L95.97 63.46Q95.48 61.11 95.61 59.71L95.56 59.65L95.65 59.75Q96.11 55.95 102.58 55.88L102.58 55.88L102.60 55.90Q110.06 55.83 112.59 56.16L112.52 56.09L112.51 56.09Q119.32 57.10 120.12 60.63L120.05 60.56L119.99 60.50Q120.29 61.67 120.29 62.33L120.24 62.28L120.14 62.19Q120.20 63.44 119.87 64.51L119.88 64.53L119.85 64.49Q118.80 71.91 113.67 74.57L113.77 74.67L113.63 74.53Q119.82 75.98 120.68 85.24L120.78 85.34L120.66 85.22Q120.61 85.44 120.68 87.71L120.83 87.85L120.69 87.71Q120.87 92.56 118.07 94.42L118.07 94.42L118.12 94.48Q115.74 96.02 107.74 96.82ZM111.77 100.92L111.75 100.90L117.51 100.93L117.62 101.03Q120.47 101.03 123.14 99.76L123.31 99.93L123.24 99.86Q125.15 98.51 125.28 95.24L125.31 95.27L125.37 95.33Q125.34 93.30 124.67 89.90L124.86 90.08L124.77 89.99Q123.20 81.90 119.53 78.63L119.56 78.66L119.25 78.02L118.85 77.49L118.55 76.98L118.48 76.91Q121.48 74.65 123.08 67.38L122.95 67.26L123.00 67.31Q122.96 66.60 123.09 65.13L123.09 65.13L123.19 65.24Q123.28 63.99 123.15 62.93L123.14 62.91L123.14 62.92Q122.97 60.48 120.90 59.61L120.92 59.64L120.84 59.49L120.59 59.37L120.52 59.29Q120.12 58.10 118.06 56.70L118.00 56.65L118.03 56.61L118.18 56.76Q114.65 55.49 107.52 55.16L107.57 55.20L107.60 55.24Q104.86 55.03 102.46 55.23L102.38 55.15L102.38 55.15Q100.94 55.18 98.68 55.45L98.61 55.38L98.64 55.41Q95.23 56.06 94.83 58.93L94.93 59.02L94.98 59.08Q94.89 59.92 94.96 61.32L94.87 61.23L94.97 61.33Q95.03 62.13 96.03 66.26L96.16 66.38L96.08 66.30Q97.51 72.00 100.58 74.33L100.50 74.26L100.67 74.42L100.66 74.41Q95.91 76.80 94.98 85.86L94.92 85.79L94.95 85.83Q94.52 89.59 94.52 91.19L94.57 91.24L94.57 91.24Q94.76 94.43 96.83 96.03L96.72 95.92L96.75 95.96Q96.95 96.09 97.42 96.43L97.40 96.41L97.53 96.53Q99.18 100.38 111.64 100.78ZM111.07 81.42L111.04 81.39L111.15 81.51Q112.61 81.23 114.14 82.03L114.18 82.08L114.21 82.11Q114.89 83.85 114.83 84.78L114.86 84.82L114.77 84.73Q114.82 85.25 114.82 85.78L114.83 85.79L114.87 85.83Q114.86 89.95 110.86 91.41L110.80 91.35L110.87 91.42Q109.55 92.03 108.15 91.83L108.17 91.85L108.08 91.76Q106.12 91.93 104.12 91.14L104.24 91.25L104.19 91.20Q103.72 90.07 103.85 88.33L103.81 88.29L103.75 88.23Q104.08 85.50 106.18 83.37L106.28 83.47L106.13 83.31Q108.35 81.31 111.15 81.51ZM111.53 64.90L111.49 64.86L111.52 64.89Q112.94 64.71 113.88 64.98L113.79 64.89L113.82 66.32L113.78 66.28Q113.82 68.78 112.22 70.55L112.28 70.61L112.21 70.54Q110.61 72.31 108.22 71.98L108.16 71.92L108.25 72.01Q106.57 72.07 105.84 71.67L105.69 71.52L105.72 71.55Q105.70 71.13 105.50 69.93L105.50 69.93L105.60 70.03Q105.03 67.46 107.16 66.00L107.17 66.00L107.07 65.91Q109.00 64.77 111.46 64.83Z"/><path d="M16 93 C166 115,163 138,340 49" stroke="#dfc67a" fill="none"/><path fill="#58b9d9" d="M278.18 77.27L278.31 77.40L278.28 77.37Q274.94 77.30 272.81 79.63L272.92 79.74L272.79 79.61Q270.65 81.94 270.39 85.27L270.41 85.29L270.48 85.36Q270.04 88.98 272.17 90.75L272.23 90.81L272.33 90.91Q274.31 92.52 278.04 92.38L278.03 92.38L278.15 92.50Q282.14 92.16 283.81 90.49L283.75 90.44L283.80 90.49Q285.64 87.99 285.44 84.80L285.47 84.82L285.40 84.76Q285.29 81.58 283.39 79.48L283.26 79.35L283.33 79.42Q281.36 77.26 278.17 77.26ZM278.13 60.76L278.25 60.88L278.17 60.81Q275.63 60.54 273.30 61.40L273.40 61.50L273.46 61.56Q271.14 62.90 271.54 66.17L271.43 66.06L271.44 66.07Q272.44 72.74 278.31 72.74L278.30 72.73L278.14 72.57Q280.87 72.90 282.60 70.90L282.71 71.01L282.70 71.00Q284.38 68.95 284.45 66.22L284.47 66.24L284.53 66.30Q284.73 63.30 283.46 62.23L283.35 62.12L283.41 62.19Q280.53 60.77 278.26 60.90ZM277.62 96.69L277.80 96.88L272.32 96.73L272.32 96.73Q269.78 96.85 267.44 95.32L267.29 95.16L267.39 95.27Q264.93 93.20 265.19 88.20L265.31 88.31L265.21 88.22Q266.02 76.24 272.35 74.51L272.32 74.48L272.38 74.53Q268.36 72.92 266.03 63.52L265.96 63.46L266.03 63.53Q265.38 61.00 265.51 59.60L265.57 59.67L265.57 59.66Q266.07 55.90 272.53 55.83L272.64 55.95L272.54 55.85Q280.04 55.82 282.57 56.15L282.52 56.09L282.55 56.13Q289.18 56.96 289.98 60.49L289.93 60.44L289.98 60.49Q290.21 61.59 290.21 62.26L290.29 62.33L290.16 62.20Q290.22 63.46 289.88 64.52L289.91 64.55L289.86 64.50Q288.83 71.93 283.70 74.60L283.74 74.63L283.63 74.53Q289.75 75.92 290.62 85.18L290.60 85.16L290.75 85.32Q290.69 85.52 290.76 87.79L290.68 87.70L290.85 87.87Q290.95 92.64 288.15 94.51L288.19 94.54L288.01 94.37Q285.75 96.03 277.75 96.83ZM281.79 100.93L281.67 100.82L287.50 100.91L287.62 101.03Q290.58 101.13 293.24 99.86L293.28 99.90L293.25 99.87Q295.13 98.49 295.27 95.22L295.39 95.35L295.38 95.33Q295.36 93.32 294.69 89.92L294.73 89.95L294.68 89.90Q293.25 81.95 289.59 78.69L289.56 78.66L289.17 77.94L288.79 77.42L288.63 77.06L288.66 77.09Q291.43 74.60 293.03 67.33L292.94 67.24L292.94 67.25Q292.97 66.61 293.10 65.15L293.22 65.26L293.10 65.15Q293.22 63.93 293.09 62.87L293.21 62.99L293.13 62.91Q292.90 60.41 290.83 59.54L290.73 59.44L290.96 59.60L290.62 59.40L290.57 59.35Q290.06 58.04 287.99 56.64L288.02 56.66L288.10 56.68L288.08 56.65Q284.55 55.40 277.43 55.07L277.45 55.09L277.45 55.09Q274.70 54.87 272.30 55.07L272.42 55.19L272.33 55.10Q271.04 55.28 268.78 55.54L268.61 55.38L268.62 55.39Q265.37 56.20 264.97 59.06L265.00 59.09L264.88 58.97Q264.80 59.83 264.87 61.23L264.99 61.35L264.94 61.30Q265.05 62.14 266.05 66.27L266.02 66.24L266.16 66.39Q267.45 71.94 270.52 74.27L270.66 74.42L270.78 74.54L270.67 74.43Q265.81 76.69 264.88 85.75L264.84 85.72L264.87 85.75Q264.65 89.72 264.65 91.32L264.61 91.28L264.64 91.31Q264.78 94.46 266.85 96.05L266.79 95.99L266.77 95.98Q267.05 96.19 267.52 96.52L267.44 96.45L267.45 96.45Q269.32 100.52 281.78 100.92ZM281.12 81.48L281.17 81.53L281.09 81.45Q282.78 81.40 284.31 82.20L284.20 82.09L284.30 82.19Q284.89 83.85 284.83 84.78L284.80 84.76L284.79 84.74Q284.80 85.23 284.80 85.76L284.83 85.78L284.80 85.76Q284.98 90.07 280.99 91.54L280.90 91.45L280.91 91.46Q279.56 92.04 278.16 91.84L278.15 91.83L278.19 91.88Q276.26 92.08 274.26 91.28L274.18 91.20L274.08 91.10Q273.67 90.01 273.80 88.28L273.81 88.29L273.76 88.25Q274.15 85.56 276.24 83.43L276.27 83.46L276.17 83.35Q278.34 81.30 281.14 81.50ZM281.55 64.92L281.53 64.90L281.44 64.81Q282.97 64.74 283.90 65.00L283.85 64.95L283.79 66.29L283.79 66.29Q283.84 68.81 282.25 70.58L282.14 70.48L282.26 70.60Q280.59 72.28 278.19 71.95L278.17 71.93L278.32 72.08Q276.45 71.94 275.71 71.54L275.73 71.55L275.75 71.58Q275.73 71.16 275.53 69.96L275.56 69.99L275.41 69.84Q275.09 67.52 277.22 66.05L277.13 65.97L277.21 66.05Q279.14 64.90 281.60 64.97Z"/><path d="M4 80 C173 17,154 72,329 80" stroke="#5fecec" fill="none"/><path fill="#e3819a" d="M51.60 77.36L51.53 77.29L51.62 77.37Q48.27 77.30 46.14 79.63L46.17 79.66L46.19 79.67Q44.13 82.08 43.86 85.41L43.78 85.33L43.81 85.35Q43.36 88.97 45.49 90.74L45.48 90.73L45.54 90.78Q47.75 92.63 51.48 92.50L51.48 92.50L51.44 92.45Q55.51 92.20 57.18 90.53L57.20 90.55L57.07 90.43Q58.97 87.99 58.77 84.79L58.79 84.81L58.84 84.87Q58.53 81.49 56.63 79.39L56.57 79.33L56.62 79.38Q54.69 77.25 51.49 77.25ZM51.57 60.87L51.59 60.89L51.57 60.87Q49.13 60.70 46.80 61.56L46.65 61.41L46.62 61.39Q44.48 62.91 44.88 66.18L44.87 66.17L44.77 66.07Q45.73 72.69 51.59 72.69L51.55 72.65L51.66 72.75Q54.38 73.08 56.11 71.08L56.12 71.09L55.94 70.90Q57.80 69.04 57.87 66.31L57.89 66.33L57.79 66.23Q57.89 63.13 56.62 62.06L56.70 62.14L56.77 62.21Q53.73 60.64 51.47 60.77ZM51.06 96.81L51.02 96.77L45.78 96.86L45.71 96.78Q43.12 96.86 40.78 95.32L40.75 95.29L40.67 95.21Q38.39 93.33 38.65 88.33L38.58 88.26L38.62 88.29Q39.40 76.29 45.73 74.55L45.76 74.59L45.63 74.45Q41.81 73.03 39.48 63.63L39.44 63.60L39.41 63.57Q38.76 61.06 38.90 59.66L38.90 59.66L38.92 59.68Q39.44 55.94 45.90 55.87L45.96 55.93L45.98 55.95Q53.29 55.73 55.82 56.07L55.87 56.11L55.79 56.03Q62.59 57.04 63.39 60.57L63.33 60.51L63.38 60.56Q63.61 61.65 63.61 62.32L63.65 62.36L63.62 62.33Q63.59 63.50 63.26 64.57L63.28 64.59L63.27 64.57Q62.08 71.85 56.95 74.51L57.06 74.62L57.13 74.69Q63.11 75.95 63.98 85.21L64.02 85.25L63.96 85.18Q64.10 85.60 64.17 87.86L64.19 87.88L64.09 87.78Q64.18 92.53 61.38 94.40L61.49 94.51L61.41 94.43Q59.02 95.97 51.02 96.77ZM54.98 100.79L54.97 100.78L60.93 101.02L60.84 100.92Q63.94 101.15 66.60 99.89L66.59 99.87L66.65 99.94Q68.65 98.67 68.79 95.41L68.73 95.35L68.68 95.30Q68.72 93.35 68.06 89.95L68.06 89.96L68.18 90.08Q66.44 81.81 62.78 78.54L62.82 78.58L62.51 77.94L62.26 77.56L61.97 77.07L61.83 76.92Q64.73 74.56 66.33 67.30L66.26 67.24L66.44 67.41Q66.31 66.62 66.44 65.15L66.52 65.23L66.46 65.17Q66.65 64.03 66.52 62.96L66.59 63.03L66.46 62.91Q66.23 60.41 64.17 59.55L64.16 59.54L64.22 59.53L63.83 59.28L63.84 59.29Q63.40 58.05 61.33 56.65L61.39 56.71L61.47 56.72L61.49 56.73Q57.89 55.40 50.76 55.07L50.84 55.15L50.87 55.18Q48.01 54.85 45.61 55.05L45.68 55.12L45.69 55.12Q44.41 55.31 42.14 55.58L42.09 55.52L42.00 55.43Q38.71 56.21 38.31 59.08L38.31 59.07L38.17 58.93Q38.13 59.83 38.20 61.22L38.26 61.28L38.31 61.34Q38.40 62.15 39.39 66.29L39.51 66.40L39.44 66.33Q40.92 72.08 43.99 74.41L43.86 74.29L44.09 74.51L44.01 74.43Q39.19 76.74 38.26 85.80L38.33 85.87L38.24 85.79Q37.97 89.71 37.97 91.31L38.00 91.34L38.01 91.35Q37.96 94.30 40.03 95.90L40.21 96.08L40.09 95.96Q40.38 96.18 40.84 96.52L40.79 96.46L40.75 96.43Q42.63 100.50 55.09 100.90ZM54.35 81.37L54.53 81.55L54.38 81.40Q56.12 81.42 57.66 82.21L57.66 82.22L57.66 82.22Q58.30 83.93 58.24 84.86L58.17 84.79L58.08 84.70Q58.14 85.23 58.14 85.76L58.14 85.76L58.24 85.87Q58.22 89.97 54.22 91.44L54.22 91.44L54.26 91.47Q52.82 91.97 51.42 91.77L51.39 91.74L51.42 91.76Q49.54 92.02 47.54 91.22L47.43 91.11L47.53 91.21Q47.06 90.07 47.19 88.34L47.26 88.41L47.20 88.35Q47.36 85.45 49.46 83.32L49.60 83.46L49.58 83.43Q51.64 81.26 54.44 81.46ZM54.82 64.85L54.93 64.96L54.86 64.90Q56.27 64.71 57.20 64.98L57.23 65.00L57.07 66.24L57.11 66.28Q57.27 68.90 55.67 70.67L55.57 70.56L55.64 70.64Q53.99 72.35 51.59 72.02L51.49 71.91L51.62 72.05Q49.82 71.98 49.09 71.58L49.15 71.65L49.19 71.69Q49.01 71.10 48.81 69.90L48.88 69.98L48.76 69.85Q48.33 67.43 50.47 65.97L50.46 65.96L50.42 65.92Q52.31 64.75 54.78 64.81Z"/><path d="M13 76 C158 118,187 104,340 68" stroke="#8a69ec" fill="none"/><path d="M6 62 C168 41,175 58,324 109" stroke="#9d84eb" fill="none"/><path d="M17 135 C182 86,176 98,329 32" stroke="#6c42ea" fill="none"/><path d="M8 97 C177 105,174 45,334 63" stroke="#76e492" fill="none"/><path d="M7 55 C184 54,165 114,336 49" stroke="#4c96e0" fill="none"/><path d="M21 67 C179 76,188 92,339 27" stroke="#7de296" fill="none"/><path d="M15 131 C192 95,166 9,334 54" stroke="#47dada" fill="none"/><path d="M8 13 C180 59,152 8,339 85" stroke="#dc65be" fill="none"/><path d="M16 8 C162 135,177 77,321 127" stroke="#e06060" fill="none"/><path d="M10 39 C162 41,163 82,330 110" stroke="#52e9c3" fill="none"/><path d="M11 64 C180 70,156 12,323 106" stroke="#82e2ca" fill="none"/><path d="M4 119 C190 80,182 11,340 85" stroke="#e68de6" fill="none"/><path d="M18 105 C178 44,190 74,336 134" stroke="#aae470" fill="none"/><path d="M16 44 C179 1,177 114,338 136" stroke="#b587e2" fill="none"/><path d="M20 85 C180 71,170 126,334 126" stroke="#e77d7d" fill="none"/><path d="M5 122 C182 64,166 85,328 106" stroke="#71df4d" fill="none"/><path d="M3 51 C164 132,158 15,335 126" stroke="#70ea8e" fill="none"/><path d="M9 3 C157 34,153 5,332 70" stroke="#e3bf53" fill="none"/></svg>