<svg xmlns="http://www.w3.org/2000/svg" width="342" height="140" viewBox="0,0,342,140"><path d="M16 76 C177 114,156 22,337 21" stroke="#e0bf5b" fill="none"/><path d="M14 131 C190 131,164 131,322 51" stroke="#cd6ded" fill="none"/><path d="M15 84 C167 122,185 33,327 108" stroke="#47dada" fill="none"/><path d="M8 26 C180 134,163 9,332 37" stroke="#63e2e2" fill="none"/><path d="M14 75 C162 78,183 44,338 110" stroke="#315ee6" fill="none"/><path d="M10 49 C161 105,179 35,324 10" stroke="#de6cc2" fill="none"/><path fill="#db7b5b" d="M217.21 96.44L217.23 96.45L217.09 96.32Q210.06 96.66 208.36 92.68L208.38 92.70L208.50 92.82Q209.80 91.18 212.48 88.11L212.47 88.11L212.44 88.07Q213.32 91.57 218.47 91.76L218.38 91.67L218.41 91.69Q224.29 91.90 227.10 89.62L227.04 89.57L227.00 89.52Q229.40 86.77 229.27 82.13L229.38 82.24L229.36 82.23Q229.17 73.61 220.94 74.00L220.91 73.97L220.79 73.85Q216.12 74.27 213.12 76.43L212.99 76.29L212.53 76.09L212.16 75.86L212.02 75.71Q212.78 70.47 212.58 65.77L212.49 65.68L212.51 65.69Q212.23 61.11 211.64 55.43L211.72 55.51L211.72 55.51Q217.93 57.09 224.46 56.89L224.59 57.02L224.51 56.95Q231.11 56.89 237.25 54.74L237.26 54.75L236.15 57.23L236.16 57.24Q235.71 58.61 235.38 60.05L235.36 60.03L235.37 60.04Q229.90 61.68 223.25 61.68L223.41 61.85L223.37 61.81Q220.95 61.87 218.41 61.61L218.35 61.55L218.34 61.54Q218.26 62.76 217.67 70.40L217.52 70.25L217.68 70.41Q219.11 69.62 222.64 69.36L222.54 69.27L222.64 69.37Q228.98 69.71 231.46 72.58L231.36 72.48L231.53 72.64Q233.69 75.07 234.15 81.66L234.33 81.84L234.20 81.71Q234.77 89.00 232.68 92.46L232.58 92.35L232.65 92.43Q229.14 95.64 223.46 96.04L223.53 96.10L223.50 96.07Q221.77 96.17 217.20 96.43ZM227.50 100.26L227.52 100.29L227.59 100.36Q233.29 100.32 236.56 98.42L236.71 98.58L236.64 98.51Q238.27 95.83 238.27 92.24L238.30 92.27L238.35 92.32Q238.35 87.03 236.72 79.98L236.72 79.99L236.75 80.02Q235.98 76.90 233.89 74.49L233.96 74.55L234.13 74.78L233.56 74.09L233.10 73.89L233.05 73.84Q232.63 72.70 231.52 71.53L231.47 71.48L231.50 71.57L231.48 71.55Q228.75 68.56 222.42 68.56L222.53 68.67L222.09 68.69L222.11 68.71Q222.20 67.69 222.53 65.79L222.44 65.71L222.56 65.83Q231.04 65.96 237.96 63.15L237.91 63.10L238.03 63.22Q238.69 60.75 240.32 55.92L240.29 55.89L236.67 57.49L236.71 57.53Q237.28 55.49 238.13 53.53L238.14 53.55L238.29 53.69Q231.66 56.13 224.61 56.26L224.50 56.15L224.65 56.30Q217.53 56.42 210.74 54.53L210.69 54.48L210.81 54.60Q212.02 62.20 212.02 69.77L211.96 69.72L211.92 69.68Q211.94 72.96 211.75 76.22L211.78 76.26L211.68 76.16Q212.16 76.51 213.14 77.03L213.21 77.10L213.08 76.97Q213.78 76.69 214.89 76.10L214.95 76.16L214.80 76.02Q214.74 77.32 214.34 79.93L214.34 79.93L214.35 79.94Q215.15 80.34 215.86 80.73L215.74 80.61L215.93 80.80Q220.60 77.70 223.79 77.70L223.75 77.66L223.70 77.60Q226.02 77.64 228.04 78.75L228.14 78.84L228.11 78.82Q228.66 80.55 228.73 82.18L228.85 82.30L228.84 82.29Q228.84 86.60 227.08 88.49L227.20 88.61L227.18 88.59Q224.86 90.71 221.01 91.10L220.88 90.97L220.97 91.06Q219.30 91.16 218.13 91.03L218.02 90.92L218.19 91.08Q216.66 90.79 215.35 90.21L215.38 90.23L215.25 89.78L215.17 90.09L215.10 90.02Q213.65 89.09 212.73 86.81L212.86 86.93L212.74 86.81Q210.50 89.27 207.63 92.92L207.69 92.99L207.58 92.88Q208.24 94.13 209.68 95.76L209.67 95.75L209.61 95.69Q211.52 98.90 216.35 99.75L216.23 99.64L216.30 99.70Q218.39 100.16 227.59 100.36Z"/><path d="M6 8 C179 7,190 34,322 100" stroke="#41dcb5" fill="none"/><path d="M17 64 C168 79,158 18,322 10" stroke="#8e4ad3" fill="none"/><path d="M9 27 C189 61,170 130,325 48" stroke="#8e45d7" fill="none"/><path d="M6 42 C174 38,164 24,322 35" stroke="#914dd5" fill="none"/><path d="M7 31 C163 69,155 107,328 14" stroke="#edba86" fill="none"/><path d="M18 32 C168 104,185 99,323 39" stroke="#51bce0" fill="none"/><path d="M5 105 C168 66,154 125,322 132" stroke="#e9809a" fill="none"/><path d="M7 133 C178 92,160 81,335 25" stroke="#67da67" fill="none"/><path fill="#977ee0" d="M108.29 77.13L108.28 77.12L108.37 77.21Q105.20 77.24 103.11 79.52L103.06 79.47L103.09 79.50Q100.92 81.70 100.65 84.96L100.77 85.08L100.67 84.98Q100.39 88.68 102.48 90.41L102.40 90.33L102.43 90.36Q104.57 92.13 108.22 92.00L108.27 92.06L108.21 91.99Q112.27 91.81 113.90 90.18L113.80 90.08L113.78 90.05Q115.64 87.68 115.45 84.55L115.45 84.55L115.39 84.49Q115.24 81.34 113.38 79.28L113.37 79.27L113.33 79.23Q111.42 77.13 108.29 77.13ZM108.31 61.03L108.27 60.99L108.29 61.01Q105.93 60.87 103.65 61.72L103.61 61.68L103.52 61.59Q101.26 62.92 101.65 66.12L101.85 66.31L101.83 66.29Q102.52 72.53 108.26 72.53L108.26 72.53L108.36 72.63Q111.06 72.98 112.75 71.02L112.67 70.93L112.64 70.90Q114.45 69.06 114.52 66.39L114.52 66.39L114.39 66.26Q114.58 63.32 113.34 62.27L113.38 62.31L113.29 62.22Q110.44 60.81 108.22 60.94ZM107.87 96.28L107.72 96.14L102.56 96.20L102.57 96.21Q100.01 96.25 97.72 94.75L97.66 94.70L97.78 94.81Q95.26 92.68 95.52 87.79L95.54 87.80L95.68 87.95Q96.48 76.22 102.68 74.52L102.64 74.48L102.61 74.45Q98.68 72.87 96.40 63.67L96.44 63.71L96.43 63.70Q95.84 61.29 95.97 59.92L95.99 59.94L95.88 59.83Q96.54 56.31 102.87 56.24L102.79 56.16L102.77 56.14Q110.01 56.01 112.49 56.34L112.59 56.44L112.53 56.38Q119.06 57.22 119.84 60.68L119.97 60.81L119.97 60.81Q120.16 61.84 120.16 62.50L120.10 62.44L120.10 62.44Q120.10 63.62 119.78 64.67L119.83 64.72L119.74 64.63Q118.68 71.86 113.66 74.47L113.68 74.49L113.68 74.50Q119.77 75.95 120.62 85.02L120.64 85.04L120.51 84.91Q120.58 85.24 120.64 87.46L120.66 87.47L120.54 87.36Q120.83 92.22 118.09 94.04L118.07 94.03L117.99 93.94Q115.68 95.48 107.85 96.27ZM111.78 100.26L111.83 100.31L117.43 100.30L117.41 100.28Q120.34 100.40 122.95 99.16L123.10 99.31L123.10 99.31Q125.06 98.07 125.19 94.87L125.07 94.76L125.16 94.85Q125.18 92.90 124.52 89.58L124.61 89.66L124.60 89.65Q123.03 81.69 119.44 78.49L119.30 78.35L119.00 77.72L118.64 77.23L118.52 76.91L118.39 76.78Q121.29 74.53 122.85 67.41L122.89 67.45L122.76 67.32Q122.78 66.68 122.91 65.25L123.02 65.36L122.89 65.23Q123.08 64.11 122.95 63.07L122.93 63.05L123.02 63.14Q122.63 60.53 120.60 59.68L120.58 59.66L120.67 59.68L120.43 59.58L120.32 59.46Q119.97 58.33 117.94 56.96L118.02 57.03L117.98 56.93L117.91 56.85Q114.52 55.69 107.54 55.36L107.58 55.40L107.72 55.54Q105.02 55.32 102.67 55.52L102.64 55.48L102.50 55.35Q101.25 55.53 99.03 55.79L98.97 55.73L99.05 55.81Q95.65 56.39 95.26 59.20L95.32 59.26L95.28 59.22Q95.20 60.05 95.26 61.42L95.25 61.41L95.21 61.37Q95.52 62.40 96.50 66.45L96.50 66.45L96.42 66.36Q97.86 71.98 100.86 74.26L100.92 74.32L100.93 74.33L100.97 74.38Q96.23 76.62 95.32 85.50L95.27 85.45L95.22 85.40Q94.89 89.18 94.89 90.75L95.02 90.87L94.98 90.84Q95.12 93.92 97.15 95.48L97.15 95.49L97.14 95.47Q97.41 95.68 97.86 96.00L97.72 95.86L97.85 95.99Q99.45 99.74 111.65 100.13ZM111.07 81.15L111.19 81.27L111.21 81.29Q112.81 81.19 114.31 81.98L114.28 81.95L114.12 81.78Q114.96 83.66 114.89 84.58L114.83 84.52L114.83 84.51Q114.86 85.01 114.86 85.53L114.83 85.50L114.94 85.60Q114.90 89.61 110.98 91.05L110.94 91.00L111.04 91.10Q109.56 91.52 108.19 91.32L108.17 91.30L108.26 91.39Q106.22 91.44 104.26 90.65L104.38 90.77L104.39 90.78Q103.92 89.66 104.05 87.97L104.04 87.95L104.11 88.02Q104.24 85.15 106.29 83.06L106.36 83.12L106.40 83.17Q108.45 81.07 111.19 81.27ZM111.45 64.88L111.54 64.98L111.55 64.99Q112.90 64.77 113.81 65.03L113.85 65.07L113.86 66.44L113.74 66.33Q113.87 68.87 112.30 70.60L112.29 70.59L112.20 70.50Q110.75 72.35 108.40 72.02L108.31 71.93L108.36 71.97Q106.56 71.87 105.84 71.48L105.84 71.48L105.98 71.62Q105.84 71.09 105.64 69.91L105.68 69.95L105.76 70.03Q105.22 67.54 107.31 66.10L107.26 66.04L107.26 66.05Q109.12 64.91 111.54 64.97Z"/><path d="M11 108 C168 111,179 69,329 114" stroke="#50e1e1" fill="none"/><path d="M13 22 C152 57,169 68,333 27" stroke="#8664eb" fill="none"/><path d="M5 117 C191 44,159 4,325 3" stroke="#6ec9e7" fill="none"/><path d="M15 75 C159 87,191 112,334 40" stroke="#9a7feb" fill="none"/><path fill="#e37cc9" d="M171.52 73.67L171.59 73.75L171.65 73.80Q172.84 73.62 175.26 73.36L175.43 73.54L175.36 73.46Q175.24 74.52 175.24 75.63L175.34 75.74L175.20 77.74L175.20 77.74Q173.85 77.83 172.41 77.96L172.44 77.99L172.51 78.06Q170.96 78.01 169.53 77.94L169.64 78.06L169.56 77.98Q164.60 88.48 158.72 96.38L158.86 96.52L158.84 96.50Q154.44 97.51 152.22 98.56L152.17 98.51L152.19 98.53Q159.28 88.78 164.50 78.01L164.45 77.96L159.97 77.98L160.09 78.10Q160.09 75.82 159.90 73.54L159.90 73.54L159.73 73.37Q163.18 73.81 166.70 73.81L166.66 73.77L169.92 67.44L169.91 67.43Q171.65 64.21 173.74 61.47L173.63 61.36L173.75 61.48Q170.99 61.66 168.25 61.66L168.16 61.57L168.33 61.74Q157.89 61.74 151.43 57.96L151.37 57.90L150.19 54.88L150.18 54.88Q149.61 53.46 148.96 51.96L148.90 51.90L148.98 51.99Q156.45 56.51 166.24 56.91L166.23 56.90L166.20 56.87Q175.01 57.26 183.82 53.87L183.89 53.93L183.78 53.82Q183.56 54.65 182.71 56.15L182.67 56.11L182.62 56.05Q176.44 64.24 171.54 73.70ZM185.43 58.48L185.42 58.46L187.07 54.96L187.12 55.02Q185.43 55.81 182.56 57.05L182.65 57.13L182.94 56.58L182.97 56.61Q183.14 56.31 183.33 56.12L183.24 56.03L183.25 56.03Q183.96 54.92 185.20 52.63L185.17 52.60L185.17 52.60Q176.15 56.64 166.29 56.24L166.28 56.23L166.26 56.21Q155.98 55.79 147.83 50.70L147.70 50.57L147.74 50.61Q149.56 53.87 151.00 58.44L151.04 58.48L151.00 58.44Q152.91 59.56 154.28 60.08L154.21 60.02L154.14 59.95Q154.53 60.66 155.31 63.86L155.17 63.71L155.16 63.71Q160.77 66.05 170.23 65.79L170.16 65.72L170.08 65.64Q169.64 66.70 166.25 73.16L166.24 73.15L166.17 73.08Q162.63 73.08 159.24 72.75L159.31 72.82L159.23 72.74Q159.33 74.15 159.33 75.65L159.51 75.83L159.51 78.76L162.21 78.59L162.37 81.16L162.31 81.11Q155.64 93.81 150.87 99.95L150.81 99.89L150.72 99.80Q153.64 98.67 156.45 97.83L156.37 97.74L156.26 97.64Q155.21 99.33 152.86 102.27L152.80 102.21L152.82 102.23Q158.29 100.39 162.47 99.99L162.48 100.01L162.33 99.86Q167.42 93.46 172.78 81.85L172.90 81.98L178.72 82.24L178.75 82.27Q178.55 80.64 178.55 79.07L178.54 79.06L178.53 75.98L178.53 75.98Q178.02 75.94 177.08 76.00L177.08 76.00L177.18 76.10Q176.28 76.21 175.82 76.21L175.69 76.08L175.80 76.19Q175.65 75.85 175.72 75.59L175.77 75.64L175.82 75.23L175.71 75.12Q180.15 66.44 185.44 58.48Z"/><path d="M7 26 C189 37,162 77,323 10" stroke="#44d844" fill="none"/><path d="M8 32 C154 73,166 49,331 116" stroke="#6cd34a" fill="none"/><path d="M4 84 C169 18,169 87,326 6" stroke="#e9c24d" fill="none"/><path d="M7 25 C159 97,169 27,322 49" stroke="#88d6f0" fill="none"/><path d="M18 129 C188 5,182 47,340 108" stroke="#6e4add" fill="none"/><path d="M16 83 C178 3,192 133,335 72" stroke="#e4c25c" fill="none"/><path d="M20 71 C188 88,156 50,339 93" stroke="#dfdf3e" fill="none"/><path d="M17 129 C186 88,186 137,338 7" stroke="#bb5bdb" fill="none"/><path d="M19 12 C173 129,165 34,324 86" stroke="#bfe943" fill="none"/><path fill="#ba85ee" d="M51.61 77.11L51.58 77.09L51.64 77.15Q48.50 77.20 46.41 79.49L46.31 79.38L46.32 79.39Q44.26 81.71 44.00 84.97L44.11 85.08L43.98 84.95Q43.74 88.70 45.83 90.43L45.75 90.35L45.90 90.49Q47.87 92.10 51.52 91.97L51.53 91.98L51.52 91.97Q55.54 91.75 57.17 90.12L57.09 90.03L57.20 90.14Q58.83 87.53 58.63 84.40L58.75 84.52L58.70 84.47Q58.44 81.20 56.58 79.15L56.65 79.21L56.76 79.33Q54.88 77.25 51.75 77.25ZM51.55 60.94L51.65 61.03L51.55 60.94Q49.13 60.73 46.85 61.58L46.96 61.69L46.83 61.56Q44.66 62.99 45.05 66.18L45.17 66.30L44.99 66.12Q45.87 72.55 51.62 72.55L51.59 72.53L51.65 72.59Q54.30 72.89 56.00 70.93L55.96 70.90L56.15 71.08Q57.80 69.07 57.86 66.40L57.85 66.39L57.83 66.37Q57.91 63.31 56.67 62.27L56.78 62.38L56.68 62.28Q53.85 60.89 51.63 61.02ZM51.09 96.17L51.08 96.16L45.94 96.24L45.85 96.16Q43.38 96.30 41.10 94.80L41.08 94.78L41.12 94.82Q38.62 92.71 38.88 87.81L38.95 87.89L38.87 87.80Q39.74 76.14 45.94 74.44L45.99 74.49L45.95 74.46Q42.06 72.91 39.77 63.71L39.65 63.59L39.71 63.65Q39.10 61.21 39.23 59.84L39.36 59.97L39.30 59.91Q39.78 56.21 46.11 56.15L46.08 56.12L46.22 56.26Q53.33 56.00 55.81 56.32L55.89 56.40L55.93 56.44Q62.43 57.27 63.22 60.72L63.29 60.79L63.15 60.65Q63.40 61.75 63.40 62.41L63.44 62.45L63.51 62.52Q63.32 63.51 63.00 64.55L63.02 64.57L63.19 64.74Q62.06 71.90 57.03 74.51L57.01 74.48L57.08 74.56Q63.01 75.85 63.86 84.93L63.98 85.04L63.88 84.95Q63.95 85.28 64.02 87.50L63.89 87.38L64.01 87.50Q64.12 92.17 61.38 94.00L61.43 94.05L61.42 94.04Q59.07 95.54 51.24 96.33ZM55.12 100.27L55.07 100.22L60.74 100.28L60.80 100.34Q63.76 100.49 66.37 99.25L66.32 99.20L66.33 99.21Q68.30 97.98 68.43 94.79L68.52 94.87L68.40 94.75Q68.41 92.81 67.76 89.48L67.88 89.60L67.80 89.52Q66.35 81.68 62.76 78.48L62.61 78.33L62.37 77.76L62.08 77.34L61.77 76.83L61.71 76.78Q64.60 74.51 66.17 67.40L66.11 67.34L66.14 67.37Q66.12 66.69 66.25 65.26L66.33 65.34L66.31 65.32Q66.41 64.11 66.28 63.07L66.21 63.00L66.30 63.08Q65.97 60.54 63.95 59.69L63.94 59.69L64.02 59.70L63.68 59.49L63.66 59.47Q63.21 58.23 61.18 56.86L61.33 57.02L61.31 56.92L61.24 56.85Q58.00 55.83 51.01 55.50L50.90 55.39L50.94 55.43Q48.24 55.21 45.89 55.40L45.95 55.47L46.01 55.53Q44.46 55.41 42.24 55.68L42.27 55.70L42.31 55.74Q39.05 56.46 38.66 59.27L38.66 59.27L38.62 59.23Q38.60 60.12 38.67 61.49L38.56 61.39L38.57 61.40Q38.87 62.42 39.85 66.47L39.76 66.37L39.73 66.34Q41.25 72.05 44.26 74.33L44.21 74.29L44.33 74.41L44.27 74.34Q39.50 76.56 38.59 85.44L38.61 85.46L38.61 85.46Q38.34 89.30 38.34 90.86L38.34 90.86L38.25 90.78Q38.46 93.92 40.49 95.49L40.36 95.36L40.42 95.43Q40.67 95.60 41.12 95.93L41.17 95.97L41.12 95.92Q42.87 99.83 55.07 100.22ZM54.46 81.21L54.57 81.31L54.46 81.21Q56.00 81.05 57.50 81.83L57.52 81.85L57.60 81.93Q58.10 83.48 58.04 84.39L58.14 84.49L58.04 84.39Q58.27 85.08 58.27 85.60L58.30 85.63L58.16 85.49Q58.24 89.62 54.32 91.05L54.19 90.92L54.38 91.11Q52.82 91.44 51.45 91.25L51.60 91.39L51.49 91.28Q49.63 91.51 47.67 90.73L47.77 90.83L47.75 90.81Q47.33 89.74 47.46 88.04L47.34 87.92L47.42 88.00Q47.70 85.28 49.76 83.19L49.73 83.16L49.65 83.08Q51.80 81.09 54.54 81.29ZM54.85 64.96L54.84 64.94L54.94 65.05Q56.30 64.83 57.21 65.10L57.09 64.97L57.16 66.42L57.11 66.37Q57.13 68.80 55.56 70.52L55.52 70.48L55.67 70.64Q53.93 72.19 51.58 71.87L51.65 71.93L51.58 71.86Q50.00 71.98 49.28 71.59L49.26 71.57L49.31 71.61Q49.20 71.12 49.01 69.94L48.99 69.93L49.03 69.97Q48.46 67.44 50.55 66.01L50.59 66.04L50.73 66.18Q52.37 64.83 54.79 64.89Z"/><path d="M14 17 C191 54,167 38,322 11" stroke="#8c8ced" fill="none"/><path d="M3 33 C190 129,182 57,337 29" stroke="#a2f188" fill="none"/><path d="M16 70 C158 116,187 34,333 3" stroke="#ebbc8d" fill="none"/><path d="M2 9 C190 88,174 63,325 137" stroke="#e66e45" fill="none"/><path fill="#75df75" d="M278.40 77.24L278.25 77.09L278.41 77.24Q275.07 77.11 272.98 79.39L272.96 79.37L273.14 79.55Q271.06 81.85 270.80 85.11L270.70 85.00L270.73 85.03Q270.36 88.65 272.45 90.38L272.48 90.40L272.44 90.36Q274.58 92.14 278.23 92.01L278.28 92.07L278.19 91.97Q282.27 91.81 283.90 90.18L283.90 90.18L283.74 90.02Q285.60 87.63 285.40 84.50L285.37 84.47L285.39 84.49Q285.21 81.30 283.35 79.25L283.29 79.19L283.40 79.30Q281.54 77.25 278.41 77.25ZM278.19 60.91L278.24 60.96L278.32 61.04Q275.83 60.77 273.55 61.62L273.60 61.67L273.57 61.64Q271.36 63.02 271.75 66.21L271.81 66.27L271.80 66.27Q272.57 72.58 278.31 72.58L278.28 72.54L278.41 72.68Q280.96 72.88 282.65 70.92L282.78 71.05L282.79 71.05Q284.33 68.94 284.39 66.26L284.44 66.31L284.48 66.35Q284.60 63.34 283.36 62.30L283.41 62.34L283.43 62.37Q280.42 60.79 278.20 60.92ZM277.90 96.32L277.77 96.18L272.59 96.23L272.67 96.30Q270.05 96.29 267.76 94.79L267.65 94.68L267.70 94.73Q265.39 92.81 265.65 87.92L265.52 87.79L265.66 87.92Q266.41 76.15 272.61 74.45L272.58 74.42L272.57 74.41Q268.73 72.92 266.45 63.72L266.32 63.59L266.35 63.62Q265.73 61.18 265.86 59.81L265.90 59.84L265.89 59.83Q266.47 56.24 272.80 56.17L272.70 56.07L272.82 56.19Q279.94 55.93 282.42 56.26L282.58 56.42L282.52 56.37Q289.03 57.19 289.81 60.65L289.80 60.64L289.81 60.65Q290.14 61.83 290.14 62.48L290.05 62.39L290.16 62.50Q290.05 63.57 289.73 64.61L289.73 64.62L289.67 64.55Q288.78 71.95 283.75 74.56L283.76 74.57L283.71 74.52Q289.65 75.82 290.49 84.89L290.46 84.86L290.63 85.03Q290.64 85.30 290.70 87.52L290.58 87.40L290.59 87.41Q290.66 92.04 287.91 93.87L287.92 93.87L288.02 93.98Q285.58 95.38 277.74 96.16ZM281.77 100.25L281.79 100.27L287.53 100.40L287.45 100.32Q290.32 100.38 292.93 99.14L293.06 99.27L293.02 99.24Q294.92 97.93 295.05 94.73L295.19 94.87L295.15 94.84Q295.12 92.85 294.47 89.52L294.62 89.68L294.61 89.66Q292.89 81.55 289.30 78.35L289.44 78.49L288.95 77.67L288.81 77.40L288.48 76.88L288.43 76.83Q291.21 74.45 292.77 67.33L292.79 67.35L292.80 67.36Q292.85 66.76 292.98 65.32L292.94 65.28L293.00 65.34Q293.07 64.11 292.94 63.07L292.97 63.09L292.92 63.04Q292.61 60.51 290.58 59.66L290.58 59.65L290.73 59.75L290.41 59.55L290.42 59.56Q289.94 58.30 287.92 56.93L287.90 56.91L287.91 56.86L288.01 56.96Q284.56 55.72 277.57 55.40L277.63 55.45L277.66 55.48Q275.00 55.31 272.66 55.50L272.58 55.43L272.59 55.44Q271.15 55.43 268.93 55.69L268.95 55.72L268.94 55.70Q265.70 56.45 265.31 59.25L265.20 59.14L265.35 59.29Q265.19 60.05 265.26 61.42L265.36 61.52L265.34 61.50Q265.47 62.35 266.45 66.40L266.49 66.43L266.54 66.48Q267.78 71.90 270.78 74.18L270.92 74.33L270.98 74.39L270.99 74.39Q266.25 76.64 265.34 85.51L265.29 85.47L265.21 85.39Q265.02 89.31 265.02 90.88L264.96 90.81L264.90 90.75Q265.10 93.89 267.12 95.46L267.15 95.49L267.16 95.50Q267.40 95.67 267.86 96.00L267.71 95.85L267.81 95.95Q269.44 99.74 281.65 100.13ZM281.13 81.21L281.16 81.23L281.16 81.24Q282.64 81.02 284.14 81.81L284.31 81.97L284.17 81.83Q284.91 83.61 284.84 84.53L284.84 84.52L284.72 84.40Q284.87 85.01 284.87 85.53L284.92 85.59L284.94 85.61Q284.80 89.51 280.88 90.94L280.96 91.02L280.90 90.96Q279.51 91.47 278.14 91.27L278.20 91.33L278.16 91.29Q276.34 91.56 274.38 90.78L274.38 90.77L274.35 90.75Q273.82 89.56 273.95 87.86L273.96 87.88L274.02 87.93Q274.36 85.28 276.42 83.19L276.31 83.08L276.30 83.07Q278.41 81.03 281.15 81.23ZM281.49 64.93L281.44 64.88L281.55 64.99Q282.91 64.78 283.82 65.04L283.92 65.13L283.75 66.34L283.84 66.43Q283.79 68.80 282.23 70.53L282.33 70.63L282.19 70.49Q280.73 72.32 278.38 72.00L278.43 72.04L278.33 71.95Q276.74 72.05 276.02 71.66L275.88 71.53L275.88 71.52Q275.95 71.20 275.75 70.02L275.76 70.03L275.72 69.99Q275.14 67.45 277.23 66.02L277.37 66.16L277.36 66.15Q279.05 64.83 281.46 64.90Z"/><path d="M7 27 C173 56,166 51,323 32" stroke="#5396d9" fill="none"/><path d="M20 10 C151 41,175 48,337 12" stroke="#f0f07f" fill="none"/><path d="M18 32 C158 20,166 21,329 55" stroke="#b5e287" fill="none"/><path d="M5 40 C182 43,186 129,337 7" stroke="#adea70" fill="none"/><path d="M9 119 C188 37,165 134,322 26" stroke="#70eaad" fill="none"/><path d="M7 48 C175 109,188 8,323 46" stroke="#7590df" fill="none"/><path d="M19 10 C181 88,182 117,340 31" stroke="#df70df" fill="none"/><path d="M17 99 C157 41,171 113,333 27" stroke="#e890bc" fill="none"/><path d="M15 46 C187 130,169 48,333 68" stroke="#d7985a" fill="none"/></svg>