<svg xmlns="http://www.w3.org/2000/svg" width="342" height="140" viewBox="0,0,342,140"><path d="M5 44 C190 51,150 73,326 94" stroke="#e6b27e" fill="none"/><path d="M13 101 C155 56,183 86,323 17" stroke="#9350d7" fill="none"/><path d="M17 18 C170 80,179 86,333 29" stroke="#a5e06a" fill="none"/><path d="M5 73 C168 90,161 75,337 104" stroke="#d246d2" fill="none"/><path d="M11 111 C188 97,191 95,336 34" stroke="#37e18c" fill="none"/><path d="M3 135 C190 43,189 115,338 130" stroke="#de9e5e" fill="none"/><path d="M20 6 C164 95,185 90,326 105" stroke="#82e462" fill="none"/><path d="M13 65 C190 66,174 94,335 88" stroke="#e9c458" fill="none"/><path d="M4 50 C163 98,180 102,337 112" stroke="#b275ef" fill="none"/><path d="M8 93 C166 73,156 126,331 48" stroke="#9b5adc" fill="none"/><path fill="#9b7fef" d="M62.40 78.22L62.36 78.17L62.30 78.12Q58.80 78.25 56.43 80.84L56.32 80.73L56.29 80.71Q53.92 83.30 53.62 87.00L53.70 87.08L53.64 87.02Q53.32 91.22 55.69 93.18L55.69 93.18L55.68 93.17Q58.01 95.10 62.16 94.95L62.09 94.87L62.20 94.98Q66.79 94.76 68.64 92.91L68.63 92.90L68.62 92.89Q70.57 90.03 70.35 86.47L70.42 86.53L70.29 86.41Q70.04 82.75 67.93 80.41L68.07 80.55L68.10 80.58Q65.94 78.21 62.39 78.21ZM62.28 59.80L62.16 59.68L62.23 59.75Q59.60 59.63 57.00 60.60L56.98 60.57L56.86 60.45Q54.37 62.04 54.81 65.67L54.91 65.77L54.80 65.66Q55.88 73.03 62.40 73.03L62.26 72.90L62.28 72.91Q65.31 73.28 67.24 71.06L67.23 71.05L67.34 71.16Q69.25 68.91 69.32 65.88L69.33 65.88L69.34 65.90Q69.37 62.36 67.96 61.18L68.13 61.35L68.05 61.27Q64.69 59.54 62.17 59.69ZM61.78 99.83L61.66 99.71L55.82 99.79L55.75 99.72Q52.87 99.81 50.27 98.10L50.15 97.99L50.22 98.05Q47.51 95.78 47.80 90.23L47.83 90.25L47.92 90.35Q48.74 76.94 55.78 75.01L55.88 75.11L55.80 75.03Q51.31 73.21 48.72 62.76L48.76 62.80L48.69 62.73Q48.02 59.99 48.17 58.43L48.30 58.56L48.25 58.51Q48.75 54.27 55.94 54.19L55.94 54.20L56.12 54.38Q64.20 54.09 67.02 54.46L67.13 54.57L67.09 54.53Q74.51 55.50 75.40 59.43L75.53 59.56L75.51 59.54Q75.57 60.57 75.57 61.31L75.67 61.41L75.62 61.36Q75.59 62.66 75.22 63.84L75.21 63.84L75.23 63.85Q74.15 72.18 68.44 75.15L68.43 75.13L68.37 75.07Q75.14 76.58 76.10 86.88L76.25 87.03L76.22 87.00Q76.16 87.24 76.24 89.76L76.26 89.78L76.20 89.72Q76.40 95.11 73.29 97.18L73.32 97.22L73.30 97.19Q70.59 98.86 61.70 99.75ZM66.27 104.39L66.10 104.22L72.77 104.52L72.78 104.54Q75.98 104.55 78.95 103.14L78.95 103.14L79.07 103.26Q81.20 101.76 81.35 98.13L81.37 98.15L81.32 98.11Q81.40 95.96 80.66 92.18L80.74 92.26L80.65 92.17Q78.92 83.18 74.84 79.55L74.76 79.46L74.55 78.89L74.18 78.37L73.87 77.83L73.83 77.79Q76.95 75.06 78.72 66.98L78.81 67.06L78.82 67.08Q78.87 66.38 79.02 64.75L78.93 64.66L78.98 64.71Q79.11 63.36 78.96 62.18L79.01 62.23L78.84 62.06Q78.64 59.34 76.35 58.38L76.33 58.36L76.37 58.33L75.98 58.09L75.99 58.09Q75.44 56.66 73.15 55.10L73.14 55.10L73.29 55.17L73.34 55.22Q69.40 53.80 61.47 53.43L61.45 53.41L61.55 53.51Q58.55 53.32 55.88 53.54L55.78 53.45L55.83 53.50Q54.17 53.47 51.65 53.76L51.79 53.90L51.75 53.86Q48.01 54.64 47.57 57.83L47.60 57.87L47.59 57.85Q47.49 58.79 47.56 60.34L47.48 60.26L47.55 60.33Q47.66 61.26 48.78 65.86L48.75 65.83L48.82 65.90Q50.31 72.14 53.72 74.73L53.79 74.79L54.05 75.06L53.92 74.93Q48.56 77.50 47.53 87.58L47.44 87.49L47.51 87.56Q47.10 91.82 47.10 93.60L47.15 93.65L47.18 93.67Q47.20 97.03 49.49 98.81L49.57 98.88L49.68 98.99Q49.87 99.11 50.39 99.48L50.32 99.41L50.29 99.38Q52.31 103.84 66.16 104.29ZM65.55 82.77L65.48 82.71L65.53 82.76Q67.29 82.59 68.99 83.48L69.05 83.53L68.95 83.44Q69.75 85.42 69.68 86.46L69.62 86.40L69.57 86.35Q69.84 87.14 69.84 87.73L69.67 87.57L69.82 87.71Q69.81 92.30 65.37 93.93L65.22 93.78L65.35 93.91Q63.74 94.46 62.19 94.24L62.20 94.24L62.18 94.23Q60.13 94.55 57.91 93.66L57.85 93.60L57.79 93.54Q57.30 92.32 57.45 90.39L57.54 90.47L57.42 90.36Q57.68 87.20 60.01 84.83L59.98 84.80L60.10 84.92Q62.43 82.54 65.54 82.77ZM65.96 64.29L65.93 64.27L65.97 64.30Q67.48 64.04 68.52 64.33L68.48 64.30L68.58 65.95L68.52 65.88Q68.61 68.72 66.84 70.69L66.76 70.61L66.84 70.69Q65.07 72.66 62.40 72.29L62.28 72.18L62.38 72.27Q60.34 72.16 59.53 71.71L59.59 71.78L59.60 71.79Q59.52 71.27 59.30 69.93L59.28 69.91L59.22 69.85Q58.86 67.27 61.23 65.64L61.15 65.56L61.15 65.56Q63.23 64.23 65.97 64.30Z"/><path d="M14 83 C159 66,158 55,338 78" stroke="#a3e362" fill="none"/><path fill="#e89b81" d="M193.14 99.90L193.24 99.99L193.09 99.84Q185.35 100.48 183.43 95.96L183.41 95.94L183.38 95.92Q184.71 93.91 187.75 90.43L187.82 90.50L187.92 90.60Q188.87 94.52 194.73 94.74L194.64 94.65L194.67 94.68Q201.28 94.84 204.46 92.25L204.35 92.14L204.49 92.28Q207.24 89.17 207.09 83.91L206.98 83.80L207.13 83.95Q206.84 74.10 197.50 74.54L197.38 74.42L197.49 74.53Q191.83 74.65 188.42 77.10L188.45 77.12L187.80 76.77L187.54 76.65L187.39 76.51Q188.19 70.49 187.97 65.16L188.00 65.19L187.94 65.13Q187.60 59.90 186.93 53.45L186.95 53.47L186.95 53.47Q194.09 55.35 201.50 55.13L201.62 55.24L201.59 55.21Q208.96 55.03 215.93 52.58L216.01 52.67L214.87 55.60L214.87 55.60Q214.29 57.10 213.92 58.73L213.94 58.75L213.90 58.70Q207.69 60.58 200.13 60.58L200.17 60.61L200.19 60.63Q197.31 60.57 194.42 60.27L194.54 60.40L194.59 60.44Q194.35 61.68 193.68 70.35L193.79 70.46L193.77 70.44Q195.30 69.45 199.30 69.15L199.32 69.17L199.34 69.19Q206.65 69.69 209.47 72.95L209.35 72.83L209.35 72.83Q212.13 75.90 212.65 83.39L212.69 83.43L212.63 83.38Q213.13 91.50 210.76 95.43L210.67 95.34L210.66 95.34Q206.81 99.12 200.37 99.56L200.33 99.53L200.39 99.59Q198.45 99.72 193.26 100.02ZM205.00 104.42L204.97 104.39L204.86 104.28Q211.73 104.62 215.43 102.47L215.30 102.34L215.31 102.36Q217.25 99.40 217.25 95.33L217.24 95.32L217.23 95.30Q217.36 89.44 215.51 81.44L215.39 81.31L215.41 81.34Q214.70 77.96 212.33 75.22L212.34 75.23L212.34 75.30L211.87 74.68L211.20 74.31L211.30 74.41Q210.71 73.00 209.45 71.67L209.39 71.61L209.49 71.78L209.48 71.78Q206.49 68.49 199.30 68.49L199.22 68.40L198.65 68.36L198.77 68.47Q198.93 67.38 199.30 65.23L199.24 65.17L199.29 65.22Q209.05 65.49 216.91 62.31L216.81 62.21L216.75 62.16Q217.66 59.51 219.51 54.02L219.53 54.03L215.38 55.81L215.46 55.89Q216.20 53.67 217.16 51.45L217.03 51.31L217.21 51.50Q209.61 54.20 201.61 54.35L201.63 54.37L201.61 54.35Q193.63 54.59 185.93 52.45L185.88 52.40L186.02 52.53Q187.23 61.01 187.23 69.61L187.25 69.63L187.19 69.57Q187.35 73.43 187.13 77.14L186.95 76.96L187.09 77.10Q187.53 77.39 188.64 77.98L188.76 78.10L188.70 78.04Q189.27 77.50 190.53 76.83L190.59 76.90L190.59 76.89Q190.47 78.33 190.03 81.29L190.02 81.29L190.00 81.27Q190.89 81.72 191.71 82.16L191.70 82.15L191.64 82.09Q197.13 78.77 200.77 78.77L200.67 78.68L200.68 78.68Q203.42 78.83 205.72 80.09L205.63 80.00L205.69 80.07Q206.24 81.94 206.31 83.80L206.39 83.87L206.37 83.86Q206.56 88.93 204.56 91.08L204.48 91.01L204.54 91.06Q201.79 93.35 197.41 93.79L197.41 93.79L197.44 93.83Q195.58 93.97 194.25 93.82L194.26 93.83L194.23 93.80Q192.75 93.72 191.27 93.06L191.14 92.93L191.11 92.53L190.96 92.82L190.83 92.69Q189.35 91.81 188.31 89.21L188.32 89.22L188.37 89.27Q185.64 91.88 182.38 96.03L182.54 96.18L182.52 96.17Q182.95 97.26 184.58 99.12L184.76 99.29L184.59 99.12Q186.74 102.75 192.22 103.72L192.23 103.73L192.21 103.71Q194.43 104.08 204.88 104.30Z"/><path d="M15 130 C151 115,159 54,332 6" stroke="#d65b99" fill="none"/><path d="M15 90 C160 123,174 136,333 72" stroke="#e94dc2" fill="none"/><path d="M10 120 C175 19,172 101,327 52" stroke="#d0ee76" fill="none"/><path d="M20 104 C170 108,151 1,330 54" stroke="#e3984e" fill="none"/><path d="M19 15 C152 64,192 42,338 45" stroke="#44dede" fill="none"/><path d="M10 31 C186 100,157 99,329 132" stroke="#45e2e2" fill="none"/><path d="M9 66 C164 2,165 24,336 78" stroke="#8d8df0" fill="none"/><path d="M6 139 C167 63,178 91,338 59" stroke="#df76df" fill="none"/><path d="M19 104 C184 71,151 100,339 42" stroke="#e0c46f" fill="none"/><path d="M13 57 C162 56,176 63,341 127" stroke="#d18ce8" fill="none"/><path d="M9 107 C186 10,150 10,324 2" stroke="#b785e9" fill="none"/><path d="M18 70 C184 75,160 65,324 94" stroke="#69e042" fill="none"/><path d="M1 108 C155 16,165 81,323 84" stroke="#e15050" fill="none"/><path d="M3 74 C155 59,176 125,338 12" stroke="#8cda3e" fill="none"/><path d="M17 113 C178 8,177 99,330 122" stroke="#dddd3a" fill="none"/><path d="M4 44 C153 34,162 25,339 59" stroke="#82ec5f" fill="none"/><path fill="#4b6fdc" d="M130.50 59.61L130.50 59.61L127.38 59.75L127.50 59.87Q123.08 60.05 122.64 63.98L122.53 63.87L122.53 63.86Q122.50 65.39 122.57 67.32L122.45 67.19L122.53 67.28Q122.56 71.01 125.00 73.60L125.12 73.72L125.03 73.63Q127.40 76.14 131.10 75.85L131.17 75.91L131.10 75.85Q135.20 75.65 136.68 73.87L136.68 73.87L136.68 73.87Q138.71 72.04 139.23 67.67L139.20 67.64L139.24 67.68Q139.85 63.40 137.40 61.77L137.25 61.62L137.35 61.72Q135.73 60.24 130.54 59.65ZM142.21 77.54L142.23 77.57L139.80 82.10L139.68 81.98Q134.42 91.32 127.09 99.25L127.16 99.32L127.01 99.18Q123.86 99.51 118.60 101.06L118.70 101.16L118.61 101.07Q129.08 88.94 135.23 79.61L135.12 79.49L135.15 79.52Q133.17 80.80 129.98 80.95L129.99 80.96L130.07 81.04Q124.16 81.28 121.20 77.43L121.22 77.45L121.20 77.43Q118.78 74.27 116.63 65.37L116.64 65.38L116.59 65.33Q116.75 64.61 116.46 62.79L116.31 62.65L116.38 62.72Q116.09 60.91 116.09 60.02L116.01 59.94L116.01 59.94Q116.15 56.60 118.22 55.41L118.22 55.41L118.16 55.34Q120.58 53.91 124.21 53.91L124.17 53.87L124.24 53.95Q130.42 53.90 130.42 53.90L130.43 53.90L130.40 53.88Q134.63 53.95 137.07 54.32L137.02 54.27L136.96 54.21Q141.21 54.84 142.99 55.80L142.90 55.70L142.94 55.74Q145.66 57.29 146.03 60.69L146.03 60.69L146.00 60.66Q146.00 61.11 145.63 66.29L145.71 66.37L145.72 66.38Q144.99 70.54 144.54 72.17L144.36 71.99L144.36 71.99Q143.70 74.81 142.22 77.56ZM145.91 82.20L145.88 82.17L145.86 82.16Q147.83 77.90 148.87 69.53L148.86 69.52L148.99 69.65Q149.45 65.29 149.37 63.59L149.36 63.58L149.33 63.55Q149.35 60.01 147.05 58.23L146.93 58.11L146.31 57.86L146.47 58.01Q145.89 56.48 144.11 55.22L144.08 55.18L144.06 55.16Q139.60 53.22 130.26 52.93L130.29 52.95L130.33 52.99Q128.41 52.93 123.67 52.93L123.61 52.86L123.67 52.93Q120.38 53.04 117.49 54.38L117.41 54.30L117.50 54.39Q115.23 55.90 115.38 59.46L115.25 59.33L115.32 59.40Q115.65 61.13 116.02 65.06L116.05 65.09L116.10 65.14Q117.31 70.28 117.83 71.91L117.85 71.93L117.70 71.78Q118.89 75.49 120.74 78.01L120.81 78.08L120.77 78.04Q121.35 78.76 122.09 79.50L122.02 79.43L122.08 79.50Q122.53 80.31 123.79 82.09L123.85 82.15L123.86 82.16Q126.61 84.69 130.39 85.07L130.54 85.21L130.40 85.07Q126.74 90.30 123.70 94.01L123.62 93.93L116.61 102.48L116.57 102.44Q121.04 101.05 124.23 100.39L124.25 100.42L124.28 100.44Q122.78 102.13 119.75 105.47L119.78 105.50L119.80 105.52Q125.71 103.65 131.78 103.57L131.84 103.63L131.86 103.65Q136.21 98.44 144.66 84.36L144.80 84.50L144.67 84.53L144.72 84.57Q145.20 83.13 145.87 82.16ZM134.21 64.20L134.16 64.15L134.17 64.16Q135.48 64.07 136.37 64.30L136.25 64.17L136.26 64.18Q137.54 64.43 138.28 64.65L138.23 64.60L138.25 64.62Q138.57 65.46 138.72 66.27L138.72 66.27L138.58 66.13Q138.87 67.09 138.65 67.83L138.58 67.76L138.50 67.68Q138.46 71.05 136.16 73.20L136.31 73.35L136.22 73.26Q134.43 75.32 131.24 75.25L131.11 75.11L131.23 75.23Q130.46 75.27 127.49 74.68L127.50 74.69L127.44 74.63Q126.89 72.82 126.89 71.41L126.95 71.47L127.01 71.53Q126.76 70.91 126.76 70.46L126.79 70.49L126.84 70.54Q126.76 66.17 131.20 64.61L131.21 64.61L131.30 64.71Q132.59 64.22 134.22 64.22Z"/><path d="M1 3 C179 31,160 136,339 52" stroke="#6fe08c" fill="none"/><path d="M16 110 C176 121,181 41,330 87" stroke="#89baeb" fill="none"/><path d="M21 115 C178 76,188 9,325 9" stroke="#e66fc8" fill="none"/><path d="M13 35 C170 70,161 39,336 23" stroke="#859fee" fill="none"/><path d="M19 20 C161 123,177 42,330 118" stroke="#43e4e4" fill="none"/><path d="M10 113 C167 102,151 112,322 94" stroke="#a2f187" fill="none"/><path d="M20 83 C189 138,153 7,322 18" stroke="#bce98f" fill="none"/><path d="M5 55 C171 114,186 115,322 54" stroke="#83f0ba" fill="none"/><path d="M17 9 C165 82,151 37,325 70" stroke="#dcdc74" fill="none"/><path d="M11 75 C179 98,191 45,328 61" stroke="#46b2d6" fill="none"/><path d="M8 99 C180 73,170 46,339 58" stroke="#7de7e7" fill="none"/><path d="M2 23 C175 49,177 67,326 67" stroke="#daba5c" fill="none"/><path d="M4 80 C167 19,187 107,334 63" stroke="#d8d854" fill="none"/><path fill="#7ab5ef" d="M273.81 74.26L273.81 74.26L273.69 74.13Q275.35 74.24 278.09 73.94L278.07 73.93L278.15 74.00Q278.10 75.29 278.10 76.55L278.07 76.51L278.05 78.94L277.94 78.83Q276.46 78.98 274.83 79.13L274.84 79.13L274.73 79.03Q273.05 79.06 271.42 78.98L271.38 78.94L271.46 79.02Q266.01 91.13 259.34 100.10L259.25 100.00L259.25 100.01Q254.45 101.35 251.93 102.54L251.78 102.39L251.89 102.50Q259.89 91.38 265.82 79.16L265.68 79.02L260.72 79.17L260.65 79.10Q260.58 76.44 260.36 73.84L260.44 73.92L260.42 73.91Q264.21 74.29 268.22 74.29L268.20 74.27L271.80 66.99L271.78 66.97Q273.75 63.31 276.12 60.19L276.13 60.20L276.05 60.12Q273.13 60.54 270.02 60.54L269.93 60.45L269.94 60.45Q258.14 60.51 250.80 56.21L250.81 56.22L249.53 52.87L249.52 52.86Q248.91 51.28 248.17 49.58L248.06 49.47L248.10 49.51Q256.54 54.61 267.65 55.06L267.79 55.19L267.60 55.01Q277.79 55.63 287.79 51.78L287.77 51.76L287.73 51.72Q287.29 52.47 286.33 54.17L286.32 54.16L286.32 54.16Q279.33 63.47 273.77 74.21ZM289.49 56.89L289.42 56.82L291.49 53.04L291.49 53.03Q289.55 53.91 286.29 55.32L286.24 55.27L286.68 54.74L286.74 54.81Q286.99 54.53 287.21 54.31L287.02 54.12L287.09 54.19Q287.79 52.81 289.19 50.22L289.31 50.33L289.20 50.22Q278.85 54.69 267.66 54.25L267.72 54.31L267.61 54.20Q256.03 53.81 246.77 48.03L246.75 48.01L246.82 48.08Q248.67 51.56 250.30 56.74L250.36 56.81L250.32 56.76Q252.47 58.03 254.02 58.62L254.00 58.60L254.12 58.72Q254.35 59.32 255.24 62.95L255.21 62.92L255.33 63.03Q261.48 65.48 272.22 65.18L272.18 65.14L272.05 65.01Q271.61 66.27 267.75 73.61L267.69 73.54L267.72 73.57Q263.73 73.59 259.88 73.22L259.86 73.19L259.89 73.22Q260.04 74.86 260.04 76.56L259.99 76.51L260.05 79.91L263.31 79.91L263.29 82.63L263.30 82.64Q255.71 97.06 250.30 104.02L250.17 103.89L250.16 103.88Q253.38 102.51 256.57 101.55L256.57 101.55L256.59 101.57Q255.10 103.19 252.44 106.53L252.59 106.69L252.58 106.67Q258.67 104.47 263.41 104.02L263.43 104.04L263.39 103.99Q269.14 96.71 275.22 83.52L275.12 83.42L281.92 83.92L281.77 83.78Q281.72 82.09 281.72 80.32L281.68 80.28L281.79 76.90L281.72 76.83Q281.17 76.80 280.09 76.87L280.21 76.98L280.07 76.85Q279.12 77.05 278.61 77.05L278.49 76.93L278.48 76.92Q278.50 76.72 278.57 76.42L278.54 76.39L278.65 75.98L278.68 76.01Q283.51 65.95 289.51 56.91Z"/></svg>