<svg xmlns="http://www.w3.org/2000/svg" width="342" height="140" viewBox="0,0,342,140"><path d="M7 22 C170 69,161 94,325 98" stroke="#d0eb7f" fill="none"/><path d="M19 130 C187 31,181 78,339 86" stroke="#dd9145" fill="none"/><path d="M5 131 C161 17,173 3,322 102" stroke="#7171de" fill="none"/><path d="M8 2 C163 49,162 41,338 11" stroke="#c2e655" fill="none"/><path d="M7 71 C176 58,183 93,327 88" stroke="#74dca8" fill="none"/><path d="M14 16 C159 61,150 79,323 123" stroke="#9980e4" fill="none"/><path d="M6 35 C159 93,159 97,322 38" stroke="#e57aca" fill="none"/><path d="M18 27 C180 39,185 86,339 19" stroke="#e8587c" fill="none"/><path d="M20 82 C161 3,188 12,331 66" stroke="#e2e287" fill="none"/><path d="M7 118 C164 4,165 129,340 130" stroke="#4368d4" fill="none"/><path d="M2 92 C186 26,174 58,324 36" stroke="#87e2cb" fill="none"/><path d="M5 83 C152 92,165 139,327 101" stroke="#48e9e9" fill="none"/><path d="M2 41 C167 88,167 79,333 68" stroke="#95e47b" fill="none"/><path d="M14 44 C152 64,160 32,324 62" stroke="#9b52e4" fill="none"/><path d="M8 130 C179 74,183 69,329 113" stroke="#c3e952" fill="none"/><path d="M10 14 C171 111,163 117,327 21" stroke="#9579eb" fill="none"/><path fill="#b94fdd" d="M221.04 77.56L221.09 77.61L221.10 77.62Q217.78 77.48 215.48 80.13L215.36 80.01L215.42 80.07Q213.11 82.71 212.76 86.24L212.77 86.26L212.81 86.30Q212.27 90.00 214.28 91.80L214.36 91.88L214.32 91.84Q216.42 93.72 220.31 93.51L220.17 93.37L220.27 93.47Q224.20 93.24 226.25 91.96L226.28 91.99L226.23 91.94Q228.42 89.96 228.42 87.06L228.42 87.06L228.25 86.89Q228.23 86.17 228.09 85.46L228.28 85.65L228.18 85.55Q228.39 82.50 226.34 79.99L226.29 79.95L226.20 79.85Q224.14 77.34 221.03 77.55ZM220.33 98.27L220.30 98.24L220.42 98.36Q212.29 98.36 209.68 96.95L209.65 96.92L209.61 96.89Q207.62 95.39 207.27 92.21L207.42 92.36L207.29 92.23Q207.30 91.04 207.37 89.69L207.43 89.75L207.26 89.58Q207.55 87.82 207.55 86.98L207.48 86.90L207.47 86.89Q208.38 81.66 208.66 80.38L208.76 80.48L208.75 80.46Q209.57 76.84 211.13 74.22L211.08 74.18L211.13 74.23Q216.12 66.13 227.15 54.33L227.08 54.25L227.15 54.33Q232.08 53.74 236.18 52.26L236.06 52.14L236.17 52.25Q223.41 66.07 217.47 73.92L217.38 73.82L217.53 73.98Q219.31 73.00 221.71 73.00L221.74 73.03L221.76 73.05Q227.77 72.91 230.60 76.52L230.67 76.59L230.63 76.54Q233.15 79.63 233.79 86.21L233.80 86.22L233.86 86.28Q233.99 87.61 233.99 88.74L233.96 88.71L233.88 88.63Q233.97 94.52 229.87 96.50L229.83 96.46L229.90 96.53Q227.57 97.59 220.35 98.29ZM224.65 102.80L224.67 102.82L224.54 102.69Q227.06 102.74 230.74 102.88L230.60 102.75L230.74 102.88Q233.71 102.95 236.61 101.61L236.58 101.58L236.55 101.55Q238.69 100.16 238.69 96.83L238.70 96.84L238.74 96.89Q238.67 95.90 238.36 94.06L238.34 94.05L238.27 93.98Q237.94 92.12 237.94 91.27L238.00 91.34L237.99 91.32Q236.48 82.68 233.51 79.14L233.49 79.12L233.51 79.14Q233.22 78.78 232.94 78.36L233.07 78.49L232.37 77.93L232.26 77.89L232.31 77.94Q231.65 77.00 230.52 75.23L230.60 75.31L230.45 75.16Q228.81 73.45 225.13 72.60L225.24 72.71L225.16 72.63Q227.46 69.70 232.97 62.84L232.89 62.75L240.86 53.05L240.81 53.00Q237.85 54.57 233.40 55.98L233.38 55.96L233.45 56.03Q235.11 54.15 238.43 50.48L238.47 50.52L238.50 50.55Q234.02 52.50 226.81 53.56L226.85 53.61L226.85 53.60Q216.17 64.49 210.66 73.68L210.57 73.59L210.57 73.59Q207.85 78.37 206.79 89.97L206.85 90.02L206.84 90.02Q206.58 90.96 206.72 92.72L206.86 92.87L206.78 92.78Q207.00 96.11 209.05 97.81L208.99 97.75L209.02 97.77Q209.72 98.05 209.65 98.12L209.65 98.12L209.53 98.00Q210.33 99.80 211.82 100.58L211.70 100.46L211.78 100.54Q214.53 101.88 218.14 102.23L218.17 102.26L218.18 102.27Q218.06 102.15 224.56 102.72ZM224.24 81.96L224.09 81.81L224.12 81.84Q225.18 81.63 226.95 82.55L226.96 82.56L227.07 82.67Q227.56 84.29 227.56 85.49L227.70 85.64L227.69 85.62Q227.94 88.99 226.17 90.82L226.24 90.89L226.24 90.89Q224.18 92.15 220.29 92.72L220.32 92.75L220.25 92.68Q217.66 92.77 216.67 92.28L216.76 92.36L216.75 92.36Q216.29 91.41 216.29 90.84L216.34 90.89L216.34 90.89Q215.87 84.76 221.31 82.35L221.39 82.43L221.30 82.34Q222.65 81.64 224.06 81.78Z"/><path d="M15 60 C168 42,178 25,335 58" stroke="#d6ef89" fill="none"/><path d="M12 10 C185 110,185 133,335 14" stroke="#84e763" fill="none"/><path d="M6 78 C164 14,158 84,339 45" stroke="#6082eb" fill="none"/><path fill="#e792a7" d="M109.00 66.98L108.98 66.96L109.06 67.03Q103.20 67.11 99.81 65.13L99.67 65.00L99.81 65.14Q104.44 62.56 113.49 54.71L113.43 54.64L113.40 54.62Q114.72 54.25 117.13 53.11L117.23 53.22L117.16 53.14Q114.61 64.10 114.40 75.91L114.43 75.94L114.52 76.03Q114.36 87.89 116.34 99.20L116.34 99.20L116.37 99.23Q113.20 97.83 109.24 97.62L109.24 97.61L109.19 97.57Q108.94 89.82 108.94 82.26L108.97 82.29L109.03 82.35Q108.99 74.67 109.06 67.03ZM108.35 71.20L108.44 98.38L108.29 98.22Q110.61 98.28 112.38 98.63L112.43 98.69L112.38 98.64Q112.44 99.83 112.79 102.37L112.80 102.38L112.97 102.55Q118.20 103.47 122.73 107.64L122.71 107.62L122.76 107.68Q118.17 94.46 118.10 80.60L118.12 80.62L118.07 80.57Q117.97 66.75 121.36 53.32L121.28 53.24L121.28 53.24Q120.37 54.10 117.40 56.15L117.27 56.01L117.36 56.11Q117.74 54.71 118.30 51.89L118.25 51.84L118.25 51.83Q115.68 53.15 112.99 53.86L113.17 54.04L113.08 53.94Q106.13 60.64 98.14 64.88L98.18 64.92L98.15 64.89Q100.69 66.87 105.08 67.50L105.18 67.61L105.18 67.61Q103.81 68.43 101.41 70.41L101.57 70.57L101.52 70.53Q104.22 71.18 108.33 71.18L108.44 71.29Z"/><path d="M5 49 C190 9,179 71,327 5" stroke="#e59175" fill="none"/><path d="M5 38 C167 113,167 45,340 76" stroke="#c778e2" fill="none"/><path fill="#bddc60" d="M270.72 84.85L270.57 84.70L270.71 84.84Q276.33 84.03 282.27 84.24L282.21 84.18L282.21 84.18Q282.22 79.52 282.22 75.07L282.28 75.13L282.30 75.15Q282.27 70.53 282.63 65.79L282.56 65.73L282.60 65.76Q280.30 68.91 270.61 84.74ZM289.08 98.48L288.96 98.36L289.01 98.40Q285.89 97.83 282.57 97.69L282.67 97.80L282.54 97.67Q282.18 93.28 281.97 88.68L282.05 88.76L282.05 88.76Q272.03 88.28 263.26 90.90L263.29 90.93L263.41 91.05Q263.66 90.16 264.01 88.32L263.88 88.20L263.88 88.20Q267.26 82.38 273.90 70.71L273.81 70.62L273.91 70.72Q279.20 61.59 285.56 54.37L285.69 54.50L285.66 54.48Q287.19 54.02 290.30 53.53L290.28 53.51L290.45 53.68Q286.90 65.61 286.90 78.69L286.88 78.67L286.81 78.60Q286.89 81.44 287.03 84.20L286.91 84.08L289.42 84.39L289.39 84.37Q290.54 84.46 291.67 84.67L291.68 84.67L291.56 84.55Q291.84 86.46 292.34 90.07L292.37 90.10L292.26 89.99Q290.13 89.63 287.37 89.27L287.24 89.14L287.36 89.26Q287.77 93.00 289.04 98.44ZM292.20 83.99L292.23 84.02L292.19 83.98Q291.76 83.77 291.41 83.77L291.47 83.83L290.67 83.73L290.66 83.72Q290.46 80.98 290.46 78.37L290.52 78.43L290.49 78.40Q290.52 66.55 294.34 55.37L294.23 55.27L294.28 55.32Q293.00 55.95 290.32 56.66L290.22 56.56L290.27 56.61Q290.73 55.23 291.58 52.62L291.42 52.46L291.57 52.61Q289.19 53.34 285.37 53.76L285.19 53.58L285.30 53.69Q277.97 61.70 268.28 79.09L268.26 79.07L272.30 72.43L272.23 72.36Q271.44 74.26 270.94 75.32L270.90 75.28L262.74 92.14L262.65 92.05Q263.95 91.87 266.07 91.16L265.98 91.07L265.67 91.47L265.66 91.46Q265.47 92.76 264.91 95.09L264.96 95.14L264.85 95.03Q272.62 92.69 281.60 93.05L281.58 93.02L281.55 93.00Q281.57 94.72 281.93 98.39L282.04 98.51L281.93 98.40Q283.96 98.45 285.94 98.66L285.82 98.54L285.82 98.54Q286.27 99.98 286.77 102.53L286.70 102.46L286.74 102.50Q290.27 102.92 295.86 104.62L295.86 104.62L295.89 104.65Q294.00 100.64 292.30 94.56L292.28 94.54L295.06 95.48L294.93 95.35Q296.29 95.86 297.57 96.50L297.52 96.45L297.60 96.53Q296.10 91.85 295.82 88.74L295.80 88.73L295.75 88.68Q294.61 88.32 292.49 87.89L292.60 88.00L292.64 88.04Q292.11 85.52 292.11 83.90ZM277.35 83.70L277.39 83.74L277.38 83.74Q278.60 81.14 281.50 76.41L281.59 76.49L281.67 76.57Q281.54 78.21 281.47 79.98L281.52 80.02L281.43 79.94Q281.47 81.82 281.54 83.58L281.58 83.63L281.64 83.68Q280.46 83.50 279.40 83.50L279.42 83.51L279.43 83.52Q278.43 83.65 277.30 83.65Z"/><path d="M15 1 C170 101,168 108,333 14" stroke="#a5db70" fill="none"/><path d="M16 24 C158 53,178 18,325 60" stroke="#6ae740" fill="none"/><path d="M2 95 C163 17,179 91,329 92" stroke="#7d5ddf" fill="none"/><path d="M21 137 C164 107,176 96,333 119" stroke="#4bdc4b" fill="none"/><path d="M15 130 C163 59,182 63,328 132" stroke="#a567e4" fill="none"/><path d="M10 4 C157 113,160 11,330 129" stroke="#ecaf73" fill="none"/><path d="M13 85 C165 90,161 10,330 132" stroke="#cbe287" fill="none"/><path d="M12 123 C187 62,157 104,326 73" stroke="#e03c3c" fill="none"/><path d="M6 2 C152 68,189 123,332 43" stroke="#9be551" fill="none"/><path d="M12 10 C186 20,178 5,340 46" stroke="#60e0e0" fill="none"/><path d="M16 91 C155 24,154 66,335 115" stroke="#86e89e" fill="none"/><path d="M2 127 C163 130,179 102,327 78" stroke="#e9e96c" fill="none"/><path d="M4 44 C181 122,191 98,327 50" stroke="#8ee538" fill="none"/><path d="M15 57 C182 30,178 6,330 21" stroke="#bae68e" fill="none"/><path fill="#e4e443" d="M51.35 60.02L51.33 60.00L48.53 60.30L48.50 60.28Q44.25 60.41 43.83 64.16L43.78 64.11L43.84 64.18Q43.77 65.59 43.84 67.42L43.79 67.38L43.87 67.46Q43.86 70.98 46.19 73.45L46.24 73.51L46.30 73.56Q48.59 75.99 52.13 75.71L52.01 75.60L51.97 75.56Q55.99 75.47 57.40 73.77L57.24 73.61L57.33 73.70Q59.24 71.94 59.74 67.77L59.83 67.86L59.68 67.71Q60.30 63.67 57.97 62.11L57.93 62.08L58.01 62.16Q56.29 60.57 51.34 60.00ZM62.54 77.14L62.52 77.13L60.30 81.55L60.16 81.41Q55.23 90.41 48.23 97.98L48.25 98.00L48.15 97.89Q45.21 98.28 40.19 99.76L40.20 99.77L40.16 99.73Q49.98 87.99 55.85 79.08L55.85 79.08L55.82 79.06Q54.01 80.35 50.97 80.50L51.02 80.54L50.89 80.41Q45.36 80.75 42.54 77.08L42.48 77.03L42.43 76.97Q40.27 74.11 38.22 65.62L38.24 65.64L38.26 65.66Q38.27 64.83 37.99 63.10L37.97 63.07L37.98 63.08Q37.56 61.21 37.56 60.36L37.60 60.41L37.71 60.52Q37.62 57.11 39.60 55.98L39.60 55.97L39.59 55.96Q41.87 54.57 45.34 54.57L45.35 54.58L45.38 54.62Q51.34 54.64 51.34 54.64L51.39 54.68L51.32 54.61Q55.37 54.70 57.70 55.06L57.74 55.09L57.74 55.09Q61.63 55.52 63.33 56.44L63.32 56.44L63.41 56.53Q65.77 57.75 66.12 61.00L66.24 61.12L66.17 61.05Q66.11 61.42 65.76 66.37L65.85 66.46L65.88 66.49Q65.20 70.47 64.78 72.03L64.76 72.02L64.80 72.05Q64.09 74.67 62.68 77.29ZM66.19 81.72L66.14 81.66L66.24 81.76Q68.02 77.61 69.01 69.62L69.03 69.63L68.94 69.55Q69.49 65.50 69.42 63.88L69.30 63.75L69.37 63.83Q69.26 60.32 67.07 58.62L67.22 58.78L66.61 58.52L66.55 58.46Q66.14 57.13 64.44 55.93L64.41 55.89L64.36 55.85Q60.04 53.93 51.13 53.65L51.13 53.65L51.27 53.79Q49.40 53.68 44.87 53.68L44.94 53.75L44.98 53.79Q41.67 53.73 38.91 55.00L38.91 55.00L39.01 55.10Q36.79 56.49 36.93 59.88L36.89 59.84L37.00 59.95Q37.38 61.67 37.74 65.42L37.60 65.29L37.62 65.31Q38.86 70.29 39.35 71.84L39.22 71.71L39.21 71.70Q40.43 75.33 42.20 77.73L42.12 77.65L42.02 77.55Q42.52 78.19 43.22 78.90L43.31 78.99L43.40 79.08Q43.86 79.89 45.06 81.59L44.98 81.50L44.97 81.49Q47.74 84.05 51.35 84.41L51.30 84.36L51.37 84.43Q47.73 89.28 44.84 92.81L44.84 92.82L38.17 101.00L38.27 101.10Q42.44 99.67 45.48 99.04L45.45 99.02L45.45 99.01Q43.94 100.54 41.04 103.72L41.11 103.79L41.06 103.74Q46.78 102.04 52.58 101.97L52.69 102.08L52.64 102.04Q56.88 97.15 64.94 83.72L64.93 83.71L65.08 83.99L64.97 83.89Q65.53 82.61 66.17 81.69ZM55.02 64.54L54.95 64.46L54.92 64.44Q56.14 64.32 56.99 64.53L56.92 64.46L56.99 64.53Q58.18 64.72 58.88 64.94L58.83 64.88L58.79 64.84Q59.12 65.67 59.26 66.44L59.22 66.40L59.20 66.38Q59.43 67.25 59.22 67.96L59.05 67.79L59.12 67.86Q58.99 70.98 56.80 73.03L56.89 73.12L56.83 73.06Q55.20 75.11 52.16 75.04L52.11 74.99L52.07 74.94Q51.39 75.05 48.56 74.48L48.50 74.42L48.38 74.30Q47.97 72.69 47.97 71.35L47.99 71.36L47.97 71.35Q47.99 71.01 47.99 70.59L47.94 70.53L47.89 70.49Q47.84 66.34 52.09 64.85L52.12 64.88L52.09 64.86Q53.44 64.51 54.99 64.51Z"/><path d="M7 79 C168 118,158 71,335 37" stroke="#4268db" fill="none"/><path d="M9 75 C160 7,157 30,339 67" stroke="#3a8cdd" fill="none"/><path fill="#df708c" d="M171.62 73.96L171.79 74.12L171.69 74.02Q173.14 73.99 175.76 73.71L175.78 73.73L175.80 73.75Q175.74 74.96 175.74 76.16L175.81 76.23L175.71 78.47L175.68 78.44Q174.19 78.50 172.63 78.64L172.66 78.67L172.68 78.69Q171.04 78.67 169.48 78.60L169.41 78.53L169.54 78.66Q164.16 90.03 157.79 98.59L157.79 98.59L157.76 98.55Q153.09 99.76 150.69 100.89L150.80 101.00L150.82 101.02Q158.31 90.27 163.97 78.60L164.05 78.68L159.19 78.70L159.10 78.61Q159.16 76.20 158.95 73.72L158.91 73.69L159.00 73.78Q162.55 74.07 166.36 74.07L166.26 73.96L169.78 67.10L169.84 67.15Q171.76 63.70 174.02 60.73L173.97 60.67L173.95 60.65Q171.11 61.00 168.14 61.00L168.00 60.86L168.11 60.97Q156.75 60.93 149.76 56.83L149.78 56.85L148.54 53.63L148.68 53.77Q148.00 52.18 147.30 50.55L147.20 50.45L147.28 50.53Q155.27 55.34 165.88 55.77L165.93 55.82L165.82 55.71Q175.49 56.26 185.04 52.59L185.05 52.60L185.05 52.60Q184.70 53.38 183.78 55.01L183.65 54.88L183.77 55.00Q176.93 63.71 171.63 73.96ZM186.66 57.46L186.66 57.46L188.46 53.68L188.61 53.82Q186.85 54.75 183.74 56.09L183.58 55.93L184.02 55.46L183.93 55.37Q184.15 55.09 184.36 54.88L184.43 54.95L184.51 55.03Q185.17 53.71 186.51 51.23L186.49 51.21L186.50 51.23Q176.52 55.38 165.84 54.95L165.93 55.04L165.95 55.07Q154.64 54.43 145.80 48.91L145.79 48.90L145.83 48.94Q147.72 52.38 149.27 57.33L149.38 57.44L149.29 57.35Q151.40 58.62 152.89 59.18L152.94 59.24L152.91 59.20Q153.20 59.84 154.04 63.31L153.97 63.24L154.08 63.34Q159.91 65.63 170.16 65.35L170.05 65.24L170.05 65.24Q169.52 66.34 165.85 73.34L165.92 73.41L165.89 73.38Q162.17 73.48 158.49 73.12L158.32 72.95L158.50 73.14Q158.63 74.68 158.63 76.31L158.57 76.25L158.45 79.31L161.58 79.32L161.69 82.05L161.64 82.00Q154.28 95.64 149.12 102.29L149.22 102.38L149.19 102.35Q152.21 101.00 155.25 100.08L155.25 100.08L155.21 100.03Q154.03 101.82 151.48 105.00L151.43 104.95L151.36 104.88Q157.37 102.97 161.89 102.55L161.70 102.35L161.72 102.37Q167.27 95.48 173.07 82.90L173.03 82.85L179.43 83.25L179.32 83.14Q179.31 81.57 179.31 79.87L179.23 79.79L179.21 76.45L179.33 76.57Q178.77 76.51 177.75 76.58L177.82 76.65L177.74 76.57Q176.79 76.72 176.29 76.72L176.29 76.72L176.20 76.62Q176.12 76.33 176.19 76.05L176.37 76.23L176.27 75.64L176.20 75.56Q180.88 66.03 186.60 57.40Z"/><path d="M13 102 C175 57,164 30,341 113" stroke="#47d1d1" fill="none"/><path d="M17 91 C152 134,164 130,328 38" stroke="#3fe8be" fill="none"/><path d="M5 20 C164 4,183 115,338 135" stroke="#94d4e9" fill="none"/></svg>