<svg xmlns="http://www.w3.org/2000/svg" width="342" height="140" viewBox="0,0,342,140"><path d="M8 129 C189 116,188 84,340 84" stroke="#e8a058" fill="none"/><path d="M14 69 C176 116,166 6,340 136" stroke="#dda873" fill="none"/><path d="M2 63 C185 76,171 57,338 65" stroke="#e744bf" fill="none"/><path d="M10 51 C181 42,182 120,332 18" stroke="#a2e88b" fill="none"/><path d="M7 79 C180 42,191 107,323 56" stroke="#e06060" fill="none"/><path d="M16 56 C175 94,187 84,322 47" stroke="#61e5c4" fill="none"/><path d="M2 136 C184 18,151 131,333 94" stroke="#80cbe4" fill="none"/><path d="M14 18 C191 2,162 125,335 27" stroke="#e34996" fill="none"/><path d="M16 108 C152 78,155 19,325 51" stroke="#6bc2df" fill="none"/><path d="M2 70 C177 17,156 49,324 32" stroke="#83f183" fill="none"/><path d="M8 20 C151 42,176 126,327 82" stroke="#9e62da" fill="none"/><path d="M21 105 C162 89,188 77,325 8" stroke="#b783eb" fill="none"/><path d="M10 96 C184 42,171 96,333 14" stroke="#4ce04c" fill="none"/><path d="M10 78 C176 36,164 57,330 3" stroke="#eb6aeb" fill="none"/><path d="M21 104 C187 71,189 133,322 83" stroke="#bb4ce0" fill="none"/><path d="M3 47 C168 71,167 17,326 18" stroke="#5ad75a" fill="none"/><path d="M17 121 C158 18,170 65,333 99" stroke="#43d48c" fill="none"/><path d="M13 105 C160 46,160 46,331 24" stroke="#4593e2" fill="none"/><path d="M13 100 C191 91,182 68,331 113" stroke="#c469e2" fill="none"/><path d="M19 48 C154 12,163 26,339 138" stroke="#ec78ec" fill="none"/><path d="M12 128 C176 41,150 114,328 54" stroke="#8ef0d7" fill="none"/><path d="M7 5 C189 3,182 34,326 55" stroke="#51db51" fill="none"/><path d="M11 103 C166 23,169 15,340 26" stroke="#e4529b" fill="none"/><path fill="#ce7be9" d="M200.78 67.79L200.80 67.81L200.75 67.76Q196.07 67.64 193.46 66.12L193.55 66.21L193.63 66.29Q197.06 64.18 204.02 58.14L204.01 58.13L203.99 58.10Q205.11 57.92 206.96 57.05L207.06 57.15L206.92 57.01Q205.02 65.50 204.86 74.58L204.81 74.54L204.84 74.57Q204.73 83.70 206.25 92.40L206.21 92.36L206.33 92.48Q203.83 91.34 200.79 91.18L200.73 91.12L200.76 91.15Q200.63 85.25 200.63 79.43L200.56 79.37L200.56 79.37Q200.59 73.52 200.64 67.65ZM200.10 70.86L200.08 91.67L200.25 91.84Q201.90 91.75 203.26 92.02L203.32 92.08L203.26 92.02Q203.45 93.08 203.72 95.03L203.64 94.95L203.69 95.01Q207.82 95.82 211.30 99.03L211.12 98.85L211.11 98.84Q207.68 88.78 207.63 78.12L207.52 78.01L207.59 78.08Q207.44 67.38 210.05 57.05L210.15 57.14L210.17 57.16Q209.45 57.80 207.16 59.38L207.06 59.28L207.14 59.36Q207.28 58.13 207.71 55.96L207.70 55.94L207.82 56.06Q205.96 57.19 203.89 57.73L203.81 57.65L203.71 57.56Q198.48 62.82 192.33 66.08L192.18 65.93L192.34 66.09Q194.35 67.67 197.72 68.16L197.62 68.06L197.64 68.07Q196.71 68.83 194.86 70.35L194.99 70.48L194.86 70.35Q196.99 70.90 200.14 70.90L200.10 70.86Z"/><path d="M4 26 C174 95,159 82,338 77" stroke="#6eeccc" fill="none"/><path fill="#de67a3" d="M263.09 91.88L263.22 92.00L263.12 91.90Q261.20 92.11 258.97 91.51L258.85 91.38L258.85 91.39Q257.17 90.14 256.95 87.80L256.97 87.82L257.02 87.86Q256.87 87.51 257.15 83.75L257.17 83.77L257.20 83.80Q258.53 83.40 261.41 82.85L261.47 82.91L261.22 84.02L261.30 84.10Q260.87 86.55 262.88 87.37L262.89 87.38L262.80 87.29Q264.05 87.89 267.04 87.89L266.92 87.76L266.92 87.76Q269.22 87.56 269.49 87.45L269.58 87.54L269.59 87.55Q270.89 87.33 271.92 86.62L271.89 86.58L271.79 86.49Q273.98 85.30 273.71 82.31L273.69 82.30L273.72 82.33Q273.30 78.70 270.83 76.47L270.94 76.58L270.96 76.60Q268.35 74.24 264.82 74.24L264.89 74.31L264.87 73.96L264.97 74.06Q265.47 73.97 266.72 73.86L266.77 73.91L266.71 73.85Q269.39 73.64 271.35 71.87L271.25 71.78L271.35 71.88Q273.38 70.18 273.59 67.51L273.62 67.54L273.50 67.42Q273.67 66.99 273.67 66.50L273.54 66.38L273.56 66.39Q273.73 64.38 271.77 63.08L271.60 62.91L271.72 63.03Q269.84 61.74 267.55 61.91L267.61 61.97L267.74 62.09Q265.83 61.82 264.09 62.41L264.03 62.36L264.15 62.48Q262.04 63.19 261.60 64.82L261.60 64.82L261.52 64.74Q261.37 65.95 261.48 67.04L261.33 66.89L261.39 66.95Q259.85 66.55 256.91 65.52L256.99 65.60L257.04 65.65Q256.61 63.15 256.67 61.96L256.73 62.01L256.72 62.01Q256.80 59.75 258.32 58.77L258.45 58.90L258.39 58.83Q260.35 57.92 262.63 57.92L262.72 58.00L262.75 58.03Q267.23 57.94 271.74 58.32L271.78 58.36L271.83 58.41Q278.89 58.84 278.46 64.22L278.49 64.25L278.48 64.24Q278.52 66.51 277.81 68.74L277.64 68.57L277.70 68.63Q276.34 72.98 272.97 74.29L273.11 74.42L273.05 74.36Q276.81 75.13 277.68 79.92L277.64 79.88L277.67 79.91Q277.94 81.48 278.04 84.37L278.02 84.34L278.16 84.48Q278.27 90.74 271.69 91.39L271.82 91.52L271.79 91.49Q270.71 91.55 263.15 91.93ZM270.61 95.15L270.61 95.15L270.67 95.21Q271.47 95.19 275.55 95.30L275.46 95.22L275.56 95.32Q277.95 95.31 280.29 94.38L280.29 94.39L280.35 94.45Q282.02 93.08 281.75 90.58L281.79 90.61L281.73 90.55Q281.66 88.74 281.23 86.24L281.26 86.27L281.26 86.27Q280.13 79.76 277.35 77.42L277.31 77.38L277.13 76.93L276.98 76.72L277.08 76.82Q279.47 74.64 280.56 68.39L280.63 68.46L280.66 68.49Q280.63 67.76 280.80 66.40L280.90 66.50L280.79 66.39Q281.05 65.45 280.94 64.47L280.95 64.49L280.94 64.47Q280.71 62.06 278.86 61.09L278.73 60.96L278.60 60.93L278.60 60.94Q278.26 59.62 276.63 58.86L276.62 58.85L276.65 58.88Q274.36 57.78 267.01 57.35L267.17 57.50L267.03 57.37Q264.76 57.38 262.48 57.38L262.35 57.25L262.33 57.23Q260.10 57.29 257.93 58.21L257.92 58.21L257.95 58.24Q256.30 59.41 256.30 61.92L256.31 61.93L256.27 61.88Q256.27 61.29 256.65 66.08L256.66 66.08L256.52 65.95Q257.11 66.21 259.45 67.08L259.34 66.96L259.29 66.92Q259.39 67.78 259.34 68.49L259.29 68.44L259.35 68.50Q259.39 69.25 259.44 70.01L259.29 69.85L259.29 69.85Q261.91 70.46 264.80 70.63L264.90 70.73L264.88 70.71Q264.77 67.83 266.35 66.63L266.38 66.66L266.36 66.65Q267.49 65.65 270.37 65.33L270.46 65.42L270.47 65.42Q271.94 65.27 272.76 65.54L272.77 65.54L272.90 65.68Q272.84 65.73 272.90 65.90L273.01 66.00L272.90 66.17L273.12 67.05L273.09 67.01Q273.11 67.30 273.05 67.52L273.05 67.52L273.11 67.57Q272.95 69.97 270.78 71.66L270.66 71.54L270.69 71.58Q269.54 73.03 266.65 73.30L266.54 73.19L266.57 73.22Q265.50 73.40 264.25 73.40L264.35 73.50L264.20 73.35Q264.29 73.88 264.51 74.85L264.49 74.83L264.45 74.80Q266.99 74.84 269.06 75.87L269.03 75.84L269.04 76.02L266.79 76.27L266.67 76.15Q266.74 76.65 266.91 77.52L266.95 77.57L266.87 77.49Q269.97 77.43 272.41 79.33L272.53 79.45L272.39 79.31Q272.82 79.96 273.26 82.30L273.14 82.18L273.14 82.18Q273.49 86.44 269.30 87.04L269.27 87.02L269.20 86.95Q266.32 87.43 265.51 87.38L265.38 87.25L265.51 87.38Q264.77 87.13 264.01 87.03L264.13 87.14L264.01 86.37L264.29 85.84L264.37 85.32L264.43 84.89L264.35 84.81Q262.96 84.89 261.82 85.17L261.86 85.20L261.78 85.12Q261.73 84.80 261.73 84.53L261.75 84.55L261.83 84.63Q261.74 84.22 261.74 83.89L261.75 83.90L261.89 84.03Q261.97 83.47 262.19 82.43L262.13 82.37L262.08 82.32Q259.51 82.74 256.84 83.23L256.83 83.22L256.73 83.11Q256.72 83.82 256.56 85.42L256.63 85.50L256.62 85.49Q256.53 87.16 256.53 88.03L256.37 87.87L256.36 87.86Q256.53 90.86 258.49 91.95L258.43 91.89L258.54 92.00Q260.71 95.31 267.45 95.03L267.41 94.99L267.42 95.01Q268.39 94.88 270.56 95.10Z"/><path d="M16 2 C179 99,177 109,324 32" stroke="#e88cd1" fill="none"/><path fill="#dd54dd" d="M143.22 88.50L143.12 88.40L143.13 88.42Q143.49 89.75 144.25 92.63L144.35 92.73L144.26 92.64Q138.32 90.83 131.74 91.21L131.72 91.20L131.63 91.11Q125.13 91.51 119.42 94.34L119.59 94.51L119.52 94.44Q119.72 93.34 119.78 93.45L119.81 93.49L119.90 93.57Q125.25 87.94 130.85 81.63L130.88 81.66L130.80 81.58Q137.04 74.38 138.73 67.69L138.76 67.73L138.84 67.81Q139.52 65.33 137.69 63.65L137.56 63.51L137.58 63.54Q135.79 61.87 133.23 62.09L133.29 62.15L133.22 62.08Q132.74 62.04 132.25 62.04L132.20 61.99L132.19 61.98Q130.06 62.02 128.27 63.33L128.31 63.37L128.29 63.35Q126.50 65.37 126.83 69.18L126.85 69.20L126.78 69.12Q124.26 68.68 122.52 68.03L122.50 68.00L122.58 68.08Q122.28 66.04 122.17 63.97L122.03 63.84L122.19 63.99Q121.94 61.51 122.81 59.88L122.85 59.92L122.89 59.96Q125.45 58.00 130.23 58.00L130.21 57.98L132.65 57.92L132.64 57.91Q136.00 58.07 137.36 58.23L137.33 58.20L137.32 58.18Q143.52 58.78 143.90 62.26L144.01 62.37L143.89 62.25Q144.11 63.18 144.00 64.32L143.84 64.17L143.87 64.20Q143.81 65.11 143.60 66.09L143.65 66.15L143.57 66.07Q141.39 77.81 130.56 87.60L130.54 87.58L130.55 87.58Q132.57 87.37 134.53 87.37L134.52 87.37L134.47 87.31Q139.13 87.35 143.20 88.49ZM142.29 58.64L142.34 58.69L142.24 58.59Q140.15 57.86 137.70 57.75L137.54 57.59L132.62 57.29L132.63 57.30Q126.27 56.92 123.11 58.50L123.27 58.66L123.24 58.63Q121.68 60.55 121.68 63.49L121.73 63.53L121.74 63.54Q121.78 64.57 122.22 68.59L122.22 68.59L122.10 68.48Q122.82 68.76 124.51 69.19L124.53 69.22L124.57 70.72L124.58 70.74Q124.51 71.37 124.61 72.13L124.73 72.24L124.61 72.12Q126.53 72.41 130.06 72.74L130.05 72.73L130.04 72.72Q129.99 72.18 129.99 71.69L129.88 71.57L129.89 71.59Q129.84 68.93 131.58 67.00L131.61 67.02L131.71 67.12Q133.50 65.24 136.06 65.41L135.96 65.31L135.94 65.29Q137.02 65.34 138.11 65.56L138.10 65.55L138.10 65.55Q138.35 66.17 138.45 66.77L138.45 66.76L138.44 66.76Q138.52 67.38 138.41 67.87L138.34 67.80L138.39 67.85Q136.53 74.58 130.22 81.49L130.33 81.59L130.31 81.58Q127.13 84.65 119.35 93.30L119.36 93.30L119.50 93.45Q119.17 94.59 118.68 95.40L118.73 95.45L118.76 95.48Q120.87 94.06 123.05 93.29L123.17 93.42L123.19 93.44Q122.13 94.23 120.77 96.35L120.79 96.37L120.70 96.27Q120.61 96.84 120.44 97.33L120.42 97.31L120.38 97.26Q127.28 94.27 135.11 94.54L135.17 94.59L135.19 94.61Q143.36 94.90 149.89 98.27L149.85 98.24L148.36 95.11L148.43 95.18Q147.47 93.24 147.09 92.10L147.11 92.12L147.21 92.22Q146.04 91.48 144.30 90.89L144.29 90.88L144.38 90.97Q144.12 89.90 143.58 87.94L143.56 87.92L143.60 87.96Q140.39 87.09 137.13 86.82L137.18 86.87L137.17 86.86Q143.96 80.43 146.13 68.63L146.03 68.53L146.28 64.37L146.30 64.39Q146.22 61.87 144.48 60.89L144.53 60.94L144.37 60.83L144.40 60.86Q144.38 60.79 144.27 60.79L144.15 60.67L144.18 60.69Q144.00 59.64 142.42 58.77Z"/><path d="M8 24 C182 57,171 133,326 65" stroke="#e4e448" fill="none"/><path d="M20 26 C180 37,160 67,330 68" stroke="#82e79b" fill="none"/><path d="M16 15 C181 132,160 7,322 21" stroke="#dabd67" fill="none"/><path d="M12 84 C173 2,179 31,340 136" stroke="#cfe688" fill="none"/><path d="M12 17 C185 56,172 58,329 105" stroke="#81ed9c" fill="none"/><path d="M20 131 C171 126,175 108,328 96" stroke="#e27f5e" fill="none"/><path d="M20 22 C188 63,160 10,336 72" stroke="#e3e37c" fill="none"/><path d="M18 93 C152 16,173 60,323 39" stroke="#e9c65c" fill="none"/><path d="M15 130 C166 8,160 8,331 130" stroke="#dada5c" fill="none"/><path d="M12 85 C187 68,160 98,340 67" stroke="#85e49d" fill="none"/><path d="M8 91 C165 113,151 55,332 66" stroke="#6482dd" fill="none"/><path d="M12 67 C162 9,176 81,340 110" stroke="#ed7777" fill="none"/><path d="M10 37 C154 59,161 45,337 123" stroke="#4add93" fill="none"/><path fill="#b637e1" d="M63.86 62.27L63.84 62.25L61.71 62.51L61.67 62.48Q58.43 62.60 58.10 65.49L58.06 65.44L58.06 65.44Q57.97 66.49 58.02 67.91L58.00 67.89L58.07 67.95Q58.13 70.74 59.93 72.64L59.95 72.67L59.88 72.59Q61.83 74.65 64.55 74.43L64.44 74.33L64.53 74.42Q67.32 74.06 68.41 72.75L68.51 72.85L68.40 72.74Q69.94 71.45 70.32 68.24L70.30 68.22L70.43 68.36Q70.87 65.20 69.08 64.01L69.07 64.00L68.96 63.89Q67.75 62.79 63.94 62.35ZM72.67 75.65L72.51 75.49L70.81 78.91L70.79 78.88Q66.86 85.67 61.48 91.49L61.42 91.43L61.41 91.42Q59.16 91.72 55.30 92.86L55.32 92.89L55.19 92.75Q62.93 83.91 67.45 77.06L67.39 77.00L67.40 77.02Q65.94 77.94 63.60 78.05L63.49 77.95L63.50 77.96Q59.39 78.35 57.21 75.53L57.04 75.35L57.19 75.51Q55.34 73.11 53.77 66.59L53.79 66.61L53.86 66.68Q53.86 66.03 53.64 64.69L53.49 64.55L53.63 64.68Q53.36 63.30 53.36 62.65L53.31 62.60L53.42 62.71Q53.40 60.14 54.93 59.27L54.89 59.23L54.85 59.19Q56.63 58.14 59.29 58.14L59.23 58.08L59.31 58.16Q63.78 58.06 63.78 58.06L63.82 58.10L63.95 58.22Q67.04 58.27 68.83 58.54L68.66 58.37L68.77 58.48Q71.74 58.78 73.04 59.49L73.17 59.61L73.16 59.61Q75.04 60.61 75.31 63.11L75.28 63.09L75.26 63.06Q75.37 63.50 75.10 67.31L75.16 67.37L75.07 67.28Q74.56 70.36 74.23 71.56L74.24 71.56L74.15 71.47Q73.56 73.44 72.47 75.45ZM75.37 79.06L75.23 78.92L75.20 78.89Q76.63 75.75 77.40 69.61L77.37 69.58L77.52 69.73Q77.88 66.55 77.82 65.30L77.75 65.23L77.82 65.29Q77.82 62.69 76.13 61.38L76.01 61.26L75.63 61.15L75.62 61.14Q75.17 59.98 73.86 59.06L74.01 59.20L73.92 59.12Q70.70 57.74 63.85 57.53L63.87 57.55L63.78 57.46Q62.52 57.56 59.04 57.56L58.97 57.49L58.91 57.43Q56.49 57.51 54.36 58.49L54.37 58.49L54.33 58.45Q52.71 59.60 52.82 62.21L52.81 62.20L52.91 62.30Q53.03 63.46 53.30 66.34L53.35 66.39L53.36 66.40Q54.25 70.18 54.63 71.37L54.70 71.44L54.57 71.31Q55.52 74.11 56.88 75.96L56.75 75.83L56.83 75.90Q57.10 76.28 57.64 76.83L57.69 76.87L57.67 76.86Q58.04 77.50 58.97 78.81L59.09 78.93L59.01 78.85Q61.09 80.77 63.86 81.04L63.95 81.12L64.01 81.19Q61.26 84.96 59.03 87.68L58.91 87.56L53.84 93.91L53.84 93.91Q56.95 92.72 59.28 92.23L59.28 92.23L59.41 92.36Q58.27 93.55 56.04 96.00L55.98 95.94L56.13 96.09Q60.44 94.69 64.90 94.64L64.97 94.71L64.83 94.57Q68.19 90.91 74.39 80.57L74.36 80.55L74.49 80.78L74.44 80.74Q74.85 79.74 75.34 79.03ZM66.70 65.77L66.63 65.69L66.64 65.71Q67.59 65.62 68.25 65.79L68.15 65.69L68.20 65.74Q69.24 66.02 69.78 66.18L69.67 66.07L69.75 66.15Q69.86 66.64 69.97 67.24L69.90 67.17L69.90 67.17Q69.99 67.75 69.83 68.29L69.91 68.37L69.90 68.36Q69.76 70.73 68.07 72.30L68.20 72.43L68.20 72.43Q66.79 73.85 64.45 73.79L64.38 73.72L64.38 73.73Q63.78 73.72 61.60 73.28L61.78 73.46L61.62 73.30Q61.42 72.18 61.42 71.15L61.40 71.12L61.45 71.18Q61.24 70.69 61.24 70.36L61.34 70.47L61.30 70.43Q61.18 67.15 64.44 66.01L64.52 66.09L64.43 66.00Q65.55 65.81 66.75 65.81Z"/><path d="M11 115 C176 135,172 129,335 4" stroke="#7ef0b7" fill="none"/><path d="M14 18 C169 131,170 70,327 71" stroke="#ec8d6e" fill="none"/></svg>