<svg xmlns="http://www.w3.org/2000/svg" width="342" height="140" viewBox="0,0,342,140"><path d="M13 27 C176 123,173 118,330 73" stroke="#b43bdc" fill="none"/><path d="M12 79 C159 44,161 68,335 45" stroke="#8e35e8" fill="none"/><path d="M17 69 C164 79,171 130,324 54" stroke="#e5aa6f" fill="none"/><path d="M8 123 C176 2,166 96,330 118" stroke="#d07eeb" fill="none"/><path d="M7 52 C176 92,155 84,334 139" stroke="#b57fea" fill="none"/><path d="M3 102 C191 11,191 26,336 110" stroke="#88a1eb" fill="none"/><path fill="#829be8" d="M217.35 93.00L217.43 93.08L217.42 93.08Q215.29 93.17 212.95 92.54L212.87 92.47L212.96 92.56Q211.03 91.08 210.80 88.62L210.76 88.59L210.82 88.64Q210.71 88.30 210.99 84.36L211.15 84.52L211.05 84.42Q212.52 84.07 215.55 83.49L215.60 83.54L215.43 84.80L215.43 84.80Q214.87 87.27 216.98 88.12L217.16 88.30L216.98 88.12Q218.26 88.72 221.40 88.72L221.49 88.81L221.46 88.78Q223.83 88.52 224.11 88.40L224.07 88.36L224.18 88.47Q225.47 88.16 226.56 87.42L226.58 87.44L226.51 87.37Q228.61 85.93 228.32 82.79L228.40 82.87L228.33 82.80Q228.10 79.20 225.51 76.86L225.42 76.77L225.40 76.76Q222.96 74.58 219.25 74.58L219.28 74.61L219.24 74.22L219.19 74.18Q219.77 74.12 221.08 74.01L221.09 74.01L221.12 74.05Q223.90 73.80 225.96 71.95L225.90 71.89L225.96 71.95Q228.12 70.19 228.34 67.40L228.28 67.33L228.35 67.40Q228.37 66.79 228.37 66.28L228.33 66.24L228.34 66.25Q228.35 63.97 226.29 62.60L226.41 62.72L226.42 62.73Q224.59 61.53 222.19 61.70L222.16 61.67L222.20 61.70Q220.22 61.44 218.39 62.07L218.31 61.98L218.25 61.92Q216.17 62.81 215.71 64.53L215.61 64.42L215.76 64.58Q215.35 65.60 215.47 66.74L215.54 66.81L215.47 66.74Q214.07 66.54 210.98 65.45L210.90 65.37L210.85 65.32Q210.56 62.85 210.61 61.60L210.66 61.64L210.57 61.56Q210.73 59.26 212.33 58.23L212.45 58.35L212.37 58.27Q214.44 57.31 216.84 57.31L216.89 57.36L216.95 57.43Q221.67 57.36 226.41 57.76L226.46 57.81L226.37 57.71Q234.01 58.39 233.55 64.04L233.44 63.92L233.49 63.97Q233.33 66.16 232.59 68.50L232.66 68.57L232.60 68.51Q231.20 73.10 227.66 74.47L227.71 74.53L227.68 74.50Q231.64 75.32 232.56 80.35L232.58 80.37L232.62 80.41Q232.93 82.09 233.04 85.11L233.09 85.16L233.02 85.09Q233.20 91.73 226.29 92.41L226.33 92.45L226.47 92.59Q225.36 92.67 217.42 93.07ZM225.12 96.32L225.26 96.46L225.22 96.42Q226.09 96.43 230.37 96.55L230.33 96.51L230.41 96.58Q232.97 96.63 235.42 95.66L235.47 95.71L235.38 95.61Q237.22 94.26 236.93 91.63L236.90 91.60L236.97 91.67Q236.68 89.55 236.22 86.92L236.36 87.06L236.26 86.96Q235.29 80.33 232.37 77.88L232.27 77.77L231.94 77.16L231.96 77.12L231.95 77.12Q234.63 74.99 235.77 68.43L235.69 68.35L235.73 68.39Q235.73 67.64 235.90 66.22L236.06 66.38L235.94 66.25Q236.14 65.20 236.02 64.17L235.88 64.02L235.94 64.08Q235.71 61.57 233.77 60.54L233.83 60.61L233.73 60.61L233.73 60.62Q233.23 59.09 231.52 58.29L231.62 58.39L231.56 58.33Q229.32 57.35 221.61 56.90L221.56 56.84L221.55 56.83Q218.98 56.66 216.58 56.66L216.53 56.61L216.63 56.70Q214.18 56.66 211.89 57.63L211.93 57.66L211.87 57.60Q210.04 58.74 210.04 61.37L210.03 61.36L210.02 61.35Q210.19 60.88 210.58 65.91L210.50 65.82L210.46 65.79Q210.99 65.97 213.44 66.88L213.32 66.76L213.36 66.80Q213.35 67.59 213.30 68.34L213.39 68.43L213.35 68.39Q213.30 69.08 213.35 69.88L213.40 69.93L213.46 69.98Q216.19 70.60 219.22 70.77L219.09 70.65L219.08 70.63Q219.06 67.70 220.71 66.44L220.60 66.33L220.65 66.38Q221.95 65.45 224.97 65.11L224.91 65.04L225.05 65.19Q226.61 65.03 227.46 65.32L227.44 65.29L227.60 65.46Q227.65 65.62 227.71 65.79L227.63 65.71L227.57 65.93L227.79 66.84L227.87 66.92Q227.80 67.13 227.74 67.36L227.74 67.36L227.85 67.47Q227.69 70.00 225.41 71.77L225.28 71.64L225.43 71.79Q224.00 73.10 220.97 73.39L221.04 73.45L221.03 73.44Q219.87 73.59 218.55 73.59L218.59 73.63L218.56 73.60Q218.63 74.12 218.86 75.15L218.78 75.07L218.88 75.18Q221.39 75.06 223.56 76.14L223.66 76.24L223.48 76.23L221.04 76.42L221.19 76.57Q221.28 77.11 221.45 78.03L221.39 77.97L221.44 78.02Q224.55 77.82 227.12 79.82L227.15 79.84L227.11 79.81Q227.54 80.47 228.00 82.92L227.99 82.91L227.97 82.90Q228.20 87.24 223.80 87.87L223.81 87.88L223.84 87.91Q220.70 88.30 219.84 88.25L219.80 88.21L219.79 88.19Q219.15 88.06 218.35 87.95L218.28 87.89L218.43 87.34L218.45 86.51L218.64 86.07L218.53 85.45L218.56 85.48Q217.27 85.73 216.07 86.01L215.94 85.88L216.07 86.01Q215.95 85.61 215.95 85.33L216.01 85.38L215.90 85.28Q216.02 85.05 216.02 84.70L216.00 84.68L215.90 84.59Q215.96 83.96 216.18 82.87L216.34 83.03L216.35 83.04Q213.41 83.24 210.61 83.75L210.62 83.76L210.69 83.83Q210.66 84.54 210.49 86.23L210.54 86.28L210.44 86.18Q210.33 87.93 210.33 88.84L210.28 88.79L210.29 88.80Q210.42 91.90 212.47 93.04L212.42 92.98L212.48 93.04Q214.65 96.41 221.73 96.12L221.77 96.17L221.75 96.15Q222.95 96.20 225.23 96.43Z"/><path d="M15 80 C161 131,165 61,329 131" stroke="#8ef0a6" fill="none"/><path d="M3 118 C150 41,170 83,325 28" stroke="#e7cc7d" fill="none"/><path d="M18 134 C179 138,160 115,331 96" stroke="#93e542" fill="none"/><path d="M3 40 C169 95,189 65,335 87" stroke="#e060a0" fill="none"/><path d="M12 6 C185 103,191 101,334 19" stroke="#b57aef" fill="none"/><path d="M12 128 C190 106,172 101,333 25" stroke="#d9934e" fill="none"/><path d="M17 135 C158 75,156 122,328 92" stroke="#dddd69" fill="none"/><path d="M15 76 C158 43,151 77,322 114" stroke="#79e0c7" fill="none"/><path d="M8 68 C191 58,153 90,331 62" stroke="#7a95e5" fill="none"/><path d="M14 30 C163 4,179 87,325 71" stroke="#e8358e" fill="none"/><path d="M17 131 C172 56,169 99,340 103" stroke="#60dcdc" fill="none"/><path d="M3 18 C175 77,188 108,332 64" stroke="#8265dc" fill="none"/><path fill="#5a9bdc" d="M165.74 61.98L165.70 61.94L163.40 62.14L163.45 62.19Q160.02 62.30 159.68 65.33L159.67 65.32L159.74 65.39Q159.48 66.33 159.53 67.81L159.54 67.82L159.59 67.87Q159.59 70.72 161.47 72.72L161.54 72.79L161.56 72.81Q163.38 74.74 166.23 74.51L166.32 74.60L166.21 74.49Q169.40 74.37 170.54 73.00L170.53 72.99L170.53 72.98Q172.18 71.66 172.58 68.30L172.59 68.30L172.45 68.17Q172.86 64.81 170.98 63.55L171.10 63.68L171.01 63.59Q169.73 62.42 165.73 61.96ZM174.81 75.84L174.84 75.87L172.76 79.16L172.94 79.34Q168.90 86.54 163.25 92.65L163.10 92.51L163.12 92.53Q160.64 92.73 156.58 93.93L156.54 93.88L156.71 94.06Q164.72 84.65 169.46 77.45L169.36 77.36L169.36 77.35Q167.84 78.35 165.39 78.46L165.41 78.49L165.42 78.50Q160.88 78.69 158.59 75.72L158.50 75.63L158.59 75.72Q156.79 73.35 155.14 66.50L155.06 66.43L155.14 66.50Q155.05 65.73 154.82 64.33L154.92 64.43L154.95 64.45Q154.68 63.02 154.68 62.33L154.55 62.20L154.70 62.35Q154.55 59.51 156.14 58.60L156.28 58.74L156.24 58.69Q157.98 57.47 160.78 57.47L160.92 57.61L160.89 57.58Q165.68 57.57 165.68 57.57L165.74 57.63L165.69 57.58Q168.89 57.58 170.78 57.87L170.74 57.84L170.76 57.85Q174.09 58.39 175.46 59.13L175.45 59.11L175.41 59.08Q177.39 60.14 177.67 62.77L177.78 62.88L177.71 62.81Q177.66 63.10 177.38 67.10L177.52 67.24L177.37 67.09Q176.95 70.44 176.60 71.69L176.56 71.65L176.54 71.63Q175.97 73.74 174.82 75.85ZM177.66 79.43L177.68 79.45L177.72 79.49Q179.07 76.04 179.87 69.59L179.92 69.64L179.89 69.61Q180.38 66.39 180.32 65.08L180.24 64.99L180.35 65.10Q180.25 62.26 178.48 60.89L178.42 60.83L178.04 60.74L178.01 60.71Q177.50 59.45 176.13 58.48L176.32 58.67L176.13 58.49Q172.76 57.06 165.57 56.83L165.66 56.92L165.70 56.96Q164.21 56.90 160.56 56.90L160.48 56.83L160.55 56.90Q157.89 56.87 155.67 57.89L155.57 57.80L155.71 57.93Q154.02 59.15 154.13 61.90L154.08 61.85L153.97 61.74Q154.41 63.26 154.70 66.29L154.69 66.29L154.69 66.28Q155.54 70.16 155.94 71.41L156.03 71.51L155.88 71.36Q156.86 74.28 158.29 76.22L158.16 76.09L158.25 76.18Q158.68 76.72 159.25 77.29L159.14 77.18L159.23 77.27Q159.58 77.91 160.55 79.28L160.50 79.23L160.63 79.36Q162.89 81.45 165.80 81.73L165.71 81.64L165.68 81.61Q162.87 85.65 160.52 88.51L160.52 88.50L155.00 94.98L155.06 95.03Q158.37 93.83 160.82 93.32L160.83 93.32L160.92 93.42Q159.84 94.79 157.50 97.36L157.46 97.32L157.44 97.30Q162.07 95.93 166.75 95.87L166.77 95.89L166.77 95.89Q170.28 92.04 176.79 81.19L176.70 81.10L176.74 81.25L176.81 81.32Q177.11 80.14 177.62 79.39ZM168.55 65.46L168.62 65.54L168.68 65.59Q169.57 65.40 170.25 65.57L170.18 65.49L170.25 65.57Q171.22 65.74 171.80 65.91L171.82 65.94L171.86 65.98Q172.02 66.54 172.13 67.17L172.10 67.13L172.00 67.03Q172.21 67.75 172.04 68.32L171.96 68.25L172.03 68.32Q171.98 70.89 170.21 72.55L170.23 72.58L170.17 72.51Q168.72 74.03 166.27 73.98L166.22 73.93L166.37 74.07Q165.65 73.99 163.37 73.53L163.46 73.62L163.44 73.61Q163.01 72.21 163.01 71.12L163.10 71.21L163.04 71.15Q162.98 70.80 162.98 70.46L162.94 70.42L162.82 70.30Q162.88 67.05 166.30 65.85L166.36 65.90L166.34 65.89Q167.28 65.45 168.54 65.45Z"/><path d="M12 19 C187 96,152 96,331 138" stroke="#e4be4d" fill="none"/><path d="M20 81 C167 129,188 56,329 116" stroke="#db46db" fill="none"/><path d="M14 98 C161 116,157 40,323 30" stroke="#5ba0e5" fill="none"/><path d="M17 49 C179 89,185 2,329 26" stroke="#6082eb" fill="none"/><path d="M9 65 C186 36,159 26,338 91" stroke="#8f74e1" fill="none"/><path d="M2 84 C165 33,174 121,339 116" stroke="#6ae0a5" fill="none"/><path d="M20 21 C190 31,177 56,335 87" stroke="#b27aea" fill="none"/><path d="M7 40 C151 107,156 102,338 29" stroke="#6cde6c" fill="none"/><path d="M14 23 C179 60,175 27,329 99" stroke="#d86d4a" fill="none"/><path d="M20 95 C161 12,191 96,326 58" stroke="#68e868" fill="none"/><path d="M7 60 C155 22,174 104,327 10" stroke="#714ed9" fill="none"/><path d="M9 133 C192 135,189 15,323 58" stroke="#5ede5e" fill="none"/><path d="M2 45 C191 86,168 9,331 136" stroke="#e9e948" fill="none"/><path d="M11 45 C160 10,154 124,337 64" stroke="#4add93" fill="none"/><path fill="#aa71e4" d="M290.88 89.39L290.87 89.39L290.94 89.46Q291.35 90.89 292.15 93.92L292.17 93.94L292.12 93.89Q285.82 91.93 278.91 92.33L278.86 92.28L278.92 92.33Q272.07 92.74 266.08 95.71L266.06 95.69L265.98 95.61Q266.27 94.54 266.33 94.65L266.42 94.75L266.39 94.72Q271.98 88.77 277.86 82.15L277.80 82.08L277.80 82.08Q284.41 74.58 286.18 67.56L286.22 67.61L286.26 67.64Q286.89 64.96 284.98 63.19L285.13 63.35L285.11 63.32Q283.09 61.45 280.41 61.68L280.41 61.68L280.47 61.74Q280.00 61.72 279.48 61.72L279.48 61.72L279.52 61.76Q277.22 61.75 275.34 63.12L275.34 63.13L275.18 62.96Q273.32 65.10 273.66 69.10L273.71 69.14L273.60 69.03Q270.93 68.53 269.10 67.85L269.21 67.95L269.12 67.86Q268.91 65.83 268.80 63.66L268.83 63.69L268.66 63.52Q268.54 61.06 269.46 59.35L269.56 59.45L269.62 59.51Q272.17 57.32 277.20 57.32L277.20 57.33L279.92 57.42L279.82 57.33Q283.31 57.45 284.74 57.62L284.83 57.70L284.74 57.62Q291.28 58.28 291.68 61.93L291.58 61.83L291.60 61.85Q291.71 62.70 291.60 63.90L291.55 63.85L291.59 63.90Q291.67 65.00 291.44 66.03L291.27 65.86L291.31 65.90Q289.00 78.21 277.64 88.49L277.51 88.36L277.57 88.42Q279.72 88.23 281.78 88.23L281.74 88.19L281.76 88.21Q286.54 88.14 290.83 89.34ZM289.94 58.08L289.97 58.10L290.04 58.17Q287.63 57.19 285.06 57.07L285.08 57.10L279.94 56.81L279.81 56.69Q273.19 56.35 269.88 58.00L269.91 58.04L269.80 57.92Q268.19 59.97 268.19 63.05L268.30 63.16L268.25 63.11Q268.29 64.18 268.75 68.41L268.77 68.43L268.79 68.45Q269.52 68.72 271.29 69.18L271.32 69.21L271.45 70.88L271.44 70.87Q271.25 71.42 271.36 72.22L271.46 72.32L271.38 72.23Q273.27 72.42 276.98 72.76L277.09 72.86L277.00 72.78Q276.98 72.24 276.98 71.73L276.94 71.69L276.98 71.73Q277.03 69.03 278.85 67.01L278.84 67.00L278.71 66.87Q280.54 64.83 283.22 65.00L283.31 65.09L283.21 65.00Q284.35 65.05 285.49 65.28L285.59 65.37L285.60 65.38Q285.84 66.02 285.95 66.65L285.82 66.52L285.92 66.62Q286.02 67.29 285.91 67.81L285.81 67.71L285.87 67.77Q283.84 74.76 277.22 82.01L277.30 82.10L277.32 82.11Q274.19 85.55 266.02 94.63L265.89 94.50L266.03 94.64Q265.70 95.85 265.19 96.71L265.18 96.70L265.06 96.59Q267.52 95.33 269.80 94.53L269.86 94.59L269.75 94.48Q268.83 95.49 267.40 97.72L267.27 97.59L267.24 97.57Q267.11 98.12 266.94 98.63L267.07 98.76L267.01 98.70Q274.19 95.49 282.42 95.78L282.50 95.86L282.47 95.83Q290.95 96.03 297.80 99.57L297.94 99.71L296.32 96.38L296.46 96.51Q295.45 94.48 295.05 93.29L294.96 93.19L295.05 93.28Q294.00 92.69 292.17 92.06L292.10 91.99L292.12 92.01Q291.86 90.89 291.29 88.83L291.23 88.77L291.38 88.92Q288.08 88.08 284.65 87.79L284.63 87.78L284.60 87.74Q291.50 80.76 293.78 68.37L293.88 68.47L294.12 64.08L294.15 64.11Q294.11 61.51 292.29 60.48L292.29 60.49L292.11 60.36L292.08 60.33Q292.17 60.37 292.06 60.37L291.97 60.27L292.00 60.31Q291.73 59.12 290.07 58.21Z"/><path d="M6 12 C190 66,169 92,326 26" stroke="#e78e36" fill="none"/><path d="M14 33 C159 87,173 63,334 2" stroke="#ea5ba3" fill="none"/><path d="M10 9 C156 64,176 100,325 101" stroke="#81e8ce" fill="none"/><path d="M9 28 C160 135,179 48,335 77" stroke="#eded81" fill="none"/><path fill="#a3e68d" d="M120.92 89.44L120.84 89.36L120.91 89.43Q121.39 90.93 122.19 93.96L122.16 93.93L122.07 93.84Q115.73 91.85 108.82 92.24L108.90 92.32L108.85 92.27Q101.93 92.60 95.93 95.57L95.93 95.57L96.08 95.72Q96.27 94.54 96.33 94.65L96.32 94.64L96.34 94.66Q102.03 88.82 107.91 82.19L107.93 82.21L107.79 82.07Q114.50 74.68 116.27 67.66L116.32 67.70L116.22 67.60Q116.98 65.05 115.06 63.28L115.09 63.31L115.11 63.32Q113.07 61.43 110.39 61.66L110.41 61.68L110.48 61.75Q109.87 61.60 109.36 61.60L109.48 61.72L109.45 61.69Q107.15 61.68 105.27 63.05L105.29 63.07L105.32 63.10Q103.27 65.05 103.62 69.05L103.62 69.05L103.63 69.07Q100.88 68.48 99.05 67.79L99.20 67.95L99.06 67.81Q98.85 65.77 98.74 63.60L98.75 63.61L98.70 63.56Q98.66 61.18 99.57 59.47L99.55 59.44L99.52 59.41Q102.22 57.37 107.25 57.37L107.33 57.46L109.95 57.45L109.81 57.31Q113.25 57.38 114.68 57.55L114.73 57.60L114.72 57.60Q121.23 58.22 121.63 61.88L121.73 61.98L121.64 61.89Q121.72 62.71 121.61 63.91L121.74 64.04L121.69 63.99Q121.54 64.87 121.31 65.90L121.40 65.99L121.42 66.01Q118.86 78.07 107.49 88.34L107.59 88.44L107.55 88.40Q109.69 88.20 111.75 88.20L111.62 88.07L111.80 88.26Q116.59 88.18 120.87 89.38ZM119.92 58.05L119.97 58.11L119.90 58.04Q117.66 57.23 115.09 57.11L115.08 57.10L109.79 56.67L109.98 56.85Q103.21 56.36 99.90 58.02L99.98 58.10L99.81 57.93Q98.19 59.96 98.19 63.05L98.25 63.11L98.33 63.19Q98.34 64.22 98.79 68.45L98.74 68.40L98.86 68.52Q99.60 68.80 101.37 69.26L101.35 69.24L101.47 70.89L101.30 70.73Q101.25 71.43 101.37 72.23L101.41 72.27L101.48 72.34Q103.22 72.36 106.93 72.71L107.01 72.79L107.07 72.85Q106.87 72.13 106.87 71.62L106.97 71.72L107.02 71.77Q107.06 69.06 108.89 67.04L108.89 67.04L108.79 66.95Q110.60 64.90 113.28 65.07L113.32 65.11L113.22 65.01Q114.49 65.19 115.63 65.41L115.51 65.29L115.52 65.31Q115.73 65.91 115.84 66.54L115.81 66.51L115.93 66.62Q115.91 67.18 115.79 67.69L115.89 67.79L115.75 67.65Q113.91 74.83 107.29 82.09L107.37 82.17L107.35 82.15Q104.20 85.56 96.03 94.64L95.96 94.57L96.01 94.62Q95.71 95.86 95.20 96.72L95.14 96.66L95.12 96.64Q97.48 95.29 99.76 94.49L99.89 94.61L99.81 94.53Q98.82 95.49 97.40 97.72L97.32 97.64L97.28 97.60Q97.22 98.22 97.05 98.74L96.94 98.64L96.97 98.67Q104.34 95.64 112.56 95.93L112.57 95.93L112.56 95.93Q121.07 96.16 127.93 99.70L127.91 99.68L126.35 96.40L126.32 96.38Q125.39 94.42 124.99 93.22L125.06 93.29L125.00 93.23Q123.94 92.62 122.11 92.00L122.14 92.03L122.16 92.05Q121.87 90.90 121.30 88.84L121.28 88.82L121.29 88.84Q117.94 87.94 114.51 87.65L114.52 87.66L114.65 87.79Q121.51 80.77 123.79 68.38L123.94 68.53L124.14 64.10L124.17 64.13Q124.12 61.52 122.29 60.49L122.20 60.39L122.14 60.39L122.10 60.35Q122.13 60.32 122.01 60.32L121.93 60.24L121.93 60.24Q121.71 59.10 120.05 58.19Z"/><path d="M12 74 C172 76,159 81,327 30" stroke="#a288f0" fill="none"/><path fill="#bce692" d="M52.41 61.97L52.35 61.91L50.02 62.09L50.04 62.12Q46.72 62.33 46.37 65.36L46.29 65.27L46.39 65.38Q46.24 66.43 46.30 67.91L46.31 67.93L46.20 67.82Q46.25 70.72 48.14 72.72L48.17 72.75L48.28 72.86Q50.16 74.86 53.02 74.63L53.00 74.62L52.94 74.55Q56.09 74.40 57.24 73.03L57.25 73.03L57.23 73.02Q58.84 71.66 59.24 68.29L59.08 68.14L59.14 68.19Q59.58 64.86 57.69 63.60L57.65 63.56L57.74 63.65Q56.28 62.31 52.29 61.85ZM61.40 75.76L61.42 75.79L59.46 79.19L59.50 79.23Q55.56 86.54 49.91 92.65L49.91 92.66L49.73 92.47Q47.35 92.78 43.30 93.97L43.24 93.92L43.23 93.91Q51.34 84.60 56.08 77.40L56.12 77.45L55.97 77.30Q54.43 78.28 51.98 78.39L52.13 78.54L52.14 78.55Q47.58 78.73 45.29 75.76L45.34 75.80L45.20 75.66Q43.40 73.29 41.74 66.44L41.74 66.44L41.85 66.55Q41.70 65.71 41.47 64.31L41.60 64.45L41.56 64.40Q41.29 62.96 41.29 62.27L41.32 62.31L41.22 62.21Q41.25 59.55 42.85 58.64L42.87 58.66L42.92 58.71Q44.75 57.57 47.54 57.57L47.61 57.63L47.61 57.63Q52.35 57.58 52.35 57.58L52.30 57.53L52.40 57.62Q55.62 57.65 57.51 57.94L57.49 57.92L57.37 57.80Q60.61 58.24 61.98 58.98L62.09 59.09L62.08 59.09Q64.00 60.09 64.29 62.72L64.42 62.85L64.47 62.90Q64.42 63.19 64.13 67.18L64.17 67.23L64.07 67.13Q63.47 70.30 63.13 71.55L63.13 71.55L63.16 71.58Q62.65 73.75 61.51 75.87ZM64.28 79.38L64.39 79.50L64.39 79.49Q65.81 76.11 66.61 69.66L66.56 69.61L66.59 69.64Q67.03 66.37 66.97 65.06L66.95 65.03L66.91 64.99Q66.79 62.14 65.02 60.76L65.12 60.87L64.62 60.65L64.57 60.60Q64.22 59.51 62.85 58.54L62.99 58.68L62.96 58.65Q59.56 57.19 52.37 56.96L52.17 56.77L52.26 56.85Q50.76 56.78 47.10 56.78L47.14 56.81L47.13 56.81Q44.47 56.78 42.24 57.80L42.29 57.85L42.32 57.88Q40.65 59.12 40.76 61.86L40.81 61.90L40.65 61.75Q40.98 63.16 41.27 66.19L41.33 66.25L41.29 66.21Q42.32 70.27 42.72 71.53L42.59 71.40L42.53 71.33Q43.49 74.24 44.92 76.18L44.91 76.17L44.98 76.24Q45.36 76.74 45.94 77.31L45.97 77.35L45.82 77.20Q46.34 78.00 47.31 79.37L47.29 79.36L47.24 79.30Q49.50 81.39 52.41 81.68L52.45 81.71L52.47 81.74Q49.49 85.61 47.15 88.46L47.20 88.51L41.67 94.98L41.73 95.04Q45.16 93.96 47.62 93.45L47.52 93.35L47.54 93.36Q46.38 94.66 44.04 97.23L44.18 97.37L44.10 97.29Q48.67 95.86 53.35 95.81L53.32 95.78L53.40 95.86Q56.98 92.07 63.49 81.22L63.35 81.08L63.34 81.19L63.49 81.34Q63.72 80.08 64.23 79.33ZM55.22 65.47L55.27 65.52L55.20 65.45Q56.31 65.47 56.99 65.64L56.81 65.46L56.89 65.54Q57.91 65.77 58.48 65.94L58.36 65.81L58.37 65.82Q58.62 66.47 58.73 67.10L58.80 67.17L58.65 67.02Q58.77 67.65 58.59 68.22L58.66 68.28L58.70 68.32Q58.56 70.81 56.79 72.47L56.90 72.58L56.83 72.51Q55.33 73.98 52.88 73.92L52.99 74.03L52.88 73.92Q52.26 73.94 49.98 73.48L50.04 73.54L50.11 73.61Q49.73 72.26 49.73 71.18L49.76 71.20L49.80 71.24Q49.57 70.72 49.57 70.38L49.59 70.41L49.49 70.31Q49.67 67.17 53.10 65.98L53.07 65.95L53.03 65.91Q54.03 65.54 55.29 65.54Z"/><path d="M8 122 C188 84,186 24,332 49" stroke="#5277e4" fill="none"/><path d="M3 72 C170 56,165 55,333 46" stroke="#bf95e8" fill="none"/><path d="M6 64 C163 44,157 133,337 34" stroke="#4b72e6" fill="none"/></svg>