<svg xmlns="http://www.w3.org/2000/svg" width="342" height="140" viewBox="0,0,342,140"><path d="M4 90 C168 95,161 55,323 12" stroke="#9be94d" fill="none"/><path d="M9 126 C161 28,183 28,330 6" stroke="#8be8a2" fill="none"/><path d="M12 125 C189 10,182 68,330 113" stroke="#b57aef" fill="none"/><path fill="#61a3e5" d="M125.90 95.30L125.89 95.29L125.79 95.19Q123.56 95.39 120.99 94.71L120.96 94.68L120.92 94.63Q118.83 93.05 118.58 90.36L118.76 90.53L118.63 90.41Q118.56 90.09 118.88 85.77L119.01 85.91L118.89 85.79Q120.65 85.55 123.97 84.92L123.98 84.93L123.56 86.08L123.58 86.10Q123.15 88.99 125.47 89.93L125.41 89.86L125.59 90.05Q126.72 90.43 130.16 90.43L130.34 90.61L130.17 90.44Q132.94 90.33 133.25 90.21L133.27 90.22L133.26 90.21Q134.70 89.90 135.89 89.09L135.92 89.12L135.82 89.02Q138.27 87.59 137.95 84.15L137.81 84.00L137.89 84.08Q137.66 80.16 134.81 77.60L134.78 77.57L134.65 77.44Q131.93 75.00 127.87 75.00L127.86 75.00L127.72 74.48L127.80 74.56Q128.35 74.42 129.79 74.30L129.86 74.37L129.78 74.29Q132.94 74.13 135.19 72.10L135.34 72.25L135.31 72.22Q137.43 70.06 137.68 66.99L137.68 66.99L137.71 67.02Q137.94 66.56 137.94 66.00L137.92 65.98L137.86 65.92Q137.97 63.52 135.71 62.02L135.68 61.99L135.67 61.98Q133.58 60.58 130.95 60.76L131.07 60.88L131.03 60.84Q128.95 60.63 126.94 61.32L126.91 61.29L126.88 61.26Q124.52 62.14 124.01 64.02L123.97 63.97L124.03 64.03Q123.63 65.20 123.75 66.45L123.80 66.49L123.73 66.42Q122.12 66.12 118.74 64.93L118.81 65.01L118.77 64.97Q118.33 62.15 118.39 60.77L118.46 60.84L118.50 60.88Q118.59 58.28 120.34 57.16L120.33 57.14L120.31 57.13Q122.74 56.24 125.37 56.24L125.24 56.12L125.27 56.15Q130.41 56.03 135.60 56.47L135.79 56.65L135.74 56.60Q143.95 57.19 143.45 63.38L143.55 63.48L143.45 63.38Q143.29 65.78 142.48 68.34L142.49 68.36L142.57 68.44Q141.05 73.49 137.17 74.99L137.19 75.01L137.16 74.97Q141.53 75.90 142.53 81.41L142.55 81.43L142.56 81.44Q142.82 83.20 142.94 86.51L142.91 86.48L142.95 86.51Q143.28 93.91 135.71 94.66L135.72 94.67L135.64 94.59Q134.58 94.84 125.88 95.28ZM134.43 98.95L134.42 98.94L134.42 98.94Q135.42 99.00 140.11 99.13L140.05 99.06L139.99 99.01Q143.03 99.29 145.72 98.23L145.56 98.07L145.57 98.08Q147.56 96.57 147.25 93.69L147.36 93.80L147.20 93.65Q147.10 91.55 146.60 88.67L146.49 88.56L146.65 88.72Q145.41 81.29 142.22 78.60L142.18 78.55L141.87 77.93L141.76 77.76L141.72 77.72Q144.75 75.50 146.00 68.30L145.97 68.27L145.90 68.21Q145.94 67.44 146.13 65.87L146.19 65.93L146.12 65.86Q146.42 64.78 146.29 63.66L146.26 63.63L146.13 63.49Q145.96 60.82 143.84 59.70L143.74 59.60L143.77 59.76L143.71 59.70Q143.18 58.04 141.30 57.16L141.24 57.10L141.33 57.19Q138.84 56.08 130.40 55.58L130.42 55.60L130.44 55.62Q127.60 55.41 124.97 55.41L125.08 55.52L124.96 55.40Q122.27 55.33 119.77 56.39L119.89 56.51L119.82 56.45Q117.92 57.80 117.92 60.68L117.80 60.56L117.83 60.59Q117.93 60.00 118.37 65.50L118.27 65.41L118.36 65.50Q118.78 65.54 121.47 66.54L121.41 66.48L121.57 66.64Q121.45 67.40 121.39 68.21L121.38 68.21L121.50 68.32Q121.37 69.01 121.44 69.88L121.55 70.00L121.58 70.03Q124.45 70.58 127.76 70.77L127.77 70.77L127.72 70.73Q127.63 67.44 129.44 66.07L129.49 66.12L129.34 65.96Q130.73 64.92 134.04 64.54L134.11 64.61L134.17 64.67Q136.08 64.70 137.01 65.01L136.91 64.91L136.85 64.85Q137.10 65.22 137.16 65.41L137.14 65.38L137.04 65.60L137.20 66.51L137.19 66.50Q137.34 66.96 137.27 67.21L137.20 67.13L137.28 67.22Q136.97 69.84 134.47 71.78L134.51 71.83L134.63 71.95Q133.05 73.37 129.74 73.68L129.65 73.59L129.67 73.62Q128.56 73.94 127.12 73.94L127.08 73.90L127.10 73.92Q127.10 74.43 127.35 75.55L127.46 75.66L127.37 75.57Q130.32 75.64 132.69 76.82L132.71 76.85L132.57 76.89L130.02 77.21L129.90 77.09Q130.06 77.76 130.25 78.76L130.13 78.64L130.25 78.76Q133.64 78.53 136.46 80.71L136.41 80.67L136.52 80.78Q136.97 81.47 137.47 84.16L137.42 84.11L137.30 84.00Q137.69 88.89 132.88 89.58L132.94 89.64L132.80 89.51Q129.37 89.95 128.43 89.89L128.50 89.96L128.58 90.04Q127.69 89.71 126.81 89.58L126.90 89.67L126.79 88.81L127.01 88.09L127.10 87.50L127.19 87.02L127.16 86.99Q125.61 87.13 124.30 87.44L124.30 87.44L124.25 87.40Q124.26 87.09 124.26 86.78L124.25 86.77L124.24 86.76Q124.26 86.40 124.26 86.03L124.26 86.03L124.21 85.97Q124.43 85.45 124.68 84.26L124.60 84.18L124.64 84.22Q121.57 84.59 118.51 85.16L118.43 85.07L118.47 85.12Q118.58 86.04 118.39 87.89L118.27 87.76L118.30 87.79Q118.06 89.58 118.06 90.58L118.05 90.57L118.15 90.68Q118.16 93.94 120.41 95.19L120.43 95.20L120.43 95.21Q123.00 99.10 130.76 98.78L130.60 98.63L130.74 98.77Q131.87 98.64 134.37 98.89Z"/><path d="M18 51 C187 133,182 38,333 8" stroke="#a55fec" fill="none"/><path fill="#6c6cee" d="M200.24 67.40L200.29 67.45L200.13 67.28Q195.02 67.43 192.02 65.68L191.99 65.65L191.94 65.60Q196.05 63.33 204.05 56.39L204.04 56.37L204.19 56.52Q205.23 56.06 207.36 55.06L207.42 55.13L207.43 55.13Q205.12 64.77 204.94 75.22L205.00 75.28L205.07 75.35Q204.89 85.81 206.64 95.81L206.59 95.76L206.63 95.80Q203.76 94.50 200.26 94.31L200.28 94.33L200.27 94.32Q200.18 87.60 200.18 80.91L200.10 80.82L200.11 80.84Q200.15 74.13 200.22 67.37ZM199.50 70.98L199.58 95.00L199.62 95.05Q201.63 95.06 203.20 95.37L203.13 95.31L203.15 95.32Q203.32 96.50 203.64 98.75L203.60 98.72L203.59 98.71Q208.25 99.55 212.26 103.24L212.23 103.22L212.23 103.22Q208.24 91.60 208.18 79.34L208.07 79.23L208.11 79.27Q207.94 66.97 210.94 55.09L210.99 55.13L210.98 55.12Q210.07 55.78 207.45 57.59L207.61 57.76L207.61 57.76Q207.86 56.44 208.36 53.94L208.42 54.00L208.33 53.91Q206.18 55.20 203.80 55.82L203.70 55.73L203.81 55.83Q197.64 61.74 190.58 65.49L190.51 65.42L190.46 65.38Q192.79 67.20 196.66 67.76L196.65 67.75L196.71 67.81Q195.64 68.68 193.52 70.43L193.62 70.53L193.49 70.41Q196.00 71.10 199.63 71.10L199.52 70.99Z"/><path d="M15 78 C172 70,164 44,331 49" stroke="#e06aa5" fill="none"/><path d="M6 81 C159 137,151 135,332 7" stroke="#77afe8" fill="none"/><path d="M5 39 C154 59,170 80,338 83" stroke="#b852da" fill="none"/><path d="M8 40 C167 5,176 113,323 11" stroke="#ef89d6" fill="none"/><path d="M11 98 C160 33,179 128,326 26" stroke="#e56f8d" fill="none"/><path d="M13 30 C154 46,187 120,336 113" stroke="#bcd968" fill="none"/><path d="M19 56 C186 105,155 47,338 65" stroke="#b83ae2" fill="none"/><path d="M7 132 C169 3,190 111,336 97" stroke="#e146ba" fill="none"/><path d="M14 127 C188 135,167 30,339 76" stroke="#67de85" fill="none"/><path d="M12 57 C167 32,186 89,323 32" stroke="#c3e462" fill="none"/><path d="M14 18 C151 111,152 12,337 110" stroke="#ee8aa3" fill="none"/><path d="M9 84 C191 86,172 73,340 24" stroke="#5ee85e" fill="none"/><path d="M8 124 C187 13,158 29,340 9" stroke="#e0c060" fill="none"/><path fill="#cae381" d="M261.78 95.18L261.77 95.17L261.72 95.12Q259.50 95.34 256.94 94.65L256.91 94.62L256.95 94.66Q254.98 93.20 254.73 90.51L254.64 90.42L254.70 90.48Q254.59 90.12 254.91 85.80L254.84 85.74L254.92 85.82Q256.62 85.51 259.93 84.89L259.93 84.89L259.54 86.06L259.67 86.19Q259.25 89.09 261.57 90.03L261.49 89.95L261.45 89.90Q262.87 90.58 266.31 90.58L266.26 90.53L266.21 90.48Q268.89 90.28 269.20 90.15L269.18 90.13L269.17 90.12Q270.63 89.83 271.82 89.02L271.84 89.04L271.93 89.13Q274.26 87.58 273.95 84.14L273.81 84.00L273.96 84.16Q273.66 80.17 270.82 77.60L270.75 77.54L270.68 77.46Q267.92 74.99 263.86 74.99L263.84 74.97L263.84 74.60L263.78 74.54Q264.39 74.46 265.83 74.34L265.95 74.46L265.95 74.46Q268.99 74.18 271.24 72.15L271.27 72.18L271.19 72.09Q273.58 70.20 273.83 67.14L273.71 67.02L273.66 66.97Q273.96 66.58 273.96 66.02L273.96 66.02L273.94 66.00Q273.84 63.40 271.59 61.90L271.57 61.88L271.56 61.86Q269.72 60.71 267.09 60.90L267.01 60.82L266.98 60.79Q264.86 60.54 262.85 61.23L262.84 61.21L262.78 61.15Q260.43 62.06 259.93 63.93L260.07 64.07L260.05 64.05Q259.75 65.31 259.87 66.56L259.74 66.43L259.78 66.47Q258.19 66.20 254.81 65.01L254.74 64.93L254.68 64.87Q254.44 62.26 254.51 60.89L254.49 60.87L254.38 60.76Q254.65 58.35 256.41 57.22L256.30 57.12L256.39 57.20Q258.75 56.25 261.37 56.25L261.29 56.17L261.30 56.18Q266.57 56.18 271.76 56.62L271.59 56.46L271.59 56.46Q280.06 57.29 279.56 63.48L279.48 63.40L279.42 63.35Q279.40 65.89 278.59 68.46L278.52 68.39L278.52 68.39Q277.02 73.46 273.15 74.96L273.17 74.98L273.19 75.01Q277.46 75.83 278.46 81.34L278.46 81.34L278.46 81.33Q278.97 83.35 279.09 86.66L278.95 86.52L279.01 86.58Q279.35 93.98 271.78 94.74L271.76 94.71L271.78 94.73Q270.49 94.76 261.80 95.20ZM270.29 98.81L270.29 98.81L270.40 98.93Q271.34 98.93 276.03 99.05L276.10 99.11L276.02 99.04Q278.98 99.25 281.67 98.19L281.58 98.09L281.54 98.05Q283.54 96.55 283.22 93.67L283.29 93.74L283.23 93.68Q283.01 91.46 282.51 88.58L282.57 88.64L282.51 88.58Q281.36 81.24 278.17 78.55L278.16 78.53L277.81 77.87L277.84 77.85L277.84 77.84Q280.72 75.46 281.97 68.27L281.90 68.20L281.97 68.27Q282.08 67.57 282.27 66.01L282.26 66.00L282.22 65.96Q282.34 64.70 282.21 63.57L282.14 63.50L282.14 63.50Q281.96 60.82 279.84 59.70L279.81 59.67L279.66 59.65L279.73 59.72Q279.19 58.05 277.31 57.18L277.24 57.10L277.30 57.16Q274.73 55.97 266.29 55.47L266.30 55.48L266.41 55.60Q263.63 55.44 261.00 55.44L260.95 55.38L260.90 55.33Q258.41 55.48 255.91 56.54L255.78 56.40L255.85 56.48Q253.81 57.69 253.81 60.57L253.89 60.65L253.85 60.61Q253.82 59.89 254.26 65.39L254.27 65.41L254.34 65.48Q254.74 65.49 257.42 66.49L257.45 66.52L257.47 66.54Q257.52 67.46 257.46 68.28L257.42 68.25L257.34 68.16Q257.51 69.15 257.58 70.02L257.42 69.86L257.55 70.00Q260.35 70.49 263.67 70.67L263.72 70.73L263.65 70.65Q263.70 67.52 265.52 66.15L265.33 65.96L265.42 66.04Q266.78 64.97 270.10 64.59L270.22 64.72L270.13 64.63Q271.95 64.57 272.89 64.88L272.87 64.87L272.95 64.95Q273.07 65.19 273.13 65.37L273.15 65.39L272.98 65.54L273.27 66.58L273.21 66.52Q273.32 66.95 273.26 67.20L273.19 67.13L273.19 67.12Q272.97 69.85 270.47 71.79L270.53 71.84L270.61 71.93Q269.09 73.41 265.78 73.72L265.65 73.60L265.76 73.70Q264.62 74.01 263.18 74.01L263.12 73.94L263.09 73.91Q263.18 74.50 263.43 75.63L263.37 75.56L263.39 75.59Q266.27 75.59 268.65 76.78L268.68 76.81L268.49 76.81L265.95 77.15L265.85 77.04Q265.99 77.68 266.18 78.69L266.14 78.65L266.17 78.68Q269.77 78.65 272.58 80.84L272.40 80.66L272.41 80.67Q272.97 81.48 273.47 84.17L273.38 84.08L273.45 84.15Q273.78 88.98 268.96 89.67L268.79 89.49L268.80 89.50Q265.53 90.11 264.59 90.04L264.56 90.02L264.41 89.87Q263.81 89.83 262.94 89.71L262.90 89.67L262.82 88.84L263.11 88.19L263.17 87.56L263.27 87.10L263.27 87.10Q261.67 87.19 260.36 87.51L260.39 87.54L260.33 87.47Q260.19 87.02 260.19 86.71L260.18 86.70L260.18 86.70Q260.39 86.53 260.39 86.16L260.27 86.04L260.32 86.08Q260.32 85.34 260.57 84.15L260.69 84.27L260.63 84.21Q257.47 84.49 254.41 85.05L254.40 85.05L254.40 85.04Q254.51 85.97 254.33 87.82L254.33 87.83L254.23 87.72Q254.15 89.68 254.15 90.68L254.02 90.54L254.11 90.63Q254.17 93.95 256.43 95.20L256.53 95.31L256.43 95.20Q258.88 98.97 266.64 98.66L266.66 98.69L266.60 98.63Q267.87 98.64 270.37 98.89Z"/><path d="M12 137 C159 134,159 19,324 122" stroke="#6384e7" fill="none"/><path d="M9 126 C175 95,165 100,337 64" stroke="#38e538" fill="none"/><path d="M14 7 C171 81,173 54,331 74" stroke="#a3e68d" fill="none"/><path d="M13 3 C161 30,184 73,337 106" stroke="#a3e95c" fill="none"/><path d="M13 53 C181 75,178 11,334 119" stroke="#bd60dc" fill="none"/><path d="M6 103 C177 130,183 121,328 6" stroke="#e87777" fill="none"/><path fill="#8ccde3" d="M63.31 61.18L63.36 61.24L60.80 61.43L60.73 61.35Q57.03 61.54 56.66 64.85L56.59 64.78L56.75 64.94Q56.54 66.04 56.60 67.67L56.53 67.60L56.62 67.68Q56.64 70.84 58.70 73.02L58.77 73.09L58.76 73.08Q60.84 75.29 63.97 75.04L63.85 74.92L63.95 75.02Q67.24 74.68 68.49 73.18L68.58 73.26L68.59 73.28Q70.36 71.80 70.80 68.11L70.66 67.97L70.82 68.13Q71.12 64.30 69.05 62.92L69.16 63.03L69.10 62.97Q67.67 61.66 63.29 61.16ZM73.22 76.34L73.33 76.45L71.03 80.03L71.23 80.23Q66.60 87.92 60.40 94.61L60.57 94.78L60.44 94.65Q57.83 94.98 53.39 96.30L53.44 96.35L53.27 96.17Q62.06 85.88 67.25 78.00L67.31 78.07L67.38 78.13Q65.65 79.16 62.96 79.28L62.98 79.30L62.95 79.27Q57.98 79.49 55.48 76.24L55.52 76.28L55.57 76.34Q53.39 73.53 51.58 66.02L51.65 66.09L51.69 66.14Q51.73 65.43 51.48 63.89L51.38 63.80L51.43 63.84Q51.27 62.40 51.27 61.65L51.25 61.63L51.09 61.47Q51.21 58.65 52.96 57.65L52.97 57.66L52.94 57.63Q54.87 56.31 57.94 56.31L58.04 56.41L57.94 56.31Q63.21 56.33 63.21 56.33L63.15 56.27L63.24 56.36Q66.78 56.39 68.84 56.71L68.93 56.79L68.87 56.73Q72.48 57.28 73.98 58.09L73.92 58.03L73.78 57.89Q76.05 59.16 76.36 62.04L76.49 62.16L76.48 62.16Q76.46 62.51 76.14 66.89L76.08 66.82L76.07 66.81Q75.57 70.44 75.20 71.82L75.05 71.67L75.03 71.65Q74.52 74.08 73.27 76.39ZM76.36 80.30L76.31 80.25L76.38 80.32Q78.04 76.73 78.92 69.66L78.91 69.65L78.86 69.61Q79.35 66.02 79.28 64.58L79.26 64.56L79.28 64.58Q79.19 61.49 77.25 59.99L77.34 60.08L76.78 59.83L76.82 59.87Q76.33 58.57 74.83 57.51L74.72 57.39L74.83 57.51Q71.13 55.93 63.25 55.68L63.15 55.58L63.27 55.70Q61.52 55.52 57.52 55.52L57.66 55.66L57.54 55.53Q54.72 55.59 52.28 56.72L52.22 56.66L52.36 56.80Q50.43 58.06 50.56 61.06L50.54 61.05L50.45 60.96Q50.89 62.58 51.20 65.90L51.26 65.95L51.21 65.91Q52.13 70.14 52.56 71.51L52.56 71.50L52.69 71.64Q53.57 74.64 55.13 76.77L55.16 76.80L55.18 76.82Q55.52 77.28 56.14 77.91L56.16 77.93L56.23 78.00Q56.52 78.60 57.58 80.10L57.74 80.26L57.67 80.18Q60.05 82.38 63.24 82.69L63.23 82.68L63.32 82.77Q60.25 87.20 57.69 90.33L57.66 90.30L51.68 97.46L51.66 97.44Q55.34 96.18 58.03 95.62L58.08 95.66L58.12 95.70Q56.83 97.11 54.27 99.92L54.19 99.84L54.31 99.96Q59.22 98.31 64.35 98.25L64.42 98.32L64.49 98.38Q68.31 94.13 75.44 82.25L75.39 82.21L75.42 82.36L75.45 82.39Q75.75 81.06 76.31 80.25ZM66.54 65.17L66.47 65.09L66.52 65.15Q67.45 64.89 68.20 65.08L68.18 65.05L68.32 65.19Q69.23 65.22 69.85 65.41L69.92 65.47L69.88 65.44Q70.04 66.03 70.16 66.72L70.27 66.83L70.27 66.83Q70.32 67.44 70.13 68.07L70.19 68.12L70.22 68.15Q70.11 70.93 68.17 72.74L68.18 72.75L68.13 72.69Q66.58 74.39 63.89 74.33L63.85 74.30L63.88 74.32Q63.17 74.30 60.66 73.80L60.72 73.85L60.71 73.84Q60.47 72.54 60.47 71.35L60.32 71.20L60.33 71.21Q60.27 70.84 60.27 70.46L60.25 70.44L60.15 70.35Q60.34 66.91 64.10 65.60L63.91 65.41L64.03 65.53Q65.09 65.09 66.47 65.09Z"/><path d="M5 36 C160 21,187 137,322 134" stroke="#4cdb4c" fill="none"/><path d="M12 10 C172 66,177 103,332 27" stroke="#4cdbb7" fill="none"/><path d="M4 18 C158 101,169 78,336 119" stroke="#7373ec" fill="none"/><path d="M14 96 C150 71,153 55,323 130" stroke="#e759c4" fill="none"/><path d="M7 9 C155 67,164 57,331 64" stroke="#3939e4" fill="none"/><path d="M6 20 C173 3,156 21,327 21" stroke="#e13b65" fill="none"/><path d="M4 108 C165 131,176 9,328 121" stroke="#6281de" fill="none"/><path d="M1 32 C191 77,168 19,326 59" stroke="#e58261" fill="none"/><path d="M7 54 C168 16,154 71,341 39" stroke="#6c8ae4" fill="none"/><path d="M8 7 C181 97,171 67,340 113" stroke="#8b8be8" fill="none"/><path d="M13 36 C157 126,162 51,328 48" stroke="#6ae06a" fill="none"/><path d="M18 56 C191 132,192 106,337 11" stroke="#6fdc8a" fill="none"/><path d="M5 121 C166 72,187 15,335 60" stroke="#b5e485" fill="none"/><path d="M10 108 C170 131,164 4,324 76" stroke="#78eccf" fill="none"/><path d="M12 138 C182 108,178 4,321 112" stroke="#8debbc" fill="none"/><path d="M2 21 C152 99,167 17,324 95" stroke="#d84444" fill="none"/><path d="M18 4 C167 79,179 32,324 71" stroke="#c7e669" fill="none"/></svg>