<svg xmlns="http://www.w3.org/2000/svg" width="342" height="140" viewBox="0,0,342,140"><path d="M8 70 C171 52,160 19,334 75" stroke="#c65ce9" fill="none"/><path d="M8 8 C157 37,165 13,330 64" stroke="#e98080" fill="none"/><path fill="#ee76b2" d="M63.40 61.41L63.53 61.53L61.05 61.72L60.93 61.60Q57.44 61.86 57.08 65.07L57.06 65.05L57.08 65.07Q56.93 66.19 56.99 67.77L56.95 67.72L57.08 67.85Q57.00 70.80 58.99 72.91L58.96 72.88L59.01 72.93Q61.10 75.14 64.13 74.90L64.12 74.89L64.02 74.79Q67.38 74.64 68.59 73.19L68.49 73.09L68.52 73.12Q70.27 71.73 70.69 68.16L70.74 68.20L70.57 68.03Q71.00 64.47 69.00 63.13L69.08 63.21L69.07 63.20Q67.69 61.94 63.45 61.46ZM73.14 76.23L73.00 76.09L71.04 79.82L71.02 79.80Q66.80 87.50 60.81 93.97L60.74 93.90L60.82 93.98Q58.20 94.20 53.91 95.47L53.77 95.34L53.89 95.46Q62.31 85.42 67.33 77.80L67.42 77.89L67.30 77.77Q65.69 78.82 63.09 78.94L63.05 78.90L63.05 78.90Q58.24 79.12 55.82 75.97L55.99 76.15L55.82 75.97Q53.97 73.51 52.21 66.25L52.15 66.19L52.23 66.27Q52.14 65.45 51.89 63.97L51.91 63.98L51.97 64.04Q51.81 62.64 51.81 61.92L51.81 61.91L51.70 61.81Q51.75 59.01 53.44 58.04L53.41 58.01L53.47 58.07Q55.40 56.86 58.37 56.86L58.25 56.74L58.28 56.77Q63.43 56.83 63.43 56.83L63.45 56.86L63.37 56.78Q66.95 56.97 68.95 57.27L68.76 57.08L68.88 57.20Q72.26 57.62 73.71 58.40L73.67 58.36L73.69 58.39Q75.85 59.57 76.15 62.36L76.08 62.29L76.20 62.41Q76.10 62.67 75.80 66.91L75.89 67.00L75.96 67.07Q75.35 70.45 74.99 71.78L74.99 71.78L74.96 71.76Q74.23 73.87 73.02 76.11ZM76.11 79.98L76.17 80.05L76.13 80.00Q77.71 76.50 78.56 69.67L78.53 69.63L78.51 69.62Q78.85 66.03 78.79 64.64L78.80 64.64L78.81 64.65Q78.90 61.84 77.02 60.39L77.02 60.38L76.54 60.20L76.53 60.20Q76.05 58.93 74.60 57.90L74.53 57.84L74.62 57.92Q70.89 56.25 63.26 56.01L63.34 56.08L63.24 55.99Q61.78 56.03 57.91 56.03L57.95 56.07L58.03 56.16Q55.27 56.18 52.91 57.27L52.89 57.25L52.77 57.13Q50.91 58.36 51.03 61.26L51.10 61.33L51.11 61.33Q51.43 62.81 51.74 66.02L51.75 66.03L51.71 65.99Q52.71 70.20 53.14 71.53L53.04 71.43L53.11 71.51Q53.95 74.40 55.46 76.46L55.57 76.57L55.44 76.44Q55.86 76.98 56.47 77.59L56.48 77.60L56.47 77.59Q56.90 78.32 57.92 79.77L58.07 79.92L58.04 79.89Q60.31 81.98 63.40 82.28L63.51 82.39L63.52 82.40Q60.51 86.65 58.03 89.68L57.88 89.52L52.20 96.55L52.29 96.64Q55.81 95.38 58.41 94.83L58.39 94.81L58.38 94.81Q57.24 96.26 54.75 98.99L54.63 98.86L54.69 98.92Q59.58 97.45 64.54 97.39L64.47 97.32L64.60 97.46Q68.24 93.29 75.14 81.80L75.16 81.82L75.16 81.93L75.08 81.86Q75.48 80.69 76.02 79.90ZM66.58 65.32L66.64 65.37L66.61 65.34Q67.52 65.10 68.25 65.29L68.30 65.34L68.19 65.23Q69.30 65.50 69.91 65.68L69.96 65.73L69.79 65.56Q69.97 66.16 70.09 66.83L70.09 66.82L70.17 66.91Q70.31 67.59 70.13 68.20L70.19 68.26L70.12 68.19Q70.12 70.97 68.25 72.73L68.12 72.60L68.22 72.70Q66.66 74.29 64.06 74.22L64.12 74.29L64.12 74.28Q63.42 74.25 61.00 73.77L61.07 73.84L61.01 73.78Q60.61 72.35 60.61 71.20L60.63 71.22L60.59 71.18Q60.57 70.86 60.57 70.50L60.49 70.42L60.42 70.35Q60.49 66.91 64.12 65.64L64.18 65.69L64.16 65.68Q65.25 65.32 66.58 65.32Z"/><path d="M7 33 C156 28,191 113,339 120" stroke="#c3e952" fill="none"/><path fill="#e85e5e" d="M125.22 82.73L125.19 82.69L125.15 82.66Q130.12 82.12 135.20 82.30L135.14 82.24L135.08 82.17Q134.99 78.09 134.99 74.28L135.12 74.42L135.12 74.42Q134.99 70.35 135.29 66.30L135.29 66.29L135.45 66.45Q133.34 69.01 125.05 82.56ZM140.92 94.37L140.79 94.24L140.80 94.25Q138.25 93.88 135.40 93.75L135.45 93.80L135.46 93.81Q135.12 90.02 134.94 86.09L134.96 86.11L134.84 85.99Q126.48 85.80 118.98 88.04L118.97 88.03L118.85 87.92Q119.08 87.18 119.39 85.61L119.38 85.60L119.45 85.66Q122.22 80.57 127.91 70.59L128.02 70.70L127.90 70.58Q132.49 62.83 137.94 56.66L137.91 56.63L137.96 56.69Q139.40 56.43 142.06 56.01L141.99 55.94L141.99 55.93Q138.90 66.09 138.90 77.28L138.97 77.36L139.06 77.44Q138.98 79.72 139.10 82.08L139.14 82.13L141.21 82.32L141.19 82.30Q142.23 82.43 143.20 82.61L143.10 82.52L143.09 82.50Q143.29 84.09 143.71 87.18L143.80 87.27L143.68 87.14Q141.82 86.80 139.46 86.50L139.38 86.42L139.32 86.36Q139.86 89.74 140.95 94.40ZM143.49 81.88L143.47 81.86L143.44 81.82Q143.27 81.84 142.97 81.84L142.93 81.81L142.36 81.83L142.37 81.85Q142.16 79.46 142.16 77.22L142.22 77.28L142.07 77.13Q142.15 67.05 145.42 57.49L145.46 57.53L145.45 57.52Q144.22 57.92 141.92 58.53L141.90 58.50L141.92 58.53Q142.19 57.22 142.91 54.98L143.03 55.10L142.90 54.96Q141.03 55.76 137.76 56.12L137.73 56.09L137.65 56.01Q131.53 63.02 123.24 77.90L123.21 77.87L126.51 72.03L126.55 72.07Q125.71 73.53 125.28 74.44L125.29 74.45L118.39 88.96L118.32 88.90Q119.33 88.63 121.14 88.03L121.08 87.96L120.87 88.35L120.90 88.39Q120.73 89.49 120.25 91.49L120.27 91.51L120.21 91.45Q126.81 89.40 134.50 89.70L134.39 89.60L134.43 89.63Q134.48 91.14 134.78 94.28L134.74 94.24L134.90 94.40Q136.47 94.28 138.16 94.46L138.17 94.46L138.15 94.45Q138.51 95.65 138.93 97.83L138.89 97.78L138.92 97.82Q141.82 98.06 146.60 99.51L146.67 99.57L146.74 99.64Q145.01 96.10 143.56 90.90L143.58 90.92L145.95 91.72L145.91 91.68Q146.99 92.03 148.08 92.57L148.09 92.58L148.08 92.57Q146.94 88.71 146.70 86.05L146.64 86.00L146.54 85.90Q145.81 85.83 143.99 85.46L143.98 85.45L143.90 85.37Q143.46 83.24 143.46 81.85ZM130.78 81.63L130.74 81.59L130.73 81.58Q132.05 79.64 134.53 75.58L134.42 75.47L134.50 75.55Q134.46 77.02 134.40 78.54L134.51 78.64L134.36 78.50Q134.54 80.24 134.60 81.76L134.42 81.58L134.46 81.62Q133.67 81.68 132.76 81.68L132.65 81.57L132.68 81.60Q131.72 81.60 130.75 81.60Z"/><path d="M10 62 C190 76,175 133,339 119" stroke="#d78eef" fill="none"/><path d="M12 129 C178 54,164 22,329 33" stroke="#a4e68e" fill="none"/><path d="M14 50 C174 17,153 138,330 68" stroke="#ee80b7" fill="none"/><path d="M21 16 C170 61,156 93,332 58" stroke="#cf78ec" fill="none"/><path d="M15 31 C158 15,164 60,326 94" stroke="#e2643a" fill="none"/><path d="M12 112 C159 49,191 109,325 77" stroke="#e358e3" fill="none"/><path d="M10 6 C166 136,171 19,326 94" stroke="#7cb2e8" fill="none"/><path d="M16 21 C175 90,164 16,338 126" stroke="#59c4e7" fill="none"/><path d="M8 9 C177 68,156 12,325 24" stroke="#5ea3e8" fill="none"/><path d="M13 23 C185 65,173 124,322 88" stroke="#7551e0" fill="none"/><path d="M18 131 C170 23,168 112,340 133" stroke="#a8e593" fill="none"/><path d="M9 20 C156 72,183 106,323 123" stroke="#e44dbe" fill="none"/><path d="M10 101 C158 30,186 34,334 87" stroke="#e7406a" fill="none"/><path d="M18 91 C168 15,162 16,332 43" stroke="#84ea84" fill="none"/><path d="M12 47 C182 81,178 129,340 133" stroke="#4168dc" fill="none"/><path d="M9 16 C162 44,170 31,334 88" stroke="#d2eb88" fill="none"/><path fill="#dfb947" d="M279.99 90.55L279.92 90.47L279.88 90.44Q280.39 92.03 281.24 95.24L281.26 95.26L281.30 95.30Q274.67 93.27 267.35 93.69L267.21 93.55L267.21 93.56Q260.04 94.07 253.69 97.21L253.56 97.09L253.61 97.14Q253.92 96.00 253.98 96.12L254.08 96.22L254.00 96.13Q260.05 89.96 266.28 82.94L266.26 82.92L266.24 82.90Q273.19 74.91 275.07 67.47L275.06 67.46L275.09 67.49Q275.91 64.80 273.88 62.93L273.72 62.76L273.82 62.86Q271.78 60.98 268.94 61.22L268.90 61.18L268.95 61.23Q268.35 61.11 267.80 61.11L267.82 61.13L267.92 61.23Q265.43 61.16 263.43 62.61L263.41 62.59L263.51 62.69Q261.29 64.71 261.66 68.94L261.80 69.09L261.66 68.95Q258.99 68.58 257.05 67.85L257.00 67.80L257.05 67.84Q256.74 65.60 256.62 63.31L256.58 63.27L256.50 63.18Q256.34 60.54 257.30 58.72L257.35 58.77L257.41 58.83Q260.21 56.61 265.54 56.61L265.61 56.68L268.33 56.62L268.35 56.64Q271.99 56.71 273.50 56.89L273.39 56.77L273.50 56.89Q280.44 57.60 280.86 61.47L280.73 61.33L280.73 61.34Q280.92 62.31 280.80 63.58L280.86 63.65L280.75 63.54Q280.72 64.60 280.48 65.69L280.51 65.72L280.56 65.76Q277.81 78.51 265.77 89.40L265.85 89.48L265.95 89.57Q268.09 89.23 270.26 89.23L270.20 89.17L270.32 89.29Q275.33 89.15 279.87 90.42ZM278.96 57.33L279.06 57.43L279.14 57.51Q276.54 56.42 273.82 56.30L273.84 56.33L268.37 55.99L268.30 55.92Q261.29 55.57 257.78 57.32L257.65 57.20L257.84 57.39Q256.02 59.43 256.02 62.70L255.98 62.66L255.99 62.67Q256.16 63.93 256.64 68.41L256.68 68.44L256.63 68.40Q257.38 68.66 259.25 69.14L259.37 69.26L259.31 70.83L259.40 70.92Q259.29 71.60 259.41 72.44L259.30 72.34L259.35 72.38Q261.41 72.63 265.35 73.00L265.27 72.92L265.36 73.01Q265.24 72.34 265.24 71.80L265.33 71.89L265.24 71.80Q265.32 68.97 267.25 66.83L267.18 66.75L267.13 66.70Q269.11 64.60 271.96 64.79L271.90 64.73L272.03 64.86Q273.08 64.76 274.29 65.00L274.39 65.10L274.48 65.19Q274.66 65.79 274.78 66.46L274.78 66.45L274.60 66.28Q274.82 67.10 274.70 67.64L274.54 67.49L274.56 67.51Q272.65 75.15 265.63 82.84L265.58 82.79L265.59 82.80Q262.14 86.31 253.49 95.93L253.59 96.03L253.64 96.08Q253.36 97.43 252.81 98.34L252.68 98.20L252.74 98.26Q255.35 96.94 257.77 96.09L257.71 96.04L257.64 95.96Q256.57 96.95 255.05 99.31L255.09 99.34L255.06 99.32Q254.87 99.85 254.69 100.40L254.75 100.46L254.68 100.39Q262.39 97.08 271.10 97.39L271.14 97.42L271.11 97.40Q280.23 97.75 287.49 101.50L287.42 101.42L285.90 98.09L285.91 98.10Q284.86 95.96 284.44 94.69L284.45 94.70L284.32 94.57Q283.31 94.05 281.38 93.39L281.29 93.29L281.36 93.37Q281.08 92.18 280.48 90.00L280.35 89.87L280.41 89.93Q277.00 89.13 273.37 88.83L273.25 88.71L273.22 88.67Q280.73 81.49 283.15 68.36L283.16 68.37L283.43 63.74L283.47 63.78Q283.29 60.87 281.35 59.78L281.35 59.78L281.44 59.93L281.29 59.78Q281.28 59.71 281.16 59.71L281.16 59.71L281.09 59.64Q280.86 58.44 279.10 57.47Z"/><path d="M21 57 C151 35,192 106,336 116" stroke="#d86381" fill="none"/><path d="M17 81 C169 72,164 37,336 139" stroke="#e353bf" fill="none"/><path d="M5 102 C181 79,192 58,339 139" stroke="#446de7" fill="none"/><path d="M20 45 C168 52,167 42,339 51" stroke="#e67979" fill="none"/><path d="M18 13 C163 132,178 87,328 72" stroke="#e3e37c" fill="none"/><path d="M11 51 C170 83,165 98,331 64" stroke="#5353e8" fill="none"/><path d="M18 83 C158 62,174 74,327 61" stroke="#9379e1" fill="none"/><path fill="#42e593" d="M195.25 94.52L195.18 94.45L195.13 94.40Q188.62 94.73 187.05 91.04L187.12 91.12L187.07 91.07Q188.33 89.60 190.81 86.76L190.90 86.85L190.82 86.76Q191.62 89.99 196.40 90.17L196.33 90.10L196.43 90.20Q201.71 90.22 204.31 88.10L204.35 88.13L204.35 88.14Q206.61 85.62 206.49 81.33L206.45 81.28L206.48 81.31Q206.33 73.36 198.71 73.73L198.53 73.55L198.52 73.53Q194.24 73.97 191.45 75.97L191.31 75.83L190.76 75.52L190.44 75.32L190.44 75.32Q191.09 70.40 190.91 66.05L190.80 65.94L190.94 66.07Q190.77 61.91 190.22 56.65L190.17 56.59L190.10 56.53Q195.96 58.09 202.01 57.91L201.98 57.88L202.04 57.94Q208.12 57.84 213.81 55.85L213.68 55.72L212.77 58.14L212.88 58.25Q212.35 59.41 212.05 60.74L212.14 60.83L212.11 60.80Q206.99 62.28 200.82 62.28L200.84 62.30L201.01 62.47Q198.64 62.40 196.28 62.16L196.19 62.07L196.21 62.09Q196.23 63.32 195.68 70.39L195.65 70.36L195.55 70.27Q196.90 69.55 200.17 69.31L200.19 69.34L200.19 69.33Q206.04 69.62 208.34 72.28L208.43 72.38L208.51 72.45Q210.50 74.68 210.92 80.79L210.93 80.81L210.97 80.84Q211.40 87.51 209.47 90.71L209.56 90.81L209.58 90.83Q206.22 93.70 200.95 94.06L201.13 94.24L201.07 94.18Q199.37 94.17 195.14 94.41ZM204.79 98.08L204.82 98.11L204.75 98.04Q210.31 98.27 213.34 96.52L213.19 96.37L213.20 96.38Q214.87 94.06 214.87 90.73L214.81 90.68L214.74 90.60Q214.88 85.84 213.37 79.31L213.41 79.34L213.24 79.18Q212.77 76.53 210.83 74.29L210.71 74.17L210.88 74.40L210.45 73.85L210.01 73.65L209.84 73.49Q209.36 72.34 208.33 71.25L208.32 71.24L208.40 71.37L208.51 71.48Q206.07 68.80 200.20 68.80L200.11 68.71L199.71 68.73L199.70 68.72Q199.89 67.88 200.19 66.13L200.15 66.09L200.10 66.04Q208.10 66.29 214.51 63.69L214.49 63.67L214.57 63.75Q215.22 61.50 216.73 57.02L216.56 56.85L213.27 58.40L213.27 58.40Q214.01 56.72 214.80 54.90L214.79 54.90L214.80 54.90Q208.63 57.14 202.10 57.27L201.97 57.14L201.98 57.15Q195.44 57.33 189.15 55.57L189.16 55.58L189.16 55.58Q190.36 62.71 190.36 69.73L190.31 69.68L190.28 69.65Q190.26 72.66 190.08 75.69L190.12 75.73L190.10 75.70Q190.55 76.03 191.46 76.51L191.55 76.61L191.45 76.51Q192.08 76.23 193.11 75.68L193.12 75.70L193.10 75.68Q192.97 76.82 192.61 79.24L192.67 79.30L192.69 79.32Q193.28 79.54 193.94 79.91L193.89 79.86L193.87 79.83Q198.34 77.11 201.31 77.11L201.28 77.08L201.31 77.11Q203.38 77.07 205.26 78.10L205.42 78.25L205.39 78.23Q205.96 79.89 206.02 81.40L205.90 81.28L205.96 81.34Q206.13 85.50 204.49 87.25L204.47 87.23L204.35 87.11Q202.34 89.21 198.77 89.57L198.74 89.54L198.77 89.58Q197.26 89.70 196.17 89.58L196.10 89.51L196.14 89.55Q194.78 89.33 193.57 88.79L193.61 88.83L193.45 88.37L193.21 88.49L193.24 88.52Q191.93 87.69 191.08 85.58L191.16 85.66L191.27 85.76Q189.00 87.86 186.34 91.24L186.40 91.31L186.34 91.24Q186.83 92.27 188.16 93.79L188.28 93.91L188.31 93.94Q189.96 96.80 194.44 97.59L194.28 97.43L194.45 97.60Q196.16 97.80 204.69 97.98Z"/><path d="M12 2 C166 20,179 113,325 33" stroke="#c468e3" fill="none"/><path d="M20 97 C183 68,163 127,327 48" stroke="#cd6ded" fill="none"/><path d="M19 53 C167 31,159 127,332 84" stroke="#d0ee76" fill="none"/><path d="M18 26 C182 37,184 5,324 70" stroke="#b2e97b" fill="none"/><path d="M11 121 C173 4,181 76,325 46" stroke="#eeee8a" fill="none"/><path d="M9 67 C156 127,158 47,334 22" stroke="#e35858" fill="none"/><path d="M12 44 C190 123,186 34,330 86" stroke="#5298df" fill="none"/><path d="M10 16 C153 52,176 132,340 12" stroke="#9ed863" fill="none"/><path d="M2 16 C190 127,160 19,340 34" stroke="#859fef" fill="none"/><path d="M6 13 C159 129,173 131,333 65" stroke="#ec73ce" fill="none"/><path d="M1 126 C154 46,163 5,329 51" stroke="#4d71df" fill="none"/><path d="M7 116 C172 53,150 11,337 120" stroke="#5cdfdf" fill="none"/><path d="M6 18 C175 7,156 101,329 43" stroke="#61a5ea" fill="none"/><path d="M1 21 C191 50,151 46,321 79" stroke="#df5dbe" fill="none"/></svg>