<svg xmlns="http://www.w3.org/2000/svg" width="342" height="140" viewBox="0,0,342,140"><path d="M12 80 C150 62,171 68,339 134" stroke="#88baeb" fill="none"/><path d="M17 19 C188 76,181 65,322 8" stroke="#e8b581" fill="none"/><path d="M13 108 C152 51,192 93,329 78" stroke="#77de77" fill="none"/><path d="M18 20 C184 49,183 105,327 133" stroke="#9e62da" fill="none"/><path d="M4 35 C162 83,168 41,330 88" stroke="#d085e9" fill="none"/><path d="M16 129 C155 5,192 50,340 95" stroke="#9b4ee8" fill="none"/><path d="M16 137 C151 5,160 127,331 55" stroke="#46d2d2" fill="none"/><path d="M6 77 C167 118,179 102,336 52" stroke="#88e6e6" fill="none"/><path d="M20 4 C152 44,185 24,337 112" stroke="#ed86ba" fill="none"/><path fill="#db61bc" d="M62.77 60.10L62.60 59.94L59.88 60.32L59.73 60.18Q55.71 60.54 55.29 64.29L55.15 64.15L55.24 64.24Q55.00 65.49 55.07 67.32L55.07 67.32L55.21 67.47Q55.16 70.95 57.49 73.42L57.53 73.46L57.60 73.53Q59.84 75.91 63.38 75.63L63.32 75.57L63.32 75.57Q67.14 75.29 68.55 73.59L68.71 73.75L68.69 73.73Q70.63 72.00 71.13 67.83L71.10 67.80L71.08 67.78Q71.55 63.59 69.22 62.03L69.37 62.18L69.29 62.10Q67.69 60.64 62.74 60.08ZM74.00 77.27L73.96 77.23L71.45 81.36L71.44 81.36Q66.43 90.27 59.43 97.84L59.58 97.99L59.59 98.00Q56.49 98.22 51.47 99.71L51.52 99.76L51.54 99.78Q61.28 87.95 67.14 79.04L67.25 79.14L67.22 79.12Q65.30 80.31 62.26 80.45L62.35 80.54L62.37 80.56Q56.78 80.84 53.96 77.17L53.94 77.15L53.79 77.00Q51.57 74.07 49.52 65.59L49.53 65.60L49.59 65.66Q49.57 64.79 49.29 63.06L49.28 63.05L49.21 62.98Q48.96 61.29 48.96 60.44L49.02 60.49L49.01 60.49Q49.01 57.16 50.99 56.03L51.06 56.10L51.06 56.10Q53.29 54.65 56.75 54.65L56.64 54.54L56.68 54.58Q62.70 54.66 62.70 54.66L62.56 54.52L62.67 54.63Q66.59 54.59 68.92 54.94L68.98 55.00L68.93 54.95Q73.00 55.55 74.69 56.47L74.55 56.33L74.59 56.37Q77.24 57.88 77.59 61.14L77.46 61.01L77.54 61.09Q77.49 61.46 77.13 66.41L77.23 66.51L77.20 66.47Q76.43 70.37 76.00 71.92L76.05 71.97L75.99 71.90Q75.40 74.64 73.99 77.26ZM77.44 81.63L77.57 81.76L77.44 81.63Q79.26 77.51 80.25 69.52L80.20 69.48L80.27 69.54Q80.78 65.46 80.71 63.84L80.72 63.84L80.74 63.87Q80.62 60.35 78.42 58.65L78.55 58.77L77.84 58.41L77.91 58.49Q77.44 57.10 75.74 55.89L75.71 55.86L75.70 55.85Q71.40 53.96 62.49 53.68L62.62 53.81L62.58 53.77Q60.78 53.73 56.26 53.73L56.20 53.68L56.26 53.73Q53.01 53.74 50.25 55.01L50.18 54.94L50.24 55.00Q48.17 56.54 48.31 59.93L48.27 59.88L48.34 59.95Q48.58 61.54 48.94 65.29L49.08 65.43L49.02 65.37Q50.12 70.22 50.62 71.78L50.57 71.72L50.64 71.80Q51.70 75.27 53.47 77.67L53.50 77.70L53.41 77.61Q53.95 78.29 54.66 79.00L54.60 78.94L54.69 79.04Q55.16 79.85 56.36 81.55L56.35 81.54L56.43 81.62Q59.16 84.14 62.77 84.49L62.75 84.48L62.67 84.39Q59.10 89.31 56.20 92.85L56.35 92.99L49.48 100.97L49.46 100.95Q53.65 99.55 56.69 98.92L56.70 98.93L56.67 98.90Q55.34 100.61 52.44 103.79L52.50 103.85L52.54 103.88Q58.25 102.18 64.05 102.10L63.94 101.99L63.96 102.01Q68.33 97.27 76.39 83.83L76.31 83.75L76.35 83.94L76.44 84.03Q76.87 82.61 77.50 81.69ZM66.40 64.58L66.27 64.46L66.39 64.57Q67.35 64.19 68.20 64.40L68.33 64.54L68.37 64.57Q69.45 64.67 70.16 64.88L70.24 64.95L70.28 65.00Q70.48 65.69 70.62 66.47L70.48 66.33L70.50 66.35Q70.67 67.16 70.46 67.87L70.52 67.92L70.46 67.86Q70.38 71.04 68.19 73.09L68.29 73.19L68.22 73.12Q66.43 75.00 63.39 74.93L63.50 75.05L63.50 75.05Q62.70 75.02 59.87 74.45L59.86 74.45L59.82 74.40Q59.34 72.73 59.34 71.38L59.44 71.48L59.33 71.37Q59.27 70.96 59.27 70.54L59.31 70.57L59.14 70.40Q59.25 66.41 63.49 64.93L63.56 65.00L63.39 64.83Q64.76 64.50 66.32 64.50Z"/><path d="M14 100 C180 54,178 136,332 92" stroke="#5f82ec" fill="none"/><path d="M1 76 C153 100,163 137,330 116" stroke="#6987e2" fill="none"/><path d="M11 86 C164 52,168 23,328 73" stroke="#53d974" fill="none"/><path d="M6 79 C188 87,181 133,323 83" stroke="#daa36c" fill="none"/><path d="M3 29 C180 113,163 100,322 62" stroke="#40b9e2" fill="none"/><path fill="#4ce04c" d="M123.27 84.74L123.26 84.73L123.37 84.83Q129.13 84.17 135.07 84.38L135.02 84.32L134.95 84.25Q134.91 79.55 134.91 75.10L134.87 75.05L134.99 75.17Q134.93 70.52 135.28 65.78L135.31 65.81L135.29 65.79Q132.99 68.93 123.30 84.77ZM141.68 98.41L141.60 98.33L141.63 98.36Q138.64 97.92 135.32 97.78L135.29 97.75L135.16 97.61Q134.95 93.38 134.74 88.78L134.66 88.71L134.67 88.72Q124.89 88.47 116.12 91.09L116.05 91.02L115.98 90.95Q116.22 90.06 116.58 88.23L116.68 88.32L116.68 88.33Q119.95 82.41 126.60 70.74L126.60 70.74L126.52 70.67Q131.93 61.66 138.30 54.45L138.27 54.42L138.37 54.52Q139.99 54.16 143.11 53.67L142.97 53.53L143.12 53.68Q139.51 65.56 139.51 78.64L139.54 78.67L139.48 78.60Q139.51 81.39 139.65 84.15L139.60 84.10L142.03 84.34L142.02 84.32Q143.08 84.33 144.21 84.54L144.38 84.71L144.21 84.54Q144.56 86.51 145.06 90.12L145.04 90.11L145.08 90.14Q142.72 89.56 139.97 89.20L139.99 89.22L139.90 89.14Q140.48 93.03 141.75 98.48ZM144.75 83.88L144.80 83.93L144.72 83.85Q144.38 83.72 144.03 83.72L144.18 83.87L143.41 83.81L143.29 83.69Q143.08 80.94 143.08 78.32L143.16 78.40L143.18 78.42Q143.24 66.60 147.06 55.43L147.02 55.39L147.03 55.40Q145.53 55.81 142.85 56.52L142.94 56.61L142.90 56.57Q143.25 55.08 144.10 52.47L144.07 52.44L144.23 52.60Q141.82 53.30 138.00 53.73L137.98 53.71L138.00 53.73Q130.67 61.73 120.98 79.13L120.88 79.02L124.80 72.27L124.83 72.30Q124.13 74.28 123.63 75.34L123.66 75.37L115.35 92.09L115.22 91.96Q116.46 91.72 118.58 91.01L118.73 91.15L118.35 91.48L118.46 91.59Q118.12 92.73 117.55 95.07L117.52 95.04L117.67 95.18Q125.13 92.54 134.11 92.89L134.17 92.95L134.10 92.88Q134.21 94.68 134.56 98.36L134.54 98.34L134.53 98.33Q136.57 98.39 138.55 98.60L138.63 98.69L138.55 98.60Q138.88 99.92 139.37 102.47L139.34 102.43L139.45 102.54Q142.93 102.91 148.51 104.60L148.46 104.55L148.40 104.49Q146.65 100.63 144.96 94.55L144.91 94.50L147.58 95.33L147.71 95.46Q148.83 95.74 150.11 96.37L150.19 96.46L150.18 96.45Q148.73 91.82 148.45 88.70L148.35 88.60L148.42 88.67Q147.41 88.44 145.29 88.02L145.32 88.06L145.16 87.89Q144.80 85.55 144.80 83.92ZM130.04 83.73L129.97 83.66L130.02 83.71Q131.34 81.21 134.23 76.47L134.20 76.44L134.19 76.43Q134.31 78.31 134.24 80.08L134.24 80.08L134.14 79.98Q134.18 81.86 134.25 83.62L134.20 83.58L134.29 83.67Q133.17 83.54 132.11 83.54L132.16 83.59L132.11 83.53Q131.01 83.57 129.88 83.57Z"/><path d="M11 39 C192 100,169 25,322 9" stroke="#4b72e6" fill="none"/><path d="M13 75 C158 30,151 33,335 24" stroke="#d8448e" fill="none"/><path d="M7 80 C171 89,183 70,325 43" stroke="#e1e183" fill="none"/><path d="M15 58 C157 69,184 2,332 70" stroke="#89bcef" fill="none"/><path d="M15 132 C158 20,181 10,339 60" stroke="#73cdec" fill="none"/><path fill="#d64cb3" d="M198.50 77.69L198.69 77.87L198.68 77.87Q195.18 77.83 192.91 80.30L192.85 80.24L192.95 80.33Q190.55 82.68 190.27 86.21L190.33 86.27L190.28 86.22Q190.00 90.25 192.26 92.13L192.21 92.07L192.20 92.06Q194.59 94.07 198.55 93.92L198.52 93.90L198.45 93.83Q202.85 93.63 204.62 91.86L204.62 91.86L204.62 91.86Q206.41 89.06 206.19 85.66L206.30 85.77L206.14 85.61Q206.02 82.24 204.01 80.01L204.01 80.01L203.99 80.00Q202.06 77.85 198.67 77.85ZM198.48 60.21L198.46 60.18L198.49 60.22Q195.84 59.97 193.37 60.89L193.45 60.97L193.53 61.05Q190.96 62.37 191.39 65.84L191.44 65.89L191.36 65.81Q192.29 72.75 198.51 72.75L198.58 72.82L198.62 72.86Q201.47 73.16 203.31 71.04L203.31 71.04L203.27 71.00Q205.09 68.86 205.16 65.96L205.16 65.97L205.17 65.98Q205.45 62.86 204.11 61.73L204.00 61.62L204.06 61.69Q200.86 60.03 198.45 60.18ZM198.09 98.48L197.93 98.33L192.44 98.49L192.34 98.39Q189.61 98.49 187.14 96.87L186.99 96.72L187.08 96.81Q184.43 94.58 184.71 89.28L184.80 89.36L184.90 89.46Q185.68 76.67 192.39 74.83L192.46 74.90L192.43 74.87Q188.05 73.03 185.57 63.06L185.66 63.15L185.70 63.19Q184.92 60.43 185.06 58.95L185.19 59.08L185.23 59.12Q185.67 55.02 192.52 54.95L192.53 54.96L192.58 55.01Q200.51 54.95 203.20 55.31L203.15 55.26L203.18 55.29Q210.28 56.24 211.13 59.99L211.01 59.86L211.20 60.05Q211.42 61.19 211.42 61.90L211.39 61.87L211.27 61.75Q211.35 63.11 211.00 64.24L210.89 64.12L211.06 64.30Q209.76 71.98 204.32 74.81L204.41 74.90L204.48 74.97Q210.86 76.33 211.78 86.15L211.81 86.19L211.77 86.14Q211.88 86.54 211.95 88.95L211.90 88.89L211.89 88.88Q211.97 93.91 209.00 95.89L209.05 95.95L209.04 95.93Q206.42 97.48 197.93 98.33ZM202.26 102.72L202.32 102.79L208.53 102.91L208.56 102.95Q211.65 103.00 214.48 101.65L214.58 101.75L214.52 101.70Q216.53 100.24 216.67 96.78L216.72 96.83L216.75 96.86Q216.85 94.84 216.14 91.23L216.20 91.29L216.04 91.12Q214.51 82.67 210.62 79.20L210.49 79.07L210.27 78.50L209.91 78.00L209.50 77.37L209.58 77.46Q212.67 74.96 214.37 67.25L214.38 67.27L214.24 67.12Q214.21 66.39 214.36 64.84L214.50 64.98L214.34 64.82Q214.55 63.62 214.41 62.49L214.34 62.41L214.44 62.52Q214.13 59.80 211.94 58.89L212.00 58.94L211.94 58.82L211.65 58.67L211.62 58.63Q211.27 57.44 209.08 55.95L208.89 55.76L209.02 55.83L208.99 55.80Q205.42 54.62 197.85 54.27L197.88 54.30L197.89 54.31Q194.98 54.09 192.43 54.30L192.45 54.31L192.41 54.27Q190.84 54.26 188.43 54.54L188.40 54.51L188.53 54.63Q184.90 55.32 184.47 58.36L184.47 58.36L184.44 58.32Q184.45 59.32 184.52 60.81L184.43 60.71L184.39 60.68Q184.62 61.68 185.68 66.07L185.76 66.15L185.77 66.16Q187.28 72.19 190.53 74.66L190.45 74.58L190.62 74.75L190.52 74.66Q185.53 77.23 184.54 86.85L184.48 86.78L184.44 86.74Q184.00 90.76 184.00 92.46L184.18 92.64L184.03 92.48Q184.20 95.84 186.39 97.53L186.41 97.55L186.44 97.59Q186.55 97.62 187.05 97.98L187.21 98.14L187.10 98.03Q188.98 102.25 202.20 102.67ZM201.64 82.17L201.67 82.20L201.54 82.07Q203.42 82.11 205.05 82.96L205.05 82.96L204.91 82.82Q205.66 84.70 205.59 85.69L205.50 85.60L205.56 85.67Q205.59 86.19 205.59 86.76L205.73 86.90L205.62 86.79Q205.58 91.13 201.34 92.69L201.46 92.81L201.33 92.68Q199.97 93.37 198.49 93.16L198.44 93.11L198.40 93.07Q196.32 93.25 194.20 92.41L194.25 92.45L194.23 92.43Q193.79 91.28 193.93 89.45L193.98 89.50L193.87 89.39Q194.17 86.43 196.39 84.17L196.49 84.27L196.36 84.13Q198.62 81.91 201.59 82.12ZM202.13 64.63L201.98 64.48L202.14 64.64Q203.51 64.32 204.50 64.60L204.44 64.54L204.51 66.09L204.52 66.10Q204.52 68.72 202.82 70.59L202.80 70.56L202.75 70.52Q201.13 72.47 198.59 72.12L198.64 72.17L198.66 72.19Q196.76 72.13 195.98 71.70L195.93 71.65L195.90 71.62Q195.98 71.28 195.77 70.00L195.64 69.88L195.72 69.96Q195.15 67.26 197.41 65.71L197.47 65.77L197.53 65.83Q199.39 64.43 202.00 64.50Z"/><path d="M12 84 C191 114,162 37,327 137" stroke="#d745d7" fill="none"/><path d="M2 53 C160 116,152 46,340 69" stroke="#eb64a8" fill="none"/><path d="M18 75 C192 40,174 107,332 106" stroke="#4fe2e2" fill="none"/><path d="M15 22 C169 49,156 119,331 42" stroke="#6eaae7" fill="none"/><path d="M19 121 C179 81,186 32,323 131" stroke="#42d542" fill="none"/><path d="M9 121 C154 62,153 30,324 8" stroke="#9191ec" fill="none"/><path d="M9 131 C165 72,175 43,331 67" stroke="#bce63b" fill="none"/><path d="M16 25 C155 114,168 54,327 13" stroke="#df47df" fill="none"/><path fill="#4c4cea" d="M266.55 77.73L266.64 77.83L266.63 77.81Q263.15 77.80 260.89 80.28L260.87 80.25L260.85 80.24Q258.65 82.77 258.37 86.31L258.39 86.33L258.24 86.19Q257.89 90.14 260.15 92.01L260.32 92.19L260.14 92.00Q262.53 94.01 266.49 93.87L266.54 93.91L266.45 93.83Q270.77 93.55 272.53 91.78L272.63 91.87L272.56 91.81Q274.51 89.16 274.30 85.77L274.25 85.72L274.24 85.71Q274.01 82.23 272.00 80.00L272.03 80.03L271.95 79.96Q269.98 77.77 266.58 77.77ZM266.48 60.20L266.44 60.16L266.53 60.25Q263.92 60.05 261.44 60.96L261.34 60.86L261.41 60.93Q258.95 62.36 259.38 65.82L259.45 65.90L259.42 65.87Q260.32 72.78 266.54 72.78L266.61 72.85L266.68 72.92Q269.49 73.18 271.33 71.06L271.35 71.08L271.25 70.98Q273.12 68.89 273.19 65.99L273.22 66.02L273.33 66.13Q273.44 62.85 272.10 61.72L272.08 61.70L272.12 61.74Q269.00 60.17 266.59 60.32ZM265.95 98.34L265.94 98.34L260.34 98.40L260.40 98.46Q257.57 98.44 255.09 96.82L255.03 96.76L255.06 96.79Q252.57 94.73 252.86 89.42L252.76 89.32L252.82 89.39Q253.59 76.58 260.30 74.74L260.33 74.77L260.37 74.81Q256.09 73.08 253.62 63.11L253.74 63.23L253.57 63.06Q253.11 60.61 253.25 59.13L253.14 59.02L253.24 59.13Q253.76 55.12 260.62 55.05L260.59 55.02L260.50 54.93Q268.34 54.78 271.03 55.14L271.19 55.30L271.03 55.14Q278.17 56.13 279.02 59.88L279.13 59.98L279.13 59.99Q279.28 61.05 279.28 61.76L279.22 61.70L279.23 61.72Q279.38 63.14 279.03 64.27L278.96 64.20L279.04 64.27Q277.93 72.15 272.48 74.97L272.46 74.94L272.29 74.78Q278.96 76.43 279.88 86.26L279.76 86.14L279.81 86.19Q279.89 86.55 279.96 88.95L279.84 88.83L279.86 88.86Q280.02 93.96 277.05 95.94L276.99 95.89L277.02 95.91Q274.57 97.63 266.09 98.48ZM270.21 102.68L270.33 102.79L276.49 102.88L276.57 102.95Q279.72 103.06 282.55 101.72L282.56 101.73L282.52 101.70Q284.68 100.39 284.82 96.92L284.67 96.77L284.67 96.78Q284.73 94.72 284.03 91.11L284.21 91.29L284.22 91.30Q282.36 82.51 278.47 79.05L278.47 79.05L278.23 78.46L277.81 77.89L277.58 77.45L277.63 77.51Q280.52 74.81 282.22 67.10L282.38 67.27L282.32 67.20Q282.29 66.47 282.43 64.92L282.37 64.85L282.41 64.89Q282.64 63.71 282.50 62.58L282.38 62.46L282.43 62.51Q282.24 59.92 280.05 59.00L280.05 59.00L280.04 58.92L279.77 58.78L279.60 58.62Q279.17 57.34 276.98 55.85L277.06 55.93L277.01 55.81L277.01 55.82Q273.44 54.64 265.87 54.29L265.73 54.15L265.87 54.29Q262.83 53.94 260.29 54.15L260.29 54.15L260.44 54.30Q258.98 54.40 256.57 54.68L256.55 54.65L256.53 54.64Q252.84 55.25 252.41 58.29L252.54 58.42L252.54 58.42Q252.31 59.18 252.38 60.67L252.46 60.75L252.50 60.79Q252.65 61.72 253.71 66.10L253.63 66.02L253.71 66.09Q255.27 72.18 258.52 74.65L258.51 74.64L258.62 74.75L258.52 74.66Q253.50 77.20 252.51 86.82L252.52 86.83L252.40 86.70Q252.12 90.88 252.12 92.57L252.14 92.59L252.09 92.55Q252.27 95.91 254.46 97.60L254.49 97.63L254.40 97.54Q254.66 97.73 255.15 98.08L255.14 98.07L255.19 98.12Q257.14 102.41 270.36 102.83ZM269.54 82.07L269.57 82.10L269.56 82.09Q271.24 81.93 272.87 82.78L272.93 82.84L273.02 82.93Q273.70 84.74 273.63 85.73L273.56 85.66L273.57 85.67Q273.57 86.17 273.57 86.74L273.61 86.78L273.73 86.89Q273.63 91.18 269.39 92.73L269.47 92.81L269.45 92.79Q268.03 93.43 266.55 93.22L266.53 93.19L266.43 93.10Q264.48 93.41 262.36 92.57L262.37 92.57L262.23 92.44Q261.83 91.33 261.97 89.49L261.91 89.42L261.98 89.49Q262.15 86.41 264.37 84.15L264.45 84.22L264.42 84.19Q266.61 81.90 269.58 82.11ZM270.15 64.65L270.02 64.52L270.02 64.52Q271.62 64.42 272.61 64.71L272.45 64.54L272.52 66.10L272.44 66.02Q272.57 68.77 270.87 70.64L270.93 70.70L270.87 70.64Q269.08 72.42 266.53 72.06L266.66 72.19L266.63 72.16Q264.70 72.06 263.92 71.64L263.95 71.67L263.90 71.62Q263.88 71.18 263.67 69.90L263.77 70.00L263.65 69.88Q263.24 67.36 265.51 65.80L265.56 65.85L265.42 65.72Q267.53 64.58 270.15 64.65Z"/><path d="M19 114 C187 69,165 6,339 41" stroke="#e57651" fill="none"/><path d="M14 6 C152 122,185 16,329 114" stroke="#e99090" fill="none"/><path d="M18 93 C179 69,166 22,336 76" stroke="#efef70" fill="none"/><path d="M3 136 C181 102,154 27,329 6" stroke="#57dfbd" fill="none"/><path d="M19 35 C188 130,174 30,338 89" stroke="#55bee1" fill="none"/><path d="M18 60 C161 53,175 90,336 51" stroke="#3f8ede" fill="none"/><path d="M5 21 C183 89,154 66,329 117" stroke="#e641e6" fill="none"/><path d="M5 129 C170 48,157 32,334 34" stroke="#6ede48" fill="none"/><path d="M17 80 C157 50,159 3,334 43" stroke="#d65151" fill="none"/><path d="M14 106 C181 81,186 27,338 57" stroke="#4848d9" fill="none"/><path d="M8 20 C176 84,155 130,335 105" stroke="#4a93dd" fill="none"/><path d="M16 81 C176 111,167 43,340 139" stroke="#9292e6" fill="none"/><path d="M14 95 C155 61,158 93,325 120" stroke="#56eb7b" fill="none"/></svg>