<svg xmlns="http://www.w3.org/2000/svg" width="342" height="140" viewBox="0,0,342,140"><path d="M20 21 C170 100,191 40,330 79" stroke="#6b42e5" fill="none"/><path d="M17 115 C155 98,164 30,333 125" stroke="#e4a362" fill="none"/><path d="M8 52 C150 92,152 1,323 40" stroke="#8c6fe6" fill="none"/><path d="M21 85 C151 110,183 52,327 57" stroke="#c6e46b" fill="none"/><path d="M15 50 C176 6,168 127,332 107" stroke="#78ec78" fill="none"/><path fill="#c059e2" d="M164.86 77.16L164.96 77.26L165.03 77.33Q161.71 77.24 159.60 79.55L159.57 79.51L159.57 79.52Q157.52 81.88 157.26 85.18L157.17 85.09L157.28 85.20Q156.93 88.87 159.04 90.62L159.00 90.59L158.98 90.57Q161.06 92.28 164.75 92.15L164.76 92.16L164.73 92.13Q168.84 91.96 170.49 90.31L170.56 90.38L170.54 90.35Q172.26 87.79 172.06 84.62L172.09 84.65L171.99 84.55Q171.80 81.33 169.92 79.25L170.01 79.34L170.03 79.36Q168.12 77.25 164.95 77.25ZM164.93 60.94L164.90 60.91L164.79 60.81Q162.40 60.65 160.09 61.51L160.13 61.55L160.13 61.55Q157.84 62.88 158.24 66.12L158.21 66.09L158.27 66.15Q159.24 72.72 165.04 72.72L164.99 72.68L165.00 72.68Q167.64 72.95 169.35 70.97L169.34 70.95L169.40 71.01Q171.01 68.93 171.08 66.23L171.21 66.37L171.22 66.37Q171.27 63.25 170.01 62.20L170.03 62.22L169.99 62.17Q167.15 60.79 164.91 60.92ZM164.45 96.54L164.42 96.50L159.24 96.59L159.08 96.44Q156.48 96.48 154.18 94.96L154.17 94.95L154.23 95.01Q151.81 92.99 152.08 88.05L152.15 88.12L152.14 88.11Q152.91 76.22 159.18 74.51L159.23 74.56L159.12 74.45Q155.16 72.87 152.85 63.57L152.87 63.58L152.94 63.65Q152.38 61.24 152.51 59.86L152.52 59.87L152.41 59.76Q152.88 56.01 159.27 55.94L159.38 56.05L159.39 56.06Q166.64 55.86 169.15 56.19L169.18 56.22L169.25 56.29Q175.80 57.10 176.59 60.60L176.63 60.64L176.60 60.61Q176.74 61.61 176.74 62.27L176.86 62.39L176.88 62.41Q176.79 63.50 176.46 64.56L176.41 64.51L176.50 64.60Q175.34 71.81 170.27 74.45L170.43 74.62L170.37 74.55Q176.34 75.84 177.19 85.01L177.24 85.05L177.30 85.11Q177.25 85.32 177.31 87.57L177.26 87.51L177.42 87.67Q177.52 92.39 174.75 94.24L174.72 94.21L174.75 94.23Q172.28 95.66 164.37 96.45ZM168.38 100.53L168.31 100.46L174.27 100.75L174.22 100.70Q177.24 100.88 179.87 99.62L179.88 99.63L179.80 99.55Q181.79 98.31 181.92 95.08L181.90 95.06L181.87 95.02Q182.07 93.24 181.41 89.88L181.23 89.71L181.22 89.69Q179.65 81.66 176.03 78.43L176.15 78.55L175.68 77.76L175.48 77.42L175.08 76.83L175.20 76.94Q178.11 74.65 179.69 67.46L179.64 67.41L179.64 67.41Q179.63 66.74 179.76 65.29L179.69 65.21L179.63 65.16Q179.81 64.02 179.68 62.96L179.74 63.03L179.70 62.99Q179.55 60.59 177.50 59.73L177.46 59.69L177.53 59.69L177.12 59.41L177.07 59.36Q176.76 58.27 174.72 56.88L174.57 56.74L174.67 56.77L174.63 56.72Q171.25 55.59 164.20 55.26L164.24 55.30L164.31 55.37Q161.60 55.17 159.23 55.37L159.20 55.35L159.08 55.22Q157.84 55.43 155.60 55.70L155.45 55.55L155.50 55.60Q152.13 56.25 151.73 59.08L151.76 59.11L151.74 59.10Q151.70 59.98 151.77 61.36L151.76 61.36L151.78 61.37Q151.91 62.23 152.89 66.31L152.96 66.38L153.00 66.42Q154.37 72.01 157.40 74.32L157.45 74.36L157.56 74.47L157.55 74.46Q152.71 76.68 151.79 85.65L151.85 85.71L151.82 85.68Q151.52 89.54 151.52 91.12L151.41 91.01L151.39 90.99Q151.65 94.21 153.69 95.80L153.55 95.65L153.66 95.76Q153.78 95.82 154.25 96.15L154.30 96.20L154.24 96.15Q156.14 100.22 168.47 100.62ZM167.74 81.30L167.69 81.24L167.71 81.26Q169.44 81.28 170.96 82.07L170.86 81.98L170.94 82.05Q171.46 83.63 171.40 84.55L171.49 84.64L171.41 84.57Q171.46 85.08 171.46 85.60L171.53 85.68L171.59 85.74Q171.54 89.77 167.58 91.22L167.54 91.18L167.62 91.26Q166.22 91.77 164.84 91.57L164.89 91.63L164.82 91.56Q162.82 91.67 160.84 90.88L161.03 91.07L160.98 91.02Q160.41 89.78 160.54 88.07L160.52 88.05L160.60 88.13Q160.78 85.27 162.85 83.16L163.00 83.31L162.93 83.24Q165.11 81.23 167.88 81.43ZM168.16 64.89L168.27 65.00L168.12 64.86Q169.61 64.76 170.53 65.03L170.49 64.98L170.40 66.28L170.45 66.33Q170.45 68.76 168.86 70.51L168.99 70.64L169.00 70.65Q167.41 72.38 165.03 72.05L165.05 72.07L164.98 72.01Q163.27 72.01 162.55 71.61L162.42 71.49L162.44 71.51Q162.52 71.19 162.32 70.01L162.27 69.95L162.29 69.98Q161.82 67.52 163.93 66.07L163.88 66.02L163.82 65.97Q165.72 64.83 168.16 64.90Z"/><path d="M10 89 C191 62,163 87,331 93" stroke="#6f8ce0" fill="none"/><path d="M14 104 C187 50,179 119,334 116" stroke="#9cee80" fill="none"/><path d="M4 120 C189 121,171 18,321 5" stroke="#4cd64c" fill="none"/><path d="M2 10 C179 55,172 124,322 29" stroke="#a873dd" fill="none"/><path d="M10 58 C156 50,169 98,326 19" stroke="#83cae1" fill="none"/><path d="M19 53 C161 69,153 25,323 80" stroke="#e44d99" fill="none"/><path d="M3 53 C151 44,154 69,330 119" stroke="#78e7af" fill="none"/><path d="M6 136 C190 77,186 55,335 120" stroke="#5ab8d7" fill="none"/><path fill="#c96ee7" d="M103.67 96.61L103.70 96.64L103.70 96.64Q96.74 97.12 95.02 93.10L94.91 92.99L94.90 92.98Q96.18 91.29 98.89 88.20L99.02 88.33L98.90 88.21Q99.89 91.84 105.10 92.04L104.95 91.88L104.94 91.88Q110.97 92.17 113.80 89.86L113.77 89.82L113.70 89.75Q116.21 87.05 116.08 82.37L115.96 82.25L116.09 82.38Q115.77 73.56 107.47 73.96L107.43 73.92L107.44 73.93Q102.55 74.18 99.51 76.36L99.58 76.42L98.87 75.97L98.61 75.85L98.63 75.87Q99.30 70.47 99.10 65.72L99.05 65.68L99.11 65.74Q98.74 61.01 98.15 55.27L98.14 55.27L98.15 55.28Q104.58 57.02 111.17 56.83L111.13 56.79L111.25 56.90Q117.75 56.68 123.95 54.50L123.97 54.52L122.98 57.16L122.90 57.08Q122.39 58.42 122.06 59.87L122.13 59.94L122.13 59.94Q116.73 61.73 110.00 61.73L109.94 61.66L109.90 61.62Q107.49 61.72 104.92 61.46L104.96 61.49L104.80 61.34Q104.76 62.61 104.16 70.33L104.24 70.40L104.20 70.36Q105.55 69.47 109.11 69.20L109.14 69.23L109.19 69.28Q115.59 69.62 118.10 72.52L118.25 72.67L118.06 72.49Q120.51 75.20 120.98 81.86L120.93 81.81L120.95 81.84Q121.37 89.05 119.26 92.54L119.40 92.68L119.34 92.63Q115.82 95.89 110.08 96.29L110.15 96.36L110.02 96.23Q108.33 96.39 103.72 96.65ZM114.18 100.59L114.16 100.56L114.23 100.63Q120.18 100.79 123.48 98.87L123.51 98.91L123.35 98.74Q125.08 96.12 125.08 92.50L125.09 92.50L125.12 92.53Q125.13 87.20 123.48 80.08L123.45 80.05L123.43 80.03Q122.79 77.02 120.68 74.58L120.70 74.60L120.74 74.71L120.32 74.15L119.70 73.79L119.81 73.91Q119.17 72.54 118.05 71.36L118.21 71.52L118.10 71.47L118.16 71.53Q115.46 68.57 109.07 68.57L109.02 68.52L108.67 68.64L108.58 68.54Q108.80 67.64 109.13 65.73L109.13 65.73L109.20 65.81Q117.82 65.98 124.81 63.15L124.69 63.02L124.83 63.16Q125.52 60.69 127.17 55.81L127.10 55.74L123.48 57.39L123.58 57.50Q124.16 55.44 125.02 53.46L124.98 53.43L124.92 53.36Q118.40 56.01 111.27 56.14L111.28 56.15L111.23 56.09Q104.00 56.18 97.14 54.27L97.29 54.42L97.18 54.31Q98.48 62.07 98.48 69.72L98.40 69.64L98.41 69.65Q98.34 72.87 98.14 76.17L98.20 76.23L98.29 76.32Q98.77 76.67 99.76 77.20L99.70 77.14L99.75 77.19Q100.28 76.73 101.40 76.13L101.39 76.13L101.33 76.07Q101.38 77.50 100.98 80.13L100.97 80.12L100.91 80.07Q101.76 80.51 102.48 80.91L102.30 80.73L102.37 80.80Q107.14 77.72 110.38 77.72L110.53 77.88L110.49 77.83Q112.68 77.72 114.73 78.84L114.84 78.96L114.81 78.93Q115.46 80.76 115.52 82.41L115.39 82.28L115.51 82.40Q115.61 86.85 113.83 88.77L113.82 88.75L113.84 88.77Q111.45 90.86 107.56 91.26L107.62 91.33L107.58 91.28Q105.95 91.43 104.76 91.30L104.65 91.19L104.71 91.25Q103.17 90.96 101.85 90.37L101.87 90.38L101.76 89.95L101.62 90.21L101.71 90.30Q100.33 89.44 99.41 87.14L99.43 87.16L99.28 87.00Q96.97 89.44 94.07 93.13L94.24 93.30L94.09 93.15Q94.70 94.36 96.15 96.01L96.13 95.98L96.14 96.00Q98.05 99.22 102.93 100.08L102.87 100.02L102.79 99.94Q104.95 100.46 114.25 100.66Z"/><path d="M5 122 C155 19,167 138,341 26" stroke="#82ec5f" fill="none"/><path d="M5 102 C158 121,166 62,333 100" stroke="#e48f8f" fill="none"/><path d="M20 45 C168 131,156 62,327 45" stroke="#e542e5" fill="none"/><path fill="#567beb" d="M228.28 73.79L228.29 73.80L228.20 73.71Q229.63 73.76 232.07 73.49L232.01 73.43L232.08 73.50Q232.07 74.68 232.07 75.80L231.95 75.68L232.08 77.99L231.98 77.89Q230.63 77.99 229.18 78.12L229.14 78.08L229.01 77.95Q227.72 78.17 226.27 78.11L226.24 78.08L226.29 78.13Q221.34 88.81 215.40 96.79L215.25 96.64L215.38 96.76Q210.91 97.76 208.66 98.82L208.70 98.85L208.66 98.81Q215.83 88.97 221.10 78.09L221.19 78.17L216.60 78.13L216.56 78.09Q216.52 75.74 216.32 73.43L216.35 73.46L216.38 73.49Q219.77 73.85 223.33 73.85L223.23 73.76L226.50 67.33L226.63 67.45Q228.28 64.10 230.39 61.33L230.29 61.22L230.46 61.39Q227.56 61.47 224.79 61.47L224.96 61.63L224.98 61.66Q214.41 61.63 207.88 57.81L207.84 57.76L206.77 54.85L206.60 54.68Q206.01 53.24 205.35 51.72L205.44 51.81L205.42 51.79Q212.91 56.31 222.80 56.71L222.81 56.71L222.94 56.84Q231.74 57.13 240.64 53.70L240.58 53.64L240.66 53.73Q240.35 54.47 239.49 55.99L239.47 55.97L239.48 55.97Q233.28 64.28 228.33 73.84ZM242.26 58.36L242.22 58.32L244.01 54.90L244.04 54.93Q242.24 55.63 239.34 56.89L239.33 56.88L239.64 56.33L239.78 56.48Q240.01 56.24 240.21 56.04L240.20 56.03L240.15 55.98Q240.78 54.76 242.03 52.46L242.09 52.52L241.97 52.40Q232.89 56.51 222.93 56.11L222.78 55.96L222.79 55.97Q212.40 55.53 204.16 50.39L204.17 50.41L204.24 50.47Q205.91 53.59 207.36 58.21L207.46 58.31L207.33 58.18Q209.28 59.34 210.66 59.87L210.63 59.83L210.62 59.82Q211.03 60.56 211.82 63.79L211.68 63.65L211.85 63.82Q217.17 65.84 226.73 65.58L226.87 65.72L226.71 65.56Q226.28 66.64 222.85 73.17L222.81 73.14L222.88 73.20Q219.21 73.10 215.78 72.77L215.81 72.79L215.84 72.82Q216.00 74.30 216.00 75.82L215.97 75.78L215.91 78.69L218.82 78.71L218.89 81.22L218.96 81.29Q212.03 93.94 207.22 100.14L207.32 100.24L207.29 100.21Q210.10 98.93 212.93 98.07L212.83 97.97L212.90 98.04Q211.61 99.52 209.24 102.49L209.34 102.59L209.30 102.55Q214.86 100.73 219.08 100.33L218.94 100.19L218.97 100.21Q224.00 93.65 229.41 81.91L229.44 81.94L235.54 82.43L235.50 82.40Q235.24 80.68 235.24 79.10L235.40 79.26L235.37 76.13L235.32 76.08Q234.75 75.97 233.79 76.04L233.89 76.14L233.83 76.07Q232.98 76.25 232.52 76.25L232.51 76.24L232.41 76.14Q232.42 75.95 232.48 75.68L232.53 75.73L232.48 75.22L232.63 75.37Q236.98 66.46 242.32 58.42Z"/><path d="M6 121 C152 133,169 65,336 49" stroke="#db5173" fill="none"/><path d="M18 9 C167 108,188 111,324 18" stroke="#90a7ee" fill="none"/><path d="M11 6 C182 10,180 116,328 130" stroke="#53d9b7" fill="none"/><path d="M7 87 C158 111,180 98,327 64" stroke="#6dd948" fill="none"/><path fill="#65c5e6" d="M278.35 77.31L278.31 77.28L278.31 77.27Q274.99 77.19 272.88 79.49L272.95 79.57L273.04 79.65Q270.79 81.82 270.52 85.12L270.60 85.19L270.61 85.20Q270.32 88.94 272.43 90.69L272.45 90.70L272.43 90.69Q274.41 92.30 278.10 92.17L278.07 92.14L278.15 92.21Q282.21 91.99 283.86 90.35L283.74 90.23L283.83 90.31Q285.53 87.73 285.34 84.56L285.35 84.58L285.37 84.60Q285.24 81.44 283.36 79.36L283.34 79.34L283.39 79.38Q281.40 77.20 278.24 77.20ZM278.18 60.85L278.12 60.80L278.27 60.95Q275.70 60.62 273.39 61.48L273.38 61.46L273.42 61.51Q271.32 63.03 271.71 66.26L271.61 66.15L271.69 66.23Q272.55 72.71 278.36 72.71L278.27 72.62L278.33 72.68Q281.05 73.03 282.77 71.05L282.69 70.97L282.76 71.04Q284.43 69.02 284.50 66.32L284.53 66.35L284.49 66.31Q284.69 63.34 283.43 62.29L283.32 62.18L283.37 62.22Q280.46 60.76 278.21 60.89ZM277.69 96.44L277.73 96.47L272.47 96.50L272.47 96.49Q269.88 96.54 267.58 95.03L267.54 94.99L267.47 94.92Q265.21 93.05 265.47 88.11L265.52 88.16L265.50 88.14Q266.26 76.24 272.53 74.52L272.57 74.57L272.52 74.52Q268.54 72.92 266.24 63.62L266.16 63.55L266.15 63.54Q265.57 61.10 265.70 59.72L265.72 59.74L265.81 59.83Q266.32 56.12 272.72 56.05L272.71 56.04L272.73 56.06Q280.08 55.96 282.58 56.29L282.55 56.26L282.58 56.29Q289.07 57.04 289.86 60.54L290.02 60.70L290.02 60.70Q290.16 61.69 290.16 62.35L290.23 62.42L290.11 62.30Q290.14 63.52 289.81 64.58L289.91 64.67L289.90 64.66Q288.86 72.00 283.79 74.64L283.70 74.55L283.71 74.56Q289.82 76.00 290.68 85.16L290.67 85.15L290.60 85.08Q290.54 85.29 290.61 87.53L290.79 87.71L290.61 87.53Q290.87 92.41 288.10 94.25L288.13 94.29L288.12 94.27Q285.61 95.65 277.70 96.44ZM281.68 100.49L281.69 100.50L287.42 100.56L287.55 100.69Q290.42 100.72 293.05 99.47L293.15 99.56L293.12 99.54Q295.16 98.35 295.30 95.12L295.14 94.97L295.16 94.99Q295.22 93.06 294.56 89.70L294.70 89.84L294.60 89.74Q293.04 81.72 289.42 78.49L289.34 78.41L289.05 77.79L288.77 77.38L288.45 76.86L288.60 77.01Q291.28 74.49 292.87 67.30L292.89 67.32L292.88 67.31Q292.92 66.70 293.06 65.25L293.05 65.25L292.98 65.17Q293.14 64.01 293.01 62.96L292.96 62.91L293.10 63.05Q292.85 60.56 290.81 59.71L290.75 59.64L290.73 59.56L290.39 59.36L290.57 59.53Q290.07 58.24 288.02 56.85L287.96 56.78L287.96 56.73L287.97 56.73Q284.63 55.64 277.58 55.31L277.63 55.37L277.58 55.31Q274.94 55.18 272.57 55.38L272.44 55.25L272.54 55.35Q271.10 55.36 268.86 55.62L268.77 55.53L268.89 55.65Q265.57 56.35 265.17 59.19L265.10 59.12L265.19 59.21Q264.95 59.90 265.02 61.28L265.03 61.29L265.06 61.32Q265.35 62.34 266.34 66.43L266.30 66.39L266.38 66.47Q267.68 71.99 270.71 74.29L270.61 74.19L270.90 74.48L270.78 74.36Q266.03 76.67 265.11 85.63L265.01 85.54L265.19 85.72Q264.72 89.40 264.72 90.98L264.80 91.06L264.74 91.00Q264.98 94.22 267.03 95.80L267.03 95.80L266.90 95.67Q267.10 95.81 267.56 96.14L267.70 96.27L267.68 96.26Q269.33 100.08 281.66 100.47ZM281.08 81.30L281.02 81.24L281.20 81.42Q282.67 81.18 284.19 81.97L284.17 81.94L284.13 81.91Q284.84 83.67 284.77 84.59L284.84 84.67L284.87 84.69Q284.87 85.15 284.87 85.68L284.82 85.63L284.88 85.69Q284.90 89.80 280.95 91.25L280.95 91.26L280.91 91.21Q279.59 91.81 278.20 91.61L278.07 91.47L278.19 91.60Q276.27 91.78 274.29 90.99L274.32 91.03L274.24 90.95Q273.74 89.78 273.87 88.07L274.00 88.19L273.94 88.14Q274.14 85.30 276.21 83.19L276.28 83.25L276.30 83.27Q278.38 81.17 281.15 81.36ZM281.50 64.90L281.46 64.86L281.49 64.89Q282.90 64.72 283.82 64.98L283.79 64.96L283.77 66.32L283.80 66.34Q283.84 68.83 282.26 70.57L282.17 70.48L282.25 70.57Q280.66 72.31 278.29 71.98L278.29 71.98L278.24 71.93Q276.56 71.96 275.83 71.56L275.90 71.63L275.87 71.60Q275.74 71.08 275.54 69.89L275.54 69.89L275.51 69.86Q275.17 67.54 277.28 66.09L277.19 66.00L277.16 65.97Q279.13 64.91 281.57 64.97Z"/><path d="M15 105 C159 28,189 21,331 87" stroke="#8ad5ee" fill="none"/><path d="M4 38 C190 69,159 98,330 6" stroke="#6de3e3" fill="none"/><path d="M2 41 C167 68,161 75,334 114" stroke="#4141e1" fill="none"/><path d="M16 112 C168 55,153 31,323 59" stroke="#6338e5" fill="none"/><path fill="#6deded" d="M51.82 60.80L51.71 60.69L49.10 60.99L49.11 61.00Q45.22 61.19 44.83 64.69L44.79 64.65L44.63 64.49Q44.50 65.75 44.57 67.46L44.66 67.56L44.59 67.49Q44.64 70.83 46.81 73.14L46.94 73.27L46.98 73.30Q49.02 75.48 52.32 75.22L52.47 75.37L52.39 75.28Q55.88 74.95 57.20 73.37L57.20 73.37L57.27 73.43Q59.14 71.88 59.60 67.99L59.64 68.03L59.65 68.04Q60.05 64.09 57.88 62.64L57.76 62.52L57.90 62.66Q56.40 61.30 51.79 60.77ZM62.12 76.64L62.12 76.64L60.04 80.76L59.99 80.71Q55.32 89.03 48.79 96.08L48.75 96.05L48.65 95.95Q45.97 96.36 41.29 97.75L41.29 97.75L41.15 97.61Q50.38 86.72 55.85 78.41L55.88 78.44L55.98 78.54Q54.20 79.67 51.37 79.80L51.39 79.83L51.23 79.66Q46.16 80.06 43.52 76.63L43.52 76.64L43.50 76.62Q41.46 73.91 39.55 66.00L39.42 65.87L39.49 65.94Q39.39 65.06 39.13 63.44L39.20 63.51L39.20 63.52Q38.96 61.92 38.96 61.13L38.88 61.05L38.84 61.01Q38.84 57.92 40.69 56.86L40.82 56.99L40.76 56.93Q42.90 55.64 46.13 55.64L46.04 55.55L46.10 55.61Q51.74 55.71 51.74 55.71L51.61 55.58L51.72 55.69Q55.36 55.64 57.54 55.97L57.53 55.96L57.64 56.07Q61.26 56.46 62.84 57.32L62.77 57.25L62.89 57.36Q65.28 58.70 65.61 61.73L65.66 61.78L65.61 61.74Q65.52 62.04 65.19 66.65L65.27 66.74L65.25 66.71Q64.63 70.45 64.24 71.90L64.26 71.92L64.16 71.82Q63.52 74.28 62.20 76.72ZM65.42 80.80L65.52 80.89L65.42 80.79Q67.12 76.96 68.04 69.51L68.20 69.67L68.11 69.57Q68.60 65.78 68.53 64.26L68.47 64.20L68.48 64.20Q68.54 61.10 66.50 59.52L66.39 59.41L65.94 59.30L65.92 59.27Q65.39 57.89 63.81 56.77L63.86 56.82L63.78 56.74Q59.93 55.13 51.63 54.87L51.68 54.93L51.58 54.83Q50.00 54.89 45.78 54.89L45.70 54.81L45.70 54.81Q42.75 54.90 40.18 56.09L40.04 55.94L40.08 55.98Q38.11 57.38 38.24 60.54L38.17 60.47L38.23 60.53Q38.56 62.12 38.89 65.61L39.03 65.75L38.88 65.60Q39.98 70.20 40.45 71.65L40.41 71.61L40.41 71.62Q41.39 74.83 43.03 77.07L43.01 77.05L42.99 77.03Q43.48 77.65 44.14 78.31L44.25 78.42L44.24 78.41Q44.68 79.18 45.80 80.76L45.72 80.69L45.70 80.66Q48.39 83.16 51.76 83.49L51.73 83.46L51.64 83.37Q48.33 87.97 45.62 91.27L45.72 91.36L39.53 99.02L39.51 99.01Q43.32 97.60 46.15 97.00L46.26 97.11L46.14 96.99Q44.92 98.61 42.21 101.57L42.10 101.46L42.10 101.46Q47.53 99.97 52.94 99.90L52.97 99.93L52.90 99.86Q56.97 95.43 64.49 82.90L64.38 82.79L64.35 82.90L64.46 83.00Q64.84 81.67 65.44 80.82ZM54.99 64.76L55.17 64.94L55.02 64.79Q56.21 64.73 57.00 64.93L56.90 64.82L56.85 64.78Q57.99 65.00 58.65 65.19L58.73 65.27L58.66 65.20Q59.00 66.01 59.14 66.73L58.96 66.56L59.08 66.68Q59.17 67.36 58.97 68.02L58.88 67.93L58.98 68.03Q58.88 70.96 56.83 72.87L56.91 72.95L56.92 72.95Q55.16 74.63 52.33 74.56L52.38 74.61L52.31 74.55Q51.65 74.61 49.02 74.09L48.98 74.05L49.01 74.08Q48.57 72.52 48.57 71.26L48.60 71.30L48.57 71.27Q48.56 70.93 48.56 70.53L48.45 70.42L48.44 70.41Q48.55 66.70 52.51 65.31L52.49 65.30L52.44 65.25Q53.58 64.81 55.03 64.81Z"/><path d="M12 13 C160 84,164 76,326 92" stroke="#e6c35a" fill="none"/><path d="M19 61 C178 112,152 24,324 84" stroke="#9cee80" fill="none"/><path d="M12 121 C164 11,167 109,337 48" stroke="#5476dd" fill="none"/><path d="M13 10 C167 137,189 36,327 96" stroke="#e06080" fill="none"/><path d="M15 75 C187 91,171 101,334 6" stroke="#7de759" fill="none"/><path d="M8 98 C182 36,170 81,336 33" stroke="#50e174" fill="none"/><path d="M11 39 C185 107,155 132,336 108" stroke="#e38b8b" fill="none"/><path d="M19 103 C158 124,166 38,323 125" stroke="#7ce8e8" fill="none"/><path d="M13 18 C174 19,187 134,321 25" stroke="#ed90d6" fill="none"/><path d="M17 39 C165 33,191 131,334 13" stroke="#e9436d" fill="none"/><path d="M5 50 C160 3,169 26,331 81" stroke="#e43e91" fill="none"/><path d="M6 59 C175 61,162 23,321 50" stroke="#597be2" fill="none"/><path d="M7 9 C166 121,177 44,336 48" stroke="#ed9172" fill="none"/><path d="M15 124 C191 103,178 100,337 89" stroke="#e877e8" fill="none"/><path d="M6 14 C175 72,165 31,338 120" stroke="#e19a83" fill="none"/><path d="M3 23 C179 77,181 2,339 69" stroke="#9090e9" fill="none"/></svg>