<svg xmlns="http://www.w3.org/2000/svg" width="342" height="140" viewBox="0,0,342,140"><path d="M12 39 C162 20,163 59,336 57" stroke="#8e49d4" fill="none"/><path d="M6 74 C155 53,187 55,332 67" stroke="#e1a86f" fill="none"/><path d="M3 32 C164 33,158 84,327 70" stroke="#ca64eb" fill="none"/><path d="M2 18 C177 107,163 63,330 83" stroke="#e19e5a" fill="none"/><path d="M13 32 C157 75,178 130,321 15" stroke="#e650e6" fill="none"/><path d="M13 16 C155 77,191 103,334 85" stroke="#dcdc55" fill="none"/><path d="M17 97 C176 114,181 108,337 132" stroke="#4ee89b" fill="none"/><path d="M7 83 C179 136,162 87,334 108" stroke="#a8e868" fill="none"/><path d="M20 130 C172 22,155 94,338 135" stroke="#b57fea" fill="none"/><path d="M19 93 C179 117,169 138,326 35" stroke="#49e3e3" fill="none"/><path d="M13 42 C170 68,154 103,339 77" stroke="#4e98e3" fill="none"/><path d="M2 62 C170 69,157 78,335 85" stroke="#cc7ee6" fill="none"/><path d="M11 87 C170 58,166 54,330 124" stroke="#e1b83b" fill="none"/><path d="M20 42 C170 70,182 21,333 95" stroke="#eded5e" fill="none"/><path d="M14 41 C155 83,189 8,338 4" stroke="#83c9e1" fill="none"/><path d="M9 55 C179 36,167 5,337 130" stroke="#93d750" fill="none"/><path d="M11 8 C155 9,179 122,338 84" stroke="#44d8d8" fill="none"/><path d="M12 42 C166 18,152 83,326 108" stroke="#61e9e9" fill="none"/><path fill="#947bdf" d="M277.58 77.81L277.64 77.87L277.68 77.91Q274.04 77.54 271.67 80.27L271.82 80.42L271.67 80.27Q269.38 83.07 269.01 86.70L269.04 86.73L268.99 86.68Q268.56 90.61 270.63 92.47L270.59 92.42L270.77 92.61Q272.73 94.35 276.73 94.13L276.77 94.17L276.74 94.14Q280.66 93.77 282.77 92.46L282.78 92.47L282.96 92.64Q285.07 90.46 285.07 87.48L285.04 87.46L285.06 87.47Q285.06 86.75 284.91 86.02L284.98 86.09L284.98 86.08Q285.13 82.89 283.02 80.31L282.93 80.21L282.98 80.27Q280.76 77.57 277.55 77.79ZM276.92 99.19L276.80 99.07L276.91 99.19Q268.50 99.13 265.81 97.68L265.72 97.60L265.72 97.60Q263.82 96.20 263.46 92.93L263.43 92.91L263.48 92.95Q263.44 91.67 263.51 90.29L263.47 90.26L263.54 90.32Q263.57 88.25 263.57 87.37L263.65 87.45L263.60 87.40Q264.51 81.98 264.80 80.67L264.85 80.72L264.73 80.61Q265.61 76.90 267.21 74.21L267.34 74.34L267.20 74.20Q272.49 66.03 283.83 53.88L283.71 53.76L283.66 53.70Q288.83 53.20 293.05 51.67L293.11 51.74L293.01 51.64Q279.96 65.94 273.85 74.01L273.89 74.05L273.77 73.93Q275.64 72.96 278.11 72.96L278.25 73.10L278.18 73.03Q284.53 73.05 287.44 76.76L287.51 76.83L287.54 76.86Q290.00 79.90 290.65 86.67L290.60 86.61L290.60 86.61Q290.75 88.00 290.75 89.16L290.75 89.16L290.87 89.28Q290.88 95.26 286.66 97.30L286.64 97.28L286.55 97.19Q284.16 98.29 276.74 99.01ZM281.26 103.75L281.22 103.71L281.24 103.73Q283.64 103.59 287.42 103.73L287.47 103.78L287.39 103.69Q290.59 103.92 293.57 102.54L293.61 102.57L293.50 102.46Q295.76 101.09 295.76 97.67L295.75 97.66L295.76 97.67Q295.59 96.55 295.26 94.66L295.27 94.67L295.33 94.72Q295.03 92.86 295.03 91.99L295.11 92.07L294.92 91.88Q293.36 82.97 290.30 79.33L290.24 79.28L290.37 79.40Q290.05 79.00 289.75 78.57L289.92 78.73L289.25 78.21L289.06 78.09L289.14 78.17Q288.48 77.22 287.31 75.40L287.26 75.35L287.21 75.29Q285.51 73.52 281.72 72.65L281.74 72.67L281.68 72.60Q284.07 69.61 289.74 62.55L289.78 62.59L297.83 52.46L297.81 52.43Q294.86 54.14 290.28 55.59L290.33 55.65L290.25 55.57Q292.01 53.69 295.43 49.91L295.42 49.90L295.49 49.97Q290.87 51.97 283.45 53.06L283.54 53.15L283.39 53.00Q272.61 64.41 266.94 73.86L266.90 73.83L266.95 73.87Q263.88 78.51 262.78 90.44L262.79 90.45L262.85 90.51Q262.62 91.51 262.77 93.33L262.86 93.42L262.93 93.49Q262.98 96.75 265.09 98.49L265.15 98.56L265.05 98.45Q265.75 98.72 265.68 98.79L265.69 98.80L265.85 98.96Q266.51 100.64 268.04 101.44L268.02 101.42L268.02 101.42Q270.73 102.68 274.44 103.04L274.40 103.00L274.59 103.19Q274.55 103.15 281.25 103.74ZM280.66 82.13L280.73 82.20L280.81 82.28Q281.75 81.91 283.57 82.86L283.60 82.88L283.61 82.90Q284.42 84.87 284.42 86.10L284.39 86.08L284.28 85.97Q284.76 89.65 282.95 91.54L282.79 91.39L282.95 91.55Q280.88 92.90 276.88 93.48L276.77 93.37L276.75 93.35Q273.96 93.33 272.95 92.82L273.05 92.93L273.09 92.97Q272.62 91.98 272.62 91.40L272.64 91.42L272.60 91.38Q272.21 85.18 277.81 82.70L277.77 82.66L277.92 82.81Q279.33 82.11 280.79 82.25Z"/><path d="M13 20 C174 33,152 133,334 46" stroke="#c461e5" fill="none"/><path d="M11 111 C169 113,159 54,327 56" stroke="#e4c975" fill="none"/><path d="M8 88 C168 126,155 52,335 85" stroke="#60dcbd" fill="none"/><path d="M6 126 C184 86,154 80,331 53" stroke="#7a59dd" fill="none"/><path d="M18 48 C173 103,155 77,334 20" stroke="#e887b7" fill="none"/><path d="M9 43 C168 105,190 122,338 61" stroke="#5adc9b" fill="none"/><path d="M15 97 C182 64,166 48,340 14" stroke="#e3b78c" fill="none"/><path d="M12 54 C192 6,150 98,338 14" stroke="#dc8a6f" fill="none"/><path d="M13 71 C174 13,184 48,325 70" stroke="#dd8264" fill="none"/><path d="M15 35 C153 77,152 16,339 83" stroke="#9e5ae1" fill="none"/><path d="M18 95 C189 71,158 46,327 92" stroke="#eb9d84" fill="none"/><path d="M13 13 C170 34,171 107,326 31" stroke="#cdea75" fill="none"/><path d="M18 106 C154 126,180 78,331 56" stroke="#ef7f7f" fill="none"/><path fill="#efba85" d="M164.42 77.99L164.52 78.08L164.42 77.98Q160.91 78.04 158.58 80.59L158.57 80.58L158.64 80.64Q156.21 83.08 155.92 86.72L155.86 86.66L155.92 86.72Q155.55 90.79 157.88 92.72L157.87 92.71L157.80 92.64Q160.20 94.64 164.27 94.49L164.24 94.47L164.37 94.59Q168.82 94.32 170.64 92.50L170.53 92.38L170.61 92.47Q172.44 89.57 172.22 86.08L172.26 86.12L172.26 86.12Q171.98 82.49 169.91 80.20L170.02 80.31L169.91 80.21Q167.97 78.04 164.48 78.04ZM164.30 59.90L164.43 60.02L164.41 60.01Q161.72 59.79 159.18 60.74L159.09 60.65L159.09 60.65Q156.57 62.14 157.01 65.70L157.13 65.82L157.03 65.72Q157.99 72.87 164.39 72.87L164.38 72.85L164.53 73.00Q167.34 73.19 169.23 71.01L169.26 71.04L169.21 70.99Q171.15 68.86 171.22 65.88L171.32 65.97L171.21 65.87Q171.36 62.52 169.98 61.36L169.99 61.37L169.95 61.33Q166.93 59.91 164.45 60.05ZM163.93 99.31L163.87 99.26L158.12 99.33L157.98 99.18Q155.17 99.28 152.62 97.61L152.56 97.55L152.54 97.53Q149.90 95.32 150.19 89.87L150.16 89.84L150.35 90.03Q151.11 76.83 158.02 74.94L157.99 74.90L158.07 74.98Q153.70 73.24 151.16 62.98L151.19 63.01L151.19 63.02Q150.49 60.28 150.64 58.75L150.66 58.77L150.71 58.82Q151.24 54.69 158.29 54.62L158.17 54.50L158.15 54.48Q166.25 54.35 169.01 54.72L169.04 54.75L169.13 54.83Q176.52 55.90 177.39 59.75L177.24 59.60L177.38 59.74Q177.62 60.92 177.62 61.65L177.52 61.55L177.58 61.62Q177.54 62.88 177.17 64.04L177.23 64.10L177.22 64.09Q176.02 72.13 170.42 75.04L170.39 75.01L170.42 75.04Q177.02 76.47 177.96 86.58L178.08 86.70L178.13 86.75Q178.10 87.01 178.17 89.48L178.11 89.43L178.18 89.49Q178.19 94.59 175.13 96.63L175.14 96.64L175.21 96.71Q172.54 98.32 163.81 99.19ZM168.31 103.77L168.24 103.70L174.63 103.83L174.67 103.88Q177.79 103.87 180.70 102.49L180.84 102.63L180.73 102.52Q183.06 101.28 183.20 97.72L183.14 97.65L183.16 97.67Q183.20 95.53 182.47 91.82L182.51 91.85L182.57 91.92Q180.78 83.00 176.78 79.43L176.78 79.43L176.43 78.72L176.07 78.21L175.77 77.70L175.75 77.68Q178.83 75.01 180.58 67.08L180.62 67.13L180.67 67.18Q180.62 66.40 180.76 64.80L180.67 64.71L180.69 64.73Q180.84 63.42 180.69 62.25L180.81 62.37L180.75 62.31Q180.38 59.47 178.12 58.52L178.24 58.64L178.28 58.60L177.98 58.45L177.93 58.40Q177.31 56.91 175.05 55.38L175.21 55.54L175.23 55.48L175.17 55.42Q171.38 54.11 163.60 53.74L163.61 53.75L163.70 53.85Q160.71 53.62 158.10 53.84L158.00 53.75L158.06 53.81Q156.61 53.95 154.13 54.24L154.03 54.14L154.09 54.20Q150.41 54.96 149.98 58.09L149.95 58.06L149.95 58.06Q149.73 58.86 149.81 60.39L149.95 60.53L149.89 60.47Q150.03 61.42 151.12 65.93L151.27 66.07L151.13 65.93Q152.67 72.12 156.01 74.67L156.04 74.70L156.25 74.91L156.28 74.94Q150.82 77.26 149.80 87.16L149.92 87.27L149.80 87.16Q149.47 91.41 149.47 93.15L149.62 93.30L149.48 93.16Q149.70 96.65 151.95 98.40L151.88 98.32L151.99 98.43Q152.08 98.45 152.58 98.81L152.67 98.90L152.71 98.94Q154.55 103.18 168.15 103.61ZM167.56 82.51L167.66 82.61L167.60 82.55Q169.35 82.40 171.02 83.28L171.06 83.32L171.06 83.31Q171.74 85.16 171.67 86.18L171.72 86.23L171.58 86.10Q171.71 86.73 171.71 87.31L171.78 87.38L171.69 87.29Q171.74 91.85 167.38 93.45L167.41 93.49L167.42 93.50Q165.79 93.98 164.26 93.76L164.30 93.80L164.36 93.85Q162.12 93.95 159.94 93.07L160.09 93.22L159.96 93.10Q159.58 91.99 159.73 90.10L159.60 89.97L159.67 90.04Q159.96 86.98 162.25 84.65L162.20 84.61L162.23 84.64Q164.46 82.25 167.52 82.47ZM167.93 64.33L167.91 64.31L167.90 64.30Q169.58 64.23 170.60 64.52L170.49 64.42L170.45 65.91L170.54 66.00Q170.61 68.76 168.86 70.68L168.80 70.62L168.80 70.62Q167.07 72.56 164.45 72.20L164.52 72.27L164.40 72.14Q162.50 72.14 161.70 71.71L161.73 71.73L161.82 71.82Q161.63 71.19 161.41 69.88L161.37 69.85L161.51 69.98Q160.91 67.21 163.24 65.61L163.28 65.65L163.36 65.73Q165.41 64.42 168.10 64.50Z"/><path d="M7 95 C150 107,185 137,327 89" stroke="#6c6cee" fill="none"/><path d="M14 136 C179 71,167 27,337 74" stroke="#db3d8c" fill="none"/><path d="M20 63 C185 65,170 7,338 130" stroke="#da5252" fill="none"/><path d="M1 67 C167 126,174 31,331 129" stroke="#e5b27f" fill="none"/><path d="M6 65 C178 84,169 56,328 36" stroke="#eab27a" fill="none"/><path d="M16 3 C151 137,164 64,331 45" stroke="#e782ce" fill="none"/><path d="M1 11 C168 57,160 128,325 96" stroke="#5c5ce9" fill="none"/><path fill="#934bdc" d="M51.22 59.76L51.23 59.76L48.21 59.94L48.21 59.94Q43.93 60.18 43.50 64.03L43.47 64.01L43.49 64.03Q43.29 65.35 43.36 67.24L43.37 67.25L43.43 67.31Q43.45 70.97 45.85 73.51L45.81 73.47L45.89 73.55Q48.32 76.13 51.95 75.83L52.01 75.89L51.88 75.76Q55.79 75.45 57.25 73.71L57.37 73.84L57.34 73.80Q59.35 72.03 59.86 67.74L59.93 67.81L59.83 67.71Q60.42 63.49 58.01 61.89L57.98 61.86L57.98 61.85Q56.33 60.35 51.23 59.77ZM62.79 77.43L62.82 77.46L60.31 81.79L60.25 81.73Q55.24 91.05 48.04 98.83L47.87 98.67L47.96 98.75Q44.71 98.92 39.55 100.45L39.56 100.46L39.55 100.46Q49.78 88.50 55.81 79.33L55.88 79.40L55.94 79.46Q53.83 80.54 50.70 80.69L50.85 80.84L50.69 80.68Q45.05 81.08 42.14 77.30L42.21 77.36L42.09 77.24Q39.69 74.12 37.58 65.39L37.62 65.43L37.73 65.54Q37.72 64.66 37.43 62.88L37.47 62.92L37.34 62.78Q37.17 61.13 37.17 60.26L37.01 60.09L37.00 60.08Q37.00 56.66 39.04 55.50L39.06 55.52L39.06 55.52Q41.49 54.17 45.05 54.17L45.01 54.13L45.01 54.13Q51.13 54.14 51.13 54.14L51.19 54.20L51.22 54.23Q55.19 54.12 57.59 54.48L57.74 54.64L57.64 54.53Q61.84 55.17 63.59 56.12L63.48 56.01L63.57 56.10Q66.17 57.53 66.53 60.88L66.53 60.88L66.52 60.87Q66.45 61.24 66.09 66.33L66.09 66.33L66.04 66.28Q65.40 70.44 64.96 72.04L64.98 72.06L64.95 72.03Q64.24 74.73 62.78 77.42ZM66.41 82.00L66.46 82.04L66.49 82.08Q68.32 77.80 69.34 69.58L69.40 69.64L69.24 69.49Q69.87 65.38 69.80 63.71L69.76 63.67L69.69 63.60Q69.77 60.19 67.52 58.45L67.41 58.34L66.76 58.05L66.93 58.22Q66.42 56.77 64.68 55.53L64.54 55.40L64.58 55.44Q60.21 53.54 51.04 53.25L50.97 53.17L51.02 53.23Q49.27 53.29 44.61 53.29L44.57 53.25L44.61 53.29Q41.25 53.27 38.41 54.58L38.37 54.54L38.36 54.53Q36.31 56.19 36.46 59.68L36.43 59.66L36.28 59.51Q36.67 61.27 37.03 65.13L37.09 65.19L37.05 65.15Q38.27 70.23 38.78 71.83L38.70 71.75L38.76 71.81Q39.88 75.40 41.70 77.88L41.78 77.95L41.76 77.94Q42.29 78.61 43.02 79.34L42.92 79.23L42.85 79.17Q43.46 80.15 44.70 81.89L44.67 81.87L44.62 81.82Q47.50 84.47 51.21 84.84L51.22 84.85L51.16 84.78Q47.64 90.00 44.66 93.63L44.58 93.56L37.59 101.84L37.59 101.84Q41.91 100.42 45.04 99.76L45.03 99.75L45.19 99.91Q43.68 101.53 40.70 104.80L40.68 104.79L40.72 104.83Q46.58 103.05 52.55 102.98L52.51 102.94L52.56 102.99Q56.93 97.98 65.23 84.16L65.29 84.23L65.34 84.42L65.22 84.30Q65.82 83.00 66.47 82.06ZM54.82 64.23L54.95 64.36L54.86 64.26Q56.02 64.04 56.89 64.26L57.05 64.41L56.96 64.33Q58.28 64.63 59.01 64.85L58.83 64.67L58.95 64.79Q59.18 65.53 59.32 66.33L59.27 66.28L59.38 66.38Q59.41 67.07 59.19 67.80L59.25 67.86L59.15 67.75Q59.14 71.09 56.88 73.20L56.80 73.11L56.93 73.25Q54.97 75.07 51.84 75.00L52.03 75.19L51.95 75.10Q51.21 75.17 48.30 74.59L48.19 74.47L48.26 74.54Q47.82 72.86 47.82 71.48L47.70 71.36L47.78 71.44Q47.70 71.00 47.70 70.57L47.64 70.50L47.72 70.58Q47.63 66.27 51.99 64.74L52.08 64.84L52.00 64.75Q53.31 64.32 54.91 64.32Z"/><path d="M8 14 C186 24,174 23,327 8" stroke="#e3c058" fill="none"/><path fill="#a3ef8a" d="M107.62 77.85L107.61 77.85L107.53 77.77Q104.04 77.54 101.67 80.27L101.72 80.32L101.87 80.46Q99.48 83.17 99.11 86.80L99.06 86.75L99.12 86.81Q98.65 90.70 100.72 92.56L100.66 92.50L100.68 92.51Q102.84 94.46 106.84 94.24L106.71 94.11L106.79 94.19Q110.73 93.84 112.84 92.53L112.77 92.46L112.76 92.45Q115.07 90.47 115.07 87.49L115.14 87.55L115.00 87.41Q115.11 86.80 114.96 86.07L114.81 85.92L114.84 85.94Q115.09 82.85 112.98 80.27L112.97 80.26L112.89 80.18Q110.85 77.67 107.65 77.88ZM106.82 99.10L106.89 99.16L106.79 99.06Q98.53 99.17 95.84 97.71L95.82 97.70L95.73 97.60Q93.73 96.11 93.36 92.84L93.39 92.86L93.37 92.85Q93.45 91.68 93.52 90.30L93.38 90.16L93.40 90.18Q93.67 88.34 93.67 87.47L93.68 87.48L93.67 87.47Q94.57 82.04 94.86 80.73L94.72 80.59L94.82 80.69Q95.73 77.02 97.33 74.33L97.26 74.26L97.23 74.23Q102.38 65.92 113.72 53.77L113.73 53.78L113.82 53.87Q118.79 53.16 123.00 51.63L122.99 51.61L122.98 51.61Q110.04 66.01 103.93 74.09L103.80 73.96L103.80 73.96Q105.74 73.06 108.21 73.06L108.26 73.11L108.25 73.10Q114.57 73.10 117.48 76.81L117.48 76.80L117.42 76.75Q119.94 79.84 120.59 86.60L120.61 86.62L120.73 86.75Q120.81 88.06 120.81 89.23L120.69 89.10L120.70 89.11Q120.85 95.23 116.63 97.27L116.51 97.14L116.61 97.24Q114.19 98.32 106.77 99.04ZM111.23 103.73L111.20 103.69L111.16 103.65Q113.59 103.53 117.37 103.68L117.53 103.84L117.43 103.74Q120.65 103.98 123.64 102.60L123.53 102.49L123.53 102.49Q125.58 100.91 125.58 97.49L125.76 97.66L125.72 97.63Q125.70 96.66 125.37 94.77L125.29 94.68L125.35 94.75Q124.95 92.78 124.95 91.91L124.93 91.88L125.10 92.06Q123.30 82.92 120.25 79.28L120.30 79.33L120.23 79.26Q120.18 79.14 119.89 78.70L119.87 78.68L119.36 78.32L119.08 78.11L119.18 78.21Q118.44 77.18 117.28 75.36L117.21 75.30L117.28 75.36Q115.62 73.64 111.84 72.76L111.75 72.67L111.82 72.75Q114.04 69.58 119.72 62.53L119.80 62.61L127.85 52.48L127.90 52.53Q124.93 54.21 120.35 55.67L120.26 55.58L120.26 55.57Q121.93 53.61 125.35 49.83L125.37 49.85L125.51 49.99Q120.82 51.92 113.40 53.01L113.42 53.02L113.54 53.14Q102.48 64.27 96.80 73.73L96.84 73.76L96.78 73.70Q94.01 78.65 92.92 90.58L92.95 90.60L92.85 90.51Q92.81 91.70 92.96 93.52L92.92 93.49L92.87 93.43Q92.96 96.72 95.07 98.47L95.06 98.47L95.17 98.57Q95.76 98.73 95.69 98.80L95.86 98.98L95.69 98.80Q96.59 100.72 98.12 101.52L98.08 101.48L98.03 101.43Q100.77 102.72 104.48 103.08L104.56 103.16L104.58 103.19Q104.53 103.13 111.22 103.71ZM110.79 82.26L110.83 82.30L110.80 82.27Q111.80 81.96 113.62 82.91L113.68 82.96L113.76 83.04Q114.37 84.82 114.37 86.06L114.38 86.07L114.34 86.03Q114.68 89.57 112.86 91.46L112.95 91.55L112.86 91.46Q110.80 92.81 106.80 93.39L106.82 93.42L106.91 93.51Q104.15 93.52 103.14 93.01L103.05 92.92L102.99 92.86Q102.71 92.07 102.71 91.49L102.60 91.38L102.74 91.52Q102.28 85.25 107.88 82.77L107.86 82.74L107.80 82.68Q109.27 82.05 110.72 82.19Z"/><path d="M12 120 C178 93,172 30,336 66" stroke="#3eb3da" fill="none"/><path fill="#e64596" d="M221.03 77.93L221.16 78.06L221.12 78.02Q217.58 78.04 215.25 80.58L215.20 80.53L215.18 80.52Q212.94 83.15 212.65 86.79L212.64 86.78L212.67 86.81Q212.19 90.77 214.52 92.69L214.56 92.74L214.51 92.69Q216.86 94.64 220.94 94.49L220.94 94.49L220.91 94.46Q225.47 94.30 227.29 92.48L227.29 92.48L227.24 92.43Q229.22 89.69 229.00 86.19L228.99 86.18L228.88 86.07Q228.69 82.53 226.62 80.24L226.74 80.36L226.67 80.30Q224.57 77.98 221.08 77.98ZM221.10 60.03L221.06 59.99L220.98 59.91Q218.27 59.68 215.73 60.62L215.84 60.74L215.71 60.60Q213.33 62.23 213.77 65.79L213.66 65.68L213.73 65.76Q214.79 73.00 221.20 73.00L221.14 72.94L221.01 72.81Q224.04 73.23 225.93 71.04L225.88 71.00L226.01 71.13Q227.86 68.90 227.93 65.92L227.84 65.83L227.97 65.95Q228.01 62.51 226.63 61.34L226.73 61.45L226.73 61.44Q223.57 59.89 221.10 60.03ZM220.52 99.24L220.61 99.33L214.73 99.27L214.62 99.16Q211.69 99.14 209.15 97.47L209.34 97.66L209.19 97.51Q206.64 95.40 206.93 89.95L207.00 90.01L206.88 89.89Q207.73 76.78 214.64 74.89L214.79 75.03L214.74 74.98Q210.29 73.16 207.75 62.90L207.70 62.86L207.71 62.87Q207.17 60.28 207.31 58.75L207.30 58.75L207.23 58.67Q207.84 54.63 214.90 54.56L214.91 54.57L214.85 54.51Q223.03 54.47 225.80 54.84L225.74 54.78L225.80 54.84Q233.03 55.74 233.90 59.59L233.89 59.58L233.91 59.61Q234.29 60.93 234.29 61.66L234.17 61.53L234.23 61.60Q234.18 62.86 233.82 64.02L233.92 64.13L233.88 64.08Q232.75 72.19 227.14 75.10L227.14 75.09L227.00 74.95Q233.72 76.51 234.67 86.62L234.71 86.66L234.65 86.61Q234.67 86.92 234.74 89.39L234.85 89.50L234.68 89.33Q234.91 94.65 231.85 96.68L231.84 96.67L231.85 96.68Q229.18 98.30 220.45 99.17ZM224.91 103.70L224.94 103.73L231.29 103.83L231.24 103.78Q234.53 103.94 237.44 102.56L237.51 102.63L237.53 102.65Q239.68 101.24 239.83 97.67L239.70 97.55L239.87 97.72Q239.90 95.56 239.17 91.85L239.24 91.92L239.15 91.83Q237.46 83.01 233.46 79.45L233.41 79.40L233.00 78.63L232.62 78.10L232.47 77.73L232.32 77.58Q235.46 74.97 237.20 67.04L237.21 67.05L237.26 67.10Q237.24 66.35 237.39 64.75L237.44 64.81L237.33 64.70Q237.54 63.46 237.40 62.29L237.46 62.35L237.49 62.38Q237.07 59.49 234.82 58.55L234.78 58.51L234.99 58.65L234.60 58.41L234.58 58.38Q234.04 56.97 231.79 55.45L231.72 55.38L231.88 55.46L231.81 55.40Q228.02 54.08 220.24 53.72L220.36 53.84L220.23 53.71Q217.39 53.63 214.77 53.85L214.71 53.79L214.70 53.78Q213.20 53.88 210.73 54.17L210.72 54.16L210.67 54.11Q207.01 54.89 206.58 58.02L206.62 58.06L206.51 57.96Q206.56 59.02 206.63 60.55L206.54 60.45L206.65 60.57Q206.87 61.59 207.96 66.10L207.87 66.01L207.85 65.99Q209.38 72.17 212.73 74.72L212.67 74.66L212.89 74.88L212.83 74.82Q207.55 77.32 206.53 87.21L206.51 87.20L206.46 87.14Q206.17 91.44 206.17 93.18L206.28 93.29L206.15 93.17Q206.29 96.58 208.55 98.33L208.58 98.36L208.63 98.40Q208.82 98.52 209.33 98.89L209.24 98.80L209.34 98.90Q211.31 103.27 224.91 103.70ZM224.14 82.43L224.13 82.42L224.21 82.50Q225.96 82.35 227.63 83.22L227.73 83.32L227.60 83.19Q228.47 85.22 228.39 86.24L228.28 86.13L228.39 86.23Q228.31 86.66 228.31 87.24L228.33 87.27L228.33 87.27Q228.33 91.78 223.97 93.38L224.07 93.48L224.06 93.47Q222.48 94.00 220.95 93.78L220.95 93.78L220.96 93.79Q218.77 93.92 216.58 93.05L216.63 93.10L216.76 93.23Q216.14 91.88 216.28 89.98L216.32 90.02L216.30 90.00Q216.64 87.00 218.94 84.67L218.92 84.66L218.86 84.59Q221.11 82.23 224.16 82.44ZM224.69 64.43L224.61 64.34L224.75 64.49Q226.27 64.26 227.29 64.55L227.26 64.52L227.13 65.91L227.17 65.96Q227.16 68.63 225.41 70.56L225.39 70.54L225.47 70.62Q223.79 72.61 221.17 72.25L221.17 72.25L221.02 72.10Q219.14 72.12 218.34 71.68L218.43 71.77L218.45 71.78Q218.39 71.28 218.17 69.97L218.03 69.84L218.04 69.85Q217.66 67.28 219.99 65.68L219.91 65.61L219.89 65.59Q221.92 64.27 224.61 64.34Z"/></svg>