<svg xmlns="http://www.w3.org/2000/svg" width="342" height="140" viewBox="0,0,342,140"><path d="M3 46 C170 19,180 128,341 109" stroke="#e56f6f" fill="none"/><path d="M3 26 C172 118,181 112,334 14" stroke="#e6a869" fill="none"/><path d="M3 118 C189 107,163 22,337 15" stroke="#db4646" fill="none"/><path d="M8 22 C161 124,178 37,341 69" stroke="#41dcb5" fill="none"/><path d="M10 130 C164 50,181 127,334 66" stroke="#a7e792" fill="none"/><path d="M12 114 C151 7,163 9,330 91" stroke="#e86284" fill="none"/><path d="M15 104 C188 25,153 123,322 110" stroke="#e372c7" fill="none"/><path d="M3 59 C185 27,187 5,333 106" stroke="#9ce584" fill="none"/><path d="M14 6 C176 97,167 35,322 24" stroke="#8ceded" fill="none"/><path d="M4 26 C173 1,167 130,321 17" stroke="#e971e9" fill="none"/><path d="M7 53 C176 62,165 78,340 106" stroke="#89e6ce" fill="none"/><path d="M12 43 C164 10,168 129,340 54" stroke="#e06aa5" fill="none"/><path d="M7 89 C152 84,160 112,326 130" stroke="#68a8e8" fill="none"/><path d="M12 30 C164 98,184 104,322 72" stroke="#e5e584" fill="none"/><path d="M11 19 C167 28,155 47,338 29" stroke="#6ae5a8" fill="none"/><path d="M16 84 C181 52,152 64,338 47" stroke="#e36262" fill="none"/><path d="M19 5 C183 36,178 114,330 53" stroke="#6885dd" fill="none"/><path fill="#5bb7d6" d="M63.78 62.05L63.72 61.99L61.46 62.22L61.46 62.22Q58.10 62.35 57.76 65.35L57.83 65.41L57.74 65.33Q57.63 66.40 57.69 67.87L57.73 67.91L57.74 67.92Q57.77 70.77 59.63 72.75L59.59 72.70L59.61 72.73Q61.43 74.66 64.25 74.43L64.32 74.50L64.34 74.52Q67.33 74.23 68.45 72.88L68.59 73.02L68.48 72.90Q70.04 71.53 70.43 68.20L70.50 68.27L70.40 68.17Q70.93 64.98 69.07 63.74L68.99 63.65L68.95 63.62Q67.72 62.49 63.77 62.04ZM72.66 75.67L72.84 75.85L70.90 79.22L70.87 79.18Q66.85 86.29 61.26 92.32L61.28 92.33L61.29 92.35Q58.71 92.42 54.71 93.61L54.82 93.72L54.86 93.76Q62.65 84.34 67.33 77.23L67.44 77.34L67.41 77.31Q65.92 78.30 63.49 78.41L63.41 78.33L63.39 78.32Q59.02 78.62 56.76 75.69L56.66 75.59L56.77 75.70Q55.00 73.37 53.37 66.60L53.34 66.57L53.25 66.48Q53.22 65.77 52.99 64.39L53.12 64.52L53.11 64.50Q52.77 63.00 52.77 62.33L52.84 62.40L52.82 62.38Q52.90 59.81 54.48 58.91L54.38 58.81L54.32 58.75Q56.17 57.66 58.94 57.66L58.95 57.68L58.89 57.62Q63.77 57.76 63.77 57.76L63.74 57.73L63.71 57.70Q66.90 57.72 68.76 58.01L68.69 57.94L68.73 57.98Q72.03 58.51 73.38 59.24L73.22 59.08L73.38 59.25Q75.31 60.27 75.59 62.86L75.64 62.92L75.65 62.92Q75.62 63.23 75.34 67.18L75.37 67.21L75.26 67.10Q74.69 70.25 74.35 71.50L74.48 71.62L74.43 71.58Q73.96 73.76 72.83 75.84ZM75.47 79.22L75.62 79.37L75.47 79.22Q77.12 76.13 77.91 69.75L77.90 69.74L77.79 69.64Q78.16 66.34 78.11 65.04L78.25 65.19L78.18 65.12Q78.04 62.26 76.29 60.91L76.38 61.00L75.99 60.89L75.81 60.72Q75.48 59.65 74.12 58.69L74.25 58.81L74.12 58.69Q70.80 57.28 63.69 57.06L63.69 57.06L63.74 57.11Q62.32 57.09 58.70 57.09L58.68 57.07L58.56 56.95Q55.94 56.93 53.74 57.94L53.88 58.08L53.79 57.99Q52.18 59.26 52.29 61.97L52.28 61.95L52.19 61.87Q52.50 63.25 52.79 66.24L52.87 66.33L52.89 66.35Q53.76 70.21 54.16 71.45L54.11 71.40L54.04 71.33Q55.04 74.25 56.45 76.16L56.29 76.01L56.32 76.04Q56.77 76.60 57.33 77.16L57.31 77.14L57.43 77.26Q57.81 77.92 58.77 79.27L58.72 79.23L58.75 79.25Q60.87 81.21 63.75 81.49L63.69 81.43L63.74 81.48Q60.93 85.45 58.62 88.27L58.58 88.23L53.32 94.82L53.33 94.83Q56.70 93.74 59.12 93.23L58.95 93.05L59.02 93.12Q57.84 94.37 55.53 96.91L55.58 96.97L55.60 96.98Q60.22 95.68 64.85 95.63L64.74 95.51L64.82 95.59Q68.14 91.64 74.57 80.92L74.66 81.01L74.73 81.18L74.69 81.15Q74.98 79.97 75.49 79.24ZM66.64 65.59L66.59 65.54L66.61 65.56Q67.57 65.45 68.24 65.62L68.15 65.52L68.25 65.62Q69.27 65.86 69.84 66.02L69.80 65.99L69.80 65.99Q69.91 66.50 70.03 67.12L69.94 67.03L70.05 67.14Q70.06 67.65 69.89 68.22L69.91 68.24L69.93 68.26Q69.82 70.75 68.07 72.38L68.11 72.42L68.14 72.45Q66.74 73.99 64.31 73.93L64.33 73.94L64.27 73.89Q63.81 74.05 61.55 73.59L61.53 73.57L61.51 73.55Q61.19 72.27 61.19 71.20L61.07 71.09L61.04 71.05Q61.01 70.74 61.01 70.41L60.98 70.37L60.99 70.38Q60.94 67.06 64.32 65.87L64.37 65.92L64.43 65.98Q65.32 65.51 66.56 65.51Z"/><path fill="#c04ae7" d="M261.95 81.87L261.91 81.83L261.96 81.88Q266.54 81.33 271.28 81.50L271.20 81.42L271.21 81.43Q271.22 77.71 271.22 74.16L271.18 74.12L271.17 74.11Q271.18 70.45 271.46 66.67L271.42 66.63L271.33 66.54Q269.68 69.24 261.95 81.87ZM276.63 92.77L276.62 92.76L276.59 92.73Q274.12 92.29 271.47 92.18L271.33 92.04L271.49 92.20Q271.16 88.65 270.99 84.98L270.94 84.93L271.01 85.00Q263.11 84.72 256.11 86.81L256.00 86.70L255.99 86.69Q256.16 85.96 256.44 84.49L256.55 84.59L256.47 84.52Q259.15 79.86 264.46 70.55L264.52 70.62L264.54 70.64Q268.77 63.35 273.84 57.60L273.78 57.53L273.90 57.65Q275.12 57.30 277.60 56.90L277.64 56.94L277.66 56.96Q274.78 66.44 274.78 76.87L274.86 76.95L274.86 76.95Q274.86 79.15 274.98 81.36L274.91 81.29L276.73 81.36L276.74 81.37Q277.71 81.49 278.61 81.66L278.57 81.62L278.65 81.70Q278.86 83.21 279.25 86.08L279.16 85.99L279.26 86.09Q277.30 85.54 275.10 85.26L275.19 85.35L275.25 85.41Q275.60 88.41 276.62 92.76ZM279.02 81.11L278.93 81.02L278.99 81.08Q278.72 80.98 278.44 80.98L278.55 81.09L277.92 81.03L277.85 80.95Q277.72 78.80 277.72 76.71L277.82 76.81L277.75 76.74Q277.76 67.26 280.80 58.35L280.80 58.35L280.84 58.39Q279.66 58.72 277.51 59.29L277.49 59.27L277.55 59.33Q277.91 58.22 278.58 56.13L278.48 56.02L278.51 56.05Q276.51 56.54 273.46 56.87L273.59 57.01L273.57 56.98Q267.71 63.37 259.98 77.25L260.01 77.28L263.18 71.93L263.07 71.82Q262.48 73.37 262.08 74.22L262.01 74.14L255.53 87.64L255.42 87.53Q256.37 87.30 258.07 86.73L258.08 86.75L258.01 87.24L257.99 87.22Q257.85 88.26 257.40 90.12L257.24 89.97L257.28 90.01Q263.38 88.04 270.55 88.32L270.47 88.25L270.50 88.28Q270.56 89.69 270.84 92.62L270.87 92.65L270.83 92.62Q272.50 92.70 274.08 92.87L274.07 92.86L274.13 92.92Q274.31 93.89 274.70 95.92L274.71 95.93L274.63 95.84Q277.50 96.24 281.96 97.59L281.90 97.54L282.01 97.64Q280.50 94.44 279.15 89.59L279.11 89.55L281.36 90.34L281.36 90.34Q282.22 90.52 283.24 91.03L283.37 91.16L283.27 91.06Q282.19 87.44 281.96 84.96L281.94 84.93L281.86 84.85Q281.09 84.71 279.40 84.37L279.35 84.32L279.29 84.26Q279.10 82.49 279.10 81.20ZM267.24 80.95L267.22 80.94L267.21 80.93Q268.28 78.95 270.59 75.17L270.71 75.28L270.67 75.24Q270.59 76.57 270.53 77.98L270.64 78.10L270.59 78.04Q270.52 79.44 270.57 80.85L270.69 80.96L270.65 80.93Q269.73 80.79 268.88 80.79L269.01 80.91L269.00 80.91Q268.03 80.84 267.12 80.84Z"/><path d="M21 85 C174 62,173 32,336 117" stroke="#e948e9" fill="none"/><path d="M21 117 C187 68,164 32,323 90" stroke="#6d44e7" fill="none"/><path d="M4 138 C178 41,188 97,327 110" stroke="#9b7fef" fill="none"/><path d="M18 127 C172 56,188 13,335 34" stroke="#67de85" fill="none"/><path d="M17 43 C190 32,190 36,337 8" stroke="#e35353" fill="none"/><path fill="#dede77" d="M137.31 73.18L137.41 73.27L137.34 73.20Q138.54 73.22 140.63 72.99L140.56 72.92L140.55 72.92Q140.60 73.98 140.60 74.94L140.62 74.96L140.50 76.70L140.61 76.81Q139.36 76.80 138.12 76.91L138.14 76.93L138.05 76.85Q136.93 77.02 135.69 76.97L135.65 76.93L135.51 76.79Q131.43 86.08 126.35 92.91L126.26 92.82L126.23 92.78Q122.63 93.87 120.71 94.77L120.73 94.79L120.56 94.62Q126.75 86.25 131.26 76.94L131.17 76.85L127.39 76.97L127.30 76.87Q127.47 75.07 127.30 73.09L127.17 72.96L127.27 73.07Q130.10 73.29 133.14 73.29L132.98 73.13L135.93 67.79L135.95 67.81Q137.32 64.89 139.12 62.52L139.07 62.46L139.18 62.57Q136.82 62.75 134.45 62.75L134.52 62.82L134.42 62.72Q125.37 62.70 119.78 59.42L119.92 59.56L119.00 57.06L118.89 56.96Q118.40 55.73 117.83 54.43L117.89 54.49L117.80 54.39Q124.33 58.38 132.79 58.72L132.82 58.75L132.64 58.58Q140.30 58.96 147.92 56.02L147.96 56.06L147.93 56.03Q147.74 56.74 147.01 58.04L147.01 58.05L146.99 58.03Q141.51 64.96 137.28 73.14ZM149.36 60.06L149.30 59.99L150.73 56.97L150.82 57.06Q149.36 57.74 146.88 58.82L146.94 58.88L147.18 58.38L147.08 58.28Q147.32 58.13 147.49 57.96L147.52 57.99L147.56 58.03Q147.98 56.87 149.05 54.89L149.24 55.09L149.08 54.92Q141.19 58.32 132.67 57.98L132.64 57.95L132.79 58.10Q123.83 57.66 116.78 53.26L116.67 53.15L116.69 53.18Q118.38 56.10 119.62 60.05L119.46 59.90L119.52 59.96Q121.22 60.98 122.41 61.43L122.28 61.30L122.33 61.35Q122.54 61.84 123.22 64.61L123.16 64.56L123.24 64.63Q128.01 66.58 136.20 66.36L136.09 66.25L136.12 66.29Q135.68 67.14 132.74 72.72L132.74 72.72L132.76 72.74Q129.67 72.69 126.73 72.41L126.82 72.50L126.77 72.45Q126.83 73.64 126.83 74.94L126.82 74.92L126.84 77.48L129.30 77.46L129.39 79.64L129.29 79.54Q123.48 90.49 119.36 95.79L119.42 95.85L119.41 95.84Q121.85 94.78 124.27 94.04L124.11 93.88L124.18 93.95Q123.25 95.39 121.21 97.93L121.18 97.90L121.25 97.96Q125.90 96.29 129.51 95.95L129.36 95.80L129.49 95.93Q133.90 90.41 138.52 80.37L138.51 80.35L143.50 80.55L143.55 80.60Q143.36 79.17 143.36 77.82L143.47 77.92L143.43 75.23L143.43 75.23Q142.94 75.13 142.12 75.19L142.09 75.16L142.14 75.21Q141.31 75.25 140.91 75.25L140.90 75.24L141.03 75.37Q140.93 75.10 140.99 74.88L140.99 74.88L140.99 74.48L141.01 74.50Q144.71 66.86 149.28 59.98Z"/><path d="M16 111 C152 73,153 105,333 60" stroke="#db5173" fill="none"/><path d="M6 34 C152 22,172 102,327 32" stroke="#cd7ce8" fill="none"/><path d="M11 91 C181 119,189 65,335 72" stroke="#72e54c" fill="none"/><path d="M20 137 C170 70,187 117,323 39" stroke="#51eac4" fill="none"/><path d="M7 62 C191 104,177 47,340 60" stroke="#eabc8e" fill="none"/><path d="M4 99 C152 8,163 15,340 78" stroke="#de5858" fill="none"/><path d="M16 23 C169 42,188 4,337 20" stroke="#af7de2" fill="none"/><path d="M13 101 C172 66,158 115,338 67" stroke="#66e63b" fill="none"/><path d="M17 29 C170 31,155 6,323 43" stroke="#8ebceb" fill="none"/><path d="M4 113 C161 123,172 8,325 75" stroke="#ca6be9" fill="none"/><path d="M13 28 C170 65,159 69,338 79" stroke="#a4ec8c" fill="none"/><path d="M2 102 C165 127,179 45,328 111" stroke="#408edd" fill="none"/><path d="M5 55 C159 31,175 34,330 67" stroke="#e48d70" fill="none"/><path d="M13 42 C158 96,157 102,341 25" stroke="#72ade8" fill="none"/><path d="M13 61 C188 4,158 20,339 35" stroke="#58d978" fill="none"/><path d="M11 64 C191 49,159 49,338 131" stroke="#a8e36d" fill="none"/><path d="M13 9 C186 132,159 95,341 91" stroke="#42dbdb" fill="none"/><path d="M11 98 C167 60,179 7,337 33" stroke="#be64dd" fill="none"/><path fill="#e3cd8b" d="M211.40 89.11L211.43 89.13L211.50 89.21Q211.84 90.56 212.63 93.56L212.68 93.60L212.73 93.65Q206.45 91.67 199.63 92.06L199.54 91.97L199.58 92.01Q192.81 92.41 186.89 95.35L186.83 95.28L186.86 95.32Q187.20 94.30 187.25 94.41L187.18 94.34L187.18 94.34Q192.83 88.59 198.64 82.05L198.65 82.06L198.60 82.01Q205.22 74.69 206.97 67.75L206.93 67.71L206.99 67.77Q207.61 65.12 205.72 63.37L205.65 63.30L205.78 63.43Q203.78 61.57 201.13 61.80L201.25 61.92L201.10 61.77Q200.65 61.77 200.14 61.77L200.15 61.78L200.07 61.69Q197.78 61.66 195.92 63.02L196.02 63.12L196.03 63.13Q194.09 65.14 194.43 69.09L194.53 69.19L194.38 69.04Q191.82 68.63 190.01 67.95L189.96 67.89L190.03 67.97Q189.75 65.88 189.64 63.74L189.52 63.62L189.64 63.73Q189.47 61.26 190.38 59.57L190.34 59.52L190.42 59.61Q193.01 57.52 197.98 57.52L198.00 57.54L200.56 57.51L200.61 57.55Q203.94 57.56 205.35 57.72L205.31 57.68L205.28 57.66Q211.80 58.36 212.20 61.97L212.23 62.01L212.21 61.99Q212.23 62.74 212.12 63.92L212.26 64.07L212.26 64.07Q212.09 64.92 211.87 65.93L211.95 66.02L211.99 66.06Q209.48 77.99 198.25 88.15L198.37 88.27L198.27 88.17Q200.39 87.97 202.42 87.97L202.40 87.95L202.47 88.02Q207.16 87.91 211.39 89.10ZM210.53 58.22L210.60 58.29L210.48 58.17Q208.24 57.35 205.71 57.23L205.61 57.13L200.49 56.81L200.68 57.00Q193.94 56.47 190.67 58.11L190.69 58.13L190.69 58.13Q189.07 60.11 189.07 63.16L189.14 63.24L189.16 63.25Q189.27 64.38 189.72 68.55L189.57 68.41L189.63 68.46Q190.36 68.74 192.10 69.19L192.21 69.30L192.28 70.89L192.08 70.69Q192.15 71.49 192.26 72.28L192.20 72.22L192.25 72.27Q194.15 72.48 197.82 72.82L197.86 72.86L197.76 72.76Q197.80 72.29 197.80 71.78L197.71 71.69L197.74 71.72Q197.65 68.92 199.45 66.92L199.56 67.02L199.57 67.03Q201.28 64.94 203.93 65.11L203.96 65.14L203.90 65.08Q205.09 65.19 206.22 65.42L206.27 65.47L206.15 65.35Q206.47 66.06 206.58 66.68L206.45 66.56L206.47 66.57Q206.63 67.30 206.52 67.81L206.54 67.83L206.53 67.82Q204.55 74.75 198.00 81.92L198.09 82.00L198.02 81.93Q194.96 85.37 186.90 94.34L186.88 94.32L186.78 94.22Q186.59 95.56 186.08 96.40L185.94 96.26L186.12 96.44Q188.44 95.10 190.70 94.31L190.68 94.28L190.68 94.29Q189.58 95.11 188.17 97.31L188.23 97.37L188.20 97.34Q187.97 97.78 187.80 98.29L187.76 98.25L187.77 98.26Q194.97 95.19 203.09 95.47L203.17 95.54L203.25 95.63Q211.66 95.85 218.43 99.35L218.27 99.19L216.82 96.05L216.86 96.09Q215.89 94.10 215.49 92.92L215.62 93.04L215.56 92.99Q214.48 92.36 212.67 91.74L212.65 91.71L212.61 91.68Q212.50 90.71 211.93 88.68L211.82 88.56L211.90 88.65Q208.55 87.73 205.16 87.44L205.29 87.57L205.15 87.43Q212.21 80.78 214.47 68.53L214.50 68.57L214.66 64.16L214.60 64.09Q214.54 61.50 212.73 60.48L212.85 60.60L212.66 60.46L212.76 60.56Q212.74 60.49 212.63 60.49L212.45 60.31L212.58 60.44Q212.27 59.23 210.63 58.32Z"/></svg>