<svg xmlns="http://www.w3.org/2000/svg" width="342" height="140" viewBox="0,0,342,140"><path d="M4 36 C167 121,191 93,325 78" stroke="#e76eaa" fill="none"/><path d="M10 102 C163 130,168 10,324 139" stroke="#90e890" fill="none"/><path fill="#45e66e" d="M137.72 74.04L137.70 74.02L137.64 73.96Q139.06 73.90 141.65 73.62L141.68 73.65L141.76 73.73Q141.69 74.92 141.69 76.11L141.66 76.08L141.76 78.49L141.65 78.38Q140.17 78.44 138.63 78.58L138.56 78.51L138.69 78.64Q136.98 78.54 135.44 78.47L135.60 78.63L135.52 78.55Q130.21 89.84 123.91 98.31L124.01 98.41L123.88 98.28Q119.39 99.60 117.01 100.72L116.98 100.70L117.04 100.76Q124.56 90.20 130.16 78.65L130.10 78.60L125.37 78.69L125.31 78.64Q125.36 76.24 125.15 73.79L125.08 73.72L125.17 73.81Q128.50 73.92 132.28 73.92L132.41 74.04L135.84 67.17L135.78 67.11Q137.60 63.62 139.84 60.67L139.97 60.81L139.86 60.69Q137.10 61.08 134.16 61.08L134.08 61.01L134.10 61.03Q122.88 61.01 115.95 56.95L115.93 56.94L114.80 53.84L114.86 53.90Q114.18 52.32 113.48 50.71L113.54 50.76L113.35 50.58Q121.46 55.53 131.97 55.95L131.99 55.98L131.98 55.97Q141.41 56.36 150.86 52.72L150.94 52.80L150.75 52.61Q150.49 53.47 149.58 55.09L149.50 55.00L149.60 55.10Q142.85 63.75 137.59 73.90ZM152.52 57.60L152.50 57.58L154.38 53.93L154.38 53.93Q152.61 54.82 149.53 56.15L149.43 56.05L149.94 55.65L149.88 55.59Q150.04 55.26 150.25 55.05L150.22 55.02L150.23 55.03Q151.06 53.90 152.39 51.45L152.40 51.46L152.24 51.30Q142.48 55.54 131.91 55.12L131.84 55.06L132.03 55.24Q120.95 54.74 112.20 49.28L112.07 49.15L112.08 49.16Q114.11 52.73 115.65 57.63L115.47 57.46L115.62 57.60Q117.62 58.76 119.09 59.32L119.12 59.36L119.10 59.33Q119.37 59.95 120.21 63.38L120.19 63.36L120.08 63.26Q125.95 65.62 136.10 65.34L136.22 65.45L136.13 65.36Q135.53 66.38 131.89 73.31L131.98 73.40L131.96 73.39Q128.25 73.45 124.61 73.10L124.56 73.05L124.44 72.93Q124.74 74.64 124.74 76.25L124.73 76.24L124.57 79.23L127.76 79.33L127.83 81.99L127.77 81.94Q120.45 95.41 115.34 102.00L115.34 101.99L115.35 102.00Q118.36 100.68 121.37 99.77L121.46 99.86L121.29 99.69Q120.11 101.44 117.59 104.59L117.59 104.60L117.66 104.66Q123.39 102.56 127.87 102.14L127.88 102.14L127.80 102.06Q133.27 95.20 139.01 82.74L138.96 82.70L145.41 83.19L145.27 83.05Q145.19 81.43 145.19 79.75L145.25 79.81L145.23 76.50L145.13 76.40Q144.65 76.40 143.63 76.47L143.59 76.43L143.62 76.46Q142.56 76.49 142.07 76.49L142.22 76.64L142.24 76.66Q142.22 76.43 142.29 76.15L142.27 76.13L142.27 75.64L142.19 75.56Q146.81 66.11 152.48 57.56Z"/><path d="M8 127 C192 100,174 40,337 5" stroke="#dcdc41" fill="none"/><path d="M19 54 C166 131,152 75,327 134" stroke="#9fef84" fill="none"/><path d="M3 22 C179 20,154 9,329 110" stroke="#5596d7" fill="none"/><path d="M8 39 C176 131,159 17,330 123" stroke="#e48585" fill="none"/><path d="M6 124 C187 83,168 40,335 122" stroke="#e84e75" fill="none"/><path d="M14 81 C154 96,188 6,333 117" stroke="#e88282" fill="none"/><path d="M17 53 C191 3,150 100,338 131" stroke="#df4ddf" fill="none"/><path d="M2 29 C168 124,187 70,330 106" stroke="#5dbad9" fill="none"/><path d="M11 17 C173 59,151 119,322 94" stroke="#dc50dc" fill="none"/><path d="M13 102 C185 2,180 79,329 118" stroke="#e254be" fill="none"/><path fill="#d84ab4" d="M266.74 77.79L266.64 77.70L266.74 77.79Q263.25 77.74 261.01 80.19L260.90 80.08L260.95 80.13Q258.76 82.63 258.48 86.13L258.38 86.03L258.36 86.01Q258.16 90.09 260.40 91.94L260.29 91.83L260.34 91.88Q262.58 93.73 266.50 93.59L266.42 93.52L266.53 93.62Q270.70 93.24 272.45 91.49L272.49 91.53L272.49 91.54Q274.36 88.85 274.15 85.49L274.21 85.55L274.25 85.59Q274.04 82.16 272.05 79.95L272.02 79.93L271.99 79.90Q270.01 77.70 266.65 77.70ZM266.62 60.38L266.67 60.43L266.54 60.30Q263.94 60.08 261.48 60.99L261.49 61.00L261.58 61.09Q259.19 62.55 259.61 65.98L259.58 65.95L259.55 65.91Q260.44 72.76 266.60 72.76L266.55 72.71L266.71 72.87Q269.48 73.12 271.30 71.02L271.37 71.08L271.24 70.95Q273.22 69.01 273.29 66.14L273.19 66.04L273.15 66.00Q273.42 62.91 272.09 61.79L272.06 61.77L271.96 61.66Q269.04 60.28 266.66 60.42ZM266.09 98.16L266.17 98.24L260.40 98.06L260.57 98.24Q257.68 98.15 255.23 96.54L255.18 96.49L255.32 96.63Q252.67 94.40 252.95 89.15L252.97 89.17L253.05 89.24Q253.75 76.50 260.40 74.68L260.52 74.80L260.43 74.71Q256.31 73.11 253.86 63.24L253.90 63.28L253.78 63.15Q253.30 60.71 253.44 59.24L253.38 59.19L253.36 59.17Q253.87 55.20 260.67 55.13L260.62 55.08L260.67 55.14Q268.56 55.11 271.22 55.46L271.19 55.43L271.15 55.39Q278.27 56.42 279.11 60.13L279.00 60.02L279.07 60.09Q279.31 61.24 279.31 61.94L279.29 61.92L279.22 61.85Q279.24 63.13 278.89 64.25L278.85 64.21L278.90 64.27Q277.69 71.95 272.30 74.75L272.44 74.88L272.34 74.78Q278.77 76.24 279.68 85.98L279.71 86.00L279.80 86.10Q279.83 86.41 279.90 88.79L279.87 88.76L279.87 88.76Q279.90 93.69 276.95 95.65L277.03 95.73L276.96 95.65Q274.54 97.36 266.14 98.20ZM270.31 102.45L270.37 102.50L276.51 102.62L276.38 102.49Q279.67 102.77 282.47 101.44L282.31 101.28L282.32 101.29Q284.46 100.00 284.60 96.57L284.58 96.55L284.73 96.70Q284.71 94.57 284.01 91.00L284.07 91.07L283.93 90.92Q282.24 82.38 278.39 78.95L278.48 79.03L278.16 78.36L277.81 77.88L277.47 77.33L277.54 77.39Q280.49 74.81 282.17 67.18L282.28 67.29L282.28 67.29Q282.22 66.53 282.36 64.99L282.29 64.92L282.29 64.92Q282.40 63.63 282.26 62.51L282.32 62.57L282.40 62.65Q282.04 59.91 279.87 59.00L279.78 58.91L279.86 58.92L279.57 58.77L279.57 58.77Q279.12 57.48 276.95 56.01L276.91 55.97L277.08 56.07L277.04 56.03Q273.42 54.79 265.92 54.44L265.92 54.43L265.86 54.37Q263.07 54.24 260.55 54.45L260.56 54.47L260.51 54.42Q259.04 54.48 256.65 54.76L256.69 54.79L256.72 54.82Q253.11 55.49 252.69 58.50L252.66 58.46L252.65 58.46Q252.49 59.28 252.56 60.75L252.66 60.85L252.67 60.86Q252.80 61.76 253.85 66.10L253.84 66.09L253.97 66.22Q255.45 72.18 258.67 74.63L258.51 74.47L258.69 74.65L258.77 74.73Q253.64 77.09 252.66 86.62L252.74 86.69L252.63 86.59Q252.31 90.68 252.31 92.36L252.35 92.39L252.31 92.36Q252.42 95.62 254.59 97.30L254.67 97.38L254.51 97.21Q254.80 97.44 255.29 97.79L255.31 97.80L255.40 97.90Q257.15 101.96 270.24 102.38ZM269.70 82.08L269.63 82.02L269.74 82.13Q271.30 81.87 272.91 82.71L272.89 82.68L272.88 82.68Q273.55 84.47 273.48 85.45L273.49 85.45L273.66 85.63Q273.63 86.09 273.63 86.65L273.72 86.74L273.63 86.65Q273.56 90.92 269.36 92.46L269.42 92.52L269.51 92.61Q267.89 93.02 266.42 92.81L266.58 92.97L266.46 92.85Q264.50 93.14 262.40 92.30L262.38 92.27L262.46 92.35Q261.83 91.03 261.97 89.21L262.10 89.33L262.05 89.28Q262.30 86.31 264.50 84.07L264.57 84.14L264.57 84.14Q266.73 81.85 269.67 82.06ZM270.01 64.54L270.00 64.54L270.00 64.54Q271.58 64.43 272.56 64.71L272.51 64.67L272.45 66.07L272.55 66.17Q272.43 68.64 270.75 70.50L270.76 70.51L270.88 70.63Q269.18 72.46 266.66 72.11L266.55 72.01L266.58 72.04Q264.85 72.13 264.08 71.71L264.14 71.77L264.10 71.73Q263.90 71.11 263.69 69.85L263.85 70.00L263.85 70.01Q263.33 67.39 265.57 65.84L265.47 65.75L265.61 65.89Q267.52 64.58 270.12 64.65Z"/><path d="M7 124 C175 24,154 20,329 83" stroke="#be3ee9" fill="none"/><path d="M20 14 C160 13,185 13,331 27" stroke="#6bd548" fill="none"/><path d="M17 61 C156 99,151 32,329 79" stroke="#b2ee76" fill="none"/><path d="M7 66 C154 63,175 44,323 33" stroke="#7e7eeb" fill="none"/><path fill="#dd73dd" d="M62.72 60.10L62.79 60.17L59.80 60.26L59.96 60.42Q55.71 60.51 55.29 64.22L55.41 64.35L55.32 64.25Q55.24 65.64 55.31 67.46L55.33 67.48L55.24 67.39Q55.40 71.06 57.71 73.51L57.72 73.51L57.71 73.51Q60.04 75.98 63.54 75.70L63.54 75.69L63.50 75.65Q67.31 75.41 68.71 73.73L68.64 73.65L68.59 73.60Q70.64 72.01 71.13 67.88L71.01 67.76L71.05 67.80Q71.57 63.69 69.26 62.15L69.17 62.07L69.30 62.20Q67.55 60.59 62.65 60.03ZM73.90 77.16L73.93 77.19L71.47 81.31L71.56 81.40Q66.53 90.16 59.59 97.65L59.63 97.69L59.69 97.75Q56.57 97.92 51.60 99.39L51.65 99.44L51.68 99.47Q61.37 87.81 67.19 78.99L67.31 79.12L67.31 79.11Q65.29 80.17 62.28 80.31L62.42 80.46L62.24 80.28Q56.85 80.69 54.05 77.05L54.07 77.08L53.92 76.93Q51.81 74.12 49.78 65.72L49.76 65.69L49.73 65.66Q49.63 64.73 49.35 63.01L49.53 63.19L49.48 63.14Q49.19 61.41 49.19 60.57L49.15 60.53L49.23 60.62Q49.23 57.32 51.19 56.20L51.05 56.06L51.10 56.12Q53.45 54.82 56.88 54.82L56.79 54.73L56.87 54.81Q62.72 54.78 62.72 54.78L62.62 54.67L62.69 54.75Q66.62 54.76 68.93 55.11L69.04 55.21L69.06 55.24Q72.81 55.55 74.49 56.46L74.58 56.56L74.63 56.60Q77.06 57.91 77.41 61.13L77.55 61.27L77.54 61.26Q77.36 61.50 77.01 66.40L77.02 66.42L77.04 66.43Q76.34 70.36 75.92 71.90L75.97 71.95L76.08 72.06Q75.34 74.61 73.94 77.20ZM77.47 81.64L77.45 81.62L77.29 81.46Q79.27 77.56 80.25 69.64L80.14 69.53L80.10 69.49Q80.75 65.59 80.68 63.98L80.59 63.90L80.66 63.97Q80.49 60.43 78.32 58.75L78.32 58.76L77.77 58.55L77.84 58.62Q77.40 57.27 75.72 56.08L75.58 55.95L75.64 56.00Q71.41 54.15 62.59 53.87L62.54 53.83L62.58 53.86Q60.90 53.94 56.42 53.94L56.38 53.90L56.30 53.82Q53.18 53.92 50.45 55.18L50.33 55.06L50.43 55.16Q48.40 56.70 48.54 60.06L48.44 59.96L48.43 59.95Q48.85 61.70 49.20 65.42L49.21 65.42L49.09 65.30Q50.23 70.16 50.72 71.70L50.73 71.70L50.81 71.79Q51.90 75.26 53.65 77.64L53.54 77.53L53.65 77.64Q54.16 78.28 54.86 78.98L54.77 78.90L54.78 78.91Q55.16 79.64 56.35 81.32L56.52 81.49L56.50 81.47Q59.18 83.94 62.75 84.29L62.79 84.33L62.73 84.27Q59.24 89.17 56.36 92.67L56.44 92.75L49.65 100.66L49.79 100.80Q53.96 99.44 56.97 98.81L56.88 98.72L56.93 98.78Q55.37 100.22 52.50 103.38L52.64 103.51L52.63 103.50Q58.23 101.75 63.97 101.68L64.03 101.74L63.91 101.62Q68.37 97.04 76.35 83.74L76.22 83.61L76.16 83.69L76.24 83.77Q76.69 82.40 77.32 81.49ZM66.31 64.53L66.24 64.45L66.25 64.47Q67.43 64.31 68.27 64.52L68.27 64.53L68.20 64.46Q69.39 64.67 70.09 64.88L70.26 65.04L70.25 65.04Q70.41 65.69 70.55 66.46L70.59 66.50L70.43 66.34Q70.70 67.23 70.48 67.93L70.42 67.87L70.42 67.87Q70.28 70.95 68.11 72.98L68.14 73.01L68.29 73.16Q66.37 74.88 63.36 74.81L63.41 74.86L63.44 74.89Q62.63 74.85 59.83 74.29L59.85 74.32L59.97 74.43Q59.42 72.69 59.42 71.36L59.52 71.47L59.39 71.33Q59.27 70.87 59.27 70.45L59.33 70.50L59.40 70.58Q59.34 66.45 63.54 64.98L63.54 64.98L63.47 64.91Q64.78 64.54 66.33 64.54Z"/><path d="M20 43 C184 103,161 54,325 103" stroke="#56e079" fill="none"/><path d="M5 25 C171 39,163 59,323 39" stroke="#e2829a" fill="none"/><path d="M18 80 C174 48,155 50,336 86" stroke="#8cd8f2" fill="none"/><path d="M20 40 C181 89,179 113,323 116" stroke="#c5e665" fill="none"/><path d="M8 2 C167 5,165 112,332 109" stroke="#7655d7" fill="none"/><path d="M9 77 C165 26,192 103,334 10" stroke="#49c0e8" fill="none"/><path d="M1 106 C178 34,160 42,336 29" stroke="#e868e8" fill="none"/><path d="M20 19 C190 35,187 7,324 58" stroke="#6363d8" fill="none"/><path d="M11 124 C161 126,167 98,340 17" stroke="#3fbae3" fill="none"/><path d="M20 87 C170 98,164 67,339 57" stroke="#a8e56a" fill="none"/><path d="M6 93 C180 61,175 34,330 133" stroke="#eeee76" fill="none"/><path d="M12 85 C167 98,174 1,322 127" stroke="#bee83f" fill="none"/><path d="M10 129 C172 90,170 21,335 135" stroke="#e39b53" fill="none"/><path d="M10 13 C186 89,165 20,321 19" stroke="#79c7e0" fill="none"/><path d="M17 14 C180 86,180 22,336 92" stroke="#be6cda" fill="none"/><path d="M10 78 C189 28,184 106,329 47" stroke="#59e259" fill="none"/><path d="M2 100 C173 132,177 16,336 68" stroke="#cae47a" fill="none"/><path d="M20 57 C189 30,171 52,322 13" stroke="#eb8ed3" fill="none"/><path d="M5 83 C160 138,188 116,325 76" stroke="#e6c255" fill="none"/><path d="M11 95 C168 25,168 131,340 65" stroke="#e54c99" fill="none"/><path d="M8 42 C166 35,186 101,335 63" stroke="#55e655" fill="none"/><path d="M20 73 C169 92,178 26,341 41" stroke="#5fe75f" fill="none"/><path fill="#597eec" d="M213.25 93.77L213.26 93.79L213.15 93.67Q213.85 95.63 214.83 99.35L214.67 99.20L214.79 99.31Q206.94 96.79 198.47 97.28L198.41 97.22L198.46 97.26Q190.14 97.83 182.78 101.47L182.68 101.37L182.77 101.46Q183.12 100.13 183.19 100.27L183.18 100.26L183.18 100.26Q190.09 93.03 197.31 84.91L197.31 84.91L197.39 84.99Q205.36 75.67 207.53 67.05L207.54 67.07L207.57 67.10Q208.42 63.88 206.07 61.71L206.14 61.77L206.05 61.69Q203.70 59.51 200.41 59.79L200.42 59.80L200.54 59.92Q199.89 59.84 199.26 59.84L199.29 59.87L199.25 59.82Q196.47 59.85 194.16 61.53L194.16 61.52L194.13 61.50Q191.67 63.93 192.09 68.83L192.13 68.88L192.16 68.91Q188.84 68.25 186.60 67.41L186.59 67.40L186.65 67.46Q186.28 64.84 186.14 62.18L186.12 62.17L186.06 62.10Q185.90 59.08 187.02 56.97L187.08 57.04L187.16 57.12Q190.46 54.60 196.62 54.60L196.62 54.61L199.78 54.55L199.85 54.61Q203.89 54.52 205.64 54.73L205.72 54.81L205.64 54.73Q213.70 55.58 214.19 60.06L214.19 60.06L214.27 60.14Q214.39 61.17 214.25 62.64L214.20 62.59L214.14 62.53Q214.05 63.71 213.77 64.97L213.78 64.97L213.93 65.12Q210.74 79.86 196.81 92.46L196.87 92.53L196.99 92.64Q199.40 92.18 201.92 92.18L202.01 92.27L201.93 92.19Q207.99 92.30 213.24 93.77ZM212.07 55.35L212.25 55.52L212.21 55.49Q209.14 54.17 205.99 54.03L206.06 54.10L199.73 53.73L199.67 53.66Q191.63 53.32 187.57 55.35L187.44 55.23L187.57 55.36Q185.49 57.76 185.49 61.54L185.58 61.63L185.58 61.63Q185.57 62.87 186.13 68.06L186.09 68.02L186.25 68.18Q187.07 68.44 189.24 69.00L189.26 69.02L189.28 70.93L189.36 71.01Q189.27 71.83 189.41 72.81L189.44 72.84L189.34 72.74Q191.71 73.01 196.26 73.43L196.31 73.47L196.29 73.46Q196.25 72.79 196.25 72.16L196.14 72.04L196.12 72.03Q196.14 68.69 198.38 66.20L198.42 66.25L198.51 66.33Q200.77 63.86 204.06 64.07L203.93 63.95L203.95 63.96Q205.38 64.06 206.78 64.34L206.84 64.40L206.72 64.28Q206.93 64.98 207.07 65.75L207.10 65.78L207.09 65.77Q207.25 66.63 207.11 67.26L207.09 67.24L207.03 67.19Q204.70 75.91 196.57 84.80L196.62 84.85L196.59 84.82Q192.72 89.00 182.70 100.13L182.60 100.03L182.67 100.10Q182.38 101.70 181.75 102.75L181.76 102.76L181.71 102.71Q184.63 101.08 187.43 100.10L187.35 100.01L187.44 100.10Q186.17 101.22 184.42 103.95L184.26 103.79L184.29 103.82Q184.10 104.47 183.89 105.10L183.90 105.11L183.96 105.17Q192.91 101.38 203.00 101.73L202.94 101.67L203.08 101.82Q213.38 101.96 221.78 106.31L221.87 106.39L219.94 102.36L220.01 102.43Q218.83 99.99 218.34 98.52L218.34 98.52L218.27 98.45Q217.03 97.77 214.79 97.00L214.72 96.93L214.74 96.95Q214.44 95.60 213.74 93.08L213.84 93.18L213.82 93.16Q209.71 92.05 205.50 91.70L205.47 91.67L205.49 91.69Q214.21 83.39 217.01 68.20L216.89 68.08L217.23 62.75L217.32 62.84Q217.08 59.45 214.84 58.19L214.90 58.24L214.90 58.32L214.84 58.26Q214.73 58.08 214.59 58.08L214.70 58.19L214.57 58.06Q214.12 56.49 212.09 55.37Z"/><path d="M9 101 C171 58,187 35,338 126" stroke="#dada47" fill="none"/><path d="M18 46 C187 22,166 87,335 43" stroke="#be55e1" fill="none"/></svg>