<svg xmlns="http://www.w3.org/2000/svg" width="342" height="140" viewBox="0,0,342,140"><path d="M3 111 C156 67,172 96,326 59" stroke="#60e6e6" fill="none"/><path d="M19 33 C183 117,163 82,341 15" stroke="#9be056" fill="none"/><path d="M17 126 C175 30,181 123,329 21" stroke="#afea75" fill="none"/><path d="M8 136 C167 18,150 41,338 22" stroke="#e68de6" fill="none"/><path d="M16 114 C154 80,154 89,327 124" stroke="#e07956" fill="none"/><path d="M8 36 C164 60,156 118,322 59" stroke="#7f61db" fill="none"/><path d="M13 96 C187 133,152 138,331 105" stroke="#bf52e4" fill="none"/><path d="M8 62 C192 27,160 38,323 45" stroke="#dc4bdc" fill="none"/><path d="M11 22 C183 95,177 20,340 9" stroke="#e0e065" fill="none"/><path d="M2 103 C182 20,155 112,323 58" stroke="#a2e98a" fill="none"/><path d="M13 83 C167 104,171 137,323 57" stroke="#9ee985" fill="none"/><path fill="#a288f1" d="M114.75 73.26L114.65 73.16L114.58 73.09Q115.93 73.26 117.99 73.04L117.92 72.97L118.00 73.05Q117.77 73.82 117.77 74.77L117.85 74.85L117.78 76.62L117.80 76.64Q116.57 76.63 115.34 76.74L115.36 76.76L115.37 76.78Q114.18 76.87 112.95 76.81L112.90 76.75L112.92 76.78Q108.68 85.75 103.66 92.50L103.80 92.63L103.78 92.62Q100.17 93.62 98.27 94.52L98.25 94.50L98.19 94.44Q104.19 86.05 108.65 76.85L108.66 76.87L104.71 76.76L104.89 76.94Q104.73 74.83 104.57 72.88L104.63 72.95L104.59 72.91Q107.41 73.16 110.42 73.16L110.47 73.22L113.17 67.72L113.26 67.81Q114.58 64.90 116.37 62.56L116.40 62.58L116.50 62.69Q114.24 62.93 111.90 62.93L111.80 62.84L111.79 62.82Q102.90 62.86 97.38 59.62L97.48 59.72L96.49 57.18L96.48 57.16Q95.92 55.87 95.36 54.59L95.47 54.71L95.34 54.57Q101.80 58.52 110.16 58.86L110.01 58.71L110.16 58.85Q117.63 59.13 125.15 56.23L125.12 56.20L125.21 56.29Q124.84 56.81 124.12 58.10L124.07 58.05L124.24 58.22Q118.80 65.04 114.61 73.12ZM126.45 60.10L126.47 60.12L127.88 57.12L127.89 57.13Q126.52 57.88 124.07 58.94L124.14 59.01L124.37 58.52L124.45 58.60Q124.45 58.20 124.61 58.03L124.68 58.10L124.64 58.06Q125.31 57.17 126.37 55.22L126.29 55.14L126.33 55.18Q118.51 58.51 110.09 58.17L110.20 58.28L110.14 58.22Q101.31 57.81 94.35 53.46L94.38 53.50L94.32 53.44Q95.76 56.10 96.98 60.00L97.13 60.15L97.12 60.14Q98.77 61.12 99.94 61.57L99.82 61.45L99.79 61.42Q100.00 61.90 100.67 64.64L100.68 64.65L100.73 64.70Q105.33 66.51 113.41 66.28L113.47 66.35L113.35 66.23Q113.10 67.25 110.20 72.77L110.14 72.72L110.20 72.77Q107.09 72.68 104.19 72.40L104.17 72.38L104.17 72.38Q104.29 73.61 104.29 74.89L104.24 74.85L104.21 77.32L106.69 77.35L106.68 79.40L106.71 79.43Q101.10 90.38 97.03 95.62L96.85 95.44L96.87 95.45Q99.38 94.52 101.78 93.79L101.76 93.76L101.78 93.79Q100.67 95.02 98.67 97.53L98.77 97.63L98.65 97.52Q103.24 95.86 106.80 95.52L106.78 95.50L106.85 95.57Q111.14 90.05 115.71 80.13L115.69 80.10L120.76 80.44L120.71 80.39Q120.61 79.06 120.61 77.72L120.58 77.69L120.57 75.06L120.59 75.08Q120.32 75.20 119.51 75.26L119.44 75.19L119.42 75.17Q118.62 75.23 118.23 75.23L118.21 75.21L118.20 75.20Q118.30 75.13 118.35 74.91L118.33 74.88L118.36 74.53L118.20 74.37Q121.97 66.93 126.48 60.13Z"/><path d="M5 61 C160 7,165 3,334 13" stroke="#df579b" fill="none"/><path d="M16 52 C191 129,159 12,323 22" stroke="#e689b7" fill="none"/><path d="M3 32 C177 80,185 39,327 123" stroke="#ed90bf" fill="none"/><path d="M3 113 C164 135,189 46,326 119" stroke="#bde150" fill="none"/><path d="M13 50 C188 97,171 121,331 38" stroke="#eeee85" fill="none"/><path d="M18 91 C183 19,166 110,321 51" stroke="#4ab8dd" fill="none"/><path d="M10 30 C190 2,190 47,323 60" stroke="#83ebeb" fill="none"/><path d="M17 52 C172 79,163 104,330 32" stroke="#62e8c7" fill="none"/><path fill="#df7590" d="M52.43 62.08L52.48 62.14L50.14 62.24L50.30 62.41Q46.86 62.42 46.52 65.37L46.52 65.37L46.50 65.35Q46.44 66.46 46.49 67.91L46.62 68.03L46.49 67.91Q46.52 70.73 48.36 72.68L48.48 72.79L48.41 72.73Q50.24 74.67 53.03 74.45L52.97 74.38L53.13 74.54Q56.03 74.22 57.15 72.88L57.19 72.92L57.19 72.92Q58.66 71.50 59.05 68.21L59.09 68.24L59.12 68.27Q59.59 65.07 57.75 63.84L57.76 63.84L57.67 63.76Q56.35 62.54 52.44 62.10ZM61.40 75.74L61.35 75.68L59.42 79.00L59.54 79.12Q55.56 86.12 50.04 92.08L49.91 91.95L49.99 92.03Q47.60 92.27 43.65 93.44L43.60 93.39L43.60 93.39Q51.37 84.15 55.99 77.13L56.05 77.19L56.03 77.17Q54.47 78.06 52.07 78.17L52.05 78.15L52.12 78.22Q47.74 78.47 45.51 75.57L45.54 75.60L45.61 75.67Q43.64 73.14 42.03 66.45L42.07 66.49L42.09 66.52Q42.02 65.78 41.80 64.41L41.84 64.45L41.98 64.60Q41.57 63.05 41.57 62.38L41.73 62.53L41.66 62.46Q41.61 59.80 43.17 58.90L43.21 58.94L43.18 58.91Q45.08 57.92 47.81 57.92L47.69 57.79L47.73 57.83Q52.39 57.81 52.39 57.81L52.52 57.94L52.52 57.94Q55.63 57.93 57.47 58.21L57.36 58.09L57.49 58.23Q60.65 58.66 61.99 59.38L61.97 59.36L61.85 59.24Q63.88 60.38 64.16 62.95L64.21 63.00L64.15 62.94Q64.20 63.32 63.92 67.22L63.87 67.17L63.98 67.28Q63.42 70.40 63.08 71.62L62.94 71.48L62.94 71.47Q62.55 73.71 61.44 75.77ZM64.18 79.24L64.06 79.12L64.17 79.23Q65.61 75.99 66.39 69.69L66.37 69.67L66.45 69.75Q66.76 66.44 66.71 65.16L66.61 65.06L66.79 65.24Q66.71 62.48 64.98 61.14L64.84 61.00L64.52 60.96L64.52 60.97Q64.17 59.89 62.83 58.94L62.65 58.76L62.75 58.85Q59.38 57.39 52.36 57.16L52.47 57.27L52.45 57.26Q50.93 57.13 47.36 57.13L47.37 57.14L47.39 57.15Q44.75 57.08 42.58 58.08L42.68 58.19L42.60 58.11Q41.09 59.44 41.20 62.12L41.09 62.00L41.19 62.10Q41.37 63.34 41.65 66.30L41.76 66.41L41.74 66.39Q42.65 70.26 43.04 71.48L42.95 71.39L42.87 71.31Q43.81 74.15 45.20 76.04L45.19 76.03L45.09 75.93Q45.67 76.61 46.22 77.17L46.05 77.00L46.19 77.14Q46.54 77.76 47.48 79.10L47.50 79.11L47.38 79.00Q49.65 81.10 52.50 81.38L52.48 81.37L52.50 81.39Q49.77 85.35 47.49 88.14L47.49 88.14L42.12 94.48L42.07 94.42Q45.50 93.45 47.89 92.95L47.80 92.85L47.85 92.90Q46.70 94.15 44.41 96.66L44.38 96.63L44.36 96.61Q48.85 95.24 53.42 95.18L53.50 95.26L53.59 95.35Q56.93 91.51 63.29 80.92L63.26 80.88L63.30 81.04L63.18 80.91Q63.72 80.01 64.23 79.29ZM55.35 65.68L55.35 65.67L55.28 65.60Q56.22 65.48 56.89 65.65L56.98 65.74L56.89 65.65Q57.90 65.89 58.46 66.05L58.31 65.90L58.37 65.97Q58.50 66.48 58.61 67.09L58.70 67.18L58.77 67.25Q58.75 67.74 58.58 68.29L58.62 68.33L58.70 68.41Q58.52 70.79 56.79 72.41L56.83 72.45L56.92 72.54Q55.44 73.95 53.04 73.90L53.00 73.86L53.12 73.98Q52.39 73.86 50.16 73.42L50.13 73.38L50.22 73.47Q49.84 72.15 49.84 71.09L49.95 71.20L49.94 71.19Q49.77 70.74 49.77 70.41L49.75 70.38L49.73 70.37Q49.80 67.21 53.15 66.04L53.10 65.99L53.06 65.94Q54.05 65.60 55.28 65.60Z"/><path d="M7 15 C157 24,164 57,332 100" stroke="#90eda7" fill="none"/><path d="M14 129 C189 122,165 74,333 135" stroke="#95d3e8" fill="none"/><path d="M15 118 C161 30,182 82,336 12" stroke="#e06aa5" fill="none"/><path fill="#8be26e" d="M273.28 81.61L273.37 81.69L273.37 81.69Q277.85 81.10 282.54 81.27L282.49 81.23L282.53 81.27Q282.51 77.56 282.51 74.05L282.38 73.93L282.42 73.96Q282.41 70.33 282.69 66.59L282.78 66.68L282.82 66.73Q280.98 69.18 273.35 81.67ZM287.89 92.48L287.75 92.34L287.88 92.47Q285.30 91.89 282.68 91.78L282.76 91.86L282.70 91.80Q282.50 88.43 282.33 84.80L282.20 84.67L282.31 84.78Q274.60 84.59 267.68 86.65L267.57 86.54L267.68 86.65Q267.81 85.89 268.09 84.44L268.00 84.35L267.95 84.30Q270.70 79.80 275.94 70.60L275.91 70.57L275.83 70.49Q280.19 63.48 285.21 57.80L285.18 57.77L285.05 57.64Q286.49 57.53 288.95 57.14L288.85 57.03L288.93 57.12Q286.05 66.45 286.05 76.76L286.19 76.90L286.08 76.79Q286.15 79.03 286.26 81.20L286.25 81.19L288.17 81.38L288.02 81.24Q289.00 81.38 289.89 81.54L289.88 81.54L289.82 81.48Q290.00 82.93 290.39 85.78L290.50 85.90L290.53 85.92Q288.69 85.47 286.51 85.19L286.47 85.15L286.50 85.18Q286.82 88.12 287.82 92.41ZM290.24 80.95L290.35 81.06L290.19 80.90Q290.06 80.94 289.79 80.94L289.73 80.88L289.08 80.79L289.20 80.91Q288.99 78.69 288.99 76.63L288.91 76.55L289.01 76.65Q289.06 67.33 292.07 58.53L291.97 58.43L291.94 58.40Q290.97 58.94 288.85 59.49L288.85 59.49L288.81 59.45Q289.01 58.20 289.68 56.14L289.78 56.24L289.72 56.18Q287.89 56.81 284.88 57.14L284.86 57.12L284.95 57.20Q279.14 63.49 271.50 77.21L271.53 77.24L274.52 71.80L274.51 71.80Q273.95 73.36 273.56 74.20L273.51 74.14L266.96 87.33L266.98 87.35Q267.89 87.09 269.57 86.53L269.65 86.61L269.48 87.00L269.36 86.88Q269.35 88.05 268.91 89.89L268.74 89.72L268.78 89.76Q274.88 87.88 281.96 88.16L281.82 88.02L281.97 88.18Q282.03 89.57 282.31 92.47L282.29 92.45L282.20 92.36Q283.85 92.45 285.41 92.62L285.39 92.60L285.36 92.57Q285.62 93.61 286.01 95.62L285.89 95.49L286.08 95.69Q288.69 95.84 293.09 97.18L293.12 97.20L293.22 97.30Q291.80 94.21 290.46 89.42L290.47 89.43L292.41 89.91L292.55 90.06Q293.47 90.31 294.47 90.81L294.42 90.76L294.48 90.82Q293.34 87.17 293.12 84.72L293.18 84.78L293.21 84.81Q292.31 84.52 290.64 84.19L290.51 84.07L290.60 84.15Q290.31 82.30 290.31 81.02ZM278.53 80.72L278.50 80.69L278.63 80.83Q279.72 78.90 282.00 75.16L282.05 75.21L281.95 75.11Q282.06 76.62 282.01 78.01L281.88 77.89L281.84 77.85Q282.00 79.46 282.06 80.85L282.06 80.85L281.91 80.70Q281.11 80.68 280.27 80.68L280.27 80.68L280.20 80.61Q279.41 80.71 278.52 80.71Z"/><path d="M9 19 C185 118,152 27,335 34" stroke="#76eed0" fill="none"/><path fill="#e66969" d="M161.81 92.47L161.82 92.48L161.79 92.45Q155.81 92.77 154.36 89.37L154.44 89.44L154.39 89.40Q155.48 87.98 157.76 85.36L157.78 85.37L157.90 85.50Q158.53 88.35 162.93 88.52L163.08 88.66L163.06 88.64Q167.99 88.73 170.39 86.78L170.31 86.70L170.43 86.82Q172.40 84.38 172.29 80.43L172.32 80.46L172.20 80.34Q172.10 73.05 165.08 73.39L164.96 73.27L164.97 73.27Q160.86 73.51 158.29 75.35L158.42 75.48L157.77 75.05L157.64 75.04L157.67 75.06Q158.13 70.39 157.96 66.38L157.97 66.39L157.81 66.23Q157.72 62.46 157.22 57.61L157.17 57.56L157.27 57.66Q162.62 59.05 168.19 58.88L168.06 58.75L168.06 58.75Q173.67 58.68 178.91 56.84L178.95 56.88L178.12 59.12L178.19 59.18Q177.71 60.26 177.43 61.49L177.42 61.47L177.48 61.54Q172.87 63.00 167.18 63.00L167.22 63.04L167.23 63.05Q165.00 62.93 162.82 62.71L162.82 62.70L162.82 62.70Q162.74 63.74 162.24 70.26L162.26 70.28L162.17 70.19Q163.51 69.64 166.52 69.42L166.46 69.35L166.50 69.40Q171.97 69.74 174.09 72.20L174.16 72.26L174.02 72.13Q176.10 74.43 176.49 80.06L176.55 80.12L176.41 79.98Q176.84 86.15 175.05 89.10L175.03 89.08L175.14 89.19Q172.04 91.83 167.19 92.16L167.29 92.27L167.29 92.26Q165.76 92.30 161.86 92.52ZM170.68 95.82L170.75 95.89L170.76 95.90Q175.71 95.95 178.50 94.33L178.60 94.43L178.46 94.30Q180.06 92.21 180.06 89.15L179.99 89.08L180.02 89.10Q179.93 84.50 178.54 78.48L178.58 78.52L178.55 78.49Q178.08 76.02 176.30 73.96L176.19 73.85L176.24 73.95L176.01 73.61L175.39 73.21L175.48 73.30Q175.00 72.21 174.05 71.21L174.06 71.22L174.07 71.29L174.15 71.37Q171.87 68.86 166.46 68.86L166.42 68.82L166.13 68.92L166.07 68.85Q166.14 67.98 166.42 66.36L166.44 66.38L166.39 66.34Q173.69 66.50 179.60 64.10L179.61 64.11L179.61 64.12Q180.34 62.16 181.73 58.04L181.59 57.89L178.50 59.27L178.64 59.41Q179.17 57.71 179.90 56.04L179.95 56.09L179.85 55.99Q174.27 58.16 168.25 58.28L168.28 58.30L168.20 58.22Q162.16 58.37 156.36 56.75L156.41 56.80L156.47 56.86Q157.41 63.26 157.41 69.73L157.39 69.71L157.47 69.79Q157.49 72.59 157.32 75.38L157.24 75.30L157.27 75.33Q157.71 75.66 158.55 76.11L158.40 75.96L158.41 75.97Q158.91 75.64 159.86 75.13L159.87 75.14L159.83 75.11Q159.95 76.40 159.62 78.63L159.61 78.62L159.56 78.56Q160.18 78.86 160.80 79.19L160.80 79.20L160.76 79.16Q164.76 76.52 167.49 76.52L167.46 76.49L167.46 76.49Q169.49 76.57 171.22 77.52L171.13 77.43L171.19 77.49Q171.64 78.95 171.70 80.34L171.83 80.47L171.79 80.43Q171.89 84.21 170.38 85.82L170.39 85.83L170.46 85.90Q168.41 87.64 165.12 87.98L165.08 87.94L165.13 87.99Q163.74 88.10 162.73 87.99L162.70 87.95L162.69 87.94Q161.50 87.81 160.38 87.31L160.40 87.33L160.29 86.93L160.22 87.20L160.07 87.05Q158.93 86.36 158.15 84.41L158.19 84.44L158.26 84.51Q156.27 86.54 153.82 89.67L153.73 89.57L153.70 89.55Q154.22 90.57 155.45 91.96L155.50 92.01L155.51 92.02Q157.04 94.67 161.17 95.39L161.15 95.38L161.17 95.40Q162.80 95.63 170.66 95.80Z"/><path d="M18 22 C156 41,191 77,338 26" stroke="#ade377" fill="none"/><path d="M17 6 C184 58,172 26,340 137" stroke="#e471c7" fill="none"/><path d="M17 52 C160 128,178 32,337 70" stroke="#3add63" fill="none"/><path d="M6 120 C179 68,154 103,336 102" stroke="#79e1c7" fill="none"/><path d="M11 108 C190 93,154 123,332 3" stroke="#d87554" fill="none"/><path d="M9 61 C169 5,183 91,331 119" stroke="#8e4ad3" fill="none"/><path d="M5 60 C173 91,179 118,324 76" stroke="#6ae0e0" fill="none"/><path d="M4 73 C183 113,173 128,331 11" stroke="#6ddf47" fill="none"/><path d="M13 23 C156 99,187 33,327 129" stroke="#e8cb71" fill="none"/><path d="M8 35 C175 100,171 17,324 61" stroke="#c556eb" fill="none"/><path d="M7 33 C157 103,173 139,336 5" stroke="#ec5fec" fill="none"/><path d="M2 48 C180 100,161 76,323 5" stroke="#eaea89" fill="none"/><path d="M13 40 C171 83,172 56,325 127" stroke="#48e9e9" fill="none"/><path d="M18 58 C169 4,175 128,321 40" stroke="#7690df" fill="none"/><path d="M18 4 C151 121,176 86,327 106" stroke="#4545dd" fill="none"/><path fill="#849eea" d="M218.47 87.36L218.65 87.54L218.54 87.43Q220.21 88.77 222.27 88.54L222.36 88.63L222.33 88.60Q226.56 88.82 227.51 83.91L227.59 83.99L227.47 83.87Q228.45 79.33 228.45 74.37L228.41 74.34L228.43 70.57L228.51 70.65Q228.34 68.64 227.84 66.80L227.90 66.86L227.87 66.83Q226.23 70.38 223.34 77.34L223.22 77.23L223.30 77.31Q220.35 84.23 218.57 87.46ZM225.85 63.24L225.82 63.21L225.97 63.37Q224.29 62.19 222.34 62.19L222.30 62.15L222.24 62.09Q220.02 61.82 218.41 63.16L218.42 63.18L218.51 63.27Q216.85 64.56 216.57 66.74L216.70 66.86L216.64 66.80Q216.19 68.86 216.13 71.03L216.06 70.97L216.02 70.93Q215.98 70.88 215.98 75.06L216.03 75.11L216.11 75.19Q216.01 78.55 216.68 83.84L216.72 83.89L216.64 83.80Q219.43 76.84 225.84 63.24ZM228.26 90.91L228.19 90.83L228.30 90.95Q225.65 92.20 222.25 92.20L222.25 92.20L219.81 92.15L219.78 92.13Q215.06 92.15 213.39 89.64L213.48 89.73L213.46 89.71Q212.32 86.57 212.21 82.27L212.24 82.31L212.21 82.27Q212.14 79.69 212.03 74.62L211.93 74.53L211.90 74.49Q211.95 72.82 211.73 68.36L211.71 68.34L211.68 68.31Q211.49 64.89 211.94 61.99L211.99 62.04L212.00 62.05Q212.81 57.84 219.17 57.51L219.11 57.45L219.07 57.41Q220.14 57.31 222.09 57.36L222.10 57.38L222.12 57.40Q230.45 57.65 232.01 62.72L232.14 62.85L232.12 62.83Q232.93 65.53 232.87 68.26L232.94 68.33L232.79 68.18Q232.83 75.64 232.72 77.42L232.63 77.33L232.64 77.34Q232.28 82.83 231.84 84.73L231.93 84.83L231.88 84.78Q230.90 89.31 228.11 90.76ZM235.46 90.52L235.46 90.53L235.40 90.47Q235.77 86.43 235.71 83.81L235.68 83.78L235.54 77.01L235.61 77.08Q235.45 72.62 234.67 64.54L234.74 64.61L234.78 64.66Q233.92 61.89 232.02 60.78L232.09 60.84L232.09 60.85Q229.85 57.16 222.27 56.93L222.21 56.87L222.16 56.83Q220.90 56.79 218.95 56.85L218.99 56.89L218.95 56.85Q212.40 57.04 211.67 61.61L211.62 61.56L211.59 61.53Q211.02 64.92 211.19 67.99L211.24 68.03L211.25 68.05Q211.76 74.46 211.70 79.37L211.55 79.21L211.69 79.35Q211.51 84.63 211.67 86.14L211.66 86.12L211.77 86.24Q212.35 90.77 214.58 91.94L214.50 91.87L214.62 91.98Q216.76 95.19 222.62 95.58L222.53 95.50L222.64 95.60Q227.75 95.80 228.70 95.75L228.70 95.75L228.66 95.72Q232.91 95.56 234.59 93.22L234.64 93.28L234.64 93.27Q235.27 92.18 235.38 90.45ZM222.83 87.99L222.77 87.93L222.83 87.98Q223.77 85.81 225.34 81.85L225.51 82.03L228.02 75.84L228.00 75.82Q227.91 78.18 227.35 83.09L227.28 83.01L227.30 83.04Q226.44 87.36 222.93 88.08ZM219.90 69.95L219.89 69.94L220.02 70.07Q220.63 67.40 221.64 66.56L221.60 66.52L221.70 66.62Q222.23 65.87 224.12 65.59L224.18 65.65L224.28 65.75Q221.71 71.03 218.98 77.83L218.98 77.84L218.95 77.81Q218.89 73.79 219.90 69.95Z"/><path d="M15 9 C154 135,163 64,323 69" stroke="#6f6fdc" fill="none"/><path d="M20 58 C153 70,160 78,330 60" stroke="#9847ea" fill="none"/></svg>