<svg xmlns="http://www.w3.org/2000/svg" width="342" height="140" viewBox="0,0,342,140"><path d="M20 102 C181 108,163 2,331 63" stroke="#77b2ed" fill="none"/><path d="M7 8 C173 83,164 37,332 38" stroke="#a1e38b" fill="none"/><path d="M13 123 C159 68,155 34,341 135" stroke="#5c5cda" fill="none"/><path d="M20 74 C168 72,183 128,335 11" stroke="#77e353" fill="none"/><path d="M1 18 C184 82,184 113,336 137" stroke="#e8b27c" fill="none"/><path fill="#df8161" d="M62.78 60.11L62.72 60.05L59.78 60.23L59.75 60.19Q55.64 60.46 55.21 64.21L55.28 64.28L55.12 64.12Q55.08 65.56 55.15 67.40L55.12 67.37L55.15 67.40Q55.24 71.03 57.57 73.50L57.50 73.43L57.63 73.55Q59.80 75.87 63.33 75.58L63.34 75.59L63.39 75.64Q67.32 75.47 68.73 73.77L68.71 73.75L68.59 73.63Q70.70 72.06 71.19 67.89L71.07 67.77L71.15 67.85Q71.70 63.73 69.37 62.18L69.29 62.10L69.28 62.09Q67.69 60.64 62.74 60.08ZM73.91 77.19L74.00 77.27L71.52 81.43L71.53 81.44Q66.56 90.40 59.56 97.97L59.47 97.88L59.47 97.88Q56.54 98.27 51.52 99.75L51.42 99.66L51.43 99.67Q61.36 88.04 67.23 79.13L67.22 79.12L67.22 79.12Q65.25 80.26 62.21 80.40L62.26 80.45L62.31 80.50Q56.63 80.69 53.80 77.01L53.76 76.97L53.93 77.14Q51.67 74.17 49.62 65.69L49.58 65.65L49.54 65.61Q49.64 64.86 49.35 63.13L49.20 62.98L49.24 63.01Q48.98 61.30 48.98 60.45L48.95 60.42L48.88 60.36Q49.03 57.18 51.01 56.05L51.05 56.09L50.90 55.94Q53.15 54.51 56.61 54.51L56.77 54.67L56.69 54.59Q62.54 54.50 62.54 54.50L62.62 54.58L62.63 54.59Q66.64 54.65 68.98 55.00L69.09 55.11L69.03 55.05Q72.85 55.41 74.55 56.33L74.56 56.34L74.61 56.39Q77.21 57.86 77.56 61.11L77.49 61.04L77.51 61.05Q77.53 61.50 77.17 66.45L77.24 66.52L77.24 66.52Q76.57 70.51 76.15 72.07L75.97 71.89L76.06 71.98Q75.42 74.66 74.01 77.28ZM77.53 81.72L77.39 81.58L77.56 81.75Q79.22 77.48 80.21 69.49L80.39 69.66L80.26 69.54Q80.74 65.42 80.67 63.79L80.64 63.76L80.72 63.85Q80.58 60.31 78.39 58.62L78.49 58.72L77.87 58.45L77.93 58.51Q77.42 57.08 75.72 55.87L75.66 55.81L75.65 55.80Q71.42 53.97 62.51 53.69L62.51 53.70L62.65 53.84Q60.82 53.77 56.29 53.77L56.18 53.65L56.35 53.82Q52.98 53.71 50.23 54.98L50.27 55.02L50.35 55.11Q48.22 56.58 48.36 59.97L48.32 59.93L48.31 59.92Q48.69 61.64 49.04 65.39L48.94 65.29L49.08 65.43Q50.16 70.26 50.66 71.82L50.67 71.83L50.68 71.84Q51.60 75.17 53.37 77.57L53.41 77.61L53.48 77.68Q53.92 78.26 54.63 78.97L54.65 78.99L54.57 78.91Q55.12 79.81 56.32 81.51L56.26 81.45L56.40 81.59Q59.15 84.12 62.75 84.48L62.64 84.36L62.78 84.50Q59.17 89.38 56.28 92.92L56.20 92.85L49.56 101.05L49.58 101.07Q53.72 99.62 56.76 98.99L56.85 99.08L56.82 99.05Q55.39 100.66 52.49 103.84L52.41 103.76L52.48 103.83Q58.15 102.08 63.95 102.01L63.99 102.05L63.88 101.94Q68.24 97.17 76.30 83.74L76.33 83.77L76.40 83.98L76.35 83.93Q76.82 82.57 77.46 81.65ZM66.23 64.41L66.33 64.51L66.27 64.45Q67.53 64.37 68.38 64.58L68.23 64.43L68.36 64.56Q69.40 64.61 70.10 64.82L70.22 64.94L70.19 64.90Q70.44 65.65 70.58 66.43L70.45 66.30L70.47 66.31Q70.60 67.08 70.38 67.79L70.42 67.83L70.53 67.94Q70.40 71.05 68.21 73.10L68.27 73.17L68.31 73.21Q66.49 75.07 63.45 75.00L63.48 75.02L63.31 74.86Q62.54 74.86 59.71 74.29L59.74 74.32L59.79 74.38Q59.39 72.78 59.39 71.43L59.42 71.46L59.36 71.40Q59.18 70.86 59.18 70.44L59.26 70.52L59.32 70.58Q59.30 66.46 63.54 64.98L63.55 64.98L63.48 64.91Q64.71 64.44 66.26 64.44Z"/><path d="M8 82 C183 101,192 80,339 14" stroke="#b859d8" fill="none"/><path d="M8 86 C173 29,177 33,328 21" stroke="#8364e1" fill="none"/><path d="M13 36 C162 39,156 45,338 94" stroke="#47da6c" fill="none"/><path fill="#bd41e6" d="M130.62 77.80L130.67 77.85L130.66 77.84Q127.23 77.88 124.96 80.35L124.94 80.33L124.87 80.25Q122.59 82.71 122.30 86.24L122.23 86.18L122.34 86.28Q121.90 90.16 124.17 92.03L124.19 92.05L124.17 92.04Q126.57 94.05 130.53 93.91L130.44 93.81L130.47 93.85Q134.73 93.51 136.49 91.74L136.57 91.81L136.54 91.79Q138.46 89.11 138.25 85.71L138.19 85.66L138.19 85.66Q138.07 82.29 136.06 80.06L135.90 79.90L136.06 80.07Q134.08 77.87 130.68 77.87ZM130.56 60.28L130.59 60.32L130.57 60.30Q127.97 60.10 125.50 61.02L125.47 60.99L125.34 60.86Q122.95 62.36 123.38 65.83L123.36 65.81L123.48 65.93Q124.28 72.74 130.51 72.74L130.62 72.85L130.52 72.76Q133.43 73.12 135.27 71.00L135.27 71.00L135.37 71.11Q137.17 68.94 137.24 66.04L137.20 66.00L137.14 65.94Q137.37 62.78 136.02 61.65L135.94 61.56L136.02 61.64Q132.93 60.11 130.53 60.25ZM130.05 98.44L130.04 98.43L124.40 98.46L124.45 98.51Q121.53 98.41 119.06 96.79L119.09 96.82L119.09 96.82Q116.50 94.66 116.79 89.35L116.84 89.41L116.89 89.46Q117.65 76.64 124.36 74.80L124.45 74.89L124.31 74.74Q120.20 73.18 117.73 63.21L117.62 63.11L117.74 63.23Q117.00 60.51 117.14 59.03L117.07 58.96L117.19 59.08Q117.78 55.14 124.64 55.07L124.54 54.97L124.57 55.00Q132.46 54.90 135.15 55.25L135.20 55.31L135.20 55.30Q142.25 56.21 143.10 59.96L143.19 60.05L143.12 59.98Q143.23 61.01 143.23 61.72L143.38 61.86L143.33 61.82Q143.26 63.01 142.91 64.14L143.06 64.29L142.99 64.23Q141.78 72.00 136.33 74.82L136.49 74.97L136.38 74.87Q142.97 76.44 143.89 86.27L143.77 86.15L143.82 86.20Q143.81 86.48 143.89 88.88L143.82 88.81L143.94 88.93Q144.06 94.00 141.09 95.98L141.06 95.95L141.06 95.96Q138.42 97.48 129.94 98.33ZM134.34 102.81L134.31 102.77L140.48 102.87L140.59 102.97Q143.71 103.06 146.54 101.72L146.41 101.58L146.47 101.65Q148.53 100.24 148.67 96.78L148.77 96.88L148.84 96.94Q148.77 94.75 148.06 91.15L148.19 91.27L148.17 91.25Q146.53 82.68 142.64 79.22L142.60 79.18L142.26 78.49L141.74 77.82L141.48 77.35L141.58 77.46Q144.62 74.91 146.32 67.20L146.31 67.20L146.23 67.11Q146.24 66.42 146.38 64.86L146.36 64.84L146.47 64.95Q146.47 63.54 146.33 62.41L146.40 62.47L146.49 62.56Q146.22 59.89 144.03 58.97L143.97 58.92L143.93 58.81L143.62 58.63L143.63 58.64Q143.20 57.36 141.00 55.88L140.89 55.76L140.97 55.78L141.01 55.81Q137.34 54.55 129.78 54.20L129.76 54.18L129.86 54.28Q126.92 54.02 124.37 54.24L124.46 54.32L124.36 54.23Q122.93 54.35 120.53 54.64L120.47 54.58L120.41 54.51Q116.84 55.26 116.41 58.30L116.46 58.34L116.54 58.42Q116.37 59.24 116.44 60.73L116.39 60.67L116.53 60.81Q116.60 61.66 117.66 66.05L117.77 66.15L117.68 66.07Q119.28 72.20 122.53 74.67L122.55 74.69L122.61 74.75L122.54 74.67Q117.42 77.11 116.43 86.73L116.51 86.81L116.37 86.68Q116.11 90.87 116.11 92.56L116.16 92.62L116.13 92.58Q116.33 95.97 118.52 97.66L118.35 97.49L118.38 97.52Q118.59 97.66 119.08 98.01L119.10 98.03L119.09 98.02Q121.09 102.36 134.31 102.78ZM133.64 82.17L133.54 82.07L133.57 82.10Q135.24 81.93 136.87 82.78L137.00 82.92L136.89 82.80Q137.67 84.71 137.60 85.70L137.60 85.70L137.50 85.60Q137.68 86.28 137.68 86.85L137.63 86.79L137.73 86.90Q137.59 91.13 133.34 92.69L133.35 92.69L133.36 92.70Q131.94 93.34 130.46 93.13L130.36 93.03L130.42 93.09Q128.33 93.26 126.21 92.41L126.28 92.48L126.36 92.56Q125.77 91.27 125.91 89.43L125.85 89.37L125.90 89.42Q126.25 86.51 128.48 84.25L128.34 84.12L128.44 84.22Q130.57 81.86 133.54 82.07ZM134.04 64.54L134.03 64.53L134.15 64.65Q135.46 64.27 136.45 64.55L136.46 64.55L136.59 66.17L136.47 66.05Q136.54 68.74 134.84 70.61L134.92 70.69L134.81 70.57Q133.15 72.49 130.60 72.13L130.64 72.17L130.69 72.22Q128.83 72.20 128.05 71.77L128.07 71.79L127.99 71.71Q127.96 71.26 127.75 69.99L127.68 69.92L127.72 69.96Q127.23 67.35 129.49 65.79L129.37 65.67L129.46 65.76Q131.42 64.47 134.04 64.54Z"/><path d="M17 78 C168 122,183 73,330 73" stroke="#67dea3" fill="none"/><path d="M3 14 C158 106,169 35,337 133" stroke="#e7597d" fill="none"/><path d="M16 17 C169 40,190 92,328 46" stroke="#6969dd" fill="none"/><path fill="#c14ee8" d="M260.49 98.51L260.41 98.43L260.50 98.52Q257.84 98.61 254.94 97.83L254.96 97.85L255.03 97.92Q252.76 96.22 252.48 93.18L252.37 93.07L252.43 93.14Q252.32 92.74 252.67 87.86L252.63 87.82L252.64 87.83Q254.53 87.46 258.28 86.75L258.41 86.88L258.06 88.30L258.06 88.30Q257.58 91.56 260.19 92.62L260.15 92.58L260.19 92.62Q261.64 93.22 265.53 93.22L265.57 93.27L265.47 93.16Q268.41 92.85 268.76 92.71L268.80 92.75L268.80 92.74Q270.54 92.50 271.88 91.58L271.88 91.59L271.77 91.48Q274.42 89.74 274.06 85.85L274.05 85.84L274.14 85.92Q273.81 81.43 270.60 78.53L270.57 78.50L270.56 78.50Q267.42 75.67 262.82 75.67L262.78 75.62L262.72 75.15L262.82 75.25Q263.37 75.02 265.00 74.87L265.09 74.97L264.99 74.86Q268.52 74.65 271.06 72.35L271.21 72.50L271.18 72.47Q273.67 70.12 273.96 66.65L273.96 66.65L273.89 66.59Q274.18 66.10 274.18 65.47L274.03 65.31L274.04 65.32Q274.06 62.52 271.52 60.82L271.55 60.85L271.67 60.98Q269.35 59.43 266.38 59.64L266.35 59.62L266.28 59.54Q263.90 59.28 261.64 60.06L261.65 60.08L261.69 60.12Q259.07 61.17 258.51 63.29L258.49 63.28L258.36 63.15Q258.17 64.72 258.31 66.13L258.21 66.04L258.14 65.97Q256.40 65.71 252.58 64.37L252.41 64.20L252.39 64.17Q252.16 61.26 252.23 59.70L252.08 59.55L252.23 59.70Q252.31 56.74 254.29 55.47L254.29 55.47L254.31 55.49Q256.88 54.32 259.85 54.32L259.86 54.32L259.91 54.37Q265.84 54.36 271.70 54.86L271.71 54.87L271.73 54.89Q281.12 55.65 280.56 62.65L280.46 62.55L280.50 62.59Q280.41 65.40 279.49 68.30L279.51 68.32L279.43 68.24Q277.77 74.00 273.39 75.70L273.43 75.74L273.38 75.69Q278.31 76.73 279.44 82.95L279.29 82.81L279.35 82.87Q279.81 85.02 279.95 88.77L279.98 88.79L279.97 88.79Q280.18 96.99 271.63 97.84L271.64 97.85L271.70 97.91Q270.31 98.00 260.48 98.50ZM270.11 102.62L270.09 102.60L270.24 102.75Q271.39 102.83 276.69 102.97L276.53 102.81L276.54 102.82Q279.91 103.08 282.95 101.88L282.95 101.88L282.81 101.74Q285.04 100.01 284.69 96.76L284.69 96.76L284.74 96.81Q284.50 94.30 283.93 91.05L284.04 91.16L284.02 91.14Q282.70 82.82 279.09 79.78L278.94 79.63L278.61 78.94L278.50 78.76L278.54 78.80Q281.79 76.11 283.20 67.98L283.21 67.99L283.22 68.00Q283.39 67.25 283.60 65.48L283.57 65.45L283.49 65.37Q283.72 64.05 283.58 62.77L283.56 62.75L283.60 62.80Q283.29 59.66 280.89 58.38L280.93 58.43L280.68 58.32L280.69 58.32Q280.06 56.43 277.94 55.44L278.05 55.55L277.99 55.48Q275.10 54.16 265.56 53.59L265.65 53.68L265.71 53.74Q262.60 53.60 259.63 53.60L259.61 53.58L259.62 53.59Q256.69 53.63 253.86 54.83L253.77 54.74L253.82 54.79Q251.58 56.23 251.58 59.48L251.46 59.36L251.43 59.33Q251.58 58.70 252.07 64.92L252.02 64.86L251.97 64.82Q252.52 64.94 255.56 66.07L255.63 66.14L255.60 66.11Q255.51 67.02 255.44 67.94L255.55 68.05L255.48 67.97Q255.52 68.93 255.59 69.92L255.56 69.89L255.58 69.91Q258.83 70.54 262.58 70.76L262.74 70.92L262.68 70.86Q262.52 67.09 264.57 65.54L264.60 65.57L264.51 65.48Q266.16 64.37 269.91 63.95L269.85 63.89L269.89 63.93Q272.09 64.01 273.15 64.36L272.97 64.18L273.08 64.29Q273.06 64.41 273.13 64.62L273.26 64.75L273.18 65.03L273.49 66.19L273.45 66.14Q273.51 66.56 273.44 66.85L273.27 66.67L273.33 66.73Q273.29 70.02 270.46 72.21L270.31 72.06L270.31 72.06Q268.64 73.78 264.90 74.14L265.01 74.25L264.91 74.15Q263.58 74.45 261.95 74.45L261.97 74.47L261.97 74.47Q262.04 75.10 262.33 76.37L262.23 76.28L262.40 76.45Q265.59 76.38 268.27 77.73L268.19 77.64L268.03 77.70L265.22 78.14L265.12 78.04Q265.13 78.61 265.34 79.75L265.50 79.91L265.41 79.81Q269.39 79.70 272.58 82.17L272.54 82.14L272.47 82.06Q272.96 82.84 273.53 85.88L273.59 85.94L273.62 85.97Q273.82 91.26 268.37 92.04L268.54 92.21L268.49 92.15Q264.56 92.61 263.50 92.54L263.54 92.58L263.55 92.59Q262.58 92.26 261.59 92.12L261.63 92.16L261.72 91.39L261.84 90.45L261.97 89.80L262.05 89.25L261.97 89.17Q260.30 89.41 258.81 89.76L258.88 89.83L258.83 89.78Q258.63 89.23 258.63 88.87L258.67 88.91L258.61 88.85Q258.72 88.53 258.72 88.11L258.70 88.09L258.86 88.25Q258.81 87.35 259.09 86.01L259.17 86.08L259.22 86.14Q255.76 86.56 252.29 87.20L252.18 87.08L252.15 87.05Q252.25 88.08 252.04 90.16L252.03 90.16L251.95 90.08Q251.81 92.23 251.81 93.36L251.85 93.40L251.85 93.40Q251.91 97.14 254.45 98.55L254.44 98.53L254.54 98.63Q257.30 102.88 266.07 102.53L265.97 102.43L266.04 102.50Q267.34 102.39 270.17 102.67Z"/><path fill="#4bbce1" d="M191.34 84.80L191.40 84.87L191.32 84.79Q197.07 84.11 203.01 84.32L202.97 84.28L203.02 84.33Q202.91 79.55 202.91 75.09L202.83 75.02L202.88 75.07Q202.86 70.45 203.21 65.71L203.31 65.81L203.27 65.77Q201.06 69.00 191.37 84.84ZM209.71 98.44L209.77 98.50L209.59 98.32Q206.49 97.77 203.17 97.63L203.24 97.69L203.35 97.81Q202.91 93.34 202.70 88.74L202.65 88.69L202.76 88.81Q192.72 88.30 183.95 90.92L184.03 91.00L184.03 91.00Q184.26 90.10 184.61 88.26L184.58 88.22L184.65 88.30Q187.82 82.28 194.47 70.61L194.52 70.66L194.50 70.65Q199.96 61.68 206.33 54.47L206.32 54.47L206.39 54.54Q207.92 54.09 211.03 53.59L211.00 53.56L211.12 53.68Q207.59 65.63 207.59 78.71L207.44 78.56L207.47 78.60Q207.47 81.35 207.61 84.11L207.70 84.20L210.03 84.34L209.97 84.27Q211.26 84.51 212.40 84.72L212.37 84.70L212.27 84.60Q212.46 86.41 212.96 90.02L212.93 89.99L213.00 90.06Q210.66 89.50 207.91 89.14L208.02 89.25L208.06 89.30Q208.45 93.01 209.72 98.45ZM212.90 84.03L212.74 83.86L212.72 83.85Q212.52 83.86 212.17 83.86L212.14 83.83L211.36 83.76L211.48 83.88Q211.09 80.94 211.09 78.33L211.26 78.50L211.18 78.42Q211.22 66.58 215.03 55.40L214.99 55.36L215.03 55.41Q213.64 55.92 210.96 56.63L210.99 56.66L210.98 56.66Q211.24 55.07 212.09 52.46L212.19 52.56L212.22 52.59Q209.82 53.30 206.00 53.73L205.86 53.58L206.00 53.72Q198.63 61.69 188.94 79.08L188.92 79.07L192.94 72.40L192.80 72.26Q192.18 74.34 191.69 75.40L191.62 75.33L183.28 92.02L183.32 92.05Q184.45 91.70 186.57 90.99L186.56 90.99L186.32 91.45L186.44 91.57Q186.10 92.72 185.53 95.05L185.63 95.14L185.61 95.12Q193.15 92.55 202.13 92.91L202.14 92.92L202.10 92.89Q202.27 94.74 202.62 98.42L202.58 98.38L202.55 98.35Q204.66 98.48 206.64 98.69L206.58 98.63L206.62 98.67Q206.90 99.94 207.39 102.49L207.33 102.42L207.41 102.50Q210.84 102.82 216.42 104.52L216.47 104.57L216.44 104.54Q214.66 100.64 212.97 94.56L212.94 94.53L215.54 95.29L215.54 95.29Q217.00 95.90 218.27 96.54L218.17 96.44L218.09 96.35Q216.62 91.70 216.34 88.59L216.32 88.58L216.36 88.62Q215.32 88.35 213.20 87.93L213.25 87.98L213.20 87.93Q212.87 85.63 212.87 84.00ZM197.91 83.60L197.94 83.63L198.03 83.72Q199.35 81.22 202.25 76.48L202.24 76.48L202.24 76.47Q202.28 78.28 202.21 80.05L202.16 80.00L202.29 80.13Q202.12 81.80 202.19 83.57L202.23 83.60L202.29 83.66Q201.28 83.65 200.22 83.65L200.11 83.54L200.16 83.58Q199.01 83.56 197.87 83.56Z"/><path d="M5 77 C159 125,183 29,339 14" stroke="#4ed4d4" fill="none"/><path d="M17 63 C173 26,182 132,322 12" stroke="#86e467" fill="none"/><path d="M7 81 C176 79,173 114,333 94" stroke="#aae895" fill="none"/><path d="M3 99 C175 25,182 26,323 14" stroke="#e3b281" fill="none"/><path d="M18 72 C182 22,161 45,324 87" stroke="#e84999" fill="none"/><path d="M3 109 C189 103,157 132,331 96" stroke="#e03c3c" fill="none"/><path d="M6 66 C191 49,167 2,338 112" stroke="#4f96dd" fill="none"/><path d="M1 17 C167 82,164 123,326 113" stroke="#d36845" fill="none"/><path d="M1 32 C179 6,161 15,330 26" stroke="#75ade5" fill="none"/><path d="M19 89 C172 110,176 129,337 103" stroke="#91df43" fill="none"/><path d="M9 134 C178 122,178 12,330 75" stroke="#a56edd" fill="none"/><path d="M3 122 C175 48,186 71,338 99" stroke="#e6e637" fill="none"/><path d="M19 3 C185 122,165 63,325 24" stroke="#e079c7" fill="none"/><path d="M7 21 C170 127,180 116,330 21" stroke="#42bce5" fill="none"/><path d="M5 61 C168 120,161 58,324 120" stroke="#e858a0" fill="none"/><path d="M16 86 C167 114,159 52,327 6" stroke="#75cdea" fill="none"/><path d="M20 104 C170 78,185 6,335 73" stroke="#d45353" fill="none"/><path d="M7 30 C182 39,188 100,321 69" stroke="#e28b6e" fill="none"/><path d="M14 41 C176 65,155 36,336 56" stroke="#d38c45" fill="none"/><path d="M19 130 C190 110,150 15,329 89" stroke="#ec55a0" fill="none"/><path d="M1 118 C177 108,172 55,337 7" stroke="#48b9de" fill="none"/><path d="M19 85 C171 23,154 128,337 112" stroke="#ad76e4" fill="none"/><path d="M14 96 C178 92,182 35,324 20" stroke="#7a94df" fill="none"/><path d="M13 31 C180 99,188 123,339 124" stroke="#de8c39" fill="none"/><path d="M17 35 C170 81,163 121,323 107" stroke="#4bd76e" fill="none"/><path d="M6 45 C157 99,190 57,329 105" stroke="#e13b3b" fill="none"/><path d="M16 133 C165 82,153 115,341 53" stroke="#84e5e5" fill="none"/><path d="M21 96 C172 17,151 70,331 103" stroke="#e6663b" fill="none"/><path d="M13 122 C155 123,186 81,332 75" stroke="#61e5a3" fill="none"/></svg>