<svg xmlns="http://www.w3.org/2000/svg" width="342" height="140" viewBox="0,0,342,140"><path d="M14 138 C187 46,153 63,333 49" stroke="#bcf187" fill="none"/><path d="M14 29 C186 107,160 85,334 32" stroke="#3fe3ba" fill="none"/><path d="M2 66 C152 113,160 66,339 44" stroke="#6283e3" fill="none"/><path d="M14 121 C159 73,156 73,325 31" stroke="#93ea93" fill="none"/><path d="M1 137 C157 22,178 97,329 77" stroke="#87baec" fill="none"/><path fill="#7272e3" d="M205.53 73.71L205.52 73.70L205.66 73.83Q206.92 73.71 209.36 73.44L209.41 73.50L209.35 73.44Q209.25 74.52 209.25 75.64L209.38 75.78L209.30 77.87L209.38 77.95Q207.96 77.98 206.51 78.11L206.45 78.05L206.42 78.02Q205.01 78.13 203.56 78.07L203.48 77.99L203.56 78.07Q198.49 88.63 192.56 96.61L192.72 96.77L192.63 96.68Q188.23 97.75 185.99 98.80L186.05 98.86L186.07 98.88Q193.18 88.98 198.45 78.10L198.43 78.08L193.98 78.18L193.93 78.13Q193.94 75.83 193.74 73.52L193.73 73.51L193.74 73.52Q197.08 73.83 200.64 73.83L200.49 73.68L203.95 67.44L203.94 67.43Q205.54 64.03 207.66 61.26L207.61 61.21L207.72 61.32Q204.91 61.48 202.14 61.48L202.14 61.48L202.20 61.54Q191.63 61.52 185.10 57.70L185.15 57.75L184.03 54.78L183.94 54.69Q183.46 53.35 182.80 51.84L182.82 51.85L182.71 51.74Q190.32 56.38 200.21 56.78L200.19 56.77L200.14 56.71Q209.09 57.15 217.99 53.72L217.89 53.62L218.04 53.77Q217.68 54.47 216.82 55.99L216.71 55.87L216.77 55.93Q210.55 64.22 205.61 73.78ZM219.59 58.35L219.46 58.23L221.30 54.86L221.27 54.82Q219.55 55.62 216.65 56.87L216.64 56.86L217.00 56.36L217.10 56.46Q217.16 56.06 217.36 55.86L217.48 55.98L217.52 56.02Q218.01 54.67 219.27 52.36L219.30 52.39L219.34 52.44Q210.22 56.50 200.26 56.11L200.21 56.06L200.24 56.08Q189.84 55.64 181.60 50.50L181.45 50.35L181.58 50.49Q183.24 53.59 184.69 58.21L184.78 58.30L184.78 58.30Q186.57 59.30 187.96 59.82L188.01 59.88L188.02 59.89Q188.23 60.43 189.03 63.66L189.07 63.70L189.00 63.64Q194.52 65.86 204.08 65.60L204.03 65.55L204.17 65.68Q203.62 66.66 200.19 73.18L200.20 73.19L200.21 73.20Q196.61 73.16 193.18 72.83L193.09 72.74L193.19 72.84Q193.39 74.35 193.39 75.87L193.23 75.72L193.41 78.86L196.13 78.69L196.17 81.17L196.28 81.27Q189.47 94.05 184.66 100.25L184.59 100.18L184.56 100.14Q187.39 98.89 190.22 98.03L190.23 98.04L190.21 98.01Q189.06 99.63 186.68 102.60L186.72 102.64L186.64 102.56Q192.05 100.58 196.27 100.18L196.27 100.19L196.33 100.24Q201.51 93.82 206.92 82.09L206.82 81.99L212.72 82.28L212.83 82.39Q212.64 80.75 212.64 79.17L212.55 79.07L212.67 76.10L212.64 76.07Q212.17 76.06 211.21 76.12L211.21 76.12L211.25 76.17Q210.23 76.16 209.77 76.16L209.80 76.19L209.79 76.18Q209.86 76.06 209.93 75.79L209.87 75.74L209.80 75.21L209.93 75.34Q214.15 66.30 219.49 58.25Z"/><path d="M2 18 C162 26,162 55,332 78" stroke="#b786e8" fill="none"/><path d="M1 69 C150 4,155 25,329 13" stroke="#eb8e8e" fill="none"/><path d="M10 55 C160 73,183 38,332 54" stroke="#ec7db5" fill="none"/><path d="M19 34 C164 99,182 138,328 107" stroke="#67e967" fill="none"/><path d="M5 59 C182 119,157 34,330 52" stroke="#72c7e3" fill="none"/><path d="M15 85 C184 44,156 78,323 86" stroke="#90a6e9" fill="none"/><path d="M19 111 C152 66,160 92,332 137" stroke="#5ac3e6" fill="none"/><path d="M19 96 C182 128,160 3,328 104" stroke="#97bfe7" fill="none"/><path d="M17 134 C168 127,153 79,334 22" stroke="#eb8ed3" fill="none"/><path fill="#dfdf52" d="M130.91 77.20L130.89 77.18L130.88 77.18Q127.78 77.30 125.67 79.61L125.57 79.52L125.59 79.53Q123.60 81.97 123.34 85.26L123.16 85.09L123.15 85.08Q123.01 88.96 125.12 90.70L124.94 90.53L125.01 90.60Q127.10 92.33 130.80 92.20L130.84 92.23L130.81 92.20Q134.82 91.93 136.46 90.28L136.58 90.40L136.45 90.27Q138.28 87.81 138.08 84.65L138.03 84.59L138.05 84.61Q137.87 81.40 135.99 79.32L135.97 79.30L135.92 79.25Q134.04 77.17 130.87 77.17ZM130.85 60.86L130.82 60.83L130.87 60.88Q128.47 60.72 126.16 61.58L126.11 61.52L126.07 61.49Q123.88 62.93 124.28 66.16L124.38 66.26L124.39 66.27Q125.20 72.69 131.01 72.69L130.99 72.67L130.92 72.61Q133.65 72.96 135.36 70.98L135.30 70.91L135.42 71.03Q137.11 69.04 137.18 66.33L137.06 66.22L137.14 66.29Q137.19 63.18 135.94 62.13L136.01 62.20L136.04 62.22Q133.21 60.85 130.97 60.98ZM130.53 96.61L130.40 96.48L125.22 96.58L125.14 96.50Q122.42 96.41 120.11 94.89L120.24 95.03L120.24 95.03Q117.89 93.07 118.15 88.12L118.19 88.17L118.06 88.03Q118.83 76.14 125.09 74.43L125.06 74.39L125.07 74.40Q121.13 72.83 118.82 63.54L118.82 63.53L118.97 63.68Q118.38 61.25 118.51 59.86L118.49 59.85L118.38 59.73Q118.97 56.10 125.37 56.04L125.34 56.01L125.39 56.06Q132.74 55.96 135.25 56.29L135.27 56.31L135.23 56.27Q141.93 57.24 142.72 60.73L142.67 60.68L142.62 60.63Q142.86 61.72 142.86 62.38L142.88 62.41L142.76 62.29Q142.78 63.49 142.45 64.55L142.46 64.56L142.40 64.49Q141.40 71.87 136.32 74.51L136.28 74.47L136.29 74.47Q142.40 75.91 143.26 85.07L143.26 85.07L143.34 85.16Q143.30 85.38 143.36 87.62L143.36 87.61L143.38 87.63Q143.58 92.45 140.81 94.30L140.81 94.29L140.74 94.23Q138.44 95.81 130.52 96.60ZM134.44 100.59L134.37 100.52L140.21 100.68L140.21 100.69Q143.19 100.83 145.83 99.57L145.77 99.52L145.72 99.47Q147.85 98.37 147.98 95.14L147.82 94.97L147.97 95.12Q147.98 93.15 147.32 89.79L147.22 89.69L147.24 89.72Q145.72 81.73 142.10 78.50L142.00 78.41L141.72 77.80L141.42 77.37L141.10 76.85L141.16 76.91Q144.03 74.56 145.61 67.38L145.56 67.32L145.68 67.45Q145.65 66.76 145.78 65.31L145.77 65.30L145.78 65.30Q145.85 64.06 145.72 63.01L145.66 62.94L145.75 63.03Q145.52 60.56 143.47 59.70L143.52 59.75L143.48 59.65L143.20 59.50L143.25 59.54Q142.63 58.13 140.58 56.75L140.56 56.72L140.62 56.71L140.65 56.75Q137.38 55.72 130.32 55.39L130.32 55.39L130.28 55.34Q127.62 55.19 125.24 55.38L125.10 55.24L125.09 55.24Q123.81 55.41 121.57 55.67L121.60 55.70L121.58 55.68Q118.17 56.29 117.77 59.12L117.71 59.06L117.74 59.09Q117.80 60.08 117.87 61.46L117.80 61.39L117.81 61.40Q117.91 62.23 118.90 66.32L118.91 66.33L118.94 66.35Q120.29 71.93 123.32 74.24L123.39 74.31L123.53 74.44L123.55 74.47Q118.65 76.62 117.73 85.59L117.75 85.61L117.69 85.55Q117.49 89.51 117.49 91.09L117.49 91.08L117.51 91.11Q117.47 94.04 119.51 95.62L119.71 95.82L119.61 95.72Q119.84 95.88 120.30 96.21L120.21 96.11L120.18 96.09Q122.07 100.15 134.40 100.54ZM133.85 81.40L133.76 81.31L133.71 81.26Q135.35 81.18 136.86 81.98L136.95 82.07L136.88 81.99Q137.64 83.81 137.58 84.73L137.48 84.64L137.55 84.70Q137.50 85.11 137.50 85.64L137.48 85.63L137.56 85.70Q137.49 89.72 133.53 91.17L133.57 91.21L133.63 91.27Q132.26 91.81 130.87 91.61L130.90 91.64L130.85 91.59Q128.81 91.66 126.84 90.87L126.93 90.97L126.92 90.95Q126.52 89.90 126.66 88.19L126.64 88.17L126.69 88.22Q126.79 85.28 128.86 83.17L128.85 83.16L129.01 83.32Q130.98 81.11 133.75 81.30ZM134.23 64.97L134.21 64.94L134.25 64.99Q135.54 64.69 136.46 64.95L136.58 65.07L136.56 66.44L136.40 66.28Q136.59 68.91 135.00 70.65L135.01 70.66L134.95 70.60Q133.41 72.39 131.03 72.06L130.96 71.98L130.97 72.00Q129.16 71.90 128.44 71.50L128.44 71.51L128.50 71.57Q128.50 71.17 128.30 69.98L128.23 69.91L128.26 69.94Q127.86 67.56 129.97 66.11L129.98 66.13L129.85 65.99Q131.76 64.87 134.20 64.94Z"/><path d="M8 92 C190 100,158 43,326 62" stroke="#7b95e4" fill="none"/><path d="M2 57 C168 52,192 23,339 15" stroke="#7ee197" fill="none"/><path fill="#5273d5" d="M63.06 60.70L63.11 60.76L60.31 60.86L60.35 60.90Q56.43 61.07 56.04 64.56L56.10 64.63L56.01 64.54Q55.88 65.79 55.95 67.51L56.06 67.62L55.92 67.48Q56.11 70.97 58.29 73.28L58.31 73.30L58.27 73.26Q60.40 75.52 63.69 75.25L63.76 75.32L63.63 75.19Q67.37 75.11 68.69 73.53L68.61 73.45L68.56 73.40Q70.37 71.77 70.83 67.88L70.83 67.88L70.95 68.01Q71.27 63.97 69.09 62.52L69.16 62.59L69.13 62.56Q67.76 61.32 63.14 60.79ZM73.56 76.75L73.44 76.63L71.29 80.67L71.20 80.58Q66.52 88.90 59.99 95.95L60.15 96.11L60.02 95.98Q57.17 96.23 52.49 97.62L52.62 97.74L52.56 97.68Q61.89 86.90 67.36 78.60L67.34 78.57L67.22 78.45Q65.56 79.69 62.72 79.82L62.61 79.71L62.72 79.82Q57.54 80.12 54.91 76.69L54.76 76.54L54.85 76.63Q52.63 73.75 50.72 65.84L50.83 65.95L50.83 65.95Q50.75 65.08 50.48 63.46L50.45 63.43L50.52 63.50Q50.33 61.96 50.33 61.17L50.18 61.02L50.17 61.01Q50.21 57.95 52.06 56.89L52.01 56.85L52.04 56.88Q54.32 55.72 57.55 55.72L57.46 55.64L57.52 55.69Q62.90 55.54 62.90 55.54L62.97 55.61L62.98 55.61Q66.69 55.63 68.86 55.96L69.01 56.11L68.82 55.92Q72.61 56.48 74.20 57.34L74.26 57.40L74.21 57.35Q76.51 58.60 76.84 61.63L76.92 61.71L76.82 61.61Q76.87 62.06 76.54 66.67L76.58 66.71L76.52 66.65Q75.84 70.33 75.45 71.78L75.58 71.91L75.53 71.86Q74.77 74.20 73.46 76.64ZM76.74 80.78L76.84 80.89L76.78 80.82Q78.53 77.04 79.46 69.59L79.54 69.67L79.51 69.64Q79.98 65.83 79.92 64.31L79.97 64.36L79.85 64.24Q79.88 61.11 77.84 59.53L77.67 59.36L77.15 59.17L77.19 59.21Q76.69 57.85 75.11 56.73L75.11 56.74L75.11 56.73Q71.19 55.05 62.88 54.79L62.89 54.81L62.95 54.86Q61.22 54.78 57.00 54.78L57.00 54.78L57.01 54.79Q53.94 54.75 51.37 55.94L51.51 56.08L51.46 56.03Q49.52 57.45 49.65 60.62L49.57 60.54L49.69 60.66Q49.98 62.20 50.31 65.70L50.18 65.57L50.29 65.68Q51.31 70.19 51.77 71.64L51.74 71.61L51.68 71.55Q52.72 74.83 54.37 77.08L54.37 77.07L54.40 77.11Q54.96 77.80 55.62 78.46L55.48 78.32L55.46 78.30Q56.06 79.23 57.18 80.81L57.19 80.82L57.12 80.74Q59.66 83.09 63.03 83.42L63.08 83.48L63.10 83.50Q59.84 88.15 57.14 91.45L57.05 91.37L50.87 99.03L50.78 98.93Q54.67 97.62 57.51 97.03L57.48 97.00L57.43 96.95Q56.19 98.55 53.49 101.52L53.58 101.61L53.48 101.51Q58.81 99.92 64.22 99.85L64.25 99.88L64.33 99.96Q68.26 95.39 75.78 82.86L75.85 82.93L75.71 82.92L75.75 82.96Q76.25 81.74 76.84 80.88ZM66.49 64.93L66.42 64.86L66.38 64.82Q67.48 64.66 68.27 64.86L68.35 64.94L68.25 64.84Q69.34 65.01 70.00 65.21L69.95 65.16L70.14 65.35Q70.30 65.97 70.43 66.69L70.29 66.56L70.43 66.69Q70.46 67.31 70.26 67.97L70.39 68.10L70.40 68.11Q70.14 70.89 68.10 72.80L68.16 72.87L68.15 72.85Q66.45 74.58 63.62 74.52L63.77 74.67L63.76 74.66Q62.91 74.54 60.27 74.01L60.36 74.10L60.37 74.11Q59.87 72.49 59.87 71.24L59.97 71.33L60.03 71.39Q59.87 70.90 59.87 70.50L59.74 70.37L59.87 70.51Q59.83 66.65 63.79 65.26L63.81 65.28L63.87 65.34Q64.91 64.80 66.37 64.80Z"/><path d="M14 106 C176 68,171 5,321 119" stroke="#dc5adc" fill="none"/><path d="M21 45 C191 41,186 113,331 127" stroke="#e6d298" fill="none"/><path d="M6 11 C185 85,154 94,326 59" stroke="#e36886" fill="none"/><path d="M20 25 C158 47,166 84,327 98" stroke="#87cfe7" fill="none"/><path d="M3 96 C180 37,173 35,327 41" stroke="#dda064" fill="none"/><path d="M18 109 C173 25,157 118,338 29" stroke="#e7c14f" fill="none"/><path d="M5 129 C178 112,181 43,332 86" stroke="#a873dd" fill="none"/><path d="M8 114 C171 5,176 36,326 79" stroke="#6dedad" fill="none"/><path d="M7 128 C184 37,185 25,324 25" stroke="#90df76" fill="none"/><path d="M20 1 C152 8,160 126,330 103" stroke="#e8e877" fill="none"/><path d="M15 60 C166 55,151 105,325 93" stroke="#a18ce3" fill="none"/><path d="M2 129 C182 109,187 39,340 55" stroke="#d844d8" fill="none"/><path d="M14 108 C164 75,174 29,326 52" stroke="#85ee9f" fill="none"/><path d="M13 101 C177 109,183 113,323 44" stroke="#b27be9" fill="none"/><path d="M19 16 C182 80,151 62,326 59" stroke="#7592ea" fill="none"/><path d="M17 114 C188 33,184 65,337 6" stroke="#7aea96" fill="none"/><path d="M3 99 C171 67,164 101,338 12" stroke="#e89072" fill="none"/><path fill="#e958a0" d="M262.43 90.67L262.43 90.67L262.41 90.65Q264.41 92.24 266.84 91.98L266.82 91.96L266.91 92.05Q271.95 92.34 273.07 86.54L273.05 86.52L273.02 86.49Q273.99 80.93 273.99 75.06L274.16 75.22L274.16 70.74L274.01 70.59Q274.10 68.51 273.51 66.33L273.48 66.30L273.46 66.28Q271.35 70.30 267.92 78.55L267.99 78.62L267.89 78.52Q264.44 86.74 262.33 90.56ZM271.02 61.99L271.09 62.06L271.18 62.16Q269.04 60.61 266.73 60.61L266.91 60.79L266.85 60.73Q264.22 60.40 262.31 61.99L262.39 62.07L262.26 61.94Q260.48 63.65 260.15 66.23L260.11 66.19L260.18 66.26Q259.48 68.52 259.41 71.09L259.34 71.02L259.52 71.20Q259.37 71.06 259.37 76.00L259.43 76.06L259.38 76.01Q259.53 80.25 260.32 86.51L260.20 86.39L260.20 86.39Q263.61 78.26 271.19 62.17ZM273.89 94.74L273.87 94.72L273.74 94.58Q270.83 96.29 266.81 96.29L266.82 96.30L263.83 96.15L263.84 96.16Q258.37 96.29 256.39 93.33L256.36 93.30L256.40 93.34Q254.92 89.48 254.79 84.41L254.74 84.36L254.83 84.45Q254.71 81.36 254.58 75.36L254.69 75.47L254.62 75.40Q254.49 73.23 254.23 67.95L254.20 67.92L254.20 67.92Q254.10 64.00 254.63 60.57L254.69 60.63L254.67 60.62Q255.57 55.59 263.09 55.19L263.04 55.14L263.10 55.20Q264.44 55.15 266.75 55.22L266.62 55.09L266.78 55.26Q276.60 55.51 278.45 61.51L278.29 61.35L278.26 61.33Q279.41 64.71 279.34 67.94L279.25 67.86L279.31 67.91Q279.32 76.69 279.19 78.80L279.01 78.63L279.10 78.72Q278.67 85.21 278.15 87.45L278.27 87.58L278.25 87.56Q277.11 92.94 273.81 94.66ZM282.44 94.32L282.43 94.31L282.34 94.22Q282.74 89.42 282.68 86.32L282.76 86.40L282.52 78.31L282.66 78.45Q282.46 73.17 281.54 63.61L281.47 63.55L281.55 63.63Q280.66 60.49 278.42 59.17L278.32 59.08L278.28 59.03Q275.69 54.73 266.72 54.46L266.60 54.34L266.66 54.41Q265.12 54.31 262.81 54.38L262.77 54.34L262.77 54.34Q255.07 54.62 254.21 60.03L254.11 59.92L254.09 59.91Q253.48 63.98 253.68 67.61L253.63 67.56L253.61 67.54Q254.20 75.12 254.14 80.92L254.23 81.01L254.32 81.10Q254.24 87.48 254.43 89.26L254.34 89.16L254.35 89.18Q255.02 94.53 257.66 95.92L257.73 95.99L257.73 95.99Q260.20 99.71 267.13 100.17L267.06 100.10L267.22 100.27Q273.45 100.69 274.57 100.63L274.51 100.57L274.51 100.57Q279.50 100.35 281.48 97.58L281.38 97.48L281.36 97.46Q282.20 96.26 282.33 94.21ZM267.52 91.34L267.45 91.27L267.53 91.35Q268.67 88.79 270.51 84.11L270.55 84.15L273.39 76.70L273.53 76.83Q273.32 79.53 272.66 85.34L272.74 85.41L272.77 85.44Q271.62 90.43 267.47 91.28ZM264.01 69.95L264.10 70.05L264.13 70.07Q264.81 66.87 266.00 65.88L265.95 65.83L266.03 65.91Q266.90 65.27 269.15 64.94L269.07 64.86L269.13 64.92Q266.15 71.24 262.92 79.28L262.90 79.27L262.91 79.27Q262.94 74.62 264.13 70.07Z"/><path d="M12 106 C186 118,162 131,324 77" stroke="#caeb64" fill="none"/><path d="M10 20 C178 13,161 82,332 54" stroke="#e697e6" fill="none"/><path d="M14 57 C161 120,157 73,324 107" stroke="#d5b042" fill="none"/><path d="M10 126 C174 91,188 37,334 41" stroke="#d8b754" fill="none"/><path d="M10 97 C151 37,185 128,321 57" stroke="#e44de4" fill="none"/><path d="M7 45 C188 90,173 107,337 92" stroke="#7bafe4" fill="none"/><path d="M12 42 C175 77,188 130,325 34" stroke="#efef7f" fill="none"/></svg>