<svg xmlns="http://www.w3.org/2000/svg" width="342" height="140" viewBox="0,0,342,140"><path d="M14 12 C156 58,169 127,334 97" stroke="#65e665" fill="none"/><path d="M11 60 C180 21,151 71,334 13" stroke="#869de3" fill="none"/><path d="M10 122 C159 114,162 97,323 73" stroke="#ecd282" fill="none"/><path d="M20 134 C159 121,157 1,327 93" stroke="#7a96ea" fill="none"/><path d="M6 137 C188 121,151 67,321 79" stroke="#aa96e8" fill="none"/><path d="M17 4 C171 11,156 21,339 43" stroke="#73e790" fill="none"/><path d="M14 107 C151 57,163 18,328 9" stroke="#c458e8" fill="none"/><path d="M20 116 C178 83,172 10,331 76" stroke="#ebba89" fill="none"/><path d="M10 34 C191 107,174 133,325 110" stroke="#cdea75" fill="none"/><path d="M7 103 C184 76,150 135,333 1" stroke="#91df43" fill="none"/><path d="M8 40 C154 42,157 107,332 96" stroke="#ba8ce7" fill="none"/><path d="M17 73 C151 139,172 104,331 38" stroke="#ec6eec" fill="none"/><path d="M13 101 C153 69,156 82,327 11" stroke="#3f68e3" fill="none"/><path d="M17 94 C161 85,165 118,331 57" stroke="#50d7b5" fill="none"/><path d="M5 29 C186 39,166 71,324 23" stroke="#9653d9" fill="none"/><path d="M16 67 C151 64,157 32,332 111" stroke="#41dc8e" fill="none"/><path d="M3 51 C160 72,155 30,332 34" stroke="#5ce97f" fill="none"/><path fill="#df75df" d="M130.94 60.55L131.02 60.62L128.30 60.84L128.19 60.72Q124.31 60.98 123.91 64.51L123.90 64.49L123.86 64.46Q123.90 65.89 123.96 67.62L123.80 67.46L123.85 67.51Q123.99 70.98 126.18 73.31L126.06 73.19L126.15 73.28Q128.40 75.65 131.73 75.39L131.67 75.33L131.67 75.33Q135.24 75.04 136.57 73.44L136.65 73.51L136.69 73.56Q138.53 71.93 138.99 68.00L139.00 68.00L138.94 67.94Q139.41 64.02 137.22 62.55L137.29 62.63L137.25 62.59Q135.66 61.13 131.00 60.60ZM141.61 76.81L141.69 76.89L139.42 80.88L139.27 80.73Q134.64 89.23 128.05 96.36L127.98 96.29L127.94 96.25Q125.09 96.53 120.36 97.93L120.46 98.03L120.39 97.96Q129.73 86.98 135.26 78.59L135.34 78.67L135.23 78.56Q133.38 79.64 130.52 79.77L130.52 79.78L130.69 79.95Q125.25 80.04 122.59 76.58L122.73 76.72L122.72 76.71Q120.50 73.82 118.57 65.83L118.57 65.83L118.55 65.81Q118.69 65.15 118.43 63.52L118.30 63.39L118.33 63.42Q118.01 61.73 118.01 60.93L118.16 61.09L118.11 61.04Q118.10 57.89 119.96 56.83L119.97 56.83L119.87 56.74Q122.03 55.43 125.29 55.43L125.42 55.55L125.27 55.41Q130.98 55.52 130.98 55.52L130.99 55.53L130.90 55.44Q134.69 55.50 136.89 55.83L136.92 55.86L136.98 55.93Q140.59 56.27 142.19 57.13L142.17 57.11L142.29 57.23Q144.76 58.64 145.09 61.70L144.96 61.57L145.09 61.70Q144.93 61.94 144.60 66.60L144.61 66.62L144.70 66.71Q144.00 70.40 143.60 71.87L143.54 71.81L143.54 71.81Q142.89 74.29 141.55 76.75ZM144.93 80.99L144.99 81.05L144.83 80.90Q146.60 77.07 147.54 69.54L147.54 69.55L147.58 69.59Q148.11 65.79 148.04 64.25L147.90 64.11L148.09 64.30Q147.84 60.86 145.78 59.26L145.77 59.25L145.31 59.12L145.31 59.13Q144.82 57.77 143.22 56.63L143.21 56.62L143.33 56.75Q139.31 54.99 130.91 54.72L130.79 54.59L130.85 54.66Q129.16 54.63 124.90 54.63L124.84 54.58L124.85 54.59Q121.92 54.72 119.32 55.92L119.36 55.95L119.38 55.98Q117.19 57.19 117.32 60.39L117.36 60.42L117.46 60.52Q117.65 61.97 117.98 65.50L118.15 65.67L118.01 65.53Q119.24 70.29 119.71 71.76L119.66 71.72L119.62 71.67Q120.60 74.92 122.27 77.19L122.20 77.12L122.34 77.26Q122.70 77.75 123.37 78.42L123.48 78.54L123.43 78.48Q123.81 79.20 124.95 80.80L125.10 80.95L125.03 80.88Q127.64 83.30 131.04 83.63L131.00 83.59L131.04 83.63Q127.62 88.20 124.88 91.53L124.99 91.63L118.53 99.16L118.62 99.26Q122.56 97.94 125.43 97.34L125.47 97.37L125.43 97.34Q124.14 98.91 121.41 101.91L121.35 101.86L121.39 101.89Q126.65 100.16 132.11 100.09L132.11 100.09L132.22 100.20Q136.27 95.65 143.87 83.00L143.96 83.09L143.81 83.08L143.85 83.12Q144.28 81.81 144.88 80.94ZM134.35 64.75L134.43 64.84L134.50 64.90Q135.45 64.59 136.25 64.79L136.18 64.72L136.32 64.86Q137.40 65.01 138.07 65.21L138.15 65.29L138.10 65.24Q138.22 65.82 138.35 66.55L138.48 66.68L138.32 66.52Q138.50 67.30 138.30 67.97L138.31 67.98L138.38 68.05Q138.33 71.06 136.26 72.99L136.12 72.85L136.15 72.88Q134.56 74.75 131.69 74.69L131.63 74.63L131.59 74.59Q130.87 74.60 128.21 74.06L128.21 74.06L128.29 74.15Q127.85 72.57 127.85 71.31L127.93 71.39L127.95 71.41Q127.75 70.88 127.75 70.48L127.68 70.41L127.71 70.43Q127.74 66.60 131.74 65.20L131.68 65.14L131.76 65.23Q132.98 64.85 134.44 64.85Z"/><path d="M6 125 C160 40,165 70,326 31" stroke="#6fe06f" fill="none"/><path d="M16 118 C158 44,159 109,337 80" stroke="#8e46d6" fill="none"/><path fill="#e3c468" d="M198.68 77.11L198.75 77.17L198.77 77.19Q195.53 76.96 193.37 79.46L193.38 79.47L193.36 79.45Q191.17 81.92 190.83 85.25L190.88 85.29L190.88 85.29Q190.41 88.82 192.31 90.52L192.43 90.64L192.44 90.66Q194.36 92.37 198.02 92.17L198.04 92.19L198.05 92.20Q201.67 91.88 203.60 90.68L203.61 90.70L203.51 90.59Q205.55 88.70 205.55 85.97L205.63 86.05L205.65 86.07Q205.56 85.32 205.43 84.65L205.42 84.64L205.42 84.65Q205.50 81.66 203.57 79.29L203.71 79.44L203.71 79.43Q201.79 77.08 198.86 77.28ZM198.13 96.74L198.09 96.70L198.00 96.61Q190.39 96.66 187.92 95.33L187.83 95.24L187.82 95.23Q186.06 93.93 185.73 90.94L185.72 90.92L185.88 91.08Q185.74 89.82 185.81 88.55L185.83 88.58L185.70 88.44Q185.93 86.74 185.93 85.94L185.92 85.93L185.95 85.96Q186.84 81.06 187.11 79.86L187.02 79.76L186.98 79.72Q187.77 76.32 189.24 73.86L189.37 73.99L189.40 74.02Q193.93 66.23 204.32 55.10L204.35 55.13L204.36 55.13Q209.09 54.67 212.95 53.27L212.92 53.24L212.97 53.29Q200.92 66.29 195.33 73.69L195.22 73.58L195.26 73.62Q196.96 72.72 199.23 72.72L199.33 72.83L199.27 72.77Q205.07 72.77 207.74 76.17L207.75 76.18L207.75 76.18Q210.12 79.08 210.72 85.28L210.73 85.29L210.61 85.17Q210.91 86.61 210.91 87.67L210.92 87.68L210.79 87.55Q210.77 92.99 206.90 94.86L206.95 94.90L206.92 94.87Q204.79 95.94 198.00 96.61ZM202.04 100.85L201.94 100.75L202.07 100.88Q204.23 100.71 207.69 100.84L207.83 100.97L207.76 100.91Q210.66 101.08 213.40 99.82L213.26 99.68L213.46 99.88Q215.33 98.42 215.33 95.29L215.31 95.27L215.35 95.31Q215.37 94.47 215.08 92.73L215.05 92.70L215.08 92.74Q214.77 90.99 214.77 90.19L214.78 90.20L214.63 90.06Q213.12 81.82 210.32 78.49L210.34 78.51L210.45 78.61Q210.30 78.40 210.03 78.00L209.99 77.95L209.50 77.60L209.31 77.48L209.20 77.37Q208.61 76.50 207.54 74.84L207.66 74.96L207.67 74.97Q205.95 73.18 202.49 72.38L202.60 72.50L202.62 72.52Q204.69 69.65 209.88 63.19L209.90 63.21L217.29 53.95L217.30 53.95Q214.58 55.49 210.38 56.82L210.27 56.71L210.43 56.87Q211.87 54.99 215.00 51.52L215.11 51.63L215.00 51.52Q210.88 53.47 204.09 54.46L204.04 54.42L204.04 54.42Q194.04 64.74 188.85 73.40L188.90 73.45L188.99 73.55Q186.32 77.93 185.32 88.86L185.24 88.79L185.29 88.83Q185.10 89.77 185.23 91.44L185.30 91.51L185.25 91.46Q185.41 94.55 187.35 96.15L187.25 96.05L187.32 96.13Q188.06 96.46 187.99 96.53L187.93 96.47L187.95 96.49Q188.55 98.02 189.95 98.75L189.96 98.77L189.99 98.80Q192.51 99.98 195.91 100.32L195.97 100.38L195.99 100.40Q195.94 100.35 202.07 100.88ZM201.55 81.10L201.63 81.19L201.58 81.14Q202.54 80.90 204.20 81.76L204.27 81.83L204.31 81.87Q204.92 83.55 204.92 84.68L204.98 84.74L204.82 84.57Q205.26 87.95 203.60 89.68L203.53 89.62L203.50 89.59Q201.74 90.96 198.08 91.49L198.10 91.52L197.96 91.38Q195.46 91.40 194.53 90.94L194.63 91.04L194.54 90.95Q194.22 90.17 194.22 89.63L194.29 89.70L194.23 89.64Q193.88 83.96 199.00 81.69L199.03 81.72L198.97 81.66Q200.21 80.97 201.55 81.10Z"/><path d="M4 78 C191 29,158 97,330 10" stroke="#cbe188" fill="none"/><path d="M2 90 C177 21,182 48,321 59" stroke="#e6c664" fill="none"/><path d="M2 99 C161 75,181 93,329 93" stroke="#ed86ed" fill="none"/><path d="M6 43 C174 114,160 60,323 9" stroke="#cae57a" fill="none"/><path d="M9 27 C151 81,167 87,326 99" stroke="#cce485" fill="none"/><path d="M21 130 C191 19,191 134,322 99" stroke="#a5e763" fill="none"/><path d="M16 110 C176 64,182 89,333 61" stroke="#4545d7" fill="none"/><path d="M15 25 C189 131,175 53,333 108" stroke="#8ee538" fill="none"/><path d="M20 45 C159 51,164 122,322 111" stroke="#6d6ded" fill="none"/><path d="M10 17 C174 14,170 110,325 62" stroke="#df6b88" fill="none"/><path d="M11 111 C174 31,190 13,327 79" stroke="#ba90e4" fill="none"/><path d="M5 107 C192 41,167 136,332 121" stroke="#e8c65d" fill="none"/><path d="M13 57 C163 55,169 123,326 15" stroke="#7171e4" fill="none"/><path d="M19 26 C159 26,183 104,331 81" stroke="#de72de" fill="none"/><path fill="#519be5" d="M62.92 60.52L63.03 60.63L60.29 60.83L60.25 60.78Q56.25 60.92 55.85 64.45L55.87 64.46L55.88 64.47Q55.81 65.80 55.87 67.53L55.86 67.52L55.80 67.46Q55.92 70.91 58.12 73.25L58.21 73.33L58.12 73.24Q60.36 75.62 63.69 75.35L63.67 75.33L63.74 75.40Q67.21 75.01 68.54 73.41L68.57 73.43L68.52 73.38Q70.45 71.85 70.92 67.92L70.96 67.97L71.00 68.01Q71.32 63.92 69.12 62.46L69.26 62.60L69.17 62.51Q67.68 61.15 63.01 60.62ZM73.57 76.77L73.68 76.88L71.38 80.84L71.38 80.85Q66.52 89.11 59.93 96.24L60.04 96.35L60.07 96.38Q57.09 96.53 52.36 97.93L52.37 97.94L52.47 98.04Q61.71 86.97 67.24 78.57L67.17 78.50L67.29 78.62Q65.46 79.72 62.59 79.85L62.54 79.80L62.65 79.91Q57.31 80.09 54.64 76.63L54.69 76.68L54.69 76.68Q52.63 73.95 50.70 65.96L50.58 65.84L50.71 65.97Q50.65 65.10 50.38 63.47L50.41 63.51L50.30 63.39Q50.13 61.86 50.13 61.06L50.06 60.99L50.14 61.07Q50.14 57.93 52.00 56.87L51.93 56.79L52.02 56.89Q54.02 55.42 57.29 55.42L57.35 55.48L57.27 55.41Q62.90 55.44 62.90 55.44L62.87 55.41L62.91 55.45Q66.75 55.55 68.94 55.89L68.88 55.83L68.88 55.83Q72.73 56.41 74.33 57.27L74.34 57.29L74.30 57.24Q76.75 58.63 77.09 61.70L77.01 61.62L77.08 61.69Q76.98 61.99 76.64 66.65L76.56 66.57L76.57 66.58Q76.00 70.41 75.60 71.87L75.68 71.95L75.53 71.80Q74.90 74.30 73.56 76.76ZM76.93 80.99L76.89 80.96L76.94 81.01Q78.63 77.10 79.56 69.57L79.64 69.65L79.69 69.70Q80.04 65.72 79.98 64.19L79.94 64.15L80.00 64.21Q79.83 60.84 77.76 59.24L77.82 59.30L77.38 59.20L77.40 59.21Q76.95 57.90 75.35 56.76L75.34 56.75L75.28 56.70Q71.26 54.94 62.86 54.67L62.81 54.62L62.80 54.60Q61.13 54.60 56.87 54.60L57.02 54.75L56.97 54.71Q53.80 54.60 51.20 55.80L51.20 55.80L51.31 55.91Q49.35 57.35 49.49 60.55L49.44 60.50L49.44 60.50Q49.65 61.97 49.98 65.50L50.00 65.53L50.10 65.63Q51.05 70.11 51.52 71.57L51.64 71.70L51.70 71.76Q52.70 75.02 54.37 77.29L54.29 77.20L54.23 77.15Q54.70 77.75 55.37 78.42L55.47 78.53L55.49 78.54Q55.82 79.20 56.95 80.80L56.97 80.82L57.09 80.94Q59.55 83.21 62.95 83.54L62.93 83.52L63.03 83.62Q59.65 88.23 56.92 91.56L56.96 91.60L50.68 99.32L50.55 99.19Q54.47 97.84 57.33 97.24L57.41 97.32L57.36 97.27Q56.14 98.92 53.41 101.91L53.35 101.85L53.27 101.77Q58.74 100.24 64.20 100.18L64.29 100.27L64.16 100.14Q68.21 95.59 75.81 82.94L75.95 83.08L75.92 83.18L75.77 83.03Q76.24 81.77 76.84 80.91ZM66.42 64.82L66.32 64.72L66.46 64.86Q67.51 64.65 68.31 64.85L68.32 64.85L68.33 64.87Q69.33 64.93 69.99 65.13L69.99 65.13L70.05 65.19Q70.19 65.80 70.32 66.53L70.32 66.52L70.40 66.61Q70.52 67.32 70.32 67.99L70.24 67.91L70.33 68.00Q70.20 70.94 68.14 72.87L68.15 72.89L68.13 72.86Q66.51 74.71 63.65 74.64L63.69 74.68L63.61 74.61Q62.84 74.57 60.18 74.04L60.26 74.12L60.31 74.16Q59.92 72.64 59.92 71.38L59.95 71.41L59.82 71.28Q59.70 70.82 59.70 70.42L59.70 70.42L59.76 70.49Q59.76 66.63 63.76 65.23L63.80 65.26L63.67 65.14Q64.95 64.82 66.41 64.82Z"/><path fill="#9377e8" d="M266.94 77.37L266.81 77.23L266.87 77.29Q263.74 77.43 261.60 79.76L261.58 79.74L261.56 79.72Q259.43 82.04 259.16 85.37L259.19 85.40L259.10 85.31Q258.77 89.04 260.90 90.81L260.96 90.87L260.93 90.84Q262.94 92.49 266.67 92.35L266.67 92.35L266.80 92.48Q270.91 92.26 272.57 90.59L272.46 90.48L272.54 90.56Q274.24 87.93 274.04 84.73L274.05 84.74L274.19 84.89Q273.83 81.46 271.93 79.36L271.91 79.34L271.97 79.40Q270.11 77.34 266.91 77.34ZM266.93 60.90L266.93 60.89L266.77 60.74Q264.30 60.54 261.97 61.40L262.14 61.57L262.03 61.46Q259.86 62.96 260.26 66.22L260.27 66.23L260.14 66.10Q261.05 72.67 266.91 72.67L266.85 72.61L266.91 72.67Q269.66 73.02 271.39 71.02L271.38 71.01L271.30 70.93Q273.13 69.03 273.20 66.30L273.20 66.30L273.24 66.34Q273.29 63.19 272.02 62.13L271.97 62.07L272.01 62.12Q269.01 60.58 266.74 60.71ZM266.34 96.75L266.38 96.79L261.06 96.80L261.07 96.81Q258.47 96.87 256.14 95.34L255.95 95.15L256.00 95.21Q253.68 93.29 253.95 88.29L253.83 88.17L254.01 88.35Q254.68 76.23 261.01 74.49L261.08 74.57L261.13 74.62Q256.97 72.85 254.63 63.46L254.78 63.60L254.75 63.58Q254.05 61.01 254.18 59.61L254.32 59.75L254.23 59.66Q254.76 55.92 261.22 55.86L261.17 55.80L261.19 55.82Q268.70 55.81 271.23 56.14L271.10 56.01L271.08 55.99Q277.85 56.96 278.65 60.49L278.70 60.55L278.60 60.44Q278.87 61.58 278.87 62.25L278.94 62.32L278.94 62.31Q278.96 63.54 278.63 64.61L278.56 64.54L278.61 64.58Q277.52 71.96 272.39 74.62L272.36 74.59L272.38 74.61Q278.56 76.06 279.43 85.32L279.39 85.28L279.44 85.33Q279.35 85.51 279.42 87.78L279.33 87.69L279.38 87.74Q279.61 92.64 276.82 94.50L276.67 94.36L276.76 94.45Q274.37 95.99 266.38 96.79ZM270.32 100.80L270.45 100.93L276.27 101.01L276.22 100.97Q279.14 101.02 281.80 99.76L281.81 99.77L281.80 99.76Q283.97 98.66 284.10 95.39L283.95 95.24L284.10 95.39Q284.18 93.47 283.51 90.07L283.51 90.07L283.34 89.90Q281.75 81.78 278.09 78.52L278.19 78.62L277.91 78.01L277.52 77.49L277.23 77.00L277.16 76.93Q280.02 74.52 281.62 67.26L281.65 67.29L281.71 67.35Q281.66 66.64 281.79 65.17L281.75 65.13L281.79 65.17Q282.01 64.05 281.87 62.98L281.90 63.01L281.86 62.97Q281.49 60.34 279.43 59.47L279.59 59.63L279.50 59.48L279.29 59.40L279.20 59.31Q278.77 58.08 276.70 56.68L276.60 56.58L276.77 56.68L276.77 56.69Q273.35 55.53 266.22 55.19L266.27 55.24L266.22 55.19Q263.37 54.88 260.97 55.08L261.04 55.15L260.98 55.09Q259.67 55.24 257.41 55.51L257.43 55.53L257.30 55.40Q253.97 56.14 253.57 59.00L253.56 58.99L253.54 58.96Q253.44 59.81 253.51 61.20L253.59 61.29L253.52 61.21Q253.69 62.12 254.69 66.25L254.82 66.38L254.76 66.32Q256.08 71.90 259.15 74.23L259.27 74.36L259.37 74.46L259.45 74.53Q254.51 76.72 253.57 85.78L253.58 85.79L253.63 85.84Q253.28 89.69 253.28 91.28L253.34 91.34L253.18 91.19Q253.31 94.31 255.37 95.91L255.49 96.02L255.42 95.96Q255.57 96.04 256.03 96.37L256.09 96.43L256.03 96.37Q257.96 100.49 270.41 100.89ZM269.77 81.46L269.73 81.42L269.75 81.44Q271.36 81.32 272.89 82.12L272.94 82.17L272.82 82.04Q273.51 83.80 273.44 84.73L273.49 84.78L273.52 84.81Q273.53 85.29 273.53 85.82L273.50 85.79L273.50 85.79Q273.52 89.94 269.52 91.40L269.66 91.54L269.49 91.37Q268.13 91.95 266.74 91.75L266.83 91.85L266.80 91.81Q264.93 92.07 262.93 91.27L262.92 91.27L262.92 91.27Q262.29 89.97 262.43 88.24L262.57 88.38L262.46 88.27Q262.83 85.58 264.93 83.45L264.82 83.34L264.95 83.47Q266.94 81.23 269.74 81.43ZM270.08 64.78L270.16 64.87L270.19 64.89Q271.49 64.60 272.43 64.86L272.51 64.94L272.43 66.27L272.52 66.36Q272.43 68.73 270.83 70.49L270.96 70.62L270.89 70.55Q269.28 72.31 266.88 71.98L266.97 72.07L266.94 72.04Q265.18 72.01 264.45 71.61L264.47 71.63L264.47 71.63Q264.40 71.16 264.20 69.96L264.27 70.03L264.12 69.89Q263.71 67.47 265.84 66.01L265.94 66.10L265.78 65.94Q267.67 64.77 270.14 64.84Z"/><path d="M11 123 C179 114,158 56,328 137" stroke="#b7e886" fill="none"/><path d="M18 50 C158 117,182 111,326 137" stroke="#d3e697" fill="none"/><path d="M19 115 C188 93,174 16,326 116" stroke="#36e762" fill="none"/><path d="M3 135 C165 65,177 130,335 39" stroke="#e24f99" fill="none"/><path d="M11 85 C173 18,152 101,337 53" stroke="#4ddada" fill="none"/><path d="M15 45 C160 33,174 28,327 71" stroke="#7ced98" fill="none"/><path d="M19 93 C191 9,183 137,340 56" stroke="#72aae3" fill="none"/></svg>