<svg width="311" height="63" viewBox="0 0 311 63" fill="none" xmlns="http://www.w3.org/2000/svg">
<path d="M6.79502 5.10002H66.295L65.175 13.08H5.67502L6.79502 5.10002ZM61.535 42.13L60.415 50.25H56.005L55.095 56.83C53.7417 58.09 51.8517 59.7467 49.425 61.8H35.985L37.035 54.59H44.945L45.505 50.25H14.985L13.305 62.43H2.80502L4.55502 50.25H0.14502L1.26502 42.13H5.67502L9.24502 16.65H19.745L18.625 24.56L17.925 29.46L16.875 37.16L16.525 39.61L16.175 42.13H26.115L26.815 37.02L17.575 37.16L18.695 29.46H27.935L28.635 24.56H19.395L20.515 16.65H29.685L30.105 13.85H40.535L40.115 16.65H55.725L57.055 18.19C58.455 19.8234 59.435 20.99 59.995 21.69L57.125 42.13H61.535ZM38.295 29.46H48.445L49.145 24.56H38.995L38.295 29.46ZM46.695 42.13L47.395 37.02H37.245L36.545 42.13H46.695Z" fill="black"/>
<path d="M124.815 10.28H124.885L118.795 19.66H118.725L118.305 20.43L118.095 20.64L112.215 29.88L106.615 26.8C106.288 25.4 105.962 23.7434 105.635 21.83L119.425 0.27002L128.105 5.03002L124.815 10.28ZM104.445 19.66L95.415 24.7L89.325 10.56L98.285 5.45002L104.445 19.66ZM119.565 19.66L125.655 10.28H142.245C142.898 11.0267 143.482 11.7034 143.995 12.31C144.508 12.87 144.975 13.4067 145.395 13.92L146.515 15.25L145.955 19.66L138.325 32.68L130.765 28.62L136.505 19.66H119.565ZM102.905 59.07C102.345 56.5034 101.995 54.87 101.855 54.17L119.915 24.84L128.735 29.39L122.715 39.26L129.995 34.29L140.495 52.49L139.375 55.99C139.328 56.1767 139.142 56.76 138.815 57.74L132.585 61.8L121.385 41.36L108.645 62.08L102.905 59.07ZM85.685 55.99L84.425 51.09L97.725 28.41L106.545 32.47L91.215 58.65L85.685 55.99Z" fill="black"/>
<path d="M184.945 13.29H175.425L176.895 2.79002H186.415L184.945 13.29ZM187.745 59.21L186.765 57.46L195.515 32.89L199.645 2.79002H209.305L204.965 33.73L194.815 62.71L189.285 61.94L187.745 59.21ZM213.995 54.03H218.825L219.875 46.61H225.055L223.375 58.3L222.115 59.42L219.105 62.01H208.325C206.785 60.33 205.805 59.21 205.385 58.65L204.055 57.04L211.615 2.79002H221.205L213.995 54.03ZM190.615 6.71002L197.475 6.22002L196.005 24.63L189.215 25.12L190.615 6.71002ZM225.615 25.19L218.475 24.84L221.905 6.64002L229.255 6.92002L225.615 25.19ZM182.355 31.77L172.625 33.24L174.025 22.95H168.425L169.685 13.99H189.075L187.745 22.95H183.615L182.355 31.77ZM166.045 34.92L169.755 34.43L182.285 32.4V32.47L186.135 31.91L186.065 36.25L188.865 27.57L195.795 28.2L190.125 46.61L183.125 45.56L184.595 40.73L181.025 41.29L178.855 56.97L177.105 58.51C175.705 59.77 174.375 60.9134 173.115 61.94H163.245L164.435 53.54H169.755L171.225 42.9L166.325 43.67L166.045 34.92ZM225.615 27.71L225.195 44.37L217.775 44.79L218.125 28.2L225.615 27.71Z" fill="black"/>
<path d="M296.805 17.7L285.955 18.47L286.235 3.07002L297.085 2.09002L296.805 17.7ZM300.585 17L299.675 3.91002L308.985 2.23002L309.895 15.32L300.585 17ZM270.065 19.87L268.525 30.86H258.305L262.225 2.93002H272.445L271.325 10.63L270.065 19.87ZM270.695 19.87L272.025 10.63H280.425L279.095 19.87H270.695ZM296.595 33.59L285.745 41.43L285.815 28.27L279.375 28.76L280.005 19.52L310.245 17.49L309.475 26.59L296.665 27.5L296.595 33.59ZM310.175 35.69L278.955 58.3L276.785 54.24L278.325 47.38L305.695 27.85L310.175 35.69ZM273.985 31.63L275.665 33.59C276.365 34.3367 277.228 35.34 278.255 36.6L276.855 46.75L275.805 53.96L275.525 56.13C273.845 57.5767 271.955 59.2334 269.855 61.1H244.865L249.065 31.63H257.675L256.555 39.61L256.135 42.83L254.665 52.98H267.335L269.225 39.61H257.255L258.375 31.63H273.985ZM285.605 54.31L296.315 46.47V52.56H305.485L304.225 61.45H289.805C288.778 60.33 287.355 58.86 285.535 57.04L285.605 54.31Z" fill="black"/>
</svg>
