<svg width="384" height="36" viewBox="0 0 384 36" fill="none" xmlns="http://www.w3.org/2000/svg">
<path d="M4.57507 17L0.695068 15.04L10.0151 0.559982L14.9351 3.23998L9.45507 11.68H11.1751L7.85507 35.28H2.01507L4.57507 17ZM14.0151 14.68C13.6684 13.64 13.3484 12.7066 13.0551 11.88L18.8951 0.559982L24.0551 2.23998L22.9351 4.31998L20.0151 9.91998L17.0551 15.68L14.0151 14.68ZM20.4551 9.91998L23.1751 4.75999H32.8551L35.3351 7.59998L34.3351 14.56H28.7751L29.4151 9.91998H20.4551ZM15.2951 30.4H18.1751L20.6951 12.64H26.5351L23.7751 32.12C22.5751 33.1867 21.4951 34.1333 20.5351 34.96H14.6551L15.2951 30.4ZM10.0551 27.36L14.5351 16L19.5751 17.36L14.2551 30.76L11.2551 30L10.0551 27.36ZM31.6151 16.08L32.6151 27.48L31.2551 29.24C31.0417 29.5333 30.8417 29.8 30.6551 30.04L27.3751 30.76L26.2151 17.2L31.6151 16.08Z" fill="black"/>
<path d="M44.1351 2.23998H71.1751C71.5484 2.66665 71.8284 2.99998 72.0151 3.23998L73.6151 5.07999L72.4151 13.84H66.2951L67.2151 7.55998H43.4151L44.1351 2.23998ZM48.2151 19.96L46.9351 28.8H65.9351L65.1751 34.12H42.9351C41.9484 32.92 41.1351 31.9733 40.4951 31.28L43.4151 10.92H49.4951L49.1751 13.2L48.2151 19.96ZM72.0151 16.64C71.0551 17.4667 69.9751 18.4133 68.7751 19.48H48.6551L49.4151 14.2H72.3351L72.0151 16.64ZM65.5751 34.12L66.2951 28.8L67.1751 22.56H72.4951L71.2951 31.28L68.0151 34.12H65.5751Z" fill="black"/>
<path d="M92.8951 3.27998H86.9751L87.3351 0.759987H93.2551L92.8951 3.27998ZM115.175 11.64C114.828 11.9867 114.308 12.4533 113.615 13.04L112.735 13.8H104.015L104.575 9.71999H109.735L110.215 6.39999H97.2151L97.8951 1.59998H114.455C114.882 2.05332 115.495 2.75999 116.295 3.71999L115.175 11.64ZM91.7351 11.4H85.8551L86.2551 8.55998H82.9351L83.6151 3.67999H96.3751L95.6951 8.55998H92.1351L91.7351 11.4ZM99.1351 6.75999H104.815L101.655 14.44L98.4951 13.84C98.4417 13.7333 98.3751 13.6133 98.2951 13.48C98.2417 13.3467 98.1884 13.2133 98.1351 13.08L97.2151 11.12L99.1351 6.75999ZM90.3751 26.76L84.6151 26.2L85.9751 16.68H81.0551L81.7351 11.84H85.7751L85.8151 11.8H95.9351L95.2151 16.68H91.8151L91.4151 19.4L90.3751 26.76ZM102.135 19.6L102.775 15.04H111.495C112.482 16.24 113.295 17.1866 113.935 17.88L113.055 24.04L109.815 26.92H94.8951L96.5351 15.08H102.375L101.735 19.64L101.535 21.32L101.375 22.36H107.415L107.815 19.6H102.135ZM83.2551 26.48L83.6951 26.52L81.5351 34.8L80.1751 34.56C79.8551 34.1333 79.5217 33.6667 79.1751 33.16L78.6551 32.44L81.7351 18.84L84.8951 19.2L83.2551 26.48ZM91.2151 23.64L91.8151 19.4H94.8951L94.2951 23.64H91.2151ZM82.6951 31.8L84.0551 26.56L84.5751 26.64L111.375 29.2L112.935 31.6L112.095 35L82.6951 31.8Z" fill="black"/>
<path d="M151.175 5.55998H145.655L146.255 1.19998H151.775L151.175 5.55998ZM130.495 2.35999L129.655 8.39999H123.615L124.495 2.35999H130.495ZM155.095 10.76H150.415L148.615 23.68L146.215 25.84C146.162 25.8933 145.882 26.1333 145.375 26.56H136.095L136.735 21.88H143.335L144.935 10.76H131.695L132.375 5.91998H155.775L155.095 10.76ZM123.375 16.36H120.335L121.015 11.28H126.895C127.482 11.9733 128.295 12.9333 129.335 14.16L127.455 27.56L150.375 29.64C150.855 30.36 151.375 31.1867 151.935 32.12L151.135 34.88L124.735 32.28L121.615 28.92L123.375 16.36ZM139.415 12.48L140.495 19.32L135.855 20.76L134.735 13.8L139.415 12.48Z" fill="black"/>
<path d="M278.505 6.87998H273.065L273.905 0.879982H279.345L278.505 6.87998ZM280.105 33.12L279.545 32.12L284.545 18.08L286.905 0.879982H292.425L289.945 18.56L284.145 35.12L280.985 34.68L280.105 33.12ZM295.105 30.16H297.865L298.465 25.92H301.425L300.465 32.6L299.745 33.24L298.025 34.72H291.865C290.985 33.76 290.425 33.12 290.185 32.8L289.425 31.88L293.745 0.879982H299.225L295.105 30.16ZM281.745 3.11999L285.665 2.83998L284.825 13.36L280.945 13.64L281.745 3.11999ZM301.745 13.68L297.665 13.48L299.625 3.07999L303.825 3.23998L301.745 13.68ZM277.025 17.44L271.465 18.28L272.265 12.4H269.065L269.785 7.27998H280.865L280.105 12.4H277.745L277.025 17.44ZM267.705 19.24L269.825 18.96L276.985 17.8V17.84L279.185 17.52L279.145 20L280.745 15.04L284.705 15.4L281.465 25.92L277.465 25.32L278.305 22.56L276.265 22.88L275.025 31.84L274.025 32.72C273.225 33.44 272.465 34.0933 271.745 34.68H266.105L266.785 29.88H269.825L270.665 23.8L267.865 24.24L267.705 19.24ZM301.745 15.12L301.505 24.64L297.265 24.88L297.465 15.4L301.745 15.12Z" fill="black"/>
<path d="M335.425 9.39999L329.225 9.83998L329.385 1.03999L335.585 0.47998L335.425 9.39999ZM337.585 8.99998L337.065 1.51998L342.385 0.559982L342.905 8.03999L337.585 8.99998ZM320.145 10.64L319.265 16.92H313.425L315.665 0.959984H321.505L320.865 5.35999L320.145 10.64ZM320.505 10.64L321.265 5.35999H326.065L325.305 10.64H320.505ZM335.305 18.48L329.105 22.96L329.145 15.44L325.465 15.72L325.825 10.44L343.105 9.27998L342.665 14.48L335.345 15L335.305 18.48ZM343.065 19.68L325.225 32.6L323.985 30.28L324.865 26.36L340.505 15.2L343.065 19.68ZM322.385 17.36L323.345 18.48C323.745 18.9067 324.238 19.48 324.825 20.2L324.025 26L323.425 30.12L323.265 31.36C322.305 32.1867 321.225 33.1333 320.025 34.2H305.745L308.145 17.36H313.065L312.425 21.92L312.185 23.76L311.345 29.56H318.585L319.665 21.92H312.825L313.465 17.36H322.385ZM329.025 30.32L335.145 25.84V29.32H340.385L339.665 34.4H331.425C330.838 33.76 330.025 32.92 328.985 31.88L329.025 30.32Z" fill="black"/>
<path d="M369.025 3.31998H362.945L363.305 0.759987H369.385L369.025 3.31998ZM375.425 3.71999L375.025 6.51998L379.585 1.19998L383.705 4.43999L377.825 11.32H383.105L382.425 16.04L362.025 16.08L350.865 28.24L348.225 26.08C348.251 25.3067 348.265 24.2933 348.265 23.04L354.865 16.08H349.345L350.025 11.36H361.785L361.825 11.32H367.905L367.865 11.36H370.945L373.265 8.59998H368.265L367.945 10.92H361.865L362.185 8.59998H353.065L353.745 3.75999L375.425 3.71999ZM360.305 22.28L360.905 17.96H375.705L376.945 19.44L378.145 20.84L376.625 31.64C376.118 32.0667 375.838 32.3067 375.785 32.36L373.385 34.52H352.265L353.465 25.96L360.505 18.32L359.945 22.28L359.625 24.4L359.145 28.04L358.945 29.32L358.825 30.12H370.905L371.185 28.04H359.505L360.025 24.4H371.705L371.985 22.28H360.305Z" fill="black"/>
</svg>
