<svg width="485" height="101" viewBox="0 0 485 101" fill="none" xmlns="http://www.w3.org/2000/svg">
<path d="M56.5752 82L52.6952 80.04L62.0152 65.56L66.9352 68.24L61.4552 76.68H63.1752L59.8552 100.28H54.0152L56.5752 82ZM66.0152 79.68C65.6685 78.64 65.3485 77.7067 65.0552 76.88L70.8952 65.56L76.0552 67.24L74.9352 69.32L72.0152 74.92L69.0552 80.68L66.0152 79.68ZM72.4552 74.92L75.1752 69.76H84.8552L87.3352 72.6L86.3352 79.56H80.7752L81.4152 74.92H72.4552ZM67.2952 95.4H70.1752L72.6952 77.64H78.5352L75.7752 97.12C74.5752 98.1867 73.4952 99.1333 72.5352 99.96H66.6552L67.2952 95.4ZM62.0552 92.36L66.5352 81L71.5752 82.36L66.2552 95.76L63.2552 95L62.0552 92.36ZM83.6152 81.08L84.6152 92.48L83.2552 94.24C83.0419 94.5333 82.8419 94.8 82.6552 95.04L79.3752 95.76L78.2152 82.2L83.6152 81.08Z" fill="black"/>
<path d="M96.1352 67.24H123.175C123.549 67.6667 123.829 68 124.015 68.24L125.615 70.08L124.415 78.84H118.295L119.215 72.56H95.4152L96.1352 67.24ZM100.215 84.96L98.9352 93.8H117.935L117.175 99.12H94.9352C93.9485 97.92 93.1352 96.9733 92.4952 96.28L95.4152 75.92H101.495L101.175 78.2L100.215 84.96ZM124.015 81.64C123.055 82.4667 121.975 83.4133 120.775 84.48H100.655L101.415 79.2H124.335L124.015 81.64ZM117.575 99.12L118.295 93.8L119.175 87.56H124.495L123.295 96.28L120.015 99.12H117.575Z" fill="black"/>
<path d="M144.895 68.28H138.975L139.335 65.76H145.255L144.895 68.28ZM167.175 76.64C166.829 76.9867 166.309 77.4533 165.615 78.04L164.735 78.8H156.015L156.575 74.72H161.735L162.215 71.4H149.215L149.895 66.6H166.455C166.882 67.0533 167.495 67.76 168.295 68.72L167.175 76.64ZM143.735 76.4H137.855L138.255 73.56H134.935L135.615 68.68H148.375L147.695 73.56H144.135L143.735 76.4ZM151.135 71.76H156.815L153.655 79.44L150.495 78.84C150.442 78.7333 150.375 78.6133 150.295 78.48C150.242 78.3467 150.189 78.2133 150.135 78.08L149.215 76.12L151.135 71.76ZM142.375 91.76L136.615 91.2L137.975 81.68H133.055L133.735 76.84H137.775L137.815 76.8H147.935L147.215 81.68H143.815L143.415 84.4L142.375 91.76ZM154.135 84.6L154.775 80.04H163.495C164.482 81.24 165.295 82.1867 165.935 82.88L165.055 89.04L161.815 91.92H146.895L148.535 80.08H154.375L153.735 84.64L153.535 86.32L153.375 87.36H159.415L159.815 84.6H154.135ZM135.255 91.48L135.695 91.52L133.535 99.8L132.175 99.56C131.855 99.1333 131.522 98.6667 131.175 98.16L130.655 97.44L133.735 83.84L136.895 84.2L135.255 91.48ZM143.215 88.64L143.815 84.4H146.895L146.295 88.64H143.215ZM134.695 96.8L136.055 91.56L136.575 91.64L163.375 94.2L164.935 96.6L164.095 100L134.695 96.8Z" fill="black"/>
<path d="M203.175 70.56H197.655L198.255 66.2H203.775L203.175 70.56ZM182.495 67.36L181.655 73.4H175.615L176.495 67.36H182.495ZM207.095 75.76H202.415L200.615 88.68L198.215 90.84C198.162 90.8933 197.882 91.1333 197.375 91.56H188.095L188.735 86.88H195.335L196.935 75.76H183.695L184.375 70.92H207.775L207.095 75.76ZM175.375 81.36H172.335L173.015 76.28H178.895C179.482 76.9733 180.295 77.9333 181.335 79.16L179.455 92.56L202.375 94.64C202.855 95.36 203.375 96.1867 203.935 97.12L203.135 99.88L176.735 97.28L173.615 93.92L175.375 81.36ZM191.415 77.48L192.495 84.32L187.855 85.76L186.735 78.8L191.415 77.48Z" fill="black"/>
<path d="M330.505 71.88H325.065L325.905 65.88H331.345L330.505 71.88ZM332.105 98.12L331.545 97.12L336.545 83.08L338.905 65.88H344.425L341.945 83.56L336.145 100.12L332.985 99.68L332.105 98.12ZM347.105 95.16H349.865L350.465 90.92H353.425L352.465 97.6L351.745 98.24L350.025 99.72H343.865C342.985 98.76 342.425 98.12 342.185 97.8L341.425 96.88L345.745 65.88H351.225L347.105 95.16ZM333.745 68.12L337.665 67.84L336.825 78.36L332.945 78.64L333.745 68.12ZM353.745 78.68L349.665 78.48L351.625 68.08L355.825 68.24L353.745 78.68ZM329.025 82.44L323.465 83.28L324.265 77.4H321.065L321.785 72.28H332.865L332.105 77.4H329.745L329.025 82.44ZM319.705 84.24L321.825 83.96L328.985 82.8V82.84L331.185 82.52L331.145 85L332.745 80.04L336.705 80.4L333.465 90.92L329.465 90.32L330.305 87.56L328.265 87.88L327.025 96.84L326.025 97.72C325.225 98.44 324.465 99.0933 323.745 99.68H318.105L318.785 94.88H321.825L322.665 88.8L319.865 89.24L319.705 84.24ZM353.745 80.12L353.505 89.64L349.265 89.88L349.465 80.4L353.745 80.12Z" fill="black"/>
<path d="M387.425 74.4L381.225 74.84L381.385 66.04L387.585 65.48L387.425 74.4ZM389.585 74L389.065 66.52L394.385 65.56L394.905 73.04L389.585 74ZM372.145 75.64L371.265 81.92H365.425L367.665 65.96H373.505L372.865 70.36L372.145 75.64ZM372.505 75.64L373.265 70.36H378.065L377.305 75.64H372.505ZM387.305 83.48L381.105 87.96L381.145 80.44L377.465 80.72L377.825 75.44L395.105 74.28L394.665 79.48L387.345 80L387.305 83.48ZM395.065 84.68L377.225 97.6L375.985 95.28L376.865 91.36L392.505 80.2L395.065 84.68ZM374.385 82.36L375.345 83.48C375.745 83.9067 376.238 84.48 376.825 85.2L376.025 91L375.425 95.12L375.265 96.36C374.305 97.1867 373.225 98.1333 372.025 99.2H357.745L360.145 82.36H365.065L364.425 86.92L364.185 88.76L363.345 94.56H370.585L371.665 86.92H364.825L365.465 82.36H374.385ZM381.025 95.32L387.145 90.84V94.32H392.385L391.665 99.4H383.425C382.838 98.76 382.025 97.92 380.985 96.88L381.025 95.32Z" fill="black"/>
<path d="M421.025 68.32H414.945L415.305 65.76H421.385L421.025 68.32ZM427.425 68.72L427.025 71.52L431.585 66.2L435.705 69.44L429.825 76.32H435.105L434.425 81.04L414.025 81.08L402.865 93.24L400.225 91.08C400.252 90.3067 400.265 89.2933 400.265 88.04L406.865 81.08H401.345L402.025 76.36H413.785L413.825 76.32H419.905L419.865 76.36H422.945L425.265 73.6H420.265L419.945 75.92H413.865L414.185 73.6H405.065L405.745 68.76L427.425 68.72ZM412.305 87.28L412.905 82.96H427.705L428.945 84.44L430.145 85.84L428.625 96.64C428.118 97.0667 427.838 97.3067 427.785 97.36L425.385 99.52H404.265L405.465 90.96L412.505 83.32L411.945 87.28L411.625 89.4L411.145 93.04L410.945 94.32L410.825 95.12H422.905L423.185 93.04H411.505L412.025 89.4H423.705L423.985 87.28H412.305Z" fill="black"/>
<path d="M46.1293 3.7L45.2293 10.05H6.42935L7.32935 3.7H46.1293ZM29.5293 26.4L28.2293 35.65H20.6793L24.1793 10.55H31.7293L30.5793 19L29.5293 26.4ZM13.7293 35.65H6.22935L8.92935 16.5H16.4293L13.7293 35.65ZM31.0293 19H44.0793L43.1793 25.4H30.1293L31.0293 19ZM41.8793 42.75H0.0793457L0.979346 36.15H42.8793L41.8793 42.75Z" fill="black"/>
<path d="M79.6293 10.2L77.4793 13.7L71.3293 12.05L77.5294 1.35L84.2293 2.55L79.6293 10.2ZM57.6293 9.35H54.8793L55.7293 3L73.0793 2.95L72.2293 9.3H57.6293V9.35ZM92.9294 13.95C93.7294 14.8167 94.746 16 95.9793 17.5L92.7293 41.05C90.996 42.5167 89.646 43.7 88.6793 44.6H83.6293L84.3293 39.65H86.4793L87.0793 35.25H83.8293L82.5293 44.35H76.8293L78.1293 35.25H75.0294L75.8293 30.7H78.7293L79.2293 27.3H76.4793L77.3293 22.75H79.8793L80.3293 19.3H77.9793L78.9793 13.95H89.2293L84.7293 12.5L87.1293 9.25H80.6793L84.1794 3.5H92.2794L94.2794 5.8C94.5127 6.1 94.8627 6.51667 95.3293 7.05L95.0793 8.8L91.0793 13.95H92.9294ZM54.4793 32.1L50.8293 31.3L58.6293 9.85H65.5793L62.8793 17.65H66.9293L69.2293 20.3L66.4293 40.25C65.0627 41.4167 64.046 42.3167 63.3793 42.95H52.9793L54.4793 32.1ZM75.3793 30.7L74.4793 35.25L72.7293 44.95L68.7794 44.65C68.0127 43.6167 67.3293 42.6833 66.7293 41.85L71.9793 13.95H78.4294L77.4293 19.3L76.8293 22.75L75.8293 28.15L75.3293 30.7H75.3793ZM85.5793 22.75H88.7794L89.2794 19.3H86.0793L85.5793 22.75ZM61.2293 22.8L59.1293 37.75H61.5293L63.6293 22.8H61.2293ZM87.6794 30.7L88.1293 27.3H84.9293L84.4294 30.7H87.6794Z" fill="black"/>
<path d="M129.279 8.5L130.129 2.25H142.479L144.829 4.9C145.329 5.5 145.579 5.8 145.579 5.8L143.379 21.4L142.129 22.5C141.129 23.4 140.179 24.2167 139.279 24.95H119.129L122.279 2.25H129.579L128.729 8.5L127.279 18.7H136.429L137.879 8.5H129.279ZM116.029 2.9L114.979 10.2H107.729L108.779 2.9H116.029ZM103.479 14.55H111.579L114.679 18.1L112.579 33.1L113.929 32.8L114.679 38.7L107.029 41.15L104.829 36.4L107.029 20.7H102.529L103.479 14.55ZM138.679 27.8L142.779 38.15L141.229 41.75L137.379 43.65L132.329 31L138.679 27.8ZM115.479 42C115.446 41.6 115.413 41.25 115.379 40.95C115.346 40.65 115.313 40.3833 115.279 40.15C115.279 40.1167 115.196 39.5 115.029 38.3L122.479 28.15L127.729 31.5L118.629 43.95L115.479 42Z" fill="black"/>
<path d="M191.429 40.85C190.229 41.8833 188.879 43.0667 187.379 44.4H176.629L177.529 38.3H184.679L189.729 2.25H196.779L191.429 40.85ZM155.379 3.15H162.679L161.879 9.1L161.529 11.35L161.229 13.6H171.029L171.679 9.1H162.329L163.179 3.15H176.179C177.346 4.48333 178.363 5.66667 179.229 6.7L177.929 15.95L173.879 19.55H153.079L155.379 3.15ZM183.779 33.3H177.529L181.029 7.85H187.329L183.779 33.3ZM161.429 37.85H167.679L168.829 29.5H163.629L155.829 45.25L151.329 43.85C150.929 42.65 150.513 41.5 150.079 40.4L155.529 29.5H151.229L152.129 23.1H158.779L160.179 20.3H168.229L166.829 23.1H173.779L176.879 26.65L174.929 40.45L170.929 44H160.579L161.429 37.85Z" fill="black"/>
<path d="M296.371 25L293.721 21.3C294.154 19.4667 294.454 18.2 294.621 17.5L317.721 0.5L323.121 5.15L321.671 6.2L296.371 25ZM330.871 24.85L315.821 11.15L322.071 6.5L334.571 17.25C334.537 18.25 334.521 19.5167 334.521 21.05L330.871 24.85ZM318.771 16L314.721 44.6H307.121L311.171 16H318.771Z" fill="black"/>
<path d="M366.621 15.55L362.421 18.75L360.321 16.2L361.021 11.75L375.721 0.649998L380.471 4.95L379.371 5.8L379.121 5.95L372.871 10.8L368.821 13.85L366.621 15.55ZM358.071 19.7H351.271L352.771 9.2H344.621L345.521 2.9H356.871L359.921 6.45L359.071 12.5L358.671 15.25L358.071 19.7ZM386.421 11.3L386.521 12.35C386.587 13.55 386.621 14.45 386.621 15.05L383.821 18.45L382.421 17.4L382.321 17.25L380.571 15.9L378.021 13.85L373.821 10.6L379.471 6.25L386.421 11.3ZM351.321 28.3L351.571 26.4H342.521L344.571 11.8H350.221L349.021 20.15H359.121L356.271 40.3L352.221 43.85H340.871L341.671 38.25H349.921L350.521 34.05L351.321 28.3ZM377.171 13.85L380.471 16.5L380.121 19.05H366.121L366.521 16.2L369.571 13.85H377.171ZM379.021 36.7H372.371L373.421 34.15L368.871 34.65V21.4L374.971 20.7L374.921 30.4L378.921 20.35L384.921 21.85L379.021 36.7ZM366.821 35.45L360.571 36.15V22.65L366.821 21.95V35.45ZM341.221 36.1L340.871 30.5L350.821 28.35L350.021 34.2L341.221 36.1ZM358.171 37.15H383.071L382.171 43.45H357.271L358.171 37.15Z" fill="black"/>
<path d="M406.021 3.05L404.921 11.2H396.771L397.921 3.05H406.021ZM423.221 36.5H415.621L419.271 10.25H408.321L409.221 3.7L436.771 3.65L435.871 10.25H426.871L425.621 19.15L424.421 27.9L423.221 36.5ZM392.821 14.7H399.971C400.537 15.4333 401.554 16.6167 403.021 18.25L400.571 35.8L403.721 34.55L404.121 37H432.471L431.521 43.55H402.671L403.021 40.9L395.621 44L392.821 39.1L395.371 21.2H391.921L392.821 14.7ZM412.471 36.5H405.821L408.671 16.05H415.321L412.471 36.5ZM425.071 26.6L425.971 20.05H433.371L432.421 26.6H425.071Z" fill="black"/>
<path d="M455.071 9.25L448.071 9.3L448.121 9.25H444.171L445.021 3L462.571 2.95L461.721 9.2H455.071V9.25ZM482.621 19.15H475.921L477.371 8.95H462.721L463.521 2.95H481.371C482.537 4.28333 483.554 5.46667 484.421 6.5L482.621 19.15ZM440.121 31L447.921 9.8L454.871 9.7L452.171 17.3H456.771L458.271 19.05L459.821 20.9L457.271 39.05L453.221 42.65H443.221L444.721 32.05L440.121 31ZM484.421 21.8L481.771 40.5C481.071 41.1333 480.537 41.6 480.171 41.9L477.721 44.05H465.371L466.171 38.35H475.221L477.021 25.3H465.071L462.021 21.7L463.321 12.45H469.871L468.871 19.65H482.571L484.421 21.8ZM451.671 23L449.721 36.9H452.121L454.071 23H451.671ZM474.971 28.45L474.121 34.55H459.121L459.971 28.45H474.971Z" fill="black"/>
</svg>
