<svg width="312" height="64" viewBox="0 0 312 64" fill="none" xmlns="http://www.w3.org/2000/svg">
<path d="M0.435059 28.62C0.528392 27.5934 0.668392 25.89 0.855058 23.51L23.3251 0.550049L30.1151 7.62005L10.6551 27.43H47.3351L50.9051 32.54L47.4051 57.0401C45.6317 58.5334 43.7417 60.1901 41.7351 62.0101H24.0251L25.4251 52.84H37.3951L39.6351 36.74H8.34506L9.53506 28.55L4.84506 33.31L0.435059 28.62ZM61.2651 24.07L60.0051 29.32L54.1251 33.59L51.3251 29.32L49.9951 27.43L36.6951 7.34005L45.7951 0.900048L61.2651 24.07ZM16.3251 37.37H28.9951L8.48506 62.57L3.44506 58.6501C3.44506 57.4834 3.42172 56.6434 3.37506 56.1301L3.30506 53.5401L16.3251 37.37Z" fill="black"/>
<path d="M121.255 5.52005H110.685L110.755 1.88005H121.325L121.255 5.52005ZM143.795 13.71H86.7451L87.7951 6.15005H144.845L143.795 13.71ZM101.305 22.39L102.285 15.74H135.045C135.838 16.72 136.912 17.9567 138.265 19.45L137.075 27.85L132.805 31.63H89.0551L91.2951 15.74H101.585L100.675 22.39L100.395 24.28L100.325 24.98H127.205L127.625 22.39H101.305ZM127.345 44.7201H140.435L139.315 52.7001H80.0951L81.2151 44.7201H110.825L119.785 41.3601H83.5951L84.6451 33.87L132.245 33.66L134.275 36.1101L135.465 37.44L134.905 41.43L127.345 44.7201ZM104.875 53.4001H115.515L114.745 58.7201L110.475 62.57H91.3651L92.3451 55.5H104.595L104.875 53.4001Z" fill="black"/>
<path d="M182.925 12.59H172.565L175.575 3.21005L185.655 4.61005L182.925 12.59ZM213.585 29.46H203.085L203.645 25.6101L213.375 14.62H195.875L197.135 5.80005H221.845C223.385 7.48005 224.365 8.60005 224.785 9.16005L226.115 10.77L225.625 14.55L213.795 27.92L213.585 29.46ZM169.415 22.18H165.845L167.035 13.29H188.735L192.025 17C192.725 17.84 193.075 18.26 193.075 18.26L192.515 22.18L184.955 43.53L177.815 35.83L182.855 22.18H179.215L175.225 34.0101L177.465 36.67L177.535 36.53L184.675 44.3L188.945 49.0601C188.758 51.4401 188.618 53.1434 188.525 54.1701L183.905 58.93L175.785 49.62L169.135 42.2001L164.655 36.9501L169.415 22.18ZM223.385 39.33H212.185L209.665 57.6001C208.312 58.8134 206.398 60.47 203.925 62.57H190.415L191.605 53.96L199.655 54.1701L201.755 39.33H190.275L191.535 30.16H224.645L223.385 39.33ZM168.785 42.9L175.435 50.39L168.785 63.34L163.115 60.82L161.715 55.9901L168.785 42.9Z" fill="black"/>
<path d="M249.915 17.84L251.175 8.81005H265.315L268.045 2.51005L279.245 4.47005L278.405 6.36005L270.915 22.95L266.925 31.91H266.785L254.045 60.4001L247.745 58.23C247.278 57.2034 246.672 55.6401 245.925 53.5401L261.395 17.84H249.915ZM273.925 17.84L277.985 8.81005H311.025L309.765 17.84H273.925ZM267.555 32.05L271.615 22.95H300.735L305.075 27.92L304.445 31.91L292.195 45.35L282.885 41.1501L291.145 32.05H274.345L282.395 41.64L292.755 46.3301L301.435 51.16C301.482 51.58 301.528 51.9534 301.575 52.28C301.622 52.6067 301.668 52.91 301.715 53.19L302.135 56.55L297.515 62.3601L281.275 52.84L272.455 46.19L265.385 37.16L271.895 32.05H267.555ZM271.755 46.4701L280.365 53.05L262.235 62.7101L259.295 57.46L261.325 52.07L271.755 46.4701Z" fill="black"/>
</svg>
