<svg width="191" height="247" viewBox="0 0 191 247" fill="none" xmlns="http://www.w3.org/2000/svg">
<path d="M77.9081 54.2582L81.7676 53.3666L77.9081 54.2582C79.1512 59.6394 84.5212 62.9939 89.9023 61.7508L89.002 57.8534L89.9023 61.7508L118.994 55.0302L89.694 101.934C86.768 106.619 88.1932 112.788 92.8772 115.714C97.5613 118.64 103.73 117.215 106.656 112.53L135.956 65.6262L142.677 94.7178C143.92 100.099 149.29 103.453 154.671 102.21C160.052 100.967 163.407 95.5972 162.164 90.2161L150.009 37.6018C148.766 32.2207 143.396 28.8662 138.015 30.1093L85.4006 42.264C80.0195 43.5071 76.6649 48.8771 77.9081 54.2582Z" fill="white" stroke="black" stroke-width="8"/>
<rect x="4" y="135" width="108" height="108" rx="54" fill="white" stroke="black" stroke-width="8"/>
<path d="M74.8127 197.048C71.0926 197.048 68.0509 199.04 66.6343 202.131L48.6524 194.482C49.7013 192.857 50.2776 190.866 50.2776 188.718C50.2776 187.828 50.1725 186.937 49.9625 186.098L61.4437 177.19C62.9653 178.343 64.9056 179.024 67.0545 179.024C72.2451 179.024 76.1242 175.147 76.1242 170.013C76.1242 164.878 72.2436 161 67.0545 161C61.8638 161 58.0373 164.878 58.0373 170.013C58.0373 171.323 58.2999 172.528 58.7185 173.575L48.1272 181.697C46.0308 178.553 42.5704 176.352 38.6388 176.352C37.1098 176.348 35.5951 176.646 34.1816 177.229C32.7682 177.812 31.4839 178.669 30.4024 179.75C29.321 180.831 28.4637 182.115 27.8798 183.528C27.2959 184.941 26.9969 186.456 27 187.985C26.9971 189.513 27.2963 191.028 27.8802 192.441C28.4642 193.854 29.3215 195.137 30.403 196.218C31.4844 197.299 32.7686 198.156 34.182 198.739C35.5953 199.322 37.1099 199.62 38.6388 199.616C41.0503 199.616 43.3042 198.989 45.1395 197.836L65.7969 206.638C66.0595 211.51 69.8336 215.125 74.8127 215.125C80.0048 215.125 83.8314 211.249 83.8314 206.114C83.8314 200.979 79.9508 197.048 74.8141 197.048H74.8127Z" fill="black"/>
</svg>
