<svg width="224" height="93" viewBox="0 0 224 93" fill="none" xmlns="http://www.w3.org/2000/svg">
<path fill-rule="evenodd" clip-rule="evenodd" d="M210.831 16.0532C212.548 10.7998 217.535 7 223.42 7V36.4254C223.42 49.0653 213.056 59.3119 200.272 59.3119C187.487 59.3119 177.123 49.0653 177.123 36.4254C177.123 23.7856 187.487 13.539 200.272 13.539C204.075 13.539 207.665 14.446 210.831 16.0532ZM200.272 26.617C194.793 26.617 190.351 31.0084 190.351 36.4254C190.351 41.8425 194.793 46.2339 200.272 46.2339C205.751 46.2339 210.192 41.8425 210.192 36.4254C210.192 31.0084 205.751 26.617 200.272 26.617ZM186.807 68.8039L222.742 59.284C224.633 66.2607 220.445 73.4318 213.389 75.3012L177.454 84.8211C175.563 77.8444 179.751 70.6733 186.807 68.8039Z" fill="black"/>
<path d="M132.994 44.4971L140.8 36.7275C141.529 36.0014 142.712 36.0014 143.441 36.7275C144.171 37.4536 144.171 38.6308 143.441 39.3569L135.636 47.1265L143.441 54.8962C144.171 55.6222 144.171 56.7994 143.441 57.5255C142.712 58.2516 141.529 58.2516 140.8 57.5255L132.994 49.7559L125.189 57.5255C124.459 58.2516 123.277 58.2516 122.547 57.5255C121.818 56.7994 121.818 55.6222 122.547 54.8962L130.353 47.1265L122.547 39.3569C121.818 38.6308 121.818 37.4536 122.547 36.7275C123.277 36.0014 124.459 36.0014 125.189 36.7275L132.994 44.4971Z" fill="black"/>
<rect x="25.0606" y="1.63947" width="59.4894" height="49.1842" rx="3.74736" fill="black" stroke="black" stroke-width="3.27894"/>
<rect x="27.8709" y="49.6526" width="59.4894" height="17.8" rx="3.74736" fill="black" stroke="black" stroke-width="3.27894"/>
<path d="M88.9999 72.6648V59.9578L81.388 64.1736L71.4341 90.9907L88.3775 74.1603C88.7758 73.7646 88.9999 73.2263 88.9999 72.6648Z" fill="black"/>
<path d="M18.1514 8.43159L24.8264 1.75659L30.6816 9.01711L18.1514 8.43159Z" fill="black"/>
<path d="M77.7578 57.7329L84.4328 51.0579L77.7578 48.4816V57.7329Z" fill="black"/>
<rect x="18.3945" y="9.02631" width="58.7684" height="48.4631" rx="3.38684" fill="white" stroke="black" stroke-width="4"/>
<path d="M13.4763 60.6605C13.4763 58.79 14.9927 57.2736 16.8632 57.2736H75.6499C77.5204 57.2736 79.0368 58.79 79.0368 60.6605V70.9657C79.0368 72.8362 77.5204 74.3525 75.6499 74.3525H13.4763V60.6605Z" fill="white" stroke="black" stroke-width="4"/>
<path d="M18.3856 51.5262L13.3501 56.5618H18.3856V51.5262Z" fill="black"/>
<path d="M4.74068 88.0149L12.6726 74.1368H79.2295L70.9788 88.5726C70.3758 89.6277 69.2537 90.2789 68.0384 90.2789H6.05441C4.89251 90.2789 4.16413 89.0236 4.74068 88.0149Z" fill="white" stroke="black" stroke-width="4"/>
<mask id="path-12-inside-1" fill="white">
<rect x="24.3579" y="15.4579" width="46.8421" height="35.6" rx="1.63947"/>
</mask>
<rect x="24.3579" y="15.4579" width="46.8421" height="35.6" rx="1.63947" fill="black" stroke="black" stroke-width="6.55789" mask="url(#path-12-inside-1)"/>
<rect x="19.908" y="63.9395" width="6.08947" height="4" rx="2" fill="black"/>
<rect x="54.1025" y="63.9395" width="18.5026" height="4" rx="2" fill="black"/>
<path d="M57.6157 33.2315C57.6157 39.1816 52.7922 44.0052 46.842 44.0052C40.8919 44.0052 36.0684 39.1816 36.0684 33.2315C36.0684 27.2814 40.8919 22.4578 46.842 22.4578C48.2484 22.4578 49.5919 22.7273 50.8236 23.2175" stroke="white" stroke-width="3.24392"/>
<circle cx="46.842" cy="33.258" r="2.81052" stroke="white" stroke-width="2.91121"/>
<circle cx="52.9318" cy="25.0606" r="2.57631" stroke="white" stroke-width="2.91121"/>
<path d="M49.1929 31.6074H59.2639V33.2294L59.0297 34.8513H57.3902H49.1929V31.6074Z" fill="white"/>
</svg>
