<svg width="52" height="74" viewBox="0 0 52 74" fill="none" xmlns="http://www.w3.org/2000/svg">
<path d="M33.5643 40.9447L41.1565 46.7745V66.5566H10.8435V46.7745L18.4358 40.9447C19.1753 40.3769 19.6087 39.4976 19.6087 38.5653C19.6087 37.633 19.1753 36.7536 18.4358 36.1858L10.8435 30.356V10.574H41.1565V30.356L33.5643 36.1858C32.8248 36.7536 32.3913 37.633 32.3913 38.5653C32.3913 39.4976 32.8248 40.3769 33.5643 40.9447Z" fill="#FFB800" stroke="black" stroke-width="6" stroke-linejoin="round"/>
<rect x="3.95654" y="3.68701" width="44.087" height="7.77391" rx="3.88696" fill="#FFB800" stroke="black" stroke-width="6"/>
<rect x="3.95654" y="63.1653" width="44.087" height="7.77391" rx="3.88696" fill="#FFB800" stroke="black" stroke-width="6"/>
<rect x="15.3566" y="51.4" width="21.287" height="6.88696" rx="3.44348" fill="black"/>
<path d="M25.5382 34.5113C25.9927 34.8694 26.6335 34.8694 27.088 34.5113L33.8059 29.2184C34.7393 28.483 34.2192 26.9827 33.0309 26.9827H19.5953C18.407 26.9827 17.8869 28.483 18.8203 29.2184L25.5382 34.5113Z" fill="black"/>
</svg>
