<svg width="576" height="115" viewBox="0 0 576 115" fill="none" xmlns="http://www.w3.org/2000/svg">
<path d="M6.1081 92.216C5.4921 92.6267 5.00811 93.1693 4.65611 93.844C4.30411 94.4893 4.12811 95.1787 4.12811 95.912C4.12811 96.9093 4.4801 97.7307 5.1841 98.376C5.88811 99.0213 6.75344 99.3147 7.78011 99.256L14.3801 98.816L13.7641 104.712L1.48811 103.876L0.256104 110.916L16.3161 110.872C17.2841 110.872 18.1494 110.535 18.9121 109.86C19.7041 109.185 20.1734 108.364 20.3201 107.396L21.8161 97.408C21.8454 97.2613 21.8601 97.056 21.8601 96.792C21.8601 95.6773 21.4934 94.768 20.7601 94.064C20.0561 93.3307 19.1468 92.964 18.0321 92.964H15.3041L21.8601 87.024C22.3588 86.6133 22.7401 86.1147 23.0041 85.528C23.2681 84.9413 23.4001 84.3253 23.4001 83.68C23.4001 82.536 23.0188 81.5827 22.2561 80.82C21.4934 80.0573 20.5254 79.676 19.3521 79.676H4.52411L3.73211 87.112L14.4681 86.452L6.1081 92.216Z" fill="black"/>
<path d="M30.0637 84.032C30.2397 82.8 30.8264 81.7587 31.8237 80.908C32.821 80.0573 33.921 79.632 35.1237 79.632H48.7637C49.849 79.632 50.7437 79.984 51.4477 80.688C52.181 81.392 52.5477 82.2867 52.5477 83.372C52.5477 83.6653 52.533 83.8853 52.5037 84.032L49.4237 106.252C49.2477 107.455 48.661 108.481 47.6637 109.332C46.6664 110.212 45.5664 110.652 44.3637 110.652H30.7237C29.6384 110.652 28.729 110.285 27.9957 109.552C27.2917 108.848 26.9397 107.953 26.9397 106.868C26.9397 106.604 26.9544 106.399 26.9837 106.252L30.0637 84.032ZM36.4877 85.88L33.8917 104.36H43.0437L45.6397 85.88H36.4877Z" fill="black"/>
<path d="M73.3119 83.46L73.2239 78.004L88.8439 75.892L89.0199 81.26L83.6519 81.964L73.3119 83.46ZM94.6519 98.552L97.8199 76.112L103.672 76.068L100.504 98.552H94.6519ZM109.612 91.292L107.412 94.064L104.332 94.636L103.672 81.436L109.04 80.468L109.612 91.292ZM88.8439 95.076L87.4799 92.392L91.1319 81.392L96.1479 82.536L91.7479 95.824L88.8439 95.076ZM68.7799 104.712L68.2959 102.468L73.7959 91.952H71.0679L71.8159 86.54H77.0519L77.4919 83.284L83.6079 82.404L82.9919 86.54H88.2279L87.4799 91.952H84.6639L86.7319 97.936L85.5439 100.312L83.0359 101.588L81.5839 96.748L79.2079 113.644H73.6639L75.9079 97.716L71.2879 106.296L68.7799 104.712ZM107.852 101.412L87.0399 114.04L85.4999 111.092L86.5999 107.836L105.212 96.264L107.852 101.412Z" fill="black"/>
<path d="M119.248 93.8L114.98 91.644L125.232 75.716L130.644 78.664L124.616 87.948H126.508L122.856 113.908H116.432L119.248 93.8ZM129.632 91.248C129.251 90.104 128.899 89.0773 128.576 88.168L135 75.716L140.676 77.564L139.444 79.852L136.232 86.012L132.976 92.348L129.632 91.248ZM136.716 86.012L139.708 80.336H150.356L153.084 83.46L151.984 91.116H145.868L146.572 86.012H136.716ZM131.04 108.54H134.208L136.98 89.004H143.404L140.368 110.432C139.048 111.605 137.86 112.647 136.804 113.556H130.336L131.04 108.54ZM125.276 105.196L130.204 92.7L135.748 94.196L129.896 108.936L126.596 108.1L125.276 105.196ZM148.992 92.788L150.092 105.328L148.596 107.264C148.361 107.587 148.141 107.88 147.936 108.144L144.328 108.936L143.052 94.02L148.992 92.788Z" fill="black"/>
<path d="M167.692 84.076L172.312 83.592L174.556 88.124L161.884 89.4L160.344 85L167.34 75.364L172.136 78.048L167.692 84.076ZM172.796 83.548L171.652 81.26L177.108 78.532L180.628 86.144L181.992 76.464H188.02L187.536 79.764L186.744 85.352L186.172 89.444H190.264L189.516 94.812H182.564C182.564 94.812 182.344 94.548 181.904 94.02L179.836 91.688L180.452 87.288L175.788 89.708L175.04 88.124L172.796 83.548ZM187.184 85.22L187.976 79.632L195.28 77.212L196.248 82.404L187.184 85.22ZM189.912 94.812L190.66 89.444L191.144 86.144H196.688L195.896 91.688C194.84 92.5973 193.652 93.6387 192.332 94.812H189.912ZM165.976 108.54H169.364L169.716 106.12H165.14L165.712 101.94H170.332L170.596 100.048H165.976L166.504 96.352H171.08L171.388 94.416H166.372L166.24 95.34L164.656 106.472L163.688 113.512H157.616L160.872 90.104H174.732C176.052 91.6293 176.947 92.6853 177.416 93.272L175.04 110.256L171.476 113.38H165.316L165.976 108.54ZM187.888 107.792L187.096 113.292H180.012C178.985 112.148 178.091 111.092 177.328 110.124L179.264 96.176H185.248L184.764 99.52L183.972 105.064L183.62 107.792H187.888ZM184.456 104.536L185.204 99.388L192.376 96.572L193.608 101.368L184.456 104.536ZM193.476 110.124C192.625 110.887 191.819 111.591 191.056 112.236C190.821 112.441 190.601 112.632 190.396 112.808C190.22 112.984 190.044 113.145 189.868 113.292H187.536L188.284 107.792L188.724 104.712H194.224L193.476 110.124Z" fill="black"/>
<path d="M226.564 81.92L227.312 76.42H238.18L240.248 78.752C240.688 79.28 240.908 79.544 240.908 79.544L238.972 93.272L237.872 94.24C236.992 95.032 236.156 95.7507 235.364 96.396H217.632L220.404 76.42H226.828L226.08 81.92L225.728 84.384L224.804 90.896H232.856L234.132 81.92H226.564ZM214.904 76.992L213.98 83.416H207.6L208.524 76.992H214.904ZM203.86 87.244H210.988L213.716 90.368L211.868 103.568L213.056 103.304L213.716 108.496L206.984 110.652L205.048 106.472L206.984 92.656H203.024L203.86 87.244ZM234.836 98.904L238.444 108.012L237.08 111.18L233.692 112.852L229.248 101.72L234.836 98.904ZM214.42 111.4C214.391 111.048 214.361 110.74 214.332 110.476C214.303 110.212 214.273 109.977 214.244 109.772C214.244 109.743 214.171 109.2 214.024 108.144L220.58 99.212L225.2 102.16L217.192 113.116L214.42 111.4Z" fill="black"/>
<path d="M281.256 110.388C280.2 111.297 279.012 112.339 277.692 113.512H268.232L269.024 108.144H275.316L279.76 76.42H285.964L281.256 110.388ZM249.532 77.212H255.956L255.252 82.448L254.944 84.428L254.68 86.408H263.304L263.876 82.448H255.648L256.396 77.212H267.836C268.863 78.3853 269.757 79.4267 270.52 80.336L269.376 88.476L265.812 91.644H247.508L249.532 77.212ZM274.524 103.744H269.024L272.104 81.348H277.648L274.524 103.744ZM254.856 107.748H260.356L261.368 100.4H256.792L249.928 114.26L245.968 113.028C245.616 111.972 245.249 110.96 244.868 109.992L249.664 100.4H245.88L246.672 94.768H252.524L253.756 92.304H260.84L259.608 94.768H265.724L268.452 97.892L266.736 110.036L263.216 113.16H254.108L254.856 107.748Z" fill="black"/>
<path d="M301.716 85.132L298.988 83.768L298.548 81.568C298.489 81.392 298.445 81.2307 298.416 81.084C298.387 80.908 298.357 80.7467 298.328 80.6L302.42 74L307.656 76.332L307.348 76.816L301.716 85.132ZM303.872 95.076L299.164 101.368L297.624 103.216L295.336 101.588C295.277 101.119 295.248 100.796 295.248 100.62C295.072 99.124 294.984 98.376 294.984 98.376L298.064 94.328L294.632 94.592L294.808 91.688C295.483 91.0133 296.289 90.1627 297.228 89.136L305.984 88.3L303.784 86.232L307.48 82.8L312.716 87.684L317.424 87.2L319.8 81.92H304.356L307.832 76.816H323.276C323.687 77.2853 323.995 77.652 324.2 77.916L325.96 79.94L325.608 82.536L321.076 92.392L301.848 94.02L303.74 95.076H303.872ZM324.288 97.1L323.98 99.476L319.272 109.728L292.344 112.588L292.432 109.684L294.764 107.088L303.652 105.988L301.76 104.316L305.324 100.708L310.384 105.064L315.62 104.404L318.128 98.86L300.572 100.18L304.356 95.032L321.384 93.932L324.288 97.1Z" fill="black"/>
<path d="M359.796 76.156L356.628 98.904H349.896L353.108 76.156H359.796ZM368.64 79.016L371.28 92.788L369.432 95.692L365.56 97.056L362.436 81.172L368.64 79.016ZM343.076 79.456L348.884 81.084L341.712 98.42L338.148 97.408L336.872 94.548L343.076 79.456ZM337.796 107.484L368.112 98.112L369.652 103.92L336.828 113.996L335.948 110.608L337.796 107.484Z" fill="black"/>
<path d="M382.456 96.44L380.124 93.184C380.505 91.5707 380.769 90.456 380.916 89.84L401.244 74.88L405.996 78.972L404.72 79.896L382.456 96.44ZM412.816 96.308L399.572 84.252L405.072 80.16L416.072 89.62C416.043 90.5 416.028 91.6147 416.028 92.964L412.816 96.308ZM402.168 88.52L398.604 113.688H391.916L395.48 88.52H402.168Z" fill="black"/>
<path d="M444.276 88.124L440.58 90.94L438.732 88.696L439.348 84.78L452.284 75.012L456.464 78.796L455.496 79.544L455.276 79.676L449.776 83.944L446.212 86.628L444.276 88.124ZM436.752 91.776H430.768L432.088 82.536H424.916L425.708 76.992H435.696L438.38 80.116L437.632 85.44L437.28 87.86L436.752 91.776ZM461.7 84.384L461.788 85.308C461.847 86.364 461.876 87.156 461.876 87.684L459.412 90.676L458.18 89.752L458.092 89.62L456.552 88.432L454.308 86.628L450.612 83.768L455.584 79.94L461.7 84.384ZM430.812 99.344L431.032 97.672H423.068L424.872 84.824H429.844L428.788 92.172H437.676L435.168 109.904L431.604 113.028H421.616L422.32 108.1H429.58L430.108 104.404L430.812 99.344ZM453.56 86.628L456.464 88.96L456.156 91.204H443.836L444.188 88.696L446.872 86.628H453.56ZM455.188 106.736H449.336L450.26 104.492L446.256 104.932V93.272L451.624 92.656L451.58 101.192L455.1 92.348L460.38 93.668L455.188 106.736ZM444.452 105.636L438.952 106.252V94.372L444.452 93.756V105.636ZM421.924 106.208L421.616 101.28L430.372 99.388L429.668 104.536L421.924 106.208ZM436.84 107.132H458.752L457.96 112.676H436.048L436.84 107.132Z" fill="black"/>
<path d="M478.948 77.124L477.98 84.296H470.808L471.82 77.124H478.948ZM494.084 106.56H487.396L490.608 83.46H480.972L481.764 77.696L506.008 77.652L505.216 83.46H497.296L496.196 91.292L495.14 98.992L494.084 106.56ZM467.332 87.376H473.624C474.123 88.0213 475.017 89.0627 476.308 90.5L474.152 105.944L476.924 104.844L477.276 107H502.224L501.388 112.764H476L476.308 110.432L469.796 113.16L467.332 108.848L469.576 93.096H466.54L467.332 87.376ZM484.624 106.56H478.772L481.28 88.564H487.132L484.624 106.56ZM495.712 97.848L496.504 92.084H503.016L502.18 97.848H495.712Z" fill="black"/>
<path d="M522.112 82.58L515.952 82.624L515.996 82.58H512.52L513.268 77.08L528.712 77.036L527.964 82.536H522.112V82.58ZM546.356 91.292H540.46L541.736 82.316H528.844L529.548 77.036H545.256C546.283 78.2093 547.177 79.2507 547.94 80.16L546.356 91.292ZM508.956 101.72L515.82 83.064L521.936 82.976L519.56 89.664H523.608L524.928 91.204L526.292 92.832L524.048 108.804L520.484 111.972H511.684L513.004 102.644L508.956 101.72ZM547.94 93.624L545.608 110.08C544.992 110.637 544.523 111.048 544.2 111.312L542.044 113.204H531.176L531.88 108.188H539.844L541.428 96.704H530.912L528.228 93.536L529.372 85.396H535.136L534.256 91.732H546.312L547.94 93.624ZM519.12 94.68L517.404 106.912H519.516L521.232 94.68H519.12ZM539.624 99.476L538.876 104.844H525.676L526.424 99.476H539.624Z" fill="black"/>
<path d="M569.852 81.7L569.236 86.056C569.089 86.9653 568.649 87.7427 567.916 88.388L564 91.468C563.413 91.9373 562.944 92.4947 562.592 93.14C562.269 93.7853 562.079 94.46 562.02 95.164L561.8 100.004H566.42L567.652 95.032C567.828 94.1813 568.297 93.4773 569.06 92.92L573.152 89.972C573.768 89.532 574.267 89.004 574.648 88.388C575.029 87.7427 575.235 87.0827 575.264 86.408L575.924 80.644C576.041 79.4707 575.719 78.4733 574.956 77.652C574.223 76.8307 573.269 76.42 572.096 76.42H564.132C562.871 76.42 561.741 76.8747 560.744 77.784C559.747 78.664 559.189 79.7347 559.072 80.996L558.676 85.176L563.868 84.956L564.528 81.7H569.852ZM566.2 108.672L566.684 102.512L561.316 102.952L560.216 108.98L566.2 108.672Z" fill="black"/>
<path d="M105.2 5.15005L105.95 0.0500488H100.05C98.65 0.0500488 97.3834 0.550049 96.25 1.55005C95.15 2.51672 94.5167 3.68338 94.3501 5.05005L91.05 28.2001H96.1501L99.4001 5.15005H105.2Z" fill="black"/>
<path d="M134.75 9.10005H127.6V9.00005H120.65L121.5 2.95005H160.15L159.3 9.00005H134.8L134.75 9.10005ZM142.95 23.5L141.15 29.2001H125.1L123.65 27.05L122.2 24.9501L127.4 9.55005H134.65L133.4 13.2L131.5 18.9001L129.95 23.5H142.95ZM147.3 34.05H140.1L143.55 22.9L144.85 18.9001H131.95L133.9 13.2H149.65C150.683 14.7667 151.65 16.15 152.55 17.35L147.3 34.05ZM156.15 40.7001H114.9L115.75 34.5H157.05L156.15 40.7001Z" fill="black"/>
<path d="M197.7 4.90005H191.45L191.2 0.800048L197.5 0.500049L197.7 4.90005ZM207.6 4.90005H201.25L202.75 0.60005L209.2 0.500049L207.6 4.90005ZM169 2.35005H188L187.1 8.70005H185.85L182.9 29.9501L175.95 31L176.5 27.35H174.15L174.9 22H177.25L177.8 18H175.45L176.2 12.6501H178.55L179.1 8.70005H168.1L169 2.35005ZM200.85 19.15H193.35L194.9 11.9001H187.25L188.2 5.35005H210.65L209.7 11.9001H202.35L200.85 19.15ZM173.1 31.4501L166.3 32.4501L169.6 9.15005H176.25L175.75 12.6501L175 18L174.45 22L173.7 27.35L173.6 28.05L173.1 31.4501ZM198.8 26.15L196.95 29.55L202.15 26.75L206.5 37.8C206.3 38.1667 206.15 38.4834 206.05 38.75C205.95 39.0167 205.867 39.2334 205.8 39.4001L204.9 41.3501L200.95 43.5L196.1 31.1L189.15 43.55L185.05 41.9001L184 38.4001L190.85 26.15H184.45L185.35 19.6H209.35L208.4 26.15H198.8ZM183.95 36.25L181.95 36.6L181.05 42.9501H174.3L175.05 37.6L164.55 39.2001L164.4 33.2001L165.65 33.05L173.05 31.9001L175.9 31.5L184.1 30.25L183.95 36.25Z" fill="black"/>
<path d="M240.85 22.75L243.5 28.5L239.9 34.9501L237.25 33.9501L232.85 35.3L231.15 28.1501L231.1 28.3L228.7 22.1L226.25 15.0001L224.2 29.9L228.35 22.75L230.75 28.9001L227.25 35.3L223.65 34L222.3 43.5H215.25L221.1 1.90005H228.1L227.25 7.75005L226.75 11.3L231.25 9.75005L232.95 15.45V15.5L233.2 16.3L233.25 16.1501L235.95 22.4L237.55 28.4L240.85 22.75ZM260.85 5.45005L256.15 39.4501L253.85 41.4001L252.05 43H243.5L244.15 38.4001H249.05L249.7 33.6501L245.55 34.9501L243.95 28.6501L244 28.6L243.9 28.1501L243.8 27.9501V28L241.2 22.2L239.25 15.5L236.25 21.7001L233.55 15.55L236.5 9.65005L239.9 10.7501L243.95 9.40005L245.65 16.3L245.75 16.1501L248.75 22.6L250.4 28.6L252.45 14.1L248.8 21.5L246.05 15.55L249.2 9.20005L252.95 10.45L253.35 7.75005H227.8L228.6 1.90005H257.8L260.85 5.45005Z" fill="black"/>
<path d="M295 7.70005H287.6L288.6 0.60005H296L295 7.70005ZM280.1 8.15005L277.05 14.5001H277L273.95 21L270.05 19.7001L269.4 17.85C269.167 17.35 268.967 16.8334 268.8 16.3L275.8 1.45005L282.2 3.65005L280.05 8.15005H280.1ZM293.1 21.25H285.7L286.65 14.5001H277.55L280.55 8.15005H310.4L309.5 14.5001H294.05L293.1 21.25ZM291.2 35H283.75L284.7 28.1501H270.25L271.1 21.75H306.35L305.5 28.1501H292.15L291.2 35ZM306.95 42.05H264.6L265.5 35.5H307.85L306.95 42.05Z" fill="black"/>
<path d="M332.4 13.45L324.8 25.85V25.8L322.3 29.9501L319.15 28L318.6 24.55L327.5 10.25H321.6L322.45 4.05005H331.3L333.25 0.950048L339.85 1.30005L338.2 4.05005L361.55 4.00005L360.7 10.1501L334.35 10.25L332.45 13.45H332.4ZM331.2 30.55L332.1 24.35H343.5L343.65 23.3L349.25 19.05H334.2L335 13.4001H355.25C356.117 14.4334 357.133 15.6167 358.3 16.9501L358 19.3L351.1 24.35H359.25L358.35 30.55H331.2ZM324.35 27.4501L332.3 14.55L328.25 43.1H321.85L323.7 29.9501L324.35 27.4501ZM342.5 31H348.95L347.85 39.05C347.15 39.5834 346.333 40.3001 345.4 41.2001C345.033 41.5001 344.5 41.9667 343.8 42.6H334.75L335.6 36.6H341.7L342.5 31Z" fill="black"/>
<path d="M380.9 8.00005H373.55L374.6 0.500049H381.95L380.9 8.00005ZM402.7 4.20005H395.3L395.8 0.500049H403.25L402.7 4.20005ZM401.75 11.1501L401.25 14.6501H393.8L394.3 11.1501H385.2L386.15 4.65005H411.6L410.7 11.1501H401.75ZM379 21.6L371.5 22.65L372.6 14.8H368.05L368.95 8.45005H384.6L383.7 14.8H379.95L379 21.6ZM405.85 15.1C406.65 16 407.35 16.8167 407.95 17.55C408.717 18.45 409.05 18.8334 408.95 18.7001L408.5 21.7001L401.3 30.8L406.2 37.2001L405.35 41.05L401.5 43.9001L394.7 34.9501L384.9 44.1L382 41.05C382.033 40.65 382.067 40.3 382.1 40C382.133 39.7334 382.167 39.4834 382.2 39.25L382.45 37.25L388.8 31.4501L384.05 24.5L388.75 21.4501H384.35L385.25 15.1H405.85ZM391.3 21.4501L395.5 27.6L400.7 21.4501H391.3ZM366.15 23.9L369.55 23.4501L378.95 22.05L382.2 21.6L382.15 27.8L378.05 28.4L376.55 39.1501L372.45 42.75H364.5L365.35 36.75H369.5L370.5 29.6L366.3 30.25L366.15 23.9Z" fill="black"/>
<path d="M426.85 9.95005L432.1 9.40005L434.65 14.55L420.25 16.0001L418.5 11.0001L426.45 0.0500488L431.9 3.10005L426.85 9.95005ZM432.65 9.35005L431.35 6.75005L437.55 3.65005L441.55 12.3L443.1 1.30005H449.95L449.4 5.05005L448.5 11.4001L447.85 16.05H452.5L451.65 22.15H443.75C443.75 22.15 443.5 21.85 443 21.25L440.65 18.6L441.35 13.6L436.05 16.3501L435.2 14.55L432.65 9.35005ZM449 11.25L449.9 4.90005L458.2 2.15005L459.3 8.05005L449 11.25ZM452.1 22.15L452.95 16.05L453.5 12.3H459.8L458.9 18.6C457.7 19.6334 456.35 20.8167 454.85 22.15H452.1ZM424.9 37.75H428.75L429.15 35H423.95L424.6 30.25H429.85L430.15 28.1H424.9L425.5 23.9H430.7L431.05 21.7001H425.35L425.2 22.75L423.4 35.4001L422.3 43.4001H415.4L419.1 16.8H434.85C436.35 18.5334 437.367 19.7334 437.9 20.4001L435.2 39.7001L431.15 43.25H424.15L424.9 37.75ZM449.8 36.9001L448.9 43.1501H440.85C439.683 41.8501 438.667 40.65 437.8 39.55L440 23.7001H446.8L446.25 27.5L445.35 33.8L444.95 36.9001H449.8ZM445.9 33.2001L446.75 27.35L454.9 24.15L456.3 29.6L445.9 33.2001ZM456.15 39.55C455.183 40.4167 454.267 41.2167 453.4 41.9501C453.133 42.1834 452.883 42.4 452.65 42.6C452.45 42.8 452.25 42.9834 452.05 43.1501H449.4L450.25 36.9001L450.75 33.4001H457L456.15 39.55Z" fill="black"/>
<path d="M476.8 41C478.167 41 479.417 40.5 480.55 39.5C481.683 38.5334 482.333 37.3667 482.5 36L485.8 12.85H480.7L477.45 35.9001H471.65L470.9 41H476.8Z" fill="black"/>
</svg>
