<svg width="90" height="90" viewBox="0 0 90 90" fill="none" xmlns="http://www.w3.org/2000/svg">
<circle cx="45" cy="45" r="41" fill="white" stroke="black" stroke-width="8"/>
<g clip-path="url(#clip0)">
<path d="M65.1063 44.3157C65.0362 48.9056 62.6719 53.1229 58.8691 55.4329C58.6296 55.5947 58.4599 55.8406 58.3936 56.1218C58.3273 56.4029 58.3693 56.6987 58.5113 56.9503L59.7022 59.0402C59.7899 59.186 59.9064 59.3123 60.0445 59.4117C60.1826 59.5111 60.3395 59.5814 60.5056 59.6183C60.6717 59.6553 60.8437 59.6581 61.0109 59.6266C61.1782 59.5951 61.3373 59.53 61.4785 59.4352C66.6899 56.4403 69.9599 50.7555 70.035 44.5482C70.115 38.3409 66.9902 32.5686 61.8538 29.4312C61.7141 29.3373 61.5571 29.272 61.392 29.239C61.2268 29.206 61.0568 29.2061 60.8917 29.2391C60.7266 29.2721 60.5696 29.3374 60.4299 29.4313C60.2901 29.5252 60.1704 29.6458 60.0775 29.7862L58.8141 31.7961C58.6494 32.0468 58.5909 32.3524 58.6514 32.6461C58.7115 32.9436 58.8866 33.1986 59.1343 33.3536C62.792 35.701 65.0437 39.8359 65.1063 44.3157ZM56.3372 51.058C56.4268 51.1989 56.5439 51.3205 56.6814 51.4154C56.8189 51.5103 56.9741 51.5766 57.1378 51.6105C57.2996 51.6431 57.4663 51.6421 57.6277 51.6077C57.789 51.5733 57.9416 51.5062 58.076 51.4105C60.3252 49.873 61.6862 47.2631 61.7037 44.4607C61.7237 41.6558 60.3977 39.0259 58.1711 37.4534C58.0372 37.3546 57.8843 37.2846 57.722 37.2479C57.5597 37.2111 57.3915 37.2084 57.2281 37.2398C57.0647 37.2713 56.9096 37.3363 56.7726 37.4308C56.6357 37.5252 56.5198 37.647 56.4323 37.7884L55.2414 39.7409C55.1029 39.967 55.0514 40.2357 55.0965 40.497C55.1416 40.7582 55.2802 40.9942 55.4866 41.1608C56.4448 41.9508 57.0027 43.1583 56.9952 44.4332C56.9877 45.7082 56.4173 46.9081 55.449 47.6856C55.2454 47.849 55.1056 48.0786 55.0539 48.3344C55.0023 48.5902 55.042 48.856 55.1663 49.0856L56.3372 51.058ZM48.081 26.2188L31.7713 36.686C31.5593 36.8103 31.319 36.8783 31.0733 36.8835H21.2459C20.9216 36.8781 20.6084 37.0014 20.3749 37.2263C20.1414 37.4512 20.0066 37.7594 20 38.0834V52.398C20.0066 52.722 20.1414 53.0302 20.3749 53.2551C20.6084 53.48 20.9216 53.6033 21.2459 53.5979H31.0933C31.3406 53.5944 31.5834 53.664 31.7913 53.7979L48.0785 64.2451C48.2587 64.3703 48.4695 64.4443 48.6885 64.4593C48.9074 64.4742 49.1264 64.4296 49.3219 64.3301C49.5211 64.2266 49.6905 64.074 49.814 63.8868C49.9375 63.6995 50.011 63.4838 50.0275 63.2601V27.2013C50.011 26.9776 49.9375 26.7619 49.814 26.5746C49.6905 26.3873 49.5211 26.2347 49.3219 26.1313C49.1267 26.0323 48.9082 25.9879 48.6898 26.0028C48.4713 26.0178 48.2609 26.0916 48.081 26.2163V26.2188Z" fill="black"/>
</g>
<defs>
<clipPath id="clip0">
<rect width="50" height="40" fill="white" transform="translate(20 25)"/>
</clipPath>
</defs>
</svg>
